# Generated by Visualization Toolkit
v -0.004015999846160412 -0.007763999979943037 0.003449999960139394
v -0.004131999798119068 -0.009491999633610249 0.0031870000530034304
v -0.003924000076949596 -0.00829899962991476 0.0036430000327527523
v -0.004071999806910753 -0.007333000190556049 0.0029249999206513166
v -0.0039160000160336494 -0.007734000217169523 0.0036589999217540026
v -0.004011999815702438 -0.00748499995097518 0.0034580000210553408
v -0.003809999907389283 -0.008276999928057194 0.003837999887764454
v -0.00417400011792779 -0.009151999838650227 0.002348999958485365
v -0.004222000017762184 -0.009664000011980534 0.002489000093191862
v -0.004397000186145306 -0.011226000264286995 0.002759000053629279
v -0.003657999914139509 -0.008834999985992908 0.003976000007241964
v -0.003961999900639057 -0.0099870003759861 0.0036069999914616346
v -0.004056000150740147 -0.007424999959766865 0.0026110000908374786
v -0.00394000019878149 -0.007153000216931105 0.0037040000315755606
v -0.0039519998244941235 -0.0058929999358952045 0.002157999901100993
v -0.004023000132292509 -0.006051999982446432 0.0035280000884085894
v -0.003932000137865543 -0.005299000069499016 0.0022909999825060368
v -0.0038169999606907368 -0.007703999988734722 0.003868000116199255
v -0.0033939999993890524 -0.009391999803483486 0.004310000222176313
v -0.003370000049471855 -0.008264999836683273 0.004335000179708004
v -0.0038060001097619534 -0.007912999950349331 0.0038499999791383743
v -0.004160999786108732 -0.009956000372767448 0.0015089999651536345
v -0.00430600019171834 -0.011586000211536884 0.0015670000575482845
v -0.004470000043511391 -0.01180499978363514 0.002623999956995249
v -0.004261000081896782 -0.011617000214755535 0.0035099999513477087
v -0.003836000105366111 -0.009971999563276768 0.003790999995544553
v -0.004009000025689602 -0.011587000451982021 0.0038789999671280384
v -0.00393400015309453 -0.00595200015231967 0.001969000091776252
v -0.003889000043272972 -0.005578999873250723 0.001339999958872795
v -0.0039029999170452356 -0.007402000017464161 0.0008449999731965363
v -0.0031999999191612005 -0.007135000079870224 0.004526999779045582
v -0.0035600000992417336 -0.0053980001248419285 0.004327000118792057
v -0.003963999915868044 -0.005431000143289566 0.003797000041231513
v -0.003932000137865543 -0.005382999777793884 0.0019910000264644623
v -0.003963000141084194 -0.00494399992749095 0.0035200000274926424
v -0.003907000180333853 -0.004827000200748444 0.0019920000340789557
v -0.0036899999249726534 -0.0041229999624192715 0.002715999959036708
v -0.0033579999580979347 -0.007872000336647034 0.004341000225394964
v -0.0033660000190138817 -0.007697999943047762 0.004354999866336584
v -0.003590000094845891 -0.010506999678909779 0.004143000114709139
v -0.0031789999920874834 -0.0077149998396635056 0.004484000150114298
v -0.0031999999191612005 -0.010611999779939651 0.0043830000795423985
v -0.0038350000977516174 -0.00861900020390749 0.0005859999801032245
v -0.003854000009596348 -0.009180000051856041 0.0005789999850094318
v -0.004100000020116568 -0.010660000145435333 0.001066999975591898
v -0.0037750001065433025 -0.009828000329434872 0.00035099999513477087
v -0.004414999857544899 -0.012608000077307224 0.0018260000506415963
v -0.004230999853461981 -0.01228999998420477 0.0011419999646022916
v -0.004509999882429838 -0.01231599971652031 0.002768999896943569
v -0.004110000096261501 -0.011231999844312668 0.001019999966956675
v -0.004490000195801258 -0.013283999636769295 0.0033499998971819878
v -0.004261000081896782 -0.012671000324189663 0.0037640000227838755
v -0.004542999900877476 -0.012826000340282917 0.0029219998978078365
v -0.00393400015309453 -0.012679999694228172 0.004064000211656094
v -0.003771000076085329 -0.006461000069975853 0.0003209999995306134
v -0.00380200007930398 -0.00535999983549118 0.00019700000120792538
v -0.003898999886587262 -0.004916000179946423 0.0016840000171214342
v -0.0036770000588148832 -0.004947000183165073 -0.00020199999562464654
v -0.0038109999150037766 -0.008104999549686909 0.00043899999582208693
v -0.002976000076159835 -0.005574999842792749 0.004687000066041946
v -0.0029730000533163548 -0.0074269999749958515 0.004608999937772751
v -0.0033489998895674944 -0.004858999978750944 0.0044570001773536205
v -0.0038209999911487103 -0.004854000173509121 0.0039889998733997345
v -0.003900999901816249 -0.004871999844908714 0.0018350000027567148
v -0.0037620000075548887 -0.004404000006616116 0.003361999988555908
v -0.00380899989977479 -0.004360000137239695 0.0017470000311732292
v -0.003370000049471855 -0.0038759999442845583 0.003924000076949596
v -0.003278000047430396 -0.0035429999697953463 0.003200999926775694
v -0.0035000001080334187 -0.003647000063210726 0.0026020000223070383
v -0.002959999954327941 -0.00829199980944395 0.004561000037938356
v -0.002976000076159835 -0.00774300005286932 0.00459699984639883
v -0.0026839999482035637 -0.009525000117719173 0.004559999797493219
v -0.002966000000014901 -0.010595000348985195 0.00447099981829524
v -0.0028069999534636736 -0.008921000175178051 0.004581000190228224
v -0.0035890000872313976 -0.008522000163793564 0.00007300000288523734
v -0.0032949999440461397 -0.009882000274956226 -0.0002460000105202198
v -0.003421999979764223 -0.009571000002324581 -0.00011899999663000926
v -0.003077999921515584 -0.010811000131070614 -0.00042699999175965786
v -0.0038189999759197235 -0.012045999988913536 0.0004290000069886446
v -0.004164999816566706 -0.013504000380635262 0.0008970000199042261
v -0.004619999788701534 -0.01474899984896183 0.002007999923080206
v -0.004515000153332949 -0.013038000091910362 0.0021959999576210976
v -0.004310000222176313 -0.014525000005960464 0.0011149999918416142
v -0.0042779999785125256 -0.014371000230312347 0.003708000062033534
v -0.004542999900877476 -0.013340000063180923 0.0030990000814199448
v -0.004075999837368727 -0.013886000029742718 0.0038449999410659075
v -0.0038799999747425318 -0.013849999755620956 0.003967000171542168
v -0.0034680000972002745 -0.012768000364303589 0.004236999899148941
v -0.0036180000752210617 -0.007180000189691782 -0.00007500000356230885
v -0.0037700000684708357 -0.005406999960541725 0.0000670000008540228
v -0.0034749999176710844 -0.0051369997672736645 -0.0006760000251233578
v -0.0032250001095235348 -0.004718999844044447 -0.0009369999752379954
v -0.003502999898046255 -0.004157999996095896 0.0004720000142697245
v -0.003573999973013997 -0.004337000194936991 0.00007300000288523734
v -0.0027360001113265753 -0.006053000222891569 0.004749999847263098
v -0.0024969999212771654 -0.005561999976634979 0.00483600003644824
v -0.002698000054806471 -0.0049600000493228436 0.004770999774336815
v -0.002713999943807721 -0.008369999937713146 0.0046339998953044415
v -0.0026549999602138996 -0.004414999857544899 0.004745000042021275
v -0.003263999940827489 -0.004337000194936991 0.004401999991387129
v -0.0035800000187009573 -0.0043310001492500305 0.004093000199645758
v -0.0036140000447630882 -0.0038330000825226307 0.0017709999810904264
v -0.0029909999575465918 -0.003504999913275242 0.0038960000965744257
v -0.002937000012025237 -0.0038620000705122948 0.00442600017413497
v -0.003324999939650297 -0.0034199999645352364 0.0027149999514222145
v -0.0024419999681413174 -0.003191000083461404 0.004011999815702438
v -0.002991999965161085 -0.003229999914765358 0.003019999945536256
v -0.0034050000831484795 -0.003530000103637576 0.001892999978736043
v -0.0032740000169724226 -0.0033889999613165855 0.002374999923631549
v -0.0026730000972747803 -0.010102000087499619 0.004526000004261732
v -0.0026829999405890703 -0.0095229996368289 0.004559999797493219
v -0.0028389999642968178 -0.01180300023406744 0.004308000206947327
v -0.0025820001028478146 -0.010889999568462372 0.0044120000675320625
v -0.002517000073567033 -0.010737000033259392 0.0044280001893639565
v -0.00228899996727705 -0.008496999740600586 0.004621999803930521
v -0.0023819999769330025 -0.009615999646484852 0.004548000171780586
v -0.0029440000653266907 -0.008162000216543674 -0.0008779999916441739
v -0.002435999922454357 -0.008953999727964401 -0.0011690000537782907
v -0.0027989998925477266 -0.01025800034403801 -0.0007040000054985285
v -0.0033050000201910734 -0.007938999682664871 -0.0004529999860096723
v -0.003459000028669834 -0.012858999893069267 -0.00009200000204145908
v -0.0037579999770969152 -0.012670000083744526 0.0002730000123847276
v -0.0028180000372231007 -0.011509999632835388 -0.000645000021904707
v -0.0020240000449121 -0.010765999555587769 -0.001184999942779541
v -0.0023620000574737787 -0.010068999603390694 -0.001053999993018806
v -0.004327999893575907 -0.015644000843167305 0.0011259999591857195
v -0.004002000205218792 -0.01420500036329031 0.0005699999746866524
v -0.004695999901741743 -0.015259999781847 0.0021120000164955854
v -0.004658000078052282 -0.014499999582767487 0.0028570001013576984
v -0.004778999835252762 -0.016380000859498978 0.002051000017672777
v -0.004280999768525362 -0.015424000099301338 0.003963999915868044
v -0.004528000019490719 -0.014400999993085861 0.003338000038638711
v -0.003903999924659729 -0.014694999903440475 0.00395399983972311
v -0.003593999892473221 -0.013895999640226364 0.004007000010460615
v -0.002879000036045909 -0.012373000383377075 0.004244999960064888
v -0.0033279999624937773 -0.006858999840915203 -0.0006389999762177467
v -0.003269999986514449 -0.005752999801188707 -0.0009869999485090375
v -0.002966000000014901 -0.004910000134259462 -0.0013460000045597553
v -0.0034290000330656767 -0.0042329998686909676 -0.00018899999849963933
v -0.0032099999953061342 -0.004311999771744013 -0.0006849999772384763
v -0.0029219998978078365 -0.003473999910056591 0.0008720000041648746
v -0.0030529999639838934 -0.0036120000295341015 0.00039000000106170774
v -0.003154000034555793 -0.004011999815702438 -0.00034699999378062785
v -0.002116000046953559 -0.00798300001770258 0.004625000059604645
v -0.0020630001090466976 -0.0069969999603927135 0.004701999947428703
v -0.0020089999306946993 -0.006862000096589327 0.004712999798357487
v -0.0021180000621825457 -0.004542000126093626 0.004852999933063984
v -0.002145000034943223 -0.005535000003874302 0.00483600003644824
v -0.00204299995675683 -0.004021999891847372 0.004772999789565802
v -0.0024649999104440212 -0.003800000064074993 0.004600000102072954
v -0.002833999926224351 -0.003452999982982874 0.00405400013551116
v -0.0025549998972564936 -0.003527000080794096 0.004395999945700169
v -0.003106999909505248 -0.003287999890744686 0.0025259999092668295
v -0.0018789999885484576 -0.0030239999759942293 0.0038129999302327633
v -0.0021750000305473804 -0.0033179998863488436 0.004360999912023544
v -0.002807999961078167 -0.003413999918848276 0.0013650000328198075
v -0.0027520000003278255 -0.003206999972462654 0.002509000012651086
v -0.0019920000340789557 -0.010409999638795853 0.004126999992877245
v -0.0019660000689327717 -0.009801999665796757 0.004315000027418137
v -0.0026149998884648085 -0.01220100000500679 0.004091000184416771
v -0.002205000026151538 -0.011532999575138092 0.003918999806046486
v -0.0014479999663308263 -0.010950000025331974 0.0033970000222325325
v -0.001990000018849969 -0.009196000173687935 0.0044479998759925365
v -0.0026839999482035637 -0.006725999992340803 -0.0015079999575391412
v -0.0021210000850260258 -0.007515000179409981 -0.0017369999550282955
v -0.0032240001019090414 -0.0074640000239014626 -0.0006830000202171504
v -0.001979999942705035 -0.008627999573946 -0.0015480000292882323
v -0.0019340000580996275 -0.008117999881505966 -0.0016870000399649143
v -0.0016049999976530671 -0.009833999909460545 -0.001446999958716333
v -0.001766999950632453 -0.0103169996291399 -0.00133200001437217
v -0.0030169999226927757 -0.01419300027191639 -0.000375000003259629
v -0.00279000005684793 -0.013744000345468521 -0.0005510000046342611
v -0.0026149998884648085 -0.012721000239253044 -0.0007360000163316727
v -0.0019759999122470617 -0.011881999671459198 -0.0011020000092685223
v -0.0018739999504759908 -0.011369000189006329 -0.0011769999982789159
v -0.0009749999735504389 -0.011130999773740768 -0.0014100000262260437
v -0.003918999806046486 -0.0162189994007349 0.0006440000142902136
v -0.003745999885722995 -0.01602100022137165 0.00037900000461377203
v -0.0034260000102221966 -0.015092999674379826 0.000007000000096013537
v -0.0031659998930990696 -0.014674999751150608 -0.00024199999461416155
v -0.004894999787211418 -0.01607999950647354 0.003003000048920512
v -0.004995000082999468 -0.016797000542283058 0.0023499999660998583
v -0.00456599984318018 -0.01592100039124489 0.0039029999170452356
v -0.004354999866336584 -0.01643799990415573 0.0042849997989833355
v -0.003942000214010477 -0.016008000820875168 0.004230999853461981
v -0.0036059999838471413 -0.014884999953210354 0.003976000007241964
v -0.003117999993264675 -0.013496999628841877 0.004007999785244465
v -0.0027759999502450228 -0.014801000244915485 0.0037219999358057976
v -0.0030519999563694 -0.012911000289022923 0.004155000206083059
v -0.0027630000840872526 -0.013136000372469425 0.0038880000356584787
v -0.003166999900713563 -0.006180999800562859 -0.0010969999711960554
v -0.002853000070899725 -0.006512000225484371 -0.0013909999979659915
v -0.0030070000793784857 -0.006029000040143728 -0.0013599999947473407
v -0.002939000027254224 -0.0055160000920295715 -0.0014750000555068254
v -0.0022770001087337732 -0.004676999989897013 -0.0018139999592676759
v -0.002478000009432435 -0.005191999953240156 -0.0018479999853298068
v -0.0025939999613910913 -0.004102999810129404 -0.001227000029757619
v -0.0027940000873059034 -0.00392899988219142 -0.0007450000266544521
v -0.002478000009432435 -0.003387999953702092 0.00018200000340584666
v -0.0028200000524520874 -0.0036249998956918716 -0.00011500000255182385
v -0.002124000107869506 -0.0035920001100748777 0.001044000033289194
v -0.0017519999528303742 -0.003352999920025468 -0.00016999999934341758
v -0.0015140000032261014 -0.006899000145494938 0.004513000138103962
v -0.0015150000108405948 -0.008981999941170216 0.004131000023335218
v -0.0016459999606013298 -0.005834999959915876 0.004739999771118164
v -0.001554999966174364 -0.0047160000540316105 0.00481100007891655
v -0.0014420000370591879 -0.0042039998807013035 0.004745999816805124
v -0.00177800003439188 -0.0035880000796169043 0.004588000010699034
v -0.00241800001822412 -0.0032240001019090414 0.002506999997422099
v -0.0015940000303089619 -0.0032140000257641077 0.0026599999982863665
v -0.0019290000200271606 -0.0032019999343901873 0.00266400002874434
v -0.001534000039100647 -0.0029899999499320984 0.0038030000869184732
v -0.0012919999426230788 -0.002954999916255474 0.0032909999135881662
v -0.00133200001437217 -0.0030269999988377094 0.0030269999988377094
v -0.0016070000128820539 -0.003195999888703227 0.004155000206083059
v -0.0015020000282675028 -0.0033289999701082706 0.004352000076323748
v -0.0013249999610707164 -0.008964000269770622 0.0039519998244941235
v -0.002392000053077936 -0.013263000175356865 0.0035810000263154507
v -0.002176000038161874 -0.01192300021648407 0.003711000084877014
v -0.0013340000296011567 -0.012001999653875828 0.0031449999660253525
v -0.000007999999979801942 -0.010231999680399895 0.002435999922454357
v -0.0006699999794363976 -0.008585000410676003 0.0033919999841600657
v -0.0017689999658614397 -0.006074999924749136 -0.0022640000097453594
v -0.0015579999890178442 -0.006697999779134989 -0.0022589999716728926
v -0.0013940000208094716 -0.008326999843120575 -0.001879999996162951
v -0.0007539999787695706 -0.009597999975085258 -0.0017340000486001372
v -0.0022090000566095114 -0.014533000066876411 -0.0007600000244565308
v -0.0021750000305473804 -0.013996999710798264 -0.0008219999726861715
v -0.0018230000277981162 -0.012481000274419785 -0.001075000036507845
v -0.0006189999985508621 -0.012316999956965446 -0.0012540000025182962
v 0.0006009999779053032 -0.010534999892115593 -0.001677999971434474
v -0.0002640000020619482 -0.00974700041115284 -0.001762000028975308
v -0.004021000117063522 -0.016950000077486038 0.0008009999874047935
v -0.003792000003159046 -0.016530999913811684 0.0005169999785721302
v -0.003630999941378832 -0.016627000644803047 0.0003480000013951212
v -0.003450999967753887 -0.016719000414013863 0.0001990000018849969
v -0.0026950000319629908 -0.015975000336766243 -0.00038400001358240843
v -0.005005999933928251 -0.017388999462127686 0.004234999883919954
v -0.0052109998650848866 -0.017017999663949013 0.0033470001071691513
v -0.005059999879449606 -0.01660200022161007 0.002976000076159835
v -0.0054709999822080135 -0.017544999718666077 0.0028639999218285084
v -0.005365000106394291 -0.01782499998807907 0.0023159999400377274
v -0.004468999803066254 -0.017782999202609062 0.0013800000306218863
v -0.004279999993741512 -0.017449000850319862 0.004769999999552965
v -0.004124999977648258 -0.016989000141620636 0.004561999812722206
v -0.0035180000122636557 -0.016152000054717064 0.004162000026553869
v -0.003367000026628375 -0.015130000188946724 0.003951000049710274
v -0.0023250000085681677 -0.013794999569654465 0.003470000112429261
v -0.002025000052526593 -0.014565999619662762 0.0033229999244213104
v -0.0033179998863488436 -0.015696000307798386 0.003982999827712774
v -0.002013999968767166 -0.0052200001664459705 -0.002087000058963895
v -0.001429000054486096 -0.005656000226736069 -0.002423000056296587
v -0.0024059999268501997 -0.004120000172406435 -0.001395000028423965
v -0.0014309999532997608 -0.0050479997880756855 -0.002265000017359853
v -0.0018909999635070562 -0.004401000216603279 -0.001867000013589859
v -0.0020389999262988567 -0.003975000232458115 -0.001420999993570149
v -0.0022279999684542418 -0.0037479999009519815 -0.0009459999855607748
v -0.0016700000269338489 -0.0033889999613165855 -0.0008370000286959112
v -0.0015150000108405948 -0.0033480001147836447 -0.0006769999745301902
v -0.0016220000106841326 -0.0037189999129623175 0.0008859999943524599
v -0.0015480000292882323 -0.0036379999946802855 0.001711999997496605
v -0.0017509999452158809 -0.003481999970972538 0.002196999965235591
v -0.001382000045850873 -0.0036989999935030937 0.0003760000108741224
v -0.00133500003721565 -0.007747000083327293 0.004259999841451645
v -0.001234999974258244 -0.007400000002235174 0.0042420001700520515
v -0.001214000047184527 -0.006020000204443932 0.004523999989032745
v -0.0012150000547990203 -0.005222000181674957 0.004610999953001738
v -0.0011060000397264957 -0.004900000058114529 0.004614000208675861
v -0.000999000039882958 -0.004387999884784222 0.004542999900877476
v -0.0011810000287368894 -0.003783999942243099 0.004497999791055918
v -0.0008769999840296805 -0.003444999922066927 0.002010999945923686
v -0.0014039999805390835 -0.003066000062972307 0.003978999797254801
v -0.0009480000007897615 -0.0029239999130368233 0.003281000070273876
v -0.0012039999710395932 -0.0035210000351071358 0.0043739997781813145
v -0.0018420000560581684 -0.012935999780893326 0.0033080000430345535
v -0.0016949999844655395 -0.012369999662041664 0.003261999925598502
v -0.0006840000278316438 -0.013549000024795532 0.0023109999019652605
v -0.00005500000042957254 -0.01153900008648634 0.0020989999175071716
v 0.0008459999808110297 -0.008968000300228596 0.0021550001110881567
v -0.0005050000036135316 -0.007002000231295824 0.0037589999847114086
v 0.00020399999630171806 -0.007375999819487333 0.0031530000269412994
v 0.00016199999663513154 -0.008038000203669071 0.002968000015243888
v 0.00023499999952036887 -0.011130999773740768 0.0018860000418499112
v 0.0007810000097379088 -0.010115000419318676 0.0017369999550282955
v -0.0010319999419152737 -0.006351000163704157 -0.0024870000779628754
v -0.0010979999788105488 -0.006862000096589327 -0.0023709998931735754
v -0.0015409999759867787 -0.013120999559760094 -0.001057000015862286
v -0.0018189999973401427 -0.0167239997535944 -0.000661000027321279
v -0.0007409999961964786 -0.01281999982893467 -0.001167000038549304
v 0.0009699999936856329 -0.011138999834656715 -0.0014400000218302011
v 0.0015490000369027257 -0.009464000351727009 -0.001888000057078898
v 0.0006079999729990959 -0.009486000053584576 -0.0019379999721422791
v 0.0015849999617785215 -0.010006999596953392 -0.0016459999606013298
v -0.00013499999477062374 -0.008193000219762325 -0.0021089999936521053
v -0.0036989999935030937 -0.01713700033724308 0.00046300000394694507
v -0.0038689998909831047 -0.018161000683903694 0.000653000024612993
v -0.003636999987065792 -0.016705000773072243 0.000371000001905486
v -0.0034469999372959137 -0.017836999148130417 0.00023600000713486224
v -0.0023219999857246876 -0.016598999500274658 -0.0005019999807700515
v -0.005272999871522188 -0.01789899915456772 0.004155000206083059
v -0.004982000216841698 -0.018372999504208565 0.004765999969094992
v -0.0054259998723864555 -0.01749899983406067 0.003418999956920743
v -0.005636000074446201 -0.018205000087618828 0.002687999978661537
v -0.005659999791532755 -0.018107999116182327 0.003010000102221966
v -0.004889999981969595 -0.018713999539613724 0.001639000023715198
v -0.0055229999125003815 -0.0189449992030859 0.0021689999848604202
v -0.005524999927729368 -0.018338000401854515 0.0023270000237971544
v -0.004604000132530928 -0.018411999568343163 0.005018999800086021
v -0.004184999968856573 -0.017986999824643135 0.0049589998088777065
v -0.003819999983534217 -0.017358999699354172 0.004658999852836132
v -0.00381199992261827 -0.01708099991083145 0.004563999827951193
v -0.0018579999450594187 -0.015776999294757843 0.003191000083461404
v -0.0029039999935775995 -0.016939999535679817 0.0039900001138448715
v -0.0012619999470189214 -0.013987000100314617 0.0028089999686926603
v -0.001462999964132905 -0.014845999889075756 0.002902999985963106
v -0.0010949999559670687 -0.0049600000493228436 -0.002305000089108944
v -0.000097999996796716 -0.00610300013795495 -0.0026489999145269394
v -0.000514000013936311 -0.005638000089675188 -0.0025549998972564936
v -0.0013849999522790313 -0.004513999912887812 -0.00202700006775558
v -0.001699000014923513 -0.00418000016361475 -0.0017330000409856439
v -0.0015640000347048044 -0.004333000164479017 -0.0018599999602884054
v -0.0014270000392571092 -0.0036359999794512987 -0.001243000035174191
v -0.0014890000456944108 -0.00343999988399446 -0.0010000000474974513
v -0.0011980000417679548 -0.003731000004336238 0.0002099999983329326
v -0.0012290000449866056 -0.003533999901264906 -0.0006719999946653843
v -0.0010189999593421817 -0.0037249999586492777 -0.0011360000353306532
v -0.0006300000241026282 -0.0038320000749081373 0.0008880000095814466
v -0.0006559999892488122 -0.0037350000347942114 0.00120900000911206
v -0.0005419999943114817 -0.00392800010740757 0.0006370000191964209
v -0.0005910000181756914 -0.004062999971210957 0.0002469999890308827
v -0.0008159999852068722 -0.0060720001347362995 0.004219000227749348
v -0.0000670000008540228 -0.004997000098228455 0.003891000058501959
v -0.00012700000661425292 -0.003642000025138259 0.0037040000315755606
v -0.0005760000203736126 -0.0035550000611692667 0.0039369999431073666
v -0.0003129999968223274 -0.0032730000093579292 0.0018100000452250242
v -0.0010900000343099236 -0.0031850000377744436 0.003990999888628721
v -0.0006259999936446548 -0.003000000026077032 0.0032870001159608364
v 0.0000470000013592653 -0.0031659998930990696 0.0017900000093504786
v 0.0005409999866969883 -0.0031159999780356884 0.001943000010214746
v 0.00016599999798927456 -0.003364000003784895 0.003157000057399273
v -0.00035200000274926424 -0.013171999715268612 0.001986999996006489
v -0.000737000023946166 -0.01410400029271841 0.00228599994443357
v 0.0014009999576956034 -0.00851999968290329 0.001841000048443675
v 0.0014199999859556556 -0.008034000173211098 0.0020669999066740274
v 0.0009740000241436064 -0.007141999900341034 0.0027759999502450228
v 0.00007599999662488699 -0.013269999995827675 0.0013470000121742487
v 0.0007580000092275441 -0.01079300045967102 0.0015780000248923898
v 0.0014059999957680702 -0.010463000275194645 0.0014130000490695238
v -0.00021800000104121864 -0.006606999784708023 -0.0025629999581724405
v -0.0004070000140927732 -0.007073000073432922 -0.0024129999801516533
v 0.0012829999905079603 -0.008605999872088432 -0.002124000107869506
v -0.0014039999805390835 -0.01425000000745058 -0.0009289999725297093
v -0.0008459999808110297 -0.01387299969792366 -0.0010130000300705433
v -0.001825000043027103 -0.01743900030851364 -0.0006849999772384763
v -0.002386000007390976 -0.017216000705957413 -0.0004710000066552311
v -0.0006130000110715628 -0.014473999850451946 -0.0009120000177063048
v -0.0006990000256337225 -0.0160910002887249 -0.0007450000266544521
v -0.000783999974373728 -0.016614999622106552 -0.000691999972332269
v -0.001104000024497509 -0.017092999070882797 -0.0007220000261440873
v 0.0004769999941345304 -0.01257800031453371 -0.0010580000234767795
v -0.000018999999156221747 -0.013531000353395939 -0.0009510000236332417
v 0.0010359999723732471 -0.012629999779164791 -0.0006699999794363976
v 0.0011739999754354358 -0.011651000007987022 -0.0010499999625608325
v 0.0016870000399649143 -0.010222000069916248 -0.0014489999739453197
v 0.0013859999598935246 -0.009171999990940094 -0.0020260000601410866
v 0.0020389999262988567 -0.009762000292539597 -0.0014479999663308263
v 0.0020020001102238894 -0.00877000018954277 -0.001967000076547265
v 0.0016880000475794077 -0.010216999799013138 -0.001449999981559813
v -0.003751999931409955 -0.019401000812649727 0.00036299999919719994
v -0.0028880001045763493 -0.018725000321865082 -0.00034699999378062785
v -0.0052189999260008335 -0.01889899931848049 0.004658999852836132
v -0.00546699995175004 -0.01845400035381317 0.0039809998124837875
v -0.005673000123351812 -0.018557000905275345 0.0034000000450760126
v -0.005009000189602375 -0.01941400021314621 0.005042999982833862
v -0.005737000145018101 -0.01863499917089939 0.003056999994441867
v -0.00572599982842803 -0.019007999449968338 0.0027360001113265753
v -0.004639999940991402 -0.020531000569462776 0.0014400000218302011
v -0.005450999829918146 -0.019550999626517296 0.002090000081807375
v -0.005644000135362148 -0.020469000563025475 0.0026020000223070383
v -0.005594999995082617 -0.018881000578403473 0.0023270000237971544
v -0.004162999801337719 -0.018518999218940735 0.005090999882668257
v -0.004604999907314777 -0.018942000344395638 0.005135999992489815
v -0.004813999868929386 -0.019435999915003777 0.005164000205695629
v -0.0039160000160336494 -0.01854499988257885 0.004993000067770481
v -0.0037169998977333307 -0.018703000620007515 0.004889999981969595
v -0.002621999941766262 -0.0181489996612072 0.003988000098615885
v -0.002581000095233321 -0.017636999487876892 0.0038429999258369207
v -0.0017750000115484 -0.01638299971818924 0.0031250000465661287
v -0.000666000007186085 -0.015317000448703766 0.0020469999872148037
v -0.00013800000306218863 -0.00545400008559227 -0.0025869999080896378
v -0.0006840000278316438 -0.004389999900013208 -0.0020550000481307507
v 0.00021600000036414713 -0.006190999876707792 -0.0026370000559836626
v 0.000195999993593432 -0.005470000207424164 -0.0025889999233186245
v -0.001339999958872795 -0.004077000077813864 -0.0017529999604448676
v -0.00036800000816583633 -0.004494000226259232 -0.002044999971985817
v -0.0006880000000819564 -0.004038999788463116 -0.0002579999854788184
v -0.0007089999853633344 -0.004042999818921089 0.000056000000768108293
v -0.0004959999932907522 -0.00431900005787611 -0.0007099999929778278
v -0.00023200000578071922 -0.004606000147759914 -0.0014639999717473984
v 0.00007400000322377309 -0.004891000222414732 -0.0021609999239444733
v -0.00046800001291558146 -0.00433199992403388 -0.0010600000387057662
v -0.000060999998822808266 -0.004110999871045351 0.00047599998652003706
v 0.000039999998989515007 -0.004282999783754349 0.00026699999580159783
v 0.000060999998822808266 -0.003746999893337488 0.0008640000014565885
v -0.00023999999393709004 -0.004435000009834766 -0.00037799999699927866
v 0.00004600000102072954 -0.004466999787837267 -0.00004199999966658652
v 0.000375000003259629 -0.004945999942719936 -0.0006520000169984996
v 0.0013010000111535192 -0.006115000229328871 0.002761000068858266
v 0.0012150000547990203 -0.004900999832898378 0.002983999904245138
v 0.00027200000477023423 -0.004275999963283539 0.0036180000752210617
v 0.0011030000168830156 -0.004298000130802393 0.0030189999379217625
v 0.0008249999955296516 -0.0036619999445974827 0.002853000070899725
v 0.00024500000290572643 -0.0031950001139193773 0.0027970001101493835
v 0.0006730000022798777 -0.0031870000530034304 0.002119000069797039
v 0.0004070000140927732 -0.0032740000169724226 0.0014639999717473984
v 0.0010999999940395355 -0.0035329998936504126 0.0017229999648407102
v 0.001101000001654029 -0.0036180000752210617 0.0014220000011846423
v 0.0007309999782592058 -0.0033360000234097242 0.0014669999945908785
v 0.0007300000288523734 -0.003406000090762973 0.002650999929755926
v -0.00023099999816622585 -0.013876000419259071 0.0016129999421536922
v 0.0019920000340789557 -0.010134999640285969 0.001180000021122396
v 0.0021299999207258224 -0.00901500042527914 0.0013040000339969993
v 0.001276999944821 -0.006829000078141689 0.0026149998884648085
v 0.001661999966017902 -0.006812999956309795 0.002271000063046813
v 0.0003220000071451068 -0.013647000305354595 0.0009929999941959977
v 0.00036100001307204366 -0.013038000091910362 0.0011970000341534615
v 0.0009549999958835542 -0.012709000147879124 0.0009710000013001263
v 0.0017790000420063734 -0.011258999817073345 0.0009730000165291131
v 0.0015800000401213765 -0.010657000355422497 0.0012969999806955457
v 0.0013889999827370048 -0.012318000197410583 0.0008060000254772604
v 0.000691999972332269 -0.006850999779999256 -0.0024969999212771654
v 0.0018820000113919377 -0.008218999952077866 -0.002133999951183796
v 0.0013170000165700912 -0.006978999823331833 -0.0023060000967234373
v -0.0023499999660998583 -0.017666000872850418 -0.000522000016644597
v -0.001972000114619732 -0.017976000905036926 -0.0007520000217482448
v -0.0012700000079348683 -0.018487000837922096 -0.0009270000155083835
v -0.000653000024612993 -0.01610100083053112 -0.0007360000163316727
v -0.0009599999757483602 -0.017129000276327133 -0.0006990000256337225
v -0.0007239999831654131 -0.018338000401854515 -0.0007529999711550772
v 0.000686999992467463 -0.013109000399708748 -0.0007280000136233866
v 0.0005959999980404973 -0.013612999580800533 -0.0006140000186860561
v -0.0005019999807700515 -0.016683999449014664 -0.0006500000017695129
v -0.000009999999747378752 -0.016215000301599503 -0.0004769999941345304
v 0.00011600000289035961 -0.01602100022137165 -0.0002849999873433262
v 0.0007929999846965075 -0.013930999673902988 0.00008600000001024455
v 0.001310999970883131 -0.012612000107765198 -0.0003229999856557697
v 0.002587999915704131 -0.009689999744296074 -0.0006309999735094607
v 0.002133999951183796 -0.01068700011819601 -0.00038499999209307134
v 0.0018119999440386891 -0.010692000389099121 -0.0009869999485090375
v 0.0018350000027567148 -0.010219000279903412 -0.0012839999981224537
v 0.001984999980777502 -0.010215999558568 -0.0011220000451430678
v 0.002710999920964241 -0.008820000104606152 -0.001415999955497682
v 0.0025500000920146704 -0.008332000114023685 -0.00184599997010082
v -0.003961999900639057 -0.02039800025522709 0.000610999995842576
v -0.003745999885722995 -0.020030999556183815 0.00033099998836405575
v -0.0023560000117868185 -0.019005000591278076 -0.0008009999874047935
v -0.0028699999675154686 -0.019331999123096466 -0.00048600000445730984
v -0.005379999987781048 -0.019463999196887016 0.004482999909669161
v -0.0055240001529455185 -0.018983999267220497 0.004038999788463116
v -0.005673999898135662 -0.020208999514579773 0.0035290000960230827
v -0.00508899986743927 -0.02050900086760521 0.00506999995559454
v -0.00572500005364418 -0.020351000130176544 0.002976000076159835
v -0.0053900000639259815 -0.020667999982833862 0.0021909999195486307
v -0.005537999793887138 -0.020880000665783882 0.0024900001008063555
v -0.004391000140458345 -0.02159300073981285 0.0017320000333711505
v -0.004126000218093395 -0.02132200077176094 0.0011569999624043703
v -0.004131999798119068 -0.020767999812960625 0.0009430000209249556
v -0.005661000031977892 -0.02095399983227253 0.002893999917432666
v -0.004364999942481518 -0.019543999806046486 0.005245999898761511
v -0.004091000184416771 -0.019092999398708344 0.005125999916344881
v -0.004881999921053648 -0.020891999825835228 0.005164999980479479
v -0.004633000120520592 -0.02058899961411953 0.005251999944448471
v -0.0025059999898076057 -0.019262999296188354 0.004147999919950962
v -0.0034000000450760126 -0.01991100050508976 0.004925999790430069
v -0.0022950000129640102 -0.018807999789714813 0.0038300000596791506
v -0.0012229999992996454 -0.018237000331282616 0.002894999925047159
v -0.0011220000451430678 -0.017268000170588493 0.0026469998992979527
v -0.0007120000082068145 -0.01643499918282032 0.00202700006775558
v -0.0005949999904260039 -0.016530999913811684 0.0018070000223815441
v -0.00007599999662488699 -0.015792999416589737 0.0009590000263415277
v -0.00019299999985378236 -0.015123999677598476 0.001214000047184527
v -0.00045399999362416565 -0.01489999983459711 0.0017450000159442425
v 0.00007400000322377309 -0.005135000217705965 -0.0024659999180585146
v 0.0012910000514239073 -0.0064409999176859856 -0.0024220000486820936
v 0.0005039999959990382 -0.0056130001321434975 -0.0025740000419318676
v 0.0007949999999254942 -0.005841999780386686 -0.0025470000691711903
v 0.0003870000073220581 -0.005253999959677458 -0.002455000067129731
v 0.00013499999477062374 -0.004900000058114529 -0.0013259999686852098
v 0.0006500000017695129 -0.0051830001175403595 -0.0017979999538511038
v 0.0003589999978430569 -0.004157999996095896 0.0005810000002384186
v 0.0004959999932907522 -0.0046339998953044415 0.00014200000441633165
v 0.0007029999978840351 -0.0039049999322742224 0.0008759999764151871
v 0.001171999960206449 -0.005278999917209148 -0.0007859999896027148
v 0.0009159999899566174 -0.005319000221788883 -0.0014479999663308263
v 0.0019570000004023314 -0.004765999969094992 0.002225999953225255
v 0.0017740000039339066 -0.004406999796628952 0.002271000063046813
v 0.001585999969393015 -0.0038920000661164522 0.001867000013589859
v 0.00203399988822639 -0.004286999814212322 0.0017470000311732292
v 0.0025839998852461576 -0.004831000231206417 0.0006399999838322401
v 0.0012280000373721123 -0.00447099981829524 0.0005210000090301037
v 0.002549000084400177 -0.004784999880939722 0.0009689999860711396
v -0.00030899999546818435 -0.01421700045466423 0.00165200000628829
v 0.000011000000085914508 -0.014066999778151512 0.001184999942779541
v 0.0019369999645277858 -0.010781999677419662 0.0009730000165291131
v 0.0022990000434219837 -0.009730000048875809 0.0009889999637380242
v 0.0027570000384002924 -0.006353999953716993 0.0014039999805390835
v 0.003155000042170286 -0.006637999787926674 0.0008009999874047935
v 0.0027129999361932278 -0.008785000070929527 0.0007169999880716205
v 0.00033000000985339284 -0.01411100011318922 0.0007890000124461949
v 0.0005300000193528831 -0.014065000228583813 0.000610999995842576
v 0.0007570000016130507 -0.013887999579310417 0.00041599999531172216
v 0.0012809999752789736 -0.012984000146389008 0.00028199999360367656
v 0.0017379999626427889 -0.011965000070631504 0.0004180000105407089
v 0.0015350000467151403 -0.012242999859154224 0.000678999989759177
v 0.0018360000103712082 -0.011552000418305397 -0.000012000000424450263
v 0.002203000010922551 -0.007741000037640333 -0.0021039999555796385
v 0.0019829999655485153 -0.006550999823957682 -0.002099999925121665
v 0.0015030000358819962 -0.006397000048309565 -0.0023129999171942472
v -0.0019749999046325684 -0.018634000793099403 -0.0008960000122897327
v -0.0017109999898821115 -0.018675999715924263 -0.0009689999860711396
v -0.0010189999593421817 -0.01941699907183647 -0.0008929999894462526
v -0.0008149999775923789 -0.017165999859571457 -0.0006859999848529696
v -0.0003110000106971711 -0.018982000648975372 -0.0006189999985508621
v -0.0004140000091865659 -0.017820000648498535 -0.0005970000056549907
v -0.0005929999751970172 -0.017217999324202538 -0.0006370000191964209
v -0.0005430000019259751 -0.017085999250411987 -0.0006300000241026282
v 0.0004619999963324517 -0.014595000073313713 -0.00023799999326001853
v -0.00026199998683296144 -0.01672999933362007 -0.00056900002527982
v 0.0001429999974789098 -0.017319999635219574 0.00023099999816622585
v 0.00018099999579135329 -0.016201000660657883 0.00024300000222865492
v 0.00022200000239536166 -0.015518000349402428 0.00023400000645779073
v 0.0012369999894872308 -0.013057000003755093 0.000022000000171829015
v 0.0005009999731555581 -0.014426000416278839 0.00032699998700991273
v 0.0014949999749660492 -0.012543999589979649 0.00010900000052060932
v 0.002518000081181526 -0.010087000206112862 -0.00011000000085914508
v 0.001978999935090542 -0.010227999649941921 -0.0011180000146850944
v 0.003117999993264675 -0.008303999900817871 -0.0011660000309348106
v 0.003094000043347478 -0.008658000268042088 -0.0004459999909158796
v 0.002647999906912446 -0.007814999669790268 -0.0019120000069960952
v 0.003235999960452318 -0.007799999788403511 -0.0012509999796748161
v -0.0033400000538676977 -0.020773999392986298 -0.00009100000170292333
v -0.003512999974191189 -0.021474000066518784 0.0003600000054575503
v -0.0038250000216066837 -0.021000999957323074 0.0006040000007487833
v -0.003969999961555004 -0.020907999947667122 0.0007919999770820141
v -0.0032850001007318497 -0.020262999460101128 -0.0002209999947808683
v -0.0019180000526830554 -0.019178999587893486 -0.0009689999860711396
v -0.002280999906361103 -0.01961199939250946 -0.0008750000270083547
v -0.0027069998905062675 -0.020542999729514122 -0.0006220000213943422
v -0.0053610000759363174 -0.02053000032901764 0.004718999844044447
v -0.00546600017696619 -0.021124999970197678 0.004492000211030245
v -0.005601999815553427 -0.021043000742793083 0.004023000132292509
v -0.005636000074446201 -0.021369000896811485 0.003447999944910407
v -0.005677000153809786 -0.02112700045108795 0.0031969998963177204
v -0.00506900018081069 -0.02108900062739849 0.005028000101447105
v -0.005235000047832727 -0.02108200080692768 0.004879999905824661
v -0.005338000133633614 -0.02155500091612339 0.002580000087618828
v -0.005472999997437 -0.021591000258922577 0.0028280001133680344
v -0.003372000064700842 -0.022213000804185867 0.0007960000075399876
v -0.004304000176489353 -0.021883999928832054 0.0019389999797567725
v -0.0048779998905956745 -0.021869000047445297 0.002443999983370304
v -0.0038109999150037766 -0.021510999649763107 0.0008110000053420663
v -0.003806999884545803 -0.020302999764680862 0.005117999855428934
v -0.004112000111490488 -0.020752999931573868 0.0052089998498559
v -0.004858999978750944 -0.02112100087106228 0.005135000217705965
v -0.004339999984949827 -0.021268000826239586 0.0051449998281896114
v -0.0013810000382363796 -0.020430000498890877 0.003148999996483326
v -0.002196999965235591 -0.020610999315977097 0.003667999990284443
v -0.0025730000343173742 -0.019773000851273537 0.004261999856680632
v -0.002696000039577484 -0.02028599940240383 0.004315999802201986
v -0.0033289999701082706 -0.020517000928521156 0.004846999887377024
v -0.0011350000277161598 -0.019967999309301376 0.00304200011305511
v -0.0005660000024363399 -0.019686000421643257 0.002633000025525689
v -0.0009980000322684646 -0.017872000113129616 0.002626999979838729
v -0.0005380000220611691 -0.017645999789237976 0.0019020000472664833
v -0.0006399999838322401 -0.017040999606251717 0.0019480000482872128
v -0.000526999996509403 -0.019175000488758087 0.0024850000627338886
v -0.0005990000208839774 -0.016560999676585197 0.0018139999592676759
v -0.00045900000259280205 -0.016625000163912773 0.001610000035725534
v -0.0003370000049471855 -0.016721000894904137 0.0013970000436529517
v -0.000043000000005122274 -0.01640000008046627 0.0008370000286959112
v -0.000004999999873689376 -0.014674000442028046 0.001006999984383583
v -0.0005259999888949096 -0.017136000096797943 0.001724999980069697
v 0.0009879999561235309 -0.005617000162601471 -0.0024139999877661467
v 0.000691999972332269 -0.005410000216215849 -0.002437999937683344
v 0.00113800005055964 -0.005382999777793884 -0.0019450000254437327
v 0.0008200000156648457 -0.004488000180572271 0.00045200000749900937
v 0.001142999972216785 -0.004776999820023775 0.00015100000018719584
v 0.0013760000001639128 -0.005435999948531389 -0.0012700000079348683
v 0.0017600000137463212 -0.005644999910145998 -0.0019180000526830554
v 0.0016560000367462635 -0.005067000165581703 -0.00031900001340545714
v 0.0027020000852644444 -0.005747999995946884 0.0015020000282675028
v 0.0024029999040067196 -0.00506300013512373 0.001680999994277954
v 0.002319999970495701 -0.004904000088572502 -0.00001700000029813964
v 0.003043999895453453 -0.005166999995708466 0.0005119999987073243
v 0.00267699989490211 -0.004925000015646219 0.0003929999948013574
v 0.0029819998890161514 -0.005249999929219484 0.000859999970998615
v 0.002329000039026141 -0.010421999730169773 0.0005080000264570117
v 0.002432999899610877 -0.009812000207602978 0.000783999974373728
v 0.0033009999897331 -0.006192000117152929 0.0005360000068321824
v 0.0030429998878389597 -0.008464000187814236 0.00019700000120792538
v 0.003338000038638711 -0.006829000078141689 0.00030499999411404133
v 0.002546000061556697 -0.010005000047385693 0.00021100000594742596
v 0.002558999927714467 -0.006634000223129988 -0.0018050000071525574
v 0.0021550001110881567 -0.0062950002029538155 -0.0020020001102238894
v 0.0028280001133680344 -0.007019999902695417 -0.001744000008329749
v 0.0017079999670386314 -0.006111999973654747 -0.0021879998967051506
v -0.0005469999741762877 -0.019507000222802162 -0.0007259999983943999
v -0.0017600000137463212 -0.019795000553131104 -0.0009919999865815043
v -0.0009619999909773469 -0.019971000030636787 -0.0007980000227689743
v -0.00014699999883305281 -0.019380999729037285 -0.00048499999684281647
v -0.00043399998685345054 -0.02062400057911873 -0.000577000027988106
v -0.000007000000096013537 -0.018410999327898026 -0.0002739999908953905
v 0.000009000000318337698 -0.017849000170826912 -0.00026500000967644155
v 0.000003999999989900971 -0.01812399923801422 0.0007609999738633633
v 0.00013800000306218863 -0.017750000581145287 0.00021800000104121864
v -0.00011100000119768083 -0.01691100001335144 0.0009500000160187483
v -0.00011800000356743112 -0.018154000863432884 0.0010219999821856618
v 0.0032319999299943447 -0.008116000331938267 -0.000371000001905486
v 0.0031649998854845762 -0.007275999989360571 -0.0014619999565184116
v 0.003341000061482191 -0.007381000090390444 -0.0010300000431016088
v -0.0027759999502450228 -0.02105499990284443 -0.0005099999834783375
v -0.002971000038087368 -0.021623000502586365 -0.00013000000035390258
v -0.0038219999987632036 -0.021118000149726868 0.0006510000093840063
v -0.0032919999212026596 -0.022043000906705856 0.0004360000020824373
v -0.002171000000089407 -0.020214999094605446 -0.0009130000253207982
v -0.005229000002145767 -0.021153999492526054 0.004871000070124865
v -0.005412000231444836 -0.021549999713897705 0.00442600017413497
v -0.005280999932438135 -0.02162100002169609 0.004600999876856804
v -0.005534000229090452 -0.02164500020444393 0.003938000183552504
v -0.005483000073581934 -0.0218260008841753 0.0032909999135881662
v -0.0055160000920295715 -0.021771999076008797 0.0036200000904500484
v -0.005148999858647585 -0.022065000608563423 0.002983999904245138
v -0.0033730000723153353 -0.02250099927186966 0.0016749999485909939
v -0.0029410000424832106 -0.02269200049340725 0.0006880000000819564
v -0.003198999911546707 -0.02229899913072586 0.0006370000191964209
v -0.003198999911546707 -0.022300999611616135 0.0006380000268109143
v -0.0035470000002533197 -0.022419000044465065 0.0018339999951422215
v -0.0039610001258552074 -0.022360000759363174 0.002503999974578619
v -0.00458399998024106 -0.022103000432252884 0.0024770000018179417
v -0.00368599989451468 -0.020930999889969826 0.004985000006854534
v -0.003880999982357025 -0.020844999700784683 0.005119000095874071
v -0.00405400013551116 -0.021391000598669052 0.004997999873012304
v -0.004480999894440174 -0.02151300013065338 0.005078000016510487
v -0.004801999777555466 -0.021435000002384186 0.005071999970823526
v -0.004164000041782856 -0.021832000464200974 0.004782000090926886
v -0.004980000201612711 -0.021584000438451767 0.004927000030875206
v -0.0008800000068731606 -0.02131900005042553 0.0025019999593496323
v -0.0007999999797903001 -0.020615000277757645 0.002715999959036708
v -0.0016980000073090196 -0.02191999927163124 0.002575000049546361
v -0.0021730000153183937 -0.02122499980032444 0.003324999939650297
v -0.0023849999997764826 -0.021164000034332275 0.003515999997034669
v -0.0031049998942762613 -0.020889999344944954 0.004466999787837267
v -0.003759999992325902 -0.021510999649763107 0.004730999935418367
v -0.00048600000445730984 -0.020291000604629517 0.0025629999581724405
v 0.00003099999958067201 -0.020061999559402466 0.0019020000472664833
v -0.0003819999983534217 -0.019511999562382698 0.0023880000226199627
v -0.00039599998854100704 -0.01886500045657158 0.002130999928340316
v -0.0004180000105407089 -0.017542000859975815 0.0016120000509545207
v -0.00020700000459328294 -0.018935000523924828 0.001661999966017902
v -0.0003929999948013574 -0.017232000827789307 0.0015249999705702066
v 0.001601999974809587 -0.005698999855667353 -0.0020759999752044678
v 0.002167999977245927 -0.005150000099092722 -0.0004839999892283231
v 0.0022219999227672815 -0.005752999801188707 -0.0017430000007152557
v 0.002374999923631549 -0.0057219997979700565 -0.0015820000553503633
v 0.0025210001040250063 -0.005510000046342611 -0.0011099999537691474
v 0.002853000070899725 -0.005663999821990728 0.0012550000101327896
v 0.002696000039577484 -0.005059000104665756 -0.00006299999949987978
v 0.0031999999191612005 -0.0053400001488626 0.0003659999929368496
v 0.0031330001074820757 -0.005448999814689159 0.0007179999956861138
v 0.0029460000805556774 -0.005146999843418598 0.000007000000096013537
v 0.0032579998951405287 -0.005768999923020601 0.0005920000257901847
v 0.003333000000566244 -0.005619000177830458 0.00023499999952036887
v 0.003415999934077263 -0.006147000007331371 0.00013899999612476677
v 0.0033319999929517508 -0.007536000106483698 -0.0002099999983329326
v 0.0034729999024420977 -0.006451999768614769 -0.00022000000171829015
v 0.003065000055357814 -0.006366000045090914 -0.00133500003721565
v -0.0006970000104047358 -0.02063100039958954 -0.0006380000268109143
v -0.0016850000247359276 -0.020361000671982765 -0.0009309999877586961
v -0.0012730000307783484 -0.020987000316381454 -0.0007309999782592058
v 0.000004999999873689376 -0.020287999883294106 -0.00036199999158270657
v 0.00016399999731220305 -0.019557999446988106 -0.00017800000205170363
v -0.0006120000034570694 -0.021664999425411224 -0.0004600000102072954
v -0.00025099999038502574 -0.020820999518036842 -0.00045200000749900937
v 0.00015300000086426735 -0.018825000151991844 0.0004180000105407089
v -0.00003899999865097925 -0.01911200024187565 0.0012080000014975667
v 0.0034149999264627695 -0.007158999796956778 -0.0007910000276751816
v 0.0032530000898987055 -0.0066709998063743114 -0.001218999968841672
v -0.002553999889642 -0.021456999704241753 -0.0004949999856762588
v -0.002469999948516488 -0.022474000230431557 -0.000019999999494757503
v -0.0029279999434947968 -0.022130999714136124 0.00010699999984353781
v -0.0021649999544024467 -0.020752999931573868 -0.0008140000281855464
v -0.003025999991223216 -0.02239299938082695 0.00048099999548867345
v -0.005156999919563532 -0.021950000897049904 0.004478000104427338
v -0.004846000112593174 -0.021866999566555023 0.0047969999723136425
v -0.005150000099092722 -0.022130999714136124 0.0041669998317956924
v -0.00519500020891428 -0.02206999994814396 0.0033209999091923237
v -0.004951000213623047 -0.022312000393867493 0.00368599989451468
v -0.004707000218331814 -0.022272000089287758 0.0031739999540150166
v -0.002885000081732869 -0.022700000554323196 0.0015279999934136868
v -0.002836999949067831 -0.022485999390482903 0.0003420000139158219
v -0.0027650000993162394 -0.02276499941945076 0.0005280000041238964
v -0.002684999955818057 -0.022873999550938606 0.0010460000485181808
v -0.004234999883919954 -0.02232999913394451 0.0033420000690966845
v -0.0034910000395029783 -0.022425999864935875 0.0026730000972747803
v -0.002076999982818961 -0.022770000621676445 0.0016929999692365527
v -0.004526999779045582 -0.02216999977827072 0.004499000031501055
v -0.003971000202000141 -0.022036999464035034 0.004304000176489353
v -0.003782999934628606 -0.021838000044226646 0.004441000055521727
v -0.001196000026538968 -0.021838000044226646 0.002339000115171075
v -0.0005680000176653266 -0.021563999354839325 0.0021730000153183937
v -0.00016199999663513154 -0.02108599990606308 0.002065999899059534
v -0.0023719999007880688 -0.02188500016927719 0.0029609999619424343
v -0.002445999998599291 -0.022272000089287758 0.002635000040754676
v -0.001554999966174364 -0.02258799970149994 0.0018269999418407679
v -0.0013650000328198075 -0.022374000400304794 0.001962000038474798
v -0.003172999946400523 -0.02187499962747097 0.0035979999229311943
v -0.0026179999113082886 -0.021963000297546387 0.0030980000738054514
v -0.003019999945536256 -0.021412000060081482 0.003984999842941761
v -0.0033730000723153353 -0.02170100063085556 0.0040799998678267
v 0.0000870000003487803 -0.020669000223279 0.0018050000071525574
v 0.00011600000289035961 -0.02009500004351139 0.001623000018298626
v 0.0028009999077767134 -0.005138999782502651 -0.00015900000289548188
v 0.0029690000228583813 -0.00546699995175004 -0.0006200000061653554
v 0.0032510000746697187 -0.005520999897271395 -0.0002809999859891832
v 0.0034020000603049994 -0.00584500003606081 -0.00013299999409355223
v 0.0034580000210553408 -0.0063749998807907104 -0.0005009999731555581
v 0.0033760000951588154 -0.005915999878197908 -0.0004090000002179295
v 0.0032099999953061342 -0.006372999865561724 -0.0011690000537782907
v -0.0009759999811649323 -0.021994000300765038 -0.0004450000124052167
v -0.0016449999529868364 -0.02124599926173687 -0.0007060000207275152
v -0.001993000041693449 -0.021330000832676888 -0.0006820000126026571
v 0.00017299999308306724 -0.020702000707387924 -0.00023200000578071922
v 0.00030899999546818435 -0.020692000165581703 -0.00005700000110664405
v 0.0003009999927598983 -0.020117999985814095 -0.000025999999706982635
v 0.00015900000289548188 -0.021748999133706093 0.00003400000059627928
v -0.0003209999995306134 -0.02222600020468235 -0.00015100000018719584
v 0.00010599999950500205 -0.019747000187635422 0.001095999963581562
v 0.0003389999910723418 -0.01986899971961975 0.0002460000105202198
v 0.0033319999929517508 -0.006490000057965517 -0.000986000057309866
v -0.0020020001102238894 -0.022058000788092613 -0.00042100000428035855
v -0.0028490000404417515 -0.022460000589489937 0.00031900001340545714
v -0.0021720000077039003 -0.022669000551104546 0.000003000000106112566
v -0.004860999993979931 -0.02215299941599369 0.0045010000467300415
v -0.004844999872148037 -0.022292999550700188 0.004184999968856573
v -0.004478999879211187 -0.022369999438524246 0.003854000009596348
v -0.002274000085890293 -0.02294900082051754 0.00037900000461377203
v -0.001686000032350421 -0.023161999881267548 0.0007340000011026859
v -0.004114000126719475 -0.022237999364733696 0.003831000067293644
v -0.003708000062033534 -0.022338999435305595 0.0031679999083280563
v -0.0031049998942762613 -0.022314999252557755 0.0026809999253600836
v -0.0012179999612271786 -0.023019999265670776 0.0012110000243410468
v -0.0006769999745301902 -0.022119000554084778 0.0018710000440478325
v -0.0001829999964684248 -0.02155200019478798 0.001829999964684248
v 0.00015799999528098851 -0.021372999995946884 0.0013760000001639128
v -0.0010260000126436353 -0.022583000361919403 0.0016499999910593033
v -0.0006670000148005784 -0.022478999570012093 0.001630999962799251
v 0.00035799999022856355 -0.021053999662399292 0.0007099999929778278
v 0.00022699999681208283 -0.020698999986052513 0.0012019999558106065
v 0.0001720000000204891 -0.02025499939918518 0.0013599999947473407
v 0.003315000096336007 -0.00596599979326129 -0.0006520000169984996
v -0.0014949999749660492 -0.02249000035226345 -0.00029799999902024865
v -0.0009800000116229057 -0.022602999582886696 -0.00016999999934341758
v -0.0004349999944679439 -0.02243099920451641 -0.00005700000110664405
v -0.001825000043027103 -0.022394999861717224 -0.00029600001289509237
v 0.00035600000410340726 -0.021203000098466873 0.00017600000137463212
v 0.0003659999929368496 -0.02045300044119358 0.0004939999780617654
v -0.0001429999974789098 -0.022237999364733696 -0.000014000000192027073
v 0.00011600000289035961 -0.02217699959874153 0.00046999999904073775
v 0.00026500000967644155 -0.021723000332713127 0.00023600000713486224
v -0.0018619999755173922 -0.02280299924314022 0.000015999999959603883
v -0.001636000000871718 -0.02312999963760376 0.00039400000241585076
v -0.0011549999471753836 -0.023149000480771065 0.0005569999921135604
v -0.0011990000493824482 -0.02314699999988079 0.0008929999894462526
v -0.0004689999914262444 -0.022881999611854553 0.0008449999731965363
v -0.0004910000134259462 -0.02276800014078617 0.0011650000233203173
v -0.0002519999979995191 -0.02210400067269802 0.0015719999792054296
v -0.0001049999991664663 -0.021789999678730965 0.0016210000030696392
v 0.00014200000441633165 -0.022078000009059906 0.0008490000036545098
v -0.0002280000044265762 -0.0224239993840456 0.0012410000199452043
v -0.0012009999481961131 -0.022874999791383743 0.000015999999959603883
v -0.0005699999746866524 -0.022874999791383743 0.0003420000139158219
v -0.00015700000221841037 -0.022505000233650208 0.0002840000088326633
v -0.00016599999798927456 -0.02259499952197075 0.0006939999875612557
v -0.0007880000048317015 -0.02300499938428402 0.0005310000269673765
v -0.000060999998822808266 -0.022319000214338303 0.001095999963581562
f 1 2 3
f 1 4 2
f 5 1 3
f 1 5 6
f 1 6 4
f 3 2 7
f 3 7 5
f 2 8 9
f 8 2 4
f 2 9 10
f 2 11 7
f 10 12 2
f 12 11 2
f 8 4 13
f 14 4 6
f 15 13 4
f 4 14 16
f 15 4 17
f 16 17 4
f 5 18 14
f 14 6 5
f 11 19 7
f 7 19 20
f 7 21 5
f 20 21 7
f 8 22 9
f 23 10 9
f 22 23 9
f 8 13 22
f 10 23 24
f 24 25 10
f 12 10 25
f 11 12 26
f 19 11 26
f 12 25 27
f 12 27 26
f 28 13 15
f 29 30 13
f 13 28 29
f 13 30 22
f 18 31 14
f 32 14 31
f 14 33 16
f 14 32 33
f 28 15 34
f 34 15 17
f 35 17 16
f 16 33 35
f 34 17 36
f 17 37 36
f 35 37 17
f 18 5 21
f 20 18 21
f 38 18 20
f 18 38 39
f 31 18 39
f 19 26 40
f 19 41 20
f 42 19 40
f 41 19 42
f 41 38 20
f 22 43 44
f 23 22 45
f 46 22 44
f 43 22 30
f 22 46 45
f 47 23 48
f 24 23 49
f 23 50 48
f 23 47 49
f 23 45 50
f 25 24 49
f 51 52 25
f 27 25 52
f 25 53 51
f 53 25 49
f 27 40 26
f 54 27 52
f 54 40 27
f 34 29 28
f 30 29 55
f 29 56 55
f 57 58 29
f 57 29 34
f 56 29 58
f 43 30 59
f 30 55 59
f 60 31 61
f 41 31 39
f 31 41 61
f 32 31 62
f 31 60 62
f 33 32 63
f 63 32 62
f 33 63 35
f 34 64 57
f 37 35 65
f 63 65 35
f 36 64 34
f 36 66 64
f 36 37 66
f 67 68 37
f 68 69 37
f 69 66 37
f 65 67 37
f 41 39 38
f 42 40 54
f 42 70 41
f 41 70 71
f 41 71 61
f 72 42 73
f 42 54 73
f 74 42 72
f 70 42 74
f 75 44 43
f 46 44 75
f 75 43 59
f 46 50 45
f 76 46 77
f 46 76 78
f 46 78 79
f 50 46 79
f 46 75 77
f 80 47 48
f 81 82 47
f 83 47 80
f 53 49 47
f 47 83 81
f 53 47 82
f 50 79 48
f 48 79 80
f 52 51 84
f 84 51 85
f 51 53 85
f 52 86 54
f 86 52 84
f 82 85 53
f 54 86 87
f 54 88 73
f 88 54 87
f 55 89 59
f 55 56 89
f 90 89 56
f 56 58 90
f 58 57 66
f 66 57 64
f 58 91 90
f 58 92 91
f 66 93 58
f 58 93 94
f 92 58 94
f 89 75 59
f 60 61 95
f 96 60 95
f 97 62 60
f 60 96 97
f 95 61 98
f 71 98 61
f 99 62 97
f 62 99 100
f 62 101 63
f 100 101 62
f 101 65 63
f 65 101 67
f 93 66 102
f 69 102 66
f 68 67 103
f 100 67 101
f 104 103 67
f 104 67 100
f 69 68 105
f 106 107 68
f 68 107 105
f 103 106 68
f 102 69 108
f 108 69 109
f 109 69 105
f 98 70 74
f 98 71 70
f 72 73 110
f 74 72 111
f 112 73 88
f 73 112 113
f 114 73 113
f 114 110 73
f 74 115 98
f 116 74 111
f 115 74 116
f 89 77 75
f 117 76 77
f 76 118 119
f 76 119 78
f 117 118 76
f 77 120 117
f 89 120 77
f 78 121 122
f 121 78 123
f 79 78 122
f 78 124 123
f 119 125 78
f 78 125 124
f 80 79 122
f 80 126 83
f 127 126 80
f 121 80 122
f 80 121 127
f 85 82 81
f 128 129 81
f 81 83 128
f 85 81 129
f 83 130 128
f 130 83 126
f 131 86 84
f 84 85 131
f 85 132 131
f 85 129 132
f 133 86 131
f 133 87 86
f 134 88 87
f 134 87 133
f 88 134 135
f 112 88 135
f 91 136 89
f 120 89 136
f 90 91 89
f 92 137 91
f 136 91 137
f 92 138 137
f 92 139 140
f 94 139 92
f 140 138 92
f 93 141 142
f 102 141 93
f 93 139 94
f 139 93 143
f 93 142 143
f 95 98 144
f 145 95 144
f 146 96 95
f 95 145 146
f 147 96 148
f 96 146 148
f 96 147 97
f 97 147 99
f 144 98 115
f 99 104 100
f 149 99 147
f 150 99 149
f 150 104 99
f 141 102 108
f 106 103 151
f 103 104 151
f 152 151 104
f 104 150 152
f 105 107 153
f 105 153 109
f 154 107 106
f 154 106 155
f 152 106 151
f 155 106 152
f 107 154 153
f 108 156 141
f 156 108 109
f 157 109 153
f 109 157 156
f 158 110 114
f 116 72 110
f 110 159 116
f 159 110 158
f 72 116 111
f 160 112 135
f 112 160 161
f 161 113 112
f 113 158 114
f 162 158 113
f 113 161 162
f 115 163 144
f 115 116 163
f 163 116 159
f 117 164 165
f 166 117 120
f 118 117 167
f 168 117 165
f 164 117 166
f 117 168 167
f 119 118 125
f 167 169 118
f 118 170 125
f 118 169 170
f 120 136 166
f 171 127 121
f 171 121 172
f 172 121 173
f 121 123 173
f 173 123 174
f 123 175 174
f 123 124 175
f 124 176 175
f 170 176 124
f 125 170 124
f 130 126 177
f 178 126 127
f 126 178 177
f 127 179 178
f 127 171 180
f 127 180 179
f 181 129 128
f 181 128 130
f 132 129 181
f 130 177 182
f 181 130 182
f 131 183 184
f 185 131 184
f 185 186 131
f 132 183 131
f 131 186 133
f 183 132 181
f 186 134 133
f 187 134 188
f 189 134 187
f 186 188 134
f 134 189 135
f 190 135 189
f 135 190 160
f 191 192 136
f 192 166 136
f 136 137 191
f 191 137 193
f 137 138 194
f 137 194 193
f 138 195 196
f 138 196 194
f 138 197 195
f 138 140 197
f 143 140 139
f 198 140 143
f 198 197 140
f 142 141 199
f 143 142 200
f 199 200 142
f 201 202 141
f 141 202 199
f 156 201 141
f 198 143 200
f 203 144 204
f 144 203 145
f 204 144 163
f 145 203 146
f 203 205 146
f 148 146 205
f 148 206 147
f 207 147 206
f 147 207 149
f 206 148 205
f 149 207 208
f 149 155 150
f 155 149 208
f 155 152 150
f 154 157 153
f 157 154 209
f 154 210 211
f 155 212 154
f 154 212 213
f 214 154 213
f 209 154 211
f 154 214 210
f 215 155 216
f 208 216 155
f 215 212 155
f 156 157 201
f 209 201 157
f 158 162 159
f 162 217 159
f 204 159 217
f 204 163 159
f 160 190 218
f 219 160 218
f 160 219 161
f 219 162 161
f 162 219 220
f 162 221 222
f 221 162 220
f 222 217 162
f 164 223 165
f 165 223 224
f 224 168 165
f 166 192 164
f 223 164 192
f 169 167 225
f 168 225 167
f 168 224 225
f 176 169 226
f 169 176 170
f 225 226 169
f 227 180 171
f 227 171 172
f 173 228 172
f 227 172 228
f 229 228 173
f 229 173 174
f 176 174 175
f 174 176 229
f 229 176 230
f 176 231 230
f 176 232 231
f 232 176 226
f 233 182 177
f 178 234 177
f 233 177 234
f 234 178 235
f 178 236 235
f 179 236 178
f 236 179 180
f 237 180 227
f 237 236 180
f 183 181 238
f 239 181 240
f 181 239 238
f 181 182 240
f 241 182 242
f 182 243 242
f 240 182 241
f 233 243 182
f 183 238 184
f 184 238 244
f 245 184 244
f 185 184 245
f 245 246 185
f 247 185 246
f 186 185 247
f 188 186 247
f 187 188 248
f 190 189 187
f 248 190 187
f 248 188 249
f 249 188 250
f 188 247 250
f 190 248 218
f 192 191 193
f 193 223 192
f 223 193 194
f 196 223 194
f 195 251 196
f 196 251 252
f 223 196 252
f 195 197 253
f 251 195 254
f 253 255 195
f 254 195 255
f 256 197 198
f 197 256 253
f 198 257 256
f 258 257 198
f 200 258 198
f 259 199 202
f 258 199 259
f 199 258 200
f 260 202 201
f 261 260 201
f 201 209 262
f 201 262 261
f 202 260 263
f 259 202 263
f 264 203 204
f 265 266 203
f 203 264 265
f 205 203 266
f 217 264 204
f 267 206 205
f 267 205 266
f 268 207 206
f 268 206 267
f 207 268 269
f 269 270 207
f 208 207 270
f 216 208 270
f 209 211 262
f 211 210 262
f 210 271 262
f 214 271 210
f 212 215 272
f 213 212 272
f 272 273 213
f 273 214 213
f 271 214 273
f 216 272 215
f 272 216 274
f 216 270 274
f 222 264 217
f 275 218 248
f 276 218 275
f 276 219 218
f 220 219 276
f 276 277 220
f 278 220 277
f 278 221 220
f 279 222 221
f 264 222 280
f 281 222 282
f 279 282 222
f 281 280 222
f 283 221 278
f 284 221 283
f 221 284 279
f 223 285 224
f 252 285 223
f 225 224 286
f 285 286 224
f 225 286 226
f 286 232 226
f 287 227 228
f 288 227 287
f 227 288 237
f 229 287 228
f 229 289 287
f 229 230 289
f 230 231 290
f 230 290 289
f 291 231 292
f 231 232 292
f 293 231 291
f 293 290 231
f 232 286 294
f 294 292 232
f 233 295 296
f 295 233 234
f 243 233 296
f 234 297 295
f 234 235 297
f 235 236 297
f 236 298 297
f 236 237 298
f 299 298 237
f 237 288 299
f 300 301 238
f 244 238 301
f 238 239 300
f 241 239 240
f 302 300 239
f 239 241 302
f 303 241 242
f 302 241 304
f 241 303 304
f 305 242 243
f 242 305 306
f 303 242 307
f 306 307 242
f 243 296 305
f 308 309 244
f 244 301 308
f 310 244 309
f 311 244 310
f 311 246 244
f 246 245 244
f 312 250 246
f 246 311 313
f 247 246 250
f 312 246 313
f 314 248 249
f 248 314 275
f 315 249 312
f 312 249 250
f 314 249 315
f 251 254 252
f 252 254 316
f 317 285 252
f 252 318 317
f 316 318 252
f 256 255 253
f 254 319 316
f 255 319 254
f 255 320 321
f 321 319 255
f 255 256 320
f 322 320 256
f 322 256 323
f 257 323 256
f 323 257 258
f 258 259 323
f 324 325 259
f 324 259 263
f 325 326 259
f 259 326 323
f 327 260 328
f 329 260 327
f 330 263 260
f 260 329 330
f 328 260 261
f 261 262 328
f 271 328 262
f 263 330 324
f 264 280 265
f 266 265 280
f 280 331 266
f 331 267 266
f 331 268 267
f 268 331 332
f 268 332 269
f 332 333 269
f 334 269 333
f 334 270 269
f 270 334 274
f 328 271 335
f 273 335 271
f 272 274 336
f 336 337 272
f 273 272 337
f 273 338 335
f 338 273 339
f 337 339 273
f 340 336 274
f 274 334 340
f 277 276 275
f 277 275 314
f 341 277 342
f 277 314 342
f 341 278 277
f 278 341 283
f 284 343 279
f 344 282 279
f 344 279 343
f 331 280 332
f 280 281 332
f 345 281 282
f 332 281 345
f 282 344 345
f 346 283 341
f 284 283 347
f 347 283 346
f 348 284 347
f 348 343 284
f 285 317 349
f 285 350 286
f 350 285 349
f 350 351 286
f 286 351 294
f 352 288 287
f 352 287 353
f 287 289 353
f 288 354 355
f 356 357 288
f 355 299 288
f 356 288 352
f 288 358 359
f 288 357 358
f 288 359 354
f 360 289 290
f 289 361 353
f 289 360 361
f 360 290 362
f 290 363 362
f 290 364 363
f 290 293 364
f 291 292 365
f 291 366 293
f 367 366 291
f 365 367 291
f 292 351 365
f 294 351 292
f 368 364 293
f 293 366 368
f 295 298 296
f 298 369 296
f 369 305 296
f 298 295 297
f 369 298 370
f 298 355 370
f 298 299 355
f 301 300 371
f 372 371 300
f 300 302 304
f 373 300 304
f 300 373 372
f 308 301 374
f 301 371 374
f 375 303 376
f 303 307 376
f 303 375 304
f 373 304 375
f 305 377 378
f 306 305 378
f 305 369 377
f 379 380 306
f 379 306 378
f 307 306 380
f 376 307 380
f 309 308 381
f 382 308 383
f 308 374 383
f 382 381 308
f 384 309 381
f 310 309 384
f 385 386 310
f 310 387 311
f 387 310 386
f 385 310 384
f 313 311 387
f 387 388 312
f 389 312 388
f 312 313 387
f 389 315 312
f 342 314 315
f 389 342 315
f 316 390 318
f 391 316 319
f 316 391 390
f 392 349 317
f 393 392 317
f 318 390 317
f 317 390 393
f 320 319 321
f 394 319 320
f 394 391 319
f 320 322 394
f 322 391 394
f 391 322 395
f 395 322 323
f 395 323 326
f 325 324 396
f 397 324 330
f 324 397 396
f 398 325 396
f 325 398 326
f 326 399 400
f 399 326 401
f 326 398 401
f 395 326 400
f 335 327 328
f 327 335 329
f 329 402 403
f 329 404 402
f 329 403 330
f 335 404 329
f 330 405 397
f 330 403 406
f 405 330 407
f 330 406 407
f 332 408 409
f 333 332 410
f 410 332 409
f 408 332 345
f 410 411 333
f 333 411 412
f 412 340 333
f 340 334 333
f 404 335 338
f 337 336 413
f 336 340 413
f 413 414 337
f 339 337 414
f 404 338 415
f 338 339 415
f 339 416 417
f 418 339 417
f 415 339 418
f 416 339 414
f 419 340 412
f 419 413 340
f 342 389 341
f 420 341 389
f 346 341 420
f 421 343 348
f 343 421 422
f 422 344 343
f 423 344 424
f 344 423 345
f 344 422 424
f 408 345 423
f 346 420 425
f 426 346 425
f 347 346 426
f 427 347 426
f 347 428 429
f 348 347 429
f 428 347 430
f 430 347 427
f 421 348 429
f 349 392 431
f 351 349 431
f 351 350 349
f 351 432 365
f 351 431 433
f 433 432 351
f 356 352 353
f 361 356 353
f 355 354 434
f 370 355 434
f 435 434 354
f 359 436 354
f 436 435 354
f 357 356 437
f 361 437 356
f 357 437 358
f 358 438 359
f 436 359 439
f 439 359 438
f 360 440 441
f 361 360 441
f 360 362 440
f 437 361 442
f 443 361 444
f 444 361 441
f 361 443 442
f 445 362 446
f 445 440 362
f 362 447 448
f 448 446 362
f 362 449 447
f 449 362 363
f 449 363 364
f 449 364 450
f 450 364 368
f 367 365 432
f 447 451 366
f 447 366 452
f 366 450 368
f 450 366 451
f 452 366 453
f 367 453 366
f 432 453 367
f 454 369 455
f 369 370 455
f 454 377 369
f 434 456 370
f 457 455 370
f 370 456 457
f 374 371 458
f 371 459 458
f 371 372 459
f 372 373 459
f 375 460 373
f 373 460 459
f 458 461 374
f 374 461 383
f 376 462 375
f 460 375 462
f 380 379 376
f 376 379 462
f 378 377 463
f 378 463 464
f 379 378 464
f 465 377 466
f 465 463 377
f 377 467 466
f 377 454 467
f 462 379 468
f 468 379 464
f 381 382 469
f 381 469 470
f 470 384 381
f 469 382 383
f 471 383 461
f 472 383 471
f 469 383 472
f 384 470 385
f 386 385 473
f 474 385 470
f 473 385 474
f 386 473 475
f 475 387 386
f 387 476 477
f 475 476 387
f 388 387 477
f 388 477 478
f 478 389 388
f 389 479 480
f 389 481 482
f 481 389 480
f 479 389 478
f 420 389 482
f 390 483 393
f 395 390 391
f 390 395 483
f 431 392 484
f 392 393 485
f 486 484 392
f 485 486 392
f 393 487 485
f 483 487 393
f 395 400 483
f 397 405 396
f 396 405 398
f 488 398 405
f 488 401 398
f 488 400 399
f 400 488 489
f 483 400 487
f 400 489 487
f 401 488 399
f 490 403 402
f 403 491 406
f 403 490 491
f 404 490 402
f 404 415 418
f 404 418 492
f 404 492 490
f 488 405 407
f 406 491 407
f 407 493 494
f 407 491 493
f 488 407 494
f 409 408 495
f 495 411 409
f 411 410 409
f 423 424 408
f 495 408 424
f 496 411 495
f 496 412 411
f 412 497 419
f 412 496 498
f 497 412 498
f 414 413 419
f 419 416 414
f 417 416 497
f 499 500 417
f 417 501 499
f 498 417 497
f 501 417 498
f 492 418 417
f 417 500 492
f 416 419 497
f 420 482 502
f 503 420 502
f 425 420 503
f 421 429 504
f 504 505 421
f 505 422 421
f 506 422 507
f 508 422 505
f 424 422 506
f 508 507 422
f 495 424 506
f 503 509 425
f 427 426 425
f 427 425 509
f 510 427 509
f 511 427 510
f 427 511 512
f 430 427 512
f 429 428 504
f 513 428 514
f 428 430 514
f 515 428 513
f 428 515 504
f 430 512 514
f 433 431 484
f 516 453 432
f 433 516 432
f 517 433 518
f 517 516 433
f 518 433 484
f 434 435 519
f 456 434 519
f 435 520 519
f 435 436 520
f 436 521 520
f 436 439 521
f 358 437 442
f 522 439 438
f 522 438 358
f 521 439 523
f 439 522 524
f 439 524 523
f 525 522 358
f 526 358 442
f 525 358 526
f 440 445 441
f 441 445 527
f 441 527 444
f 442 528 526
f 442 443 528
f 529 443 444
f 443 529 528
f 529 444 530
f 527 531 444
f 444 531 530
f 532 445 446
f 527 445 533
f 511 533 445
f 445 512 511
f 512 445 532
f 532 446 534
f 448 534 446
f 447 535 448
f 448 515 534
f 535 515 448
f 451 447 536
f 536 447 449
f 537 447 452
f 447 538 535
f 537 538 447
f 450 536 449
f 450 451 536
f 453 537 452
f 453 516 539
f 540 453 539
f 453 540 537
f 455 541 454
f 542 543 454
f 544 454 543
f 454 544 467
f 542 454 541
f 541 455 545
f 455 457 545
f 456 546 547
f 456 519 546
f 457 456 547
f 457 547 548
f 457 548 545
f 461 458 549
f 458 550 549
f 550 458 459
f 551 459 460
f 459 551 550
f 460 552 551
f 460 462 553
f 460 553 552
f 554 461 555
f 461 554 471
f 461 549 555
f 553 462 468
f 463 465 556
f 463 556 464
f 464 556 557
f 468 464 557
f 466 558 465
f 558 559 465
f 465 560 556
f 560 465 559
f 558 466 561
f 561 466 544
f 466 467 544
f 468 557 553
f 469 562 474
f 562 469 563
f 469 472 563
f 474 470 469
f 564 565 471
f 565 472 471
f 554 564 471
f 563 472 565
f 566 473 567
f 567 473 568
f 473 474 568
f 566 475 473
f 569 474 570
f 474 562 570
f 568 474 569
f 571 572 475
f 572 476 475
f 475 566 571
f 477 476 573
f 573 574 477
f 478 477 575
f 477 574 575
f 576 573 476
f 476 572 576
f 577 478 575
f 479 478 577
f 578 480 479
f 480 579 580
f 530 480 580
f 480 530 531
f 480 533 581
f 480 578 579
f 531 533 480
f 481 480 581
f 578 479 582
f 479 577 582
f 581 482 481
f 503 502 482
f 482 581 503
f 583 518 484
f 583 484 486
f 584 486 485
f 487 584 485
f 486 584 583
f 487 489 584
f 488 494 489
f 489 494 585
f 584 489 585
f 490 586 491
f 490 492 586
f 587 493 491
f 587 491 586
f 492 500 586
f 494 493 588
f 494 589 585
f 494 588 589
f 587 590 493
f 493 590 588
f 591 495 506
f 495 591 592
f 498 495 592
f 498 496 495
f 592 501 498
f 500 499 593
f 501 594 499
f 499 594 595
f 593 499 595
f 593 587 500
f 586 500 587
f 592 596 501
f 501 596 594
f 533 503 581
f 509 503 533
f 597 504 515
f 504 598 505
f 598 504 597
f 508 505 598
f 599 506 507
f 506 599 591
f 507 508 600
f 601 599 507
f 600 601 507
f 600 508 598
f 509 533 510
f 511 510 533
f 512 532 534
f 513 512 534
f 513 514 512
f 515 513 534
f 515 535 602
f 597 515 602
f 603 516 604
f 516 605 539
f 605 516 603
f 516 517 604
f 606 517 518
f 606 604 517
f 518 583 606
f 519 520 546
f 521 546 520
f 521 523 607
f 546 521 608
f 521 607 609
f 609 608 521
f 525 524 522
f 610 611 523
f 611 607 523
f 523 612 610
f 523 613 612
f 524 528 523
f 613 523 528
f 524 525 526
f 524 526 528
f 533 531 527
f 528 529 613
f 530 614 529
f 613 529 615
f 529 614 615
f 616 530 580
f 614 530 617
f 530 616 617
f 538 602 535
f 537 618 538
f 540 618 537
f 602 538 600
f 618 600 538
f 539 619 540
f 539 605 619
f 619 620 540
f 620 618 540
f 541 621 622
f 541 622 542
f 548 541 545
f 541 548 621
f 543 542 623
f 542 622 624
f 624 561 542
f 623 542 561
f 544 543 623
f 547 546 608
f 547 608 625
f 548 547 625
f 548 625 621
f 549 550 555
f 550 626 555
f 550 627 628
f 551 552 550
f 552 629 550
f 550 629 627
f 626 550 628
f 557 552 553
f 552 630 631
f 630 552 557
f 629 552 631
f 554 555 626
f 556 560 632
f 632 557 556
f 630 557 632
f 558 561 624
f 633 558 634
f 635 636 558
f 558 624 635
f 637 558 633
f 558 637 559
f 634 558 636
f 638 559 637
f 638 639 559
f 559 639 560
f 632 560 639
f 544 623 561
f 640 562 641
f 562 563 641
f 562 640 570
f 563 642 641
f 642 563 565
f 564 643 565
f 564 554 644
f 643 564 644
f 645 565 643
f 642 565 645
f 554 626 646
f 554 646 644
f 647 566 567
f 566 647 648
f 566 648 571
f 567 649 647
f 650 649 567
f 651 650 567
f 652 567 569
f 567 652 651
f 567 568 569
f 652 569 570
f 570 640 653
f 653 652 570
f 572 571 654
f 571 648 654
f 655 572 654
f 655 656 572
f 576 572 656
f 573 657 574
f 657 573 576
f 574 658 582
f 617 658 574
f 617 574 659
f 582 575 574
f 574 657 659
f 575 582 577
f 657 576 656
f 578 582 579
f 580 579 616
f 582 660 579
f 660 617 579
f 616 579 617
f 606 583 661
f 584 585 583
f 583 585 661
f 585 589 661
f 587 593 590
f 588 662 589
f 662 588 590
f 606 589 663
f 664 589 665
f 589 606 661
f 589 664 663
f 589 662 665
f 590 593 662
f 599 666 591
f 592 591 666
f 596 592 666
f 662 593 667
f 593 595 667
f 668 594 669
f 596 669 594
f 670 594 668
f 670 595 594
f 667 595 670
f 596 666 671
f 596 671 669
f 602 598 597
f 602 600 598
f 672 671 599
f 599 601 673
f 666 599 671
f 673 672 599
f 674 600 618
f 601 600 674
f 673 601 675
f 674 675 601
f 664 603 604
f 664 676 603
f 603 676 605
f 604 606 663
f 604 663 664
f 676 619 605
f 609 607 677
f 607 611 677
f 625 608 678
f 608 609 678
f 609 677 679
f 678 609 679
f 611 610 680
f 610 681 680
f 610 612 681
f 682 677 611
f 683 682 611
f 611 680 683
f 612 684 681
f 615 612 613
f 612 615 684
f 685 614 659
f 684 615 614
f 617 659 614
f 614 685 684
f 658 617 660
f 686 618 620
f 686 674 618
f 676 687 619
f 687 620 619
f 687 686 620
f 688 622 621
f 622 689 690
f 624 622 690
f 689 622 688
f 691 688 621
f 691 621 625
f 692 635 624
f 624 690 692
f 625 678 691
f 628 646 626
f 627 693 628
f 694 628 693
f 646 628 694
f 627 629 693
f 629 695 693
f 695 629 631
f 696 631 630
f 631 697 695
f 697 631 696
f 696 630 632
f 698 632 639
f 698 696 632
f 634 699 633
f 699 637 633
f 700 701 634
f 692 700 634
f 692 634 636
f 699 634 702
f 701 702 634
f 635 692 636
f 637 699 638
f 638 703 697
f 638 704 703
f 639 638 698
f 638 697 698
f 705 704 638
f 638 699 705
f 653 640 641
f 641 642 653
f 653 642 645
f 643 694 645
f 644 694 643
f 694 644 646
f 645 706 707
f 708 653 645
f 645 707 708
f 706 645 694
f 647 649 709
f 647 709 710
f 711 647 710
f 647 711 648
f 654 648 711
f 649 650 712
f 649 712 713
f 714 649 713
f 709 649 715
f 649 714 715
f 651 716 650
f 650 717 712
f 717 650 716
f 651 652 653
f 718 651 653
f 651 718 716
f 718 653 719
f 719 653 708
f 654 711 720
f 655 654 720
f 721 655 720
f 657 655 659
f 655 657 656
f 721 685 655
f 685 659 655
f 658 660 582
f 722 665 662
f 662 667 722
f 676 664 665
f 723 676 665
f 665 722 723
f 722 667 670
f 669 671 668
f 671 672 668
f 672 724 668
f 670 668 724
f 723 722 670
f 670 724 723
f 672 673 725
f 724 672 725
f 675 725 673
f 686 675 674
f 675 686 726
f 725 675 727
f 675 726 727
f 676 723 728
f 687 676 728
f 729 677 682
f 677 729 679
f 678 730 731
f 691 678 731
f 678 679 730
f 679 729 730
f 683 680 732
f 680 733 732
f 680 681 734
f 680 734 733
f 681 684 734
f 735 736 682
f 682 736 729
f 682 683 735
f 683 732 735
f 737 684 685
f 734 684 738
f 684 737 738
f 685 721 737
f 739 686 687
f 686 739 726
f 687 728 739
f 688 740 689
f 740 688 731
f 731 688 691
f 689 741 690
f 741 692 690
f 700 689 742
f 741 689 700
f 689 740 742
f 741 700 692
f 694 693 743
f 743 693 695
f 706 694 743
f 695 744 743
f 744 695 697
f 696 698 697
f 744 697 745
f 745 697 703
f 702 705 699
f 700 742 701
f 746 701 742
f 746 702 701
f 747 705 702
f 702 746 747
f 748 745 703
f 749 703 704
f 749 748 703
f 704 705 750
f 750 749 704
f 713 705 714
f 705 713 750
f 747 751 705
f 714 705 751
f 707 706 745
f 749 707 748
f 707 749 708
f 707 745 748
f 706 744 745
f 706 743 744
f 719 708 749
f 752 709 715
f 710 709 752
f 752 753 710
f 710 753 711
f 753 754 711
f 711 754 720
f 717 713 712
f 750 713 717
f 714 755 715
f 755 714 751
f 756 715 755
f 752 715 756
f 749 716 719
f 716 749 717
f 716 718 719
f 749 750 717
f 720 754 757
f 758 720 757
f 759 720 758
f 721 720 759
f 737 721 759
f 728 723 739
f 723 727 760
f 727 723 724
f 723 760 739
f 727 724 725
f 739 760 726
f 760 727 726
f 761 730 729
f 761 729 762
f 763 729 736
f 729 763 762
f 730 764 731
f 740 731 764
f 730 761 764
f 735 732 733
f 765 735 733
f 766 765 733
f 766 733 738
f 738 733 734
f 736 735 767
f 735 768 767
f 768 735 769
f 735 765 769
f 736 767 763
f 737 766 738
f 758 737 759
f 766 737 758
f 742 740 764
f 746 742 770
f 764 770 742
f 770 771 746
f 747 746 771
f 772 747 771
f 773 747 772
f 751 747 773
f 751 774 775
f 774 751 773
f 756 755 751
f 756 751 775
f 776 752 756
f 752 777 753
f 777 752 776
f 754 753 777
f 778 754 777
f 757 754 778
f 779 756 775
f 776 756 779
f 769 757 778
f 757 769 765
f 765 766 757
f 766 758 757
f 780 761 762
f 770 764 761
f 780 770 761
f 781 780 762
f 781 762 763
f 767 781 763
f 768 782 767
f 767 782 781
f 782 768 783
f 768 778 783
f 769 778 768
f 770 780 771
f 780 772 771
f 774 772 784
f 784 772 780
f 774 773 772
f 785 775 774
f 779 775 785
f 774 782 783
f 783 785 774
f 774 781 782
f 781 774 784
f 785 776 779
f 776 785 777
f 777 785 778
f 778 785 783
f 780 781 784
