# Generated by Visualization Toolkit
v -0.015460999682545662 0.019582999870181084 -0.11275000125169754
v -0.014286999590694904 0.01563500054180622 -0.11284500360488892
v -0.014507999643683434 0.018686000257730484 -0.12007199972867966
v -0.01781100034713745 0.017402999103069305 -0.10774900019168854
v -0.01822900027036667 0.022388000041246414 -0.11409900337457657
v -0.023962000384926796 0.02376299910247326 -0.12032800167798996
v -0.02020600065588951 0.019840000197291374 -0.12192700058221817
v -0.01835400052368641 0.015128999948501587 -0.11657200008630753
v -0.01807199977338314 0.01510700024664402 -0.10678499937057495
v -0.021973999217152596 0.02273000031709671 -0.10920800268650055
v -0.019473999738693237 0.01642400026321411 -0.10423500090837479
v -0.019747000187635422 0.014565999619662762 -0.10164599865674973
v -0.026413999497890472 0.025085000321269035 -0.1173200011253357
v -0.024940000846982002 0.020920999348163605 -0.12295299768447876
v -0.02289300039410591 0.01635799929499626 -0.12020000070333481
v -0.026241999119520187 0.015057999640703201 -0.11823400110006332
v -0.022424999624490738 0.014090999960899353 -0.10770700126886368
v -0.02432199940085411 0.014046000316739082 -0.10269100219011307
v -0.02970300056040287 0.025913000106811523 -0.11139199882745743
v -0.02415500022470951 0.022167999297380447 -0.10371500253677368
v -0.019669000059366226 0.015672000125050545 -0.09914200007915497
v -0.021237000823020935 0.01432000007480383 -0.09622900187969208
v -0.025265000760555267 0.013465000316500664 -0.09613499790430069
v -0.029045000672340393 0.023225000128149986 -0.12102700024843216
v -0.0287299994379282 0.017942000180482864 -0.12170299887657166
v -0.029311999678611755 0.015079000033438206 -0.10859300196170807
v -0.03487800061702728 0.014556000009179115 -0.11594299972057343
v -0.03627200052142143 0.016336999833583832 -0.11642999947071075
v -0.03034299984574318 0.015035999938845634 -0.10322800278663635
v -0.03183000162243843 0.013880999758839607 -0.09641099721193314
v -0.03777899965643883 0.025398999452590942 -0.11154299974441528
v -0.03477000072598457 0.024348000064492226 -0.11589399725198746
v -0.03152700141072273 0.026081999763846397 -0.10481400042772293
v -0.02596299909055233 0.02204499952495098 -0.09821899980306625
v -0.019773999229073524 0.01513999979943037 -0.09480500221252441
v -0.02060299925506115 0.013753999955952168 -0.0928099974989891
v -0.025136999785900116 0.012438000179827213 -0.09166699647903442
v -0.03323100134730339 0.012052999809384346 -0.08893699944019318
v -0.03901299834251404 0.016831999644637108 -0.10936400294303894
v -0.039159998297691345 0.02029700018465519 -0.1020210012793541
v -0.04031199961900711 0.019422000274062157 -0.1107650026679039
v -0.03627999871969223 0.01943800039589405 -0.09699399769306183
v -0.0350399985909462 0.014333000406622887 -0.08874399960041046
v -0.03827200084924698 0.025756999850273132 -0.10464999824762344
v -0.030215999111533165 0.024911999702453613 -0.09773299843072891
v -0.025390999391674995 0.020469000563025475 -0.09185300022363663
v -0.018682999536395073 0.013279000297188759 -0.08987700194120407
v -0.020333999767899513 0.012755000032484531 -0.0893929973244667
v -0.024927999824285507 0.011326000094413757 -0.08670800179243088
v -0.03443299978971481 0.009933999739587307 -0.08336299657821655
v -0.029333999380469322 0.010484999977052212 -0.08500099927186966
v -0.039181001484394073 0.02371400035917759 -0.10352399945259094
v -0.03717600181698799 0.022110000252723694 -0.09690800309181213
v -0.03530599921941757 0.01942400075495243 -0.08837500214576721
v -0.034627001732587814 0.016877999529242516 -0.08244399726390839
v -0.03654700145125389 0.02483000047504902 -0.09786900132894516
v -0.02908799983561039 0.02464599907398224 -0.09125299751758575
v -0.02278199978172779 0.01969200000166893 -0.08649799972772598
v -0.016582999378442764 0.011742999777197838 -0.0845630019903183
v -0.016573000699281693 0.010106000117957592 -0.08353900164365768
v -0.02108200080692768 0.009789000265300274 -0.08067599684000015
v -0.018490999937057495 0.009077000431716442 -0.08257000148296356
v -0.02679000049829483 0.008837999776005745 -0.07615599781274796
v -0.02348100021481514 0.010034999810159206 -0.07889699935913086
v -0.028025999665260315 0.01445700041949749 -0.07499700039625168
v -0.033275000751018524 0.023453999310731888 -0.08885899931192398
v -0.031261999160051346 0.021554000675678253 -0.08332400023937225
v -0.02544499933719635 0.019209999591112137 -0.07521100342273712
v -0.02593100070953369 0.02235100045800209 -0.08444499969482422
v -0.017580000683665276 0.014639000408351421 -0.08208400011062622
v -0.01819399930536747 0.01707099936902523 -0.08052799850702286
v -0.015270999632775784 0.012531000189483166 -0.08208499848842621
v -0.012870999984443188 0.009882999584078789 -0.07856100052595139
v -0.013406000100076199 0.007373000029474497 -0.07835599780082703
v -0.01592699997127056 0.0058189998380839825 -0.07737000286579132
v -0.020826999098062515 0.008177000097930431 -0.07244200259447098
v -0.017784999683499336 0.00752299977466464 -0.07492999732494354
v -0.023489000275731087 0.012928999960422516 -0.0701339989900589
v -0.022856000810861588 0.008263000287115574 -0.07050199806690216
v -0.020813999697566032 0.01789099909365177 -0.07110399752855301
v -0.02057499997317791 0.01950399950146675 -0.07735999673604965
v -0.01759199984371662 0.017681999132037163 -0.07276599854230881
v -0.013116000220179558 0.011258999817073345 -0.0777679979801178
v -0.013446999713778496 0.012129000388085842 -0.07730700075626373
v -0.014531999826431274 0.015097999945282936 -0.07531999796628952
v -0.008841999806463718 0.007877999916672707 -0.07264000177383423
v -0.00865199975669384 0.006378999911248684 -0.07188300043344498
v -0.012155000120401382 0.0015300000086426735 -0.07048500329256058
v -0.01369599997997284 0.0047519998624920845 -0.06914699822664261
v -0.018185000866651535 0.007056000176817179 -0.06560900062322617
v -0.016011999920010567 0.006111000198870897 -0.06719700247049332
v -0.016499999910593033 0.015521000139415264 -0.0665929988026619
v -0.01881599985063076 0.011719999834895134 -0.06523100286722183
v -0.013922999612987041 0.015556000173091888 -0.06809499859809875
v -0.011137999594211578 0.013062999583780766 -0.07031700015068054
v -0.004259999841451645 0.005408000200986862 -0.06612399965524673
v -0.007482999935746193 -0.00011899999663000926 -0.06488999724388123
v -0.0042849997989833355 0.0030739998910576105 -0.06572899967432022
v -0.010276000015437603 0.003108999924734235 -0.06227999925613403
v -0.013774000108242035 0.00871300045400858 -0.059154998511075974
v -0.013602999970316887 0.005628999788314104 -0.05995099991559982
v -0.009790999814867973 0.012147000059485435 -0.06191499903798103
v -0.01145699992775917 0.012512000277638435 -0.060506001114845276
v -0.006504000164568424 0.00965999998152256 -0.06448599696159363
v 0.00006399999983841553 0.000058000001445179805 -0.05848599970340729
v -0.0000470000013592653 0.003254000097513199 -0.05923299863934517
v -0.006928000133484602 0.00021800000104121864 -0.0561240017414093
v -0.003916999790817499 -0.0026199999265372753 -0.05767099931836128
v -0.009939000010490417 0.002612000098451972 -0.05387600138783455
v -0.009743000380694866 0.006862000096589327 -0.052689000964164734
v -0.0020179999992251396 0.007422999944537878 -0.05791400000452995
v -0.005022999830543995 0.009665999561548233 -0.05621200054883957
v -0.0076060001738369465 0.010521999560296535 -0.05377599969506264
v -0.000805000017862767 -0.005034000147134066 -0.049313001334667206
v 0.0038109999150037766 -0.002461999887600541 -0.04974300041794777
v 0.0005499999970197678 0.005795999895781279 -0.053741998970508575
v 0.0017869999865069985 0.003975000232458115 -0.04986400157213211
v 0.003203999949619174 -0.00016500000492669642 -0.05106600001454353
v -0.006736000068485737 -0.000024000000848900527 -0.04558100178837776
v -0.0033539999276399612 -0.0033199999015778303 -0.04804699867963791
v -0.006357999984174967 0.004222999792546034 -0.04520399868488312
v -0.0026680000592023134 0.008023999631404877 -0.0442189984023571
v 0.00023099999816622585 0.006885000038892031 -0.044943999499082565
v -0.0023060000967234373 -0.005741999950259924 -0.04086900129914284
v 0.0017979999538511038 -0.007300000172108412 -0.042396001517772675
v 0.006219999864697456 -0.004127999767661095 -0.042181000113487244
v 0.006668999791145325 -0.0014059999957680702 -0.04232500120997429
v 0.005113000050187111 0.002862999914214015 -0.04185200110077858
v 0.0024220000486820936 0.006167999934405088 -0.04055200144648552
v -0.004170999862253666 0.0024560000747442245 -0.03760800138115883
v -0.004317000042647123 -0.0028860000893473625 -0.037689000368118286
v -0.0003870000073220581 0.00722600007429719 -0.03933599963784218
v -0.0015369999455288053 -0.006430000066757202 -0.03671799972653389
v 0.0033030000049620867 -0.009217999875545502 -0.0365150012075901
v 0.006763999816030264 -0.006713999900966883 -0.03519200161099434
v 0.008429000154137611 -0.00267699989490211 -0.034056998789310455
v 0.007600000128149986 0.001838000025600195 -0.0310869999229908
v 0.0035830000415444374 0.0054060001857578754 -0.0307839997112751
v -0.0031930000986903906 0.0015589999966323376 -0.029910000041127205
v 0.0009580000187270343 0.006453999783843756 -0.030389999970793724
v -0.0037350000347942114 -0.0047599999234080315 -0.03007899969816208
v -0.0014690000098198652 -0.008469999767839909 -0.02929599955677986
v 0.0036949999630451202 -0.010935000143945217 -0.02988399937748909
v 0.007849999703466892 -0.007683000061661005 -0.02933100052177906
v 0.008860999718308449 -0.0016009999671950936 -0.028512999415397644
v 0.0038479999639093876 0.005458000116050243 -0.028233999386429787
v 0.007240000180900097 0.0014819999923929572 -0.020972000434994698
v 0.003071000101044774 0.003135999897494912 -0.024586999788880348
v 0.009422999806702137 -0.001699000014923513 -0.02138100005686283
v 0.0004830000107176602 0.006080999970436096 -0.026211999356746674
v -0.003938000183552504 0.00038400001358240843 -0.02400900050997734
v -0.004226000048220158 -0.005444000009447336 -0.022328000515699387
v -0.0016189999878406525 -0.01032199990004301 -0.020760999992489815
v 0.0040480000898242 -0.01232299953699112 -0.022406000643968582
v 0.008566999807953835 -0.008778000250458717 -0.02239299938082695
v 0.009875999763607979 -0.0036039999686181545 -0.015046999789774418
v 0.007261999882757664 0.0012659999774768949 -0.014278000220656395
v -0.00009200000204145908 0.00608400022611022 -0.021443000063300133
v 0.00368899991735816 0.005619000177830458 -0.014192000031471252
v 0.008910000324249268 -0.009727000258862972 -0.015615000389516354
v -0.00533400010317564 0.00034699999378062785 -0.019349999725818634
v -0.0059529999271035194 -0.004610000178217888 -0.017199000343680382
v -0.0031930000986903906 -0.007579999975860119 -0.011723999865353107
v -0.001521000056527555 -0.011672000400722027 -0.010383999906480312
v 0.004939999897032976 -0.013585000298917294 -0.014487000182271004
v 0.007817000150680542 -0.00880999956279993 -0.00826600007712841
v 0.009944000281393528 -0.004602999892085791 -0.008483000099658966
v 0.00801900029182434 0.001158999977633357 -0.007958999834954739
v -0.0008689999813213944 0.00773000018671155 -0.014550000429153442
v 0.004360999912023544 0.005007000174373388 -0.008194999769330025
v 0.005187999922782183 -0.012563999742269516 -0.009259999729692936
v -0.007664000149816275 0.0010939999483525753 -0.0125730000436306
v -0.007428999990224838 -0.007544999942183495 -0.009903999976813793
v -0.008969999849796295 -0.004164999816566706 -0.010355000384151936
v -0.004747000057250261 -0.010712999850511551 -0.008332000114023685
v -0.0013689999468624592 -0.012974999845027924 -0.006785999983549118
v 0.006512000225484371 -0.010545000433921814 -0.000674000009894371
v 0.007594999857246876 -0.007499000057578087 0.0009660000214353204
v 0.00648800004273653 -0.002145000034943223 0.0008650000090710819
v 0.008322999812662601 -0.0010659999679774046 -0.006310000084340572
v 0.006173999980092049 0.0044189998880028725 -0.00458399998024106
v -0.003924999851733446 0.009104999713599682 -0.009351000189781189
v 0.0028409999795258045 0.008143000304698944 -0.0048039997927844524
v -0.0035649999044835567 0.010734000243246555 -0.0047439998015761375
v 0.0017600000137463212 -0.012102000415325165 -0.0031010000966489315
v -0.010224999859929085 0.0026279999874532223 -0.0071840002201497555
v -0.0066650002263486385 -0.011926000006496906 -0.0046430001966655254
v -0.012272999621927738 -0.009093999862670898 -0.0029319999739527702
v -0.012773999944329262 -0.002736999886110425 -0.004354000091552734
v -0.000018000000636675395 -0.00001700000029813964 9.999999974752427e-7
v 0.006473999936133623 0.0026549999602138996 0.00031599999056197703
v 0.0008069999748840928 -0.004759000148624182 -0.00037900000461377203
v 0.00267699989490211 0.006554000079631805 -0.0006970000104047358
v -0.010281000286340714 0.004954999778419733 -0.002858000108972192
v -0.0019460000330582261 0.004803000018000603 -0.000707999977748841
v -0.005948000121861696 -0.011521999724209309 -0.001560000004246831
v -0.014198999851942062 -0.0020129999611526728 0.000299000006634742
v -0.01363999955356121 -0.008983000181615353 0.0005150000215508044
v -0.007323000114411116 0.000375000003259629 0.0011840000515803695
v -0.00646300008520484 -0.006895999889820814 0.0008350000134669244
v -0.0069240001030266285 -0.00016900000628083944 -0.04530499875545502
v -0.006922000087797642 0.0002880000101868063 -0.04600600153207779
v -0.004406999796628952 -0.002804999938234687 -0.03817899897694588
f 1 2 3
f 2 1 4
f 1 3 5
f 1 5 4
f 6 3 7
f 8 7 3
f 2 8 3
f 6 5 3
f 9 8 2
f 4 9 2
f 4 5 10
f 10 11 4
f 12 4 11
f 12 9 4
f 5 13 10
f 5 6 13
f 14 13 6
f 6 7 14
f 15 14 7
f 8 15 7
f 8 16 15
f 9 17 8
f 8 17 16
f 9 18 17
f 9 12 18
f 13 19 10
f 20 10 19
f 10 20 11
f 20 21 11
f 22 11 21
f 22 12 11
f 12 23 18
f 12 22 23
f 24 19 13
f 14 24 13
f 24 14 25
f 25 14 15
f 25 15 16
f 16 17 26
f 16 26 27
f 28 16 27
f 28 25 16
f 29 17 18
f 29 26 17
f 30 18 23
f 30 29 18
f 31 19 32
f 20 19 33
f 24 32 19
f 33 19 31
f 34 20 33
f 20 34 21
f 34 35 21
f 21 36 22
f 21 35 36
f 22 37 23
f 22 36 37
f 38 23 37
f 38 30 23
f 32 24 25
f 32 25 28
f 39 27 26
f 40 26 29
f 40 39 26
f 41 27 39
f 41 28 27
f 31 28 41
f 31 32 28
f 42 29 30
f 42 40 29
f 43 30 38
f 43 42 30
f 33 31 44
f 44 31 41
f 34 33 45
f 45 33 44
f 46 34 45
f 34 46 35
f 46 47 35
f 48 35 47
f 48 36 35
f 36 49 37
f 36 48 49
f 49 38 37
f 43 38 50
f 51 50 38
f 49 51 38
f 52 39 40
f 52 41 39
f 53 40 42
f 53 52 40
f 44 41 52
f 54 42 43
f 54 53 42
f 55 43 50
f 55 54 43
f 45 44 56
f 56 44 52
f 46 45 57
f 57 45 56
f 58 46 57
f 46 58 47
f 58 59 47
f 60 47 59
f 60 48 47
f 48 61 49
f 62 48 60
f 48 62 61
f 63 49 64
f 61 64 49
f 63 51 49
f 51 63 50
f 65 50 63
f 65 55 50
f 56 52 53
f 66 53 54
f 66 56 53
f 67 54 55
f 67 66 54
f 68 55 65
f 68 67 55
f 57 56 66
f 58 57 69
f 69 57 66
f 70 58 71
f 71 58 69
f 58 70 59
f 72 59 70
f 72 73 59
f 74 59 73
f 74 60 59
f 75 60 74
f 75 62 60
f 76 61 77
f 76 64 61
f 77 61 62
f 77 62 75
f 63 78 65
f 79 63 64
f 63 79 78
f 79 64 76
f 80 65 78
f 80 68 65
f 69 66 67
f 81 67 68
f 81 69 67
f 82 68 80
f 82 81 68
f 71 69 81
f 83 70 84
f 83 72 70
f 84 70 71
f 84 71 85
f 85 71 81
f 72 83 73
f 83 86 73
f 87 73 86
f 87 74 73
f 88 74 87
f 88 75 74
f 89 75 88
f 89 77 75
f 90 76 91
f 90 79 76
f 91 76 77
f 91 77 89
f 92 78 93
f 93 78 79
f 92 80 78
f 93 79 90
f 94 80 92
f 94 82 80
f 85 81 82
f 95 82 94
f 95 85 82
f 83 84 86
f 86 84 85
f 86 85 95
f 95 96 86
f 96 87 86
f 97 87 98
f 97 88 87
f 96 98 87
f 99 88 97
f 99 89 88
f 99 91 89
f 100 90 101
f 101 90 91
f 100 93 90
f 101 91 99
f 102 92 103
f 100 92 93
f 102 94 92
f 100 103 92
f 104 94 102
f 104 95 94
f 95 104 96
f 96 105 98
f 106 96 104
f 96 106 105
f 107 97 108
f 107 99 97
f 108 97 98
f 108 98 105
f 109 99 107
f 109 101 99
f 110 100 101
f 103 100 110
f 110 101 109
f 111 102 112
f 111 104 102
f 112 102 103
f 103 110 113
f 112 103 113
f 106 104 111
f 114 105 115
f 106 115 105
f 114 108 105
f 116 106 111
f 106 116 117
f 118 106 117
f 106 118 115
f 107 119 109
f 120 107 108
f 107 120 119
f 120 108 114
f 121 109 119
f 121 110 109
f 122 110 121
f 122 113 110
f 123 111 112
f 123 116 111
f 113 123 112
f 113 122 123
f 124 114 125
f 124 120 114
f 125 114 115
f 125 115 126
f 118 126 115
f 116 123 117
f 127 117 128
f 129 117 123
f 127 118 117
f 129 128 117
f 118 127 126
f 130 119 131
f 121 119 130
f 120 131 119
f 120 124 131
f 121 132 122
f 121 130 132
f 122 129 123
f 122 132 129
f 133 131 124
f 134 124 125
f 133 124 134
f 134 125 126
f 134 126 135
f 127 135 126
f 136 127 128
f 127 136 135
f 136 128 137
f 137 128 129
f 132 138 129
f 137 129 138
f 130 131 139
f 130 140 132
f 130 139 140
f 139 131 141
f 141 131 133
f 132 140 138
f 141 133 142
f 142 133 134
f 142 134 143
f 143 134 135
f 143 135 144
f 136 144 135
f 145 136 137
f 136 145 144
f 146 137 138
f 147 137 148
f 149 137 147
f 148 137 146
f 149 145 137
f 140 146 138
f 139 150 140
f 151 139 141
f 139 151 150
f 140 150 146
f 151 141 152
f 142 152 141
f 152 142 153
f 143 153 142
f 153 143 154
f 154 143 144
f 154 144 155
f 145 155 144
f 145 149 155
f 150 148 146
f 156 147 157
f 148 157 147
f 156 149 147
f 158 159 148
f 150 158 148
f 148 159 157
f 149 160 155
f 149 156 160
f 151 158 150
f 161 151 152
f 151 161 158
f 162 152 153
f 161 152 162
f 163 162 153
f 164 163 153
f 165 153 154
f 165 164 153
f 165 154 155
f 165 155 160
f 166 156 167
f 167 156 157
f 166 160 156
f 167 157 168
f 159 168 157
f 161 169 158
f 158 169 159
f 169 170 159
f 159 170 168
f 171 160 166
f 171 165 160
f 172 161 162
f 161 172 169
f 173 162 163
f 172 162 174
f 173 174 162
f 175 173 163
f 164 175 163
f 171 164 165
f 175 164 176
f 171 176 164
f 177 166 178
f 179 166 180
f 166 167 180
f 177 171 166
f 179 178 166
f 180 167 168
f 168 181 180
f 168 170 181
f 172 182 169
f 169 182 170
f 170 183 181
f 170 184 183
f 170 182 184
f 171 185 176
f 171 177 185
f 172 186 182
f 186 172 174
f 173 187 188
f 174 173 188
f 173 175 187
f 186 174 189
f 174 188 189
f 175 176 187
f 187 176 185
f 179 177 178
f 179 185 177
f 190 179 191
f 190 192 179
f 191 179 180
f 179 192 185
f 191 180 181
f 193 181 183
f 193 191 181
f 194 182 186
f 194 184 182
f 183 184 193
f 194 195 184
f 184 195 193
f 192 196 185
f 187 185 196
f 197 186 189
f 197 194 186
f 188 196 198
f 188 197 189
f 188 187 196
f 188 198 197
f 195 199 190
f 192 190 199
f 195 190 191
f 195 191 193
f 192 199 200
f 192 200 196
f 199 194 197
f 195 194 199
f 200 198 196
f 198 199 197
f 198 200 199
f 201 202 203
