# Generated by Visualization Toolkit
v -0.0006629999843426049 0.0011409999569877982 0.007926000282168388
v -0.00024399999529123306 0.00007899999764049426 0.0005709999823011458
v 0.005260999780148268 0.0012839999981224537 0.006012000143527985
v 0.007840000092983246 0.002032000105828047 -0.0003499999875202775
v 0.006717999931424856 0.002672000089660287 -0.005657999776303768
v 0.0011439999798312783 0.0027260000351816416 -0.008383000269532204
v -0.0035729999653995037 0.002621999941766262 -0.007854999974370003
v -0.0065910001285374165 0.0016759999562054873 -0.0014049999881535769
v -0.005167999770492315 0.0013470000121742487 0.004521000199019909
v 0.02971399948000908 -0.23310500383377075 -0.021772999316453934
v 0.0280930008739233 -0.23396800458431244 -0.018619999289512634
v 0.023392999544739723 -0.23329000174999237 -0.019432999193668365
v 0.03346699848771095 -0.2351509928703308 -0.01875700056552887
v 0.03820500150322914 -0.237978994846344 -0.020779000595211983
v 0.03459399938583374 -0.23523400723934174 -0.02377999946475029
v 0.04029100015759468 -0.24019299447536469 -0.022154999896883965
v 0.035704001784324646 -0.23622199892997742 -0.025005999952554703
v 0.04101699963212013 -0.2433210015296936 -0.02465599961578846
v 0.0361500009894371 -0.2371550053358078 -0.026468999683856964
v 0.039329998195171356 -0.240556001663208 -0.02755500003695488
v 0.034481000155210495 -0.2357970029115677 -0.027891000732779503
v 0.034970998764038086 -0.23615600168704987 -0.0298909991979599
v 0.03175999969244003 -0.23467999696731567 -0.028743000701069832
v 0.027893999591469765 -0.2352219969034195 -0.03200199827551842
v 0.02744000032544136 -0.23312599956989288 -0.028644999489188194
v 0.019586000591516495 -0.23369100689888 -0.03141700103878975
v 0.022915000095963478 -0.2327589988708496 -0.027914000675082207
v 0.0161920003592968 -0.23488199710845947 -0.03218499943614006
v 0.020431000739336014 -0.2317509949207306 -0.026464000344276428
v 0.014360000379383564 -0.2339410036802292 -0.03194199874997139
v 0.019514000043272972 -0.23132599890232086 -0.024855000898241997
v 0.014857999980449677 -0.2300730049610138 -0.026204999536275864
v 0.018471000716090202 -0.23065300285816193 -0.02355100028216839
v 0.01063700020313263 -0.23182900249958038 -0.017124999314546585
v 0.018834000453352928 -0.23101100325584412 -0.02094399929046631
v 0.01785000041127205 -0.2327120006084442 -0.014670000411570072
v 0.021821999922394753 -0.23177500069141388 -0.019785000011324883
v 0.02262900024652481 -0.23402400314807892 -0.014433999545872211
v 0.02828899957239628 -0.23398099839687347 -0.01858000084757805
v 0.026079000905156136 -0.23208600282669067 -0.024684999138116837
v 0.034446001052856445 -0.22435399889945984 -0.01823499985039234
v 0.028805000707507133 -0.22994600236415863 -0.014878000132739544
v 0.02703999914228916 -0.22348199784755707 -0.01826000027358532
v 0.035982999950647354 -0.22963200509548187 -0.015371999703347683
v 0.041933998465538025 -0.22339899837970734 -0.017551999539136887
v 0.042146001011133194 -0.22818000614643097 -0.0165570005774498
v 0.045850999653339386 -0.22880299389362335 -0.025837000459432602
v 0.042844999581575394 -0.2239830046892166 -0.02865700051188469
v 0.03940799832344055 -0.22975799441337585 -0.030621999874711037
v 0.03813900053501129 -0.22383099794387817 -0.03159699961543083
v 0.03209900110960007 -0.23039400577545166 -0.03606799989938736
v 0.03086799941956997 -0.22337700426578522 -0.03689799830317497
v 0.026937000453472137 -0.22989299893379211 -0.03617699816823006
v 0.024739999324083328 -0.22325499355793 -0.035406000912189484
v 0.01760599948465824 -0.22929300367832184 -0.03438099846243858
v 0.014135000295937061 -0.22354400157928467 -0.032653000205755234
v 0.013132999651134014 -0.2286050021648407 -0.033805001527071
v 0.0147299999371171 -0.2275959998369217 -0.025821000337600708
v 0.014693999662995338 -0.222788006067276 -0.020183000713586807
v 0.011605000123381615 -0.22853800654411316 -0.017849000170826912
v 0.02096799947321415 -0.22310300171375275 -0.017960000783205032
v 0.01692900061607361 -0.22957299649715424 -0.012210000306367874
v 0.028020000085234642 -0.22357499599456787 -0.018578000366687775
v 0.03542099893093109 -0.21941399574279785 -0.01998700015246868
v 0.027096999809145927 -0.22044500708580017 -0.019106000661849976
v 0.040369998663663864 -0.2177489995956421 -0.02016800083220005
v 0.03965400159358978 -0.2169010043144226 -0.026395000517368317
v 0.03337400034070015 -0.21802300214767456 -0.033020999282598495
v 0.027222000062465668 -0.21863600611686707 -0.03512699902057648
v 0.019929999485611916 -0.21839800477027893 -0.031911998987197876
v 0.01627499982714653 -0.21763600409030914 -0.02981399931013584
v 0.016352999955415726 -0.21772700548171997 -0.02074499987065792
v 0.027943000197410583 -0.2199079990386963 -0.019579999148845673
v 0.03272600099444389 -0.20777800679206848 -0.02024500072002411
v 0.027522999793291092 -0.20833399891853333 -0.019979000091552734
v 0.038453999906778336 -0.20733599364757538 -0.023605000227689743
v 0.03562600165605545 -0.2059680074453354 -0.027847999706864357
v 0.03242100030183792 -0.20608200132846832 -0.030706999823451042
v 0.0259380005300045 -0.20763500034809113 -0.032485999166965485
v 0.019137000665068626 -0.2083290070295334 -0.028457999229431152
v 0.018372999504208565 -0.20831599831581116 -0.02223300002515316
v 0.028519999235868454 -0.208515003323555 -0.02040800079703331
v 0.026373999193310738 -0.18403899669647217 -0.017921000719070435
v 0.03190099820494652 -0.18377399444580078 -0.018358999863266945
v 0.034821998327970505 -0.18355900049209595 -0.023065999150276184
v 0.03260499984025955 -0.18314999341964722 -0.02709200046956539
v 0.029285000637173653 -0.18139100074768066 -0.028815999627113342
v 0.02123500034213066 -0.1834769994020462 -0.024608999490737915
v 0.018803000450134277 -0.18330399692058563 -0.02067600004374981
v 0.022081999108195305 -0.18347199261188507 -0.018763000145554543
v 0.027223000302910805 -0.18398499488830566 -0.018557000905275345
v 0.03177199885249138 -0.16601000726222992 -0.01679299958050251
v 0.025786999613046646 -0.1663530021905899 -0.015637999400496483
v 0.02530200034379959 -0.13925300538539886 -0.017960000783205032
v 0.031055999919772148 -0.13909900188446045 -0.015552000142633915
v 0.033567000180482864 -0.16575400531291962 -0.01998399943113327
v 0.03175700083374977 -0.13865600526332855 -0.018334999680519104
v 0.031076999381184578 -0.16722600162029266 -0.02574400044977665
v 0.02923399955034256 -0.13853499293327332 -0.02544800005853176
v 0.025358999148011208 -0.16550999879837036 -0.027262000367045403
v 0.02469700016081333 -0.13917900621891022 -0.025464000180363655
v 0.02112700045108795 -0.1657020002603531 -0.02314000017940998
v 0.019354000687599182 -0.14029400050640106 -0.021693000569939613
v 0.02013999968767166 -0.1657640039920807 -0.01934099942445755
v 0.01687300018966198 -0.14017899334430695 -0.01654200069606304
v 0.023132000118494034 -0.1662980020046234 -0.01763799972832203
v 0.020826999098062515 -0.13923600316047668 -0.015584000386297703
v 0.02648100070655346 -0.16581200063228607 -0.016865000128746033
v 0.022498000413179398 -0.11526799947023392 -0.011420000344514847
v 0.028188999742269516 -0.11453799903392792 -0.013516999781131744
v 0.027161000296473503 -0.11355199664831161 -0.019175000488758087
v 0.024122999981045723 -0.11360199749469757 -0.023329000920057297
v 0.02304700016975403 -0.11411699652671814 -0.023724999278783798
v 0.017033999785780907 -0.11566200107336044 -0.01881200075149536
v 0.013148000463843346 -0.11658400297164917 -0.014604000374674797
v 0.01748800091445446 -0.11559999734163284 -0.01252800039947033
v 0.022738000378012657 -0.08715099841356277 -0.00848700013011694
v 0.01869799941778183 -0.08836500346660614 -0.00661400007084012
v 0.013946999795734882 -0.07395900040864944 -0.003978000022470951
v 0.01787099987268448 -0.07153700292110443 -0.005415999796241522
v 0.024102000519633293 -0.08664000034332275 -0.01348899956792593
v 0.018484000116586685 -0.07124999910593033 -0.010812000371515751
v 0.020913999527692795 -0.08655399829149246 -0.01786400005221367
v 0.01471799984574318 -0.07124900072813034 -0.014394000172615051
v 0.01898300088942051 -0.08677099645137787 -0.017992999404668808
v 0.01385399978607893 -0.07083000242710114 -0.015041000209748745
v 0.013341999612748623 -0.08797600120306015 -0.017284000292420387
v 0.00685499981045723 -0.07193899899721146 -0.013166000135242939
v 0.007002000231295824 -0.09123100340366364 -0.010799000039696693
v 0.004052000120282173 -0.07376299798488617 -0.008531000465154648
v 0.013518000021576881 -0.0888189971446991 -0.009421000257134438
v 0.008957999758422375 -0.07340999692678452 -0.0064130001701414585
v 0.01880900003015995 -0.08810599893331528 -0.007073000073432922
v 0.014159999787807465 -0.05827200040221214 -0.0032160000409930944
v 0.009603999555110931 -0.06069900095462799 -0.0011919999960809946
v 0.004515000153332949 -0.0469059981405735 -0.002380999969318509
v 0.010470000095665455 -0.04602799937129021 -0.0009319999953731894
v 0.015937000513076782 -0.05660900101065636 -0.007883000187575817
v 0.012891000136733055 -0.04443100094795227 -0.005264999810606241
v 0.012695999816060066 -0.05639300122857094 -0.01245999988168478
v 0.007681000046432018 -0.044071998447179794 -0.011169999837875366
v 0.0074339997954666615 -0.05763399973511696 -0.013116000220179558
v 0.0031320000998675823 -0.04559500142931938 -0.01140000019222498
v 0.002615999896079302 -0.06015099957585335 -0.010335000231862068
v -0.00030300000798888505 -0.04618600010871887 -0.008290999568998814
v 0.0024739999789744616 -0.060676999390125275 -0.006310999859124422
v -0.0016270000487565994 -0.047961000353097916 -0.0013780000153928995
v 0.00686000008136034 -0.060888998210430145 -0.002828999888151884
v 0.0009449999779462814 -0.046448998153209686 0.0010049999691545963
v 0.01001300010830164 -0.06080999970436096 -0.001221999991685152
v 0.004011999815702438 -0.04153899848461151 0.003504999913275242
v 0.009607999585568905 -0.03988400101661682 0.00016399999731220305
v 0.011567999608814716 -0.03849799931049347 -0.003984000068157911
v 0.0076299998909235 -0.03779999911785126 -0.010502000339329243
v 0.0003129999968223274 -0.039746999740600586 -0.009829999879002571
v -0.0021470000501722097 -0.040081001818180084 -0.007408999837934971
v -0.0042570000514388084 -0.04103599861264229 -0.0019000000320374966
v 0.007660999894142151 -0.03487199917435646 0.0017130000051110983
v 0.004523999989032745 -0.035996999591588974 0.004201000090688467
v 0.003785999957472086 -0.02919900044798851 0.004889999981969595
v 0.0076790000312030315 -0.02646300010383129 0.0007040000054985285
v 0.010443000122904778 -0.03277299925684929 -0.004230999853461981
v 0.008187999948859215 -0.025203000754117966 -0.004387000110000372
v 0.0053969998843967915 -0.033316999673843384 -0.010214000009000301
v 0.0034680000972002745 -0.0245789997279644 -0.008608999662101269
v -0.0006629999843426049 -0.03412599861621857 -0.009337999857962132
v -0.0024139999877661467 -0.025894999504089355 -0.007759000174701214
v -0.0036140000447630882 -0.03542900085449219 -0.006318000145256519
v -0.004951999988406897 -0.027660999447107315 -0.004399000201374292
v -0.005162000190466642 -0.037696998566389084 -0.0009560000034980476
v -0.005797000136226416 -0.029058000072836876 0.00029399999766610563
v 0.0009139999747276306 -0.03763899952173233 0.003845999948680401
v 0.0004250000056345016 -0.02936599962413311 0.004772000014781952
v 0.004480999894440174 -0.03557100147008896 0.004038999788463116
v 0.0036879999097436666 -0.029193000867962837 0.0048699998296797276
v 0.005888999905437231 -0.011243999935686588 0.002114000031724572
v 0.0008779999916441739 -0.012617000378668308 0.004687999840825796
v -0.0013180000241845846 -0.005181000102311373 0.0027050001081079245
v 0.0076870000921189785 -0.004629999864846468 0.007333999965339899
v 0.0064860000275075436 -0.009868999943137169 -0.003869999898597598
v 0.009805000387132168 -0.0036410000175237656 0.0008040000102482736
v 0.003387999953702092 -0.01040599960833788 -0.00737700005993247
v 0.006225999910384417 -0.0021200000774115324 -0.008213999681174755
v -0.0017999999690800905 -0.00956599973142147 -0.007759000174701214
v 0.0002280000044265762 -0.0017369999550282955 -0.010266000404953957
v -0.004739999771118164 -0.010735999792814255 -0.005748999770730734
v -0.0035230000503361225 -0.0027809999883174896 -0.009752999991178513
v -0.005663999821990728 -0.011212999932467937 -0.0018850000342354178
v -0.008682000450789928 -0.00532899983227253 -0.0028250000905245543
v -0.003800000064074993 -0.011508000083267689 0.002902999985963106
v -0.006451999768614769 -0.006752000190317631 0.005814999807626009
v 0.001016999944113195 -0.012016000226140022 0.004689000081270933
v 0.006692999973893166 -0.020555999130010605 0.00133200001437217
v 0.001959000015631318 -0.022311000153422356 0.00443200021982193
v 0.006810000166296959 -0.01940299943089485 -0.004370000213384628
v 0.0038030000869184732 -0.0189800001680851 -0.007532000076025724
v -0.001246000058017671 -0.0197369996458292 -0.008082999847829342
v -0.0037579999770969152 -0.020555000752210617 -0.006556999869644642
v -0.004920999985188246 -0.020888999104499817 -0.004476999863982201
v -0.003768000053241849 -0.021220000460743904 0.0007740000146441162
v 0.002339000115171075 -0.022182000800967216 0.004116999916732311
v 0.007116000168025494 0.0001990000018849969 0.00761099997907877
v -0.0006019999855197966 -0.00011000000085914508 0.009740999899804592
v 0.010042999871075153 0.0007259999983943999 -0.002515000058338046
v 0.00816699955612421 0.0022070000413805246 -0.00788000039756298
v 0.0016599999507889152 0.0024449999909847975 -0.010986000299453735
v -0.009109999984502792 0.0007810000097379088 -0.0023620000574737787
v -0.006924999877810478 0.0002690000110305846 0.0062790000811219215
v -0.0006259999936446548 -0.0002209999947808683 0.00982499960809946
v -0.0004290000069886446 0.001053999993018806 0.007759000174701214
f 1 2 3
f 3 2 4
f 4 2 5
f 5 2 6
f 6 2 7
f 7 2 8
f 8 2 9
f 1 9 2
f 10 11 12
f 13 11 10
f 12 13 10
f 14 13 12
f 15 14 12
f 16 14 15
f 17 16 15
f 18 16 17
f 19 18 17
f 20 18 19
f 21 20 19
f 22 20 21
f 23 22 21
f 24 22 23
f 25 24 23
f 26 24 25
f 27 26 25
f 28 26 27
f 29 28 27
f 30 28 29
f 31 30 29
f 32 30 31
f 33 32 31
f 34 32 33
f 35 34 33
f 36 34 35
f 37 36 35
f 38 36 37
f 12 38 37
f 39 38 12
f 11 13 40
f 13 14 40
f 14 16 40
f 16 18 40
f 18 20 40
f 20 22 40
f 22 24 40
f 24 26 40
f 26 28 40
f 28 30 40
f 30 32 40
f 32 34 40
f 34 36 40
f 36 38 40
f 38 39 40
f 41 42 43
f 41 44 42
f 45 44 41
f 45 46 44
f 45 47 46
f 48 47 45
f 48 49 47
f 50 49 48
f 50 51 49
f 52 51 50
f 52 53 51
f 54 53 52
f 54 55 53
f 56 55 54
f 56 57 55
f 56 58 57
f 59 58 56
f 59 60 58
f 61 60 59
f 61 62 60
f 63 62 61
f 63 42 62
f 44 11 42
f 44 13 11
f 44 14 13
f 46 14 44
f 46 16 14
f 47 16 46
f 47 18 16
f 49 18 47
f 49 20 18
f 51 20 49
f 51 22 20
f 53 22 51
f 53 24 22
f 53 26 24
f 55 26 53
f 55 28 26
f 57 28 55
f 57 30 28
f 58 30 57
f 58 32 30
f 60 32 58
f 60 34 32
f 60 36 34
f 62 36 60
f 62 38 36
f 42 38 62
f 42 39 38
f 64 43 65
f 64 41 43
f 66 41 64
f 66 45 41
f 67 45 66
f 67 48 45
f 68 48 67
f 68 50 48
f 68 52 50
f 69 52 68
f 69 54 52
f 70 54 69
f 70 56 54
f 71 56 70
f 71 59 56
f 72 59 71
f 72 61 59
f 73 61 72
f 73 63 61
f 74 65 75
f 74 64 65
f 76 64 74
f 76 66 64
f 77 66 76
f 77 67 66
f 77 68 67
f 78 68 77
f 78 69 68
f 79 69 78
f 79 70 69
f 80 70 79
f 80 71 70
f 81 71 80
f 81 72 71
f 82 72 81
f 82 73 72
f 74 75 83
f 84 74 83
f 76 74 84
f 85 76 84
f 77 76 85
f 86 77 85
f 78 77 86
f 87 78 86
f 79 78 87
f 88 79 87
f 80 79 88
f 89 80 88
f 81 80 89
f 90 81 89
f 82 81 90
f 91 82 90
f 92 93 94
f 95 92 94
f 96 92 95
f 97 96 95
f 98 96 97
f 99 98 97
f 100 98 99
f 101 100 99
f 102 100 101
f 103 102 101
f 104 102 103
f 105 104 103
f 106 104 105
f 107 106 105
f 108 106 107
f 94 108 107
f 84 83 93
f 92 84 93
f 85 84 92
f 96 85 92
f 86 85 96
f 98 86 96
f 87 86 98
f 100 87 98
f 88 87 100
f 102 88 100
f 89 88 102
f 104 89 102
f 90 89 104
f 106 90 104
f 91 90 106
f 108 91 106
f 95 94 109
f 110 95 109
f 97 95 110
f 111 97 110
f 99 97 111
f 112 99 111
f 101 99 112
f 113 101 112
f 103 101 113
f 114 103 113
f 105 103 114
f 115 105 114
f 107 105 115
f 116 107 115
f 94 107 116
f 109 94 116
f 117 118 119
f 120 117 119
f 121 117 120
f 122 121 120
f 123 121 122
f 124 123 122
f 125 123 124
f 126 125 124
f 127 125 126
f 128 127 126
f 129 127 128
f 130 129 128
f 131 129 130
f 132 131 130
f 133 131 132
f 119 133 132
f 110 109 118
f 117 110 118
f 111 110 117
f 121 111 117
f 112 111 121
f 123 112 121
f 113 112 123
f 125 113 123
f 114 113 125
f 127 114 125
f 115 114 127
f 129 115 127
f 116 115 129
f 131 116 129
f 109 116 131
f 133 109 131
f 134 135 136
f 137 134 136
f 138 134 137
f 139 138 137
f 140 138 139
f 141 140 139
f 142 140 141
f 143 142 141
f 144 142 143
f 145 144 143
f 146 144 145
f 147 146 145
f 148 146 147
f 149 148 147
f 150 148 149
f 136 150 149
f 120 119 135
f 134 120 135
f 122 120 134
f 138 122 134
f 124 122 138
f 140 124 138
f 126 124 140
f 142 126 140
f 128 126 142
f 144 128 142
f 130 128 144
f 146 130 144
f 132 130 146
f 148 132 146
f 119 132 148
f 150 119 148
f 137 136 151
f 152 137 151
f 139 137 152
f 153 139 152
f 141 139 153
f 154 141 153
f 143 141 154
f 155 143 154
f 145 143 155
f 156 145 155
f 147 145 156
f 157 147 156
f 149 147 157
f 151 149 157
f 136 149 151
f 158 159 160
f 161 158 160
f 162 158 161
f 163 162 161
f 164 162 163
f 165 164 163
f 166 164 165
f 167 166 165
f 168 166 167
f 169 168 167
f 170 168 169
f 171 170 169
f 172 170 171
f 173 172 171
f 174 172 173
f 175 174 173
f 152 151 159
f 158 152 159
f 153 152 158
f 162 153 158
f 154 153 162
f 164 154 162
f 155 154 164
f 166 155 164
f 156 155 166
f 168 156 166
f 157 156 168
f 170 157 168
f 151 157 170
f 174 151 172
f 176 177 178
f 179 176 178
f 180 176 179
f 181 180 179
f 182 180 181
f 183 182 181
f 184 182 183
f 185 184 183
f 186 184 185
f 187 186 185
f 188 186 187
f 189 188 187
f 190 188 189
f 191 190 189
f 192 190 191
f 178 192 191
f 193 194 177
f 176 193 177
f 195 193 176
f 180 195 176
f 196 195 180
f 182 196 180
f 197 196 182
f 184 197 182
f 198 197 184
f 186 198 184
f 199 198 186
f 188 199 186
f 200 199 188
f 190 200 188
f 201 200 190
f 192 201 190
f 161 160 194
f 193 161 194
f 163 161 193
f 195 163 193
f 165 163 195
f 196 165 195
f 167 165 196
f 197 167 196
f 169 167 197
f 198 169 197
f 171 169 198
f 199 171 198
f 173 171 199
f 200 173 199
f 175 173 200
f 201 175 200
f 1 202 203
f 1 3 202
f 204 202 3
f 4 204 3
f 205 204 4
f 5 205 4
f 206 205 5
f 6 206 5
f 7 206 6
f 8 207 7
f 208 207 8
f 9 208 8
f 209 208 9
f 210 209 9
f 179 178 203
f 202 179 203
f 181 179 202
f 204 181 202
f 183 181 204
f 205 183 204
f 185 183 205
f 206 185 205
f 187 185 206
f 7 187 206
f 189 187 7
f 207 189 7
f 191 189 207
f 208 191 207
f 178 191 208
f 209 178 208
