# Generated by Visualization Toolkit
v -0.10642500221729279 -0.12287300080060959 0.08697500079870224
v -0.10672000050544739 -0.11937300115823746 0.0889350026845932
v -0.10701700299978256 -0.11587399989366531 0.09089399874210358
v -0.106904998421669 -0.12466800212860107 0.07617399841547012
v -0.10545600205659866 -0.12507599592208862 0.07525099813938141
v -0.1078369989991188 -0.11848200112581253 0.07831300050020218
v -0.10409999638795853 -0.11637499928474426 0.09130000323057175
v -0.10510300099849701 -0.12132400274276733 0.08857899904251099
v -0.10772299766540527 -0.11179599910974503 0.0834909975528717
v -0.10583300143480301 -0.10306400060653687 0.08760099858045578
v -0.10400799661874771 -0.11000099778175354 0.09423699975013733
v -0.10593199729919434 -0.10756400227546692 0.09521900117397308
v -0.10204300284385681 -0.11358200013637543 0.062474001199007034
v -0.10280600190162659 -0.11005699634552002 0.06447900086641312
v -0.09964100271463394 -0.11493200063705444 0.062157001346349716
v -0.10268200188875198 -0.12242499738931656 0.07661599665880203
v -0.10357700288295746 -0.10431399941444397 0.06789500266313553
v -0.10054899752140045 -0.11868999898433685 0.07977499812841415
v -0.10405399650335312 -0.1131879985332489 0.09276899695396423
v -0.10136199742555618 -0.09494499862194061 0.07208999991416931
v -0.09829399734735489 -0.09139800071716309 0.07461900264024734
v -0.10384900122880936 -0.09768600016832352 0.09104599803686142
v -0.09995800256729126 -0.10670000314712524 0.0853710025548935
v -0.10000000149011612 -0.11362700164318085 0.0833899974822998
v -0.10376700013875961 -0.10272400081157684 0.09740400314331055
v -0.10494200140237808 -0.09919100254774094 0.09777799993753433
v -0.10005000233650208 -0.10470400005578995 0.05867300182580948
v -0.10065100342035294 -0.10264799743890762 0.058956000953912735
v -0.10156500339508057 -0.09571000188589096 0.06299799680709839
v -0.09925299882888794 -0.11182600259780884 0.06452000141143799
v -0.0977730005979538 -0.10602699965238571 0.05857999995350838
v -0.09986700117588043 -0.0901700034737587 0.06628700345754623
v -0.09818299859762192 -0.10680700093507767 0.06641700118780136
v -0.0963589996099472 -0.08614999800920486 0.06813099980354309
v -0.09683600068092346 -0.08611200004816055 0.07610899955034256
v -0.09447800368070602 -0.08177399635314941 0.06881099939346313
v -0.10203099995851517 -0.09112399816513062 0.0919869989156723
v -0.09505800157785416 -0.09646899998188019 0.07038100063800812
v -0.09658200293779373 -0.10257899761199951 0.06782200187444687
v -0.09957700222730637 -0.09822499752044678 0.08789800107479095
v -0.10165899991989136 -0.08209200203418732 0.10295499861240387
v -0.10415700078010559 -0.09311400353908539 0.09882500022649765
v -0.10106000304222107 -0.0744210034608841 0.10313600301742554
v -0.09603600203990936 -0.08526699990034103 0.050289999693632126
v -0.09680599719285965 -0.08338800072669983 0.05107999965548515
v -0.0964369997382164 -0.08121299743652344 0.052981000393629074
v -0.09319300204515457 -0.07747899740934372 0.05500499904155731
v -0.09623900055885315 -0.10320299863815308 0.058708999305963516
v -0.09215500205755234 -0.08743199706077576 0.050558000802993774
v -0.09048900008201599 -0.07476899772882462 0.057746000587940216
v -0.09493300318717957 -0.09912499785423279 0.0608460009098053
v -0.08918700367212296 -0.07234600186347961 0.058671001344919205
v -0.09419900178909302 -0.06850100308656693 0.07976499944925308
v -0.09085199981927872 -0.06369999796152115 0.07119999825954437
v -0.08506199717521667 -0.05749399960041046 0.06257200241088867
v -0.0994580015540123 -0.07207400351762772 0.09400700032711029
v -0.09480900317430496 -0.08888799697160721 0.07266300171613693
v -0.09257099777460098 -0.09109000116586685 0.06386599689722061
v -0.09380199760198593 -0.09598200023174286 0.06159200146794319
v -0.09748300164937973 -0.0786530002951622 0.09243600070476532
v -0.09523700177669525 -0.05626700073480606 0.10578200221061707
v -0.09413299709558487 -0.052195001393556595 0.09759999811649323
v -0.0962430015206337 -0.05477999895811081 0.10423199832439423
v -0.08906500041484833 -0.07496500015258789 0.04089200124144554
v -0.08978000283241272 -0.07287999987602234 0.04140400141477585
v -0.08901900053024292 -0.07132799923419952 0.04357200115919113
v -0.087226003408432 -0.06915000081062317 0.046195998787879944
v -0.08414699882268906 -0.06679800152778625 0.05030199885368347
v -0.09006199985742569 -0.08777099847793579 0.051375001668930054
v -0.08769100159406662 -0.07606299966573715 0.04257899895310402
v -0.08289600163698196 -0.06501799821853638 0.051851000636816025
v -0.08845700323581696 -0.08697099983692169 0.052939001470804214
v -0.08028800040483475 -0.05388600006699562 0.0563029982149601
v -0.08961699903011322 -0.048976998776197433 0.08273500204086304
v -0.0861390009522438 -0.04598399996757507 0.07532700151205063
v -0.08118099719285965 -0.04410500079393387 0.06625299900770187
v -0.07694199681282043 -0.04316600039601326 0.05948200076818466
v -0.09263499826192856 -0.0731080025434494 0.07688499987125397
v -0.09170500189065933 -0.08210200071334839 0.06685300171375275
v -0.08754699677228928 -0.08301399648189545 0.056028999388217926
v -0.08806700259447098 -0.08550799638032913 0.05409200116991997
v -0.09065400063991547 -0.05403999984264374 0.09534499794244766
v -0.08799900114536285 -0.029232999309897423 0.10206300020217896
v -0.08166000247001648 -0.02841299958527088 0.08956799656152725
v -0.09148000180721283 -0.04316899925470352 0.09794300049543381
v -0.08882799744606018 -0.03414300084114075 0.09828600287437439
v -0.09182000160217285 -0.04018799960613251 0.10264000296592712
v -0.08943100273609161 -0.03181400150060654 0.10279099643230438
v -0.07976700365543365 -0.06745400279760361 0.035009000450372696
v -0.08053500205278397 -0.0655750036239624 0.03579900041222572
v -0.07967600226402283 -0.06316500157117844 0.037071000784635544
v -0.07768499851226807 -0.06077300012111664 0.040337998420000076
v -0.07493700087070465 -0.060116998851299286 0.04335099831223488
v -0.07380300015211105 -0.05816999822854996 0.04566900059580803
v -0.08512499928474426 -0.0748249962925911 0.041735999286174774
v -0.07821699976921082 -0.06850100308656693 0.03564999997615814
v -0.07347200065851212 -0.050209999084472656 0.04936400055885315
v -0.08184999972581863 -0.07585500180721283 0.04495200142264366
v -0.07036899775266647 -0.04093100130558014 0.05232499912381172
v -0.07683499902486801 -0.024462999776005745 0.08356200158596039
v -0.07191900163888931 -0.021601000800728798 0.07633200287818909
v -0.0666939988732338 -0.020198000594973564 0.06830299645662308
v -0.06183899939060211 -0.02051899954676628 0.058038000017404556
v -0.08605500310659409 -0.050262998789548874 0.08044999837875366
v -0.08991699665784836 -0.06988800317049026 0.06905200332403183
v -0.08778399974107742 -0.07415100187063217 0.05961199849843979
v -0.07969799637794495 -0.0735900029540062 0.04859599843621254
v -0.07985100150108337 -0.0752440020442009 0.046459998935461044
v -0.08137799799442291 -0.027992000803351402 0.09305600076913834
v -0.08870500326156616 -0.026837000623345375 0.10168000310659409
v -0.08364199846982956 -0.016805000603199005 0.1004209965467453
v -0.07970699667930603 -0.020061999559402466 0.09006000310182571
v -0.07575400173664093 -0.017177000641822815 0.0848969966173172
v -0.08534199744462967 -0.02443699911236763 0.09626799821853638
v -0.07030899822711945 -0.06127699837088585 0.031084999442100525
v -0.07151500135660172 -0.05866000056266785 0.030990999191999435
v -0.07117799669504166 -0.05710100010037422 0.03153400123119354
v -0.06954699754714966 -0.05554699897766113 0.03500400111079216
v -0.06648900359869003 -0.054705001413822174 0.038440998643636703
v -0.06567899882793427 -0.05281100049614906 0.04088100045919418
v -0.06495500355958939 -0.047258999198675156 0.04310400038957596
v -0.07736799865961075 -0.06835799664258957 0.03748299926519394
v -0.06853199750185013 -0.062380000948905945 0.031279999762773514
v -0.06276900321245193 -0.040157001465559006 0.04473400115966797
v -0.0737999975681305 -0.06773299723863602 0.04063599929213524
v -0.0582830011844635 -0.02434000000357628 0.04897399991750717
v -0.07145000249147415 -0.015848999843001366 0.07641000300645828
v -0.06737300008535385 -0.01447299961000681 0.06837199628353119
v -0.06267700344324112 -0.014667999930679798 0.05773000046610832
v -0.05847100168466568 -0.018378999084234238 0.04841399937868118
v -0.07529199868440628 -0.02715500071644783 0.08298899978399277
v -0.08303000032901764 -0.0486610010266304 0.07326799631118774
v -0.08630000054836273 -0.06555099785327911 0.06154400110244751
v -0.07972099632024765 -0.0638979971408844 0.05105400085449219
v -0.07062599807977676 -0.06437599658966064 0.04438399896025658
v -0.07159599661827087 -0.0668959990143776 0.04279100149869919
v -0.0771780014038086 -0.015884000808000565 0.09138499945402145
v -0.08275499939918518 -0.017927000299096107 0.09306800365447998
v -0.08720400184392929 -0.021784000098705292 0.100102998316288
v -0.08352900296449661 -0.013679999858140945 0.09895399957895279
v -0.07603199779987335 -0.004970000125467777 0.09853000193834305
v -0.0798960030078888 -0.015615000389516354 0.08884099870920181
v -0.07650300115346909 -0.014682999812066555 0.08390899747610092
v -0.07413099706172943 -0.012701000086963177 0.07464800029993057
v -0.06714800000190735 -0.0592540018260479 0.029597999528050423
v -0.06863000243902206 -0.0569319985806942 0.029689999297261238
v -0.06885900348424911 -0.055233001708984375 0.031346000730991364
v -0.0667089968919754 -0.05416300147771835 0.0334319993853569
v -0.0637739971280098 -0.05271799862384796 0.037300001829862595
v -0.06253200024366379 -0.05035199970006943 0.03905100002884865
v -0.06108799949288368 -0.04493099823594093 0.04108700156211853
v -0.05979900062084198 -0.03938300162553787 0.042736999690532684
v -0.06797699630260468 -0.061799000948667526 0.03404799848794937
v -0.06607399880886078 -0.06125999987125397 0.030117999762296677
v -0.056779999285936356 -0.02764499932527542 0.043921999633312225
v -0.06582300364971161 -0.06117599830031395 0.03648199886083603
v -0.0558289997279644 -0.02064500004053116 0.04322599992156029
v -0.07096700370311737 -0.01184799987822771 0.06649100035429001
v -0.06632799655199051 -0.01029600016772747 0.05644800141453743
v -0.062283001840114594 -0.008647999726235867 0.0463699996471405
v -0.058139000087976456 -0.011092999950051308 0.039990998804569244
v -0.07125300168991089 -0.015670999884605408 0.08216500282287598
v -0.07202400267124176 -0.026642000302672386 0.07549899816513062
v -0.078916996717453 -0.04679799824953079 0.06603500247001648
v -0.07902300357818604 -0.05927399918437004 0.05280100181698799
v -0.07071699947118759 -0.058494001626968384 0.04556899890303612
v -0.06258899718523026 -0.05851199850440025 0.040626998990774155
v -0.0627869963645935 -0.060819000005722046 0.0391089990735054
v -0.06946499645709991 -0.006781000178307295 0.09018299728631973
v -0.08053900301456451 -0.012830999679863453 0.08674199879169464
v -0.08260899782180786 -0.014007000252604485 0.09151600301265717
v -0.08292300254106522 -0.011353000067174435 0.0907289981842041
v -0.08222399652004242 -0.01169500034302473 0.09865500032901764
v -0.0809210017323494 -0.009709999896585941 0.0983550027012825
v -0.07824700325727463 -0.006419000215828419 0.09815700352191925
v -0.07476799935102463 -0.0010600000387057662 0.09583699703216553
v -0.07160700112581253 0.002595999976620078 0.0955599993467331
v -0.06877099722623825 0.003671000013127923 0.09488800168037415
v -0.07828199863433838 -0.013712000101804733 0.08160699903964996
v -0.08021900057792664 -0.012706000357866287 0.07013499736785889
v -0.07936900109052658 -0.01190400030463934 0.061948999762535095
v -0.06468900293111801 -0.05813400074839592 0.028435999527573586
v -0.06596300005912781 -0.05528799816966057 0.028277000412344933
v -0.06475500017404556 -0.05295899882912636 0.028884999454021454
v -0.06388299912214279 -0.05220299959182739 0.032072000205516815
v -0.060554999858140945 -0.05049100145697594 0.03552500158548355
v -0.059193000197410583 -0.04873799905180931 0.036855001002550125
v -0.05822499841451645 -0.04368799924850464 0.03897500038146973
v -0.05609799921512604 -0.038437001407146454 0.03966899961233139
v -0.05470399931073189 -0.02976899966597557 0.039847999811172485
v -0.06530000269412994 -0.06015099957585335 0.032639000564813614
v -0.0637739971280098 -0.06000500172376633 0.028567999601364136
v -0.054607000201940536 -0.023661000654101372 0.03855299949645996
v -0.06309500336647034 -0.059774000197649 0.035130999982357025
v -0.05544000118970871 -0.01599299907684326 0.034887999296188354
v -0.07367800176143646 -0.008658000268042088 0.05335500091314316
v -0.06640800088644028 -0.004333999939262867 0.04429600015282631
v -0.060026999562978745 -0.0065009999088943005 0.03787900134921074
v -0.0558059997856617 -0.010219000279903412 0.031700000166893005
v -0.06424599885940552 -0.008967000059783459 0.0806180015206337
v -0.06717699766159058 -0.016997000202536583 0.07503899931907654
v -0.06877200305461884 -0.027497999370098114 0.06789399683475494
v -0.072503000497818 -0.04381899908185005 0.056713998317718506
v -0.07077600061893463 -0.05376699939370155 0.046358998864889145
v -0.06238500028848648 -0.053054001182317734 0.04088800027966499
v -0.05854500085115433 -0.05645500123500824 0.03844299912452698
v -0.05989700183272362 -0.05922999978065491 0.037257999181747437
v -0.061709001660346985 0.0007179999956861138 0.08891600370407104
v -0.08200199902057648 -0.010781999677419662 0.08573800325393677
v -0.08005999773740768 -0.012741000391542912 0.07930599898099899
v -0.08117099851369858 -0.010502999648451805 0.08498500287532806
v -0.08087900280952454 -0.009770000353455544 0.09071800112724304
v -0.07919999957084656 -0.008586999960243702 0.09057199954986572
v -0.07454299926757812 -0.005745999980717897 0.0908690020442009
v -0.07109499722719193 -0.0028180000372231007 0.090550996363163
v -0.06841100007295609 0.0003380000125616789 0.08981599658727646
v -0.06885799765586853 0.006269000004976988 0.09365300089120865
v -0.05874500051140785 0.012688999995589256 0.09003300219774246
v -0.08187700062990189 -0.012515000067651272 0.07040800154209137
v -0.07987000048160553 -0.011384000070393085 0.061347998678684235
v -0.07485699653625488 -0.007207999937236309 0.05286199972033501
v -0.06255099922418594 -0.05720299854874611 0.02684600092470646
v -0.0628110021352768 -0.054781001061201096 0.02612599916756153
v -0.06255599856376648 -0.05226999893784523 0.02735700085759163
v -0.060826998203992844 -0.05029100179672241 0.030253000557422638
v -0.057121001183986664 -0.04832199960947037 0.03330700099468231
v -0.05625300109386444 -0.046358998864889145 0.03491799905896187
v -0.054659001529216766 -0.04213099926710129 0.03633299842476845
v -0.05383099988102913 -0.03811600059270859 0.03766399994492531
v -0.05299000069499016 -0.03152500092983246 0.03753399848937988
v -0.052963998168706894 -0.026691999286413193 0.03551400080323219
v -0.06263399869203568 -0.05850699916481972 0.031227000057697296
v -0.06065500155091286 -0.058782000094652176 0.027160000056028366
v -0.054267000406980515 -0.020421000197529793 0.03206700086593628
v -0.06063200160861015 -0.05820399895310402 0.033626001328229904
v -0.054058998823165894 -0.014786000363528728 0.02776999957859516
v -0.06679700314998627 -0.0014400000218302011 0.04345199838280678
v -0.06171900033950806 -0.0007970000151544809 0.03572399914264679
v -0.056290000677108765 -0.004279999993741512 0.02928199991583824
v -0.05316299945116043 -0.010964999906718731 0.024051999673247337
v -0.056418001651763916 -0.0033549999352544546 0.081325002014637
v -0.061670999974012375 -0.010552000254392624 0.07503099739551544
v -0.06418400257825851 -0.019171999767422676 0.06775099784135818
v -0.06577000021934509 -0.02949099987745285 0.059167999774217606
v -0.06677500158548355 -0.04249599948525429 0.048951998353004456
v -0.06276900321245193 -0.04837699979543686 0.04179900139570236
v -0.05882500112056732 -0.05135900154709816 0.038795001804828644
v -0.056001998484134674 -0.05419699847698212 0.037459999322891235
v -0.057294998317956924 -0.05720499902963638 0.036334000527858734
v -0.053498998284339905 0.008851000107824802 0.08551900088787079
v -0.08154600113630295 -0.012066000141203403 0.07817500084638596
v -0.08064600080251694 -0.008956000208854675 0.07058300077915192
v -0.07949899882078171 -0.009631999768316746 0.08572500199079514
v -0.0803930014371872 -0.009631999768316746 0.07817299664020538
v -0.07487799972295761 -0.007706000003963709 0.08555900305509567
v -0.07009200006723404 -0.005475000012665987 0.0854400023818016
v -0.06732799857854843 -0.003585000056773424 0.08489499986171722
v -0.0647829994559288 -0.0017729999963194132 0.08426100015640259
v -0.06412699818611145 0.0038449999410659075 0.08784899860620499
v -0.06430599838495255 0.010072999633848667 0.09151600301265717
v -0.05783599987626076 0.014418000355362892 0.08857700228691101
v -0.054715998470783234 0.014890000224113464 0.0883919969201088
v -0.07867100089788437 -0.006519999820739031 0.062470000237226486
v -0.07461100071668625 -0.004112000111490488 0.05429299920797348
v -0.06477399915456772 0.0005530000198632479 0.04507699981331825
v -0.05963699892163277 -0.056634001433849335 0.025136999785900116
v -0.0600849986076355 -0.053369998931884766 0.024772999808192253
v -0.05945400148630142 -0.05046499893069267 0.026146000251173973
v -0.05738300085067749 -0.04812899976968765 0.028040999546647072
v -0.05451099947094917 -0.045993998646736145 0.031498998403549194
v -0.05288799852132797 -0.04337399825453758 0.0328419990837574
v -0.052028998732566833 -0.04096300154924393 0.03411199897527695
v -0.05096999928355217 -0.03745200112462044 0.03534499928355217
v -0.051194000989198685 -0.03184099867939949 0.034519001841545105
v -0.05138099938631058 -0.02708600088953972 0.03240099921822548
v -0.0517439991235733 -0.02401600033044815 0.030117999762296677
v -0.06056300178170204 -0.05720299854874611 0.030136000365018845
v -0.05900700017809868 -0.057764001190662384 0.025320999324321747
v -0.05159100145101547 -0.01797799952328205 0.024320999160408974
v -0.0581820011138916 -0.0566370002925396 0.03212299942970276
v -0.051141999661922455 -0.014491000212728977 0.021839000284671783
v -0.0609470009803772 0.0013719999697059393 0.036132000386714935
v -0.0565899983048439 0.0008120000129565597 0.026492999866604805
v -0.05228099972009659 -0.007009999826550484 0.020880000665783882
v -0.050168998539447784 -0.01224599964916706 0.019208999350667
v -0.048590999096632004 0.003317000111564994 0.07992000132799149
v -0.05319099873304367 -0.007540999911725521 0.07639999687671661
v -0.059491001069545746 -0.013888999819755554 0.0691860020160675
v -0.061514999717473984 -0.021835999563336372 0.06092900037765503
v -0.062143001705408096 -0.030842000618577003 0.052386000752449036
v -0.06056100130081177 -0.04035300016403198 0.04389199987053871
v -0.05863400176167488 -0.04576599970459938 0.03960099816322327
v -0.05593499913811684 -0.0496320016682148 0.03748499974608421
v -0.053383998572826385 -0.05275300145149231 0.03633899986743927
v -0.05380899831652641 -0.05500299856066704 0.03526899963617325
v -0.04616200178861618 0.01458400022238493 0.08086500316858292
v -0.07825399935245514 -0.007778000086545944 0.07078800350427628
v -0.0759890004992485 -0.004430999979376793 0.0638590008020401
v -0.07914000004529953 -0.009367000311613083 0.07905600219964981
v -0.07523900270462036 -0.007720999885350466 0.07118500024080276
v -0.0753370001912117 -0.008623999543488026 0.08033599704504013
v -0.07097099721431732 -0.00787500012665987 0.08104000240564346
v -0.06807400286197662 -0.00659599993377924 0.08006999641656876
v -0.05611699819564819 0.00266100000590086 0.08157700300216675
v -0.05359400063753128 -0.0022960000205785036 0.07844699919223785
v -0.057057999074459076 0.008535999804735184 0.08461099863052368
v -0.04889100044965744 0.014688000082969666 0.07974400371313095
v -0.055417999625205994 0.015506000258028507 0.08625800162553787
v -0.07182099670171738 -0.0023560000117868185 0.05633699893951416
v -0.06378500163555145 0.00017100000695791095 0.04576700180768967
v -0.059709999710321426 0.002082000020891428 0.03667199984192848
v -0.05612099915742874 -0.05529100075364113 0.022773999720811844
v -0.05671500042080879 -0.05292399972677231 0.02217100001871586
v -0.05588499829173088 -0.049345001578330994 0.0238489992916584
v -0.05350099876523018 -0.046824000775814056 0.02616100013256073
v -0.05055699869990349 -0.04386899992823601 0.02756199985742569
v -0.04960300028324127 -0.040904998779296875 0.028811000287532806
v -0.04895099997520447 -0.03857399895787239 0.029975000768899918
v -0.047704000025987625 -0.035597000271081924 0.029952000826597214
v -0.04638899862766266 -0.03241200000047684 0.02964700013399124
v -0.04680899903178215 -0.02835099957883358 0.029208000749349594
v -0.04662499949336052 -0.025908000767230988 0.028131000697612762
v -0.048128001391887665 -0.020747000351548195 0.024733999744057655
v -0.05716799944639206 -0.055376000702381134 0.027650000527501106
v -0.054767001420259476 -0.056999001652002335 0.023120999336242676
v -0.04744400084018707 -0.017765000462532043 0.022143999114632607
v -0.05490399897098541 -0.054781001061201096 0.029867000877857208
v -0.04598399996757507 -0.015905000269412994 0.020661000162363052
v -0.0532820001244545 0.0027979998849332333 0.03104100003838539
v -0.05190400034189224 -0.005547999870032072 0.018897999078035355
v -0.055149998515844345 0.0016120000509545207 0.02400599978864193
v -0.05150299891829491 0.0038139999378472567 0.027000000700354576
v -0.04933999851346016 -0.011656999588012695 0.017566999420523643
v -0.042941998690366745 0.008891000412404537 0.07526600360870361
v -0.045069001615047455 -0.001155999954789877 0.07461100071668625
v -0.051791001111269 -0.010514999739825726 0.07068300247192383
v -0.05757199972867966 -0.017347000539302826 0.062084000557661057
v -0.05889600142836571 -0.024714000523090363 0.054388999938964844
v -0.057149000465869904 -0.031947001814842224 0.046257998794317245
v -0.05685500055551529 -0.03998100012540817 0.04062100127339363
v -0.05528699979186058 -0.044599998742341995 0.03774600103497505
v -0.052935000509023666 -0.047933001071214676 0.0359559990465641
v -0.04902299866080284 -0.050060998648405075 0.03423500061035156
v -0.051020000129938126 -0.05352000147104263 0.03310000151395798
v -0.07364100217819214 -0.004480999894440174 0.06448899954557419
v -0.06937199831008911 -0.0018560000462457538 0.05696000158786774
v -0.07193700224161148 -0.008712000213563442 0.07241900265216827
v -0.0695440024137497 -0.00927099958062172 0.06576000154018402
v -0.0686430037021637 -0.009708000347018242 0.07364899665117264
v -0.06487099826335907 -0.009752999991178513 0.0750029981136322
v -0.0521089993417263 -0.006382999941706657 0.07567399740219116
v -0.044408999383449554 0.008546000346541405 0.07428500056266785
v -0.041721999645233154 0.0029619999695569277 0.07111699879169464
v -0.04116300120949745 -0.0010160000529140234 0.0692019984126091
v -0.06279700249433517 -0.00020900000527035445 0.04645700007677078
v -0.05772100016474724 0.0011940000113099813 0.03750399872660637
v -0.05295100063085556 -0.003590000094845891 0.03288000077009201
v -0.05127599835395813 -0.05355700105428696 0.018489999696612358
v -0.05185399949550629 -0.05012800171971321 0.018902000039815903
v -0.051311999559402466 -0.04568599909543991 0.021160999312996864
v -0.048987001180648804 -0.04306099936366081 0.022870000451803207
v -0.04768899828195572 -0.04049199819564819 0.024334000423550606
v -0.04666600003838539 -0.037765998393297195 0.025647999718785286
v -0.04577900096774101 -0.03607799857854843 0.02616400085389614
v -0.04500500112771988 -0.03390900045633316 0.026572000235319138
v -0.044509001076221466 -0.03158999979496002 0.026808999478816986
v -0.04395399987697601 -0.029503000900149345 0.02710700035095215
v -0.04422299936413765 -0.02708500064909458 0.02638299949467182
v -0.04481099918484688 -0.023966999724507332 0.024548999965190887
v -0.04424300044775009 -0.02095700055360794 0.022187000140547752
v -0.05129700154066086 -0.053769998252391815 0.025033999234437943
v -0.049486998468637466 -0.05555500090122223 0.019372999668121338
v -0.042507000267505646 -0.020457999780774117 0.022436000406742096
v -0.04958700016140938 -0.05285999923944473 0.026928000152111053
v -0.04169899970293045 -0.020963000133633614 0.024900000542402267
v -0.042486000806093216 -0.012325000017881393 0.01971600018441677
v -0.046234000474214554 -0.013759000226855278 0.018842000514268875
v -0.04349299892783165 -0.01536600012332201 0.022429000586271286
v -0.048597998917102814 -0.0073379999957978725 0.029601000249385834
v -0.04616300016641617 -0.00007999999797903001 0.024240000173449516
v -0.04809999838471413 -0.0008060000254772604 0.02647699974477291
v -0.049942001700401306 -0.002090000081807375 0.013778000138700008
v -0.04996899887919426 0.0014700000174343586 0.014162999577820301
v -0.04200899973511696 0.0031469999812543392 0.020263999700546265
v -0.04066099971532822 0.0017450000159442425 0.019706999883055687
v -0.04717300087213516 -0.008867999538779259 0.010648000054061413
v -0.04116300120949745 0.002718999981880188 0.07127700001001358
v -0.04370800033211708 -0.0040259999223053455 0.07140900194644928
v -0.05037099868059158 -0.014062999747693539 0.06475699692964554
v -0.05577399954199791 -0.020510999485850334 0.0563029982149601
v -0.055091001093387604 -0.026774000376462936 0.04778800159692764
v -0.054019998759031296 -0.032641999423503876 0.04255000129342079
v -0.05354699864983559 -0.03916500136256218 0.038509998470544815
v -0.051548998802900314 -0.04361199960112572 0.035833001136779785
v -0.04865400120615959 -0.046817999333143234 0.03401099890470505
v -0.04412199929356575 -0.04888100177049637 0.03089899942278862
v -0.04663899913430214 -0.05110200121998787 0.02990099973976612
v -0.06491900235414505 -0.010154999792575836 0.05771699920296669
v -0.05958300083875656 -0.012687000446021557 0.04882499948143959
v -0.06591899693012238 -0.012476000003516674 0.06743799895048141
v -0.06255999952554703 -0.013801000081002712 0.05994899943470955
v -0.062307000160217285 -0.013282000087201595 0.06909800320863724
v -0.04904700070619583 -0.009685000404715538 0.06913399696350098
v -0.03918800130486488 -0.006527000106871128 0.06550700217485428
v -0.04056999832391739 -0.0009820000268518925 0.06977900117635727
v -0.03836600109934807 -0.006868000142276287 0.0665379986166954
v -0.05579899996519089 -0.015224999748170376 0.044544000178575516
v -0.051072001457214355 -0.01720999926328659 0.038401998579502106
v -0.04714199900627136 -0.018850000575184822 0.034359999001026154
v -0.04685800150036812 -0.05110599845647812 0.016457000747323036
v -0.048583999276161194 -0.047387998551130295 0.015956999734044075
v -0.04829400032758713 -0.043501000851392746 0.017309999093413353
v -0.046636998653411865 -0.04040199890732765 0.0194690003991127
v -0.04455700144171715 -0.03820599988102913 0.020806999877095222
v -0.04346099868416786 -0.036437999457120895 0.021431000903248787
v -0.042527999728918076 -0.03439600020647049 0.022214999422430992
v -0.041572000831365585 -0.03294600173830986 0.022796999663114548
v -0.041234999895095825 -0.03138900175690651 0.023341000080108643
v -0.04132800176739693 -0.029541000723838806 0.02333899959921837
v -0.041019998490810394 -0.028020000085234642 0.022731000557541847
v -0.041165001690387726 -0.02651599980890751 0.022467000409960747
v -0.04119500145316124 -0.02459700033068657 0.021649999544024467
v -0.039076000452041626 -0.023391999304294586 0.021153999492526054
v -0.04803700000047684 -0.05380599945783615 0.02116299979388714
v -0.04447599872946739 -0.053070999681949615 0.017916999757289886
v -0.04658700153231621 -0.052055999636650085 0.022951999679207802
v -0.0377580001950264 -0.023934999480843544 0.021893000230193138
v -0.03634199872612953 -0.023933999240398407 0.022613000124692917
v -0.0399789996445179 -0.023031000047922134 0.026606999337673187
v -0.03997800126671791 -0.008733999915421009 0.01457899995148182
v -0.04283300042152405 -0.005665000062435865 0.022103000432252884
v -0.04469899833202362 -0.010149000212550163 0.012636999599635601
v -0.044578999280929565 -0.007534999866038561 0.024862000718712807
v -0.043783001601696014 -0.016885999590158463 0.026162000373005867
v -0.0457490012049675 -0.010892000049352646 0.027532000094652176
v -0.044794999063014984 -0.019345000386238098 0.032207999378442764
v -0.038516998291015625 -0.004207999911159277 0.01729400083422661
v -0.04702199995517731 -0.0032649999484419823 0.0020669999066740274
v -0.04614099860191345 -0.0011370000429451466 0.002245000097900629
v -0.03266499936580658 0.003533999901264906 0.013609999790787697
v -0.031209999695420265 0.0019340000580996275 0.014272999949753284
v -0.03125600144267082 -0.002454000059515238 0.012817000038921833
v -0.042796000838279724 -0.009424000047147274 0.004147999919950962
v -0.04065399989485741 -0.00824899971485138 0.0675399973988533
v -0.0477369986474514 -0.016630999743938446 0.060453999787569046
v -0.052597999572753906 -0.02383499965071678 0.0495310015976429
v -0.052257999777793884 -0.02867799997329712 0.0437919981777668
v -0.05144499987363815 -0.03319299966096878 0.03994999825954437
v -0.049566999077796936 -0.03925799950957298 0.03628699854016304
v -0.0474729984998703 -0.0430230014026165 0.034129999577999115
v -0.04293400049209595 -0.04597099870443344 0.03170299902558327
v -0.04228999838232994 -0.0503540001809597 0.027479000389575958
v -0.04475900158286095 -0.0516120009124279 0.024963999167084694
v -0.05666400119662285 -0.01722400076687336 0.05117600038647652
v -0.05313799902796745 -0.02019299939274788 0.046525999903678894
v -0.058044999837875366 -0.015765000134706497 0.0624920018017292
v -0.052312999963760376 -0.019063999876379967 0.05333000048995018
v -0.04593199864029884 -0.01308200042694807 0.06320100277662277
v -0.03740999847650528 -0.010305999778211117 0.061503998935222626
v -0.03637799993157387 -0.010120999999344349 0.062283001840114594
v -0.03816499933600426 -0.011722000315785408 0.06299799680709839
v -0.048475999385118484 -0.022105999290943146 0.041763000190258026
v -0.0452749989926815 -0.022732000797986984 0.03722099959850311
v -0.04259699955582619 -0.023614000529050827 0.03528499975800514
v -0.04274100065231323 -0.049417998641729355 0.013786000199615955
v -0.0455080009996891 -0.04499800130724907 0.011819999665021896
v -0.04529700055718422 -0.04029599949717522 0.013319999910891056
v -0.043751999735832214 -0.03717000037431717 0.015697000548243523
v -0.042865000665187836 -0.03548000007867813 0.016214000061154366
v -0.041703000664711 -0.033805001527071 0.017441000789403915
v -0.040929000824689865 -0.032533999532461166 0.01853499934077263
v -0.03998199850320816 -0.031077999621629715 0.019108999520540237
v -0.03985099866986275 -0.02959500066936016 0.019558999687433243
v -0.03981500118970871 -0.028807999566197395 0.01947700046002865
v -0.039441999047994614 -0.0279690008610487 0.019269999116659164
v -0.0393030010163784 -0.026623999699950218 0.019169000908732414
v -0.03894900158047676 -0.025648999959230423 0.019516000524163246
v -0.036605000495910645 -0.02449199929833412 0.018571000546216965
v -0.036014001816511154 -0.024329999461770058 0.019700000062584877
v -0.042155999690294266 -0.05226200073957443 0.019843000918626785
v -0.04008299857378006 -0.05109599977731705 0.015070999972522259
v -0.0346670001745224 -0.023638000711798668 0.020018000155687332
v -0.03460400179028511 -0.02374500036239624 0.02375200018286705
v -0.03385600075125694 -0.02308499999344349 0.020361000671982765
v -0.03777899965643883 -0.0241480004042387 0.028436999768018723
v -0.03462199866771698 -0.006599999964237213 0.008222999982535839
v -0.039615001529455185 -0.008298000320792198 0.00646999990567565
v -0.04269799962639809 -0.020847000181674957 0.029486000537872314
v -0.040410999208688736 -0.023672999814152718 0.031867001205682755
v -0.0452210009098053 -0.004923999775201082 -0.0030539999715983868
v -0.04464299976825714 -0.0014649999793618917 -0.002630000002682209
v -0.02812200039625168 0.0034280000254511833 0.010824000462889671
v -0.02634900063276291 0.0017040000529959798 0.012792999856173992
v -0.027230000123381615 -0.002216000109910965 0.010854000225663185
v -0.031154999509453773 -0.0059090000577270985 0.00648899981752038
v -0.04058299958705902 -0.00810999982059002 0.000846999988425523
v -0.045497000217437744 -0.01991100050508976 0.05378299951553345
v -0.04918200150132179 -0.02512899972498417 0.04632499814033508
v -0.04940899834036827 -0.0293940007686615 0.04135200008749962
v -0.047230999916791916 -0.03379800170660019 0.03763100132346153
v -0.045187998563051224 -0.03790700063109398 0.03521199896931648
v -0.041478000581264496 -0.04277700185775757 0.032329000532627106
v -0.04097900167107582 -0.048815999180078506 0.029090000316500664
v -0.037748001515865326 -0.05090999975800514 0.025030000135302544
v -0.040052998811006546 -0.05185399949550629 0.022559000179171562
v -0.04907499998807907 -0.021283000707626343 0.04873000085353851
v -0.045632001012563705 -0.022988999262452126 0.04387899860739708
v -0.04251899942755699 -0.016596000641584396 0.05544599890708923
v -0.042461998760700226 -0.01862099952995777 0.050613000988960266
v -0.0349930003285408 -0.014155999757349491 0.055553000420331955
v -0.034244000911712646 -0.013811999931931496 0.05617000162601471
v -0.03644999861717224 -0.01614600047469139 0.056485000997781754
v -0.04197999835014343 -0.02403699979186058 0.039340998977422714
v -0.039308998733758926 -0.02447200007736683 0.03706499934196472
v -0.03663000091910362 -0.024602999910712242 0.033906999975442886
v -0.03675200045108795 -0.05187800154089928 0.012884999625384808
v -0.042041998356580734 -0.043547000735998154 0.00885900016874075
v -0.03959399834275246 -0.04859299957752228 0.010743999853730202
v -0.042396001517772675 -0.03972800076007843 0.008475000038743019
v -0.04128900170326233 -0.03347200155258179 0.009952999651432037
v -0.040463000535964966 -0.031539998948574066 0.010406999848783016
v -0.03982099890708923 -0.030726000666618347 0.01090999972075224
v -0.039108000695705414 -0.02921300008893013 0.011940999887883663
v -0.03799000009894371 -0.028025999665260315 0.01235899981111288
v -0.03783800080418587 -0.0275689996778965 0.012937000021338463
v -0.03714299947023392 -0.026986999437212944 0.013507000170648098
v -0.03651300072669983 -0.026166999712586403 0.014001999981701374
v -0.033900998532772064 -0.02503499947488308 0.013767000287771225
v -0.03822600096464157 -0.05181799829006195 0.01667799986898899
v -0.035200998187065125 -0.053233999758958817 0.014415999874472618
v -0.03245500102639198 -0.02365799993276596 0.014618000015616417
v -0.03244800120592117 -0.022362999618053436 0.024952000007033348
v -0.03241200000047684 -0.022158000618219376 0.021547000855207443
v -0.03417700156569481 -0.023932000622153282 0.02995000034570694
v -0.03680700063705444 -0.006951000075787306 0.0037479999009519815
v -0.030518999323248863 -0.021547000855207443 0.031505998224020004
v -0.04095200076699257 -0.0053159999661147594 -0.005663000047206879
v -0.040980998426675797 -0.0009970000246539712 -0.006504999939352274
v -0.02027199976146221 0.003836000105366111 0.009933999739587307
v -0.019842000678181648 0.000534999999217689 0.012281999923288822
v -0.020850999280810356 -0.0023250000085681677 0.01042299997061491
v -0.027607999742031097 -0.006171000190079212 0.00406700000166893
v -0.031477998942136765 -0.005472999997437 0.0011620000004768372
v -0.035711999982595444 -0.00545499986037612 -0.0029819998890161514
v -0.04324600100517273 -0.022283000871539116 0.04955099895596504
v -0.0464709997177124 -0.026427000761032104 0.04275999963283539
v -0.04527699947357178 -0.030679000541567802 0.03850800171494484
v -0.043202999979257584 -0.0339989997446537 0.03601500019431114
v -0.03856699913740158 -0.03834399953484535 0.033245999366045
v -0.038906000554561615 -0.046170998364686966 0.030087999999523163
v -0.03559499979019165 -0.049525998532772064 0.026239000260829926
v -0.031132999807596207 -0.05299200117588043 0.021849999204277992
v -0.03422199934720993 -0.05342699959874153 0.020044999197125435
v -0.03836200013756752 -0.020522000268101692 0.046411000192165375
v -0.035902999341487885 -0.022377999499440193 0.04193999990820885
v -0.03595200181007385 -0.01769700087606907 0.05096700042486191
v -0.03600199893116951 -0.020715000107884407 0.04650700092315674
v -0.035436000674963 -0.01715799979865551 0.05257999897003174
v -0.03692200034856796 -0.019322000443935394 0.051819998770952225
v -0.033946000039577484 -0.022693000733852386 0.03984599933028221
v -0.03220300003886223 -0.022463999688625336 0.035886000841856
v -0.025606999173760414 -0.019032999873161316 0.03340499848127365
v -0.03103500045835972 -0.05421699956059456 0.016937000676989555
v -0.03522200137376785 -0.05039399862289429 0.010925999842584133
v -0.03723299875855446 -0.04758099839091301 0.009255999699234962
v -0.04099800065159798 -0.043189000338315964 0.008205000311136246
v -0.041356999427080154 -0.039368998259305954 0.007829000242054462
v -0.04020300135016441 -0.03440700098872185 0.008345000445842743
v -0.03913699835538864 -0.031470999121665955 0.009374000132083893
v -0.03857199847698212 -0.030278999358415604 0.010359999723732471
v -0.03787999972701073 -0.02925099991261959 0.010580999776721
v -0.03746199980378151 -0.028508000075817108 0.010978000238537788
v -0.0365540012717247 -0.027847999706864357 0.011646999977529049
v -0.035333000123500824 -0.02610599994659424 0.012045999988913536
v -0.03405100107192993 -0.02528100088238716 0.012396999634802341
v -0.03414899855852127 -0.024366000667214394 0.011878999881446362
v -0.03266799822449684 -0.05249100178480148 0.012769999913871288
v -0.03262599930167198 -0.02366499975323677 0.01245300006121397
v -0.031672000885009766 -0.023585999384522438 0.012865999713540077
v -0.03040199913084507 -0.022523000836372375 0.014946999959647655
v -0.028929000720381737 -0.018928000703454018 0.02659600041806698
v -0.027708999812602997 -0.01941400021314621 0.02244899980723858
v -0.028596999123692513 -0.02226400002837181 0.015262000262737274
v -0.023183999583125114 -0.01852799952030182 0.027753999456763268
v -0.03779499977827072 -0.002856000093743205 -0.007488999981433153
v -0.03548799827694893 -0.00009300000237999484 -0.008365999907255173
v -0.009104999713599682 0.0034280000254511833 0.008855000138282776
v -0.006388000212609768 0.0007580000092275441 0.011424999684095383
v -0.008429000154137611 -0.0030539999715983868 0.010022000409662724
v -0.021292999386787415 -0.006624000146985054 0.00023700000019744039
v -0.028416000306606293 -0.005350000225007534 -0.0024049999192357063
v -0.034449998289346695 -0.003945999778807163 -0.0056500001810491085
v -0.041081998497247696 -0.023715000599622726 0.0460049994289875
v -0.042128000408411026 -0.028085000813007355 0.040348999202251434
v -0.04139700159430504 -0.03163899853825569 0.03719300031661987
v -0.036733999848365784 -0.03519999980926514 0.034338001161813736
v -0.03711999952793121 -0.043237000703811646 0.03147299960255623
v -0.03332500159740448 -0.046668000519275665 0.027879999950528145
v -0.02910800091922283 -0.05100899934768677 0.02347799949347973
v -0.027421999722719193 -0.0529399998486042 0.019471999257802963
v -0.034623000770807266 -0.0216279998421669 0.04362500086426735
v -0.03026299923658371 -0.021338000893592834 0.04154499992728233
v -0.03590099886059761 -0.02090900018811226 0.04771199822425842
v -0.03347000107169151 -0.022357000038027763 0.04487299919128418
v -0.037780001759529114 -0.022314000874757767 0.047224998474121094
v -0.02788200043141842 -0.020735999569296837 0.03842100128531456
v -0.02121799997985363 -0.017673000693321228 0.03546300157904625
v -0.016566000878810883 -0.01839200034737587 0.02912300080060959
v -0.02927500009536743 -0.05368899926543236 0.015216000378131866
v -0.02625500038266182 -0.05273500084877014 0.018050000071525574
v -0.0214610006660223 -0.048413001000881195 0.021927999332547188
v -0.02443300001323223 -0.05141500011086464 0.019378000870347023
v -0.020168999210000038 -0.045097000896930695 0.02216299995779991
v -0.018300000578165054 -0.03982599824666977 0.022153999656438828
v -0.018303999677300453 -0.03742299973964691 0.022137999534606934
v -0.018170999363064766 -0.03522700071334839 0.0219930000603199
v -0.016479000449180603 -0.0329429991543293 0.022206999361515045
v -0.014460000209510326 -0.029443999752402306 0.021369999274611473
v -0.028730999678373337 -0.022985000163316727 0.013586999848484993
v -0.021470999345183372 -0.019223999232053757 0.023327000439167023
v -0.02452399954199791 -0.02153800055384636 0.017240000888705254
v -0.024103999137878418 -0.022576000541448593 0.015886999666690826
v -0.014262000098824501 -0.02101000025868416 0.02494800090789795
v -0.03376799821853638 -0.0006539999740198255 -0.009128999896347523
v -0.032207999378442764 -0.002457000082358718 -0.007259000092744827
v -0.004927000030875206 0.003091000020503998 0.004484000150114298
v -0.0010509999701753259 0.000004999999873689376 0.007416000124067068
v 0.00005199999941396527 -0.003469000104814768 0.008417000062763691
v -0.019116999581456184 -0.004455000162124634 -0.0017719999887049198
v -0.025220999494194984 -0.004323999863117933 -0.0057390001602470875
v -0.0373929999768734 -0.025164000689983368 0.042955998331308365
v -0.037852998822927475 -0.029232999309897423 0.038979001343250275
v -0.03419899940490723 -0.03356099873781204 0.03513899818062782
v -0.03426000103354454 -0.039145998656749725 0.032127998769283295
v -0.03119800053536892 -0.043818000704050064 0.028598999604582787
v -0.02628999948501587 -0.04801899939775467 0.025100000202655792
v -0.024994000792503357 -0.051711998879909515 0.020829999819397926
v -0.027619000524282455 -0.02047800086438656 0.04334999993443489
v -0.024646999314427376 -0.018953999504446983 0.040130000561475754
v -0.035631999373435974 -0.023600000888109207 0.04422200098633766
v -0.025143999606370926 -0.02295600064098835 0.046911999583244324
v -0.018463000655174255 -0.01640399917960167 0.036701999604701996
v -0.021423999220132828 -0.016728000715374947 0.041485998779535294
v -0.013740000315010548 -0.01824199967086315 0.031099999323487282
v -0.011928999796509743 -0.021405000239610672 0.028452999889850616
v -0.020678000524640083 -0.04505100101232529 0.023876000195741653
v -0.02208000048995018 -0.048177000135183334 0.022431999444961548
v -0.01896899938583374 -0.04054199904203415 0.02417300082743168
v -0.019089000299572945 -0.03767300024628639 0.024039000272750854
v -0.01891000010073185 -0.03598000109195709 0.024195000529289246
v -0.01710899919271469 -0.03331900015473366 0.024493999779224396
v -0.014220000244677067 -0.029498999938368797 0.024057000875473022
v -0.014028999954462051 -0.026443999260663986 0.02120799943804741
v -0.019926000386476517 -0.022052999585866928 0.019071999937295914
v -0.019724000245332718 -0.023031000047922134 0.01816999912261963
v -0.013635000213980675 -0.025118999183177948 0.021810000762343407
v -0.013332000002264977 -0.027058999985456467 0.023350000381469727
v -0.014959000051021576 -0.02745399996638298 0.026541000232100487
v -0.022484999150037766 0.00024199999461416155 -0.008337000384926796
v -0.005919000133872032 0.00177800003439188 -0.0018110000528395176
v -0.023917999118566513 -0.0015780000248923898 -0.008834999985992908
v 0.000029999999242136255 0.000003000000106112566 0.000018999999156221747
v 0.0008440000237897038 -0.00406799977645278 -0.0010400000028312206
v -0.011460999958217144 -0.0036490000784397125 -0.005078999791294336
v -0.021577000617980957 -0.004342000000178814 -0.007294000126421452
v -0.03353999927639961 -0.027056999504566193 0.041175998747348785
v -0.03185499832034111 -0.03138900175690651 0.03719500079751015
v -0.031964000314474106 -0.0364300012588501 0.033229999244213104
v -0.02845199964940548 -0.03926299884915352 0.029126999899744987
v -0.02483000047504902 -0.0448249988257885 0.025716999545693398
v -0.0238489992916584 -0.018428999930620193 0.0455779992043972
v -0.022312000393867493 -0.020100999623537064 0.04799000173807144
v -0.018487999215722084 -0.025630999356508255 0.04665600135922432
v -0.027881000190973282 -0.02912900038063526 0.040056001394987106
v -0.013829000294208527 -0.024560000747442245 0.04519899934530258
v -0.013318999670445919 -0.0148290004581213 0.03570900112390518
v -0.018180999904870987 -0.01269300002604723 0.042621999979019165
v -0.021712999790906906 -0.013763999566435814 0.04607100039720535
v -0.00812199991196394 -0.01856900006532669 0.030597999691963196
v -0.007325999904423952 -0.021297000348567963 0.02851100079715252
v -0.010851000435650349 -0.0238489992916584 0.029311999678611755
v -0.023347999900579453 -0.04025899991393089 0.026460999622941017
v -0.02262900024652481 -0.0378590002655983 0.026799999177455902
v -0.01966099999845028 -0.03334899991750717 0.02688699960708618
v -0.021530000492930412 -0.03533099964261055 0.026189999654889107
v -0.01666099950671196 -0.03031899966299534 0.027458999305963516
v -0.016589999198913574 -0.02921600081026554 0.03275299817323685
v -0.01345400046557188 -0.02799299918115139 0.03447100147604942
v -0.018492000177502632 -0.0039059999398887157 -0.00862099975347519
v -0.017462000250816345 -0.00025099999038502574 -0.009979000315070152
v -0.0029639999847859144 -0.002553999889642 -0.006006000097841024
v -0.003754999954253435 -0.004449000116437674 -0.005317999981343746
v -0.03003700077533722 -0.03468099981546402 0.033987998962402344
v -0.02751999907195568 -0.03722099959850311 0.02991200052201748
v -0.01927500031888485 -0.015830999240279198 0.048142001032829285
v -0.00964100006967783 -0.02280299924314022 0.04483700171113014
v -0.023600999265909195 -0.03041600063443184 0.03813700005412102
v -0.027414999902248383 -0.0328029990196228 0.035652000457048416
v -0.01856900006532669 -0.028676999732851982 0.041044000536203384
v -0.008596999570727348 -0.029905999079346657 0.04002099856734276
v -0.013132999651134014 -0.02873699925839901 0.04069700092077255
v -0.008213999681174755 -0.01419300027191639 0.034255001693964005
v -0.012392999604344368 -0.012835999950766563 0.04160400107502937
v -0.012895000167191029 -0.014134000055491924 0.04435199871659279
v -0.011490000411868095 -0.01638600043952465 0.045643001794815063
v -0.0036589999217540026 -0.019370000809431076 0.03040900081396103
v -0.0077149998396635056 -0.025025999173521996 0.03105499967932701
v -0.0034099998883903027 -0.024181000888347626 0.02802800014615059
v -0.025320999324321747 -0.03474000096321106 0.03014500066637993
v -0.018744999542832375 -0.030907999724149704 0.03244199976325035
v -0.022513000294566154 -0.03326600044965744 0.031105000525712967
v -0.009007000364363194 -0.028967000544071198 0.03572700172662735
v -0.00506999995559454 -0.025134000927209854 0.043768998235464096
v -0.004255999810993671 -0.031870998442173004 0.038509998470544815
v -0.0050479997880756855 -0.03181000053882599 0.036389000713825226
v -0.004925000015646219 -0.016109999269247055 0.038148000836372375
v -0.003406000090762973 -0.018225999549031258 0.034651000052690506
v -0.00522099994122982 -0.017192000523209572 0.041544001549482346
v -0.002581000095233321 -0.02308100089430809 0.043062999844551086
v -0.0031930000986903906 -0.025608999654650688 0.030588999390602112
v -0.0005600000149570405 -0.029008999466896057 0.04087400063872337
v 0.00008600000001024455 -0.022120000794529915 0.02954299934208393
v 0.0003260000084992498 -0.02679700031876564 0.027698999270796776
v -0.0016250000335276127 -0.03341500088572502 0.03720400109887123
v -0.002592999953776598 -0.03308200091123581 0.03525000065565109
v -0.0007300000288523734 -0.02732899971306324 0.029789000749588013
v -0.0007689999765716493 -0.02127699926495552 0.03580800071358681
v 0.0014860000228509307 -0.02214599959552288 0.03223700076341629
v -0.0011630000080913305 -0.022593999281525612 0.03833400085568428
v 0.00019099999917671084 -0.025059999898076057 0.03990599885582924
v 0.0012100000167265534 -0.030868999660015106 0.0391709990799427
v 0.00003400000059627928 -0.03524800017476082 0.03572100028395653
v 0.003963000141084194 -0.025033999234437943 0.027905000373721123
v 0.0021490000654011965 -0.02845199964940548 0.025717999786138535
v -0.0009510000236332417 -0.03447100147604942 0.03342299908399582
v 0.0002300000051036477 -0.03050299920141697 0.028970999643206596
v 0.00798999983817339 -0.027362000197172165 0.030525999143719673
v 0.007861999794840813 -0.027334999293088913 0.027619000524282455
v 0.00837900023907423 -0.029361000284552574 0.033817000687122345
v 0.00795700028538704 -0.03161200135946274 0.03587799891829491
v 0.008511999621987343 -0.03672200068831444 0.03623799979686737
v 0.005169999785721302 -0.039503999054431915 0.03177399933338165
v 0.0034179999493062496 -0.03849099949002266 0.029055999591946602
v 0.007263000123202801 -0.02825400047004223 0.02459299936890602
v 0.005226000212132931 -0.031745001673698425 0.022300999611616135
v 0.0031900000758469105 -0.03604000061750412 0.02634900063276291
v 0.012481999583542347 -0.032304998487234116 0.02662999927997589
v 0.011343000456690788 -0.03214799985289574 0.025182999670505524
v 0.012198000214993954 -0.03351199999451637 0.029478000476956367
v 0.011753000319004059 -0.036111000925302505 0.03440999984741211
v 0.010336999781429768 -0.04090699926018715 0.03372899815440178
v 0.006922000087797642 -0.040782999247312546 0.030268000438809395
v 0.00546099990606308 -0.04037800058722496 0.028053000569343567
v 0.005016000010073185 -0.03978100046515465 0.02662299945950508
v 0.00977999996393919 -0.03229999914765358 0.022988000884652138
v 0.00801900029182434 -0.033861998468637466 0.02172200009226799
v 0.013251000083982944 -0.03657599911093712 0.025854000821709633
v 0.012827999889850616 -0.036563001573085785 0.02421800047159195
v 0.01345600001513958 -0.03711799904704094 0.02773600071668625
v 0.013686999678611755 -0.0386819988489151 0.029751000925898552
v 0.011281999759376049 -0.04168099910020828 0.029758000746369362
v 0.008740999735891819 -0.04211999848484993 0.027394000440835953
v 0.008376000449061394 -0.04190199822187424 0.025471000000834465
v 0.008434999734163284 -0.041384000331163406 0.024305999279022217
v 0.010549000464379787 -0.03897299990057945 0.02223600074648857
v 0.011889000423252583 -0.03815700113773346 0.023093000054359436
v 0.01182200014591217 -0.04093800112605095 0.024831000715494156
v 0.012303999625146389 -0.04118400067090988 0.026527000591158867
v 0.011045999825000763 -0.04207099974155426 0.02741900086402893
v 0.01058799959719181 -0.042093999683856964 0.024640999734401703
f 1 2 3
f 4 1 5
f 1 6 2
f 1 3 7
f 1 8 5
f 6 1 4
f 1 7 8
f 2 6 9
f 2 9 3
f 3 9 10
f 11 7 3
f 3 10 12
f 11 3 12
f 4 13 14
f 5 13 4
f 4 14 6
f 5 15 13
f 8 16 5
f 16 15 5
f 6 14 17
f 6 17 9
f 7 18 16
f 19 18 7
f 7 16 8
f 9 17 20
f 9 20 10
f 10 20 21
f 12 10 22
f 10 21 22
f 11 23 24
f 25 23 11
f 11 24 19
f 12 25 11
f 12 26 25
f 12 22 26
f 13 27 28
f 15 27 13
f 13 28 14
f 14 28 29
f 14 29 17
f 16 30 15
f 15 31 27
f 30 31 15
f 18 30 16
f 17 29 32
f 17 32 20
f 18 33 30
f 19 24 18
f 24 33 18
f 20 32 34
f 20 34 21
f 22 21 35
f 21 34 36
f 21 36 35
f 26 22 37
f 22 35 37
f 23 38 39
f 25 40 23
f 40 38 23
f 23 39 24
f 24 39 33
f 41 40 25
f 26 41 25
f 26 42 43
f 26 37 42
f 26 43 41
f 27 44 45
f 31 44 27
f 27 45 28
f 28 45 46
f 28 46 29
f 29 46 47
f 29 47 32
f 30 48 31
f 33 48 30
f 31 49 44
f 48 49 31
f 32 47 50
f 32 50 34
f 33 51 48
f 39 51 33
f 34 50 52
f 34 52 36
f 37 35 53
f 35 36 54
f 35 54 53
f 36 52 55
f 36 55 54
f 42 37 56
f 37 53 56
f 40 57 38
f 38 58 59
f 57 58 38
f 38 59 39
f 39 59 51
f 41 60 40
f 60 57 40
f 61 60 41
f 43 61 41
f 42 56 43
f 43 56 62
f 43 63 61
f 43 62 63
f 44 64 65
f 49 64 44
f 44 65 45
f 45 65 66
f 45 66 46
f 46 66 67
f 46 67 47
f 47 67 68
f 47 68 50
f 48 69 49
f 51 69 48
f 49 70 64
f 69 70 49
f 50 68 71
f 50 71 52
f 51 72 69
f 59 72 51
f 52 71 73
f 52 73 55
f 56 53 74
f 53 54 75
f 53 75 74
f 54 55 76
f 54 76 75
f 55 73 77
f 55 77 76
f 56 74 62
f 60 78 57
f 57 79 58
f 78 79 57
f 58 80 81
f 79 80 58
f 58 81 59
f 59 81 72
f 61 82 60
f 82 78 60
f 83 82 61
f 63 83 61
f 62 74 84
f 63 62 85
f 62 84 86
f 63 87 88
f 63 85 87
f 63 88 83
f 64 89 90
f 70 89 64
f 64 90 65
f 65 90 91
f 65 91 66
f 66 91 92
f 66 92 67
f 67 92 93
f 67 93 68
f 68 93 94
f 68 94 71
f 69 95 70
f 72 95 69
f 70 96 89
f 95 96 70
f 71 94 97
f 71 97 73
f 72 98 95
f 81 98 72
f 73 97 99
f 73 99 77
f 74 75 100
f 74 100 84
f 75 76 101
f 75 101 100
f 76 77 102
f 76 102 101
f 77 99 103
f 77 103 102
f 82 104 78
f 78 105 79
f 104 105 78
f 79 106 80
f 105 106 79
f 80 107 108
f 106 107 80
f 80 108 81
f 81 108 98
f 83 109 82
f 109 104 82
f 88 110 83
f 111 109 83
f 110 111 83
f 86 84 112
f 84 100 113
f 84 113 112
f 87 85 86
f 88 86 114
f 86 112 114
f 87 86 88
f 88 114 110
f 89 115 116
f 96 115 89
f 89 116 90
f 90 116 117
f 90 117 91
f 91 117 118
f 91 118 92
f 92 118 119
f 92 119 93
f 93 119 120
f 93 120 94
f 94 120 121
f 94 121 97
f 95 122 96
f 98 122 95
f 96 123 115
f 122 123 96
f 97 121 124
f 97 124 99
f 98 125 122
f 108 125 98
f 99 124 126
f 99 126 103
f 100 101 127
f 100 127 113
f 101 102 128
f 101 128 127
f 102 103 129
f 102 129 128
f 103 126 130
f 103 130 129
f 109 131 104
f 104 132 105
f 131 132 104
f 105 133 106
f 132 133 105
f 106 134 107
f 133 134 106
f 107 135 136
f 134 135 107
f 107 136 108
f 108 136 125
f 111 137 109
f 137 131 109
f 110 114 138
f 110 139 111
f 110 138 139
f 139 140 111
f 141 137 111
f 140 141 111
f 114 112 142
f 112 113 143
f 112 143 142
f 113 127 144
f 113 144 143
f 114 142 138
f 115 145 146
f 123 145 115
f 115 146 116
f 116 146 147
f 116 147 117
f 117 147 148
f 117 148 118
f 118 148 149
f 118 149 119
f 119 149 150
f 119 150 120
f 120 150 151
f 120 151 121
f 121 151 152
f 121 152 124
f 122 153 123
f 125 153 122
f 123 154 145
f 153 154 123
f 124 152 155
f 124 155 126
f 125 156 153
f 136 156 125
f 126 155 157
f 126 157 130
f 127 128 158
f 127 158 144
f 128 129 159
f 128 159 158
f 129 130 160
f 129 160 159
f 130 157 161
f 130 161 160
f 137 162 131
f 131 163 132
f 162 163 131
f 132 164 133
f 163 164 132
f 133 165 134
f 164 165 133
f 134 166 135
f 165 166 134
f 135 167 168
f 166 167 135
f 135 168 136
f 136 168 156
f 141 169 137
f 169 162 137
f 138 142 170
f 139 138 171
f 138 170 171
f 139 171 140
f 140 171 172
f 140 173 174
f 140 172 173
f 140 174 175
f 140 175 141
f 176 177 141
f 175 176 141
f 178 169 141
f 177 178 141
f 142 143 179
f 142 179 170
f 143 144 180
f 143 180 179
f 144 158 181
f 144 181 180
f 145 182 183
f 154 182 145
f 145 183 146
f 146 183 184
f 146 184 147
f 147 184 185
f 147 185 148
f 148 185 186
f 148 186 149
f 149 186 187
f 149 187 150
f 150 187 188
f 150 188 151
f 151 188 189
f 151 189 152
f 152 189 190
f 152 190 155
f 153 191 154
f 156 191 153
f 154 192 182
f 191 192 154
f 155 190 193
f 155 193 157
f 156 194 191
f 168 194 156
f 157 193 195
f 157 195 161
f 158 159 196
f 158 196 181
f 159 160 197
f 159 197 196
f 160 161 198
f 160 198 197
f 161 195 199
f 161 199 198
f 169 200 162
f 162 201 163
f 200 201 162
f 163 202 164
f 201 202 163
f 164 203 165
f 202 203 164
f 165 204 166
f 203 204 165
f 166 205 167
f 204 205 166
f 167 206 207
f 205 206 167
f 167 207 168
f 168 207 194
f 178 208 169
f 208 200 169
f 171 170 209
f 170 179 210
f 170 210 209
f 171 209 172
f 172 209 211
f 173 172 212
f 172 211 212
f 173 212 174
f 174 212 213
f 174 213 175
f 175 213 214
f 175 214 176
f 176 214 215
f 176 215 177
f 177 215 216
f 177 217 178
f 177 216 217
f 218 208 178
f 217 218 178
f 179 180 219
f 179 219 210
f 180 181 220
f 180 220 219
f 181 196 221
f 181 221 220
f 222 182 192
f 223 183 182
f 223 182 222
f 224 184 183
f 224 183 223
f 225 185 184
f 225 184 224
f 226 186 185
f 226 185 225
f 227 187 186
f 227 186 226
f 228 188 187
f 228 187 227
f 229 189 188
f 229 188 228
f 230 190 189
f 230 189 229
f 231 193 190
f 231 190 230
f 191 232 192
f 194 232 191
f 233 192 232
f 222 192 233
f 234 195 193
f 234 193 231
f 194 235 232
f 207 235 194
f 236 199 195
f 236 195 234
f 196 197 237
f 196 237 221
f 197 198 238
f 197 238 237
f 198 199 239
f 198 239 238
f 240 239 199
f 240 199 236
f 208 241 200
f 200 242 201
f 241 242 200
f 201 243 202
f 242 243 201
f 202 244 203
f 243 244 202
f 203 245 204
f 244 245 203
f 204 246 205
f 245 246 204
f 205 247 206
f 246 247 205
f 206 248 249
f 247 248 206
f 206 249 207
f 207 249 235
f 218 250 208
f 250 241 208
f 209 210 251
f 209 251 211
f 210 219 252
f 210 252 251
f 212 211 253
f 211 251 254
f 211 254 253
f 212 253 213
f 213 253 255
f 213 255 214
f 214 255 256
f 214 256 215
f 215 256 257
f 215 257 216
f 216 257 258
f 217 216 259
f 216 258 259
f 217 260 261
f 217 259 260
f 217 261 262
f 217 262 218
f 262 250 218
f 219 220 263
f 219 263 252
f 220 221 264
f 220 264 263
f 221 237 265
f 221 265 264
f 222 266 267
f 233 266 222
f 222 267 223
f 223 267 268
f 223 268 224
f 224 268 269
f 224 269 225
f 225 269 270
f 225 270 226
f 226 270 271
f 226 271 227
f 227 271 272
f 227 272 228
f 228 272 273
f 228 273 229
f 229 273 274
f 229 274 230
f 230 274 275
f 230 275 231
f 231 275 276
f 231 276 234
f 277 232 235
f 233 232 277
f 233 278 266
f 277 278 233
f 234 276 279
f 234 279 236
f 280 235 249
f 277 235 280
f 236 279 281
f 236 281 240
f 237 238 282
f 237 282 265
f 238 239 283
f 238 283 282
f 284 283 239
f 284 239 240
f 240 281 285
f 240 285 284
f 250 286 241
f 241 287 242
f 286 287 241
f 242 288 243
f 287 288 242
f 243 289 244
f 288 289 243
f 244 290 245
f 289 290 244
f 245 291 246
f 290 291 245
f 246 292 247
f 291 292 246
f 247 293 248
f 292 293 247
f 294 248 293
f 295 249 248
f 295 248 294
f 280 249 295
f 262 296 250
f 296 286 250
f 251 252 297
f 251 297 254
f 252 263 298
f 252 298 297
f 253 254 299
f 253 299 255
f 254 297 300
f 254 300 299
f 255 299 301
f 255 301 256
f 256 301 302
f 256 302 257
f 257 302 303
f 257 303 258
f 259 258 304
f 258 303 305
f 258 305 304
f 260 259 306
f 259 304 306
f 260 306 261
f 261 306 307
f 261 308 262
f 261 307 308
f 308 296 262
f 263 264 309
f 263 309 298
f 264 265 310
f 264 310 309
f 265 282 311
f 265 311 310
f 266 312 313
f 278 312 266
f 266 313 267
f 267 313 314
f 267 314 268
f 268 314 315
f 268 315 269
f 269 315 316
f 269 316 270
f 270 316 317
f 270 317 271
f 271 317 318
f 271 318 272
f 272 318 319
f 272 319 273
f 273 319 320
f 273 320 274
f 274 320 321
f 274 321 275
f 275 321 322
f 275 322 276
f 276 322 323
f 276 323 279
f 277 324 278
f 280 324 277
f 278 325 312
f 324 325 278
f 279 323 326
f 279 326 281
f 280 327 324
f 295 327 280
f 281 326 328
f 281 328 285
f 282 283 329
f 282 329 311
f 330 331 283
f 283 331 332
f 330 283 284
f 283 332 329
f 330 284 285
f 330 285 333
f 328 333 285
f 296 334 286
f 286 335 287
f 334 335 286
f 287 336 288
f 335 336 287
f 288 337 289
f 336 337 288
f 289 338 290
f 337 338 289
f 290 339 291
f 338 339 290
f 291 340 292
f 339 340 291
f 292 341 293
f 340 341 292
f 342 293 341
f 294 293 342
f 294 343 344
f 342 343 294
f 294 344 295
f 295 344 327
f 308 307 296
f 307 334 296
f 297 298 345
f 297 345 300
f 298 309 346
f 298 346 345
f 299 300 347
f 299 347 301
f 300 345 348
f 300 348 347
f 301 347 349
f 301 349 302
f 302 349 350
f 302 350 303
f 303 350 351
f 303 351 305
f 306 304 352
f 304 305 353
f 304 353 352
f 305 351 354
f 305 354 353
f 306 352 307
f 307 352 334
f 309 310 355
f 309 355 346
f 310 311 356
f 310 356 355
f 311 329 357
f 311 357 356
f 312 358 359
f 325 358 312
f 312 359 313
f 313 359 360
f 313 360 314
f 314 360 361
f 314 361 315
f 315 361 362
f 315 362 316
f 316 362 363
f 316 363 317
f 317 363 364
f 317 364 318
f 318 364 365
f 318 365 319
f 319 365 366
f 319 366 320
f 320 366 367
f 320 367 321
f 321 367 368
f 321 368 322
f 322 368 369
f 322 369 323
f 323 369 370
f 323 370 326
f 324 371 325
f 327 371 324
f 325 372 358
f 371 372 325
f 326 370 373
f 326 373 328
f 327 374 371
f 344 374 327
f 328 373 375
f 376 377 328
f 328 377 333
f 328 375 378
f 376 328 378
f 379 357 329
f 380 381 329
f 379 329 381
f 380 329 332
f 382 330 333
f 383 331 330
f 383 330 382
f 384 332 331
f 384 331 383
f 385 380 332
f 385 332 384
f 386 333 377
f 382 333 386
f 334 387 335
f 352 387 334
f 335 388 336
f 387 388 335
f 336 389 337
f 388 389 336
f 337 390 338
f 389 390 337
f 338 391 339
f 390 391 338
f 339 392 340
f 391 392 339
f 340 393 341
f 392 393 340
f 394 341 393
f 342 341 394
f 342 395 343
f 394 395 342
f 343 396 397
f 395 396 343
f 343 397 344
f 344 397 374
f 345 346 398
f 345 398 348
f 346 355 399
f 346 399 398
f 347 348 400
f 347 400 349
f 348 398 401
f 348 401 400
f 349 400 402
f 349 402 350
f 350 402 403
f 350 403 351
f 351 403 404
f 351 404 354
f 352 353 387
f 353 354 405
f 353 405 387
f 354 404 406
f 354 406 405
f 355 356 407
f 355 407 399
f 356 357 408
f 356 408 407
f 409 408 357
f 409 357 379
f 358 410 411
f 372 410 358
f 358 411 359
f 359 411 412
f 359 412 360
f 360 412 413
f 360 413 361
f 361 413 414
f 361 414 362
f 362 414 415
f 362 415 363
f 363 415 416
f 363 416 364
f 364 416 417
f 364 417 365
f 365 417 418
f 365 418 366
f 366 418 419
f 366 419 367
f 367 419 420
f 367 420 368
f 368 420 421
f 368 421 369
f 369 421 422
f 369 422 370
f 370 422 423
f 370 423 373
f 371 424 372
f 374 424 371
f 372 425 410
f 426 425 372
f 373 423 427
f 373 427 375
f 374 426 424
f 397 426 374
f 375 427 428
f 378 375 429
f 375 428 429
f 430 376 431
f 432 377 376
f 431 376 378
f 432 376 430
f 386 377 432
f 433 378 434
f 378 429 434
f 431 378 433
f 379 435 436
f 381 435 379
f 379 436 409
f 437 431 380
f 380 431 433
f 437 380 385
f 380 433 381
f 381 433 435
f 438 382 386
f 439 383 382
f 439 382 438
f 440 384 383
f 440 383 439
f 441 385 384
f 441 384 440
f 442 437 385
f 442 385 441
f 443 386 432
f 438 386 443
f 387 405 388
f 388 444 389
f 405 444 388
f 389 445 390
f 444 445 389
f 390 446 391
f 445 446 390
f 391 447 392
f 446 447 391
f 392 448 393
f 447 448 392
f 449 393 448
f 394 393 449
f 394 450 395
f 449 450 394
f 395 451 396
f 450 451 395
f 396 452 453
f 451 452 396
f 396 453 397
f 397 453 426
f 398 399 454
f 398 454 401
f 399 407 455
f 399 455 454
f 400 401 456
f 400 456 402
f 401 454 457
f 401 457 456
f 402 456 458
f 402 458 403
f 403 458 459
f 403 459 404
f 404 459 460
f 404 460 406
f 405 406 444
f 406 460 461
f 406 461 444
f 407 408 462
f 407 462 455
f 463 462 408
f 463 408 409
f 409 436 464
f 409 464 463
f 410 465 466
f 425 465 410
f 410 466 411
f 411 466 467
f 411 467 412
f 412 467 468
f 412 468 413
f 413 468 469
f 413 469 414
f 414 469 470
f 414 470 415
f 415 470 471
f 415 471 416
f 416 471 472
f 416 472 417
f 417 472 473
f 417 473 418
f 418 473 474
f 418 474 419
f 419 474 475
f 419 475 420
f 420 475 476
f 420 476 421
f 421 476 477
f 421 477 422
f 422 477 478
f 422 478 423
f 423 478 479
f 423 479 427
f 426 480 425
f 425 481 465
f 480 481 425
f 453 480 426
f 427 479 482
f 427 482 428
f 429 428 483
f 428 482 484
f 428 484 483
f 434 429 485
f 429 483 485
f 486 430 437
f 487 432 430
f 487 430 486
f 430 431 437
f 443 432 487
f 433 434 435
f 435 434 488
f 434 485 488
f 435 488 436
f 436 488 489
f 436 489 464
f 486 437 442
f 490 438 443
f 491 439 438
f 491 438 490
f 492 440 439
f 492 439 491
f 493 441 440
f 493 440 492
f 494 442 441
f 494 441 493
f 495 486 442
f 495 442 494
f 496 443 487
f 490 443 496
f 444 461 445
f 445 497 446
f 461 497 445
f 446 498 447
f 497 498 446
f 447 499 448
f 498 499 447
f 500 448 499
f 449 448 500
f 449 501 450
f 500 501 449
f 450 502 451
f 501 502 450
f 451 503 452
f 502 503 451
f 452 504 505
f 503 504 452
f 452 505 453
f 453 505 480
f 454 455 506
f 454 506 457
f 455 462 507
f 455 507 506
f 456 457 508
f 456 508 458
f 457 506 509
f 457 509 508
f 458 508 510
f 458 510 459
f 459 510 511
f 459 511 460
f 460 511 512
f 460 512 461
f 461 512 497
f 513 507 462
f 513 462 463
f 463 464 514
f 463 514 513
f 464 489 515
f 464 515 514
f 465 516 481
f 517 466 465
f 465 516 518
f 517 465 518
f 467 466 517
f 468 467 519
f 467 517 519
f 469 468 519
f 469 520 470
f 469 519 520
f 470 520 521
f 470 521 471
f 471 521 522
f 471 522 472
f 472 522 523
f 472 523 473
f 473 523 524
f 473 524 474
f 475 474 524
f 525 476 475
f 475 524 525
f 477 476 526
f 525 526 476
f 477 527 528
f 477 526 527
f 477 528 478
f 479 478 528
f 482 479 528
f 480 529 481
f 505 529 480
f 516 529 481
f 481 530 516
f 529 481 530
f 531 484 482
f 482 528 531
f 485 483 532
f 483 484 533
f 483 533 532
f 533 484 531
f 488 485 534
f 485 532 534
f 535 487 486
f 535 486 495
f 496 487 535
f 488 534 489
f 489 534 536
f 489 536 515
f 537 490 496
f 538 491 490
f 538 490 537
f 539 492 491
f 539 491 538
f 540 493 492
f 540 492 539
f 541 494 493
f 541 493 540
f 542 495 494
f 542 494 541
f 543 535 495
f 543 495 542
f 544 496 535
f 537 496 544
f 497 545 498
f 512 545 497
f 498 546 499
f 545 546 498
f 547 499 546
f 500 499 547
f 500 548 501
f 547 548 500
f 501 549 502
f 548 549 501
f 502 550 503
f 549 550 502
f 503 551 504
f 550 551 503
f 504 552 553
f 551 552 504
f 504 553 505
f 505 553 529
f 506 507 554
f 506 554 509
f 555 554 507
f 555 507 513
f 508 509 556
f 508 556 510
f 509 554 557
f 509 557 556
f 510 556 558
f 510 558 511
f 511 558 559
f 511 559 512
f 512 559 545
f 513 514 560
f 513 560 555
f 514 515 561
f 514 561 560
f 515 536 562
f 515 562 561
f 563 516 530
f 516 564 565
f 516 529 530
f 530 564 516
f 516 565 518
f 517 566 567
f 518 566 517
f 517 567 519
f 518 565 566
f 519 567 568
f 519 568 520
f 569 521 520
f 569 520 568
f 570 522 521
f 570 521 569
f 571 523 522
f 571 522 570
f 572 524 523
f 572 523 571
f 573 525 524
f 573 524 572
f 574 526 525
f 574 525 573
f 527 526 574
f 575 528 527
f 575 527 574
f 576 531 528
f 576 528 575
f 530 529 553
f 530 577 564
f 530 553 563
f 563 577 530
f 578 531 576
f 579 580 531
f 533 531 580
f 579 531 578
f 534 532 581
f 532 533 582
f 532 582 581
f 533 580 583
f 533 583 582
f 534 581 536
f 544 535 543
f 536 581 584
f 536 584 562
f 585 537 544
f 586 538 537
f 586 537 585
f 587 539 538
f 587 538 586
f 588 540 539
f 588 539 587
f 589 541 540
f 589 540 588
f 590 542 541
f 590 541 589
f 591 543 542
f 591 542 590
f 592 544 543
f 592 543 591
f 585 544 592
f 545 593 546
f 559 593 545
f 594 546 593
f 547 546 594
f 547 595 548
f 594 595 547
f 548 596 549
f 595 596 548
f 549 597 550
f 596 597 549
f 550 598 551
f 597 598 550
f 551 599 552
f 598 599 551
f 552 600 563
f 599 600 552
f 552 563 553
f 601 557 554
f 601 554 555
f 555 560 602
f 555 602 601
f 556 557 603
f 556 603 558
f 604 603 557
f 604 557 601
f 558 603 605
f 558 605 559
f 559 605 593
f 560 561 606
f 560 606 602
f 561 562 607
f 561 607 606
f 562 584 608
f 562 608 607
f 563 609 577
f 600 609 563
f 565 564 577
f 566 565 609
f 565 577 609
f 567 566 609
f 568 567 610
f 567 609 610
f 569 568 611
f 568 610 612
f 568 612 611
f 570 569 613
f 569 611 613
f 571 570 613
f 573 572 571
f 573 571 614
f 571 613 614
f 574 573 615
f 573 614 615
f 575 574 616
f 574 615 616
f 576 575 616
f 576 616 617
f 617 578 576
f 617 579 578
f 617 618 579
f 619 580 579
f 618 619 579
f 619 583 580
f 581 582 620
f 581 620 584
f 582 583 621
f 582 621 620
f 622 621 583
f 622 583 619
f 584 620 623
f 584 623 608
f 586 585 624
f 625 585 592
f 585 625 624
f 624 587 586
f 624 626 587
f 626 588 587
f 626 627 588
f 588 627 628
f 588 628 589
f 589 628 629
f 589 629 590
f 590 629 630
f 590 630 591
f 625 592 591
f 625 591 630
f 631 593 605
f 594 593 631
f 594 632 595
f 631 632 594
f 595 633 596
f 632 633 595
f 596 634 597
f 633 634 596
f 597 635 598
f 634 635 597
f 598 636 599
f 635 636 598
f 599 637 600
f 636 637 599
f 600 610 609
f 637 610 600
f 601 602 638
f 601 638 604
f 602 606 639
f 602 639 638
f 640 605 603
f 640 603 604
f 604 638 641
f 604 641 640
f 631 605 640
f 606 607 639
f 607 642 643
f 607 643 639
f 608 642 607
f 608 644 642
f 608 623 645
f 608 645 644
f 637 612 610
f 646 613 611
f 647 611 612
f 646 611 647
f 647 612 637
f 648 614 613
f 648 613 646
f 649 615 614
f 649 614 648
f 650 616 615
f 650 615 649
f 651 617 616
f 651 616 650
f 652 618 617
f 652 617 651
f 653 618 652
f 618 653 619
f 653 622 619
f 620 621 654
f 620 654 623
f 655 654 621
f 655 621 622
f 653 655 622
f 623 654 656
f 623 656 657
f 645 623 658
f 623 657 658
f 659 624 625
f 660 626 624
f 660 624 659
f 661 625 630
f 659 625 661
f 662 627 626
f 662 626 660
f 663 628 627
f 663 627 662
f 664 629 628
f 664 628 663
f 665 630 629
f 665 629 664
f 661 630 665
f 631 666 632
f 640 666 631
f 632 667 633
f 666 667 632
f 633 668 634
f 667 668 633
f 634 669 635
f 668 669 634
f 635 670 636
f 669 670 635
f 636 647 637
f 670 647 636
f 638 671 672
f 638 672 641
f 639 671 638
f 639 643 671
f 640 641 666
f 641 673 674
f 675 673 641
f 641 674 666
f 675 641 672
f 642 676 677
f 642 643 677
f 644 676 642
f 643 678 677
f 643 678 671
f 644 679 676
f 645 679 644
f 645 680 679
f 681 680 645
f 645 658 681
f 682 648 646
f 670 646 647
f 682 646 670
f 683 649 648
f 683 648 682
f 683 650 649
f 684 651 650
f 683 685 650
f 684 650 685
f 684 652 651
f 658 657 652
f 684 686 652
f 658 652 686
f 653 652 657
f 653 656 654
f 657 656 653
f 653 654 655
f 687 658 686
f 688 681 658
f 688 658 687
f 661 689 659
f 659 689 690
f 691 659 662
f 691 659 690
f 664 660 659
f 664 659 661
f 664 662 660
f 665 689 661
f 664 661 665
f 664 663 662
f 662 663 691
f 691 663 692
f 663 664 692
f 664 665 692
f 692 689 665
f 666 674 667
f 667 693 668
f 674 693 667
f 668 694 669
f 693 694 668
f 669 682 670
f 694 682 669
f 671 678 695
f 671 695 672
f 672 695 696
f 672 696 675
f 673 697 698
f 673 699 697
f 673 698 674
f 675 699 673
f 674 698 693
f 675 696 700
f 675 701 699
f 675 700 701
f 676 702 703
f 676 703 677
f 679 702 676
f 677 703 704
f 677 678 704
f 678 705 704
f 678 705 695
f 679 706 702
f 680 706 679
f 681 707 680
f 680 708 706
f 707 708 680
f 688 707 681
f 694 683 682
f 709 685 683
f 709 683 694
f 710 686 684
f 711 684 685
f 710 684 711
f 711 685 709
f 687 686 710
f 699 687 710
f 688 687 699
f 688 712 707
f 701 712 688
f 688 699 701
f 692 690 689
f 692 690 691
f 693 709 694
f 698 709 693
f 695 705 713
f 695 713 696
f 696 713 714
f 696 714 700
f 697 710 711
f 699 710 697
f 697 711 698
f 698 711 709
f 701 700 712
f 700 714 715
f 700 715 712
f 704 703 702
f 702 716 717
f 704 702 706
f 702 703 716
f 706 702 717
f 703 718 716
f 703 704 718
f 704 719 718
f 704 705 719
f 704 706 708
f 704 708 720
f 704 720 715
f 704 715 714
f 704 714 713
f 704 713 705
f 705 721 719
f 705 713 721
f 706 717 722
f 708 706 722
f 707 720 708
f 712 720 707
f 708 722 723
f 720 708 723
f 712 715 720
f 713 724 721
f 713 714 724
f 714 725 724
f 714 715 725
f 715 726 725
f 715 720 726
f 717 727 728
f 717 716 727
f 722 717 728
f 716 729 727
f 716 718 729
f 718 730 729
f 718 719 730
f 719 731 730
f 719 721 731
f 720 723 726
f 721 732 731
f 721 724 732
f 722 728 733
f 723 722 733
f 723 733 734
f 726 723 734
f 724 735 732
f 724 725 735
f 725 736 735
f 725 726 736
f 726 734 736
f 728 737 738
f 728 727 737
f 733 728 738
f 727 739 737
f 727 729 739
f 729 740 739
f 729 730 740
f 730 741 740
f 730 731 741
f 731 742 741
f 731 732 742
f 732 743 742
f 732 735 743
f 733 738 744
f 734 733 744
f 734 744 745
f 736 734 745
f 735 746 743
f 735 736 746
f 736 745 746
f 738 747 748
f 738 737 747
f 744 738 748
f 737 749 747
f 737 739 749
f 739 750 749
f 739 740 750
f 740 751 750
f 740 741 751
f 741 752 751
f 741 742 752
f 742 753 752
f 742 743 753
f 743 754 753
f 743 746 754
f 744 748 755
f 745 744 755
f 745 755 756
f 746 745 756
f 746 756 754
f 748 757 758
f 748 747 757
f 755 748 758
f 747 759 757
f 747 749 759
f 749 760 759
f 749 750 760
f 750 761 760
f 750 751 761
f 751 762 761
f 751 752 762
f 752 763 762
f 752 753 763
f 753 764 763
f 753 754 764
f 754 765 764
f 754 756 765
f 755 758 766
f 756 755 766
f 756 766 765
f 757 767 758
f 767 765 758
f 757 768 767
f 757 759 768
f 768 759 760
f 769 760 761
f 769 768 760
f 769 761 762
f 770 762 763
f 770 769 762
f 770 763 764
f 765 770 764
f 765 767 770
f 769 767 768
f 769 770 767
