# Generated by Visualization Toolkit
v -0.010112999938428402 -0.010627999901771545 -0.012292999774217606
v -0.009356999769806862 -0.010036000050604343 -0.00785600021481514
v -0.005750999785959721 -0.012392999604344368 -0.009177000261843204
v -0.0010420000180602074 -0.013202999718487263 -0.007969999685883522
v -0.009587000124156475 -0.008685999549925327 -0.0048870001919567585
v 0.004925999790430069 -0.01332900021225214 -0.007780000101774931
v -0.005392000079154968 -0.011931000277400017 -0.004383999854326248
v -0.0006880000000819564 -0.012640999630093575 -0.0036230001132935286
v 0.006211999803781509 -0.00991899985820055 -0.0016060000052675605
v -0.006988999899476767 -0.010852999985218048 -0.0026740001048892736
v -0.009775999933481216 -0.007220999803394079 -0.002899999963119626
v -0.009685000404715538 -0.006639000028371811 -0.0009250000002793968
v -0.006101000122725964 -0.011526999995112419 -0.0003549999964889139
v 0.0031679999083280563 -0.012140000239014626 0.000014000000192027073
v -0.007739999797195196 -0.011973000131547451 0.002722000004723668
v -0.010966000147163868 -0.007763999979943037 0.002188999904319644
v -0.003865000093355775 -0.014444000087678432 0.003771000076085329
v 0.00022699999681208283 -0.01539199985563755 0.004437999799847603
v 0.0037350000347942114 -0.017103999853134155 0.007017000112682581
v -0.011323000304400921 -0.012143000029027462 0.005843000020831823
v -0.013732999563217163 -0.009488999843597412 0.0056489999406039715
v -0.0066639999859035015 -0.01566999964416027 0.00723800016567111
v -0.004120999947190285 -0.016919000074267387 0.007896999828517437
v 0.0021279999054968357 -0.017355000600218773 0.010677999816834927
v -0.016565000638365746 0.009457999840378761 -0.008913000114262104
v -0.010228999890387058 0.011257000267505646 -0.008116000331938267
v -0.015355999581515789 0.008150000125169754 -0.010269000194966793
v -0.016029000282287598 0.00330700003542006 -0.011049999855458736
v -0.022600000724196434 0.0001500000071246177 -0.00877899955958128
v -0.014179999940097332 -0.0024939998984336853 -0.010495999827980995
v -0.019672000780701637 -0.005675000138580799 -0.008803999982774258
v -0.011122999712824821 -0.006936999969184399 -0.008267000317573547
v -0.014883999712765217 -0.011750999838113785 -0.01115499995648861
v -0.011490000411868095 -0.014189999550580978 -0.014937000349164009
v -0.011660000309348106 0.005528000183403492 -0.006180999800562859
v -0.012462999671697617 -0.00014400000509340316 -0.005497000180184841
v -0.011780999600887299 -0.004515999928116798 -0.005016000010073185
v -0.010900000110268593 -0.007065999787300825 -0.004912999924272299
v -0.009296000003814697 0.0076419999822974205 -0.0028840000741183758
v -0.0071000000461936 0.011211000382900238 -0.004532000049948692
v -0.011010999791324139 0.00431900005787611 -0.0024389999452978373
v -0.01203600037842989 0.0007489999989047647 -0.00266700005158782
v -0.012136000208556652 -0.002560999942943454 -0.002979000099003315
v -0.008128000423312187 0.0074800001457333565 -0.00006600000051548705
v -0.005171000026166439 0.010976999998092651 -0.00010299999848939478
v -0.010493000037968159 0.004523000214248896 -0.0001539999939268455
v -0.011811000294983387 0.0006309999735094607 -0.00020799999765586108
v -0.011982999742031097 -0.00228599994443357 -0.00020199999562464654
v -0.008967000059783459 0.00776199996471405 0.004900999832898378
v -0.006963999941945076 0.010672000236809254 0.006821000017225742
v -0.011210000142455101 0.004317999817430973 0.004404000006616116
v -0.01269800029695034 0.00033000000985339284 0.003140999935567379
v -0.013221999630331993 -0.004129999782890081 0.004468000028282404
v -0.013547999784350395 0.004898999817669392 0.009863000363111496
v -0.011416999623179436 0.010027999989688396 0.011276000179350376
v -0.014871000312268734 0.00042100000428035855 0.008549000136554241
v -0.01475400011986494 -0.002770999912172556 0.00801599957048893
v -0.015062999911606312 -0.0062859999015927315 0.007029999978840351
v -0.01559399999678135 0.0010179999517276883 0.013027999550104141
v -0.015003999695181847 0.005051000043749809 0.014065999537706375
v -0.01572299934923649 -0.0031739999540150166 0.011095000430941582
v -0.01700199954211712 -0.005547999870032072 0.010122000239789486
v -0.017284000292420387 -0.008047999814152718 0.00829899962991476
v -0.01654299907386303 -0.010502000339329243 0.00800000037997961
v -0.021637000143527985 0.0016400000313296914 0.012486999854445457
v -0.02480199933052063 -0.006831000093370676 0.008612999692559242
v -0.01726900041103363 0.0090549997985363 0.010982999578118324
v -0.025203999131917953 -0.000674000009894371 0.01092899963259697
v -0.01627800054848194 0.011982999742031097 0.006461000069975853
v -0.026910999789834023 0.0029440000653266907 0.009452000260353088
v -0.028320999816060066 0.006335999816656113 0.003633999964222312
v -0.016318999230861664 0.012145999819040298 0.0014090000186115503
v -0.026861000806093216 0.006068999879062176 0.000547999981790781
v -0.017285000532865524 0.011343000456690788 -0.0032550001051276922
v -0.025526000186800957 0.0043020001612603664 -0.003452999982982874
v -0.01317800022661686 0.010487999767065048 -0.00974200014024973
v -0.027201000601053238 -0.016894999891519547 -0.007714000064879656
v -0.02726300060749054 -0.023614000529050827 -0.007712999824434519
v -0.026833999902009964 -0.017931999638676643 -0.0032099999953061342
v -0.026110000908374786 -0.01065600011497736 0.0034169999416917562
v -0.027814000844955444 -0.009127999655902386 0.000838999985717237
v -0.02765199914574623 -0.007253000047057867 -0.00392200006172061
v -0.025039000436663628 -0.008616999723017216 -0.00939099956303835
v -0.015519999898970127 -0.03912600129842758 -0.02077299915254116
v -0.015258999541401863 -0.04730900004506111 -0.022130999714136124
v -0.024555999785661697 -0.04785199835896492 -0.01853499934077263
v -0.02560799941420555 -0.042736999690532684 -0.016367999836802483
v -0.013654000125825405 -0.03400300070643425 -0.02016500011086464
v -0.026040000841021538 -0.03887899965047836 -0.014619000256061554
v -0.011509999632835388 -0.026965999975800514 -0.018995000049471855
v -0.027055000886321068 -0.03226599842309952 -0.011806000024080276
v -0.01107999961823225 -0.019733000546693802 -0.01822900027036667
v -0.01126100029796362 -0.01695300079882145 -0.01707500033080578
v -0.018624000251293182 -0.018964000046253204 0.0010870000114664435
v -0.008957999758422375 -0.015084999613463879 0.012606999836862087
v -0.008340000174939632 -0.022539999336004257 0.01090100035071373
v -0.019742999225854874 -0.029312999919056892 -0.0024049999192357063
v -0.007114999927580357 -0.026690000668168068 0.004722000099718571
v -0.019500000402331352 -0.03578000143170357 -0.004815000109374523
v -0.008485999889671803 -0.03512899950146675 -0.0004900000058114529
v -0.020181000232696533 -0.04250200092792511 -0.007588000036776066
v -0.009267999790608883 -0.04235300049185753 -0.0036720000207424164
v -0.01938300020992756 -0.05063699930906296 -0.01001800037920475
v -0.00927599985152483 -0.04971399903297424 -0.007927999831736088
v -0.007814999669790268 -0.049835000187158585 -0.01459100004285574
v -0.009093999862670898 -0.0361890010535717 -0.01450399961322546
v -0.006138000171631575 -0.0405689999461174 -0.009859000332653522
v -0.004792000167071819 -0.032287001609802246 -0.008138000033795834
v -0.0034580000210553408 -0.025769999250769615 -0.00952600035816431
v -0.0004839999892283231 -0.02174299955368042 -0.011657999828457832
v -0.003871999913826585 -0.023346999660134315 -0.01298299990594387
v -0.007166000083088875 -0.022235000506043434 -0.014585999771952629
v -0.005836000200361013 -0.01798900030553341 -0.010815000161528587
v 0.002050000010058284 -0.017994999885559082 -0.00999400019645691
v -0.006957000121474266 -0.038474999368190765 -0.0053610000759363174
v -0.003148999996483326 -0.023945000022649765 -0.0018980000168085098
v -0.0022060000337660313 -0.022298000752925873 0.007160000037401915
v -0.0005699999746866524 -0.020323999226093292 0.0021349999587982893
v 0.0011699999449774623 -0.019370000809431076 -0.0009790000040084124
v -0.011115999892354012 -0.07182099670171738 -0.012424999848008156
v -0.020547999069094658 -0.07126100361347198 -0.017356999218463898
v -0.022393999621272087 -0.07218299806118011 -0.024932000786066055
v -0.014015000313520432 -0.07073300331830978 -0.025699999183416367
v -0.007666000165045261 -0.06912499666213989 -0.0255769994109869
v -0.009599000215530396 -0.07074400037527084 -0.018446000292897224
v 0.008287999778985977 -0.24027200043201447 -0.04075299948453903
v 0.009410000406205654 -0.24367600679397583 -0.043255001306533813
v 0.012916999869048595 -0.24160200357437134 -0.0466650016605854
v 0.012822000309824944 -0.23601900041103363 -0.044891998171806335
v 0.012263000011444092 -0.2409839928150177 -0.05121999979019165
v 0.014062999747693539 -0.23346400260925293 -0.05031299963593483
v 0.009751000441610813 -0.24150800704956055 -0.05418400093913078
v 0.01017799973487854 -0.23555700480937958 -0.05504399910569191
v 0.006771999876946211 -0.2425210028886795 -0.05326500162482262
v 0.004298999905586243 -0.24330799281597137 -0.05050700157880783
v 0.004889000207185745 -0.23758600652217865 -0.05611100047826767
v 0.00031800000579096377 -0.24417899549007416 -0.04940799996256828
v 0.001133000012487173 -0.23927700519561768 -0.052473001182079315
v -0.0008030000026337802 -0.2455510050058365 -0.04969700053334236
v -0.0024689999409019947 -0.24757899343967438 -0.048385001718997955
v -0.006014999933540821 -0.24188999831676483 -0.04867599904537201
v -0.004182999953627586 -0.24611499905586243 -0.0460439994931221
v -0.001943000010214746 -0.24198299646377563 -0.044509001076221466
v -0.0013920000055804849 -0.24493800103664398 -0.045708999037742615
v 0.0006719999946653843 -0.24164800345897675 -0.04194999858736992
v -0.00011899999663000926 -0.2438659965991974 -0.044798001646995544
v 0.003664999967440963 -0.2435470074415207 -0.04299699887633324
v 0.00853700004518032 -0.24065400660037994 -0.040980998426675797
v 0.00919399969279766 -0.2437870055437088 -0.043480999767780304
v 0.0024999999441206455 -0.24407300353050232 -0.046852998435497284
v 0.007102999836206436 -0.2230760008096695 -0.04348300024867058
v 0.0031240000389516354 -0.2254820019006729 -0.03998899832367897
v 0.005034000147134066 -0.23286600410938263 -0.04070800170302391
v 0.010181000456213951 -0.23047900199890137 -0.04473600164055824
v 0.006682000122964382 -0.22125600278377533 -0.046858999878168106
v 0.010114000178873539 -0.22992299497127533 -0.04933499917387962
v 0.0010489999549463391 -0.22210000455379486 -0.04826800152659416
v 0.004540999885648489 -0.22954000532627106 -0.05233899876475334
v -0.000155999994603917 -0.23257699608802795 -0.05001800134778023
v -0.0035840000491589308 -0.224031001329422 -0.04597700014710426
v -0.004004000220447779 -0.23344799876213074 -0.04829299822449684
v -0.0036669999826699495 -0.2249850034713745 -0.04236700013279915
v -0.004509999882429838 -0.2348410040140152 -0.04379500076174736
v -0.0008370000286959112 -0.2259490042924881 -0.03897500038146973
v -0.0011060000397264957 -0.234265998005867 -0.04038099944591522
v 0.002966000000014901 -0.22578799724578857 -0.04030599817633629
v 0.0045380000956356525 -0.23279300332069397 -0.0410659983754158
v 0.0031419999431818724 -0.18756599724292755 -0.034797001630067825
v 0.000011000000085914508 -0.1878110021352768 -0.0314520001411438
v 0.002274000085890293 -0.21374699473381042 -0.03719799965620041
v 0.005377000197768211 -0.2124129980802536 -0.03972399979829788
v 0.0035800000187009573 -0.1871650069952011 -0.04038099944591522
v 0.0053090001456439495 -0.21186499297618866 -0.04365300014615059
v -0.0040259999223053455 -0.188058003783226 -0.04009599983692169
v -0.0006419999990612268 -0.21191799640655518 -0.04585700109601021
v -0.0047079999931156635 -0.21291400492191315 -0.04323999956250191
v -0.008311999961733818 -0.18918299674987793 -0.036361999809741974
v -0.00394000019878149 -0.21392999589443207 -0.03842100128531456
v -0.006101000122725964 -0.18818800151348114 -0.032632000744342804
v -0.0016370000084862113 -0.2143159955739975 -0.03582699969410896
v -0.000029999999242136255 -0.18722400069236755 -0.030549999326467514
v 0.0022169998846948147 -0.21354900300502777 -0.03733000159263611
v -0.0008249999955296516 -0.1629129946231842 -0.031307000666856766
v -0.007424000184983015 -0.13940200209617615 -0.02224699966609478
v -0.003628999926149845 -0.16205599904060364 -0.026291999965906143
v -0.0030300000216811895 -0.13913600146770477 -0.02876400016248226
v 0.001183000043965876 -0.16250300407409668 -0.03755899891257286
v -0.0005290000117383897 -0.1381170004606247 -0.03317299857735634
v -0.006564000155776739 -0.16400699317455292 -0.037147000432014465
v -0.008696000091731548 -0.1393440067768097 -0.03307199850678444
v -0.012078999541699886 -0.1648010015487671 -0.03412799909710884
v -0.013992000371217728 -0.1400119960308075 -0.030944999307394028
v -0.009909000247716904 -0.163224995136261 -0.029048999771475792
v -0.013352000154554844 -0.13903500139713287 -0.025877000764012337
v -0.0034439999144524336 -0.1621450036764145 -0.026203999295830727
v -0.007482000160962343 -0.13920700550079346 -0.022154999896883965
v -0.005038000177592039 -0.11846199631690979 -0.02559100091457367
v -0.01079300045967102 -0.09970399737358093 -0.016769999638199806
v -0.008779999800026417 -0.11907599866390228 -0.019881999120116234
v -0.0066019999794662 -0.09905499964952469 -0.0229250006377697
v -0.0019020000472664833 -0.1174829974770546 -0.0314750000834465
v -0.003527000080794096 -0.09718099981546402 -0.02857399918138981
v -0.008729999884963036 -0.11861799657344818 -0.0318170003592968
v -0.011009999550879002 -0.09785299748182297 -0.029224000871181488
v -0.016496999189257622 -0.11912699788808823 -0.03103500045835972
v -0.01907999999821186 -0.09846100211143494 -0.0300539992749691
v -0.016150999814271927 -0.11917299777269363 -0.02571200020611286
v -0.018081000074744225 -0.09968999773263931 -0.023002000525593758
v -0.008848000317811966 -0.11937200278043747 -0.020601000636816025
v -0.010327000170946121 -0.09996899962425232 -0.01721999980509281
v -0.011079000309109688 -0.0717260017991066 -0.011842000298202038
f 1 2 3
f 4 2 5
f 3 2 4
f 4 5 6
f 6 5 7
f 6 7 8
f 6 8 9
f 10 5 11
f 7 5 10
f 8 7 10
f 10 11 12
f 10 12 13
f 8 10 14
f 9 8 14
f 15 12 16
f 13 12 15
f 17 13 15
f 10 13 17
f 18 10 17
f 14 10 18
f 19 14 18
f 9 14 19
f 20 16 21
f 15 16 20
f 22 15 20
f 17 15 22
f 23 17 22
f 18 17 23
f 24 18 23
f 19 18 24
f 25 26 27
f 28 25 27
f 29 25 28
f 30 29 28
f 31 29 30
f 32 31 30
f 33 31 32
f 2 33 32
f 34 33 2
f 27 26 35
f 36 27 35
f 28 27 36
f 37 28 36
f 30 28 37
f 38 30 37
f 32 30 38
f 5 32 38
f 2 32 5
f 39 26 40
f 35 26 39
f 41 35 39
f 36 35 41
f 42 36 41
f 37 36 42
f 43 37 42
f 38 37 43
f 11 38 43
f 5 38 11
f 44 40 45
f 39 40 44
f 46 39 44
f 41 39 46
f 47 41 46
f 42 41 47
f 48 42 47
f 43 42 48
f 12 43 48
f 11 43 12
f 49 45 50
f 44 45 49
f 51 44 49
f 46 44 51
f 52 46 51
f 47 46 52
f 53 47 52
f 48 47 53
f 16 48 53
f 12 48 16
f 54 50 55
f 49 50 54
f 56 49 54
f 51 49 56
f 57 51 56
f 52 51 57
f 58 52 57
f 53 52 58
f 21 53 58
f 16 53 21
f 59 55 60
f 54 55 59
f 61 54 59
f 56 54 61
f 62 56 61
f 57 56 62
f 63 57 62
f 58 57 63
f 64 58 63
f 21 58 64
f 59 60 65
f 61 59 65
f 66 61 65
f 62 61 66
f 63 62 66
f 64 63 66
f 67 66 65
f 68 66 67
f 69 68 67
f 70 68 69
f 71 70 69
f 72 71 69
f 73 71 72
f 74 73 72
f 75 73 74
f 25 75 74
f 29 75 25
f 67 65 60
f 67 60 55
f 69 67 55
f 69 55 50
f 69 50 45
f 72 69 45
f 72 45 40
f 74 72 40
f 74 40 26
f 25 74 26
f 25 26 76
f 77 78 79
f 79 80 81
f 77 79 81
f 77 81 82
f 77 82 83
f 80 66 68
f 81 80 68
f 81 68 70
f 81 70 71
f 82 81 71
f 82 71 73
f 82 73 75
f 83 82 75
f 83 75 29
f 84 85 86
f 84 86 87
f 88 84 87
f 88 87 89
f 90 88 89
f 90 89 91
f 90 91 78
f 92 90 78
f 92 78 77
f 93 92 77
f 93 77 83
f 34 93 83
f 34 83 29
f 33 34 29
f 33 29 31
f 94 95 64
f 96 95 94
f 97 96 94
f 98 96 97
f 99 98 97
f 100 98 99
f 101 100 99
f 102 100 101
f 103 102 101
f 104 102 103
f 94 64 66
f 94 66 80
f 94 80 79
f 97 94 79
f 97 79 78
f 99 97 78
f 99 78 91
f 101 99 91
f 101 91 89
f 101 89 87
f 103 101 87
f 103 87 86
f 105 85 106
f 107 105 106
f 108 107 106
f 109 108 106
f 110 109 106
f 111 110 106
f 112 111 106
f 92 112 106
f 90 92 106
f 88 90 106
f 84 88 106
f 85 84 106
f 4 6 113
f 3 4 113
f 1 3 113
f 1 113 34
f 93 34 113
f 92 93 113
f 112 92 113
f 111 112 113
f 110 111 113
f 114 110 113
f 6 114 113
f 104 105 115
f 102 104 115
f 100 102 115
f 98 100 115
f 116 98 115
f 110 116 115
f 109 110 115
f 108 109 115
f 107 108 115
f 105 107 115
f 96 98 117
f 24 96 117
f 95 96 24
f 118 98 116
f 117 98 118
f 19 117 118
f 24 117 19
f 118 116 119
f 9 118 119
f 19 118 9
f 114 116 110
f 119 116 114
f 6 119 114
f 9 119 6
f 103 120 104
f 121 120 103
f 86 121 103
f 122 121 86
f 123 122 86
f 85 123 86
f 124 123 85
f 105 124 85
f 125 124 105
f 104 125 105
f 120 125 104
f 126 127 128
f 129 126 128
f 129 128 130
f 131 129 130
f 131 130 132
f 133 131 132
f 133 132 134
f 133 134 135
f 136 133 135
f 136 135 137
f 138 136 137
f 138 137 139
f 138 139 140
f 141 138 140
f 141 140 142
f 143 141 142
f 143 142 144
f 145 143 144
f 145 144 146
f 145 146 147
f 148 145 147
f 148 147 149
f 128 127 150
f 130 128 150
f 132 130 150
f 134 132 150
f 135 134 150
f 137 135 150
f 139 137 150
f 140 139 150
f 142 140 150
f 144 142 150
f 146 144 150
f 147 146 150
f 149 147 150
f 151 152 153
f 151 153 154
f 155 151 154
f 155 154 156
f 157 155 156
f 157 156 158
f 157 158 159
f 160 157 159
f 160 159 161
f 162 160 161
f 162 161 163
f 164 162 163
f 164 163 165
f 166 164 165
f 166 165 167
f 154 153 126
f 154 126 129
f 156 154 129
f 156 129 131
f 158 156 131
f 158 131 133
f 158 133 136
f 159 158 136
f 159 136 138
f 161 159 138
f 161 138 141
f 163 161 141
f 163 141 143
f 165 163 143
f 165 143 145
f 167 165 145
f 167 145 148
f 168 169 170
f 168 170 171
f 172 168 171
f 172 171 173
f 174 172 173
f 174 173 175
f 174 175 176
f 177 174 176
f 177 176 178
f 179 177 178
f 179 178 180
f 181 179 180
f 181 180 182
f 151 170 152
f 171 170 151
f 155 171 151
f 173 171 155
f 157 173 155
f 175 173 157
f 160 175 157
f 176 175 160
f 162 176 160
f 178 176 162
f 164 178 162
f 180 178 164
f 166 180 164
f 182 180 166
f 183 184 185
f 186 184 183
f 187 186 183
f 188 186 187
f 189 188 187
f 190 188 189
f 191 190 189
f 192 190 191
f 193 192 191
f 194 192 193
f 195 194 193
f 196 194 195
f 168 185 169
f 183 185 168
f 172 183 168
f 187 183 172
f 174 187 172
f 189 187 174
f 177 189 174
f 191 189 177
f 179 191 177
f 193 191 179
f 181 193 179
f 195 193 181
f 197 198 199
f 200 198 197
f 201 200 197
f 202 200 201
f 203 202 201
f 204 202 203
f 205 204 203
f 206 204 205
f 207 206 205
f 208 206 207
f 209 208 207
f 210 208 209
f 186 199 184
f 197 199 186
f 188 197 186
f 201 197 188
f 190 201 188
f 203 201 190
f 192 203 190
f 205 203 192
f 194 205 192
f 207 205 194
f 196 207 194
f 209 207 196
f 200 120 198
f 125 120 200
f 202 125 200
f 124 125 202
f 204 124 202
f 123 124 204
f 206 123 204
f 122 123 206
f 208 122 206
f 121 122 208
f 210 121 208
f 211 121 210
f 20 21 64
f 22 20 64
f 95 22 64
f 23 22 95
f 24 23 95
