# Blender 4.0.2
# www.blender.org
mtllib 1mc_l.mtl
o 1mc_l.002
v 0.009400 -0.005617 0.000730
v 0.009376 -0.004584 0.003011
v 0.007469 -0.001166 0.000032
v 0.008824 -0.003868 0.004762
v 0.007403 -0.001061 0.000910
v 0.006626 -0.001564 -0.003422
v 0.005725 0.001987 -0.002395
v 0.008120 -0.004969 -0.001996
v 0.010979 -0.008556 0.002117
v 0.006799 0.000335 0.002922
v 0.004860 0.002240 -0.004508
v 0.005309 0.002851 0.000505
v 0.009564 -0.008653 -0.000616
v 0.011789 -0.008964 0.004786
v 0.007511 -0.002064 0.005163
v 0.005411 -0.000358 -0.004895
v 0.006277 -0.003069 -0.004407
v 0.004422 0.003664 -0.003018
v 0.004046 0.004242 -0.001307
v 0.008862 -0.008606 -0.001381
v 0.007639 -0.006069 -0.002912
v 0.010690 -0.007896 0.007222
v 0.011314 -0.008281 0.006293
v 0.008694 -0.004763 0.006172
v 0.005435 0.000739 0.005046
v 0.004342 0.001788 -0.005359
v 0.004947 0.002915 0.002012
v 0.003491 0.003796 -0.004130
v 0.012327 -0.014088 0.001614
v 0.010036 -0.012056 -0.000390
v 0.012977 -0.011868 0.003957
v 0.002625 0.002507 -0.005938
v 0.005579 -0.003305 -0.004865
v 0.004198 -0.000941 -0.006068
v 0.003096 0.004382 -0.003078
v 0.007445 -0.007671 -0.002330
v 0.011802 -0.014590 0.001096
v 0.011019 -0.009701 0.008587
v 0.008961 -0.007757 0.007759
v 0.005458 -0.004616 -0.004549
v 0.003969 -0.002716 -0.005891
v 0.003851 0.003940 0.000880
v 0.009022 -0.012109 -0.000602
v 0.016991 -0.018547 0.008957
v 0.014636 -0.014245 0.007516
v 0.014646 -0.016091 0.004307
v 0.012964 -0.017083 0.002099
v 0.013032 -0.012259 0.008790
v 0.005998 -0.004605 0.006595
v 0.005546 -0.002404 0.006230
v 0.003695 0.000526 0.006045
v 0.001922 0.003381 -0.005257
v 0.006361 -0.008750 -0.001747
v 0.002315 0.004804 0.000694
v 0.002087 0.004996 -0.000766
v 0.010957 -0.015399 0.000825
v 0.012784 -0.017605 0.002024
v 0.003523 0.002735 0.003013
v 0.002063 -0.000445 0.006562
v 0.002518 -0.001310 0.006793
v 0.002510 0.003481 0.003018
v 0.001981 -0.001357 -0.006268
v 0.001564 0.001080 -0.006055
v 0.002991 -0.006571 -0.003525
v 0.001952 0.004298 0.002008
v 0.001484 0.005017 -0.001283
v 0.000417 0.004489 -0.004010
v 0.007748 -0.012618 0.000397
v 0.011255 -0.017582 0.001862
v 0.014608 -0.020369 0.003308
v 0.008144 -0.008412 0.007957
v 0.009975 -0.011459 0.009420
v 0.012693 -0.013184 0.010367
v 0.004046 -0.003426 0.006349
v 0.001642 0.002074 0.004613
v 0.001574 0.000887 0.005689
v 0.001238 0.002612 -0.005591
v 0.003659 -0.009219 -0.001033
v 0.004733 -0.010942 0.000427
v 0.001244 0.004378 0.001128
v 0.005502 -0.013942 0.002245
v 0.015394 -0.015922 0.009463
v 0.017971 -0.020919 0.009112
v 0.017133 -0.022785 0.005582
v 0.005748 -0.005932 0.006832
v 0.008013 -0.010051 0.008219
v 0.002884 -0.003852 0.006107
v 0.001329 -0.004496 -0.005611
v 0.000290 -0.000052 -0.006691
v 0.000690 -0.001842 -0.006593
v -0.000034 0.002679 -0.005880
v 0.001939 -0.008396 -0.002671
v 0.001620 -0.009774 -0.000729
v 0.000003 0.004258 -0.003963
v 0.009621 -0.019342 0.004227
v 0.006982 -0.016574 0.003987
v 0.003911 -0.012637 0.002185
v 0.018248 -0.020803 0.011162
v 0.016145 -0.022848 0.004404
v 0.011245 -0.019578 0.003036
v 0.013678 -0.021581 0.003267
v 0.012709 -0.015038 0.011693
v 0.004120 -0.006701 0.006092
v 0.005345 -0.007064 0.006838
v 0.000958 -0.002117 0.006465
v -0.000016 -0.004867 -0.005253
v 0.000657 -0.007163 -0.003779
v 0.000088 0.004174 -0.001128
v -0.000764 0.003147 -0.000775
v -0.000658 0.003321 -0.004724
v 0.005202 -0.014502 0.003913
v 0.016870 -0.018851 0.011595
v 0.018135 -0.024905 0.005644
v 0.015274 -0.023900 0.003964
v 0.013306 -0.023045 0.003796
v 0.012269 -0.022603 0.004173
v 0.006400 -0.009266 0.007235
v 0.011968 -0.015454 0.011466
v 0.008345 -0.014824 0.008716
v 0.014636 -0.018548 0.013709
v 0.002202 -0.004337 0.005462
v -0.001546 -0.000721 0.005183
v -0.000578 0.000561 0.004976
v 0.000768 0.003011 0.002525
v -0.001269 -0.004693 -0.004678
v 0.000038 -0.002530 -0.006212
v -0.000663 -0.009512 -0.001031
v -0.002046 0.000818 -0.001507
v -0.001579 0.001598 0.000841
v 0.000986 -0.010660 0.000725
v 0.020103 -0.024781 0.010686
v 0.017032 -0.026159 0.004259
v 0.005893 -0.012685 0.006859
v 0.005030 -0.009721 0.006407
v 0.011228 -0.017247 0.011011
v 0.003293 -0.006957 0.005461
v -0.000323 -0.002915 0.005727
v -0.001156 0.001370 0.003162
v -0.000456 0.000028 -0.006148
v -0.000794 -0.008469 -0.002174
v 0.008954 -0.020772 0.006959
v 0.005022 -0.014037 0.004932
v 0.002272 -0.011561 0.002400
v 0.020157 -0.023643 0.012601
v 0.020937 -0.028402 0.008790
v 0.021349 -0.028244 0.010348
v 0.021843 -0.028012 0.011578
v 0.021024 -0.024792 0.012535
v 0.018769 -0.021808 0.014275
v 0.017855 -0.021800 0.015328
v 0.015205 -0.026885 0.004040
v 0.010853 -0.024394 0.006762
v 0.013329 -0.026000 0.004479
v 0.014091 -0.026091 0.004060
v 0.007714 -0.016276 0.008094
v 0.000079 -0.005516 0.004656
v -0.000599 -0.004252 0.005280
v -0.002510 0.000022 0.004208
v -0.003450 -0.006760 -0.002231
v -0.003059 -0.000329 -0.000424
v -0.003205 0.000064 0.003308
v -0.002073 -0.001409 -0.003735
v -0.001347 0.000660 -0.004588
v 0.007030 -0.017467 0.006207
v -0.000894 -0.009882 0.000479
v -0.000289 -0.009819 0.002263
v 0.020241 -0.028818 0.007397
v 0.021981 -0.027252 0.013413
v 0.021603 -0.025350 0.013726
v 0.021141 -0.024429 0.014065
v 0.017737 -0.027631 0.004980
v 0.011643 -0.024206 0.005486
v 0.015026 -0.028889 0.005041
v 0.002900 -0.010743 0.004466
v 0.011288 -0.020748 0.011608
v 0.008624 -0.019186 0.008567
v 0.015996 -0.021239 0.015543
v -0.001017 -0.008353 0.002917
v -0.002243 -0.004896 0.004298
v -0.002543 -0.003689 -0.003652
v -0.004528 -0.005885 -0.001890
v -0.003556 -0.001856 -0.001556
v -0.005357 -0.001384 0.001919
v 0.010511 -0.024921 0.008492
v 0.009134 -0.020915 0.008618
v 0.002095 -0.011060 0.003502
v 0.021748 -0.026562 0.014471
v 0.019280 -0.023774 0.016130
v 0.017602 -0.022618 0.016018
v 0.020045 -0.023478 0.015373
v 0.020825 -0.024391 0.015429
v 0.018773 -0.029080 0.006355
v 0.012571 -0.026089 0.005859
v 0.010622 -0.023183 0.010990
v 0.013650 -0.019610 0.013962
v 0.015306 -0.022363 0.016001
v -0.000090 -0.007083 0.003981
v -0.003401 -0.003775 0.003954
v -0.003605 -0.001655 0.004360
v -0.002034 -0.008988 -0.000707
v -0.004310 -0.004152 -0.002018
v -0.006023 -0.003055 -0.000017
v -0.006168 -0.002371 0.000994
v -0.005369 -0.001609 0.002958
v 0.021213 -0.030695 0.009592
v 0.020308 -0.030470 0.007718
v 0.021391 -0.030779 0.010905
v 0.016291 -0.029029 0.004941
v 0.012004 -0.026817 0.006741
v 0.011661 -0.028248 0.007938
v 0.014020 -0.028806 0.005858
v 0.011459 -0.024004 0.012545
v 0.013066 -0.023596 0.014608
v -0.003148 -0.006464 0.002976
v -0.003571 -0.007392 -0.000040
v -0.004579 -0.006604 -0.001231
v -0.002173 -0.008802 0.001230
v 0.019725 -0.032133 0.008048
v 0.021464 -0.025741 0.015217
v 0.021577 -0.028944 0.015394
v 0.016926 -0.027110 0.017309
v 0.017844 -0.030994 0.007436
v 0.011327 -0.029083 0.009741
v 0.011933 -0.029455 0.007841
v 0.013497 -0.028841 0.007181
v 0.011243 -0.025970 0.011814
v -0.005140 -0.002872 0.003646
v -0.006435 -0.003919 0.000419
v -0.005981 -0.005170 -0.000367
v -0.006218 -0.003225 0.002398
v -0.003269 -0.007181 0.002109
v 0.021983 -0.028851 0.013605
v 0.020583 -0.027311 0.016385
v 0.017705 -0.027148 0.017302
v 0.019057 -0.028589 0.017687
v 0.013967 -0.026368 0.017141
v 0.011149 -0.030671 0.009454
v 0.015245 -0.030564 0.007417
v -0.004495 -0.005561 0.002509
v -0.005814 -0.003834 0.002870
v -0.006563 -0.003758 0.001497
v -0.005362 -0.002228 0.003425
v 0.011657 -0.029440 0.011029
v 0.020691 -0.031949 0.012657
v 0.020935 -0.028888 0.016426
v 0.016612 -0.028583 0.018376
v 0.015187 -0.026815 0.017508
v 0.015941 -0.031722 0.008252
v 0.016087 -0.033657 0.008974
v 0.011380 -0.026109 0.013897
v 0.011661 -0.025521 0.014510
v 0.013032 -0.025136 0.015738
v -0.005685 -0.005851 0.000668
v 0.011273 -0.030655 0.010613
v 0.020425 -0.032571 0.009663
v 0.019153 -0.033615 0.013278
v 0.020270 -0.028829 0.017125
v 0.015631 -0.029636 0.018681
v 0.013197 -0.027134 0.017447
v 0.014533 -0.027912 0.018125
v 0.018122 -0.034245 0.009893
v 0.016765 -0.034265 0.009519
v 0.012216 -0.031260 0.008528
v 0.011450 -0.027747 0.013601
v 0.011761 -0.027273 0.016871
v -0.006282 -0.004639 0.001784
v 0.018460 -0.034324 0.011095
v 0.019083 -0.032845 0.014817
v 0.019468 -0.030786 0.016915
v 0.017549 -0.030219 0.018393
v 0.014003 -0.029892 0.018321
v 0.013837 -0.031955 0.008330
v 0.010873 -0.028299 0.014881
v 0.010937 -0.027013 0.015080
v 0.012061 -0.029340 0.013552
v 0.012120 -0.030505 0.012411
v 0.012150 -0.031939 0.012084
v 0.017495 -0.034674 0.012676
v 0.017633 -0.032914 0.015918
v 0.016833 -0.031078 0.018427
v 0.012666 -0.029907 0.017495
v 0.011550 -0.031370 0.010559
v 0.012859 -0.032651 0.009733
v 0.016712 -0.034318 0.014106
v 0.017279 -0.032047 0.017357
v 0.014714 -0.030743 0.018354
v 0.015777 -0.034962 0.010846
v 0.011367 -0.029561 0.015085
v 0.013430 -0.033908 0.010968
v 0.012245 -0.031967 0.013907
v 0.015084 -0.032569 0.017161
v 0.011013 -0.028078 0.016008
v 0.013018 -0.030916 0.017259
v 0.015630 -0.034827 0.012353
v 0.014904 -0.034368 0.010173
v 0.012389 -0.031210 0.015066
v 0.012013 -0.031749 0.013118
v 0.015777 -0.033322 0.015662
v 0.013903 -0.032306 0.016348
v 0.014030 -0.034430 0.011342
v 0.014149 -0.033459 0.014909
vn 0.9027 0.3212 -0.2862
vn 0.9057 0.4029 -0.1319
vn 0.8878 0.4579 -0.0454
vn 0.8823 0.4706 -0.0058
vn 0.8314 0.5110 0.2182
vn 0.8810 0.2402 -0.4076
vn 0.8681 0.4633 -0.1780
vn 0.8733 0.2032 -0.4427
vn 0.8815 0.3360 -0.3318
vn 0.8277 0.5378 0.1605
vn 0.7290 0.4713 -0.4964
vn 0.7684 0.6377 0.0536
vn 0.8164 0.1549 -0.5564
vn 0.8792 0.4721 -0.0634
vn 0.6317 0.4712 0.6155
vn 0.7548 0.1800 -0.6308
vn 0.7134 -0.0027 -0.7008
vn 0.6450 -0.1285 -0.7533
vn 0.6685 0.7071 -0.2306
vn 0.5699 0.8215 -0.0198
vn 0.6313 -0.0588 -0.7733
vn 0.6122 0.5976 0.5177
vn 0.4861 0.8652 -0.1230
vn 0.4677 0.5367 0.7023
vn 0.5039 0.6080 0.6136
vn 0.5633 0.3715 -0.7380
vn 0.5426 0.7678 0.3408
vn 0.4038 0.7672 -0.4984
vn 0.4574 -0.1428 -0.8777
vn 0.7724 0.1376 -0.6200
vn 0.8850 0.3469 -0.3105
vn 0.3899 0.0320 -0.9203
vn 0.3037 -0.3950 -0.8670
vn 0.5338 -0.1867 -0.8247
vn 0.2993 0.9160 -0.2672
vn 0.2159 -0.4082 -0.8870
vn 0.5814 -0.0633 -0.8112
vn 0.1118 0.4428 0.8896
vn 0.3414 0.5312 0.7754
vn 0.1543 0.4305 -0.8893
vn 0.2634 -0.2750 -0.9247
vn 0.4950 0.8214 0.2833
vn -0.0860 -0.4278 -0.8998
vn 0.8534 0.2425 -0.4614
vn 0.6419 0.0148 -0.7666
vn 0.8682 0.4955 0.0264
vn 0.7537 0.5450 0.3674
vn 0.0688 0.2766 0.9585
vn 0.2877 0.2037 0.9358
vn 0.1745 -0.0620 -0.9827
vn -0.0896 -0.5515 -0.8293
vn 0.1134 0.9614 0.2507
vn 0.0141 0.6915 -0.7223
vn -0.2074 0.9023 -0.3780
vn 0.1084 0.9926 0.0551
vn 0.1837 -0.3227 -0.9285
vn 0.8943 0.4382 -0.0905
vn 0.2187 0.5300 0.8193
vn 0.4023 0.7606 0.5096
vn 0.0025 0.0504 0.9987
vn -0.1524 0.3351 0.9298
vn 0.2481 0.7773 0.5781
vn 0.0944 0.1943 -0.9764
vn -0.0803 0.8634 0.4980
vn -0.1778 0.9841 -0.0038
vn -0.3600 -0.5454 -0.7569
vn -0.1703 -0.6305 -0.7573
vn 0.5538 -0.0160 -0.8325
vn 0.3325 -0.1845 -0.9249
vn -0.1928 0.2681 0.9439
vn -0.2817 0.2795 0.9179
vn 0.4207 0.5968 0.6832
vn -0.0504 -0.0323 0.9982
vn -0.1925 0.7329 0.6526
vn -0.2018 0.5755 0.7925
vn -0.0069 0.4727 -0.8812
vn 0.2047 -0.5709 -0.7951
vn 0.0476 -0.6897 -0.7226
vn -0.4856 0.8124 0.3229
vn -0.2107 -0.4606 -0.8622
vn -0.4504 -0.6551 -0.6066
vn 0.8033 0.5545 0.2173
vn 0.9000 0.3514 -0.2578
vn 0.8174 0.2935 -0.4957
vn -0.2747 0.1192 0.9541
vn -0.3054 -0.2899 0.9070
vn -0.0148 -0.1825 -0.9831
vn -0.1675 0.0909 -0.9817
vn -0.3155 0.4603 -0.8298
vn 0.1536 -0.6962 -0.7013
vn 0.0814 -0.4551 -0.8867
vn -0.0123 -0.7948 -0.6067
vn -0.6254 0.7574 -0.1875
vn -0.6014 -0.5203 -0.6063
vn -0.6299 -0.6119 -0.4783
vn -0.4831 -0.7557 -0.4421
vn 0.8628 0.5037 -0.0438
vn 0.6221 0.1307 -0.7720
vn -0.0100 -0.2819 -0.9594
vn -0.4518 0.1008 0.8864
vn -0.4570 0.0415 0.8885
vn -0.1035 0.4668 0.8783
vn 0.7312 0.6193 0.2859
vn -0.5035 -0.1132 0.8565
vn -0.2878 -0.1520 0.9455
vn -0.1104 -0.6165 -0.7796
vn -0.6399 0.7560 0.1376
vn -0.7899 0.5986 0.1330
vn -0.7526 0.5280 -0.3934
vn -0.4593 -0.4519 -0.7647
vn -0.7963 -0.5923 -0.1226
vn 0.2181 -0.0253 -0.9756
vn -0.2612 -0.2242 -0.9389
vn -0.5155 -0.3502 -0.7821
vn -0.5384 -0.0586 0.8406
vn -0.5527 0.1902 0.8114
vn -0.6033 0.0292 0.7970
vn 0.1725 0.5943 0.7855
vn -0.3496 -0.3358 0.8746
vn -0.5017 -0.1875 0.8445
vn -0.4401 0.2132 0.8723
vn -0.4007 0.5936 0.6979
vn -0.5575 0.7031 0.4414
vn -0.2746 -0.4765 -0.8352
vn -0.5390 -0.3308 -0.7746
vn -0.4256 -0.2445 -0.8713
vn -0.2549 -0.8286 -0.4984
vn -0.7304 0.6755 0.1010
vn 0.8513 0.3894 -0.3516
vn 0.7947 0.2647 -0.5462
vn 0.4690 -0.0277 -0.8828
vn -0.6893 -0.1390 0.7110
vn -0.5746 -0.0714 0.8153
vn -0.6353 0.1151 0.7636
vn -0.3617 -0.2292 0.9037
vn -0.5081 0.7917 0.3391
vn -0.2652 -0.6809 -0.6827
vn -0.7103 0.0680 -0.7006
vn -0.2847 -0.8807 -0.3787
vn -0.8736 0.4616 -0.1544
vn -0.8955 0.1809 -0.4067
vn -0.8882 -0.4358 -0.1457
vn -0.8293 -0.4523 0.3280
vn -0.5953 -0.8008 0.0659
vn 0.7950 0.5747 -0.1942
vn 0.9142 0.1896 -0.3582
vn 0.9279 0.1741 -0.3298
vn 0.8367 0.4561 -0.3030
vn 0.9572 0.1110 -0.2671
vn 0.6727 0.6923 0.2612
vn 0.4102 0.6592 0.6302
vn -0.0364 -0.2623 -0.9643
vn -0.8156 -0.3706 -0.4444
vn -0.6288 -0.3603 -0.6891
vn -0.3199 -0.2613 -0.9107
vn -0.7462 0.0910 0.6595
vn -0.7762 -0.1376 0.6152
vn -0.2400 -0.3599 0.9016
vn -0.1513 -0.3585 0.9212
vn -0.4972 0.6126 0.6144
vn -0.5259 -0.5553 -0.6442
vn -0.7345 0.6356 -0.2377
vn -0.5891 0.7693 0.2472
vn -0.8678 0.2181 -0.4465
vn -0.8846 -0.4435 0.1439
vn -0.6469 -0.6040 0.4656
vn -0.4930 -0.8689 -0.0444
vn -0.5908 -0.6942 0.4111
vn 0.7862 0.0084 -0.6179
vn 0.9921 0.1253 -0.0094
vn 0.9426 0.3262 -0.0707
vn 0.8362 0.5482 0.0162
vn 0.5495 -0.1928 -0.8130
vn -0.7725 -0.2596 -0.5795
vn -0.3210 -0.6209 -0.7151
vn -0.6192 -0.2749 0.7355
vn -0.5134 0.3203 0.7961
vn -0.8675 -0.2406 0.4355
vn -0.9069 -0.0918 0.4112
vn 0.0512 0.5295 0.8468
vn -0.5009 -0.5027 0.7046
vn -0.3320 -0.4114 0.8488
vn -0.4176 -0.3213 0.8499
vn -0.7274 0.0217 -0.6859
vn -0.6640 -0.2536 -0.7034
vn -0.7198 0.4297 -0.5452
vn -0.6777 0.7349 -0.0270
vn -0.9591 -0.2798 -0.0435
vn -0.9363 -0.2915 0.1960
vn 0.9582 0.0922 0.2707
vn 0.1848 0.4305 0.8835
vn 0.3458 0.3886 0.8541
vn 0.7254 0.4423 0.5274
vn 0.6302 0.6275 0.4572
vn 0.4649 -0.3936 -0.7931
vn -0.6823 -0.4523 -0.5744
vn -0.6570 -0.5905 -0.4687
vn -0.2231 0.3683 0.9025
vn -0.3960 -0.2646 0.8793
vn -0.4424 0.1235 0.8883
vn -0.6884 0.1724 -0.7046
vn -0.5802 -0.7606 -0.2914
vn -0.7662 0.3424 -0.5438
vn -0.8428 0.5110 -0.1690
vn -0.7312 0.5593 0.3905
vn 0.9357 -0.2005 -0.2901
vn 0.7243 -0.2354 -0.6481
vn 0.9790 -0.1815 0.0926
vn 0.9539 -0.2915 -0.0714
vn 0.1114 -0.5879 -0.8012
vn -0.6062 -0.4024 -0.6860
vn -0.8976 -0.1948 -0.3955
vn -0.8759 0.1111 0.4694
vn -0.8687 0.2621 0.4203
vn -0.5418 -0.5266 0.6551
vn -0.5054 -0.5013 0.7023
vn -0.7144 -0.6997 0.0084
vn -0.6242 -0.7127 -0.3200
vn -0.6560 -0.7066 0.2654
vn 0.8715 0.1724 0.4591
vn 0.8962 -0.2068 0.3925
vn 0.0894 0.4214 0.9025
vn 0.1628 0.3982 0.9027
vn 0.6073 0.2228 0.7626
vn 0.4426 -0.5535 -0.7055
vn -0.9991 -0.0179 0.0388
vn -0.5802 -0.3014 -0.7567
vn -0.4967 -0.5206 -0.6944
vn -0.9819 -0.0758 0.1736
vn -0.5875 0.4807 0.6510
vn -0.5184 -0.1491 0.8420
vn -0.8719 -0.2700 -0.4085
vn -0.9557 -0.0153 -0.2940
vn -0.6929 0.2517 0.6757
vn -0.9010 0.1228 0.4161
vn -0.6207 -0.6622 0.4198
vn 0.7536 -0.6151 -0.2319
vn 0.3558 0.2565 0.8987
vn 0.0375 0.3863 0.9216
vn -0.2560 0.4791 0.8396
vn -0.0024 -0.5751 -0.8181
vn -0.4075 -0.7424 -0.5318
vn -0.9322 -0.2854 -0.2224
vn -0.9751 0.2182 -0.0393
vn -0.6394 -0.2977 0.7089
vn -0.9937 -0.0113 0.1111
vn -0.9662 -0.0619 0.2501
vn 0.8169 -0.5540 0.1606
vn 0.7878 -0.1275 0.6025
vn 0.6014 -0.0135 0.7988
vn 0.1396 0.3476 0.9272
vn -0.1352 -0.4438 -0.8858
vn -0.1263 -0.6048 -0.7863
vn -0.9710 -0.1385 -0.1947
vn -0.8031 0.5756 0.1540
vn -0.7260 -0.6772 0.1196
vn -0.9525 -0.0817 0.2932
vn -0.3188 0.3967 0.8608
vn -0.1433 0.3477 0.9266
vn 0.0329 -0.7971 -0.6029
vn -0.5205 -0.5212 -0.6763
vn -0.6294 0.3210 0.7077
vn -0.8240 -0.4512 0.3428
vn 0.3286 -0.8599 -0.3907
vn 0.4872 -0.8718 -0.0521
vn 0.6080 -0.7553 0.2446
vn 0.5813 -0.6875 0.4352
vn 0.6122 -0.4938 0.6176
vn 0.3522 -0.1208 0.9281
vn -0.0423 0.0404 0.9983
vn -0.3880 -0.0888 0.9174
vn -0.2192 -0.5144 -0.8291
vn -0.9686 -0.1882 -0.1627
vn -0.9501 0.2927 0.1076
vn -0.9485 -0.2995 -0.1028
vn -0.9875 -0.0844 0.1332
vn -0.9181 -0.3841 0.0979
vn 0.2806 -0.9411 0.1889
vn 0.1813 -0.4302 0.8844
vn -0.6708 -0.2360 0.7030
vn -0.8554 -0.5167 0.0358
vn -0.5913 -0.6746 -0.4419
vn -0.9080 -0.0642 0.4140
vn 0.0992 -0.8987 0.4271
vn 0.3172 -0.7850 0.5322
vn 0.3132 -0.7111 0.6294
vn -0.2625 -0.3833 0.8855
vn -0.8858 -0.4622 -0.0415
vn -0.9698 -0.2067 0.1292
vn -0.5898 -0.7600 -0.2730
vn -0.8785 -0.4140 0.2383
vn -0.1859 -0.7588 0.6243
vn -0.6442 -0.5183 0.5624
vn -0.0775 -0.9748 -0.2094
vn -0.1570 -0.9667 0.2023
vn -0.3414 -0.7860 -0.5155
vn -0.8542 -0.4670 0.2286
vn -0.0109 -0.8736 0.4865
vn -0.6035 -0.6681 0.4352
vn -0.5169 -0.8542 -0.0571
vn -0.4630 -0.8020 0.3775
s 1
f 1//1 3//2 2//3
f 3//2 5//4 2//3
f 2//3 5//4 4//5
f 3//2 6//6 7//7
f 8//8 3//2 1//1
f 1//1 2//3 9//9
f 4//5 5//4 10//10
f 3//2 8//8 6//6
f 7//7 6//6 11//11
f 7//7 12//12 3//2
f 5//4 3//2 12//12
f 8//8 1//1 13//13
f 2//3 4//5 14//14
f 10//10 15//15 4//5
f 12//12 10//10 5//4
f 16//16 11//11 6//6
f 17//17 6//6 8//8
f 17//17 8//8 21//18
f 11//11 18//19 7//7
f 7//7 19//20 12//12
f 9//9 13//13 1//1
f 21//18 8//8 13//13
f 20//21 21//18 13//13
f 14//14 4//5 22//22
f 23//23 14//14 22//22
f 9//9 2//3 14//14
f 4//5 24//24 22//22
f 15//15 24//24 4//5
f 10//10 25//25 15//15
f 16//16 6//6 17//17
f 26//26 11//11 16//16
f 12//12 27//27 10//10
f 28//28 18//19 11//11
f 19//20 7//7 18//19
f 30//29 20//21 29//30
f 20//21 13//13 29//30
f 13//13 9//9 31//31
f 29//30 13//13 31//31
f 14//14 31//31 9//9
f 10//10 27//27 25//25
f 17//17 34//32 16//16
f 21//18 40//33 17//17
f 33//34 17//17 40//33
f 35//35 18//19 28//28
f 36//36 20//21 30//29
f 30//29 29//30 37//37
f 22//22 24//24 39//38
f 22//22 39//38 38//39
f 16//16 34//32 26//26
f 32//40 26//26 34//32
f 41//41 33//34 40//33
f 34//32 17//17 33//34
f 21//18 36//36 40//33
f 21//18 20//21 36//36
f 42//42 27//27 12//12
f 11//11 32//40 28//28
f 11//11 26//26 32//40
f 35//35 19//20 18//19
f 19//20 42//42 12//12
f 36//36 30//29 43//43
f 31//31 46//44 29//30
f 47//45 37//37 29//30
f 31//31 14//14 45//46
f 23//23 22//22 48//47
f 48//47 22//22 38//39
f 23//23 48//47 45//46
f 23//23 45//46 14//14
f 49//48 24//24 15//15
f 49//48 15//15 50//49
f 62//50 32//40 34//32
f 41//41 34//32 33//34
f 36//36 53//51 40//33
f 19//20 54//52 42//42
f 52//53 28//28 32//40
f 28//28 67//54 35//35
f 67//54 28//28 52//53
f 55//55 54//52 19//20
f 35//35 55//55 19//20
f 53//51 36//36 43//43
f 56//56 30//29 37//37
f 43//43 30//29 56//56
f 44//57 31//31 45//46
f 46//44 31//31 44//57
f 47//45 29//30 46//44
f 25//25 50//49 15//15
f 25//25 51//58 50//49
f 27//27 58//59 25//25
f 42//42 58//59 27//27
f 25//25 58//59 51//58
f 51//58 60//60 50//49
f 59//61 60//60 51//58
f 58//59 61//62 51//58
f 32//40 62//50 63//63
f 42//42 54//52 65//64
f 42//42 65//64 61//62
f 67//54 66//65 35//35
f 35//35 66//65 55//55
f 43//43 68//66 53//51
f 79//67 53//51 68//66
f 56//56 37//37 47//45
f 47//45 46//44 70//68
f 47//45 70//68 57//69
f 24//24 49//48 39//38
f 49//48 71//70 39//38
f 38//39 39//38 72//71
f 71//70 72//71 39//38
f 73//72 48//47 38//39
f 74//73 49//48 50//49
f 51//58 75//74 76//75
f 51//58 61//62 75//74
f 62//50 34//32 41//41
f 32//40 63//63 77//76
f 32//40 77//76 52//53
f 40//33 64//77 41//41
f 53//51 64//77 40//33
f 78//78 53//51 79//67
f 53//51 78//78 64//77
f 42//42 61//62 58//59
f 77//76 67//54 52//53
f 80//79 55//55 66//65
f 55//55 80//79 54//52
f 43//43 56//56 69//80
f 68//66 43//43 69//80
f 79//67 68//66 81//81
f 56//56 57//69 69//80
f 56//56 47//45 57//69
f 45//46 48//47 82//82
f 83//83 46//44 44//57
f 84//84 70//68 46//44
f 85//85 71//70 49//48
f 82//82 48//47 73//72
f 85//85 49//48 74//73
f 74//73 87//86 85//85
f 74//73 50//49 60//60
f 76//75 59//61 51//58
f 90//87 89//88 62//50
f 62//50 89//88 63//63
f 77//76 63//63 91//89
f 64//77 92//90 88//91
f 64//77 88//91 41//41
f 64//77 78//78 92//90
f 93//92 78//78 79//67
f 67//54 94//93 66//65
f 91//89 67//54 77//76
f 95//94 68//66 69//80
f 68//66 96//95 81//81
f 81//81 97//96 79//67
f 46//44 83//83 84//84
f 44//57 98//97 83//83
f 45//46 82//82 44//57
f 70//68 84//84 99//98
f 101//99 57//69 70//68
f 69//80 57//69 101//99
f 86//100 71//70 104//101
f 85//85 104//101 71//70
f 72//71 71//70 86//100
f 72//71 73//72 38//39
f 73//72 72//71 102//102
f 82//82 73//72 112//103
f 103//104 104//101 85//85
f 85//85 87//86 103//104
f 105//105 74//73 60//60
f 105//105 87//86 74//73
f 105//105 60//60 59//61
f 75//74 61//62 65//64
f 88//91 62//50 41//41
f 62//50 88//91 90//87
f 91//89 63//63 89//88
f 88//91 92//90 107//106
f 97//96 93//92 79//67
f 80//79 65//64 54//52
f 94//93 108//107 66//65
f 109//108 108//107 94//93
f 66//65 108//107 80//79
f 110//109 94//93 67//54
f 91//89 110//109 67//54
f 69//80 100//110 95//94
f 81//81 111//111 97//96
f 112//103 44//57 82//82
f 44//57 112//103 98//97
f 114//112 70//68 99//98
f 100//110 69//80 101//99
f 101//99 115//113 116//114
f 101//99 70//68 114//112
f 104//101 117//115 86//100
f 102//102 72//71 118//116
f 119//117 72//71 86//100
f 102//102 120//118 73//72
f 87//86 121//119 103//104
f 103//104 121//119 136//120
f 105//105 121//119 87//86
f 59//61 122//121 105//105
f 122//121 59//61 76//75
f 123//122 76//75 75//74
f 65//64 124//123 75//74
f 106//124 88//91 107//106
f 107//106 125//125 106//124
f 126//126 90//87 88//91
f 90//87 126//126 89//88
f 93//92 92//90 78//78
f 127//127 107//106 92//90
f 124//123 65//64 80//79
f 94//93 110//109 109//108
f 108//107 109//108 80//79
f 80//79 129//128 124//123
f 109//108 129//128 80//79
f 83//83 131//129 84//84
f 98//97 131//129 83//83
f 113//130 99//98 84//84
f 113//130 132//131 99//98
f 114//112 99//98 132//131
f 100//110 101//99 116//114
f 95//94 100//110 116//114
f 117//115 133//132 119//117
f 134//133 133//132 117//115
f 72//71 135//134 118//116
f 72//71 119//117 135//134
f 86//100 117//115 119//117
f 73//72 120//118 112//103
f 117//115 104//101 103//104
f 137//135 121//119 105//105
f 137//135 105//105 122//121
f 124//123 123//122 75//74
f 124//123 138//136 123//122
f 123//122 122//121 76//75
f 140//137 125//125 107//106
f 106//124 126//126 88//91
f 126//126 106//124 125//125
f 89//88 126//126 139//138
f 91//89 89//88 139//138
f 92//90 93//92 127//127
f 140//137 107//106 127//127
f 93//92 97//96 130//139
f 124//123 129//128 138//136
f 129//128 109//108 128//140
f 109//108 110//109 128//140
f 110//109 91//89 163//141
f 91//89 139//138 163//141
f 95//94 96//95 68//66
f 95//94 141//142 96//95
f 81//81 96//95 111//111
f 142//143 97//96 111//111
f 97//96 142//143 143//144
f 130//139 97//96 143//144
f 131//129 98//97 144//145
f 84//84 145//146 113//130
f 145//146 84//84 146//147
f 84//84 131//129 146//147
f 131//129 148//148 147//149
f 131//129 147//149 146//147
f 149//150 112//103 150//151
f 149//150 98//97 112//103
f 149//150 144//145 98//97
f 151//152 114//112 132//131
f 115//113 114//112 151//152
f 114//112 115//113 101//99
f 152//153 95//94 116//114
f 153//154 116//114 115//113
f 115//113 154//155 153//154
f 119//117 175//156 135//134
f 133//132 155//157 119//117
f 121//119 156//158 136//120
f 103//104 134//133 117//115
f 137//135 156//158 121//119
f 157//159 156//158 137//135
f 123//122 138//136 158//160
f 158//160 122//121 123//122
f 125//125 140//137 159//161
f 127//127 93//92 130//139
f 128//140 160//162 129//128
f 161//163 129//128 160//162
f 128//140 110//109 162//164
f 110//109 163//141 162//164
f 129//128 161//163 138//136
f 152//153 141//142 95//94
f 164//165 96//95 141//142
f 111//111 96//95 164//165
f 142//143 186//166 143//144
f 142//143 111//111 164//165
f 165//167 130//139 143//144
f 165//167 143//144 166//168
f 144//145 148//148 131//129
f 167//169 113//130 145//146
f 148//148 168//170 147//149
f 148//148 169//171 168//170
f 170//172 169//171 148//148
f 150//151 112//103 120//118
f 149//150 170//172 144//145
f 144//145 170//172 148//148
f 171//173 113//130 167//169
f 113//130 171//173 132//131
f 115//113 151//152 154//155
f 152//153 116//114 172//174
f 153//154 172//174 116//114
f 173//175 153//154 154//155
f 154//155 151//152 173//175
f 174//176 133//132 134//133
f 136//120 134//133 103//104
f 102//102 118//116 195//177
f 195//177 120//118 102//102
f 119//117 155//157 175//156
f 176//178 194//179 175//156
f 176//178 175//156 155//157
f 177//180 150//151 120//118
f 174//176 136//120 178//181
f 156//158 197//182 136//120
f 197//182 178//181 136//120
f 137//135 122//121 179//183
f 179//183 157//159 137//135
f 138//136 161//163 158//160
f 180//184 125//125 159//161
f 180//184 159//161 181//185
f 125//125 180//184 139//138
f 125//125 139//138 126//126
f 182//186 160//162 128//140
f 182//186 128//140 162//164
f 161//163 160//162 183//187
f 141//142 152//153 184//188
f 141//142 184//188 185//189
f 164//165 141//142 176//178
f 176//178 141//142 185//189
f 142//143 174//176 186//166
f 155//157 133//132 142//143
f 133//132 174//176 142//143
f 142//143 164//165 155//157
f 186//166 166//168 143//144
f 168//170 169//171 187//190
f 150//151 189//191 188//192
f 191//193 170//172 190//194
f 170//172 149//150 190//194
f 192//195 171//173 167//169
f 172//174 153//154 193//196
f 153//154 173//175 211//197
f 134//133 136//120 174//176
f 118//116 135//134 195//177
f 175//156 195//177 135//134
f 155//157 164//165 176//178
f 177//180 120//118 196//198
f 120//118 195//177 196//198
f 178//181 186//166 174//176
f 122//121 198//199 179//183
f 122//121 199//200 198//199
f 122//121 158//160 199//200
f 180//184 181//185 201//201
f 162//164 139//138 180//184
f 139//138 162//164 163//141
f 140//137 127//127 200//202
f 159//161 140//137 200//202
f 182//186 202//203 160//162
f 202//203 203//204 160//162
f 160//162 203//204 183//187
f 180//184 201//201 182//186
f 180//184 182//186 162//164
f 183//187 204//205 161//163
f 145//146 205//206 167//169
f 205//206 206//207 167//169
f 147//149 168//170 232//208
f 147//149 207//209 146//147
f 188//192 190//194 150//151
f 149//150 150//151 190//194
f 177//180 189//191 150//151
f 192//195 208//210 171//173
f 192//195 167//169 206//207
f 151//152 132//131 208//210
f 171//173 208//210 132//131
f 172//174 193//196 209//211
f 210//212 152//153 209//211
f 152//153 172//174 209//211
f 193//196 153//154 211//197
f 151//152 208//210 173//175
f 175//156 194//179 212//213
f 175//156 213//214 195//177
f 185//189 194//179 176//178
f 179//183 197//182 156//158
f 179//183 156//158 157//159
f 239//215 214//216 179//183
f 198//199 239//215 179//183
f 161//163 204//205 158//160
f 159//161 200//202 215//217
f 216//218 159//161 215//217
f 181//185 159//161 216//218
f 165//167 127//127 130//139
f 127//127 165//167 200//202
f 183//187 203//204 204//205
f 185//189 184//188 194//179
f 166//168 217//219 165//167
f 186//166 178//181 166//168
f 166//168 178//181 217//219
f 205//206 145//146 146//147
f 169//171 170//172 219//220
f 187//190 169//171 219//220
f 187//190 220//221 168//170
f 219//220 170//172 191//193
f 205//206 146//147 207//209
f 221//222 188//192 189//191
f 234//223 188//192 221//222
f 188//192 234//223 233//224
f 177//180 196//198 189//191
f 190//194 188//192 191//193
f 192//195 206//207 218//225
f 223//226 152//153 210//212
f 223//226 184//188 152//153
f 210//212 209//211 224//227
f 209//211 193//196 225//228
f 211//197 225//228 193//196
f 194//179 226//229 212//213
f 212//213 213//214 175//156
f 196//198 195//177 252//230
f 195//177 213//214 252//230
f 197//182 179//183 178//181
f 239//215 198//199 227//231
f 198//199 199//200 227//231
f 204//205 199//200 158//160
f 182//186 201//201 202//203
f 202//203 201//201 229//232
f 203//204 202//203 228//233
f 199//200 204//205 242//234
f 204//205 203//204 230//235
f 226//229 194//179 184//188
f 226//229 184//188 223//226
f 217//219 178//181 231//236
f 214//216 231//236 178//181
f 231//236 215//217 217//219
f 255//237 206//207 205//206
f 207//209 147//149 232//208
f 233//224 187//190 219//220
f 220//221 232//208 168//170
f 234//223 235//238 233//224
f 196//198 247//239 189//191
f 189//191 247//239 221//222
f 247//239 196//198 236//240
f 208//210 192//195 222//241
f 222//241 238//242 208//210
f 192//195 218//225 222//241
f 210//212 237//243 223//226
f 225//228 211//197 238//242
f 211//197 173//175 238//242
f 208//210 238//242 173//175
f 250//244 213//214 212//213
f 252//230 236//240 196//198
f 179//183 214//216 178//181
f 231//236 214//216 239//215
f 239//215 227//231 240//245
f 215//217 200//202 217//219
f 217//219 200//202 165//167
f 231//236 216//218 215//217
f 229//232 228//233 202//203
f 201//201 181//185 229//232
f 230//235 203//204 241//246
f 226//229 223//226 243//247
f 205//206 207//209 255//237
f 218//225 206//207 255//237
f 244//248 207//209 232//208
f 187//190 233//224 245//249
f 219//220 191//193 233//224
f 220//221 187//190 245//249
f 233//224 235//238 257//250
f 246//251 234//223 221//222
f 235//238 234//223 246//251
f 188//192 233//224 191//193
f 222//241 248//252 238//242
f 248//252 222//241 249//253
f 222//241 218//225 249//253
f 224//227 209//211 225//228
f 210//212 224//227 237//243
f 212//213 264//254 250//244
f 264//254 212//213 226//229
f 251//255 213//214 250//244
f 252//230 213//214 251//255
f 227//231 199//200 242//234
f 231//236 253//256 216//218
f 228//233 241//246 203//204
f 242//234 204//205 230//235
f 243//247 223//226 254//257
f 239//215 253//256 231//236
f 255//237 207//209 244//248
f 232//208 220//221 244//248
f 257//250 245//249 233//224
f 236//240 259//258 260//259
f 252//230 259//258 236//240
f 260//259 247//239 236//240
f 260//259 221//222 247//239
f 218//225 262//260 249//253
f 225//228 263//261 224//227
f 237//243 224//227 263//261
f 237//243 254//257 223//226
f 251//255 265//262 252//230
f 266//263 239//215 240//245
f 230//235 240//245 227//231
f 230//235 227//231 242//234
f 239//215 266//263 253//256
f 181//185 216//218 229//232
f 266//263 228//233 229//232
f 241//246 228//233 266//263
f 266//263 240//245 230//235
f 241//246 266//263 230//235
f 218//225 255//237 261//264
f 244//248 267//265 255//237
f 267//265 244//248 256//266
f 220//221 268//267 244//248
f 256//266 244//248 268//267
f 245//249 269//268 220//221
f 270//269 246//251 258//270
f 260//259 246//251 221//222
f 246//251 260//259 258//270
f 270//269 257//250 235//238
f 235//238 246//251 270//269
f 259//258 265//262 260//259
f 271//271 260//259 265//262
f 252//230 265//262 259//258
f 262//260 218//225 261//264
f 225//228 272//272 263//261
f 225//228 238//242 248//252
f 273//273 250//244 264//254
f 274//274 250//244 273//273
f 274//274 251//255 250//244
f 229//232 216//218 253//256
f 229//232 253//256 266//263
f 243//247 264//254 226//229
f 264//254 243//247 275//275
f 275//275 243//247 276//276
f 243//247 254//257 277//277
f 243//247 277//277 276//276
f 261//264 255//237 267//265
f 256//266 278//278 267//265
f 268//267 220//221 269//268
f 269//268 257//250 270//269
f 258//270 280//279 270//269
f 280//279 269//268 270//269
f 271//271 265//262 281//280
f 260//259 271//271 258//270
f 254//257 237//243 282//281
f 225//228 248//252 249//253
f 249//253 272//272 225//228
f 282//281 237//243 283//282
f 237//243 263//261 283//282
f 265//262 251//255 274//274
f 274//274 292//283 265//262
f 273//273 264//254 275//275
f 277//277 254//257 282//281
f 268//267 278//278 256//266
f 278//278 268//267 284//284
f 269//268 279//285 268//267
f 279//285 284//284 268//267
f 269//268 245//249 257//250
f 285//286 269//268 280//279
f 279//285 269//268 285//286
f 286//287 280//279 258//270
f 258//270 271//271 286//287
f 263//261 272//272 283//282
f 292//283 274//274 273//273
f 273//273 275//275 288//288
f 277//277 297//289 276//276
f 277//277 282//281 289//290
f 289//290 290//291 277//277
f 285//286 280//279 291//292
f 292//283 281//280 265//262
f 281//280 293//293 271//271
f 286//287 271//271 293//293
f 281//280 292//283 293//293
f 267//265 287//294 261//264
f 278//278 287//294 267//265
f 287//294 278//278 294//295
f 287//294 262//260 261//264
f 282//281 283//282 289//290
f 272//272 249//253 295//296
f 249//253 262//260 295//296
f 292//283 273//273 288//288
f 288//288 275//275 296//297
f 276//276 290//291 275//275
f 276//276 297//289 290//291
f 297//289 277//277 290//291
f 284//284 294//295 278//278
f 280//279 286//287 291//292
f 291//292 298//298 279//285
f 291//292 279//285 285//286
f 288//288 293//293 292//283
f 291//292 293//293 299//299
f 295//296 262//260 287//294
f 283//282 272//272 295//296
f 296//297 275//275 290//291
f 290//291 289//290 300//300
f 283//282 300//300 289//290
f 301//301 290//291 300//300
f 284//284 298//298 301//301
f 301//301 294//295 284//284
f 284//284 279//285 298//298
f 293//293 291//292 286//287
f 296//297 293//293 288//288
f 300//300 295//296 287//294
f 283//282 295//296 300//300
f 301//301 300//300 294//295
f 301//301 291//292 299//299
f 298//298 291//292 301//301
f 296//297 301//301 299//299
f 296//297 299//299 293//293
f 294//295 300//300 287//294
f 290//291 301//301 296//297
