# Blender 4.0.2
# www.blender.org
mtllib 4distph_l.mtl
o 4distph_l.002
v -0.001693 -0.018500 -0.002695
v -0.002115 -0.018277 -0.002627
v -0.001156 -0.018611 -0.002684
v -0.001612 -0.018437 -0.002328
v -0.001406 -0.018386 -0.003058
v -0.000841 -0.018550 -0.002969
v -0.002256 -0.018086 -0.002901
v -0.000954 -0.018232 -0.003209
v -0.002224 -0.017810 -0.003093
v -0.000905 -0.018344 -0.002165
v -0.001292 -0.018263 -0.001884
v -0.002293 -0.017778 -0.001585
v -0.002613 -0.017792 -0.002501
v -0.000796 -0.017588 -0.003328
v -0.002036 -0.017387 -0.003222
v -0.000388 -0.018556 -0.002842
v -0.000324 -0.018545 -0.002459
v -0.002042 -0.017680 -0.001257
v -0.001380 -0.016123 -0.003253
v -0.002914 -0.017386 -0.002730
v -0.000463 -0.018070 -0.001657
v -0.002985 -0.017517 -0.002353
v -0.002333 -0.015325 -0.002875
v -0.003057 -0.016314 -0.002875
v -0.003029 -0.015911 -0.002865
v -0.000210 -0.018157 -0.003130
v 0.000261 -0.018173 -0.002627
v -0.001132 -0.016491 -0.000533
v -0.002714 -0.016988 -0.001078
v -0.003028 -0.017157 -0.001907
v 0.000599 -0.017660 -0.001727
v -0.000194 -0.015692 -0.003120
v -0.003020 -0.015320 -0.002645
v -0.001424 -0.012552 -0.002809
v -0.002640 -0.014105 -0.002330
v 0.000374 -0.017379 -0.003198
v 0.000531 -0.017765 -0.002943
v -0.003305 -0.016419 -0.002584
v -0.003209 -0.017084 -0.002265
v -0.000254 -0.016891 -0.000897
v -0.002227 -0.016967 -0.000847
v -0.003404 -0.015996 -0.001514
v -0.003369 -0.016369 -0.001929
v 0.000825 -0.016208 -0.003192
v -0.000948 -0.013657 -0.003061
v 0.000451 -0.014574 -0.002738
v 0.000230 -0.015473 -0.002986
v -0.002932 -0.014279 -0.002048
v -0.001934 -0.011254 -0.002270
v -0.000079 -0.016257 -0.000644
v -0.002524 -0.015903 -0.000494
v -0.003009 -0.014896 -0.000137
v -0.003030 -0.015917 -0.000749
v -0.003467 -0.015333 -0.000862
v 0.000825 -0.017205 -0.001593
v 0.001004 -0.017428 -0.002611
v 0.000836 -0.017215 -0.003060
v 0.000812 -0.016700 -0.003211
v 0.000359 -0.009612 -0.002395
v 0.000928 -0.011654 -0.002294
v -0.003345 -0.015241 -0.002273
v -0.003397 -0.015810 -0.002375
v -0.000770 -0.009912 -0.002444
v -0.002227 -0.010688 -0.001849
v -0.002823 -0.013022 -0.001382
v -0.003168 -0.015361 -0.000378
v 0.000494 -0.014947 -0.000624
v -0.002236 -0.013967 -0.000035
v -0.003492 -0.015276 -0.001289
v -0.003385 -0.014848 -0.001503
v 0.001366 -0.016517 -0.002060
v 0.001150 -0.016115 -0.002978
v 0.001197 -0.015078 -0.002613
v 0.001150 -0.013773 -0.002318
v -0.001210 -0.008233 -0.001933
v -0.002338 -0.009652 -0.001370
v -0.002541 -0.011516 -0.001211
v 0.001447 -0.015492 -0.001388
v -0.000010 -0.013855 -0.000444
v -0.002762 -0.013414 -0.000194
v 0.001690 -0.015412 -0.001800
v 0.001138 -0.016738 -0.002964
v -0.000184 -0.008696 -0.002274
v 0.000338 -0.007983 -0.002194
v 0.000828 -0.009392 -0.002195
v 0.001603 -0.015261 -0.002134
v 0.001430 -0.013330 -0.001825
v 0.001251 -0.011832 -0.001864
v -0.001929 -0.007533 -0.001430
v -0.002730 -0.012686 -0.000984
v 0.001579 -0.014470 -0.001209
v 0.000366 -0.012725 -0.000628
v -0.001330 -0.012909 -0.000225
v 0.001119 -0.013498 -0.000767
v -0.003129 -0.014267 -0.000191
v -0.003484 -0.014659 -0.000533
v -0.003437 -0.014205 -0.000682
v 0.001286 -0.009445 -0.001832
v 0.001769 -0.014281 -0.001614
v 0.001289 -0.011816 -0.001555
v 0.001308 -0.010413 -0.001518
v -0.002519 -0.007942 -0.000832
v -0.001313 -0.006059 -0.001780
v -0.002455 -0.011861 -0.000825
v -0.003130 -0.013397 -0.000682
v -0.002579 -0.012754 -0.000562
v 0.001787 -0.014481 -0.001399
v -0.000807 -0.011649 -0.000010
v -0.001611 -0.012016 -0.000165
v -0.002059 -0.012655 -0.000334
v -0.003050 -0.013329 -0.000425
v 0.001309 -0.007441 -0.001882
v 0.001851 -0.007899 -0.001363
v 0.001374 -0.013088 -0.001230
v 0.001170 -0.011457 -0.001314
v -0.002751 -0.006653 -0.000560
v -0.002410 -0.009865 -0.001084
v 0.000169 -0.005910 -0.002206
v -0.001367 -0.004762 -0.001873
v -0.002296 -0.010801 -0.000213
v -0.002103 -0.011706 -0.000324
v 0.000154 -0.011374 -0.000214
v -0.002167 -0.010678 0.000043
v 0.001062 -0.012493 -0.001003
v 0.000951 -0.006335 -0.002124
v 0.001489 -0.009351 -0.001150
v -0.002418 -0.005552 -0.001078
v -0.002828 -0.007373 -0.000157
v -0.000069 -0.003279 -0.002720
v 0.000136 -0.004905 -0.002358
v -0.000662 -0.008321 0.001108
v -0.002023 -0.010297 0.000251
v 0.000262 -0.009651 0.000467
v 0.000645 -0.011926 -0.000702
v 0.002201 -0.006837 -0.001489
v 0.001144 -0.009894 -0.000529
v 0.002259 -0.007464 -0.001067
v 0.000868 -0.010667 -0.000532
v -0.002533 -0.008611 -0.000385
v -0.003287 -0.005638 -0.000354
v -0.003356 -0.006344 0.000269
v -0.002220 -0.003732 -0.001829
v 0.000820 -0.004736 -0.002538
v -0.001222 -0.003367 -0.002431
v 0.000757 -0.003602 -0.002902
v 0.000039 -0.008703 0.000982
v -0.001716 -0.008856 0.000769
v 0.001562 -0.005269 -0.002226
v 0.002111 -0.007982 -0.000640
v -0.002395 -0.008568 0.000368
v -0.003234 -0.004295 -0.001001
v -0.002945 -0.003964 -0.001301
v -0.003975 -0.005855 0.000547
v -0.003766 -0.004764 -0.000441
v -0.002956 -0.007165 0.000621
v -0.003326 -0.006646 0.000751
v -0.002137 -0.003206 -0.001919
v -0.001125 -0.002764 -0.002498
v 0.001487 -0.003749 -0.002844
v -0.000367 -0.002618 -0.002618
v 0.000628 -0.009738 0.000224
v -0.001349 -0.007489 0.001183
v 0.000445 -0.007986 0.001180
v -0.002164 -0.008654 0.000613
v 0.003245 -0.006730 -0.000981
v 0.002569 -0.004733 -0.002233
v 0.002522 -0.006498 -0.001418
v 0.002830 -0.005061 -0.002056
v 0.002141 -0.004150 -0.002549
v 0.001543 -0.008516 0.000253
v 0.002635 -0.007293 0.000181
v -0.003677 -0.006189 0.000690
v -0.002656 -0.003318 -0.001497
v -0.001681 -0.002582 -0.002160
v -0.002233 -0.002747 -0.001669
v 0.000908 -0.002965 -0.002840
v -0.000392 -0.002129 -0.002459
v -0.002230 -0.007987 0.000898
v -0.000742 -0.005871 0.001497
v -0.000435 -0.006960 0.001306
v 0.003545 -0.007036 -0.000578
v 0.002657 -0.007401 -0.000581
v 0.003021 -0.005661 -0.001762
v 0.002537 -0.003769 -0.002362
v 0.002685 -0.007416 -0.000254
v -0.003180 -0.003688 -0.001072
v -0.004225 -0.005107 0.000744
v -0.003957 -0.004537 -0.000268
v -0.003538 -0.003752 -0.000568
v -0.004244 -0.004634 0.000678
v -0.002955 -0.007011 0.000968
v -0.003978 -0.005665 0.001056
v -0.001862 -0.002154 -0.001612
v -0.002152 -0.002309 -0.001301
v 0.001570 -0.003026 -0.002745
v -0.000117 -0.001856 -0.002296
v -0.000865 -0.001872 -0.002193
v 0.000893 -0.002414 -0.002566
v -0.001966 -0.006106 0.001647
v 0.000227 -0.006441 0.001411
v -0.000098 -0.005963 0.001535
v 0.001925 -0.007603 0.000700
v 0.001274 -0.006772 0.001197
v 0.003663 -0.006288 -0.001151
v 0.003565 -0.005801 -0.001430
v 0.003116 -0.004379 -0.001936
v 0.002799 -0.006536 0.000789
v 0.003324 -0.007030 -0.000018
v -0.002959 -0.002942 -0.000788
v -0.004136 -0.004859 0.001175
v -0.003989 -0.004116 -0.000017
v -0.003018 -0.002837 -0.000417
v -0.004062 -0.004082 0.000613
v -0.003439 -0.005910 0.001277
v -0.001009 -0.001775 -0.001925
v -0.001203 -0.001806 -0.001658
v -0.002584 -0.002594 -0.000927
v -0.002219 -0.002377 -0.000995
v 0.001358 -0.002308 -0.002308
v -0.000051 -0.001677 -0.002094
v -0.002400 -0.005173 0.001988
v -0.002692 -0.006581 0.001358
v -0.001975 -0.004208 0.001741
v 0.000088 -0.005018 0.001594
v 0.001964 -0.007005 0.000997
v 0.001773 -0.005980 0.001432
v 0.003540 -0.007098 -0.000365
v 0.003821 -0.006696 -0.000478
v 0.003880 -0.005879 -0.001071
v 0.003590 -0.005331 -0.001436
v 0.003215 -0.003881 -0.001614
v 0.002828 -0.003540 -0.002093
v 0.002363 -0.003090 -0.002313
v 0.002691 -0.006057 0.001004
v -0.003101 -0.002877 0.000001
v -0.002905 -0.005815 0.001735
v -0.003812 -0.005188 0.001471
v -0.001494 -0.001973 -0.001356
v -0.001099 -0.001828 -0.001442
v 0.001871 -0.002616 -0.002131
v 0.000520 -0.001944 -0.001909
v -0.000406 -0.001645 -0.001802
v 0.000065 -0.001662 -0.001841
v -0.001013 -0.003436 0.001616
v -0.001560 -0.003318 0.001546
v 0.000020 -0.003121 0.001555
v 0.001562 -0.004017 0.001274
v 0.003689 -0.006756 -0.000082
v 0.003909 -0.006317 -0.000251
v 0.003998 -0.005702 -0.000481
v 0.003911 -0.005312 -0.000932
v 0.002745 -0.003294 -0.001843
v 0.002391 -0.002949 -0.002115
v 0.003574 -0.006217 0.000330
v 0.003335 -0.005506 0.000593
v -0.002560 -0.002628 -0.000531
v -0.002816 -0.002734 -0.000053
v -0.003859 -0.003993 0.001151
v -0.003327 -0.003300 0.000877
v -0.003131 -0.005213 0.001842
v -0.003758 -0.004480 0.001500
v -0.001551 -0.002403 -0.000879
v 0.001410 -0.002350 -0.001965
v -0.003023 -0.003743 0.001496
v -0.000947 -0.002919 0.001477
v 0.001233 -0.003263 0.001271
v 0.002095 -0.004286 0.001053
v 0.002253 -0.005474 0.001260
v 0.003884 -0.004915 -0.000586
v 0.003314 -0.004023 -0.001343
v 0.002987 -0.003586 -0.001498
v 0.002048 -0.002817 -0.001902
v 0.003795 -0.005563 0.000135
v -0.003058 -0.003251 0.001020
v -0.003405 -0.003639 0.001309
v -0.003205 -0.004592 0.001816
v -0.000235 -0.002746 -0.000778
v -0.000642 -0.003005 -0.000294
v -0.001912 -0.003221 0.001371
v -0.001565 -0.003014 0.001314
v 0.001858 -0.003697 0.001034
v 0.003430 -0.004178 -0.000734
v 0.003089 -0.003874 -0.001041
v 0.002346 -0.003653 -0.001229
v 0.002734 -0.004493 0.000521
v 0.003503 -0.004563 -0.000011
v -0.002352 -0.003013 0.000891
v -0.001628 -0.003032 0.000387
v -0.000251 -0.003118 0.000088
v -0.000905 -0.002796 0.001205
v -0.000016 -0.002734 0.001294
v 0.001140 -0.003046 0.000991
v 0.001600 -0.003350 0.000961
v 0.002494 -0.003904 -0.000570
v 0.000748 -0.003290 -0.000437
v 0.003149 -0.004108 -0.000195
v 0.000037 -0.002709 0.001058
v 0.002124 -0.003779 0.000604
v 0.000335 -0.003144 0.000162
v 0.002028 -0.003728 0.000412
v 0.002599 -0.004084 0.000243
vn -0.2384 -0.9033 0.3567
vn -0.3470 -0.9271 -0.1414
vn -0.0942 -0.9952 0.0277
vn -0.2213 -0.6553 -0.7223
vn 0.0307 -0.8349 -0.5495
vn -0.5714 -0.6474 -0.5044
vn -0.5594 -0.8289 0.0078
vn -0.0119 -0.3874 -0.9218
vn -0.3960 -0.3150 -0.8625
vn -0.0508 -0.8599 0.5080
vn 0.0103 -0.8966 0.4427
vn -0.5032 -0.7504 0.4286
vn -0.6731 -0.7395 -0.0079
vn 0.0141 -0.0850 -0.9963
vn -0.2255 -0.0776 -0.9711
vn 0.2989 -0.8806 -0.3676
vn 0.2722 -0.9290 0.2509
vn -0.2168 -0.6806 0.6999
vn -0.0854 0.0895 -0.9923
vn 0.3033 -0.4689 -0.8295
vn -0.7277 -0.3927 -0.5624
vn 0.1605 -0.7297 0.6647
vn -0.7695 -0.6387 0.0055
vn -0.5513 -0.0135 -0.8342
vn -0.5146 0.1673 -0.8410
vn -0.2973 0.2226 -0.9285
vn 0.6234 -0.7756 -0.0993
vn 0.0657 -0.3477 0.9353
vn -0.6041 -0.4978 0.6223
vn -0.7864 -0.4916 0.3741
vn 0.5778 -0.6327 0.5155
vn 0.1097 0.1400 -0.9841
vn -0.3299 0.1658 -0.9293
vn -0.6723 0.2791 -0.6857
vn -0.5378 0.3231 -0.7787
vn 0.2581 -0.2219 -0.9403
vn 0.5792 -0.5633 -0.5892
vn -0.8995 -0.1184 -0.4207
vn -0.9286 -0.3710 0.0059
vn 0.2422 -0.4864 0.8395
vn -0.2148 -0.4543 0.8646
vn -0.9476 -0.2684 0.1733
vn -0.9679 -0.2343 0.0914
vn 0.2915 0.1502 -0.9447
vn -0.0247 0.1130 -0.9933
vn 0.1823 0.2906 -0.9393
vn 0.3607 0.1339 -0.9230
vn -0.7990 0.3621 -0.4801
vn -0.5404 0.1994 -0.8174
vn 0.3080 -0.2558 0.9163
vn -0.2416 -0.4135 0.8779
vn -0.3275 -0.1640 0.9305
vn -0.5662 -0.4540 0.6880
vn -0.9243 -0.2540 0.2849
vn -0.9339 0.0630 -0.3520
vn 0.8368 -0.5312 -0.1329
vn 0.5899 -0.3651 -0.7202
vn 0.2981 -0.0516 -0.9532
vn 0.1982 0.1109 -0.9739
vn 0.6188 0.0543 -0.7836
vn -0.8647 0.2747 -0.4206
vn -0.1802 0.1827 -0.9665
vn -0.7605 0.1774 -0.6246
vn -0.9270 0.2688 -0.2615
vn 0.6758 -0.4449 0.5877
vn -0.5580 -0.3987 0.7278
vn 0.3656 -0.1440 0.9196
vn -0.0039 0.0274 0.9996
vn -0.9982 0.0201 -0.0564
vn -0.9423 0.2490 -0.2238
vn 0.9304 -0.3423 0.1309
vn 0.8189 -0.1864 -0.5428
vn 0.7204 0.0875 -0.6880
vn 0.5702 0.2249 -0.7901
vn 0.6431 0.1270 -0.7552
vn -0.3843 0.1249 -0.9147
vn -0.9134 0.0892 -0.3972
vn -0.9505 0.1108 0.2904
vn 0.7074 -0.2890 0.6450
vn 0.2246 0.0005 0.9744
vn 0.0624 -0.0179 0.9979
vn -0.3289 0.3038 0.8942
vn -0.5134 0.1098 0.8511
vn -0.1012 0.1513 -0.9833
vn 0.0913 0.0772 -0.9928
vn 0.4723 0.0604 -0.8794
vn 0.8975 0.0142 -0.4408
vn 0.9740 -0.2164 0.0664
vn 0.9282 0.1786 -0.3263
vn 0.9264 0.0525 -0.3728
vn -0.6330 0.0542 -0.7722
vn -0.9289 0.3252 0.1770
vn 0.6307 -0.0824 0.7717
vn 0.3544 -0.0183 0.9349
vn 0.5642 0.0793 0.8218
vn -0.9252 0.0054 0.3794
vn -0.9646 0.2510 0.0812
vn 0.7555 -0.0541 -0.6529
vn 0.9619 0.1751 -0.2098
vn 0.9929 0.0748 0.0930
vn 0.9922 -0.0870 -0.0898
vn -0.8789 -0.0293 -0.4761
vn -0.4079 -0.0211 -0.9128
vn -0.8993 0.4373 0.0114
vn -0.6342 0.4655 0.6174
vn -0.8665 0.0923 0.4905
vn 0.9250 -0.0236 0.3792
vn 0.0850 -0.2661 0.9602
vn -0.2204 -0.1388 0.9655
vn -0.3171 0.1681 0.9334
vn -0.7338 0.4810 0.4799
vn 0.4638 -0.0812 -0.8822
vn 0.7163 -0.2121 -0.6648
vn 0.9159 0.1704 0.3635
vn 0.8689 -0.0527 0.4922
vn -0.7910 -0.1489 -0.5934
vn -0.9982 0.0128 -0.0582
vn -0.1585 -0.1165 -0.9805
vn -0.3802 -0.2213 -0.8981
vn -0.9197 -0.1217 0.3733
vn -0.6362 -0.1978 0.7457
vn 0.4356 -0.2852 0.8537
vn -0.5972 -0.2774 0.7526
vn 0.6387 0.1181 0.7604
vn 0.2274 -0.1467 -0.9627
vn 0.9475 -0.2956 0.1223
vn -0.5801 -0.1820 -0.7939
vn -0.9424 -0.2564 -0.2146
vn -0.2332 -0.0909 -0.9682
vn -0.2675 -0.2036 -0.9418
vn -0.0638 -0.2578 0.9641
vn -0.3595 -0.2895 0.8871
vn 0.3171 -0.3737 0.8717
vn 0.6502 -0.0973 0.7535
vn 0.4664 -0.3181 -0.8254
vn 0.8324 -0.3277 0.4469
vn 0.7240 -0.2885 0.6266
vn -0.9872 -0.1547 -0.0392
vn -0.6689 -0.3416 -0.6603
vn -0.7736 -0.4751 -0.4194
vn -0.5131 -0.1668 -0.8420
vn -0.0146 -0.2934 -0.9559
vn -0.3508 -0.1726 -0.9204
vn -0.0932 -0.1041 -0.9902
vn -0.8786 -0.2678 0.3953
vn 0.0757 -0.4144 0.9070
vn -0.2640 -0.2824 0.9222
vn 0.2140 -0.3136 -0.9251
vn 0.6962 -0.4775 -0.5360
vn 0.8421 -0.5383 -0.0337
vn -0.6518 -0.1483 -0.7438
vn -0.6061 -0.1106 -0.7876
vn -0.8461 -0.4875 -0.2154
vn -0.7360 -0.3326 -0.5896
vn -0.8748 -0.4771 0.0843
vn -0.8086 -0.5821 0.0857
vn -0.5923 0.0746 -0.8023
vn -0.3508 0.1495 -0.9244
vn 0.2104 -0.1123 -0.9712
vn -0.1525 0.2073 -0.9663
vn 0.5659 -0.3871 0.7279
vn -0.0850 -0.2482 0.9650
vn 0.1898 -0.2690 0.9443
vn -0.5945 -0.3151 0.7398
vn 0.3517 -0.5789 -0.7357
vn 0.3546 -0.2229 -0.9081
vn 0.4633 -0.3961 -0.7928
vn 0.4058 -0.2402 -0.8819
vn 0.3474 -0.1856 -0.9192
vn 0.7061 -0.5291 0.4706
vn 0.5727 -0.6911 0.4409
vn -0.8568 -0.0475 -0.5135
vn -0.7318 -0.5592 0.3896
vn -0.6919 0.2180 -0.6883
vn -0.5497 0.3242 -0.7699
vn -0.7034 0.3938 -0.5918
vn 0.0424 0.2627 -0.9639
vn -0.1276 0.4426 -0.8876
vn -0.3162 -0.3521 0.8809
vn 0.0211 -0.1887 0.9818
vn 0.0108 -0.1636 0.9865
vn 0.5707 -0.7655 -0.2971
vn 0.5545 -0.7060 -0.4406
vn 0.3249 -0.3539 -0.8770
vn 0.5831 -0.4553 -0.6728
vn 0.5308 0.0558 -0.8457
vn 0.5146 -0.8444 0.1494
vn -0.7600 0.1950 -0.6200
vn -0.9835 -0.1802 -0.0130
vn -0.8149 0.3484 -0.4632
vn -0.9916 0.1288 0.0116
vn -0.6615 -0.5026 0.5566
vn -0.7655 -0.4606 0.4493
vn -0.5872 0.7368 -0.3353
vn -0.6254 0.7586 -0.1827
vn 0.1616 0.5664 -0.8081
vn 0.3318 0.3254 -0.8854
vn -0.3159 0.6744 -0.6674
vn 0.0229 0.6542 -0.7559
vn 0.0459 -0.3246 0.9448
vn 0.0606 -0.1776 0.9822
vn 0.0628 -0.1410 0.9880
vn 0.1734 -0.2949 0.9396
vn 0.4929 -0.4699 0.7323
vn 0.5821 -0.2019 -0.7877
vn 0.7098 0.0389 -0.7033
vn 0.5721 0.4470 -0.6877
vn 0.4722 -0.7005 0.5351
vn 0.5056 -0.3926 0.7683
vn -0.7277 0.5854 -0.3574
vn -0.8702 0.0222 0.4922
vn -0.8891 0.3542 -0.2898
vn -0.8822 0.4664 0.0648
vn -0.5642 -0.5106 0.6488
vn -0.3593 0.8710 -0.3351
vn -0.3445 0.9388 -0.0029
vn -0.6427 0.7600 -0.0967
vn -0.3119 0.9052 0.2886
vn 0.4250 0.8099 -0.4043
vn 0.1256 0.9053 -0.4057
vn -0.2612 -0.4375 0.8605
vn 0.0425 -0.0312 0.9986
vn 0.0010 0.2223 0.9750
vn 0.2801 -0.3996 0.8728
vn 0.0564 -0.0199 0.9982
vn 0.2282 -0.1351 0.9642
vn 0.8985 -0.4241 -0.1133
vn 0.5996 -0.7941 0.0993
vn 0.8870 -0.1385 -0.4406
vn 0.7389 0.0335 -0.6730
vn 0.7511 0.3413 -0.5651
vn 0.8780 0.4009 -0.2617
vn 0.7482 -0.4637 0.4745
vn 0.7043 -0.2125 0.6773
vn 0.4861 -0.1542 0.8602
vn -0.6515 0.7402 -0.1662
vn -0.6230 0.7783 0.0786
vn -0.2857 -0.3957 0.8728
vn -0.6121 -0.2057 0.7635
vn -0.3055 0.8788 0.3665
vn -0.0700 0.8617 0.5026
vn 0.5765 0.8152 -0.0554
vn 0.3422 0.8025 -0.4888
vn -0.0403 0.9869 0.1561
vn 0.3235 0.9081 0.2658
vn 0.0027 0.1508 0.9886
vn -0.2033 0.3981 0.8946
vn 0.1389 0.3133 0.9394
vn 0.3394 0.1341 0.9310
vn 0.9979 0.0059 0.0637
vn 0.9342 0.1486 -0.3245
vn 0.6218 0.7688 -0.1493
vn 0.6580 0.7370 0.1548
vn 0.6266 0.1400 0.7667
vn -0.2528 0.9481 0.1931
vn -0.2045 0.9597 0.1929
vn -0.7524 0.4749 0.4564
vn -0.5633 0.7627 0.3177
vn -0.3436 -0.1484 0.9273
vn -0.5947 0.2117 0.7755
vn 0.0240 0.7499 0.6611
vn 0.4563 0.8013 0.3869
vn -0.0790 0.5450 0.8347
vn -0.1277 0.6594 0.7409
vn -0.2966 0.5604 0.7733
vn 0.4134 0.4970 0.7630
vn 0.5400 0.2357 0.8080
vn 0.3675 0.1093 0.9236
vn 0.9533 -0.1885 0.2359
vn 0.9377 0.3433 0.0545
vn 0.8676 0.4917 -0.0735
vn 0.5403 0.7885 0.2937
vn 0.4622 0.7450 0.4809
vn 0.8453 0.1117 0.5225
vn -0.2551 0.7863 0.5628
vn -0.4465 0.5946 0.6687
vn -0.2588 0.2064 0.9436
vn 0.2183 0.7771 0.5903
vn 0.0613 0.9175 0.3930
vn -0.2607 0.8505 0.4568
vn 0.1162 0.8635 0.4908
vn 0.6401 0.4347 0.6335
vn 0.7367 0.6654 0.1207
vn 0.4416 0.8571 0.2654
vn 0.3111 0.8194 0.4815
vn 0.7109 0.4949 0.4998
vn 0.6161 0.4807 0.6240
vn -0.0952 0.9333 0.3462
vn 0.0535 0.9949 0.0856
vn 0.0768 0.9966 -0.0298
vn -0.1544 0.9851 0.0751
vn 0.4173 0.9080 0.0381
vn 0.6212 0.7598 0.1918
vn 0.4633 0.8096 0.3604
vn 0.2812 0.9382 0.2016
vn 0.3232 0.9094 0.2618
vn 0.6631 0.7309 0.1615
vn 0.5471 0.7528 0.3660
vn 0.1004 0.9872 -0.1243
vn 0.1873 0.9445 -0.2700
vn 0.4714 0.8797 -0.0625
s 1
f 4//1 1//2 3//3
f 5//4 6//5 1//2
f 6//5 3//3 1//2
f 1//2 7//6 5//4
f 2//7 7//6 1//2
f 4//1 2//7 1//2
f 8//8 5//4 9//9
f 9//9 5//4 7//6
f 11//10 4//1 10//11
f 2//7 4//1 12//12
f 12//12 4//1 11//10
f 13//13 7//6 2//7
f 13//13 2//7 12//12
f 10//11 4//1 3//3
f 14//14 8//8 9//9
f 6//5 5//4 8//8
f 9//9 15//15 14//14
f 3//3 6//5 16//16
f 17//17 3//3 16//16
f 18//18 12//12 11//10
f 10//11 3//3 17//17
f 14//14 15//15 19//19
f 8//8 26//20 6//5
f 16//16 6//5 26//20
f 9//9 7//6 20//21
f 21//22 11//10 10//11
f 11//10 21//22 18//18
f 13//13 20//21 7//6
f 22//23 20//21 13//13
f 13//13 12//12 22//23
f 17//17 21//22 10//11
f 19//19 15//15 24//24
f 19//19 25//25 23//26
f 19//19 24//24 25//25
f 26//20 8//8 14//14
f 15//15 9//9 24//24
f 16//16 27//27 17//17
f 20//21 24//24 9//9
f 21//22 28//28 18//18
f 12//12 18//18 29//29
f 30//30 22//23 12//12
f 29//29 30//30 12//12
f 17//17 31//31 21//22
f 14//14 19//19 32//32
f 23//26 34//33 19//19
f 35//34 23//26 33//35
f 23//26 35//34 34//33
f 23//26 25//25 33//35
f 36//36 26//20 14//14
f 26//20 37//37 16//16
f 37//37 27//27 16//16
f 24//24 20//21 38//38
f 39//39 38//38 20//21
f 39//39 20//21 22//23
f 40//40 28//28 21//22
f 18//18 41//41 29//29
f 41//41 18//18 28//28
f 29//29 42//42 30//30
f 30//30 42//42 43//43
f 39//39 22//23 30//30
f 31//31 17//17 27//27
f 36//36 14//14 44//44
f 14//14 32//32 44//44
f 19//19 45//45 32//32
f 34//33 45//45 19//19
f 47//46 44//44 32//32
f 32//32 46//47 47//46
f 33//35 48//48 35//34
f 35//34 49//49 34//33
f 26//20 36//36 37//37
f 24//24 38//38 25//25
f 39//39 43//43 38//38
f 40//40 50//50 28//28
f 21//22 31//31 40//40
f 29//29 41//41 51//51
f 51//51 41//41 28//28
f 52//52 51//51 28//28
f 53//53 29//29 51//51
f 29//29 53//53 54//54
f 54//54 42//42 29//29
f 39//39 30//30 43//43
f 62//55 43//43 42//42
f 31//31 27//27 56//56
f 36//36 57//57 37//37
f 57//57 36//36 58//58
f 58//58 36//36 44//44
f 59//59 32//32 45//45
f 59//59 46//47 32//32
f 59//59 60//60 46//47
f 61//61 48//48 33//35
f 33//35 62//55 61//61
f 25//25 62//55 33//35
f 63//62 34//33 49//49
f 49//49 35//34 64//63
f 64//63 35//34 65//64
f 25//25 38//38 62//55
f 27//27 37//37 56//56
f 43//43 62//55 38//38
f 40//40 31//31 55//65
f 55//65 50//50 40//40
f 51//51 66//66 53//53
f 52//52 66//66 51//51
f 28//28 50//50 67//67
f 52//52 28//28 68//68
f 68//68 28//28 67//67
f 62//55 42//42 69//69
f 69//69 70//70 62//55
f 70//70 61//61 62//55
f 56//56 55//65 31//31
f 55//65 56//56 71//71
f 58//58 44//44 82//72
f 72//73 82//72 44//44
f 47//46 46//47 73//74
f 74//75 46//47 60//60
f 73//74 44//44 47//46
f 72//73 44//44 73//74
f 48//48 61//61 70//70
f 63//62 49//49 75//76
f 75//76 49//49 64//63
f 34//33 63//62 45//45
f 35//34 48//48 65//64
f 65//64 76//77 64//63
f 77//78 76//77 65//64
f 37//37 57//57 56//56
f 50//50 55//65 78//79
f 78//79 55//65 71//71
f 66//66 54//54 53//53
f 67//67 79//80 68//68
f 68//68 79//80 93//81
f 80//82 52//52 68//68
f 52//52 80//82 95//83
f 54//54 69//69 42//42
f 71//71 56//56 82//72
f 58//58 82//72 57//57
f 83//84 84//85 59//59
f 59//59 85//86 60//60
f 63//62 59//59 45//45
f 63//62 83//84 59//59
f 86//87 72//73 73//74
f 82//72 72//73 81//88
f 86//87 81//88 72//73
f 73//74 46//47 74//75
f 74//75 60//60 87//89
f 88//90 87//89 60//60
f 70//70 65//64 48//48
f 75//76 64//63 89//91
f 83//84 63//62 75//76
f 77//78 65//64 90//92
f 56//56 57//57 82//72
f 78//79 67//67 50//50
f 91//93 67//67 78//79
f 92//94 93//81 79//80
f 79//80 67//67 94//95
f 94//95 92//94 79//80
f 96//96 54//54 66//66
f 66//66 52//52 96//96
f 96//96 69//69 54//54
f 70//70 69//69 96//96
f 70//70 96//96 97//97
f 81//88 71//71 82//72
f 78//79 71//71 81//88
f 85//86 98//98 60//60
f 85//86 59//59 84//85
f 86//87 73//74 74//75
f 87//89 86//87 74//75
f 86//87 87//89 99//99
f 87//89 88//90 100//100
f 98//98 88//90 60//60
f 101//101 100//100 88//90
f 101//101 88//90 98//98
f 97//97 65//64 70//70
f 89//91 64//63 76//77
f 89//91 76//77 102//102
f 103//103 83//84 75//76
f 84//85 83//84 103//103
f 97//97 105//104 65//64
f 106//105 90//92 105//104
f 90//92 106//105 77//78
f 65//64 105//104 90//92
f 77//78 106//105 104//106
f 78//79 107//107 91//93
f 91//93 94//95 67//67
f 108//108 93//81 92//94
f 109//109 93//81 108//108
f 110//110 68//68 93//81
f 109//109 110//110 93//81
f 80//82 68//68 110//110
f 110//110 106//105 80//82
f 52//52 95//83 96//96
f 80//82 111//111 95//83
f 96//96 95//83 111//111
f 78//79 81//88 107//107
f 112//112 85//86 84//85
f 98//98 85//86 112//112
f 113//113 101//101 98//98
f 98//98 112//112 113//113
f 87//89 114//114 99//99
f 87//89 100//100 114//114
f 114//114 100//100 115//115
f 89//91 102//102 116//116
f 103//103 75//76 89//91
f 117//117 76//77 77//78
f 118//118 84//85 103//103
f 119//119 118//118 103//103
f 104//106 120//120 77//78
f 117//117 77//78 120//120
f 97//97 111//111 105//104
f 105//104 111//111 106//105
f 104//106 110//110 121//121
f 106//105 110//110 104//106
f 94//95 91//93 114//114
f 91//93 107//107 114//114
f 108//108 92//94 122//122
f 123//123 109//109 108//108
f 123//123 121//121 109//109
f 121//121 110//110 109//109
f 92//94 94//95 124//124
f 80//82 106//105 111//111
f 111//111 97//97 96//96
f 86//87 99//99 81//88
f 125//125 112//112 84//85
f 114//114 107//107 99//99
f 124//124 114//114 115//115
f 100//100 101//101 115//115
f 101//101 126//126 115//115
f 89//91 116//116 127//127
f 102//102 128//128 116//116
f 89//91 127//127 103//103
f 103//103 127//127 119//119
f 76//77 117//117 102//102
f 125//125 84//85 118//118
f 129//129 130//130 119//119
f 119//119 130//130 118//118
f 121//121 120//120 104//106
f 107//107 81//88 99//99
f 108//108 131//131 132//132
f 131//131 108//108 133//133
f 133//133 108//108 122//122
f 132//132 123//123 108//108
f 92//94 124//124 134//134
f 134//134 122//122 92//94
f 94//95 114//114 124//124
f 112//112 125//125 135//135
f 136//136 115//115 126//126
f 126//126 101//101 113//113
f 112//112 135//135 113//113
f 134//134 124//124 115//115
f 134//134 115//115 138//137
f 136//136 138//137 115//115
f 139//138 102//102 120//120
f 120//120 102//102 117//117
f 116//116 140//139 127//127
f 102//102 139//138 128//128
f 116//116 128//128 141//140
f 140//139 116//116 141//140
f 142//141 119//119 127//127
f 118//118 143//142 125//125
f 143//142 118//118 130//130
f 142//141 144//143 119//119
f 119//119 144//143 129//129
f 130//130 129//129 145//144
f 145//144 143//142 130//130
f 120//120 121//121 123//123
f 139//138 120//120 150//145
f 122//122 134//134 138//137
f 133//133 146//146 131//131
f 131//131 147//147 132//132
f 125//125 143//142 148//148
f 135//135 125//125 148//148
f 113//113 137//149 126//126
f 136//136 126//126 149//150
f 137//149 149//150 126//126
f 135//135 137//149 113//113
f 150//145 128//128 139//138
f 140//139 151//151 127//127
f 152//152 127//127 151//151
f 141//140 153//153 140//139
f 140//139 154//154 151//151
f 142//141 127//127 152//152
f 155//155 141//140 128//128
f 128//128 150//145 155//155
f 141//140 155//155 156//156
f 142//141 157//157 144//143
f 129//129 144//143 158//158
f 143//142 145//144 159//159
f 129//129 160//160 145//144
f 120//120 123//123 150//145
f 161//161 138//137 136//136
f 161//161 122//122 138//137
f 133//133 122//122 161//161
f 131//131 162//162 147//147
f 163//163 131//131 146//146
f 147//147 164//164 132//132
f 137//149 135//135 165//165
f 148//148 166//166 135//135
f 165//165 135//135 167//167
f 168//168 167//167 135//135
f 135//135 166//166 168//168
f 148//148 159//159 169//169
f 159//159 148//148 143//142
f 166//166 148//148 169//169
f 149//150 170//170 136//136
f 171//171 170//170 149//150
f 136//136 170//170 161//161
f 140//139 188//172 154//154
f 153//153 188//172 140//139
f 156//156 153//153 141//140
f 172//173 153//153 156//156
f 142//141 173//174 157//157
f 152//152 173//174 142//141
f 157//157 174//175 144//143
f 144//143 174//175 158//158
f 157//157 175//176 174//175
f 158//158 160//160 129//129
f 145//144 160//160 176//177
f 145//144 176//177 159//159
f 176//177 160//160 177//178
f 132//132 164//164 123//123
f 123//123 164//164 150//145
f 133//133 161//161 170//170
f 147//147 162//162 178//179
f 179//180 162//162 131//131
f 180//181 131//131 163//163
f 179//180 131//131 180//181
f 178//179 164//164 147//147
f 133//133 163//163 146//146
f 165//165 182//182 137//149
f 182//182 165//165 181//183
f 165//165 167//167 183//184
f 204//185 165//165 183//184
f 204//185 181//183 165//165
f 149//150 137//149 182//182
f 168//168 183//184 167//167
f 169//169 159//159 184//186
f 171//171 149//150 185//187
f 182//182 185//187 149//150
f 155//155 150//145 164//164
f 152//152 151//151 186//188
f 173//174 152//152 186//188
f 188//172 153//153 187//189
f 154//154 188//172 151//151
f 188//172 189//190 151//151
f 186//188 151//151 189//190
f 188//172 187//189 190//191
f 164//164 191//192 155//155
f 172//173 156//156 191//192
f 191//192 156//156 155//155
f 153//153 192//193 187//189
f 192//193 153//153 172//173
f 175//176 157//157 173//174
f 174//175 175//176 193//194
f 175//176 194//195 193//194
f 160//160 158//158 177//178
f 177//178 198//196 176//177
f 159//159 176//177 195//197
f 198//196 195//197 176//177
f 177//178 197//198 196//199
f 177//178 196//199 198//196
f 162//162 179//180 199//200
f 199//200 178//179 162//162
f 180//181 200//201 201//202
f 200//201 180//181 163//163
f 179//180 180//181 201//202
f 203//203 163//163 202//204
f 200//201 163//163 203//203
f 202//204 163//163 133//133
f 202//204 133//133 170//170
f 205//205 204//185 183//184
f 168//168 166//166 206//206
f 206//206 166//166 169//169
f 206//206 169//169 184//186
f 159//159 195//197 184//186
f 195//197 233//207 184//186
f 171//171 202//204 170//170
f 208//208 207//209 171//171
f 207//209 202//204 171//171
f 171//171 185//187 208//208
f 164//164 178//179 191//192
f 186//188 189//190 209//210
f 209//210 173//174 186//188
f 210//211 187//189 192//193
f 211//212 189//190 188//172
f 190//191 211//212 188//172
f 211//212 190//191 213//213
f 214//214 172//173 191//192
f 192//193 172//173 214//214
f 173//174 209//210 175//176
f 175//176 209//210 194//195
f 197//198 158//158 174//175
f 193//194 215//215 174//175
f 197//198 174//175 215//215
f 216//216 215//215 193//194
f 209//210 217//217 194//195
f 194//195 217//217 218//218
f 177//178 158//158 197//198
f 195//197 198//196 219//219
f 198//196 196//199 220//220
f 197//198 220//220 196//199
f 219//219 198//196 220//220
f 222//221 178//179 199//200
f 199//200 179//180 221//222
f 179//180 223//223 221//222
f 223//223 179//180 201//202
f 203//203 202//204 225//224
f 224//225 200//201 226//226
f 200//201 203//203 226//226
f 225//224 202//204 207//209
f 228//227 227//228 181//183
f 181//183 204//185 228//227
f 229//229 204//185 205//205
f 228//227 204//185 229//229
f 185//187 182//182 227//228
f 181//183 227//228 182//182
f 230//230 205//205 183//184
f 183//184 168//168 230//230
f 168//168 206//206 230//230
f 232//231 231//232 206//206
f 184//186 232//231 206//206
f 233//207 232//231 184//186
f 248//233 207//209 208//208
f 254//234 207//209 248//233
f 234//235 207//209 254//234
f 227//228 208//208 185//187
f 212//236 209//210 189//190
f 210//211 190//191 187//189
f 189//190 211//212 235//237
f 189//190 235//237 212//236
f 191//192 178//179 222//221
f 236//238 191//192 222//221
f 214//214 191//192 236//238
f 192//193 236//238 237//239
f 214//214 236//238 192//193
f 192//193 237//239 210//211
f 193//194 238//240 216//216
f 238//240 239//241 216//216
f 193//194 194//195 238//240
f 219//219 233//207 195//197
f 233//207 219//219 240//242
f 219//219 220//220 241//243
f 197//198 215//215 220//220
f 242//244 220//220 215//215
f 243//245 220//220 242//244
f 199//200 236//238 222//221
f 199//200 221//222 236//238
f 223//223 201//202 244//246
f 244//246 201//202 224//225
f 244//246 245//247 223//223
f 224//225 201//202 200//201
f 246//248 244//246 224//225
f 247//249 224//225 226//226
f 247//249 246//248 224//225
f 225//224 226//226 203//203
f 225//224 207//209 226//226
f 226//226 207//209 234//235
f 248//233 208//208 227//228
f 228//227 248//233 227//228
f 250//250 228//227 229//229
f 251//251 229//229 230//230
f 205//205 230//230 229//229
f 232//231 233//207 253//252
f 232//231 253//252 252//253
f 233//207 240//242 253//252
f 254//234 255//254 234//235
f 256//255 209//210 212//236
f 217//217 209//210 256//255
f 256//255 212//236 257//256
f 213//213 190//191 258//257
f 190//191 210//211 258//257
f 211//212 213//213 235//237
f 257//256 212//236 235//237
f 258//257 259//258 213//213
f 259//258 235//237 213//213
f 237//239 236//238 260//259
f 261//260 210//211 237//239
f 258//257 210//211 261//260
f 242//244 215//215 216//216
f 238//240 194//195 218//218
f 217//217 256//255 218//218
f 262//261 238//240 218//218
f 218//218 256//255 262//261
f 240//242 219//219 263//262
f 241//243 220//220 243//245
f 219//219 241//243 263//262
f 264//263 221//222 223//223
f 244//246 265//264 245//247
f 265//264 244//246 246//248
f 223//223 245//247 279//265
f 247//249 266//266 246//248
f 267//267 247//249 226//226
f 226//226 234//235 268//268
f 228//227 249//269 248//233
f 249//269 228//227 250//250
f 269//270 250//250 251//251
f 229//229 251//251 250//250
f 206//206 231//232 230//230
f 230//230 231//232 270//271
f 270//271 251//251 230//230
f 231//232 271//272 270//271
f 232//231 252//253 231//232
f 231//232 252//253 271//272
f 240//242 272//273 253//252
f 255//254 254//234 273//274
f 255//254 268//268 234//235
f 235//237 259//258 274//275
f 274//275 257//256 235//237
f 259//258 258//257 275//276
f 259//258 275//276 274//275
f 260//259 236//238 221//222
f 221//222 276//277 260//259
f 237//239 260//259 276//277
f 276//277 261//260 237//239
f 242//244 216//216 239//241
f 239//241 238//240 262//261
f 277//278 239//241 262//261
f 239//241 277//278 243//245
f 278//279 277//278 262//261
f 256//255 278//279 262//261
f 240//242 263//262 272//273
f 263//262 241//243 243//245
f 242//244 239//241 243//245
f 221//222 264//263 276//277
f 279//265 274//275 223//223
f 264//263 223//223 274//275
f 279//265 245//247 280//280
f 245//247 265//264 280//280
f 291//281 265//264 246//248
f 267//267 281//282 247//249
f 281//282 266//266 247//249
f 267//267 226//226 268//268
f 267//267 268//268 255//254
f 254//234 248//233 249//269
f 273//274 249//269 250//250
f 254//234 249//269 273//274
f 250//250 269//270 273//274
f 269//270 251//251 270//271
f 270//271 282//283 269//270
f 270//271 271//272 283//284
f 271//272 252//253 284//285
f 284//285 252//253 272//273
f 253//252 272//273 252//253
f 255//254 286//286 285//287
f 276//277 275//276 261//260
f 275//276 258//257 261//260
f 257//256 274//275 287//288
f 257//256 288//289 256//255
f 274//275 275//276 264//263
f 243//245 277//278 263//262
f 278//279 288//289 289//290
f 288//289 278//279 256//255
f 277//278 272//273 263//262
f 276//277 264//263 275//276
f 287//288 274//275 279//265
f 280//280 287//288 279//265
f 280//280 265//264 290//291
f 291//281 290//291 265//264
f 246//248 266//266 291//281
f 292//292 291//281 266//266
f 293//293 292//292 266//266
f 281//282 293//293 266//266
f 267//267 255//254 285//287
f 285//287 281//282 267//267
f 286//286 273//274 269//270
f 282//283 286//286 269//270
f 282//283 283//284 296//294
f 270//271 283//284 282//283
f 283//284 271//272 284//285
f 284//285 294//295 283//284
f 272//273 277//278 295//296
f 272//273 295//296 284//285
f 286//286 255//254 273//274
f 298//297 281//282 285//287
f 296//294 301//298 286//286
f 301//298 285//287 286//286
f 285//287 301//298 298//297
f 288//289 257//256 287//288
f 280//280 288//289 287//288
f 277//278 278//279 289//290
f 288//289 280//280 290//291
f 297//299 290//291 291//281
f 292//292 297//299 291//281
f 292//292 293//293 298//297
f 281//282 298//297 293//293
f 295//296 299//300 294//295
f 296//294 283//284 294//295
f 294//295 299//300 300//301
f 295//296 294//295 284//285
f 301//298 296//294 294//295
f 294//295 300//301 301//298
f 298//297 301//298 300//301
f 290//291 289//290 288//289
f 295//296 277//278 289//290
f 295//296 289//290 299//300
f 290//291 297//299 289//290
f 297//299 299//300 289//290
f 299//300 297//299 292//292
f 292//292 298//297 300//301
f 292//292 300//301 299//300
f 282//283 296//294 286//286
