# Blender 4.0.2
# www.blender.org
mtllib 4mc_l.mtl
o 4mc_l.002
v -0.005192 -0.029790 -0.003464
v -0.003998 -0.025655 -0.002668
v -0.002621 -0.023077 -0.001842
v -0.004438 -0.022108 -0.003181
v -0.002969 -0.029225 -0.002226
v -0.001716 -0.023304 -0.001987
v -0.003693 -0.019389 -0.002122
v -0.006087 -0.029647 -0.004985
v -0.005870 -0.031548 -0.004169
v -0.004498 -0.020017 -0.003693
v -0.001989 -0.028920 -0.002385
v -0.002733 -0.016288 -0.001069
v -0.001065 -0.025094 -0.002514
v -0.006112 -0.027629 -0.005851
v -0.003702 -0.033317 -0.002212
v -0.000888 -0.018181 -0.001254
v -0.001736 -0.013519 -0.000276
v -0.005992 -0.027258 -0.007262
v -0.007104 -0.033684 -0.007350
v -0.006660 -0.036486 -0.004066
v -0.004585 -0.018688 -0.005369
v -0.005258 -0.022426 -0.005757
v 0.000235 -0.025642 -0.003657
v -0.003200 -0.033643 -0.002240
v -0.007106 -0.034473 -0.005917
v -0.003862 -0.015155 -0.005444
v -0.004644 -0.021673 -0.007220
v -0.004171 -0.015775 -0.003806
v -0.003860 -0.015931 -0.002101
v 0.000062 -0.022306 -0.002758
v -0.000319 -0.013402 -0.000196
v -0.001444 -0.034560 -0.003083
v -0.004784 -0.025326 -0.008060
v -0.006584 -0.033676 -0.008516
v -0.005966 -0.029636 -0.007998
v -0.005555 -0.038121 -0.002536
v -0.003484 -0.016677 -0.006879
v -0.003796 -0.010494 -0.002739
v -0.002966 -0.011055 -0.000345
v -0.003784 -0.011586 -0.001791
v 0.000999 -0.016378 -0.002047
v 0.001439 -0.013248 -0.000849
v 0.000182 -0.029316 -0.004327
v 0.000631 -0.025941 -0.004612
v 0.000080 -0.032893 -0.004516
v -0.007236 -0.039980 -0.003507
v -0.003813 -0.037795 -0.001663
v -0.002779 -0.018865 -0.007817
v -0.001165 -0.009798 0.000880
v 0.001479 -0.011461 0.000247
v 0.000785 -0.022996 -0.005802
v 0.000551 -0.028660 -0.005943
v -0.003674 -0.030696 -0.009140
v -0.007556 -0.037222 -0.008507
v -0.005324 -0.031056 -0.008789
v -0.005568 -0.036509 -0.009551
v -0.008227 -0.038685 -0.007395
v -0.002539 -0.012446 -0.006566
v -0.003924 -0.008483 -0.002077
v -0.003639 -0.008652 -0.000247
v 0.001122 -0.020201 -0.004331
v 0.000253 -0.022338 -0.006966
v -0.001504 -0.037514 -0.002858
v 0.000062 -0.036073 -0.004808
v -0.001808 -0.023257 -0.008449
v -0.004317 -0.032461 -0.009306
v -0.008343 -0.043155 -0.003379
v -0.006176 -0.040949 -0.002052
v -0.007504 -0.042979 -0.001785
v -0.003103 -0.038887 -0.001693
v -0.003806 -0.041179 -0.001427
v -0.001642 -0.014788 -0.007244
v -0.001083 -0.017984 -0.007734
v -0.003538 -0.006552 -0.003360
v -0.002529 -0.008541 -0.005768
v -0.004334 -0.006336 -0.001374
v 0.001333 -0.017300 -0.005284
v 0.001807 -0.015227 -0.004086
v -0.002195 -0.007694 0.001419
v 0.002794 -0.010379 -0.001770
v 0.002548 -0.011031 -0.000373
v 0.001224 -0.009500 0.001294
v -0.000562 -0.007715 0.002541
v 0.000069 -0.027239 -0.007498
v 0.000393 -0.032397 -0.006638
v -0.002153 -0.041051 -0.001592
v -0.000344 -0.042247 -0.002957
v -0.002408 -0.033068 -0.009557
v -0.001303 -0.026957 -0.008815
v -0.007330 -0.038444 -0.009386
v -0.008342 -0.042071 -0.005412
v -0.008472 -0.043564 -0.002443
v -0.004686 -0.004250 -0.002034
v -0.002803 -0.005287 0.002071
v -0.003405 -0.004781 0.001231
v 0.002301 -0.011805 -0.003961
v -0.000985 -0.032019 -0.009025
v 0.000314 -0.037262 -0.007477
v -0.000452 -0.039929 -0.004147
v 0.000217 -0.040167 -0.005418
v -0.001165 -0.035951 -0.009467
v -0.000353 -0.019349 -0.007576
v -0.009046 -0.040590 -0.008647
v -0.008777 -0.041917 -0.009762
v -0.002906 -0.037517 -0.009895
v -0.008615 -0.044675 -0.004537
v -0.008622 -0.043380 -0.006159
v -0.009349 -0.041606 -0.007562
v -0.003152 -0.042616 -0.001146
v 0.001330 -0.012177 -0.005690
v 0.000515 -0.011241 -0.006189
v -0.001030 -0.005113 0.003873
v -0.002902 -0.003531 0.003073
v 0.003016 -0.008675 -0.003685
v 0.002956 -0.010020 -0.000689
v 0.002784 -0.009245 0.000090
v 0.002530 -0.007218 0.002115
v -0.000127 -0.032982 -0.008084
v 0.000496 -0.042494 -0.005545
v 0.000489 -0.038484 -0.006875
v -0.000665 -0.043254 -0.001794
v 0.000094 -0.044414 -0.003373
v -0.007723 -0.041308 -0.010285
v -0.009290 -0.043668 -0.008352
v -0.008492 -0.044539 -0.001721
v -0.009449 -0.045836 -0.003861
v 0.000139 -0.009472 -0.006261
v -0.004352 -0.004335 -0.003752
v -0.004778 -0.003487 -0.002596
v -0.003679 -0.005532 -0.005042
v -0.000830 -0.006423 -0.005856
v -0.003674 -0.003769 -0.000348
v -0.003046 -0.002250 0.001755
v -0.001771 -0.002941 0.004234
v 0.000391 -0.006875 0.003331
v 0.003865 -0.007408 -0.001933
v 0.001992 -0.011126 -0.004958
v 0.001526 -0.005915 0.003569
v -0.001035 -0.044758 -0.001121
v -0.004882 -0.042137 -0.010568
v -0.008572 -0.046651 -0.005604
v -0.008253 -0.047470 -0.006045
v -0.009443 -0.045788 -0.002842
v -0.007540 -0.046726 -0.001376
v -0.004329 -0.045890 -0.001153
v -0.005391 -0.000771 -0.003287
v -0.004112 -0.003299 -0.004473
v -0.002247 -0.005089 -0.005794
v -0.003475 -0.001998 0.001010
v -0.002730 -0.001343 0.003206
v 0.003540 -0.007061 -0.003527
v 0.003551 -0.005726 0.001394
v 0.000241 -0.039460 -0.008744
v 0.001077 -0.041240 -0.006773
v -0.000108 -0.046662 -0.004413
v -0.000169 -0.046733 -0.002177
v -0.009174 -0.043544 -0.009222
v -0.008005 -0.044351 -0.010656
v -0.003634 -0.044191 -0.010647
v -0.000834 -0.040321 -0.009821
v -0.007995 -0.047237 -0.008039
v -0.008409 -0.048822 -0.006994
v -0.008963 -0.046345 -0.001954
v -0.009834 -0.048317 -0.004178
v -0.003186 -0.047569 -0.001271
v -0.004441 0.000107 -0.004240
v -0.005212 -0.002105 -0.002202
v -0.003958 -0.001181 -0.000392
v -0.005372 -0.001244 -0.002558
v -0.000197 -0.005040 -0.005919
v 0.000923 -0.003918 0.004528
v 0.002396 -0.007959 -0.005450
v 0.003232 -0.005141 -0.004910
v 0.002725 -0.003782 0.003358
v 0.000959 -0.043454 -0.006636
v 0.001128 -0.041582 -0.008080
v -0.000063 -0.045947 -0.005811
v -0.006676 -0.043944 -0.011065
v -0.001759 -0.044299 -0.010757
v -0.008378 -0.045520 -0.008647
v -0.009621 -0.049540 -0.003110
v -0.009761 -0.051132 -0.004942
v -0.009121 -0.048721 -0.006305
v -0.004848 -0.047853 -0.001055
v -0.000928 -0.046474 -0.001263
v 0.001339 -0.005852 -0.006044
v -0.003369 -0.002125 -0.004841
v 0.000277 -0.000756 -0.005029
v -0.003576 -0.001532 0.001706
v -0.001659 -0.000875 0.004247
v 0.004311 -0.004152 -0.002703
v 0.004153 -0.003790 0.000920
v 0.003506 -0.003843 0.001816
v 0.001240 -0.044204 -0.008507
v 0.000526 -0.042425 -0.009769
v -0.000060 -0.048037 -0.003915
v -0.006864 -0.045792 -0.010912
v -0.003935 -0.046517 -0.010629
v -0.001790 -0.046224 -0.010899
v -0.009338 -0.052316 -0.004799
v -0.005186 -0.050102 -0.001596
v -0.001323 -0.050549 -0.002515
v -0.003845 0.001426 -0.004054
v -0.002162 -0.000032 -0.004661
v -0.004882 0.001843 -0.002509
v 0.001946 -0.002935 -0.005619
v -0.003630 0.000241 0.000039
v 0.000198 -0.001336 0.004878
v -0.000328 -0.000155 0.004448
v 0.003048 -0.002931 -0.004954
v -0.000305 -0.046839 -0.006738
v -0.000601 -0.049906 -0.005603
v -0.000986 -0.048882 -0.007022
v -0.006043 -0.046473 -0.011214
v -0.007609 -0.049231 -0.010101
v -0.007041 -0.046867 -0.010840
v -0.008602 -0.050117 -0.002438
v -0.008826 -0.052965 -0.007165
v -0.008673 -0.050897 -0.008556
v -0.002755 0.001984 -0.004032
v -0.004116 0.002379 -0.001068
v -0.003390 0.001194 0.004327
v 0.002033 -0.000680 0.004578
v -0.002189 0.001032 0.005045
v 0.004768 -0.001992 0.000599
v 0.004433 -0.003100 -0.000869
v 0.003035 -0.000823 0.004276
v 0.003724 -0.002824 0.002889
v -0.000835 -0.051321 -0.004018
v -0.004907 -0.048341 -0.010925
v -0.004308 -0.049174 -0.010689
v -0.001094 -0.044958 -0.010837
v -0.008008 -0.050353 -0.009479
v -0.005323 -0.051414 -0.002274
v -0.002148 -0.052070 -0.003092
v 0.001519 -0.001747 -0.005532
v -0.000102 0.001170 -0.003873
v -0.003959 0.002891 -0.002690
v -0.003525 0.002461 0.000992
v -0.002904 0.003815 0.002509
v -0.003381 -0.000062 0.003967
v 0.003495 0.000952 -0.004644
v 0.004591 -0.002124 -0.003215
v 0.001049 -0.043171 -0.009296
v 0.000410 -0.045373 -0.009748
v 0.000084 -0.044947 -0.010269
v -0.000861 -0.047384 -0.009901
v -0.001489 -0.048809 -0.010576
v -0.006950 -0.049108 -0.010628
v -0.007011 -0.050822 -0.010134
v -0.007738 -0.052985 -0.003878
v -0.007865 -0.052361 -0.008876
v -0.006359 -0.054218 -0.004774
v -0.004016 0.003077 -0.001883
v 0.002686 0.002049 -0.004646
v -0.002684 0.003011 0.004170
v 0.000363 -0.000197 0.004284
v -0.000095 0.001740 0.005128
v -0.002370 0.001748 0.005072
v 0.004648 -0.000602 -0.002108
v 0.004451 -0.000072 -0.003415
v 0.003683 0.002235 -0.004035
v 0.003659 0.000667 0.003025
v -0.000000 -0.046283 -0.009002
v -0.001078 -0.051798 -0.007189
v -0.001162 -0.050658 -0.007537
v -0.007800 -0.054017 -0.005668
v -0.006929 -0.053754 -0.008115
v -0.003671 -0.053831 -0.004553
v -0.000755 0.002852 -0.003141
v 0.001188 0.001935 -0.004098
v -0.002285 0.003787 -0.001532
v 0.000116 0.004370 -0.000986
v -0.003659 0.003291 -0.000872
v 0.002540 0.002322 0.004913
v 0.000848 0.000833 0.004361
v -0.000354 0.002488 0.005100
v 0.004486 0.000688 -0.000339
v 0.004339 0.000655 -0.001051
v 0.002813 0.002993 0.004682
v 0.004291 0.000747 0.001148
v -0.001195 -0.049915 -0.009606
v -0.005782 -0.051362 -0.010125
v -0.003709 -0.051392 -0.009874
v -0.007224 -0.054303 -0.006511
v -0.001581 -0.052515 -0.004145
v -0.000108 0.001458 -0.003397
v -0.002984 0.004065 -0.000387
v -0.002171 0.004414 0.002387
v 0.001073 0.002198 0.004997
v 0.003548 0.003476 -0.002979
v 0.003001 0.004329 0.003540
v -0.001713 -0.053089 -0.005948
v -0.001869 -0.051165 -0.009547
v -0.004999 -0.053174 -0.008994
v -0.005362 -0.054317 -0.007545
v -0.005592 -0.054608 -0.006289
v -0.003196 -0.054145 -0.005490
v 0.000455 0.003695 -0.002721
v 0.002655 0.003846 -0.003468
v 0.001066 0.003201 -0.002923
v -0.000773 0.004817 0.000595
v 0.001316 0.004465 -0.001286
v 0.000172 0.003304 0.004503
v 0.001002 0.002816 0.004985
v 0.003734 0.002908 -0.000102
v 0.003958 0.002312 -0.001694
v 0.003887 0.002048 -0.000928
v 0.003441 0.003323 -0.001885
v 0.003194 0.004790 0.001666
v -0.002723 -0.053817 -0.006869
v 0.002169 0.003610 -0.002642
v 0.001892 0.004702 -0.000501
v 0.000818 0.004687 0.002359
v 0.002322 0.003499 0.004762
v -0.002939 -0.052910 -0.008559
v 0.002820 0.004080 -0.002685
v 0.001761 0.003565 -0.002388
v 0.000924 0.004867 0.001042
v 0.002070 0.003319 -0.001761
v 0.002509 0.004840 0.003044
v 0.003300 0.004027 0.000368
v 0.002660 0.003230 -0.001144
v 0.002083 0.004864 0.000844
v 0.002708 0.003854 -0.000146
v 0.003063 0.002492 -0.000706
vn -0.5570 0.0023 0.8305
vn -0.8592 0.0404 0.5101
vn -0.7407 0.0448 0.6704
vn -0.1731 -0.0940 0.9804
vn -0.0500 -0.0002 0.9987
vn 0.2967 -0.1227 0.9470
vn -0.7388 -0.0519 0.6719
vn -0.9201 0.1032 0.3779
vn -0.7982 0.0866 0.5961
vn 0.4239 -0.0746 0.9026
vn -0.5462 -0.1015 0.8315
vn 0.5407 -0.1196 0.8327
vn -0.9787 0.1445 0.1457
vn -0.2797 0.0784 0.9569
vn -0.9502 0.0876 0.2992
vn 0.3470 -0.1935 0.9177
vn -0.2016 -0.2009 0.9586
vn -0.9806 0.1897 -0.0498
vn -0.9111 0.1905 -0.3656
vn -0.9690 0.2010 -0.1434
vn -0.9841 0.1575 -0.0824
vn 0.5333 -0.1796 0.8266
vn 0.2628 0.0365 0.9642
vn -0.9504 0.1794 0.2539
vn -0.5818 0.2070 0.7865
vn -0.8095 0.1814 0.5584
vn -0.8805 -0.0251 0.4733
vn -0.9306 0.1832 -0.3170
vn -0.7888 0.2152 -0.5757
vn -0.9947 0.0975 0.0324
vn 0.1597 -0.3207 0.9336
vn 0.7890 -0.1275 0.6010
vn 0.6126 0.0013 0.7904
vn -0.6715 0.1811 -0.7185
vn -0.5301 0.1635 -0.8320
vn -0.7163 0.1810 -0.6739
vn -0.7154 0.2109 -0.6662
vn -0.6438 -0.2092 0.7361
vn -0.9604 -0.0296 0.2771
vn 0.7908 -0.2263 0.5687
vn 0.7144 -0.4140 0.5641
vn 0.9884 -0.1115 0.1030
vn 0.9730 -0.0761 0.2177
vn 0.8702 -0.0878 0.4848
vn 0.8959 -0.0457 0.4419
vn -0.4152 0.1695 -0.8938
vn -0.1241 0.1266 0.9842
vn -0.2895 0.1663 -0.9426
vn -0.9864 0.0444 -0.1581
vn -0.2315 -0.4138 0.8804
vn 0.3516 -0.4034 0.8447
vn 0.9690 -0.0468 -0.2425
vn 0.9972 -0.0487 -0.0567
vn -0.1529 0.1406 -0.9782
vn -0.7907 0.3022 -0.5324
vn -0.2810 0.1791 -0.9428
vn -0.8217 0.2847 0.4937
vn -0.4295 0.2946 0.8537
vn 0.2901 0.1249 0.9488
vn -0.4925 0.1953 -0.8481
vn -0.9931 -0.0780 -0.0874
vn -0.8627 -0.1787 0.4731
vn 0.2577 -0.5243 0.8116
vn 0.6794 0.0776 0.7296
vn 0.9197 -0.0122 0.3925
vn 0.0651 0.1223 -0.9904
vn 0.3631 0.0833 -0.9280
vn -0.9489 0.2860 0.1333
vn -0.1851 0.1317 -0.9738
vn -0.4287 0.3115 0.8481
vn -0.0761 0.1356 0.9878
vn -0.0206 0.1868 -0.9822
vn 0.2107 0.1356 -0.9681
vn -0.9316 -0.2023 -0.3019
vn -0.6056 0.0644 -0.7932
vn -0.9754 -0.1076 0.1926
vn 0.9864 -0.1571 0.0482
vn 0.9245 -0.0776 -0.3733
vn -0.5931 -0.3470 0.7265
vn 0.8242 -0.4022 0.3986
vn -0.2991 -0.5423 0.7851
vn 0.9947 -0.0096 -0.1026
vn 0.8485 0.0182 -0.5288
vn 0.3871 0.2010 0.8999
vn 0.8857 0.2164 0.4107
vn 0.0891 0.0939 -0.9916
vn -0.5653 0.3508 -0.7466
vn -0.9440 0.1843 0.2737
vn -0.9520 0.3046 0.0292
vn -0.8494 0.4058 0.3374
vn -0.9773 -0.1719 0.1241
vn 0.8486 0.0092 -0.5289
vn -0.9281 -0.0758 0.3645
vn -0.7678 -0.3450 0.5398
vn 0.9365 -0.3479 -0.0435
vn 0.9701 -0.1930 -0.1473
vn 0.0047 -0.5077 0.8615
vn 0.5893 0.0608 -0.8056
vn 0.5539 0.0681 -0.8298
vn 0.8708 0.0604 -0.4879
vn 0.9955 0.0711 -0.0623
vn 0.9013 0.1035 0.4207
vn 0.9063 0.0872 0.4135
vn 0.3956 0.0719 -0.9156
vn -0.9062 0.3103 -0.2873
vn -0.7526 0.1704 -0.6361
vn 0.0532 0.1147 -0.9920
vn -0.9591 0.2113 -0.1884
vn -0.9789 -0.0552 0.1966
vn -0.9765 0.1256 0.1752
vn 0.0059 0.1239 0.9923
vn 0.6802 0.0324 -0.7323
vn 0.4775 0.0258 -0.8782
vn -0.3727 -0.3597 0.8554
vn -0.8415 -0.1351 0.5231
vn 0.9238 -0.2489 -0.2909
vn 0.8059 -0.3107 0.5040
vn 0.8728 0.2998 0.3851
vn 0.7501 0.2265 0.6213
vn 0.9299 0.0144 0.3675
vn 0.9748 0.0233 0.2220
vn -0.3424 0.2440 -0.9073
vn -0.5779 0.2211 0.7856
vn -0.9268 0.2915 -0.2367
vn 0.1131 0.0788 -0.9905
vn -0.9468 -0.2706 -0.1742
vn -0.9342 -0.2521 -0.2524
vn -0.8018 -0.1280 -0.5837
vn -0.9242 0.0037 0.3820
vn -0.9293 -0.2066 0.3062
vn -0.4728 -0.1365 0.8705
vn 0.9386 -0.2813 0.1998
vn 0.9673 -0.2530 -0.0195
vn 0.8192 -0.1171 -0.5615
vn 0.6509 -0.4163 0.6348
vn 0.4085 -0.3800 0.8299
vn 0.4487 0.0437 0.8926
vn -0.8345 0.1625 -0.5265
vn -0.7811 0.2299 -0.5806
vn -0.9755 -0.2173 0.0345
vn -0.9444 0.2100 0.2532
vn -0.2468 -0.0674 0.9667
vn -0.0207 0.0100 0.9997
vn -0.7075 -0.0349 -0.7059
vn -0.9443 0.0459 -0.3260
vn -0.1339 0.0308 -0.9905
vn -0.2592 0.0961 -0.9610
vn -0.9133 -0.3038 0.2714
vn -0.7056 -0.3328 0.6257
vn 0.9190 -0.2082 -0.3347
vn 0.8803 -0.2413 0.4084
vn 0.8296 0.1878 -0.5258
vn 0.9697 0.1307 0.2066
vn 0.9868 -0.1014 -0.1263
vn 0.8942 -0.1203 0.4312
vn 0.9614 -0.2720 0.0410
vn 0.0506 0.1550 -0.9866
vn -0.9163 -0.1611 -0.3666
vn -0.6321 -0.1219 -0.7653
vn 0.0451 0.0766 -0.9960
vn 0.3968 0.1932 -0.8973
vn -0.9774 -0.0594 -0.2028
vn -0.7995 0.3845 -0.4614
vn -0.6644 -0.0143 0.7472
vn -0.9943 0.0779 -0.0729
vn -0.8006 0.3098 -0.5128
vn -0.0113 -0.1202 0.9927
vn 0.1213 -0.1677 0.9783
vn -0.5470 0.2164 -0.8087
vn 0.2399 -0.2713 -0.9321
vn -0.9712 -0.0634 0.2297
vn -0.9173 0.0045 0.3982
vn -0.0618 0.1227 -0.9905
vn 0.1644 -0.2502 0.9541
vn 0.6844 -0.1255 -0.7183
vn 0.6676 -0.3064 0.6785
vn 0.9321 -0.1436 0.3324
vn 0.9669 0.2035 -0.1540
vn -0.1075 0.1114 -0.9879
vn 0.0554 0.1506 -0.9870
vn -0.8544 -0.3520 -0.3822
vn -0.8508 -0.1839 0.4923
vn 0.4443 -0.1423 0.8845
vn 0.2409 0.0489 -0.9693
vn -0.3528 0.1238 -0.9275
vn -0.1414 0.3041 -0.9421
vn -0.0585 0.2869 -0.9562
vn -0.9234 -0.3023 0.2364
vn -0.0525 0.0986 0.9937
vn -0.3939 -0.1845 0.9005
vn 0.7614 -0.0348 -0.6474
vn 0.9653 -0.1354 -0.2234
vn 0.8015 -0.3467 0.4873
vn 0.9237 -0.2600 0.2815
vn 0.9689 -0.2350 -0.0772
vn 0.5992 0.1985 -0.7756
vn 0.9905 -0.1378 -0.0042
vn -0.3118 -0.0290 -0.9497
vn 0.1961 -0.0829 -0.9771
vn 0.0739 0.0034 -0.9973
vn -0.9875 -0.1568 -0.0181
vn -0.0349 -0.3348 0.9416
vn 0.5479 -0.3964 0.7366
vn -0.4157 0.4182 -0.8076
vn 0.2360 0.0969 -0.9669
vn -0.9600 0.0447 0.2763
vn 0.0828 -0.0598 0.9948
vn -0.7325 -0.3670 0.5733
vn 0.8847 0.0502 -0.4634
vn 0.9780 -0.1250 -0.1672
vn 0.9788 -0.1350 -0.1542
vn -0.0508 -0.0343 -0.9981
vn 0.2390 0.0380 -0.9703
vn -0.8131 -0.0264 -0.5815
vn -0.6343 -0.1002 -0.7665
vn -0.4527 -0.3507 0.8198
vn -0.8048 -0.5242 0.2784
vn -0.8706 0.0114 -0.4919
vn -0.7934 -0.5266 -0.3054
vn -0.9271 0.3691 -0.0650
vn -0.4543 0.7572 -0.4693
vn -0.0481 0.5570 -0.8291
vn -0.9173 0.2336 0.3226
vn -0.8510 0.0397 0.5237
vn -0.9751 0.1491 0.1641
vn 0.1170 -0.0365 0.9925
vn -0.2276 -0.2649 0.9370
vn 0.9922 -0.0671 0.1055
vn 0.9916 -0.1290 0.0129
vn 0.6728 -0.0185 -0.7396
vn 0.9355 -0.0941 -0.3405
vn 0.6432 -0.1107 0.7577
vn 0.8077 -0.2880 0.5144
vn 0.9407 -0.3389 0.0175
vn 0.8459 -0.5298 -0.0619
vn 0.8838 -0.4007 0.2415
vn 0.1310 -0.1365 -0.9819
vn 0.0613 -0.2124 -0.9753
vn 0.6040 -0.1172 -0.7883
vn -0.8025 -0.0278 -0.5961
vn 0.3541 -0.6032 0.7147
vn -0.0444 -0.5399 0.8406
vn -0.1423 0.6384 -0.7565
vn -0.1245 0.0800 -0.9890
vn -0.7734 0.5855 0.2429
vn 0.0821 0.1563 0.9843
vn 0.5999 0.1413 -0.7875
vn 0.8239 -0.3590 -0.4384
vn 0.5132 -0.2175 -0.8303
vn 0.8524 -0.2640 -0.4514
vn -0.3469 -0.1911 -0.9182
vn -0.3647 -0.3395 -0.8670
vn -0.3719 -0.6472 0.6655
vn -0.5267 -0.4828 -0.6997
vn -0.1236 -0.8661 0.4844
vn 0.0591 0.4181 -0.9065
vn -0.6852 0.7272 -0.0405
vn -0.0797 0.6483 -0.7572
vn 0.0316 0.5894 -0.8072
vn -0.1581 0.8831 -0.4416
vn -0.8515 0.4931 0.1783
vn -0.5511 0.5866 0.5935
vn 0.1330 -0.1795 0.9747
vn 0.0527 -0.2328 0.9711
vn -0.3671 0.1804 0.9125
vn 0.9811 0.1853 -0.0559
vn 0.9953 0.0851 0.0460
vn 0.7341 0.3662 -0.5718
vn 0.8679 0.0906 -0.4884
vn 0.9252 0.0782 0.3713
vn 0.8951 -0.3820 -0.2299
vn 0.9929 0.0012 -0.1192
vn 0.6560 -0.6561 0.3731
vn -0.5160 -0.8393 0.1713
vn -0.3017 -0.7623 -0.5726
vn 0.1766 -0.8046 0.5670
vn -0.4239 0.5044 -0.7523
vn -0.1510 0.9160 -0.3716
vn 0.3455 -0.0368 0.9377
vn -0.0649 0.3551 0.9326
vn 0.9735 0.2141 0.0803
vn 0.9753 0.1804 0.1272
vn 0.7083 0.1994 0.6772
vn 0.8858 -0.2777 -0.3718
vn -0.0595 -0.4288 -0.9014
vn 0.1571 -0.4541 -0.8770
vn -0.3581 -0.9240 -0.1338
vn 0.3556 -0.9185 0.1728
vn -0.4963 0.8589 -0.1261
vn -0.0894 0.7094 -0.6991
vn -0.0123 0.8366 -0.5477
vn -0.3405 0.8950 0.2880
vn 0.1136 -0.1884 0.9755
vn 0.7813 0.5899 -0.2042
vn 0.6977 0.5601 0.4467
vn 0.7495 -0.6617 -0.0217
vn 0.5272 -0.5247 -0.6684
vn 0.0545 -0.6691 -0.7412
vn 0.0574 -0.9110 -0.4084
vn 0.0098 -0.9999 -0.0020
vn -0.1877 0.6276 -0.7556
vn -0.1449 0.9845 -0.0984
vn 0.1999 0.8835 -0.4237
vn -0.1363 0.7297 0.6700
vn -0.0209 0.3101 0.9505
vn 0.7890 0.4671 -0.3991
vn 0.8317 0.5542 -0.0336
vn 0.8962 0.4084 0.1732
vn 0.6582 0.7522 -0.0307
vn 0.4887 -0.8297 -0.2699
vn -0.4575 0.8301 -0.3189
vn 0.3927 0.8555 -0.3374
vn -0.1198 0.9520 0.2817
vn 0.5717 0.7176 0.3978
vn 0.0608 0.9877 0.1438
vn 0.1899 0.5308 0.8259
vn 0.4093 -0.6924 -0.5942
vn 0.1148 0.9633 -0.2426
vn -0.0128 0.9995 0.0286
vn 0.1948 0.9661 -0.1696
vn 0.1323 0.9316 0.3386
vn 0.6390 0.6061 -0.4736
vn 0.6600 0.7254 -0.1954
vn 0.4385 0.8967 -0.0611
vn 0.6415 0.7656 -0.0473
vn 0.6355 0.5830 -0.5061
s 1
f 2//1 4//2 1//3
f 3//4 2//1 5//5
f 3//4 5//5 6//6
f 2//1 3//4 7//7
f 4//2 8//8 1//3
f 9//9 1//3 8//8
f 4//2 2//1 7//7
f 6//6 5//5 11//10
f 3//4 12//11 7//7
f 6//6 11//10 13//12
f 14//13 8//8 4//2
f 15//14 2//1 1//3
f 14//13 4//2 10//15
f 16//16 17//17 3//4
f 12//11 3//4 17//17
f 2//1 15//14 5//5
f 14//13 22//18 18//19
f 14//13 19//20 8//8
f 18//19 19//20 14//13
f 15//14 1//3 9//9
f 10//15 21//21 22//18
f 22//18 14//13 10//15
f 16//16 3//4 6//6
f 30//22 6//6 13//12
f 24//23 11//10 5//5
f 8//8 25//24 9//9
f 8//8 19//20 25//24
f 36//25 9//9 20//26
f 9//9 36//25 15//14
f 24//23 5//5 15//14
f 7//7 12//11 29//27
f 10//15 4//2 7//7
f 21//21 26//28 27//29
f 10//15 29//27 28//30
f 7//7 29//27 10//15
f 21//21 10//15 28//30
f 16//16 6//6 30//22
f 17//17 16//16 31//31
f 23//32 30//22 13//12
f 13//12 11//10 23//32
f 24//23 32//33 11//10
f 35//34 18//19 33//35
f 18//19 34//36 19//20
f 35//34 34//36 18//19
f 20//26 9//9 25//24
f 22//18 21//21 27//29
f 37//37 27//29 26//28
f 39//38 40//39 29//27
f 21//21 28//30 26//28
f 16//16 30//22 41//40
f 39//38 29//27 12//11
f 31//31 16//16 41//40
f 31//31 41//40 42//41
f 30//22 23//32 41//40
f 61//42 23//32 44//43
f 11//10 43//44 23//32
f 23//32 43//44 44//43
f 45//45 43//44 32//33
f 43//44 11//10 32//33
f 35//34 33//35 55//46
f 27//29 18//19 22//18
f 27//29 33//35 18//19
f 47//47 15//14 36//25
f 37//37 48//48 27//29
f 38//49 26//28 28//30
f 40//39 38//49 28//30
f 29//27 40//39 28//30
f 12//11 17//17 39//38
f 49//50 39//38 17//17
f 49//50 17//17 31//31
f 31//31 42//41 50//51
f 41//40 23//32 61//42
f 51//52 61//42 44//43
f 44//43 43//44 52//53
f 53//54 55//46 33//35
f 33//35 48//48 53//54
f 19//20 34//36 54//55
f 55//46 56//56 34//36
f 35//34 55//46 34//36
f 36//25 20//26 46//57
f 47//47 24//23 15//14
f 36//25 68//58 47//47
f 24//23 70//59 32//33
f 58//60 48//48 37//37
f 27//29 48//48 33//35
f 38//49 40//39 59//61
f 59//61 40//39 60//62
f 26//28 58//60 37//37
f 49//50 31//31 50//51
f 50//51 82//63 49//50
f 44//43 52//53 51//52
f 63//64 64//65 32//33
f 32//33 64//65 45//45
f 70//59 63//64 32//33
f 65//66 89//67 53//54
f 65//66 53//54 48//48
f 57//68 19//20 54//55
f 57//68 25//24 19//20
f 56//56 55//46 66//69
f 56//56 54//55 34//36
f 46//57 20//26 25//24
f 25//24 57//68 46//57
f 46//57 69//70 68//58
f 68//58 36//25 46//57
f 70//59 24//23 47//47
f 47//47 71//71 70//59
f 47//47 68//58 71//71
f 48//48 72//72 73//73
f 74//74 38//49 59//61
f 26//28 38//49 75//75
f 75//75 38//49 74//74
f 60//62 76//76 59//61
f 60//62 40//39 39//38
f 75//75 58//60 26//28
f 61//42 78//77 41//40
f 77//78 61//42 51//52
f 39//38 49//50 79//79
f 79//79 60//62 39//38
f 42//41 41//40 78//77
f 50//51 81//80 82//63
f 50//51 42//41 81//80
f 82//63 83//81 49//50
f 49//50 83//81 79//79
f 52//53 85//82 84//83
f 52//53 84//83 51//52
f 85//82 52//53 43//44
f 45//45 85//82 43//44
f 63//64 86//84 87//85
f 70//59 86//84 63//64
f 89//67 88//86 53//54
f 56//56 90//87 54//55
f 91//88 67//89 46//57
f 57//68 91//88 46//57
f 67//89 92//90 46//57
f 69//70 46//57 92//90
f 68//58 69//70 71//71
f 72//72 48//48 58//60
f 48//48 73//73 65//66
f 76//76 93//91 59//61
f 77//78 51//52 62//92
f 60//62 79//79 95//93
f 95//93 79//79 94//94
f 81//80 42//41 80//95
f 42//41 78//77 96//96
f 96//96 80//95 42//41
f 135//97 83//81 82//63
f 62//92 84//83 102//98
f 62//92 51//52 84//83
f 97//99 84//83 118//100
f 84//83 85//82 118//100
f 85//82 45//45 64//65
f 98//101 85//82 64//65
f 63//64 99//102 64//65
f 64//65 100//103 98//101
f 87//85 99//102 63//64
f 55//46 53//54 66//69
f 97//99 88//86 89//67
f 97//99 101//104 88//86
f 65//66 102//98 89//67
f 84//83 89//67 102//98
f 90//87 103//105 54//55
f 54//55 103//105 57//68
f 90//87 104//106 103//105
f 105//107 56//56 66//69
f 106//108 67//89 91//88
f 91//88 107//109 106//108
f 91//88 108//110 107//109
f 108//110 91//88 57//68
f 108//110 57//68 103//105
f 69//70 109//111 71//71
f 73//73 102//98 65//66
f 102//98 73//73 110//112
f 73//73 111//113 110//112
f 72//72 111//113 73//73
f 59//61 93//91 74//74
f 76//76 60//62 95//93
f 77//78 78//77 61//42
f 77//78 62//92 102//98
f 78//77 77//78 96//96
f 112//114 94//94 79//79
f 94//94 113//115 95//93
f 113//115 94//94 112//114
f 79//79 83//81 112//114
f 80//95 96//96 114//116
f 82//63 81//80 116//117
f 85//82 98//101 118//100
f 100//103 64//65 99//102
f 120//118 98//101 100//103
f 87//85 86//84 121//119
f 70//59 71//71 86//84
f 119//120 99//102 122//121
f 122//121 99//102 87//85
f 88//86 66//69 53//54
f 123//122 90//87 56//56
f 88//86 105//107 66//69
f 92//90 125//123 69//70
f 106//108 126//124 67//89
f 126//124 92//90 67//89
f 109//111 69//70 125//123
f 71//71 109//111 86//84
f 72//72 58//60 127//125
f 74//74 93//91 129//126
f 74//74 129//126 128//127
f 130//128 75//75 74//74
f 130//128 74//74 128//127
f 127//125 58//60 75//75
f 132//129 76//76 95//93
f 102//98 110//112 77//78
f 133//130 95//93 113//115
f 112//114 134//131 113//115
f 115//132 81//80 80//95
f 136//133 80//95 114//116
f 114//116 96//96 137//134
f 81//80 115//132 116//117
f 116//117 117//135 82//63
f 138//136 82//63 117//135
f 135//97 82//63 138//136
f 84//83 97//99 89//67
f 99//102 119//120 100//103
f 86//84 139//137 121//119
f 101//104 105//107 88//86
f 104//106 90//87 123//122
f 105//107 123//122 56//56
f 141//138 106//108 107//109
f 107//109 142//139 141//138
f 141//138 126//124 106//108
f 124//140 107//109 108//110
f 126//124 143//141 92//90
f 144//142 109//111 125//123
f 109//111 144//142 145//143
f 127//125 111//113 72//72
f 110//112 137//134 77//78
f 147//144 128//127 146//145
f 147//144 130//128 128//127
f 146//145 128//127 129//126
f 93//91 76//76 132//129
f 75//75 131//146 127//125
f 148//147 75//75 130//128
f 75//75 148//147 131//146
f 96//96 77//78 137//134
f 95//93 133//130 132//129
f 132//129 133//130 149//148
f 135//97 112//114 83//81
f 113//115 150//149 133//130
f 115//132 80//95 136//133
f 114//116 151//150 136//133
f 116//117 152//151 117//135
f 153//152 97//99 118//100
f 153//152 118//100 98//101
f 154//153 120//118 100//103
f 100//103 119//120 154//153
f 154//153 98//101 120//118
f 109//111 139//137 86//84
f 87//85 121//119 122//121
f 119//120 122//121 155//154
f 156//155 122//121 121//119
f 155//154 177//156 119//120
f 140//157 123//122 105//107
f 104//106 157//158 103//105
f 103//105 157//158 108//110
f 104//106 123//122 158//159
f 159//160 140//157 105//107
f 160//161 105//107 101//104
f 107//109 161//162 142//139
f 162//163 142//139 161//162
f 157//158 124//140 108//110
f 107//109 124//140 161//162
f 143//141 125//123 92//90
f 163//164 125//123 143//141
f 126//124 164//165 143//141
f 141//138 183//166 126//124
f 184//167 145//143 144//142
f 145//143 184//167 165//168
f 139//137 109//111 145//143
f 147//144 146//145 166//169
f 93//91 167//170 129//126
f 169//171 93//91 132//129
f 93//91 169//171 167//170
f 168//172 169//171 132//129
f 129//126 169//171 146//145
f 167//170 169//171 129//126
f 170//173 127//125 131//146
f 168//172 132//129 149//148
f 112//114 135//97 171//174
f 134//131 150//149 113//115
f 172//175 114//116 137//134
f 151//150 114//116 172//175
f 111//113 137//134 110//112
f 172//175 137//134 111//113
f 136//133 116//117 115//132
f 152//151 116//117 136//133
f 174//176 117//135 152//151
f 153//152 101//104 97//99
f 154//153 119//120 175//177
f 153//152 154//153 176//178
f 154//153 153//152 98//101
f 121//119 139//137 156//155
f 153//152 160//161 101//104
f 178//179 123//122 140//157
f 178//179 158//159 123//122
f 158//159 157//158 104//106
f 179//180 159//160 105//107
f 179//180 105//107 160//161
f 141//138 142//139 183//166
f 124//140 180//181 161//162
f 143//141 181//182 163//164
f 164//165 126//124 183//166
f 144//142 125//123 163//164
f 145//143 185//183 139//137
f 172//175 111//113 127//125
f 186//184 127//125 170//173
f 166//169 187//185 147//144
f 148//147 170//173 131//146
f 148//147 188//186 170//173
f 148//147 130//128 147//144
f 148//147 204//187 188//186
f 148//147 187//185 204//187
f 133//130 189//188 149//148
f 189//188 168//172 149//148
f 171//174 135//97 138//136
f 171//174 208//189 112//114
f 134//131 112//114 208//189
f 150//149 134//131 190//190
f 172//175 173//191 151//150
f 191//192 136//133 151//150
f 173//191 191//192 151//150
f 172//175 127//125 186//184
f 174//176 138//136 117//135
f 174//176 152//151 193//193
f 192//194 193//193 152//151
f 176//178 154//153 194//195
f 154//153 175//177 194//195
f 195//196 160//161 153//152
f 122//121 196//197 155//154
f 196//197 122//121 156//155
f 139//137 185//183 156//155
f 119//120 177//156 175//177
f 178//179 197//198 158//159
f 140//157 159//160 178//179
f 159//160 179//180 199//199
f 199//199 198//200 159//160
f 124//140 157//158 180//181
f 182//201 181//182 164//165
f 143//141 164//165 181//182
f 183//166 182//201 164//165
f 165//168 184//167 201//202
f 185//183 145//143 165//168
f 165//168 201//202 202//203
f 202//203 185//183 165//168
f 166//169 203//204 204//187
f 187//185 148//147 147//144
f 188//186 206//205 170//173
f 187//185 166//169 204//187
f 207//206 168//172 189//188
f 134//131 208//189 190//190
f 209//207 190//190 208//189
f 241//208 133//130 150//149
f 189//188 133//130 241//208
f 192//194 152//151 136//133
f 173//191 172//175 186//184
f 174//176 171//174 138//136
f 194//195 244//209 176//178
f 176//178 244//209 153//152
f 212//210 213//211 155//154
f 177//156 155//154 213//211
f 177//156 194//195 175//177
f 158//159 180//181 157//158
f 159//160 214//212 178//179
f 159//160 198//200 214//212
f 232//213 199//199 179//180
f 160//161 195//196 179//180
f 215//214 162//163 161//162
f 180//181 216//215 161//162
f 161//162 216//215 215//214
f 162//163 183//166 142//139
f 181//182 217//216 163//164
f 200//217 181//182 182//201
f 182//201 219//218 218//219
f 219//218 182//201 183//166
f 217//216 144//142 163//164
f 144//142 217//216 184//167
f 170//173 206//205 186//184
f 205//220 166//169 146//145
f 203//204 166//169 205//220
f 205//220 238//221 203//204
f 205//220 146//145 169//171
f 204//187 203//204 220//222
f 168//172 221//223 205//220
f 205//220 169//171 168//172
f 168//172 207//206 221//223
f 189//188 222//224 239//225
f 171//174 223//226 208//189
f 190//190 209//207 224//227
f 224//227 150//149 190//190
f 225//228 192//194 226//229
f 226//229 192//194 136//133
f 191//192 173//191 210//230
f 226//229 191//192 243//231
f 186//184 206//205 173//191
f 210//230 173//191 206//205
f 227//232 171//174 174//176
f 228//233 227//232 174//176
f 171//174 227//232 223//226
f 193//193 228//233 174//176
f 153//152 244//209 195//196
f 196//197 212//210 155//154
f 213//211 211//234 177//156
f 211//234 264//235 177//156
f 194//195 177//156 264//235
f 156//155 229//236 196//197
f 156//155 202//203 229//236
f 202//203 156//155 185//183
f 158//159 216//215 180//181
f 158//159 197//198 216//215
f 214//212 198//200 230//237
f 231//238 198//200 199//199
f 195//196 232//213 179//180
f 232//213 195//196 246//239
f 233//240 219//218 162//163
f 162//163 215//214 233//240
f 218//219 200//217 182//201
f 181//182 200//217 217//216
f 217//216 201//202 184//167
f 235//241 202//203 201//202
f 201//202 234//242 235//241
f 204//187 220//222 237//243
f 238//221 220//222 203//204
f 239//225 221//223 207//206
f 188//186 236//244 206//205
f 189//188 241//208 222//224
f 207//206 189//188 239//225
f 239//225 222//224 240//245
f 208//189 257//246 209//207
f 224//227 241//208 150//149
f 136//133 191//192 226//229
f 191//192 210//230 243//231
f 210//230 242//247 243//231
f 228//233 193//193 192//194
f 192//194 225//228 228//233
f 245//248 194//195 264//235
f 198//200 231//238 230//237
f 199//199 248//249 231//238
f 214//212 197//198 178//179
f 246//239 199//199 232//213
f 246//239 247//250 199//199
f 247//250 248//249 199//199
f 244//209 246//239 195//196
f 183//166 162//163 219//218
f 249//251 250//252 215//214
f 215//214 250//252 233//240
f 200//217 251//253 217//216
f 219//218 252//254 218//219
f 201//202 217//216 234//242
f 253//255 235//241 234//242
f 229//236 202//203 235//241
f 210//230 206//205 242//247
f 236//244 255//256 206//205
f 242//247 206//205 255//256
f 205//220 254//257 238//221
f 287//258 237//243 220//222
f 270//259 287//258 220//222
f 204//187 237//243 188//186
f 272//260 220//222 238//221
f 238//221 254//257 272//260
f 255//256 236//244 188//186
f 274//261 221//223 239//225
f 274//261 239//225 240//245
f 256//262 240//245 222//224
f 223//226 257//246 208//189
f 209//207 258//263 224//227
f 209//207 276//264 258//263
f 224//227 258//263 259//265
f 222//224 224//227 259//265
f 279//266 225//228 226//229
f 226//229 243//231 260//267
f 243//231 262//268 261//269
f 262//268 243//231 242//247
f 228//233 225//228 263//270
f 228//233 263//270 227//232
f 194//195 245//248 244//209
f 229//236 212//210 196//197
f 211//234 247//250 264//235
f 211//234 213//211 247//250
f 212//210 229//236 265//271
f 266//272 213//211 212//210
f 212//210 265//271 266//272
f 235//241 286//273 229//236
f 214//212 216//215 197//198
f 230//237 249//251 214//212
f 245//248 246//239 244//209
f 233//240 250//252 252//254
f 216//215 249//251 215//214
f 217//216 251//253 234//242
f 218//219 267//274 200//217
f 252//254 268//275 218//219
f 200//217 267//274 251//253
f 267//274 253//255 251//253
f 253//255 234//242 251//253
f 235//241 253//255 269//276
f 221//223 254//257 205//220
f 272//260 270//259 220//222
f 255//256 188//186 271//277
f 237//243 271//277 188//186
f 273//278 270//259 272//260
f 254//257 221//223 274//261
f 223//226 227//232 275//279
f 223//226 275//279 276//264
f 276//264 257//246 223//226
f 209//207 257//246 276//264
f 258//263 277//280 259//265
f 224//227 222//224 241//208
f 278//281 225//228 279//266
f 261//269 260//267 243//231
f 279//266 226//229 260//267
f 225//228 281//282 263//270
f 227//232 263//270 280//283
f 264//235 247//250 245//248
f 213//211 266//272 282//284
f 213//211 282//284 247//250
f 214//212 249//251 216//215
f 230//237 231//238 249//251
f 249//251 283//285 250//252
f 245//248 247//250 246//239
f 248//249 284//286 231//238
f 252//254 219//218 233//240
f 285//287 218//219 268//275
f 218//219 285//287 267//274
f 235//241 269//276 286//273
f 269//276 253//255 298//288
f 254//257 288//289 272//260
f 273//278 272//260 288//289
f 299//290 270//259 273//278
f 300//291 255//256 271//277
f 288//289 274//261 240//245
f 289//292 288//289 240//245
f 256//262 222//224 259//265
f 240//245 256//262 289//292
f 258//263 290//293 277//280
f 259//265 277//280 256//262
f 262//268 291//294 261//269
f 262//268 242//247 255//256
f 292//295 280//283 263//270
f 248//249 247//250 282//284
f 265//271 229//236 293//296
f 286//273 293//296 229//236
f 282//284 266//272 265//271
f 283//285 249//251 231//238
f 284//286 248//249 294//297
f 250//252 283//285 252//254
f 252//254 283//285 295//298
f 295//298 268//275 252//254
f 268//275 296//299 285//287
f 297//300 253//255 285//287
f 267//274 285//287 253//255
f 286//273 269//276 298//288
f 297//300 298//288 253//255
f 287//258 270//259 299//290
f 301//301 300//291 271//277
f 271//277 287//258 301//301
f 287//258 271//277 237//243
f 273//278 288//289 302//302
f 274//261 288//289 254//257
f 273//278 303//303 299//290
f 304//304 289//292 256//262
f 227//232 280//283 275//279
f 276//264 275//279 290//293
f 277//280 290//293 305//305
f 304//304 256//262 277//280
f 304//304 277//280 305//305
f 225//228 306//306 281//282
f 225//228 278//281 306//306
f 308//307 278//281 279//266
f 260//267 261//269 291//294
f 307//308 279//266 260//267
f 307//308 260//267 291//294
f 307//308 308//307 279//266
f 262//268 255//256 300//291
f 300//291 291//294 262//268
f 281//282 310//309 263//270
f 263//270 310//309 292//295
f 310//309 281//282 306//306
f 265//271 293//296 311//310
f 286//273 298//288 293//296
f 284//286 283//285 231//238
f 295//298 296//299 268//275
f 296//299 297//300 285//287
f 311//310 298//288 297//300
f 299//290 301//301 287//258
f 300//291 301//301 312//311
f 302//302 313//312 273//278
f 313//312 303//303 273//278
f 288//289 289//292 302//302
f 314//313 302//302 289//292
f 304//304 314//313 289//292
f 290//293 275//279 305//305
f 276//264 290//293 258//263
f 308//307 306//306 278//281
f 309//314 307//308 291//294
f 291//294 317//315 309//314
f 292//295 315//316 280//283
f 275//279 280//283 315//316
f 293//296 298//288 311//310
f 265//271 294//297 282//284
f 248//249 282//284 294//297
f 284//286 295//298 283//285
f 294//297 316//317 284//286
f 311//310 297//300 296//299
f 317//315 300//291 312//311
f 301//301 318//318 312//311
f 319//319 313//312 302//302
f 324//320 313//312 319//319
f 314//313 319//319 302//302
f 304//304 321//321 314//313
f 305//305 275//279 315//316
f 305//305 315//316 304//304
f 322//322 310//309 306//306
f 307//308 326//323 308//307
f 307//308 309//314 326//323
f 291//294 300//291 317//315
f 321//321 292//295 310//309
f 311//310 294//297 265//271
f 294//297 311//310 316//317
f 316//317 295//298 284//286
f 316//317 311//310 296//299
f 316//317 296//299 295//298
f 301//301 299//290 318//318
f 320//324 318//318 303//303
f 303//303 318//318 299//290
f 304//304 315//316 321//321
f 326//323 306//306 308//307
f 323//325 326//323 309//314
f 315//316 292//295 321//321
f 323//325 320//324 303//303
f 303//303 313//312 323//325
f 325//326 313//312 324//320
f 324//320 319//319 314//313
f 321//321 324//320 314//313
f 326//323 325//326 322//322
f 322//322 306//306 326//323
f 309//314 318//318 320//324
f 317//315 318//318 309//314
f 310//309 324//320 321//321
f 322//322 324//320 310//309
f 317//315 312//311 318//318
f 325//326 323//325 313//312
f 325//326 324//320 322//322
f 309//314 320//324 323//325
f 325//326 326//323 323//325
