# Blender 4.0.2
# www.blender.org
mtllib 4proxph_l.mtl
o 4proxph_l.002
v -0.000635 -0.042227 -0.006605
v -0.000507 -0.041337 -0.006890
v 0.000024 -0.041391 -0.005103
v -0.000333 -0.042202 -0.005161
v -0.000996 -0.042671 -0.006156
v -0.001086 -0.041289 -0.007665
v -0.000932 -0.039771 -0.007793
v -0.000410 -0.039269 -0.006612
v -0.000142 -0.039488 -0.005463
v -0.001481 -0.042018 -0.007381
v -0.000872 -0.042477 -0.004738
v -0.001888 -0.042551 -0.006484
v -0.001787 -0.042573 -0.004918
v -0.000035 -0.041766 -0.004050
v -0.000003 -0.036650 -0.007064
v -0.003598 -0.042072 -0.006121
v 0.000397 -0.040996 -0.004472
v -0.001390 -0.041967 -0.003773
v -0.001804 -0.040545 -0.008305
v -0.001043 -0.037616 -0.008174
v 0.000362 -0.037299 -0.005940
v -0.002068 -0.041231 -0.007998
v -0.003628 -0.042063 -0.005532
v 0.000791 -0.037381 -0.004358
v -0.000363 -0.034503 -0.007175
v 0.000469 -0.035870 -0.005229
v -0.003866 -0.040929 -0.007574
v -0.003650 -0.041648 -0.007081
v -0.005030 -0.042448 -0.005706
v -0.003176 -0.041650 -0.004425
v -0.003771 -0.040843 -0.003865
v -0.001181 -0.041331 -0.003203
v 0.000739 -0.037770 -0.003787
v -0.002765 -0.036990 -0.008429
v -0.001855 -0.034277 -0.008297
v -0.006140 -0.041409 -0.007751
v -0.006175 -0.042502 -0.006067
v -0.004165 -0.041915 -0.004906
v -0.003779 -0.039085 -0.003243
v -0.001661 -0.039690 -0.002640
v -0.000045 -0.040205 -0.002914
v 0.000570 -0.040415 -0.003759
v -0.002404 -0.039771 -0.008622
v -0.003868 -0.039035 -0.008356
v 0.000235 -0.033724 -0.006018
v 0.000380 -0.036176 -0.004373
v 0.000182 -0.035082 -0.004707
v 0.000305 -0.033191 -0.004955
v -0.005742 -0.040509 -0.008299
v -0.005826 -0.040368 -0.003062
v -0.005723 -0.041928 -0.004144
v -0.002059 -0.038577 -0.002574
v -0.000803 -0.039544 -0.002538
v 0.000521 -0.036987 -0.003775
v -0.005220 -0.035134 -0.008143
v -0.003578 -0.034305 -0.008391
v -0.003125 -0.030937 -0.008501
v -0.001279 -0.031229 -0.008160
v 0.000303 -0.032153 -0.006417
v -0.007026 -0.041850 -0.006594
v -0.005215 -0.039611 -0.008460
v -0.005532 -0.038645 -0.002649
v -0.007206 -0.040653 -0.003323
v -0.003734 -0.037919 -0.003265
v 0.000141 -0.037936 -0.002913
v -0.006037 -0.037830 -0.008280
v -0.000414 -0.030790 -0.007488
v -0.002084 -0.028505 -0.008376
v -0.000187 -0.034463 -0.004399
v -0.006692 -0.039423 -0.007893
v -0.006706 -0.042250 -0.004917
v -0.007225 -0.038956 -0.002778
v -0.007106 -0.041787 -0.004235
v -0.001880 -0.037506 -0.002797
v -0.003718 -0.037325 -0.003439
v -0.000282 -0.037911 -0.002751
v -0.006239 -0.035428 -0.007781
v -0.005129 -0.029657 -0.007764
v 0.000944 -0.030488 -0.005396
v -0.001536 -0.034324 -0.004018
v -0.001557 -0.035757 -0.003847
v -0.007131 -0.040926 -0.007147
v -0.007335 -0.041850 -0.005613
v -0.006034 -0.037651 -0.002754
v -0.001491 -0.036828 -0.003394
v -0.006789 -0.033138 -0.006785
v -0.003282 -0.027791 -0.008335
v 0.000200 -0.023653 -0.006873
v -0.001082 -0.023454 -0.007776
v 0.001269 -0.027336 -0.005532
v -0.001192 -0.033377 -0.004069
v 0.000521 -0.031043 -0.004799
v -0.006991 -0.037243 -0.007482
v -0.008258 -0.037308 -0.003481
v -0.007849 -0.040160 -0.003444
v -0.007507 -0.036216 -0.003395
v -0.007741 -0.041122 -0.004117
v -0.003210 -0.036041 -0.004280
v -0.004825 -0.036056 -0.003958
v -0.007484 -0.036056 -0.006842
v -0.006183 -0.027320 -0.006320
v -0.004177 -0.025254 -0.007667
v -0.003817 -0.029359 -0.003398
v -0.005068 -0.034321 -0.004093
v -0.001475 -0.028497 -0.003525
v -0.007705 -0.041196 -0.005354
v -0.008400 -0.038976 -0.003781
v -0.004015 -0.035755 -0.004214
v -0.007357 -0.033869 -0.006135
v -0.008001 -0.036331 -0.005827
v -0.005395 -0.024881 -0.006690
v 0.001568 -0.026989 -0.004758
v -0.006666 -0.033212 -0.004194
v -0.007641 -0.038996 -0.005549
v -0.006030 -0.036792 -0.003440
v -0.006575 -0.035308 -0.003984
v -0.008068 -0.035517 -0.005013
v -0.007333 -0.033395 -0.004819
v -0.006900 -0.029818 -0.005759
v -0.002090 -0.023928 -0.008035
v -0.007087 -0.027441 -0.004679
v -0.002853 -0.028350 -0.003230
v -0.006307 -0.030420 -0.004205
v -0.006941 -0.031695 -0.004537
v 0.000945 -0.029266 -0.004738
v -0.008322 -0.039637 -0.004274
v -0.007935 -0.035516 -0.004195
v -0.008422 -0.036902 -0.003809
v -0.007279 -0.034666 -0.004176
v -0.007073 -0.030570 -0.004931
v -0.005155 -0.020096 -0.005916
v 0.001305 -0.027165 -0.004211
v -0.006075 -0.028933 -0.004035
v 0.000518 -0.016736 -0.006394
v 0.001230 -0.017763 -0.005791
v 0.001945 -0.023193 -0.004078
v -0.002268 -0.021646 -0.007847
v -0.006991 -0.028109 -0.004355
v -0.006676 -0.023910 -0.004196
v -0.006350 -0.026708 -0.003471
v -0.005121 -0.024820 -0.003188
v 0.000728 -0.026466 -0.003728
v -0.000172 -0.025970 -0.003566
v -0.000536 -0.014678 -0.006868
v 0.002270 -0.017591 -0.004065
v -0.001843 -0.016879 -0.007297
v -0.006106 -0.018425 -0.002926
v -0.005782 -0.018699 -0.004290
v -0.002529 -0.023969 -0.002750
v 0.002471 -0.017953 -0.002911
v -0.002540 -0.018127 -0.007347
v -0.003839 -0.020156 -0.006977
v -0.006649 -0.024414 -0.003482
v 0.001388 -0.023306 -0.003286
v 0.001852 -0.022424 -0.003379
v -0.006058 -0.024314 -0.002878
v -0.006003 -0.022746 -0.002727
v -0.004766 -0.020920 -0.002529
v -0.003572 -0.015180 -0.006317
v -0.006156 -0.020794 -0.002692
v -0.004926 -0.013594 -0.004574
v -0.005742 -0.013742 -0.002849
v 0.000248 -0.024897 -0.003533
v 0.002229 -0.013733 -0.004904
v 0.002424 -0.017496 -0.002405
v 0.002941 -0.015141 -0.003249
v -0.001793 -0.012056 -0.006655
v -0.002616 -0.011800 -0.006285
v -0.005907 -0.017626 -0.002175
v -0.006032 -0.014591 -0.001469
v -0.005799 -0.020623 -0.002417
v -0.002273 -0.017887 -0.001456
v -0.005064 -0.018049 -0.001708
v 0.000906 -0.021686 -0.002976
v 0.003563 -0.012986 -0.003432
v 0.002362 -0.017041 -0.001851
v 0.003724 -0.014019 -0.001213
v 0.001914 -0.020407 -0.002796
v -0.004219 -0.011104 -0.004979
v -0.005835 -0.015544 -0.001160
v 0.000046 -0.019620 -0.001866
v -0.000826 -0.022578 -0.002564
v 0.001344 -0.012209 -0.005826
v 0.003158 -0.011785 -0.004570
v 0.002544 -0.008564 -0.005260
v -0.000816 -0.010540 -0.006574
v 0.000471 -0.009046 -0.006131
v 0.004051 -0.013551 -0.001642
v 0.003257 -0.014877 -0.000843
v -0.005565 -0.017960 -0.001847
v -0.005472 -0.010941 -0.003630
v 0.000682 -0.017353 -0.001090
v -0.002926 -0.015258 -0.000599
v 0.003324 -0.009636 -0.004900
v 0.000402 -0.007660 -0.005813
v 0.001672 -0.018749 -0.002200
v 0.001781 -0.017308 -0.001512
v -0.004038 -0.008167 -0.004756
v -0.001939 -0.009056 -0.006064
v -0.006359 -0.011671 -0.001256
v -0.000217 -0.014558 -0.000195
v -0.005062 -0.015402 -0.000511
v 0.004505 -0.009561 -0.003917
v 0.004845 -0.012697 -0.001014
v 0.005062 -0.009709 -0.002711
v 0.002220 -0.015931 -0.000751
v -0.004693 -0.008505 -0.004400
v -0.006319 -0.012402 -0.000163
v -0.005452 -0.015025 -0.000447
v -0.005822 -0.009216 -0.003074
v 0.002159 -0.014543 0.000388
v -0.003861 -0.013787 0.000007
v 0.000964 -0.007128 -0.005367
v 0.005641 -0.009617 -0.001040
v 0.001477 -0.015755 -0.000402
v 0.002710 -0.014927 0.000056
v 0.004819 -0.012345 0.000615
v -0.001066 -0.007141 -0.005591
v -0.005727 -0.012978 0.000645
v -0.005483 -0.006572 -0.003434
v 0.001495 -0.013432 0.000847
v 0.000745 -0.012991 0.000668
v -0.002219 -0.011863 0.001011
v 0.003628 -0.008317 -0.004328
v 0.005034 -0.008252 -0.002677
v 0.002967 -0.014157 0.000774
v 0.003720 -0.013052 0.001372
v -0.003490 -0.006802 -0.004614
v -0.006653 -0.010136 0.000817
v -0.006543 -0.008566 -0.001036
v -0.005314 -0.013791 0.000390
v -0.006288 -0.006626 -0.001038
v 0.000662 -0.010885 0.002054
v -0.004248 -0.010989 0.001869
v 0.004610 -0.008477 -0.003561
v 0.002816 -0.006329 -0.004019
v 0.000657 -0.006128 -0.004869
v 0.005482 -0.008137 -0.001228
v 0.005440 -0.010730 0.000184
v -0.002667 -0.005949 -0.004412
v -0.000840 -0.005447 -0.004480
v -0.001960 -0.009789 0.002097
v 0.002169 -0.006016 -0.004014
v 0.004399 -0.010626 0.002187
v -0.005158 -0.005744 -0.002654
v -0.003382 -0.004941 -0.003420
v -0.005630 -0.005629 -0.001214
v 0.001774 -0.011082 0.001967
v -0.004280 -0.009124 0.002886
v -0.000324 -0.008567 0.002498
v 0.004459 -0.006890 -0.002553
v 0.001963 -0.005874 -0.003679
v -0.000169 -0.005604 -0.004461
v 0.005323 -0.008220 -0.000266
v 0.005008 -0.007520 -0.000477
v 0.004718 -0.009529 0.001745
v 0.003563 -0.011877 0.002138
v -0.006024 -0.009054 0.002467
v -0.006561 -0.008570 0.001484
v -0.005464 -0.009426 0.002766
v -0.004364 -0.004630 -0.001927
v -0.005929 -0.006531 0.000829
v -0.005872 -0.006917 0.002325
v -0.004928 -0.005064 -0.000247
v 0.002493 -0.011439 0.002192
v -0.002426 -0.007734 0.002703
v 0.001335 -0.008615 0.002783
v 0.003408 -0.005956 -0.002912
v 0.004002 -0.005988 -0.002027
v 0.000411 -0.005666 -0.004026
v 0.004331 -0.007975 0.001053
v 0.002971 -0.008880 0.003017
v -0.001429 -0.005311 -0.003679
v -0.004521 -0.005383 0.000571
v -0.005212 -0.006251 0.002377
v 0.003622 -0.005897 -0.002251
v 0.004042 -0.006397 -0.000848
v 0.004303 -0.009417 0.002441
v 0.004103 -0.008147 0.002380
v -0.003097 -0.004769 -0.003057
v -0.003830 -0.004852 -0.000287
v -0.004143 -0.005884 0.002046
v -0.004523 -0.007478 0.003041
v -0.002365 -0.006485 0.002313
v -0.000175 -0.006974 0.002312
v 0.003536 -0.006335 -0.000602
v 0.001104 -0.006605 -0.001559
v 0.000832 -0.006321 -0.002713
v 0.003068 -0.006872 0.001071
v -0.005470 -0.007247 0.002767
v 0.002380 -0.007995 0.002836
v -0.004068 -0.006471 0.002755
v 0.000923 -0.007055 0.002244
v 0.003505 -0.007677 0.002488
v -0.000760 -0.006235 -0.001846
v -0.002837 -0.005231 -0.001811
v -0.003013 -0.005554 0.000976
v -0.000621 -0.006258 0.001876
v 0.001637 -0.006632 0.000706
v 0.000030 -0.006429 0.000599
v -0.002001 -0.005769 0.000527
vn 0.8858 -0.1509 -0.4389
vn 0.9233 -0.2114 -0.3206
vn 0.6930 -0.5749 -0.4350
vn 0.7436 -0.6679 -0.0307
vn 0.2921 -0.9379 -0.1871
vn 0.5643 -0.3338 -0.7551
vn 0.7595 -0.1019 -0.6425
vn 0.9399 -0.1368 -0.3129
vn 0.9129 -0.1003 -0.3956
vn 0.1400 -0.7041 -0.6961
vn 0.2720 -0.9153 0.2970
vn -0.1573 -0.9395 -0.3044
vn -0.1722 -0.9431 0.2843
vn 0.6330 -0.6605 0.4038
vn 0.8597 -0.0092 -0.5107
vn -0.0702 -0.9754 -0.2091
vn 0.9458 -0.2433 -0.2150
vn -0.0653 -0.7561 0.6512
vn 0.2975 -0.2823 -0.9120
vn 0.5114 0.0044 -0.8593
vn 0.9444 -0.1136 -0.3084
vn -0.0462 -0.5454 -0.8369
vn -0.0883 -0.7757 -0.6249
vn -0.0261 -0.9785 0.2044
vn -0.2726 -0.7661 0.5820
vn 0.0016 -0.5404 0.8414
vn 0.9984 0.0485 -0.0281
vn 0.7522 0.0429 -0.6575
vn 0.9909 0.1165 -0.0674
vn -0.0259 -0.4979 -0.8669
vn 0.1486 -0.9886 0.0232
vn -0.0365 -0.5278 0.8486
vn 0.9334 -0.2284 0.2766
vn 0.0077 -0.1785 -0.9839
vn 0.9522 0.0320 0.3038
vn 0.0168 0.0264 -0.9995
vn 0.3242 0.0044 -0.9460
vn -0.2531 -0.5895 -0.7671
vn -0.1835 -0.9620 -0.2021
vn 0.1590 -0.8598 0.4852
vn -0.0329 -0.1880 0.9816
vn -0.2088 -0.2663 0.9410
vn 0.5157 -0.2794 0.8099
vn -0.0658 -0.1022 -0.9926
vn 0.8744 0.1443 0.4633
vn 0.6758 0.3733 0.6355
vn 0.9666 -0.0510 -0.2511
vn 0.9940 -0.1016 -0.0412
vn -0.1629 -0.3250 -0.9316
vn 0.0863 -0.3976 0.9135
vn 0.0792 -0.7768 0.6247
vn -0.1567 0.0653 0.9855
vn 0.1457 -0.1194 0.9821
vn 0.6972 0.4460 0.5613
vn -0.2372 0.0536 -0.9700
vn -0.0563 -0.0134 -0.9983
vn -0.0674 0.0205 -0.9975
vn 0.4534 -0.0305 -0.8908
vn 0.8527 -0.0918 -0.5142
vn -0.6465 -0.6432 -0.4103
vn 0.1382 -0.0405 0.9896
vn -0.2860 -0.4807 0.8289
vn -0.0383 0.1836 0.9823
vn 0.5575 0.2259 0.7989
vn -0.0058 -0.0931 -0.9956
vn -0.3358 0.0687 -0.9394
vn 0.1863 0.0419 -0.9816
vn 0.4614 0.0449 0.8861
vn -0.0252 0.2772 0.9605
vn -0.3183 -0.9201 0.2281
vn -0.3334 -0.0809 0.9393
vn -0.4257 -0.7578 0.4946
vn -0.0066 0.4458 0.8951
vn -0.0830 0.4550 0.8866
vn 0.2482 0.3592 0.8996
vn -0.5268 0.1390 -0.8385
vn 0.6995 -0.0758 -0.7106
vn -0.5200 0.0983 -0.8485
vn 0.9847 -0.1738 0.0089
vn 0.1118 -0.0126 0.9937
vn -0.0609 0.5205 0.8517
vn -0.7112 -0.0472 -0.7014
vn -0.8104 -0.2009 -0.5503
vn -0.7214 -0.6833 -0.1127
vn 0.0396 0.3301 0.9431
vn -0.7607 0.1508 -0.6314
vn -0.1946 0.0846 -0.9772
vn 0.6751 0.0075 -0.7377
vn 0.3993 0.0592 -0.9149
vn 0.8746 -0.0534 -0.4818
vn 0.6899 -0.1153 0.7147
vn -0.7656 0.0110 -0.6432
vn -0.6876 -0.3234 0.6501
vn -0.2574 0.3995 0.8799
vn -0.6727 0.1142 0.7311
vn -0.7703 -0.5357 0.3459
vn -0.0501 0.2638 0.9633
vn 0.1481 0.3135 0.9380
vn -0.8099 0.0851 -0.5804
vn -0.7945 0.1362 -0.5918
vn -0.4411 0.1387 -0.8867
vn 0.2832 -0.0260 0.9587
vn -0.1336 -0.1136 0.9845
vn -0.0106 -0.0069 0.9999
vn 0.2937 -0.1327 0.9467
vn -0.9373 -0.2917 -0.1908
vn -0.9316 -0.0999 0.3496
vn 0.1558 0.1282 0.9794
vn -0.9216 0.2137 -0.3240
vn -0.9284 0.0939 -0.3596
vn -0.9412 0.0083 -0.3377
vn 0.0087 0.0863 -0.9962
vn -0.6728 0.1435 -0.7257
vn 0.9906 -0.1352 0.0219
vn -0.9184 -0.0347 -0.3941
vn 0.1804 0.5169 0.8368
vn -0.9795 -0.1742 -0.1015
vn 0.0709 0.2733 0.9593
vn -0.9660 0.2465 -0.0777
vn -0.9606 0.1996 0.1936
vn -0.0512 0.1026 -0.9934
vn -0.9563 0.0502 0.2880
vn -0.9929 0.0808 -0.0872
vn 0.6814 -0.2210 0.6977
vn 0.0450 -0.1092 0.9930
vn -0.4564 -0.0356 0.8891
vn -0.2000 0.0910 0.9756
vn -0.7128 0.1061 0.6932
vn -0.7950 0.4015 0.4547
vn -0.9418 0.1860 0.2800
vn -0.3634 0.2999 0.8820
vn -0.7640 0.1476 -0.6281
vn 0.7041 -0.2537 0.6633
vn -0.3275 -0.1125 0.9381
vn 0.7616 -0.0141 -0.6479
vn 0.5781 0.0281 -0.8155
vn 0.9937 -0.1121 0.0078
vn 0.9238 -0.0928 -0.3714
vn -0.8151 -0.1093 0.5689
vn -0.9764 0.1293 -0.1731
vn 0.0073 -0.1646 0.9863
vn 0.2135 -0.2522 0.9438
vn 0.2808 -0.1841 0.9419
vn 0.2841 0.0762 -0.9558
vn -0.0240 0.1269 -0.9916
vn -0.3164 0.1375 -0.9386
vn -0.5472 0.1468 -0.8240
vn -0.9976 0.0685 -0.0106
vn -0.8988 0.0078 0.4383
vn -0.9228 0.1292 -0.3629
vn -0.3409 -0.1946 0.9197
vn -0.0383 -0.1315 0.9906
vn 0.9900 -0.1367 0.0353
vn 0.3352 -0.1918 0.9224
vn 0.8057 -0.2057 0.5554
vn -0.2553 -0.1275 0.9584
vn -0.3180 -0.1220 0.9402
vn -0.0193 -0.2100 0.9775
vn 0.7426 -0.1364 -0.6557
vn -0.5882 0.1491 -0.7948
vn -0.8038 -0.0152 0.5947
vn -0.8180 0.0906 -0.5681
vn -0.9452 0.0172 -0.3259
vn 0.1520 -0.2116 0.9655
vn 0.2648 -0.2043 0.9424
vn 0.5583 -0.0639 -0.8272
vn 0.9127 -0.2325 -0.3362
vn 0.9008 -0.2886 0.3245
vn -0.2116 0.1483 -0.9660
vn -0.4493 0.1651 -0.8780
vn -0.8669 -0.1337 0.4802
vn -0.9904 -0.0992 0.0959
vn -0.2927 -0.1674 0.9415
vn -0.0629 -0.2967 0.9529
vn -0.1584 -0.3064 0.9386
vn 0.2178 -0.2415 0.9457
vn 0.8260 -0.3013 -0.4763
vn 0.8194 -0.5445 -0.1792
vn 0.7068 -0.4631 0.5347
vn 0.4873 -0.2551 0.8351
vn -0.0033 0.1506 -0.9886
vn -0.6631 0.0934 -0.7427
vn -0.8715 -0.1555 0.4650
vn 0.1757 -0.3102 0.9343
vn 0.6861 -0.2221 -0.6928
vn 0.4724 0.2124 -0.8554
vn 0.2413 0.1612 -0.9570
vn 0.8256 -0.5250 -0.2069
vn 0.7885 -0.5586 0.2575
vn -0.5496 -0.2184 0.8064
vn -0.6287 -0.3757 0.6809
vn -0.8473 0.0047 -0.5310
vn 0.1233 -0.3948 0.9104
vn -0.0307 -0.3618 0.9318
vn 0.5749 0.0078 -0.8182
vn 0.4823 -0.3245 0.8137
vn 0.4643 -0.4575 0.7584
vn -0.4912 0.1994 -0.8479
vn -0.2740 0.2464 -0.9296
vn -0.9779 -0.0715 -0.1967
vn -0.1225 -0.3906 0.9124
vn 0.0969 -0.4583 0.8835
vn -0.0383 -0.4310 0.9015
vn 0.7840 -0.0535 -0.6185
vn 0.1508 0.3781 -0.9134
vn 0.9158 -0.1303 -0.3799
vn 0.8890 -0.4376 -0.1352
vn 0.4280 -0.5910 0.6838
vn -0.6411 0.0882 -0.7623
vn -0.9546 -0.2265 0.1936
vn -0.8799 0.0126 -0.4750
vn -0.0973 -0.5318 0.8413
vn 0.7172 -0.6004 0.3538
vn 0.2830 0.4493 -0.8473
vn -0.1135 0.4286 -0.8963
vn 0.9963 -0.0390 -0.0770
vn 0.8283 -0.4337 0.3546
vn 0.4064 -0.6792 0.6112
vn -0.5919 -0.4009 0.6992
vn -0.6947 0.4131 -0.5888
vn -0.2703 -0.4404 0.8561
vn -0.2835 -0.4432 0.8504
vn -0.0011 -0.4828 0.8757
vn 0.6054 0.2781 -0.7458
vn 0.4787 0.6129 -0.6287
vn 0.8974 0.2201 -0.3823
vn 0.7684 0.2381 -0.5940
vn 0.9645 -0.1403 0.2236
vn 0.4649 -0.5682 0.6790
vn 0.2008 -0.6355 0.7456
vn -0.3947 0.4094 -0.8225
vn -0.9649 -0.1459 0.2183
vn -0.9821 0.0546 -0.1801
vn -0.1325 -0.4916 0.8607
vn -0.9244 0.3710 -0.0879
vn 0.0749 -0.4979 0.8640
vn 0.2094 0.6359 -0.7428
vn 0.9512 0.3008 -0.0687
vn -0.2595 0.5415 -0.7996
vn -0.1370 -0.4012 0.9057
vn 0.0373 -0.3575 0.9332
vn 0.3508 0.8472 -0.3989
vn 0.0503 0.8555 -0.5154
vn 0.6384 -0.2090 0.7408
vn -0.6402 0.6296 -0.4402
vn -0.2707 0.7665 -0.5825
vn -0.7780 0.6260 -0.0534
vn 0.0841 -0.2710 0.9589
vn -0.0634 -0.0897 0.9940
vn 0.7786 0.4927 -0.3886
vn 0.1109 0.9937 -0.0187
vn 0.4288 0.8279 -0.3615
vn 0.2200 0.8917 -0.3956
vn 0.8927 0.3121 0.3252
vn 0.7597 0.5818 0.2905
vn 0.8938 0.1108 0.4346
vn 0.2073 -0.4117 0.8875
vn -0.2113 -0.3865 0.8978
vn -0.7221 -0.1098 0.6830
vn -0.9604 0.0888 0.2641
vn -0.3106 0.9401 -0.1402
vn -0.7745 0.4063 0.4849
vn -0.7806 0.5991 0.1784
vn -0.4804 0.8348 0.2688
vn -0.3100 -0.9098 0.2761
vn -0.3087 -0.2959 0.9040
vn 0.1493 0.0338 0.9882
vn -0.1573 -0.0130 0.9875
vn 0.5316 0.8467 -0.0220
vn 0.1645 0.9757 0.1446
vn 0.7350 0.5625 0.3786
vn 0.1146 -0.0105 0.9934
vn -0.2617 0.8707 0.4164
vn -0.4202 0.7084 0.5671
vn 0.0869 0.9950 0.0487
vn 0.5076 0.7961 0.3294
vn 0.6457 -0.0000 0.7636
vn 0.6958 0.4269 0.5777
vn 0.2550 0.9589 0.1241
vn 0.1543 0.9512 0.2673
vn 0.0031 0.8714 0.4906
vn -0.0514 0.1115 0.9924
vn 0.0701 0.3818 0.9216
vn 0.1388 0.5999 0.7880
vn 0.0898 0.9555 0.2811
vn 0.0587 0.9465 0.3172
vn -0.0004 0.9910 0.1341
vn 0.3388 0.8641 0.3722
vn 0.1723 0.9749 -0.1410
vn -0.4424 0.2088 0.8722
vn -0.0033 0.3693 0.9293
vn 0.0510 0.5215 0.8517
vn 0.1280 0.6063 0.7848
vn 0.4024 0.6447 0.6500
vn 0.3014 0.9388 0.1666
vn 0.4819 0.8608 0.1639
vn 0.1812 0.9262 0.3307
vn 0.1760 0.8429 0.5085
vn 0.0964 0.9943 0.0447
vn 0.1972 0.7538 -0.6268
vn 0.2874 0.9555 0.0668
s 1
f 2//1 3//2 1//3
f 1//3 3//2 4//4
f 5//5 1//3 4//4
f 2//1 1//3 6//6
f 2//1 7//7 8//8
f 9//9 3//2 2//1
f 2//1 8//8 9//9
f 1//3 5//5 10//10
f 4//4 11//11 5//5
f 7//7 2//1 6//6
f 1//3 10//10 6//6
f 10//10 5//5 12//12
f 13//13 12//12 5//5
f 11//11 13//13 5//5
f 14//14 11//11 4//4
f 8//8 7//7 15//15
f 16//16 12//12 13//13
f 3//2 17//17 4//4
f 18//18 13//13 11//11
f 18//18 11//11 14//14
f 7//7 6//6 19//19
f 15//15 7//7 20//20
f 9//9 8//8 21//21
f 8//8 15//15 21//21
f 6//6 10//10 22//22
f 12//12 16//16 28//23
f 10//10 12//12 28//23
f 23//24 16//16 13//13
f 13//13 18//18 30//25
f 4//4 17//17 14//14
f 14//14 32//26 18//18
f 6//6 22//22 19//19
f 19//19 20//20 7//7
f 24//27 3//2 9//9
f 25//28 15//15 20//20
f 9//9 21//21 24//27
f 21//21 26//29 24//27
f 26//29 21//21 15//15
f 22//22 10//10 28//23
f 27//30 22//22 28//23
f 28//23 16//16 29//31
f 23//24 29//31 16//16
f 23//24 13//13 30//25
f 30//25 18//18 31//32
f 31//32 18//18 32//26
f 14//14 17//17 42//33
f 19//19 43//34 20//20
f 3//2 24//27 33//35
f 43//34 34//36 20//20
f 34//36 35//37 20//20
f 35//37 25//28 20//20
f 43//34 19//19 22//22
f 43//34 22//22 27//30
f 27//30 28//23 36//38
f 37//39 28//23 29//31
f 23//24 38//40 29//31
f 38//40 23//24 30//25
f 39//41 31//32 32//26
f 39//41 32//26 40//42
f 32//26 14//14 41//43
f 41//43 14//14 42//33
f 42//33 17//17 33//35
f 33//35 17//17 3//2
f 44//44 34//36 43//34
f 24//27 26//29 47//45
f 46//46 24//27 47//45
f 45//47 26//29 15//15
f 26//29 45//47 48//48
f 27//30 44//44 43//34
f 36//38 49//49 27//30
f 36//38 28//23 37//39
f 30//25 31//32 38//40
f 50//50 51//51 31//32
f 39//41 40//42 52//52
f 53//53 40//42 32//26
f 53//53 32//26 41//43
f 24//27 54//54 33//35
f 55//55 34//36 44//44
f 56//56 34//36 55//55
f 35//37 34//36 56//56
f 56//56 57//57 35//37
f 58//58 35//37 57//57
f 45//47 15//15 25//28
f 25//28 35//37 58//58
f 59//59 25//28 58//58
f 46//46 54//54 24//27
f 48//48 47//45 26//29
f 36//38 37//39 60//60
f 51//51 38//40 31//32
f 62//61 50//50 31//32
f 39//41 62//61 31//32
f 51//51 50//50 63//62
f 64//63 39//41 52//52
f 40//42 53//53 52//52
f 65//64 41//43 42//33
f 65//64 42//33 33//35
f 54//54 65//64 33//35
f 61//65 66//66 44//44
f 55//55 57//57 56//56
f 68//67 58//58 57//57
f 59//59 45//47 25//28
f 47//45 69//68 46//46
f 81//69 54//54 46//46
f 49//49 61//65 44//44
f 44//44 27//30 49//49
f 71//70 29//31 51//51
f 71//70 37//39 29//31
f 29//31 38//40 51//51
f 60//60 37//39 71//70
f 50//50 62//61 72//71
f 63//62 73//72 51//51
f 51//51 73//72 71//70
f 39//41 64//63 62//61
f 75//73 64//63 74//74
f 64//63 52//52 74//74
f 74//74 52//52 53//53
f 74//74 53//53 76//75
f 76//75 53//53 41//43
f 41//43 65//64 76//75
f 66//66 55//55 44//44
f 77//76 55//55 66//66
f 58//58 67//77 59//59
f 55//55 78//78 57//57
f 48//48 45//47 79//79
f 59//59 79//79 45//47
f 80//80 81//69 46//46
f 69//68 80//80 46//46
f 81//69 85//81 65//64
f 54//54 81//69 65//64
f 49//49 70//82 66//66
f 66//66 61//65 49//49
f 49//49 82//83 70//82
f 49//49 36//38 82//83
f 60//60 82//83 36//38
f 83//84 60//60 71//70
f 72//71 63//62 50//50
f 72//71 62//61 84//85
f 62//61 64//63 75//73
f 62//61 75//73 84//85
f 85//81 75//73 74//74
f 65//64 85//81 76//75
f 77//76 78//78 55//55
f 78//78 77//76 86//86
f 87//87 68//67 57//57
f 67//77 58//58 88//88
f 58//58 68//67 89//89
f 89//89 88//88 58//58
f 78//78 87//87 57//57
f 79//79 59//59 90//90
f 92//91 47//45 48//48
f 69//68 47//45 92//91
f 66//66 70//82 93//92
f 73//72 83//84 71//70
f 72//71 95//93 63//62
f 96//94 94//95 72//71
f 96//94 72//71 84//85
f 97//96 73//72 63//62
f 97//96 63//62 95//93
f 98//97 99//98 75//73
f 75//73 85//81 98//97
f 76//75 85//81 74//74
f 93//92 77//76 66//66
f 77//76 100//99 86//86
f 100//99 77//76 93//92
f 90//90 59//59 67//77
f 90//90 67//77 88//88
f 86//86 101//100 78//78
f 78//78 102//101 87//87
f 92//91 48//48 79//79
f 69//68 91//102 80//80
f 80//80 98//97 81//69
f 80//80 103//103 104//104
f 80//80 104//104 98//97
f 80//80 91//102 103//103
f 105//105 91//102 92//91
f 69//68 92//91 91//102
f 106//106 82//83 60//60
f 60//60 83//84 106//106
f 97//96 83//84 73//72
f 106//106 83//84 97//96
f 94//95 95//93 72//71
f 95//93 94//95 107//107
f 108//108 99//98 98//97
f 98//97 85//81 81//69
f 100//99 109//109 86//86
f 109//109 119//110 86//86
f 110//111 109//109 100//99
f 120//112 68//67 87//87
f 86//86 119//110 101//100
f 111//113 102//101 78//78
f 79//79 90//90 112//114
f 82//83 106//106 114//115
f 70//82 82//83 114//115
f 115//116 84//85 75//73
f 96//94 84//85 115//116
f 95//93 107//107 126//117
f 95//93 126//117 97//96
f 115//116 75//73 99//98
f 99//98 116//118 115//116
f 99//98 108//108 104//104
f 114//115 93//92 70//82
f 109//109 110//111 117//119
f 118//120 119//110 109//109
f 100//99 93//92 110//111
f 68//67 120//112 89//89
f 102//101 137//121 120//112
f 120//112 87//87 102//101
f 111//113 78//78 101//100
f 119//110 130//122 121//123
f 125//124 92//91 79//79
f 79//79 112//114 125//124
f 91//102 122//125 103//103
f 105//105 122//125 91//102
f 104//104 103//103 123//126
f 123//126 113//127 104//104
f 98//97 104//104 108//108
f 116//118 104//104 113//127
f 124//128 113//127 123//126
f 105//105 92//91 125//124
f 114//115 106//106 126//117
f 97//96 126//117 106//106
f 96//94 115//116 116//118
f 127//129 128//130 96//94
f 96//94 128//130 94//95
f 96//94 129//131 127//129
f 129//131 96//94 116//118
f 104//104 116//118 99//98
f 110//111 93//92 114//115
f 109//109 117//119 118//120
f 124//128 130//122 118//120
f 119//110 118//120 130//122
f 111//113 101//100 131//132
f 125//124 112//114 132//133
f 133//134 123//126 103//103
f 128//130 110//111 114//115
f 126//117 107//107 128//130
f 94//95 128//130 107//107
f 127//129 118//120 117//119
f 110//111 128//130 117//119
f 135//135 88//88 134//136
f 88//88 89//89 134//136
f 136//137 112//114 90//90
f 90//90 88//88 135//135
f 145//138 136//137 90//90
f 135//135 145//138 90//90
f 120//112 137//121 89//89
f 121//123 101//100 119//110
f 138//139 121//123 130//122
f 131//132 101//100 121//123
f 131//132 121//123 139//140
f 124//128 123//126 130//122
f 138//139 123//126 133//134
f 141//141 133//134 103//103
f 113//127 129//131 116//118
f 113//127 124//128 129//131
f 129//131 124//128 118//120
f 142//142 125//124 132//133
f 125//124 142//142 143//143
f 128//130 114//115 126//117
f 117//119 128//130 127//129
f 129//131 118//120 127//129
f 123//126 138//139 130//122
f 89//89 144//144 134//136
f 146//145 89//89 137//121
f 144//144 89//89 146//145
f 151//146 137//121 102//101
f 151//146 102//101 152//147
f 102//101 111//113 152//147
f 147//148 139//140 153//149
f 131//132 139//140 148//150
f 139//140 147//148 148//150
f 136//137 132//133 112//114
f 103//103 122//125 141//141
f 141//141 140//151 133//134
f 138//139 133//134 140//151
f 141//141 122//125 149//152
f 125//124 143//143 105//105
f 145//138 150//153 136//137
f 137//121 151//146 146//145
f 138//139 153//149 121//123
f 153//149 139//140 121//123
f 142//142 132//133 154//154
f 155//155 154//154 132//133
f 136//137 155//155 132//133
f 149//152 122//125 105//105
f 140//151 141//141 156//156
f 141//141 157//157 156//156
f 157//157 141//141 158//158
f 158//158 141//141 149//152
f 134//136 164//159 135//135
f 164//159 145//138 135//135
f 155//155 136//137 150//153
f 151//146 152//147 159//160
f 152//147 111//113 131//132
f 153//149 138//139 140//151
f 160//161 147//148 153//149
f 131//132 148//150 161//162
f 147//148 162//163 148//150
f 161//162 148//150 162//163
f 143//143 182//164 105//105
f 182//164 149//152 105//105
f 156//156 153//149 140//151
f 142//142 163//165 143//143
f 183//166 134//136 144//144
f 164//159 166//167 145//138
f 166//167 150//153 145//138
f 165//168 150//153 166//167
f 150//153 165//168 155//155
f 144//144 146//145 167//169
f 168//170 146//145 151//146
f 168//170 167//169 146//145
f 168//170 151//146 159//160
f 153//149 156//156 157//157
f 153//149 157//157 160//161
f 147//148 160//161 169//171
f 169//171 170//172 147//148
f 170//172 162//163 147//148
f 157//157 158//158 171//173
f 158//158 149//152 182//164
f 172//174 158//158 182//164
f 171//173 158//158 173//175
f 154//154 174//176 142//142
f 163//165 142//142 174//176
f 183//166 164//159 134//136
f 166//167 164//159 175//177
f 166//167 177//178 165//168
f 177//178 176//179 165//168
f 165//168 178//180 155//155
f 154//154 155//155 178//180
f 152//147 131//132 159//160
f 167//169 186//181 144//144
f 161//162 179//182 159//160
f 179//182 168//170 159//160
f 159//160 131//132 161//162
f 169//171 180//183 170//172
f 182//164 181//184 172//174
f 173//175 158//158 172//174
f 174//176 143//143 163//165
f 174//176 182//164 143//143
f 164//159 183//166 184//185
f 183//166 144//144 185//186
f 186//181 187//187 144//144
f 185//186 144//144 187//187
f 164//159 184//185 175//177
f 166//167 175//177 188//188
f 177//178 189//189 176//179
f 171//173 160//161 157//157
f 160//161 171//173 190//190
f 171//173 173//175 190//190
f 190//190 169//171 160//161
f 209//191 180//183 169//171
f 169//171 190//190 209//191
f 162//163 191//192 161//162
f 179//182 161//162 191//192
f 192//193 172//174 181//184
f 172//174 193//194 173//175
f 183//166 194//195 184//185
f 166//167 188//188 177//178
f 154//154 178//180 174//176
f 165//168 196//196 178//180
f 196//196 165//168 176//179
f 197//197 176//179 189//189
f 174//176 178//180 196//196
f 168//170 179//182 198//198
f 186//181 167//169 168//170
f 199//199 186//181 168//170
f 190//190 173//175 209//191
f 200//200 162//163 170//172
f 191//192 162//163 200//200
f 192//193 193//194 172//174
f 192//193 201//201 193//194
f 173//175 193//194 212//202
f 173//175 212//202 202//203
f 181//184 182//164 174//176
f 185//186 194//195 183//166
f 203//204 184//185 194//195
f 175//177 184//185 203//204
f 185//186 187//187 195//205
f 187//187 186//181 195//205
f 205//206 204//207 175//177
f 175//177 204//207 188//188
f 197//197 196//196 176//179
f 197//197 189//189 206//208
f 204//207 177//178 188//188
f 204//207 189//189 177//178
f 174//176 196//196 181//184
f 168//170 198//198 199//199
f 207//209 198//198 179//182
f 179//182 191//192 207//209
f 208//210 200//200 170//172
f 170//172 180//183 209//191
f 209//191 208//210 170//172
f 173//175 202//203 209//191
f 207//209 191//192 210//211
f 192//193 181//184 197//197
f 201//201 192//193 211//212
f 215//213 211//212 192//193
f 193//194 201//201 212//202
f 195//205 213//214 185//186
f 195//205 186//181 199//199
f 218//215 195//205 199//199
f 203//204 205//206 175//177
f 205//206 214//216 204//207
f 196//196 197//197 181//184
f 215//213 192//193 197//197
f 215//213 197//197 206//208
f 204//207 217//217 189//189
f 189//189 217//217 216//218
f 210//211 191//192 200//200
f 209//191 219//219 208//210
f 220//220 207//209 210//211
f 211//212 221//221 201//201
f 212//202 201//201 222//222
f 212//202 222//222 223//223
f 194//195 185//186 203//204
f 203//204 185//186 224//224
f 224//224 185//186 236//225
f 236//225 185//186 213//214
f 213//214 195//205 218//215
f 205//206 203//204 225//226
f 225//226 203//204 235//227
f 235//227 203//204 224//224
f 217//217 204//207 239//228
f 214//216 239//228 204//207
f 216//218 206//208 189//189
f 216//218 215//213 206//208
f 227//229 216//218 217//217
f 227//229 226//230 216//218
f 198//198 207//209 220//220
f 198//198 220//220 228//231
f 218//215 199//199 228//231
f 199//199 198//198 228//231
f 229//232 200//200 208//210
f 200//200 229//232 230//233
f 210//211 200//200 230//233
f 231//234 219//219 209//191
f 210//211 230//233 220//220
f 232//235 220//220 230//233
f 222//222 201//201 221//221
f 211//212 215//213 216//218
f 216//218 226//230 211//212
f 212//202 223//223 234//236
f 231//234 202//203 212//202
f 235//227 224//224 236//225
f 213//214 237//237 236//225
f 218//215 237//237 213//214
f 238//238 214//216 205//206
f 225//226 238//238 205//206
f 228//231 240//239 218//215
f 208//210 219//219 229//232
f 223//223 222//222 233//240
f 234//236 223//223 242//241
f 234//236 231//234 212//202
f 223//223 233//240 242//241
f 243//242 236//225 237//237
f 237//237 218//215 241//243
f 217//217 244//244 227//229
f 228//231 220//220 245//245
f 246//246 240//239 228//231
f 246//246 228//231 245//245
f 241//243 218//215 240//239
f 231//234 209//191 202//203
f 220//220 232//235 245//245
f 247//247 245//245 232//235
f 234//236 242//241 249//248
f 219//219 231//234 234//236
f 233//240 250//249 242//241
f 236//225 251//250 235//227
f 236//225 243//242 252//251
f 252//251 268//252 236//225
f 238//238 225//226 251//250
f 251//250 225//226 235//227
f 252//251 243//242 253//253
f 243//242 237//237 253//253
f 253//253 237//237 241//243
f 214//216 238//238 254//254
f 254//254 238//238 255//255
f 217//217 239//228 244//244
f 256//256 244//244 239//228
f 254//254 256//256 239//228
f 239//228 214//216 254//254
f 257//257 227//229 244//244
f 226//230 227//229 257//257
f 257//257 265//258 226//230
f 226//230 221//221 211//212
f 226//230 265//258 221//221
f 258//259 229//232 219//219
f 259//260 229//232 258//259
f 230//233 229//232 259//260
f 230//233 259//260 232//235
f 261//261 245//245 247//247
f 259//260 263//262 232//235
f 262//263 232//235 263//262
f 262//263 264//264 232//235
f 264//264 247//247 232//235
f 233//240 222//222 221//221
f 248//265 233//240 221//221
f 233//240 248//265 265//258
f 249//248 260//266 234//236
f 242//241 250//249 266//267
f 265//258 267//268 233//240
f 250//249 233//240 267//268
f 236//225 268//252 251//250
f 251//250 269//269 238//238
f 253//253 270//270 252//251
f 269//269 255//255 238//238
f 254//254 271//271 256//256
f 272//272 257//257 244//244
f 261//261 246//246 245//245
f 240//239 246//246 241//243
f 241//243 270//270 253//253
f 260//266 258//259 219//219
f 219//219 234//236 260//266
f 261//261 247//247 264//264
f 274//273 264//264 262//263
f 275//274 274//273 262//263
f 221//221 265//258 248//265
f 266//267 249//248 242//241
f 268//252 269//269 251//250
f 268//252 276//275 269//269
f 268//252 252//251 276//275
f 255//255 269//269 277//276
f 271//271 254//254 255//255
f 278//277 244//244 256//256
f 279//278 256//256 271//271
f 244//244 278//277 272//272
f 265//258 257//257 272//272
f 246//246 273//279 241//243
f 270//270 241//243 273//279
f 261//261 264//264 281//280
f 262//263 263//262 275//274
f 259//260 258//259 263//262
f 275//274 282//281 274//273
f 265//258 272//272 267//268
f 283//282 260//266 249//248
f 266//267 283//282 249//248
f 266//267 285//283 284//284
f 285//283 266//267 250//249
f 285//283 250//249 267//268
f 252//251 286//285 276//275
f 252//251 288//286 287//287
f 287//287 286//285 252//251
f 252//251 270//270 288//286
f 289//288 271//271 255//255
f 277//276 289//288 255//255
f 278//277 256//256 279//278
f 280//289 246//246 261//261
f 246//246 280//289 273//279
f 263//262 258//259 290//290
f 290//290 258//259 260//266
f 283//282 290//290 260//266
f 280//289 261//261 281//280
f 281//280 264//264 274//273
f 291//291 267//268 272//272
f 290//290 283//282 292//292
f 283//282 266//267 292//292
f 284//284 292//292 266//267
f 285//283 267//268 293//293
f 286//285 269//269 276//275
f 277//276 269//269 286//285
f 294//294 271//271 289//288
f 286//285 289//288 277//276
f 294//294 279//278 271//271
f 279//278 272//272 278//277
f 273//279 295//295 270//270
f 273//279 280//289 295//295
f 295//295 288//286 270//270
f 280//289 281//280 296//296
f 281//280 274//273 297//297
f 297//297 274//273 282//281
f 275//274 263//262 290//290
f 282//281 275//274 292//292
f 284//284 297//297 282//281
f 282//281 292//292 284//284
f 291//291 293//293 267//268
f 292//292 275//274 290//290
f 285//283 298//298 284//284
f 285//283 293//293 298//298
f 299//299 286//285 287//287
f 288//286 295//295 287//287
f 293//293 294//294 289//288
f 296//296 295//295 280//289
f 296//296 281//280 297//297
f 297//297 284//284 298//298
f 272//272 294//294 291//291
f 294//294 272//272 279//278
f 293//293 291//291 294//294
f 300//300 299//299 287//287
f 299//299 289//288 286//285
f 287//287 295//295 300//300
f 289//288 299//299 298//298
f 289//288 298//298 293//293
f 301//301 295//295 296//296
f 295//295 301//301 300//300
f 296//296 297//297 301//301
f 301//301 297//297 298//298
f 299//299 301//301 298//298
f 301//301 299//299 300//300
