# Blender 4.0.2
# www.blender.org
mtllib 5mc_l.mtl
o 5mc_l.002
v -0.003542 0.002408 -0.004819
v -0.002875 0.001884 -0.003860
v -0.002903 0.000926 -0.005520
v -0.003716 0.001167 -0.005830
v -0.004143 0.004088 -0.003068
v -0.003029 0.002338 -0.003335
v -0.002008 0.000546 -0.004789
v -0.002397 0.000314 -0.005377
v -0.003004 0.003067 -0.002618
v -0.001222 0.001772 -0.003842
v -0.004946 0.001029 -0.005683
v -0.004614 0.003777 -0.004055
v -0.005644 0.003703 -0.003715
v -0.007077 0.000501 -0.004608
v -0.003152 -0.000954 -0.005968
v -0.004591 -0.001146 -0.006238
v -0.003745 0.003827 -0.001977
v -0.003226 0.003841 -0.001488
v -0.005086 0.004293 -0.001811
v 0.000427 0.003438 -0.001635
v 0.001343 0.001161 -0.004879
v -0.000182 0.001194 -0.005035
v -0.001217 0.000003 -0.005369
v -0.007857 -0.001756 -0.004950
v -0.006369 -0.002251 -0.006149
v -0.004243 0.003745 -0.001731
v -0.002994 0.004793 0.000257
v -0.003196 0.004571 -0.000344
v -0.000744 0.004124 0.000223
v 0.002692 0.002923 -0.002432
v -0.006954 0.002152 -0.002817
v -0.002247 -0.002731 -0.006113
v -0.006104 -0.006511 -0.007245
v -0.002808 0.004859 0.001657
v -0.000178 0.003979 0.001147
v -0.004058 0.003537 -0.000966
v 0.002681 0.003438 -0.000892
v 0.002373 0.001151 -0.004365
v -0.006095 0.003598 -0.002488
v -0.008035 0.000370 -0.003425
v -0.004320 -0.005768 -0.007160
v -0.000024 -0.000833 -0.005683
v -0.004960 -0.009131 -0.008089
v -0.003437 0.005024 0.001029
v -0.004034 0.004075 -0.000292
v -0.005199 0.003357 -0.000879
v -0.004445 0.002902 -0.001775
v 0.001465 0.003628 0.000834
v 0.003124 0.002291 -0.002627
v 0.001195 0.000337 -0.005330
v -0.005868 0.003617 -0.001297
v -0.007082 0.001026 0.000258
v -0.008205 0.000406 -0.002117
v -0.008695 -0.001164 -0.002301
v -0.008218 -0.002167 -0.004361
v -0.002668 -0.004761 -0.006383
v -0.000036 -0.001876 -0.005738
v 0.000803 -0.000779 -0.005349
v -0.007411 -0.005379 -0.005794
v -0.006798 -0.011840 -0.008689
v -0.006006 -0.013063 -0.009233
v -0.002273 0.003488 0.003294
v -0.004819 0.002801 -0.001185
v 0.000307 0.002929 0.002416
v 0.003268 0.003082 0.000590
v 0.003498 0.002586 -0.000819
v 0.002809 0.000290 -0.004276
v 0.003494 0.001683 -0.002063
v -0.006229 0.002421 0.000777
v -0.008235 -0.000775 -0.000274
v 0.000374 -0.002320 -0.005312
v -0.007383 -0.008057 -0.006701
v -0.005118 -0.013713 -0.009330
v -0.003312 0.004684 0.002212
v -0.003209 0.003642 0.003227
v -0.004784 0.003683 -0.000274
v -0.004432 0.003024 -0.001049
v 0.002941 0.002256 0.002628
v 0.002544 0.001385 0.003501
v -0.000907 0.001343 0.004181
v 0.000649 0.000615 0.004308
v 0.003107 0.002835 0.001653
v -0.005482 0.003126 0.000056
v -0.001587 -0.007220 -0.005602
v 0.000778 -0.004933 -0.004657
v 0.000992 -0.003270 -0.005052
v 0.000778 -0.000883 -0.004964
v -0.007904 -0.006148 -0.004101
v -0.007812 -0.007330 -0.005506
v -0.007694 -0.012754 -0.008578
v -0.003411 -0.008735 -0.006919
v -0.002288 0.002178 0.004062
v -0.004064 0.004029 0.002228
v 0.002351 0.000557 0.003819
v 0.003008 -0.003317 -0.002031
v 0.002324 -0.003083 -0.003831
v -0.005923 0.001201 0.002027
v -0.008515 -0.001696 -0.001241
v -0.007884 -0.004448 -0.002982
v -0.000290 -0.009154 -0.003844
v 0.000635 -0.001859 -0.004720
v 0.001208 -0.002071 -0.004770
v 0.001392 -0.000882 -0.004884
v -0.008431 -0.011121 -0.006297
v -0.008253 -0.012766 -0.007802
v -0.004543 -0.012568 -0.008700
v -0.005387 0.002314 0.001719
v -0.001719 0.000679 0.004191
v 0.003441 0.001776 0.001704
v 0.003110 -0.002690 -0.000064
v -0.007911 -0.001577 0.000317
v -0.002031 -0.009485 -0.005799
v 0.001774 -0.005365 -0.003345
v 0.000768 -0.001067 -0.004373
v -0.007327 -0.006349 -0.002419
v -0.008087 -0.008748 -0.004485
v -0.003237 -0.012691 -0.007270
v -0.008270 -0.015965 -0.009421
v -0.004785 0.001708 0.002408
v 0.002902 -0.001982 0.001854
v 0.001742 -0.006332 -0.002406
v -0.006277 -0.001593 0.001662
v -0.006763 -0.002314 0.001031
v -0.007332 -0.003691 -0.000753
v -0.001493 -0.011188 -0.004703
v -0.008454 -0.012553 -0.004836
v -0.005504 -0.017798 -0.010400
v -0.008977 -0.014333 -0.007229
v -0.009805 -0.019674 -0.009525
v 0.002920 0.000222 0.003294
v 0.000559 -0.002307 0.003813
v -0.000128 -0.002269 0.003975
v 0.001748 -0.005170 0.000165
v -0.006252 -0.006741 -0.001283
v 0.000847 -0.008672 -0.002204
v -0.000729 -0.010926 -0.003271
v -0.001457 -0.012592 -0.003660
v -0.007273 -0.011269 -0.003212
v -0.002968 -0.014666 -0.006885
v -0.004681 -0.017425 -0.009989
v -0.009789 -0.021995 -0.010632
v -0.001291 -0.002717 0.003762
v 0.001131 -0.006103 -0.000239
v -0.002792 -0.003656 0.002749
v -0.004260 -0.005044 0.001015
v -0.005191 -0.007158 -0.000513
v -0.001211 -0.011504 -0.002508
v -0.002589 -0.015730 -0.005671
v -0.007445 -0.015291 -0.003742
v -0.009722 -0.018480 -0.006489
v -0.004282 -0.021285 -0.009833
v -0.010224 -0.020215 -0.008841
v 0.000980 -0.003656 0.002118
v -0.000135 -0.009647 -0.001680
v -0.002450 -0.015460 -0.004524
v -0.004718 -0.010041 -0.001102
v -0.005849 -0.013890 -0.002438
v -0.009005 -0.018126 -0.005141
v -0.003637 -0.019817 -0.007950
v -0.005276 -0.022045 -0.011188
v -0.000545 -0.003924 0.002813
v -0.002581 -0.005054 0.001106
v -0.003652 -0.007255 0.000180
v -0.000477 -0.009317 -0.001267
v -0.003171 -0.017847 -0.005024
v -0.003740 -0.020539 -0.005814
v -0.006502 -0.016639 -0.003301
v -0.010274 -0.021623 -0.006446
v -0.008356 -0.025890 -0.011969
v -0.011906 -0.025834 -0.009017
v -0.011356 -0.024367 -0.009701
v -0.010530 -0.024507 -0.011030
v -0.002444 -0.011128 -0.001614
v -0.003444 -0.016426 -0.003831
v -0.003704 -0.015326 -0.003166
v -0.007422 -0.019415 -0.004041
v -0.003910 -0.022491 -0.006853
v -0.004356 -0.024200 -0.009627
v -0.012506 -0.028950 -0.007554
v -0.012280 -0.027698 -0.010552
v -0.002156 -0.007548 -0.000330
v -0.005766 -0.022160 -0.005039
v -0.009224 -0.022112 -0.004959
v -0.005280 -0.024876 -0.011614
v -0.004674 -0.025506 -0.011062
v -0.013939 -0.031540 -0.009640
v -0.011958 -0.028818 -0.011608
v -0.008556 -0.023923 -0.004829
v -0.007342 -0.028594 -0.012483
v -0.011366 -0.028003 -0.006362
v -0.013618 -0.030900 -0.010402
v -0.014854 -0.034192 -0.008767
v -0.004395 -0.023273 -0.006570
v -0.005287 -0.028833 -0.011929
v -0.010132 -0.029521 -0.012671
v -0.009958 -0.029992 -0.005193
v -0.012747 -0.032686 -0.006391
v -0.014117 -0.034982 -0.006370
v -0.009309 -0.027432 -0.005063
v -0.004680 -0.026540 -0.009103
v -0.005232 -0.027472 -0.007569
v -0.009796 -0.034646 -0.013745
v -0.006925 -0.029686 -0.012513
v -0.011588 -0.034492 -0.005183
v -0.016187 -0.036996 -0.009516
v -0.015871 -0.036880 -0.011993
v -0.015016 -0.036107 -0.006364
v -0.013374 -0.034986 -0.005607
v -0.013389 -0.033163 -0.012251
v -0.007222 -0.027442 -0.005932
v -0.004802 -0.028892 -0.011054
v -0.006788 -0.033588 -0.012644
v -0.008355 -0.035088 -0.013429
v -0.009785 -0.032307 -0.005179
v -0.012317 -0.037598 -0.004665
v -0.016336 -0.038600 -0.005792
v -0.005108 -0.027902 -0.008313
v -0.012650 -0.034089 -0.013224
v -0.011095 -0.035966 -0.014003
v -0.009683 -0.036743 -0.014000
v -0.016544 -0.038910 -0.008039
v -0.014318 -0.037866 -0.004486
v -0.015486 -0.037951 -0.004899
v -0.009557 -0.030985 -0.005209
v -0.005269 -0.031729 -0.010364
v -0.005445 -0.032770 -0.011432
v -0.006359 -0.030860 -0.007906
v -0.007731 -0.030830 -0.006526
v -0.015911 -0.041234 -0.010818
v -0.015713 -0.037112 -0.012655
v -0.009039 -0.035475 -0.005946
v -0.009746 -0.037917 -0.005365
v -0.005982 -0.032175 -0.008922
v -0.013597 -0.038609 -0.014366
v -0.017059 -0.041446 -0.006923
v -0.015511 -0.040355 -0.012228
v -0.016820 -0.042558 -0.008898
v -0.008667 -0.038325 -0.005774
v -0.013152 -0.040455 -0.004792
v -0.016523 -0.041872 -0.006136
v -0.006168 -0.037678 -0.011874
v -0.005963 -0.035841 -0.010096
v -0.011989 -0.040261 -0.014687
v -0.010394 -0.040598 -0.014417
v -0.007907 -0.039299 -0.013693
v -0.006803 -0.039256 -0.012884
v -0.016344 -0.042694 -0.010322
v -0.014905 -0.038024 -0.013747
v -0.008923 -0.040822 -0.004372
v -0.011233 -0.040183 -0.004860
v -0.007360 -0.037778 -0.007973
v -0.007699 -0.039591 -0.006407
v -0.015134 -0.039510 -0.004847
v -0.015719 -0.043027 -0.005998
v -0.006296 -0.040557 -0.010326
v -0.016792 -0.043461 -0.007379
v -0.014406 -0.040965 -0.013730
v -0.015175 -0.043106 -0.013553
v -0.007833 -0.041016 -0.014101
v -0.009363 -0.042841 -0.014486
v -0.006817 -0.040888 -0.013304
v -0.006251 -0.040575 -0.012351
v -0.014152 -0.042227 -0.014286
v -0.016398 -0.044450 -0.009579
v -0.015624 -0.043786 -0.012417
v -0.015978 -0.045564 -0.008640
v -0.007928 -0.040848 -0.005154
v -0.013107 -0.044023 -0.005251
v -0.007479 -0.040764 -0.008188
v -0.015546 -0.045500 -0.007469
v -0.012242 -0.041934 -0.014599
v -0.012055 -0.044224 -0.014375
v -0.007485 -0.042139 -0.013761
v -0.009289 -0.042638 -0.004751
v -0.010322 -0.045003 -0.005606
v -0.008076 -0.043061 -0.006412
v -0.008158 -0.042562 -0.008744
v -0.013514 -0.045873 -0.006207
v -0.008273 -0.043429 -0.009893
v -0.007864 -0.043370 -0.012232
v -0.013410 -0.044892 -0.013890
v -0.008656 -0.043928 -0.013894
v -0.010123 -0.044993 -0.013975
v -0.014380 -0.046050 -0.012482
v -0.015384 -0.045617 -0.011480
v -0.014864 -0.046706 -0.008894
v -0.014789 -0.046584 -0.010556
v -0.008761 -0.043136 -0.005076
v -0.008705 -0.044344 -0.006190
v -0.013399 -0.047486 -0.010266
v -0.009497 -0.045445 -0.006268
v -0.010583 -0.046127 -0.006506
v -0.008918 -0.045189 -0.012959
v -0.011551 -0.046622 -0.012741
v -0.012997 -0.047253 -0.007624
v -0.011072 -0.047575 -0.009306
v -0.009650 -0.046353 -0.009012
v -0.010409 -0.046509 -0.012577
v -0.011403 -0.047185 -0.007780
v -0.009274 -0.046179 -0.011072
v -0.010611 -0.047127 -0.011332
vn 0.6057 0.4093 -0.6823
vn 0.5623 0.6069 -0.5616
vn 0.4995 0.6824 -0.5337
vn 0.1560 0.3863 -0.9091
vn 0.3701 0.8966 -0.2431
vn 0.4676 0.6939 -0.5476
vn 0.1116 0.7234 -0.6813
vn 0.3928 0.5030 -0.7699
vn 0.0593 0.7960 -0.6024
vn 0.4273 0.7440 -0.5136
vn -0.0371 0.7600 -0.6489
vn -0.2998 0.3741 -0.8776
vn -0.4910 0.7330 -0.4707
vn -0.6261 0.4051 -0.6662
vn 0.2086 0.1843 -0.9605
vn -0.0233 0.2001 -0.9795
vn 0.3287 0.9444 -0.0060
vn 0.0090 0.9266 -0.3760
vn -0.0834 0.9500 0.3008
vn 0.0571 0.8961 -0.4402
vn 0.2032 0.6207 -0.7572
vn -0.0638 0.6723 -0.7376
vn -0.7454 0.2079 -0.6333
vn -0.0318 0.4051 -0.9137
vn -0.4093 0.2416 -0.8798
vn 0.0473 0.6788 0.7328
vn 0.0422 0.8647 -0.5004
vn 0.1667 0.9411 -0.2943
vn 0.2029 0.9658 -0.1612
vn 0.4050 0.7928 -0.4554
vn -0.8321 0.5398 -0.1274
vn 0.1713 0.1498 -0.9738
vn -0.4019 0.2419 -0.8832
vn 0.2465 0.9341 0.2581
vn 0.2940 0.9142 0.2787
vn -0.5716 0.7617 -0.3050
vn 0.4234 0.8924 -0.1560
vn 0.5525 0.4380 -0.7092
vn -0.7404 0.6712 -0.0375
vn -0.8433 0.4143 -0.3424
vn 0.3768 0.1286 -0.9173
vn 0.1453 0.1536 -0.9774
vn 0.2613 0.2408 -0.9347
vn -0.2717 0.9624 -0.0029
vn -0.1475 0.1814 -0.9723
vn 0.2704 0.9322 0.2406
vn -0.1250 0.5954 0.7936
vn 0.2368 0.9339 0.2679
vn 0.7809 0.4459 -0.4375
vn 0.3230 0.1631 -0.9322
vn -0.5687 0.7530 0.3309
vn -0.8376 0.4061 0.3654
vn -0.8875 0.4564 0.0635
vn -0.9976 0.0584 -0.0385
vn -0.9496 0.0068 -0.3133
vn 0.3882 -0.0365 -0.9209
vn 0.3843 -0.0420 -0.9223
vn 0.5825 -0.3208 -0.7469
vn -0.8453 0.0756 -0.5290
vn -0.3062 0.2827 -0.9090
vn -0.0838 0.2582 -0.9625
vn 0.2182 0.6449 0.7325
vn 0.3773 0.9234 -0.0700
vn 0.2529 0.7313 0.6334
vn 0.7266 0.6739 0.1339
vn 0.9271 0.3634 -0.0923
vn 0.7917 0.0117 -0.6108
vn 0.9775 0.0909 -0.1904
vn -0.6877 0.6048 0.4017
vn -0.8813 0.1991 0.4285
vn 0.5714 -0.1177 -0.8122
vn -0.7750 0.2565 -0.5775
vn -0.1950 0.8321 0.5192
vn -0.5050 0.7981 -0.3286
vn -0.2727 0.5130 -0.8139
vn 0.5861 0.5509 0.5941
vn 0.6153 0.6835 0.3927
vn 0.4822 0.4129 0.7727
vn 0.1210 0.3377 0.9334
vn 0.1447 0.2021 0.9686
vn -0.4988 0.8156 0.2933
vn 0.7787 0.2413 -0.5792
vn 0.5236 -0.1323 -0.8416
vn 0.6081 -0.2548 -0.7519
vn 0.6379 -0.7411 -0.2092
vn -0.9530 0.1473 -0.2648
vn -0.9990 -0.0125 0.0420
vn -0.6333 0.3022 -0.7125
vn 0.6013 0.0927 -0.7936
vn 0.2960 0.2343 -0.9260
vn -0.3306 0.4732 0.8166
vn -0.1983 0.2229 0.9545
vn -0.7146 0.5401 0.4447
vn 0.4765 -0.0020 0.8792
vn 0.9528 -0.2772 -0.1237
vn 0.7920 -0.2080 -0.5739
vn -0.5721 0.1854 0.7989
vn -0.6185 0.5062 0.6010
vn -0.9520 -0.1898 0.2400
vn -0.9639 -0.1880 0.1887
vn 0.7611 -0.2843 -0.5831
vn 0.7247 -0.0517 -0.6871
vn 0.6496 0.2949 -0.7008
vn 0.3805 0.1311 -0.9154
vn 0.3025 -0.3973 -0.8664
vn 0.3449 -0.3797 -0.8584
vn -0.9631 0.1915 -0.1892
vn 0.6196 0.1751 -0.7651
vn -0.2536 -0.0532 0.9659
vn 0.9732 0.0888 0.2121
vn 0.9509 -0.2867 0.1167
vn -0.7984 -0.1460 0.5842
vn 0.8128 -0.3282 -0.4813
vn -0.8671 -0.1722 0.4675
vn -0.9778 0.0521 0.2029
vn -0.8149 0.2811 -0.5068
vn 0.7888 0.0532 -0.6124
vn -0.4731 0.2841 -0.8339
vn -0.5235 0.1466 0.8393
vn 0.8137 -0.1530 0.5608
vn 0.8310 -0.3660 0.4189
vn 0.9136 -0.3991 -0.0781
vn -0.5311 -0.1773 0.8285
vn -0.5777 -0.3633 0.7309
vn -0.8808 -0.3617 0.3056
vn 0.8866 -0.4442 -0.1290
vn 0.8534 -0.1816 -0.4887
vn -0.9209 0.0613 0.3848
vn -0.7302 -0.0745 0.6792
vn -0.9521 0.2424 -0.1863
vn 0.1087 0.2158 -0.9704
vn -0.8108 0.3036 -0.5004
vn 0.3646 -0.4484 0.8161
vn 0.0716 -0.3876 0.9190
vn 0.6278 -0.5977 0.4987
vn -0.6715 -0.2636 0.6925
vn 0.8868 -0.4613 0.0288
vn 0.9145 -0.4001 0.0597
vn 0.8906 -0.0388 -0.4531
vn 0.6633 0.1226 -0.7383
vn -0.4643 0.2866 -0.8381
vn -0.1665 -0.3977 0.9023
vn 0.5206 -0.5344 0.6659
vn -0.2907 -0.5380 0.7913
vn -0.3393 -0.4791 0.8095
vn -0.5349 -0.2683 0.8012
vn 0.6721 -0.5379 0.5089
vn 0.9629 -0.1839 -0.1974
vn -0.6324 -0.0496 0.7731
vn -0.9528 0.1723 0.2499
vn -0.9440 0.2872 -0.1626
vn 0.4153 -0.6812 0.6029
vn 0.6001 -0.5561 0.5750
vn 0.8969 -0.3664 0.2478
vn -0.2543 -0.3013 0.9190
vn -0.2783 -0.2325 0.9319
vn -0.7616 0.0467 0.6463
vn 0.9599 -0.0656 -0.2725
vn 0.1675 -0.7888 0.5913
vn 0.3052 -0.4451 0.8418
vn 0.0520 -0.6421 0.7648
vn -0.0759 -0.4242 0.9024
vn 0.8909 -0.2981 0.3426
vn 0.7924 -0.3181 0.5204
vn -0.2166 -0.2047 0.9546
vn 0.8921 0.0285 -0.4509
vn 0.4316 0.1507 -0.8894
vn -0.1119 0.2210 -0.9688
vn -0.9567 0.2901 0.0226
vn -0.8914 0.3088 -0.3316
vn -0.5502 0.2847 -0.7850
vn 0.2173 -0.4111 0.8853
vn 0.6177 -0.3630 0.6976
vn 0.3392 -0.3613 0.8686
vn -0.8788 0.1497 0.4532
vn 0.9865 -0.1024 -0.1275
vn 0.9428 -0.2579 0.2114
vn -0.8699 0.2579 0.4205
vn -0.8446 0.3432 -0.4109
vn 0.1612 -0.4180 0.8940
vn -0.2276 -0.1425 0.9633
vn 0.3955 -0.2879 0.8722
vn -0.5951 0.0229 0.8034
vn 0.4304 0.1267 -0.8937
vn 0.9048 -0.0054 -0.4258
vn -0.9301 0.3647 0.0442
vn -0.5893 0.3160 -0.7436
vn -0.1364 -0.0952 0.9861
vn 0.1404 0.1533 -0.9782
vn -0.6644 0.1256 0.7368
vn -0.8884 0.3794 -0.2585
vn -0.8737 0.3911 0.2893
vn -0.6584 0.2837 0.6972
vn 0.7394 -0.3386 0.5820
vn 0.9834 -0.1567 0.0916
vn 0.6289 0.0014 -0.7775
vn -0.2243 0.2662 -0.9375
vn -0.6958 0.4970 0.5186
vn -0.1179 -0.0318 0.9925
vn 0.8160 -0.2609 0.5159
vn 0.1119 0.1580 -0.9811
vn 0.2707 0.0892 -0.9585
vn 0.9733 -0.0966 -0.2083
vn -0.2853 0.0560 0.9568
vn -0.2941 0.2595 0.9199
vn -0.9621 0.2717 0.0245
vn -0.9373 0.2407 -0.2521
vn -0.4740 0.4468 0.7588
vn -0.5213 0.3394 -0.7830
vn 0.5175 -0.2362 0.8224
vn 0.5351 0.0240 -0.8445
vn 0.3109 0.0995 -0.9452
vn 0.3003 -0.0328 0.9533
vn -0.7769 0.5062 0.3746
vn 0.1498 0.0460 0.9877
vn 0.9453 -0.1903 0.2651
vn -0.3641 0.3241 -0.8731
vn -0.0525 0.2001 -0.9784
vn 0.2009 0.1043 -0.9740
vn 0.3238 -0.0630 0.9440
vn -0.9787 0.2004 -0.0440
vn -0.8882 0.2460 0.3880
vn -0.8374 0.2091 -0.5050
vn -0.1666 0.1355 0.9767
vn -0.6047 0.2675 0.7502
vn 0.9682 -0.1745 0.1791
vn 0.9201 -0.1246 -0.3712
vn 0.7110 -0.2396 0.6612
vn 0.6479 -0.1624 0.7442
vn -0.9447 0.0575 -0.3229
vn 0.6115 -0.0299 0.7907
vn 0.2883 0.1863 0.9392
vn 0.8435 -0.2019 0.4978
vn -0.2696 0.1163 -0.9559
vn -0.9837 0.0016 0.1799
vn -0.9779 0.0246 -0.2078
vn -0.6159 0.1003 -0.7814
vn 0.6510 0.2811 0.7051
vn -0.0511 -0.1445 0.9882
vn -0.6967 -0.1946 0.6904
vn 0.9214 -0.0945 0.3769
vn 0.0078 0.0281 -0.9996
vn 0.1514 0.0678 -0.9861
vn 0.4102 0.1303 -0.9026
vn 0.7074 0.0890 -0.7011
vn -0.8738 -0.2055 -0.4407
vn -0.9429 0.0439 -0.3301
vn 0.2461 0.0597 0.9674
vn -0.0106 0.0113 0.9999
vn 0.8669 0.0415 0.4967
vn 0.9262 0.1523 0.3448
vn -0.3445 -0.1597 0.9251
vn -0.4930 -0.3273 0.8061
vn 0.9526 -0.0909 -0.2903
vn 0.9329 -0.2790 0.2278
vn -0.8985 -0.3248 0.2952
vn -0.7949 0.0582 -0.6040
vn -0.7560 -0.0801 -0.6497
vn -0.9409 -0.2870 -0.1800
vn 0.8375 0.0257 0.5458
vn 0.9509 -0.1881 -0.2458
vn 0.4026 0.0838 -0.9115
vn 0.2094 -0.1227 -0.9701
vn 0.7756 -0.0422 -0.6299
vn -0.4392 -0.0205 -0.8981
vn -0.8960 -0.1646 -0.4125
vn -0.8146 -0.5751 0.0755
vn 0.0877 -0.2436 0.9659
vn -0.1858 -0.2812 0.9415
vn 0.9429 -0.2057 0.2620
vn -0.6334 -0.5940 0.4960
vn -0.0523 -0.0537 -0.9972
vn -0.0643 -0.3050 -0.9502
vn 0.7196 -0.3184 -0.6171
vn -0.7913 -0.5057 -0.3437
vn 0.1373 -0.5090 0.8498
vn 0.9294 -0.3410 0.1411
vn 0.9000 -0.4185 0.1218
vn -0.2703 -0.5960 0.7561
vn 0.8788 -0.4764 -0.0281
vn -0.2940 -0.4588 -0.8385
vn 0.5554 -0.4204 -0.7175
vn 0.2182 -0.5161 -0.8282
vn -0.4863 -0.6659 -0.5657
vn -0.5842 -0.8022 0.1229
vn -0.6468 -0.7396 -0.1864
vn 0.5685 -0.3763 0.7316
vn 0.8315 -0.4776 0.2838
vn 0.8788 -0.4395 0.1858
vn -0.2533 -0.9543 -0.1584
vn 0.5636 -0.6621 0.4939
vn 0.2250 -0.7536 0.6177
vn 0.6927 -0.6077 -0.3884
vn -0.0192 -0.8005 -0.5991
vn -0.1859 -0.8857 0.4254
vn 0.3018 -0.9509 0.0687
vn 0.7675 -0.6291 0.1233
vn 0.3606 -0.7893 -0.4970
vn 0.2411 -0.8811 0.4070
vn 0.7685 -0.6378 -0.0511
vn 0.3327 -0.9110 -0.2436
s 1
f 3//1 1//2 2//3
f 1//2 3//1 4//4
f 1//2 5//5 2//3
f 2//3 5//5 6//6
f 2//3 7//7 8//8
f 2//3 8//8 3//1
f 1//2 12//9 5//5
f 5//5 9//10 6//6
f 10//11 7//7 2//3
f 4//4 11//12 12//9
f 12//9 1//2 4//4
f 2//3 6//6 10//11
f 13//13 12//9 11//12
f 14//14 13//13 11//12
f 4//4 3//1 15//15
f 3//1 8//8 15//15
f 4//4 16//16 11//12
f 5//5 17//17 9//10
f 18//18 9//10 17//17
f 5//5 19//19 17//17
f 9//10 10//11 6//6
f 20//20 10//11 18//18
f 18//18 10//11 9//10
f 21//21 22//22 10//11
f 21//21 10//11 20//20
f 7//7 10//11 22//22
f 14//14 11//12 24//23
f 8//8 23//24 15//15
f 25//25 11//12 16//16
f 16//16 4//4 15//15
f 8//8 7//7 23//24
f 12//9 13//13 5//5
f 17//17 19//19 26//26
f 28//27 27//28 18//18
f 29//29 20//20 18//18
f 18//18 27//28 29//29
f 21//21 20//20 30//30
f 31//31 13//13 14//14
f 24//23 11//12 25//25
f 15//15 23//24 32//32
f 33//33 25//25 16//16
f 19//19 5//5 13//13
f 34//34 35//35 27//28
f 35//35 29//29 27//28
f 18//18 36//36 28//27
f 37//37 20//20 29//29
f 37//37 30//30 20//20
f 30//30 38//38 21//21
f 23//24 7//7 22//22
f 13//13 39//39 19//19
f 31//31 39//39 13//13
f 14//14 40//40 31//31
f 40//40 14//14 24//23
f 41//41 15//15 32//32
f 41//41 16//16 15//15
f 32//32 23//24 42//42
f 33//33 16//16 43//43
f 33//33 24//23 25//25
f 17//17 26//26 18//18
f 44//44 34//34 27//28
f 45//45 28//27 36//36
f 36//36 18//18 26//26
f 46//46 26//26 19//19
f 26//26 46//46 47//47
f 29//29 48//48 37//37
f 29//29 35//35 48//48
f 38//38 30//30 49//49
f 22//22 21//21 50//50
f 23//24 22//22 42//42
f 22//22 50//50 42//42
f 51//51 19//19 39//39
f 39//39 31//31 51//51
f 52//52 51//51 31//31
f 53//53 31//31 40//40
f 52//52 31//31 53//53
f 40//40 54//54 53//53
f 40//40 24//23 55//55
f 54//54 40//40 55//55
f 32//32 56//56 41//41
f 42//42 57//57 32//32
f 50//50 58//58 42//42
f 42//42 58//58 57//57
f 41//41 43//43 16//16
f 59//59 24//23 33//33
f 60//60 33//33 61//61
f 61//61 33//33 43//43
f 62//62 35//35 34//34
f 44//44 27//28 28//27
f 47//47 36//36 26//26
f 46//46 63//63 47//47
f 64//64 48//48 35//35
f 48//48 65//65 37//37
f 37//37 66//66 30//30
f 65//65 66//66 37//37
f 49//49 30//30 66//66
f 49//49 67//67 38//38
f 50//50 21//21 38//38
f 50//50 38//38 67//67
f 67//67 49//49 68//68
f 52//52 69//69 51//51
f 70//70 52//52 53//53
f 32//32 57//57 56//56
f 84//71 56//56 57//57
f 72//72 59//59 33//33
f 59//59 55//55 24//23
f 74//73 34//34 44//44
f 74//73 62//62 34//34
f 44//44 28//27 76//74
f 77//75 36//36 47//47
f 51//51 46//46 19//19
f 77//75 47//47 63//63
f 78//76 82//77 48//48
f 48//48 64//64 78//76
f 79//78 78//76 64//64
f 80//79 81//80 64//64
f 81//80 79//78 64//64
f 82//77 65//65 48//48
f 68//68 49//49 66//66
f 51//51 69//69 83//81
f 53//53 54//54 70//70
f 84//71 41//41 56//56
f 58//58 71//82 57//57
f 71//82 86//83 57//57
f 84//71 57//57 85//84
f 85//84 57//57 86//83
f 71//82 58//58 87//85
f 72//72 89//86 59//59
f 59//59 88//87 55//55
f 90//88 33//33 60//60
f 41//41 91//89 43//43
f 73//90 61//61 43//43
f 75//91 62//62 74//73
f 92//92 62//62 75//91
f 62//62 64//64 35//35
f 74//73 44//44 93//93
f 44//44 76//74 83//81
f 28//27 45//45 76//74
f 45//45 36//36 76//74
f 36//36 63//63 76//74
f 77//75 63//63 36//36
f 83//81 46//46 51//51
f 46//46 76//74 63//63
f 81//80 94//94 79//78
f 95//95 96//96 67//67
f 67//67 58//58 50//50
f 95//95 67//67 68//68
f 97//97 107//98 69//69
f 52//52 97//97 69//69
f 98//99 70//70 54//54
f 99//100 54//54 55//55
f 88//87 99//100 55//55
f 100//101 84//71 85//84
f 112//102 84//71 100//101
f 41//41 84//71 91//89
f 87//85 101//103 71//82
f 71//82 102//104 86//83
f 71//82 101//103 102//104
f 58//58 103//105 87//85
f 114//106 101//103 87//85
f 88//87 59//59 89//86
f 90//88 104//107 72//72
f 90//88 72//72 33//33
f 106//108 43//43 91//89
f 43//43 106//108 73//90
f 93//93 75//91 74//73
f 80//79 64//64 62//62
f 62//62 92//92 80//79
f 44//44 107//98 93//93
f 44//44 83//81 107//98
f 80//79 108//109 81//80
f 65//65 82//77 109//110
f 65//65 109//110 66//66
f 66//66 109//110 68//68
f 103//105 58//58 67//67
f 102//104 67//67 96//96
f 67//67 102//104 103//105
f 68//68 109//110 110//111
f 110//111 95//95 68//68
f 83//81 76//74 46//46
f 69//69 107//98 83//81
f 97//97 52//52 111//112
f 111//112 52//52 70//70
f 111//112 70//70 98//99
f 98//99 54//54 99//100
f 91//89 84//71 112//102
f 100//101 85//84 113//113
f 86//83 102//104 96//96
f 85//84 86//83 96//96
f 103//105 114//106 87//85
f 115//114 99//100 88//87
f 116//115 88//87 89//86
f 72//72 104//107 89//86
f 105//116 104//107 90//88
f 91//89 117//117 106//108
f 117//117 91//89 112//102
f 118//118 90//88 60//60
f 92//92 75//91 119//119
f 93//93 107//98 119//119
f 82//77 78//76 109//110
f 109//110 78//76 130//120
f 80//79 92//92 108//109
f 120//121 110//111 109//110
f 130//120 120//121 109//110
f 113//113 96//96 95//95
f 113//113 95//95 121//122
f 111//112 122//123 97//97
f 123//124 122//123 111//112
f 98//99 99//100 124//125
f 111//112 98//99 124//125
f 99//100 115//114 124//125
f 113//113 121//122 136//126
f 100//101 113//113 136//126
f 125//127 112//102 100//101
f 112//102 125//127 117//117
f 85//84 96//96 113//113
f 116//115 115//114 88//87
f 116//115 89//86 104//107
f 116//115 104//107 126//128
f 126//128 138//129 116//115
f 105//116 128//130 104//107
f 61//61 73//90 127//131
f 128//130 105//116 90//88
f 90//88 129//132 128//130
f 129//132 90//88 118//118
f 118//118 60//60 61//61
f 119//119 75//91 93//93
f 94//94 130//120 79//78
f 78//76 79//78 130//120
f 94//94 131//133 130//120
f 131//133 94//94 81//80
f 132//134 81//80 108//109
f 131//133 81//80 132//134
f 103//105 102//104 114//106
f 95//95 133//135 121//122
f 110//111 133//135 95//95
f 119//119 107//98 97//97
f 97//97 122//123 119//119
f 111//112 134//136 123//124
f 134//136 111//112 124//125
f 136//126 121//122 135//137
f 100//101 136//126 137//138
f 125//127 100//101 137//138
f 114//106 102//104 101//103
f 138//129 115//114 116//115
f 126//128 104//107 128//130
f 125//127 139//139 117//117
f 73//90 106//108 140//140
f 127//131 73//90 140//140
f 141//141 118//118 61//61
f 61//61 127//131 141//141
f 118//118 141//141 129//132
f 106//108 117//117 140//140
f 119//119 108//109 92//92
f 108//109 119//119 122//123
f 108//109 142//142 132//134
f 120//121 133//135 110//111
f 121//122 133//135 143//143
f 122//123 142//142 108//109
f 144//144 142//142 122//123
f 123//124 144//144 122//123
f 134//136 145//145 123//124
f 146//146 145//145 134//136
f 124//125 115//114 134//136
f 135//137 121//122 143//143
f 136//126 135//137 147//147
f 137//138 148//148 125//127
f 139//139 125//127 148//148
f 138//129 134//136 115//114
f 149//149 138//129 126//128
f 146//146 134//136 138//129
f 150//150 126//128 128//130
f 117//117 139//139 140//140
f 152//151 150//150 128//130
f 129//132 152//151 128//130
f 130//120 131//133 120//121
f 120//121 131//133 153//152
f 123//124 145//145 144//144
f 135//137 154//153 147//147
f 137//138 155//154 148//148
f 138//129 156//155 146//146
f 138//129 157//156 156//155
f 157//156 138//129 149//149
f 150//150 158//157 126//128
f 139//139 159//158 140//140
f 131//133 132//134 142//142
f 153//152 131//133 161//159
f 133//135 120//121 153//152
f 135//137 143//143 154//153
f 154//153 143//143 164//160
f 144//144 145//145 162//161
f 163//162 145//145 146//146
f 146//146 156//155 163//162
f 147//147 154//153 164//160
f 147//147 137//138 136//126
f 165//163 148//148 155//154
f 139//139 148//148 159//158
f 148//148 165//163 166//164
f 167//165 157//156 149//149
f 149//149 126//128 158//157
f 159//158 151//166 140//140
f 140//140 151//166 160//167
f 140//140 160//167 127//131
f 141//141 127//131 169//168
f 150//150 152//151 170//169
f 152//151 129//132 171//170
f 171//170 170//169 152//151
f 172//171 171//170 129//132
f 129//132 141//141 172//171
f 131//133 142//142 161//159
f 133//135 162//161 143//143
f 162//161 133//135 153//152
f 161//159 142//142 144//144
f 162//161 161//159 144//144
f 162//161 145//145 163//162
f 147//147 164//160 173//172
f 137//138 174//173 155//154
f 175//174 174//173 137//138
f 137//138 147//147 175//174
f 147//147 173//172 175//174
f 165//163 155//154 174//173
f 156//155 157//156 173//172
f 168//175 158//157 150//150
f 178//176 159//158 177//177
f 160//167 169//168 127//131
f 150//150 170//169 168//175
f 179//178 168//175 170//169
f 180//179 171//170 172//171
f 164//160 143//143 181//180
f 143//143 162//161 181//180
f 162//161 153//152 161//159
f 181//180 162//161 163//162
f 181//180 173//172 164//160
f 157//156 175//174 173//172
f 174//173 166//164 165//163
f 173//172 181//180 156//155
f 175//174 157//156 167//165
f 176//181 167//165 149//149
f 176//181 149//149 158//157
f 167//165 182//182 175//174
f 167//165 176//181 182//182
f 168//175 183//183 158//157
f 177//177 159//158 148//148
f 151//166 159//158 178//176
f 160//167 184//184 169//168
f 172//171 141//141 169//168
f 185//185 160//167 151//166
f 160//167 185//185 184//184
f 179//178 183//183 168//175
f 180//179 170//169 171//170
f 170//169 186//186 179//178
f 180//179 172//171 187//187
f 156//155 181//180 163//162
f 166//164 174//173 182//182
f 174//173 175//174 182//182
f 177//177 148//148 166//164
f 176//181 158//157 183//183
f 182//182 176//181 188//188
f 169//168 184//184 189//189
f 190//190 183//183 179//178
f 170//169 191//191 186//186
f 170//169 180//179 191//191
f 192//192 179//178 186//186
f 179//178 192//192 197//193
f 193//194 166//164 182//182
f 193//194 177//177 166//164
f 183//183 190//190 188//188
f 200//195 178//176 177//177
f 200//195 177//177 193//194
f 189//189 184//184 194//196
f 172//171 169//168 187//187
f 187//187 169//168 195//197
f 178//176 185//185 151//166
f 194//196 184//184 185//185
f 179//178 197//193 190//190
f 192//192 198//198 197//193
f 176//181 183//183 188//188
f 188//188 199//199 182//182
f 190//190 199//199 188//188
f 200//195 185//185 178//176
f 193//194 201//200 200//195
f 195//197 169//168 202//201
f 169//168 189//189 202//201
f 189//189 194//196 203//202
f 185//185 211//203 194//196
f 196//204 190//190 197//193
f 191//191 180//179 187//187
f 204//205 196//204 197//193
f 205//206 192//192 186//186
f 186//186 191//191 206//207
f 208//208 204//205 197//193
f 197//193 198//198 208//208
f 195//197 209//209 187//187
f 193//194 182//182 210//210
f 210//210 182//182 199//199
f 211//203 185//185 200//195
f 210//210 201//200 193//194
f 212//211 203//202 194//196
f 202//201 189//189 213//212
f 196//204 199//199 190//190
f 206//207 191//191 187//187
f 214//213 196//204 204//205
f 207//214 192//192 205//206
f 215//215 214//213 204//205
f 198//198 207//214 208//208
f 207//214 198//198 192//192
f 200//195 201//200 217//216
f 209//209 195//197 218//217
f 219//218 195//197 202//201
f 219//218 218//217 195//197
f 213//212 189//189 203//202
f 220//219 202//201 213//212
f 203//202 212//211 213//212
f 224//220 199//199 196//204
f 214//213 224//220 196//204
f 187//187 209//209 206//207
f 186//186 206//207 205//206
f 221//221 216//222 207//214
f 205//206 221//221 207//214
f 205//206 206//207 221//221
f 209//209 230//223 206//207
f 208//208 222//224 204//205
f 208//208 207//214 223//225
f 216//222 223//225 207//214
f 210//210 199//199 224//220
f 200//195 225//226 211//203
f 217//216 225//226 200//195
f 194//196 211//203 226//227
f 225//226 226//227 211//203
f 227//228 210//210 228//229
f 227//228 201//200 210//210
f 221//221 206//207 229//230
f 230//223 229//230 206//207
f 215//215 231//231 214//213
f 215//215 232//232 231//231
f 222//224 208//208 223//225
f 222//224 215//215 204//205
f 224//220 228//229 210//210
f 214//213 228//229 224//220
f 233//233 225//226 217//216
f 217//216 201//200 233//233
f 201//200 227//228 233//233
f 212//211 194//196 226//227
f 234//234 218//217 219//218
f 214//213 231//231 228//229
f 221//221 235//235 216//222
f 235//235 221//221 229//230
f 237//236 235//235 229//230
f 209//209 218//217 248//237
f 248//237 230//223 209//209
f 238//238 231//231 232//232
f 239//239 215//215 222//224
f 223//225 216//222 240//240
f 218//217 234//234 248//237
f 242//241 226//227 225//226
f 227//228 228//229 231//231
f 243//242 220//219 244//243
f 245//244 244//243 220//219
f 243//242 202//201 220//219
f 212//211 245//244 213//212
f 245//244 220//219 213//212
f 212//211 226//227 246//245
f 229//230 230//223 236//246
f 247//247 237//236 229//230
f 248//237 236//246 230//223
f 249//248 232//232 250//249
f 250//249 232//232 215//215
f 231//231 238//238 251//250
f 251//250 238//238 252//251
f 239//239 250//249 215//215
f 239//239 222//224 253//252
f 251//250 242//241 231//231
f 253//252 222//224 223//225
f 240//240 253//252 223//225
f 240//240 216//222 235//235
f 254//253 253//252 240//240
f 231//231 233//233 227//228
f 242//241 225//226 233//233
f 241//254 246//245 226//227
f 241//254 226//227 255//255
f 255//255 226//227 242//241
f 233//233 231//231 242//241
f 243//242 234//234 219//218
f 219//218 202//201 243//242
f 212//211 246//245 245//244
f 237//236 256//256 235//235
f 236//246 257//257 229//230
f 229//230 257//257 258//258
f 256//256 237//236 264//259
f 238//238 232//232 249//248
f 238//238 267//260 252//251
f 235//235 256//256 240//240
f 255//255 262//261 241//254
f 259//262 260//263 244//243
f 244//243 245//244 259//262
f 261//264 246//245 262//261
f 262//261 246//245 241//254
f 236//246 248//237 257//257
f 263//265 258//258 257//257
f 237//236 247//247 264//259
f 229//230 265//266 247//247
f 229//230 258//258 265//266
f 266//267 256//256 264//259
f 248//237 234//234 257//257
f 249//248 267//260 238//238
f 250//249 274//268 249//248
f 274//268 250//249 268//269
f 239//239 268//269 250//249
f 269//270 251//250 252//251
f 252//251 267//260 269//270
f 268//269 239//239 254//253
f 253//252 254//253 239//239
f 240//240 256//256 254//253
f 270//271 254//253 256//256
f 242//241 251//250 255//255
f 234//234 243//242 263//265
f 257//257 234//234 263//265
f 243//242 271//272 263//265
f 272//273 263//265 271//272
f 244//243 260//263 271//272
f 260//263 259//262 273//274
f 245//244 246//245 261//264
f 261//264 259//262 245//244
f 247//247 265//266 264//259
f 266//267 264//259 285//275
f 275//276 274//268 268//269
f 269//270 255//255 251//250
f 276//277 269//270 267//260
f 276//277 277//278 269//270
f 266//267 270//271 256//256
f 270//271 278//279 254//253
f 255//255 280//280 262//261
f 271//272 243//242 244//243
f 281//281 263//265 272//273
f 273//274 259//262 261//264
f 260//263 282//282 283//283
f 271//272 260//263 272//273
f 282//282 260//263 273//274
f 263//265 281//281 258//258
f 258//258 281//281 284//284
f 285//275 264//259 265//266
f 285//275 286//285 266//267
f 285//275 287//286 286//285
f 288//287 267//260 249//248
f 249//248 274//268 288//287
f 277//278 255//255 269//270
f 276//277 267//260 288//287
f 288//287 289//288 276//277
f 278//279 268//269 254//253
f 279//289 280//280 255//255
f 279//289 255//255 277//278
f 262//261 280//280 273//274
f 283//283 272//273 260//263
f 272//273 283//283 281//281
f 273//274 261//264 262//261
f 286//285 270//271 266//267
f 258//258 285//275 265//266
f 258//258 284//284 285//275
f 290//290 286//285 287//286
f 288//287 274//268 275//276
f 291//291 275//276 292//292
f 278//279 275//276 268//269
f 276//277 289//288 277//278
f 289//288 288//287 291//291
f 283//283 282//282 293//293
f 281//281 283//283 294//294
f 270//271 286//285 295//295
f 295//295 278//279 270//271
f 287//286 285//275 284//284
f 290//290 287//286 284//284
f 290//290 295//295 286//285
f 290//290 296//296 295//295
f 291//291 288//287 275//276
f 292//292 275//276 278//279
f 289//288 297//297 277//278
f 297//297 279//289 277//278
f 280//280 293//293 273//274
f 293//293 282//282 273//274
f 279//289 297//297 280//280
f 284//284 281//281 294//294
f 294//294 283//283 298//298
f 293//293 298//298 283//283
f 295//295 296//296 299//299
f 291//291 292//292 299//299
f 295//295 292//292 278//279
f 289//288 291//291 297//297
f 280//280 297//297 300//300
f 300//300 293//293 280//280
f 284//284 294//294 290//290
f 290//290 301//301 296//296
f 297//297 291//291 296//296
f 291//291 299//299 296//296
f 295//295 299//299 292//292
f 293//293 300//300 298//298
f 298//298 301//301 294//294
f 294//294 301//301 290//290
f 298//298 300//300 301//301
f 296//296 300//300 297//297
f 296//296 301//301 300//300
