# Blender 4.0.2
# www.blender.org
mtllib femur_l.mtl
o femur_l.002
v -0.007932 0.014481 0.016714
v 0.002267 0.007737 0.020323
v -0.002016 0.016837 0.015403
v -0.013231 0.003386 0.019528
v -0.014097 0.010306 0.015535
v 0.005013 0.016179 0.015421
v -0.009098 -0.002172 0.021769
v -0.000010 -0.008522 0.022222
v 0.008418 -0.000804 0.022012
v 0.015766 0.003861 0.016300
v 0.014230 0.011078 0.014102
v 0.012505 0.016183 0.010069
v -0.002896 0.022221 0.003430
v 0.006930 0.019753 0.006998
v -0.010004 0.019773 0.005702
v -0.016344 0.015035 0.006536
v -0.020472 0.005569 0.010520
v 0.009081 -0.008090 0.020706
v 0.015576 -0.003424 0.017285
v 0.005950 0.021769 -0.000563
v -0.016558 -0.004469 0.016487
v -0.022206 -0.003087 0.008004
v 0.021322 0.009335 0.001704
v -0.009495 -0.010572 0.019026
v 0.023043 0.000273 0.006000
v 0.016752 0.015302 -0.001298
v -0.009163 0.020889 -0.004336
v 0.005105 0.020888 -0.008703
v -0.016874 -0.012183 0.011395
v -0.018587 0.013649 -0.003162
v -0.022373 0.006494 0.001388
v -0.007603 -0.017220 0.014138
v 0.001978 -0.018139 0.015326
v 0.013528 -0.014795 0.012321
v 0.020801 -0.009762 0.006898
v 0.015488 0.011748 -0.013385
v -0.013511 0.015311 -0.011756
v -0.006491 0.017898 -0.013512
v 0.009327 0.015115 -0.014814
v -0.023477 0.000269 -0.004377
v -0.022331 -0.007674 0.000466
v -0.015886 -0.014392 0.010752
v 0.023141 -0.004235 -0.001017
v 0.020361 0.003244 -0.011729
v 0.001666 0.014624 -0.018839
v -0.019367 0.006773 -0.010885
v 0.006098 0.007230 -0.021724
v 0.005619 -0.019266 0.012331
v -0.005830 -0.018325 0.006901
v 0.019884 -0.005833 -0.011901
v 0.014691 -0.018026 0.003018
v 0.018643 -0.014462 -0.004670
v 0.014092 -0.000326 -0.019032
v -0.002502 0.011633 -0.020557
v -0.014142 0.010676 -0.015528
v -0.020368 -0.003759 -0.009983
v 0.005251 -0.002164 -0.023504
v 0.005296 -0.020506 0.008597
v -0.017821 -0.012360 -0.002455
v -0.010661 -0.016631 0.001888
v 0.008781 -0.009908 -0.019928
v -0.013258 -0.001421 -0.016467
v -0.005169 0.003540 -0.019168
v -0.017241 -0.009529 -0.013278
v -0.015091 -0.016822 -0.007396
v 0.003401 -0.019521 0.001047
v 0.007585 -0.018566 -0.009216
v -0.009402 -0.020722 -0.004148
v -0.000243 -0.021797 -0.005431
v 0.008816 -0.015449 -0.015830
v -0.012820 -0.009038 -0.027731
v -0.017003 -0.017391 -0.023843
v -0.004982 -0.003153 -0.027602
v -0.014567 -0.026210 -0.012226
v 0.001984 -0.006429 -0.030073
v 0.005480 -0.016202 -0.029379
v -0.008431 -0.030151 -0.009985
v -0.001414 -0.030849 -0.013004
v -0.007049 -0.003823 -0.036376
v -0.017874 -0.025184 -0.021559
v -0.000855 -0.005762 -0.039007
v -0.017652 -0.039310 -0.016227
v 0.002676 -0.008764 -0.043863
v -0.015362 -0.041355 -0.013080
v 0.006122 -0.016497 -0.038226
v 0.003590 -0.028037 -0.022023
v -0.006147 -0.044674 -0.016975
v 0.001256 -0.042689 -0.022872
v 0.001324 -0.038064 -0.031661
v 0.001216 -0.027964 -0.038147
v -0.015659 -0.007174 -0.037285
v -0.017953 -0.016770 -0.036800
v -0.021479 -0.033452 -0.024378
v 0.002776 -0.012550 -0.046154
v -0.011426 -0.000723 -0.045378
v -0.005572 -0.000975 -0.049710
v -0.002525 -0.007287 -0.052549
v -0.023433 -0.001858 -0.034786
v -0.024874 -0.011090 -0.038803
v -0.025779 -0.020496 -0.037377
v -0.027161 -0.027566 -0.031359
v -0.001871 -0.018424 -0.051854
v -0.022441 -0.045213 -0.019194
v -0.002292 -0.031359 -0.045465
v -0.019536 -0.050507 -0.009915
v 0.000275 -0.042308 -0.036917
v -0.015555 -0.054813 -0.014955
v -0.003718 -0.055706 -0.021104
v 0.002062 -0.055401 -0.026334
v -0.011591 0.000239 -0.049971
v -0.023620 0.001334 -0.036881
v -0.030479 -0.002425 -0.031672
v -0.032360 -0.016638 -0.034891
v -0.030999 -0.036272 -0.030586
v -0.028090 -0.045295 -0.023459
v -0.006335 -0.039037 -0.051006
v -0.003984 -0.028974 -0.053373
v -0.028187 -0.050334 -0.013586
v -0.026203 -0.054227 -0.008528
v 0.002373 -0.055556 -0.032008
v -0.001758 -0.049227 -0.042377
v -0.019810 -0.057521 -0.009487
v -0.010137 -0.062457 -0.019885
v -0.017654 -0.002985 -0.054265
v -0.026389 0.000910 -0.043069
v -0.010708 -0.010851 -0.057218
v -0.008875 -0.020097 -0.058543
v -0.034061 -0.001313 -0.035545
v -0.036811 -0.025352 -0.037380
v -0.035567 -0.036397 -0.036969
v -0.028678 -0.047363 -0.031117
v -0.030119 -0.053812 -0.016796
v -0.010006 -0.030185 -0.061330
v -0.006313 -0.048837 -0.048947
v 0.003778 -0.065721 -0.027842
v -0.001706 -0.066727 -0.022261
v -0.031239 -0.003890 -0.048469
v -0.035841 -0.008177 -0.041982
v -0.014499 -0.018168 -0.062346
v -0.035701 -0.028061 -0.045740
v -0.029490 -0.051900 -0.039298
v -0.020234 -0.072908 -0.037254
v -0.025523 -0.058950 -0.028030
v -0.029251 -0.060613 -0.017851
v -0.012821 -0.041456 -0.054327
v -0.025443 -0.062217 -0.011928
v -0.016938 -0.066165 -0.020558
v 0.004885 -0.072503 -0.037146
v -0.001934 -0.078372 -0.046681
v -0.010523 -0.068838 -0.021205
v -0.030618 -0.017285 -0.054936
v -0.022700 -0.032920 -0.059253
v -0.031128 -0.031445 -0.052703
v -0.025454 -0.060159 -0.044856
v -0.022525 -0.066173 -0.025092
v -0.019502 -0.045720 -0.052745
v 0.001670 -0.084601 -0.023175
v -0.012393 -0.066343 -0.051531
v -0.009174 -0.078058 -0.023601
v -0.019742 -0.064448 -0.048286
v -0.013514 -0.088480 -0.031602
v -0.014593 -0.086316 -0.046468
v 0.014309 -0.134970 -0.042569
v 0.013557 -0.107318 -0.030510
v 0.007304 -0.113000 -0.021120
v -0.001975 -0.115539 -0.048600
v -0.005871 -0.114810 -0.028131
v -0.007908 -0.117051 -0.045137
v 0.026298 -0.169118 -0.030097
v 0.018472 -0.172141 -0.015972
v 0.005135 -0.160727 -0.023607
v 0.008766 -0.157631 -0.043963
v -0.000053 -0.149090 -0.039202
v 0.022836 -0.181533 -0.039558
v 0.007144 -0.185546 -0.033799
v 0.029600 -0.206371 -0.022736
v 0.018726 -0.204504 -0.014052
v 0.011933 -0.223889 -0.017432
v 0.018891 -0.239870 -0.035021
v 0.031023 -0.268364 -0.028344
v 0.023855 -0.259290 -0.007827
v 0.012915 -0.262860 -0.025459
v 0.033949 -0.277306 -0.015139
v 0.013304 -0.272426 -0.011678
v 0.020606 -0.288356 -0.028837
v 0.028519 -0.306666 -0.025291
v 0.026736 -0.303639 -0.001798
v 0.017225 -0.303517 -0.004273
v 0.011122 -0.304828 -0.012867
v 0.011161 -0.329046 -0.020843
v 0.018972 -0.340119 -0.024427
v 0.029801 -0.340453 -0.021958
v 0.033036 -0.341126 -0.007879
v 0.025037 -0.338380 0.004078
v 0.015455 -0.336998 0.001503
v 0.008781 -0.365528 -0.006133
v 0.016284 -0.367009 -0.024252
v 0.030513 -0.369852 -0.018576
v 0.029191 -0.381485 -0.000081
v 0.025348 -0.365105 0.008219
v 0.014551 -0.362330 0.010076
v 0.007022 -0.366640 -0.020488
v 0.002655 -0.379981 -0.023009
v 0.015523 -0.381394 -0.025617
v 0.029925 -0.386391 -0.020785
v 0.022030 -0.377881 0.013768
v 0.012115 -0.375266 0.018196
v 0.006277 -0.383573 0.012020
v 0.005152 -0.385517 -0.001140
v 0.011980 -0.394159 -0.031420
v -0.002897 -0.386977 -0.028552
v -0.000454 -0.386982 -0.014488
v 0.020391 -0.398910 -0.030155
v 0.035306 -0.397072 -0.021105
v 0.031216 -0.393925 0.000376
v 0.027072 -0.390989 0.013137
v 0.006791 -0.387902 0.033406
v 0.019716 -0.392229 0.025701
v 0.011160 -0.382117 0.023459
v -0.009434 -0.391673 -0.029127
v 0.003036 -0.399456 -0.036406
v -0.009033 -0.390222 -0.013950
v 0.035446 -0.405787 -0.021325
v 0.030241 -0.405730 -0.000207
v 0.032818 -0.405157 0.007829
v 0.028738 -0.409558 0.017178
v 0.017446 -0.402156 0.030315
v 0.011730 -0.397800 0.036877
v 0.002937 -0.393959 0.037526
v -0.003102 -0.393357 0.027812
v -0.001801 -0.392515 0.016571
v -0.002039 -0.394480 0.001938
v -0.009767 -0.402873 -0.035207
v -0.016769 -0.397147 -0.027677
v -0.017997 -0.395692 -0.022044
v -0.002143 -0.406302 -0.037033
v 0.009008 -0.410653 -0.032782
v -0.011068 -0.400730 -0.006348
v -0.016787 -0.397566 -0.012051
v -0.002281 -0.400084 0.001555
v 0.024463 -0.412674 -0.027747
v 0.031195 -0.414066 -0.022521
v 0.029754 -0.413497 -0.010670
v 0.025460 -0.412837 -0.000033
v 0.032926 -0.414127 0.010430
v 0.014176 -0.411077 0.031278
v 0.006830 -0.402541 0.038298
v -0.007303 -0.397547 0.036054
v -0.015521 -0.394175 0.027941
v -0.016965 -0.394990 0.020749
v -0.008083 -0.398395 0.013016
v -0.021165 -0.406397 -0.029793
v -0.006797 -0.412297 -0.032352
v -0.022408 -0.404588 -0.023297
v -0.020512 -0.405620 -0.013998
v -0.002882 -0.408422 -0.006231
v -0.016366 -0.408881 -0.008787
v 0.004058 -0.410535 0.001843
v -0.001044 -0.408861 0.009405
v 0.023161 -0.421217 -0.025633
v 0.022884 -0.421138 -0.014379
v 0.019261 -0.417790 -0.004385
v 0.020794 -0.418748 0.004095
v 0.029071 -0.420928 0.011581
v 0.027465 -0.417050 0.018789
v 0.021598 -0.413145 0.022962
v 0.002920 -0.416395 0.035054
v -0.008336 -0.410849 0.036693
v -0.020658 -0.408592 0.033736
v -0.016816 -0.403420 0.013198
v -0.021244 -0.413129 -0.028080
v -0.015779 -0.417373 -0.031837
v -0.021820 -0.410716 -0.019655
v -0.013218 -0.416954 -0.012384
v -0.007523 -0.422437 -0.032296
v 0.013151 -0.423220 -0.027991
v -0.005442 -0.416331 -0.007583
v -0.016576 -0.416968 0.016759
v -0.006258 -0.425726 0.017189
v 0.007255 -0.416320 0.001125
v 0.010162 -0.420697 -0.008547
v -0.018287 -0.409922 0.014403
v 0.012471 -0.424793 -0.016973
v 0.014118 -0.418561 0.000880
v 0.019347 -0.425500 0.012975
v 0.022154 -0.425019 0.022274
v 0.014171 -0.419581 0.027912
v -0.018097 -0.414535 0.033884
v -0.022322 -0.403616 0.021101
v -0.013370 -0.420770 -0.020101
v -0.000728 -0.424582 -0.023307
v -0.003760 -0.422528 -0.015194
v -0.020977 -0.415899 0.023124
v 0.009081 -0.430285 0.021312
v 0.004537 -0.429129 0.015807
v 0.011900 -0.427962 0.028185
v -0.002605 -0.426978 0.033381
v -0.011896 -0.424755 0.031019
v -0.015841 -0.422242 0.024399
v -0.007059 -0.428301 0.021569
vn -0.2915 0.6256 0.7237
vn 0.0969 0.3355 0.9371
vn -0.0352 0.7649 0.6432
vn -0.4932 0.1955 0.8477
vn -0.6021 0.4934 0.6278
vn 0.2029 0.7759 0.5974
vn -0.2787 -0.0177 0.9602
vn -0.0184 -0.3025 0.9530
vn 0.3156 0.1040 0.9432
vn 0.6619 0.2447 0.7085
vn 0.6147 0.4576 0.6424
vn 0.5348 0.7504 0.3885
vn -0.0706 0.9832 0.1684
vn 0.2801 0.8999 0.3342
vn -0.4112 0.8692 0.2746
vn -0.6809 0.6781 0.2767
vn -0.8608 0.2657 0.4340
vn 0.3991 -0.3493 0.8477
vn 0.6591 -0.0969 0.7458
vn 0.2762 0.9611 0.0081
vn -0.7087 -0.1805 0.6821
vn -0.9426 -0.1268 0.3089
vn 0.9045 0.4191 0.0790
vn -0.3796 -0.4680 0.7980
vn 0.9584 0.0868 0.2718
vn 0.6886 0.7226 -0.0604
vn -0.3587 0.9208 -0.1533
vn 0.2261 0.9200 -0.3202
vn -0.7560 -0.4552 0.4703
vn -0.7878 0.6045 -0.1182
vn -0.9525 0.2995 0.0547
vn -0.2943 -0.8378 0.4598
vn 0.0582 -0.8112 0.5818
vn 0.5570 -0.6632 0.4999
vn 0.8505 -0.4423 0.2847
vn 0.6651 0.5330 -0.5230
vn -0.2428 0.8005 -0.5480
vn -0.5820 0.6692 -0.4619
vn 0.4192 0.6822 -0.5990
vn -0.9841 0.0176 -0.1768
vn -0.9134 -0.4055 -0.0348
vn -0.6075 -0.7064 0.3632
vn 0.9735 -0.2024 -0.1068
vn 0.8781 0.1849 -0.4413
vn 0.0985 0.6592 -0.7455
vn -0.8224 0.2406 -0.5155
vn 0.2078 0.2825 -0.9365
vn 0.4699 -0.5371 0.7005
vn -0.2540 -0.9630 0.0900
vn 0.8266 -0.2866 -0.4843
vn 0.5950 -0.7960 0.1113
vn 0.7495 -0.6300 -0.2033
vn 0.6075 0.0128 -0.7942
vn -0.2111 0.3174 -0.9245
vn -0.5799 0.3276 -0.7459
vn -0.8572 -0.1736 -0.4849
vn 0.4142 0.3199 -0.8521
vn 0.0531 -0.9876 0.1481
vn -0.7646 -0.6426 -0.0492
vn -0.4417 -0.8834 0.1566
vn 0.8107 -0.1766 -0.5582
vn -0.6952 0.2638 -0.6687
vn -0.2938 0.2815 -0.9135
vn -0.9659 -0.0668 -0.2501
vn -0.8639 -0.4382 0.2482
vn 0.0227 -0.9993 0.0290
vn 0.6118 -0.7910 0.0016
vn -0.3390 -0.6811 0.6490
vn 0.2540 -0.8219 0.5098
vn 0.8428 -0.4446 -0.3033
vn -0.7584 0.6516 -0.0168
vn -0.9815 0.1811 0.0619
vn -0.1620 0.9020 -0.4003
vn -0.8178 -0.1406 0.5581
vn 0.6710 0.6536 -0.3500
vn 0.9857 -0.0209 -0.1672
vn -0.0538 -0.4182 0.9067
vn 0.5886 -0.4984 0.6365
vn -0.0665 0.9816 0.1792
vn -0.9305 0.2160 0.2957
vn 0.4948 0.8680 -0.0422
vn -0.7917 0.1784 0.5843
vn 0.7982 0.5383 -0.2705
vn -0.2706 0.0735 0.9599
vn 0.9867 -0.0438 -0.1564
vn 0.9514 -0.2981 0.0776
vn 0.5357 -0.3712 0.7584
vn 0.9008 -0.1726 0.3985
vn 0.9898 -0.0843 -0.1149
vn 0.9843 -0.1506 -0.0916
vn -0.2549 0.5646 0.7850
vn -0.6670 0.3294 0.6683
vn -0.7100 0.3505 0.6108
vn 0.7526 0.1904 -0.6303
vn 0.1246 0.9446 0.3038
vn 0.4494 0.8124 -0.3716
vn 0.6534 0.3567 -0.6677
vn 0.4290 0.1664 0.8879
vn 0.3248 -0.0764 0.9427
vn 0.1226 0.4105 0.9036
vn -0.2615 0.4324 0.8629
vn 0.7847 -0.0600 -0.6169
vn -0.5509 0.5744 0.6054
vn 0.8658 -0.1876 -0.4640
vn 0.1323 0.3311 0.9343
vn 0.9831 0.0143 -0.1824
vn 0.6176 -0.2831 0.7338
vn 0.5214 -0.0862 0.8490
vn 0.9131 0.0332 0.4063
vn 0.1530 0.9220 -0.3558
vn 0.2495 0.8701 0.4252
vn -0.1137 0.3153 0.9422
vn -0.0146 -0.0802 0.9967
vn -0.7390 0.0712 0.6699
vn -0.8544 0.3497 0.3844
vn 0.7475 -0.2435 -0.6180
vn 0.9298 -0.1735 -0.3246
vn -0.6300 0.5750 0.5220
vn -0.4641 0.1308 0.8761
vn 0.9832 0.1619 -0.0845
vn 0.8818 0.0161 -0.4713
vn 0.4499 -0.3123 0.8367
vn 0.2210 -0.2509 0.9424
vn -0.1101 0.6392 -0.7611
vn -0.3018 0.9257 -0.2281
vn 0.1143 0.2263 -0.9673
vn 0.6339 0.1852 -0.7509
vn -0.7429 0.6264 0.2359
vn -0.9405 0.0138 0.3395
vn -0.9564 -0.2314 0.1781
vn -0.9540 -0.2556 0.1566
vn -0.9923 0.0095 0.1239
vn 0.4075 -0.2330 -0.8830
vn 0.7329 -0.0212 -0.6801
vn 0.9133 0.1338 0.3847
vn 0.4453 -0.0316 0.8948
vn -0.6358 0.5928 -0.4943
vn -0.9417 0.2813 -0.1844
vn 0.1192 0.2691 -0.9557
vn -0.9380 -0.1182 -0.3257
vn -0.9373 -0.3485 -0.0002
vn -0.9099 -0.4132 0.0371
vn -0.9252 -0.3286 -0.1898
vn -0.8954 -0.4446 0.0246
vn 0.2593 -0.3537 -0.8987
vn -0.3533 -0.7006 0.6200
vn -0.0386 -0.7837 0.6199
vn 0.9212 0.1758 -0.3472
vn 0.6192 0.0805 -0.7811
vn -0.0448 -0.2922 0.9553
vn -0.6639 0.1541 -0.7318
vn -0.3649 -0.3061 -0.8793
vn -0.7464 -0.2387 -0.6212
vn -0.8084 -0.3748 -0.4538
vn -0.7045 -0.6914 0.1603
vn -0.2869 -0.2918 -0.9124
vn 0.2615 0.0980 0.9602
vn -0.0627 -0.1394 -0.9883
vn -0.4114 -0.2238 0.8836
vn -0.6333 -0.3008 -0.7130
vn -0.9055 -0.2184 0.3638
vn -0.8298 -0.2538 -0.4971
vn 0.6812 0.0942 -0.7260
vn 0.9692 0.1926 0.1535
vn 0.2089 0.0716 0.9753
vn -0.0469 -0.0788 -0.9958
vn -0.8031 -0.1812 0.5676
vn -0.8559 -0.2451 -0.4553
vn 0.9903 0.1363 0.0254
vn 0.2930 0.0865 0.9522
vn -0.8082 -0.0946 0.5813
vn -0.1933 -0.1438 -0.9706
vn -0.9139 -0.2698 -0.3032
vn 0.6320 -0.0169 -0.7748
vn -0.9502 -0.1475 -0.2744
vn 0.9514 0.1308 0.2788
vn 0.0629 0.1260 0.9900
vn -0.8387 -0.0049 0.5446
vn -0.2134 -0.1293 -0.9684
vn 0.7375 -0.0576 -0.6728
vn 0.1678 0.1389 0.9760
vn -0.9204 -0.0641 -0.3858
vn 0.9737 0.0435 0.2238
vn -0.8415 0.0928 0.5323
vn -0.1629 -0.0816 -0.9833
vn 0.6615 -0.0784 -0.7458
vn 0.3674 0.1272 0.9213
vn -0.5684 0.1163 0.8145
vn -0.9654 0.0485 0.2561
vn -0.8385 0.0005 -0.5449
vn -0.0801 -0.0421 -0.9959
vn 0.7166 -0.0787 -0.6930
vn 0.9893 -0.0119 0.1454
vn 0.3922 0.1853 0.9010
vn -0.6571 0.1997 0.7268
vn -0.9661 0.1888 0.1763
vn 0.0192 0.0672 -0.9976
vn 0.8667 0.0204 -0.4984
vn 0.9686 0.0699 0.2386
vn 0.6757 0.1406 0.7237
vn -0.4742 0.3934 0.7876
vn -0.8477 0.2216 -0.4820
vn -0.6857 0.5559 -0.4699
vn 0.1295 0.2472 -0.9603
vn 0.7956 0.2623 -0.5461
vn 0.6587 0.1612 0.7350
vn -0.2983 0.5561 0.7757
vn -0.8320 0.5406 0.1247
vn -0.8541 0.5021 0.1353
vn 0.1844 0.4090 -0.8937
vn -0.3418 0.6872 -0.6410
vn -0.5656 0.8139 0.1330
vn 0.3957 0.1262 -0.9097
vn 0.8951 0.2094 -0.3937
vn 0.9760 0.1602 0.1472
vn 0.8576 0.3117 0.4091
vn -0.0261 0.7577 0.6521
vn 0.6999 0.3381 0.6291
vn -0.9453 0.2936 -0.1423
vn -0.4324 0.7042 -0.5631
vn 0.1080 0.2914 -0.9505
vn -0.5436 0.8005 0.2524
vn 0.9200 -0.1844 -0.3460
vn 0.9606 -0.2699 -0.0669
vn 0.9929 0.0824 0.0854
vn 0.8012 -0.0627 0.5951
vn 0.7034 0.0176 0.7106
vn 0.5710 0.1768 0.8017
vn -0.1598 0.3627 0.9181
vn -0.3245 0.9377 0.1242
vn -0.6061 0.7861 -0.1213
vn -0.8993 0.4278 0.0907
vn -0.3535 0.1018 -0.9299
vn -0.6570 0.5444 -0.5215
vn -0.7556 0.6535 -0.0444
vn -0.0477 -0.2467 -0.9679
vn 0.2345 -0.2198 -0.9469
vn -0.7065 0.4936 0.5071
vn -0.5325 0.1716 0.8289
vn -0.9647 -0.2363 0.1161
vn 0.4322 -0.1691 -0.8858
vn 0.8000 -0.4896 -0.3469
vn 0.8144 -0.5346 0.2259
vn 0.6973 -0.6972 -0.1665
vn 0.9634 -0.2669 0.0255
vn 0.5776 -0.2516 0.7766
vn 0.2045 -0.0349 0.9783
vn -0.4008 0.3317 0.8540
vn -0.5385 0.7752 0.3302
vn -0.5892 0.7724 -0.2372
vn -0.5431 0.4847 -0.6856
vn -0.7462 0.0777 -0.6612
vn -0.1565 -0.1942 -0.9684
vn -0.9720 0.2322 -0.0354
vn -0.8953 0.0290 0.4446
vn -0.5579 -0.2141 0.8018
vn -0.6206 -0.2270 0.7506
vn -0.8695 -0.4845 -0.0959
vn -0.7070 0.0717 -0.7036
vn 0.4633 -0.7348 -0.4954
vn 0.4693 -0.8579 0.2091
vn 0.3727 -0.9115 0.1741
vn 0.3417 -0.8167 -0.4650
vn 0.7060 -0.6929 -0.1467
vn 0.7857 -0.0104 0.6185
vn 0.6645 -0.1475 0.7326
vn 0.2552 -0.2846 0.9240
vn -0.1763 -0.0669 0.9821
vn -0.7783 0.0440 0.6263
vn -0.5209 0.2471 -0.8171
vn -0.8080 -0.3876 -0.4436
vn -0.5492 -0.3424 -0.7623
vn -0.9106 -0.3372 0.2390
vn -0.5411 -0.6465 0.5378
vn -0.1992 -0.6878 -0.6980
vn 0.2257 -0.7624 -0.6065
vn -0.3329 -0.5381 0.7744
vn -0.6003 -0.4926 -0.6300
vn -0.4225 -0.6637 -0.6172
vn -0.6413 -0.6756 -0.3639
vn -0.0915 -0.8979 0.4307
vn -0.6302 -0.1986 -0.7506
vn 0.1254 -0.9809 0.1487
vn -0.0132 -0.9769 -0.2132
vn 0.2508 -0.9045 -0.3450
vn 0.6324 -0.6073 0.4809
vn 0.5167 -0.1865 0.8356
vn -0.6327 -0.3523 0.6896
vn -0.9627 0.2370 -0.1306
vn -0.5281 -0.8338 0.1608
vn -0.1105 -0.9936 -0.0211
vn -0.2206 -0.8968 0.3836
vn -0.9130 -0.4011 -0.0738
vn 0.1332 -0.9904 -0.0361
vn -0.0663 -0.8934 -0.4443
vn 0.3635 -0.6377 0.6792
vn -0.0382 -0.6928 0.7201
vn -0.4979 -0.6946 0.5192
vn -0.7157 -0.6826 -0.1478
vn -0.3880 -0.9044 -0.1772
s 1
f 1//1 2//2 3//3
f 4//4 2//2 1//1
f 1//1 5//5 4//4
f 3//3 2//2 6//6
f 7//7 2//2 4//4
f 8//8 2//2 7//7
f 9//9 2//2 8//8
f 10//10 2//2 9//9
f 11//11 2//2 10//10
f 6//6 2//2 11//11
f 6//6 12//12 3//3
f 3//3 13//13 1//1
f 12//12 14//14 3//3
f 14//14 13//13 3//3
f 13//13 15//15 1//1
f 1//1 15//15 5//5
f 15//15 16//16 5//5
f 16//16 17//17 5//5
f 5//5 17//17 4//4
f 11//11 12//12 6//6
f 8//8 18//18 9//9
f 9//9 18//18 10//10
f 18//18 19//19 10//10
f 14//14 20//20 13//13
f 12//12 20//20 14//14
f 17//17 21//21 4//4
f 4//4 21//21 7//7
f 17//17 22//22 21//21
f 10//10 23//23 11//11
f 23//23 12//12 11//11
f 21//21 24//24 7//7
f 7//7 24//24 8//8
f 19//19 25//25 10//10
f 25//25 23//23 10//10
f 23//23 26//26 12//12
f 26//26 20//20 12//12
f 13//13 27//27 15//15
f 20//20 27//27 13//13
f 20//20 28//28 27//27
f 26//26 28//28 20//20
f 22//22 29//29 21//21
f 21//21 29//29 24//24
f 15//15 27//27 30//30
f 15//15 30//30 16//16
f 16//16 30//30 31//31
f 16//16 31//31 17//17
f 17//17 31//31 22//22
f 29//29 32//32 24//24
f 24//24 32//32 8//8
f 32//32 33//33 8//8
f 8//8 33//33 18//18
f 33//33 34//34 18//18
f 18//18 34//34 19//19
f 34//34 35//35 19//19
f 19//19 35//35 25//25
f 23//23 36//36 26//26
f 26//26 36//36 28//28
f 27//27 38//37 37//38
f 28//28 38//37 27//27
f 27//27 37//38 30//30
f 36//36 39//39 28//28
f 30//30 40//40 31//31
f 31//31 40//40 41//41
f 31//31 41//41 22//22
f 22//22 41//41 42//42
f 22//22 42//42 29//29
f 29//29 42//42 32//32
f 35//35 43//43 25//25
f 25//25 43//43 44//44
f 25//25 44//44 23//23
f 23//23 44//44 36//36
f 28//28 45//45 38//37
f 37//38 46//46 30//30
f 30//30 46//46 40//40
f 39//39 45//45 28//28
f 36//36 47//47 39//39
f 47//47 45//45 39//39
f 32//32 48//48 33//33
f 42//42 49//49 32//32
f 32//32 49//49 48//48
f 35//35 50//50 43//43
f 43//43 50//50 44//44
f 33//33 48//48 51//51
f 33//33 51//51 34//34
f 34//34 51//51 52//52
f 34//34 52//52 35//35
f 35//35 52//52 50//50
f 44//44 53//53 36//36
f 53//53 47//47 36//36
f 38//37 54//54 55//55
f 38//37 55//55 37//38
f 45//45 54//54 38//37
f 37//38 55//55 46//46
f 46//46 56//56 40//40
f 45//45 47//47 54//54
f 53//53 57//57 47//47
f 49//49 58//58 48//48
f 48//48 58//58 51//51
f 40//40 56//56 41//41
f 41//41 56//56 59//59
f 41//41 59//59 42//42
f 42//42 59//59 60//60
f 42//42 60//60 49//49
f 50//50 53//53 44//44
f 50//50 61//61 53//53
f 53//53 61//61 57//57
f 54//54 62//62 55//55
f 54//54 63//63 62//62
f 55//55 62//62 46//46
f 46//46 62//62 64//64
f 46//46 64//64 56//56
f 47//47 63//63 54//54
f 56//56 64//64 65//65
f 56//56 65//65 59//59
f 47//47 57//57 63//63
f 58//58 49//49 66//66
f 58//58 66//66 67//67
f 58//58 67//67 51//51
f 59//59 65//65 68//68
f 59//59 68//68 60//60
f 60//60 68//68 69//69
f 60//60 69//69 49//49
f 49//49 69//69 66//66
f 51//51 70//70 52//52
f 52//52 70//70 61//61
f 52//52 61//61 50//50
f 51//51 67//67 70//70
f 63//63 71//71 62//62
f 62//62 71//71 72//72
f 62//62 72//72 64//64
f 63//63 73//73 71//71
f 64//64 72//72 74//74
f 64//64 74//74 65//65
f 57//57 75//75 63//63
f 63//63 75//75 73//73
f 65//65 74//74 68//68
f 61//61 76//76 57//57
f 57//57 76//76 75//75
f 66//66 69//69 67//67
f 68//68 74//74 77//77
f 68//68 77//77 69//69
f 69//69 77//77 78//78
f 69//69 78//78 67//67
f 70//70 76//76 61//61
f 73//73 79//79 71//71
f 72//72 80//80 74//74
f 75//75 81//81 73//73
f 81//81 79//79 73//73
f 80//80 82//82 74//74
f 76//76 83//83 75//75
f 83//83 81//81 75//75
f 82//82 84//84 74//74
f 74//74 84//84 77//77
f 85//85 83//83 76//76
f 67//67 86//86 70//70
f 67//67 78//78 86//86
f 70//70 86//86 76//76
f 84//84 87//87 77//77
f 77//77 87//87 78//78
f 87//87 88//88 78//78
f 78//78 88//88 86//86
f 86//86 89//89 76//76
f 89//89 90//90 76//76
f 90//90 85//85 76//76
f 79//79 91//91 71//71
f 71//71 91//91 72//72
f 91//91 92//92 72//72
f 72//72 92//92 80//80
f 92//92 93//93 80//80
f 80//80 93//93 82//82
f 85//85 94//94 83//83
f 90//90 94//94 85//85
f 88//88 89//89 86//86
f 79//79 95//95 91//91
f 81//81 96//96 79//79
f 96//96 95//95 79//79
f 83//83 97//97 81//81
f 97//97 96//96 81//81
f 95//95 98//98 91//91
f 98//98 99//99 91//91
f 91//91 99//99 92//92
f 99//99 100//100 92//92
f 100//100 101//101 92//92
f 92//92 101//101 93//93
f 94//94 102//102 83//83
f 102//102 97//97 83//83
f 93//93 103//103 82//82
f 82//82 103//103 84//84
f 94//94 104//104 102//102
f 103//103 105//105 84//84
f 84//84 105//105 87//87
f 89//89 106//106 90//90
f 90//90 106//106 94//94
f 106//106 104//104 94//94
f 87//87 107//107 88//88
f 105//105 107//107 87//87
f 107//107 108//108 88//88
f 89//89 88//88 109//109
f 88//88 108//108 109//109
f 109//109 106//106 89//89
f 95//95 110//110 98//98
f 96//96 110//110 95//95
f 97//97 110//110 96//96
f 110//110 111//111 98//98
f 98//98 112//112 99//99
f 111//111 112//112 98//98
f 99//99 112//112 100//100
f 112//112 113//113 100//100
f 100//100 113//113 101//101
f 113//113 114//114 101//101
f 101//101 114//114 93//93
f 114//114 115//115 93//93
f 93//93 115//115 103//103
f 104//104 116//116 102//102
f 116//116 117//117 102//102
f 115//115 118//118 103//103
f 118//118 119//119 103//103
f 103//103 119//119 105//105
f 106//106 120//120 104//104
f 120//120 121//121 104//104
f 121//121 116//116 104//104
f 119//119 122//122 105//105
f 105//105 122//122 107//107
f 109//109 120//120 106//106
f 107//107 123//123 108//108
f 97//97 124//124 110//110
f 110//110 124//124 125//125
f 110//110 125//125 111//111
f 102//102 126//126 97//97
f 97//97 126//126 124//124
f 117//117 127//127 102//102
f 102//102 127//127 126//126
f 111//111 125//125 128//128
f 111//111 128//128 112//112
f 112//112 128//128 129//129
f 112//112 129//129 113//113
f 113//113 129//129 114//114
f 114//114 129//129 130//130
f 114//114 130//130 131//131
f 114//114 131//131 115//115
f 115//115 131//131 132//132
f 115//115 132//132 118//118
f 116//116 133//133 117//117
f 117//117 133//133 127//127
f 118//118 132//132 119//119
f 121//121 134//134 116//116
f 108//108 135//135 109//109
f 109//109 135//135 120//120
f 123//123 136//136 108//108
f 108//108 136//136 135//135
f 124//124 137//137 125//125
f 125//125 137//137 138//138
f 125//125 138//138 128//128
f 127//127 124//124 126//126
f 133//133 139//139 127//127
f 127//127 139//139 124//124
f 128//128 138//138 129//129
f 129//129 138//138 140//140
f 129//129 140//140 130//130
f 130//130 140//140 141//141
f 130//130 141//141 131//131
f 142//142 143//143 131//131
f 141//141 142//142 131//131
f 132//132 131//131 143//143
f 144//144 132//132 143//143
f 119//119 132//132 144//144
f 134//134 145//145 116//116
f 116//116 145//145 133//133
f 146//146 119//119 144//144
f 122//122 119//119 146//146
f 147//147 122//122 146//146
f 107//107 122//122 147//147
f 120//120 148//148 121//121
f 135//135 148//148 120//120
f 121//121 149//149 134//134
f 148//148 149//149 121//121
f 134//134 149//149 145//145
f 107//107 147//147 123//123
f 123//123 150//150 136//136
f 147//147 150//150 123//123
f 124//124 139//139 137//137
f 137//137 139//139 151//151
f 137//137 151//151 138//138
f 133//133 152//152 139//139
f 138//138 151//151 140//140
f 140//140 151//151 153//153
f 140//140 153//153 141//141
f 154//154 142//142 141//141
f 141//141 153//153 154//154
f 144//144 143//143 155//155
f 143//143 142//142 155//155
f 146//146 144//144 155//155
f 145//145 156//156 152//152
f 145//145 152//152 133//133
f 147//147 146//146 155//155
f 147//147 155//155 150//150
f 136//136 157//157 135//135
f 149//149 158//158 145//145
f 145//145 158//158 156//156
f 159//159 157//157 136//136
f 150//150 159//159 136//136
f 150//150 155//155 159//159
f 139//139 152//152 151//151
f 151//151 152//152 153//153
f 160//160 142//142 154//154
f 156//156 160//160 154//154
f 154//154 153//153 156//156
f 153//153 152//152 156//156
f 155//155 142//142 159//159
f 159//159 142//142 161//161
f 161//161 142//142 162//162
f 162//162 142//142 160//160
f 148//148 163//163 149//149
f 164//164 163//163 148//148
f 135//135 164//164 148//148
f 165//165 164//164 135//135
f 157//157 165//165 135//135
f 159//159 165//165 157//157
f 158//158 160//160 156//156
f 149//149 166//166 158//158
f 163//163 166//166 149//149
f 167//167 165//165 159//159
f 161//161 167//167 159//159
f 158//158 162//162 160//160
f 168//168 167//167 161//161
f 162//162 168//168 161//161
f 166//166 168//168 162//162
f 158//158 166//166 162//162
f 164//164 169//169 163//163
f 170//170 169//169 164//164
f 165//165 170//170 164//164
f 171//171 170//170 165//165
f 167//167 171//171 165//165
f 166//166 172//172 168//168
f 163//163 172//172 166//166
f 173//173 171//171 167//167
f 168//168 173//173 167//167
f 172//172 173//173 168//168
f 163//163 174//174 172//172
f 169//169 174//174 163//163
f 173//173 175//175 171//171
f 172//172 175//175 173//173
f 169//169 176//176 174//174
f 177//177 176//176 169//169
f 170//170 177//177 169//169
f 178//178 177//177 170//170
f 171//171 178//178 170//170
f 175//175 178//178 171//171
f 172//172 179//179 175//175
f 174//174 179//179 172//172
f 174//174 180//180 179//179
f 176//176 180//180 174//174
f 177//177 181//181 176//176
f 178//178 181//181 177//177
f 175//175 182//182 178//178
f 179//179 182//182 175//175
f 176//176 183//183 180//180
f 181//181 183//183 176//176
f 178//178 184//184 181//181
f 182//182 184//184 178//178
f 179//179 185//185 182//182
f 180//180 185//185 179//179
f 180//180 186//186 185//185
f 183//183 186//186 180//180
f 181//181 187//187 183//183
f 181//181 188//188 187//187
f 184//184 188//188 181//181
f 184//184 189//189 188//188
f 182//182 189//189 184//184
f 185//185 190//190 182//182
f 182//182 190//190 189//189
f 185//185 191//191 190//190
f 192//192 191//191 185//185
f 186//186 192//192 185//185
f 193//193 192//192 186//186
f 183//183 193//193 186//186
f 194//194 193//193 183//183
f 187//187 194//194 183//183
f 195//195 194//194 187//187
f 188//188 195//195 187//187
f 196//196 195//195 188//188
f 189//189 196//196 188//188
f 190//190 196//196 189//189
f 191//191 197//197 190//190
f 198//198 197//197 191//191
f 192//192 198//198 191//191
f 199//199 198//198 192//192
f 193//193 199//199 192//192
f 200//200 199//199 193//193
f 194//194 200//200 193//193
f 201//201 200//200 194//194
f 195//195 201//201 194//194
f 196//196 201//201 195//195
f 190//190 202//202 196//196
f 197//197 202//202 190//190
f 197//197 203//203 202//202
f 197//197 204//204 203//203
f 198//198 204//204 197//197
f 198//198 205//205 204//204
f 199//199 205//205 198//198
f 200//200 206//206 199//199
f 200//200 207//207 206//206
f 201//201 207//207 200//200
f 201//201 208//208 207//207
f 196//196 208//208 201//201
f 196//196 209//209 208//208
f 202//202 209//209 196//196
f 202//202 203//203 209//209
f 203//203 210//210 211//211
f 204//204 210//210 203//203
f 203//203 212//212 209//209
f 203//203 211//211 212//212
f 204//204 213//213 210//210
f 205//205 213//213 204//204
f 205//205 214//214 213//213
f 205//205 215//215 214//214
f 199//199 215//215 205//205
f 206//206 215//215 199//199
f 206//206 216//216 215//215
f 207//207 216//216 206//206
f 207//207 217//217 218//218
f 207//207 218//218 216//216
f 207//207 219//219 217//217
f 208//208 219//219 207//207
f 210//210 220//220 211//211
f 210//210 221//221 220//220
f 213//213 221//221 210//210
f 211//211 222//222 212//212
f 211//211 220//220 222//222
f 212//212 222//222 209//209
f 214//214 223//223 213//213
f 215//215 223//223 214//214
f 215//215 224//224 223//223
f 215//215 225//225 224//224
f 216//216 225//225 215//215
f 216//216 226//226 225//225
f 218//218 226//226 216//216
f 217//217 227//227 218//218
f 217//217 228//228 227//227
f 217//217 229//229 228//228
f 230//230 229//229 217//217
f 219//219 230//230 217//217
f 208//208 230//230 219//219
f 208//208 231//231 230//230
f 209//209 231//231 208//208
f 209//209 232//232 231//231
f 209//209 222//222 232//232
f 220//220 233//233 234//234
f 221//221 233//233 220//220
f 220//220 235//235 222//222
f 220//220 234//234 235//235
f 221//221 236//236 233//233
f 221//221 237//237 236//236
f 213//213 237//237 221//221
f 222//222 239//238 238//239
f 222//222 235//235 239//238
f 222//222 240//240 232//232
f 222//222 238//239 240//240
f 213//213 241//241 237//237
f 223//223 241//241 213//213
f 223//223 242//242 241//241
f 224//224 242//242 223//223
f 224//224 243//243 242//242
f 224//224 244//244 243//243
f 224//224 245//245 244//244
f 225//225 245//245 224//224
f 225//225 226//226 245//245
f 218//218 227//227 226//226
f 227//227 246//246 226//226
f 247//247 246//246 227//227
f 228//228 247//247 227//227
f 248//248 247//247 228//228
f 229//229 248//248 228//228
f 249//249 248//248 229//229
f 230//230 249//249 229//229
f 231//231 250//250 230//230
f 231//231 251//251 250//250
f 232//232 251//251 231//231
f 232//232 240//240 251//251
f 233//233 252//252 234//234
f 253//253 252//252 233//233
f 236//236 253//253 233//233
f 234//234 254//254 235//235
f 252//252 254//254 234//234
f 235//235 255//255 239//238
f 254//254 255//255 235//235
f 237//237 253//253 236//236
f 238//239 256//256 240//240
f 257//257 256//256 238//239
f 239//238 257//257 238//239
f 255//255 257//257 239//238
f 240//240 258//258 259//259
f 240//240 259//259 251//251
f 256//256 258//258 240//240
f 242//242 260//260 241//241
f 261//261 260//260 242//242
f 243//243 261//261 242//242
f 262//262 261//261 243//243
f 244//244 262//262 243//243
f 262//262 244//244 263//263
f 264//264 263//263 244//244
f 245//245 264//264 244//244
f 265//265 264//264 245//245
f 266//266 265//265 245//245
f 226//226 266//266 245//245
f 246//246 266//266 226//226
f 247//247 267//267 246//246
f 268//268 267//267 247//247
f 248//248 268//268 247//247
f 249//249 268//268 248//248
f 269//269 268//268 249//249
f 250//250 269//269 249//249
f 250//250 249//249 230//230
f 251//251 270//270 250//250
f 259//259 270//270 251//251
f 252//252 271//271 254//254
f 253//253 271//271 252//252
f 272//272 271//271 253//253
f 254//254 273//273 255//255
f 271//271 273//273 254//254
f 255//255 274//274 257//257
f 273//273 274//274 255//255
f 275//275 272//272 253//253
f 237//237 275//275 253//253
f 276//276 275//275 237//237
f 241//241 276//276 237//237
f 256//256 277//277 258//258
f 257//257 277//277 256//256
f 274//274 277//277 257//257
f 258//258 278//278 259//259
f 279//279 278//278 258//258
f 280//280 279//279 258//258
f 277//277 281//281 258//258
f 258//258 281//281 280//280
f 259//259 282//282 270//270
f 278//278 282//282 259//259
f 260//260 276//276 241//241
f 261//261 276//276 260//260
f 283//283 276//276 261//261
f 262//262 283//283 261//261
f 284//284 262//262 263//263
f 281//281 283//283 262//262
f 284//284 281//281 262//262
f 285//285 284//284 263//263
f 264//264 285//285 263//263
f 286//286 285//285 264//264
f 265//265 286//286 264//264
f 287//287 286//286 265//265
f 266//266 287//287 265//265
f 246//246 287//287 266//266
f 267//267 287//287 246//246
f 288//288 268//268 269//269
f 289//289 288//288 269//269
f 289//289 269//269 250//250
f 270//270 289//289 250//250
f 282//282 289//289 270//270
f 271//271 290//290 273//273
f 272//272 290//290 271//271
f 275//275 290//290 272//272
f 290//290 274//274 273//273
f 291//291 290//290 275//275
f 276//276 291//291 275//275
f 277//277 292//292 281//281
f 274//274 292//292 277//277
f 284//284 279//279 280//280
f 280//280 281//281 284//284
f 282//282 293//293 289//289
f 278//278 293//293 282//282
f 283//283 291//291 276//276
f 292//292 283//283 281//281
f 285//285 294//294 284//284
f 286//286 294//294 285//285
f 294//294 295//295 284//284
f 296//296 294//294 286//286
f 287//287 296//296 286//286
f 287//287 297//297 296//296
f 267//267 297//297 287//287
f 297//297 267//267 268//268
f 288//288 298//298 268//268
f 298//298 297//297 268//268
f 299//299 298//298 288//288
f 293//293 299//299 288//288
f 293//293 288//288 289//289
f 290//290 292//292 274//274
f 291//291 292//292 290//290
f 283//283 292//292 291//291
f 278//278 300//300 293//293
f 279//279 300//300 278//278
f 295//295 300//300 279//279
f 295//295 279//279 284//284
f 300//300 299//299 293//293
f 294//294 300//300 295//295
f 297//297 300//300 294//294
f 296//296 297//297 294//294
f 300//300 298//298 299//299
f 297//297 298//298 300//300
