# Blender 4.0.2
# www.blender.org
mtllib hyoid.mtl
o hyoid.002
v -0.018647 0.006464 -0.017733
v -0.021293 0.009054 -0.018331
v -0.021114 0.010385 -0.018062
v -0.019698 0.009924 -0.017084
v -0.020326 0.007278 -0.018295
v -0.020620 0.006814 -0.018040
v -0.021511 0.010753 -0.017389
v -0.022059 0.010339 -0.017346
v -0.021678 0.008058 -0.018007
v -0.003191 -0.002106 -0.015751
v -0.004519 0.002567 -0.015681
v -0.006495 -0.001831 -0.016058
v -0.007066 0.001945 -0.016675
v -0.007918 0.003334 -0.016522
v -0.010387 0.004864 -0.016224
v -0.011304 0.004454 -0.016875
v -0.011087 0.001744 -0.016041
v -0.012501 0.005931 -0.015645
v -0.013865 0.004124 -0.016945
v -0.015050 0.004254 -0.016298
v -0.017357 0.008764 -0.017002
v -0.016338 0.008554 -0.016211
v -0.018464 0.005904 -0.017037
v -0.017570 0.005752 -0.016134
v -0.020828 0.010659 -0.017543
v -0.019731 0.009907 -0.017037
v -0.021260 0.006354 -0.016522
v -0.021460 0.010527 -0.015395
v -0.022351 0.007527 -0.015737
v -0.021935 0.006595 -0.015965
v 0.000391 0.002316 -0.013986
v 0.001780 0.000954 -0.014523
v 0.000112 -0.003556 -0.014320
v 0.000385 -0.004590 -0.013358
v -0.004042 -0.003105 -0.015408
v -0.006848 -0.002077 -0.014352
v -0.007507 -0.001750 -0.015327
v -0.008182 -0.001149 -0.014778
v -0.008949 0.004440 -0.015100
v -0.008222 0.004074 -0.014560
v -0.009944 0.003875 -0.014528
v -0.010040 0.000602 -0.015309
v -0.010981 0.002314 -0.014762
v -0.016012 0.007120 -0.015313
v -0.017328 0.006073 -0.015770
v -0.017305 0.008995 -0.015880
v -0.017378 0.008604 -0.015508
v -0.019444 0.009739 -0.015834
v -0.020892 0.010696 -0.015519
v -0.019891 0.009437 -0.015358
v -0.021558 0.006902 -0.015112
v -0.020331 0.006674 -0.015128
v -0.020391 0.006667 -0.015068
v -0.021903 0.009781 -0.015108
v -0.021154 0.009935 -0.014870
v -0.021933 0.006596 -0.015953
v 0.007163 0.001825 -0.012691
v 0.007283 0.002933 -0.012801
v 0.005708 0.005272 -0.013046
v 0.005757 0.002277 -0.013456
v 0.005070 0.001449 -0.013041
v 0.006554 0.000259 -0.012166
v 0.005077 0.005630 -0.012886
v 0.005123 0.005624 -0.012655
v 0.004447 0.005371 -0.012982
v 0.004259 0.004994 -0.012864
v 0.004137 0.004600 -0.012847
v 0.004283 0.005044 -0.012476
v 0.004705 0.002732 -0.012643
v 0.004575 0.000954 -0.012680
v 0.003670 0.000761 -0.012751
v 0.003861 0.000174 -0.013201
v 0.004940 0.000304 -0.012936
v 0.004292 0.000304 -0.013010
v -0.000800 -0.003711 -0.012585
v -0.003836 0.003224 -0.013266
v 0.006732 0.004637 -0.012091
v 0.007446 0.000377 -0.010806
v 0.005736 0.005501 -0.012490
v 0.006241 0.002255 -0.010049
v 0.004050 -0.004950 -0.011209
v 0.004758 0.005380 -0.012400
v 0.005119 0.005725 -0.012573
v 0.004270 0.005022 -0.012456
v 0.004050 0.004522 -0.012474
v 0.004599 0.002512 -0.011365
v 0.005064 0.003420 -0.011146
v 0.004228 0.001790 -0.011151
v 0.002918 -0.005415 -0.010576
v 0.002314 0.001534 -0.011596
v 0.003637 0.001484 -0.010954
v 0.001022 0.001514 -0.011121
v -0.000110 0.000634 -0.011192
v 0.008100 -0.000679 -0.010308
v 0.006920 0.001494 -0.009827
v 0.006011 0.001684 -0.009058
v 0.005128 -0.007104 -0.008719
v 0.005012 0.002266 -0.010172
v 0.004709 0.001760 -0.009403
v 0.002669 0.001364 -0.010419
v 0.002306 -0.001386 -0.009154
v 0.001773 0.001064 -0.010334
v 0.009967 -0.000457 -0.007672
v 0.006679 -0.006627 -0.008612
v 0.007938 0.000664 -0.008623
v 0.006728 -0.007600 -0.007202
v 0.003894 -0.006414 -0.008082
v 0.003053 -0.004396 -0.008509
v 0.006222 -0.007691 -0.006450
v 0.011277 -0.000793 -0.004553
v 0.010247 0.001014 -0.004902
v 0.007347 -0.007209 -0.003079
v 0.006137 -0.001636 -0.004460
v 0.006018 0.001335 -0.004377
v 0.005392 0.000424 -0.004737
v 0.011002 0.000104 -0.003642
v 0.011866 -0.000899 -0.000772
v 0.011492 -0.000456 -0.001361
v 0.008424 0.001774 -0.002267
v 0.006482 0.001001 -0.001848
v 0.011903 0.000870 0.000611
v 0.010951 0.000654 -0.000308
v 0.009356 -0.006606 -0.000692
v 0.008491 -0.007006 0.000061
v 0.009197 0.001782 -0.000260
v 0.008132 -0.007086 -0.001156
v 0.008248 -0.006505 0.000602
v 0.008349 0.001944 -0.000588
v 0.007256 0.001931 -0.000771
v 0.006807 0.001859 0.000701
v 0.006711 0.001169 0.000651
v 0.012265 -0.000584 0.000706
v 0.011969 -0.000186 0.001294
v 0.010909 -0.002736 0.000330
v 0.011559 0.001895 0.000424
v 0.010560 0.002777 0.000585
v 0.011214 0.002266 0.000897
v 0.010327 0.002763 0.000812
v 0.011097 0.000605 0.001542
v 0.008481 -0.007009 0.001302
v 0.009084 -0.007076 0.002161
v 0.009557 0.001704 0.001501
v 0.007788 -0.002996 0.001557
v 0.007965 -0.006940 0.002561
v 0.007828 0.002484 0.000803
v 0.011603 -0.001276 0.002648
v 0.011570 -0.000436 0.002551
v 0.008405 0.001844 0.002187
v 0.008273 0.001889 0.003336
v 0.007372 0.001904 0.002397
v 0.006428 0.000707 0.003648
v 0.010925 0.000204 0.004969
v 0.007999 -0.007271 0.005289
v 0.006855 -0.007082 0.005168
v 0.006875 -0.007076 0.005152
v 0.006391 0.001454 0.004906
v 0.011279 -0.000716 0.005835
v 0.010502 0.001020 0.006152
v 0.009759 0.001639 0.005546
v 0.006921 -0.007521 0.006494
v 0.006906 -0.007536 0.006525
v 0.007413 0.001611 0.008177
v 0.006364 -0.007699 0.008545
v 0.005897 -0.007476 0.007823
v 0.004491 0.001198 0.008032
v 0.009789 -0.000346 0.008859
v 0.008671 -0.001818 0.010604
v 0.006873 -0.006443 0.009931
v 0.005805 -0.007369 0.009639
v 0.004178 -0.006476 0.009341
v 0.008185 -0.000316 0.011204
v 0.007241 0.001144 0.010543
v 0.006095 0.001709 0.010245
v 0.005870 0.002324 0.011332
v 0.003008 -0.005522 0.011724
v 0.004430 0.001814 0.011252
v 0.002336 -0.004286 0.011289
v 0.001968 0.000483 0.011167
v 0.001941 0.001200 0.011758
v 0.001668 -0.000922 0.011284
v 0.006982 0.001814 0.011708
v 0.007399 0.001124 0.012388
v 0.007116 -0.000186 0.012681
v 0.005903 0.005305 0.013518
v 0.004734 -0.004786 0.012321
v 0.004922 0.003404 0.012581
v 0.004573 0.002344 0.012409
v 0.004243 0.001707 0.012475
v 0.003177 0.001424 0.012242
v 0.001140 0.001371 0.012184
v -0.000519 0.001864 0.013055
v -0.001241 0.000684 0.013019
v 0.007139 0.003419 0.014015
v 0.007323 0.001844 0.013827
v 0.006670 0.004703 0.013383
v 0.005936 0.005467 0.013920
v 0.006428 0.003780 0.014732
v 0.005579 0.002782 0.014767
v 0.005276 0.001233 0.014521
v 0.005275 0.001254 0.014437
v 0.004975 0.000574 0.014287
v 0.005006 0.005628 0.013846
v 0.004176 0.005009 0.013919
v 0.004303 0.005124 0.013930
v 0.004021 0.004508 0.013945
v 0.004516 0.005317 0.014274
v 0.005246 0.005132 0.014582
v 0.004613 0.002614 0.013233
v 0.004687 0.001126 0.013925
v 0.004848 0.002784 0.014191
v 0.004159 0.000854 0.013787
v 0.003707 0.000620 0.014289
v 0.004327 0.000424 0.014257
v 0.004326 0.000423 0.014249
v 0.002841 -0.003396 0.014370
v -0.000612 -0.004227 0.015522
v -0.000214 0.002464 0.013998
v 0.000259 -0.004536 0.014440
v -0.001300 -0.003520 0.014074
v 0.001066 0.001514 0.015484
v -0.007455 -0.001655 0.015843
v -0.006614 -0.002332 0.016013
v -0.008864 -0.000346 0.016263
v -0.009424 0.004134 0.015910
v -0.011326 0.003084 0.015921
v -0.020599 0.007683 0.016225
v -0.021144 0.010002 0.016169
v -0.001459 -0.002496 0.016607
v -0.006712 0.001797 0.017926
v -0.005271 -0.002458 0.017267
v -0.003971 -0.002786 0.016966
v -0.005193 -0.002398 0.017258
v -0.008051 -0.001326 0.016645
v -0.007565 -0.001416 0.017065
v -0.008371 0.004254 0.016591
v -0.009567 0.001354 0.017713
v -0.010334 0.004704 0.016323
v -0.010430 0.004796 0.017489
v -0.011315 0.001964 0.016479
v -0.010613 0.001184 0.016817
v -0.011739 0.002084 0.017209
v -0.012769 0.005814 0.016650
v -0.014998 0.005994 0.016546
v -0.015111 0.004284 0.017727
v -0.015977 0.005184 0.017060
v -0.017353 0.009055 0.017183
v -0.017606 0.008374 0.016688
v -0.017297 0.006242 0.016853
v -0.017802 0.005674 0.017640
v -0.019517 0.009646 0.016994
v -0.020608 0.010513 0.016797
v -0.021038 0.006554 0.016719
v -0.021401 0.006424 0.017748
v -0.021406 0.010631 0.016816
v -0.022029 0.009818 0.016777
v -0.022177 0.007809 0.016521
v -0.022377 0.007138 0.017384
v -0.011883 0.004935 0.018172
v -0.014964 0.005074 0.018602
v -0.016468 0.008448 0.018247
v -0.017995 0.006490 0.019150
v -0.019714 0.009846 0.018436
v -0.018495 0.006124 0.018785
v -0.020721 0.010663 0.018699
v -0.020828 0.007201 0.019366
v -0.022025 0.010403 0.018608
v -0.022165 0.009671 0.018793
v -0.021329 0.010772 0.018783
v -0.021170 0.010283 0.019387
v -0.021959 0.006694 0.017862
v -0.020183 0.007524 0.019524
v -0.018647 0.006464 -0.017733
v -0.011871 0.005604 -0.016270
v -0.011304 0.004454 -0.016875
v -0.017357 0.008764 -0.017002
v -0.011672 0.002034 -0.015610
v -0.019151 0.009594 -0.015834
v -0.019742 0.009324 -0.015432
v 0.004318 0.005123 -0.012873
v 0.004575 0.000954 -0.012680
v 0.004575 0.000954 -0.012680
v 0.003861 0.000174 -0.013201
v 0.004940 0.000304 -0.012936
v 0.004292 0.000304 -0.013010
v -0.003836 0.003224 -0.013266
v 0.001022 0.001514 -0.011121
v 0.002669 0.001364 -0.010419
v 0.001773 0.001064 -0.010334
v 0.001773 0.001064 -0.010334
v 0.010247 0.001014 -0.004902
v 0.011002 0.000104 -0.003642
v 0.011492 -0.000456 -0.001361
v 0.008395 -0.007064 -0.000082
v 0.011554 0.001894 0.000428
v 0.007869 0.002424 0.000808
v 0.011570 -0.000436 0.002551
v 0.006391 0.001454 0.004906
v 0.005897 -0.007476 0.007823
v 0.008185 -0.000316 0.011204
v 0.008185 -0.000316 0.011204
v 0.007241 0.001144 0.010543
v 0.007241 0.001144 0.010543
v 0.004437 0.001794 0.011270
v 0.007399 0.001124 0.012388
v 0.007116 -0.000186 0.012681
v 0.004922 0.003404 0.012581
v 0.004573 0.002344 0.012409
v 0.004573 0.002344 0.012409
v 0.004205 0.001724 0.012484
v 0.003171 0.001414 0.012236
v -0.000519 0.001864 0.013055
v 0.007323 0.001844 0.013827
v 0.004975 0.000574 0.014287
v 0.004975 0.000574 0.014287
v 0.004159 0.000854 0.013787
v 0.004327 0.000424 0.014257
v 0.003359 0.000754 0.014426
v -0.008864 -0.000346 0.016263
v -0.009424 0.004134 0.015910
v -0.003971 -0.002786 0.016966
v -0.008051 -0.001326 0.016645
v -0.010334 0.004704 0.016323
v -0.010334 0.004704 0.016323
v -0.011315 0.001964 0.016479
v -0.010613 0.001184 0.016817
v -0.011739 0.002084 0.017209
v -0.015111 0.004284 0.017727
v -0.015111 0.004284 0.017727
v -0.006845 0.001894 0.017907
v -0.014964 0.005074 0.018602
v -0.018002 0.006494 0.019084
v -0.020889 0.007055 0.019456
v -0.021959 0.006694 0.017862
v -0.021959 0.006694 0.017862
vn 0.0522 -0.1266 -0.9906
vn 0.2208 0.2396 -0.9454
vn 0.2509 0.0716 -0.9654
vn -0.1736 -0.4993 -0.8488
vn 0.0576 -0.0093 -0.9983
vn -0.2417 -0.9274 -0.2854
vn -0.1252 -0.7887 -0.6019
vn 0.4146 0.3062 -0.8569
vn -0.3207 -0.6406 -0.6977
vn -0.1626 0.1283 -0.9783
vn 0.0405 0.4917 -0.8698
vn 0.3848 0.8554 -0.3468
vn -0.7081 -0.2361 -0.6655
vn -0.8590 -0.4699 -0.2035
vn -0.3136 0.9148 -0.2547
vn -0.8450 0.4426 -0.3000
vn -0.9537 -0.1895 0.2335
vn -0.2082 -0.5585 -0.8030
vn 0.1933 -0.2099 -0.9584
vn -0.1364 -0.8176 -0.5594
vn 0.1231 0.0241 -0.9921
vn 0.2949 0.4811 -0.8256
vn 0.2630 0.4392 -0.8590
vn 0.3706 0.7909 -0.4869
vn 0.2122 0.9373 0.2766
vn -0.5374 -0.8052 -0.2507
vn -0.3149 -0.6044 -0.7318
vn 0.3226 0.5721 -0.7541
vn -0.7028 -0.6863 0.1873
vn 0.3975 0.7779 0.4867
vn 0.4001 0.5819 -0.7080
vn -0.4857 -0.8691 -0.0931
vn 0.4218 0.8654 -0.2706
vn 0.5071 0.8614 -0.0295
vn 0.3999 0.8521 0.3378
vn -0.2802 -0.8214 0.4967
vn -0.1131 -0.5494 0.8278
vn 0.4887 0.8723 -0.0135
vn 0.4390 0.8080 0.3930
vn -0.3845 -0.9050 -0.1818
vn -0.6273 -0.6955 0.3502
vn 0.2279 0.8805 0.4157
vn -0.4378 0.7683 0.4670
vn -0.7247 0.2664 0.6356
vn 0.4727 0.3023 -0.8277
vn 0.4813 -0.2749 -0.8324
vn 0.3175 -0.4328 -0.8437
vn 0.3370 0.8753 -0.3467
vn 0.3245 -0.5972 -0.7335
vn -0.0577 -0.9343 -0.3518
vn -0.4858 -0.6811 0.5478
vn -0.5052 -0.5957 0.6244
vn -0.4238 0.0895 0.9013
vn -0.6156 -0.6026 0.5078
vn -0.0436 0.7708 0.6356
vn -0.0987 0.3459 0.9331
vn -0.4055 -0.3099 0.8600
vn -0.5177 -0.6088 0.6012
vn 0.0655 0.1536 0.9860
vn 0.2609 0.4324 0.8631
vn 0.2806 0.6835 0.6739
vn 0.0757 -0.0224 0.9969
vn 0.4284 0.3114 0.8482
vn 0.2882 0.0605 0.9556
vn -0.1511 -0.8984 0.4124
vn 0.0400 0.3160 0.9479
vn -0.3746 -0.4854 0.7900
vn 0.8565 0.1434 -0.4959
vn 0.3824 0.5165 -0.7662
vn 0.7294 0.6453 0.2270
vn 0.4124 0.8380 0.3573
vn 0.7167 -0.2743 -0.6412
vn -0.0200 -0.1129 -0.9934
vn 0.5709 -0.3628 -0.7365
vn 0.1420 -0.3093 -0.9403
vn -0.6727 0.0733 -0.7363
vn -0.7244 0.2132 -0.6556
vn -0.1123 0.8672 -0.4851
vn -0.1813 0.9824 0.0441
vn -0.7083 0.6760 0.2034
vn -0.7454 0.6653 0.0433
vn -0.4191 0.7294 0.5406
vn -0.5374 0.4666 0.7024
vn -0.1902 0.1458 -0.9709
vn -0.8128 0.0128 -0.5823
vn -0.7980 0.2236 -0.5596
vn -0.8663 -0.2496 -0.4328
vn -0.9757 0.0716 0.2069
vn 0.0719 0.5067 -0.8591
vn 0.2474 0.8133 -0.5266
vn 0.0328 0.4411 -0.8969
vn 0.1033 0.4142 -0.9043
vn 0.2790 -0.3229 -0.9044
vn 0.3785 0.6378 -0.6708
vn 0.2004 0.9795 0.0228
vn -0.3780 -0.9175 -0.1239
vn 0.2115 0.9739 0.0822
vn -0.3517 0.5029 0.7895
vn -0.0750 0.6905 0.7195
vn 0.9246 0.2374 -0.2978
vn 0.8153 0.0123 -0.5789
vn 0.2183 0.6927 0.6874
vn -0.0007 0.5563 0.8310
vn -0.4936 0.4333 0.7540
vn -0.9613 0.2307 0.1508
vn -0.4001 0.7649 0.5048
vn -0.6996 0.6880 -0.1931
vn -0.2472 0.8803 -0.4049
vn -0.2180 0.9630 -0.1584
vn -0.1628 0.9757 0.1464
vn 0.1122 0.9321 0.3443
vn -0.1954 0.7594 0.6206
vn -0.3480 0.5641 0.7488
vn -0.7495 0.0015 0.6619
vn -0.7929 -0.2445 0.5582
vn 0.5957 -0.5729 -0.5629
vn 0.8428 0.1938 -0.5021
vn 0.5920 0.7983 -0.1108
vn 0.7274 0.6340 0.2627
vn 0.1949 0.9454 0.2613
vn -0.2393 0.9417 0.2363
vn -0.1362 -0.9058 -0.4012
vn -0.7685 -0.5797 0.2708
vn -0.2799 0.9434 0.1777
vn 0.4607 -0.8407 -0.2848
vn -0.2270 -0.9669 0.1163
vn -0.8739 -0.1543 0.4609
vn 0.9676 -0.0442 -0.2486
vn 0.6088 0.7482 -0.2638
vn 0.2666 0.9625 -0.0491
vn -0.6242 -0.7064 0.3337
vn -0.5892 0.7742 0.2313
vn 0.8981 0.4170 -0.1397
vn 0.6045 0.7722 0.1955
vn 0.5878 0.7980 0.1330
vn 0.9685 -0.0652 -0.2401
vn 0.8822 -0.4686 -0.0459
vn 0.7612 -0.6353 -0.1300
vn -0.8285 0.1125 0.5486
vn -0.8598 0.0722 0.5054
vn 0.8045 0.5657 -0.1811
vn 0.5799 0.8137 0.0392
vn -0.2826 -0.9480 0.1463
vn -0.3665 0.9171 -0.1570
vn -0.9618 0.1843 0.2024
vn 0.2514 0.9342 -0.2530
vn -0.9659 -0.2020 0.1620
vn -0.9794 -0.1761 -0.0993
vn 0.5020 0.5437 -0.6726
vn 0.9292 0.3696 -0.0093
vn 0.9947 -0.1016 0.0164
vn 0.4809 0.4233 -0.7678
vn 0.2190 0.7244 -0.6536
vn 0.3041 0.9059 -0.2948
vn 0.3113 -0.9472 -0.0774
vn -0.1662 0.9838 -0.0676
vn -0.9717 -0.2152 -0.0970
vn -0.8009 0.5987 0.0105
vn -0.9990 -0.0439 0.0062
vn 0.8674 0.3578 0.3458
vn 0.6043 0.6130 0.5090
vn 0.8479 0.3562 0.3926
vn 0.9495 -0.2740 0.1529
vn 0.6018 -0.7879 0.1309
vn 0.9314 0.3254 0.1631
vn 0.0659 0.8668 0.4943
vn 0.5427 0.5430 0.6408
vn 0.2486 0.6405 0.7266
vn 0.3080 0.9258 0.2191
vn 0.6054 -0.7901 0.0962
vn -0.4389 -0.8921 -0.1070
vn -0.0818 0.5849 0.8070
vn -0.9365 -0.0501 -0.3472
vn -0.3562 0.9218 0.1526
vn -0.9502 0.1506 -0.2727
vn 0.5812 0.6869 0.4364
vn -0.8731 -0.1813 -0.4526
vn -0.5407 -0.8024 -0.2525
vn 0.1987 0.9801 0.0027
vn -0.7505 0.5585 -0.3534
vn 0.8043 0.5935 -0.0299
vn 0.9658 -0.0233 0.2582
vn -0.3956 -0.8347 -0.3831
vn -0.3213 0.9395 -0.1188
vn -0.7159 0.5495 -0.4306
vn 0.7307 0.6485 0.2134
vn 0.4562 0.8897 -0.0159
vn 0.3196 0.9277 0.1930
vn 0.8161 0.3175 0.4828
vn 0.1386 -0.9863 -0.0890
vn -0.2513 0.9472 -0.1991
vn 0.7892 -0.2447 0.5633
vn 0.1736 -0.9663 0.1903
vn -0.3518 -0.9319 -0.0887
vn -0.6708 -0.0015 -0.7416
vn -0.7357 0.2459 -0.6311
vn -0.6794 -0.6494 -0.3415
vn -0.7495 -0.6168 -0.2404
vn 0.5398 0.7954 0.2754
vn 0.6493 -0.5297 0.5457
vn -0.0142 -0.9085 0.4177
vn 0.2044 0.9691 -0.1382
vn -0.3924 -0.9056 0.1609
vn -0.7289 -0.3325 -0.5985
vn 0.6516 0.6195 0.4378
vn 0.8667 0.0842 0.4916
vn 0.9787 0.2000 -0.0463
vn 0.8515 0.5201 -0.0673
vn 0.8626 0.5012 -0.0684
vn 0.3927 -0.5457 0.7403
vn 0.7656 0.5385 -0.3519
vn 0.0445 0.7660 -0.6413
vn 0.7645 0.5955 -0.2468
vn 0.4862 0.7999 -0.3519
vn -0.2922 0.8826 -0.3683
vn -0.2684 0.8146 -0.5143
vn -0.0258 0.9985 0.0485
vn 0.6224 -0.2719 0.7340
vn 0.9237 0.2329 0.3042
vn 0.9983 0.0523 0.0266
vn 0.9737 -0.1788 0.1409
vn 0.8020 -0.0153 0.5971
vn 0.2066 0.7384 -0.6419
vn -0.5736 0.3479 -0.7416
vn -0.6029 0.3173 -0.7320
vn -0.9880 0.0494 0.1466
vn -0.9975 0.0547 0.0453
vn -0.9048 0.4154 -0.0942
vn -0.8869 0.4484 -0.1106
vn -0.7934 0.5593 0.2403
vn -0.2843 0.9586 0.0180
vn -0.9453 0.3208 -0.0592
vn -0.4621 0.6866 0.5614
vn -0.6618 0.3421 0.6670
vn -0.3300 0.8011 0.4994
vn 0.4784 -0.3442 0.8079
vn -0.0154 -0.8738 0.4860
vn -0.4352 0.2983 -0.8495
vn 0.0102 0.8475 -0.5307
vn -0.3809 0.0205 -0.9244
vn -0.3225 0.2345 -0.9171
vn -0.5022 -0.6233 -0.5994
vn 0.4613 0.1850 0.8677
vn 0.4441 -0.3247 0.8351
vn 0.4839 0.8505 0.2061
vn -0.0315 0.4513 0.8918
vn 0.3909 -0.3452 0.8532
vn -0.1619 -0.1221 0.9792
vn -0.6589 0.0200 0.7520
vn -0.7886 -0.1609 0.5935
vn 0.0246 -0.3452 0.9382
vn -0.6670 0.1325 0.7332
vn -0.1936 0.9561 -0.2199
vn -0.5457 0.3895 -0.7419
vn -0.7345 0.6492 -0.1975
vn -0.5531 0.5687 0.6088
vn 0.0537 0.8855 0.4615
vn 0.2551 0.8851 0.3893
vn -0.3000 0.5293 0.7936
vn -0.1522 0.4854 0.8609
vn 0.2698 0.7565 0.5957
vn 0.2942 -0.1772 0.9392
vn 0.4173 0.5663 0.7107
vn 0.2077 0.9706 -0.1219
vn -0.4338 -0.8946 -0.1072
vn 0.2074 0.8499 -0.4844
vn -0.5421 -0.5919 -0.5965
vn 0.1242 0.9348 -0.3327
vn -0.2811 -0.0933 -0.9551
vn -0.2005 0.3536 -0.9137
vn 0.2817 -0.2037 0.9376
vn 0.3290 0.9437 0.0351
vn -0.3028 -0.9135 0.2717
vn -0.0349 -0.7469 0.6640
vn 0.3643 0.8913 0.2699
vn -0.4495 -0.8764 -0.1725
vn -0.6805 -0.6966 -0.2273
vn -0.6836 -0.6767 -0.2734
vn -0.3956 -0.6430 0.6558
vn -0.5354 -0.7025 0.4690
vn 0.2574 0.8018 -0.5393
vn -0.6359 -0.5138 -0.5759
vn -0.4294 -0.4061 -0.8067
vn -0.0876 0.3043 -0.9485
vn -0.3474 -0.5719 -0.7431
vn -0.1041 -0.0415 -0.9937
vn 0.2983 0.6371 -0.7107
vn -0.0539 0.3571 -0.9325
vn 0.0083 -0.1298 -0.9915
vn -0.7213 -0.1497 -0.6762
vn 0.1465 0.1538 0.9772
vn 0.1657 -0.2561 0.9523
vn 0.0887 -0.1526 0.9843
vn -0.2433 -0.3847 0.8904
vn 0.2651 0.2611 0.9282
vn 0.3158 0.9476 -0.0487
vn -0.4309 -0.6585 0.6170
vn -0.6766 -0.7019 -0.2226
vn -0.5852 -0.7829 -0.2112
vn -0.6308 -0.7373 -0.2418
vn -0.3771 -0.7175 0.5857
vn -0.5353 -0.7733 -0.3397
vn -0.2877 -0.6895 0.6647
vn -0.2428 -0.6891 0.6828
vn 0.3845 0.8385 -0.3861
vn 0.4150 0.6858 0.5979
vn 0.1560 0.2819 -0.9467
vn -0.1375 -0.4108 -0.9013
vn -0.3140 -0.9104 -0.2694
vn -0.3556 -0.9303 0.0904
vn -0.1876 -0.7917 0.5814
vn 0.4279 0.6795 -0.5960
vn 0.5531 0.6862 0.4725
vn -0.2633 -0.7224 -0.6393
vn 0.4059 0.8082 -0.4267
vn -0.8419 0.3082 -0.4429
vn -0.3184 0.8548 -0.4097
vn -0.7826 0.5660 0.2592
vn -0.8745 0.0776 0.4787
vn -0.9045 -0.4209 -0.0686
vn -0.4650 -0.8137 -0.3488
vn 0.2835 0.4268 0.8588
vn 0.1337 -0.0871 0.9872
vn 0.2139 0.2394 0.9471
vn -0.0960 -0.5451 0.8329
vn -0.4596 -0.8854 0.0698
vn 0.1441 0.0515 0.9882
vn -0.2472 -0.8090 0.5334
vn 0.4455 0.8412 0.3065
vn -0.0288 0.4260 0.9042
vn -0.2939 -0.8169 0.4963
vn -0.1664 0.9302 0.3271
vn -0.4045 -0.1470 0.9027
vn -0.8066 -0.1420 0.5739
s 1
usemtl mtl1.1017
f 5//1 21//2 1//3
f 19//4 1//3 16//5
f 19//4 23//6 272//7
f 21//2 5//1 4//8
f 5//1 1//3 6//9
f 5//1 2//10 4//8
f 272//7 23//6 6//9
f 4//8 2//10 3//11
f 3//11 25//12 4//8
f 2//10 5//1 9//13
f 5//1 6//9 9//13
f 6//9 30//14 9//13
f 7//15 3//11 8//16
f 25//12 3//11 7//15
f 8//16 2//10 9//13
f 8//16 3//11 2//10
f 9//13 30//14 29//17
f 12//18 10//19 35//20
f 13//21 11//22 10//19
f 13//21 10//19 12//18
f 14//23 11//22 13//21
f 15//24 39//25 11//22
f 12//18 37//26 17//27
f 35//20 37//26 12//18
f 14//23 13//21 16//5
f 14//23 15//24 11//22
f 12//18 17//27 13//21
f 274//28 15//24 14//23
f 17//27 19//4 13//21
f 17//27 37//26 42//29
f 18//30 39//25 15//24
f 274//28 273//31 15//24
f 13//21 19//4 16//5
f 20//32 19//4 17//27
f 42//29 20//32 17//27
f 274//28 275//33 273//31
f 22//34 273//31 275//33
f 15//24 22//34 46//35
f 46//35 18//30 15//24
f 19//4 20//32 23//6
f 24//36 23//6 20//32
f 20//32 45//37 24//36
f 1//3 21//2 16//5
f 46//35 275//33 26//38
f 22//34 275//33 46//35
f 48//39 46//35 26//38
f 27//40 23//6 24//36
f 24//36 56//41 27//40
f 49//42 48//39 26//38
f 49//42 26//38 25//12
f 27//40 6//9 23//6
f 49//42 25//12 7//15
f 28//43 49//42 7//15
f 28//43 7//15 8//16
f 8//16 54//44 28//43
f 8//16 9//13 29//17
f 54//44 8//16 29//17
f 30//14 6//9 27//40
f 32//45 72//46 33//47
f 31//48 32//45 11//22
f 32//45 33//47 10//19
f 81//49 34//50 33//47
f 11//22 32//45 10//19
f 10//19 33//47 35//20
f 31//48 11//22 39//25
f 33//47 34//50 35//20
f 36//51 35//20 34//50
f 75//52 36//51 34//50
f 36//51 93//53 38//54
f 37//26 35//20 36//51
f 37//26 36//51 38//54
f 40//55 39//25 41//56
f 38//54 43//57 42//29
f 43//57 38//54 93//53
f 42//29 37//26 38//54
f 41//56 43//57 93//53
f 42//29 43//57 276//58
f 39//25 18//30 41//56
f 18//30 44//59 41//56
f 43//57 41//56 44//59
f 44//59 45//37 43//57
f 43//57 45//37 276//58
f 46//35 44//59 18//30
f 276//58 45//37 20//32
f 44//59 46//35 47//60
f 277//61 47//60 46//35
f 44//59 47//60 53//62
f 47//60 277//61 50//63
f 48//39 50//63 277//61
f 278//64 53//62 47//60
f 45//37 52//65 24//36
f 53//62 45//37 44//59
f 56//41 24//36 52//65
f 49//42 50//63 48//39
f 278//64 50//63 53//62
f 53//62 50//63 55//66
f 55//66 51//67 53//62
f 51//67 56//41 52//65
f 49//42 28//43 55//66
f 50//63 49//42 55//66
f 54//44 55//66 28//43
f 29//17 51//67 54//44
f 55//66 54//44 51//67
f 56//41 29//17 30//14
f 51//67 29//17 56//41
f 58//68 59//69 77//70
f 79//71 77//70 59//69
f 57//72 60//73 58//68
f 57//72 62//74 60//73
f 60//73 73//75 61//76
f 60//73 62//74 73//75
f 73//75 70//77 61//76
f 62//74 81//49 73//75
f 79//71 59//69 63//78
f 64//79 79//71 63//78
f 68//80 64//79 63//78
f 68//80 63//78 279//81
f 82//82 64//79 68//80
f 68//80 84//83 82//82
f 58//68 60//73 59//69
f 65//84 63//78 59//69
f 60//73 65//84 59//69
f 65//84 60//73 67//85
f 66//86 65//84 67//85
f 69//87 67//85 60//73
f 61//76 69//87 60//73
f 69//87 85//88 67//85
f 74//89 71//90 280//91
f 74//89 280//91 283//92
f 73//75 81//49 284//93
f 284//93 81//49 72//46
f 74//89 282//94 71//90
f 68//80 279//81 85//88
f 279//81 67//85 85//88
f 71//90 282//94 32//45
f 31//48 90//95 71//90
f 32//45 31//48 71//90
f 72//46 81//49 33//47
f 81//49 89//96 34//50
f 76//97 31//48 39//25
f 76//97 90//95 31//48
f 89//96 75//52 34//50
f 92//98 285//99 41//56
f 76//97 39//25 40//55
f 40//55 41//56 285//99
f 36//51 75//52 93//53
f 78//100 62//74 57//72
f 57//72 58//68 78//100
f 77//70 78//100 58//68
f 62//74 78//100 94//101
f 80//102 77//70 83//103
f 77//70 79//71 83//103
f 82//82 84//83 87//104
f 87//104 85//88 86//105
f 85//88 87//104 84//83
f 83//103 82//82 87//104
f 87//104 80//102 83//103
f 69//87 86//105 85//88
f 69//87 61//76 86//105
f 87//104 86//105 98//106
f 86//105 61//76 70//77
f 88//107 281//108 91//109
f 281//108 71//90 91//109
f 86//105 70//77 88//107
f 86//105 88//107 98//106
f 91//109 71//90 90//95
f 100//110 91//109 90//95
f 286//111 100//110 90//95
f 287//112 92//98 102//113
f 90//95 76//97 286//111
f 92//98 93//53 102//113
f 93//53 101//114 102//113
f 75//52 101//114 93//53
f 108//115 75//52 89//96
f 92//98 41//56 93//53
f 94//101 104//116 62//74
f 94//101 103//117 104//116
f 103//117 94//101 105//118
f 104//116 81//49 62//74
f 77//70 95//119 78//100
f 94//101 78//100 105//118
f 105//118 78//100 95//119
f 87//104 98//106 80//102
f 80//102 95//119 77//70
f 80//102 98//106 96//120
f 96//120 98//106 99//121
f 95//119 80//102 96//120
f 104//116 97//122 81//49
f 81//49 97//122 89//96
f 98//106 88//107 91//109
f 91//109 99//121 98//106
f 89//96 107//123 108//115
f 107//123 89//96 97//122
f 100//110 99//121 91//109
f 99//121 100//110 288//124
f 75//52 108//115 101//114
f 96//120 105//118 95//119
f 106//125 97//122 104//116
f 109//126 107//123 97//122
f 107//123 113//127 108//115
f 101//114 108//115 113//127
f 104//116 103//117 110//128
f 111//129 103//117 96//120
f 96//120 99//121 111//129
f 119//130 111//129 99//121
f 103//117 105//118 96//120
f 97//122 106//125 109//126
f 109//126 112//131 107//123
f 113//127 107//123 112//131
f 114//132 99//121 288//124
f 110//128 103//117 111//129
f 116//133 110//128 111//129
f 290//134 119//130 291//135
f 117//136 134//137 110//128
f 134//137 104//116 110//128
f 104//116 123//138 106//125
f 112//131 109//126 106//125
f 114//132 119//130 99//121
f 289//139 115//140 114//132
f 289//139 101//114 115//140
f 115//140 101//114 113//127
f 116//133 118//141 110//128
f 118//141 117//136 110//128
f 292//142 291//135 119//130
f 106//125 126//143 112//131
f 129//144 119//130 114//132
f 120//145 114//132 115//140
f 120//145 129//144 114//132
f 120//145 115//140 113//127
f 134//137 123//138 104//116
f 292//142 119//130 128//146
f 113//127 112//131 293//147
f 119//130 129//144 128//146
f 120//145 113//127 143//148
f 122//149 117//136 118//141
f 117//136 122//149 121//150
f 121//150 132//151 117//136
f 134//137 117//136 132//151
f 135//152 122//149 125//153
f 135//152 121//150 122//149
f 136//154 135//152 125//153
f 122//149 118//141 125//153
f 124//155 126//143 106//125
f 124//155 106//125 123//138
f 145//156 136//154 125//153
f 128//146 125//153 118//141
f 293//147 143//148 113//127
f 143//148 293//147 127//157
f 130//158 145//156 129//144
f 145//156 128//146 129//144
f 125//153 128//146 145//156
f 129//144 120//145 130//158
f 131//159 130//158 120//145
f 143//148 131//159 120//145
f 294//160 137//161 121//150
f 121//150 133//162 132//151
f 132//151 146//163 134//137
f 146//163 153//164 134//137
f 147//165 132//151 133//162
f 137//161 135//152 136//154
f 136//154 138//166 137//161
f 137//161 139//167 121//150
f 139//167 137//161 142//168
f 137//161 138//166 142//168
f 121//150 139//167 133//162
f 142//168 148//169 139//167
f 141//170 123//138 134//137
f 141//170 124//155 123//138
f 141//170 140//171 124//155
f 140//171 127//157 293//147
f 145//156 138//166 136//154
f 295//172 142//168 138//166
f 142//168 145//156 148//169
f 143//148 127//157 144//173
f 127//157 140//171 144//173
f 148//169 145//156 150//174
f 150//174 145//156 130//158
f 151//175 130//158 131//159
f 139//167 296//176 133//162
f 147//165 146//163 132//151
f 296//176 139//167 148//169
f 143//148 144//173 154//177
f 155//178 144//173 140//171
f 149//179 148//169 150//174
f 130//158 151//175 150//174
f 151//175 156//180 150//174
f 131//159 143//148 151//175
f 147//165 152//181 157//182
f 157//182 146//163 147//165
f 148//169 152//181 147//165
f 134//137 153//164 141//170
f 149//179 152//181 148//169
f 153//164 140//171 141//170
f 140//171 153//164 160//183
f 160//183 155//178 140//171
f 149//179 150//174 297//184
f 151//175 143//148 165//185
f 158//186 157//182 152//181
f 159//187 152//181 149//179
f 152//181 159//187 158//186
f 162//188 166//189 158//186
f 157//182 153//164 146//163
f 162//188 158//186 159//187
f 162//188 159//187 149//179
f 153//164 161//190 160//183
f 165//185 143//148 154//177
f 149//179 297//184 176//191
f 165//185 156//180 151//175
f 165//185 176//191 297//184
f 157//182 158//186 166//189
f 166//189 167//192 157//182
f 167//192 153//164 157//182
f 163//193 161//190 153//164
f 164//194 155//178 160//183
f 164//194 160//183 163//193
f 162//188 149//179 176//191
f 180//195 178//196 165//185
f 180//195 165//185 154//177
f 154//177 298//197 170//198
f 162//188 172//199 166//189
f 167//192 168//200 153//164
f 168//200 163//193 153//164
f 163//193 168//200 169//201
f 169//201 164//194 163//193
f 172//199 162//188 173//202
f 169//201 170//198 164//194
f 180//195 154//177 170//198
f 175//203 170//198 169//201
f 180//195 170//198 177//204
f 172//199 171//205 166//189
f 299//206 167//192 166//189
f 182//207 300//208 301//209
f 167//192 185//210 168//200
f 301//209 181//211 182//207
f 185//210 169//201 168//200
f 174//212 195//213 181//211
f 176//191 173//202 162//188
f 173//202 176//191 174//212
f 173//202 181//211 302//214
f 181//211 173//202 174//212
f 170//198 175//203 177//204
f 169//201 185//210 175//203
f 174//212 176//191 187//215
f 179//216 176//191 165//185
f 179//216 165//185 178//196
f 176//191 179//216 189//217
f 185//210 167//192 183//218
f 181//211 195//213 193//219
f 194//220 305//221 182//207
f 167//192 299//206 304//222
f 304//222 183//218 167//192
f 195//213 174//212 184//223
f 186//224 184//223 174//212
f 186//224 174//212 307//225
f 205//226 186//224 208//227
f 308//228 303//229 188//230
f 189//217 309//231 176//191
f 306//232 308//228 208//227
f 188//230 208//227 308//228
f 188//230 211//233 209//234
f 310//235 211//233 188//230
f 215//236 216//237 185//210
f 185//210 216//237 175//203
f 179//216 178//196 190//238
f 180//195 190//238 178//196
f 179//216 311//239 189//217
f 180//195 192//240 190//238
f 177//204 192//240 180//195
f 192//240 191//241 190//238
f 177//204 219//242 192//240
f 181//211 193//219 182//207
f 193//219 194//220 182//207
f 193//219 197//243 312//244
f 196//245 195//213 184//223
f 197//243 193//219 195//213
f 195//213 196//245 197//243
f 197//243 196//245 207//246
f 199//247 312//244 197//243
f 197//243 198//248 199//247
f 312//244 199//247 183//218
f 209//234 200//249 198//248
f 210//250 209//234 198//248
f 185//210 183//218 199//247
f 199//247 201//251 185//210
f 200//249 209//234 313//252
f 202//253 184//223 186//224
f 202//253 186//224 203//254
f 196//245 184//223 202//253
f 202//253 203//254 204//255
f 204//255 206//256 202//253
f 206//256 204//255 205//226
f 202//253 207//246 196//245
f 202//253 206//256 207//246
f 197//243 207//246 198//248
f 198//248 207//246 205//226
f 205//226 207//246 206//256
f 203//254 186//224 205//226
f 210//250 205//226 208//227
f 210//250 198//248 205//226
f 188//230 209//234 208//227
f 209//234 210//250 208//227
f 315//257 189//217 212//258
f 209//234 213//259 314//260
f 211//233 213//259 209//234
f 316//261 315//257 212//258
f 214//262 185//210 201//251
f 185//210 214//262 215//236
f 212//258 189//217 220//263
f 217//264 220//263 189//217
f 175//203 218//265 219//242
f 216//237 218//265 175//203
f 311//239 217//264 189//217
f 311//239 224//266 217//264
f 175//203 219//242 177//204
f 218//265 216//237 219//242
f 219//242 221//267 192//240
f 235//268 217//264 224//266
f 192//240 225//269 191//241
f 319//270 191//241 225//269
f 221//267 225//269 192//240
f 214//262 228//271 215//236
f 317//272 220//263 214//262
f 228//271 214//262 220//263
f 216//237 215//236 228//271
f 230//273 216//237 231//274
f 238//275 220//263 217//264
f 238//275 217//264 235//268
f 222//276 221//267 219//242
f 216//237 222//276 219//242
f 230//273 222//276 216//237
f 233//277 221//267 222//276
f 318//278 221//267 233//277
f 222//276 234//279 321//280
f 224//266 237//281 235//268
f 221//267 223//282 225//269
f 223//282 239//283 225//269
f 225//269 322//284 319//270
f 239//283 245//285 225//269
f 322//284 243//286 242//287
f 225//269 243//286 322//284
f 227//288 226//289 256//290
f 228//271 220//263 229//291
f 320//292 216//237 228//271
f 234//279 222//276 230//273
f 229//291 232//293 228//271
f 228//271 232//293 320//292
f 232//293 236//294 234//279
f 232//293 229//291 236//294
f 220//263 238//275 258//295
f 258//295 236//294 229//291
f 238//275 235//268 323//296
f 234//279 240//297 321//280
f 234//279 236//294 240//297
f 325//298 241//299 324//300
f 236//294 326//301 240//297
f 325//298 324//300 318//278
f 318//278 233//277 325//298
f 324//300 241//299 244//302
f 245//285 324//300 244//302
f 236//294 327//303 326//301
f 323//296 242//287 238//275
f 243//286 225//269 245//285
f 236//294 259//304 327//303
f 246//305 260//306 238//275
f 243//286 247//307 242//287
f 238//275 242//287 246//305
f 243//286 248//308 247//307
f 243//286 245//285 248//308
f 249//309 245//285 244//302
f 247//307 246//305 242//287
f 248//308 245//285 249//309
f 253//310 249//309 263//311
f 247//307 250//312 246//305
f 246//305 250//312 262//313
f 247//307 248//308 226//289
f 226//289 250//312 247//307
f 252//314 226//289 248//308
f 249//309 252//314 248//308
f 253//310 252//314 249//309
f 251//315 250//312 227//288
f 250//312 226//289 227//288
f 262//313 250//312 251//315
f 226//289 252//314 256//290
f 255//316 227//288 256//290
f 254//317 251//315 227//288
f 255//316 254//317 227//288
f 266//318 254//317 255//316
f 255//316 256//290 267//319
f 252//314 257//320 256//290
f 253//310 257//320 252//314
f 257//320 267//319 256//290
f 270//321 257//320 253//310
f 220//263 258//295 329//322
f 229//291 220//263 329//322
f 236//294 258//295 330//323
f 260//306 258//295 238//275
f 258//295 260//306 261//324
f 258//295 261//324 330//323
f 260//306 246//305 262//313
f 260//306 262//313 261//324
f 259//304 331//325 263//311
f 263//311 249//309 328//326
f 259//304 263//311 327//303
f 262//313 271//327 261//324
f 263//311 265//328 253//310
f 263//311 331//325 265//328
f 264//329 251//315 254//317
f 251//315 264//329 262//313
f 264//329 269//330 262//313
f 265//328 334//331 253//310
f 264//329 254//317 268//332
f 266//318 255//316 267//319
f 254//317 266//318 268//332
f 268//332 269//330 264//329
f 269//330 268//332 266//318
f 257//320 332//333 267//319
f 332//333 257//320 333//334
f 271//327 262//313 269//330
f 261//324 271//327 332//333
f 269//330 266//318 267//319
f 271//327 269//330 332//333
f 332//333 269//330 267//319
