# Blender 4.0.2
# www.blender.org
mtllib metatarsal_1_l.mtl
o metatarsal_1_l.002
v 0.054746 -0.014545 0.002204
v 0.046655 -0.011371 0.000809
v 0.054418 -0.015251 0.003825
v 0.056894 -0.016221 -0.003514
v 0.061377 -0.017452 0.002968
v 0.050663 -0.015855 0.005471
v 0.057100 -0.017484 0.005580
v 0.048187 -0.012865 0.002687
v 0.059123 -0.017299 0.004345
v 0.019076 0.002244 -0.000964
v 0.041598 -0.010462 -0.004562
v 0.060071 -0.019295 -0.008259
v 0.044477 -0.011975 -0.005257
v 0.061640 -0.017546 -0.002030
v 0.064297 -0.019069 -0.005011
v 0.064548 -0.018674 0.002299
v 0.064924 -0.018323 -0.001741
v 0.045837 -0.013030 0.005015
v 0.047333 -0.020666 0.007736
v 0.054571 -0.026530 0.011485
v 0.058346 -0.022342 0.008032
v 0.064395 -0.019410 0.003080
v 0.032107 -0.005804 0.003945
v 0.027151 -0.002531 0.002013
v 0.018942 0.001242 0.003051
v 0.015010 0.005211 -0.000148
v 0.024427 -0.001819 -0.004547
v 0.018926 0.001505 -0.005011
v 0.010719 0.008656 -0.006819
v 0.011662 0.008245 -0.002621
v 0.023438 -0.004915 -0.007447
v 0.037482 -0.012632 -0.007725
v 0.061092 -0.023106 -0.011943
v 0.065311 -0.022494 -0.009341
v 0.054165 -0.020797 -0.010632
v 0.057532 -0.022281 -0.012130
v 0.047806 -0.017677 -0.009086
v 0.042708 -0.015418 -0.008267
v 0.067265 -0.020774 -0.005424
v 0.066390 -0.020792 0.002748
v 0.067694 -0.020408 -0.001662
v 0.049167 -0.024557 0.009684
v 0.046568 -0.021451 0.007414
v 0.043511 -0.016716 0.007280
v 0.038759 -0.013444 0.006654
v 0.059040 -0.026484 0.010942
v 0.064708 -0.024544 0.007905
v 0.066295 -0.023403 0.005562
v 0.028174 -0.007383 0.005970
v 0.022924 -0.003962 0.005405
v 0.015331 0.003409 0.003624
v 0.017866 -0.001844 0.005121
v 0.012089 0.008314 0.000634
v 0.017726 -0.001246 -0.007527
v 0.007241 0.008407 -0.010388
v 0.013844 0.002691 -0.008177
v 0.008202 0.010431 -0.007090
v 0.007791 0.009522 -0.008813
v 0.008945 0.010642 -0.002505
v 0.016661 -0.005374 -0.007065
v 0.027033 -0.013791 -0.005913
v 0.020309 -0.010925 -0.005475
v 0.013767 -0.009346 -0.005728
v 0.037994 -0.018170 -0.006870
v 0.032299 -0.016488 -0.005932
v 0.057530 -0.023399 -0.012391
v 0.060782 -0.024003 -0.012289
v 0.063894 -0.026152 -0.011957
v 0.046659 -0.019482 -0.008810
v 0.051405 -0.021631 -0.009928
v 0.068229 -0.023424 -0.005595
v 0.066223 -0.024122 -0.009446
v 0.067954 -0.022073 0.000706
v 0.068728 -0.023116 0.001878
v 0.068963 -0.023239 -0.001207
v 0.049337 -0.025353 0.009851
v 0.046050 -0.022126 0.006887
v 0.051477 -0.027362 0.010814
v 0.053578 -0.029082 0.011476
v 0.036838 -0.016459 0.004855
v 0.027309 -0.010236 0.004780
v 0.058329 -0.029289 0.011633
v 0.063972 -0.027829 0.009275
v 0.064979 -0.028645 0.007292
v 0.067772 -0.024447 0.004006
v 0.066613 -0.026513 0.006151
v 0.021344 -0.007455 0.004895
v 0.017257 -0.003960 0.005178
v 0.012211 0.006761 0.004099
v 0.013170 -0.002002 0.006474
v 0.008755 0.009723 0.001404
v 0.012806 0.000541 -0.008599
v 0.011269 -0.003045 -0.008225
v 0.005771 0.008954 -0.010185
v 0.005396 0.007088 -0.011234
v 0.005970 0.004053 -0.011072
v 0.009014 0.002561 -0.010349
v 0.006456 0.009782 -0.008818
v 0.006702 0.010896 -0.002687
v 0.017981 -0.012568 -0.002567
v 0.019139 -0.011728 -0.004267
v 0.025364 -0.014709 -0.003380
v 0.008097 -0.007882 -0.007068
v 0.012197 -0.011795 -0.002517
v 0.006767 -0.009455 -0.006402
v 0.039345 -0.021455 -0.005053
v 0.043216 -0.020375 -0.007753
v 0.034789 -0.018774 -0.004083
v 0.030457 -0.016801 -0.003357
v 0.059017 -0.024154 -0.012401
v 0.062730 -0.026901 -0.012202
v 0.048673 -0.022655 -0.008919
v 0.053489 -0.023249 -0.010826
v 0.068451 -0.025707 -0.005260
v 0.069209 -0.025051 -0.001419
v 0.066537 -0.026658 -0.008521
v 0.068764 -0.025061 0.001527
v 0.050733 -0.027601 0.010246
v 0.048443 -0.025762 0.007817
v 0.045068 -0.023438 0.005770
v 0.052259 -0.029899 0.010606
v 0.054351 -0.030571 0.010622
v 0.030763 -0.015235 0.002317
v 0.037906 -0.019932 0.001995
v 0.044346 -0.025244 0.001872
v 0.058196 -0.030833 0.010933
v 0.062268 -0.029439 0.010316
v 0.061615 -0.031270 0.009199
v 0.064916 -0.030094 0.005955
v 0.066394 -0.029411 0.004003
v 0.014973 -0.008774 0.003245
v 0.022994 -0.011846 0.002578
v 0.016479 -0.005834 0.005027
v 0.005742 0.009668 0.002921
v 0.005880 0.007751 0.005335
v 0.010696 0.000114 0.007525
v 0.008564 0.004172 0.006346
v 0.008948 -0.002292 0.008845
v 0.011165 -0.004642 0.006472
v 0.006323 0.010142 0.001711
v 0.007445 -0.000586 -0.009091
v 0.004577 -0.002991 -0.009624
v 0.003268 -0.005534 -0.009428
v 0.004717 0.007490 -0.011018
v 0.003661 0.005704 -0.011688
v 0.003235 0.002072 -0.009537
v 0.006346 0.010423 -0.007169
v 0.004408 0.009603 0.001824
v 0.005560 0.010619 -0.003064
v 0.016675 -0.012236 -0.001199
v 0.025187 -0.014903 -0.000552
v 0.030765 -0.017084 -0.000643
v 0.003767 -0.006786 -0.008806
v 0.012434 -0.011677 -0.000932
v 0.006151 -0.011599 -0.001590
v 0.002908 -0.009849 -0.005927
v 0.003236 -0.010899 -0.002911
v 0.002355 -0.008623 -0.007261
v 0.035757 -0.019621 -0.001608
v 0.039986 -0.022555 -0.002124
v 0.043316 -0.024764 -0.005991
v 0.054705 -0.025631 -0.011092
v 0.057534 -0.025609 -0.012065
v 0.059474 -0.026169 -0.011841
v 0.063834 -0.029783 -0.010681
v 0.063286 -0.030207 -0.010687
v 0.061595 -0.028016 -0.011097
v 0.064993 -0.029700 -0.009532
v 0.052406 -0.026706 -0.009486
v 0.066775 -0.028532 -0.007065
v 0.068270 -0.026640 -0.004825
v 0.065105 -0.031548 0.002686
v 0.051060 -0.029647 0.006264
v 0.047678 -0.027397 0.004064
v 0.054616 -0.031423 0.009862
v 0.047627 -0.028590 0.002230
v 0.047146 -0.028541 -0.000268
v 0.057330 -0.032169 0.008888
v 0.061003 -0.032398 0.006190
v 0.009835 -0.007691 0.004645
v 0.018466 -0.012453 0.000538
v 0.012845 -0.011184 0.000737
v 0.004659 0.008498 0.005356
v 0.008080 0.001468 0.007939
v 0.005903 0.005069 0.006378
v 0.005134 0.002086 0.007163
v 0.005466 -0.002476 0.011049
v 0.006542 -0.003883 0.010537
v 0.006909 -0.004856 0.009944
v 0.000773 -0.001171 -0.009814
v 0.001576 -0.004028 -0.009136
v 0.001138 -0.005718 -0.009009
v 0.005526 0.009545 -0.008836
v 0.003489 0.005759 -0.011308
v 0.002421 0.002342 -0.008652
v -0.000577 -0.000655 -0.008569
v 0.004585 0.009004 0.003521
v 0.005248 0.009974 -0.007233
v 0.004249 0.009603 -0.002833
v 0.007498 -0.010321 0.002614
v 0.001693 -0.011543 0.001808
v 0.003307 -0.010414 0.004334
v -0.000184 -0.009262 -0.003768
v 0.000766 -0.011127 -0.000451
v 0.046645 -0.028476 -0.002982
v 0.050211 -0.032879 -0.006973
v 0.051001 -0.030939 -0.008104
v 0.057124 -0.029233 -0.010276
v 0.053188 -0.029898 -0.008656
v 0.064815 -0.031929 -0.001834
v 0.062782 -0.032966 0.002172
v 0.063621 -0.031120 -0.007697
v 0.062237 -0.031829 -0.009489
v 0.054535 -0.031635 0.005629
v 0.053907 -0.031980 0.004887
v 0.051407 -0.032566 0.003936
v 0.050273 -0.031491 0.004328
v 0.051467 -0.033142 0.002672
v 0.050100 -0.031401 -0.000858
v 0.058239 -0.032351 0.004903
v 0.004286 -0.006523 0.009782
v 0.004563 0.007187 0.005619
v 0.004034 0.007979 0.005024
v 0.003662 0.002917 0.005703
v 0.004284 0.004935 0.005610
v 0.004256 -0.001622 0.010295
v 0.001902 -0.001484 0.008293
v 0.004714 -0.004080 0.010969
v 0.005265 -0.005146 0.010469
v 0.003221 -0.003648 0.010770
v -0.002498 -0.003771 -0.007564
v -0.001513 -0.005387 -0.008220
v -0.001279 -0.006424 -0.007949
v 0.004686 0.008162 -0.009289
v 0.002885 0.004698 -0.008945
v -0.005395 -0.006056 -0.005266
v -0.003319 -0.003503 -0.006303
v 0.001911 0.002282 -0.007622
v 0.000817 0.000388 -0.000120
v 0.003530 0.006094 0.003689
v 0.001769 0.002405 0.002849
v -0.001081 -0.007088 -0.007331
v -0.002074 -0.011997 0.004084
v -0.001013 -0.011012 0.006972
v -0.007610 -0.010162 -0.000977
v -0.007957 -0.011758 0.003021
v -0.008048 -0.011425 0.001847
v 0.052685 -0.033158 -0.001344
v 0.053409 -0.033803 -0.005712
v 0.052885 -0.034096 -0.008111
v 0.054165 -0.032069 -0.009229
v 0.061006 -0.030253 -0.010209
v 0.059758 -0.031465 -0.009852
v 0.056044 -0.032887 -0.009306
v 0.060791 -0.032262 -0.009247
v 0.061207 -0.034231 -0.001481
v 0.061331 -0.034169 -0.000067
v 0.059841 -0.033253 0.002526
v 0.061978 -0.031975 -0.007220
v 0.061154 -0.032756 -0.008528
v 0.052821 -0.033747 0.003249
v 0.052786 -0.033983 0.000972
v 0.057505 -0.032856 0.003835
v 0.002828 -0.006772 0.010069
v 0.001597 -0.008266 0.009295
v 0.003608 0.004404 0.005078
v 0.001905 0.000305 0.006116
v -0.003845 -0.006396 -0.006500
v 0.004437 0.007199 -0.008104
v -0.008761 -0.010652 0.002310
v -0.007887 -0.010548 0.004354
v -0.004379 -0.008223 0.006741
v -0.007884 -0.009214 -0.000792
v 0.001102 -0.000357 0.003330
v 0.001386 0.000688 0.003347
v -0.005932 -0.007627 -0.004664
v -0.006499 -0.011381 0.005529
v -0.008550 -0.011254 0.002715
v -0.008236 -0.010427 0.000258
v 0.056058 -0.034333 -0.004481
v 0.056007 -0.034137 -0.002467
v 0.056151 -0.034383 -0.007979
v 0.056844 -0.034336 -0.006335
v 0.058698 -0.032577 -0.008978
v 0.058272 -0.034584 -0.003079
v 0.057852 -0.034249 -0.005097
v 0.059080 -0.033229 -0.007661
v 0.058523 -0.034969 0.000348
v 0.056332 -0.034483 0.002402
v 0.055895 -0.035000 0.001211
v -0.000963 -0.008097 0.008923
v -0.000171 -0.006931 0.009160
v -0.003518 -0.010288 0.007967
v -0.000643 -0.003583 0.006263
v -0.004965 -0.009481 0.007216
v -0.000697 -0.005810 0.008719
v -0.007034 -0.008072 -0.002846
v -0.007301 -0.010587 0.005250
v -0.007790 -0.011105 0.004072
v -0.004627 -0.010044 0.007513
vn 0.3553 0.9199 0.1662
vn 0.3900 0.9167 0.0870
vn 0.2409 0.8023 0.5461
vn 0.3453 0.9108 -0.2262
vn 0.3760 0.8745 0.3064
vn 0.1431 0.5970 0.7894
vn 0.2671 0.6219 0.7362
vn 0.3149 0.8206 0.4770
vn 0.3629 0.6988 0.6164
vn 0.5637 0.8256 0.0268
vn 0.3384 0.7946 -0.5041
vn 0.2525 0.7879 -0.5617
vn 0.2659 0.7525 -0.6026
vn 0.2742 0.9562 -0.1024
vn 0.3539 0.8562 -0.3763
vn 0.5108 0.7695 0.3833
vn 0.4321 0.8989 -0.0725
vn 0.3071 0.6342 0.7095
vn -0.1760 0.2440 0.9537
vn 0.0005 0.2450 0.9695
vn 0.2475 0.5503 0.7975
vn 0.4321 0.6033 0.6703
vn 0.3255 0.6945 0.6416
vn 0.4232 0.8573 0.2933
vn 0.4302 0.7013 0.5684
vn 0.6501 0.7394 0.1752
vn 0.4077 0.7379 -0.5379
vn 0.5702 0.6673 -0.4791
vn 0.6194 0.7045 -0.3465
vn 0.6506 0.7551 -0.0803
vn 0.1314 0.1951 -0.9719
vn 0.0492 0.2193 -0.9744
vn 0.2587 0.4966 -0.8285
vn 0.5062 0.5653 -0.6514
vn -0.0924 0.4541 -0.8861
vn -0.0286 0.4853 -0.8739
vn -0.0516 0.3157 -0.9475
vn -0.0195 0.2576 -0.9661
vn 0.7042 0.6142 -0.3562
vn 0.6692 0.6013 0.4366
vn 0.7898 0.6130 0.0213
vn -0.4218 0.1886 0.8869
vn -0.5104 -0.0847 0.8557
vn -0.0419 0.1062 0.9935
vn -0.0560 0.0780 0.9954
vn 0.2037 0.3609 0.9101
vn 0.5316 0.3814 0.7562
vn 0.6782 0.4317 0.5947
vn -0.0246 0.1029 0.9944
vn 0.0889 0.2368 0.9675
vn 0.5276 0.5558 0.6424
vn 0.1904 0.2637 0.9456
vn 0.6148 0.7747 0.1476
vn 0.2836 0.1917 -0.9396
vn 0.3437 0.4653 -0.8157
vn 0.4607 0.2180 -0.8604
vn 0.3249 0.9021 -0.2841
vn 0.3789 0.7328 -0.5653
vn 0.3762 0.9261 0.0305
vn 0.0220 -0.2386 -0.9709
vn -0.2657 -0.5258 -0.8080
vn -0.1793 -0.4780 -0.8598
vn -0.0043 -0.5658 -0.8245
vn -0.3201 -0.3974 -0.8600
vn -0.3070 -0.5898 -0.7469
vn -0.1494 0.0667 -0.9865
vn 0.1395 0.1820 -0.9734
vn 0.5081 0.0185 -0.8611
vn -0.2359 -0.0854 -0.9680
vn -0.3032 0.0127 -0.9529
vn 0.9189 0.2055 -0.3367
vn 0.7528 0.1747 -0.6347
vn 0.8004 0.5762 0.1657
vn 0.8890 0.3463 0.2995
vn 0.9550 0.2961 -0.0194
vn -0.6119 -0.1400 0.7785
vn -0.5572 -0.2431 0.7940
vn -0.4011 -0.0354 0.9153
vn -0.1797 -0.2354 0.9551
vn -0.3832 -0.5017 0.7755
vn -0.2518 -0.4289 0.8675
vn 0.1212 -0.1125 0.9862
vn 0.6711 -0.0352 0.7406
vn 0.7745 -0.3375 0.5350
vn 0.8584 0.1522 0.4899
vn 0.8180 -0.1111 0.5645
vn -0.0921 -0.3121 0.9456
vn 0.1091 -0.0797 0.9908
vn 0.4949 0.6109 0.6180
vn 0.3811 0.0361 0.9238
vn 0.2942 0.8880 0.3535
vn 0.2389 -0.1064 -0.9652
vn 0.1508 -0.2222 -0.9633
vn -0.2049 0.7308 -0.6511
vn 0.1744 0.2429 -0.9542
vn 0.0843 -0.2254 -0.9706
vn 0.2450 -0.1668 -0.9551
vn -0.0204 0.8857 -0.4637
vn -0.0612 0.9965 0.0569
vn -0.2287 -0.9335 -0.2762
vn -0.2302 -0.7483 -0.6221
vn -0.3343 -0.8938 -0.2988
vn 0.1716 -0.4184 -0.8919
vn -0.0672 -0.9608 -0.2689
vn 0.0572 -0.7451 -0.6645
vn -0.5479 -0.6822 -0.4842
vn -0.3244 -0.2948 -0.8988
vn -0.4489 -0.8300 -0.3311
vn -0.3948 -0.8950 -0.2075
vn -0.0013 -0.0566 -0.9984
vn 0.0627 -0.2731 -0.9599
vn -0.3427 -0.1972 -0.9185
vn -0.3894 -0.0577 -0.9192
vn 0.9422 -0.1203 -0.3128
vn 0.9846 -0.1740 -0.0181
vn 0.8324 -0.1684 -0.5279
vn 0.9521 -0.1992 0.2322
vn -0.7160 -0.4005 0.5718
vn -0.7452 -0.5137 0.4251
vn -0.6056 -0.5095 0.6113
vn -0.5621 -0.6165 0.5514
vn -0.1426 -0.6111 0.7786
vn -0.3712 -0.7149 0.5926
vn -0.5305 -0.7354 0.4215
vn -0.6544 -0.6856 0.3189
vn 0.0864 -0.6382 0.7650
vn 0.5054 -0.2344 0.8304
vn 0.4208 -0.7590 0.4969
vn 0.6686 -0.6217 0.4081
vn 0.8369 -0.4860 0.2518
vn -0.0399 -0.6163 0.7865
vn -0.2006 -0.6438 0.7385
vn 0.0502 -0.3254 0.9443
vn -0.0215 0.8998 0.4359
vn 0.2271 0.5366 0.8127
vn 0.4302 0.2733 0.8604
vn 0.1808 0.4008 0.8982
vn 0.5316 0.0444 0.8458
vn 0.3830 -0.4285 0.8183
vn -0.0042 0.9612 0.2759
vn 0.1156 -0.1833 -0.9762
vn 0.0923 -0.0784 -0.9926
vn -0.0169 -0.2473 -0.9688
vn -0.4349 0.5896 -0.6806
vn -0.4627 0.0800 -0.8829
vn -0.3801 -0.1067 -0.9188
vn -0.1694 0.9592 -0.2264
vn -0.6691 0.7206 0.1819
vn -0.4188 0.9080 -0.0114
vn -0.1953 -0.9741 0.1138
vn -0.3144 -0.9140 0.2564
vn -0.3759 -0.8932 0.2470
vn 0.0683 -0.4961 -0.8655
vn -0.0772 -0.9762 0.2025
vn -0.0318 -0.9954 -0.0909
vn -0.1909 -0.8579 -0.4771
vn -0.1608 -0.9383 -0.3062
vn -0.2011 -0.7152 -0.6694
vn -0.5166 -0.8524 0.0811
vn -0.6275 -0.7784 0.0189
vn -0.6034 -0.5605 -0.5673
vn -0.3899 -0.2577 -0.8841
vn -0.1597 -0.2885 -0.9441
vn -0.0851 -0.3784 -0.9217
vn 0.5208 -0.4630 -0.7172
vn 0.2097 -0.5685 -0.7955
vn -0.2062 -0.4403 -0.8738
vn 0.7163 -0.5282 -0.4560
vn -0.3682 -0.2581 -0.8932
vn 0.8315 -0.4742 -0.2895
vn 0.8974 -0.4162 -0.1460
vn 0.6654 -0.7277 0.1664
vn -0.6028 -0.6663 0.4389
vn -0.7004 -0.5759 0.4217
vn -0.2862 -0.8789 0.3816
vn -0.7585 -0.6051 0.2417
vn -0.6988 -0.7069 0.1098
vn -0.0623 -0.9606 0.2707
vn 0.2124 -0.9540 0.2118
vn 0.2575 -0.6747 0.6917
vn -0.2417 -0.8550 0.4588
vn -0.0536 -0.8653 0.4983
vn -0.2081 0.6573 0.7243
vn 0.1713 0.4784 0.8613
vn -0.1209 0.2711 0.9549
vn -0.2741 0.5272 0.8043
vn 0.1282 0.2632 0.9562
vn 0.4522 -0.1612 0.8772
vn 0.4882 -0.4679 0.7367
vn -0.3199 0.0981 -0.9423
vn -0.1550 -0.1475 -0.9768
vn -0.2193 -0.2849 -0.9331
vn -0.5155 0.7789 -0.3572
vn -0.8972 0.3217 -0.3027
vn -0.7986 0.2993 -0.5221
vn -0.7354 0.5019 -0.4552
vn -0.6829 0.6944 0.2269
vn -0.6948 0.6951 -0.1844
vn -0.8501 0.5194 -0.0873
vn 0.1477 -0.8739 0.4631
vn 0.1066 -0.9930 0.0518
vn 0.2673 -0.8826 0.3868
vn -0.2237 -0.8690 -0.4414
vn -0.0940 -0.9532 -0.2872
vn -0.7029 -0.7083 0.0661
vn -0.6014 -0.7163 -0.3538
vn -0.3862 -0.2122 -0.8977
vn -0.1768 -0.3041 -0.9361
vn -0.2719 -0.1168 -0.9552
vn 0.6732 -0.7357 -0.0742
vn 0.3674 -0.9020 0.2266
vn 0.5361 -0.8262 -0.1733
vn 0.3615 -0.7807 -0.5097
vn -0.2564 -0.9146 0.3127
vn -0.1274 -0.7314 0.6699
vn -0.3934 -0.7232 0.5677
vn -0.6314 -0.6144 0.4731
vn -0.6069 -0.7884 0.1004
vn -0.6483 -0.7610 0.0244
vn -0.0518 -0.9717 0.2305
vn 0.3205 -0.6727 0.6669
vn -0.3610 0.1903 0.9130
vn -0.8515 0.3615 0.3798
vn -0.6748 0.3877 0.6279
vn -0.5576 0.1288 0.8200
vn -0.3097 0.5563 0.7711
vn -0.6232 0.5321 0.5731
vn 0.0330 -0.1867 0.9819
vn 0.2530 -0.4607 0.8508
vn -0.3876 0.1546 0.9088
vn -0.6451 0.0979 -0.7578
vn -0.4401 -0.1686 -0.8820
vn -0.3472 -0.5066 -0.7892
vn -0.8755 0.4773 -0.0758
vn -0.9336 0.3502 -0.0761
vn -0.8306 0.3286 -0.4497
vn -0.7806 0.6185 -0.0900
vn -0.8557 0.4981 -0.1402
vn -0.8577 0.5068 0.0863
vn -0.9297 0.2855 0.2328
vn -0.9144 0.3284 0.2369
vn -0.2974 -0.7467 -0.5950
vn 0.0588 -0.9941 0.0915
vn 0.1642 -0.8595 0.4840
vn -0.5403 -0.6421 -0.5438
vn -0.4264 -0.8982 0.1069
vn -0.4049 -0.8542 -0.3263
vn -0.4520 -0.8896 -0.0654
vn -0.2363 -0.9663 0.1020
vn -0.3375 -0.8119 -0.4763
vn -0.2857 -0.1667 -0.9437
vn -0.0953 -0.3553 -0.9299
vn 0.0383 -0.4249 -0.9044
vn -0.0290 -0.4709 -0.8817
vn 0.0542 -0.6793 -0.7319
vn 0.3801 -0.9172 -0.1193
vn 0.3833 -0.9081 0.1684
vn 0.1668 -0.8718 0.4606
vn 0.2999 -0.9379 -0.1745
vn 0.4330 -0.8990 -0.0651
vn -0.2517 -0.8456 0.4707
vn -0.4857 -0.8662 -0.1173
vn 0.0726 -0.8373 0.5419
vn -0.0021 -0.4057 0.9140
vn 0.1542 -0.6290 0.7620
vn -0.8091 0.2188 0.5454
vn -0.7830 0.5361 0.3155
vn -0.5218 -0.2744 -0.8077
vn -0.9136 0.4042 0.0451
vn -0.9868 0.1470 0.0677
vn -0.8741 0.2117 0.4372
vn -0.7038 0.5946 0.3888
vn -0.9288 0.3236 -0.1807
vn -0.8775 0.4504 0.1649
vn -0.9182 0.3169 0.2376
vn -0.6419 -0.3527 -0.6809
vn -0.3888 -0.7486 0.5371
vn -0.8728 -0.4619 0.1578
vn -0.8391 -0.3895 -0.3798
vn -0.0864 -0.9951 0.0476
vn -0.2350 -0.9672 -0.0966
vn 0.0844 -0.9277 -0.3636
vn 0.1192 -0.9906 -0.0670
vn 0.2163 -0.7855 -0.5799
vn 0.0192 -0.9857 -0.1672
vn 0.1559 -0.9787 -0.1337
vn 0.2951 -0.9076 -0.2988
vn 0.1722 -0.9671 0.1871
vn 0.1171 -0.8257 0.5519
vn -0.1158 -0.9876 0.1056
vn -0.2836 -0.0779 0.9558
vn -0.3824 0.0474 0.9228
vn -0.2250 -0.5007 0.8359
vn -0.7520 0.6045 0.2627
vn -0.6386 0.2840 0.7152
vn -0.5524 0.2943 0.7799
vn -0.9225 0.2560 -0.2888
vn -0.7793 0.0348 0.6257
vn -0.7577 -0.4617 0.4613
vn -0.4976 -0.1712 0.8504
s 1
f 1//1 2//2 3//3
f 1//1 4//4 2//2
f 3//3 5//5 1//1
f 1//1 5//5 4//4
f 6//6 7//7 3//3
f 3//3 8//8 6//6
f 3//3 2//2 8//8
f 7//7 9//9 3//3
f 3//3 9//9 5//5
f 2//2 10//10 8//8
f 11//11 2//2 4//4
f 10//10 2//2 11//11
f 12//12 13//13 4//4
f 14//14 4//4 5//5
f 11//11 4//4 13//13
f 4//4 15//15 12//12
f 4//4 14//14 15//15
f 16//16 5//5 9//9
f 16//16 17//17 5//5
f 17//17 14//14 5//5
f 6//6 18//18 19//19
f 6//6 19//19 20//20
f 18//18 6//6 8//8
f 7//7 6//6 20//20
f 9//9 7//7 21//21
f 22//22 9//9 21//21
f 22//22 16//16 9//9
f 23//23 18//18 8//8
f 8//8 24//24 23//23
f 8//8 10//10 24//24
f 25//25 10//10 26//26
f 25//25 24//24 10//10
f 11//11 27//27 10//10
f 27//27 28//28 10//10
f 10//10 28//28 29//29
f 30//30 10//10 29//29
f 26//26 10//10 30//30
f 27//27 11//11 31//31
f 31//31 11//11 32//32
f 11//11 13//13 32//32
f 33//33 12//12 34//34
f 35//35 13//13 12//12
f 12//12 15//15 34//34
f 36//36 12//12 33//33
f 36//36 35//35 12//12
f 37//37 38//38 13//13
f 32//32 13//13 38//38
f 35//35 37//37 13//13
f 17//17 15//15 14//14
f 15//15 17//17 39//39
f 39//39 34//34 15//15
f 40//40 41//41 16//16
f 41//41 17//17 16//16
f 40//40 16//16 22//22
f 41//41 39//39 17//17
f 42//42 19//19 43//43
f 44//44 19//19 18//18
f 20//20 19//19 42//42
f 44//44 43//43 19//19
f 44//44 18//18 45//45
f 23//23 45//45 18//18
f 46//46 21//21 20//20
f 20//20 21//21 7//7
f 21//21 46//46 47//47
f 21//21 47//47 22//22
f 47//47 48//48 22//22
f 22//22 48//48 40//40
f 25//25 23//23 24//24
f 49//49 23//23 50//50
f 23//23 25//25 50//50
f 23//23 49//49 45//45
f 51//51 25//25 26//26
f 52//52 50//50 25//25
f 52//52 25//25 51//51
f 53//53 26//26 30//30
f 26//26 53//53 51//51
f 31//31 54//54 27//27
f 27//27 54//54 28//28
f 28//28 55//55 29//29
f 56//56 55//55 28//28
f 54//54 56//56 28//28
f 29//29 57//57 30//30
f 57//57 29//29 58//58
f 58//58 29//29 55//55
f 30//30 59//59 53//53
f 59//59 30//30 57//57
f 54//54 31//31 60//60
f 32//32 61//61 31//31
f 62//62 63//63 31//31
f 62//62 31//31 61//61
f 63//63 60//60 31//31
f 64//64 32//32 38//38
f 64//64 65//65 32//32
f 65//65 61//61 32//32
f 66//66 33//33 67//67
f 68//68 33//33 34//34
f 68//68 67//67 33//33
f 33//33 66//66 36//36
f 37//37 35//35 69//69
f 69//69 35//35 70//70
f 36//36 70//70 35//35
f 70//70 36//36 66//66
f 38//38 37//37 69//69
f 69//69 64//64 38//38
f 39//39 41//41 71//71
f 71//71 72//72 39//39
f 34//34 39//39 72//72
f 41//41 40//40 73//73
f 74//74 73//73 40//40
f 75//75 41//41 73//73
f 75//75 71//71 41//41
f 76//76 42//42 77//77
f 77//77 42//42 43//43
f 77//77 43//43 44//44
f 20//20 76//76 78//78
f 79//79 20//20 78//78
f 76//76 20//20 42//42
f 80//80 77//77 44//44
f 80//80 44//44 45//45
f 81//81 80//80 45//45
f 49//49 81//81 45//45
f 82//82 46//46 79//79
f 20//20 79//79 46//46
f 46//46 83//83 47//47
f 46//46 82//82 83//83
f 83//83 84//84 47//47
f 47//47 85//85 48//48
f 47//47 86//86 85//85
f 84//84 86//86 47//47
f 48//48 85//85 40//40
f 74//74 40//40 85//85
f 49//49 50//50 81//81
f 87//87 81//81 50//50
f 88//88 50//50 52//52
f 88//88 87//87 50//50
f 51//51 53//53 89//89
f 51//51 90//90 52//52
f 90//90 51//51 89//89
f 52//52 90//90 88//88
f 53//53 91//91 89//89
f 91//91 53//53 59//59
f 56//56 54//54 92//92
f 92//92 54//54 93//93
f 60//60 93//93 54//54
f 94//94 55//55 95//95
f 55//55 94//94 58//58
f 95//95 55//55 96//96
f 97//97 96//96 55//55
f 55//55 56//56 97//97
f 92//92 97//97 56//56
f 58//58 98//98 57//57
f 58//58 94//94 98//98
f 91//91 59//59 99//99
f 59//59 57//57 99//99
f 60//60 63//63 93//93
f 61//61 100//100 101//101
f 61//61 65//65 102//102
f 100//100 61//61 102//102
f 62//62 61//61 101//101
f 62//62 101//101 63//63
f 63//63 103//103 93//93
f 63//63 101//101 104//104
f 105//105 63//63 104//104
f 103//103 63//63 105//105
f 106//106 64//64 107//107
f 108//108 64//64 106//106
f 69//69 107//107 64//64
f 65//65 64//64 108//108
f 109//109 65//65 108//108
f 102//102 65//65 109//109
f 72//72 68//68 34//34
f 110//110 66//66 67//67
f 67//67 68//68 111//111
f 110//110 67//67 111//111
f 112//112 107//107 69//69
f 69//69 70//70 112//112
f 113//113 70//70 66//66
f 112//112 70//70 113//113
f 72//72 71//71 114//114
f 75//75 115//115 71//71
f 71//71 115//115 114//114
f 116//116 72//72 114//114
f 68//68 72//72 116//116
f 74//74 75//75 73//73
f 74//74 85//85 117//117
f 74//74 115//115 75//75
f 117//117 115//115 74//74
f 78//78 76//76 118//118
f 76//76 77//77 119//119
f 119//119 118//118 76//76
f 120//120 77//77 80//80
f 120//120 119//119 77//77
f 79//79 78//78 121//121
f 121//121 78//78 118//118
f 79//79 122//122 82//82
f 79//79 121//121 122//122
f 123//123 124//124 80//80
f 124//124 125//125 80//80
f 125//125 120//120 80//80
f 123//123 80//80 81//81
f 81//81 87//87 123//123
f 126//126 82//82 122//122
f 126//126 127//127 82//82
f 127//127 83//83 82//82
f 127//127 84//84 83//83
f 128//128 84//84 127//127
f 128//128 129//129 84//84
f 130//130 84//84 129//129
f 86//86 84//84 130//130
f 86//86 117//117 85//85
f 130//130 117//117 86//86
f 131//131 132//132 87//87
f 87//87 132//132 123//123
f 133//133 131//131 87//87
f 133//133 87//87 88//88
f 88//88 90//90 133//133
f 134//134 135//135 89//89
f 136//136 90//90 89//89
f 91//91 134//134 89//89
f 89//89 137//137 136//136
f 135//135 137//137 89//89
f 138//138 90//90 136//136
f 139//139 90//90 138//138
f 90//90 139//139 133//133
f 140//140 134//134 91//91
f 140//140 91//91 99//99
f 97//97 92//92 141//141
f 93//93 141//141 92//92
f 93//93 142//142 141//141
f 93//93 143//143 142//142
f 143//143 93//93 103//103
f 144//144 94//94 95//95
f 96//96 145//145 95//95
f 144//144 95//95 145//145
f 145//145 96//96 146//146
f 96//96 141//141 146//146
f 96//96 97//97 141//141
f 57//57 147//147 99//99
f 147//147 57//57 98//98
f 99//99 148//148 140//140
f 147//147 149//149 99//99
f 99//99 149//149 148//148
f 150//150 100//100 151//151
f 100//100 102//102 151//151
f 102//102 152//152 151//151
f 102//102 109//109 152//152
f 104//104 101//101 100//100
f 153//153 103//103 105//105
f 143//143 103//103 153//153
f 104//104 154//154 155//155
f 104//104 100//100 154//154
f 155//155 105//105 104//104
f 156//156 105//105 157//157
f 153//153 105//105 158//158
f 155//155 157//157 105//105
f 156//156 158//158 105//105
f 108//108 106//106 159//159
f 160//160 159//159 106//106
f 106//106 161//161 160//160
f 106//106 107//107 161//161
f 161//161 107//107 112//112
f 152//152 109//109 108//108
f 159//159 152//152 108//108
f 162//162 66//66 163//163
f 110//110 163//163 66//66
f 66//66 162//162 113//113
f 111//111 164//164 110//110
f 164//164 163//163 110//110
f 111//111 68//68 165//165
f 166//166 111//111 165//165
f 164//164 111//111 167//167
f 166//166 167//167 111//111
f 68//68 116//116 168//168
f 68//68 168//168 165//165
f 161//161 112//112 169//169
f 169//169 112//112 113//113
f 169//169 113//113 162//162
f 170//170 114//114 171//171
f 115//115 171//171 114//114
f 114//114 170//170 116//116
f 115//115 117//117 130//130
f 172//172 171//171 115//115
f 130//130 172//172 115//115
f 168//168 116//116 170//170
f 121//121 118//118 173//173
f 118//118 119//119 173//173
f 119//119 125//125 174//174
f 119//119 174//174 173//173
f 119//119 120//120 125//125
f 126//126 122//122 175//175
f 122//122 121//121 175//175
f 123//123 152//152 159//159
f 159//159 124//124 123//123
f 160//160 124//124 159//159
f 160//160 125//125 124//124
f 176//176 125//125 177//177
f 125//125 160//160 177//177
f 125//125 176//176 174//174
f 132//132 152//152 123//123
f 127//127 126//126 128//128
f 178//178 128//128 126//126
f 128//128 178//178 179//179
f 179//179 129//129 128//128
f 130//130 129//129 172//172
f 179//179 172//172 129//129
f 180//180 131//131 139//139
f 132//132 131//131 181//181
f 182//182 181//181 131//131
f 131//131 180//180 182//182
f 133//133 139//139 131//131
f 181//181 151//151 132//132
f 151//151 152//152 132//132
f 134//134 183//183 135//135
f 184//184 136//136 137//137
f 136//136 184//184 138//138
f 185//185 186//186 137//137
f 184//184 137//137 186//186
f 137//137 135//135 185//185
f 138//138 187//187 188//188
f 184//184 187//187 138//138
f 188//188 139//139 138//138
f 139//139 189//189 180//180
f 188//188 189//189 139//139
f 134//134 140//140 148//148
f 142//142 146//146 141//141
f 190//190 142//142 191//191
f 192//192 142//142 143//143
f 192//192 191//191 142//142
f 190//190 146//146 142//142
f 192//192 143//143 153//153
f 94//94 193//193 98//98
f 94//94 144//144 193//193
f 144//144 145//145 194//194
f 193//193 144//144 194//194
f 194//194 145//145 195//195
f 146//146 195//195 145//145
f 146//146 190//190 196//196
f 98//98 193//193 147//147
f 197//197 134//134 148//148
f 149//149 147//147 198//198
f 148//148 149//149 199//199
f 198//198 199//199 149//149
f 154//154 100//100 150//150
f 181//181 150//150 151//151
f 181//181 182//182 150//150
f 154//154 150//150 182//182
f 192//192 153//153 158//158
f 200//200 155//155 154//154
f 155//155 201//201 157//157
f 200//200 202//202 155//155
f 201//201 155//155 202//202
f 182//182 200//200 154//154
f 156//156 203//203 158//158
f 157//157 203//203 156//156
f 204//204 157//157 201//201
f 203//203 157//157 204//204
f 205//205 160//160 161//161
f 177//177 160//160 205//205
f 161//161 206//206 205//205
f 207//207 206//206 161//161
f 207//207 161//161 169//169
f 169//169 162//162 208//208
f 163//163 208//208 162//162
f 163//163 164//164 208//208
f 167//167 208//208 164//164
f 165//165 168//168 166//166
f 169//169 208//208 209//209
f 207//207 169//169 209//209
f 210//210 170//170 171//171
f 170//170 210//210 168//168
f 210//210 171//171 172//172
f 211//211 210//210 172//172
f 179//179 211//211 172//172
f 210//210 212//212 168//168
f 166//166 168//168 213//213
f 213//213 168//168 212//212
f 214//214 175//175 121//121
f 121//121 173//173 214//214
f 215//215 173//173 216//216
f 173//173 174//174 217//217
f 217//217 216//216 173//173
f 176//176 217//217 174//174
f 126//126 175//175 178//178
f 176//176 177//177 217//217
f 218//218 177//177 219//219
f 217//217 177//177 218//218
f 205//205 219//219 177//177
f 178//178 220//220 179//179
f 220//220 178//178 175//175
f 179//179 220//220 211//211
f 180//180 221//221 200//200
f 200//200 182//182 180//180
f 221//221 180//180 189//189
f 183//183 134//134 197//197
f 222//222 135//135 183//183
f 197//197 223//223 183//183
f 222//222 183//183 223//223
f 185//185 135//135 222//222
f 187//187 184//184 186//186
f 185//185 224//224 186//186
f 225//225 224//224 185//185
f 226//226 187//187 186//186
f 227//227 186//186 224//224
f 186//186 227//227 226//226
f 188//188 187//187 228//228
f 189//189 188//188 229//229
f 229//229 188//188 228//228
f 230//230 228//228 187//187
f 187//187 226//226 230//230
f 229//229 221//221 189//189
f 231//231 196//196 190//190
f 232//232 190//190 191//191
f 232//232 231//231 190//190
f 232//232 191//191 192//192
f 192//192 233//233 232//232
f 192//192 158//158 233//233
f 193//193 198//198 147//147
f 198//198 193//193 234//234
f 193//193 194//194 234//234
f 235//235 194//194 195//195
f 235//235 234//234 194//194
f 146//146 196//196 195//195
f 236//236 237//237 196//196
f 196//196 238//238 195//195
f 239//239 238//238 196//196
f 237//237 239//239 196//196
f 197//197 148//148 240//240
f 197//197 240//240 223//223
f 240//240 148//148 241//241
f 199//199 241//241 148//148
f 198//198 241//241 199//199
f 242//242 233//233 158//158
f 242//242 158//158 203//203
f 221//221 202//202 200//200
f 201//201 243//243 204//204
f 202//202 244//244 201//201
f 244//244 243//243 201//201
f 244//244 202//202 221//221
f 203//203 245//245 242//242
f 203//203 204//204 245//245
f 243//243 246//246 204//204
f 247//247 204//204 246//246
f 247//247 245//245 204//204
f 219//219 205//205 206//206
f 219//219 206//206 248//248
f 249//249 206//206 250//250
f 249//249 248//248 206//206
f 250//250 206//206 207//207
f 207//207 251//251 250//250
f 251//251 207//207 209//209
f 252//252 253//253 208//208
f 254//254 251//251 208//208
f 209//209 208//208 251//251
f 254//254 208//208 253//253
f 167//167 252//252 208//208
f 166//166 213//213 255//255
f 255//255 252//252 166//166
f 167//167 166//166 252//252
f 256//256 212//212 210//210
f 211//211 257//257 210//210
f 256//256 210//210 257//257
f 220//220 258//258 211//211
f 257//257 211//211 258//258
f 260//259 212//212 259//260
f 213//213 212//212 260//259
f 255//255 213//213 260//259
f 214//214 220//220 175//175
f 215//215 214//214 173//173
f 261//261 215//215 216//216
f 216//216 217//217 218//218
f 219//219 248//248 218//218
f 248//248 262//262 218//218
f 262//262 261//261 218//218
f 216//216 218//218 261//261
f 215//215 263//263 220//220
f 263//263 258//258 220//220
f 214//214 215//215 220//220
f 264//264 265//265 221//221
f 265//265 244//244 221//221
f 229//229 264//264 221//221
f 222//222 225//225 185//185
f 222//222 223//223 225//225
f 223//223 266//266 225//225
f 266//266 223//223 240//240
f 224//224 267//267 227//227
f 225//225 266//266 224//224
f 226//226 227//227 230//230
f 230//230 264//264 228//228
f 229//229 228//228 264//264
f 268//268 236//236 231//231
f 231//231 236//236 196//196
f 232//232 268//268 231//231
f 268//268 232//232 233//233
f 268//268 233//233 242//242
f 269//269 198//198 234//234
f 235//235 269//269 234//234
f 235//235 195//195 238//238
f 235//235 241//241 269//269
f 238//238 241//241 235//235
f 237//237 270//270 271//271
f 272//272 237//237 271//271
f 270//270 237//237 273//273
f 273//273 237//237 236//236
f 272//272 274//274 237//237
f 237//237 274//274 239//239
f 238//238 239//239 241//241
f 241//241 239//239 274//274
f 240//240 241//241 266//266
f 275//275 224//224 241//241
f 269//269 241//241 198//198
f 266//266 241//241 224//224
f 241//241 274//274 275//275
f 276//276 242//242 245//245
f 276//276 268//268 242//242
f 244//244 277//277 243//243
f 246//246 243//243 277//277
f 278//278 247//247 246//246
f 279//279 245//245 247//247
f 280//280 248//248 249//249
f 280//280 281//281 248//248
f 248//248 281//281 262//262
f 250//250 282//282 249//249
f 283//283 249//249 282//282
f 280//280 249//249 283//283
f 251//251 254//254 250//250
f 252//252 255//255 253//253
f 284//284 253//253 255//255
f 250//250 254//254 282//282
f 253//253 282//282 254//254
f 282//282 253//253 284//284
f 285//285 286//286 256//256
f 256//256 259//260 212//212
f 256//256 287//287 259//260
f 257//257 288//288 256//256
f 287//287 256//256 286//286
f 256//256 288//288 285//285
f 257//257 258//258 288//288
f 258//258 263//263 288//288
f 287//287 260//259 259//260
f 289//289 263//263 215//215
f 215//215 261//261 289//289
f 289//289 261//261 290//290
f 261//261 262//262 290//290
f 281//281 290//290 262//262
f 263//263 289//289 288//288
f 291//291 264//264 292//292
f 265//265 264//264 291//291
f 230//230 292//292 264//264
f 291//291 293//293 265//265
f 244//244 265//265 293//293
f 267//267 294//294 227//227
f 274//274 294//294 267//267
f 274//274 267//267 275//275
f 224//224 275//275 267//267
f 227//227 272//272 295//295
f 296//296 230//230 227//227
f 296//296 227//227 295//295
f 227//227 294//294 272//272
f 292//292 230//230 296//296
f 268//268 276//276 236//236
f 236//236 276//276 297//297
f 273//273 236//236 297//297
f 295//295 271//271 298//298
f 271//271 295//295 272//272
f 299//299 270//270 278//278
f 270//270 299//299 271//271
f 273//273 279//279 270//270
f 270//270 279//279 278//278
f 294//294 274//274 272//272
f 273//273 297//297 279//279
f 297//297 276//276 245//245
f 244//244 293//293 277//277
f 299//299 277//277 298//298
f 277//277 299//299 246//246
f 293//293 300//300 277//277
f 277//277 300//300 298//298
f 246//246 299//299 278//278
f 279//279 297//297 245//245
f 278//278 279//279 247//247
f 286//286 280//280 283//283
f 286//286 281//281 280//280
f 285//285 290//290 281//281
f 285//285 281//281 286//286
f 287//287 283//283 282//282
f 286//286 283//283 287//287
f 255//255 260//259 284//284
f 282//282 284//284 287//287
f 284//284 260//259 287//287
f 290//290 285//285 288//288
f 289//289 290//290 288//288
f 300//300 292//292 296//296
f 292//292 300//300 291//291
f 295//295 300//300 296//296
f 271//271 299//299 298//298
f 298//298 300//300 295//295
f 291//291 300//300 293//293
