# Blender 4.0.2
# www.blender.org
mtllib metatarsal_2_r.mtl
o metatarsal_2_r.002
v 0.052243 -0.029938 0.004728
v 0.052443 -0.029738 0.003857
v 0.058691 -0.038821 0.005425
v 0.049665 -0.028105 0.004781
v 0.046603 -0.025364 0.002107
v 0.062142 -0.035903 0.009715
v 0.060463 -0.032871 0.008285
v 0.061860 -0.038555 0.008100
v 0.057619 -0.030662 0.009106
v 0.052440 -0.028095 0.005718
v 0.059347 -0.036657 0.002870
v 0.061209 -0.026816 0.000604
v 0.060292 -0.037669 0.002019
v 0.063961 -0.039936 0.005426
v 0.063027 -0.039095 0.008008
v 0.061885 -0.039061 0.004896
v 0.042786 -0.018103 0.005020
v 0.029446 -0.017178 0.003491
v 0.022486 -0.013973 -0.000854
v 0.029862 -0.013367 -0.002005
v 0.066843 -0.036356 0.009815
v 0.068486 -0.031577 0.008821
v 0.058644 -0.028102 0.009415
v 0.060075 -0.026307 0.008376
v 0.054369 -0.025681 0.006917
v 0.044656 -0.016058 0.003317
v 0.058906 -0.023728 0.002756
v 0.063034 -0.026008 0.001201
v 0.069089 -0.029127 0.003012
v 0.067019 -0.036392 0.001294
v 0.065048 -0.038442 0.001402
v 0.040682 -0.015216 -0.000824
v 0.065518 -0.039412 0.002683
v 0.067070 -0.038270 0.002282
v 0.054936 -0.024788 0.006537
v 0.054558 -0.021471 0.003914
v 0.028942 -0.013576 0.004149
v 0.027500 -0.006880 0.002243
v 0.018014 -0.014191 0.002909
v 0.025124 -0.009963 -0.003261
v 0.009901 -0.010706 -0.005473
v 0.019707 -0.011984 -0.003710
v 0.026022 -0.007460 -0.002489
v 0.069965 -0.034636 0.007909
v 0.070176 -0.031114 0.005737
v 0.067841 -0.028221 0.005078
v 0.070363 -0.034313 0.003187
v 0.011429 0.002781 -0.000978
v 0.009509 0.002662 0.002094
v 0.012751 -0.005074 0.006377
v 0.008905 -0.010924 -0.001097
v 0.022003 -0.006213 -0.003685
v 0.002948 -0.010795 -0.005931
v 0.004376 -0.009564 -0.006880
v 0.012254 -0.006679 -0.006429
v 0.014968 -0.005550 -0.006217
v 0.070740 -0.033792 0.005541
v 0.009750 0.001534 -0.006544
v 0.003225 0.004510 -0.006022
v 0.003788 0.004774 -0.001490
v 0.003440 -0.001506 0.007296
v 0.002707 0.003971 0.003697
v 0.007141 -0.008246 0.000795
v 0.003893 -0.008180 -0.000319
v 0.003971 -0.007335 0.001948
v 0.002561 -0.008894 -0.000323
v 0.001215 -0.003487 0.004466
v -0.000165 -0.008887 -0.005454
v 0.011780 -0.005850 -0.006441
v 0.010687 -0.002976 -0.007632
v 0.010219 -0.002305 -0.007881
v 0.001672 -0.001447 -0.006379
v 0.012988 -0.005311 -0.006771
v 0.004925 0.001717 -0.008064
v 0.000951 -0.001966 0.004687
v 0.002719 0.002560 -0.007161
v 0.002856 0.003610 -0.002038
v 0.000792 -0.000411 0.005412
v 0.001879 -0.008792 -0.002201
v 0.002104 -0.008768 -0.000733
v 0.000433 -0.005894 0.001319
v -0.000275 -0.007561 -0.003404
vn -0.6939 -0.6565 0.2958
vn -0.4696 -0.5989 -0.6487
vn -0.5913 -0.8063 0.0156
vn -0.5290 -0.6900 0.4940
vn -0.2508 -0.6760 -0.6929
vn -0.2358 -0.0775 0.9687
vn -0.1526 0.0698 0.9858
vn -0.3643 -0.5916 0.7193
vn -0.3396 -0.3768 0.8618
vn -0.4274 -0.2501 0.8688
vn -0.6550 -0.7158 -0.2420
vn 0.0389 0.1748 -0.9838
vn -0.4895 -0.6213 -0.6119
vn 0.1367 -0.9894 0.0498
vn -0.0101 -0.7958 0.6055
vn -0.2390 -0.8303 -0.5034
vn 0.0433 0.2177 0.9751
vn -0.3442 -0.6576 0.6701
vn -0.0930 -0.8249 -0.5575
vn 0.0105 -0.2436 -0.9698
vn 0.3428 -0.3945 0.8525
vn 0.4574 0.3608 0.8128
vn 0.0331 0.1777 0.9835
vn 0.2272 0.6082 0.7605
vn -0.2677 0.1657 0.9491
vn 0.4371 0.8328 0.3397
vn 0.4338 0.8774 -0.2047
vn 0.3944 0.6175 -0.6805
vn 0.7057 0.5159 -0.4856
vn 0.3619 -0.1646 -0.9176
vn -0.0049 -0.5519 -0.8339
vn 0.3590 0.5548 -0.7505
vn 0.2210 -0.9335 -0.2823
vn 0.6237 -0.6852 -0.3761
vn -0.0082 0.5374 0.8433
vn 0.3786 0.8210 0.4274
vn -0.0112 0.0310 0.9995
vn 0.4071 0.7315 0.5470
vn -0.2610 -0.8565 0.4453
vn 0.2040 -0.1287 -0.9705
vn 0.0328 -0.7602 -0.6488
vn 0.1453 -0.5383 -0.8301
vn 0.3950 0.4655 -0.7920
vn 0.8152 -0.3131 0.4873
vn 0.8950 0.4038 0.1899
vn 0.5466 0.7986 0.2518
vn 0.8584 -0.2091 -0.4684
vn 0.4353 0.8998 -0.0298
vn 0.3226 0.7988 0.5077
vn 0.0697 -0.0113 0.9975
vn -0.3486 -0.8735 0.3399
vn 0.3641 0.3401 -0.8670
vn -0.3710 -0.8749 -0.3114
vn -0.0814 -0.3355 -0.9385
vn 0.1077 -0.2321 -0.9667
vn 0.2778 -0.0309 -0.9601
vn 0.9843 -0.1658 0.0602
vn 0.4274 0.6355 -0.6430
vn -0.4103 0.8250 -0.3886
vn -0.2554 0.9665 0.0262
vn -0.1770 -0.0283 0.9838
vn -0.3831 0.8108 0.4426
vn -0.2961 -0.7302 0.6157
vn 0.1669 -0.9742 0.1517
vn -0.2692 -0.7225 0.6368
vn -0.1731 -0.9272 0.3322
vn -0.6269 -0.4636 0.6262
vn -0.7937 -0.4930 -0.3562
vn 0.0040 -0.2078 -0.9782
vn 0.4074 -0.0062 -0.9132
vn 0.3618 0.0970 -0.9272
vn -0.7669 0.1025 -0.6336
vn 0.1730 -0.1287 -0.9765
vn -0.0365 0.2360 -0.9711
vn -0.9397 -0.1000 0.3271
vn -0.7011 0.3185 -0.6380
vn -0.8907 0.4544 -0.0157
vn -0.8820 0.1355 0.4513
vn -0.1824 -0.9814 0.0607
vn -0.6458 -0.6490 0.4021
vn -0.7854 -0.4827 0.3875
vn -0.9592 -0.2365 0.1550
s 1
f 1//1 2//2 3//3
f 4//4 5//5 1//1
f 1//1 6//6 7//7
f 2//2 1//1 5//5
f 1//1 8//8 6//6
f 1//1 7//7 9//9
f 1//1 9//9 10//10
f 10//10 4//4 1//1
f 1//1 3//3 8//8
f 2//2 11//11 3//3
f 5//5 12//12 2//2
f 12//12 13//13 2//2
f 11//11 2//2 13//13
f 14//14 15//15 3//3
f 3//3 11//11 16//16
f 16//16 14//14 3//3
f 15//15 8//8 3//3
f 10//10 17//17 4//4
f 18//18 19//19 4//4
f 5//5 4//4 19//19
f 18//18 4//4 17//17
f 19//19 20//20 5//5
f 12//12 5//5 20//20
f 6//6 21//21 7//7
f 8//8 21//21 6//6
f 21//21 22//22 7//7
f 23//23 9//9 7//7
f 7//7 24//24 23//23
f 22//22 24//24 7//7
f 21//21 8//8 15//15
f 10//10 9//9 23//23
f 10//10 25//25 17//17
f 10//10 23//23 25//25
f 11//11 13//13 16//16
f 26//26 27//27 12//12
f 28//28 12//12 27//27
f 29//29 30//30 12//12
f 30//30 31//31 12//12
f 29//29 12//12 28//28
f 31//31 13//13 12//12
f 32//32 26//26 12//12
f 32//32 12//12 20//20
f 13//13 31//31 16//16
f 16//16 33//33 14//14
f 14//14 21//21 15//15
f 14//14 33//33 34//34
f 21//21 14//14 34//34
f 31//31 33//33 16//16
f 35//35 36//36 17//17
f 36//36 26//26 17//17
f 17//17 25//25 35//35
f 37//37 18//18 17//17
f 17//17 38//38 37//37
f 26//26 38//38 17//17
f 19//19 18//18 39//39
f 39//39 18//18 37//37
f 19//19 40//40 20//20
f 19//19 39//39 41//41
f 19//19 42//42 40//40
f 42//42 19//19 41//41
f 40//40 43//43 20//20
f 32//32 20//20 43//43
f 22//22 21//21 44//44
f 44//44 21//21 34//34
f 22//22 44//44 45//45
f 22//22 45//45 46//46
f 22//22 46//46 24//24
f 23//23 36//36 35//35
f 23//23 35//35 25//25
f 36//36 23//23 24//24
f 24//24 27//27 36//36
f 46//46 27//27 24//24
f 26//26 32//32 38//38
f 26//26 36//36 27//27
f 27//27 46//46 28//28
f 28//28 46//46 29//29
f 47//47 29//29 45//45
f 45//45 29//29 46//46
f 30//30 29//29 47//47
f 30//30 47//47 34//34
f 30//30 34//34 31//31
f 34//34 33//33 31//31
f 32//32 48//48 38//38
f 48//48 32//32 43//43
f 44//44 34//34 47//47
f 49//49 50//50 37//37
f 49//49 37//37 38//38
f 39//39 37//37 50//50
f 48//48 49//49 38//38
f 51//51 41//41 39//39
f 39//39 50//50 51//51
f 40//40 52//52 43//43
f 52//52 40//40 42//42
f 51//51 53//53 41//41
f 53//53 54//54 41//41
f 41//41 54//54 55//55
f 56//56 41//41 55//55
f 41//41 56//56 42//42
f 52//52 42//42 56//56
f 43//43 52//52 48//48
f 57//57 45//45 44//44
f 44//44 47//47 57//57
f 47//47 45//45 57//57
f 48//48 52//52 58//58
f 48//48 59//59 60//60
f 59//59 48//48 58//58
f 49//49 48//48 60//60
f 50//50 49//49 61//61
f 62//62 49//49 60//60
f 49//49 62//62 61//61
f 63//63 50//50 64//64
f 50//50 65//65 66//66
f 50//50 66//66 64//64
f 65//65 50//50 67//67
f 50//50 61//61 67//67
f 50//50 63//63 51//51
f 63//63 53//53 51//51
f 56//56 58//58 52//52
f 54//54 53//53 68//68
f 63//63 68//68 53//53
f 55//55 54//54 69//69
f 69//69 54//54 70//70
f 71//71 70//70 54//54
f 54//54 72//72 71//71
f 54//54 68//68 72//72
f 73//73 55//55 69//69
f 73//73 56//56 55//55
f 56//56 73//73 58//58
f 71//71 74//74 58//58
f 58//58 70//70 71//71
f 58//58 73//73 70//70
f 59//59 58//58 74//74
f 72//72 75//75 59//59
f 72//72 59//59 76//76
f 59//59 75//75 77//77
f 76//76 59//59 74//74
f 59//59 77//77 60//60
f 60//60 77//77 62//62
f 75//75 61//61 78//78
f 61//61 62//62 78//78
f 67//67 61//61 75//75
f 62//62 77//77 78//78
f 63//63 79//79 68//68
f 79//79 63//63 64//64
f 66//66 79//79 64//64
f 65//65 80//80 66//66
f 67//67 81//81 65//65
f 81//81 82//82 65//65
f 65//65 82//82 80//80
f 79//79 66//66 80//80
f 81//81 67//67 75//75
f 79//79 82//82 68//68
f 72//72 68//68 82//82
f 70//70 73//73 69//69
f 72//72 74//74 71//71
f 82//82 75//75 72//72
f 76//76 74//74 72//72
f 75//75 82//82 81//81
f 75//75 78//78 77//77
f 79//79 80//80 82//82
