# Blender 4.0.2
# www.blender.org
mtllib radius_r.mtl
o radius_r.002
v -0.000663 0.001141 -0.007926
v -0.000244 0.000079 -0.000571
v 0.005261 0.001284 -0.006012
v 0.007840 0.002032 0.000350
v 0.006718 0.002672 0.005658
v 0.001144 0.002726 0.008383
v -0.003573 0.002622 0.007855
v -0.006591 0.001676 0.001405
v -0.005168 0.001347 -0.004521
v 0.028093 -0.233968 0.018620
v 0.023393 -0.233290 0.019433
v 0.029714 -0.233105 0.021773
v 0.033467 -0.235151 0.018757
v 0.038205 -0.237979 0.020779
v 0.034594 -0.235234 0.023780
v 0.040291 -0.240193 0.022155
v 0.035704 -0.236222 0.025006
v 0.041017 -0.243321 0.024656
v 0.036150 -0.237155 0.026469
v 0.039330 -0.240556 0.027555
v 0.034481 -0.235797 0.027891
v 0.034971 -0.236156 0.029891
v 0.031760 -0.234680 0.028743
v 0.027894 -0.235222 0.032002
v 0.027440 -0.233126 0.028645
v 0.019586 -0.233691 0.031417
v 0.022915 -0.232759 0.027914
v 0.016192 -0.234882 0.032185
v 0.020431 -0.231751 0.026464
v 0.014360 -0.233941 0.031942
v 0.019514 -0.231326 0.024855
v 0.014858 -0.230073 0.026205
v 0.018471 -0.230653 0.023551
v 0.010637 -0.231829 0.017125
v 0.018834 -0.231011 0.020944
v 0.017850 -0.232712 0.014670
v 0.021822 -0.231775 0.019785
v 0.022629 -0.234024 0.014434
v 0.028289 -0.233981 0.018580
v 0.026079 -0.232086 0.024685
v 0.034446 -0.224354 0.018235
v 0.028805 -0.229946 0.014878
v 0.027040 -0.223482 0.018260
v 0.035983 -0.229632 0.015372
v 0.041934 -0.223399 0.017552
v 0.042146 -0.228180 0.016557
v 0.045851 -0.228803 0.025837
v 0.042845 -0.223983 0.028657
v 0.039408 -0.229758 0.030622
v 0.038139 -0.223831 0.031597
v 0.032099 -0.230394 0.036068
v 0.030868 -0.223377 0.036898
v 0.026937 -0.229893 0.036177
v 0.024740 -0.223255 0.035406
v 0.017606 -0.229293 0.034381
v 0.014135 -0.223544 0.032653
v 0.013133 -0.228605 0.033805
v 0.014730 -0.227596 0.025821
v 0.014694 -0.222788 0.020183
v 0.011605 -0.228538 0.017849
v 0.020968 -0.223103 0.017960
v 0.016929 -0.229573 0.012210
v 0.028020 -0.223575 0.018578
v 0.035421 -0.219414 0.019987
v 0.027097 -0.220445 0.019106
v 0.040370 -0.217749 0.020168
v 0.039654 -0.216901 0.026395
v 0.033374 -0.218023 0.033021
v 0.027222 -0.218636 0.035127
v 0.019930 -0.218398 0.031912
v 0.016275 -0.217636 0.029814
v 0.016353 -0.217727 0.020745
v 0.027943 -0.219908 0.019580
v 0.032726 -0.207778 0.020245
v 0.027523 -0.208334 0.019979
v 0.038454 -0.207336 0.023605
v 0.035626 -0.205968 0.027848
v 0.032421 -0.206082 0.030707
v 0.025938 -0.207635 0.032486
v 0.019137 -0.208329 0.028458
v 0.018373 -0.208316 0.022233
v 0.028520 -0.208515 0.020408
v 0.026374 -0.184039 0.017921
v 0.031901 -0.183774 0.018359
v 0.034822 -0.183559 0.023066
v 0.032605 -0.183150 0.027092
v 0.029285 -0.181391 0.028816
v 0.021235 -0.183477 0.024609
v 0.018803 -0.183304 0.020676
v 0.022082 -0.183472 0.018763
v 0.027223 -0.183985 0.018557
v 0.031772 -0.166010 0.016793
v 0.025787 -0.166353 0.015638
v 0.025302 -0.139253 0.017960
v 0.031056 -0.139099 0.015552
v 0.033567 -0.165754 0.019984
v 0.031757 -0.138656 0.018335
v 0.031077 -0.167226 0.025744
v 0.029234 -0.138535 0.025448
v 0.025359 -0.165510 0.027262
v 0.024697 -0.139179 0.025464
v 0.021127 -0.165702 0.023140
v 0.019354 -0.140294 0.021693
v 0.020140 -0.165764 0.019341
v 0.016873 -0.140179 0.016542
v 0.023132 -0.166298 0.017638
v 0.020827 -0.139236 0.015584
v 0.026481 -0.165812 0.016865
v 0.022498 -0.115268 0.011420
v 0.028189 -0.114538 0.013517
v 0.027161 -0.113552 0.019175
v 0.024123 -0.113602 0.023329
v 0.023047 -0.114117 0.023725
v 0.017034 -0.115662 0.018812
v 0.013148 -0.116584 0.014604
v 0.017488 -0.115600 0.012528
v 0.022738 -0.087151 0.008487
v 0.018698 -0.088365 0.006614
v 0.013947 -0.073959 0.003978
v 0.017871 -0.071537 0.005416
v 0.024102 -0.086640 0.013489
v 0.018484 -0.071250 0.010812
v 0.020914 -0.086554 0.017864
v 0.014718 -0.071249 0.014394
v 0.018983 -0.086771 0.017993
v 0.013854 -0.070830 0.015041
v 0.013342 -0.087976 0.017284
v 0.006855 -0.071939 0.013166
v 0.007002 -0.091231 0.010799
v 0.004052 -0.073763 0.008531
v 0.013518 -0.088819 0.009421
v 0.008958 -0.073410 0.006413
v 0.018809 -0.088106 0.007073
v 0.014160 -0.058272 0.003216
v 0.009604 -0.060699 0.001192
v 0.004515 -0.046906 0.002381
v 0.010470 -0.046028 0.000932
v 0.015937 -0.056609 0.007883
v 0.012891 -0.044431 0.005265
v 0.012696 -0.056393 0.012460
v 0.007681 -0.044072 0.011170
v 0.007434 -0.057634 0.013116
v 0.003132 -0.045595 0.011400
v 0.002616 -0.060151 0.010335
v -0.000303 -0.046186 0.008291
v 0.002474 -0.060677 0.006311
v -0.001627 -0.047961 0.001378
v 0.006860 -0.060889 0.002829
v 0.000945 -0.046449 -0.001005
v 0.010013 -0.060810 0.001222
v 0.004012 -0.041539 -0.003505
v 0.009608 -0.039884 -0.000164
v 0.011568 -0.038498 0.003984
v 0.007630 -0.037800 0.010502
v 0.000313 -0.039747 0.009830
v -0.002147 -0.040081 0.007409
v -0.004257 -0.041036 0.001900
v 0.007661 -0.034872 -0.001713
v 0.004524 -0.035997 -0.004201
v 0.003786 -0.029199 -0.004890
v 0.007679 -0.026463 -0.000704
v 0.010443 -0.032773 0.004231
v 0.008188 -0.025203 0.004387
v 0.005397 -0.033317 0.010214
v 0.003468 -0.024579 0.008609
v -0.000663 -0.034126 0.009338
v -0.002414 -0.025895 0.007759
v -0.003614 -0.035429 0.006318
v -0.004952 -0.027661 0.004399
v -0.005162 -0.037697 0.000956
v -0.005797 -0.029058 -0.000294
v 0.000914 -0.037639 -0.003846
v 0.000425 -0.029366 -0.004772
v 0.004481 -0.035571 -0.004039
v 0.003688 -0.029193 -0.004870
v 0.005889 -0.011244 -0.002114
v 0.000878 -0.012617 -0.004688
v -0.001318 -0.005181 -0.002705
v 0.007687 -0.004630 -0.007334
v 0.006486 -0.009869 0.003870
v 0.009805 -0.003641 -0.000804
v 0.003388 -0.010406 0.007377
v 0.006226 -0.002120 0.008214
v -0.001800 -0.009566 0.007759
v 0.000228 -0.001737 0.010266
v -0.004740 -0.010736 0.005749
v -0.003523 -0.002781 0.009753
v -0.005664 -0.011213 0.001885
v -0.008682 -0.005329 0.002825
v -0.003800 -0.011508 -0.002903
v -0.006452 -0.006752 -0.005815
v 0.001017 -0.012016 -0.004689
v 0.006693 -0.020556 -0.001332
v 0.001959 -0.022311 -0.004432
v 0.006810 -0.019403 0.004370
v 0.003803 -0.018980 0.007532
v -0.001246 -0.019737 0.008083
v -0.003758 -0.020555 0.006557
v -0.004921 -0.020889 0.004477
v -0.003768 -0.021220 -0.000774
v 0.002339 -0.022182 -0.004117
v 0.007116 0.000199 -0.007611
v -0.000602 -0.000110 -0.009741
v 0.010043 0.000726 0.002515
v 0.008167 0.002207 0.007880
v 0.001660 0.002445 0.010986
v -0.009110 0.000781 0.002362
v -0.006925 0.000269 -0.006279
v -0.000626 -0.000221 -0.009825
v -0.000429 0.001054 -0.007759
vn 0.0750 0.9808 -0.1802
vn 0.0063 0.9979 -0.0650
vn 0.1227 0.9733 -0.1942
vn 0.3259 0.9185 -0.2240
vn 0.1019 0.9931 -0.0583
vn -0.0164 0.9985 -0.0523
vn -0.4501 0.8075 0.3812
vn -0.1428 0.9845 -0.1015
vn -0.1147 0.9832 -0.1420
vn -0.4033 -0.8870 -0.2249
vn -0.2637 -0.3522 -0.8980
vn -0.3911 -0.9069 0.1568
vn -0.2139 -0.7791 -0.5892
vn -0.3371 -0.7780 -0.5302
vn -0.4632 -0.8511 0.2471
vn -0.1259 -0.6888 -0.7140
vn -0.7193 -0.6869 -0.1040
vn -0.2226 -0.9660 -0.1318
vn -0.7485 -0.6536 -0.1118
vn -0.2329 -0.7716 0.5919
vn -0.5713 -0.8199 -0.0385
vn -0.4790 -0.8439 0.2418
vn -0.2846 -0.8775 -0.3859
vn -0.1432 -0.9891 0.0352
vn -0.1744 -0.8673 -0.4663
vn 0.1896 -0.9396 0.2850
vn -0.0128 -0.9396 -0.3421
vn -0.1707 -0.9828 -0.0712
vn -0.0026 -0.9106 -0.4133
vn -0.6041 -0.7892 -0.1105
vn -0.1923 -0.9171 -0.3492
vn -0.6362 -0.7626 -0.1169
vn -0.1299 -0.9915 0.0082
vn -0.5647 -0.8166 -0.1199
vn -0.0340 -0.9761 0.2144
vn -0.2660 -0.9532 -0.1437
vn -0.3411 -0.8967 0.2822
vn -0.0901 -0.9668 -0.2392
vn 0.6932 -0.5576 0.4567
vn -0.2501 -0.9658 -0.0688
vn -0.0306 0.4110 -0.9111
vn 0.2195 -0.0570 -0.9739
vn 0.0554 0.3692 -0.9277
vn 0.0766 -0.0903 -0.9930
vn 0.5724 0.4222 -0.7029
vn 0.6095 -0.0888 -0.7878
vn 0.9761 -0.0106 0.2172
vn 0.8016 0.2896 0.5230
vn 0.5977 -0.1380 0.7897
vn 0.5573 0.1165 0.8221
vn 0.2472 -0.3703 0.8954
vn 0.2102 0.1667 0.9633
vn -0.1133 -0.3425 0.9327
vn -0.2599 0.1682 0.9509
vn -0.1428 -0.1764 0.9739
vn -0.7744 0.3096 0.5517
vn -0.7925 -0.0181 0.6097
vn -0.9973 0.0255 0.0689
vn -0.7924 0.3939 -0.4658
vn -0.8684 0.3888 -0.3079
vn -0.0777 0.5216 -0.8497
vn -0.3663 0.0569 -0.9288
vn 0.1385 0.4237 -0.8952
vn 0.0365 0.2500 -0.9676
vn 0.0762 0.1715 -0.9822
vn 0.6623 0.4321 -0.6121
vn 0.8684 0.3629 0.3380
vn 0.4912 0.2985 0.8183
vn -0.0931 0.2751 0.9569
vn -0.3719 0.3224 0.8705
vn -0.8028 0.3877 0.4529
vn -0.7053 0.3151 -0.6350
vn -0.0030 0.2258 -0.9742
vn 0.2806 0.0139 -0.9597
vn 0.0512 -0.0009 -0.9987
vn 0.9822 0.0787 -0.1708
vn 0.7720 0.1448 0.6189
vn 0.4615 0.1635 0.8720
vn -0.1737 0.2071 0.9628
vn -0.8026 0.2208 0.5542
vn -0.7977 0.1351 -0.5877
vn -0.1427 0.0118 -0.9897
vn 0.0818 -0.1005 -0.9916
vn 0.5079 -0.0409 -0.8604
vn 0.9942 0.1072 -0.0083
vn 0.7192 0.1350 0.6815
vn 0.0512 0.1154 0.9920
vn -0.6949 0.1020 0.7119
vn -0.9646 0.0366 -0.2611
vn -0.2845 -0.0570 -0.9570
vn -0.0569 -0.0730 -0.9957
vn 0.5663 -0.0108 -0.8241
vn 0.1789 -0.0043 -0.9838
vn 0.0397 -0.0934 -0.9948
vn 0.4885 -0.0609 -0.8704
vn 0.9975 0.0495 -0.0507
vn 0.9940 0.0985 0.0481
vn 0.6633 0.1166 0.7393
vn 0.5801 0.1147 0.8064
vn -0.2605 0.0620 0.9635
vn -0.3066 0.0475 0.9507
vn -0.8547 0.0307 0.5181
vn -0.7661 -0.0193 0.6424
vn -0.9227 -0.0527 -0.3820
vn -0.8961 -0.1260 -0.4255
vn -0.3415 -0.0894 -0.9356
vn 0.1249 -0.0592 -0.9904
vn -0.1728 -0.0876 -0.9811
vn 0.0483 -0.1628 -0.9855
vn 0.8655 0.0821 -0.4941
vn 0.9082 0.2043 0.3654
vn 0.5395 0.1987 0.8182
vn -0.1862 0.1060 0.9768
vn -0.6811 -0.0060 0.7322
vn -0.9592 -0.2201 -0.1777
vn -0.2647 -0.1978 -0.9438
vn 0.7727 0.0627 -0.6316
vn 0.2414 -0.1124 -0.9639
vn -0.0402 -0.2174 -0.9753
vn 0.7743 0.1211 -0.6211
vn 0.9585 0.2390 0.1556
vn 0.8928 0.3363 0.2998
vn 0.4692 0.2864 0.8354
vn 0.6557 0.3007 0.6926
vn -0.0639 0.1620 0.9847
vn 0.2132 0.1840 0.9595
vn -0.4230 0.0124 0.9061
vn -0.5909 -0.0291 0.8062
vn -0.9276 -0.2370 -0.2888
vn -0.9198 -0.2540 -0.2989
vn -0.2709 -0.1996 -0.9417
vn -0.4162 -0.2854 -0.8633
vn -0.9778 -0.1958 0.0751
vn 0.6775 0.1070 -0.7277
vn 0.9385 0.1457 0.3131
vn 0.3460 -0.2566 -0.9025
vn 0.5062 -0.1843 -0.8425
vn 0.9707 0.2222 0.0918
vn 0.9674 0.2442 0.0672
vn 0.5072 0.2336 0.8296
vn 0.3942 0.2013 0.8967
vn -0.2090 0.0730 0.9752
vn -0.3466 0.0482 0.9368
vn -0.8438 -0.0969 0.5279
vn -0.8453 -0.1595 0.5099
vn -0.8842 -0.2986 -0.3593
vn -0.8636 -0.3453 -0.3673
vn -0.4977 -0.3635 -0.7875
vn -0.1546 -0.3013 -0.9409
vn -0.8537 -0.4249 0.3011
vn 0.0643 -0.3473 -0.9355
vn 0.7489 0.0326 -0.6619
vn 0.9826 0.1856 0.0073
vn 0.4779 0.1658 0.8626
vn -0.4602 0.0042 0.8878
vn -0.8182 -0.1679 0.5498
vn -0.9230 -0.3296 -0.1984
vn 0.7555 0.0631 -0.6521
vn 0.5988 -0.0537 -0.7991
vn 0.6655 0.1210 -0.7365
vn 0.8566 0.1508 -0.4935
vn 0.9686 0.2212 0.1138
vn 0.9152 0.2450 0.3198
vn 0.2821 0.2102 0.9361
vn 0.2452 0.2084 0.9468
vn -0.4488 0.0385 0.8928
vn -0.5526 0.1020 0.8272
vn -0.8485 -0.0843 0.5224
vn -0.9274 0.0353 0.3723
vn -0.9244 -0.2443 -0.2929
vn -0.8920 0.1292 -0.4333
vn -0.3550 -0.2547 -0.8995
vn -0.3117 0.1182 -0.9428
vn 0.0011 -0.1068 -0.9943
vn -0.1234 0.0557 -0.9908
vn 0.7781 -0.1493 -0.6101
vn 0.4351 0.1547 -0.8870
vn 0.0819 -0.2585 -0.9625
vn 0.5344 -0.4192 -0.7339
vn 0.9177 -0.0233 0.3965
vn 0.9729 -0.2282 -0.0370
vn 0.4429 -0.0542 0.8949
vn 0.6014 -0.2677 0.7528
vn -0.2620 -0.0947 0.9604
vn 0.1051 -0.2607 0.9597
vn -0.8398 -0.0277 0.5422
vn -0.4847 -0.1323 0.8646
vn -0.9767 -0.2138 -0.0165
vn -0.9306 -0.2588 0.2590
vn -0.6907 -0.3979 -0.6038
vn -0.4692 -0.2533 -0.8460
vn -0.2006 -0.1149 -0.9729
vn 0.8479 0.0833 -0.5236
vn 0.5719 0.0788 -0.8165
vn 0.9243 0.1278 0.3596
vn 0.4369 0.0616 0.8974
vn -0.2122 -0.0316 0.9767
vn -0.6927 -0.0956 0.7148
vn -0.9768 -0.1174 0.1790
vn -0.8277 -0.2120 -0.5196
vn -0.4702 -0.0652 -0.8801
vn 0.5803 0.4934 -0.6479
vn 0.0061 0.1037 -0.9946
vn 0.9491 0.3010 0.0932
vn 0.6882 0.4693 0.5532
vn 0.0926 0.5286 0.8438
vn -0.8695 0.4619 0.1748
vn -0.6321 0.3413 -0.6957
vn -0.5110 0.1253 -0.8504
vn -0.2799 0.8287 -0.4847
s 1
f 1//1 2//2 3//3
f 3//3 2//2 4//4
f 4//4 2//2 5//5
f 5//5 2//2 6//6
f 6//6 2//2 7//7
f 7//7 2//2 8//8
f 8//8 2//2 9//9
f 9//9 2//2 1//1
f 10//10 12//11 11//12
f 10//10 13//13 12//11
f 13//13 11//12 12//11
f 13//13 14//14 11//12
f 14//14 15//15 11//12
f 14//14 16//16 15//15
f 16//16 17//17 15//15
f 16//16 18//18 17//17
f 18//18 19//19 17//17
f 18//18 20//20 19//19
f 20//20 21//21 19//19
f 20//20 22//22 21//21
f 22//22 23//23 21//21
f 22//22 24//24 23//23
f 24//24 25//25 23//23
f 24//24 26//26 25//25
f 26//26 27//27 25//25
f 26//26 28//28 27//27
f 28//28 29//29 27//27
f 28//28 30//30 29//29
f 30//30 31//31 29//29
f 30//30 32//32 31//31
f 32//32 33//33 31//31
f 32//32 34//34 33//33
f 34//34 35//35 33//33
f 34//34 36//36 35//35
f 36//36 37//37 35//35
f 36//36 38//38 37//37
f 38//38 11//12 37//37
f 38//38 39//39 11//12
f 10//10 13//13 40//40
f 13//13 14//14 40//40
f 14//14 16//16 40//40
f 16//16 18//18 40//40
f 18//18 20//20 40//40
f 20//20 22//22 40//40
f 22//22 24//24 40//40
f 24//24 26//26 40//40
f 26//26 28//28 40//40
f 28//28 30//30 40//40
f 30//30 32//32 40//40
f 32//32 34//34 40//40
f 34//34 36//36 40//40
f 36//36 38//38 40//40
f 38//38 39//39 40//40
f 41//41 42//42 43//43
f 41//41 44//44 42//42
f 45//45 44//44 41//41
f 45//45 46//46 44//44
f 45//45 47//47 46//46
f 48//48 47//47 45//45
f 48//48 49//49 47//47
f 50//50 49//49 48//48
f 50//50 51//51 49//49
f 52//52 51//51 50//50
f 52//52 53//53 51//51
f 54//54 53//53 52//52
f 54//54 55//55 53//53
f 56//56 55//55 54//54
f 56//56 57//57 55//55
f 56//56 58//58 57//57
f 59//59 58//58 56//56
f 59//59 60//60 58//58
f 61//61 60//60 59//59
f 61//61 62//62 60//60
f 63//63 62//62 61//61
f 63//63 42//42 62//62
f 44//44 10//10 42//42
f 44//44 13//13 10//10
f 44//44 14//14 13//13
f 46//46 14//14 44//44
f 46//46 16//16 14//14
f 47//47 16//16 46//46
f 47//47 18//18 16//16
f 49//49 18//18 47//47
f 49//49 20//20 18//18
f 51//51 20//20 49//49
f 51//51 22//22 20//20
f 53//53 22//22 51//51
f 53//53 24//24 22//22
f 53//53 26//26 24//24
f 55//55 26//26 53//53
f 55//55 28//28 26//26
f 57//57 28//28 55//55
f 57//57 30//30 28//28
f 58//58 30//30 57//57
f 58//58 32//32 30//30
f 60//60 32//32 58//58
f 60//60 34//34 32//32
f 60//60 36//36 34//34
f 62//62 36//36 60//60
f 62//62 38//38 36//36
f 42//42 38//38 62//62
f 42//42 39//39 38//38
f 64//64 43//43 65//65
f 64//64 41//41 43//43
f 66//66 41//41 64//64
f 66//66 45//45 41//41
f 67//67 45//45 66//66
f 67//67 48//48 45//45
f 68//68 48//48 67//67
f 68//68 50//50 48//48
f 68//68 52//52 50//50
f 69//69 52//52 68//68
f 69//69 54//54 52//52
f 70//70 54//54 69//69
f 70//70 56//56 54//54
f 71//71 56//56 70//70
f 71//71 59//59 56//56
f 72//72 59//59 71//71
f 72//72 61//61 59//59
f 73//73 61//61 72//72
f 73//73 63//63 61//61
f 74//74 65//65 75//75
f 74//74 64//64 65//65
f 76//76 64//64 74//74
f 76//76 66//66 64//64
f 77//77 66//66 76//76
f 77//77 67//67 66//66
f 77//77 68//68 67//67
f 78//78 68//68 77//77
f 78//78 69//69 68//68
f 79//79 69//69 78//78
f 79//79 70//70 69//69
f 80//80 70//70 79//79
f 80//80 71//71 70//70
f 81//81 71//71 80//80
f 81//81 72//72 71//71
f 82//82 72//72 81//81
f 82//82 73//73 72//72
f 74//74 75//75 83//83
f 84//84 74//74 83//83
f 76//76 74//74 84//84
f 85//85 76//76 84//84
f 77//77 76//76 85//85
f 86//86 77//77 85//85
f 78//78 77//77 86//86
f 87//87 78//78 86//86
f 79//79 78//78 87//87
f 88//88 79//79 87//87
f 80//80 79//79 88//88
f 89//89 80//80 88//88
f 81//81 80//80 89//89
f 90//90 81//81 89//89
f 82//82 81//81 90//90
f 91//91 82//82 90//90
f 92//92 93//93 94//94
f 95//95 92//92 94//94
f 96//96 92//92 95//95
f 97//97 96//96 95//95
f 98//98 96//96 97//97
f 99//99 98//98 97//97
f 100//100 98//98 99//99
f 101//101 100//100 99//99
f 102//102 100//100 101//101
f 103//103 102//102 101//101
f 104//104 102//102 103//103
f 105//105 104//104 103//103
f 106//106 104//104 105//105
f 107//107 106//106 105//105
f 108//108 106//106 107//107
f 94//94 108//108 107//107
f 84//84 83//83 93//93
f 92//92 84//84 93//93
f 85//85 84//84 92//92
f 96//96 85//85 92//92
f 86//86 85//85 96//96
f 98//98 86//86 96//96
f 87//87 86//86 98//98
f 100//100 87//87 98//98
f 88//88 87//87 100//100
f 102//102 88//88 100//100
f 89//89 88//88 102//102
f 104//104 89//89 102//102
f 90//90 89//89 104//104
f 106//106 90//90 104//104
f 91//91 90//90 106//106
f 108//108 91//91 106//106
f 95//95 94//94 109//109
f 110//110 95//95 109//109
f 97//97 95//95 110//110
f 111//111 97//97 110//110
f 99//99 97//97 111//111
f 112//112 99//99 111//111
f 101//101 99//99 112//112
f 113//113 101//101 112//112
f 103//103 101//101 113//113
f 114//114 103//103 113//113
f 105//105 103//103 114//114
f 115//115 105//105 114//114
f 107//107 105//105 115//115
f 116//116 107//107 115//115
f 94//94 107//107 116//116
f 109//109 94//94 116//116
f 117//117 118//118 119//119
f 120//120 117//117 119//119
f 121//121 117//117 120//120
f 122//122 121//121 120//120
f 123//123 121//121 122//122
f 124//124 123//123 122//122
f 125//125 123//123 124//124
f 126//126 125//125 124//124
f 127//127 125//125 126//126
f 128//128 127//127 126//126
f 129//129 127//127 128//128
f 130//130 129//129 128//128
f 131//131 129//129 130//130
f 132//132 131//131 130//130
f 133//133 131//131 132//132
f 119//119 133//133 132//132
f 110//110 109//109 118//118
f 117//117 110//110 118//118
f 111//111 110//110 117//117
f 121//121 111//111 117//117
f 112//112 111//111 121//121
f 123//123 112//112 121//121
f 113//113 112//112 123//123
f 125//125 113//113 123//123
f 114//114 113//113 125//125
f 127//127 114//114 125//125
f 115//115 114//114 127//127
f 129//129 115//115 127//127
f 116//116 115//115 129//129
f 131//131 116//116 129//129
f 109//109 116//116 131//131
f 133//133 109//109 131//131
f 134//134 135//135 136//136
f 137//137 134//134 136//136
f 138//138 134//134 137//137
f 139//139 138//138 137//137
f 140//140 138//138 139//139
f 141//141 140//140 139//139
f 142//142 140//140 141//141
f 143//143 142//142 141//141
f 144//144 142//142 143//143
f 145//145 144//144 143//143
f 146//146 144//144 145//145
f 147//147 146//146 145//145
f 148//148 146//146 147//147
f 149//149 148//148 147//147
f 150//150 148//148 149//149
f 136//136 150//150 149//149
f 120//120 119//119 135//135
f 134//134 120//120 135//135
f 122//122 120//120 134//134
f 138//138 122//122 134//134
f 124//124 122//122 138//138
f 140//140 124//124 138//138
f 126//126 124//124 140//140
f 142//142 126//126 140//140
f 128//128 126//126 142//142
f 144//144 128//128 142//142
f 130//130 128//128 144//144
f 146//146 130//130 144//144
f 132//132 130//130 146//146
f 148//148 132//132 146//146
f 119//119 132//132 148//148
f 150//150 119//119 148//148
f 137//137 136//136 151//151
f 152//152 137//137 151//151
f 139//139 137//137 152//152
f 153//153 139//139 152//152
f 141//141 139//139 153//153
f 154//154 141//141 153//153
f 143//143 141//141 154//154
f 155//155 143//143 154//154
f 145//145 143//143 155//155
f 156//156 145//145 155//155
f 147//147 145//145 156//156
f 157//157 147//147 156//156
f 149//149 147//147 157//157
f 151//151 149//149 157//157
f 136//136 149//149 151//151
f 158//158 159//159 160//160
f 161//161 158//158 160//160
f 162//162 158//158 161//161
f 163//163 162//162 161//161
f 164//164 162//162 163//163
f 165//165 164//164 163//163
f 166//166 164//164 165//165
f 167//167 166//166 165//165
f 168//168 166//166 167//167
f 169//169 168//168 167//167
f 170//170 168//168 169//169
f 171//171 170//170 169//169
f 172//172 170//170 171//171
f 173//173 172//172 171//171
f 174//174 172//172 173//173
f 175//175 174//174 173//173
f 152//152 151//151 159//159
f 158//158 152//152 159//159
f 153//153 152//152 158//158
f 162//162 153//153 158//158
f 154//154 153//153 162//162
f 164//164 154//154 162//162
f 155//155 154//154 164//164
f 166//166 155//155 164//164
f 156//156 155//155 166//166
f 168//168 156//156 166//166
f 157//157 156//156 168//168
f 170//170 157//157 168//168
f 151//151 157//157 170//170
f 172//172 151//151 170//170
f 174//174 151//151 172//172
f 176//176 177//177 178//178
f 179//179 176//176 178//178
f 180//180 176//176 179//179
f 181//181 180//180 179//179
f 182//182 180//180 181//181
f 183//183 182//182 181//181
f 184//184 182//182 183//183
f 185//185 184//184 183//183
f 186//186 184//184 185//185
f 187//187 186//186 185//185
f 188//188 186//186 187//187
f 189//189 188//188 187//187
f 190//190 188//188 189//189
f 191//191 190//190 189//189
f 192//192 190//190 191//191
f 178//178 192//192 191//191
f 193//193 194//194 177//177
f 176//176 193//193 177//177
f 195//195 193//193 176//176
f 180//180 195//195 176//176
f 196//196 195//195 180//180
f 182//182 196//196 180//180
f 197//197 196//196 182//182
f 184//184 197//197 182//182
f 198//198 197//197 184//184
f 186//186 198//198 184//184
f 199//199 198//198 186//186
f 188//188 199//199 186//186
f 200//200 199//199 188//188
f 190//190 200//200 188//188
f 201//201 200//200 190//190
f 192//192 201//201 190//190
f 161//161 160//160 194//194
f 193//193 161//161 194//194
f 163//163 161//161 193//193
f 195//195 163//163 193//193
f 165//165 163//163 195//195
f 196//196 165//165 195//195
f 167//167 165//165 196//196
f 197//197 167//167 196//196
f 169//169 167//167 197//197
f 198//198 169//169 197//197
f 171//171 169//169 198//198
f 199//199 171//171 198//198
f 173//173 171//171 199//199
f 200//200 173//173 199//199
f 175//175 173//173 200//200
f 201//201 175//175 200//200
f 202//202 203//203 1//1
f 3//3 202//202 1//1
f 204//204 202//202 3//3
f 4//4 204//204 3//3
f 205//205 204//204 4//4
f 5//5 205//205 4//4
f 206//206 205//205 5//5
f 6//6 206//206 5//5
f 7//7 206//206 6//6
f 8//8 207//207 7//7
f 208//208 207//207 8//8
f 9//9 208//208 8//8
f 209//209 208//208 9//9
f 210//210 209//209 9//9
f 179//179 178//178 203//203
f 202//202 179//179 203//203
f 181//181 179//179 202//202
f 204//204 181//181 202//202
f 183//183 181//181 204//204
f 205//205 183//183 204//204
f 185//185 183//183 205//205
f 206//206 185//185 205//205
f 187//187 185//185 206//206
f 7//7 187//187 206//206
f 189//189 187//187 7//7
f 207//207 189//189 7//7
f 191//191 189//189 207//207
f 208//208 191//191 207//207
f 178//178 191//191 208//208
f 209//209 178//178 208//208
f 150//150 136//136 135//135
f 135//135 119//119 150//150
f 119//119 118//118 109//109
f 109//109 133//133 119//119
f 42//42 11//12 39//39
f 42//42 10//10 11//12
f 42//42 40//40 39//39
f 42//42 10//10 40//40
