# Blender 4.0.2
# www.blender.org
mtllib rib10_r.mtl
o rib10_r.002
v 0.061493 -0.120642 0.094610
v 0.062333 -0.117982 0.095081
v 0.061561 -0.122678 0.095013
v 0.062111 -0.120986 0.094975
v 0.061877 -0.125139 0.096569
v 0.062336 -0.125080 0.096613
v 0.062791 -0.125476 0.097792
v 0.063225 -0.124935 0.098978
v 0.064867 -0.113546 0.097694
v 0.066111 -0.110723 0.100246
v 0.058881 -0.123882 0.098193
v 0.064656 -0.121580 0.100352
v 0.058034 -0.122824 0.100060
v 0.063562 -0.122137 0.101592
v 0.065423 -0.120134 0.102363
v 0.066911 -0.117444 0.103251
v 0.066905 -0.110386 0.101671
v 0.068137 -0.112131 0.102884
v 0.067526 -0.111757 0.103509
v 0.068117 -0.113579 0.103947
v 0.066908 -0.116663 0.103849
v 0.055861 -0.117428 0.096242
v 0.056317 -0.120183 0.096688
v 0.053322 -0.114545 0.097180
v 0.058774 -0.109406 0.099962
v 0.061024 -0.108313 0.105183
v 0.061651 -0.109972 0.105700
v 0.063024 -0.115418 0.105363
v 0.064173 -0.113596 0.105418
v 0.053246 -0.119904 0.101171
v 0.004094 -0.000759 0.000092
v 0.004845 0.002435 0.000203
v 0.005045 -0.001753 0.001819
v 0.005301 -0.000016 0.001619
v 0.004309 -0.002767 0.001329
v 0.056927 -0.105322 0.102927
v 0.056285 -0.104701 0.103760
v 0.053820 -0.116866 0.103288
v 0.057714 -0.113266 0.106014
v 0.003499 0.001115 -0.000365
v 0.004960 0.003747 0.001061
v 0.001314 -0.001743 -0.000167
v 0.001830 -0.003410 0.000904
v 0.004928 0.002257 0.002501
v 0.002902 -0.004511 0.002417
v 0.001817 -0.004905 0.002405
v 0.004303 -0.003178 0.002207
v 0.044350 -0.113619 0.099324
v 0.048627 -0.117579 0.100182
v 0.057945 -0.111744 0.106366
v 0.002071 0.007764 0.000126
v 0.000019 0.006691 -0.000465
v 0.003436 0.008127 0.001271
v -0.002281 -0.002824 0.001775
v 0.048966 -0.105507 0.100168
v 0.048514 -0.117398 0.101790
v 0.003852 0.007575 0.001993
v -0.004333 -0.000472 0.001661
v 0.003646 0.005551 0.003506
v -0.001751 -0.004780 0.003347
v -0.001644 -0.005865 0.005106
v 0.001060 -0.003744 0.005224
v 0.051425 -0.103531 0.105612
v -0.000175 0.008478 0.000589
v 0.000348 0.010559 0.001879
v 0.001708 0.010224 0.002150
v 0.001363 0.010177 0.002991
v 0.001087 0.008022 0.004805
v -0.004166 -0.006646 0.009125
v 0.044383 -0.109878 0.098237
v 0.044554 -0.112414 0.098595
v 0.043638 -0.114665 0.101673
v -0.001882 0.010103 0.001746
v -0.003481 0.004620 0.001988
v -0.000704 0.002648 0.006257
v -0.004148 -0.002938 0.009375
v -0.003316 -0.006443 0.007357
v 0.042375 -0.113564 0.102482
v -0.002692 0.010347 0.002562
v -0.001867 0.010209 0.003927
v -0.001131 0.008929 0.005231
v -0.004855 -0.005524 0.006033
v 0.038605 -0.109570 0.098897
v 0.046334 -0.099062 0.102715
v 0.040455 -0.112450 0.100359
v 0.040932 -0.105051 0.105381
v -0.009463 0.001284 0.005466
v -0.008185 -0.000024 0.004150
v -0.006588 -0.004605 0.006249
v -0.005838 -0.007937 0.010043
v 0.040036 -0.107496 0.098101
v 0.042519 -0.096261 0.103157
v 0.040968 -0.095638 0.104183
v -0.008814 0.007014 0.005090
v -0.008066 0.007652 0.005376
v -0.007830 0.003716 0.010130
v 0.035097 -0.097117 0.099525
v 0.040481 -0.096518 0.101411
v -0.006480 0.006547 0.007891
v -0.010755 -0.009455 0.010629
v -0.008904 -0.010074 0.012978
v -0.008629 -0.009980 0.012864
v 0.035099 -0.104568 0.098505
v 0.032607 -0.105996 0.099505
v 0.033563 -0.108820 0.101287
v -0.010509 0.003552 0.005475
v -0.011340 0.004835 0.006841
v -0.009376 0.006145 0.007681
v -0.011840 -0.002908 0.008299
v -0.013042 -0.003999 0.009216
v -0.010701 -0.004725 0.008958
v -0.012939 -0.008753 0.010517
v -0.013033 -0.010354 0.011200
v 0.030986 -0.106703 0.103002
v 0.031673 -0.107756 0.102274
v -0.009693 -0.005268 0.014188
v -0.013100 -0.012284 0.013357
v -0.011531 -0.012335 0.015094
v -0.012807 -0.013614 0.016718
v -0.015805 -0.001394 0.010837
v -0.015985 -0.007099 0.010991
v -0.017664 -0.015756 0.014050
v -0.016303 -0.015366 0.014388
v -0.012759 -0.012646 0.014957
v -0.015726 -0.015116 0.015773
v 0.028650 -0.100922 0.098479
v 0.038778 -0.095615 0.105035
v 0.031666 -0.097129 0.105542
v 0.032455 -0.095115 0.105456
v -0.016078 -0.000876 0.011609
v -0.015480 -0.000985 0.015718
v -0.018470 -0.006436 0.012040
v -0.012618 -0.001802 0.015706
v -0.019134 -0.011854 0.012007
v -0.018874 -0.014497 0.012995
v -0.019705 -0.016060 0.014266
v 0.028413 -0.089324 0.100446
v 0.026054 -0.087536 0.101005
v 0.027216 -0.102909 0.098861
v 0.033408 -0.091350 0.103079
v 0.026973 -0.105195 0.101230
v -0.020708 -0.009928 0.012224
v -0.021548 -0.014346 0.013462
v -0.019412 -0.017061 0.016428
v -0.015326 -0.016791 0.018913
v -0.014992 -0.014280 0.019949
v 0.026214 -0.094799 0.098295
v 0.021815 -0.100136 0.097932
v 0.032799 -0.092255 0.104414
v 0.027433 -0.102138 0.103765
v -0.019435 -0.004624 0.015494
v -0.019621 -0.005884 0.013463
v -0.018314 -0.003802 0.018850
v -0.022549 -0.009987 0.013205
v -0.022928 -0.016403 0.015672
v -0.021976 -0.017782 0.016855
v -0.020918 -0.018298 0.017707
v -0.020714 -0.018924 0.019809
v -0.018558 -0.019172 0.020991
v -0.018020 -0.018618 0.021622
v 0.027061 -0.091051 0.098856
v 0.016842 -0.098711 0.100210
v 0.029420 -0.099295 0.104958
v -0.022221 -0.008118 0.013932
v -0.023841 -0.011095 0.014888
v -0.018868 -0.005223 0.021084
v -0.023967 -0.014437 0.015256
v -0.023491 -0.016617 0.016506
v 0.021618 -0.101721 0.099444
v 0.019834 -0.100856 0.099914
v 0.018020 -0.097874 0.101501
v -0.022513 -0.007962 0.015080
v -0.024343 -0.013481 0.015974
v -0.022807 -0.009233 0.017534
v -0.017628 -0.006888 0.021663
v -0.023577 -0.016811 0.018758
v -0.018388 -0.014930 0.023310
v -0.025717 -0.020747 0.022595
v -0.022209 -0.021989 0.022925
v -0.022447 -0.024189 0.025238
v 0.021752 -0.089263 0.096962
v 0.014849 -0.096564 0.095945
v 0.018313 -0.096551 0.096346
v -0.023096 -0.009578 0.020808
v -0.024548 -0.014039 0.019217
v -0.024279 -0.015401 0.018573
v 0.018243 -0.084342 0.096452
v 0.011227 -0.096588 0.096647
v -0.022040 -0.007746 0.023208
v -0.022407 -0.012536 0.027115
v -0.026739 -0.024642 0.025059
v -0.025552 -0.026192 0.026087
v -0.023559 -0.023748 0.028436
v -0.023898 -0.025619 0.027038
v 0.011277 -0.092866 0.093314
v 0.014283 -0.085511 0.093839
v 0.021598 -0.089386 0.103317
v 0.019860 -0.091377 0.103151
v -0.025077 -0.010095 0.024104
v -0.023494 -0.010484 0.026118
v -0.027344 -0.018621 0.023415
v 0.007991 -0.094778 0.094602
v 0.008565 -0.094680 0.095798
v 0.014407 -0.095687 0.100300
v -0.025278 -0.010367 0.025664
v -0.029506 -0.025074 0.027470
v -0.023602 -0.016994 0.029392
v -0.029199 -0.028254 0.028722
v -0.027218 -0.029431 0.029464
v -0.026038 -0.028567 0.030050
v 0.010481 -0.077779 0.095109
v 0.018827 -0.084309 0.100535
v 0.015364 -0.085216 0.101101
v 0.017872 -0.094830 0.102214
v -0.028771 -0.014184 0.028745
v -0.029603 -0.018951 0.027027
v -0.025743 -0.025458 0.032004
v -0.029417 -0.033049 0.032109
v -0.031307 -0.032451 0.031579
v -0.028564 -0.032602 0.032214
v 0.001132 -0.087012 0.087769
v 0.004956 -0.075821 0.089513
v -0.004220 -0.084447 0.085201
v 0.009560 -0.077023 0.093649
v 0.001183 -0.089720 0.089951
v 0.012220 -0.093031 0.099594
v 0.014496 -0.089161 0.101095
v -0.029673 -0.015126 0.031641
v -0.032678 -0.027380 0.030680
v -0.027345 -0.020551 0.035055
v -0.000465 -0.074957 0.085523
v -0.000959 -0.081681 0.085451
v -0.028409 -0.015091 0.032369
v -0.027315 -0.017401 0.033985
v -0.033601 -0.032907 0.033128
v -0.033845 -0.035593 0.035027
v -0.031077 -0.036958 0.036630
v -0.031757 -0.036803 0.035795
v -0.029220 -0.033393 0.037488
v 0.002229 -0.071915 0.089032
v -0.000391 -0.088049 0.090197
v 0.000628 -0.084425 0.092485
v 0.002537 -0.077297 0.094554
v -0.029604 -0.030484 0.041301
v -0.034627 -0.039456 0.038027
v -0.031927 -0.040026 0.038808
v -0.032022 -0.043217 0.041940
v -0.007786 -0.078505 0.080328
v -0.009613 -0.080309 0.082704
v -0.004153 -0.085311 0.086898
v -0.031756 -0.017287 0.033501
v -0.034009 -0.024264 0.032758
v -0.035532 -0.033844 0.035650
v -0.029912 -0.027176 0.041883
v -0.035913 -0.038687 0.038563
v -0.030299 -0.036470 0.042013
v -0.034390 -0.042210 0.040565
v -0.031902 -0.046046 0.045951
v -0.033497 -0.046558 0.045881
v -0.013230 -0.073631 0.076180
v -0.033329 -0.018577 0.037308
v -0.036918 -0.027413 0.038066
v -0.031964 -0.018891 0.038210
v -0.031190 -0.023920 0.042312
v -0.037042 -0.037362 0.040003
v -0.030261 -0.040484 0.047021
v -0.032192 -0.047958 0.048186
v -0.018980 -0.067521 0.070577
v -0.012740 -0.070502 0.076228
v -0.011436 -0.064519 0.077865
v -0.013165 -0.077165 0.079451
v -0.012554 -0.059794 0.079746
v -0.000073 -0.069491 0.089553
v -0.000627 -0.072242 0.092107
v -0.035308 -0.020699 0.037763
v -0.036926 -0.040526 0.044790
v -0.030370 -0.036408 0.049765
v -0.035100 -0.045176 0.045436
v -0.029546 -0.043427 0.050679
v -0.033109 -0.049865 0.050907
v -0.030510 -0.051718 0.053246
v -0.027826 -0.056187 0.059005
v -0.025537 -0.060382 0.062570
v -0.025651 -0.061897 0.063481
v -0.023209 -0.062886 0.065595
v -0.020555 -0.058867 0.068648
v -0.019909 -0.068985 0.071538
v -0.018100 -0.059051 0.071903
v -0.016622 -0.073530 0.077449
v -0.007936 -0.077387 0.086076
v -0.000240 -0.070397 0.090850
v -0.003379 -0.069422 0.089946
v -0.036823 -0.023649 0.039780
v -0.034124 -0.023153 0.043764
v -0.038253 -0.033528 0.042784
v -0.031076 -0.031163 0.048499
v -0.033632 -0.049618 0.052800
v -0.027824 -0.048638 0.056469
v -0.031003 -0.054845 0.057003
v -0.025151 -0.053141 0.061934
v -0.029676 -0.057017 0.060010
v -0.026545 -0.062277 0.064051
v -0.026808 -0.062315 0.064569
v -0.036166 -0.022167 0.040485
v -0.038160 -0.034612 0.043135
v -0.032315 -0.029019 0.048663
v -0.030185 -0.035964 0.053889
v -0.026518 -0.045832 0.060874
v -0.025920 -0.063528 0.066560
v -0.022715 -0.066723 0.071513
v -0.017979 -0.057001 0.073238
v -0.014854 -0.058012 0.080136
v -0.016676 -0.068531 0.079624
v -0.017754 -0.059832 0.080368
v -0.035624 -0.023178 0.043659
v -0.037203 -0.039303 0.047916
v -0.031652 -0.051628 0.061689
v -0.022086 -0.051989 0.068477
v -0.024047 -0.061281 0.072790
v -0.014648 -0.060396 0.082407
v -0.037703 -0.028300 0.046691
v -0.037706 -0.030730 0.048399
v -0.034183 -0.029447 0.050504
v -0.030848 -0.035802 0.056378
v -0.034869 -0.044878 0.055045
v -0.029260 -0.039324 0.060433
v -0.023132 -0.049400 0.070990
v -0.028614 -0.056573 0.066402
v -0.019413 -0.053659 0.075148
v -0.036877 -0.027955 0.048201
v -0.036375 -0.033707 0.053597
v -0.026873 -0.043728 0.065094
v -0.020621 -0.053763 0.076279
v -0.022978 -0.055342 0.076395
v -0.019186 -0.056989 0.079148
v -0.034828 -0.034427 0.056019
v -0.035257 -0.038405 0.057307
v -0.034951 -0.037125 0.057897
v -0.031573 -0.039579 0.062277
v -0.029710 -0.040377 0.063066
v -0.028760 -0.045414 0.068499
v -0.026261 -0.049573 0.072233
v -0.026626 -0.051245 0.072553
v -0.030697 -0.045323 0.066825
vn -0.2676 -0.0272 -0.9632
vn 0.0589 -0.0525 -0.9969
vn 0.0949 -0.3862 -0.9175
vn 0.3319 0.2059 -0.9206
vn 0.6888 -0.1295 -0.7133
vn 0.5442 0.2642 -0.7963
vn 0.5437 -0.5811 -0.6056
vn -0.2055 -0.8269 -0.5234
vn 0.9228 -0.2727 -0.2721
vn 0.4275 -0.9026 -0.0511
vn -0.4902 -0.8660 -0.0988
vn 0.4944 -0.8030 0.3329
vn -0.0312 0.3030 -0.9525
vn -0.4371 -0.4142 -0.7984
vn -0.2966 -0.7664 0.5698
vn 0.9654 0.2573 -0.0420
vn 0.1342 -0.6191 0.7737
vn 0.6169 -0.5756 0.5367
vn 0.8758 -0.4420 0.1940
vn 0.1162 0.5459 -0.8298
vn 0.5493 0.5407 -0.6371
vn 0.7101 0.6863 -0.1576
vn 0.8747 -0.0547 0.4816
vn 0.5989 0.5447 0.5871
vn 0.5444 -0.3658 0.7549
vn 0.4038 0.6087 0.6830
vn 0.2749 0.2454 0.9296
vn 0.0969 -0.3308 0.9387
vn 0.2716 -0.0260 0.9621
vn 0.3440 0.7616 -0.5493
vn -0.2909 -0.7210 0.6290
vn -0.4064 -0.6038 -0.6857
vn -0.1033 -0.3484 0.9316
vn 0.0185 -0.0484 0.9987
vn 0.2158 -0.0382 -0.9757
vn 0.7257 0.0881 -0.6824
vn 0.5083 -0.2664 -0.8189
vn 0.9607 -0.2618 0.0924
vn 0.9934 -0.1099 -0.0328
vn 0.6070 -0.5430 -0.5802
vn -0.5385 -0.8044 -0.2507
vn -0.1770 -0.4831 0.8575
vn -0.0813 -0.3387 -0.9374
vn -0.2534 0.2394 -0.9373
vn 0.3016 0.4009 -0.8651
vn 0.9383 0.2637 -0.2237
vn 0.8495 0.0591 0.5242
vn 0.0382 -0.6215 -0.7824
vn 0.5587 -0.8250 -0.0852
vn 0.1403 -0.9085 -0.3936
vn 0.8101 -0.5390 0.2309
vn 0.2050 0.3924 -0.8966
vn -0.2383 -0.3061 -0.9217
vn 0.5110 0.8534 0.1029
vn -0.3853 -0.7573 0.5273
vn 0.1805 0.3463 0.9206
vn 0.7239 0.5270 -0.4453
vn 0.8858 0.4225 0.1918
vn -0.4943 -0.1904 -0.8482
vn -0.3694 -0.5231 -0.7680
vn -0.2750 -0.7388 -0.6153
vn 0.6648 -0.2301 0.7107
vn 0.0156 0.0724 -0.9973
vn 0.5342 0.8279 -0.1706
vn 0.4287 0.7792 0.4573
vn 0.5146 0.3445 0.7852
vn 0.7162 0.1683 0.6772
vn 0.5316 0.0648 0.8445
vn 0.0062 -0.9544 -0.2984
vn -0.5061 -0.8622 -0.0204
vn -0.2595 0.4137 -0.8727
vn -0.5453 0.1279 -0.8284
vn 0.0676 0.9336 -0.3518
vn 0.6079 0.0669 0.7912
vn 0.1849 -0.9604 -0.2082
vn 0.7131 -0.4247 0.5578
vn 0.3787 0.5621 -0.7353
vn 0.5095 0.8385 -0.1931
vn 0.4100 0.7565 0.5095
vn -0.3418 -0.6258 0.7011
vn -0.1477 -0.2508 0.9567
vn -0.3260 0.5670 -0.7565
vn -0.5996 -0.1084 -0.7929
vn 0.2193 0.6018 0.7679
vn -0.4003 -0.5268 -0.7498
vn -0.2444 -0.7226 -0.6466
vn -0.3787 0.8893 -0.2565
vn -0.0261 0.9103 0.4130
vn 0.0800 -0.7582 -0.6470
vn 0.4663 -0.8778 -0.1101
vn -0.0202 -0.0113 -0.9997
vn 0.3648 0.5326 -0.7637
vn -0.4331 -0.7473 -0.5039
vn -0.3070 -0.4322 -0.8479
vn -0.4742 -0.7918 -0.3849
vn -0.6651 0.5421 -0.5135
vn -0.4741 0.8770 0.0783
vn -0.5806 -0.0986 -0.8082
vn 0.2858 0.4902 0.8234
vn -0.5009 -0.3322 -0.7992
vn -0.4307 -0.3041 -0.8497
vn -0.3465 -0.5229 0.7788
vn -0.6059 0.0155 -0.7954
vn -0.3676 0.8107 0.4557
vn -0.0232 0.6955 0.7182
vn -0.2603 -0.3470 -0.9010
vn 0.7347 -0.0970 0.6715
vn -0.0971 -0.0678 -0.9930
vn 0.1991 0.2400 -0.9501
vn -0.2388 -0.4422 -0.8646
vn -0.1070 -0.0172 0.9941
vn 0.0201 -0.5197 -0.8541
vn 0.2707 -0.8537 -0.4449
vn -0.7863 0.5583 -0.2645
vn -0.3802 -0.2120 -0.9003
vn 0.6653 0.0815 0.7422
vn 0.3906 -0.7170 -0.5773
vn 0.3802 -0.8148 -0.4377
vn 0.8148 -0.4478 0.3681
vn -0.4605 -0.8142 0.3537
vn -0.7124 0.1529 -0.6849
vn -0.2913 -0.1302 -0.9477
vn 0.4365 0.4453 0.7818
vn -0.0433 -0.4985 -0.8658
vn -0.1863 -0.2301 -0.9552
vn 0.5104 -0.7448 -0.4298
vn 0.4762 -0.8036 -0.3570
vn -0.0136 -0.0625 -0.9980
vn 0.4829 0.6268 -0.6114
vn -0.1218 -0.4295 -0.8948
vn 0.4673 0.8809 0.0746
vn -0.0112 0.1943 0.9809
vn -0.8058 0.5570 -0.2010
vn -0.2748 0.8310 0.4837
vn -0.5269 0.2073 -0.8242
vn 0.2111 -0.7867 -0.5801
vn 0.7615 -0.1548 0.6294
vn 0.4890 -0.8136 -0.3146
vn 0.6998 -0.7134 0.0370
vn 0.3927 0.8645 0.3138
vn -0.5072 -0.8589 -0.0708
vn 0.1930 0.4355 0.8792
vn -0.3895 0.0246 -0.9207
vn -0.0733 -0.7724 -0.6309
vn 0.1952 -0.8638 -0.4645
vn 0.2125 0.0226 -0.9769
vn -0.3419 -0.8020 -0.4898
vn -0.6964 0.5210 -0.4935
vn -0.3805 -0.3894 -0.8388
vn -0.6843 0.1434 -0.7150
vn 0.0477 -0.9162 -0.3978
vn 0.7919 -0.4848 0.3713
vn 0.4971 -0.7987 -0.3391
vn 0.3741 0.2493 -0.8932
vn -0.1232 -0.5739 -0.8096
vn 0.1574 0.5615 0.8123
vn -0.2031 -0.1630 0.9655
vn -0.2997 -0.3256 0.8968
vn -0.7488 0.4635 -0.4738
vn -0.7603 0.6472 -0.0548
vn -0.5586 0.7871 0.2617
vn -0.4137 -0.6385 -0.6490
vn 0.5078 0.3551 0.7849
vn -0.2806 -0.8419 -0.4609
vn 0.0187 -0.8385 -0.5446
vn 0.7328 -0.0721 0.6766
vn 0.2043 -0.2053 -0.9571
vn -0.5255 -0.6244 0.5779
vn -0.4173 -0.3640 0.8327
vn -0.8325 0.5506 -0.0615
vn -0.9319 0.2057 -0.2988
vn -0.0025 0.7412 0.6713
vn -0.8087 -0.2764 -0.5193
vn -0.7380 -0.6010 -0.3069
vn -0.9781 -0.0220 -0.2069
vn -0.6281 -0.6293 -0.4577
vn 0.5657 0.3481 0.7475
vn 0.0610 -0.6817 -0.7290
vn 0.6752 -0.7164 -0.1758
vn 0.3591 0.0715 -0.9305
vn -0.5010 -0.8531 0.1456
vn -0.0910 0.2920 0.9521
vn -0.8779 0.4757 0.0551
vn -0.8229 0.5376 -0.1840
vn -0.9124 -0.2241 -0.3424
vn -0.9544 0.1763 -0.2408
vn -0.4435 -0.4397 -0.7810
vn 0.5479 0.4129 -0.7275
vn -0.0101 -0.6008 -0.7993
vn -0.4688 -0.8832 0.0159
vn 0.7924 0.0327 0.6092
vn 0.8667 -0.2403 0.4372
vn 0.1574 -0.7350 -0.6596
vn 0.4671 0.0295 -0.8837
vn 0.3307 -0.2509 -0.9098
vn -0.3666 -0.1419 0.9195
vn -0.5009 0.8192 0.2791
vn -0.7737 0.6023 -0.1966
vn 0.1070 0.6877 0.7181
vn -0.8195 -0.0066 -0.5731
vn -0.3384 -0.4824 -0.8080
vn 0.7564 -0.6539 -0.0167
vn -0.4643 -0.8638 -0.1958
vn 0.1738 0.6880 0.7046
vn -0.2710 0.0156 0.9625
vn -0.6448 -0.2145 -0.7336
vn -0.2783 -0.5024 -0.8186
vn 0.3313 -0.7073 -0.6245
vn 0.8492 -0.5281 0.0032
vn 0.9065 -0.1447 0.3966
vn -0.6550 -0.5034 0.5634
vn -0.5301 -0.3217 0.7845
vn -0.2000 0.3231 0.9250
vn -0.4561 0.8316 0.3168
vn 0.8656 0.0885 0.4929
vn 0.6898 -0.6592 -0.2995
vn 0.5194 -0.0912 -0.8496
vn 0.2778 -0.3698 -0.8866
vn 0.6327 0.7399 -0.2286
vn 0.5516 0.8212 0.1462
vn -0.4411 -0.8467 -0.2975
vn -0.4178 0.0051 0.9085
vn -0.5504 -0.1771 0.8159
vn -0.8417 0.4839 -0.2394
vn -0.8518 0.1692 -0.4957
vn 0.0490 0.8029 0.5941
vn 0.5947 0.4457 0.6691
vn -0.2372 -0.5325 -0.8125
vn 0.2302 -0.7145 -0.6607
vn 0.9378 -0.3290 0.1106
vn 0.5629 0.0174 -0.8264
vn 0.6402 0.3137 -0.7012
vn -0.1819 -0.7494 -0.6367
vn -0.5308 0.8206 0.2120
vn -0.7407 -0.1056 -0.6635
vn -0.6010 -0.3365 -0.7250
vn 0.1938 -0.7048 -0.6824
vn 0.7639 -0.5606 -0.3196
vn -0.6346 -0.1669 0.7546
vn -0.7209 -0.4870 0.4932
vn 0.1214 0.6886 0.7149
vn -0.4705 0.0818 0.8786
vn 0.9736 -0.0378 0.2252
vn -0.3981 -0.5342 -0.7458
vn -0.2971 -0.6189 -0.7272
vn 0.5932 -0.5875 -0.5505
vn 0.3428 -0.3648 -0.8657
vn -0.7241 -0.6770 0.1314
vn 0.7066 0.4571 -0.5401
vn -0.2828 0.3500 0.8930
vn -0.8300 0.5036 -0.2398
vn -0.8664 0.1382 -0.4799
vn -0.8128 -0.1945 -0.5490
vn 0.9183 0.1510 0.3659
vn 0.9789 -0.1979 -0.0505
vn -0.3235 -0.7026 -0.6338
vn 0.6489 -0.0098 -0.7608
vn 0.7107 0.2224 -0.6674
vn -0.7347 -0.6378 0.2313
vn -0.7024 -0.2084 0.6806
vn -0.4892 0.8327 0.2594
vn 0.1317 0.7734 0.6201
vn 0.6586 0.4717 0.5863
vn -0.7436 -0.4182 -0.5218
vn 0.5998 -0.6056 -0.5230
vn -0.1421 -0.8112 -0.5673
vn 0.6597 -0.5579 -0.5036
vn 0.4158 -0.3161 -0.8528
vn -0.5966 -0.7836 -0.1733
vn 0.4675 0.8312 0.3009
vn -0.8547 0.4957 -0.1545
vn -0.9566 0.2751 -0.0961
vn -0.9405 0.0666 -0.3332
vn -0.9208 -0.2368 -0.3099
vn -0.7599 -0.5755 -0.3023
vn 0.9840 -0.0848 -0.1568
vn 0.9934 0.1069 -0.0420
vn 0.9518 -0.0408 -0.3038
vn 0.1348 -0.7927 -0.5946
vn 0.4798 -0.6096 -0.6310
vn 0.0034 -0.6923 -0.7216
vn 0.4671 -0.3569 -0.8090
vn -0.7954 -0.5160 0.3180
vn 0.7273 0.6340 -0.2630
vn -0.6107 -0.0280 0.7914
vn -0.1274 0.5352 0.8351
vn -0.9450 -0.3122 -0.0970
vn -0.9052 -0.4247 -0.0138
vn -0.4978 -0.7592 -0.4193
vn 0.9111 -0.0862 -0.4031
vn 0.4899 -0.3524 -0.7974
vn 0.5582 -0.3485 -0.7530
vn 0.1472 -0.6818 -0.7166
vn -0.3233 -0.7832 -0.5312
vn 0.7928 0.0680 -0.6057
vn 0.7922 0.2079 -0.5738
vn -0.7306 -0.2108 0.6495
vn -0.5035 0.7067 0.4971
vn 0.1894 0.7326 0.6538
vn -0.9939 -0.0225 -0.1080
vn 0.9145 0.3114 0.2581
vn 0.9431 0.2474 -0.2223
vn -0.5633 -0.7553 -0.3349
vn 0.4686 -0.5123 -0.7197
vn 0.8588 -0.0033 -0.5122
vn -0.6406 -0.6974 -0.3212
vn -0.7887 -0.6098 -0.0785
vn -0.7839 -0.6197 0.0380
vn 0.8103 0.4018 -0.4266
vn -0.8358 -0.4561 0.3057
vn 0.3404 0.8175 0.4646
vn -0.8109 0.5501 0.1995
vn 0.1242 0.7525 0.6468
vn -0.9905 -0.1326 -0.0377
vn 0.6233 0.5814 0.5230
vn -0.9776 -0.1815 0.1070
vn 0.9286 0.3644 0.0699
vn -0.9299 -0.2644 0.2558
vn 0.8818 0.3464 -0.3200
vn -0.8975 -0.2728 0.3465
vn -0.8286 -0.2567 0.4975
vn -0.2743 0.4148 0.8676
vn -0.9377 0.2868 0.1964
vn -0.9617 0.1147 0.2491
vn 0.7793 0.5830 0.2300
vn -0.9565 -0.2219 0.1895
vn 0.6999 0.6518 0.2920
vn 0.8010 0.5922 0.0882
vn 0.7600 0.6440 0.0877
vn 0.6485 0.7531 0.1108
vn -0.6607 0.0561 0.7486
vn -0.5982 0.5732 0.5601
vn 0.1447 0.7549 0.6397
vn -0.3227 0.4009 0.8574
vn -0.8807 0.2208 0.4192
vn -0.9448 -0.0522 0.3234
vn -0.1825 0.7093 0.6808
vn 0.2994 0.7961 0.5259
vn -0.8024 0.1401 0.5801
vn -0.2851 0.5764 0.7658
vn -0.4204 0.6231 0.6596
vn -0.7772 0.2795 0.5638
vn -0.7514 0.0384 0.6587
vn -0.3689 0.4749 0.7989
s 1
usemtl mtl1.1066
f 22//1 1//2 3//3
f 2//4 4//5 1//2
f 1//2 4//5 3//3
f 4//5 2//4 9//6
f 6//7 5//8 3//3
f 3//3 4//5 6//7
f 4//5 12//9 6//7
f 4//5 9//6 12//9
f 6//7 7//10 5//8
f 11//11 5//8 7//10
f 6//7 12//9 7//10
f 7//10 12//9 8//12
f 2//4 1//2 24//13
f 22//1 3//3 23//14
f 3//3 5//8 23//14
f 11//11 7//10 8//12
f 11//11 8//12 13//15
f 12//9 9//6 18//16
f 13//15 8//12 14//17
f 12//9 15//18 8//12
f 8//12 15//18 14//17
f 16//19 12//9 18//16
f 15//18 12//9 16//19
f 22//1 24//13 1//2
f 2//4 24//13 9//6
f 25//20 9//6 24//13
f 25//20 10//21 9//6
f 5//8 11//11 23//14
f 10//21 18//16 9//6
f 10//21 17//22 18//16
f 20//23 16//19 18//16
f 19//24 20//23 18//16
f 15//18 16//19 21//25
f 16//19 20//23 21//25
f 26//26 19//24 17//22
f 19//24 27//27 20//23
f 19//24 18//16 17//22
f 26//26 27//27 19//24
f 15//18 28//28 14//17
f 21//25 28//28 15//18
f 20//23 29//29 21//25
f 28//28 21//25 29//29
f 10//21 25//20 36//30
f 11//11 13//15 30//31
f 14//17 30//31 13//15
f 27//27 29//29 20//23
f 48//32 22//1 23//14
f 23//14 11//11 48//32
f 28//28 39//33 14//17
f 28//28 29//29 50//34
f 40//35 32//36 31//37
f 32//36 33//38 31//37
f 32//36 34//39 33//38
f 31//37 33//38 35//40
f 48//32 11//11 49//41
f 14//17 38//42 30//31
f 39//33 38//42 14//17
f 27//27 50//34 29//29
f 50//34 39//33 28//28
f 42//43 52//44 40//35
f 32//36 51//45 41//46
f 42//43 40//35 31//37
f 34//39 32//36 41//46
f 44//47 34//39 41//46
f 35//40 43//48 31//37
f 43//48 42//43 31//37
f 33//38 34//39 44//47
f 45//49 43//48 35//40
f 46//50 43//48 45//49
f 35//40 47//51 45//49
f 35//40 33//38 47//51
f 25//20 24//13 55//52
f 24//13 22//1 71//53
f 48//32 71//53 22//1
f 17//22 10//21 36//30
f 17//22 36//30 37//54
f 37//54 26//26 17//22
f 30//31 56//55 11//11
f 49//41 11//11 56//55
f 63//56 27//27 26//26
f 56//55 30//31 38//42
f 51//45 32//36 40//35
f 53//57 41//46 51//45
f 53//57 57//58 41//46
f 52//44 42//43 58//59
f 58//59 42//43 54//60
f 44//47 41//46 57//58
f 60//61 43//48 46//50
f 45//49 47//51 62//62
f 47//51 33//38 62//62
f 62//62 33//38 44//47
f 70//63 55//52 24//13
f 36//30 25//20 55//52
f 52//44 51//45 40//35
f 53//57 66//64 57//58
f 67//65 68//66 57//58
f 68//66 59//67 57//58
f 59//67 75//68 44//47
f 59//67 44//47 57//58
f 54//60 42//43 43//48
f 60//61 54//60 43//48
f 60//61 46//50 61//69
f 46//50 45//49 61//69
f 24//13 71//53 70//63
f 56//55 72//70 49//41
f 63//56 50//34 27//27
f 52//44 64//71 51//45
f 74//72 64//71 52//44
f 64//71 65//73 51//45
f 66//64 51//45 65//73
f 66//64 53//57 51//45
f 58//59 74//72 52//44
f 66//64 67//65 57//58
f 59//67 68//66 75//68
f 62//62 75//68 76//74
f 75//68 62//62 44//47
f 45//49 77//75 61//69
f 69//76 45//49 62//62
f 55//52 84//77 36//30
f 37//54 36//30 92//78
f 93//79 26//26 37//54
f 72//70 48//32 49//41
f 78//80 72//70 56//55
f 56//55 38//42 78//80
f 38//42 39//33 86//81
f 73//82 65//73 64//71
f 66//64 65//73 67//65
f 58//59 88//83 74//72
f 67//65 81//84 68//66
f 88//83 58//59 54//60
f 89//85 54//60 60//61
f 61//69 77//75 82//86
f 60//61 61//69 82//86
f 69//76 77//75 45//49
f 36//30 84//77 92//78
f 93//79 63//56 26//26
f 50//34 86//81 39//33
f 64//71 74//72 73//82
f 73//82 79//87 65//73
f 79//87 80//88 67//65
f 79//87 67//65 65//73
f 80//88 81//84 67//65
f 82//86 89//85 60//61
f 82//86 77//75 100//89
f 90//90 77//75 69//76
f 69//76 62//62 76//74
f 55//52 70//63 91//91
f 98//92 84//77 55//52
f 48//32 85//93 83//94
f 83//94 71//53 48//32
f 85//93 48//32 72//70
f 105//95 85//93 72//70
f 86//81 78//80 38//42
f 79//87 73//82 94//96
f 79//87 95//97 80//88
f 74//72 88//83 87//98
f 96//99 68//66 81//84
f 88//83 54//60 109//100
f 96//99 75//68 68//66
f 111//101 54//60 89//85
f 90//90 100//89 77//75
f 91//91 70//63 71//53
f 91//91 71//53 83//94
f 37//54 92//78 93//79
f 78//80 114//102 72//70
f 74//72 106//103 73//82
f 106//103 94//96 73//82
f 79//87 94//96 95//97
f 95//97 108//104 80//88
f 106//103 74//72 87//98
f 99//105 96//99 81//84
f 80//88 99//105 81//84
f 109//100 54//60 111//101
f 75//68 96//99 76//74
f 100//89 112//106 82//86
f 112//106 89//85 82//86
f 102//107 90//90 69//76
f 103//108 97//109 91//91
f 103//108 91//91 83//94
f 104//110 103//108 83//94
f 55//52 91//91 97//109
f 104//110 83//94 105//95
f 85//93 105//95 83//94
f 78//80 86//81 114//102
f 128//111 50//34 63//56
f 80//88 108//104 99//105
f 87//98 88//83 109//100
f 89//85 112//106 111//101
f 113//112 112//106 100//89
f 90//90 101//113 100//89
f 128//111 86//81 50//34
f 106//103 107//114 94//96
f 110//115 109//100 111//101
f 69//76 76//74 102//107
f 102//107 76//74 116//116
f 124//117 100//89 101//113
f 124//117 101//113 118//118
f 118//118 102//107 119//119
f 55//52 97//109 98//92
f 84//77 98//92 92//78
f 115//120 105//95 72//70
f 114//102 115//120 72//70
f 107//114 95//97 94//96
f 95//97 107//114 108//104
f 106//103 120//121 107//114
f 87//98 109//100 106//103
f 108//104 96//99 99//105
f 121//122 110//115 111//101
f 133//123 116//116 76//74
f 76//74 96//99 133//123
f 113//112 135//124 134//125
f 113//112 117//126 123//127
f 124//117 117//126 100//89
f 100//89 117//126 113//112
f 104//110 126//128 103//108
f 98//92 97//109 137//129
f 105//95 139//130 104//110
f 98//92 138//131 92//78
f 129//132 128//111 63//56
f 107//114 120//121 130//133
f 108//104 107//114 131//134
f 120//121 106//103 109//100
f 121//122 111//101 112//106
f 110//115 121//122 132//135
f 121//122 112//106 113//112
f 134//125 121//122 113//112
f 122//136 135//124 113//112
f 123//127 122//136 113//112
f 119//119 102//107 146//137
f 102//107 116//116 146//137
f 117//126 125//138 123//127
f 125//138 117//126 124//117
f 145//139 118//118 119//119
f 103//108 126//128 97//109
f 139//130 126//128 104//110
f 92//78 140//140 93//79
f 105//95 141//141 139//130
f 141//141 105//95 115//120
f 127//142 63//56 93//79
f 127//142 129//132 63//56
f 107//114 130//133 131//134
f 110//115 120//121 109//100
f 110//115 132//135 120//121
f 108//104 131//134 96//99
f 131//134 133//123 96//99
f 121//122 134//125 142//143
f 135//124 122//136 136//144
f 122//136 123//127 144//145
f 144//145 123//127 125//138
f 118//118 125//138 124//117
f 145//139 125//138 118//118
f 146//137 145//139 119//119
f 126//128 147//146 97//109
f 137//129 138//131 98//92
f 92//78 138//131 140//140
f 169//147 139//130 141//141
f 114//102 141//141 115//120
f 132//135 152//148 120//121
f 152//148 130//133 120//121
f 132//135 121//122 142//143
f 134//125 135//124 143//149
f 142//143 134//125 143//149
f 154//150 142//143 143//149
f 143//149 135//124 136//144
f 136//144 122//136 144//145
f 145//139 157//151 144//145
f 144//145 125//138 145//139
f 145//139 160//152 159//153
f 147//146 161//154 97//109
f 137//129 97//109 161//154
f 126//128 139//130 147//146
f 148//155 139//130 169//147
f 129//132 127//142 149//156
f 140//140 149//156 93//79
f 149//156 127//142 93//79
f 114//102 86//81 163//157
f 163//157 150//158 114//102
f 86//81 128//111 163//157
f 154//150 132//135 142//143
f 154//150 164//159 132//135
f 164//159 152//148 132//135
f 152//148 151//160 130//133
f 151//160 153//161 130//133
f 131//134 130//133 153//161
f 143//149 136//144 155//162
f 133//123 175//163 116//116
f 144//145 156//164 155//162
f 136//144 144//145 155//162
f 144//145 157//151 156//164
f 157//151 145//139 158//165
f 158//165 145//139 159//153
f 160//152 145//139 146//137
f 146//137 177//166 160//152
f 139//130 183//167 147//146
f 141//141 114//102 162//168
f 171//169 162//168 114//102
f 114//102 150//158 171//169
f 152//148 164//159 151//160
f 151//160 164//159 172//170
f 154//150 172//170 164//159
f 165//171 172//170 154//150
f 153//161 166//172 131//134
f 154//150 143//149 167//173
f 154//150 167//173 165//171
f 131//134 166//172 133//123
f 167//173 143//149 155//162
f 168//174 173//175 167//173
f 167//173 155//162 168//174
f 168//174 155//162 156//164
f 168//174 156//164 158//165
f 176//176 168//174 158//165
f 116//116 190//177 146//137
f 158//165 156//164 157//151
f 177//166 146//137 190//177
f 159//153 179//178 158//165
f 180//179 159//153 160//152
f 183//167 139//130 148//155
f 181//180 147//146 183//167
f 147//146 181//180 161//154
f 170//181 169//147 141//141
f 141//141 162//168 170//181
f 129//132 149//156 197//182
f 172//170 174//183 151//160
f 167//173 173//175 165//171
f 174//183 172//170 165//171
f 174//183 184//184 151//160
f 151//160 184//184 153//161
f 186//185 185//186 173//175
f 176//176 186//185 168//174
f 168//174 186//185 173//175
f 166//172 175//163 133//123
f 175//163 190//177 116//116
f 176//176 158//165 178//187
f 179//178 178//187 158//165
f 179//178 159//153 180//179
f 187//188 137//129 161//154
f 182//189 183//167 148//155
f 182//189 148//155 188//190
f 169//147 188//190 148//155
f 129//132 197//182 128//111
f 165//171 173//175 185//186
f 165//171 185//186 174//183
f 176//176 178//187 186//185
f 190//177 207//191 177//166
f 180//179 160//152 193//192
f 177//166 207//191 160//152
f 180//179 192//193 179//178
f 183//167 196//194 181//180
f 181//180 187//188 161//154
f 138//131 137//129 187//188
f 183//167 182//189 195//195
f 138//131 149//156 140//140
f 170//181 188//190 169//147
f 171//169 150//158 214//196
f 150//158 163//157 214//196
f 184//184 174//183 185//186
f 153//161 184//184 189//197
f 166//172 153//161 189//197
f 185//186 199//198 184//184
f 166//172 189//197 200//199
f 185//186 201//200 199//198
f 166//172 190//177 175//163
f 201//200 185//186 186//185
f 186//185 178//187 201//200
f 178//187 179//178 191//201
f 191//201 179//178 192//193
f 160//152 207//191 193//192
f 192//193 180//179 194//202
f 194//202 180//179 193//192
f 196//194 183//167 195//195
f 196//194 187//188 181//180
f 188//190 202//203 182//189
f 170//181 162//168 188//190
f 149//156 212//204 197//182
f 163//157 198//205 214//196
f 198//205 163//157 128//111
f 128//111 197//182 198//205
f 189//197 184//184 199//198
f 166//172 200//199 190//177
f 178//187 206//206 201//200
f 206//206 178//187 191//201
f 208//207 191//201 192//193
f 194//202 209//208 192//193
f 209//208 194//202 210//209
f 210//209 194//202 193//192
f 193//192 217//210 210//209
f 149//156 138//131 212//204
f 203//211 188//190 162//168
f 203//211 162//168 204//212
f 213//213 197//182 212//204
f 204//212 162//168 171//169
f 204//212 171//169 214//196
f 205//214 189//197 199//198
f 206//206 191//201 208//207
f 193//192 207//191 217//210
f 207//191 230//215 217//210
f 192//193 209//208 208//207
f 210//209 220//216 209//208
f 232//217 196//194 195//195
f 182//189 221//218 195//195
f 187//188 224//219 211//220
f 187//188 211//220 138//131
f 225//221 182//189 202//203
f 211//220 212//204 138//131
f 203//211 202//203 188//190
f 227//222 226//223 214//196
f 198//205 227//222 214//196
f 197//182 213//213 198//205
f 214//196 226//223 204//212
f 201//200 215//224 199//198
f 200//199 189//197 205//214
f 216//225 215//224 201//200
f 233//226 190//177 200//199
f 190//177 234//227 207//191
f 206//206 208//207 219//228
f 208//207 209//208 219//228
f 209//208 218//229 219//228
f 209//208 220//216 218//229
f 210//209 217//210 239//230
f 232//217 231//231 196//194
f 232//217 195//195 221//218
f 222//232 187//188 196//194
f 222//232 224//219 187//188
f 223//233 221//218 182//189
f 223//233 182//189 225//221
f 203//211 204//212 226//223
f 198//205 213//213 227//222
f 228//234 205//214 199//198
f 200//199 205//214 233//226
f 206//206 216//225 201//200
f 229//235 216//225 206//206
f 207//191 234//227 230//215
f 206//206 219//228 235//236
f 219//228 218//229 238//237
f 220//216 210//209 239//230
f 218//229 220//216 237//238
f 222//232 196//194 231//231
f 203//211 242//239 241//240
f 211//220 291//241 212//204
f 203//211 226//223 242//239
f 226//223 227//222 243//242
f 213//213 243//242 227//222
f 199//198 215//224 228//234
f 233//226 205//214 228//234
f 233//226 234//227 190//177
f 235//236 229//235 206//206
f 217//210 230//215 244//243
f 235//236 219//228 236//244
f 219//228 238//237 236//244
f 236//244 238//237 245//245
f 218//229 237//238 238//237
f 220//216 239//230 237//238
f 238//237 237//238 246//246
f 248//247 232//217 221//218
f 223//233 248//247 221//218
f 223//233 225//221 250//248
f 222//232 240//249 224//219
f 241//240 250//248 225//221
f 202//203 241//240 225//221
f 202//203 203//211 241//240
f 291//241 274//250 212//204
f 274//250 213//213 212//204
f 228//234 215//224 251//251
f 216//225 251//251 215//224
f 252//252 216//225 229//235
f 253//253 235//236 236//244
f 230//215 254//254 244//243
f 217//210 244//243 239//230
f 238//237 246//246 245//245
f 237//238 256//255 246//246
f 239//230 256//255 237//238
f 257//256 245//245 246//246
f 269//257 232//217 248//247
f 231//231 270//258 222//232
f 270//258 240//249 222//232
f 250//248 249//259 223//233
f 224//219 240//249 211//220
f 241//240 242//239 290//260
f 242//239 226//223 243//242
f 243//242 213//213 274//250
f 228//234 251//251 261//261
f 261//261 233//226 228//234
f 263//262 264//263 234//227
f 233//226 263//262 234//227
f 235//236 253//253 229//235
f 234//227 254//254 230//215
f 236//244 245//245 255//264
f 253//253 236//244 255//264
f 239//230 244//243 256//255
f 257//256 246//246 247//265
f 256//255 247//265 246//246
f 247//265 259//266 257//256
f 247//265 258//267 259//266
f 260//268 248//247 223//233
f 260//268 269//257 248//247
f 271//269 223//233 249//259
f 249//259 250//248 290//260
f 290//260 250//248 241//240
f 273//270 291//241 211//220
f 252//252 251//251 216//225
f 261//261 251//251 275//271
f 252//252 275//271 251//251
f 293//272 252//252 262//273
f 229//235 253//253 252//252
f 252//252 253//253 262//273
f 264//263 254//254 234//227
f 265//274 253//253 255//264
f 278//275 265//274 255//264
f 255//264 257//256 278//275
f 255//264 245//245 257//256
f 247//265 256//255 266//276
f 277//277 266//276 256//255
f 247//265 266//276 258//267
f 279//278 258//267 266//276
f 267//279 259//266 258//267
f 267//279 258//267 281//280
f 260//268 287//281 268//282
f 287//281 223//233 271//269
f 287//281 260//268 223//233
f 268//282 269//257 260//268
f 270//258 231//231 232//217
f 269//257 270//258 232//217
f 249//259 289//283 271//269
f 272//284 211//220 240//249
f 272//284 273//270 211//220
f 290//260 242//239 314//285
f 274//250 291//241 292//286
f 233//226 261//261 263//262
f 293//272 275//271 252//252
f 253//253 265//274 262//273
f 265//274 278//275 276//287
f 277//277 256//255 244//243
f 278//275 257//256 259//266
f 297//288 276//287 278//275
f 280//289 278//275 259//266
f 280//289 259//266 267//279
f 279//278 298//290 258//267
f 281//280 280//289 267//279
f 283//291 285//292 284//293
f 284//293 285//292 302//294
f 302//294 285//292 268//282
f 287//281 302//294 268//282
f 286//295 268//282 285//292
f 288//296 269//257 286//295
f 268//282 286//295 269//257
f 288//296 270//258 269//257
f 240//249 270//258 272//284
f 289//283 249//259 313//297
f 249//259 290//260 313//297
f 314//285 242//239 243//242
f 315//298 294//299 263//262
f 294//299 264//263 263//262
f 265//274 295//300 262//273
f 296//301 254//254 264//263
f 244//243 254//254 296//301
f 244//243 296//301 277//277
f 277//277 279//278 266//276
f 278//275 280//289 297//288
f 279//278 277//277 308//302
f 297//288 280//289 299//303
f 308//302 298//290 279//278
f 280//289 281//280 299//303
f 258//267 298//290 281//280
f 281//280 298//290 282//304
f 282//304 298//290 300//305
f 282//304 299//303 281//280
f 301//306 299//303 282//304
f 283//291 301//306 282//304
f 283//291 282//304 300//305
f 284//293 301//306 283//291
f 303//307 301//306 302//294
f 283//291 300//305 286//295
f 301//306 284//293 302//294
f 283//291 286//295 285//292
f 303//307 302//294 287//281
f 303//307 287//281 309//308
f 309//308 287//281 271//269
f 288//296 311//309 270//258
f 309//308 271//269 289//283
f 310//310 309//308 289//283
f 311//309 272//284 270//258
f 273//270 272//284 312//311
f 275//271 293//272 304//312
f 304//312 261//261 275//271
f 263//262 261//261 315//298
f 262//273 295//300 293//272
f 323//313 264//263 294//299
f 265//274 305//314 295//300
f 306//315 296//301 264//263
f 306//315 264//263 323//313
f 276//287 305//314 265//274
f 276//287 316//316 305//314
f 276//287 297//288 316//316
f 307//317 277//277 296//301
f 307//317 308//302 277//277
f 297//288 299//303 317//318
f 299//303 301//306 317//318
f 298//290 308//302 300//305
f 286//295 300//305 318//319
f 303//307 309//308 301//306
f 286//295 318//319 288//296
f 310//310 328//320 309//308
f 311//309 288//296 318//319
f 310//310 289//283 319//321
f 289//283 313//297 319//321
f 313//297 290//260 314//285
f 292//286 291//241 320//322
f 314//285 243//242 274//250
f 315//298 304//312 293//272
f 315//298 261//261 304//312
f 293//272 295//300 321//323
f 305//314 322//324 295//300
f 305//314 316//316 322//324
f 306//315 307//317 296//301
f 324//325 307//317 306//315
f 325//326 316//316 297//288
f 308//302 307//317 326//327
f 317//318 325//326 297//288
f 332//328 308//302 326//327
f 327//329 308//302 332//328
f 309//308 317//318 301//306
f 300//305 308//302 318//319
f 318//319 308//302 327//329
f 329//330 318//319 327//329
f 318//319 329//330 311//309
f 319//321 328//320 310//310
f 272//284 311//309 329//330
f 272//284 329//330 312//311
f 334//331 319//321 313//297
f 312//311 291//241 273//270
f 312//311 320//322 291//241
f 314//285 274//250 320//322
f 292//286 320//322 274//250
f 315//298 293//272 321//323
f 321//323 330//332 315//298
f 323//313 294//299 315//298
f 322//324 321//323 295//300
f 306//315 323//313 324//325
f 324//325 326//327 307//317
f 317//318 309//308 328//320
f 333//333 312//311 329//330
f 313//297 314//285 334//331
f 335//334 314//285 320//322
f 333//333 335//334 312//311
f 335//334 320//322 312//311
f 321//323 322//324 330//332
f 315//298 330//332 323//313
f 322//324 331//335 330//332
f 322//324 316//316 337//336
f 322//324 337//336 331//335
f 325//326 337//336 316//316
f 323//313 326//327 324//325
f 323//313 339//337 326//327
f 326//327 340//338 332//328
f 337//336 325//326 317//318
f 344//339 337//336 317//318
f 328//320 344//339 317//318
f 333//333 332//328 340//338
f 327//329 332//328 333//333
f 333//333 329//330 327//329
f 341//340 335//334 333//333
f 335//334 334//331 314//285
f 330//332 331//335 336//341
f 330//332 336//341 323//313
f 337//336 338//342 331//335
f 336//341 331//335 338//342
f 323//313 336//341 339//337
f 326//327 339//337 340//338
f 339//337 341//340 340//338
f 341//340 333//333 340//338
f 344//339 328//320 343//343
f 335//334 341//340 342//344
f 319//321 343//343 328//320
f 334//331 342//344 343//343
f 342//344 334//331 335//334
f 334//331 343//343 319//321
f 338//342 344//339 339//337
f 338//342 339//337 336//341
f 337//336 344//339 338//342
f 344//339 341//340 339//337
f 344//339 343//343 341//340
f 341//340 343//343 342//344
