# Blender 4.0.2
# www.blender.org
mtllib rib12_r.mtl
o rib12_r.002
v 0.004882 0.008496 -0.000682
v 0.003877 0.009633 -0.000012
v 0.005699 0.007217 -0.000513
v 0.004705 0.009121 -0.000315
v 0.006897 0.006985 0.000564
v 0.006807 0.007642 0.000610
v 0.007225 0.007189 0.001493
v 0.005936 0.009211 0.001669
v 0.006042 0.001851 0.000508
v 0.006068 0.003698 0.000734
v 0.006225 0.004821 0.000849
v 0.007435 0.005243 0.002458
v 0.006705 -0.000481 0.001366
v 0.007143 0.001646 0.001937
v 0.007736 0.003077 0.003272
v 0.007191 0.005732 0.003330
v 0.007664 0.000561 0.003475
v 0.002638 0.009144 -0.000532
v 0.004589 0.010224 0.001973
v 0.005353 0.004347 0.000529
v 0.004398 0.009912 0.003158
v 0.004675 -0.000129 0.000290
v 0.006117 0.000025 0.000712
v 0.006971 -0.001977 0.002876
v 0.007180 -0.000529 0.002652
v 0.005652 -0.002259 0.002514
v 0.006510 -0.002763 0.003344
v 0.006750 -0.001541 0.004245
v 0.007300 -0.000197 0.004797
v 0.000467 0.008532 -0.000437
v -0.000419 0.006774 -0.000090
v 0.002462 0.010625 0.002313
v 0.001971 0.003575 0.000302
v 0.002232 0.005384 0.000477
v 0.003164 0.010396 0.003481
v 0.001754 0.010436 0.003328
v 0.002687 0.003914 0.000510
v 0.003682 -0.000935 0.000137
v 0.003639 -0.002998 0.001054
v 0.002836 -0.002007 0.000510
v 0.003833 0.007418 0.005334
v 0.005134 -0.002193 0.001458
v 0.003891 -0.003955 0.002126
v 0.005503 0.003462 0.005780
v 0.005686 -0.003169 0.004635
v 0.006627 -0.002641 0.004024
v 0.005573 -0.002479 0.005473
v 0.005705 -0.000320 0.006353
v -0.000576 0.005068 0.000367
v -0.000338 0.003763 0.000382
v 0.000906 0.004054 0.000686
v 0.000682 0.004225 0.000700
v -0.000160 0.000211 0.000509
v 0.001827 0.001407 0.000637
v 0.001171 0.009187 0.005358
v 0.003116 -0.003881 0.001771
v 0.001808 -0.003091 0.001814
v 0.003913 -0.004214 0.003296
v 0.004674 -0.003517 0.004643
v 0.004832 -0.001770 0.006871
v -0.002838 0.005946 0.000272
v -0.002348 0.007400 0.000502
v -0.001444 0.008197 0.001062
v -0.002255 0.003006 0.000277
v -0.001523 0.008223 0.003067
v -0.000153 -0.001522 0.001338
v 0.002913 -0.004867 0.005026
v 0.002891 0.000349 0.007985
v -0.003933 0.003941 0.000687
v -0.004535 0.004001 0.001213
v -0.003534 0.005919 0.000834
v -0.002723 0.001706 0.000808
v -0.002040 -0.000246 0.002138
v -0.001010 0.007721 0.006668
v -0.001403 -0.003363 0.003761
v 0.000876 -0.005080 0.005215
v 0.000975 -0.005512 0.006414
v 0.000741 -0.005524 0.007581
v -0.004227 0.004351 0.003334
v -0.004417 -0.000097 0.004091
v -0.002880 0.006685 0.006229
v -0.002250 -0.001919 0.004197
v -0.000769 -0.004648 0.005159
v -0.001761 -0.004037 0.005197
v 0.000750 -0.003880 0.009284
v -0.004795 0.002108 0.003171
v -0.003727 -0.002012 0.005037
v -0.005811 0.000307 0.005118
v -0.006352 0.001439 0.006128
v -0.005870 0.003115 0.006633
v -0.005939 0.003835 0.009467
v -0.004606 -0.000100 0.013190
v -0.005257 -0.008726 0.011439
v -0.006193 0.003189 0.011593
v -0.005631 0.002578 0.012303
v -0.003724 -0.007382 0.008882
v -0.003425 -0.002933 0.013055
v -0.004662 -0.007439 0.013230
v -0.007722 -0.001773 0.007287
v -0.006845 -0.004206 0.007720
v -0.009855 -0.000483 0.009902
v -0.009079 -0.010046 0.012362
v -0.012520 -0.001954 0.012547
v -0.011069 -0.008776 0.018671
v -0.014124 -0.011707 0.014518
v -0.012615 -0.002056 0.017757
v -0.011156 -0.005433 0.018891
v -0.011391 -0.011860 0.017518
v -0.013142 -0.001771 0.016865
v -0.011954 -0.003672 0.018809
v -0.011716 -0.012506 0.016259
v -0.020404 -0.012988 0.018275
v -0.018191 -0.008863 0.015919
v -0.014896 -0.014021 0.016735
v -0.014770 -0.004264 0.020768
v -0.019888 -0.007577 0.024758
v -0.017916 -0.014919 0.017624
v -0.016251 -0.010255 0.024596
v -0.019813 -0.006638 0.021317
v -0.020665 -0.007584 0.023943
v -0.016795 -0.016286 0.022144
v -0.015857 -0.012868 0.023348
v -0.020388 -0.007312 0.020471
v -0.019700 -0.017794 0.021793
v -0.016977 -0.008639 0.024965
v -0.020457 -0.019259 0.024266
v -0.023724 -0.012399 0.021080
v -0.020117 -0.015819 0.019415
v -0.022175 -0.016631 0.020792
v -0.020070 -0.011248 0.028806
v -0.025138 -0.016218 0.022736
v -0.024594 -0.011494 0.024522
v -0.024320 -0.019265 0.023928
v -0.019626 -0.018853 0.025779
v -0.024782 -0.011413 0.027884
v -0.019793 -0.013663 0.029882
v -0.022531 -0.022006 0.029680
v -0.019634 -0.017666 0.027548
v -0.026682 -0.015725 0.024875
v -0.026576 -0.018718 0.025310
v -0.025997 -0.012846 0.027446
v -0.023048 -0.010521 0.028157
v -0.021912 -0.020836 0.031437
v -0.027083 -0.017538 0.025528
v -0.025204 -0.013397 0.031523
v -0.023557 -0.022854 0.029338
v -0.021491 -0.016118 0.033239
v -0.027678 -0.015668 0.029030
v -0.026424 -0.013810 0.030576
v -0.023884 -0.017136 0.036823
v -0.022825 -0.016135 0.035155
v -0.029236 -0.019951 0.030972
v -0.028523 -0.017502 0.032297
v -0.026978 -0.015911 0.033701
v -0.024517 -0.025394 0.033414
v -0.025544 -0.026363 0.033542
v -0.023322 -0.023674 0.033731
v -0.022953 -0.018747 0.036870
v -0.022853 -0.022068 0.036156
v 0.002094 -0.062454 0.063766
v 0.002053 -0.061117 0.064217
v 0.003604 -0.064571 0.064703
v 0.002372 -0.065638 0.063877
v 0.003464 -0.065766 0.065014
v 0.003896 -0.065050 0.065765
v -0.027764 -0.024370 0.031066
v -0.028610 -0.023057 0.030787
v -0.027161 -0.025548 0.032165
v -0.024996 -0.017852 0.037455
v -0.023515 -0.018574 0.038112
v -0.023837 -0.026128 0.036968
v -0.022852 -0.023931 0.039909
v 0.000560 -0.057290 0.065669
v 0.000450 -0.056983 0.066125
v 0.000346 -0.066667 0.063598
v 0.001375 -0.067112 0.064641
v 0.002638 -0.060367 0.066458
v 0.003058 -0.061368 0.066931
v 0.002469 -0.061417 0.067347
v 0.002522 -0.066379 0.064494
v 0.003031 -0.066505 0.065352
v 0.002656 -0.066511 0.066295
v 0.003795 -0.063586 0.066573
v 0.003430 -0.065934 0.066310
v 0.003610 -0.064795 0.067109
v 0.003600 -0.063988 0.067322
v -0.029540 -0.022359 0.032231
v -0.028161 -0.018369 0.035283
v -0.025436 -0.030249 0.037946
v -0.023275 -0.023567 0.043420
v -0.023054 -0.027105 0.040496
v -0.022789 -0.023713 0.042140
v -0.021948 -0.027568 0.043630
v -0.008432 -0.053805 0.058167
v -0.002470 -0.057823 0.062059
v -0.004011 -0.055778 0.061767
v -0.000811 -0.055539 0.065595
v -0.001854 -0.065679 0.062403
v -0.002439 -0.061515 0.061608
v -0.000193 -0.056424 0.066183
v -0.000253 -0.058828 0.066980
v -0.002020 -0.066809 0.063366
v -0.000453 -0.067200 0.065158
v 0.001573 -0.067011 0.065938
v 0.001984 -0.065725 0.067173
v -0.000051 -0.065970 0.066885
v 0.002163 -0.062719 0.067640
v -0.000459 -0.063354 0.067530
v -0.030301 -0.023962 0.035719
v -0.028918 -0.026669 0.034581
v -0.029446 -0.021585 0.036535
v -0.027635 -0.028949 0.035898
v -0.027053 -0.020454 0.039404
v -0.028294 -0.021577 0.039077
v -0.026580 -0.031588 0.038251
v -0.023760 -0.030481 0.040484
v -0.021725 -0.027893 0.046970
v -0.021038 -0.029318 0.046488
v -0.020778 -0.032903 0.046356
v -0.009031 -0.050981 0.058440
v -0.011433 -0.049490 0.056331
v -0.008041 -0.049429 0.060571
v -0.005353 -0.051566 0.063182
v -0.005345 -0.052143 0.064127
v -0.004110 -0.065707 0.062443
v -0.004125 -0.065204 0.061851
v -0.002990 -0.066571 0.064221
v -0.000663 -0.066784 0.066028
v -0.030280 -0.027237 0.037016
v -0.026910 -0.023716 0.042698
v -0.024596 -0.023495 0.043351
v -0.023403 -0.037412 0.044780
v -0.021972 -0.036598 0.045909
v -0.019353 -0.033069 0.050452
v -0.018798 -0.036000 0.049774
v -0.018803 -0.034049 0.050306
v -0.018568 -0.040778 0.050311
v -0.016375 -0.038694 0.052661
v -0.015898 -0.038689 0.054089
v -0.011578 -0.053540 0.056308
v -0.009950 -0.047024 0.059820
v -0.010985 -0.047316 0.060397
v -0.009843 -0.058369 0.057965
v -0.004877 -0.053675 0.064964
v -0.006059 -0.056683 0.065569
v -0.004601 -0.064974 0.065125
v -0.002469 -0.064953 0.066660
v -0.030368 -0.027406 0.039101
v -0.029854 -0.025418 0.039833
v -0.028559 -0.035549 0.041808
v -0.028537 -0.026818 0.043201
v -0.023344 -0.029833 0.048926
v -0.025333 -0.038038 0.043763
v -0.020867 -0.032297 0.050845
v -0.022289 -0.042455 0.047743
v -0.015539 -0.050285 0.053614
v -0.017523 -0.051312 0.053089
v -0.015901 -0.054643 0.054944
v -0.012514 -0.048536 0.060774
v -0.007975 -0.053357 0.064142
v -0.009423 -0.060889 0.059384
v -0.010347 -0.061507 0.060362
v -0.006778 -0.058735 0.065430
v -0.007498 -0.063796 0.062741
v -0.006590 -0.062594 0.064978
v -0.029965 -0.031297 0.040739
v -0.029498 -0.029402 0.042832
v -0.026955 -0.037837 0.043311
v -0.024724 -0.031873 0.049821
v -0.020958 -0.045776 0.049752
v -0.018104 -0.039621 0.056101
v -0.021361 -0.036125 0.053642
v -0.014498 -0.049426 0.060110
v -0.012906 -0.059771 0.059105
v -0.010590 -0.057756 0.063175
v -0.009606 -0.060969 0.063143
v -0.009744 -0.054703 0.063733
v -0.028968 -0.035823 0.042904
v -0.028779 -0.036733 0.044840
v -0.025123 -0.034140 0.050946
v -0.024427 -0.046253 0.049613
v -0.023234 -0.045446 0.048878
v -0.020400 -0.039602 0.055639
v -0.021922 -0.039805 0.055023
v -0.017458 -0.054914 0.055319
v -0.017493 -0.054897 0.056629
v -0.012492 -0.059026 0.061224
v -0.018598 -0.049864 0.057335
v -0.013026 -0.059528 0.059885
v -0.028061 -0.036189 0.047778
v -0.027401 -0.034476 0.048577
v -0.025948 -0.044138 0.049109
v -0.025774 -0.038855 0.051637
v -0.024695 -0.045997 0.049719
v -0.024806 -0.045947 0.051349
v -0.023052 -0.041793 0.054573
v -0.023439 -0.043174 0.054237
v -0.022575 -0.049072 0.052339
v -0.024599 -0.045846 0.052260
v -0.026150 -0.042839 0.050721
v 0.000951 0.004044 0.000690
vn 0.2849 0.2643 -0.9214
vn 0.1225 0.8139 -0.5679
vn 0.3452 0.6644 -0.6629
vn 0.3711 -0.0886 -0.9244
vn 0.7969 0.3894 -0.4619
vn 0.8098 -0.0642 -0.5831
vn -0.0296 -0.2544 -0.9666
vn 0.1807 -0.1031 -0.9781
vn 0.4240 0.9044 -0.0474
vn 0.7301 0.6825 0.0335
vn 0.6494 -0.1783 -0.7392
vn 0.5554 0.0445 -0.8304
vn 0.9562 0.2923 -0.0133
vn 0.8710 -0.0271 -0.4905
vn 0.4638 0.0213 -0.8857
vn 0.9827 0.0522 -0.1779
vn 0.8250 0.3055 0.4754
vn 0.5112 -0.2056 -0.8345
vn 0.7390 -0.3047 -0.6008
vn 0.9925 0.0708 0.0992
vn 0.9874 -0.1488 -0.0535
vn -0.2859 0.4465 -0.8479
vn -0.1193 0.5404 -0.8329
vn -0.0472 -0.2186 -0.9747
vn -0.0203 0.2209 -0.9751
vn 0.5379 0.6686 0.5134
vn 0.2432 0.8520 0.4636
vn 0.1492 -0.0126 -0.9887
vn 0.1013 -0.1481 -0.9838
vn 0.4864 0.4337 0.7585
vn 0.1977 -0.5645 -0.8014
vn 0.5762 -0.5672 -0.5884
vn 0.8396 -0.4489 -0.3060
vn 0.4856 -0.8060 -0.3385
vn 0.4930 -0.7268 -0.4781
vn 0.9568 -0.2068 -0.2043
vn 0.8767 -0.1783 0.4468
vn 0.6104 0.2286 0.7584
vn 0.8996 -0.3189 0.2983
vn 0.8059 -0.5236 0.2766
vn -0.1247 0.9801 -0.1545
vn 0.5247 0.7839 -0.3320
vn -0.0710 0.3615 -0.9296
vn -0.2926 0.9363 0.1940
vn -0.0092 0.0145 -0.9999
vn -0.2373 -0.2461 -0.9397
vn 0.0936 0.0283 -0.9952
vn -0.1375 -0.4300 -0.8923
vn -0.1002 -0.7895 -0.6055
vn 0.4067 -0.8183 -0.4062
vn 0.5191 -0.8455 -0.1253
vn 0.5651 -0.8161 0.1210
vn 0.6462 -0.0383 0.7622
vn 0.4514 -0.8291 0.3298
vn 0.6595 -0.5074 0.5546
vn -0.3760 0.1137 -0.9196
vn -0.5391 0.8166 -0.2063
vn 0.0644 -0.1362 -0.9886
vn 0.0804 0.1349 -0.9876
vn -0.0779 -0.0605 -0.9951
vn -0.4347 -0.4943 -0.7528
vn 0.0373 0.7475 0.6632
vn -0.3549 -0.6583 -0.6638
vn 0.4109 -0.9116 0.0105
vn 0.6337 -0.2626 0.7276
vn 0.5708 0.0361 0.8203
vn -0.6499 0.5886 -0.4807
vn -0.8166 0.4468 -0.3655
vn -0.1524 -0.1259 -0.9803
vn -0.6580 0.7506 0.0607
vn -0.4769 -0.4245 -0.7696
vn -0.4028 0.8460 0.3493
vn 0.2027 0.6089 0.7669
vn -0.0833 -0.8836 -0.4608
vn 0.4786 0.3078 0.8223
vn 0.6551 -0.3095 0.6892
vn -0.5384 -0.1027 -0.8364
vn -0.9105 0.0681 -0.4079
vn -0.8848 0.4612 -0.0660
vn -0.5462 -0.5377 -0.6423
vn -0.6584 0.7499 0.0640
vn -0.5941 -0.5949 -0.5414
vn -0.2865 -0.7298 -0.6207
vn 0.6156 0.0131 0.7880
vn 0.2749 -0.9510 -0.1414
vn 0.5940 -0.7387 0.3184
vn -0.5799 -0.4463 -0.6816
vn -0.9112 -0.0753 -0.4050
vn -0.8084 0.5238 -0.2686
vn -0.3909 -0.5368 -0.7477
vn -0.5921 -0.5442 -0.5944
vn -0.5053 -0.5789 -0.6400
vn -0.0481 -0.7949 -0.6048
vn 0.4631 -0.8859 -0.0263
vn -0.7527 -0.1145 -0.6483
vn -0.2632 0.8478 0.4604
vn 0.6861 -0.4570 0.5661
vn -0.8328 0.2259 -0.5054
vn -0.6589 0.7522 -0.0064
vn -0.3957 -0.4283 -0.8124
vn -0.6545 -0.1062 -0.7486
vn -0.0085 -0.7277 -0.6859
vn -0.7442 0.4098 -0.5275
vn 0.7078 -0.1799 0.6831
vn -0.7460 0.5179 -0.4187
vn 0.4384 0.4518 0.7770
vn -0.7025 0.1183 -0.7018
vn -0.4527 0.8613 0.2306
vn -0.0134 0.7832 0.6216
vn 0.1729 -0.8213 -0.5436
vn 0.5420 -0.8404 -0.0002
vn 0.7265 -0.5389 0.4264
vn -0.2645 -0.5175 -0.8138
vn 0.6190 0.1381 0.7731
vn -0.5601 -0.2167 -0.7996
vn -0.7511 0.5955 -0.2848
vn -0.1764 0.8344 0.5222
vn 0.4662 -0.8404 -0.2763
vn -0.5138 0.8306 0.2148
vn 0.7630 -0.5991 0.2427
vn 0.7817 0.0125 0.6235
vn 0.1464 0.7239 0.6742
vn 0.8227 -0.2514 0.5098
vn -0.6262 0.7797 -0.0017
vn -0.2151 -0.6251 -0.7503
vn 0.6244 0.3113 0.7164
vn 0.8122 -0.4279 0.3965
vn -0.3069 -0.5976 -0.7408
vn 0.0651 -0.8320 -0.5509
vn -0.7899 0.2136 -0.5749
vn 0.4389 0.5673 0.6968
vn 0.7666 -0.6353 0.0936
vn -0.6913 -0.1945 -0.6959
vn -0.3550 -0.5397 -0.7633
vn -0.8133 0.5477 -0.1963
vn -0.3132 -0.6466 -0.6956
vn 0.8350 0.0837 0.5439
vn -0.6408 0.7487 0.1697
vn -0.3015 0.8290 0.4711
vn -0.8918 0.1935 -0.4089
vn -0.6806 -0.3809 -0.6258
vn 0.1027 0.7488 0.6548
vn 0.7589 -0.6482 -0.0624
vn 0.9279 -0.3377 0.1577
vn 0.8959 0.0194 0.4439
vn -0.8707 -0.0797 -0.4853
vn -0.8379 0.5406 -0.0757
vn -0.3576 0.7898 0.4984
vn 0.4855 -0.8048 -0.3414
vn 0.6436 0.4597 0.6119
vn -0.9126 0.3978 -0.0939
vn -0.7182 0.6574 0.2278
vn -0.0329 -0.7605 -0.6485
vn -0.9706 0.1134 -0.2122
vn 0.7335 -0.6133 -0.2928
vn 0.3484 -0.7244 -0.5949
vn 0.8943 -0.4442 -0.0535
vn 0.9901 -0.1350 0.0386
vn 0.9513 0.1229 0.2828
vn -0.8976 0.4288 0.1027
vn -0.6025 0.6745 0.4266
vn -0.4580 -0.6328 -0.6243
vn -0.2185 0.7364 0.6403
vn 0.6839 0.5306 0.5008
vn 0.9201 -0.3132 -0.2353
vn 0.5702 0.1275 -0.8116
vn 0.8377 0.0411 -0.5446
vn 0.4843 -0.2605 -0.8352
vn 0.7384 0.3613 -0.5694
vn 0.8715 0.4895 0.0305
vn 0.8196 -0.4243 -0.3849
vn 0.9839 -0.1726 -0.0456
vn -0.9333 -0.1271 -0.3358
vn -0.7530 -0.3812 -0.5364
vn -0.7639 0.5366 0.3586
vn 0.6577 -0.5048 -0.5592
vn 0.9920 -0.0472 -0.1172
vn 0.4555 0.6657 0.5911
vn 0.9520 0.2803 0.1226
vn 0.9388 -0.1574 -0.3062
vn 0.4432 -0.0264 -0.8961
vn 0.6204 0.2849 -0.7307
vn 0.2271 -0.4109 -0.8829
vn 0.7663 0.5173 -0.3810
vn 0.7288 0.5934 0.3416
vn 0.5156 -0.6259 -0.5851
vn 0.2297 -0.6638 -0.7117
vn 0.2493 -0.9219 -0.2964
vn 0.8310 0.3785 0.4077
vn 0.3331 0.2829 0.8995
vn 0.6261 -0.7704 -0.1202
vn 0.1350 -0.9097 0.3928
vn 0.3671 -0.7881 0.4941
vn 0.7244 -0.5869 0.3617
vn 0.9788 0.1952 0.0621
vn 0.6470 -0.0324 0.7618
vn 0.1069 0.0149 0.9942
vn 0.6851 -0.2898 0.6683
vn 0.0916 -0.4497 0.8885
vn -0.6229 -0.5454 -0.5608
vn -0.9224 -0.2533 -0.2915
vn -0.8943 0.3758 0.2428
vn -0.4571 0.6510 0.6061
vn 0.2931 -0.6114 -0.7351
vn 0.8480 -0.2284 -0.4783
vn 0.9518 0.0204 -0.3060
vn 0.6863 0.4055 -0.6038
vn 0.5980 0.1105 -0.7938
vn 0.6957 0.7183 -0.0053
vn 0.6297 0.7586 0.1675
vn -0.1093 -0.8985 -0.4251
vn 0.3359 0.5560 0.7603
vn -0.0192 0.2305 0.9729
vn -0.1273 -0.9834 0.1293
vn -0.1626 -0.0673 0.9844
vn -0.2461 -0.7774 0.5788
vn -0.1366 -0.5096 0.8495
vn -0.9944 0.0991 -0.0366
vn -0.7364 0.4919 0.4645
vn -0.1730 -0.6578 -0.7331
vn -0.4888 0.5689 0.6613
vn -0.1369 0.6746 0.7254
vn 0.5915 0.6263 0.5079
vn 0.9575 0.2606 -0.1233
vn 0.8720 -0.0585 -0.4859
vn 0.7189 0.6056 0.3413
vn 0.6244 0.0251 -0.7807
vn 0.7377 0.2369 -0.6322
vn 0.7857 0.4068 -0.4660
vn 0.5248 0.7224 0.4504
vn 0.2608 -0.3231 -0.9097
vn 0.1335 0.6513 0.7470
vn -0.0858 0.3880 0.9177
vn -0.3367 -0.8486 -0.4080
vn -0.0627 -0.6126 -0.7879
vn -0.4350 -0.8860 0.1605
vn -0.3914 -0.3813 0.8375
vn -0.8957 0.2878 0.3390
vn -0.1292 0.6182 0.7753
vn 0.7446 -0.2132 -0.6326
vn 0.6083 -0.3641 -0.7052
vn 0.2245 0.6447 0.7307
vn 0.8187 0.0304 -0.5735
vn 0.9152 0.3254 -0.2377
vn 0.6692 -0.0926 -0.7372
vn 0.8342 0.2013 -0.5134
vn 0.8184 0.5746 -0.0062
vn 0.4680 -0.1868 -0.8638
vn 0.4710 -0.0884 -0.8777
vn 0.0338 0.5693 0.8215
vn -0.0949 -0.6139 -0.7837
vn 0.0563 -0.5226 -0.8507
vn -0.2844 0.3116 0.9066
vn -0.3369 -0.8067 -0.4855
vn -0.2745 0.1576 0.9486
vn -0.4224 -0.0284 0.9060
vn -0.5584 -0.6122 0.5598
vn -0.5651 -0.5636 -0.6025
vn -0.9931 0.0267 0.1140
vn -0.9784 -0.2008 -0.0491
vn -0.7481 0.3568 0.5595
vn 0.3404 -0.5119 -0.7887
vn 0.5129 -0.3448 -0.7861
vn 0.4059 -0.2838 -0.8687
vn 0.0119 0.5188 0.8548
vn 0.3323 -0.3177 -0.8881
vn -0.2741 0.3308 0.9030
vn -0.4710 0.1129 0.8749
vn -0.4809 0.1212 0.8684
vn -0.5085 -0.8017 -0.3142
vn -0.6205 -0.7667 0.1646
vn -0.5896 -0.0953 0.8020
vn -0.6570 -0.3934 0.6432
vn -0.5591 -0.3077 0.7699
vn -0.9214 0.1197 0.3697
vn -0.0313 -0.6199 -0.7840
vn -0.5563 0.3499 0.7537
vn -0.4229 0.4944 0.7594
vn 0.1010 -0.5270 -0.8439
vn -0.1977 0.4980 0.8444
vn -0.2998 0.3309 0.8948
vn -0.4886 0.2294 0.8418
vn -0.4784 -0.7447 -0.4654
vn -0.6403 -0.0965 0.7621
vn -0.7372 -0.6042 0.3025
vn -0.7060 -0.3509 0.6152
vn -0.9692 -0.2314 0.0849
vn -0.8870 -0.3989 -0.2326
vn -0.9209 -0.0123 0.3895
vn -0.7977 0.2036 0.5676
vn -0.8572 -0.4940 -0.1454
vn -0.4605 -0.6892 -0.5594
vn -0.7691 -0.6389 -0.0142
vn -0.7939 -0.5469 0.2657
vn -0.6960 -0.0749 0.7141
vn -0.6099 0.0669 0.7897
vn -0.9052 -0.1969 0.3766
vn -0.7608 0.0763 0.6445
vn -0.7709 -0.6062 -0.1955
vn -0.8655 -0.4856 0.1227
vn -0.8300 -0.3167 0.4591
s 1
usemtl mtl1.1070
f 1//1 2//2 4//3
f 3//4 1//1 6//5
f 1//1 4//3 6//5
f 3//4 6//5 5//6
f 34//7 3//4 20//8
f 4//3 19//9 8//10
f 4//3 2//2 19//9
f 11//11 20//8 3//4
f 11//11 3//4 5//6
f 10//12 20//8 11//11
f 8//10 7//13 6//5
f 8//10 6//5 4//3
f 14//14 10//12 11//11
f 10//12 14//14 9//15
f 9//15 20//8 10//12
f 5//6 12//16 11//11
f 6//5 7//13 5//6
f 5//6 7//13 12//16
f 8//10 16//17 7//13
f 23//18 9//15 13//19
f 13//19 9//15 14//14
f 11//11 12//16 14//14
f 12//16 15//20 14//14
f 12//16 7//13 16//17
f 15//20 17//21 14//14
f 12//16 16//17 15//20
f 30//22 18//23 1//1
f 1//1 3//4 31//24
f 30//22 1//1 31//24
f 1//1 18//23 2//2
f 9//15 33//25 20//8
f 8//10 19//9 21//26
f 35//27 21//26 19//9
f 9//15 23//18 22//28
f 38//29 22//28 23//18
f 21//26 16//17 8//10
f 16//17 21//26 41//30
f 23//18 39//31 38//29
f 42//32 39//31 23//18
f 42//32 23//18 13//19
f 24//33 27//34 13//19
f 42//32 13//19 26//35
f 25//36 13//19 14//14
f 13//19 25//36 24//33
f 27//34 26//35 13//19
f 25//36 14//14 17//21
f 29//37 15//20 16//17
f 16//17 44//38 29//37
f 24//33 25//36 28//39
f 28//39 46//40 24//33
f 25//36 17//21 28//39
f 29//37 28//39 17//21
f 29//37 17//21 15//20
f 30//22 32//41 18//23
f 32//41 2//2 18//23
f 51//42 37//43 33//25
f 34//7 31//24 3//4
f 2//2 32//41 19//9
f 19//9 32//41 35//27
f 35//27 32//41 36//44
f 54//45 38//29 53//46
f 54//45 33//25 9//15
f 50//47 33//25 54//45
f 9//15 22//28 54//45
f 20//8 33//25 37//43
f 34//7 20//8 37//43
f 21//26 35//27 41//30
f 38//29 39//31 40//48
f 53//46 38//29 40//48
f 54//45 22//28 38//29
f 40//48 39//31 56//49
f 39//31 42//32 43//50
f 16//17 41//30 44//38
f 42//32 26//35 43//50
f 26//35 58//51 43//50
f 58//51 26//35 59//52
f 29//37 44//38 48//53
f 27//34 24//33 46//40
f 26//35 27//34 59//52
f 27//34 46//40 45//54
f 27//34 45//54 59//52
f 28//39 47//55 46//40
f 47//55 28//39 29//37
f 45//54 46//40 47//55
f 47//55 29//37 48//53
f 31//24 61//56 30//22
f 63//57 32//41 30//22
f 50//47 49//58 52//59
f 31//24 34//7 49//58
f 36//44 32//41 63//57
f 37//43 52//59 34//7
f 52//59 37//43 301//60
f 52//59 301//60 51//42
f 34//7 52//59 49//58
f 51//42 33//25 52//59
f 33//25 50//47 52//59
f 66//61 53//46 40//48
f 55//62 41//30 35//27
f 36//44 55//62 35//27
f 56//49 57//63 40//48
f 56//49 39//31 43//50
f 67//64 43//50 58//51
f 58//51 59//52 67//64
f 60//65 47//55 48//53
f 59//52 45//54 47//55
f 48//53 44//38 68//66
f 62//67 30//22 61//56
f 71//68 62//67 61//56
f 62//67 63//57 30//22
f 49//58 50//47 64//69
f 49//58 64//69 61//56
f 61//56 31//24 49//58
f 62//67 65//70 63//57
f 36//44 63//57 65//70
f 72//71 64//69 53//46
f 54//45 64//69 50//47
f 54//45 53//46 64//69
f 74//72 36//44 65//70
f 57//63 66//61 40//48
f 36//44 74//72 55//62
f 41//30 55//62 95//73
f 76//74 57//63 56//49
f 92//75 44//38 41//30
f 56//49 43//50 67//64
f 67//64 59//52 47//55
f 68//66 60//65 48//53
f 60//65 68//66 85//76
f 69//77 61//56 64//69
f 61//56 69//77 70//78
f 70//78 79//79 71//68
f 61//56 70//78 71//68
f 65//70 62//67 71//68
f 72//71 69//77 64//69
f 79//79 65//70 71//68
f 53//46 73//80 72//71
f 66//61 73//80 53//46
f 81//81 74//72 65//70
f 75//82 66//61 57//63
f 66//61 75//82 73//80
f 83//83 57//63 76//74
f 44//38 92//75 97//84
f 56//49 77//85 76//74
f 67//64 77//85 56//49
f 67//64 78//86 77//85
f 67//64 47//55 78//86
f 70//78 69//77 72//71
f 70//78 72//71 80//87
f 86//88 70//78 80//87
f 79//79 70//78 86//88
f 72//71 73//80 80//87
f 79//79 81//81 65//70
f 81//81 79//79 90//89
f 87//90 73//80 82//91
f 73//80 87//90 80//87
f 82//91 73//80 75//82
f 82//91 75//82 84//92
f 75//82 57//63 83//83
f 83//83 84//92 75//82
f 76//74 77//85 96//93
f 77//85 93//94 96//93
f 47//55 60//65 78//86
f 85//76 78//86 60//65
f 80//87 88//95 86//88
f 94//96 55//62 74//72
f 55//62 94//96 95//73
f 81//81 94//96 74//72
f 87//90 82//91 84//92
f 83//83 76//74 96//93
f 93//94 77//85 78//86
f 85//76 68//66 98//97
f 78//86 85//76 98//97
f 89//98 79//79 86//88
f 79//79 89//98 90//89
f 88//95 89//98 86//88
f 81//81 91//99 94//96
f 81//81 90//89 91//99
f 100//100 80//87 87//90
f 41//30 95//73 92//75
f 96//93 84//92 83//83
f 93//94 78//86 98//97
f 80//87 99//101 88//95
f 88//95 99//101 89//98
f 80//87 100//100 99//101
f 87//90 84//92 96//93
f 96//93 102//102 87//90
f 68//66 97//84 98//97
f 97//84 68//66 44//38
f 101//103 90//89 89//98
f 90//89 101//103 91//99
f 98//97 97//84 104//104
f 99//101 101//103 89//98
f 101//103 103//105 91//99
f 95//73 110//106 92//75
f 113//107 101//103 99//101
f 91//99 109//108 94//96
f 100//100 87//90 102//102
f 106//109 95//73 94//96
f 93//94 102//102 96//93
f 114//110 93//94 111//111
f 98//97 108//112 93//94
f 108//112 98//97 104//104
f 105//113 100//100 102//102
f 104//104 97//84 107//114
f 92//75 107//114 97//84
f 110//106 107//114 92//75
f 105//113 112//115 100//100
f 100//100 112//115 99//101
f 109//108 106//109 94//96
f 114//110 102//102 93//94
f 105//113 102//102 114//110
f 93//94 108//112 111//111
f 112//115 113//107 99//101
f 103//105 123//116 91//99
f 109//108 91//99 123//116
f 116//117 106//109 109//108
f 106//109 110//106 95//73
f 114//110 111//111 126//118
f 120//119 116//117 109//108
f 121//120 111//111 108//112
f 104//104 118//121 108//112
f 101//103 113//107 103//105
f 116//117 115//122 106//109
f 110//106 106//109 115//122
f 118//121 104//104 107//114
f 108//112 122//123 121//120
f 122//123 108//112 118//121
f 103//105 113//107 123//116
f 119//124 109//108 123//116
f 109//108 119//124 120//119
f 117//125 105//113 114//110
f 112//115 105//113 117//125
f 110//106 115//122 125//126
f 111//111 121//120 126//118
f 122//123 138//127 121//120
f 128//128 117//125 124//129
f 114//110 126//118 124//129
f 117//125 114//110 124//129
f 107//114 125//126 118//121
f 107//114 110//106 125//126
f 127//130 123//116 113//107
f 117//125 128//128 112//115
f 116//117 130//131 115//122
f 134//132 126//118 121//120
f 112//115 131//133 113//107
f 112//115 128//128 129//134
f 128//128 124//129 129//134
f 130//131 125//126 115//122
f 134//132 121//120 138//127
f 131//133 127//130 113//107
f 127//130 132//135 123//116
f 132//135 119//124 123//116
f 112//115 129//134 131//133
f 133//136 129//134 124//129
f 118//121 125//126 136//137
f 136//137 122//123 118//121
f 135//138 119//124 132//135
f 119//124 135//138 120//119
f 120//119 142//139 116//117
f 135//138 142//139 120//119
f 138//127 122//123 136//137
f 131//133 139//140 127//130
f 132//135 127//130 139//140
f 133//136 140//141 131//133
f 129//134 133//136 131//133
f 150//142 130//131 116//117
f 137//143 134//132 143//144
f 136//137 125//126 130//131
f 143//144 134//132 147//145
f 134//132 138//127 147//145
f 131//133 140//141 144//146
f 131//133 144//146 139//140
f 132//135 141//147 135//138
f 145//148 142//139 135//138
f 142//139 150//142 116//117
f 126//118 134//132 146//149
f 146//149 134//132 137//143
f 138//127 136//137 147//145
f 136//137 130//131 151//150
f 151//150 130//131 150//142
f 136//137 151//150 147//145
f 141//147 132//135 139//140
f 148//151 141//147 139//140
f 135//138 149//152 145//148
f 168//153 133//136 124//129
f 124//129 146//149 168//153
f 126//118 146//149 124//129
f 139//140 144//146 152//154
f 149//152 135//138 141//147
f 148//151 149//152 141//147
f 145//148 150//142 142//139
f 155//155 156//156 146//149
f 155//155 146//149 137//143
f 143//144 157//157 137//143
f 155//155 137//143 157//157
f 159//158 157//157 143//144
f 147//145 158//159 143//144
f 143//144 158//159 159//158
f 148//151 139//140 152//154
f 153//160 148//151 152//154
f 148//151 153//160 149//152
f 145//148 149//152 154//161
f 166//162 133//136 168//153
f 156//156 168//153 146//149
f 145//148 169//163 150//142
f 151//150 158//159 147//145
f 151//150 170//164 158//159
f 170//164 151//150 150//142
f 171//165 157//157 159//158
f 160//166 162//167 163//168
f 160//166 161//169 162//167
f 161//169 177//170 162//167
f 164//171 162//167 165//172
f 163//168 162//167 164//171
f 187//173 152//154 144//146
f 166//162 140//141 133//136
f 140//141 166//162 167//174
f 140//141 167//174 144//146
f 167//174 187//173 144//146
f 154//161 149//152 153//160
f 188//175 154//161 153//160
f 154//161 169//163 145//148
f 156//156 155//155 189//176
f 157//157 171//165 155//155
f 158//159 172//177 159//158
f 172//177 171//165 159//158
f 170//164 190//178 158//159
f 150//142 190//178 170//164
f 190//178 192//179 158//159
f 191//180 171//165 172//177
f 160//166 199//181 195//182
f 195//182 161//169 160//166
f 163//168 198//183 160//166
f 173//184 177//170 161//169
f 173//184 174//185 177//170
f 163//168 180//186 175//187
f 176//188 175//187 180//186
f 177//170 174//185 178//189
f 174//185 179//190 178//189
f 180//186 164//171 181//191
f 176//188 180//186 181//191
f 204//192 176//188 181//191
f 182//193 204//192 181//191
f 163//168 164//171 180//186
f 164//171 165//172 181//191
f 181//191 165//172 184//194
f 162//167 183//195 165//172
f 162//167 177//170 183//195
f 178//189 183//195 177//170
f 183//195 178//189 186//196
f 178//189 179//190 186//196
f 207//197 186//196 179//190
f 182//193 181//191 184//194
f 182//193 184//194 185//198
f 185//198 205//199 182//193
f 165//172 183//195 185//198
f 185//198 183//195 186//196
f 185//198 184//194 165//172
f 186//196 205//199 185//198
f 210//200 167//174 166//162
f 210//200 229//201 167//174
f 229//201 187//173 167//174
f 188//175 153//160 211//202
f 213//203 169//163 154//161
f 171//165 189//176 155//155
f 215//204 156//156 189//176
f 150//142 169//163 190//178
f 171//165 216//205 189//176
f 216//205 171//165 191//180
f 172//177 158//159 192//179
f 193//206 191//180 172//177
f 196//207 195//182 194//208
f 195//182 199//181 194//208
f 196//207 173//184 195//182
f 223//209 173//184 196//207
f 223//209 197//210 173//184
f 198//183 199//181 160//166
f 161//169 195//182 173//184
f 175//187 202//211 198//183
f 197//210 174//185 173//184
f 200//212 174//185 197//210
f 163//168 175//187 198//183
f 179//190 200//212 201//213
f 200//212 179//190 174//185
f 176//188 202//211 175//187
f 203//214 202//211 176//188
f 201//213 207//197 179//190
f 207//197 201//213 208//215
f 204//192 203//214 176//188
f 228//216 203//214 204//192
f 228//216 204//192 205//199
f 205//199 204//192 182//193
f 206//217 228//216 205//199
f 205//199 186//196 208//215
f 186//196 207//197 208//215
f 153//160 152//154 209//218
f 187//173 209//218 152//154
f 209//218 187//173 229//201
f 209//218 211//202 153//160
f 188//175 211//202 214//219
f 154//161 188//175 213//203
f 213//203 188//175 214//219
f 212//220 210//200 166//162
f 212//220 166//162 168//153
f 215//204 212//220 156//156
f 212//220 168//153 156//156
f 169//163 213//203 230//221
f 230//221 231//222 169//163
f 231//222 190//178 169//163
f 192//179 190//178 217//223
f 216//205 191//180 193//206
f 172//177 192//179 193//206
f 193//206 192//179 218//224
f 192//179 217//223 218//224
f 193//206 219//225 216//205
f 193//206 218//224 219//225
f 218//224 217//223 234//226
f 221//227 220//228 194//208
f 194//208 220//228 196//207
f 220//228 222//229 196//207
f 222//229 241//230 223//209
f 222//229 223//209 196//207
f 198//183 243//231 199//181
f 224//232 197//210 223//209
f 197//210 224//232 200//212
f 224//232 244//233 200//212
f 200//212 244//233 201//213
f 202//211 225//234 226//235
f 227//236 225//234 202//211
f 202//211 226//235 198//183
f 202//211 203//214 227//236
f 228//216 227//236 203//214
f 208//215 247//237 206//217
f 205//199 208//215 206//217
f 211//202 209//218 249//238
f 214//219 230//221 213//203
f 231//222 252//239 190//178
f 230//221 252//239 231//222
f 189//176 216//205 233//240
f 217//223 190//178 252//239
f 189//176 233//240 232//241
f 252//239 254//242 217//223
f 219//225 233//240 216//205
f 233//240 219//225 235//243
f 218//224 234//226 236//244
f 219//225 218//224 235//243
f 218//224 236//244 235//243
f 233//240 235//243 237//245
f 235//243 238//246 237//245
f 238//246 235//243 236//244
f 239//247 236//244 234//226
f 239//247 234//226 254//242
f 236//244 239//247 238//246
f 237//245 238//246 221//227
f 221//227 256//248 237//245
f 238//246 220//228 221//227
f 256//248 221//227 240//249
f 238//246 239//247 222//229
f 238//246 222//229 220//228
f 240//249 221//227 194//208
f 199//181 240//249 194//208
f 239//247 241//230 222//229
f 199//181 243//231 240//249
f 241//230 224//232 223//209
f 242//250 224//232 241//230
f 226//235 261//251 243//231
f 258//252 243//231 261//251
f 243//231 198//183 226//235
f 260//253 244//233 224//232
f 262//254 226//235 225//234
f 244//233 245//255 201//213
f 208//215 245//255 263//256
f 201//213 245//255 208//215
f 227//236 228//216 246//257
f 247//237 208//215 263//256
f 228//216 206//217 247//237
f 246//257 228//216 247//237
f 229//201 210//200 250//258
f 248//259 229//201 266//260
f 209//218 229//201 248//259
f 249//238 209//218 248//259
f 211//202 249//238 214//219
f 229//201 250//258 266//260
f 230//221 214//219 251//261
f 249//238 251//261 214//219
f 250//258 210//200 212//220
f 212//220 215//204 253//262
f 232//241 215//204 189//176
f 215//204 232//241 253//262
f 255//263 253//262 232//241
f 232//241 233//240 237//245
f 255//263 232//241 237//245
f 234//226 217//223 254//242
f 270//264 255//263 237//245
f 256//248 270//264 237//245
f 254//242 241//230 239//247
f 241//230 254//242 271//265
f 240//249 257//266 256//248
f 271//265 242//250 241//230
f 257//266 240//249 243//231
f 243//231 258//252 257//266
f 259//267 260//253 224//232
f 242//250 259//267 224//232
f 277//268 260//253 273//269
f 261//251 226//235 262//254
f 274//270 262//254 264//271
f 263//256 245//255 277//268
f 277//268 275//272 263//256
f 260//253 245//255 244//233
f 245//255 260//253 277//268
f 264//271 225//234 227//236
f 264//271 262//254 225//234
f 227//236 246//257 264//271
f 276//273 264//271 246//257
f 276//273 246//257 265//274
f 247//237 265//274 246//257
f 265//274 247//237 263//256
f 267//275 249//238 248//259
f 249//238 267//275 251//261
f 212//220 268//276 250//258
f 212//220 253//262 268//276
f 230//221 280//277 269//278
f 230//221 269//278 252//239
f 268//276 253//262 282//279
f 253//262 255//263 282//279
f 270//264 282//279 255//263
f 252//239 272//280 254//242
f 269//278 272//280 252//239
f 254//242 272//280 271//265
f 270//264 257//266 282//279
f 282//279 257//266 258//252
f 256//248 257//266 270//264
f 283//281 259//267 271//265
f 259//267 283//281 284//282
f 259//267 242//250 271//265
f 285//283 258//252 261//251
f 273//269 259//267 284//282
f 261//251 274//270 285//283
f 277//268 288//284 275//272
f 262//254 274//270 261//251
f 273//269 288//284 277//268
f 260//253 259//267 273//269
f 264//271 289//285 274//270
f 287//286 276//273 275//272
f 276//273 265//274 275//272
f 289//285 264//271 287//286
f 264//271 276//273 287//286
f 275//272 265//274 263//256
f 248//259 266//260 267//275
f 267//275 266//260 279//287
f 250//258 278//288 266//260
f 278//288 279//287 266//260
f 267//275 290//289 291//290
f 251//261 267//275 291//290
f 230//221 251//261 280//277
f 292//291 278//288 250//258
f 292//291 279//287 278//288
f 251//261 291//290 280//277
f 268//276 281//292 250//258
f 281//292 292//291 250//258
f 281//292 268//276 282//279
f 280//277 272//280 269//278
f 258//252 281//292 282//279
f 272//280 280//277 284//282
f 283//281 271//265 272//280
f 284//282 283//281 272//280
f 298//293 281//292 285//283
f 298//293 285//283 286//294
f 297//295 288//284 296//296
f 281//292 258//252 285//283
f 273//269 284//282 296//296
f 275//272 288//284 287//286
f 288//284 273//269 296//296
f 289//285 287//286 286//294
f 285//283 274//270 286//294
f 274//270 289//285 286//294
f 279//287 290//289 267//275
f 290//289 279//287 300//297
f 293//298 291//290 290//289
f 280//277 291//290 293//298
f 281//292 294//299 292//291
f 292//291 300//297 279//287
f 300//297 293//298 290//289
f 293//298 297//295 296//296
f 294//299 295//300 292//291
f 293//298 296//296 284//282
f 293//298 284//282 280//277
f 281//292 298//293 294//299
f 298//293 295//300 294//299
f 295//300 298//293 299//301
f 299//301 288//284 297//295
f 298//293 286//294 299//301
f 288//284 299//301 287//286
f 299//301 286//294 287//286
f 292//291 295//300 300//297
f 300//297 297//295 293//298
f 300//297 295//300 299//301
f 300//297 299//301 297//295
