# Blender 4.0.2
# www.blender.org
mtllib rib3_l.mtl
o rib3_l.002
v 0.122882 -0.076104 -0.035731
v 0.120666 -0.075086 -0.034297
v 0.119734 -0.082422 -0.035238
v 0.121576 -0.081769 -0.036033
v 0.122869 -0.075629 -0.035623
v 0.122378 -0.080690 -0.037156
v 0.122921 -0.079081 -0.036646
v 0.120837 -0.068592 -0.033781
v 0.118089 -0.081680 -0.034702
v 0.122264 -0.073166 -0.034966
v 0.117144 -0.066524 -0.032369
v 0.114943 -0.071710 -0.032400
v 0.119459 -0.067318 -0.032928
v 0.115491 -0.077919 -0.034005
v 0.119909 -0.072233 -0.038846
v 0.117347 -0.082260 -0.038296
v 0.119289 -0.082615 -0.037067
v 0.120820 -0.079563 -0.039774
v 0.114851 -0.068582 -0.032491
v 0.115670 -0.067255 -0.032013
v 0.115602 -0.067479 -0.032069
v 0.117200 -0.066181 -0.033372
v 0.115722 -0.067171 -0.032079
v 0.118802 -0.067571 -0.036553
v 0.114930 -0.079950 -0.037771
v 0.118554 -0.082390 -0.039789
v 0.114204 -0.075019 -0.035752
v 0.116522 -0.081678 -0.041487
v 0.118492 -0.081510 -0.041650
v 0.113727 -0.065722 -0.038370
v 0.112945 -0.068944 -0.038614
v 0.113725 -0.077944 -0.040446
v 0.116034 -0.081008 -0.045121
v 0.110213 -0.063937 -0.052395
v 0.113780 -0.073458 -0.039437
v 0.116841 -0.067895 -0.042619
v 0.113053 -0.079224 -0.043773
v 0.115157 -0.070499 -0.048297
v 0.111580 -0.067472 -0.042753
v 0.110602 -0.063939 -0.047980
v 0.111111 -0.077378 -0.046112
v 0.111939 -0.079647 -0.050930
v 0.112379 -0.077335 -0.053737
v 0.111862 -0.065164 -0.042909
v 0.114001 -0.075971 -0.051924
v 0.107812 -0.075893 -0.051375
v 0.107952 -0.077313 -0.052535
v 0.108920 -0.065019 -0.047896
v 0.109123 -0.063644 -0.049180
v 0.111112 -0.078140 -0.054278
v 0.109826 -0.073875 -0.057209
v 0.105931 -0.067766 -0.052957
v 0.108406 -0.062745 -0.053206
v 0.109434 -0.066363 -0.055847
v 0.108437 -0.075037 -0.058320
v 0.102045 -0.073303 -0.057968
v 0.105905 -0.076990 -0.058415
v 0.104303 -0.063504 -0.053735
v 0.103590 -0.061284 -0.056206
v 0.100493 -0.067342 -0.058524
v 0.099849 -0.073997 -0.062664
v 0.105803 -0.065009 -0.059954
v 0.099115 -0.073234 -0.064501
v 0.101855 -0.071727 -0.063913
v 0.097578 -0.058706 -0.062388
v 0.101004 -0.060288 -0.061850
v 0.095764 -0.071433 -0.064409
v 0.097956 -0.061123 -0.059575
v 0.092495 -0.070072 -0.071293
v 0.093584 -0.069250 -0.071178
v 0.094514 -0.057943 -0.063804
v 0.093019 -0.058586 -0.069619
v 0.091666 -0.059349 -0.071222
v 0.091103 -0.058620 -0.064681
v 0.095713 -0.057793 -0.066055
v 0.091479 -0.070240 -0.071204
v 0.090427 -0.055205 -0.067299
v 0.087459 -0.058866 -0.067071
v 0.086248 -0.066723 -0.071867
v 0.087442 -0.068135 -0.073185
v 0.082620 -0.051779 -0.074446
v 0.079516 -0.053097 -0.071048
v 0.079084 -0.064178 -0.079574
v 0.081579 -0.064468 -0.079254
v 0.081565 -0.051149 -0.071467
v 0.084452 -0.052037 -0.071502
v 0.070445 -0.056789 -0.079507
v 0.071484 -0.060435 -0.082605
v 0.065364 -0.045853 -0.077585
v 0.066518 -0.044958 -0.077009
v 0.069845 -0.044907 -0.076540
v 0.067621 -0.050970 -0.078225
v 0.071141 -0.060469 -0.084333
v 0.073626 -0.061323 -0.083677
v 0.066664 -0.042871 -0.079712
v 0.063561 -0.042271 -0.082772
v 0.069964 -0.047221 -0.081327
v 0.068257 -0.057249 -0.086890
v 0.069845 -0.053169 -0.084711
v 0.002859 0.001216 -0.001756
v 0.006080 0.006382 -0.002714
v 0.006997 0.004317 -0.004016
v 0.007070 0.005843 -0.003335
v 0.007405 0.005936 -0.004068
v 0.007164 0.007526 -0.004339
v -0.002873 -0.003109 -0.000141
v -0.001519 -0.003315 -0.000907
v -0.000568 -0.001127 -0.000688
v 0.001538 0.007491 -0.001711
v 0.005265 0.008212 -0.002888
v -0.001257 -0.003607 -0.001990
v 0.000883 -0.001435 -0.002399
v 0.005193 0.008762 -0.003747
v 0.002909 -0.000105 -0.002853
v 0.006192 0.003489 -0.004860
v 0.007252 0.006609 -0.004766
v 0.006252 0.007887 -0.005037
v -0.002136 0.006938 0.000087
v -0.001932 0.001862 -0.000619
v -0.004666 -0.001873 -0.000139
v -0.003510 -0.003578 -0.000602
v -0.002436 -0.003765 -0.002345
v 0.001688 0.000788 -0.005209
v 0.002810 0.004435 -0.006612
v 0.059950 -0.041959 -0.079718
v 0.056863 -0.053631 -0.090008
v 0.060322 -0.055289 -0.089333
v 0.064071 -0.056532 -0.088544
v -0.004112 0.006822 -0.000106
v -0.003325 0.007558 0.000025
v -0.003390 0.005583 0.000134
v -0.002403 0.008577 -0.000787
v -0.005432 0.002872 -0.001210
v 0.000727 0.009387 -0.003354
v -0.007451 -0.001685 -0.001900
v 0.002035 0.008766 -0.005100
v 0.001032 0.006879 -0.006908
v -0.002578 -0.002660 -0.005742
v 0.059528 -0.040599 -0.080779
v 0.060418 -0.040523 -0.081588
v -0.005236 0.005443 -0.001081
v -0.007432 -0.000894 -0.001450
v -0.001496 0.009465 -0.002843
v -0.004478 -0.000416 -0.011237
v -0.001585 0.000810 -0.008006
v 0.055077 -0.042184 -0.081901
v 0.053843 -0.039783 -0.090233
v 0.057357 -0.047164 -0.091290
v -0.006560 0.002819 -0.001953
v -0.007109 -0.002127 -0.010418
v -0.000451 0.003624 -0.008246
v 0.055187 -0.047742 -0.085250
v 0.057182 -0.052912 -0.091432
v -0.006289 0.005664 -0.005432
v -0.005033 0.008979 -0.008103
v -0.008845 -0.000849 -0.006781
v -0.009870 0.000670 -0.008042
v -0.002194 0.009222 -0.006598
v -0.001306 0.008182 -0.008437
v -0.005808 -0.001914 -0.010822
v -0.001932 0.004658 -0.009455
v -0.002553 0.007321 -0.011149
v 0.050478 -0.037597 -0.082489
v 0.050194 -0.035252 -0.083193
v 0.053595 -0.036652 -0.083128
v 0.056234 -0.038261 -0.085220
v 0.050707 -0.036449 -0.089770
v 0.055278 -0.052346 -0.089438
v -0.008981 0.004506 -0.009720
v -0.007463 0.006801 -0.008824
v -0.005175 0.009305 -0.010371
v -0.007012 -0.001363 -0.015049
v -0.009691 0.007882 -0.014544
v -0.011612 -0.000349 -0.012976
v -0.005185 0.007687 -0.014591
v -0.008807 0.000029 -0.020909
v 0.053736 -0.043205 -0.092282
v 0.049168 -0.048643 -0.093027
v -0.013042 0.000841 -0.013773
v -0.011644 0.003751 -0.013766
v -0.008717 0.008500 -0.014469
v -0.007720 0.004283 -0.020377
v 0.048293 -0.044828 -0.093951
v -0.012520 -0.001322 -0.017742
v -0.007771 0.005808 -0.019923
v 0.047847 -0.048025 -0.091778
v -0.013953 0.000291 -0.014971
v -0.013997 0.002365 -0.015150
v -0.013333 0.003764 -0.015958
v -0.010027 0.008502 -0.016828
v -0.008454 0.007633 -0.017552
v -0.009925 -0.001484 -0.020227
v -0.012640 -0.002176 -0.023458
v 0.041342 -0.031856 -0.084083
v 0.039261 -0.039164 -0.088575
v 0.048742 -0.047666 -0.093644
v -0.015601 0.003718 -0.015735
v -0.012317 0.006824 -0.017017
v -0.015211 -0.001804 -0.018347
v -0.015477 -0.001048 -0.017014
v -0.010993 0.008935 -0.019345
v -0.009802 0.008067 -0.020455
v -0.009198 0.006616 -0.020488
v 0.038565 -0.028914 -0.084371
v 0.040289 -0.028975 -0.085342
v 0.045968 -0.037781 -0.093458
v -0.018112 0.002417 -0.017195
v -0.014557 0.006647 -0.017107
v -0.017141 -0.000595 -0.018086
v -0.012679 0.008517 -0.020184
v -0.016233 -0.001469 -0.019464
v -0.011029 0.008674 -0.021523
v -0.015185 -0.001074 -0.021977
v -0.009146 0.004238 -0.025342
v -0.010009 -0.000001 -0.025253
v 0.038864 -0.033614 -0.085428
v 0.041059 -0.044440 -0.094265
v -0.018701 0.005034 -0.018164
v -0.014590 0.009205 -0.019428
v -0.018081 0.000299 -0.019272
v -0.010131 0.006086 -0.026613
v 0.042113 -0.033320 -0.092482
v -0.017518 0.007911 -0.018353
v -0.018470 0.006979 -0.018964
v -0.016204 0.008986 -0.018657
v -0.015498 0.009621 -0.020730
v -0.018747 0.003366 -0.019401
v -0.017711 0.000666 -0.021682
v -0.013360 0.008305 -0.023352
v -0.015592 -0.001136 -0.025378
v -0.012734 -0.002242 -0.029616
v -0.011412 -0.001048 -0.030993
v -0.009476 0.001155 -0.032854
v 0.039834 -0.030155 -0.090908
v 0.037751 -0.042819 -0.092213
v -0.017344 0.008738 -0.019365
v -0.016467 0.009227 -0.021698
v -0.019445 0.001018 -0.023141
v -0.014741 0.007508 -0.025849
v -0.018471 -0.000367 -0.024904
v -0.012185 0.007512 -0.026463
v -0.009491 0.003361 -0.031822
v 0.034507 -0.027713 -0.084139
v -0.019030 0.005921 -0.022657
v -0.018083 0.007501 -0.023143
v -0.008913 0.001639 -0.035579
v 0.032131 -0.024952 -0.084446
v 0.029305 -0.025265 -0.083430
v 0.034065 -0.041578 -0.093764
v 0.038131 -0.036432 -0.094327
v 0.034737 -0.040321 -0.094790
v -0.016508 0.005626 -0.029891
v -0.018688 -0.001660 -0.033129
v -0.008597 -0.001099 -0.041814
v 0.026693 -0.021639 -0.085253
v 0.034873 -0.030413 -0.092844
v -0.016860 -0.001784 -0.032191
v -0.012156 0.004988 -0.036442
v -0.014856 -0.002439 -0.038590
v -0.011950 -0.002369 -0.037706
v 0.027460 -0.022103 -0.083573
v 0.025479 -0.036294 -0.091569
v 0.029363 -0.037630 -0.094394
v -0.017935 0.002680 -0.034925
v -0.015462 0.005721 -0.034076
v 0.025928 -0.029252 -0.085903
v 0.025259 -0.021835 -0.088859
v -0.019333 -0.000067 -0.034898
v -0.019183 -0.001667 -0.034824
v -0.015781 0.004511 -0.040570
v -0.017523 -0.003018 -0.037112
v -0.010013 -0.002565 -0.044619
v -0.007650 -0.000206 -0.045026
v 0.020276 -0.019352 -0.081243
v 0.017050 -0.021887 -0.081717
v 0.022304 -0.019525 -0.082340
v 0.025647 -0.024382 -0.090947
v 0.030911 -0.032112 -0.093751
v -0.017484 0.003962 -0.038825
v -0.019168 -0.002220 -0.041220
v -0.014235 -0.002599 -0.044424
v -0.009225 0.002204 -0.045684
v -0.007334 -0.003047 -0.051729
v -0.006820 -0.001504 -0.051365
v 0.017197 -0.018878 -0.080190
v 0.025944 -0.036982 -0.093114
v -0.016494 -0.003352 -0.044478
v -0.018072 -0.003036 -0.042946
v -0.012782 0.004297 -0.048511
v -0.009405 -0.003918 -0.051010
v 0.019552 -0.017852 -0.085624
v 0.019106 -0.032937 -0.091493
v 0.024047 -0.034635 -0.093402
v -0.019537 0.000234 -0.039156
v -0.018983 -0.001588 -0.051284
v -0.012193 -0.003785 -0.053425
v -0.007376 0.000767 -0.054714
v -0.004608 -0.004157 -0.058773
v -0.006023 -0.005239 -0.057134
v 0.014778 -0.029512 -0.088760
v 0.021608 -0.028117 -0.092036
v -0.015814 0.003756 -0.047947
v -0.009148 -0.005501 -0.055500
v -0.005294 -0.001193 -0.059349
v 0.010758 -0.014782 -0.076607
v 0.011515 -0.013289 -0.077498
v 0.020523 -0.019544 -0.088254
v 0.019474 -0.031999 -0.092565
v -0.013939 0.004038 -0.051620
v -0.016312 -0.004645 -0.051631
v -0.010906 0.003278 -0.055378
v -0.005725 -0.009605 -0.063866
v -0.001006 -0.008710 -0.065702
v -0.000093 -0.006758 -0.065945
v 0.004402 -0.009902 -0.071402
v 0.003380 -0.007711 -0.071418
v 0.004926 -0.011979 -0.072252
v -0.001350 -0.012309 -0.069361
v 0.006628 -0.016772 -0.076815
v 0.010702 -0.012269 -0.078365
v 0.013302 -0.014063 -0.082748
v 0.010699 -0.024300 -0.084877
v -0.018350 0.000177 -0.053182
v -0.018181 -0.003890 -0.053780
v -0.015498 -0.006025 -0.057469
v -0.008798 -0.008025 -0.062104
v -0.000557 -0.003734 -0.068500
v 0.012682 -0.014178 -0.084297
v 0.013520 -0.022640 -0.089533
v 0.010917 -0.026621 -0.089669
v 0.010790 -0.027540 -0.089031
v 0.011947 -0.025736 -0.090130
v -0.011606 0.003108 -0.056476
v -0.006417 -0.000521 -0.062980
v -0.002098 -0.002936 -0.069121
v 0.004818 -0.007876 -0.075578
v -0.005953 -0.014530 -0.073883
v 0.007259 -0.009857 -0.080000
v 0.013105 -0.015941 -0.085976
v 0.003837 -0.021587 -0.082829
v 0.008780 -0.018941 -0.086761
v -0.016283 0.001384 -0.055402
v -0.013461 0.001441 -0.058660
v 0.001119 -0.005405 -0.074171
v 0.006290 -0.010228 -0.080764
v -0.017313 -0.004236 -0.059197
v -0.017813 -0.001242 -0.056749
v -0.016662 -0.002594 -0.060316
v -0.015861 -0.006743 -0.062178
v -0.014239 -0.008263 -0.063090
v -0.006869 -0.003541 -0.067782
v -0.000937 -0.005529 -0.073900
v 0.002065 -0.008016 -0.077612
v 0.002424 -0.021276 -0.083640
v 0.004491 -0.021821 -0.086038
v 0.004077 -0.017948 -0.084861
v -0.013641 -0.002877 -0.063638
v -0.014829 -0.006286 -0.065089
v -0.005292 -0.009910 -0.075707
v -0.001743 -0.018348 -0.080775
v -0.000314 -0.017960 -0.082494
v -0.012467 -0.006909 -0.068441
v -0.011348 -0.009675 -0.070807
v -0.011340 -0.011061 -0.070176
v -0.007615 -0.012567 -0.075410
v -0.003209 -0.012987 -0.079046
vn 0.3805 -0.1280 0.9159
vn 0.6600 -0.6534 0.3707
vn 0.5127 -0.1437 0.8465
vn 0.9944 -0.0999 0.0345
vn 0.8611 -0.4560 -0.2248
vn 0.5834 0.5455 0.6017
vn -0.4996 -0.1369 0.8554
vn 0.1622 -0.7699 0.6172
vn 0.8700 0.3740 0.3213
vn 0.8405 0.0954 0.5334
vn 0.8625 0.2778 -0.4230
vn -0.5648 -0.3519 0.7465
vn -0.1936 -0.5555 0.8087
vn 0.8243 0.2260 -0.5190
vn 0.0616 -0.9981 0.0097
vn 0.1820 -0.9472 -0.2638
vn 0.8258 -0.1075 -0.5536
vn 0.0931 0.6323 0.7691
vn 0.7072 0.6611 -0.2504
vn -0.4352 -0.8964 0.0843
vn 0.4867 -0.7355 -0.4714
vn -0.7997 0.1330 0.5855
vn -0.7555 0.1773 0.6307
vn 0.1454 0.0562 0.9878
vn -0.4365 0.7040 0.5602
vn 0.1285 0.9770 0.1703
vn -0.9568 -0.1498 0.2493
vn -0.8143 -0.5212 0.2556
vn -0.3000 -0.9466 -0.1180
vn -0.9629 -0.0008 0.2700
vn -0.6604 0.6695 0.3402
vn 0.2046 0.9729 0.1077
vn -0.9405 -0.1757 0.2910
vn 0.2885 -0.8810 -0.3750
vn 0.7180 0.6310 -0.2937
vn -0.9682 -0.1179 0.2207
vn 0.8324 0.4396 -0.3374
vn -0.7536 -0.6147 0.2329
vn 0.8579 0.2414 -0.4536
vn 0.7054 -0.3539 -0.6141
vn -0.9041 0.0160 0.4271
vn -0.8667 -0.2520 0.4304
vn -0.0991 -0.9746 -0.2010
vn 0.8370 -0.0347 -0.5461
vn -0.7588 0.5002 0.4171
vn -0.8237 -0.2671 0.5002
vn -0.6805 -0.6648 0.3082
vn -0.3731 0.7832 0.4973
vn -0.8041 0.2893 0.5193
vn 0.4524 0.8872 -0.0901
vn 0.4102 -0.7006 -0.5838
vn -0.7888 -0.1186 0.6031
vn 0.7365 0.0030 -0.6764
vn 0.7857 0.3031 -0.5393
vn -0.6888 0.2000 0.6968
vn -0.4357 -0.8996 -0.0305
vn -0.0317 -0.8999 -0.4349
vn 0.5706 -0.3002 -0.7644
vn -0.1555 0.8473 0.5078
vn -0.7352 -0.1505 0.6609
vn 0.7141 0.2998 -0.6326
vn -0.7002 -0.1567 0.6966
vn 0.5997 0.7094 -0.3703
vn 0.2599 0.9490 0.1783
vn -0.6771 -0.5283 0.5123
vn 0.2026 -0.7847 -0.5858
vn 0.3814 -0.6140 -0.6911
vn 0.5630 -0.2086 -0.7997
vn -0.5781 0.1278 0.8059
vn 0.6416 0.4085 -0.6492
vn -0.4649 0.2006 0.8624
vn -0.2307 0.6785 0.6974
vn 0.2705 -0.6675 -0.6938
vn 0.6054 0.7150 -0.3497
vn 0.6086 0.2554 -0.7512
vn -0.2254 -0.9287 -0.2946
vn 0.1659 0.8589 0.4845
vn -0.5731 -0.2375 0.7843
vn -0.6274 -0.5823 0.5169
vn -0.5453 -0.8103 0.2147
vn 0.5803 0.6131 -0.5361
vn 0.0324 0.7101 0.7034
vn -0.4320 0.0487 0.9006
vn -0.2600 -0.9275 -0.2687
vn 0.3379 -0.4133 -0.8456
vn 0.4368 0.8995 0.0124
vn -0.5447 -0.7763 0.3174
vn -0.5667 -0.5093 0.6476
vn 0.5572 0.3019 -0.7736
vn 0.4416 -0.0423 -0.8962
vn 0.1303 0.7792 0.6130
vn -0.4476 -0.1816 0.8756
vn -0.5211 -0.3818 0.7634
vn -0.2845 0.2442 0.9271
vn 0.1382 -0.6325 -0.7621
vn 0.4254 0.9042 -0.0376
vn 0.5574 0.4606 -0.6908
vn -0.3264 -0.9173 -0.2281
vn 0.5264 0.7480 -0.4042
vn 0.5328 0.5124 -0.6735
vn -0.4617 -0.8817 -0.0974
vn -0.2909 -0.8834 -0.3675
vn 0.4659 0.1362 0.8743
vn 0.4917 -0.2639 0.8298
vn 0.7500 -0.0074 0.6614
vn 0.3851 0.5680 0.7274
vn 0.6369 -0.7668 0.0798
vn 0.9000 -0.4232 0.1045
vn 0.9965 -0.0682 0.0490
vn 0.8387 0.5445 0.0052
vn 0.7904 0.0637 -0.6093
vn -0.5115 -0.5282 0.6778
vn 0.1068 -0.5360 -0.8374
vn 0.1056 -0.4171 0.9027
vn 0.4572 -0.6695 0.5854
vn 0.4267 -0.1726 0.8877
vn 0.0735 -0.0199 0.9971
vn 0.2951 0.3956 0.8697
vn 0.4819 -0.8762 0.0079
vn 0.6649 -0.7405 0.0983
vn 0.3317 0.9400 0.0799
vn 0.6548 -0.5018 -0.5652
vn 0.4345 0.5912 -0.6795
vn 0.4108 -0.1264 -0.9029
vn -0.0774 0.4718 0.8783
vn 0.3887 0.9060 0.1675
vn 0.2167 0.7617 0.6107
vn -0.5553 -0.7010 0.4474
vn -0.4124 0.0368 0.9103
vn -0.2904 -0.1604 0.9434
vn 0.2265 0.1913 0.9550
vn -0.1205 0.7967 0.5922
vn -0.2323 -0.8504 0.4721
vn 0.1766 0.9565 0.2321
vn 0.0243 -0.9956 -0.0910
vn 0.2162 0.8483 -0.4834
vn 0.4473 -0.7931 -0.4134
vn 0.5139 -0.6086 -0.6046
vn 0.4875 0.2622 -0.8328
vn -0.4626 -0.4009 0.7907
vn -0.1488 -0.1083 0.9829
vn -0.3209 0.5364 0.7806
vn -0.6221 0.3385 0.7060
vn -0.7069 -0.6112 0.3561
vn 0.6517 -0.3990 -0.6450
vn 0.4487 0.1873 -0.8739
vn -0.7738 0.2816 0.5674
vn -0.7297 -0.0407 0.6826
vn -0.8155 0.2762 0.5087
vn -0.5208 0.8229 0.2272
vn -0.0959 0.9719 0.2149
vn 0.2062 0.9562 -0.2076
vn 0.5257 -0.1365 -0.8396
vn -0.1700 -0.9841 -0.0516
vn 0.7609 -0.4795 -0.4372
vn 0.0232 -0.4856 -0.8739
vn -0.8811 0.3191 0.3490
vn -0.9183 0.0281 0.3948
vn -0.7133 -0.6850 0.1482
vn 0.5852 0.5821 -0.5645
vn 0.3690 -0.8848 -0.2846
vn 0.7749 -0.1042 -0.6234
vn -0.2755 -0.0453 0.9602
vn 0.4933 0.6958 -0.5220
vn 0.0387 0.9916 -0.1236
vn 0.1430 0.5012 0.8534
vn 0.4291 0.8643 0.2625
vn -0.8199 0.4013 0.4084
vn -0.7752 0.5057 0.3787
vn 0.7951 0.3725 -0.4786
vn 0.5202 0.8314 -0.1953
vn -0.5946 -0.7344 0.3272
vn 0.4361 0.2538 -0.8634
vn 0.1623 0.0143 -0.9866
vn 0.5527 0.6978 -0.4556
vn 0.9256 -0.0279 -0.3775
vn 0.6347 -0.7078 -0.3101
vn 0.8408 -0.4373 -0.3190
vn -0.3485 -0.7875 -0.5083
vn -0.6552 0.6543 0.3776
vn -0.7423 0.4258 0.5174
vn -0.1991 0.9787 0.0505
vn -0.1724 -0.9622 0.2110
vn -0.3372 -0.5504 0.7638
vn -0.5025 -0.8194 0.2757
vn -0.7708 -0.0518 0.6349
vn 0.7589 0.4854 -0.4342
vn 0.4640 0.8669 0.1824
vn -0.5575 -0.4952 0.6663
vn -0.1378 0.9841 0.1121
vn 0.4661 0.8173 -0.3389
vn 0.6056 -0.7416 -0.2887
vn 0.0690 -0.9975 -0.0119
vn 0.2893 0.3317 -0.8979
vn 0.0029 -0.3322 -0.9432
vn -0.4322 0.2948 0.8522
vn -0.3324 0.4855 0.8086
vn -0.4234 0.6836 0.5945
vn -0.2508 -0.4128 0.8756
vn -0.2608 -0.2125 0.9417
vn 0.2505 0.4553 0.8544
vn 0.3196 0.5135 -0.7964
vn -0.2905 0.2407 0.9261
vn 0.0072 0.9932 0.1158
vn -0.3186 -0.7333 0.6006
vn -0.1077 -0.9815 0.1585
vn 0.7127 0.6682 -0.2133
vn 0.7670 0.5602 -0.3131
vn 0.9783 0.1297 -0.1619
vn 0.8339 -0.5399 -0.1148
vn 0.4060 0.7524 -0.5186
vn -0.2177 -0.5954 -0.7734
vn -0.7921 -0.1358 0.5951
vn -0.8636 0.1246 0.4886
vn -0.0350 0.5803 0.8136
vn -0.5293 0.5211 0.6696
vn -0.6756 -0.6255 0.3903
vn 0.0389 0.9799 0.1956
vn -0.4514 -0.8856 -0.1094
vn -0.3899 -0.9203 -0.0325
vn 0.2830 0.9378 -0.2011
vn -0.3863 -0.7265 0.5682
vn -0.4494 -0.8415 -0.2998
vn -0.1353 0.7946 0.5919
vn 0.3040 0.8539 0.4225
vn -0.8835 -0.4675 0.0274
vn 0.2501 0.9344 -0.2537
vn 0.7567 0.6231 -0.1980
vn 0.3700 -0.9289 0.0113
vn 0.7136 -0.6992 0.0434
vn -0.8777 0.3864 0.2835
vn -0.6190 0.7616 0.1921
vn -0.9718 -0.1485 0.1829
vn -0.0008 0.9993 -0.0370
vn -0.6523 -0.7469 0.1286
vn 0.0831 0.9646 -0.2501
vn -0.3208 -0.9383 0.1294
vn 0.9373 -0.3250 0.1264
vn 0.0809 0.0198 0.9965
vn 0.1196 -0.1405 0.9828
vn 0.0932 0.1867 -0.9780
vn -0.9503 0.3066 -0.0533
vn -0.3691 0.8945 -0.2522
vn -0.7038 0.6583 -0.2671
vn -0.1594 0.9404 -0.3005
vn -0.8763 -0.4146 0.2454
vn -0.4692 -0.8538 0.2255
vn 0.9273 0.3556 -0.1168
vn 0.9734 0.2220 0.0572
vn 0.4013 0.6200 0.6742
vn 0.4788 0.8731 -0.0921
vn 0.1747 0.4653 -0.8678
vn -0.1333 -0.2122 -0.9681
vn 0.4507 0.8852 -0.1155
vn 0.1265 -0.9896 0.0688
vn -0.1618 -0.5494 0.8197
vn -0.9921 0.1223 0.0287
vn -0.6047 0.7693 -0.2064
vn -0.6450 -0.7444 0.1726
vn -0.0606 -0.9885 0.1389
vn 0.2615 -0.9620 0.0784
vn 0.7712 -0.6067 0.1926
vn -0.3816 -0.7687 0.5133
vn -0.8404 0.5392 -0.0537
vn -0.3746 0.9144 -0.1533
vn 0.5065 0.7237 0.4688
vn -0.2337 -0.2254 -0.9458
vn -0.1404 -0.9809 0.1350
vn -0.8503 -0.5011 0.1612
vn 0.6995 0.7147 0.0008
vn 0.2517 -0.9538 0.1639
vn 0.9855 0.1152 0.1245
vn 0.3364 0.0202 0.9415
vn 0.5286 0.6474 0.5491
vn 0.3564 0.7817 -0.5117
vn -0.5180 -0.7772 -0.3573
vn -0.0085 0.2414 -0.9704
vn -0.7051 0.7073 -0.0497
vn -0.3666 0.9218 -0.1261
vn -0.8467 -0.5317 0.0219
vn 0.0176 -0.5520 0.8337
vn 0.1000 0.4983 -0.8612
vn -0.9812 0.1932 -0.0004
vn 0.1290 -0.9818 0.1391
vn -0.3598 -0.9309 0.0628
vn 0.2199 0.9742 -0.0515
vn 0.1680 -0.9802 0.1049
vn 0.1201 -0.9582 0.2598
vn 0.6976 -0.6414 0.3194
vn 0.9821 0.0028 0.1883
vn 0.2234 -0.4261 0.8766
vn -0.2106 -0.7189 0.6625
vn -0.2525 -0.1297 -0.9589
vn -0.2421 0.9509 -0.1926
vn 0.0235 -0.9609 0.2758
vn 0.7391 0.6723 0.0428
vn 0.6206 0.7708 0.1437
vn 0.4274 0.8674 -0.2548
vn 0.1715 0.6935 -0.6998
vn -0.0851 0.2582 -0.9623
vn -0.9952 -0.0184 -0.0962
vn -0.8665 0.4499 -0.2164
vn -0.0045 -0.9193 0.3936
vn 0.5864 -0.6399 0.4967
vn 0.8943 -0.0078 0.4474
vn 0.7861 0.6019 0.1402
vn 0.4404 -0.2030 0.8745
vn 0.1026 -0.6954 0.7113
vn 0.6648 0.5082 0.5475
vn 0.4845 0.8623 -0.1472
vn -0.0525 -0.6645 0.7455
vn -0.5238 0.8410 -0.1357
vn 0.3319 0.9340 -0.1322
vn 0.5643 -0.5059 0.6524
vn 0.7270 0.1108 0.6776
vn 0.4674 -0.4085 0.7840
vn 0.2512 0.8158 -0.5209
vn -0.5458 -0.8236 -0.1541
vn -0.3482 -0.1988 -0.9161
vn -0.8200 -0.5723 -0.0098
vn -0.4386 -0.8902 0.1228
vn -0.0974 -0.9435 0.3167
vn -0.1509 -0.9050 0.3976
vn -0.0388 -0.9234 0.3818
vn 0.8126 -0.0113 0.5827
vn 0.1446 -0.8036 0.5773
vn 0.7817 0.5058 0.3648
vn 0.2294 0.9288 -0.2911
vn 0.6396 0.7650 0.0753
vn 0.6055 0.7945 0.0464
vn -0.2364 -0.8965 0.3746
vn 0.3502 0.8700 -0.3470
vn -0.0354 0.5908 -0.8060
vn -0.2371 -0.8309 0.5034
vn -0.1477 0.3657 -0.9189
vn -0.3004 0.1366 -0.9440
vn -0.6235 -0.7345 -0.2678
vn -0.5229 -0.2005 -0.8285
vn -0.5834 0.7346 -0.3464
vn -0.3630 0.7849 -0.5021
vn -0.0590 0.9324 -0.3565
vn 0.1394 0.9420 -0.3053
vn 0.2064 0.8995 -0.3851
vn -0.0830 0.6937 -0.7155
vn -0.2410 0.4212 -0.8744
vn -0.9584 -0.1274 -0.2555
vn -0.9019 0.3028 -0.3081
vn -0.2873 0.7631 -0.5789
vn -0.3994 -0.8852 0.2385
vn -0.2565 0.7576 -0.6002
vn -0.1999 0.6807 -0.7048
vn -0.3497 0.3705 -0.8605
vn -0.6105 -0.1532 -0.7770
vn -0.7781 0.3957 -0.4878
vn -0.8645 -0.4774 -0.1573
vn -0.4812 0.6244 -0.6153
vn -0.6144 -0.7823 -0.1027
vn -0.4733 0.3879 -0.7909
vn -0.8566 0.1072 -0.5048
vn -0.6022 0.4612 -0.6517
vn -0.4537 0.5434 -0.7063
vn -0.7624 -0.6185 -0.1904
vn -0.7316 -0.6161 -0.2919
vn -0.6213 0.0221 -0.7832
vn -0.7826 0.0686 -0.6187
vn -0.7506 0.0090 -0.6607
s 1
usemtl mtl1.1051
f 2//1 4//2 1//3
f 7//4 4//2 6//5
f 4//2 7//4 1//3
f 2//1 13//6 12//7
f 3//8 2//1 12//7
f 1//3 8//9 2//1
f 8//9 1//3 10//10
f 10//10 15//11 8//9
f 3//8 14//12 9//13
f 3//8 4//2 2//1
f 15//11 10//10 5//14
f 17//15 3//8 9//13
f 7//4 15//11 5//14
f 17//15 4//2 3//8
f 17//15 26//16 4//2
f 4//2 26//16 6//5
f 7//4 6//5 18//17
f 12//7 13//6 11//18
f 3//8 12//7 14//12
f 2//1 8//9 13//6
f 24//19 8//9 15//11
f 16//20 17//15 9//13
f 16//20 26//16 17//15
f 7//4 18//17 15//11
f 29//21 6//5 26//16
f 29//21 18//17 6//5
f 19//22 12//7 21//23
f 12//7 11//18 20//24
f 20//24 21//23 12//7
f 21//23 23//25 19//22
f 11//18 23//25 20//24
f 23//25 11//18 22//26
f 13//6 22//26 11//18
f 24//19 22//26 13//6
f 14//12 12//7 27//27
f 24//19 13//6 8//9
f 27//27 25//28 14//12
f 25//28 9//13 14//12
f 25//28 16//20 9//13
f 28//29 26//16 16//20
f 12//7 19//22 31//30
f 30//31 19//22 23//25
f 23//25 22//26 30//31
f 31//30 27//27 12//7
f 30//31 22//26 40//32
f 25//28 27//27 32//33
f 28//29 29//21 26//16
f 29//21 28//29 33//34
f 22//26 24//19 34//35
f 27//27 31//30 35//36
f 32//33 27//27 35//36
f 15//11 36//37 24//19
f 37//38 16//20 25//28
f 37//38 28//29 16//20
f 31//30 19//22 30//31
f 25//28 32//33 37//38
f 15//11 38//39 36//37
f 38//39 15//11 18//17
f 29//21 33//34 43//40
f 43//40 18//17 29//21
f 31//30 39//41 35//36
f 32//33 35//36 41//42
f 41//42 37//38 32//33
f 42//43 28//29 37//38
f 33//34 28//29 42//43
f 39//41 31//30 30//31
f 34//35 24//19 36//37
f 18//17 43//40 45//44
f 39//41 30//31 44//45
f 44//45 30//31 40//32
f 22//26 34//35 40//32
f 46//46 47//47 41//42
f 45//44 38//39 18//17
f 39//41 41//42 35//36
f 37//38 41//42 47//47
f 49//48 48//49 44//45
f 39//41 44//45 48//49
f 44//45 40//32 49//48
f 40//32 34//35 53//50
f 47//47 42//43 37//38
f 43//40 33//34 50//51
f 39//41 48//49 52//52
f 39//41 52//52 41//42
f 36//37 38//39 34//35
f 42//43 50//51 33//34
f 45//44 51//53 54//54
f 45//44 54//54 38//39
f 45//44 43//40 51//53
f 48//49 49//48 58//55
f 54//54 34//35 38//39
f 61//56 42//43 47//47
f 57//57 50//51 42//43
f 50//51 55//58 43//40
f 55//58 51//53 43//40
f 52//52 46//46 41//42
f 61//56 57//57 42//43
f 48//49 58//55 52//52
f 59//59 49//48 40//32
f 50//51 57//57 55//58
f 58//55 49//48 59//59
f 56//60 46//46 52//52
f 46//46 56//60 47//47
f 51//53 62//61 54//54
f 40//32 53//50 59//59
f 56//60 52//52 60//62
f 62//61 66//63 34//35
f 34//35 54//54 62//61
f 59//59 53//50 65//64
f 47//47 67//65 61//56
f 57//57 63//66 55//58
f 63//66 64//67 55//58
f 53//50 34//35 66//63
f 67//65 47//47 56//60
f 70//68 62//61 51//53
f 63//66 57//57 61//56
f 64//67 51//53 55//58
f 68//69 58//55 59//59
f 58//55 60//62 52//52
f 68//69 60//62 58//55
f 72//70 66//63 62//61
f 65//64 53//50 66//63
f 74//71 68//69 59//59
f 74//71 59//59 71//72
f 67//65 56//60 60//62
f 69//73 70//68 63//66
f 70//68 64//67 63//66
f 64//67 70//68 51//53
f 68//69 74//71 60//62
f 66//63 72//70 75//74
f 62//61 70//68 73//75
f 76//76 63//66 61//56
f 59//59 65//64 71//72
f 65//64 77//77 71//72
f 60//62 74//71 67//65
f 78//78 67//65 74//71
f 62//61 73//75 72//70
f 76//76 69//73 63//66
f 77//77 65//64 66//63
f 77//77 66//63 75//74
f 79//79 80//80 67//65
f 80//80 61//56 67//65
f 74//71 71//72 77//77
f 80//80 76//76 61//56
f 81//81 75//74 72//70
f 85//82 82//83 74//71
f 76//76 80//80 83//84
f 76//76 83//84 69//73
f 74//71 82//83 78//78
f 77//77 85//82 74//71
f 79//79 67//65 78//78
f 70//68 84//85 73//75
f 85//82 77//77 86//86
f 86//86 77//77 75//74
f 69//73 83//84 84//85
f 84//85 70//68 69//73
f 72//70 73//75 81//81
f 88//87 80//80 79//79
f 75//74 81//81 86//86
f 83//84 80//80 88//87
f 87//88 79//79 78//78
f 87//88 88//87 79//79
f 99//89 81//81 73//75
f 98//90 73//75 84//85
f 91//91 85//82 86//86
f 99//89 73//75 98//90
f 89//92 92//93 82//83
f 92//93 87//88 82//83
f 82//83 87//88 78//78
f 82//83 85//82 90//94
f 90//94 85//82 91//91
f 84//85 83//84 94//95
f 89//92 82//83 90//94
f 94//95 98//90 84//85
f 91//91 86//86 95//96
f 81//81 95//96 86//86
f 97//97 81//81 99//89
f 94//95 83//84 93//98
f 93//98 83//84 88//87
f 96//99 95//96 81//81
f 96//99 81//81 97//97
f 97//97 99//89 147//100
f 126//101 93//98 88//87
f 127//102 93//98 126//101
f 101//103 100//104 103//105
f 110//106 101//103 103//105
f 100//104 114//107 102//108
f 100//104 102//108 103//105
f 103//105 102//108 104//109
f 103//105 104//109 105//110
f 104//109 116//111 105//110
f 102//108 116//111 104//109
f 87//88 92//93 152//112
f 127//102 128//113 93//98
f 93//98 128//113 94//95
f 106//114 107//115 108//116
f 100//104 119//117 108//116
f 101//103 109//118 100//104
f 109//118 101//103 110//106
f 107//115 111//119 112//120
f 108//116 107//115 112//120
f 110//106 105//110 113//121
f 114//107 108//116 112//120
f 108//116 114//107 100//104
f 114//107 115//122 102//108
f 105//110 110//106 103//105
f 105//110 116//111 117//123
f 117//123 113//121 105//110
f 117//123 116//111 124//124
f 115//122 116//111 102//108
f 124//124 116//111 115//122
f 90//94 91//91 125//125
f 91//91 140//126 139//127
f 140//126 91//91 95//96
f 126//101 88//87 168//128
f 133//129 120//130 119//117
f 119//117 100//104 118//131
f 100//104 109//118 118//131
f 118//131 109//118 132//132
f 121//133 106//114 120//130
f 120//130 106//114 119//117
f 106//114 108//116 119//117
f 110//106 134//134 109//118
f 106//114 121//133 107//115
f 107//115 121//133 111//119
f 121//133 122//135 111//119
f 110//106 113//121 134//134
f 134//134 113//121 136//136
f 111//119 138//137 112//120
f 112//120 138//137 123//138
f 123//138 114//107 112//120
f 114//107 123//138 115//122
f 117//123 124//124 137//139
f 136//136 113//121 117//123
f 136//136 117//123 137//139
f 123//138 124//124 115//122
f 125//125 89//92 90//94
f 139//127 125//125 91//91
f 146//140 92//93 89//92
f 87//88 168//128 88//87
f 128//113 98//90 94//95
f 131//141 130//142 129//143
f 131//141 119//117 118//131
f 118//131 130//142 131//141
f 132//132 130//142 118//131
f 135//144 121//133 120//130
f 133//129 119//117 131//141
f 109//118 134//134 132//132
f 122//135 138//137 111//119
f 138//137 145//145 123//138
f 87//88 152//112 168//128
f 99//89 148//146 147//100
f 149//147 142//148 133//129
f 133//129 141//149 149//147
f 129//143 133//129 131//141
f 133//129 129//143 141//149
f 155//150 130//142 132//132
f 130//142 155//150 129//143
f 120//130 142//148 135//144
f 142//148 120//130 133//129
f 134//134 143//151 132//132
f 158//152 134//134 136//136
f 143//151 134//134 158//152
f 151//153 137//139 124//124
f 150//154 138//137 122//135
f 138//137 144//155 145//145
f 145//145 124//124 123//138
f 124//124 145//145 151//153
f 140//126 95//96 96//99
f 152//112 92//93 146//140
f 97//97 147//100 96//99
f 148//146 99//89 98//90
f 128//113 153//156 98//90
f 154//157 149//147 141//149
f 141//149 129//143 154//157
f 157//158 135//144 142//148
f 157//158 156//159 135//144
f 157//158 142//148 149//147
f 132//132 143//151 155//150
f 156//159 121//133 135//144
f 159//160 158//152 136//136
f 121//133 150//154 122//135
f 136//136 137//139 159//160
f 160//161 138//137 150//154
f 137//139 151//153 161//162
f 89//92 163//163 146//140
f 125//125 163//163 89//92
f 147//100 167//164 96//99
f 143//151 171//165 155//150
f 143//151 158//152 171//165
f 121//133 156//159 150//154
f 137//139 161//162 159//160
f 160//161 144//155 138//137
f 151//153 145//145 161//162
f 163//163 125//125 164//166
f 164//166 125//125 139//127
f 164//166 139//127 165//167
f 165//167 139//127 140//126
f 127//102 153//156 128//113
f 154//157 169//168 149//147
f 170//169 154//157 129//143
f 170//169 129//143 155//150
f 157//158 149//147 169//168
f 171//165 158//152 159//160
f 159//160 161//162 162//170
f 145//145 144//155 161//162
f 140//126 166//171 165//167
f 166//171 140//126 96//99
f 166//171 96//99 167//164
f 98//90 153//156 148//146
f 169//168 154//157 170//169
f 150//154 156//159 174//172
f 171//165 159//160 162//170
f 147//100 148//146 177//173
f 153//156 183//174 177//173
f 153//156 127//102 126//101
f 177//173 148//146 153//156
f 156//159 157//158 174//172
f 175//175 171//165 162//170
f 182//176 162//170 161//162
f 162//170 182//176 175//175
f 160//161 172//177 144//155
f 144//155 176//178 161//162
f 178//179 153//156 126//101
f 155//150 173//180 170//169
f 169//168 170//169 173//180
f 169//168 173//180 180//181
f 181//182 155//150 171//165
f 181//182 171//165 175//175
f 184//183 150//154 174//172
f 176//178 144//155 172//177
f 195//184 146//140 163//163
f 146//140 195//184 152//112
f 152//112 186//185 168//128
f 157//158 180//181 179//186
f 157//158 179//186 174//172
f 180//181 157//158 169//168
f 173//180 155//150 181//182
f 175//175 182//176 185//187
f 161//162 176//178 182//176
f 164//166 165//167 205//188
f 152//112 195//184 186//185
f 186//185 126//101 168//128
f 187//189 174//172 179//186
f 173//180 181//182 190//190
f 181//182 175//175 190//190
f 187//189 184//183 174//172
f 191//191 175//175 185//187
f 192//192 176//178 172//177
f 193//193 172//177 160//161
f 206//194 147//100 177//173
f 178//179 126//101 186//185
f 196//195 153//156 178//179
f 196//195 183//174 153//156
f 187//189 179//186 188//196
f 188//196 179//186 180//181
f 180//181 189//197 188//196
f 180//181 173//180 189//197
f 189//197 173//180 198//198
f 173//180 190//190 198//198
f 191//191 190//190 175//175
f 184//183 160//161 150//154
f 160//161 184//183 193//193
f 192//192 172//177 193//193
f 216//199 163//163 194//200
f 163//163 164//166 204//201
f 167//164 205//188 166//171
f 167//164 206//194 222//202
f 167//164 147//100 206//194
f 188//196 197//203 187//189
f 197//203 188//196 189//197
f 197//203 189//197 198//198
f 198//198 190//190 201//204
f 187//189 200//205 199//206
f 184//183 187//189 199//206
f 201//204 190//190 191//191
f 201//204 191//191 202//207
f 203//208 191//191 185//187
f 202//207 191//191 203//208
f 176//178 214//209 182//176
f 214//209 185//187 182//176
f 192//192 215//210 176//178
f 194//200 163//163 204//201
f 216//199 195//184 163//163
f 205//188 165//167 166//171
f 205//188 167//164 234//211
f 177//173 183//174 206//194
f 217//212 178//179 186//185
f 217//212 196//195 178//179
f 207//213 187//189 197//203
f 207//213 197//203 218//214
f 208//215 197//203 198//198
f 223//216 197//203 208//215
f 187//189 207//213 200//205
f 207//213 209//217 200//205
f 198//198 210//218 208//215
f 198//198 201//204 210//218
f 209//217 211//219 199//206
f 209//217 199//206 200//205
f 184//183 199//206 213//220
f 212//221 201//204 202//207
f 184//183 213//220 193//193
f 215//210 214//209 176//178
f 205//188 204//201 164//166
f 195//184 235//222 186//185
f 249//223 186//185 235//222
f 217//212 186//185 249//223
f 183//174 196//195 217//212
f 197//203 223//216 218//214
f 225//224 223//216 208//215
f 225//224 208//215 219//225
f 209//217 207//213 220//226
f 219//225 208//215 210//218
f 211//219 209//217 220//226
f 212//221 210//218 201//204
f 213//220 199//206 211//219
f 212//221 202//207 241//227
f 221//228 241//227 202//207
f 214//209 203//208 185//187
f 221//228 203//208 214//209
f 202//207 203//208 221//228
f 193//193 215//210 192//192
f 231//229 215//210 193//193
f 231//229 232//230 215//210
f 167//164 222//202 234//211
f 218//214 223//216 224//231
f 236//232 224//231 223//216
f 218//214 220//226 207//213
f 220//226 218//214 227//233
f 226//234 225//224 219//225
f 236//232 223//216 225//224
f 236//232 225//224 226//234
f 220//226 227//233 228//235
f 219//225 210//218 226//234
f 211//219 220//226 228//235
f 226//234 210//218 229//236
f 213//220 211//219 228//235
f 210//218 212//221 229//236
f 228//235 230//237 213//220
f 193//193 213//220 230//237
f 214//209 215//210 233//238
f 216//199 194//200 243//239
f 243//239 248//240 216//199
f 194//200 204//201 243//239
f 206//194 183//174 250//241
f 227//233 218//214 244//242
f 218//214 224//231 244//242
f 237//243 245//244 236//232
f 236//232 226//234 237//243
f 226//234 239//245 237//243
f 227//233 238//246 228//235
f 226//234 229//236 239//245
f 238//246 240//247 228//235
f 229//236 212//221 241//227
f 229//236 241//227 239//245
f 230//237 228//235 240//247
f 214//209 242//248 221//228
f 233//238 215//210 232//230
f 233//238 242//248 214//209
f 246//249 242//248 233//238
f 204//201 247//250 243//239
f 205//188 247//250 204//201
f 205//188 255//251 247//250
f 256//252 222//202 206//194
f 251//253 217//212 249//223
f 183//174 251//253 250//241
f 251//253 183//174 217//212
f 236//232 245//244 224//231
f 244//242 238//246 227//233
f 224//231 245//244 244//242
f 237//243 239//245 245//244
f 241//227 221//228 258//254
f 230//237 259//255 193//193
f 266//256 195//184 216//199
f 256//252 234//211 222//202
f 250//241 256//252 206//194
f 244//242 268//257 238//246
f 244//242 245//244 252//258
f 253//259 240//247 238//246
f 252//258 245//244 239//245
f 253//259 230//237 240//247
f 253//259 257//260 230//237
f 259//255 231//229 193//193
f 258//254 221//228 242//248
f 260//261 232//230 231//229
f 254//262 246//249 233//238
f 233//238 232//230 254//262
f 247//250 248//240 243//239
f 248//240 266//256 216//199
f 255//251 205//188 234//211
f 262//263 249//223 235//222
f 252//258 264//264 244//242
f 238//246 268//257 253//259
f 239//245 265//265 252//258
f 265//265 239//245 241//227
f 241//227 258//254 265//265
f 259//255 260//261 231//229
f 258//254 242//248 246//249
f 260//261 254//262 232//230
f 261//266 247//250 255//251
f 235//222 195//184 266//256
f 251//253 263//267 250//241
f 244//242 264//264 268//257
f 271//268 253//259 269//269
f 253//259 271//268 257//260
f 230//237 257//260 259//255
f 282//270 258//254 246//249
f 272//271 254//262 260//261
f 273//272 246//249 254//262
f 274//273 247//250 276//274
f 248//240 247//250 274//273
f 276//274 247//250 261//266
f 267//275 255//251 234//211
f 262//263 286//276 249//223
f 250//241 278//277 256//252
f 249//223 263//267 251//253
f 250//241 263//267 278//277
f 265//265 264//264 252//258
f 269//269 253//259 268//257
f 279//278 265//265 270//279
f 280//280 271//268 269//269
f 271//268 259//255 257//260
f 282//270 246//249 273//272
f 248//240 274//273 275//281
f 255//251 276//274 261//266
f 275//281 266//256 248//240
f 266//256 262//263 235//222
f 277//282 234//211 256//252
f 277//282 267//275 234//211
f 278//277 277//282 256//252
f 264//264 279//278 268//257
f 279//278 264//264 265//265
f 269//269 268//257 294//283
f 287//284 259//255 271//268
f 288//285 271//268 280//280
f 288//285 287//284 271//268
f 289//286 265//265 258//254
f 265//265 289//286 270//279
f 259//255 287//284 281//287
f 289//286 258//254 282//270
f 260//261 259//255 281//287
f 281//287 272//271 260//261
f 290//288 254//262 272//271
f 273//272 254//262 283//289
f 273//272 283//289 284//290
f 285//291 275//281 274//273
f 262//263 266//256 300//292
f 286//276 293//293 263//267
f 249//223 286//276 263//267
f 279//278 294//283 268//257
f 270//279 289//286 309//294
f 272//271 296//295 290//288
f 254//262 290//288 283//289
f 284//290 297//296 273//272
f 320//297 276//274 255//251
f 320//297 274//273 276//274
f 291//298 267//275 307//299
f 291//298 255//251 267//275
f 277//282 307//299 267//275
f 278//277 301//300 277//282
f 286//276 262//263 300//292
f 278//277 263//267 301//300
f 294//283 280//280 269//269
f 280//280 294//283 295//301
f 295//301 294//283 323//302
f 281//287 287//284 296//295
f 281//287 296//295 272//271
f 282//270 273//272 297//296
f 290//288 303//303 283//289
f 299//304 283//289 303//303
f 298//305 304//306 284//290
f 283//289 299//304 284//290
f 284//290 299//304 298//305
f 275//281 305//307 319//308
f 305//307 274//273 306//309
f 305//307 275//281 285//291
f 274//273 305//307 285//291
f 306//309 274//273 320//297
f 320//297 255//251 291//298
f 321//310 320//297 291//298
f 300//292 275//281 322//311
f 300//292 266//256 275//281
f 263//267 293//293 301//300
f 279//278 323//302 294//283
f 279//278 270//279 302//312
f 311//313 289//286 282//270
f 311//313 282//270 297//296
f 303//303 290//288 296//295
f 284//290 304//306 297//296
f 299//304 313//314 298//305
f 305//307 315//315 317//316
f 315//315 305//307 306//309
f 328//317 291//298 307//299
f 292//318 286//276 300//292
f 308//319 286//276 292//318
f 293//293 308//319 301//300
f 286//276 308//319 293//293
f 324//320 288//285 280//280
f 270//279 309//294 302//312
f 310//321 287//284 288//285
f 324//320 310//321 288//285
f 287//284 310//321 325//322
f 325//322 296//295 287//284
f 311//313 297//296 304//306
f 326//323 303//303 296//295
f 312//324 299//304 303//303
f 312//324 303//303 326//323
f 314//325 304//306 298//305
f 313//314 299//304 312//324
f 313//314 314//325 298//305
f 313//314 312//324 318//326
f 314//325 315//315 316//327
f 314//325 313//314 315//315
f 313//314 318//326 317//316
f 313//314 317//316 315//315
f 319//308 317//316 318//326
f 305//307 317//316 319//308
f 306//309 316//327 315//315
f 275//281 319//308 322//311
f 321//310 291//298 328//317
f 280//280 295//301 324//320
f 323//302 279//278 302//312
f 289//286 311//313 309//294
f 304//306 334//328 311//313
f 304//306 327//329 334//328
f 314//325 316//327 304//306
f 304//306 316//327 327//329
f 327//329 316//327 336//330
f 316//327 306//309 336//330
f 319//308 318//326 337//331
f 336//330 306//309 320//297
f 336//330 320//297 321//310
f 338//332 336//330 321//310
f 328//317 338//332 321//310
f 339//333 328//317 307//299
f 322//311 340//334 300//292
f 307//299 277//282 329//335
f 307//299 329//335 339//333
f 301//300 332//336 329//335
f 308//319 332//336 301//300
f 301//300 329//335 277//282
f 308//319 292//318 331//337
f 331//337 330//338 308//319
f 330//338 332//336 308//319
f 342//339 302//312 309//294
f 342//339 323//302 302//312
f 324//320 325//322 310//321
f 309//294 343//340 342//339
f 333//341 343//340 309//294
f 311//313 333//341 309//294
f 333//341 311//313 334//328
f 327//329 335//342 334//328
f 335//342 327//329 344//343
f 336//330 344//343 327//329
f 344//343 336//330 338//332
f 319//308 337//331 340//334
f 338//332 328//317 345//344
f 340//334 322//311 319//308
f 345//344 328//317 339//333
f 340//334 292//318 300//292
f 331//337 292//318 340//334
f 329//335 341//345 339//333
f 324//320 295//301 346//346
f 295//301 323//302 346//346
f 346//346 323//302 347//347
f 342//339 347//347 323//302
f 351//348 343//340 333//341
f 350//349 296//295 325//322
f 334//328 351//348 333//341
f 350//349 326//323 296//295
f 334//328 335//342 351//348
f 351//348 335//342 352//350
f 335//342 344//343 352//350
f 318//326 312//324 326//323
f 326//323 337//331 318//326
f 344//343 345//344 353//351
f 344//343 338//332 345//344
f 339//333 356//352 345//344
f 341//345 356//352 339//333
f 331//337 355//353 330//338
f 332//336 356//352 341//345
f 341//345 329//335 332//336
f 346//346 347//347 348//354
f 348//354 347//347 342//339
f 343//340 348//354 342//339
f 324//320 346//346 349//355
f 324//320 350//349 325//322
f 343//340 351//348 357//356
f 350//349 337//331 326//323
f 352//350 344//343 353//351
f 354//357 340//334 337//331
f 356//352 353//351 345//344
f 366//358 353//351 356//352
f 331//337 340//334 354//357
f 331//337 354//357 355//353
f 332//336 355//353 356//352
f 332//336 330//338 355//353
f 346//346 358//359 349//355
f 343//340 357//356 348//354
f 350//349 324//320 349//355
f 346//346 348//354 358//359
f 357//356 351//348 362//360
f 362//360 351//348 359//361
f 364//362 337//331 350//349
f 359//361 351//348 352//350
f 352//350 353//351 359//361
f 360//363 337//331 364//362
f 366//358 359//361 353//351
f 360//363 354//357 337//331
f 366//358 356//352 361//364
f 360//363 361//364 355//353
f 355//353 354//357 360//363
f 361//364 356//352 355//353
f 358//359 348//354 357//356
f 357//356 362//360 358//359
f 358//359 364//362 349//355
f 358//359 363//365 364//362
f 358//359 362//360 363//365
f 350//349 349//355 364//362
f 363//365 365//366 364//362
f 363//365 362//360 365//366
f 362//360 359//361 365//366
f 359//361 366//358 365//366
f 364//362 365//366 360//363
f 361//364 365//366 366//358
f 360//363 365//366 361//364
