# Blender 4.0.2
# www.blender.org
mtllib rib7_r.mtl
o rib7_r.002
v -0.003629 0.007058 0.000421
v -0.002694 0.004852 -0.000030
v 0.000467 0.011165 0.002936
v 0.001623 0.004175 -0.000146
v 0.002998 0.008625 0.001887
v 0.004832 0.005538 0.001419
v 0.004363 0.004330 0.000905
v -0.005675 0.008537 0.002966
v -0.004238 0.009042 0.001680
v -0.003047 0.010520 0.002226
v -0.004988 0.005585 0.000989
v -0.000351 0.011341 0.003396
v -0.002731 -0.002779 0.001123
v 0.003410 0.009074 0.002780
v 0.004281 0.008135 0.003837
v -0.000258 -0.002631 0.000796
v 0.001967 -0.002852 0.001051
v 0.001155 -0.004171 0.001478
v 0.006637 0.003428 0.003139
v 0.004883 -0.003269 0.002921
v -0.006657 0.003414 0.002796
v -0.002555 0.009707 0.005645
v 0.001385 0.010374 0.004525
v -0.004961 -0.001377 0.002090
v -0.004111 -0.003236 0.002375
v 0.002271 0.009472 0.004652
v -0.001953 -0.004556 0.002437
v 0.000647 -0.004935 0.002503
v 0.003964 -0.004394 0.003001
v 0.006713 0.001794 0.004230
v 0.004566 -0.004180 0.003556
v 0.005257 -0.003355 0.003989
v 0.005834 -0.002341 0.003815
v -0.007336 0.010750 0.005846
v -0.007484 0.011062 0.007139
v -0.006496 -0.001961 0.005487
v 0.000082 0.007668 0.006030
v -0.002864 -0.004734 0.003626
v 0.002069 0.004660 0.005641
v 0.000485 -0.005120 0.003569
v 0.002794 -0.004674 0.004059
v 0.001255 -0.004015 0.005344
v 0.003086 -0.000227 0.005724
v -0.009980 0.009578 0.008608
v -0.008894 0.010689 0.008041
v -0.006283 0.010418 0.008620
v -0.007529 -0.000869 0.005940
v -0.001379 0.006061 0.007901
v -0.003996 -0.003841 0.006217
v -0.010319 0.007990 0.009740
v -0.007491 0.005813 0.006986
v -0.008560 0.002035 0.007107
v 0.000568 -0.000289 0.008395
v -0.002535 -0.004148 0.008938
v -0.009813 0.009253 0.013284
v -0.009494 0.006015 0.010035
v -0.009558 -0.001316 0.008354
v -0.006182 0.007291 0.011098
v -0.005515 -0.003703 0.008578
v -0.002277 -0.002981 0.010849
v -0.007753 0.009597 0.011341
v -0.010396 -0.000461 0.009675
v -0.003724 0.004171 0.011855
v -0.011445 0.007517 0.014852
v -0.010470 0.002230 0.011614
v -0.004710 0.000772 0.015157
v -0.003594 -0.004381 0.010154
v -0.004567 -0.001922 0.015626
v -0.013279 0.002482 0.015280
v -0.009158 0.006776 0.017443
v -0.012408 -0.001635 0.013650
v -0.012759 0.003685 0.015239
v -0.011249 -0.004217 0.014785
v -0.014698 -0.001616 0.015793
v -0.008313 0.003031 0.018771
v -0.009225 -0.007078 0.020458
v -0.006004 -0.004894 0.017236
v -0.016038 -0.000030 0.016730
v -0.013774 0.003203 0.018483
v -0.011098 0.006355 0.018427
v -0.013425 -0.004097 0.016285
v -0.010756 -0.005715 0.016880
v -0.019092 -0.003194 0.017346
v -0.019612 -0.001301 0.018184
v -0.016955 -0.004142 0.017365
v -0.014264 -0.005170 0.018257
v -0.021715 -0.004332 0.019503
v -0.019997 -0.005027 0.018351
v -0.016214 0.000832 0.019738
v -0.015982 0.000701 0.021927
v -0.013499 0.002401 0.022761
v -0.015593 -0.006368 0.019031
v -0.012082 0.003202 0.022380
v -0.010934 0.000245 0.024999
v -0.012249 -0.007628 0.022085
v -0.021789 -0.003153 0.020197
v -0.020265 -0.000644 0.019885
v -0.021268 -0.001911 0.021438
v -0.011773 -0.008096 0.023292
v -0.022112 -0.003618 0.021996
v -0.021666 -0.006278 0.020913
v -0.017949 -0.008622 0.021970
v -0.013029 -0.000388 0.027354
v -0.015271 -0.009315 0.023103
v -0.013316 -0.008366 0.022302
v -0.010057 -0.008527 0.025794
v -0.021963 -0.003997 0.023758
v -0.021725 -0.006491 0.022517
v -0.020392 -0.007684 0.021757
v -0.017954 -0.003473 0.028653
v -0.015221 -0.001540 0.029344
v -0.010531 -0.008883 0.029344
v -0.022430 -0.008064 0.026352
v -0.022586 -0.006792 0.026247
v -0.021549 -0.008146 0.024578
v -0.019611 -0.009221 0.025001
v -0.014752 -0.009817 0.025302
v -0.014003 -0.009268 0.025425
v -0.014004 -0.009267 0.025426
v -0.022059 -0.005144 0.025998
v -0.017036 -0.010723 0.027320
v -0.015203 -0.005651 0.036117
v -0.015901 -0.010385 0.028197
v -0.019071 -0.005472 0.034643
v -0.016649 -0.011612 0.030083
v -0.015130 -0.013020 0.031711
v -0.012339 -0.010653 0.029715
v -0.021040 -0.007286 0.030597
v -0.020952 -0.012142 0.029173
v -0.017538 -0.012879 0.030311
v -0.016712 -0.011742 0.030155
v -0.013557 -0.012053 0.034542
v -0.021968 -0.010747 0.030131
v -0.016870 -0.012067 0.030544
v -0.021846 -0.008636 0.030734
v -0.022464 -0.013830 0.031880
v -0.017033 -0.004668 0.035722
v -0.021131 -0.016459 0.034341
v -0.017525 -0.013601 0.032946
v -0.023370 -0.012260 0.033505
v -0.021942 -0.008123 0.034213
v -0.018986 -0.016078 0.034767
v -0.013107 -0.008694 0.034246
v -0.023721 -0.015990 0.035311
v -0.018604 -0.015967 0.035918
v -0.023457 -0.010740 0.038776
v -0.017157 -0.016950 0.039171
v -0.025124 -0.016437 0.037783
v -0.025389 -0.015317 0.038772
v -0.022456 -0.018233 0.037315
v -0.020737 -0.018195 0.038292
v -0.015625 -0.010573 0.041841
v -0.016574 -0.015474 0.042624
v -0.025283 -0.020469 0.041431
v -0.023525 -0.021579 0.041920
v -0.026242 -0.018755 0.042306
v -0.019670 -0.008023 0.043885
v -0.016654 -0.009524 0.043678
v -0.023287 -0.010484 0.045985
v -0.020467 -0.008069 0.043248
v -0.022845 -0.022018 0.043251
v -0.021442 -0.021110 0.044166
v -0.019526 -0.020661 0.047549
v -0.028019 -0.023019 0.049051
v -0.020702 -0.010261 0.050322
v -0.024995 -0.023112 0.046069
v -0.022126 -0.010480 0.050958
v -0.026912 -0.022951 0.047006
v -0.017757 -0.012998 0.050858
v -0.019302 -0.020481 0.052301
v -0.026166 -0.025668 0.050077
v -0.023731 -0.024189 0.050009
v -0.019102 -0.016201 0.058032
v -0.028867 -0.017227 0.057363
v -0.020566 -0.012750 0.056697
v -0.026388 -0.013995 0.056530
v -0.022672 -0.013098 0.059510
v -0.027315 -0.028592 0.055490
v -0.023120 -0.026975 0.062461
v -0.029886 -0.024386 0.055218
v -0.029604 -0.027722 0.055732
v -0.028989 -0.029305 0.057384
v -0.020152 -0.015522 0.061808
v -0.019274 -0.018369 0.060583
v -0.028032 -0.016396 0.060374
v -0.027315 -0.029843 0.058687
v -0.020066 -0.023255 0.060852
v -0.025902 -0.015404 0.062953
v -0.029536 -0.019754 0.064315
v -0.031038 -0.026902 0.063763
v -0.030879 -0.029220 0.062017
v -0.030176 -0.021511 0.064471
v -0.027422 -0.017946 0.067299
v -0.030235 -0.031046 0.062059
v -0.027618 -0.033892 0.064459
v -0.026958 -0.033208 0.063945
v -0.019381 -0.018499 0.068650
v -0.025256 -0.017383 0.069691
v -0.021514 -0.016804 0.068892
v -0.029241 -0.033694 0.065411
v -0.018817 -0.020401 0.067290
v -0.019813 -0.024502 0.065644
v -0.023807 -0.029370 0.065956
v -0.018763 -0.023756 0.068175
v -0.030159 -0.032843 0.066068
v -0.021394 -0.030129 0.069904
v -0.019026 -0.026647 0.069861
v 0.138883 -0.106252 0.086456
v 0.139634 -0.104925 0.086767
v 0.139736 -0.104709 0.086931
v 0.140574 -0.104255 0.087818
v -0.028324 -0.021485 0.070501
v -0.029589 -0.025424 0.069751
v -0.030358 -0.031723 0.068157
v -0.017272 -0.026350 0.072939
v -0.016829 -0.022760 0.074139
v 0.137061 -0.111591 0.087127
v -0.026096 -0.019887 0.072454
v 0.135114 -0.102658 0.091003
v 0.138271 -0.102647 0.090001
v 0.135110 -0.111092 0.088429
v 0.135040 -0.117537 0.087703
v 0.135776 -0.115897 0.087466
v 0.135758 -0.115938 0.087474
v 0.142141 -0.104708 0.089521
v 0.142332 -0.104586 0.089959
v 0.142860 -0.105026 0.090397
v 0.143303 -0.105202 0.091036
v -0.023098 -0.021260 0.077559
v -0.018929 -0.020769 0.079073
v -0.018666 -0.020040 0.076783
v -0.025387 -0.036746 0.071641
v -0.026182 -0.037169 0.074285
v -0.017621 -0.020712 0.074418
v -0.023270 -0.033929 0.071727
v 0.133213 -0.108954 0.091176
v 0.143707 -0.105470 0.092029
v 0.135382 -0.117529 0.087604
v 0.135088 -0.118700 0.087910
v 0.135160 -0.119837 0.088401
v 0.135169 -0.121327 0.089179
v -0.027656 -0.028455 0.074917
v -0.027299 -0.036027 0.073856
v 0.134971 -0.100364 0.094238
v 0.137328 -0.101224 0.097336
v 0.133022 -0.113561 0.091561
v 0.133001 -0.118275 0.090518
v 0.135227 -0.121613 0.089236
v 0.135750 -0.122794 0.090248
v 0.143401 -0.109989 0.092916
v 0.144680 -0.108276 0.093862
v -0.024376 -0.022567 0.077209
v -0.026761 -0.035321 0.076045
v -0.016998 -0.032688 0.076558
v -0.014666 -0.028633 0.077951
v -0.012863 -0.026020 0.081141
v 0.131038 -0.117382 0.093079
v 0.139477 -0.103560 0.096739
v 0.137064 -0.123643 0.091200
v 0.138704 -0.120093 0.092261
v 0.136831 -0.123666 0.091155
v 0.137263 -0.123726 0.091398
v 0.137142 -0.123839 0.091595
v 0.137208 -0.123845 0.091721
v 0.137436 -0.123750 0.091688
v 0.140580 -0.115367 0.093005
v 0.144714 -0.110980 0.094933
v 0.144672 -0.111420 0.095268
v 0.144725 -0.110978 0.094925
v -0.023344 -0.038821 0.076111
v -0.018353 -0.038317 0.080539
v -0.013482 -0.024047 0.081842
v 0.130318 -0.097575 0.098382
v 0.131500 -0.119991 0.094166
v 0.133488 -0.121608 0.094864
v 0.138075 -0.123593 0.093264
v 0.138726 -0.123252 0.093697
v 0.138869 -0.123295 0.093765
v 0.140157 -0.122249 0.094357
v 0.144367 -0.112878 0.095414
v 0.144132 -0.113292 0.095674
v 0.144089 -0.113304 0.095810
v 0.143676 -0.114415 0.096071
v 0.143659 -0.114235 0.096062
v -0.018286 -0.023537 0.083458
v -0.014747 -0.035669 0.080182
v -0.010630 -0.031651 0.083460
v 0.131505 -0.097221 0.100420
v 0.135766 -0.100446 0.098343
v 0.127483 -0.115337 0.096698
v 0.127023 -0.109263 0.098134
v 0.139751 -0.122573 0.094448
v 0.140589 -0.121651 0.094988
v 0.140784 -0.121371 0.095079
v 0.141002 -0.120851 0.095229
v 0.142732 -0.115924 0.096176
v -0.024205 -0.031010 0.080689
v -0.020128 -0.026120 0.084048
v -0.020811 -0.041372 0.080778
v -0.011876 -0.025242 0.086621
v -0.019778 -0.041515 0.081227
v 0.128771 -0.103515 0.097215
v 0.132463 -0.098135 0.101531
v 0.137075 -0.102220 0.099282
v 0.128675 -0.117920 0.096091
v 0.138383 -0.106434 0.100579
v 0.130794 -0.119121 0.100153
v 0.137355 -0.119897 0.097703
v 0.136633 -0.112097 0.101967
v -0.021824 -0.040052 0.083184
v -0.021298 -0.041314 0.082599
v -0.011800 -0.026240 0.089125
v -0.006916 -0.029572 0.088921
v -0.009879 -0.040133 0.086121
v 0.125305 -0.101717 0.100243
v 0.128715 -0.096244 0.100658
v 0.133994 -0.100169 0.101928
v 0.138425 -0.109544 0.101011
v 0.133337 -0.116609 0.101467
v -0.019444 -0.033894 0.086771
v -0.016161 -0.044039 0.085678
v -0.014284 -0.041821 0.085732
v -0.006269 -0.038058 0.088408
v 0.124380 -0.095425 0.102237
v 0.130270 -0.097830 0.103966
v 0.123634 -0.107830 0.100655
v 0.122933 -0.113485 0.101271
v 0.125027 -0.116110 0.099805
v 0.134501 -0.103343 0.102963
v 0.126313 -0.117491 0.101095
v -0.014678 -0.030017 0.090783
v -0.012907 -0.028793 0.091424
v -0.005085 -0.033968 0.089588
v 0.122895 -0.093950 0.103780
v 0.127594 -0.103261 0.107715
v 0.128023 -0.116936 0.103254
v -0.014141 -0.045585 0.088331
v -0.006438 -0.029298 0.090772
v -0.003940 -0.031233 0.095762
v -0.005334 -0.043987 0.090079
v 0.116606 -0.093907 0.105502
v 0.115874 -0.099338 0.104637
v 0.125170 -0.094576 0.104834
v 0.124728 -0.095064 0.105978
v 0.128569 -0.109039 0.106874
v -0.016443 -0.043582 0.089120
v -0.012479 -0.046855 0.092107
v -0.012753 -0.045792 0.088596
v -0.008303 -0.046017 0.090736
v 0.114400 -0.091732 0.107665
v 0.119981 -0.112234 0.103758
v 0.126540 -0.117103 0.103229
v 0.127700 -0.104895 0.107913
v -0.015823 -0.037688 0.090652
v -0.005959 -0.030965 0.095984
v -0.007263 -0.049888 0.093128
v -0.000515 -0.034937 0.094013
v 0.001610 -0.035250 0.096631
v 0.003109 -0.046466 0.095193
v 0.112906 -0.091926 0.107248
v 0.099807 -0.091297 0.110108
v 0.117022 -0.092621 0.108575
v 0.113339 -0.104003 0.105692
v 0.119453 -0.112441 0.106567
v -0.009927 -0.034680 0.095568
v -0.009702 -0.044751 0.095557
v 0.005298 -0.051922 0.097003
v 0.007357 -0.041224 0.098533
v 0.120266 -0.095127 0.108338
v 0.114491 -0.109296 0.107189
v 0.118902 -0.110484 0.109440
v 0.122293 -0.105549 0.109935
v -0.005304 -0.033821 0.098506
v -0.007141 -0.050370 0.095028
v -0.000005 -0.051803 0.096371
v 0.103090 -0.089159 0.109863
v 0.109590 -0.089792 0.110997
v -0.003039 -0.034933 0.099848
v -0.004575 -0.039933 0.099798
v -0.008308 -0.048658 0.095522
v -0.000944 -0.034556 0.100057
v 0.005221 -0.037377 0.100894
v -0.002759 -0.052430 0.095731
v 0.013998 -0.043495 0.103735
v 0.007572 -0.054574 0.098756
v 0.102511 -0.087018 0.111037
v 0.102976 -0.086521 0.112057
v 0.102637 -0.086908 0.114263
v 0.108543 -0.105916 0.108928
v 0.114444 -0.109763 0.109786
v 0.007953 -0.039290 0.104066
v 0.001365 -0.054903 0.098411
v 0.014026 -0.046894 0.101649
v 0.014330 -0.054162 0.100876
v 0.093706 -0.097150 0.112682
v 0.104664 -0.105656 0.111175
v 0.106688 -0.105913 0.114396
v 0.001515 -0.052331 0.102059
v 0.008000 -0.044322 0.107055
v 0.003537 -0.037407 0.102513
v 0.001371 -0.055003 0.100364
v 0.008295 -0.056535 0.100582
v 0.006887 -0.057504 0.101122
v 0.016331 -0.060846 0.103650
v 0.023496 -0.063568 0.105164
v 0.022560 -0.053563 0.104685
v 0.091397 -0.083653 0.113308
v 0.101165 -0.097805 0.117736
v 0.105743 -0.106411 0.113374
v 0.114395 -0.105327 0.112779
v 0.015157 -0.062302 0.106236
v 0.016049 -0.062460 0.105225
v 0.022495 -0.048597 0.107056
v 0.023784 -0.050686 0.106238
v 0.026011 -0.060058 0.105188
v 0.024717 -0.063320 0.105104
v 0.093358 -0.082667 0.113971
v 0.097136 -0.083754 0.115279
v 0.093153 -0.083464 0.117905
v 0.091643 -0.099761 0.114453
v 0.012389 -0.044072 0.108546
v 0.008528 -0.058317 0.104770
v 0.023648 -0.048975 0.109907
v 0.020497 -0.064484 0.106638
v 0.031621 -0.053312 0.109723
v 0.039021 -0.058332 0.110465
v 0.031803 -0.067649 0.107200
v 0.037290 -0.056133 0.111328
v 0.046361 -0.071931 0.110563
v 0.043839 -0.065282 0.110561
v 0.079972 -0.079950 0.114584
v 0.083322 -0.084037 0.113930
v 0.084720 -0.078766 0.116019
v 0.083418 -0.090278 0.114468
v 0.084744 -0.078351 0.117208
v 0.094467 -0.101728 0.116653
v 0.013012 -0.053889 0.108869
v 0.020929 -0.048723 0.111742
v 0.017335 -0.063071 0.107793
v 0.023774 -0.049415 0.111365
v 0.028899 -0.069447 0.109273
v 0.037533 -0.070020 0.108877
v 0.047997 -0.061317 0.114001
v 0.046529 -0.062334 0.112230
v 0.047475 -0.074134 0.111305
v 0.062056 -0.071152 0.114286
v 0.068653 -0.075368 0.114673
v 0.073074 -0.080945 0.114686
v 0.075946 -0.075852 0.115550
v 0.071429 -0.087158 0.115702
v 0.014466 -0.049667 0.110291
v 0.018621 -0.048329 0.111419
v 0.018320 -0.062162 0.109073
v 0.021480 -0.065042 0.109015
v 0.033017 -0.053856 0.113109
v 0.047988 -0.061215 0.116549
v 0.035864 -0.072254 0.111074
v 0.042541 -0.074718 0.111707
v 0.066608 -0.070286 0.117087
v 0.054228 -0.076456 0.112917
v 0.063389 -0.078907 0.114304
v 0.065665 -0.070788 0.115711
v 0.082069 -0.094832 0.115875
v 0.088210 -0.080048 0.118275
v 0.100329 -0.100446 0.117611
v 0.021425 -0.054401 0.112830
v 0.029043 -0.069238 0.111098
v 0.042094 -0.075349 0.113576
v 0.048830 -0.078745 0.114676
v 0.053664 -0.079245 0.114212
v 0.063197 -0.068459 0.119778
v 0.061175 -0.082260 0.114949
v 0.067411 -0.070391 0.119445
v 0.069233 -0.088164 0.116489
v 0.076886 -0.075250 0.120295
v 0.092953 -0.099959 0.118678
v 0.029140 -0.057021 0.115075
v 0.031579 -0.055817 0.115596
v 0.038109 -0.064306 0.117480
v 0.042011 -0.059768 0.117412
v 0.043438 -0.075316 0.115639
v 0.053979 -0.064604 0.118829
v 0.053656 -0.081078 0.115712
v 0.060765 -0.085185 0.117032
v 0.069953 -0.090181 0.117888
v 0.075649 -0.093616 0.117809
v 0.083974 -0.080825 0.120664
v 0.082998 -0.097154 0.118673
v 0.083637 -0.097010 0.120272
v 0.044170 -0.062620 0.118676
v 0.058178 -0.069052 0.121048
v 0.050896 -0.080073 0.117388
v 0.064890 -0.070741 0.121467
v 0.069426 -0.090235 0.119007
v 0.076533 -0.077329 0.121749
v 0.077220 -0.083075 0.123064
v 0.076726 -0.094516 0.119948
v 0.086706 -0.090299 0.121688
v 0.082933 -0.093987 0.121602
v 0.051853 -0.074164 0.119586
v 0.052480 -0.080545 0.118576
v 0.057345 -0.075834 0.121282
v 0.060273 -0.084732 0.120223
v 0.064782 -0.087774 0.119769
v 0.076263 -0.093836 0.120779
v 0.074953 -0.085110 0.123295
v 0.074590 -0.089233 0.122463
v 0.084370 -0.092146 0.122119
v 0.064925 -0.081446 0.122346
v 0.064272 -0.077755 0.122669
v 0.142307 -0.104617 0.089970
v 0.142856 -0.105027 0.090406
v 0.144404 -0.112787 0.095444
v 0.139312 -0.122947 0.094091
v 0.139312 -0.122947 0.094091
vn -0.1478 0.8305 -0.5370
vn 0.2931 0.8700 -0.3964
vn -0.2657 0.2960 -0.9175
vn -0.2007 0.0039 -0.9797
vn -0.6323 0.0685 -0.7717
vn 0.1733 0.0819 -0.9815
vn 0.3983 0.5096 -0.7627
vn -0.0497 -0.3271 -0.9437
vn 0.6570 0.3272 -0.6792
vn 0.5069 0.0259 -0.8616
vn 0.3006 -0.2991 -0.9056
vn 0.7905 0.4859 0.3728
vn 0.9650 0.1670 -0.2023
vn -0.8400 0.0028 -0.5425
vn -0.7813 0.2084 -0.5884
vn -0.4774 0.4531 -0.7528
vn -0.5294 0.6907 -0.4926
vn -0.0313 0.9940 0.1046
vn -0.2999 -0.4060 -0.8632
vn 0.3904 0.7320 0.5583
vn -0.6765 -0.2798 -0.6812
vn 0.6743 0.6936 -0.2535
vn 0.1077 -0.6282 -0.7706
vn 0.8924 -0.0310 0.4503
vn 0.4203 -0.8016 -0.4251
vn 0.6761 -0.3830 -0.6295
vn 0.9217 -0.3346 0.1964
vn -0.0686 0.9976 0.0070
vn 0.2689 0.7965 0.5416
vn -0.6150 -0.5951 -0.5174
vn 0.5039 0.4519 0.7361
vn -0.2248 -0.8153 -0.5337
vn 0.3970 0.3703 0.8398
vn 0.0287 -0.9215 -0.3874
vn 0.5069 0.2020 0.8380
vn 0.5481 -0.1197 0.8278
vn 0.6104 -0.7872 0.0878
vn 0.7466 -0.4695 0.4713
vn -0.8957 0.0194 -0.4442
vn 0.4103 0.8081 0.4226
vn 0.5993 0.4217 0.6805
vn -0.6513 -0.6550 -0.3831
vn -0.3626 -0.9278 -0.0878
vn 0.0527 -0.9960 0.0724
vn 0.2612 -0.8831 0.3898
vn 0.4378 -0.6594 0.6111
vn -0.8943 0.3081 -0.3245
vn -0.5274 0.8406 -0.1233
vn -0.7796 -0.2623 -0.5687
vn -0.4287 -0.9006 -0.0716
vn 0.7680 -0.0494 0.6386
vn 0.5700 -0.6918 0.4433
vn -0.8925 -0.1500 -0.4255
vn -0.2390 0.9169 0.3197
vn -0.7886 -0.2132 -0.5768
vn -0.8884 0.1105 -0.4456
vn -0.7587 -0.3401 -0.5556
vn -0.2982 -0.9113 -0.2837
vn 0.2689 -0.9623 0.0410
vn 0.7263 -0.5489 0.4138
vn 0.6527 0.5265 0.5447
vn 0.5005 0.7284 0.4679
vn -0.8526 0.1066 -0.5116
vn -0.8861 0.0723 -0.4578
vn 0.6923 0.4420 0.5704
vn -0.8006 0.5950 0.0710
vn -0.7718 -0.2265 -0.5941
vn -0.5061 -0.6922 -0.5144
vn 0.7976 0.2559 0.5462
vn 0.8789 -0.0372 0.4755
vn -0.9030 0.3082 -0.2993
vn 0.7764 0.3933 0.4925
vn 0.5349 0.6633 0.5234
vn -0.8202 0.3042 -0.4846
vn 0.8113 -0.5415 0.2206
vn -0.7961 0.6046 -0.0261
vn -0.2557 0.8262 0.5020
vn -0.4940 -0.1193 -0.8612
vn -0.2435 -0.8812 -0.4053
vn 0.2032 -0.9476 -0.2463
vn -0.3756 -0.6214 -0.6876
vn -0.5720 0.4769 -0.6674
vn -0.5393 0.8399 -0.0615
vn -0.5106 0.7938 0.3305
vn -0.1347 -0.5631 -0.8153
vn -0.0006 0.7883 0.6153
vn -0.4265 -0.0832 -0.9006
vn -0.5980 0.4621 -0.6549
vn -0.6290 0.7694 -0.1117
vn -0.5417 0.8041 0.2450
vn -0.1038 -0.7923 -0.6012
vn 0.1255 -0.8941 -0.4299
vn 0.8941 0.1223 0.4308
vn 0.9130 -0.2925 0.2846
vn -0.8427 -0.1063 -0.5278
vn -0.3822 -0.4911 -0.7828
vn 0.0696 -0.6920 -0.7185
vn 0.6358 0.5259 0.5650
vn 0.1122 -0.9323 -0.3440
vn 0.4972 -0.8557 -0.1433
vn -0.9100 0.2919 -0.2945
vn -0.7121 0.6661 0.2220
vn -0.7940 -0.5023 -0.3423
vn -0.4412 -0.7865 -0.4321
vn -0.1591 -0.8546 -0.4943
vn -0.9848 0.1710 0.0313
vn -0.8760 0.4430 0.1906
vn -0.6749 0.7056 0.2159
vn 0.1196 -0.9029 -0.4128
vn 0.2606 0.7799 0.5690
vn 0.3862 -0.8251 -0.4125
vn -0.9176 -0.3375 -0.2098
vn -0.6157 -0.6714 -0.4125
vn -0.1851 0.8802 0.4371
vn 0.1824 -0.9085 -0.3760
vn 0.2618 -0.9523 -0.1568
vn 0.4059 -0.9059 -0.1206
vn -0.9950 0.0951 0.0300
vn -0.7811 0.5484 0.2986
vn -0.9296 -0.3157 -0.1902
vn -0.2549 -0.8489 -0.4631
vn 0.6264 0.6080 0.4877
vn 0.4534 -0.7332 0.5068
vn 0.1192 -0.9140 -0.3879
vn 0.2097 -0.8626 -0.4604
vn 0.5538 -0.8126 -0.1814
vn -0.6073 0.7800 0.1507
vn -0.9518 0.3052 0.0302
vn -0.4218 -0.6833 -0.5960
vn -0.7620 0.6167 0.1973
vn 0.7608 -0.6056 -0.2331
vn -0.9499 -0.1344 -0.2820
vn -0.0780 0.9122 0.4023
vn 0.4732 -0.7641 -0.4384
vn 0.5072 -0.7831 -0.3597
vn 0.9091 -0.3636 0.2032
vn -0.0242 -0.8296 -0.5578
vn 0.4656 -0.7628 -0.4486
vn -0.9515 0.1169 -0.2845
vn -0.8069 0.5904 0.0201
vn -0.6737 -0.4568 -0.5810
vn 0.3706 -0.8000 -0.4718
vn 0.5217 -0.7841 -0.3362
vn 0.6581 -0.7368 -0.1548
vn -0.8568 0.5129 -0.0538
vn -0.7285 -0.4052 -0.5524
vn -0.8919 -0.1898 -0.4105
vn -0.6238 -0.5943 -0.5076
vn 0.0788 0.9309 0.3567
vn -0.2071 -0.5585 -0.8032
vn 0.9369 -0.3227 0.1345
vn -0.4208 0.8822 0.2112
vn 0.3510 -0.8421 -0.4095
vn 0.0311 -0.8470 -0.5308
vn 0.9502 0.0936 0.2973
vn -0.9583 0.1900 -0.2136
vn 0.7101 0.5898 0.3846
vn -0.6695 0.7401 0.0629
vn -0.0161 -0.8649 -0.5016
vn -0.9246 -0.1723 -0.3397
vn 0.3861 -0.8919 -0.2354
vn 0.1979 0.9221 0.3326
vn 0.5371 -0.8163 -0.2124
vn 0.9343 0.2291 0.2732
vn -0.8952 -0.2312 -0.3810
vn -0.5873 -0.6334 -0.5039
vn 0.0083 -0.9047 -0.4259
vn 0.7264 -0.6778 -0.1136
vn -0.9144 0.4027 -0.0402
vn -0.6299 0.7674 0.1200
vn -0.2894 0.9297 0.2279
vn 0.5122 -0.8129 -0.2771
vn 0.9861 0.0356 0.1621
vn 0.9203 -0.3899 0.0334
vn 0.5068 0.7907 0.3435
vn -0.9786 0.0254 -0.2040
vn 0.0060 0.9431 0.3326
vn 0.0258 -0.8658 -0.4997
vn 0.7036 -0.6561 -0.2730
vn 0.2270 -0.8885 -0.3989
vn -0.7806 -0.4646 -0.4182
vn 0.7846 0.5774 0.2257
vn 0.9987 0.0391 0.0317
vn -0.3660 -0.8162 -0.4470
vn 0.8784 -0.4563 -0.1419
vn -0.7496 0.6443 0.1516
vn -0.9767 -0.1705 -0.1300
vn -0.9975 0.0561 0.0433
vn -0.4794 0.8393 0.2566
vn 0.2769 0.9103 0.3076
vn 0.4300 -0.8008 -0.4169
vn -0.8791 0.4449 0.1708
vn 0.8166 0.5751 0.0481
vn 0.8067 -0.5232 -0.2748
vn -0.9627 0.2448 0.1152
vn -0.6932 0.6540 0.3029
vn -0.3680 0.8387 0.4014
vn -0.7656 -0.5598 -0.3169
vn -0.5410 -0.7994 -0.2613
vn 0.5968 -0.6511 -0.4689
vn 0.6576 -0.6318 -0.4103
vn 0.9446 -0.1754 -0.2773
vn 0.0345 -0.8866 -0.4613
vn 0.9836 0.1526 -0.0966
vn -0.8397 0.3676 0.3997
vn -0.8741 -0.4829 -0.0531
vn 0.6540 -0.5449 -0.5247
vn 0.8003 -0.3924 -0.4533
vn -0.9353 0.1368 0.3265
vn -0.9624 -0.1772 0.2060
vn -0.0268 0.8960 0.4432
vn 0.1110 0.0061 -0.9938
vn 0.2574 0.4578 -0.8510
vn 0.6103 0.4654 -0.6410
vn -0.6536 0.5833 0.4822
vn 0.2005 -0.8695 -0.4514
vn 0.9265 0.1986 -0.3198
vn 0.8903 -0.1288 -0.4367
vn 0.1306 -0.1307 -0.9828
vn -0.6975 0.1065 -0.7086
vn -0.4775 0.5363 -0.6959
vn -0.4201 0.5625 -0.7121
vn 0.1252 0.8982 -0.4214
vn 0.7265 -0.2769 -0.6289
vn -0.5721 -0.8152 -0.0901
vn 0.3971 0.8958 0.1996
vn 0.7951 0.6026 -0.0681
vn 0.6430 -0.5403 -0.5428
vn -0.7506 0.1028 -0.6527
vn -0.5767 -0.0862 -0.8124
vn 0.5306 0.8333 -0.1551
vn -0.3888 0.0414 -0.9204
vn 0.5882 -0.3298 -0.7384
vn 0.2742 -0.2383 -0.9317
vn 0.7140 -0.2208 -0.6644
vn 0.7478 0.0409 -0.6627
vn 0.7219 0.5756 -0.3841
vn 0.7659 0.4990 -0.4054
vn 0.8400 0.4040 -0.3620
vn 0.8637 0.5038 -0.0155
vn 0.6757 -0.2891 -0.6782
vn -0.4883 0.6658 0.5642
vn -0.8734 0.0956 0.4775
vn -0.8462 -0.5071 0.1641
vn 0.6687 -0.4124 -0.6187
vn 0.8241 -0.1007 -0.5575
vn 0.2273 0.9050 -0.3596
vn -0.6544 0.2010 -0.7290
vn -0.8170 -0.1369 -0.5602
vn -0.1097 -0.3897 -0.9144
vn -0.7801 -0.2152 -0.5876
vn -0.3211 -0.4261 -0.8458
vn 0.9901 0.1401 -0.0060
vn -0.7332 0.3705 0.5703
vn -0.8873 -0.2011 0.4151
vn 0.4089 0.8921 0.1921
vn 0.8515 0.2349 -0.4688
vn 0.5925 0.7854 0.1792
vn -0.7913 0.0674 -0.6076
vn -0.7595 -0.1287 -0.6376
vn 0.7279 0.5016 0.4676
vn -0.7598 -0.4743 -0.4448
vn 0.7250 -0.1877 -0.6627
vn 0.1546 -0.8349 -0.5282
vn 0.7738 0.6026 -0.1950
vn 0.5157 -0.5221 -0.6793
vn -0.7076 -0.6164 -0.3453
vn 0.4280 -0.5952 -0.6801
vn -0.2819 -0.7598 -0.5859
vn -0.1772 -0.8765 -0.4476
vn 0.7762 -0.5556 -0.2980
vn 0.7608 -0.1806 -0.6234
vn -0.0217 -0.9995 -0.0229
vn 0.6577 -0.6474 -0.3850
vn 0.7043 -0.4369 -0.5596
vn 0.8644 -0.4933 -0.0971
vn 0.9105 -0.3419 -0.2326
vn 0.2583 -0.7885 -0.5581
vn 0.6863 0.2539 0.6815
vn 0.9400 -0.0277 0.3399
vn -0.8093 0.0764 0.5824
vn -0.1960 0.7192 -0.6665
vn 0.1673 0.9303 -0.3265
vn 0.4596 0.8873 -0.0391
vn 0.6103 0.7809 0.1333
vn -0.6664 0.0693 -0.7424
vn -0.4661 -0.8814 0.0762
vn -0.4576 -0.8844 0.0923
vn 0.1459 -0.9683 0.2027
vn 0.7274 -0.3879 -0.5660
vn 0.6196 -0.0030 0.7849
vn 0.8204 -0.1722 0.5453
vn 0.6398 -0.5838 -0.4998
vn 0.8809 -0.4253 0.2078
vn 0.8807 -0.4121 0.2335
vn 0.7133 -0.4726 -0.5175
vn 0.5902 -0.1734 0.7884
vn 0.8215 -0.1026 0.5609
vn -0.6523 0.3593 0.6674
vn -0.3469 0.6999 0.6243
vn -0.0006 0.8472 0.5312
vn 0.3819 -0.6505 -0.6565
vn -0.2229 -0.9155 -0.3350
vn 0.5471 -0.4207 -0.7237
vn 0.7615 -0.0117 -0.6481
vn -0.7262 -0.0419 -0.6863
vn 0.6311 0.7113 0.3095
vn 0.7229 0.5169 0.4585
vn -0.7416 -0.4696 -0.4791
vn 0.0528 -0.7902 0.6106
vn 0.4247 -0.7951 0.4330
vn 0.3112 -0.5675 0.7623
vn 0.6286 -0.7766 0.0405
vn 0.3171 -0.2474 0.9156
vn 0.3205 -0.5119 0.7970
vn 0.7875 0.4102 -0.4600
vn -0.4918 0.1673 -0.8545
vn 0.6885 0.4852 0.5390
vn -0.5044 -0.8633 0.0202
vn -0.0540 -0.8610 0.5058
vn 0.5034 -0.2342 0.8317
vn -0.8278 -0.2881 0.4815
vn -0.6796 -0.7203 0.1389
vn 0.3717 -0.6128 -0.6974
vn 0.4070 -0.5098 -0.7579
vn 0.4573 -0.4220 -0.7828
vn 0.6260 -0.0782 -0.7759
vn -0.2802 0.4596 -0.8428
vn -0.5475 -0.0035 -0.8368
vn -0.6676 -0.0567 -0.7423
vn 0.3518 -0.4521 0.8196
vn -0.7470 0.0493 0.6630
vn -0.4037 0.5432 0.7362
vn 0.6576 0.7436 -0.1206
vn 0.7022 0.1271 -0.7005
vn 0.0490 0.8962 -0.4410
vn 0.4203 0.8804 0.2196
vn 0.5607 0.5322 0.6343
vn 0.6093 0.2321 0.7582
vn -0.7300 -0.5371 -0.4226
vn -0.6211 0.2638 0.7380
vn -0.7633 -0.3416 0.5484
vn -0.2668 -0.9120 -0.3115
vn 0.3896 0.8750 0.2873
vn 0.3526 -0.3605 -0.8635
vn 0.4637 0.5712 0.6773
vn 0.4466 0.2126 0.8691
vn -0.1906 -0.8445 0.5006
vn 0.1894 -0.6130 0.7671
vn 0.4427 0.0175 0.8965
vn -0.7027 -0.0172 0.7113
vn -0.6970 -0.6125 0.3729
vn 0.2784 -0.4896 -0.8263
vn -0.2356 0.3995 -0.8859
vn -0.3478 0.0926 -0.9330
vn 0.2046 0.9041 -0.3751
vn -0.4347 -0.1629 -0.8857
vn -0.6778 -0.4921 -0.5462
vn 0.3816 -0.2626 0.8862
vn 0.2145 -0.6106 -0.7624
vn 0.6709 0.6731 -0.3110
vn 0.6160 0.2735 -0.7387
vn 0.5179 -0.0241 -0.8551
vn 0.4013 0.7825 0.4762
vn -0.4543 -0.8715 0.1848
vn 0.1040 -0.6038 0.7903
vn -0.0637 0.7634 0.6427
vn -0.3806 0.3918 0.8376
vn -0.0849 -0.7913 -0.6055
vn 0.7125 0.3833 -0.5877
vn 0.2406 -0.3437 -0.9077
vn -0.2580 0.0704 -0.9636
vn 0.0304 0.6909 -0.7224
vn 0.4103 0.3451 0.8441
vn 0.3371 -0.0573 0.9397
vn -0.6010 0.1188 0.7904
vn -0.6398 -0.1394 0.7558
vn 0.4788 0.8708 0.1115
vn -0.5679 -0.8066 0.1641
vn 0.1745 -0.5332 -0.8278
vn -0.1535 0.3426 -0.9269
vn -0.5688 -0.6567 -0.4951
vn 0.0687 0.7338 0.6758
vn 0.0887 0.6847 -0.7234
vn 0.3514 0.9057 -0.2372
vn 0.4709 0.8505 0.2345
vn -0.4458 -0.3983 -0.8016
vn -0.2883 -0.9288 0.2330
vn -0.5399 0.0110 0.8416
vn -0.3197 0.3757 0.8698
vn -0.6477 -0.4070 0.6440
vn -0.0484 -0.7543 -0.6547
vn -0.1680 -0.8355 -0.5232
vn 0.6136 0.6684 -0.4204
vn 0.0088 -0.6036 -0.7973
vn 0.5317 0.2698 -0.8028
vn 0.4070 0.0214 -0.9132
vn 0.4957 0.5875 0.6396
vn -0.3316 -0.2153 -0.9185
vn 0.2872 -0.2137 0.9337
vn -0.5721 -0.2560 0.7792
vn 0.2139 0.8252 0.5227
vn -0.0468 -0.5398 -0.8405
vn -0.0268 0.3931 -0.9191
vn 0.1405 0.7230 -0.6764
vn 0.4665 0.8315 0.3016
vn 0.4202 0.4075 0.8108
vn 0.3238 0.0406 0.9452
vn -0.4486 -0.7889 -0.4200
vn -0.2897 -0.9270 0.2381
vn 0.0381 -0.6193 0.7843
vn -0.4280 0.1000 0.8982
vn 0.3386 0.8575 0.3873
vn -0.5796 -0.7352 0.3516
vn -0.0021 -0.6382 -0.7699
vn -0.1574 -0.8124 -0.5614
vn -0.1088 -0.7010 -0.7048
vn 0.4817 0.4322 -0.7623
vn -0.2447 -0.8457 -0.4742
vn 0.5620 0.7437 -0.3620
vn 0.4188 0.1954 -0.8868
vn 0.3198 0.0273 -0.9471
vn -0.2176 -0.1550 -0.9637
vn 0.3776 0.9203 -0.1024
vn -0.4183 -0.6637 -0.6201
vn -0.0911 0.5103 0.8552
vn -0.5668 -0.5604 0.6039
vn -0.4742 -0.8755 0.0926
vn 0.4270 0.8976 0.1099
vn 0.1472 -0.2484 -0.9574
vn 0.4181 0.4286 -0.8010
vn -0.1235 0.0218 -0.9921
vn -0.3355 -0.9266 0.1698
vn -0.4000 0.0080 0.9165
vn -0.4786 -0.1955 0.8560
vn 0.1429 0.6794 0.7197
vn -0.3077 -0.8634 -0.4000
vn 0.4994 0.7906 -0.3543
vn 0.0440 -0.4264 -0.9035
vn 0.3040 0.1751 -0.9364
vn 0.4929 0.7863 -0.3724
vn 0.1940 -0.0965 -0.9762
vn 0.2347 0.7824 -0.5769
vn 0.0562 0.2668 -0.9621
vn 0.1836 -0.2622 0.9474
vn -0.4852 -0.7552 0.4408
vn 0.3058 0.8648 0.3982
vn 0.3861 0.8881 0.2494
vn -0.3444 -0.8740 -0.3429
vn 0.3713 0.8951 0.2468
vn -0.0113 -0.5496 -0.8353
vn 0.3825 0.4197 -0.8231
vn 0.4685 0.7950 -0.3854
vn 0.0684 -0.3823 -0.9215
vn 0.2323 0.2294 -0.9452
vn 0.0832 0.0734 -0.9938
vn 0.0606 -0.0927 -0.9939
vn 0.3453 0.6380 -0.6883
vn 0.2394 0.5461 -0.8028
vn -0.0281 -0.0632 -0.9976
vn -0.1241 -0.2411 -0.9625
vn 0.4311 0.7481 0.5044
vn -0.3240 -0.5297 -0.7839
vn -0.1672 0.3207 0.9323
vn -0.4532 -0.3853 0.8038
vn -0.5253 -0.7648 0.3729
vn -0.1605 -0.7537 -0.6373
vn -0.1757 -0.7298 -0.6607
vn -0.3087 -0.8543 -0.4183
vn -0.0937 -0.5357 -0.8392
vn 0.1156 -0.2449 -0.9626
vn -0.0779 -0.3940 -0.9158
vn 0.4146 0.8528 -0.3176
vn 0.3909 0.7346 0.5545
vn 0.3248 0.3422 0.8817
vn 0.2635 0.0726 0.9619
vn -0.1928 -0.7337 0.6515
vn 0.1033 -0.1551 0.9825
vn -0.0073 -0.5527 0.8334
vn -0.3432 -0.0770 0.9361
vn -0.0937 0.3084 0.9466
vn 0.1401 0.6304 0.7636
vn -0.4917 -0.7135 0.4992
vn -0.4335 -0.9007 -0.0303
vn 0.3614 0.8595 0.3614
vn -0.3349 -0.7896 -0.5142
vn 0.4203 0.9027 0.0927
vn -0.3664 -0.7773 -0.5113
vn -0.2296 -0.5049 -0.8321
vn -0.4237 -0.7810 -0.4588
vn -0.3955 -0.9096 -0.1277
vn -0.2660 0.0207 0.9637
vn -0.3074 -0.1453 0.9404
vn -0.0811 0.2263 0.9707
vn -0.4869 -0.5633 0.6676
vn 0.2162 0.7111 0.6690
vn -0.5139 -0.8400 0.1740
vn 0.1659 0.4686 0.8677
vn -0.4288 -0.7532 -0.4988
vn 0.2370 0.3723 0.8973
vn 0.1472 0.1324 0.9802
vn -0.0323 0.2843 0.9582
vn -0.3701 -0.2643 0.8906
vn -0.4675 -0.5300 0.7075
vn -0.4739 -0.8727 -0.1179
vn -0.4823 -0.8443 0.2336
vn -0.4233 -0.8893 0.1732
vn -0.3202 -0.6402 0.6983
vn -0.0429 -0.3521 0.9350
vn -0.2486 -0.0869 0.9647
vn -0.1013 0.0246 0.9946
vn -0.4188 -0.5554 0.7185
vn -0.0274 -0.0636 0.9976
vn -0.1536 -0.3007 0.9413
vn -0.2058 -0.1831 0.9613
s 1
usemtl mtl1.1060
f 10//1 3//2 1//3
f 2//4 11//5 1//3
f 2//4 1//3 4//6
f 3//2 5//7 1//3
f 2//4 4//6 16//8
f 1//3 5//7 4//6
f 6//9 7//10 4//6
f 4//6 5//7 6//9
f 4//6 7//10 17//11
f 6//9 15//12 19//13
f 21//14 8//15 11//5
f 11//5 9//16 1//3
f 9//16 11//5 8//15
f 9//16 8//15 34//17
f 34//17 10//1 9//16
f 9//16 10//1 1//3
f 10//1 12//18 3//2
f 13//19 11//5 2//4
f 23//20 3//2 12//18
f 24//21 11//5 13//19
f 24//21 21//14 11//5
f 3//2 14//22 5//7
f 23//20 14//22 3//2
f 23//20 15//12 14//22
f 13//19 2//4 16//8
f 6//9 5//7 14//22
f 17//11 16//8 4//6
f 6//9 14//22 15//12
f 16//8 17//11 18//23
f 7//10 6//9 19//13
f 30//24 19//13 15//12
f 29//25 18//23 17//11
f 20//26 17//11 7//10
f 17//11 20//26 29//25
f 7//10 19//13 20//26
f 19//13 33//27 20//26
f 35//28 22//29 10//1
f 10//1 22//29 12//18
f 12//18 22//29 23//20
f 25//30 24//21 13//19
f 26//31 15//12 23//20
f 25//30 13//19 27//32
f 15//12 26//31 37//33
f 16//8 18//23 27//32
f 13//19 16//8 27//32
f 28//34 27//32 18//23
f 15//12 39//35 30//24
f 29//25 28//34 18//23
f 30//24 43//36 33//27
f 31//37 29//25 20//26
f 31//37 20//26 32//38
f 32//38 20//26 33//27
f 33//27 19//13 30//24
f 35//28 10//1 34//17
f 8//15 21//14 51//39
f 46//40 22//29 35//28
f 22//29 48//41 37//33
f 23//20 22//29 37//33
f 37//33 26//31 23//20
f 36//42 24//21 25//30
f 25//30 38//43 36//42
f 38//43 25//30 27//32
f 15//12 37//33 39//35
f 27//32 28//34 40//44
f 40//44 38//43 27//32
f 43//36 30//24 39//35
f 40//44 28//34 29//25
f 31//37 41//45 29//25
f 40//44 29//25 41//45
f 33//27 43//36 42//46
f 31//37 32//38 41//45
f 32//38 42//46 41//45
f 42//46 32//38 33//27
f 34//17 8//15 44//47
f 44//47 45//48 34//17
f 34//17 45//48 35//28
f 21//14 24//21 47//49
f 24//21 36//42 47//49
f 49//50 36//42 38//43
f 48//41 39//35 37//33
f 49//50 38//43 40//44
f 39//35 53//51 43//36
f 42//46 40//44 41//45
f 40//44 42//46 54//52
f 43//36 53//51 42//46
f 44//47 8//15 50//53
f 35//28 55//54 46//40
f 35//28 45//48 55//54
f 56//55 8//15 51//39
f 52//56 51//39 21//14
f 47//49 57//57 52//56
f 52//56 21//14 47//49
f 49//50 59//58 36//42
f 48//41 53//51 39//35
f 67//59 49//50 40//44
f 67//59 40//44 54//52
f 60//60 54//52 42//46
f 53//51 60//60 42//46
f 8//15 56//55 50//53
f 58//61 46//40 61//62
f 61//62 46//40 55//54
f 51//39 52//56 65//63
f 52//56 62//64 65//63
f 58//61 22//29 46//40
f 52//56 57//57 62//64
f 63//65 22//29 58//61
f 36//42 57//57 47//49
f 63//65 48//41 22//29
f 63//65 53//51 48//41
f 49//50 67//59 59//58
f 44//47 64//66 45//48
f 44//47 50//53 64//66
f 64//66 55//54 45//48
f 71//67 62//64 57//57
f 73//68 57//57 36//42
f 66//69 53//51 63//65
f 53//51 66//69 68//70
f 53//51 68//70 60//60
f 72//71 64//66 50//53
f 51//39 65//63 56//55
f 58//61 61//62 75//72
f 61//62 70//73 75//72
f 63//65 58//61 75//72
f 73//68 36//42 59//58
f 54//52 60//60 67//59
f 50//53 56//55 72//71
f 61//62 55//54 70//73
f 69//74 56//55 65//63
f 72//71 56//55 69//74
f 65//63 62//64 71//67
f 77//75 67//59 60//60
f 79//76 64//66 72//71
f 55//54 80//77 70//73
f 71//67 69//74 65//63
f 71//67 74//78 69//74
f 71//67 57//57 73//68
f 63//65 75//72 66//69
f 82//79 59//58 76//80
f 73//68 59//58 82//79
f 76//80 59//58 67//59
f 77//75 60//60 68//70
f 81//81 74//78 73//68
f 74//78 71//67 73//68
f 77//75 76//80 67//59
f 69//74 74//78 78//82
f 78//82 79//76 69//74
f 78//82 89//83 79//76
f 69//74 79//76 72//71
f 91//84 80//77 64//66
f 79//76 91//84 64//66
f 80//77 55//54 64//66
f 85//85 74//78 81//81
f 80//77 93//86 70//73
f 74//78 83//87 78//82
f 84//88 78//82 83//87
f 89//83 78//82 97//89
f 85//85 83//87 74//78
f 89//83 90//90 79//76
f 91//84 93//86 80//77
f 86//91 85//85 81//81
f 81//81 73//68 82//79
f 86//91 81//81 82//79
f 86//91 82//79 95//92
f 143//93 68//70 66//69
f 143//93 112//94 68//70
f 97//89 78//82 84//88
f 87//95 83//87 88//96
f 87//95 84//88 83//87
f 83//87 85//85 88//96
f 90//90 91//84 79//76
f 88//96 85//85 86//91
f 86//91 92//97 88//96
f 70//73 93//86 94//98
f 70//73 94//98 75//72
f 94//98 66//69 75//72
f 95//92 92//97 86//91
f 95//92 82//79 99//99
f 99//99 82//79 76//80
f 106//100 76//80 77//75
f 84//88 87//95 96//101
f 84//88 96//101 97//89
f 96//101 98//102 97//89
f 101//103 87//95 88//96
f 90//90 89//83 97//89
f 101//103 88//96 109//104
f 92//97 102//105 88//96
f 96//101 87//95 100//106
f 100//106 87//95 101//103
f 101//103 107//107 100//106
f 98//102 96//101 100//106
f 98//102 100//106 107//107
f 98//102 90//90 97//89
f 107//107 90//90 98//102
f 90//90 107//107 110//108
f 109//104 88//96 102//105
f 102//105 92//97 104//109
f 93//86 103//110 94//98
f 104//109 92//97 105//111
f 95//92 105//111 92//97
f 76//80 106//100 99//99
f 106//100 77//75 112//94
f 101//103 108//112 107//107
f 108//112 101//103 109//104
f 110//108 91//84 90//90
f 115//113 109//104 102//105
f 91//84 111//114 93//86
f 111//114 103//110 93//86
f 121//115 102//105 104//109
f 118//116 105//111 95//92
f 105//111 118//116 117//117
f 104//109 105//111 117//117
f 66//69 94//98 143//93
f 95//92 99//99 118//116
f 112//94 77//75 68//70
f 114//118 120//119 107//107
f 114//118 108//112 113//120
f 114//118 107//107 108//112
f 120//119 110//108 107//107
f 109//104 115//113 108//112
f 115//113 113//120 108//112
f 115//113 102//105 116//121
f 116//121 102//105 121//115
f 122//122 94//98 103//110
f 104//109 117//117 121//115
f 117//117 118//116 119//123
f 123//124 117//117 119//123
f 118//116 99//99 126//125
f 99//99 106//100 127//126
f 110//108 124//127 91//84
f 117//117 123//124 121//115
f 123//124 118//116 126//125
f 135//128 120//119 114//118
f 129//129 113//120 115//113
f 120//119 128//130 110//108
f 129//129 115//113 116//121
f 111//114 91//84 124//127
f 129//129 116//121 121//115
f 121//115 123//124 131//131
f 126//125 99//99 127//126
f 128//130 120//119 135//128
f 113//120 133//132 114//118
f 114//118 133//132 135//128
f 133//132 113//120 129//129
f 103//110 111//114 137//133
f 129//129 121//115 130//134
f 131//131 130//134 121//115
f 131//131 123//124 125//135
f 123//124 126//125 125//135
f 94//98 122//122 143//93
f 132//136 127//126 106//100
f 112//94 132//136 106//100
f 128//130 124//127 110//108
f 129//129 130//134 138//137
f 134//138 130//134 131//131
f 125//135 126//125 134//138
f 140//139 135//128 133//132
f 135//128 141//140 128//130
f 124//127 128//130 141//140
f 136//141 133//132 129//129
f 137//133 111//114 124//127
f 139//142 142//143 130//134
f 139//142 130//134 134//138
f 139//142 134//138 126//125
f 132//136 147//144 127//126
f 140//139 146//145 135//128
f 146//145 141//140 135//128
f 140//139 133//132 136//141
f 140//139 136//141 144//146
f 136//141 129//129 138//137
f 137//133 122//122 103//110
f 142//143 138//137 130//134
f 112//94 143//93 132//136
f 144//146 148//147 140//139
f 154//148 136//141 138//137
f 157//149 122//122 137//133
f 139//142 126//125 145//150
f 139//142 145//150 142//143
f 132//136 143//93 153//151
f 147//144 126//125 127//126
f 153//151 147//144 132//136
f 146//145 124//127 141//140
f 124//127 160//152 137//133
f 137//133 160//152 157//149
f 138//137 151//153 150//154
f 151//153 138//137 142//143
f 142//143 145//150 151//153
f 152//155 143//93 122//122
f 152//155 153//151 143//93
f 149//156 146//145 140//139
f 149//156 140//139 148//147
f 136//141 154//148 144//146
f 138//137 150//154 154//148
f 158//157 152//155 122//122
f 145//150 126//125 151//153
f 151//153 126//125 147//144
f 148//147 144//146 154//148
f 146//145 159//158 124//127
f 159//158 160//152 124//127
f 151//153 155//159 150//154
f 148//147 154//148 156//160
f 150//154 155//159 154//148
f 155//159 151//153 161//161
f 157//149 158//157 122//122
f 165//162 158//157 157//149
f 151//153 147//144 162//163
f 151//153 162//163 161//161
f 153//151 152//155 169//164
f 154//148 164//165 156//160
f 168//166 164//165 154//148
f 166//167 154//148 155//159
f 155//159 161//161 166//167
f 163//168 162//163 147//144
f 163//168 147//144 153//151
f 149//156 174//169 146//145
f 176//170 159//158 146//145
f 148//147 156//160 149//156
f 159//158 167//171 160//152
f 162//163 166//167 161//161
f 172//172 166//167 162//163
f 153//151 169//164 173//173
f 170//174 163//168 153//151
f 156//160 164//165 149//156
f 167//171 157//149 160//152
f 167//171 165//162 157//149
f 168//166 154//148 166//167
f 175//175 158//157 165//162
f 152//155 158//157 169//164
f 158//157 175//175 169//164
f 163//168 172//172 162//163
f 159//158 176//170 167//171
f 170//174 153//151 173//173
f 146//145 174//169 176//170
f 149//156 164//165 180//176
f 176//170 177//177 167//171
f 172//172 171//178 166//167
f 171//178 168//166 166//167
f 163//168 179//179 172//172
f 179//179 163//168 170//174
f 149//156 180//176 174//169
f 167//171 177//177 165//162
f 172//172 178//180 171//178
f 164//165 181//181 180//176
f 164//165 168//166 181//181
f 177//177 175//175 165//162
f 183//182 169//164 175//175
f 170//174 173//173 184//183
f 182//184 168//166 171//178
f 182//184 171//178 178//180
f 182//184 181//181 168//166
f 178//180 172//172 179//179
f 187//185 170//174 184//183
f 185//186 176//170 174//169
f 181//181 191//187 180//176
f 183//182 173//173 169//164
f 180//176 191//187 190//188
f 188//189 177//177 176//170
f 183//182 175//175 177//177
f 199//190 183//182 177//177
f 178//180 186//191 182//184
f 173//173 183//182 184//183
f 187//185 179//179 170//174
f 190//188 174//169 180//176
f 189//192 185//186 174//169
f 185//186 188//189 176//170
f 184//183 183//182 197//193
f 202//194 179//179 187//185
f 190//188 192//195 174//169
f 189//192 174//169 192//195
f 193//196 188//189 185//186
f 198//197 177//177 188//189
f 194//198 191//187 181//181
f 194//198 181//181 200//199
f 199//190 197//193 183//182
f 196//200 182//184 186//191
f 186//191 178//180 203//201
f 187//185 184//183 204//202
f 187//185 204//202 202//194
f 185//186 189//192 193//196
f 200//199 181//181 182//184
f 200//199 182//184 195//203
f 203//201 196//200 186//191
f 184//183 197//193 201//204
f 178//180 179//179 203//201
f 184//183 201//204 204//202
f 193//196 189//192 212//205
f 193//196 198//197 188//189
f 177//177 198//197 199//190
f 205//206 191//187 194//198
f 196//200 195//203 182//184
f 206//207 179//179 207//208
f 202//194 207//208 179//179
f 192//195 190//188 213//209
f 192//195 213//209 212//205
f 189//192 192//195 212//205
f 191//187 214//210 190//188
f 199//190 198//197 230//211
f 194//198 200//199 205//206
f 206//207 203//201 179//179
f 207//208 202//194 204//202
f 208//212 210//213 211//214
f 218//215 198//197 193//196
f 205//206 214//210 191//187
f 190//188 214//210 213//209
f 232//216 195//203 196//200
f 203//201 232//216 196//200
f 216//217 201//204 197//193
f 207//208 204//202 215//218
f 204//202 201//204 216//217
f 217//219 221//220 208//212
f 208//212 221//220 219//221
f 219//221 209//222 208//212
f 210//213 220//223 211//214
f 217//219 208//212 211//214
f 211//214 266//224 217//219
f 212//205 218//215 193//196
f 233//225 200//199 195//203
f 199//190 231//226 197//193
f 234//227 197//193 231//226
f 234//227 216//217 197//193
f 203//201 235//228 232//216
f 206//207 235//228 203//201
f 204//202 216//217 215//218
f 209//222 219//221 220//223
f 221//220 236//229 219//221
f 210//213 209//222 220//223
f 222//230 221//220 217//219
f 220//223 226//231 211//214
f 223//232 222//230 217//219
f 223//232 224//233 222//230
f 238//234 222//230 224//233
f 217//219 238//234 224//233
f 266//224 211//214 227//235
f 226//231 225//236 211//214
f 227//235 211//214 225//236
f 225//236 511//237 227//235
f 512//238 226//231 228//239
f 237//240 228//239 226//231
f 227//235 228//239 250//241
f 229//242 198//197 218//215
f 214//210 242//243 213//209
f 205//206 243//244 214//210
f 230//211 231//226 199//190
f 233//225 205//206 200//199
f 233//225 243//244 205//206
f 232//216 233//225 195//203
f 207//208 254//245 206//207
f 207//208 215//218 254//245
f 255//246 254//245 215//218
f 219//221 244//247 220//223
f 219//221 236//229 302//248
f 244//247 226//231 220//223
f 222//230 247//249 221//220
f 217//219 240//250 238//234
f 247//249 222//230 239//251
f 222//230 238//234 240//250
f 241//252 239//251 240//250
f 227//235 250//241 266//224
f 251//253 250//241 228//239
f 237//240 251//253 228//239
f 242//243 212//205 213//209
f 252//254 218//215 212//205
f 229//242 230//211 198//197
f 253//255 242//243 214//210
f 231//226 300//256 234//227
f 256//257 216//217 234//227
f 216//217 255//246 215//218
f 244//247 245//258 226//231
f 246//259 247//249 257//260
f 236//229 221//220 246//259
f 245//258 237//240 226//231
f 258//261 237//240 245//258
f 247//249 246//259 221//220
f 247//249 239//251 241//252
f 241//252 248//262 247//249
f 240//250 217//219 266//224
f 258//261 251//253 237//240
f 260//263 240//250 266//224
f 242//243 252//254 212//205
f 229//242 218//215 252//254
f 243//244 253//255 214//210
f 270//264 233//225 232//216
f 235//228 270//264 232//216
f 272//265 256//257 234//227
f 300//256 272//265 234//227
f 270//264 235//228 271//266
f 235//228 206//207 271//266
f 271//266 206//207 254//245
f 216//217 256//257 255//246
f 248//262 274//267 247//249
f 241//252 259//268 249//269
f 261//270 249//269 259//268
f 266//224 279//271 260//263
f 240//250 259//268 241//252
f 240//250 262//272 259//268
f 262//272 240//250 260//263
f 259//268 264//273 261//270
f 265//274 264//273 259//268
f 262//272 260//263 265//274
f 280//275 281//276 266//224
f 250//241 280//275 266//224
f 267//277 280//275 250//241
f 267//277 250//241 269//278
f 269//278 250//241 251//253
f 306//279 268//280 251//253
f 268//280 267//277 251//253
f 267//277 268//280 280//275
f 252//254 242//243 297//281
f 219//221 273//282 244//247
f 302//248 273//282 219//221
f 316//283 244//247 273//282
f 244//247 288//284 289//285
f 244//247 289//285 245//258
f 246//259 291//286 236//229
f 257//260 247//249 274//267
f 258//261 306//279 251//253
f 249//269 275//287 274//267
f 274//267 248//262 249//269
f 275//287 249//269 261//270
f 275//287 261//270 263//288
f 275//287 263//288 264//273
f 276//289 264//273 265//274
f 277//290 265//274 260//263
f 276//289 265//274 277//290
f 268//280 318//291 282//292
f 277//290 260//263 279//271
f 514//293 277//290 279//271
f 296//294 279//271 266//224
f 296//294 295//295 279//271
f 266//224 281//276 296//294
f 281//276 283//296 296//294
f 283//296 281//276 282//292
f 318//291 284//297 282//292
f 268//280 282//292 513//298
f 282//292 281//276 513//298
f 298//299 252//254 297//281
f 285//300 230//211 229//242
f 231//226 230//211 312//301
f 312//301 300//256 231//226
f 270//264 301//302 299//303
f 270//264 271//266 301//302
f 271//266 254//245 286//304
f 286//304 254//245 255//246
f 287//305 286//304 255//246
f 255//246 256//257 287//305
f 244//247 316//283 288//284
f 291//286 246//259 290//306
f 289//285 288//284 303//307
f 290//306 246//259 257//260
f 304//308 245//258 289//285
f 257//260 305//309 290//306
f 304//308 258//261 245//258
f 274//267 305//309 257//260
f 306//279 258//261 304//308
f 264//273 276//289 275//287
f 278//310 292//311 308//312
f 284//297 318//291 296//294
f 292//311 515//313 279//271
f 292//311 279//271 293//314
f 279//271 295//295 293//314
f 292//311 293//314 294//315
f 292//311 294//315 308//312
f 298//299 229//242 252//254
f 285//300 229//242 298//299
f 253//255 297//281 242//243
f 230//211 285//300 312//301
f 233//225 270//264 299//303
f 272//265 313//316 256//257
f 273//282 302//248 315//317
f 236//229 291//286 302//248
f 317//318 304//308 289//285
f 330//319 305//309 274//267
f 268//280 306//279 318//291
f 276//289 278//310 307//320
f 307//320 278//310 308//312
f 295//295 309//321 308//312
f 308//312 294//315 295//295
f 296//294 309//321 295//295
f 296//294 318//291 309//321
f 310//322 297//281 253//255
f 243//244 233//225 311//323
f 253//255 243//244 310//322
f 310//322 243//244 311//323
f 311//323 233//225 299//303
f 321//324 301//302 271//266
f 322//325 271//266 286//304
f 322//325 286//304 314//326
f 287//305 323//327 286//304
f 315//317 324//328 273//282
f 273//282 324//328 316//283
f 302//248 326//329 315//317
f 327//330 291//286 290//306
f 289//285 303//307 317//318
f 275//287 330//319 274//267
f 275//287 276//289 330//319
f 276//289 307//320 330//319
f 319//331 308//312 309//321
f 298//299 297//281 320//332
f 298//299 332//333 285//300
f 300//256 338//334 272//265
f 322//325 321//324 271//266
f 272//265 338//334 313//316
f 256//257 313//316 287//305
f 287//305 313//316 333//335
f 314//326 286//304 323//327
f 287//305 333//335 323//327
f 324//328 334//336 316//283
f 334//336 288//284 316//283
f 303//307 288//284 343//337
f 343//337 325//338 303//307
f 326//329 302//248 291//286
f 291//286 327//330 326//329
f 325//338 317//318 303//307
f 325//338 329//339 317//318
f 290//306 305//309 328//340
f 317//318 306//279 304//308
f 306//279 317//318 329//339
f 329//339 318//291 306//279
f 331//341 298//299 320//332
f 320//332 297//281 310//322
f 332//333 298//299 331//341
f 310//322 311//323 346//342
f 337//343 299//303 301//302
f 311//323 299//303 337//343
f 301//302 321//324 337//343
f 339//344 338//334 300//256
f 323//327 340//345 314//326
f 288//284 334//336 343//337
f 344//346 325//338 343//337
f 290//306 328//340 327//330
f 325//338 335//347 329//339
f 328//340 305//309 330//319
f 330//319 307//320 352//348
f 307//320 336//349 352//348
f 309//321 318//291 353//350
f 307//320 308//312 336//349
f 308//312 319//331 336//349
f 310//322 346//342 354//351
f 310//322 354//351 320//332
f 312//301 339//344 300//256
f 311//323 337//343 347//352
f 349//353 314//326 340//345
f 341//354 324//328 342//355
f 341//354 350//356 334//336
f 324//328 315//317 342//355
f 324//328 341//354 334//336
f 343//337 334//336 350//356
f 342//355 315//317 363//357
f 351//358 326//329 327//330
f 351//358 327//330 328//340
f 353//350 329//339 335//347
f 318//291 329//339 353//350
f 309//321 345//359 319//331
f 354//351 331//341 320//332
f 312//301 285//300 332//333
f 346//342 311//323 347//352
f 348//360 321//324 322//325
f 348//360 337//343 321//324
f 349//353 348//360 322//325
f 322//325 314//326 349//353
f 313//316 338//334 358//361
f 368//362 323//327 333//335
f 340//345 323//327 359//363
f 362//364 343//337 350//356
f 363//357 315//317 326//329
f 343//337 362//364 344//346
f 351//358 363//357 326//329
f 344//346 335//347 325//338
f 364//365 351//358 328//340
f 364//365 328//340 330//319
f 330//319 352//348 364//365
f 345//359 371//366 336//349
f 345//359 336//349 319//331
f 332//333 355//367 312//301
f 331//341 373//368 332//333
f 339//344 358//361 338//334
f 348//360 356//369 337//343
f 349//353 356//369 348//360
f 313//316 357//370 333//335
f 357//370 313//316 358//361
f 357//370 368//362 333//335
f 340//345 359//363 367//371
f 368//362 359//363 323//327
f 341//354 342//355 361//372
f 360//373 350//356 341//354
f 363//357 361//372 342//355
f 369//374 335//347 344//346
f 353//350 372//375 345//359
f 309//321 353//350 345//359
f 352//348 336//349 371//366
f 331//341 354//351 365//376
f 331//341 365//376 373//368
f 354//351 346//342 366//377
f 346//342 347//352 366//377
f 332//333 373//368 355//367
f 312//301 355//367 339//344
f 339//344 382//378 358//361
f 374//379 347//352 337//343
f 374//379 337//343 356//369
f 375//380 356//369 349//353
f 349//353 340//345 367//371
f 368//362 357//370 358//361
f 341//354 361//372 376//381
f 376//381 360//373 341//354
f 362//364 369//374 344//346
f 370//382 363//357 351//358
f 372//375 335//347 369//374
f 353//350 335//347 372//375
f 364//365 352//348 371//366
f 372//375 371//366 345//359
f 366//377 365//376 354//351
f 355//367 381//383 339//344
f 349//353 367//371 375//380
f 376//381 386//384 360//373
f 386//384 387//385 360//373
f 350//356 360//373 387//385
f 377//386 362//364 350//356
f 362//364 377//386 369//374
f 389//387 363//357 370//382
f 370//382 351//358 390//388
f 364//365 390//388 351//358
f 365//376 366//377 379//389
f 365//376 379//389 373//368
f 381//383 373//368 378//390
f 381//383 355//367 373//368
f 366//377 347//352 380//391
f 347//352 374//379 380//391
f 381//383 382//378 339//344
f 383//392 374//379 356//369
f 375//380 383//392 356//369
f 374//379 383//392 392//393
f 368//362 358//361 384//394
f 367//371 385//395 375//380
f 368//362 393//396 359//363
f 393//396 394//397 359//363
f 367//371 359//363 394//397
f 387//385 377//386 350//356
f 388//398 369//374 377//386
f 389//387 395//399 363//357
f 371//366 390//388 364//365
f 372//375 410//400 371//366
f 366//377 398//401 379//389
f 380//391 398//401 366//377
f 381//383 400//402 382//378
f 392//393 383//392 375//380
f 384//394 358//361 382//378
f 405//403 367//371 394//397
f 368//362 384//394 393//396
f 376//381 361//372 407//404
f 386//384 376//381 407//404
f 417//405 387//385 386//384
f 418//406 377//386 387//385
f 369//374 388//398 419//407
f 361//372 363//357 395//399
f 369//374 419//407 408//408
f 389//387 370//382 396//409
f 396//409 370//382 390//388
f 409//410 396//409 390//388
f 397//411 371//366 410//400
f 373//368 379//389 399//412
f 378//390 373//368 399//412
f 400//402 391//413 382//378
f 401//414 374//379 392//393
f 401//414 380//391 374//379
f 398//401 380//391 401//414
f 384//394 382//378 391//413
f 385//395 402//415 375//380
f 375//380 402//415 392//393
f 402//415 403//416 392//393
f 402//415 385//395 404//417
f 414//418 393//396 384//394
f 404//417 412//419 402//415
f 384//394 413//420 414//418
f 405//403 385//395 367//371
f 393//396 414//418 406//421
f 404//417 385//395 405//403
f 393//396 406//421 394//397
f 415//422 394//397 406//421
f 386//384 407//404 417//405
f 395//399 434//423 361//372
f 435//424 387//385 417//405
f 418//406 388//398 377//386
f 396//409 420//425 389//387
f 390//388 371//366 409//410
f 421//426 378//390 399//412
f 421//426 381//383 378//390
f 400//402 381//383 421//426
f 379//389 398//401 399//412
f 391//413 400//402 421//426
f 401//414 422//427 398//401
f 392//393 403//416 401//414
f 401//414 403//416 411//428
f 411//428 422//427 401//414
f 391//413 423//429 384//394
f 402//415 412//419 403//416
f 394//397 416//430 405//403
f 394//397 415//422 416//430
f 414//418 426//431 406//421
f 415//422 406//421 426//431
f 432//432 407//404 361//372
f 361//372 434//423 432//432
f 418//406 387//385 435//424
f 395//399 389//387 420//425
f 396//409 409//410 436//433
f 369//374 408//408 372//375
f 371//366 397//411 409//410
f 399//412 398//401 451//434
f 398//401 422//427 437//435
f 421//426 438//436 391//413
f 411//428 403//416 412//419
f 423//429 413//420 384//394
f 424//437 412//419 404//417
f 404//417 405//403 424//437
f 414//418 413//420 425//438
f 414//418 425//438 426//431
f 405//403 416//430 427//439
f 426//431 430//440 415//422
f 425//438 428//441 426//431
f 416//430 415//422 427//439
f 427//439 415//422 429//442
f 415//422 430//440 429//442
f 433//443 417//405 431//444
f 431//444 407//404 432//432
f 407//404 431//444 417//405
f 418//406 419//407 388//398
f 410//400 372//375 408//408
f 410//400 465//445 397//411
f 398//401 437//435 451//434
f 438//436 423//429 391//413
f 422//427 411//428 439//446
f 440//447 423//429 438//436
f 412//419 424//437 411//428
f 413//420 423//429 455//448
f 455//448 425//438 413//420
f 424//437 405//403 441//449
f 441//449 405//403 427//439
f 425//438 456//450 428//441
f 429//442 442//451 427//439
f 426//431 444//452 430//440
f 428//441 443//453 426//431
f 426//431 443//453 444//452
f 442//451 429//442 445//454
f 444//452 446//455 430//440
f 429//442 430//440 446//455
f 446//455 447//456 461//457
f 446//455 462//458 449//459
f 446//455 449//459 447//456
f 461//457 447//456 448//460
f 449//459 431//444 447//456
f 447//456 431//444 448//460
f 433//443 449//459 435//424
f 448//460 431//444 432//432
f 449//459 433//443 431//444
f 434//423 450//461 432//432
f 435//424 417//405 433//443
f 464//462 418//406 435//424
f 419//407 418//406 464//462
f 395//399 463//463 434//423
f 420//425 463//463 395//399
f 396//409 436//433 420//425
f 436//433 409//410 397//411
f 465//445 410//400 408//408
f 399//412 451//434 421//426
f 421//426 451//434 452//464
f 452//464 438//436 421//426
f 437//435 422//427 453//465
f 422//427 439//446 453//465
f 439//446 411//428 424//437
f 439//446 424//437 454//466
f 453//465 439//446 454//466
f 455//448 423//429 440//447
f 454//466 424//437 441//449
f 455//448 456//450 425//438
f 457//467 441//449 427//439
f 457//467 427//439 442//451
f 458//468 457//467 442//451
f 456//450 443//453 428//441
f 469//469 458//468 470//470
f 442//451 445//454 458//468
f 458//468 445//454 470//470
f 446//455 444//452 443//453
f 429//442 460//471 445//454
f 429//442 446//455 460//471
f 443//453 462//458 446//455
f 460//471 461//457 472//472
f 460//471 446//455 461//457
f 459//473 462//458 443//453
f 449//459 462//458 459//473
f 435//424 449//459 459//473
f 450//461 461//457 448//460
f 448//460 432//432 450//461
f 475//474 464//462 435//424
f 450//461 434//423 463//463
f 419//407 487//475 498//476
f 419//407 498//476 408//408
f 489//477 436//433 397//411
f 408//408 508//478 465//445
f 476//479 397//411 465//445
f 437//435 466//480 451//434
f 466//480 437//435 453//465
f 466//480 452//464 451//434
f 438//436 452//464 478//481
f 466//480 478//481 452//464
f 438//436 455//448 440//447
f 455//448 438//436 480//482
f 454//466 467//483 453//465
f 467//483 454//466 441//449
f 468//484 441//449 457//467
f 467//483 441//449 468//484
f 457//467 458//468 468//484
f 468//484 458//468 469//469
f 471//485 443//453 456//450
f 470//470 483//486 469//469
f 459//473 443//453 471//485
f 445//454 460//471 470//470
f 471//485 473//487 459//473
f 460//471 472//472 470//470
f 484//488 472//472 474//489
f 461//457 450//461 472//472
f 435//424 459//473 473//487
f 472//472 450//461 474//489
f 435//424 473//487 475//474
f 463//463 474//489 450//461
f 475//474 487//475 464//462
f 474//489 463//463 486//490
f 487//475 419//407 464//462
f 488//491 486//490 463//463
f 488//491 463//463 420//425
f 488//491 420//425 436//433
f 397//411 476//479 489//477
f 465//445 508//478 476//479
f 478//481 466//480 477//492
f 477//492 466//480 479//493
f 466//480 453//465 479//493
f 480//482 438//436 478//481
f 479//493 478//481 477//492
f 480//482 456//450 455//448
f 480//482 478//481 490//494
f 453//465 467//483 481//495
f 453//465 481//495 479//493
f 468//484 481//495 467//483
f 456//450 480//482 482//496
f 492//497 468//484 469//469
f 456//450 482//496 471//485
f 484//488 483//486 470//470
f 470//470 472//472 484//488
f 493//498 475//474 471//485
f 471//485 475//474 473//487
f 485//499 484//488 474//489
f 493//498 495//500 475//474
f 485//499 474//489 486//490
f 495//500 487//475 475//474
f 487//475 496//501 498//476
f 436//433 489//477 488//491
f 408//408 498//476 508//478
f 478//481 479//493 490//494
f 491//502 480//482 490//494
f 479//493 481//495 500//503
f 480//482 491//502 482//496
f 481//495 468//484 492//497
f 481//495 501//504 500//503
f 492//497 469//469 483//486
f 493//498 471//485 482//496
f 491//502 493//498 482//496
f 492//497 483//486 484//488
f 484//488 494//505 504//506
f 484//488 485//499 494//505
f 493//498 496//501 495//500
f 486//490 494//505 485//499
f 496//501 487//475 495//500
f 494//505 486//490 497//507
f 497//507 486//490 488//491
f 505//508 497//507 489//477
f 497//507 488//491 489//477
f 489//477 476//479 499//509
f 508//478 499//509 476//479
f 479//493 500//503 502//510
f 479//493 502//510 490//494
f 481//495 492//497 501//504
f 490//494 502//510 491//502
f 501//504 502//510 500//503
f 510//511 491//502 502//510
f 501//504 503//512 502//510
f 492//497 484//488 504//506
f 510//511 493//498 491//502
f 492//497 504//506 501//504
f 501//504 504//506 503//512
f 496//501 493//498 510//511
f 506//513 496//501 510//511
f 504//506 505//508 503//512
f 504//506 494//505 505//508
f 497//507 505//508 494//505
f 507//514 503//512 505//508
f 505//508 489//477 507//514
f 499//509 507//514 489//477
f 508//478 496//501 506//513
f 507//514 499//509 508//478
f 496//501 508//478 498//476
f 503//512 509//515 502//510
f 502//510 509//515 510//511
f 509//515 506//513 510//511
f 503//512 507//514 509//515
f 507//514 506//513 509//515
f 508//478 506//513 507//514
