# Blender 4.0.2
# www.blender.org
mtllib rib8_l.mtl
o rib8_l.002
v -0.002125 0.005964 0.001178
v -0.002151 0.003257 0.000909
v -0.000276 -0.000194 -0.000279
v 0.000666 0.003139 0.000587
v 0.001568 0.007209 0.000626
v -0.004080 0.007684 -0.000527
v -0.001645 0.008741 0.000819
v -0.000480 0.009892 0.000187
v -0.002632 -0.000584 -0.000561
v -0.000641 -0.002431 -0.001764
v 0.002263 0.010654 -0.001119
v 0.003927 0.005496 -0.000246
v 0.004132 0.008817 -0.000986
v 0.003425 0.000783 -0.001049
v 0.005395 0.007159 -0.001626
v 0.005244 0.003238 -0.001374
v 0.005002 -0.000228 -0.003418
v -0.005738 0.001540 -0.001100
v -0.005740 0.003586 -0.000926
v -0.002145 0.010377 -0.000994
v -0.005460 -0.001502 -0.001982
v -0.007277 0.001370 -0.003852
v 0.001232 0.011335 -0.001618
v -0.004742 -0.003563 -0.003089
v 0.003078 0.010581 -0.002274
v -0.000090 -0.003031 -0.003107
v 0.004764 0.009104 -0.002150
v 0.002979 -0.001662 -0.003030
v 0.005935 0.002322 -0.003046
v 0.005306 0.000474 -0.004003
v 0.005832 0.002307 -0.003512
v -0.004641 0.008149 -0.001637
v -0.004466 0.010017 -0.003023
v -0.002304 0.011313 -0.003473
v 0.000929 0.011587 -0.002632
v 0.001527 0.010628 -0.003838
v -0.003876 -0.004276 -0.004153
v 0.005847 0.005995 -0.003019
v 0.005010 0.008092 -0.003251
v 0.004471 0.000120 -0.004700
v 0.002196 -0.000656 -0.005473
v -0.007671 0.003495 -0.005140
v -0.007774 -0.003346 -0.007079
v 0.001197 0.009413 -0.004708
v -0.001193 0.008087 -0.006118
v -0.001089 -0.001954 -0.007917
v 0.002362 0.001644 -0.005752
v -0.006558 0.009229 -0.005574
v -0.009063 0.005974 -0.008177
v -0.006857 0.008848 -0.008026
v -0.006227 -0.004384 -0.007616
v -0.000474 -0.000659 -0.008436
v -0.009729 0.001983 -0.009554
v -0.010620 -0.002651 -0.010024
v -0.003416 0.005064 -0.009289
v -0.002633 0.000362 -0.010565
v -0.005114 -0.004319 -0.011702
v -0.009854 0.007182 -0.009704
v -0.005762 0.008059 -0.008675
v -0.009439 -0.006058 -0.012430
v -0.005767 -0.004239 -0.014267
v -0.011647 0.001021 -0.011933
v -0.015925 -0.003542 -0.013383
v -0.012828 0.002887 -0.012618
v -0.012678 -0.000877 -0.013145
v -0.014473 -0.004529 -0.013931
v -0.013778 -0.003068 -0.013208
v -0.016361 0.000165 -0.015182
v -0.018842 -0.006173 -0.014941
v -0.018166 -0.007715 -0.016196
v -0.014827 0.000057 -0.013704
v -0.013760 0.003132 -0.014246
v -0.011135 0.006823 -0.014062
v -0.010071 0.007265 -0.013742
v -0.014775 -0.005897 -0.015569
v -0.009645 0.005964 -0.015134
v -0.009640 0.001696 -0.017057
v -0.006080 0.002224 -0.013791
v -0.011309 -0.008672 -0.021249
v -0.022440 -0.007572 -0.017101
v -0.020624 -0.005598 -0.015073
v -0.022125 -0.005597 -0.016164
v -0.021563 -0.004221 -0.015965
v -0.020687 -0.008751 -0.017809
v -0.011235 0.006104 -0.015671
v -0.013888 -0.007233 -0.017887
v -0.011655 -0.008383 -0.018587
v -0.022971 -0.005356 -0.017684
v -0.021634 -0.003803 -0.017812
v -0.016819 -0.009348 -0.019681
v -0.013490 0.000059 -0.022496
v -0.023449 -0.008200 -0.021543
v -0.021186 -0.009145 -0.019707
v -0.014513 0.002273 -0.019006
v -0.013794 0.002366 -0.020258
v -0.015799 -0.008782 -0.020481
v -0.015330 -0.010395 -0.022360
v -0.011717 -0.009090 -0.020503
v -0.023970 -0.007411 -0.022430
v -0.021385 -0.003724 -0.023148
v -0.020192 -0.010081 -0.021145
v -0.020222 -0.010180 -0.022213
v -0.018288 -0.009659 -0.023146
v -0.012782 -0.009276 -0.023294
v -0.021693 -0.010098 -0.022634
v -0.025157 -0.010265 -0.025264
v -0.022130 -0.011652 -0.024894
v -0.016113 0.000693 -0.023711
v -0.017497 -0.012646 -0.027356
v -0.025905 -0.009122 -0.027064
v -0.026310 -0.007528 -0.033160
v -0.018592 -0.000650 -0.026506
v -0.023113 -0.014088 -0.028638
v -0.020446 -0.010971 -0.026614
v -0.021218 -0.013075 -0.029400
v -0.016655 -0.011939 -0.028895
v -0.025955 -0.013645 -0.029477
v -0.019595 -0.001890 -0.030419
v -0.018519 -0.002807 -0.030679
v -0.019844 -0.014463 -0.030799
v -0.024197 -0.015410 -0.030971
v -0.028357 -0.012683 -0.033365
v -0.023373 -0.016835 -0.034610
v -0.019071 -0.009700 -0.032672
v -0.019967 -0.015116 -0.033916
v -0.020821 -0.006245 -0.035160
v -0.019832 -0.014505 -0.034840
v -0.028644 -0.011016 -0.037481
v -0.027200 -0.008702 -0.039047
v -0.024985 -0.017844 -0.034377
v -0.029366 -0.019880 -0.040597
v -0.023142 -0.005698 -0.036631
v -0.024725 -0.020581 -0.040460
v -0.026821 -0.020818 -0.039434
v -0.022699 -0.009128 -0.040178
v -0.023191 -0.019572 -0.040081
v -0.022039 -0.018361 -0.041312
v -0.028865 -0.012166 -0.047341
v -0.025448 -0.008777 -0.042554
v -0.027130 -0.024211 -0.043503
v -0.022634 -0.012701 -0.043124
v -0.030775 -0.021593 -0.044750
v -0.024096 -0.023780 -0.047738
v -0.030763 -0.017311 -0.044080
v -0.030530 -0.025902 -0.046841
v -0.029440 -0.027234 -0.047334
v -0.028438 -0.027069 -0.047392
v -0.023313 -0.021856 -0.048551
v -0.031057 -0.015558 -0.049883
v -0.027550 -0.012050 -0.048519
v -0.024506 -0.013795 -0.049086
v -0.030770 -0.032041 -0.052254
v -0.029242 -0.030717 -0.050634
v -0.026917 -0.027759 -0.050364
v -0.032365 -0.030243 -0.052313
v -0.023994 -0.017607 -0.051608
v -0.033457 -0.021931 -0.057325
v -0.023456 -0.026320 -0.058158
v -0.032663 -0.019971 -0.057537
v -0.033646 -0.028482 -0.056298
v -0.026869 -0.015148 -0.054034
v -0.032507 -0.033990 -0.056326
v -0.030011 -0.034581 -0.055992
v -0.026593 -0.031329 -0.057945
v -0.030723 -0.017641 -0.057172
v -0.033396 -0.033206 -0.057672
v -0.024911 -0.019024 -0.057345
v -0.031448 -0.037124 -0.060055
v -0.029061 -0.037651 -0.060041
v -0.023273 -0.023771 -0.060023
v -0.024229 -0.029969 -0.058963
v -0.029792 -0.038109 -0.060584
v -0.032232 -0.020364 -0.059796
v -0.033733 -0.032040 -0.060581
v -0.026830 -0.019994 -0.061327
v -0.023754 -0.023039 -0.062523
v -0.030501 -0.038333 -0.062326
v -0.023030 -0.032641 -0.062824
v -0.033848 -0.025857 -0.061555
v -0.031340 -0.037659 -0.063141
v -0.022241 -0.025842 -0.064125
v -0.032729 -0.023342 -0.062471
v -0.033181 -0.031040 -0.063969
v -0.027502 -0.039121 -0.063866
v -0.028367 -0.039093 -0.065395
v -0.021024 -0.028790 -0.066213
v -0.023796 -0.035941 -0.065295
v -0.031410 -0.026594 -0.066720
v -0.027738 -0.021757 -0.065145
v -0.024014 -0.024000 -0.067820
v -0.030340 -0.037437 -0.066633
v -0.025848 -0.039377 -0.067700
v -0.028652 -0.023290 -0.066719
v -0.025771 -0.023008 -0.067310
v -0.030442 -0.034429 -0.068867
v -0.027232 -0.039743 -0.067630
v -0.021007 -0.026585 -0.068152
v -0.022943 -0.038868 -0.069898
v -0.018586 -0.039848 -0.072874
v -0.017758 -0.036400 -0.071946
v 0.115735 -0.123897 -0.098115
v 0.116850 -0.124900 -0.098300
v 0.116603 -0.124856 -0.098322
v 0.116581 -0.124907 -0.098290
v 0.116971 -0.124958 -0.098325
v 0.117577 -0.125010 -0.098827
v -0.022701 -0.043050 -0.073382
v 0.115219 -0.120665 -0.098479
v 0.116631 -0.116357 -0.098450
v 0.116124 -0.116157 -0.098625
v 0.117223 -0.114270 -0.098086
v 0.117935 -0.112302 -0.097562
v 0.119186 -0.113011 -0.098861
v 0.118872 -0.110725 -0.097300
v 0.119450 -0.110145 -0.097348
v 0.119448 -0.110037 -0.097187
v 0.120258 -0.108883 -0.097610
v 0.120622 -0.108483 -0.098052
v 0.120566 -0.108718 -0.097824
v 0.118881 -0.118657 -0.099471
v 0.117215 -0.125182 -0.099126
v 0.114503 -0.123939 -0.100952
v 0.117820 -0.125044 -0.099306
v 0.117835 -0.125021 -0.099318
v 0.119236 -0.124307 -0.101484
v -0.026312 -0.038298 -0.074510
v -0.025102 -0.042346 -0.073505
v -0.023697 -0.043077 -0.073264
v -0.016229 -0.030517 -0.074008
v 0.109856 -0.121054 -0.103396
v 0.120001 -0.106765 -0.100417
v 0.121720 -0.108113 -0.099255
v 0.123281 -0.108878 -0.100626
v 0.120203 -0.123190 -0.102371
v 0.121207 -0.121280 -0.102889
v -0.026852 -0.030584 -0.073693
v -0.023959 -0.043201 -0.075777
v -0.019118 -0.042404 -0.075370
v 0.115262 -0.108816 -0.100908
v 0.110174 -0.120275 -0.102522
v 0.116240 -0.105049 -0.102983
v 0.122154 -0.107748 -0.102550
v 0.114084 -0.123334 -0.103305
v 0.124197 -0.111571 -0.102529
v 0.124206 -0.110673 -0.101961
v 0.124002 -0.109865 -0.101501
v 0.120982 -0.121724 -0.102912
v 0.120976 -0.121686 -0.102896
v 0.121574 -0.119948 -0.103174
v 0.121583 -0.119947 -0.103183
v 0.123672 -0.113099 -0.103144
v -0.024076 -0.027827 -0.075036
v -0.019902 -0.027487 -0.074548
v -0.014196 -0.043610 -0.077670
v -0.011790 -0.043495 -0.079276
v 0.110988 -0.122024 -0.104525
v 0.117504 -0.105179 -0.103593
v 0.122949 -0.109848 -0.103836
v 0.121040 -0.116002 -0.104797
v 0.120358 -0.117748 -0.105147
v 0.122347 -0.116312 -0.103676
v -0.019429 -0.029408 -0.079062
v -0.017082 -0.047879 -0.080256
v -0.011907 -0.033275 -0.078747
v -0.009401 -0.036568 -0.080605
v -0.013568 -0.046636 -0.080757
v 0.110452 -0.113333 -0.104043
v 0.103646 -0.116131 -0.108282
v 0.112755 -0.107333 -0.103827
v 0.112700 -0.121633 -0.106247
v 0.115729 -0.120574 -0.106826
v -0.022394 -0.031548 -0.078610
v 0.106127 -0.116812 -0.105562
v 0.111224 -0.103744 -0.105803
v 0.112801 -0.102804 -0.105825
v 0.118721 -0.106128 -0.105460
v 0.117464 -0.107063 -0.107458
v 0.117535 -0.113442 -0.108193
v -0.019449 -0.044480 -0.081709
v -0.016784 -0.048272 -0.083271
v -0.016514 -0.048771 -0.082081
v -0.006330 -0.036572 -0.084194
v -0.007691 -0.048121 -0.082744
v 0.102828 -0.108593 -0.108038
v 0.106653 -0.118500 -0.109368
v 0.107357 -0.117193 -0.111052
v -0.016593 -0.036948 -0.084682
v -0.011148 -0.033163 -0.083201
v -0.010343 -0.051884 -0.087776
v -0.000359 -0.052559 -0.087285
v 0.107263 -0.099600 -0.108591
v 0.109488 -0.100637 -0.110005
v 0.114605 -0.118176 -0.108581
v -0.016185 -0.034039 -0.084067
v -0.014496 -0.045510 -0.086341
v -0.003714 -0.055249 -0.090045
v -0.003625 -0.054481 -0.089119
v -0.002752 -0.040511 -0.085621
v 0.099604 -0.111289 -0.108886
v 0.104361 -0.099463 -0.108865
v 0.108436 -0.101642 -0.111483
v -0.005811 -0.038617 -0.091468
v -0.008460 -0.051019 -0.089962
v -0.004234 -0.055099 -0.091372
v 0.006376 -0.048143 -0.091059
v 0.005504 -0.056070 -0.090589
v 0.004568 -0.057332 -0.091171
v 0.010669 -0.060039 -0.093438
v 0.092727 -0.108852 -0.111915
v 0.101548 -0.114754 -0.111729
v -0.005882 -0.036585 -0.088890
v -0.000610 -0.039555 -0.089762
v 0.002094 -0.042268 -0.089594
v 0.004174 -0.060552 -0.094329
v 0.018700 -0.065724 -0.097203
v 0.096638 -0.101200 -0.109891
v 0.096867 -0.097031 -0.110426
v 0.098891 -0.096192 -0.110908
v 0.102377 -0.097365 -0.110639
v 0.100687 -0.111974 -0.113975
v 0.106344 -0.112901 -0.112615
v 0.108744 -0.106179 -0.112271
v -0.008608 -0.040642 -0.091138
v -0.002606 -0.038940 -0.092326
v 0.001185 -0.057044 -0.095493
v 0.004345 -0.042093 -0.093521
v 0.009947 -0.046405 -0.094629
v 0.010470 -0.047378 -0.094296
v 0.013304 -0.067133 -0.098203
v 0.023068 -0.060366 -0.098815
v 0.025212 -0.069794 -0.099678
v 0.083096 -0.094732 -0.111208
v 0.091011 -0.106960 -0.111340
v 0.094096 -0.094009 -0.111471
v 0.099409 -0.112808 -0.113091
v 0.104196 -0.098264 -0.112011
v 0.006053 -0.043686 -0.096055
v 0.004320 -0.060689 -0.096433
v 0.013593 -0.048630 -0.096478
v 0.022020 -0.056219 -0.099571
v 0.021484 -0.071286 -0.100841
v 0.026153 -0.068716 -0.099496
v 0.076797 -0.097770 -0.112096
v 0.097069 -0.095172 -0.113176
v 0.101470 -0.098239 -0.113619
v 0.095108 -0.105064 -0.116417
v 0.100849 -0.103666 -0.115371
v 0.001526 -0.048257 -0.097213
v 0.007756 -0.046941 -0.098859
v 0.014816 -0.049159 -0.099214
v 0.013152 -0.067189 -0.099820
v 0.023279 -0.056099 -0.100943
v 0.020869 -0.071522 -0.102595
v 0.024867 -0.073554 -0.102210
v 0.030937 -0.076770 -0.104317
v 0.039977 -0.077605 -0.105271
v 0.039480 -0.069967 -0.104104
v 0.081779 -0.090760 -0.111596
v 0.079746 -0.102155 -0.113115
v 0.084054 -0.089933 -0.112550
v 0.084104 -0.104766 -0.114840
v 0.098279 -0.101843 -0.115879
v 0.014112 -0.049698 -0.100829
v 0.018992 -0.052484 -0.099859
v 0.017824 -0.068195 -0.103033
v 0.025539 -0.072989 -0.105423
v 0.033607 -0.062302 -0.104863
v 0.029166 -0.076156 -0.105258
v 0.035532 -0.079821 -0.107795
v 0.044705 -0.069129 -0.106928
v 0.038113 -0.081155 -0.107304
v 0.052443 -0.083646 -0.109187
v 0.052101 -0.077598 -0.108214
v 0.061826 -0.083307 -0.109936
v 0.059797 -0.078585 -0.109855
v 0.071746 -0.083826 -0.111617
v 0.060941 -0.092098 -0.112275
v 0.066208 -0.095516 -0.113082
v 0.078329 -0.087347 -0.112346
v 0.078173 -0.086965 -0.113838
v 0.086233 -0.090732 -0.114667
v 0.082442 -0.101804 -0.117518
v 0.022508 -0.055152 -0.103122
v 0.036116 -0.079652 -0.109469
v 0.042327 -0.084234 -0.109223
v 0.045757 -0.068935 -0.108866
v 0.050662 -0.072480 -0.109475
v 0.047038 -0.087857 -0.111566
v 0.051300 -0.074292 -0.108490
v 0.052764 -0.090287 -0.112208
v 0.063870 -0.078600 -0.111739
v 0.065830 -0.095912 -0.113941
v 0.076809 -0.086883 -0.115297
v 0.077414 -0.101287 -0.116547
v 0.083992 -0.091179 -0.115828
v 0.082746 -0.097602 -0.117896
v 0.020339 -0.055498 -0.104538
v 0.029840 -0.060774 -0.107491
v 0.021204 -0.060295 -0.106058
v 0.042806 -0.067314 -0.109635
v 0.046158 -0.087432 -0.112597
v 0.045727 -0.086482 -0.113639
v 0.050401 -0.072155 -0.111739
v 0.052022 -0.090852 -0.114113
v 0.061197 -0.077425 -0.113884
v 0.058700 -0.093018 -0.113936
v 0.070847 -0.082763 -0.114623
v 0.070896 -0.095604 -0.118180
v 0.030007 -0.067199 -0.108794
v 0.032912 -0.066117 -0.109513
v 0.044108 -0.069039 -0.111225
v 0.040023 -0.075468 -0.112095
v 0.052138 -0.090602 -0.115517
v 0.064648 -0.080237 -0.115038
v 0.058289 -0.092975 -0.116384
v 0.068440 -0.096145 -0.117830
v 0.045869 -0.071437 -0.112458
v 0.051913 -0.087641 -0.116481
v 0.050477 -0.080071 -0.115279
v 0.056881 -0.087660 -0.117380
v 0.060913 -0.082428 -0.116370
v 0.053077 -0.089724 -0.116574
v 0.067712 -0.090231 -0.117946
v 0.117248 -0.113736 -0.097930
v 0.117361 -0.113797 -0.098028
v 0.118889 -0.110734 -0.097282
v 0.119301 -0.110234 -0.097491
v 0.120116 -0.109516 -0.097529
vn -0.2234 0.0494 0.9735
vn -0.1708 -0.1835 0.9681
vn 0.2226 -0.1854 0.9571
vn -0.2306 0.3836 0.8942
vn 0.2802 0.1477 0.9485
vn 0.1408 -0.4461 0.8838
vn -0.7408 0.0903 0.6657
vn -0.6784 0.3215 0.6606
vn -0.3828 0.7563 0.5306
vn -0.6574 -0.1775 0.7323
vn 0.0208 0.6085 0.7933
vn -0.1757 -0.4409 0.8802
vn -0.5846 -0.3962 0.7080
vn 0.4013 0.6803 0.6133
vn 0.1581 -0.7160 0.6800
vn -0.3519 -0.7286 0.5876
vn 0.5667 0.4198 0.7089
vn 0.4625 -0.4214 0.7801
vn 0.4890 -0.0125 0.8722
vn 0.7329 -0.1605 0.6611
vn 0.8714 0.2127 0.4421
vn 0.5000 -0.8545 0.1409
vn 0.7360 -0.6684 0.1073
vn -0.8839 -0.0668 0.4629
vn -0.6127 0.6913 0.3829
vn 0.1371 0.9097 0.3920
vn -0.6105 -0.5859 0.5329
vn 0.0652 -0.9838 0.1668
vn 0.6003 0.7969 -0.0679
vn 0.3687 -0.9227 0.1125
vn 0.7904 0.6101 0.0560
vn 0.7338 0.3345 -0.5914
vn 0.9241 0.1361 -0.3571
vn 0.9977 -0.0640 -0.0217
vn 0.5592 -0.3802 -0.7367
vn 0.8445 -0.3116 -0.4356
vn 0.6378 0.6568 -0.4023
vn -0.9048 0.2229 0.3629
vn -0.7869 0.3299 0.5215
vn -0.1556 0.9724 -0.1741
vn 0.1263 0.9832 -0.1317
vn 0.3213 0.6757 -0.6635
vn 0.5959 -0.7346 -0.3244
vn 0.5592 -0.5499 -0.6204
vn 0.5684 0.0876 -0.8181
vn -0.6720 0.7023 0.2349
vn 0.3910 0.4702 -0.7912
vn -0.0006 -0.9742 0.2259
vn 0.3469 0.3740 -0.8601
vn 0.7300 -0.2505 -0.6359
vn -0.8389 0.0302 0.5434
vn -0.8197 0.0372 0.5716
vn -0.0198 0.9473 -0.3198
vn -0.7741 0.0364 0.6321
vn 0.4150 0.6982 -0.5833
vn 0.7038 0.1624 -0.6916
vn -0.7887 0.5061 0.3489
vn 0.5794 0.4104 -0.7041
vn -0.2384 -0.8596 0.4520
vn 0.5441 -0.8384 -0.0306
vn -0.6776 -0.0703 0.7320
vn -0.7468 0.1173 0.6546
vn 0.6446 0.2784 -0.7121
vn 0.7217 0.2488 -0.6460
vn 0.8197 -0.3678 -0.4391
vn -0.5837 0.8055 -0.1025
vn 0.0378 0.9293 -0.3675
vn -0.4482 0.0275 0.8935
vn -0.5433 0.0159 0.8394
vn -0.3229 -0.6031 0.7294
vn 0.1119 -0.9251 0.3629
vn -0.1817 -0.1894 0.9650
vn -0.4990 0.2036 0.8423
vn -0.8200 0.5022 0.2746
vn 0.5639 0.5362 -0.6281
vn -0.0381 -0.7864 0.6165
vn 0.7852 -0.5377 -0.3071
vn -0.0932 -0.5379 0.8379
vn -0.4085 -0.1814 0.8945
vn -0.6815 0.4671 0.5634
vn -0.6775 0.6427 0.3577
vn 0.0844 -0.7601 0.6443
vn -0.1471 0.8213 -0.5513
vn -0.0573 -0.8551 0.5152
vn -0.7402 -0.0075 0.6723
vn -0.6593 -0.5276 0.5357
vn -0.6888 0.7219 0.0671
vn -0.1880 -0.8706 0.4547
vn -0.6466 0.7568 -0.0964
vn 0.2957 -0.9282 0.2258
vn 0.5504 -0.8165 0.1741
vn -0.9293 0.2855 0.2342
vn -0.3387 -0.8835 0.3236
vn -0.0925 0.8592 -0.5031
vn 0.1250 -0.9256 0.3573
vn 0.6412 0.4349 -0.6322
vn 0.8387 -0.2615 -0.4777
vn -0.7751 -0.4874 0.4020
vn -0.7224 0.6894 0.0540
vn -0.0592 -0.9559 0.2877
vn -0.0956 -0.8698 0.4840
vn -0.9376 0.2348 0.2566
vn 0.1218 -0.9753 0.1840
vn -0.3515 -0.7991 0.4877
vn 0.0196 -0.9534 0.3012
vn -0.1210 0.9367 -0.3284
vn 0.0372 -0.8798 0.4739
vn 0.1053 -0.8789 0.4652
vn 0.2470 -0.9324 0.2639
vn 0.1487 -0.8441 0.5151
vn 0.8550 -0.4116 -0.3155
vn -0.7472 -0.3862 0.5409
vn -0.9303 0.2363 0.2806
vn -0.8015 0.5942 0.0673
vn -0.4933 0.8685 -0.0489
vn -0.5981 -0.5878 0.5447
vn 0.1667 -0.8658 0.4717
vn -0.0741 0.9046 -0.4198
vn 0.8763 0.0879 -0.4737
vn 0.6706 0.4351 -0.6008
vn 0.1577 -0.8927 0.4222
vn -0.9485 0.0062 0.3166
vn 0.0827 -0.8448 0.5286
vn 0.7940 -0.6075 -0.0229
vn 0.9429 -0.1995 -0.2667
vn 0.1218 -0.8576 0.4998
vn 0.2486 -0.8405 0.4815
vn -0.6895 0.7137 -0.1238
vn 0.0053 0.8724 -0.4887
vn 0.7438 0.3457 -0.5721
vn -0.9238 0.3724 0.0885
vn -0.0926 -0.7915 0.6041
vn 0.4070 -0.8001 0.4406
vn -0.7225 -0.4568 0.5190
vn -0.6200 0.7489 -0.2341
vn 0.9344 0.1777 -0.3089
vn 0.6294 -0.7395 0.2386
vn 0.7242 0.4983 -0.4767
vn 0.9491 -0.3095 -0.0584
vn -0.9810 0.0867 0.1735
vn 0.0049 0.9009 -0.4339
vn 0.3434 -0.7906 0.5071
vn -0.9395 -0.1327 0.3157
vn -0.6562 -0.4629 0.5960
vn 0.7855 -0.5646 0.2534
vn 0.7382 0.5384 -0.4063
vn -0.1657 -0.6960 0.6986
vn 0.3953 -0.7416 0.5420
vn 0.9884 -0.1492 -0.0296
vn -0.8890 0.4554 -0.0486
vn -0.2033 0.8761 -0.4372
vn 0.9650 0.1911 -0.1795
vn 0.6524 -0.6469 0.3948
vn 0.2264 0.8242 -0.5191
vn -0.2968 -0.7244 0.6222
vn -0.8297 -0.3284 0.4513
vn 0.3312 -0.7315 0.5960
vn -0.9766 0.2147 -0.0112
vn 0.6655 -0.5940 0.4520
vn 0.9818 -0.1010 0.1610
vn -0.9863 -0.0312 0.1622
vn -0.6726 -0.6019 0.4305
vn 0.5549 -0.6514 0.5174
vn 0.7842 -0.4608 0.4155
vn -0.8553 0.4895 -0.1700
vn -0.4465 0.7926 -0.4152
vn -0.6348 -0.7121 0.2999
vn -0.9336 -0.3189 0.1633
vn 0.7403 0.5736 -0.3507
vn -0.1111 -0.9026 0.4159
vn 0.4311 -0.7059 0.5620
vn 0.9742 0.2225 0.0378
vn -0.7036 0.5876 -0.3996
vn -0.7901 -0.5969 -0.1395
vn 0.7870 0.6045 -0.1234
vn -0.9794 -0.1868 -0.0770
vn -0.9697 0.1288 -0.2075
vn 0.3111 0.8438 -0.4373
vn -0.4437 -0.8918 0.0887
vn 0.7584 -0.3619 0.5421
vn 0.9121 0.0989 0.3978
vn 0.9350 0.2965 0.1944
vn 0.3038 -0.8860 0.3504
vn -0.4176 -0.9077 0.0413
vn 0.5544 -0.6106 0.5655
vn -0.7928 0.4309 -0.4311
vn -0.9360 -0.0946 -0.3391
vn -0.1486 0.8501 -0.5052
vn -0.8739 -0.1390 -0.4657
vn -0.8256 -0.5073 -0.2471
vn -0.4695 0.6584 -0.5884
vn -0.7781 0.2825 -0.5611
vn 0.1535 0.8805 -0.4486
vn 0.5384 0.8237 -0.1778
vn 0.8019 0.5773 0.1539
vn 0.3943 -0.8102 0.4336
vn 0.4436 -0.7516 0.4881
vn 0.4378 -0.5570 0.7058
vn 0.7585 -0.1619 0.6313
vn 0.4043 -0.6809 0.6107
vn -0.3454 -0.2839 0.8945
vn -0.1425 -0.3301 0.9331
vn 0.3709 0.0919 0.9241
vn 0.4928 -0.2521 0.8328
vn 0.4732 -0.7023 0.5319
vn -0.4802 -0.8762 0.0406
vn -0.4482 -0.8788 0.1638
vn -0.0107 -0.9998 0.0178
vn -0.7449 0.1762 -0.6435
vn -0.8160 -0.1453 -0.5594
vn -0.6473 -0.7621 0.0113
vn 0.3004 -0.6825 0.6663
vn 0.8056 0.4535 0.3814
vn 0.0136 -0.0666 0.9977
vn -0.5040 0.0938 0.8586
vn -0.2708 0.0675 0.9603
vn 0.0012 -0.2695 0.9630
vn 0.0718 -0.2832 0.9564
vn 0.4719 -0.1618 0.8667
vn 0.5346 -0.2961 0.7915
vn -0.7085 0.3071 0.6354
vn -0.6021 0.2637 0.7536
vn 0.7546 -0.5031 0.4212
vn 0.5521 -0.4467 0.7040
vn 0.6577 0.4452 0.6077
vn -0.0808 0.1436 0.9863
vn 0.0386 0.1175 0.9923
vn 0.2425 0.4002 0.8838
vn 0.2859 0.6880 0.6670
vn 0.5495 -0.1206 0.8268
vn 0.8006 -0.3008 0.5182
vn 0.3097 -0.9507 -0.0135
vn 0.5509 -0.8248 -0.1269
vn 0.8340 -0.3370 0.4369
vn 0.7425 -0.6382 -0.2033
vn -0.4585 0.6081 -0.6480
vn 0.4486 0.8757 -0.1787
vn -0.2227 -0.8980 0.3796
vn 0.3348 -0.6093 0.7188
vn -0.6841 -0.1172 0.7199
vn -0.5856 0.3550 0.7288
vn -0.4962 0.4654 0.7329
vn -0.1018 0.7771 0.6211
vn -0.7073 -0.6210 0.3378
vn 0.2628 0.8874 0.3787
vn -0.1589 -0.9209 -0.3560
vn 0.7952 0.3701 0.4802
vn 0.6877 -0.2626 0.6768
vn 0.9419 -0.3287 -0.0694
vn -0.7573 -0.5921 -0.2756
vn -0.0490 -0.8064 0.5893
vn 0.3456 -0.5341 0.7715
vn 0.5915 -0.1279 0.7961
vn -0.5521 0.1950 0.8107
vn 0.6590 0.7331 -0.1684
vn 0.3093 -0.5709 -0.7605
vn 0.9890 -0.1324 -0.0663
vn 0.9289 -0.2695 -0.2539
vn 0.9361 0.1419 0.3217
vn 0.5145 -0.4153 -0.7502
vn 0.8635 -0.4881 -0.1271
vn 0.9521 -0.2166 0.2158
vn 0.8425 -0.3051 -0.4439
vn 0.7418 0.5073 0.4386
vn 0.7045 0.0962 0.7032
vn 0.1917 -0.6173 0.7630
vn -0.5535 0.2880 0.7815
vn -0.6171 -0.1115 0.7790
vn -0.4379 -0.8840 -0.1635
vn 0.4036 0.9080 0.1122
vn -0.0406 -0.8134 -0.5803
vn 0.7400 0.2829 -0.6103
vn 0.5944 -0.2423 -0.7668
vn 0.6380 -0.1165 -0.7611
vn 0.7242 -0.1954 -0.6613
vn -0.6276 0.2606 -0.7336
vn -0.1343 0.7766 -0.6155
vn -0.7514 -0.1735 -0.6367
vn -0.6723 -0.6818 0.2885
vn 0.0805 0.8197 0.5671
vn 0.6118 0.6891 -0.3883
vn 0.5816 0.2993 -0.7564
vn 0.3557 -0.3392 -0.8709
vn 0.5132 -0.0699 -0.8554
vn 0.4440 0.8903 -0.1015
vn -0.7071 -0.5321 -0.4657
vn -0.4722 -0.8763 0.0953
vn 0.1987 -0.5425 0.8162
vn -0.3290 0.3149 0.8903
vn 0.5556 0.7501 -0.3587
vn 0.0440 -0.5557 -0.8302
vn -0.6334 0.1112 -0.7658
vn 0.2786 -0.3809 0.8817
vn -0.2985 0.1079 0.9483
vn -0.3887 -0.8428 -0.3723
vn -0.4300 0.4435 -0.7864
vn 0.2355 0.8971 -0.3739
vn -0.6489 -0.1235 -0.7508
vn -0.6212 -0.6776 -0.3936
vn 0.6744 0.6201 0.4009
vn -0.2883 -0.8761 0.3865
vn 0.0016 -0.7272 0.6864
vn 0.6332 0.1937 0.7494
vn -0.4091 -0.1295 0.9033
vn -0.1385 0.3182 0.9379
vn 0.2255 0.8373 0.4980
vn -0.4136 -0.8259 -0.3832
vn 0.4843 0.3433 -0.8047
vn -0.6089 -0.2358 -0.7574
vn -0.5923 -0.7627 -0.2600
vn 0.5336 0.1215 0.8369
vn 0.3112 -0.2599 0.9141
vn 0.0259 -0.6131 0.7896
vn 0.2706 -0.1904 -0.9437
vn 0.4162 0.0603 -0.9073
vn -0.4932 0.1631 -0.8545
vn -0.2283 0.5608 -0.7958
vn 0.5876 0.7844 0.1987
vn 0.6654 0.5039 0.5508
vn 0.1836 -0.3833 0.9052
vn -0.4992 -0.7628 0.4110
vn -0.3022 -0.3339 0.8928
vn -0.1600 0.0558 0.9855
vn 0.1904 0.7953 0.5756
vn 0.3517 0.9267 0.1322
vn -0.3430 -0.7370 -0.5824
vn 0.5309 0.8471 0.0228
vn -0.5789 -0.2602 -0.7728
vn -0.3481 -0.8383 0.4196
vn 0.6059 0.4034 0.6857
vn 0.6229 0.7076 0.3336
vn 0.4517 0.1714 0.8755
vn -0.0209 0.2762 0.9609
vn 0.4759 0.7570 -0.4477
vn 0.0244 -0.4067 -0.9132
vn 0.3043 0.0446 -0.9515
vn 0.0844 0.7712 -0.6310
vn -0.4325 0.0734 -0.8986
vn -0.6391 -0.6145 -0.4626
vn -0.3187 -0.8029 0.5038
vn 0.1742 -0.3078 0.9354
vn 0.6249 0.3874 0.6778
vn 0.0783 -0.4410 0.8941
vn 0.2579 -0.1390 0.9561
vn -0.0468 -0.0094 0.9989
vn 0.2606 0.7765 0.5738
vn 0.4062 0.8413 -0.3566
vn 0.3715 0.4580 -0.8076
vn 0.3335 0.8227 -0.4603
vn 0.6350 0.6689 0.3864
vn -0.6035 -0.7220 -0.3385
vn -0.5414 -0.8148 -0.2074
vn -0.2323 -0.7699 0.5944
vn -0.2686 -0.8049 0.5291
vn 0.3684 0.1355 0.9197
vn 0.1462 -0.3311 0.9322
vn -0.1227 -0.2505 0.9603
vn -0.3794 -0.6901 0.6163
vn 0.1539 0.2931 0.9436
vn 0.3300 0.7898 0.5170
vn -0.4110 -0.8773 -0.2478
vn 0.2369 0.1668 -0.9571
vn 0.0966 -0.1629 -0.9819
vn -0.1284 0.4646 -0.8762
vn -0.5054 -0.3647 -0.7820
vn 0.5216 0.8379 -0.1606
vn 0.6685 0.7046 0.2379
vn 0.6339 0.6242 0.4567
vn -0.5281 -0.8417 -0.1125
vn 0.5652 0.6790 0.4685
vn -0.2095 -0.7804 0.5892
vn 0.0710 -0.1009 0.9924
vn -0.1485 -0.4737 0.8680
vn -0.2765 -0.6439 0.7134
vn 0.3882 0.8129 -0.4342
vn 0.2169 0.4194 -0.8815
vn 0.1801 0.7013 -0.6897
vn 0.4745 0.8392 -0.2656
vn -0.5077 -0.4320 -0.7453
vn -0.5445 -0.8366 -0.0607
vn 0.5115 0.5546 0.6563
vn -0.2446 -0.7437 0.6221
vn -0.3030 -0.7499 0.5881
vn 0.0917 -0.2847 0.9542
vn 0.4021 0.3565 0.8433
vn 0.2299 -0.0042 0.9732
vn 0.2893 0.2940 0.9110
vn -0.1933 -0.7114 0.6757
vn 0.3745 0.5638 0.7361
vn -0.3635 -0.8552 0.3695
vn 0.4270 0.7508 0.5039
vn 0.4448 0.8929 -0.0701
vn -0.3447 -0.8005 -0.4903
vn -0.0963 -0.4217 -0.9016
vn 0.1000 0.0973 -0.9902
vn -0.3148 0.0589 -0.9473
vn 0.0134 0.5253 -0.8508
vn -0.5840 -0.4828 -0.6525
vn 0.5517 0.8238 0.1301
vn 0.5435 0.7445 0.3876
vn -0.5873 -0.7970 -0.1408
vn -0.4010 -0.8363 0.3739
vn 0.4666 0.8067 0.3627
vn -0.3008 -0.8801 0.3673
vn 0.4401 0.7775 -0.4491
vn 0.3222 0.5975 -0.7343
vn -0.2196 -0.4354 -0.8730
vn 0.1038 0.5962 -0.7961
vn -0.3491 -0.0602 -0.9352
vn 0.4109 0.8575 -0.3096
vn -0.5758 -0.4420 -0.6878
vn 0.3926 0.8493 -0.3529
vn -0.4095 -0.9091 0.0770
vn -0.3583 -0.8068 -0.4699
vn 0.3096 0.7797 -0.5443
vn -0.0365 -0.0919 -0.9951
vn -0.1635 0.1976 -0.9666
vn -0.3195 0.0147 -0.9475
vn 0.1695 0.6269 -0.7605
vn 0.0144 0.4031 -0.9150
vn -0.3070 -0.0485 -0.9505
vn -0.4691 -0.7139 -0.5198
vn 0.2116 0.5107 -0.8333
vn 0.0451 0.3117 -0.9491
vn 0.0523 0.1720 -0.9837
vn -0.1395 0.2001 -0.9698
vn -0.3097 -0.3124 -0.8981
vn -0.0993 0.0530 -0.9936
s 1
usemtl mtl1.1061
f 1//1 2//2 4//3
f 7//4 1//1 5//5
f 3//6 4//3 2//2
f 1//1 4//3 5//5
f 19//7 1//1 6//8
f 7//4 6//8 1//1
f 6//8 7//4 20//9
f 1//1 19//7 2//2
f 18//10 2//2 19//7
f 7//4 8//11 20//9
f 9//12 2//2 18//10
f 18//10 21//13 9//12
f 7//4 5//5 8//11
f 11//14 8//11 5//5
f 9//12 10//15 3//6
f 9//12 24//16 10//15
f 9//12 3//6 2//2
f 13//17 11//14 5//5
f 4//3 3//6 14//18
f 5//5 4//3 12//19
f 5//5 12//19 13//17
f 14//18 3//6 10//15
f 4//3 14//18 12//19
f 16//20 12//19 14//18
f 13//17 12//19 15//21
f 12//19 16//20 15//21
f 28//22 14//18 10//15
f 16//20 14//18 17//23
f 19//7 22//24 18//10
f 20//9 33//25 6//8
f 22//24 21//13 18//10
f 8//11 23//26 20//9
f 24//16 9//12 21//13
f 43//27 24//16 21//13
f 11//14 23//26 8//11
f 24//16 37//28 10//15
f 25//29 23//26 11//14
f 37//28 26//30 10//15
f 27//31 25//29 13//17
f 25//29 11//14 13//17
f 26//30 28//22 10//15
f 15//21 27//31 13//17
f 15//21 39//32 27//31
f 15//21 38//33 39//32
f 16//20 38//33 15//21
f 29//34 38//33 16//20
f 17//23 14//18 28//22
f 40//35 17//23 28//22
f 29//34 17//23 30//36
f 16//20 17//23 29//34
f 30//36 31//37 29//34
f 42//38 19//7 6//8
f 42//38 6//8 32//39
f 33//25 32//39 6//8
f 20//9 34//40 33//25
f 21//13 22//24 43//27
f 35//41 20//9 23//26
f 34//40 20//9 35//41
f 35//41 23//26 25//29
f 35//41 25//29 36//42
f 37//28 46//43 26//30
f 39//32 36//42 25//29
f 39//32 25//29 27//31
f 41//44 26//30 46//43
f 28//22 26//30 41//44
f 41//44 40//35 28//22
f 31//37 40//35 47//45
f 31//37 47//45 29//34
f 29//34 47//45 38//33
f 30//36 17//23 40//35
f 40//35 31//37 30//36
f 33//25 48//46 32//39
f 34//40 48//46 33//25
f 19//7 42//38 22//24
f 45//47 34//40 36//42
f 51//48 24//16 43//27
f 24//16 51//48 37//28
f 45//47 36//42 44//49
f 36//42 34//40 35//41
f 37//28 51//48 46//43
f 38//33 47//45 45//47
f 45//47 44//49 38//33
f 44//49 39//32 38//33
f 39//32 44//49 36//42
f 41//44 52//50 47//45
f 41//44 47//45 40//35
f 53//51 32//39 49//52
f 34//40 50//53 48//46
f 54//54 43//27 22//24
f 34//40 45//47 50//53
f 45//47 59//55 50//53
f 47//45 56//56 45//47
f 52//50 41//44 46//43
f 32//39 48//46 58//57
f 53//51 22//24 42//38
f 53//51 42//38 32//39
f 53//51 54//54 22//24
f 45//47 55//58 59//55
f 60//59 51//48 43//27
f 55//58 45//47 56//56
f 46//43 51//48 57//60
f 52//50 56//56 47//45
f 32//39 58//57 49//52
f 49//52 62//61 53//51
f 64//62 62//61 49//52
f 59//55 78//63 77//64
f 78//63 59//55 55//58
f 52//50 46//43 61//65
f 49//52 58//57 64//62
f 73//66 58//57 48//46
f 50//53 73//66 48//46
f 73//66 50//53 74//67
f 67//68 54//54 65//69
f 54//54 53//51 65//69
f 65//69 53//51 62//61
f 66//70 60//59 43//27
f 66//70 43//27 54//54
f 67//68 66//70 54//54
f 51//48 60//59 87//71
f 78//63 55//58 56//56
f 87//71 57//60 51//48
f 57//60 61//65 46//43
f 61//65 56//56 52//50
f 63//72 67//68 71//73
f 64//62 58//57 72//74
f 73//66 72//74 58//57
f 63//72 66//70 67//68
f 65//69 62//61 71//73
f 64//62 71//73 62//61
f 59//55 76//75 74//67
f 50//53 59//55 74//67
f 66//70 75//76 60//59
f 87//71 79//77 57//60
f 69//78 63//72 81//79
f 81//79 71//73 83//80
f 68//81 83//80 71//73
f 69//78 70//82 63//72
f 81//79 63//72 71//73
f 65//69 71//73 67//68
f 68//81 71//73 72//74
f 64//62 72//74 71//73
f 75//76 63//72 70//82
f 63//72 75//76 66//70
f 73//66 74//67 85//83
f 76//75 59//55 77//64
f 75//76 86//84 60//59
f 79//77 61//65 57//60
f 61//65 79//77 56//56
f 82//85 80//86 81//79
f 82//85 81//79 83//80
f 68//81 89//87 83//80
f 80//86 84//88 69//78
f 81//79 80//86 69//78
f 84//88 70//82 69//78
f 68//81 72//74 94//89
f 94//89 72//74 73//66
f 90//90 75//76 70//82
f 74//67 76//75 85//83
f 75//76 90//90 86//84
f 86//84 87//71 60//59
f 87//71 98//91 79//77
f 77//64 78//63 56//56
f 88//92 82//85 83//80
f 83//80 89//87 88//92
f 80//86 82//85 88//92
f 93//93 84//88 80//86
f 84//88 90//90 70//82
f 94//89 73//66 85//83
f 95//94 94//89 85//83
f 96//95 86//84 90//90
f 91//96 76//75 77//64
f 77//64 56//56 104//97
f 80//86 88//92 92//98
f 92//98 93//93 80//86
f 88//92 89//87 100//99
f 84//88 93//93 90//90
f 101//100 90//90 93//93
f 76//75 95//94 85//83
f 91//96 95//94 76//75
f 96//95 97//101 86//84
f 97//101 87//71 86//84
f 79//77 104//97 56//56
f 88//92 99//102 92//98
f 99//102 88//92 100//99
f 100//99 89//87 68//81
f 102//103 101//100 105//104
f 101//100 93//93 105//104
f 94//89 100//99 68//81
f 90//90 101//100 102//103
f 90//90 103//105 96//95
f 90//90 102//103 103//105
f 97//101 96//95 103//105
f 97//101 98//91 87//71
f 98//91 104//97 79//77
f 105//104 93//93 92//98
f 108//106 100//99 94//89
f 105//104 107//107 102//103
f 95//94 108//106 94//89
f 103//105 102//103 107//107
f 103//105 107//107 114//108
f 109//109 97//101 115//110
f 104//97 98//91 116//111
f 99//102 106//112 92//98
f 106//112 105//104 92//98
f 99//102 110//113 106//112
f 111//114 110//113 99//102
f 100//99 108//106 112//115
f 114//108 97//101 103//105
f 91//96 108//106 95//94
f 114//108 115//110 97//101
f 97//101 109//109 98//91
f 116//111 98//91 109//109
f 99//102 100//99 111//114
f 105//104 106//112 107//107
f 107//107 106//112 117//116
f 107//107 113//117 114//108
f 118//118 112//115 108//106
f 77//64 124//119 91//96
f 107//107 117//116 113//117
f 115//110 114//108 113//117
f 118//118 108//106 119//120
f 108//106 91//96 119//120
f 120//121 109//109 115//110
f 77//64 104//97 116//111
f 124//119 77//64 116//111
f 110//113 122//122 106//112
f 121//123 113//117 117//116
f 121//123 115//110 113//117
f 125//124 127//125 116//111
f 106//112 122//122 117//116
f 130//126 121//123 117//116
f 119//120 91//96 124//119
f 123//127 120//121 115//110
f 116//111 127//125 124//119
f 109//109 120//121 125//124
f 109//109 125//124 116//111
f 122//122 110//113 111//114
f 111//114 100//99 112//115
f 129//128 112//115 118//118
f 132//129 118//118 119//120
f 123//127 121//123 130//126
f 123//127 115//110 121//123
f 119//120 124//119 126//130
f 122//122 111//114 128//131
f 129//128 111//114 112//115
f 132//129 119//120 126//130
f 134//132 123//127 130//126
f 120//121 123//127 133//133
f 133//133 123//127 134//132
f 131//134 117//116 122//122
f 132//129 129//128 118//118
f 132//129 138//135 129//128
f 134//132 117//116 131//134
f 117//116 134//132 130//126
f 141//136 124//119 127//125
f 133//133 136//137 120//121
f 136//137 125//124 120//121
f 111//114 129//128 128//131
f 132//129 126//130 135//138
f 135//138 126//130 124//119
f 141//136 135//138 124//119
f 137//139 125//124 136//137
f 137//139 127//125 125//124
f 144//140 122//122 128//131
f 132//129 139//141 138//135
f 139//141 132//129 135//138
f 140//142 133//133 134//132
f 141//136 127//125 137//139
f 142//143 131//134 122//122
f 144//140 142//143 122//122
f 134//132 131//134 145//144
f 143//145 136//137 133//133
f 142//143 145//144 131//134
f 139//141 135//138 151//146
f 145//144 146//147 134//132
f 140//142 134//132 146//147
f 133//133 140//142 147//148
f 136//137 143//145 137//139
f 148//149 137//139 143//145
f 128//131 149//150 144//140
f 149//150 128//131 129//128
f 149//150 129//128 138//135
f 147//148 140//142 146//147
f 151//146 135//138 141//136
f 147//148 143//145 133//133
f 138//135 139//141 150//151
f 141//136 156//152 151//146
f 154//153 143//145 147//148
f 141//136 137//139 156//152
f 161//154 139//141 151//146
f 152//155 146//147 145//144
f 152//155 145//144 155//156
f 153//157 147//148 146//147
f 153//157 146//147 152//155
f 153//157 154//153 147//148
f 148//149 156//152 137//139
f 157//158 142//143 144//140
f 139//141 161//154 150//151
f 142//143 155//156 145//144
f 153//157 164//159 154//153
f 154//153 164//159 143//145
f 158//160 148//149 143//145
f 155//156 142//143 160//161
f 160//161 142//143 157//158
f 155//156 162//162 152//155
f 163//163 153//157 152//155
f 163//163 164//159 153//157
f 148//149 158//160 156//152
f 158//160 143//145 171//164
f 149//150 157//158 144//140
f 149//150 159//165 157//158
f 149//150 165//166 159//165
f 165//166 149//150 138//135
f 152//155 162//162 168//167
f 138//135 150//151 165//166
f 166//168 155//156 160//161
f 162//162 155//156 166//168
f 156//152 167//169 151//146
f 167//169 161//154 151//146
f 168//167 172//170 152//155
f 172//170 163//163 152//155
f 172//170 169//171 163//163
f 156//152 170//172 167//169
f 158//160 170//172 156//152
f 164//159 171//164 143//145
f 173//173 159//165 165//166
f 150//151 161//154 165//166
f 168//167 162//162 166//168
f 166//168 180//174 168//167
f 167//169 170//172 176//175
f 164//159 163//163 169//171
f 160//161 174//176 166//168
f 157//158 179//177 160//161
f 165//166 161//154 175//178
f 174//176 180//174 166//168
f 175//178 161//154 167//169
f 168//167 177//179 172//170
f 178//180 171//164 164//159
f 158//160 171//164 186//181
f 179//177 157//158 173//173
f 157//158 159//165 173//173
f 174//176 160//161 179//177
f 177//179 168//167 180//174
f 175//178 167//169 176//175
f 176//175 170//172 181//182
f 172//170 177//179 184//183
f 177//179 185//184 184//183
f 184//183 169//171 172//170
f 184//183 164//159 169//171
f 186//181 181//182 158//160
f 158//160 181//182 170//172
f 178//180 164//159 187//185
f 179//177 173//173 182//186
f 183//187 174//176 179//177
f 183//187 180//174 174//176
f 189//188 165//166 175//178
f 180//174 183//187 195//189
f 180//174 185//184 177//179
f 191//190 185//184 180//174
f 187//185 164//159 184//183
f 178//180 186//181 171//164
f 193//191 182//186 173//173
f 179//177 188//192 183//187
f 173//173 165//166 189//188
f 189//188 175//178 194//193
f 175//178 176//175 190//194
f 194//193 175//178 190//194
f 180//174 195//189 191//190
f 197//195 176//175 181//182
f 184//183 196//196 192//197
f 184//183 185//184 196//196
f 187//185 184//183 192//197
f 187//185 199//198 178//180
f 199//198 200//199 178//180
f 188//192 179//177 182//186
f 183//187 188//192 195//189
f 193//191 173//173 189//188
f 190//194 176//175 197//195
f 197//195 181//182 186//181
f 192//197 198//200 187//185
f 198//200 199//198 187//185
f 178//180 200//199 186//181
f 201//201 203//202 202//203
f 202//203 205//204 206//205
f 222//206 204//207 201//201
f 204//207 221//208 205//204
f 193//191 188//192 182//186
f 195//189 188//192 236//209
f 195//189 226//210 191//190
f 227//211 196//196 185//184
f 191//190 227//211 185//184
f 196//196 207//212 192//197
f 198//200 192//197 207//212
f 186//181 200//199 229//213
f 209//214 210//215 208//216
f 211//217 424//218 210//215
f 210//215 209//214 211//217
f 213//219 425//220 209//214
f 424//218 211//217 212//221
f 212//221 211//217 214//222
f 425//220 215//223 426//224
f 232//225 215//223 425//220
f 427//226 428//227 217//228
f 217//228 428//227 218//229
f 201//201 202//203 208//216
f 209//214 208//216 220//230
f 208//216 202//203 220//230
f 209//214 220//230 213//219
f 425//220 213//219 232//225
f 232//225 219//231 215//223
f 221//208 204//207 222//206
f 205//204 221//208 223//232
f 206//205 205//204 223//232
f 225//233 224//234 223//232
f 221//208 225//233 223//232
f 224//234 234//235 206//205
f 202//203 206//205 220//230
f 224//234 225//233 234//235
f 188//192 193//191 252//236
f 190//194 197//195 253//237
f 228//238 196//196 227//211
f 196//196 228//238 207//212
f 186//181 229//213 197//195
f 199//198 198//200 238//239
f 238//239 198//200 207//212
f 240//240 201//201 208//216
f 210//215 212//221 214//222
f 239//241 214//222 216//242
f 216//242 217//228 241//243
f 241//243 239//241 216//242
f 201//201 240//240 230//244
f 231//245 218//229 232//225
f 217//228 218//229 231//245
f 222//206 201//201 230//244
f 243//246 221//208 222//206
f 232//225 213//219 233//247
f 232//225 218//229 219//231
f 225//233 221//208 243//246
f 213//219 220//230 233//247
f 220//230 245//248 233//247
f 220//230 206//205 235//249
f 206//205 234//235 235//249
f 189//188 252//236 193//191
f 189//188 194//193 252//236
f 195//189 236//209 226//210
f 194//193 190//194 253//237
f 237//250 191//190 226//210
f 237//250 227//211 191//190
f 253//237 197//195 229//213
f 227//211 263//251 228//238
f 199//198 238//239 254//252
f 255//253 200//199 199//198
f 239//241 267//254 214//222
f 267//254 240//240 210//215
f 208//216 210//215 240//240
f 267//254 210//215 214//222
f 217//228 231//245 241//243
f 242//255 232//225 233//247
f 242//255 231//245 232//225
f 271//256 234//235 225//233
f 244//257 220//230 251//258
f 245//248 220//230 244//257
f 246//259 233//247 245//248
f 271//256 247//260 234//235
f 234//235 248//261 235//249
f 249//262 235//249 250//263
f 249//262 251//258 235//249
f 235//249 251//258 220//230
f 252//236 236//209 188//192
f 237//250 263//251 227//211
f 263//251 238//239 207//212
f 229//213 200//199 264//264
f 200//199 255//253 265//265
f 238//239 266//266 254//252
f 255//253 199//198 254//252
f 269//267 267//254 239//241
f 241//243 269//267 239//241
f 267//254 273//268 240//240
f 230//244 256//269 222//206
f 241//243 231//245 257//270
f 256//269 243//246 222//206
f 257//270 231//245 242//255
f 225//233 243//246 270//271
f 233//247 246//259 242//255
f 258//272 242//255 246//259
f 247//260 271//256 260//273
f 259//274 261//275 260//273
f 261//275 259//274 251//258
f 251//258 258//272 244//257
f 246//259 244//257 258//272
f 235//249 247//260 260//273
f 250//263 235//249 260//273
f 250//263 261//275 251//258
f 250//263 260//273 261//275
f 252//236 272//276 236//209
f 226//210 236//209 272//276
f 194//193 262//277 252//236
f 226//210 279//278 237//250
f 263//251 207//212 228//238
f 264//264 200//199 265//265
f 263//251 266//266 238//239
f 273//268 268//279 240//240
f 268//279 256//269 230//244
f 268//279 230//244 240//240
f 241//243 257//270 275//280
f 256//269 270//271 243//246
f 276//281 257//270 242//255
f 271//256 225//233 270//271
f 276//281 242//255 258//272
f 277//282 276//281 258//272
f 271//256 293//283 260//273
f 259//274 278//284 251//258
f 258//272 251//258 278//284
f 262//277 272//276 252//236
f 253//237 262//277 194//193
f 288//285 262//277 253//237
f 280//286 237//250 279//278
f 253//237 229//213 264//264
f 237//250 281//287 263//251
f 280//286 281//287 237//250
f 266//266 283//288 254//252
f 255//253 254//252 283//288
f 274//289 273//268 267//254
f 274//289 267//254 269//267
f 269//267 241//243 274//289
f 292//290 257//270 276//281
f 270//271 286//291 271//256
f 278//284 277//282 258//272
f 293//283 278//284 260//273
f 278//284 259//274 260//273
f 226//210 272//276 287//292
f 287//292 279//278 226//210
f 255//253 283//288 290//293
f 274//289 284//294 273//268
f 275//280 274//289 241//243
f 285//295 256//269 268//279
f 292//290 275//280 257//270
f 285//295 270//271 256//269
f 286//291 293//283 271//256
f 262//277 294//296 272//276
f 311//297 262//277 288//285
f 295//298 280//286 279//278
f 253//237 264//264 288//285
f 280//286 289//299 281//287
f 264//264 265//265 282//300
f 296//301 263//251 281//287
f 296//301 297//302 263//251
f 266//266 263//251 297//302
f 283//288 266//266 297//302
f 265//265 255//253 298//303
f 282//300 265//265 298//303
f 283//288 297//302 290//293
f 255//253 290//293 298//303
f 299//304 273//268 284//294
f 284//294 274//289 300//305
f 274//289 275//280 291//306
f 310//307 285//295 268//279
f 285//295 286//291 270//271
f 301//308 292//290 277//282
f 292//290 276//281 277//282
f 287//292 295//298 279//278
f 295//298 303//309 280//286
f 288//285 264//264 282//300
f 289//299 296//301 281//287
f 304//310 296//301 289//299
f 298//303 290//293 305//311
f 290//293 306//312 305//311
f 307//313 290//293 297//302
f 306//312 290//293 307//313
f 268//279 273//268 299//304
f 300//305 274//289 291//306
f 292//290 291//306 275//280
f 293//283 286//291 321//314
f 321//314 278//284 293//283
f 277//282 278//284 322//315
f 294//296 287//292 272//276
f 294//296 323//316 287//292
f 302//317 294//296 262//277
f 302//317 262//277 311//297
f 280//286 303//309 289//299
f 282//300 312//318 288//285
f 313//319 312//318 282//300
f 313//319 282//300 298//303
f 296//301 307//313 297//302
f 298//303 305//311 313//319
f 306//312 307//313 308//320
f 309//321 299//304 333//322
f 299//304 284//294 316//323
f 309//321 268//279 299//304
f 284//294 300//305 316//323
f 318//324 291//306 319//325
f 319//325 291//306 292//290
f 310//307 268//279 309//321
f 310//307 335//326 285//295
f 285//295 335//326 286//291
f 321//314 322//315 278//284
f 322//315 301//308 277//282
f 323//316 294//296 302//317
f 287//292 323//316 295//298
f 311//297 288//285 312//318
f 311//297 312//318 326//327
f 303//309 295//298 323//316
f 289//299 303//309 325//328
f 314//329 296//301 304//310
f 328//330 313//319 305//311
f 313//319 328//330 327//331
f 307//313 296//301 314//329
f 306//312 330//332 305//311
f 314//329 308//320 307//313
f 306//312 308//320 330//332
f 316//323 333//322 299//304
f 316//323 300//305 317//333
f 317//333 300//305 318//324
f 300//305 291//306 318//324
f 336//334 319//325 292//290
f 286//291 335//326 320//335
f 286//291 320//335 321//314
f 320//335 347//336 321//314
f 311//297 324//337 302//317
f 324//337 311//297 326//327
f 348//338 303//309 323//316
f 289//299 325//328 304//310
f 326//327 312//318 313//319
f 327//331 326//327 313//319
f 314//329 304//310 338//339
f 329//340 308//320 314//329
f 308//320 329//340 315//341
f 305//311 330//332 340//342
f 308//320 315//341 330//332
f 315//341 331//343 342//344
f 317//333 332//345 316//323
f 334//346 317//333 318//324
f 333//322 316//323 332//345
f 344//347 318//324 319//325
f 336//334 344//347 319//325
f 309//321 335//326 310//307
f 345//348 336//334 301//308
f 301//308 322//315 347//336
f 292//290 301//308 336//334
f 347//336 322//315 321//314
f 324//337 326//327 337//349
f 348//338 325//328 303//309
f 325//328 338//339 304//310
f 327//331 328//330 339//350
f 338//339 329//340 314//329
f 339//350 328//330 340//342
f 338//339 351//351 329//340
f 305//311 340//342 328//330
f 353//352 341//353 329//340
f 331//343 315//341 329//340
f 329//340 341//353 331//343
f 342//344 330//332 315//341
f 331//343 341//353 354//354
f 330//332 342//344 357//355
f 342//344 331//343 356//356
f 333//322 343//357 359//358
f 309//321 333//322 359//358
f 332//345 343//357 333//322
f 332//345 317//333 358//359
f 358//359 317//333 360//360
f 360//360 317//333 334//346
f 361//361 335//326 309//321
f 344//347 334//346 318//324
f 344//347 336//334 345//348
f 347//336 362//362 345//348
f 320//335 346//363 347//336
f 347//336 345//348 301//308
f 302//317 348//338 323//316
f 349//364 302//317 324//337
f 302//317 349//364 348//338
f 324//337 337//349 349//364
f 326//327 327//331 337//349
f 365//365 325//328 348//338
f 327//331 339//350 350//366
f 350//366 337//349 327//331
f 338//339 325//328 365//365
f 350//366 339//350 364//367
f 364//367 339//350 340//342
f 365//365 351//351 338//339
f 364//367 340//342 352//368
f 351//351 353//352 329//340
f 351//351 365//365 353//352
f 354//354 341//353 353//352
f 352//368 340//342 330//332
f 368//369 354//354 353//352
f 352//368 357//355 367//370
f 330//332 357//355 352//368
f 354//354 355//371 331//343
f 368//369 355//371 354//354
f 356//356 331//343 355//371
f 342//344 356//356 357//355
f 358//359 374//372 332//345
f 374//372 343//357 332//345
f 377//373 378//374 343//357
f 359//358 361//361 309//321
f 381//375 360//360 334//346
f 381//375 334//346 344//347
f 395//376 381//375 345//348
f 345//348 381//375 344//347
f 395//376 345//348 362//362
f 347//336 346//363 362//362
f 363//377 349//364 337//349
f 363//377 337//349 350//366
f 383//378 364//367 352//368
f 365//365 366//379 353//352
f 368//369 369//380 355//371
f 370//381 367//370 357//355
f 355//371 369//380 371//382
f 355//371 371//382 356//356
f 371//382 385//383 356//356
f 357//355 356//356 372//384
f 370//381 357//355 389//385
f 389//385 357//355 373//386
f 357//355 372//384 373//386
f 373//386 375//387 389//385
f 390//388 372//384 356//356
f 375//387 373//386 374//372
f 373//386 372//384 374//372
f 374//372 372//384 377//373
f 377//373 343//357 374//372
f 374//372 358//359 375//387
f 376//389 375//387 358//359
f 378//374 392//390 359//358
f 379//391 376//389 358//359
f 378//374 359//358 343//357
f 359//358 392//390 361//361
f 358//359 360//360 379//391
f 380//392 379//391 360//360
f 380//392 360//360 381//375
f 394//393 382//394 361//361
f 335//326 361//361 382//394
f 335//326 382//394 320//335
f 396//395 362//362 346//363
f 349//364 399//396 348//338
f 349//364 363//377 397//397
f 365//365 348//338 399//396
f 399//396 349//364 397//397
f 363//377 350//366 383//378
f 350//366 364//367 383//378
f 383//378 352//368 367//370
f 366//379 365//365 399//396
f 368//369 353//352 366//379
f 384//398 368//369 366//379
f 384//398 369//380 368//369
f 369//380 385//383 371//382
f 367//370 370//381 386//399
f 386//399 370//381 387//400
f 385//383 401//401 388//402
f 387//400 370//381 389//385
f 385//383 390//388 356//356
f 385//383 388//402 390//388
f 389//385 375//387 391//403
f 387//400 389//385 391//403
f 372//384 390//388 377//373
f 377//373 390//388 406//404
f 375//387 376//389 391//403
f 378//374 377//373 406//404
f 392//390 378//374 406//404
f 391//403 376//389 379//391
f 379//391 407//405 391//403
f 407//405 379//391 380//392
f 395//376 393//406 381//375
f 380//392 381//375 393//406
f 382//394 394//393 416//407
f 362//362 396//395 395//376
f 382//394 346//363 320//335
f 396//395 346//363 382//394
f 363//377 383//378 397//397
f 397//397 383//378 398//408
f 366//379 399//396 409//409
f 400//410 383//378 367//370
f 383//378 400//410 398//408
f 366//379 409//409 384//398
f 400//410 367//370 386//399
f 385//383 369//380 401//401
f 384//398 402//411 369//380
f 369//380 402//411 401//401
f 403//412 386//399 387//400
f 401//401 404//413 388//402
f 404//413 390//388 388//402
f 403//412 387//400 391//403
f 390//388 404//413 406//404
f 415//414 406//404 404//413
f 403//412 391//403 405//415
f 405//415 391//403 407//405
f 415//414 394//393 406//404
f 394//393 392//390 406//404
f 394//393 361//361 392//390
f 407//405 380//392 393//406
f 408//416 396//395 382//394
f 396//395 393//406 395//376
f 416//407 408//416 382//394
f 398//408 399//396 397//397
f 399//396 410//417 409//409
f 398//408 410//417 399//396
f 409//409 410//417 412//418
f 398//408 411//419 410//417
f 400//410 411//419 398//408
f 409//409 412//418 384//398
f 400//410 386//399 403//412
f 403//412 411//419 400//410
f 384//398 412//418 402//411
f 417//420 411//419 403//412
f 418//421 402//411 412//418
f 417//420 403//412 405//415
f 401//401 413//422 404//413
f 413//422 401//401 402//411
f 413//422 415//414 404//413
f 407//405 414//423 405//415
f 415//414 416//407 394//393
f 421//424 393//406 423//425
f 414//423 393//406 421//424
f 393//406 414//423 407//405
f 423//425 393//406 396//395
f 408//416 423//425 396//395
f 410//417 411//419 417//420
f 410//417 417//420 412//418
f 412//418 417//420 419//426
f 418//421 412//418 419//426
f 418//421 422//427 402//411
f 419//426 417//420 421//424
f 418//421 419//426 420//428
f 402//411 422//427 413//422
f 421//424 417//420 405//415
f 419//426 421//424 420//428
f 413//422 422//427 415//414
f 421//424 405//415 414//423
f 416//407 415//414 422//427
f 422//427 418//421 420//428
f 421//424 423//425 420//428
f 420//428 416//407 422//427
f 420//428 408//416 416//407
f 420//428 423//425 408//416
