# Blender 4.0.2
# www.blender.org
mtllib thumb_prox_l.mtl
o thumb_prox_l.002
v 0.013917 -0.031073 0.007460
v 0.014541 -0.030916 0.007718
v 0.014252 -0.030518 0.008558
v 0.014280 -0.029336 0.009731
v 0.013311 -0.028920 0.009717
v 0.013229 -0.030564 0.008169
v 0.015449 -0.030684 0.007523
v 0.012727 -0.030679 0.006979
v 0.015565 -0.030496 0.008177
v 0.015454 -0.028576 0.010293
v 0.012826 -0.028122 0.010120
v 0.014627 -0.030421 0.006822
v 0.013549 -0.030850 0.006808
v 0.011897 -0.029871 0.007368
v 0.014142 -0.028427 0.011330
v 0.012218 -0.028454 0.008828
v 0.011995 -0.026699 0.010424
v 0.011955 -0.027219 0.009264
v 0.016370 -0.030079 0.007666
v 0.016748 -0.029305 0.008245
v 0.016370 -0.027989 0.009820
v 0.015660 -0.027973 0.011876
v 0.013653 -0.028070 0.012419
v 0.012402 -0.027257 0.011597
v 0.011765 -0.026018 0.010065
v 0.013311 -0.029968 0.006027
v 0.016513 -0.028703 0.006551
v 0.016130 -0.030171 0.007282
v 0.011230 -0.029005 0.006304
v 0.012170 -0.029825 0.006055
v 0.016787 -0.026885 0.010563
v 0.014655 -0.028054 0.014549
v 0.010931 -0.027899 0.007005
v 0.012410 -0.027528 0.014044
v 0.011358 -0.026357 0.013065
v 0.011815 -0.025299 0.008523
v 0.011497 -0.025900 0.007832
v 0.014619 -0.028137 0.005933
v 0.016750 -0.029231 0.007137
v 0.017246 -0.028678 0.007424
v 0.017433 -0.027915 0.007523
v 0.016917 -0.026964 0.009425
v 0.015845 -0.027792 0.013655
v 0.017195 -0.026340 0.013044
v 0.016590 -0.027141 0.013831
v 0.017098 -0.025950 0.010323
v 0.010462 -0.027039 0.006338
v 0.013142 -0.027864 0.014803
v 0.011149 -0.025777 0.012104
v 0.011809 -0.024720 0.009851
v 0.016210 -0.026296 0.005686
v 0.013047 -0.028377 0.005416
v 0.011938 -0.027339 0.004762
v 0.017456 -0.025594 0.012011
v 0.015453 -0.027427 0.014966
v 0.013396 -0.027529 0.015618
v 0.010824 -0.027515 0.005334
v 0.012193 -0.027061 0.015094
v 0.010905 -0.024944 0.013321
v 0.010925 -0.024544 0.012215
v 0.011436 -0.024130 0.010798
v 0.010673 -0.024360 0.006605
v 0.017272 -0.027334 0.006904
v 0.014468 -0.026246 0.004935
v 0.017335 -0.026179 0.007360
v 0.017518 -0.024775 0.011600
v 0.016451 -0.026344 0.014297
v 0.017356 -0.023623 0.010679
v 0.017063 -0.024767 0.008218
v 0.014275 -0.027344 0.015652
v 0.010427 -0.026200 0.005324
v 0.010567 -0.024990 0.005996
v 0.011347 -0.026002 0.014329
v 0.010601 -0.022485 0.008088
v 0.010153 -0.022606 0.006583
v 0.016110 -0.025231 0.005421
v 0.012838 -0.026101 0.004428
v 0.010969 -0.025568 0.004598
v 0.016967 -0.025206 0.006395
v 0.017275 -0.024229 0.012096
v 0.017307 -0.025151 0.012801
v 0.014866 -0.027020 0.015433
v 0.011503 -0.025398 0.014903
v 0.012740 -0.026402 0.015862
v 0.010935 -0.021706 0.012152
v 0.010973 -0.023054 0.011938
v 0.010188 -0.022533 0.005130
v 0.016109 -0.024057 0.005577
v 0.014928 -0.023685 0.004815
v 0.016748 -0.022379 0.009083
v 0.016292 -0.025765 0.014262
v 0.013423 -0.026765 0.015920
v 0.010594 -0.024260 0.005124
v 0.011007 -0.023755 0.013695
v 0.010293 -0.020458 0.010375
v 0.008950 -0.019780 0.004051
v 0.012379 -0.023599 0.004347
v 0.011463 -0.022500 0.004186
v 0.016311 -0.022902 0.012036
v 0.014959 -0.024704 0.014294
v 0.013855 -0.026396 0.015805
v 0.011949 -0.023934 0.014785
v 0.011285 -0.022041 0.013208
v 0.010627 -0.020228 0.011232
v 0.011164 -0.021202 0.012377
v 0.008559 -0.018714 0.007857
v 0.009468 -0.021035 0.006260
v 0.007414 -0.018032 0.003799
v 0.008065 -0.019044 0.005409
v 0.010970 -0.023440 0.004527
v 0.014919 -0.022517 0.005285
v 0.013754 -0.022591 0.004676
v 0.015711 -0.021345 0.007051
v 0.015848 -0.021042 0.010710
v 0.014110 -0.018212 0.006667
v 0.012590 -0.024431 0.015158
v 0.011963 -0.022517 0.014001
v 0.009147 -0.018805 0.008953
v 0.007653 -0.017860 0.003184
v 0.007640 -0.017936 0.006784
v 0.010552 -0.021582 0.004147
v 0.009654 -0.019953 0.003717
v 0.013167 -0.019421 0.004354
v 0.013762 -0.018944 0.005265
v 0.014836 -0.021303 0.012128
v 0.015471 -0.020390 0.009960
v 0.014164 -0.018085 0.008476
v 0.011313 -0.020008 0.011888
v 0.010043 -0.017508 0.010419
v 0.006884 -0.016006 0.001854
v 0.006137 -0.016843 0.004671
v 0.011023 -0.019958 0.003530
v 0.008321 -0.016867 0.002219
v 0.012444 -0.020442 0.003927
v 0.011702 -0.019282 0.011737
v 0.012502 -0.020612 0.012490
v 0.012779 -0.022280 0.013820
v 0.008810 -0.016770 0.009354
v 0.007053 -0.015153 0.008189
v 0.005271 -0.015627 0.002010
v 0.004686 -0.015878 0.003034
v 0.005694 -0.015208 0.006375
v 0.005667 -0.015909 0.005430
v 0.010175 -0.016549 0.002315
v 0.011263 -0.016607 0.002805
v 0.013940 -0.019000 0.010494
v 0.010691 -0.017534 0.010749
v 0.008062 -0.014552 0.001005
v 0.003311 -0.013801 0.000632
v 0.004075 -0.012687 -0.000861
v 0.003343 -0.014055 0.004124
v 0.005947 -0.013607 0.007927
v 0.004923 -0.013413 0.006987
v 0.012285 -0.016940 0.003656
v 0.012691 -0.015842 0.004723
v 0.012953 -0.015498 0.006741
v 0.009780 -0.015479 0.009987
v 0.006060 -0.013805 0.000152
v 0.002366 -0.013802 0.001462
v 0.002349 -0.013398 0.003270
v 0.002858 -0.014242 0.002334
v 0.006567 -0.012006 0.008580
v 0.002696 -0.011023 0.006600
v 0.003045 -0.013042 0.004293
v 0.011786 -0.013241 0.004332
v 0.011958 -0.014683 0.008412
v 0.012049 -0.013624 0.006870
v 0.011507 -0.016475 0.010112
v 0.007698 -0.011765 0.008805
v 0.006551 -0.011984 -0.000788
v 0.008890 -0.013383 0.000972
v 0.004282 -0.012003 0.007775
v 0.010445 -0.013604 0.002033
v 0.010534 -0.012328 0.002240
v 0.008571 -0.011161 0.000327
v 0.005811 -0.009654 -0.002128
v 0.000833 -0.012736 0.001231
v 0.003277 -0.010994 -0.002397
v 0.002437 -0.012064 -0.001708
v 0.000675 -0.011580 0.002081
v 0.001342 -0.011443 0.002828
v 0.006355 -0.009979 0.008705
v 0.003321 -0.011233 0.007595
v 0.003087 -0.009641 0.008233
v 0.002308 -0.011016 0.005774
v 0.010857 -0.011770 0.002894
v 0.009622 -0.009953 0.006703
v 0.008695 -0.011242 0.008390
v 0.009813 -0.010378 0.001468
v 0.001586 -0.012846 -0.000006
v 0.000461 -0.012221 0.001236
v 0.007139 -0.009504 0.008436
v 0.004357 -0.007234 0.009085
v 0.004093 -0.008088 0.008948
v 0.002006 -0.010254 0.005965
v 0.001067 -0.009804 0.005152
v 0.002187 -0.010390 0.007141
v 0.010198 -0.009837 0.002417
v 0.010255 -0.009477 0.004788
v 0.009820 -0.008463 0.002757
v 0.007923 -0.007937 -0.000604
v 0.007021 -0.007078 -0.001741
v 0.005335 -0.008121 -0.002728
v 0.006242 -0.007618 -0.002380
v 0.002992 -0.010108 -0.002731
v 0.001988 -0.011008 -0.002167
v 0.001272 -0.011666 -0.001325
v 0.008100 -0.008904 0.007645
v 0.005621 -0.006667 0.008797
v 0.001218 -0.009473 0.006657
v -0.000014 -0.009082 0.003228
v 0.001634 -0.007507 0.008414
v 0.009364 -0.006566 0.004030
v 0.009508 -0.009143 0.001176
v 0.003045 -0.006822 -0.003293
v 0.002118 -0.008311 -0.003001
v 0.000409 -0.011537 -0.000470
v 0.007135 -0.007039 0.007878
v 0.000067 -0.008621 0.004375
v -0.000277 -0.010223 0.001628
v 0.000309 -0.007409 0.007259
v 0.008932 -0.007742 0.000980
v 0.009490 -0.008427 0.005463
v 0.003635 -0.006304 -0.003181
v -0.000278 -0.010571 -0.000149
v -0.000361 -0.010070 -0.000609
v 0.000223 -0.010499 -0.001145
v 0.005782 -0.005556 0.008324
v 0.003991 -0.005820 0.008900
v -0.000528 -0.008020 0.002637
v -0.000437 -0.009436 0.001110
v 0.001150 -0.006638 0.008286
v 0.008178 -0.004113 0.003727
v 0.007683 -0.004402 0.000097
v 0.007808 -0.003687 0.001625
v 0.002284 -0.006517 -0.003052
v 0.003750 -0.005826 -0.002843
v 0.005008 -0.005630 -0.002545
v 0.001356 -0.008013 -0.002612
v 0.007246 -0.005101 0.007000
v 0.004736 -0.004375 0.008127
v 0.006577 -0.004094 0.006975
v 0.001759 -0.005961 0.008309
v 0.003697 -0.005105 0.008556
v -0.000051 -0.007345 0.004931
v -0.000096 -0.006821 0.003876
v -0.000413 -0.007420 0.000180
v 0.000044 -0.006418 0.006799
v 0.000602 -0.005795 0.007479
v 0.007939 -0.004881 0.005623
v 0.007472 -0.002946 0.002021
v 0.005357 -0.004878 -0.001632
v 0.001564 -0.006431 -0.002163
v 0.002140 -0.006232 -0.002669
v -0.000040 -0.008049 -0.001051
v 0.000518 -0.007692 -0.001874
v 0.000061 -0.006261 0.004697
v -0.000485 -0.007234 0.002159
v -0.000264 -0.006815 0.002314
v 0.007837 -0.003844 0.004572
v 0.006952 -0.003710 -0.000002
v 0.006123 -0.004882 -0.001581
v 0.001241 -0.004369 0.006794
v 0.002434 -0.002880 0.006632
v -0.000176 -0.006924 0.000929
v 0.006892 -0.002555 0.002005
v 0.006897 -0.002306 0.003423
v 0.005945 -0.003075 0.006060
v 0.004062 -0.005523 -0.001808
v 0.001181 -0.006727 -0.001471
v 0.000390 -0.007469 -0.001372
v 0.004169 -0.002043 0.005985
v 0.003073 -0.002651 0.006771
v 0.000279 -0.005472 0.005175
v 0.000403 -0.006021 0.004250
v 0.000378 -0.006398 0.002980
v -0.000186 -0.007093 -0.000204
v 0.000576 -0.004873 0.006026
v 0.006285 -0.003586 0.000244
v 0.002190 -0.006471 -0.000312
v 0.001367 -0.006591 0.000158
v 0.000421 -0.006899 -0.000518
v 0.005596 -0.002009 0.005219
v 0.003011 -0.002144 0.006009
v 0.006265 -0.002540 0.002277
v 0.006477 -0.002110 0.003269
v 0.005901 -0.001971 0.004152
v 0.002942 -0.006014 0.000758
v 0.003590 -0.001939 0.005456
v 0.004701 -0.001767 0.005120
v 0.001254 -0.004031 0.006085
v 0.001803 -0.005226 0.004202
v 0.001362 -0.006384 0.001670
v 0.005400 -0.001946 0.004104
v 0.005977 -0.002034 0.003413
v 0.002976 -0.002207 0.005643
v 0.004045 -0.001947 0.005121
v 0.001987 -0.003775 0.005327
v 0.003563 -0.004538 0.002947
v 0.004991 -0.001931 0.004309
v 0.004922 -0.003113 0.003400
vn -0.0032 -1.0000 -0.0058
vn 0.1786 -0.9522 0.2478
vn -0.0199 -0.7883 0.6150
vn -0.4151 -0.7512 0.5132
vn -0.0813 -0.7795 0.6211
vn -0.5156 -0.6556 0.5516
vn 0.3811 -0.9003 -0.2101
vn -0.4857 -0.8650 -0.1259
vn 0.4058 -0.8025 0.4374
vn 0.4962 -0.7665 0.4077
vn 0.2961 -0.6100 -0.7350
vn 0.0085 -0.8496 -0.5274
vn -0.7626 -0.5856 0.2750
vn -0.1536 -0.9369 0.3141
vn -0.7058 -0.6130 0.3551
vn -0.7587 -0.4040 0.5110
vn -0.9175 -0.2463 0.3123
vn -0.8846 -0.4659 0.0208
vn 0.7394 -0.6716 0.0479
vn 0.7937 -0.4982 0.3490
vn 0.7825 -0.4870 0.3880
vn 0.5067 -0.8504 0.1416
vn -0.3971 -0.9131 0.0929
vn -0.7000 -0.7138 0.0213
vn 0.1395 -0.5055 -0.8515
vn 0.5353 -0.6702 -0.5141
vn 0.4965 -0.3445 -0.7968
vn -0.8302 -0.5284 -0.1776
vn 0.8876 -0.4533 0.0819
vn 0.1627 -0.9349 0.3154
vn -0.8986 -0.2303 0.3735
vn -0.6169 -0.7855 0.0490
vn -0.8536 -0.5208 0.0044
vn -0.9780 -0.1646 -0.1282
vn -0.9574 -0.1395 0.2530
vn -0.8968 -0.0013 0.4423
vn 0.2966 -0.3586 -0.8851
vn -0.4153 -0.6566 -0.6296
vn 0.7526 -0.5031 -0.4248
vn 0.9115 -0.3809 -0.1554
vn 0.9908 -0.1356 0.0026
vn 0.9434 -0.2596 0.2065
vn 0.7799 -0.5214 0.3463
vn 0.9262 -0.2904 0.2406
vn -0.9709 -0.1333 0.1991
vn -0.3255 -0.9100 0.2567
vn -0.9350 -0.3237 -0.1451
vn -0.9717 -0.2170 -0.0930
vn 0.5207 -0.2157 -0.8260
vn 0.2777 -0.3358 -0.9001
vn -0.1271 -0.3541 -0.9265
vn -0.7144 -0.3893 -0.5814
vn 0.9806 -0.1894 -0.0495
vn 0.4919 -0.8551 0.1637
vn 0.9828 -0.1838 0.0181
vn 0.5510 -0.5044 0.6648
vn -0.1835 -0.6748 0.7148
vn -0.6989 -0.5383 0.4709
vn -0.9849 -0.1198 0.1250
vn -0.9004 -0.3258 0.2884
vn -0.9841 -0.0574 -0.1680
vn -0.9603 -0.2012 -0.1932
vn 0.8617 -0.0865 -0.5001
vn 0.3165 -0.2306 -0.9201
vn 0.9924 0.0958 -0.0774
vn 0.9987 0.0508 0.0004
vn 0.8590 0.2362 0.4542
vn 0.7203 0.0166 0.6935
vn 0.9882 0.1379 -0.0663
vn 0.9590 0.2802 0.0427
vn 0.2680 -0.4520 0.8508
vn -0.9371 -0.0929 -0.3364
vn -0.9792 -0.0178 0.2020
vn -0.9445 -0.2025 0.2585
vn -0.9054 -0.3656 0.2158
vn -0.9306 -0.3337 0.1503
vn 0.5697 -0.0426 -0.8208
vn 0.1089 -0.1876 -0.9762
vn -0.4967 -0.1209 -0.8595
vn 0.8892 0.1552 -0.4304
vn 0.8060 0.4214 0.4157
vn 0.4829 0.0249 0.8753
vn -0.9219 -0.0833 -0.3784
vn -0.7632 0.0181 0.6459
vn -0.3470 -0.0278 0.9375
vn -0.9498 0.0825 0.3018
vn -0.9912 -0.1051 -0.0808
vn -0.8789 -0.3480 -0.3262
vn 0.7377 0.2621 -0.6222
vn 0.4052 0.1269 -0.9054
vn 0.9124 0.3916 -0.1190
vn 0.5556 0.3796 0.7397
vn -0.0042 -0.1045 0.9945
vn 0.2945 0.2559 0.9208
vn -0.8960 0.1591 0.4146
vn -0.9218 -0.2608 0.2868
vn -0.8822 -0.4618 0.0918
vn -0.6344 -0.6002 -0.4871
vn 0.1810 -0.0277 -0.9831
vn -0.0906 -0.1802 -0.9794
vn -0.6240 -0.1194 -0.7722
vn -0.4402 0.3728 0.8169
vn -0.6692 0.4491 0.5920
vn -0.8421 0.0354 0.5382
vn -0.7771 0.2891 0.5591
vn -0.8231 -0.4143 0.3884
vn -0.6619 -0.7044 -0.2564
vn -0.8091 -0.5844 0.0616
vn 0.6245 0.2888 -0.7257
vn 0.3522 0.0333 -0.9353
vn 0.8566 0.3578 -0.3717
vn 0.4284 0.4802 0.7654
vn 0.6722 0.4968 0.5489
vn 0.7573 0.5759 0.3080
vn 0.0228 0.4237 0.9055
vn -0.2705 0.5233 0.8081
vn -0.8460 -0.2729 0.4580
vn -0.4197 -0.6615 -0.6215
vn -0.7990 -0.4961 0.3399
vn -0.4925 -0.4260 -0.7589
vn -0.3238 -0.4730 -0.8194
vn 0.6719 0.0708 -0.7372
vn 0.8302 0.2493 -0.4987
vn 0.8996 0.3815 -0.2126
vn 0.4773 0.5740 0.6654
vn 0.7911 0.5974 0.1315
vn 0.8545 0.5013 0.1363
vn -0.4891 0.3405 0.8030
vn -0.6302 0.0489 0.7749
vn -0.7177 -0.6738 0.1758
vn -0.0629 -0.5013 -0.8630
vn -0.1157 -0.6019 -0.7902
vn 0.3606 -0.1202 -0.9249
vn 0.1287 0.6180 0.7756
vn 0.1942 0.5674 0.8002
vn -0.6870 -0.1487 0.7113
vn -0.6617 -0.3002 0.6871
vn -0.3472 -0.7517 -0.5608
vn -0.6193 -0.7786 -0.1013
vn -0.7571 -0.4646 0.4592
vn -0.7412 -0.5602 0.3700
vn 0.0422 -0.3073 -0.9507
vn 0.2653 -0.2772 -0.9235
vn 0.5277 -0.0887 -0.8448
vn 0.5580 0.6042 0.5689
vn -0.1909 0.3690 0.9096
vn 0.0119 0.4681 0.8836
vn 0.2276 -0.4180 -0.8795
vn -0.2767 -0.7993 -0.5335
vn 0.0637 -0.6782 -0.7321
vn -0.7383 -0.5228 0.4262
vn -0.5456 -0.3617 0.7559
vn 0.7532 0.0923 -0.6513
vn 0.8813 0.2234 -0.4163
vn 0.9092 0.4152 -0.0301
vn -0.2015 0.2237 0.9536
vn 0.1298 -0.5420 -0.8303
vn -0.4890 -0.8342 -0.2550
vn -0.7441 -0.4893 0.4548
vn -0.6739 -0.5327 0.5119
vn -0.2750 -0.1253 0.9532
vn -0.6693 -0.6706 0.3198
vn -0.7669 -0.4118 0.4922
vn 0.9264 0.3285 -0.1843
vn 0.6595 0.5234 0.5396
vn 0.8540 0.4805 0.1997
vn 0.3245 0.4927 0.8074
vn 0.0138 0.2030 0.9791
vn 0.4771 -0.2109 -0.8532
vn 0.3667 -0.3894 -0.8449
vn -0.6744 -0.7282 0.1219
vn -0.5676 -0.4998 0.6543
vn 0.6511 -0.0117 -0.7589
vn 0.8088 0.0919 -0.5809
vn 0.8793 0.1814 -0.4404
vn 0.6205 -0.1199 -0.7750
vn -0.7377 -0.6737 0.0443
vn 0.0906 -0.4461 -0.8904
vn -0.1713 -0.6661 -0.7259
vn 0.4297 -0.2772 -0.8594
vn -0.7408 -0.4016 0.5384
vn -0.7397 -0.4108 0.5330
vn 0.1315 0.0351 0.9907
vn -0.5948 -0.5821 0.5544
vn -0.7740 -0.5395 0.3314
vn 0.7064 0.4756 0.5242
vn 0.4141 0.3998 0.8177
vn 0.8000 0.0618 -0.5969
vn -0.4986 -0.7600 -0.4169
vn -0.8323 -0.5217 0.1876
vn 0.3712 0.2049 0.9057
vn -0.0141 0.0141 0.9998
vn -0.4060 -0.3373 0.8493
vn -0.1643 -0.1698 0.9717
vn -0.7690 -0.5741 0.2810
vn -0.7632 -0.5828 0.2791
vn -0.6923 -0.5669 0.4464
vn 0.9086 0.2529 -0.3325
vn 0.9280 0.3175 -0.1949
vn 0.8970 0.4048 0.1777
vn 0.6832 0.1034 -0.7229
vn 0.7958 0.0678 -0.6018
vn 0.5469 -0.0262 -0.8368
vn 0.3055 -0.1252 -0.9439
vn -0.0762 -0.2753 -0.9583
vn -0.3947 -0.2851 -0.8734
vn -0.5334 -0.5720 -0.6231
vn 0.6367 0.3363 0.6939
vn -0.4510 -0.2299 0.8624
vn -0.7397 -0.5613 0.3712
vn -0.8767 -0.3908 0.2805
vn 0.9234 0.3694 0.1041
vn 0.8486 0.1819 -0.4968
vn -0.0510 0.0695 -0.9963
vn -0.3140 -0.1654 -0.9349
vn -0.6998 -0.5982 -0.3906
vn -0.6743 -0.3036 -0.6731
vn 0.6419 0.2450 0.7266
vn 0.3460 0.1895 0.9189
vn -0.9175 -0.3289 0.2235
vn -0.9305 -0.2767 0.2402
vn -0.8394 -0.2482 0.4834
vn 0.8633 0.2440 -0.4418
vn 0.8121 0.3703 0.4510
vn 0.0827 0.3228 -0.9428
vn -0.9235 -0.3605 -0.1310
vn -0.9084 -0.1665 -0.3835
vn 0.4180 0.3649 0.8319
vn -0.0306 0.2668 0.9633
vn -0.5473 0.0768 0.8334
vn -0.9849 -0.0683 0.1593
vn -0.9941 -0.0966 0.0500
vn 0.8716 0.4446 -0.2063
vn 0.8601 0.5049 0.0728
vn 0.7723 0.4103 -0.4850
vn 0.2670 0.4903 -0.8296
vn -0.4136 0.3877 -0.8238
vn -0.5761 -0.0456 -0.8161
vn 0.7019 0.3767 0.6045
vn 0.1883 0.5531 0.8115
vn 0.5433 0.5888 0.5984
vn -0.3647 0.3777 0.8511
vn -0.9963 -0.0470 0.0717
vn -0.9435 0.3283 0.0446
vn -0.9569 0.2438 -0.1575
vn -0.9491 0.1258 0.2887
vn 0.7627 0.5727 0.3004
vn 0.8038 0.4267 0.4145
vn 0.7274 0.6594 -0.1897
vn -0.1283 0.7973 -0.5898
vn 0.3601 0.5824 -0.7288
vn -0.1444 0.8388 -0.5249
vn -0.7578 0.2390 -0.6071
vn -0.4705 0.7832 -0.4065
vn -0.6011 0.7574 -0.2550
vn -0.8752 0.0979 -0.4737
vn -0.1524 0.4637 0.8728
vn -0.7173 0.3783 0.5852
vn -0.9361 0.3291 -0.1245
vn -0.9612 0.2756 0.0109
vn -0.7272 0.6862 -0.0168
vn 0.3375 0.7474 -0.5723
vn 0.1104 0.8500 0.5151
vn -0.6673 0.5611 0.4898
vn -0.5673 0.6524 0.5026
vn -0.6092 0.7845 -0.1161
vn 0.2323 0.9030 -0.3614
vn 0.6215 0.7758 0.1092
vn 0.5116 0.6983 0.5006
vn -0.4355 0.8928 -0.1152
vn -0.6432 0.7512 -0.1484
vn -0.7165 0.6310 -0.2974
vn -0.5275 0.7218 -0.4480
vn -0.1730 0.6912 0.7017
vn -0.8249 0.5166 -0.2293
vn -0.6655 0.6659 -0.3371
vn -0.5208 0.8409 -0.1473
vn -0.8378 0.5396 0.0827
vn -0.2899 0.8458 -0.4479
vn -0.2991 0.9542 -0.0084
vn -0.2394 0.9673 -0.0842
vn -0.4124 0.8760 -0.2500
vn 0.4339 0.8180 0.3777
vn -0.4192 0.8745 0.2438
vn -0.7512 0.6576 -0.0571
vn -0.3671 0.8296 -0.4207
vn 0.2455 0.9563 -0.1589
vn 0.2225 0.9736 0.0510
vn -0.4840 0.8493 -0.2108
vn -0.3196 0.9225 -0.2163
vn 0.0058 0.9987 0.0507
vn -0.4703 0.7086 -0.5261
vn -0.3014 0.9275 -0.2212
vn -0.5923 0.6233 -0.5105
vn -0.1857 0.9245 -0.3329
vn -0.1373 0.9421 -0.3060
vn -0.5986 0.7096 -0.3716
vn -0.3393 0.8423 -0.4188
vn -0.6016 0.5686 -0.5611
vn -0.5791 0.7208 -0.3808
vn -0.3151 0.8035 -0.5050
s 1
f 1//1 2//2 3//3
f 6//4 1//1 3//3
f 4//5 5//6 3//3
f 5//6 6//4 3//3
f 1//1 7//7 2//2
f 1//1 6//4 8//8
f 3//3 2//2 9//9
f 10//10 4//5 3//3
f 10//10 3//3 9//9
f 12//11 1//1 13//12
f 1//1 12//11 7//7
f 8//8 13//12 1//1
f 14//13 8//8 6//4
f 9//9 2//2 7//7
f 15//14 5//6 4//5
f 11//15 5//6 15//14
f 6//4 5//6 14//13
f 16//16 14//13 5//6
f 11//15 16//16 5//6
f 18//17 16//16 11//15
f 17//18 18//17 11//15
f 9//9 7//7 19//19
f 20//20 9//9 19//19
f 20//20 10//10 9//9
f 21//21 10//10 20//20
f 22//22 15//14 4//5
f 10//10 22//22 4//5
f 23//23 11//15 15//14
f 24//24 11//15 23//23
f 11//15 24//24 17//18
f 12//11 13//12 26//25
f 7//7 12//11 28//26
f 28//26 12//11 27//27
f 29//28 8//8 14//13
f 19//19 7//7 28//26
f 21//21 22//22 10//10
f 21//21 31//29 22//22
f 32//30 23//23 15//14
f 29//28 14//13 33//31
f 14//13 16//16 33//31
f 18//17 33//31 16//16
f 23//23 34//32 24//24
f 24//24 35//33 17//18
f 18//17 17//18 25//34
f 18//17 25//34 36//35
f 18//17 36//35 37//36
f 37//36 33//31 18//17
f 38//37 27//27 12//11
f 26//25 38//37 12//11
f 29//28 30//38 8//8
f 30//38 13//12 8//8
f 30//38 26//25 13//12
f 20//20 39//39 40//40
f 39//39 20//20 19//19
f 41//41 42//42 20//20
f 20//20 42//42 21//21
f 41//41 20//20 40//40
f 31//29 21//21 42//42
f 45//43 22//22 31//29
f 31//29 44//44 45//43
f 32//30 15//14 22//22
f 47//45 29//28 33//31
f 34//32 23//23 48//46
f 35//33 24//24 34//32
f 17//18 35//33 49//47
f 25//34 17//18 49//47
f 50//48 36//35 25//34
f 39//39 28//26 27//27
f 51//49 27//27 38//37
f 52//50 38//37 26//25
f 53//51 52//50 26//25
f 30//38 29//28 57//52
f 28//26 39//39 19//19
f 46//53 31//29 42//42
f 45//43 43//54 22//22
f 22//22 43//54 32//30
f 54//55 44//44 31//29
f 48//46 23//23 32//30
f 55//56 32//30 43//54
f 56//57 48//46 32//30
f 57//52 29//28 47//45
f 47//45 33//31 37//36
f 48//46 58//58 34//32
f 35//33 59//59 49//47
f 59//59 35//33 73//60
f 60//61 25//34 49//47
f 61//62 25//34 60//61
f 51//49 63//63 27//27
f 64//64 51//49 38//37
f 52//50 64//64 38//37
f 30//38 53//51 26//25
f 53//51 30//38 57//52
f 65//65 42//42 41//41
f 42//42 65//65 46//53
f 55//56 43//54 45//43
f 46//53 54//55 31//29
f 46//53 66//66 54//55
f 44//44 54//55 81//67
f 67//68 45//43 44//44
f 46//53 65//65 69//69
f 69//69 68//70 46//53
f 66//66 46//53 68//70
f 70//71 32//30 55//56
f 56//57 32//30 70//71
f 71//72 57//52 47//45
f 47//45 37//36 72//73
f 62//74 72//73 37//36
f 34//32 58//58 35//33
f 73//60 35//33 58//58
f 56//57 58//58 48//46
f 50//48 25//34 61//62
f 36//35 50//48 74//75
f 36//35 75//76 37//36
f 75//76 62//74 37//36
f 27//27 40//40 39//39
f 63//63 40//40 27//27
f 40//40 63//63 41//41
f 63//63 51//49 76//77
f 76//77 51//49 64//64
f 77//78 64//64 52//50
f 53//51 77//78 52//50
f 57//52 78//79 53//51
f 65//65 79//80 69//69
f 67//68 55//56 45//43
f 68//70 80//81 66//66
f 66//66 81//67 54//55
f 44//44 81//67 67//68
f 70//71 55//56 82//82
f 71//72 78//79 57//52
f 72//73 71//72 47//45
f 72//73 93//83 71//72
f 58//58 83//84 73//60
f 84//85 58//58 56//57
f 58//58 84//85 83//84
f 60//61 49//47 59//59
f 83//84 59//59 73//60
f 85//86 86//87 59//59
f 59//59 86//87 60//61
f 86//87 61//62 60//61
f 74//75 75//76 36//35
f 74//75 50//48 61//62
f 72//73 62//74 87//88
f 75//76 87//88 62//74
f 79//80 63//63 76//77
f 77//78 76//77 64//64
f 88//89 76//77 89//90
f 89//90 76//77 77//78
f 78//79 77//78 53//51
f 65//65 63//63 79//80
f 63//63 65//65 41//41
f 69//69 79//80 90//91
f 80//81 81//67 66//66
f 68//70 69//69 90//91
f 81//67 91//92 67//68
f 82//82 55//56 67//68
f 91//92 82//82 67//68
f 70//71 92//93 56//57
f 84//85 56//57 92//93
f 101//94 92//93 70//71
f 72//73 87//88 93//83
f 59//59 83//84 94//95
f 94//95 85//86 59//59
f 95//96 61//62 86//87
f 74//75 61//62 95//96
f 74//75 107//97 75//76
f 107//97 96//98 75//76
f 96//98 87//88 75//76
f 79//80 76//77 88//89
f 89//90 77//78 97//99
f 98//100 97//99 77//78
f 98//100 77//78 78//79
f 88//89 90//91 79//80
f 80//81 91//92 81//67
f 70//71 82//82 101//94
f 93//83 110//101 71//72
f 71//72 110//101 78//79
f 84//85 102//102 83//84
f 92//93 101//94 84//85
f 94//95 103//103 85//86
f 104//104 95//96 86//87
f 104//104 86//87 85//86
f 85//86 103//103 105//105
f 74//75 106//106 107//97
f 107//97 108//107 96//98
f 108//107 107//97 109//108
f 88//89 89//90 111//109
f 89//90 97//99 112//110
f 112//110 111//109 89//90
f 88//89 113//111 90//91
f 111//109 113//111 88//89
f 100//112 82//82 91//92
f 99//113 80//81 68//70
f 90//91 114//114 68//70
f 68//70 114//114 99//113
f 100//112 80//81 99//113
f 80//81 100//112 91//92
f 101//94 82//82 100//112
f 93//83 87//88 110//101
f 116//115 102//102 84//85
f 102//102 94//95 83//84
f 101//94 100//112 116//115
f 101//94 116//115 84//85
f 105//105 104//104 85//86
f 117//116 105//105 103//103
f 118//117 74//75 95//96
f 106//106 74//75 118//117
f 119//118 96//98 108//107
f 107//97 120//119 109//108
f 121//120 87//88 122//121
f 87//88 121//120 110//101
f 96//98 122//121 87//88
f 98//100 110//101 121//120
f 111//109 112//110 123//122
f 110//101 98//100 78//79
f 111//109 124//123 113//111
f 90//91 113//111 115//124
f 114//114 125//125 99//113
f 114//114 90//91 126//126
f 115//124 126//126 90//91
f 127//127 126//126 115//124
f 102//102 103//103 94//95
f 102//102 117//116 103//103
f 128//128 104//104 105//105
f 105//105 117//116 128//128
f 128//128 129//129 104//104
f 104//104 118//117 95//96
f 106//106 120//119 107//97
f 131//130 108//107 109//108
f 131//130 109//108 120//119
f 98//100 121//120 122//121
f 96//98 119//118 133//131
f 96//98 133//131 122//121
f 133//131 119//118 130//132
f 124//123 111//109 123//122
f 123//122 112//110 134//133
f 97//99 134//133 112//110
f 97//99 98//100 134//133
f 124//123 115//124 113//111
f 100//112 99//113 125//125
f 102//102 116//115 117//116
f 136//134 117//116 137//135
f 117//116 136//134 128//128
f 118//117 104//104 129//129
f 129//129 138//136 118//117
f 106//106 138//136 139//137
f 120//119 106//106 139//137
f 118//117 138//136 106//106
f 119//118 140//138 130//132
f 108//107 131//130 141//139
f 140//138 108//107 141//139
f 140//138 119//118 108//107
f 120//119 139//137 142//140
f 131//130 120//119 143//141
f 142//140 143//141 120//119
f 132//142 134//133 98//100
f 98//100 122//121 132//142
f 133//131 132//142 122//121
f 134//133 132//142 144//143
f 144//143 132//142 133//131
f 123//122 134//133 145//144
f 126//126 146//145 114//114
f 146//145 126//126 127//127
f 137//135 116//115 100//112
f 116//115 137//135 117//116
f 125//125 137//135 100//112
f 147//146 128//128 135//147
f 147//146 129//129 128//128
f 135//147 128//128 136//134
f 133//131 130//132 148//148
f 141//139 149//149 140//138
f 150//150 130//132 140//138
f 131//130 143//141 151//151
f 142//140 139//137 152//152
f 145//144 154//153 123//122
f 154//153 124//123 123//122
f 134//133 144//143 145//144
f 124//123 155//154 115//124
f 124//123 154//153 155//154
f 114//114 146//145 125//125
f 127//127 115//124 156//155
f 125//125 136//134 137//135
f 125//125 146//145 136//134
f 129//129 147//146 157//156
f 139//137 138//136 157//156
f 133//131 148//148 144//143
f 130//132 158//157 148//148
f 159//158 149//149 141//139
f 150//150 158//157 130//132
f 149//149 150//150 140//138
f 131//130 151//151 141//139
f 141//139 151//151 160//159
f 153//160 151//151 143//141
f 153//160 143//141 142//140
f 157//156 162//161 139//137
f 152//152 153//160 142//140
f 162//161 152//152 139//137
f 153//160 163//162 164//163
f 153//160 164//163 151//151
f 155//154 165//164 115//124
f 166//165 146//145 127//127
f 167//166 166//165 127//127
f 156//155 167//166 127//127
f 165//164 156//155 115//124
f 168//167 147//146 135//147
f 146//145 135//147 136//134
f 138//136 129//129 157//156
f 162//161 157//156 169//168
f 144//143 171//169 145//144
f 171//169 144//143 148//148
f 148//148 158//157 170//170
f 148//148 170//170 171//169
f 159//158 141//139 161//171
f 150//150 170//170 158//157
f 160//159 161//171 141//139
f 164//163 160//159 151//151
f 172//172 153//160 152//152
f 153//160 172//172 163//162
f 173//173 154//153 145//144
f 173//173 174//174 154//153
f 154//153 186//175 155//154
f 154//153 174//174 186//175
f 186//175 165//164 155//154
f 165//164 167//166 156//155
f 146//145 168//167 135//147
f 147//146 168//167 157//156
f 171//169 173//173 145//144
f 171//169 170//170 175//176
f 175//176 173//173 171//169
f 177//177 159//158 161//171
f 150//150 178//178 170//170
f 178//178 150//150 179//179
f 178//178 176//180 170//170
f 149//149 179//179 150//150
f 177//177 160//159 180//181
f 160//159 177//177 161//171
f 164//163 181//182 160//159
f 182//183 162//161 169//168
f 163//162 172//172 183//184
f 164//163 163//162 185//185
f 164//163 185//185 181//182
f 166//165 168//167 146//145
f 167//166 187//186 166//165
f 188//187 157//156 168//167
f 157//156 188//187 169//168
f 189//188 173//173 175//176
f 176//180 175//176 170//170
f 190//189 149//149 159//158
f 177//177 190//189 159//158
f 179//179 149//149 190//189
f 177//177 180//181 191//190
f 181//182 180//181 160//159
f 169//168 192//191 182//183
f 193//192 182//183 192//191
f 184//193 152//152 162//161
f 184//193 172//172 152//152
f 184//193 162//161 194//194
f 185//185 195//195 196//196
f 196//196 181//182 185//185
f 185//185 163//162 197//197
f 197//197 163//162 183//184
f 165//164 186//175 198//198
f 198//198 200//199 165//164
f 200//199 167//166 165//164
f 186//175 174//174 189//188
f 189//188 198//198 186//175
f 187//186 168//167 166//165
f 187//186 188//187 168//167
f 199//200 167//166 200//199
f 192//191 169//168 188//187
f 173//173 189//188 174//174
f 175//176 202//201 201//202
f 202//201 175//176 176//180
f 204//203 176//180 203//204
f 205//205 176//180 178//178
f 205//205 203//204 176//180
f 202//201 176//180 204//203
f 178//178 179//179 206//206
f 207//207 206//206 179//179
f 192//191 188//187 208//208
f 182//183 194//194 162//161
f 193//192 194//194 182//183
f 184//193 183//184 172//172
f 212//209 184//193 194//194
f 195//195 185//185 197//197
f 210//210 196//196 195//195
f 196//196 211//211 181//182
f 181//182 211//211 180//181
f 184//193 197//197 183//184
f 197//197 184//193 212//209
f 199//200 187//186 167//166
f 199//200 200//199 213//212
f 188//187 187//186 208//208
f 201//202 214//213 189//188
f 175//176 201//202 189//188
f 205//205 215//214 203//204
f 216//215 215//214 205//205
f 207//207 179//179 190//189
f 177//177 207//207 190//189
f 177//177 217//216 207//207
f 191//190 217//216 177//177
f 205//205 178//178 206//206
f 207//207 217//216 227//217
f 206//206 207//207 227//217
f 218//218 192//191 208//208
f 218//218 209//219 192//191
f 209//219 193//192 192//191
f 193//192 212//209 194//194
f 219//220 196//196 210//210
f 195//195 197//197 210//210
f 197//197 212//209 210//210
f 196//196 219//220 211//211
f 211//211 220//221 180//181
f 210//210 212//209 221//222
f 200//199 198//198 222//223
f 222//223 198//198 214//213
f 214//213 198//198 189//188
f 199//200 223//224 187//186
f 223//224 208//208 187//186
f 224//225 203//204 215//214
f 204//203 203//204 224//225
f 225//226 217//216 191//190
f 226//227 217//216 225//226
f 226//227 227//217 217//216
f 180//181 220//221 191//190
f 205//205 206//206 227//217
f 218//218 228//228 209//219
f 229//229 193//192 209//219
f 193//192 232//230 212//209
f 229//229 232//230 193//192
f 221//222 219//220 210//210
f 230//231 211//211 219//220
f 220//221 211//211 231//232
f 230//231 231//232 211//211
f 212//209 232//230 221//222
f 213//212 223//224 199//200
f 200//199 235//233 213//212
f 235//233 233//234 213//212
f 234//235 235//233 200//199
f 222//223 234//235 200//199
f 223//224 218//218 208//208
f 222//223 214//213 201//202
f 202//201 222//223 201//202
f 202//201 234//235 222//223
f 238//236 202//201 204//203
f 224//225 238//236 204//203
f 216//215 236//237 215//214
f 216//215 239//238 236//237
f 191//190 220//221 225//226
f 216//215 205//205 227//217
f 216//215 227//217 239//238
f 223//224 240//239 218//218
f 218//218 240//239 228//228
f 241//240 209//219 228//228
f 242//241 241//240 228//228
f 241//240 229//229 209//219
f 229//229 243//242 232//230
f 245//243 219//220 221//222
f 219//220 246//244 230//231
f 245//243 246//244 219//220
f 230//231 247//245 231//232
f 232//230 248//246 221//222
f 213//212 233//234 260//247
f 260//247 250//248 213//212
f 251//249 233//234 235//233
f 224//225 215//214 236//237
f 224//225 237//250 238//236
f 262//251 202//201 238//236
f 238//236 252//252 262//251
f 239//238 256//253 236//237
f 254//254 236//237 253//255
f 253//255 236//237 256//253
f 255//256 227//217 226//227
f 220//221 231//232 225//226
f 226//227 225//226 231//232
f 256//253 239//238 227//217
f 227//217 255//256 256//253
f 213//212 250//248 223//224
f 250//248 240//239 223//224
f 242//241 228//228 240//239
f 229//229 241//240 244//257
f 232//230 243//242 249//258
f 243//242 229//229 244//257
f 248//246 245//243 221//222
f 248//246 257//259 245//243
f 247//245 230//231 258//260
f 230//231 246//244 258//260
f 246//244 259//261 258//260
f 231//232 247//245 226//227
f 249//258 248//246 232//230
f 234//235 251//249 235//233
f 234//235 261//262 251//249
f 262//251 234//235 202//201
f 237//250 224//225 236//237
f 237//250 236//237 254//254
f 252//252 238//236 237//250
f 242//241 240//239 250//248
f 242//241 272//263 241//240
f 263//264 249//258 243//242
f 243//242 244//257 264//265
f 243//242 264//265 263//264
f 245//243 257//259 246//244
f 247//245 255//256 226//227
f 258//260 265//266 247//245
f 242//241 250//248 260//247
f 266//267 251//249 261//262
f 260//247 233//234 251//249
f 267//268 251//249 266//267
f 251//249 267//268 260//247
f 267//268 268//269 260//247
f 262//251 261//262 234//235
f 237//250 254//254 269//270
f 237//250 269//270 252//252
f 253//255 256//253 270//271
f 256//253 277//272 271//273
f 277//272 256//253 255//256
f 260//247 268//269 242//241
f 268//269 272//263 242//241
f 244//257 273//274 264//265
f 244//257 241//240 273//274
f 248//246 274//275 257//259
f 274//275 275//276 257//259
f 275//276 246//244 257//259
f 246//244 276//277 259//261
f 275//276 276//277 246//244
f 259//261 265//266 258//260
f 249//258 278//278 248//246
f 269//270 254//254 253//255
f 252//252 279//279 262//251
f 280//280 253//255 281//281
f 270//271 281//281 253//255
f 270//271 256//253 271//273
f 247//245 277//272 255//256
f 282//282 271//273 277//272
f 271//273 282//282 270//271
f 283//283 268//269 267//268
f 268//269 283//283 272//263
f 273//274 241//240 272//263
f 273//274 272//263 284//284
f 278//278 249//258 263//264
f 291//285 278//278 263//264
f 248//246 278//278 274//275
f 247//245 265//266 277//272
f 276//277 265//266 259//261
f 281//281 265//266 276//277
f 266//267 261//262 279//279
f 285//286 266//267 279//279
f 266//267 286//287 267//268
f 287//288 283//283 267//268
f 267//268 286//287 287//288
f 262//251 279//279 261//262
f 253//255 280//280 269//270
f 280//280 288//289 269//270
f 252//252 269//270 279//279
f 288//289 279//279 269//270
f 270//271 282//282 281//281
f 284//284 272//263 289//290
f 290//291 272//263 283//283
f 273//274 284//284 264//265
f 263//264 264//265 291//285
f 292//292 276//277 275//276
f 276//277 292//292 293//293
f 265//266 282//282 277//272
f 265//266 281//281 282//282
f 276//277 293//293 281//281
f 278//278 291//285 274//275
f 285//286 279//279 301//294
f 285//286 294//295 295//296
f 301//294 294//295 285//286
f 266//267 285//286 286//287
f 287//288 294//295 283//283
f 287//288 286//287 295//296
f 293//293 280//280 281//281
f 290//291 289//290 272//263
f 289//290 296//297 284//284
f 289//290 290//291 297//298
f 264//265 284//284 291//285
f 291//285 275//276 274//275
f 275//276 298//299 292//292
f 275//276 291//285 298//299
f 288//289 292//292 299//300
f 292//292 288//289 293//293
f 280//280 293//293 288//289
f 285//286 295//296 286//287
f 290//291 294//295 300//301
f 294//295 290//291 283//283
f 287//288 295//296 294//295
f 288//289 299//300 279//279
f 297//298 290//291 300//301
f 284//284 296//297 291//285
f 298//299 301//294 292//292
f 299//300 292//292 301//294
f 301//294 279//279 299//300
f 300//301 294//295 301//294
f 289//290 297//298 296//297
f 296//297 300//301 298//299
f 296//297 297//298 300//301
f 291//285 296//297 298//299
f 301//294 298//299 300//301
