# Blender 4.0.2
# www.blender.org
mtllib thumb_dist_r.mtl
o thumb_dist_r.002
v 0.010166 -0.017782 -0.008014
v 0.011013 -0.017259 -0.007406
v 0.010972 -0.017752 -0.007136
v 0.009943 -0.018005 -0.007880
v 0.011093 -0.017051 -0.007656
v 0.010452 -0.018157 -0.007236
v 0.010770 -0.017015 -0.008090
v 0.010239 -0.018350 -0.006451
v 0.010346 -0.016481 -0.008584
v 0.008959 -0.017171 -0.008409
v 0.009206 -0.018334 -0.006890
v 0.011142 -0.017062 -0.006898
v 0.010655 -0.018030 -0.006313
v 0.010950 -0.017678 -0.006489
v 0.008777 -0.017665 -0.007793
v 0.009278 -0.016632 -0.008668
v 0.010758 -0.015671 -0.008051
v 0.008945 -0.018328 -0.006245
v 0.007847 -0.016441 -0.008238
v 0.007681 -0.017482 -0.006637
v 0.010697 -0.016174 -0.008338
v 0.009149 -0.015356 -0.008904
v 0.011009 -0.015980 -0.007054
v 0.010508 -0.016864 -0.005302
v 0.008867 -0.018101 -0.005444
v 0.009901 -0.018144 -0.005612
v 0.010539 -0.017438 -0.005481
v 0.008067 -0.017814 -0.005399
v 0.010080 -0.015211 -0.008640
v 0.008251 -0.016001 -0.008788
v 0.008284 -0.015030 -0.009043
v 0.007604 -0.015422 -0.008767
v 0.010845 -0.015593 -0.007164
v 0.010036 -0.015926 -0.005145
v 0.009588 -0.014846 -0.005809
v 0.010185 -0.014802 -0.008228
v 0.009561 -0.017818 -0.004930
v 0.006779 -0.015047 -0.008138
v 0.008416 -0.014048 -0.008867
v 0.010134 -0.014627 -0.007829
v 0.009540 -0.015581 -0.005057
v 0.008018 -0.012183 -0.005094
v 0.009295 -0.014059 -0.006959
v 0.008847 -0.017334 -0.004433
v 0.007203 -0.017125 -0.005274
v 0.006050 -0.014438 -0.006904
v 0.006431 -0.016007 -0.005825
v 0.009374 -0.013995 -0.008335
v 0.010264 -0.016320 -0.005127
v 0.007812 -0.012924 -0.004151
v 0.008195 -0.012582 -0.006724
v 0.009657 -0.017256 -0.004568
v 0.007842 -0.016701 -0.004028
v 0.006193 -0.016214 -0.004762
v 0.005676 -0.013726 -0.007201
v 0.005447 -0.014578 -0.005505
v 0.006706 -0.016551 -0.004258
v 0.007178 -0.016374 -0.003625
v 0.007673 -0.013075 -0.008611
v 0.008979 -0.013513 -0.008019
v 0.007376 -0.013510 -0.008826
v 0.006893 -0.013644 -0.008635
v 0.009175 -0.016638 -0.004273
v 0.008285 -0.015549 -0.004058
v 0.007823 -0.013803 -0.003878
v 0.006605 -0.010126 -0.006050
v 0.006914 -0.010045 -0.004896
v 0.006726 -0.009998 -0.003696
v 0.007993 -0.016297 -0.003814
v 0.005091 -0.013704 -0.006307
v 0.006610 -0.016044 -0.003540
v 0.005908 -0.012893 -0.007901
v 0.008227 -0.012908 -0.007443
v 0.006811 -0.014239 -0.003177
v 0.006944 -0.011974 -0.007518
v 0.005525 -0.015389 -0.004490
v 0.004309 -0.013148 -0.005815
v 0.004016 -0.012371 -0.006288
v 0.005626 -0.012405 -0.007493
v 0.004655 -0.013805 -0.004657
v 0.005746 -0.015038 -0.003206
v 0.006928 -0.015551 -0.003229
v 0.006134 -0.011754 -0.002547
v 0.005942 -0.009579 -0.002462
v 0.006196 -0.010772 -0.006971
v 0.005422 -0.006774 -0.004249
v 0.005410 -0.009890 -0.006815
v 0.004859 -0.008043 -0.006156
v 0.005616 -0.006845 -0.003431
v 0.004985 -0.012615 -0.007128
v 0.004704 -0.013792 -0.004209
v 0.005450 -0.014716 -0.003329
v 0.006514 -0.012694 -0.008394
v 0.005925 -0.012715 -0.002569
v 0.005853 -0.014660 -0.003087
v 0.005963 -0.014084 -0.003107
v 0.004956 -0.009053 -0.001393
v 0.006841 -0.012360 -0.008237
v 0.004652 -0.009248 -0.006728
v 0.005183 -0.014301 -0.003911
v 0.002835 -0.011710 -0.005604
v 0.003212 -0.010797 -0.006547
v 0.005349 -0.011462 -0.007136
v 0.003001 -0.012285 -0.004523
v 0.006338 -0.012251 -0.007974
v 0.005633 -0.013098 -0.002674
v 0.004567 -0.010464 -0.001294
v 0.005655 -0.007859 -0.002357
v 0.006269 -0.011822 -0.007490
v 0.005115 -0.004920 -0.003954
v 0.004340 -0.006355 -0.005617
v 0.004141 -0.006819 -0.006237
v 0.002424 -0.010862 -0.005675
v 0.003707 -0.010090 -0.006834
v 0.005370 -0.013812 -0.003333
v 0.003959 -0.012902 -0.003428
v 0.002432 -0.011767 -0.003304
v 0.005518 -0.014284 -0.003343
v 0.004616 -0.011446 -0.001709
v 0.004030 -0.007824 0.000027
v 0.004894 -0.007300 -0.000882
v 0.005441 -0.006754 -0.001963
v 0.005388 -0.004415 -0.002392
v 0.004796 -0.004985 -0.004576
v 0.005175 -0.003398 -0.002492
v 0.003783 -0.007856 -0.006683
v 0.001901 -0.010274 -0.004978
v 0.003673 -0.011740 -0.001962
v 0.002916 -0.012273 -0.003264
v 0.003620 -0.009825 -0.000509
v 0.002662 -0.008488 0.001394
v 0.003191 -0.009387 0.000028
v 0.003366 -0.006909 0.001311
v 0.003852 -0.006185 0.001423
v 0.003439 -0.010780 -0.001052
v 0.005073 -0.003621 -0.003738
v 0.004083 -0.005164 -0.005408
v 0.003906 -0.005919 -0.006334
v 0.003237 -0.009359 -0.006694
v 0.002988 -0.008411 -0.006557
v 0.001846 -0.010494 -0.003634
v 0.001372 -0.009022 -0.004993
v 0.002580 -0.011601 -0.002284
v 0.002799 -0.009080 0.000741
v 0.004880 -0.005332 0.000504
v 0.003424 -0.005774 0.001920
v 0.005229 -0.004513 -0.000499
v 0.004981 -0.002951 -0.002556
v 0.004091 -0.004129 -0.005326
v 0.003298 -0.006663 -0.006863
v 0.003437 -0.005251 -0.006872
v 0.003898 -0.005277 -0.006382
v 0.003266 -0.007332 -0.006828
v 0.002818 -0.008621 -0.006450
v 0.003124 -0.007619 -0.006713
v 0.002386 -0.008834 -0.005723
v 0.001962 -0.008081 -0.005361
v 0.001946 -0.010256 -0.002206
v 0.002188 -0.011128 -0.002052
v 0.002111 -0.008031 0.001954
v 0.001843 -0.007222 0.002041
v 0.002442 -0.006086 0.002116
v 0.002236 -0.008614 0.001597
v 0.004119 -0.004835 0.001588
v 0.003235 -0.005148 0.002064
v 0.002975 -0.010782 -0.001006
v 0.004343 -0.002468 -0.003601
v 0.003858 -0.002880 -0.004910
v 0.003945 -0.002476 -0.004342
v 0.002492 -0.004896 -0.007244
v 0.002441 -0.007589 -0.006263
v 0.004004 -0.004703 -0.006220
v 0.001001 -0.008240 -0.004380
v 0.000811 -0.008886 -0.002858
v 0.002193 -0.010933 -0.001432
v 0.004708 -0.004342 0.000881
v 0.004829 -0.002816 -0.001835
v 0.003894 -0.002040 -0.002638
v 0.003528 -0.003423 -0.005477
v 0.003711 -0.004015 -0.006095
v 0.002158 -0.006423 -0.007008
v 0.002440 -0.008202 -0.005780
v 0.001531 -0.006597 -0.006522
v 0.003194 -0.004214 -0.006716
v 0.001211 -0.009446 -0.002162
v 0.001620 -0.010405 -0.001270
v 0.001840 -0.009555 0.000639
v 0.002153 -0.010491 -0.000423
v 0.001301 -0.007746 0.002143
v 0.001696 -0.005925 0.002207
v 0.001163 -0.006889 0.002057
v 0.002237 -0.005548 0.002116
v 0.004542 -0.003805 0.000890
v 0.003617 -0.003859 0.001486
v 0.001816 -0.010625 -0.001009
v 0.004175 -0.002520 -0.000656
v 0.004038 -0.002156 -0.001861
v 0.003700 -0.002081 -0.003393
v 0.003348 -0.002640 -0.004989
v 0.001824 -0.004930 -0.007224
v 0.001434 -0.007355 -0.004993
v 0.001757 -0.009927 -0.001766
v 0.000781 -0.008759 -0.001875
v 0.000553 -0.007193 -0.003682
v 0.000319 -0.007510 -0.002735
v 0.000980 -0.006555 -0.004160
v 0.001197 -0.009115 0.001132
v 0.000997 -0.008111 0.002009
v 0.000964 -0.006137 0.002027
v 0.003912 -0.003823 0.001441
v 0.004119 -0.003194 0.000650
v 0.001160 -0.009946 -0.000557
v 0.003915 -0.002170 -0.000645
v 0.003511 -0.001963 -0.001766
v 0.003520 -0.002022 -0.002510
v 0.002749 -0.003266 -0.005635
v 0.002913 -0.003637 -0.006152
v 0.001245 -0.005067 -0.006920
v 0.002222 -0.003826 -0.006873
v 0.001159 -0.006344 -0.006102
v 0.001482 -0.009732 -0.001404
v 0.000604 -0.008846 -0.001097
v 0.000091 -0.006798 -0.001034
v 0.000097 -0.006530 -0.001624
v 0.000571 -0.008402 0.001599
v 0.001283 -0.005692 0.001961
v 0.003355 -0.002941 0.000466
v 0.002601 -0.004157 0.000913
v 0.000631 -0.009290 0.000244
v 0.003577 -0.002411 -0.000084
v 0.003606 -0.002133 -0.000462
v 0.003006 -0.002475 -0.004762
v 0.002231 -0.003337 -0.005742
v 0.001480 -0.004046 -0.006866
v 0.000267 -0.005395 -0.005010
v 0.000066 -0.005963 -0.002792
v 0.000395 -0.005395 -0.003773
v -0.000042 -0.008337 0.000783
v 0.000450 -0.007423 0.002044
v -0.000256 -0.006577 0.001493
v 0.003648 -0.002851 0.000469
v 0.001940 -0.004535 0.000524
v 0.000100 -0.008582 -0.000234
v 0.003286 -0.002062 -0.000752
v 0.002368 -0.002777 -0.002084
v 0.002186 -0.002897 -0.003366
v 0.002300 -0.002733 -0.004304
v 0.001746 -0.003012 -0.004864
v 0.000627 -0.004476 -0.006315
v 0.001867 -0.003454 -0.006510
v 0.000308 -0.004808 -0.005564
v -0.000406 -0.006333 -0.000468
v -0.000447 -0.005568 -0.001651
v -0.000204 -0.005235 -0.002901
v -0.000179 -0.007488 0.001624
v -0.000423 -0.007315 0.001347
v -0.000049 -0.006901 0.001752
v -0.000070 -0.005677 0.000737
v 0.000336 -0.005186 0.000633
v -0.000454 -0.006604 0.001133
v 0.002587 -0.003154 -0.000390
v -0.000221 -0.008021 0.000192
v 0.002639 -0.002641 -0.001212
v 0.001238 -0.003175 -0.003820
v 0.000845 -0.003463 -0.005610
v 0.000747 -0.003350 -0.005152
v 0.001089 -0.003601 -0.006329
v -0.000554 -0.007097 0.000677
v -0.000520 -0.006034 0.000013
v -0.000291 -0.004543 -0.003530
v -0.000201 -0.004243 -0.004382
v -0.000373 -0.005138 -0.002269
v 0.000922 -0.003746 -0.000799
v 0.001774 -0.003097 -0.001355
v 0.000322 -0.003186 -0.003083
v 0.000539 -0.003451 -0.004854
v 0.000336 -0.003328 -0.003795
v 0.001398 -0.003378 -0.006194
v 0.000299 -0.004038 -0.005457
v -0.000454 -0.005172 -0.001318
v -0.000681 -0.005038 -0.000299
v -0.000311 -0.004314 -0.003786
v -0.000369 -0.005873 0.000444
v -0.000150 -0.005067 0.000416
v -0.000310 -0.004276 -0.000265
v 0.001009 -0.003356 -0.001374
v 0.000720 -0.003122 -0.002359
v 0.000483 -0.003622 -0.005372
v 0.000097 -0.003808 -0.004664
v -0.000502 -0.005145 0.000190
v -0.000435 -0.003994 -0.001100
v -0.000168 -0.003550 -0.002758
v -0.000423 -0.003940 -0.001861
v -0.000274 -0.004505 -0.000011
v -0.000067 -0.003642 -0.000973
v 0.000011 -0.003380 -0.003203
v -0.000596 -0.004636 -0.000366
v -0.000152 -0.003409 -0.002459
v -0.000071 -0.003302 -0.002048
v -0.000389 -0.004056 -0.000821
v 0.000114 -0.003268 -0.001705
vn 0.3566 -0.5951 -0.7202
vn 0.8479 -0.4433 -0.2908
vn 0.8211 -0.5172 -0.2416
vn 0.0882 -0.8007 -0.5926
vn 0.9044 -0.2512 -0.3449
vn 0.4294 -0.8439 -0.3218
vn 0.6760 -0.3106 -0.6682
vn 0.3782 -0.2006 -0.9037
vn -0.2175 -0.5536 -0.8039
vn -0.2252 -0.9436 -0.2429
vn 0.9920 -0.0321 0.1225
vn 0.3105 -0.9465 0.0874
vn 0.6768 -0.6838 0.2729
vn -0.4324 -0.7324 -0.5259
vn 0.0451 -0.3461 -0.9371
vn 0.8746 0.3224 -0.3620
vn 0.9022 -0.3474 0.2556
vn -0.2631 -0.9635 0.0491
vn -0.6247 -0.5378 -0.5662
vn -0.6683 -0.6955 -0.2638
vn 0.8048 0.0410 -0.5921
vn 0.1818 -0.0070 -0.9833
vn -0.2676 -0.3800 -0.8854
vn 0.9401 0.3093 0.1435
vn 0.8233 0.0652 0.5638
vn 0.2976 -0.8483 0.4380
vn -0.1575 -0.9005 0.4052
vn 0.7634 -0.3416 0.5482
vn -0.4594 -0.8397 0.2896
vn 0.5124 0.2595 -0.8186
vn -0.0528 -0.0380 -0.9979
vn -0.4935 -0.3023 -0.8155
vn 0.6545 0.4621 0.5984
vn 0.7824 0.5183 0.3453
vn 0.8456 0.5118 0.1514
vn 0.7403 0.5411 -0.3989
vn 0.2413 -0.7252 0.6449
vn -0.7660 -0.4233 -0.4838
vn 0.2496 0.3287 -0.9108
vn 0.7513 0.6599 0.0094
vn 0.6056 0.4213 0.6751
vn 0.7604 0.6356 0.1334
vn 0.8853 0.4167 0.2062
vn -0.0005 -0.6097 0.7927
vn -0.5827 -0.7942 0.1722
vn -0.7929 -0.5167 -0.3230
vn -0.8017 -0.4941 -0.3363
vn 0.5813 0.6217 -0.5250
vn 0.8557 0.3824 0.3486
vn 0.7957 0.2546 0.5496
vn 0.7469 0.6252 -0.2263
vn 0.4668 -0.2879 0.8362
vn -0.0810 -0.7080 0.7016
vn -0.7545 -0.6563 -0.0055
vn -0.7673 -0.4059 -0.4965
vn -0.7780 -0.5345 -0.3304
vn -0.0567 -0.6723 0.7381
vn -0.4848 -0.8083 0.3342
vn 0.2911 0.6216 -0.7273
vn 0.6028 0.7754 -0.1880
vn -0.1359 0.1956 -0.9712
vn -0.5237 -0.0787 -0.8483
vn 0.4448 0.0064 0.8956
vn 0.6501 0.1214 0.7501
vn 0.6801 0.3184 0.6604
vn 0.8879 0.4554 -0.0642
vn 0.6948 0.5418 -0.4730
vn 0.9043 0.2936 0.3099
vn 0.2746 -0.2901 0.9167
vn -0.6839 -0.5776 -0.4456
vn -0.3956 -0.6294 0.6689
vn -0.7544 0.0407 -0.6552
vn 0.6180 0.7443 -0.2531
vn 0.3584 -0.0594 0.9317
vn 0.3930 0.7051 -0.5902
vn -0.8248 -0.5653 0.0106
vn -0.5553 -0.2467 -0.7942
vn -0.6963 -0.6274 -0.3485
vn -0.6425 -0.4960 -0.5840
vn -0.7657 -0.6394 -0.0698
vn -0.5117 -0.4618 0.7245
vn 0.1614 -0.2263 0.9606
vn -0.5091 0.1535 -0.8469
vn 0.6250 -0.0394 0.7797
vn 0.8061 0.0734 0.5872
vn 0.4088 0.5279 -0.7445
vn 0.8689 0.3379 -0.3618
vn 0.2602 0.3608 -0.8956
vn 0.6171 0.3993 -0.6780
vn 0.9705 0.2368 -0.0454
vn -0.7025 -0.6555 0.2772
vn -0.7940 -0.2048 0.5724
vn -0.4130 0.3107 -0.8561
vn 0.3169 -0.2490 0.9152
vn -0.2048 -0.2139 0.9551
vn -0.2394 -0.0426 0.9700
vn 0.7083 -0.1409 0.6918
vn 0.4680 -0.2753 0.8398
vn 0.0875 0.7250 -0.6832
vn 0.1508 0.2193 -0.9639
vn -0.8307 -0.3548 0.4290
vn -0.7492 -0.5172 -0.4138
vn -0.5902 -0.2046 -0.7809
vn -0.2272 0.1602 -0.9606
vn -0.7417 -0.6554 -0.1422
vn -0.5848 -0.7745 0.2411
vn -0.4270 0.6426 -0.6362
vn -0.1272 0.4817 -0.8671
vn -0.0468 -0.4843 0.8736
vn 0.9302 0.1511 0.3344
vn 0.9283 0.1584 -0.3363
vn 0.8161 0.2830 -0.5039
vn 0.7143 0.2333 -0.6598
vn -0.7941 -0.3381 -0.5050
vn -0.2212 0.0145 -0.9751
vn -0.5547 -0.5063 0.6603
vn -0.4355 -0.7555 0.4894
vn -0.8250 -0.5642 0.0312
vn -0.6742 -0.0229 0.7382
vn 0.1290 -0.4738 0.8711
vn 0.7248 -0.3162 0.6121
vn 0.8420 -0.1878 0.5057
vn 0.9474 -0.0035 0.3201
vn 0.9875 0.1522 -0.0411
vn 0.8138 0.1688 -0.5560
vn 0.9555 0.2947 -0.0110
vn 0.1988 0.0674 -0.9777
vn -0.8876 -0.4089 -0.2123
vn -0.1852 -0.7262 0.6620
vn 0.4512 -0.4220 0.7864
vn 0.6061 -0.4114 0.6807
vn 0.5165 -0.5155 0.6837
vn 0.5583 -0.3661 0.7445
vn 0.6443 -0.3609 0.6742
vn 0.1668 -0.5887 0.7909
vn 0.9029 0.2825 -0.3241
vn 0.8872 0.1087 -0.4483
vn 0.8248 0.0718 -0.5608
vn -0.4875 -0.0199 -0.8729
vn -0.3775 -0.0188 -0.9258
vn -0.8917 -0.4512 -0.0360
vn -0.8584 -0.1829 -0.4792
vn -0.4844 -0.7802 0.3958
vn 0.4931 -0.6451 0.5837
vn 0.8723 -0.1634 0.4609
vn 0.9615 0.1556 0.2265
vn 0.8323 0.2794 -0.4788
vn 0.3620 -0.0245 -0.9319
vn 0.5569 0.0651 -0.8280
vn 0.8754 -0.0197 -0.4829
vn 0.0494 -0.1929 -0.9800
vn -0.7137 -0.1218 -0.6898
vn -0.2465 -0.2992 -0.9218
vn -0.6210 0.0777 -0.7800
vn -0.6234 -0.0257 -0.7815
vn -0.8818 -0.4713 0.0196
vn -0.8438 -0.5329 0.0631
vn 0.0273 -0.7427 0.6690
vn 0.3076 -0.2753 0.9108
vn 0.2289 -0.0542 0.9719
vn 0.2253 -0.1698 0.9594
vn 0.4348 -0.2588 0.8625
vn 0.6273 0.0182 0.7785
vn 0.1784 0.1673 0.9696
vn 0.8204 0.5699 -0.0473
vn 0.7916 0.5959 0.1353
vn 0.6533 0.7153 -0.2482
vn 0.5829 0.5234 -0.6216
vn 0.4885 0.7635 -0.4225
vn 0.1660 0.1220 -0.9786
vn -0.6543 -0.4598 -0.6004
vn 0.8782 0.1571 -0.4517
vn -0.9084 -0.1575 -0.3873
vn -0.9039 -0.4148 -0.1043
vn -0.8431 -0.2454 -0.4786
vn -0.3975 -0.8441 0.3598
vn 0.2676 -0.5855 0.7652
vn 0.8445 0.1280 0.5200
vn -0.0496 -0.8087 0.5862
vn 0.7457 0.4237 0.5142
vn 0.3619 0.9309 -0.0495
vn 0.4931 0.5826 -0.6461
vn 0.6455 0.5674 -0.5113
vn -0.2478 -0.3164 -0.9157
vn -0.8050 -0.1709 -0.5681
vn -0.6472 -0.4862 -0.5871
vn 0.4637 0.4829 -0.7428
vn -0.7829 -0.6217 0.0237
vn -0.8363 -0.5203 -0.1727
vn -0.8355 -0.4929 -0.2428
vn 0.1508 -0.7390 0.6566
vn 0.0297 -0.1542 0.9876
vn -0.1089 0.1795 0.9777
vn -0.0537 0.0064 0.9985
vn -0.0701 0.2858 0.9557
vn 0.3312 0.5110 0.7932
vn -0.5498 -0.8138 0.1883
vn 0.7186 0.6242 0.3065
vn 0.5277 0.8470 0.0642
vn 0.0312 0.9844 -0.1734
vn 0.2005 0.7507 -0.6295
vn -0.2433 0.0478 -0.9688
vn -0.9199 -0.3739 -0.1183
vn -0.8891 -0.0733 -0.4518
vn -0.9187 -0.3686 -0.1417
vn -0.9550 -0.2748 -0.1118
vn -0.9039 -0.2259 -0.3632
vn -0.2394 -0.7546 0.6109
vn -0.1772 -0.4626 0.8687
vn -0.3603 0.2577 0.8965
vn 0.4478 0.7060 0.5487
vn -0.1558 0.5961 0.7876
vn -0.7188 -0.6949 0.0209
vn 0.5427 0.7826 0.3049
vn -0.1290 0.9916 0.0016
vn -0.1450 0.9187 -0.3673
vn 0.1127 0.7576 -0.6430
vn 0.3058 0.7987 -0.5182
vn -0.6303 -0.1098 -0.7686
vn 0.1301 0.5949 -0.7932
vn -0.8232 -0.4293 -0.3716
vn -0.7903 -0.5422 -0.2854
vn -0.8525 -0.4286 -0.2992
vn -0.8814 -0.3177 -0.3495
vn -0.4811 -0.6088 0.6308
vn -0.3846 0.5732 0.7236
vn -0.5719 0.6656 0.4795
vn -0.4128 0.6726 0.6142
vn -0.6418 -0.7288 0.2387
vn -0.0410 0.8024 0.5954
vn -0.3755 0.8864 0.2708
vn 0.0740 0.8961 0.4377
vn -0.2796 0.9566 -0.0826
vn -0.0132 0.9193 -0.3934
vn -0.3753 0.3889 -0.8414
vn -0.8863 -0.4227 -0.1894
vn -0.9070 -0.2761 -0.3179
vn -0.8530 -0.4843 -0.1944
vn -0.7970 -0.5560 0.2358
vn -0.3519 -0.1214 0.9281
vn -0.7079 0.3414 0.6183
vn 0.0237 0.6482 0.7611
vn -0.4652 0.7331 0.4962
vn -0.8727 -0.4379 -0.2161
vn -0.4933 0.8698 0.0112
vn -0.3837 0.9233 0.0154
vn -0.3986 0.9171 -0.0063
vn -0.3094 0.9242 -0.2241
vn -0.8035 0.0693 -0.5913
vn -0.0021 0.8481 -0.5298
vn -0.9010 -0.1599 -0.4034
vn -0.9343 -0.2533 -0.2509
vn -0.9557 -0.2223 -0.1928
vn -0.8765 -0.3723 -0.3051
vn -0.6927 -0.3013 0.6553
vn -0.9017 -0.1922 0.3872
vn -0.5723 0.1298 0.8097
vn -0.6149 0.4597 0.6408
vn -0.3100 0.6522 0.6918
vn -0.9161 0.2410 0.3203
vn -0.6185 0.6333 0.4652
vn -0.9181 -0.2099 -0.3361
vn -0.6402 0.7357 0.2209
vn -0.2491 0.9675 -0.0422
vn -0.3986 0.8689 -0.2935
vn -0.4272 0.8913 -0.1520
vn -0.5439 0.6127 -0.5733
vn -0.9892 -0.1455 -0.0176
vn -0.9981 -0.0400 0.0461
vn -0.9723 -0.2122 -0.0982
vn -0.9627 0.1059 -0.2488
vn -0.9761 -0.1274 -0.1759
vn -0.1282 0.7804 0.6120
vn -0.3783 0.8710 0.3136
vn -0.2805 0.9553 -0.0929
vn -0.4017 0.8906 -0.2133
vn -0.2118 0.9356 -0.2825
vn -0.5191 0.8460 -0.1218
vn -0.8659 0.2752 -0.4178
vn -0.9930 0.0610 0.1012
vn -0.9823 0.0891 -0.1650
vn -0.9934 0.0149 -0.1140
vn -0.8788 0.2277 0.4194
vn -0.3831 0.4774 0.7908
vn -0.4477 0.6690 0.5933
vn -0.1841 0.8897 0.4178
vn -0.0347 0.9994 0.0032
vn -0.7094 0.6195 -0.3361
vn -0.7940 0.5508 -0.2573
vn -0.7993 0.2109 0.5627
vn -0.9080 0.4071 0.0988
vn -0.9361 0.3229 -0.1396
vn -0.9701 0.2296 -0.0783
vn 0.1638 0.7197 0.6746
vn -0.3915 0.8067 0.4427
vn -0.5938 0.8022 0.0616
vn -0.7804 0.6185 -0.0919
vn -0.6948 0.6989 -0.1694
vn -0.9266 0.3371 0.1666
vn -0.7905 0.5446 0.2802
vn -0.3180 0.9119 0.2593
s 1
f 1//1 2//2 3//3
f 3//3 4//4 1//1
f 1//1 5//5 2//2
f 3//3 6//6 4//4
f 5//5 1//1 7//7
f 7//7 1//1 9//8
f 9//8 1//1 10//9
f 4//4 6//6 11//10
f 3//3 2//2 12//11
f 5//5 12//11 2//2
f 6//6 3//3 8//12
f 6//6 8//12 11//10
f 13//13 8//12 3//3
f 10//9 1//1 4//4
f 11//10 15//14 4//4
f 4//4 15//14 10//9
f 10//9 16//15 9//8
f 17//16 5//5 7//7
f 3//3 14//17 13//13
f 11//10 8//12 18//18
f 10//9 15//14 19//19
f 15//14 11//10 20//20
f 7//7 21//21 17//16
f 7//7 9//8 21//21
f 9//8 16//15 22//22
f 30//23 16//15 10//9
f 19//19 30//23 10//9
f 23//24 12//11 5//5
f 23//24 24//25 12//11
f 23//24 5//5 17//16
f 12//11 14//17 3//3
f 26//26 8//12 13//13
f 18//18 8//12 25//27
f 25//27 8//12 26//26
f 13//13 14//17 27//28
f 15//14 20//20 19//19
f 20//20 11//10 18//18
f 20//20 18//18 28//29
f 21//21 9//8 29//30
f 29//30 9//8 22//22
f 30//23 31//31 16//15
f 31//31 22//22 16//15
f 32//32 30//23 19//19
f 34//33 23//24 35//34
f 34//33 24//25 23//24
f 33//35 35//34 23//24
f 17//16 33//35 23//24
f 17//16 36//36 33//35
f 37//37 25//27 26//26
f 28//29 18//18 25//27
f 26//26 13//13 27//28
f 14//17 12//11 24//25
f 14//17 24//25 27//28
f 32//32 19//19 38//38
f 29//30 17//16 21//21
f 36//36 17//16 29//30
f 22//22 39//39 29//30
f 35//34 33//35 40//40
f 35//34 41//41 34//33
f 43//42 42//43 35//34
f 33//35 36//36 40//40
f 25//27 37//37 44//44
f 28//29 25//27 44//44
f 26//26 27//28 37//37
f 20//20 28//29 45//45
f 38//38 19//19 46//46
f 47//47 19//19 20//20
f 19//19 47//47 46//46
f 39//39 48//48 29//30
f 30//23 32//32 31//31
f 22//22 31//31 39//39
f 34//33 49//49 24//25
f 40//40 43//42 35//34
f 50//50 35//34 42//43
f 51//51 42//43 43//42
f 44//44 37//37 52//52
f 53//53 28//29 44//44
f 45//45 28//29 53//53
f 52//52 37//37 27//28
f 20//20 45//45 54//54
f 20//20 54//54 47//47
f 38//38 46//46 55//55
f 46//46 47//47 56//56
f 53//53 58//57 45//45
f 57//58 45//45 58//57
f 48//48 36//36 29//30
f 59//59 48//48 39//39
f 48//48 59//59 60//60
f 39//39 31//31 61//61
f 31//31 32//32 61//61
f 38//38 62//62 32//32
f 60//60 43//42 40//40
f 40//40 48//48 60//60
f 36//36 48//48 40//40
f 34//33 41//41 63//63
f 65//64 41//41 50//50
f 35//34 50//50 41//41
f 64//65 41//41 65//64
f 67//66 42//43 51//51
f 66//67 67//66 51//51
f 50//50 42//43 68//68
f 52//52 63//63 44//44
f 44//44 69//69 53//53
f 44//44 63//63 69//69
f 52//52 24//25 49//49
f 52//52 27//28 24//25
f 54//54 45//45 57//58
f 46//46 56//56 55//55
f 55//55 56//56 70//70
f 57//58 58//57 71//71
f 62//62 61//61 32//32
f 59//59 39//39 61//61
f 38//38 72//72 62//62
f 55//55 72//72 38//38
f 49//49 34//33 63//63
f 63//63 52//52 49//49
f 43//42 60//60 73//73
f 51//51 43//42 73//73
f 63//63 41//41 64//65
f 65//64 74//74 64//65
f 75//75 66//67 51//51
f 51//51 73//73 75//75
f 67//66 68//68 42//43
f 47//47 54//54 76//76
f 70//70 90//77 55//55
f 77//78 78//79 70//70
f 78//79 90//77 70//70
f 56//56 47//47 76//76
f 80//80 56//56 76//76
f 56//56 80//80 77//78
f 81//81 57//58 71//71
f 58//57 82//82 71//71
f 73//73 60//60 59//59
f 79//83 72//72 55//55
f 74//74 63//63 64//65
f 74//74 65//64 83//84
f 83//84 65//64 50//50
f 69//69 74//74 82//82
f 69//69 63//63 74//74
f 83//84 50//50 84//85
f 50//50 68//68 84//85
f 59//59 75//75 73//73
f 85//86 66//67 75//75
f 86//87 67//66 66//67
f 66//67 85//86 87//88
f 87//88 88//89 66//67
f 68//68 67//66 89//90
f 58//57 53//53 69//69
f 76//76 54//54 57//58
f 90//77 79//83 55//55
f 77//78 70//70 56//56
f 80//80 76//76 91//91
f 81//81 71//71 82//82
f 76//76 57//58 81//81
f 76//76 81//81 92//92
f 61//61 62//62 93//93
f 62//62 72//72 93//93
f 83//84 94//94 74//74
f 74//74 96//95 95//96
f 82//82 74//74 95//96
f 83//84 84//85 97//97
f 107//98 94//94 83//84
f 59//59 98//99 75//75
f 86//87 89//90 67//66
f 66//67 88//89 86//87
f 88//89 87//88 99//100
f 69//69 82//82 58//57
f 92//92 100//101 76//76
f 100//101 91//91 76//76
f 101//102 78//79 77//78
f 78//79 101//102 102//103
f 78//79 102//103 90//77
f 103//104 79//83 90//77
f 104//105 77//78 80//80
f 80//80 91//91 129//106
f 104//105 80//80 129//106
f 82//82 95//96 81//81
f 93//93 72//72 105//107
f 72//72 79//83 109//108
f 72//72 109//108 105//107
f 61//61 98//99 59//59
f 93//93 98//99 61//61
f 94//94 106//109 74//74
f 97//97 107//98 83//84
f 108//110 84//85 68//68
f 75//75 109//108 85//86
f 98//99 105//107 75//75
f 105//107 109//108 75//75
f 93//93 105//107 98//99
f 109//108 87//88 85//86
f 108//110 68//68 89//90
f 110//111 89//90 86//87
f 111//112 86//87 88//89
f 99//100 112//113 88//89
f 88//89 112//113 111//112
f 77//78 104//105 101//102
f 101//102 113//114 102//103
f 90//77 102//103 114//115
f 109//108 79//83 103//104
f 115//116 91//91 100//101
f 91//91 115//116 116//117
f 129//106 91//91 116//117
f 104//105 129//106 117//118
f 104//105 117//118 101//102
f 81//81 95//96 92//92
f 100//101 92//92 118//119
f 118//119 92//92 95//96
f 96//95 74//74 106//109
f 94//94 119//120 106//109
f 95//96 96//95 118//119
f 120//121 107//98 97//97
f 97//97 84//85 121//122
f 120//121 97//97 121//122
f 121//122 84//85 108//110
f 107//98 119//120 94//94
f 109//108 103//104 87//88
f 114//115 87//88 103//104
f 99//100 87//88 114//115
f 122//123 108//110 123//124
f 123//124 108//110 89//90
f 89//90 110//111 123//124
f 86//87 124//125 110//111
f 125//126 123//124 110//111
f 111//112 124//125 86//87
f 99//100 126//127 112//113
f 126//127 99//100 114//115
f 100//101 118//119 115//116
f 101//102 127//128 113//114
f 90//77 114//115 103//104
f 116//117 115//116 128//129
f 101//102 117//118 127//128
f 128//129 129//106 116//117
f 128//129 115//116 106//109
f 106//109 119//120 128//129
f 106//109 115//116 96//95
f 96//95 115//116 118//119
f 120//121 130//130 107//98
f 131//131 132//132 120//121
f 120//121 132//132 130//130
f 131//131 120//121 133//133
f 120//121 134//134 133//133
f 108//110 122//123 121//122
f 107//98 135//135 119//120
f 107//98 130//130 135//135
f 110//111 136//136 125//126
f 110//111 124//125 136//136
f 124//125 111//112 137//137
f 138//138 112//113 126//127
f 126//127 114//115 139//139
f 126//127 139//139 140//140
f 112//113 138//138 111//112
f 137//137 111//112 138//138
f 127//128 117//118 141//141
f 139//139 114//115 102//103
f 113//114 142//142 102//103
f 143//143 129//106 128//129
f 143//143 117//118 129//106
f 131//131 144//144 132//132
f 120//121 121//122 145//145
f 145//145 121//122 122//123
f 128//129 119//120 135//135
f 122//123 123//124 147//146
f 147//146 145//145 122//123
f 136//136 124//125 149//147
f 124//125 137//137 149//147
f 126//127 150//148 138//138
f 138//138 150//148 151//149
f 138//138 151//149 152//150
f 150//148 126//127 153//151
f 139//139 154//152 140//140
f 155//153 126//127 140//140
f 137//137 138//138 152//150
f 102//103 156//154 139//139
f 157//155 102//103 142//142
f 113//114 127//128 142//142
f 141//141 117//118 158//156
f 159//157 117//118 143//143
f 132//132 135//135 130//130
f 166//158 135//135 132//132
f 160//159 131//131 133//133
f 133//133 161//160 160//159
f 161//160 133//133 162//161
f 133//133 134//134 146//162
f 145//145 134//134 120//121
f 164//163 134//134 145//145
f 146//162 134//134 164//163
f 165//164 146//162 164//163
f 166//158 128//129 135//135
f 125//126 147//146 123//124
f 148//165 177//166 125//126
f 147//146 125//126 177//166
f 148//165 125//126 136//136
f 148//165 136//136 167//167
f 136//136 149//147 168//168
f 169//169 136//136 168//168
f 167//167 136//136 169//169
f 153//151 126//127 155//153
f 151//149 150//148 170//170
f 154//152 171//171 140//140
f 140//140 171//171 155//153
f 172//172 152//150 151//149
f 141//141 173//173 127//128
f 174//174 173//173 141//141
f 173//173 142//142 127//128
f 154//152 139//139 156//154
f 157//155 156//154 102//103
f 157//155 142//142 201//175
f 166//158 143//143 128//129
f 158//156 117//118 159//157
f 143//143 166//158 175//176
f 143//143 175//176 159//157
f 163//177 144//144 131//131
f 163//177 131//131 160//159
f 146//162 162//161 133//133
f 176//178 164//163 145//145
f 176//178 145//145 147//146
f 166//158 188//179 175//176
f 177//166 193//180 147//146
f 177//166 148//165 178//181
f 148//165 167//167 178//181
f 179//182 149//147 180//183
f 168//168 149//147 179//182
f 172//172 180//183 149//147
f 149//147 137//137 172//172
f 181//184 150//148 153//151
f 171//171 154//152 182//185
f 154//152 156//154 182//185
f 155//153 171//171 183//186
f 172//172 137//137 152//150
f 184//187 172//172 151//149
f 180//183 172//172 184//187
f 141//141 158//156 185//188
f 174//174 141//141 185//188
f 182//185 156//154 157//155
f 142//142 173//173 201//175
f 159//157 202//189 158//156
f 186//190 159//157 175//176
f 187//191 188//179 132//132
f 188//179 166//158 132//132
f 132//132 144//144 187//191
f 189//192 160//159 161//160
f 190//193 161//160 162//161
f 191//194 161//160 190//193
f 162//161 192//195 190//193
f 187//191 144//144 163//177
f 162//161 146//162 165//164
f 193//180 164//163 176//178
f 193//180 176//178 147//146
f 210//196 165//164 164//163
f 188//179 195//197 175//176
f 193//180 177//166 196//198
f 196//198 177//166 197//199
f 177//166 178//181 197//199
f 167//167 198//200 178//181
f 198//200 167//167 169//169
f 168//168 199//201 169//169
f 199//201 168//168 179//182
f 181//184 200//202 170//170
f 170//170 150//148 181//184
f 184//187 151//149 170//170
f 181//184 153//151 155//153
f 155//153 183//186 181//184
f 171//171 182//185 201//175
f 201//175 183//186 171//171
f 185//188 158//156 202//189
f 185//188 203//203 174//174
f 204//204 173//173 174//174
f 224//205 205//206 174//174
f 203//203 224//205 174//174
f 201//175 182//185 157//155
f 206//207 201//175 173//173
f 202//189 159//157 186//190
f 175//176 195//197 186//190
f 207//208 187//191 163//177
f 160//159 189//192 163//177
f 163//177 189//192 208//209
f 207//208 163//177 208//209
f 191//194 190//193 209//210
f 192//195 162//161 165//164
f 193//180 210//196 164//163
f 210//196 193//180 211//211
f 194//212 165//164 210//196
f 194//212 192//195 165//164
f 207//208 212//213 195//197
f 188//179 207//208 195//197
f 196//198 211//211 193//180
f 197//199 213//214 196//198
f 178//181 214//215 197//199
f 199//201 232//216 169//169
f 198//200 169//169 232//216
f 216//217 199//201 179//182
f 217//218 179//182 180//183
f 179//182 217//218 216//217
f 181//184 218//219 200//202
f 170//170 219//220 184//187
f 219//220 170//170 200//202
f 183//186 201//175 220//221
f 217//218 180//183 184//187
f 217//218 184//187 219//220
f 221//222 185//188 202//189
f 185//188 221//222 222//223
f 222//223 203//203 185//188
f 223//224 224//205 203//203
f 174//174 205//206 204//204
f 186//190 221//222 202//189
f 207//208 188//179 187//191
f 225//225 207//208 208//209
f 191//194 189//192 161//160
f 209//210 190//193 226//226
f 190//193 192//195 226//226
f 226//226 192//195 194//212
f 228//227 226//226 194//212
f 194//212 227//228 228//227
f 186//190 195//197 212//213
f 207//208 229//229 212//213
f 221//222 186//190 212//213
f 196//198 213//214 230//230
f 230//230 211//211 196//198
f 197//199 214//215 213//214
f 213//214 244//231 231//232
f 213//214 231//232 230//230
f 214//215 178//181 215//233
f 178//181 198//200 215//233
f 217//218 233//234 216//217
f 232//216 199//201 216//217
f 218//219 181//184 183//186
f 200//202 234//235 219//220
f 220//221 201//175 206//207
f 235//236 220//221 206//207
f 223//224 203//203 222//223
f 206//207 173//173 204//204
f 204//204 205//206 236//237
f 206//207 204//204 236//237
f 235//236 206//207 237//238
f 237//238 206//207 236//237
f 229//229 207//208 225//225
f 238//239 229//229 225//225
f 239//240 191//194 209//210
f 189//192 191//194 239//240
f 226//226 240//241 209//210
f 227//228 210//196 211//211
f 211//211 241//242 227//228
f 227//228 194//212 210//196
f 211//211 230//230 241//242
f 226//226 228//227 242//243
f 212//213 229//229 243//244
f 243//244 229//229 238//239
f 222//223 221//222 212//213
f 243//244 222//223 212//213
f 244//231 213//214 214//215
f 214//215 215//233 245//245
f 215//233 198//200 246//246
f 246//246 245//245 215//233
f 247//247 246//246 198//200
f 232//216 247//247 198//200
f 247//247 232//216 248//248
f 216//217 233//234 232//216
f 232//216 233//234 248//248
f 183//186 249//249 218//219
f 249//249 183//186 220//221
f 219//220 250//250 217//218
f 234//235 200//202 218//219
f 220//221 235//236 251//251
f 222//223 252//252 223//224
f 243//244 252//252 222//223
f 224//205 223//224 253//253
f 236//237 224//205 253//253
f 236//237 254//254 237//238
f 236//237 205//206 224//205
f 225//225 208//209 255//255
f 255//255 238//239 225//225
f 256//256 238//239 255//255
f 255//255 208//209 239//240
f 189//192 239//240 208//209
f 257//257 239//240 209//210
f 258//258 240//241 226//226
f 258//258 226//226 259//259
f 240//241 257//257 209//210
f 240//241 258//258 260//260
f 241//242 230//230 227//228
f 228//227 227//228 261//261
f 261//261 227//228 230//230
f 259//259 226//226 242//243
f 242//243 228//227 261//261
f 262//262 243//244 238//239
f 244//231 230//230 231//232
f 230//230 244//231 261//261
f 263//263 244//231 245//245
f 244//231 214//215 245//245
f 245//245 246//246 264//264
f 248//248 233//234 265//265
f 265//265 266//266 248//248
f 247//247 264//264 246//246
f 247//247 248//248 264//264
f 249//249 220//221 251//251
f 234//235 218//219 249//249
f 250//250 219//220 234//235
f 234//235 267//267 250//250
f 234//235 249//249 267//267
f 233//234 217//218 250//250
f 268//268 243//244 262//262
f 243//244 268//268 252//252
f 269//269 252//252 268//268
f 253//253 223//224 252//252
f 237//238 270//270 235//236
f 271//271 251//251 235//236
f 270//270 271//271 235//236
f 237//238 254//254 270//270
f 270//270 254//254 272//272
f 238//239 256//256 262//262
f 257//257 255//255 239//240
f 259//259 242//243 273//273
f 261//261 274//274 242//243
f 274//274 261//261 263//263
f 242//243 274//274 273//273
f 245//245 264//264 274//274
f 275//275 264//264 277//276
f 264//264 275//275 274//274
f 265//265 233//234 278//277
f 248//248 266//266 276//278
f 276//278 264//264 248//248
f 276//278 277//276 264//264
f 250//250 267//267 278//277
f 233//234 250//250 278//277
f 251//251 271//271 279//279
f 269//269 281//280 252//252
f 253//253 252//252 281//280
f 272//272 236//237 253//253
f 254//254 236//237 272//272
f 253//253 280//281 272//272
f 281//280 280//281 253//253
f 282//282 271//271 270//270
f 256//256 268//268 262//262
f 258//258 283//283 260//260
f 283//283 269//269 260//260
f 258//258 259//259 284//284
f 259//259 285//285 284//284
f 259//259 273//273 285//285
f 260//260 256//256 240//241
f 257//257 240//241 256//256
f 269//269 268//268 260//260
f 260//260 268//268 256//256
f 255//255 257//257 256//256
f 263//263 261//261 244//231
f 286//286 273//273 274//274
f 286//286 274//274 287//287
f 263//263 245//245 274//274
f 274//274 275//275 287//287
f 265//265 288//288 266//266
f 266//266 288//288 276//278
f 277//276 276//278 289//289
f 249//249 251//251 279//279
f 267//267 249//249 279//279
f 267//267 265//265 278//277
f 289//289 279//279 271//271
f 281//280 269//269 290//290
f 291//291 280//281 281//280
f 292//292 282//282 270//270
f 272//272 292//292 270//270
f 293//293 272//272 280//281
f 293//293 292//292 272//272
f 258//258 284//284 290//290
f 285//285 294//294 284//284
f 290//290 283//283 258//258
f 295//295 285//285 273//273
f 295//295 273//273 286//286
f 287//287 275//275 299//296
f 275//275 298//297 299//296
f 277//276 296//298 275//275
f 296//298 277//276 289//289
f 265//265 267//267 288//288
f 289//289 271//271 296//298
f 288//288 279//279 289//289
f 267//267 279//279 288//288
f 288//288 289//289 276//278
f 290//290 269//269 283//283
f 293//293 280//281 291//291
f 297//299 281//280 290//290
f 298//297 292//292 293//293
f 298//297 293//293 299//296
f 285//285 290//290 294//294
f 284//284 294//294 290//290
f 295//295 300//300 285//285
f 287//287 301//301 286//286
f 295//295 286//286 301//301
f 299//296 301//301 287//287
f 275//275 296//298 298//297
f 296//298 292//292 298//297
f 292//292 296//298 271//271
f 291//291 281//280 300//300
f 285//285 297//299 290//290
f 271//271 282//282 292//292
f 293//293 291//291 299//296
f 300//300 297//299 285//285
f 291//291 300//300 295//295
f 300//300 281//280 297//299
f 291//291 301//301 299//296
f 301//301 291//291 295//295
