# Blender 4.0.2
# www.blender.org
mtllib toe_1_dist_r.mtl
o toe_1_dist_r.002
v 0.006504 0.003305 0.000307
v 0.014490 0.001763 0.003894
v 0.012390 0.001339 0.001364
v 0.002204 0.002969 0.007952
v 0.005909 0.002039 0.007075
v 0.008511 0.001542 -0.001866
v 0.012686 0.002092 0.004054
v -0.000453 0.004595 0.004046
v 0.003349 0.003678 -0.006411
v 0.003091 0.004677 -0.001892
v 0.014989 0.000112 0.001826
v 0.017256 0.002027 0.005611
v 0.012536 -0.001376 -0.000652
v 0.014055 -0.002221 -0.000043
v 0.000845 0.003189 0.007664
v 0.001211 0.002375 0.008312
v 0.001033 -0.001129 0.008798
v 0.005104 -0.002280 0.008663
v 0.013052 0.000692 0.007807
v 0.008501 -0.000009 0.007991
v 0.007119 -0.000419 -0.004311
v 0.008798 -0.000388 -0.002836
v 0.004776 -0.000681 -0.007125
v 0.002236 0.000124 0.000119
v 0.001812 0.004116 -0.004651
v 0.002261 0.001136 -0.007648
v 0.017705 -0.000186 0.001868
v 0.016988 -0.001641 0.001537
v 0.022109 0.000896 0.007671
v 0.016701 0.001034 0.007477
v 0.019513 -0.000277 0.001444
v 0.022680 0.000845 0.005618
v 0.012042 -0.002350 0.000061
v 0.008996 -0.002294 -0.002112
v 0.012054 -0.002703 0.007372
v 0.015701 -0.003017 0.000770
v 0.016164 -0.002545 0.000681
v 0.000761 -0.001934 0.007362
v 0.001059 -0.001983 0.006539
v 0.001678 -0.001824 0.004397
v 0.000677 -0.002573 0.008132
v 0.000592 -0.002615 0.007469
v 0.008852 -0.002182 0.007857
v 0.003051 -0.004034 0.008382
v 0.008876 -0.003024 0.007104
v 0.012226 -0.000788 0.008279
v 0.013872 -0.002546 0.008285
v 0.006925 -0.001865 -0.004181
v 0.005793 -0.001964 -0.006230
v 0.004393 -0.001750 -0.007207
v 0.002173 -0.002094 -0.000005
v 0.001889 -0.001799 0.002515
v 0.001925 -0.001736 0.001271
v 0.002038 -0.003086 -0.002539
v 0.001603 -0.002135 -0.004661
v 0.001865 -0.001563 -0.006887
v 0.002576 -0.001418 -0.007797
v 0.017669 -0.002143 0.000889
v 0.018024 -0.002272 0.000453
v 0.019008 -0.002023 0.000546
v 0.016960 -0.002277 0.000947
v 0.018776 -0.001100 0.009869
v 0.023443 -0.000696 0.008448
v 0.024425 -0.000805 0.005900
v 0.021880 -0.002238 0.002106
v 0.024316 -0.000966 0.004843
v 0.006861 -0.003063 -0.000958
v 0.017986 -0.002952 0.001227
v 0.019829 -0.002784 0.001321
v 0.021663 -0.002956 0.003900
v 0.017187 -0.002939 0.000847
v 0.001648 -0.002547 0.006741
v 0.002515 -0.002135 0.004778
v 0.002403 -0.002227 0.005434
v 0.002350 -0.002150 0.003090
v 0.001482 -0.003155 0.006835
v 0.001504 -0.004087 0.007823
v 0.001688 -0.004447 0.006978
v 0.003181 -0.005125 0.006804
v 0.002983 -0.005175 0.002161
v 0.002421 -0.004730 -0.004745
v 0.002599 -0.003306 -0.006973
v 0.002232 -0.002902 0.003006
v 0.001660 -0.002298 0.001410
v 0.001830 -0.003252 -0.000380
v 0.001490 -0.003994 -0.002651
v 0.000926 -0.004405 0.000925
v 0.001503 -0.004184 -0.004263
v 0.001062 -0.002407 -0.005547
v 0.022295 -0.002107 0.008265
v 0.024092 -0.001669 0.005498
v 0.001818 -0.003798 0.004693
v 0.001543 -0.003969 0.002581
v 0.002206 -0.004995 0.006184
v 0.002060 -0.004712 0.004550
v 0.001296 -0.005027 0.001911
v 0.001190 -0.005105 0.000735
v 0.002146 -0.005072 0.003307
v 0.002110 -0.004878 -0.003021
v 0.001746 -0.004281 -0.005053
v 0.000989 -0.004359 0.001821
v 0.001279 -0.003159 0.001317
v 0.001763 -0.004722 -0.002506
vn 0.3336 0.9421 -0.0353
vn 0.2515 0.8696 -0.4250
vn 0.4355 0.7079 -0.5560
vn 0.2085 0.6879 0.6952
vn 0.1771 0.7524 0.6345
vn 0.5492 0.6547 -0.5193
vn 0.0962 0.9951 0.0224
vn -0.7999 0.5738 0.1756
vn 0.1425 0.7277 -0.6709
vn 0.1546 0.9857 -0.0674
vn 0.3006 0.6401 -0.7071
vn 0.0949 0.9955 0.0046
vn 0.5013 -0.0071 -0.8652
vn 0.2249 -0.4262 -0.8762
vn -0.6285 0.5294 0.5698
vn -0.5434 0.1604 0.8240
vn -0.5765 -0.0074 0.8171
vn 0.1468 -0.1181 0.9821
vn 0.0710 0.5149 0.8543
vn 0.0018 0.2162 0.9763
vn 0.7470 0.1003 -0.6572
vn 0.6036 0.1330 -0.7861
vn 0.5207 0.1167 -0.8457
vn -0.9907 -0.1254 -0.0529
vn -0.6872 0.6698 -0.2813
vn -0.4467 0.2429 -0.8611
vn -0.0811 0.6650 -0.7424
vn -0.0657 0.4735 -0.8783
vn 0.3345 0.8331 0.4405
vn -0.0926 0.7373 0.6692
vn 0.2028 0.6449 -0.7368
vn 0.4775 0.8594 -0.1827
vn 0.1835 -0.9157 -0.3574
vn 0.3744 -0.7080 -0.5989
vn -0.0781 -0.8674 0.4915
vn -0.0055 -0.8663 -0.4995
vn 0.2267 0.1098 -0.9677
vn -0.9579 0.0543 -0.2819
vn -0.8583 -0.3883 -0.3355
vn -0.8234 -0.5513 -0.1345
vn -0.7955 -0.2805 0.5372
vn -0.8919 -0.3598 -0.2741
vn 0.1364 -0.4182 0.8980
vn -0.0365 -0.5353 0.8439
vn 0.2124 -0.8821 0.4204
vn -0.0067 0.0032 1.0000
vn -0.0778 -0.6147 0.7849
vn 0.6651 -0.5535 -0.5014
vn 0.6825 -0.4616 -0.5667
vn 0.3852 -0.2858 -0.8775
vn -0.8456 0.4956 -0.1985
vn -0.9824 -0.1869 -0.0055
vn -0.9789 0.1986 -0.0484
vn -0.9448 0.3016 0.1280
vn -0.9618 0.1879 0.1990
vn -0.8916 -0.0631 -0.4483
vn -0.2499 -0.1538 -0.9560
vn -0.4679 0.1508 -0.8708
vn -0.3297 -0.1723 -0.9282
vn 0.2094 0.0074 -0.9778
vn -0.0024 0.4707 -0.8823
vn -0.0227 -0.1431 0.9894
vn 0.7139 0.0939 0.6939
vn 0.9747 0.1804 0.1316
vn 0.6471 -0.3145 -0.6945
vn 0.8927 0.1236 -0.4333
vn 0.3266 -0.9278 -0.1802
vn 0.0707 -0.9346 -0.3487
vn 0.2493 -0.8215 -0.5128
vn 0.2797 -0.9590 -0.0451
vn 0.1703 -0.6011 -0.7808
vn -0.7562 -0.2424 -0.6078
vn -0.9060 -0.4151 -0.0829
vn -0.8834 -0.3453 -0.3168
vn -0.8944 -0.3668 0.2561
vn -0.8916 -0.0578 -0.4491
vn -0.5517 -0.6772 0.4869
vn -0.7297 -0.6702 0.1357
vn 0.0262 -0.9556 0.2934
vn 0.1680 -0.9856 -0.0193
vn 0.0369 -0.9447 -0.3259
vn -0.1412 -0.6560 -0.7414
vn -0.9260 0.3398 0.1647
vn -0.8979 0.4234 0.1202
vn -0.9184 0.3813 -0.1055
vn -0.9988 0.0483 0.0080
vn -0.9920 0.1249 -0.0193
vn -0.9056 -0.4203 -0.0559
vn -0.9774 0.1805 -0.1100
vn 0.2826 -0.8013 0.5273
vn 0.7404 -0.6720 0.0141
vn -0.9976 0.0549 -0.0434
vn -0.9197 0.1203 0.3737
vn -0.4132 -0.9103 0.0228
vn -0.7487 -0.6628 -0.0125
vn -0.6267 -0.7240 0.2882
vn -0.6031 -0.7952 -0.0621
vn -0.3707 -0.8831 0.2876
vn -0.2692 -0.9555 -0.1206
vn -0.6416 -0.6675 -0.3779
vn -0.9533 -0.0099 0.3019
vn -0.9503 0.3114 0.0014
vn -0.7838 -0.6008 -0.1572
s 1
usemtl Default_OBJ.127
f 1//1 2//2 3//3
f 1//1 4//4 5//5
f 1//1 3//3 6//6
f 1//1 7//7 2//2
f 7//7 1//1 5//5
f 8//8 4//4 1//1
f 9//9 10//10 1//1
f 6//6 9//9 1//1
f 10//10 8//8 1//1
f 2//2 11//11 3//3
f 12//12 11//11 2//2
f 7//7 12//12 2//2
f 6//6 3//3 13//13
f 11//11 14//14 3//3
f 14//14 13//13 3//3
f 15//15 4//4 8//8
f 16//16 4//4 15//15
f 4//4 16//16 17//17
f 5//5 4//4 18//18
f 4//4 17//17 18//18
f 5//5 19//19 12//12
f 12//12 7//7 5//5
f 20//20 19//19 5//5
f 20//20 5//5 18//18
f 21//21 6//6 22//22
f 9//9 6//6 23//23
f 23//23 6//6 21//21
f 13//13 22//22 6//6
f 8//8 24//24 16//16
f 8//8 10//10 25//25
f 16//16 15//15 8//8
f 24//24 8//8 25//25
f 10//10 9//9 25//25
f 26//26 25//25 9//9
f 9//9 23//23 26//26
f 12//12 27//27 11//11
f 11//11 27//27 28//28
f 28//28 14//14 11//11
f 29//29 12//12 30//30
f 31//31 27//27 12//12
f 31//31 12//12 32//32
f 30//30 12//12 19//19
f 32//32 12//12 29//29
f 33//33 13//13 14//14
f 22//22 13//13 34//34
f 33//33 34//34 13//13
f 14//14 35//35 33//33
f 36//36 35//35 14//14
f 37//37 36//36 14//14
f 28//28 37//37 14//14
f 17//17 16//16 38//38
f 38//38 16//16 39//39
f 40//40 39//39 16//16
f 24//24 40//40 16//16
f 41//41 18//18 17//17
f 38//38 42//42 17//17
f 41//41 17//17 42//42
f 18//18 43//43 20//20
f 44//44 45//45 18//18
f 43//43 18//18 45//45
f 41//41 44//44 18//18
f 19//19 20//20 46//46
f 30//30 19//19 47//47
f 46//46 47//47 19//19
f 20//20 43//43 46//46
f 21//21 22//22 34//34
f 48//48 21//21 34//34
f 23//23 21//21 49//49
f 21//21 48//48 49//49
f 49//49 50//50 23//23
f 26//26 23//23 50//50
f 51//51 24//24 25//25
f 24//24 52//52 40//40
f 52//52 24//24 53//53
f 51//51 53//53 24//24
f 54//54 25//25 55//55
f 55//55 25//25 56//56
f 25//25 26//26 56//56
f 51//51 25//25 54//54
f 26//26 57//57 56//56
f 57//57 26//26 50//50
f 58//58 27//27 59//59
f 59//59 27//27 60//60
f 27//27 31//31 60//60
f 28//28 27//27 58//58
f 61//61 37//37 28//28
f 28//28 58//58 61//61
f 29//29 62//62 63//63
f 29//29 30//30 62//62
f 29//29 63//63 64//64
f 29//29 64//64 32//32
f 62//62 30//30 47//47
f 60//60 31//31 65//65
f 32//32 66//66 31//31
f 66//66 65//65 31//31
f 66//66 32//32 64//64
f 33//33 67//67 34//34
f 35//35 67//67 33//33
f 48//48 34//34 67//67
f 47//47 46//46 35//35
f 45//45 67//67 35//35
f 35//35 68//68 69//69
f 35//35 69//69 70//70
f 35//35 36//36 68//68
f 47//47 35//35 70//70
f 46//46 45//45 35//35
f 71//71 36//36 37//37
f 71//71 68//68 36//36
f 71//71 37//37 61//61
f 38//38 72//72 42//42
f 72//72 38//38 39//39
f 73//73 39//39 40//40
f 39//39 74//74 72//72
f 74//74 39//39 73//73
f 40//40 75//75 73//73
f 52//52 75//75 40//40
f 42//42 76//76 41//41
f 77//77 44//44 41//41
f 78//78 77//77 41//41
f 78//78 41//41 76//76
f 72//72 76//76 42//42
f 46//46 43//43 45//45
f 44//44 79//79 45//45
f 77//77 78//78 44//44
f 78//78 79//79 44//44
f 45//45 79//79 80//80
f 80//80 67//67 45//45
f 47//47 70//70 62//62
f 67//67 81//81 48//48
f 49//49 48//48 82//82
f 48//48 81//81 82//82
f 49//49 82//82 50//50
f 50//50 82//82 57//57
f 54//54 53//53 51//51
f 83//83 52//52 53//53
f 52//52 83//83 75//75
f 84//84 83//83 53//53
f 85//85 53//53 54//54
f 85//85 84//84 53//53
f 54//54 55//55 86//86
f 86//86 87//87 54//54
f 87//87 85//85 54//54
f 86//86 55//55 88//88
f 55//55 89//89 88//88
f 55//55 56//56 89//89
f 57//57 82//82 56//56
f 56//56 82//82 89//89
f 58//58 71//71 61//61
f 68//68 58//58 59//59
f 71//71 58//58 68//68
f 59//59 60//60 69//69
f 68//68 59//59 69//69
f 60//60 65//65 69//69
f 62//62 70//70 90//90
f 90//90 63//63 62//62
f 64//64 63//63 91//91
f 90//90 91//91 63//63
f 64//64 91//91 66//66
f 65//65 66//66 91//91
f 69//69 65//65 70//70
f 91//91 70//70 65//65
f 81//81 67//67 80//80
f 70//70 91//91 90//90
f 74//74 76//76 72//72
f 92//92 74//74 73//73
f 83//83 73//73 75//75
f 93//93 92//92 73//73
f 93//93 73//73 83//83
f 92//92 76//76 74//74
f 76//76 92//92 78//78
f 94//94 78//78 95//95
f 95//95 78//78 92//92
f 78//78 94//94 79//79
f 95//95 79//79 94//94
f 79//79 95//95 80//80
f 80//80 96//96 97//97
f 95//95 98//98 80//80
f 98//98 96//96 80//80
f 97//97 99//99 80//80
f 99//99 81//81 80//80
f 99//99 100//100 81//81
f 82//82 81//81 100//100
f 89//89 82//82 100//100
f 101//101 93//93 83//83
f 83//83 102//102 101//101
f 102//102 83//83 84//84
f 102//102 84//84 85//85
f 101//101 85//85 87//87
f 102//102 85//85 101//101
f 87//87 86//86 103//103
f 88//88 103//103 86//86
f 101//101 87//87 97//97
f 87//87 103//103 97//97
f 88//88 89//89 100//100
f 103//103 88//88 99//99
f 88//88 100//100 99//99
f 98//98 95//95 92//92
f 93//93 98//98 92//92
f 96//96 98//98 93//93
f 93//93 101//101 96//96
f 101//101 97//97 96//96
f 97//97 103//103 99//99
