# Blender 4.0.2
# www.blender.org
mtllib toe_2_dist_l.mtl
o toe_2_dist_l.002
v 0.003517 0.000286 0.001206
v 0.004701 0.000096 0.000790
v 0.003320 0.001492 0.000523
v 0.005642 0.001182 -0.000459
v 0.002701 0.001819 0.000874
v 0.004830 0.001567 -0.001252
v 0.001787 0.002320 0.000541
v 0.003106 0.000034 0.001368
v 0.006430 0.000861 0.000632
v 0.002590 -0.000420 0.001231
v 0.004053 -0.000279 0.000840
v 0.006054 0.000577 0.000810
v 0.005020 -0.000229 0.001070
v 0.005836 0.000224 0.001100
v 0.002116 -0.000787 -0.001983
v 0.005037 -0.000389 0.000302
v 0.004714 -0.000175 -0.001536
v 0.002494 0.001561 0.001707
v 0.002923 0.000518 0.001500
v 0.006972 0.001151 0.000142
v 0.006929 0.001240 -0.001354
v 0.001995 0.002250 0.002004
v 0.002953 0.001354 -0.002067
v 0.003819 -0.000290 -0.003183
v 0.000810 0.001726 -0.002451
v 0.006066 0.001052 -0.003474
v 0.005321 0.000776 -0.003898
v 0.006386 0.001190 -0.002922
v -0.000100 0.002159 -0.001161
v 0.000126 0.002175 0.000038
v 0.001313 0.000255 0.002788
v 0.000647 -0.000741 0.001706
v 0.006818 0.000517 0.000332
v -0.000068 -0.001079 -0.001958
v 0.000219 -0.000630 -0.002821
v 0.003606 -0.000602 -0.002711
v 0.002974 -0.000553 -0.002413
v 0.001112 -0.000320 -0.002669
v 0.002212 0.000285 -0.002536
v 0.005139 0.000369 -0.004191
v 0.006776 0.000958 -0.002102
v 0.001453 0.002225 0.002306
v 0.001421 0.001606 0.002936
v 0.004224 -0.000498 -0.003520
v -0.000001 0.001652 -0.002733
v 0.000125 0.001013 -0.003229
v 0.006081 0.000518 -0.003297
v 0.001044 0.000961 0.002773
v 0.000608 -0.000191 0.002157
v -0.000061 -0.000975 0.000106
v -0.000447 0.000300 -0.003001
v -0.000496 -0.000516 -0.002243
v -0.000360 -0.000918 -0.001330
v -0.000268 -0.000718 -0.000294
vn 0.4397 0.2222 0.8702
vn -0.2404 -0.1398 0.9606
vn 0.4804 0.6883 0.5436
vn 0.0670 0.9272 0.3684
vn 0.6326 0.7467 0.2057
vn 0.1006 0.9885 -0.1126
vn 0.1505 0.9885 -0.0158
vn 0.4243 -0.3544 0.8333
vn 0.2956 0.5254 0.7979
vn -0.2731 0.3539 -0.8945
vn 0.2990 -0.8843 0.3587
vn -0.2359 0.7163 0.6567
vn -0.2575 -0.5492 0.7951
vn 0.2583 -0.1236 0.9581
vn 0.1456 -0.9176 -0.3700
vn -0.1643 -0.9854 0.0442
vn 0.3015 -0.9527 -0.0382
vn 0.7358 0.2900 0.6120
vn 0.5310 0.0172 0.8472
vn 0.7295 0.5863 0.3522
vn 0.8468 0.5310 -0.0324
vn 0.5002 0.7577 0.4192
vn 0.1791 0.5653 -0.8052
vn -0.1552 -0.3227 -0.9337
vn 0.2294 0.7399 -0.6324
vn 0.4864 0.5246 -0.6988
vn -0.0220 0.6794 -0.7335
vn 0.6524 0.6124 -0.4465
vn -0.8727 0.4844 -0.0608
vn -0.7731 0.6187 0.1395
vn 0.0950 -0.3741 0.9225
vn -0.2915 -0.8399 0.4578
vn 0.7929 -0.4868 0.3665
vn -0.2913 -0.9267 -0.2374
vn -0.0955 -0.6187 -0.7798
vn 0.1032 -0.9376 -0.3322
vn -0.4288 -0.3275 -0.8419
vn 0.3072 -0.2726 -0.9118
vn -0.0135 0.0016 -0.9999
vn -0.1325 -0.1945 -0.9719
vn 0.9391 -0.2094 -0.2723
vn -0.2258 0.8437 0.4871
vn 0.0727 0.3149 0.9463
vn -0.6228 0.0534 -0.7806
vn -0.5508 0.7077 -0.4424
vn -0.0290 0.2616 -0.9647
vn 0.6239 -0.6576 -0.4223
vn -0.6729 0.0784 0.7355
vn -0.7400 -0.2913 0.6063
vn -0.5126 -0.8173 0.2630
vn -0.8138 -0.0350 -0.5801
vn -0.9390 -0.2750 -0.2065
vn -0.8083 -0.5865 0.0514
vn -0.9747 0.0812 0.2081
s 1
f 1//1 2//2 3//3
f 2//2 4//4 3//3
f 3//3 5//5 1//1
f 6//6 3//3 4//4
f 3//3 6//6 7//7
f 7//7 5//5 3//3
f 1//1 8//8 2//2
f 2//2 9//9 4//4
f 2//2 11//10 10//11
f 10//11 2//2 8//8
f 12//12 9//9 2//2
f 2//2 13//13 14//14
f 2//2 14//14 12//12
f 15//15 2//2 10//11
f 16//16 13//13 2//2
f 16//16 2//2 17//17
f 2//2 15//15 17//17
f 5//5 18//18 1//1
f 1//1 18//18 19//19
f 1//1 19//19 8//8
f 4//4 20//20 21//21
f 4//4 9//9 20//20
f 4//4 21//21 6//6
f 22//22 18//18 5//5
f 7//7 22//22 5//5
f 23//23 6//6 24//24
f 25//25 7//7 6//6
f 6//6 23//23 25//25
f 6//6 26//26 27//27
f 6//6 28//28 26//26
f 28//28 6//6 21//21
f 24//24 6//6 27//27
f 25//25 29//29 7//7
f 7//7 29//29 30//30
f 22//22 7//7 30//30
f 31//31 8//8 19//19
f 10//11 8//8 31//31
f 9//9 12//12 14//14
f 14//14 20//20 9//9
f 10//11 32//32 15//15
f 31//31 32//32 10//11
f 13//13 33//33 14//14
f 14//14 33//33 20//20
f 16//16 33//33 13//13
f 34//34 35//35 15//15
f 34//34 15//15 32//32
f 36//36 15//15 37//37
f 36//36 17//17 15//15
f 15//15 38//38 39//39
f 38//38 15//15 35//35
f 39//39 37//37 15//15
f 33//33 16//16 17//17
f 33//33 17//17 40//40
f 40//40 17//17 24//24
f 24//24 17//17 36//36
f 22//22 19//19 18//18
f 19//19 22//22 31//31
f 41//41 21//21 20//20
f 28//28 21//21 41//41
f 33//33 41//41 20//20
f 22//22 42//42 43//43
f 31//31 22//22 43//43
f 30//30 42//42 22//22
f 40//40 24//24 27//27
f 40//40 44//44 24//24
f 23//23 24//24 39//39
f 37//37 39//39 24//24
f 36//36 37//37 24//24
f 23//23 39//39 25//25
f 29//29 25//25 45//45
f 25//25 46//46 45//45
f 38//38 46//46 25//25
f 38//38 25//25 39//39
f 27//27 47//47 40//40
f 47//47 27//27 26//26
f 26//26 28//28 41//41
f 47//47 26//26 41//41
f 30//30 29//29 45//45
f 43//43 30//30 48//48
f 43//43 42//42 30//30
f 49//49 30//30 45//45
f 49//49 48//48 30//30
f 48//48 31//31 43//43
f 31//31 49//49 32//32
f 31//31 48//48 49//49
f 49//49 50//50 32//32
f 50//50 34//34 32//32
f 47//47 41//41 33//33
f 47//47 33//33 40//40
f 46//46 38//38 35//35
f 46//46 35//35 51//51
f 52//52 51//51 35//35
f 52//52 35//35 34//34
f 50//50 53//53 34//34
f 53//53 52//52 34//34
f 51//51 52//52 45//45
f 51//51 45//45 46//46
f 52//52 49//49 45//45
f 50//50 49//49 54//54
f 49//49 52//52 54//54
f 54//54 53//53 50//50
f 53//53 54//54 52//52
