# Blender 4.0.2
# www.blender.org
mtllib toe_1_prox_r.mtl
o toe_1_prox_r.002
v 0.041361 0.006391 0.005296
v 0.043464 0.004544 0.005604
v 0.039268 0.005547 0.003412
v 0.036943 0.007166 0.005297
v 0.040036 0.007198 0.007610
v 0.043158 0.001469 0.011355
v 0.043931 0.000693 0.005740
v 0.042211 -0.000400 0.003064
v 0.042382 0.001883 0.015880
v 0.038717 -0.000699 0.001137
v 0.037375 0.000903 0.001325
v 0.036880 0.004668 0.003284
v 0.037410 0.006289 0.004279
v 0.021312 0.010113 0.011873
v 0.035507 0.006437 0.002459
v 0.042435 -0.002029 0.006226
v 0.040219 -0.001709 0.010235
v 0.041286 -0.003417 0.012752
v 0.041179 -0.002896 0.015988
v 0.041599 -0.002311 0.003873
v 0.038846 -0.002622 0.002281
v 0.038357 0.000834 0.017326
v 0.037602 -0.002222 0.001839
v 0.035718 0.002277 0.003444
v 0.018518 0.010867 0.011828
v 0.020963 0.005772 0.012709
v 0.032929 0.001918 0.016210
v 0.024195 0.008729 0.001757
v 0.019609 0.012043 0.005284
v 0.018817 0.011620 0.010396
v 0.024432 0.005735 0.001005
v 0.040159 -0.003257 0.004620
v 0.038361 -0.005054 0.012193
v 0.038090 -0.002044 0.009811
v 0.040724 -0.004070 0.015276
v 0.038788 -0.004486 0.016187
v 0.037719 -0.002782 0.003593
v 0.034241 -0.003323 0.016188
v 0.036017 -0.004623 0.016122
v 0.035673 0.000092 0.007959
v 0.024485 0.003881 0.001897
v 0.016004 0.010949 0.011314
v 0.013094 0.005866 0.013766
v 0.028251 0.001364 0.013846
v 0.017345 0.001184 0.011860
v 0.032475 -0.000480 0.014960
v 0.016982 0.004911 -0.003425
v 0.017223 0.010247 -0.001176
v 0.015354 0.012928 0.001969
v 0.014692 0.012511 0.009807
v 0.037574 -0.005535 0.014954
v 0.035921 -0.005263 0.014933
v 0.035592 -0.004467 0.012314
v 0.036364 -0.000969 0.009754
v 0.033601 -0.003826 0.014862
v 0.014473 0.000990 0.010404
v 0.015002 0.002385 -0.004735
v 0.010318 -0.001305 -0.003328
v 0.011260 0.012116 0.014052
v 0.012315 0.000561 0.012950
v 0.004218 0.010937 0.014553
v 0.014344 0.004261 -0.007649
v 0.012021 0.014254 -0.005170
v 0.014629 0.009709 -0.006478
v 0.014017 0.014906 0.003901
v 0.012148 0.016777 -0.000823
v 0.012441 0.014286 0.010157
v 0.009641 -0.001745 -0.000351
v 0.006660 -0.002878 0.009973
v 0.008855 -0.001854 0.003614
v 0.010615 0.000647 -0.008289
v 0.008374 -0.000977 -0.006023
v 0.009174 -0.000664 -0.003074
v 0.007330 0.014603 0.012369
v 0.003271 0.006616 0.014393
v 0.006077 -0.001952 0.011388
v 0.001737 0.003343 0.011186
v 0.005055 0.013479 0.011738
v 0.011896 0.010010 -0.007654
v 0.009681 0.015292 -0.003199
v 0.008720 0.016472 0.001771
v 0.007556 -0.001402 -0.000857
v 0.004550 -0.001887 0.011315
v 0.007427 -0.001418 0.001372
v 0.005642 -0.002348 0.008760
v 0.004922 0.000541 -0.006718
v 0.006079 -0.001476 -0.004201
v 0.003169 -0.001277 0.012019
v 0.001272 -0.000393 0.010035
v 0.001437 0.000319 0.007896
v 0.002303 0.001144 0.008102
v 0.005502 -0.003606 0.004582
v 0.002267 -0.003518 0.005248
v 0.000462 -0.000914 -0.001395
v 0.002416 -0.002981 0.009484
v 0.004281 -0.003892 0.007542
v 0.001846 -0.002612 0.008951
v 0.001357 -0.001202 0.007564
v 0.000978 -0.001215 0.006802
v 0.000161 -0.001331 0.002925
v 0.003384 -0.003324 0.006902
v 0.001446 -0.003022 0.006728
vn 0.4960 0.7826 -0.3762
vn 0.8404 0.4569 -0.2914
vn 0.1969 0.5639 -0.8020
vn 0.1590 0.9164 -0.3674
vn 0.3770 0.9167 0.1326
vn 0.9809 -0.1537 0.1189
vn 0.9714 -0.1641 -0.1718
vn 0.6832 -0.1368 -0.7173
vn 0.7033 0.3222 0.6337
vn 0.1697 -0.1200 -0.9782
vn -0.3560 0.0895 -0.9302
vn 0.3887 0.4984 -0.7749
vn -0.2147 0.6572 -0.7225
vn 0.1933 0.7231 0.6632
vn 0.3373 0.5234 -0.7825
vn 0.6804 -0.7274 0.0886
vn 0.5214 -0.8257 -0.2152
vn 0.7494 -0.6077 -0.2629
vn 0.6915 -0.3411 0.6368
vn 0.6087 -0.6725 -0.4210
vn 0.1565 -0.7890 -0.5941
vn 0.0839 0.2018 0.9758
vn -0.5005 -0.5985 -0.6256
vn -0.5910 -0.4905 -0.6404
vn 0.0519 0.6407 0.7660
vn -0.0824 0.0468 0.9955
vn -0.2910 0.0231 0.9565
vn 0.3779 0.7252 -0.5756
vn 0.4019 0.9137 -0.0600
vn 0.2319 0.9207 0.3138
vn 0.3273 -0.0662 -0.9426
vn 0.1615 -0.9853 -0.0566
vn 0.1636 -0.8675 -0.4698
vn -0.2037 -0.8837 -0.4213
vn 0.6434 -0.7149 0.2737
vn 0.2146 -0.5902 0.7782
vn -0.5347 -0.8406 -0.0865
vn -0.4875 -0.3783 0.7869
vn -0.2232 -0.5963 0.7711
vn -0.5298 -0.8252 -0.1957
vn 0.2073 -0.7902 -0.5768
vn 0.1510 0.6330 0.7593
vn 0.1427 -0.0426 0.9889
vn -0.3410 -0.8167 0.4656
vn 0.0499 -0.7626 0.6450
vn -0.7558 -0.5766 0.3103
vn 0.6863 0.0532 -0.7254
vn 0.6337 0.5776 -0.5146
vn 0.6519 0.7411 -0.1606
vn 0.4396 0.8266 0.3515
vn 0.0835 -0.9769 0.1969
vn -0.3466 -0.9284 0.1341
vn -0.5080 -0.6670 -0.5450
vn -0.5060 -0.7254 -0.4667
vn -0.8192 -0.5732 0.0177
vn 0.2559 -0.9667 -0.0057
vn 0.6265 -0.5931 -0.5057
vn 0.0962 -0.9833 -0.1548
vn 0.2948 0.4267 0.8550
vn 0.2225 -0.6247 0.7485
vn -0.5841 0.3302 0.7414
vn 0.5930 -0.1561 -0.7899
vn 0.1999 0.6918 -0.6939
vn 0.6846 0.2983 -0.6650
vn 0.6117 0.7819 0.1205
vn 0.3456 0.9191 -0.1891
vn 0.4080 0.8423 0.3523
vn 0.1633 -0.9812 -0.1025
vn 0.0181 -0.9843 0.1755
vn 0.1881 -0.9810 -0.0473
vn 0.1738 -0.5007 -0.8480
vn 0.0131 -0.9178 -0.3968
vn -0.1636 -0.9840 -0.0700
vn -0.1406 0.8616 0.4877
vn -0.5582 -0.0087 0.8296
vn 0.0262 -0.6655 0.7459
vn -0.9827 0.1762 0.0567
vn -0.7703 0.6294 0.1026
vn -0.0704 0.3463 -0.9355
vn -0.5586 0.6700 -0.4889
vn -0.5124 0.8563 -0.0642
vn 0.0301 -0.9855 -0.1669
vn -0.0429 -0.8797 0.4736
vn 0.3061 -0.9520 -0.0053
vn 0.0588 -0.9915 0.1164
vn -0.6650 -0.1892 -0.7225
vn -0.0791 -0.9660 -0.2462
vn -0.3365 -0.4888 0.8049
vn -0.9420 -0.1538 0.2984
vn -0.8142 0.4296 -0.3905
vn -0.7641 0.5429 -0.3483
vn 0.3926 -0.9150 -0.0925
vn -0.3023 -0.9495 -0.0845
vn -0.8758 -0.1001 -0.4723
vn -0.3863 -0.8391 0.3830
vn 0.0821 -0.9824 0.1676
vn -0.7702 -0.5993 0.2182
vn -0.9588 -0.1281 0.2535
vn -0.9612 0.0363 0.2733
vn -0.9965 -0.0786 -0.0275
vn -0.2810 -0.9596 0.0165
vn -0.6755 -0.7099 0.1993
s 1
usemtl Default_OBJ.128
f 1//1 2//2 3//3
f 4//4 1//1 3//3
f 2//2 1//1 5//5
f 5//5 1//1 4//4
f 2//2 6//6 7//7
f 8//8 3//3 2//2
f 9//9 2//2 5//5
f 6//6 2//2 9//9
f 8//8 2//2 7//7
f 8//8 10//10 3//3
f 10//10 11//11 3//3
f 12//12 3//3 11//11
f 3//3 13//13 4//4
f 13//13 3//3 12//12
f 14//14 4//4 15//15
f 12//12 4//4 13//13
f 14//14 5//5 4//4
f 4//4 12//12 15//15
f 9//9 5//5 14//14
f 16//16 6//6 17//17
f 7//7 6//6 16//16
f 18//18 17//17 6//6
f 18//18 6//6 19//19
f 6//6 9//9 19//19
f 20//20 7//7 16//16
f 20//20 8//8 7//7
f 8//8 20//20 21//21
f 21//21 10//10 8//8
f 19//19 9//9 22//22
f 14//14 22//22 9//9
f 11//11 10//10 23//23
f 10//10 21//21 23//23
f 24//24 11//11 23//23
f 11//11 24//24 15//15
f 11//11 15//15 12//12
f 25//25 26//26 14//14
f 27//27 22//22 14//14
f 28//28 14//14 15//15
f 29//29 14//14 28//28
f 30//30 14//14 29//29
f 14//14 30//30 25//25
f 26//26 27//27 14//14
f 28//28 15//15 31//31
f 24//24 31//31 15//15
f 32//32 16//16 17//17
f 20//20 16//16 32//32
f 17//17 33//33 34//34
f 18//18 33//33 17//17
f 17//17 34//34 32//32
f 18//18 35//35 33//33
f 35//35 18//18 19//19
f 36//36 19//19 22//22
f 36//36 35//35 19//19
f 21//21 20//20 32//32
f 32//32 37//37 21//21
f 23//23 21//21 37//37
f 22//22 38//38 39//39
f 39//39 36//36 22//22
f 22//22 27//27 38//38
f 40//40 23//23 37//37
f 24//24 23//23 40//40
f 41//41 24//24 40//40
f 41//41 31//31 24//24
f 30//30 42//42 25//25
f 25//25 42//42 43//43
f 43//43 26//26 25//25
f 26//26 44//44 27//27
f 45//45 44//44 26//26
f 43//43 45//45 26//26
f 44//44 46//46 27//27
f 46//46 38//38 27//27
f 28//28 47//47 48//48
f 28//28 48//48 29//29
f 31//31 47//47 28//28
f 49//49 29//29 48//48
f 50//50 29//29 49//49
f 50//50 30//30 29//29
f 30//30 50//50 42//42
f 47//47 31//31 41//41
f 34//34 37//37 32//32
f 33//33 35//35 51//51
f 51//51 52//52 33//33
f 52//52 53//53 33//33
f 53//53 34//34 33//33
f 40//40 37//37 34//34
f 34//34 53//53 54//54
f 40//40 34//34 54//54
f 35//35 36//36 51//51
f 39//39 51//51 36//36
f 39//39 38//38 52//52
f 55//55 52//52 38//38
f 46//46 55//55 38//38
f 39//39 52//52 51//51
f 44//44 40//40 54//54
f 44//44 41//41 40//40
f 41//41 44//44 56//56
f 41//41 57//57 47//47
f 58//58 41//41 56//56
f 58//58 57//57 41//41
f 59//59 42//42 50//50
f 42//42 59//59 43//43
f 43//43 60//60 45//45
f 43//43 59//59 61//61
f 60//60 43//43 61//61
f 56//56 44//44 45//45
f 46//46 44//44 54//54
f 45//45 60//60 56//56
f 55//55 46//46 54//54
f 48//48 47//47 62//62
f 62//62 47//47 57//57
f 63//63 48//48 64//64
f 49//49 48//48 63//63
f 62//62 64//64 48//48
f 65//65 50//50 49//49
f 66//66 65//65 49//49
f 49//49 63//63 66//66
f 67//67 59//59 50//50
f 50//50 65//65 67//67
f 52//52 55//55 53//53
f 55//55 54//54 53//53
f 68//68 58//58 56//56
f 69//69 56//56 60//60
f 56//56 69//69 70//70
f 56//56 70//70 68//68
f 71//71 57//57 58//58
f 62//62 57//57 71//71
f 71//71 58//58 72//72
f 73//73 72//72 58//58
f 73//73 58//58 68//68
f 61//61 59//59 74//74
f 59//59 67//67 74//74
f 61//61 75//75 60//60
f 60//60 76//76 69//69
f 60//60 75//75 76//76
f 77//77 61//61 78//78
f 61//61 74//74 78//78
f 75//75 61//61 77//77
f 64//64 62//62 79//79
f 62//62 71//71 79//79
f 63//63 64//64 79//79
f 66//66 63//63 80//80
f 63//63 79//79 80//80
f 67//67 65//65 81//81
f 66//66 81//81 65//65
f 80//80 81//81 66//66
f 81//81 74//74 67//67
f 68//68 70//70 82//82
f 82//82 73//73 68//68
f 69//69 76//76 83//83
f 70//70 69//69 84//84
f 83//83 85//85 69//69
f 85//85 84//84 69//69
f 84//84 82//82 70//70
f 79//79 71//71 86//86
f 86//86 71//71 72//72
f 87//87 72//72 73//73
f 72//72 87//87 86//86
f 73//73 82//82 87//87
f 74//74 81//81 78//78
f 76//76 75//75 88//88
f 77//77 89//89 75//75
f 89//89 88//88 75//75
f 88//88 83//83 76//76
f 90//90 89//89 77//77
f 77//77 91//91 90//90
f 77//77 78//78 91//91
f 81//81 91//91 78//78
f 79//79 86//86 80//80
f 86//86 91//91 80//80
f 80//80 91//91 81//81
f 92//92 93//93 82//82
f 94//94 82//82 93//93
f 92//92 82//82 84//84
f 87//87 82//82 94//94
f 83//83 88//88 95//95
f 83//83 95//95 85//85
f 85//85 92//92 84//84
f 92//92 85//85 96//96
f 95//95 96//96 85//85
f 94//94 86//86 87//87
f 86//86 94//94 91//91
f 95//95 88//88 89//89
f 95//95 89//89 97//97
f 98//98 89//89 90//90
f 97//97 89//89 98//98
f 90//90 99//99 98//98
f 91//91 99//99 90//90
f 91//91 100//100 99//99
f 94//94 100//100 91//91
f 93//93 92//92 101//101
f 92//92 96//96 101//101
f 101//101 102//102 93//93
f 102//102 100//100 93//93
f 94//94 93//93 100//100
f 101//101 96//96 95//95
f 95//95 97//97 101//101
f 97//97 98//98 102//102
f 97//97 102//102 101//101
f 102//102 98//98 99//99
f 100//100 102//102 99//99
