# Blender 4.0.2
# www.blender.org
mtllib toe_5_dist_r.mtl
o toe_5_dist_r.002
v 0.006738 0.000879 0.002399
v 0.007585 0.000793 0.002164
v 0.007461 0.000975 0.001159
v 0.005492 0.000797 0.002230
v 0.007120 0.000494 0.002788
v 0.006441 0.000155 -0.000358
v 0.005427 -0.000305 -0.000630
v 0.007526 0.000545 0.000479
v 0.007117 -0.000624 0.002818
v 0.007382 -0.000120 0.003032
v 0.003495 0.001558 0.001860
v 0.005266 0.000364 0.002409
v 0.006783 -0.000246 0.003339
v 0.006227 -0.000603 0.003330
v 0.005471 -0.001091 0.002614
v 0.006054 -0.000359 -0.000676
v 0.003616 0.001013 -0.000149
v 0.003590 0.000022 -0.001235
v 0.003466 -0.000671 -0.001169
v 0.005936 -0.000627 -0.000170
v 0.003710 -0.001827 0.000845
v 0.005590 -0.000909 0.000895
v 0.005526 -0.001838 0.002312
v 0.006397 -0.000681 0.001368
v 0.006735 -0.000919 0.003171
v 0.006037 -0.001396 0.003010
v 0.001599 0.002818 -0.000304
v 0.002898 0.001500 0.002058
v 0.001510 0.002107 0.001241
v 0.003267 -0.001257 0.002145
v 0.002677 -0.000103 0.002442
v 0.004706 -0.001398 0.002357
v 0.005302 -0.001605 0.002708
v 0.001200 0.002460 -0.002549
v 0.002579 0.000204 -0.002083
v 0.001922 -0.001175 -0.001460
v 0.001269 -0.002758 0.001466
v 0.004043 -0.001790 0.001705
v 0.004949 -0.001534 0.001595
v 0.000838 0.002775 -0.000694
v 0.001168 0.002894 -0.001311
v 0.000688 0.000915 0.003001
v -0.000151 0.001362 0.002126
v 0.001018 -0.001514 0.003001
v 0.000085 0.000080 0.003503
v 0.001422 0.001424 -0.003173
v 0.001063 -0.000340 -0.002040
v 0.001096 -0.000117 -0.001522
v 0.001412 -0.000420 -0.002480
v 0.000788 -0.002559 0.002342
v 0.000284 -0.002382 0.001320
v 0.000531 -0.001309 -0.000291
v -0.000012 -0.002071 0.002551
vn -0.0716 0.9319 0.3557
vn 0.8173 0.5125 0.2632
vn 0.4076 0.8928 -0.1918
vn 0.0269 0.9157 0.4011
vn 0.1595 0.6154 0.7719
vn 0.1524 0.6671 -0.7292
vn 0.2683 -0.0090 -0.9633
vn 0.8060 0.1613 -0.5696
vn 0.7778 -0.6281 0.0223
vn 0.8497 -0.0481 0.5250
vn 0.3578 0.8663 0.3486
vn -0.1257 0.2315 0.9647
vn 0.0463 0.2715 0.9613
vn -0.4278 0.2318 0.8736
vn -0.5364 0.2828 0.7952
vn 0.2824 -0.3366 -0.8983
vn 0.5652 0.7324 -0.3798
vn 0.5540 0.2541 -0.7928
vn 0.3890 -0.5602 -0.7313
vn 0.2177 -0.9206 -0.3243
vn 0.3235 -0.8952 -0.3066
vn 0.3606 -0.8875 -0.2870
vn 0.0028 -0.9678 -0.2518
vn 0.4780 -0.8384 -0.2618
vn 0.4823 -0.6517 0.5854
vn 0.1934 -0.7304 0.6550
vn 0.2788 0.9564 0.0872
vn 0.1180 0.6336 0.7646
vn -0.0401 0.8882 0.4577
vn 0.1889 -0.2358 0.9533
vn 0.2297 0.0342 0.9727
vn -0.1593 -0.6244 0.7647
vn -0.4416 -0.4982 0.7462
vn -0.2183 0.6821 -0.6979
vn 0.5942 -0.1341 -0.7931
vn 0.1231 -0.7907 -0.5997
vn 0.0170 -0.9952 -0.0959
vn 0.2075 -0.9263 0.3145
vn 0.4348 -0.9005 -0.0120
vn -0.6593 0.7517 0.0187
vn -0.0323 0.9689 -0.2454
vn 0.0411 0.5931 0.8041
vn -0.8062 0.5338 0.2549
vn 0.1506 -0.3513 0.9241
vn -0.5027 0.0904 0.8597
vn -0.0898 0.2235 -0.9706
vn -0.9195 -0.1760 -0.3515
vn -0.9800 0.1199 -0.1588
vn -0.1784 -0.5446 -0.8195
vn -0.0986 -0.8585 0.5033
vn -0.7312 -0.6368 -0.2448
vn -0.8668 -0.2884 -0.4069
vn -0.8173 -0.4271 0.3867
s 1
usemtl Default_OBJ.138
f 1//1 2//2 3//3
f 4//4 5//5 1//1
f 1//1 6//6 7//7
f 6//6 1//1 3//3
f 1//1 7//7 4//4
f 2//2 1//1 5//5
f 8//8 3//3 2//2
f 2//2 9//9 8//8
f 2//2 5//5 10//10
f 10//10 9//9 2//2
f 6//6 3//3 8//8
f 11//11 4//4 7//7
f 12//12 4//4 11//11
f 12//12 5//5 4//4
f 13//13 5//5 14//14
f 5//5 15//15 14//14
f 5//5 12//12 15//15
f 13//13 10//10 5//5
f 16//16 7//7 6//6
f 16//16 6//6 8//8
f 17//17 7//7 18//18
f 7//7 17//17 11//11
f 18//18 7//7 19//19
f 16//16 20//20 7//7
f 19//19 7//7 21//21
f 22//22 7//7 20//20
f 7//7 22//22 21//21
f 16//16 8//8 9//9
f 9//9 23//23 24//24
f 9//9 24//24 16//16
f 25//25 26//26 9//9
f 10//10 25//25 9//9
f 26//26 23//23 9//9
f 13//13 25//25 10//10
f 17//17 27//27 11//11
f 28//28 12//12 11//11
f 11//11 29//29 28//28
f 27//27 29//29 11//11
f 30//30 12//12 31//31
f 31//31 12//12 28//28
f 12//12 30//30 32//32
f 15//15 12//12 32//32
f 13//13 14//14 25//25
f 33//33 14//14 15//15
f 14//14 26//26 25//25
f 33//33 26//26 14//14
f 15//15 32//32 33//33
f 16//16 24//24 20//20
f 18//18 27//27 17//17
f 27//27 18//18 34//34
f 35//35 34//34 18//18
f 35//35 18//18 19//19
f 19//19 21//21 36//36
f 35//35 19//19 36//36
f 24//24 22//22 20//20
f 21//21 22//22 24//24
f 37//37 21//21 38//38
f 37//37 36//36 21//21
f 38//38 21//21 39//39
f 21//21 24//24 39//39
f 24//24 23//23 32//32
f 26//26 33//33 23//23
f 32//32 23//23 33//33
f 39//39 24//24 32//32
f 40//40 27//27 41//41
f 40//40 29//29 27//27
f 27//27 34//34 41//41
f 42//42 28//28 29//29
f 42//42 31//31 28//28
f 43//43 29//29 40//40
f 42//42 29//29 43//43
f 30//30 44//44 38//38
f 31//31 44//44 30//30
f 30//30 38//38 32//32
f 42//42 45//45 31//31
f 44//44 31//31 45//45
f 39//39 32//32 38//38
f 34//34 40//40 41//41
f 46//46 34//34 35//35
f 47//47 34//34 46//46
f 34//34 47//47 48//48
f 43//43 40//40 34//34
f 34//34 48//48 43//43
f 36//36 49//49 35//35
f 49//49 46//46 35//35
f 49//49 36//36 37//37
f 50//50 37//37 38//38
f 49//49 37//37 51//51
f 51//51 37//37 50//50
f 50//50 38//38 44//44
f 42//42 43//43 45//45
f 51//51 45//45 43//43
f 51//51 43//43 52//52
f 52//52 43//43 48//48
f 45//45 53//53 44//44
f 53//53 50//50 44//44
f 53//53 45//45 51//51
f 46//46 49//49 47//47
f 47//47 49//49 52//52
f 48//48 47//47 52//52
f 52//52 49//49 51//51
f 53//53 51//51 50//50
