# Blender 4.0.2
# www.blender.org
o calcn_l
v -0.001580 -0.006496 -0.009124
v 0.000974 -0.005431 -0.007878
v -0.000513 -0.004911 -0.010846
v -0.005887 -0.009474 -0.003849
v -0.001251 -0.007621 -0.004441
v -0.003902 -0.004797 -0.012394
v -0.004967 -0.008843 -0.007561
v -0.000238 -0.006797 -0.006190
v 0.008973 -0.003315 -0.006695
v -0.001547 -0.003212 -0.012541
v -0.000989 -0.000677 -0.013771
v -0.006214 -0.009481 -0.005959
v -0.002836 -0.008428 -0.002710
v -0.013870 -0.011152 -0.005328
v -0.009176 -0.010866 -0.002531
v -0.006571 -0.010265 -0.001865
v 0.000321 -0.007280 -0.001539
v -0.002936 -0.001488 -0.013796
v -0.006854 -0.006284 -0.011882
v -0.006487 -0.006831 -0.011388
v -0.006541 -0.007454 -0.010465
v -0.006570 -0.008056 -0.009608
v -0.006494 -0.008800 -0.008688
v -0.007504 -0.009356 -0.008602
v 0.011221 -0.004300 -0.001268
v 0.010036 -0.004020 0.002779
v 0.009972 -0.003912 -0.004222
v 0.015501 -0.002872 -0.004983
v 0.013085 -0.003675 -0.003260
v -0.003827 0.001163 -0.014406
v 0.004483 0.005748 -0.014255
v -0.001109 0.006027 -0.014996
v 0.017055 0.010953 -0.015675
v -0.004935 0.003875 -0.014983
v -0.003046 0.004809 -0.015035
v -0.010750 -0.010607 -0.006911
v -0.008510 -0.010065 -0.007309
v -0.001012 -0.008287 0.000135
v -0.016124 -0.009367 -0.008201
v -0.016243 -0.010957 -0.005769
v -0.016898 -0.011760 -0.003517
v -0.012551 -0.012227 -0.001517
v -0.014783 -0.012086 -0.002470
v -0.010900 -0.013122 0.000828
v -0.000358 -0.008619 0.002895
v 0.001586 -0.007396 0.001858
v -0.007795 -0.012533 0.001514
v -0.002826 -0.009969 0.002344
v -0.005237 -0.010900 0.001414
v -0.006427 0.000846 -0.013537
v -0.006235 -0.000786 -0.013465
v -0.006866 -0.001832 -0.013183
v -0.009323 -0.003191 -0.012663
v -0.009299 -0.005397 -0.012077
v -0.009112 -0.004353 -0.012404
v -0.008178 -0.005550 -0.012192
v -0.007101 -0.005698 -0.012245
v -0.008138 -0.007202 -0.011359
v -0.008530 -0.006618 -0.011783
v -0.008160 -0.007873 -0.010443
v -0.007396 -0.008563 -0.009546
v -0.008185 -0.009085 -0.009406
v 0.019742 -0.004331 0.003440
v 0.018530 -0.004517 0.001146
v 0.012001 -0.003434 0.005973
v 0.004976 -0.005798 0.005603
v 0.001547 -0.007932 0.004501
v 0.019539 -0.003884 -0.001776
v 0.019242 -0.003085 -0.004171
v 0.020760 -0.002030 -0.005556
v 0.023852 0.012100 -0.015429
v -0.007782 0.005202 -0.014496
v 0.003038 0.008239 -0.014583
v 0.000987 0.007118 -0.014746
v 0.000392 0.012889 -0.015205
v 0.001610 0.010501 -0.014940
v 0.018319 0.011641 -0.015713
v 0.015713 0.012364 -0.016121
v 0.007528 0.014425 -0.015784
v -0.007768 0.008839 -0.014803
v -0.011445 -0.008337 -0.010346
v -0.018518 -0.010741 -0.005699
v -0.016219 -0.006928 -0.009527
v -0.016605 -0.008392 -0.008573
v -0.019226 -0.009790 -0.006095
v -0.019520 -0.011634 -0.003392
v -0.019220 -0.013950 -0.000598
v -0.017003 -0.013060 -0.002134
v -0.016697 -0.014243 -0.001041
v -0.014266 -0.014375 0.000781
v -0.007024 -0.015659 0.003120
v -0.015278 -0.015114 0.001430
v -0.000794 -0.009295 0.003801
v -0.000954 -0.010090 0.004753
v -0.013105 0.001558 -0.012030
v -0.009384 -0.001592 -0.012880
v -0.015958 -0.000508 -0.011018
v -0.009759 -0.006502 -0.011655
v -0.011402 -0.007033 -0.011006
v 0.020485 -0.004474 0.001449
v 0.022405 -0.003776 0.003101
v 0.019127 -0.003917 0.005969
v 0.026002 -0.003589 -0.001011
v 0.012525 -0.002064 0.007976
v 0.010697 -0.000956 0.009192
v 0.005899 -0.004691 0.007950
v 0.000649 -0.009608 0.006209
v 0.022930 -0.003189 -0.003644
v 0.024285 -0.002184 -0.004877
v 0.025644 -0.001162 -0.006024
v 0.026426 0.013926 -0.016708
v 0.020553 0.012831 -0.015850
v 0.029307 0.000432 -0.006498
v 0.030535 0.000833 -0.006468
v 0.033780 0.010685 -0.015250
v 0.032060 0.002086 -0.006852
v 0.035396 0.006242 -0.009732
v -0.010272 0.004810 -0.013444
v 0.000615 0.014722 -0.014749
v 0.004116 0.015832 -0.014856
v 0.019595 0.015222 -0.015711
v 0.014736 0.014681 -0.015861
v 0.007029 0.016605 -0.014376
v 0.015855 0.019957 -0.012747
v 0.014283 0.016623 -0.015021
v -0.006837 0.014539 -0.013425
v -0.008523 0.013451 -0.013188
v -0.011932 0.013915 -0.011915
v -0.015962 0.006022 -0.011248
v -0.013135 0.004414 -0.012140
v -0.013008 -0.007122 -0.010372
v -0.024431 -0.010244 -0.002314
v -0.018866 -0.007859 -0.007919
v -0.014473 -0.006724 -0.010175
v -0.021648 -0.009295 -0.005242
v -0.022034 -0.013509 -0.000038
v -0.022314 -0.013908 0.001192
v -0.016236 -0.014688 0.000157
v -0.019300 -0.015867 0.003380
v -0.002750 -0.014512 0.005791
v -0.002344 -0.013400 0.005314
v -0.015729 -0.016228 0.002814
v -0.013510 -0.018026 0.004560
v -0.010962 -0.018590 0.004834
v -0.005751 -0.016789 0.005127
v -0.007752 -0.016996 0.004291
v 0.000115 -0.010547 0.006361
v -0.000393 -0.011629 0.006540
v -0.012534 -0.000161 -0.012159
v -0.021077 -0.000608 -0.009137
v -0.018648 -0.003717 -0.009301
v 0.021820 -0.003279 0.005202
v 0.019362 -0.002281 0.008002
v 0.031409 -0.000915 -0.001798
v 0.030207 -0.001213 -0.003493
v 0.029397 -0.000812 -0.005114
v 0.026311 -0.002056 -0.004416
v 0.023781 -0.001844 0.006471
v 0.019427 -0.000720 0.009502
v 0.012832 0.001261 0.011018
v 0.005623 -0.002733 0.010663
v 0.006740 0.001672 0.012981
v 0.010389 0.000957 0.011489
v 0.003077 -0.004071 0.011593
v 0.000456 -0.009906 0.008101
v 0.026019 0.015698 -0.016970
v 0.030277 0.018148 -0.017028
v 0.025308 0.017085 -0.016421
v 0.030739 -0.000357 -0.005108
v 0.031807 -0.000056 -0.005005
v 0.037530 0.008690 -0.013322
v 0.037743 0.013200 -0.016605
v 0.032640 0.002185 -0.003489
v 0.032228 0.000408 -0.004962
v 0.032354 0.002136 -0.001173
v 0.031725 0.002175 0.002604
v 0.031914 0.005455 0.003109
v 0.030076 0.008888 0.006115
v 0.035503 0.023095 -0.007975
v 0.031999 0.012554 0.001567
v 0.006115 0.018662 -0.012446
v 0.006894 0.020702 -0.011003
v -0.006452 0.017599 -0.012561
v 0.001642 0.021205 -0.011889
v 0.006823 0.017932 -0.013101
v 0.016499 0.016585 -0.015200
v 0.021331 0.017630 -0.015769
v 0.022869 0.018127 -0.015953
v 0.019102 0.017087 -0.015494
v 0.008299 0.019814 -0.011541
v 0.028237 0.025908 -0.011181
v 0.005352 0.026714 -0.009475
v 0.014185 0.024774 -0.005832
v 0.023538 0.022753 -0.007199
v -0.008711 0.016347 -0.012381
v -0.016847 0.008850 -0.010713
v -0.014868 0.012822 -0.010864
v -0.022288 0.002476 -0.009526
v -0.018938 0.005673 -0.010567
v -0.024513 -0.011367 -0.000710
v -0.026154 -0.004883 -0.006495
v -0.029782 -0.009957 0.003789
v -0.021164 -0.003811 -0.008331
v -0.024385 -0.012470 0.000707
v -0.023715 -0.014668 0.007313
v -0.019434 -0.016345 0.005551
v -0.024040 -0.014135 0.005287
v -0.016338 -0.017306 0.004458
v -0.001054 -0.013887 0.007670
v -0.005218 -0.018100 0.007454
v -0.006799 -0.018294 0.006125
v -0.003718 -0.017962 0.008972
v -0.013941 -0.018650 0.006506
v -0.006317 -0.019607 0.010647
v -0.014973 -0.018900 0.008381
v 0.000117 -0.010991 0.008668
v -0.022255 -0.000460 -0.008948
v 0.023724 -0.000701 0.008665
v 0.032211 0.000272 -0.003564
v 0.031900 -0.000289 -0.003545
v 0.029356 0.001312 0.007605
v 0.031875 0.001751 0.001113
v 0.031850 0.001126 -0.000021
v 0.018312 0.003018 0.010777
v 0.019689 0.000641 0.009903
v 0.023963 0.001007 0.009388
v 0.012351 0.009719 0.014159
v 0.012357 0.005170 0.012770
v 0.010317 0.003116 0.012543
v 0.012184 0.002502 0.011887
v 0.004014 0.006428 0.014366
v 0.006683 0.008459 0.014332
v 0.009447 0.008154 0.013917
v 0.000511 -0.001433 0.015290
v 0.002356 -0.002134 0.014105
v 0.000685 -0.009180 0.010245
v 0.001259 -0.004065 0.014542
v 0.025755 0.019374 -0.016175
v 0.032630 0.022061 -0.014802
v 0.024354 0.018906 -0.016043
v 0.032814 0.028063 -0.007779
v 0.032352 0.001618 -0.002233
v 0.032465 0.001255 -0.003629
v 0.031251 0.003053 0.004994
v 0.031897 0.004489 0.004449
v 0.031515 0.005428 0.006127
v 0.028071 0.007438 0.007859
v 0.028975 0.013237 0.007799
v 0.030032 0.014158 0.006420
v 0.035909 0.027608 -0.004339
v 0.037823 0.020604 0.002068
v 0.032197 0.015803 0.005777
v 0.032640 0.017200 0.006971
v 0.030949 0.014518 0.005551
v 0.003837 0.021384 -0.011444
v 0.005112 0.022662 -0.010653
v -0.001637 0.021039 -0.011825
v -0.006842 0.020272 -0.010704
v -0.006554 0.025643 -0.006736
v 0.026863 0.025197 -0.006091
v 0.000412 0.029592 -0.006496
v 0.012436 0.028706 0.004352
v 0.015664 0.025451 0.008440
v 0.023324 0.024216 -0.001099
v -0.017569 0.011502 -0.010077
v -0.021512 0.005474 -0.010094
v -0.028020 0.004737 -0.008138
v -0.032298 -0.002503 -0.004271
v -0.031811 -0.007502 0.001244
v -0.027741 -0.013339 0.009151
v -0.027354 -0.012600 0.007539
v -0.025773 -0.013266 0.006224
v -0.033372 -0.007252 0.007199
v -0.033018 -0.007148 0.009434
v -0.033635 -0.007428 0.005042
v -0.033556 -0.007303 0.006015
v -0.026121 -0.014008 0.010015
v -0.023191 -0.015074 0.008868
v -0.021641 -0.015880 0.008385
v -0.026720 -0.013596 0.008674
v 0.000353 -0.010356 0.011044
v -0.001428 -0.015320 0.010544
v -0.000731 -0.014826 0.012903
v -0.002767 -0.017277 0.011177
v -0.003529 -0.016814 0.016418
v -0.011146 -0.018739 0.016538
v -0.008992 -0.017911 0.018762
v -0.007069 -0.017118 0.019481
v -0.022842 -0.015464 0.010769
v -0.025135 -0.013174 0.015563
v 0.026218 0.001351 0.008927
v 0.027733 0.002019 0.008635
v 0.030861 0.004037 0.006781
v 0.028541 0.003270 0.008485
v 0.015319 0.006482 0.012701
v 0.017458 0.005947 0.011995
v 0.019830 0.005061 0.011054
v 0.019966 0.002000 0.010197
v 0.020402 0.003501 0.010652
v 0.010986 0.012285 0.014961
v 0.013658 0.011062 0.014700
v 0.001470 0.018357 0.015973
v 0.018059 0.011354 0.014788
v 0.018320 0.007641 0.012585
v -0.006133 0.014722 0.016589
v 0.002483 0.004856 0.014713
v -0.001431 -0.001005 0.016381
v -0.000223 0.001159 0.015756
v -0.000354 -0.003324 0.015758
v 0.001100 0.003368 0.015139
v -0.000899 -0.005131 0.016410
v -0.000293 -0.008337 0.016532
v 0.029480 0.025125 -0.000058
v 0.029181 0.004957 0.007720
v 0.023334 0.009147 0.012633
v 0.031440 0.017283 0.009467
v 0.029598 0.014762 0.009382
v 0.028940 0.014677 0.010333
v 0.027569 0.013998 0.011231
v 0.032578 0.023089 0.005768
v 0.035018 0.021840 0.005740
v 0.032756 0.019130 0.008711
v 0.033287 0.019088 0.007552
v -0.028052 0.014835 -0.004435
v -0.006201 0.030761 0.000281
v -0.014848 0.024251 -0.000340
v -0.019836 0.021569 0.000615
v -0.020927 0.020202 -0.001243
v 0.028216 0.024700 -0.000984
v -0.003162 0.030679 0.010541
v 0.009096 0.026628 0.015296
v 0.011629 0.026968 0.011633
v 0.012665 0.026783 0.015440
v 0.025024 0.033236 0.019811
v 0.019689 0.026118 0.007115
v -0.036396 0.007032 0.000851
v -0.036352 0.003381 0.000315
v -0.035490 0.000463 -0.001776
v -0.034942 0.014158 0.000528
v -0.033643 -0.005008 0.000511
v -0.035327 -0.002676 0.000103
v -0.035481 -0.001156 -0.000875
v -0.034034 -0.005435 0.002716
v -0.034834 -0.005383 0.004657
v -0.027320 -0.013269 0.010199
v -0.034399 -0.001764 0.014402
v -0.032448 -0.007112 0.011686
v -0.026786 -0.013200 0.011359
v -0.035818 -0.002915 0.008197
v -0.002103 -0.016601 0.013760
v -0.001370 -0.014288 0.015844
v -0.005096 -0.016774 0.018878
v -0.002676 -0.014801 0.019435
v -0.011135 -0.018033 0.017944
v -0.013283 -0.016784 0.020807
v -0.016714 -0.016664 0.018573
v -0.010932 -0.017502 0.019106
v -0.011031 -0.017115 0.020364
v -0.010965 -0.016113 0.021476
v -0.003678 -0.014753 0.020218
v -0.025340 -0.013468 0.013397
v -0.024154 -0.012772 0.017326
v -0.021035 -0.014351 0.018048
v -0.028035 -0.009388 0.018030
v 0.010203 0.014989 0.015549
v 0.012719 0.014048 0.015376
v -0.005080 0.017086 0.015714
v 0.001899 0.020901 0.015265
v 0.004281 0.020621 0.015558
v -0.001074 0.018755 0.015738
v 0.008617 0.017075 0.015590
v 0.011064 0.016306 0.015421
v 0.021262 0.016972 0.014713
v 0.022878 0.015618 0.014348
v 0.014251 0.019124 0.015350
v 0.015630 0.020863 0.015794
v 0.012255 0.017482 0.015235
v 0.022192 0.013086 0.013917
v -0.010383 0.013561 0.016633
v -0.006109 -0.001784 0.019162
v -0.003924 -0.002324 0.018113
v -0.002006 -0.002903 0.017035
v -0.012484 0.000671 0.020678
v -0.008000 -0.001762 0.019967
v -0.011729 0.010864 0.017566
v -0.014454 0.002994 0.020310
v -0.001278 -0.006487 0.017113
v -0.002518 -0.011060 0.019282
v -0.001643 -0.007854 0.017731
v -0.001833 -0.013376 0.018642
v 0.029228 0.025076 0.001986
v 0.031008 0.022831 0.008317
v 0.025466 0.014261 0.013553
v 0.026430 0.013734 0.012774
v 0.031539 0.021047 0.011362
v 0.030583 0.020506 0.012093
v 0.029685 0.020454 0.013665
v 0.026899 0.016274 0.013530
v 0.032489 0.021608 0.010132
v 0.033216 0.021144 0.008929
v -0.030331 0.018837 0.001260
v -0.028376 0.019233 0.000986
v -0.022609 0.019539 -0.001319
v -0.024456 0.018738 -0.001339
v -0.025836 0.019751 0.000703
v -0.032002 0.018387 0.001406
v -0.015123 0.024650 0.003753
v -0.010382 0.029338 0.007731
v -0.019787 0.022141 0.002339
v -0.019882 0.022492 0.004074
v -0.017464 0.023518 0.003855
v -0.010584 0.025691 0.011393
v 0.004698 0.024975 0.015282
v 0.006153 0.025052 0.016123
v 0.009886 0.026489 0.018765
v 0.008476 0.025635 0.018402
v 0.009903 0.027385 0.020995
v 0.021295 0.035443 0.021473
v 0.012438 0.031775 0.021595
v 0.028619 0.026995 0.009871
v 0.028149 0.028832 0.022320
v -0.036543 0.004976 0.001322
v -0.036659 0.009596 0.001995
v -0.036347 -0.001380 0.004111
v -0.036383 0.001898 0.000661
v -0.036198 0.000404 0.000443
v -0.033044 0.018812 0.003237
v -0.034100 0.019104 0.005371
v -0.035206 0.017841 0.006229
v -0.036243 0.014950 0.007201
v -0.036871 0.012005 0.003283
v -0.032155 -0.006126 0.014045
v -0.031913 0.003662 0.018831
v -0.031635 0.001959 0.019133
v -0.034763 0.008008 0.013520
v -0.031490 -0.002303 0.017992
v -0.030972 -0.003574 0.018240
v -0.030481 -0.004917 0.018330
v -0.031583 -0.005268 0.016546
v -0.036738 0.012744 0.005341
v -0.016719 -0.015877 0.019735
v -0.016568 -0.015021 0.020690
v -0.014424 -0.014683 0.021674
v -0.018865 -0.014939 0.019407
v -0.012381 -0.013875 0.022634
v -0.010602 -0.014528 0.022366
v -0.012683 -0.003654 0.022322
v -0.005190 -0.007047 0.020308
v -0.003583 -0.008849 0.019631
v -0.022981 -0.012299 0.019476
v -0.020998 -0.013038 0.020211
v -0.023031 -0.010603 0.020760
v -0.026336 -0.008324 0.020230
v 0.004228 0.022835 0.015427
v 0.005853 0.023050 0.016315
v 0.009092 0.023334 0.017615
v 0.022932 0.019112 0.014840
v 0.014103 0.022333 0.016734
v 0.014899 0.022877 0.017330
v 0.026332 0.020285 0.015853
v 0.024789 0.019643 0.015265
v -0.015814 0.010875 0.017929
v -0.018799 0.020089 0.012817
v -0.023703 0.018271 0.013044
v -0.029280 0.011193 0.019171
v -0.015020 0.000683 0.021282
v -0.009671 -0.001943 0.020747
v -0.011323 -0.001658 0.021240
v -0.017674 0.005379 0.019732
v -0.017805 0.007307 0.018939
v -0.016841 0.003212 0.020457
v -0.017333 0.008868 0.018519
v -0.019370 0.000825 0.021606
v -0.003053 -0.007412 0.018793
v 0.028583 0.020373 0.015413
v 0.027419 0.020167 0.015596
v -0.017738 0.023247 0.007398
v -0.025271 0.021023 0.008374
v -0.031948 0.019868 0.005191
v -0.031948 0.020338 0.007696
v -0.015947 0.023606 0.009605
v -0.017604 0.023447 0.005736
v -0.017332 0.022006 0.011167
v 0.007985 0.024220 0.017406
v 0.009110 0.025925 0.019627
v 0.011346 0.024818 0.020366
v 0.011467 0.030242 0.023231
v 0.015140 0.032291 0.023887
v 0.014442 0.033545 0.022696
v 0.017402 0.027292 0.023867
v 0.025125 0.021834 0.020765
v -0.033765 0.019965 0.010477
v -0.034684 0.016000 0.011936
v -0.035535 0.014232 0.009842
v -0.030153 0.003865 0.020468
v -0.032163 0.005427 0.018427
v -0.029799 -0.003148 0.019808
v -0.028065 -0.001998 0.021226
v -0.028946 -0.000032 0.020925
v -0.029629 0.001907 0.020715
v -0.032347 0.007247 0.017625
v -0.032550 0.008821 0.016816
v -0.034407 0.012310 0.012532
v -0.033336 0.011517 0.014467
v -0.033466 0.010522 0.014709
v -0.032308 0.009917 0.016617
v -0.034566 0.013662 0.012258
v -0.018732 -0.014043 0.020511
v -0.020702 -0.011267 0.021307
v -0.013912 -0.006806 0.022624
v -0.015739 -0.001515 0.021679
v -0.014474 -0.003702 0.022176
v -0.022929 -0.005909 0.022494
v -0.025260 -0.005639 0.021894
v -0.026661 -0.005579 0.021161
v -0.027669 -0.003612 0.021284
v 0.012232 0.023378 0.018161
v 0.012905 0.023815 0.019082
v 0.015108 0.023139 0.017946
v 0.026774 0.020895 0.017644
v -0.019341 0.020791 0.011814
v -0.021390 0.019434 0.012378
v -0.024184 0.019096 0.011999
v -0.021842 0.020182 0.011351
v -0.027399 0.018527 0.013615
v -0.030375 0.018053 0.015149
v -0.031295 0.013944 0.017673
v -0.023214 0.001532 0.022556
v -0.028024 0.003619 0.021897
v -0.030833 0.008278 0.018987
v -0.031159 0.009931 0.018055
v -0.017883 0.023001 0.008748
v -0.024708 0.020088 0.010324
v -0.030293 0.019460 0.012570
v -0.030318 0.020644 0.010000
v -0.032031 0.020404 0.010176
v -0.017918 0.022410 0.010259
v 0.013186 0.024135 0.020575
v 0.014307 0.024596 0.020974
v 0.015544 0.023375 0.020766
v 0.024663 0.021093 0.020136
v -0.032079 0.017783 0.015591
v -0.034066 0.016493 0.012914
v -0.025458 -0.002550 0.022656
v -0.026614 -0.000182 0.022424
v -0.020082 -0.007193 0.022331
v -0.022213 -0.002002 0.022600
v -0.022257 -0.003842 0.022591
v 0.015477 0.023322 0.018611
v -0.024264 -0.000316 0.022746
s 1
f 1 3 2
f 4 1 5
f 3 1 6
f 1 4 7
f 8 5 1
f 1 7 6
f 8 1 2
f 9 8 2
f 9 2 3
f 6 10 3
f 3 11 9
f 10 11 3
f 7 4 12
f 13 4 5
f 14 4 15
f 14 12 4
f 16 15 4
f 4 13 16
f 8 17 5
f 13 5 17
f 6 18 10
f 19 18 6
f 19 6 20
f 21 6 22
f 20 6 21
f 6 23 22
f 6 7 23
f 7 24 23
f 7 12 24
f 25 26 8
f 17 8 26
f 8 27 25
f 8 9 27
f 28 29 9
f 9 29 27
f 9 11 28
f 18 11 10
f 30 11 18
f 31 11 32
f 31 33 11
f 28 11 33
f 34 11 30
f 35 11 34
f 32 11 35
f 14 36 12
f 37 12 36
f 24 12 37
f 38 13 17
f 38 16 13
f 39 36 14
f 40 39 14
f 40 14 41
f 42 14 15
f 14 43 41
f 14 42 43
f 16 42 15
f 42 16 44
f 45 16 46
f 47 44 16
f 48 49 16
f 47 16 49
f 38 46 16
f 16 45 48
f 17 26 38
f 30 18 50
f 51 50 18
f 51 18 52
f 53 52 18
f 54 55 18
f 18 55 53
f 56 18 57
f 54 18 56
f 57 18 19
f 19 20 58
f 57 19 59
f 59 19 58
f 21 58 20
f 22 60 21
f 21 60 58
f 61 60 22
f 23 61 22
f 23 24 61
f 62 24 36
f 36 24 37
f 24 62 61
f 29 25 27
f 26 25 63
f 25 29 64
f 64 63 25
f 65 26 63
f 26 65 66
f 38 26 46
f 67 46 26
f 67 26 66
f 29 28 68
f 69 68 28
f 69 28 70
f 28 33 71
f 28 71 70
f 64 29 68
f 34 30 72
f 72 30 50
f 73 31 74
f 74 31 32
f 33 31 73
f 75 76 32
f 32 76 74
f 32 35 75
f 33 78 77
f 33 77 71
f 73 79 33
f 33 79 78
f 80 34 72
f 75 34 80
f 75 35 34
f 62 36 81
f 81 36 39
f 40 82 39
f 83 39 84
f 83 81 39
f 39 85 84
f 39 82 85
f 41 86 40
f 40 86 82
f 86 41 87
f 88 87 41
f 43 88 41
f 42 89 88
f 90 42 44
f 89 42 90
f 43 42 88
f 91 92 44
f 47 91 44
f 90 44 92
f 45 67 93
f 67 45 46
f 48 45 93
f 94 47 48
f 48 47 49
f 91 47 94
f 48 93 94
f 72 50 95
f 51 95 50
f 96 95 51
f 51 52 96
f 53 96 52
f 96 53 97
f 55 97 53
f 56 98 54
f 54 98 99
f 99 55 54
f 99 97 55
f 57 59 56
f 56 59 98
f 60 81 58
f 59 58 81
f 59 81 98
f 62 81 60
f 62 60 61
f 100 101 63
f 65 63 102
f 63 101 102
f 100 63 64
f 100 64 103
f 68 103 64
f 65 102 104
f 105 65 104
f 65 105 106
f 106 66 65
f 106 67 66
f 107 94 67
f 67 94 93
f 67 106 107
f 108 103 68
f 108 68 69
f 108 69 109
f 109 69 70
f 109 70 110
f 71 110 70
f 71 112 111
f 113 71 114
f 111 115 71
f 113 110 71
f 71 116 114
f 117 71 115
f 112 71 77
f 116 71 117
f 80 72 118
f 118 72 95
f 76 73 74
f 76 79 73
f 75 80 119
f 75 79 76
f 75 120 79
f 75 119 120
f 77 78 121
f 77 121 112
f 121 78 122
f 78 79 122
f 79 120 123
f 79 123 124
f 124 125 79
f 79 125 122
f 126 80 127
f 80 129 128
f 119 80 126
f 80 130 129
f 80 118 130
f 127 80 128
f 98 81 99
f 81 131 99
f 81 83 131
f 82 132 85
f 86 132 82
f 83 84 133
f 131 83 134
f 97 83 133
f 134 83 97
f 133 84 85
f 135 85 132
f 135 133 85
f 132 86 136
f 136 86 87
f 137 136 87
f 138 92 87
f 89 87 88
f 139 87 92
f 139 137 87
f 89 138 87
f 90 138 89
f 92 138 90
f 140 91 141
f 92 91 142
f 142 91 143
f 144 143 91
f 91 140 145
f 145 146 91
f 91 146 144
f 141 91 94
f 92 142 139
f 147 148 94
f 141 94 148
f 107 147 94
f 149 97 95
f 129 95 97
f 129 130 95
f 118 95 130
f 96 149 95
f 149 96 97
f 150 97 151
f 97 150 129
f 97 133 151
f 131 97 99
f 131 134 97
f 103 101 100
f 103 152 101
f 152 102 101
f 104 102 153
f 152 153 102
f 154 103 155
f 155 103 156
f 157 103 108
f 157 156 103
f 103 158 152
f 158 103 154
f 159 104 153
f 160 105 104
f 104 159 160
f 105 162 161
f 163 105 160
f 162 105 163
f 106 105 161
f 164 106 161
f 165 107 106
f 106 164 165
f 107 165 147
f 108 109 157
f 157 109 110
f 156 110 113
f 157 110 156
f 166 111 112
f 167 111 166
f 111 167 115
f 166 112 168
f 121 168 112
f 169 113 114
f 156 113 169
f 169 114 170
f 116 170 114
f 115 172 171
f 115 171 117
f 167 172 115
f 116 117 173
f 174 170 116
f 116 173 174
f 175 117 176
f 117 175 173
f 177 176 117
f 117 178 177
f 179 117 171
f 180 117 179
f 178 117 180
f 119 182 181
f 120 119 181
f 119 126 183
f 184 119 183
f 182 119 184
f 123 120 185
f 120 181 185
f 121 122 186
f 187 188 121
f 121 188 168
f 189 121 186
f 187 121 189
f 125 186 122
f 124 123 185
f 124 185 190
f 191 186 124
f 186 125 124
f 192 193 124
f 124 193 194
f 190 192 124
f 124 194 191
f 183 126 195
f 195 126 127
f 195 127 128
f 196 128 129
f 196 197 128
f 128 197 195
f 198 129 150
f 198 199 129
f 129 199 196
f 136 200 132
f 135 132 201
f 201 132 202
f 202 132 200
f 135 201 133
f 203 133 201
f 203 151 133
f 136 204 200
f 136 137 204
f 205 137 206
f 206 137 139
f 202 137 207
f 204 137 202
f 137 205 207
f 142 208 139
f 206 139 208
f 209 140 148
f 148 140 141
f 210 211 140
f 145 140 211
f 212 140 209
f 212 210 140
f 142 143 208
f 208 143 213
f 143 144 213
f 211 144 145
f 145 144 146
f 211 214 144
f 215 144 214
f 215 213 144
f 147 165 148
f 148 216 209
f 216 148 165
f 150 217 198
f 203 150 151
f 217 150 201
f 203 201 150
f 152 158 153
f 158 218 153
f 159 153 218
f 154 220 219
f 154 155 220
f 158 154 218
f 218 154 221
f 154 176 221
f 154 222 176
f 219 223 154
f 154 223 222
f 220 155 169
f 155 156 169
f 224 160 159
f 225 224 159
f 159 218 226
f 225 159 226
f 160 224 163
f 162 164 161
f 162 228 227
f 229 162 230
f 231 162 232
f 232 162 233
f 227 233 162
f 228 162 229
f 162 231 234
f 162 234 235
f 163 230 162
f 235 164 162
f 163 224 230
f 236 165 164
f 237 164 235
f 237 236 164
f 236 216 165
f 167 166 168
f 167 168 238
f 239 167 238
f 172 167 239
f 188 240 168
f 240 238 168
f 220 169 170
f 174 220 170
f 172 179 171
f 172 239 241
f 179 172 241
f 242 243 173
f 242 173 175
f 173 243 174
f 219 174 243
f 174 219 220
f 222 223 175
f 223 242 175
f 222 175 176
f 221 176 244
f 245 176 177
f 245 244 176
f 246 177 178
f 246 245 177
f 178 248 247
f 249 248 178
f 247 246 178
f 180 249 178
f 250 179 241
f 250 251 179
f 251 180 179
f 180 253 252
f 180 252 254
f 180 254 249
f 253 180 251
f 181 182 190
f 185 181 190
f 182 184 255
f 255 256 182
f 256 192 182
f 190 182 192
f 183 258 257
f 183 257 184
f 183 195 258
f 184 192 256
f 259 192 184
f 257 259 184
f 184 256 255
f 191 189 186
f 187 191 188
f 187 189 191
f 188 191 240
f 194 260 191
f 241 191 260
f 191 238 240
f 191 239 238
f 191 241 239
f 259 261 192
f 261 262 192
f 192 262 193
f 193 262 263
f 263 194 193
f 263 264 194
f 194 264 260
f 195 197 258
f 265 197 196
f 196 266 265
f 196 199 266
f 197 265 258
f 266 199 198
f 198 267 266
f 198 217 267
f 204 202 200
f 201 267 217
f 201 269 268
f 269 201 202
f 268 267 201
f 270 202 271
f 202 207 272
f 202 274 273
f 202 270 274
f 202 275 269
f 276 202 273
f 276 275 202
f 202 272 271
f 207 205 277
f 277 205 278
f 205 206 279
f 279 278 205
f 208 215 206
f 279 206 215
f 272 207 271
f 207 277 280
f 280 271 207
f 208 213 215
f 216 281 209
f 209 283 282
f 283 209 281
f 212 209 282
f 214 210 212
f 211 210 214
f 284 285 212
f 214 212 285
f 284 212 282
f 214 287 286
f 214 288 287
f 214 285 288
f 215 214 286
f 215 290 289
f 286 290 215
f 215 289 279
f 281 216 236
f 221 291 218
f 218 291 226
f 219 243 242
f 242 223 219
f 291 221 292
f 293 294 221
f 221 244 293
f 221 294 292
f 228 224 295
f 295 224 296
f 297 296 224
f 228 229 224
f 224 229 230
f 298 224 225
f 224 299 297
f 298 299 224
f 225 226 298
f 299 226 297
f 226 291 294
f 298 226 299
f 294 297 226
f 300 227 301
f 302 232 227
f 232 233 227
f 227 300 302
f 227 303 301
f 295 227 228
f 304 227 295
f 304 303 227
f 231 302 305
f 231 232 302
f 305 306 231
f 234 231 306
f 307 234 308
f 234 307 309
f 234 306 310
f 235 234 237
f 237 234 309
f 308 234 310
f 236 237 281
f 311 237 309
f 237 311 312
f 312 281 237
f 241 260 313
f 250 241 313
f 245 293 244
f 246 293 245
f 246 247 314
f 293 246 314
f 247 315 297
f 315 247 248
f 247 297 294
f 294 314 247
f 249 316 248
f 248 316 317
f 318 248 317
f 319 248 318
f 248 319 315
f 254 316 249
f 313 320 250
f 250 320 321
f 321 251 250
f 251 321 253
f 252 253 316
f 254 252 316
f 316 253 322
f 322 253 323
f 321 323 253
f 257 258 259
f 324 258 265
f 259 258 324
f 261 259 325
f 326 325 259
f 327 326 259
f 259 328 327
f 259 324 328
f 329 313 260
f 260 264 329
f 261 330 262
f 325 330 261
f 331 332 262
f 263 262 332
f 262 330 331
f 333 263 332
f 263 333 334
f 334 335 263
f 335 264 263
f 329 264 335
f 265 267 324
f 267 265 266
f 336 267 337
f 267 338 337
f 336 339 267
f 338 267 268
f 324 267 339
f 340 341 268
f 268 341 342
f 269 340 268
f 338 268 342
f 340 269 343
f 275 344 269
f 269 344 343
f 345 270 277
f 280 277 270
f 345 274 270
f 280 270 271
f 274 346 273
f 273 346 276
f 347 346 274
f 274 348 290
f 274 290 347
f 348 274 345
f 344 275 349
f 276 349 275
f 276 346 349
f 277 278 289
f 348 277 289
f 348 345 277
f 279 289 278
f 283 281 312
f 283 350 282
f 284 282 350
f 283 312 351
f 283 351 350
f 350 285 284
f 285 352 288
f 353 352 285
f 351 285 350
f 351 353 285
f 354 286 287
f 355 286 354
f 286 356 290
f 355 356 286
f 354 287 357
f 358 357 287
f 287 359 358
f 287 288 359
f 288 352 360
f 359 288 360
f 289 290 361
f 348 289 361
f 362 290 363
f 290 356 363
f 290 364 347
f 364 290 362
f 290 348 361
f 294 291 292
f 294 293 314
f 295 296 304
f 297 304 296
f 303 297 315
f 304 297 303
f 365 300 366
f 365 302 300
f 366 300 303
f 303 300 301
f 305 302 367
f 302 369 368
f 302 370 367
f 365 371 302
f 369 302 371
f 370 302 368
f 366 303 372
f 373 303 374
f 375 303 376
f 373 376 303
f 303 375 377
f 377 372 303
f 378 303 315
f 378 374 303
f 305 379 310
f 305 310 306
f 379 305 367
f 308 380 307
f 307 380 381
f 382 307 381
f 382 309 307
f 383 308 310
f 384 308 383
f 384 380 308
f 382 311 309
f 385 310 379
f 386 310 385
f 383 310 386
f 312 311 387
f 387 311 382
f 312 389 388
f 312 388 390
f 390 351 312
f 389 312 387
f 329 391 313
f 391 392 313
f 392 320 313
f 393 315 394
f 315 393 378
f 315 319 394
f 395 396 316
f 396 397 316
f 322 395 316
f 397 317 316
f 397 318 317
f 397 319 318
f 319 398 394
f 398 319 397
f 392 399 320
f 400 320 399
f 320 400 321
f 321 400 323
f 399 322 400
f 399 395 322
f 322 323 400
f 401 402 324
f 403 328 324
f 403 324 404
f 402 405 324
f 324 405 404
f 406 401 324
f 339 406 324
f 325 326 407
f 407 408 325
f 408 330 325
f 327 409 326
f 326 409 410
f 407 326 411
f 411 326 410
f 409 327 405
f 405 327 403
f 403 327 328
f 335 391 329
f 412 330 408
f 412 331 330
f 413 414 331
f 415 331 416
f 416 331 414
f 331 412 413
f 331 333 332
f 415 333 331
f 415 417 333
f 333 419 418
f 417 419 333
f 334 333 418
f 335 334 420
f 421 420 334
f 334 418 421
f 391 335 420
f 422 423 336
f 337 422 336
f 423 339 336
f 422 337 424
f 424 337 425
f 338 425 337
f 338 342 426
f 338 426 425
f 339 428 427
f 429 428 339
f 406 339 427
f 339 431 430
f 430 429 339
f 431 339 423
f 341 340 343
f 426 341 424
f 426 342 341
f 344 424 341
f 341 343 344
f 344 349 424
f 346 347 432
f 433 346 434
f 435 346 433
f 434 346 436
f 437 436 346
f 438 346 439
f 438 437 346
f 349 346 440
f 435 440 346
f 439 346 432
f 364 432 347
f 349 440 424
f 353 351 390
f 353 360 352
f 390 360 353
f 354 357 355
f 441 356 355
f 358 355 357
f 358 359 355
f 355 443 442
f 355 359 443
f 442 441 355
f 441 444 356
f 363 356 444
f 359 445 443
f 445 359 446
f 359 360 446
f 360 447 446
f 360 448 447
f 449 448 360
f 360 388 449
f 390 388 360
f 450 362 363
f 364 362 450
f 450 363 451
f 363 444 451
f 364 450 452
f 453 364 452
f 364 438 439
f 453 438 364
f 364 439 432
f 371 365 372
f 365 366 372
f 379 367 412
f 367 370 412
f 368 369 454
f 412 368 454
f 370 368 412
f 454 369 455
f 371 456 369
f 456 455 369
f 456 371 375
f 377 375 371
f 377 371 372
f 457 373 398
f 398 373 374
f 457 376 373
f 393 398 374
f 378 393 374
f 376 456 375
f 456 376 458
f 458 376 459
f 376 460 459
f 461 376 457
f 461 460 376
f 379 462 385
f 379 412 463
f 464 379 463
f 465 379 464
f 379 465 462
f 380 384 447
f 380 447 448
f 387 381 380
f 448 387 380
f 387 382 381
f 383 466 447
f 384 383 467
f 468 383 447
f 468 467 383
f 383 386 466
f 447 384 467
f 469 385 470
f 386 385 471
f 470 385 472
f 462 472 385
f 469 471 385
f 466 386 473
f 473 386 471
f 474 387 448
f 474 389 387
f 389 474 388
f 449 388 474
f 392 391 420
f 421 392 420
f 399 392 421
f 398 393 394
f 421 396 395
f 399 421 395
f 397 396 421
f 398 397 475
f 475 397 421
f 457 398 461
f 461 398 460
f 475 476 398
f 398 476 460
f 401 427 402
f 406 427 401
f 405 402 427
f 403 404 405
f 477 405 478
f 477 410 405
f 410 409 405
f 479 480 405
f 479 405 427
f 480 478 405
f 481 408 407
f 411 482 407
f 481 407 477
f 477 407 482
f 481 412 408
f 410 477 482
f 411 410 482
f 412 481 483
f 412 483 463
f 412 454 413
f 413 454 414
f 484 414 455
f 414 484 416
f 414 454 455
f 415 416 485
f 417 415 485
f 416 484 485
f 485 486 417
f 419 417 487
f 417 486 487
f 421 418 488
f 419 489 418
f 488 418 489
f 489 419 487
f 490 491 421
f 475 421 491
f 490 421 488
f 422 424 423
f 423 440 431
f 423 424 440
f 426 424 425
f 479 427 428
f 428 492 479
f 429 492 428
f 430 493 429
f 429 493 492
f 440 494 430
f 493 430 494
f 440 430 431
f 433 434 495
f 435 433 496
f 496 433 495
f 497 434 436
f 497 498 434
f 498 499 434
f 500 434 499
f 500 495 434
f 501 502 435
f 440 435 503
f 503 435 504
f 504 435 505
f 502 506 435
f 435 506 505
f 496 501 435
f 437 497 436
f 497 437 438
f 497 438 453
f 503 507 440
f 440 507 494
f 441 508 444
f 442 508 441
f 508 442 509
f 443 509 442
f 445 509 443
f 508 451 444
f 510 509 445
f 445 447 510
f 445 446 447
f 511 447 466
f 511 512 447
f 468 447 467
f 447 512 510
f 474 448 449
f 450 451 452
f 509 452 451
f 451 508 509
f 513 452 509
f 452 514 453
f 452 513 514
f 453 514 515
f 497 453 516
f 516 453 515
f 456 484 455
f 456 458 459
f 459 517 456
f 486 456 518
f 518 456 517
f 456 486 484
f 459 519 517
f 459 460 520
f 519 459 520
f 520 460 476
f 462 465 472
f 521 463 483
f 463 522 464
f 463 521 522
f 523 464 524
f 524 464 522
f 525 464 523
f 525 526 464
f 526 465 464
f 526 527 465
f 470 472 465
f 465 469 470
f 465 473 469
f 465 529 528
f 528 473 465
f 529 465 495
f 495 465 530
f 531 530 465
f 465 527 531
f 466 473 511
f 469 473 471
f 528 510 473
f 511 473 510
f 475 520 476
f 491 520 475
f 524 532 477
f 478 533 477
f 477 533 524
f 481 477 532
f 533 478 534
f 535 478 480
f 535 534 478
f 479 492 480
f 535 480 536
f 536 480 492
f 537 481 532
f 537 483 481
f 537 521 483
f 486 485 484
f 518 538 486
f 487 486 539
f 539 486 538
f 487 488 489
f 490 488 487
f 490 487 539
f 540 491 490
f 490 539 540
f 540 541 491
f 491 541 520
f 492 542 536
f 493 543 492
f 492 543 542
f 507 493 494
f 493 507 543
f 500 529 495
f 495 530 496
f 501 496 530
f 497 516 498
f 516 544 498
f 544 545 498
f 498 545 499
f 500 499 545
f 545 529 500
f 502 501 531
f 531 501 530
f 531 506 502
f 543 507 503
f 503 504 543
f 504 506 543
f 504 505 506
f 543 506 531
f 513 509 546
f 510 546 509
f 547 510 528
f 547 546 510
f 510 512 511
f 513 544 514
f 513 548 544
f 513 546 548
f 514 544 515
f 516 515 544
f 519 549 517
f 518 517 549
f 549 540 518
f 518 540 538
f 519 520 549
f 541 540 520
f 549 520 540
f 524 522 521
f 521 537 524
f 533 523 524
f 523 533 525
f 524 537 532
f 525 534 526
f 525 533 534
f 542 527 526
f 526 534 542
f 527 543 531
f 527 542 543
f 528 550 547
f 528 529 550
f 550 529 545
f 534 535 542
f 536 542 535
f 539 538 540
f 550 544 547
f 548 547 544
f 550 545 544
f 546 547 548
