# Blender 4.0.2
# www.blender.org
mtllib clavicle_r.mtl
o clavicle_r
v -0.072158 0.021791 0.131729
v -0.072779 0.020250 0.131650
v -0.072843 0.022219 0.130981
v -0.075840 0.017389 0.130137
v -0.075065 0.016803 0.130351
v -0.075106 0.020298 0.130374
v -0.078735 0.014294 0.128083
v -0.079369 0.018333 0.127482
v -0.079265 0.020016 0.126856
v -0.077943 0.021008 0.127513
v -0.081032 0.013408 0.126140
v -0.082257 0.013113 0.124375
v -0.080510 0.015040 0.126861
v -0.081504 0.015740 0.125543
v -0.082016 0.018424 0.123815
v -0.079499 0.021930 0.124215
v -0.082929 0.014636 0.123231
v -0.066698 0.021401 0.132147
v -0.065571 0.021231 0.131799
v -0.068368 0.022124 0.132485
v -0.068007 0.022671 0.132266
v -0.067865 0.023524 0.131076
v -0.065740 0.022370 0.132102
v -0.066048 0.023308 0.131442
v -0.065264 0.021794 0.131964
v -0.070519 0.017438 0.129790
v -0.070284 0.021735 0.132317
v -0.070859 0.020121 0.131954
v -0.069892 0.022679 0.131986
v -0.071546 0.023172 0.130179
v -0.075763 0.015054 0.129283
v -0.073881 0.016142 0.129844
v -0.074889 0.014588 0.128679
v -0.073924 0.014492 0.127079
v -0.079160 0.012759 0.126943
v -0.078037 0.012365 0.126642
v -0.075858 0.013197 0.126954
v -0.081323 0.012354 0.125100
v -0.080060 0.011789 0.125085
v -0.081551 0.011831 0.123731
v -0.080847 0.011583 0.123607
v -0.079124 0.011741 0.124557
v -0.077812 0.012189 0.124745
v -0.077792 0.023526 0.121676
v -0.082382 0.012274 0.122812
v -0.082103 0.011742 0.121215
v -0.080847 0.011756 0.120690
v -0.084045 0.015623 0.120303
v -0.083318 0.013007 0.121125
v -0.082307 0.020557 0.121529
v -0.083569 0.018025 0.121009
v -0.081264 0.022022 0.120908
v -0.079925 0.023265 0.118185
v -0.084352 0.014123 0.118616
v -0.084816 0.015528 0.117214
v -0.083874 0.012955 0.117933
v -0.084378 0.018988 0.117987
v -0.083236 0.020995 0.117243
v -0.084209 0.020038 0.115095
v -0.062154 0.022680 0.130478
v -0.062150 0.023196 0.130203
v -0.061899 0.022057 0.130122
v -0.066265 0.019295 0.130488
v -0.062746 0.020021 0.129261
v -0.064672 0.017888 0.128173
v -0.064482 0.022224 0.131756
v -0.065680 0.024017 0.130119
v -0.064220 0.021561 0.131418
v -0.064023 0.023081 0.131248
v -0.064066 0.023702 0.130519
v -0.064039 0.024182 0.129471
v -0.062927 0.023757 0.129906
v -0.070324 0.016426 0.128301
v -0.067214 0.017353 0.128764
v -0.066228 0.025213 0.126314
v -0.073459 0.014689 0.126003
v -0.070403 0.015749 0.124597
v -0.068722 0.025380 0.123719
v -0.076643 0.013509 0.120535
v -0.079034 0.013130 0.115593
v -0.084676 0.014174 0.116245
v -0.084908 0.015102 0.114912
v -0.082925 0.012461 0.116814
v -0.084451 0.013922 0.114983
v -0.084903 0.018327 0.114603
v -0.080707 0.022952 0.113260
v -0.083921 0.014348 0.111848
v -0.084476 0.015176 0.111371
v -0.084573 0.016745 0.110325
v -0.082996 0.021138 0.110907
v -0.084152 0.019516 0.110333
v -0.061191 0.021827 0.129325
v -0.061028 0.022407 0.129455
v -0.060992 0.022896 0.129329
v -0.061277 0.023488 0.128788
v -0.060778 0.023295 0.128242
v -0.060280 0.022113 0.128020
v -0.062101 0.018376 0.126481
v -0.060748 0.020463 0.127479
v -0.059823 0.021540 0.125662
v -0.064753 0.017296 0.126360
v -0.063107 0.025314 0.125075
v -0.064601 0.025816 0.123044
v -0.061715 0.025164 0.123110
v -0.072644 0.025606 0.117015
v -0.075179 0.025379 0.112296
v -0.081543 0.013333 0.113054
v -0.083491 0.015911 0.107663
v -0.082770 0.020751 0.106700
v -0.083469 0.019259 0.106416
v -0.061079 0.018901 0.123854
v -0.059259 0.021925 0.121486
v -0.059299 0.023263 0.122087
v -0.062536 0.017718 0.123998
v -0.064787 0.016765 0.122228
v -0.062347 0.018180 0.120535
v -0.060779 0.019494 0.120269
v -0.060288 0.024651 0.119406
v -0.061594 0.025536 0.117801
v -0.063145 0.026001 0.117984
v -0.063478 0.025884 0.115753
v -0.067689 0.016161 0.118640
v -0.067847 0.026253 0.116222
v -0.077633 0.013074 0.108540
v -0.076159 0.025083 0.108544
v -0.082011 0.014801 0.107485
v -0.079116 0.023168 0.104886
v -0.082296 0.015708 0.104895
v -0.059981 0.024340 0.118180
v -0.059284 0.022198 0.116780
v -0.063252 0.017809 0.117275
v -0.060668 0.019311 0.116444
v -0.061894 0.018240 0.113864
v -0.060631 0.024189 0.115446
v -0.064839 0.017384 0.114371
v -0.068192 0.016189 0.113164
v -0.070233 0.015264 0.111383
v -0.067187 0.016796 0.110147
v -0.072301 0.025471 0.104816
v -0.079405 0.013331 0.104802
v -0.080168 0.013876 0.101920
v -0.080849 0.014953 0.099980
v -0.081290 0.020196 0.099669
v -0.079528 0.021119 0.097030
v -0.081218 0.018180 0.097791
v -0.060038 0.020468 0.112848
v -0.059909 0.021663 0.113602
v -0.062588 0.018230 0.109656
v -0.060301 0.019836 0.109837
v -0.060758 0.021662 0.110041
v -0.065390 0.024903 0.108082
v -0.078409 0.011746 0.100106
v -0.077197 0.011044 0.098385
v -0.076114 0.022837 0.095739
v -0.077605 0.021131 0.093047
v -0.080067 0.018963 0.094753
v -0.078915 0.020230 0.093792
v -0.060726 0.019096 0.108818
v -0.060068 0.019119 0.106315
v -0.061183 0.018163 0.105508
v -0.060956 0.021611 0.105993
v -0.059727 0.019944 0.105418
v -0.074290 0.011774 0.098655
v -0.076398 0.010588 0.096136
v -0.073963 0.010745 0.094532
v -0.078524 0.010348 0.095310
v -0.078578 0.009109 0.092337
v -0.079079 0.009703 0.091623
v -0.077461 0.008918 0.092706
v -0.077913 0.008616 0.091553
v -0.078316 0.008862 0.091190
v -0.079905 0.011369 0.094081
v -0.079398 0.011380 0.091170
v -0.079395 0.015156 0.090679
v -0.078222 0.017894 0.090144
v -0.059427 0.017712 0.101974
v -0.058342 0.018484 0.101419
v -0.059754 0.021434 0.099207
v -0.058140 0.019373 0.100519
v -0.064031 0.016035 0.099455
v -0.063821 0.024050 0.098745
v -0.066398 0.014970 0.094783
v -0.069061 0.014013 0.096217
v -0.074613 0.010014 0.092675
v -0.077074 0.008707 0.091530
v -0.078497 0.009914 0.090024
v -0.077179 0.008685 0.090780
v -0.077633 0.008884 0.090350
v -0.076322 0.009285 0.089749
v -0.074491 0.009709 0.090333
v -0.076501 0.011909 0.087175
v -0.075066 0.019371 0.086550
v -0.078765 0.012618 0.088979
v -0.077630 0.014587 0.087479
v -0.057826 0.016770 0.097998
v -0.057058 0.019545 0.097443
v -0.063712 0.015437 0.094779
v -0.065237 0.014024 0.089881
v -0.072547 0.010864 0.085812
v -0.071732 0.019883 0.082946
v -0.072800 0.017912 0.082934
v -0.055739 0.017735 0.096420
v -0.054155 0.017023 0.094044
v -0.054350 0.018534 0.093600
v -0.059754 0.024215 0.088042
v -0.070664 0.011008 0.086946
v -0.069080 0.011164 0.084276
v -0.069193 0.011130 0.082131
v -0.072395 0.015809 0.082255
v -0.071738 0.013190 0.082386
v -0.069620 0.011839 0.081555
v -0.070747 0.018475 0.081524
v -0.068303 0.018966 0.080408
v -0.070260 0.021182 0.083602
v -0.069917 0.020048 0.081701
v -0.054727 0.015346 0.092137
v -0.051870 0.016344 0.091706
v -0.052055 0.017016 0.091947
v -0.052211 0.017587 0.091660
v -0.053009 0.019625 0.089309
v -0.059541 0.014019 0.088066
v -0.062677 0.012801 0.084914
v -0.059861 0.022858 0.081623
v -0.060753 0.023968 0.085199
v -0.066471 0.011324 0.082557
v -0.066507 0.010970 0.080803
v -0.068707 0.015110 0.079919
v -0.066898 0.012713 0.079317
v -0.066632 0.020504 0.080669
v -0.052490 0.014021 0.087339
v -0.052706 0.022459 0.082572
v -0.055375 0.022634 0.080080
v -0.061069 0.010765 0.079889
v -0.062791 0.013869 0.077232
v -0.060484 0.020284 0.078700
v -0.065060 0.011534 0.078998
v -0.046786 0.015000 0.087104
v -0.046761 0.016156 0.086882
v -0.047458 0.017897 0.085247
v -0.049011 0.020632 0.082846
v -0.052282 0.012856 0.081799
v -0.053639 0.022713 0.081203
v -0.056368 0.011684 0.080269
v -0.057768 0.011169 0.078546
v -0.056670 0.019040 0.075607
v -0.060750 0.010751 0.078386
v -0.061203 0.011039 0.077957
v -0.058958 0.011474 0.077000
v -0.058626 0.013120 0.075735
v -0.060219 0.015361 0.076227
v -0.045778 0.012212 0.083678
v -0.043104 0.017019 0.083119
v -0.042803 0.015943 0.083746
v -0.046111 0.018720 0.082862
v -0.045839 0.019762 0.080008
v -0.046071 0.020222 0.078265
v -0.051898 0.011797 0.078607
v -0.056070 0.011697 0.075939
v -0.052636 0.011127 0.077395
v -0.053694 0.011057 0.075814
v -0.053408 0.011339 0.074721
v -0.053562 0.012288 0.073797
v -0.053142 0.019955 0.074774
v -0.039343 0.014518 0.080972
v -0.038911 0.016046 0.079752
v -0.045768 0.011827 0.078764
v -0.047817 0.020359 0.074709
v -0.052415 0.014389 0.072442
v -0.039120 0.012015 0.080534
v -0.037968 0.015240 0.079520
v -0.041168 0.009973 0.078124
v -0.039416 0.010372 0.079799
v -0.039153 0.009212 0.078140
v -0.039653 0.017735 0.077921
v -0.043840 0.011111 0.073995
v -0.046966 0.014011 0.069429
v -0.047356 0.016906 0.070112
v -0.033551 0.009133 0.076334
v -0.033771 0.011733 0.076840
v -0.033307 0.013611 0.076170
v -0.034683 0.016493 0.075005
v -0.035530 0.008105 0.076429
v -0.034406 0.017158 0.073160
v -0.041020 0.010700 0.073287
v -0.045142 0.010132 0.071139
v -0.045040 0.010061 0.069975
v -0.045523 0.010811 0.069342
v -0.042927 0.010109 0.070279
v -0.043522 0.010115 0.069436
v -0.043803 0.010452 0.068793
v -0.043059 0.010381 0.068567
v -0.043216 0.010828 0.068176
v -0.043991 0.011902 0.068017
v -0.032426 0.006575 0.073693
v -0.031766 0.014925 0.074085
v -0.034600 0.006987 0.074443
v -0.033163 0.006642 0.072933
v -0.035414 0.007728 0.073565
v -0.037417 0.009593 0.072286
v -0.037966 0.009448 0.068086
v -0.039335 0.017921 0.068024
v -0.040842 0.012086 0.065847
v -0.039756 0.010102 0.066542
v -0.026420 0.010164 0.072147
v -0.029971 0.006304 0.072404
v -0.030776 0.006198 0.071832
v -0.027483 0.008359 0.072746
v -0.028266 0.006787 0.072395
v -0.028140 0.012364 0.072741
v -0.031749 0.006670 0.071370
v -0.031448 0.007537 0.068798
v -0.030984 0.016585 0.065374
v -0.033049 0.008367 0.067270
v -0.034761 0.008706 0.064958
v -0.033870 0.015986 0.063666
v -0.035599 0.014701 0.063147
v -0.038355 0.010613 0.064932
v -0.025967 0.005244 0.069388
v -0.028307 0.005790 0.069056
v -0.033574 0.010106 0.061484
v -0.034154 0.012205 0.061564
v -0.022653 0.006004 0.068679
v -0.025223 0.015389 0.063917
v -0.030748 0.008121 0.060791
v -0.029072 0.009969 0.057861
v -0.018835 0.003559 0.064306
v -0.018663 0.007593 0.066289
v -0.018656 0.010168 0.065610
v -0.020391 0.014511 0.060148
v -0.022672 0.014849 0.058914
v -0.026774 0.013918 0.058076
v -0.028481 0.012021 0.057751
v -0.014948 0.002624 0.060411
v -0.018284 0.012610 0.062853
v -0.015583 0.011853 0.060570
v -0.018307 0.002712 0.061520
v -0.016557 0.013459 0.059014
v -0.021546 0.013700 0.054225
v -0.023415 0.006057 0.054747
v -0.023280 0.009014 0.052859
v -0.023749 0.012409 0.054386
v -0.013931 0.003778 0.061039
v -0.011571 0.005871 0.059351
v -0.012821 0.009360 0.059069
v -0.014939 0.002014 0.058259
v -0.013585 0.013000 0.055341
v -0.015842 0.014000 0.055898
v -0.019648 0.004213 0.053041
v -0.009936 0.008210 0.056932
v -0.009889 0.009689 0.055607
v -0.016859 0.002471 0.056749
v -0.011511 0.012524 0.053184
v -0.011174 0.013392 0.050783
v -0.018087 0.005592 0.048571
v -0.006947 0.004090 0.053856
v -0.006690 0.006509 0.053775
v -0.010581 0.000335 0.050060
v -0.012410 0.013810 0.048971
v -0.014336 0.012935 0.046723
v -0.013948 0.003023 0.045738
v -0.017195 0.007587 0.046622
v -0.016104 0.010358 0.045983
v -0.006457 0.000791 0.050452
v -0.004088 0.004653 0.050295
v -0.005262 0.010151 0.049794
v -0.003796 0.007949 0.049428
v -0.004837 0.012011 0.046747
v -0.007290 0.000133 0.049690
v -0.008589 0.013940 0.045517
v -0.005799 0.013390 0.044965
v -0.009122 0.013633 0.041733
v -0.014677 0.004844 0.044066
v -0.013377 0.007339 0.041159
v -0.011673 0.011525 0.040691
v -0.004564 0.001526 0.049103
v -0.001799 0.005312 0.046807
v -0.002282 0.002863 0.046737
v -0.003817 0.000115 0.045071
v -0.010181 0.002082 0.039189
v -0.011631 0.006361 0.037366
v 0.000626 0.007161 0.042191
v -0.005389 -0.000571 0.043260
v -0.001454 0.012420 0.041080
v -0.001218 0.013132 0.038018
v -0.011261 0.004103 0.037305
v -0.009204 0.010471 0.033553
v 0.000366 0.003096 0.041767
v -0.000218 0.000233 0.036864
v -0.000427 0.001423 0.041249
v 0.002203 0.005216 0.038743
v 0.000607 0.010255 0.040445
v 0.000734 0.011893 0.037582
v -0.003402 0.014182 0.034158
v -0.000996 0.013616 0.032752
v -0.005480 -0.000247 0.036349
v -0.007312 0.012543 0.031043
v -0.005178 0.013977 0.030427
v -0.009165 0.003231 0.030963
v -0.007824 0.001842 0.030144
v -0.009232 0.005621 0.028879
v -0.008223 0.010339 0.029737
v 0.003062 0.002776 0.034723
v 0.003734 0.006846 0.034597
v 0.003628 0.008750 0.033634
v 0.001138 0.012367 0.032071
v -0.002090 0.014058 0.030233
v -0.000842 0.013540 0.028486
v -0.003116 0.014029 0.025638
v -0.005086 0.013326 0.023167
v -0.008000 0.008637 0.022345
v 0.004236 0.004545 0.032886
v 0.004560 0.009119 0.028546
v -0.005725 0.001001 0.021099
v -0.008327 0.003180 0.021865
v -0.008562 0.005232 0.020868
v -0.008524 0.003938 0.019318
v 0.004989 0.002999 0.028577
v 0.005502 0.005166 0.027628
v 0.005202 0.006964 0.028786
v 0.003671 -0.000423 0.024429
v -0.001421 -0.001793 0.021485
v -0.005013 0.000028 0.018189
v -0.003130 0.014090 0.018117
v -0.006989 0.000718 0.016595
v -0.008217 0.002366 0.017512
v -0.008556 0.006861 0.012203
v 0.002739 -0.001325 0.022942
v 0.005376 0.000427 0.022166
v 0.004723 -0.001164 0.020806
v 0.006246 0.002376 0.021382
v 0.006435 0.005671 0.021193
v 0.006091 0.007480 0.019446
v 0.005055 0.008960 0.020269
v -0.000988 -0.002310 0.017582
v -0.002097 -0.001624 0.015555
v 0.002056 0.011553 0.014841
v -0.002082 0.013794 0.014421
v -0.006379 -0.000055 0.014503
v -0.004753 -0.000246 0.015545
v -0.004175 -0.001054 0.012813
v -0.006940 -0.000696 0.012175
v -0.006811 -0.001791 0.010507
v -0.007329 -0.001884 0.010058
v -0.008729 0.002442 0.012086
v -0.008220 -0.000064 0.010804
v -0.007085 0.011367 0.009819
v -0.004401 0.013486 0.009489
v -0.009326 0.007371 0.006557
v -0.008535 0.010870 0.005265
v -0.009210 0.011343 0.003536
v 0.003051 -0.004081 0.015280
v 0.006019 0.007064 0.013959
v -0.000432 -0.003263 0.014928
v -0.001925 0.013206 0.008023
v 0.000730 0.012408 0.009650
v -0.006663 -0.003028 0.009090
v -0.006666 -0.003816 0.008294
v -0.004439 -0.002813 0.009346
v -0.005416 -0.003998 0.008409
v -0.002776 -0.003743 0.009477
v -0.003595 -0.004121 0.008547
v -0.004157 0.013524 0.005398
v -0.002781 0.013084 0.004469
v -0.007188 -0.005441 0.005839
v -0.007707 0.012381 0.004580
v -0.008940 0.011871 0.003243
v -0.006435 0.013248 0.004930
v -0.007278 0.013096 0.003355
v -0.005982 0.013503 0.003721
v -0.007187 0.013037 0.002680
v -0.006910 0.012844 0.002183
v -0.005581 0.013106 0.002480
v -0.009898 -0.002848 0.002211
v -0.010157 0.001999 0.003888
v -0.010309 0.005784 0.003853
v -0.010498 0.009268 0.002545
v -0.011056 0.006348 0.001722
v -0.010588 0.009473 0.001345
v -0.010161 0.009829 0.000804
v -0.010772 0.007046 -0.000177
v -0.010151 0.007837 -0.000657
v -0.009682 0.011172 0.002529
v -0.008781 0.012102 0.002260
v -0.009387 0.011441 0.001859
v -0.008392 0.012159 0.001849
v -0.008903 0.011599 0.001500
v -0.008121 0.011796 0.001338
v 0.006596 -0.003397 0.013927
v 0.007707 0.002769 0.011917
v -0.000054 -0.006023 0.009874
v -0.000473 -0.007589 0.008039
v 0.002600 0.010956 0.006724
v -0.004229 -0.006608 0.007101
v -0.002193 -0.006914 0.007607
v -0.003770 -0.010308 0.004382
v -0.002832 0.008374 -0.000927
v -0.005012 0.011194 0.000306
v -0.007597 -0.010793 0.001128
v -0.009679 -0.008484 0.000262
v -0.009293 -0.009834 -0.000259
v -0.008722 0.009056 -0.000750
v -0.009394 0.007630 -0.001319
v -0.007813 0.008182 -0.001385
v -0.010671 -0.006474 -0.000650
v -0.010274 -0.008490 -0.001430
v -0.011344 -0.004804 -0.002263
v -0.010985 -0.006615 -0.002617
v -0.011292 -0.004663 -0.003498
v -0.011030 -0.000240 -0.000703
v -0.011362 -0.001984 -0.003406
v -0.010973 -0.000974 -0.004019
v -0.010902 -0.002423 -0.004401
v -0.011070 0.001979 -0.001524
v -0.010805 0.003201 -0.001877
v -0.010194 0.003938 -0.002295
v -0.008694 0.003775 -0.002887
v 0.008275 -0.001496 0.012377
v 0.007836 -0.003574 0.010553
v 0.006399 -0.005335 0.009226
v 0.006842 -0.004823 0.007360
v 0.008187 -0.003080 0.007870
v 0.008429 -0.001490 0.007552
v 0.006263 0.005452 0.008011
v 0.007707 0.002200 0.008299
v 0.006880 0.002747 0.004811
v 0.002030 -0.007940 0.008581
v 0.002627 -0.008474 0.007393
v 0.003401 -0.008091 0.006241
v 0.004845 -0.004385 0.004349
v 0.004167 0.007895 0.003328
v 0.003686 0.007606 0.002096
v 0.002704 0.009602 0.002333
v -0.000298 -0.010225 0.005308
v 0.000090 -0.010477 0.004324
v -0.000637 -0.010814 0.003074
v 0.000904 -0.009787 0.003612
v 0.001980 -0.007924 0.003258
v -0.000346 -0.010154 0.002224
v 0.002250 -0.002614 0.001850
v 0.000585 0.007961 -0.000129
v 0.001213 0.010546 0.001890
v 0.002091 0.009330 0.001262
v 0.000208 0.009519 0.000261
v -0.005572 -0.011823 0.001663
v -0.003496 -0.011597 0.002704
v -0.004151 -0.011923 0.000960
v -0.002742 -0.011221 0.000770
v -0.002657 -0.010068 -0.000075
v -0.000552 0.005183 -0.000823
v -0.007683 -0.011330 0.000276
v -0.005974 -0.011958 0.000589
v -0.007072 -0.011344 -0.000507
v -0.004654 -0.011253 -0.000408
v -0.008798 -0.010439 -0.000951
v -0.005991 -0.009090 -0.002482
v -0.004611 -0.005823 -0.002673
v -0.004295 -0.000259 -0.002681
v -0.006012 0.003580 -0.002538
v -0.009808 -0.008633 -0.002345
v -0.008025 -0.009421 -0.002528
v -0.007493 -0.007847 -0.003451
v -0.010625 -0.004372 -0.004315
v -0.010051 -0.006096 -0.003942
v -0.009454 -0.004689 -0.004536
v -0.007560 -0.004112 -0.004320
v -0.009874 -0.000362 -0.004568
v -0.008336 -0.000084 -0.004442
v -0.009813 -0.002584 -0.004766
v 0.007693 -0.003040 0.005952
v 0.008164 -0.001958 0.006076
v 0.007926 -0.000402 0.005524
v 0.007070 -0.002247 0.004463
v 0.007259 -0.001204 0.004208
v 0.006534 0.001123 0.003349
v 0.006158 -0.001196 0.003367
v -0.078524 0.010348 0.095310
v -0.058342 0.018484 0.101419
v -0.072547 0.010864 0.085812
v -0.055739 0.017735 0.096420
v -0.069193 0.011130 0.082131
v -0.045778 0.012212 0.083678
v -0.026774 0.013918 0.058076
v -0.010985 -0.006615 -0.002617
vn -0.3259 -0.0469 0.9442
vn -0.1703 0.1096 0.9793
vn -0.3822 0.3703 0.8467
vn 0.0006 -0.3858 0.9226
vn -0.4576 0.6671 0.5878
vn -0.2041 0.6776 0.7065
vn -0.2737 0.8936 0.3558
vn -0.1715 -0.3546 0.9191
vn -0.4815 -0.0561 0.8747
vn -0.4271 -0.2983 0.8536
vn -0.0449 -0.5888 0.8070
vn -0.5554 0.2505 0.7930
vn -0.5836 0.5750 0.5734
vn -0.5546 0.7385 0.3835
vn -0.2816 -0.6576 0.6987
vn -0.6831 0.1779 0.7083
vn -0.6854 -0.0011 0.7281
vn -0.7027 0.4095 0.5818
vn -0.8259 0.2738 0.4928
vn -0.6722 -0.2824 0.6844
vn -0.8188 0.1026 0.5649
vn -0.8426 -0.2896 0.4540
vn -0.5755 -0.6350 0.5153
vn -0.9124 -0.0224 0.4086
vn -0.8668 -0.4438 0.2273
vn -0.9028 0.2125 0.3738
vn -0.7829 0.5071 0.3605
vn 0.1492 -0.3629 0.9198
vn -0.0089 0.0785 0.9969
vn 0.1813 0.2626 0.9477
vn 0.2540 -0.6465 0.7194
vn 0.2791 -0.2332 0.9315
vn 0.2643 -0.5164 0.8145
vn 0.4351 -0.4308 0.7907
vn 0.0010 0.5905 0.8070
vn -0.0908 0.8940 0.4388
vn 0.0780 0.7603 0.6449
vn 0.0024 0.9228 0.3852
vn 0.3883 0.0404 0.9206
vn 0.2979 0.5538 0.7775
vn 0.1723 0.8294 0.5314
vn -0.0573 0.9699 0.2368
vn 0.1945 -0.6210 0.7593
vn 0.2171 -0.6965 0.6839
vn 0.2809 -0.8811 0.3805
vn 0.2393 -0.8358 0.4942
vn -0.1619 0.9721 0.1695
vn -0.3357 0.9188 0.2075
vn 0.2757 -0.7744 0.5694
vn 0.1139 -0.8865 0.4484
vn 0.4089 -0.8771 0.2520
vn 0.4799 -0.8583 0.1817
vn 0.4414 -0.8969 0.0273
vn 0.2825 -0.9550 0.0905
vn 0.1491 -0.9794 -0.1360
vn 0.3556 -0.9321 -0.0686
vn 0.3973 -0.9171 -0.0323
vn -0.1574 -0.9198 0.3596
vn -0.5151 -0.8124 0.2733
vn -0.7455 -0.6223 0.2388
vn 0.2015 -0.9786 0.0414
vn -0.1060 -0.9901 0.0919
vn -0.5991 0.7639 0.2399
vn -0.4439 0.8914 0.0913
vn -0.2490 0.9683 0.0192
vn -0.3905 -0.9206 0.0096
vn -0.9520 -0.0156 0.3057
vn -0.9421 -0.2694 0.1996
vn -0.9883 -0.0416 0.1466
vn -0.9251 0.3154 0.2114
vn -0.7196 0.6851 0.1126
vn -0.9817 0.1903 -0.0031
vn -0.7348 -0.6779 0.0243
vn -0.9277 -0.3724 0.0263
vn -0.9833 -0.1756 -0.0472
vn -0.8381 0.5452 0.0191
vn -0.9779 -0.0552 -0.2019
vn -0.9155 0.3820 -0.1263
vn -0.5169 0.8559 -0.0134
vn -0.6900 0.7201 -0.0724
vn 0.5563 0.1031 0.8245
vn 0.4800 0.6053 0.6350
vn 0.4979 -0.6093 0.6171
vn 0.5806 -0.3481 0.7360
vn 0.7609 0.3830 0.5238
vn 0.5072 0.7923 0.3391
vn 0.6912 -0.4268 0.5831
vn 0.7778 -0.1078 0.6192
vn 0.3527 -0.8077 0.4725
vn 0.1301 0.9329 0.3360
vn 0.2995 0.8448 0.4434
vn 0.2344 0.9498 0.2072
vn 0.2886 -0.9356 0.2035
vn -0.1955 0.9761 0.0944
vn 0.3553 -0.9330 0.0564
vn 0.1784 -0.9804 -0.0838
vn -0.2872 -0.9409 -0.1796
vn -0.7708 -0.6200 -0.1464
vn -0.8804 -0.4155 -0.2286
vn -0.1549 -0.9697 -0.1890
vn -0.5454 -0.7976 -0.2576
vn -0.7970 -0.5277 -0.2939
vn 0.9378 -0.0391 0.3451
vn 0.7606 0.5968 0.2556
vn 0.7760 -0.5145 0.3649
vn 0.5752 -0.7620 0.2976
vn 0.4899 -0.8706 0.0461
vn 0.7593 -0.6492 0.0442
vn 0.4485 0.8837 0.1338
vn 0.9588 -0.2338 0.1613
vn 0.9140 0.3904 0.1110
vn 0.3176 -0.9482 0.0062
vn 0.0601 0.9913 0.1171
vn 0.2742 -0.9616 -0.0121
vn -0.0255 0.9997 0.0021
vn -0.0859 0.9899 -0.1129
vn -0.0356 -0.9969 0.0706
vn -0.3171 0.9460 -0.0666
vn -0.5043 -0.8432 -0.1864
vn -0.5071 0.8494 -0.1461
vn -0.9418 0.2471 -0.2278
vn -0.9693 0.0432 -0.2420
vn -0.7434 -0.6328 -0.2168
vn -0.7487 0.6421 -0.1645
vn -0.8247 0.5104 -0.2435
vn 0.9680 -0.2483 0.0364
vn 0.7572 -0.6531 0.0125
vn 0.6481 0.7600 0.0488
vn 0.5510 -0.8335 -0.0410
vn 0.7475 -0.6639 0.0227
vn 0.1790 0.9838 0.0034
vn 0.4520 0.8876 -0.0885
vn 0.7935 0.5989 -0.1082
vn 0.7076 0.6584 -0.2564
vn 0.4089 -0.9122 -0.0245
vn 0.2727 0.9488 -0.1596
vn 0.3547 0.9259 -0.1297
vn 0.4044 -0.9133 -0.0474
vn 0.3235 -0.9249 0.1999
vn -0.3633 0.9039 -0.2256
vn -0.5388 -0.8239 0.1756
vn -0.5543 -0.8282 0.0829
vn -0.9068 -0.4148 -0.0748
vn -0.7377 -0.6747 -0.0233
vn 0.9929 0.0195 -0.1170
vn 0.9538 0.2208 -0.2036
vn 0.3133 -0.9489 -0.0370
vn 0.4876 -0.8730 -0.0050
vn 0.9642 -0.2623 -0.0387
vn 0.8318 0.5326 -0.1565
vn 0.3820 -0.9229 0.0488
vn 0.3547 -0.9343 0.0355
vn 0.4190 -0.8950 0.1529
vn -0.9168 -0.3977 0.0368
vn -0.6390 0.7274 -0.2502
vn 0.9701 -0.2383 0.0458
vn 0.6254 -0.7691 0.1317
vn 0.3999 -0.8902 0.2184
vn 0.6945 0.7190 0.0252
vn 0.3757 0.9220 0.0935
vn 0.2254 -0.9567 0.1840
vn 0.0259 -0.9695 0.2437
vn -0.0838 -0.9266 0.3666
vn -0.5585 0.7517 -0.3509
vn -0.7059 -0.6666 0.2394
vn -0.5813 -0.7864 0.2090
vn -0.8773 0.3337 -0.3450
vn -0.9178 0.1220 -0.3779
vn -0.8013 0.3660 -0.4732
vn -0.7389 0.5601 -0.3746
vn 0.9433 0.2536 0.2144
vn 0.8053 -0.5527 0.2147
vn 0.4397 -0.8389 0.3208
vn 0.9332 0.1207 0.3385
vn 0.8427 0.4475 0.2992
vn 0.6098 0.7726 0.1771
vn 0.3010 -0.9402 0.1597
vn 0.3806 -0.8938 0.2373
vn 0.3189 -0.9449 0.0735
vn 0.1557 -0.9429 0.2945
vn 0.3968 -0.8926 0.2140
vn -0.3474 0.8512 -0.3935
vn -0.8724 -0.4635 -0.1554
vn -0.9470 -0.1631 -0.2766
vn 0.0405 -0.9386 0.3426
vn -0.5977 -0.7659 -0.2370
vn -0.6996 -0.4584 -0.5482
vn 0.2576 -0.9584 0.1229
vn -0.2216 -0.9740 0.0477
vn -0.2776 -0.8069 -0.5214
vn -0.8283 -0.1304 -0.5449
vn -0.7674 0.0599 -0.6383
vn -0.6764 0.5331 -0.5082
vn 0.6583 -0.6376 0.4001
vn 0.4091 -0.8262 0.3873
vn 0.7542 0.5705 0.3250
vn 0.0524 -0.9845 0.1673
vn 0.1812 -0.9746 0.1315
vn -0.0731 0.9742 -0.2135
vn 0.3565 -0.9340 0.0245
vn 0.1105 -0.9706 -0.2136
vn 0.0533 -0.8752 -0.4808
vn -0.5497 -0.4393 -0.7105
vn -0.5911 -0.3794 -0.7118
vn 0.1475 -0.9823 -0.1155
vn -0.6770 0.2402 -0.6957
vn 0.6569 -0.5156 0.5501
vn 0.2229 -0.8870 0.4043
vn 0.7181 -0.2706 0.6411
vn 0.1963 -0.9442 0.2644
vn 0.2483 0.9663 0.0674
vn -0.4307 -0.6872 -0.5850
vn -0.0099 -0.9998 0.0164
vn -0.6256 -0.0298 -0.7796
vn -0.5754 0.5748 -0.5819
vn -0.5231 0.2381 -0.8183
vn 0.8294 0.3221 0.4565
vn 0.7416 0.4768 0.4718
vn 0.0178 -0.9681 0.2499
vn 0.5481 0.7456 0.3790
vn 0.1491 -0.9523 0.2662
vn 0.0793 -0.9348 0.3462
vn -0.2583 0.6649 -0.7009
vn -0.1608 0.8805 -0.4459
vn -0.3000 0.6103 -0.7332
vn -0.5033 -0.5589 -0.6590
vn -0.4339 -0.7189 -0.5431
vn -0.4827 -0.0176 -0.8756
vn -0.4106 0.5879 -0.6970
vn -0.3679 0.3255 -0.8710
vn 0.2237 -0.7281 0.6479
vn 0.6138 -0.3155 0.7236
vn 0.7062 0.2087 0.6766
vn 0.6465 0.5848 0.4900
vn 0.6152 0.4208 0.6667
vn 0.0692 -0.9589 0.2750
vn 0.3476 0.9309 0.1123
vn 0.1887 0.9750 -0.1174
vn -0.0127 0.9388 -0.3443
vn -0.4026 0.1481 -0.9033
vn -0.1382 -0.9737 -0.1813
vn -0.3290 -0.6267 -0.7064
vn -0.4543 -0.3030 -0.8377
vn -0.3881 -0.1166 -0.9142
vn -0.1989 -0.9732 0.1157
vn -0.1518 -0.9686 0.1970
vn 0.5729 -0.2903 0.7665
vn 0.4923 0.7105 0.5028
vn 0.4721 0.8175 0.3300
vn 0.0681 -0.9814 0.1793
vn 0.0939 -0.9955 -0.0120
vn 0.1324 -0.9517 0.2771
vn -0.0026 -0.9707 -0.2404
vn -0.2131 -0.7449 -0.6323
vn -0.3598 -0.3516 -0.8643
vn 0.5032 0.6855 0.5262
vn 0.6235 0.3085 0.7184
vn 0.4541 0.7845 0.4222
vn 0.3037 0.9509 0.0601
vn -0.1644 -0.9803 -0.1097
vn -0.2783 -0.8202 -0.4998
vn -0.0937 -0.8074 -0.5825
vn -0.2189 0.7428 -0.6328
vn -0.4082 0.4795 -0.7768
vn -0.4306 0.3275 -0.8410
vn -0.4307 -0.5091 -0.7452
vn -0.4614 -0.1067 -0.8807
vn 0.6386 0.0689 0.7664
vn 0.6145 0.3925 0.6843
vn 0.4132 0.8701 0.2688
vn 0.0731 0.9603 -0.2692
vn 0.3811 0.8910 0.2467
vn 0.1549 -0.9229 0.3526
vn 0.0607 -0.9676 0.2450
vn 0.0205 -0.9867 0.1613
vn -0.3623 -0.8051 -0.4697
vn -0.1886 -0.9412 -0.2804
vn 0.5574 0.6277 0.5434
vn 0.2688 -0.6479 0.7127
vn 0.5296 -0.2607 0.8072
vn -0.1649 -0.9184 0.3596
vn -0.3885 -0.9203 -0.0462
vn 0.4387 0.8058 0.3977
vn -0.2132 -0.9751 0.0610
vn -0.0264 -0.9795 0.1997
vn 0.3022 0.9435 0.1357
vn -0.4975 0.0108 -0.8674
vn 0.4309 -0.3583 0.8282
vn 0.5734 0.0072 0.8192
vn 0.6095 0.2625 0.7481
vn 0.5620 0.5737 0.5959
vn -0.4113 -0.8948 -0.1740
vn 0.1479 -0.7526 0.6417
vn -0.2692 -0.9547 0.1265
vn 0.4802 0.7549 0.4466
vn -0.2075 -0.9768 0.0522
vn -0.0212 -0.9878 0.1546
vn -0.0381 0.9094 -0.4141
vn 0.0995 0.9792 -0.1769
vn -0.4518 -0.5316 -0.7164
vn -0.5008 -0.3162 -0.8057
vn 0.0456 -0.9160 0.3986
vn -0.5034 -0.8089 -0.3038
vn -0.4223 -0.8815 -0.2110
vn -0.2028 -0.9790 0.0186
vn -0.1141 -0.9752 -0.1897
vn -0.2713 -0.7679 -0.5803
vn -0.4227 -0.5682 -0.7060
vn -0.3292 -0.7818 -0.5296
vn -0.3366 -0.8466 -0.4123
vn -0.5288 -0.2613 -0.8075
vn -0.4798 -0.6036 -0.6368
vn -0.5515 0.0520 -0.8326
vn -0.1494 0.8223 -0.5491
vn 0.3476 -0.6074 0.7143
vn 0.1031 -0.8953 0.4333
vn 0.5875 0.3653 0.7221
vn 0.5296 0.7053 0.4713
vn -0.3309 -0.9291 -0.1651
vn -0.3537 -0.8864 -0.2986
vn -0.1897 -0.9818 0.0036
vn -0.3157 -0.9488 -0.0127
vn -0.3530 -0.9229 -0.1535
vn -0.3789 0.4796 -0.7915
vn 0.0401 -0.9276 0.3713
vn -0.3468 -0.9294 -0.1266
vn 0.5103 -0.2252 0.8300
vn 0.5944 0.1066 0.7971
vn 0.4585 -0.4784 0.7489
vn -0.5089 -0.7653 -0.3942
vn -0.5834 -0.3558 -0.7301
vn -0.6176 -0.0963 -0.7806
vn -0.6171 -0.5830 -0.5286
vn 0.6473 -0.0524 0.7604
vn -0.3379 -0.9396 -0.0541
vn 0.0138 0.9862 -0.1648
vn -0.5383 0.3380 -0.7720
vn 0.5843 -0.4632 0.6663
vn 0.7188 0.0062 0.6952
vn 0.4547 0.8306 0.3215
vn 0.2352 0.9669 0.0993
vn -0.4938 -0.8287 -0.2635
vn -0.7055 -0.0759 -0.7046
vn -0.4708 0.5587 -0.6828
vn -0.1219 0.9047 -0.4082
vn 0.2636 -0.7981 0.5418
vn -0.1316 -0.9827 0.1302
vn 0.6542 0.3723 0.6583
vn 0.6850 0.4490 0.5737
vn -0.5437 0.4839 -0.6857
vn -0.3185 0.8531 -0.4133
vn 0.2743 -0.8568 0.4366
vn -0.0436 -0.9860 0.1609
vn 0.6510 0.5901 0.4775
vn 0.2923 0.9433 0.1573
vn -0.4299 0.8197 -0.3785
vn 0.5375 0.7563 0.3731
vn 0.6902 0.3431 0.6372
vn 0.6054 0.5913 0.5327
vn 0.5335 0.7432 0.4038
vn 0.3143 0.9175 0.2435
vn -0.0198 0.9990 -0.0390
vn -0.7186 -0.4528 -0.5279
vn -0.7746 -0.0548 -0.6300
vn 0.7248 -0.2867 0.6265
vn 0.7718 0.1194 0.6246
vn 0.5704 0.7027 0.4253
vn -0.2472 -0.9689 0.0119
vn -0.7921 -0.4101 -0.4520
vn -0.5841 -0.7640 -0.2741
vn -0.7062 0.3661 -0.6060
vn 0.7991 0.2590 0.5426
vn 0.8105 -0.1278 0.5716
vn 0.6778 -0.5571 0.4798
vn 0.6658 0.5369 0.5181
vn 0.0724 0.9944 0.0764
vn -0.3596 0.9198 -0.1567
vn -0.8682 0.0779 -0.4900
vn -0.7226 0.5723 -0.3878
vn 0.4936 -0.7306 0.4718
vn 0.1707 -0.9537 0.2475
vn 0.4599 -0.8498 0.2577
vn 0.8241 0.4045 0.3965
vn 0.3516 0.8998 0.2584
vn -0.8741 -0.3850 -0.2962
vn -0.8915 0.3243 -0.3163
vn -0.7312 0.6558 -0.1879
vn 0.7031 -0.6410 0.3079
vn 0.8073 -0.3670 0.4621
vn 0.8547 -0.3276 0.4028
vn 0.8639 -0.0292 0.5029
vn 0.8879 0.1166 0.4450
vn 0.0338 -0.9985 0.0427
vn 0.5887 0.7310 0.3452
vn 0.4201 0.8934 0.1592
vn -0.3232 0.9437 -0.0707
vn -0.6142 -0.7635 -0.1995
vn -0.9280 -0.0016 -0.3725
vn 0.9437 0.0992 0.3156
vn 0.4278 -0.8889 0.1639
vn 0.7201 0.6563 0.2253
vn 0.1047 0.9936 0.0425
vn -0.2360 -0.9709 -0.0406
vn -0.9170 0.3593 -0.1733
vn -0.8782 -0.4440 -0.1779
vn -0.9872 0.0424 -0.1537
vn 0.9207 -0.0942 0.3787
vn 0.8286 -0.4735 0.2987
vn 0.9023 0.3511 0.2502
vn 0.6279 0.7757 0.0627
vn 0.4040 0.9127 0.0615
vn 0.2175 0.9760 -0.0110
vn -0.6455 -0.7588 -0.0867
vn -0.5992 0.7992 -0.0469
vn -0.9995 0.0292 -0.0129
vn -0.8872 -0.4613 -0.0053
vn 0.9492 -0.1453 0.2791
vn 0.4146 0.9096 -0.0263
vn -0.0164 0.9993 -0.0334
vn -0.9361 0.3484 -0.0486
vn -0.9934 -0.1126 0.0203
vn 0.9219 -0.3132 0.2282
vn 0.9690 0.1653 0.1835
vn 0.9822 -0.0389 0.1836
vn 0.9824 0.1361 0.1282
vn 0.8534 0.5107 0.1045
vn -0.0670 0.9977 -0.0102
vn -0.5890 -0.8065 0.0505
vn -0.5547 -0.8086 0.1963
vn -0.2632 0.9645 0.0197
vn -0.9800 0.1817 0.0809
vn -0.8827 -0.4572 0.1085
vn -0.7877 0.6019 0.1314
vn 0.8309 -0.4724 0.2940
vn 0.9584 -0.1682 0.2306
vn 0.7520 0.6591 -0.0065
vn -0.2304 -0.9634 0.1372
vn 0.2432 -0.9346 0.2597
vn 0.5874 -0.7703 0.2481
vn 0.0626 -0.9165 0.3951
vn 0.6160 0.7875 -0.0183
vn -0.4536 -0.8864 0.0918
vn -0.4531 -0.8826 0.1253
vn -0.5654 -0.8120 0.1451
vn -0.3765 -0.9152 0.1436
vn 0.2506 0.9671 -0.0447
vn -0.2112 -0.9372 0.2777
vn -0.9864 -0.1202 0.1123
vn -0.8616 -0.4296 0.2705
vn -0.8391 0.4433 0.3154
vn 0.5936 -0.7114 0.3762
vn 0.9032 0.4288 0.0183
vn 0.8527 0.5193 -0.0563
vn -0.4595 -0.8244 0.3305
vn 0.4631 0.8830 -0.0762
vn -0.4000 -0.8558 0.3281
vn -0.4358 -0.8210 0.3689
vn -0.2377 -0.7374 0.6322
vn 0.2650 0.9602 -0.0889
vn -0.5744 -0.6433 0.5062
vn -0.1990 -0.8041 0.5602
vn -0.1334 -0.7039 0.6977
vn -0.6847 -0.5066 0.5240
vn -0.9684 -0.0836 0.2351
vn -0.9578 0.1670 0.2338
vn 0.1156 0.9905 -0.0745
vn -0.9223 -0.1804 0.3419
vn -0.9407 -0.0159 0.3390
vn -0.9328 0.2567 0.2529
vn -0.7941 0.4744 0.3801
vn -0.6589 0.7010 0.2730
vn 0.6197 -0.6932 0.3681
vn 0.9671 -0.1718 0.1875
vn 0.0113 -0.8308 0.5565
vn -0.5082 -0.7084 0.4898
vn -0.5369 -0.6726 0.5092
vn -0.3392 -0.6197 0.7077
vn 0.6511 0.7483 -0.1270
vn -0.3639 -0.6721 0.6448
vn -0.3510 -0.5511 0.7570
vn -0.1096 -0.5538 0.8254
vn -0.3019 -0.5540 0.7759
vn -0.3495 -0.5013 0.7915
vn -0.0862 0.9892 -0.1184
vn 0.3030 0.9235 -0.2352
vn 0.4281 0.7852 -0.4473
vn 0.0975 0.8792 -0.4664
vn -0.9828 -0.0375 0.1809
vn -0.4528 0.8778 0.1564
vn -0.4557 0.8891 0.0422
vn -0.6911 0.6851 0.2303
vn -0.8377 0.5352 0.1086
vn -0.5929 0.7905 -0.1537
vn -0.2866 0.9127 -0.2911
vn -0.3719 0.7882 -0.4904
vn -0.1281 0.8159 -0.5638
vn -0.2117 0.6739 -0.7078
vn 0.0735 0.6404 -0.7645
vn -0.8251 -0.3387 0.4522
vn -0.9913 0.0529 0.1205
vn -0.9937 0.0770 -0.0813
vn -0.9269 0.3489 -0.1383
vn -0.9147 0.2114 -0.3445
vn -0.6792 0.5214 -0.5166
vn -0.2809 0.5421 -0.7920
vn -0.6611 0.3937 -0.6387
vn -0.8782 0.2224 -0.4235
vn -0.3769 0.3987 -0.8360
vn -0.5573 0.3331 -0.7606
vn -0.6950 0.6600 -0.2853
vn -0.4533 0.6751 -0.5821
vn 0.8328 -0.5286 0.1642
vn 0.9658 0.2592 0.0051
vn 0.9493 0.2990 -0.0972
vn 0.8839 0.4524 -0.1188
vn -0.3181 -0.6811 0.6595
vn -0.5975 -0.5792 0.5546
vn 0.1713 0.3265 -0.9296
vn -0.0480 0.4115 -0.9101
vn -0.0834 0.3603 -0.9291
vn 0.2247 0.2274 -0.9475
vn 0.3143 0.5218 -0.7931
vn -0.7889 -0.5467 0.2806
vn -0.2677 -0.8690 0.4161
vn -0.5300 -0.8380 0.1297
vn -0.5617 -0.7737 -0.2930
vn -0.9248 -0.1931 0.3279
vn -0.8846 -0.4663 -0.0047
vn -0.9661 -0.2267 0.1233
vn -0.6761 -0.4441 -0.5879
vn -0.5785 -0.5902 -0.5630
vn -0.3938 -0.4110 -0.8222
vn -0.9874 -0.0958 0.1260
vn -0.9807 0.0550 -0.1874
vn -0.8976 -0.1966 -0.3946
vn -0.6545 0.0159 -0.7559
vn -0.5052 -0.2170 -0.8353
vn -0.7712 0.2182 -0.5981
vn -0.2540 0.2593 -0.9318
vn 0.2035 0.2015 -0.9581
vn 0.6544 -0.7422 0.1446
vn 0.9973 0.0174 -0.0717
vn 0.9388 0.1334 -0.3176
vn 0.9174 -0.3914 -0.0722
vn 0.7388 -0.6388 -0.2147
vn 0.7666 -0.4939 -0.4103
vn 0.6074 -0.4315 -0.6670
vn 0.9348 -0.1569 -0.3187
vn 0.8958 0.3086 -0.3197
vn 0.7342 0.2747 -0.6209
vn 0.8445 0.4628 -0.2695
vn 0.4030 -0.8608 0.3110
vn 0.0613 -0.8711 0.4872
vn 0.6519 -0.7563 -0.0562
vn 0.4043 -0.9070 0.1181
vn 0.6861 -0.3828 -0.6187
vn 0.5310 -0.2022 -0.8229
vn 0.5047 -0.2408 -0.8290
vn 0.7002 0.6170 -0.3592
vn 0.5821 0.4452 -0.6804
vn 0.0236 -0.9360 0.3512
vn 0.4496 -0.8834 -0.1319
vn 0.6710 -0.6778 -0.3005
vn 0.6348 -0.5680 -0.5239
vn 0.4199 0.1762 -0.8903
vn 0.7173 0.0736 -0.6929
vn 0.3933 0.0455 -0.9183
vn 0.1914 -0.9641 -0.1840
vn -0.1354 -0.9821 -0.1310
vn 0.2519 -0.7097 -0.6579
vn 0.4820 -0.7268 -0.4894
vn 0.5500 -0.3906 -0.7382
vn 0.3089 -0.4461 -0.8400
vn 0.5008 -0.1548 -0.8516
vn 0.4191 0.0564 -0.9062
vn -0.1589 -0.8559 -0.4921
vn -0.1310 -0.6333 -0.7628
vn 0.1328 -0.3662 -0.9210
vn 0.3073 -0.0896 -0.9474
vn -0.0394 -0.2133 -0.9762
vn -0.0820 -0.0154 -0.9965
vn 0.6490 -0.4057 -0.6436
vn 0.7647 -0.1274 -0.6317
s 1
usemtl mtl1.286
f 2//1 27//2 1//3
f 2//1 28//4 27//2
f 3//5 1//3 29//6
f 29//6 30//7 3//5
f 5//8 2//1 4//9
f 7//10 5//8 4//9
f 28//4 2//1 5//8
f 5//8 7//10 31//11
f 2//1 1//3 6//12
f 1//3 3//5 6//12
f 2//1 6//12 4//9
f 10//13 3//5 16//14
f 16//14 3//5 30//7
f 7//10 35//15 31//11
f 7//10 4//9 8//16
f 7//10 8//16 13//17
f 4//9 6//12 8//16
f 3//5 10//13 6//12
f 6//12 9//18 8//16
f 10//13 9//18 6//12
f 8//16 9//18 15//19
f 10//13 16//14 9//18
f 7//10 13//17 11//20
f 11//20 35//15 7//10
f 14//21 12//22 11//20
f 38//23 35//15 11//20
f 12//22 38//23 11//20
f 8//16 14//21 13//17
f 14//21 8//16 15//19
f 13//17 14//21 11//20
f 15//19 17//24 14//21
f 17//24 12//22 14//21
f 49//25 12//22 17//24
f 17//24 15//19 51//26
f 15//19 9//18 50//27
f 15//19 50//27 51//26
f 18//28 20//29 28//4
f 18//28 23//30 20//29
f 18//28 28//4 63//31
f 25//32 23//30 18//28
f 25//32 18//28 19//33
f 68//34 25//32 19//33
f 20//29 21//35 29//6
f 22//36 21//35 24//37
f 20//29 23//30 21//35
f 24//37 21//35 23//30
f 24//37 67//38 22//36
f 66//39 25//32 68//34
f 66//39 23//30 25//32
f 66//39 69//40 23//30
f 69//40 24//37 23//30
f 24//37 69//40 70//41
f 67//38 24//37 70//41
f 22//36 67//38 75//42
f 28//4 32//43 26//44
f 32//43 73//45 26//44
f 20//29 29//6 27//2
f 29//6 1//3 27//2
f 27//2 28//4 20//29
f 63//31 28//4 26//44
f 63//31 26//44 74//46
f 21//35 22//36 29//6
f 30//7 29//6 22//36
f 30//7 78//47 44//48
f 22//36 75//42 30//7
f 78//47 30//7 75//42
f 32//43 28//4 5//8
f 32//43 5//8 31//11
f 31//11 33//49 32//43
f 33//49 31//11 36//50
f 73//45 32//43 33//49
f 37//51 34//52 33//49
f 33//49 34//52 73//45
f 76//53 77//54 73//45
f 34//52 76//53 73//45
f 36//50 31//11 35//15
f 36//50 37//51 33//49
f 47//55 79//56 43//57
f 43//57 76//53 37//51
f 76//53 34//52 37//51
f 44//48 16//14 30//7
f 36//50 35//15 39//58
f 39//58 35//15 38//23
f 12//22 40//59 38//23
f 38//23 40//59 39//58
f 12//22 45//60 40//59
f 12//22 49//25 45//60
f 42//61 36//50 39//58
f 42//61 39//58 41//62
f 41//62 39//58 40//59
f 37//51 36//50 43//57
f 42//61 43//57 36//50
f 47//55 43//57 42//61
f 16//14 52//63 50//27
f 16//14 50//27 9//18
f 16//14 44//48 52//63
f 52//63 44//48 53//64
f 53//64 44//48 106//65
f 40//59 45//60 46//66
f 46//66 41//62 40//59
f 45//60 49//25 46//66
f 47//55 42//61 41//62
f 47//55 41//62 46//66
f 17//24 51//26 48//67
f 49//25 17//24 54//68
f 48//67 54//68 17//24
f 55//69 54//68 48//67
f 57//70 51//26 50//27
f 52//63 58//71 50//27
f 58//71 57//70 50//27
f 58//71 52//63 53//64
f 57//70 55//69 48//67
f 55//69 57//70 85//72
f 46//66 49//25 56//73
f 56//73 54//68 81//74
f 56//73 49//25 54//68
f 55//69 85//72 82//75
f 81//74 54//68 55//69
f 81//74 55//69 82//75
f 51//26 57//70 48//67
f 57//70 59//76 85//72
f 57//70 58//71 59//76
f 82//75 85//72 89//77
f 85//72 59//76 91//78
f 58//71 53//64 86//79
f 58//71 86//79 90//80
f 58//71 90//80 59//76
f 69//40 60//81 61//82
f 68//34 64//83 62//84
f 60//81 68//34 62//84
f 60//81 94//85 61//82
f 61//82 94//85 95//86
f 62//84 64//83 92//87
f 92//87 93//88 62//84
f 62//84 93//88 60//81
f 93//88 94//85 60//81
f 19//33 18//28 63//31
f 68//34 63//31 64//83
f 68//34 19//33 63//31
f 63//31 65//89 64//83
f 68//34 60//81 66//39
f 66//39 60//81 69//40
f 67//38 70//41 71//90
f 67//38 71//90 75//42
f 70//41 69//40 72//91
f 71//90 70//41 72//91
f 69//40 61//82 72//91
f 95//86 72//91 61//82
f 72//91 95//86 102//92
f 72//91 102//92 71//90
f 74//46 26//44 73//45
f 101//93 74//46 73//45
f 65//89 63//31 74//46
f 101//93 65//89 74//46
f 75//42 71//90 102//92
f 76//53 79//56 77//54
f 101//93 73//45 77//54
f 105//94 44//48 78//47
f 43//57 79//56 76//53
f 79//56 137//95 77//54
f 80//96 79//56 47//55
f 137//95 79//56 80//96
f 106//65 44//48 105//94
f 83//97 47//55 46//66
f 86//79 53//64 106//65
f 46//66 56//73 83//97
f 84//98 56//73 81//74
f 84//98 82//75 88//99
f 84//98 81//74 82//75
f 89//77 88//99 82//75
f 56//73 84//98 83//97
f 47//55 107//100 80//96
f 83//97 107//100 47//55
f 84//98 87//101 83//97
f 87//101 84//98 88//99
f 87//101 107//100 83//97
f 89//77 85//72 91//78
f 108//102 88//99 89//77
f 59//76 90//80 91//78
f 97//103 93//88 92//87
f 94//85 96//104 95//86
f 97//103 94//85 93//88
f 64//83 99//105 92//87
f 64//83 98//106 99//105
f 98//106 64//83 65//89
f 65//89 101//93 98//106
f 114//107 98//106 101//93
f 98//106 111//108 99//105
f 111//108 98//106 114//107
f 104//109 95//86 96//104
f 92//87 99//105 97//103
f 97//103 99//105 100//110
f 97//103 96//104 94//85
f 97//103 113//111 96//104
f 104//109 96//104 113//111
f 113//111 97//103 100//110
f 95//86 104//109 102//92
f 115//112 101//93 77//54
f 115//112 114//107 101//93
f 103//113 75//42 102//92
f 77//54 137//95 122//114
f 122//114 115//112 77//54
f 103//113 78//47 75//42
f 78//47 123//115 105//94
f 103//113 123//115 78//47
f 123//115 106//65 105//94
f 139//116 106//65 123//115
f 80//96 124//117 137//95
f 80//96 107//100 124//117
f 106//65 125//118 86//79
f 124//117 107//100 126//119
f 125//118 127//120 86//79
f 87//101 126//119 107//100
f 89//77 91//78 110//121
f 108//102 87//101 88//99
f 126//119 87//101 108//102
f 108//102 89//77 145//122
f 145//122 89//77 110//121
f 128//123 126//119 108//102
f 108//102 145//122 128//123
f 127//120 90//80 86//79
f 91//78 90//80 109//124
f 91//78 109//124 110//121
f 90//80 127//120 109//124
f 143//125 110//121 109//124
f 100//110 112//126 113//111
f 100//110 99//105 111//108
f 111//108 112//126 100//110
f 111//108 117//127 112//126
f 113//111 118//128 104//109
f 111//108 114//107 116//129
f 116//129 114//107 115//112
f 132//130 117//127 116//129
f 116//129 117//127 111//108
f 103//113 102//92 104//109
f 104//109 120//131 103//113
f 119//132 120//131 104//109
f 104//109 118//128 119//132
f 119//132 118//128 129//133
f 119//132 129//133 134//134
f 115//112 131//135 116//129
f 122//114 131//135 115//112
f 120//131 123//115 103//113
f 119//132 121//136 120//131
f 121//136 123//115 120//131
f 123//115 121//136 139//116
f 134//134 121//136 119//132
f 134//134 151//137 121//136
f 139//116 121//136 151//137
f 137//95 136//138 122//114
f 163//139 137//95 124//117
f 139//116 125//118 106//65
f 154//140 125//118 139//116
f 154//140 127//120 125//118
f 152//141 124//117 140//142
f 140//142 124//117 126//119
f 126//119 128//123 140//142
f 142//143 128//123 145//122
f 141//144 140//142 128//123
f 141//144 128//123 142//143
f 127//120 143//125 109//124
f 132//130 116//129 131//135
f 113//111 112//126 130//145
f 117//127 132//130 112//126
f 132//130 130//145 112//126
f 129//133 118//128 113//111
f 130//145 129//133 113//111
f 134//134 129//133 130//145
f 147//146 134//134 130//145
f 131//135 122//114 135//147
f 132//130 131//135 133//148
f 133//148 131//135 135//147
f 132//130 146//149 130//145
f 146//149 147//146 130//145
f 150//150 134//134 147//146
f 151//137 134//134 150//150
f 136//138 135//147 122//114
f 138//151 135//147 136//138
f 148//152 135//147 138//151
f 138//151 136//138 137//95
f 183//153 138//151 137//95
f 183//153 137//95 163//139
f 140//142 141//144 152//141
f 142//143 145//122 172//154
f 152//141 141//144 142//143
f 143//125 127//120 144//155
f 110//121 143//125 145//122
f 154//140 144//155 127//120
f 132//130 133//148 149//156
f 149//156 146//149 132//130
f 147//146 146//149 149//156
f 149//156 150//150 147//146
f 133//148 135//147 148//152
f 133//148 148//152 158//157
f 158//157 149//156 133//148
f 160//158 148//152 138//151
f 161//159 151//137 150//150
f 151//137 161//159 181//160
f 138//151 183//153 180//161
f 153//162 124//117 152//141
f 163//139 124//117 153//162
f 166//163 153//162 152//141
f 152//141 142//143 172//154
f 155//164 144//155 154//140
f 152//141 172//154 576//165
f 167//166 576//165 172//154
f 145//122 143//125 156//167
f 174//168 145//122 156//167
f 156//167 175//169 174//168
f 156//167 143//125 157//170
f 144//155 157//170 143//125
f 175//169 156//167 157//170
f 155//164 157//170 144//155
f 160//158 158//157 148//152
f 149//156 162//171 150//150
f 159//172 158//157 160//158
f 158//157 159//172 149//156
f 159//172 162//171 149//156
f 176//173 159//172 160//158
f 177//174 162//171 159//172
f 162//171 161//159 150//150
f 179//175 161//159 162//171
f 161//159 179//175 178//176
f 161//159 178//176 181//160
f 160//158 138//151 180//161
f 181//160 139//116 151//137
f 180//161 183//153 182//177
f 165//178 163//139 153//162
f 165//178 183//153 163//139
f 206//179 183//153 165//178
f 165//178 153//162 164//180
f 184//181 206//179 165//178
f 184//181 165//178 164//180
f 155//164 154//140 214//182
f 167//166 172//154 168//183
f 164//180 153//162 166//163
f 168//183 172//154 173//184
f 169//185 164//180 166//163
f 169//185 166//163 167//166
f 167//166 168//183 171//186
f 171//186 168//183 186//187
f 168//183 173//184 186//187
f 184//181 164//180 169//185
f 184//181 169//185 185//188
f 185//188 169//185 170//189
f 170//189 169//185 167//166
f 170//189 167//166 171//186
f 171//186 186//187 188//190
f 173//184 172//154 145//122
f 193//191 186//187 173//184
f 173//184 145//122 174//168
f 174//168 193//191 173//184
f 194//192 174//168 175//169
f 193//191 174//168 194//192
f 157//170 192//193 175//169
f 157//170 155//164 192//193
f 159//172 176//173 577//194
f 177//174 179//175 162//171
f 176//173 160//158 180//161
f 195//195 176//173 180//161
f 178//176 179//175 196//196
f 197//197 180//161 182//177
f 183//153 207//198 182//177
f 224//199 154//140 139//116
f 190//200 206//179 184//181
f 183//153 206//179 207//198
f 190//200 184//181 185//188
f 190//200 185//188 187//201
f 187//201 185//188 170//189
f 187//201 170//189 188//190
f 188//190 170//189 171//186
f 187//201 189//202 190//200
f 188//190 189//202 187//201
f 186//187 191//203 188//190
f 189//202 188//190 191//203
f 206//179 190//200 189//202
f 210//204 191//203 194//192
f 189//202 199//205 206//179
f 192//193 201//206 194//192
f 192//193 194//192 175//169
f 155//164 214//182 192//193
f 186//187 193//191 191//203
f 191//203 193//191 194//192
f 176//173 195//195 202//207
f 176//173 202//207 577//194
f 195//195 180//161 216//208
f 195//195 203//209 202//207
f 197//197 182//177 198//210
f 139//116 181//160 205//211
f 139//116 205//211 224//199
f 207//198 198//210 182//177
f 224//199 214//182 154//140
f 189//202 191//203 578//212
f 199//205 207//198 206//179
f 578//212 191//203 210//204
f 207//198 199//205 208//213
f 210//204 194//192 209//214
f 209//214 194//192 201//206
f 200//215 192//193 214//182
f 201//206 192//193 200//215
f 201//206 200//215 212//216
f 203//209 195//195 216//208
f 579//217 179//175 177//174
f 179//175 579//217 196//196
f 196//196 204//218 178//176
f 204//218 196//196 579//217
f 203//209 204//218 579//217
f 241//219 216//208 180//161
f 241//219 180//161 197//197
f 220//220 178//176 204//218
f 178//176 220//220 181//160
f 225//221 222//222 198//210
f 225//221 198//210 207//198
f 229//223 223//224 235//225
f 578//212 211//226 580//227
f 578//212 210//204 211//226
f 209//214 227//228 210//204
f 212//216 200//215 215//229
f 214//182 215//229 200//215
f 212//216 209//214 201//206
f 212//216 215//229 213//230
f 213//230 215//229 229//223
f 212//216 213//230 227//228
f 212//216 227//228 209//214
f 214//182 224//199 223//224
f 229//223 215//229 214//182
f 229//223 214//182 223//224
f 203//209 216//208 251//231
f 203//209 251//231 217//232
f 203//209 218//233 204//218
f 217//232 218//233 203//209
f 218//233 219//234 204//218
f 204//218 219//234 220//220
f 220//220 219//234 238//235
f 221//236 241//219 197//197
f 181//160 220//220 205//211
f 221//236 197//197 198//210
f 231//237 242//238 205//211
f 242//238 224//199 205//211
f 232//239 224//199 242//238
f 232//239 223//224 224//199
f 235//225 250//240 229//223
f 225//221 207//198 226//241
f 207//198 208//213 226//241
f 236//242 580//227 211//226
f 236//242 226//241 580//227
f 228//243 227//228 234//244
f 210//204 227//228 228//243
f 228//243 211//226 210//204
f 236//242 211//226 228//243
f 234//244 236//242 228//243
f 213//230 250//240 227//228
f 229//223 250//240 213//230
f 581//245 216//208 230//246
f 237//247 217//232 251//231
f 220//220 238//235 239//248
f 220//220 239//248 240//249
f 205//211 220//220 240//249
f 218//233 238//235 219//234
f 230//246 216//208 241//219
f 231//237 205//211 240//249
f 222//222 225//221 233//250
f 222//222 233//250 221//236
f 198//210 222//222 221//236
f 244//251 243//252 233//250
f 233//250 225//221 226//241
f 243//252 221//236 233//250
f 246//253 244//251 233//250
f 226//241 246//253 233//250
f 226//241 236//242 247//254
f 247//254 236//242 249//255
f 226//241 247//254 246//253
f 227//228 250//240 234//244
f 249//255 236//242 234//244
f 218//233 237//247 238//235
f 237//247 218//233 217//232
f 239//248 238//235 252//256
f 237//247 253//257 238//235
f 252//256 238//235 253//257
f 254//258 240//249 239//248
f 256//259 231//237 240//249
f 243//252 241//219 221//236
f 260//260 243//252 244//251
f 258//261 244//251 248//262
f 258//261 260//260 244//251
f 235//225 223//224 263//263
f 263//263 245//264 235//225
f 263//263 277//265 245//264
f 248//262 244//251 246//253
f 246//253 247//254 248//262
f 249//255 248//262 247//254
f 258//261 248//262 249//255
f 262//266 258//261 249//255
f 249//255 234//244 250//240
f 277//265 250//240 245//264
f 250//240 268//267 249//255
f 277//265 268//267 250//240
f 250//240 235//225 245//264
f 253//257 237//247 264//268
f 264//268 270//269 253//257
f 252//256 253//257 270//269
f 254//258 239//248 252//256
f 255//270 240//249 254//258
f 252//256 255//270 254//258
f 581//245 230//246 241//219
f 240//249 255//270 256//259
f 256//259 242//238 231//237
f 267//271 242//238 256//259
f 283//272 256//259 255//270
f 257//273 241//219 243//252
f 259//274 257//273 243//252
f 285//275 257//273 259//274
f 267//271 232//239 242//238
f 263//263 232//239 267//271
f 259//274 243//252 260//260
f 285//275 259//274 260//260
f 261//276 260//260 258//261
f 258//261 262//266 261//276
f 286//277 285//275 260//260
f 261//276 286//277 260//260
f 268//267 262//266 249//255
f 223//224 232//239 263//263
f 252//256 270//269 265//278
f 272//279 237//247 251//231
f 269//280 237//247 272//279
f 269//280 264//268 237//247
f 251//231 273//281 272//279
f 271//282 273//281 581//245
f 252//256 265//278 274//283
f 274//283 255//270 252//256
f 266//284 581//245 241//219
f 266//284 241//219 275//285
f 323//286 267//271 256//259
f 323//286 256//259 283//272
f 257//273 285//275 241//219
f 275//285 241//219 285//275
f 276//287 268//267 277//265
f 278//288 269//280 272//279
f 269//280 279//289 264//268
f 279//289 280//290 264//268
f 280//290 270//269 264//268
f 270//269 295//291 265//278
f 266//284 299//292 271//282
f 282//293 272//279 273//281
f 296//294 273//281 271//282
f 283//272 255//270 274//283
f 281//295 283//272 274//283
f 274//283 265//278 281//295
f 265//278 295//291 281//295
f 271//282 581//245 266//284
f 275//285 284//296 266//284
f 288//297 275//285 285//275
f 263//263 267//271 301//298
f 312//299 301//298 267//271
f 287//300 261//276 262//266
f 268//267 287//300 262//266
f 293//301 287//300 268//267
f 276//287 293//301 268//267
f 278//288 279//289 269//280
f 278//288 272//279 282//293
f 295//291 270//269 280//290
f 294//302 282//293 296//294
f 271//282 299//292 298//303
f 296//294 282//293 273//281
f 299//292 311//304 298//303
f 300//305 284//296 275//285
f 284//296 299//292 266//284
f 300//305 275//285 288//297
f 323//286 312//299 267//271
f 289//306 288//297 285//275
f 289//306 285//275 286//277
f 287//300 286//277 261//276
f 286//277 290//307 289//306
f 290//307 286//277 287//300
f 292//308 290//307 287//300
f 292//308 287//300 293//301
f 288//297 289//306 300//305
f 290//307 291//309 289//306
f 290//307 292//308 291//309
f 303//310 300//305 289//306
f 291//309 303//310 289//306
f 291//309 292//308 303//310
f 293//301 302//311 317//312
f 302//311 293//301 276//287
f 317//312 303//310 292//308
f 293//301 317//312 292//308
f 277//265 321//313 276//287
f 301//298 315//314 263//263
f 308//315 294//302 305//316
f 308//315 278//288 282//293
f 308//315 282//293 294//302
f 279//289 309//317 280//290
f 334//318 283//272 281//295
f 298//303 296//294 271//282
f 297//319 294//302 296//294
f 311//304 297//319 298//303
f 298//303 297//319 296//294
f 310//320 297//319 311//304
f 297//319 306//321 294//302
f 310//320 306//321 297//319
f 313//322 311//304 299//292
f 313//322 299//292 284//296
f 284//296 300//305 313//322
f 315//314 301//298 312//299
f 303//310 314//323 300//305
f 314//323 303//310 317//312
f 316//324 277//265 263//263
f 321//313 277//265 316//324
f 306//321 305//316 294//302
f 305//316 306//321 318//325
f 319//326 306//321 310//320
f 278//288 308//315 307//327
f 279//289 278//288 307//327
f 307//327 304//328 279//289
f 318//325 308//315 305//316
f 322//329 307//327 308//315
f 295//291 280//290 309//317
f 309//317 279//289 304//328
f 319//326 310//320 311//304
f 313//322 300//305 314//323
f 315//314 316//324 263//263
f 317//312 324//330 314//323
f 324//330 317//312 302//311
f 276//287 321//313 302//311
f 320//331 324//330 302//311
f 320//331 302//311 321//313
f 321//313 325//332 320//331
f 339//333 324//330 320//331
f 307//327 322//329 327//334
f 327//334 304//328 307//327
f 318//325 306//321 319//326
f 308//315 318//325 322//329
f 334//318 323//286 283//272
f 295//291 334//318 281//295
f 351//335 313//322 314//323
f 351//335 314//323 324//330
f 315//314 312//299 330//336
f 321//313 316//324 332//337
f 332//337 316//324 315//314
f 339//333 320//331 325//332
f 342//338 343//339 327//334
f 327//334 322//329 342//338
f 334//318 337//340 323//286
f 329//341 312//299 323//286
f 311//304 313//322 351//335
f 348//342 351//335 324//330
f 324//330 339//333 348//342
f 325//332 340//343 339//333
f 325//332 321//313 332//337
f 332//337 340//343 325//332
f 315//314 331//344 332//337
f 582//345 315//314 330//336
f 326//346 322//329 318//325
f 336//347 326//346 318//325
f 326//346 342//338 322//329
f 327//334 328//348 304//328
f 304//328 328//348 309//317
f 295//291 309//317 328//348
f 343//339 328//348 327//334
f 295//291 328//348 334//318
f 328//348 343//339 344//349
f 329//341 323//286 337//340
f 330//336 312//299 329//341
f 341//350 332//337 331//344
f 340//343 332//337 341//350
f 338//351 582//345 330//336
f 331//344 338//351 341//350
f 336//347 333//352 326//346
f 333//352 336//347 345//353
f 342//338 326//346 333//352
f 334//318 335//354 337//340
f 328//348 335//354 334//318
f 344//349 335//354 328//348
f 336//347 318//325 319//326
f 351//335 336//347 319//326
f 345//353 336//347 351//335
f 311//304 351//335 319//326
f 347//355 329//341 337//340
f 338//351 359//356 341//350
f 346//357 335//354 344//349
f 343//339 349//358 344//349
f 344//349 349//358 350//359
f 350//359 346//357 344//349
f 346//357 350//359 352//360
f 337//340 335//354 346//357
f 337//340 346//357 347//355
f 347//355 346//357 353//361
f 346//357 352//360 353//361
f 329//341 347//355 330//336
f 358//362 330//336 347//355
f 358//362 347//355 353//361
f 339//333 340//343 354//363
f 361//364 354//363 340//343
f 343//339 342//338 355//365
f 355//365 356//366 343//339
f 343//339 356//366 349//358
f 367//367 352//360 350//359
f 352//360 367//367 353//361
f 351//335 348//342 357//368
f 359//356 338//351 330//336
f 354//363 372//369 348//342
f 372//369 360//370 348//342
f 348//342 339//333 354//363
f 362//371 361//364 340//343
f 341//350 362//371 340//343
f 362//371 341//350 359//356
f 356//366 366//372 349//358
f 355//365 364//373 356//366
f 375//374 364//373 355//365
f 364//373 366//372 356//366
f 350//359 349//358 365//375
f 357//368 345//353 351//335
f 357//368 333//352 345//353
f 369//376 358//362 353//361
f 348//342 360//370 357//368
f 358//362 359//356 330//336
f 358//362 371//377 359//356
f 354//363 361//364 372//369
f 372//369 361//364 373//378
f 362//371 374//379 373//378
f 373//378 361//364 362//371
f 375//374 355//365 342//338
f 333//352 363//380 342//338
f 363//380 333//352 368//381
f 342//338 363//380 375//374
f 363//380 378//382 375//374
f 367//367 350//359 365//375
f 365//375 349//358 366//372
f 366//372 391//383 365//375
f 368//381 333//352 357//368
f 378//382 363//380 368//381
f 370//384 353//361 367//367
f 370//384 369//376 353//361
f 369//376 371//377 358//362
f 360//370 372//369 385//385
f 386//386 373//378 374//379
f 359//356 374//379 362//371
f 374//379 359//356 371//377
f 374//379 371//377 396//387
f 375//374 389//388 377//389
f 375//374 378//382 389//388
f 377//389 389//388 387//390
f 377//389 364//373 375//374
f 377//389 376//391 364//373
f 376//391 366//372 364//373
f 376//391 381//392 366//372
f 377//389 387//390 376//391
f 365//375 391//383 367//367
f 381//392 391//383 366//372
f 382//393 378//382 368//381
f 383//394 370//384 367//367
f 384//395 370//384 383//394
f 382//393 368//381 357//368
f 397//396 371//377 369//376
f 360//370 379//397 357//368
f 385//385 372//369 373//378
f 379//397 360//370 385//385
f 385//385 373//378 380//398
f 380//398 373//378 386//386
f 381//392 403//399 391//383
f 391//383 383//394 367//367
f 382//393 388//400 378//382
f 392//401 383//394 391//383
f 383//394 392//401 384//395
f 393//402 369//376 370//384
f 370//384 384//395 393//402
f 357//368 379//397 395//403
f 397//396 369//376 393//402
f 396//387 371//377 397//396
f 374//379 396//387 386//386
f 396//387 401//404 386//386
f 398//405 385//385 380//398
f 379//397 385//385 398//405
f 386//386 400//406 380//398
f 400//406 398//405 380//398
f 388//400 389//388 378//382
f 387//390 390//407 376//391
f 389//388 402//408 387//390
f 390//407 381//392 376//391
f 403//399 381//392 390//407
f 403//399 404//409 391//383
f 404//409 392//401 391//383
f 384//395 392//401 405//410
f 395//403 382//393 357//368
f 395//403 388//400 382//393
f 393//402 384//395 394//411
f 406//412 393//402 394//411
f 384//395 405//410 394//411
f 399//413 395//403 379//397
f 409//414 396//387 397//396
f 398//405 399//413 379//397
f 415//415 414//416 400//406
f 401//404 400//406 386//386
f 390//407 387//390 402//408
f 390//407 402//408 411//417
f 390//407 411//417 403//399
f 405//410 407//418 394//411
f 394//411 407//418 406//412
f 406//412 408//419 393//402
f 408//419 397//396 393//402
f 408//419 409//414 397//396
f 407//418 408//419 406//412
f 401//404 396//387 410//420
f 409//414 410//420 396//387
f 398//405 400//406 414//416
f 399//413 398//405 414//416
f 414//416 415//415 416//421
f 400//406 401//404 410//420
f 400//406 410//420 415//415
f 411//417 402//408 417//422
f 411//417 419//423 403//399
f 404//409 403//399 419//423
f 402//408 389//388 388//400
f 418//424 431//425 419//423
f 411//417 417//422 418//424
f 404//409 412//426 392//401
f 405//410 392//401 412//426
f 419//423 412//426 404//409
f 423//427 409//414 408//419
f 407//418 423//427 408//419
f 414//416 413//428 399//413
f 414//416 424//429 413//428
f 447//430 409//414 423//427
f 416//421 415//415 426//431
f 414//416 416//421 425//432
f 415//415 410//420 426//431
f 446//433 426//431 410//420
f 402//408 388//400 428//434
f 428//434 417//422 402//408
f 411//417 418//424 419//423
f 417//422 430//435 418//424
f 418//424 430//435 431//425
f 431//425 412//426 419//423
f 405//410 412//426 433//436
f 421//437 427//438 388//400
f 395//403 421//437 388//400
f 420//439 388//400 427//438
f 388//400 420//439 428//434
f 451//440 427//438 421//437
f 405//410 436//441 407//418
f 433//436 436//441 405//410
f 395//403 399//413 421//437
f 421//437 399//413 434//442
f 422//443 413//428 424//429
f 413//428 434//442 399//413
f 434//442 413//428 422//443
f 435//444 434//442 422//443
f 422//443 439//445 435//444
f 422//443 424//429 439//445
f 423//427 437//446 447//430
f 437//446 423//427 407//418
f 407//418 436//441 437//446
f 438//447 439//445 424//429
f 425//432 416//421 444//448
f 444//448 416//421 426//431
f 425//432 424//429 414//416
f 410//420 409//414 446//433
f 446//433 409//414 447//430
f 445//449 424//429 425//432
f 445//449 425//432 444//448
f 426//431 446//433 449//450
f 420//439 429//451 428//434
f 427//438 429//451 420//439
f 428//434 430//435 417//422
f 433//436 412//426 432//452
f 432//452 412//426 431//425
f 452//453 433//436 432//452
f 452//453 436//441 433//436
f 451//440 421//437 434//442
f 453//454 451//440 434//442
f 434//442 435//444 453//454
f 455//455 437//446 436//441
f 440//456 435//444 439//445
f 439//445 438//447 440//456
f 440//456 438//447 441//457
f 458//458 440//456 441//457
f 437//446 455//455 454//459
f 454//459 447//430 437//446
f 438//447 424//429 441//457
f 441//457 424//429 445//449
f 441//457 445//449 443//460
f 458//458 441//457 442//461
f 442//461 441//457 443//460
f 456//462 458//458 442//461
f 442//461 443//460 456//462
f 464//463 443//460 445//449
f 444//448 426//431 474//464
f 474//464 445//449 444//448
f 448//465 426//431 449//450
f 454//459 462//466 447//430
f 473//467 445//449 474//464
f 426//431 448//465 474//464
f 474//464 448//465 475//468
f 449//450 476//469 448//465
f 449//450 450//470 476//469
f 465//471 449//450 446//433
f 449//450 465//471 450//470
f 428//434 429//451 488//472
f 428//434 488//472 517//473
f 427//438 451//440 488//472
f 488//472 429//451 427//438
f 451//440 453//454 526//474
f 490//475 526//474 453//454
f 435//444 440//456 453//454
f 440//456 460//476 453//454
f 458//458 460//476 440//456
f 460//476 490//475 453//454
f 490//475 460//476 491//477
f 492//478 454//459 455//455
f 456//462 443//460 457//479
f 443//460 464//463 457//479
f 464//463 493//480 457//479
f 458//458 456//462 459//481
f 459//481 456//462 457//479
f 461//482 458//458 459//481
f 460//476 458//458 461//482
f 459//481 457//479 493//480
f 461//482 491//477 460//476
f 493//480 461//482 459//481
f 461//482 494//483 491//477
f 469//484 447//430 462//466
f 463//485 454//459 492//478
f 463//485 462//466 454//459
f 463//485 469//484 462//466
f 541//486 463//485 492//478
f 541//486 472//487 463//485
f 473//467 464//463 445//449
f 473//467 474//464 509//488
f 447//430 467//489 446//433
f 446//433 467//489 465//471
f 465//471 467//489 468//490
f 450//470 465//471 466//491
f 468//490 466//491 465//471
f 450//470 482//492 476//469
f 450//470 466//491 482//492
f 466//491 483//493 482//492
f 466//491 468//490 483//493
f 467//489 447//430 469//484
f 468//490 467//489 469//484
f 470//494 468//490 469//484
f 483//493 470//494 485//495
f 468//490 470//494 483//493
f 472//487 470//494 469//484
f 472//487 471//496 470//494
f 470//494 471//496 485//495
f 471//496 487//497 485//495
f 497//498 487//497 471//496
f 472//487 469//484 463//485
f 471//496 472//487 497//498
f 473//467 499//499 464//463
f 475//468 477//500 474//464
f 509//488 474//464 477//500
f 477//500 513//501 509//488
f 477//500 448//465 476//469
f 478//502 476//469 482//492
f 448//465 477//500 475//468
f 477//500 476//469 478//502
f 477//500 478//502 480//503
f 478//502 479//504 480//503
f 479//504 501//505 481//506
f 480//503 479//504 481//506
f 513//501 477//500 480//503
f 480//503 481//506 514//507
f 513//501 480//503 514//507
f 501//505 502//508 481//506
f 515//509 514//507 481//506
f 484//510 482//492 483//493
f 482//492 484//510 478//502
f 486//511 484//510 483//493
f 485//495 486//511 483//493
f 484//510 479//504 478//502
f 486//511 479//504 484//510
f 486//511 487//497 501//505
f 487//497 486//511 485//495
f 501//505 479//504 486//511
f 497//498 501//505 487//497
f 428//434 517//473 430//435
f 430//435 517//473 431//425
f 488//472 518//512 517//473
f 489//513 431//425 517//473
f 432//452 489//513 452//453
f 489//513 432//452 431//425
f 524//514 452//453 489//513
f 488//472 451//440 526//474
f 523//515 492//478 452//453
f 436//441 492//478 455//455
f 452//453 492//478 436//441
f 490//475 491//477 526//474
f 493//480 494//483 461//482
f 495//516 491//477 494//483
f 493//480 495//516 494//483
f 526//474 491//477 495//516
f 495//516 464//463 498//517
f 495//516 493//480 464//463
f 496//518 503//519 497//498
f 496//518 516//520 503//519
f 496//518 558//521 516//520
f 472//487 541//486 497//498
f 543//522 497//498 541//486
f 497//498 543//522 496//518
f 499//499 498//517 464//463
f 500//523 498//517 499//499
f 544//524 495//516 498//517
f 550//525 544//524 498//517
f 498//517 500//523 550//525
f 550//525 500//523 554//526
f 509//488 504//527 473//467
f 473//467 504//527 499//499
f 502//508 516//520 515//509
f 503//519 502//508 501//505
f 481//506 502//508 515//509
f 502//508 503//519 516//520
f 503//519 501//505 497//498
f 499//499 504//527 505//528
f 507//529 505//528 504//527
f 505//528 500//523 499//499
f 505//528 583//530 559//531
f 563//532 559//531 583//530
f 554//526 500//523 505//528
f 559//531 554//526 505//528
f 504//527 509//488 506//533
f 510//534 506//533 509//488
f 506//533 507//529 504//527
f 506//533 508//535 507//529
f 510//534 508//535 506//533
f 583//530 508//535 563//532
f 508//535 510//534 512//536
f 563//532 508//535 562//537
f 508//535 512//536 562//537
f 509//488 513//501 510//534
f 510//534 513//501 514//507
f 515//509 511//538 514//507
f 510//534 514//507 511//538
f 510//534 511//538 512//536
f 512//536 511//538 566//539
f 515//509 566//539 511//538
f 515//509 516//520 566//539
f 558//521 567//540 516//520
f 567//540 566//539 516//520
f 488//472 519//541 518//512
f 522//542 489//513 517//473
f 524//514 489//513 522//542
f 571//543 524//514 522//542
f 523//515 452//453 524//514
f 521//544 517//473 518//512
f 519//541 520//545 518//512
f 520//545 521//544 518//512
f 521//544 522//542 517//473
f 569//546 521//544 520//545
f 569//546 520//545 529//547
f 570//548 571//543 522//542
f 571//543 525//549 524//514
f 524//514 525//549 523//515
f 531//550 530//551 525//549
f 530//551 523//515 525//549
f 526//474 527//552 488//472
f 527//552 526//474 533//553
f 519//541 488//472 527//552
f 519//541 527//552 528//554
f 533//553 534//555 527//552
f 534//555 528//554 527//552
f 519//541 528//554 520//545
f 520//545 537//556 529//547
f 529//547 539//557 575//558
f 523//515 530//551 492//478
f 492//478 530//551 532//559
f 532//559 530//551 531//550
f 532//559 531//550 542//560
f 492//478 532//559 541//486
f 533//553 495//516 545//561
f 533//553 545//561 534//555
f 535//562 536//563 534//555
f 533//553 526//474 495//516
f 534//555 536//563 528//554
f 528//554 536//563 520//545
f 536//563 535//562 538//564
f 520//545 536//563 537//556
f 537//556 536//563 538//564
f 537//556 539//557 529//547
f 543//522 542//560 540//565
f 574//566 540//565 531//550
f 531//550 540//565 542//560
f 540//565 574//566 549//567
f 532//559 542//560 541//486
f 541//486 542//560 543//522
f 544//524 545//561 495//516
f 545//561 544//524 546//568
f 546//568 544//524 551//569
f 534//555 545//561 535//562
f 535//562 545//561 546//568
f 551//569 553//570 546//568
f 546//568 547//571 535//562
f 553//570 547//571 546//568
f 548//572 547//571 553//570
f 535//562 547//571 538//564
f 538//564 547//571 548//572
f 538//564 548//572 537//556
f 553//570 555//573 548//572
f 548//572 556//574 539//557
f 537//556 548//572 539//557
f 557//575 558//521 496//518
f 496//518 549//567 557//575
f 496//518 543//522 540//565
f 549//567 496//518 540//565
f 551//569 544//524 550//525
f 552//576 551//569 550//525
f 554//526 552//576 550//525
f 554//526 560//577 552//576
f 552//576 560//577 553//570
f 552//576 553//570 551//569
f 555//573 553//570 560//577
f 556//574 555//573 561//578
f 548//572 555//573 556//574
f 556//574 557//575 549//567
f 556//574 565//579 557//575
f 556//574 561//578 565//579
f 549//567 539//557 556//574
f 567//540 558//521 557//575
f 559//531 560//577 554//526
f 563//532 560//577 559//531
f 561//578 555//573 560//577
f 563//532 561//578 560//577
f 563//532 562//537 564//580
f 564//580 562//537 568//581
f 565//579 564//580 568//581
f 563//532 564//580 561//578
f 561//578 564//580 565//579
f 562//537 512//536 568//581
f 512//536 566//539 568//581
f 566//539 567//540 568//581
f 567//540 565//579 568//581
f 567//540 557//575 565//579
f 570//548 522//542 521//544
f 521//544 569//546 570//548
f 569//546 529//547 572//582
f 570//548 569//546 572//582
f 574//566 525//549 571//543
f 574//566 531//550 525//549
f 573//583 571//543 570//548
f 570//548 572//582 573//583
f 573//583 574//566 571//543
f 575//558 572//582 529//547
f 575//558 539//557 549//567
f 572//582 575//558 573//583
f 573//583 575//558 574//566
f 574//566 575//558 549//567
