# Blender 4.0.2
# www.blender.org
mtllib clavicle_l.mtl
o clavicle_l
v -0.072158 0.021791 -0.131729
v -0.072779 0.020250 -0.131650
v -0.072843 0.022219 -0.130982
v -0.075840 0.017389 -0.130138
v -0.075065 0.016803 -0.130352
v -0.075106 0.020298 -0.130374
v -0.078735 0.014294 -0.128084
v -0.079368 0.018333 -0.127482
v -0.079265 0.020016 -0.126857
v -0.077943 0.021008 -0.127513
v -0.081032 0.013408 -0.126140
v -0.082257 0.013113 -0.124375
v -0.080510 0.015040 -0.126862
v -0.081504 0.015740 -0.125543
v -0.082016 0.018425 -0.123815
v -0.079499 0.021930 -0.124215
v -0.082929 0.014636 -0.123231
v -0.066698 0.021401 -0.132147
v -0.065570 0.021231 -0.131799
v -0.068368 0.022125 -0.132485
v -0.068007 0.022671 -0.132266
v -0.067865 0.023524 -0.131077
v -0.065739 0.022370 -0.132102
v -0.066048 0.023308 -0.131442
v -0.065264 0.021794 -0.131965
v -0.070519 0.017438 -0.129790
v -0.070284 0.021735 -0.132317
v -0.070859 0.020121 -0.131954
v -0.069892 0.022679 -0.131986
v -0.071546 0.023172 -0.130179
v -0.075763 0.015054 -0.129283
v -0.073880 0.016142 -0.129844
v -0.074889 0.014588 -0.128680
v -0.073924 0.014492 -0.127079
v -0.079160 0.012759 -0.126943
v -0.078037 0.012365 -0.126642
v -0.075858 0.013197 -0.126955
v -0.081323 0.012354 -0.125100
v -0.080060 0.011789 -0.125085
v -0.081551 0.011831 -0.123732
v -0.080847 0.011583 -0.123607
v -0.079123 0.011741 -0.124557
v -0.077812 0.012189 -0.124745
v -0.077792 0.023526 -0.121676
v -0.082382 0.012274 -0.122812
v -0.082103 0.011742 -0.121215
v -0.080847 0.011757 -0.120690
v -0.084045 0.015623 -0.120303
v -0.083318 0.013007 -0.121125
v -0.082307 0.020557 -0.121529
v -0.083569 0.018025 -0.121010
v -0.081264 0.022022 -0.120908
v -0.079924 0.023265 -0.118185
v -0.084352 0.014123 -0.118617
v -0.084815 0.015528 -0.117214
v -0.083874 0.012956 -0.117933
v -0.084378 0.018988 -0.117987
v -0.083236 0.020995 -0.117244
v -0.084209 0.020038 -0.115095
v -0.062154 0.022680 -0.130478
v -0.062150 0.023197 -0.130204
v -0.061899 0.022057 -0.130122
v -0.066265 0.019295 -0.130488
v -0.062745 0.020021 -0.129262
v -0.064672 0.017888 -0.128174
v -0.064482 0.022224 -0.131756
v -0.065680 0.024017 -0.130120
v -0.064220 0.021561 -0.131418
v -0.064023 0.023081 -0.131248
v -0.064066 0.023702 -0.130520
v -0.064038 0.024182 -0.129471
v -0.062927 0.023757 -0.129906
v -0.070324 0.016426 -0.128301
v -0.067214 0.017354 -0.128764
v -0.066228 0.025213 -0.126314
v -0.073459 0.014689 -0.126003
v -0.070403 0.015750 -0.124598
v -0.068722 0.025380 -0.123720
v -0.076643 0.013509 -0.120536
v -0.079034 0.013130 -0.115593
v -0.084676 0.014174 -0.116245
v -0.084908 0.015103 -0.114912
v -0.082925 0.012461 -0.116814
v -0.084451 0.013922 -0.114983
v -0.084903 0.018327 -0.114603
v -0.080707 0.022952 -0.113261
v -0.083921 0.014348 -0.111848
v -0.084476 0.015176 -0.111371
v -0.084573 0.016745 -0.110326
v -0.082996 0.021138 -0.110908
v -0.084152 0.019516 -0.110334
v -0.061190 0.021827 -0.129325
v -0.061028 0.022407 -0.129455
v -0.060992 0.022896 -0.129330
v -0.061277 0.023488 -0.128788
v -0.060778 0.023296 -0.128242
v -0.060280 0.022113 -0.128020
v -0.062101 0.018376 -0.126482
v -0.060748 0.020463 -0.127479
v -0.059823 0.021540 -0.125662
v -0.064753 0.017296 -0.126361
v -0.063107 0.025314 -0.125076
v -0.064600 0.025816 -0.123045
v -0.061715 0.025164 -0.123110
v -0.072644 0.025606 -0.117015
v -0.075179 0.025379 -0.112297
v -0.081542 0.013333 -0.113054
v -0.083491 0.015911 -0.107663
v -0.082770 0.020751 -0.106700
v -0.083469 0.019259 -0.106417
v -0.061079 0.018901 -0.123854
v -0.059259 0.021925 -0.121486
v -0.059299 0.023263 -0.122087
v -0.062536 0.017718 -0.123998
v -0.064787 0.016765 -0.122228
v -0.062347 0.018180 -0.120536
v -0.060779 0.019494 -0.120270
v -0.060287 0.024651 -0.119406
v -0.061594 0.025536 -0.117801
v -0.063145 0.026001 -0.117984
v -0.063478 0.025884 -0.115753
v -0.067689 0.016161 -0.118641
v -0.067847 0.026253 -0.116222
v -0.077633 0.013075 -0.108540
v -0.076159 0.025084 -0.108544
v -0.082011 0.014801 -0.107486
v -0.079116 0.023169 -0.104887
v -0.082296 0.015708 -0.104896
v -0.059981 0.024340 -0.118180
v -0.059284 0.022198 -0.116780
v -0.063252 0.017809 -0.117275
v -0.060668 0.019311 -0.116444
v -0.061894 0.018240 -0.113864
v -0.060630 0.024189 -0.115446
v -0.064838 0.017384 -0.114371
v -0.068192 0.016190 -0.113164
v -0.070233 0.015264 -0.111384
v -0.067187 0.016796 -0.110148
v -0.072301 0.025471 -0.104816
v -0.079404 0.013331 -0.104803
v -0.080168 0.013877 -0.101920
v -0.080849 0.014953 -0.099980
v -0.081290 0.020196 -0.099669
v -0.079528 0.021119 -0.097031
v -0.081218 0.018180 -0.097791
v -0.060038 0.020468 -0.112848
v -0.059909 0.021663 -0.113602
v -0.062587 0.018231 -0.109656
v -0.060301 0.019836 -0.109837
v -0.060758 0.021662 -0.110041
v -0.065390 0.024903 -0.108082
v -0.078409 0.011746 -0.100106
v -0.077197 0.011044 -0.098385
v -0.076114 0.022837 -0.095739
v -0.077605 0.021131 -0.093047
v -0.080066 0.018963 -0.094754
v -0.078915 0.020230 -0.093792
v -0.060726 0.019096 -0.108818
v -0.060068 0.019120 -0.106315
v -0.061183 0.018163 -0.105508
v -0.060956 0.021611 -0.105993
v -0.059727 0.019944 -0.105418
v -0.074289 0.011775 -0.098656
v -0.076398 0.010588 -0.096137
v -0.073963 0.010745 -0.094532
v -0.078524 0.010348 -0.095310
v -0.078578 0.009109 -0.092337
v -0.079079 0.009703 -0.091623
v -0.077461 0.008918 -0.092706
v -0.077912 0.008616 -0.091553
v -0.078316 0.008863 -0.091190
v -0.079904 0.011369 -0.094081
v -0.079398 0.011381 -0.091170
v -0.079395 0.015156 -0.090680
v -0.078222 0.017894 -0.090144
v -0.059427 0.017712 -0.101974
v -0.058342 0.018484 -0.101419
v -0.059754 0.021434 -0.099208
v -0.058140 0.019373 -0.100519
v -0.064031 0.016035 -0.099455
v -0.063821 0.024050 -0.098745
v -0.066398 0.014970 -0.094784
v -0.069061 0.014013 -0.096217
v -0.074613 0.010014 -0.092675
v -0.077074 0.008707 -0.091530
v -0.078497 0.009914 -0.090024
v -0.077179 0.008686 -0.090780
v -0.077633 0.008884 -0.090351
v -0.076321 0.009285 -0.089749
v -0.074491 0.009709 -0.090333
v -0.076501 0.011909 -0.087176
v -0.075066 0.019372 -0.086550
v -0.078765 0.012619 -0.088979
v -0.077630 0.014587 -0.087480
v -0.057825 0.016770 -0.097998
v -0.057058 0.019545 -0.097443
v -0.063712 0.015437 -0.094779
v -0.065237 0.014024 -0.089881
v -0.072547 0.010864 -0.085812
v -0.071732 0.019883 -0.082947
v -0.072800 0.017912 -0.082934
v -0.055739 0.017735 -0.096421
v -0.054155 0.017023 -0.094044
v -0.054350 0.018534 -0.093600
v -0.059754 0.024215 -0.088042
v -0.070664 0.011008 -0.086946
v -0.069080 0.011165 -0.084276
v -0.069193 0.011130 -0.082132
v -0.072395 0.015810 -0.082256
v -0.071738 0.013190 -0.082386
v -0.069620 0.011839 -0.081555
v -0.070747 0.018475 -0.081524
v -0.068303 0.018966 -0.080408
v -0.070260 0.021182 -0.083602
v -0.069917 0.020048 -0.081701
v -0.054727 0.015346 -0.092138
v -0.051870 0.016344 -0.091706
v -0.052055 0.017016 -0.091947
v -0.052211 0.017587 -0.091660
v -0.053009 0.019625 -0.089310
v -0.059541 0.014019 -0.088066
v -0.062676 0.012801 -0.084915
v -0.059861 0.022858 -0.081623
v -0.060753 0.023968 -0.085199
v -0.066471 0.011324 -0.082557
v -0.066507 0.010970 -0.080804
v -0.068707 0.015110 -0.079919
v -0.066898 0.012713 -0.079317
v -0.066632 0.020504 -0.080669
v -0.052490 0.014021 -0.087339
v -0.052706 0.022459 -0.082572
v -0.055374 0.022634 -0.080080
v -0.061069 0.010765 -0.079889
v -0.062791 0.013869 -0.077233
v -0.060484 0.020284 -0.078701
v -0.065060 0.011534 -0.078998
v -0.046786 0.015000 -0.087104
v -0.046760 0.016156 -0.086882
v -0.047458 0.017897 -0.085247
v -0.049011 0.020632 -0.082846
v -0.052282 0.012857 -0.081799
v -0.053639 0.022713 -0.081204
v -0.056368 0.011684 -0.080269
v -0.057768 0.011169 -0.078546
v -0.056669 0.019040 -0.075607
v -0.060750 0.010751 -0.078386
v -0.061203 0.011039 -0.077958
v -0.058958 0.011474 -0.077000
v -0.058626 0.013120 -0.075735
v -0.060219 0.015361 -0.076227
v -0.045778 0.012212 -0.083678
v -0.043103 0.017019 -0.083119
v -0.042803 0.015943 -0.083747
v -0.046111 0.018720 -0.082862
v -0.045839 0.019762 -0.080008
v -0.046071 0.020222 -0.078265
v -0.051898 0.011797 -0.078607
v -0.056070 0.011697 -0.075940
v -0.052636 0.011127 -0.077395
v -0.053694 0.011057 -0.075815
v -0.053408 0.011339 -0.074721
v -0.053562 0.012288 -0.073798
v -0.053142 0.019955 -0.074774
v -0.039343 0.014518 -0.080972
v -0.038911 0.016046 -0.079752
v -0.045768 0.011827 -0.078764
v -0.047817 0.020360 -0.074710
v -0.052415 0.014389 -0.072442
v -0.039120 0.012015 -0.080534
v -0.037968 0.015240 -0.079520
v -0.041168 0.009973 -0.078125
v -0.039416 0.010372 -0.079800
v -0.039153 0.009212 -0.078141
v -0.039653 0.017735 -0.077921
v -0.043839 0.011111 -0.073995
v -0.046966 0.014012 -0.069429
v -0.047356 0.016906 -0.070112
v -0.033551 0.009133 -0.076335
v -0.033771 0.011733 -0.076840
v -0.033307 0.013611 -0.076170
v -0.034683 0.016493 -0.075005
v -0.035529 0.008105 -0.076429
v -0.034406 0.017158 -0.073160
v -0.041020 0.010701 -0.073288
v -0.045142 0.010132 -0.071139
v -0.045040 0.010061 -0.069975
v -0.045523 0.010811 -0.069342
v -0.042927 0.010109 -0.070279
v -0.043521 0.010115 -0.069437
v -0.043803 0.010452 -0.068793
v -0.043058 0.010381 -0.068568
v -0.043216 0.010829 -0.068176
v -0.043991 0.011902 -0.068017
v -0.032426 0.006575 -0.073693
v -0.031766 0.014926 -0.074085
v -0.034600 0.006987 -0.074443
v -0.033163 0.006642 -0.072933
v -0.035414 0.007729 -0.073565
v -0.037417 0.009593 -0.072287
v -0.037966 0.009448 -0.068086
v -0.039335 0.017921 -0.068024
v -0.040842 0.012087 -0.065847
v -0.039756 0.010102 -0.066542
v -0.026420 0.010164 -0.072147
v -0.029971 0.006305 -0.072404
v -0.030776 0.006198 -0.071832
v -0.027483 0.008359 -0.072746
v -0.028266 0.006787 -0.072396
v -0.028140 0.012365 -0.072741
v -0.031749 0.006670 -0.071370
v -0.031448 0.007537 -0.068798
v -0.030984 0.016585 -0.065374
v -0.033048 0.008367 -0.067270
v -0.034760 0.008706 -0.064958
v -0.033870 0.015986 -0.063667
v -0.035599 0.014701 -0.063148
v -0.038355 0.010613 -0.064933
v -0.025966 0.005244 -0.069389
v -0.028307 0.005790 -0.069056
v -0.033574 0.010106 -0.061484
v -0.034154 0.012205 -0.061564
v -0.022652 0.006004 -0.068680
v -0.025223 0.015390 -0.063917
v -0.030748 0.008121 -0.060791
v -0.029072 0.009969 -0.057861
v -0.018835 0.003560 -0.064306
v -0.018663 0.007594 -0.066290
v -0.018656 0.010168 -0.065610
v -0.020391 0.014511 -0.060149
v -0.022671 0.014850 -0.058914
v -0.026774 0.013918 -0.058076
v -0.028481 0.012021 -0.057752
v -0.014947 0.002624 -0.060411
v -0.018284 0.012611 -0.062854
v -0.015582 0.011853 -0.060570
v -0.018307 0.002713 -0.061520
v -0.016557 0.013459 -0.059015
v -0.021546 0.013700 -0.054226
v -0.023414 0.006057 -0.054747
v -0.023280 0.009014 -0.052859
v -0.023749 0.012409 -0.054386
v -0.013931 0.003778 -0.061039
v -0.011571 0.005872 -0.059351
v -0.012821 0.009360 -0.059070
v -0.014939 0.002014 -0.058259
v -0.013585 0.013000 -0.055341
v -0.015842 0.014000 -0.055898
v -0.019648 0.004213 -0.053041
v -0.009936 0.008211 -0.056932
v -0.009889 0.009690 -0.055607
v -0.016859 0.002471 -0.056749
v -0.011510 0.012524 -0.053184
v -0.011174 0.013392 -0.050783
v -0.018087 0.005592 -0.048572
v -0.006947 0.004090 -0.053857
v -0.006690 0.006509 -0.053775
v -0.010581 0.000335 -0.050060
v -0.012410 0.013810 -0.048971
v -0.014336 0.012936 -0.046723
v -0.013948 0.003023 -0.045738
v -0.017195 0.007587 -0.046622
v -0.016104 0.010358 -0.045983
v -0.006457 0.000791 -0.050452
v -0.004088 0.004653 -0.050295
v -0.005262 0.010151 -0.049795
v -0.003796 0.007949 -0.049428
v -0.004837 0.012011 -0.046747
v -0.007290 0.000133 -0.049690
v -0.008588 0.013940 -0.045518
v -0.005799 0.013390 -0.044965
v -0.009122 0.013633 -0.041733
v -0.014677 0.004844 -0.044066
v -0.013377 0.007339 -0.041160
v -0.011673 0.011525 -0.040692
v -0.004564 0.001526 -0.049104
v -0.001799 0.005312 -0.046807
v -0.002282 0.002863 -0.046737
v -0.003817 0.000115 -0.045072
v -0.010181 0.002082 -0.039189
v -0.011631 0.006362 -0.037366
v 0.000626 0.007161 -0.042191
v -0.005389 -0.000571 -0.043261
v -0.001453 0.012420 -0.041081
v -0.001217 0.013132 -0.038019
v -0.011261 0.004103 -0.037305
v -0.009203 0.010471 -0.033553
v 0.000366 0.003096 -0.041767
v -0.000218 0.000234 -0.036865
v -0.000427 0.001423 -0.041250
v 0.002203 0.005216 -0.038743
v 0.000607 0.010255 -0.040445
v 0.000735 0.011893 -0.037582
v -0.003402 0.014182 -0.034158
v -0.000996 0.013616 -0.032752
v -0.005480 -0.000246 -0.036350
v -0.007312 0.012543 -0.031043
v -0.005178 0.013977 -0.030427
v -0.009164 0.003231 -0.030963
v -0.007824 0.001842 -0.030145
v -0.009232 0.005621 -0.028880
v -0.008223 0.010339 -0.029737
v 0.003062 0.002776 -0.034724
v 0.003734 0.006846 -0.034597
v 0.003628 0.008751 -0.033635
v 0.001139 0.012367 -0.032071
v -0.002090 0.014059 -0.030233
v -0.000841 0.013540 -0.028487
v -0.003115 0.014029 -0.025638
v -0.005086 0.013326 -0.023167
v -0.008000 0.008637 -0.022346
v 0.004237 0.004545 -0.032886
v 0.004561 0.009119 -0.028547
v -0.005725 0.001001 -0.021100
v -0.008326 0.003181 -0.021865
v -0.008561 0.005232 -0.020869
v -0.008524 0.003938 -0.019318
v 0.004989 0.003000 -0.028578
v 0.005503 0.005166 -0.027629
v 0.005203 0.006964 -0.028787
v 0.003671 -0.000423 -0.024430
v -0.001421 -0.001793 -0.021485
v -0.005013 0.000028 -0.018189
v -0.003130 0.014090 -0.018117
v -0.006988 0.000718 -0.016596
v -0.008217 0.002366 -0.017512
v -0.008555 0.006861 -0.012204
v 0.002739 -0.001325 -0.022942
v 0.005376 0.000427 -0.022166
v 0.004723 -0.001164 -0.020806
v 0.006246 0.002376 -0.021383
v 0.006435 0.005671 -0.021194
v 0.006091 0.007480 -0.019446
v 0.005055 0.008960 -0.020269
v -0.000988 -0.002310 -0.017583
v -0.002097 -0.001624 -0.015555
v 0.002056 0.011553 -0.014842
v -0.002082 0.013794 -0.014421
v -0.006379 -0.000055 -0.014503
v -0.004753 -0.000246 -0.015545
v -0.004175 -0.001054 -0.012814
v -0.006940 -0.000696 -0.012175
v -0.006811 -0.001790 -0.010508
v -0.007329 -0.001884 -0.010058
v -0.008729 0.002442 -0.012087
v -0.008220 -0.000063 -0.010805
v -0.007085 0.011367 -0.009819
v -0.004400 0.013486 -0.009489
v -0.009326 0.007371 -0.006557
v -0.008535 0.010870 -0.005265
v -0.009210 0.011343 -0.003536
v 0.003051 -0.004081 -0.015280
v 0.006019 0.007064 -0.013959
v -0.000432 -0.003263 -0.014928
v -0.001925 0.013206 -0.008023
v 0.000730 0.012408 -0.009650
v -0.006663 -0.003028 -0.009090
v -0.006666 -0.003816 -0.008294
v -0.004439 -0.002813 -0.009346
v -0.005416 -0.003998 -0.008409
v -0.002776 -0.003743 -0.009477
v -0.003594 -0.004121 -0.008547
v -0.004157 0.013524 -0.005398
v -0.002781 0.013085 -0.004469
v -0.007188 -0.005441 -0.005839
v -0.007707 0.012381 -0.004580
v -0.008940 0.011871 -0.003243
v -0.006435 0.013249 -0.004930
v -0.007278 0.013096 -0.003355
v -0.005982 0.013503 -0.003721
v -0.007187 0.013037 -0.002681
v -0.006910 0.012845 -0.002183
v -0.005581 0.013106 -0.002481
v -0.009898 -0.002848 -0.002211
v -0.010156 0.001999 -0.003888
v -0.010309 0.005784 -0.003854
v -0.010498 0.009268 -0.002546
v -0.011056 0.006348 -0.001722
v -0.010588 0.009473 -0.001346
v -0.010161 0.009829 -0.000804
v -0.010772 0.007046 0.000177
v -0.010150 0.007837 0.000657
v -0.009682 0.011173 -0.002529
v -0.008781 0.012102 -0.002261
v -0.009387 0.011441 -0.001860
v -0.008392 0.012159 -0.001849
v -0.008903 0.011599 -0.001500
v -0.008121 0.011796 -0.001338
v 0.006596 -0.003397 -0.013927
v 0.007707 0.002769 -0.011917
v -0.000054 -0.006023 -0.009875
v -0.000473 -0.007589 -0.008040
v 0.002600 0.010956 -0.006724
v -0.004229 -0.006608 -0.007102
v -0.002193 -0.006914 -0.007608
v -0.003770 -0.010308 -0.004383
v -0.002832 0.008374 0.000927
v -0.005012 0.011194 -0.000307
v -0.007597 -0.010793 -0.001128
v -0.009679 -0.008484 -0.000263
v -0.009293 -0.009834 0.000258
v -0.008722 0.009056 0.000750
v -0.009394 0.007630 0.001319
v -0.007813 0.008182 0.001385
v -0.010671 -0.006474 0.000650
v -0.010274 -0.008490 0.001429
v -0.011344 -0.004804 0.002262
v -0.010985 -0.006615 0.002617
v -0.011292 -0.004662 0.003498
v -0.011030 -0.000240 0.000703
v -0.011362 -0.001984 0.003406
v -0.010973 -0.000974 0.004019
v -0.010902 -0.002423 0.004401
v -0.011070 0.001980 0.001523
v -0.010805 0.003202 0.001877
v -0.010194 0.003938 0.002295
v -0.008693 0.003775 0.002887
v 0.008275 -0.001496 -0.012377
v 0.007837 -0.003574 -0.010553
v 0.006399 -0.005335 -0.009226
v 0.006842 -0.004823 -0.007360
v 0.008187 -0.003080 -0.007871
v 0.008429 -0.001490 -0.007552
v 0.006263 0.005452 -0.008012
v 0.007708 0.002200 -0.008299
v 0.006880 0.002747 -0.004811
v 0.002030 -0.007940 -0.008582
v 0.002627 -0.008474 -0.007393
v 0.003401 -0.008091 -0.006242
v 0.004845 -0.004385 -0.004350
v 0.004167 0.007895 -0.003328
v 0.003686 0.007606 -0.002096
v 0.002704 0.009602 -0.002334
v -0.000298 -0.010225 -0.005309
v 0.000091 -0.010477 -0.004324
v -0.000637 -0.010814 -0.003074
v 0.000904 -0.009786 -0.003613
v 0.001980 -0.007924 -0.003259
v -0.000346 -0.010154 -0.002224
v 0.002250 -0.002614 -0.001851
v 0.000585 0.007961 0.000128
v 0.001213 0.010546 -0.001890
v 0.002091 0.009330 -0.001262
v 0.000208 0.009519 -0.000261
v -0.005572 -0.011823 -0.001663
v -0.003495 -0.011597 -0.002704
v -0.004151 -0.011923 -0.000960
v -0.002742 -0.011221 -0.000770
v -0.002657 -0.010068 0.000075
v -0.000551 0.005183 0.000823
v -0.007683 -0.011330 -0.000276
v -0.005974 -0.011957 -0.000590
v -0.007072 -0.011344 0.000506
v -0.004654 -0.011253 0.000408
v -0.008798 -0.010439 0.000951
v -0.005991 -0.009090 0.002481
v -0.004611 -0.005823 0.002672
v -0.004295 -0.000259 0.002681
v -0.006012 0.003581 0.002537
v -0.009808 -0.008633 0.002345
v -0.008025 -0.009421 0.002528
v -0.007493 -0.007846 0.003450
v -0.010625 -0.004372 0.004315
v -0.010051 -0.006096 0.003942
v -0.009454 -0.004689 0.004536
v -0.007559 -0.004112 0.004320
v -0.009874 -0.000362 0.004567
v -0.008335 -0.000084 0.004442
v -0.009813 -0.002584 0.004766
v 0.007693 -0.003040 -0.005952
v 0.008164 -0.001958 -0.006076
v 0.007926 -0.000402 -0.005524
v 0.007070 -0.002247 -0.004463
v 0.007259 -0.001204 -0.004208
v 0.006534 0.001123 -0.003349
v 0.006158 -0.001196 -0.003367
v -0.078524 0.010348 -0.095310
v -0.058342 0.018484 -0.101419
v -0.072547 0.010864 -0.085812
v -0.055739 0.017735 -0.096421
v -0.069193 0.011130 -0.082132
v -0.045778 0.012212 -0.083678
v -0.026774 0.013918 -0.058076
v -0.010985 -0.006615 0.002617
vn -0.3259 -0.0468 -0.9443
vn -0.3821 0.3700 -0.8468
vn -0.1703 0.1095 -0.9793
vn 0.0006 -0.3858 -0.9226
vn -0.4576 0.6669 -0.5881
vn -0.2042 0.6776 -0.7065
vn -0.2736 0.8937 -0.3557
vn -0.1713 -0.3548 -0.9191
vn -0.4816 -0.0559 -0.8746
vn -0.4270 -0.2985 -0.8536
vn -0.0448 -0.5889 -0.8069
vn -0.5554 0.2505 -0.7929
vn -0.5835 0.5751 -0.5734
vn -0.5546 0.7385 -0.3834
vn -0.2816 -0.6577 -0.6986
vn -0.6831 0.1778 -0.7083
vn -0.6855 -0.0011 -0.7280
vn -0.7027 0.4093 -0.5820
vn -0.8259 0.2738 -0.4929
vn -0.6722 -0.2825 -0.6843
vn -0.8188 0.1027 -0.5649
vn -0.8427 -0.2895 -0.4540
vn -0.5755 -0.6350 -0.5153
vn -0.9124 -0.0224 -0.4086
vn -0.8668 -0.4439 -0.2273
vn -0.9028 0.2125 -0.3738
vn -0.7829 0.5071 -0.3605
vn 0.1490 -0.3630 -0.9198
vn -0.0090 0.0789 -0.9968
vn 0.1812 0.2630 -0.9476
vn 0.2539 -0.6466 -0.7194
vn 0.2791 -0.2330 -0.9316
vn 0.2643 -0.5168 -0.8143
vn 0.4352 -0.4307 -0.7906
vn 0.0010 0.5906 -0.8070
vn -0.0907 0.8939 -0.4390
vn 0.0780 0.7602 -0.6450
vn 0.0024 0.9228 -0.3853
vn 0.3886 0.0406 -0.9205
vn 0.2979 0.5536 -0.7777
vn 0.1726 0.8292 -0.5316
vn -0.0573 0.9699 -0.2368
vn 0.2172 -0.6965 -0.6839
vn 0.1947 -0.6210 -0.7592
vn 0.2810 -0.8811 -0.3804
vn 0.2392 -0.8357 -0.4944
vn -0.3357 0.9188 -0.2075
vn -0.1619 0.9721 -0.1695
vn 0.2755 -0.7743 -0.5696
vn 0.1139 -0.8865 -0.4484
vn 0.4088 -0.8771 -0.2521
vn 0.4800 -0.8583 -0.1816
vn 0.4414 -0.8969 -0.0272
vn 0.2825 -0.9550 -0.0904
vn 0.1494 -0.9794 0.1361
vn 0.3973 -0.9171 0.0324
vn 0.3556 -0.9321 0.0686
vn -0.1574 -0.9197 -0.3596
vn -0.5151 -0.8124 -0.2734
vn -0.7455 -0.6222 -0.2388
vn 0.2017 -0.9786 -0.0412
vn -0.1058 -0.9901 -0.0917
vn -0.5991 0.7639 -0.2399
vn -0.4438 0.8914 -0.0913
vn -0.2489 0.9683 -0.0193
vn -0.3902 -0.9207 -0.0095
vn -0.9520 -0.0156 -0.3056
vn -0.9421 -0.2693 -0.1995
vn -0.9883 -0.0414 -0.1466
vn -0.9251 0.3153 -0.2114
vn -0.7196 0.6851 -0.1127
vn -0.9817 0.1903 0.0031
vn -0.7349 -0.6778 -0.0243
vn -0.9277 -0.3723 -0.0263
vn -0.9834 -0.1753 0.0470
vn -0.8381 0.5452 -0.0191
vn -0.9779 -0.0551 0.2018
vn -0.9155 0.3820 0.1263
vn -0.5169 0.8559 0.0134
vn -0.6901 0.7201 0.0724
vn 0.4799 0.6051 -0.6352
vn 0.5563 0.1022 -0.8247
vn 0.5806 -0.3478 -0.7362
vn 0.4980 -0.6092 -0.6171
vn 0.7610 0.3825 -0.5240
vn 0.5068 0.7926 -0.3390
vn 0.6915 -0.4262 -0.5832
vn 0.7777 -0.1079 -0.6193
vn 0.3525 -0.8078 -0.4725
vn 0.1302 0.9329 -0.3358
vn 0.2992 0.8451 -0.4431
vn 0.2345 0.9498 -0.2072
vn 0.2886 -0.9356 -0.2035
vn -0.1955 0.9761 -0.0944
vn 0.3554 -0.9330 -0.0564
vn 0.1783 -0.9804 0.0838
vn -0.2873 -0.9409 0.1794
vn -0.7709 -0.6200 0.1463
vn -0.8804 -0.4154 0.2286
vn -0.1548 -0.9697 0.1890
vn -0.5454 -0.7976 0.2576
vn -0.7970 -0.5276 0.2939
vn 0.9378 -0.0392 -0.3449
vn 0.7603 0.5972 -0.2557
vn 0.7761 -0.5144 -0.3647
vn 0.5752 -0.7619 -0.2976
vn 0.4899 -0.8706 -0.0461
vn 0.7593 -0.6492 -0.0441
vn 0.4485 0.8837 -0.1338
vn 0.9588 -0.2338 -0.1613
vn 0.9140 0.3903 -0.1110
vn 0.3175 -0.9482 -0.0062
vn 0.0602 0.9913 -0.1171
vn 0.2741 -0.9616 0.0121
vn -0.0255 0.9997 -0.0021
vn -0.0858 0.9899 0.1130
vn -0.0356 -0.9969 -0.0706
vn -0.3170 0.9461 0.0665
vn -0.5041 -0.8432 0.1865
vn -0.5071 0.8494 0.1461
vn -0.9418 0.2471 0.2278
vn -0.9693 0.0433 0.2421
vn -0.7432 -0.6330 0.2168
vn -0.7488 0.6420 0.1645
vn -0.8248 0.5104 0.2436
vn 0.9680 -0.2483 -0.0364
vn 0.7572 -0.6531 -0.0125
vn 0.6483 0.7598 -0.0487
vn 0.5510 -0.8335 0.0410
vn 0.7475 -0.6639 -0.0227
vn 0.1790 0.9838 -0.0034
vn 0.4519 0.8877 0.0885
vn 0.7936 0.5988 0.1083
vn 0.7077 0.6584 0.2563
vn 0.4089 -0.9122 0.0244
vn 0.2727 0.9488 0.1595
vn 0.3547 0.9259 0.1297
vn 0.4045 -0.9133 0.0474
vn 0.3235 -0.9249 -0.1999
vn -0.3633 0.9039 0.2256
vn -0.5388 -0.8239 -0.1757
vn -0.5542 -0.8282 -0.0829
vn -0.9068 -0.4148 0.0748
vn -0.7376 -0.6748 0.0232
vn 0.9929 0.0194 0.1169
vn 0.9539 0.2206 0.2036
vn 0.3133 -0.9489 0.0370
vn 0.4876 -0.8730 0.0051
vn 0.9642 -0.2623 0.0387
vn 0.8318 0.5326 0.1565
vn 0.3820 -0.9229 -0.0489
vn 0.3547 -0.9343 -0.0355
vn 0.4190 -0.8950 -0.1529
vn -0.9168 -0.3977 -0.0369
vn -0.6389 0.7274 0.2502
vn 0.9701 -0.2383 -0.0457
vn 0.6255 -0.7691 -0.1316
vn 0.4001 -0.8901 -0.2185
vn 0.6945 0.7190 -0.0252
vn 0.3757 0.9220 -0.0935
vn 0.2254 -0.9567 -0.1840
vn 0.0259 -0.9695 -0.2438
vn -0.0840 -0.9266 -0.3666
vn -0.5585 0.7517 0.3508
vn -0.7062 -0.6664 -0.2393
vn -0.5814 -0.7864 -0.2088
vn -0.8773 0.3335 0.3450
vn -0.9178 0.1220 0.3779
vn -0.8014 0.3659 0.4732
vn -0.7391 0.5599 0.3745
vn 0.9433 0.2536 -0.2144
vn 0.8054 -0.5525 -0.2146
vn 0.4397 -0.8389 -0.3209
vn 0.9332 0.1207 -0.3386
vn 0.8427 0.4475 -0.2992
vn 0.6098 0.7725 -0.1771
vn 0.3010 -0.9402 -0.1596
vn 0.3806 -0.8938 -0.2373
vn 0.3191 -0.9449 -0.0733
vn 0.1558 -0.9429 -0.2945
vn 0.3968 -0.8926 -0.2140
vn -0.3475 0.8511 0.3935
vn -0.8724 -0.4635 0.1553
vn -0.9471 -0.1630 0.2765
vn 0.0405 -0.9386 -0.3426
vn -0.5978 -0.7657 0.2371
vn -0.6994 -0.4585 0.5482
vn 0.2575 -0.9585 -0.1223
vn -0.2214 -0.9740 -0.0473
vn -0.2774 -0.8072 0.5211
vn -0.8283 -0.1302 0.5450
vn -0.7674 0.0598 0.6384
vn -0.6764 0.5332 0.5082
vn 0.6583 -0.6375 -0.4002
vn 0.4092 -0.8261 -0.3874
vn 0.7542 0.5705 -0.3250
vn 0.0525 -0.9845 -0.1673
vn 0.1813 -0.9746 -0.1316
vn -0.0731 0.9742 0.2135
vn 0.3565 -0.9340 -0.0246
vn 0.1107 -0.9706 0.2139
vn 0.0531 -0.8754 0.4804
vn -0.5497 -0.4393 0.7105
vn -0.5912 -0.3793 0.7118
vn 0.1476 -0.9823 0.1156
vn -0.6770 0.2401 0.6957
vn 0.6569 -0.5158 -0.5499
vn 0.2230 -0.8870 -0.4043
vn 0.7182 -0.2705 -0.6411
vn 0.1963 -0.9442 -0.2644
vn 0.2483 0.9663 -0.0674
vn -0.4308 -0.6872 0.5849
vn -0.0095 -0.9998 -0.0168
vn -0.6257 -0.0297 0.7795
vn -0.5754 0.5748 0.5819
vn -0.5232 0.2382 0.8183
vn 0.8294 0.3223 -0.4564
vn 0.7417 0.4767 -0.4718
vn 0.0178 -0.9681 -0.2499
vn 0.5481 0.7456 -0.3790
vn 0.1489 -0.9523 -0.2662
vn 0.0793 -0.9348 -0.3462
vn -0.2582 0.6649 0.7009
vn -0.3000 0.6103 0.7332
vn -0.1608 0.8805 0.4460
vn -0.4336 -0.7193 0.5428
vn -0.5032 -0.5591 0.6590
vn -0.4827 -0.0176 0.8756
vn -0.4107 0.5879 0.6969
vn -0.3679 0.3255 0.8710
vn 0.2237 -0.7281 -0.6479
vn 0.6138 -0.3155 -0.7236
vn 0.7062 0.2087 -0.6766
vn 0.6465 0.5847 -0.4901
vn 0.6152 0.4206 -0.6668
vn 0.0693 -0.9589 -0.2751
vn 0.3476 0.9309 -0.1123
vn 0.1887 0.9750 0.1173
vn -0.0126 0.9388 0.3442
vn -0.4027 0.1481 0.9033
vn -0.1381 -0.9737 0.1810
vn -0.3289 -0.6268 0.7064
vn -0.4543 -0.3029 0.8378
vn -0.3882 -0.1166 0.9142
vn -0.1990 -0.9731 -0.1157
vn -0.1519 -0.9686 -0.1969
vn 0.5728 -0.2905 -0.7665
vn 0.4922 0.7106 -0.5027
vn 0.4721 0.8175 -0.3300
vn 0.0681 -0.9814 -0.1793
vn 0.0939 -0.9955 0.0121
vn 0.1324 -0.9517 -0.2772
vn -0.0028 -0.9706 0.2407
vn -0.2132 -0.7448 0.6323
vn -0.3598 -0.3517 0.8642
vn 0.5032 0.6855 -0.5262
vn 0.6236 0.3082 -0.7184
vn 0.4541 0.7846 -0.4222
vn 0.3038 0.9508 -0.0602
vn -0.1643 -0.9803 0.1096
vn -0.2783 -0.8202 0.4998
vn -0.0938 -0.8074 0.5825
vn -0.2190 0.7427 0.6328
vn -0.4082 0.4796 0.7768
vn -0.4305 0.3276 0.8410
vn -0.4307 -0.5092 0.7452
vn -0.4615 -0.1069 0.8807
vn 0.6387 0.0688 -0.7664
vn 0.6145 0.3925 -0.6843
vn 0.4132 0.8701 -0.2687
vn 0.0731 0.9603 0.2692
vn 0.3811 0.8910 -0.2468
vn 0.1550 -0.9228 -0.3528
vn 0.0607 -0.9676 -0.2450
vn 0.0205 -0.9867 -0.1613
vn -0.3624 -0.8050 0.4697
vn -0.1886 -0.9412 0.2804
vn 0.5574 0.6277 -0.5433
vn 0.2689 -0.6478 -0.7128
vn 0.5297 -0.2605 -0.8072
vn -0.1648 -0.9184 -0.3596
vn -0.3885 -0.9203 0.0462
vn 0.4387 0.8058 -0.3977
vn -0.2133 -0.9751 -0.0609
vn -0.0263 -0.9795 -0.1998
vn 0.3021 0.9436 -0.1354
vn -0.4975 0.0109 0.8674
vn 0.4309 -0.3583 -0.8282
vn 0.5734 0.0074 -0.8192
vn 0.6095 0.2625 -0.7481
vn 0.5619 0.5738 -0.5959
vn -0.4114 -0.8947 0.1741
vn 0.1479 -0.7526 -0.6417
vn -0.2694 -0.9547 -0.1263
vn 0.4802 0.7550 -0.4465
vn -0.2075 -0.9768 -0.0521
vn -0.0212 -0.9878 -0.1546
vn -0.0382 0.9094 0.4143
vn 0.0993 0.9791 0.1773
vn -0.4517 -0.5316 0.7164
vn -0.5008 -0.3162 0.8058
vn 0.0455 -0.9161 -0.3985
vn -0.5035 -0.8088 0.3040
vn -0.4224 -0.8815 0.2110
vn -0.2027 -0.9791 -0.0187
vn -0.1139 -0.9753 0.1895
vn -0.2709 -0.7678 0.5805
vn -0.4225 -0.5684 0.7060
vn -0.3289 -0.7820 0.5294
vn -0.3368 -0.8464 0.4126
vn -0.4798 -0.6037 0.6367
vn -0.5287 -0.2613 0.8075
vn -0.5514 0.0522 0.8326
vn -0.1494 0.8223 0.5491
vn 0.3475 -0.6075 -0.7143
vn 0.1030 -0.8955 -0.4330
vn 0.5875 0.3653 -0.7221
vn 0.5297 0.7052 -0.4713
vn -0.3311 -0.9290 0.1652
vn -0.3537 -0.8864 0.2986
vn -0.1895 -0.9819 -0.0040
vn -0.3157 -0.9488 0.0127
vn -0.3530 -0.9230 0.1534
vn -0.3788 0.4798 0.7914
vn 0.0401 -0.9276 -0.3713
vn -0.3467 -0.9294 0.1265
vn 0.5104 -0.2250 -0.8300
vn 0.5943 0.1066 -0.7971
vn 0.4586 -0.4783 -0.7490
vn -0.5089 -0.7653 0.3942
vn -0.5834 -0.3559 0.7301
vn -0.6175 -0.0962 0.7806
vn -0.6171 -0.5828 0.5287
vn 0.6474 -0.0521 -0.7604
vn -0.3379 -0.9396 0.0541
vn 0.0138 0.9862 0.1647
vn -0.5383 0.3381 0.7720
vn 0.5844 -0.4632 -0.6663
vn 0.7188 0.0063 -0.6952
vn 0.4547 0.8307 -0.3213
vn 0.2353 0.9668 -0.0993
vn -0.4938 -0.8287 0.2635
vn -0.7055 -0.0760 0.7046
vn -0.4710 0.5585 0.6828
vn -0.1221 0.9046 0.4084
vn 0.2635 -0.7983 -0.5416
vn -0.1316 -0.9827 -0.1303
vn 0.6543 0.3723 -0.6583
vn 0.6850 0.4489 -0.5737
vn -0.5437 0.4840 0.6857
vn -0.3186 0.8530 0.4133
vn 0.2743 -0.8568 -0.4367
vn -0.0437 -0.9860 -0.1609
vn 0.6511 0.5900 -0.4775
vn 0.2924 0.9433 -0.1573
vn -0.4298 0.8197 0.3785
vn 0.5374 0.7563 -0.3730
vn 0.6902 0.3430 -0.6372
vn 0.6054 0.5914 -0.5327
vn 0.5333 0.7434 -0.4037
vn 0.3143 0.9176 -0.2435
vn -0.0197 0.9990 0.0389
vn -0.7186 -0.4527 0.5279
vn -0.7746 -0.0549 0.6300
vn 0.7248 -0.2866 -0.6265
vn 0.7718 0.1195 -0.6245
vn 0.5704 0.7027 -0.4253
vn -0.2472 -0.9689 -0.0119
vn -0.7922 -0.4101 0.4520
vn -0.5841 -0.7640 0.2741
vn -0.7062 0.3660 0.6061
vn 0.7991 0.2590 -0.5426
vn 0.8106 -0.1277 -0.5715
vn 0.6778 -0.5571 -0.4798
vn 0.6659 0.5369 -0.5181
vn 0.0726 0.9944 -0.0765
vn -0.3596 0.9199 0.1567
vn -0.8682 0.0780 0.4900
vn -0.7226 0.5722 0.3879
vn 0.4935 -0.7307 -0.4717
vn 0.1707 -0.9537 -0.2475
vn 0.4599 -0.8498 -0.2577
vn 0.8242 0.4044 -0.3966
vn 0.3516 0.8998 -0.2585
vn -0.8741 -0.3850 0.2963
vn -0.8915 0.3242 0.3163
vn -0.7312 0.6558 0.1879
vn 0.8074 -0.3669 -0.4621
vn 0.7031 -0.6410 -0.3079
vn 0.8547 -0.3275 -0.4028
vn 0.8639 -0.0292 -0.5029
vn 0.8879 0.1166 -0.4450
vn 0.0338 -0.9985 -0.0426
vn 0.5887 0.7308 -0.3454
vn 0.4201 0.8934 -0.1592
vn -0.3232 0.9437 0.0707
vn -0.6141 -0.7636 0.1995
vn -0.9280 -0.0014 0.3725
vn 0.9436 0.0993 -0.3157
vn 0.4277 -0.8890 -0.1638
vn 0.7202 0.6562 -0.2253
vn 0.1047 0.9936 -0.0425
vn -0.2359 -0.9709 0.0406
vn -0.9170 0.3593 0.1732
vn -0.8782 -0.4440 0.1779
vn -0.9872 0.0423 0.1537
vn 0.9207 -0.0942 -0.3787
vn 0.8285 -0.4736 -0.2988
vn 0.9023 0.3510 -0.2504
vn 0.6279 0.7758 -0.0627
vn 0.4039 0.9127 -0.0616
vn 0.2174 0.9760 0.0109
vn -0.6456 -0.7587 0.0867
vn -0.5992 0.7992 0.0469
vn -0.9995 0.0292 0.0128
vn -0.8873 -0.4612 0.0052
vn 0.9492 -0.1454 -0.2792
vn 0.4148 0.9095 0.0263
vn -0.0163 0.9993 0.0335
vn -0.9361 0.3483 0.0486
vn -0.9934 -0.1125 -0.0205
vn 0.9218 -0.3134 -0.2281
vn 0.9690 0.1653 -0.1835
vn 0.9822 -0.0391 -0.1836
vn 0.9824 0.1360 -0.1281
vn 0.8534 0.5107 -0.1044
vn -0.0671 0.9977 0.0102
vn -0.5892 -0.8064 -0.0505
vn -0.5546 -0.8086 -0.1963
vn -0.2631 0.9646 -0.0198
vn -0.9800 0.1817 -0.0809
vn -0.8826 -0.4574 -0.1087
vn -0.7877 0.6019 -0.1315
vn 0.8309 -0.4724 -0.2941
vn 0.9584 -0.1682 -0.2305
vn 0.7520 0.6592 0.0066
vn -0.2304 -0.9634 -0.1372
vn 0.2431 -0.9346 -0.2597
vn 0.5874 -0.7703 -0.2481
vn 0.0626 -0.9165 -0.3951
vn 0.6160 0.7875 0.0183
vn -0.4536 -0.8865 -0.0918
vn -0.4531 -0.8826 -0.1252
vn -0.5654 -0.8120 -0.1452
vn -0.3765 -0.9152 -0.1436
vn 0.2506 0.9671 0.0447
vn -0.2111 -0.9372 -0.2777
vn -0.9864 -0.1201 -0.1122
vn -0.8616 -0.4296 -0.2704
vn -0.8391 0.4433 -0.3154
vn 0.5936 -0.7114 -0.3762
vn 0.9032 0.4289 -0.0182
vn 0.8527 0.5193 0.0563
vn -0.4595 -0.8244 -0.3304
vn 0.4631 0.8830 0.0762
vn -0.4001 -0.8558 -0.3281
vn -0.4360 -0.8209 -0.3689
vn -0.2377 -0.7375 -0.6322
vn 0.2650 0.9602 0.0888
vn -0.5743 -0.6433 -0.5062
vn -0.1988 -0.8042 -0.5601
vn -0.1334 -0.7038 -0.6977
vn -0.6848 -0.5065 -0.5240
vn -0.9684 -0.0836 -0.2352
vn -0.9578 0.1669 -0.2339
vn 0.1154 0.9905 0.0743
vn -0.9223 -0.1803 -0.3419
vn -0.9407 -0.0160 -0.3390
vn -0.9328 0.2567 -0.2529
vn -0.7940 0.4744 -0.3802
vn -0.6591 0.7008 -0.2729
vn 0.6196 -0.6932 -0.3681
vn 0.9671 -0.1717 -0.1875
vn 0.0115 -0.8308 -0.5565
vn -0.5083 -0.7084 -0.4898
vn -0.5370 -0.6727 -0.5090
vn -0.3393 -0.6197 -0.7077
vn 0.6511 0.7483 0.1270
vn -0.3639 -0.6721 -0.6449
vn -0.3511 -0.5510 -0.7571
vn -0.1096 -0.5537 -0.8255
vn -0.3020 -0.5539 -0.7759
vn -0.3494 -0.5011 -0.7917
vn -0.0861 0.9892 0.1187
vn 0.3028 0.9236 0.2352
vn 0.4282 0.7852 0.4474
vn 0.0977 0.8792 0.4663
vn -0.9828 -0.0375 -0.1810
vn -0.4526 0.8779 -0.1562
vn -0.4557 0.8891 -0.0419
vn -0.6910 0.6852 -0.2304
vn -0.8376 0.5355 -0.1084
vn -0.5928 0.7906 0.1535
vn -0.2868 0.9129 0.2904
vn -0.3722 0.7882 0.4901
vn -0.1282 0.8165 0.5630
vn -0.2117 0.6738 0.7079
vn 0.0736 0.6404 0.7645
vn -0.8251 -0.3387 -0.4523
vn -0.9913 0.0529 -0.1204
vn -0.9937 0.0770 0.0812
vn -0.9269 0.3488 0.1381
vn -0.9145 0.2115 0.3448
vn -0.6793 0.5214 0.5164
vn -0.6610 0.3937 0.6388
vn -0.2809 0.5421 0.7919
vn -0.8781 0.2225 0.4235
vn -0.3771 0.3987 0.8359
vn -0.5572 0.3331 0.7607
vn -0.6950 0.6600 0.2853
vn -0.4536 0.6751 0.5818
vn 0.8329 -0.5285 -0.1641
vn 0.9658 0.2592 -0.0052
vn 0.9493 0.2990 0.0972
vn 0.8838 0.4525 0.1189
vn -0.3181 -0.6811 -0.6594
vn -0.5975 -0.5792 -0.5546
vn 0.1713 0.3266 0.9295
vn -0.0480 0.4116 0.9101
vn -0.0833 0.3602 0.9291
vn 0.2247 0.2273 0.9475
vn 0.3143 0.5216 0.7932
vn -0.7888 -0.5468 -0.2807
vn -0.2678 -0.8692 -0.4158
vn -0.5298 -0.8381 -0.1295
vn -0.5616 -0.7737 0.2931
vn -0.9248 -0.1930 -0.3278
vn -0.8847 -0.4662 0.0045
vn -0.9662 -0.2266 -0.1232
vn -0.5786 -0.5902 0.5629
vn -0.6761 -0.4441 0.5879
vn -0.3937 -0.4110 0.8222
vn -0.9874 -0.0958 -0.1261
vn -0.9807 0.0550 0.1874
vn -0.8976 -0.1965 0.3945
vn -0.6544 0.0160 0.7559
vn -0.5053 -0.2170 0.8352
vn -0.7710 0.2182 0.5983
vn -0.2541 0.2594 0.9317
vn 0.2033 0.2016 0.9581
vn 0.6543 -0.7422 -0.1446
vn 0.9973 0.0173 0.0717
vn 0.9388 0.1334 0.3176
vn 0.9174 -0.3913 0.0722
vn 0.7388 -0.6388 0.2148
vn 0.7666 -0.4939 0.4103
vn 0.6073 -0.4316 0.6670
vn 0.9348 -0.1569 0.3186
vn 0.8958 0.3087 0.3198
vn 0.7341 0.2747 0.6209
vn 0.8444 0.4629 0.2695
vn 0.4031 -0.8607 -0.3109
vn 0.0613 -0.8712 -0.4871
vn 0.6519 -0.7562 0.0562
vn 0.4047 -0.9068 -0.1176
vn 0.6861 -0.3829 0.6186
vn 0.5046 -0.2409 0.8291
vn 0.5310 -0.2024 0.8229
vn 0.7003 0.6170 0.3590
vn 0.5822 0.4452 0.6804
vn 0.0238 -0.9361 -0.3509
vn 0.4498 -0.8833 0.1320
vn 0.6712 -0.6776 0.3007
vn 0.6350 -0.5679 0.5238
vn 0.4200 0.1761 0.8903
vn 0.7173 0.0737 0.6929
vn 0.3934 0.0456 0.9182
vn 0.1913 -0.9641 0.1840
vn -0.1354 -0.9821 0.1310
vn 0.2517 -0.7098 0.6579
vn 0.4820 -0.7268 0.4894
vn 0.5500 -0.3905 0.7383
vn 0.3090 -0.4459 0.8401
vn 0.5008 -0.1549 0.8516
vn 0.4192 0.0563 0.9062
vn -0.1588 -0.8561 0.4918
vn -0.1307 -0.6331 0.7629
vn 0.1331 -0.3660 0.9210
vn 0.3074 -0.0898 0.9473
vn -0.0394 -0.2134 0.9762
vn -0.0821 -0.0153 0.9965
vn 0.6489 -0.4058 0.6437
vn 0.7647 -0.1274 0.6317
s 1
usemtl mtl1.287
f 2//1 1//2 27//3
f 2//1 27//3 28//4
f 3//5 29//6 1//2
f 29//6 3//5 30//7
f 5//8 4//9 2//1
f 7//10 4//9 5//8
f 28//4 5//8 2//1
f 5//8 31//11 7//10
f 2//1 6//12 1//2
f 1//2 6//12 3//5
f 2//1 4//9 6//12
f 10//13 16//14 3//5
f 16//14 30//7 3//5
f 7//10 31//11 35//15
f 7//10 8//16 4//9
f 7//10 13//17 8//16
f 4//9 8//16 6//12
f 3//5 6//12 10//13
f 6//12 8//16 9//18
f 10//13 6//12 9//18
f 8//16 15//19 9//18
f 10//13 9//18 16//14
f 7//10 11//20 13//17
f 11//20 7//10 35//15
f 14//21 11//20 12//22
f 38//23 11//20 35//15
f 12//22 11//20 38//23
f 8//16 13//17 14//21
f 14//21 15//19 8//16
f 13//17 11//20 14//21
f 15//19 14//21 17//24
f 17//24 14//21 12//22
f 49//25 17//24 12//22
f 17//24 51//26 15//19
f 15//19 50//27 9//18
f 15//19 51//26 50//27
f 18//28 28//4 20//29
f 18//28 20//29 23//30
f 18//28 63//31 28//4
f 25//32 18//28 23//30
f 25//32 19//33 18//28
f 68//34 19//33 25//32
f 20//29 29//6 21//35
f 22//36 24//37 21//35
f 20//29 21//35 23//30
f 24//37 23//30 21//35
f 24//37 22//36 67//38
f 66//39 68//34 25//32
f 66//39 25//32 23//30
f 66//39 23//30 69//40
f 69//40 23//30 24//37
f 24//37 70//41 69//40
f 67//38 70//41 24//37
f 22//36 75//42 67//38
f 28//4 26//43 32//44
f 32//44 26//43 73//45
f 20//29 27//3 29//6
f 29//6 27//3 1//2
f 27//3 20//29 28//4
f 63//31 26//43 28//4
f 63//31 74//46 26//43
f 21//35 29//6 22//36
f 30//7 22//36 29//6
f 30//7 44//47 78//48
f 22//36 30//7 75//42
f 78//48 75//42 30//7
f 32//44 5//8 28//4
f 32//44 31//11 5//8
f 31//11 32//44 33//49
f 33//49 36//50 31//11
f 73//45 33//49 32//44
f 37//51 33//49 34//52
f 33//49 73//45 34//52
f 76//53 73//45 77//54
f 34//52 73//45 76//53
f 36//50 35//15 31//11
f 36//50 33//49 37//51
f 47//55 43//56 79//57
f 43//56 37//51 76//53
f 76//53 37//51 34//52
f 44//47 30//7 16//14
f 36//50 39//58 35//15
f 39//58 38//23 35//15
f 12//22 38//23 40//59
f 38//23 39//58 40//59
f 12//22 40//59 45//60
f 12//22 45//60 49//25
f 42//61 39//58 36//50
f 42//61 41//62 39//58
f 41//62 40//59 39//58
f 37//51 43//56 36//50
f 42//61 36//50 43//56
f 47//55 42//61 43//56
f 16//14 50//27 52//63
f 16//14 9//18 50//27
f 16//14 52//63 44//47
f 52//63 53//64 44//47
f 53//64 106//65 44//47
f 40//59 46//66 45//60
f 46//66 40//59 41//62
f 45//60 46//66 49//25
f 47//55 41//62 42//61
f 47//55 46//66 41//62
f 17//24 48//67 51//26
f 49//25 54//68 17//24
f 48//67 17//24 54//68
f 55//69 48//67 54//68
f 57//70 50//27 51//26
f 52//63 50//27 58//71
f 58//71 50//27 57//70
f 58//71 53//64 52//63
f 57//70 48//67 55//69
f 55//69 85//72 57//70
f 46//66 56//73 49//25
f 56//73 81//74 54//68
f 56//73 54//68 49//25
f 55//69 82//75 85//72
f 81//74 55//69 54//68
f 81//74 82//75 55//69
f 51//26 48//67 57//70
f 57//70 85//72 59//76
f 57//70 59//76 58//71
f 82//75 89//77 85//72
f 85//72 91//78 59//76
f 58//71 86//79 53//64
f 58//71 90//80 86//79
f 58//71 59//76 90//80
f 69//40 61//81 60//82
f 68//34 62//83 64//84
f 60//82 62//83 68//34
f 60//82 61//81 94//85
f 61//81 95//86 94//85
f 62//83 92//87 64//84
f 92//87 62//83 93//88
f 62//83 60//82 93//88
f 93//88 60//82 94//85
f 19//33 63//31 18//28
f 68//34 64//84 63//31
f 68//34 63//31 19//33
f 63//31 64//84 65//89
f 68//34 66//39 60//82
f 66//39 69//40 60//82
f 67//38 71//90 70//41
f 67//38 75//42 71//90
f 70//41 72//91 69//40
f 71//90 72//91 70//41
f 69//40 72//91 61//81
f 95//86 61//81 72//91
f 72//91 102//92 95//86
f 72//91 71//90 102//92
f 74//46 73//45 26//43
f 101//93 73//45 74//46
f 65//89 74//46 63//31
f 101//93 74//46 65//89
f 75//42 102//92 71//90
f 76//53 77//54 79//57
f 101//93 77//54 73//45
f 105//94 78//48 44//47
f 43//56 76//53 79//57
f 79//57 77//54 137//95
f 80//96 47//55 79//57
f 137//95 80//96 79//57
f 106//65 105//94 44//47
f 83//97 46//66 47//55
f 86//79 106//65 53//64
f 46//66 83//97 56//73
f 84//98 81//74 56//73
f 84//98 88//99 82//75
f 84//98 82//75 81//74
f 89//77 82//75 88//99
f 56//73 83//97 84//98
f 47//55 80//96 107//100
f 83//97 47//55 107//100
f 84//98 83//97 87//101
f 87//101 88//99 84//98
f 87//101 83//97 107//100
f 89//77 91//78 85//72
f 108//102 89//77 88//99
f 59//76 91//78 90//80
f 97//103 92//87 93//88
f 94//85 95//86 96//104
f 97//103 93//88 94//85
f 64//84 92//87 99//105
f 64//84 99//105 98//106
f 98//106 65//89 64//84
f 65//89 98//106 101//93
f 114//107 101//93 98//106
f 98//106 99//105 111//108
f 111//108 114//107 98//106
f 104//109 96//104 95//86
f 92//87 97//103 99//105
f 97//103 100//110 99//105
f 97//103 94//85 96//104
f 97//103 96//104 113//111
f 104//109 113//111 96//104
f 113//111 100//110 97//103
f 95//86 102//92 104//109
f 115//112 77//54 101//93
f 115//112 101//93 114//107
f 103//113 102//92 75//42
f 77//54 122//114 137//95
f 122//114 77//54 115//112
f 103//113 75//42 78//48
f 78//48 105//94 123//115
f 103//113 78//48 123//115
f 123//115 105//94 106//65
f 139//116 123//115 106//65
f 80//96 137//95 124//117
f 80//96 124//117 107//100
f 106//65 86//79 125//118
f 124//117 126//119 107//100
f 125//118 86//79 127//120
f 87//101 107//100 126//119
f 89//77 110//121 91//78
f 108//102 88//99 87//101
f 126//119 108//102 87//101
f 108//102 145//122 89//77
f 145//122 110//121 89//77
f 128//123 108//102 126//119
f 108//102 128//123 145//122
f 127//120 86//79 90//80
f 91//78 109//124 90//80
f 91//78 110//121 109//124
f 90//80 109//124 127//120
f 143//125 109//124 110//121
f 100//110 113//111 112//126
f 100//110 111//108 99//105
f 111//108 100//110 112//126
f 111//108 112//126 117//127
f 113//111 104//109 118//128
f 111//108 116//129 114//107
f 116//129 115//112 114//107
f 132//130 116//129 117//127
f 116//129 111//108 117//127
f 103//113 104//109 102//92
f 104//109 103//113 120//131
f 119//132 104//109 120//131
f 104//109 119//132 118//128
f 119//132 129//133 118//128
f 119//132 134//134 129//133
f 115//112 116//129 131//135
f 122//114 115//112 131//135
f 120//131 103//113 123//115
f 119//132 120//131 121//136
f 121//136 120//131 123//115
f 123//115 139//116 121//136
f 134//134 119//132 121//136
f 134//134 121//136 151//137
f 139//116 151//137 121//136
f 137//95 122//114 136//138
f 163//139 124//117 137//95
f 139//116 106//65 125//118
f 154//140 139//116 125//118
f 154//140 125//118 127//120
f 152//141 140//142 124//117
f 140//142 126//119 124//117
f 126//119 140//142 128//123
f 142//143 145//122 128//123
f 141//144 128//123 140//142
f 141//144 142//143 128//123
f 127//120 109//124 143//125
f 132//130 131//135 116//129
f 113//111 130//145 112//126
f 117//127 112//126 132//130
f 132//130 112//126 130//145
f 129//133 113//111 118//128
f 130//145 113//111 129//133
f 134//134 130//145 129//133
f 147//146 130//145 134//134
f 131//135 135//147 122//114
f 132//130 133//148 131//135
f 133//148 135//147 131//135
f 132//130 130//145 146//149
f 146//149 130//145 147//146
f 150//150 147//146 134//134
f 151//137 150//150 134//134
f 136//138 122//114 135//147
f 138//151 136//138 135//147
f 148//152 138//151 135//147
f 138//151 137//95 136//138
f 183//153 137//95 138//151
f 183//153 163//139 137//95
f 140//142 152//141 141//144
f 142//143 172//154 145//122
f 152//141 142//143 141//144
f 143//125 144//155 127//120
f 110//121 145//122 143//125
f 154//140 127//120 144//155
f 132//130 149//156 133//148
f 149//156 132//130 146//149
f 147//146 149//156 146//149
f 149//156 147//146 150//150
f 133//148 148//152 135//147
f 133//148 158//157 148//152
f 158//157 133//148 149//156
f 160//158 138//151 148//152
f 161//159 150//150 151//137
f 151//137 181//160 161//159
f 138//151 180//161 183//153
f 153//162 152//141 124//117
f 163//139 153//162 124//117
f 166//163 152//141 153//162
f 152//141 172//154 142//143
f 155//164 154//140 144//155
f 152//141 576//165 172//154
f 167//166 172//154 576//165
f 145//122 156//167 143//125
f 174//168 156//167 145//122
f 156//167 174//168 175//169
f 156//167 157//170 143//125
f 144//155 143//125 157//170
f 175//169 157//170 156//167
f 155//164 144//155 157//170
f 160//158 148//152 158//157
f 149//156 150//150 162//171
f 159//172 160//158 158//157
f 158//157 149//156 159//172
f 159//172 149//156 162//171
f 176//173 160//158 159//172
f 177//174 159//172 162//171
f 162//171 150//150 161//159
f 179//175 162//171 161//159
f 161//159 178//176 179//175
f 161//159 181//160 178//176
f 160//158 180//161 138//151
f 181//160 151//137 139//116
f 180//161 182//177 183//153
f 165//178 153//162 163//139
f 165//178 163//139 183//153
f 206//179 165//178 183//153
f 165//178 164//180 153//162
f 184//181 165//178 206//179
f 184//181 164//180 165//178
f 155//164 214//182 154//140
f 167//166 168//183 172//154
f 164//180 166//163 153//162
f 168//183 173//184 172//154
f 169//185 166//163 164//180
f 169//185 167//166 166//163
f 167//166 171//186 168//183
f 171//186 186//187 168//183
f 168//183 186//187 173//184
f 184//181 169//185 164//180
f 184//181 185//188 169//185
f 185//188 170//189 169//185
f 170//189 167//166 169//185
f 170//189 171//186 167//166
f 171//186 188//190 186//187
f 173//184 145//122 172//154
f 193//191 173//184 186//187
f 173//184 174//168 145//122
f 174//168 173//184 193//191
f 194//192 175//169 174//168
f 193//191 194//192 174//168
f 157//170 175//169 192//193
f 157//170 192//193 155//164
f 159//172 577//194 176//173
f 177//174 162//171 179//175
f 176//173 180//161 160//158
f 195//195 180//161 176//173
f 178//176 196//196 179//175
f 197//197 182//177 180//161
f 183//153 182//177 207//198
f 224//199 139//116 154//140
f 190//200 184//181 206//179
f 183//153 207//198 206//179
f 190//200 185//188 184//181
f 190//200 187//201 185//188
f 187//201 170//189 185//188
f 187//201 188//190 170//189
f 188//190 171//186 170//189
f 187//201 190//200 189//202
f 188//190 187//201 189//202
f 186//187 188//190 191//203
f 189//202 191//203 188//190
f 206//179 189//202 190//200
f 210//204 194//192 191//203
f 189//202 206//179 199//205
f 192//193 194//192 201//206
f 192//193 175//169 194//192
f 155//164 192//193 214//182
f 186//187 191//203 193//191
f 191//203 194//192 193//191
f 176//173 202//207 195//195
f 176//173 577//194 202//207
f 195//195 216//208 180//161
f 195//195 202//207 203//209
f 197//197 198//210 182//177
f 139//116 205//211 181//160
f 139//116 224//199 205//211
f 207//198 182//177 198//210
f 224//199 154//140 214//182
f 189//202 578//212 191//203
f 199//205 206//179 207//198
f 578//212 210//204 191//203
f 207//198 208//213 199//205
f 210//204 209//214 194//192
f 209//214 201//206 194//192
f 200//215 214//182 192//193
f 201//206 200//215 192//193
f 201//206 212//216 200//215
f 203//209 216//208 195//195
f 579//217 177//174 179//175
f 179//175 196//196 579//217
f 196//196 178//176 204//218
f 204//218 579//217 196//196
f 203//209 579//217 204//218
f 241//219 180//161 216//208
f 241//219 197//197 180//161
f 220//220 204//218 178//176
f 178//176 181//160 220//220
f 225//221 198//210 222//222
f 225//221 207//198 198//210
f 229//223 235//224 223//225
f 578//212 580//226 211//227
f 578//212 211//227 210//204
f 209//214 210//204 227//228
f 212//216 215//229 200//215
f 214//182 200//215 215//229
f 212//216 201//206 209//214
f 212//216 213//230 215//229
f 213//230 229//223 215//229
f 212//216 227//228 213//230
f 212//216 209//214 227//228
f 214//182 223//225 224//199
f 229//223 214//182 215//229
f 229//223 223//225 214//182
f 203//209 251//231 216//208
f 203//209 217//232 251//231
f 203//209 204//218 218//233
f 217//232 203//209 218//233
f 218//233 204//218 219//234
f 204//218 220//220 219//234
f 220//220 238//235 219//234
f 221//236 197//197 241//219
f 181//160 205//211 220//220
f 221//236 198//210 197//197
f 231//237 205//211 242//238
f 242//238 205//211 224//199
f 232//239 242//238 224//199
f 232//239 224//199 223//225
f 235//224 229//223 250//240
f 225//221 226//241 207//198
f 207//198 226//241 208//213
f 236//242 211//227 580//226
f 236//242 580//226 226//241
f 228//243 234//244 227//228
f 210//204 228//243 227//228
f 228//243 210//204 211//227
f 236//242 228//243 211//227
f 234//244 228//243 236//242
f 213//230 227//228 250//240
f 229//223 213//230 250//240
f 581//245 230//246 216//208
f 237//247 251//231 217//232
f 220//220 239//248 238//235
f 220//220 240//249 239//248
f 205//211 240//249 220//220
f 218//233 219//234 238//235
f 230//246 241//219 216//208
f 231//237 240//249 205//211
f 222//222 233//250 225//221
f 222//222 221//236 233//250
f 198//210 221//236 222//222
f 244//251 233//250 243//252
f 233//250 226//241 225//221
f 243//252 233//250 221//236
f 246//253 233//250 244//251
f 226//241 233//250 246//253
f 226//241 247//254 236//242
f 247//254 249//255 236//242
f 226//241 246//253 247//254
f 227//228 234//244 250//240
f 249//255 234//244 236//242
f 218//233 238//235 237//247
f 237//247 217//232 218//233
f 239//248 252//256 238//235
f 237//247 238//235 253//257
f 252//256 253//257 238//235
f 254//258 239//248 240//249
f 256//259 240//249 231//237
f 243//252 221//236 241//219
f 260//260 244//251 243//252
f 258//261 248//262 244//251
f 258//261 244//251 260//260
f 235//224 263//263 223//225
f 263//263 235//224 245//264
f 263//263 245//264 277//265
f 248//262 246//253 244//251
f 246//253 248//262 247//254
f 249//255 247//254 248//262
f 258//261 249//255 248//262
f 262//266 249//255 258//261
f 249//255 250//240 234//244
f 277//265 245//264 250//240
f 250//240 249//255 268//267
f 277//265 250//240 268//267
f 250//240 245//264 235//224
f 253//257 264//268 237//247
f 264//268 253//257 270//269
f 252//256 270//269 253//257
f 254//258 252//256 239//248
f 255//270 254//258 240//249
f 252//256 254//258 255//270
f 581//245 241//219 230//246
f 240//249 256//259 255//270
f 256//259 231//237 242//238
f 267//271 256//259 242//238
f 283//272 255//270 256//259
f 257//273 243//252 241//219
f 259//274 243//252 257//273
f 285//275 259//274 257//273
f 267//271 242//238 232//239
f 263//263 267//271 232//239
f 259//274 260//260 243//252
f 285//275 260//260 259//274
f 261//276 258//261 260//260
f 258//261 261//276 262//266
f 286//277 260//260 285//275
f 261//276 260//260 286//277
f 268//267 249//255 262//266
f 223//225 263//263 232//239
f 252//256 265//278 270//269
f 272//279 251//231 237//247
f 269//280 272//279 237//247
f 269//280 237//247 264//268
f 251//231 272//279 273//281
f 271//282 581//245 273//281
f 252//256 274//283 265//278
f 274//283 252//256 255//270
f 266//284 241//219 581//245
f 266//284 275//285 241//219
f 323//286 256//259 267//271
f 323//286 283//272 256//259
f 257//273 241//219 285//275
f 275//285 285//275 241//219
f 276//287 277//265 268//267
f 278//288 272//279 269//280
f 269//280 264//268 279//289
f 279//289 264//268 280//290
f 280//290 264//268 270//269
f 270//269 265//278 295//291
f 266//284 271//282 299//292
f 282//293 273//281 272//279
f 296//294 271//282 273//281
f 283//272 274//283 255//270
f 281//295 274//283 283//272
f 274//283 281//295 265//278
f 265//278 281//295 295//291
f 271//282 266//284 581//245
f 275//285 266//284 284//296
f 288//297 285//275 275//285
f 263//263 301//298 267//271
f 312//299 267//271 301//298
f 287//300 262//266 261//276
f 268//267 262//266 287//300
f 293//301 268//267 287//300
f 276//287 268//267 293//301
f 278//288 269//280 279//289
f 278//288 282//293 272//279
f 295//291 280//290 270//269
f 294//302 296//294 282//293
f 271//282 298//303 299//292
f 296//294 273//281 282//293
f 299//292 298//303 311//304
f 300//305 275//285 284//296
f 284//296 266//284 299//292
f 300//305 288//297 275//285
f 323//286 267//271 312//299
f 289//306 285//275 288//297
f 289//306 286//277 285//275
f 287//300 261//276 286//277
f 286//277 289//306 290//307
f 290//307 287//300 286//277
f 292//308 287//300 290//307
f 292//308 293//301 287//300
f 288//297 300//305 289//306
f 290//307 289//306 291//309
f 290//307 291//309 292//308
f 303//310 289//306 300//305
f 291//309 289//306 303//310
f 291//309 303//310 292//308
f 293//301 317//311 302//312
f 302//312 276//287 293//301
f 317//311 292//308 303//310
f 293//301 292//308 317//311
f 277//265 276//287 321//313
f 301//298 263//263 315//314
f 308//315 305//316 294//302
f 308//315 282//293 278//288
f 308//315 294//302 282//293
f 279//289 280//290 309//317
f 334//318 281//295 283//272
f 298//303 271//282 296//294
f 297//319 296//294 294//302
f 311//304 298//303 297//319
f 298//303 296//294 297//319
f 310//320 311//304 297//319
f 297//319 294//302 306//321
f 310//320 297//319 306//321
f 313//322 299//292 311//304
f 313//322 284//296 299//292
f 284//296 313//322 300//305
f 315//314 312//299 301//298
f 303//310 300//305 314//323
f 314//323 317//311 303//310
f 316//324 263//263 277//265
f 321//313 316//324 277//265
f 306//321 294//302 305//316
f 305//316 318//325 306//321
f 319//326 310//320 306//321
f 278//288 307//327 308//315
f 279//289 307//327 278//288
f 307//327 279//289 304//328
f 318//325 305//316 308//315
f 322//329 308//315 307//327
f 295//291 309//317 280//290
f 309//317 304//328 279//289
f 319//326 311//304 310//320
f 313//322 314//323 300//305
f 315//314 263//263 316//324
f 317//311 314//323 324//330
f 324//330 302//312 317//311
f 276//287 302//312 321//313
f 320//331 302//312 324//330
f 320//331 321//313 302//312
f 321//313 320//331 325//332
f 339//333 320//331 324//330
f 307//327 327//334 322//329
f 327//334 307//327 304//328
f 318//325 319//326 306//321
f 308//315 322//329 318//325
f 334//318 283//272 323//286
f 295//291 281//295 334//318
f 351//335 314//323 313//322
f 351//335 324//330 314//323
f 315//314 330//336 312//299
f 321//313 332//337 316//324
f 332//337 315//314 316//324
f 339//333 325//332 320//331
f 342//338 327//334 343//339
f 327//334 342//338 322//329
f 334//318 323//286 337//340
f 329//341 323//286 312//299
f 311//304 351//335 313//322
f 348//342 324//330 351//335
f 324//330 348//342 339//333
f 325//332 339//333 340//343
f 325//332 332//337 321//313
f 332//337 325//332 340//343
f 315//314 332//337 331//344
f 582//345 330//336 315//314
f 326//346 318//325 322//329
f 336//347 318//325 326//346
f 326//346 322//329 342//338
f 327//334 304//328 328//348
f 304//328 309//317 328//348
f 295//291 328//348 309//317
f 343//339 327//334 328//348
f 295//291 334//318 328//348
f 328//348 344//349 343//339
f 329//341 337//340 323//286
f 330//336 329//341 312//299
f 341//350 331//344 332//337
f 340//343 341//350 332//337
f 338//351 330//336 582//345
f 331//344 341//350 338//351
f 336//347 326//346 333//352
f 333//352 345//353 336//347
f 342//338 333//352 326//346
f 334//318 337//340 335//354
f 328//348 334//318 335//354
f 344//349 328//348 335//354
f 336//347 319//326 318//325
f 351//335 319//326 336//347
f 345//353 351//335 336//347
f 311//304 319//326 351//335
f 347//355 337//340 329//341
f 338//351 341//350 359//356
f 346//357 344//349 335//354
f 343//339 344//349 349//358
f 344//349 350//359 349//358
f 350//359 344//349 346//357
f 346//357 352//360 350//359
f 337//340 346//357 335//354
f 337//340 347//355 346//357
f 347//355 353//361 346//357
f 346//357 353//361 352//360
f 329//341 330//336 347//355
f 358//362 347//355 330//336
f 358//362 353//361 347//355
f 339//333 354//363 340//343
f 361//364 340//343 354//363
f 343//339 355//365 342//338
f 355//365 343//339 356//366
f 343//339 349//358 356//366
f 367//367 350//359 352//360
f 352//360 353//361 367//367
f 351//335 357//368 348//342
f 359//356 330//336 338//351
f 354//363 348//342 372//369
f 372//369 348//342 360//370
f 348//342 354//363 339//333
f 362//371 340//343 361//364
f 341//350 340//343 362//371
f 362//371 359//356 341//350
f 356//366 349//358 366//372
f 355//365 356//366 364//373
f 375//374 355//365 364//373
f 364//373 356//366 366//372
f 350//359 365//375 349//358
f 357//368 351//335 345//353
f 357//368 345//353 333//352
f 369//376 353//361 358//362
f 348//342 357//368 360//370
f 358//362 330//336 359//356
f 358//362 359//356 371//377
f 354//363 372//369 361//364
f 372//369 373//378 361//364
f 362//371 373//378 374//379
f 373//378 362//371 361//364
f 375//374 342//338 355//365
f 333//352 342//338 363//380
f 363//380 368//381 333//352
f 342//338 375//374 363//380
f 363//380 375//374 378//382
f 367//367 365//375 350//359
f 365//375 366//372 349//358
f 366//372 365//375 391//383
f 368//381 357//368 333//352
f 378//382 368//381 363//380
f 370//384 367//367 353//361
f 370//384 353//361 369//376
f 369//376 358//362 371//377
f 360//370 385//385 372//369
f 386//386 374//379 373//378
f 359//356 362//371 374//379
f 374//379 371//377 359//356
f 374//379 396//387 371//377
f 375//374 377//388 389//389
f 375//374 389//389 378//382
f 377//388 387//390 389//389
f 377//388 375//374 364//373
f 377//388 364//373 376//391
f 376//391 364//373 366//372
f 376//391 366//372 381//392
f 377//388 376//391 387//390
f 365//375 367//367 391//383
f 381//392 366//372 391//383
f 382//393 368//381 378//382
f 383//394 367//367 370//384
f 384//395 383//394 370//384
f 382//393 357//368 368//381
f 397//396 369//376 371//377
f 360//370 357//368 379//397
f 385//385 373//378 372//369
f 379//397 385//385 360//370
f 385//385 380//398 373//378
f 380//398 386//386 373//378
f 381//392 391//383 403//399
f 391//383 367//367 383//394
f 382//393 378//382 388//400
f 392//401 391//383 383//394
f 383//394 384//395 392//401
f 393//402 370//384 369//376
f 370//384 393//402 384//395
f 357//368 395//403 379//397
f 397//396 393//402 369//376
f 396//387 397//396 371//377
f 374//379 386//386 396//387
f 396//387 386//386 401//404
f 398//405 380//398 385//385
f 379//397 398//405 385//385
f 386//386 380//398 400//406
f 400//406 380//398 398//405
f 388//400 378//382 389//389
f 387//390 376//391 390//407
f 389//389 387//390 402//408
f 390//407 376//391 381//392
f 403//399 390//407 381//392
f 403//399 391//383 404//409
f 404//409 391//383 392//401
f 384//395 405//410 392//401
f 395//403 357//368 382//393
f 395//403 382//393 388//400
f 393//402 394//411 384//395
f 406//412 394//411 393//402
f 384//395 394//411 405//410
f 399//413 379//397 395//403
f 409//414 397//396 396//387
f 398//405 379//397 399//413
f 415//415 400//406 414//416
f 401//404 386//386 400//406
f 390//407 402//408 387//390
f 390//407 411//417 402//408
f 390//407 403//399 411//417
f 405//410 394//411 407//418
f 394//411 406//412 407//418
f 406//412 393//402 408//419
f 408//419 393//402 397//396
f 408//419 397//396 409//414
f 407//418 406//412 408//419
f 401//404 410//420 396//387
f 409//414 396//387 410//420
f 398//405 414//416 400//406
f 399//413 414//416 398//405
f 414//416 416//421 415//415
f 400//406 410//420 401//404
f 400//406 415//415 410//420
f 411//417 417//422 402//408
f 411//417 403//399 419//423
f 404//409 419//423 403//399
f 402//408 388//400 389//389
f 418//424 419//423 431//425
f 411//417 418//424 417//422
f 404//409 392//401 412//426
f 405//410 412//426 392//401
f 419//423 404//409 412//426
f 423//427 408//419 409//414
f 407//418 408//419 423//427
f 414//416 399//413 413//428
f 414//416 413//428 424//429
f 447//430 423//427 409//414
f 416//421 426//431 415//415
f 414//416 425//432 416//421
f 415//415 426//431 410//420
f 446//433 410//420 426//431
f 402//408 428//434 388//400
f 428//434 402//408 417//422
f 411//417 419//423 418//424
f 417//422 418//424 430//435
f 418//424 431//425 430//435
f 431//425 419//423 412//426
f 405//410 433//436 412//426
f 421//437 388//400 427//438
f 395//403 388//400 421//437
f 420//439 427//438 388//400
f 388//400 428//434 420//439
f 451//440 421//437 427//438
f 405//410 407//418 436//441
f 433//436 405//410 436//441
f 395//403 421//437 399//413
f 421//437 434//442 399//413
f 422//443 424//429 413//428
f 413//428 399//413 434//442
f 434//442 422//443 413//428
f 435//444 422//443 434//442
f 422//443 435//444 439//445
f 422//443 439//445 424//429
f 423//427 447//430 437//446
f 437//446 407//418 423//427
f 407//418 437//446 436//441
f 438//447 424//429 439//445
f 425//432 444//448 416//421
f 444//448 426//431 416//421
f 425//432 414//416 424//429
f 410//420 446//433 409//414
f 446//433 447//430 409//414
f 445//449 425//432 424//429
f 445//449 444//448 425//432
f 426//431 449//450 446//433
f 420//439 428//434 429//451
f 427//438 420//439 429//451
f 428//434 417//422 430//435
f 433//436 432//452 412//426
f 432//452 431//425 412//426
f 452//453 432//452 433//436
f 452//453 433//436 436//441
f 451//440 434//442 421//437
f 453//454 434//442 451//440
f 434//442 453//454 435//444
f 455//455 436//441 437//446
f 440//456 439//445 435//444
f 439//445 440//456 438//447
f 440//456 441//457 438//447
f 458//458 441//457 440//456
f 437//446 454//459 455//455
f 454//459 437//446 447//430
f 438//447 441//457 424//429
f 441//457 445//449 424//429
f 441//457 443//460 445//449
f 458//458 442//461 441//457
f 442//461 443//460 441//457
f 456//462 442//461 458//458
f 442//461 456//462 443//460
f 464//463 445//449 443//460
f 444//448 474//464 426//431
f 474//464 444//448 445//449
f 448//465 449//450 426//431
f 454//459 447//430 462//466
f 473//467 474//464 445//449
f 426//431 474//464 448//465
f 474//464 475//468 448//465
f 449//450 448//465 476//469
f 449//450 476//469 450//470
f 465//471 446//433 449//450
f 449//450 450//470 465//471
f 428//434 488//472 429//451
f 428//434 517//473 488//472
f 427//438 488//472 451//440
f 488//472 427//438 429//451
f 451//440 526//474 453//454
f 490//475 453//454 526//474
f 435//444 453//454 440//456
f 440//456 453//454 460//476
f 458//458 440//456 460//476
f 460//476 453//454 490//475
f 490//475 491//477 460//476
f 492//478 455//455 454//459
f 456//462 457//479 443//460
f 443//460 457//479 464//463
f 464//463 457//479 493//480
f 458//458 459//481 456//462
f 459//481 457//479 456//462
f 461//482 459//481 458//458
f 460//476 461//482 458//458
f 459//481 493//480 457//479
f 461//482 460//476 491//477
f 493//480 459//481 461//482
f 461//482 491//477 494//483
f 469//484 462//466 447//430
f 463//485 492//478 454//459
f 463//485 454//459 462//466
f 463//485 462//466 469//484
f 541//486 492//478 463//485
f 541//486 463//485 472//487
f 473//467 445//449 464//463
f 473//467 509//488 474//464
f 447//430 446//433 467//489
f 446//433 465//471 467//489
f 465//471 468//490 467//489
f 450//470 466//491 465//471
f 468//490 465//471 466//491
f 450//470 476//469 482//492
f 450//470 482//492 466//491
f 466//491 482//492 483//493
f 466//491 483//493 468//490
f 467//489 469//484 447//430
f 468//490 469//484 467//489
f 470//494 469//484 468//490
f 483//493 485//495 470//494
f 468//490 483//493 470//494
f 472//487 469//484 470//494
f 472//487 470//494 471//496
f 470//494 485//495 471//496
f 471//496 485//495 487//497
f 497//498 471//496 487//497
f 472//487 463//485 469//484
f 471//496 497//498 472//487
f 473//467 464//463 499//499
f 475//468 474//464 477//500
f 509//488 477//500 474//464
f 477//500 509//488 513//501
f 477//500 476//469 448//465
f 478//502 482//492 476//469
f 448//465 475//468 477//500
f 477//500 478//502 476//469
f 477//500 480//503 478//502
f 478//502 480//503 479//504
f 479//504 481//505 501//506
f 480//503 481//505 479//504
f 513//501 480//503 477//500
f 480//503 514//507 481//505
f 513//501 514//507 480//503
f 501//506 481//505 502//508
f 515//509 481//505 514//507
f 484//510 483//493 482//492
f 482//492 478//502 484//510
f 486//511 483//493 484//510
f 485//495 483//493 486//511
f 484//510 478//502 479//504
f 486//511 484//510 479//504
f 486//511 501//506 487//497
f 487//497 485//495 486//511
f 501//506 486//511 479//504
f 497//498 487//497 501//506
f 428//434 430//435 517//473
f 430//435 431//425 517//473
f 488//472 517//473 518//512
f 489//513 517//473 431//425
f 432//452 452//453 489//513
f 489//513 431//425 432//452
f 524//514 489//513 452//453
f 488//472 526//474 451//440
f 523//515 452//453 492//478
f 436//441 455//455 492//478
f 452//453 436//441 492//478
f 490//475 526//474 491//477
f 493//480 461//482 494//483
f 495//516 494//483 491//477
f 493//480 494//483 495//516
f 526//474 495//516 491//477
f 495//516 498//517 464//463
f 495//516 464//463 493//480
f 496//518 497//498 503//519
f 496//518 503//519 516//520
f 496//518 516//520 558//521
f 472//487 497//498 541//486
f 543//522 541//486 497//498
f 497//498 496//518 543//522
f 499//499 464//463 498//517
f 500//523 499//499 498//517
f 544//524 498//517 495//516
f 550//525 498//517 544//524
f 498//517 550//525 500//523
f 550//525 554//526 500//523
f 509//488 473//467 504//527
f 473//467 499//499 504//527
f 502//508 515//509 516//520
f 503//519 501//506 502//508
f 481//505 515//509 502//508
f 502//508 516//520 503//519
f 503//519 497//498 501//506
f 499//499 505//528 504//527
f 507//529 504//527 505//528
f 505//528 499//499 500//523
f 505//528 559//530 583//531
f 563//532 583//531 559//530
f 554//526 505//528 500//523
f 559//530 505//528 554//526
f 504//527 506//533 509//488
f 510//534 509//488 506//533
f 506//533 504//527 507//529
f 506//533 507//529 508//535
f 510//534 506//533 508//535
f 583//531 563//532 508//535
f 508//535 512//536 510//534
f 563//532 562//537 508//535
f 508//535 562//537 512//536
f 509//488 510//534 513//501
f 510//534 514//507 513//501
f 515//509 514//507 511//538
f 510//534 511//538 514//507
f 510//534 512//536 511//538
f 512//536 566//539 511//538
f 515//509 511//538 566//539
f 515//509 566//539 516//520
f 558//521 516//520 567//540
f 567//540 516//520 566//539
f 488//472 518//512 519//541
f 522//542 517//473 489//513
f 524//514 522//542 489//513
f 571//543 522//542 524//514
f 523//515 524//514 452//453
f 521//544 518//512 517//473
f 519//541 518//512 520//545
f 520//545 518//512 521//544
f 521//544 517//473 522//542
f 569//546 520//545 521//544
f 569//546 529//547 520//545
f 570//548 522//542 571//543
f 571//543 524//514 525//549
f 524//514 523//515 525//549
f 531//550 525//549 530//551
f 530//551 525//549 523//515
f 526//474 488//472 527//552
f 527//552 533//553 526//474
f 519//541 527//552 488//472
f 519//541 528//554 527//552
f 533//553 527//552 534//555
f 534//555 527//552 528//554
f 519//541 520//545 528//554
f 520//545 529//547 537//556
f 529//547 575//557 539//558
f 523//515 492//478 530//551
f 492//478 532//559 530//551
f 532//559 531//550 530//551
f 532//559 542//560 531//550
f 492//478 541//486 532//559
f 533//553 545//561 495//516
f 533//553 534//555 545//561
f 535//562 534//555 536//563
f 533//553 495//516 526//474
f 534//555 528//554 536//563
f 528//554 520//545 536//563
f 536//563 538//564 535//562
f 520//545 537//556 536//563
f 537//556 538//564 536//563
f 537//556 529//547 539//558
f 543//522 540//565 542//560
f 574//566 531//550 540//565
f 531//550 542//560 540//565
f 540//565 549//567 574//566
f 532//559 541//486 542//560
f 541//486 543//522 542//560
f 544//524 495//516 545//561
f 545//561 546//568 544//524
f 546//568 551//569 544//524
f 534//555 535//562 545//561
f 535//562 546//568 545//561
f 551//569 546//568 553//570
f 546//568 535//562 547//571
f 553//570 546//568 547//571
f 548//572 553//570 547//571
f 535//562 538//564 547//571
f 538//564 548//572 547//571
f 538//564 537//556 548//572
f 553//570 548//572 555//573
f 548//572 539//558 556//574
f 537//556 539//558 548//572
f 557//575 496//518 558//521
f 496//518 557//575 549//567
f 496//518 540//565 543//522
f 549//567 540//565 496//518
f 551//569 550//525 544//524
f 552//576 550//525 551//569
f 554//526 550//525 552//576
f 554//526 552//576 560//577
f 552//576 553//570 560//577
f 552//576 551//569 553//570
f 555//573 560//577 553//570
f 556//574 561//578 555//573
f 548//572 556//574 555//573
f 556//574 549//567 557//575
f 556//574 557//575 565//579
f 556//574 565//579 561//578
f 549//567 556//574 539//558
f 567//540 557//575 558//521
f 559//530 554//526 560//577
f 563//532 559//530 560//577
f 561//578 560//577 555//573
f 563//532 560//577 561//578
f 563//532 564//580 562//537
f 564//580 568//581 562//537
f 565//579 568//581 564//580
f 563//532 561//578 564//580
f 561//578 565//579 564//580
f 562//537 568//581 512//536
f 512//536 568//581 566//539
f 566//539 568//581 567//540
f 567//540 568//581 565//579
f 567//540 565//579 557//575
f 570//548 521//544 522//542
f 521//544 570//548 569//546
f 569//546 572//582 529//547
f 570//548 572//582 569//546
f 574//566 571//543 525//549
f 574//566 525//549 531//550
f 573//583 570//548 571//543
f 570//548 573//583 572//582
f 573//583 571//543 574//566
f 575//557 529//547 572//582
f 575//557 549//567 539//558
f 572//582 573//583 575//557
f 573//583 574//566 575//557
f 574//566 549//567 575//557
