# Blender 4.0.2
# www.blender.org
mtllib jaw_left_second_lower_premolar_tooth.mtl
o jaw_left_second_lower_premolar_tooth
v 0.076423 -0.028968 -0.016226
v 0.077569 -0.029708 -0.016316
v 0.075679 -0.027548 -0.016423
v 0.076566 -0.028128 -0.015965
v 0.076030 -0.027838 -0.016171
v 0.076660 -0.027318 -0.015851
v 0.076155 -0.027298 -0.016106
v 0.076383 -0.026888 -0.016104
v 0.077191 -0.027818 -0.015742
v 0.078188 -0.027918 -0.015674
v 0.078708 -0.028508 -0.015984
v 0.076932 -0.026789 -0.015854
v 0.077441 -0.027038 -0.015678
v 0.078071 -0.027418 -0.015580
v 0.078895 -0.027408 -0.015668
v 0.079548 -0.027978 -0.016005
v 0.077403 -0.026328 -0.015850
v 0.077271 -0.025848 -0.016102
v 0.078622 -0.026888 -0.015656
v 0.079643 -0.027478 -0.015857
v 0.080670 -0.027538 -0.016292
v 0.077943 -0.025578 -0.015995
v 0.077686 -0.025298 -0.016199
v 0.078121 -0.024878 -0.016278
v 0.079564 -0.026318 -0.015847
v 0.080643 -0.026968 -0.016078
v 0.080607 -0.026428 -0.016039
v 0.081093 -0.026488 -0.016231
v 0.078712 -0.024888 -0.016173
v 0.079568 -0.025248 -0.016196
v 0.079992 -0.025728 -0.016128
v 0.080652 -0.026008 -0.016226
v 0.076265 -0.033768 -0.017186
v 0.076709 -0.034648 -0.017244
v 0.077474 -0.034748 -0.017290
v 0.078580 -0.033958 -0.017319
v 0.076270 -0.032548 -0.017111
v 0.077129 -0.032858 -0.016829
v 0.077740 -0.032898 -0.016772
v 0.078711 -0.032898 -0.017041
v 0.078900 -0.033678 -0.017392
v 0.075672 -0.030268 -0.017140
v 0.076698 -0.030458 -0.016600
v 0.078033 -0.031198 -0.016576
v 0.075853 -0.028948 -0.016491
v 0.075425 -0.029128 -0.016907
v 0.075304 -0.028048 -0.016818
v 0.075266 -0.027458 -0.016872
v 0.075009 -0.028028 -0.017192
v 0.075665 -0.028258 -0.016488
v 0.078697 -0.029658 -0.016522
v 0.080175 -0.030008 -0.017294
v 0.075274 -0.027038 -0.017023
v 0.075699 -0.027248 -0.016465
v 0.075920 -0.026568 -0.016640
v 0.076082 -0.025758 -0.017137
v 0.081482 -0.028318 -0.017088
v 0.077349 -0.024858 -0.016836
v 0.077256 -0.025238 -0.016540
v 0.077807 -0.024708 -0.016593
v 0.077537 -0.024628 -0.016972
v 0.081636 -0.027528 -0.016807
v 0.082079 -0.027738 -0.017197
v 0.078403 -0.024638 -0.016394
v 0.078424 -0.024508 -0.016645
v 0.078473 -0.024538 -0.016951
v 0.078810 -0.024548 -0.016487
v 0.079150 -0.024638 -0.016479
v 0.079041 -0.024548 -0.016614
v 0.079164 -0.024628 -0.016866
v 0.079498 -0.024778 -0.016604
v 0.079716 -0.024988 -0.016949
v 0.080385 -0.025658 -0.016489
v 0.080406 -0.025638 -0.016677
v 0.080760 -0.025828 -0.016629
v 0.080745 -0.025828 -0.016968
v 0.081349 -0.026108 -0.016520
v 0.081242 -0.025968 -0.016640
v 0.082172 -0.026778 -0.016910
v 0.082327 -0.026428 -0.017011
v 0.081674 -0.025968 -0.017082
v 0.082358 -0.026148 -0.017186
v 0.076539 -0.037598 -0.018113
v 0.075549 -0.034338 -0.017532
v 0.075189 -0.032498 -0.017957
v 0.078571 -0.034668 -0.017668
v 0.079117 -0.034548 -0.018101
v 0.074902 -0.030148 -0.018084
v 0.079535 -0.032538 -0.017506
v 0.079884 -0.032598 -0.017940
v 0.074639 -0.027958 -0.017867
v 0.074778 -0.028318 -0.017638
v 0.080265 -0.031328 -0.017894
v 0.074761 -0.027669 -0.017611
v 0.074750 -0.027208 -0.017854
v 0.080720 -0.030618 -0.018005
v 0.075509 -0.026168 -0.017393
v 0.075504 -0.025688 -0.018025
v 0.076179 -0.025388 -0.017452
v 0.081798 -0.028688 -0.017550
v 0.077287 -0.024558 -0.017781
v 0.077585 -0.024508 -0.017296
v 0.077608 -0.024528 -0.017881
v 0.077967 -0.024698 -0.017915
v 0.082677 -0.027878 -0.017873
v 0.078155 -0.024618 -0.017475
v 0.077795 -0.024488 -0.017433
v 0.078709 -0.024718 -0.017311
v 0.079242 -0.024848 -0.017621
v 0.079647 -0.025018 -0.017474
v 0.079723 -0.025029 -0.017811
v 0.079430 -0.024828 -0.017947
v 0.079970 -0.025158 -0.017938
v 0.080404 -0.025788 -0.017470
v 0.080107 -0.025538 -0.017467
v 0.080730 -0.025888 -0.017465
v 0.080386 -0.025678 -0.017828
v 0.080815 -0.025838 -0.017813
v 0.080869 -0.025598 -0.018107
v 0.082044 -0.025958 -0.017322
v 0.081781 -0.025888 -0.017501
v 0.082706 -0.026718 -0.017340
v 0.082746 -0.027128 -0.017482
v 0.082746 -0.026258 -0.017438
v 0.083114 -0.026789 -0.017820
v 0.083163 -0.027088 -0.017951
v 0.082207 -0.025748 -0.017934
v 0.082889 -0.025798 -0.017956
v 0.083225 -0.026048 -0.018086
v 0.072362 -0.043848 -0.019204
v 0.072796 -0.043688 -0.019174
v 0.071945 -0.042928 -0.019145
v 0.073470 -0.042978 -0.019141
v 0.072325 -0.041848 -0.018832
v 0.071959 -0.042018 -0.019084
v 0.072847 -0.042638 -0.018844
v 0.073123 -0.040039 -0.018442
v 0.072556 -0.040408 -0.018726
v 0.073677 -0.040438 -0.018335
v 0.072617 -0.039088 -0.018901
v 0.073981 -0.034608 -0.018709
v 0.074582 -0.032978 -0.018625
v 0.078451 -0.036058 -0.018608
v 0.074789 -0.032098 -0.018599
v 0.074402 -0.032778 -0.018996
v 0.074999 -0.031328 -0.018211
v 0.080022 -0.033248 -0.018616
v 0.074543 -0.028388 -0.018682
v 0.074601 -0.028568 -0.018202
v 0.080419 -0.031628 -0.018292
v 0.074573 -0.027548 -0.018280
v 0.074589 -0.027268 -0.018923
v 0.081364 -0.030428 -0.018685
v 0.075009 -0.026298 -0.018134
v 0.074731 -0.026658 -0.018489
v 0.074920 -0.026118 -0.018800
v 0.074770 -0.026438 -0.018932
v 0.075218 -0.025748 -0.018661
v 0.081847 -0.029448 -0.018293
v 0.076059 -0.025148 -0.018130
v 0.075686 -0.025258 -0.018906
v 0.077385 -0.024448 -0.018164
v 0.076807 -0.024538 -0.018465
v 0.077073 -0.024358 -0.018862
v 0.077390 -0.024408 -0.018902
v 0.078224 -0.024928 -0.018132
v 0.077622 -0.024538 -0.018204
v 0.078576 -0.025029 -0.018248
v 0.078398 -0.025088 -0.018610
v 0.079233 -0.024778 -0.018748
v 0.080118 -0.024968 -0.018149
v 0.079830 -0.024738 -0.018259
v 0.079773 -0.024578 -0.018573
v 0.080635 -0.025338 -0.018180
v 0.083423 -0.026718 -0.018261
v 0.083346 -0.027228 -0.018406
v 0.083571 -0.026778 -0.018599
v 0.083328 -0.027578 -0.018890
v 0.083603 -0.026968 -0.018942
v 0.080235 -0.024658 -0.018417
v 0.079940 -0.024538 -0.018557
v 0.080424 -0.024228 -0.018793
v 0.081004 -0.024618 -0.018630
v 0.080768 -0.024328 -0.018735
v 0.081583 -0.025528 -0.018306
v 0.081835 -0.025368 -0.018457
v 0.081738 -0.025148 -0.018587
v 0.081958 -0.025558 -0.018281
v 0.083149 -0.025838 -0.018124
v 0.083534 -0.026288 -0.018497
v 0.083458 -0.025928 -0.018519
v 0.083681 -0.026588 -0.018933
v 0.082965 -0.025178 -0.018896
v 0.071233 -0.045518 -0.020072
v 0.071790 -0.045328 -0.019762
v 0.071820 -0.045988 -0.020027
v 0.071186 -0.044378 -0.019905
v 0.072318 -0.044878 -0.019578
v 0.073444 -0.044048 -0.019848
v 0.071748 -0.041158 -0.019445
v 0.071463 -0.040638 -0.020004
v 0.075305 -0.040938 -0.019300
v 0.072454 -0.038218 -0.019334
v 0.073262 -0.035558 -0.019318
v 0.074456 -0.032308 -0.019467
v 0.074736 -0.031518 -0.019183
v 0.074703 -0.031548 -0.019448
v 0.074766 -0.031158 -0.019535
v 0.074635 -0.031888 -0.019954
v 0.080107 -0.034208 -0.019769
v 0.074769 -0.030198 -0.019028
v 0.074846 -0.029948 -0.019547
v 0.080450 -0.033558 -0.019983
v 0.080572 -0.032608 -0.019324
v 0.080767 -0.032528 -0.019826
v 0.074638 -0.028498 -0.019213
v 0.081072 -0.031638 -0.019582
v 0.074677 -0.027378 -0.019462
v 0.074983 -0.026108 -0.019288
v 0.074748 -0.026818 -0.019401
v 0.075210 -0.025728 -0.019055
v 0.082400 -0.029238 -0.018995
v 0.082311 -0.029788 -0.019851
v 0.075869 -0.025088 -0.019485
v 0.076660 -0.024508 -0.019205
v 0.078166 -0.024988 -0.019079
v 0.078114 -0.024878 -0.019566
v 0.077577 -0.024548 -0.019626
v 0.078651 -0.025058 -0.019066
v 0.078498 -0.025078 -0.019248
v 0.083308 -0.027868 -0.019675
v 0.078894 -0.024888 -0.019267
v 0.078661 -0.024788 -0.019837
v 0.083621 -0.026928 -0.019576
v 0.080016 -0.024088 -0.019263
v 0.083556 -0.025798 -0.019022
v 0.083662 -0.026108 -0.019007
v 0.083720 -0.026368 -0.019259
v 0.083670 -0.026038 -0.019359
v 0.083648 -0.026228 -0.019705
v 0.080637 -0.023858 -0.019223
v 0.080709 -0.023688 -0.019585
v 0.081493 -0.024018 -0.019197
v 0.081014 -0.023838 -0.019204
v 0.081092 -0.023648 -0.019527
v 0.081451 -0.023688 -0.019546
v 0.081797 -0.023838 -0.019548
v 0.082366 -0.024898 -0.018974
v 0.082820 -0.024848 -0.019212
v 0.083031 -0.024928 -0.019221
v 0.082616 -0.024678 -0.019260
v 0.082858 -0.024768 -0.019332
v 0.083021 -0.024828 -0.019493
v 0.082660 -0.024518 -0.019442
v 0.083149 -0.025228 -0.018948
v 0.083278 -0.025218 -0.019218
v 0.083276 -0.025168 -0.019583
v 0.070869 -0.046518 -0.020837
v 0.071152 -0.046698 -0.020848
v 0.071084 -0.046328 -0.020461
v 0.070793 -0.046158 -0.020645
v 0.070706 -0.046308 -0.020846
v 0.070584 -0.045768 -0.020794
v 0.071685 -0.046539 -0.020339
v 0.071705 -0.046748 -0.020521
v 0.071198 -0.046618 -0.020621
v 0.071658 -0.046808 -0.020644
v 0.071627 -0.046868 -0.020863
v 0.072120 -0.046358 -0.020298
v 0.071979 -0.046688 -0.020474
v 0.072230 -0.046558 -0.020520
v 0.071912 -0.046828 -0.020633
v 0.072068 -0.046778 -0.020633
v 0.071870 -0.046898 -0.020851
v 0.072064 -0.046858 -0.020839
v 0.072187 -0.046768 -0.020836
v 0.070602 -0.044528 -0.020596
v 0.072513 -0.046038 -0.020343
v 0.072735 -0.045988 -0.020619
v 0.070836 -0.043458 -0.020304
v 0.070534 -0.043968 -0.020833
v 0.070795 -0.042668 -0.020580
v 0.071514 -0.039868 -0.020444
v 0.071511 -0.039818 -0.020857
v 0.071857 -0.038688 -0.020358
v 0.071958 -0.038368 -0.020762
v 0.075877 -0.040668 -0.020352
v 0.072599 -0.036648 -0.020340
v 0.076914 -0.039208 -0.020062
v 0.078498 -0.037038 -0.020433
v 0.074669 -0.032528 -0.020662
v 0.074877 -0.031348 -0.020086
v 0.075030 -0.031648 -0.020535
v 0.075252 -0.030818 -0.020412
v 0.075413 -0.029918 -0.020519
v 0.081300 -0.031498 -0.020252
v 0.081153 -0.031798 -0.020724
v 0.074900 -0.027828 -0.019985
v 0.075006 -0.027068 -0.020147
v 0.075646 -0.025478 -0.020074
v 0.075632 -0.025909 -0.020589
v 0.082624 -0.029258 -0.020340
v 0.076016 -0.025298 -0.020656
v 0.076513 -0.024578 -0.020150
v 0.076462 -0.024648 -0.020403
v 0.077025 -0.024398 -0.019843
v 0.077117 -0.024358 -0.020516
v 0.076741 -0.024458 -0.020521
v 0.078271 -0.024808 -0.019887
v 0.077817 -0.024538 -0.020180
v 0.083163 -0.028178 -0.020004
v 0.083334 -0.027728 -0.020047
v 0.083442 -0.026918 -0.020293
v 0.079405 -0.024028 -0.020483
v 0.083415 -0.025548 -0.019936
v 0.083323 -0.026178 -0.020514
v 0.081148 -0.023539 -0.019883
v 0.081507 -0.023578 -0.019877
v 0.081833 -0.023678 -0.019866
v 0.081202 -0.023518 -0.020225
v 0.082396 -0.023998 -0.019864
v 0.082495 -0.024038 -0.020490
v 0.082840 -0.024608 -0.020506
v 0.081750 -0.023598 -0.020203
v 0.082158 -0.023748 -0.020193
v 0.082150 -0.023728 -0.020521
v 0.070745 -0.046488 -0.021063
v 0.070668 -0.046398 -0.021284
v 0.070827 -0.046558 -0.021289
v 0.070951 -0.046568 -0.021613
v 0.071006 -0.046668 -0.021069
v 0.071321 -0.046788 -0.021170
v 0.071038 -0.046668 -0.021396
v 0.071440 -0.046788 -0.021593
v 0.070422 -0.045548 -0.021136
v 0.070449 -0.045748 -0.021390
v 0.070602 -0.046288 -0.021166
v 0.070498 -0.046018 -0.021158
v 0.070619 -0.046218 -0.021473
v 0.070774 -0.046408 -0.021592
v 0.070693 -0.046068 -0.021707
v 0.070921 -0.046368 -0.021833
v 0.071746 -0.046888 -0.021191
v 0.071684 -0.046798 -0.021698
v 0.071344 -0.046698 -0.021807
v 0.071581 -0.046748 -0.021826
v 0.071841 -0.046728 -0.021819
v 0.072071 -0.046858 -0.021079
v 0.072301 -0.046648 -0.021085
v 0.071925 -0.046788 -0.021585
v 0.072056 -0.046718 -0.021592
v 0.072259 -0.046488 -0.021612
v 0.070432 -0.045078 -0.021470
v 0.070533 -0.045258 -0.021712
v 0.070707 -0.045408 -0.021918
v 0.072541 -0.045938 -0.021820
v 0.070596 -0.043968 -0.021541
v 0.073305 -0.044928 -0.021370
v 0.070791 -0.042308 -0.021006
v 0.071086 -0.041048 -0.020929
v 0.071156 -0.041068 -0.021260
v 0.074243 -0.042908 -0.021682
v 0.071549 -0.040118 -0.021396
v 0.075087 -0.041858 -0.021243
v 0.074959 -0.041688 -0.021765
v 0.072323 -0.037958 -0.021494
v 0.073149 -0.035458 -0.020933
v 0.073488 -0.035278 -0.021426
v 0.078045 -0.037738 -0.021130
v 0.074066 -0.033968 -0.021109
v 0.074818 -0.033398 -0.021488
v 0.079336 -0.035658 -0.021291
v 0.075697 -0.031558 -0.021188
v 0.075701 -0.030678 -0.020880
v 0.080370 -0.033778 -0.021001
v 0.080313 -0.033528 -0.021663
v 0.080973 -0.031948 -0.021528
v 0.081715 -0.030848 -0.020829
v 0.081582 -0.030938 -0.021415
v 0.075541 -0.027328 -0.020902
v 0.076032 -0.026598 -0.021351
v 0.075700 -0.026398 -0.020969
v 0.076215 -0.025828 -0.021303
v 0.082621 -0.029078 -0.021122
v 0.082877 -0.028408 -0.021078
v 0.076578 -0.024798 -0.020911
v 0.077078 -0.024398 -0.020938
v 0.082915 -0.027358 -0.021444
v 0.082846 -0.028068 -0.021447
v 0.077487 -0.024258 -0.021261
v 0.078056 -0.024308 -0.020701
v 0.078499 -0.023968 -0.021120
v 0.077813 -0.024118 -0.021370
v 0.078436 -0.023848 -0.021495
v 0.078928 -0.023738 -0.021503
v 0.078962 -0.023798 -0.021174
v 0.082812 -0.025478 -0.021175
v 0.080390 -0.023568 -0.021050
v 0.080384 -0.023608 -0.021491
v 0.081739 -0.023658 -0.020847
v 0.081359 -0.023868 -0.021507
v 0.082365 -0.024088 -0.020887
v 0.082167 -0.024468 -0.021489
v 0.081917 -0.024198 -0.021493
v 0.082534 -0.024668 -0.021177
v 0.082398 -0.024928 -0.021524
v 0.082114 -0.023808 -0.020869
v 0.070923 -0.046098 -0.021967
v 0.071198 -0.046118 -0.022147
v 0.071194 -0.046548 -0.021928
v 0.071492 -0.046668 -0.021944
v 0.072015 -0.046548 -0.021931
v 0.071153 -0.046358 -0.022042
v 0.071776 -0.046598 -0.022029
v 0.071691 -0.046518 -0.022119
v 0.071853 -0.046468 -0.022125
v 0.071415 -0.046368 -0.022155
v 0.071849 -0.046208 -0.022264
v 0.070879 -0.044779 -0.022168
v 0.071015 -0.045318 -0.022198
v 0.071700 -0.045008 -0.022476
v 0.072177 -0.046058 -0.022203
v 0.072263 -0.045638 -0.022343
v 0.071673 -0.045788 -0.022371
v 0.072017 -0.045568 -0.022421
v 0.072316 -0.046128 -0.022020
v 0.072444 -0.045798 -0.022137
v 0.070726 -0.044368 -0.021980
v 0.070938 -0.044148 -0.022187
v 0.071137 -0.044538 -0.022330
v 0.072049 -0.044228 -0.022570
v 0.072594 -0.045218 -0.022285
v 0.072738 -0.045428 -0.022012
v 0.070868 -0.043328 -0.021879
v 0.072019 -0.043138 -0.022634
v 0.073128 -0.044408 -0.022090
v 0.071705 -0.042628 -0.022527
v 0.073539 -0.042948 -0.022371
v 0.073034 -0.043028 -0.022578
v 0.071440 -0.041818 -0.022166
v 0.072143 -0.039848 -0.022312
v 0.072947 -0.037808 -0.022270
v 0.076138 -0.040008 -0.021962
v 0.075880 -0.040048 -0.022301
v 0.074795 -0.034638 -0.022169
v 0.078555 -0.036748 -0.021883
v 0.078626 -0.036198 -0.022436
v 0.079454 -0.035058 -0.022076
v 0.076702 -0.031778 -0.022526
v 0.076646 -0.030628 -0.022109
v 0.080192 -0.032028 -0.022592
v 0.080407 -0.032718 -0.022089
v 0.080881 -0.031648 -0.022047
v 0.081044 -0.031158 -0.022279
v 0.077007 -0.028508 -0.022162
v 0.081469 -0.030858 -0.021947
v 0.081694 -0.030558 -0.022034
v 0.081426 -0.030678 -0.022350
v 0.081940 -0.030338 -0.021623
v 0.081800 -0.030098 -0.022309
v 0.081558 -0.030368 -0.022479
v 0.077318 -0.026358 -0.022470
v 0.082326 -0.028968 -0.022100
v 0.077257 -0.025708 -0.022252
v 0.082472 -0.028228 -0.022123
v 0.077458 -0.024858 -0.021943
v 0.077773 -0.025318 -0.022500
v 0.082249 -0.027388 -0.022413
v 0.078316 -0.023928 -0.021621
v 0.077980 -0.024238 -0.021815
v 0.078442 -0.024308 -0.022206
v 0.078326 -0.024668 -0.022476
v 0.079065 -0.024248 -0.022340
v 0.082533 -0.026258 -0.021836
v 0.078733 -0.023898 -0.021841
v 0.079230 -0.023818 -0.021829
v 0.080990 -0.024398 -0.022100
v 0.082258 -0.025638 -0.021958
v 0.080511 -0.023898 -0.021866
v 0.082008 -0.024738 -0.021791
v 0.081520 -0.024498 -0.021948
v 0.073361 -0.041708 -0.022878
v 0.072811 -0.039768 -0.022789
v 0.075171 -0.038289 -0.023386
v 0.075611 -0.038938 -0.023161
v 0.075080 -0.037128 -0.023337
v 0.074759 -0.035658 -0.022831
v 0.075136 -0.035598 -0.023108
v 0.077181 -0.036078 -0.023458
v 0.077624 -0.037108 -0.022842
v 0.077717 -0.036048 -0.023272
v 0.075835 -0.033998 -0.022954
v 0.078729 -0.035228 -0.022922
v 0.079030 -0.034238 -0.023054
v 0.078428 -0.034298 -0.023424
v 0.079130 -0.034798 -0.022741
v 0.077500 -0.032328 -0.023284
v 0.077968 -0.032468 -0.023458
v 0.078956 -0.032938 -0.023313
v 0.078390 -0.032428 -0.023444
v 0.079824 -0.033328 -0.022600
v 0.079445 -0.033038 -0.023035
v 0.077300 -0.030748 -0.022716
v 0.078255 -0.031028 -0.023179
v 0.079063 -0.031638 -0.023234
v 0.079719 -0.032148 -0.022924
v 0.079929 -0.031568 -0.022933
v 0.077244 -0.029688 -0.022626
v 0.077833 -0.029768 -0.023061
v 0.078461 -0.029988 -0.023325
v 0.079120 -0.030698 -0.023338
v 0.079817 -0.030998 -0.023178
v 0.080652 -0.031138 -0.022704
v 0.080408 -0.030878 -0.023052
v 0.081165 -0.030658 -0.022684
v 0.080778 -0.030648 -0.023007
v 0.081125 -0.030198 -0.023021
v 0.080670 -0.030308 -0.023260
v 0.078074 -0.028498 -0.023082
v 0.081616 -0.029958 -0.022658
v 0.078205 -0.027008 -0.023183
v 0.081788 -0.029159 -0.022786
v 0.081944 -0.028678 -0.022739
v 0.081564 -0.028618 -0.023084
v 0.081290 -0.029138 -0.023208
v 0.077827 -0.025848 -0.022758
v 0.078048 -0.026198 -0.023005
v 0.078398 -0.026498 -0.023246
v 0.078505 -0.025948 -0.023164
v 0.078934 -0.026418 -0.023376
v 0.081592 -0.027798 -0.023052
v 0.081035 -0.027508 -0.023337
v 0.081930 -0.027968 -0.022786
v 0.078213 -0.025618 -0.022917
v 0.078890 -0.025328 -0.023038
v 0.079306 -0.025978 -0.023287
v 0.079982 -0.025878 -0.023165
v 0.080767 -0.026628 -0.023210
v 0.081944 -0.027188 -0.022682
v 0.081382 -0.026888 -0.023007
v 0.078786 -0.024508 -0.022545
v 0.078654 -0.024828 -0.022728
v 0.079206 -0.024768 -0.022769
v 0.079666 -0.025278 -0.022992
v 0.080940 -0.025288 -0.022602
v 0.081470 -0.025728 -0.022553
v 0.076831 -0.035008 -0.023559
v 0.077131 -0.033768 -0.023488
v 0.077739 -0.033628 -0.023572
v 0.078249 -0.033968 -0.023523
v 0.078631 -0.029088 -0.023439
v 0.079217 -0.030088 -0.023523
v 0.079526 -0.029768 -0.023654
v 0.079354 -0.029228 -0.023665
v 0.079946 -0.030108 -0.023553
v 0.079955 -0.029558 -0.023670
v 0.080665 -0.029638 -0.023461
v 0.078712 -0.027158 -0.023420
v 0.079269 -0.027468 -0.023575
v 0.079880 -0.028348 -0.023698
v 0.080459 -0.027878 -0.023614
v 0.080637 -0.028408 -0.023588
v 0.079985 -0.027268 -0.023556
v 0.079430 -0.024828 -0.017947
v 0.077813 -0.024118 -0.021370
v 0.078436 -0.023848 -0.021495
vn 0.0212 -0.2710 0.9623
vn -0.3053 -0.2225 0.9259
vn 0.1082 -0.1418 0.9840
vn -0.6352 -0.1204 0.7629
vn -0.7233 -0.2121 0.6571
vn -0.5286 -0.2352 0.8157
vn -0.1769 -0.1626 0.9707
vn -0.3176 -0.2586 0.9123
vn -0.5174 0.1554 0.8415
vn -0.6568 0.0511 0.7524
vn -0.5073 -0.0754 0.8585
vn -0.6486 0.2595 0.7155
vn -0.3249 -0.1799 0.9285
vn -0.4994 0.3396 0.7970
vn -0.6020 0.4407 0.6659
vn -0.3538 0.0628 0.9332
vn -0.3475 0.2620 0.9003
vn -0.1547 0.1217 0.9804
vn 0.0527 -0.2705 0.9613
vn 0.1772 -0.1195 0.9769
vn -0.0218 -0.0254 0.9994
vn 0.2076 -0.3722 0.9046
vn 0.2992 -0.3615 0.8831
vn 0.2870 -0.2959 0.9111
vn -0.4234 0.4303 0.7972
vn -0.5266 0.5486 0.6494
vn -0.2142 0.2947 0.9313
vn 0.0579 0.1460 0.9876
vn 0.1502 0.1887 0.9705
vn 0.2753 -0.2120 0.9377
vn 0.3650 -0.1734 0.9147
vn -0.1451 0.3257 0.9343
vn -0.3740 0.4747 0.7967
vn 0.4012 -0.3484 0.8472
vn 0.0461 0.4797 0.8762
vn -0.2627 0.5435 0.7973
vn -0.3763 0.7412 0.5559
vn 0.3066 0.1584 0.9386
vn 0.3337 0.4465 0.8302
vn 0.4379 0.5409 0.7180
vn 0.3807 0.5593 0.7364
vn 0.4513 0.1036 0.8863
vn 0.0796 0.8773 0.4733
vn 0.3413 0.7602 0.5529
vn -0.1516 0.7523 0.6411
vn 0.3454 0.4815 0.8055
vn 0.5295 0.7470 0.4020
vn -0.0103 -0.2003 0.9797
vn 0.1861 -0.3091 0.9326
vn -0.1097 -0.1829 0.9770
vn -0.4739 0.0089 0.8805
vn -0.3119 -0.1244 0.9419
vn -0.4843 -0.0626 0.8726
vn -0.7277 0.0132 0.6858
vn -0.1978 -0.1404 0.9701
vn 0.0877 -0.1980 0.9763
vn 0.3947 -0.2202 0.8920
vn 0.3691 -0.3397 0.8651
vn 0.5806 -0.3166 0.7502
vn 0.6514 -0.2576 0.7136
vn 0.7837 -0.2974 0.5452
vn -0.9090 -0.0271 0.4158
vn -0.5901 -0.2567 0.7654
vn 0.4803 -0.3412 0.8080
vn -0.7484 -0.0667 0.6599
vn -0.8269 -0.0549 0.5596
vn -0.7785 0.1303 0.6139
vn -0.8925 0.1038 0.4389
vn -0.7043 0.4970 0.5069
vn -0.7637 0.3271 0.5566
vn -0.5977 0.5583 0.5754
vn 0.4790 -0.4215 0.7700
vn 0.5940 -0.4734 0.6504
vn -0.5912 0.6692 0.4501
vn 0.4918 -0.3121 0.8128
vn 0.5636 -0.1441 0.8133
vn 0.5815 -0.3684 0.7254
vn -0.5405 0.6558 0.5270
vn -0.4152 0.8295 0.3735
vn -0.5850 0.7649 0.2697
vn -0.2680 0.9520 0.1478
vn 0.6788 -0.2768 0.6802
vn 0.7171 -0.4512 0.5312
vn -0.0699 0.9750 0.2110
vn 0.2564 0.9630 0.0837
vn 0.1597 0.9678 -0.1944
vn 0.0860 0.9914 -0.0990
vn 0.3072 0.8953 -0.3226
vn 0.1884 0.9819 -0.0186
vn 0.5624 0.7911 0.2407
vn 0.3298 0.9236 -0.1952
vn 0.1560 0.9335 -0.3230
vn 0.5768 0.8169 0.0058
vn 0.6447 0.7574 -0.1036
vn 0.3615 0.9008 0.2407
vn 0.6965 0.7168 0.0321
vn 0.2676 0.9592 -0.0914
vn 0.1833 0.9582 0.2198
vn 0.4773 0.8778 0.0398
vn 0.1891 0.9809 0.0446
vn 0.3182 0.8473 0.4253
vn 0.5906 0.1816 0.7863
vn 0.4523 0.6122 0.6485
vn 0.6792 0.2896 0.6744
vn 0.1805 0.8960 0.4056
vn 0.7018 -0.0557 0.7102
vn 0.4291 -0.3960 0.8118
vn 0.4151 -0.4045 0.8149
vn -0.3828 0.0169 0.9237
vn -0.7132 0.2103 0.6686
vn 0.4964 -0.4317 0.7532
vn -0.8965 0.1513 0.4165
vn 0.7251 -0.4309 0.5371
vn 0.8361 -0.3417 0.4292
vn -0.9327 -0.1407 0.3320
vn -0.8816 -0.1286 0.4541
vn 0.7337 -0.2920 0.6135
vn 0.8038 -0.3476 0.4829
vn 0.8729 -0.3290 0.3602
vn -0.9504 -0.0057 0.3111
vn -0.9719 -0.1119 0.2073
vn -0.9847 0.1051 0.1390
vn -0.9982 -0.0502 -0.0322
vn 0.6505 -0.3997 0.6458
vn -0.8176 0.4602 0.3461
vn -0.8976 0.2549 0.3596
vn -0.6931 0.6346 0.3418
vn 0.7035 -0.5156 0.4890
vn -0.7442 0.6458 0.1707
vn 0.7901 -0.5187 0.3265
vn -0.4505 0.8622 0.2317
vn -0.3006 0.9341 0.1924
vn 0.0697 0.9870 0.1449
vn 0.4581 0.8884 -0.0294
vn 0.4614 0.8486 -0.2590
vn 0.3776 0.8936 -0.2428
vn 0.1528 0.9840 -0.0916
vn 0.0771 0.9897 0.1205
vn -0.4350 0.8883 0.1474
vn 0.6045 0.7964 -0.0156
vn 0.5773 0.7433 0.3379
vn 0.1754 0.7927 0.5839
vn 0.2366 0.8098 0.5369
vn 0.2823 0.5542 0.7830
vn 0.5065 0.5806 0.6374
vn 0.4701 0.7318 0.4934
vn 0.3252 0.4611 0.8256
vn 0.1514 0.9007 0.4071
vn 0.2195 0.6251 0.7491
vn 0.0128 0.9674 0.2530
vn 0.0921 0.6938 0.7143
vn 0.0260 0.9057 0.4232
vn 0.7867 -0.0347 0.6163
vn 0.7762 0.2456 0.5806
vn 0.6288 0.5477 0.5520
vn 0.7946 -0.2786 0.5394
vn 0.8661 -0.0711 0.4948
vn 0.3289 0.7539 0.5688
vn 0.0210 0.8032 0.5953
vn 0.2751 0.7430 0.6101
vn 0.5809 0.6607 0.4754
vn -0.4788 -0.1198 0.8697
vn -0.1395 -0.2730 0.9518
vn 0.0036 -0.2479 0.9688
vn -0.2304 -0.3112 0.9220
vn -0.6693 0.0241 0.7426
vn -0.4030 -0.0716 0.9124
vn -0.6701 -0.0843 0.7374
vn -0.7775 0.1267 0.6159
vn -0.8307 0.0603 0.5534
vn 0.2419 -0.3737 0.8954
vn -0.5903 0.0801 0.8032
vn -0.6649 0.1471 0.7323
vn 0.6776 -0.4635 0.5710
vn 0.6944 -0.5183 0.4992
vn -0.8164 0.2223 0.5329
vn 0.7044 -0.5119 0.4917
vn 0.8311 -0.5378 0.1417
vn 0.8631 -0.4542 0.2210
vn -0.7714 0.1734 0.6123
vn -0.8788 0.2995 0.3715
vn -0.9326 0.3413 0.1175
vn -0.9745 0.1479 0.1686
vn -0.9985 -0.0530 0.0115
vn 0.8463 -0.4368 0.3048
vn -0.9355 0.3079 0.1730
vn -0.9903 0.1186 -0.0724
vn 0.7465 -0.5010 0.4378
vn 0.8440 -0.5155 0.1478
vn -0.8582 0.5076 0.0766
vn -0.9402 0.3354 -0.0587
vn -0.7676 0.6381 -0.0608
vn -0.6497 0.7538 0.0984
vn -0.4739 0.8790 0.0524
vn -0.1329 0.9889 0.0669
vn 0.3411 0.9399 -0.0150
vn -0.0635 0.9832 -0.1710
vn 0.4588 0.8874 0.0449
vn 0.1751 0.9812 -0.0810
vn 0.4016 0.9143 0.0530
vn -0.3264 0.9426 0.0712
vn -0.0402 0.9760 0.2142
vn 0.8511 -0.3769 0.3655
vn 0.8707 -0.4396 0.2207
vn -0.2989 0.8641 0.4050
vn -0.4899 0.8346 0.2519
vn -0.1504 0.7983 0.5832
vn 0.1034 0.6522 0.7509
vn 0.2506 0.5148 0.8198
vn 0.2693 0.4785 0.8358
vn 0.1102 0.6343 0.7652
vn 0.9297 -0.1673 0.3282
vn 0.9032 0.1129 0.4140
vn 0.9464 -0.2939 0.1343
vn 0.9836 -0.0757 0.1635
vn 0.9168 -0.3971 0.0411
vn -0.1110 0.7467 0.6558
vn 0.1701 0.5835 0.7941
vn 0.0874 0.7656 0.6374
vn -0.2084 0.8455 0.4916
vn -0.4115 0.8420 0.3489
vn 0.2807 0.6015 0.7480
vn 0.3090 0.6202 0.7210
vn 0.8338 0.3790 0.4014
vn 0.9608 0.2074 0.1838
vn 0.8947 0.4160 0.1627
vn 0.9999 0.0028 -0.0132
vn 0.3228 0.7027 0.6341
vn 0.5471 0.7202 0.4266
vn 0.8166 0.5404 0.2027
vn -0.5413 -0.2331 0.8078
vn -0.8460 -0.1442 0.5133
vn 0.3252 -0.5081 0.7976
vn 0.2004 -0.4051 0.8920
vn -0.0657 -0.4325 0.8992
vn 0.6011 -0.4909 0.6306
vn -0.8775 0.1965 0.4374
vn 0.8039 -0.5732 0.1589
vn 0.8164 -0.5304 0.2284
vn -0.9284 0.1601 0.3352
vn -0.9363 0.2885 0.2003
vn 0.7933 -0.5699 0.2144
vn -0.8673 0.2953 0.4008
vn -0.9177 0.3385 -0.2078
vn -0.9720 0.2307 0.0445
vn -0.9871 0.1103 -0.1160
vn -0.8722 0.2725 -0.4061
vn -0.9435 -0.0035 -0.3313
vn 0.9132 -0.3761 0.1566
vn 0.9143 -0.3369 0.2250
vn -0.9671 -0.0566 -0.2481
vn 0.8670 -0.4878 0.1017
vn -0.9551 0.0596 -0.2903
vn -0.8775 -0.0305 -0.4785
vn -0.9290 0.2445 -0.2777
vn -0.8640 0.1424 -0.4830
vn -0.8582 0.4569 -0.2340
vn -0.6779 0.7332 -0.0539
vn -0.5319 0.8466 -0.0174
vn -0.0586 0.9982 0.0117
vn 0.3760 0.8955 0.2383
vn 0.0858 0.8959 0.4359
vn 0.2190 0.9190 0.3278
vn -0.2976 0.8492 0.4362
vn 0.9098 -0.4112 -0.0571
vn 0.9438 -0.2851 -0.1671
vn 0.9738 -0.1963 -0.1147
vn -0.3351 0.8636 0.3767
vn 0.9627 0.2659 -0.0488
vn 0.9125 0.3272 -0.2457
vn 0.9645 0.0895 -0.2483
vn 0.9415 -0.0834 -0.3266
vn -0.2788 0.9245 0.2600
vn -0.0011 0.9180 0.3966
vn -0.0376 0.9831 0.1792
vn -0.1025 0.9940 0.0383
vn 0.2292 0.8438 0.4853
vn 0.3951 0.7277 0.5606
vn 0.3675 0.8787 0.3047
vn 0.1829 0.9599 0.2124
vn 0.3857 0.6116 0.6908
vn 0.5213 0.6572 0.5444
vn 0.6191 0.7254 0.3008
vn 0.7394 0.6547 0.1569
vn 0.5050 0.7154 0.4830
vn 0.8654 0.5008 -0.0179
vn -0.6201 -0.6662 0.4144
vn -0.4058 -0.8790 0.2504
vn -0.4211 -0.7084 0.5664
vn -0.5034 -0.4275 0.7509
vn -0.7218 -0.6743 0.1563
vn -0.4614 -0.8831 0.0852
vn -0.3035 -0.9528 -0.0097
vn -0.2235 -0.9631 0.1500
vn -0.7122 -0.2814 0.6431
vn -0.7978 -0.4102 0.4420
vn -0.9550 -0.2742 0.1126
vn -0.9840 -0.0647 0.1661
vn -0.9022 -0.4254 0.0716
vn -0.1314 -0.5507 0.8243
vn 0.2305 -0.6561 0.7187
vn -0.1416 -0.7613 0.6328
vn 0.1006 -0.8847 0.4553
vn -0.2154 -0.8922 0.3970
vn 0.0328 -0.9902 0.1358
vn 0.5991 -0.6020 0.5278
vn 0.4472 -0.7714 0.4527
vn 0.3955 -0.9050 0.1567
vn 0.6840 -0.7123 0.1572
vn 0.4255 -0.8979 -0.1132
vn 0.7691 -0.6308 -0.1025
vn 0.8452 -0.4675 -0.2588
vn 0.7501 -0.5830 -0.3121
vn -0.8680 -0.0202 0.4961
vn -0.9776 0.1054 0.1823
vn -0.9763 0.2077 -0.0614
vn 0.8242 -0.5215 -0.2207
vn -0.9634 0.2675 0.0180
vn -0.9454 0.3100 -0.1004
vn -0.9445 0.2675 0.1907
vn -0.9307 0.3597 0.0658
vn -0.9356 0.3310 -0.1228
vn -0.8811 0.4031 -0.2474
vn 0.8148 -0.5735 -0.0848
vn 0.8651 -0.4912 -0.1016
vn -0.7377 0.4307 -0.5199
vn -0.7351 0.3461 -0.5830
vn -0.7785 0.1844 -0.5999
vn 0.9083 -0.4078 -0.0929
vn -0.7674 0.1098 -0.6317
vn -0.7247 0.3128 -0.6139
vn -0.8194 -0.0068 -0.5731
vn -0.7266 0.1162 -0.6772
vn 0.8875 -0.4590 -0.0397
vn -0.7534 0.0178 -0.6573
vn -0.7670 0.2073 -0.6072
vn 0.8631 -0.5037 -0.0367
vn -0.8054 0.3738 -0.4601
vn 0.8701 -0.4547 -0.1900
vn -0.7850 0.5599 -0.2652
vn -0.7370 0.5172 -0.4351
vn 0.8863 -0.4625 -0.0236
vn -0.6666 0.7130 -0.2172
vn 0.9223 -0.2908 -0.2545
vn -0.4679 0.8698 -0.1567
vn -0.1235 0.9892 0.0788
vn -0.0726 0.8982 0.4335
vn -0.2827 0.8646 0.4154
vn -0.2210 0.9194 0.3252
vn 0.8950 0.1321 -0.4261
vn 0.8369 0.2254 -0.4987
vn 0.8630 0.4352 -0.2566
vn 0.0379 0.9992 -0.0159
vn 0.2418 0.9700 0.0259
vn 0.2339 0.9354 -0.2653
vn 0.4935 0.8637 -0.1021
vn 0.7663 0.6293 -0.1294
vn 0.7150 0.5510 -0.4304
vn 0.7862 0.3770 -0.4896
vn 0.5119 0.8505 0.1211
vn 0.5143 0.7613 -0.3948
vn -0.8122 -0.5715 -0.1171
vn -0.6123 -0.7845 -0.0979
vn -0.8773 -0.3648 -0.3119
vn -0.7401 -0.5483 -0.3895
vn -0.4268 -0.8948 -0.1314
vn -0.5553 -0.7615 -0.3343
vn -0.0389 -0.9946 -0.0960
vn -0.2448 -0.9526 -0.1805
vn -0.3395 -0.8618 -0.3769
vn -0.9570 -0.1684 -0.2361
vn -0.9793 0.0461 -0.1969
vn -0.8684 -0.0544 -0.4929
vn -0.7374 -0.1258 -0.6637
vn -0.8033 -0.2544 -0.5385
vn -0.6620 -0.4665 -0.5867
vn -0.6506 -0.2400 -0.7205
vn 0.2963 -0.9165 -0.2686
vn 0.0195 -0.9610 -0.2760
vn 0.2790 -0.8438 -0.4584
vn -0.4438 -0.6600 -0.6061
vn -0.0706 -0.9029 -0.4240
vn -0.1803 -0.7653 -0.6179
vn 0.1927 -0.7484 -0.6346
vn 0.5466 -0.6477 -0.5307
vn 0.5753 -0.7517 -0.3223
vn -0.6477 -0.0349 -0.7611
vn -0.8342 0.0897 -0.5441
vn -0.9545 0.1536 -0.2556
vn -0.8511 0.1915 -0.4888
vn 0.7995 -0.4931 -0.3430
vn -0.9005 0.2729 -0.3385
vn 0.7266 -0.4188 -0.5447
vn 0.7430 -0.3563 -0.5666
vn -0.7430 0.2022 -0.6381
vn -0.8808 0.3048 -0.3623
vn -0.7212 0.2398 -0.6499
vn 0.7265 -0.5294 -0.4381
vn -0.8477 0.3355 -0.4109
vn 0.7448 -0.5439 -0.3867
vn 0.5415 -0.3514 -0.7637
vn -0.7177 0.4053 -0.5662
vn -0.6680 0.3062 -0.6783
vn -0.6590 0.3932 -0.6412
vn 0.7989 -0.5284 -0.2874
vn -0.7107 0.4395 -0.5493
vn -0.6685 0.4105 -0.6202
vn 0.8298 -0.4107 -0.3778
vn -0.6446 0.2885 -0.7080
vn 0.8677 -0.3687 -0.3335
vn 0.8801 -0.4080 -0.2427
vn -0.6476 0.0660 -0.7591
vn 0.8250 -0.5366 -0.1769
vn 0.7616 -0.4224 -0.4916
vn -0.6834 0.0917 -0.7242
vn -0.5671 0.0490 -0.8222
vn -0.6915 0.3338 -0.6406
vn 0.9020 -0.3801 -0.2049
vn 0.8567 -0.2669 -0.4413
vn -0.6528 0.5938 -0.4703
vn -0.5954 0.5056 -0.6244
vn -0.6398 0.2892 -0.7121
vn 0.9095 -0.1731 -0.3780
vn -0.4826 0.8364 -0.2599
vn -0.5062 0.8074 -0.3031
vn -0.4678 0.8185 -0.3336
vn 0.8766 0.0037 -0.4813
vn -0.1965 0.9243 0.3272
vn -0.2882 0.9061 0.3098
vn -0.4855 0.6905 -0.5362
vn -0.3798 0.8450 -0.3764
vn -0.2873 0.9138 -0.2871
vn -0.2188 0.8380 -0.4999
vn 0.7845 0.1541 -0.6007
vn -0.1719 0.9815 -0.0841
vn 0.6683 0.2499 -0.7007
vn 0.7245 0.3080 -0.6167
vn 0.0549 0.9345 -0.3517
vn 0.3061 0.7513 -0.5847
vn 0.1635 0.7065 -0.6885
vn 0.4916 0.5884 -0.6420
vn 0.6283 0.4680 -0.6215
vn -0.4853 -0.4112 -0.7716
vn -0.4256 -0.2165 -0.8787
vn -0.4973 -0.1265 -0.8583
vn -0.2544 -0.4180 -0.8721
vn -0.1669 -0.1915 -0.9672
vn -0.0230 -0.5852 -0.8106
vn 0.3141 -0.5634 -0.7642
vn 0.1184 -0.3696 -0.9216
vn 0.4753 -0.4391 -0.7624
vn 0.6832 -0.5192 -0.5135
vn -0.6529 0.1002 -0.7508
vn -0.4189 -0.0204 -0.9078
vn -0.1825 -0.0981 -0.9783
vn 0.1048 -0.1874 -0.9767
vn 0.6713 -0.4128 -0.6156
vn 0.7703 -0.3909 -0.5038
vn 0.5727 -0.2768 -0.7716
vn 0.3908 -0.2846 -0.8754
vn 0.2411 -0.2233 -0.9445
vn -0.4639 0.0806 -0.8822
vn -0.1542 -0.0475 -0.9869
vn 0.0013 -0.0849 -0.9964
vn 0.3339 -0.3156 -0.8882
vn -0.4380 0.1263 -0.8900
vn 0.0771 -0.1971 -0.9773
vn -0.4665 0.2414 -0.8510
vn 0.6630 -0.5111 -0.5469
vn 0.5852 -0.4380 -0.6824
vn -0.6398 0.3625 -0.6776
vn 0.7259 -0.4501 -0.5200
vn -0.5577 0.3285 -0.7623
vn 0.7180 -0.3225 -0.6168
vn 0.7839 -0.2984 -0.5445
vn 0.7325 -0.2625 -0.6281
vn -0.6627 0.0909 -0.7433
vn -0.5612 0.1154 -0.8196
vn 0.6425 -0.2692 -0.7175
vn 0.6617 -0.5337 -0.5266
vn 0.5583 -0.4989 -0.6629
vn 0.6047 -0.5105 -0.6114
vn 0.4170 -0.2966 -0.8592
vn 0.7413 -0.5950 -0.3107
vn 0.7915 -0.5192 -0.3225
vn 0.8292 -0.3539 -0.4327
vn 0.6902 -0.5618 -0.4561
vn 0.7211 -0.4325 -0.5413
vn 0.7218 -0.3012 -0.6231
vn -0.6412 0.0932 -0.7617
vn -0.5470 0.3940 -0.7387
vn -0.5661 0.2516 -0.7850
vn 0.8349 -0.0926 -0.5426
vn -0.4265 0.5377 -0.7274
vn 0.7609 0.0767 -0.6443
vn 0.6392 0.1649 -0.7511
vn -0.3363 0.6925 -0.6383
vn -0.0514 0.7115 -0.7008
vn -0.1812 0.6321 -0.7534
vn 0.4926 0.2392 -0.8367
vn -0.0588 0.8648 -0.4986
vn 0.2764 0.5381 -0.7963
vn 0.0345 0.5414 -0.8401
vn 0.3911 0.4929 -0.7772
vn 0.3265 0.4058 -0.8537
vn 0.1531 0.4313 -0.8891
vn 0.5462 0.3879 -0.7425
vn 0.4674 0.3224 -0.8232
vn -0.0332 -0.0949 -0.9949
vn -0.2806 0.0879 -0.9558
vn -0.0966 0.0240 -0.9950
vn 0.1998 -0.1708 -0.9648
vn 0.4392 -0.2955 -0.8484
vn -0.2804 0.1673 -0.9452
vn 0.6034 -0.3333 -0.7244
vn 0.4056 -0.1822 -0.8957
vn -0.3932 0.2556 -0.8832
vn 0.3784 -0.0257 -0.9253
vn 0.2200 -0.0532 -0.9740
vn 0.5777 -0.1389 -0.8044
vn 0.6156 -0.2293 -0.7540
vn -0.2361 0.0600 -0.9699
vn -0.1242 0.1727 -0.9771
vn 0.1943 -0.0268 -0.9806
vn 0.1284 0.1028 -0.9864
vn 0.5032 -0.0936 -0.8591
vn -0.5011 0.0177 -0.8652
vn -0.0341 -0.1888 -0.9814
vn 0.2110 -0.3181 -0.9243
vn -0.3158 -0.0843 -0.9451
vn -0.3796 -0.0005 -0.9251
vn 0.3712 -0.4654 -0.8035
vn -0.1740 -0.2343 -0.9565
vn 0.1291 -0.3180 -0.9393
vn -0.3210 0.0590 -0.9452
vn 0.3895 -0.3556 -0.8496
vn 0.5787 -0.3341 -0.7440
vn 0.4790 -0.4873 -0.7301
vn 0.3818 -0.1826 -0.9060
vn -0.5202 0.0220 -0.8538
vn 0.7168 -0.2128 -0.6640
vn 0.5391 -0.1432 -0.8299
vn -0.5257 0.1657 -0.8343
vn -0.3834 0.1341 -0.9138
vn 0.7388 -0.1170 -0.6637
vn 0.5788 -0.0552 -0.8136
vn 0.3227 -0.0082 -0.9465
vn -0.4263 0.3459 -0.8358
vn -0.3022 0.2749 -0.9128
vn -0.1396 0.1981 -0.9702
vn 0.5586 0.0762 -0.8259
vn 0.4150 0.1540 -0.8967
vn 0.3104 0.2886 -0.9057
vn 0.6974 0.0165 -0.7165
vn -0.2674 0.4830 -0.8338
vn -0.1419 0.3892 -0.9102
vn 0.0137 0.2907 -0.9567
vn 0.2062 0.3319 -0.9205
vn 0.0911 0.2041 -0.9747
vn -0.0226 0.0551 -0.9982
vn -0.1843 -0.0352 -0.9822
vn -0.1021 -0.1714 -0.9799
vn 0.1278 -0.1115 -0.9855
vn 0.0088 0.0393 -0.9992
vn -0.1295 0.1032 -0.9862
vn 0.2177 0.1212 -0.9685
s 1
usemtl mtl1.308
f 2//1 43//2 44//3
f 50//4 46//5 45//6
f 2//1 9//7 43//2
f 43//2 9//7 1//8
f 7//9 3//10 5//11
f 54//12 3//10 7//9
f 50//4 5//11 3//10
f 45//6 4//13 5//11
f 1//8 9//7 4//13
f 1//8 4//13 45//6
f 5//11 50//4 45//6
f 8//14 54//12 7//9
f 55//15 54//12 8//14
f 4//13 9//7 6//16
f 6//16 5//11 4//13
f 6//16 7//9 5//11
f 8//14 7//9 6//16
f 6//16 12//17 8//14
f 6//16 9//7 13//18
f 10//19 15//20 14//21
f 2//1 10//19 9//7
f 2//1 11//22 10//19
f 10//19 11//22 15//20
f 11//22 16//23 15//20
f 11//22 51//24 16//23
f 55//15 18//25 59//26
f 6//16 13//18 12//17
f 12//17 13//18 17//27
f 18//25 8//14 12//17
f 17//27 18//25 12//17
f 8//14 18//25 55//15
f 13//18 9//7 14//21
f 9//7 10//19 14//21
f 14//21 19//28 13//18
f 14//21 15//20 19//28
f 19//28 15//20 25//29
f 15//20 16//23 20//30
f 20//30 16//23 26//31
f 22//32 17//27 13//18
f 18//25 17//27 22//32
f 18//25 22//32 23//33
f 18//25 23//33 59//26
f 22//32 13//18 19//28
f 20//30 26//31 15//20
f 16//23 21//34 26//31
f 22//32 29//35 24//36
f 24//36 23//33 22//32
f 59//26 23//33 60//37
f 23//33 24//36 60//37
f 22//32 19//28 29//35
f 29//35 19//28 25//29
f 27//38 31//39 25//29
f 27//38 77//40 32//41
f 15//20 27//38 25//29
f 15//20 26//31 27//38
f 26//31 28//42 27//38
f 27//38 28//42 77//40
f 67//43 29//35 68//44
f 29//35 64//45 24//36
f 67//43 64//45 29//35
f 68//44 29//35 30//46
f 29//35 25//29 30//46
f 25//29 31//39 30//46
f 30//46 31//39 73//47
f 31//39 27//38 32//41
f 73//47 31//39 32//41
f 139//48 35//49 34//50
f 84//51 33//52 37//53
f 84//51 37//53 85//54
f 34//50 33//52 84//51
f 37//53 33//52 38//55
f 33//52 34//50 38//55
f 34//50 35//49 39//56
f 37//53 38//55 43//2
f 38//55 39//56 43//2
f 34//50 39//56 38//55
f 40//57 39//56 35//49
f 35//49 36//58 40//57
f 36//58 41//59 40//57
f 41//59 89//60 40//57
f 90//61 89//60 41//59
f 146//62 85//54 42//63
f 43//2 85//54 37//53
f 43//2 39//56 44//3
f 40//57 44//3 39//56
f 89//60 52//64 40//57
f 45//6 42//63 43//2
f 42//63 85//54 43//2
f 46//5 47//65 49//66
f 46//5 42//63 45//6
f 1//8 45//6 43//2
f 51//24 11//22 2//1
f 51//24 2//1 44//3
f 44//3 40//57 51//24
f 40//57 52//64 51//24
f 46//5 50//4 47//65
f 3//10 47//65 50//4
f 47//65 3//10 48//67
f 49//66 47//65 48//67
f 94//68 49//66 48//67
f 55//15 97//69 53//70
f 54//12 48//67 3//10
f 54//12 55//15 53//70
f 48//67 54//12 53//70
f 51//24 52//64 16//23
f 55//15 56//71 97//69
f 56//71 55//15 59//26
f 57//72 21//34 52//64
f 57//72 52//64 100//73
f 59//26 99//74 56//71
f 16//23 52//64 21//34
f 21//34 62//75 26//31
f 26//31 62//75 79//76
f 21//34 57//72 62//75
f 57//72 63//77 62//75
f 100//73 63//77 57//72
f 59//26 58//78 99//74
f 58//78 61//79 99//74
f 99//74 61//79 160//80
f 102//81 160//80 61//79
f 60//37 58//78 59//26
f 60//37 61//79 58//78
f 28//42 26//31 79//76
f 62//75 63//77 79//76
f 79//76 63//77 123//82
f 63//77 105//83 123//82
f 60//37 24//36 64//45
f 65//84 60//37 64//45
f 64//45 67//43 65//84
f 65//84 67//43 69//85
f 66//86 65//84 69//85
f 61//79 60//37 65//84
f 102//81 61//79 65//84
f 107//87 102//81 65//84
f 107//87 65//84 66//86
f 106//88 103//89 107//87
f 66//86 106//88 107//87
f 69//85 67//43 68//44
f 69//85 68//44 71//90
f 68//44 30//46 71//90
f 69//85 71//90 70//91
f 70//91 66//86 69//85
f 108//92 66//86 70//91
f 108//92 106//88 66//86
f 71//90 73//47 74//93
f 30//46 73//47 71//90
f 72//94 71//90 74//93
f 70//91 71//90 72//94
f 75//95 73//47 32//41
f 74//93 73//47 75//95
f 74//93 115//96 72//94
f 74//93 75//95 76//97
f 75//95 81//98 76//97
f 115//96 74//93 114//99
f 114//99 74//93 76//97
f 116//100 114//99 76//97
f 116//100 76//97 81//98
f 75//95 32//41 78//101
f 32//41 77//40 78//101
f 80//102 77//40 28//42
f 77//40 82//103 78//101
f 82//103 77//40 80//102
f 78//101 82//103 81//98
f 81//98 75//95 78//101
f 79//76 80//102 28//42
f 82//103 80//102 124//104
f 120//105 81//98 82//103
f 79//76 122//106 80//102
f 122//106 79//76 123//82
f 80//102 122//106 124//104
f 139//48 133//107 83//108
f 137//109 139//48 84//51
f 84//51 141//110 137//109
f 35//49 139//48 83//108
f 139//48 34//50 84//51
f 35//49 83//108 86//111
f 35//49 86//111 36//58
f 144//112 85//54 146//62
f 36//58 86//111 41//59
f 86//111 87//113 41//59
f 87//113 90//61 41//59
f 90//61 87//113 147//114
f 88//115 146//62 46//5
f 88//115 46//5 92//116
f 46//5 146//62 42//63
f 90//61 52//64 89//60
f 93//117 52//64 90//61
f 90//61 150//118 93//117
f 90//61 147//114 214//119
f 214//119 150//118 90//61
f 49//66 94//68 92//116
f 92//116 94//68 91//120
f 149//121 92//116 91//120
f 149//121 91//120 151//122
f 148//123 149//121 151//122
f 92//116 46//5 49//66
f 88//115 92//116 149//121
f 52//64 93//117 96//124
f 150//118 96//124 93//117
f 53//70 94//68 48//67
f 97//69 154//125 53//70
f 94//68 53//70 95//126
f 151//122 91//120 94//68
f 95//126 53//70 154//125
f 151//122 94//68 95//126
f 98//127 154//125 97//69
f 97//69 99//74 98//127
f 100//73 52//64 96//124
f 159//128 100//73 96//124
f 56//71 99//74 97//69
f 98//127 99//74 160//80
f 98//127 160//80 158//129
f 100//73 159//128 105//83
f 105//83 159//128 222//130
f 163//131 160//80 101//132
f 101//132 160//80 102//81
f 101//132 102//81 103//89
f 162//133 101//132 103//89
f 167//134 162//133 103//89
f 107//87 103//89 102//81
f 103//89 106//88 104//135
f 104//135 106//88 166//136
f 166//136 106//88 108//92
f 167//134 103//89 104//135
f 104//135 166//136 167//134
f 100//73 105//83 63//77
f 109//137 108//92 70//91
f 112//138 170//139 109//137
f 110//140 72//94 115//96
f 109//137 70//91 110//140
f 72//94 110//140 70//91
f 112//138 109//137 110//140
f 112//138 110//140 111//141
f 110//140 115//96 111//141
f 172//142 564//143 111//141
f 171//144 113//145 117//146
f 111//141 113//145 172//142
f 172//142 113//145 171//144
f 174//147 171//144 117//146
f 115//96 114//99 117//146
f 114//99 116//100 118//148
f 117//146 114//99 118//148
f 111//141 115//96 117//146
f 111//141 117//146 113//145
f 117//146 118//148 119//149
f 116//100 81//98 118//148
f 118//148 81//98 121//150
f 185//151 119//149 118//148
f 121//150 81//98 120//105
f 121//150 120//105 127//152
f 118//148 121//150 127//152
f 122//106 125//153 124//104
f 125//153 129//154 124//104
f 124//104 189//155 82//103
f 129//154 189//155 124//104
f 122//106 123//82 125//153
f 123//82 105//83 126//156
f 126//156 125//153 123//82
f 126//156 175//157 125//153
f 175//157 129//154 125//153
f 120//105 82//103 128//158
f 128//158 127//152 120//105
f 188//159 118//148 127//152
f 128//158 82//103 189//155
f 193//160 127//152 128//158
f 193//160 128//158 255//161
f 255//161 128//158 189//155
f 132//162 130//163 136//164
f 132//162 195//165 130//163
f 135//166 132//162 134//167
f 135//166 197//168 132//162
f 200//169 280//170 135//166
f 132//162 136//164 134//167
f 136//164 130//163 131//171
f 131//171 133//107 136//164
f 200//169 135//166 138//172
f 136//164 139//48 134//167
f 133//107 139//48 136//164
f 138//172 135//166 134//167
f 200//169 138//172 140//173
f 134//167 137//109 138//172
f 140//173 138//172 137//109
f 137//109 134//167 139//48
f 133//107 199//174 202//175
f 141//110 203//176 140//173
f 140//173 137//109 141//110
f 133//107 202//175 143//177
f 133//107 143//177 83//108
f 290//178 210//179 143//177
f 141//110 84//51 142//180
f 83//108 143//177 86//111
f 142//180 84//51 85//54
f 145//181 141//110 142//180
f 143//177 87//113 86//111
f 143//177 210//179 87//113
f 205//182 144//112 206//183
f 144//112 142//180 85//54
f 145//181 142//180 144//112
f 145//181 144//112 205//182
f 146//62 88//115 211//184
f 146//62 206//183 144//112
f 87//113 210//179 147//114
f 88//115 149//121 211//184
f 211//184 149//121 148//123
f 217//185 150//118 214//119
f 151//122 95//126 155//186
f 148//123 151//122 152//187
f 151//122 155//186 152//187
f 150//118 153//188 96//124
f 217//185 153//188 150//118
f 153//188 217//185 223//189
f 155//186 95//126 154//125
f 155//186 154//125 156//190
f 152//187 155//186 157//191
f 157//191 155//186 156//190
f 153//188 159//128 96//124
f 153//188 222//130 159//128
f 154//125 98//127 158//129
f 158//129 156//190 154//125
f 221//192 156//190 158//129
f 161//193 221//192 158//129
f 161//193 158//129 160//80
f 225//194 161//193 160//80
f 164//195 163//131 101//132
f 164//195 162//133 165//196
f 164//195 101//132 162//133
f 165//196 162//133 167//134
f 163//131 225//194 160//80
f 164//195 225//194 163//131
f 166//136 108//92 168//197
f 226//198 167//134 166//136
f 226//198 166//136 169//199
f 166//136 168//197 169//199
f 228//200 167//134 226//198
f 165//196 167//134 228//200
f 109//137 168//197 108//92
f 168//197 109//137 170//139
f 170//139 229//201 168//197
f 169//199 168//197 229//201
f 230//202 169//199 229//201
f 105//83 222//130 176//203
f 176//203 222//130 178//204
f 173//205 170//139 112//138
f 232//206 229//201 170//139
f 564//143 172//142 173//205
f 181//207 173//205 172//142
f 172//142 171//144 180//208
f 181//207 172//142 180//208
f 119//149 174//147 117//146
f 187//209 174//147 119//149
f 174//147 187//209 183//210
f 174//147 183//210 171//144
f 185//151 118//148 188//159
f 186//211 185//151 188//159
f 176//203 126//156 105//83
f 176//203 175//157 126//156
f 177//212 175//157 176//203
f 190//213 175//157 177//212
f 177//212 176//203 179//214
f 179//214 176//203 178//204
f 192//215 177//212 179//214
f 231//216 179//214 178//204
f 180//208 171//144 183//210
f 181//207 180//208 182//217
f 182//217 180//208 184//218
f 173//205 181//207 182//217
f 244//219 182//217 184//218
f 241//220 182//217 244//219
f 170//139 173//205 235//221
f 180//208 183//210 184//218
f 248//222 243//223 183//210
f 243//223 244//219 184//218
f 183//210 243//223 184//218
f 119//149 185//151 187//209
f 186//211 187//209 185//151
f 187//209 248//222 183//210
f 187//209 186//211 248//222
f 188//159 248//222 186//211
f 188//159 127//152 193//160
f 248//222 188//159 193//160
f 190//213 129//154 175//157
f 191//224 129//154 190//213
f 189//155 129//154 191//224
f 255//161 189//155 191//224
f 190//213 237//225 191//224
f 237//225 236//226 191//224
f 192//215 190//213 177//212
f 192//215 237//225 190//213
f 192//215 238//227 237//225
f 249//228 248//222 193//160
f 250//229 193//160 255//161
f 255//161 191//224 256//230
f 194//231 197//168 263//232
f 269//233 133//107 198//234
f 198//234 195//165 196//235
f 198//234 196//235 269//233
f 195//165 132//162 194//231
f 130//163 195//165 198//234
f 278//236 199//174 133//107
f 280//170 197//168 135//166
f 194//231 132//162 197//168
f 198//234 131//171 130//163
f 198//234 133//107 131//171
f 280//170 200//169 201//237
f 287//238 199//174 279//239
f 199//174 287//238 202//175
f 201//237 200//169 140//173
f 282//240 280//170 201//237
f 201//237 140//173 203//176
f 285//241 201//237 203//176
f 287//238 289//242 202//175
f 141//110 204//243 203//176
f 285//241 203//176 204//243
f 289//242 143//177 202//175
f 289//242 290//178 143//177
f 205//182 204//243 145//181
f 141//110 145//181 204//243
f 209//244 205//182 207//245
f 207//245 205//182 206//183
f 146//62 211//184 206//183
f 206//183 211//184 208//246
f 208//246 207//245 206//183
f 209//244 207//245 208//246
f 209//244 208//246 292//247
f 148//123 212//248 211//184
f 212//248 208//246 211//184
f 292//247 208//246 212//248
f 210//179 214//119 147//114
f 213//249 214//119 210//179
f 213//249 215//250 214//119
f 148//123 216//251 212//248
f 214//119 296//252 217//185
f 215//250 296//252 214//119
f 148//123 218//253 216//251
f 218//253 298//254 216//251
f 296//252 223//189 217//185
f 148//123 152//187 218//253
f 218//253 152//187 220//255
f 299//256 218//253 220//255
f 223//189 222//130 153//188
f 220//255 152//187 157//191
f 219//257 220//255 157//191
f 156//190 219//257 157//191
f 224//258 221//192 161//193
f 219//257 156//190 221//192
f 223//189 178//204 222//130
f 224//258 161//193 225//194
f 225//194 304//259 224//258
f 223//189 231//216 178//204
f 164//195 165//196 306//260
f 306//260 165//196 228//200
f 164//195 306//260 225//194
f 304//259 225//194 306//260
f 228//200 226//198 227//261
f 227//261 226//198 230//202
f 309//262 227//261 230//202
f 228//200 227//261 310//263
f 310//263 227//261 309//262
f 226//198 169//199 230//202
f 309//262 230//202 233//264
f 311//265 312//266 231//216
f 229//201 232//206 230//202
f 170//139 235//221 232//206
f 230//202 232//206 233//264
f 234//267 192//215 179//214
f 231//216 234//267 179//214
f 312//266 234//267 231//216
f 232//206 235//221 314//268
f 235//221 173//205 182//217
f 182//217 241//220 235//221
f 236//226 239//269 256//230
f 315//270 239//269 240//271
f 234//267 238//227 192//215
f 239//269 237//225 238//227
f 240//271 239//269 238//227
f 239//269 236//226 237//225
f 234//267 240//271 238//227
f 313//272 240//271 234//267
f 241//220 242//273 235//221
f 242//273 241//220 245//274
f 242//273 245//274 317//275
f 242//273 398//276 235//221
f 398//276 242//273 317//275
f 244//219 243//223 246//277
f 245//274 241//220 244//219
f 246//277 245//274 244//219
f 243//223 247//278 246//277
f 246//277 247//278 319//279
f 319//279 318//280 246//277
f 317//275 245//274 246//277
f 317//275 246//277 318//280
f 243//223 248//222 251//281
f 251//281 254//282 243//223
f 254//282 247//278 243//223
f 247//278 254//282 321//283
f 321//283 254//282 253//284
f 319//279 247//278 321//283
f 249//228 193//160 250//229
f 250//229 255//161 256//230
f 249//228 251//281 248//222
f 252//285 249//228 250//229
f 250//229 256//230 253//284
f 251//281 249//228 252//285
f 252//285 250//229 253//284
f 254//282 251//281 252//285
f 253//284 256//230 257//286
f 254//282 252//285 253//284
f 256//230 191//224 236//226
f 239//269 257//286 256//230
f 257//286 239//269 315//270
f 258//287 259//288 266//289
f 260//290 258//287 266//289
f 327//291 331//292 258//287
f 258//287 331//292 259//288
f 332//293 268//294 259//288
f 332//293 259//288 331//292
f 194//231 261//295 260//290
f 263//232 261//295 194//231
f 261//295 262//296 260//290
f 260//290 262//296 258//287
f 263//232 262//296 261//295
f 258//287 262//296 327//291
f 262//296 263//232 338//297
f 338//297 263//232 335//298
f 327//291 262//296 337//299
f 264//300 269//233 196//235
f 264//300 270//301 269//233
f 196//235 260//290 264//300
f 194//231 260//290 196//235
f 196//235 195//165 194//231
f 264//300 260//290 266//289
f 264//300 266//289 265//302
f 270//301 264//300 265//302
f 265//302 272//303 270//301
f 265//302 266//289 267//304
f 272//303 265//302 267//304
f 267//304 266//289 259//288
f 259//288 268//294 267//304
f 268//294 274//305 267//304
f 274//305 272//303 267//304
f 269//233 278//236 133//107
f 270//301 271//306 269//233
f 269//233 271//306 278//236
f 272//303 273//307 270//301
f 271//306 270//301 273//307
f 275//308 272//303 274//305
f 275//308 273//307 272//303
f 273//307 275//308 276//309
f 279//239 271//306 276//309
f 271//306 273//307 276//309
f 275//308 274//305 348//310
f 348//310 276//309 275//308
f 348//310 349//311 276//309
f 349//311 279//239 276//309
f 349//311 358//312 279//239
f 358//312 349//311 352//313
f 335//298 263//232 277//314
f 278//236 271//306 279//239
f 278//236 279//239 199//174
f 277//314 263//232 197//168
f 277//314 197//168 280//170
f 281//315 280//170 282//240
f 281//315 277//314 280//170
f 335//298 277//314 281//315
f 359//316 281//315 282//240
f 358//312 287//238 279//239
f 358//312 364//317 287//238
f 359//316 282//240 360//318
f 201//237 360//318 282//240
f 284//319 360//318 283//320
f 360//318 201//237 283//320
f 285//241 284//319 283//320
f 285//241 283//320 201//237
f 285//241 204//243 288//321
f 286//322 285//241 288//321
f 284//319 285//241 286//322
f 367//323 286//322 288//321
f 287//238 369//324 289//242
f 288//321 204//243 205//182
f 289//242 369//324 290//178
f 367//323 288//321 205//182
f 209//244 367//323 205//182
f 369//324 372//325 290//178
f 291//326 209//244 292//247
f 293//327 291//326 292//247
f 372//325 210//179 290//178
f 294//328 293//327 292//247
f 375//329 213//249 210//179
f 372//325 375//329 210//179
f 212//248 294//328 292//247
f 294//328 374//330 373//331
f 294//328 295//332 374//330
f 298//254 295//332 212//248
f 295//332 294//328 212//248
f 295//332 298//254 450//333
f 212//248 216//251 298//254
f 215//250 297//334 296//252
f 299//256 298//254 218//253
f 299//256 380//335 298//254
f 382//336 380//335 299//256
f 296//252 378//337 223//189
f 378//337 296//252 297//334
f 301//338 382//336 299//256
f 220//255 301//338 299//256
f 378//337 459//339 223//189
f 224//258 300//340 221//192
f 219//257 301//338 220//255
f 219//257 221//192 300//340
f 301//338 219//257 300//340
f 300//340 303//341 301//338
f 302//342 311//265 223//189
f 302//342 223//189 459//339
f 300//340 224//258 305//343
f 305//343 303//341 300//340
f 311//265 231//216 223//189
f 385//344 312//266 311//265
f 313//272 312//266 385//344
f 305//343 224//258 304//259
f 308//345 305//343 304//259
f 306//260 228//200 307//346
f 304//259 306//260 308//345
f 306//260 307//346 308//345
f 310//263 309//262 391//347
f 307//346 228//200 310//263
f 309//262 233//264 391//347
f 392//348 391//347 233//264
f 392//348 233//264 314//268
f 232//206 314//268 233//264
f 234//267 312//266 313//272
f 398//276 396//349 314//268
f 240//271 313//272 316//350
f 316//350 315//270 240//271
f 397//351 323//352 315//270
f 397//351 315//270 316//350
f 235//221 398//276 314//268
f 317//275 320//353 398//276
f 317//275 318//280 320//353
f 320//353 318//280 324//354
f 318//280 319//279 324//354
f 320//353 324//354 400//355
f 400//355 324//354 326//356
f 400//355 398//276 320//353
f 253//284 322//357 321//283
f 323//352 402//358 322//357
f 323//352 405//359 402//358
f 253//284 257//286 323//352
f 323//352 257//286 315//270
f 323//352 322//357 253//284
f 319//279 325//360 324//354
f 325//360 319//279 321//283
f 325//360 321//283 322//357
f 326//356 324//354 325//360
f 325//360 322//357 326//356
f 402//358 407//361 322//357
f 322//357 407//361 326//356
f 400//355 326//356 407//361
f 327//291 337//299 328//362
f 328//362 329//363 327//291
f 337//299 339//364 328//362
f 327//291 329//363 331//292
f 328//362 339//364 340//365
f 340//365 329//363 328//362
f 329//363 333//366 331//292
f 329//363 330//367 333//366
f 340//365 330//367 329//363
f 331//292 333//366 332//293
f 343//368 332//293 334//369
f 333//366 334//369 332//293
f 345//370 333//366 330//367
f 334//369 333//366 345//370
f 336//371 335//298 353//372
f 354//373 336//371 353//372
f 354//373 355//374 341//375
f 262//296 338//297 337//299
f 339//364 337//299 338//297
f 336//371 339//364 338//297
f 338//297 335//298 336//371
f 339//364 341//375 340//365
f 339//364 336//371 341//375
f 336//371 354//373 341//375
f 340//365 341//375 342//376
f 330//367 340//365 342//376
f 341//375 408//377 342//376
f 341//375 355//374 408//377
f 332//293 343//368 268//294
f 268//294 343//368 274//305
f 350//378 343//368 344//379
f 334//369 344//379 343//368
f 347//380 350//378 344//379
f 330//367 410//381 345//370
f 345//370 346//382 334//369
f 346//382 347//380 344//379
f 346//382 344//379 334//369
f 342//376 410//381 330//367
f 410//381 411//383 345//370
f 411//383 346//382 345//370
f 411//383 414//384 346//382
f 346//382 414//384 347//380
f 414//384 412//385 347//380
f 347//380 412//385 351//386
f 274//305 343//368 348//310
f 348//310 351//386 349//311
f 348//310 343//368 350//378
f 350//378 351//386 348//310
f 351//386 352//313 349//311
f 347//380 351//386 350//378
f 351//386 412//385 352//313
f 281//315 353//372 335//298
f 419//387 355//374 354//373
f 354//373 353//372 428//388
f 281//315 359//316 357//389
f 353//372 281//315 357//389
f 353//372 357//389 428//388
f 434//390 428//388 357//389
f 356//391 358//312 352//313
f 357//389 359//316 361//392
f 357//389 361//392 434//390
f 359//316 360//318 361//392
f 358//312 362//393 364//317
f 362//393 358//312 436//394
f 361//392 360//318 284//319
f 440//395 434//390 361//392
f 361//392 284//319 363//396
f 441//397 361//392 363//396
f 365//398 364//317 362//393
f 366//399 441//397 363//396
f 287//238 364//317 369//324
f 365//398 443//400 364//317
f 438//401 365//398 362//393
f 363//396 284//319 286//322
f 363//396 286//322 366//399
f 367//323 366//399 286//322
f 364//317 443//400 369//324
f 366//399 367//323 368//402
f 368//402 442//403 366//399
f 368//402 367//323 209//244
f 442//403 368//402 445//404
f 443//400 446//405 369//324
f 370//406 368//402 209//244
f 446//405 372//325 369//324
f 209//244 291//326 370//406
f 445//404 368//402 370//406
f 445//404 370//406 371//407
f 370//406 291//326 371//407
f 446//405 448//408 372//325
f 371//407 291//326 373//331
f 294//328 373//331 293//327
f 291//326 293//327 373//331
f 371//407 373//331 449//409
f 375//329 372//325 448//408
f 376//410 377//411 375//329
f 448//408 376//410 375//329
f 377//411 213//249 375//329
f 213//249 297//334 215//250
f 377//411 297//334 213//249
f 380//335 455//412 450//333
f 380//335 450//333 298//254
f 377//411 379//413 297//334
f 378//337 297//334 379//413
f 379//413 377//411 453//414
f 379//413 459//339 378//337
f 382//336 381//415 380//335
f 519//416 380//335 381//415
f 301//338 303//341 383//417
f 383//417 382//336 301//338
f 383//417 381//415 382//336
f 459//339 384//418 302//342
f 463//419 384//418 459//339
f 383//417 303//341 386//420
f 386//420 303//341 305//343
f 383//417 386//420 466//421
f 381//415 383//417 464//422
f 385//344 311//265 384//418
f 384//418 311//265 302//342
f 463//419 385//344 384//418
f 389//423 313//272 385//344
f 463//419 389//423 385//344
f 308//345 386//420 305//343
f 386//420 308//345 387//424
f 308//345 307//346 387//424
f 307//346 390//425 387//424
f 390//425 307//346 393//426
f 390//425 386//420 387//424
f 388//427 316//350 313//272
f 389//423 388//427 313//272
f 307//346 310//263 391//347
f 307//346 391//347 565//428
f 565//428 391//347 392//348
f 394//429 565//428 392//348
f 390//425 393//426 470//430
f 469//431 470//430 393//426
f 469//431 393//426 566//432
f 566//432 475//433 469//431
f 474//434 397//351 316//350
f 316//350 388//427 474//434
f 392//348 396//349 394//429
f 395//435 394//429 396//349
f 566//432 395//435 475//433
f 392//348 314//268 396//349
f 396//349 398//276 395//435
f 474//434 478//436 397//351
f 406//437 397//351 478//436
f 398//276 399//438 395//435
f 401//439 399//438 400//355
f 399//438 398//276 400//355
f 479//440 399//438 401//439
f 404//441 401//439 407//361
f 407//361 402//358 404//441
f 402//358 403//442 404//441
f 397//351 405//359 323//352
f 405//359 403//442 402//358
f 403//442 405//359 406//437
f 397//351 406//437 405//359
f 401//439 400//355 407//361
f 413//443 342//376 408//377
f 413//443 408//377 409//444
f 408//377 420//445 409//444
f 413//443 409//444 417//446
f 417//446 409//444 424//447
f 410//381 342//376 413//443
f 411//383 415//448 414//384
f 416//449 412//385 414//384
f 417//446 410//381 413//443
f 411//383 410//381 417//446
f 417//446 415//448 411//383
f 416//449 414//384 415//448
f 418//450 416//449 415//448
f 418//450 415//448 417//446
f 418//450 417//446 424//447
f 422//451 416//449 418//450
f 416//449 422//451 412//385
f 409//444 420//445 424//447
f 352//313 412//385 426//452
f 420//445 355//374 419//387
f 428//388 419//387 354//373
f 428//388 429//453 419//387
f 419//387 429//453 430//454
f 355//374 420//445 408//377
f 430//454 420//445 419//387
f 420//445 430//454 421//455
f 420//445 421//455 424//447
f 424//447 421//455 425//456
f 427//457 356//391 426//452
f 412//385 422//451 426//452
f 422//451 427//457 426//452
f 433//458 427//457 432//459
f 423//460 422//451 418//450
f 427//457 422//451 423//460
f 423//460 432//459 427//457
f 418//450 424//447 425//456
f 423//460 418//450 425//456
f 425//456 439//461 423//460
f 426//452 356//391 352//313
f 358//312 356//391 433//458
f 427//457 433//458 356//391
f 429//453 428//388 434//390
f 437//462 430//454 429//453
f 435//463 421//455 430//454
f 425//456 421//455 431//464
f 431//464 421//455 435//463
f 423//460 439//461 432//459
f 425//456 431//464 439//461
f 433//458 436//394 358//312
f 432//459 436//394 433//458
f 440//395 429//453 434//390
f 435//463 430//454 437//462
f 431//464 435//463 439//461
f 432//459 438//401 436//394
f 439//461 438//401 432//459
f 429//453 440//395 437//462
f 438//401 362//393 436//394
f 439//461 485//465 438//401
f 441//397 440//395 361//392
f 437//462 483//466 435//463
f 485//465 439//461 482//467
f 441//397 437//462 440//395
f 437//462 441//397 483//466
f 442//403 483//466 441//397
f 438//401 443//400 365//398
f 441//397 366//399 442//403
f 442//403 488//468 483//466
f 443//400 438//401 444//469
f 490//470 443//400 444//469
f 490//470 444//469 438//401
f 442//403 445//404 487//471
f 487//471 488//468 442//403
f 446//405 443//400 447//472
f 447//472 443//400 490//470
f 447//472 448//408 446//405
f 492//473 487//471 445//404
f 371//407 492//473 445//404
f 447//472 496//474 448//408
f 371//407 449//409 492//473
f 450//333 449//409 373//331
f 374//330 450//333 373//331
f 448//408 452//475 376//410
f 501//476 452//475 448//408
f 295//332 450//333 374//330
f 450//333 455//412 508//477
f 450//333 508//477 503//478
f 451//479 453//414 452//475
f 452//475 453//414 376//410
f 453//414 377//411 376//410
f 452//475 501//476 451//479
f 455//412 519//416 508//477
f 454//480 453//414 513//481
f 513//481 453//414 451//479
f 513//481 515//482 454//480
f 451//479 507//483 513//481
f 453//414 456//484 379//413
f 457//485 459//339 379//413
f 454//480 456//484 453//414
f 379//413 456//484 457//485
f 460//486 459//339 457//485
f 458//487 457//485 456//484
f 456//484 454//480 458//487
f 454//480 515//482 458//487
f 458//487 461//488 457//485
f 455//412 380//335 519//416
f 460//486 463//419 459//339
f 457//485 461//488 460//486
f 461//488 520//489 460//486
f 462//490 519//416 381//415
f 466//421 464//422 383//417
f 462//490 381//415 464//422
f 467//491 526//492 464//422
f 466//421 467//491 464//422
f 465//493 389//423 463//419
f 465//493 388//427 389//423
f 390//425 470//430 386//420
f 466//421 386//420 470//430
f 472//494 466//421 470//430
f 466//421 472//494 467//491
f 388//427 468//495 474//434
f 468//495 388//427 465//493
f 474//434 468//495 539//496
f 475//433 470//430 469//431
f 471//497 470//430 475//433
f 471//497 475//433 473//498
f 471//497 473//498 541//499
f 472//494 470//430 471//497
f 472//494 471//497 541//499
f 539//496 478//436 474//434
f 540//500 478//436 539//496
f 476//501 475//433 395//435
f 475//433 476//501 473//498
f 479//440 473//498 476//501
f 477//502 543//503 479//440
f 481//504 545//505 477//502
f 544//506 477//502 545//505
f 403//442 406//437 480//507
f 406//437 478//436 480//507
f 480//507 478//436 546//508
f 546//508 481//504 480//507
f 481//504 546//508 545//505
f 399//438 476//501 395//435
f 476//501 399//438 479//440
f 479//440 401//439 477//502
f 481//504 401//439 404//441
f 481//504 477//502 401//439
f 480//507 481//504 404//441
f 403//442 480//507 404//441
f 482//467 439//461 435//463
f 435//463 483//466 484//509
f 435//463 484//509 482//467
f 485//465 482//467 484//509
f 484//509 483//466 486//510
f 486//510 483//466 488//468
f 486//510 547//511 484//509
f 487//471 492//473 488//468
f 485//465 484//509 489//512
f 484//509 547//511 489//512
f 438//401 485//465 490//470
f 485//465 491//513 490//470
f 488//468 492//473 548//514
f 488//468 548//514 486//510
f 490//470 493//515 447//472
f 493//515 490//470 491//513
f 489//512 495//516 491//513
f 485//465 489//512 491//513
f 496//474 447//472 493//515
f 495//516 493//515 491//513
f 449//409 497//517 492//473
f 492//473 497//517 548//514
f 499//518 495//516 550//519
f 495//516 499//518 502//520
f 502//520 501//476 496//474
f 496//474 493//515 494//521
f 502//520 496//474 494//521
f 502//520 494//521 495//516
f 495//516 494//521 493//515
f 497//517 504//522 498//523
f 496//474 501//476 448//408
f 497//517 449//409 503//478
f 503//478 449//409 450//333
f 497//517 503//478 504//522
f 504//522 505//524 500//525
f 498//523 504//522 500//525
f 506//526 502//520 499//518
f 499//518 505//524 506//526
f 499//518 500//525 505//524
f 501//476 502//520 451//479
f 506//526 451//479 502//520
f 504//522 503//478 509//527
f 511//528 505//524 504//522
f 505//524 507//483 506//526
f 512//529 507//483 505//524
f 506//526 507//483 451//479
f 503//478 508//477 509//527
f 509//527 510//530 504//522
f 509//527 551//531 510//530
f 511//528 504//522 510//530
f 505//524 511//528 512//529
f 507//483 512//529 514//532
f 511//528 552//533 512//529
f 512//529 552//533 555//534
f 514//532 513//481 507//483
f 508//477 519//416 509//527
f 551//531 509//527 519//416
f 519//416 558//535 551//531
f 555//534 518//536 512//529
f 514//532 512//529 518//536
f 458//487 515//482 461//488
f 461//488 515//482 517//537
f 520//489 461//488 517//537
f 516//538 515//482 513//481
f 513//481 514//532 516//538
f 516//538 517//537 515//482
f 516//538 518//536 517//537
f 517//537 518//536 557//539
f 514//532 518//536 516//538
f 519//416 521//540 558//535
f 522//541 520//489 517//537
f 517//537 557//539 525//542
f 520//489 463//419 460//486
f 521//540 519//416 462//490
f 462//490 527//543 521//540
f 521//540 528//544 558//535
f 520//489 522//541 463//419
f 522//541 523//545 463//419
f 522//541 524//546 523//545
f 522//541 517//537 525//542
f 524//546 522//541 525//542
f 524//546 525//542 562//547
f 464//422 526//492 462//490
f 462//490 526//492 527//543
f 526//492 467//491 534//548
f 534//548 527//543 526//492
f 528//544 527//543 529//549
f 527//543 534//548 529//549
f 521//540 527//543 528//544
f 528//544 529//549 530//550
f 528//544 530//550 558//535
f 531//551 524//546 562//547
f 531//551 562//547 532//552
f 538//553 540//500 532//552
f 463//419 523//545 465//493
f 523//545 533//554 465//493
f 533//554 523//545 524//546
f 531//551 533//554 524//546
f 467//491 472//494 534//548
f 542//555 534//548 472//494
f 534//548 542//555 535//556
f 529//549 534//548 535//556
f 535//556 544//506 536//557
f 530//550 529//549 535//556
f 535//556 536//557 530//550
f 537//558 536//557 544//506
f 537//558 544//506 545//505
f 563//559 536//557 537//558
f 546//508 540//500 538//553
f 546//508 538//553 545//505
f 537//558 545//505 538//553
f 563//559 537//558 538//553
f 540//500 539//496 531//551
f 540//500 531//551 532//552
f 533//554 468//495 465//493
f 533//554 539//496 468//495
f 531//551 539//496 533//554
f 541//499 473//498 543//503
f 541//499 542//555 472//494
f 542//555 541//499 543//503
f 473//498 479//440 543//503
f 535//556 542//555 543//503
f 535//556 543//503 544//506
f 544//506 543//503 477//502
f 540//500 546//508 478//436
f 486//510 548//514 547//511
f 547//511 550//519 489//512
f 547//511 548//514 549//560
f 549//560 548//514 498//523
f 548//514 497//517 498//523
f 547//511 549//560 550//519
f 489//512 550//519 495//516
f 549//560 498//523 500//525
f 549//560 500//525 550//519
f 550//519 500//525 499//518
f 511//528 510//530 552//533
f 510//530 551//531 552//533
f 554//561 552//533 551//531
f 552//533 554//561 553//562
f 553//562 554//561 556//563
f 555//534 557//539 518//536
f 553//562 555//534 552//533
f 553//562 556//563 555//534
f 555//534 556//563 557//539
f 557//539 556//563 562//547
f 551//531 558//535 554//561
f 554//561 560//564 556//563
f 554//561 559//565 560//564
f 556//563 560//564 562//547
f 554//561 558//535 559//565
f 559//565 563//559 560//564
f 560//564 561//566 562//547
f 561//566 532//552 562//547
f 561//566 560//564 563//559
f 525//542 557//539 562//547
f 559//565 558//535 530//550
f 563//559 530//550 536//557
f 559//565 530//550 563//559
f 561//566 563//559 538//553
f 538//553 532//552 561//566
