# Blender 4.0.2
# www.blender.org
mtllib jaw_right_first_lower_molar_tooth.mtl
o jaw_right_first_lower_molar_tooth
v 0.065646 -0.031858 0.029947
v 0.065728 -0.031098 0.029942
v 0.066511 -0.031988 0.030009
v 0.066192 -0.031548 0.030054
v 0.067216 -0.030928 0.030039
v 0.067590 -0.031248 0.029936
v 0.067028 -0.030398 0.030026
v 0.067691 -0.030518 0.029946
v 0.062319 -0.038988 0.029004
v 0.062337 -0.038048 0.029096
v 0.062852 -0.038448 0.029346
v 0.063285 -0.038518 0.029342
v 0.062909 -0.038808 0.029264
v 0.062585 -0.038258 0.029266
v 0.062611 -0.038918 0.029178
v 0.062461 -0.038698 0.029179
v 0.062804 -0.039008 0.029144
v 0.063120 -0.038898 0.029155
v 0.062561 -0.037598 0.029161
v 0.063091 -0.037968 0.029376
v 0.063737 -0.037928 0.029386
v 0.064059 -0.037848 0.029317
v 0.063685 -0.038468 0.029241
v 0.064108 -0.038238 0.029068
v 0.064401 -0.036488 0.029224
v 0.064976 -0.036378 0.029194
v 0.064873 -0.034758 0.029329
v 0.065842 -0.035008 0.029228
v 0.064280 -0.033788 0.029285
v 0.066556 -0.033898 0.029427
v 0.066949 -0.033868 0.029229
v 0.065097 -0.031608 0.029719
v 0.064884 -0.031208 0.029546
v 0.067142 -0.032138 0.029861
v 0.064882 -0.029578 0.029210
v 0.065213 -0.029708 0.029505
v 0.067877 -0.031638 0.029725
v 0.068483 -0.031718 0.029359
v 0.066624 -0.029698 0.029877
v 0.068933 -0.030738 0.029506
v 0.069337 -0.031228 0.029262
v 0.065425 -0.028738 0.029364
v 0.065695 -0.028218 0.029305
v 0.065796 -0.028848 0.029535
v 0.067413 -0.029448 0.029870
v 0.068858 -0.030228 0.029597
v 0.070285 -0.030728 0.029221
v 0.065925 -0.027738 0.029108
v 0.066449 -0.028018 0.029406
v 0.067048 -0.028358 0.029593
v 0.067621 -0.027918 0.029453
v 0.068008 -0.028308 0.029591
v 0.068882 -0.028858 0.029549
v 0.070350 -0.029578 0.029311
v 0.068525 -0.027428 0.029279
v 0.069120 -0.027938 0.029339
v 0.069828 -0.028348 0.029255
v 0.069499 -0.027118 0.029251
v 0.069019 -0.026308 0.029159
v 0.069278 -0.024608 0.029152
v 0.070163 -0.025208 0.029315
v 0.069867 -0.024328 0.029227
v 0.070870 -0.025558 0.029267
v 0.070714 -0.024908 0.029281
v 0.062090 -0.038868 0.028761
v 0.062052 -0.038848 0.028630
v 0.062092 -0.038958 0.028396
v 0.062584 -0.039178 0.028959
v 0.062856 -0.039148 0.028951
v 0.062154 -0.039068 0.028730
v 0.062330 -0.039218 0.028737
v 0.062666 -0.039248 0.028642
v 0.062436 -0.039248 0.028510
v 0.062240 -0.039148 0.028422
v 0.062796 -0.039098 0.028226
v 0.062487 -0.039118 0.028171
v 0.062183 -0.038568 0.028965
v 0.062168 -0.038068 0.028861
v 0.062064 -0.038598 0.028735
v 0.062054 -0.038208 0.028432
v 0.062029 -0.038498 0.028325
v 0.062934 -0.039158 0.028628
v 0.063282 -0.038978 0.028840
v 0.063624 -0.038728 0.028250
v 0.062334 -0.037628 0.028974
v 0.062279 -0.037448 0.028727
v 0.063751 -0.038638 0.028969
v 0.064133 -0.038358 0.028827
v 0.063978 -0.038528 0.028581
v 0.062782 -0.036338 0.028785
v 0.062729 -0.035838 0.028205
v 0.063191 -0.036238 0.029019
v 0.065328 -0.036718 0.028948
v 0.065154 -0.037368 0.028631
v 0.063290 -0.033738 0.028443
v 0.066372 -0.035358 0.028697
v 0.063727 -0.033638 0.028973
v 0.067592 -0.034028 0.028644
v 0.064233 -0.031258 0.028988
v 0.064081 -0.030818 0.028639
v 0.068254 -0.032978 0.028706
v 0.068888 -0.032758 0.028205
v 0.068840 -0.032408 0.028732
v 0.069422 -0.032088 0.028808
v 0.069397 -0.032458 0.028532
v 0.069828 -0.032388 0.028528
v 0.069595 -0.032558 0.028398
v 0.069895 -0.032758 0.028264
v 0.070445 -0.032718 0.028343
v 0.064832 -0.028808 0.028845
v 0.070082 -0.031598 0.028936
v 0.071540 -0.032618 0.028194
v 0.064884 -0.028038 0.028466
v 0.065180 -0.028318 0.028999
v 0.065502 -0.027888 0.029010
v 0.071411 -0.031778 0.028660
v 0.072075 -0.032078 0.028287
v 0.065311 -0.027528 0.028524
v 0.072890 -0.030908 0.028302
v 0.072643 -0.030398 0.028527
v 0.067101 -0.026688 0.028593
v 0.067579 -0.025968 0.028472
v 0.067856 -0.026668 0.028873
v 0.071226 -0.028748 0.028947
v 0.071766 -0.028188 0.028830
v 0.068251 -0.026138 0.028887
v 0.068198 -0.024378 0.028602
v 0.071455 -0.026798 0.029099
v 0.072834 -0.027218 0.028727
v 0.073617 -0.027188 0.028488
v 0.073374 -0.026698 0.028593
v 0.073876 -0.026668 0.028407
v 0.073815 -0.026248 0.028404
v 0.068848 -0.023498 0.028664
v 0.069522 -0.023888 0.029057
v 0.070382 -0.023608 0.029020
v 0.070872 -0.024258 0.029157
v 0.071555 -0.024228 0.028982
v 0.071656 -0.024988 0.029076
v 0.072176 -0.024498 0.028777
v 0.073173 -0.025408 0.028455
v 0.069438 -0.022718 0.028490
v 0.070519 -0.022608 0.028572
v 0.070861 -0.022788 0.028638
v 0.071181 -0.023539 0.028890
v 0.071824 -0.023508 0.028643
v 0.071584 -0.022669 0.028379
v 0.062296 -0.039008 0.028094
v 0.062125 -0.038638 0.027979
v 0.062089 -0.038318 0.027976
v 0.062210 -0.038728 0.027891
v 0.062231 -0.038448 0.027661
v 0.062262 -0.038088 0.027462
v 0.062429 -0.038289 0.027336
v 0.062458 -0.038708 0.027652
v 0.062981 -0.038608 0.027369
v 0.062225 -0.037418 0.028011
v 0.062284 -0.037428 0.027515
v 0.062679 -0.036098 0.027333
v 0.065309 -0.037368 0.028026
v 0.063098 -0.033808 0.027817
v 0.066883 -0.035548 0.027650
v 0.067889 -0.034248 0.027831
v 0.063765 -0.030698 0.027959
v 0.068544 -0.033148 0.028029
v 0.069441 -0.032788 0.028042
v 0.070082 -0.033618 0.027479
v 0.070489 -0.033798 0.027478
v 0.071183 -0.033848 0.027415
v 0.071714 -0.033638 0.027406
v 0.064395 -0.028488 0.027881
v 0.072445 -0.032708 0.027684
v 0.064916 -0.027538 0.028049
v 0.072958 -0.031928 0.027796
v 0.073487 -0.031758 0.027427
v 0.073424 -0.030128 0.028170
v 0.073488 -0.030718 0.027954
v 0.073946 -0.030358 0.027658
v 0.066355 -0.025778 0.027504
v 0.073434 -0.029108 0.028189
v 0.073814 -0.029588 0.027934
v 0.074141 -0.028758 0.027850
v 0.074362 -0.027108 0.028117
v 0.074969 -0.027258 0.027579
v 0.074308 -0.026268 0.028165
v 0.074079 -0.025758 0.028208
v 0.074882 -0.026328 0.027770
v 0.075258 -0.026358 0.027409
v 0.072582 -0.023648 0.028256
v 0.073209 -0.024018 0.027928
v 0.074639 -0.025448 0.027828
v 0.074450 -0.024878 0.027756
v 0.069679 -0.021448 0.027712
v 0.070140 -0.021298 0.027692
v 0.070866 -0.022048 0.028224
v 0.070188 -0.021918 0.028148
v 0.072118 -0.022578 0.028024
v 0.073361 -0.023508 0.027572
v 0.069856 -0.021118 0.027474
v 0.070247 -0.021088 0.027484
v 0.070753 -0.021458 0.027793
v 0.071400 -0.021708 0.027794
v 0.062478 -0.037758 0.027090
v 0.062932 -0.038068 0.026865
v 0.063867 -0.038028 0.026693
v 0.062767 -0.036388 0.026708
v 0.064529 -0.037758 0.026632
v 0.065452 -0.037178 0.026921
v 0.065588 -0.036978 0.026463
v 0.062944 -0.034588 0.026999
v 0.063215 -0.032038 0.027189
v 0.067940 -0.034218 0.026990
v 0.069772 -0.035508 0.026448
v 0.070429 -0.035378 0.026605
v 0.068239 -0.033508 0.026757
v 0.069382 -0.033908 0.026645
v 0.069907 -0.034468 0.026809
v 0.071065 -0.035068 0.026615
v 0.068608 -0.033208 0.026667
v 0.069091 -0.033289 0.026918
v 0.070676 -0.034388 0.027092
v 0.063640 -0.029688 0.026910
v 0.072172 -0.033738 0.027055
v 0.072767 -0.033198 0.027041
v 0.073014 -0.033268 0.026501
v 0.064553 -0.027298 0.027051
v 0.073188 -0.032538 0.027201
v 0.074048 -0.031678 0.026686
v 0.065340 -0.026138 0.026830
v 0.074026 -0.031058 0.027217
v 0.074289 -0.030708 0.026992
v 0.065462 -0.025688 0.026670
v 0.065585 -0.024678 0.026706
v 0.074469 -0.029308 0.027346
v 0.074909 -0.028968 0.026704
v 0.066546 -0.023248 0.027266
v 0.075313 -0.027458 0.027008
v 0.066570 -0.021758 0.026871
v 0.075726 -0.026498 0.026749
v 0.066559 -0.021348 0.026673
v 0.067337 -0.021668 0.027153
v 0.068196 -0.021368 0.027079
v 0.068589 -0.021558 0.027307
v 0.075268 -0.025588 0.027369
v 0.075778 -0.025909 0.026771
v 0.075783 -0.025308 0.026708
v 0.067663 -0.020918 0.026724
v 0.069410 -0.020988 0.027139
v 0.068608 -0.021088 0.026816
v 0.074360 -0.023748 0.027269
v 0.075089 -0.024468 0.027190
v 0.075596 -0.024318 0.026642
v 0.069995 -0.020878 0.027153
v 0.069654 -0.020738 0.026802
v 0.070430 -0.020868 0.026774
v 0.070685 -0.021169 0.027425
v 0.071549 -0.021498 0.027381
v 0.072111 -0.021858 0.027398
v 0.073323 -0.022768 0.027018
v 0.074121 -0.022828 0.026712
v 0.074822 -0.023618 0.026921
v 0.075405 -0.023888 0.026632
v 0.066711 -0.039508 0.025813
v 0.066621 -0.039248 0.025667
v 0.067081 -0.039698 0.026001
v 0.067359 -0.039688 0.026044
v 0.067243 -0.039908 0.025972
v 0.067430 -0.040008 0.025903
v 0.067487 -0.039888 0.025959
v 0.067090 -0.039948 0.025883
v 0.067290 -0.040028 0.025890
v 0.067379 -0.040098 0.025814
v 0.067245 -0.040108 0.025784
v 0.066787 -0.039788 0.025775
v 0.066928 -0.040008 0.025671
v 0.067117 -0.040128 0.025670
v 0.067328 -0.040188 0.025667
v 0.067620 -0.039918 0.025890
v 0.067661 -0.040078 0.025672
v 0.062924 -0.036558 0.026378
v 0.063395 -0.036818 0.025936
v 0.063703 -0.036998 0.025836
v 0.064256 -0.037008 0.025704
v 0.066924 -0.039148 0.025861
v 0.067783 -0.039108 0.026058
v 0.067280 -0.039169 0.026006
v 0.068038 -0.039308 0.026001
v 0.068438 -0.039298 0.025786
v 0.063260 -0.035528 0.025578
v 0.064875 -0.036858 0.025588
v 0.065357 -0.036908 0.025952
v 0.067351 -0.038248 0.025722
v 0.063091 -0.034858 0.025617
v 0.068568 -0.037548 0.026005
v 0.068868 -0.037928 0.026016
v 0.069047 -0.038278 0.025868
v 0.069343 -0.038278 0.025615
v 0.066882 -0.035568 0.026057
v 0.068427 -0.036988 0.025829
v 0.067069 -0.035498 0.026447
v 0.067399 -0.034908 0.026115
v 0.067076 -0.035028 0.025671
v 0.067411 -0.034558 0.025807
v 0.069113 -0.035638 0.026034
v 0.069441 -0.036588 0.026186
v 0.070154 -0.036578 0.026137
v 0.063067 -0.032078 0.026037
v 0.071083 -0.035688 0.026060
v 0.067801 -0.033438 0.025694
v 0.068172 -0.033278 0.025930
v 0.068333 -0.033308 0.025768
v 0.069234 -0.034578 0.026215
v 0.068768 -0.033838 0.025839
v 0.063751 -0.028218 0.025926
v 0.074056 -0.032068 0.025993
v 0.065012 -0.026268 0.026408
v 0.065130 -0.025858 0.026265
v 0.074634 -0.030748 0.025938
v 0.075311 -0.028088 0.026131
v 0.065293 -0.022758 0.025897
v 0.065514 -0.022048 0.025909
v 0.065824 -0.022659 0.026555
v 0.066288 -0.021508 0.026573
v 0.065956 -0.021438 0.026130
v 0.066392 -0.021028 0.026279
v 0.066305 -0.020848 0.025935
v 0.067080 -0.020808 0.026470
v 0.066820 -0.020538 0.025836
v 0.076194 -0.025618 0.026079
v 0.076139 -0.026438 0.025832
v 0.066917 -0.020608 0.026160
v 0.067227 -0.020528 0.026164
v 0.067439 -0.020528 0.025807
v 0.067890 -0.020668 0.026480
v 0.068519 -0.020828 0.026496
v 0.067956 -0.020548 0.026153
v 0.068877 -0.020898 0.026614
v 0.068805 -0.020738 0.026208
v 0.069060 -0.020828 0.025799
v 0.069716 -0.020708 0.026467
v 0.070985 -0.021008 0.026157
v 0.070907 -0.021128 0.025771
v 0.073460 -0.022238 0.026342
v 0.073050 -0.021988 0.026316
v 0.075969 -0.023578 0.025806
v 0.071941 -0.021228 0.025833
v 0.072183 -0.021328 0.026234
v 0.072567 -0.021518 0.026220
v 0.072624 -0.021438 0.025831
v 0.073055 -0.021778 0.025963
v 0.073430 -0.021808 0.025816
v 0.073908 -0.021868 0.025818
v 0.074065 -0.022198 0.026163
v 0.074513 -0.022108 0.025836
v 0.075039 -0.022468 0.025875
v 0.075603 -0.022938 0.025776
v 0.066420 -0.039588 0.025472
v 0.066387 -0.039288 0.025350
v 0.066379 -0.039668 0.025251
v 0.066314 -0.039538 0.025250
v 0.066463 -0.039778 0.025126
v 0.066319 -0.039548 0.025127
v 0.066303 -0.039408 0.025144
v 0.066403 -0.039148 0.025079
v 0.066328 -0.039388 0.025015
v 0.066475 -0.039708 0.024919
v 0.066382 -0.039438 0.024895
v 0.066618 -0.039688 0.024688
v 0.066978 -0.040148 0.025442
v 0.066640 -0.039878 0.025448
v 0.067182 -0.040228 0.025454
v 0.066846 -0.040138 0.025032
v 0.067067 -0.040248 0.025036
v 0.066774 -0.040018 0.024805
v 0.067208 -0.040218 0.024775
v 0.067003 -0.040118 0.024678
v 0.067420 -0.040238 0.025437
v 0.067949 -0.039988 0.025291
v 0.067422 -0.040238 0.025023
v 0.067674 -0.040088 0.024688
v 0.068607 -0.039368 0.025421
v 0.063655 -0.036108 0.025480
v 0.064061 -0.036458 0.025423
v 0.067337 -0.037698 0.025261
v 0.068873 -0.039188 0.024677
v 0.063258 -0.034598 0.025116
v 0.063684 -0.034948 0.024825
v 0.064189 -0.035848 0.024973
v 0.065212 -0.036228 0.025090
v 0.064881 -0.036138 0.024977
v 0.065724 -0.036198 0.025418
v 0.063291 -0.033948 0.024756
v 0.067939 -0.036608 0.025052
v 0.070275 -0.037458 0.025076
v 0.063080 -0.032438 0.024966
v 0.068679 -0.035208 0.025540
v 0.068715 -0.034538 0.025515
v 0.068388 -0.035098 0.024916
v 0.067578 -0.033458 0.025193
v 0.067711 -0.033258 0.025136
v 0.067883 -0.033198 0.025131
v 0.067982 -0.033218 0.024986
v 0.067508 -0.033168 0.024733
v 0.068268 -0.033648 0.024743
v 0.068148 -0.033398 0.024807
v 0.063454 -0.029118 0.025571
v 0.063884 -0.027378 0.024979
v 0.064188 -0.026938 0.025458
v 0.064542 -0.026358 0.025411
v 0.064530 -0.025868 0.024904
v 0.064946 -0.024128 0.025628
v 0.074983 -0.029578 0.025278
v 0.075419 -0.027898 0.024777
v 0.065152 -0.022158 0.025238
v 0.065494 -0.021448 0.025314
v 0.065524 -0.021278 0.025065
v 0.065911 -0.021038 0.025604
v 0.066665 -0.020578 0.025465
v 0.066215 -0.020718 0.025388
v 0.076457 -0.025928 0.025377
v 0.076748 -0.024898 0.024919
v 0.072494 -0.021778 0.024782
v 0.076376 -0.024378 0.025572
v 0.073044 -0.021628 0.025640
v 0.072841 -0.021558 0.025293
v 0.073960 -0.021748 0.025191
v 0.074609 -0.021998 0.025458
v 0.075435 -0.022448 0.025439
v 0.066620 -0.039248 0.024480
v 0.066952 -0.039928 0.024491
v 0.066942 -0.039728 0.024349
v 0.067206 -0.039918 0.024275
v 0.067185 -0.039728 0.024144
v 0.067389 -0.039818 0.024110
v 0.067034 -0.039518 0.024165
v 0.067313 -0.039478 0.023968
v 0.067498 -0.040039 0.024373
v 0.067779 -0.039868 0.024250
v 0.067642 -0.039808 0.024093
v 0.066664 -0.038708 0.024475
v 0.066930 -0.038898 0.024114
v 0.067705 -0.039428 0.023812
v 0.068447 -0.039448 0.024290
v 0.067103 -0.037618 0.024616
v 0.069054 -0.038718 0.023814
v 0.065426 -0.035718 0.024497
v 0.065158 -0.035488 0.024321
v 0.067517 -0.036808 0.024305
v 0.070071 -0.037848 0.024014
v 0.064735 -0.035108 0.024224
v 0.065764 -0.035608 0.024554
v 0.070035 -0.037948 0.024451
v 0.067857 -0.035728 0.024002
v 0.063259 -0.032328 0.024378
v 0.068345 -0.034288 0.024595
v 0.068153 -0.034358 0.023878
v 0.071331 -0.036278 0.024339
v 0.063314 -0.031168 0.024498
v 0.063491 -0.031258 0.023889
v 0.067063 -0.033238 0.024005
v 0.067204 -0.032988 0.023924
v 0.067579 -0.033068 0.024663
v 0.067707 -0.033038 0.024641
v 0.067727 -0.033038 0.024129
v 0.067407 -0.032908 0.023919
v 0.067523 -0.032928 0.023922
v 0.067980 -0.033438 0.023903
v 0.063703 -0.027848 0.024323
v 0.064244 -0.026658 0.024796
v 0.074474 -0.031418 0.024399
v 0.074900 -0.029458 0.023969
v 0.064756 -0.023188 0.024793
v 0.065171 -0.021768 0.024813
v 0.065046 -0.021928 0.023993
v 0.065338 -0.021428 0.024592
v 0.065755 -0.021028 0.024673
v 0.076167 -0.026828 0.024657
v 0.066125 -0.020848 0.024743
v 0.066132 -0.020868 0.024229
v 0.066285 -0.020848 0.024205
v 0.066807 -0.020858 0.024514
v 0.076491 -0.026238 0.024435
v 0.069146 -0.021398 0.024732
v 0.076861 -0.025198 0.024262
v 0.071485 -0.021718 0.024822
v 0.076925 -0.023918 0.024505
v 0.073960 -0.021808 0.024746
v 0.074891 -0.022148 0.024301
v 0.076231 -0.022558 0.024260
v 0.076802 -0.023498 0.024576
v 0.076811 -0.023098 0.024231
v 0.077072 -0.023928 0.024054
v 0.068250 -0.039108 0.023633
v 0.067375 -0.037058 0.023789
v 0.067608 -0.037258 0.023351
v 0.068730 -0.038108 0.023059
v 0.069384 -0.037828 0.023018
v 0.064536 -0.034198 0.023606
v 0.065143 -0.034618 0.023634
v 0.065489 -0.034708 0.023638
v 0.064092 -0.033798 0.023697
v 0.064637 -0.033408 0.023125
v 0.064983 -0.033988 0.023270
v 0.065421 -0.034078 0.023230
v 0.066258 -0.034428 0.023641
v 0.065952 -0.034428 0.023473
v 0.067787 -0.035438 0.023254
v 0.066559 -0.033618 0.023360
v 0.068065 -0.034808 0.023817
v 0.067927 -0.034618 0.023080
v 0.071313 -0.036248 0.023036
v 0.071707 -0.035818 0.023639
v 0.067085 -0.032908 0.023300
v 0.067182 -0.032878 0.023284
v 0.066846 -0.033028 0.023161
v 0.066990 -0.032858 0.023049
v 0.067168 -0.032838 0.023020
v 0.067405 -0.032888 0.023682
v 0.067392 -0.032928 0.023297
v 0.067557 -0.033128 0.023141
v 0.068077 -0.033828 0.023696
v 0.063745 -0.029018 0.023207
v 0.063618 -0.028658 0.023811
v 0.063796 -0.028308 0.023195
v 0.063833 -0.027728 0.023546
v 0.073943 -0.032258 0.023187
v 0.064162 -0.026618 0.023870
v 0.064122 -0.026938 0.023410
v 0.074492 -0.030968 0.023382
v 0.074660 -0.029728 0.023182
v 0.064517 -0.023378 0.023920
v 0.075247 -0.028008 0.023480
v 0.065768 -0.021098 0.023580
v 0.076136 -0.026668 0.023446
v 0.066160 -0.020838 0.023895
v 0.066484 -0.020878 0.023869
v 0.065994 -0.020918 0.023583
v 0.066267 -0.020868 0.023542
v 0.066087 -0.020998 0.023194
v 0.066580 -0.021048 0.023236
v 0.068408 -0.021698 0.023614
v 0.068474 -0.021838 0.023161
v 0.069328 -0.022158 0.023500
v 0.069874 -0.022318 0.023546
v 0.070549 -0.022648 0.023442
v 0.070028 -0.022608 0.023157
v 0.076457 -0.026038 0.023146
v 0.070303 -0.022268 0.023793
v 0.076846 -0.025338 0.023768
v 0.077041 -0.024548 0.023408
v 0.076402 -0.022568 0.023831
v 0.076322 -0.022669 0.023178
v 0.076942 -0.023058 0.023833
v 0.076713 -0.022778 0.023835
v 0.077069 -0.023338 0.023524
v 0.076940 -0.023038 0.023492
v 0.077068 -0.023458 0.023171
v 0.076656 -0.022828 0.023149
v 0.077080 -0.023578 0.023956
v 0.077140 -0.023758 0.023500
v 0.068306 -0.037728 0.022939
v 0.067906 -0.035898 0.022609
v 0.068685 -0.036958 0.022352
v 0.069195 -0.036998 0.022295
v 0.067887 -0.034169 0.022664
v 0.067884 -0.034578 0.022472
v 0.067793 -0.033838 0.022218
v 0.071165 -0.036188 0.022629
v 0.064232 -0.031818 0.022771
v 0.064572 -0.032068 0.022565
v 0.065338 -0.032588 0.022457
v 0.065795 -0.032748 0.022479
v 0.066436 -0.032938 0.022770
v 0.066649 -0.032688 0.022594
v 0.067035 -0.032608 0.022293
v 0.067294 -0.032878 0.022923
v 0.067786 -0.033738 0.022691
v 0.067387 -0.032958 0.022544
v 0.071807 -0.035428 0.022562
v 0.071624 -0.035298 0.022083
v 0.064029 -0.029888 0.022637
v 0.064105 -0.028278 0.022478
v 0.073436 -0.032788 0.022422
v 0.064228 -0.026378 0.022936
v 0.064332 -0.026818 0.022489
v 0.074032 -0.031718 0.022610
v 0.074155 -0.031068 0.022428
v 0.064269 -0.024218 0.022591
v 0.064241 -0.025018 0.022317
v 0.074252 -0.029688 0.022147
v 0.064541 -0.023028 0.022884
v 0.065995 -0.021378 0.022537
v 0.066296 -0.021258 0.022573
v 0.065650 -0.021638 0.022489
v 0.066673 -0.021348 0.022575
v 0.069568 -0.022328 0.023079
v 0.070275 -0.023028 0.022852
v 0.069777 -0.022568 0.022829
v 0.070243 -0.023148 0.022530
v 0.069976 -0.022938 0.022526
v 0.070229 -0.023128 0.022407
v 0.070491 -0.023118 0.022867
v 0.070672 -0.023098 0.022926
v 0.070529 -0.023278 0.022528
v 0.070891 -0.023178 0.022620
v 0.070417 -0.023248 0.022414
v 0.072185 -0.022908 0.022835
v 0.076781 -0.025048 0.022688
v 0.077005 -0.024068 0.022843
v 0.076859 -0.023158 0.022846
v 0.076871 -0.023628 0.022558
v 0.068018 -0.034978 0.022047
v 0.068295 -0.035578 0.021936
v 0.069879 -0.036128 0.021812
v 0.071019 -0.035508 0.021793
v 0.065326 -0.031608 0.021746
v 0.066112 -0.032248 0.021975
v 0.067825 -0.033328 0.021477
v 0.064325 -0.030568 0.022257
v 0.064644 -0.031128 0.022029
v 0.064738 -0.030428 0.021691
v 0.065218 -0.030538 0.021367
v 0.066461 -0.031888 0.021418
v 0.066760 -0.032228 0.021685
v 0.067204 -0.032378 0.021543
v 0.067050 -0.032088 0.021321
v 0.064579 -0.029968 0.021789
v 0.065018 -0.029838 0.021354
v 0.064473 -0.028498 0.021949
v 0.064584 -0.027268 0.021994
v 0.073018 -0.032578 0.021376
v 0.073602 -0.032088 0.021949
v 0.064613 -0.026648 0.021843
v 0.073809 -0.031368 0.021847
v 0.073805 -0.030808 0.021618
v 0.064344 -0.024098 0.021776
v 0.064534 -0.023458 0.021531
v 0.065965 -0.021468 0.022221
v 0.066187 -0.021358 0.022239
v 0.066334 -0.021288 0.021983
v 0.066091 -0.021408 0.021873
v 0.065765 -0.021748 0.021590
v 0.066394 -0.021318 0.022240
v 0.075566 -0.026918 0.021834
v 0.066707 -0.021338 0.022222
v 0.067865 -0.021458 0.022040
v 0.068947 -0.021898 0.021879
v 0.069280 -0.022268 0.022235
v 0.068990 -0.022028 0.022300
v 0.069734 -0.022688 0.022183
v 0.070550 -0.023198 0.022089
v 0.071004 -0.023228 0.022098
v 0.076036 -0.025928 0.021435
v 0.072194 -0.023068 0.022127
v 0.073338 -0.023028 0.021455
v 0.076422 -0.024718 0.021702
v 0.076319 -0.025128 0.021539
v 0.073982 -0.023058 0.022070
v 0.075805 -0.022898 0.022200
v 0.076204 -0.022988 0.022048
v 0.075849 -0.023008 0.021555
v 0.076167 -0.023158 0.021611
v 0.068982 -0.033768 0.020676
v 0.069666 -0.034678 0.020919
v 0.070234 -0.034358 0.020782
v 0.067285 -0.032158 0.021190
v 0.067117 -0.031789 0.021044
v 0.067441 -0.032058 0.020973
v 0.067713 -0.032358 0.020888
v 0.068062 -0.032018 0.020490
v 0.068212 -0.033108 0.020896
v 0.069569 -0.033668 0.020450
v 0.065260 -0.029938 0.021189
v 0.067583 -0.031568 0.020631
v 0.067077 -0.031098 0.020711
v 0.067695 -0.030828 0.020372
v 0.071588 -0.033648 0.020844
v 0.065445 -0.029428 0.021041
v 0.065987 -0.029688 0.020797
v 0.072284 -0.033108 0.020929
v 0.065793 -0.028528 0.020842
v 0.073232 -0.031878 0.021141
v 0.072837 -0.032158 0.020795
v 0.072472 -0.032128 0.020517
v 0.065334 -0.027598 0.021133
v 0.065289 -0.027088 0.021021
v 0.065972 -0.027588 0.020582
v 0.073184 -0.031268 0.020798
v 0.064549 -0.025398 0.021238
v 0.064933 -0.025628 0.020561
v 0.073244 -0.030638 0.020708
v 0.064799 -0.024998 0.020520
v 0.073353 -0.029778 0.020753
v 0.073463 -0.029028 0.020582
v 0.064592 -0.024208 0.020897
v 0.064843 -0.023568 0.020598
v 0.064897 -0.022808 0.021350
v 0.074301 -0.027968 0.020794
v 0.065865 -0.021938 0.020705
v 0.066308 -0.021169 0.021224
v 0.067070 -0.020818 0.021229
v 0.066643 -0.020888 0.021176
v 0.066814 -0.020788 0.020912
v 0.066706 -0.020868 0.020779
v 0.069599 -0.022278 0.021307
v 0.068944 -0.021348 0.020939
v 0.072235 -0.022778 0.020587
v 0.076244 -0.024768 0.021187
v 0.076206 -0.025178 0.021176
v 0.073124 -0.022618 0.020546
v 0.073794 -0.022678 0.020581
v 0.075139 -0.023118 0.020930
v 0.074773 -0.022958 0.020564
v 0.075470 -0.023068 0.021251
v 0.075943 -0.023548 0.020899
v 0.075700 -0.023248 0.020931
v 0.075928 -0.023498 0.020526
v 0.075701 -0.023258 0.020574
v 0.076143 -0.023718 0.021281
v 0.076067 -0.023988 0.020885
v 0.069044 -0.032758 0.020277
v 0.069603 -0.033058 0.020203
v 0.069948 -0.033388 0.020300
v 0.069473 -0.031818 0.019900
v 0.070326 -0.032638 0.020074
v 0.069884 -0.032368 0.019947
v 0.069575 -0.030848 0.019694
v 0.070107 -0.031438 0.019720
v 0.066938 -0.028458 0.020321
v 0.068753 -0.029498 0.019778
v 0.069956 -0.030268 0.019558
v 0.072038 -0.031108 0.019985
v 0.071340 -0.031188 0.019809
v 0.066724 -0.027768 0.020144
v 0.067951 -0.028108 0.019805
v 0.069857 -0.029498 0.019547
v 0.070580 -0.029578 0.019567
v 0.070727 -0.030328 0.019588
v 0.071772 -0.030568 0.019805
v 0.072631 -0.031308 0.020314
v 0.072777 -0.030518 0.020257
v 0.065568 -0.025858 0.019883
v 0.066253 -0.026948 0.019924
v 0.071525 -0.029658 0.019747
v 0.071922 -0.029038 0.019673
v 0.072474 -0.029468 0.020043
v 0.065195 -0.024548 0.019898
v 0.065383 -0.025298 0.019818
v 0.072878 -0.029088 0.020142
v 0.072958 -0.029518 0.020318
v 0.064863 -0.023978 0.020401
v 0.073540 -0.028078 0.019861
v 0.065242 -0.023058 0.020272
v 0.065292 -0.023418 0.019929
v 0.065932 -0.022288 0.019951
v 0.075133 -0.026808 0.020357
v 0.074707 -0.027148 0.020072
v 0.074963 -0.026668 0.019852
v 0.074550 -0.026878 0.019600
v 0.066522 -0.021208 0.020320
v 0.066695 -0.021258 0.019934
v 0.067235 -0.020818 0.019942
v 0.069484 -0.022038 0.020483
v 0.069619 -0.022158 0.020173
v 0.069342 -0.021898 0.020124
v 0.070580 -0.022659 0.020385
v 0.071012 -0.022718 0.020422
v 0.075603 -0.025738 0.020002
v 0.067443 -0.020638 0.020310
v 0.068364 -0.020758 0.020334
v 0.068032 -0.020628 0.020193
v 0.067834 -0.020618 0.019944
v 0.068182 -0.020658 0.019954
v 0.068049 -0.020688 0.019813
v 0.068360 -0.020858 0.019811
v 0.068798 -0.021038 0.020245
v 0.071426 -0.022568 0.019635
v 0.071867 -0.022548 0.019825
v 0.076083 -0.024658 0.020316
v 0.074026 -0.022288 0.019934
v 0.075665 -0.023058 0.019896
v 0.069768 -0.028438 0.019306
v 0.065599 -0.024698 0.019451
v 0.066262 -0.025798 0.019252
v 0.066893 -0.026248 0.019084
v 0.067623 -0.026108 0.018685
v 0.067717 -0.026748 0.018985
v 0.071011 -0.028428 0.019177
v 0.065475 -0.023908 0.019578
v 0.065974 -0.024958 0.019176
v 0.066182 -0.024278 0.018958
v 0.066565 -0.025208 0.018849
v 0.065691 -0.023208 0.019579
v 0.066029 -0.023428 0.019216
v 0.066593 -0.023598 0.018844
v 0.073249 -0.027078 0.018889
v 0.066774 -0.021988 0.019335
v 0.068025 -0.022358 0.018735
v 0.074336 -0.026048 0.018837
v 0.066926 -0.021348 0.019611
v 0.067568 -0.020938 0.019566
v 0.067989 -0.021048 0.019408
v 0.067697 -0.021408 0.019186
v 0.067495 -0.021778 0.019081
v 0.068918 -0.021768 0.019341
v 0.068336 -0.021558 0.019101
v 0.068854 -0.022018 0.018939
v 0.068474 -0.022158 0.018760
v 0.069632 -0.022238 0.019200
v 0.069467 -0.022268 0.018935
v 0.070247 -0.022758 0.018962
v 0.070796 -0.022798 0.018971
v 0.075666 -0.025088 0.019523
v 0.075212 -0.025458 0.019144
v 0.072501 -0.022258 0.019014
v 0.073362 -0.022068 0.019648
v 0.072962 -0.022158 0.019508
v 0.073419 -0.021928 0.019264
v 0.073408 -0.021928 0.018924
v 0.075882 -0.023408 0.019646
v 0.075738 -0.023148 0.019259
v 0.075841 -0.023628 0.019208
v 0.075650 -0.023268 0.018913
v 0.075657 -0.023928 0.018860
v 0.075676 -0.023508 0.018813
v 0.073774 -0.021978 0.019472
v 0.073817 -0.021918 0.018950
v 0.074185 -0.022058 0.019281
v 0.074414 -0.022138 0.018838
v 0.074976 -0.022448 0.018953
v 0.075260 -0.022718 0.018852
v 0.068616 -0.026758 0.018657
v 0.066890 -0.024608 0.018600
v 0.067162 -0.025488 0.018643
v 0.067914 -0.025628 0.018432
v 0.067621 -0.024948 0.018388
v 0.068726 -0.026278 0.018403
v 0.069721 -0.026728 0.018353
v 0.067964 -0.024028 0.018319
v 0.070349 -0.025868 0.017897
v 0.071193 -0.026618 0.018136
v 0.072514 -0.026988 0.018532
v 0.069897 -0.024008 0.018072
v 0.073149 -0.026078 0.018239
v 0.068678 -0.023008 0.018443
v 0.069794 -0.023078 0.018455
v 0.070145 -0.023328 0.018331
v 0.072793 -0.025478 0.017929
v 0.069959 -0.022888 0.018612
v 0.069549 -0.022708 0.018599
v 0.070294 -0.023008 0.018609
v 0.070786 -0.023048 0.018456
v 0.071106 -0.023508 0.018038
v 0.074774 -0.024998 0.018492
v 0.071525 -0.022638 0.018506
v 0.072043 -0.022398 0.018643
v 0.071889 -0.022768 0.018223
v 0.072148 -0.023158 0.018032
v 0.074243 -0.023748 0.018085
v 0.075282 -0.024668 0.018707
v 0.074730 -0.024448 0.018274
v 0.072876 -0.022218 0.018517
v 0.073649 -0.022118 0.018523
v 0.073174 -0.022388 0.018296
v 0.073986 -0.022288 0.018399
v 0.073794 -0.022578 0.018237
v 0.075136 -0.022888 0.018536
v 0.074940 -0.023288 0.018298
v 0.074548 -0.022598 0.018353
v 0.074234 -0.023018 0.018183
v 0.075443 -0.023938 0.018589
v 0.075507 -0.023578 0.018596
v 0.075466 -0.023398 0.018600
v 0.075300 -0.023728 0.018441
v 0.074081 -0.022108 0.018620
v 0.074674 -0.022358 0.018615
v 0.070028 -0.025138 0.017842
v 0.070632 -0.025438 0.017757
v 0.071171 -0.025728 0.017787
v 0.071145 -0.024898 0.017738
v 0.071902 -0.025508 0.017785
v 0.072277 -0.024308 0.017819
v 0.072548 -0.024888 0.017805
v 0.062330 -0.039218 0.028737
v 0.068608 -0.033208 0.026667
v 0.068172 -0.033278 0.025930
v 0.068333 -0.033308 0.025768
v 0.067883 -0.033198 0.025131
v 0.075700 -0.023248 0.020931
vn -0.4634 0.0530 0.8846
vn -0.3685 -0.0157 0.9295
vn -0.2408 -0.0718 0.9679
vn -0.0703 -0.1121 0.9912
vn -0.2782 0.1102 0.9542
vn -0.0855 -0.0279 0.9959
vn 0.0508 -0.1823 0.9819
vn 0.2968 -0.2923 0.9091
vn 0.2775 -0.2781 0.9196
vn 0.2730 -0.1483 0.9505
vn -0.1288 0.1907 0.9732
vn 0.1171 -0.0246 0.9928
vn 0.0001 0.1057 0.9944
vn 0.3985 -0.2955 0.8683
vn 0.2183 0.0265 0.9755
vn -0.2559 -0.4243 0.8686
vn -0.1182 -0.8433 0.5242
vn 0.0519 -0.6579 0.7513
vn -0.5633 -0.4388 0.7001
vn 0.2620 -0.8879 0.3781
vn -0.6703 0.1077 0.7342
vn -0.4778 -0.1467 0.8662
vn -0.4074 0.0341 0.9126
vn -0.4621 0.2320 0.8560
vn -0.7752 -0.0330 0.6309
vn -0.7745 0.2647 0.5745
vn -0.9066 0.1578 0.3914
vn -0.1683 -0.1019 0.9805
vn 0.0148 -0.4059 0.9138
vn 0.1378 -0.3032 0.9429
vn -0.1319 0.0811 0.9879
vn 0.3268 -0.6819 0.6544
vn 0.4168 -0.5042 0.7564
vn -0.7354 0.3022 0.6066
vn 0.1221 -0.0793 0.9893
vn -0.0427 0.0574 0.9974
vn -0.3468 0.1526 0.9254
vn 0.2395 -0.1374 0.9611
vn 0.3943 -0.2492 0.8845
vn 0.6019 -0.3612 0.7122
vn 0.6116 -0.5424 0.5759
vn 0.5557 -0.7561 0.3457
vn 0.6654 -0.7047 0.2463
vn -0.6428 0.1366 0.7537
vn -0.5548 0.1252 0.8225
vn -0.7324 0.1643 0.6608
vn -0.8243 0.2206 0.5214
vn 0.3326 -0.3532 0.8744
vn 0.4905 -0.4107 0.7686
vn -0.6859 0.2193 0.6939
vn 0.6142 -0.5213 0.5925
vn 0.6486 -0.5001 0.5738
vn -0.4785 0.1850 0.8584
vn 0.4054 -0.3974 0.8232
vn -0.2502 0.2405 0.9378
vn 0.2823 -0.1981 0.9387
vn 0.2371 -0.3441 0.9085
vn 0.2125 -0.5251 0.8241
vn -0.4831 0.2744 0.8315
vn -0.6372 0.3672 0.6776
vn 0.0529 0.1728 0.9835
vn 0.2551 -0.0445 0.9659
vn 0.2366 -0.2002 0.9508
vn -0.1481 0.4241 0.8934
vn -0.3583 0.3808 0.8524
vn -0.2909 0.5709 0.7678
vn -0.0764 0.2953 0.9524
vn 0.1901 0.1217 0.9742
vn 0.0693 0.2471 0.9665
vn -0.4931 0.5208 0.6969
vn -0.0628 0.4054 0.9120
vn -0.0408 0.2578 0.9653
vn -0.3090 0.5198 0.7964
vn 0.1271 0.1410 0.9818
vn 0.2574 0.0244 0.9660
vn 0.2788 0.0303 0.9599
vn 0.1907 0.0755 0.9787
vn -0.3124 0.3453 0.8850
vn 0.0221 0.0378 0.9990
vn -0.2035 0.0889 0.9750
vn 0.1930 -0.0669 0.9789
vn -0.0410 0.0234 0.9989
vn 0.1447 -0.0263 0.9891
vn 0.2994 0.0873 0.9501
vn -0.2913 0.1320 0.9475
vn -0.0802 0.1823 0.9800
vn 0.1497 0.2088 0.9664
vn 0.0118 0.3472 0.9377
vn 0.1183 0.0857 0.9893
vn 0.2636 -0.1047 0.9589
vn -0.8833 -0.2131 0.4175
vn -0.9572 0.0257 0.2884
vn -0.7778 -0.5631 0.2791
vn -0.9757 -0.1967 0.0962
vn -0.5698 -0.7871 -0.2361
vn -0.8822 -0.4286 -0.1951
vn -0.9968 -0.0222 -0.0762
vn -0.9071 -0.2461 -0.3416
vn -0.7037 -0.4795 -0.5243
vn -0.4922 -0.7084 -0.5059
vn -0.4910 -0.6699 0.5569
vn -0.3242 -0.9434 0.0702
vn 0.1527 -0.9882 -0.0119
vn -0.1328 -0.9760 -0.1726
vn 0.3811 -0.9214 -0.0760
vn 0.4836 -0.8563 0.1812
vn 0.2516 -0.9023 -0.3500
vn -0.0867 -0.8839 -0.4595
vn -0.9159 0.2989 0.2679
vn -0.9869 0.1520 0.0544
vn -0.9721 0.0097 -0.2345
vn 0.4865 -0.8546 -0.1816
vn 0.6046 -0.7965 0.0063
vn -0.9578 0.2471 0.1468
vn -0.9706 0.2388 -0.0292
vn 0.7157 -0.5752 0.3961
vn 0.7171 -0.6936 0.0691
vn 0.6568 -0.7482 -0.0934
vn -0.8739 0.2036 0.4414
vn 0.7546 -0.6124 0.2355
vn 0.6345 -0.4710 0.6128
vn -0.8957 0.2276 0.3821
vn 0.3675 -0.8345 0.4106
vn 0.3447 -0.6270 0.6986
vn 0.7587 -0.6166 0.2102
vn -0.1652 -0.8292 0.5340
vn -0.7688 0.2806 0.5746
vn -0.8601 0.3147 0.4015
vn 0.1228 -0.7182 0.6849
vn 0.0766 -0.5459 0.8344
vn -0.0366 -0.7395 0.6722
vn -0.1519 -0.6549 0.7403
vn 0.0475 -0.5257 0.8494
vn 0.2471 -0.3336 0.9098
vn -0.7556 0.4009 0.5180
vn 0.1639 -0.4184 0.8934
vn 0.2615 -0.5070 0.8214
vn 0.3981 -0.3966 0.8272
vn -0.5566 0.5802 0.5946
vn -0.7298 0.5064 0.4592
vn 0.3700 -0.0985 0.9238
vn 0.4669 -0.2670 0.8430
vn 0.4123 -0.0889 0.9067
vn 0.6141 -0.2865 0.7354
vn 0.5391 -0.1197 0.8337
vn -0.3875 0.1784 0.9044
vn 0.2555 -0.1234 0.9589
vn -0.5015 0.2710 0.8216
vn -0.4869 0.1930 0.8519
vn 0.3724 -0.1189 0.9204
vn 0.3100 0.0241 0.9504
vn 0.5507 -0.1195 0.8261
vn -0.2184 0.3174 0.9228
vn -0.3756 0.3535 0.8567
vn 0.3565 0.1201 0.9265
vn 0.3949 0.2258 0.8906
vn 0.4189 -0.0025 0.9081
vn -0.2578 0.4748 0.8415
vn 0.2262 0.3299 0.9165
vn 0.3142 0.2196 0.9236
vn 0.4461 0.2119 0.8695
vn 0.4091 0.2078 0.8885
vn 0.4398 0.3206 0.8389
vn -0.2331 0.6190 0.7500
vn -0.0840 0.5494 0.8314
vn -0.2584 0.5986 0.7582
vn -0.0173 0.4621 0.8866
vn 0.1455 0.4280 0.8920
vn 0.3502 0.4510 0.8210
vn 0.4064 0.3324 0.8511
vn 0.5331 0.3229 0.7820
vn 0.1482 0.5475 0.8236
vn 0.5095 0.4835 0.7118
vn -0.3889 -0.6545 -0.6483
vn -0.7922 -0.3130 -0.5238
vn -0.8745 -0.0916 -0.4764
vn -0.6053 -0.4054 -0.6850
vn -0.7711 -0.1284 -0.6237
vn -0.0115 -0.7998 -0.6001
vn 0.4212 -0.8211 -0.3851
vn -0.9723 0.2064 -0.1100
vn -0.9489 0.1515 -0.2767
vn -0.9432 0.0742 -0.3237
vn 0.1211 -0.7974 -0.5912
vn -0.9717 0.1598 0.1740
vn -0.9932 0.1133 -0.0285
vn -0.9636 0.1579 0.2156
vn 0.7886 -0.5734 0.2221
vn 0.8603 -0.5053 -0.0680
vn -0.9263 0.2390 0.2912
vn 0.7866 -0.5938 -0.1692
vn -0.3927 -0.6292 0.6707
vn -0.5061 -0.7062 0.4951
vn -0.1189 -0.6094 0.7839
vn 0.1452 -0.5667 0.8110
vn -0.0570 -0.5173 0.8539
vn 0.3386 -0.5420 0.7691
vn 0.3396 -0.5606 0.7553
vn 0.4736 -0.5007 0.7246
vn 0.4927 -0.5814 0.6475
vn -0.8091 0.4670 0.3568
vn -0.9212 0.3127 0.2315
vn 0.5522 -0.4000 0.7314
vn 0.6716 -0.5023 0.5447
vn 0.8249 -0.4275 0.3698
vn 0.6783 -0.3984 0.6174
vn -0.6875 0.5123 0.5146
vn 0.7661 -0.3371 0.5472
vn 0.7206 -0.2354 0.6521
vn -0.5681 0.3738 0.7332
vn 0.5811 -0.1136 0.8059
vn 0.8602 -0.2820 0.4248
vn 0.5982 -0.1974 0.7767
vn 0.7915 -0.2282 0.5670
vn 0.7205 -0.1806 0.6696
vn 0.5110 0.0657 0.8570
vn 0.6323 0.0087 0.7747
vn 0.7474 -0.0559 0.6620
vn 0.5362 0.1979 0.8206
vn 0.6915 0.1223 0.7119
vn 0.8253 -0.0207 0.5643
vn 0.4747 0.3411 0.8114
vn 0.4098 0.4634 0.7857
vn 0.5816 0.3107 0.7518
vn -0.0568 0.6473 0.7601
vn -0.1829 0.7337 0.6544
vn -0.2732 0.7779 0.5659
vn 0.1741 0.6919 0.7007
vn 0.3588 0.6598 0.6602
vn 0.5327 0.6589 0.5311
vn 0.4660 0.4750 0.7465
vn 0.4667 0.6118 0.6386
vn 0.0869 0.8120 0.5771
vn 0.2828 0.8525 0.4397
vn 0.3969 0.8068 0.4377
vn -0.3608 -0.5350 -0.7640
vn -0.8254 -0.1082 -0.5541
vn -0.5854 -0.3047 -0.7513
vn -0.3393 -0.4739 -0.8126
vn -0.0958 -0.6226 -0.7766
vn 0.6263 -0.7404 -0.2440
vn -0.9534 -0.0829 -0.2901
vn 0.7732 -0.6291 -0.0808
vn 0.6857 -0.6301 -0.3643
vn -0.9838 0.0209 -0.1781
vn -0.9941 0.1025 0.0359
vn 0.8264 -0.4822 -0.2909
vn -0.9800 0.1834 0.0773
vn 0.0351 -0.3929 0.9189
vn -0.3501 -0.2084 0.9132
vn 0.7383 -0.5731 -0.3558
vn 0.6159 -0.7856 -0.0594
vn 0.4982 -0.8341 -0.2368
vn -0.6569 -0.4234 0.6238
vn -0.7278 -0.1311 0.6731
vn -0.4643 -0.3441 0.8161
vn -0.2407 -0.9386 0.2473
vn 0.6542 -0.5806 0.4846
vn 0.6229 -0.5694 0.5364
vn 0.7477 -0.5908 0.3033
vn -0.8556 0.4669 0.2236
vn -0.7874 0.4788 0.3882
vn 0.8507 -0.4991 0.1650
vn 0.9351 -0.3140 0.1642
vn -0.7329 0.2183 0.6443
vn 0.8998 -0.2769 0.3370
vn -0.7267 0.1090 0.6782
vn -0.5769 0.1645 0.8001
vn -0.6982 0.2016 0.6870
vn 0.8544 -0.2829 0.4358
vn 0.9335 -0.3272 0.1467
vn 0.8550 -0.1799 0.4865
vn -0.4814 0.3102 0.8197
vn -0.6260 0.3767 0.6828
vn -0.4199 0.5018 0.7562
vn -0.2669 0.4711 0.8407
vn 0.8999 -0.3349 0.2794
vn -0.2599 0.6720 0.6934
vn -0.1068 0.6466 0.7554
vn -0.0734 0.6367 0.7676
vn -0.1094 0.7547 0.6469
vn 0.7984 0.1182 0.5903
vn 0.8871 -0.0426 0.4597
vn 0.0458 0.8313 0.5540
vn 0.1330 0.8445 0.5187
vn -0.1850 0.8720 0.4533
vn 0.4853 0.4815 0.7298
vn 0.7312 0.2528 0.6336
vn 0.6292 0.3945 0.6697
vn 0.0798 0.9905 0.1117
vn -0.0585 0.9549 0.2911
vn 0.0969 0.9923 -0.0771
vn 0.0430 0.9079 0.4169
vn 0.2489 0.9552 0.1603
vn 0.3582 0.9086 0.2146
vn 0.5153 0.7882 0.3366
vn 0.5248 0.7068 0.4743
vn 0.3476 0.6103 0.7118
vn 0.2774 0.7233 0.6323
vn -0.4817 0.2625 0.8361
vn -0.6170 -0.0235 0.7866
vn -0.3492 -0.1501 0.9249
vn -0.7116 0.2972 0.6367
vn -0.8272 -0.2376 0.5092
vn -0.6130 -0.4498 0.6495
vn -0.8671 0.3177 0.3837
vn -0.6683 -0.6758 0.3110
vn -0.0012 -0.1540 0.9881
vn -0.1477 -0.4473 0.8821
vn -0.2499 0.1443 0.9575
vn 0.2147 -0.4052 0.8887
vn 0.3014 -0.2737 0.9134
vn -0.4196 -0.5725 0.7044
vn -0.1217 -0.6737 0.7289
vn 0.1333 -0.8081 0.5738
vn 0.1964 -0.6343 0.7477
vn 0.4187 -0.5641 0.7117
vn -0.2254 -0.7977 0.5594
vn 0.4630 -0.7965 0.3889
vn -0.5457 -0.6999 0.4607
vn -0.3753 -0.8202 0.4318
vn 0.0225 -0.9246 0.3802
vn -0.4878 -0.8391 0.2409
vn -0.2027 -0.9602 0.1923
vn 0.2140 -0.9684 0.1280
vn 0.5763 -0.5157 0.6340
vn 0.6952 -0.6678 0.2661
vn 0.5744 -0.8146 0.0812
vn -0.3723 -0.4648 -0.8033
vn -0.5429 -0.3592 -0.7591
vn 0.4878 -0.7270 -0.4832
vn -0.5917 0.4212 0.6874
vn -0.7287 0.4931 0.4753
vn 0.0126 -0.0121 0.9998
vn -0.2075 0.0853 0.9745
vn -0.5825 0.2562 0.7714
vn 0.1108 -0.1401 0.9839
vn -0.7494 -0.2561 -0.6106
vn -0.8155 -0.2504 -0.5218
vn 0.2080 -0.7068 -0.6762
vn -0.1012 -0.6509 -0.7524
vn 0.5281 -0.6858 -0.5008
vn 0.4566 -0.3506 0.8177
vn 0.6649 -0.5190 0.5372
vn -0.1366 -0.1055 0.9850
vn -0.5947 0.0252 0.8036
vn -0.8545 -0.1974 -0.4805
vn -0.8102 0.1300 0.5716
vn 0.3209 -0.4120 0.8528
vn 0.8248 -0.3837 -0.4153
vn 0.7263 -0.5229 -0.4462
vn 0.7628 -0.5790 0.2878
vn -0.8780 -0.0247 0.4781
vn -0.8111 -0.3691 0.4538
vn 0.7961 -0.5896 0.1366
vn 0.5271 -0.7582 -0.3838
vn 0.7943 -0.4596 -0.3973
vn 0.2965 -0.9073 -0.2981
vn -0.1634 -0.9855 0.0454
vn -0.1146 -0.9910 0.0696
vn -0.7429 -0.5960 0.3047
vn -0.8514 0.4267 0.3050
vn 0.8203 -0.5716 -0.0207
vn 0.9231 -0.3831 -0.0331
vn -0.8474 0.2495 0.4687
vn 0.9676 -0.2526 -0.0030
vn -0.9007 0.1036 0.4220
vn -0.9366 0.1874 0.2960
vn -0.8476 0.1852 0.4973
vn -0.8004 0.3152 0.5099
vn 0.9131 -0.4068 -0.0282
vn -0.7302 0.4313 0.5299
vn -0.5429 0.6131 0.5739
vn -0.5641 0.7231 0.3986
vn -0.6991 0.6358 0.3273
vn -0.3336 0.8195 0.4661
vn -0.2406 0.9634 0.1181
vn -0.4695 0.8806 0.0640
vn -0.1329 0.9809 -0.1419
vn 0.9276 -0.2507 0.2768
vn 0.9358 -0.0584 0.3476
vn -0.0985 0.9387 0.3305
vn 0.1387 0.9852 0.1007
vn 0.0812 0.9839 -0.1594
vn 0.1503 0.9353 -0.3203
vn 0.8407 0.1473 0.5211
vn 0.1769 0.9695 -0.1697
vn 0.1236 0.9113 -0.3927
vn 0.2034 0.9635 -0.1740
vn 0.4348 0.7911 0.4301
vn 0.2147 0.8656 0.4524
vn 0.1971 0.8825 0.4270
vn 0.2554 0.6945 0.6726
vn 0.7439 0.3491 0.5699
vn 0.6405 0.5049 0.5787
vn 0.4113 0.9067 0.0933
vn 0.1546 0.9612 -0.2286
vn 0.3293 0.9217 0.2052
vn 0.2365 0.9711 0.0332
vn 0.3817 0.7681 0.5141
vn 0.3819 0.8998 0.2111
vn 0.4870 0.6352 0.5995
vn -0.8184 -0.5567 0.1422
vn -0.9609 -0.1722 0.2170
vn -0.9898 0.1415 0.0155
vn -0.9340 -0.3124 -0.1734
vn -0.7576 -0.6503 -0.0561
vn -0.9092 0.4146 0.0375
vn -0.7948 -0.4722 -0.3813
vn -0.9587 0.0834 -0.2721
vn -0.8754 -0.1413 -0.4622
vn -0.8977 0.1953 -0.3950
vn -0.9466 0.2330 -0.2228
vn -0.7319 -0.3904 -0.5585
vn -0.7907 -0.1038 -0.6034
vn -0.6382 -0.4008 -0.6573
vn -0.5751 -0.5730 -0.5839
vn -0.5639 -0.8245 -0.0474
vn -0.2513 -0.9662 -0.0571
vn 0.2348 -0.9683 -0.0850
vn -0.6469 -0.6732 -0.3582
vn -0.3976 -0.8086 -0.4337
vn -0.0591 -0.9502 -0.3060
vn 0.4147 -0.8855 -0.2096
vn 0.5628 -0.7603 -0.3243
vn 0.4120 -0.7949 -0.4453
vn 0.1028 -0.8774 -0.4687
vn 0.6870 -0.7232 -0.0700
vn -0.3983 -0.4886 -0.7763
vn 0.2352 -0.7325 -0.6389
vn -0.8636 0.4733 0.1739
vn -0.8823 0.4143 0.2231
vn -0.6205 -0.3886 -0.6811
vn -0.4000 -0.5474 -0.7351
vn 0.4835 -0.6886 -0.5404
vn -0.7990 0.3728 0.4718
vn 0.7610 -0.6474 0.0416
vn -0.9152 -0.0445 -0.4005
vn -0.9055 0.1936 0.3775
vn -0.9100 0.3084 0.2771
vn -0.9750 0.0905 -0.2029
vn 0.7895 -0.4740 -0.3900
vn -0.9530 -0.0491 0.2988
vn -0.1795 -0.9666 -0.1831
vn -0.5178 -0.8552 0.0212
vn -0.2777 -0.9589 -0.0589
vn 0.6712 -0.6066 -0.4261
vn 0.3846 -0.8501 -0.3598
vn -0.6403 -0.7632 0.0869
vn -0.7752 -0.6055 0.1801
vn -0.9005 -0.3393 0.2720
vn -0.9230 0.3691 0.1091
vn -0.9676 0.2497 -0.0367
vn -0.9819 0.1108 -0.1533
vn -0.8990 0.4149 0.1399
vn 0.8732 -0.4674 -0.1383
vn -0.9667 0.2020 0.1569
vn -0.9475 0.1631 0.2749
vn -0.9003 0.2895 0.3249
vn -0.8990 0.4011 0.1756
vn -0.8162 0.4663 0.3412
vn -0.7577 0.6301 0.1698
vn -0.7957 0.6053 0.0193
vn -0.5888 0.8083 -0.0061
vn 0.8507 -0.5228 0.0547
vn -0.2696 0.9553 -0.1214
vn 0.1450 0.9604 -0.2379
vn 0.9074 -0.4188 0.0348
vn 0.9661 -0.2202 0.1348
vn 0.2149 0.8588 -0.4650
vn 0.9129 0.0828 0.3997
vn 0.0690 0.8390 -0.5398
vn 0.0080 0.8850 -0.4656
vn 0.8274 0.2999 0.4749
vn 0.1471 0.9493 -0.2780
vn 0.5646 0.7194 0.4046
vn 0.4998 0.8351 0.2298
vn 0.1895 0.9512 -0.2436
vn -0.6089 -0.2533 -0.7517
vn -0.6889 -0.0697 -0.7215
vn -0.3440 -0.6913 -0.6354
vn -0.1852 -0.6232 -0.7598
vn -0.4724 -0.4384 -0.7646
vn 0.1478 -0.7131 -0.6853
vn -0.4315 -0.3028 -0.8498
vn -0.1120 -0.4887 -0.8652
vn 0.2323 -0.6225 -0.7474
vn -0.7641 -0.1008 -0.6371
vn 0.5673 -0.7094 -0.4182
vn 0.3685 -0.6481 -0.6664
vn -0.1872 -0.6253 -0.7576
vn 0.1380 -0.7243 -0.6755
vn 0.7160 -0.6729 -0.1859
vn -0.4521 -0.4950 -0.7421
vn -0.6453 -0.3442 -0.6820
vn -0.8193 -0.1308 -0.5582
vn -0.7362 -0.2452 -0.6308
vn -0.9388 0.2079 0.2745
vn -0.9268 0.0092 -0.3754
vn 0.7085 -0.4601 -0.5351
vn -0.9667 0.0423 0.2526
vn 0.5895 -0.6463 -0.4845
vn 0.5770 -0.7588 -0.3023
vn 0.1062 -0.9799 -0.1690
vn -0.8523 -0.4788 0.2107
vn -0.3742 -0.9273 0.0040
vn -0.2110 -0.9774 0.0126
vn -0.9493 -0.2167 0.2278
vn -0.9535 0.2458 -0.1742
vn -0.9729 0.2290 0.0328
vn 0.9603 -0.2461 -0.1313
vn 0.9142 -0.3666 -0.1729
vn -0.8713 0.4887 -0.0443
vn -0.6855 0.7058 -0.1786
vn 0.8192 -0.5530 -0.1520
vn 0.7953 -0.5563 -0.2411
vn -0.2472 0.9687 0.0233
vn -0.0151 0.9999 -0.0061
vn -0.1580 0.9872 -0.0228
vn 0.9787 -0.0419 0.2012
vn -0.0166 0.9790 -0.2032
vn 0.7799 0.4857 0.3947
vn 0.4154 0.9096 -0.0102
vn 0.9586 0.1731 0.2260
vn 0.6638 0.7376 0.1239
vn 0.8604 0.4773 0.1785
vn -0.3996 -0.3800 -0.8342
vn 0.5887 -0.6561 -0.4722
vn 0.0186 -0.5317 -0.8467
vn -0.9121 -0.0498 -0.4070
vn -0.2461 -0.5722 -0.7824
vn -0.0160 -0.6072 -0.7944
vn -0.0694 -0.5089 -0.8580
vn -0.2845 -0.4780 -0.8310
vn -0.9875 0.1577 -0.0041
vn -0.4563 -0.3767 -0.8061
vn -0.2713 -0.4924 -0.8270
vn -0.0082 -0.5813 -0.8136
vn 0.2377 -0.5731 -0.7843
vn 0.5794 -0.5527 -0.5989
vn -0.9750 0.1492 0.1645
vn -0.9966 -0.0539 -0.0618
vn 0.7347 -0.6442 -0.2126
vn -0.5661 -0.3812 -0.7309
vn 0.3219 -0.6007 -0.7318
vn -0.9833 -0.0978 0.1532
vn -0.9306 -0.3383 0.1394
vn 0.7777 -0.5591 -0.2874
vn -0.9402 0.0264 -0.3395
vn -0.8726 -0.0404 -0.4867
vn 0.4061 -0.8825 -0.2374
vn 0.0304 -0.9914 -0.1271
vn -0.5047 -0.8586 0.0900
vn -0.1640 -0.9687 -0.1862
vn 0.2739 -0.8739 -0.4016
vn 0.0778 -0.8406 -0.5360
vn -0.7902 -0.5930 0.1550
vn -0.5671 -0.8217 -0.0574
vn -0.9469 0.1280 -0.2948
vn -0.9431 0.0213 -0.3317
vn -0.8673 0.0721 -0.4925
vn -0.9617 0.2407 -0.1312
vn -0.9908 -0.0140 -0.1345
vn 0.9453 -0.2573 -0.2003
vn 0.9329 -0.2061 -0.2953
vn 0.9068 -0.2071 -0.3672
vn -0.9908 0.1352 0.0027
vn -0.9302 0.3653 -0.0352
vn 0.7386 -0.5411 -0.4022
vn 0.8791 -0.2178 -0.4240
vn -0.6814 0.7029 -0.2039
vn -0.4376 0.8826 -0.1720
vn -0.2641 0.8956 -0.3581
vn 0.2243 0.9667 -0.1235
vn 0.0600 0.9733 -0.2214
vn 0.2718 0.9138 -0.3020
vn 0.3674 0.9268 -0.0785
vn 0.3382 0.8868 -0.3150
vn 0.2135 0.7862 -0.5799
vn 0.2900 0.8453 -0.4487
vn 0.3585 0.8904 -0.2803
vn 0.5176 0.8324 -0.1979
vn 0.5198 0.8513 0.0716
vn 0.4743 0.7423 -0.4732
vn 0.2286 0.7514 -0.6190
vn -0.0409 0.8620 -0.5052
vn 0.8729 -0.4548 -0.1765
vn 0.9452 -0.3235 -0.0443
vn 0.9801 -0.1868 -0.0666
vn 0.9268 -0.2683 -0.2628
vn 0.9995 0.0101 -0.0288
vn 0.9514 -0.0610 -0.3019
vn 0.2752 0.9294 -0.2458
vn 0.8248 0.5583 -0.0898
vn 0.9581 0.2864 -0.0077
vn 0.5727 0.7868 -0.2300
vn 0.9536 0.2140 -0.2117
vn 0.8903 0.1471 -0.4309
vn 0.8022 0.4916 -0.3389
vn -0.3038 -0.4513 -0.8391
vn 0.0468 -0.5614 -0.8262
vn -0.6367 -0.3171 -0.7029
vn -0.3867 -0.3727 -0.8435
vn -0.0870 -0.4690 -0.8789
vn 0.1958 -0.5614 -0.8041
vn 0.4046 -0.5711 -0.7143
vn -0.8958 -0.1929 -0.4003
vn -0.9645 -0.2501 -0.0851
vn -0.8187 -0.3680 -0.4409
vn 0.6262 -0.5537 -0.5489
vn -0.6657 -0.2788 -0.6921
vn -0.4350 -0.4550 -0.7770
vn -0.2054 -0.7263 -0.6560
vn -0.3523 -0.8670 -0.3525
vn -0.7953 -0.6017 -0.0733
vn -0.6002 -0.6584 -0.4542
vn -0.7698 -0.0473 -0.6365
vn -0.7570 0.0343 -0.6526
vn 0.8186 -0.4926 -0.2955
vn 0.7448 -0.4591 -0.4842
vn -0.8201 0.0182 -0.5720
vn 0.8910 -0.3419 -0.2989
vn 0.8314 -0.3820 -0.4035
vn 0.8598 -0.2435 -0.4489
vn -0.9904 -0.0087 -0.1381
vn 0.8561 -0.1456 -0.4960
vn -0.7302 0.6634 -0.1635
vn -0.4538 0.8408 -0.2954
vn -0.0435 0.9527 -0.3009
vn -0.4862 0.8693 -0.0888
vn -0.0139 0.9999 0.0020
vn 0.2459 0.9554 -0.1636
vn -0.5890 0.8081 0.0040
vn -0.3400 0.9367 -0.0831
vn 0.0841 0.9674 0.2387
vn 0.2695 0.9002 0.3422
vn 0.6381 0.7093 -0.2995
vn 0.6668 0.7452 0.0008
vn 0.4710 0.7480 -0.4676
vn 0.2270 0.8351 -0.5011
vn 0.6612 0.7352 -0.1494
vn 0.5277 0.8339 -0.1615
vn 0.6222 0.7617 0.1808
vn 0.5615 0.8026 0.2012
vn 0.2736 0.9209 0.2775
vn -0.1917 0.9413 -0.2778
vn -0.1036 0.9201 -0.3777
vn 0.1002 0.9808 -0.1675
vn 0.3525 0.9285 0.1172
vn -0.0638 0.9922 0.1069
vn -0.0585 0.9977 -0.0334
vn 0.9300 -0.1877 -0.3161
vn 0.8681 -0.4086 -0.2820
vn 0.9221 -0.0325 -0.3857
vn 0.0468 0.9687 -0.2436
vn 0.3775 0.8772 -0.2968
vn 0.6816 0.5799 -0.4463
vn 0.1744 -0.4642 -0.8684
vn -0.3418 -0.5975 -0.7253
vn -0.3129 -0.7954 -0.5190
vn -0.6783 -0.1898 -0.7098
vn -0.4925 -0.2671 -0.8283
vn -0.6386 -0.0460 -0.7682
vn -0.4018 -0.3146 -0.8600
vn -0.4565 -0.4624 -0.7602
vn -0.4289 -0.6417 -0.6358
vn -0.5831 -0.5545 -0.5937
vn -0.6109 -0.3997 -0.6834
vn -0.5109 -0.1500 -0.8465
vn 0.5609 -0.4673 -0.6834
vn -0.6913 -0.1153 -0.7133
vn -0.5286 -0.0551 -0.8471
vn 0.7872 -0.3176 -0.5286
vn -0.8533 -0.2067 -0.4787
vn -0.9280 -0.1392 -0.3456
vn 0.7683 -0.1516 -0.6218
vn -0.9772 0.1141 -0.1788
vn -0.9303 0.0589 -0.3619
vn -0.9242 0.3147 -0.2165
vn -0.8161 0.5213 -0.2494
vn -0.2985 0.9314 0.2082
vn -0.7128 0.6973 -0.0753
vn 0.0203 0.9346 0.3550
vn -0.4345 0.8870 0.1565
vn 0.4291 0.8848 0.1814
vn 0.5419 0.7824 0.3070
vn 0.6220 0.7265 0.2922
vn 0.6305 0.7436 0.2225
vn -0.0757 0.9496 0.3041
vn 0.0432 0.9787 0.2008
vn 0.9360 -0.2201 -0.2746
vn 0.9666 0.0137 -0.2559
vn 0.9009 0.1682 -0.4000
vn 0.1460 0.9891 0.0213
vn 0.1050 0.9543 -0.2799
vn 0.2273 0.9275 -0.2968
vn -0.5971 -0.3689 -0.7123
vn 0.0611 -0.3801 -0.9229
vn -0.1720 -0.3966 -0.9017
vn -0.5871 -0.4042 -0.7014
vn -0.4832 -0.3083 -0.8194
vn -0.4519 -0.2786 -0.8475
vn -0.3414 -0.2784 -0.8978
vn -0.1805 -0.3217 -0.9295
vn 0.1713 -0.3276 -0.9292
vn 0.3638 -0.4483 -0.8165
vn -0.5369 -0.0021 -0.8436
vn -0.3938 -0.1372 -0.9089
vn -0.3620 -0.1937 -0.9118
vn -0.2581 -0.2015 -0.9449
vn 0.4429 -0.3438 -0.8280
vn -0.2999 -0.1248 -0.9458
vn 0.6499 -0.3557 -0.6716
vn -0.5873 -0.3022 -0.7508
vn -0.3781 -0.1982 -0.9043
vn 0.7418 -0.2147 -0.6354
vn 0.5329 -0.2367 -0.8124
vn -0.7422 -0.2924 -0.6030
vn -0.4533 -0.4308 -0.7804
vn 0.5599 -0.1023 -0.8222
vn 0.7572 -0.1145 -0.6430
vn -0.8129 -0.2775 -0.5120
vn -0.8649 -0.1159 -0.4884
vn -0.6717 -0.3492 -0.6533
vn 0.5847 -0.1630 -0.7947
vn 0.6841 -0.3882 -0.6175
vn -0.8678 0.2830 -0.4084
vn -0.7812 0.4372 -0.4456
vn -0.8549 0.0979 -0.5095
vn -0.7110 0.4904 -0.5039
vn -0.7624 0.5859 -0.2748
vn 0.7684 -0.5488 -0.3294
vn -0.6990 0.6432 -0.3126
vn -0.5796 0.7931 -0.1873
vn 0.8311 -0.4034 -0.3829
vn -0.3282 0.9442 0.0276
vn -0.1861 0.9819 -0.0345
vn -0.4325 0.7982 -0.4193
vn 0.7769 0.6284 0.0388
vn 0.5589 0.8291 0.0163
vn 0.3217 0.9433 0.0815
vn 0.0136 0.9847 0.1738
vn 0.1621 0.9757 0.1477
vn 0.6903 0.7185 -0.0856
vn -0.0539 0.8814 0.4693
vn 0.1553 0.8539 0.4968
vn 0.9646 -0.0958 -0.2455
vn 0.9674 0.1737 -0.1845
vn 0.2583 0.9003 0.3504
vn 0.2349 0.8445 0.4813
vn 0.6557 0.7424 0.1374
vn 0.3631 0.8737 -0.3238
vn 0.8741 0.4317 -0.2227
vn 0.7761 0.6304 -0.0155
vn 0.5704 0.8121 0.1229
vn 0.8833 0.4676 0.0339
vn -0.0576 -0.2670 -0.9620
vn -0.0112 -0.2034 -0.9790
vn 0.2017 -0.2428 -0.9489
vn -0.2309 -0.1454 -0.9620
vn -0.0835 -0.0760 -0.9936
vn 0.1138 -0.0745 -0.9907
vn -0.0979 -0.1330 -0.9863
vn 0.2895 -0.0834 -0.9535
vn 0.3430 -0.2265 -0.9116
vn -0.5457 -0.4444 -0.7104
vn -0.3245 -0.4524 -0.8307
vn -0.3426 -0.4842 -0.8051
vn -0.1811 -0.3638 -0.9137
vn 0.0795 -0.1498 -0.9855
vn 0.2320 -0.1129 -0.9661
vn 0.4147 -0.1544 -0.8968
vn -0.7214 -0.2304 -0.6531
vn -0.4351 -0.4155 -0.7988
vn 0.2865 -0.4010 -0.8701
vn 0.4790 -0.3644 -0.7986
vn -0.7916 -0.0396 -0.6098
vn -0.6909 -0.0840 -0.7180
vn -0.5958 -0.1758 -0.7837
vn 0.5347 -0.5561 -0.6363
vn 0.3955 -0.5221 -0.7557
vn -0.7706 0.2740 -0.5753
vn -0.7171 0.1025 -0.6894
vn -0.6634 0.3290 -0.6721
vn 0.6569 -0.6164 -0.4342
vn 0.6995 -0.5124 -0.4982
vn 0.5563 -0.5457 -0.6267
vn -0.6341 0.6057 -0.4807
vn -0.5139 0.5279 -0.6762
vn -0.2650 0.6897 -0.6739
vn 0.7576 0.6239 -0.1917
vn 0.5469 0.7205 -0.4264
vn 0.5211 0.8114 -0.2647
vn 0.3155 0.8595 -0.4022
vn -0.2409 0.9685 0.0624
vn -0.1637 0.9561 -0.2431
vn 0.6692 -0.4381 -0.6002
vn 0.8423 -0.3224 -0.4319
vn -0.0828 0.9524 -0.2935
vn 0.3989 0.8897 -0.2220
vn 0.1568 0.8231 -0.5459
vn 0.5307 0.7148 -0.4555
vn 0.1113 0.6584 -0.7444
vn -0.0704 0.9648 0.2534
vn -0.2911 0.9560 0.0374
vn -0.1276 0.9021 0.4123
vn -0.3604 0.9018 0.2383
vn 0.1417 0.9328 0.3315
vn 0.3761 0.9041 0.2028
vn 0.9523 0.2962 -0.0735
vn 0.9570 0.0462 -0.2865
vn -0.5486 -0.3436 -0.7622
vn 0.0476 -0.4424 -0.8955
vn -0.4736 -0.2145 -0.8542
vn -0.3720 -0.2540 -0.8928
vn -0.3320 -0.3690 -0.8681
vn -0.2704 -0.4581 -0.8468
vn -0.5375 0.0316 -0.8427
vn -0.5608 0.2420 -0.7918
vn -0.3994 0.2093 -0.8926
vn -0.3763 -0.0178 -0.9263
vn 0.0269 -0.4356 -0.8998
vn 0.2206 -0.4820 -0.8479
vn -0.5068 0.3890 -0.7693
vn -0.3226 0.3707 -0.8709
vn 0.4807 -0.4738 -0.7379
vn 0.2963 -0.3998 -0.8674
vn -0.2044 0.4909 -0.8469
vn -0.1956 0.3096 -0.9305
vn 0.2352 0.5904 -0.7720
vn 0.0272 0.4427 -0.8963
vn 0.2795 0.6578 -0.6994
vn 0.3765 0.7251 -0.5767
vn 0.1807 0.5117 -0.8400
vn 0.0641 0.7616 -0.6449
vn 0.2788 0.6310 -0.7239
vn 0.6617 -0.3216 -0.6773
vn 0.4754 -0.3746 -0.7961
vn -0.2760 0.9109 -0.3066
vn 0.8497 -0.1804 -0.4955
vn -0.2180 0.8451 -0.4881
vn -0.1626 0.9750 0.1514
vn -0.1579 0.9652 -0.2085
vn 0.6956 0.6421 -0.3223
vn 0.8237 0.3625 -0.4360
vn 0.5754 0.4192 -0.7023
vn 0.8495 0.4978 -0.1747
vn 0.8578 0.1133 -0.5013
vn 0.6891 0.0387 -0.7236
vn 0.6480 0.2506 -0.7192
vn 0.1423 0.9781 -0.1520
vn 0.5717 0.8175 -0.0703
vn 0.4069 0.8975 -0.1700
vn 0.2292 0.8278 -0.5121
vn 0.0089 0.7891 -0.6143
vn 0.4605 0.7213 -0.5174
vn -0.2667 -0.2322 -0.9354
vn -0.2447 -0.3349 -0.9099
vn -0.1655 -0.4283 -0.8883
vn -0.2717 -0.0844 -0.9587
vn -0.2255 0.1404 -0.9641
vn -0.1535 -0.2882 -0.9452
vn -0.1785 0.0033 -0.9839
vn -0.1003 -0.0996 -0.9900
vn 0.0152 -0.2398 -0.9707
vn -0.0887 0.2859 -0.9541
vn -0.1109 0.2597 -0.9593
vn -0.0389 0.0818 -0.9959
vn 0.2132 -0.2490 -0.9447
vn 0.0849 0.4541 -0.8869
vn -0.0715 0.5028 -0.8614
vn -0.1554 0.3639 -0.9184
vn -0.2263 0.7309 -0.6439
vn 0.1357 -0.0329 -0.9902
vn 0.3827 -0.1893 -0.9043
vn 0.2026 0.0291 -0.9788
vn -0.3282 0.8063 -0.4922
vn -0.1883 0.5771 -0.7947
vn -0.0369 0.2850 -0.9578
vn 0.0445 0.1235 -0.9914
vn 0.1510 0.1908 -0.9699
vn -0.0470 0.5410 -0.8397
vn 0.0797 0.3243 -0.9426
vn 0.3738 0.1444 -0.9162
vn 0.6713 -0.1999 -0.7137
vn 0.5018 -0.0409 -0.8640
vn 0.1558 0.5901 -0.7922
vn 0.3105 0.4293 -0.8481
vn 0.1024 -0.2070 -0.9730
s 1
usemtl mtl1.306
f 32//1 29//2 1//3
f 29//2 27//4 1//3
f 2//5 32//1 1//3
f 2//5 1//3 4//6
f 1//3 27//4 4//6
f 27//4 3//7 4//6
f 28//8 3//7 27//4
f 34//9 6//10 3//7
f 2//5 4//6 39//11
f 4//6 3//7 5//12
f 7//13 4//6 5//12
f 3//7 6//10 5//12
f 34//9 37//14 6//10
f 6//10 8//15 5//12
f 5//12 8//15 7//13
f 4//6 7//13 39//11
f 15//16 68//17 17//18
f 15//16 9//19 68//17
f 68//17 69//20 17//18
f 10//21 16//22 14//23
f 10//21 14//23 19//24
f 77//25 16//22 10//21
f 85//26 78//27 10//21
f 11//28 13//29 12//30
f 11//28 20//31 14//23
f 11//28 12//30 20//31
f 17//18 13//29 15//16
f 17//18 18//32 13//29
f 15//16 11//28 16//22
f 15//16 13//29 11//28
f 14//23 16//22 11//28
f 18//32 12//30 13//29
f 16//22 9//19 15//16
f 17//18 69//20 18//32
f 23//33 12//30 18//32
f 20//31 19//24 14//23
f 10//21 19//24 85//26
f 90//34 85//26 19//24
f 12//30 21//35 20//31
f 20//31 21//35 25//36
f 12//30 23//33 21//35
f 92//37 20//31 25//36
f 21//35 26//38 25//36
f 23//33 22//39 21//35
f 21//35 22//39 26//38
f 22//39 93//40 26//38
f 24//41 22//39 23//33
f 93//40 22//39 24//41
f 18//32 87//42 23//33
f 23//33 87//42 24//41
f 87//42 88//43 24//41
f 19//24 20//31 92//37
f 92//37 90//34 19//24
f 97//44 92//37 29//2
f 27//4 25//36 26//38
f 25//36 27//4 92//37
f 26//38 28//8 27//4
f 26//38 93//40 28//8
f 27//4 29//2 92//37
f 97//44 29//2 33//45
f 99//46 97//44 33//45
f 99//46 100//47 97//44
f 30//48 28//8 31//49
f 30//48 34//9 28//8
f 30//48 31//49 34//9
f 35//50 99//46 33//45
f 33//45 29//2 32//1
f 101//51 31//49 98//52
f 2//5 33//45 32//1
f 36//53 33//45 2//5
f 33//45 36//53 35//50
f 3//7 28//8 34//9
f 37//14 34//9 31//49
f 38//54 31//49 101//51
f 99//46 35//50 100//47
f 36//53 2//5 44//55
f 38//54 40//56 37//14
f 37//14 40//56 6//10
f 37//14 31//49 38//54
f 38//54 41//57 40//56
f 38//54 104//58 41//57
f 42//59 35//50 36//53
f 114//60 35//50 42//59
f 36//53 44//55 42//59
f 2//5 39//11 44//55
f 45//61 39//11 7//13
f 46//62 8//15 6//10
f 40//56 46//62 6//10
f 41//57 47//63 40//56
f 39//11 49//64 44//55
f 42//59 44//55 43//65
f 43//65 49//64 48//66
f 44//55 49//64 43//65
f 50//67 39//11 45//61
f 8//15 45//61 7//13
f 8//15 53//68 45//61
f 45//61 53//68 52//69
f 40//56 47//63 46//62
f 115//70 43//65 48//66
f 49//64 39//11 50//67
f 52//69 50//67 45//61
f 50//67 51//71 49//64
f 50//67 52//69 51//71
f 55//72 51//71 52//69
f 49//64 51//71 121//73
f 55//72 52//69 56//74
f 8//15 46//62 53//68
f 46//62 54//75 53//68
f 47//63 54//75 46//62
f 124//76 57//77 54//75
f 123//78 121//73 51//71
f 55//72 123//78 51//71
f 52//69 53//68 56//74
f 53//68 57//77 56//74
f 53//68 54//75 57//77
f 55//72 56//74 58//79
f 56//74 57//77 58//79
f 55//72 58//79 59//80
f 58//79 57//77 128//81
f 59//80 58//79 61//82
f 58//79 128//81 63//83
f 128//81 139//84 63//83
f 61//82 60//85 59//80
f 60//85 61//82 62//86
f 62//86 137//87 136//88
f 58//79 63//83 61//82
f 63//83 64//89 61//82
f 63//83 139//84 64//89
f 61//82 64//89 62//86
f 64//89 137//87 62//86
f 128//81 129//90 139//84
f 64//89 139//84 137//87
f 9//19 16//22 77//25
f 65//91 9//19 77//25
f 65//91 77//25 79//92
f 70//93 9//19 65//91
f 65//91 66//94 70//93
f 66//94 65//91 79//92
f 74//95 70//93 67//96
f 66//94 81//97 67//96
f 70//93 66//94 67//96
f 81//97 66//94 79//92
f 149//98 67//96 81//97
f 151//99 67//96 149//98
f 151//99 148//100 67//96
f 9//19 71//101 68//17
f 70//93 71//101 9//19
f 884//102 72//103 68//17
f 72//103 69//20 68//17
f 884//102 73//104 72//103
f 69//20 72//103 82//105
f 83//106 69//20 82//105
f 884//102 70//93 74//95
f 74//95 73//104 884//102
f 75//107 72//103 73//104
f 82//105 72//103 75//107
f 148//100 74//95 67//96
f 76//108 74//95 148//100
f 73//104 74//95 76//108
f 76//108 75//107 73//104
f 78//27 79//92 77//25
f 77//25 10//21 78//27
f 86//109 78//27 85//26
f 80//110 78//27 86//109
f 80//110 79//92 78//27
f 81//97 79//92 80//110
f 81//97 80//110 150//111
f 83//106 18//32 69//20
f 82//105 84//112 83//106
f 82//105 75//107 84//112
f 83//106 87//42 18//32
f 87//42 83//106 89//113
f 83//106 84//112 89//113
f 90//34 86//109 85//26
f 86//109 90//34 91//114
f 157//115 86//109 91//114
f 80//110 86//109 157//115
f 157//115 150//111 80//110
f 94//116 24//41 88//43
f 88//43 87//42 89//113
f 89//113 160//117 88//43
f 160//117 94//116 88//43
f 89//113 84//112 208//118
f 208//118 160//117 89//113
f 91//114 90//34 95//119
f 24//41 94//116 93//40
f 94//116 160//117 162//120
f 97//44 90//34 92//37
f 90//34 97//44 95//119
f 94//116 162//120 93//40
f 93//40 162//120 96//121
f 95//119 97//44 100//47
f 95//119 100//47 164//122
f 28//8 93//40 96//121
f 96//121 31//49 28//8
f 31//49 96//121 98//52
f 162//120 98//52 96//121
f 101//51 102//123 103//124
f 102//123 101//51 165//125
f 102//123 166//126 103//124
f 98//52 165//125 101//51
f 35//50 110//127 100//47
f 164//122 100//47 171//128
f 103//124 38//54 101//51
f 103//124 104//58 38//54
f 103//124 105//129 104//58
f 105//129 106//130 104//58
f 166//126 105//129 103//124
f 107//131 106//130 105//129
f 166//126 107//131 105//129
f 108//132 109//133 106//130
f 106//130 107//131 108//132
f 107//131 166//126 108//132
f 109//133 116//134 106//130
f 35//50 114//60 110//127
f 110//127 171//128 100//47
f 110//127 114//60 113//135
f 113//135 171//128 110//127
f 104//58 111//136 41//57
f 111//136 47//63 41//57
f 111//136 116//134 47//63
f 104//58 106//130 111//136
f 111//136 106//130 116//134
f 109//133 112//137 116//134
f 112//137 117//138 116//134
f 113//135 118//139 173//140
f 173//140 171//128 113//135
f 114//60 43//65 115//70
f 42//59 43//65 114//60
f 113//135 114//60 118//139
f 114//60 115//70 118//139
f 115//70 48//66 118//139
f 116//134 120//141 47//63
f 49//64 121//73 48//66
f 47//63 120//141 54//75
f 116//134 119//142 120//141
f 119//142 116//134 117//138
f 124//76 54//75 180//143
f 177//144 176//145 119//142
f 119//142 176//145 120//141
f 123//78 55//72 126//146
f 55//72 59//80 126//146
f 124//76 125//147 57//77
f 180//143 125//147 124//76
f 54//75 120//141 180//143
f 120//141 176//145 180//143
f 122//148 123//78 126//146
f 57//77 129//90 128//81
f 129//90 57//77 125//147
f 125//147 180//143 129//90
f 127//149 122//148 126//146
f 60//85 126//146 59//80
f 60//85 127//149 126//146
f 130//150 131//151 129//90
f 129//90 180//143 130//150
f 183//152 130//150 180//143
f 135//153 134//154 60//85
f 127//149 60//85 134//154
f 60//85 62//86 135//153
f 131//151 139//84 129//90
f 131//151 133//155 141//156
f 130//150 132//157 131//151
f 132//157 133//155 131//151
f 135//153 142//158 134//154
f 136//88 135//153 62//86
f 135//153 136//88 142//158
f 137//87 145//159 136//88
f 137//87 139//84 138//160
f 140//161 138//160 139//84
f 137//87 138//160 145//159
f 141//156 140//161 139//84
f 139//84 131//151 141//156
f 133//155 186//162 141//156
f 186//162 192//163 141//156
f 134//154 142//158 243//164
f 196//165 193//166 142//158
f 136//88 143//167 142//158
f 196//165 142//158 143//167
f 136//88 144//168 143//167
f 144//168 136//88 145//159
f 144//168 145//159 147//169
f 145//159 138//160 146//170
f 140//161 146//170 138//160
f 145//159 146//170 147//169
f 140//161 189//171 146//170
f 143//167 144//168 195//172
f 196//165 143//167 195//172
f 146//170 197//173 147//169
f 76//108 148//100 155//174
f 150//111 149//98 81//97
f 149//98 152//175 151//99
f 150//111 153//176 152//175
f 149//98 150//111 152//175
f 151//99 152//175 155//174
f 155//174 152//175 154//177
f 152//175 153//176 154//177
f 153//176 203//178 154//177
f 151//99 155//174 148//100
f 76//108 156//179 75//107
f 156//179 76//108 155//174
f 84//112 207//180 208//118
f 75//107 207//180 84//112
f 159//181 157//115 91//114
f 150//111 157//115 158//182
f 157//115 159//181 158//182
f 150//111 158//182 153//176
f 159//181 206//183 158//182
f 158//182 203//178 153//176
f 205//184 207//180 75//107
f 160//117 208//118 162//120
f 95//119 161//185 91//114
f 210//186 91//114 161//185
f 159//181 91//114 210//186
f 164//122 211//187 95//119
f 161//185 95//119 211//187
f 98//52 162//120 163//188
f 162//120 212//189 163//188
f 212//189 165//125 163//188
f 211//187 164//122 222//190
f 165//125 98//52 163//188
f 215//191 165//125 212//189
f 215//191 102//123 165//125
f 167//192 108//132 166//126
f 166//126 220//193 167//192
f 108//132 167//192 168//194
f 109//133 168//194 169//195
f 167//192 221//196 168//194
f 169//195 218//197 170//198
f 222//190 164//122 171//128
f 108//132 168//194 109//133
f 169//195 112//137 109//133
f 112//137 169//195 170//198
f 170//198 172//199 112//137
f 170//198 223//200 172//199
f 117//138 112//137 172//199
f 171//128 173//140 226//201
f 171//128 226//201 314//202
f 172//199 174//203 117//138
f 227//204 174//203 172//199
f 227//204 228//205 175//206
f 173//140 118//139 229//207
f 119//142 117//138 174//203
f 177//144 119//142 174//203
f 227//204 175//206 174//203
f 230//208 175//206 228//205
f 178//209 175//206 230//208
f 48//66 121//73 179//210
f 118//139 48//66 179//210
f 181//211 176//145 178//209
f 177//144 178//209 176//145
f 174//203 175//206 177//144
f 175//206 178//209 177//144
f 230//208 231//212 178//209
f 179//210 121//73 122//148
f 127//149 179//210 122//148
f 123//78 122//148 121//73
f 180//143 176//145 181//211
f 181//211 182//213 180//143
f 181//211 178//209 182//213
f 180//143 182//213 183//152
f 182//213 234//214 184//215
f 234//214 182//213 178//209
f 182//213 184//215 183//152
f 132//157 183//152 185//216
f 132//157 185//216 133//155
f 183//152 132//157 130//150
f 187//217 183//152 184//215
f 183//152 187//217 185//216
f 184//215 188//218 187//217
f 133//155 185//216 186//162
f 185//216 191//219 186//162
f 186//162 191//219 192//163
f 187//217 191//219 185//216
f 244//220 187//217 188//218
f 244//220 188//218 245//221
f 142//158 193//166 243//164
f 140//161 190//222 189//171
f 140//161 141//156 190//222
f 192//163 190//222 141//156
f 250//223 190//222 192//163
f 192//163 251//224 250//223
f 187//217 244//220 191//219
f 251//224 192//163 191//219
f 244//220 251//224 191//219
f 193//166 196//165 194//225
f 193//166 199//226 248//227
f 194//225 199//226 193//166
f 196//165 195//172 201//228
f 201//228 194//225 196//165
f 195//172 144//168 147//169
f 202//229 195//172 147//169
f 197//173 202//229 147//169
f 197//173 258//230 202//229
f 189//171 197//173 146//170
f 197//173 189//171 198//231
f 258//230 197//173 259//232
f 198//231 189//171 190//222
f 198//231 190//222 250//223
f 199//226 194//225 200//233
f 200//233 194//225 201//228
f 256//234 200//233 201//228
f 201//228 202//229 256//234
f 257//235 256//234 202//229
f 202//229 201//228 195//172
f 257//235 202//229 258//230
f 197//173 198//231 259//232
f 204//236 156//179 155//174
f 156//179 205//184 75//107
f 156//179 204//236 205//184
f 154//177 203//178 204//236
f 155//174 154//177 204//236
f 203//178 158//182 280//237
f 206//183 280//237 158//182
f 203//178 281//238 204//236
f 203//178 280//237 281//238
f 204//236 281//238 282//239
f 204//236 283//240 205//184
f 207//180 209//241 208//118
f 293//242 206//183 159//181
f 293//242 280//237 206//183
f 209//241 300//243 208//118
f 209//241 298//244 300//243
f 293//242 159//181 210//186
f 395//245 293//242 210//186
f 300//243 162//120 208//118
f 210//186 161//185 211//187
f 210//186 211//187 307//246
f 212//189 162//120 300//243
f 300//243 301//247 212//189
f 211//187 222//190 406//248
f 301//247 215//191 212//189
f 214//249 218//197 221//196
f 213//250 214//249 221//196
f 309//251 219//252 215//191
f 309//251 310//253 219//252
f 167//192 220//193 216//254
f 216//254 312//255 217//256
f 167//192 216//254 217//256
f 217//256 213//250 221//196
f 217//256 221//196 167//192
f 221//196 218//197 169//195
f 102//123 215//191 219//252
f 166//126 102//123 885//257
f 885//257 220//193 166//126
f 168//194 221//196 169//195
f 218//197 223//200 170//198
f 223//200 218//197 308//258
f 222//190 171//128 314//202
f 172//199 223//200 224//259
f 224//259 223//200 308//258
f 172//199 224//259 227//204
f 308//258 225//260 224//259
f 225//260 227//204 224//259
f 408//261 314//202 226//201
f 225//260 228//205 227//204
f 229//207 226//201 173//140
f 226//201 229//207 316//262
f 231//212 230//208 228//205
f 315//263 228//205 225//260
f 318//264 231//212 228//205
f 315//263 318//264 228//205
f 229//207 118//139 179//210
f 179//210 232//265 229//207
f 231//212 234//214 178//209
f 235//266 231//212 318//264
f 233//267 232//265 179//210
f 127//149 233//267 179//210
f 234//214 231//212 235//266
f 233//267 236//268 322//269
f 233//267 127//149 236//268
f 237//270 234//214 235//266
f 237//270 184//215 234//214
f 319//271 237//270 235//266
f 239//272 184//215 237//270
f 236//268 238//273 322//269
f 238//273 323//274 322//269
f 240//275 323//274 238//273
f 134//154 241//276 127//149
f 236//268 127//149 238//273
f 127//149 241//276 238//273
f 184//215 239//272 188//218
f 245//221 188//218 239//272
f 237//270 330//277 239//272
f 241//276 240//275 238//273
f 241//276 327//278 240//275
f 247//279 327//278 241//276
f 241//276 243//164 242//280
f 242//280 247//279 241//276
f 247//279 242//280 249//281
f 134//154 243//164 241//276
f 243//164 193//166 248//227
f 245//221 246//282 244//220
f 329//283 246//282 245//221
f 334//284 327//278 247//279
f 334//284 249//281 335//285
f 243//164 248//227 249//281
f 242//280 243//164 249//281
f 337//286 249//281 248//227
f 251//224 261//287 250//223
f 251//224 244//220 252//288
f 262//289 261//287 251//224
f 251//224 252//288 262//289
f 244//220 246//282 252//288
f 338//290 337//286 254//291
f 338//290 254//291 340//292
f 253//293 199//226 200//233
f 248//227 199//226 253//293
f 253//293 200//233 256//234
f 253//293 254//291 248//227
f 255//294 253//293 256//234
f 337//286 248//227 254//291
f 253//293 255//294 254//291
f 254//291 255//294 340//292
f 256//234 257//235 347//295
f 257//235 258//230 348//296
f 348//296 347//295 257//235
f 258//230 259//232 344//297
f 348//296 258//230 344//297
f 260//298 343//299 259//232
f 259//232 343//299 344//297
f 198//231 250//223 260//298
f 259//232 198//231 260//298
f 250//223 261//287 260//298
f 284//300 263//301 265//302
f 263//301 264//303 357//304
f 263//301 357//304 274//305
f 284//300 264//303 263//301
f 357//304 264//303 358//306
f 370//307 274//305 357//304
f 266//308 265//302 267//309
f 265//302 266//308 286//310
f 267//309 269//311 266//308
f 269//311 287//312 266//308
f 274//305 270//313 265//302
f 265//302 270//313 267//309
f 270//313 271//314 267//309
f 271//314 272//315 268//316
f 267//309 271//314 268//316
f 268//316 269//311 267//309
f 268//316 278//317 269//311
f 265//302 263//301 274//305
f 287//312 269//311 278//317
f 273//318 271//314 270//313
f 272//315 271//314 273//318
f 272//315 279//319 268//316
f 278//317 268//316 279//319
f 275//320 276//321 270//313
f 270//313 276//321 273//318
f 270//313 274//305 275//320
f 276//321 277//322 273//318
f 277//322 272//315 273//318
f 279//319 272//315 277//322
f 274//305 370//307 275//320
f 275//320 370//307 369//323
f 369//323 276//321 275//320
f 369//323 371//324 276//321
f 371//324 277//322 276//321
f 371//324 377//325 277//322
f 377//325 279//319 277//322
f 279//319 288//326 278//317
f 288//326 279//319 381//327
f 381//327 279//319 378//328
f 377//325 378//328 279//319
f 282//239 283//240 204//236
f 383//329 282//239 281//238
f 281//238 382//330 383//329
f 207//180 291//331 209//241
f 292//332 264//303 284//300
f 384//333 358//306 264//303
f 266//308 285//334 286//310
f 265//302 286//310 284//300
f 286//310 285//334 294//335
f 286//310 299//336 284//300
f 286//310 294//335 299//336
f 287//312 285//334 266//308
f 285//334 287//312 295//337
f 287//312 278//317 288//326
f 280//237 289//338 281//238
f 280//237 293//242 289//338
f 281//238 289//338 382//330
f 386//339 289//338 293//242
f 290//340 207//180 205//184
f 283//240 290//340 205//184
f 390//341 290//340 283//240
f 291//331 298//244 209//241
f 291//331 391//342 298//244
f 207//180 290//340 291//331
f 290//340 391//342 291//331
f 384//333 264//303 292//332
f 285//334 295//337 294//335
f 284//300 299//336 292//332
f 287//312 296//343 295//337
f 287//312 288//326 296//343
f 296//343 288//326 297//344
f 288//326 381//327 297//344
f 305//345 294//335 295//337
f 299//336 294//335 304//346
f 292//332 299//336 384//333
f 210//186 307//246 395//245
f 392//347 293//242 395//245
f 304//346 294//335 305//345
f 299//336 304//346 396//348
f 295//337 296//343 306//349
f 296//343 297//344 306//349
f 300//243 298//244 301//247
f 303//350 301//247 302//351
f 301//247 298//244 302//351
f 304//346 312//255 396//348
f 305//345 306//349 214//249
f 295//337 306//349 305//345
f 218//197 214//249 306//349
f 297//344 308//258 306//349
f 308//258 297//344 394//352
f 406//248 307//246 211//187
f 303//350 215//191 301//247
f 396//348 312//255 397//353
f 313//354 397//353 312//255
f 213//250 304//346 305//345
f 304//346 213//250 217//256
f 304//346 217//256 312//255
f 305//345 214//249 213//250
f 306//349 308//258 218//197
f 394//352 457//355 308//258
f 303//350 309//251 215//191
f 309//251 400//356 310//253
f 303//350 399//357 309//251
f 401//358 310//253 400//356
f 311//359 220//193 885//257
f 311//359 885//257 886//360
f 887//361 313//354 220//193
f 220//193 313//354 216//254
f 312//255 216//254 313//354
f 308//258 457//355 225//260
f 406//248 222//190 314//202
f 409//362 408//261 226//201
f 512//363 315//263 225//260
f 457//355 512//363 225//260
f 226//201 316//262 409//362
f 315//263 470//364 318//264
f 229//207 317//365 316//262
f 229//207 232//265 317//365
f 409//362 316//262 317//365
f 470//364 412//366 318//264
f 317//365 232//265 233//267
f 411//367 410//368 317//365
f 233//267 411//367 317//365
f 319//271 235//266 318//264
f 412//366 319//271 318//264
f 411//367 233//267 320//369
f 233//267 322//269 320//369
f 322//269 321//370 320//369
f 319//271 330//277 237//270
f 413//371 330//277 319//271
f 324//372 321//370 322//269
f 322//269 323//274 324//372
f 323//274 325//373 324//372
f 324//372 325//373 326//374
f 324//372 326//374 417//375
f 329//283 245//221 239//272
f 325//373 323//274 240//275
f 240//275 327//278 325//373
f 331//376 325//373 327//278
f 325//373 331//376 326//374
f 331//376 328//377 326//374
f 326//374 328//377 419//378
f 419//378 328//377 418//379
f 330//277 329//283 239//272
f 420//380 329//283 330//277
f 421//381 329//283 420//380
f 327//278 334//284 332//382
f 336//383 332//382 334//284
f 332//382 331//376 327//278
f 332//382 336//383 333//384
f 339//385 333//384 336//383
f 328//377 331//376 332//382
f 333//384 328//377 332//382
f 247//279 249//281 334//284
f 335//285 338//290 334//284
f 337//286 338//290 335//285
f 334//284 338//290 336//383
f 336//383 338//290 339//385
f 337//286 335//285 249//281
f 423//386 246//282 329//283
f 252//288 246//282 423//386
f 423//386 329//283 421//381
f 339//385 338//290 340//292
f 340//292 255//294 341//387
f 339//385 340//292 341//387
f 341//387 342//388 339//385
f 256//234 347//295 255//294
f 346//389 342//388 341//387
f 346//389 341//387 255//294
f 344//297 350//390 348//296
f 343//299 350//390 344//297
f 351//391 350//390 343//299
f 352//392 351//391 343//299
f 343//299 260//298 353//393
f 353//393 352//392 343//299
f 262//289 252//288 345//394
f 262//289 345//394 356//395
f 345//394 252//288 423//386
f 255//294 347//295 346//389
f 346//389 347//295 349//396
f 347//295 348//296 349//396
f 349//396 348//296 350//390
f 425//397 346//389 349//396
f 424//398 350//390 351//391
f 424//398 351//391 426//399
f 351//391 352//392 426//399
f 354//400 352//392 353//393
f 260//298 354//400 353//393
f 427//401 352//392 354//400
f 355//402 260//298 261//287
f 261//287 262//289 356//395
f 355//402 261//287 356//395
f 355//402 354//400 260//298
f 357//304 359//403 370//307
f 357//304 360//404 359//403
f 360//404 357//304 358//306
f 360//404 363//405 362//406
f 359//403 360//404 362//406
f 362//406 361//407 359//403
f 363//405 360//404 358//306
f 363//405 358//306 364//408
f 361//407 362//406 366//409
f 365//410 362//406 363//405
f 365//410 363//405 364//408
f 362//406 367//411 366//409
f 367//411 362//406 365//410
f 367//411 365//410 440//412
f 440//412 365//410 364//408
f 494//413 440//412 364//408
f 366//409 367//411 368//414
f 367//411 429//415 368//414
f 368//414 431//416 430//417
f 429//415 431//416 368//414
f 370//307 359//403 361//407
f 361//407 372//418 370//307
f 370//307 372//418 369//323
f 372//418 373//419 369//323
f 369//323 373//419 371//324
f 377//325 371//324 373//419
f 379//420 377//325 373//419
f 366//409 374//421 361//407
f 361//407 374//421 372//418
f 374//421 376//422 372//418
f 372//418 376//422 373//419
f 376//422 375//423 373//419
f 366//409 368//414 374//421
f 375//423 379//420 373//419
f 374//421 368//414 430//417
f 374//421 430//417 376//422
f 377//325 379//420 378//328
f 379//420 375//423 380//424
f 378//328 379//420 380//424
f 380//424 443//425 378//328
f 380//424 438//426 443//425
f 380//424 375//423 437//427
f 437//427 438//426 380//424
f 358//306 384//333 364//408
f 381//327 378//328 385//428
f 443//425 385//428 378//328
f 283//240 282//239 383//329
f 388//429 283//240 383//329
f 388//429 383//329 382//330
f 283//240 388//429 390//341
f 389//430 391//342 290//340
f 390//341 389//430 290//340
f 384//333 444//431 364//408
f 444//431 384//333 448//432
f 293//242 392//347 386//339
f 289//338 387//433 382//330
f 386//339 387//433 289//338
f 387//433 386//339 392//347
f 382//330 387//433 388//429
f 388//429 387//433 450//434
f 451//435 391//342 389//430
f 298//244 391//342 302//351
f 393//436 384//333 299//336
f 448//432 384//333 393//436
f 297//344 381//327 394//352
f 381//327 452//437 394//352
f 395//245 454//438 392//347
f 391//342 451//435 302//351
f 299//336 396//348 393//436
f 393//436 398//439 453//440
f 457//355 394//352 452//437
f 393//436 396//348 398//439
f 406//248 395//245 307//246
f 458//441 395//245 406//248
f 460//442 399//357 303//350
f 302//351 460//442 303//350
f 398//439 397//353 455//443
f 398//439 396//348 397//353
f 455//443 397//353 313//354
f 309//251 399//357 400//356
f 463//444 402//445 888//446
f 399//357 403//447 400//356
f 400//356 403//447 462//448
f 400//356 462//448 401//358
f 462//448 463//444 401//358
f 460//442 403//447 399//357
f 464//449 402//445 463//444
f 311//359 886//360 888//446
f 405//450 313//354 887//361
f 402//445 311//359 888//446
f 402//445 405//450 887//361
f 313//354 405//450 404//451
f 407//452 406//248 314//202
f 468//453 406//248 407//452
f 468//453 523//454 406//248
f 407//452 314//202 408//261
f 469//455 408//261 409//362
f 408//261 469//455 407//452
f 410//368 469//455 409//362
f 315//263 512//363 470//364
f 526//456 470//364 512//363
f 409//362 317//365 410//368
f 410//368 411//367 531//457
f 472//458 531//457 411//367
f 411//367 320//369 472//458
f 412//366 413//371 319//271
f 531//457 414//459 473//460
f 472//458 320//369 414//459
f 414//459 320//369 321//370
f 414//459 531//457 472//458
f 415//461 321//370 324//372
f 415//461 324//372 417//375
f 415//461 473//460 414//459
f 321//370 415//461 414//459
f 473//460 415//461 416//462
f 416//462 415//461 417//375
f 475//463 473//460 416//462
f 419//378 416//462 417//375
f 475//463 416//462 476//464
f 476//464 416//462 419//378
f 477//465 330//277 413//371
f 419//378 417//375 326//374
f 419//378 418//379 478//466
f 481//467 478//466 418//379
f 478//466 476//464 419//378
f 333//384 418//379 328//377
f 482//468 484//469 420//380
f 330//277 482//468 420//380
f 418//379 333//384 481//467
f 339//385 481//467 333//384
f 481//467 339//385 483//470
f 484//469 421//381 420//380
f 421//381 486//471 423//386
f 483//470 339//385 485//472
f 342//388 485//472 339//385
f 422//473 342//388 346//389
f 422//473 485//472 342//388
f 346//389 425//397 422//473
f 345//394 423//386 490//474
f 425//397 349//396 424//398
f 349//396 350//390 424//398
f 427//401 426//399 352//392
f 424//398 426//399 425//397
f 425//397 426//399 487//475
f 487//475 422//473 425//397
f 427//401 354//400 428//476
f 489//477 427//401 428//476
f 426//399 427//401 489//477
f 426//399 489//477 487//475
f 487//475 489//477 488//478
f 355//402 356//395 428//476
f 354//400 355//402 428//476
f 356//395 345//394 490//474
f 367//411 440//412 429//415
f 435//479 431//416 429//415
f 429//415 441//480 435//479
f 437//427 375//423 376//422
f 430//417 432//481 376//422
f 432//481 437//427 376//422
f 430//417 431//416 432//481
f 437//427 432//481 434//482
f 431//416 433//483 432//481
f 434//482 439//484 437//427
f 434//482 432//481 433//483
f 431//416 435//479 433//483
f 435//479 436//485 433//483
f 435//479 441//480 436//485
f 434//482 433//483 436//485
f 434//482 442//486 439//484
f 442//486 434//482 436//485
f 437//427 439//484 438//426
f 439//484 493//487 438//426
f 441//480 429//415 440//412
f 495//488 440//412 494//413
f 441//480 440//412 495//488
f 385//428 443//425 445//489
f 493//487 443//425 438//426
f 445//489 443//425 493//487
f 445//489 493//487 497//490
f 494//413 364//408 444//431
f 447//491 390//341 388//429
f 446//492 389//430 390//341
f 390//341 447//491 446//492
f 446//492 451//435 389//430
f 444//431 448//432 494//413
f 385//428 452//437 381//327
f 385//428 449//493 452//437
f 445//489 449//493 385//428
f 498//494 450//434 387//433
f 387//433 501//495 498//494
f 387//433 392//347 501//495
f 450//434 447//491 388//429
f 453//440 448//432 393//436
f 449//493 457//355 452//437
f 619//496 392//347 454//438
f 569//497 392//347 619//496
f 392//347 569//497 501//495
f 509//498 453//440 398//439
f 512//363 457//355 449//493
f 459//499 454//438 395//245
f 459//499 619//496 454//438
f 302//351 508//500 460//442
f 456//501 398//439 455//443
f 509//498 398//439 456//501
f 406//248 523//454 458//441
f 459//499 395//245 458//441
f 460//442 515//502 461//503
f 461//503 403//447 460//442
f 461//503 462//448 403//447
f 405//450 402//445 464//449
f 461//503 465//504 462//448
f 463//444 462//448 465//504
f 467//505 405//450 464//449
f 464//449 463//444 466//506
f 465//504 466//506 463//444
f 518//507 466//506 465//504
f 313//354 404//451 455//443
f 467//505 404//451 405//450
f 455//443 404//451 521//508
f 404//451 467//505 521//508
f 455//443 521//508 456//501
f 459//499 458//441 523//454
f 525//509 468//453 527//510
f 527//510 468//453 407//452
f 527//510 469//455 410//368
f 527//510 407//452 469//455
f 527//510 410//368 531//457
f 470//364 471//511 412//366
f 412//366 532//512 413//371
f 531//457 473//460 474//513
f 474//513 473//460 475//463
f 475//463 476//464 533//514
f 477//465 482//468 330//277
f 482//468 477//465 534//515
f 413//371 644//516 534//515
f 534//515 477//465 413//371
f 478//466 479//517 476//464
f 479//517 478//466 480//518
f 478//466 481//467 480//518
f 479//517 535//519 476//464
f 535//519 479//517 480//518
f 486//471 490//474 423//386
f 486//471 421//381 492//520
f 421//381 484//469 492//520
f 658//521 422//473 487//475
f 658//521 487//475 488//478
f 489//477 428//476 491//522
f 551//523 488//478 489//477
f 559//524 490//474 486//471
f 491//522 428//476 356//395
f 356//395 490//474 491//522
f 490//474 559//524 491//522
f 491//522 554//525 489//477
f 559//524 553//526 491//522
f 559//524 486//471 492//520
f 436//485 561//527 442//486
f 436//485 441//480 561//527
f 442//486 493//487 439//484
f 442//486 561//527 493//487
f 445//489 497//490 568//528
f 496//529 493//487 561//527
f 497//490 493//487 496//529
f 441//480 495//488 561//527
f 494//413 562//530 495//488
f 499//531 450//434 498//494
f 450//434 499//531 447//491
f 499//531 500//532 447//491
f 504//533 499//531 503//534
f 447//491 500//532 446//492
f 499//531 504//533 500//532
f 453//440 507//535 448//432
f 507//535 494//413 448//432
f 562//530 494//413 507//535
f 568//528 449//493 445//489
f 501//495 569//497 502//536
f 498//494 501//495 502//536
f 503//534 498//494 502//536
f 499//531 498//494 503//534
f 571//537 504//533 503//534
f 572//538 506//539 504//533
f 571//537 572//538 504//533
f 571//537 503//534 502//536
f 505//540 302//351 451//435
f 500//532 506//539 446//492
f 506//539 451//435 446//492
f 505//540 451//435 506//539
f 508//500 302//351 505//540
f 506//539 500//532 504//533
f 510//541 453//440 509//498
f 566//542 507//535 510//541
f 510//541 507//535 453//440
f 449//493 511//543 512//363
f 449//493 568//528 511//543
f 502//536 569//497 570//544
f 460//442 508//500 515//502
f 506//539 573//545 505//540
f 508//500 505//540 573//545
f 508//500 573//545 515//502
f 510//541 509//498 456//501
f 456//501 521//508 565//546
f 565//546 521//508 577//547
f 565//546 510//541 456//501
f 511//543 579//548 512//363
f 511//543 568//528 579//548
f 522//549 581//550 459//499
f 581//550 619//496 459//499
f 515//502 513//551 461//503
f 513//551 465//504 461//503
f 514//552 465//504 513//551
f 519//553 518//507 514//552
f 517//554 519//553 514//552
f 515//502 516//555 513//551
f 516//555 514//552 513//551
f 516//555 517//554 514//552
f 515//502 574//556 516//555
f 574//556 515//502 573//545
f 518//507 519//553 466//506
f 519//553 464//449 466//506
f 514//552 518//507 465//504
f 520//557 467//505 464//449
f 467//505 520//557 577//547
f 464//449 519//553 520//557
f 517//554 576//558 519//553
f 576//558 520//557 519//553
f 577//547 521//508 467//505
f 524//559 522//549 523//454
f 459//499 523//454 522//549
f 525//509 523//454 468//453
f 525//509 585//560 524//559
f 524//559 523//454 525//509
f 582//561 522//549 524//559
f 582//561 524//559 585//560
f 528//562 525//509 527//510
f 585//560 525//509 528//562
f 584//563 528//562 527//510
f 585//560 528//562 584//563
f 526//456 529//564 470//364
f 529//564 471//511 470//364
f 529//564 530//565 471//511
f 587//566 530//565 529//564
f 527//510 531//457 588//567
f 531//457 591//568 588//567
f 530//565 532//512 471//511
f 474//513 591//568 531//457
f 532//512 412//366 471//511
f 698//569 532//512 590//570
f 474//513 475//463 533//514
f 644//516 413//371 532//512
f 532//512 698//569 644//516
f 474//513 533//514 594//571
f 537//572 539//573 533//514
f 535//519 480//518 536//574
f 536//574 480//518 481//467
f 476//464 537//572 533//514
f 535//519 537//572 476//464
f 538//575 537//572 535//519
f 535//519 536//574 538//575
f 539//573 537//572 538//575
f 538//575 540//576 539//573
f 540//576 538//575 536//574
f 536//574 481//467 540//576
f 540//576 481//467 542//577
f 483//470 541//578 481//467
f 542//577 481//467 541//578
f 485//472 548//579 483//470
f 548//579 544//580 483//470
f 543//581 541//578 483//470
f 544//580 543//581 483//470
f 542//577 541//578 543//581
f 596//582 543//581 544//580
f 649//583 542//577 543//581
f 546//584 544//580 548//579
f 545//585 546//584 548//579
f 546//584 596//582 544//580
f 422//473 603//586 545//585
f 547//587 549//588 482//468
f 547//587 482//468 534//515
f 545//585 548//579 485//472
f 422//473 545//585 485//472
f 484//469 482//468 549//588
f 549//588 550//589 484//469
f 608//590 549//588 547//587
f 550//589 549//588 608//590
f 550//589 492//520 484//469
f 550//589 560//591 492//520
f 560//591 559//524 492//520
f 608//590 609//592 550//589
f 488//478 551//523 552//593
f 554//525 491//522 553//526
f 489//477 554//525 551//523
f 556//594 553//526 555//595
f 556//594 554//525 553//526
f 552//593 551//523 558//596
f 551//523 554//525 558//596
f 558//596 554//525 556//594
f 556//594 555//595 557//597
f 557//597 609//592 611//598
f 611//598 610//599 557//597
f 610//599 556//594 557//597
f 555//595 559//524 560//591
f 557//597 555//595 560//591
f 555//595 553//526 559//524
f 560//591 550//589 609//592
f 609//592 557//597 560//591
f 561//527 563//600 496//529
f 564//601 497//490 496//529
f 562//530 507//535 566//542
f 562//530 613//602 495//488
f 561//527 495//488 613//602
f 563//600 561//527 613//602
f 563//600 613//602 663//603
f 664//604 563//600 663//603
f 664//604 564//601 563//600
f 497//490 564//601 614//605
f 497//490 614//605 615//606
f 563//600 564//601 496//529
f 664//604 614//605 564//601
f 562//530 566//542 612//607
f 497//490 615//606 568//528
f 502//536 570//544 571//537
f 573//545 506//539 572//538
f 510//541 565//546 566//542
f 565//546 567//608 566//542
f 567//608 565//546 577//547
f 567//608 618//609 566//542
f 568//528 580//610 579//548
f 568//528 615//606 580//610
f 570//544 569//497 620//611
f 570//544 616//612 571//537
f 572//538 571//537 616//612
f 617//613 572//538 616//612
f 617//613 574//556 572//538
f 574//556 517//554 516//555
f 517//554 575//614 576//558
f 574//556 573//545 572//538
f 575//614 517//554 574//556
f 567//608 577//547 520//557
f 576//558 575//614 578//615
f 576//558 578//615 520//557
f 520//557 578//615 567//608
f 578//615 575//614 625//616
f 578//615 625//616 618//609
f 578//615 618//609 567//608
f 627//617 619//496 581//550
f 569//497 619//496 620//611
f 629//618 581//550 582//561
f 582//561 581//550 522//549
f 583//619 512//363 579//548
f 631//620 583//619 579//548
f 582//561 585//560 630//621
f 583//619 526//456 512//363
f 583//619 586//622 526//456
f 632//623 586//622 583//619
f 631//620 632//623 583//619
f 634//624 586//622 632//623
f 585//560 584//563 589//625
f 529//564 526//456 586//622
f 634//624 587//566 586//622
f 589//625 584//563 527//510
f 587//566 635//626 590//570
f 586//622 587//566 529//564
f 589//625 527//510 588//567
f 587//566 590//570 530//565
f 590//570 532//512 530//565
f 594//571 642//627 474//513
f 533//514 539//573 594//571
f 594//571 539//573 592//628
f 593//629 592//628 539//573
f 638//630 594//571 592//628
f 643//631 593//629 595//632
f 641//633 594//571 638//630
f 592//628 639//634 638//630
f 639//634 592//628 593//629
f 643//631 639//634 593//629
f 643//631 595//632 645//635
f 540//576 593//629 539//573
f 595//632 593//629 540//576
f 542//577 595//632 540//576
f 595//632 542//577 645//635
f 645//635 542//577 646//636
f 646//636 542//577 649//583
f 649//583 543//581 596//582
f 649//583 596//582 598//637
f 649//583 598//637 648//638
f 546//584 597//639 598//637
f 545//585 602//640 597//639
f 596//582 546//584 598//637
f 545//585 597//639 546//584
f 600//641 597//639 599//642
f 648//638 598//637 600//641
f 597//639 600//641 598//637
f 650//643 600//641 601//644
f 600//641 599//642 601//644
f 648//638 600//641 650//643
f 601//644 651//645 650//643
f 603//586 602//640 545//585
f 605//646 603//586 422//473
f 607//647 605//646 422//473
f 603//586 604//648 602//640
f 599//642 597//639 604//648
f 597//639 602//640 604//648
f 605//646 604//648 603//586
f 601//644 599//642 606//649
f 599//642 604//648 606//649
f 652//650 604//648 605//646
f 607//647 652//650 605//646
f 651//645 601//644 606//649
f 606//649 604//648 651//645
f 651//645 604//648 652//650
f 654//651 652//650 607//647
f 654//651 607//647 658//521
f 422//473 658//521 607//647
f 657//652 608//590 653//653
f 608//590 656//654 609//592
f 656//654 611//598 609//592
f 659//655 658//521 488//478
f 552//593 659//655 488//478
f 660//656 659//655 552//593
f 556//594 610//599 558//596
f 552//593 558//596 660//656
f 660//656 558//596 662//657
f 662//657 558//596 610//599
f 611//598 662//657 610//599
f 562//530 612//607 613//602
f 614//605 664//604 665//658
f 618//609 612//607 566//542
f 618//609 613//602 612//607
f 615//606 614//605 665//658
f 616//612 570//544 620//611
f 616//612 623//659 617//613
f 617//613 575//614 574//556
f 624//660 625//616 575//614
f 617//613 624//660 575//614
f 620//611 619//496 621//661
f 622//662 616//612 620//611
f 620//611 621//661 622//662
f 622//662 621//661 628//663
f 675//664 623//659 616//612
f 675//664 616//612 622//662
f 667//665 626//666 623//659
f 675//664 667//665 623//659
f 617//613 623//659 624//660
f 623//659 626//666 624//660
f 626//666 625//616 624//660
f 626//666 666//667 625//616
f 626//666 667//665 666//667
f 625//616 669//668 618//609
f 581//550 629//618 627//617
f 627//617 621//661 619//496
f 621//661 627//617 628//663
f 622//662 628//663 673//669
f 628//663 627//617 629//618
f 580//610 615//606 680//670
f 629//618 685//671 681//672
f 631//620 579//548 580//610
f 630//621 629//618 582//561
f 685//671 629//618 630//621
f 682//673 632//623 631//620
f 682//673 634//624 632//623
f 633//674 630//621 585//560
f 635//626 587//566 634//624
f 589//625 689//675 585//560
f 585//560 689//675 633//674
f 635//626 693//676 590//570
f 589//625 636//677 689//675
f 589//625 588//567 636//677
f 636//677 695//678 689//675
f 591//568 637//679 636//677
f 636//677 588//567 591//568
f 636//677 637//679 695//678
f 697//680 637//679 591//568
f 697//680 591//568 474//513
f 642//627 697//680 474//513
f 640//681 639//634 643//631
f 643//631 645//635 640//681
f 642//627 594//571 641//633
f 638//630 640//681 641//633
f 639//634 640//681 638//630
f 642//627 641//633 700//682
f 645//635 701//683 640//681
f 534//515 653//653 547//587
f 608//590 547//587 653//653
f 534//515 644//516 653//653
f 640//681 701//683 702//684
f 641//633 640//681 702//684
f 700//682 641//633 702//684
f 646//636 701//683 645//635
f 770//685 701//683 646//636
f 646//636 649//583 647//686
f 648//638 650//643 647//686
f 648//638 647//686 649//583
f 706//687 647//686 705//688
f 647//686 650//643 705//688
f 705//688 650//643 651//645
f 651//645 652//650 707//689
f 652//650 654//651 707//689
f 654//651 655//690 707//689
f 653//653 709//691 657//652
f 646//636 647//686 706//687
f 654//651 658//521 655//690
f 708//692 719//693 656//654
f 657//652 656//654 608//590
f 657//652 708//692 656//654
f 658//521 712//694 655//690
f 659//655 712//694 658//521
f 659//655 714//695 712//694
f 661//696 714//695 659//655
f 611//598 656//654 719//693
f 719//693 662//657 611//598
f 661//696 659//655 660//656
f 661//696 660//656 662//657
f 663//603 613//602 671//697
f 613//602 618//609 671//697
f 723//698 665//658 664//604
f 663//603 672//699 664//604
f 664//604 672//699 723//698
f 666//667 669//668 625//616
f 666//667 667//665 668//700
f 666//667 668//700 669//668
f 669//668 668//700 674//701
f 667//665 674//701 668//700
f 669//668 674//701 670//702
f 669//668 671//697 618//609
f 663//603 669//668 670//702
f 663//603 670//702 721//703
f 663//603 671//697 669//668
f 722//704 723//698 672//699
f 665//658 725//705 677//706
f 725//705 665//658 723//698
f 615//606 665//658 677//706
f 628//663 629//618 678//707
f 673//669 628//663 678//707
f 622//662 673//669 679//708
f 622//662 679//708 675//664
f 676//709 675//664 679//708
f 674//701 667//665 675//664
f 674//701 675//664 676//709
f 670//702 674//701 676//709
f 670//702 724//710 721//703
f 725//705 684//711 677//706
f 631//620 580//610 680//670
f 677//706 680//670 615//606
f 629//618 681//672 678//707
f 679//708 673//669 678//707
f 681//672 679//708 678//707
f 676//709 679//708 730//712
f 683//713 631//620 680//670
f 684//711 683//713 680//670
f 680//670 677//706 684//711
f 681//672 685//671 687//714
f 681//672 687//714 729//715
f 679//708 681//672 729//715
f 679//708 729//715 730//712
f 688//716 634//624 682//673
f 631//620 683//713 682//673
f 688//716 682//673 683//713
f 688//716 683//713 684//711
f 740//717 688//716 684//711
f 630//621 633//674 686//718
f 686//718 685//671 630//621
f 685//671 686//718 687//714
f 729//715 687//714 734//719
f 688//716 740//717 741//720
f 688//716 691//721 635//626
f 688//716 635//626 634//624
f 633//674 689//675 690//722
f 690//722 689//675 692//723
f 633//674 690//722 686//718
f 690//722 742//724 686//718
f 691//721 741//720 693//676
f 691//721 688//716 741//720
f 691//721 693//676 635//626
f 695//678 692//723 689//675
f 693//676 750//725 694//726
f 637//679 696//727 695//678
f 696//727 637//679 697//680
f 696//727 697//680 753//728
f 692//723 695//678 751//729
f 751//729 695//678 696//727
f 693//676 694//726 590//570
f 694//726 698//569 590//570
f 753//728 697//680 755//730
f 699//731 697//680 642//627
f 697//680 699//731 755//730
f 644//516 698//569 756//732
f 644//516 756//732 653//653
f 760//733 642//627 700//682
f 704//734 760//733 700//682
f 760//733 699//731 642//627
f 755//730 699//731 760//733
f 768//735 653//653 756//732
f 700//682 702//684 704//734
f 702//684 701//683 703//736
f 704//734 702//684 703//736
f 769//737 703//736 701//683
f 769//737 704//734 703//736
f 760//733 704//734 762//738
f 762//738 704//734 769//737
f 763//739 705//688 764//740
f 705//688 651//645 766//741
f 767//742 651//645 707//689
f 766//741 651//645 767//742
f 771//743 769//737 701//683
f 706//687 770//685 646//636
f 776//744 706//687 763//739
f 770//685 706//687 776//744
f 763//739 706//687 705//688
f 710//745 655//690 711//746
f 655//690 710//745 707//689
f 709//691 708//692 657//652
f 779//747 708//692 709//691
f 779//747 720//748 708//692
f 713//749 711//746 655//690
f 711//746 713//749 780//750
f 713//749 655//690 712//694
f 713//749 712//694 781//751
f 662//657 716//752 661//696
f 715//753 662//657 719//693
f 662//657 715//753 716//752
f 712//694 714//695 716//752
f 661//696 716//752 714//695
f 889//754 715//753 718//755
f 718//755 712//694 716//752
f 712//694 718//755 781//751
f 715//753 717//756 718//755
f 708//692 720//748 719//693
f 715//753 719//693 720//748
f 720//748 717//756 715//753
f 663//603 722//704 672//699
f 663//603 721//703 722//704
f 722//704 721//703 724//710
f 723//698 722//704 726//757
f 670//702 676//709 724//710
f 722//704 724//710 726//757
f 723//698 726//757 725//705
f 728//758 725//705 726//757
f 724//710 728//758 726//757
f 725//705 728//758 733//759
f 727//760 724//710 676//709
f 676//709 730//712 727//760
f 728//758 724//710 727//760
f 728//758 731//761 738//762
f 727//760 731//761 728//758
f 733//759 684//711 725//705
f 730//712 736//763 731//761
f 727//760 730//712 731//761
f 728//758 738//762 733//759
f 733//759 738//762 739//764
f 733//759 732//765 684//711
f 732//765 739//764 741//720
f 732//765 733//759 739//764
f 684//711 732//765 740//717
f 743//766 734//719 687//714
f 735//767 734//719 787//768
f 735//767 729//715 734//719
f 782//769 729//715 735//767
f 730//712 729//715 782//769
f 736//763 737//770 731//761
f 731//761 737//770 738//762
f 739//764 738//762 744//771
f 738//762 737//770 744//771
f 744//771 746//772 739//764
f 740//717 732//765 741//720
f 687//714 686//718 742//724
f 690//722 748//773 742//724
f 687//714 742//724 743//766
f 734//719 743//766 785//774
f 785//774 787//768 734//719
f 744//771 737//770 745//775
f 746//772 744//771 745//775
f 746//772 750//725 741//720
f 746//772 749//776 750//725
f 741//720 739//764 746//772
f 750//725 693//676 741//720
f 690//722 692//723 748//773
f 692//723 747//777 748//773
f 748//773 747//777 783//778
f 790//779 742//724 748//773
f 694//726 750//725 749//776
f 749//776 752//780 694//726
f 749//776 746//772 745//775
f 752//780 749//776 745//775
f 796//781 752//780 745//775
f 696//727 753//728 754//782
f 751//729 696//727 754//782
f 747//777 692//723 751//729
f 754//782 789//783 751//729
f 747//777 751//729 789//783
f 694//726 752//780 698//569
f 754//782 753//728 755//730
f 793//784 789//783 754//782
f 755//730 793//784 754//782
f 698//569 752//780 757//785
f 698//569 757//785 756//732
f 757//785 758//786 756//732
f 756//732 758//786 768//735
f 757//785 752//780 759//787
f 757//785 759//787 758//786
f 796//781 759//787 752//780
f 755//730 760//733 761//788
f 761//788 800//789 755//730
f 762//738 761//788 760//733
f 761//788 762//738 800//789
f 800//789 762//738 801//790
f 765//791 763//739 764//740
f 764//740 705//688 766//741
f 805//792 765//791 764//740
f 805//792 764//740 766//741
f 809//793 766//741 811//794
f 767//742 777//795 812//796
f 811//794 766//741 812//796
f 766//741 767//742 812//796
f 709//691 653//653 779//747
f 758//786 814//797 768//735
f 768//735 779//747 653//653
f 768//735 813//798 779//747
f 768//735 814//797 813//798
f 772//799 762//738 769//737
f 769//737 771//743 772//799
f 701//683 770//685 771//743
f 771//743 770//685 773//800
f 772//799 771//743 773//800
f 762//738 772//799 801//790
f 774//801 801//790 772//799
f 773//800 774//801 772//799
f 774//801 773//800 775//802
f 802//803 801//790 774//801
f 775//802 802//803 774//801
f 763//739 765//791 776//744
f 776//744 805//792 775//802
f 805//792 776//744 765//791
f 775//802 770//685 776//744
f 770//685 775//802 773//800
f 707//689 778//804 767//742
f 778//804 707//689 815//805
f 777//795 767//742 778//804
f 780//750 710//745 711//746
f 710//745 780//750 816//806
f 707//689 817//807 815//805
f 707//689 710//745 816//806
f 826//808 816//806 780//750
f 828//809 826//808 780//750
f 781//751 828//809 780//750
f 780//750 713//749 781//751
f 718//755 717//756 781//751
f 820//810 717//756 720//748
f 820//810 781//751 717//756
f 720//748 822//811 820//810
f 720//748 779//747 822//811
f 730//712 782//769 736//763
f 785//774 743//766 784//812
f 782//769 737//770 736//763
f 782//769 788//813 737//770
f 737//770 788//813 745//775
f 742//724 784//812 743//766
f 748//773 783//778 790//779
f 784//812 742//724 790//779
f 784//812 790//779 792//814
f 784//812 792//814 785//774
f 785//774 792//814 834//815
f 787//768 785//774 786//816
f 785//774 834//815 786//816
f 832//817 787//768 786//816
f 782//769 735//767 787//768
f 832//817 782//769 787//768
f 747//777 789//783 783//778
f 789//783 791//818 783//778
f 789//783 794//819 791//818
f 791//818 794//819 795//820
f 790//779 783//778 791//818
f 792//814 790//779 791//818
f 792//814 791//818 833//821
f 841//822 745//775 788//813
f 796//781 745//775 842//823
f 789//783 793//784 794//819
f 797//824 795//820 794//819
f 755//730 797//824 793//784
f 797//824 794//819 793//784
f 804//825 795//820 797//824
f 799//826 759//787 796//781
f 844//827 799//826 796//781
f 755//730 800//789 797//824
f 797//824 803//828 804//825
f 795//820 804//825 798//829
f 803//828 798//829 804//825
f 803//828 800//789 801//790
f 800//789 803//828 797//824
f 801//790 802//803 803//828
f 802//803 806//830 803//828
f 803//828 806//830 808//831
f 806//830 805//792 807//832
f 806//830 807//832 808//831
f 798//829 803//828 808//831
f 805//792 810//833 807//832
f 805//792 809//793 810//833
f 850//834 807//832 810//833
f 850//834 808//831 807//832
f 805//792 766//741 809//793
f 809//793 811//794 810//833
f 811//794 851//835 849//836
f 851//835 811//794 812//796
f 860//837 814//797 854//838
f 814//797 758//786 759//787
f 813//798 814//797 860//837
f 814//797 759//787 799//826
f 805//792 806//830 775//802
f 806//830 802//803 775//802
f 856//839 812//796 777//795
f 815//805 777//795 778//804
f 815//805 856//839 777//795
f 824//840 779//747 813//798
f 813//798 860//837 824//840
f 815//805 862//841 856//839
f 816//806 817//807 707//689
f 817//807 816//806 818//842
f 818//842 815//805 817//807
f 815//805 818//842 819//843
f 862//841 815//805 819//843
f 831//844 823//845 867//846
f 820//810 822//811 821//847
f 821//847 781//751 820//810
f 824//840 822//811 779//747
f 824//840 825//848 822//811
f 823//845 822//811 825//848
f 823//845 821//847 822//811
f 825//848 824//840 872//849
f 825//848 873//850 823//845
f 818//842 816//806 826//808
f 818//842 827//851 819//843
f 826//808 827//851 818//842
f 826//808 828//809 827//851
f 828//809 781//751 830//852
f 828//809 830//852 829//853
f 827//851 828//809 829//853
f 827//851 829//853 875//854
f 863//855 827//851 875//854
f 831//844 781//751 821//847
f 830//852 831//844 876//856
f 821//847 823//845 831//844
f 781//751 831//844 830//852
f 835//857 786//816 834//815
f 837//858 786//816 835//857
f 838//859 782//769 832//817
f 786//816 837//858 832//817
f 837//858 838//859 832//817
f 833//821 791//818 795//820
f 792//814 833//821 834//815
f 836//860 833//821 839//861
f 836//860 834//815 833//821
f 834//815 836//860 835//857
f 835//857 836//860 840//862
f 838//859 837//858 840//862
f 837//858 835//857 840//862
f 841//822 782//769 838//859
f 841//822 838//859 840//862
f 841//822 788//813 782//769
f 839//861 833//821 795//820
f 839//861 795//820 798//829
f 840//862 836//860 877//863
f 836//860 839//861 877//863
f 878//864 840//862 877//863
f 878//864 879//865 840//862
f 840//862 879//865 841//822
f 745//775 841//822 842//823
f 844//827 796//781 842//823
f 798//829 845//866 839//861
f 839//861 843//867 877//863
f 877//863 843//867 880//868
f 841//822 848//869 844//827
f 844//827 842//823 841//822
f 798//829 808//831 845//866
f 845//866 808//831 843//867
f 808//831 850//834 843//867
f 839//861 845//866 843//867
f 850//834 849//836 846//870
f 846//870 849//836 847//871
f 846//870 843//867 850//834
f 846//870 847//871 843//867
f 847//871 853//872 843//867
f 853//872 847//871 852//873
f 880//868 843//867 853//872
f 848//869 883//874 861//875
f 883//874 859//876 861//875
f 844//827 854//838 799//826
f 810//833 811//794 849//836
f 849//836 850//834 810//833
f 851//835 847//871 849//836
f 852//873 847//871 851//835
f 812//796 856//839 855//877
f 852//873 851//835 812//796
f 852//873 812//796 855//877
f 852//873 855//877 857//878
f 852//873 857//878 853//872
f 853//872 858//879 880//868
f 853//872 857//878 858//879
f 880//868 858//879 882//880
f 870//881 882//880 858//879
f 859//876 882//880 870//881
f 848//869 861//875 844//827
f 799//826 854//838 814//797
f 854//838 844//827 861//875
f 857//878 855//877 856//839
f 864//882 858//879 857//878
f 870//881 858//879 866//883
f 859//876 868//884 861//875
f 860//837 854//838 861//875
f 871//885 860//837 861//875
f 860//837 871//885 824//840
f 874//886 871//885 861//875
f 856//839 862//841 857//878
f 864//882 857//878 862//841
f 827//851 863//855 819//843
f 863//855 862//841 819//843
f 863//855 864//882 862//841
f 875//854 865//887 863//855
f 864//882 863//855 865//887
f 864//882 866//883 858//879
f 865//887 876//856 869//888
f 875//854 876//856 865//887
f 864//882 865//887 866//883
f 866//883 869//888 870//881
f 869//888 866//883 865//887
f 823//845 873//850 867//846
f 867//846 869//888 876//856
f 868//884 869//888 867//846
f 868//884 870//881 869//888
f 859//876 870//881 868//884
f 824//840 871//885 872//849
f 825//848 872//849 873//850
f 872//849 871//885 874//886
f 861//875 868//884 874//886
f 868//884 872//849 874//886
f 867//846 873//850 868//884
f 873//850 872//849 868//884
f 829//853 876//856 875//854
f 831//844 867//846 876//856
f 876//856 829//853 830//852
f 879//865 881//889 841//822
f 879//865 880//868 881//889
f 879//865 878//864 880//868
f 877//863 880//868 878//864
f 881//889 880//868 883//874
f 881//889 883//874 848//869
f 880//868 882//880 883//874
f 881//889 848//869 841//822
f 882//880 859//876 883//874
