# Blender 4.0.2
# www.blender.org
mtllib jaw_right_lower_canine_tooth.mtl
o jaw_right_lower_canine_tooth
v 0.090528 -0.029838 0.016917
v 0.090595 -0.029128 0.017117
v 0.090311 -0.029528 0.016883
v 0.090129 -0.029098 0.016822
v 0.091139 -0.029348 0.017216
v 0.092717 -0.030738 0.016904
v 0.090353 -0.028378 0.016904
v 0.090580 -0.027938 0.016817
v 0.090972 -0.028438 0.017319
v 0.092569 -0.029478 0.017278
v 0.093376 -0.029368 0.017192
v 0.093746 -0.030068 0.016879
v 0.091157 -0.027788 0.017298
v 0.090900 -0.027748 0.017071
v 0.091430 -0.027278 0.016972
v 0.092171 -0.028228 0.017530
v 0.093033 -0.028658 0.017403
v 0.094351 -0.028998 0.016862
v 0.091898 -0.027068 0.017221
v 0.092222 -0.027338 0.017553
v 0.092573 -0.027448 0.017620
v 0.092717 -0.027138 0.017588
v 0.092430 -0.026988 0.017491
v 0.092898 -0.027658 0.017580
v 0.093014 -0.027308 0.017575
v 0.093834 -0.028498 0.017214
v 0.093837 -0.027718 0.017303
v 0.094476 -0.028048 0.016977
v 0.092866 -0.026848 0.017476
v 0.092523 -0.026688 0.017228
v 0.093013 -0.026578 0.017197
v 0.092419 -0.026668 0.017054
v 0.092683 -0.026558 0.017065
v 0.093209 -0.027018 0.017467
v 0.093310 -0.026708 0.017251
v 0.093872 -0.026838 0.017115
v 0.094463 -0.027298 0.017000
v 0.090509 -0.033158 0.016104
v 0.089652 -0.032218 0.016082
v 0.091962 -0.033508 0.016031
v 0.089037 -0.030088 0.015972
v 0.089854 -0.030938 0.016432
v 0.089566 -0.030398 0.016344
v 0.089803 -0.028648 0.016336
v 0.089798 -0.028588 0.016090
v 0.093613 -0.031128 0.016566
v 0.090487 -0.027978 0.016387
v 0.090357 -0.028218 0.015963
v 0.094480 -0.030438 0.016328
v 0.091412 -0.027248 0.016533
v 0.091068 -0.027528 0.016490
v 0.091137 -0.027478 0.016313
v 0.091512 -0.027388 0.015984
v 0.095326 -0.029878 0.015933
v 0.095223 -0.028698 0.016370
v 0.093243 -0.026368 0.016683
v 0.092415 -0.026638 0.016436
v 0.095476 -0.027498 0.016415
v 0.095925 -0.028068 0.016005
v 0.093234 -0.026228 0.016083
v 0.093668 -0.026398 0.016795
v 0.093974 -0.026168 0.016546
v 0.093724 -0.026108 0.016353
v 0.094491 -0.025838 0.016230
v 0.094121 -0.025818 0.016144
v 0.094735 -0.026789 0.016776
v 0.094612 -0.026288 0.016601
v 0.095197 -0.026588 0.016498
v 0.095336 -0.027008 0.016499
v 0.095526 -0.026708 0.016324
v 0.096049 -0.027018 0.015957
v 0.095357 -0.026278 0.016271
v 0.094855 -0.025919 0.016231
v 0.095658 -0.026428 0.016142
v 0.095941 -0.026568 0.015955
v 0.089208 -0.037228 0.015039
v 0.090195 -0.036928 0.015245
v 0.091119 -0.037328 0.014969
v 0.088234 -0.035288 0.014942
v 0.089449 -0.035288 0.015519
v 0.088950 -0.035728 0.015264
v 0.088846 -0.034248 0.015428
v 0.088547 -0.031688 0.015502
v 0.089028 -0.032148 0.015791
v 0.093023 -0.034808 0.015320
v 0.088686 -0.029968 0.015594
v 0.088654 -0.029788 0.015461
v 0.088828 -0.029548 0.015482
v 0.089040 -0.029419 0.015794
v 0.089299 -0.029098 0.015614
v 0.089510 -0.029038 0.015250
v 0.094959 -0.031848 0.015310
v 0.090841 -0.028278 0.015440
v 0.090954 -0.028108 0.015583
v 0.091101 -0.028088 0.015442
v 0.091140 -0.028168 0.015083
v 0.095625 -0.030428 0.015437
v 0.091004 -0.027818 0.015864
v 0.091218 -0.027808 0.015663
v 0.091580 -0.027658 0.015180
v 0.092240 -0.026908 0.015679
v 0.096160 -0.028948 0.015556
v 0.096409 -0.029448 0.015092
v 0.093069 -0.026278 0.015564
v 0.096457 -0.028288 0.015464
v 0.096636 -0.028758 0.015121
v 0.096743 -0.028098 0.015129
v 0.093726 -0.025818 0.015822
v 0.093647 -0.025758 0.015474
v 0.096212 -0.027488 0.015825
v 0.096377 -0.027168 0.015646
v 0.096517 -0.027618 0.015492
v 0.096712 -0.027358 0.015151
v 0.094261 -0.025588 0.015809
v 0.094620 -0.025588 0.015811
v 0.094008 -0.025568 0.015583
v 0.093933 -0.025538 0.015256
v 0.094341 -0.025398 0.015182
v 0.094771 -0.025418 0.015280
v 0.094957 -0.025668 0.015815
v 0.095539 -0.025898 0.015820
v 0.095609 -0.025728 0.015491
v 0.095819 -0.026108 0.015819
v 0.096166 -0.026168 0.015490
v 0.095931 -0.025888 0.015485
v 0.096231 -0.026018 0.015135
v 0.095955 -0.025768 0.015136
v 0.096247 -0.026708 0.015687
v 0.096459 -0.026858 0.015462
v 0.096367 -0.026548 0.015460
v 0.096639 -0.026918 0.015142
v 0.096430 -0.026358 0.015139
v 0.082724 -0.050378 0.013910
v 0.082795 -0.050778 0.013861
v 0.082758 -0.049638 0.013953
v 0.083508 -0.050558 0.013966
v 0.084045 -0.050468 0.013922
v 0.083087 -0.049268 0.014112
v 0.082926 -0.049068 0.013955
v 0.083652 -0.049128 0.014293
v 0.083613 -0.049708 0.014188
v 0.084682 -0.049708 0.014044
v 0.083533 -0.048648 0.014243
v 0.083880 -0.048008 0.014228
v 0.083342 -0.048528 0.014088
v 0.084438 -0.048508 0.014432
v 0.084054 -0.048328 0.014371
v 0.084650 -0.048988 0.014325
v 0.083949 -0.047288 0.013973
v 0.084904 -0.048328 0.014431
v 0.084689 -0.047658 0.014410
v 0.085259 -0.048398 0.014313
v 0.085929 -0.048098 0.013974
v 0.085793 -0.046858 0.014405
v 0.086519 -0.046208 0.014266
v 0.086213 -0.044938 0.014244
v 0.087348 -0.043028 0.014263
v 0.087644 -0.043228 0.014239
v 0.087099 -0.042468 0.014169
v 0.088330 -0.043108 0.014009
v 0.087564 -0.041048 0.014228
v 0.087821 -0.041158 0.014289
v 0.088673 -0.040958 0.014323
v 0.089172 -0.041348 0.014091
v 0.088113 -0.039538 0.014386
v 0.088585 -0.039678 0.014504
v 0.089036 -0.040758 0.014302
v 0.088865 -0.038868 0.014675
v 0.088093 -0.038568 0.014362
v 0.089641 -0.039438 0.014525
v 0.090347 -0.039468 0.014226
v 0.087788 -0.037578 0.014227
v 0.087360 -0.036018 0.014268
v 0.087282 -0.035368 0.014292
v 0.088294 -0.036168 0.014816
v 0.091608 -0.037778 0.014482
v 0.087559 -0.034048 0.014516
v 0.092602 -0.036668 0.014486
v 0.092667 -0.036928 0.014167
v 0.093053 -0.036298 0.014264
v 0.093032 -0.035758 0.014765
v 0.093452 -0.035258 0.014789
v 0.093698 -0.035618 0.014196
v 0.093933 -0.035078 0.014378
v 0.087577 -0.031038 0.014252
v 0.087896 -0.030388 0.014315
v 0.088245 -0.030198 0.014913
v 0.088273 -0.030058 0.014689
v 0.088513 -0.029818 0.014504
v 0.088077 -0.030108 0.014160
v 0.089045 -0.029688 0.014295
v 0.095574 -0.031638 0.014733
v 0.090529 -0.028708 0.014700
v 0.091396 -0.028038 0.014456
v 0.095920 -0.030938 0.014787
v 0.096028 -0.031188 0.014400
v 0.096576 -0.029988 0.014454
v 0.092646 -0.026718 0.014877
v 0.096765 -0.028988 0.014787
v 0.096854 -0.028508 0.014794
v 0.096868 -0.028108 0.014812
v 0.096880 -0.028928 0.014460
v 0.096921 -0.028178 0.014473
v 0.093567 -0.025838 0.014861
v 0.093709 -0.025928 0.014486
v 0.096813 -0.027398 0.014809
v 0.096837 -0.027418 0.014462
v 0.093983 -0.025548 0.014836
v 0.094346 -0.025418 0.014822
v 0.094722 -0.025378 0.014844
v 0.094209 -0.025678 0.014437
v 0.094652 -0.025538 0.014497
v 0.095057 -0.025438 0.014846
v 0.095638 -0.025608 0.014841
v 0.095069 -0.025508 0.014614
v 0.096203 -0.026038 0.014521
v 0.095920 -0.025838 0.014474
v 0.096631 -0.026718 0.014788
v 0.096440 -0.026338 0.014452
v 0.081594 -0.051048 0.013044
v 0.082280 -0.051528 0.013507
v 0.082189 -0.051218 0.013587
v 0.082016 -0.051539 0.013419
v 0.081864 -0.051358 0.013379
v 0.081820 -0.051678 0.013247
v 0.082007 -0.051778 0.013256
v 0.081761 -0.051018 0.013282
v 0.081627 -0.051568 0.013136
v 0.082871 -0.051348 0.013675
v 0.082592 -0.051608 0.013509
v 0.082858 -0.051738 0.013373
v 0.082254 -0.051828 0.013265
v 0.083073 -0.051838 0.013178
v 0.082514 -0.051978 0.013045
v 0.083414 -0.051688 0.013261
v 0.083258 -0.051838 0.013027
v 0.083529 -0.051698 0.013050
v 0.082008 -0.050308 0.013384
v 0.082177 -0.050548 0.013608
v 0.083495 -0.051058 0.013772
v 0.083899 -0.050988 0.013692
v 0.083370 -0.051508 0.013504
v 0.083638 -0.051498 0.013386
v 0.084111 -0.051148 0.013383
v 0.083693 -0.051539 0.013264
v 0.083930 -0.051408 0.013154
v 0.082254 -0.049598 0.013393
v 0.082173 -0.049368 0.013013
v 0.082524 -0.049518 0.013719
v 0.084404 -0.050638 0.013627
v 0.084658 -0.050558 0.013392
v 0.084352 -0.051008 0.013170
v 0.084844 -0.050418 0.013072
v 0.082646 -0.049028 0.013614
v 0.085100 -0.049988 0.013309
v 0.083005 -0.048128 0.013389
v 0.083176 -0.048218 0.013745
v 0.085157 -0.049478 0.013830
v 0.085909 -0.048448 0.013696
v 0.083903 -0.046598 0.013351
v 0.084356 -0.045608 0.013235
v 0.084804 -0.045928 0.013892
v 0.084370 -0.046178 0.013658
v 0.087095 -0.046318 0.013754
v 0.085055 -0.044438 0.013415
v 0.086144 -0.042258 0.013681
v 0.089020 -0.042428 0.013719
v 0.086182 -0.039828 0.013378
v 0.086924 -0.039438 0.013810
v 0.089899 -0.041018 0.013622
v 0.090529 -0.040408 0.013370
v 0.086216 -0.037758 0.013260
v 0.087255 -0.037918 0.013952
v 0.086542 -0.038238 0.013557
v 0.090396 -0.040208 0.013708
v 0.086841 -0.035258 0.013919
v 0.092317 -0.037878 0.013634
v 0.086760 -0.034028 0.013723
v 0.093531 -0.036138 0.013616
v 0.087385 -0.031548 0.014180
v 0.086964 -0.031458 0.013461
v 0.094449 -0.034458 0.014063
v 0.094130 -0.035338 0.013622
v 0.087650 -0.030368 0.013796
v 0.087311 -0.030778 0.013672
v 0.087503 -0.030418 0.013556
v 0.087700 -0.030248 0.013584
v 0.087568 -0.030338 0.013338
v 0.088318 -0.029958 0.013883
v 0.089231 -0.029658 0.014099
v 0.088936 -0.029798 0.013805
v 0.095522 -0.032338 0.014113
v 0.095895 -0.031978 0.013753
v 0.090688 -0.028718 0.014110
v 0.096322 -0.031118 0.013794
v 0.096552 -0.030658 0.013450
v 0.092669 -0.027328 0.013802
v 0.096720 -0.029898 0.014099
v 0.096797 -0.029428 0.013753
v 0.096893 -0.028878 0.014105
v 0.096881 -0.028118 0.013925
v 0.093954 -0.026248 0.014063
v 0.094777 -0.026148 0.013895
v 0.094445 -0.026568 0.013450
v 0.095265 -0.026298 0.013548
v 0.096755 -0.027308 0.013863
v 0.096664 -0.027288 0.013474
v 0.096509 -0.026898 0.013530
v 0.096767 -0.027728 0.013483
v 0.095468 -0.025948 0.014112
v 0.095746 -0.026178 0.013802
v 0.096061 -0.026308 0.013825
v 0.081321 -0.051628 0.012492
v 0.081671 -0.051958 0.012939
v 0.081906 -0.052028 0.012943
v 0.081464 -0.051888 0.012822
v 0.081405 -0.051678 0.012821
v 0.081716 -0.052128 0.012711
v 0.081495 -0.052078 0.012612
v 0.081667 -0.052188 0.012491
v 0.081900 -0.052208 0.012498
v 0.081354 -0.051878 0.012501
v 0.081481 -0.052088 0.012395
v 0.081778 -0.052208 0.012377
v 0.081430 -0.051958 0.012274
v 0.081589 -0.052128 0.012283
v 0.081922 -0.052198 0.012286
v 0.081620 -0.052038 0.012143
v 0.081798 -0.052148 0.012177
v 0.082022 -0.052138 0.012169
v 0.081384 -0.051688 0.012189
v 0.082078 -0.052148 0.012720
v 0.082180 -0.052188 0.012502
v 0.082198 -0.052159 0.012290
v 0.082108 -0.052058 0.012087
v 0.082234 -0.052088 0.012176
v 0.081396 -0.051308 0.012713
v 0.081407 -0.051068 0.012308
v 0.081370 -0.051428 0.012185
v 0.082716 -0.052038 0.012828
v 0.082783 -0.052058 0.012609
v 0.082711 -0.052018 0.012392
v 0.082824 -0.051868 0.012289
v 0.083194 -0.051868 0.012717
v 0.081847 -0.050098 0.012971
v 0.081580 -0.050558 0.012630
v 0.081852 -0.049818 0.012632
v 0.081764 -0.049968 0.012207
v 0.083817 -0.051498 0.012937
v 0.084281 -0.051068 0.012933
v 0.083753 -0.051448 0.012714
v 0.082311 -0.048898 0.012666
v 0.082086 -0.049228 0.012222
v 0.084834 -0.050238 0.012604
v 0.084314 -0.050608 0.012423
v 0.084951 -0.050228 0.012834
v 0.085527 -0.049378 0.012979
v 0.083685 -0.046648 0.012976
v 0.083828 -0.046088 0.012272
v 0.086475 -0.047718 0.012270
v 0.084394 -0.045088 0.012815
v 0.084785 -0.044368 0.013037
v 0.084722 -0.044098 0.012599
v 0.087794 -0.045618 0.012870
v 0.085006 -0.042938 0.012306
v 0.085344 -0.042588 0.013053
v 0.085869 -0.039718 0.013026
v 0.085658 -0.039398 0.012606
v 0.090358 -0.040948 0.012973
v 0.086150 -0.035198 0.012556
v 0.092423 -0.038248 0.012701
v 0.086393 -0.033798 0.012879
v 0.092977 -0.037278 0.013157
v 0.093034 -0.037388 0.012578
v 0.086580 -0.032438 0.012465
v 0.094051 -0.035668 0.012836
v 0.087062 -0.030948 0.013209
v 0.086821 -0.031508 0.012987
v 0.087087 -0.030919 0.012808
v 0.086845 -0.031408 0.012572
v 0.087148 -0.030958 0.012463
v 0.087267 -0.030648 0.013236
v 0.087374 -0.030578 0.012909
v 0.087532 -0.030658 0.012474
v 0.087935 -0.030138 0.013227
v 0.088880 -0.029878 0.012803
v 0.089086 -0.029728 0.013227
v 0.089863 -0.029348 0.012905
v 0.095806 -0.032408 0.013170
v 0.095990 -0.032028 0.012755
v 0.091117 -0.028808 0.012888
v 0.091886 -0.028298 0.013100
v 0.096262 -0.031518 0.013148
v 0.096364 -0.031178 0.012900
v 0.096367 -0.030928 0.012680
v 0.096165 -0.031318 0.012458
v 0.096525 -0.030368 0.012917
v 0.093442 -0.027378 0.013128
v 0.094401 -0.027058 0.012540
v 0.096154 -0.027818 0.012398
v 0.096717 -0.028478 0.013141
v 0.095227 -0.026508 0.012887
v 0.094905 -0.026748 0.012562
v 0.095598 -0.026528 0.012915
v 0.095875 -0.026678 0.012874
v 0.095491 -0.026708 0.012544
v 0.095746 -0.026918 0.012496
v 0.096428 -0.027058 0.013163
v 0.096218 -0.026728 0.013230
v 0.096307 -0.027248 0.012822
v 0.096121 -0.026918 0.012846
v 0.096473 -0.027848 0.012748
v 0.081869 -0.052048 0.012059
v 0.081520 -0.051758 0.012033
v 0.081640 -0.051808 0.011981
v 0.081575 -0.051638 0.011964
v 0.082297 -0.051968 0.012069
v 0.081476 -0.051128 0.012064
v 0.081437 -0.051468 0.012055
v 0.081559 -0.051238 0.011958
v 0.082049 -0.051668 0.011871
v 0.081812 -0.051398 0.011842
v 0.082264 -0.051778 0.011946
v 0.082676 -0.051678 0.012022
v 0.081934 -0.049798 0.011884
v 0.083162 -0.051318 0.012073
v 0.082024 -0.049418 0.011992
v 0.082295 -0.049078 0.011773
v 0.082185 -0.049808 0.011638
v 0.082649 -0.049908 0.011446
v 0.083572 -0.050178 0.011595
v 0.083165 -0.050198 0.011474
v 0.082447 -0.048598 0.011995
v 0.082905 -0.048398 0.011463
v 0.082970 -0.048968 0.011327
v 0.084284 -0.049108 0.011388
v 0.085906 -0.048228 0.011901
v 0.083988 -0.046548 0.011378
v 0.084097 -0.045798 0.011702
v 0.084740 -0.043958 0.011871
v 0.084909 -0.043788 0.011343
v 0.085471 -0.040838 0.011697
v 0.090394 -0.041208 0.011840
v 0.086076 -0.036188 0.011928
v 0.091864 -0.039108 0.012240
v 0.091957 -0.038968 0.011621
v 0.092724 -0.037878 0.012141
v 0.086382 -0.034128 0.012085
v 0.086615 -0.034228 0.011672
v 0.093000 -0.037358 0.011943
v 0.086585 -0.032718 0.012120
v 0.086628 -0.033068 0.011891
v 0.093426 -0.036298 0.011518
v 0.086744 -0.031888 0.012221
v 0.086894 -0.032528 0.011658
v 0.087167 -0.032158 0.011478
v 0.087281 -0.031018 0.012123
v 0.086954 -0.031558 0.012026
v 0.087242 -0.031338 0.011807
v 0.087463 -0.031098 0.011812
v 0.087280 -0.031638 0.011560
v 0.087627 -0.031198 0.011592
v 0.087821 -0.030858 0.011821
v 0.094519 -0.034538 0.011916
v 0.094411 -0.034428 0.011543
v 0.095183 -0.032568 0.011561
v 0.090179 -0.029508 0.012169
v 0.091334 -0.029178 0.011872
v 0.095738 -0.032018 0.012105
v 0.095806 -0.031128 0.011842
v 0.095451 -0.031218 0.011526
v 0.096255 -0.030688 0.012388
v 0.092746 -0.028198 0.012411
v 0.093282 -0.028298 0.011941
v 0.093524 -0.028698 0.011619
v 0.095425 -0.029748 0.011540
v 0.096101 -0.030328 0.012080
v 0.095887 -0.030198 0.011826
v 0.093589 -0.027768 0.012330
v 0.094948 -0.028688 0.011596
v 0.095577 -0.028638 0.011812
v 0.096209 -0.029548 0.012192
v 0.095995 -0.029408 0.011967
v 0.094690 -0.027038 0.012337
v 0.094934 -0.027068 0.012199
v 0.094626 -0.027368 0.012068
v 0.094965 -0.027248 0.012066
v 0.095151 -0.027378 0.012013
v 0.094785 -0.027588 0.011916
v 0.095087 -0.026789 0.012422
v 0.095350 -0.026978 0.012235
v 0.095646 -0.027108 0.012291
v 0.095528 -0.027368 0.012142
v 0.095926 -0.027288 0.012400
v 0.083819 -0.047388 0.011203
v 0.084449 -0.048018 0.011000
v 0.084263 -0.047758 0.010993
v 0.084533 -0.046388 0.010998
v 0.084606 -0.045508 0.011099
v 0.085187 -0.046268 0.010669
v 0.085730 -0.046198 0.010560
v 0.085228 -0.045348 0.010624
v 0.086319 -0.046008 0.010564
v 0.087866 -0.045168 0.011360
v 0.085271 -0.042848 0.010977
v 0.085340 -0.043358 0.010670
v 0.088953 -0.043138 0.010580
v 0.085946 -0.040068 0.010950
v 0.089343 -0.042788 0.010836
v 0.090000 -0.041878 0.011167
v 0.090355 -0.041278 0.011208
v 0.090285 -0.041218 0.010722
v 0.091150 -0.040078 0.011412
v 0.090666 -0.040418 0.010548
v 0.091603 -0.039238 0.011124
v 0.087445 -0.033148 0.011131
v 0.093249 -0.036148 0.011083
v 0.087827 -0.031548 0.011265
v 0.088183 -0.032368 0.010994
v 0.088412 -0.031558 0.011049
v 0.088066 -0.031048 0.011421
v 0.088583 -0.030698 0.011505
v 0.088519 -0.031128 0.011179
v 0.094062 -0.034408 0.011049
v 0.089695 -0.031128 0.010884
v 0.094448 -0.033108 0.011008
v 0.091066 -0.030378 0.010957
v 0.091682 -0.030858 0.010679
v 0.093251 -0.030978 0.010697
v 0.091040 -0.029758 0.011424
v 0.094848 -0.031228 0.011150
v 0.094920 -0.029618 0.011360
v 0.086262 -0.045598 0.010360
v 0.085843 -0.045518 0.010385
v 0.086423 -0.044368 0.009949
v 0.087336 -0.044958 0.010427
v 0.086312 -0.042488 0.009823
v 0.087688 -0.043608 0.009740
v 0.088687 -0.042508 0.009709
v 0.086273 -0.040748 0.010128
v 0.086492 -0.040758 0.009869
v 0.089651 -0.041598 0.010082
v 0.089866 -0.040768 0.009739
v 0.090858 -0.039688 0.010269
v 0.086983 -0.037669 0.010307
v 0.090693 -0.039278 0.009828
v 0.088045 -0.036238 0.009935
v 0.091316 -0.037598 0.009824
v 0.091543 -0.037898 0.010158
v 0.089302 -0.035078 0.009715
v 0.088928 -0.034688 0.009955
v 0.091925 -0.035738 0.009793
v 0.089707 -0.033918 0.009941
v 0.090606 -0.033038 0.010029
v 0.091315 -0.033378 0.009898
v 0.093074 -0.034668 0.010305
v 0.090269 -0.032218 0.010435
v 0.091184 -0.032678 0.010077
v 0.092287 -0.032528 0.010155
v 0.092468 -0.033218 0.010052
v 0.093108 -0.033658 0.010242
v 0.087428 -0.043168 0.009481
v 0.086808 -0.042508 0.009503
v 0.087210 -0.042618 0.009358
v 0.087937 -0.042448 0.009304
v 0.087635 -0.042258 0.009233
v 0.087411 -0.041798 0.009192
v 0.088200 -0.042638 0.009463
v 0.086952 -0.041018 0.009426
v 0.087216 -0.041648 0.009250
v 0.088550 -0.041958 0.009332
v 0.087256 -0.039928 0.009380
v 0.087477 -0.040398 0.009180
v 0.087701 -0.040748 0.009066
v 0.087946 -0.040238 0.009034
v 0.088312 -0.041028 0.009039
v 0.088007 -0.040668 0.009003
v 0.088423 -0.040308 0.008995
v 0.089260 -0.041038 0.009361
v 0.088690 -0.041218 0.009146
v 0.088393 -0.039378 0.009077
v 0.089798 -0.040248 0.009418
v 0.089055 -0.040508 0.009117
v 0.087370 -0.038738 0.009620
v 0.087912 -0.038508 0.009352
v 0.090235 -0.039118 0.009393
v 0.088795 -0.036848 0.009486
v 0.090087 -0.037898 0.009314
v 0.090172 -0.036788 0.009358
v 0.090131 -0.034718 0.009674
v 0.091420 -0.035648 0.009618
vn -0.3304 -0.2244 0.9168
vn -0.1608 -0.2173 0.9628
vn -0.4069 -0.1058 0.9073
vn -0.4167 -0.1607 0.8948
vn -0.1198 -0.2229 0.9674
vn 0.0886 -0.3005 0.9496
vn 0.1027 -0.3039 0.9472
vn -0.4863 -0.1510 0.8606
vn -0.6020 0.0206 0.7982
vn 0.0310 -0.2475 0.9684
vn -0.6324 0.6038 0.4853
vn -0.6909 0.6550 0.3061
vn -0.6674 0.2860 0.6876
vn -0.3582 0.0181 0.9335
vn -0.4400 0.3340 0.8336
vn -0.0673 -0.1184 0.9907
vn 0.2447 -0.2299 0.9420
vn 0.3604 -0.2801 0.8898
vn -0.5782 0.7794 0.2413
vn -0.6235 0.7809 0.0383
vn -0.2875 0.2286 0.9301
vn -0.0453 0.0156 0.9989
vn 0.1561 -0.1020 0.9825
vn 0.1585 -0.1700 0.9726
vn 0.3498 -0.1533 0.9242
vn 0.4788 -0.2130 0.8517
vn 0.5274 -0.3087 0.7915
vn 0.5619 -0.2019 0.8022
vn 0.4803 -0.1004 0.8714
vn -0.4870 0.6723 0.5576
vn -0.4619 0.8618 0.2097
vn -0.3142 0.7856 0.5330
vn -0.5711 0.8179 -0.0696
vn -0.0016 0.2407 0.9706
vn -0.2882 0.5053 0.8134
vn 0.2196 0.0738 0.9728
vn 0.3593 -0.0167 0.9331
vn 0.2949 0.3008 0.9069
vn 0.0305 0.5452 0.8377
vn 0.0129 0.8210 0.5708
vn 0.2544 0.6105 0.7501
vn -0.2557 0.9164 0.3080
vn -0.1400 0.9355 0.3245
vn 0.0475 0.7705 0.6356
vn -0.4757 0.8658 0.1554
vn 0.3114 0.4371 0.8438
vn 0.4289 0.0946 0.8984
vn 0.2274 0.5365 0.8127
vn 0.5663 -0.0489 0.8227
vn 0.3878 0.2643 0.8830
vn -0.5144 -0.1042 0.8512
vn -0.3474 -0.1786 0.9206
vn -0.6405 -0.0379 0.7670
vn 0.0211 -0.2550 0.9667
vn 0.3936 -0.3675 0.8426
vn -0.5359 -0.0768 0.8408
vn -0.6619 0.0432 0.7484
vn -0.8218 0.0767 0.5645
vn -0.7650 0.5236 0.3749
vn -0.7693 0.4681 0.4348
vn -0.7679 0.1627 0.6195
vn 0.3519 -0.3352 0.8739
vn -0.6878 0.7258 -0.0122
vn -0.6374 0.7674 -0.0695
vn -0.4948 0.8230 -0.2790
vn 0.6409 -0.3892 0.6616
vn -0.5010 0.7799 -0.3751
vn -0.5669 0.7933 -0.2219
vn -0.5809 0.7447 -0.3284
vn -0.5202 0.7033 -0.4846
vn 0.5891 -0.2859 0.7558
vn 0.6527 -0.3430 0.6756
vn -0.6006 0.7794 -0.1782
vn 0.6582 -0.2450 0.7118
vn -0.4915 0.8690 -0.0576
vn 0.6236 -0.1478 0.7676
vn 0.7272 -0.1511 0.6696
vn -0.2969 0.8358 0.4619
vn -0.4757 0.8097 0.3436
vn -0.0775 0.7518 0.6548
vn 0.0522 0.7685 0.6377
vn 0.2604 0.6975 0.6676
vn -0.2195 0.8183 0.5312
vn 0.5285 0.0811 0.8451
vn 0.4433 0.2930 0.8471
vn 0.4418 0.4727 0.7625
vn 0.5653 0.1865 0.8035
vn 0.6601 0.0879 0.7460
vn 0.6604 0.2625 0.7035
vn 0.5703 0.3333 0.7508
vn 0.6821 -0.0354 0.7304
vn 0.2488 0.8535 0.4578
vn 0.0985 0.8977 0.4295
vn -0.1458 0.8993 0.4122
vn 0.3939 0.7093 0.5846
vn 0.5697 0.5105 0.6440
vn -0.2907 -0.1802 0.9397
vn -0.1925 -0.1568 0.9687
vn -0.4854 -0.1780 0.8560
vn -0.3990 -0.1700 0.9011
vn 0.1889 -0.2860 0.9394
vn 0.2843 -0.3554 0.8904
vn -0.2383 -0.1788 0.9546
vn -0.5207 -0.1093 0.8467
vn -0.4792 -0.1070 0.8712
vn -0.6467 -0.0116 0.7627
vn -0.6013 -0.0413 0.7980
vn -0.7404 0.6471 0.1816
vn -0.8211 0.4134 0.3935
vn -0.7498 0.6395 0.1700
vn -0.8394 0.4346 0.3263
vn -0.8151 0.1497 0.5596
vn -0.6654 0.7454 -0.0400
vn -0.4932 0.7873 -0.3700
vn -0.5127 0.8302 -0.2187
vn 0.7220 -0.4489 0.5265
vn 0.7467 -0.3849 0.5426
vn -0.5158 0.6841 -0.5157
vn -0.6300 0.6912 -0.3541
vn -0.6534 0.7324 -0.1916
vn -0.5273 0.8290 -0.1865
vn 0.7496 -0.3108 0.5843
vn -0.6131 0.6640 -0.4281
vn -0.6769 0.6953 -0.2418
vn -0.6353 0.7335 -0.2415
vn -0.6702 0.7248 -0.1595
vn 0.7967 -0.2106 0.5665
vn 0.8844 -0.2447 0.3975
vn -0.6343 0.7721 0.0387
vn -0.6256 0.7514 -0.2098
vn 0.7934 -0.0167 0.6085
vn 0.8704 -0.0579 0.4889
vn 0.9436 -0.1061 0.3136
vn -0.3472 0.8918 0.2900
vn -0.6024 0.7867 0.1348
vn -0.4577 0.8880 0.0447
vn 0.7305 0.2328 0.6420
vn 0.7696 0.0811 0.6333
vn 0.8298 0.1885 0.5253
vn 0.9112 0.0978 0.4001
vn 0.9209 0.2451 0.3033
vn 0.9748 0.1601 0.1556
vn 0.1384 0.9664 0.2168
vn -0.1583 0.9824 0.0992
vn 0.0442 0.9844 -0.1704
vn 0.3418 0.8720 0.3505
vn 0.5294 0.8396 0.1218
vn 0.7306 0.4662 0.4989
vn 0.5563 0.7048 0.4403
vn 0.8067 0.3220 0.4955
vn 0.8737 0.4348 0.2182
vn 0.7630 0.6269 0.1575
vn 0.9334 0.3569 0.0356
vn 0.8208 0.5450 -0.1711
vn -0.0185 -0.4579 0.8888
vn 0.1456 -0.4555 0.8782
vn 0.0353 -0.3062 0.9513
vn -0.1719 -0.2419 0.9550
vn -0.0587 -0.2085 0.9763
vn -0.1689 -0.0847 0.9820
vn -0.3405 -0.0966 0.9353
vn -0.4331 0.0632 0.8991
vn -0.5415 0.0718 0.8376
vn -0.7156 0.2352 0.6578
vn -0.6014 0.0570 0.7969
vn 0.2710 -0.4013 0.8750
vn 0.5477 -0.5371 0.6415
vn 0.4046 -0.4073 0.8188
vn -0.3991 0.1521 0.9042
vn -0.2452 0.1162 0.9625
vn -0.6359 0.2668 0.7242
vn -0.5871 0.3060 0.7495
vn -0.7142 0.4082 0.5687
vn -0.7673 0.3747 0.5204
vn -0.5816 0.3845 0.7169
vn 0.1741 -0.2711 0.9467
vn 0.6543 -0.4648 0.5965
vn -0.4222 0.2814 0.8617
vn -0.0414 -0.0753 0.9963
vn 0.1343 -0.1140 0.9844
vn -0.1635 0.1291 0.9781
vn 0.4131 -0.2840 0.8653
vn 0.7942 -0.4822 0.3697
vn 0.6503 -0.3795 0.6581
vn -0.3279 0.2134 0.9203
vn 0.4452 -0.2028 0.8722
vn -0.5097 0.3449 0.7882
vn 0.1462 -0.0518 0.9879
vn 0.1863 -0.0864 0.9787
vn 0.7457 -0.3977 0.5346
vn 0.4859 -0.2482 0.8380
vn -0.0547 0.0173 0.9984
vn -0.6321 0.2831 0.7213
vn -0.3431 0.0844 0.9355
vn -0.5348 0.1195 0.8365
vn -0.4730 0.0458 0.8799
vn -0.3146 0.0472 0.9480
vn -0.1324 -0.0194 0.9910
vn -0.3514 -0.0024 0.9362
vn 0.0577 -0.0990 0.9934
vn 0.1945 -0.2039 0.9595
vn 0.4964 -0.3046 0.8129
vn 0.6734 -0.3448 0.6540
vn -0.1316 -0.1269 0.9831
vn -0.4300 -0.0214 0.9026
vn -0.4414 -0.0574 0.8955
vn 0.4417 -0.4220 0.7917
vn -0.4498 -0.0970 0.8878
vn -0.5063 -0.1181 0.8542
vn 0.6247 -0.4762 0.6188
vn 0.5019 -0.4663 0.7285
vn -0.5841 -0.0000 0.8117
vn 0.6875 -0.5256 0.5011
vn 0.5872 -0.4882 0.6456
vn -0.7243 0.0204 0.6891
vn 0.5307 -0.4842 0.6956
vn 0.6916 -0.5293 0.4915
vn 0.7728 -0.5563 0.3054
vn 0.7951 -0.5326 0.2901
vn 0.5897 -0.4463 0.6731
vn 0.7147 -0.5410 0.4433
vn 0.7398 -0.4456 0.5042
vn 0.8239 -0.5139 0.2389
vn -0.8947 0.2206 0.3883
vn -0.8165 0.2748 0.5078
vn 0.8154 -0.4288 0.3889
vn -0.7875 0.5011 0.3587
vn -0.5282 0.8464 -0.0681
vn -0.6261 0.7628 0.1620
vn -0.3872 0.9216 -0.0273
vn -0.3607 0.8931 -0.2687
vn -0.4750 0.8715 -0.1218
vn 0.7925 -0.4550 0.4061
vn 0.8056 -0.4179 0.4201
vn 0.8566 -0.3387 0.3893
vn 0.9749 -0.1600 0.1549
vn 0.9556 -0.2584 0.1414
vn -0.5125 0.7009 -0.4960
vn -0.4904 0.6876 -0.5355
vn 0.9671 0.0105 0.2540
vn 0.9987 0.0262 0.0443
vn 0.9942 -0.0790 -0.0735
vn -0.4410 0.8578 -0.2640
vn -0.3343 0.6471 -0.6852
vn -0.2793 0.7351 -0.6177
vn -0.1432 0.7396 -0.6577
vn 0.9794 0.2008 -0.0213
vn 0.9895 0.0520 -0.1348
vn 0.9508 0.2734 -0.1455
vn -0.2186 0.9394 -0.2641
vn 0.2363 0.9686 -0.0769
vn 0.1768 0.8833 -0.4342
vn -0.0459 0.8169 -0.5749
vn 0.1085 0.8244 -0.5556
vn 0.3608 0.9291 -0.0810
vn 0.4401 0.8325 -0.3367
vn 0.6752 0.7046 -0.2181
vn 0.5117 0.7612 -0.3986
vn -0.0860 -0.7390 0.6682
vn -0.2446 -0.6359 0.7320
vn -0.1323 -0.8230 0.5524
vn -0.4208 -0.6469 0.6360
vn -0.4846 -0.4319 0.7607
vn -0.3789 -0.1802 0.9077
vn -0.3768 -0.3766 0.8463
vn -0.2033 -0.4542 0.8674
vn -0.5933 -0.1129 0.7970
vn -0.7197 -0.1680 0.6736
vn -0.7483 0.0931 0.6567
vn -0.8663 0.1700 0.4697
vn -0.8965 -0.0907 0.4337
vn -0.0448 -0.5976 0.8006
vn 0.0878 -0.7445 0.6618
vn 0.0592 -0.8812 0.4690
vn 0.1995 -0.8672 0.4562
vn 0.2078 -0.6526 0.7286
vn 0.1870 -0.9475 0.2593
vn 0.3311 -0.8258 0.4566
vn 0.3705 -0.9109 0.1814
vn 0.5021 -0.8601 0.0907
vn 0.5003 -0.8342 -0.2321
vn 0.6136 -0.7730 -0.1609
vn -0.7806 0.2170 0.5862
vn -0.8754 0.3129 0.3684
vn -0.8098 0.3253 0.4882
vn 0.3696 -0.5374 0.7580
vn 0.4085 -0.7002 0.5855
vn 0.5820 -0.6609 0.4737
vn 0.7255 -0.5826 0.3664
vn 0.5074 -0.7876 0.3498
vn 0.6293 -0.7604 0.1608
vn 0.7245 -0.6747 0.1410
vn 0.6956 -0.6706 -0.2577
vn -0.8504 0.4110 0.3286
vn 0.8053 -0.5348 0.2559
vn 0.7957 -0.6053 0.0220
vn -0.7988 0.4533 0.3956
vn -0.8627 0.4675 0.1929
vn 0.8506 -0.5255 0.0199
vn 0.7870 -0.5760 -0.2209
vn -0.7686 0.4419 0.4625
vn 0.8590 -0.5025 0.0975
vn -0.8329 0.4614 0.3056
vn -0.7843 0.3890 0.4833
vn -0.8734 0.3690 0.3179
vn -0.6727 0.4036 0.6201
vn -0.8274 0.3175 0.4633
vn -0.8119 0.2003 0.5483
vn 0.7982 -0.5233 0.2982
vn -0.6384 0.0997 0.7632
vn 0.6837 -0.4504 0.5742
vn -0.7853 0.1209 0.6072
vn 0.6925 -0.5286 0.4909
vn -0.7561 0.0244 0.6540
vn -0.9558 0.1238 0.2665
vn -0.9587 0.1351 0.2504
vn -0.9895 0.1361 0.0483
vn 0.7255 -0.5400 0.4267
vn 0.8616 -0.5070 0.0245
vn -0.8811 0.4460 0.1576
vn -0.8252 0.4109 0.3876
vn 0.8749 -0.4715 0.1109
vn -0.7408 0.6396 0.2053
vn -0.7839 0.6179 0.0609
vn -0.6097 0.7896 -0.0690
vn -0.7138 0.6222 0.3216
vn -0.5641 0.8196 0.0998
vn -0.4227 0.8875 -0.1836
vn -0.3170 0.9476 -0.0389
vn -0.4257 0.9020 -0.0720
vn 0.8337 -0.4716 0.2871
vn -0.4317 0.8518 -0.2968
vn 0.8836 -0.3963 0.2492
vn 0.9161 -0.4000 0.0291
vn 0.9641 -0.2655 0.0029
vn -0.4678 0.7899 -0.3965
vn 0.9511 -0.1094 -0.2889
vn 0.9851 -0.1195 -0.1235
vn -0.3451 0.7986 -0.4931
vn 0.9384 0.0101 -0.3454
vn -0.1225 0.9034 -0.4109
vn 0.9526 0.1421 -0.2690
vn 0.9036 0.2993 -0.3065
vn 0.8171 0.4948 -0.2958
vn 0.8275 0.1705 -0.5350
vn 0.7942 0.4227 -0.4366
vn 0.6380 0.6549 -0.4051
vn 0.2245 0.8578 -0.4624
vn -0.7398 -0.4377 0.5110
vn -0.6357 -0.7180 0.2834
vn -0.2291 -0.8812 0.4135
vn 0.0271 -0.9403 0.3394
vn -0.9497 0.1637 0.2671
vn -0.9992 -0.0152 0.0359
vn -0.9481 -0.3143 0.0479
vn -0.2926 -0.9504 0.1054
vn -0.0041 -0.9912 0.1324
vn 0.1436 -0.9884 0.0496
vn -0.6910 -0.7130 -0.1192
vn -0.1422 -0.9827 -0.1183
vn 0.0327 -0.9687 -0.2463
vn -0.9016 -0.1732 -0.3963
vn -0.8062 -0.4439 -0.3910
vn -0.4639 -0.8088 -0.3613
vn -0.1691 -0.8322 -0.5281
vn -0.4526 -0.5999 -0.6597
vn 0.1026 -0.8450 -0.5248
vn -0.9535 0.0668 -0.2938
vn -0.0840 -0.5985 -0.7967
vn 0.1511 -0.6616 -0.7345
vn -0.7693 -0.0220 -0.6385
vn 0.3388 -0.9377 -0.0768
vn 0.2226 -0.9301 -0.2921
vn 0.3996 -0.8089 -0.4313
vn 0.2932 -0.7911 -0.5368
vn 0.4798 -0.6568 -0.5818
vn 0.2904 -0.6175 -0.7310
vn -0.9375 0.2949 0.1848
vn -0.9661 0.2354 -0.1058
vn -0.9352 0.3287 -0.1319
vn -0.8369 0.1838 -0.5156
vn 0.3671 -0.5155 -0.7743
vn 0.4929 -0.5245 -0.6943
vn 0.5822 -0.6642 -0.4690
vn 0.5652 -0.5503 -0.6146
vn -0.9082 0.3814 0.1725
vn -0.8092 0.2440 -0.5346
vn -0.8778 0.3808 -0.2908
vn 0.6729 -0.5671 -0.4750
vn 0.3954 -0.4333 -0.8099
vn -0.8951 0.4457 -0.0071
vn -0.8944 0.4473 0.0035
vn -0.8567 0.4667 -0.2195
vn 0.8111 -0.5364 -0.2334
vn 0.6469 -0.5320 -0.5463
vn -0.9251 0.3262 0.1946
vn -0.9489 0.3023 -0.0907
vn -0.9591 0.2360 0.1566
vn -0.9550 0.1910 -0.2268
vn 0.8549 -0.5132 0.0762
vn 0.8269 -0.5572 -0.0764
vn 0.8040 -0.5911 0.0641
vn 0.8023 -0.5725 0.1693
vn 0.8470 -0.5279 0.0631
vn 0.8413 -0.5377 -0.0557
vn -0.9809 0.1927 -0.0246
vn -0.9537 0.2665 0.1393
vn -0.9312 0.1856 -0.3136
vn 0.8511 -0.4829 -0.2058
vn -0.9112 0.3910 -0.1295
vn -0.9173 0.2730 -0.2899
vn -0.8164 0.5657 -0.1158
vn -0.7218 0.6224 -0.3029
vn -0.6200 0.7532 -0.2197
vn -0.4813 0.7909 -0.3779
vn -0.3982 0.8788 -0.2629
vn -0.3660 0.8019 -0.4722
vn -0.4284 0.8690 -0.2476
vn -0.4003 0.7728 -0.4925
vn 0.8901 -0.4151 -0.1882
vn 0.8610 -0.4392 -0.2564
vn 0.8660 -0.2664 -0.4232
vn 0.9396 -0.2919 -0.1786
vn 0.8341 -0.3084 -0.4574
vn 0.9209 -0.1830 -0.3441
vn 0.8653 -0.1069 -0.4897
vn -0.4544 0.7479 -0.4839
vn 0.8167 -0.0577 -0.5741
vn 0.8305 0.0016 -0.5570
vn -0.4554 0.7160 -0.5291
vn -0.4714 0.7375 -0.4835
vn 0.6559 0.0922 -0.7492
vn 0.6512 0.2073 -0.7300
vn 0.4449 0.1994 -0.8731
vn -0.1119 0.9135 -0.3912
vn 0.2337 0.8717 -0.4308
vn 0.2201 0.7734 -0.5945
vn -0.3264 0.8135 -0.4813
vn -0.1270 0.7685 -0.6271
vn 0.1749 0.5683 -0.8040
vn 0.4760 0.7313 -0.4886
vn 0.6402 0.5379 -0.5485
vn 0.4952 0.5687 -0.6568
vn 0.5893 0.3359 -0.7348
vn 0.7508 0.3520 -0.5589
vn -0.6404 -0.3061 -0.7045
vn -0.3281 -0.3795 -0.8651
vn -0.4774 -0.1488 -0.8660
vn -0.0196 -0.3373 -0.9412
vn 0.1757 -0.4452 -0.8780
vn -0.2779 -0.1304 -0.9517
vn -0.5906 0.0463 -0.8057
vn -0.5488 0.1029 -0.8296
vn -0.2243 -0.1002 -0.9694
vn 0.1156 -0.3059 -0.9450
vn -0.7523 0.3397 -0.5644
vn -0.5967 0.2743 -0.7541
vn -0.3533 0.0527 -0.9340
vn -0.2482 -0.0285 -0.9683
vn 0.0215 -0.2391 -0.9707
vn 0.3746 -0.4320 -0.8204
vn -0.8512 0.3542 -0.3873
vn -0.4659 0.1830 -0.8657
vn 0.3069 -0.4669 -0.8293
vn -0.6580 0.3079 -0.6871
vn -0.5360 0.1429 -0.8320
vn -0.9114 0.2305 -0.3409
vn 0.7990 -0.5438 -0.2566
vn 0.7013 -0.5232 -0.4841
vn 0.7937 -0.5268 -0.3040
vn -0.8799 0.1988 -0.4316
vn 0.8497 -0.5192 -0.0923
vn -0.9357 0.1519 -0.3184
vn -0.7762 0.1397 -0.6148
vn -0.8611 0.1846 -0.4738
vn 0.8272 -0.5348 -0.1725
vn 0.8002 -0.4471 -0.3997
vn -0.9333 0.1428 -0.3294
vn 0.8142 -0.4377 -0.3815
vn -0.8533 0.1450 -0.5009
vn -0.7546 0.1797 -0.6311
vn -0.8081 0.3879 -0.4433
vn -0.6173 0.3379 -0.7105
vn -0.6177 0.2059 -0.7590
vn -0.6232 0.6521 -0.4318
vn -0.6606 0.4926 -0.5665
vn -0.5266 0.6347 -0.5656
vn -0.4833 0.5428 -0.6868
vn -0.4289 0.7438 -0.5127
vn 0.8058 -0.3726 -0.4602
vn -0.3250 0.6994 -0.6366
vn 0.7458 -0.2432 -0.6202
vn 0.6992 -0.2861 -0.6552
vn 0.6042 -0.1372 -0.7849
vn -0.3284 0.7286 -0.6011
vn -0.3081 0.6264 -0.7160
vn -0.2618 0.6381 -0.7240
vn 0.7527 -0.1463 -0.6419
vn 0.6082 -0.0685 -0.7908
vn 0.6596 -0.0043 -0.7516
vn 0.4666 0.1006 -0.8787
vn -0.1145 0.4595 -0.8808
vn 0.1632 0.2743 -0.9477
vn -0.0517 0.3614 -0.9310
vn -0.0572 0.3775 -0.9242
vn 0.3873 0.2817 -0.8779
vn 0.2854 0.1817 -0.9410
vn -0.3734 0.6868 -0.6236
vn -0.2732 0.5561 -0.7850
vn -0.1903 0.6324 -0.7509
vn -0.0699 0.4998 -0.8633
vn 0.1691 0.3466 -0.9226
vn 0.4440 0.4192 -0.7919
vn -0.3130 -0.0602 -0.9479
vn -0.7197 0.1763 -0.6715
vn -0.5048 -0.0184 -0.8630
vn -0.0282 -0.2612 -0.9649
vn 0.0516 -0.3582 -0.9322
vn -0.8036 0.1487 -0.5763
vn -0.2439 -0.1881 -0.9514
vn 0.5362 -0.5194 -0.6654
vn -0.7019 0.1531 -0.6957
vn -0.7927 0.1862 -0.5805
vn 0.8486 -0.5157 -0.1181
vn 0.8032 -0.4914 -0.3369
vn -0.6920 0.2147 -0.6893
vn 0.7043 -0.4544 -0.5453
vn 0.7748 -0.4338 -0.4598
vn 0.7564 -0.3651 -0.5426
vn 0.7019 -0.3189 -0.6369
vn -0.4812 0.2345 -0.8447
vn 0.7422 -0.3793 -0.5526
vn -0.4869 0.2089 -0.8481
vn -0.4119 0.3098 -0.8569
vn -0.3315 0.2080 -0.9203
vn -0.3937 0.5807 -0.7126
vn -0.2858 0.2482 -0.9256
vn -0.2121 0.3269 -0.9210
vn 0.5514 -0.1579 -0.8192
vn -0.2781 0.4702 -0.8376
vn -0.1967 0.3738 -0.9064
vn 0.4163 0.0047 -0.9092
vn -0.1627 0.4797 -0.8622
vn 0.4442 0.0354 -0.8952
vn 0.1242 0.2695 -0.9550
vn 0.1135 0.2407 -0.9639
vn -0.2426 -0.2245 -0.9438
vn 0.0551 -0.3316 -0.9418
vn 0.3619 -0.4550 -0.8136
vn -0.6187 0.0363 -0.7848
vn 0.5858 -0.4570 -0.6693
vn -0.5738 0.0799 -0.8151
vn -0.4567 -0.0662 -0.8872
vn -0.4247 -0.0213 -0.9051
vn 0.6715 -0.3861 -0.6324
vn 0.5144 -0.3246 -0.7938
vn -0.3667 0.2124 -0.9057
vn -0.5928 0.2231 -0.7738
vn 0.5484 -0.2690 -0.7918
vn 0.4568 -0.1440 -0.8778
vn 0.6846 -0.2942 -0.6669
vn 0.5824 -0.2008 -0.7877
vn -0.3590 0.2625 -0.8957
vn -0.2071 0.1860 -0.9605
vn -0.2291 0.2873 -0.9300
vn -0.2336 0.2130 -0.9487
vn -0.0581 0.1838 -0.9812
vn 0.4226 -0.1044 -0.9003
vn 0.2132 0.0329 -0.9765
vn -0.1554 0.2970 -0.9422
vn 0.0268 0.1889 -0.9816
vn 0.2278 0.1223 -0.9660
vn -0.0518 0.2959 -0.9538
vn -0.2282 -0.1830 -0.9563
vn 0.3885 -0.4089 -0.8258
vn -0.2203 -0.1020 -0.9701
vn 0.1804 -0.2993 -0.9370
vn -0.0258 -0.1995 -0.9796
vn -0.4247 0.1099 -0.8986
vn -0.2905 0.0096 -0.9568
vn -0.0923 -0.0302 -0.9953
vn 0.0870 -0.1424 -0.9860
vn 0.2937 -0.2340 -0.9268
vn 0.4041 -0.3403 -0.8491
vn -0.5599 0.1815 -0.8085
vn -0.2118 0.1083 -0.9713
vn 0.0606 0.0097 -0.9981
vn 0.3015 -0.1312 -0.9444
vn -0.0878 0.1366 -0.9867
vn 0.1366 0.0347 -0.9900
vn 0.0319 0.0790 -0.9964
s 1
usemtl mtl1.304
f 1//1 5//2 2//3
f 42//4 5//2 1//1
f 5//2 38//5 6//6
f 40//7 6//6 38//5
f 2//3 3//8 1//1
f 4//9 3//8 2//3
f 6//6 10//10 5//2
f 14//11 8//12 7//13
f 7//13 4//9 9//14
f 9//14 13//15 7//13
f 4//9 2//3 9//14
f 2//3 5//2 9//14
f 5//2 16//16 9//14
f 5//2 10//10 16//16
f 6//6 11//17 10//10
f 11//17 6//6 12//18
f 14//11 7//13 13//15
f 14//11 15//19 51//20
f 51//20 8//12 14//11
f 9//14 16//16 20//21
f 16//16 21//22 20//21
f 16//16 24//23 21//22
f 10//10 17//24 16//16
f 9//14 20//21 13//15
f 16//16 17//24 24//23
f 17//24 10//10 11//17
f 11//17 26//25 17//24
f 11//17 12//18 26//25
f 12//18 18//26 26//25
f 49//27 55//28 18//26
f 12//18 49//27 18//26
f 26//25 18//26 28//29
f 13//15 19//30 14//11
f 14//11 19//30 15//19
f 19//30 32//31 15//19
f 30//32 32//31 19//30
f 50//33 15//19 32//31
f 22//34 23//35 20//21
f 20//21 21//22 22//34
f 24//23 25//36 21//22
f 21//22 25//36 22//34
f 13//15 20//21 19//30
f 20//21 23//35 19//30
f 30//32 19//30 23//35
f 24//23 17//24 26//25
f 24//23 27//37 25//36
f 27//37 34//38 25//36
f 27//37 24//23 26//25
f 26//25 28//29 27//37
f 30//32 23//35 29//39
f 29//39 23//35 22//34
f 22//34 34//38 29//39
f 22//34 25//36 34//38
f 30//32 29//39 31//40
f 29//39 34//38 35//41
f 31//40 29//39 35//41
f 32//31 30//32 33//42
f 33//42 30//32 31//40
f 33//42 31//40 56//43
f 56//43 31//40 61//44
f 35//41 61//44 31//40
f 33//42 60//45 32//31
f 33//42 56//43 60//45
f 36//46 35//41 34//38
f 37//47 34//38 27//37
f 34//38 37//47 36//46
f 61//44 35//41 36//46
f 67//48 61//44 36//46
f 28//29 37//47 27//37
f 28//29 58//49 37//47
f 18//26 55//28 28//29
f 36//46 37//47 66//50
f 84//51 39//52 42//4
f 83//53 84//51 42//4
f 77//54 85//55 40//7
f 83//53 43//56 41//57
f 41//57 278//58 83//53
f 39//52 5//2 42//4
f 43//56 83//53 42//4
f 5//2 39//52 38//5
f 40//7 85//55 6//6
f 44//59 89//60 7//13
f 86//61 41//57 7//13
f 86//61 7//13 89//60
f 41//57 3//8 4//9
f 43//56 42//4 1//1
f 3//8 43//56 1//1
f 41//57 43//56 3//8
f 6//6 85//55 46//62
f 7//13 41//57 4//9
f 8//12 44//59 7//13
f 45//63 89//60 44//59
f 45//63 47//64 91//65
f 6//6 46//62 12//18
f 49//27 46//62 85//55
f 49//27 85//55 92//66
f 47//64 45//63 8//12
f 44//59 8//12 45//63
f 91//65 47//64 48//67
f 48//67 47//64 52//68
f 49//27 12//18 46//62
f 8//12 51//20 47//64
f 50//33 51//20 15//19
f 47//64 51//20 52//68
f 50//33 52//68 51//20
f 53//69 52//68 50//33
f 53//69 98//70 52//68
f 52//68 98//70 48//67
f 49//27 54//71 55//28
f 49//27 97//72 54//71
f 50//33 101//73 53//69
f 54//71 102//74 55//28
f 32//31 57//75 50//33
f 60//45 57//75 32//31
f 101//73 50//33 57//75
f 101//73 57//75 60//45
f 55//28 58//49 28//29
f 55//28 59//76 58//49
f 55//28 102//74 59//76
f 105//77 59//76 102//74
f 56//43 61//44 63//78
f 60//45 56//43 63//78
f 60//45 63//78 108//79
f 62//80 61//44 67//48
f 63//78 61//44 62//80
f 62//80 67//48 64//81
f 73//82 64//81 67//48
f 65//83 63//78 62//80
f 64//81 65//83 62//80
f 66//50 67//48 36//46
f 69//84 68//85 66//50
f 66//50 68//85 67//48
f 72//86 73//82 67//48
f 68//85 72//86 67//48
f 68//85 70//87 72//86
f 58//49 69//84 37//47
f 69//84 66//50 37//47
f 58//49 71//88 69//84
f 69//84 70//87 68//85
f 69//84 71//88 70//87
f 70//87 75//89 74//90
f 74//90 72//86 70//87
f 70//87 71//88 75//89
f 59//76 110//91 58//49
f 58//49 110//91 71//88
f 120//92 64//81 73//82
f 115//93 64//81 120//92
f 65//83 64//81 114//94
f 114//94 64//81 115//93
f 121//95 120//92 73//82
f 72//86 121//95 73//82
f 121//95 72//86 123//96
f 72//86 74//90 123//96
f 75//89 123//96 74//90
f 77//54 76//97 168//98
f 175//99 76//97 81//100
f 170//101 78//102 77//54
f 76//97 77//54 80//103
f 81//100 79//104 175//99
f 82//105 177//106 174//107
f 82//105 174//107 79//104
f 77//54 38//5 80//103
f 81//100 76//97 80//103
f 81//100 80//103 82//105
f 79//104 81//100 82//105
f 39//52 80//103 38//5
f 80//103 39//52 82//105
f 78//102 85//55 77//54
f 84//51 83//53 177//106
f 39//52 84//51 82//105
f 177//106 82//105 84//51
f 38//5 77//54 40//7
f 278//58 177//106 83//53
f 188//108 87//109 88//110
f 87//109 187//111 280//112
f 280//112 86//61 87//109
f 87//109 188//108 187//111
f 278//58 41//57 86//61
f 280//112 278//58 86//61
f 88//110 87//109 89//60
f 87//109 86//61 89//60
f 90//113 88//110 89//60
f 89//60 45//63 90//113
f 45//63 91//65 90//113
f 91//65 93//114 193//115
f 192//116 195//117 92//66
f 93//114 91//65 48//67
f 48//67 98//70 94//118
f 94//118 93//114 48//67
f 93//114 94//118 95//119
f 93//114 95//119 96//120
f 96//120 193//115 93//114
f 294//121 193//115 96//120
f 92//66 97//72 49//27
f 92//66 195//117 97//72
f 103//122 97//72 195//117
f 98//70 53//69 99//123
f 99//123 53//69 100//124
f 98//70 99//123 94//118
f 95//119 99//123 100//124
f 94//118 99//123 95//119
f 95//119 100//124 96//120
f 194//125 96//120 100//124
f 54//71 97//72 102//74
f 102//74 97//72 103//122
f 101//73 100//124 53//69
f 101//73 194//125 100//124
f 198//126 194//125 101//73
f 102//74 103//122 106//127
f 199//128 106//127 103//122
f 60//45 104//129 101//73
f 104//129 198//126 101//73
f 198//126 104//129 204//130
f 110//91 59//76 105//77
f 112//131 105//77 107//132
f 102//74 106//127 105//77
f 107//132 105//77 106//127
f 200//133 106//127 199//128
f 107//132 106//127 200//133
f 63//78 65//83 108//79
f 108//79 116//134 109//135
f 104//129 60//45 108//79
f 104//129 108//79 109//135
f 104//129 109//135 204//130
f 204//130 109//135 117//136
f 117//136 109//135 116//134
f 65//83 114//94 108//79
f 108//79 114//94 116//134
f 128//137 75//89 71//88
f 111//138 71//88 110//91
f 128//137 71//88 111//138
f 111//138 129//139 128//137
f 110//91 105//77 112//131
f 110//91 112//131 111//138
f 129//139 111//138 113//140
f 111//138 112//131 113//140
f 131//141 129//139 113//140
f 113//140 112//131 107//132
f 113//140 206//142 131//141
f 119//143 114//94 115//93
f 120//92 119//143 115//93
f 116//134 118//144 117//136
f 116//134 114//94 118//144
f 114//94 119//143 118//144
f 210//145 118//144 119//143
f 120//92 121//95 122//146
f 120//92 122//146 119//143
f 127//147 119//143 122//146
f 123//96 75//89 124//148
f 75//89 128//137 124//148
f 121//95 123//96 125//149
f 122//146 121//95 125//149
f 124//148 128//137 130//150
f 123//96 124//148 125//149
f 124//148 130//150 132//151
f 127//147 122//146 125//149
f 124//148 132//151 126//152
f 125//149 126//152 127//147
f 125//149 124//148 126//152
f 129//139 130//150 128//137
f 130//150 129//139 131//141
f 130//150 131//141 132//151
f 132//151 218//153 219//154
f 218//153 132//151 131//141
f 229//155 240//156 136//157
f 134//158 141//159 140//160
f 133//161 134//158 140//160
f 138//162 135//163 133//161
f 133//161 140//160 138//162
f 249//164 239//165 135//163
f 136//157 141//159 134//158
f 229//155 136//157 134//158
f 137//166 250//167 142//168
f 143//169 138//162 140//160
f 140//160 147//170 143//169
f 139//171 135//163 138//162
f 139//171 138//162 145//172
f 257//173 139//171 145//172
f 138//162 143//169 145//172
f 249//164 135//163 139//171
f 139//171 254//174 249//164
f 257//173 254//174 139//171
f 149//175 257//173 145//172
f 141//159 148//176 140//160
f 136//157 148//176 141//159
f 136//157 137//166 148//176
f 250//167 258//177 142//168
f 143//169 147//170 144//178
f 145//172 143//169 144//178
f 144//178 149//175 145//172
f 140//160 148//176 146//179
f 146//179 148//176 150//180
f 150//180 151//181 146//179
f 140//160 146//179 147//170
f 147//170 146//179 151//181
f 150//180 148//176 152//182
f 142//168 152//182 148//176
f 148//176 137//166 142//168
f 258//177 152//182 142//168
f 258//177 259//183 153//184
f 147//170 151//181 144//178
f 144//178 151//181 156//185
f 152//182 153//184 155//186
f 153//184 152//182 258//177
f 156//185 262//187 144//178
f 144//178 262//187 149//175
f 150//180 154//188 151//181
f 150//180 152//182 154//188
f 151//181 154//188 158//189
f 151//181 158//189 156//185
f 154//188 152//182 155//186
f 153//184 264//190 155//186
f 153//184 259//183 264//190
f 154//188 155//186 158//189
f 155//186 264//190 160//191
f 157//192 156//185 158//189
f 155//186 160//191 158//189
f 265//193 159//194 266//195
f 265//193 156//185 159//194
f 156//185 157//192 159//194
f 269//196 266//195 159//194
f 157//192 161//197 159//194
f 159//194 161//197 269//196
f 157//192 162//198 161//197
f 158//189 162//198 157//192
f 161//197 162//198 165//199
f 161//197 165//199 269//196
f 158//189 163//200 162//198
f 160//191 167//201 158//189
f 163//200 158//189 167//201
f 167//201 160//191 164//202
f 164//202 160//191 267//203
f 166//204 165//199 162//198
f 169//205 269//196 165//199
f 162//198 163//200 166//204
f 163//200 167//201 166//204
f 167//201 164//202 170//101
f 269//196 169//205 273//206
f 76//97 169//205 168//98
f 168//98 169//205 165//199
f 165//199 166//204 168//98
f 166//204 167//201 168//98
f 167//201 170//101 168//98
f 171//207 170//101 164//202
f 273//206 172//208 173//209
f 175//99 172//208 76//97
f 273//206 169//205 172//208
f 169//205 76//97 172//208
f 168//98 170//101 77//54
f 171//207 275//210 176//211
f 274//212 273//206 173//209
f 173//209 174//107 274//212
f 175//99 173//209 172//208
f 170//101 171//207 78//102
f 171//207 176//211 78//102
f 275//210 179//213 176//211
f 173//209 175//99 79//104
f 85//55 78//102 176//211
f 85//55 176//211 178//214
f 177//106 278//58 276//215
f 174//107 173//209 79//104
f 276//215 174//107 177//106
f 176//211 179//213 178//214
f 181//216 85//55 178//214
f 179//213 180//217 178//214
f 180//217 181//216 178//214
f 179//213 279//218 180//217
f 373//219 279//218 179//213
f 182//220 85//55 181//216
f 181//216 180//217 182//220
f 180//217 183//221 182//220
f 183//221 184//222 182//220
f 183//221 180//217 279//218
f 183//221 283//223 184//222
f 283//223 183//221 279//218
f 281//224 280//112 185//225
f 92//66 85//55 182//220
f 182//220 184//222 92//66
f 184//222 282//226 92//66
f 283//223 282//226 184//222
f 185//225 280//112 187//111
f 187//111 186//227 185//225
f 188//108 186//227 187//111
f 188//108 88//110 189//228
f 186//227 188//108 190//229
f 190//229 188//108 189//228
f 189//228 289//230 190//229
f 189//228 88//110 90//113
f 189//228 90//113 91//65
f 191//231 189//228 91//65
f 91//65 193//115 191//231
f 191//231 289//230 189//228
f 193//115 290//232 191//231
f 292//233 192//116 92//66
f 196//234 192//116 292//233
f 294//121 96//120 194//125
f 192//116 196//234 195//117
f 197//235 195//117 196//234
f 103//122 195//117 197//235
f 103//122 197//235 199//128
f 202//236 199//128 197//235
f 298//237 202//236 197//235
f 198//126 204//130 194//125
f 297//238 194//125 205//239
f 201//240 107//132 200//133
f 202//236 200//133 199//128
f 203//241 201//240 200//133
f 203//241 200//133 202//236
f 298//237 300//242 202//236
f 300//242 203//241 202//236
f 208//243 204//130 117//136
f 194//125 204//130 205//239
f 205//239 302//244 297//238
f 204//130 208//243 205//239
f 208//243 211//245 205//239
f 205//239 211//245 302//244
f 211//245 303//246 302//244
f 131//141 206//142 218//153
f 113//140 107//132 201//240
f 113//140 201//240 206//142
f 203//241 206//142 201//240
f 207//247 206//142 203//241
f 301//248 207//247 203//241
f 301//248 306//249 207//247
f 208//243 117//136 118//144
f 209//250 208//243 118//144
f 209//250 118//144 210//145
f 119//143 213//251 210//145
f 210//145 213//251 215//252
f 210//145 212//253 209//250
f 212//253 210//145 215//252
f 211//245 208//243 209//250
f 211//245 209//250 212//253
f 215//252 310//254 212//253
f 212//253 303//246 211//245
f 213//251 119//143 214//255
f 215//252 213//251 214//255
f 217//256 215//252 214//255
f 215//252 217//256 310//254
f 212//253 310//254 303//246
f 126//152 132//151 219//154
f 119//143 127//147 214//255
f 216//257 127//147 126//152
f 216//257 126//152 219//154
f 217//256 214//255 127//147
f 216//257 217//256 127//147
f 216//257 219//154 312//258
f 217//256 216//257 312//258
f 206//142 207//247 218//153
f 207//247 306//249 218//153
f 306//249 219//154 218//153
f 232//259 226//260 315//261
f 226//260 314//262 315//261
f 314//262 226//260 225//263
f 222//264 223//265 221//266
f 221//266 134//158 222//264
f 134//158 133//161 222//264
f 239//165 222//264 133//161
f 239//165 224//267 222//264
f 224//267 225//263 223//265
f 226//260 221//266 223//265
f 221//266 226//260 232//259
f 228//268 225//263 224//267
f 224//267 223//265 222//264
f 227//269 228//268 224//267
f 227//269 224//267 239//165
f 225//263 226//260 223//265
f 220//270 228//268 227//269
f 317//271 228//268 220//270
f 221//266 230//272 229//155
f 134//158 221//266 229//155
f 232//259 230//272 221//266
f 230//272 231//273 229//155
f 232//259 234//274 231//273
f 232//259 231//273 230//272
f 231//273 233//275 242//276
f 229//155 231//273 242//276
f 315//261 234//274 232//259
f 234//274 233//275 231//273
f 233//275 234//274 340//277
f 233//275 235//278 242//276
f 236//279 235//278 233//275
f 237//280 235//278 236//279
f 344//281 237//280 236//279
f 237//280 344//281 349//282
f 238//283 220//270 227//269
f 345//284 238//283 247//285
f 345//284 220//270 238//283
f 239//165 133//161 135//163
f 238//283 227//269 239//165
f 240//156 137//166 136//157
f 229//155 242//276 240//156
f 240//156 241//286 137//166
f 235//278 243//287 242//276
f 241//286 242//276 243//287
f 240//156 242//276 241//286
f 241//286 243//287 244//288
f 251//289 250//167 244//288
f 245//290 243//287 235//278
f 244//288 243//287 245//290
f 244//288 245//290 246//291
f 244//288 246//291 252//292
f 244//288 252//292 251//289
f 245//290 235//278 237//280
f 246//291 245//290 237//280
f 349//282 246//291 237//280
f 246//291 349//282 350//293
f 350//293 252//292 246//291
f 247//285 238//283 249//164
f 345//284 247//285 248//294
f 239//165 249//164 238//283
f 250//167 137//166 241//286
f 244//288 250//167 241//286
f 251//289 258//177 250//167
f 255//295 251//289 253//296
f 252//292 253//296 251//289
f 350//293 253//296 252//292
f 247//285 254//174 248//294
f 247//285 249//164 254//174
f 254//174 256//297 248//294
f 352//298 248//294 256//297
f 254//174 257//173 256//297
f 255//295 259//183 258//177
f 251//289 255//295 258//177
f 357//299 259//183 255//295
f 357//299 255//295 253//296
f 356//300 357//299 253//296
f 260//301 256//297 257//173
f 259//183 357//299 364//302
f 358//303 260//301 261//304
f 358//303 256//297 260//301
f 261//304 361//305 358//303
f 263//306 260//301 257//173
f 149//175 263//306 257//173
f 263//306 265//193 261//304
f 260//301 263//306 261//304
f 261//304 265//193 362//307
f 262//187 263//306 149//175
f 265//193 263//306 262//187
f 361//305 261//304 362//307
f 265//193 262//187 156//185
f 259//183 364//302 264//190
f 362//307 265//193 366//308
f 366//308 265//193 266//195
f 364//302 369//309 264//190
f 266//195 268//310 366//308
f 269//196 268//310 266//195
f 267//203 160//191 264//190
f 264//190 369//309 267//203
f 270//311 267//203 369//309
f 274//212 268//310 269//196
f 164//202 267//203 270//311
f 274//212 367//312 268//310
f 275//210 171//207 164//202
f 164//202 270//311 275//210
f 270//311 271//313 275//210
f 367//312 274//212 272//314
f 273//206 274//212 269//196
f 276//215 272//314 274//212
f 367//312 272//314 368//315
f 368//315 272//314 278//58
f 368//315 278//58 372//316
f 370//317 368//315 372//316
f 276//215 274//212 174//107
f 278//58 272//314 276//215
f 275//210 271//313 179//213
f 179//213 271//313 277//318
f 271//313 369//309 277//318
f 179//213 277//318 373//219
f 279//218 373//219 376//319
f 369//309 373//219 277//318
f 376//319 283//223 279//218
f 377//320 281//224 285//321
f 281//224 185//225 285//321
f 185//225 186//227 285//321
f 278//58 280//112 281//224
f 278//58 281//224 372//316
f 389//322 282//226 283//223
f 389//322 283//223 376//319
f 285//321 286//323 382//324
f 382//324 286//323 288//325
f 377//320 285//321 382//324
f 186//227 190//229 284//326
f 186//227 284//326 285//321
f 286//323 284//326 287//327
f 284//326 190//229 287//327
f 286//323 285//321 284//326
f 385//328 287//327 289//230
f 288//325 286//323 287//327
f 288//325 287//327 385//328
f 287//327 190//229 289//230
f 291//329 387//330 289//230
f 385//328 289//230 387//330
f 282//226 292//233 92//66
f 292//233 282//226 389//322
f 291//329 289//230 191//231
f 191//231 290//232 291//329
f 290//232 387//330 291//329
f 290//232 193//115 387//330
f 293//331 292//233 389//322
f 293//331 196//234 292//233
f 194//125 391//332 294//121
f 197//235 196//234 295//333
f 293//331 295//333 196//234
f 393//334 295//333 293//331
f 393//334 296//335 295//333
f 392//336 391//332 194//125
f 295//333 298//237 197//235
f 295//333 296//335 298//237
f 397//337 299//338 296//335
f 392//336 194//125 297//238
f 298//237 299//338 300//242
f 299//338 298//237 296//335
f 304//339 297//238 302//244
f 300//242 301//248 203//241
f 299//338 401//340 300//242
f 300//242 401//340 301//248
f 305//341 303//246 310//254
f 302//244 305//341 304//339
f 305//341 302//244 303//246
f 306//249 309//342 307//343
f 307//343 308//344 306//249
f 412//345 307//343 309//342
f 412//345 408//346 307//343
f 308//344 409//347 219//154
f 408//346 308//344 307//343
f 309//342 306//249 301//248
f 217//256 311//348 310//254
f 311//348 217//256 312//258
f 311//348 305//341 310//254
f 312//258 219//154 409//347
f 219//154 306//249 308//344
f 316//349 319//350 314//262
f 228//268 316//349 314//262
f 314//262 319//350 318//351
f 316//349 228//268 317//271
f 225//263 228//268 314//262
f 318//351 315//261 314//262
f 318//351 332//352 315//261
f 337//353 313//354 317//271
f 322//355 317//271 313//354
f 322//355 316//349 317//271
f 319//350 320//356 318//351
f 322//355 319//350 316//349
f 320//356 321//357 318//351
f 321//357 332//352 318//351
f 333//358 332//352 321//357
f 322//355 323//359 319//350
f 319//350 323//359 320//356
f 320//356 324//360 321//357
f 324//360 327//361 321//357
f 333//358 321//357 327//361
f 322//355 331//362 325//363
f 331//362 322//355 313//354
f 322//355 325//363 323//359
f 325//363 326//364 323//359
f 323//359 326//364 320//356
f 320//356 326//364 324//360
f 326//364 329//365 324//360
f 329//365 327//361 324//360
f 325//363 328//366 326//364
f 329//365 330//367 327//361
f 339//368 331//362 313//354
f 329//365 326//364 328//366
f 328//366 413//369 329//365
f 413//369 330//367 329//365
f 413//369 335//370 330//367
f 339//368 419//371 331//362
f 332//352 234//274 315//261
f 333//358 340//277 332//352
f 341//372 340//277 333//358
f 333//358 327//361 334//373
f 334//373 341//372 333//358
f 334//373 342//374 341//372
f 330//367 336//375 334//373
f 330//367 334//373 327//361
f 336//375 342//374 334//373
f 336//375 343//376 342//374
f 330//367 335//370 336//375
f 335//370 417//377 336//375
f 417//377 343//376 336//375
f 337//353 317//271 220//270
f 346//378 337//353 220//270
f 338//379 337//353 346//378
f 313//354 337//353 338//379
f 338//379 346//378 348//380
f 339//368 313//354 338//379
f 338//379 418//381 339//368
f 418//381 419//371 339//368
f 338//379 348//380 418//381
f 332//352 340//277 234//274
f 236//279 233//275 340//277
f 236//279 340//277 341//372
f 236//279 341//372 344//281
f 344//281 341//372 342//374
f 344//281 342//374 343//376
f 424//382 426//383 343//376
f 351//384 349//282 344//281
f 344//281 343//376 351//384
f 355//385 351//384 343//376
f 346//378 220//270 345//284
f 347//386 346//378 345//284
f 348//380 346//378 347//386
f 425//387 348//380 427//388
f 349//282 351//384 350//293
f 351//384 355//385 350//293
f 350//293 355//385 354//389
f 355//385 343//376 426//383
f 355//385 426//383 431//390
f 347//386 345//284 248//294
f 347//386 248//294 352//298
f 348//380 347//386 353//391
f 353//391 347//386 352//298
f 253//296 350//293 356//300
f 354//389 356//300 350//293
f 353//391 352//298 359//392
f 353//391 359//392 433//393
f 354//389 360//394 356//300
f 359//392 352//298 358//303
f 352//298 256//297 358//303
f 437//395 360//394 354//389
f 355//385 437//395 354//389
f 360//394 357//299 356//300
f 361//305 359//392 358//303
f 361//305 362//307 363//396
f 359//392 361//305 363//396
f 359//392 363//396 440//397
f 360//394 364//302 357//299
f 363//396 362//307 366//308
f 365//398 363//396 366//308
f 440//397 363//396 365//398
f 366//308 268//310 367//312
f 442//399 365//398 368//315
f 368//315 365//398 366//308
f 368//315 366//308 367//312
f 442//399 368//315 370//317
f 369//309 364//302 443//400
f 270//311 369//309 271//313
f 513//401 369//309 443//400
f 445//402 371//403 369//309
f 373//219 369//309 371//403
f 374//404 371//403 445//402
f 445//402 447//405 374//404
f 370//317 372//316 375//406
f 373//219 371//403 374//404
f 374//404 376//319 373//219
f 372//316 378//407 375//406
f 370//317 375//406 451//408
f 450//409 376//319 374//404
f 380//410 375//406 378//407
f 375//406 454//411 451//408
f 454//411 375//406 380//410
f 281//224 378//407 372//316
f 377//320 378//407 281//224
f 379//412 377//320 382//324
f 380//410 378//407 377//320
f 380//410 377//320 379//412
f 380//410 379//412 381//413
f 383//414 288//325 385//328
f 383//414 382//324 288//325
f 379//412 382//324 383//414
f 383//414 381//413 379//412
f 383//414 384//415 381//413
f 383//414 385//328 384//415
f 385//328 387//330 386//416
f 385//328 386//416 384//415
f 384//415 386//416 467//417
f 388//418 386//416 387//330
f 388//418 387//330 193//115
f 388//418 467//417 386//416
f 388//418 193//115 294//121
f 391//332 388//418 294//121
f 391//332 467//417 388//418
f 467//417 391//332 473//419
f 389//322 393//334 293//331
f 376//319 390//420 389//322
f 390//420 393//334 389//322
f 464//421 390//420 376//319
f 390//420 396//422 394//423
f 469//424 390//420 464//421
f 469//424 396//422 390//420
f 473//419 391//332 392//336
f 394//423 296//335 393//334
f 394//423 397//337 296//335
f 394//423 393//334 390//420
f 394//423 395//425 397//337
f 395//425 394//423 396//422
f 472//426 395//425 396//422
f 473//419 392//336 398//427
f 477//428 482//429 401//340
f 397//337 401//340 299//338
f 472//426 397//337 395//425
f 472//426 401//340 397//337
f 472//426 477//428 401//340
f 392//336 297//238 398//427
f 398//427 297//238 304//339
f 398//427 479//430 473//419
f 398//427 399//431 479//430
f 304//339 399//431 398//427
f 483//432 412//345 482//429
f 400//433 483//432 481//434
f 400//433 412//345 483//432
f 309//342 301//248 401//340
f 412//345 309//342 401//340
f 482//429 412//345 401//340
f 304//339 305//341 402//435
f 311//348 402//435 305//341
f 311//348 404//436 402//435
f 406//437 402//435 404//436
f 304//339 403//438 399//431
f 304//339 402//435 403//438
f 402//435 490//439 403//438
f 402//435 406//437 490//439
f 406//437 491//440 490//439
f 409//347 405//441 312//258
f 409//347 411//442 405//441
f 312//258 404//436 311//348
f 312//258 405//441 404//436
f 406//437 405//441 407//443
f 405//441 411//442 407//443
f 405//441 406//437 404//436
f 407//443 411//442 494//444
f 407//443 491//440 406//437
f 409//347 308//344 408//346
f 410//445 408//346 412//345
f 409//347 408//346 411//442
f 408//346 410//445 411//442
f 411//442 410//445 494//444
f 400//433 410//445 412//345
f 494//444 410//445 400//433
f 325//363 331//362 414//446
f 328//366 325//363 414//446
f 328//366 414//446 415//447
f 328//366 415//447 413//369
f 331//362 419//371 414//446
f 414//446 419//371 416//448
f 415//447 414//446 416//448
f 415//447 421//449 413//369
f 423//450 413//369 421//449
f 423//450 335//370 413//369
f 421//449 415//447 422//451
f 416//448 422//451 415//447
f 417//377 335//370 423//450
f 418//381 420//452 419//371
f 420//452 418//381 429//453
f 422//451 416//448 420//452
f 416//448 419//371 420//452
f 422//451 420//452 429//453
f 417//377 423//450 424//382
f 343//376 417//377 424//382
f 431//390 424//382 423//450
f 424//382 431//390 426//383
f 418//381 348//380 425//387
f 425//387 429//453 418//381
f 430//454 421//449 422//451
f 422//451 429//453 430//454
f 423//450 421//449 432//455
f 423//450 432//455 431//390
f 348//380 353//391 427//388
f 425//387 427//388 428//456
f 433//393 427//388 353//391
f 428//456 429//453 425//387
f 428//456 427//388 433//393
f 434//457 429//453 428//456
f 429//453 434//457 435//458
f 430//454 432//455 421//449
f 430//454 429//453 435//458
f 430//454 435//458 497//459
f 431//390 432//455 496//460
f 496//460 432//455 430//454
f 431//390 436//461 355//385
f 439//462 434//457 428//456
f 433//393 439//462 428//456
f 435//458 434//457 495//463
f 435//458 495//463 497//459
f 436//461 431//390 496//460
f 355//385 436//461 503//464
f 434//457 439//462 438//465
f 495//463 434//457 438//465
f 433//393 359//392 439//462
f 495//463 438//465 498//466
f 439//462 359//392 440//397
f 439//462 440//397 441//467
f 504//468 364//302 360//394
f 360//394 437//395 504//468
f 507//469 504//468 437//395
f 441//467 440//397 442//399
f 504//468 509//470 364//302
f 440//397 365//398 442//399
f 505//471 441//467 442//399
f 511//472 443//400 364//302
f 511//472 513//401 443//400
f 444//473 442//399 370//317
f 449//474 508//475 444//473
f 444//473 508//475 442//399
f 445//402 369//309 513//401
f 513//401 446//476 445//402
f 513//401 515//477 446//476
f 448//478 444//473 370//317
f 446//476 447//405 445//402
f 449//474 444//473 448//478
f 447//405 450//409 374//404
f 446//476 450//409 447//405
f 515//477 450//409 446//476
f 515//477 453//479 450//409
f 448//478 370//317 451//408
f 451//408 452//480 448//478
f 452//480 449//474 448//478
f 455//481 449//474 452//480
f 450//409 464//421 376//319
f 453//479 464//421 450//409
f 458//482 454//411 380//410
f 451//408 454//411 455//481
f 455//481 454//411 458//482
f 455//481 452//480 451//408
f 461//483 455//481 458//482
f 461//483 456//484 455//481
f 380//410 381//413 458//482
f 458//482 381//413 457//485
f 384//415 457//485 381//413
f 458//482 457//485 459//486
f 459//486 457//485 460//487
f 459//486 461//483 458//482
f 459//486 460//487 462//488
f 463//489 462//488 460//487
f 461//483 459//486 462//488
f 464//421 453//479 465//490
f 384//415 463//489 457//485
f 384//415 467//417 463//489
f 463//489 460//487 457//485
f 463//489 467//417 522//491
f 464//421 465//490 469//424
f 465//490 466//492 469//424
f 524//493 466//492 465//490
f 524//493 526//494 466//492
f 468//495 467//417 473//419
f 468//495 473//419 474//496
f 467//417 468//495 530//497
f 470//498 466//492 471//499
f 469//424 470//498 396//422
f 470//498 469//424 466//492
f 470//498 478//500 477//428
f 470//498 471//499 478//500
f 478//500 471//499 476//501
f 470//498 472//426 396//422
f 470//498 477//428 472//426
f 474//496 473//419 479//430
f 475//502 480//503 528//504
f 477//428 478//500 482//429
f 478//500 483//432 482//429
f 483//432 478//500 476//501
f 476//501 481//434 483//432
f 475//502 489//505 480//503
f 480//503 493//506 481//434
f 480//503 481//434 532//507
f 476//501 532//507 481//434
f 399//431 474//496 479//430
f 474//496 399//431 484//508
f 486//509 474//496 484//508
f 484//508 485//510 486//509
f 486//509 485//510 487//511
f 475//502 474//496 486//509
f 475//502 486//509 489//505
f 486//509 487//511 489//505
f 487//511 485//510 491//440
f 487//511 488//512 489//505
f 488//512 487//511 491//440
f 493//506 488//512 491//440
f 489//505 488//512 480//503
f 488//512 493//506 480//503
f 481//434 494//444 400//433
f 494//444 481//434 493//506
f 403//438 484//508 399//431
f 484//508 490//439 485//510
f 484//508 403//438 490//439
f 490//439 491//440 485//510
f 492//513 407//443 494//444
f 492//513 494//444 493//506
f 407//443 492//513 491//440
f 492//513 493//506 491//440
f 430//454 497//459 496//460
f 496//460 503//464 436//461
f 497//459 495//463 500//514
f 496//460 497//459 500//514
f 499//515 498//466 438//465
f 498//466 500//514 495//463
f 500//514 498//466 502//516
f 496//460 501//517 503//464
f 501//517 496//460 500//514
f 439//462 441//467 499//515
f 439//462 499//515 438//465
f 498//466 499//515 502//516
f 501//517 533//518 503//464
f 355//385 503//464 437//395
f 506//519 499//515 441//467
f 500//514 534//520 501//517
f 501//517 534//520 533//518
f 500//514 502//516 534//520
f 536//521 437//395 503//464
f 536//521 507//469 437//395
f 506//519 441//467 505//471
f 541//522 499//515 506//519
f 540//523 506//519 505//471
f 506//519 540//523 541//522
f 507//469 509//470 504//468
f 505//471 442//399 508//475
f 505//471 508//475 540//523
f 509//470 510//524 364//302
f 512//525 510//524 509//470
f 540//523 508//475 545//526
f 510//524 511//472 364//302
f 512//525 509//470 542//527
f 449//474 545//526 508//475
f 512//525 513//401 511//472
f 512//525 511//472 510//524
f 512//525 542//527 514//528
f 512//525 515//477 513//401
f 512//525 514//528 515//477
f 514//528 544//529 515//477
f 544//529 549//530 515//477
f 449//474 547//531 545//526
f 517//532 515//477 549//530
f 547//531 449//474 455//481
f 455//481 456//484 516//533
f 516//533 547//531 455//481
f 517//532 549//530 524//493
f 515//477 517//532 453//479
f 516//533 456//484 518//534
f 516//533 518//534 519//535
f 461//483 518//534 456//484
f 461//483 462//488 518//534
f 462//488 521//536 518//534
f 519//535 518//534 520//537
f 519//535 520//537 557//538
f 526//494 524//493 556//539
f 453//479 517//532 465//490
f 524//493 465//490 517//532
f 463//489 521//536 462//488
f 522//491 521//536 463//489
f 522//491 467//417 530//497
f 521//536 522//491 523//540
f 518//534 523//540 520//537
f 518//534 521//536 523//540
f 522//491 530//497 523//540
f 523//540 525//541 520//537
f 520//537 525//541 557//538
f 525//541 528//504 557//538
f 561//542 526//494 556//539
f 523//540 530//497 527//543
f 523//540 527//543 525//541
f 525//541 527//543 528//504
f 526//494 561//542 531//544
f 527//543 530//497 475//502
f 528//504 527//543 475//502
f 526//494 471//499 466//492
f 531//544 471//499 526//494
f 480//503 529//545 528//504
f 529//545 480//503 532//507
f 528//504 529//545 559//546
f 531//544 476//501 471//499
f 530//497 468//495 474//496
f 474//496 475//502 530//497
f 532//507 476//501 531//544
f 534//520 535//547 533//518
f 502//516 535//547 534//520
f 535//547 562//548 533//518
f 538//549 536//521 503//464
f 502//516 499//515 537//550
f 533//518 562//548 503//464
f 538//549 539//551 536//521
f 537//550 499//515 541//522
f 541//522 569//552 537//550
f 537//550 563//553 502//516
f 563//553 537//550 570//554
f 538//549 503//464 562//548
f 539//551 507//469 536//521
f 537//550 569//552 570//554
f 507//469 539//551 542//527
f 545//526 541//522 540//523
f 539//551 543//555 542//527
f 509//470 507//469 542//527
f 543//555 539//551 579//556
f 585//557 584//558 547//531
f 582//559 586//560 546//561
f 514//528 542//527 543//555
f 543//555 544//529 514//528
f 546//561 549//530 544//529
f 544//529 543//555 546//561
f 582//559 546//561 543//555
f 545//526 547//531 584//558
f 548//562 549//530 546//561
f 551//563 587//564 547//531
f 551//563 547//531 516//533
f 519//535 551//563 516//533
f 551//563 519//535 553//565
f 551//563 553//565 550//566
f 590//567 550//566 553//565
f 556//539 548//562 552//568
f 591//569 552//568 548//562
f 548//562 524//493 549//530
f 554//570 553//565 557//538
f 553//565 554//570 590//567
f 548//562 556//539 524//493
f 553//565 519//535 557//538
f 590//567 554//570 555//571
f 590//567 555//571 591//569
f 555//571 560//572 591//569
f 556//539 552//568 561//542
f 561//542 552//568 591//569
f 591//569 560//572 561//542
f 557//538 528//504 554//570
f 554//570 528//504 558//573
f 555//571 554//570 558//573
f 558//573 528//504 559//546
f 558//573 559//546 555//571
f 560//572 559//546 532//507
f 559//546 529//545 532//507
f 555//571 559//546 560//572
f 531//544 561//542 532//507
f 560//572 532//507 561//542
f 535//547 502//516 563//553
f 563//553 564//574 535//547
f 535//547 564//574 562//548
f 538//549 568//575 539//551
f 563//553 570//554 564//574
f 567//576 564//574 570//554
f 538//549 565//577 568//575
f 564//574 566//578 562//548
f 538//549 562//548 565//577
f 562//548 566//578 565//577
f 564//574 567//576 566//578
f 569//552 573//579 570//554
f 567//576 570//554 574//580
f 574//580 570//554 573//579
f 567//576 574//580 577//581
f 566//578 567//576 577//581
f 566//578 576//582 565//577
f 565//577 576//582 580//583
f 565//577 580//583 571//584
f 576//582 566//578 577//581
f 539//551 568//575 571//584
f 579//556 571//584 580//583
f 571//584 579//556 539//551
f 568//575 565//577 571//584
f 569//552 541//522 572//585
f 572//585 541//522 584//558
f 541//522 545//526 584//558
f 569//552 572//585 573//579
f 575//586 574//580 573//579
f 574//580 575//586 577//581
f 577//581 575//586 578//587
f 576//582 577//581 578//587
f 576//582 578//587 583//588
f 583//588 580//583 576//582
f 580//583 583//588 579//556
f 572//585 584//558 585//557
f 573//579 572//585 585//557
f 573//579 585//557 575//586
f 581//589 578//587 575//586
f 583//588 578//587 588//590
f 579//556 582//559 543//555
f 579//556 583//588 582//559
f 583//588 586//560 582//559
f 583//588 588//590 586//560
f 585//557 547//531 587//564
f 581//589 575//586 585//557
f 587//564 581//589 585//557
f 588//590 578//587 581//589
f 548//562 546//561 586//560
f 581//589 587//564 588//590
f 591//569 548//562 586//560
f 588//590 591//569 586//560
f 587//564 589//591 588//590
f 590//567 587//564 550//566
f 587//564 590//567 589//591
f 589//591 591//569 588//590
f 550//566 587//564 551//563
f 589//591 590//567 591//569
