# Blender 4.0.2
# www.blender.org
mtllib jaw_right_second_lower_premolar_tooth.mtl
o jaw_right_second_lower_premolar_tooth
v 0.074854 -0.038008 0.024646
v 0.075629 -0.038358 0.024651
v 0.075222 -0.036298 0.024586
v 0.076211 -0.036018 0.024832
v 0.077040 -0.035798 0.024835
v 0.077463 -0.036188 0.024654
v 0.077483 -0.034108 0.024893
v 0.076924 -0.033948 0.024773
v 0.078087 -0.033398 0.024859
v 0.078357 -0.033988 0.024805
v 0.078728 -0.034318 0.024558
v 0.078118 -0.032408 0.024763
v 0.079028 -0.032988 0.024594
v 0.078747 -0.032358 0.024680
v 0.078756 -0.031568 0.024596
v 0.079184 -0.030068 0.024835
v 0.078714 -0.028948 0.024784
v 0.079788 -0.029908 0.024931
v 0.079366 -0.029218 0.024979
v 0.079970 -0.029528 0.024985
v 0.080357 -0.030158 0.024761
v 0.080646 -0.029658 0.024778
v 0.079798 -0.028348 0.025005
v 0.078840 -0.026898 0.024746
v 0.080552 -0.028468 0.024939
v 0.080375 -0.027848 0.024932
v 0.080748 -0.028088 0.024855
v 0.079291 -0.026688 0.024771
v 0.071629 -0.045778 0.023677
v 0.071795 -0.045988 0.023658
v 0.071504 -0.046308 0.023517
v 0.071956 -0.046178 0.023561
v 0.071243 -0.044738 0.023664
v 0.070945 -0.045098 0.023502
v 0.071873 -0.045268 0.023780
v 0.072075 -0.045678 0.023701
v 0.072620 -0.045058 0.023628
v 0.072635 -0.043678 0.023885
v 0.071765 -0.042038 0.023826
v 0.072885 -0.042698 0.023963
v 0.073432 -0.042698 0.023835
v 0.072407 -0.041918 0.024056
v 0.073498 -0.041528 0.024213
v 0.073997 -0.041328 0.024183
v 0.072863 -0.039328 0.024071
v 0.072172 -0.039778 0.023637
v 0.075928 -0.038768 0.024387
v 0.074992 -0.035388 0.024206
v 0.077864 -0.036378 0.024375
v 0.077777 -0.037098 0.024022
v 0.075881 -0.034088 0.024346
v 0.078633 -0.035748 0.024088
v 0.078566 -0.036228 0.023837
v 0.079064 -0.035468 0.023750
v 0.079235 -0.034238 0.024180
v 0.079804 -0.033248 0.023978
v 0.076926 -0.030708 0.023695
v 0.077869 -0.031378 0.024415
v 0.079619 -0.033008 0.024227
v 0.077631 -0.030328 0.024213
v 0.078577 -0.030908 0.024544
v 0.079025 -0.031158 0.024577
v 0.079151 -0.031658 0.024522
v 0.079942 -0.031318 0.024330
v 0.079835 -0.031898 0.024203
v 0.080318 -0.031528 0.024015
v 0.080211 -0.032108 0.023857
v 0.078205 -0.029448 0.024563
v 0.077422 -0.029568 0.024080
v 0.081007 -0.030308 0.024364
v 0.081266 -0.030618 0.023918
v 0.077676 -0.027328 0.024120
v 0.078099 -0.028288 0.024413
v 0.081253 -0.029108 0.024554
v 0.081255 -0.029818 0.024380
v 0.081543 -0.029968 0.024049
v 0.078138 -0.026768 0.024440
v 0.081238 -0.028408 0.024622
v 0.081567 -0.028538 0.024410
v 0.081834 -0.028748 0.024152
v 0.078852 -0.026028 0.024584
v 0.078331 -0.026228 0.024466
v 0.081144 -0.027228 0.024537
v 0.081547 -0.027818 0.024402
v 0.081876 -0.027988 0.024154
v 0.078120 -0.025298 0.024031
v 0.078388 -0.024718 0.023867
v 0.078768 -0.025408 0.024359
v 0.079247 -0.025198 0.024333
v 0.078981 -0.025018 0.024240
v 0.078696 -0.024878 0.024090
v 0.079467 -0.025718 0.024503
v 0.080698 -0.026538 0.024510
v 0.081620 -0.027008 0.024204
v 0.079165 -0.024718 0.024068
v 0.078829 -0.024568 0.023921
v 0.079777 -0.025048 0.024166
v 0.071281 -0.046448 0.023372
v 0.071040 -0.046498 0.023159
v 0.070905 -0.046528 0.022927
v 0.070763 -0.046348 0.022958
v 0.070657 -0.046108 0.022947
v 0.070638 -0.046308 0.022728
v 0.071502 -0.046568 0.023376
v 0.071684 -0.046688 0.023251
v 0.071399 -0.046698 0.023142
v 0.071918 -0.046778 0.022935
v 0.071707 -0.046838 0.022818
v 0.070518 -0.045468 0.022971
v 0.070450 -0.045098 0.022862
v 0.070454 -0.045738 0.022739
v 0.071217 -0.046098 0.023468
v 0.070950 -0.046118 0.023287
v 0.071713 -0.046428 0.023482
v 0.072159 -0.046288 0.023371
v 0.071985 -0.046558 0.023249
v 0.072354 -0.046348 0.022947
v 0.072171 -0.046668 0.022790
v 0.070943 -0.044328 0.023516
v 0.070709 -0.045058 0.023282
v 0.070737 -0.044278 0.023285
v 0.072458 -0.045718 0.023457
v 0.070663 -0.043788 0.022952
v 0.071327 -0.042068 0.023417
v 0.074456 -0.042438 0.023134
v 0.073091 -0.037488 0.023572
v 0.072645 -0.037798 0.023256
v 0.078502 -0.036808 0.023178
v 0.074685 -0.034208 0.023115
v 0.075131 -0.033068 0.022916
v 0.079396 -0.035198 0.023388
v 0.076561 -0.031748 0.023683
v 0.079846 -0.033758 0.023666
v 0.080155 -0.033738 0.023140
v 0.080589 -0.032188 0.023410
v 0.076728 -0.028978 0.023361
v 0.076501 -0.029248 0.023198
v 0.081019 -0.031128 0.023655
v 0.081026 -0.031789 0.022927
v 0.076863 -0.028238 0.023336
v 0.081676 -0.030598 0.023311
v 0.081913 -0.030358 0.023010
v 0.081498 -0.030968 0.022970
v 0.081764 -0.030088 0.023694
v 0.082159 -0.028898 0.023738
v 0.082348 -0.028988 0.023367
v 0.077298 -0.025888 0.023643
v 0.082309 -0.027858 0.023687
v 0.082492 -0.028288 0.023402
v 0.077358 -0.024918 0.023209
v 0.077737 -0.025078 0.023648
v 0.078033 -0.024508 0.023464
v 0.082202 -0.027238 0.023755
v 0.082741 -0.027658 0.023074
v 0.082696 -0.027028 0.023089
v 0.077868 -0.024228 0.022995
v 0.078550 -0.024408 0.023678
v 0.078448 -0.024018 0.023178
v 0.078866 -0.023858 0.023136
v 0.079045 -0.024248 0.023648
v 0.081139 -0.025008 0.023696
v 0.081711 -0.025408 0.023607
v 0.082479 -0.026068 0.023174
v 0.080558 -0.024068 0.023320
v 0.081519 -0.024378 0.023178
v 0.082100 -0.025478 0.023358
v 0.082063 -0.024718 0.023054
v 0.070714 -0.046458 0.022609
v 0.071093 -0.046698 0.022509
v 0.070635 -0.046338 0.022400
v 0.070793 -0.046508 0.022296
v 0.071093 -0.046638 0.022075
v 0.070777 -0.046308 0.022055
v 0.071135 -0.046539 0.021864
v 0.072064 -0.046848 0.022444
v 0.071787 -0.046898 0.022301
v 0.071675 -0.046858 0.022073
v 0.072059 -0.046828 0.022076
v 0.071510 -0.046708 0.021855
v 0.071858 -0.046778 0.021854
v 0.070457 -0.045878 0.022506
v 0.070390 -0.045218 0.022518
v 0.070547 -0.045928 0.022194
v 0.070475 -0.045268 0.022190
v 0.070670 -0.045558 0.021935
v 0.072175 -0.046628 0.021852
v 0.072373 -0.046578 0.022307
v 0.072345 -0.046608 0.022064
v 0.070443 -0.044458 0.022539
v 0.070509 -0.044188 0.022116
v 0.072834 -0.045818 0.021904
v 0.073378 -0.044888 0.022505
v 0.070762 -0.042478 0.022341
v 0.071126 -0.041108 0.022519
v 0.071083 -0.041158 0.022016
v 0.075323 -0.041598 0.022044
v 0.071790 -0.038828 0.021968
v 0.072289 -0.037948 0.022709
v 0.073475 -0.035358 0.022800
v 0.073207 -0.035568 0.022546
v 0.078397 -0.037208 0.021906
v 0.074141 -0.033918 0.022472
v 0.079402 -0.035518 0.022749
v 0.075697 -0.031818 0.022646
v 0.080293 -0.033798 0.022708
v 0.080193 -0.034198 0.022027
v 0.075661 -0.030898 0.022204
v 0.080805 -0.032518 0.022534
v 0.075903 -0.028208 0.022574
v 0.081185 -0.031718 0.022288
v 0.075690 -0.027278 0.022393
v 0.081600 -0.030978 0.022433
v 0.076005 -0.026038 0.022497
v 0.076159 -0.025558 0.022403
v 0.075701 -0.026048 0.022106
v 0.082656 -0.028978 0.022409
v 0.082865 -0.028058 0.022700
v 0.077000 -0.024419 0.022176
v 0.077763 -0.024128 0.022674
v 0.077971 -0.024108 0.022444
v 0.078283 -0.023898 0.022824
v 0.078890 -0.023748 0.022790
v 0.078700 -0.023908 0.022435
v 0.078146 -0.024308 0.021994
v 0.080388 -0.023638 0.022844
v 0.082379 -0.024878 0.022826
v 0.082855 -0.025578 0.022451
v 0.080506 -0.023548 0.022397
v 0.081236 -0.023808 0.022822
v 0.081807 -0.023818 0.022499
v 0.081791 -0.023678 0.022198
v 0.081959 -0.024238 0.022802
v 0.082508 -0.024588 0.022458
v 0.082167 -0.023838 0.022193
v 0.071238 -0.046368 0.021690
v 0.071590 -0.046628 0.021737
v 0.071221 -0.045458 0.021364
v 0.071646 -0.045768 0.021258
v 0.071931 -0.046628 0.021706
v 0.072183 -0.046138 0.021500
v 0.071826 -0.046328 0.021484
v 0.070745 -0.044458 0.021704
v 0.071314 -0.044458 0.021109
v 0.071762 -0.045198 0.021034
v 0.072034 -0.045478 0.021103
v 0.070810 -0.043138 0.021729
v 0.071460 -0.040758 0.021259
v 0.071365 -0.040338 0.021713
v 0.071865 -0.038798 0.021467
v 0.072708 -0.036408 0.021563
v 0.079207 -0.035778 0.021547
v 0.074636 -0.031928 0.021300
v 0.080112 -0.034338 0.021351
v 0.074995 -0.031508 0.021681
v 0.075172 -0.030828 0.021622
v 0.075314 -0.028888 0.021898
v 0.075485 -0.029838 0.021946
v 0.080807 -0.032508 0.021377
v 0.075269 -0.027078 0.021887
v 0.075026 -0.027498 0.021593
v 0.082430 -0.029578 0.021219
v 0.076001 -0.025288 0.021934
v 0.075524 -0.025688 0.021458
v 0.076507 -0.024778 0.022097
v 0.076299 -0.024788 0.021655
v 0.076730 -0.024458 0.021806
v 0.077266 -0.024338 0.022032
v 0.076980 -0.024368 0.021816
v 0.076934 -0.024408 0.021426
v 0.077753 -0.024568 0.021288
v 0.083319 -0.027768 0.021295
v 0.079032 -0.024248 0.021725
v 0.083349 -0.026558 0.021867
v 0.083501 -0.026978 0.021399
v 0.079820 -0.023778 0.021999
v 0.081578 -0.023568 0.021558
v 0.082474 -0.024008 0.021815
v 0.082181 -0.023738 0.021846
v 0.082185 -0.023748 0.021517
v 0.082873 -0.024678 0.021820
v 0.071499 -0.043398 0.020831
v 0.072034 -0.042958 0.020410
v 0.072649 -0.043858 0.020513
v 0.072421 -0.043798 0.020486
v 0.072903 -0.044028 0.020687
v 0.072012 -0.041898 0.020361
v 0.072409 -0.041988 0.020120
v 0.073090 -0.042758 0.020197
v 0.072922 -0.042478 0.020099
v 0.072254 -0.038598 0.020783
v 0.072725 -0.038718 0.020188
v 0.075837 -0.040518 0.021030
v 0.076639 -0.039458 0.021006
v 0.076456 -0.039298 0.020520
v 0.072947 -0.036578 0.020585
v 0.077419 -0.038078 0.020692
v 0.077130 -0.038218 0.020384
v 0.073294 -0.035328 0.020724
v 0.078270 -0.036678 0.020316
v 0.079060 -0.035648 0.020562
v 0.074601 -0.031998 0.020522
v 0.074820 -0.030938 0.020975
v 0.074795 -0.031098 0.020320
v 0.080107 -0.034098 0.020868
v 0.074943 -0.030018 0.021110
v 0.074615 -0.028598 0.020400
v 0.080943 -0.031888 0.020818
v 0.074811 -0.028018 0.021126
v 0.074858 -0.027068 0.021158
v 0.074625 -0.027428 0.020585
v 0.074663 -0.026998 0.020580
v 0.074845 -0.026368 0.020515
v 0.075167 -0.025818 0.020525
v 0.075939 -0.025018 0.020842
v 0.076350 -0.024698 0.020883
v 0.077299 -0.024428 0.021166
v 0.077687 -0.024608 0.020684
v 0.077105 -0.024348 0.020553
v 0.078308 -0.024828 0.021162
v 0.078687 -0.024758 0.021210
v 0.078385 -0.025078 0.020544
v 0.078550 -0.025088 0.020535
v 0.078918 -0.024898 0.020542
v 0.083524 -0.027248 0.020514
v 0.079202 -0.024438 0.021152
v 0.083715 -0.026318 0.020716
v 0.083646 -0.026789 0.020927
v 0.083701 -0.026658 0.020584
v 0.080065 -0.024068 0.020542
v 0.080666 -0.023868 0.020517
v 0.083253 -0.025118 0.020878
v 0.083077 -0.024898 0.020733
v 0.082882 -0.024798 0.020632
v 0.082977 -0.024858 0.020632
v 0.082663 -0.024808 0.020494
v 0.083294 -0.025228 0.020503
v 0.082945 -0.024898 0.020518
v 0.083064 -0.024948 0.020525
v 0.083174 -0.025158 0.020368
v 0.083441 -0.025588 0.021217
v 0.083638 -0.026188 0.021040
v 0.083627 -0.025898 0.020713
v 0.081214 -0.023539 0.021212
v 0.080740 -0.023678 0.020907
v 0.081151 -0.023628 0.020865
v 0.081060 -0.023808 0.020554
v 0.081853 -0.023678 0.021203
v 0.081529 -0.023708 0.020871
v 0.081434 -0.023938 0.020531
v 0.082436 -0.024028 0.021177
v 0.082565 -0.024348 0.020840
v 0.082987 -0.024758 0.020839
v 0.082824 -0.024658 0.020734
v 0.072954 -0.040608 0.019801
v 0.072721 -0.040138 0.019934
v 0.073617 -0.040608 0.019665
v 0.074693 -0.041088 0.020136
v 0.073389 -0.039048 0.019615
v 0.073754 -0.039088 0.019457
v 0.074605 -0.038418 0.019308
v 0.075710 -0.038948 0.019697
v 0.074301 -0.036998 0.019381
v 0.076683 -0.037438 0.019415
v 0.077092 -0.036758 0.019350
v 0.077238 -0.037088 0.019601
v 0.074258 -0.033778 0.020007
v 0.079004 -0.035088 0.019696
v 0.074968 -0.032068 0.019556
v 0.074944 -0.030808 0.019524
v 0.079872 -0.033228 0.019644
v 0.074716 -0.029738 0.020237
v 0.074523 -0.028158 0.019952
v 0.074556 -0.028298 0.019604
v 0.074562 -0.027688 0.019518
v 0.080804 -0.030848 0.019581
v 0.074716 -0.026588 0.020151
v 0.074736 -0.026688 0.019714
v 0.074582 -0.027238 0.020146
v 0.074612 -0.027108 0.019818
v 0.075022 -0.026088 0.019736
v 0.075772 -0.025188 0.020285
v 0.075497 -0.025488 0.019858
v 0.075974 -0.025128 0.019647
v 0.076920 -0.024408 0.020168
v 0.076704 -0.024588 0.019794
v 0.077413 -0.024408 0.019944
v 0.077431 -0.024448 0.019536
v 0.077720 -0.024598 0.019597
v 0.078175 -0.024998 0.020253
v 0.078216 -0.024968 0.019559
v 0.078562 -0.025098 0.020119
v 0.078964 -0.024938 0.020197
v 0.082902 -0.027928 0.019595
v 0.083344 -0.027278 0.019779
v 0.079388 -0.024658 0.020203
v 0.079462 -0.024738 0.019780
v 0.079921 -0.024538 0.019884
v 0.080637 -0.024688 0.019793
v 0.079710 -0.024718 0.019596
v 0.080070 -0.024768 0.019604
v 0.080863 -0.025518 0.019478
v 0.082079 -0.025398 0.019780
v 0.083433 -0.026738 0.019609
v 0.083631 -0.026638 0.020062
v 0.080900 -0.024108 0.020215
v 0.080445 -0.024258 0.020070
v 0.081251 -0.024298 0.020197
v 0.081735 -0.025168 0.019884
v 0.082957 -0.025108 0.020269
v 0.083241 -0.025318 0.020166
v 0.082662 -0.025478 0.019723
v 0.083670 -0.026168 0.020296
v 0.083532 -0.025858 0.020096
v 0.083572 -0.026128 0.019955
v 0.083371 -0.025919 0.019683
v 0.083080 -0.025708 0.019518
v 0.076185 -0.037438 0.019223
v 0.076130 -0.036228 0.018917
v 0.074970 -0.035178 0.019108
v 0.076549 -0.034658 0.018586
v 0.077798 -0.035058 0.018806
v 0.076054 -0.033788 0.018582
v 0.077502 -0.034588 0.018555
v 0.078841 -0.034608 0.019158
v 0.075372 -0.032368 0.019079
v 0.078603 -0.033988 0.018652
v 0.075450 -0.031188 0.018915
v 0.079001 -0.033478 0.018692
v 0.079005 -0.032928 0.018499
v 0.075335 -0.030368 0.018807
v 0.075708 -0.030538 0.018529
v 0.079562 -0.032118 0.018706
v 0.080043 -0.032348 0.019360
v 0.079769 -0.032648 0.019098
v 0.080325 -0.031418 0.019344
v 0.074680 -0.027358 0.019263
v 0.074738 -0.028038 0.018985
v 0.074972 -0.027758 0.018559
v 0.080501 -0.030508 0.019084
v 0.079902 -0.030868 0.018739
v 0.080901 -0.029668 0.018899
v 0.081204 -0.029988 0.019359
v 0.074953 -0.026558 0.019269
v 0.075500 -0.026198 0.018678
v 0.075678 -0.025568 0.019217
v 0.076070 -0.025218 0.019201
v 0.076118 -0.025468 0.018721
v 0.081689 -0.028658 0.018738
v 0.077449 -0.024508 0.019113
v 0.077721 -0.024538 0.019102
v 0.077283 -0.024588 0.018861
v 0.077772 -0.024488 0.018753
v 0.077984 -0.024708 0.019227
v 0.078490 -0.024938 0.019193
v 0.078074 -0.024618 0.018874
v 0.079070 -0.024878 0.019032
v 0.079955 -0.025248 0.019110
v 0.080123 -0.025558 0.018857
v 0.080430 -0.025688 0.019207
v 0.080832 -0.025798 0.019230
v 0.080400 -0.025748 0.019070
v 0.081168 -0.025868 0.019099
v 0.080718 -0.025888 0.018860
v 0.080392 -0.025778 0.018710
v 0.083148 -0.027118 0.019268
v 0.082732 -0.027648 0.019097
v 0.079288 -0.024828 0.019339
v 0.079438 -0.024838 0.019217
v 0.079394 -0.024858 0.018884
v 0.080315 -0.025238 0.019417
v 0.079768 -0.024868 0.019368
v 0.079681 -0.024998 0.019094
v 0.079699 -0.025058 0.018830
v 0.081447 -0.025898 0.018849
v 0.082506 -0.025808 0.019144
v 0.082306 -0.025968 0.018743
v 0.082690 -0.026388 0.018661
v 0.082601 -0.026178 0.018658
v 0.076333 -0.031478 0.018343
v 0.077264 -0.032488 0.018060
v 0.077913 -0.032788 0.018067
v 0.078574 -0.033298 0.018374
v 0.078673 -0.032578 0.018243
v 0.075142 -0.028948 0.018525
v 0.075422 -0.029458 0.018318
v 0.075792 -0.029058 0.017877
v 0.076662 -0.030298 0.017880
v 0.075477 -0.028168 0.017966
v 0.077442 -0.029758 0.017618
v 0.078513 -0.029668 0.017770
v 0.079643 -0.030568 0.018478
v 0.075196 -0.027008 0.018455
v 0.075455 -0.027288 0.018010
v 0.080233 -0.029508 0.018455
v 0.075618 -0.026778 0.018081
v 0.076000 -0.025919 0.018375
v 0.081352 -0.028278 0.018307
v 0.077290 -0.025238 0.017820
v 0.081712 -0.027458 0.018128
v 0.082186 -0.027508 0.018466
v 0.077132 -0.024758 0.018606
v 0.077509 -0.024538 0.018556
v 0.078612 -0.024688 0.018580
v 0.078090 -0.024508 0.018138
v 0.078558 -0.024528 0.018160
v 0.078342 -0.024508 0.018013
v 0.077781 -0.024718 0.017929
v 0.078244 -0.024538 0.017910
v 0.078494 -0.024498 0.017907
v 0.078431 -0.024558 0.017787
v 0.080158 -0.025468 0.018239
v 0.080149 -0.025478 0.017783
v 0.080793 -0.025828 0.018067
v 0.080441 -0.025668 0.017917
v 0.080409 -0.025688 0.017768
v 0.080694 -0.025858 0.017770
v 0.081375 -0.026038 0.017913
v 0.082083 -0.027158 0.018247
v 0.082196 -0.026648 0.018215
v 0.081917 -0.026338 0.018069
v 0.082483 -0.026998 0.018503
v 0.079154 -0.024758 0.018556
v 0.079445 -0.024758 0.018246
v 0.079143 -0.024568 0.017928
v 0.079449 -0.024718 0.017904
v 0.078809 -0.024548 0.017790
v 0.079142 -0.024628 0.017789
v 0.079463 -0.024828 0.017776
v 0.079712 -0.024968 0.017922
v 0.076589 -0.028758 0.017431
v 0.075793 -0.027568 0.017640
v 0.075984 -0.027938 0.017524
v 0.076475 -0.027688 0.017230
v 0.076352 -0.027378 0.017287
v 0.076251 -0.027058 0.017435
v 0.076715 -0.027408 0.017122
v 0.076636 -0.027088 0.017203
v 0.077207 -0.026928 0.017052
v 0.077171 -0.027669 0.017015
v 0.077535 -0.028008 0.017029
v 0.078029 -0.027368 0.016891
v 0.078708 -0.028288 0.017194
v 0.078210 -0.027868 0.016961
v 0.078389 -0.027508 0.016896
v 0.077200 -0.025928 0.017414
v 0.077692 -0.026128 0.017170
v 0.079144 -0.027508 0.017039
v 0.078677 -0.026868 0.016970
v 0.079576 -0.027978 0.017334
v 0.077667 -0.025318 0.017502
v 0.077948 -0.025478 0.017328
v 0.078162 -0.025828 0.017207
v 0.079952 -0.026568 0.017170
v 0.080799 -0.026998 0.017465
v 0.080600 -0.026668 0.017313
v 0.078151 -0.024878 0.017575
v 0.078718 -0.024858 0.017491
v 0.079583 -0.025238 0.017508
v 0.080018 -0.025688 0.017473
v 0.079860 -0.026088 0.017245
v 0.080642 -0.026398 0.017342
v 0.080662 -0.026138 0.017440
v 0.080993 -0.026308 0.017516
v 0.080928 -0.026508 0.017445
v 0.077763 -0.024128 0.022674
v 0.078283 -0.023898 0.022824
v 0.079712 -0.024968 0.017922
vn -0.5794 0.3187 0.7502
vn -0.4843 0.1657 0.8591
vn -0.3750 0.1648 0.9123
vn 0.1568 -0.1976 0.9677
vn 0.1262 -0.1145 0.9854
vn -0.1888 0.0078 0.9820
vn 0.3490 -0.2497 0.9032
vn 0.4460 -0.3822 0.8093
vn -0.5392 0.3132 0.7818
vn -0.1220 0.0087 0.9925
vn -0.2891 0.1831 0.9396
vn -0.0387 0.0339 0.9987
vn 0.2932 -0.1005 0.9507
vn -0.3544 0.1864 0.9163
vn 0.5118 -0.2230 0.8296
vn 0.5159 -0.3541 0.7801
vn -0.0885 0.1795 0.9798
vn 0.0867 0.0454 0.9952
vn 0.4210 -0.0563 0.9053
vn 0.2279 0.0578 0.9720
vn 0.0272 0.0887 0.9957
vn 0.2842 -0.0278 0.9584
vn 0.4996 -0.1764 0.8481
vn -0.2290 -0.0383 0.9727
vn 0.0802 -0.1073 0.9910
vn -0.1628 -0.1957 0.9671
vn -0.4324 -0.0191 0.9015
vn -0.3611 0.0003 0.9325
vn -0.1756 -0.0454 0.9834
vn -0.2529 0.1040 0.9619
vn 0.0203 -0.2552 0.9667
vn 0.1075 -0.1132 0.9877
vn 0.3339 -0.3232 0.8854
vn 0.2870 -0.3306 0.8991
vn 0.3824 -0.1852 0.9052
vn 0.2634 -0.0175 0.9645
vn 0.5213 -0.3926 0.7577
vn -0.0349 0.0530 0.9980
vn 0.5283 -0.1390 0.8376
vn 0.4817 -0.0087 0.8763
vn -0.0144 0.1958 0.9805
vn 0.1644 0.1545 0.9742
vn 0.3662 0.0895 0.9262
vn 0.2954 0.3006 0.9069
vn 0.1052 0.3123 0.9441
vn 0.4139 0.2100 0.8858
vn 0.5569 0.0953 0.8251
vn -0.2200 -0.3483 0.9112
vn -0.2316 -0.1562 0.9602
vn -0.4365 -0.2258 0.8709
vn 0.0016 -0.2755 0.9613
vn -0.3445 -0.0431 0.9378
vn -0.0604 -0.1046 0.9927
vn -0.5456 -0.0984 0.8323
vn 0.2719 -0.2515 0.9289
vn 0.1136 -0.5351 0.8371
vn 0.3147 -0.4278 0.8473
vn 0.4769 -0.6765 0.5612
vn 0.6671 -0.4067 0.6242
vn -0.6017 0.0539 0.7969
vn -0.5211 0.0989 0.8477
vn 0.1670 -0.1335 0.9769
vn 0.5035 -0.2686 0.8212
vn 0.7304 -0.4636 0.5016
vn -0.2140 -0.0359 0.9762
vn -0.7855 0.2006 0.5855
vn 0.1085 -0.1575 0.9815
vn 0.4103 -0.3003 0.8611
vn 0.0339 -0.1972 0.9798
vn 0.2854 -0.3182 0.9041
vn -0.7354 0.2439 0.6322
vn -0.6371 0.3252 0.6988
vn 0.6371 -0.4817 0.6018
vn -0.6841 0.4140 0.6004
vn 0.6327 -0.3524 0.6896
vn 0.7206 -0.4744 0.5057
vn 0.7942 -0.5457 0.2673
vn -0.6455 0.3899 0.6567
vn 0.7651 -0.4009 0.5038
vn 0.6720 -0.2756 0.6874
vn 0.8331 -0.4207 0.3590
vn -0.6415 0.3178 0.6982
vn 0.7862 -0.3159 0.5312
vn 0.6100 -0.1534 0.7774
vn 0.7255 -0.2452 0.6430
vn -0.6658 0.0978 0.7397
vn -0.4989 -0.0102 0.8666
vn 0.6723 -0.2294 0.7038
vn 0.7688 -0.3239 0.5514
vn 0.5464 -0.3917 0.7403
vn -0.6066 0.0595 0.7928
vn -0.5657 0.0293 0.8241
vn -0.6472 0.0420 0.7612
vn 0.5857 -0.2561 0.7690
vn 0.6510 -0.5004 0.5709
vn 0.6995 -0.3207 0.6387
vn 0.6856 -0.5265 0.5027
vn 0.7755 -0.5311 0.3413
vn 0.7946 -0.3788 0.4745
vn -0.6282 0.0105 0.7780
vn -0.5157 0.0816 0.8529
vn 0.7031 -0.1319 0.6988
vn 0.7943 -0.1957 0.5752
vn -0.6297 0.2191 0.7453
vn -0.4322 0.2044 0.8783
vn 0.6007 -0.0551 0.7976
vn 0.6789 0.0315 0.7336
vn 0.7750 -0.0002 0.6320
vn -0.2464 0.3437 0.9062
vn -0.4779 0.3471 0.8069
vn -0.2760 0.4740 0.8361
vn -0.1704 0.2587 0.9508
vn 0.4724 0.3360 0.8148
vn 0.5574 0.2118 0.8028
vn 0.7149 0.1233 0.6883
vn -0.3975 0.5215 0.7550
vn -0.1684 0.6183 0.7677
vn -0.2965 0.6806 0.6700
vn 0.0451 0.3971 0.9167
vn -0.1208 0.4544 0.8826
vn 0.2122 0.4567 0.8640
vn 0.0243 0.5785 0.8153
vn 0.3363 0.4261 0.8399
vn 0.1877 0.6480 0.7382
vn -0.0567 0.7306 0.6804
vn -0.9490 -0.1763 0.2613
vn -0.9724 -0.2266 -0.0552
vn -0.8635 -0.4482 0.2311
vn -0.4180 -0.5067 0.7540
vn -0.1863 -0.6641 0.7240
vn -0.2910 -0.8773 0.3816
vn -0.6368 -0.2619 0.7251
vn -0.5453 -0.6172 0.5672
vn -0.5712 -0.7643 0.2993
vn -0.8192 -0.2693 0.5064
vn -0.7482 -0.4680 0.4702
vn -0.4016 -0.9154 0.0271
vn -0.7142 -0.6932 0.0970
vn 0.0918 -0.8319 0.5473
vn 0.3307 -0.8806 0.3395
vn -0.0593 -0.9796 0.1919
vn 0.6594 -0.6924 0.2929
vn 0.4300 -0.8983 0.0900
vn -0.7679 -0.0485 0.6387
vn -0.8502 -0.1138 0.5141
vn -0.9400 0.0268 0.3402
vn 0.5964 -0.5268 0.6056
vn 0.7750 -0.5361 0.3346
vn -0.9892 0.1168 0.0881
vn -0.9161 0.1810 0.3577
vn -0.9801 0.1971 0.0217
vn -0.8270 0.1097 0.5514
vn 0.8535 -0.4869 0.1857
vn -0.9254 0.2705 0.2656
vn 0.8356 -0.5482 0.0336
vn -0.8826 0.3395 0.3251
vn -0.7624 0.3229 0.5609
vn -0.8553 0.3914 0.3396
vn -0.6847 0.4059 0.6053
vn -0.6945 0.4444 0.5659
vn 0.8569 -0.4975 0.1349
vn 0.8467 -0.3515 0.3995
vn 0.8985 -0.3885 0.2045
vn -0.7929 -0.0316 0.6086
vn -0.7093 0.0416 0.7037
vn 0.8548 -0.4234 0.2999
vn -0.6698 0.1377 0.7297
vn -0.6893 0.0012 0.7245
vn 0.7946 -0.5503 0.2563
vn 0.8668 -0.4564 0.2009
vn 0.8744 -0.2851 0.3927
vn -0.7127 0.0473 0.6999
vn -0.7140 0.2336 0.6601
vn 0.8474 -0.1250 0.5160
vn 0.9202 -0.1960 0.3389
vn 0.9093 -0.3769 0.1766
vn -0.5702 0.4078 0.7131
vn -0.6167 0.4844 0.6205
vn -0.6941 0.4163 0.5873
vn -0.6525 0.6244 0.4294
vn 0.8696 -0.0295 0.4928
vn -0.4873 0.6019 0.6327
vn -0.5107 0.7029 0.4951
vn -0.3271 0.7753 0.5403
vn 0.8290 0.0893 0.5520
vn 0.7564 0.1853 0.6274
vn -0.3705 0.8309 0.4151
vn -0.1451 0.8656 0.4792
vn -0.1861 0.9824 0.0143
vn 0.0521 0.9036 0.4251
vn 0.6281 0.2716 0.7292
vn 0.8442 0.2186 0.4895
vn 0.7273 0.3351 0.5989
vn 0.2701 0.7780 0.5673
vn 0.3787 0.5229 0.7637
vn 0.5712 0.4122 0.7098
vn 0.5348 0.5449 0.6458
vn -0.8756 -0.2214 -0.4294
vn -0.8663 -0.4722 -0.1628
vn -0.7219 -0.4114 -0.5565
vn -0.7645 -0.1344 -0.6304
vn -0.6538 -0.7191 -0.2355
vn -0.4814 -0.8178 -0.3152
vn -0.1621 -0.9551 -0.2480
vn -0.2894 -0.7882 -0.5432
vn -0.4959 -0.6100 -0.6181
vn -0.4438 -0.4255 -0.7887
vn -0.0336 -0.9992 -0.0225
vn 0.3833 -0.8920 -0.2395
vn 0.7698 -0.6336 0.0773
vn 0.0808 -0.8397 -0.5371
vn -0.2152 -0.6414 -0.7364
vn 0.1970 -0.6446 -0.7387
vn 0.0108 -0.4981 -0.8670
vn -0.9991 -0.0181 -0.0378
vn -0.9169 -0.0539 -0.3954
vn -0.5682 -0.2094 -0.7958
vn 0.5227 -0.6399 -0.5634
vn 0.7136 -0.6645 -0.2218
vn 0.4524 -0.4762 -0.7540
vn 0.7887 -0.5236 -0.3223
vn -0.9506 0.0861 -0.2981
vn -0.7913 -0.0116 -0.6113
vn 0.7394 -0.5589 -0.3754
vn -0.8807 0.1105 -0.4606
vn -0.9611 0.2315 -0.1504
vn -0.9439 0.3264 0.0498
vn -0.9338 0.2483 -0.2574
vn -0.8477 0.1620 -0.5051
vn -0.9194 0.2807 -0.2756
vn -0.9318 0.3618 -0.0294
vn 0.8289 -0.5554 -0.0665
vn -0.9029 0.3398 0.2634
vn -0.7964 0.3009 0.5246
vn 0.9019 -0.4305 0.0351
vn 0.8423 -0.5212 -0.1374
vn -0.7140 0.3594 0.6008
vn -0.7566 0.1534 0.6357
vn 0.9253 -0.3706 0.0802
vn -0.8035 -0.0661 0.5916
vn 0.8774 -0.4688 0.1016
vn 0.9244 -0.3682 -0.0996
vn 0.8590 -0.5083 0.0607
vn -0.8541 0.0297 0.5192
vn -0.8020 0.1373 0.5814
vn -0.7990 0.2945 0.5244
vn 0.8700 -0.4835 -0.0965
vn 0.9319 -0.3488 0.0990
vn -0.7500 0.5237 0.4040
vn 0.9087 0.0569 0.4137
vn -0.4640 0.8411 0.2778
vn -0.5180 0.7538 0.4043
vn -0.1467 0.9828 -0.1121
vn -0.2875 0.9441 -0.1612
vn -0.2234 0.9273 -0.3002
vn -0.0311 0.8786 -0.4766
vn 0.2916 0.9225 -0.2529
vn -0.2697 0.9210 -0.2811
vn -0.2451 0.8840 -0.3981
vn -0.2951 0.9160 -0.2718
vn 0.9124 0.3189 0.2565
vn -0.0431 0.9975 0.0552
vn -0.2362 0.9304 -0.2803
vn 0.7661 0.4101 0.4948
vn 0.8605 0.4174 0.2920
vn 0.2515 0.9344 0.2524
vn 0.3860 0.7584 0.5252
vn 0.5842 0.7046 0.4027
vn 0.1732 0.9849 -0.0006
vn 0.4910 0.8646 0.1066
vn -0.2624 -0.3519 -0.8985
vn -0.6152 -0.1062 -0.7812
vn -0.2792 -0.2685 -0.9219
vn 0.1030 -0.3990 -0.9111
vn 0.4860 -0.4151 -0.7691
vn -0.4232 -0.1337 -0.8961
vn -0.6887 -0.0359 -0.7241
vn -0.8188 0.2066 -0.5356
vn -0.6848 0.1617 -0.7106
vn 0.7724 -0.5555 -0.3081
vn 0.7673 -0.5361 -0.3519
vn -0.8822 0.3181 -0.3472
vn -0.9561 0.2419 -0.1657
vn 0.8056 -0.5157 -0.2918
vn 0.8803 -0.4588 -0.1208
vn -0.9604 0.1313 0.2458
vn -0.8197 0.1497 0.5529
vn -0.9149 0.0069 0.4036
vn 0.8633 -0.4026 -0.3042
vn 0.8649 -0.4047 -0.2969
vn -0.9208 -0.0363 0.3884
vn -0.8991 0.1837 0.3974
vn -0.9705 0.0388 0.2380
vn -0.8156 0.4771 0.3272
vn -0.6874 0.7009 0.1900
vn -0.8925 0.4108 0.1862
vn -0.8079 0.5824 0.0898
vn -0.5016 0.8545 0.1350
vn -0.5496 0.8351 -0.0243
vn -0.2087 0.9766 -0.0511
vn -0.2060 0.9785 0.0090
vn 0.2264 0.9739 -0.0150
vn -0.0239 0.9997 0.0057
vn 0.1158 0.8943 -0.4322
vn -0.3074 0.8394 -0.4483
vn -0.3656 0.8006 -0.4748
vn -0.5133 0.7921 -0.3304
vn 0.9549 0.1194 0.2719
vn 0.9492 -0.1398 0.2820
vn 0.9726 -0.1673 0.1615
vn 0.8582 0.5133 0.0085
vn 0.0194 0.9889 -0.1472
vn 0.5001 0.8579 -0.1176
vn 0.3460 0.8900 -0.2969
vn 0.6256 0.7236 -0.2916
vn 0.7729 0.6132 0.1630
vn -0.1281 -0.2722 -0.9537
vn 0.1755 -0.3625 -0.9153
vn 0.4189 -0.4331 -0.7981
vn 0.2160 -0.3342 -0.9174
vn -0.0574 -0.2309 -0.9713
vn -0.6630 0.0398 -0.7476
vn -0.3528 -0.0649 -0.9335
vn -0.3687 -0.0957 -0.9246
vn -0.5982 0.0743 -0.7979
vn -0.4984 0.0910 -0.8621
vn 0.5430 -0.4522 -0.7076
vn 0.6765 -0.5098 -0.5315
vn -0.8148 0.2462 -0.5248
vn 0.6830 -0.5049 -0.5279
vn -0.7568 0.2082 -0.6196
vn 0.7430 -0.5381 -0.3979
vn 0.7257 -0.4646 -0.5074
vn -0.9933 0.0915 -0.0710
vn -0.9943 -0.0962 0.0471
vn 0.8033 -0.3530 -0.4797
vn -0.9758 -0.0734 0.2058
vn -0.9547 0.1920 0.2275
vn -0.9918 0.1195 0.0454
vn -0.9352 0.3542 0.0023
vn -0.6796 0.7323 0.0423
vn -0.6548 0.7533 -0.0610
vn 0.7775 -0.4837 -0.4020
vn 0.8687 -0.3795 -0.3184
vn 0.6959 -0.4196 -0.5828
vn -0.3217 0.9407 -0.1075
vn 0.5176 0.8552 -0.0270
vn 0.2669 0.9629 -0.0410
vn -0.1816 0.9614 -0.2067
vn 0.2473 0.9538 -0.1707
vn 0.4700 0.8826 0.0051
vn -0.0574 0.9975 0.0413
vn -0.5060 0.8240 -0.2548
vn -0.4458 0.8900 -0.0959
vn 0.9273 -0.3619 -0.0954
vn -0.5064 0.8131 -0.2872
vn 0.9957 0.0598 0.0713
vn 0.9881 -0.1507 -0.0295
vn 0.9749 0.1597 -0.1551
vn -0.4018 0.8329 -0.3807
vn -0.1782 0.8414 -0.5102
vn 0.0558 0.8080 -0.5866
vn -0.0791 0.7198 -0.6896
vn 0.1100 0.6507 -0.7513
vn 0.2920 0.5150 -0.8059
vn 0.3130 0.6654 -0.6778
vn 0.3195 0.6487 -0.6907
vn 0.5198 0.6622 -0.5397
vn 0.5620 0.6411 -0.5226
vn 0.7388 0.6467 -0.1898
vn 0.4536 0.7270 -0.5154
vn 0.5148 0.7799 -0.3560
vn 0.7477 0.6329 -0.2008
vn 0.5703 0.7265 -0.3833
vn 0.8239 0.5421 -0.1651
vn 0.3466 0.7768 -0.5258
vn 0.2786 0.7431 -0.6084
vn 0.6307 0.6488 -0.4257
vn 0.5861 0.6939 -0.4183
vn 0.9483 0.3160 0.0286
vn 0.8827 0.3887 -0.2640
vn 0.0275 0.9233 -0.3830
vn 0.2959 0.8357 -0.4627
vn 0.0293 -0.2147 -0.9763
vn 0.2971 -0.3364 -0.8936
vn -0.2423 -0.0356 -0.9695
vn -0.0144 -0.1519 -0.9883
vn -0.4747 0.0671 -0.8776
vn 0.4382 -0.3930 -0.8084
vn 0.2316 -0.2949 -0.9270
vn 0.3588 -0.3648 -0.8592
vn 0.6143 -0.4189 -0.6687
vn -0.8420 0.0684 -0.5351
vn -0.9135 -0.0861 -0.3975
vn -0.6958 -0.1168 -0.7086
vn 0.8125 -0.2626 -0.5205
vn 0.7464 -0.2829 -0.6023
vn -0.9782 -0.0897 -0.1874
vn 0.7540 -0.3001 -0.5843
vn -0.9988 -0.0307 0.0370
vn -0.9795 0.0671 -0.1897
vn 0.7157 -0.4298 -0.5505
vn 0.5899 -0.3622 -0.7217
vn -0.9754 0.1907 -0.1104
vn -0.9173 0.3346 -0.2157
vn -0.8171 0.5372 -0.2090
vn -0.9184 0.1923 -0.3459
vn 0.6336 -0.4833 -0.6041
vn -0.8309 0.4008 -0.3859
vn -0.7097 0.6866 -0.1577
vn -0.6000 0.7722 -0.2092
vn -0.5817 0.7374 -0.3433
vn -0.6821 0.6332 -0.3658
vn -0.4901 0.8504 -0.1913
vn 0.5328 0.8446 0.0517
vn 0.1665 0.9828 -0.0798
vn -0.0775 0.9915 -0.1043
vn 0.3823 0.9059 0.1820
vn 0.1716 0.9410 0.2916
vn -0.3443 0.9233 -0.1703
vn -0.2092 0.9755 -0.0684
vn 0.7904 -0.2448 -0.5615
vn 0.9569 -0.1235 -0.2630
vn -0.2343 0.8215 -0.5199
vn -0.0332 0.9144 -0.4035
vn 0.1543 0.9629 -0.2216
vn 0.3234 0.7642 -0.5581
vn 0.1934 0.6678 -0.7188
vn 0.2187 0.4924 -0.8424
vn 0.4179 0.4750 -0.7744
vn 0.6401 0.6210 -0.4523
vn 0.2392 0.5434 -0.8047
vn 0.2099 0.5413 -0.8142
vn 0.1456 0.8328 -0.5341
vn 0.1167 0.7126 -0.6918
vn 0.0914 0.8168 -0.5697
vn 0.0056 0.9508 -0.3097
vn 0.9101 0.1693 -0.3782
vn 0.8713 -0.0796 -0.4843
vn 0.7837 0.3398 -0.5199
vn 0.4763 0.6587 -0.5825
vn 0.0674 0.8954 -0.4401
vn 0.5597 0.4917 -0.6670
vn -0.4196 -0.0509 -0.9063
vn -0.5762 0.1067 -0.8103
vn 0.0685 -0.2231 -0.9724
vn -0.1349 -0.1809 -0.9742
vn 0.3252 -0.3957 -0.8589
vn 0.1230 -0.2998 -0.9460
vn 0.3510 -0.2821 -0.8928
vn 0.4325 -0.3747 -0.8201
vn -0.6922 -0.0128 -0.7216
vn 0.6144 -0.3288 -0.7172
vn 0.5447 -0.2269 -0.8073
vn 0.3842 -0.1646 -0.9085
vn -0.7355 -0.2364 -0.6350
vn -0.5796 -0.2502 -0.7756
vn -0.6993 -0.2392 -0.6736
vn -0.5000 -0.1335 -0.8557
vn 0.6361 -0.1899 -0.7479
vn -0.9081 -0.0414 -0.4168
vn -0.8146 -0.1510 -0.5601
vn -0.8379 0.0444 -0.5440
vn 0.5009 -0.1974 -0.8427
vn 0.2748 -0.2882 -0.9173
vn -0.7964 0.2996 -0.5253
vn 0.6229 -0.2018 -0.7558
vn -0.7186 0.1802 -0.6717
vn 0.4839 -0.4555 -0.7472
vn 0.4192 -0.3903 -0.8197
vn -0.7077 0.5019 -0.4972
vn -0.6411 0.3973 -0.6566
vn 0.5714 -0.4724 -0.6710
vn -0.5922 0.6392 -0.4906
vn -0.5196 0.7644 -0.3817
vn -0.5915 0.5303 -0.6074
vn -0.3937 0.8963 -0.2039
vn 0.6727 -0.1944 -0.7139
vn 0.5931 -0.3681 -0.7161
vn 0.2997 0.9431 0.1439
vn 0.4666 0.8456 0.2595
vn 0.0711 0.9952 0.0673
vn 0.3364 0.8886 0.3118
vn -0.3399 0.9070 -0.2488
vn -0.1545 0.9698 -0.1885
vn 0.2126 0.9088 0.3589
vn 0.1293 0.9747 0.1825
vn 0.1474 0.9536 0.2626
vn -0.0842 0.9878 0.1310
vn 0.2882 0.9554 0.0639
vn 0.4312 0.6669 -0.6077
vn 0.7121 0.6973 -0.0820
vn 0.6601 0.7511 -0.0134
vn 0.6965 0.7134 0.0767
vn 0.4936 0.8682 0.0508
vn 0.4817 0.8269 -0.2902
vn 0.1737 0.9817 -0.0782
vn 0.0209 0.9969 -0.0757
vn 0.5451 0.7838 -0.2975
vn 0.4960 0.8540 0.1574
vn 0.2366 0.8641 -0.4443
vn 0.7153 0.1198 -0.6884
vn -0.1993 -0.1472 -0.9688
vn 0.1027 -0.2045 -0.9735
vn -0.3504 -0.2328 -0.9072
vn -0.7105 -0.0854 -0.6985
vn -0.5382 -0.2307 -0.8106
vn -0.3021 -0.2519 -0.9194
vn -0.0086 -0.2578 -0.9661
vn -0.5268 -0.1208 -0.8414
vn -0.6314 0.0742 -0.7719
vn -0.5407 0.3161 -0.7795
vn -0.4335 0.4077 -0.8036
vn -0.5232 0.5609 -0.6416
vn 0.4423 -0.4159 -0.7946
vn 0.3313 -0.3644 -0.8703
vn 0.4112 -0.2575 -0.8744
vn -0.4175 0.7262 -0.5462
vn 0.4769 -0.3345 -0.8128
vn 0.5392 -0.2456 -0.8056
vn -0.2431 0.8845 -0.3983
vn -0.0478 0.9984 -0.0285
vn -0.0163 0.9859 -0.1667
vn -0.1417 0.7933 -0.5921
vn 0.2842 0.9569 -0.0597
vn 0.0998 0.8737 -0.4761
vn 0.0467 0.5014 -0.8640
vn 0.5336 0.8425 -0.0746
vn 0.6071 0.7040 -0.3686
vn 0.3663 0.4978 -0.7861
vn 0.5943 0.5895 -0.5470
vn 0.2859 0.9554 -0.0736
vn 0.5051 0.7550 -0.4182
vn 0.4060 0.7971 -0.4470
vn 0.3808 0.7178 -0.5829
vn 0.5299 0.2982 -0.7939
vn 0.4531 0.3163 -0.8335
vn 0.3447 0.4872 -0.8024
vn 0.5881 -0.0109 -0.8087
vn 0.7074 0.7041 0.0626
vn 0.5561 0.8019 -0.2186
vn 0.4730 0.6147 -0.6312
vn 0.2934 0.7417 -0.6031
vn -0.1035 -0.2420 -0.9647
vn -0.4917 0.0998 -0.8651
vn -0.3957 0.2530 -0.8828
vn -0.3916 -0.1154 -0.9129
vn -0.1966 -0.1012 -0.9752
vn -0.3133 0.0322 -0.9491
vn 0.0525 -0.2617 -0.9637
vn 0.2086 -0.3623 -0.9084
vn -0.2200 0.1999 -0.9548
vn -0.0581 0.0274 -0.9979
vn 0.0946 -0.0918 -0.9913
vn 0.2259 -0.1688 -0.9594
vn 0.0721 0.1391 -0.9877
vn -0.1821 0.2708 -0.9452
vn -0.1870 0.3567 -0.9153
vn -0.0231 0.2527 -0.9673
vn 0.1720 0.2813 -0.9441
vn 0.1768 0.0805 -0.9810
vn 0.3146 -0.0762 -0.9462
vn -0.3912 0.4803 -0.7850
vn 0.2981 0.1864 -0.9362
vn -0.2594 0.5655 -0.7829
vn 0.3918 0.5081 -0.7670
vn 0.4534 0.0127 -0.8912
s 1
usemtl mtl1.295
f 48//1 45//2 3//3
f 2//4 5//5 1//6
f 1//6 3//3 45//2
f 5//5 2//4 6//7
f 6//7 2//4 47//8
f 48//1 3//3 51//9
f 1//6 5//5 4//10
f 1//6 4//10 3//3
f 4//10 8//11 3//3
f 8//11 51//9 3//3
f 5//5 7//12 4//10
f 5//5 10//13 7//12
f 5//5 6//7 10//13
f 8//11 58//14 51//9
f 4//10 7//12 8//11
f 6//7 11//15 10//13
f 11//15 6//7 49//16
f 58//14 8//11 12//17
f 7//12 9//18 12//17
f 8//11 7//12 12//17
f 9//18 7//12 10//13
f 10//13 11//15 13//19
f 13//19 14//20 10//13
f 10//13 14//20 9//18
f 14//20 12//17 9//18
f 15//21 58//14 12//17
f 12//17 14//20 15//21
f 63//22 15//21 14//20
f 14//20 13//19 63//22
f 13//19 65//23 63//22
f 61//24 62//25 16//26
f 68//27 61//24 16//26
f 16//26 17//28 68//27
f 17//28 19//29 24//30
f 16//26 18//31 19//29
f 18//31 20//32 19//29
f 17//28 16//26 19//29
f 16//26 64//33 18//31
f 64//33 21//34 18//31
f 21//34 20//32 18//31
f 20//32 21//34 22//35
f 20//32 22//35 25//36
f 70//37 22//35 21//34
f 24//30 19//29 23//38
f 19//29 20//32 23//38
f 20//32 25//36 23//38
f 22//35 74//39 25//36
f 74//39 78//40 25//36
f 24//30 23//38 28//41
f 26//42 28//41 23//38
f 25//36 26//42 23//38
f 25//36 27//43 26//42
f 27//43 25//36 78//40
f 93//44 92//45 26//42
f 26//42 92//45 28//41
f 83//46 93//44 26//42
f 26//42 27//43 83//46
f 78//40 84//47 27//43
f 31//48 29//49 112//50
f 31//48 30//51 29//49
f 112//50 29//49 33//52
f 29//49 35//53 33//52
f 35//53 29//49 30//51
f 34//54 112//50 33//52
f 30//51 36//55 35//53
f 30//51 31//48 114//56
f 114//56 32//57 30//51
f 114//56 116//58 32//57
f 32//57 36//55 30//51
f 122//59 36//55 32//57
f 119//60 33//52 39//61
f 34//54 33//52 119//60
f 36//55 38//62 35//53
f 36//55 37//63 38//62
f 36//55 122//59 37//63
f 122//59 125//64 37//63
f 35//53 42//65 33//52
f 39//61 33//52 42//65
f 124//66 119//60 39//61
f 38//62 42//65 35//53
f 38//62 40//67 42//65
f 37//63 41//68 38//62
f 42//65 40//67 43//69
f 40//67 38//62 41//68
f 40//67 41//68 43//69
f 43//69 41//68 44//70
f 1//6 42//65 43//69
f 43//69 2//4 1//6
f 47//8 44//70 41//68
f 45//2 42//65 1//6
f 39//61 42//65 45//2
f 45//2 46//71 39//61
f 2//4 44//70 47//8
f 2//4 43//69 44//70
f 45//2 126//72 46//71
f 41//68 50//73 47//8
f 45//2 48//1 126//72
f 6//7 47//8 49//16
f 47//8 50//73 49//16
f 51//9 130//74 48//1
f 50//73 52//75 49//16
f 52//75 50//73 53//76
f 50//73 128//77 53//76
f 48//1 130//74 129//78
f 52//75 11//15 49//16
f 54//79 55//80 52//75
f 53//76 54//79 52//75
f 53//76 128//77 54//79
f 128//77 131//81 54//79
f 132//82 130//74 51//9
f 55//80 11//15 52//75
f 55//80 54//79 133//83
f 133//83 54//79 131//81
f 132//82 51//9 58//14
f 55//80 59//84 11//15
f 11//15 59//84 13//19
f 13//19 59//84 65//23
f 59//84 55//80 56//85
f 56//85 55//80 133//83
f 58//14 57//86 132//82
f 57//86 58//14 60//87
f 59//84 67//88 65//23
f 59//84 56//85 67//88
f 56//85 135//89 67//88
f 58//14 61//24 60//87
f 58//14 15//21 61//24
f 15//21 63//22 62//25
f 61//24 15//21 62//25
f 63//22 64//33 62//25
f 65//23 64//33 63//22
f 67//88 66//90 65//23
f 66//90 64//33 65//23
f 135//89 66//90 67//88
f 60//87 68//27 69//91
f 69//91 57//86 60//87
f 68//27 73//92 69//91
f 60//87 61//24 68//27
f 62//25 64//33 16//26
f 64//33 70//37 21//34
f 64//33 66//90 70//37
f 140//93 69//91 73//92
f 70//37 75//94 22//35
f 66//90 71//95 70//37
f 75//94 70//37 76//96
f 70//37 71//95 76//96
f 66//90 138//97 71//95
f 141//98 144//99 71//95
f 71//95 144//99 76//96
f 138//97 141//98 71//95
f 72//100 73//92 77//101
f 17//28 73//92 68//27
f 17//28 77//101 73//92
f 75//94 74//39 22//35
f 80//102 74//39 75//94
f 76//96 145//103 80//102
f 75//94 76//96 80//102
f 145//103 76//96 144//99
f 147//104 72//100 77//101
f 24//30 77//101 17//28
f 82//105 77//101 24//30
f 82//105 147//104 77//101
f 74//39 79//106 78//40
f 79//106 74//39 80//102
f 79//106 85//107 84//47
f 79//106 84//47 78//40
f 148//108 80//102 145//103
f 88//109 86//110 82//105
f 86//110 88//109 91//111
f 86//110 147//104 82//105
f 24//30 81//112 82//105
f 24//30 28//41 81//112
f 92//45 81//112 28//41
f 82//105 81//112 88//109
f 84//47 83//46 27//43
f 83//46 162//113 93//44
f 94//114 83//46 84//47
f 153//115 94//114 84//47
f 85//107 153//115 84//47
f 79//106 80//102 85//107
f 85//107 80//102 148//108
f 85//107 148//108 153//115
f 87//116 86//110 91//111
f 87//116 91//111 96//117
f 87//116 96//117 157//118
f 89//119 81//112 92//45
f 81//112 89//119 88//109
f 90//120 88//109 89//119
f 92//45 97//121 89//119
f 88//109 90//120 91//111
f 95//122 90//120 89//119
f 95//122 91//111 90//120
f 91//111 95//122 96//117
f 93//44 161//123 97//121
f 92//45 93//44 97//121
f 162//113 161//123 93//44
f 83//46 94//114 162//113
f 89//119 97//121 95//122
f 164//124 95//122 97//121
f 160//125 95//122 164//124
f 160//125 96//117 95//122
f 97//121 161//123 164//124
f 111//126 181//127 103//128
f 98//129 104//130 31//48
f 106//131 104//130 98//129
f 113//132 98//129 112//50
f 99//133 106//131 98//129
f 113//132 99//133 98//129
f 99//133 100//134 106//131
f 102//135 101//136 113//132
f 113//132 101//136 99//133
f 99//133 101//136 100//134
f 102//135 103//128 101//136
f 101//136 103//128 100//134
f 103//128 102//135 111//126
f 169//137 106//131 100//134
f 168//138 169//137 100//134
f 168//138 100//134 103//128
f 104//130 114//56 31//48
f 104//130 105//139 114//56
f 105//139 104//130 106//131
f 105//139 107//140 116//58
f 108//141 106//131 169//137
f 108//141 105//139 106//131
f 108//141 107//140 105//139
f 118//142 116//58 107//140
f 108//141 175//143 107//140
f 118//142 107//140 175//143
f 120//144 109//145 113//132
f 113//132 109//145 102//135
f 120//144 110//146 109//145
f 111//126 102//135 109//145
f 111//126 109//145 110//146
f 31//48 112//50 98//129
f 34//54 113//132 112//50
f 116//58 115//147 32//57
f 32//57 115//147 122//59
f 105//139 116//58 114//56
f 115//147 116//58 117//148
f 115//147 117//148 122//59
f 116//58 118//142 117//148
f 189//149 110//146 123//150
f 193//151 189//149 123//150
f 119//60 120//144 34//54
f 113//132 34//54 120//144
f 121//152 120//144 119//60
f 123//150 110//146 121//152
f 121//152 124//66 123//150
f 119//60 124//66 121//152
f 120//144 121//152 110//146
f 117//148 192//153 122//59
f 192//153 125//64 122//59
f 124//66 194//154 123//150
f 37//63 125//64 41//68
f 124//66 46//71 194//154
f 125//64 192//153 196//155
f 46//71 124//66 39//61
f 194//154 46//71 198//156
f 46//71 127//157 198//156
f 128//77 50//73 125//64
f 125//64 50//73 41//68
f 128//77 125//64 196//155
f 126//72 127//157 46//71
f 200//158 127//157 126//72
f 200//158 198//156 127//157
f 199//159 200//158 126//72
f 126//72 48//1 129//78
f 199//159 126//72 129//78
f 202//160 129//78 130//74
f 128//77 203//161 131//81
f 134//162 133//83 131//81
f 205//163 131//81 203//161
f 134//162 131//81 205//163
f 257//164 57//86 137//165
f 135//89 56//85 133//83
f 134//162 135//89 133//83
f 205//163 139//166 134//162
f 137//165 57//86 69//91
f 138//97 66//90 135//89
f 135//89 139//166 138//97
f 139//166 135//89 134//162
f 137//165 136//167 140//93
f 136//167 69//91 140//93
f 69//91 136//167 137//165
f 72//100 140//93 73//92
f 140//93 209//168 137//165
f 138//97 143//169 141//98
f 142//170 144//99 141//98
f 142//170 141//98 143//169
f 146//171 145//103 144//99
f 146//171 144//99 142//170
f 72//100 147//104 211//172
f 147//104 213//173 211//172
f 149//174 145//103 146//171
f 148//108 145//103 149//174
f 217//175 149//174 146//171
f 217//175 146//171 216//176
f 151//177 150//178 147//104
f 147//104 150//178 214//179
f 150//178 264//180 214//179
f 147//104 86//110 151//177
f 154//181 149//174 217//175
f 148//108 149//174 154//181
f 150//178 151//177 152//182
f 150//178 152//182 156//183
f 152//182 158//184 156//183
f 151//177 87//116 152//182
f 86//110 87//116 151//177
f 87//116 157//118 152//182
f 152//182 157//118 158//184
f 155//185 163//186 153//115
f 153//115 148//108 155//185
f 148//108 154//181 155//185
f 156//183 158//184 221//187
f 160//125 157//118 96//117
f 158//184 157//118 160//125
f 159//188 158//184 160//125
f 221//187 158//184 159//188
f 159//188 222//189 221//187
f 160//125 164//124 225//190
f 225//190 159//188 160//125
f 166//191 162//113 94//114
f 94//114 153//115 166//191
f 153//115 163//186 166//191
f 163//186 227//192 226//193
f 155//185 227//192 163//186
f 222//189 159//188 225//190
f 229//194 225//190 164//124
f 164//124 161//123 165//195
f 229//194 164//124 165//195
f 162//113 165//195 161//123
f 165//195 162//113 167//196
f 162//113 166//191 167//196
f 165//195 167//196 232//197
f 229//194 165//195 232//197
f 181//127 183//198 170//199
f 103//128 181//127 170//199
f 173//200 170//199 183//198
f 173//200 183//198 185//201
f 168//138 170//199 171//202
f 171//202 169//137 168//138
f 103//128 170//199 168//138
f 170//199 173//200 171//202
f 169//137 171//202 172//203
f 173//200 172//203 171//202
f 172//203 177//204 169//137
f 172//203 179//205 177//204
f 173//200 174//206 172//203
f 179//205 172//203 174//206
f 174//206 235//207 179//205
f 169//137 176//208 108//141
f 175//143 108//141 176//208
f 178//209 187//210 175//143
f 175//143 187//210 118//142
f 177//204 176//208 169//137
f 175//143 176//208 178//209
f 176//208 177//204 178//209
f 180//211 178//209 177//204
f 177//204 179//205 180//211
f 235//207 236//212 179//205
f 180//211 179//205 236//212
f 236//212 239//213 180//211
f 241//214 239//213 236//212
f 111//126 182//215 181//127
f 111//126 110//146 182//215
f 182//215 110//146 189//149
f 181//127 182//215 184//216
f 183//198 181//127 184//216
f 185//201 183//198 184//216
f 173//200 185//201 237//217
f 117//148 118//142 187//210
f 180//211 186//218 178//209
f 178//209 186//218 188//219
f 186//218 180//211 239//213
f 239//213 240//220 186//218
f 186//218 240//220 191//221
f 187//210 192//153 117//148
f 191//221 192//153 187//210
f 178//209 188//219 187//210
f 188//219 191//221 187//210
f 186//218 191//221 188//219
f 189//149 190//222 182//215
f 190//222 189//149 193//151
f 242//223 184//216 190//222
f 190//222 184//216 182//215
f 184//216 242//223 185//201
f 292//224 192//153 191//221
f 193//151 123//150 194//154
f 190//222 193//151 246//225
f 246//225 193//151 195//226
f 292//224 196//155 192//153
f 195//226 194//154 197//227
f 195//226 193//151 194//154
f 248//228 195//226 197//227
f 246//225 195//226 247//229
f 247//229 195//226 248//228
f 197//227 194//154 198//156
f 249//230 248//228 197//227
f 249//230 197//227 250//231
f 197//227 198//156 250//231
f 196//155 201//232 128//77
f 250//231 198//156 200//158
f 203//161 128//77 201//232
f 202//160 199//159 129//78
f 200//158 199//159 202//160
f 252//233 200//158 202//160
f 252//233 250//231 200//158
f 130//74 252//233 202//160
f 130//74 254//234 252//233
f 201//232 206//235 203//161
f 251//236 206//235 201//232
f 130//74 132//82 204//237
f 132//82 57//86 204//237
f 204//237 254//234 130//74
f 207//238 254//234 204//237
f 57//86 207//238 204//237
f 206//235 205//163 203//161
f 206//235 208//239 205//163
f 257//164 207//238 57//86
f 208//239 139//166 205//163
f 257//164 137//165 256//240
f 210//241 139//166 208//239
f 210//241 208//239 258//242
f 256//240 137//165 209//168
f 139//166 143//169 138//97
f 139//166 212//243 143//169
f 210//241 212//243 139//166
f 258//242 212//243 210//241
f 211//172 140//93 72//100
f 211//172 256//240 209//168
f 260//244 256//240 211//172
f 260//244 211//172 259//245
f 209//168 140//93 211//172
f 143//169 212//243 142//170
f 259//245 211//172 215//246
f 212//243 261//247 142//170
f 213//173 147//104 214//179
f 215//246 211//172 213//173
f 215//246 213//173 214//179
f 216//176 146//171 142//170
f 142//170 261//247 216//176
f 271//248 216//176 261//247
f 262//249 214//179 264//180
f 150//178 156//183 264//180
f 273//250 154//181 217//175
f 156//183 218//251 264//180
f 218//251 156//183 219//252
f 267//253 218//251 565//254
f 220//255 267//253 565//254
f 220//255 224//256 270//257
f 273//250 155//185 154//181
f 221//187 219//252 156//183
f 220//255 565//254 566//258
f 223//259 220//255 566//258
f 223//259 566//258 222//189
f 222//189 275//260 223//259
f 224//256 220//255 223//259
f 273//250 227//192 155//185
f 273//250 340//261 227//192
f 228//262 222//189 225//190
f 275//260 222//189 228//262
f 275//260 228//262 344//263
f 167//196 166//191 226//193
f 232//197 167//196 226//193
f 232//197 226//193 233//264
f 166//191 163//186 226//193
f 226//193 227//192 233//264
f 233//264 227//192 280//265
f 227//192 340//261 280//265
f 231//266 225//190 229//194
f 225//190 231//266 228//262
f 230//267 229//194 232//197
f 229//194 230//267 231//266
f 231//266 230//267 234//268
f 234//268 230//267 232//197
f 276//269 231//266 278//270
f 234//268 278//270 231//266
f 234//268 232//197 233//264
f 174//206 173//200 235//207
f 173//200 237//217 235//207
f 235//207 241//214 236//212
f 235//207 237//217 238//271
f 243//272 237//217 185//201
f 244//273 238//271 237//217
f 245//274 238//271 244//273
f 240//220 357//275 191//221
f 240//220 239//213 241//214
f 241//214 235//207 238//271
f 245//274 241//214 238//271
f 241//214 245//274 240//220
f 242//223 243//272 185//201
f 246//225 242//223 190//222
f 242//223 246//225 243//272
f 244//273 243//272 282//276
f 237//217 243//272 244//273
f 357//275 292//224 191//221
f 243//272 281//277 282//276
f 246//225 281//277 243//272
f 247//229 248//228 249//230
f 290//278 247//229 249//230
f 247//229 290//278 291//279
f 293//280 196//155 292//224
f 196//155 293//280 201//232
f 201//232 293//280 296//281
f 249//230 250//231 298//282
f 250//231 301//283 298//282
f 301//283 250//231 252//233
f 300//284 253//285 251//236
f 252//233 254//234 302//286
f 251//236 253//285 206//235
f 206//235 253//285 258//242
f 207//238 255//287 254//234
f 255//287 302//286 254//234
f 305//288 302//286 255//287
f 258//242 208//239 206//235
f 304//289 258//242 253//285
f 304//289 307//290 258//242
f 255//287 207//238 257//164
f 305//288 255//287 257//164
f 257//164 256//240 305//288
f 308//291 305//288 256//240
f 308//291 309//292 310//293
f 308//291 256//240 260//244
f 258//242 307//290 212//243
f 309//292 259//245 215//246
f 309//292 260//244 259//245
f 260//244 309//292 308//291
f 307//290 261//247 212//243
f 215//246 214//179 262//249
f 262//249 263//294 215//246
f 263//294 309//292 215//246
f 265//295 263//294 262//249
f 309//292 263//294 312//296
f 313//297 312//296 263//294
f 313//297 263//294 265//295
f 218//251 266//298 264//180
f 264//180 265//295 262//249
f 264//180 266//298 265//295
f 315//299 265//295 266//298
f 266//298 269//300 315//299
f 268//301 266//298 218//251
f 268//301 218//251 267//253
f 269//300 266//298 268//301
f 267//253 220//255 270//257
f 267//253 316//302 268//301
f 316//302 269//300 268//301
f 270//257 316//302 267//253
f 318//303 269//300 316//302
f 224//256 319//304 270//257
f 224//256 223//259 320//305
f 224//256 320//305 319//304
f 272//306 325//307 320//305
f 271//248 217//175 216//176
f 223//259 275//260 272//306
f 320//305 223//259 272//306
f 275//260 325//307 272//306
f 341//308 273//250 274//309
f 341//308 340//261 273//250
f 327//310 341//308 274//309
f 274//309 273//250 217//175
f 274//309 217//175 271//248
f 280//265 340//261 331//311
f 228//262 343//312 344//263
f 228//262 231//266 276//269
f 343//312 228//262 276//269
f 276//269 278//270 279//313
f 279//313 347//314 276//269
f 347//314 279//313 350//315
f 343//312 276//269 347//314
f 280//265 277//316 233//264
f 234//268 233//264 277//316
f 278//270 234//268 277//316
f 277//316 331//311 350//315
f 280//265 331//311 277//316
f 279//313 278//270 277//316
f 279//313 277//316 350//315
f 244//273 284//317 245//274
f 284//317 283//318 245//274
f 283//318 285//319 245//274
f 240//220 245//274 285//319
f 240//220 285//319 357//275
f 244//273 282//276 284//317
f 288//320 283//318 284//317
f 282//276 289//321 284//317
f 288//320 285//319 283//318
f 357//275 285//319 288//320
f 286//322 246//225 247//229
f 246//225 286//322 281//277
f 282//276 281//277 286//322
f 286//322 354//323 287//324
f 282//276 286//322 287//324
f 289//321 282//276 287//324
f 284//317 289//321 288//320
f 291//279 286//322 247//229
f 291//279 355//325 286//322
f 355//325 291//279 358//326
f 357//275 365//327 294//328
f 294//328 292//224 357//275
f 290//278 295//329 291//279
f 292//224 294//328 293//280
f 290//278 249//230 295//329
f 295//329 249//230 298//282
f 293//280 294//328 296//281
f 297//330 296//281 294//328
f 295//329 366//331 291//279
f 296//281 299//332 201//232
f 296//281 297//330 299//332
f 365//327 297//330 294//328
f 297//330 365//327 367//333
f 366//331 295//329 298//282
f 367//333 299//332 297//330
f 299//332 300//284 201//232
f 201//232 300//284 251//236
f 300//284 304//289 253//285
f 301//283 252//233 302//286
f 303//334 301//283 302//286
f 302//286 305//288 371//335
f 302//286 371//335 303//334
f 370//336 307//290 304//289
f 306//337 305//288 308//291
f 305//288 306//337 371//335
f 306//337 308//291 310//293
f 311//338 309//292 312//296
f 309//292 311//338 310//293
f 378//339 310//293 311//338
f 376//340 311//338 312//296
f 314//341 313//297 265//295
f 381//342 313//297 314//341
f 307//290 393//343 261//247
f 394//344 261//247 393//343
f 466//345 393//343 307//290
f 315//299 314//341 265//295
f 384//346 315//299 269//300
f 381//342 314//341 315//299
f 381//342 315//299 384//346
f 384//346 269//300 318//303
f 316//302 270//257 317//347
f 386//348 316//302 317//347
f 384//346 318//303 386//348
f 318//303 316//302 386//348
f 319//304 320//305 322//349
f 270//257 319//304 321//350
f 322//349 321//350 319//304
f 389//351 270//257 321//350
f 321//350 322//349 391//352
f 389//351 321//350 391//352
f 320//305 323//353 322//349
f 323//353 320//305 325//307
f 322//349 392//354 391//352
f 392//354 322//349 323//353
f 327//310 274//309 271//248
f 261//247 324//355 271//248
f 324//355 327//310 271//248
f 261//247 394//344 324//355
f 323//353 325//307 395//356
f 326//357 341//308 327//310
f 328//358 412//359 326//357
f 328//358 326//357 327//310
f 324//355 328//358 327//310
f 329//360 325//307 275//260
f 330//361 344//263 346//362
f 275//260 344//263 329//360
f 344//263 330//361 329//360
f 329//360 330//361 406//363
f 405//364 330//361 346//362
f 407//365 349//366 335//367
f 349//366 407//365 405//364
f 351//368 335//367 349//366
f 335//367 351//368 353//369
f 353//369 352//370 333//371
f 333//371 352//370 334//372
f 332//373 334//372 352//370
f 332//373 331//311 338//374
f 338//374 331//311 336//375
f 335//367 353//369 333//371
f 335//367 333//371 337//376
f 333//371 334//372 337//376
f 337//376 334//372 338//374
f 334//372 332//373 338//374
f 409//377 335//367 337//376
f 336//375 410//378 339//379
f 338//374 409//377 337//376
f 339//379 409//377 338//374
f 339//379 338//374 336//375
f 331//311 340//261 342//380
f 342//380 340//261 341//308
f 326//357 342//380 341//308
f 336//375 331//311 342//380
f 326//357 412//359 342//380
f 410//378 336//375 413//381
f 342//380 413//381 336//375
f 345//382 344//263 343//312
f 343//312 348//383 345//382
f 346//362 344//263 345//382
f 348//383 343//312 347//314
f 347//314 350//315 348//383
f 348//383 346//362 345//382
f 349//366 346//362 348//383
f 349//366 405//364 346//362
f 348//383 350//315 351//368
f 351//368 349//366 348//383
f 351//368 350//315 352//370
f 350//315 331//311 352//370
f 351//368 352//370 353//369
f 332//373 352//370 331//311
f 287//324 356//384 289//321
f 356//384 287//324 354//323
f 356//384 288//320 289//321
f 288//320 356//384 357//275
f 286//322 355//325 354//323
f 356//384 361//385 357//275
f 354//323 358//326 359//386
f 354//323 355//325 358//326
f 354//323 359//386 356//384
f 361//385 356//384 360//387
f 356//384 359//386 360//387
f 358//326 362//388 359//386
f 362//388 360//387 359//386
f 361//385 365//327 357//275
f 362//388 358//326 291//279
f 366//331 362//388 291//279
f 361//385 363//389 365//327
f 361//385 417//390 363//389
f 363//389 417//390 364//391
f 365//327 363//389 364//391
f 298//282 301//283 366//331
f 299//332 367//333 300//284
f 367//333 304//289 300//284
f 424//392 367//333 365//327
f 301//283 368//393 366//331
f 301//283 369//394 368//393
f 370//336 304//289 367//333
f 367//333 424//392 370//336
f 301//283 303//334 369//394
f 369//394 427//395 368//393
f 371//335 369//394 303//334
f 433//396 307//290 370//336
f 434//397 433//396 370//336
f 373//398 369//394 371//335
f 307//290 433//396 435//399
f 372//400 371//335 306//337
f 306//337 310//293 372//400
f 373//398 371//335 372//400
f 374//401 373//398 372//400
f 375//402 307//290 435//399
f 439//403 375//402 435//399
f 376//340 378//339 311//338
f 378//339 376//340 379//404
f 377//405 376//340 380//406
f 377//405 379//404 376//340
f 372//400 310//293 378//339
f 374//401 372//400 378//339
f 379//404 374//401 378//339
f 436//407 374//401 379//404
f 377//405 436//407 379//404
f 466//345 307//290 442//408
f 442//408 307//290 375//402
f 442//408 375//402 439//403
f 380//406 376//340 312//296
f 380//406 312//296 313//297
f 377//405 380//406 443//409
f 382//410 380//406 313//297
f 381//342 382//410 313//297
f 383//411 382//410 381//342
f 383//411 446//412 445//413
f 383//411 445//413 382//410
f 446//412 383//411 385//414
f 385//414 381//342 384//346
f 383//411 381//342 385//414
f 388//415 386//348 317//347
f 387//416 384//346 386//348
f 387//416 386//348 388//415
f 449//417 384//346 387//416
f 317//347 270//257 389//351
f 388//415 317//347 389//351
f 388//415 389//351 390//418
f 389//351 391//352 390//418
f 390//418 391//352 454//419
f 392//354 323//353 395//356
f 392//354 396//420 391//352
f 396//420 392//354 395//356
f 467//421 391//352 396//420
f 465//422 394//344 393//343
f 394//344 404//423 324//355
f 325//307 329//360 395//356
f 396//420 395//356 397//424
f 397//424 395//356 329//360
f 397//424 399//425 396//420
f 399//425 467//421 396//420
f 468//426 467//421 399//425
f 471//427 468//426 399//425
f 397//424 329//360 406//363
f 397//424 406//363 400//428
f 406//363 398//429 400//428
f 406//363 405//364 398//429
f 399//425 397//424 400//428
f 471//427 399//425 400//428
f 398//429 470//430 400//428
f 400//428 457//431 471//427
f 408//432 398//429 407//365
f 408//432 401//433 398//429
f 470//430 398//429 401//433
f 401//433 408//432 460//434
f 408//432 402//435 460//434
f 460//434 402//435 411//436
f 462//437 460//434 411//436
f 404//423 412//359 328//358
f 412//359 404//423 414//438
f 403//439 414//438 404//423
f 403//439 404//423 394//344
f 394//344 465//422 403//439
f 403//439 415//440 414//438
f 404//423 328//358 324//355
f 330//361 405//364 406//363
f 407//365 398//429 405//364
f 335//367 409//377 402//435
f 408//432 407//365 335//367
f 408//432 335//367 402//435
f 409//377 411//436 402//435
f 339//379 410//378 409//377
f 410//378 416//441 409//377
f 411//436 409//377 416//441
f 416//441 475//442 411//436
f 412//359 413//381 342//380
f 414//438 413//381 412//359
f 415//440 413//381 414//438
f 415//440 410//378 413//381
f 410//378 415//440 416//441
f 416//441 415//440 478//443
f 360//387 362//388 422//444
f 362//388 419//445 422//444
f 361//385 360//387 417//390
f 418//446 422//444 420//447
f 417//390 360//387 418//446
f 360//387 422//444 418//446
f 421//448 364//391 418//446
f 364//391 417//390 418//446
f 419//445 362//388 366//331
f 419//445 366//331 422//444
f 420//447 423//449 418//446
f 418//446 423//449 421//448
f 365//327 364//391 421//448
f 365//327 421//448 424//392
f 421//448 423//449 482//450
f 424//392 421//448 426//451
f 368//393 425//452 366//331
f 425//452 422//444 366//331
f 368//393 427//395 425//452
f 422//444 425//452 427//395
f 428//453 424//392 426//451
f 421//448 482//450 426//451
f 428//453 370//336 424//392
f 429//454 428//453 482//450
f 426//451 482//450 428//453
f 429//454 482//450 483//455
f 434//397 370//336 428//453
f 369//394 430//456 427//395
f 430//456 431//457 427//395
f 369//394 485//458 430//456
f 427//395 431//457 479//459
f 428//453 429//454 432//460
f 483//455 432//460 429//454
f 434//397 432//460 433//396
f 428//453 432//460 434//397
f 373//398 437//461 369//394
f 373//398 374//401 437//461
f 437//461 484//462 369//394
f 369//394 484//462 485//458
f 437//461 438//463 484//462
f 491//464 432//460 483//455
f 490//465 491//464 483//455
f 432//460 435//399 433//396
f 374//401 436//407 437//461
f 436//407 438//463 437//461
f 492//466 438//463 436//407
f 432//460 440//467 435//399
f 432//460 491//464 440//467
f 439//403 435//399 440//467
f 439//403 440//467 491//464
f 436//407 443//409 492//466
f 443//409 436//407 377//405
f 493//468 438//463 492//466
f 441//469 442//408 439//403
f 439//403 494//470 441//469
f 382//410 445//413 380//406
f 443//409 380//406 444//471
f 444//471 380//406 445//413
f 492//466 443//409 444//471
f 495//472 492//466 444//471
f 442//408 441//469 448//473
f 446//412 447//474 445//413
f 447//474 446//412 501//475
f 445//413 447//474 444//471
f 444//471 447//474 496//476
f 442//408 448//473 466//345
f 446//412 385//414 501//475
f 385//414 451//477 501//475
f 521//478 466//345 500//479
f 500//479 466//345 448//473
f 449//417 387//416 450//480
f 385//414 384//346 451//477
f 451//477 384//346 449//417
f 387//416 453//481 450//480
f 452//482 449//417 450//480
f 452//482 450//480 455//483
f 451//477 449//417 502//484
f 502//484 449//417 452//482
f 504//485 502//484 452//482
f 501//475 451//477 502//484
f 387//416 388//415 453//481
f 388//415 390//418 453//481
f 453//481 390//418 454//419
f 455//483 450//480 453//481
f 454//419 455//483 453//481
f 503//486 455//483 454//419
f 503//486 505//487 455//483
f 522//488 503//486 454//419
f 452//482 505//487 504//485
f 505//487 452//482 455//483
f 454//419 391//352 456//489
f 467//421 456//489 391//352
f 456//489 467//421 469//490
f 454//419 456//489 522//488
f 456//489 469//490 522//488
f 470//430 459//491 457//431
f 457//431 458//492 473//493
f 511//494 458//492 464//495
f 470//430 401//433 459//491
f 460//434 459//491 401//433
f 459//491 461//496 457//431
f 461//496 459//491 460//434
f 458//492 457//431 461//496
f 461//496 460//434 463//497
f 460//434 462//437 463//497
f 461//496 464//495 458//492
f 464//495 461//496 463//497
f 463//497 462//437 474//498
f 466//345 465//422 393//343
f 521//478 465//422 466//345
f 469//490 467//421 468//426
f 469//490 468//426 472//499
f 468//426 471//427 472//499
f 522//488 469//490 523//500
f 523//500 469//490 473//493
f 400//428 470//430 457//431
f 457//431 472//499 471//427
f 457//431 473//493 472//499
f 469//490 472//499 473//493
f 475//442 462//437 411//436
f 474//498 462//437 475//442
f 476//501 474//498 475//442
f 477//502 415//440 403//439
f 477//502 478//443 415//440
f 465//422 477//502 403//439
f 416//441 476//501 475//442
f 478//443 476//501 416//441
f 420//447 422//444 480//503
f 420//447 480//503 481//504
f 420//447 481//504 423//449
f 481//504 483//455 482//450
f 423//449 481//504 482//450
f 422//444 427//395 479//459
f 422//444 479//459 480//503
f 430//456 485//458 431//457
f 479//459 431//457 487//505
f 480//503 479//459 487//505
f 481//504 490//465 483//455
f 484//462 488//506 485//458
f 486//507 431//457 485//458
f 487//505 431//457 486//507
f 486//507 485//458 488//506
f 530//508 487//505 486//507
f 487//505 489//509 480//503
f 480//503 489//509 481//504
f 490//465 481//504 489//509
f 438//463 493//468 488//506
f 484//462 438//463 488//506
f 532//510 486//507 488//506
f 495//472 493//468 492//466
f 493//468 531//511 488//506
f 493//468 535//512 531//511
f 493//468 495//472 535//512
f 488//506 531//511 532//510
f 439//403 491//464 494//470
f 491//464 490//465 494//470
f 495//472 444//471 496//476
f 495//472 496//476 545//513
f 495//472 545//513 535//512
f 447//474 498//514 496//476
f 545//513 496//476 498//514
f 441//469 494//470 497//515
f 441//469 497//515 448//473
f 549//516 554//517 497//515
f 549//516 497//515 494//470
f 447//474 501//475 507//518
f 447//474 507//518 498//514
f 448//473 497//515 500//479
f 499//519 500//479 497//515
f 499//519 518//520 500//479
f 500//479 518//520 521//478
f 554//517 499//519 497//515
f 518//520 499//519 554//517
f 507//518 501//475 502//484
f 507//518 502//484 504//485
f 508//521 507//518 504//485
f 506//522 508//521 504//485
f 506//522 504//485 505//487
f 509//523 508//521 506//522
f 506//522 505//487 509//523
f 507//518 508//521 510//524
f 510//524 508//521 509//523
f 524//525 526//526 509//523
f 526//526 510//524 509//523
f 557//527 510//524 526//526
f 522//488 505//487 503//486
f 458//492 511//494 473//493
f 464//495 514//528 511//494
f 512//529 511//494 514//528
f 558//530 529//531 512//529
f 513//532 463//497 474//498
f 464//495 463//497 513//532
f 464//495 513//532 514//528
f 515//533 514//528 516//534
f 514//528 513//532 516//534
f 514//528 515//533 512//529
f 516//534 513//532 517//535
f 517//535 520//536 563//537
f 562//538 516//534 517//535
f 563//537 562//538 517//535
f 519//539 477//502 521//478
f 518//520 519//539 521//478
f 477//502 519//539 520//536
f 554//517 519//539 518//520
f 478//443 477//502 520//536
f 478//443 520//536 517//535
f 521//478 477//502 465//422
f 509//523 505//487 524//525
f 523//500 473//493 567//540
f 524//525 505//487 522//488
f 524//525 522//488 523//500
f 524//525 523//500 525//541
f 523//500 567//540 525//541
f 528//542 525//541 529//531
f 526//526 524//525 527//543
f 527//543 524//525 525//541
f 527//543 557//527 526//526
f 558//530 528//542 529//531
f 525//541 528//542 527//543
f 567//540 473//493 511//494
f 512//529 567//540 511//494
f 513//532 474//498 476//501
f 478//443 517//535 476//501
f 513//532 476//501 517//535
f 530//508 540//544 487//505
f 534//545 532//510 531//511
f 531//511 535//512 534//545
f 535//512 537//546 534//545
f 534//545 533//547 532//510
f 486//507 532//510 530//508
f 532//510 533//547 530//508
f 530//508 533//547 539//548
f 533//547 534//545 536//549
f 536//549 534//545 537//546
f 530//508 539//548 540//544
f 536//549 539//548 533//547
f 489//509 487//505 540//544
f 489//509 540//544 543//550
f 490//465 489//509 542//551
f 542//551 489//509 543//550
f 535//512 545//513 537//546
f 537//546 545//513 538//552
f 539//548 536//549 538//552
f 536//549 537//546 538//552
f 539//548 541//553 540//544
f 539//548 538//552 541//553
f 540//544 541//553 543//550
f 543//550 541//553 544//554
f 542//551 547//555 549//516
f 543//550 544//554 547//555
f 542//551 543//550 547//555
f 548//556 544//554 541//553
f 547//555 544//554 548//556
f 542//551 549//516 490//465
f 494//470 490//465 549//516
f 538//552 545//513 546//557
f 545//513 551//558 546//557
f 546//557 541//553 538//552
f 541//553 546//557 548//556
f 546//557 552//559 548//556
f 560//560 553//561 548//556
f 548//556 553//561 547//555
f 547//555 553//561 555//562
f 549//516 547//555 554//517
f 547//555 555//562 554//517
f 545//513 498//514 550//563
f 545//513 550//563 551//558
f 551//558 552//559 546//557
f 552//559 557//527 548//556
f 561//564 555//562 553//561
f 553//561 560//560 561//564
f 550//563 498//514 507//518
f 507//518 556//565 550//563
f 556//565 507//518 510//524
f 510//524 557//527 556//565
f 556//565 551//558 550//563
f 551//558 557//527 552//559
f 557//527 551//558 556//565
f 528//542 558//530 557//527
f 548//556 557//527 560//560
f 512//529 515//533 559//566
f 560//560 558//530 559//566
f 559//566 562//538 560//560
f 558//530 560//560 557//527
f 512//529 559//566 558//530
f 516//534 559//566 515//533
f 562//538 559//566 516//534
f 561//564 564//567 555//562
f 562//538 563//537 561//564
f 561//564 563//537 564//567
f 561//564 560//560 562//538
f 563//537 520//536 564//567
f 520//536 519//539 564//567
f 564//567 519//539 554//517
f 564//567 554//517 555//562
f 528//542 557//527 527//543
