# Blender 4.0.2
# www.blender.org
mtllib jaw_left_lower_lateral_incisor_tooth.mtl
o jaw_left_lower_lateral_incisor_tooth
v 0.084568 -0.050348 -0.003556
v 0.084749 -0.050448 -0.003578
v 0.084736 -0.050018 -0.003546
v 0.085010 -0.050028 -0.003528
v 0.084258 -0.050688 -0.003693
v 0.084376 -0.050728 -0.003707
v 0.084217 -0.050538 -0.003675
v 0.084330 -0.050578 -0.003631
v 0.084350 -0.050308 -0.003639
v 0.084935 -0.050548 -0.003690
v 0.084307 -0.050178 -0.003735
v 0.085229 -0.050218 -0.003580
v 0.085748 -0.049778 -0.003621
v 0.085443 -0.050298 -0.003733
v 0.085945 -0.048158 -0.003603
v 0.085419 -0.048208 -0.003740
v 0.085616 -0.048068 -0.003677
v 0.086659 -0.046368 -0.003649
v 0.086176 -0.046738 -0.003741
v 0.086344 -0.046658 -0.003677
v 0.086457 -0.046228 -0.003706
v 0.087481 -0.046898 -0.003679
v 0.084202 -0.050808 -0.003836
v 0.084121 -0.050728 -0.003843
v 0.084467 -0.050818 -0.003835
v 0.084281 -0.050888 -0.003945
v 0.084042 -0.050688 -0.004038
v 0.084523 -0.050908 -0.004125
v 0.084055 -0.050838 -0.004151
v 0.084132 -0.050928 -0.004136
v 0.084240 -0.050968 -0.004168
v 0.084040 -0.050669 -0.004158
v 0.084126 -0.050948 -0.004273
v 0.084049 -0.050808 -0.004274
v 0.084053 -0.050688 -0.004265
v 0.084237 -0.050978 -0.004374
v 0.084166 -0.050858 -0.004459
v 0.084385 -0.050968 -0.004368
v 0.084092 -0.050688 -0.004371
v 0.084256 -0.050928 -0.004492
v 0.084391 -0.050948 -0.004496
v 0.084159 -0.050728 -0.004487
v 0.084169 -0.050328 -0.003941
v 0.084057 -0.050568 -0.004041
v 0.084232 -0.050188 -0.004174
v 0.084159 -0.050388 -0.004284
v 0.084103 -0.050588 -0.003835
v 0.084268 -0.050358 -0.004509
v 0.084827 -0.050848 -0.004470
v 0.085040 -0.050608 -0.003848
v 0.085390 -0.050518 -0.004060
v 0.085073 -0.050728 -0.004252
v 0.085327 -0.050598 -0.004487
v 0.086171 -0.049708 -0.003950
v 0.085779 -0.050218 -0.004056
v 0.085718 -0.050318 -0.004454
v 0.086238 -0.049768 -0.004472
v 0.085566 -0.047668 -0.003884
v 0.087558 -0.048048 -0.004529
v 0.086079 -0.046628 -0.003883
v 0.086256 -0.046258 -0.003880
v 0.085968 -0.046658 -0.004097
v 0.085960 -0.046578 -0.004525
v 0.087997 -0.046878 -0.003924
v 0.088079 -0.047038 -0.004153
v 0.086735 -0.045138 -0.004117
v 0.086799 -0.045338 -0.003889
v 0.087409 -0.044838 -0.003749
v 0.087504 -0.043688 -0.004051
v 0.087149 -0.043898 -0.004386
v 0.087804 -0.042548 -0.004154
v 0.087457 -0.042818 -0.004465
v 0.088567 -0.043528 -0.003764
v 0.088289 -0.042998 -0.003836
v 0.088898 -0.040168 -0.003918
v 0.089520 -0.040548 -0.003830
v 0.090928 -0.041608 -0.004165
v 0.091007 -0.041878 -0.004457
v 0.088584 -0.040268 -0.004031
v 0.090723 -0.041208 -0.003972
v 0.091754 -0.039748 -0.004113
v 0.091628 -0.040738 -0.004348
v 0.089860 -0.037898 -0.004059
v 0.091865 -0.040008 -0.004176
v 0.092633 -0.039398 -0.004416
v 0.088823 -0.037578 -0.004415
v 0.089262 -0.035788 -0.004495
v 0.093285 -0.038268 -0.004443
v 0.089598 -0.035778 -0.004334
v 0.090055 -0.034528 -0.004480
v 0.090429 -0.035058 -0.004352
v 0.084366 -0.050708 -0.004696
v 0.084431 -0.050378 -0.004733
v 0.084601 -0.050728 -0.004796
v 0.085003 -0.050448 -0.004977
v 0.084830 -0.050278 -0.005010
v 0.084950 -0.050738 -0.004700
v 0.085413 -0.050348 -0.004910
v 0.085788 -0.050188 -0.004700
v 0.085307 -0.048538 -0.005091
v 0.085555 -0.048848 -0.005381
v 0.086396 -0.049428 -0.004898
v 0.086201 -0.049428 -0.005135
v 0.085959 -0.049298 -0.005345
v 0.085806 -0.049078 -0.005438
v 0.085736 -0.047278 -0.004865
v 0.087526 -0.048098 -0.004786
v 0.087515 -0.047868 -0.005287
v 0.088329 -0.046888 -0.004767
v 0.088163 -0.047098 -0.005103
v 0.088125 -0.046938 -0.005435
v 0.086614 -0.045088 -0.004830
v 0.087185 -0.043208 -0.004885
v 0.087000 -0.043898 -0.005276
v 0.089950 -0.044048 -0.004747
v 0.087524 -0.041548 -0.005257
v 0.091038 -0.041968 -0.004708
v 0.091031 -0.042068 -0.005313
v 0.091513 -0.041178 -0.004717
v 0.088358 -0.038289 -0.004879
v 0.088660 -0.036638 -0.004945
v 0.088934 -0.036338 -0.004633
v 0.088883 -0.035618 -0.005036
v 0.089148 -0.034888 -0.005029
v 0.089078 -0.035458 -0.004803
v 0.089344 -0.034848 -0.004807
v 0.094385 -0.037468 -0.004886
v 0.089391 -0.034248 -0.005135
v 0.089782 -0.034538 -0.004588
v 0.089789 -0.034028 -0.004810
v 0.089730 -0.033698 -0.005107
v 0.090079 -0.033248 -0.005131
v 0.090107 -0.033688 -0.004769
v 0.090322 -0.033248 -0.004900
v 0.090550 -0.033318 -0.004742
v 0.090815 -0.032858 -0.004904
v 0.090593 -0.032748 -0.005133
v 0.091133 -0.033218 -0.004669
v 0.094033 -0.035328 -0.004598
v 0.095632 -0.035598 -0.005146
v 0.092273 -0.032568 -0.004766
v 0.092691 -0.032918 -0.004681
v 0.094718 -0.033638 -0.004783
v 0.095387 -0.034528 -0.004882
v 0.092121 -0.032108 -0.004974
v 0.092941 -0.032008 -0.004837
v 0.095446 -0.033128 -0.004950
v 0.093700 -0.031238 -0.004860
v 0.093982 -0.031218 -0.004806
v 0.093871 -0.031598 -0.004708
v 0.094418 -0.031789 -0.004698
v 0.094401 -0.031328 -0.004769
v 0.095059 -0.031998 -0.004789
v 0.093900 -0.030828 -0.005042
v 0.093285 -0.030868 -0.005236
v 0.095074 -0.031108 -0.004868
v 0.094349 -0.030908 -0.004938
v 0.094867 -0.030718 -0.004980
v 0.094634 -0.030398 -0.005180
v 0.096346 -0.029728 -0.005216
v 0.097739 -0.030458 -0.005301
v 0.097614 -0.030039 -0.005243
v 0.086441 -0.047408 -0.005717
v 0.087115 -0.047928 -0.005583
v 0.086731 -0.048008 -0.005680
v 0.086580 -0.047628 -0.005754
v 0.086481 -0.046558 -0.005601
v 0.087716 -0.047248 -0.005637
v 0.087482 -0.047028 -0.005927
v 0.087156 -0.046968 -0.005993
v 0.088193 -0.045898 -0.006098
v 0.087386 -0.045888 -0.006165
v 0.087803 -0.045738 -0.006275
v 0.086984 -0.044868 -0.005716
v 0.088178 -0.045428 -0.006282
v 0.088864 -0.044598 -0.006305
v 0.089602 -0.044548 -0.005580
v 0.089272 -0.044628 -0.006007
v 0.087832 -0.040039 -0.005747
v 0.087767 -0.040688 -0.005955
v 0.091822 -0.040888 -0.005556
v 0.091351 -0.041318 -0.006173
v 0.088364 -0.037448 -0.005488
v 0.088375 -0.037848 -0.006120
v 0.088634 -0.036238 -0.005380
v 0.093211 -0.039308 -0.005524
v 0.093455 -0.039118 -0.006019
v 0.088713 -0.036138 -0.005834
v 0.089123 -0.034638 -0.005452
v 0.089020 -0.035028 -0.005723
v 0.089440 -0.033928 -0.005555
v 0.094945 -0.037478 -0.005520
v 0.089700 -0.033508 -0.005474
v 0.089689 -0.033548 -0.006130
v 0.090502 -0.032358 -0.005915
v 0.096638 -0.035828 -0.006097
v 0.091427 -0.031828 -0.005430
v 0.091340 -0.031418 -0.005872
v 0.092177 -0.030988 -0.005784
v 0.096523 -0.032738 -0.005323
v 0.093433 -0.030178 -0.005863
v 0.093414 -0.030548 -0.005438
v 0.094047 -0.030228 -0.005491
v 0.094694 -0.029438 -0.005823
v 0.095162 -0.029818 -0.005328
v 0.095182 -0.029388 -0.005629
v 0.095246 -0.029068 -0.005942
v 0.096120 -0.029419 -0.005349
v 0.097938 -0.031168 -0.005562
v 0.099004 -0.030968 -0.005944
v 0.096239 -0.028848 -0.005823
v 0.096547 -0.028618 -0.006094
v 0.097291 -0.029258 -0.005380
v 0.098898 -0.029878 -0.005532
v 0.099118 -0.030248 -0.005705
v 0.099541 -0.030188 -0.005960
v 0.097029 -0.028798 -0.005692
v 0.097709 -0.028648 -0.005640
v 0.098761 -0.029328 -0.005424
v 0.098194 -0.028928 -0.005420
v 0.099334 -0.029828 -0.005695
v 0.098284 -0.028268 -0.005674
v 0.098958 -0.028178 -0.005528
v 0.099628 -0.028378 -0.005604
v 0.098702 -0.027338 -0.006056
v 0.099386 -0.028078 -0.005574
v 0.099103 -0.027708 -0.005665
v 0.099990 -0.028408 -0.005810
v 0.100148 -0.027558 -0.005858
v 0.099944 -0.027238 -0.005867
v 0.099967 -0.026748 -0.006041
v 0.100226 -0.026958 -0.006019
v 0.088544 -0.043578 -0.006599
v 0.089141 -0.041748 -0.006893
v 0.090235 -0.042958 -0.006326
v 0.090852 -0.041668 -0.006665
v 0.090616 -0.041698 -0.006870
v 0.088292 -0.039128 -0.006425
v 0.088517 -0.039948 -0.006647
v 0.091440 -0.040659 -0.006947
v 0.092209 -0.039888 -0.006865
v 0.088490 -0.037838 -0.006380
v 0.092453 -0.039998 -0.006260
v 0.088734 -0.036628 -0.006288
v 0.093360 -0.039108 -0.006492
v 0.089514 -0.034578 -0.006704
v 0.095362 -0.037478 -0.006260
v 0.096339 -0.036578 -0.006374
v 0.095889 -0.037078 -0.006849
v 0.096557 -0.036418 -0.007046
v 0.090329 -0.032468 -0.006296
v 0.090366 -0.032448 -0.006624
v 0.096432 -0.036328 -0.006185
v 0.096872 -0.036008 -0.006771
v 0.090924 -0.031628 -0.006855
v 0.091389 -0.031168 -0.006181
v 0.091112 -0.031388 -0.006277
v 0.091107 -0.031338 -0.006618
v 0.092466 -0.030498 -0.006196
v 0.091660 -0.030858 -0.006524
v 0.098151 -0.033508 -0.006764
v 0.099049 -0.032548 -0.006963
v 0.094566 -0.029188 -0.006244
v 0.094505 -0.028908 -0.006794
v 0.099205 -0.031518 -0.006382
v 0.099528 -0.031358 -0.006608
v 0.095168 -0.028738 -0.006546
v 0.095367 -0.028558 -0.006928
v 0.099821 -0.030588 -0.006480
v 0.099901 -0.030768 -0.006824
v 0.097368 -0.028298 -0.006222
v 0.100044 -0.029408 -0.006171
v 0.098021 -0.027618 -0.006555
v 0.100312 -0.029388 -0.006584
v 0.100497 -0.029118 -0.006905
v 0.100655 -0.028198 -0.006574
v 0.100753 -0.028218 -0.006913
v 0.099322 -0.026388 -0.006550
v 0.099589 -0.026548 -0.006188
v 0.100073 -0.026518 -0.006190
v 0.100275 -0.026618 -0.006185
v 0.099667 -0.026378 -0.006344
v 0.099925 -0.026358 -0.006337
v 0.100437 -0.027038 -0.006118
v 0.100572 -0.027578 -0.006224
v 0.100621 -0.026928 -0.006326
v 0.100470 -0.026718 -0.006247
v 0.100784 -0.027478 -0.006554
v 0.100793 -0.026898 -0.006678
v 0.100863 -0.027528 -0.006903
v 0.100249 -0.026438 -0.006333
v 0.099823 -0.026198 -0.006700
v 0.100214 -0.026248 -0.006665
v 0.100435 -0.026548 -0.006334
v 0.100648 -0.026598 -0.006550
v 0.100486 -0.026428 -0.006544
v 0.100536 -0.026338 -0.006905
v 0.090570 -0.040098 -0.007401
v 0.090990 -0.040218 -0.007434
v 0.091539 -0.040128 -0.007300
v 0.091350 -0.039068 -0.007833
v 0.091809 -0.038908 -0.007896
v 0.092002 -0.039608 -0.007385
v 0.091904 -0.039258 -0.007695
v 0.090687 -0.037598 -0.007840
v 0.091194 -0.038268 -0.007957
v 0.093978 -0.038188 -0.007366
v 0.089604 -0.035098 -0.007132
v 0.089906 -0.035098 -0.007460
v 0.090390 -0.034148 -0.007737
v 0.095396 -0.037058 -0.007736
v 0.090358 -0.033268 -0.007438
v 0.095823 -0.037028 -0.007311
v 0.096299 -0.036468 -0.007658
v 0.090416 -0.032698 -0.007136
v 0.096894 -0.035798 -0.007774
v 0.097993 -0.034338 -0.007612
v 0.091685 -0.030818 -0.007264
v 0.091682 -0.031028 -0.007671
v 0.092808 -0.029888 -0.007329
v 0.092904 -0.029848 -0.007785
v 0.098824 -0.033218 -0.007506
v 0.093466 -0.029358 -0.007212
v 0.093505 -0.029248 -0.007569
v 0.099210 -0.032628 -0.007487
v 0.099150 -0.032738 -0.007824
v 0.094009 -0.028898 -0.007533
v 0.094386 -0.028708 -0.007542
v 0.094772 -0.028648 -0.007113
v 0.099574 -0.031758 -0.007156
v 0.099607 -0.031738 -0.007611
v 0.095000 -0.028518 -0.007577
v 0.099911 -0.030948 -0.007242
v 0.100587 -0.028828 -0.007277
v 0.100823 -0.027868 -0.007336
v 0.098779 -0.026498 -0.007050
v 0.099030 -0.026198 -0.007251
v 0.100861 -0.026908 -0.007287
v 0.100867 -0.027148 -0.007551
v 0.100821 -0.027498 -0.007677
v 0.099873 -0.026118 -0.007117
v 0.100246 -0.026158 -0.007351
v 0.100457 -0.026228 -0.007535
v 0.100762 -0.026598 -0.007015
v 0.100758 -0.026638 -0.007712
v 0.091821 -0.038198 -0.008107
v 0.091832 -0.037388 -0.008245
v 0.093035 -0.037608 -0.008266
v 0.093540 -0.037658 -0.008109
v 0.091084 -0.034698 -0.008208
v 0.093376 -0.036318 -0.008708
v 0.096242 -0.036068 -0.008213
v 0.096134 -0.035468 -0.008719
v 0.091740 -0.032458 -0.008436
v 0.092451 -0.030408 -0.008099
v 0.092404 -0.030828 -0.008439
v 0.092918 -0.030618 -0.008770
v 0.098252 -0.033778 -0.008479
v 0.093069 -0.029858 -0.008144
v 0.092747 -0.030398 -0.008452
v 0.093347 -0.030088 -0.008697
v 0.098818 -0.033198 -0.008157
v 0.098632 -0.033208 -0.008602
v 0.093428 -0.029338 -0.007886
v 0.093861 -0.029188 -0.008343
v 0.099271 -0.032348 -0.008151
v 0.098990 -0.032558 -0.008601
v 0.094012 -0.028898 -0.007883
v 0.094417 -0.028698 -0.007902
v 0.094187 -0.028908 -0.008241
v 0.099403 -0.031548 -0.008490
v 0.095273 -0.028538 -0.008605
v 0.096109 -0.028268 -0.007892
v 0.096725 -0.028038 -0.007961
v 0.100580 -0.028158 -0.007999
v 0.098399 -0.026268 -0.008109
v 0.098674 -0.026008 -0.008262
v 0.098939 -0.025928 -0.008349
v 0.100646 -0.027058 -0.008346
v 0.099294 -0.025909 -0.008486
v 0.100245 -0.026128 -0.008300
v 0.100550 -0.026318 -0.007856
v 0.100698 -0.026688 -0.008089
v 0.100480 -0.026438 -0.008563
v 0.095177 -0.035348 -0.008966
v 0.096973 -0.033678 -0.009394
v 0.092785 -0.031058 -0.008865
v 0.097837 -0.033608 -0.009119
v 0.093707 -0.030688 -0.009383
v 0.097834 -0.032938 -0.009551
v 0.098399 -0.032958 -0.009129
v 0.094238 -0.029448 -0.008974
v 0.098801 -0.031858 -0.009292
v 0.094872 -0.028938 -0.009005
v 0.095755 -0.028398 -0.009413
v 0.096211 -0.028058 -0.008846
v 0.096522 -0.027748 -0.009154
v 0.096280 -0.027868 -0.009578
v 0.100156 -0.027588 -0.009246
v 0.098379 -0.025968 -0.008967
v 0.098563 -0.025858 -0.009291
v 0.098981 -0.025838 -0.009264
v 0.100413 -0.026648 -0.008869
v 0.100238 -0.026928 -0.009284
v 0.099646 -0.025948 -0.008917
v 0.100215 -0.026228 -0.008918
v 0.093875 -0.031338 -0.009688
v 0.094392 -0.031828 -0.009882
v 0.095395 -0.032618 -0.009824
v 0.095043 -0.030548 -0.010187
v 0.098131 -0.032308 -0.009711
v 0.097739 -0.032398 -0.009858
v 0.097287 -0.031488 -0.010279
v 0.097978 -0.031708 -0.010044
v 0.094925 -0.029318 -0.009594
v 0.095018 -0.029698 -0.009967
v 0.095645 -0.028908 -0.010221
v 0.095796 -0.029048 -0.010451
v 0.096328 -0.027968 -0.010241
v 0.097392 -0.026558 -0.009717
v 0.097505 -0.026248 -0.010170
v 0.099469 -0.027808 -0.010279
v 0.097976 -0.025958 -0.010199
v 0.098566 -0.025868 -0.010216
v 0.099486 -0.026198 -0.010241
v 0.099226 -0.026008 -0.010294
v 0.099845 -0.026228 -0.009690
v 0.099860 -0.026988 -0.009931
v 0.099735 -0.026628 -0.010098
v 0.099625 -0.025968 -0.009539
v 0.099246 -0.025909 -0.009932
v 0.099545 -0.026058 -0.009957
v 0.096112 -0.030258 -0.010577
v 0.096349 -0.029478 -0.010769
v 0.096848 -0.030318 -0.010662
v 0.097774 -0.030148 -0.010662
v 0.096580 -0.028448 -0.010853
v 0.096505 -0.027998 -0.010582
v 0.097819 -0.028418 -0.011168
v 0.096958 -0.026958 -0.010565
v 0.097364 -0.027918 -0.011198
v 0.098506 -0.028148 -0.011079
v 0.098859 -0.028318 -0.010789
v 0.097217 -0.026478 -0.010560
v 0.097465 -0.026198 -0.010578
v 0.097325 -0.026558 -0.010902
v 0.097559 -0.026238 -0.010899
v 0.097562 -0.026378 -0.011028
v 0.097618 -0.026698 -0.011202
v 0.097668 -0.027088 -0.011295
v 0.097928 -0.026588 -0.011324
v 0.097893 -0.026398 -0.011240
v 0.099057 -0.027008 -0.010985
v 0.098806 -0.027498 -0.011100
v 0.098749 -0.026888 -0.011222
v 0.098447 -0.027458 -0.011287
v 0.099184 -0.027458 -0.010774
v 0.097702 -0.026068 -0.010582
v 0.098141 -0.025938 -0.010581
v 0.098515 -0.025919 -0.010673
v 0.097981 -0.025998 -0.010786
v 0.098373 -0.025938 -0.010789
v 0.097906 -0.026058 -0.010901
v 0.098115 -0.025998 -0.010893
v 0.098480 -0.025978 -0.010899
v 0.097888 -0.026178 -0.011048
v 0.098055 -0.026128 -0.011058
v 0.098344 -0.026258 -0.011215
v 0.099385 -0.026358 -0.010484
v 0.098866 -0.025958 -0.010563
v 0.099149 -0.026118 -0.010577
v 0.099240 -0.026628 -0.010775
v 0.099018 -0.026368 -0.010915
v 0.098713 -0.026058 -0.010900
v 0.098910 -0.026578 -0.011091
v 0.098720 -0.026248 -0.011066
v 0.098489 -0.026488 -0.011288
v 0.099429 -0.026868 -0.010570
v 0.097970 -0.027438 -0.011361
v 0.097989 -0.026938 -0.011387
v 0.098180 -0.026568 -0.011360
v 0.098321 -0.026988 -0.011382
v 0.084126 -0.050948 -0.004273
vn -0.7783 -0.3753 0.5034
vn -0.3871 -0.7316 0.5612
vn -0.3746 -0.4728 0.7976
vn 0.0172 -0.6624 0.7489
vn -0.9004 0.0903 0.4256
vn -0.6508 0.0307 0.7586
vn -0.1619 -0.0598 0.9850
vn -0.5060 0.2027 0.8384
vn -0.2108 -0.2327 0.9494
vn 0.1048 -0.3764 0.9205
vn -0.2272 0.1272 0.9655
vn 0.0351 -0.0447 0.9984
vn 0.1771 -0.8501 0.4959
vn 0.2898 -0.6647 0.6887
vn -0.7696 0.3775 0.5151
vn 0.2545 -0.3345 0.9074
vn -0.9008 0.3991 0.1711
vn -0.9593 0.2775 0.0517
vn -0.8727 0.4252 0.2401
vn 0.3840 -0.8192 0.4260
vn 0.4898 -0.6084 0.6244
vn 0.5220 -0.8129 0.2583
vn -0.0735 0.0704 0.9948
vn -0.3196 0.1839 0.9295
vn -0.5523 0.3150 0.7718
vn 0.3975 -0.2910 0.8702
vn 0.2451 -0.1124 0.9630
vn -0.5528 0.2699 0.7884
vn -0.0765 0.0731 0.9944
vn -0.2921 0.1359 0.9467
vn -0.4349 0.2583 0.8626
vn -0.2641 0.1852 0.9466
vn 0.0084 0.0342 0.9994
vn -0.7556 0.3883 0.5275
vn -0.6033 0.3757 0.7035
vn 0.6048 -0.3231 0.7279
vn 0.2601 -0.1048 0.9599
vn -0.9794 -0.0775 0.1862
vn -0.9883 0.1352 -0.0712
vn -0.5339 -0.7982 0.2790
vn -0.0605 -0.9055 0.4201
vn -0.9058 -0.3989 0.1425
vn -0.0619 -0.9762 0.2077
vn 0.2609 -0.9384 0.2266
vn -0.9451 -0.2229 -0.2389
vn -0.7907 -0.5645 -0.2367
vn -0.2492 -0.9645 0.0869
vn -0.9556 0.1721 -0.2393
vn 0.1670 -0.9858 -0.0189
vn -0.2479 -0.9456 -0.2109
vn -0.8899 0.1291 -0.4375
vn -0.7317 -0.3831 -0.5638
vn -0.4068 -0.6976 -0.5898
vn 0.0383 -0.9144 -0.4029
vn -0.7942 -0.0130 -0.6075
vn -0.5571 -0.2308 -0.7977
vn -0.1377 -0.5864 -0.7982
vn -0.9035 0.4221 -0.0744
vn -0.8596 0.3689 -0.3535
vn -0.9138 0.4046 -0.0343
vn -0.9069 0.3554 -0.2265
vn -0.8284 0.2837 -0.4830
vn 0.4204 -0.8956 0.1456
vn 0.3248 -0.9404 -0.1006
vn -0.7630 0.2756 -0.5847
vn -0.6902 0.1342 -0.7111
vn 0.3138 -0.8290 -0.4629
vn 0.5263 -0.8391 -0.1377
vn 0.4167 -0.6591 -0.6260
vn 0.6320 -0.6914 -0.3499
vn 0.6462 -0.7604 -0.0658
vn 0.6666 -0.6896 0.2830
vn 0.7126 -0.5383 0.4500
vn 0.7649 -0.6433 -0.0338
vn 0.8103 -0.5608 0.1697
vn 0.6918 -0.6180 -0.3736
vn -0.7238 0.3831 0.5739
vn 0.7919 -0.5956 -0.1351
vn 0.6796 -0.5699 -0.4618
vn -0.7573 0.3640 0.5423
vn -0.9383 0.3403 -0.0616
vn 0.7874 -0.4667 0.4027
vn 0.8565 -0.5127 0.0595
vn -0.8340 0.3927 0.3876
vn 0.8630 -0.4790 0.1607
vn -0.6107 0.2841 0.7392
vn -0.7916 0.3446 0.5046
vn -0.2706 0.1205 0.9551
vn -0.6064 0.1763 0.7754
vn -0.8337 0.2425 0.4961
vn -0.9455 0.2565 0.2005
vn 0.0101 0.0429 0.9990
vn 0.5774 -0.3189 0.7516
vn 0.7900 -0.4438 0.4230
vn 0.8587 -0.4822 0.1735
vn -0.6521 0.1721 0.7383
vn -0.4855 0.1457 0.8620
vn -0.2373 0.1122 0.9649
vn 0.4202 -0.2166 0.8812
vn 0.7000 -0.4502 0.5544
vn 0.2222 -0.0284 0.9746
vn -0.0194 0.0961 0.9952
vn -0.2722 0.1674 0.9476
vn 0.1425 0.0403 0.9890
vn 0.6050 -0.4099 0.6826
vn 0.8148 -0.5334 0.2273
vn -0.5589 0.2230 0.7987
vn -0.7424 0.2062 0.6375
vn -0.0207 0.1308 0.9912
vn 0.3824 -0.1483 0.9120
vn 0.5887 -0.3408 0.7330
vn -0.4753 0.3006 0.8269
vn -0.2261 0.2427 0.9434
vn -0.3607 -0.1322 -0.9233
vn 0.0784 -0.5110 -0.8560
vn -0.4777 0.0512 -0.8770
vn 0.2440 -0.4261 -0.8712
vn 0.5160 -0.5595 -0.6486
vn -0.0953 -0.2093 -0.9732
vn 0.4283 -0.4848 -0.7626
vn 0.5764 -0.4906 -0.6535
vn 0.1346 -0.3249 -0.9361
vn -0.6862 0.1756 -0.7059
vn -0.4478 0.0434 -0.8931
vn -0.8027 0.1574 -0.5752
vn 0.8118 -0.5431 -0.2146
vn 0.7241 -0.5076 -0.4670
vn 0.8197 -0.5052 -0.2699
vn -0.9582 0.2164 -0.1873
vn -0.9748 0.2194 0.0394
vn -0.9265 0.1501 -0.3450
vn 0.8600 -0.5094 -0.0303
vn -0.8916 0.1996 0.4065
vn -0.9772 0.2076 0.0457
vn 0.7774 -0.6271 -0.0498
vn -0.8957 0.1955 0.3993
vn -0.9676 0.2418 0.0724
vn 0.7035 -0.6931 0.1571
vn -0.8972 0.2745 0.3459
vn -0.9278 0.3690 0.0548
vn -0.7497 0.2801 0.5997
vn 0.6699 -0.7093 0.2193
vn -0.8339 0.3482 0.4283
vn -0.8068 0.4181 0.4174
vn -0.6678 0.3329 0.6657
vn 0.5430 -0.1971 0.8163
vn -0.5978 0.3931 0.6987
vn -0.7150 0.4989 0.4898
vn -0.4698 0.4122 0.7806
vn -0.6533 0.5793 0.4873
vn -0.8114 0.5529 0.1896
vn -0.2849 0.3904 0.8755
vn -0.4986 0.5117 0.6997
vn -0.3153 0.5122 0.7989
vn -0.5375 0.6305 0.5599
vn -0.0039 0.1154 0.9933
vn -0.1137 0.2963 0.9483
vn -0.2437 0.4611 0.8532
vn -0.4247 0.5915 0.6854
vn -0.7198 0.6194 0.3134
vn -0.0956 0.2746 0.9568
vn 0.3445 -0.0383 0.9380
vn -0.2162 0.3003 0.9290
vn 0.1433 0.0192 0.9895
vn -0.1008 0.1801 0.9785
vn 0.0772 0.0567 0.9954
vn 0.2865 -0.0036 0.9581
vn 0.1985 -0.0082 0.9801
vn -0.1050 0.3747 0.9212
vn -0.2741 0.3942 0.8772
vn 0.0326 0.2484 0.9681
vn -0.1851 0.5584 0.8087
vn -0.3495 0.5332 0.7704
vn 0.4389 -0.1551 0.8850
vn -0.0922 0.4642 0.8809
vn -0.3427 0.6548 0.6736
vn -0.3001 0.6008 0.7409
vn -0.2319 0.4735 0.8497
vn -0.0680 0.3596 0.9306
vn 0.0723 0.1813 0.9808
vn 0.0014 0.2832 0.9590
vn 0.1341 0.0384 0.9902
vn -0.2285 0.4874 0.8428
vn -0.1255 0.5088 0.8517
vn 0.2443 -0.1460 0.9586
vn 0.3927 -0.3002 0.8693
vn -0.0421 0.3496 0.9360
vn -0.2201 -0.1337 -0.9663
vn -0.4120 -0.0024 -0.9112
vn 0.3242 -0.3889 -0.8623
vn -0.0771 -0.2126 -0.9741
vn 0.0186 -0.2019 -0.9792
vn 0.4389 -0.3882 -0.8103
vn 0.6348 -0.4642 -0.6177
vn 0.2549 -0.2710 -0.9282
vn 0.3646 -0.3313 -0.8703
vn -0.1449 -0.1311 -0.9807
vn -0.5068 0.0019 -0.8620
vn 0.7723 -0.5647 -0.2910
vn 0.6754 -0.4870 -0.5538
vn -0.9713 0.1912 -0.1417
vn -0.7581 0.1007 -0.6443
vn -0.9384 0.2032 -0.2795
vn -0.8441 0.1702 -0.5085
vn 0.6957 -0.6727 -0.2518
vn 0.6138 -0.6322 -0.4729
vn -0.9401 0.2606 -0.2199
vn 0.6502 -0.7586 -0.0427
vn 0.6155 -0.7464 -0.2532
vn -0.8896 0.2295 -0.3949
vn -0.8701 0.2896 -0.3989
vn -0.9334 0.3031 -0.1922
vn -0.8854 0.4236 -0.1915
vn 0.6702 -0.5587 0.4885
vn -0.8905 0.4513 0.0581
vn 0.7318 -0.3392 0.5911
vn 0.7280 -0.4731 0.4962
vn -0.8296 0.5563 0.0471
vn -0.5465 0.6307 0.5510
vn -0.4052 0.6544 0.6384
vn -0.5743 0.7367 0.3570
vn -0.7211 0.6477 0.2459
vn -0.4688 0.7654 0.4410
vn -0.5852 0.7911 0.1783
vn 0.6819 -0.4253 0.5951
vn -0.4056 0.7096 0.5762
vn -0.2764 0.6319 0.7241
vn -0.3785 0.6707 0.6379
vn 0.4674 -0.3746 0.8008
vn -0.2920 0.7658 0.5730
vn -0.4279 0.7590 0.4907
vn -0.2810 0.8683 0.4088
vn -0.1976 0.7640 0.6142
vn -0.2131 0.8799 0.4246
vn -0.1617 0.6668 0.7275
vn -0.0975 0.2752 0.9564
vn 0.3059 -0.1706 0.9367
vn 0.2120 -0.0374 0.9766
vn 0.4212 -0.2885 0.8599
vn 0.4782 -0.2018 0.8548
vn 0.6247 -0.3049 0.7189
vn -0.2391 0.5731 0.7838
vn -0.3817 0.7894 0.4808
vn -0.3569 0.5001 0.7890
vn -0.2837 0.9462 0.1554
vn 0.3450 -0.0232 0.9383
vn 0.1441 0.1646 0.9758
vn 0.6105 -0.1396 0.7796
vn 0.7446 -0.2487 0.6194
vn -0.1425 0.3922 0.9088
vn -0.4950 0.5626 0.6621
vn -0.6022 0.6533 0.4589
vn -0.0420 0.2252 0.9734
vn -0.2429 0.6090 0.7551
vn 0.1672 0.2671 0.9491
vn 0.4686 0.0690 0.8807
vn 0.0688 0.4371 0.8968
vn 0.7679 -0.0748 0.6362
vn 0.3501 0.2866 0.8918
vn 0.1332 0.6178 0.7750
vn 0.3498 0.4887 0.7992
vn 0.6096 0.1504 0.7783
vn -0.3096 -0.0451 -0.9498
vn 0.0742 -0.3426 -0.9365
vn 0.5131 -0.4541 -0.7284
vn 0.6872 -0.5019 -0.5252
vn -0.6450 0.0942 -0.7584
vn -0.2422 -0.1664 -0.9558
vn 0.6339 -0.5597 -0.5338
vn -0.7930 0.1927 -0.5780
vn 0.4984 -0.5729 -0.6507
vn 0.4432 -0.6982 -0.5622
vn 0.6638 -0.7468 -0.0391
vn -0.7703 0.2832 -0.5714
vn -0.8168 0.3914 -0.4238
vn -0.8521 0.4889 -0.1866
vn 0.7219 -0.6401 0.2629
vn 0.7396 -0.6684 -0.0783
vn 0.8291 -0.5320 0.1720
vn 0.8256 -0.5607 0.0637
vn -0.8117 0.5417 -0.2185
vn -0.7503 0.6610 -0.0070
vn -0.7032 0.6933 -0.1577
vn -0.7392 0.5068 -0.4436
vn -0.6416 0.7637 0.0716
vn -0.4341 0.8114 0.3913
vn -0.5629 0.7805 0.2720
vn 0.5920 -0.4162 0.6902
vn 0.7297 -0.4899 0.4770
vn -0.3261 0.9093 0.2584
vn 0.7506 -0.4076 0.5200
vn 0.7842 -0.3456 0.5153
vn 0.8905 -0.3556 0.2840
vn 0.8810 -0.4174 0.2229
vn -0.1772 0.9524 0.2480
vn 0.8722 -0.2856 0.3970
vn 0.9448 -0.2909 0.1508
vn 0.8842 -0.2122 0.4160
vn 0.9663 -0.2181 0.1367
vn -0.6068 0.6745 0.4207
vn 0.9230 -0.0549 0.3809
vn 0.9903 -0.0668 0.1218
vn -0.4117 0.7766 0.4768
vn -0.1963 0.8082 0.5552
vn -0.0510 0.9508 0.3057
vn -0.3839 0.8607 0.3345
vn -0.1204 0.9785 0.1676
vn 0.0355 0.8171 0.5754
vn 0.6048 0.3583 0.7112
vn 0.3059 0.7537 0.5817
vn 0.7973 0.1674 0.5800
vn 0.7972 0.4630 0.3875
vn 0.9450 0.1745 0.2767
vn 0.9781 -0.1785 -0.1074
vn 0.2599 0.9179 0.2999
vn 0.5356 0.5804 0.6135
vn 0.5479 0.7400 0.3902
vn 0.6020 0.7833 0.1552
vn 0.8870 0.4527 0.0912
vn -0.3793 -0.0834 -0.9215
vn 0.4002 -0.5081 -0.7627
vn -0.1384 -0.2575 -0.9563
vn 0.0885 -0.3667 -0.9261
vn 0.2920 -0.4959 -0.8178
vn -0.3006 -0.1472 -0.9423
vn -0.4408 -0.0264 -0.8972
vn -0.2050 -0.1318 -0.9698
vn 0.0924 -0.3747 -0.9225
vn -0.0967 -0.2175 -0.9712
vn 0.2979 -0.5511 -0.7795
vn 0.4301 -0.6959 -0.5751
vn -0.6387 0.1307 -0.7583
vn 0.5842 -0.7491 -0.3124
vn 0.6092 -0.6879 -0.3945
vn 0.4651 -0.6113 -0.6404
vn 0.7122 -0.6158 -0.3370
vn 0.7011 -0.6010 -0.3836
vn -0.6687 0.6138 -0.4196
vn 0.7874 -0.5838 0.1980
vn 0.8157 -0.5457 -0.1919
vn -0.6777 0.7062 -0.2049
vn -0.6194 0.7834 0.0513
vn 0.8627 -0.4837 0.1479
vn 0.8707 -0.4837 -0.0893
vn 0.8914 -0.3659 -0.2675
vn -0.5005 0.8522 0.1526
vn -0.6536 0.7237 -0.2215
vn -0.5230 0.8399 -0.1449
vn 0.9324 -0.3441 -0.1101
vn -0.3900 0.9124 0.1239
vn -0.3698 0.9208 -0.1239
vn -0.2360 0.9705 0.0498
vn 0.9421 -0.3342 0.0273
vn 0.9527 -0.2766 -0.1261
vn 0.8750 -0.2740 -0.3992
vn -0.4539 0.8520 0.2609
vn 0.9162 -0.2298 -0.3284
vn 0.9642 -0.1239 -0.2346
vn -0.6370 0.6953 0.3329
vn 0.9860 0.1669 0.0011
vn 0.9906 0.0268 -0.1344
vn 0.9265 0.3570 -0.1191
vn 0.9387 0.2493 -0.2379
vn 0.9372 -0.0384 -0.3468
vn 0.0782 0.9858 0.1488
vn 0.2774 0.9564 0.0910
vn 0.5520 0.8332 0.0327
vn 0.0854 0.9923 0.0900
vn 0.2353 0.9719 -0.0016
vn 0.4799 0.8749 -0.0651
vn 0.7531 0.6510 -0.0949
vn 0.1038 -0.3728 -0.9221
vn -0.1073 -0.2428 -0.9641
vn -0.6042 0.1806 -0.7761
vn -0.4782 0.0874 -0.8739
vn 0.2919 -0.5001 -0.8153
vn 0.5073 -0.5356 -0.6751
vn -0.5909 0.2591 -0.7640
vn -0.6654 0.3917 -0.6355
vn -0.5973 0.5571 -0.5769
vn -0.5628 0.4310 -0.7053
vn -0.6327 0.6404 -0.4354
vn -0.5771 0.6805 -0.4515
vn -0.5700 0.5393 -0.6199
vn 0.8125 -0.3777 -0.4441
vn 0.7439 -0.5072 -0.4352
vn 0.6435 -0.4414 -0.6254
vn 0.7362 -0.3033 -0.6049
vn -0.4758 0.8081 -0.3472
vn -0.5722 0.6094 -0.5489
vn -0.4216 0.8941 -0.1512
vn -0.5499 0.7252 -0.4143
vn -0.5227 0.8408 0.1408
vn -0.6492 0.7176 0.2521
vn -0.6974 0.6532 0.2950
vn 0.8690 -0.1937 -0.4554
vn -0.3923 0.8831 0.2573
vn 0.0540 0.9984 0.0144
vn 0.8955 0.1818 -0.4062
vn 0.8869 0.0013 -0.4620
vn 0.8614 0.4242 -0.2794
vn 0.7277 0.6217 -0.2899
vn 0.4276 0.8877 -0.1706
vn -0.2802 -0.1421 -0.9494
vn -0.0595 -0.2880 -0.9558
vn 0.1316 -0.3921 -0.9105
vn 0.3869 -0.4529 -0.8032
vn -0.5598 0.3296 -0.7602
vn 0.0821 -0.3376 -0.9377
vn -0.6612 0.5220 -0.5388
vn 0.2500 -0.3877 -0.8873
vn 0.5301 -0.3637 -0.7660
vn -0.6494 0.7376 -0.1852
vn -0.7469 0.6643 0.0296
vn -0.7080 0.4743 -0.5232
vn 0.7962 -0.2223 -0.5627
vn -0.4497 0.8669 0.2151
vn -0.1862 0.9794 0.0780
vn -0.3479 0.9357 0.0589
vn 0.8306 0.1661 -0.5316
vn 0.7717 0.4896 -0.4059
vn -0.2081 -0.1932 -0.9588
vn -0.6364 0.3114 -0.7058
vn -0.4301 0.0549 -0.9011
vn -0.0475 -0.2618 -0.9640
vn 0.3712 -0.3268 -0.8692
vn 0.1947 -0.3017 -0.9333
vn -0.6075 0.2380 -0.7578
vn -0.8018 0.5172 -0.2994
vn -0.7182 0.3658 -0.5919
vn -0.8454 0.4054 -0.3479
vn 0.6323 -0.2832 -0.7211
vn -0.6361 0.7463 0.1961
vn -0.8018 0.5867 -0.1138
vn 0.8459 -0.0596 -0.5300
vn 0.7982 0.0034 -0.6024
vn 0.7325 -0.1812 -0.6563
vn -0.0125 0.9973 -0.0727
vn 0.2553 0.9531 -0.1624
vn -0.1770 0.9802 -0.0884
vn -0.4315 0.8996 -0.0674
vn 0.0715 0.9813 -0.1788
vn 0.2883 0.9095 -0.2994
vn 0.4600 0.8125 -0.3582
vn 0.5761 0.7381 -0.3512
vn 0.7496 0.3163 -0.5814
vn 0.7124 0.4919 -0.5004
vn 0.5677 0.6343 -0.5248
vn -0.2793 -0.0946 -0.9555
vn -0.5351 0.1592 -0.8296
vn -0.2825 -0.0606 -0.9573
vn 0.0495 -0.2322 -0.9714
vn -0.3827 0.0686 -0.9213
vn -0.0450 -0.1193 -0.9918
vn 0.5477 -0.1911 -0.8146
vn 0.3841 -0.2775 -0.8806
vn 0.3001 -0.1815 -0.9365
vn -0.6303 0.7739 -0.0614
vn -0.5609 0.6909 -0.4562
vn -0.3365 0.8441 -0.4175
vn -0.7300 0.3954 -0.5574
vn -0.2665 0.9450 -0.1898
vn -0.5473 0.4715 -0.6915
vn -0.3297 0.6800 -0.6549
vn -0.5208 0.2363 -0.8203
vn -0.3066 0.4762 -0.8242
vn -0.2821 0.2493 -0.9264
vn 0.0039 0.2582 -0.9661
vn 0.6752 -0.0545 -0.7356
vn 0.4771 -0.0034 -0.8788
vn 0.5781 0.1898 -0.7936
vn 0.1918 -0.0209 -0.9812
vn 0.3009 0.2707 -0.9145
vn -0.1401 0.8998 -0.4131
vn -0.0438 0.9706 -0.2368
vn 0.1255 0.8524 -0.5077
vn -0.1549 0.7259 -0.6702
vn 0.0856 0.5758 -0.8131
vn 0.3783 0.7258 -0.5746
vn 0.4252 0.5072 -0.7496
vn 0.7471 0.1485 -0.6479
vn 0.6250 0.3948 -0.6734
vn -0.1489 0.0412 -0.9880
s 1
usemtl mtl1.310
f 24//1 23//2 5//3
f 5//3 23//2 6//4
f 47//5 24//1 7//6
f 24//1 5//3 7//6
f 1//7 9//8 8//9
f 8//9 2//10 1//7
f 3//11 9//8 1//7
f 2//10 4//12 1//7
f 1//7 4//12 3//11
f 7//6 5//3 8//9
f 5//3 6//4 8//9
f 6//4 2//10 8//9
f 6//4 25//13 10//14
f 6//4 10//14 2//10
f 9//8 11//15 7//6
f 9//8 7//6 8//9
f 4//12 2//10 12//16
f 2//10 10//14 12//16
f 47//5 7//6 11//15
f 47//5 11//15 43//17
f 47//5 43//17 44//18
f 43//17 11//15 62//19
f 25//13 50//20 10//14
f 12//16 10//14 14//21
f 10//14 50//20 14//21
f 50//20 51//22 14//21
f 3//11 4//12 15//23
f 3//11 15//23 17//24
f 3//11 17//24 9//8
f 11//15 9//8 16//25
f 4//12 13//26 22//27
f 12//16 13//26 4//12
f 12//16 14//21 13//26
f 15//23 4//12 22//27
f 9//8 17//24 16//25
f 16//25 17//24 19//28
f 17//24 15//23 18//29
f 15//23 22//27 18//29
f 17//24 20//30 19//28
f 17//24 18//29 20//30
f 21//31 20//30 18//29
f 21//31 18//29 68//32
f 18//29 22//27 73//33
f 21//31 61//34 19//28
f 19//28 20//30 21//31
f 67//35 61//34 21//31
f 68//32 67//35 21//31
f 18//29 73//33 68//32
f 22//27 64//36 80//37
f 22//27 80//37 73//33
f 27//38 44//18 32//39
f 23//2 24//1 30//40
f 30//40 26//41 23//2
f 23//2 26//41 6//4
f 25//13 6//4 26//41
f 27//38 24//1 47//5
f 27//38 47//5 44//18
f 27//38 32//39 29//42
f 24//1 27//38 29//42
f 29//42 30//40 24//1
f 30//40 31//43 26//41
f 26//41 31//43 28//44
f 25//13 26//41 28//44
f 29//42 32//39 34//45
f 34//45 33//46 29//42
f 29//42 33//46 30//40
f 483//47 31//43 30//40
f 34//45 32//39 35//48
f 38//49 28//44 31//43
f 483//47 36//50 31//43
f 31//43 36//50 38//49
f 39//51 34//45 35//48
f 33//46 34//45 37//52
f 37//52 40//53 33//46
f 33//46 40//53 36//50
f 40//53 41//54 36//50
f 36//50 41//54 38//49
f 34//45 39//51 42//55
f 34//45 42//55 37//52
f 37//52 42//55 92//56
f 37//52 92//56 40//53
f 40//53 94//57 41//54
f 94//57 40//53 92//56
f 43//17 62//19 45//58
f 32//39 44//18 45//58
f 45//58 44//18 43//17
f 106//59 45//58 63//60
f 46//61 35//48 32//39
f 46//61 32//39 45//58
f 46//61 45//58 106//59
f 48//62 39//51 46//61
f 48//62 46//61 106//59
f 28//44 50//20 25//13
f 50//20 28//44 52//63
f 39//51 35//48 46//61
f 28//44 38//49 49//64
f 52//63 28//44 49//64
f 42//55 39//51 48//62
f 38//49 41//54 49//64
f 48//62 100//65 93//66
f 100//65 48//62 106//59
f 42//55 48//62 93//66
f 94//57 97//67 41//54
f 51//22 50//20 52//63
f 53//68 51//22 52//63
f 53//68 52//63 49//64
f 97//67 53//68 49//64
f 41//54 97//67 49//64
f 97//67 98//69 53//68
f 53//68 98//69 99//70
f 99//70 56//71 53//68
f 63//60 45//58 62//19
f 51//22 55//72 14//21
f 55//72 54//73 14//21
f 14//21 54//73 13//26
f 54//73 55//72 57//74
f 51//22 56//71 55//72
f 56//71 57//74 55//72
f 57//74 59//75 54//73
f 51//22 53//68 56//71
f 99//70 57//74 56//71
f 102//76 57//74 99//70
f 58//77 11//15 16//25
f 62//19 11//15 58//77
f 102//76 107//78 57//74
f 108//79 107//78 102//76
f 19//28 58//77 16//25
f 107//78 59//75 57//74
f 19//28 60//80 58//77
f 62//19 58//77 60//80
f 106//59 63//60 112//81
f 13//26 64//36 22//27
f 13//26 54//73 64//36
f 62//19 60//80 61//34
f 19//28 61//34 60//80
f 54//73 65//82 64//36
f 54//73 59//75 65//82
f 59//75 109//83 65//82
f 66//84 61//34 67//35
f 62//19 61//34 66//84
f 63//60 62//19 112//81
f 109//83 115//85 65//82
f 66//84 67//35 69//86
f 66//84 69//86 70//87
f 73//33 74//88 68//32
f 69//86 67//35 74//88
f 67//35 68//32 74//88
f 74//88 71//89 69//86
f 72//90 69//86 71//89
f 70//87 69//86 72//90
f 113//91 70//87 72//90
f 73//33 80//37 76//92
f 73//33 76//92 74//88
f 77//93 80//37 64//36
f 65//82 115//85 64//36
f 78//94 115//85 117//95
f 78//94 64//36 115//85
f 86//96 72//90 71//89
f 79//97 71//89 74//88
f 74//88 75//98 79//97
f 71//89 79//97 86//96
f 84//99 80//37 77//93
f 77//93 82//100 84//99
f 78//94 82//100 77//93
f 77//93 64//36 78//94
f 74//88 76//92 75//98
f 79//97 75//98 86//96
f 80//37 81//101 76//92
f 76//92 83//102 75//98
f 83//102 89//103 75//98
f 80//37 84//99 81//101
f 75//98 89//103 86//96
f 76//92 81//101 139//104
f 82//100 85//105 84//99
f 81//101 84//99 85//105
f 85//105 82//100 119//106
f 87//107 122//108 86//96
f 83//102 91//109 89//103
f 87//107 86//96 89//103
f 83//102 76//92 139//104
f 81//101 85//105 88//110
f 85//105 127//111 88//110
f 139//104 91//109 83//102
f 81//101 88//110 139//104
f 87//107 89//103 129//112
f 89//103 90//113 129//112
f 89//103 91//109 90//113
f 42//55 93//66 92//56
f 92//56 93//66 96//114
f 94//57 95//115 97//67
f 93//66 101//116 96//114
f 100//65 101//116 93//66
f 92//56 96//114 94//57
f 96//114 95//115 94//57
f 95//115 98//69 97//67
f 95//115 104//117 98//69
f 99//70 98//69 103//118
f 99//70 103//118 102//76
f 103//118 98//69 104//117
f 95//115 96//114 105//119
f 105//119 96//114 101//116
f 164//120 168//121 103//118
f 95//115 105//119 104//117
f 164//120 103//118 104//117
f 105//119 165//122 104//117
f 104//117 165//122 164//120
f 100//65 106//59 167//123
f 101//116 163//124 105//119
f 103//118 108//79 102//76
f 168//121 108//79 103//118
f 101//116 100//65 167//123
f 174//125 106//59 112//81
f 167//123 106//59 174//125
f 59//75 107//78 109//83
f 107//78 110//126 109//83
f 108//79 110//126 107//78
f 111//127 110//126 108//79
f 108//79 168//121 111//127
f 111//127 177//128 110//126
f 174//125 112//81 114//129
f 110//126 177//128 109//83
f 62//19 66//84 112//81
f 114//129 112//81 113//91
f 177//128 115//85 109//83
f 113//91 66//84 70//87
f 112//81 66//84 113//91
f 114//129 113//91 116//130
f 114//129 116//130 180//131
f 115//85 118//132 117//95
f 113//91 72//90 86//96
f 120//133 113//91 86//96
f 113//91 120//133 116//130
f 116//130 120//133 183//134
f 119//106 82//100 78//94
f 117//95 119//106 78//94
f 118//132 119//106 117//95
f 118//132 181//135 119//106
f 183//134 120//133 121//136
f 183//134 121//136 185//137
f 121//136 86//96 122//108
f 120//133 86//96 121//136
f 186//138 85//105 119//106
f 185//137 123//139 189//140
f 121//136 122//108 123//139
f 122//108 87//107 125//141
f 123//139 122//108 125//141
f 121//136 123//139 185//137
f 186//138 247//142 85//105
f 123//139 124//143 189//140
f 124//143 128//144 189//140
f 126//145 125//141 87//107
f 129//112 126//145 87//107
f 125//141 126//145 124//143
f 124//143 126//145 128//144
f 125//141 124//143 123//139
f 127//111 140//146 88//110
f 128//144 126//145 130//147
f 131//148 128//144 130//147
f 129//112 90//113 133//149
f 130//147 126//145 129//112
f 133//149 130//147 129//112
f 130//147 133//149 131//148
f 132//150 131//148 133//149
f 128//144 131//148 193//151
f 193//151 131//148 132//150
f 133//149 90//113 135//152
f 133//149 135//152 134//153
f 136//154 134//153 135//152
f 133//149 134//153 132//150
f 137//155 132//150 134//153
f 137//155 134//153 136//154
f 91//109 142//156 138//157
f 138//157 90//113 91//109
f 90//113 138//157 135//152
f 135//152 138//157 136//154
f 136//154 145//158 197//159
f 137//155 195//160 132//150
f 137//155 197//159 195//160
f 137//155 136//154 197//159
f 142//156 141//161 138//157
f 142//156 91//109 139//104
f 88//110 144//162 139//104
f 140//146 144//162 88//110
f 138//157 145//158 136//154
f 141//161 145//158 138//157
f 141//161 146//163 145//158
f 139//104 143//164 142//156
f 139//104 144//162 143//164
f 142//156 146//163 141//161
f 150//165 146//163 142//156
f 142//156 151//166 150//165
f 147//167 153//168 143//164
f 143//164 144//162 147//167
f 149//169 148//170 150//165
f 150//165 152//171 149//169
f 148//170 146//163 150//165
f 148//170 149//169 154//172
f 146//163 148//170 155//173
f 148//170 154//172 155//173
f 142//156 143//164 151//166
f 143//164 153//168 151//166
f 150//165 151//166 152//171
f 147//167 200//174 153//168
f 147//167 144//162 200//174
f 144//162 140//146 200//174
f 152//171 157//175 149//169
f 157//175 154//172 149//169
f 154//172 202//176 155//173
f 203//177 202//176 154//172
f 203//177 154//172 157//175
f 159//178 203//177 157//175
f 158//179 157//175 152//171
f 151//166 156//180 152//171
f 151//166 153//168 156//180
f 158//179 152//171 156//180
f 156//180 160//181 158//179
f 157//175 158//179 159//178
f 153//168 200//174 162//182
f 205//183 159//178 158//179
f 208//184 205//183 158//179
f 153//168 162//182 156//180
f 160//181 156//180 162//182
f 162//182 200//174 161//185
f 209//186 161//185 200//174
f 160//181 162//182 213//187
f 166//188 105//119 163//124
f 105//119 166//188 165//122
f 166//188 163//124 172//189
f 169//190 164//120 165//122
f 164//120 169//190 168//121
f 165//122 166//188 170//191
f 166//188 172//189 170//191
f 167//123 163//124 101//116
f 167//123 172//189 163//124
f 169//190 165//122 170//191
f 169//190 170//191 173//192
f 174//125 172//189 167//123
f 168//121 171//193 178//194
f 169//190 171//193 168//121
f 173//192 170//191 172//189
f 171//193 169//190 173//192
f 173//192 175//195 171//193
f 111//127 178//194 177//128
f 178//194 111//127 168//121
f 171//193 176//196 178//194
f 175//195 176//196 171//193
f 233//197 175//195 173//192
f 175//195 233//197 176//196
f 172//189 239//198 233//197
f 114//129 180//131 174//125
f 182//199 115//85 177//128
f 177//128 178//194 235//200
f 177//128 235//200 182//199
f 174//125 239//198 172//189
f 182//199 118//132 115//85
f 116//130 179//201 180//131
f 179//201 116//130 183//134
f 180//131 238//202 174//125
f 184//203 180//131 179//201
f 182//199 181//135 118//132
f 183//134 184//203 179//201
f 180//131 184//203 242//204
f 181//135 182//199 243//205
f 241//206 243//205 182//199
f 188//207 184//203 183//134
f 119//106 181//135 186//138
f 181//135 243//205 186//138
f 187//208 186//138 243//205
f 245//209 187//208 243//205
f 184//203 188//207 244//210
f 246//211 244//210 188//207
f 185//137 189//140 190//212
f 188//207 185//137 190//212
f 188//207 183//134 185//137
f 187//208 247//142 186//138
f 190//212 189//140 194//213
f 246//211 188//207 190//212
f 192//214 85//105 247//142
f 127//111 85//105 192//214
f 189//140 128//144 191//215
f 189//140 191//215 194//213
f 191//215 128//144 193//151
f 194//213 191//215 193//151
f 196//216 140//146 127//111
f 127//111 192//214 253//217
f 193//151 132//150 195//160
f 251//218 193//151 195//160
f 194//213 193//151 251//218
f 253//217 196//216 127//111
f 198//219 195//160 197//159
f 199//220 197//159 145//158
f 198//219 197//159 199//220
f 198//219 256//221 257//222
f 198//219 257//222 195//160
f 256//221 198//219 259//223
f 256//221 259//223 260//224
f 146//163 155//173 145//158
f 198//219 199//220 259//223
f 155//173 202//176 199//220
f 155//173 199//220 145//158
f 199//220 202//176 259//223
f 200//174 140//146 261//225
f 259//223 202//176 201//226
f 201//226 202//176 203//177
f 200//174 261//225 209//186
f 203//177 206//227 204//228
f 203//177 204//228 201//226
f 205//183 203//177 159//178
f 209//186 261//225 210//229
f 204//228 206//227 207//230
f 204//228 207//230 263//231
f 263//231 207//230 267//232
f 201//226 204//228 263//231
f 205//183 206//227 203//177
f 208//184 206//227 205//183
f 160//181 208//184 158//179
f 160//181 213//187 208//184
f 206//227 208//184 211//233
f 207//230 206//227 211//233
f 267//232 207//230 211//233
f 267//232 211//233 212//234
f 211//233 208//184 217//235
f 217//235 208//184 213//187
f 211//233 217//235 212//234
f 162//182 220//236 213//187
f 161//185 214//237 162//182
f 162//182 214//237 219//238
f 214//237 161//185 209//186
f 209//186 215//239 214//237
f 215//239 221//240 214//237
f 210//229 215//239 209//186
f 215//239 210//229 216//241
f 213//187 218//242 217//235
f 212//234 217//235 218//242
f 212//234 218//242 271//243
f 271//243 218//242 222//244
f 373//245 212//234 271//243
f 213//187 220//236 218//242
f 218//242 220//236 222//244
f 224//246 219//238 214//237
f 219//238 226//247 162//182
f 214//237 221//240 224//246
f 224//246 221//240 228//248
f 216//241 228//248 221//240
f 215//239 216//241 221//240
f 216//241 272//249 228//248
f 220//236 227//250 222//244
f 222//244 225//251 273//252
f 224//246 226//247 219//238
f 220//236 162//182 223//253
f 226//247 223//253 162//182
f 223//253 227//250 220//236
f 225//251 222//244 227//250
f 279//254 225//251 227//250
f 223//253 226//247 227//250
f 227//250 226//247 230//255
f 226//247 229//256 230//255
f 231//257 227//250 230//255
f 224//246 229//256 226//247
f 224//246 228//248 229//256
f 228//248 285//258 229//256
f 229//256 232//259 230//255
f 285//258 228//248 272//249
f 279//254 227//250 231//257
f 230//255 232//259 231//257
f 280//260 231//257 281//261
f 232//259 229//256 284//262
f 229//256 285//258 284//262
f 172//189 233//197 173//192
f 233//197 234//263 299//264
f 299//264 176//196 233//197
f 178//194 176//196 235//200
f 176//196 299//264 237//265
f 235//200 236//266 182//199
f 236//266 235//200 237//265
f 176//196 237//265 235//200
f 238//202 239//198 174//125
f 233//197 239//198 234//263
f 238//202 309//267 239//198
f 234//263 239//198 298//268
f 241//206 182//199 240//269
f 236//266 240//269 182//199
f 180//131 242//204 238//202
f 308//270 238//202 242//204
f 308//270 309//267 238//202
f 241//206 240//269 303//271
f 241//206 245//209 243//205
f 242//204 184//203 244//210
f 244//210 246//211 308//270
f 242//204 244//210 308//270
f 241//206 307//272 245//209
f 194//213 246//211 190//212
f 187//208 245//209 249//273
f 246//211 194//213 312//274
f 247//142 187//208 249//273
f 315//275 194//213 252//276
f 248//277 192//214 247//142
f 248//277 253//217 192//214
f 247//142 249//273 248//277
f 250//278 248//277 249//273
f 194//213 251//218 252//276
f 253//217 254//279 196//216
f 253//217 248//277 254//279
f 261//225 140//146 196//216
f 254//279 261//225 196//216
f 261//225 254//279 317//280
f 254//279 248//277 250//278
f 250//278 317//280 254//279
f 252//276 251//218 255//281
f 251//218 195//160 257//222
f 256//221 260//224 257//222
f 251//218 258//282 255//281
f 258//282 251//218 257//222
f 258//282 257//222 260//224
f 258//282 318//283 255//281
f 318//283 258//282 260//224
f 255//281 318//283 319//284
f 318//283 260//224 320//285
f 259//223 320//285 260//224
f 201//226 264//286 259//223
f 264//286 323//287 259//223
f 201//226 263//231 264//286
f 261//225 265//288 210//229
f 262//289 265//288 261//225
f 264//286 263//231 267//232
f 329//290 264//286 267//232
f 265//288 216//241 210//229
f 266//291 216//241 265//288
f 269//292 216//241 266//291
f 266//291 270//293 269//292
f 265//288 262//289 266//291
f 330//294 266//291 262//289
f 266//291 330//294 270//293
f 329//290 267//232 268//295
f 268//295 267//232 212//234
f 268//295 212//234 373//245
f 272//249 216//241 269//292
f 274//296 272//249 269//292
f 270//293 274//296 269//292
f 275//297 274//296 270//293
f 222//244 273//252 271//243
f 276//298 272//249 274//296
f 275//297 276//298 274//296
f 275//297 277//299 276//298
f 225//251 336//300 273//252
f 272//249 276//298 285//258
f 288//301 276//298 290//302
f 277//299 290//302 276//298
f 279//254 278//303 225//251
f 278//303 282//304 292//305
f 225//251 278//303 336//300
f 336//300 278//303 337//306
f 337//306 278//303 292//305
f 378//307 337//306 292//305
f 282//304 278//303 279//254
f 280//260 279//254 231//257
f 232//259 281//261 231//257
f 282//304 279//254 283//308
f 279//254 280//260 283//308
f 232//259 287//309 281//261
f 283//308 280//260 291//310
f 292//305 282//304 283//308
f 288//301 285//258 276//298
f 285//258 286//311 284//262
f 288//301 286//311 285//258
f 232//259 284//262 287//309
f 286//311 287//309 284//262
f 287//309 286//311 295//312
f 289//313 286//311 288//301
f 290//302 289//313 288//301
f 277//299 335//314 290//302
f 283//308 291//310 293//315
f 280//260 281//261 291//310
f 281//261 287//309 294//316
f 291//310 281//261 294//316
f 292//305 283//308 293//315
f 293//315 291//310 296//317
f 296//317 291//310 294//316
f 293//315 296//317 297//318
f 287//309 295//312 294//316
f 294//316 295//312 296//317
f 289//313 295//312 286//311
f 296//317 295//312 297//318
f 295//312 344//319 297//318
f 289//313 344//319 295//312
f 299//264 234//263 298//268
f 239//198 305//320 298//268
f 237//265 299//264 300//321
f 301//322 299//264 298//268
f 301//322 302//323 299//264
f 300//321 299//264 304//324
f 301//322 298//268 306//325
f 303//271 240//269 300//321
f 236//266 237//265 300//321
f 240//269 236//266 300//321
f 304//324 303//271 300//321
f 298//268 305//320 306//325
f 299//264 302//323 304//324
f 239//198 350//326 305//320
f 239//198 309//267 350//326
f 305//320 350//326 347//327
f 304//324 302//323 348//328
f 306//325 346//329 301//322
f 346//329 302//323 301//322
f 346//329 348//328 302//323
f 349//330 241//206 303//271
f 241//206 349//330 307//272
f 304//324 349//330 303//271
f 245//209 307//272 311//331
f 246//211 312//274 308//270
f 312//274 309//267 308//270
f 312//274 310//332 309//267
f 309//267 310//332 350//326
f 313//333 249//273 245//209
f 245//209 311//331 313//333
f 250//278 249//273 313//333
f 313//333 311//331 314//334
f 314//334 250//278 313//333
f 311//331 352//335 314//334
f 315//275 312//274 194//213
f 250//278 316//336 317//280
f 314//334 316//336 250//278
f 314//334 352//335 316//336
f 315//275 252//276 255//281
f 317//280 316//336 358//337
f 315//275 255//281 319//284
f 312//274 315//275 319//284
f 318//283 355//338 319//284
f 261//225 317//280 322//339
f 358//337 362//340 317//280
f 321//341 318//283 320//285
f 355//338 318//283 321//341
f 323//287 320//285 259//223
f 320//285 323//287 324//342
f 262//289 325//343 330//294
f 261//225 322//339 262//289
f 322//339 325//343 262//289
f 326//344 325//343 322//339
f 362//340 322//339 317//280
f 362//340 326//344 322//339
f 362//340 366//345 326//344
f 324//342 323//287 327//346
f 327//346 323//287 264//286
f 321//341 320//285 364//347
f 364//347 320//285 324//342
f 368//348 364//347 324//342
f 327//346 368//348 324//342
f 325//343 331//349 330//294
f 326//344 331//349 325//343
f 327//346 264//286 328//350
f 328//350 368//348 327//346
f 369//351 368//348 328//350
f 332//352 369//351 328//350
f 329//290 328//350 264//286
f 333//353 270//293 330//294
f 331//349 333//353 330//294
f 329//290 332//352 328//350
f 332//352 329//290 268//295
f 373//245 332//352 268//295
f 331//349 334//354 333//353
f 371//355 334//354 331//349
f 271//243 374//356 373//245
f 271//243 273//252 374//356
f 270//293 333//353 275//297
f 334//354 275//297 333//353
f 334//354 277//299 275//297
f 334//354 335//314 277//299
f 375//357 335//314 334//354
f 375//357 340//358 335//314
f 336//300 376//359 273//252
f 336//300 337//306 376//359
f 338//360 289//313 290//302
f 335//314 339//361 290//302
f 338//360 339//361 345//362
f 290//302 339//361 338//360
f 340//358 339//361 335//314
f 345//362 339//361 383//363
f 379//364 340//358 375//357
f 379//364 339//361 340//358
f 379//364 383//363 339//361
f 378//307 292//305 341//365
f 341//365 292//305 293//315
f 342//366 293//315 297//318
f 341//365 293//315 342//366
f 342//366 297//318 343//367
f 380//368 378//307 341//365
f 380//368 341//365 405//369
f 341//365 342//366 405//369
f 381//370 342//366 343//367
f 405//369 342//366 381//370
f 343//367 297//318 382//371
f 381//370 343//367 382//371
f 338//360 344//319 289//313
f 345//362 344//319 338//360
f 382//371 297//318 344//319
f 382//371 344//319 345//362
f 346//329 306//325 347//327
f 305//320 347//327 306//325
f 346//329 347//327 348//328
f 349//330 304//324 348//328
f 349//330 348//328 385//372
f 347//327 351//373 348//328
f 351//373 347//327 350//326
f 351//373 385//372 348//328
f 310//332 354//374 350//326
f 350//326 354//374 407//375
f 349//330 311//331 307//272
f 311//331 349//330 352//335
f 353//376 349//330 385//372
f 312//274 354//374 310//332
f 358//337 352//335 388//377
f 349//330 353//376 352//335
f 316//336 352//335 358//337
f 352//335 353//376 388//377
f 387//378 354//374 312//274
f 356//379 312//274 319//284
f 355//338 356//379 319//284
f 360//380 356//379 355//338
f 356//379 387//378 312//274
f 357//381 356//379 360//380
f 356//379 357//381 387//378
f 321//341 359//382 355//338
f 321//341 364//347 359//382
f 359//382 360//380 355//338
f 359//382 365//383 361//384
f 359//382 361//384 360//380
f 360//380 361//384 357//381
f 367//385 366//345 362//340
f 362//340 358//337 363//386
f 367//385 391//387 393//388
f 363//386 367//385 362//340
f 363//386 391//387 367//385
f 363//386 358//337 391//387
f 364//347 365//383 359//382
f 364//347 368//348 365//383
f 370//389 365//383 368//348
f 361//384 365//383 392//390
f 326//344 366//345 331//349
f 366//345 371//355 331//349
f 371//355 366//345 367//385
f 393//388 371//355 367//385
f 369//351 370//389 368//348
f 372//391 370//389 369//351
f 372//391 369//351 332//352
f 332//352 373//245 372//391
f 370//389 372//391 394//392
f 370//389 394//392 365//383
f 392//390 365//383 394//392
f 374//356 396//393 373//245
f 374//356 397//394 396//393
f 374//356 273//252 397//394
f 397//394 273//252 420//395
f 375//357 334//354 371//355
f 399//396 375//357 371//355
f 376//359 337//306 377//397
f 377//397 337//306 378//307
f 402//398 378//307 380//368
f 403//399 383//363 379//364
f 379//364 404//400 403//399
f 399//396 379//364 375//357
f 399//396 404//400 379//364
f 383//363 403//399 384//401
f 381//370 382//371 406//402
f 406//402 382//371 384//401
f 405//369 381//370 430//403
f 430//403 381//370 406//402
f 383//363 382//371 345//362
f 383//363 384//401 382//371
f 407//375 408//404 350//326
f 351//373 350//326 408//404
f 408//404 409//405 351//373
f 351//373 409//405 385//372
f 353//376 385//372 386//406
f 354//374 387//378 407//375
f 353//376 390//407 388//377
f 390//407 353//376 386//406
f 389//408 387//378 357//381
f 389//408 407//375 387//378
f 385//372 409//405 386//406
f 413//409 386//406 409//405
f 361//384 389//408 357//381
f 361//384 415//410 389//408
f 388//377 390//407 391//387
f 390//407 386//406 412//411
f 411//412 390//407 412//411
f 390//407 411//412 391//387
f 391//387 358//337 388//377
f 361//384 392//390 415//410
f 411//412 393//388 391//387
f 394//392 415//410 392//390
f 396//393 372//391 373//245
f 396//393 395//413 372//391
f 394//392 372//391 395//413
f 398//414 395//413 396//393
f 394//392 395//413 417//415
f 397//394 398//414 396//393
f 376//359 420//395 273//252
f 399//396 371//355 422//416
f 422//416 371//355 393//388
f 376//359 377//397 400//417
f 377//397 378//307 400//417
f 378//307 402//398 401//418
f 401//418 400//417 378//307
f 401//418 423//419 400//417
f 404//400 429//420 403//399
f 402//398 380//368 405//369
f 402//398 405//369 430//403
f 384//401 403//399 406//402
f 427//421 430//403 406//402
f 406//402 403//399 427//421
f 429//420 427//421 403//399
f 408//404 433//422 409//405
f 416//423 389//408 415//410
f 407//375 410//424 408//404
f 407//375 389//408 416//423
f 407//375 416//423 410//424
f 433//422 408//404 410//424
f 409//405 433//422 435//425
f 413//409 412//411 386//406
f 412//411 414//426 411//412
f 414//426 412//411 413//409
f 409//405 435//425 413//409
f 413//409 436//427 414//426
f 394//392 417//415 415//410
f 416//423 415//410 417//415
f 416//423 418//428 410//424
f 417//415 418//428 416//423
f 419//429 417//415 395//413
f 398//414 419//429 395//413
f 417//415 419//429 438//430
f 438//430 419//429 440//431
f 397//394 420//395 398//414
f 411//412 443//432 393//388
f 420//395 376//359 421//433
f 398//414 420//395 421//433
f 421//433 444//434 398//414
f 400//417 421//433 376//359
f 428//435 399//396 422//416
f 443//432 422//416 393//388
f 422//416 478//436 428//435
f 443//432 457//437 422//416
f 422//416 457//437 478//436
f 424//438 423//419 401//418
f 401//418 402//398 424//438
f 402//398 431//439 424//438
f 400//417 423//419 421//433
f 423//419 424//438 459//440
f 458//441 421//433 423//419
f 458//441 423//419 459//440
f 460//442 459//440 424//438
f 470//443 460//442 424//438
f 470//443 431//439 426//444
f 426//444 431//439 432//445
f 470//443 424//438 431//439
f 429//420 469//446 425//447
f 425//447 471//448 426//444
f 432//445 425//447 426//444
f 469//446 471//448 425//447
f 428//435 404//400 399//396
f 404//400 428//435 429//420
f 427//421 432//445 430//403
f 427//421 425//447 432//445
f 429//420 425//447 427//421
f 478//436 429//420 428//435
f 478//436 469//446 429//420
f 402//398 430//403 431//439
f 430//403 432//445 431//439
f 433//422 410//424 434//449
f 410//424 437//450 434//449
f 433//422 434//449 435//425
f 435//425 436//427 413//409
f 437//450 410//424 418//428
f 434//449 437//450 441//451
f 434//449 439//452 435//425
f 417//415 438//430 418//428
f 438//430 437//450 418//428
f 439//452 434//449 441//451
f 435//425 439//452 436//427
f 411//412 414//426 443//432
f 440//431 419//429 398//414
f 437//450 450//453 441//451
f 441//451 479//454 439//452
f 441//451 450//453 479//454
f 454//455 442//456 456//457
f 436//427 439//452 442//456
f 439//452 456//457 442//456
f 454//455 443//432 442//456
f 442//456 414//426 436//427
f 414//426 442//456 443//432
f 440//431 398//414 444//434
f 445//458 444//434 421//433
f 445//458 421//433 458//441
f 445//458 447//459 444//434
f 447//459 445//458 458//441
f 463//460 447//459 458//441
f 437//450 438//430 440//431
f 437//450 440//431 446//461
f 446//461 440//431 444//434
f 444//434 447//459 446//461
f 461//462 463//460 458//441
f 446//461 447//459 448//463
f 463//460 466//464 447//459
f 437//450 446//461 449//465
f 447//459 466//464 452//466
f 437//450 449//465 450//453
f 446//461 448//463 449//465
f 447//459 452//466 448//463
f 450//453 449//465 451//467
f 452//466 449//465 448//463
f 449//465 452//466 451//467
f 451//467 452//466 481//468
f 453//469 454//455 455//470
f 455//470 454//455 456//457
f 455//470 475//471 453//469
f 456//457 482//472 455//470
f 482//472 477//473 455//470
f 454//455 457//437 443//432
f 453//469 457//437 454//455
f 457//437 453//469 478//436
f 461//462 458//441 459//440
f 464//474 459//440 462//475
f 460//442 462//475 459//440
f 460//442 470//443 465//476
f 461//462 459//440 464//474
f 461//462 464//474 463//460
f 462//475 465//476 464//474
f 460//442 465//476 462//475
f 463//460 464//474 467//477
f 467//477 464//474 465//476
f 468//478 467//477 465//476
f 468//478 474//479 476//480
f 474//479 468//478 465//476
f 466//464 463//460 467//477
f 466//464 467//477 452//466
f 452//466 468//478 481//468
f 468//478 452//466 467//477
f 481//468 468//478 477//473
f 426//444 471//448 470//443
f 472//481 469//446 478//436
f 453//469 472//481 478//436
f 472//481 473//482 469//446
f 474//479 471//448 473//482
f 473//482 471//448 469//446
f 470//443 474//479 465//476
f 471//448 474//479 470//443
f 453//469 475//471 472//481
f 475//471 473//482 472//481
f 474//479 473//482 476//480
f 476//480 475//471 477//473
f 473//482 475//471 476//480
f 475//471 455//470 477//473
f 477//473 468//478 476//480
f 456//457 439//452 479//454
f 479//454 450//453 480//483
f 451//467 480//483 450//453
f 481//468 480//483 451//467
f 480//483 481//468 482//472
f 456//457 479//454 482//472
f 480//483 482//472 479//454
f 482//472 481//468 477//473
