# Blender 4.0.2
# www.blender.org
mtllib jaw_right_second_lower_molar_tooth.mtl
o jaw_right_second_lower_molar_tooth
v 0.057242 -0.025188 0.033447
v 0.053253 -0.029588 0.032604
v 0.054569 -0.028818 0.032761
v 0.053907 -0.028578 0.032797
v 0.055174 -0.027638 0.033049
v 0.054692 -0.027328 0.032875
v 0.054776 -0.026208 0.032686
v 0.056931 -0.027868 0.032606
v 0.055542 -0.026068 0.033160
v 0.056483 -0.026308 0.033340
v 0.058389 -0.027198 0.032690
v 0.058820 -0.027358 0.032635
v 0.059716 -0.028448 0.032788
v 0.060546 -0.028838 0.032678
v 0.055005 -0.024448 0.032545
v 0.057843 -0.026678 0.033069
v 0.058638 -0.026789 0.032837
v 0.055641 -0.024508 0.033055
v 0.056280 -0.025018 0.033394
v 0.058394 -0.025798 0.033252
v 0.059145 -0.025828 0.033101
v 0.059445 -0.025848 0.033049
v 0.059142 -0.026248 0.032906
v 0.059379 -0.026528 0.032811
v 0.059878 -0.026588 0.032884
v 0.057173 -0.023718 0.033437
v 0.056513 -0.023998 0.033345
v 0.061894 -0.026348 0.032582
v 0.056684 -0.022548 0.033033
v 0.057632 -0.022908 0.033311
v 0.057169 -0.022768 0.033245
v 0.058030 -0.023638 0.033409
v 0.060536 -0.025238 0.033013
v 0.056781 -0.022088 0.032816
v 0.057194 -0.022318 0.033049
v 0.057625 -0.021838 0.032734
v 0.058283 -0.022188 0.032947
v 0.059244 -0.022978 0.033069
v 0.060613 -0.024158 0.032985
v 0.061522 -0.024358 0.032703
v 0.050162 -0.031798 0.031806
v 0.050292 -0.031998 0.031719
v 0.050113 -0.031408 0.031917
v 0.050079 -0.030788 0.031843
v 0.050814 -0.030908 0.032221
v 0.050729 -0.031468 0.032117
v 0.050740 -0.031868 0.031932
v 0.051607 -0.031558 0.032116
v 0.051456 -0.031898 0.031856
v 0.050638 -0.030318 0.032033
v 0.050475 -0.030048 0.031716
v 0.052778 -0.031078 0.032164
v 0.052428 -0.030818 0.032385
v 0.053255 -0.030998 0.031936
v 0.057150 -0.032488 0.031739
v 0.052692 -0.029218 0.032475
v 0.053693 -0.029988 0.032409
v 0.057845 -0.031878 0.031930
v 0.057048 -0.031868 0.031652
v 0.058281 -0.032408 0.031752
v 0.052400 -0.028618 0.032116
v 0.058779 -0.031488 0.032108
v 0.059497 -0.031558 0.031892
v 0.055655 -0.029098 0.032095
v 0.058759 -0.030168 0.032411
v 0.058207 -0.030148 0.032192
v 0.053612 -0.027098 0.032118
v 0.056465 -0.028828 0.031838
v 0.057628 -0.028478 0.031943
v 0.056907 -0.028728 0.031767
v 0.057816 -0.029178 0.031873
v 0.057745 -0.028798 0.031871
v 0.060496 -0.030908 0.031723
v 0.057565 -0.027688 0.032447
v 0.060913 -0.030028 0.032061
v 0.058945 -0.028318 0.032524
v 0.060952 -0.029248 0.032451
v 0.061625 -0.028148 0.032454
v 0.061917 -0.028768 0.032005
v 0.062282 -0.028028 0.032021
v 0.055341 -0.022688 0.032163
v 0.062404 -0.026918 0.032234
v 0.056051 -0.022408 0.032639
v 0.056230 -0.021928 0.032287
v 0.057288 -0.021678 0.032527
v 0.056773 -0.021638 0.032338
v 0.056798 -0.021288 0.032048
v 0.062501 -0.024518 0.032195
v 0.062844 -0.025408 0.031980
v 0.058076 -0.021458 0.032497
v 0.058203 -0.021038 0.032267
v 0.058661 -0.020378 0.032241
v 0.058203 -0.020308 0.032148
v 0.058980 -0.021388 0.032435
v 0.061870 -0.022198 0.031922
v 0.057851 -0.019708 0.031870
v 0.058481 -0.019248 0.031816
v 0.058405 -0.019948 0.032132
v 0.059323 -0.020158 0.032161
v 0.059091 -0.019488 0.031958
v 0.059880 -0.019538 0.031860
v 0.049883 -0.031789 0.031620
v 0.050029 -0.032018 0.031527
v 0.049891 -0.032038 0.031287
v 0.049663 -0.031758 0.031285
v 0.049534 -0.031348 0.031255
v 0.049889 -0.032078 0.030842
v 0.050561 -0.032188 0.031517
v 0.050200 -0.032158 0.031408
v 0.050519 -0.032258 0.031256
v 0.050177 -0.032208 0.031144
v 0.051088 -0.032128 0.031611
v 0.050984 -0.032278 0.031176
v 0.054709 -0.034148 0.031305
v 0.054521 -0.034038 0.031220
v 0.054553 -0.034438 0.031050
v 0.054405 -0.034248 0.031108
v 0.054260 -0.034048 0.030938
v 0.054218 -0.034398 0.030827
v 0.054478 -0.034578 0.030823
v 0.055084 -0.034358 0.031254
v 0.055521 -0.034458 0.031147
v 0.055204 -0.034598 0.031029
v 0.054817 -0.034628 0.030929
v 0.055651 -0.034648 0.030792
v 0.049677 -0.030788 0.031303
v 0.049737 -0.031338 0.031620
v 0.051876 -0.031878 0.031624
v 0.051535 -0.032158 0.031158
v 0.052246 -0.031878 0.030937
v 0.055032 -0.033598 0.031425
v 0.054830 -0.033538 0.031232
v 0.054406 -0.033668 0.030789
v 0.055320 -0.033688 0.031509
v 0.055735 -0.034118 0.031347
v 0.056123 -0.034278 0.031064
v 0.050089 -0.029948 0.031020
v 0.053544 -0.031038 0.031498
v 0.056278 -0.032048 0.031285
v 0.051588 -0.028708 0.031525
v 0.054463 -0.030258 0.031706
v 0.054899 -0.030168 0.031334
v 0.054344 -0.030668 0.030809
v 0.054975 -0.030198 0.030746
v 0.059055 -0.032428 0.031392
v 0.058657 -0.032928 0.030947
v 0.056881 -0.031028 0.031254
v 0.059820 -0.031858 0.031412
v 0.059782 -0.032088 0.030902
v 0.055792 -0.029318 0.031622
v 0.055780 -0.029458 0.031127
v 0.056385 -0.029208 0.031134
v 0.056085 -0.029298 0.031035
v 0.057139 -0.029408 0.031364
v 0.056918 -0.029178 0.031347
v 0.057007 -0.029708 0.031130
v 0.056797 -0.029348 0.031061
v 0.057297 -0.030108 0.031466
v 0.057240 -0.029698 0.031403
v 0.056980 -0.030158 0.031067
v 0.060614 -0.031218 0.031068
v 0.052915 -0.026548 0.030996
v 0.056766 -0.028988 0.031516
v 0.057127 -0.029018 0.031549
v 0.057435 -0.029328 0.031606
v 0.053541 -0.025408 0.031059
v 0.061678 -0.029698 0.031451
v 0.054190 -0.024008 0.031392
v 0.062412 -0.028478 0.031588
v 0.062287 -0.028898 0.031317
v 0.054412 -0.023128 0.031011
v 0.062646 -0.027818 0.031693
v 0.062841 -0.027938 0.031125
v 0.062995 -0.027458 0.031122
v 0.062876 -0.027168 0.031584
v 0.063084 -0.026578 0.031176
v 0.055509 -0.021548 0.030963
v 0.062992 -0.026188 0.031595
v 0.063129 -0.025868 0.031480
v 0.063247 -0.025998 0.031136
v 0.056334 -0.021218 0.031762
v 0.063638 -0.024998 0.031070
v 0.056926 -0.020738 0.031798
v 0.056596 -0.020048 0.031268
v 0.063986 -0.023308 0.030890
v 0.057574 -0.018838 0.031263
v 0.062971 -0.022278 0.031478
v 0.063762 -0.022728 0.031079
v 0.058043 -0.018698 0.031383
v 0.060653 -0.019508 0.031581
v 0.058617 -0.018248 0.031182
v 0.059245 -0.018558 0.031406
v 0.060367 -0.018438 0.031104
v 0.054296 -0.034678 0.030171
v 0.049405 -0.031288 0.030664
v 0.049704 -0.031928 0.030755
v 0.049495 -0.031618 0.030669
v 0.049654 -0.031768 0.030227
v 0.049891 -0.032018 0.030243
v 0.049631 -0.031418 0.029963
v 0.050834 -0.032338 0.030663
v 0.050583 -0.032318 0.030550
v 0.050252 -0.032228 0.030340
v 0.050506 -0.032258 0.030107
v 0.051193 -0.032328 0.030562
v 0.050965 -0.032328 0.030297
v 0.053951 -0.034128 0.030397
v 0.054101 -0.033838 0.030397
v 0.053842 -0.034308 0.030061
v 0.053858 -0.034038 0.029959
v 0.054333 -0.034608 0.030601
v 0.054025 -0.034298 0.030583
v 0.054117 -0.034538 0.030385
v 0.053920 -0.034458 0.030073
v 0.054636 -0.034728 0.030594
v 0.055083 -0.034798 0.030608
v 0.055310 -0.034858 0.030281
v 0.054811 -0.034848 0.030043
v 0.055831 -0.034728 0.030170
v 0.049434 -0.030919 0.030569
v 0.049416 -0.031178 0.030325
v 0.049571 -0.030478 0.030226
v 0.049484 -0.030808 0.030105
v 0.049517 -0.031098 0.029988
v 0.051761 -0.032148 0.030195
v 0.056373 -0.034388 0.030515
v 0.056351 -0.034458 0.029960
v 0.049717 -0.030298 0.030663
v 0.050046 -0.029748 0.030038
v 0.055554 -0.032158 0.030450
v 0.050746 -0.029028 0.030728
v 0.058670 -0.032998 0.030448
v 0.051673 -0.027938 0.030496
v 0.056636 -0.030228 0.030347
v 0.055999 -0.029348 0.030649
v 0.056391 -0.029228 0.030563
v 0.056741 -0.029528 0.030709
v 0.056591 -0.029318 0.030536
v 0.056672 -0.029438 0.030341
v 0.056547 -0.029128 0.030034
v 0.052835 -0.026028 0.030286
v 0.061874 -0.029838 0.030598
v 0.053841 -0.023828 0.030593
v 0.062961 -0.027768 0.030587
v 0.063117 -0.026918 0.029964
v 0.063221 -0.026518 0.030547
v 0.063774 -0.025198 0.030660
v 0.063547 -0.025828 0.030259
v 0.063797 -0.025478 0.030095
v 0.064504 -0.023539 0.030130
v 0.056693 -0.018348 0.030177
v 0.057383 -0.018388 0.030822
v 0.058011 -0.018018 0.030848
v 0.057497 -0.017678 0.030206
v 0.058344 -0.017398 0.030390
v 0.061812 -0.019228 0.030742
v 0.063378 -0.020118 0.030286
v 0.064167 -0.021188 0.030343
v 0.064519 -0.021378 0.030078
v 0.059239 -0.017498 0.030578
v 0.059563 -0.017118 0.030151
v 0.060051 -0.017608 0.030546
v 0.060273 -0.017288 0.030148
v 0.060686 -0.017828 0.030523
v 0.061236 -0.018228 0.030531
v 0.062587 -0.019238 0.030072
v 0.053998 -0.034548 0.029866
v 0.054112 -0.034608 0.029554
v 0.050081 -0.031948 0.029870
v 0.050845 -0.032138 0.029730
v 0.053807 -0.034159 0.029539
v 0.053941 -0.033828 0.029525
v 0.053854 -0.034298 0.029386
v 0.054033 -0.033888 0.029099
v 0.053838 -0.034408 0.029638
v 0.054035 -0.034508 0.029295
v 0.054374 -0.034558 0.028977
v 0.055418 -0.034868 0.029834
v 0.055159 -0.034848 0.029420
v 0.054603 -0.034758 0.029300
v 0.055496 -0.034768 0.029287
v 0.056013 -0.034628 0.029614
v 0.049796 -0.030588 0.029566
v 0.049799 -0.031068 0.029639
v 0.050874 -0.031648 0.029157
v 0.051668 -0.032078 0.029770
v 0.054438 -0.033158 0.029786
v 0.054439 -0.033158 0.029218
v 0.049828 -0.030168 0.029715
v 0.050348 -0.029678 0.029246
v 0.050352 -0.030648 0.029043
v 0.053784 -0.031058 0.029374
v 0.055405 -0.032028 0.029109
v 0.058170 -0.033328 0.029161
v 0.051711 -0.027858 0.029770
v 0.055041 -0.030028 0.029546
v 0.052316 -0.026878 0.029417
v 0.055954 -0.029148 0.029565
v 0.056348 -0.029038 0.029593
v 0.055579 -0.029368 0.029300
v 0.056716 -0.029338 0.029478
v 0.056655 -0.029128 0.029485
v 0.060508 -0.031538 0.029167
v 0.052587 -0.026258 0.029195
v 0.061375 -0.030718 0.029638
v 0.053143 -0.024688 0.029365
v 0.062287 -0.029308 0.029814
v 0.062647 -0.028558 0.029452
v 0.063646 -0.025858 0.029390
v 0.064686 -0.023658 0.029595
v 0.056096 -0.018878 0.029904
v 0.056880 -0.017638 0.029526
v 0.064789 -0.022218 0.029846
v 0.057898 -0.017118 0.029837
v 0.064260 -0.020418 0.029900
v 0.064969 -0.021518 0.029480
v 0.064802 -0.020738 0.029474
v 0.058626 -0.016908 0.029880
v 0.062067 -0.018238 0.029835
v 0.063964 -0.019508 0.029487
v 0.061449 -0.017698 0.029864
v 0.054262 -0.034258 0.028794
v 0.054317 -0.033768 0.028727
v 0.054698 -0.034358 0.028533
v 0.054660 -0.034678 0.028971
v 0.055005 -0.034728 0.028983
v 0.054855 -0.034548 0.028659
v 0.055588 -0.034518 0.028643
v 0.055234 -0.034258 0.028257
v 0.050743 -0.031008 0.028836
v 0.054585 -0.033178 0.028775
v 0.055045 -0.033898 0.028153
v 0.056311 -0.034368 0.028962
v 0.056547 -0.033988 0.028301
v 0.050498 -0.030028 0.028888
v 0.051159 -0.030358 0.028355
v 0.053840 -0.030978 0.028968
v 0.053759 -0.030828 0.028462
v 0.058340 -0.033018 0.028424
v 0.054419 -0.030628 0.029004
v 0.054469 -0.030498 0.028511
v 0.051664 -0.028368 0.028530
v 0.055000 -0.030058 0.028521
v 0.056224 -0.030678 0.028747
v 0.052178 -0.027418 0.028562
v 0.056435 -0.029128 0.028710
v 0.056317 -0.029108 0.028552
v 0.056402 -0.029148 0.028379
v 0.056294 -0.029118 0.028285
v 0.056542 -0.029308 0.028640
v 0.056535 -0.029688 0.028460
v 0.056530 -0.029428 0.028251
v 0.056485 -0.029238 0.028305
v 0.061398 -0.030698 0.028902
v 0.061806 -0.030058 0.028382
v 0.052969 -0.025029 0.028310
v 0.061998 -0.029848 0.029034
v 0.062339 -0.029138 0.028349
v 0.053409 -0.023998 0.029107
v 0.063309 -0.026378 0.028551
v 0.063873 -0.025748 0.029054
v 0.064243 -0.025208 0.028814
v 0.055630 -0.018948 0.029123
v 0.056223 -0.018118 0.029219
v 0.055652 -0.018478 0.028511
v 0.056488 -0.017508 0.028584
v 0.065129 -0.022398 0.029085
v 0.065200 -0.020878 0.028761
v 0.057658 -0.016698 0.028900
v 0.057623 -0.016608 0.028522
v 0.058005 -0.016398 0.028551
v 0.058401 -0.016538 0.029214
v 0.058582 -0.016238 0.028597
v 0.064565 -0.019818 0.029194
v 0.064875 -0.019938 0.028848
v 0.059176 -0.016438 0.029235
v 0.059938 -0.016538 0.029224
v 0.059303 -0.016208 0.028575
v 0.060002 -0.016338 0.028561
v 0.061101 -0.017038 0.029241
v 0.061444 -0.016918 0.028581
v 0.062210 -0.017558 0.028905
v 0.064544 -0.019158 0.028555
v 0.055514 -0.033828 0.027928
v 0.055975 -0.033988 0.028014
v 0.055425 -0.032608 0.028014
v 0.056270 -0.032868 0.027369
v 0.052276 -0.030408 0.027770
v 0.052776 -0.030858 0.028087
v 0.057049 -0.032878 0.027271
v 0.057958 -0.032908 0.027768
v 0.051805 -0.028648 0.027890
v 0.052176 -0.029188 0.027426
v 0.052174 -0.027938 0.027569
v 0.055391 -0.029468 0.027487
v 0.052376 -0.027098 0.027833
v 0.055672 -0.029388 0.028206
v 0.056032 -0.029168 0.028224
v 0.056300 -0.029108 0.028026
v 0.056485 -0.029228 0.028019
v 0.056445 -0.029328 0.027394
v 0.061081 -0.030728 0.027991
v 0.062295 -0.028948 0.027750
v 0.061862 -0.029688 0.027657
v 0.062668 -0.028168 0.028339
v 0.062727 -0.027498 0.027869
v 0.054121 -0.022628 0.027914
v 0.062975 -0.026898 0.027491
v 0.063918 -0.025708 0.027406
v 0.055052 -0.019378 0.027922
v 0.055856 -0.017958 0.027912
v 0.055450 -0.018398 0.027568
v 0.056718 -0.017228 0.028162
v 0.057524 -0.016628 0.027506
v 0.057879 -0.016398 0.027636
v 0.065042 -0.019618 0.028142
v 0.058571 -0.016188 0.027929
v 0.059307 -0.016278 0.027948
v 0.060345 -0.016498 0.028233
v 0.060093 -0.016568 0.027891
v 0.061088 -0.016968 0.027919
v 0.060937 -0.017158 0.027577
v 0.061814 -0.017148 0.028216
v 0.062357 -0.017438 0.028225
v 0.062265 -0.017458 0.027950
v 0.061684 -0.017288 0.027885
v 0.061602 -0.017598 0.027521
v 0.062042 -0.017718 0.027501
v 0.062970 -0.017978 0.028299
v 0.062744 -0.017818 0.028344
v 0.062945 -0.017778 0.027921
v 0.062961 -0.017778 0.027564
v 0.063743 -0.018338 0.028256
v 0.063545 -0.018018 0.027581
v 0.064643 -0.018868 0.027926
v 0.064197 -0.018358 0.027566
v 0.053039 -0.029498 0.026990
v 0.052734 -0.028098 0.026607
v 0.054130 -0.029368 0.026559
v 0.054813 -0.029398 0.026650
v 0.056382 -0.030638 0.027271
v 0.056683 -0.030778 0.026679
v 0.055887 -0.029198 0.027112
v 0.056349 -0.029248 0.027068
v 0.056530 -0.029778 0.027277
v 0.056497 -0.029438 0.026984
v 0.056650 -0.029638 0.026524
v 0.052696 -0.025998 0.027218
v 0.060907 -0.030348 0.026907
v 0.053954 -0.023298 0.026643
v 0.055840 -0.017868 0.027120
v 0.065468 -0.023018 0.026943
v 0.057533 -0.016738 0.026925
v 0.065858 -0.021238 0.026973
v 0.065811 -0.022008 0.026971
v 0.058114 -0.016368 0.027275
v 0.058108 -0.016588 0.026938
v 0.058634 -0.016438 0.027302
v 0.060514 -0.017768 0.026879
v 0.061594 -0.018248 0.026980
v 0.061086 -0.018398 0.026821
v 0.065712 -0.020388 0.026930
v 0.064507 -0.018528 0.027247
v 0.064762 -0.018768 0.026869
v 0.064175 -0.018338 0.026942
v 0.064895 -0.018938 0.027263
v 0.065374 -0.019588 0.026901
v 0.057908 -0.030718 0.025820
v 0.055990 -0.028938 0.026147
v 0.056616 -0.029118 0.025873
v 0.057085 -0.030088 0.025977
v 0.059202 -0.030828 0.026047
v 0.052912 -0.026308 0.026153
v 0.052948 -0.027028 0.026050
v 0.060463 -0.030178 0.026140
v 0.052821 -0.026008 0.026493
v 0.061174 -0.029448 0.025899
v 0.053164 -0.024968 0.026379
v 0.053463 -0.024528 0.025939
v 0.053323 -0.025098 0.025753
v 0.061531 -0.029268 0.026231
v 0.061950 -0.028198 0.025783
v 0.062434 -0.027418 0.026069
v 0.063381 -0.026228 0.026261
v 0.054685 -0.019878 0.026278
v 0.055198 -0.018658 0.026598
v 0.054977 -0.019198 0.025817
v 0.065422 -0.022988 0.025766
v 0.056626 -0.017478 0.025823
v 0.058245 -0.018188 0.025924
v 0.058861 -0.018539 0.025927
v 0.058611 -0.018428 0.025807
v 0.058826 -0.018508 0.025779
v 0.059623 -0.019038 0.026199
v 0.059544 -0.019238 0.025786
v 0.059104 -0.018718 0.025758
v 0.059821 -0.018938 0.026294
v 0.060244 -0.019298 0.026111
v 0.060362 -0.019568 0.025980
v 0.059831 -0.019438 0.025891
v 0.060123 -0.019528 0.025920
v 0.060249 -0.019638 0.025900
v 0.060093 -0.019618 0.025800
v 0.060197 -0.019738 0.025787
v 0.060700 -0.019498 0.026054
v 0.060379 -0.019808 0.025892
v 0.060674 -0.019938 0.025887
v 0.060937 -0.020098 0.025733
v 0.061311 -0.019918 0.025726
v 0.056665 -0.017228 0.026627
v 0.057903 -0.017078 0.026476
v 0.057135 -0.017038 0.026409
v 0.057340 -0.017108 0.026158
v 0.057528 -0.017528 0.025829
v 0.058898 -0.018298 0.026208
v 0.059365 -0.017998 0.026508
v 0.061327 -0.019468 0.025956
v 0.065927 -0.021568 0.026451
v 0.065850 -0.021968 0.025740
v 0.062999 -0.018728 0.026115
v 0.063829 -0.019098 0.025758
v 0.065614 -0.019898 0.026257
v 0.065809 -0.020478 0.025930
v 0.065566 -0.019958 0.025901
v 0.063672 -0.018298 0.026614
v 0.064404 -0.018718 0.026270
v 0.064278 -0.018898 0.025994
v 0.064923 -0.019088 0.026252
v 0.065027 -0.019518 0.025807
v 0.065374 -0.019558 0.026252
v 0.058782 -0.030258 0.025522
v 0.053513 -0.026848 0.025375
v 0.053967 -0.027118 0.025148
v 0.054731 -0.027578 0.024981
v 0.055617 -0.028248 0.025170
v 0.056581 -0.028498 0.025038
v 0.057076 -0.028908 0.025078
v 0.058307 -0.029268 0.025019
v 0.053574 -0.025978 0.025248
v 0.054011 -0.026198 0.024892
v 0.053698 -0.024778 0.025305
v 0.054261 -0.024878 0.024743
v 0.061033 -0.028778 0.025291
v 0.061545 -0.028568 0.025490
v 0.061615 -0.027828 0.025129
v 0.054216 -0.023428 0.025541
v 0.054257 -0.023808 0.025155
v 0.054534 -0.023138 0.024912
v 0.062228 -0.027468 0.025582
v 0.062105 -0.027058 0.024861
v 0.062864 -0.026628 0.025524
v 0.054470 -0.021508 0.025673
v 0.055006 -0.019638 0.025117
v 0.055584 -0.018368 0.025574
v 0.060479 -0.020238 0.025585
v 0.060474 -0.020298 0.025447
v 0.060592 -0.020328 0.025467
v 0.060263 -0.020008 0.025430
v 0.060725 -0.020338 0.025410
v 0.060592 -0.020348 0.025342
v 0.060899 -0.020428 0.025265
v 0.060503 -0.020258 0.025126
v 0.060763 -0.020448 0.025131
v 0.060830 -0.020388 0.024892
v 0.061122 -0.020478 0.025034
v 0.057432 -0.017688 0.025279
v 0.057124 -0.017508 0.025250
v 0.056758 -0.017598 0.025048
v 0.057897 -0.018118 0.025591
v 0.057938 -0.018108 0.025148
v 0.057603 -0.017788 0.024910
v 0.058698 -0.018418 0.025635
v 0.058209 -0.018298 0.025602
v 0.059270 -0.018898 0.025665
v 0.059251 -0.018708 0.025329
v 0.059576 -0.019178 0.025173
v 0.060056 -0.019718 0.025590
v 0.059812 -0.019478 0.025543
v 0.060049 -0.019708 0.025452
v 0.060112 -0.019588 0.024940
v 0.061172 -0.020138 0.025579
v 0.061479 -0.020238 0.025453
v 0.061172 -0.020408 0.025253
v 0.061603 -0.020498 0.025228
v 0.062220 -0.020408 0.024920
v 0.062403 -0.020388 0.024921
v 0.062694 -0.020468 0.024919
v 0.062910 -0.020598 0.024910
v 0.063224 -0.020678 0.024916
v 0.063803 -0.020968 0.024910
v 0.065740 -0.021998 0.024907
v 0.057177 -0.017418 0.025628
v 0.058956 -0.018268 0.025003
v 0.062063 -0.019628 0.025650
v 0.062816 -0.019588 0.025418
v 0.062406 -0.020138 0.025188
v 0.062855 -0.020289 0.025112
v 0.063868 -0.020358 0.025270
v 0.063205 -0.020528 0.025063
v 0.063563 -0.020728 0.025005
v 0.063996 -0.020888 0.024998
v 0.064464 -0.019728 0.025548
v 0.064987 -0.020098 0.025339
v 0.065584 -0.020538 0.025265
v 0.054744 -0.026578 0.024588
v 0.056616 -0.028018 0.024546
v 0.056888 -0.027488 0.024216
v 0.055039 -0.025658 0.024365
v 0.056316 -0.026368 0.024003
v 0.058313 -0.027568 0.024174
v 0.059913 -0.028278 0.024678
v 0.059787 -0.027408 0.024057
v 0.060743 -0.027648 0.024591
v 0.054934 -0.023868 0.024403
v 0.060777 -0.026789 0.023891
v 0.061623 -0.027068 0.024461
v 0.063426 -0.025488 0.024176
v 0.064130 -0.024718 0.024511
v 0.055731 -0.018858 0.024198
v 0.056048 -0.018268 0.024486
v 0.060540 -0.020178 0.024583
v 0.057445 -0.017598 0.024643
v 0.057159 -0.017538 0.024293
v 0.059662 -0.018978 0.024555
v 0.059938 -0.019388 0.024824
v 0.060031 -0.019478 0.024683
v 0.060067 -0.019638 0.024303
v 0.059851 -0.019208 0.024262
v 0.060223 -0.019888 0.024142
v 0.060361 -0.020028 0.024798
v 0.060891 -0.020218 0.024456
v 0.061046 -0.020158 0.024121
v 0.061557 -0.020568 0.024792
v 0.061459 -0.020398 0.024263
v 0.061696 -0.020358 0.024137
v 0.062220 -0.020418 0.024771
v 0.062395 -0.020418 0.024802
v 0.062718 -0.020508 0.024751
v 0.062424 -0.020308 0.024456
v 0.062978 -0.020678 0.024791
v 0.063189 -0.020738 0.024803
v 0.063090 -0.020718 0.024690
v 0.063251 -0.020878 0.024593
v 0.063543 -0.021038 0.024599
v 0.063022 -0.020628 0.024572
v 0.063178 -0.020778 0.024452
v 0.063461 -0.020998 0.024447
v 0.063563 -0.020928 0.024152
v 0.063907 -0.021078 0.024770
v 0.063750 -0.021138 0.024442
v 0.064516 -0.021268 0.024245
v 0.065464 -0.022498 0.024590
v 0.065448 -0.022038 0.024336
v 0.065347 -0.022398 0.024176
v 0.065296 -0.022108 0.024085
v 0.058682 -0.018028 0.024629
v 0.059267 -0.018348 0.024524
v 0.059379 -0.018408 0.024273
v 0.064667 -0.020928 0.024766
v 0.065265 -0.021218 0.024499
v 0.065103 -0.021528 0.024218
v 0.065602 -0.021148 0.024907
v 0.065675 -0.021818 0.024612
v 0.058381 -0.025898 0.023391
v 0.056589 -0.024948 0.023726
v 0.059572 -0.026488 0.023504
v 0.062368 -0.026218 0.023851
v 0.062035 -0.026218 0.023624
v 0.055383 -0.021628 0.023229
v 0.055934 -0.022458 0.023085
v 0.062705 -0.025408 0.023086
v 0.055117 -0.021128 0.023730
v 0.055355 -0.020948 0.023285
v 0.055600 -0.020498 0.023195
v 0.063323 -0.025068 0.023259
v 0.055377 -0.019828 0.023926
v 0.063968 -0.024398 0.023277
v 0.055711 -0.019258 0.023811
v 0.064581 -0.023378 0.023169
v 0.056320 -0.018768 0.023491
v 0.056954 -0.018368 0.023211
v 0.056915 -0.017698 0.024031
v 0.056627 -0.018038 0.023843
v 0.057300 -0.017848 0.023401
v 0.059233 -0.019178 0.023197
v 0.059095 -0.018868 0.023203
v 0.059994 -0.019708 0.023916
v 0.059671 -0.019388 0.023701
v 0.059711 -0.019598 0.023462
v 0.060689 -0.020128 0.023872
v 0.061190 -0.020158 0.023326
v 0.061682 -0.020138 0.023202
v 0.063654 -0.020778 0.023175
v 0.064220 -0.021288 0.023741
v 0.064151 -0.021238 0.023162
v 0.065057 -0.021838 0.023920
v 0.064680 -0.021478 0.023930
v 0.064932 -0.021888 0.023594
v 0.064463 -0.021458 0.023604
v 0.064781 -0.021828 0.023130
v 0.065027 -0.022218 0.023474
v 0.057874 -0.017568 0.023944
v 0.057546 -0.017578 0.023564
v 0.057862 -0.017528 0.023551
v 0.057759 -0.017718 0.023302
v 0.059126 -0.018008 0.023884
v 0.058844 -0.017718 0.023886
v 0.058853 -0.017728 0.023623
v 0.059104 -0.018268 0.023531
v 0.058527 -0.017588 0.023550
v 0.058767 -0.017919 0.023293
v 0.058446 -0.017758 0.023205
v 0.062419 -0.020068 0.023775
v 0.062861 -0.020128 0.023870
v 0.062937 -0.020028 0.023471
v 0.063172 -0.020328 0.023877
v 0.063265 -0.020178 0.023169
v 0.058518 -0.023738 0.022263
v 0.061239 -0.025358 0.022605
v 0.061935 -0.025308 0.022679
v 0.055714 -0.021018 0.022899
v 0.055820 -0.021578 0.022858
v 0.056917 -0.022128 0.022404
v 0.057323 -0.021758 0.022171
v 0.056745 -0.021238 0.022316
v 0.062650 -0.024758 0.022443
v 0.056276 -0.020468 0.022677
v 0.056555 -0.020728 0.022426
v 0.063824 -0.024098 0.022693
v 0.063269 -0.024358 0.022446
v 0.056991 -0.019868 0.022469
v 0.064232 -0.023228 0.022393
v 0.057116 -0.018888 0.022792
v 0.057598 -0.018758 0.022634
v 0.058245 -0.019098 0.022452
v 0.058807 -0.019328 0.022467
v 0.059907 -0.019948 0.022639
v 0.059871 -0.020028 0.022511
v 0.059621 -0.019738 0.022524
v 0.059691 -0.020158 0.022317
v 0.059427 -0.019988 0.022303
v 0.060263 -0.020098 0.023009
v 0.060149 -0.020168 0.022623
v 0.060492 -0.020268 0.022633
v 0.060067 -0.020338 0.022381
v 0.064533 -0.022778 0.022505
v 0.057455 -0.018268 0.022958
v 0.057898 -0.018128 0.022908
v 0.058832 -0.018518 0.022996
v 0.058180 -0.018298 0.022770
v 0.058500 -0.018438 0.022770
v 0.058637 -0.019088 0.022535
v 0.059219 -0.019228 0.022978
v 0.059111 -0.019078 0.022969
v 0.058992 -0.019008 0.022845
v 0.059115 -0.019248 0.022743
v 0.059690 -0.019628 0.022856
v 0.061671 -0.020118 0.022643
v 0.061143 -0.020178 0.022568
v 0.061278 -0.020289 0.022222
v 0.064822 -0.022138 0.022799
v 0.064449 -0.021408 0.022845
v 0.064677 -0.021648 0.022505
v 0.064449 -0.021328 0.022522
v 0.062144 -0.019958 0.022865
v 0.062644 -0.019898 0.022873
v 0.062983 -0.019938 0.022563
v 0.062585 -0.019948 0.022319
v 0.062972 -0.020018 0.022277
v 0.063240 -0.020178 0.022508
v 0.063622 -0.020678 0.022447
v 0.060572 -0.024848 0.022175
v 0.060329 -0.024198 0.021825
v 0.060033 -0.023238 0.021567
v 0.060839 -0.023448 0.021469
v 0.061583 -0.023978 0.021687
v 0.061812 -0.024578 0.022076
v 0.057334 -0.020698 0.022172
v 0.058627 -0.021718 0.021907
v 0.061042 -0.023028 0.021375
v 0.060923 -0.022468 0.021425
v 0.061958 -0.023278 0.021446
v 0.062806 -0.023748 0.021830
v 0.058812 -0.020768 0.022035
v 0.059822 -0.020978 0.021972
v 0.060708 -0.021378 0.021699
v 0.062715 -0.022728 0.021447
v 0.062304 -0.022558 0.021375
v 0.063317 -0.023088 0.021755
v 0.063941 -0.023228 0.022147
v 0.059528 -0.020518 0.022123
v 0.059924 -0.020618 0.022141
v 0.060358 -0.020568 0.022184
v 0.060328 -0.020838 0.021991
v 0.061407 -0.020628 0.021877
v 0.064475 -0.022328 0.022186
v 0.064123 -0.022178 0.021889
v 0.061727 -0.020228 0.022199
v 0.062468 -0.020658 0.021737
v 0.063109 -0.020468 0.021865
v 0.063057 -0.020908 0.021667
v 0.064139 -0.021108 0.022176
v 0.064173 -0.021498 0.021865
v 0.064100 -0.021318 0.021859
v 0.063935 -0.021638 0.021710
v 0.063762 -0.021148 0.021726
v 0.063492 -0.021478 0.021589
v 0.064530 -0.021918 0.022161
v 0.064470 -0.021518 0.022169
v 0.062440 -0.020158 0.022020
v 0.062763 -0.020298 0.021897
v 0.063427 -0.020578 0.021991
v 0.054218 -0.034398 0.030827
v 0.056385 -0.029208 0.031134
v 0.056797 -0.029348 0.031061
v 0.056655 -0.029128 0.029485
v 0.057177 -0.017418 0.025628
v 0.065675 -0.021818 0.024612
vn -0.2337 0.0364 0.9716
vn 0.0351 -0.0615 0.9975
vn -0.0842 0.1094 0.9904
vn 0.1087 0.0891 0.9901
vn 0.2007 -0.0494 0.9784
vn -0.3117 0.1752 0.9339
vn -0.0470 -0.1591 0.9862
vn -0.2215 0.0122 0.9751
vn 0.2911 -0.4533 0.8425
vn 0.1766 -0.3956 0.9013
vn -0.4097 0.1510 0.8996
vn -0.1170 -0.1166 0.9863
vn 0.3974 -0.6681 0.6291
vn -0.4172 0.0603 0.9068
vn -0.6120 0.1959 0.7663
vn -0.1850 -0.1321 0.9738
vn 0.1694 -0.1966 0.9657
vn -0.1063 -0.0888 0.9904
vn -0.3649 -0.0679 0.9286
vn -0.0079 -0.1695 0.9855
vn 0.1610 -0.3829 0.9097
vn 0.3128 -0.5917 0.7429
vn 0.0431 -0.4579 0.8879
vn 0.1936 -0.5703 0.7983
vn -0.1074 -0.2563 0.9606
vn -0.0548 -0.1338 0.9895
vn -0.5061 0.1774 0.8440
vn -0.6756 0.2135 0.7057
vn -0.7664 0.2717 0.5821
vn -0.7884 0.3061 0.5335
vn 0.1409 -0.1933 0.9710
vn 0.1718 -0.3355 0.9263
vn 0.1265 -0.3491 0.9285
vn 0.1764 -0.3321 0.9266
vn -0.0723 -0.2312 0.9702
vn 0.3744 -0.3369 0.8639
vn 0.4297 -0.2045 0.8795
vn 0.3983 -0.0526 0.9158
vn -0.3038 0.1667 0.9380
vn 0.0949 -0.2558 0.9621
vn -0.3444 0.3519 0.8704
vn -0.1483 0.3050 0.9407
vn -0.2843 0.5924 0.7538
vn -0.0953 0.4879 0.8677
vn -0.5299 0.4592 0.7130
vn 0.0395 0.2809 0.9589
vn 0.2223 0.2819 0.9333
vn 0.2656 0.1366 0.9544
vn 0.3872 0.1306 0.9127
vn -0.1129 0.7128 0.6922
vn -0.0690 0.6023 0.7953
vn 0.1010 0.4361 0.8942
vn -0.0751 0.5424 0.8368
vn 0.3654 0.2947 0.8829
vn 0.5307 0.0969 0.8420
vn 0.1214 0.3192 0.9399
vn -0.6602 -0.4237 0.6202
vn -0.4877 -0.1231 0.8643
vn -0.7774 -0.0228 0.6286
vn -0.4026 -0.4354 0.8052
vn -0.4924 -0.7095 0.5042
vn -0.2642 -0.6928 0.6710
vn -0.0905 -0.6024 0.7930
vn -0.3033 -0.8904 0.3394
vn -0.0755 -0.8935 0.4427
vn 0.1166 -0.8772 0.4657
vn 0.1868 -0.7616 0.6206
vn -0.6258 0.2653 0.7335
vn -0.2699 0.0041 0.9629
vn -0.8398 0.3486 0.4162
vn -0.1840 -0.2818 0.9417
vn 0.0917 -0.5092 0.8558
vn 0.0682 -0.3074 0.9491
vn 0.3190 -0.6082 0.7269
vn 0.3700 -0.8430 0.3905
vn -0.4644 0.3324 0.8209
vn -0.4866 0.3965 0.7785
vn -0.6254 0.5249 0.5773
vn -0.6178 0.5650 0.5469
vn -0.7380 0.5768 0.3503
vn 0.4581 -0.6923 0.5576
vn 0.1781 -0.4882 0.8544
vn -0.1150 -0.0680 0.9910
vn -0.1256 -0.1149 0.9854
vn 0.4874 -0.6730 0.5563
vn 0.5056 -0.8165 0.2787
vn -0.4149 0.1628 0.8952
vn 0.5841 -0.7597 0.2860
vn -0.1669 -0.1894 0.9676
vn 0.4986 -0.7843 0.3692
vn -0.4765 0.0101 0.8791
vn 0.0784 -0.3334 0.9395
vn 0.3465 -0.4924 0.7985
vn -0.5709 0.4106 0.7110
vn 0.3330 -0.7542 0.5659
vn -0.6983 0.0826 0.7110
vn -0.5423 -0.0289 0.8397
vn -0.5380 -0.1532 0.8289
vn 0.1299 -0.6629 0.7374
vn -0.1428 -0.4359 0.8886
vn -0.2719 -0.4975 0.8237
vn -0.0308 -0.7814 0.6233
vn -0.4001 -0.2020 0.8939
vn 0.5862 -0.5607 0.5848
vn 0.5299 -0.4762 0.7018
vn -0.7103 0.4661 0.5275
vn 0.6351 -0.4022 0.6594
vn 0.7282 -0.5465 0.4135
vn 0.6311 -0.1284 0.7650
vn 0.6583 -0.2813 0.6982
vn 0.7906 -0.4182 0.4473
vn 0.8219 -0.4959 0.2802
vn 0.8116 -0.2751 0.5155
vn 0.8675 -0.1621 0.4703
vn -0.6797 0.4388 0.5878
vn 0.6765 -0.0525 0.7346
vn -0.5172 0.6111 0.5992
vn 0.8657 -0.1494 0.4778
vn 0.8378 -0.2072 0.5051
vn -0.3068 0.5455 0.7799
vn -0.5699 0.4833 0.6645
vn -0.3661 0.3894 0.8452
vn -0.3090 0.6492 0.6950
vn -0.1638 0.3228 0.9322
vn -0.2596 0.1784 0.9491
vn -0.1528 0.2940 0.9435
vn -0.3566 0.3642 0.8603
vn -0.0617 0.1893 0.9800
vn 0.4445 0.2751 0.8525
vn -0.2622 0.5342 0.8036
vn -0.1272 0.4761 0.8701
vn 0.0587 0.4146 0.9081
vn 0.1438 0.2415 0.9597
vn 0.2266 0.3692 0.9013
vn 0.0751 0.5518 0.8306
vn 0.3831 0.3660 0.8481
vn -0.9368 -0.0439 0.3471
vn -0.9933 -0.0872 0.0756
vn -0.9160 -0.4012 -0.0057
vn -0.6172 -0.7469 0.2472
vn -0.8422 -0.4370 0.3157
vn -0.7414 -0.6710 -0.0010
vn -0.5371 -0.8435 0.0032
vn -0.3259 -0.9396 0.1047
vn 0.0981 -0.9739 0.2045
vn -0.1035 -0.9775 0.1840
vn -0.0261 -0.9987 0.0434
vn -0.1550 -0.9877 -0.0219
vn 0.1845 -0.9828 0.0043
vn 0.3141 -0.9278 0.2012
vn 0.3415 -0.9358 -0.0874
vn -0.6022 0.1204 0.7892
vn -0.6105 -0.2914 0.7365
vn -0.2989 -0.2873 0.9100
vn -0.0667 -0.5458 0.8352
vn -0.7973 0.2216 0.5615
vn -0.3363 -0.6459 0.6854
vn -0.6257 0.4891 0.6077
vn -0.5685 -0.6726 0.4737
vn -0.3802 -0.7949 0.4729
vn -0.8018 -0.0911 0.5907
vn -0.7256 0.5481 0.4160
vn -0.8679 -0.2294 0.4405
vn 0.1767 -0.7042 0.6877
vn 0.1472 -0.4805 0.8646
vn 0.3688 -0.7380 0.5652
vn 0.0213 -0.8143 0.5801
vn 0.2822 -0.8836 0.3737
vn -0.1676 -0.8247 0.5402
vn -0.2519 -0.9324 0.2592
vn -0.0205 -0.9567 0.2902
vn 0.4720 -0.8520 0.2265
vn -0.9672 0.2310 0.1052
vn -0.8417 0.5047 0.1917
vn 0.4513 -0.8837 0.1244
vn -0.4263 0.2368 0.8731
vn -0.5814 0.4556 0.6741
vn -0.7175 0.6427 0.2686
vn -0.7216 0.2829 0.6319
vn -0.7427 0.5752 0.3428
vn 0.5549 -0.8267 0.0929
vn -0.7737 0.5980 0.2092
vn 0.6408 -0.7673 0.0268
vn 0.6017 -0.7949 -0.0780
vn -0.8549 0.0854 0.5117
vn -0.9198 0.2656 0.2889
vn 0.4568 -0.6980 0.5514
vn 0.5163 -0.8033 0.2968
vn 0.6345 -0.7541 0.1693
vn 0.5726 -0.8179 0.0569
vn 0.5856 -0.7962 0.1520
vn 0.4588 -0.8865 -0.0597
vn 0.5686 -0.6684 0.4795
vn 0.1999 -0.9244 0.3250
vn 0.3512 -0.9326 0.0829
vn -0.0530 -0.9936 -0.1002
vn -0.7252 -0.0523 0.6865
vn -0.7936 -0.1413 0.5918
vn -0.6169 -0.2934 0.7303
vn -0.3891 -0.6335 0.6688
vn -0.6249 -0.5472 0.5568
vn -0.9082 -0.3441 0.2385
vn -0.9682 -0.2500 0.0083
vn -0.3367 -0.9404 0.0479
vn -0.3169 -0.9480 0.0299
vn 0.7102 -0.6488 0.2733
vn 0.7572 -0.6492 0.0725
vn -0.8654 0.4158 0.2796
vn 0.8106 -0.5587 0.1756
vn -0.8439 0.4417 0.3043
vn -0.8020 0.4971 0.3311
vn 0.9027 -0.3668 0.2250
vn 0.8761 -0.4790 0.0552
vn 0.9517 -0.3062 0.0221
vn 0.9458 -0.2237 0.2352
vn 0.9486 -0.1623 0.2716
vn 0.9478 -0.2911 0.1302
vn -0.7819 0.4601 0.4206
vn 0.8887 -0.3010 0.3458
vn 0.8809 -0.3410 0.3283
vn 0.8269 -0.1945 0.5276
vn 0.7491 -0.0193 0.6621
vn 0.8700 -0.1588 0.4667
vn -0.5943 0.4093 0.6923
vn -0.4417 0.4798 0.7581
vn 0.6336 0.1254 0.7634
vn -0.2933 0.6295 0.7195
vn -0.0883 0.6026 0.7932
vn -0.4853 0.5490 0.6804
vn -0.2076 0.7061 0.6770
vn 0.0245 0.6816 0.7313
vn 0.1827 0.6532 0.7348
vn 0.2768 0.5253 0.8046
vn 0.4725 0.5246 0.7082
vn 0.5528 0.3856 0.7387
vn -0.5656 -0.8238 0.0387
vn -0.3915 -0.9153 0.0941
vn -0.6226 -0.7372 0.2625
vn -0.4580 -0.8837 -0.0969
vn -0.1765 -0.9836 0.0366
vn -0.9779 -0.1045 -0.1813
vn -0.7653 -0.3446 -0.5436
vn -0.8802 -0.1166 -0.4600
vn -0.7893 -0.5197 -0.3270
vn -0.3588 -0.9197 -0.1597
vn -0.5740 -0.7737 -0.2682
vn -0.5009 -0.6452 -0.5769
vn -0.6824 -0.2348 -0.6922
vn 0.0419 -0.9831 -0.1785
vn -0.2216 -0.9226 -0.3158
vn -0.0944 -0.8551 -0.5099
vn -0.7975 0.5199 0.3060
vn -0.9120 0.2151 0.3493
vn -0.9279 0.3418 0.1489
vn -0.9649 -0.1705 0.1997
vn -0.7663 0.6275 0.1381
vn -0.7565 -0.6259 0.1898
vn -0.8696 -0.4893 -0.0660
vn -0.9839 0.1197 -0.1326
vn -0.4644 -0.8310 0.3062
vn 0.1054 -0.9846 0.1396
vn 0.1686 -0.9851 -0.0340
vn 0.3743 -0.9223 0.0963
vn 0.4990 -0.8665 0.0135
vn 0.4179 -0.9029 -0.1006
vn -0.9102 0.4109 -0.0527
vn -0.9498 0.1754 -0.2590
vn 0.4969 -0.8667 -0.0434
vn 0.2050 -0.9077 -0.3662
vn -0.7914 0.6087 -0.0559
vn -0.7805 0.4601 -0.4233
vn -0.8428 0.4059 -0.3534
vn 0.5476 -0.8285 -0.1170
vn -0.8191 0.5678 -0.0818
vn -0.8289 0.5568 -0.0534
vn 0.6373 -0.7701 -0.0276
vn 0.6411 -0.7620 -0.0916
vn 0.0069 -0.9985 -0.0544
vn 0.4193 -0.9035 -0.0884
vn -0.4481 -0.8749 -0.1836
vn -0.6754 -0.7373 -0.0172
vn -0.9415 -0.3338 0.0469
vn -0.9189 0.3691 0.1395
vn -0.9240 0.3747 0.0766
vn 0.9323 -0.3602 -0.0328
vn 0.9536 -0.2576 -0.1561
vn 0.9581 -0.2818 -0.0513
vn -0.9165 0.3369 0.2157
vn 0.8865 -0.4505 0.1062
vn 0.8552 -0.4734 0.2109
vn 0.7155 -0.6786 0.1663
vn -0.8400 0.3984 0.3684
vn -0.7386 0.4437 0.5075
vn 0.8467 -0.0022 0.5320
vn 0.9175 -0.2808 0.2816
vn -0.6202 0.5412 0.5678
vn 0.5729 0.3000 0.7628
vn -0.4631 0.6619 0.5894
vn 0.3976 0.4619 0.7928
vn 0.7338 0.1855 0.6535
vn -0.3866 0.7483 0.5390
vn 0.6290 0.5280 0.5707
vn 0.5167 0.5116 0.6865
vn 0.5902 0.3999 0.7013
vn -0.1294 0.7948 0.5929
vn 0.0954 0.7662 0.6355
vn 0.3464 0.6298 0.6952
vn 0.2790 0.7426 0.6089
vn 0.4812 0.6636 0.5729
vn -0.6264 -0.6885 -0.3656
vn -0.2574 -0.9502 -0.1757
vn -0.5081 -0.3557 -0.7844
vn -0.2789 -0.6337 -0.7216
vn 0.0462 -0.7748 -0.6305
vn -0.8947 -0.2288 -0.3836
vn -0.8742 0.4790 -0.0789
vn -0.8637 0.2478 -0.4389
vn -0.6799 -0.2889 -0.6740
vn -0.4697 -0.7437 -0.4757
vn -0.2542 -0.8859 -0.3880
vn 0.0105 -0.9863 -0.1644
vn 0.2396 -0.9417 -0.2363
vn -0.0146 -0.9332 -0.3589
vn 0.1812 -0.8701 -0.4583
vn 0.4196 -0.8731 -0.2483
vn -0.7970 0.0774 -0.5990
vn -0.6477 -0.1290 -0.7509
vn 0.3176 -0.8519 -0.4164
vn -0.7937 0.5888 -0.1530
vn -0.7170 0.1205 -0.6866
vn -0.8119 0.2382 -0.5330
vn 0.4347 -0.8750 -0.2131
vn 0.6825 -0.7257 -0.0870
vn 0.7427 -0.6686 -0.0378
vn -0.8129 0.5096 -0.2820
vn -0.8990 0.4121 -0.1483
vn -0.9055 0.4239 0.0196
vn -0.8880 0.4579 -0.0416
vn -0.2747 -0.9613 0.0208
vn 0.3465 -0.9381 0.0002
vn -0.0729 -0.9950 0.0683
vn 0.5980 -0.8000 -0.0484
vn -0.5544 -0.8234 0.1207
vn -0.9944 -0.0812 0.0673
vn -0.9439 -0.3006 0.1369
vn -0.9357 0.3505 0.0388
vn 0.7369 -0.6689 -0.0975
vn -0.8805 0.4649 0.0930
vn -0.9329 0.3593 -0.0237
vn 0.8532 -0.5214 -0.0129
vn 0.8998 -0.4180 -0.1253
vn 0.9345 -0.3283 -0.1374
vn 0.8186 -0.5733 0.0348
vn 0.7673 -0.6276 0.1317
vn 0.8782 -0.4655 0.1102
vn -0.7146 0.5847 0.3842
vn -0.5904 0.6740 0.4441
vn 0.9361 -0.1039 0.3359
vn -0.6604 0.7065 0.2543
vn 0.8822 0.0893 0.4624
vn 0.7911 0.2731 0.5474
vn 0.6669 0.4700 0.5782
vn 0.4843 0.5926 0.6436
vn -0.2398 0.8600 0.4505
vn 0.0121 0.8882 0.4592
vn 0.2353 0.8694 0.4345
vn 0.4084 0.7927 0.4526
vn 0.6190 0.6686 0.4121
vn 0.4476 0.8847 0.1300
vn -0.7410 0.1743 -0.6485
vn -0.1744 -0.7961 -0.5795
vn -0.4989 -0.1743 -0.8489
vn -0.4285 -0.5114 -0.7449
vn -0.7661 0.2522 -0.5912
vn -0.1411 -0.6475 -0.7489
vn -0.3751 -0.2831 -0.8827
vn -0.2293 -0.4120 -0.8819
vn 0.1266 -0.6973 -0.7055
vn -0.2930 -0.5140 -0.8062
vn -0.7674 0.4993 -0.4022
vn 0.3739 -0.8009 -0.4677
vn -0.6432 -0.1335 -0.7540
vn -0.5552 -0.1925 -0.8091
vn 0.5339 -0.7871 -0.3090
vn 0.4160 -0.7488 -0.5160
vn 0.5223 -0.8094 -0.2684
vn 0.1899 -0.8446 -0.5006
vn 0.4693 -0.8528 -0.2291
vn -0.9369 0.1984 -0.2879
vn -0.9871 0.1479 0.0621
vn -0.9969 0.0196 -0.0756
vn 0.6509 -0.7037 -0.2851
vn -0.5107 -0.8574 0.0632
vn -0.8766 -0.4800 0.0359
vn -0.0270 -0.9996 -0.0085
vn -0.8345 -0.5472 0.0652
vn -0.9930 -0.1132 0.0332
vn 0.7994 -0.5766 -0.1688
vn 0.7882 -0.5465 -0.2831
vn -0.9164 0.3543 -0.1861
vn 0.8426 -0.5330 -0.0773
vn 0.8179 -0.5735 -0.0456
vn -0.8123 0.5108 0.2815
vn 0.9142 -0.4008 0.0591
vn 0.9666 -0.1978 0.1629
vn -0.4893 0.7973 0.3534
vn -0.6112 0.7845 0.1049
vn -0.5474 0.8231 0.1513
vn 0.9143 0.1654 0.3698
vn 0.8167 0.3738 0.4396
vn -0.3712 0.9062 0.2026
vn -0.1596 0.9613 0.2246
vn -0.4212 0.9054 -0.0527
vn 0.6455 0.6018 0.4703
vn 0.8510 0.4130 0.3244
vn 0.0944 0.9869 0.1308
vn -0.0636 0.9906 -0.1208
vn 0.2736 0.9587 0.0772
vn 0.2060 0.9312 -0.3007
vn 0.3435 0.9053 -0.2498
vn 0.4157 0.8696 -0.2664
vn 0.6236 0.6656 0.4100
vn 0.5301 0.8451 0.0687
vn 0.4789 0.7330 0.4830
vn 0.4647 0.7667 0.4430
vn 0.7004 0.6392 0.3175
vn 0.1172 -0.6345 -0.7640
vn -0.3892 -0.4358 -0.8116
vn -0.0885 -0.6957 -0.7129
vn -0.7424 -0.1122 -0.6605
vn -0.2160 -0.4918 -0.8435
vn -0.7739 -0.1165 -0.6225
vn -0.9055 0.2332 -0.3544
vn -0.9572 0.2806 -0.0706
vn -0.1783 -0.9831 0.0405
vn 0.1511 -0.9794 -0.1341
vn -0.5244 -0.8504 -0.0430
vn -0.9251 -0.3709 0.0820
vn -0.9539 0.2835 -0.0984
vn 0.6062 -0.6899 -0.3957
vn 0.8914 -0.3863 -0.2372
vn 0.7927 -0.4255 -0.4365
vn -0.9236 0.3559 -0.1424
vn 0.8399 -0.4875 -0.2385
vn 0.7893 -0.5977 -0.1409
vn -0.8381 0.5284 0.1358
vn -0.7331 0.6582 0.1713
vn -0.7014 0.7128 -0.0047
vn -0.5328 0.8450 -0.0465
vn -0.5553 0.8222 -0.1250
vn 0.9758 0.0727 0.2065
vn -0.1342 0.9251 -0.3552
vn 0.2228 0.8079 -0.5455
vn 0.3078 0.8145 -0.4918
vn 0.3591 0.7959 -0.4875
vn 0.3299 0.6838 -0.6509
vn 0.3300 0.7606 -0.5591
vn 0.2967 0.8813 -0.3678
vn 0.2516 0.6453 -0.7213
vn 0.0756 0.7719 -0.6312
vn 0.4973 0.8465 0.1899
vn 0.3322 0.9278 -0.1697
vn 0.4332 0.8974 0.0835
vn 0.5344 0.8247 0.1854
vn 0.4324 0.8799 -0.1969
vn 0.7892 0.5988 0.1364
vn -0.4889 -0.3221 -0.8107
vn -0.9140 -0.2590 -0.3124
vn -0.6639 -0.4119 -0.6242
vn 0.2957 -0.6467 -0.7031
vn -0.8917 -0.4486 -0.0609
vn -0.1456 -0.9108 -0.3863
vn -0.6208 -0.6575 -0.4271
vn -0.9369 0.2125 -0.2776
vn -0.8785 0.0907 -0.4691
vn 0.7483 -0.5391 -0.3866
vn -0.9653 0.1660 -0.2015
vn -0.8963 0.2839 -0.3407
vn 0.8085 -0.5552 -0.1950
vn -0.9609 0.2733 -0.0444
vn -0.8537 0.5207 -0.0087
vn -0.7391 0.6418 -0.2043
vn 0.9830 -0.1521 -0.1030
vn 0.9993 -0.0365 0.0027
vn -0.3258 0.8923 -0.3125
vn -0.2869 0.8843 -0.3682
vn 0.2621 0.3493 -0.8996
vn 0.2631 0.6627 -0.7012
vn 0.2961 0.4902 -0.8198
vn 0.1393 0.4340 -0.8901
vn 0.0474 0.7481 -0.6619
vn 0.2231 0.4957 -0.8393
vn -0.0481 0.6740 -0.7372
vn -0.0042 0.4727 -0.8812
vn -0.0920 0.7046 -0.7037
vn 0.9438 0.2661 0.1958
vn 0.9618 0.2293 -0.1495
vn 0.8594 0.4923 0.1384
vn 0.1419 0.8512 -0.5052
vn 0.6232 0.7798 0.0598
vn 0.6786 0.7263 -0.1092
vn 0.3922 0.7909 -0.4697
vn 0.1096 -0.5191 -0.8477
vn -0.8166 -0.0718 -0.5727
vn -0.6554 -0.1869 -0.7318
vn -0.2468 -0.6904 -0.6801
vn -0.4009 -0.5814 -0.7080
vn -0.0458 -0.4645 -0.8844
vn 0.4486 -0.6665 -0.5954
vn 0.3764 -0.4954 -0.7829
vn -0.8646 0.2244 -0.4496
vn -0.7288 0.0314 -0.6840
vn 0.5506 -0.6036 -0.5766
vn -0.8614 0.4023 -0.3100
vn -0.7631 0.2486 -0.5966
vn -0.7884 0.2682 -0.5537
vn -0.8816 0.0685 -0.4670
vn 0.7555 -0.5173 -0.4021
vn 0.7354 -0.6238 -0.2647
vn 0.7010 -0.6474 -0.2993
vn -0.8872 0.4231 -0.1842
vn 0.8824 -0.4589 -0.1037
vn -0.4564 0.8506 -0.2609
vn 0.6207 0.7538 -0.2158
vn 0.4869 0.6731 -0.5567
vn 0.3819 0.9238 -0.0293
vn 0.5521 0.6499 -0.5223
vn 0.3986 0.5059 -0.7650
vn 0.5397 0.7880 -0.2962
vn 0.4218 0.5678 -0.7069
vn 0.4637 0.8641 0.1955
vn 0.3972 0.9169 -0.0382
vn 0.6695 0.7379 0.0850
vn 0.2619 0.9233 0.2809
vn 0.4881 0.7475 -0.4505
vn 0.7078 0.6845 -0.1745
vn 0.7787 0.6043 0.1687
vn 0.1427 0.5175 -0.8437
vn 0.2986 0.6262 -0.7202
vn 0.2119 0.4298 -0.8777
vn 0.4325 0.4801 -0.7631
vn 0.6140 0.5547 -0.5615
vn 0.3650 0.4791 -0.7983
vn 0.4112 0.7373 -0.5360
vn 0.4662 0.6972 -0.5446
vn 0.7100 0.6751 -0.2005
vn 0.0194 0.5207 -0.8535
vn -0.1934 0.4953 -0.8469
vn -0.1791 0.6770 -0.7138
vn -0.2482 0.5172 -0.8191
vn 0.0690 0.8429 -0.5336
vn -0.2123 0.9250 -0.3151
vn -0.2484 0.5642 -0.7874
vn 0.8588 0.2662 -0.4377
vn 0.0803 0.5717 -0.8165
vn -0.0871 0.5309 -0.8430
vn 0.8909 0.4529 -0.0353
vn 0.7618 0.5371 -0.3621
vn 0.7498 0.6310 -0.1990
vn 0.6032 0.7080 -0.3673
vn 0.2185 0.6692 -0.7102
vn 0.4328 0.6283 -0.6465
vn -0.3413 -0.4490 -0.8258
vn -0.3831 -0.6940 -0.6096
vn -0.5376 -0.0846 -0.8389
vn -0.3752 -0.2216 -0.9001
vn -0.2498 -0.5248 -0.8137
vn -0.1829 -0.3912 -0.9019
vn 0.2207 -0.5081 -0.8325
vn -0.3872 -0.0432 -0.9210
vn 0.1685 -0.5290 -0.8318
vn -0.5767 0.1040 -0.8103
vn 0.3081 -0.5430 -0.7812
vn 0.6330 -0.4598 -0.6228
vn -0.6445 -0.0724 -0.7611
vn 0.5507 -0.4950 -0.6721
vn -0.9163 0.1147 -0.3838
vn 0.6004 -0.6427 -0.4760
vn 0.3612 -0.6750 -0.6433
vn -0.9042 0.3239 -0.2784
vn -0.7758 0.5022 -0.3820
vn 0.8076 0.5896 0.0105
vn 0.7670 0.6281 0.1309
vn 0.8031 0.5883 0.0941
vn 0.0728 0.9203 -0.3845
vn 0.5897 0.7973 -0.1292
vn -0.0412 0.8865 -0.4610
vn -0.1651 0.7249 -0.6687
vn 0.3395 0.9381 -0.0689
vn -0.0022 0.9110 -0.4123
vn 0.0196 0.8605 -0.5091
vn 0.6591 0.7366 0.1515
vn 0.3245 0.9443 0.0543
vn 0.1423 0.9871 -0.0738
vn 0.7908 0.6094 0.0576
vn 0.3377 0.9007 0.2735
vn 0.0057 0.9968 0.0803
vn -0.4161 0.8968 -0.1505
vn 0.4898 0.7814 -0.3866
vn 0.6097 0.7892 -0.0733
vn 0.1394 0.9831 -0.1184
vn 0.3542 0.9247 0.1393
vn 0.5993 0.7737 0.2055
vn 0.4218 0.8742 0.2404
vn 0.4879 0.8217 0.2944
vn 0.3092 0.8777 0.3660
vn 0.6908 0.7212 0.0516
vn 0.7460 0.6285 0.2200
vn 0.7972 0.5431 0.2635
vn 0.8102 0.5585 0.1778
vn 0.7056 0.6592 0.2599
vn 0.7181 0.6769 0.1617
vn 0.8568 0.4934 -0.1497
vn -0.1477 0.6277 -0.7643
vn -0.1106 0.8520 -0.5116
vn -0.1455 0.6054 -0.7825
vn -0.2004 0.9231 -0.3283
vn -0.1276 0.9856 0.1112
vn 0.0737 0.8662 -0.4942
vn 0.2966 0.8158 -0.4965
vn 0.1106 0.9934 0.0303
vn 0.1466 0.5059 -0.8500
vn 0.3855 0.7567 -0.5281
vn 0.4108 0.9024 0.1298
vn 0.2053 0.5590 -0.8033
vn 0.2414 0.7689 -0.5921
vn 0.2547 0.6202 -0.7419
vn 0.4320 0.8974 -0.0893
vn 0.3086 0.8526 -0.4217
vn 0.5593 0.8289 0.0102
vn -0.0366 0.6290 -0.7766
vn 0.2259 0.7170 -0.6594
vn 0.4101 0.8649 -0.2893
vn 0.0606 0.8884 -0.4550
vn 0.8933 -0.3704 -0.2547
vn 0.9690 -0.1645 -0.1841
vn 0.9538 -0.0663 -0.2930
vn 0.0748 0.4261 -0.9016
vn 0.1430 0.5774 -0.8038
vn -0.0983 0.7161 -0.6910
vn 0.4334 0.5248 -0.7327
vn 0.0872 0.4726 -0.8769
vn 0.7000 0.4598 -0.5463
vn -0.2811 -0.2193 -0.9343
vn -0.2280 -0.3936 -0.8905
vn -0.0681 -0.4576 -0.8865
vn -0.0282 -0.5345 -0.8447
vn -0.3871 -0.2289 -0.8932
vn 0.1828 -0.6460 -0.7411
vn 0.4795 -0.7166 -0.5065
vn -0.7558 -0.1088 -0.6457
vn 0.5921 -0.6500 -0.4764
vn 0.7403 -0.5662 -0.3624
vn -0.8499 0.3221 -0.4171
vn -0.6895 0.6631 -0.2914
vn 0.4817 0.8611 0.1626
vn 0.6636 0.7450 -0.0680
vn 0.2571 0.9239 0.2834
vn 0.2187 0.9758 -0.0041
vn 0.1830 0.9452 0.2702
vn 0.8368 -0.4283 -0.3411
vn 0.1621 0.9644 0.2089
vn -0.1716 0.9819 -0.0798
vn -0.5005 0.8102 -0.3050
vn 0.8522 0.5007 -0.1520
vn 0.8371 0.5468 -0.0162
vn 0.7822 0.4707 -0.4081
vn 0.8055 0.3755 -0.4584
vn 0.7370 0.6322 -0.2390
vn 0.2434 0.9561 0.1629
vn 0.4970 0.8450 -0.1974
vn -0.1227 0.9564 0.2651
vn 0.0190 0.9426 0.3333
vn 0.0439 0.9974 0.0576
vn -0.0918 0.9619 0.2576
vn 0.2953 0.8930 0.3395
vn 0.6305 0.7076 0.3190
vn 0.5613 0.8158 -0.1396
vn 0.6757 0.6584 0.3317
vn 0.5208 0.8252 0.2185
vn 0.3245 0.9453 -0.0329
vn 0.6386 0.7224 0.2652
vn 0.6318 0.7027 0.3270
vn 0.1876 0.8935 -0.4081
vn 0.4468 0.8917 -0.0725
vn 0.5340 0.5117 -0.6731
vn 0.7117 0.5196 -0.4729
vn 0.8274 0.0624 -0.5581
vn 0.5196 0.7578 -0.3946
vn 0.5983 0.7797 -0.1846
vn 0.9059 -0.1790 -0.3838
vn 0.8501 0.1913 -0.4906
vn 0.7737 0.5535 -0.3082
vn 0.8277 0.5483 0.1200
vn 0.8099 0.5797 -0.0892
vn 0.4627 0.8616 0.2085
vn 0.6421 0.3064 -0.7028
vn -0.3541 -0.3396 -0.8714
vn -0.0628 -0.5550 -0.8294
vn 0.0802 -0.6432 -0.7615
vn -0.5253 -0.3043 -0.7947
vn 0.2854 -0.7181 -0.6347
vn 0.1961 -0.6552 -0.7295
vn 0.4106 -0.6765 -0.6114
vn -0.6855 0.3217 -0.6532
vn -0.7416 0.4224 -0.5211
vn -0.8153 0.1553 -0.5577
vn -0.6161 0.1041 -0.7808
vn -0.6332 0.4590 -0.6232
vn -0.6155 0.6351 -0.4667
vn -0.5378 0.5035 -0.6762
vn -0.4729 0.3824 -0.7938
vn 0.9244 0.0606 -0.3765
vn 0.9530 -0.0154 -0.3027
vn -0.4481 0.6559 -0.6074
vn -0.2883 0.8663 -0.4080
vn -0.3603 0.5270 -0.7698
vn -0.1830 0.7227 -0.6665
vn 0.2310 0.7195 -0.6549
vn -0.1499 0.5816 -0.7996
vn 0.8143 0.3567 -0.4579
vn 0.6849 0.3833 -0.6197
vn 0.6803 0.6990 -0.2204
vn 0.7872 0.5107 -0.3456
vn 0.7052 0.6639 -0.2489
vn 0.6266 0.7453 -0.2278
vn 0.8010 0.4841 -0.3523
vn 0.0469 0.9320 -0.3594
vn -0.1253 0.9710 -0.2035
vn -0.1460 0.9797 0.1377
vn -0.1819 0.9754 -0.1242
vn 0.6322 0.7687 0.0964
vn 0.8442 0.5261 -0.1029
vn 0.7588 0.6414 0.1129
vn 0.6724 0.7126 0.2001
vn 0.7241 0.6887 -0.0376
vn 0.7115 0.7017 -0.0385
vn -0.0174 0.9625 -0.2707
vn 0.2552 0.9489 -0.1858
vn 0.6276 0.7303 -0.2699
vn 0.6159 0.5198 -0.5920
vn 0.3700 0.4356 -0.8206
vn 0.0442 0.4912 -0.8699
vn 0.3260 0.9205 0.2154
vn 0.6948 0.7106 0.1111
vn -0.5526 -0.1573 -0.8185
vn -0.4093 -0.2617 -0.8741
vn 0.3102 -0.5952 -0.7413
vn 0.1460 -0.5530 -0.8203
vn -0.5426 0.2961 -0.7861
vn -0.3798 -0.0407 -0.9242
vn -0.4334 0.1481 -0.8890
vn -0.2850 -0.1070 -0.9525
vn -0.2035 0.1392 -0.9691
vn 0.3003 -0.4332 -0.8498
vn 0.4592 -0.5572 -0.6919
vn -0.3644 0.2838 -0.8869
vn 0.6341 -0.5386 -0.5548
vn 0.5173 -0.3931 -0.7602
vn 0.6863 -0.4300 -0.5866
vn 0.8312 -0.3109 -0.4610
vn -0.2345 0.3695 -0.8991
vn 0.0158 0.3154 -0.9488
vn -0.0344 0.2002 -0.9791
vn 0.3368 0.4246 -0.8404
vn 0.3079 0.4908 -0.8151
vn 0.4966 0.6140 -0.6135
vn 0.5465 0.6477 -0.5309
vn 0.2444 0.4078 -0.8798
vn 0.6217 0.6526 -0.4331
vn 0.5194 0.5596 -0.6459
vn 0.4429 0.7631 -0.4706
vn 0.2921 0.6485 -0.7029
vn 0.3346 0.4497 -0.8282
vn 0.0912 0.4909 -0.8664
vn 0.0963 0.3432 -0.9343
vn -0.0623 0.6947 -0.7166
vn -0.1092 0.4842 -0.8681
vn 0.7330 -0.2183 -0.6443
vn 0.6494 0.4691 -0.5985
vn -0.2155 0.9764 0.0126
vn -0.0450 0.9337 -0.3552
vn -0.1999 0.8468 -0.4930
vn -0.1629 0.8164 -0.5540
vn 0.6582 0.6960 -0.2870
vn 0.7890 0.3649 -0.4942
vn 0.7818 -0.0253 -0.6230
vn 0.9081 0.3456 -0.2363
vn 0.0191 0.9983 0.0552
vn 0.3870 0.9168 -0.0990
vn 0.7181 0.6811 -0.1427
vn 0.5877 0.6670 -0.4580
vn 0.3647 0.8234 -0.4349
vn -0.0900 0.7195 -0.6886
vn 0.0892 0.5975 -0.7969
vn 0.2985 0.5568 -0.7752
vn -0.1712 -0.4242 -0.8892
vn -0.1492 0.0985 -0.9839
vn -0.2384 -0.1595 -0.9580
vn -0.0831 -0.2799 -0.9564
vn 0.0808 -0.4404 -0.8942
vn -0.0707 -0.0658 -0.9953
vn 0.1146 -0.2702 -0.9560
vn -0.1198 0.2897 -0.9496
vn -0.1082 0.1291 -0.9857
vn 0.0585 0.0203 -0.9981
vn 0.2309 -0.1632 -0.9592
vn 0.3768 -0.3048 -0.8747
vn -0.0598 0.3419 -0.9378
vn -0.1506 0.5126 -0.8453
vn -0.0485 0.3435 -0.9379
vn 0.4980 -0.1799 -0.8483
vn 0.0875 0.2872 -0.9539
vn 0.1835 0.1122 -0.9766
vn 0.4168 -0.0027 -0.9090
vn 0.3966 0.3937 -0.8293
vn 0.5925 0.4030 -0.6975
vn 0.6118 0.1136 -0.7828
s 1
usemtl mtl1.300
f 19//1 1//2 26//3
f 1//2 32//4 26//3
f 1//2 33//5 32//4
f 56//6 2//7 4//8
f 57//9 3//10 2//7
f 4//8 6//11 56//6
f 2//7 3//10 5//12
f 2//7 5//12 4//8
f 57//9 64//13 3//10
f 4//8 5//12 6//11
f 6//11 9//14 7//15
f 65//16 14//17 13//18
f 76//19 65//16 13//18
f 9//14 5//12 19//1
f 9//14 6//11 5//12
f 3//10 10//20 5//12
f 3//10 16//21 10//20
f 16//21 3//10 8//22
f 11//23 16//21 74//24
f 16//21 8//22 74//24
f 12//25 76//19 25//26
f 76//19 13//18 25//26
f 13//18 14//17 25//26
f 18//27 7//15 9//14
f 18//27 9//14 19//1
f 7//15 18//27 15//28
f 7//15 15//28 166//29
f 15//28 168//30 166//29
f 5//12 10//20 19//1
f 10//20 1//2 19//1
f 10//20 20//31 1//2
f 10//20 16//21 20//31
f 11//23 12//25 17//32
f 11//23 17//32 16//21
f 16//21 23//33 21//34
f 16//21 17//32 23//33
f 17//32 12//25 23//33
f 12//25 24//35 23//33
f 12//25 25//26 24//35
f 14//17 33//5 25//26
f 77//36 78//37 14//17
f 14//17 28//38 33//5
f 14//17 78//37 28//38
f 19//1 26//3 27//39
f 19//1 27//39 18//27
f 1//2 20//31 33//5
f 20//31 16//21 21//34
f 21//34 33//5 20//31
f 21//34 22//40 33//5
f 21//34 23//33 22//40
f 24//35 22//40 23//33
f 22//40 24//35 25//26
f 22//40 25//26 33//5
f 18//27 27//39 29//41
f 27//39 26//3 31//42
f 27//39 31//42 29//41
f 34//43 29//41 35//44
f 18//27 29//41 83//45
f 29//41 34//43 83//45
f 30//46 26//3 32//4
f 31//42 26//3 30//46
f 35//44 31//42 30//46
f 29//41 31//42 35//44
f 30//46 32//4 38//47
f 33//5 39//48 32//4
f 33//5 40//49 39//48
f 33//5 28//38 40//49
f 85//50 34//43 36//51
f 35//44 30//46 37//52
f 35//44 36//51 34//43
f 36//51 35//44 37//52
f 90//53 36//51 37//52
f 30//46 38//47 37//52
f 32//4 39//48 38//47
f 40//49 95//54 39//48
f 38//47 39//48 95//54
f 28//38 88//55 40//49
f 37//52 38//47 94//56
f 102//57 43//58 127//59
f 41//60 43//58 102//57
f 103//61 41//60 102//57
f 42//62 47//63 41//60
f 41//60 103//61 42//62
f 103//61 109//64 42//62
f 108//65 112//66 47//63
f 112//66 49//67 47//63
f 44//68 43//58 45//69
f 43//58 44//68 127//59
f 44//68 126//70 127//59
f 43//58 46//71 45//69
f 46//71 41//60 47//63
f 46//71 47//63 48//72
f 45//69 46//71 53//73
f 46//71 48//72 53//73
f 43//58 41//60 46//71
f 49//67 48//72 47//63
f 48//72 52//74 53//73
f 48//72 49//67 52//74
f 49//67 128//75 52//74
f 45//69 56//6 50//76
f 61//77 51//78 50//76
f 61//77 50//76 56//6
f 61//77 140//79 51//78
f 44//68 50//76 51//78
f 45//69 50//76 44//68
f 51//78 126//70 44//68
f 51//78 137//80 126//70
f 45//69 53//73 2//7
f 54//81 52//74 128//75
f 60//82 55//83 134//84
f 2//7 53//73 57//9
f 53//73 52//74 57//9
f 52//74 54//81 57//9
f 141//85 57//9 54//81
f 128//75 138//86 54//81
f 134//84 55//83 59//87
f 45//69 2//7 56//6
f 141//85 54//81 142//88
f 59//87 55//83 58//89
f 55//83 60//82 58//89
f 141//85 64//13 57//9
f 141//85 142//88 64//13
f 150//90 64//13 142//88
f 65//16 66//91 58//89
f 58//89 62//92 65//16
f 59//87 58//89 66//91
f 58//89 60//82 62//92
f 62//92 60//82 63//93
f 61//77 67//94 140//79
f 56//6 6//11 61//77
f 150//90 68//95 64//13
f 158//96 59//87 66//91
f 66//91 71//97 158//96
f 71//97 165//98 158//96
f 62//92 14//17 65//16
f 14//17 62//92 63//93
f 67//94 61//77 6//11
f 3//10 64//13 8//22
f 64//13 68//95 8//22
f 74//24 8//22 70//99
f 69//100 70//99 164//101
f 68//95 70//99 8//22
f 68//95 163//102 70//99
f 72//103 165//98 71//97
f 76//19 66//91 65//16
f 63//93 73//104 75//105
f 7//15 162//106 67//94
f 6//11 7//15 67//94
f 74//24 69//100 11//23
f 74//24 70//99 69//100
f 71//97 66//91 76//19
f 72//103 76//19 12//25
f 71//97 76//19 72//103
f 63//93 77//36 14//17
f 77//36 63//93 75//105
f 79//107 77//36 75//105
f 79//107 75//105 167//108
f 75//105 73//104 167//108
f 69//100 12//25 11//23
f 12//25 69//100 72//103
f 78//37 77//36 79//107
f 78//37 82//109 28//38
f 78//37 80//110 82//109
f 78//37 79//107 80//110
f 80//110 79//107 169//111
f 167//108 169//111 79//107
f 167//108 170//112 169//111
f 172//113 80//110 169//111
f 82//109 80//110 172//113
f 175//114 82//109 172//113
f 18//27 83//45 81//115
f 15//28 18//27 81//115
f 168//30 15//28 81//115
f 89//116 28//38 82//109
f 89//116 82//109 175//114
f 84//117 83//45 34//43
f 83//45 84//117 81//115
f 28//38 89//116 88//55
f 175//114 178//118 89//116
f 179//119 89//116 178//118
f 87//120 181//121 84//117
f 181//121 87//120 183//122
f 86//123 34//43 85//50
f 85//50 36//51 87//120
f 36//51 90//53 87//120
f 84//117 34//43 86//123
f 86//123 85//50 87//120
f 86//123 87//120 84//117
f 88//55 95//54 40//49
f 87//120 90//53 91//124
f 91//124 183//122 87//120
f 37//52 94//56 90//53
f 94//56 91//124 90//53
f 183//122 91//124 93//125
f 98//126 96//127 93//125
f 183//122 93//125 96//127
f 91//124 94//56 93//125
f 94//56 92//128 93//125
f 93//125 92//128 98//126
f 38//47 95//54 94//56
f 187//129 95//54 88//55
f 189//130 96//127 97//131
f 97//131 96//127 98//126
f 98//126 100//132 97//131
f 92//128 99//133 98//126
f 98//126 99//133 100//132
f 92//128 94//56 99//133
f 94//56 95//54 99//133
f 100//132 99//133 101//134
f 99//133 95//54 101//134
f 100//132 192//135 97//131
f 100//132 101//134 192//135
f 190//136 101//134 95//54
f 106//137 195//138 197//139
f 103//61 102//57 104//140
f 104//140 102//57 105//141
f 102//57 127//59 105//141
f 105//141 127//59 106//137
f 196//142 104//140 105//141
f 106//137 197//139 105//141
f 196//142 107//143 104//140
f 107//143 111//144 104//140
f 197//139 196//142 105//141
f 108//65 42//62 109//64
f 108//65 47//63 42//62
f 113//145 112//66 108//65
f 110//146 108//65 109//64
f 109//64 103//61 104//140
f 111//144 109//64 104//140
f 111//144 110//146 109//64
f 110//146 113//145 108//65
f 113//145 110//146 201//147
f 111//144 202//148 110//146
f 110//146 202//148 201//147
f 113//145 201//147 205//149
f 112//66 113//145 129//150
f 205//149 129//150 113//145
f 129//150 205//149 225//151
f 115//152 117//153 114//154
f 114//154 121//155 134//84
f 115//152 118//156 117//153
f 116//157 121//155 114//154
f 115//152 132//158 118//156
f 119//159 120//160 116//157
f 117//153 119//159 116//157
f 118//156 813//161 117//153
f 114//154 117//153 116//157
f 133//162 118//156 132//158
f 813//161 118//156 212//163
f 122//164 135//165 121//155
f 122//164 136//166 135//165
f 123//167 122//164 121//155
f 122//164 125//168 136//166
f 124//169 116//157 120//160
f 121//155 116//157 124//169
f 123//167 121//155 124//169
f 125//168 122//164 123//167
f 215//170 124//169 120//160
f 216//171 123//167 124//169
f 123//167 216//171 125//168
f 226//172 136//166 125//168
f 195//138 106//137 220//173
f 220//173 106//137 126//70
f 228//174 220//173 126//70
f 126//70 106//137 127//59
f 49//67 112//66 128//75
f 112//66 129//150 128//75
f 129//150 130//175 128//75
f 225//151 130//175 129//150
f 114//154 131//176 115//152
f 131//176 132//158 115//152
f 134//84 131//176 114//154
f 132//158 131//176 139//177
f 135//165 60//82 134//84
f 121//155 135//165 134//84
f 135//165 136//166 60//82
f 228//174 137//80 231//178
f 137//80 51//78 231//178
f 51//78 140//79 231//178
f 130//175 138//86 128//75
f 139//177 147//179 230//180
f 59//87 131//176 134//84
f 142//88 54//81 138//86
f 143//181 138//86 130//175
f 140//79 233//182 231//178
f 143//181 142//88 138//86
f 144//183 142//88 143//181
f 340//184 144//183 143//181
f 131//176 59//87 139//177
f 139//177 59//87 147//179
f 147//179 160//185 234//186
f 60//82 136//166 145//187
f 136//166 146//188 145//187
f 145//187 146//188 149//189
f 136//166 226//172 146//188
f 232//190 149//189 146//188
f 233//182 140//79 162//106
f 150//90 142//88 151//191
f 142//88 144//183 235//192
f 235//192 151//191 142//88
f 158//96 147//179 59//87
f 160//185 147//179 158//96
f 63//93 60//82 145//187
f 148//193 63//93 145//187
f 63//93 148//193 73//104
f 149//189 148//193 145//187
f 67//94 162//106 140//79
f 68//95 150//90 152//194
f 153//195 152//194 150//90
f 153//195 150//90 151//191
f 152//194 153//195 235//192
f 235//192 153//195 151//191
f 235//192 236//196 152//194
f 158//96 159//197 156//198
f 156//198 159//197 154//199
f 164//101 155//200 154//199
f 158//96 156//198 160//185
f 156//198 154//199 157//201
f 155//200 163//102 157//201
f 157//201 154//199 155//200
f 237//202 156//198 157//201
f 163//102 152//194 157//201
f 160//185 156//198 237//202
f 160//185 237//202 239//203
f 236//196 815//204 814//205
f 159//197 158//96 165//98
f 159//197 165//98 154//199
f 148//193 161//206 73//104
f 148//193 149//189 161//206
f 164//101 154//199 165//98
f 72//103 164//101 165//98
f 163//102 164//101 70//99
f 69//100 164//101 72//103
f 152//194 163//102 68//95
f 155//200 164//101 163//102
f 149//189 305//207 161//206
f 7//15 166//29 162//106
f 241//208 162//106 166//29
f 73//104 161//206 167//108
f 242//209 170//112 167//108
f 242//209 167//108 161//206
f 168//30 241//208 166//29
f 168//30 243//210 241//208
f 243//210 168//30 171//211
f 169//111 170//112 173//212
f 242//209 173//212 170//112
f 307//213 244//214 173//212
f 171//211 168//30 81//115
f 172//113 169//111 173//212
f 173//212 175//114 172//113
f 174//215 175//114 173//212
f 244//214 174//215 173//212
f 176//216 178//118 175//114
f 174//215 176//216 175//114
f 246//217 176//216 174//215
f 84//117 177//218 81//115
f 81//115 177//218 171//211
f 176//216 179//119 178//118
f 180//219 179//119 176//216
f 246//217 180//219 176//216
f 247//220 180//219 246//217
f 84//117 181//121 177//218
f 89//116 182//221 185//222
f 179//119 182//221 89//116
f 182//221 179//119 180//219
f 182//221 250//223 185//222
f 247//220 182//221 180//219
f 247//220 250//223 182//221
f 183//122 184//224 181//121
f 183//122 96//127 184//224
f 184//224 177//218 181//121
f 88//55 89//116 185//222
f 184//224 96//127 186//225
f 188//226 187//129 88//55
f 88//55 185//222 188//226
f 186//225 189//130 253//227
f 186//225 96//127 189//130
f 191//228 253//227 189//130
f 252//229 184//224 186//225
f 186//225 253//227 252//229
f 192//135 191//228 97//131
f 189//130 97//131 191//228
f 255//230 253//227 191//228
f 260//231 191//228 192//135
f 260//231 192//135 262//232
f 193//233 262//232 192//135
f 101//134 190//136 193//233
f 192//135 101//134 193//233
f 265//234 193//233 190//136
f 256//235 190//136 95//54
f 265//234 190//136 256//235
f 267//236 194//237 213//238
f 267//236 268//239 194//237
f 268//239 218//240 194//237
f 195//138 221//241 197//139
f 221//241 195//138 220//173
f 200//242 221//241 224//243
f 197//139 198//244 196//142
f 107//143 203//245 111//144
f 197//139 221//241 198//244
f 196//142 199//246 107//143
f 196//142 198//244 199//246
f 107//143 199//246 203//245
f 198//244 269//247 199//246
f 203//245 199//246 269//247
f 200//242 269//247 198//244
f 198//244 221//241 200//242
f 224//243 284//248 200//242
f 111//144 203//245 202//148
f 206//249 201//147 202//148
f 203//245 204//250 202//148
f 204//250 206//249 202//148
f 204//250 270//251 206//249
f 204//250 203//245 269//247
f 269//247 270//251 204//250
f 205//149 201//147 206//249
f 205//149 206//249 225//151
f 118//156 208//252 207//253
f 210//254 207//253 208//252
f 209//255 207//253 210//254
f 210//254 208//252 287//256
f 214//257 209//255 275//258
f 209//255 271//259 275//258
f 209//255 210//254 271//259
f 119//159 211//260 120//160
f 215//170 120//160 211//260
f 207//253 212//163 118//156
f 118//156 133//162 208//252
f 119//159 213//238 211//260
f 212//163 213//238 119//159
f 194//237 211//260 213//238
f 214//257 213//238 212//163
f 194//237 215//170 211//260
f 209//255 212//163 207//253
f 214//257 212//163 209//255
f 213//238 214//257 267//236
f 267//236 214//257 275//258
f 216//171 124//169 215//170
f 215//170 218//240 216//171
f 217//261 216//171 218//240
f 194//237 218//240 215//170
f 217//261 218//240 278//262
f 216//171 217//261 125//168
f 219//263 125//168 217//261
f 219//263 226//172 125//168
f 219//263 227//264 226//172
f 278//262 219//263 217//261
f 282//265 219//263 278//262
f 227//264 219//263 282//265
f 228//174 126//70 137//80
f 222//266 220//173 228//174
f 223//267 221//241 220//173
f 223//267 220//173 222//266
f 223//267 224//243 221//241
f 292//268 130//175 225//151
f 286//269 225//151 206//249
f 286//269 206//249 270//251
f 287//256 208//252 133//162
f 228//174 231//178 229//270
f 228//174 229//270 222//266
f 143//181 130//175 292//268
f 132//158 139//177 230//180
f 133//162 132//158 230//180
f 229//270 290//271 289//272
f 147//179 234//186 230//180
f 226//172 227//264 232//190
f 294//273 232//190 227//264
f 231//178 233//182 229//270
f 290//271 229//270 295//274
f 230//180 234//186 293//275
f 232//190 146//188 226//172
f 295//274 229//270 233//182
f 295//274 233//182 241//208
f 300//276 235//192 144//183
f 234//186 160//185 239//203
f 303//277 149//189 232//190
f 233//182 162//106 241//208
f 299//278 236//196 235//192
f 235//192 300//276 298//279
f 299//278 240//280 236//196
f 236//196 238//281 815//204
f 238//281 237//202 157//201
f 237//202 238//281 239//203
f 240//280 238//281 236//196
f 240//280 302//282 238//281
f 302//282 239//203 238//281
f 306//283 241//208 243//210
f 161//206 305//207 242//209
f 307//213 242//209 305//207
f 307//213 173//212 242//209
f 243//210 171//211 407//284
f 244//214 308//285 405//286
f 246//217 174//215 244//214
f 245//287 246//217 244//214
f 405//286 245//287 244//214
f 407//284 171//211 177//218
f 407//284 177//218 410//288
f 246//217 248//289 247//220
f 248//289 246//217 245//287
f 248//289 249//290 247//220
f 309//291 249//290 248//289
f 177//218 363//292 410//288
f 311//293 363//292 177//218
f 184//224 311//293 177//218
f 185//222 250//223 313//294
f 310//295 250//223 247//220
f 252//229 251//296 184//224
f 187//129 188//226 258//297
f 252//229 254//298 251//296
f 252//229 253//227 254//298
f 257//299 95//54 187//129
f 187//129 258//297 257//299
f 188//226 259//300 258//297
f 188//226 185//222 259//300
f 253//227 255//230 254//298
f 255//230 314//301 254//298
f 255//230 191//228 260//231
f 319//302 265//234 256//235
f 256//235 95//54 266//303
f 95//54 257//299 266//303
f 258//297 315//304 257//299
f 258//297 259//300 315//304
f 255//230 260//231 318//305
f 318//305 260//231 261//306
f 193//233 264//307 262//232
f 261//306 260//231 262//232
f 263//308 261//306 262//232
f 264//307 263//308 262//232
f 264//307 193//233 265//234
f 321//309 264//307 265//234
f 264//307 321//309 263//308
f 265//234 319//302 321//309
f 319//302 256//235 266//303
f 267//236 275//258 268//239
f 276//310 268//239 275//258
f 268//239 276//310 280//311
f 330//312 269//247 200//242
f 285//313 270//251 269//247
f 285//313 389//314 270//251
f 275//258 271//259 273//315
f 271//259 210//254 272//316
f 272//316 210//254 287//256
f 271//259 274//317 273//315
f 271//259 272//316 274//317
f 322//318 273//315 274//317
f 275//258 273//315 276//310
f 273//315 322//318 276//310
f 276//310 277//319 280//311
f 276//310 322//318 277//319
f 325//320 280//311 277//319
f 279//321 278//262 218//240
f 281//322 278//262 279//321
f 282//265 278//262 281//322
f 280//311 218//240 268//239
f 218//240 280//311 279//321
f 326//323 279//321 280//311
f 326//323 281//322 279//321
f 325//320 326//323 280//311
f 326//323 328//324 281//322
f 227//264 282//265 294//273
f 282//265 333//325 294//273
f 282//265 281//322 333//325
f 281//322 328//324 333//325
f 283//326 284//248 224//243
f 223//267 283//326 224//243
f 200//242 284//248 330//312
f 283//326 291//327 284//248
f 330//312 284//248 291//327
f 285//313 269//247 330//312
f 270//251 389//314 286//269
f 389//314 338//328 286//269
f 272//316 287//256 288//329
f 274//317 272//316 288//329
f 289//272 223//267 222//266
f 289//272 222//266 229//270
f 289//272 283//326 223//267
f 289//272 290//271 283//326
f 290//271 335//330 283//326
f 283//326 335//330 291//327
f 335//330 290//271 392//331
f 133//162 230//180 287//256
f 293//275 287//256 230//180
f 288//329 287//256 293//275
f 225//151 286//269 337//332
f 340//184 143//181 292//268
f 225//151 337//332 292//268
f 343//333 296//334 340//184
f 292//268 337//332 340//184
f 342//335 290//271 295//274
f 295//274 345//336 342//335
f 296//334 144//183 340//184
f 296//334 300//276 144//183
f 343//333 300//276 296//334
f 344//337 293//275 234//186
f 232//190 294//273 303//277
f 295//274 241//208 297//338
f 345//336 295//274 297//338
f 299//278 816//339 240//280
f 299//278 235//192 298//279
f 398//340 299//278 298//279
f 347//341 816//339 299//278
f 343//333 397//342 300//276
f 300//276 397//342 398//340
f 300//276 398//340 298//279
f 299//278 398//340 347//341
f 347//341 346//343 816//339
f 239//203 302//282 301//344
f 301//344 234//186 239//203
f 350//345 301//344 302//282
f 304//346 241//208 306//283
f 304//346 297//338 241//208
f 303//277 305//207 149//189
f 303//277 354//347 305//207
f 359//348 306//283 243//210
f 306//283 359//348 356//349
f 357//350 307//213 305//207
f 358//351 307//213 357//350
f 308//285 244//214 307//213
f 358//351 308//285 307//213
f 243//210 407//284 359//348
f 406//352 245//287 405//286
f 406//352 248//289 245//287
f 360//353 309//291 248//289
f 361//354 309//291 360//353
f 361//354 249//290 309//291
f 249//290 362//355 247//220
f 310//295 247//220 362//355
f 251//296 311//293 184//224
f 364//356 311//293 251//296
f 311//293 364//356 363//292
f 364//356 251//296 312//357
f 367//358 250//223 310//295
f 312//357 366//359 364//356
f 254//298 312//357 251//296
f 259//300 185//222 313//294
f 259//300 313//294 316//360
f 313//294 367//358 316//360
f 367//358 313//294 250//223
f 314//301 312//357 254//298
f 314//301 255//230 318//305
f 315//304 317//361 374//362
f 315//304 259//300 317//361
f 315//304 320//363 257//299
f 317//361 259//300 316//360
f 372//364 314//301 318//305
f 372//364 318//305 376//365
f 261//306 376//365 318//305
f 266//303 257//299 320//363
f 320//363 315//304 374//362
f 377//366 261//306 263//308
f 377//366 376//365 261//306
f 377//366 263//308 380//367
f 263//308 321//309 380//367
f 321//309 319//302 382//368
f 382//368 380//367 321//309
f 381//369 380//367 382//368
f 323//370 322//318 274//317
f 277//319 327//371 325//320
f 323//370 332//372 322//318
f 327//371 277//319 324//373
f 322//318 324//373 277//319
f 332//372 324//373 322//318
f 323//370 386//374 332//372
f 324//373 329//375 327//371
f 386//374 387//376 332//372
f 329//375 324//373 332//372
f 325//320 327//371 326//323
f 327//371 328//324 326//323
f 329//375 328//324 327//371
f 332//372 384//377 329//375
f 384//377 385//378 329//375
f 385//378 328//324 329//375
f 388//379 285//313 330//312
f 388//379 389//314 285//313
f 274//317 288//329 331//380
f 331//380 288//329 293//275
f 323//370 274//317 331//380
f 386//374 331//380 293//275
f 386//374 323//370 331//380
f 328//324 334//381 333//325
f 392//331 393//382 335//330
f 291//327 335//330 336//383
f 388//379 330//312 336//383
f 330//312 291//327 336//383
f 339//384 333//325 334//381
f 391//385 339//384 334//381
f 342//335 392//331 290//271
f 336//383 335//330 393//382
f 337//332 286//269 338//328
f 337//332 338//328 341//386
f 338//328 440//387 341//386
f 333//325 339//384 294//273
f 294//273 339//384 303//277
f 337//332 341//386 340//184
f 341//386 343//333 340//184
f 395//388 343//333 341//386
f 341//386 440//387 395//388
f 293//275 344//337 441//389
f 351//390 344//337 234//186
f 441//389 344//337 445//391
f 445//391 344//337 351//390
f 402//392 303//277 339//384
f 304//346 345//336 297//338
f 347//341 348//393 346//343
f 348//393 353//394 346//343
f 349//395 347//341 398//340
f 349//395 348//393 347//341
f 348//393 400//396 353//394
f 351//390 234//186 301//344
f 350//345 302//282 346//343
f 353//394 350//345 346//343
f 301//344 350//345 351//390
f 350//345 353//394 352//397
f 352//397 351//390 350//345
f 400//396 352//397 353//394
f 354//347 357//350 305//207
f 354//347 303//277 402//392
f 354//347 355//398 357//350
f 402//392 355//398 354//347
f 304//346 306//283 356//349
f 355//398 358//351 357//350
f 404//399 358//351 355//398
f 356//349 359//348 407//284
f 356//349 407//284 478//400
f 405//286 308//285 358//351
f 408//401 360//353 406//352
f 360//353 248//289 406//352
f 409//402 361//354 360//353
f 361//354 362//355 249//290
f 409//402 362//355 361//354
f 410//288 363//292 365//403
f 310//295 362//355 452//404
f 409//402 452//404 362//355
f 365//403 363//292 364//356
f 365//403 364//356 366//359
f 455//405 310//295 452//404
f 367//358 310//295 455//405
f 312//357 369//406 366//359
f 312//357 314//301 369//406
f 369//406 413//407 366//359
f 370//408 413//407 369//406
f 317//361 316//360 368//409
f 368//409 316//360 367//358
f 368//409 375//410 317//361
f 369//406 314//301 372//364
f 370//408 369//406 371//411
f 372//364 371//411 369//406
f 373//412 371//411 372//364
f 370//408 415//413 413//407
f 370//408 371//411 415//413
f 373//412 372//364 376//365
f 374//362 375//410 383//414
f 375//410 416//415 383//414
f 374//362 317//361 375//410
f 373//412 376//365 378//416
f 373//412 378//416 417//417
f 378//416 376//365 377//366
f 379//418 377//366 381//369
f 378//416 377//366 379//418
f 379//418 418//419 378//416
f 418//419 379//418 419//420
f 377//366 380//367 381//369
f 379//418 381//369 419//420
f 419//420 381//369 423//421
f 430//422 319//302 266//303
f 319//302 430//422 382//368
f 381//369 382//368 424//423
f 382//368 430//422 424//423
f 423//421 381//369 424//423
f 430//422 266//303 429//424
f 320//363 433//425 266//303
f 374//362 383//414 320//363
f 320//363 383//414 433//425
f 433//425 383//414 435//426
f 332//372 387//376 384//377
f 384//377 390//427 385//378
f 385//378 334//381 328//324
f 385//378 390//427 334//381
f 437//428 388//379 336//383
f 387//376 390//427 384//377
f 437//428 336//383 393//382
f 439//429 388//379 437//428
f 389//314 388//379 439//429
f 440//387 338//328 389//314
f 441//389 386//374 293//275
f 442//430 387//376 386//374
f 441//389 442//430 386//374
f 387//376 468//431 390//427
f 392//331 438//432 393//382
f 439//429 440//387 389//314
f 342//335 394//433 392//331
f 394//433 342//335 345//336
f 394//433 345//336 396//434
f 394//433 438//432 392//331
f 395//388 397//342 343//333
f 395//388 398//340 397//342
f 399//435 349//395 398//340
f 399//435 348//393 349//395
f 398//340 395//388 443//436
f 443//436 399//435 398//340
f 444//437 399//435 443//436
f 400//396 399//435 444//437
f 400//396 348//393 399//435
f 444//437 401//438 400//396
f 352//397 400//396 445//391
f 445//391 400//396 401//438
f 445//391 351//390 352//397
f 304//346 396//434 345//336
f 396//434 304//346 448//439
f 402//392 339//384 449//440
f 304//346 356//349 448//439
f 404//399 355//398 402//392
f 449//440 404//399 402//392
f 358//351 403//441 405//286
f 404//399 403//441 358//351
f 404//399 482//442 403//441
f 478//400 407//284 450//443
f 403//441 406//352 405//286
f 483//444 408//401 406//352
f 408//401 409//402 360//353
f 408//401 484//445 409//402
f 410//288 365//403 412//446
f 412//446 365//403 411//447
f 411//447 365//403 366//359
f 412//446 411//447 451//448
f 366//359 413//407 411//447
f 451//448 411//447 413//407
f 414//449 510//450 413//407
f 368//409 367//358 454//451
f 371//411 417//417 415//413
f 373//412 417//417 371//411
f 414//449 413//407 415//413
f 415//413 417//417 456//452
f 458//453 456//452 417//417
f 458//453 418//419 420//454
f 375//410 368//409 416//415
f 417//417 378//416 418//419
f 458//453 417//417 418//419
f 420//454 418//419 419//420
f 421//455 420//454 419//420
f 422//456 458//453 420//454
f 421//455 422//456 420//454
f 419//420 423//421 421//455
f 426//457 421//455 423//421
f 421//455 426//457 422//456
f 425//458 426//457 423//421
f 424//423 425//458 423//421
f 426//457 427//459 422//456
f 428//460 426//457 425//458
f 428//460 427//459 426//457
f 424//423 430//422 431//461
f 429//424 431//461 430//422
f 425//458 424//423 432//462
f 424//423 431//461 432//462
f 431//461 434//463 432//462
f 429//424 266//303 433//425
f 431//461 429//424 433//425
f 431//461 433//425 434//463
f 434//463 433//425 436//464
f 432//462 434//463 465//465
f 434//463 436//464 465//465
f 436//464 433//425 435//426
f 435//426 416//415 466//466
f 435//426 383//414 416//415
f 437//428 393//382 533//467
f 468//431 387//376 442//430
f 390//427 391//385 334//381
f 438//432 533//467 393//382
f 395//388 440//387 443//436
f 447//468 441//389 445//391
f 442//430 441//389 447//468
f 447//468 471//469 442//430
f 390//427 472//470 391//385
f 444//437 446//471 401//438
f 469//472 444//437 443//436
f 443//436 440//387 469//472
f 469//472 470//473 444//437
f 401//438 446//471 445//391
f 447//468 445//391 446//471
f 447//468 446//471 444//437
f 394//433 396//434 448//439
f 394//433 448//439 476//474
f 473//475 394//433 476//474
f 391//385 449//440 339//384
f 478//400 448//439 356//349
f 476//474 448//439 478//400
f 481//476 404//399 449//440
f 481//476 482//442 404//399
f 552//477 450//443 407//284
f 546//478 450//443 552//477
f 483//444 406//352 403//441
f 408//401 483//444 484//445
f 618//479 409//402 484//445
f 485//480 407//284 410//288
f 410//288 412//446 486//481
f 485//480 410//288 486//481
f 451//448 486//481 412//446
f 554//482 486//481 451//448
f 510//450 451//448 413//407
f 451//448 510//450 554//482
f 455//405 452//404 519//483
f 455//405 519//483 518//484
f 512//485 510//450 414//449
f 512//485 414//449 453//486
f 516//487 511//488 459//489
f 516//487 459//489 497//490
f 455//405 454//451 367//358
f 455//405 518//484 454//451
f 453//486 414//449 415//413
f 453//486 415//413 456//452
f 457//491 453//486 456//452
f 457//491 456//452 458//453
f 459//489 457//491 458//453
f 459//489 511//488 457//491
f 422//456 459//489 458//453
f 459//489 422//456 427//459
f 427//459 461//492 459//489
f 427//459 428//460 460//493
f 427//459 460//493 461//492
f 461//492 460//493 505//494
f 520//495 505//494 460//493
f 520//495 460//493 428//460
f 368//409 454//451 462//496
f 416//415 368//409 462//496
f 454//451 523//497 462//496
f 416//415 462//496 467//498
f 454//451 518//484 523//497
f 525//499 425//458 432//462
f 525//499 432//462 465//465
f 525//499 428//460 425//458
f 466//466 463//500 435//426
f 465//465 436//464 463//500
f 463//500 436//464 435//426
f 463//500 464//501 465//465
f 464//501 526//502 465//465
f 525//499 465//465 526//502
f 466//466 416//415 467//498
f 466//466 464//501 463//500
f 464//501 466//466 467//498
f 468//431 442//430 471//469
f 531//503 472//470 390//427
f 390//427 468//431 531//503
f 473//475 474//504 394//433
f 533//467 438//432 532//505
f 474//504 438//432 394//433
f 532//505 438//432 474//504
f 535//506 440//387 439//429
f 439//429 437//428 535//506
f 440//387 535//506 469//472
f 470//473 469//472 535//506
f 444//437 470//473 447//468
f 470//473 471//469 447//468
f 470//473 537//507 471//469
f 538//508 531//503 468//431
f 472//470 475//509 391//385
f 531//503 543//510 472//470
f 475//509 472//470 543//510
f 473//475 476//474 480//511
f 480//511 539//512 473//475
f 539//512 474//504 473//475
f 474//504 539//512 532//505
f 449//440 391//385 475//509
f 480//511 476//474 478//400
f 449//440 475//509 477//513
f 481//476 449//440 477//513
f 475//509 543//510 477//513
f 479//514 478//400 450//443
f 480//511 478//400 479//514
f 480//511 479//514 541//515
f 479//514 450//443 546//478
f 541//515 479//514 546//478
f 541//515 546//478 547//516
f 483//444 403//441 482//442
f 546//478 552//477 548//517
f 549//518 483//444 482//442
f 549//518 484//445 483//444
f 549//518 551//519 484//445
f 617//520 484//445 551//519
f 485//480 552//477 407//284
f 487//521 485//480 486//481
f 409//402 488//522 452//404
f 510//450 489//523 554//482
f 569//524 490//525 573//526
f 490//525 569//524 514//527
f 490//525 515//528 491//529
f 491//529 515//528 494//530
f 491//529 493//531 492//532
f 491//529 496//533 493//531
f 491//529 494//530 496//533
f 491//529 492//532 490//525
f 573//526 490//525 492//532
f 572//534 492//532 493//531
f 515//528 516//487 494//530
f 494//530 516//487 497//490
f 500//535 495//536 494//530
f 494//530 495//536 496//533
f 495//536 574//537 496//533
f 497//490 498//538 494//530
f 501//539 500//535 494//530
f 494//530 498//538 501//539
f 501//539 499//540 502//541
f 499//540 501//539 498//538
f 504//542 506//543 555//544
f 500//535 501//539 503//545
f 503//545 502//541 504//542
f 506//543 504//542 502//541
f 499//540 506//543 502//541
f 502//541 503//545 501//539
f 577//546 500//535 503//545
f 504//542 577//546 503//545
f 499//540 505//494 506//543
f 507//547 555//544 506//543
f 506//543 505//494 507//547
f 507//547 505//494 517//548
f 507//547 517//548 508//549
f 508//549 517//548 509//550
f 555//544 507//547 508//549
f 488//522 519//483 452//404
f 511//488 453//486 457//491
f 513//551 512//485 453//486
f 511//488 513//551 453//486
f 512//485 489//523 510//450
f 512//485 513//551 489//523
f 513//551 511//488 514//527
f 513//551 592//552 489//523
f 490//525 511//488 515//528
f 511//488 516//487 515//528
f 490//525 514//527 511//488
f 498//538 497//490 459//489
f 461//492 498//538 459//489
f 505//494 498//538 461//492
f 505//494 499//540 498//538
f 517//548 505//494 520//495
f 517//548 520//495 594//553
f 509//550 517//548 594//553
f 518//484 519//483 662//554
f 520//495 521//555 595//556
f 462//496 523//497 522//557
f 523//497 524//558 522//557
f 522//557 524//558 530//559
f 518//484 662//554 523//497
f 525//499 520//495 428//460
f 520//495 525//499 521//555
f 526//502 464//501 528//560
f 525//499 526//502 527//561
f 528//560 529//562 526//502
f 526//502 529//562 527//561
f 527//561 521//555 525//499
f 529//562 521//555 527//561
f 467//498 530//559 464//501
f 528//560 464//501 530//559
f 528//560 530//559 529//562
f 530//559 467//498 522//557
f 522//557 467//498 462//496
f 524//558 529//562 530//559
f 534//563 437//428 533//467
f 534//563 535//506 437//428
f 470//473 536//564 537//507
f 537//507 468//431 471//469
f 532//505 539//512 540//565
f 532//505 540//565 533//467
f 533//467 540//565 605//566
f 605//566 534//563 533//467
f 535//506 534//563 606//567
f 606//567 534//563 607//568
f 534//563 605//566 607//568
f 536//564 470//473 535//506
f 536//564 535//506 606//567
f 536//564 606//567 537//507
f 538//508 537//507 606//567
f 468//431 537//507 538//508
f 611//569 531//503 538//508
f 611//569 543//510 531//503
f 540//565 608//570 605//566
f 538//508 612//571 611//569
f 541//515 539//512 480//511
f 542//572 539//512 541//515
f 542//572 541//515 547//516
f 542//572 540//565 539//512
f 540//565 542//572 608//570
f 611//569 613//573 543//510
f 477//513 544//574 481//476
f 477//513 543//510 544//574
f 542//572 547//516 614//575
f 481//476 544//574 482//442
f 545//576 544//574 543//510
f 544//574 545//576 482//442
f 613//573 545//576 543//510
f 672//577 548//517 552//477
f 546//478 548//517 547//516
f 614//575 547//516 548//517
f 549//518 482//442 545//576
f 545//576 550//578 549//518
f 616//579 545//576 613//573
f 545//576 616//579 550//578
f 549//518 550//578 551//519
f 551//519 550//578 617//520
f 617//520 618//479 484//445
f 552//477 485//480 553//580
f 485//480 487//521 553//580
f 672//577 552//477 553//580
f 554//482 487//521 486//481
f 553//580 487//521 554//482
f 619//581 553//580 554//482
f 577//546 558//582 579//583
f 555//544 558//582 577//546
f 579//583 558//582 580//584
f 555//544 508//549 557//585
f 556//586 555//544 557//585
f 508//549 559//587 557//585
f 558//582 555//544 556//586
f 581//588 559//587 508//549
f 556//586 557//585 560//589
f 559//587 560//589 557//585
f 561//590 559//587 581//588
f 583//591 561//590 581//588
f 558//582 556//586 562//592
f 556//586 560//589 562//592
f 561//590 560//589 559//587
f 562//592 560//589 563//593
f 560//589 561//590 563//593
f 563//593 561//590 565//594
f 580//584 558//582 630//595
f 565//594 561//590 583//591
f 562//592 563//593 564//596
f 563//593 565//594 564//596
f 558//582 562//592 630//595
f 565//594 633//597 564//596
f 568//598 554//482 489//523
f 817//599 514//527 566//600
f 592//552 567//601 489//523
f 567//601 817//599 566//600
f 568//598 489//523 567//601
f 566//600 622//602 567//601
f 566//600 571//603 622//602
f 570//604 566//600 569//524
f 569//524 566//600 514//527
f 570//604 569//524 573//526
f 571//603 566//600 570//604
f 573//526 492//532 572//534
f 572//534 493//531 593//605
f 493//531 496//533 593//605
f 656//606 572//534 593//605
f 573//526 572//534 570//604
f 570//604 572//534 656//606
f 495//536 578//607 576//608
f 574//537 495//536 576//608
f 574//537 575//609 496//533
f 575//609 574//537 576//608
f 575//609 576//608 624//610
f 496//533 575//609 657//611
f 577//546 504//542 555//544
f 495//536 500//535 578//607
f 577//546 578//607 500//535
f 577//546 579//583 578//607
f 579//583 580//584 578//607
f 625//612 578//607 580//584
f 576//608 578//607 625//612
f 576//608 625//612 624//610
f 625//612 628//613 624//610
f 508//549 509//550 581//588
f 583//591 581//588 582//614
f 582//614 581//588 509//550
f 509//550 594//553 582//614
f 594//553 584//615 582//614
f 594//553 596//616 584//615
f 584//615 583//591 582//614
f 565//594 583//591 584//615
f 565//594 584//615 633//597
f 585//617 633//597 584//615
f 585//617 584//615 596//616
f 585//617 636//618 633//597
f 585//617 596//616 586//619
f 586//619 596//616 587//620
f 586//619 587//620 637//621
f 597//622 588//623 587//620
f 587//620 596//616 597//622
f 636//618 585//617 637//621
f 637//621 585//617 586//619
f 587//620 588//623 638//624
f 638//624 637//621 587//620
f 588//623 597//622 599//625
f 589//626 599//625 600//627
f 589//626 588//623 599//625
f 588//623 640//628 638//624
f 640//628 641//629 642//630
f 641//629 640//628 588//623
f 589//626 641//629 588//623
f 600//627 641//629 589//626
f 600//627 601//631 590//632
f 600//627 590//632 644//633
f 644//633 590//632 649//634
f 590//632 601//631 649//634
f 652//635 519//483 488//522
f 591//636 663//637 519//483
f 652//635 591//636 519//483
f 514//527 817//599 513//551
f 593//605 496//533 657//611
f 596//616 594//553 595//556
f 596//616 595//556 597//622
f 597//622 521//555 598//638
f 599//625 598//638 600//627
f 599//625 597//622 598//638
f 598//638 603//639 601//631
f 601//631 603//639 659//640
f 600//627 598//638 601//631
f 649//634 601//631 659//640
f 659//640 603//639 660//641
f 519//483 663//637 662//554
f 594//553 520//495 595//556
f 595//556 521//555 597//622
f 521//555 529//562 602//642
f 603//639 602//642 529//562
f 598//638 521//555 602//642
f 598//638 602//642 603//639
f 523//497 604//643 524//558
f 604//643 529//562 524//558
f 662//554 604//643 523//497
f 604//643 603//639 529//562
f 604//643 660//641 603//639
f 660//641 604//643 662//554
f 605//566 609//644 607//568
f 606//567 607//568 538//508
f 607//568 609//644 664//645
f 610//646 538//508 607//568
f 612//571 538//508 666//647
f 542//572 614//575 665//648
f 608//570 542//572 665//648
f 605//566 608//570 609//644
f 538//508 610//646 666//647
f 608//570 665//648 609//644
f 613//573 611//569 612//571
f 613//573 612//571 615//649
f 615//649 612//571 666//647
f 613//573 615//649 616//579
f 616//579 667//650 550//578
f 672//577 669//651 548//517
f 669//651 614//575 548//517
f 667//650 675//652 550//578
f 550//578 675//652 617//520
f 618//479 617//520 677//653
f 619//581 676//654 553//580
f 619//581 554//482 620//655
f 621//656 630//595 562//592
f 621//656 562//592 564//596
f 621//656 629//657 630//595
f 621//656 564//596 631//658
f 690//659 629//657 621//656
f 621//656 631//658 690//659
f 634//660 631//658 564//596
f 488//522 409//402 618//479
f 652//635 488//522 618//479
f 618//479 679//661 652//635
f 622//602 571//603 702//662
f 623//663 568//598 567//601
f 568//598 682//664 554//482
f 568//598 623//663 682//664
f 623//663 567//601 622//602
f 682//664 620//655 554//482
f 571//603 570//604 702//662
f 575//609 624//610 657//611
f 624//610 628//613 657//611
f 627//665 580//584 630//595
f 628//613 625//612 626//666
f 626//666 625//612 580//584
f 627//665 626//666 580//584
f 629//657 627//665 630//595
f 628//613 626//666 627//665
f 688//667 709//668 628//613
f 628//613 627//665 687//669
f 687//669 627//665 629//657
f 687//669 688//667 628//613
f 632//670 631//658 634//660
f 631//658 632//670 690//659
f 629//657 690//659 742//671
f 634//660 564//596 633//597
f 633//597 636//618 635//672
f 639//673 635//672 636//618
f 634//660 633//597 635//672
f 691//674 634//660 635//672
f 632//670 634//660 691//674
f 639//673 636//618 637//621
f 639//673 637//621 638//624
f 713//675 635//672 639//673
f 713//675 639//673 714//676
f 639//673 638//624 714//676
f 645//677 638//624 640//628
f 645//677 640//628 642//630
f 643//678 642//630 641//629
f 643//678 600//627 644//633
f 600//627 643//678 641//629
f 642//630 643//678 645//677
f 646//679 643//678 647//680
f 643//678 644//633 647//680
f 650//681 644//633 649//634
f 645//677 643//678 646//679
f 648//682 647//680 650//681
f 647//680 644//633 650//681
f 647//680 716//683 646//679
f 648//682 716//683 647//680
f 645//677 646//679 716//683
f 649//634 651//684 650//681
f 650//681 651//684 694//685
f 650//681 694//685 648//682
f 660//641 661//686 651//684
f 696//687 661//686 653//688
f 661//686 697//689 651//684
f 651//684 697//689 699//690
f 696//687 697//689 661//686
f 652//635 663//637 591//636
f 654//691 653//688 652//635
f 653//688 663//637 652//635
f 679//661 654//691 652//635
f 696//687 653//688 655//692
f 655//692 653//688 654//691
f 698//693 696//687 655//692
f 623//663 622//602 702//662
f 656//606 593//605 657//611
f 656//606 702//662 570//604
f 657//611 658//694 706//695
f 702//662 656//606 707//696
f 707//696 656//606 657//611
f 657//611 628//613 658//694
f 658//694 628//613 706//695
f 645//677 716//683 638//624
f 649//634 659//640 651//684
f 660//641 651//684 659//640
f 661//686 660//641 653//688
f 660//641 818//697 653//688
f 662//554 818//697 660//641
f 666//647 610//646 607//568
f 664//645 609//644 665//648
f 664//645 666//647 607//568
f 665//648 718//698 664//645
f 772//699 719//700 666//647
f 615//649 666//647 719//700
f 665//648 614//575 670//701
f 614//575 669//651 670//701
f 665//648 670//701 718//698
f 668//702 616//579 615//649
f 720//703 668//702 615//649
f 667//650 616//579 668//702
f 667//650 671//704 675//652
f 668//702 671//704 667//650
f 674//705 676//654 678//706
f 669//651 672//577 673//707
f 676//654 673//707 672//577
f 674//705 673//707 676//654
f 673//707 721//708 669//651
f 674//705 721//708 673//707
f 675//652 677//653 617//520
f 553//580 676//654 672//577
f 678//706 676//654 619//581
f 678//706 619//581 680//709
f 674//705 678//706 680//709
f 679//661 618//479 677//653
f 619//581 620//655 683//710
f 619//581 683//710 680//709
f 681//711 680//709 683//710
f 733//712 680//709 681//711
f 701//713 654//691 679//661
f 701//713 655//692 654//691
f 761//714 701//713 679//661
f 682//664 683//710 620//655
f 683//710 682//664 684//715
f 623//663 703//716 682//664
f 683//710 684//715 681//711
f 682//664 703//716 684//715
f 681//711 684//715 747//717
f 703//716 705//718 684//715
f 747//717 684//715 705//718
f 705//718 712//719 748//720
f 688//667 686//721 709//668
f 686//721 749//722 709//668
f 688//667 689//723 685//724
f 685//724 686//721 688//667
f 689//723 753//725 685//724
f 753//725 689//723 757//726
f 685//724 754//727 686//721
f 685//724 753//725 754//727
f 754//727 749//722 686//721
f 629//657 742//671 687//669
f 742//671 689//723 687//669
f 687//669 689//723 688//667
f 744//728 742//671 690//659
f 690//659 632//670 691//674
f 690//659 759//729 744//728
f 759//729 690//659 691//674
f 691//674 635//672 692//730
f 713//675 692//730 635//672
f 758//731 691//674 692//730
f 759//729 691//674 758//731
f 694//685 651//684 699//690
f 695//732 694//685 699//690
f 695//732 699//690 700//733
f 648//682 695//732 693//734
f 648//682 694//685 695//732
f 695//732 762//735 764//736
f 695//732 771//737 693//734
f 696//687 699//690 697//689
f 696//687 698//693 699//690
f 700//733 699//690 698//693
f 700//733 698//693 701//713
f 761//714 700//733 701//713
f 701//713 698//693 655//692
f 704//738 703//716 623//663
f 702//662 704//738 623//663
f 702//662 710//739 704//738
f 703//716 704//738 705//718
f 704//738 710//739 712//719
f 705//718 704//738 712//719
f 657//611 706//695 707//696
f 702//662 707//696 710//739
f 710//739 707//696 708//740
f 708//740 707//696 706//695
f 708//740 706//695 709//668
f 709//668 711//741 708//740
f 712//719 710//739 708//740
f 712//719 708//740 711//741
f 749//722 711//741 709//668
f 751//742 750//743 712//719
f 711//741 751//742 712//719
f 709//668 706//695 628//613
f 716//683 714//676 638//624
f 714//676 716//683 715//744
f 716//683 717//745 715//744
f 714//676 715//744 713//675
f 716//683 648//682 717//745
f 717//745 648//682 693//734
f 693//734 771//737 717//745
f 664//645 772//699 666//647
f 719//700 720//703 615//649
f 670//701 669//651 722//746
f 670//701 722//746 723//747
f 670//701 723//747 718//698
f 726//748 671//704 720//703
f 720//703 719//700 777//749
f 720//703 671//704 668//702
f 674//705 727//750 721//708
f 722//746 669//651 721//708
f 723//747 722//746 725//751
f 722//746 721//708 725//751
f 725//751 721//708 728//752
f 723//747 725//751 724//753
f 725//751 778//754 724//753
f 777//749 726//748 720//703
f 783//755 726//748 777//749
f 671//704 730//756 675//652
f 726//748 730//756 671//704
f 726//748 783//755 730//756
f 721//708 727//750 728//752
f 725//751 728//752 778//754
f 731//757 778//754 728//752
f 677//653 675//652 729//758
f 730//756 729//758 675//652
f 729//758 730//756 790//759
f 730//756 783//755 790//759
f 677//653 729//758 679//661
f 680//709 727//750 674//705
f 727//750 731//757 728//752
f 732//760 679//661 729//758
f 729//758 790//759 732//760
f 732//760 746//761 679//661
f 733//712 727//750 680//709
f 681//711 747//717 733//712
f 733//712 747//717 734//762
f 727//750 733//712 731//757
f 734//762 731//757 733//712
f 747//717 748//720 734//762
f 734//762 735//763 778//754
f 778//754 735//763 784//764
f 735//763 751//742 752//765
f 752//765 736//766 735//763
f 734//762 778//754 731//757
f 739//767 736//766 756//768
f 735//763 736//766 741//769
f 739//767 757//726 737//770
f 757//726 742//671 737//770
f 738//771 743//772 745//773
f 737//770 743//772 738//771
f 737//770 738//771 739//767
f 742//671 743//772 737//770
f 739//767 740//774 741//769
f 739//767 738//771 740//774
f 745//773 740//774 738//771
f 741//769 736//766 739//767
f 745//773 792//775 740//774
f 741//769 791//776 735//763
f 740//774 791//776 741//769
f 743//772 742//671 744//728
f 745//773 743//772 744//728
f 793//777 745//773 744//728
f 794//778 792//775 793//777
f 792//775 745//773 793//777
f 746//761 761//714 679//661
f 746//761 796//779 761//714
f 746//761 732//760 796//779
f 747//717 705//718 748//720
f 748//720 712//719 750//743
f 748//720 750//743 734//762
f 755//780 751//742 749//722
f 750//743 751//742 735//763
f 755//780 752//765 751//742
f 750//743 735//763 734//762
f 753//725 757//726 756//768
f 756//768 755//780 754//727
f 756//768 754//727 753//725
f 755//780 749//722 754//727
f 756//768 752//765 755//780
f 736//766 752//765 756//768
f 689//723 742//671 757//726
f 739//767 756//768 757//726
f 713//675 765//781 692//730
f 765//781 768//782 758//731
f 758//731 692//730 765//781
f 798//783 760//784 759//729
f 798//783 759//729 758//731
f 744//728 759//729 760//784
f 793//777 744//728 760//784
f 762//735 695//732 700//733
f 695//732 764//736 771//737
f 802//785 764//736 809//786
f 802//785 771//737 764//736
f 762//735 700//733 764//736
f 808//787 763//788 761//714
f 763//788 700//733 761//714
f 763//788 764//736 700//733
f 808//787 809//786 763//788
f 796//779 808//787 761//714
f 809//786 764//736 763//788
f 751//742 711//741 749//722
f 765//781 713//675 766//789
f 766//789 713//675 715//744
f 766//789 715//744 767//790
f 767//790 715//744 717//745
f 765//781 766//789 768//782
f 768//782 766//789 767//790
f 717//745 770//791 767//790
f 798//783 758//731 768//782
f 812//792 769//793 770//791
f 769//793 768//782 767//790
f 770//791 769//793 767//790
f 798//783 768//782 810//794
f 811//795 810//794 768//782
f 800//796 769//793 812//792
f 811//795 768//782 769//793
f 800//796 811//795 769//793
f 770//791 717//745 771//737
f 771//737 812//792 770//791
f 773//797 664//645 718//698
f 773//797 772//699 664//645
f 724//753 778//754 779//798
f 718//698 723//747 724//753
f 724//753 779//798 774//799
f 718//698 774//799 773//797
f 718//698 724//753 774//799
f 773//797 775//800 776//801
f 775//800 773//797 774//799
f 775//800 774//799 780//802
f 719//700 772//699 777//749
f 772//699 776//801 777//749
f 783//755 777//749 776//801
f 772//699 773//797 776//801
f 776//801 782//803 783//755
f 776//801 775//800 782//803
f 779//798 778//754 784//764
f 779//798 786//804 781//805
f 779//798 781//805 774//799
f 774//799 781//805 780//802
f 780//802 781//805 788//806
f 780//802 782//803 775//800
f 782//803 788//806 787//807
f 788//806 782//803 780//802
f 789//808 783//755 787//807
f 783//755 782//803 787//807
f 784//764 735//763 791//776
f 791//776 792//775 785//809
f 784//764 791//776 785//809
f 784//764 785//809 779//798
f 785//809 794//778 786//804
f 785//809 786//804 779//798
f 786//804 795//810 799//811
f 799//811 781//805 786//804
f 790//759 783//755 789//808
f 787//807 797//812 789//808
f 796//779 790//759 797//812
f 790//759 796//779 732//760
f 789//808 797//812 790//759
f 791//776 740//774 792//775
f 785//809 792//775 794//778
f 793//777 760//784 795//810
f 793//777 795//810 794//778
f 786//804 794//778 795//810
f 781//805 801//813 788//806
f 781//805 799//811 801//813
f 807//814 787//807 788//806
f 788//806 801//813 807//814
f 787//807 805//815 797//812
f 787//807 807//814 805//815
f 795//810 760//784 798//783
f 795//810 798//783 810//794
f 810//794 811//795 795//810
f 799//811 795//810 811//795
f 799//811 811//795 801//813
f 811//795 800//796 801//813
f 800//796 812//792 806//816
f 806//816 801//813 800//796
f 807//814 801//813 806//816
f 808//787 797//812 805//815
f 804//817 803//818 805//815
f 809//786 803//818 804//817
f 812//792 802//785 804//817
f 809//786 804//817 802//785
f 802//785 812//792 771//737
f 805//815 803//818 808//787
f 806//816 804//817 805//815
f 812//792 804//817 806//816
f 806//816 805//815 807//814
f 808//787 796//779 797//812
f 808//787 803//818 809//786
