# Blender 4.0.2
# www.blender.org
mtllib jaw_left_lower_canine_tooth.mtl
o jaw_left_lower_canine_tooth
v 0.087334 -0.041258 -0.007880
v 0.088290 -0.041708 -0.007861
v 0.087819 -0.040248 -0.007759
v 0.087497 -0.040418 -0.007859
v 0.087798 -0.040768 -0.007732
v 0.088189 -0.040578 -0.007690
v 0.088821 -0.040928 -0.007808
v 0.089117 -0.040358 -0.007800
v 0.088335 -0.039058 -0.007821
v 0.088842 -0.039088 -0.007804
v 0.086444 -0.044568 -0.008679
v 0.086614 -0.044748 -0.008715
v 0.087412 -0.043868 -0.008455
v 0.087533 -0.044148 -0.008665
v 0.086223 -0.042468 -0.008577
v 0.087327 -0.043108 -0.008147
v 0.086841 -0.042658 -0.008192
v 0.087859 -0.042788 -0.008093
v 0.087364 -0.042108 -0.007936
v 0.087692 -0.042208 -0.007912
v 0.088098 -0.042848 -0.008212
v 0.088427 -0.042988 -0.008510
v 0.086476 -0.040848 -0.008546
v 0.086662 -0.040128 -0.008525
v 0.087022 -0.041298 -0.008048
v 0.088467 -0.041908 -0.007969
v 0.088891 -0.042038 -0.008274
v 0.087120 -0.040168 -0.008113
v 0.089206 -0.040898 -0.007965
v 0.089770 -0.040938 -0.008423
v 0.089769 -0.040278 -0.008100
v 0.087866 -0.038378 -0.008092
v 0.087312 -0.038418 -0.008450
v 0.090023 -0.038898 -0.007981
v 0.090414 -0.039078 -0.008186
v 0.090192 -0.039968 -0.008319
v 0.090398 -0.040148 -0.008644
v 0.088223 -0.037338 -0.008240
v 0.087777 -0.037198 -0.008522
v 0.088711 -0.037528 -0.008077
v 0.088652 -0.036708 -0.008229
v 0.088088 -0.036268 -0.008587
v 0.091101 -0.037608 -0.008356
v 0.089338 -0.036208 -0.008186
v 0.090114 -0.036748 -0.008046
v 0.090588 -0.037028 -0.008082
v 0.089314 -0.035088 -0.008405
v 0.089965 -0.034268 -0.008479
v 0.088992 -0.034528 -0.008666
v 0.090394 -0.034988 -0.008297
v 0.090940 -0.035378 -0.008244
v 0.091468 -0.035608 -0.008313
v 0.092020 -0.035508 -0.008504
v 0.090996 -0.033238 -0.008634
v 0.084218 -0.047138 -0.009728
v 0.084442 -0.047638 -0.009631
v 0.085509 -0.046148 -0.009258
v 0.085164 -0.046048 -0.009360
v 0.086026 -0.046268 -0.009296
v 0.086012 -0.046818 -0.009595
v 0.085169 -0.045118 -0.009364
v 0.086021 -0.045618 -0.009062
v 0.085823 -0.045248 -0.009027
v 0.085806 -0.044148 -0.008888
v 0.085512 -0.043798 -0.009090
v 0.085175 -0.043898 -0.009452
v 0.087463 -0.045208 -0.009466
v 0.089232 -0.042868 -0.009429
v 0.086320 -0.040258 -0.008932
v 0.089909 -0.041298 -0.008867
v 0.090177 -0.041318 -0.009300
v 0.086800 -0.038868 -0.008824
v 0.090720 -0.040348 -0.009266
v 0.087088 -0.036888 -0.009144
v 0.090897 -0.039258 -0.008750
v 0.091643 -0.037898 -0.008957
v 0.089348 -0.033808 -0.008774
v 0.090543 -0.033198 -0.008682
v 0.092386 -0.033168 -0.008756
v 0.092670 -0.034218 -0.008737
v 0.093069 -0.034438 -0.008956
v 0.090322 -0.031648 -0.009306
v 0.091894 -0.032598 -0.008787
v 0.092001 -0.030878 -0.009338
v 0.092944 -0.030848 -0.009395
v 0.081726 -0.051778 -0.010636
v 0.081921 -0.051878 -0.010643
v 0.082056 -0.051608 -0.010539
v 0.082232 -0.051758 -0.010618
v 0.081863 -0.051268 -0.010497
v 0.082728 -0.050118 -0.010143
v 0.082468 -0.049898 -0.010174
v 0.082241 -0.049878 -0.010279
v 0.083089 -0.050358 -0.010213
v 0.082116 -0.049648 -0.010415
v 0.082928 -0.049048 -0.010024
v 0.082712 -0.048938 -0.010130
v 0.083744 -0.050058 -0.010306
v 0.082966 -0.048258 -0.010151
v 0.082522 -0.048698 -0.010386
v 0.084227 -0.048918 -0.009950
v 0.084383 -0.049308 -0.010245
v 0.084150 -0.048548 -0.009801
v 0.084045 -0.046028 -0.010300
v 0.084211 -0.046548 -0.009875
v 0.085184 -0.043118 -0.009730
v 0.085509 -0.041228 -0.010057
v 0.089308 -0.043058 -0.010360
v 0.085980 -0.038578 -0.010159
v 0.090670 -0.040728 -0.009681
v 0.090806 -0.040588 -0.010350
v 0.091881 -0.038738 -0.009840
v 0.087195 -0.034038 -0.009821
v 0.087058 -0.032578 -0.010156
v 0.087564 -0.033348 -0.009715
v 0.093610 -0.035968 -0.010223
v 0.087450 -0.031858 -0.010064
v 0.087042 -0.032138 -0.010285
v 0.088287 -0.032828 -0.009535
v 0.093442 -0.035908 -0.009878
v 0.087399 -0.031598 -0.010176
v 0.087696 -0.031178 -0.010250
v 0.088079 -0.031508 -0.009867
v 0.087889 -0.031358 -0.009998
v 0.088037 -0.031078 -0.010110
v 0.093943 -0.034398 -0.009607
v 0.088734 -0.030908 -0.009946
v 0.088518 -0.030748 -0.010176
v 0.089254 -0.031168 -0.009654
v 0.094459 -0.034288 -0.010209
v 0.094558 -0.033118 -0.009786
v 0.095101 -0.032878 -0.010288
v 0.091187 -0.030448 -0.009603
v 0.090983 -0.029988 -0.009933
v 0.094549 -0.031738 -0.009683
v 0.095427 -0.031708 -0.010262
v 0.095521 -0.030608 -0.010244
v 0.093416 -0.028988 -0.010192
v 0.094070 -0.028658 -0.010290
v 0.095086 -0.029508 -0.010123
v 0.094700 -0.029138 -0.010125
v 0.081369 -0.051228 -0.011187
v 0.081852 -0.051978 -0.010702
v 0.081579 -0.051588 -0.010648
v 0.081593 -0.051298 -0.010627
v 0.081628 -0.051978 -0.010766
v 0.081810 -0.052078 -0.010785
v 0.081487 -0.051778 -0.010766
v 0.081438 -0.051518 -0.010757
v 0.081464 -0.051208 -0.010750
v 0.081498 -0.051968 -0.010878
v 0.081668 -0.052118 -0.010905
v 0.081395 -0.051738 -0.010880
v 0.081356 -0.051358 -0.010967
v 0.081464 -0.052058 -0.011083
v 0.081636 -0.052168 -0.011101
v 0.081386 -0.051958 -0.011094
v 0.081324 -0.051678 -0.011196
v 0.081469 -0.052048 -0.011298
v 0.081772 -0.052148 -0.011353
v 0.081406 -0.051908 -0.011399
v 0.081365 -0.051458 -0.011405
v 0.081416 -0.051198 -0.011405
v 0.081972 -0.052028 -0.010736
v 0.082343 -0.051988 -0.010801
v 0.081903 -0.052159 -0.010879
v 0.082148 -0.052118 -0.010876
v 0.082500 -0.052058 -0.010982
v 0.081863 -0.052208 -0.011094
v 0.082239 -0.052168 -0.011088
v 0.082815 -0.051968 -0.011101
v 0.082082 -0.052168 -0.011332
v 0.082650 -0.052088 -0.011305
v 0.081585 -0.050669 -0.010742
v 0.081401 -0.051088 -0.010966
v 0.081554 -0.050538 -0.010948
v 0.081554 -0.050568 -0.011189
v 0.082758 -0.051718 -0.010802
v 0.083335 -0.051718 -0.011296
v 0.083052 -0.051948 -0.011424
v 0.081986 -0.049588 -0.010636
v 0.081805 -0.049848 -0.010970
v 0.084321 -0.050678 -0.011182
v 0.082225 -0.048968 -0.010962
v 0.082547 -0.048448 -0.010634
v 0.086409 -0.047858 -0.011063
v 0.084250 -0.045228 -0.010733
v 0.084969 -0.043048 -0.010656
v 0.085385 -0.041078 -0.010598
v 0.085436 -0.040648 -0.011145
v 0.089496 -0.042618 -0.011298
v 0.085792 -0.038448 -0.010657
v 0.085811 -0.038098 -0.011095
v 0.086181 -0.036058 -0.010470
v 0.085956 -0.036618 -0.010880
v 0.086078 -0.035698 -0.010848
v 0.086105 -0.035388 -0.011054
v 0.091972 -0.038978 -0.010707
v 0.086372 -0.034298 -0.010723
v 0.092806 -0.037608 -0.010464
v 0.086591 -0.033858 -0.010479
v 0.086826 -0.032638 -0.010391
v 0.086588 -0.032688 -0.010817
v 0.086577 -0.032448 -0.011142
v 0.093805 -0.036048 -0.010954
v 0.086995 -0.031538 -0.010674
v 0.086809 -0.031858 -0.010790
v 0.086826 -0.031568 -0.011024
v 0.087301 -0.031298 -0.010483
v 0.087860 -0.030848 -0.010532
v 0.087050 -0.031298 -0.010831
v 0.087344 -0.030978 -0.010796
v 0.087147 -0.030968 -0.011135
v 0.087413 -0.030748 -0.011108
v 0.094480 -0.034708 -0.010755
v 0.091088 -0.029408 -0.010430
v 0.090911 -0.029168 -0.010882
v 0.095793 -0.030758 -0.010452
v 0.095980 -0.030888 -0.010691
v 0.096131 -0.031278 -0.011070
v 0.096287 -0.030658 -0.011114
v 0.093080 -0.028258 -0.010787
v 0.093708 -0.028468 -0.010399
v 0.093371 -0.028428 -0.010498
v 0.095599 -0.029518 -0.010355
v 0.095918 -0.029818 -0.010548
v 0.096133 -0.029938 -0.010774
v 0.096096 -0.029398 -0.010753
v 0.096352 -0.029868 -0.011141
v 0.094483 -0.027858 -0.010528
v 0.095211 -0.028378 -0.010420
v 0.095593 -0.028528 -0.010531
v 0.095870 -0.028518 -0.010702
v 0.094461 -0.027358 -0.010840
v 0.094387 -0.027158 -0.011107
v 0.095011 -0.027608 -0.010607
v 0.094945 -0.027198 -0.010800
v 0.095439 -0.027448 -0.010769
v 0.095297 -0.027008 -0.010907
v 0.095609 -0.027128 -0.010965
v 0.095000 -0.026848 -0.011088
v 0.095848 -0.027788 -0.010867
v 0.096115 -0.027848 -0.011040
v 0.095988 -0.027338 -0.011120
v 0.081517 -0.051948 -0.011520
v 0.081425 -0.051718 -0.011534
v 0.081587 -0.051808 -0.011693
v 0.081493 -0.051248 -0.011628
v 0.081792 -0.051908 -0.011745
v 0.081864 -0.051708 -0.011939
v 0.081720 -0.051539 -0.011924
v 0.082398 -0.051848 -0.011924
v 0.082252 -0.051668 -0.012096
v 0.081741 -0.051248 -0.011968
v 0.081835 -0.050608 -0.011946
v 0.081959 -0.051348 -0.012125
v 0.082919 -0.051528 -0.012244
v 0.082462 -0.051288 -0.012347
v 0.083507 -0.051708 -0.011524
v 0.083494 -0.051718 -0.011739
v 0.083840 -0.051478 -0.011736
v 0.083002 -0.051858 -0.011834
v 0.083440 -0.051668 -0.011960
v 0.083780 -0.051468 -0.011962
v 0.083296 -0.051558 -0.012168
v 0.083607 -0.051418 -0.012173
v 0.081737 -0.050348 -0.011608
v 0.081950 -0.050018 -0.011830
v 0.083950 -0.051338 -0.011509
v 0.084406 -0.050928 -0.011630
v 0.084332 -0.050948 -0.012044
v 0.083929 -0.051058 -0.012311
v 0.082153 -0.049348 -0.011595
v 0.082420 -0.049468 -0.012244
v 0.084685 -0.050528 -0.012053
v 0.084434 -0.050638 -0.012288
v 0.084878 -0.050248 -0.011415
v 0.084968 -0.050218 -0.011721
v 0.082915 -0.048518 -0.012291
v 0.085473 -0.049278 -0.012231
v 0.084159 -0.045618 -0.011551
v 0.087518 -0.046048 -0.011842
v 0.085073 -0.043148 -0.011517
v 0.085439 -0.043108 -0.012002
v 0.088391 -0.044308 -0.012052
v 0.089218 -0.042628 -0.012060
v 0.085593 -0.040078 -0.011379
v 0.085865 -0.039708 -0.011712
v 0.085939 -0.037908 -0.011552
v 0.090494 -0.040778 -0.011584
v 0.086175 -0.037708 -0.011902
v 0.086122 -0.035378 -0.011298
v 0.092397 -0.038238 -0.011519
v 0.086416 -0.033618 -0.011595
v 0.086455 -0.034068 -0.011933
v 0.093110 -0.037258 -0.011297
v 0.092880 -0.037348 -0.011965
v 0.086780 -0.031578 -0.011467
v 0.093950 -0.035848 -0.011427
v 0.086927 -0.031218 -0.011341
v 0.087316 -0.030678 -0.011448
v 0.087188 -0.030748 -0.011658
v 0.087059 -0.030938 -0.011869
v 0.094448 -0.034908 -0.012034
v 0.087777 -0.030398 -0.011436
v 0.087970 -0.030128 -0.011884
v 0.087333 -0.030578 -0.011998
v 0.087661 -0.030278 -0.011976
v 0.089036 -0.029798 -0.011612
v 0.089744 -0.029338 -0.011944
v 0.089964 -0.029328 -0.011515
v 0.095940 -0.031968 -0.011176
v 0.095823 -0.032378 -0.011504
v 0.096232 -0.031558 -0.011917
v 0.096360 -0.030928 -0.011360
v 0.096341 -0.031218 -0.011561
v 0.096563 -0.030558 -0.011890
v 0.092199 -0.028158 -0.011694
v 0.096548 -0.030278 -0.011659
v 0.096587 -0.028858 -0.011632
v 0.094676 -0.026688 -0.011604
v 0.096461 -0.027888 -0.011417
v 0.096741 -0.028438 -0.011902
v 0.095437 -0.026748 -0.011185
v 0.095733 -0.026918 -0.011187
v 0.095163 -0.026548 -0.011548
v 0.095895 -0.026738 -0.011528
v 0.095553 -0.026518 -0.011624
v 0.096164 -0.027018 -0.011526
v 0.096163 -0.026718 -0.011877
v 0.082479 -0.050808 -0.012457
v 0.082830 -0.051058 -0.012485
v 0.082446 -0.050108 -0.012459
v 0.083136 -0.050478 -0.012671
v 0.083446 -0.051028 -0.012478
v 0.084069 -0.050538 -0.012571
v 0.082832 -0.049128 -0.012575
v 0.082962 -0.049388 -0.012741
v 0.083212 -0.048928 -0.012817
v 0.084073 -0.049568 -0.012921
v 0.083590 -0.049108 -0.012973
v 0.084036 -0.048988 -0.013046
v 0.085255 -0.049418 -0.012460
v 0.084882 -0.049458 -0.012751
v 0.084683 -0.049138 -0.012972
v 0.083584 -0.048118 -0.012763
v 0.083928 -0.048428 -0.013036
v 0.084123 -0.048578 -0.013093
v 0.084496 -0.048098 -0.013123
v 0.085614 -0.048598 -0.012676
v 0.084888 -0.048398 -0.013108
v 0.084304 -0.047318 -0.012897
v 0.084715 -0.047428 -0.013073
v 0.085415 -0.048208 -0.012991
v 0.086262 -0.047838 -0.012434
v 0.085759 -0.046788 -0.013097
v 0.086262 -0.047548 -0.012660
v 0.084553 -0.045728 -0.012271
v 0.084800 -0.045768 -0.012512
v 0.086831 -0.046138 -0.012777
v 0.087371 -0.046008 -0.012320
v 0.086312 -0.044798 -0.012932
v 0.088009 -0.044728 -0.012323
v 0.086179 -0.042928 -0.012467
v 0.086821 -0.043318 -0.012866
v 0.087363 -0.043368 -0.012951
v 0.087365 -0.041778 -0.012897
v 0.088265 -0.042688 -0.012834
v 0.086907 -0.040738 -0.012628
v 0.089239 -0.041758 -0.012558
v 0.086598 -0.039698 -0.012342
v 0.088114 -0.039908 -0.013074
v 0.089402 -0.040468 -0.012951
v 0.090303 -0.040448 -0.012312
v 0.089905 -0.040488 -0.012656
v 0.086760 -0.038048 -0.012389
v 0.090418 -0.039438 -0.012889
v 0.087724 -0.037669 -0.012877
v 0.086445 -0.035278 -0.012157
v 0.086640 -0.036148 -0.012419
v 0.087577 -0.036588 -0.012984
v 0.086820 -0.035068 -0.012588
v 0.087255 -0.035508 -0.012949
v 0.092287 -0.037878 -0.012378
v 0.086781 -0.033948 -0.012450
v 0.093369 -0.036398 -0.012244
v 0.087109 -0.031888 -0.012559
v 0.093963 -0.035518 -0.012474
v 0.086987 -0.031298 -0.012090
v 0.087263 -0.030758 -0.012237
v 0.087269 -0.031008 -0.012486
v 0.094468 -0.034658 -0.012465
v 0.087726 -0.030278 -0.012445
v 0.095092 -0.033538 -0.012212
v 0.088421 -0.029918 -0.012687
v 0.089111 -0.029698 -0.012794
v 0.089256 -0.029638 -0.012683
v 0.090803 -0.028768 -0.012300
v 0.096023 -0.031718 -0.012468
v 0.096541 -0.030718 -0.012090
v 0.096481 -0.030798 -0.012416
v 0.092461 -0.027408 -0.012575
v 0.096659 -0.030238 -0.012511
v 0.096544 -0.030348 -0.012849
v 0.093515 -0.027068 -0.012160
v 0.096719 -0.029098 -0.012049
v 0.096784 -0.029608 -0.012479
v 0.096796 -0.029578 -0.012846
v 0.096892 -0.028878 -0.012800
v 0.094515 -0.026548 -0.012124
v 0.096751 -0.027728 -0.012140
v 0.096900 -0.028118 -0.012783
v 0.094439 -0.026308 -0.012496
v 0.095247 -0.026288 -0.012267
v 0.095398 -0.025948 -0.012801
v 0.096625 -0.027248 -0.012124
v 0.096527 -0.026898 -0.012316
v 0.096270 -0.026438 -0.012597
v 0.096740 -0.027288 -0.012508
v 0.095837 -0.026148 -0.012616
v 0.088443 -0.040348 -0.013093
v 0.088423 -0.039198 -0.013188
v 0.088843 -0.039228 -0.013304
v 0.089949 -0.039108 -0.013244
v 0.088820 -0.037358 -0.013554
v 0.089491 -0.037208 -0.013813
v 0.090163 -0.037308 -0.013854
v 0.091118 -0.037818 -0.013430
v 0.091012 -0.036858 -0.013880
v 0.087636 -0.034178 -0.013256
v 0.092692 -0.036748 -0.013002
v 0.087529 -0.032428 -0.013194
v 0.092527 -0.035628 -0.013875
v 0.093450 -0.035008 -0.013652
v 0.093896 -0.035078 -0.013120
v 0.094102 -0.034238 -0.013452
v 0.094393 -0.034308 -0.013003
v 0.088019 -0.030388 -0.013290
v 0.087972 -0.030768 -0.013447
v 0.088319 -0.029958 -0.013088
v 0.088879 -0.029608 -0.013308
v 0.094641 -0.033318 -0.013323
v 0.090193 -0.028908 -0.013391
v 0.095784 -0.031638 -0.013073
v 0.091968 -0.027498 -0.013134
v 0.096453 -0.030198 -0.013214
v 0.096699 -0.029628 -0.013186
v 0.092627 -0.026718 -0.013627
v 0.096744 -0.029048 -0.013495
v 0.096880 -0.028888 -0.013184
v 0.093055 -0.026718 -0.012895
v 0.096920 -0.028158 -0.013159
v 0.096853 -0.028488 -0.013488
v 0.096868 -0.028078 -0.013493
v 0.094239 -0.025698 -0.013111
v 0.093658 -0.025888 -0.013305
v 0.093569 -0.025818 -0.013596
v 0.093995 -0.025548 -0.013543
v 0.094386 -0.025408 -0.013556
v 0.094669 -0.025648 -0.013072
v 0.096663 -0.026828 -0.013206
v 0.096636 -0.026738 -0.013566
v 0.096830 -0.027398 -0.013033
v 0.096805 -0.027348 -0.013467
v 0.095064 -0.025548 -0.013214
v 0.094731 -0.025448 -0.013334
v 0.095093 -0.025498 -0.013347
v 0.094784 -0.025378 -0.013650
v 0.095586 -0.025678 -0.013211
v 0.095990 -0.025858 -0.013223
v 0.096190 -0.026028 -0.013228
v 0.095597 -0.025598 -0.013561
v 0.096476 -0.026368 -0.013344
v 0.088853 -0.035118 -0.013994
v 0.091166 -0.033698 -0.014700
v 0.088467 -0.031758 -0.014118
v 0.093566 -0.034169 -0.013981
v 0.088753 -0.029618 -0.014035
v 0.088515 -0.030148 -0.014115
v 0.088709 -0.029728 -0.014187
v 0.089004 -0.029638 -0.014582
v 0.089050 -0.030078 -0.014669
v 0.089677 -0.028758 -0.014411
v 0.091061 -0.028188 -0.013825
v 0.090598 -0.028168 -0.014480
v 0.095573 -0.031028 -0.013838
v 0.095467 -0.030368 -0.014302
v 0.091707 -0.027338 -0.014409
v 0.096357 -0.029508 -0.013811
v 0.092587 -0.026618 -0.014538
v 0.096621 -0.028748 -0.013831
v 0.096009 -0.029148 -0.014313
v 0.093239 -0.026128 -0.014224
v 0.096272 -0.027468 -0.014447
v 0.096722 -0.028128 -0.013834
v 0.096172 -0.028268 -0.014427
v 0.093980 -0.025518 -0.013868
v 0.094389 -0.025398 -0.013894
v 0.093658 -0.025728 -0.014019
v 0.093924 -0.025608 -0.014237
v 0.094019 -0.025688 -0.014567
v 0.094295 -0.025588 -0.014514
v 0.094680 -0.025608 -0.014521
v 0.095803 -0.026208 -0.014589
v 0.096598 -0.026868 -0.013893
v 0.096534 -0.027208 -0.014126
v 0.096332 -0.026628 -0.014231
v 0.096076 -0.027078 -0.014623
v 0.096728 -0.027348 -0.013791
v 0.094806 -0.025418 -0.013909
v 0.096256 -0.026078 -0.013871
v 0.095663 -0.025658 -0.013885
v 0.096005 -0.025808 -0.013865
v 0.096149 -0.025998 -0.014006
v 0.095947 -0.025928 -0.014196
v 0.096163 -0.026218 -0.014221
v 0.095616 -0.025748 -0.014218
v 0.095557 -0.025948 -0.014557
v 0.096459 -0.026398 -0.013778
v 0.096347 -0.026378 -0.014044
v 0.089952 -0.031068 -0.015129
v 0.094286 -0.031318 -0.014803
v 0.093663 -0.030358 -0.015503
v 0.090317 -0.028128 -0.014997
v 0.090436 -0.028098 -0.014782
v 0.091127 -0.027508 -0.015003
v 0.091577 -0.027148 -0.015445
v 0.095351 -0.029208 -0.014825
v 0.092340 -0.026688 -0.015086
v 0.095199 -0.028118 -0.015213
v 0.093117 -0.026328 -0.014996
v 0.093500 -0.026078 -0.014737
v 0.093769 -0.026098 -0.015049
v 0.093421 -0.026278 -0.015222
v 0.093963 -0.026148 -0.015212
v 0.095541 -0.027508 -0.015059
v 0.095158 -0.027388 -0.015320
v 0.094158 -0.025838 -0.014877
v 0.094936 -0.025808 -0.014749
v 0.094543 -0.025798 -0.014863
v 0.095124 -0.026088 -0.014963
v 0.094778 -0.026048 -0.015067
v 0.094338 -0.026158 -0.015250
v 0.094922 -0.026478 -0.015279
v 0.094601 -0.026328 -0.015326
v 0.095951 -0.026628 -0.014650
v 0.095658 -0.026488 -0.014852
v 0.095490 -0.026789 -0.015050
v 0.095378 -0.026338 -0.014974
v 0.090520 -0.028348 -0.015734
v 0.090473 -0.028868 -0.015727
v 0.091212 -0.029288 -0.015939
v 0.092854 -0.030538 -0.015652
v 0.092301 -0.030068 -0.015820
v 0.090398 -0.028118 -0.015425
v 0.090908 -0.027728 -0.015734
v 0.090990 -0.027748 -0.015870
v 0.091152 -0.027838 -0.016010
v 0.091191 -0.028248 -0.016085
v 0.091352 -0.028538 -0.016105
v 0.091619 -0.027908 -0.016145
v 0.092068 -0.028328 -0.016208
v 0.092440 -0.029138 -0.016055
v 0.093235 -0.029598 -0.015860
v 0.091233 -0.027488 -0.015743
v 0.091325 -0.027528 -0.015889
v 0.091479 -0.027698 -0.016055
v 0.091925 -0.027258 -0.016092
v 0.092246 -0.027318 -0.016254
v 0.092496 -0.027568 -0.016305
v 0.092731 -0.027998 -0.016249
v 0.093702 -0.028758 -0.015903
v 0.094344 -0.029098 -0.015526
v 0.092418 -0.026658 -0.015711
v 0.092709 -0.026548 -0.015717
v 0.091940 -0.027018 -0.015869
v 0.092585 -0.026708 -0.015965
v 0.092419 -0.027018 -0.016187
v 0.092717 -0.027168 -0.016281
v 0.092871 -0.026868 -0.016173
v 0.093052 -0.027378 -0.016250
v 0.093192 -0.027038 -0.016170
v 0.094343 -0.027608 -0.015777
v 0.093887 -0.027778 -0.015974
v 0.094007 -0.027438 -0.015920
v 0.094459 -0.028078 -0.015675
v 0.093060 -0.026558 -0.015841
v 0.093491 -0.026408 -0.015523
v 0.093789 -0.026538 -0.015626
v 0.093333 -0.026738 -0.015954
v 0.094640 -0.027058 -0.015578
v 0.094285 -0.026878 -0.015683
vn -0.0034 -0.1993 0.9799
vn 0.1583 -0.2123 0.9643
vn 0.0026 -0.0243 0.9997
vn -0.2358 -0.1231 0.9640
vn -0.1860 -0.0284 0.9821
vn -0.3700 -0.0117 0.9290
vn -0.4186 0.1076 0.9018
vn 0.2548 -0.1888 0.9484
vn 0.3600 -0.3253 0.8744
vn -0.2457 0.1146 0.9625
vn 0.2721 -0.0933 0.9577
vn -0.1478 0.1546 0.9769
vn 0.0630 0.1100 0.9919
vn 0.2662 -0.0294 0.9635
vn 0.4764 -0.2910 0.8297
vn 0.5264 -0.2604 0.8094
vn -0.4035 -0.1034 0.9091
vn -0.3539 -0.1469 0.9237
vn -0.2215 -0.2320 0.9471
vn 0.1690 -0.3905 0.9050
vn 0.2399 -0.4152 0.8775
vn 0.0180 -0.3507 0.9363
vn 0.4514 -0.4978 0.7406
vn -0.6161 0.0381 0.7868
vn -0.6692 0.0476 0.7415
vn -0.5079 -0.0676 0.8588
vn -0.0664 -0.2747 0.9592
vn 0.2098 -0.3406 0.9165
vn 0.4102 -0.4167 0.8112
vn 0.6322 -0.5413 0.5544
vn 0.5916 -0.4814 0.6467
vn -0.5465 0.0432 0.8364
vn 0.5801 -0.4252 0.6947
vn -0.5670 0.1612 0.8078
vn -0.7156 0.1950 0.6707
vn -0.7164 0.1360 0.6843
vn -0.8052 0.1349 0.5775
vn -0.8183 0.1968 0.5401
vn -0.6121 0.2299 0.7566
vn -0.3975 0.2244 0.8897
vn -0.7525 0.2169 0.6219
vn 0.6489 -0.3965 0.6494
vn 0.7145 -0.4569 0.5299
vn 0.7278 -0.3718 0.5763
vn 0.7672 -0.5238 0.3701
vn 0.6488 -0.3065 0.6965
vn 0.7900 -0.4312 0.4359
vn -0.5267 0.2436 0.8144
vn -0.3545 0.2237 0.9079
vn -0.6766 0.2131 0.7048
vn -0.1313 0.1496 0.9800
vn 0.5548 -0.1979 0.8081
vn 0.7331 -0.3225 0.5988
vn 0.7001 -0.3187 0.6389
vn -0.2824 0.2024 0.9377
vn -0.4591 0.2378 0.8560
vn 0.5434 -0.1758 0.8209
vn 0.2524 0.0299 0.9672
vn -0.6506 0.1600 0.7424
vn 0.0098 0.0858 0.9963
vn -0.1326 0.1628 0.9777
vn 0.2077 0.0042 0.9782
vn -0.2247 0.2208 0.9491
vn -0.3493 0.2684 0.8977
vn -0.0393 0.1753 0.9837
vn -0.2857 0.3106 0.9066
vn 0.1088 0.1356 0.9848
vn 0.4298 -0.0915 0.8983
vn -0.1536 0.2409 0.9583
vn -0.1395 0.3074 0.9413
vn -0.0155 0.2401 0.9706
vn 0.3645 0.0235 0.9309
vn -0.1810 0.3190 0.9303
vn 0.2107 0.1392 0.9676
vn -0.4255 0.1193 0.8970
vn -0.3976 -0.0158 0.9174
vn -0.6066 0.2505 0.7545
vn -0.2316 -0.0541 0.9713
vn 0.0564 -0.2533 0.9657
vn -0.1527 -0.1830 0.9712
vn 0.2932 -0.3934 0.8713
vn 0.4352 -0.4849 0.7586
vn 0.4593 -0.4750 0.7506
vn -0.5793 0.0201 0.8149
vn -0.1184 -0.2783 0.9532
vn -0.8949 0.2136 0.3919
vn -0.9117 0.1991 0.3594
vn 0.8516 -0.5206 0.0607
vn 0.8346 -0.5104 0.2072
vn 0.7864 -0.4888 0.3778
vn 0.7891 -0.4209 0.4474
vn -0.8545 0.1493 0.4975
vn -0.3382 0.2500 0.9072
vn 0.5297 -0.1224 0.8393
vn 0.6749 -0.2670 0.6879
vn 0.4466 0.0232 0.8945
vn 0.6301 -0.1568 0.7605
vn -0.2197 0.3595 0.9069
vn -0.1416 0.4389 0.8873
vn 0.0623 0.2333 0.9704
vn -0.0335 0.3616 0.9317
vn 0.1063 0.2976 0.9487
vn -0.2875 -0.3089 0.9066
vn -0.1202 -0.5233 0.8436
vn -0.0274 -0.4216 0.9063
vn -0.0264 -0.2958 0.9549
vn -0.2916 -0.1214 0.9488
vn -0.4925 -0.1504 0.8572
vn -0.5606 0.0162 0.8280
vn -0.7033 0.2170 0.6770
vn -0.8122 0.1179 0.5713
vn -0.5224 0.0662 0.8501
vn 0.2002 -0.4470 0.8719
vn -0.0976 -0.1754 0.9797
vn 0.1727 -0.3476 0.9216
vn -0.3132 -0.0332 0.9491
vn -0.8378 0.2150 0.5019
vn 0.4225 -0.5449 0.7242
vn 0.4146 -0.4579 0.7864
vn -0.5250 0.1735 0.8332
vn -0.7609 0.3562 0.5424
vn -0.8626 0.3515 0.3638
vn -0.8554 0.4722 0.2128
vn -0.3021 0.0168 0.9531
vn -0.7766 0.3567 0.5194
vn -0.5974 0.2921 0.7469
vn 0.5883 -0.5590 0.5844
vn -0.9200 0.3775 0.1050
vn -0.9677 0.2458 0.0557
vn 0.8163 -0.5404 0.2040
vn 0.7366 -0.5730 0.3594
vn 0.8547 -0.4978 -0.1471
vn -0.9697 0.1824 0.1626
vn -0.8733 0.1599 0.4602
vn -0.9632 0.1424 0.2282
vn 0.8545 -0.4886 -0.1766
vn 0.8299 -0.5573 -0.0266
vn 0.8069 -0.5218 -0.2768
vn 0.8233 -0.5675 0.0113
vn -0.7853 0.1217 0.6070
vn 0.8373 -0.4893 0.2440
vn 0.7489 -0.3886 0.5368
vn -0.4690 0.1986 0.8606
vn 0.8126 -0.4392 0.3832
vn -0.6249 0.1507 0.7660
vn -0.8003 0.1594 0.5780
vn -0.4761 0.2164 0.8523
vn -0.5704 0.3596 0.7385
vn -0.7078 0.2472 0.6617
vn -0.7756 0.3904 0.4961
vn -0.3146 0.2797 0.9071
vn 0.8027 -0.3678 0.4694
vn 0.8636 -0.4454 0.2363
vn -0.4939 0.6003 0.6290
vn -0.4071 0.3955 0.8233
vn -0.3863 0.6033 0.6977
vn -0.6139 0.5332 0.5821
vn -0.4225 0.7547 0.5019
vn -0.2714 0.5513 0.7889
vn -0.3379 0.7119 0.6157
vn -0.3827 0.8137 0.4375
vn 0.7821 -0.2875 0.5528
vn 0.8746 -0.3586 0.3262
vn -0.2204 0.5850 0.7805
vn -0.2465 0.5529 0.7960
vn -0.0530 0.4225 0.9048
vn 0.6848 -0.1500 0.7131
vn -0.3725 0.7095 0.5982
vn 0.5314 0.0074 0.8471
vn 0.6820 -0.0711 0.7279
vn 0.1138 0.2722 0.9555
vn 0.4997 0.1102 0.8591
vn 0.6449 0.0426 0.7631
vn -0.0472 0.3267 0.9439
vn -0.1516 0.4163 0.8965
vn 0.3169 0.1607 0.9347
vn -0.9790 0.1900 -0.0744
vn -0.9744 0.0796 0.2102
vn -0.9607 0.2168 0.1734
vn -0.9399 0.3120 -0.1391
vn -0.9356 0.2289 -0.2688
vn -0.4264 -0.5357 0.7289
vn -0.1604 -0.7157 0.6798
vn -0.0116 -0.8993 0.4372
vn 0.0932 -0.6365 0.7656
vn -0.6571 -0.2923 0.6948
vn -0.8031 -0.0371 0.5946
vn -0.6794 -0.5323 0.5050
vn -0.3632 -0.8268 0.4295
vn -0.8994 -0.1877 0.3948
vn -0.6704 -0.7228 0.1678
vn -0.9963 -0.0791 -0.0322
vn -0.3504 -0.9354 0.0469
vn -0.8994 -0.4163 0.1333
vn -0.0574 -0.9975 0.0418
vn -0.1847 -0.9121 -0.3659
vn 0.0490 -0.9578 -0.2833
vn -0.6245 -0.7388 -0.2535
vn -0.8627 -0.3738 -0.3406
vn -0.8603 -0.1465 -0.4883
vn -0.9558 0.0664 -0.2865
vn -0.5618 -0.6167 -0.5514
vn -0.8649 0.1285 -0.4853
vn 0.3036 -0.6417 0.7043
vn 0.1981 -0.8422 0.5014
vn 0.3598 -0.8209 0.4435
vn 0.4468 -0.7788 0.4402
vn 0.1863 -0.9745 0.1251
vn 0.2627 -0.9644 -0.0313
vn -0.0092 -0.8036 -0.5951
vn 0.1801 -0.8806 -0.4382
vn 0.4011 -0.9151 0.0412
vn -0.9434 0.3013 0.1387
vn -0.8942 0.3121 -0.3210
vn -0.8625 0.4190 -0.2838
vn 0.5336 -0.6934 0.4843
vn 0.5519 -0.8098 0.1993
vn 0.4600 -0.8743 -0.1548
vn -0.9241 0.3817 0.0157
vn -0.8898 0.4563 -0.0038
vn 0.6390 -0.6851 0.3499
vn 0.7304 -0.6607 0.1733
vn -0.8629 0.4045 -0.3030
vn 0.8207 -0.5714 0.0013
vn 0.8100 -0.5135 -0.2830
vn -0.8949 0.2483 -0.3707
vn -0.9809 0.1647 -0.1039
vn -0.8978 0.1392 -0.4178
vn -0.9185 0.0917 -0.3846
vn -0.9888 0.1199 -0.0887
vn -0.9837 0.1171 0.1361
vn -0.9616 0.1437 0.2337
vn -0.9776 0.1191 -0.1737
vn -0.9871 0.1544 0.0413
vn -0.9094 0.1530 0.3868
vn -0.9774 0.2057 0.0495
vn 0.8474 -0.5277 -0.0590
vn 0.8572 -0.5129 -0.0464
vn -0.9299 0.1832 0.3189
vn -0.8842 0.2702 0.3810
vn 0.8603 -0.4907 0.1383
vn -0.9041 0.3583 0.2328
vn -0.7616 0.5111 0.3984
vn -0.8799 0.4585 0.1245
vn -0.9600 0.2721 -0.0659
vn -0.5619 0.6696 0.4856
vn -0.7308 0.6120 0.3022
vn -0.5103 0.7678 0.3873
vn -0.4185 0.8305 0.3675
vn 0.8890 -0.4534 0.0638
vn -0.3097 0.7125 0.6296
vn -0.4085 0.8639 0.2947
vn 0.8522 -0.2532 0.4579
vn 0.7934 -0.1487 0.5902
vn 0.9298 -0.3148 0.1907
vn 0.8004 -0.0154 0.5992
vn 0.8763 -0.1096 0.4692
vn 0.8923 -0.0176 0.4511
vn 0.9184 -0.1966 0.3433
vn 0.9509 -0.0847 0.2975
vn -0.4523 0.7781 0.4358
vn -0.1212 0.4072 0.9053
vn 0.4314 0.2066 0.8782
vn 0.7402 0.0727 0.6685
vn -0.3202 0.6066 0.7277
vn -0.4299 0.7238 0.5398
vn -0.4437 0.7169 0.5377
vn 0.2650 0.2524 0.9306
vn 0.0886 0.3512 0.9321
vn 0.4947 0.2461 0.8335
vn 0.3287 0.3071 0.8931
vn 0.5849 0.1568 0.7958
vn 0.6646 0.2084 0.7175
vn 0.8256 0.1778 0.5355
vn -0.2147 0.7615 0.6116
vn -0.1228 0.5403 0.8325
vn 0.1360 0.5676 0.8120
vn 0.4189 0.4321 0.7986
vn 0.6223 0.3521 0.6991
vn 0.1787 0.7670 0.6162
vn 0.4788 0.5784 0.6605
vn -0.2728 -0.7211 -0.6369
vn -0.6173 -0.4035 -0.6753
vn -0.7128 0.0288 -0.7007
vn -0.7901 0.1942 -0.5814
vn -0.6401 -0.1975 -0.7425
vn -0.3743 -0.4793 -0.7938
vn -0.4736 -0.1870 -0.8607
vn 0.0342 -0.6145 -0.7881
vn -0.1791 -0.5737 -0.7993
vn -0.8444 0.3227 -0.4277
vn -0.6013 0.0836 -0.7947
vn -0.3715 -0.1170 -0.9210
vn -0.2199 -0.3565 -0.9081
vn -0.0896 -0.3296 -0.9399
vn 0.1338 -0.4348 -0.8905
vn 0.6370 -0.7702 -0.0326
vn 0.3452 -0.8263 -0.4450
vn 0.5490 -0.7462 -0.3765
vn 0.1853 -0.6809 -0.7086
vn 0.3558 -0.6431 -0.6781
vn -0.7748 0.3070 -0.5526
vn -0.7545 0.4191 -0.5050
vn 0.6660 -0.6674 -0.3331
vn 0.4090 -0.5786 -0.7056
vn 0.5741 -0.5414 -0.6142
vn 0.7539 -0.5898 -0.2892
vn 0.6776 -0.4900 -0.5485
vn -0.7075 0.3667 -0.6041
vn -0.5372 0.3446 -0.7699
vn 0.7810 -0.4644 -0.4177
vn 0.7649 -0.4104 -0.4964
vn 0.8266 -0.4255 -0.3682
vn -0.6694 0.1961 -0.7165
vn -0.3097 0.1888 -0.9319
vn 0.6997 -0.3352 -0.6309
vn -0.7462 0.1011 -0.6580
vn -0.5467 0.0808 -0.8334
vn 0.7897 -0.4111 -0.4554
vn 0.6026 -0.3596 -0.7124
vn 0.6779 -0.4754 -0.5608
vn 0.5501 -0.3878 -0.7396
vn -0.7566 0.0176 -0.6536
vn -0.5466 -0.0240 -0.8371
vn -0.6993 -0.0138 -0.7147
vn -0.8432 0.0596 -0.5343
vn -0.9126 0.1158 -0.3920
vn 0.7957 -0.5724 -0.1981
vn 0.7885 -0.5276 -0.3161
vn 0.7163 -0.5396 -0.4424
vn -0.9693 0.1561 -0.1899
vn -0.7834 0.0714 -0.6174
vn -0.9111 0.2503 -0.3274
vn -0.8413 0.1415 -0.5217
vn 0.7768 -0.5458 -0.3140
vn -0.8823 0.4533 -0.1268
vn 0.7835 -0.5393 -0.3087
vn 0.8649 -0.4836 -0.1346
vn -0.7635 0.6390 0.0938
vn -0.6164 0.7469 0.2493
vn -0.5621 0.8235 0.0767
vn -0.7421 0.6652 -0.0826
vn 0.8410 -0.4429 -0.3108
vn -0.4042 0.8966 0.1810
vn -0.6420 0.7425 -0.1915
vn -0.3895 0.9187 0.0661
vn 0.8551 -0.4418 -0.2715
vn -0.4234 0.8793 0.2183
vn -0.4862 0.8640 0.1310
vn -0.4910 0.8371 0.2412
vn 0.9071 -0.4174 -0.0553
vn 0.8454 -0.4480 -0.2910
vn 0.9074 -0.3740 -0.1917
vn 0.9703 -0.1871 0.1531
vn 0.9575 -0.2882 0.0044
vn 0.9611 -0.0666 0.2681
vn 0.9854 -0.1243 0.1164
vn 0.9115 -0.0340 0.4098
vn 0.9417 0.0012 0.3363
vn 0.9944 -0.0718 0.0772
vn -0.3745 0.8319 0.4096
vn -0.3368 0.8283 0.4478
vn 0.9475 0.1519 0.2815
vn 0.8693 0.3375 0.3610
vn -0.1434 0.9002 0.4111
vn 0.7051 0.4642 0.5361
vn 0.1971 0.8796 0.4330
vn 0.4972 0.7026 0.5090
vn 0.3175 0.8201 0.4761
vn 0.6262 0.6563 0.4209
vn -0.0985 0.9007 0.4232
vn 0.8191 0.4893 0.2994
vn -0.6801 0.2798 -0.6776
vn -0.1038 -0.2250 -0.9688
vn 0.2943 -0.4245 -0.8562
vn -0.4816 0.0564 -0.8746
vn -0.5786 0.3505 -0.7365
vn -0.5000 0.1987 -0.8429
vn -0.2331 -0.0612 -0.9705
vn 0.0460 -0.2643 -0.9633
vn 0.4663 -0.4201 -0.7785
vn -0.3337 0.1586 -0.9293
vn -0.0424 -0.1580 -0.9865
vn -0.1219 -0.0175 -0.9924
vn 0.1473 -0.1433 -0.9787
vn 0.2304 -0.2877 -0.9296
vn -0.4389 0.3001 -0.8469
vn -0.1034 0.0538 -0.9932
vn 0.1432 -0.0310 -0.9892
vn -0.2120 0.1720 -0.9620
vn 0.6297 -0.4093 -0.6603
vn 0.4104 -0.2526 -0.8763
vn 0.6439 -0.3574 -0.6765
vn 0.5260 -0.2505 -0.8127
vn 0.3618 -0.1970 -0.9112
vn -0.5014 0.1355 -0.8546
vn -0.3017 0.1208 -0.9457
vn 0.0053 0.0062 -1.0000
vn -0.4348 0.0849 -0.8965
vn -0.3075 0.0529 -0.9501
vn -0.0162 -0.1162 -0.9931
vn -0.2721 -0.0328 -0.9617
vn 0.3028 -0.2706 -0.9138
vn -0.3578 -0.0410 -0.9329
vn 0.4577 -0.4290 -0.7788
vn -0.4575 -0.0947 -0.8842
vn -0.5801 -0.0533 -0.8128
vn -0.4733 -0.1324 -0.8709
vn -0.7036 0.0283 -0.7101
vn -0.6212 -0.0308 -0.7830
vn 0.6369 -0.5101 -0.5781
vn -0.7482 0.0516 -0.6615
vn -0.8357 0.2947 -0.4635
vn -0.8255 0.2112 -0.5234
vn 0.7193 -0.4686 -0.5129
vn -0.8175 0.4859 -0.3093
vn -0.8053 0.4602 -0.3738
vn 0.7977 -0.3920 -0.4582
vn 0.7513 -0.4031 -0.5225
vn 0.6946 -0.3521 -0.6273
vn -0.6269 0.7753 -0.0763
vn -0.3753 0.9059 0.1963
vn -0.5027 0.8592 0.0951
vn -0.4686 0.8604 0.2005
vn -0.4933 0.8315 0.2555
vn 0.7798 -0.4309 -0.4542
vn -0.6305 0.7131 0.3066
vn 0.9611 -0.2629 -0.0846
vn 0.8824 -0.3646 -0.2973
vn 0.8074 -0.3750 -0.4555
vn -0.5336 0.7072 0.4638
vn 0.9703 -0.2162 -0.1083
vn 0.8853 -0.2971 -0.3578
vn -0.5229 0.6609 0.5383
vn -0.2794 0.7472 0.6030
vn -0.2213 0.7260 0.6512
vn 0.9919 0.0565 0.1136
vn 0.9982 0.0289 -0.0521
vn 0.0688 0.7906 0.6084
vn -0.0621 0.7416 0.6679
vn 0.6417 0.6796 0.3555
vn 0.9448 0.2774 0.1745
vn 0.9779 0.2039 0.0461
vn 0.9338 0.3496 0.0769
vn 0.7028 0.6822 0.2016
vn 0.5204 0.8074 0.2779
vn -0.0989 -0.1844 -0.9779
vn 0.2271 -0.3453 -0.9106
vn -0.4111 -0.1317 -0.9020
vn -0.4363 -0.1370 -0.8893
vn -0.1988 -0.1871 -0.9620
vn 0.3775 -0.4208 -0.8249
vn 0.0309 -0.2685 -0.9628
vn 0.3659 -0.3889 -0.8455
vn 0.2085 -0.3165 -0.9254
vn -0.6245 -0.0431 -0.7799
vn 0.5658 -0.4267 -0.7055
vn 0.5269 -0.3548 -0.7723
vn -0.8028 0.1816 -0.5679
vn -0.7231 0.6860 -0.0812
vn -0.5994 0.7846 0.1589
vn 0.6892 -0.3867 -0.6127
vn -0.5949 0.7524 0.2828
vn 0.7381 -0.3142 -0.5970
vn -0.6543 0.7330 0.1861
vn -0.6117 0.7477 0.2585
vn -0.5213 0.7072 0.4776
vn 0.9761 -0.1391 -0.1673
vn 0.9417 -0.0989 -0.3216
vn 0.8711 -0.2446 -0.4259
vn 0.7855 -0.1979 -0.5864
vn 0.8463 -0.0656 -0.5287
vn -0.6262 0.7554 0.1931
vn -0.6241 0.7780 -0.0725
vn 0.9653 0.0182 -0.2605
vn 0.9278 0.1079 -0.3572
vn 0.9756 0.1794 -0.1265
vn -0.0166 0.9076 0.4195
vn -0.4201 0.8606 0.2878
vn -0.1986 0.9504 0.2394
vn -0.4140 0.9098 -0.0288
vn 0.1120 0.9931 0.0359
vn -0.1275 0.9824 -0.1363
vn 0.8511 0.5179 0.0859
vn 0.9398 0.3257 -0.1036
vn 0.9006 0.2420 -0.3610
vn 0.8812 0.4278 -0.2012
vn 0.2085 0.9408 0.2672
vn 0.1606 0.9607 -0.2265
vn 0.1282 0.8391 0.5287
vn 0.2931 0.8684 0.4001
vn 0.3551 0.9331 0.0562
vn 0.5758 0.8052 -0.1420
vn 0.7999 0.5739 -0.1757
vn 0.3434 0.9184 -0.1966
vn -0.3870 -0.1687 -0.9065
vn 0.0008 -0.2654 -0.9641
vn -0.6331 -0.0060 -0.7740
vn 0.5161 -0.3393 -0.7864
vn -0.8089 0.4545 -0.3731
vn -0.7381 0.2496 -0.6268
vn -0.7192 0.6026 -0.3459
vn 0.6232 -0.3280 -0.7100
vn -0.4960 0.7689 0.4033
vn -0.5959 0.7859 0.1649
vn -0.5400 0.7769 0.3239
vn 0.5738 -0.2446 -0.7816
vn -0.5031 0.8606 0.0790
vn 0.6504 -0.2521 -0.7165
vn -0.5730 0.8157 0.0798
vn 0.6723 -0.1549 -0.7239
vn -0.4603 0.8404 -0.2860
vn -0.4079 0.9037 -0.1304
vn 0.8198 0.0872 -0.5659
vn 0.7163 -0.0312 -0.6971
vn -0.5991 0.7954 -0.0920
vn -0.4129 0.8773 -0.2446
vn -0.1080 0.9130 -0.3935
vn -0.3436 0.8472 -0.4051
vn -0.2958 0.8345 -0.4648
vn 0.1403 0.8990 -0.4148
vn -0.1632 0.7978 -0.5804
vn 0.0698 0.7890 -0.6104
vn 0.6699 0.2253 -0.7075
vn 0.5858 0.4580 -0.6686
vn 0.7220 0.4280 -0.5436
vn 0.2669 0.7808 -0.5649
vn 0.4336 0.6669 -0.6060
vn 0.3699 0.5825 -0.7238
vn 0.4803 0.3984 -0.7814
vn 0.7798 0.2474 -0.5751
vn 0.8272 0.3796 -0.4143
vn 0.6810 0.0793 -0.7280
vn 0.5962 -0.0455 -0.8015
vn 0.5467 0.1567 -0.8226
vn 0.3585 0.8420 -0.4031
vn 0.7195 0.5983 -0.3527
vn 0.5570 0.6704 -0.4903
vn -0.4930 -0.0509 -0.8685
vn 0.1401 -0.3051 -0.9420
vn -0.0057 -0.2652 -0.9642
vn -0.6636 0.7478 0.0200
vn 0.3653 -0.2976 -0.8820
vn -0.6646 0.6773 -0.3155
vn -0.5799 0.8119 -0.0667
vn -0.5808 0.7556 -0.3029
vn -0.5060 0.7374 -0.4475
vn 0.4757 -0.2273 -0.8497
vn 0.5575 -0.1532 -0.8159
vn -0.4389 0.8692 -0.2277
vn 0.5247 0.0094 -0.8513
vn 0.4696 -0.1292 -0.8734
vn -0.2353 0.9122 -0.3356
vn -0.2536 0.9213 -0.2948
vn -0.1189 0.7820 -0.6119
vn 0.0627 0.6760 -0.7343
vn 0.1769 0.6421 -0.7460
vn 0.0173 0.8494 -0.5275
vn 0.4376 0.1633 -0.8842
vn 0.3969 0.3572 -0.8455
vn 0.2504 0.5061 -0.8253
vn 0.3266 0.3298 -0.8858
vn 0.2366 0.6319 -0.7380
vn 0.5758 0.2904 -0.7643
vn -0.2118 -0.2034 -0.9559
vn -0.6243 0.2203 -0.7495
vn -0.3211 0.0239 -0.9468
vn 0.0295 -0.2171 -0.9757
vn 0.2161 -0.2370 -0.9472
vn -0.5678 0.5092 -0.6468
vn -0.3879 0.3014 -0.8710
vn -0.4645 0.5858 -0.6642
vn -0.2079 -0.1226 -0.9704
vn -0.3372 0.3217 -0.8848
vn -0.2197 0.0881 -0.9716
vn -0.0715 -0.1215 -0.9900
vn 0.1221 -0.1345 -0.9834
vn 0.3238 -0.1757 -0.9297
vn -0.4291 0.4829 -0.7633
vn -0.2742 0.5110 -0.8147
vn -0.2449 0.2186 -0.9446
vn -0.0330 -0.0121 -0.9994
vn 0.0140 0.2034 -0.9790
vn 0.2194 0.0145 -0.9755
vn 0.3452 -0.0658 -0.9362
vn -0.2654 0.7692 -0.5814
vn 0.0143 0.8248 -0.5653
vn 0.0368 0.5327 -0.8455
vn 0.2383 0.5892 -0.7721
vn 0.2756 0.2824 -0.9189
vn 0.4480 -0.0041 -0.8940
vn 0.3765 0.0972 -0.9213
s 1
usemtl mtl1.312
f 20//1 2//2 6//3
f 19//4 5//5 1//6
f 5//5 4//7 1//6
f 19//4 6//3 5//5
f 20//1 6//3 19//4
f 6//3 2//2 7//8
f 2//2 26//9 7//8
f 5//5 6//3 3//10
f 5//5 3//10 4//7
f 6//3 7//8 8//11
f 3//10 6//3 9//12
f 8//11 10//13 6//3
f 34//14 10//13 8//11
f 6//3 10//13 9//12
f 29//15 31//16 8//11
f 7//8 29//15 8//11
f 8//11 31//16 34//14
f 17//17 63//18 11//19
f 59//20 13//21 12//22
f 59//20 14//23 13//21
f 15//24 65//25 64//26
f 17//17 11//19 16//27
f 11//19 12//22 16//27
f 12//22 13//21 16//27
f 15//24 64//26 17//17
f 18//28 16//27 13//21
f 18//28 13//21 21//29
f 18//28 21//29 26//9
f 13//21 14//23 21//29
f 67//30 22//31 14//23
f 1//6 25//32 17//17
f 1//6 17//17 19//4
f 25//32 15//24 17//17
f 16//27 19//4 17//17
f 16//27 18//28 20//1
f 19//4 16//27 20//1
f 18//28 2//2 20//1
f 18//28 26//9 2//2
f 21//29 27//33 26//9
f 22//31 27//33 21//29
f 21//29 14//23 22//31
f 28//34 24//35 23//36
f 23//36 65//25 15//24
f 66//37 65//25 23//36
f 66//37 23//36 69//38
f 69//38 23//36 24//35
f 1//6 4//7 25//32
f 28//34 25//32 4//7
f 23//36 15//24 25//32
f 28//34 23//36 25//32
f 33//39 28//34 32//40
f 33//39 24//35 28//34
f 69//38 24//35 72//41
f 24//35 33//39 72//41
f 4//7 32//40 28//34
f 3//10 32//40 4//7
f 26//9 27//33 29//15
f 29//15 7//8 26//9
f 30//42 27//33 70//43
f 30//42 70//43 37//44
f 68//45 70//43 27//33
f 3//10 9//12 32//40
f 31//16 29//15 27//33
f 27//33 30//42 31//16
f 30//42 36//46 31//16
f 70//43 73//47 37//44
f 33//39 32//40 39//48
f 38//49 39//48 32//40
f 33//39 39//48 74//50
f 10//13 40//51 9//12
f 32//40 9//12 40//51
f 31//16 35//52 34//14
f 31//16 36//46 35//52
f 36//46 75//53 35//52
f 35//52 75//53 76//54
f 36//46 37//44 75//53
f 36//46 30//42 37//44
f 32//40 40//51 38//49
f 40//51 41//55 38//49
f 42//56 39//48 38//49
f 10//13 34//14 40//51
f 35//52 43//57 52//58
f 34//14 35//52 52//58
f 76//54 43//57 35//52
f 113//59 39//48 42//56
f 42//56 38//49 41//55
f 40//51 45//60 44//61
f 34//14 45//60 40//51
f 45//60 34//14 46//62
f 34//14 52//58 46//62
f 40//51 44//61 41//55
f 41//55 44//61 47//63
f 42//56 41//55 49//64
f 41//55 47//63 49//64
f 44//61 45//60 50//65
f 49//64 47//63 77//66
f 50//65 47//63 44//61
f 50//65 45//60 51//67
f 45//60 46//62 51//67
f 43//57 53//68 52//58
f 50//65 48//69 47//63
f 77//66 47//63 48//69
f 77//66 48//69 78//70
f 48//69 54//71 78//70
f 54//71 50//65 51//67
f 50//65 54//71 48//69
f 46//62 52//58 51//67
f 51//67 52//58 54//71
f 52//58 53//68 80//72
f 77//66 78//70 82//73
f 79//74 54//71 52//58
f 52//58 80//72 79//74
f 55//75 58//76 105//77
f 56//78 103//79 57//80
f 58//76 55//75 56//78
f 56//78 57//80 58//76
f 101//81 59//20 103//79
f 103//79 59//20 57//80
f 59//20 101//81 60//82
f 60//82 101//81 102//83
f 58//76 61//84 105//77
f 59//20 62//85 57//80
f 63//18 57//80 62//85
f 14//23 60//82 67//30
f 64//26 65//25 61//84
f 61//84 58//76 63//18
f 65//25 66//37 61//84
f 63//18 62//85 11//19
f 59//20 12//22 62//85
f 12//22 11//19 62//85
f 63//18 58//76 57//80
f 59//20 60//82 14//23
f 63//18 64//26 61//84
f 17//17 64//26 63//18
f 106//86 69//38 107//87
f 27//33 22//31 68//45
f 22//31 67//30 68//45
f 106//86 66//37 69//38
f 108//88 110//89 68//45
f 71//90 70//43 68//45
f 71//90 73//47 70//43
f 71//90 110//89 73//47
f 71//90 68//45 110//89
f 72//41 33//39 74//50
f 75//53 73//47 112//91
f 112//91 73//47 110//89
f 113//59 74//50 39//48
f 72//41 74//50 194//92
f 75//53 37//44 73//47
f 194//92 74//50 113//59
f 112//91 76//54 75//53
f 77//66 82//73 119//93
f 77//66 119//93 49//64
f 81//94 53//68 43//57
f 53//68 81//94 80//72
f 81//94 43//57 126//95
f 43//57 76//54 126//95
f 54//71 82//73 78//70
f 80//72 135//96 79//74
f 80//72 81//94 135//96
f 135//96 81//94 131//97
f 119//93 82//73 129//98
f 82//73 54//71 133//99
f 54//71 83//100 84//101
f 83//100 85//102 84//101
f 54//71 84//101 133//99
f 54//71 79//74 83//100
f 85//102 83//100 79//74
f 82//73 133//99 129//98
f 86//103 143//104 87//105
f 86//103 88//106 90//107
f 86//103 87//105 88//106
f 86//103 90//107 144//108
f 145//109 144//108 90//107
f 95//110 150//111 145//109
f 93//112 95//110 145//109
f 145//109 90//107 93//112
f 87//105 89//113 88//106
f 90//107 88//106 91//114
f 91//114 88//106 94//115
f 90//107 91//114 92//116
f 93//112 90//107 92//116
f 174//117 150//111 95//110
f 88//106 89//113 94//115
f 94//115 178//118 98//119
f 97//120 95//110 93//112
f 95//110 97//120 100//121
f 100//121 181//122 95//110
f 185//123 181//122 100//121
f 92//116 91//114 96//124
f 91//114 56//78 96//124
f 56//78 91//114 103//79
f 92//116 96//124 93//112
f 93//112 96//124 97//120
f 91//114 94//115 103//79
f 94//115 101//81 103//79
f 94//115 98//119 101//81
f 101//81 98//119 102//83
f 105//77 104//125 99//126
f 99//126 104//125 100//121
f 97//120 99//126 100//121
f 185//123 100//121 104//125
f 96//124 56//78 55//75
f 55//75 99//126 97//120
f 97//120 96//124 55//75
f 183//127 102//83 98//119
f 105//77 99//126 55//75
f 60//82 102//83 183//127
f 67//30 60//82 183//127
f 61//84 104//125 105//77
f 104//125 61//84 66//37
f 104//125 66//37 187//128
f 187//128 66//37 106//86
f 187//128 106//86 188//129
f 186//130 67//30 277//131
f 186//130 68//45 67//30
f 186//130 108//88 68//45
f 282//132 108//88 186//130
f 106//86 107//87 189//133
f 109//134 107//87 69//38
f 109//134 192//135 107//87
f 189//133 107//87 192//135
f 191//136 111//137 108//88
f 109//134 69//38 72//41
f 108//88 111//137 110//89
f 191//136 290//138 111//137
f 194//92 192//135 109//134
f 194//92 109//134 72//41
f 198//139 110//89 111//137
f 201//140 194//92 113//59
f 200//141 120//142 112//91
f 110//89 200//141 112//91
f 115//143 113//59 42//56
f 112//91 120//142 76//54
f 200//141 116//144 120//142
f 114//145 202//146 113//59
f 114//145 113//59 115//143
f 114//145 115//143 117//147
f 49//64 119//93 115//143
f 42//56 49//64 115//143
f 121//148 118//149 117//147
f 117//147 118//149 114//145
f 121//148 206//150 118//149
f 114//145 118//149 202//146
f 115//143 119//93 117//147
f 117//147 119//93 123//151
f 76//54 120//142 126//95
f 130//152 126//95 120//142
f 116//144 130//152 120//142
f 116//144 200//141 215//153
f 130//152 116//144 215//153
f 121//148 117//147 123//151
f 122//154 121//148 124//155
f 124//155 125//156 122//154
f 206//150 121//148 209//157
f 209//157 121//148 122//154
f 210//158 209//157 122//154
f 210//158 122//154 125//156
f 119//93 129//98 123//151
f 129//98 127//159 123//151
f 124//155 121//148 123//151
f 123//151 127//159 124//155
f 125//156 124//155 127//159
f 125//156 127//159 128//160
f 128//160 127//159 217//161
f 210//158 125//156 128//160
f 127//159 129//98 133//99
f 126//95 131//97 81//94
f 126//95 132//162 131//97
f 126//95 130//152 132//162
f 132//162 130//152 312//163
f 134//164 127//159 133//99
f 133//99 224//165 134//164
f 138//166 133//99 84//101
f 131//97 136//167 135//96
f 132//162 136//167 131//97
f 134//164 224//165 222//168
f 138//166 224//165 133//99
f 138//166 84//101 85//102
f 135//96 136//167 137//169
f 136//167 218//170 137//169
f 141//171 85//102 79//74
f 135//96 137//169 225//172
f 137//169 226//173 225//172
f 138//166 141//171 139//174
f 138//166 139//174 223//175
f 224//165 138//166 223//175
f 85//102 141//171 138//166
f 135//96 140//176 79//74
f 135//96 225//172 140//176
f 79//74 140//176 141//171
f 142//177 154//178 175//179
f 142//177 177//180 163//181
f 146//182 147//183 143//104
f 146//182 143//104 86//103
f 147//183 166//184 164//185
f 143//104 147//183 164//185
f 144//108 148//186 86//103
f 143//104 164//185 87//105
f 149//187 144//108 145//109
f 150//111 149//187 145//109
f 148//186 151//188 146//182
f 146//182 151//188 152//189
f 147//183 146//182 152//189
f 147//183 152//189 166//184
f 151//188 148//186 153//190
f 86//103 148//186 146//182
f 148//186 144//108 149//187
f 153//190 148//186 149//187
f 153//190 149//187 154//178
f 154//178 149//187 150//111
f 151//188 155//191 152//189
f 153//190 154//178 158//192
f 154//178 150//111 175//179
f 155//191 156//193 152//189
f 157//194 151//188 153//190
f 155//191 151//188 157//194
f 169//195 152//189 156//193
f 153//190 158//192 157//194
f 160//196 169//195 156//193
f 172//197 169//195 160//196
f 142//177 158//192 154//178
f 157//194 159//198 155//191
f 155//191 159//198 156//193
f 156//193 159//198 160//196
f 157//194 158//192 161//199
f 157//194 161//199 159//198
f 161//199 158//192 246//200
f 142//177 162//201 158//192
f 162//201 246//200 158//192
f 162//201 142//177 163//181
f 246//200 245//202 161//199
f 161//199 245//202 159//198
f 159//198 245//202 160//196
f 248//203 246//200 162//201
f 248//203 162//201 163//181
f 164//185 89//113 87//105
f 89//113 165//204 178//118
f 89//113 178//118 94//115
f 166//184 167//205 164//185
f 164//185 167//205 165//204
f 165//204 89//113 164//185
f 165//204 168//206 178//118
f 167//205 168//206 165//204
f 178//118 168//206 171//207
f 152//189 169//195 166//184
f 166//184 169//195 170//208
f 170//208 167//205 166//184
f 168//206 167//205 170//208
f 170//208 169//195 172//197
f 170//208 173//209 168//206
f 168//206 173//209 171//207
f 170//208 172//197 173//209
f 252//210 172//197 160//196
f 173//209 172//197 262//211
f 173//209 262//211 180//212
f 171//207 173//209 180//212
f 174//117 95//110 181//122
f 175//179 150//111 174//117
f 176//213 175//179 174//117
f 176//213 174//117 181//122
f 177//180 175//179 176//213
f 177//180 142//177 175//179
f 163//181 177//180 267//214
f 267//214 177//180 273//215
f 163//181 267//214 248//203
f 171//207 179//216 178//118
f 179//216 171//207 180//212
f 179//216 180//212 259//217
f 260//218 259//217 180//212
f 176//213 181//122 182//219
f 177//180 176//213 182//219
f 177//180 182//219 273//215
f 273//215 182//219 184//220
f 178//118 183//127 98//119
f 178//118 179//216 183//127
f 259//217 269//221 179//216
f 269//221 270//222 183//127
f 179//216 269//221 183//127
f 183//127 270//222 277//131
f 182//219 181//122 184//220
f 184//220 181//122 185//123
f 273//215 184//220 281//223
f 281//223 184//220 185//123
f 278//224 186//130 277//131
f 183//127 277//131 67//30
f 278//224 282//132 186//130
f 282//132 278//224 280//225
f 185//123 104//125 187//128
f 281//223 185//123 187//128
f 283//226 281//223 187//128
f 187//128 188//129 283//226
f 189//133 188//129 106//86
f 190//227 188//129 189//133
f 188//129 190//227 283//226
f 287//228 283//226 190//227
f 289//229 287//228 190//227
f 190//227 189//133 193//230
f 193//230 289//229 190//227
f 189//133 192//135 193//230
f 192//135 194//92 195//231
f 193//230 192//135 195//231
f 111//137 290//138 198//139
f 194//92 196//232 195//231
f 193//230 195//231 292//233
f 196//232 197//234 195//231
f 195//231 197//234 292//233
f 194//92 201//140 199//235
f 199//235 196//232 194//92
f 196//232 199//235 197//234
f 292//233 197//234 204//236
f 198//139 200//141 110//89
f 296//237 200//141 198//139
f 296//237 299//238 200//141
f 113//59 202//146 201//140
f 199//235 201//140 202//146
f 199//235 202//146 203//239
f 203//239 202//146 207//240
f 199//235 203//239 197//234
f 203//239 207//240 204//236
f 197//234 203//239 204//236
f 299//238 205//241 200//141
f 118//149 207//240 202//146
f 206//150 207//240 118//149
f 207//240 206//150 208//242
f 208//242 206//150 211//243
f 204//236 207//240 208//242
f 300//244 208//242 211//243
f 298//245 208//242 300//244
f 298//245 204//236 208//242
f 205//241 215//153 200//141
f 299//238 215//153 205//241
f 212//246 209//157 210//158
f 211//243 206//150 209//157
f 212//246 211//243 209//157
f 212//246 213//247 211//243
f 300//244 211//243 213//247
f 213//247 212//246 214//248
f 212//246 210//158 214//248
f 214//248 210//158 305//249
f 128//160 217//161 210//158
f 312//163 130//152 215//153
f 215//153 313//250 312//163
f 127//159 216//251 217//161
f 311//252 210//158 217//161
f 127//159 134//164 216//251
f 222//168 216//251 134//164
f 222//168 217//161 216//251
f 220//253 136//167 132//162
f 220//253 132//162 312//163
f 219//254 136//167 220//253
f 312//163 316//255 220//253
f 218//170 227//256 226//173
f 137//169 218//170 226//173
f 218//170 136//167 219//254
f 218//170 219//254 227//256
f 227//256 219//254 221//257
f 221//257 219//254 220//253
f 229//258 227//256 221//257
f 315//259 221//257 220//253
f 221//257 315//259 319//260
f 217//161 222//168 318//261
f 223//175 139//174 230//262
f 230//262 139//174 141//171
f 230//262 224//165 223//175
f 140//176 225//172 232//263
f 225//172 226//173 228//264
f 228//264 226//173 227//256
f 228//264 227//256 229//258
f 230//262 234//265 224//165
f 224//165 234//265 222//168
f 222//168 235//266 405//267
f 141//171 231//268 236//269
f 231//268 242//270 238//271
f 140//176 232//263 231//268
f 141//171 140//176 231//268
f 225//172 233//272 232//263
f 228//264 233//272 225//172
f 232//263 233//272 242//270
f 232//263 242//270 231//268
f 228//264 243//273 233//272
f 233//272 243//273 242//270
f 228//264 322//274 243//273
f 229//258 322//274 228//264
f 222//168 234//265 235//266
f 235//266 234//265 241//275
f 236//269 230//262 141//171
f 231//268 238//271 236//269
f 236//269 237//276 230//262
f 239//277 237//276 236//269
f 238//271 239//277 236//269
f 230//262 237//276 234//265
f 237//276 241//275 234//265
f 242//270 240//278 238//271
f 238//271 240//278 239//277
f 239//277 241//275 237//276
f 243//273 244//279 242//270
f 242//270 244//279 240//278
f 239//277 240//278 324//280
f 240//278 325//281 324//280
f 241//275 239//277 324//280
f 160//196 245//202 249//282
f 246//200 247//283 245//202
f 247//283 249//282 245//202
f 252//210 160//196 249//282
f 254//284 246//200 248//203
f 255//285 254//284 248//203
f 247//283 246//200 251//286
f 251//286 250//287 247//283
f 250//287 249//282 247//283
f 254//284 251//286 246//200
f 251//286 256//288 250//287
f 262//211 172//197 252//210
f 257//289 262//211 252//210
f 250//287 253//290 249//282
f 253//290 252//210 249//282
f 252//210 253//290 257//289
f 250//287 256//288 253//290
f 268//291 255//285 267//214
f 255//285 248//203 267//214
f 256//288 251//286 254//284
f 255//285 333//292 254//284
f 254//284 333//292 256//288
f 256//288 333//292 331//293
f 256//288 258//294 253//290
f 258//294 257//289 253//290
f 332//295 335//296 257//289
f 180//212 262//211 260//218
f 269//221 259//217 261//297
f 260//218 261//297 259//217
f 260//218 262//211 263//298
f 260//218 263//298 264//299
f 264//299 261//297 260//218
f 257//289 265//300 262//211
f 262//211 265//300 263//298
f 265//300 266//301 263//298
f 266//301 264//299 263//298
f 335//296 265//300 257//289
f 335//296 266//301 265//300
f 267//214 273//215 268//291
f 274//302 268//291 273//215
f 274//302 273//215 279//303
f 274//302 333//292 255//285
f 268//291 274//302 255//285
f 261//297 270//222 269//221
f 270//222 261//297 271//304
f 261//297 264//299 271//304
f 272//305 271//304 264//299
f 266//301 272//305 264//299
f 271//304 272//305 276//306
f 266//301 335//296 272//305
f 273//215 281//223 279//303
f 275//307 270//222 271//304
f 276//306 275//307 271//304
f 276//306 343//308 275//307
f 270//222 278//224 277//131
f 270//222 275//307 278//224
f 275//307 280//225 278//224
f 343//308 280//225 275//307
f 283//226 358//309 281//223
f 359//310 358//309 283//226
f 355//311 282//132 280//225
f 282//132 191//136 108//88
f 355//311 361//312 282//132
f 285//313 191//136 282//132
f 282//132 361//312 285//313
f 284//314 359//310 283//226
f 359//310 284//314 362//315
f 363//316 285//313 361//312
f 284//314 283//226 288//317
f 284//314 288//317 371//318
f 288//317 283//226 287//228
f 286//319 290//138 191//136
f 285//313 286//319 191//136
f 286//319 285//313 363//316
f 370//320 286//319 363//316
f 286//319 374//321 290//138
f 287//228 289//229 288//317
f 374//321 286//319 375//322
f 288//317 291//323 376//324
f 289//229 291//323 288//317
f 291//323 380//325 376//324
f 288//317 376//324 371//318
f 379//326 291//323 289//229
f 379//326 380//325 291//323
f 292//233 289//229 193//230
f 295//327 379//326 289//229
f 295//327 289//229 292//233
f 293//328 198//139 290//138
f 290//138 297//329 293//328
f 290//138 384//330 297//329
f 290//138 374//321 384//330
f 292//233 204//236 294//331
f 294//331 295//327 292//233
f 295//327 385//332 379//326
f 293//328 296//237 198//139
f 293//328 297//329 296//237
f 296//237 297//329 299//238
f 294//331 389//333 295//327
f 295//327 389//333 387//334
f 299//238 297//329 386//335
f 294//331 204//236 298//245
f 303//336 298//245 300//244
f 298//245 389//333 294//331
f 389//333 298//245 303//336
f 388//337 304//338 299//238
f 300//244 213//247 302//339
f 302//339 213//247 301//340
f 301//340 213//247 214//248
f 301//340 214//248 305//249
f 302//339 301//340 308//341
f 303//336 300//244 302//339
f 307//342 303//336 302//339
f 304//338 313//250 299//238
f 392//343 313//250 304//338
f 301//340 305//249 308//341
f 307//342 302//339 308//341
f 306//344 308//341 305//249
f 393//345 307//342 308//341
f 393//345 308//341 395//346
f 395//346 308//341 306//344
f 299//238 313//250 215//153
f 392//343 394//347 313//250
f 305//249 210//158 309//348
f 305//249 309//348 306//344
f 306//344 309//348 395//346
f 210//158 311//252 309//348
f 311//252 310//349 309//348
f 310//349 311//252 398//350
f 398//350 311//252 217//161
f 313//250 316//255 312//163
f 316//255 315//259 220//253
f 314//351 316//255 313//250
f 394//347 314//351 313//250
f 314//351 394//347 399//352
f 401//353 314//351 399//352
f 398//350 217//161 318//261
f 315//259 317//354 319//260
f 316//255 317//354 315//259
f 401//353 400//355 314//351
f 400//355 316//255 314//351
f 400//355 317//354 316//255
f 229//258 221//257 319//260
f 319//260 406//356 229//258
f 406//356 319//260 407//357
f 317//354 407//357 319//260
f 222//168 405//267 318//261
f 322//274 229//258 320//358
f 406//356 320//358 229//258
f 323//359 320//358 406//356
f 409//360 323//359 406//356
f 241//275 321//361 235//266
f 235//266 321//361 405//267
f 321//361 410//362 405//267
f 244//279 243//273 322//274
f 322//274 411//363 416//364
f 322//274 320//358 323//359
f 411//363 322//274 323//359
f 321//361 241//275 326//365
f 410//362 321//361 326//365
f 324//280 326//365 241//275
f 244//279 325//281 240//278
f 329//366 325//281 244//279
f 326//365 324//280 328//367
f 328//367 324//280 327//368
f 324//280 325//281 327//368
f 325//281 329//366 327//368
f 328//367 327//368 420//369
f 326//365 328//367 420//369
f 420//369 327//368 330//370
f 414//371 326//365 420//369
f 329//366 244//279 322//274
f 322//274 416//364 329//366
f 327//368 329//366 330//370
f 329//366 417//372 330//370
f 417//372 329//366 416//364
f 256//288 331//293 258//294
f 258//294 332//295 257//289
f 332//295 258//294 331//293
f 274//302 337//373 333//292
f 332//295 331//293 334//374
f 335//296 332//295 334//374
f 272//305 335//296 336//375
f 272//305 336//375 276//306
f 279//303 337//373 274//302
f 337//373 338//376 333//292
f 346//377 337//373 279//303
f 339//378 338//376 337//373
f 331//293 341//379 334//374
f 338//376 331//293 333//292
f 341//379 331//293 338//376
f 338//376 339//378 341//379
f 340//380 335//296 334//374
f 334//374 341//379 340//380
f 335//296 340//380 336//375
f 344//381 276//306 336//375
f 346//377 339//378 337//373
f 341//379 339//378 347//382
f 347//382 339//378 346//377
f 340//380 341//379 342//383
f 342//383 341//379 348//384
f 342//383 351//385 340//380
f 341//379 347//382 348//384
f 342//383 348//384 351//385
f 340//380 351//385 345//386
f 276//306 344//381 343//308
f 336//375 340//380 345//386
f 336//375 345//386 344//381
f 346//377 281//223 358//309
f 346//377 279//303 281//223
f 347//382 346//377 352//387
f 348//384 349//388 351//385
f 348//384 347//382 349//388
f 351//385 349//388 356//389
f 353//390 349//388 347//382
f 356//389 349//388 353//390
f 350//391 355//311 343//308
f 350//391 343//308 344//381
f 350//391 344//381 354//392
f 345//386 354//392 344//381
f 345//386 351//385 354//392
f 355//311 280//225 343//308
f 346//377 358//309 359//310
f 353//390 347//382 352//387
f 357//393 355//311 350//391
f 354//392 357//393 350//391
f 354//392 360//394 357//393
f 346//377 359//310 352//387
f 360//394 354//392 356//389
f 351//385 356//389 354//392
f 352//387 359//310 362//315
f 352//387 362//315 353//390
f 353//390 362//315 356//389
f 357//393 361//312 355//311
f 361//312 357//393 360//394
f 368//395 360//394 356//389
f 284//314 364//396 362//315
f 362//315 364//396 365//397
f 356//389 362//315 366//398
f 362//315 365//397 366//398
f 363//316 360//394 368//395
f 360//394 363//316 361//312
f 284//314 371//318 364//396
f 356//389 366//398 368//395
f 364//396 371//318 369//399
f 364//396 369//399 367//400
f 364//396 367//400 365//397
f 365//397 367//400 366//398
f 366//398 367//400 421//401
f 368//395 370//320 363//316
f 368//395 366//398 421//401
f 369//399 372//402 367//400
f 370//320 368//395 375//322
f 286//319 370//320 375//322
f 372//402 421//401 367//400
f 421//401 373//403 368//395
f 369//399 371//318 422//404
f 368//395 373//403 375//322
f 377//405 375//322 373//403
f 375//322 377//405 374//321
f 371//318 376//324 422//404
f 422//404 376//324 378//406
f 376//324 383//407 381//408
f 378//406 376//324 381//408
f 379//326 382//409 380//325
f 380//325 382//409 383//407
f 380//325 383//407 376//324
f 382//409 379//326 385//332
f 382//409 385//332 430//410
f 383//407 382//409 430//410
f 374//321 431//411 384//330
f 387//334 385//332 295//327
f 431//411 297//329 384//330
f 431//411 386//335 297//329
f 432//412 385//332 387//334
f 386//335 388//337 299//238
f 431//411 388//337 386//335
f 391//413 439//414 387//334
f 388//337 431//411 435//415
f 387//334 389//333 391//413
f 389//333 303//336 390//416
f 390//416 303//336 307//342
f 390//416 307//342 393//345
f 390//416 391//413 389//333
f 438//417 439//414 391//413
f 388//337 392//343 304//338
f 435//415 392//343 388//337
f 437//418 392//343 435//415
f 394//347 437//418 442//419
f 436//420 437//418 435//415
f 440//421 393//345 395//346
f 438//417 393//345 440//421
f 438//417 391//413 390//416
f 393//345 438//417 390//416
f 437//418 394//347 392//343
f 309//348 396//422 395//346
f 309//348 397//423 396//422
f 310//349 397//423 309//348
f 441//424 395//346 396//422
f 398//350 443//425 310//349
f 399//352 394//347 444//426
f 442//419 444//426 394//347
f 398//350 318//261 445//427
f 401//353 403//428 400//355
f 403//428 317//354 400//355
f 404//429 401//353 399//352
f 399//352 444//426 404//429
f 404//429 444//426 446//430
f 318//261 405//267 402//431
f 318//261 402//431 445//427
f 407//357 317//354 403//428
f 401//353 404//429 403//428
f 403//428 404//429 408//432
f 408//432 407//357 403//428
f 446//430 447//433 404//429
f 447//433 408//432 404//429
f 402//431 405//267 451//434
f 402//431 451//434 445//427
f 406//356 407//357 409//360
f 408//432 409//360 407//357
f 455//435 405//267 413//436
f 405//267 410//362 413//436
f 412//437 411//363 323//359
f 412//437 323//359 409//360
f 452//438 412//437 409//360
f 413//436 410//362 414//371
f 414//371 410//362 326//365
f 413//436 414//371 415//439
f 460//440 455//435 413//436
f 420//369 330//370 418//441
f 420//369 415//439 414//371
f 411//363 419//442 416//364
f 416//364 419//442 417//372
f 418//441 330//370 417//372
f 419//442 463//443 461//444
f 418//441 417//372 471//445
f 412//437 419//442 411//363
f 463//443 419//442 412//437
f 470//446 420//369 418//441
f 422//404 372//402 369//399
f 372//402 423//447 421//401
f 372//402 422//404 423//447
f 424//448 373//403 421//401
f 373//403 424//448 377//405
f 421//401 423//447 424//448
f 378//406 381//408 425//449
f 425//449 381//408 474//450
f 422//404 378//406 425//449
f 422//404 426//451 423//447
f 428//452 377//405 424//448
f 381//408 383//407 474//450
f 422//404 425//449 426//451
f 425//449 474//450 426//451
f 423//447 426//451 427//453
f 423//447 427//453 424//448
f 374//321 377//405 433//454
f 377//405 428//452 433//454
f 383//407 430//410 474//450
f 424//448 429//455 428//452
f 433//454 428//452 429//455
f 431//411 374//321 433//454
f 432//412 476//456 385//332
f 385//332 476//456 430//410
f 430//410 476//456 474//450
f 431//411 433//454 434//457
f 477//458 434//457 433//454
f 435//415 431//411 434//457
f 439//414 432//412 387//334
f 436//420 435//415 434//457
f 434//457 477//458 436//420
f 436//420 442//419 437//418
f 439//414 438//417 479//459
f 442//419 436//420 477//458
f 440//421 478//460 438//417
f 395//346 441//424 440//421
f 441//424 396//422 483//461
f 478//460 441//424 483//461
f 478//460 440//421 441//424
f 477//458 486//462 442//419
f 397//423 443//425 396//422
f 443//425 397//423 310//349
f 443//425 483//461 396//422
f 398//350 484//463 443//425
f 442//419 486//462 444//426
f 398//350 445//427 484//463
f 486//462 446//430 444//426
f 486//462 489//464 446//430
f 445//427 448//465 488//466
f 447//433 446//430 489//464
f 448//465 445//427 456//467
f 452//438 409//360 450//468
f 453//469 450//468 449//470
f 489//464 491//471 449//470
f 449//470 491//471 453//469
f 495//472 453//469 491//471
f 447//433 450//468 408//432
f 450//468 409//360 408//432
f 449//470 447//433 489//464
f 449//470 450//468 447//433
f 445//427 451//434 456//467
f 448//465 456//467 457//473
f 448//465 457//473 493//474
f 456//467 451//434 405//267
f 405//267 455//435 456//467
f 452//438 463//443 412//437
f 453//469 452//438 450//468
f 453//469 454//475 452//438
f 453//469 495//472 454//475
f 495//472 509//476 454//475
f 509//476 464//477 454//475
f 464//477 452//438 454//475
f 466//478 455//435 460//440
f 456//467 455//435 458//479
f 459//480 455//435 466//478
f 456//467 458//479 457//473
f 455//435 459//480 458//479
f 458//479 497//481 457//473
f 459//480 468//482 498//483
f 460//440 413//436 415//439
f 419//442 461//444 417//372
f 417//372 461//444 473//484
f 462//485 461//444 464//477
f 462//485 473//484 461//444
f 509//476 505//486 464//477
f 505//486 462//485 464//477
f 462//485 505//486 519//487
f 452//438 464//477 463//443
f 464//477 461//444 463//443
f 468//482 459//480 466//478
f 466//478 467//488 468//482
f 510//489 498//483 468//482
f 465//490 460//440 415//439
f 466//478 460//440 465//490
f 466//478 465//490 467//488
f 465//490 469//491 467//488
f 467//488 472//492 468//482
f 472//492 510//489 468//482
f 465//490 415//439 469//491
f 469//491 415//439 420//369
f 418//441 471//445 470//446
f 470//446 469//491 420//369
f 513//493 470//446 471//445
f 472//492 467//488 469//491
f 472//492 469//491 470//446
f 471//445 511//494 513//493
f 472//492 470//446 513//493
f 512//495 472//492 513//493
f 417//372 473//484 471//445
f 511//494 471//445 473//484
f 519//487 473//484 462//485
f 519//487 511//494 473//484
f 474//450 521//496 426//451
f 427//453 426//451 475//497
f 424//448 427//453 429//455
f 429//455 427//453 475//497
f 426//451 521//496 475//497
f 475//497 433//454 429//455
f 521//496 476//456 482//498
f 521//496 474//450 476//456
f 477//458 433//454 522//499
f 479//459 482//498 432//412
f 479//459 432//412 439//414
f 482//498 476//456 432//412
f 480//500 479//459 438//417
f 478//460 480//500 438//417
f 480//500 481//501 479//459
f 481//501 480//500 555//502
f 478//460 555//502 480//500
f 481//501 482//498 479//459
f 477//458 522//499 486//462
f 555//502 478//460 483//461
f 484//463 483//461 443//425
f 522//499 487//503 486//462
f 488//466 484//463 445//427
f 485//504 484//463 526//505
f 483//461 484//463 485//504
f 525//506 483//461 485//504
f 484//463 488//466 526//505
f 526//505 525//506 485//504
f 528//507 487//503 522//499
f 488//466 529//508 526//505
f 486//462 487//503 489//464
f 487//503 492//509 489//464
f 487//503 528//507 492//509
f 529//508 488//466 490//510
f 492//509 491//471 489//464
f 496//511 495//472 491//471
f 496//511 491//471 492//509
f 448//465 490//510 488//466
f 490//510 448//465 493//474
f 493//474 532//512 531//513
f 531//513 490//510 493//474
f 506//514 495//472 494//515
f 496//511 494//515 495//472
f 495//472 506//514 509//476
f 532//512 493//474 499//516
f 497//481 458//479 459//480
f 498//483 497//481 459//480
f 457//473 499//516 493//474
f 497//481 499//516 457//473
f 497//481 498//483 500//517
f 500//517 499//516 497//481
f 532//512 499//516 500//517
f 502//518 498//483 510//489
f 532//512 500//517 501//519
f 502//518 501//519 500//517
f 502//518 500//517 498//483
f 532//512 501//519 533//520
f 503//521 502//518 510//489
f 533//520 501//519 538//522
f 538//522 501//519 502//518
f 503//521 540//523 502//518
f 546//524 504//525 516//526
f 539//527 518//528 541//529
f 504//525 549//530 518//528
f 509//476 506//514 505//486
f 506//514 507//531 505//486
f 507//531 516//526 520//532
f 508//533 546//524 507//531
f 506//514 508//533 507//531
f 507//531 546//524 516//526
f 494//515 508//533 506//514
f 536//534 508//533 494//515
f 546//524 508//533 548//535
f 510//489 472//492 512//495
f 503//521 510//489 517//536
f 539//527 503//521 517//536
f 512//495 517//536 510//489
f 513//493 511//494 514//537
f 514//537 515//538 513//493
f 516//526 511//494 520//532
f 515//538 514//537 516//526
f 511//494 516//526 514//537
f 513//493 515//538 517//536
f 513//493 517//536 512//495
f 515//538 518//528 517//536
f 516//526 504//525 515//538
f 518//528 539//527 517//536
f 515//538 504//525 518//528
f 519//487 520//532 511//494
f 505//486 507//531 520//532
f 505//486 520//532 519//487
f 482//498 551//539 521//496
f 553//540 433//454 475//497
f 553//540 475//497 554//541
f 551//539 482//498 481//501
f 555//502 483//461 524//542
f 522//499 433//454 523//543
f 525//506 524//542 483//461
f 524//542 525//506 526//505
f 555//502 524//542 526//505
f 526//505 556//544 555//502
f 529//508 527//545 526//505
f 527//545 565//546 526//505
f 576//547 565//546 527//545
f 573//548 530//549 528//507
f 573//548 522//499 523//543
f 528//507 522//499 573//548
f 490//510 531//513 529//508
f 574//550 527//545 529//508
f 574//550 529//508 531//513
f 536//534 530//549 537//551
f 537//551 530//549 586//552
f 496//511 492//509 528//507
f 530//549 496//511 528//507
f 536//534 496//511 530//549
f 531//513 532//512 534//553
f 534//553 575//554 531//513
f 534//553 532//512 533//520
f 535//555 534//553 533//520
f 535//555 543//556 589//557
f 588//558 534//553 535//555
f 591//559 544//560 548//535
f 543//556 545//561 589//557
f 545//561 544//560 592//562
f 537//551 548//535 536//534
f 548//535 537//551 591//559
f 494//515 496//511 536//534
f 548//535 508//533 536//534
f 502//518 540//523 538//522
f 538//522 535//555 533//520
f 538//522 543//556 535//555
f 543//556 538//522 540//523
f 540//523 503//521 539//527
f 541//529 518//528 549//530
f 542//563 540//523 539//527
f 541//529 542//563 539//527
f 543//556 540//523 542//563
f 542//563 545//561 543//556
f 544//560 545//561 542//563
f 541//529 544//560 542//563
f 549//530 544//560 541//529
f 544//560 549//530 548//535
f 549//530 504//525 547//564
f 547//564 504//525 546//524
f 547//564 546//524 548//535
f 548//535 549//530 547//564
f 521//496 552//565 475//497
f 551//539 481//501 550//566
f 550//566 481//501 555//502
f 550//566 559//567 551//539
f 521//496 551//539 552//565
f 552//565 551//539 559//567
f 552//565 554//541 475//497
f 552//565 563//568 554//541
f 523//543 553//540 564//569
f 554//541 563//568 553//540
f 433//454 553//540 523//543
f 526//505 565//546 556//544
f 556//544 550//566 555//502
f 556//544 557//570 550//566
f 565//546 557//570 556//544
f 558//571 550//566 557//570
f 558//571 557//570 566//572
f 557//570 565//546 566//572
f 552//565 559//567 560//573
f 550//566 558//571 559//567
f 558//571 567//574 561//575
f 558//571 561//575 559//567
f 566//572 567//574 558//571
f 560//573 559//567 562//576
f 562//576 559//567 561//575
f 563//568 552//565 562//576
f 562//576 571//577 563//568
f 552//565 560//573 562//576
f 553//540 563//568 564//569
f 563//568 571//577 564//569
f 564//569 571//577 572//578
f 576//547 566//572 565//546
f 568//579 567//574 566//572
f 576//547 568//579 566//572
f 568//579 576//547 578//580
f 561//575 567//574 569//581
f 562//576 561//575 570//582
f 570//582 571//577 562//576
f 567//574 568//579 569//581
f 561//575 569//581 570//582
f 578//580 569//581 568//579
f 569//581 579//583 570//582
f 581//584 572//578 571//577
f 571//577 570//582 581//584
f 572//578 584//585 586//552
f 572//578 581//584 584//585
f 564//569 572//578 523//543
f 523//543 572//578 573//548
f 572//578 586//552 573//548
f 527//545 574//550 576//547
f 531//513 575//554 574//550
f 574//550 577//586 576//547
f 574//550 575//554 577//586
f 575//554 534//553 587//587
f 578//580 576//547 577//586
f 577//586 575//554 587//587
f 577//586 587//587 580//588
f 577//586 580//588 578//580
f 569//581 578//580 579//583
f 570//582 579//583 581//584
f 579//583 578//580 580//588
f 580//588 590//589 582//590
f 590//589 592//562 582//590
f 581//584 579//583 582//590
f 582//590 579//583 580//588
f 583//591 586//552 584//585
f 592//562 591//559 585//592
f 585//592 591//559 583//591
f 584//585 585//592 583//591
f 584//585 581//584 585//592
f 581//584 582//590 585//592
f 592//562 585//592 582//590
f 530//549 573//548 586//552
f 537//551 586//552 583//591
f 583//591 591//559 537//551
f 587//587 534//553 588//558
f 588//558 535//555 589//557
f 587//587 588//558 589//557
f 590//589 589//557 592//562
f 587//587 589//557 590//589
f 590//589 580//588 587//587
f 544//560 591//559 592//562
f 545//561 592//562 589//557
