# Blender 4.0.2
# www.blender.org
mtllib metatarsal_1_l.mtl
o metatarsal_1_l
v 0.054746 -0.014545 0.002204
v 0.046655 -0.011371 0.000809
v 0.054418 -0.015251 0.003825
v 0.056894 -0.016221 -0.003514
v 0.061377 -0.017452 0.002968
v 0.050663 -0.015855 0.005471
v 0.056847 -0.017205 0.005388
v 0.048698 -0.013414 0.003212
v 0.059123 -0.017299 0.004345
v 0.019076 0.002244 -0.000964
v 0.043971 -0.010846 0.002813
v 0.041598 -0.010462 -0.004562
v 0.060071 -0.019295 -0.008259
v 0.044477 -0.011975 -0.005257
v 0.061640 -0.017546 -0.002030
v 0.064297 -0.019069 -0.005011
v 0.064548 -0.018674 0.002299
v 0.064924 -0.018323 -0.001741
v 0.045837 -0.013030 0.005015
v 0.047333 -0.020666 0.007736
v 0.054977 -0.025979 0.011136
v 0.056366 -0.018376 0.006339
v 0.057486 -0.017837 0.005663
v 0.058346 -0.022342 0.008032
v 0.063955 -0.019572 0.003441
v 0.064293 -0.019087 0.002919
v 0.032107 -0.005804 0.003945
v 0.027151 -0.002531 0.002013
v 0.018942 0.001242 0.003051
v 0.015010 0.005211 -0.000148
v 0.024427 -0.001819 -0.004547
v 0.018926 0.001505 -0.005011
v 0.010719 0.008656 -0.006819
v 0.011662 0.008245 -0.002621
v 0.023438 -0.004915 -0.007447
v 0.037482 -0.012632 -0.007725
v 0.061092 -0.023106 -0.011943
v 0.065026 -0.022352 -0.009378
v 0.054165 -0.020797 -0.010632
v 0.057532 -0.022281 -0.012130
v 0.047806 -0.017677 -0.009086
v 0.042708 -0.015418 -0.008267
v 0.067265 -0.020774 -0.005424
v 0.066730 -0.021093 0.002616
v 0.067694 -0.020408 -0.001662
v 0.065363 -0.020159 0.003001
v 0.048168 -0.023059 0.008816
v 0.046568 -0.021451 0.007414
v 0.043798 -0.016844 0.007301
v 0.052822 -0.025674 0.010923
v 0.050250 -0.024811 0.010088
v 0.043125 -0.017621 0.006917
v 0.038759 -0.013444 0.006654
v 0.059040 -0.026484 0.010942
v 0.054548 -0.026633 0.011487
v 0.064675 -0.024552 0.007941
v 0.065056 -0.023856 0.007017
v 0.066148 -0.021087 0.003318
v 0.066175 -0.023355 0.005631
v 0.028174 -0.007383 0.005970
v 0.022924 -0.003962 0.005405
v 0.015331 0.003409 0.003624
v 0.017866 -0.001844 0.005121
v 0.012089 0.008314 0.000634
v 0.017726 -0.001246 -0.007527
v 0.007241 0.008407 -0.010388
v 0.013844 0.002691 -0.008177
v 0.008303 0.010388 -0.007048
v 0.007791 0.009522 -0.008813
v 0.008945 0.010642 -0.002505
v 0.016661 -0.005374 -0.007065
v 0.027033 -0.013791 -0.005913
v 0.020309 -0.010925 -0.005475
v 0.013767 -0.009346 -0.005728
v 0.037994 -0.018170 -0.006870
v 0.032299 -0.016488 -0.005932
v 0.065722 -0.023222 -0.009458
v 0.057499 -0.023021 -0.012319
v 0.060782 -0.024003 -0.012289
v 0.063779 -0.026000 -0.011976
v 0.046659 -0.019482 -0.008810
v 0.051405 -0.021631 -0.009928
v 0.068229 -0.023424 -0.005595
v 0.066223 -0.024122 -0.009446
v 0.067954 -0.022073 0.000706
v 0.068728 -0.023116 0.001878
v 0.068963 -0.023239 -0.001207
v 0.049337 -0.025353 0.009851
v 0.046050 -0.022126 0.006887
v 0.051477 -0.027362 0.010814
v 0.053578 -0.029082 0.011476
v 0.036838 -0.016459 0.004855
v 0.027309 -0.010236 0.004780
v 0.058329 -0.029289 0.011633
v 0.063972 -0.027829 0.009275
v 0.066597 -0.023592 0.005283
v 0.064979 -0.028645 0.007292
v 0.067772 -0.024447 0.004006
v 0.066613 -0.026513 0.006151
v 0.021344 -0.007455 0.004895
v 0.017257 -0.003960 0.005178
v 0.012211 0.006761 0.004099
v 0.013353 -0.001548 0.006304
v 0.012932 -0.002358 0.006519
v 0.008755 0.009723 0.001404
v 0.012806 0.000541 -0.008599
v 0.011269 -0.003045 -0.008225
v 0.006375 0.008737 -0.010318
v 0.005396 0.007088 -0.011234
v 0.005970 0.004053 -0.011072
v 0.009014 0.002561 -0.010349
v 0.007429 0.010481 -0.007118
v 0.006956 0.009782 -0.008717
v 0.006702 0.010896 -0.002687
v 0.018462 -0.012703 -0.002590
v 0.019320 -0.011928 -0.004095
v 0.025364 -0.014709 -0.003380
v 0.016216 -0.011412 -0.003948
v 0.008097 -0.007882 -0.007068
v 0.012197 -0.011795 -0.002517
v 0.006767 -0.009455 -0.006402
v 0.039345 -0.021455 -0.005053
v 0.043216 -0.020375 -0.007753
v 0.034789 -0.018774 -0.004083
v 0.030457 -0.016801 -0.003357
v 0.057474 -0.023742 -0.012364
v 0.059017 -0.024154 -0.012401
v 0.063171 -0.026555 -0.012150
v 0.062587 -0.026899 -0.012185
v 0.064137 -0.027267 -0.011444
v 0.048673 -0.022655 -0.008919
v 0.053489 -0.023249 -0.010826
v 0.068451 -0.025707 -0.005260
v 0.069209 -0.025051 -0.001419
v 0.066537 -0.026658 -0.008521
v 0.068764 -0.025061 0.001527
v 0.050866 -0.027836 0.010291
v 0.050341 -0.027516 0.009251
v 0.048443 -0.025762 0.007817
v 0.045068 -0.023438 0.005770
v 0.052691 -0.029514 0.011013
v 0.056328 -0.030377 0.010923
v 0.054063 -0.030290 0.010812
v 0.031350 -0.015503 0.002419
v 0.037906 -0.019932 0.001995
v 0.044346 -0.025244 0.001872
v 0.028789 -0.014326 0.002321
v 0.058239 -0.030181 0.011274
v 0.062268 -0.029439 0.010316
v 0.061615 -0.031270 0.009199
v 0.064916 -0.030094 0.005955
v 0.066394 -0.029411 0.004003
v 0.014973 -0.008774 0.003245
v 0.022994 -0.011846 0.002578
v 0.016479 -0.005834 0.005027
v 0.006465 0.009025 0.003438
v 0.006629 0.007647 0.005162
v 0.010696 0.000114 0.007525
v 0.008564 0.004172 0.006346
v 0.008948 -0.002292 0.008845
v 0.011165 -0.004642 0.006472
v 0.006323 0.010142 0.001711
v 0.007445 -0.000586 -0.009091
v 0.004577 -0.002991 -0.009624
v 0.003268 -0.005534 -0.009428
v 0.005698 0.009017 -0.010051
v 0.004717 0.007490 -0.011018
v 0.003661 0.005704 -0.011688
v 0.003358 0.002070 -0.009559
v 0.006638 0.010490 -0.007020
v 0.006210 0.009834 -0.008621
v 0.005235 0.009888 0.001695
v 0.005560 0.010619 -0.003064
v 0.015244 -0.012183 -0.002461
v 0.018397 -0.012689 -0.000934
v 0.025187 -0.014903 -0.000552
v 0.015492 -0.011994 -0.000931
v 0.030765 -0.017084 -0.000643
v 0.003767 -0.006786 -0.008806
v 0.012434 -0.011677 -0.000932
v 0.006151 -0.011599 -0.001590
v 0.002908 -0.009849 -0.005927
v 0.003236 -0.010899 -0.002911
v 0.004234 -0.008856 -0.007103
v 0.035757 -0.019621 -0.001608
v 0.039986 -0.022555 -0.002124
v 0.043316 -0.024764 -0.005991
v 0.054705 -0.025631 -0.011092
v 0.057534 -0.025609 -0.012065
v 0.059474 -0.026169 -0.011841
v 0.063731 -0.028904 -0.011074
v 0.063335 -0.029936 -0.010807
v 0.061478 -0.027444 -0.011403
v 0.064750 -0.029213 -0.010100
v 0.063880 -0.029790 -0.010636
v 0.052406 -0.026706 -0.009486
v 0.066775 -0.028532 -0.007065
v 0.068270 -0.026640 -0.004825
v 0.065105 -0.031548 0.002686
v 0.065051 -0.029736 -0.009351
v 0.052283 -0.029950 0.010509
v 0.050957 -0.029521 0.006265
v 0.047678 -0.027397 0.004064
v 0.054650 -0.031330 0.009981
v 0.058208 -0.030921 0.010837
v 0.047627 -0.028590 0.002230
v 0.047146 -0.028541 -0.000268
v 0.057330 -0.032169 0.008888
v 0.061003 -0.032398 0.006190
v 0.009835 -0.007691 0.004645
v 0.018466 -0.012453 0.000538
v 0.012845 -0.011184 0.000737
v 0.004659 0.008498 0.005356
v 0.005476 0.009380 0.003578
v 0.005892 0.006706 0.005717
v 0.008080 0.001468 0.007939
v 0.006038 0.005083 0.006421
v 0.005134 0.002086 0.007163
v 0.005466 -0.002476 0.011049
v 0.006226 -0.003675 0.010706
v 0.007978 -0.003529 0.009517
v 0.006909 -0.004856 0.009944
v 0.000773 -0.001171 -0.009814
v 0.001576 -0.004028 -0.009136
v 0.000850 -0.005301 -0.008985
v 0.000844 -0.005962 -0.008826
v 0.005526 0.009545 -0.008836
v 0.004128 0.007001 -0.010628
v 0.003321 0.005461 -0.010912
v 0.002977 0.003986 -0.010130
v 0.002788 0.002202 -0.009100
v -0.000494 -0.000546 -0.008543
v 0.005950 0.010261 -0.007344
v 0.004585 0.009004 0.003521
v 0.004397 0.009565 0.001915
v 0.005352 0.010017 -0.007389
v 0.004249 0.009603 -0.002833
v 0.001919 -0.008359 -0.007367
v 0.007498 -0.010321 0.002614
v 0.001693 -0.011543 0.001808
v 0.003307 -0.010414 0.004334
v -0.000184 -0.009262 -0.003768
v 0.000766 -0.011127 -0.000451
v 0.046645 -0.028476 -0.002982
v 0.049889 -0.032590 -0.006779
v 0.051381 -0.033415 -0.007507
v 0.051001 -0.030939 -0.008104
v 0.057124 -0.029233 -0.010276
v 0.062773 -0.030836 -0.010333
v 0.061647 -0.028839 -0.010762
v 0.053188 -0.029898 -0.008656
v 0.065074 -0.031207 -0.003927
v 0.064852 -0.031911 -0.001710
v 0.062782 -0.032966 0.002172
v 0.063498 -0.031191 -0.007785
v 0.062237 -0.031829 -0.009489
v 0.054488 -0.031483 0.008977
v 0.054567 -0.031613 0.005817
v 0.052745 -0.030599 0.006135
v 0.052656 -0.030987 0.005489
v 0.051583 -0.032576 0.004007
v 0.050273 -0.031491 0.004328
v 0.051467 -0.033142 0.002672
v 0.050100 -0.031401 -0.000858
v 0.058239 -0.032351 0.004903
v 0.004286 -0.006523 0.009782
v 0.004563 0.007187 0.005619
v 0.004034 0.007979 0.005024
v 0.005297 0.005637 0.006047
v 0.004074 0.002784 0.006085
v 0.004226 0.004367 0.005707
v 0.004679 -0.001932 0.010611
v 0.002663 -0.000177 0.007689
v 0.004078 -0.001550 0.010130
v 0.004714 -0.004080 0.010969
v 0.005265 -0.005146 0.010469
v 0.003976 -0.003340 0.010937
v -0.002498 -0.003771 -0.007564
v -0.000120 -0.000954 -0.009092
v -0.001439 -0.005125 -0.008282
v -0.001498 -0.005821 -0.008102
v -0.001279 -0.006424 -0.007949
v 0.004686 0.008162 -0.009289
v 0.002885 0.004698 -0.008945
v 0.002376 0.002397 -0.008501
v -0.002931 -0.003278 -0.006987
v -0.003319 -0.003503 -0.006303
v 0.001911 0.002282 -0.007622
v 0.000817 0.000388 -0.000120
v 0.003530 0.006094 0.003689
v 0.001769 0.002405 0.002849
v 0.005058 0.009558 -0.007003
v -0.001081 -0.007088 -0.007331
v -0.002074 -0.011997 0.004084
v -0.000858 -0.011042 0.006804
v -0.005762 -0.009180 -0.002984
v -0.007960 -0.011736 0.002906
v -0.006938 -0.011515 0.001690
v -0.007698 -0.010339 -0.000640
v 0.052685 -0.033158 -0.001344
v 0.053409 -0.033803 -0.005712
v 0.052832 -0.034060 -0.008107
v 0.054165 -0.032069 -0.009229
v 0.061006 -0.030253 -0.010209
v 0.059951 -0.031426 -0.009908
v 0.056343 -0.032834 -0.009339
v 0.059236 -0.031750 -0.009658
v 0.061510 -0.031578 -0.009730
v 0.061207 -0.034231 -0.001481
v 0.063872 -0.031367 -0.006216
v 0.061331 -0.034169 -0.000067
v 0.059841 -0.033253 0.002526
v 0.061978 -0.031975 -0.007220
v 0.061169 -0.032748 -0.008533
v 0.054284 -0.031779 0.005256
v 0.054135 -0.032127 0.004736
v 0.052939 -0.033592 0.003468
v 0.052764 -0.033837 0.002940
v 0.051444 -0.032850 0.003437
v 0.052786 -0.033983 0.000972
v 0.057505 -0.032856 0.003835
v 0.002828 -0.006772 0.010069
v 0.001597 -0.008266 0.009295
v 0.004230 0.005722 0.005464
v 0.003608 0.004404 0.005078
v 0.001905 0.000305 0.006116
v 0.003537 0.003061 0.005467
v 0.001223 -0.002261 0.008220
v 0.002499 -0.004086 0.010486
v -0.003845 -0.006396 -0.006500
v -0.005580 -0.006281 -0.005057
v 0.004437 0.007199 -0.008104
v -0.008761 -0.010652 0.002310
v -0.007116 -0.009992 0.004912
v -0.004379 -0.008223 0.006741
v -0.008232 -0.009740 0.000306
v -0.007549 -0.008757 -0.001592
v 0.001102 -0.000357 0.003330
v 0.001386 0.000688 0.003347
v -0.005932 -0.007627 -0.004664
v -0.006499 -0.011381 0.005529
v -0.007274 -0.011605 0.004267
v -0.002257 -0.010714 0.007443
v -0.006897 -0.008979 -0.002688
v -0.008103 -0.011133 0.001286
v -0.008550 -0.011254 0.002715
v -0.007773 -0.009602 -0.001029
v -0.008412 -0.010577 0.000909
v 0.056058 -0.034333 -0.004481
v 0.056007 -0.034137 -0.002467
v 0.054387 -0.034271 -0.008035
v 0.056038 -0.034386 -0.007984
v 0.056844 -0.034336 -0.006335
v 0.054883 -0.033173 -0.008987
v 0.060721 -0.032332 -0.009229
v 0.058698 -0.032577 -0.008978
v 0.058272 -0.034584 -0.003079
v 0.058672 -0.033955 -0.005556
v 0.059080 -0.033229 -0.007661
v 0.058523 -0.034969 0.000348
v 0.059914 -0.032828 -0.008465
v 0.056332 -0.034483 0.002402
v 0.055895 -0.035000 0.001211
v 0.000602 -0.007620 0.009347
v -0.000171 -0.006931 0.009160
v -0.001165 -0.009320 0.008684
v -0.000643 -0.003583 0.006263
v -0.004716 -0.009329 0.007353
v -0.000697 -0.005810 0.008719
v -0.006760 -0.007671 -0.003269
v -0.008150 -0.010652 0.003809
v -0.007360 -0.010512 0.005154
v -0.006108 -0.010015 0.006291
v -0.007790 -0.011105 0.004072
v -0.006923 -0.008278 -0.003017
v -0.003811 -0.010348 0.007809
v -0.006977 -0.010955 0.005417
v -0.005747 -0.010488 0.006575
v 0.057531 -0.034277 -0.004711
v 0.057442 -0.033699 -0.008265
v -0.002027 -0.008668 0.008563
v -0.004359 -0.009808 0.007640
vn 0.3553 0.9199 0.1662
vn 0.3975 0.9136 0.0855
vn 0.2399 0.8051 0.5425
vn 0.3453 0.9108 -0.2262
vn 0.3760 0.8745 0.3064
vn 0.1398 0.5970 0.7900
vn 0.2385 0.6829 0.6904
vn 0.2956 0.8024 0.5184
vn 0.3652 0.7007 0.6129
vn 0.5636 0.8256 0.0268
vn 0.4002 0.8281 0.3924
vn 0.3384 0.7946 -0.5041
vn 0.2512 0.7886 -0.5613
vn 0.2659 0.7525 -0.6026
vn 0.2742 0.9562 -0.1024
vn 0.3537 0.8569 -0.3749
vn 0.5172 0.7738 0.3657
vn 0.4321 0.8989 -0.0725
vn 0.3198 0.6376 0.7009
vn -0.1796 0.2502 0.9514
vn 0.0660 0.4876 0.8706
vn 0.1815 0.5292 0.8288
vn 0.3341 0.5502 0.7653
vn 0.2571 0.5491 0.7952
vn 0.3953 0.5655 0.7238
vn 0.4500 0.5863 0.6736
vn 0.3226 0.6923 0.6455
vn 0.4222 0.8571 0.2952
vn 0.4302 0.7013 0.5684
vn 0.6501 0.7394 0.1752
vn 0.4077 0.7379 -0.5379
vn 0.5702 0.6673 -0.4791
vn 0.6210 0.7024 -0.3480
vn 0.6512 0.7547 -0.0797
vn 0.1314 0.1951 -0.9719
vn 0.0492 0.2193 -0.9744
vn 0.2597 0.4979 -0.8275
vn 0.4497 0.6079 -0.6544
vn -0.0924 0.4541 -0.8861
vn -0.0234 0.4959 -0.8681
vn -0.0516 0.3157 -0.9475
vn -0.0195 0.2576 -0.9661
vn 0.7049 0.6139 -0.3552
vn 0.6988 0.5845 0.4123
vn 0.7897 0.6132 0.0194
vn 0.5145 0.5958 0.6168
vn -0.5037 0.1524 0.8503
vn -0.5080 -0.0818 0.8575
vn -0.0080 0.1274 0.9918
vn -0.1393 0.3338 0.9323
vn -0.2542 0.2438 0.9359
vn -0.3209 -0.2247 0.9201
vn -0.0580 0.0823 0.9949
vn 0.2072 0.3578 0.9105
vn -0.0227 0.2035 0.9788
vn 0.5250 0.3972 0.7528
vn 0.4203 0.6251 0.6578
vn 0.5899 0.5874 0.5540
vn 0.6206 0.5020 0.6023
vn -0.0246 0.1029 0.9944
vn 0.0889 0.2368 0.9675
vn 0.5304 0.5576 0.6386
vn 0.1927 0.2625 0.9455
vn 0.6148 0.7747 0.1476
vn 0.2836 0.1917 -0.9396
vn 0.3594 0.4541 -0.8152
vn 0.4607 0.2180 -0.8604
vn 0.3696 0.8859 -0.2804
vn 0.3900 0.7280 -0.5638
vn 0.3742 0.9268 0.0304
vn 0.0220 -0.2386 -0.9709
vn -0.2663 -0.5257 -0.8079
vn -0.1777 -0.4876 -0.8548
vn -0.0048 -0.5651 -0.8250
vn -0.3201 -0.3974 -0.8600
vn -0.3070 -0.5898 -0.7469
vn 0.6012 0.4271 -0.6754
vn -0.1350 0.1687 -0.9764
vn 0.1388 0.1750 -0.9747
vn 0.4915 0.0828 -0.8669
vn -0.2359 -0.0854 -0.9680
vn -0.3030 0.0127 -0.9529
vn 0.9189 0.2055 -0.3367
vn 0.7642 0.1570 -0.6255
vn 0.8084 0.5662 0.1609
vn 0.8909 0.3436 0.2971
vn 0.9550 0.2961 -0.0194
vn -0.6254 -0.1417 0.7673
vn -0.5562 -0.2482 0.7931
vn -0.3957 -0.0364 0.9177
vn -0.1651 -0.2122 0.9632
vn -0.3850 -0.5020 0.7745
vn -0.2532 -0.4302 0.8665
vn 0.1200 -0.0962 0.9881
vn 0.6719 -0.0360 0.7398
vn 0.7638 0.3455 0.5452
vn 0.7744 -0.3372 0.5353
vn 0.8588 0.1516 0.4894
vn 0.8182 -0.1105 0.5641
vn -0.0916 -0.3126 0.9454
vn 0.1121 -0.0790 0.9905
vn 0.4933 0.6127 0.6175
vn 0.3682 0.1872 0.9107
vn 0.3548 -0.0861 0.9310
vn 0.2893 0.8870 0.3598
vn 0.2389 -0.1064 -0.9652
vn 0.1508 -0.2222 -0.9633
vn 0.0918 0.6489 -0.7554
vn 0.1732 0.2392 -0.9554
vn 0.0847 -0.2254 -0.9706
vn 0.2450 -0.1668 -0.9551
vn 0.0647 0.9641 -0.2577
vn 0.1036 0.8630 -0.4945
vn -0.0587 0.9968 0.0547
vn -0.2475 -0.9303 -0.2706
vn -0.2382 -0.7532 -0.6132
vn -0.3354 -0.8932 -0.2994
vn -0.1525 -0.7864 -0.5986
vn 0.1716 -0.4184 -0.8919
vn -0.0645 -0.9611 -0.2685
vn 0.0611 -0.7460 -0.6631
vn -0.5479 -0.6822 -0.4842
vn -0.3244 -0.2948 -0.8988
vn -0.4489 -0.8300 -0.3311
vn -0.3948 -0.8950 -0.2075
vn -0.1926 -0.0333 -0.9807
vn 0.0016 -0.0448 -0.9990
vn 0.2595 -0.1270 -0.9574
vn -0.0153 -0.3053 -0.9521
vn 0.6189 -0.2110 -0.7566
vn -0.3427 -0.1972 -0.9185
vn -0.3878 -0.0525 -0.9203
vn 0.9422 -0.1203 -0.3128
vn 0.9846 -0.1740 -0.0181
vn 0.8356 -0.1677 -0.5231
vn 0.9521 -0.1992 0.2322
vn -0.7283 -0.3942 0.5606
vn -0.7943 -0.5414 0.2755
vn -0.7407 -0.5162 0.4300
vn -0.6056 -0.5095 0.6113
vn -0.3812 -0.3986 0.8341
vn -0.0896 -0.5275 0.8448
vn -0.1493 -0.6045 0.7825
vn -0.3942 -0.7144 0.5782
vn -0.5318 -0.7348 0.4210
vn -0.6544 -0.6856 0.3189
vn -0.3072 -0.6884 0.6570
vn 0.0781 -0.4419 0.8936
vn 0.5052 -0.2350 0.8304
vn 0.4208 -0.7584 0.4977
vn 0.6686 -0.6217 0.4081
vn 0.8369 -0.4860 0.2518
vn -0.0399 -0.6163 0.7865
vn -0.1942 -0.6420 0.7418
vn 0.0516 -0.3276 0.9434
vn 0.2975 0.7866 0.5411
vn 0.2619 0.5773 0.7734
vn 0.4258 0.2626 0.8658
vn 0.1844 0.4018 0.8970
vn 0.5361 0.0639 0.8417
vn 0.3802 -0.4353 0.8160
vn 0.0221 0.9507 0.3093
vn 0.1173 -0.1835 -0.9760
vn 0.0930 -0.0801 -0.9924
vn -0.0127 -0.2530 -0.9674
vn -0.2813 0.7574 -0.5892
vn -0.4113 0.5882 -0.6963
vn -0.5014 0.1093 -0.8583
vn -0.3207 -0.1542 -0.9345
vn -0.1166 0.9713 -0.2073
vn -0.1207 0.9022 -0.4140
vn -0.2769 0.9377 0.2098
vn -0.4200 0.9074 -0.0135
vn -0.1327 -0.9713 -0.1976
vn -0.2722 -0.9589 0.0800
vn -0.3154 -0.9137 0.2561
vn -0.1695 -0.9750 0.1436
vn -0.3825 -0.8922 0.2402
vn 0.0694 -0.4933 -0.8671
vn -0.0732 -0.9766 0.2023
vn -0.0318 -0.9954 -0.0909
vn -0.1881 -0.8593 -0.4757
vn -0.1608 -0.9383 -0.3062
vn -0.0003 -0.6901 -0.7237
vn -0.5168 -0.8521 0.0829
vn -0.6275 -0.7784 0.0189
vn -0.6039 -0.5599 -0.5673
vn -0.3914 -0.2596 -0.8828
vn -0.1563 -0.2956 -0.9424
vn -0.0859 -0.3758 -0.9227
vn 0.4050 -0.3280 -0.8534
vn 0.1223 -0.4758 -0.8710
vn -0.2068 -0.4959 -0.8434
vn 0.7272 -0.3126 -0.6111
vn 0.5246 -0.5074 -0.6837
vn -0.3682 -0.2581 -0.8932
vn 0.8357 -0.4681 -0.2873
vn 0.8965 -0.4181 -0.1464
vn 0.6654 -0.7275 0.1673
vn 0.7182 -0.5674 -0.4028
vn -0.5778 -0.6599 0.4802
vn -0.6200 -0.6524 0.4359
vn -0.7005 -0.5757 0.4218
vn -0.2415 -0.8424 0.4818
vn 0.0883 -0.6802 0.7277
vn -0.7585 -0.6051 0.2417
vn -0.6988 -0.7069 0.1098
vn -0.0519 -0.9598 0.2757
vn 0.2124 -0.9540 0.2118
vn 0.2575 -0.6747 0.6917
vn -0.2343 -0.8604 0.4526
vn -0.0537 -0.8657 0.4976
vn -0.2410 0.6556 0.7156
vn -0.0050 0.9026 0.4305
vn 0.1038 0.3445 0.9330
vn 0.1713 0.4784 0.8613
vn -0.0895 0.3024 0.9490
vn -0.2651 0.5291 0.8061
vn 0.1442 0.2664 0.9530
vn 0.4125 -0.1388 0.9003
vn 0.6019 -0.1251 0.7887
vn 0.4797 -0.4581 0.7484
vn -0.3153 0.1023 -0.9435
vn -0.1536 -0.1395 -0.9782
vn -0.2496 -0.0958 -0.9636
vn -0.2205 -0.3969 -0.8910
vn -0.5310 0.7706 -0.3525
vn -0.8146 0.5395 -0.2129
vn -0.9359 0.2634 -0.2337
vn -0.8979 -0.0752 -0.4338
vn -0.7002 0.1379 -0.7005
vn -0.7275 0.5455 -0.4162
vn -0.2727 0.9323 -0.2376
vn -0.6861 0.6918 0.2250
vn -0.6725 0.7120 0.2020
vn -0.6323 0.7462 -0.2085
vn -0.8465 0.5263 -0.0804
vn -0.2353 -0.7109 -0.6628
vn 0.1477 -0.8739 0.4631
vn 0.1070 -0.9930 0.0505
vn 0.2691 -0.8821 0.3866
vn -0.2254 -0.8696 -0.4393
vn -0.0942 -0.9530 -0.2880
vn -0.7042 -0.7065 0.0706
vn -0.6463 -0.7141 -0.2690
vn -0.5182 -0.7443 -0.4214
vn -0.3780 -0.2034 -0.9032
vn -0.1762 -0.3087 -0.9347
vn 0.1806 -0.5947 -0.7834
vn -0.1775 -0.3864 -0.9051
vn -0.2719 -0.1168 -0.9552
vn 0.6714 -0.7229 -0.1630
vn 0.6775 -0.7324 -0.0683
vn 0.3670 -0.9020 0.2275
vn 0.5254 -0.8375 -0.1503
vn 0.3393 -0.7994 -0.4958
vn -0.3859 -0.9180 0.0915
vn -0.2862 -0.9334 0.2162
vn -0.4479 -0.8442 0.2946
vn -0.2489 -0.7067 0.6623
vn -0.3313 -0.6964 0.6366
vn -0.6267 -0.6159 0.4775
vn -0.6177 -0.7819 0.0845
vn -0.6473 -0.7618 0.0252
vn -0.0493 -0.9720 0.2298
vn 0.3206 -0.6726 0.6670
vn -0.3796 0.1562 0.9119
vn -0.8516 0.3613 0.3798
vn -0.3024 0.2019 0.9315
vn -0.5423 0.4150 0.7305
vn -0.5720 0.1963 0.7964
vn -0.1956 0.5245 0.8286
vn -0.5633 0.5911 0.5773
vn -0.3910 0.5535 0.7354
vn 0.0275 -0.2057 0.9782
vn 0.2549 -0.4604 0.8503
vn -0.2839 0.1350 0.9493
vn -0.6425 0.0891 -0.7611
vn -0.5745 0.3319 -0.7482
vn -0.4411 -0.1172 -0.8898
vn -0.4147 -0.2660 -0.8702
vn -0.3424 -0.5223 -0.7810
vn -0.8803 0.4708 -0.0591
vn -0.9337 0.3505 -0.0730
vn -0.8230 0.3134 -0.4738
vn -0.7757 0.3843 -0.5005
vn -0.7812 0.6193 -0.0790
vn -0.8538 0.5029 -0.1347
vn -0.8577 0.5069 0.0865
vn -0.9290 0.2846 0.2366
vn -0.9149 0.3290 0.2338
vn -0.9209 0.3653 -0.1360
vn -0.2981 -0.7474 -0.5938
vn 0.0559 -0.9941 0.0928
vn 0.1866 -0.8709 0.4546
vn -0.1867 -0.8022 -0.5672
vn -0.4078 -0.9121 0.0424
vn -0.0796 -0.9485 -0.3068
vn -0.5130 -0.6879 -0.5135
vn -0.4530 -0.8891 -0.0654
vn -0.2230 -0.9696 0.1005
vn -0.3526 -0.8020 -0.4820
vn -0.2855 -0.1578 -0.9453
vn -0.0848 -0.3326 -0.9393
vn 0.0274 -0.4243 -0.9051
vn 0.0046 -0.4757 -0.8796
vn -0.0139 -0.5044 -0.8633
vn -0.0775 -0.5513 -0.8307
vn 0.3811 -0.9168 -0.1195
vn 0.4813 -0.8464 -0.2279
vn 0.3825 -0.9085 0.1684
vn 0.1668 -0.8718 0.4606
vn 0.4465 -0.8930 -0.0558
vn 0.3119 -0.9324 -0.1824
vn -0.2186 -0.8370 0.5017
vn -0.0756 -0.7266 0.6829
vn -0.1595 -0.7694 0.6185
vn -0.3271 -0.8975 0.2959
vn -0.5277 -0.7657 0.3677
vn -0.4883 -0.8629 -0.1305
vn 0.0748 -0.8391 0.5389
vn -0.0026 -0.4056 0.9140
vn 0.1580 -0.6213 0.7675
vn -0.5850 0.0924 0.8057
vn -0.8045 0.2095 0.5557
vn -0.7645 0.5444 0.3453
vn -0.7355 0.3346 0.5891
vn -0.6605 0.5121 0.5491
vn -0.4347 0.1450 0.8888
vn -0.5299 -0.2669 -0.8050
vn -0.8340 0.3335 -0.4396
vn -0.9168 0.3970 0.0426
vn -0.9858 0.1501 0.0759
vn -0.6829 0.6392 0.3536
vn -0.6991 0.5932 0.3993
vn -0.9234 0.3677 -0.1100
vn -0.9185 0.3507 -0.1827
vn -0.8775 0.4504 0.1649
vn -0.9206 0.3134 0.2328
vn -0.6349 -0.3510 -0.6882
vn -0.3590 -0.7748 0.5205
vn -0.4209 -0.8335 0.3579
vn 0.0136 -0.8106 0.5855
vn -0.5780 -0.5392 -0.6125
vn -0.4746 -0.8047 -0.3567
vn -0.8630 -0.4799 0.1577
vn -0.8824 -0.1719 -0.4379
vn -0.8815 -0.3329 -0.3349
vn -0.0971 -0.9943 0.0443
vn -0.2373 -0.9669 -0.0937
vn -0.0805 -0.9361 -0.3424
vn 0.0730 -0.9290 -0.3627
vn 0.1141 -0.9909 -0.0720
vn -0.1220 -0.4844 -0.8663
vn 0.1071 -0.7027 -0.7034
vn 0.1763 -0.7582 -0.6277
vn 0.0247 -0.9859 -0.1656
vn 0.2623 -0.9403 -0.2169
vn 0.3024 -0.9057 -0.2972
vn 0.1722 -0.9671 0.1871
vn 0.0290 -0.8849 -0.4650
vn 0.1139 -0.8271 0.5505
vn -0.1158 -0.9874 0.1078
vn -0.2163 -0.1619 0.9628
vn -0.3746 0.0223 0.9269
vn -0.0704 -0.4536 0.8884
vn -0.7539 0.6024 0.2621
vn -0.6190 0.2798 0.7339
vn -0.5534 0.2894 0.7810
vn -0.8585 0.4905 -0.1494
vn -0.9067 0.0986 0.4101
vn -0.8127 0.1049 0.5732
vn -0.6928 0.2517 0.6758
vn -0.7614 -0.4381 0.4778
vn -0.8640 -0.1035 -0.4927
vn -0.2539 -0.5216 0.8145
vn -0.6731 -0.3834 0.6324
vn -0.5582 -0.2570 0.7889
vn 0.0591 -0.9953 -0.0769
vn 0.2966 -0.7888 -0.5384
vn -0.3383 -0.0042 0.9410
vn -0.4880 -0.0366 0.8721
s 1
f 1//1 2//2 3//3
f 1//1 4//4 2//2
f 3//3 5//5 1//1
f 1//1 5//5 4//4
f 6//6 7//7 3//3
f 3//3 8//8 6//6
f 3//3 2//2 8//8
f 7//7 9//9 3//3
f 3//3 9//9 5//5
f 2//2 10//10 11//11
f 11//11 8//8 2//2
f 12//12 2//2 4//4
f 10//10 2//2 12//12
f 13//13 14//14 4//4
f 15//15 4//4 5//5
f 12//12 4//4 14//14
f 4//4 16//16 13//13
f 4//4 15//15 16//16
f 17//17 5//5 9//9
f 17//17 18//18 5//5
f 18//18 15//15 5//5
f 6//6 19//19 20//20
f 6//6 20//20 21//21
f 19//19 6//6 11//11
f 11//11 6//6 8//8
f 7//7 6//6 22//22
f 22//22 6//6 21//21
f 23//23 7//7 22//22
f 9//9 7//7 23//23
f 9//9 23//23 24//24
f 25//25 9//9 24//24
f 26//26 9//9 25//25
f 26//26 17//17 9//9
f 27//27 19//19 11//11
f 11//11 28//28 27//27
f 11//11 10//10 28//28
f 29//29 10//10 30//30
f 29//29 28//28 10//10
f 12//12 31//31 10//10
f 31//31 32//32 10//10
f 10//10 32//32 33//33
f 34//34 10//10 33//33
f 30//30 10//10 34//34
f 31//31 12//12 35//35
f 35//35 12//12 36//36
f 12//12 14//14 36//36
f 37//37 13//13 38//38
f 39//39 14//14 13//13
f 13//13 16//16 38//38
f 40//40 13//13 37//37
f 40//40 39//39 13//13
f 41//41 42//42 14//14
f 36//36 14//14 42//42
f 39//39 41//41 14//14
f 18//18 16//16 15//15
f 16//16 18//18 43//43
f 43//43 38//38 16//16
f 44//44 45//45 17//17
f 45//45 18//18 17//17
f 44//44 17//17 46//46
f 46//46 17//17 26//26
f 45//45 43//43 18//18
f 47//47 20//20 48//48
f 49//49 20//20 19//19
f 50//50 21//21 20//20
f 50//50 20//20 51//51
f 51//51 20//20 47//47
f 52//52 20//20 49//49
f 52//52 48//48 20//20
f 49//49 19//19 53//53
f 27//27 53//53 19//19
f 54//54 24//24 21//21
f 21//21 55//55 54//54
f 55//55 21//21 50//50
f 21//21 24//24 22//22
f 24//24 23//23 22//22
f 24//24 56//56 57//57
f 24//24 54//54 56//56
f 24//24 57//57 25//25
f 46//46 26//26 25//25
f 25//25 58//58 46//46
f 57//57 59//59 25//25
f 25//25 59//59 58//58
f 29//29 27//27 28//28
f 60//60 27//27 61//61
f 27//27 29//29 61//61
f 27//27 60//60 53//53
f 62//62 29//29 30//30
f 63//63 61//61 29//29
f 63//63 29//29 62//62
f 64//64 30//30 34//34
f 30//30 64//64 62//62
f 35//35 65//65 31//31
f 31//31 65//65 32//32
f 32//32 66//66 33//33
f 67//67 66//66 32//32
f 65//65 67//67 32//32
f 33//33 68//68 34//34
f 68//68 33//33 69//69
f 69//69 33//33 66//66
f 34//34 70//70 64//64
f 70//70 34//34 68//68
f 65//65 35//35 71//71
f 36//36 72//72 35//35
f 73//73 74//74 35//35
f 73//73 35//35 72//72
f 74//74 71//71 35//35
f 75//75 36//36 42//42
f 75//75 76//76 36//36
f 76//76 72//72 36//36
f 37//37 38//38 77//77
f 78//78 37//37 79//79
f 80//80 37//37 77//77
f 80//80 79//79 37//37
f 37//37 78//78 40//40
f 77//77 38//38 43//43
f 41//41 39//39 81//81
f 81//81 39//39 82//82
f 40//40 82//82 39//39
f 82//82 40//40 78//78
f 42//42 41//41 81//81
f 81//81 75//75 42//42
f 43//43 45//45 83//83
f 83//83 84//84 43//43
f 77//77 43//43 84//84
f 45//45 44//44 85//85
f 86//86 44//44 58//58
f 58//58 44//44 46//46
f 86//86 85//85 44//44
f 87//87 45//45 85//85
f 87//87 83//83 45//45
f 51//51 47//47 88//88
f 88//88 47//47 89//89
f 89//89 47//47 48//48
f 89//89 48//48 52//52
f 52//52 49//49 53//53
f 50//50 88//88 90//90
f 55//55 50//50 91//91
f 91//91 50//50 90//90
f 88//88 50//50 51//51
f 92//92 89//89 52//52
f 92//92 52//52 53//53
f 93//93 92//92 53//53
f 60//60 93//93 53//53
f 94//94 54//54 91//91
f 55//55 91//91 54//54
f 54//54 95//95 56//56
f 54//54 94//94 95//95
f 56//56 59//59 57//57
f 56//56 96//96 59//59
f 95//95 97//97 56//56
f 56//56 98//98 96//96
f 56//56 99//99 98//98
f 97//97 99//99 56//56
f 59//59 96//96 58//58
f 96//96 98//98 58//58
f 86//86 58//58 98//98
f 60//60 61//61 93//93
f 100//100 93//93 61//61
f 101//101 61//61 63//63
f 101//101 100//100 61//61
f 62//62 64//64 102//102
f 62//62 103//103 63//63
f 103//103 62//62 102//102
f 63//63 104//104 101//101
f 63//63 103//103 104//104
f 64//64 105//105 102//102
f 105//105 64//64 70//70
f 67//67 65//65 106//106
f 106//106 65//65 107//107
f 71//71 107//107 65//65
f 108//108 66//66 109//109
f 66//66 108//108 69//69
f 109//109 66//66 110//110
f 111//111 110//110 66//66
f 66//66 67//67 111//111
f 106//106 111//111 67//67
f 112//112 68//68 113//113
f 69//69 113//113 68//68
f 68//68 112//112 70//70
f 69//69 108//108 113//113
f 105//105 70//70 114//114
f 70//70 112//112 114//114
f 71//71 74//74 107//107
f 72//72 115//115 116//116
f 72//72 76//76 117//117
f 115//115 72//72 117//117
f 73//73 72//72 116//116
f 118//118 73//73 116//116
f 73//73 118//118 74//74
f 74//74 119//119 107//107
f 74//74 118//118 120//120
f 121//121 74//74 120//120
f 119//119 74//74 121//121
f 122//122 75//75 123//123
f 124//124 75//75 122//122
f 81//81 123//123 75//75
f 76//76 75//75 124//124
f 125//125 76//76 124//124
f 117//117 76//76 125//125
f 84//84 80//80 77//77
f 126//126 78//78 127//127
f 127//127 78//78 79//79
f 126//126 82//82 78//78
f 79//79 80//80 128//128
f 127//127 79//79 129//129
f 129//129 79//79 128//128
f 84//84 130//130 80//80
f 130//130 128//128 80//80
f 131//131 123//123 81//81
f 81//81 82//82 131//131
f 132//132 82//82 126//126
f 131//131 82//82 132//132
f 84//84 83//83 133//133
f 87//87 134//134 83//83
f 83//83 134//134 133//133
f 135//135 84//84 133//133
f 130//130 84//84 135//135
f 86//86 87//87 85//85
f 86//86 98//98 136//136
f 86//86 134//134 87//87
f 136//136 134//134 86//86
f 137//137 88//88 138//138
f 90//90 88//88 137//137
f 88//88 89//89 139//139
f 139//139 138//138 88//88
f 140//140 89//89 92//92
f 140//140 139//139 89//89
f 91//91 90//90 141//141
f 141//141 90//90 137//137
f 91//91 142//142 94//94
f 91//91 143//143 142//142
f 91//91 141//141 143//143
f 144//144 145//145 92//92
f 145//145 146//146 92//92
f 146//146 140//140 92//92
f 144//144 92//92 93//93
f 93//93 100//100 147//147
f 144//144 93//93 147//147
f 148//148 94//94 142//142
f 148//148 149//149 94//94
f 149//149 95//95 94//94
f 149//149 97//97 95//95
f 150//150 97//97 149//149
f 150//150 151//151 97//97
f 152//152 97//97 151//151
f 99//99 97//97 152//152
f 99//99 136//136 98//98
f 152//152 136//136 99//99
f 153//153 154//154 100//100
f 100//100 154//154 147//147
f 155//155 153//153 100//100
f 155//155 100//100 101//101
f 101//101 104//104 155//155
f 156//156 157//157 102//102
f 158//158 103//103 102//102
f 105//105 156//156 102//102
f 102//102 159//159 158//158
f 157//157 159//159 102//102
f 103//103 158//158 104//104
f 160//160 104//104 158//158
f 161//161 104//104 160//160
f 104//104 161//161 155//155
f 162//162 156//156 105//105
f 162//162 105//105 114//114
f 111//111 106//106 163//163
f 107//107 163//163 106//106
f 107//107 164//164 163//163
f 107//107 165//165 164//164
f 165//165 107//107 119//119
f 108//108 166//166 113//113
f 166//166 108//108 167//167
f 167//167 108//108 109//109
f 110//110 168//168 109//109
f 167//167 109//109 168//168
f 168//168 110//110 169//169
f 110//110 163//163 169//169
f 110//110 111//111 163//163
f 112//112 170//170 114//114
f 170//170 112//112 171//171
f 171//171 112//112 113//113
f 171//171 113//113 166//166
f 114//114 172//172 162//162
f 170//170 173//173 114//114
f 114//114 173//173 172//172
f 174//174 116//116 115//115
f 174//174 118//118 116//116
f 175//175 115//115 176//176
f 174//174 115//115 177//177
f 115//115 117//117 176//176
f 175//175 177//177 115//115
f 117//117 178//178 176//176
f 117//117 125//125 178//178
f 120//120 118//118 174//174
f 179//179 119//119 121//121
f 165//165 119//119 179//179
f 120//120 180//180 181//181
f 120//120 174//174 180//180
f 181//181 121//121 120//120
f 182//182 121//121 183//183
f 179//179 121//121 184//184
f 181//181 183//183 121//121
f 182//182 184//184 121//121
f 124//124 122//122 185//185
f 186//186 185//185 122//122
f 122//122 187//187 186//186
f 122//122 123//123 187//187
f 187//187 123//123 131//131
f 178//178 125//125 124//124
f 185//185 178//178 124//124
f 188//188 126//126 189//189
f 127//127 189//189 126//126
f 126//126 188//188 132//132
f 129//129 190//190 127//127
f 190//190 189//189 127//127
f 128//128 130//130 191//191
f 129//129 128//128 192//192
f 192//192 128//128 191//191
f 190//190 129//129 193//193
f 192//192 193//193 129//129
f 130//130 135//135 194//194
f 130//130 194//194 195//195
f 195//195 191//191 130//130
f 187//187 131//131 196//196
f 196//196 131//131 132//132
f 196//196 132//132 188//188
f 197//197 133//133 198//198
f 134//134 198//198 133//133
f 133//133 197//197 135//135
f 134//134 136//136 152//152
f 199//199 198//198 134//134
f 152//152 199//199 134//134
f 135//135 200//200 194//194
f 200//200 135//135 197//197
f 201//201 137//137 202//202
f 202//202 137//137 138//138
f 141//141 137//137 201//201
f 138//138 139//139 202//202
f 139//139 146//146 203//203
f 139//139 203//203 202//202
f 139//139 140//140 146//146
f 143//143 141//141 201//201
f 143//143 204//204 142//142
f 205//205 142//142 204//204
f 205//205 148//148 142//142
f 143//143 201//201 204//204
f 144//144 147//147 178//178
f 144//144 178//178 185//185
f 185//185 145//145 144//144
f 186//186 145//145 185//185
f 186//186 146//146 145//145
f 206//206 146//146 207//207
f 146//146 186//186 207//207
f 146//146 206//206 203//203
f 154//154 178//178 147//147
f 205//205 149//149 148//148
f 149//149 205//205 150//150
f 208//208 150//150 205//205
f 150//150 208//208 209//209
f 209//209 151//151 150//150
f 152//152 151//151 199//199
f 209//209 199//199 151//151
f 210//210 153//153 161//161
f 154//154 153//153 211//211
f 212//212 211//211 153//153
f 153//153 210//210 212//212
f 155//155 161//161 153//153
f 211//211 176//176 154//154
f 176//176 178//178 154//154
f 156//156 213//213 157//157
f 162//162 214//214 156//156
f 156//156 214//214 213//213
f 215//215 159//159 157//157
f 215//215 157//157 213//213
f 216//216 158//158 159//159
f 158//158 216//216 160//160
f 217//217 218//218 159//159
f 216//216 159//159 218//218
f 159//159 215//215 217//217
f 160//160 219//219 220//220
f 216//216 219//219 160//160
f 221//221 161//161 160//160
f 221//221 160//160 220//220
f 161//161 222//222 210//210
f 221//221 222//222 161//161
f 214//214 162//162 172//172
f 164//164 169//169 163//163
f 223//223 164//164 224//224
f 225//225 164//164 165//165
f 225//225 224//224 164//164
f 223//223 169//169 164//164
f 226//226 165//165 179//179
f 165//165 226//226 225//225
f 166//166 227//227 171//171
f 166//166 167//167 227//227
f 167//167 168//168 228//228
f 227//227 167//167 228//228
f 229//229 168//168 230//230
f 231//231 168//168 169//169
f 231//231 230//230 168//168
f 229//229 228//228 168//168
f 169//169 223//223 232//232
f 231//231 169//169 232//232
f 173//173 170//170 233//233
f 171//171 233//233 170//170
f 171//171 227//227 233//233
f 234//234 214//214 172//172
f 173//173 235//235 172//172
f 234//234 172//172 235//235
f 173//173 233//233 236//236
f 235//235 173//173 237//237
f 236//236 237//237 173//173
f 180//180 174//174 177//177
f 211//211 175//175 176//176
f 175//175 211//211 177//177
f 211//211 212//212 177//177
f 180//180 177//177 212//212
f 179//179 184//184 238//238
f 226//226 179//179 238//238
f 239//239 181//181 180//180
f 181//181 240//240 183//183
f 239//239 241//241 181//181
f 240//240 181//181 241//241
f 212//212 239//239 180//180
f 182//182 238//238 184//184
f 182//182 242//242 238//238
f 183//183 242//242 182//182
f 243//243 183//183 240//240
f 242//242 183//183 243//243
f 244//244 186//186 187//187
f 207//207 186//186 244//244
f 187//187 245//245 244//244
f 187//187 246//246 245//245
f 247//247 246//246 187//187
f 247//247 187//187 196//196
f 196//196 188//188 248//248
f 189//189 248//248 188//188
f 189//189 190//190 248//248
f 193//193 248//248 190//190
f 195//195 192//192 191//191
f 249//249 250//250 192//192
f 249//249 192//192 195//195
f 250//250 193//193 192//192
f 193//193 250//250 248//248
f 195//195 194//194 200//200
f 195//195 200//200 249//249
f 196//196 248//248 251//251
f 247//247 196//196 251//251
f 252//252 197//197 198//198
f 197//197 252//252 200//200
f 253//253 252//252 198//198
f 253//253 198//198 199//199
f 254//254 253//253 199//199
f 209//209 254//254 199//199
f 252//252 255//255 200//200
f 249//249 200//200 256//256
f 256//256 200//200 255//255
f 204//204 201//201 257//257
f 258//258 257//257 201//201
f 201//201 259//259 258//258
f 201//201 202//202 259//259
f 260//260 202//202 261//261
f 202//202 203//203 262//262
f 262//262 261//261 202//202
f 260//260 259//259 202//202
f 206//206 262//262 203//203
f 208//208 204//204 257//257
f 205//205 204//204 208//208
f 206//206 207//207 262//262
f 263//263 207//207 264//264
f 262//262 207//207 263//263
f 244//244 264//264 207//207
f 208//208 265//265 209//209
f 265//265 208//208 257//257
f 209//209 265//265 254//254
f 210//210 266//266 239//239
f 239//239 212//212 210//210
f 266//266 210//210 222//222
f 213//213 214//214 234//234
f 267//267 215//215 213//213
f 234//234 268//268 213//213
f 267//267 213//213 268//268
f 215//215 269//269 217//217
f 269//269 215//215 267//267
f 219//219 216//216 218//218
f 217//217 270//270 218//218
f 271//271 217//217 269//269
f 271//271 270//270 217//217
f 272//272 219//219 218//218
f 273//273 218//218 270//270
f 274//274 272//272 218//218
f 218//218 273//273 274//274
f 220//220 219//219 275//275
f 222//222 220//220 276//276
f 276//276 220//220 275//275
f 221//221 220//220 222//222
f 277//277 275//275 219//219
f 219//219 272//272 277//277
f 276//276 266//266 222//222
f 278//278 279//279 223//223
f 280//280 223//223 224//224
f 280//280 278//278 223//223
f 223//223 279//279 232//232
f 280//280 224//224 225//225
f 225//225 281//281 280//280
f 225//225 226//226 281//281
f 226//226 282//282 281//281
f 226//226 238//238 282//282
f 227//227 236//236 233//233
f 236//236 227//227 283//283
f 227//227 228//228 283//283
f 229//229 283//283 228//228
f 284//284 229//229 230//230
f 284//284 283//283 229//229
f 285//285 230//230 231//231
f 284//284 230//230 285//285
f 231//231 232//232 285//285
f 286//286 232//232 279//279
f 286//286 287//287 232//232
f 232//232 288//288 285//285
f 289//289 288//288 232//232
f 287//287 289//289 232//232
f 234//234 235//235 290//290
f 234//234 290//290 268//268
f 290//290 235//235 291//291
f 237//237 291//291 235//235
f 237//237 236//236 292//292
f 283//283 292//292 236//236
f 292//292 291//291 237//237
f 293//293 282//282 238//238
f 293//293 238//238 242//242
f 266//266 241//241 239//239
f 240//240 294//294 243//243
f 241//241 295//295 240//240
f 295//295 294//294 240//240
f 295//295 241//241 266//266
f 242//242 296//296 293//293
f 242//242 243//243 296//296
f 294//294 297//297 243//243
f 298//298 243//243 297//297
f 296//296 243//243 299//299
f 298//298 299//299 243//243
f 264//264 244//244 245//245
f 300//300 245//245 246//246
f 264//264 245//245 300//300
f 301//301 246//246 302//302
f 301//301 300//300 246//246
f 302//302 246//246 247//247
f 247//247 303//303 302//302
f 303//303 247//247 251//251
f 304//304 305//305 248//248
f 306//306 303//303 248//248
f 251//251 248//248 303//303
f 306//306 248//248 307//307
f 305//305 307//307 248//248
f 250//250 304//304 248//248
f 249//249 256//256 308//308
f 308//308 304//304 249//249
f 250//250 249//249 304//304
f 309//309 310//310 252//252
f 309//309 252//252 253//253
f 255//255 252//252 310//310
f 254//254 311//311 253//253
f 309//309 253//253 311//311
f 265//265 312//312 254//254
f 311//311 254//254 312//312
f 310//310 313//313 255//255
f 314//314 255//255 313//313
f 256//256 255//255 314//314
f 308//308 256//256 314//314
f 258//258 265//265 257//257
f 315//315 258//258 259//259
f 315//315 265//265 258//258
f 260//260 315//315 259//259
f 316//316 260//260 317//317
f 317//317 260//260 261//261
f 316//316 315//315 260//260
f 318//318 317//317 261//261
f 319//319 261//261 262//262
f 319//319 318//318 261//261
f 319//319 262//262 263//263
f 264//264 300//300 263//263
f 300//300 320//320 263//263
f 320//320 318//318 263//263
f 319//319 263//263 318//318
f 316//316 321//321 265//265
f 321//321 312//312 265//265
f 315//315 316//316 265//265
f 322//322 323//323 266//266
f 323//323 295//295 266//266
f 276//276 322//322 266//266
f 267//267 324//324 269//269
f 267//267 268//268 324//324
f 268//268 325//325 324//324
f 325//325 268//268 290//290
f 271//271 269//269 324//324
f 326//326 270//270 327//327
f 271//271 327//327 270//270
f 270//270 326//326 273//273
f 324//324 325//325 271//271
f 271//271 325//325 327//327
f 277//277 272//272 274//274
f 273//273 328//328 274//274
f 273//273 326//326 328//328
f 277//277 274//274 329//329
f 274//274 328//328 329//329
f 329//329 322//322 275//275
f 277//277 329//329 275//275
f 276//276 275//275 322//322
f 330//330 331//331 278//278
f 331//331 286//286 278//278
f 278//278 286//286 279//279
f 280//280 330//330 278//278
f 330//330 280//280 281//281
f 330//330 281//281 282//282
f 330//330 282//282 293//293
f 332//332 292//292 283//283
f 284//284 332//332 283//283
f 284//284 285//285 288//288
f 284//284 291//291 332//332
f 288//288 291//291 284//284
f 331//331 287//287 286//286
f 287//287 333//333 334//334
f 335//335 287//287 334//334
f 336//336 287//287 337//337
f 333//333 287//287 336//336
f 337//337 287//287 331//331
f 335//335 338//338 287//287
f 287//287 338//338 289//289
f 288//288 289//289 291//291
f 291//291 289//289 338//338
f 290//290 291//291 325//325
f 339//339 327//327 291//291
f 332//332 291//291 292//292
f 325//325 291//291 327//327
f 291//291 338//338 339//339
f 340//340 293//293 296//296
f 340//340 330//330 293//293
f 295//295 341//341 294//294
f 297//297 294//294 342//342
f 342//342 294//294 341//341
f 295//295 343//343 341//341
f 295//295 323//323 343//343
f 344//344 296//296 299//299
f 344//344 340//340 296//296
f 297//297 345//345 298//298
f 342//342 346//346 297//297
f 346//346 345//345 297//297
f 298//298 345//345 299//299
f 347//347 299//299 348//348
f 348//348 299//299 345//345
f 347//347 344//344 299//299
f 349//349 300//300 301//301
f 349//349 350//350 300//300
f 300//300 350//350 320//320
f 351//351 352//352 301//301
f 353//353 301//301 352//352
f 302//302 351//351 301//301
f 349//349 301//301 353//353
f 302//302 354//354 351//351
f 303//303 354//354 302//302
f 306//306 354//354 303//303
f 304//304 355//355 305//305
f 355//355 304//304 308//308
f 356//356 305//305 355//355
f 307//307 305//305 356//356
f 351//351 306//306 352//352
f 351//351 354//354 306//306
f 307//307 352//352 306//306
f 352//352 307//307 356//356
f 308//308 314//314 355//355
f 357//357 358//358 309//309
f 309//309 313//313 310//310
f 309//309 359//359 313//313
f 311//311 360//360 309//309
f 359//359 309//309 358//358
f 309//309 360//360 357//357
f 311//311 312//312 360//360
f 312//312 321//321 360//360
f 359//359 314//314 313//313
f 359//359 361//361 314//314
f 361//361 355//355 314//314
f 362//362 321//321 316//316
f 316//316 317//317 362//362
f 362//362 317//317 363//363
f 317//317 318//318 363//363
f 318//318 320//320 363//363
f 350//350 363//363 320//320
f 321//321 362//362 360//360
f 364//364 322//322 365//365
f 323//323 322//322 364//364
f 329//329 365//365 322//322
f 364//364 366//366 323//323
f 343//343 323//323 366//366
f 326//326 367//367 328//328
f 338//338 367//367 326//326
f 338//338 326//326 339//339
f 327//327 339//339 326//326
f 328//328 335//335 368//368
f 369//369 329//329 328//328
f 369//369 328//328 368//368
f 328//328 367//367 335//335
f 365//365 329//329 369//369
f 330//330 340//340 331//331
f 331//331 340//340 370//370
f 337//337 331//331 370//370
f 371//371 372//372 334//334
f 373//373 334//334 372//372
f 334//334 373//373 335//335
f 333//333 371//371 334//334
f 374//374 333//333 346//346
f 333//333 374//374 371//371
f 336//336 348//348 333//333
f 333//333 348//348 346//346
f 335//335 373//373 368//368
f 367//367 338//338 335//335
f 337//337 347//347 336//336
f 336//336 347//347 348//348
f 337//337 375//375 347//347
f 370//370 375//375 337//337
f 375//375 340//340 344//344
f 370//370 340//340 375//375
f 343//343 376//376 341//341
f 374//374 341//341 377//377
f 341//341 374//374 342//342
f 376//376 378//378 341//341
f 341//341 378//378 377//377
f 342//342 374//374 346//346
f 343//343 366//366 376//376
f 347//347 375//375 344//344
f 346//346 348//348 345//345
f 379//379 349//349 353//353
f 379//379 350//350 349//349
f 357//357 363//363 350//350
f 357//357 350//350 379//379
f 359//359 353//353 352//352
f 352//352 380//380 359//359
f 356//356 380//380 352//352
f 358//358 353//353 359//359
f 353//353 358//358 379//379
f 355//355 361//361 356//356
f 380//380 356//356 359//359
f 356//356 361//361 359//359
f 363//363 357//357 360//360
f 358//358 357//357 379//379
f 362//362 363//363 360//360
f 365//365 381//381 364//364
f 364//364 381//381 366//366
f 382//382 365//365 369//369
f 365//365 382//382 381//381
f 381//381 376//376 366//366
f 373//373 382//382 368//368
f 368//368 382//382 369//369
f 371//371 377//377 372//372
f 371//371 374//374 377//377
f 378//378 372//372 377//377
f 372//372 378//378 373//373
f 373//373 378//378 382//382
f 378//378 376//376 382//382
f 381//381 382//382 376//376
