# Blender 4.0.2
# www.blender.org
mtllib metatarsal_4_l.mtl
o metatarsal_4_l
v 0.049220 -0.023608 -0.007805
v 0.051849 -0.027601 -0.008564
v 0.052246 -0.026048 -0.006384
v 0.046447 -0.020467 -0.007013
v 0.046591 -0.020279 -0.006332
v 0.052541 -0.026587 -0.010266
v 0.051078 -0.023503 -0.005328
v 0.052293 -0.026101 -0.005296
v 0.055109 -0.024006 -0.011927
v 0.054496 -0.028108 -0.008321
v 0.041614 -0.017296 -0.005032
v 0.053011 -0.020988 -0.005088
v 0.047398 -0.013253 -0.004221
v 0.039556 -0.012262 -0.002101
v 0.056892 -0.025008 -0.011487
v 0.056247 -0.023858 -0.004795
v 0.056084 -0.027207 -0.006467
v 0.043502 -0.016679 -0.007035
v 0.047766 -0.015918 -0.009012
v 0.051943 -0.015586 -0.010732
v 0.058153 -0.022840 -0.011492
v 0.057908 -0.020368 -0.011566
v 0.058150 -0.024455 -0.009789
v 0.036515 -0.014635 -0.003426
v 0.041306 -0.015673 -0.006615
v 0.036195 -0.014732 -0.005644
v 0.056171 -0.016397 -0.006497
v 0.054242 -0.015070 -0.004952
v 0.041756 -0.009972 -0.003292
v 0.047749 -0.012006 -0.006037
v 0.021648 -0.007247 0.001157
v 0.019604 -0.002927 0.002737
v 0.058513 -0.019307 -0.006589
v 0.057834 -0.025002 -0.007106
v 0.048588 -0.013961 -0.008469
v 0.044645 -0.013310 -0.007636
v 0.057327 -0.018058 -0.010864
v 0.052743 -0.014382 -0.009461
v 0.058630 -0.022614 -0.010487
v 0.058634 -0.018900 -0.009174
v 0.020286 -0.009533 -0.001119
v 0.023969 -0.010342 -0.004254
v 0.032741 -0.005002 -0.004364
v 0.057198 -0.016460 -0.008606
v 0.058241 -0.017709 -0.006958
v 0.013745 0.003435 0.000699
v 0.012127 -0.007199 0.004270
v 0.013209 0.001844 0.003109
v 0.011518 -0.001204 0.005159
v 0.018511 -0.009693 -0.003264
v 0.005257 -0.006747 0.004354
v 0.013883 -0.007643 -0.004827
v 0.010740 -0.001551 -0.004672
v 0.011712 0.003575 -0.002435
v 0.007856 0.006092 0.000608
v 0.010672 -0.002843 0.004784
v 0.005934 0.006258 0.002078
v 0.007708 0.002607 0.004470
v 0.005291 -0.000669 0.005270
v 0.008564 -0.002352 0.004704
v 0.003483 -0.005369 0.003410
v -0.000603 -0.000564 -0.003506
v 0.008721 -0.003059 0.004603
v 0.003362 -0.001063 -0.004700
v 0.003956 -0.001408 0.004677
v 0.003786 0.000547 -0.005584
v 0.000172 0.003389 -0.004552
v 0.005834 0.006479 0.001572
v 0.004051 0.006596 0.001880
v 0.004225 0.005413 0.003288
v 0.005689 0.000057 0.004185
v 0.006945 0.003347 0.003930
v 0.006590 0.002969 0.003316
v 0.006967 0.002158 0.004115
v 0.004185 -0.000454 0.004928
v -0.000960 0.001472 -0.004851
vn -0.8084 -0.5524 -0.2034
vn -0.5459 -0.8368 -0.0419
vn -0.6318 -0.7482 0.2026
vn -0.6803 -0.6855 -0.2592
vn -0.3684 -0.5924 0.7164
vn -0.3930 -0.4843 -0.7817
vn -0.4111 -0.2111 0.8868
vn -0.4105 -0.5973 0.6890
vn -0.1580 -0.1764 -0.9715
vn 0.1242 -0.9885 -0.0858
vn -0.3794 -0.9030 0.2017
vn 0.0007 0.0100 0.9999
vn 0.2766 0.2817 0.9188
vn 0.1749 -0.1714 0.9696
vn 0.4129 -0.5458 -0.7291
vn 0.3696 -0.1367 0.9191
vn 0.4642 -0.7670 0.4429
vn -0.4517 -0.3007 -0.8400
vn -0.3593 0.1210 -0.9253
vn -0.1131 0.4084 -0.9058
vn 0.6431 -0.1524 -0.7504
vn 0.5411 0.1857 -0.8202
vn 0.8593 -0.4855 -0.1609
vn -0.1984 -0.8035 0.5613
vn -0.3050 -0.3617 -0.8810
vn -0.3792 -0.6336 -0.6743
vn 0.5498 0.5991 0.5821
vn 0.5214 0.5191 0.6773
vn 0.4096 0.5933 0.6930
vn 0.3036 0.9500 -0.0730
vn 0.1068 -0.4945 0.8626
vn 0.3514 0.2171 0.9107
vn 0.8068 0.1193 0.5787
vn 0.8700 -0.3875 0.3050
vn -0.1514 0.6096 -0.7781
vn -0.1274 0.3132 -0.9411
vn 0.5109 0.4975 -0.7011
vn 0.2732 0.8574 -0.4362
vn 0.9737 -0.1169 -0.1955
vn 0.9445 0.2719 -0.1845
vn -0.0587 -0.9148 0.3995
vn -0.1814 -0.6611 -0.7280
vn 0.3019 0.7575 -0.5789
vn 0.6103 0.7798 -0.1394
vn 0.7620 0.4733 0.4419
vn 0.4280 0.8720 0.2376
vn 0.0727 -0.6032 0.7942
vn 0.3828 0.5851 0.7149
vn 0.1649 0.1072 0.9805
vn -0.1839 -0.9658 -0.1830
vn -0.4131 -0.7620 0.4986
vn -0.3213 -0.5278 -0.7862
vn -0.1059 -0.0728 -0.9917
vn 0.2581 0.7402 -0.6208
vn 0.2693 0.9606 -0.0690
vn -0.0818 -0.1424 0.9864
vn 0.2358 0.7537 0.6135
vn -0.0591 0.4331 0.8994
vn -0.2042 0.1356 0.9695
vn -0.0427 -0.2412 0.9695
vn -0.7720 -0.5578 0.3048
vn -0.8751 -0.4588 -0.1541
vn -0.0639 -0.0689 0.9956
vn -0.1604 -0.6761 -0.7191
vn -0.9745 0.1546 0.1627
vn 0.0072 0.0016 -1.0000
vn -0.5300 0.6852 -0.4997
vn 0.1313 0.9913 0.0139
vn -0.4411 0.8655 0.2373
vn -0.4235 0.4090 0.8083
vn -0.2931 0.6312 0.7181
vn -0.5521 0.2838 0.7840
vn -0.5813 0.2263 0.7816
vn -0.6154 0.3077 0.7257
vn -0.4864 0.1981 0.8510
vn -0.8690 0.0491 -0.4923
s 1
f 1//1 2//2 3//3
f 4//4 1//1 5//5
f 6//6 2//2 1//1
f 7//7 1//1 8//8
f 3//3 8//8 1//1
f 7//7 5//5 1//1
f 9//9 6//6 1//1
f 9//9 1//1 4//4
f 3//3 10//10 8//8
f 10//10 3//3 2//2
f 10//10 2//2 6//6
f 5//5 11//11 4//4
f 9//9 4//4 11//11
f 5//5 7//7 12//12
f 13//13 14//14 5//5
f 11//11 5//5 14//14
f 5//5 12//12 13//13
f 6//6 9//9 15//15
f 15//15 10//10 6//6
f 7//7 8//8 12//12
f 16//16 12//12 8//8
f 17//17 16//16 8//8
f 10//10 17//17 8//8
f 9//9 18//18 19//19
f 19//19 20//20 9//9
f 21//21 15//15 9//9
f 22//22 9//9 20//20
f 9//9 11//11 18//18
f 21//21 9//9 22//22
f 10//10 23//23 17//17
f 15//15 23//23 10//10
f 24//24 11//11 14//14
f 18//18 11//11 25//25
f 11//11 24//24 26//26
f 25//25 11//11 26//26
f 27//27 12//12 16//16
f 28//28 12//12 27//27
f 12//12 28//28 13//13
f 29//29 13//13 30//30
f 30//30 13//13 28//28
f 29//29 14//14 13//13
f 14//14 31//31 24//24
f 14//14 32//32 31//31
f 14//14 29//29 32//32
f 23//23 15//15 21//21
f 33//33 27//27 16//16
f 34//34 33//33 16//16
f 16//16 17//17 34//34
f 17//17 23//23 34//34
f 35//35 20//20 19//19
f 19//19 18//18 36//36
f 36//36 35//35 19//19
f 18//18 25//25 36//36
f 22//22 20//20 37//37
f 38//38 37//37 20//20
f 35//35 38//38 20//20
f 21//21 22//22 39//39
f 39//39 23//23 21//21
f 22//22 40//40 39//39
f 22//22 37//37 40//40
f 34//34 23//23 39//39
f 41//41 42//42 24//24
f 42//42 26//26 24//24
f 41//41 24//24 31//31
f 25//25 43//43 36//36
f 25//25 26//26 43//43
f 43//43 26//26 42//42
f 28//28 27//27 38//38
f 38//38 27//27 44//44
f 45//45 44//44 27//27
f 33//33 45//45 27//27
f 28//28 38//38 30//30
f 46//46 29//29 43//43
f 30//30 43//43 29//29
f 29//29 46//46 32//32
f 36//36 43//43 30//30
f 30//30 35//35 36//36
f 30//30 38//38 35//35
f 31//31 47//47 41//41
f 32//32 47//47 31//31
f 48//48 32//32 46//46
f 47//47 32//32 49//49
f 49//49 32//32 48//48
f 33//33 40//40 45//45
f 33//33 39//39 40//40
f 39//39 33//33 34//34
f 44//44 40//40 37//37
f 38//38 44//44 37//37
f 40//40 44//44 45//45
f 50//50 42//42 41//41
f 51//51 50//50 41//41
f 47//47 51//51 41//41
f 50//50 52//52 42//42
f 42//42 52//52 43//43
f 52//52 53//53 43//43
f 43//43 53//53 54//54
f 46//46 43//43 54//54
f 55//55 48//48 46//46
f 55//55 46//46 54//54
f 47//47 49//49 56//56
f 56//56 51//51 47//47
f 57//57 48//48 55//55
f 57//57 58//58 48//48
f 48//48 58//58 49//49
f 59//59 49//49 58//58
f 60//60 56//56 49//49
f 49//49 59//59 60//60
f 51//51 52//52 50//50
f 51//51 61//61 62//62
f 56//56 63//63 51//51
f 51//51 64//64 53//53
f 64//64 51//51 62//62
f 53//53 52//52 51//51
f 65//65 51//51 63//63
f 51//51 65//65 61//61
f 66//66 54//54 53//53
f 66//66 53//53 64//64
f 67//67 55//55 54//54
f 66//66 67//67 54//54
f 68//68 57//57 55//55
f 67//67 69//69 55//55
f 55//55 69//69 68//68
f 60//60 63//63 56//56
f 69//69 57//57 68//68
f 57//57 70//70 71//71
f 57//57 69//69 70//70
f 57//57 72//72 58//58
f 57//57 73//73 72//72
f 57//57 71//71 73//73
f 74//74 58//58 72//72
f 71//71 59//59 58//58
f 58//58 74//74 71//71
f 59//59 65//65 60//60
f 71//71 75//75 59//59
f 59//59 75//75 65//65
f 63//63 60//60 65//65
f 64//64 62//62 76//76
f 61//61 75//75 62//62
f 62//62 75//75 69//69
f 76//76 62//62 69//69
f 75//75 61//61 65//65
f 64//64 76//76 66//66
f 76//76 67//67 66//66
f 67//67 76//76 69//69
f 70//70 69//69 75//75
f 74//74 73//73 71//71
f 71//71 70//70 75//75
f 74//74 72//72 73//73
