# Blender 4.0.2
# www.blender.org
mtllib patella_l.mtl
o patella_l
v 0.000000 0.052920 0.000000
v 0.000000 0.050274 0.012600
v 0.005482 0.049127 0.007546
v 0.005758 0.047980 0.001871
v 0.000000 0.044982 0.021764
v 0.010147 0.044365 0.013966
v 0.012139 0.043747 0.003944
v -0.004954 0.050979 0.006818
v -0.007935 0.043395 0.010922
v 0.005758 0.047980 -0.001871
v 0.003895 0.049744 -0.005362
v 0.000000 0.051509 -0.007200
v -0.003367 0.051596 -0.004633
v -0.004046 0.051685 -0.001315
v -0.004046 0.051685 0.001315
v 0.012139 0.043747 -0.003944
v 0.012023 0.033957 0.016548
v 0.000000 0.035280 0.024709
v 0.015407 0.032634 0.005006
v -0.008176 0.035015 0.011253
v 0.015407 0.032634 -0.005006
v -0.004981 0.041807 0.001618
v -0.002957 0.034751 0.000961
v 0.008993 0.046569 -0.012378
v 0.000000 0.049392 -0.017836
v -0.006781 0.045599 -0.009333
v -0.004981 0.041807 -0.001618
v 0.012600 0.034927 -0.017343
v 0.000000 0.023814 0.021436
v 0.011013 0.023814 0.015158
v 0.015251 0.023814 0.004955
v -0.007358 0.025577 0.010128
v 0.015251 0.023814 -0.004955
v -0.003424 0.027342 0.001112
v 0.011590 0.023460 -0.015953
v -0.002957 0.034751 -0.000961
v -0.003424 0.027342 -0.001112
v 0.000000 0.037220 -0.026673
v -0.008752 0.035986 -0.012047
v 0.000000 0.023109 -0.023400
v 0.008512 0.016493 0.011716
v 0.000000 0.018345 0.015546
v 0.012761 0.014641 0.004146
v -0.007887 0.015435 0.010856
v 0.012761 0.014641 -0.004146
v -0.010738 0.012524 0.003489
v 0.009089 0.016229 -0.012511
v -0.010738 0.012524 -0.003489
v 0.000000 0.017816 -0.017509
v -0.007935 0.025225 -0.010922
v -0.008464 0.015171 -0.011650
v 0.000000 0.008643 0.013418
v 0.006925 0.008732 0.009531
v 0.009649 0.008820 0.003135
v -0.006925 0.007937 0.009531
v 0.009649 0.008820 -0.003135
v -0.009649 0.007232 0.003135
v 0.007551 0.008556 -0.010392
v -0.009649 0.007232 -0.003135
v 0.000000 0.008291 -0.015546
v -0.007551 0.007761 -0.010392
v 0.000000 0.004233 0.008182
v 0.003991 0.003969 0.005495
v 0.005135 0.003705 0.001669
v -0.004424 0.003616 0.006089
v 0.005135 0.003705 -0.001669
v -0.006536 0.002999 0.002124
v 0.004617 0.003440 -0.006355
v -0.006536 0.002999 -0.002124
v 0.000000 0.003174 -0.010309
v -0.005049 0.003087 -0.006950
v 0.000000 0.000000 0.000000
vn 0.1844 0.9828 -0.0066
vn -0.0670 0.8998 0.4311
vn 0.5306 0.8413 0.1032
vn 0.6122 0.7883 -0.0620
vn -0.1492 0.5477 0.8232
vn 0.7320 0.5345 0.4224
vn 0.8294 0.5558 0.0559
vn -0.6986 0.7005 0.1458
vn -0.9485 0.2585 0.1832
vn 0.6010 0.7984 0.0381
vn 0.5394 0.8416 -0.0292
vn 0.0063 0.9643 -0.2646
vn -0.4812 0.8273 -0.2899
vn -0.7414 0.6710 -0.0070
vn -0.7466 0.6652 -0.0093
vn 0.8305 0.5535 -0.0625
vn 0.8011 0.0571 0.5958
vn -0.1828 0.0252 0.9828
vn 0.9813 0.1162 0.1533
vn -0.9940 -0.0443 0.0996
vn 0.9847 0.1224 -0.1240
vn -0.9824 -0.0443 -0.1815
vn -0.9723 -0.1043 -0.2093
vn 0.6847 0.6578 -0.3139
vn -0.1484 0.7892 -0.5959
vn -0.9269 0.3583 -0.1116
vn -0.9895 -0.1189 0.0823
vn 0.8236 0.1421 -0.5491
vn -0.2193 -0.4637 0.8584
vn 0.6997 -0.3351 0.6310
vn 0.9622 -0.1668 0.2153
vn -0.9838 0.0267 0.1775
vn 0.9710 -0.1622 -0.1754
vn -0.9575 0.2296 -0.1745
vn 0.7441 -0.3236 -0.5845
vn -0.9796 -0.0737 0.1871
vn -0.9564 0.2280 0.1824
vn -0.1603 0.1920 -0.9682
vn -0.9942 0.0709 -0.0808
vn -0.1979 -0.4544 -0.8685
vn 0.6128 -0.3739 0.6961
vn -0.1846 -0.4084 0.8939
vn 0.8994 -0.3601 0.2476
vn -0.7487 -0.0583 0.6603
vn 0.9140 -0.3561 -0.1942
vn -0.9887 0.0422 0.1437
vn 0.6840 -0.3716 -0.6278
vn -0.9949 0.0486 -0.0881
vn -0.1744 -0.4280 -0.8868
vn -0.9862 0.0343 -0.1618
vn -0.8037 -0.0515 -0.5928
vn -0.0005 -0.4894 0.8720
vn 0.6110 -0.5356 0.5830
vn 0.8016 -0.5769 0.1571
vn -0.6251 -0.4617 0.6294
vn 0.8212 -0.5630 -0.0934
vn -0.8792 -0.4266 0.2123
vn 0.6919 -0.5027 -0.5182
vn -0.8996 -0.4131 -0.1418
vn -0.0040 -0.4588 -0.8885
vn -0.7130 -0.4260 -0.5569
vn 0.0600 -0.8052 0.5900
vn 0.4800 -0.7812 0.3992
vn 0.6504 -0.7503 0.1186
vn -0.3683 -0.7884 0.4928
vn 0.6720 -0.7404 -0.0155
vn -0.6000 -0.7747 0.1999
vn 0.5650 -0.7821 -0.2630
vn -0.6244 -0.7748 -0.0987
vn 0.0463 -0.8293 -0.5570
vn -0.4829 -0.7988 -0.3589
vn 0.0857 -0.9937 0.0721
s 1
f 1//1 2//2 3//3
f 1//1 3//3 4//4
f 5//5 6//6 2//2
f 2//2 6//6 3//3
f 6//6 7//7 3//3
f 4//4 3//3 7//7
f 1//1 8//8 2//2
f 5//5 2//2 9//9
f 9//9 2//2 8//8
f 1//1 4//4 10//10
f 1//1 10//10 11//11
f 1//1 11//11 12//12
f 1//1 12//12 13//13
f 1//1 13//13 14//14
f 1//1 14//14 15//15
f 1//1 15//15 8//8
f 7//7 16//16 4//4
f 10//10 4//4 16//16
f 17//17 6//6 18//18
f 5//5 18//18 6//6
f 19//19 7//7 17//17
f 6//6 17//17 7//7
f 18//18 5//5 20//20
f 9//9 20//20 5//5
f 19//19 21//21 7//7
f 7//7 21//21 16//16
f 9//9 8//8 22//22
f 15//15 22//22 8//8
f 9//9 22//22 20//20
f 20//20 22//22 23//23
f 24//24 11//11 16//16
f 10//10 16//16 11//11
f 25//25 12//12 24//24
f 11//11 24//24 12//12
f 25//25 26//26 12//12
f 13//13 12//12 26//26
f 27//27 14//14 26//26
f 14//14 13//13 26//26
f 27//27 22//22 14//14
f 15//15 14//14 22//22
f 28//28 24//24 21//21
f 21//21 24//24 16//16
f 18//18 29//29 17//17
f 30//30 17//17 29//29
f 17//17 30//30 19//19
f 31//31 19//19 30//30
f 18//18 20//20 29//29
f 29//29 20//20 32//32
f 19//19 31//31 21//21
f 33//33 21//21 31//31
f 20//20 23//23 32//32
f 23//23 34//34 32//32
f 28//28 21//21 35//35
f 33//33 35//35 21//21
f 27//27 36//36 22//22
f 23//23 22//22 36//36
f 37//37 34//34 36//36
f 23//23 36//36 34//34
f 38//38 25//25 28//28
f 24//24 28//28 25//25
f 38//38 39//39 25//25
f 26//26 25//25 39//39
f 39//39 36//36 26//26
f 27//27 26//26 36//36
f 38//38 28//28 40//40
f 35//35 40//40 28//28
f 41//41 30//30 42//42
f 29//29 42//42 30//30
f 30//30 41//41 31//31
f 43//43 31//31 41//41
f 44//44 42//42 32//32
f 29//29 32//32 42//42
f 31//31 43//43 33//33
f 45//45 33//33 43//43
f 34//34 46//46 32//32
f 44//44 32//32 46//46
f 45//45 47//47 33//33
f 35//35 33//33 47//47
f 48//48 46//46 37//37
f 34//34 37//37 46//46
f 47//47 49//49 35//35
f 40//40 35//35 49//49
f 39//39 50//50 36//36
f 37//37 36//36 50//50
f 37//37 50//50 48//48
f 51//51 48//48 50//50
f 38//38 40//40 39//39
f 50//50 39//39 40//40
f 51//51 50//50 49//49
f 40//40 49//49 50//50
f 42//42 52//52 41//41
f 53//53 41//41 52//52
f 41//41 53//53 43//43
f 54//54 43//43 53//53
f 42//42 44//44 52//52
f 55//55 52//52 44//44
f 43//43 54//54 45//45
f 56//56 45//45 54//54
f 44//44 46//46 55//55
f 57//57 55//55 46//46
f 47//47 45//45 58//58
f 56//56 58//58 45//45
f 48//48 59//59 46//46
f 57//57 46//46 59//59
f 49//49 47//47 60//60
f 58//58 60//60 47//47
f 51//51 61//61 48//48
f 59//59 48//48 61//61
f 49//49 60//60 51//51
f 61//61 51//51 60//60
f 52//52 62//62 53//53
f 53//53 62//62 63//63
f 53//53 63//63 54//54
f 64//64 54//54 63//63
f 52//52 55//55 62//62
f 65//65 62//62 55//55
f 54//54 64//64 56//56
f 56//56 64//64 66//66
f 55//55 57//57 65//65
f 67//67 65//65 57//57
f 58//58 56//56 68//68
f 66//66 68//68 56//56
f 59//59 69//69 57//57
f 57//57 69//69 67//67
f 60//60 58//58 70//70
f 68//68 70//70 58//58
f 61//61 71//71 59//59
f 69//69 59//59 71//71
f 60//60 70//70 61//61
f 71//71 61//61 70//70
f 62//62 72//72 63//63
f 63//63 72//72 64//64
f 65//65 72//72 62//62
f 64//64 72//72 66//66
f 67//67 72//72 65//65
f 66//66 72//72 68//68
f 69//69 72//72 67//67
f 68//68 72//72 70//70
f 71//71 72//72 69//69
f 70//70 72//72 71//71
