# Blender 4.0.2
# www.blender.org
mtllib patella_r.mtl
o patella_r
v 0.005482 0.049127 -0.007546
v 0.000000 0.050274 -0.012600
v 0.000000 0.052920 0.000000
v 0.000000 0.044982 -0.021764
v 0.010147 0.044365 -0.013966
v 0.012023 0.033957 -0.016548
v 0.000000 0.035280 -0.024709
v 0.000000 0.023814 -0.021436
v 0.011013 0.023814 -0.015158
v 0.008512 0.016493 -0.011716
v 0.000000 0.018345 -0.015546
v 0.000000 0.008643 -0.013418
v 0.006925 0.008732 -0.009531
v 0.000000 0.004233 -0.008182
v 0.003991 0.003969 -0.005495
v 0.000000 0.000000 0.000000
v 0.005758 0.047980 -0.001871
v 0.012139 0.043747 -0.003944
v 0.015407 0.032634 -0.005006
v 0.015251 0.023814 -0.004955
v 0.012761 0.014641 -0.004146
v 0.009649 0.008820 -0.003135
v 0.005135 0.003705 -0.001669
v 0.005758 0.047980 0.001871
v 0.012139 0.043747 0.003944
v 0.015407 0.032634 0.005006
v 0.015251 0.023814 0.004955
v 0.012761 0.014641 0.004146
v 0.009649 0.008820 0.003135
v 0.005135 0.003705 0.001669
v 0.003895 0.049744 0.005362
v 0.008993 0.046569 0.012378
v 0.012600 0.034927 0.017343
v 0.011590 0.023460 0.015953
v 0.009089 0.016229 0.012511
v 0.007551 0.008556 0.010392
v 0.004617 0.003440 0.006355
v 0.000000 0.051509 0.007200
v 0.000000 0.049392 0.017836
v 0.000000 0.037220 0.026673
v 0.000000 0.023109 0.023400
v 0.000000 0.017816 0.017509
v 0.000000 0.008291 0.015546
v 0.000000 0.003174 0.010309
v -0.003367 0.051596 0.004633
v -0.006781 0.045599 0.009333
v -0.008752 0.035986 0.012047
v -0.007935 0.025225 0.010922
v -0.008464 0.015171 0.011650
v -0.007551 0.007761 0.010392
v -0.005049 0.003087 0.006950
v -0.004046 0.051685 0.001315
v -0.004981 0.041807 0.001618
v -0.002957 0.034751 0.000961
v -0.003424 0.027342 0.001112
v -0.010738 0.012524 0.003489
v -0.009649 0.007232 0.003135
v -0.006536 0.002999 0.002124
v -0.004046 0.051685 -0.001315
v -0.004981 0.041807 -0.001618
v -0.002957 0.034751 -0.000961
v -0.003424 0.027342 -0.001112
v -0.010738 0.012524 -0.003489
v -0.009649 0.007232 -0.003135
v -0.006536 0.002999 -0.002124
v -0.004954 0.050979 -0.006818
v -0.007935 0.043395 -0.010922
v -0.008176 0.035015 -0.011253
v -0.007358 0.025577 -0.010128
v -0.007887 0.015435 -0.010856
v -0.006925 0.007937 -0.009531
v -0.004424 0.003616 -0.006089
vn 0.5306 0.8413 -0.1032
vn -0.0670 0.8998 -0.4311
vn 0.1844 0.9828 0.0066
vn -0.1492 0.5477 -0.8232
vn 0.7320 0.5345 -0.4224
vn 0.8011 0.0571 -0.5958
vn -0.1828 0.0252 -0.9828
vn -0.2193 -0.4637 -0.8584
vn 0.6997 -0.3351 -0.6310
vn 0.6128 -0.3739 -0.6961
vn -0.1846 -0.4084 -0.8939
vn -0.0005 -0.4894 -0.8720
vn 0.6110 -0.5356 -0.5830
vn 0.0600 -0.8052 -0.5900
vn 0.4800 -0.7812 -0.3992
vn 0.0857 -0.9937 -0.0721
vn 0.6122 0.7883 0.0620
vn 0.8294 0.5558 -0.0559
vn 0.9813 0.1162 -0.1533
vn 0.9622 -0.1668 -0.2153
vn 0.8994 -0.3601 -0.2476
vn 0.8016 -0.5769 -0.1571
vn 0.6504 -0.7503 -0.1186
vn 0.6010 0.7984 -0.0381
vn 0.8305 0.5535 0.0625
vn 0.9847 0.1224 0.1240
vn 0.9710 -0.1622 0.1754
vn 0.9140 -0.3561 0.1942
vn 0.8212 -0.5630 0.0934
vn 0.6720 -0.7404 0.0155
vn 0.5394 0.8416 0.0292
vn 0.6847 0.6578 0.3139
vn 0.8236 0.1421 0.5491
vn 0.7441 -0.3236 0.5845
vn 0.6840 -0.3716 0.6278
vn 0.6919 -0.5027 0.5182
vn 0.5650 -0.7821 0.2630
vn 0.0063 0.9643 0.2646
vn -0.1484 0.7892 0.5959
vn -0.1603 0.1920 0.9682
vn -0.1979 -0.4544 0.8685
vn -0.1744 -0.4280 0.8868
vn -0.0040 -0.4588 0.8885
vn 0.0463 -0.8293 0.5570
vn -0.4812 0.8273 0.2899
vn -0.9269 0.3583 0.1116
vn -0.9942 0.0709 0.0808
vn -0.9862 0.0343 0.1618
vn -0.8037 -0.0515 0.5928
vn -0.7130 -0.4260 0.5569
vn -0.4829 -0.7988 0.3589
vn -0.7414 0.6710 0.0070
vn -0.9895 -0.1189 -0.0823
vn -0.9796 -0.0737 -0.1871
vn -0.9564 0.2280 -0.1824
vn -0.9949 0.0486 0.0881
vn -0.8996 -0.4131 0.1418
vn -0.6244 -0.7748 0.0987
vn -0.7466 0.6652 0.0093
vn -0.9824 -0.0443 0.1815
vn -0.9723 -0.1043 0.2093
vn -0.9575 0.2296 0.1745
vn -0.9887 0.0422 -0.1437
vn -0.8792 -0.4266 -0.2123
vn -0.6000 -0.7747 -0.1999
vn -0.6986 0.7005 -0.1458
vn -0.9485 0.2585 -0.1832
vn -0.9940 -0.0443 -0.0996
vn -0.9838 0.0267 -0.1775
vn -0.7487 -0.0583 -0.6603
vn -0.6251 -0.4617 -0.6294
vn -0.3683 -0.7884 -0.4928
s 1
f 1//1 2//2 3//3
f 4//4 2//2 5//5
f 2//2 1//1 5//5
f 6//6 7//7 5//5
f 4//4 5//5 7//7
f 7//7 6//6 8//8
f 9//9 8//8 6//6
f 10//10 11//11 9//9
f 8//8 9//9 11//11
f 11//11 10//10 12//12
f 13//13 12//12 10//10
f 12//12 13//13 14//14
f 14//14 13//13 15//15
f 15//15 16//16 14//14
f 17//17 1//1 3//3
f 5//5 1//1 18//18
f 17//17 18//18 1//1
f 19//19 6//6 18//18
f 5//5 18//18 6//6
f 6//6 19//19 9//9
f 20//20 9//9 19//19
f 9//9 20//20 10//10
f 21//21 10//10 20//20
f 10//10 21//21 13//13
f 22//22 13//13 21//21
f 13//13 22//22 15//15
f 23//23 15//15 22//22
f 23//23 16//16 15//15
f 24//24 17//17 3//3
f 25//25 18//18 24//24
f 17//17 24//24 18//18
f 26//26 19//19 25//25
f 25//25 19//19 18//18
f 26//26 27//27 19//19
f 20//20 19//19 27//27
f 27//27 28//28 20//20
f 21//21 20//20 28//28
f 28//28 29//29 21//21
f 22//22 21//21 29//29
f 29//29 30//30 22//22
f 22//22 30//30 23//23
f 30//30 16//16 23//23
f 31//31 24//24 3//3
f 32//32 25//25 31//31
f 24//24 31//31 25//25
f 33//33 26//26 32//32
f 32//32 26//26 25//25
f 33//33 34//34 26//26
f 27//27 26//26 34//34
f 28//28 27//27 35//35
f 34//34 35//35 27//27
f 35//35 36//36 28//28
f 29//29 28//28 36//36
f 36//36 37//37 29//29
f 30//30 29//29 37//37
f 37//37 16//16 30//30
f 38//38 31//31 3//3
f 39//39 32//32 38//38
f 31//31 38//38 32//32
f 40//40 33//33 39//39
f 32//32 39//39 33//33
f 40//40 41//41 33//33
f 34//34 33//33 41//41
f 35//35 34//34 42//42
f 41//41 42//42 34//34
f 42//42 43//43 35//35
f 36//36 35//35 43//43
f 43//43 44//44 36//36
f 37//37 36//36 44//44
f 44//44 16//16 37//37
f 45//45 38//38 3//3
f 39//39 38//38 46//46
f 45//45 46//46 38//38
f 40//40 39//39 47//47
f 46//46 47//47 39//39
f 40//40 47//47 41//41
f 48//48 41//41 47//47
f 49//49 42//42 48//48
f 41//41 48//48 42//42
f 42//42 49//49 43//43
f 50//50 43//43 49//49
f 43//43 50//50 44//44
f 51//51 44//44 50//50
f 51//51 16//16 44//44
f 52//52 45//45 3//3
f 53//53 46//46 52//52
f 52//52 46//46 45//45
f 47//47 46//46 54//54
f 53//53 54//54 46//46
f 47//47 54//54 48//48
f 55//55 48//48 54//54
f 55//55 56//56 48//48
f 49//49 48//48 56//56
f 49//49 56//56 50//50
f 57//57 50//50 56//56
f 50//50 57//57 51//51
f 58//58 51//51 57//57
f 58//58 16//16 51//51
f 59//59 52//52 3//3
f 60//60 53//53 59//59
f 52//52 59//59 53//53
f 60//60 61//61 53//53
f 54//54 53//53 61//61
f 62//62 55//55 61//61
f 54//54 61//61 55//55
f 63//63 56//56 62//62
f 55//55 62//62 56//56
f 63//63 64//64 56//56
f 57//57 56//56 64//64
f 64//64 65//65 57//57
f 57//57 65//65 58//58
f 65//65 16//16 58//58
f 66//66 59//59 3//3
f 67//67 60//60 66//66
f 59//59 66//66 60//60
f 67//67 68//68 60//60
f 60//60 68//68 61//61
f 68//68 69//69 61//61
f 61//61 69//69 62//62
f 62//62 69//69 63//63
f 70//70 63//63 69//69
f 70//70 71//71 63//63
f 64//64 63//63 71//71
f 71//71 72//72 64//64
f 65//65 64//64 72//72
f 72//72 16//16 65//65
f 2//2 66//66 3//3
f 4//4 67//67 2//2
f 2//2 67//67 66//66
f 7//7 68//68 4//4
f 67//67 4//4 68//68
f 7//7 8//8 68//68
f 8//8 69//69 68//68
f 70//70 69//69 11//11
f 8//8 11//11 69//69
f 11//11 12//12 70//70
f 71//71 70//70 12//12
f 12//12 14//14 71//71
f 72//72 71//71 14//14
f 14//14 16//16 72//72
