# Blender 4.0.2
# www.blender.org
mtllib skull_left_second_upper_premolar_tooth.mtl
o skull_left_second_upper_premolar_tooth
v 0.078110 -0.020799 -0.018556
v 0.078889 -0.020849 -0.018390
v 0.078583 -0.021479 -0.018504
v 0.079261 -0.021539 -0.018469
v 0.079523 -0.021139 -0.018491
v 0.079487 -0.021979 -0.018664
v 0.077897 -0.019859 -0.018662
v 0.078623 -0.019739 -0.018504
v 0.079293 -0.020819 -0.018387
v 0.079339 -0.019919 -0.018413
v 0.079644 -0.020169 -0.018465
v 0.079842 -0.018989 -0.018583
v 0.080648 -0.011349 -0.018402
v 0.080231 -0.011089 -0.018428
v 0.081184 -0.011329 -0.018491
v 0.080702 -0.010629 -0.018329
v 0.081097 -0.010629 -0.018350
v 0.081529 -0.010779 -0.018518
v 0.080795 -0.009699 -0.018351
v 0.081706 -0.009419 -0.018491
v 0.081311 -0.008649 -0.018448
v 0.077431 -0.022319 -0.019462
v 0.078639 -0.022719 -0.018849
v 0.078011 -0.022609 -0.019162
v 0.078487 -0.023039 -0.019223
v 0.078100 -0.022979 -0.019467
v 0.078845 -0.022829 -0.018844
v 0.078858 -0.023059 -0.019123
v 0.077291 -0.021149 -0.019080
v 0.077871 -0.021439 -0.018741
v 0.077585 -0.022009 -0.019109
v 0.077252 -0.021859 -0.019343
v 0.078737 -0.022569 -0.018741
v 0.078395 -0.022409 -0.018811
v 0.079072 -0.022749 -0.018816
v 0.080124 -0.022689 -0.019368
v 0.079908 -0.022979 -0.019454
v 0.076959 -0.020269 -0.019303
v 0.077578 -0.020519 -0.018796
v 0.080576 -0.021859 -0.019308
v 0.077482 -0.019169 -0.018960
v 0.076973 -0.019409 -0.019344
v 0.080327 -0.021339 -0.018982
v 0.080893 -0.020999 -0.019323
v 0.080435 -0.020139 -0.018921
v 0.081013 -0.019199 -0.019345
v 0.078107 -0.016229 -0.019221
v 0.078753 -0.016089 -0.019032
v 0.079600 -0.016609 -0.018905
v 0.080311 -0.016779 -0.018955
v 0.078594 -0.015149 -0.019167
v 0.080872 -0.016839 -0.019237
v 0.079624 -0.015229 -0.018952
v 0.080370 -0.015249 -0.019099
v 0.080758 -0.015309 -0.019341
v 0.079707 -0.013519 -0.019090
v 0.080463 -0.013789 -0.019091
v 0.080843 -0.013619 -0.019162
v 0.080117 -0.011639 -0.018575
v 0.079842 -0.012179 -0.018854
v 0.080489 -0.012099 -0.018639
v 0.080858 -0.012739 -0.018831
v 0.081326 -0.012989 -0.019083
v 0.079694 -0.011089 -0.018622
v 0.079107 -0.010939 -0.018930
v 0.081752 -0.011999 -0.019005
v 0.082155 -0.011759 -0.019340
v 0.078766 -0.009619 -0.019050
v 0.079691 -0.009919 -0.018584
v 0.081928 -0.010079 -0.018644
v 0.082292 -0.010079 -0.018984
v 0.082296 -0.009209 -0.018855
v 0.079146 -0.006389 -0.018992
v 0.082238 -0.007159 -0.018890
v 0.082523 -0.006959 -0.019127
v 0.080759 -0.005849 -0.018767
v 0.081939 -0.005889 -0.018920
v 0.079192 -0.003559 -0.018947
v 0.078830 -0.004079 -0.019051
v 0.081444 -0.005029 -0.018893
v 0.080288 -0.003509 -0.018862
v 0.078529 -0.001319 -0.019201
v 0.079774 -0.001669 -0.018945
v 0.081265 -0.002919 -0.019127
v 0.078376 0.000021 -0.019177
v 0.080549 -0.001939 -0.018975
v 0.080170 -0.001079 -0.019021
v 0.080609 -0.001079 -0.019213
v 0.078534 0.000491 -0.019219
v 0.078919 0.000091 -0.019140
v 0.076869 -0.021869 -0.019889
v 0.077065 -0.022259 -0.019880
v 0.077236 -0.022689 -0.020191
v 0.078373 -0.023189 -0.019605
v 0.078322 -0.023199 -0.019988
v 0.078791 -0.023269 -0.019575
v 0.078754 -0.023269 -0.019939
v 0.079461 -0.023239 -0.019899
v 0.079497 -0.023199 -0.019554
v 0.076893 -0.021249 -0.019538
v 0.076668 -0.021199 -0.019905
v 0.079944 -0.023099 -0.019684
v 0.080529 -0.022799 -0.019905
v 0.080139 -0.023059 -0.020079
v 0.076600 -0.020059 -0.019741
v 0.080905 -0.022359 -0.019884
v 0.081395 -0.021659 -0.019983
v 0.081387 -0.022019 -0.020223
v 0.081568 -0.020719 -0.019969
v 0.081749 -0.019129 -0.020281
v 0.077539 -0.015289 -0.019958
v 0.078117 -0.014819 -0.019524
v 0.081550 -0.016749 -0.019838
v 0.077985 -0.013639 -0.020021
v 0.081521 -0.015749 -0.019937
v 0.078036 -0.012449 -0.019978
v 0.078514 -0.013369 -0.019638
v 0.080959 -0.014499 -0.019439
v 0.081468 -0.014209 -0.019719
v 0.081723 -0.015069 -0.020122
v 0.082034 -0.014079 -0.020163
v 0.077910 -0.010949 -0.019805
v 0.077514 -0.010469 -0.020197
v 0.077907 -0.008879 -0.019692
v 0.082706 -0.011449 -0.020143
v 0.077737 -0.007859 -0.020053
v 0.078294 -0.007009 -0.019391
v 0.082669 -0.009519 -0.019392
v 0.082960 -0.009329 -0.020150
v 0.082821 -0.007669 -0.019457
v 0.082962 -0.007509 -0.019791
v 0.083006 -0.007529 -0.020126
v 0.082844 -0.006979 -0.019564
v 0.082953 -0.006919 -0.019896
v 0.078507 -0.003229 -0.019313
v 0.078371 -0.002989 -0.019528
v 0.078303 -0.003779 -0.019652
v 0.082378 -0.005529 -0.019339
v 0.082658 -0.005219 -0.019980
v 0.078279 -0.002039 -0.019489
v 0.078185 -0.002039 -0.019721
v 0.078249 -0.002699 -0.019939
v 0.077869 -0.000779 -0.019791
v 0.081771 -0.003559 -0.019367
v 0.081978 -0.003559 -0.019633
v 0.077831 0.000361 -0.019440
v 0.077765 0.000081 -0.019569
v 0.077642 0.000401 -0.019792
v 0.078038 -0.000049 -0.019307
v 0.077935 0.000541 -0.019388
v 0.078065 0.000631 -0.019355
v 0.077783 0.000741 -0.019546
v 0.077877 0.000951 -0.019560
v 0.077670 0.000551 -0.019662
v 0.077629 0.000811 -0.019779
v 0.077670 0.001051 -0.019781
v 0.077783 0.001251 -0.019771
v 0.077609 0.000601 -0.019998
v 0.077594 0.000971 -0.019989
v 0.077733 0.001391 -0.019987
v 0.078141 0.000431 -0.019274
v 0.078368 0.000691 -0.019302
v 0.079190 0.000671 -0.019333
v 0.080934 -0.000779 -0.019680
v 0.080617 -0.000209 -0.019668
v 0.080660 -0.000029 -0.019913
v 0.078266 0.001191 -0.019539
v 0.078402 0.001401 -0.019635
v 0.078102 0.001351 -0.019666
v 0.078316 0.001561 -0.019776
v 0.077947 0.001511 -0.019876
v 0.078019 0.001631 -0.019994
v 0.078408 0.001711 -0.019983
v 0.078737 0.000971 -0.019394
v 0.078895 0.001371 -0.019644
v 0.078589 0.001571 -0.019775
v 0.078964 0.001561 -0.019875
v 0.078662 0.001701 -0.019982
v 0.079356 0.001421 -0.019996
v 0.079567 0.000761 -0.019508
v 0.079550 0.001121 -0.019773
v 0.079726 0.001141 -0.019990
v 0.080060 0.000521 -0.019682
v 0.077214 -0.022789 -0.020802
v 0.076848 -0.022359 -0.020536
v 0.076477 -0.021479 -0.020553
v 0.076669 -0.022319 -0.021168
v 0.076476 -0.021969 -0.021162
v 0.076906 -0.022559 -0.020853
v 0.076882 -0.022559 -0.021231
v 0.077255 -0.022789 -0.021151
v 0.078392 -0.023139 -0.020574
v 0.078884 -0.023089 -0.020890
v 0.079539 -0.023139 -0.020530
v 0.075892 -0.019759 -0.021106
v 0.081392 -0.022289 -0.020622
v 0.081159 -0.022559 -0.020840
v 0.076031 -0.018889 -0.020674
v 0.081756 -0.021849 -0.020778
v 0.081907 -0.020569 -0.020452
v 0.081861 -0.021269 -0.020544
v 0.082194 -0.020669 -0.021097
v 0.081914 -0.015689 -0.020365
v 0.077448 -0.012509 -0.020649
v 0.082231 -0.015659 -0.020842
v 0.077246 -0.010549 -0.020731
v 0.082436 -0.013669 -0.020688
v 0.082869 -0.011449 -0.020624
v 0.077842 -0.006959 -0.020407
v 0.082977 -0.008649 -0.020873
v 0.078067 -0.005249 -0.020468
v 0.078228 -0.003629 -0.020175
v 0.078385 -0.003089 -0.020717
v 0.082722 -0.005289 -0.020404
v 0.082893 -0.006119 -0.020331
v 0.082744 -0.005759 -0.020670
v 0.078143 -0.001789 -0.020237
v 0.078282 -0.002359 -0.020459
v 0.078373 -0.002239 -0.020692
v 0.077829 -0.000599 -0.020222
v 0.078033 -0.000709 -0.020593
v 0.078243 -0.001679 -0.020569
v 0.082092 -0.003519 -0.020382
v 0.082040 -0.003569 -0.020605
v 0.078172 -0.000169 -0.020868
v 0.077631 0.001201 -0.020099
v 0.077630 0.000911 -0.020211
v 0.077683 0.001181 -0.020333
v 0.077871 0.000621 -0.020629
v 0.077864 0.001091 -0.020641
v 0.078065 0.000931 -0.020837
v 0.078038 0.001241 -0.020767
v 0.078254 0.001121 -0.020917
v 0.081055 -0.000649 -0.020115
v 0.080968 -0.000519 -0.020562
v 0.081418 -0.001619 -0.020565
v 0.077855 0.001571 -0.020100
v 0.078193 0.001741 -0.020203
v 0.078572 0.001771 -0.020200
v 0.077780 0.001491 -0.020305
v 0.077954 0.001651 -0.020301
v 0.078172 0.001731 -0.020415
v 0.078433 0.001761 -0.020415
v 0.077879 0.001431 -0.020536
v 0.078027 0.001611 -0.020526
v 0.078295 0.001711 -0.020531
v 0.078360 0.001561 -0.020730
v 0.078636 0.001671 -0.020636
v 0.078155 0.001421 -0.020756
v 0.078903 0.001691 -0.020095
v 0.078899 0.001731 -0.020309
v 0.079136 0.001631 -0.020311
v 0.078683 0.001751 -0.020418
v 0.079001 0.001661 -0.020528
v 0.079376 0.001471 -0.020624
v 0.078871 0.001421 -0.020911
v 0.079315 0.001381 -0.020842
v 0.080075 0.000851 -0.020088
v 0.079911 0.001071 -0.020218
v 0.079575 0.001351 -0.020209
v 0.079497 0.001431 -0.020426
v 0.079756 0.001251 -0.020421
v 0.079928 0.001081 -0.020530
v 0.079656 0.001301 -0.020639
v 0.079744 0.001021 -0.020868
v 0.080183 0.000781 -0.020312
v 0.080294 0.000581 -0.020539
v 0.080767 -0.000049 -0.020326
v 0.076192 -0.021359 -0.021478
v 0.076565 -0.022159 -0.021544
v 0.077173 -0.022619 -0.021584
v 0.077926 -0.022749 -0.021569
v 0.075968 -0.020559 -0.021549
v 0.080405 -0.022779 -0.021520
v 0.079880 -0.022699 -0.021682
v 0.075578 -0.019309 -0.021679
v 0.081021 -0.022629 -0.021489
v 0.081672 -0.022319 -0.021575
v 0.081296 -0.022609 -0.021879
v 0.075686 -0.018529 -0.021361
v 0.075542 -0.018249 -0.021888
v 0.082202 -0.021649 -0.021690
v 0.082054 -0.022099 -0.021849
v 0.075957 -0.017399 -0.021282
v 0.082346 -0.018419 -0.021558
v 0.077058 -0.013369 -0.021441
v 0.077010 -0.011049 -0.021835
v 0.082688 -0.013379 -0.021392
v 0.077377 -0.009169 -0.021300
v 0.082929 -0.011439 -0.021351
v 0.077829 -0.007489 -0.021423
v 0.078067 -0.006669 -0.021363
v 0.078090 -0.007029 -0.021638
v 0.078268 -0.006699 -0.021632
v 0.078290 -0.007079 -0.021912
v 0.078901 -0.006399 -0.021828
v 0.082875 -0.008999 -0.021690
v 0.078262 -0.005209 -0.021061
v 0.078512 -0.005599 -0.021495
v 0.081141 -0.006849 -0.021928
v 0.081303 -0.006929 -0.021934
v 0.081496 -0.006779 -0.021908
v 0.081843 -0.006849 -0.021940
v 0.081704 -0.006609 -0.021841
v 0.081413 -0.006419 -0.021859
v 0.082586 -0.006989 -0.021420
v 0.082517 -0.007459 -0.021873
v 0.082376 -0.007179 -0.021849
v 0.082799 -0.007369 -0.021150
v 0.082697 -0.007949 -0.021859
v 0.078505 -0.004339 -0.021255
v 0.081490 -0.005539 -0.021660
v 0.082376 -0.005699 -0.021161
v 0.082223 -0.006689 -0.021639
v 0.078666 -0.003209 -0.021141
v 0.079052 -0.003429 -0.021542
v 0.079682 -0.003409 -0.021805
v 0.080380 -0.003619 -0.021743
v 0.078559 -0.001749 -0.021005
v 0.079184 -0.001829 -0.021460
v 0.079643 -0.001519 -0.021522
v 0.078515 -0.000069 -0.021150
v 0.079623 -0.000619 -0.021422
v 0.080868 -0.001229 -0.021014
v 0.080192 -0.001389 -0.021402
v 0.078702 0.000381 -0.021215
v 0.079162 0.000201 -0.021339
v 0.078806 0.001081 -0.021095
v 0.079210 0.001141 -0.021094
v 0.079367 0.000701 -0.021211
v 0.076196 -0.021429 -0.022278
v 0.076480 -0.021809 -0.022595
v 0.076833 -0.021889 -0.022688
v 0.075529 -0.020059 -0.022332
v 0.078020 -0.021809 -0.022793
v 0.078932 -0.021979 -0.022768
v 0.079662 -0.022219 -0.022474
v 0.079683 -0.022179 -0.022819
v 0.080202 -0.022559 -0.022194
v 0.080481 -0.022689 -0.022932
v 0.080868 -0.022729 -0.022206
v 0.075430 -0.019329 -0.022270
v 0.082094 -0.022489 -0.022638
v 0.081556 -0.022929 -0.022783
v 0.075491 -0.018159 -0.022368
v 0.075463 -0.018809 -0.022973
v 0.082316 -0.022119 -0.022789
v 0.075627 -0.017599 -0.022140
v 0.075900 -0.016489 -0.022486
v 0.082498 -0.020549 -0.022230
v 0.076538 -0.015119 -0.021979
v 0.076537 -0.014689 -0.022640
v 0.076934 -0.013239 -0.022452
v 0.082811 -0.015449 -0.022450
v 0.077812 -0.007719 -0.021950
v 0.077948 -0.007569 -0.022325
v 0.077971 -0.007549 -0.022524
v 0.077802 -0.007739 -0.022658
v 0.077968 -0.007459 -0.021981
v 0.078210 -0.007379 -0.022286
v 0.078085 -0.007469 -0.022509
v 0.078585 -0.007169 -0.022526
v 0.082917 -0.009579 -0.022630
v 0.078985 -0.006539 -0.022692
v 0.079169 -0.006999 -0.022178
v 0.079324 -0.007029 -0.022288
v 0.079112 -0.007039 -0.022397
v 0.079935 -0.006589 -0.022484
v 0.080302 -0.006779 -0.022031
v 0.080235 -0.007039 -0.022168
v 0.080381 -0.007029 -0.022287
v 0.080927 -0.007169 -0.022071
v 0.081300 -0.007159 -0.022067
v 0.081102 -0.007209 -0.022180
v 0.082724 -0.008369 -0.022334
v 0.080434 -0.005929 -0.021984
v 0.080580 -0.005879 -0.022511
v 0.081075 -0.007069 -0.021983
v 0.081681 -0.006869 -0.021960
v 0.081634 -0.006999 -0.022068
v 0.081772 -0.006949 -0.022063
v 0.081897 -0.006959 -0.022067
v 0.081138 -0.007059 -0.022296
v 0.081731 -0.006979 -0.022178
v 0.081896 -0.006979 -0.022173
v 0.081905 -0.006919 -0.022293
v 0.081632 -0.006619 -0.022428
v 0.082117 -0.006999 -0.021957
v 0.082345 -0.007289 -0.022072
v 0.082085 -0.007039 -0.022073
v 0.082188 -0.007119 -0.022067
v 0.082482 -0.007569 -0.022187
v 0.082093 -0.007059 -0.022189
v 0.082236 -0.007179 -0.022187
v 0.082397 -0.007389 -0.022288
v 0.082517 -0.007609 -0.022441
v 0.082123 -0.006989 -0.022395
v 0.082286 -0.007119 -0.022487
v 0.082297 -0.006959 -0.022741
v 0.079626 -0.004599 -0.022666
v 0.079173 -0.004909 -0.022748
v 0.081075 -0.005409 -0.022667
v 0.081880 -0.006489 -0.022597
v 0.076279 -0.021629 -0.023168
v 0.075716 -0.021029 -0.023445
v 0.076854 -0.021769 -0.023199
v 0.077259 -0.021809 -0.023796
v 0.079204 -0.022979 -0.023881
v 0.077749 -0.021609 -0.023143
v 0.077709 -0.021629 -0.023494
v 0.078091 -0.021639 -0.023474
v 0.077851 -0.021859 -0.023797
v 0.077992 -0.021919 -0.023791
v 0.079023 -0.022059 -0.023181
v 0.078439 -0.021689 -0.023149
v 0.078532 -0.021799 -0.023266
v 0.078609 -0.022029 -0.023428
v 0.078347 -0.021829 -0.023488
v 0.078756 -0.022429 -0.023633
v 0.079922 -0.022429 -0.023183
v 0.080429 -0.022859 -0.023458
v 0.080340 -0.023019 -0.023661
v 0.079644 -0.022999 -0.023743
v 0.081246 -0.023189 -0.023453
v 0.075474 -0.019699 -0.023180
v 0.081767 -0.023189 -0.023632
v 0.075805 -0.016629 -0.023358
v 0.076493 -0.014929 -0.023543
v 0.082856 -0.015229 -0.023718
v 0.082822 -0.014309 -0.023124
v 0.076924 -0.010199 -0.023113
v 0.077084 -0.009189 -0.022941
v 0.082917 -0.012219 -0.022990
v 0.077230 -0.008499 -0.023366
v 0.077393 -0.008509 -0.022765
v 0.077765 -0.007559 -0.022986
v 0.077647 -0.007179 -0.023419
v 0.077992 -0.007389 -0.022813
v 0.078180 -0.006769 -0.022993
v 0.082905 -0.009789 -0.023205
v 0.082857 -0.008739 -0.023155
v 0.082756 -0.008279 -0.023419
v 0.082795 -0.008779 -0.023516
v 0.077967 -0.005279 -0.023485
v 0.082429 -0.007079 -0.023146
v 0.082699 -0.007899 -0.023060
v 0.078215 -0.004119 -0.023572
v 0.081467 -0.005339 -0.022872
v 0.081969 -0.005809 -0.023396
v 0.078359 -0.002839 -0.023537
v 0.078895 -0.003439 -0.023093
v 0.079510 -0.003059 -0.022892
v 0.080256 -0.003249 -0.022855
v 0.080774 -0.003209 -0.023045
v 0.078735 -0.001489 -0.023355
v 0.079296 -0.000359 -0.023203
v 0.078894 -0.000619 -0.023376
v 0.079743 -0.001149 -0.023020
v 0.079138 -0.001229 -0.023126
v 0.080035 -0.000979 -0.023094
v 0.079692 0.000321 -0.023302
v 0.079238 0.000501 -0.023435
v 0.080203 -0.000519 -0.023294
v 0.080423 -0.000569 -0.023505
v 0.079897 0.000521 -0.023495
v 0.079556 0.000851 -0.023542
v 0.076043 -0.021419 -0.024355
v 0.076858 -0.021869 -0.024255
v 0.077525 -0.021979 -0.024119
v 0.077898 -0.022219 -0.024145
v 0.079924 -0.023719 -0.024482
v 0.080725 -0.023559 -0.024121
v 0.082217 -0.022859 -0.023982
v 0.081990 -0.023149 -0.024574
v 0.082276 -0.022769 -0.024600
v 0.082465 -0.022359 -0.024247
v 0.082607 -0.021849 -0.024671
v 0.082703 -0.021169 -0.024401
v 0.075813 -0.017119 -0.024011
v 0.082688 -0.020459 -0.023823
v 0.076080 -0.016159 -0.024011
v 0.076568 -0.015489 -0.024552
v 0.076759 -0.014419 -0.024142
v 0.076942 -0.014289 -0.024556
v 0.077037 -0.013409 -0.023981
v 0.082787 -0.016269 -0.023850
v 0.077146 -0.012599 -0.024022
v 0.077351 -0.012689 -0.024566
v 0.082654 -0.014059 -0.024391
v 0.077069 -0.010879 -0.024221
v 0.082606 -0.012739 -0.024244
v 0.077190 -0.008059 -0.024394
v 0.082791 -0.010919 -0.023840
v 0.082605 -0.010919 -0.024235
v 0.082525 -0.008409 -0.024051
v 0.077625 -0.005099 -0.024218
v 0.082352 -0.006999 -0.023787
v 0.077860 -0.004059 -0.024177
v 0.078102 -0.002689 -0.023890
v 0.077929 -0.002879 -0.024441
v 0.081829 -0.005199 -0.024018
v 0.081698 -0.004859 -0.024252
v 0.081568 -0.003869 -0.024070
v 0.081483 -0.003719 -0.024310
v 0.078415 -0.001129 -0.023726
v 0.081078 -0.002279 -0.024405
v 0.078268 -0.000149 -0.024131
v 0.078173 -0.000139 -0.024363
v 0.080740 -0.001019 -0.024173
v 0.080975 -0.002059 -0.023601
v 0.081171 -0.002269 -0.024057
v 0.078929 0.000831 -0.023755
v 0.078625 0.000461 -0.023862
v 0.078342 0.000531 -0.024257
v 0.078535 0.001031 -0.024243
v 0.080500 -0.000419 -0.023839
v 0.079258 0.001291 -0.024034
v 0.078814 0.001231 -0.024119
v 0.079292 0.001331 -0.024144
v 0.078675 0.001321 -0.024350
v 0.078845 0.001401 -0.024344
v 0.079002 0.001411 -0.024344
v 0.079204 0.001371 -0.024354
v 0.079330 0.000971 -0.023656
v 0.079973 0.000631 -0.023719
v 0.079803 0.000891 -0.023704
v 0.079535 0.001111 -0.023797
v 0.079657 0.001081 -0.023816
v 0.079831 0.000951 -0.023923
v 0.079493 0.001241 -0.024022
v 0.079673 0.001131 -0.024026
v 0.080022 0.000571 -0.024137
v 0.079495 0.001251 -0.024147
v 0.079745 0.001031 -0.024147
v 0.079778 0.000751 -0.024395
v 0.078805 -0.023729 -0.025115
v 0.079134 -0.023909 -0.025142
v 0.079737 -0.024049 -0.025134
v 0.079100 -0.023999 -0.025461
v 0.079749 -0.024149 -0.025473
v 0.076514 -0.021839 -0.025023
v 0.077293 -0.022329 -0.024845
v 0.079228 -0.023749 -0.024802
v 0.080474 -0.024089 -0.025088
v 0.080431 -0.024169 -0.025484
v 0.080933 -0.023959 -0.025412
v 0.075876 -0.020719 -0.024807
v 0.075784 -0.019649 -0.024884
v 0.081988 -0.023059 -0.024977
v 0.082467 -0.022139 -0.024979
v 0.082248 -0.022419 -0.025325
v 0.082423 -0.021729 -0.025356
v 0.075977 -0.017899 -0.025043
v 0.082615 -0.021409 -0.024905
v 0.076417 -0.016449 -0.025126
v 0.076159 -0.017329 -0.025250
v 0.076763 -0.015519 -0.024927
v 0.082736 -0.018429 -0.024586
v 0.077629 -0.014989 -0.025511
v 0.077330 -0.013549 -0.024756
v 0.077689 -0.013439 -0.025194
v 0.082703 -0.015859 -0.024785
v 0.077673 -0.011729 -0.025142
v 0.077073 -0.009919 -0.024567
v 0.077160 -0.010409 -0.024772
v 0.077340 -0.010119 -0.025189
v 0.077511 -0.010729 -0.025295
v 0.081695 -0.011539 -0.025293
v 0.082173 -0.012239 -0.024915
v 0.077333 -0.008159 -0.025116
v 0.082018 -0.009799 -0.024939
v 0.081581 -0.009579 -0.025291
v 0.077662 -0.005089 -0.025051
v 0.080855 -0.006419 -0.025369
v 0.081952 -0.006829 -0.024565
v 0.081485 -0.007009 -0.025068
v 0.077847 -0.003689 -0.024552
v 0.081480 -0.005149 -0.024672
v 0.078187 -0.002409 -0.025241
v 0.081362 -0.003719 -0.024539
v 0.078095 -0.001519 -0.024932
v 0.078223 -0.001449 -0.025153
v 0.078553 -0.001209 -0.025329
v 0.078835 -0.001169 -0.025366
v 0.080899 -0.003069 -0.024863
v 0.078164 -0.000089 -0.024690
v 0.078256 -0.000239 -0.024931
v 0.079262 -0.001129 -0.025343
v 0.079941 -0.001399 -0.025146
v 0.078304 0.000631 -0.024477
v 0.078386 0.000811 -0.024691
v 0.078513 0.001061 -0.024683
v 0.078569 0.000551 -0.024956
v 0.079014 0.000631 -0.024997
v 0.078714 0.000131 -0.025111
v 0.080329 -0.000599 -0.024519
v 0.078506 0.001141 -0.024464
v 0.078658 0.001331 -0.024467
v 0.078845 0.001411 -0.024463
v 0.079068 0.001391 -0.024463
v 0.078699 0.001311 -0.024580
v 0.078940 0.001341 -0.024583
v 0.079228 0.001251 -0.024569
v 0.078776 0.001041 -0.024841
v 0.079146 0.000941 -0.024846
v 0.079445 0.001161 -0.024456
v 0.077371 -0.023049 -0.026083
v 0.077145 -0.022759 -0.026437
v 0.078151 -0.023559 -0.025734
v 0.078111 -0.023629 -0.026132
v 0.077632 -0.023219 -0.026437
v 0.078197 -0.023549 -0.026436
v 0.078749 -0.023929 -0.025773
v 0.078729 -0.023899 -0.026116
v 0.078835 -0.023759 -0.026453
v 0.079358 -0.024109 -0.025801
v 0.079421 -0.024039 -0.026137
v 0.076425 -0.021719 -0.025714
v 0.076715 -0.022109 -0.026300
v 0.076476 -0.021369 -0.026259
v 0.076885 -0.022469 -0.026022
v 0.076918 -0.022449 -0.026433
v 0.079473 -0.023889 -0.026448
v 0.079867 -0.023849 -0.026483
v 0.080059 -0.024159 -0.025802
v 0.080493 -0.024089 -0.025800
v 0.080796 -0.023959 -0.025797
v 0.080137 -0.024049 -0.026130
v 0.080640 -0.023859 -0.026117
v 0.080324 -0.023699 -0.026488
v 0.081089 -0.023709 -0.025782
v 0.081119 -0.023399 -0.026122
v 0.080823 -0.023379 -0.026435
v 0.081110 -0.023009 -0.026436
v 0.075985 -0.019879 -0.025616
v 0.076042 -0.019219 -0.025701
v 0.076170 -0.019609 -0.026068
v 0.076237 -0.020269 -0.026148
v 0.081483 -0.022289 -0.026421
v 0.081582 -0.022989 -0.025884
v 0.076420 -0.019069 -0.026336
v 0.082113 -0.022039 -0.025797
v 0.081909 -0.020909 -0.026400
v 0.076673 -0.017319 -0.025893
v 0.082212 -0.020419 -0.026056
v 0.082512 -0.017919 -0.025683
v 0.079584 -0.014579 -0.026247
v 0.081938 -0.016329 -0.026425
v 0.078306 -0.012989 -0.025634
v 0.080317 -0.014259 -0.026332
v 0.080735 -0.014179 -0.026331
v 0.081493 -0.014239 -0.026145
v 0.082371 -0.015329 -0.025615
v 0.078168 -0.011899 -0.025602
v 0.078836 -0.012729 -0.025841
v 0.079258 -0.012069 -0.025883
v 0.080543 -0.013149 -0.025983
v 0.081944 -0.013739 -0.025643
v 0.077947 -0.010849 -0.025650
v 0.080325 -0.012239 -0.025808
v 0.081410 -0.012469 -0.025594
v 0.077729 -0.010119 -0.025597
v 0.078213 -0.009969 -0.025844
v 0.080040 -0.010829 -0.025721
v 0.081188 -0.011559 -0.025547
v 0.077623 -0.008249 -0.025543
v 0.077921 -0.008189 -0.025770
v 0.080069 -0.009139 -0.025766
v 0.078034 -0.006049 -0.025781
v 0.078408 -0.006089 -0.025945
v 0.078824 -0.006609 -0.025964
v 0.077799 -0.005229 -0.025432
v 0.078156 -0.004199 -0.025719
v 0.078362 -0.004089 -0.025838
v 0.078167 -0.003519 -0.025604
v 0.078408 -0.003179 -0.025738
v 0.078620 -0.003279 -0.025847
v 0.078730 -0.003899 -0.025922
v 0.079104 -0.003869 -0.025858
v 0.078380 -0.001989 -0.025402
v 0.078573 -0.001979 -0.025510
v 0.079319 -0.002699 -0.025685
v 0.078911 -0.002829 -0.025805
v 0.077853 -0.023249 -0.026567
v 0.078256 -0.023449 -0.026572
v 0.076832 -0.022089 -0.026541
v 0.077084 -0.021989 -0.026853
v 0.077484 -0.022789 -0.026753
v 0.077238 -0.022469 -0.026778
v 0.077412 -0.022179 -0.027014
v 0.077970 -0.022819 -0.026919
v 0.079008 -0.023359 -0.026835
v 0.079568 -0.023689 -0.026657
v 0.080038 -0.023539 -0.026719
v 0.079739 -0.023369 -0.026867
v 0.076601 -0.020959 -0.026628
v 0.077060 -0.021049 -0.027006
v 0.077760 -0.021549 -0.027273
v 0.079063 -0.022419 -0.027225
v 0.080397 -0.022799 -0.027008
v 0.079746 -0.022659 -0.027170
v 0.080616 -0.023129 -0.026753
v 0.076436 -0.019759 -0.026498
v 0.076873 -0.019979 -0.026905
v 0.077316 -0.020509 -0.027161
v 0.079747 -0.021869 -0.027383
v 0.080465 -0.021949 -0.027249
v 0.080921 -0.022479 -0.026856
v 0.076631 -0.019449 -0.026668
v 0.076738 -0.018959 -0.026623
v 0.076979 -0.019279 -0.026872
v 0.077691 -0.019959 -0.027266
v 0.080934 -0.021059 -0.027205
v 0.077425 -0.018249 -0.026757
v 0.081431 -0.020899 -0.026874
v 0.081400 -0.019989 -0.027001
v 0.081874 -0.019959 -0.026581
v 0.080660 -0.016049 -0.027034
v 0.081513 -0.015159 -0.026533
v 0.081067 -0.015119 -0.026702
v 0.081208 -0.015679 -0.026829
v 0.080451 -0.015449 -0.026870
v 0.081794 -0.015579 -0.026464
v 0.081539 -0.016329 -0.026757
v 0.078799 -0.021039 -0.027496
v 0.078562 -0.020009 -0.027505
v 0.079774 -0.020479 -0.027598
v 0.080349 -0.020809 -0.027482
v 0.079347 -0.019849 -0.027624
v 0.079940 -0.019489 -0.027627
v 0.080831 -0.019839 -0.027357
v 0.080350 -0.020019 -0.027547
v 0.079203 -0.018639 -0.027486
v 0.080426 -0.019069 -0.027477
v 0.079821 -0.018929 -0.027585
v 0.078585 -0.007169 -0.022526
v 0.079169 -0.006999 -0.022178
v 0.079112 -0.007039 -0.022397
v 0.080235 -0.007039 -0.022168
v 0.080381 -0.007029 -0.022287
v 0.081102 -0.007209 -0.022180
v 0.081102 -0.007209 -0.022180
v 0.081731 -0.006979 -0.022178
v 0.081731 -0.006979 -0.022178
v 0.081731 -0.006979 -0.022178
v 0.081896 -0.006979 -0.022173
v 0.078091 -0.021639 -0.023474
v 0.078439 -0.021689 -0.023149
vn -0.1581 -0.3309 0.9303
vn 0.1529 -0.1999 0.9678
vn -0.1982 -0.1775 0.9639
vn -0.3982 -0.3457 0.8496
vn 0.2235 -0.5233 0.8223
vn 0.3825 -0.2988 0.8743
vn -0.3194 -0.0403 0.9468
vn -0.1043 -0.0333 0.9940
vn -0.1667 0.1160 0.9792
vn -0.4473 -0.1978 0.8722
vn -0.5334 -0.0210 0.8456
vn 0.1466 -0.0518 0.9878
vn 0.3946 -0.1295 0.9097
vn 0.5322 -0.1747 0.8284
vn -0.3573 0.0904 0.9296
vn 0.0499 0.0827 0.9953
vn 0.0036 0.0957 0.9954
vn 0.3573 -0.0111 0.9339
vn 0.5537 -0.0381 0.8319
vn 0.3027 0.0769 0.9500
vn -0.2896 -0.2536 0.9229
vn -0.0079 -0.2044 0.9789
vn -0.2422 -0.1008 0.9650
vn 0.1949 -0.2922 0.9363
vn 0.3107 -0.2316 0.9219
vn -0.3394 0.0261 0.9403
vn -0.0639 0.0615 0.9961
vn -0.0407 0.0728 0.9965
vn -0.0743 -0.0210 0.9970
vn 0.1885 -0.0693 0.9796
vn 0.4560 -0.1597 0.8755
vn 0.1321 0.0935 0.9868
vn 0.3584 0.0133 0.9335
vn 0.5615 -0.1143 0.8196
vn -0.5662 -0.3494 0.7465
vn -0.6385 -0.5166 0.5705
vn -0.5206 -0.5279 0.6710
vn -0.7001 -0.3167 0.6400
vn -0.5136 -0.7292 0.4522
vn -0.3657 -0.5109 0.7780
vn -0.3229 -0.7690 0.5518
vn -0.3150 -0.9164 0.2468
vn -0.0686 -0.6199 0.7816
vn 0.0012 -0.8331 0.5531
vn 0.2128 -0.9141 0.3451
vn -0.0664 -0.9710 0.2297
vn -0.6475 -0.1488 0.7474
vn -0.7926 -0.1832 0.5816
vn -0.7149 -0.0204 0.6989
vn -0.8408 -0.0332 0.5403
vn 0.5341 -0.4786 0.6969
vn 0.4236 -0.6842 0.5937
vn -0.7084 0.1152 0.6964
vn 0.5897 -0.2990 0.7502
vn -0.7582 0.2122 0.6166
vn -0.5352 0.1445 0.8323
vn -0.4850 0.1658 0.8586
vn 0.6416 -0.1226 0.7572
vn 0.6870 -0.0104 0.7266
vn 0.5701 0.0517 0.8200
vn -0.2092 0.1025 0.9725
vn 0.2964 0.0800 0.9517
vn -0.3592 0.1661 0.9184
vn -0.0150 0.0621 0.9980
vn -0.2376 -0.0360 0.9707
vn -0.5831 0.2102 0.7847
vn -0.5189 0.0790 0.8512
vn 0.3658 0.0297 0.9302
vn 0.1777 -0.1567 0.9715
vn 0.5498 -0.1182 0.8269
vn 0.5831 0.0281 0.8119
vn 0.6882 -0.1053 0.7178
vn 0.6826 0.0549 0.7287
vn -0.3939 -0.1880 0.8997
vn 0.3515 -0.3208 0.8795
vn -0.1214 -0.2728 0.9544
vn 0.4514 -0.3273 0.8301
vn -0.5182 -0.1265 0.8458
vn -0.4238 -0.1356 0.8955
vn -0.6523 -0.0724 0.7545
vn 0.5947 -0.2570 0.7618
vn 0.5773 -0.2444 0.7791
vn 0.7503 -0.2068 0.6279
vn 0.7727 -0.2178 0.5962
vn -0.5305 -0.0166 0.8475
vn -0.6767 -0.1006 0.7293
vn 0.7543 -0.1567 0.6375
vn -0.6316 0.0259 0.7749
vn -0.7379 0.0137 0.6748
vn -0.2937 0.0175 0.9557
vn 0.6750 -0.0291 0.7373
vn 0.8748 -0.0985 0.4743
vn -0.4381 0.0208 0.8987
vn 0.8572 -0.0122 0.5148
vn 0.8974 -0.1714 0.4066
vn -0.2466 0.0306 0.9686
vn 0.4807 0.0834 0.8729
vn 0.4304 0.1509 0.8900
vn 0.7025 0.1107 0.7030
vn 0.2588 0.1323 0.9568
vn 0.0104 0.0410 0.9991
vn 0.8798 0.1157 0.4611
vn 0.7403 0.2055 0.6401
vn -0.0508 0.0614 0.9968
vn 0.6711 0.2234 0.7069
vn -0.6963 -0.0056 0.7177
vn 0.2684 0.1388 0.9533
vn 0.5373 0.2003 0.8193
vn -0.3947 -0.0647 0.9165
vn 0.5304 0.3000 0.7929
vn -0.5464 -0.0766 0.8340
vn -0.8229 -0.1124 0.5569
vn -0.2232 0.0373 0.9741
vn 0.0260 0.1755 0.9841
vn 0.2211 0.2205 0.9500
vn -0.0498 0.2409 0.9693
vn 0.2089 0.3648 0.9074
vn -0.8355 -0.3336 0.4366
vn -0.7509 -0.4846 0.4487
vn -0.8866 -0.1810 0.4257
vn -0.9112 -0.2648 0.3155
vn -0.6226 -0.7231 0.2992
vn -0.8222 -0.4962 0.2790
vn -0.3358 -0.9222 -0.1918
vn -0.1315 -0.9699 -0.2050
vn -0.2612 -0.9652 -0.0103
vn -0.0566 -0.9960 -0.0690
vn 0.1538 -0.9879 -0.0206
vn 0.3662 -0.9304 0.0153
vn -0.8465 0.0603 0.5289
vn -0.8950 -0.1620 0.4157
vn 0.3832 -0.8849 0.2650
vn 0.5902 -0.7226 0.3598
vn 0.6690 -0.4951 0.5543
vn 0.7159 -0.6309 0.2991
vn 0.5497 -0.8264 0.1219
vn 0.7585 -0.4541 0.4674
vn 0.8253 -0.4338 0.3615
vn 0.7476 -0.2750 0.6045
vn 0.7742 -0.0709 0.6289
vn 0.8660 -0.2153 0.4514
vn 0.8699 -0.0384 0.4917
vn 0.8484 -0.0007 0.5294
vn -0.7248 0.1264 0.6773
vn -0.9361 0.0821 0.3421
vn 0.7505 0.0193 0.6606
vn 0.8016 0.0145 0.5977
vn 0.8894 -0.0716 0.4516
vn -0.8157 -0.0855 0.5721
vn -0.8266 -0.0262 0.5622
vn 0.9040 -0.1662 0.3938
vn -0.9262 0.1073 0.3615
vn 0.9817 -0.0573 0.1818
vn 0.9713 -0.1248 0.2026
vn 0.9996 0.0275 0.0094
vn 0.9638 0.0026 0.2666
vn -0.9854 0.1601 -0.0580
vn -0.9974 0.0693 -0.0182
vn 0.9757 0.1108 0.1891
vn 0.9956 0.0283 -0.0899
vn 0.9875 0.1486 -0.0517
vn -0.9501 0.0692 0.3043
vn -0.9954 -0.0629 0.0717
vn 0.9239 0.2581 0.2823
vn -0.9591 -0.0751 -0.2728
vn -0.9168 -0.0406 0.3974
vn -0.9655 -0.1670 0.1998
vn 0.8541 0.3002 0.4248
vn -0.9649 -0.1904 -0.1808
vn -0.9594 -0.2178 0.1792
vn -0.9558 -0.1850 -0.2287
vn -0.6842 -0.0013 0.7293
vn -0.8608 -0.1537 0.4852
vn -0.8902 0.0044 0.4556
vn -0.9778 -0.1300 0.1645
vn -0.9929 -0.0931 -0.0736
vn -0.4978 0.1679 0.8509
vn -0.3129 0.1459 0.9385
vn -0.3194 0.3075 0.8963
vn -0.6680 0.2027 0.7160
vn -0.4578 0.3593 0.8132
vn -0.1784 0.4314 0.8843
vn -0.1435 0.3426 0.9285
vn -0.2956 0.5282 0.7960
vn -0.9306 0.0682 0.3596
vn -0.9933 0.0995 0.0588
vn -0.8215 0.2805 0.4964
vn -0.6041 0.4665 0.6460
vn -0.4479 0.6752 0.5861
vn -0.9622 0.2724 -0.0094
vn -0.7922 0.5350 0.2936
vn -0.9499 -0.0266 -0.3114
vn -0.8110 0.5401 -0.2250
vn 0.0558 0.4226 0.9046
vn 0.6552 0.4338 0.6185
vn 0.5815 0.4981 0.6433
vn 0.3933 0.4582 0.7971
vn 0.7788 0.3540 0.5179
vn 0.7828 0.5144 0.3500
vn 0.9047 0.3971 0.1542
vn -0.0642 0.5575 0.8277
vn -0.1454 0.7296 0.6682
vn -0.3603 0.8479 0.3890
vn -0.0743 0.9102 0.4073
vn 0.0655 0.7387 0.6709
vn 0.1239 0.8997 0.4185
vn 0.0413 0.9924 0.1157
vn -0.6324 0.7514 0.1886
vn -0.2249 0.9664 0.1248
vn 0.2150 0.6027 0.7685
vn 0.3205 0.7780 0.5403
vn 0.3021 0.9081 0.2901
vn 0.4779 0.7807 0.4026
vn 0.4424 0.8949 0.0589
vn 0.5641 0.7971 0.2155
vn 0.4769 0.6206 0.6223
vn 0.6019 0.6801 0.4185
vn 0.7150 0.6143 0.3338
vn 0.8541 0.5179 -0.0476
vn -0.9010 -0.4062 0.1526
vn -0.9408 -0.3148 0.1256
vn -0.7125 -0.6883 0.1362
vn -0.8173 -0.5717 0.0721
vn -0.6241 -0.7735 -0.1105
vn -0.8154 -0.5742 -0.0736
vn -0.4816 -0.8752 0.0465
vn -0.0864 -0.8865 -0.4546
vn 0.1280 -0.9739 -0.1874
vn -0.0085 -0.9500 -0.3120
vn -0.9235 -0.2954 0.2448
vn 0.3370 -0.9404 0.0466
vn 0.0879 -0.9774 -0.1924
vn 0.5776 -0.7635 0.2887
vn -0.9123 0.0818 0.4012
vn -0.8611 0.2543 0.4402
vn 0.9385 -0.0809 0.3357
vn 0.9226 -0.2708 0.2746
vn 0.7852 -0.5303 0.3199
vn 0.9614 -0.0316 0.2732
vn -0.9088 0.2787 0.3103
vn 0.9859 -0.0624 0.1551
vn -0.9500 0.0464 0.3087
vn -0.9931 0.0412 0.1097
vn 0.9771 -0.1078 0.1837
vn 0.9978 -0.0585 0.0322
vn -0.9379 0.3080 -0.1598
vn -0.9725 0.2064 0.1078
vn -0.9685 0.1309 -0.2120
vn -0.8819 0.2567 -0.3955
vn 0.9434 0.1487 -0.2965
vn -0.9078 0.0395 -0.4176
vn -0.8851 0.1454 -0.4421
vn -0.7583 0.1400 -0.6367
vn -0.7585 0.0845 -0.6462
vn 0.8889 0.2108 -0.4067
vn 0.8092 0.2832 -0.5148
vn 0.6770 0.2616 -0.6879
vn 0.9483 0.2759 -0.1569
vn 0.8607 0.2915 -0.4175
vn -0.8748 -0.1595 -0.4574
vn -0.8825 -0.0414 -0.4685
vn -0.7165 -0.0554 -0.6953
vn 0.9402 0.3343 -0.0653
vn -0.8332 -0.1533 -0.5314
vn -0.7023 -0.0871 -0.7065
vn 0.8880 0.3255 -0.3247
vn -0.8090 -0.0710 -0.5835
vn -0.9098 0.1529 -0.3858
vn -0.7116 0.4029 -0.5756
vn -0.7713 0.0889 -0.6302
vn -0.5946 0.0471 -0.8026
vn -0.5669 0.2614 -0.7812
vn -0.3768 0.2411 -0.8944
vn -0.5108 -0.0139 -0.8596
vn -0.3218 0.1137 -0.9399
vn 0.8229 0.4026 -0.4010
vn 0.5873 0.2686 -0.7635
vn -0.5313 0.8409 -0.1032
vn -0.2808 0.9317 -0.2302
vn -0.4937 0.6910 -0.5280
vn -0.0359 0.9808 -0.1914
vn 0.0981 0.9726 -0.2108
vn -0.1679 0.8590 -0.4837
vn 0.0370 0.8451 -0.5333
vn -0.1906 0.6414 -0.7431
vn -0.3870 0.4713 -0.7925
vn 0.0132 0.6560 -0.7547
vn -0.1591 0.3383 -0.9275
vn 0.2645 0.9644 -0.0016
vn 0.2786 0.9022 -0.3293
vn 0.4277 0.8549 -0.2935
vn 0.5211 0.8535 -0.0063
vn 0.5761 0.7421 -0.3426
vn 0.3363 0.7229 -0.6036
vn 0.1830 0.4627 -0.8674
vn 0.6897 0.6982 0.1917
vn 0.7952 0.6047 0.0444
vn 0.6411 0.7671 0.0257
vn 0.7740 0.5260 -0.3525
vn 0.7330 0.6437 -0.2200
vn 0.5685 0.4824 -0.6664
vn -0.8715 -0.4859 0.0661
vn -0.5884 -0.7906 -0.1698
vn -0.3132 -0.8713 -0.3780
vn -0.1371 -0.9089 -0.3939
vn -0.0599 -0.8993 -0.4333
vn -0.2322 -0.9294 -0.2870
vn -0.3151 -0.9275 -0.2011
vn -0.0874 -0.9872 0.1332
vn -0.9630 0.1293 0.2366
vn -0.9416 -0.0918 0.3241
vn -0.9924 -0.0505 0.1125
vn -0.9524 -0.2557 0.1663
vn 0.2741 -0.9186 0.2845
vn 0.2516 -0.8970 0.3633
vn -0.9529 0.2480 0.1744
vn -0.9907 0.1329 0.0289
vn 0.7434 -0.6027 0.2899
vn 0.9352 -0.3015 0.1856
vn -0.9378 0.3093 0.1578
vn 0.9818 -0.0708 0.1761
vn -0.9511 0.3035 0.0576
vn -0.9890 0.1473 0.0137
vn -0.9645 0.2267 0.1357
vn -0.9012 0.3919 0.1849
vn 0.9967 -0.0374 -0.0722
vn -0.9077 0.4165 -0.0511
vn -0.7761 0.5803 -0.2468
vn -0.7803 0.4045 -0.4770
vn -0.6219 0.3676 -0.6914
vn -0.4977 0.6002 -0.6261
vn -0.2699 0.2597 -0.9272
vn -0.5174 0.8305 -0.2063
vn 0.9929 0.0755 -0.0916
vn 0.9989 0.0459 0.0098
vn -0.6316 0.1652 -0.7575
vn 0.9430 0.2307 -0.2398
vn 0.0617 0.0835 -0.9946
vn 0.0565 0.2603 -0.9639
vn 0.1003 0.1419 -0.9848
vn 0.0550 0.4500 -0.8913
vn -0.2508 0.8751 -0.4139
vn -0.0455 0.3268 -0.9440
vn -0.0907 0.5558 -0.8264
vn 0.1663 0.1566 -0.9736
vn -0.0082 0.2563 -0.9666
vn 0.2401 0.3138 -0.9186
vn 0.2135 0.6448 -0.7340
vn -0.0793 0.8747 -0.4781
vn 0.5496 0.3805 -0.7438
vn 0.8482 0.3790 -0.3701
vn 0.7160 0.4949 -0.4924
vn 0.4921 0.6780 -0.5461
vn 0.9776 0.2097 -0.0156
vn -0.5284 0.1046 -0.8425
vn -0.1202 0.1160 -0.9860
vn 0.3775 0.1975 -0.9047
vn -0.3944 0.0671 -0.9165
vn 0.2394 0.1452 -0.9600
vn 0.3294 0.1868 -0.9255
vn 0.0038 0.1128 -0.9936
vn 0.1704 0.1584 -0.9726
vn 0.2460 0.2880 -0.9255
vn -0.0535 0.1483 -0.9875
vn -0.5606 -0.8281 -0.0036
vn -0.0340 -0.9980 -0.0537
vn 0.0244 -0.9769 -0.2121
vn -0.0737 -0.8420 -0.5344
vn -0.9069 -0.4214 -0.0024
vn -0.9925 -0.0759 -0.0956
vn -0.1337 -0.9226 -0.3618
vn -0.2803 -0.9090 -0.3085
vn -0.3944 -0.9147 0.0884
vn -0.4003 -0.7970 0.4524
vn -0.4439 -0.8770 0.1837
vn -0.3696 -0.7842 0.4984
vn -0.0620 -0.9123 0.4048
vn -0.9926 0.0625 -0.1044
vn 0.4526 -0.8477 0.2768
vn -0.9621 0.2634 -0.0712
vn 0.9940 -0.0425 0.1003
vn 0.9983 -0.0147 -0.0563
vn -0.9696 0.0442 -0.2406
vn 0.9998 0.0127 -0.0140
vn -0.9991 0.0374 0.0195
vn -0.7271 0.6825 -0.0752
vn -0.8457 0.4826 0.2276
vn -0.6930 0.7079 0.1364
vn -0.5500 0.8175 0.1712
vn -0.6697 0.5381 0.5118
vn -0.8025 0.3971 0.4453
vn -0.2136 0.9747 -0.0660
vn -0.1207 0.9808 -0.1529
vn -0.3612 0.8915 0.2736
vn -0.5784 0.2665 0.7710
vn -0.3867 0.5075 0.7700
vn -0.2164 0.4808 0.8497
vn -0.1167 0.5190 -0.8468
vn -0.3012 0.2263 0.9263
vn 0.0950 0.4526 -0.8866
vn 0.0095 0.9839 -0.1783
vn 0.1480 0.9578 0.2464
vn 0.0761 0.9843 0.1591
vn -0.0118 0.4295 0.9030
vn -0.1472 0.1674 0.9748
vn 0.1766 0.8237 -0.5389
vn 0.0346 0.9608 -0.2751
vn -0.0828 0.4703 0.8786
vn -0.0816 0.6219 0.7788
vn 0.9922 0.1161 -0.0450
vn 0.9655 0.2600 0.0158
vn 0.9318 0.3420 0.1216
vn -0.3317 0.0973 0.9384
vn 0.0175 0.1498 0.9886
vn 0.1556 0.4248 0.8918
vn -0.2337 0.5322 0.8137
vn 0.2701 0.2277 0.9355
vn -0.3580 0.8160 -0.4539
vn 0.2390 0.8905 -0.3872
vn 0.4791 0.8371 -0.2642
vn -0.2163 0.9625 -0.1640
vn -0.3381 0.9230 0.1840
vn 0.1994 0.9639 -0.1764
vn -0.0135 0.8948 0.4464
vn 0.1809 0.8742 0.4507
vn 0.3382 0.7092 0.6186
vn 0.2878 0.5984 0.7477
vn 0.5324 0.4413 0.7224
vn 0.9182 0.3876 -0.0819
vn 0.7913 0.5697 -0.2221
vn 0.6529 0.7174 -0.2430
vn 0.7281 0.6826 0.0625
vn 0.8770 0.4761 0.0642
vn 0.5410 0.8329 0.1167
vn 0.7930 0.5251 0.3088
vn 0.6266 0.6315 0.4567
vn 0.8463 0.4425 0.2967
vn -0.1893 0.0938 0.9774
vn -0.4992 0.0995 0.8608
vn -0.1243 0.1126 0.9858
vn 0.1566 0.1414 0.9775
vn 0.6228 0.3027 0.7214
vn -0.7795 -0.6220 -0.0740
vn 0.0378 -0.9572 0.2870
vn -0.3602 -0.9089 0.2102
vn 0.0287 -0.9608 0.2759
vn -0.2775 -0.8204 0.4999
vn -0.0866 -0.9962 0.0008
vn -0.2582 -0.7457 0.6142
vn -0.3400 -0.7190 0.6062
vn -0.3567 -0.6562 0.6650
vn -0.5061 -0.6317 0.5872
vn -0.4660 -0.6707 0.5771
vn -0.4854 -0.8049 0.3414
vn -0.4765 -0.7373 0.4789
vn -0.5010 -0.5588 0.6609
vn -0.4565 -0.6027 0.6545
vn -0.1950 -0.6829 0.7040
vn -0.3550 -0.6765 0.6453
vn -0.1887 -0.6981 0.6907
vn -0.3345 -0.7796 0.5294
vn -0.0444 -0.8327 0.5519
vn -0.9749 -0.0068 -0.2224
vn 0.8057 -0.5781 0.1287
vn -0.9600 0.1792 -0.2150
vn -0.9442 0.1318 -0.3018
vn -0.9344 0.3334 -0.1258
vn -0.9098 0.3330 -0.2477
vn -0.9505 0.2157 -0.2235
vn 0.9982 -0.0594 -0.0063
vn 0.9976 0.0134 -0.0681
vn 0.9734 0.0369 -0.2262
vn 0.9721 0.0568 -0.2274
vn -0.9882 0.1514 -0.0224
vn -0.9183 0.3294 0.2195
vn 0.9527 0.0095 -0.3037
vn 0.9298 0.0606 -0.3629
vn -0.8595 0.2377 0.4525
vn 0.9918 0.0243 -0.1257
vn 0.9521 0.0834 -0.2941
vn -0.7712 0.1719 0.6129
vn 0.9597 0.1840 -0.2126
vn 0.9357 0.2520 -0.2467
vn 0.8692 0.1177 -0.4803
vn -0.7643 0.1500 0.6271
vn -0.9213 0.1541 0.3570
vn 0.9385 0.3414 0.0509
vn 0.9149 0.3355 0.2246
vn -0.7016 0.0701 0.7091
vn 0.4839 0.2138 0.8486
vn 0.8344 0.2639 0.4840
vn -0.6174 0.0986 0.7804
vn -0.3726 0.1072 0.9218
vn -0.7542 0.1223 0.6451
vn -0.0055 0.1292 0.9916
vn 0.7973 0.3012 0.5230
vn -0.2906 0.1876 0.9383
vn -0.5833 0.1632 0.7957
vn -0.3485 0.3177 0.8818
vn 0.1533 0.3210 0.9346
vn 0.3209 0.1818 0.9295
vn 0.5678 0.2631 0.7800
vn 0.5924 0.4269 0.6832
vn -0.6793 0.2447 0.6918
vn 0.8485 0.4494 0.2794
vn 0.1059 0.5527 0.8266
vn -0.1939 0.6113 0.7673
vn 0.1437 0.7850 0.6026
vn 0.6115 0.6029 0.5124
vn -0.6623 -0.7410 0.1104
vn -0.9532 -0.2119 -0.2158
vn -0.8971 -0.4157 -0.1498
vn -0.7911 -0.6078 0.0683
vn -0.4921 -0.7709 0.4044
vn -0.1490 -0.8128 0.5632
vn 0.1392 -0.9417 0.3062
vn -0.3169 -0.7813 0.5378
vn 0.5227 -0.8519 -0.0318
vn 0.6921 -0.7216 -0.0179
vn 0.9485 -0.3131 0.0480
vn 0.8664 -0.4870 -0.1103
vn 0.7593 -0.6004 -0.2509
vn 0.8396 -0.3852 -0.3831
vn 0.9261 -0.2906 -0.2405
vn 0.9963 -0.0859 0.0040
vn 0.9750 -0.2041 -0.0875
vn 0.9657 -0.0804 -0.2469
vn -0.8572 0.2482 -0.4512
vn -0.8693 0.3342 -0.3643
vn -0.9281 0.2813 -0.2441
vn -0.8591 0.2929 -0.4197
vn -0.7533 0.3350 -0.5660
vn -0.8334 0.2292 -0.5029
vn -0.9031 0.0779 -0.4223
vn -0.8002 -0.1195 -0.5878
vn -0.9668 -0.1039 -0.2333
vn 0.8746 0.1233 -0.4690
vn -0.9707 0.0121 -0.2401
vn -0.9239 -0.1202 -0.3633
vn 0.8611 0.0372 -0.5070
vn 0.7651 0.0980 -0.6364
vn 0.7294 0.0653 -0.6809
vn -0.9629 0.1635 0.2145
vn -0.9896 0.1426 -0.0180
vn -0.9649 0.1427 -0.2205
vn -0.8991 0.1172 -0.4218
vn 0.8060 0.1573 -0.5706
vn -0.9949 0.0995 0.0177
vn -0.8857 0.0873 0.4559
vn 0.9672 0.1941 -0.1637
vn 0.9740 0.2183 -0.0612
vn 0.9204 0.1933 -0.3400
vn 0.8988 0.1595 -0.4082
vn 0.7297 0.1471 -0.6678
vn -0.9677 0.1325 0.2146
vn 0.9595 0.2816 0.0062
vn 0.7936 0.1543 -0.5886
vn 0.8319 0.2653 -0.4874
vn 0.6195 0.1709 -0.7662
vn -0.8479 0.1454 0.5099
vn -0.8673 0.2477 0.4317
vn -0.9557 0.2831 0.0810
vn 0.9043 0.3478 -0.2475
vn 0.9097 0.3868 0.1510
vn 0.7016 0.3252 -0.6341
vn -0.5225 0.4122 0.7464
vn -0.4402 0.6274 0.6424
vn -0.7614 0.4030 0.5078
vn -0.8560 0.5138 0.0571
vn 0.8690 0.4338 -0.2378
vn 0.7058 0.4009 -0.5840
vn -0.0335 0.8521 0.5223
vn 0.3502 0.8958 0.2737
vn 0.2109 0.9543 0.2116
vn -0.2500 0.9182 0.3073
vn 0.0467 0.9882 0.1456
vn 0.3693 0.9165 -0.1537
vn 0.5216 0.8459 -0.1116
vn -0.5938 0.7215 0.3561
vn -0.6090 0.7886 -0.0848
vn -0.1602 0.9624 -0.2195
vn 0.2368 0.9088 -0.3436
vn 0.4690 0.7595 0.4508
vn 0.8045 0.5879 0.0841
vn 0.6434 0.7650 0.0280
vn 0.7533 0.5961 -0.2779
vn 0.6100 0.6044 -0.5125
vn -0.4924 -0.7552 0.4326
vn -0.3219 -0.8682 0.3775
vn -0.3159 -0.9221 0.2236
vn -0.5489 -0.7807 0.2989
vn -0.1448 -0.9157 0.3748
vn -0.1133 -0.9838 0.1389
vn -0.1814 -0.9818 -0.0570
vn 0.1913 -0.9814 0.0128
vn 0.0263 -0.9846 -0.1728
vn 0.2982 -0.9093 -0.2904
vn 0.5010 -0.8025 -0.3239
vn 0.6642 -0.6547 -0.3609
vn -0.9473 -0.0593 -0.3149
vn -0.9216 0.1070 -0.3731
vn 0.7372 -0.4625 -0.4926
vn 0.7978 -0.2529 -0.5473
vn 0.9048 -0.1514 -0.3980
vn 0.7597 -0.1461 -0.6337
vn 0.8680 -0.0707 -0.4916
vn -0.7829 0.1943 -0.5910
vn 0.9130 0.0053 -0.4080
vn -0.7879 0.3508 -0.5061
vn -0.6395 0.3179 -0.6999
vn -0.5301 0.2474 -0.8110
vn -0.7172 0.1446 -0.6817
vn -0.4927 0.0461 -0.8690
vn -0.7715 -0.1694 -0.6132
vn -0.5817 -0.1203 -0.8044
vn -0.9150 0.0680 -0.3976
vn -0.8346 -0.0496 -0.5486
vn 0.6664 0.2396 -0.7060
vn 0.4542 0.1944 -0.8694
vn -0.7250 0.0234 -0.6884
vn 0.5693 0.0577 -0.8201
vn 0.5128 0.0675 -0.8558
vn 0.3226 0.0931 -0.9419
vn -0.8460 0.1015 -0.5234
vn -0.5951 -0.0606 -0.8013
vn 0.2468 0.0687 -0.9666
vn 0.6134 0.1158 -0.7812
vn 0.4543 0.1022 -0.8850
vn -0.7799 0.1535 -0.6067
vn -0.9452 0.0753 -0.3178
vn -0.9645 0.1629 -0.2077
vn -0.7483 0.1716 -0.6408
vn -0.7775 0.1227 -0.6167
vn -0.6272 0.1647 -0.7613
vn -0.3282 0.1967 -0.9239
vn -0.3516 0.2252 -0.9087
vn -0.0645 0.2156 -0.9744
vn 0.3423 0.1508 -0.9274
vn 0.5076 0.2282 -0.8308
vn -0.8382 0.3434 -0.4236
vn -0.4273 0.2835 -0.8585
vn -0.1800 0.2133 -0.9603
vn -0.6747 0.5095 -0.5340
vn -0.1554 0.5008 -0.8515
vn 0.1426 0.2873 -0.9472
vn 0.2064 0.2256 -0.9521
vn -0.3833 0.7510 -0.5377
vn 0.0789 0.7574 -0.6482
vn 0.4308 0.6681 -0.6067
vn 0.3637 0.4356 -0.8234
vn -0.6865 -0.7186 0.1112
vn -0.7148 -0.6117 -0.3391
vn -0.5677 -0.7326 -0.3755
vn -0.7985 -0.4775 -0.3667
vn -0.4911 -0.8692 -0.0577
vn -0.3646 -0.7865 -0.4985
vn -0.3725 -0.6398 -0.6722
vn -0.2641 -0.6364 -0.7248
vn -0.2066 -0.7762 -0.5957
vn -0.4546 -0.5195 -0.7235
vn -0.4207 -0.9022 0.0948
vn -0.3306 -0.9156 -0.2289
vn -0.1035 -0.9315 -0.3488
vn -0.0631 -0.8183 -0.5713
vn -0.8841 -0.3745 -0.2793
vn -0.8949 -0.2207 -0.3878
vn -0.7804 -0.2824 -0.5579
vn -0.5800 -0.4063 -0.7061
vn 0.1043 -0.7666 -0.6336
vn 0.2024 -0.5564 -0.8059
vn 0.3301 -0.6496 -0.6849
vn -0.0220 -0.6370 -0.7705
vn 0.0566 -0.4697 -0.8810
vn 0.1563 -0.8767 -0.4549
vn 0.4434 -0.7156 -0.5397
vn 0.5315 -0.5328 -0.6585
vn -0.8952 -0.1020 -0.4337
vn -0.7676 -0.1147 -0.6306
vn 0.6500 -0.5391 -0.5356
vn 0.6392 -0.4022 -0.6555
vn -0.8845 0.0522 -0.4637
vn -0.7773 0.0274 -0.6286
vn -0.6591 0.1305 -0.7407
vn 0.6917 -0.2795 -0.6659
vn 0.6376 -0.1450 -0.7566
vn -0.5918 0.2671 -0.7605
vn 0.7464 -0.0336 -0.6647
vn -0.4020 0.2981 -0.8658
vn 0.7484 0.0620 -0.6603
vn -0.2844 0.2655 -0.9212
vn -0.2348 0.0301 -0.9716
vn 0.6632 0.1743 -0.7278
vn -0.0036 0.0242 -0.9997
vn 0.0666 0.2481 -0.9664
vn -0.1726 0.3585 -0.9174
vn 0.0870 0.3628 -0.9278
vn 0.2141 0.3481 -0.9127
vn 0.3972 0.3457 -0.8502
vn 0.4787 0.2945 -0.8271
vn -0.5267 -0.1234 -0.8410
vn -0.2702 -0.0377 -0.9621
vn 0.1604 0.0125 -0.9870
vn 0.1247 0.1684 -0.9778
vn -0.4664 0.0003 -0.8845
vn 0.0599 -0.0003 -0.9982
vn -0.2200 0.0169 -0.9753
vn 0.1775 0.0003 -0.9841
vn -0.5836 0.0489 -0.8106
vn -0.4023 0.0792 -0.9121
vn -0.0307 0.0739 -0.9968
vn -0.6710 0.0976 -0.7350
vn -0.5186 0.1832 -0.8352
vn -0.1904 0.1323 -0.9728
vn 0.0196 0.1787 -0.9837
vn -0.2270 -0.4315 -0.8731
vn -0.1245 -0.5154 -0.8478
vn -0.6213 -0.2233 -0.7510
vn -0.3826 -0.2787 -0.8809
vn -0.2638 -0.1523 -0.9525
vn 0.0588 -0.3302 -0.9421
vn -0.5375 -0.0871 -0.8387
vn -0.0844 -0.2945 -0.9519
vn 0.4310 -0.4501 -0.7821
vn 0.2934 -0.3542 -0.8880
vn 0.5466 -0.2867 -0.7868
vn -0.5543 0.0448 -0.8311
vn -0.4394 0.1988 -0.8760
vn -0.3883 0.0073 -0.9215
vn -0.3156 0.1029 -0.9433
vn 0.0554 -0.2097 -0.9762
vn 0.3146 -0.2255 -0.9221
vn 0.2576 -0.1215 -0.9586
vn 0.4893 -0.1418 -0.8605
vn 0.4481 -0.0025 -0.8940
vn 0.2688 -0.0340 -0.9626
vn 0.5976 -0.0282 -0.8013
vn 0.3034 0.0878 -0.9488
vn 0.5206 0.0810 -0.8500
vn -0.1118 0.3225 -0.9399
vn -0.1998 0.2014 -0.9589
vn 0.3448 0.2010 -0.9169
vn 0.0941 0.1981 -0.9757
vn -0.1054 -0.1225 -0.9869
vn 0.0479 -0.0957 -0.9943
vn -0.2087 0.0376 -0.9773
vn -0.0859 0.0123 -0.9962
vn 0.0397 0.1300 -0.9907
vn 0.1052 0.0419 -0.9936
s 1
usemtl mtl1.149
f 33//1 4//2 3//3
f 3//3 34//4 33//1
f 35//5 6//6 4//2
f 1//7 2//8 8//9
f 1//7 3//3 2//8
f 30//10 3//3 1//7
f 39//11 30//10 1//7
f 2//8 4//2 9//12
f 3//3 4//2 2//8
f 4//2 6//6 5//13
f 6//6 43//14 5//13
f 39//11 1//7 7//15
f 7//15 1//7 8//9
f 2//8 10//16 8//9
f 8//9 10//16 49//17
f 2//8 9//12 10//16
f 4//2 5//13 9//12
f 5//13 11//18 9//12
f 10//16 9//12 11//18
f 5//13 45//19 11//18
f 49//17 10//16 12//20
f 12//20 10//16 11//18
f 45//19 12//20 11//18
f 59//21 13//22 14//23
f 13//22 62//24 15//25
f 69//26 19//27 76//28
f 14//23 13//22 16//29
f 14//23 16//29 69//26
f 13//22 17//30 16//29
f 69//26 16//29 19//27
f 13//22 15//25 17//30
f 15//25 18//31 17//30
f 21//32 76//28 19//27
f 19//27 16//29 17//30
f 17//30 21//32 19//27
f 17//30 20//33 21//32
f 17//30 18//31 20//33
f 18//31 70//34 20//33
f 31//35 22//36 24//37
f 22//36 31//35 32//38
f 22//36 26//39 24//37
f 33//1 34//4 23//40
f 34//4 24//37 23//40
f 25//41 23//40 24//37
f 34//4 31//35 24//37
f 24//37 26//39 25//41
f 26//39 94//42 25//41
f 33//1 27//43 35//5
f 27//43 28//44 35//5
f 23//40 25//41 27//43
f 27//43 25//41 28//44
f 27//43 33//1 23//40
f 28//44 99//45 35//5
f 25//41 94//42 28//44
f 96//46 28//44 94//42
f 28//44 96//46 99//45
f 39//11 29//47 30//10
f 29//47 100//48 32//38
f 100//48 29//47 38//49
f 38//49 105//50 100//48
f 30//10 34//4 3//3
f 30//10 31//35 34//4
f 31//35 29//47 32//38
f 30//10 29//47 31//35
f 33//1 35//5 4//2
f 6//6 35//5 36//51
f 99//45 37//52 35//5
f 37//52 36//51 35//5
f 39//11 38//49 29//47
f 39//11 42//53 38//49
f 105//50 38//49 42//53
f 40//54 43//14 6//6
f 36//51 40//54 6//6
f 111//55 41//56 47//57
f 41//56 42//53 39//11
f 42//53 41//56 111//55
f 7//15 41//56 39//11
f 41//56 7//15 47//57
f 5//13 43//14 45//19
f 43//14 44//58 45//19
f 40//54 44//58 43//14
f 7//15 8//9 47//57
f 45//19 44//58 46//59
f 45//19 52//60 12//20
f 45//19 46//59 52//60
f 8//9 48//61 47//57
f 8//9 49//17 48//61
f 52//60 50//62 12//20
f 50//62 49//17 12//20
f 47//57 48//61 51//63
f 53//64 56//65 51//63
f 112//66 47//57 51//63
f 112//66 51//63 56//65
f 112//66 56//65 117//67
f 49//17 53//64 48//61
f 49//17 50//62 53//64
f 50//62 54//68 53//64
f 50//62 52//60 54//68
f 51//63 48//61 53//64
f 54//68 57//69 53//64
f 54//68 118//70 57//69
f 118//70 54//68 55//71
f 55//71 120//72 118//70
f 52//60 55//71 54//68
f 115//73 55//71 52//60
f 55//71 115//73 120//72
f 56//65 60//74 117//67
f 118//70 58//75 57//69
f 56//65 61//76 60//74
f 56//65 57//69 61//76
f 57//69 62//24 61//76
f 58//75 62//24 57//69
f 53//64 57//69 56//65
f 62//24 58//75 63//77
f 65//78 60//74 64//79
f 65//78 116//80 60//74
f 60//74 61//76 59//21
f 59//21 61//76 13//22
f 62//24 63//77 15//25
f 15//25 63//77 66//81
f 58//75 119//82 63//77
f 119//82 66//81 63//77
f 119//82 121//83 66//81
f 66//81 121//83 67//84
f 65//78 68//85 122//86
f 69//26 65//78 64//79
f 69//26 64//79 14//23
f 14//23 64//79 59//21
f 64//79 60//74 59//21
f 68//85 65//78 69//26
f 13//22 61//76 62//24
f 15//25 66//81 18//31
f 71//87 66//81 67//84
f 127//88 68//85 69//26
f 68//85 124//89 122//86
f 68//85 127//88 124//89
f 66//81 70//34 18//31
f 66//81 71//87 70//34
f 73//90 69//26 76//28
f 70//34 71//87 72//91
f 71//87 67//84 128//92
f 79//93 127//88 73//90
f 73//90 127//88 69//26
f 72//91 20//33 70//34
f 128//92 72//91 71//87
f 130//94 72//91 128//92
f 125//95 128//92 67//84
f 79//93 73//90 78//96
f 73//90 76//28 78//96
f 74//97 77//98 20//33
f 20//33 72//91 74//97
f 72//91 75//99 74//97
f 76//28 80//100 81//101
f 76//28 21//32 80//100
f 21//32 77//98 80//100
f 20//33 77//98 21//32
f 74//97 75//99 77//98
f 133//102 138//103 75//99
f 75//99 138//103 77//98
f 78//96 81//101 83//104
f 78//96 76//28 81//101
f 144//105 80//100 77//98
f 138//103 144//105 77//98
f 79//93 78//96 135//106
f 80//100 86//107 81//101
f 80//100 84//108 86//107
f 80//100 144//105 84//108
f 135//106 78//96 82//109
f 78//96 83//104 82//109
f 81//101 86//107 83//104
f 144//105 88//110 84//108
f 149//111 140//112 82//109
f 85//113 149//111 82//109
f 82//109 83//104 85//113
f 83//104 90//114 85//113
f 90//114 83//104 87//115
f 87//115 83//104 86//107
f 86//107 88//110 87//115
f 86//107 84//108 88//110
f 85//113 90//114 89//116
f 89//116 90//114 163//117
f 88//110 163//117 87//115
f 32//38 91//118 92//119
f 91//118 32//38 100//48
f 91//118 100//48 101//120
f 91//118 101//120 186//121
f 93//122 26//39 22//36
f 32//38 92//119 22//36
f 22//36 92//119 93//122
f 92//119 185//123 93//122
f 26//39 93//122 94//42
f 191//124 192//125 95//126
f 94//42 97//127 96//46
f 96//46 97//127 98//128
f 98//128 99//45 96//46
f 95//126 97//127 94//42
f 97//127 95//126 192//125
f 99//45 98//128 104//129
f 100//48 105//50 101//120
f 186//121 101//120 198//130
f 198//130 195//131 186//121
f 102//132 37//52 99//45
f 103//133 37//52 102//132
f 37//52 103//133 36//51
f 103//133 106//134 36//51
f 104//129 102//132 99//45
f 102//132 104//129 103//133
f 196//135 103//133 197//136
f 103//133 196//135 106//134
f 104//129 197//136 103//133
f 198//130 101//120 105//50
f 198//130 105//50 42//53
f 196//135 108//137 106//134
f 196//135 199//138 108//137
f 40//54 107//139 44//58
f 36//51 106//134 40//54
f 106//134 107//139 40//54
f 106//134 108//137 107//139
f 199//138 107//139 108//137
f 109//140 107//139 201//141
f 201//141 107//139 199//138
f 111//55 198//130 42//53
f 46//59 44//58 109//140
f 44//58 107//139 109//140
f 109//140 200//142 110//143
f 46//59 109//140 110//143
f 200//142 109//140 201//141
f 112//66 114//144 111//55
f 114//144 112//66 117//67
f 111//55 114//144 286//145
f 112//66 111//55 47//57
f 113//146 115//73 52//60
f 113//146 52//60 46//59
f 46//59 110//143 113//146
f 115//73 113//146 203//147
f 203//147 113//146 205//148
f 113//146 110//143 205//148
f 114//144 204//149 286//145
f 203//147 120//72 115//73
f 117//67 116//80 114//144
f 114//144 116//80 204//149
f 116//80 117//67 60//74
f 58//75 118//70 119//82
f 120//72 119//82 118//70
f 120//72 121//83 119//82
f 204//149 116//80 122//86
f 122//86 116//80 65//78
f 122//86 123//150 204//149
f 122//86 124//89 123//150
f 67//84 121//83 125//95
f 125//95 121//83 207//151
f 126//152 124//89 127//88
f 79//93 135//106 127//88
f 126//152 127//88 135//106
f 129//153 130//94 128//92
f 129//153 128//92 125//95
f 129//153 125//95 208//154
f 132//155 131//156 129//153
f 209//157 126//152 212//158
f 131//156 130//94 129//153
f 130//94 133//102 75//99
f 134//159 133//102 131//156
f 75//99 72//91 130//94
f 133//102 130//94 131//156
f 132//155 134//159 131//156
f 210//160 215//161 132//155
f 126//152 135//106 137//162
f 212//158 126//152 137//162
f 142//163 212//158 137//162
f 138//103 133//102 139//164
f 133//102 134//159 139//164
f 134//159 132//155 215//161
f 134//159 215//161 139//164
f 212//158 142//163 218//165
f 137//162 135//106 136//166
f 142//163 137//162 136//166
f 142//163 136//166 141//167
f 141//167 136//166 135//106
f 144//105 138//103 145//168
f 138//103 139//164 145//168
f 140//112 135//106 82//109
f 140//112 141//167 135//106
f 217//169 142//163 141//167
f 141//167 140//112 143//170
f 217//169 141//167 220//171
f 220//171 141//167 143//170
f 146//172 147//173 149//111
f 147//173 146//172 154//174
f 140//112 147//173 143//170
f 148//175 147//173 154//174
f 143//170 147//173 148//175
f 143//170 148//175 220//171
f 148//175 158//176 220//171
f 147//173 140//112 149//111
f 150//177 146//172 149//111
f 161//178 150//177 149//111
f 151//179 150//177 161//178
f 152//180 154//174 146//172
f 150//177 152//180 146//172
f 152//180 150//177 153//181
f 150//177 151//179 153//181
f 153//181 151//179 167//182
f 151//179 162//183 167//182
f 167//182 169//184 153//181
f 148//175 154//174 155//185
f 155//185 154//174 152//180
f 159//186 155//185 156//187
f 155//185 152//180 156//187
f 152//180 153//181 156//187
f 157//188 156//187 153//181
f 169//184 157//188 153//181
f 171//189 157//188 169//184
f 158//176 148//175 155//185
f 155//185 159//186 158//176
f 159//186 156//187 226//190
f 160//191 226//190 156//187
f 157//188 160//191 156//187
f 171//189 160//191 157//188
f 158//176 159//186 227//192
f 227//192 159//186 226//190
f 240//193 226//190 160//191
f 149//111 85//113 161//178
f 85//113 89//116 161//178
f 89//116 162//183 161//178
f 174//194 89//116 163//117
f 174//194 162//183 89//116
f 151//179 161//178 162//183
f 174//194 167//182 162//183
f 87//115 163//117 90//114
f 165//195 183//196 88//110
f 163//117 88//110 180//197
f 183//196 180//197 88//110
f 88//110 164//198 165//195
f 144//105 164//198 88//110
f 144//105 145//168 164//198
f 165//195 164//198 166//199
f 145//168 234//200 164//198
f 234//200 166//199 164//198
f 168//201 169//184 167//182
f 169//184 168//201 170//202
f 170//202 171//189 169//184
f 172//203 171//189 170//202
f 172//203 170//202 173//204
f 173//204 170//202 176//205
f 178//206 173//204 176//205
f 239//207 173//204 178//206
f 171//189 237//208 160//191
f 237//208 171//189 172//203
f 173//204 239//207 238//209
f 168//201 167//182 174//194
f 174//194 163//117 175//210
f 174//194 175//210 168//201
f 176//205 170//202 168//201
f 175//210 176//205 168//201
f 176//205 175//210 177//211
f 176//205 177//211 178//206
f 178//206 177//211 250//212
f 250//212 177//211 179//213
f 250//212 179//213 252//214
f 252//214 179//213 260//215
f 180//197 175//210 163//117
f 175//210 180//197 181//216
f 175//210 181//216 177//211
f 181//216 180//197 183//196
f 181//216 183//196 182//217
f 177//211 181//216 179//213
f 179//213 181//216 182//217
f 182//217 183//196 258//218
f 183//196 165//195 166//199
f 166//199 234//200 268//219
f 183//196 166//199 258//218
f 188//220 186//121 269//221
f 91//118 185//123 92//119
f 91//118 186//121 185//123
f 188//220 185//123 186//121
f 189//222 187//223 190//224
f 185//123 187//223 189//222
f 187//223 185//123 188//220
f 188//220 270//225 187//223
f 93//122 184//226 94//42
f 94//42 184//226 95//126
f 184//226 191//124 95//126
f 185//123 189//222 93//122
f 189//222 184//226 93//122
f 189//222 190//224 184//226
f 184//226 190//224 191//124
f 191//124 272//227 192//125
f 97//127 194//228 98//128
f 97//127 192//125 193//229
f 193//229 194//228 97//127
f 192//125 272//227 193//229
f 104//129 98//128 194//228
f 195//131 269//221 186//121
f 195//131 273//230 269//221
f 277//231 104//129 274//232
f 277//231 197//136 104//129
f 196//135 197//136 278//233
f 277//231 278//233 197//136
f 280//234 198//130 284//235
f 202//236 201//141 282//237
f 278//233 199//138 196//135
f 282//237 201//141 199//138
f 199//138 278//233 283//238
f 198//130 111//55 284//235
f 202//236 200//142 201//141
f 200//142 202//236 285//239
f 285//239 110//143 200//142
f 111//55 286//145 351//240
f 285//239 205//148 110//143
f 354//241 205//148 285//239
f 207//151 205//148 354//241
f 120//72 203//147 205//148
f 120//72 205//148 121//83
f 207//151 121//83 205//148
f 206//242 123//150 126//152
f 287//243 206//242 126//152
f 286//145 204//149 123//150
f 123//150 124//89 126//152
f 286//145 123//150 206//242
f 288//244 207//151 354//241
f 207//151 288//244 208//154
f 208//154 125//95 207//151
f 290//245 129//153 208//154
f 291//246 289//247 209//157
f 129//153 290//245 210//160
f 126//152 209//157 289//247
f 129//153 210//160 132//155
f 209//157 212//158 211//248
f 211//248 292//249 209//157
f 309//250 215//161 210//160
f 211//248 212//158 213//251
f 213//251 298//252 211//248
f 213//251 311//253 298//252
f 311//253 213//251 315//254
f 309//250 216//255 215//161
f 306//256 216//255 309//250
f 313//257 216//255 306//256
f 217//169 218//165 142//163
f 218//165 213//251 212//158
f 139//164 215//161 214//258
f 216//255 214//258 215//161
f 224//259 214//258 216//255
f 218//165 217//169 222//260
f 219//261 213//251 218//165
f 222//260 219//261 218//165
f 222//260 319//262 219//261
f 219//261 319//262 213//251
f 139//164 214//258 223//263
f 217//169 220//171 222//260
f 221//264 222//260 220//171
f 222//260 221//264 319//262
f 221//264 225//265 319//262
f 223//263 236//266 139//164
f 224//259 236//266 223//263
f 224//259 223//263 214//258
f 221//264 220//171 229//267
f 221//264 229//267 225//265
f 236//266 224//259 313//257
f 220//171 158//176 227//192
f 227//192 226//190 228//268
f 228//268 226//190 240//193
f 237//208 240//193 160//191
f 227//192 229//267 220//171
f 227//192 228//268 229//267
f 244//269 228//268 240//193
f 228//268 230//270 229//267
f 244//269 230//270 228//268
f 229//267 230//270 231//271
f 230//270 232//272 231//271
f 230//270 244//269 232//272
f 231//271 225//265 229//267
f 231//271 232//272 233//273
f 225//265 231//271 322//274
f 322//274 231//271 326//275
f 235//276 268//219 234//200
f 234//200 236//266 235//276
f 236//266 324//277 235//276
f 234//200 145//168 139//164
f 234//200 139//164 236//266
f 236//266 313//257 324//277
f 237//208 172//203 241//278
f 172//203 238//209 241//278
f 173//204 238//209 172//203
f 240//193 237//208 241//278
f 242//279 241//278 238//209
f 240//193 241//278 245//280
f 243//281 242//279 238//209
f 239//207 243//281 238//209
f 253//282 243//281 239//207
f 244//269 240//193 245//280
f 245//280 241//278 242//279
f 246//283 245//280 242//279
f 243//281 246//283 242//279
f 246//283 243//281 248//284
f 243//281 253//282 248//284
f 247//285 245//280 246//283
f 248//284 247//285 246//283
f 247//285 249//286 245//280
f 247//285 248//284 256//287
f 249//286 232//272 244//269
f 245//280 249//286 244//269
f 232//272 249//286 233//273
f 233//273 249//286 328//288
f 328//288 249//286 247//285
f 328//288 247//285 256//287
f 178//206 250//212 239//207
f 253//282 239//207 251//289
f 239//207 250//212 251//289
f 251//289 250//212 252//214
f 251//289 252//214 254//290
f 253//282 251//289 254//290
f 254//290 248//284 253//282
f 254//290 252//214 255//291
f 252//214 261//292 255//291
f 255//291 261//292 264//293
f 257//294 256//287 248//284
f 257//294 248//284 254//290
f 254//290 255//291 257//294
f 256//287 329//295 328//288
f 256//287 257//294 329//295
f 182//217 259//296 260//215
f 182//217 258//218 259//296
f 182//217 260//215 179//213
f 259//296 258//218 266//297
f 252//214 260//215 261//292
f 261//292 260//215 262//298
f 262//298 260//215 259//296
f 267//299 263//300 266//297
f 266//297 263//300 259//296
f 263//300 262//298 259//296
f 263//300 264//293 262//298
f 261//292 262//298 264//293
f 267//299 265//301 263//300
f 264//293 257//294 255//291
f 235//276 324//277 265//301
f 267//299 235//276 265//301
f 264//293 265//301 257//294
f 263//300 265//301 264//293
f 257//294 265//301 329//295
f 166//199 266//297 258//218
f 268//219 266//297 166//199
f 235//276 267//299 268//219
f 268//219 267//299 266//297
f 270//225 188//220 269//221
f 331//302 269//221 273//230
f 269//221 331//302 270//225
f 187//223 270//225 190//224
f 190//224 332//303 271//304
f 190//224 270//225 332//303
f 190//224 271//304 191//124
f 333//305 272//227 271//304
f 271//304 272//227 191//124
f 193//229 272//227 275//306
f 336//307 275//306 272//227
f 274//232 194//228 193//229
f 274//232 104//129 194//228
f 193//229 275//306 274//232
f 275//306 339//308 274//232
f 339//308 341//309 274//232
f 274//232 341//309 277//231
f 280//234 281//310 276//311
f 342//312 276//311 281//310
f 276//311 198//130 280//234
f 334//313 273//230 195//131
f 276//311 195//131 198//130
f 195//131 276//311 334//313
f 277//231 279//314 278//233
f 341//309 279//314 277//231
f 344//315 278//233 279//314
f 341//309 344//315 279//314
f 281//310 280//234 284//235
f 281//310 348//316 345//317
f 342//312 281//310 345//317
f 282//237 199//138 283//238
f 283//238 278//233 343//318
f 347//319 282//237 283//238
f 283//238 343//318 347//319
f 349//320 348//316 284//235
f 281//310 284//235 348//316
f 282//237 350//321 202//236
f 350//321 285//239 202//236
f 349//320 284//235 351//240
f 284//235 111//55 351//240
f 352//322 351//240 286//145
f 352//322 286//145 353//323
f 286//145 206//242 287//243
f 286//145 287//243 353//323
f 289//247 432//324 287//243
f 126//152 289//247 287//243
f 289//247 435//325 432//324
f 288//244 290//245 208//154
f 433//326 290//245 288//244
f 355//327 289//247 291//246
f 355//327 291//246 359//328
f 292//249 291//246 209//157
f 293//329 291//246 292//249
f 293//329 292//249 294//330
f 359//328 291//246 293//329
f 293//329 294//330 295//331
f 359//328 293//329 295//331
f 294//330 296//332 295//331
f 295//331 360//333 359//328
f 290//245 297//334 210//160
f 297//334 290//245 433//326
f 363//335 297//334 433//326
f 298//252 292//249 211//248
f 292//249 298//252 299//336
f 299//336 294//330 292//249
f 294//330 299//336 296//332
f 297//334 309//250 210//160
f 310//337 309//250 297//334
f 311//253 299//336 298//252
f 296//332 376//338 369//339
f 369//339 300//340 378//341
f 373//342 378//341 301//343
f 378//341 300//340 301//343
f 373//342 301//343 379//344
f 301//343 300//340 305//345
f 379//344 301//343 302//346
f 301//343 305//345 302//346
f 300//340 376//338 305//345
f 302//346 305//345 304//347
f 302//346 304//347 379//344
f 379//344 303//348 381//349
f 304//347 303//348 379//344
f 314//350 303//348 304//347
f 310//337 306//256 309//250
f 310//337 307//351 306//256
f 306//256 307//351 308//352
f 303//348 314//350 388//353
f 375//354 307//351 310//337
f 314//350 308//352 388//353
f 316//355 299//336 311//253
f 315//254 316//355 311//253
f 299//336 316//355 296//332
f 296//332 316//355 317//356
f 376//338 312//357 305//345
f 305//345 312//357 304//347
f 314//350 304//347 312//357
f 313//257 224//259 216//255
f 314//350 313//257 306//256
f 308//352 314//350 306//256
f 316//355 320//358 317//356
f 296//332 317//356 376//338
f 376//338 317//356 318//359
f 312//357 313//257 314//350
f 213//251 319//262 315//254
f 315//254 319//262 316//355
f 317//356 325//360 318//359
f 320//358 321//361 317//356
f 317//356 321//361 325//360
f 376//338 318//359 312//357
f 325//360 312//357 318//359
f 320//358 319//262 322//274
f 316//355 319//262 320//358
f 324//277 313//257 312//357
f 319//262 225//265 322//274
f 323//362 330//363 325//360
f 321//361 323//362 325//360
f 325//360 324//277 312//357
f 326//275 231//271 233//273
f 326//275 233//273 328//288
f 322//274 326//275 320//358
f 327//364 326//275 328//288
f 321//361 320//358 327//364
f 321//361 327//364 323//362
f 323//362 327//364 330//363
f 320//358 326//275 327//364
f 330//363 324//277 325//360
f 330//363 328//288 329//295
f 329//295 265//301 330//363
f 324//277 330//363 265//301
f 327//364 328//288 330//363
f 270//225 331//302 332//303
f 333//305 271//304 332//303
f 404//365 333//305 332//303
f 406//366 333//305 404//365
f 409//367 333//305 406//366
f 272//227 333//305 335//368
f 334//313 405//369 331//302
f 425//370 334//313 342//312
f 331//302 273//230 334//313
f 409//367 415//371 335//368
f 409//367 335//368 333//305
f 415//371 336//307 335//368
f 335//368 336//307 272//227
f 275//306 337//372 339//308
f 337//372 275//306 336//307
f 336//307 338//373 337//372
f 337//372 338//373 339//308
f 338//373 336//307 414//374
f 340//375 341//309 339//308
f 340//375 339//308 338//373
f 338//373 420//376 340//375
f 424//377 341//309 340//375
f 346//378 425//370 342//312
f 342//312 334//313 276//311
f 424//377 344//315 341//309
f 426//379 344//315 424//377
f 426//379 278//233 344//315
f 343//318 278//233 426//379
f 346//378 342//312 345//317
f 427//380 346//378 345//317
f 350//321 282//237 347//319
f 348//316 349//320 427//380
f 345//317 348//316 427//380
f 350//321 347//319 480//381
f 558//382 350//321 480//381
f 349//320 351//240 352//322
f 352//322 427//380 349//320
f 558//382 285//239 350//321
f 353//323 287//243 487//383
f 430//384 288//244 354//241
f 433//326 288//244 430//384
f 432//324 431//385 287//243
f 435//325 355//327 359//328
f 355//327 435//325 289//247
f 359//328 356//386 435//325
f 358//387 435//325 356//386
f 357//388 358//387 356//386
f 357//388 356//386 361//389
f 438//390 358//387 357//388
f 357//388 361//389 438//390
f 438//390 436//391 358//387
f 360//333 356//386 359//328
f 367//392 360//333 365//393
f 361//389 356//386 360//333
f 360//333 362//394 361//389
f 367//392 362//394 360//333
f 439//395 736//396 738//397
f 361//389 362//394 438//390
f 438//390 736//396 439//395
f 363//335 310//337 297//334
f 737//398 360//333 295//331
f 364//399 439//395 738//397
f 295//331 296//332 737//398
f 737//398 296//332 370//400
f 366//401 367//392 365//393
f 371//402 366//401 365//393
f 371//402 365//393 739//403
f 371//402 367//392 366//401
f 364//399 738//397 740//404
f 368//405 364//399 740//404
f 370//400 296//332 369//339
f 372//406 369//339 378//341
f 372//406 374//407 739//403
f 372//406 370//400 369//339
f 371//402 739//403 374//407
f 383//408 740//404 741//409
f 740//404 383//408 368//405
f 378//341 373//342 372//406
f 372//406 373//342 374//407
f 363//335 375//354 310//337
f 375//354 363//335 441//410
f 446//411 396//412 375//354
f 441//410 446//411 375//354
f 368//405 401//413 364//399
f 401//413 439//395 364//399
f 369//339 376//338 300//340
f 368//405 383//408 377//414
f 387//415 383//408 384//416
f 383//408 387//415 377//414
f 377//414 387//415 402//417
f 373//342 379//344 380//418
f 380//418 379//344 381//349
f 381//349 303//348 382//419
f 382//419 303//348 388//353
f 390//420 382//419 388//353
f 743//421 742//422 373//342
f 743//421 373//342 380//418
f 743//421 380//418 381//349
f 743//421 381//349 382//419
f 385//423 743//421 382//419
f 382//419 390//420 385//423
f 384//416 383//408 741//409
f 744//424 746//425 386//426
f 386//426 387//415 745//427
f 402//417 387//415 403//428
f 386//426 403//428 387//415
f 392//429 307//351 375//354
f 308//352 307//351 389//430
f 392//429 389//430 307//351
f 388//353 391//431 390//420
f 388//353 308//352 391//431
f 389//430 391//431 308//352
f 375//354 396//412 392//429
f 389//430 394//432 391//431
f 395//433 394//432 389//430
f 395//433 389//430 392//429
f 385//423 390//420 393//434
f 390//420 391//431 393//434
f 391//431 394//432 393//434
f 396//412 395//433 392//429
f 394//432 395//433 398//435
f 386//426 746//425 393//434
f 398//435 393//434 394//432
f 393//434 398//435 397//436
f 386//426 393//434 397//436
f 395//433 396//412 398//435
f 399//437 398//435 396//412
f 386//426 397//436 403//428
f 397//436 398//435 403//428
f 398//435 399//437 403//428
f 452//438 451//439 401//413
f 400//440 452//438 401//413
f 401//413 368//405 400//440
f 368//405 377//414 400//440
f 377//414 453//441 400//440
f 453//441 377//414 402//417
f 402//417 403//428 448//442
f 331//302 404//365 332//303
f 404//365 331//302 405//369
f 404//365 405//369 467//443
f 410//444 409//367 406//366
f 406//366 404//365 468//445
f 406//366 468//445 407//446
f 410//444 406//366 407//446
f 469//447 407//446 468//445
f 469//447 410//444 407//446
f 334//313 425//370 405//369
f 411//448 415//371 409//367
f 410//444 411//448 409//367
f 410//444 412//449 747//450
f 413//451 418//452 747//450
f 413//451 470//453 418//452
f 413//451 747//450 412//449
f 470//453 412//449 469//447
f 412//449 410//444 469//447
f 414//374 336//307 748//454
f 748//454 416//455 414//374
f 418//452 417//456 416//455
f 416//455 417//456 414//374
f 416//455 748//454 418//452
f 748//454 747//450 418//452
f 470//453 419//457 417//456
f 414//374 417//456 419//457
f 418//452 470//453 417//456
f 420//376 338//373 414//374
f 414//374 423//458 420//376
f 408//459 414//374 419//457
f 423//458 414//374 408//459
f 422//460 421//461 420//376
f 420//376 421//461 340//375
f 421//461 424//377 340//375
f 422//460 420//376 423//458
f 422//460 424//377 421//461
f 472//462 424//377 422//460
f 423//458 472//462 422//460
f 426//379 424//377 472//462
f 548//463 425//370 346//378
f 426//379 473//464 343//318
f 473//464 347//319 343//318
f 346//378 427//380 479//465
f 548//463 346//378 479//465
f 553//466 548//463 479//465
f 427//380 352//322 428//467
f 481//468 427//380 428//467
f 428//467 352//322 485//469
f 485//469 352//322 353//323
f 487//383 485//469 353//323
f 486//470 285//239 558//382
f 486//470 354//241 285//239
f 429//471 430//384 354//241
f 486//470 429//471 354//241
f 562//472 429//471 486//470
f 489//473 430//384 429//471
f 487//383 287//243 431//385
f 431//385 432//324 492//474
f 489//473 433//326 430//384
f 492//474 432//324 434//475
f 434//475 432//324 435//325
f 493//476 433//326 491//477
f 437//478 436//391 439//395
f 436//391 434//475 358//387
f 434//475 436//391 437//478
f 434//475 437//478 492//474
f 434//475 435//325 358//387
f 436//391 438//390 439//395
f 433//326 493//476 440//479
f 443//480 441//410 440//479
f 433//326 440//479 363//335
f 440//479 441//410 363//335
f 493//476 443//480 440//479
f 401//413 451//439 439//395
f 444//481 439//395 451//439
f 441//410 443//480 442//482
f 441//410 442//482 446//411
f 442//482 497//483 446//411
f 495//484 442//482 443//480
f 444//481 447//485 498//486
f 447//485 444//481 451//439
f 445//487 399//437 396//412
f 446//411 445//487 396//412
f 497//483 445//487 446//411
f 448//442 403//428 399//437
f 399//437 445//487 449//488
f 450//489 447//485 451//439
f 402//417 454//490 453//441
f 448//442 454//490 402//417
f 448//442 510//491 454//490
f 399//437 449//488 448//442
f 448//442 449//488 510//491
f 455//492 451//439 459//493
f 450//489 451//439 455//492
f 450//489 455//492 505//494
f 400//440 453//441 452//438
f 452//438 453//441 458//495
f 452//438 459//493 451//439
f 464//496 454//490 510//491
f 459//493 456//497 457//498
f 457//498 456//497 462//499
f 459//493 457//498 455//492
f 452//438 458//495 459//493
f 459//493 458//495 456//497
f 456//497 458//495 461//500
f 458//495 460//501 461//500
f 453//441 460//501 458//495
f 453//441 454//490 460//501
f 463//502 460//501 454//490
f 463//502 454//490 464//496
f 462//499 456//497 461//500
f 463//502 465//503 461//500
f 513//504 457//498 462//499
f 460//501 463//502 461//500
f 465//503 463//502 464//496
f 465//503 464//496 525//505
f 462//499 461//500 466//506
f 466//506 461//500 465//503
f 462//499 466//506 524//507
f 527//508 524//507 466//506
f 526//509 466//506 465//503
f 467//443 468//445 404//365
f 467//443 541//510 468//445
f 467//443 405//369 547//511
f 618//512 541//510 467//443
f 618//512 467//443 547//511
f 468//445 541//510 621//513
f 621//513 542//514 468//445
f 469//447 542//514 470//453
f 469//447 468//445 542//514
f 419//457 470//453 408//459
f 423//458 471//515 472//462
f 471//515 423//458 408//459
f 544//516 472//462 471//515
f 471//515 408//459 543//517
f 547//511 405//369 425//370
f 413//451 412//449 470//453
f 472//462 544//516 426//379
f 546//518 474//519 426//379
f 474//519 473//464 426//379
f 546//518 426//379 544//516
f 425//370 548//463 547//511
f 473//464 476//520 347//319
f 473//464 474//519 475//521
f 475//521 476//520 473//464
f 474//519 549//522 475//521
f 475//521 551//523 550//524
f 551//523 475//521 549//522
f 476//520 478//525 347//319
f 477//526 478//525 476//520
f 550//524 476//520 475//521
f 550//524 477//526 476//520
f 477//526 554//527 478//525
f 478//525 480//381 347//319
f 427//380 481//468 479//465
f 556//528 479//465 481//468
f 478//525 558//382 480//381
f 478//525 554//527 558//382
f 482//529 481//468 428//467
f 483//530 482//529 428//467
f 482//529 483//530 484//531
f 483//530 428//467 485//469
f 484//531 483//530 485//469
f 482//529 484//531 557//532
f 560//533 557//532 484//531
f 560//533 484//531 485//469
f 562//472 486//470 558//382
f 488//534 485//469 487//383
f 563//535 488//534 487//383
f 490//536 563//535 487//383
f 491//477 489//473 653//537
f 431//385 490//536 487//383
f 490//536 431//385 564//538
f 490//536 565//539 563//535
f 564//538 565//539 490//536
f 431//385 492//474 564//538
f 489//473 491//477 433//326
f 494//540 491//477 569//541
f 494//540 493//476 491//477
f 571//542 494//540 569//541
f 494//540 495//484 493//476
f 492//474 437//478 496//543
f 495//484 443//480 493//476
f 437//478 439//395 444//481
f 496//543 437//478 444//481
f 496//543 444//481 498//486
f 577//544 573//545 496//543
f 577//544 496//543 498//486
f 579//546 573//545 577//544
f 442//482 495//484 497//483
f 495//484 575//547 497//483
f 577//544 498//486 500//548
f 498//486 447//485 499//549
f 498//486 499//549 500//548
f 497//483 449//488 445//487
f 497//483 501//550 449//488
f 575//547 501//550 497//483
f 447//485 450//489 499//549
f 503//551 449//488 501//550
f 501//550 504//552 503//551
f 502//553 504//552 501//550
f 575//547 502//553 501//550
f 575//547 578//554 502//553
f 499//549 450//489 505//494
f 500//548 499//549 508//555
f 449//488 511//556 510//491
f 503//551 511//556 449//488
f 504//552 511//556 503//551
f 580//557 504//552 578//554
f 580//557 506//558 504//552
f 578//554 504//552 502//553
f 580//557 578//554 585//559
f 508//555 499//549 507//560
f 511//556 504//552 506//558
f 505//494 455//492 457//498
f 505//494 457//498 513//504
f 499//549 505//494 507//560
f 507//560 505//494 513//504
f 508//555 507//560 514//561
f 507//560 513//504 514//561
f 514//561 590//562 508//555
f 509//563 516//564 511//556
f 506//558 596//565 509//563
f 510//491 516//564 464//496
f 510//491 511//556 516//564
f 509//563 511//556 506//558
f 585//559 596//565 506//558
f 513//504 462//499 512//566
f 518//567 513//504 512//566
f 515//568 514//561 513//504
f 518//567 515//568 513//504
f 590//562 514//561 597//569
f 514//561 515//568 597//569
f 525//505 516//564 532//570
f 532//570 596//565 535//571
f 464//496 516//564 525//505
f 509//563 532//570 516//564
f 596//565 532//570 509//563
f 462//499 524//507 512//566
f 524//507 518//567 512//566
f 517//572 518//567 524//507
f 517//572 530//573 519//574
f 521//575 518//567 517//572
f 521//575 517//572 522//576
f 517//572 519//574 522//576
f 522//576 519//574 523//577
f 523//577 519//574 533//578
f 520//579 515//568 518//567
f 520//579 518//567 521//575
f 597//569 515//568 520//579
f 597//569 520//579 598//580
f 521//575 598//580 520//579
f 599//581 598//580 521//575
f 521//575 522//576 599//581
f 522//576 600//582 599//581
f 600//582 522//576 523//577
f 528//583 527//508 466//506
f 526//509 528//583 466//506
f 526//509 465//503 525//505
f 527//508 517//572 524//507
f 525//505 529//584 526//509
f 525//505 532//570 529//584
f 530//573 517//572 527//508
f 528//583 526//509 529//584
f 527//508 528//583 530//573
f 530//573 528//583 531//585
f 531//585 528//583 529//584
f 519//574 530//573 533//578
f 530//573 531//585 533//578
f 533//578 531//585 534//586
f 531//585 529//584 534//586
f 532//570 534//586 529//584
f 535//571 534//586 532//570
f 523//577 533//578 606//587
f 606//587 534//586 535//571
f 533//578 534//586 606//587
f 543//517 536//588 537//589
f 408//459 470//453 536//588
f 536//588 539//590 537//589
f 609//591 536//588 470//453
f 539//590 538//592 537//589
f 540//593 538//592 539//590
f 539//590 616//594 540//593
f 541//510 618//512 621//513
f 542//514 609//591 470//453
f 543//517 408//459 536//588
f 538//592 471//515 543//517
f 537//589 538//592 543//517
f 538//592 544//516 471//515
f 545//595 546//518 544//516
f 540//593 544//516 538//592
f 544//516 540//593 545//595
f 625//596 540//593 616//594
f 540//593 625//596 545//595
f 626//597 546//518 545//595
f 546//518 626//597 627//598
f 627//598 631//599 546//518
f 635//600 547//511 548//463
f 548//463 553//466 636//601
f 546//518 549//522 474//519
f 631//599 549//522 546//518
f 640//602 549//522 631//599
f 551//523 549//522 640//602
f 640//602 642//603 551//523
f 642//603 552//604 551//523
f 550//524 554//527 477//526
f 552//604 554//527 550//524
f 551//523 552//604 550//524
f 642//603 643//605 645//606
f 642//603 645//606 552//604
f 556//528 553//466 479//465
f 556//528 636//601 553//466
f 636//601 556//528 641//607
f 554//527 552//604 646//608
f 645//606 646//608 552//604
f 556//528 481//468 555//609
f 555//609 481//468 482//529
f 555//609 644//610 556//528
f 644//610 555//609 559//611
f 555//609 482//529 557//532
f 557//532 561//612 559//611
f 557//532 559//611 555//609
f 646//608 558//382 554//527
f 557//532 560//533 561//612
f 488//534 560//533 485//469
f 561//612 560//533 488//534
f 646//608 562//472 558//382
f 563//535 561//612 488//534
f 563//535 649//613 561//612
f 559//611 561//612 649//613
f 489//473 429//471 562//472
f 567//614 654//615 563//535
f 570//616 564//538 492//474
f 570//616 565//539 564//538
f 566//617 565//539 570//616
f 563//535 565//539 567//614
f 565//539 566//617 567//614
f 653//537 569//541 491//477
f 658//618 569//541 653//537
f 658//618 661//619 569//541
f 666//620 566//617 570//616
f 568//621 569//541 661//619
f 568//621 572//622 569//541
f 661//619 665//623 568//621
f 666//620 570//616 672//624
f 566//617 666//620 662//625
f 665//623 572//622 568//621
f 570//616 492//474 573//545
f 571//542 569//541 572//622
f 575//547 571//542 572//622
f 665//623 679//626 572//622
f 573//545 492//474 496//543
f 570//616 573//545 672//624
f 571//542 495//484 494//540
f 576//627 575//547 572//622
f 574//628 576//627 572//622
f 679//626 574//628 572//622
f 571//542 575//547 495//484
f 578//554 576//627 574//628
f 578//554 575//547 576//627
f 579//546 577//544 500//548
f 672//624 573//545 579//546
f 672//624 579//546 675//629
f 579//546 500//548 581//630
f 585//559 578//554 574//628
f 508//555 586//631 500//548
f 581//630 500//548 586//631
f 587//632 581//630 586//631
f 587//632 582//633 581//630
f 582//633 587//632 680//634
f 582//633 579//546 581//630
f 582//633 680//634 579//546
f 583//635 681//636 680//634
f 681//636 583//635 584//637
f 682//638 589//639 585//559
f 574//628 682//638 585//559
f 580//557 585//559 506//558
f 508//555 590//562 586//631
f 590//562 591//640 586//631
f 591//640 587//632 586//631
f 591//640 593//641 587//632
f 587//632 593//641 680//634
f 680//634 593//641 583//635
f 583//635 593//641 595//642
f 583//635 595//642 584//637
f 589//639 596//565 585//559
f 591//640 590//562 597//569
f 591//640 597//569 592//643
f 592//643 593//641 591//640
f 593//641 592//643 604//644
f 604//644 594//645 593//641
f 593//641 594//645 595//642
f 595//642 594//645 584//637
f 584//637 594//645 588//646
f 594//645 589//639 588//646
f 596//565 589//639 535//571
f 601//647 592//643 598//580
f 598//580 592//643 597//569
f 601//647 598//580 599//581
f 602//648 601//647 599//581
f 600//582 602//648 599//581
f 600//582 523//577 603//649
f 602//648 603//649 605//650
f 600//582 603//649 602//648
f 592//643 601//647 604//644
f 601//647 602//648 604//644
f 602//648 605//650 604//644
f 594//645 604//644 605//650
f 589//639 594//645 605//650
f 523//577 606//587 603//649
f 535//571 605//650 606//587
f 589//639 605//650 535//571
f 606//587 605//650 603//649
f 607//651 542//514 621//513
f 608//652 611//653 607//651
f 622//654 608//652 621//513
f 621//513 608//652 607//651
f 609//591 607//651 610//655
f 542//514 607//651 609//591
f 607//651 611//653 610//655
f 611//653 612//656 610//655
f 612//656 611//653 684//657
f 685//658 612//656 684//657
f 615//659 612//656 685//658
f 688//660 684//657 611//653
f 609//591 613//661 536//588
f 536//588 613//661 539//590
f 616//594 539//590 613//661
f 613//661 614//662 616//594
f 609//591 614//662 613//661
f 614//662 617//663 616//594
f 610//655 614//662 609//591
f 612//656 614//662 610//655
f 615//659 617//663 614//662
f 615//659 623//664 617//663
f 614//662 612//656 615//659
f 625//596 616//594 617//663
f 618//512 619//665 621//513
f 547//511 620//666 618//512
f 619//665 618//512 620//666
f 619//665 622//654 621//513
f 622//654 686//667 689//668
f 619//665 686//667 622//654
f 689//668 608//652 622//654
f 623//664 624//669 617//663
f 624//669 694//670 630//671
f 624//669 623//664 693//672
f 693//672 694//670 624//669
f 695//673 694//670 693//672
f 625//596 626//597 545//595
f 617//663 628//674 625//596
f 628//674 626//597 625//596
f 626//597 628//674 629//675
f 626//597 629//675 627//598
f 631//599 627//598 629//675
f 624//669 628//674 617//663
f 630//671 629//675 628//674
f 630//671 628//674 624//669
f 630//671 633//676 629//675
f 638//677 547//511 635//600
f 547//511 638//677 620//666
f 696//678 620//666 638//677
f 620//666 686//667 619//665
f 629//675 632//679 631//599
f 632//679 629//675 633//676
f 633//676 634//680 632//679
f 631//599 632//679 640//602
f 635//600 548//463 636//601
f 637//681 635//600 636//601
f 637//681 636//601 641//607
f 635//600 637//681 638//677
f 703//682 637//681 641//607
f 641//607 709//683 703//682
f 638//677 637//681 703//682
f 640//602 632//679 634//680
f 634//680 639//684 640//602
f 639//684 643//605 642//603
f 640//602 639//684 642//603
f 639//684 715//685 643//605
f 641//607 710//686 709//683
f 644//610 641//607 556//528
f 715//685 717//687 643//605
f 644//610 559//611 714//688
f 648//689 646//608 717//687
f 643//605 717//687 645//606
f 717//687 646//608 645//606
f 559//611 647//690 714//688
f 647//690 559//611 655//691
f 559//611 649//613 655//691
f 646//608 653//537 562//472
f 646//608 648//689 653//537
f 648//689 723//692 653//537
f 658//618 653//537 723//692
f 655//691 656//693 657//694
f 647//690 655//691 657//694
f 657//694 650//695 647//690
f 650//695 657//694 651//696
f 720//697 651//696 652//698
f 652//698 661//619 658//618
f 658//618 719//699 652//698
f 562//472 653//537 489//473
f 719//699 658//618 723//692
f 563//535 654//615 649//613
f 655//691 649//613 654//615
f 652//698 651//696 661//619
f 651//696 657//694 661//619
f 654//615 567//614 659//700
f 567//614 566//617 662//625
f 659//700 567//614 662//625
f 662//625 663//701 659//700
f 659//700 663//701 655//691
f 654//615 659//700 655//691
f 656//693 655//691 663//701
f 656//693 664//702 660//703
f 657//694 656//693 660//703
f 661//619 657//694 665//623
f 663//701 662//625 667//704
f 656//693 663//701 671//705
f 671//705 663//701 670//706
f 671//705 668//707 664//702
f 664//702 668//707 665//623
f 656//693 671//705 664//702
f 660//703 664//702 665//623
f 660//703 665//623 657//694
f 662//625 666//620 667//704
f 667//704 670//706 663//701
f 668//707 679//626 665//623
f 669//708 666//620 672//624
f 667//704 666//620 669//708
f 671//705 679//626 668//707
f 667//704 669//708 670//706
f 669//708 674//709 670//706
f 670//706 674//709 678//710
f 679//626 671//705 678//710
f 671//705 670//706 678//710
f 672//624 673//711 669//708
f 669//708 673//711 674//709
f 675//629 673//711 672//624
f 675//629 676//712 673//711
f 673//711 676//712 674//709
f 674//709 677//713 678//710
f 674//709 676//712 677//713
f 677//713 676//712 681//636
f 677//713 681//636 683//714
f 678//710 677//713 679//626
f 677//713 683//714 679//626
f 679//626 683//714 682//638
f 679//626 682//638 574//628
f 675//629 579//546 680//634
f 675//629 680//634 676//712
f 680//634 681//636 676//712
f 683//714 584//637 588//646
f 682//638 588//646 589//639
f 681//636 584//637 683//714
f 683//714 588//646 682//638
f 691//715 684//657 688//660
f 685//658 692//716 615//659
f 686//667 687//717 689//668
f 608//652 688//660 611//653
f 608//652 689//668 688//660
f 691//715 688//660 690//718
f 689//668 690//718 688//660
f 690//718 689//668 687//717
f 691//715 690//718 698//719
f 684//657 691//715 685//658
f 685//658 691//715 692//716
f 615//659 693//672 623//664
f 692//716 693//672 615//659
f 695//673 693//672 692//716
f 701//720 695//673 692//716
f 620//666 696//678 686//667
f 696//678 697//721 687//717
f 686//667 696//678 687//717
f 697//721 690//718 687//717
f 698//719 690//718 697//721
f 691//715 699//722 692//716
f 699//722 701//720 692//716
f 702//723 630//671 694//670
f 702//723 694//670 700//724
f 708//725 702//723 700//724
f 700//724 695//673 701//720
f 694//670 695//673 700//724
f 702//723 633//676 630//671
f 634//680 633//676 702//723
f 702//723 708//725 634//680
f 696//678 638//677 703//682
f 696//678 703//682 704//726
f 709//683 704//726 703//682
f 704//726 697//721 696//678
f 711//727 704//726 709//683
f 697//721 704//726 705//728
f 704//726 711//727 712//729
f 704//726 712//729 705//728
f 697//721 705//728 698//719
f 698//719 705//728 712//729
f 699//722 706//730 701//720
f 706//730 707//731 701//720
f 728//732 707//731 706//730
f 708//725 713//733 715//685
f 701//720 707//731 700//724
f 700//724 707//731 708//725
f 708//725 707//731 713//733
f 728//732 713//733 707//731
f 639//684 634//680 708//725
f 715//685 639//684 708//725
f 710//686 641//607 644//610
f 710//686 644//610 714//688
f 709//683 710//686 711//727
f 710//686 714//688 711//727
f 712//729 711//727 714//688
f 731//734 728//732 732//735
f 716//736 715//685 713//733
f 728//732 731//734 713//733
f 731//734 716//736 713//733
f 717//687 715//685 716//736
f 734//737 724//738 731//734
f 716//736 648//689 717//687
f 724//738 716//736 731//734
f 724//738 648//689 716//736
f 722//739 733//740 714//688
f 647//690 722//739 714//688
f 647//690 650//695 722//739
f 722//739 650//695 651//696
f 651//696 720//697 722//739
f 720//697 719//699 721//741
f 723//692 721//741 719//699
f 718//742 721//741 734//737
f 718//742 733//740 722//739
f 718//742 722//739 720//697
f 718//742 720//697 721//741
f 723//692 648//689 724//738
f 723//692 724//738 721//741
f 734//737 721//741 724//738
f 719//699 720//697 652//698
f 699//722 691//715 698//719
f 698//719 725//743 699//722
f 725//743 727//744 706//730
f 725//743 706//730 699//722
f 706//730 727//744 728//732
f 712//729 726//745 698//719
f 712//729 733//740 726//745
f 698//719 726//745 725//743
f 725//743 726//745 729//746
f 726//745 733//740 729//746
f 725//743 729//746 727//744
f 727//744 732//735 728//732
f 712//729 714//688 733//740
f 735//747 729//746 733//740
f 729//746 730//748 727//744
f 734//737 731//734 732//735
f 730//748 732//735 727//744
f 732//735 730//748 734//737
f 729//746 735//747 730//748
f 730//748 735//747 734//737
f 734//737 735//747 718//742
f 735//747 733//740 718//742
