# Blender 4.0.2
# www.blender.org
mtllib skull_left_upper_central_incisor_tooth.mtl
o skull_left_upper_central_incisor_tooth
v 0.103434 -0.025989 -0.000005
v 0.103825 -0.026439 -0.000075
v 0.102899 -0.025319 -0.000024
v 0.103047 -0.025249 0.000072
v 0.103655 -0.025879 0.000057
v 0.104152 -0.025439 0.000064
v 0.103994 -0.026149 -0.000011
v 0.102685 -0.023919 0.000227
v 0.104441 -0.024989 0.000040
v 0.101408 -0.022389 0.000044
v 0.102126 -0.023339 0.000136
v 0.103348 -0.023459 0.000356
v 0.104117 -0.023619 0.000253
v 0.104456 -0.023609 0.000146
v 0.101028 -0.021469 0.000151
v 0.101371 -0.021419 0.000317
v 0.102481 -0.022269 0.000417
v 0.100728 -0.019799 0.000332
v 0.100194 -0.019639 0.000107
v 0.101179 -0.020549 0.000384
v 0.100744 -0.020539 0.000254
v 0.102047 -0.020629 0.000478
v 0.103190 -0.021479 0.000484
v 0.101010 -0.019379 0.000380
v 0.103413 -0.020209 0.000400
v 0.103858 -0.021029 0.000361
v 0.103946 -0.020439 0.000244
v 0.104257 -0.021039 0.000115
v 0.102183 -0.019409 0.000447
v 0.102075 -0.018619 0.000352
v 0.103491 -0.019549 0.000279
v 0.103648 -0.019229 0.000102
v 0.104084 -0.020089 0.000037
v 0.102819 -0.018649 0.000279
v 0.103168 -0.018369 0.000074
v 0.103647 -0.026979 -0.000923
v 0.103768 -0.027049 -0.000897
v 0.103174 -0.025889 -0.000108
v 0.103214 -0.026199 -0.000320
v 0.103307 -0.026529 -0.000678
v 0.103658 -0.026469 -0.000128
v 0.103743 -0.026639 -0.000219
v 0.103970 -0.026659 -0.000240
v 0.104165 -0.026479 -0.000213
v 0.103578 -0.026649 -0.000329
v 0.104190 -0.026629 -0.000347
v 0.103824 -0.026909 -0.000535
v 0.103996 -0.026889 -0.000539
v 0.103686 -0.026919 -0.000653
v 0.103930 -0.026989 -0.000705
v 0.104272 -0.026909 -0.000878
v 0.102346 -0.024649 -0.000294
v 0.102258 -0.024479 -0.000633
v 0.102790 -0.025509 -0.000337
v 0.102671 -0.025309 -0.000679
v 0.104456 -0.025889 -0.000180
v 0.104423 -0.026259 -0.000322
v 0.104529 -0.026439 -0.000660
v 0.101826 -0.023409 -0.000167
v 0.101612 -0.023149 -0.000296
v 0.101824 -0.023549 -0.000492
v 0.101610 -0.023119 -0.000529
v 0.104721 -0.025169 -0.000188
v 0.104779 -0.025509 -0.000445
v 0.105006 -0.024859 -0.000646
v 0.100835 -0.021759 -0.000180
v 0.100800 -0.021869 -0.000696
v 0.104823 -0.024279 -0.000100
v 0.104869 -0.023579 -0.000158
v 0.104969 -0.024399 -0.000309
v 0.105050 -0.023839 -0.000399
v 0.105117 -0.024289 -0.000708
v 0.105162 -0.023949 -0.000830
v 0.105078 -0.023279 -0.000666
v 0.099236 -0.019439 -0.000510
v 0.100108 -0.020019 -0.000014
v 0.100059 -0.018249 0.000007
v 0.099642 -0.018769 -0.000147
v 0.104447 -0.021069 -0.000068
v 0.104606 -0.020869 -0.000348
v 0.104748 -0.020849 -0.000677
v 0.104357 -0.019909 -0.000340
v 0.104599 -0.020149 -0.000669
v 0.103428 -0.018259 -0.000124
v 0.103856 -0.018889 -0.000220
v 0.104232 -0.018999 -0.000646
v 0.097393 -0.014489 -0.000740
v 0.098381 -0.015359 -0.000479
v 0.100624 -0.016659 -0.000042
v 0.101346 -0.016619 -0.000066
v 0.103005 -0.016959 -0.000534
v 0.103827 -0.018089 -0.000624
v 0.098067 -0.013469 -0.000562
v 0.099421 -0.014559 -0.000397
v 0.100451 -0.015509 -0.000196
v 0.100992 -0.015139 -0.000450
v 0.101813 -0.015649 -0.000549
v 0.101103 -0.014719 -0.000715
v 0.103597 -0.027149 -0.001792
v 0.104035 -0.027199 -0.001546
v 0.103136 -0.026389 -0.001413
v 0.104521 -0.026789 -0.001224
v 0.104394 -0.026989 -0.001504
v 0.102449 -0.024509 -0.001070
v 0.102525 -0.024539 -0.001678
v 0.104730 -0.026399 -0.001256
v 0.104880 -0.025889 -0.001247
v 0.102065 -0.023669 -0.001017
v 0.102153 -0.023689 -0.001698
v 0.101222 -0.022299 -0.001369
v 0.101680 -0.022959 -0.001056
v 0.101700 -0.022929 -0.001696
v 0.105149 -0.024399 -0.001079
v 0.105169 -0.024309 -0.001790
v 0.098509 -0.019969 -0.001644
v 0.099523 -0.020459 -0.001027
v 0.105187 -0.023769 -0.001435
v 0.096993 -0.017849 -0.001648
v 0.097193 -0.017629 -0.001286
v 0.097004 -0.017099 -0.001274
v 0.096674 -0.016879 -0.001608
v 0.097656 -0.017419 -0.000879
v 0.097000 -0.016209 -0.001192
v 0.104642 -0.019789 -0.001679
v 0.104741 -0.020409 -0.001108
v 0.096328 -0.015059 -0.001444
v 0.104414 -0.019119 -0.000982
v 0.104416 -0.018959 -0.001347
v 0.103580 -0.017179 -0.000949
v 0.103963 -0.017909 -0.000962
v 0.104032 -0.017819 -0.001289
v 0.102401 -0.015679 -0.000956
v 0.103216 -0.016639 -0.000954
v 0.103474 -0.016669 -0.001273
v 0.103026 -0.016089 -0.001304
v 0.103698 -0.017029 -0.001296
v 0.096299 -0.011969 -0.000847
v 0.095385 -0.011639 -0.001127
v 0.098924 -0.012879 -0.000950
v 0.099916 -0.013929 -0.000856
v 0.100507 -0.013619 -0.001552
v 0.101072 -0.014239 -0.001126
v 0.101339 -0.014139 -0.001494
v 0.093925 -0.009579 -0.001576
v 0.095246 -0.010259 -0.000982
v 0.096439 -0.011359 -0.000878
v 0.099246 -0.012739 -0.001197
v 0.100079 -0.013259 -0.001543
v 0.096997 -0.010619 -0.001125
v 0.093578 -0.008019 -0.001408
v 0.094641 -0.007919 -0.001167
v 0.093577 -0.006759 -0.001281
v 0.093254 -0.006869 -0.001401
v 0.093280 -0.005429 -0.001437
v 0.093022 -0.005639 -0.001482
v 0.093695 -0.005709 -0.001404
v 0.103399 -0.026969 -0.001860
v 0.103791 -0.027389 -0.002403
v 0.103600 -0.027339 -0.002403
v 0.103982 -0.027359 -0.002614
v 0.103170 -0.026699 -0.002152
v 0.103015 -0.026239 -0.002084
v 0.104213 -0.027229 -0.002348
v 0.104549 -0.026909 -0.002527
v 0.102665 -0.025049 -0.002097
v 0.104921 -0.025829 -0.001860
v 0.101667 -0.023039 -0.002350
v 0.102292 -0.024179 -0.002369
v 0.102040 -0.023659 -0.002384
v 0.099061 -0.020949 -0.002387
v 0.099625 -0.020949 -0.001788
v 0.099688 -0.021309 -0.002326
v 0.100721 -0.021879 -0.002034
v 0.101428 -0.022679 -0.002214
v 0.097145 -0.018849 -0.002259
v 0.097536 -0.018959 -0.001807
v 0.097605 -0.019559 -0.002339
v 0.096706 -0.017579 -0.001965
v 0.095660 -0.015019 -0.002175
v 0.096022 -0.015969 -0.002237
v 0.104810 -0.020739 -0.001882
v 0.103910 -0.017279 -0.001933
v 0.104125 -0.017939 -0.002264
v 0.094578 -0.012299 -0.001966
v 0.103559 -0.016489 -0.001906
v 0.103293 -0.016079 -0.001931
v 0.103382 -0.016109 -0.002293
v 0.101864 -0.014409 -0.001882
v 0.099987 -0.012859 -0.001983
v 0.100485 -0.013289 -0.002269
v 0.101359 -0.013819 -0.002263
v 0.101651 -0.014029 -0.002412
v 0.097331 -0.009879 -0.001703
v 0.098120 -0.010659 -0.001950
v 0.092792 -0.006659 -0.001697
v 0.092551 -0.006749 -0.002119
v 0.092904 -0.007319 -0.001784
v 0.092427 -0.005879 -0.002128
v 0.092737 -0.005659 -0.001670
v 0.092558 -0.005969 -0.001886
v 0.095941 -0.007539 -0.001802
v 0.092666 -0.004989 -0.001769
v 0.092485 -0.005259 -0.001995
v 0.092382 -0.005209 -0.002222
v 0.092906 -0.005019 -0.001584
v 0.092980 -0.004019 -0.001716
v 0.092770 -0.004079 -0.001806
v 0.092541 -0.003919 -0.002084
v 0.094158 -0.005169 -0.001640
v 0.095401 -0.005159 -0.002318
v 0.092891 -0.002979 -0.001877
v 0.092575 -0.002899 -0.002050
v 0.093279 -0.003959 -0.001708
v 0.093091 -0.002989 -0.001872
v 0.094657 -0.004359 -0.002095
v 0.092998 -0.002279 -0.001917
v 0.092704 -0.002109 -0.001988
v 0.092483 -0.002249 -0.002171
v 0.093425 -0.002979 -0.001998
v 0.093616 -0.002449 -0.002279
v 0.093910 -0.003089 -0.002225
v 0.092521 -0.001549 -0.002201
v 0.092583 -0.001449 -0.002188
v 0.092628 -0.001329 -0.002249
v 0.092512 -0.001379 -0.002271
v 0.092895 -0.001709 -0.002034
v 0.093128 -0.001859 -0.002067
v 0.093083 -0.001609 -0.002172
v 0.092858 -0.001349 -0.002262
v 0.103014 -0.027059 -0.003355
v 0.103275 -0.027259 -0.002994
v 0.103439 -0.027409 -0.003009
v 0.103217 -0.027359 -0.003502
v 0.102793 -0.026419 -0.003109
v 0.104387 -0.027089 -0.002865
v 0.104530 -0.026889 -0.003132
v 0.102230 -0.024799 -0.003360
v 0.104731 -0.026499 -0.002885
v 0.101087 -0.022709 -0.003272
v 0.101640 -0.023299 -0.002998
v 0.101914 -0.023919 -0.003211
v 0.098045 -0.020469 -0.003383
v 0.099205 -0.021349 -0.003332
v 0.100508 -0.022169 -0.003236
v 0.105063 -0.024259 -0.002999
v 0.097087 -0.019069 -0.002664
v 0.096834 -0.018479 -0.002603
v 0.105069 -0.023539 -0.002857
v 0.104703 -0.020839 -0.003176
v 0.095444 -0.014899 -0.002980
v 0.095973 -0.016079 -0.002721
v 0.094870 -0.014019 -0.003049
v 0.104482 -0.019409 -0.002624
v 0.094349 -0.012899 -0.002720
v 0.094347 -0.013039 -0.003023
v 0.103898 -0.017259 -0.002610
v 0.103978 -0.017829 -0.003262
v 0.093525 -0.011159 -0.002849
v 0.093410 -0.010909 -0.003212
v 0.093791 -0.011849 -0.003330
v 0.103587 -0.016499 -0.002769
v 0.103360 -0.016109 -0.002944
v 0.103732 -0.017039 -0.003262
v 0.093070 -0.009699 -0.003183
v 0.093524 -0.010699 -0.002461
v 0.093209 -0.010109 -0.002780
v 0.102906 -0.015449 -0.002513
v 0.102884 -0.015429 -0.002932
v 0.098515 -0.010589 -0.003114
v 0.099301 -0.011619 -0.003155
v 0.092461 -0.006649 -0.002527
v 0.097493 -0.008609 -0.003179
v 0.092308 -0.005209 -0.002639
v 0.092312 -0.004669 -0.003040
v 0.096637 -0.007309 -0.002602
v 0.096842 -0.007309 -0.002954
v 0.096863 -0.007179 -0.003245
v 0.092406 -0.003909 -0.002407
v 0.094998 -0.004139 -0.002516
v 0.094969 -0.003869 -0.002754
v 0.095634 -0.005129 -0.002654
v 0.095801 -0.005229 -0.003119
v 0.092350 -0.002379 -0.002492
v 0.092343 -0.002379 -0.002842
v 0.092432 -0.001709 -0.002820
v 0.092572 -0.001679 -0.003038
v 0.092759 -0.001749 -0.003216
v 0.093959 -0.002659 -0.002477
v 0.093916 -0.002319 -0.002706
v 0.093946 -0.002259 -0.002921
v 0.094271 -0.002689 -0.002936
v 0.094210 -0.002639 -0.003148
v 0.094852 -0.003589 -0.003161
v 0.092435 -0.001509 -0.002369
v 0.092550 -0.001279 -0.002370
v 0.092663 -0.001239 -0.002373
v 0.092415 -0.001509 -0.002506
v 0.092465 -0.001349 -0.002475
v 0.092546 -0.001269 -0.002486
v 0.092663 -0.001229 -0.002491
v 0.092781 -0.001229 -0.002484
v 0.092492 -0.001369 -0.002687
v 0.092591 -0.001289 -0.002692
v 0.092763 -0.001259 -0.002695
v 0.092546 -0.001399 -0.002814
v 0.092737 -0.001309 -0.002810
v 0.092675 -0.001459 -0.002978
v 0.092885 -0.001289 -0.002384
v 0.093124 -0.001459 -0.002383
v 0.093479 -0.001819 -0.002470
v 0.092899 -0.001269 -0.002595
v 0.093179 -0.001419 -0.002598
v 0.093518 -0.001729 -0.002697
v 0.092873 -0.001319 -0.002796
v 0.093158 -0.001429 -0.002801
v 0.092827 -0.001419 -0.002966
v 0.093146 -0.001489 -0.002928
v 0.093510 -0.001739 -0.002917
v 0.092907 -0.001689 -0.003223
v 0.093062 -0.001649 -0.003173
v 0.093457 -0.001839 -0.003143
v 0.102641 -0.026809 -0.004397
v 0.103413 -0.027459 -0.003612
v 0.104018 -0.027239 -0.004040
v 0.104436 -0.026719 -0.004161
v 0.101658 -0.024089 -0.003994
v 0.104661 -0.026469 -0.003593
v 0.104821 -0.025759 -0.003523
v 0.104554 -0.026279 -0.004292
v 0.098399 -0.021359 -0.004300
v 0.099027 -0.021679 -0.003957
v 0.099189 -0.022039 -0.004300
v 0.099890 -0.022079 -0.003968
v 0.100217 -0.022299 -0.003978
v 0.099753 -0.022299 -0.004293
v 0.100863 -0.023049 -0.004178
v 0.101441 -0.023419 -0.003662
v 0.101262 -0.023729 -0.004350
v 0.104810 -0.025009 -0.004080
v 0.097305 -0.019879 -0.004299
v 0.100534 -0.022349 -0.003649
v 0.099994 -0.021899 -0.003600
v 0.104914 -0.023669 -0.003865
v 0.096886 -0.019029 -0.003562
v 0.097224 -0.019659 -0.003573
v 0.096352 -0.017079 -0.004133
v 0.104601 -0.021139 -0.003977
v 0.095623 -0.015139 -0.003742
v 0.104490 -0.020149 -0.003630
v 0.103822 -0.018169 -0.004251
v 0.102769 -0.015669 -0.004105
v 0.103465 -0.016589 -0.003606
v 0.099841 -0.012379 -0.003622
v 0.092865 -0.008429 -0.004060
v 0.098571 -0.010619 -0.004065
v 0.098004 -0.009379 -0.003664
v 0.097956 -0.009309 -0.003996
v 0.098509 -0.010419 -0.003691
v 0.098264 -0.010049 -0.004029
v 0.092400 -0.005569 -0.003411
v 0.092405 -0.004629 -0.003480
v 0.092552 -0.005249 -0.003798
v 0.096552 -0.006629 -0.003735
v 0.096399 -0.006539 -0.003963
v 0.097233 -0.007899 -0.003840
v 0.097132 -0.007809 -0.004084
v 0.092597 -0.004249 -0.003735
v 0.092988 -0.003929 -0.003987
v 0.095001 -0.004799 -0.004089
v 0.095859 -0.005629 -0.003734
v 0.095656 -0.005769 -0.004111
v 0.095283 -0.004449 -0.003494
v 0.095106 -0.004489 -0.003811
v 0.092489 -0.002519 -0.003251
v 0.092668 -0.002269 -0.003355
v 0.093007 -0.002089 -0.003433
v 0.093267 -0.002269 -0.003509
v 0.093653 -0.002349 -0.003424
v 0.094625 -0.003379 -0.003386
v 0.093199 -0.001859 -0.003309
v 0.102979 -0.027459 -0.004634
v 0.103128 -0.027529 -0.004702
v 0.103502 -0.027439 -0.004617
v 0.103739 -0.027249 -0.005265
v 0.102046 -0.025649 -0.004646
v 0.104090 -0.027019 -0.004817
v 0.100619 -0.023579 -0.004982
v 0.101402 -0.024349 -0.004686
v 0.101067 -0.024219 -0.005047
v 0.098850 -0.022009 -0.004929
v 0.099470 -0.022309 -0.004479
v 0.099144 -0.022119 -0.004566
v 0.100198 -0.022839 -0.004616
v 0.099544 -0.022699 -0.004931
v 0.104634 -0.025359 -0.004571
v 0.104708 -0.024589 -0.004555
v 0.104556 -0.022809 -0.004832
v 0.096718 -0.016679 -0.005114
v 0.104275 -0.020759 -0.004895
v 0.096066 -0.015449 -0.004807
v 0.095410 -0.014219 -0.005071
v 0.094119 -0.012419 -0.004304
v 0.094348 -0.012559 -0.004833
v 0.094772 -0.013519 -0.004411
v 0.103471 -0.017339 -0.004523
v 0.093658 -0.011399 -0.004321
v 0.093969 -0.011779 -0.004794
v 0.102459 -0.015649 -0.004884
v 0.093327 -0.010519 -0.004209
v 0.093296 -0.009949 -0.004649
v 0.093570 -0.010699 -0.004787
v 0.093440 -0.009929 -0.004889
v 0.093715 -0.010519 -0.005051
v 0.101228 -0.014169 -0.005050
v 0.093171 -0.009029 -0.004665
v 0.099348 -0.011999 -0.004957
v 0.100137 -0.012759 -0.004687
v 0.100907 -0.013459 -0.004340
v 0.093374 -0.008519 -0.004962
v 0.098480 -0.010959 -0.004738
v 0.092834 -0.007399 -0.004303
v 0.093131 -0.007189 -0.004668
v 0.093480 -0.006839 -0.004859
v 0.097847 -0.009259 -0.004235
v 0.097540 -0.009359 -0.004768
v 0.098176 -0.010189 -0.004380
v 0.095973 -0.007469 -0.004986
v 0.097057 -0.007919 -0.004343
v 0.096938 -0.008759 -0.005032
v 0.094473 -0.005619 -0.004690
v 0.096265 -0.006779 -0.004351
v 0.093592 -0.004369 -0.004263
v 0.094651 -0.005049 -0.004385
v 0.102723 -0.027589 -0.005679
v 0.102943 -0.027619 -0.005330
v 0.103084 -0.027619 -0.005351
v 0.102922 -0.027639 -0.005720
v 0.103657 -0.027119 -0.005962
v 0.099644 -0.023979 -0.005964
v 0.100192 -0.024559 -0.005933
v 0.100757 -0.024629 -0.005653
v 0.104039 -0.026819 -0.005412
v 0.098969 -0.022849 -0.005912
v 0.099525 -0.023159 -0.005408
v 0.104142 -0.026029 -0.005713
v 0.097819 -0.020959 -0.005841
v 0.104336 -0.024839 -0.005527
v 0.097146 -0.018999 -0.006007
v 0.096911 -0.018209 -0.005201
v 0.096829 -0.017709 -0.005201
v 0.096934 -0.017989 -0.005546
v 0.096960 -0.017879 -0.005782
v 0.096977 -0.018269 -0.005576
v 0.096942 -0.018119 -0.005772
v 0.097014 -0.018089 -0.005993
v 0.096975 -0.017329 -0.005611
v 0.104063 -0.021429 -0.005632
v 0.103938 -0.020499 -0.005584
v 0.096710 -0.016189 -0.005484
v 0.095446 -0.013809 -0.005537
v 0.095804 -0.014209 -0.005689
v 0.096412 -0.014809 -0.005820
v 0.095369 -0.013139 -0.005762
v 0.095630 -0.013839 -0.005743
v 0.095941 -0.014039 -0.005904
v 0.095768 -0.013039 -0.005930
v 0.096092 -0.013879 -0.006015
v 0.102872 -0.017409 -0.005861
v 0.102629 -0.016769 -0.005851
v 0.103439 -0.018079 -0.005185
v 0.094548 -0.012299 -0.005326
v 0.094465 -0.011639 -0.005465
v 0.094979 -0.011959 -0.005761
v 0.094931 -0.012579 -0.005604
v 0.095394 -0.011899 -0.005920
v 0.101634 -0.015319 -0.005821
v 0.102297 -0.015959 -0.005606
v 0.102835 -0.016459 -0.005149
v 0.093836 -0.010189 -0.005228
v 0.094638 -0.010819 -0.005676
v 0.095051 -0.010949 -0.005840
v 0.095782 -0.011159 -0.005980
v 0.093601 -0.009219 -0.005138
v 0.098252 -0.011659 -0.005605
v 0.097780 -0.011619 -0.005877
v 0.099817 -0.012699 -0.005242
v 0.099245 -0.012289 -0.005436
v 0.099520 -0.013089 -0.005840
v 0.093721 -0.008759 -0.005238
v 0.094127 -0.008559 -0.005408
v 0.095005 -0.009469 -0.005694
v 0.095619 -0.009239 -0.005660
v 0.097035 -0.010439 -0.005773
v 0.097857 -0.010769 -0.005291
v 0.093685 -0.007759 -0.005145
v 0.093963 -0.007459 -0.005186
v 0.094407 -0.007019 -0.005121
v 0.095514 -0.007439 -0.005138
v 0.101797 -0.027069 -0.006540
v 0.101698 -0.027119 -0.006984
v 0.102377 -0.027519 -0.006293
v 0.102664 -0.027659 -0.006318
v 0.102062 -0.027379 -0.006671
v 0.102355 -0.027539 -0.006664
v 0.102683 -0.027589 -0.006671
v 0.101987 -0.027329 -0.006993
v 0.102391 -0.027439 -0.006990
v 0.102956 -0.027599 -0.006287
v 0.100116 -0.025159 -0.006971
v 0.100751 -0.025389 -0.006253
v 0.101084 -0.026299 -0.006930
v 0.101497 -0.026259 -0.006085
v 0.102931 -0.027239 -0.006995
v 0.103522 -0.027079 -0.006338
v 0.103237 -0.027379 -0.006403
v 0.102944 -0.027479 -0.006675
v 0.103222 -0.027139 -0.006754
v 0.099466 -0.023959 -0.006303
v 0.099560 -0.024269 -0.006632
v 0.099523 -0.024189 -0.006935
v 0.100029 -0.024779 -0.006308
v 0.099948 -0.024859 -0.006638
v 0.099735 -0.024589 -0.006949
v 0.103522 -0.025999 -0.006965
v 0.103727 -0.026679 -0.006330
v 0.103304 -0.026699 -0.006964
v 0.098638 -0.022569 -0.006588
v 0.099176 -0.023499 -0.006625
v 0.103881 -0.025109 -0.006465
v 0.103792 -0.025819 -0.006588
v 0.098095 -0.021439 -0.006562
v 0.098462 -0.022129 -0.006234
v 0.097581 -0.020159 -0.006541
v 0.097678 -0.020619 -0.006244
v 0.097928 -0.020829 -0.006792
v 0.097211 -0.018869 -0.006263
v 0.097671 -0.019799 -0.006787
v 0.097609 -0.018439 -0.006734
v 0.097078 -0.017069 -0.006031
v 0.097150 -0.017539 -0.006258
v 0.097220 -0.016789 -0.006471
v 0.103612 -0.020959 -0.006288
v 0.096975 -0.015669 -0.006159
v 0.097474 -0.016269 -0.006760
v 0.097580 -0.016959 -0.006845
v 0.096679 -0.014539 -0.006162
v 0.096832 -0.015169 -0.006093
v 0.096621 -0.014739 -0.006070
v 0.097073 -0.015309 -0.006325
v 0.096969 -0.014909 -0.006267
v 0.097388 -0.015019 -0.006487
v 0.102535 -0.017779 -0.006522
v 0.102067 -0.017849 -0.006938
v 0.096494 -0.013709 -0.006173
v 0.097082 -0.014459 -0.006324
v 0.098040 -0.015099 -0.006648
v 0.102134 -0.016409 -0.006196
v 0.101830 -0.016409 -0.006418
v 0.102151 -0.017239 -0.006651
v 0.102554 -0.017109 -0.006197
v 0.096458 -0.012459 -0.006105
v 0.097092 -0.013209 -0.006282
v 0.098430 -0.013819 -0.006459
v 0.099427 -0.014809 -0.006582
v 0.099839 -0.014409 -0.006346
v 0.097130 -0.012279 -0.006172
v 0.099071 -0.013199 -0.006157
v 0.098880 -0.013479 -0.006331
v 0.096514 -0.010699 -0.005951
v 0.101422 -0.026809 -0.007312
v 0.101725 -0.027069 -0.007319
v 0.102085 -0.027139 -0.007406
v 0.100093 -0.025069 -0.007289
v 0.100505 -0.025349 -0.007711
v 0.100958 -0.026199 -0.007293
v 0.101386 -0.026469 -0.007628
v 0.101724 -0.026579 -0.007721
v 0.101597 -0.025999 -0.007965
v 0.103018 -0.027019 -0.007093
v 0.102524 -0.027269 -0.007174
v 0.102636 -0.026939 -0.007410
v 0.102248 -0.026719 -0.007674
v 0.102554 -0.026419 -0.007683
v 0.099740 -0.024489 -0.007172
v 0.100046 -0.024549 -0.007685
v 0.100396 -0.024929 -0.007894
v 0.103099 -0.026479 -0.007292
v 0.103122 -0.025929 -0.007427
v 0.102810 -0.026419 -0.007547
v 0.102728 -0.025989 -0.007713
v 0.099203 -0.023399 -0.007033
v 0.103483 -0.025169 -0.007033
v 0.098983 -0.022459 -0.007288
v 0.099237 -0.022119 -0.007569
v 0.098186 -0.020939 -0.007081
v 0.098503 -0.020589 -0.007379
v 0.099133 -0.020149 -0.007685
v 0.099707 -0.020329 -0.007863
v 0.102621 -0.022109 -0.007743
v 0.102496 -0.021429 -0.007702
v 0.102401 -0.022019 -0.007869
v 0.102900 -0.022359 -0.007506
v 0.101968 -0.020829 -0.007814
v 0.102912 -0.021089 -0.007234
v 0.098236 -0.017859 -0.007131
v 0.099040 -0.018039 -0.007437
v 0.097984 -0.016589 -0.007026
v 0.098600 -0.016889 -0.007222
v 0.099856 -0.017959 -0.007530
v 0.101032 -0.017939 -0.007357
v 0.101951 -0.019259 -0.007418
v 0.101592 -0.018539 -0.007375
v 0.098175 -0.016139 -0.006986
v 0.099119 -0.016379 -0.007164
v 0.100087 -0.016329 -0.007053
v 0.101587 -0.017219 -0.006931
v 0.100965 -0.025619 -0.007936
v 0.100189 -0.024089 -0.007937
v 0.100764 -0.025129 -0.008072
v 0.100494 -0.024709 -0.008037
v 0.100931 -0.024819 -0.008221
v 0.100610 -0.024359 -0.008145
v 0.101115 -0.025209 -0.008168
v 0.101376 -0.024999 -0.008262
v 0.101918 -0.025929 -0.007999
v 0.102205 -0.025769 -0.007994
v 0.101039 -0.024199 -0.008307
v 0.101413 -0.024079 -0.008367
v 0.102099 -0.024989 -0.008204
v 0.102153 -0.024569 -0.008230
v 0.101352 -0.024669 -0.008328
v 0.101713 -0.024749 -0.008312
v 0.101896 -0.024099 -0.008316
v 0.102340 -0.025239 -0.008066
v 0.102451 -0.024829 -0.008057
v 0.101881 -0.023339 -0.008250
v 0.101520 -0.023459 -0.008334
v 0.102618 -0.024009 -0.007935
v 0.102300 -0.023549 -0.008113
v 0.100167 -0.022169 -0.008049
v 0.100681 -0.022249 -0.008202
v 0.100941 -0.021299 -0.008118
v 0.101403 -0.021449 -0.008084
v 0.102043 -0.021549 -0.007932
v 0.100375 -0.020069 -0.007920
v 0.101099 -0.019939 -0.007858
vn -0.3143 -0.3193 0.8940
vn 0.0318 -0.4149 0.9093
vn -0.0407 -0.1802 0.9828
vn 0.2493 -0.2429 0.9375
vn -0.3626 -0.4768 0.8008
vn -0.8466 -0.4110 0.3382
vn -0.8388 -0.4537 0.3010
vn -0.6034 -0.3532 0.7150
vn -0.2937 -0.2189 0.9305
vn -0.5063 -0.2955 0.8102
vn 0.2487 -0.1538 0.9563
vn 0.6205 -0.2587 0.7403
vn 0.4072 -0.1336 0.9035
vn -0.2310 -0.1692 0.9581
vn 0.0122 -0.0971 0.9952
vn 0.6592 -0.0655 0.7491
vn 0.4484 -0.0076 0.8938
vn -0.7506 -0.4638 0.4706
vn -0.6004 -0.3567 0.7158
vn -0.5279 -0.2888 0.7987
vn -0.1069 -0.0964 0.9896
vn -0.2912 -0.1746 0.9406
vn 0.2128 -0.0606 0.9752
vn 0.7369 0.0663 0.6727
vn -0.4219 -0.1801 0.8886
vn -0.1964 -0.0778 0.9774
vn -0.5953 -0.3224 0.7359
vn 0.0768 -0.0167 0.9969
vn -0.4246 -0.0700 0.9027
vn -0.4645 -0.0682 0.8829
vn -0.2793 0.0514 0.9588
vn -0.2918 -0.0282 0.9561
vn -0.5651 -0.2241 0.7940
vn -0.0557 -0.0151 0.9983
vn -0.1568 0.0714 0.9850
vn 0.0224 0.0850 0.9961
vn 0.3493 0.0520 0.9356
vn -0.0731 0.1275 0.9891
vn 0.1990 0.0986 0.9750
vn 0.2075 0.2242 0.9522
vn 0.6214 0.1117 0.7755
vn 0.5033 0.1614 0.8489
vn 0.6700 0.2275 0.7067
vn 0.7575 0.1448 0.6365
vn 0.8490 0.1717 0.4996
vn 0.0280 0.1689 0.9852
vn 0.1078 0.2413 0.9644
vn 0.3548 0.1960 0.9142
vn 0.5439 0.2719 0.7939
vn 0.3864 0.3246 0.8633
vn 0.2625 0.3963 0.8798
vn 0.5614 0.3673 0.7415
vn -0.4995 -0.7863 0.3638
vn -0.6279 -0.7477 0.2159
vn -0.2491 -0.9331 0.2594
vn -0.7324 -0.5173 0.4427
vn -0.6038 -0.4179 0.6788
vn -0.5487 -0.6512 0.5242
vn -0.7879 -0.5729 0.2260
vn -0.9055 -0.4155 0.0862
vn -0.1950 -0.6683 0.7179
vn -0.1247 -0.8419 0.5251
vn 0.2129 -0.6481 0.7311
vn 0.4784 -0.4270 0.7674
vn 0.7226 -0.3727 0.5821
vn 0.3022 -0.8063 0.5086
vn 0.5625 -0.6016 0.5672
vn 0.8151 -0.4418 0.3746
vn 0.1505 -0.9212 0.3588
vn 0.5644 -0.7562 0.3312
vn 0.1731 -0.9657 0.1937
vn -0.7743 -0.5991 0.2037
vn -0.8944 -0.4137 -0.1699
vn -0.9137 -0.4043 -0.0404
vn -0.8945 -0.4425 -0.0636
vn -0.9052 -0.3721 -0.2054
vn 0.8756 -0.2697 0.4007
vn 0.7218 -0.2022 0.6620
vn 0.9179 -0.3674 0.1501
vn 0.9595 -0.2482 0.1329
vn 0.9482 -0.1968 0.2493
vn -0.7541 -0.4376 0.4897
vn -0.8456 -0.5044 0.1750
vn -0.8473 -0.5051 -0.1641
vn -0.7884 -0.6133 0.0475
vn -0.8809 -0.4251 -0.2080
vn -0.8300 -0.5346 -0.1590
vn 0.8712 -0.1197 0.4761
vn -0.7666 -0.6421 0.0079
vn 0.9062 0.0221 0.4222
vn 0.9693 -0.1111 0.2193
vn 0.9900 0.0070 0.1406
vn 0.9687 0.1216 0.2162
vn 0.9900 -0.1246 0.0666
vn -0.6804 -0.5937 0.4296
vn 0.9987 0.0510 -0.0008
vn -0.4911 -0.1489 0.8583
vn -0.6569 -0.3105 0.6871
vn -0.2597 -0.0151 0.9656
vn 0.9503 0.1550 0.2702
vn 0.9783 0.1804 0.1014
vn -0.5390 -0.1094 0.8352
vn -0.3976 -0.1394 0.9069
vn 0.6885 0.3103 0.6555
vn 0.7944 0.2488 0.5541
vn 0.9169 0.2272 0.3281
vn 0.8241 0.3071 0.4759
vn 0.9292 0.2775 0.2442
vn 0.0594 0.2488 0.9667
vn 0.7213 0.3720 0.5843
vn 0.8400 0.3647 0.4018
vn 0.0746 0.2393 0.9681
vn 0.4277 0.4392 0.7900
vn 0.5343 0.4285 0.7286
vn 0.7154 0.4257 0.5540
vn -0.2096 -0.0224 0.9775
vn 0.0204 0.1687 0.9855
vn 0.3551 0.5139 0.7809
vn 0.3176 0.4028 0.8584
vn 0.4404 0.6566 0.6123
vn 0.3840 0.5338 0.7534
vn 0.0576 0.1339 0.9893
vn 0.5891 0.5510 0.5911
vn -0.4935 -0.8386 0.2305
vn -0.8830 -0.4197 0.2104
vn 0.7924 -0.5777 0.1958
vn 0.6454 -0.7517 0.1356
vn 0.8260 -0.5633 0.0213
vn 0.5527 -0.8311 0.0623
vn 0.6678 -0.7427 -0.0488
vn -0.9327 -0.3605 0.0032
vn -0.8900 -0.4557 0.0144
vn 0.9758 -0.2184 -0.0045
vn 0.9482 -0.3131 -0.0531
vn -0.8256 -0.5625 0.0442
vn -0.6540 -0.7226 0.2238
vn 0.9963 -0.0747 -0.0430
vn -0.6140 -0.5918 0.5223
vn -0.5331 -0.7285 0.4301
vn 0.9881 0.1496 -0.0353
vn -0.7791 -0.2232 0.5859
vn -0.7608 -0.3652 0.5364
vn -0.6696 -0.4712 0.5741
vn -0.6769 -0.1746 0.7151
vn -0.6096 -0.2052 0.7657
vn 0.9583 0.2768 0.0710
vn 0.9759 0.2179 -0.0056
vn -0.4706 -0.1871 0.8623
vn 0.9188 0.3457 0.1903
vn 0.6430 0.4970 0.5827
vn 0.8496 0.4301 0.3051
vn 0.9306 0.3601 0.0650
vn 0.7010 0.5810 0.4136
vn 0.7583 0.5256 0.3857
vn 0.8611 0.4835 0.1573
vn 0.7789 0.5780 0.2433
vn -0.2207 -0.0345 0.9747
vn 0.4936 0.5065 0.7070
vn 0.4911 0.7157 0.4966
vn 0.5792 0.5904 0.5621
vn 0.5488 0.7033 0.4519
vn 0.6328 0.7504 0.1909
vn 0.5634 0.8040 0.1902
vn 0.6871 0.6564 0.3114
vn 0.1562 0.1655 0.9738
vn 0.3173 0.2994 0.8998
vn 0.7134 0.5274 0.4615
vn -0.5219 -0.1694 0.8360
vn -0.6315 -0.2382 0.7378
vn -0.7467 -0.2267 0.6253
vn 0.6190 0.4345 0.6543
vn -0.4722 -0.0975 0.8761
vn -0.1724 0.0333 0.9845
vn 0.5132 0.3161 0.7979
vn -0.4022 0.0324 0.9150
vn -0.6655 -0.0044 0.7464
vn -0.1073 0.1336 0.9852
vn 0.3187 0.2335 0.9186
vn 0.1200 0.1693 0.9782
vn -0.4278 0.1054 0.8977
vn 0.0775 0.1860 0.9795
vn -0.2424 0.1469 0.9590
vn -0.3978 -0.8858 0.2390
vn 0.0074 -0.9863 0.1650
vn 0.3568 -0.9341 0.0090
vn -0.8325 -0.5083 0.2203
vn -0.3920 -0.9051 0.1645
vn -0.9367 -0.3033 0.1750
vn -0.9137 -0.3343 0.2309
vn -0.9382 -0.3059 0.1618
vn -0.8910 -0.3374 0.3038
vn -0.9040 -0.3793 0.1971
vn 0.9761 -0.1607 -0.1464
vn -0.8626 -0.4678 0.1927
vn -0.8075 -0.5557 0.1978
vn -0.8515 -0.4180 0.3167
vn -0.6919 -0.6017 0.3990
vn -0.6587 -0.6736 0.3354
vn -0.5598 -0.7424 0.3681
vn -0.5004 -0.7782 0.3795
vn -0.5057 -0.7787 0.3714
vn -0.7062 -0.6322 0.3188
vn -0.7515 -0.6335 0.1840
vn -0.7997 -0.5259 0.2895
vn 0.9904 -0.0499 -0.1287
vn 0.9911 0.0691 -0.1139
vn -0.7827 -0.4504 0.4296
vn -0.8580 -0.3268 0.3962
vn -0.8236 -0.4915 0.2830
vn -0.8969 -0.3658 0.2487
vn -0.9346 -0.3397 0.1057
vn -0.8951 -0.3453 0.2821
vn -0.9248 -0.3801 0.0137
vn 0.9782 0.1561 -0.1367
vn -0.8282 -0.3633 0.4267
vn 0.9669 0.2288 -0.1126
vn 0.9591 0.2800 -0.0423
vn -0.7000 -0.3003 0.6480
vn -0.8446 -0.4000 0.3558
vn 0.9430 0.3255 -0.0693
vn -0.8127 -0.2901 0.5053
vn 0.8401 0.5392 0.0601
vn 0.9029 0.4235 -0.0740
vn 0.7745 0.6281 0.0744
vn 0.6841 0.7250 0.0797
vn 0.7190 0.6346 0.2834
vn 0.7152 0.6818 -0.1537
vn 0.8147 0.5355 0.2224
vn -0.7117 -0.1384 0.6887
vn -0.9187 -0.1896 0.3464
vn -0.8238 -0.0669 0.5630
vn -0.9359 -0.2600 0.2378
vn -0.9538 0.0213 0.2996
vn -0.9511 -0.0751 0.2996
vn -0.8577 0.0273 0.5134
vn -0.9982 -0.0320 0.0508
vn -0.9866 -0.1561 0.0480
vn -0.7163 0.0681 0.6945
vn -0.5902 0.1058 0.8003
vn -0.8532 0.0340 0.5205
vn -0.9617 0.0090 0.2741
vn 0.7431 0.3693 0.5580
vn -0.2505 0.0922 0.9637
vn -0.6511 0.0275 0.7585
vn 0.1565 0.1485 0.9765
vn 0.5011 0.3278 0.8010
vn 0.6585 0.3440 0.6693
vn -0.4125 0.1159 0.9035
vn -0.8167 0.0373 0.5758
vn -0.9792 0.0251 0.2015
vn 0.7043 0.4303 0.5645
vn 0.6536 0.4090 0.6368
vn 0.5028 0.3543 0.7885
vn 0.4159 0.2407 0.8770
vn -0.7078 0.1509 0.6901
vn -0.9388 0.1708 0.2992
vn 0.1352 0.1479 0.9797
vn 0.0717 0.3593 0.9305
vn 0.5049 0.3135 0.8043
vn 0.5999 0.2965 0.7431
vn 0.7235 0.4834 0.4928
vn -0.3420 0.3742 0.8620
vn -0.6912 0.4675 0.5511
vn -0.1457 0.6793 0.7192
vn 0.2870 0.6994 0.6546
vn -0.8587 0.5114 0.0328
vn -0.5280 0.7928 0.3045
vn -0.0756 0.9348 0.3470
vn 0.3989 0.8547 0.3324
vn 0.5164 0.5124 0.6861
vn 0.6095 0.6709 0.4224
vn -0.7121 -0.6634 0.2299
vn -0.5910 -0.7692 0.2429
vn -0.8480 -0.4354 0.3022
vn -0.0987 -0.9928 0.0680
vn -0.6016 -0.7791 0.1760
vn 0.3557 -0.9341 -0.0309
vn 0.5724 -0.8136 -0.1019
vn 0.7677 -0.6112 -0.1928
vn 0.8272 -0.5517 -0.1067
vn 0.9365 -0.3139 -0.1564
vn -0.8115 -0.5594 0.1690
vn -0.6006 -0.7522 0.2711
vn -0.5010 -0.7848 0.3647
vn -0.6206 -0.6883 0.3756
vn 0.9725 0.0405 -0.2295
vn -0.9235 -0.2738 -0.2687
vn -0.8895 -0.4367 -0.1346
vn -0.8718 -0.4870 0.0533
vn 0.9546 0.2135 -0.2079
vn 0.9446 0.2712 -0.1851
vn 0.9631 0.1434 -0.2279
vn -0.8659 -0.4967 0.0582
vn -0.8390 -0.4938 -0.2283
vn 0.9209 0.2637 -0.2871
vn -0.9044 -0.3581 0.2322
vn -0.9148 -0.4039 0.0024
vn -0.8882 -0.4526 0.0784
vn 0.9223 0.3349 -0.1926
vn -0.9468 -0.3213 0.0174
vn 0.8464 0.5178 -0.1248
vn 0.8728 0.4203 -0.2482
vn 0.7964 0.5478 -0.2563
vn -0.9739 -0.2263 0.0170
vn 0.7815 0.6159 -0.1000
vn 0.7752 0.6316 0.0100
vn 0.8121 0.5740 0.1050
vn 0.8597 0.4299 0.2760
vn -0.9717 -0.0670 -0.2265
vn -0.9972 0.0121 -0.0733
vn -0.9285 0.0382 -0.3693
vn 0.8165 0.4257 0.3899
vn 0.8458 0.4002 0.3527
vn 0.8749 0.4843 0.0040
vn 0.8430 0.5050 -0.1854
vn 0.8846 0.4500 0.1223
vn 0.8884 0.4556 -0.0572
vn -0.9811 0.0794 -0.1765
vn -0.8173 0.1452 -0.5577
vn 0.7722 0.5031 0.3880
vn 0.8176 0.4994 0.2866
vn 0.8163 0.5626 0.1306
vn 0.8079 0.4903 -0.3270
vn 0.8422 0.5292 -0.1031
vn 0.6902 0.5275 -0.4954
vn -0.9791 0.2031 -0.0136
vn -0.9179 0.2138 -0.3342
vn -0.7986 0.5242 -0.2958
vn -0.6991 0.3376 -0.6304
vn -0.6315 0.5663 -0.5296
vn -0.3707 0.6258 -0.6862
vn -0.5471 0.2548 -0.7973
vn -0.4030 0.4146 -0.8159
vn 0.7908 0.6111 0.0342
vn 0.7446 0.6509 0.1478
vn 0.7258 0.5828 -0.3655
vn 0.5154 0.6401 -0.5698
vn 0.6604 0.7051 -0.2583
vn 0.4374 0.4971 -0.7494
vn -0.5282 0.8480 -0.0438
vn -0.1658 0.9850 -0.0481
vn 0.1874 0.9800 0.0674
vn -0.4024 0.8504 -0.3389
vn 0.0359 0.9589 -0.2813
vn 0.3577 0.9305 -0.0791
vn 0.2334 0.8820 -0.4093
vn -0.1106 0.8553 -0.5062
vn 0.0410 0.7694 -0.6375
vn -0.0817 0.5669 -0.8197
vn 0.6019 0.7925 0.0986
vn 0.4856 0.8330 -0.2652
vn 0.3831 0.7766 -0.5001
vn 0.2179 0.6876 -0.6926
vn 0.2255 0.5547 -0.8009
vn -0.7354 -0.6065 0.3022
vn 0.6087 -0.7793 -0.1491
vn -0.0705 -0.9871 0.1436
vn -0.8319 -0.3616 0.4209
vn 0.8735 -0.4409 -0.2065
vn 0.9381 -0.2354 -0.2540
vn 0.8692 -0.3970 -0.2948
vn -0.7713 -0.5131 0.3767
vn -0.7294 -0.4871 0.4804
vn -0.8200 -0.4098 0.3995
vn -0.7699 -0.4144 0.4853
vn -0.6706 -0.4691 0.5747
vn 0.9483 -0.1271 -0.2910
vn -0.4866 -0.7173 0.4987
vn -0.6961 -0.6614 0.2792
vn -0.3981 -0.7310 0.5543
vn -0.3633 -0.7006 0.6141
vn -0.4887 -0.7397 0.4627
vn -0.5201 -0.6820 0.5143
vn -0.6484 -0.5860 0.4860
vn -0.4893 -0.6383 0.5943
vn 0.9705 -0.0952 -0.2217
vn 0.9504 -0.0288 -0.3097
vn -0.8917 -0.4526 -0.0111
vn 0.9317 0.0763 -0.3550
vn 0.9187 -0.0186 -0.3945
vn -0.9557 -0.2403 -0.1697
vn -0.8317 -0.3880 -0.3972
vn 0.9289 0.1780 -0.3249
vn -0.8824 -0.4418 -0.1616
vn 0.8859 0.3283 -0.3278
vn -0.9143 -0.3613 -0.1829
vn -0.9470 -0.2795 -0.1582
vn -0.8498 -0.2739 -0.4504
vn 0.8275 0.4212 -0.3711
vn -0.9675 -0.1523 -0.2016
vn -0.9091 -0.1919 -0.3698
vn 0.7111 0.6712 -0.2094
vn -0.8840 -0.0397 -0.4658
vn -0.8585 -0.0962 -0.5038
vn 0.6577 0.5665 -0.4965
vn 0.7918 0.4217 -0.4418
vn 0.8113 0.5307 -0.2451
vn 0.8673 0.4977 -0.0083
vn 0.6987 0.6283 -0.3423
vn 0.8881 0.4533 0.0763
vn 0.8850 0.4292 -0.1807
vn 0.8250 0.4717 -0.3113
vn 0.8684 0.4051 -0.2861
vn 0.8195 0.4024 -0.4081
vn -0.8273 0.0320 -0.5608
vn -0.6865 0.0802 -0.7227
vn 0.7218 0.4452 -0.5299
vn -0.7441 0.1140 -0.6583
vn 0.7339 0.5226 -0.4340
vn 0.6059 0.4762 -0.6373
vn 0.6080 0.4775 -0.6343
vn 0.7613 0.5049 -0.4068
vn -0.4659 0.1904 -0.8641
vn -0.4363 0.2188 -0.8728
vn -0.0735 0.3069 -0.9489
vn 0.6392 0.4739 -0.6057
vn 0.4916 0.4104 -0.7681
vn 0.3152 0.4054 -0.8581
vn -0.1598 0.3703 -0.9151
vn 0.1214 0.4013 -0.9079
vn -0.2242 -0.9625 0.1528
vn 0.2566 -0.9664 0.0146
vn -0.7654 -0.4745 0.4348
vn -0.5461 -0.8186 0.1780
vn 0.7626 -0.5805 -0.2855
vn -0.6001 -0.5474 0.5833
vn -0.7197 -0.6269 0.2985
vn -0.7956 -0.4961 0.3478
vn -0.5081 -0.6484 0.5669
vn -0.5584 -0.5390 0.6306
vn 0.9194 -0.1696 -0.3548
vn -0.4420 -0.7220 0.5323
vn -0.6068 -0.7160 0.3452
vn -0.8808 -0.4698 0.0593
vn 0.8851 0.1022 -0.4541
vn -0.9439 -0.0848 -0.3191
vn -0.9001 -0.2173 -0.3776
vn -0.9516 -0.0314 -0.3057
vn -0.8781 -0.2222 -0.4237
vn -0.7978 -0.4663 -0.3822
vn -0.6651 -0.4558 -0.5915
vn 0.8751 0.2702 -0.4016
vn 0.8730 0.2050 -0.4426
vn -0.8211 -0.4265 -0.3794
vn -0.8404 -0.3469 -0.4165
vn -0.7575 -0.4071 -0.5103
vn 0.8333 0.2814 -0.4758
vn -0.7355 -0.3045 -0.6053
vn -0.7242 -0.1942 -0.6617
vn 0.7700 0.5392 -0.3410
vn 0.7087 0.5921 -0.3836
vn -0.7749 -0.1373 -0.6171
vn -0.6066 -0.0948 -0.7894
vn -0.6413 -0.0569 -0.7651
vn -0.7047 -0.0023 -0.7095
vn 0.6484 0.5835 -0.4890
vn -0.4629 0.1174 -0.8786
vn -0.5142 0.0188 -0.8575
vn -0.2796 0.1076 -0.9541
vn 0.6622 0.4333 -0.6114
vn -0.2139 0.2104 -0.9539
vn 0.7239 0.3860 -0.5719
vn 0.2101 0.3310 -0.9199
vn 0.4283 0.4031 -0.8088
vn 0.5776 0.4000 -0.7116
vn -0.0172 0.2683 -0.9632
vn 0.1232 0.3489 -0.9290
vn -0.4212 -0.8901 0.1743
vn -0.1130 -0.9931 -0.0308
vn 0.0192 -0.9997 0.0181
vn 0.3871 -0.9081 -0.1600
vn 0.7692 -0.4956 -0.4034
vn 0.8471 -0.3115 -0.4306
vn -0.5142 -0.5200 0.6820
vn -0.5160 -0.5471 0.6591
vn -0.6920 -0.5132 0.5077
vn -0.6727 -0.5826 0.4562
vn -0.8256 -0.4917 0.2769
vn -0.6050 -0.5525 0.5734
vn 0.8665 -0.1017 -0.4887
vn -0.8619 -0.4748 0.1780
vn 0.8610 0.0238 -0.5081
vn -0.9741 -0.2211 -0.0471
vn -0.9652 -0.2432 -0.0958
vn -0.9902 -0.0553 -0.1285
vn -0.9752 0.0762 -0.2077
vn -0.9864 -0.0774 -0.1449
vn -0.9265 -0.0011 -0.3764
vn -0.9198 -0.0272 -0.3914
vn -0.9460 -0.0830 -0.3134
vn 0.8166 0.1581 -0.5551
vn -0.7329 -0.2201 -0.6438
vn -0.8478 -0.0983 -0.5211
vn -0.6457 -0.3266 -0.6902
vn -0.5302 -0.2880 -0.7975
vn -0.5913 -0.2903 -0.7524
vn -0.6640 -0.4580 -0.5911
vn -0.4016 -0.1216 -0.9077
vn -0.6227 -0.2446 -0.7432
vn -0.4891 -0.1721 -0.8551
vn -0.3096 -0.0461 -0.9498
vn 0.7841 0.3919 -0.4811
vn 0.7342 0.3341 -0.5910
vn -0.6298 -0.1703 -0.7578
vn -0.4523 -0.0399 -0.8910
vn -0.4565 -0.1115 -0.8827
vn -0.2735 0.0232 -0.9616
vn -0.2631 -0.0424 -0.9638
vn -0.1143 0.0777 -0.9904
vn 0.4975 0.4877 -0.7174
vn 0.6100 0.5228 -0.5955
vn 0.7255 0.5010 -0.4718
vn -0.1184 0.1492 -0.9817
vn 0.0611 0.2431 -0.9681
vn 0.0843 0.2004 -0.9761
vn 0.0146 0.1753 -0.9844
vn 0.3355 0.3164 -0.8873
vn 0.3424 0.3682 -0.8644
vn 0.4972 0.5337 -0.6841
vn 0.5398 0.5698 -0.6196
vn -0.6947 -0.7181 0.0416
vn -0.5896 -0.7967 0.1325
vn -0.4269 -0.8748 -0.2292
vn -0.7642 -0.5969 0.2444
vn -0.7120 -0.6502 -0.2653
vn -0.4726 -0.7455 -0.4700
vn -0.3255 -0.9376 -0.1223
vn 0.1299 -0.9208 -0.3677
vn 0.4685 -0.7684 -0.4360
vn 0.2391 -0.7070 -0.6656
vn -0.0298 -0.8768 -0.4799
vn -0.7954 -0.6051 0.0350
vn -0.7831 -0.5819 0.2195
vn 0.4839 -0.6302 -0.6072
vn 0.6991 -0.5073 -0.5038
vn 0.7490 -0.3208 -0.5797
vn 0.6048 -0.4386 -0.6647
vn 0.6576 -0.2801 -0.6994
vn 0.6315 -0.7104 -0.3108
vn -0.8581 -0.4971 0.1284
vn -0.8825 -0.4690 -0.0356
vn -0.8899 -0.4288 -0.1557
vn -0.8556 -0.3840 -0.3471
vn -0.8574 -0.5099 -0.0697
vn -0.8448 -0.4128 -0.3406
vn 0.7931 -0.1343 -0.5941
vn -0.8863 -0.4553 -0.0851
vn 0.7822 0.0265 -0.6224
vn -0.8822 -0.4218 -0.2095
vn -0.9299 -0.3547 -0.0971
vn -0.8953 -0.2484 -0.3697
vn -0.8697 -0.1007 -0.4832
vn -0.8345 -0.2927 -0.4668
vn -0.7257 -0.0750 -0.6839
vn -0.6896 -0.2155 -0.6914
vn -0.5257 -0.0625 -0.8484
vn -0.6424 -0.0326 -0.7657
vn -0.4271 0.0014 -0.9042
vn -0.8315 -0.0563 -0.5527
vn -0.5818 -0.0263 -0.8129
vn -0.3339 0.1043 -0.9368
vn 0.7177 0.1942 -0.6687
vn -0.6512 -0.0030 -0.7589
vn -0.5680 0.0721 -0.8198
vn -0.3525 0.1357 -0.9259
vn 0.7239 0.2438 -0.6454
vn 0.5081 0.2749 -0.8163
vn 0.4464 0.2285 -0.8652
vn -0.4374 -0.1562 -0.8856
vn -0.2784 0.0345 -0.9598
vn -0.5231 -0.0805 -0.8484
vn -0.1955 0.2408 -0.9507
vn -0.1244 0.2478 -0.9608
vn 0.5479 0.3474 -0.7610
vn 0.3544 0.3507 -0.8668
vn -0.2827 0.0022 -0.9592
vn -0.1515 0.0756 -0.9856
vn 0.3197 0.3672 -0.8735
vn 0.1849 0.3235 -0.9280
vn 0.4654 0.4330 -0.7720
vn 0.6185 0.4495 -0.6445
vn -0.1734 0.0261 -0.9845
vn 0.0012 0.1819 -0.9833
vn 0.1991 0.2988 -0.9333
vn 0.1160 0.3008 -0.9466
vn 0.3646 0.4099 -0.8361
vn -0.7823 -0.6097 -0.1276
vn -0.0781 -0.7175 -0.6922
vn -0.5105 -0.5415 -0.6679
vn -0.2127 -0.4992 -0.8399
vn -0.8075 -0.5154 -0.2870
vn -0.6905 -0.4988 -0.5238
vn -0.4580 -0.4561 -0.7630
vn 0.1489 -0.4498 -0.8806
vn 0.0690 -0.3108 -0.9480
vn 0.2670 -0.2472 -0.9314
vn -0.1485 -0.3782 -0.9137
vn 0.3841 -0.4979 -0.7775
vn 0.5333 -0.2915 -0.7941
vn 0.3718 -0.3046 -0.8769
vn -0.7444 -0.3093 -0.5918
vn -0.7052 -0.2582 -0.6604
vn -0.6579 -0.3437 -0.6701
vn -0.5675 -0.1309 -0.8129
vn -0.5298 -0.1867 -0.8273
vn 0.5076 -0.1770 -0.8432
vn 0.6824 -0.1085 -0.7229
vn 0.5481 -0.0536 -0.8347
vn 0.4223 -0.1592 -0.8924
vn -0.5355 -0.1394 -0.8330
vn -0.3651 -0.0230 -0.9307
vn 0.7538 0.0882 -0.6511
vn 0.6393 0.0334 -0.7682
vn -0.3609 0.0384 -0.9318
vn -0.2120 0.0856 -0.9735
vn 0.6227 0.1212 -0.7730
vn 0.5477 0.1965 -0.8132
vn 0.4444 0.1385 -0.8851
vn 0.4636 0.0817 -0.8823
vn 0.2736 0.1145 -0.9550
vn 0.3257 0.1704 -0.9300
vn 0.0077 0.2047 -0.9788
vn -0.0461 0.1573 -0.9865
vn 0.1695 0.2100 -0.9629
vn 0.0187 0.1376 -0.9903
vn 0.3431 0.2090 -0.9157
vn 0.1856 0.1577 -0.9699
vn -0.2260 0.1085 -0.9681
vn -0.1776 0.1514 -0.9724
vn 0.2173 0.2805 -0.9349
vn 0.3261 0.2587 -0.9092
vn -0.0124 0.2756 -0.9612
vn -0.4107 -0.0799 -0.9082
vn -0.4577 -0.3408 -0.8212
vn -0.2995 -0.1730 -0.9383
vn -0.2411 -0.0363 -0.9698
vn -0.2221 -0.3093 -0.9247
vn -0.0682 -0.2391 -0.9686
vn -0.0884 -0.1275 -0.9879
vn 0.1029 -0.1391 -0.9849
vn 0.2698 -0.1599 -0.9496
vn -0.0264 -0.0023 -0.9996
vn 0.3702 -0.0354 -0.9283
vn 0.2440 0.0218 -0.9695
vn 0.0713 0.0844 -0.9939
vn -0.1582 0.0543 -0.9859
s 1
usemtl mtl1.145
f 1//1 2//2 5//3
f 2//2 7//4 5//3
f 1//1 41//5 2//2
f 52//6 54//7 3//8
f 1//1 4//9 3//8
f 11//10 52//6 3//8
f 4//9 11//10 3//8
f 1//1 5//3 4//9
f 7//4 6//11 5//3
f 56//12 9//13 6//11
f 4//9 8//14 11//10
f 8//14 4//9 5//3
f 6//11 12//15 5//3
f 9//13 68//16 14//17
f 66//18 10//19 15//20
f 17//21 16//22 8//14
f 11//10 8//14 15//20
f 8//14 16//22 15//20
f 15//20 10//19 11//10
f 8//14 12//15 17//21
f 8//14 5//3 12//15
f 12//15 6//11 13//23
f 6//11 9//13 13//23
f 9//13 14//17 13//23
f 69//24 14//17 68//16
f 21//25 16//22 20//26
f 15//20 75//27 66//18
f 20//26 16//22 17//21
f 15//20 16//22 21//25
f 12//15 23//28 17//21
f 23//28 12//15 13//23
f 78//29 19//30 77//31
f 21//25 20//26 18//32
f 18//32 19//30 21//25
f 19//30 18//32 77//31
f 15//20 76//33 75//27
f 21//25 76//33 15//20
f 19//30 76//33 21//25
f 22//34 24//35 20//26
f 20//26 24//35 18//32
f 22//34 20//26 17//21
f 24//35 22//34 29//36
f 17//21 23//28 22//34
f 13//23 26//37 23//28
f 14//17 26//37 13//23
f 18//32 24//35 77//31
f 77//31 24//35 89//38
f 22//34 23//28 29//36
f 29//36 23//28 25//39
f 25//39 34//40 29//36
f 23//28 26//37 25//39
f 14//17 28//41 26//37
f 28//41 27//42 26//37
f 14//17 69//24 28//41
f 28//41 33//43 27//42
f 69//24 79//44 28//41
f 69//24 80//45 79//44
f 30//46 89//38 24//35
f 24//35 29//36 30//46
f 29//36 34//40 30//46
f 34//40 90//47 30//46
f 25//39 31//48 34//40
f 25//39 26//37 31//48
f 26//37 27//42 31//48
f 31//48 27//42 32//49
f 34//40 31//48 35//50
f 32//49 27//42 33//43
f 31//48 32//49 35//50
f 89//38 30//46 90//47
f 90//47 34//40 96//51
f 35//50 96//51 34//40
f 32//49 84//52 35//50
f 49//53 36//54 37//55
f 54//7 39//56 38//57
f 3//8 54//7 38//57
f 1//1 3//8 38//57
f 39//56 45//58 38//57
f 40//59 45//58 39//56
f 40//59 39//56 54//7
f 40//59 54//7 101//60
f 42//61 47//62 43//63
f 41//5 1//1 38//57
f 2//2 41//5 42//61
f 42//61 43//63 2//2
f 43//63 44//64 2//2
f 2//2 44//64 7//4
f 44//64 57//65 56//12
f 7//4 44//64 56//12
f 38//57 45//58 41//5
f 42//61 41//5 45//58
f 47//62 42//61 45//58
f 47//62 48//66 43//63
f 44//64 43//63 46//67
f 43//63 48//66 46//67
f 44//64 46//67 57//65
f 57//65 46//67 58//68
f 49//53 47//62 45//58
f 47//62 50//69 48//66
f 49//53 45//58 40//59
f 37//55 47//62 49//53
f 37//55 50//69 47//62
f 48//66 50//69 51//70
f 48//66 51//70 46//67
f 50//69 37//55 100//71
f 50//69 100//71 51//70
f 40//59 36//54 49//53
f 36//54 40//59 157//72
f 46//67 51//70 58//68
f 52//6 53//73 55//74
f 53//73 52//6 61//75
f 55//74 53//73 104//76
f 54//7 52//6 55//74
f 6//11 7//4 56//12
f 57//65 64//77 56//12
f 56//12 64//77 63//78
f 63//78 9//13 56//12
f 58//68 64//77 57//65
f 106//79 64//77 58//68
f 107//80 65//81 64//77
f 106//79 107//80 64//77
f 59//82 61//75 52//6
f 61//75 59//82 60//83
f 62//84 61//75 60//83
f 67//85 62//84 60//83
f 53//73 61//75 108//86
f 62//84 108//86 61//75
f 62//84 67//85 111//87
f 111//87 108//86 62//84
f 59//82 52//6 11//10
f 53//73 108//86 104//76
f 68//16 9//13 63//78
f 70//88 63//78 64//77
f 63//78 70//88 68//16
f 65//81 70//88 64//77
f 60//83 66//18 67//85
f 59//82 10//19 66//18
f 60//83 59//82 66//18
f 11//10 10//19 59//82
f 67//85 110//89 111//87
f 71//90 69//24 68//16
f 70//88 71//90 68//16
f 72//91 71//90 70//88
f 72//91 73//92 71//90
f 73//92 74//93 71//90
f 65//81 72//91 70//88
f 113//94 72//91 65//81
f 113//94 73//92 72//91
f 66//18 75//27 116//95
f 66//18 116//95 67//85
f 69//24 71//90 80//45
f 74//93 80//45 71//90
f 73//92 117//96 74//93
f 122//97 119//98 75//27
f 78//29 75//27 19//30
f 75//27 76//33 19//30
f 77//31 88//99 78//29
f 122//97 78//29 88//99
f 78//29 122//97 75//27
f 33//43 28//41 79//44
f 80//45 33//43 79//44
f 81//100 74//93 125//101
f 74//93 81//100 80//45
f 123//102 88//99 87//103
f 32//49 33//43 85//104
f 85//104 33//43 82//105
f 80//45 82//105 33//43
f 82//105 80//45 83//106
f 83//106 86//107 82//105
f 127//108 86//107 83//106
f 83//106 81//100 125//101
f 83//106 125//101 127//108
f 81//100 83//106 80//45
f 94//109 88//99 77//31
f 77//31 89//38 94//109
f 84//52 85//104 92//110
f 84//52 32//49 85//104
f 85//104 86//107 92//110
f 86//107 85//104 82//105
f 92//110 86//107 130//111
f 89//38 95//112 94//109
f 90//47 95//112 89//38
f 35//50 97//113 96//51
f 84//52 92//110 91//114
f 35//50 84//52 91//114
f 92//110 129//115 91//114
f 92//110 130//111 129//115
f 137//116 87//103 88//99
f 88//99 93//117 137//116
f 88//99 94//109 93//117
f 94//109 140//118 139//119
f 139//119 93//117 94//109
f 95//112 96//51 94//109
f 94//109 96//51 140//118
f 142//120 140//118 98//121
f 95//112 90//47 96//51
f 97//113 35//50 91//114
f 137//116 93//117 146//122
f 96//51 98//121 140//118
f 96//51 97//113 98//121
f 98//121 97//113 132//123
f 157//72 99//124 36//54
f 37//55 36//54 99//124
f 99//124 100//71 37//55
f 101//60 54//7 55//74
f 157//72 101//60 161//125
f 157//72 40//59 101//60
f 102//126 106//79 58//68
f 103//127 102//126 51//70
f 58//68 51//70 102//126
f 103//127 164//128 102//126
f 106//79 102//126 164//128
f 51//70 100//71 103//127
f 163//129 103//127 100//71
f 164//128 103//127 235//130
f 235//130 103//127 163//129
f 104//76 105//131 55//74
f 101//60 55//74 105//131
f 105//131 104//76 109//132
f 166//133 107//80 106//79
f 106//79 238//134 166//133
f 108//86 111//87 109//132
f 109//132 111//87 112//135
f 104//76 108//86 109//132
f 113//94 65//81 107//80
f 166//133 113//94 107//80
f 110//89 67//85 116//95
f 173//136 110//89 116//95
f 110//89 112//135 111//87
f 117//96 73//92 113//94
f 114//137 117//96 113//94
f 115//138 171//139 116//95
f 75//27 115//138 116//95
f 116//95 171//139 173//136
f 181//140 74//93 117//96
f 121//141 118//142 119//98
f 176//143 119//98 118//142
f 119//98 176//143 75//27
f 74//93 181//140 125//101
f 122//97 88//99 123//102
f 123//102 121//141 120//144
f 122//97 120//144 119//98
f 120//144 121//141 119//98
f 120//144 122//97 123//102
f 126//145 121//141 123//102
f 126//145 123//102 87//103
f 125//101 128//146 127//108
f 128//146 125//101 124//147
f 181//140 124//147 125//101
f 138//148 126//145 87//103
f 128//146 131//149 127//108
f 133//150 91//114 129//115
f 136//151 129//115 130//111
f 131//149 136//151 130//111
f 136//151 131//149 182//152
f 127//108 130//111 86//107
f 127//108 131//149 130//111
f 138//148 87//103 137//116
f 97//113 91//114 132//123
f 132//123 91//114 133//150
f 133//150 135//153 132//123
f 133//150 134//154 135//153
f 134//154 185//155 135//153
f 135//153 185//155 186//156
f 133//150 129//115 134//154
f 134//154 129//115 136//151
f 134//154 136//151 185//155
f 136//151 182//152 185//155
f 138//148 137//116 145//157
f 139//119 146//122 93//117
f 140//118 147//158 139//119
f 140//118 142//120 141//159
f 140//118 141//159 148//160
f 132//123 142//120 98//121
f 141//159 142//120 143//161
f 142//120 132//123 143//161
f 190//162 141//159 143//161
f 190//162 143//161 191//163
f 135//153 188//164 132//123
f 188//164 135//153 186//156
f 145//157 146//122 151//165
f 137//116 146//122 145//157
f 149//166 146//122 139//119
f 194//167 139//119 147//158
f 140//118 148//160 147//158
f 150//168 144//169 138//148
f 150//168 197//170 144//169
f 149//166 139//119 193//171
f 153//172 150//168 145//157
f 145//157 150//168 138//148
f 145//157 151//165 152//173
f 151//165 149//166 201//174
f 149//166 151//165 146//122
f 149//166 193//171 201//174
f 155//175 199//176 153//172
f 152//173 153//172 145//157
f 155//175 152//173 154//177
f 151//165 209//178 156//179
f 151//165 156//179 152//173
f 154//177 152//173 156//179
f 153//172 152//173 155//175
f 151//165 201//174 209//178
f 205//180 155//175 154//177
f 154//177 156//179 213//181
f 199//176 155//175 205//180
f 205//180 154//177 206//182
f 159//183 158//184 99//124
f 100//71 99//124 158//184
f 160//185 100//71 158//184
f 230//186 157//72 161//125
f 99//124 232//187 159//183
f 232//187 158//184 159//183
f 160//185 163//129 100//71
f 235//130 163//129 160//185
f 161//125 101//60 162//188
f 234//189 161//125 162//188
f 162//188 165//190 234//189
f 238//134 106//79 164//128
f 237//191 165//190 168//192
f 165//190 162//188 101//60
f 101//60 105//131 165//190
f 328//193 166//133 238//134
f 169//194 109//132 167//195
f 167//195 109//132 112//135
f 168//192 105//131 109//132
f 165//190 105//131 168//192
f 169//194 168//192 109//132
f 237//191 168//192 241//196
f 166//133 114//137 113//94
f 328//193 114//137 166//133
f 177//197 242//198 170//199
f 170//199 171//139 115//138
f 243//200 170//199 242//198
f 170//199 172//201 171//139
f 173//136 171//139 172//201
f 173//136 239//202 174//203
f 173//136 174//203 110//89
f 174//203 112//135 110//89
f 167//195 112//135 174//203
f 239//202 167//195 174//203
f 239//202 240//204 167//195
f 117//96 114//137 245//205
f 245//205 248//206 117//96
f 118//142 175//207 176//143
f 175//207 118//142 178//208
f 175//207 246//209 177//197
f 175//207 247//210 246//209
f 247//210 175//207 178//208
f 75//27 176//143 115//138
f 170//199 115//138 177//197
f 177//197 115//138 176//143
f 177//197 176//143 175//207
f 117//96 248//206 181//140
f 178//208 118//142 121//141
f 251//211 247//210 180//212
f 344//213 247//210 251//211
f 178//208 121//141 180//212
f 247//210 178//208 180//212
f 248//206 249//214 181//140
f 179//215 180//212 121//141
f 179//215 121//141 126//145
f 251//211 180//212 179//215
f 181//140 249//214 253//216
f 124//147 253//216 183//217
f 124//147 183//217 128//146
f 253//216 124//147 181//140
f 184//218 179//215 126//145
f 179//215 184//218 254//219
f 138//148 184//218 126//145
f 128//146 182//152 131//149
f 256//220 182//152 183//217
f 183//217 182//152 128//146
f 265//221 184//218 144//169
f 254//219 184//218 265//221
f 185//155 187//222 186//156
f 185//155 261//223 187//222
f 267//224 186//156 187//222
f 185//155 182//152 261//223
f 182//152 256//220 261//223
f 265//221 144//169 197//170
f 144//169 184//218 138//148
f 191//163 143//161 188//164
f 143//161 132//123 188//164
f 191//163 188//164 192//225
f 188//164 186//156 267//224
f 192//225 188//164 267//224
f 147//158 148//160 194//167
f 194//167 148//160 189//226
f 141//159 189//226 148//160
f 189//226 141//159 190//162
f 190//162 191//163 418//227
f 194//167 193//171 139//119
f 269//228 194//167 189//226
f 195//229 196//230 197//170
f 153//172 195//229 197//170
f 195//229 153//172 199//176
f 200//231 195//229 199//176
f 266//232 197//170 196//230
f 195//229 200//231 196//230
f 197//170 150//168 153//172
f 204//233 198//234 203//235
f 273//236 198//234 204//233
f 199//176 203//235 200//231
f 196//230 200//231 198//234
f 198//234 200//231 203//235
f 271//237 196//230 198//234
f 271//237 198//234 273//236
f 202//238 199//176 205//180
f 207//239 202//238 205//180
f 199//176 202//238 203//235
f 207//239 208//240 202//238
f 203//235 202//238 208//240
f 278//241 204//233 203//235
f 278//241 203//235 208//240
f 273//236 204//233 278//241
f 193//171 275//242 201//174
f 207//239 205//180 206//182
f 206//182 213//181 211//243
f 212//244 208//240 207//239
f 154//177 213//181 206//182
f 213//181 156//179 209//178
f 209//178 214//245 213//181
f 201//174 215//246 209//178
f 215//246 201//174 210//247
f 201//174 275//242 210//247
f 217//248 212//244 211//243
f 212//244 217//248 218//249
f 208//240 218//249 283//250
f 208//240 212//244 218//249
f 278//241 208//240 283//250
f 213//181 214//245 211//243
f 211//243 212//244 207//239
f 206//182 211//243 207//239
f 279//251 288//252 215//246
f 215//246 221//253 219//254
f 214//245 209//178 219//254
f 219//254 209//178 215//246
f 279//251 215//246 210//247
f 222//255 294//256 218//249
f 211//243 216//257 217//248
f 211//243 214//245 216//257
f 214//245 219//254 216//257
f 216//257 226//258 217//248
f 222//255 218//249 217//248
f 226//258 216//257 227//259
f 219//254 227//259 216//257
f 219//254 220//260 227//259
f 227//259 220//260 310//261
f 219//254 221//253 220//260
f 223//262 222//255 217//248
f 226//258 223//262 217//248
f 225//263 294//256 222//255
f 223//262 225//263 222//255
f 224//264 225//263 223//262
f 226//258 224//264 223//262
f 224//264 226//258 229//265
f 298//266 294//256 225//263
f 298//266 225//263 295//267
f 295//267 225//263 224//264
f 296//268 295//267 224//264
f 229//265 296//268 224//264
f 296//268 229//265 308//269
f 228//270 226//258 227//259
f 229//265 226//258 228//270
f 310//261 220//260 288//252
f 229//265 228//270 309//271
f 310//261 228//270 227//259
f 309//271 228//270 310//261
f 308//269 229//265 309//271
f 157//72 230//186 231//272
f 230//186 161//125 234//189
f 381//273 230//186 322//274
f 232//187 99//124 231//272
f 99//124 157//72 231//272
f 323//275 158//184 232//187
f 323//275 160//185 158//184
f 232//187 231//272 233//276
f 230//186 233//276 231//272
f 233//276 323//275 232//187
f 160//185 323//275 383//277
f 160//185 383//277 324//278
f 381//273 323//275 233//276
f 381//273 233//276 230//186
f 160//185 324//278 235//130
f 322//274 234//189 237//191
f 165//190 237//191 234//189
f 386//279 235//130 324//278
f 235//130 236//280 164//128
f 236//280 238//134 164//128
f 386//279 236//280 235//130
f 327//281 238//134 236//280
f 245//205 114//137 328//193
f 328//193 238//134 327//281
f 240//204 169//194 167//195
f 241//196 169//194 240//204
f 168//192 169//194 241//196
f 242//198 177//197 345//282
f 170//199 244//283 172//201
f 172//201 244//283 173//136
f 244//283 170//199 342//284
f 173//136 244//283 239//202
f 341//285 239//202 244//283
f 343//286 248//206 245//205
f 345//282 177//197 246//209
f 246//209 247//210 344//213
f 344//213 345//282 246//209
f 249//214 248//206 343//286
f 346//287 344//213 348//288
f 348//288 344//213 251//211
f 251//211 179//215 250//289
f 251//211 250//289 348//288
f 349//290 257//291 253//216
f 253//216 249//214 349//290
f 349//290 249//214 347//292
f 252//293 250//289 179//215
f 348//288 250//289 252//293
f 348//288 252//293 404//294
f 257//291 349//290 350//295
f 253//216 257//291 183//217
f 258//296 260//297 255//298
f 254//219 258//296 255//298
f 252//293 254//219 255//298
f 179//215 254//219 252//293
f 257//291 256//220 183//217
f 257//291 263//299 256//220
f 254//219 265//221 258//296
f 258//296 259//300 260//297
f 262//301 187//222 261//223
f 352//302 262//301 261//223
f 352//302 351//303 262//301
f 263//299 261//223 256//220
f 263//299 352//302 261//223
f 264//304 266//232 271//237
f 265//221 197//170 266//232
f 265//221 266//232 258//296
f 259//300 258//296 266//232
f 266//232 264//304 259//300
f 268//305 267//224 187//222
f 268//305 187//222 262//301
f 192//225 267//224 268//305
f 192//225 268//305 418//227
f 351//303 268//305 262//301
f 196//230 271//237 266//232
f 353//306 189//226 190//162
f 190//162 418//227 353//306
f 418//227 191//163 192//225
f 270//307 269//228 189//226
f 272//308 193//171 194//167
f 272//308 194//167 269//228
f 273//236 360//309 271//237
f 273//236 278//241 274//310
f 360//309 273//236 274//310
f 361//311 360//309 274//310
f 281//312 275//242 276//313
f 281//312 276//313 282//314
f 363//315 282//314 277//316
f 276//313 193//171 272//308
f 275//242 193//171 276//313
f 282//314 276//313 277//316
f 276//313 272//308 277//316
f 365//317 277//316 272//308
f 284//318 361//311 274//310
f 374//319 361//311 284//318
f 278//241 283//250 274//310
f 284//318 274//310 283//250
f 279//251 289//320 288//252
f 289//320 279//251 280//321
f 291//322 289//320 280//321
f 282//314 280//321 281//312
f 282//314 372//323 293//324
f 282//314 293//324 280//321
f 379//325 293//324 372//323
f 279//251 210//247 281//312
f 210//247 275//242 281//312
f 279//251 281//312 280//321
f 218//249 294//256 283//250
f 283//250 294//256 297//326
f 284//318 283//250 297//326
f 297//326 285//327 284//318
f 285//327 297//326 302//328
f 374//319 284//318 285//327
f 286//329 374//319 285//327
f 305//330 286//329 285//327
f 286//329 305//330 307//331
f 286//329 375//332 374//319
f 287//333 375//332 286//329
f 307//331 287//333 286//329
f 221//253 288//252 220//260
f 310//261 288//252 289//320
f 289//320 290//334 313//335
f 291//322 290//334 289//320
f 292//336 290//334 291//322
f 292//336 321//337 318//338
f 221//253 215//246 288//252
f 293//324 379//325 292//336
f 292//336 379//325 378//339
f 292//336 378//339 321//337
f 291//322 293//324 292//336
f 293//324 291//322 280//321
f 294//256 298//266 297//326
f 298//266 295//267 299//340
f 299//340 295//267 296//268
f 300//341 299//340 296//268
f 296//268 301//342 300//341
f 296//268 308//269 301//342
f 302//328 297//326 298//266
f 302//328 298//266 299//340
f 303//343 302//328 299//340
f 303//343 299//340 300//341
f 304//344 303//343 300//341
f 301//342 304//344 300//341
f 304//344 301//342 311//345
f 304//344 311//345 314//346
f 285//327 302//328 305//330
f 306//347 305//330 303//343
f 303//343 305//330 302//328
f 306//347 303//343 304//344
f 306//347 314//346 316//348
f 304//344 314//346 306//347
f 305//330 306//347 307//331
f 307//331 306//347 316//348
f 307//331 316//348 319//349
f 319//349 287//333 307//331
f 309//271 312//350 308//269
f 312//350 309//271 313//335
f 309//271 310//261 313//335
f 301//342 308//269 311//345
f 311//345 308//269 312//350
f 289//320 313//335 310//261
f 313//335 318//338 312//350
f 314//346 311//345 315//351
f 311//345 312//350 315//351
f 318//338 315//351 312//350
f 317//352 316//348 314//346
f 317//352 315//351 318//338
f 317//352 314//346 315//351
f 316//348 317//352 320//353
f 320//353 317//352 321//337
f 317//352 318//338 321//337
f 319//349 316//348 320//353
f 320//353 380//354 319//349
f 321//337 380//354 320//353
f 313//335 290//334 318//338
f 292//336 318//338 290//334
f 322//274 499//355 381//273
f 324//278 383//277 384//356
f 382//357 323//275 381//273
f 384//356 386//279 324//278
f 237//191 385//358 322//274
f 230//186 234//189 322//274
f 327//281 236//280 325//359
f 325//359 329//360 327//281
f 386//279 325//359 236//280
f 442//361 329//360 325//359
f 337//362 338//363 326//364
f 326//364 338//363 388//365
f 388//365 338//363 389//366
f 237//191 241//196 326//364
f 385//358 237//191 326//364
f 388//365 385//358 326//364
f 329//360 328//193 327//281
f 328//193 329//360 395//367
f 331//368 242//198 330//369
f 333//370 331//368 335//371
f 330//369 332//372 331//368
f 331//368 332//372 335//371
f 334//373 336//374 341//285
f 333//370 334//373 342//284
f 341//285 342//284 334//373
f 336//374 334//373 393//375
f 334//373 333//370 393//375
f 393//375 333//370 335//371
f 239//202 341//285 336//374
f 240//204 239//202 337//362
f 337//362 239//202 336//374
f 337//362 336//374 338//363
f 337//362 241//196 240//204
f 326//364 241//196 337//362
f 395//367 339//376 328//193
f 395//367 396//377 339//376
f 242//198 345//282 330//369
f 243//200 242//198 331//368
f 170//199 243//200 342//284
f 243//200 331//368 333//370
f 342//284 341//285 244//283
f 342//284 243//200 333//370
f 339//376 245//205 328//193
f 339//376 343//286 245//205
f 339//376 396//377 343//286
f 340//378 345//282 344//213
f 343//286 347//292 249//214
f 397//379 347//292 343//286
f 447//380 397//379 396//377
f 396//377 397//379 343//286
f 344//213 346//287 340//378
f 346//287 449//381 340//378
f 400//382 346//287 348//288
f 347//292 399//383 349//290
f 404//294 400//382 348//288
f 402//384 255//298 260//297
f 252//293 402//384 404//294
f 402//384 252//293 255//298
f 350//295 405//385 257//291
f 405//385 263//299 257//291
f 406//386 409//387 411//388
f 409//387 406//386 259//300
f 260//297 406//386 402//384
f 406//386 260//297 259//300
f 478//389 351//303 352//302
f 352//302 405//385 478//389
f 405//385 352//302 263//299
f 264//304 409//387 259//300
f 351//303 418//227 268//305
f 264//304 271//237 354//390
f 409//387 264//304 354//390
f 410//391 409//387 354//390
f 353//306 418//227 417//392
f 421//393 415//394 354//390
f 420//395 426//396 355//397
f 358//398 270//307 353//306
f 358//398 269//228 270//307
f 355//397 358//398 353//306
f 355//397 353//306 416//399
f 270//307 189//226 353//306
f 360//309 354//390 271//237
f 356//400 272//308 269//228
f 356//400 357//401 365//317
f 357//401 356//400 358//398
f 366//402 365//317 357//401
f 359//403 424//404 357//401
f 357//401 424//404 366//402
f 426//396 424//404 359//403
f 269//228 358//398 356//400
f 355//397 359//403 358//398
f 358//398 359//403 357//401
f 426//396 359//403 355//397
f 421//393 360//309 362//405
f 354//390 360//309 421//393
f 422//406 421//393 362//405
f 272//308 356//400 365//317
f 424//404 428//407 366//402
f 361//311 362//405 360//309
f 367//408 362//405 361//311
f 363//315 366//402 364//409
f 366//402 428//407 364//409
f 431//410 371//411 364//409
f 364//409 371//411 370//412
f 363//315 277//316 365//317
f 365//317 366//402 363//315
f 367//408 361//311 374//319
f 362//405 367//408 423//413
f 367//408 368//414 423//413
f 368//414 432//415 423//413
f 373//416 370//412 371//411
f 369//417 373//416 371//411
f 282//314 364//409 370//412
f 364//409 282//314 363//315
f 378//339 369//417 433//418
f 372//323 373//416 379//325
f 378//339 379//325 373//416
f 369//417 378//339 373//416
f 370//412 372//323 282//314
f 373//416 372//323 370//412
f 375//332 367//408 374//319
f 367//408 375//332 368//414
f 375//332 287//333 376//419
f 287//333 319//349 376//419
f 380//354 376//419 319//349
f 376//419 368//414 375//332
f 432//415 376//419 377//420
f 376//419 380//354 377//420
f 433//418 377//420 378//339
f 378//339 377//420 380//354
f 376//419 432//415 368//414
f 377//420 433//418 432//415
f 321//337 378//339 380//354
f 382//357 381//273 435//421
f 382//357 435//421 436//422
f 499//355 322//274 512//423
f 501//424 381//273 499//355
f 383//277 323//275 382//357
f 384//356 438//425 386//279
f 436//422 383//277 382//357
f 384//356 383//277 436//422
f 322//274 385//358 512//423
f 442//361 386//279 438//425
f 386//279 442//361 325//359
f 444//426 390//427 443//428
f 394//429 444//426 393//375
f 393//375 444//426 387//430
f 512//423 385//358 388//365
f 388//365 389//366 512//423
f 445//431 329//360 442//361
f 445//431 395//367 329//360
f 330//369 345//282 340//378
f 391//432 335//371 332//372
f 332//372 392//433 391//432
f 392//433 394//429 391//432
f 392//433 330//369 390//427
f 392//433 332//372 330//369
f 392//433 390//427 394//429
f 393//375 335//371 391//432
f 393//375 391//432 394//429
f 394//429 390//427 444//426
f 338//363 387//430 389//366
f 393//375 387//430 336//374
f 387//430 338//363 336//374
f 395//367 447//380 396//377
f 446//434 340//378 449//381
f 457//435 397//379 447//380
f 450//436 449//381 346//287
f 457//435 399//383 397//379
f 398//437 346//287 400//382
f 456//438 346//287 398//437
f 400//382 459//439 398//437
f 450//436 346//287 456//438
f 347//292 397//379 399//383
f 400//382 401//440 461//441
f 404//294 401//440 400//382
f 470//442 405//385 350//295
f 399//383 350//295 349//290
f 399//383 470//442 350//295
f 458//443 470//442 399//383
f 402//384 403//444 404//294
f 403//444 402//384 407//445
f 403//444 460//446 404//294
f 404//294 460//446 401//440
f 468//447 478//389 405//385
f 470//442 468//447 405//385
f 411//388 407//445 406//386
f 402//384 406//386 407//445
f 471//448 407//445 411//388
f 411//388 413//449 471//448
f 407//445 471//448 403//444
f 408//450 351//303 478//389
f 351//303 408//450 414//451
f 409//387 410//391 411//388
f 411//388 412//452 413//449
f 412//452 411//388 410//391
f 479//453 413//449 412//452
f 418//227 351//303 414//451
f 415//394 412//452 410//391
f 412//452 415//394 483//454
f 483//454 415//394 419//455
f 412//452 483//454 479//453
f 416//399 417//392 486//456
f 416//399 353//306 417//392
f 486//456 417//392 418//227
f 418//227 414//451 486//456
f 410//391 354//390 415//394
f 415//394 421//393 419//455
f 422//406 495//457 419//455
f 489//458 483//454 419//455
f 495//457 489//458 419//455
f 489//458 495//457 490//459
f 426//396 420//395 494//460
f 416//399 420//395 355//397
f 419//455 421//393 422//406
f 422//406 362//405 423//413
f 422//406 423//413 495//457
f 496//461 423//413 432//415
f 495//457 423//413 496//461
f 428//407 424//404 425//462
f 426//396 425//462 424//404
f 494//460 425//462 426//396
f 498//463 433//418 427//464
f 428//407 425//462 429//465
f 431//410 429//465 427//464
f 497//466 432//415 430//467
f 371//411 431//410 433//418
f 428//407 431//410 364//409
f 427//464 433//418 431//410
f 429//465 431//410 428//407
f 430//467 432//415 433//418
f 430//467 433//418 498//463
f 369//417 371//411 433//418
f 381//273 501//424 434//468
f 502//469 434//468 501//424
f 434//468 435//421 381//273
f 437//470 435//421 434//468
f 437//470 436//422 435//421
f 434//468 502//469 437//470
f 502//469 508//471 437//470
f 436//422 437//470 508//471
f 384//356 436//422 508//471
f 438//425 514//472 525//473
f 441//474 387//430 440//475
f 440//475 444//426 439//476
f 440//475 439//476 521//477
f 439//476 518//478 521//477
f 510//479 389//366 441//474
f 441//474 440//475 510//479
f 440//475 521//477 510//479
f 510//479 512//423 389//366
f 525//473 445//431 442//361
f 525//473 442//361 438//425
f 530//480 445//431 525//473
f 443//428 532//481 518//478
f 439//476 443//428 518//478
f 439//476 444//426 443//428
f 444//426 440//475 387//430
f 389//366 387//430 441//474
f 447//380 395//367 445//431
f 530//480 447//380 445//431
f 330//369 446//434 390//427
f 532//481 443//428 390//427
f 390//427 446//434 532//481
f 457//435 447//380 529//482
f 446//434 330//369 340//378
f 446//434 453//483 448//484
f 451//485 449//381 450//436
f 456//438 451//485 450//436
f 451//485 452//486 454//487
f 453//483 451//485 454//487
f 452//486 451//485 456//438
f 540//488 455//489 452//486
f 456//438 540//488 452//486
f 446//434 449//381 453//483
f 453//483 449//381 451//485
f 454//487 448//484 453//483
f 454//487 455//489 448//484
f 455//489 454//487 452//486
f 539//490 398//437 459//439
f 539//490 456//438 398//437
f 457//435 458//443 399//383
f 542//491 458//443 457//435
f 400//382 547//492 459//439
f 459//439 547//492 543//493
f 401//440 460//446 461//441
f 460//446 464//494 461//441
f 461//441 464//494 465//495
f 548//496 461//441 465//495
f 461//441 462//497 400//382
f 462//497 461//441 548//496
f 467//498 548//496 465//495
f 400//382 462//497 547//492
f 403//444 471//448 460//446
f 471//448 474//499 460//446
f 474//499 463//500 464//494
f 474//499 464//494 460//446
f 464//494 463//500 465//495
f 465//495 463//500 467//498
f 467//498 463//500 466//501
f 468//447 469//502 478//389
f 468//447 560//503 469//502
f 458//443 468//447 470//442
f 471//448 413//449 472//504
f 472//504 413//449 479//453
f 471//448 472//504 474//499
f 480//505 472//504 479//453
f 474//499 472//504 473//506
f 472//504 480//505 473//506
f 473//506 481//507 475//508
f 463//500 474//499 473//506
f 463//500 473//506 466//501
f 473//506 475//508 466//501
f 475//508 481//507 482//509
f 488//510 486//456 476//511
f 477//512 414//451 408//450
f 478//389 477//512 408//450
f 469//502 477//512 478//389
f 414//451 477//512 476//511
f 490//459 481//507 480//505
f 473//506 480//505 481//507
f 481//507 491//513 482//509
f 476//511 486//456 414//451
f 479//453 483//454 480//505
f 483//454 489//458 480//505
f 481//507 490//459 491//513
f 491//513 492//514 569//515
f 566//516 569//515 493//517
f 493//517 485//518 566//516
f 484//519 494//460 420//395
f 488//510 485//518 484//519
f 484//519 485//518 494//460
f 487//520 484//519 420//395
f 416//399 486//456 487//520
f 416//399 487//520 420//395
f 488//510 487//520 486//456
f 488//510 484//519 487//520
f 480//505 489//458 490//459
f 429//465 493//517 427//464
f 494//460 485//518 429//465
f 485//518 493//517 429//465
f 490//459 495//457 496//461
f 491//513 496//461 497//466
f 490//459 496//461 491//513
f 491//513 497//466 492//514
f 427//464 493//517 498//463
f 498//463 493//517 569//515
f 494//460 429//465 425//462
f 496//461 432//415 497//466
f 497//466 430//467 498//463
f 497//466 498//463 492//514
f 492//514 498//463 569//515
f 499//355 500//521 503//522
f 500//521 506//523 503//522
f 500//521 499//355 511//524
f 570//525 571//526 500//521
f 571//526 506//523 500//521
f 499//355 503//522 501//424
f 504//527 502//469 501//424
f 508//471 502//469 505//528
f 503//522 504//527 501//424
f 504//527 505//528 502//469
f 516//529 505//528 580//530
f 506//523 504//527 503//522
f 506//523 507//531 504//527
f 507//531 505//528 504//527
f 505//528 507//531 580//530
f 508//471 505//528 516//529
f 509//532 511//524 522//533
f 510//479 521//477 511//524
f 521//477 522//533 511//524
f 512//423 510//479 511//524
f 511//524 499//355 512//423
f 580//530 513//534 516//529
f 513//534 517//535 516//529
f 526//536 579//537 587//538
f 508//471 515//539 384//356
f 384//356 515//539 438//425
f 515//539 514//472 438//425
f 508//471 516//529 515//539
f 517//535 515//539 516//529
f 515//539 517//535 514//472
f 517//535 526//536 525//473
f 514//472 517//535 525//473
f 579//537 526//536 517//535
f 517//535 513//534 579//537
f 519//540 518//478 528//541
f 528//541 520//542 519//540
f 528//541 591//543 520//542
f 522//533 518//478 519//540
f 522//533 521//477 518//478
f 523//544 509//532 522//533
f 523//544 522//533 519//540
f 520//542 523//544 519//540
f 584//545 523//544 520//542
f 520//542 591//543 584//545
f 525//473 524//546 530//480
f 526//536 524//546 525//473
f 587//538 524//546 526//536
f 527//547 518//478 532//481
f 527//547 528//541 518//478
f 527//547 591//543 528//541
f 530//480 592//548 529//482
f 524//546 592//548 530//480
f 529//482 447//380 530//480
f 527//547 531//549 591//543
f 532//481 446//434 531//549
f 531//549 527//547 532//481
f 592//548 457//435 529//482
f 446//434 448//484 534//550
f 533//551 534//550 448//484
f 533//551 448//484 536//552
f 531//549 533//551 535//553
f 535//553 533//551 537//554
f 537//554 533//551 536//552
f 537//554 595//555 535//553
f 537//554 596//556 595//555
f 446//434 534//550 531//549
f 534//550 533//551 531//549
f 591//543 531//549 535//553
f 535//553 595//555 591//543
f 448//484 455//489 536//552
f 536//552 538//557 537//554
f 537//554 605//558 596//556
f 537//554 538//557 605//558
f 536//552 455//489 540//488
f 539//490 540//488 456//438
f 541//559 540//488 539//490
f 539//490 459//439 541//559
f 540//488 541//559 536//552
f 536//552 541//559 545//560
f 536//552 545//560 538//557
f 605//558 538//557 545//560
f 605//558 545//560 607//561
f 468//447 458//443 542//491
f 542//491 604//562 468//447
f 543//493 541//559 459//439
f 543//493 549//563 541//559
f 544//564 541//559 549//563
f 541//559 544//564 545//560
f 607//561 544//564 551//565
f 607//561 545//560 544//564
f 468//447 604//562 552//566
f 552//566 604//562 553//567
f 611//568 553//567 604//562
f 546//569 548//496 467//498
f 546//569 467//498 555//570
f 547//492 462//497 548//496
f 547//492 549//563 543//493
f 548//496 550//571 547//492
f 547//492 550//571 549//563
f 550//571 548//496 546//569
f 546//569 555//570 550//571
f 551//565 550//571 555//570
f 550//571 551//565 549//563
f 549//563 551//565 544//564
f 613//572 551//565 556//573
f 559//574 553//567 616//575
f 552//566 553//567 559//574
f 467//498 466//501 554//576
f 467//498 554//576 555//570
f 554//576 466//501 562//577
f 554//576 562//577 555//570
f 551//565 555//570 556//573
f 565//578 616//575 615//579
f 476//511 558//580 488//510
f 616//575 488//510 558//580
f 477//512 469//502 557//581
f 558//580 476//511 557//581
f 477//512 557//581 476//511
f 557//581 469//502 560//503
f 558//580 557//581 559//574
f 559//574 557//581 560//503
f 560//503 552//566 559//574
f 558//580 559//574 616//575
f 552//566 560//503 468//447
f 466//501 475//508 561//582
f 466//501 561//582 562//577
f 555//570 562//577 563//583
f 562//577 566//516 563//583
f 563//583 568//584 564//585
f 564//585 568//584 565//578
f 556//573 555//570 563//583
f 563//583 564//585 556//573
f 564//585 565//578 615//579
f 488//510 616//575 565//578
f 475//508 482//509 561//582
f 561//582 482//509 566//516
f 562//577 561//582 566//516
f 488//510 567//586 485//518
f 566//516 485//518 568//584
f 563//583 566//516 568//584
f 488//510 565//578 567//586
f 568//584 567//586 565//578
f 567//586 568//584 485//518
f 566//516 482//509 569//515
f 482//509 491//513 569//515
f 500//521 511//524 570//525
f 575//587 570//525 511//524
f 506//523 571//526 572//588
f 576//589 571//526 570//525
f 571//526 577//590 572//588
f 506//523 572//588 507//531
f 580//530 507//531 572//588
f 511//524 509//532 575//587
f 509//532 573//591 575//587
f 573//591 574//592 575//587
f 575//587 574//592 570//525
f 574//592 576//589 570//525
f 574//592 617//593 576//589
f 571//526 576//589 577//590
f 577//590 582//594 572//588
f 625//595 626//596 582//594
f 625//595 577//590 578//597
f 625//595 582//594 577//590
f 581//598 579//537 513//534
f 580//530 581//598 513//534
f 579//537 581//598 587//538
f 581//598 580//530 572//588
f 582//594 581//598 572//588
f 589//599 581//598 583//600
f 626//596 583//600 582//594
f 582//594 583//600 581//598
f 573//591 509//532 523//544
f 523//544 584//545 573//591
f 585//601 573//591 584//545
f 585//601 584//545 591//543
f 573//591 585//601 574//592
f 591//543 593//602 585//601
f 585//601 586//603 574//592
f 593//602 618//604 585//601
f 620//605 586//603 585//601
f 585//601 618//604 620//605
f 583//600 626//596 590//606
f 587//538 588//607 524//546
f 589//599 588//607 587//538
f 581//598 589//599 587//538
f 590//606 588//607 589//599
f 590//606 635//608 588//607
f 583//600 590//606 589//599
f 590//606 634//609 635//608
f 524//546 588//607 592//548
f 595//555 594//610 593//602
f 591//543 595//555 593//602
f 593//602 594//610 618//604
f 640//611 618//604 594//610
f 640//611 594//610 596//556
f 602//612 592//548 638//613
f 596//556 605//558 597//614
f 594//610 595//555 596//556
f 596//556 597//614 640//611
f 592//548 602//612 542//491
f 592//548 542//491 457//435
f 640//611 597//614 598//615
f 599//616 600//617 604//562
f 601//618 600//617 599//616
f 639//619 599//616 638//613
f 601//618 639//619 636//620
f 639//619 601//618 599//616
f 601//618 644//621 600//617
f 602//612 604//562 542//491
f 602//612 599//616 604//562
f 599//616 602//612 638//613
f 598//615 609//622 645//623
f 609//622 646//624 645//623
f 645//623 646//624 642//625
f 646//624 603//626 643//627
f 604//562 600//617 611//568
f 603//626 611//568 600//617
f 644//621 603//626 600//617
f 597//614 605//558 606//628
f 597//614 606//628 598//615
f 598//615 606//628 609//622
f 606//628 608//629 609//622
f 609//622 610//630 646//624
f 612//631 611//568 646//624
f 646//624 611//568 603//626
f 646//624 610//630 612//631
f 613//572 607//561 551//565
f 607//561 613//572 608//629
f 605//558 607//561 606//628
f 606//628 607//561 608//629
f 608//629 614//632 609//622
f 612//631 553//567 611//568
f 608//629 613//572 614//632
f 614//632 613//572 556//573
f 614//632 556//573 564//585
f 609//622 614//632 615//579
f 614//632 564//585 615//579
f 615//579 610//630 609//622
f 615//579 616//575 610//630
f 616//575 553//567 612//631
f 616//575 612//631 610//630
f 577//590 576//589 617//593
f 577//590 617//593 578//597
f 620//605 618//604 622//633
f 574//592 586//603 619//634
f 586//603 620//605 619//634
f 617//593 574//592 619//634
f 619//634 620//605 621//635
f 621//635 622//633 627//636
f 621//635 620//605 622//633
f 623//637 617//593 619//634
f 619//634 621//635 623//637
f 624//638 623//637 621//635
f 621//635 627//636 631//639
f 623//637 578//597 617//593
f 625//595 624//638 632//640
f 624//638 578//597 623//637
f 632//640 629//641 625//595
f 621//635 631//639 624//638
f 624//638 631//639 632//640
f 578//597 624//638 625//595
f 590//606 626//596 634//609
f 625//595 629//641 626//596
f 618//604 640//611 622//633
f 622//633 640//611 627//636
f 627//636 628//642 631//639
f 630//643 638//613 635//608
f 626//596 629//641 634//609
f 635//608 629//641 630//643
f 629//641 635//608 634//609
f 630//643 639//619 638//613
f 631//639 628//642 632//640
f 629//641 632//640 630//643
f 628//642 633//644 632//640
f 633//644 630//643 632//640
f 637//645 633//644 628//642
f 633//644 639//619 630//643
f 633//644 637//645 636//620
f 633//644 636//620 639//619
f 638//613 588//607 635//608
f 627//636 640//611 641//646
f 641//646 628//642 627//636
f 638//613 592//548 588//607
f 640//611 598//615 641//646
f 637//645 641//646 642//625
f 636//620 637//645 643//627
f 641//646 637//645 628//642
f 598//615 645//623 641//646
f 641//646 645//623 642//625
f 643//627 642//625 646//624
f 643//627 637//645 642//625
f 643//627 603//626 644//621
f 643//627 644//621 636//620
f 601//618 636//620 644//621
