# Blender 4.0.2
# www.blender.org
mtllib skull_right_zygomatic_bone.mtl
o skull_right_zygomatic_bone
v 0.049270 0.017971 0.063451
v 0.050364 0.021241 0.063855
v 0.047167 0.017791 0.063885
v 0.047564 0.019781 0.064566
v 0.046626 0.020121 0.064547
v 0.046048 0.018931 0.064396
v 0.047605 0.020481 0.064578
v 0.047577 0.021311 0.064234
v 0.046498 0.020621 0.064272
v 0.046594 0.021121 0.063843
v 0.046555 0.021221 0.063100
v 0.044890 0.017811 0.063657
v 0.044653 0.018731 0.063967
v 0.044173 0.018311 0.063545
v 0.044130 0.018651 0.063574
v 0.044375 0.019051 0.063616
v 0.044469 0.019371 0.063260
v 0.044072 0.018921 0.063167
v 0.056524 0.023891 0.061034
v 0.053802 0.024881 0.062010
v 0.053523 0.025231 0.061797
v 0.053813 0.025251 0.060806
v 0.052443 0.024741 0.061746
v 0.052657 0.024661 0.061061
v 0.049148 0.015841 0.061319
v 0.049445 0.023171 0.062936
v 0.050181 0.024001 0.061549
v 0.048894 0.023141 0.061537
v 0.050323 0.023791 0.060858
v 0.047150 0.016071 0.061211
v 0.045675 0.017461 0.060667
v 0.045024 0.017191 0.062915
v 0.044258 0.017611 0.063017
v 0.044234 0.017391 0.062662
v 0.043891 0.017761 0.062687
v 0.044605 0.017001 0.062049
v 0.043828 0.017461 0.061823
v 0.043612 0.017791 0.061818
v 0.045493 0.016851 0.061143
v 0.044279 0.017311 0.061200
v 0.043744 0.017741 0.061233
v 0.043822 0.018341 0.062949
v 0.044283 0.019131 0.061638
v 0.043788 0.018651 0.061542
v 0.043639 0.018051 0.061249
v 0.043612 0.018351 0.061587
v 0.045542 0.019431 0.061124
v 0.044602 0.019161 0.061265
v 0.043719 0.018351 0.061201
v 0.043938 0.018661 0.061199
v 0.045993 0.018911 0.060601
v 0.044553 0.018061 0.060696
v 0.044557 0.018661 0.060822
v 0.044017 0.018351 0.060908
v 0.043915 0.018041 0.060929
v 0.061013 0.022701 0.058038
v 0.058996 0.025791 0.058421
v 0.056919 0.026281 0.060003
v 0.055923 0.027041 0.059697
v 0.056644 0.027241 0.058909
v 0.055923 0.027151 0.059097
v 0.055067 0.025291 0.058470
v 0.053223 0.013471 0.058797
v 0.052832 0.014471 0.058421
v 0.054625 0.024961 0.059421
v 0.052808 0.024101 0.059404
v 0.054434 0.024811 0.058498
v 0.054614 0.025881 0.060162
v 0.054687 0.026151 0.060297
v 0.052572 0.014021 0.059420
v 0.052323 0.014071 0.059097
v 0.052579 0.023321 0.058784
v 0.049468 0.015501 0.059977
v 0.049538 0.016311 0.059494
v 0.047476 0.016681 0.060183
v 0.060678 0.026211 0.057021
v 0.062603 0.027321 0.056042
v 0.061589 0.027381 0.056276
v 0.060414 0.027151 0.056114
v 0.061903 0.028231 0.056029
v 0.058843 0.026931 0.057086
v 0.058280 0.027351 0.056397
v 0.059818 0.027081 0.056136
v 0.059223 0.027111 0.056097
v 0.057221 0.011601 0.057028
v 0.055334 0.012071 0.056714
v 0.056090 0.011391 0.056787
v 0.055522 0.012701 0.056398
v 0.056966 0.024291 0.056206
v 0.055995 0.026621 0.058131
v 0.056223 0.026151 0.057527
v 0.055869 0.025471 0.057358
v 0.056523 0.027651 0.056997
v 0.056609 0.025551 0.056697
v 0.056644 0.025881 0.056481
v 0.057078 0.025291 0.056064
v 0.056447 0.027051 0.056215
v 0.057454 0.027671 0.056764
v 0.056794 0.027751 0.056875
v 0.057415 0.027711 0.056110
v 0.056827 0.027681 0.056111
v 0.053693 0.013951 0.057930
v 0.054091 0.023611 0.057761
v 0.054077 0.024341 0.057916
v 0.072310 0.054371 0.053645
v 0.071553 0.046591 0.053723
v 0.071105 0.054601 0.053783
v 0.067096 0.013791 0.054068
v 0.069036 0.043841 0.054257
v 0.069095 0.047251 0.054475
v 0.067967 0.050261 0.053873
v 0.065257 0.034591 0.054570
v 0.065657 0.041521 0.054628
v 0.065035 0.042191 0.054400
v 0.062968 0.036221 0.055212
v 0.063709 0.041441 0.053740
v 0.062510 0.039941 0.053615
v 0.064531 0.042831 0.053617
v 0.060133 0.027261 0.055789
v 0.060449 0.027531 0.055479
v 0.060112 0.027151 0.055228
v 0.060150 0.026681 0.054873
v 0.060186 0.025291 0.054281
v 0.061309 0.027181 0.053912
v 0.061928 0.029941 0.055705
v 0.061292 0.028261 0.055791
v 0.060833 0.027601 0.055834
v 0.061225 0.028891 0.055483
v 0.060843 0.027951 0.055497
v 0.061012 0.028291 0.055475
v 0.061142 0.030081 0.055148
v 0.060750 0.027951 0.055196
v 0.060889 0.028261 0.055196
v 0.061061 0.029131 0.054919
v 0.060913 0.028291 0.054879
v 0.060717 0.027771 0.054887
v 0.061214 0.028501 0.054294
v 0.061255 0.029191 0.054306
v 0.061955 0.029041 0.053366
v 0.061088 0.030361 0.054586
v 0.061336 0.030901 0.054014
v 0.060829 0.032791 0.054269
v 0.061803 0.036591 0.055260
v 0.061056 0.036411 0.055056
v 0.060776 0.034841 0.054921
v 0.060587 0.034931 0.054596
v 0.060571 0.036061 0.054584
v 0.060838 0.037311 0.054561
v 0.060468 0.035941 0.054030
v 0.060503 0.036921 0.054006
v 0.061630 0.037621 0.054997
v 0.060833 0.037721 0.053977
v 0.061039 0.037951 0.053654
v 0.060646 0.037251 0.053688
v 0.058116 0.009421 0.054455
v 0.057757 0.010861 0.054028
v 0.057974 0.009651 0.053964
v 0.057292 0.019501 0.055738
v 0.058584 0.024081 0.055286
v 0.058646 0.024981 0.055056
v 0.059559 0.024621 0.054548
v 0.059447 0.027051 0.055785
v 0.058912 0.026941 0.055779
v 0.059528 0.026731 0.055365
v 0.057808 0.027021 0.055514
v 0.058902 0.025921 0.055059
v 0.058625 0.025551 0.054992
v 0.057778 0.026081 0.055150
v 0.059781 0.026121 0.054875
v 0.059233 0.025281 0.054782
v 0.057652 0.010141 0.055591
v 0.057094 0.010461 0.055493
v 0.056723 0.011401 0.055231
v 0.056602 0.026431 0.055890
v 0.057429 0.025571 0.055444
v 0.057134 0.027341 0.055491
v 0.056784 0.026381 0.055519
v 0.056708 0.026741 0.055511
v 0.056752 0.027061 0.055532
v 0.057097 0.026431 0.055227
v 0.057137 0.026811 0.055232
v 0.075985 0.051621 0.051423
v 0.075024 0.055811 0.052321
v 0.075670 0.054651 0.051951
v 0.075835 0.056071 0.051574
v 0.076486 0.054941 0.051277
v 0.072876 0.020071 0.051281
v 0.072702 0.041951 0.051195
v 0.072605 0.041901 0.051891
v 0.073731 0.046321 0.052425
v 0.073919 0.044931 0.051779
v 0.073033 0.055761 0.053202
v 0.074103 0.054461 0.052866
v 0.074059 0.056621 0.051820
v 0.071367 0.029401 0.051394
v 0.071380 0.036441 0.051333
v 0.071053 0.038221 0.052068
v 0.071701 0.038801 0.051268
v 0.071675 0.042341 0.052950
v 0.071607 0.055561 0.053247
v 0.069359 0.054541 0.052366
v 0.071212 0.055981 0.051518
v 0.069119 0.029251 0.052858
v 0.064721 0.044141 0.052132
v 0.066133 0.048081 0.052737
v 0.063173 0.006381 0.052248
v 0.062165 0.022881 0.052344
v 0.063502 0.036181 0.051268
v 0.062937 0.038741 0.052202
v 0.063431 0.041181 0.053063
v 0.062778 0.039781 0.052831
v 0.063606 0.041001 0.052241
v 0.063969 0.041711 0.051927
v 0.064103 0.042341 0.053004
v 0.060423 0.007001 0.052039
v 0.060582 0.006781 0.051256
v 0.061866 0.032191 0.053219
v 0.060707 0.036451 0.053436
v 0.061450 0.036571 0.052865
v 0.061124 0.037351 0.053163
v 0.059616 0.007641 0.051990
v 0.059409 0.008541 0.051840
v 0.076679 0.050791 0.050091
v 0.076702 0.053671 0.051028
v 0.076713 0.052301 0.050644
v 0.077126 0.053441 0.050118
v 0.077110 0.053101 0.049816
v 0.077168 0.053481 0.049809
v 0.076853 0.052221 0.049837
v 0.077035 0.053401 0.049501
v 0.076775 0.052241 0.049518
v 0.076944 0.054051 0.050687
v 0.077109 0.054071 0.050119
v 0.077036 0.054101 0.049816
v 0.074956 0.023751 0.049197
v 0.076026 0.048911 0.050419
v 0.075455 0.047991 0.050138
v 0.076022 0.049311 0.049815
v 0.076386 0.050531 0.050774
v 0.076444 0.051011 0.049505
v 0.075318 0.049351 0.049349
v 0.076502 0.052221 0.050990
v 0.076475 0.053681 0.049237
v 0.076310 0.052471 0.048996
v 0.076482 0.055701 0.050681
v 0.075613 0.056341 0.050706
v 0.076213 0.055481 0.050077
v 0.072315 0.006801 0.049399
v 0.071880 0.044371 0.049356
v 0.074129 0.046181 0.050224
v 0.072851 0.047031 0.049295
v 0.072962 0.055861 0.049543
v 0.069732 0.003441 0.049868
v 0.071605 0.033171 0.050701
v 0.071783 0.032451 0.050097
v 0.071572 0.033671 0.050072
v 0.070271 0.033571 0.047908
v 0.071517 0.036241 0.050613
v 0.071158 0.039021 0.049618
v 0.069682 0.053871 0.048817
v 0.069575 0.054621 0.050215
v 0.071378 0.055801 0.049649
v 0.070877 0.055531 0.049539
v 0.071285 0.055551 0.049208
v 0.071846 0.055111 0.048764
v 0.070902 0.055011 0.048906
v 0.067619 0.001951 0.049688
v 0.068344 0.001641 0.049342
v 0.067642 0.001301 0.049127
v 0.068278 0.003901 0.050580
v 0.066659 0.003371 0.050428
v 0.065631 0.003441 0.049814
v 0.066989 0.001881 0.049475
v 0.066348 0.001931 0.048866
v 0.063542 0.005061 0.050462
v 0.062504 0.005781 0.050036
v 0.064080 0.004561 0.049223
v 0.062642 0.015591 0.050698
v 0.064103 0.024921 0.050844
v 0.063990 0.040541 0.050947
v 0.064266 0.042381 0.050965
v 0.060342 0.007251 0.050983
v 0.060388 0.008631 0.050901
v 0.062233 0.006651 0.049587
v 0.077577 0.015771 0.046268
v 0.075162 0.052901 0.048654
v 0.072384 0.002801 0.047141
v 0.072938 0.003131 0.046465
v 0.072312 0.002531 0.046556
v 0.072884 0.004051 0.047492
v 0.074321 0.025601 0.047875
v 0.072253 0.051521 0.048309
v 0.071763 0.003461 0.048553
v 0.070301 0.001981 0.048619
v 0.069715 0.001331 0.048286
v 0.071431 0.002151 0.047561
v 0.069744 0.009071 0.046472
v 0.070543 0.050501 0.047827
v 0.071066 0.053591 0.048326
v 0.070368 0.053801 0.048413
v 0.069993 0.053041 0.048040
v 0.069903 0.053421 0.048230
v 0.067632 0.000691 0.048035
v 0.068766 0.000811 0.048037
v 0.069618 0.001051 0.047630
v 0.067913 0.000621 0.047665
v 0.068885 0.000901 0.047306
v 0.067457 0.001471 0.046434
v 0.069151 0.002031 0.046465
v 0.068804 0.008661 0.046800
v 0.068818 0.009331 0.046764
v 0.068567 0.009911 0.046261
v 0.068035 0.009371 0.046463
v 0.067886 0.009941 0.046294
v 0.067669 0.010251 0.046317
v 0.068223 0.012651 0.047741
v 0.067623 0.012651 0.047948
v 0.067302 0.012311 0.047711
v 0.068192 0.011981 0.047515
v 0.067020 0.012641 0.047620
v 0.067916 0.013241 0.047260
v 0.068921 0.012621 0.046838
v 0.067477 0.010841 0.046615
v 0.069056 0.010881 0.046449
v 0.067291 0.013251 0.047371
v 0.068471 0.050151 0.046672
v 0.067465 0.051421 0.046448
v 0.067323 0.052071 0.047397
v 0.067016 0.001011 0.048327
v 0.067010 0.000701 0.047418
v 0.067090 0.000851 0.046830
v 0.066426 0.001201 0.046819
v 0.066249 0.001341 0.047480
v 0.065778 0.001971 0.047164
v 0.065801 0.002531 0.046566
v 0.064740 0.003861 0.047953
v 0.067051 0.010251 0.046219
v 0.066399 0.012381 0.047123
v 0.067027 0.011471 0.047044
v 0.065836 0.012341 0.046828
v 0.065257 0.012351 0.046967
v 0.066186 0.011781 0.046808
v 0.065553 0.011701 0.046624
v 0.065219 0.011701 0.046760
v 0.065213 0.013401 0.047162
v 0.066157 0.013221 0.046650
v 0.065557 0.014291 0.046694
v 0.064989 0.017451 0.047790
v 0.066318 0.025601 0.047468
v 0.064684 0.034161 0.048171
v 0.065070 0.049521 0.046811
v 0.064749 0.003831 0.048567
v 0.064329 0.004381 0.048573
v 0.063777 0.005201 0.048634
v 0.064552 0.004541 0.047887
v 0.064453 0.006671 0.047482
v 0.064475 0.011531 0.047448
v 0.063819 0.041451 0.048160
v 0.063347 0.042981 0.046617
v 0.064353 0.044651 0.048615
v 0.064485 0.046831 0.047181
v 0.077331 0.010931 0.045148
v 0.072791 0.003101 0.045864
v 0.074229 0.004661 0.045551
v 0.073929 0.004191 0.045202
v 0.073338 0.004001 0.045009
v 0.072985 0.004201 0.044738
v 0.073866 0.004341 0.044418
v 0.073294 0.004621 0.044051
v 0.071936 0.014261 0.044176
v 0.072415 0.013681 0.043996
v 0.072470 0.014211 0.043832
v 0.072511 0.025691 0.045102
v 0.071683 0.002301 0.046278
v 0.071647 0.002881 0.045805
v 0.070387 0.004881 0.045391
v 0.071812 0.005431 0.044408
v 0.070040 0.006921 0.045663
v 0.070111 0.008451 0.046140
v 0.069763 0.009351 0.046125
v 0.070176 0.009011 0.045884
v 0.069663 0.010221 0.045888
v 0.070656 0.010211 0.045168
v 0.071468 0.008381 0.044518
v 0.069697 0.011021 0.046187
v 0.070980 0.013001 0.044293
v 0.070078 0.014371 0.045115
v 0.070040 0.014731 0.045097
v 0.069697 0.014451 0.045261
v 0.069549 0.014791 0.045283
v 0.069720 0.015081 0.045095
v 0.070005 0.013861 0.044984
v 0.070047 0.015051 0.044871
v 0.070896 0.014161 0.044537
v 0.070800 0.014751 0.044435
v 0.070082 0.015601 0.044351
v 0.071245 0.020111 0.043773
v 0.071253 0.020731 0.043878
v 0.070935 0.020671 0.044063
v 0.070936 0.021101 0.043974
v 0.070617 0.020751 0.044024
v 0.070621 0.021071 0.044014
v 0.069105 0.004811 0.045687
v 0.068159 0.004241 0.045531
v 0.068169 0.005431 0.045423
v 0.067324 0.004101 0.045081
v 0.067341 0.005171 0.044816
v 0.069057 0.006701 0.045851
v 0.068487 0.010281 0.046210
v 0.067344 0.009651 0.046117
v 0.069116 0.014751 0.045325
v 0.068832 0.014451 0.045306
v 0.068499 0.014091 0.045541
v 0.068234 0.015321 0.045303
v 0.067650 0.014231 0.045643
v 0.069500 0.013491 0.045196
v 0.069438 0.014141 0.045207
v 0.069091 0.015401 0.045176
v 0.067640 0.014731 0.045228
v 0.067938 0.016531 0.045160
v 0.069446 0.015711 0.044781
v 0.068818 0.016331 0.044919
v 0.067294 0.016811 0.044996
v 0.067350 0.017181 0.044889
v 0.067346 0.018051 0.044455
v 0.068232 0.018201 0.044377
v 0.067636 0.018911 0.044204
v 0.067104 0.019351 0.044383
v 0.066732 0.001731 0.046150
v 0.066327 0.004301 0.045316
v 0.066993 0.004761 0.044747
v 0.066668 0.005181 0.044751
v 0.066723 0.005791 0.044697
v 0.067138 0.007171 0.045255
v 0.066423 0.006951 0.045037
v 0.065999 0.006531 0.045377
v 0.066119 0.008161 0.045306
v 0.065549 0.010181 0.046063
v 0.066160 0.010411 0.045937
v 0.066822 0.009071 0.045570
v 0.066111 0.009101 0.045465
v 0.066427 0.008461 0.045239
v 0.066358 0.014111 0.045790
v 0.066421 0.014461 0.045364
v 0.067023 0.014321 0.045431
v 0.067069 0.015071 0.044939
v 0.066750 0.014761 0.044989
v 0.066735 0.015141 0.044885
v 0.066367 0.015181 0.045130
v 0.066441 0.017771 0.045282
v 0.067070 0.015971 0.044959
v 0.067034 0.016851 0.044944
v 0.067016 0.017461 0.044809
v 0.066732 0.016751 0.044995
v 0.067037 0.018341 0.044498
v 0.066483 0.020531 0.045602
v 0.066791 0.021911 0.044276
v 0.066630 0.023141 0.044476
v 0.066423 0.051151 0.045897
v 0.066103 0.050581 0.044931
v 0.062991 0.033961 0.044168
v 0.063488 0.043551 0.046036
v 0.062798 0.042541 0.045809
v 0.063467 0.043981 0.045686
v 0.062440 0.043411 0.045001
v 0.063425 0.045961 0.045694
v 0.063978 0.048181 0.045794
v 0.062442 0.047141 0.044163
v 0.061996 0.039131 0.044824
v 0.061761 0.044911 0.044282
v 0.077483 0.009301 0.043676
v 0.078596 0.010481 0.043047
v 0.077742 0.009321 0.042821
v 0.078398 0.009961 0.042287
v 0.079006 0.010231 0.041843
v 0.078396 0.009861 0.041646
v 0.077657 0.009371 0.041738
v 0.077162 0.008761 0.041700
v 0.078778 0.020351 0.043382
v 0.078092 0.020351 0.041927
v 0.075223 0.005261 0.043834
v 0.075865 0.006041 0.043185
v 0.074815 0.004771 0.043528
v 0.074432 0.004631 0.043549
v 0.075462 0.005511 0.042877
v 0.074805 0.005061 0.042850
v 0.074567 0.006011 0.041746
v 0.076408 0.007291 0.041768
v 0.075662 0.006571 0.041643
v 0.074504 0.011921 0.041463
v 0.072440 0.005551 0.043768
v 0.073408 0.005401 0.042625
v 0.072874 0.006141 0.042706
v 0.073573 0.006911 0.041943
v 0.074288 0.006491 0.041539
v 0.072235 0.010581 0.043338
v 0.073045 0.010611 0.042618
v 0.073470 0.009771 0.041919
v 0.072682 0.011301 0.043094
v 0.073717 0.012021 0.042600
v 0.073680 0.013061 0.042256
v 0.074271 0.010911 0.041620
v 0.072113 0.019561 0.042764
v 0.072434 0.018071 0.041605
v 0.071895 0.021851 0.041871
v 0.070098 0.017561 0.043319
v 0.070923 0.020071 0.043740
v 0.070898 0.019291 0.042892
v 0.071515 0.018731 0.042554
v 0.071187 0.018651 0.042476
v 0.070939 0.018351 0.042351
v 0.070694 0.018061 0.042452
v 0.070635 0.018641 0.042401
v 0.070589 0.018991 0.042467
v 0.070127 0.019861 0.042626
v 0.069747 0.018881 0.042613
v 0.071576 0.018041 0.042049
v 0.070051 0.019061 0.042318
v 0.069680 0.019291 0.042338
v 0.069726 0.019601 0.042252
v 0.070639 0.021661 0.043630
v 0.070345 0.020401 0.043529
v 0.070257 0.021111 0.043712
v 0.070130 0.020761 0.043485
v 0.071720 0.021781 0.042842
v 0.071201 0.022331 0.042934
v 0.070895 0.022401 0.042917
v 0.070324 0.022211 0.042883
v 0.069951 0.020481 0.042917
v 0.069744 0.021301 0.042899
v 0.071499 0.022371 0.042580
v 0.070892 0.022581 0.042565
v 0.071214 0.022531 0.042185
v 0.069535 0.021931 0.042314
v 0.070342 0.022741 0.041660
v 0.069780 0.022671 0.041751
v 0.068798 0.019731 0.043067
v 0.069105 0.020171 0.042469
v 0.067978 0.021221 0.043291
v 0.069470 0.020711 0.042500
v 0.069410 0.021321 0.042523
v 0.069151 0.020731 0.042438
v 0.069124 0.021061 0.042455
v 0.069137 0.021361 0.042404
v 0.068838 0.021071 0.042549
v 0.069106 0.021671 0.042218
v 0.068669 0.021731 0.042326
v 0.069137 0.022211 0.041704
v 0.068805 0.022291 0.041519
v 0.066558 0.023151 0.043496
v 0.066138 0.024361 0.043409
v 0.066292 0.023561 0.042712
v 0.066762 0.023191 0.042583
v 0.064496 0.046991 0.042327
v 0.064156 0.049951 0.043971
v 0.064323 0.050381 0.043497
v 0.060308 0.039631 0.043069
v 0.062357 0.048021 0.042406
v 0.059477 0.036401 0.041588
v 0.081152 0.012371 0.040583
v 0.081553 0.011321 0.039209
v 0.081693 0.013421 0.039938
v 0.080421 0.010871 0.040890
v 0.080813 0.010621 0.039881
v 0.080158 0.010241 0.040031
v 0.079837 0.010171 0.039935
v 0.080906 0.010691 0.039107
v 0.080289 0.010521 0.039145
v 0.080827 0.017751 0.041257
v 0.079925 0.019011 0.040532
v 0.079437 0.018901 0.039837
v 0.079062 0.010051 0.041050
v 0.077845 0.009801 0.041082
v 0.077316 0.009371 0.041135
v 0.078682 0.010121 0.040746
v 0.077357 0.010211 0.040536
v 0.079127 0.010611 0.039458
v 0.077921 0.010921 0.039818
v 0.077562 0.011881 0.039426
v 0.077166 0.013901 0.039243
v 0.075689 0.007301 0.041238
v 0.076620 0.008771 0.041152
v 0.075649 0.009951 0.040716
v 0.076222 0.011261 0.040378
v 0.074066 0.016171 0.040400
v 0.073081 0.018341 0.040866
v 0.073202 0.019261 0.040079
v 0.072222 0.020631 0.039418
v 0.071523 0.021841 0.040796
v 0.070875 0.022271 0.040581
v 0.070649 0.022531 0.040345
v 0.071445 0.021651 0.039905
v 0.071952 0.021941 0.039671
v 0.071523 0.021911 0.039597
v 0.069702 0.022961 0.041106
v 0.071001 0.023281 0.040951
v 0.070111 0.022841 0.040798
v 0.070077 0.023801 0.040888
v 0.069637 0.023171 0.040650
v 0.070623 0.022851 0.040298
v 0.070458 0.023141 0.040486
v 0.070023 0.023141 0.040497
v 0.069722 0.023481 0.040461
v 0.069428 0.022751 0.041436
v 0.069123 0.022831 0.041224
v 0.068822 0.022851 0.041159
v 0.068521 0.022881 0.041180
v 0.067638 0.023191 0.041366
v 0.068813 0.023301 0.040550
v 0.068429 0.023351 0.040531
v 0.067853 0.024651 0.039760
v 0.065352 0.024121 0.041268
v 0.065652 0.023891 0.040847
v 0.065555 0.024011 0.039888
v 0.064917 0.024201 0.039903
v 0.067098 0.023941 0.039696
v 0.064525 0.024691 0.040174
v 0.063733 0.025931 0.039870
v 0.063941 0.025231 0.039334
v 0.062985 0.046721 0.040976
v 0.060549 0.039861 0.039373
v 0.061551 0.043291 0.040049
v 0.060980 0.043891 0.039934
v 0.060671 0.042491 0.039487
v 0.060753 0.043061 0.039624
v 0.060370 0.042281 0.039419
v 0.060454 0.042881 0.039636
v 0.059947 0.042121 0.039630
v 0.061651 0.046791 0.041451
v 0.061320 0.045991 0.040801
v 0.060871 0.044451 0.040858
v 0.061565 0.046271 0.040561
v 0.061206 0.045321 0.040487
v 0.061622 0.045311 0.040153
v 0.062223 0.047761 0.041397
v 0.058517 0.034681 0.039501
v 0.059052 0.036491 0.040806
v 0.059186 0.039401 0.039388
v 0.059623 0.041271 0.039822
v 0.059785 0.041451 0.039318
v 0.059476 0.040801 0.039291
v 0.082882 0.013241 0.037042
v 0.081410 0.018081 0.038920
v 0.081660 0.018101 0.037112
v 0.079336 0.012871 0.037540
v 0.080576 0.018021 0.036738
v 0.080495 0.018391 0.038613
v 0.078000 0.013231 0.038632
v 0.078891 0.014161 0.037008
v 0.077891 0.017941 0.036939
v 0.075625 0.016591 0.038221
v 0.075767 0.017761 0.037226
v 0.075966 0.018851 0.037938
v 0.075518 0.018551 0.037418
v 0.073599 0.020781 0.039019
v 0.072529 0.021001 0.038773
v 0.072225 0.020641 0.039022
v 0.072655 0.020501 0.038634
v 0.065234 0.024331 0.039027
v 0.065834 0.024951 0.038497
v 0.065085 0.026131 0.038326
v 0.064055 0.025161 0.038962
v 0.063083 0.025951 0.038683
v 0.064323 0.025641 0.038097
v 0.063723 0.025851 0.037827
v 0.063123 0.027051 0.037583
v 0.062523 0.027051 0.037621
v 0.063152 0.028611 0.037948
v 0.062523 0.027651 0.037321
v 0.062208 0.027141 0.038093
v 0.061882 0.027491 0.037482
v 0.061682 0.028501 0.038831
v 0.061580 0.027771 0.037813
v 0.060520 0.028941 0.037940
v 0.062058 0.027671 0.037175
v 0.060741 0.028151 0.037199
v 0.059832 0.028531 0.036893
v 0.058235 0.031781 0.037746
v 0.058067 0.035611 0.038103
v 0.058705 0.036971 0.037788
v 0.058432 0.036611 0.037707
v 0.059466 0.036361 0.037556
v 0.058916 0.036911 0.037501
v 0.058453 0.036631 0.037161
v 0.058614 0.036481 0.036897
v 0.059090 0.037751 0.039166
v 0.059200 0.038141 0.038652
v 0.059738 0.037981 0.038600
v 0.059122 0.037711 0.038347
v 0.059222 0.037241 0.037841
v 0.058960 0.037271 0.037942
v 0.059857 0.040011 0.038887
v 0.059846 0.040801 0.039037
v 0.059523 0.040121 0.038940
v 0.057404 0.033731 0.037153
v 0.082564 0.012561 0.036748
v 0.082870 0.012991 0.036676
v 0.082211 0.012621 0.036199
v 0.083118 0.014821 0.036518
v 0.083125 0.013661 0.036233
v 0.082925 0.013271 0.035995
v 0.082305 0.013431 0.035422
v 0.083163 0.014971 0.034828
v 0.082912 0.017061 0.035836
v 0.082591 0.017751 0.035355
v 0.083291 0.015651 0.034893
v 0.082851 0.017361 0.034515
v 0.081124 0.012831 0.036302
v 0.079560 0.015161 0.035616
v 0.079213 0.016801 0.035107
v 0.079175 0.017161 0.035087
v 0.079793 0.017091 0.034483
v 0.077792 0.015981 0.036422
v 0.077505 0.017471 0.036263
v 0.079168 0.017711 0.036111
v 0.078975 0.017461 0.035538
v 0.078704 0.017161 0.035495
v 0.078793 0.016811 0.035442
v 0.061023 0.028151 0.036597
v 0.060930 0.028551 0.036334
v 0.060423 0.028251 0.036426
v 0.060099 0.028261 0.036592
v 0.059248 0.028471 0.036312
v 0.058876 0.029031 0.036542
v 0.058156 0.029841 0.036318
v 0.059266 0.028351 0.036020
v 0.058848 0.028561 0.036003
v 0.059247 0.028371 0.035716
v 0.058926 0.028451 0.035711
v 0.058912 0.028591 0.035459
v 0.058471 0.028881 0.035726
v 0.058038 0.029781 0.035730
v 0.059307 0.028571 0.035451
v 0.059282 0.029151 0.035204
v 0.058374 0.029211 0.035395
v 0.058912 0.029191 0.035085
v 0.057557 0.032021 0.036531
v 0.057730 0.031641 0.035678
v 0.058760 0.031781 0.035218
v 0.058013 0.030181 0.035432
v 0.058023 0.031521 0.035228
v 0.059123 0.030221 0.035171
v 0.058345 0.030351 0.034993
v 0.058320 0.031821 0.035054
v 0.058411 0.033661 0.035328
v 0.057732 0.034191 0.035215
v 0.058050 0.033021 0.034989
v 0.057736 0.033011 0.035075
v 0.058360 0.036051 0.036299
v 0.057774 0.036191 0.036047
v 0.058076 0.035461 0.035658
v 0.057736 0.035751 0.035549
v 0.057726 0.034831 0.035279
v 0.057748 0.035411 0.035400
v 0.057286 0.034241 0.036011
v 0.057381 0.033311 0.035756
v 0.057361 0.034241 0.035664
v 0.057354 0.035701 0.036417
v 0.057436 0.036061 0.036080
v 0.057187 0.035371 0.035746
v 0.057436 0.035941 0.035704
v 0.057434 0.034851 0.035397
v 0.057444 0.035441 0.035383
v 0.083036 0.016031 0.034198
v 0.082571 0.015671 0.034064
v 0.082309 0.017861 0.033924
v 0.082475 0.017421 0.033628
v 0.082343 0.017071 0.033432
v 0.082028 0.017741 0.033375
v 0.082000 0.017071 0.033312
v 0.082018 0.017451 0.033234
v 0.081704 0.017751 0.033271
v 0.081706 0.018131 0.034086
v 0.081743 0.018031 0.033578
v 0.081106 0.015811 0.034243
v 0.080198 0.017781 0.034278
v 0.081082 0.017731 0.033501
v 0.081398 0.017401 0.033309
v 0.081027 0.018111 0.034333
v 0.081393 0.018051 0.033634
v 0.053523 0.025231 0.061797
v 0.049445 0.023171 0.062936
v 0.050181 0.024001 0.061549
v 0.048894 0.023141 0.061537
v 0.047150 0.016071 0.061211
v 0.044279 0.017311 0.061200
v 0.045542 0.019431 0.061124
v 0.055923 0.027041 0.059697
v 0.055923 0.027151 0.059097
v 0.053223 0.013471 0.058797
v 0.053223 0.013471 0.058797
v 0.052323 0.014071 0.059097
v 0.049468 0.015501 0.059977
v 0.060678 0.026211 0.057021
v 0.061589 0.027381 0.056276
v 0.061903 0.028231 0.056029
v 0.058280 0.027351 0.056397
v 0.055334 0.012071 0.056714
v 0.056090 0.011391 0.056787
v 0.056223 0.026151 0.057527
v 0.056523 0.027651 0.056997
v 0.056827 0.027681 0.056111
v 0.054077 0.024341 0.057916
v 0.071105 0.054601 0.053783
v 0.067967 0.050261 0.053873
v 0.065035 0.042191 0.054400
v 0.064531 0.042831 0.053617
v 0.060112 0.027151 0.055228
v 0.057134 0.027341 0.055491
v 0.075024 0.055811 0.052321
v 0.075835 0.056071 0.051574
v 0.073919 0.044931 0.051779
v 0.073033 0.055761 0.053202
v 0.071607 0.055561 0.053247
v 0.063173 0.006381 0.052248
v 0.076026 0.048911 0.050419
v 0.075455 0.047991 0.050138
v 0.076482 0.055701 0.050681
v 0.075613 0.056341 0.050706
v 0.075613 0.056341 0.050706
v 0.074129 0.046181 0.050224
v 0.071783 0.032451 0.050097
v 0.071783 0.032451 0.050097
v 0.074321 0.025601 0.047875
v 0.069744 0.009071 0.046472
v 0.068804 0.008661 0.046800
v 0.068818 0.009331 0.046764
v 0.068818 0.009331 0.046764
v 0.068818 0.009331 0.046764
v 0.068567 0.009911 0.046261
v 0.068223 0.012651 0.047741
v 0.068223 0.012651 0.047741
v 0.067623 0.012651 0.047948
v 0.067623 0.012651 0.047948
v 0.067623 0.012651 0.047948
v 0.067465 0.051421 0.046448
v 0.067323 0.052071 0.047397
v 0.065836 0.012341 0.046828
v 0.065213 0.013401 0.047162
v 0.066157 0.013221 0.046650
v 0.066157 0.013221 0.046650
v 0.071683 0.002301 0.046278
v 0.069763 0.009351 0.046125
v 0.070935 0.020671 0.044063
v 0.070935 0.020671 0.044063
v 0.070936 0.021101 0.043974
v 0.070617 0.020751 0.044024
v 0.070621 0.021071 0.044014
v 0.070621 0.021071 0.044014
v 0.069057 0.006701 0.045851
v 0.069500 0.013491 0.045196
v 0.066723 0.005791 0.044697
v 0.066423 0.006951 0.045037
v 0.066358 0.014111 0.045790
v 0.066421 0.014461 0.045364
v 0.066750 0.014761 0.044989
v 0.066735 0.015141 0.044885
v 0.066732 0.016751 0.044995
v 0.066423 0.051151 0.045897
v 0.070939 0.018351 0.042351
v 0.070694 0.018061 0.042452
v 0.070051 0.019061 0.042318
v 0.069726 0.019601 0.042252
v 0.071499 0.022371 0.042580
v 0.069137 0.021361 0.042404
v 0.066558 0.023151 0.043496
v 0.066292 0.023561 0.042712
v 0.066762 0.023191 0.042583
v 0.064323 0.050381 0.043497
v 0.064323 0.050381 0.043497
v 0.070649 0.022531 0.040345
v 0.071445 0.021651 0.039905
v 0.071523 0.021911 0.039597
v 0.070623 0.022851 0.040298
v 0.070458 0.023141 0.040486
v 0.070023 0.023141 0.040497
v 0.070023 0.023141 0.040497
v 0.069722 0.023481 0.040461
v 0.069722 0.023481 0.040461
v 0.067853 0.024651 0.039760
v 0.060980 0.043891 0.039934
v 0.060980 0.043891 0.039934
v 0.060980 0.043891 0.039934
v 0.060753 0.043061 0.039624
v 0.061565 0.046271 0.040561
v 0.061622 0.045311 0.040153
v 0.062223 0.047761 0.041397
v 0.059785 0.041451 0.039318
v 0.059476 0.040801 0.039291
v 0.059476 0.040801 0.039291
v 0.081410 0.018081 0.038920
v 0.075625 0.016591 0.038221
v 0.075518 0.018551 0.037418
v 0.072529 0.021001 0.038773
v 0.072225 0.020641 0.039022
v 0.065834 0.024951 0.038497
v 0.063083 0.025951 0.038683
v 0.064323 0.025641 0.038097
v 0.063723 0.025851 0.037827
v 0.062523 0.027051 0.037621
v 0.062058 0.027671 0.037175
v 0.058067 0.035611 0.038103
v 0.058432 0.036611 0.037707
v 0.058916 0.036911 0.037501
v 0.058453 0.036631 0.037161
v 0.059200 0.038141 0.038652
v 0.059200 0.038141 0.038652
v 0.059738 0.037981 0.038600
v 0.059122 0.037711 0.038347
v 0.059122 0.037711 0.038347
v 0.059122 0.037711 0.038347
v 0.059222 0.037241 0.037841
v 0.059523 0.040121 0.038940
v 0.082305 0.013431 0.035422
v 0.083163 0.014971 0.034828
v 0.077505 0.017471 0.036263
v 0.078975 0.017461 0.035538
v 0.061023 0.028151 0.036597
v 0.060423 0.028251 0.036426
v 0.058345 0.030351 0.034993
v 0.058320 0.031821 0.035054
v 0.057732 0.034191 0.035215
v 0.057732 0.034191 0.035215
v 0.057732 0.034191 0.035215
v 0.058050 0.033021 0.034989
v 0.057736 0.033011 0.035075
v 0.057774 0.036191 0.036047
v 0.057436 0.036061 0.036080
v 0.057436 0.035941 0.035704
v 0.057436 0.035941 0.035704
v 0.057434 0.034851 0.035397
v 0.057444 0.035441 0.035383
v 0.082018 0.017451 0.033234
v 0.080198 0.017781 0.034278
vn 0.2748 -0.4584 0.8452
vn 0.4391 -0.2055 0.8746
vn 0.2805 0.0991 0.9547
vn 0.0547 0.1849 0.9812
vn 0.1475 -0.1703 0.9743
vn 0.0663 -0.5942 0.8016
vn -0.1396 -0.2312 0.9628
vn -0.2646 -0.5974 0.7570
vn -0.0772 -0.8686 0.4894
vn -0.2116 -0.8419 0.4965
vn -0.2396 0.1727 0.9554
vn -0.1504 0.5791 0.8013
vn -0.4531 -0.0184 0.8913
vn 0.0620 0.4563 0.8877
vn -0.4426 0.5036 0.7420
vn -0.5384 0.7360 0.4103
vn -0.4912 0.8346 0.2494
vn -0.6343 0.7727 -0.0243
vn -0.5271 -0.6474 0.5505
vn -0.6559 -0.3307 0.6786
vn -0.8027 -0.4648 0.3737
vn -0.6704 0.4770 0.5684
vn -0.7853 0.1261 0.6062
vn -0.7032 0.6866 0.1846
vn -0.9461 0.0126 0.3237
vn -0.8403 0.5027 0.2029
vn -0.6179 0.7591 -0.2050
vn 0.5369 0.1184 0.8353
vn 0.4660 0.5196 0.7162
vn 0.4836 0.1025 0.8693
vn 0.2300 0.3899 0.8917
vn 0.3025 0.6713 0.6767
vn 0.0957 0.5720 0.8146
vn -0.4982 0.8625 -0.0883
vn -0.3972 0.9176 -0.0169
vn -0.6292 0.7010 -0.3358
vn -0.3976 0.8708 -0.2890
vn -0.6640 0.6869 -0.2955
vn -0.4774 0.7683 -0.4264
vn -0.7099 0.6760 -0.1977
vn -0.4328 0.8861 0.1657
vn 0.1666 -0.5769 0.7996
vn -0.2323 -0.8403 0.4898
vn -0.3925 0.8660 0.3099
vn -0.4543 0.7344 -0.5043
vn -0.3978 0.8519 -0.3406
vn -0.1373 -0.9130 0.3842
vn -0.3313 -0.9302 0.1580
vn -0.5829 0.8036 0.1204
vn -0.3206 0.2545 -0.9124
vn -0.5422 0.5631 -0.6236
vn -0.3905 -0.9159 0.0931
vn -0.3755 -0.7606 -0.5297
vn -0.3923 -0.7553 -0.5251
vn -0.4391 -0.4810 -0.7588
vn -0.4107 -0.4213 -0.8086
vn -0.2648 -0.2771 -0.9236
vn -0.2392 -0.1303 -0.9622
vn -0.7068 0.6653 -0.2404
vn -0.3175 0.6304 -0.7084
vn -0.5210 -0.7703 0.3677
vn -0.6962 -0.7177 0.0139
vn -0.9536 -0.2942 0.0638
vn -0.9617 0.2704 -0.0447
vn -0.4758 -0.8572 -0.1970
vn -0.7363 -0.4926 -0.4639
vn -0.9174 -0.0604 -0.3933
vn -0.3072 -0.4883 -0.8168
vn -0.5446 -0.1593 -0.8234
vn -0.4106 0.7303 -0.5460
vn -0.7824 0.6089 -0.1304
vn -0.6069 0.6151 -0.5033
vn -0.8128 0.3260 -0.4829
vn -0.2982 0.4416 -0.8462
vn -0.4883 0.2940 -0.8217
vn 0.5572 0.4927 0.6685
vn 0.3893 0.3000 0.8709
vn 0.3700 0.8315 0.4144
vn 0.2680 0.8808 0.3903
vn -0.1097 0.9917 0.0675
vn -0.2873 0.9423 0.1720
vn -0.7747 0.4218 -0.4712
vn -0.8985 0.2920 -0.3278
vn -0.8408 0.4460 -0.3067
vn -0.7198 0.6466 -0.2526
vn -0.6285 0.4316 -0.6471
vn -0.5162 -0.2696 -0.8129
vn -0.6471 -0.1654 -0.7443
vn -0.5253 -0.5179 -0.6751
vn -0.5559 0.0810 -0.8273
vn 0.2250 -0.3589 0.9058
vn -0.5294 0.3913 -0.7527
vn -0.5455 0.8175 -0.1844
vn -0.5697 0.7520 -0.3315
vn -0.3562 -0.8532 0.3811
vn -0.4319 -0.8802 0.1967
vn -0.3862 -0.3166 -0.8664
vn 0.3529 0.1706 0.9200
vn 0.2310 0.3204 0.9187
vn 0.2196 0.1826 0.9584
vn -0.3059 0.5066 0.8061
vn -0.4544 0.6016 0.6569
vn 0.1180 0.7555 0.6445
vn -0.1958 0.7293 0.6556
vn -0.0007 0.9317 0.3633
vn -0.3731 0.9080 0.1907
vn -0.3373 0.2744 0.9005
vn -0.5263 0.3200 0.7878
vn -0.2079 0.1352 0.9688
vn 0.0423 0.9947 -0.0941
vn 0.3874 0.9017 0.1918
vn 0.2837 0.9440 0.1685
vn -0.0005 0.7827 -0.6224
vn 0.2660 0.8340 -0.4834
vn -0.2194 0.9170 -0.3330
vn 0.2293 0.9261 -0.2995
vn -0.0197 -0.7147 0.6991
vn -0.2911 -0.8017 0.5221
vn -0.6581 -0.7529 -0.0057
vn -0.6513 -0.7414 -0.1617
vn -0.6562 -0.7434 -0.1291
vn -0.7218 -0.6903 -0.0494
vn -0.6764 -0.0136 -0.7364
vn -0.7339 -0.1774 -0.6556
vn -0.7791 -0.1642 -0.6050
vn -0.5424 0.0593 -0.8380
vn -0.8096 0.0041 -0.5870
vn -0.5489 -0.0457 -0.8346
vn -0.7454 -0.2556 -0.6157
vn -0.5446 -0.3829 -0.7462
vn -0.3137 0.9462 0.0786
vn -0.6245 0.4785 -0.6173
vn -0.5237 0.2010 -0.8279
vn -0.9251 0.0253 -0.3789
vn -0.8976 -0.2817 -0.3390
vn -0.9152 -0.2452 -0.3197
vn -0.9363 0.1919 -0.2940
vn -0.9016 0.3811 -0.2048
vn -0.7819 0.4956 -0.3782
vn -0.6870 0.3504 -0.6366
vn -0.0844 0.9633 -0.2548
vn -0.6410 -0.4693 -0.6073
vn -0.5383 0.0814 -0.8388
vn 0.2984 0.1781 0.9377
vn -0.0435 0.5043 0.8624
vn 0.0730 0.1824 0.9805
vn 0.2634 0.0867 0.9608
vn -0.3784 0.8288 0.4121
vn -0.6884 0.6409 0.3396
vn -0.5415 0.5399 0.6444
vn -0.7535 0.4035 0.5191
vn 0.5999 -0.0233 0.7997
vn 0.4798 0.0235 0.8771
vn 0.5344 -0.2039 0.8202
vn 0.2643 -0.0945 0.9598
vn 0.3368 -0.0095 0.9415
vn 0.3944 -0.0837 0.9151
vn -0.0027 0.0823 0.9966
vn 0.0597 0.0389 0.9975
vn -0.1642 0.1339 0.9773
vn -0.1660 0.1726 0.9709
vn 0.1573 0.0387 0.9868
vn -0.7372 0.5440 0.4007
vn -0.6249 0.3989 0.6711
vn -0.6312 0.3498 0.6922
vn -0.8789 0.4256 0.2155
vn -0.8944 0.4424 0.0662
vn -0.5506 0.0665 -0.8321
vn -0.3893 0.1653 -0.9061
vn -0.5453 0.2248 -0.8076
vn -0.6486 0.1255 -0.7507
vn -0.6734 0.7272 0.1331
vn -0.7409 0.5202 0.4249
vn -0.5842 0.8029 -0.1189
vn -0.8410 0.3766 -0.3885
vn -0.4287 0.3800 -0.8197
vn -0.4193 0.5641 -0.7113
vn -0.6198 0.3632 -0.6956
vn -0.6296 0.4602 -0.6259
vn -0.7161 0.1595 -0.6796
vn -0.7743 0.2431 0.5843
vn -0.7919 0.3432 0.5051
vn -0.9947 0.1025 0.0076
vn -0.8653 0.0384 0.4998
vn -0.8799 0.4740 0.0329
vn -0.9235 0.3456 0.1665
vn -0.9408 0.2648 -0.2118
vn -0.8834 0.0131 -0.4684
vn -0.8459 0.1023 -0.5235
vn -0.7759 0.0037 -0.6308
vn -0.8184 -0.0927 -0.5671
vn -0.7825 0.0753 -0.6181
vn -0.9782 -0.0629 -0.1978
vn -0.9315 -0.1398 -0.3357
vn -0.1309 0.1207 0.9840
vn -0.7171 -0.0016 0.6970
vn -0.9621 -0.0629 0.2653
vn -0.7196 -0.0913 -0.6883
vn -0.5294 0.1409 0.8366
vn -0.3869 0.3573 0.8501
vn -0.8903 0.0737 0.4493
vn -0.7484 0.3732 0.5483
vn -0.9873 -0.0502 -0.1510
vn -0.9836 0.1795 0.0166
vn -0.7892 -0.0198 -0.6138
vn -0.8846 0.2862 -0.3681
vn -0.8103 0.5782 -0.0947
vn -0.8465 0.5197 0.1156
vn -0.7895 0.4994 -0.3568
vn -0.6569 0.2180 -0.7217
vn -0.8607 -0.3974 -0.3182
vn -0.7717 0.0018 -0.6359
vn -0.7048 0.1460 -0.6943
vn -0.4050 -0.1401 -0.9035
vn -0.1505 0.0291 -0.9882
vn -0.2124 0.0633 -0.9751
vn 0.2664 0.6028 -0.7521
vn -0.1407 0.3836 -0.9127
vn -0.6653 -0.7372 0.1184
vn -0.7604 -0.3097 -0.5708
vn -0.7944 0.0015 -0.6074
vn -0.4156 -0.1541 -0.8964
vn 0.2321 0.6783 -0.6971
vn -0.1629 0.2612 -0.9514
vn -0.4672 0.5343 -0.7045
vn 0.7674 -0.0758 0.6367
vn 0.7878 0.1629 0.5939
vn 0.5829 0.0069 0.8125
vn 0.6145 -0.1576 0.7730
vn 0.6842 -0.2396 0.6888
vn 0.8395 -0.2007 0.5050
vn 0.4488 0.0061 0.8936
vn 0.6486 -0.1127 0.7527
vn 0.7910 -0.1249 0.5989
vn 0.5358 0.0728 0.8412
vn 0.2947 0.7315 0.6149
vn 0.4179 0.8656 0.2757
vn 0.0662 0.9733 0.2199
vn -0.0228 0.8563 0.5159
vn 0.6998 0.2002 0.6857
vn 0.8369 0.5426 -0.0722
vn 0.4575 0.8755 0.1553
vn 0.5920 0.8000 0.0974
vn 0.9698 -0.2218 0.1010
vn 0.9205 -0.3057 -0.2435
vn 0.8421 -0.3173 0.4360
vn 0.9007 -0.4000 -0.1696
vn -0.4078 0.9098 0.0773
vn -0.2491 0.9225 -0.2950
vn 0.8916 -0.0818 0.4454
vn 0.6706 -0.1815 0.7193
vn 0.6450 0.0948 0.7583
vn 0.9921 -0.0039 -0.1256
vn 0.2193 -0.3745 0.9009
vn -0.8492 0.3437 0.4010
vn -0.8307 0.4825 0.2777
vn -0.6517 0.7383 -0.1737
vn -0.1581 -0.5561 0.8160
vn -0.9483 0.2939 0.1198
vn -0.9563 0.2061 0.2076
vn -0.2602 -0.7971 0.5450
vn -0.4404 -0.8371 0.3246
vn -0.5031 -0.8229 0.2640
vn -0.8082 0.0112 -0.5889
vn -0.7239 0.1903 -0.6632
vn -0.9745 0.1110 -0.1952
vn -0.8486 0.5217 -0.0884
vn -0.9311 0.3083 -0.1948
vn -0.8775 0.3335 -0.3447
vn -0.7779 0.3713 -0.5069
vn -0.9807 0.1945 0.0197
vn -0.6230 -0.7641 -0.1672
vn -0.7980 -0.5759 -0.1774
vn -0.7202 -0.3349 -0.6075
vn -0.7934 -0.0861 -0.6025
vn -0.6691 0.0520 -0.7414
vn -0.5949 -0.0003 -0.8038
vn 0.9173 -0.1493 0.3692
vn 0.9693 -0.2393 -0.0562
vn 0.9780 -0.2043 -0.0411
vn 0.8389 -0.2034 -0.5049
vn 0.9062 0.0686 0.4172
vn 0.9615 -0.0990 0.2562
vn 0.9742 0.2207 0.0469
vn 0.9704 -0.2211 -0.0977
vn 0.9856 0.0112 -0.1685
vn 0.7789 0.3716 -0.5052
vn 0.7560 0.0641 -0.6514
vn 0.3719 0.3070 -0.8760
vn 0.4663 -0.0858 -0.8805
vn 0.4380 0.5715 -0.6939
vn 0.7976 -0.5182 -0.3088
vn 0.8480 -0.4992 -0.1780
vn 0.8521 -0.2855 0.4388
vn 0.7376 -0.3723 -0.5633
vn 0.8685 -0.4269 -0.2520
vn 0.4932 -0.3989 -0.7731
vn 0.3700 -0.2818 -0.8853
vn 0.4686 -0.3177 -0.8243
vn 0.7063 -0.2567 -0.6597
vn 0.2082 0.1069 -0.9722
vn 0.0870 0.7750 -0.6259
vn 0.2825 0.6869 -0.6696
vn -0.0419 0.9536 -0.2981
vn 0.6167 -0.2304 0.7528
vn 0.8062 0.2211 0.5488
vn 0.9395 0.0720 0.3349
vn 0.9762 0.0473 0.2115
vn 0.9126 0.3932 0.1119
vn 0.9400 0.3403 0.0247
vn 0.8512 -0.0640 -0.5209
vn 0.6202 -0.1787 -0.7638
vn 0.6578 0.1266 -0.7425
vn 0.3685 -0.2172 -0.9039
vn 0.2035 -0.0374 -0.9783
vn 0.0409 0.4868 -0.8726
vn 0.4853 -0.6027 0.6334
vn 0.4068 -0.3795 0.8310
vn 0.2416 -0.6355 0.7333
vn 0.6238 -0.4100 0.6654
vn 0.7667 -0.3649 0.5282
vn 0.9519 0.1077 -0.2869
vn 0.8401 0.3013 -0.4511
vn 0.7862 0.2173 -0.5785
vn -0.5331 0.7791 -0.3299
vn -0.3845 0.7240 -0.5727
vn -0.2399 0.7529 -0.6129
vn -0.3650 0.5708 -0.7355
vn -0.1783 0.4863 -0.8554
vn 0.2441 -0.9285 0.2799
vn -0.0738 -0.7796 0.6219
vn -0.0914 -0.9391 0.3313
vn 0.0010 -0.5587 0.8293
vn -0.3786 -0.6430 0.6658
vn -0.4505 -0.7948 0.4066
vn -0.5577 -0.6941 0.4552
vn -0.6491 -0.6320 0.4234
vn -0.7711 -0.6268 0.1117
vn -0.7264 -0.6748 0.1306
vn -0.9653 -0.0571 -0.2547
vn -0.8375 0.0760 -0.5412
vn -0.9856 -0.1625 0.0478
vn -0.6967 -0.7151 -0.0572
vn -0.6444 -0.6943 -0.3204
vn -0.7529 -0.4154 -0.5105
vn -0.8196 -0.5289 -0.2204
vn -0.6767 -0.3101 -0.6678
vn -0.7524 -0.0923 -0.6522
vn -0.6983 0.1077 -0.7077
vn -0.7092 0.1357 -0.6918
vn -0.9607 0.0299 0.2761
vn 0.7668 -0.0676 0.6384
vn 0.8086 -0.4480 0.3814
vn 0.7623 -0.2633 0.5913
vn 0.6988 -0.5939 0.3987
vn 0.5818 -0.7308 0.3569
vn 0.7649 -0.6204 0.1732
vn 0.5823 -0.8118 -0.0436
vn 0.3954 -0.9185 0.0039
vn 0.4502 -0.7808 -0.4333
vn 0.4177 -0.8759 -0.2417
vn 0.6064 0.5955 -0.5269
vn 0.6775 0.6056 -0.4175
vn 0.0808 0.2231 -0.9714
vn 0.4162 -0.7756 0.4746
vn 0.2155 -0.8712 -0.4410
vn -0.4645 0.1568 -0.8716
vn -0.3486 0.1625 -0.9231
vn -0.6433 0.1010 -0.7590
vn -0.3864 0.1591 -0.9085
vn -0.3895 -0.6970 -0.6021
vn -0.6396 -0.5100 -0.5751
vn -0.6029 -0.5485 -0.5793
vn -0.7016 -0.0001 -0.7126
vn -0.6284 0.1403 -0.7651
vn -0.7245 -0.3924 -0.5667
vn 0.5713 0.1475 -0.8074
vn 0.3918 -0.0046 -0.9200
vn 0.5259 0.2909 -0.7992
vn 0.2211 0.3168 -0.9223
vn -0.0807 0.6186 -0.7815
vn 0.0782 -0.9953 -0.0572
vn -0.3600 -0.9329 -0.0056
vn -0.1076 -0.8254 -0.5543
vn 0.1922 -0.5178 -0.8336
vn -0.0379 -0.5393 -0.8413
vn 0.0709 -0.6278 -0.7752
vn 0.0371 -0.4527 -0.8909
vn 0.0341 -0.1168 -0.9926
vn -0.2325 0.2316 -0.9446
vn -0.3118 -0.0445 -0.9491
vn -0.3864 -0.6940 -0.6075
vn 0.4517 0.2064 -0.8679
vn 0.3899 -0.0744 -0.9178
vn 0.3557 -0.0576 -0.9328
vn -0.0202 0.5517 -0.8338
vn -0.4781 0.0819 -0.8745
vn -0.2127 0.0553 -0.9756
vn -0.2602 0.5208 -0.8131
vn -0.0857 -0.2848 -0.9547
vn 0.0310 0.2857 -0.9578
vn 0.0998 -0.0339 -0.9944
vn 0.2720 -0.5606 -0.7821
vn 0.3902 0.3053 -0.8687
vn 0.4121 0.2484 -0.8766
vn 0.2662 0.4307 -0.8623
vn -0.3776 0.3116 -0.8720
vn -0.2461 0.4799 -0.8421
vn -0.1073 0.4738 -0.8741
vn 0.2987 0.4164 -0.8587
vn 0.5392 -0.1488 -0.8289
vn 0.4695 0.1618 -0.8680
vn 0.3521 0.3915 -0.8502
vn -0.4246 -0.6945 -0.5809
vn -0.3211 -0.7638 -0.5600
vn -0.1948 -0.7020 -0.6850
vn 0.1795 -0.7350 -0.6539
vn 0.2371 0.5477 -0.8024
vn 0.4210 -0.4968 -0.7589
vn -0.3354 -0.5918 -0.7330
vn -0.7860 -0.1359 -0.6031
vn -0.6909 -0.5090 -0.5133
vn 0.0592 -0.7394 -0.6706
vn -0.0451 -0.7688 -0.6379
vn 0.5693 0.3590 -0.7396
vn -0.0305 0.8404 -0.5412
vn -0.1978 0.8015 -0.5644
vn -0.6149 -0.6805 -0.3985
vn -0.2576 -0.4986 -0.8277
vn -0.7692 -0.3210 -0.5525
vn -0.8477 -0.5012 -0.1739
vn -0.8891 -0.3971 -0.2277
vn 0.3104 -0.3573 -0.8809
vn -0.6654 -0.2366 -0.7080
vn -0.8359 -0.2441 -0.4916
vn -0.7456 -0.0215 -0.6660
vn 0.0401 0.4268 -0.9034
vn -0.5746 0.1886 -0.7964
vn 0.5660 0.0135 -0.8243
vn 0.4632 -0.5821 -0.6683
vn 0.0050 0.1603 -0.9871
vn 0.4561 -0.3333 -0.8252
vn -0.4824 0.1799 -0.8573
vn -0.1276 0.3678 -0.9211
vn -0.3845 0.0622 -0.9210
vn -0.5486 0.2624 -0.7939
vn -0.8237 -0.0419 -0.5655
vn -0.2108 -0.6756 -0.7065
vn -0.4360 -0.5725 -0.6944
vn -0.4762 -0.5530 -0.6836
vn -0.7187 -0.4216 -0.5529
vn -0.7253 -0.0827 -0.6835
vn -0.9220 0.0267 -0.3863
vn -0.9119 -0.3290 0.2452
vn -0.9884 -0.1516 -0.0041
vn -0.9118 0.2006 0.3583
vn -0.7151 0.6795 0.1640
vn -0.7512 0.5786 0.3176
vn -0.7505 0.6607 0.0104
vn -0.8012 -0.2795 0.5291
vn -0.7730 -0.1388 0.6191
vn -0.8948 0.2960 0.3341
vn -0.8006 0.1747 0.5732
vn -0.8760 0.3448 0.3374
vn -0.8230 0.2210 0.5233
vn -0.7514 0.0695 0.6562
vn -0.8126 0.3349 0.4770
vn 0.7201 -0.5375 0.4388
vn 0.4363 0.8199 -0.3708
vn 0.7724 0.6332 0.0498
vn 0.8040 -0.5004 0.3213
vn 0.7971 -0.5758 0.1819
vn 0.6289 -0.7760 -0.0478
vn 0.0862 -0.9249 -0.3703
vn 0.0646 -0.9367 -0.3442
vn 0.8487 -0.5250 0.0634
vn -0.1548 -0.6988 -0.6984
vn 0.2133 -0.8152 -0.5384
vn -0.5485 -0.2829 -0.7869
vn -0.3309 -0.7856 -0.5228
vn -0.6985 -0.4247 -0.5759
vn -0.4317 -0.6311 -0.6445
vn -0.7409 -0.0481 -0.6699
vn -0.5421 0.0450 -0.8391
vn -0.4179 -0.2048 -0.8851
vn -0.6791 -0.3089 -0.6659
vn -0.4323 0.1509 -0.8890
vn -0.5540 0.1860 -0.8115
vn -0.3500 -0.1811 -0.9191
vn -0.7581 -0.4008 -0.5145
vn -0.6860 -0.0053 -0.7276
vn -0.2372 -0.2806 -0.9301
vn -0.4451 0.0764 -0.8922
vn -0.4669 -0.0129 -0.8842
vn -0.3862 0.2001 -0.9004
vn -0.5028 -0.2725 -0.8203
vn -0.4659 -0.3499 -0.8127
vn -0.2320 0.1094 -0.9665
vn -0.2339 -0.1798 -0.9555
vn -0.4226 -0.4662 -0.7772
vn -0.3962 0.0195 -0.9180
vn -0.1768 0.1307 -0.9755
vn -0.5406 -0.5234 -0.6586
vn -0.4927 -0.4619 -0.7375
vn -0.5161 -0.4472 -0.7306
vn -0.5693 -0.4454 -0.6910
vn 0.2777 0.5962 -0.7532
vn -0.3684 0.4141 -0.8324
vn -0.1909 0.5767 -0.7943
vn 0.1804 0.4634 -0.8676
vn -0.6671 -0.0985 -0.7384
vn -0.4986 -0.0287 -0.8664
vn -0.4065 -0.4433 -0.7989
vn -0.8126 -0.3553 -0.4621
vn 0.5626 0.3165 -0.7637
vn -0.0272 -0.1170 -0.9928
vn 0.0689 -0.2024 -0.9769
vn -0.0077 -0.1345 -0.9909
vn -0.1231 -0.0295 -0.9920
vn -0.0546 -0.5435 -0.8376
vn 0.1989 -0.6125 -0.7651
vn 0.6688 0.4809 -0.5670
vn 0.7145 -0.1855 -0.6746
vn 0.6086 -0.2191 -0.7626
vn 0.4219 -0.2726 -0.8647
vn 0.4233 0.0652 -0.9037
vn 0.4317 0.0128 -0.9019
vn 0.3620 0.2372 -0.9015
vn -0.0123 -0.2628 -0.9648
vn 0.2912 0.1837 -0.9389
vn 0.3422 0.2482 -0.9062
vn -0.0471 -0.0238 -0.9986
vn -0.1134 -0.0944 -0.9891
vn 0.0714 -0.0796 -0.9943
vn 0.1484 -0.4008 -0.9040
vn 0.2239 -0.1685 -0.9599
vn 0.1524 0.0177 -0.9882
vn -0.2784 -0.3400 -0.8983
vn 0.1006 -0.5354 -0.8386
vn -0.0317 -0.2348 -0.9715
vn -0.4372 -0.3680 -0.8207
vn -0.3263 -0.4143 -0.8496
vn 0.0083 -0.3489 -0.9371
vn 0.1703 -0.1670 -0.9711
vn 0.0122 -0.1470 -0.9891
vn -0.3941 -0.2412 -0.8868
vn -0.1914 -0.3279 -0.9251
vn -0.5710 -0.1370 -0.8094
vn -0.3789 -0.3092 -0.8722
vn -0.7183 -0.0987 -0.6887
vn -0.6339 -0.3570 -0.6861
vn -0.6718 -0.2311 -0.7038
vn -0.8853 -0.2259 -0.4065
vn -0.4802 -0.1322 -0.8671
vn -0.6798 0.0089 -0.7334
vn 0.2149 0.2397 -0.9468
vn 0.0331 0.2117 -0.9768
vn -0.6217 0.0359 -0.7824
vn -0.5637 0.0841 -0.8217
vn -0.3091 0.2486 -0.9180
vn -0.1013 -0.7490 -0.6548
vn -0.7368 -0.3083 -0.6017
vn -0.5795 -0.2704 -0.7688
vn 0.1247 -0.0921 -0.9879
vn -0.5589 -0.0981 -0.8234
vn -0.5853 0.0589 -0.8087
vn -0.8011 0.0127 -0.5984
vn -0.1077 -0.0710 -0.9916
vn -0.9567 -0.2901 -0.0239
vn -0.1229 0.9631 -0.2394
vn -0.1618 0.9720 -0.1702
vn -0.7329 0.6225 0.2744
vn 0.5498 0.3244 -0.7697
vn -0.6950 0.1546 0.7022
vn -0.8383 0.1810 0.5143
vn -0.8575 0.0243 0.5139
vn -0.8481 0.3631 0.3858
vn 0.5127 -0.8097 0.2855
vn 0.2077 -0.9779 0.0222
vn 0.4084 -0.9099 0.0725
vn 0.8340 -0.1956 0.5160
vn 0.8876 -0.0694 0.4553
vn 0.8723 0.2991 0.3868
vn 0.8010 -0.5933 0.0798
vn 0.7392 -0.4916 -0.4603
vn 0.6341 -0.7526 0.1772
vn 0.6614 -0.7254 -0.1908
vn 0.7544 -0.5280 -0.3900
vn 0.4482 -0.8938 -0.0182
vn 0.5203 -0.6184 -0.5889
vn 0.3827 -0.3974 -0.8340
vn 0.5517 -0.8230 -0.1355
vn 0.6885 -0.6776 -0.2584
vn 0.2408 -0.8132 -0.5298
vn 0.4428 -0.5820 -0.6821
vn -0.0030 -0.6102 -0.7922
vn 0.2332 -0.3379 -0.9118
vn -0.3169 -0.2882 -0.9036
vn -0.7009 -0.1107 -0.7046
vn -0.4160 -0.2248 -0.8812
vn -0.6322 0.1617 -0.7578
vn -0.7333 -0.2208 -0.6431
vn -0.6284 -0.0977 -0.7717
vn -0.6367 0.0764 -0.7673
vn -0.6266 0.2576 -0.7355
vn -0.7339 0.0610 -0.6765
vn -0.8297 -0.2047 -0.5193
vn -0.6945 -0.3187 -0.6450
vn -0.3692 0.3560 -0.8585
vn -0.6088 0.2127 -0.7643
vn -0.7725 0.1803 -0.6089
vn -0.8396 -0.1577 -0.5199
vn -0.8694 -0.4296 -0.2443
vn -0.8258 -0.5633 0.0275
vn -0.7960 -0.6037 0.0437
vn 0.2401 0.7467 -0.6202
vn 0.3812 0.7235 -0.5755
vn -0.5899 -0.4402 -0.6769
vn -0.5930 -0.4866 -0.6415
vn -0.2804 0.0047 -0.9599
vn 0.4124 0.6170 -0.6702
vn 0.6027 0.4443 -0.6629
vn 0.7782 0.3572 -0.5165
vn 0.0704 0.5082 -0.8584
vn 0.3615 0.3558 -0.8618
vn -0.4127 -0.4472 -0.7935
vn 0.4600 0.2116 -0.8623
vn -0.0221 0.4000 -0.9162
vn 0.0903 0.0792 -0.9928
vn -0.3476 -0.0327 -0.9371
vn 0.2534 0.0589 -0.9656
vn 0.4559 0.3025 -0.8371
vn -0.4742 -0.3771 -0.7956
vn -0.3929 -0.1704 -0.9036
vn -0.3768 -0.7017 -0.6047
vn 0.8126 0.2354 -0.5331
vn 0.7975 -0.0851 -0.5972
vn 0.4469 -0.6825 -0.5784
vn 0.5631 -0.5268 -0.6368
vn 0.0577 -0.8143 -0.5775
vn -0.7763 -0.4749 -0.4146
vn -0.4794 -0.8745 -0.0736
vn -0.0392 -0.9490 -0.3130
vn 0.5340 -0.1799 -0.8261
vn -0.4431 -0.8933 0.0750
vn 0.2878 -0.8166 -0.5003
vn -0.6465 -0.7260 0.2344
vn -0.6285 -0.7739 0.0784
vn -0.1876 -0.9793 -0.0763
vn 0.3764 -0.6242 -0.6846
vn 0.2841 -0.7616 -0.5825
vn -0.5346 -0.8117 -0.2353
vn -0.1267 -0.9230 -0.3633
vn 0.4620 0.6107 -0.6431
vn 0.5795 0.5012 -0.6426
vn -0.5668 -0.1851 -0.8028
vn -0.1133 0.0545 -0.9921
vn -0.4760 -0.5828 -0.6586
vn -0.5522 -0.7947 -0.2521
vn -0.4915 -0.2197 -0.8427
vn -0.0542 -0.0327 -0.9980
vn 0.2569 -0.3918 -0.8834
vn 0.1511 -0.5924 -0.7913
vn -0.3135 -0.1459 -0.9383
vn -0.3698 -0.8350 -0.4074
vn -0.0995 -0.6783 -0.7280
vn 0.1558 -0.7213 -0.6748
vn -0.9242 -0.3121 -0.2202
vn -0.6382 -0.7496 -0.1754
vn -0.6192 -0.7847 -0.0280
vn -0.8768 -0.4002 0.2666
vn -0.8030 -0.4229 0.4200
vn -0.7133 -0.6631 0.2271
vn -0.3745 -0.9252 -0.0612
vn -0.8406 0.5302 0.1110
vn 0.4377 0.2450 -0.8651
vn -0.8374 0.5431 -0.0620
vn -0.7838 -0.1550 0.6014
vn -0.9492 0.3145 -0.0125
vn -0.9168 0.3981 0.0308
vn -0.9438 0.0895 0.3181
vn 0.8401 -0.4981 0.2146
vn 0.9399 -0.1888 0.2845
vn 0.8786 0.3909 0.2744
vn 0.6798 0.7305 0.0651
vn 0.7206 -0.5076 0.4723
vn 0.6691 -0.7056 0.2335
vn 0.0221 -0.9663 -0.2566
vn -0.0343 -0.9244 -0.3798
vn -0.3009 -0.7698 -0.5629
vn 0.4680 -0.8546 -0.2250
vn 0.0079 -0.8740 -0.4859
vn 0.1809 -0.7764 -0.6037
vn 0.5554 0.8245 -0.1085
vn 0.1865 0.9641 -0.1892
vn 0.1982 0.9142 -0.3534
vn 0.3416 -0.7702 -0.5386
vn -0.0078 -0.5594 -0.8289
vn -0.3257 -0.6256 -0.7089
vn -0.2568 -0.1460 -0.9554
vn -0.5178 -0.3400 -0.7850
vn -0.6047 -0.3573 -0.7118
vn -0.3419 -0.6108 -0.7141
vn -0.5553 -0.4549 -0.6962
vn -0.6826 -0.2880 -0.6717
vn 0.2482 0.8026 -0.5424
vn 0.0181 0.8941 -0.4475
vn -0.7756 -0.6226 -0.1036
vn -0.6563 -0.4745 -0.5866
vn 0.3409 0.7584 -0.5555
vn -0.7799 -0.6256 -0.0217
vn 0.2722 0.7376 -0.6179
vn -0.7078 -0.6854 0.1711
vn -0.7040 -0.1508 -0.6941
vn -0.8014 -0.3414 -0.4911
vn -0.7909 -0.2940 -0.5367
vn 0.0806 0.6693 -0.7386
vn -0.6755 -0.7106 -0.1968
vn -0.2988 -0.4571 -0.8377
vn -0.6403 -0.1893 -0.7445
vn -0.3813 -0.1646 -0.9097
vn -0.4902 -0.1655 -0.8558
vn -0.0280 0.5374 -0.8429
vn -0.1896 -0.7498 -0.6340
vn -0.0608 -0.8482 -0.5261
vn 0.2024 0.6392 -0.7419
vn -0.2727 -0.3368 -0.9012
vn -0.0251 -0.1272 -0.9916
vn 0.4512 0.4925 -0.7442
vn 0.1663 -0.4818 -0.8603
vn 0.1010 -0.7453 -0.6591
vn -0.0214 0.5353 -0.8444
vn 0.3191 -0.2571 -0.9122
vn -0.0043 -0.6910 -0.7228
vn -0.2590 -0.6927 -0.6731
vn -0.1541 -0.8648 -0.4779
vn 0.0762 -0.6316 -0.7715
vn -0.7893 -0.5582 0.2556
vn -0.5445 -0.8365 -0.0615
vn -0.1708 -0.9660 -0.1939
vn -0.7547 -0.6423 0.1340
vn -0.2199 -0.8152 -0.5357
vn 0.6171 0.2612 -0.7423
vn -0.5540 -0.7808 -0.2888
vn 0.6411 0.3573 -0.6792
vn 0.5239 0.0329 -0.8512
vn 0.1844 0.4819 -0.8566
vn -0.7034 -0.4709 0.5324
vn 0.6693 0.1921 -0.7178
vn 0.6194 0.0128 -0.7850
vn -0.9565 0.2776 0.0900
vn 0.2647 0.1727 -0.9487
vn -0.2264 0.3310 -0.9161
vn -0.1973 0.2715 -0.9420
vn -0.4057 0.3542 -0.8426
vn 0.2393 0.1170 -0.9639
vn 0.3038 0.1077 -0.9466
vn 0.3994 0.1110 -0.9100
vn -0.5861 0.3301 -0.7399
vn -0.5756 0.3725 -0.7280
vn -0.8108 0.3115 -0.4955
vn -0.8094 0.4551 -0.3713
vn 0.4236 0.1732 -0.8891
vn -0.5184 0.4417 -0.7322
vn -0.2769 0.4017 -0.8729
vn -0.2535 0.3613 -0.8973
vn -0.8170 0.4322 -0.3817
vn -0.9178 0.3644 -0.1578
vn -0.8143 0.4533 -0.3625
vn 0.1338 0.4098 -0.9023
vn -0.8751 -0.0754 0.4780
vn -0.7727 -0.3272 0.5440
vn -0.9658 0.2198 0.1373
vn -0.9906 0.1356 -0.0195
vn -0.9167 0.3642 -0.1646
vn -0.9628 0.2686 0.0288
vn -0.1739 0.2035 -0.9635
vn -0.5351 0.3259 -0.7794
vn 0.6650 -0.7191 -0.2015
vn 0.8894 -0.4567 0.0184
vn 0.9649 0.0545 0.2567
vn 0.3469 0.9370 -0.0411
vn 0.2545 0.9671 0.0015
vn -0.1594 0.9560 -0.2461
vn -0.1058 0.9894 -0.0991
vn -0.6155 -0.4974 -0.6114
vn -0.5875 -0.4074 -0.6992
vn -0.0836 0.8427 -0.5318
vn -0.5789 -0.2138 -0.7868
vn -0.5435 -0.1189 -0.8310
vn 0.1973 0.7669 -0.6107
vn -0.3482 0.1175 -0.9300
vn -0.5337 0.0990 -0.8398
vn 0.3382 -0.0881 -0.9369
vn 0.4898 0.2174 -0.8443
vn 0.4901 0.1878 -0.8512
vn -0.1856 -0.7959 -0.5763
vn -0.7849 -0.4769 0.3957
vn 0.2312 -0.0516 -0.9715
vn -0.6009 -0.7324 -0.3202
vn -0.7572 -0.6514 0.0482
vn 0.3053 -0.0659 -0.9500
vn -0.4628 -0.7896 -0.4029
vn -0.5862 -0.7373 -0.3358
vn 0.0024 -0.3886 -0.9214
vn 0.4152 -0.1365 -0.8994
vn -0.6512 -0.6849 0.3269
vn -0.4759 -0.8323 -0.2843
vn 0.2443 -0.4773 -0.8441
vn -0.1903 -0.7954 -0.5754
vn -0.5839 -0.5597 0.5881
vn -0.4752 -0.8481 0.2343
vn -0.2623 -0.9475 -0.1829
vn -0.4743 -0.7134 0.5159
vn -0.2481 -0.9579 0.1443
vn 0.4332 0.0881 -0.8970
vn -0.6391 -0.5222 0.5647
vn -0.8236 -0.3921 0.4098
vn -0.9597 -0.2187 0.1763
vn -0.9496 -0.0795 0.3033
vn -0.8928 0.2504 0.3744
vn -0.3215 0.7311 -0.6018
vn -0.1535 0.7650 -0.6254
vn -0.2893 0.8312 -0.4748
vn -0.6212 0.7058 -0.3405
vn -0.5928 0.6708 -0.4457
vn -0.8565 0.4301 0.2853
vn -0.8791 0.4142 0.2358
vn -0.7283 0.6845 -0.0327
vn 0.5173 0.3901 -0.7617
vn 0.5395 0.5313 -0.6532
vn 0.3485 0.7276 -0.5908
vn 0.5211 0.4485 -0.7262
vn -0.0603 0.8706 -0.4883
vn -0.5606 0.8281 -0.0016
vn -0.0138 0.4108 -0.9116
vn -0.9740 0.2056 -0.0950
vn -0.8982 0.1676 -0.4063
vn 0.0135 0.3497 -0.9368
vn 0.0289 0.6475 -0.7615
vn -0.7875 0.4452 -0.4262
vn -0.8933 0.1558 -0.4215
vn 0.7267 -0.5469 -0.4157
vn 0.4540 -0.5753 -0.6803
vn -0.2544 -0.5686 -0.7823
vn 0.9915 0.0313 -0.1265
vn 0.9205 0.3416 0.1894
vn 0.9773 -0.2117 0.0044
vn 0.9633 -0.1741 -0.2040
vn 0.4254 -0.4963 -0.7568
vn -0.3515 -0.4695 -0.8099
vn 0.2080 -0.4587 -0.8639
vn 0.1717 0.9824 -0.0735
vn 0.8909 0.4256 -0.1587
vn 0.7994 -0.0909 -0.5939
vn 0.6072 0.7577 -0.2392
vn -0.4971 -0.4781 -0.7241
vn -0.6286 -0.1111 -0.7697
vn -0.6279 -0.2466 -0.7382
vn -0.3772 0.8970 -0.2304
vn -0.3216 0.8952 -0.3087
vn -0.1930 0.9754 -0.1069
vn -0.5404 0.5027 -0.6748
vn -0.6609 0.1883 -0.7265
vn -0.6934 0.1669 -0.7010
vn -0.5902 -0.1929 -0.7839
vn -0.5306 -0.1197 -0.8391
vn -0.5415 0.2364 -0.8068
vn 0.4044 -0.3052 -0.8622
vn 0.2111 -0.5023 -0.8386
vn 0.2744 -0.6857 -0.6742
vn -0.1003 -0.9856 -0.1361
vn 0.2022 -0.6079 -0.7678
vn 0.4147 -0.1469 -0.8980
vn -0.4595 -0.7566 0.4652
vn -0.2684 -0.9543 0.1317
vn -0.6249 -0.7046 0.3363
vn -0.7995 -0.6006 0.0072
vn -0.0308 -0.9340 -0.3560
vn -0.4683 -0.8687 -0.1615
vn -0.9420 -0.3321 -0.0484
vn -0.3545 -0.6874 -0.6339
vn -0.7232 -0.4326 -0.5383
vn -0.8868 -0.1900 -0.4212
vn -0.0722 -0.2791 -0.9575
vn -0.7073 -0.1605 -0.6884
vn 0.2293 0.0408 -0.9725
vn -0.9369 -0.1711 -0.3047
vn -0.6949 -0.0909 -0.7133
vn -0.8827 -0.1186 -0.4548
vn -0.9713 -0.1135 -0.2092
vn 0.4920 0.1258 -0.8615
vn -0.2753 0.0006 -0.9614
vn -0.4095 -0.1047 -0.9063
vn 0.3367 0.0558 -0.9399
vn 0.5433 0.2364 -0.8056
vn 0.4691 0.1670 -0.8672
vn -0.2637 -0.0150 -0.9645
vn -0.2658 0.1127 -0.9574
vn 0.2688 0.1412 -0.9528
vn 0.0133 0.1241 -0.9922
vn -0.7718 -0.0196 -0.6356
vn -0.9075 -0.0818 -0.4120
vn -0.8434 -0.0992 -0.5281
vn -0.3679 0.0891 -0.9256
vn -0.3731 0.0252 -0.9275
vn 0.3495 0.6986 -0.6244
vn -0.9210 0.2779 0.2730
vn -0.9044 0.4063 0.1301
vn -0.3804 0.8997 -0.2143
vn 0.6289 0.3254 -0.7061
vn -0.3684 0.9121 -0.1799
vn 0.2707 0.5465 -0.7925
vn 0.0478 0.6756 -0.7357
vn 0.3193 0.2992 -0.8992
vn -0.0270 0.3125 -0.9495
vn -0.9946 -0.0893 -0.0525
vn -0.9687 0.1241 -0.2150
vn -0.8954 0.3733 -0.2426
vn -0.3683 0.8857 -0.2827
vn -0.8203 0.1507 -0.5517
vn 0.5589 -0.1025 -0.8229
vn 0.7791 0.3261 -0.5354
vn 0.4769 0.5721 -0.6673
vn 0.1904 0.8767 -0.4418
vn 0.5433 0.3158 -0.7779
vn 0.0407 -0.3473 -0.9369
vn -0.0021 -0.1472 -0.9891
vn -0.0374 0.4343 -0.9000
vn -0.3481 -0.1453 -0.9261
vn -0.2075 0.8593 -0.4675
vn -0.5073 0.3399 -0.7919
s 1
usemtl mtl1.127
f 1//1 108//2 2//3
f 2//3 7//4 4//5
f 1//1 2//3 4//5
f 3//6 6//7 12//8
f 3//6 25//9 1//1
f 3//6 12//8 32//10
f 4//5 5//11 6//7
f 4//5 7//4 5//11
f 7//4 8//12 5//11
f 3//6 1//1 4//5
f 6//7 3//6 4//5
f 6//7 13//13 12//8
f 2//3 8//12 7//4
f 2//3 26//14 8//12
f 8//12 9//15 5//11
f 8//12 10//16 9//15
f 782//17 10//16 8//12
f 11//18 10//16 782//17
f 33//19 12//8 14//20
f 14//20 12//8 13//13
f 32//10 12//8 33//19
f 33//19 14//20 35//21
f 5//11 13//13 6//7
f 5//11 9//15 13//13
f 9//15 16//22 13//13
f 15//23 13//13 16//22
f 15//23 14//20 13//13
f 16//22 9//15 10//16
f 16//22 10//16 17//24
f 11//18 17//24 10//16
f 35//21 14//20 42//25
f 14//20 15//23 42//25
f 16//22 18//26 15//23
f 15//23 18//26 42//25
f 16//22 17//24 18//26
f 43//27 17//24 11//18
f 43//27 18//26 17//24
f 56//28 58//29 19//30
f 56//28 19//30 108//2
f 58//29 20//31 19//30
f 58//29 59//32 20//31
f 2//3 19//30 20//31
f 20//31 21//33 26//14
f 781//34 23//35 782//17
f 781//34 22//36 23//35
f 22//36 24//37 23//35
f 65//38 24//37 22//36
f 66//39 24//37 65//38
f 21//33 20//31 59//32
f 69//40 781//34 788//41
f 69//40 22//36 781//34
f 85//42 108//2 1//1
f 1//1 70//43 85//42
f 25//9 70//43 1//1
f 20//31 26//14 2//3
f 782//17 23//35 27//44
f 23//35 29//45 783//46
f 24//37 29//45 23//35
f 66//39 29//45 24//37
f 25//9 30//47 73//48
f 25//9 32//10 30//47
f 28//49 11//18 782//17
f 27//44 28//49 782//17
f 29//45 51//50 784//51
f 29//45 784//51 783//46
f 25//9 3//6 32//10
f 32//10 36//52 30//47
f 39//53 785//54 36//52
f 793//55 785//54 75//56
f 39//53 75//56 785//54
f 39//53 31//57 75//56
f 51//50 31//57 52//58
f 47//59 11//18 28//49
f 51//50 787//60 784//51
f 33//19 34//61 32//10
f 34//61 33//19 35//21
f 37//62 34//61 35//21
f 36//52 32//10 34//61
f 37//62 35//21 38//63
f 46//64 38//63 42//25
f 38//63 35//21 42//25
f 37//62 36//52 34//61
f 39//53 36//52 40//65
f 40//65 36//52 37//62
f 37//62 38//63 41//66
f 40//65 37//62 41//66
f 45//67 41//66 38//63
f 46//64 45//67 38//63
f 786//68 41//66 55//69
f 55//69 41//66 45//67
f 39//53 786//68 31//57
f 31//57 786//68 52//58
f 786//68 55//69 52//58
f 48//70 43//27 11//18
f 43//27 44//71 18//26
f 46//64 42//25 18//26
f 44//71 46//64 18//26
f 48//70 11//18 787//60
f 48//70 50//72 43//27
f 45//67 46//64 49//73
f 44//71 49//73 46//64
f 44//71 50//72 49//73
f 50//72 44//71 43//27
f 53//74 787//60 51//50
f 48//70 787//60 53//74
f 54//75 53//74 52//58
f 53//74 54//75 50//72
f 48//70 53//74 50//72
f 54//75 55//69 49//73
f 49//73 55//69 45//67
f 50//72 54//75 49//73
f 51//50 52//58 53//74
f 55//69 54//75 52//58
f 56//28 57//76 58//29
f 56//28 76//77 57//76
f 81//78 60//79 58//29
f 19//30 2//3 108//2
f 59//32 58//29 60//79
f 60//79 99//80 788//41
f 61//81 788//41 99//80
f 68//82 90//83 65//38
f 68//82 789//84 90//83
f 62//85 90//83 92//86
f 64//87 102//88 71//89
f 102//88 64//87 158//90
f 206//91 108//2 85//42
f 75//56 51//50 158//90
f 72//92 158//90 51//50
f 65//38 90//83 62//85
f 65//38 67//93 66//39
f 67//93 65//38 62//85
f 67//93 104//94 66//39
f 104//94 72//92 66//39
f 61//81 69//40 788//41
f 68//82 69//40 789//84
f 22//36 68//82 65//38
f 69//40 68//82 22//36
f 73//48 70//43 25//9
f 63//95 70//43 792//96
f 792//96 70//43 73//48
f 64//87 71//89 793//55
f 64//87 793//55 74//97
f 64//87 74//97 158//90
f 158//90 74//97 75//56
f 66//39 72//92 29//45
f 75//56 74//97 793//55
f 72//92 51//50 29//45
f 51//50 75//56 31//57
f 76//77 56//28 77//98
f 76//77 77//98 78//99
f 77//98 80//100 78//99
f 795//101 127//102 794//103
f 127//102 79//104 794//103
f 83//105 794//103 79//104
f 127//102 119//106 79//104
f 119//106 83//105 79//104
f 795//101 796//107 126//108
f 796//107 125//109 126//108
f 57//76 81//78 58//29
f 794//103 81//78 57//76
f 83//105 81//78 794//103
f 81//78 83//105 84//110
f 84//110 82//111 81//78
f 82//111 98//112 81//78
f 163//113 797//114 84//110
f 119//106 162//115 83//105
f 162//115 84//110 83//105
f 162//115 163//113 84//110
f 98//112 82//111 100//116
f 87//117 85//42 70//43
f 70//43 63//95 87//117
f 171//118 85//42 87//117
f 799//119 790//120 86//121
f 799//119 172//122 171//118
f 172//122 799//119 86//121
f 102//88 88//123 798//124
f 798//124 173//125 172//122
f 88//123 102//88 158//90
f 89//126 92//86 94//127
f 159//128 89//126 96//129
f 96//129 89//126 94//127
f 158//90 89//126 159//128
f 159//128 96//129 175//130
f 98//112 60//79 81//78
f 98//112 99//80 60//79
f 93//131 61//81 99//80
f 91//132 92//86 90//83
f 91//132 94//127 92//86
f 92//86 89//126 803//133
f 94//127 800//134 95//135
f 95//135 800//134 90//83
f 96//129 94//127 95//135
f 90//83 174//136 95//135
f 174//136 90//83 97//137
f 90//83 789//84 97//137
f 97//137 789//84 801//138
f 96//129 95//135 174//136
f 101//139 97//137 801//138
f 101//139 179//140 97//137
f 100//116 99//80 98//112
f 802//141 99//80 100//116
f 802//141 93//131 99//80
f 102//88 791//142 71//89
f 791//142 102//88 798//124
f 92//86 67//93 62//85
f 158//90 72//92 103//143
f 803//133 103//143 72//92
f 104//94 67//93 92//86
f 158//90 103//143 89//126
f 803//133 89//126 103//143
f 192//144 200//145 107//146
f 192//144 107//146 105//147
f 814//148 201//149 804//150
f 804//150 201//149 111//151
f 108//2 187//152 56//28
f 56//28 187//152 77//98
f 187//152 203//153 77//98
f 199//154 109//155 112//156
f 199//154 106//157 109//155
f 109//155 113//158 112//156
f 106//157 110//159 109//155
f 113//158 109//155 110//159
f 105//147 107//146 110//159
f 106//157 105//147 110//159
f 107//146 805//160 110//159
f 805//160 114//161 110//159
f 112//156 113//158 115//162
f 110//159 114//161 113//158
f 80//100 77//98 125//109
f 112//156 125//109 77//98
f 112//156 115//162 125//109
f 116//163 806//164 118//165
f 807//166 214//167 116//163
f 161//168 170//169 123//170
f 161//168 207//171 159//128
f 207//171 161//168 123//170
f 120//172 127//102 129//173
f 127//102 120//172 119//106
f 120//172 121//174 119//106
f 136//175 121//174 120//172
f 169//176 164//177 122//178
f 164//177 808//179 122//178
f 124//180 122//178 136//175
f 123//170 169//176 122//178
f 122//178 808//179 136//175
f 123//170 122//178 124//180
f 795//101 126//108 127//102
f 126//108 125//109 128//181
f 127//102 126//108 129//173
f 129//173 126//108 130//182
f 126//108 128//181 130//182
f 134//183 128//181 131//184
f 128//181 125//109 131//184
f 132//185 129//173 133//186
f 129//173 130//182 133//186
f 128//181 134//183 130//182
f 130//182 134//183 133//186
f 132//185 120//172 129//173
f 136//175 132//185 135//187
f 132//185 133//186 135//187
f 133//186 134//183 135//187
f 136//175 120//172 132//185
f 135//187 134//183 138//188
f 136//175 137//189 124//180
f 137//189 136//175 135//187
f 135//187 138//188 137//189
f 137//189 138//188 139//190
f 139//190 124//180 137//189
f 138//188 141//191 139//190
f 279//192 124//180 139//190
f 134//183 131//184 140//193
f 134//183 140//193 138//188
f 140//193 131//184 142//194
f 141//191 138//188 140//193
f 142//194 141//191 140//193
f 143//195 125//109 115//162
f 131//184 125//109 145//196
f 131//184 145//196 146//197
f 131//184 146//197 142//194
f 141//191 142//194 217//198
f 113//158 143//195 115//162
f 143//195 144//199 125//109
f 144//199 143//195 151//200
f 143//195 113//158 151//200
f 144//199 145//196 125//109
f 146//197 145//196 147//201
f 145//196 144//199 147//201
f 144//199 151//200 148//202
f 147//201 144//199 148//202
f 142//194 146//197 149//203
f 146//197 147//201 149//203
f 149//203 147//201 150//204
f 147//201 148//202 150//204
f 218//205 217//198 142//194
f 142//194 149//203 218//205
f 149//203 150//204 218//205
f 218//205 150//204 154//206
f 113//158 114//161 151//200
f 151//200 806//164 116//163
f 151//200 116//163 148//202
f 117//207 152//208 116//163
f 148//202 116//163 152//208
f 148//202 152//208 150//204
f 152//208 153//209 154//206
f 117//207 153//209 152//208
f 152//208 154//206 150//204
f 154//206 153//209 220//210
f 157//211 173//125 156//212
f 173//125 158//90 156//212
f 278//213 158//90 207//171
f 160//214 159//128 168//215
f 158//90 159//128 207//171
f 160//214 161//168 159//128
f 161//168 160//214 170//169
f 170//169 160//214 167//216
f 160//214 168//215 167//216
f 164//177 162//115 808//179
f 121//174 162//115 119//106
f 164//177 163//113 162//115
f 163//113 165//217 797//114
f 165//217 100//116 797//114
f 166//218 164//177 169//176
f 164//177 166//218 163//113
f 166//218 165//217 163//113
f 159//128 175//130 168//215
f 170//169 166//218 169//176
f 170//169 167//216 166//218
f 166//218 167//216 168//215
f 166//218 168//215 165//217
f 170//169 169//176 123//170
f 171//118 172//122 155//219
f 172//122 157//211 155//219
f 157//211 172//122 173//125
f 798//124 88//123 173//125
f 88//123 158//90 173//125
f 177//220 96//129 174//136
f 177//220 174//136 178//221
f 174//136 97//137 178//221
f 178//221 97//137 179//140
f 168//215 175//130 180//222
f 100//116 165//217 176//223
f 176//223 165//217 181//224
f 100//116 176//223 802//141
f 175//130 96//129 177//220
f 175//130 177//220 180//222
f 177//220 178//221 180//222
f 178//221 179//140 181//224
f 179//140 809//225 181//224
f 809//225 179//140 101//139
f 165//217 168//215 181//224
f 181//224 168//215 180//222
f 178//221 181//224 180//222
f 224//226 186//227 184//228
f 190//229 191//230 239//231
f 190//229 184//228 193//232
f 190//229 182//233 184//228
f 182//233 242//234 224//226
f 184//228 182//233 224//226
f 183//235 192//144 193//232
f 810//236 185//237 194//238
f 810//236 194//238 813//239
f 184//228 186//227 811//240
f 184//228 811//240 183//235
f 183//235 193//232 184//228
f 186//227 245//241 811//240
f 246//242 194//238 185//237
f 246//242 185//237 818//243
f 198//244 188//245 189//246
f 190//229 199//154 191//230
f 189//246 191//230 199//154
f 188//245 812//247 189//246
f 106//157 199//154 190//229
f 106//157 193//232 105//147
f 193//232 106//157 190//229
f 194//238 814//148 813//239
f 192//144 105//147 193//232
f 202//248 814//148 194//238
f 202//248 201//149 814//148
f 194//238 262//249 202//248
f 196//250 197//251 203//153
f 195//252 196//250 203//153
f 198//244 189//246 197//251
f 197//251 196//250 198//244
f 258//253 198//244 196//250
f 112//156 197//251 199//154
f 197//251 189//246 199//154
f 270//254 108//2 206//91
f 187//152 195//252 203//153
f 112//156 77//98 203//153
f 197//251 112//156 203//153
f 111//151 201//149 205//255
f 351//256 205//255 201//149
f 261//257 351//256 201//149
f 270//254 206//91 271//258
f 214//167 807//166 204//259
f 205//255 118//165 806//164
f 204//259 807//166 205//255
f 205//255 360//260 204//259
f 111//151 205//255 806//164
f 815//261 215//262 275//263
f 278//213 207//171 279//192
f 207//171 123//170 124//180
f 124//180 279//192 207//171
f 208//264 139//190 217//198
f 208//264 209//265 280//266
f 214//167 210//267 116//163
f 210//267 117//207 116//163
f 213//268 210//267 214//167
f 210//267 212//269 117//207
f 213//268 212//269 210//267
f 117//207 212//269 211//270
f 211//270 212//269 209//265
f 280//266 209//265 212//269
f 280//266 212//269 213//268
f 281//271 213//268 214//167
f 214//167 204//259 281//271
f 204//259 360//260 281//271
f 215//262 216//272 275//263
f 85//42 171//118 815//261
f 815//261 171//118 215//262
f 221//273 216//272 215//262
f 282//274 216//272 221//273
f 222//275 158//90 283//276
f 158//90 278//213 283//276
f 217//198 139//190 141//191
f 217//198 218//205 219//277
f 220//210 219//277 218//205
f 154//206 220//210 218//205
f 219//277 208//264 217//198
f 220//210 209//265 219//277
f 219//277 209//265 208//264
f 211//270 153//209 117//207
f 211//270 209//265 220//210
f 153//209 211//270 220//210
f 215//262 171//118 155//219
f 221//273 215//262 155//219
f 155//219 157//211 221//273
f 222//275 221//273 157//211
f 222//275 282//274 221//273
f 222//275 157//211 156//212
f 156//212 158//90 222//275
f 239//231 225//278 242//234
f 182//233 239//231 242//234
f 223//279 225//278 239//231
f 223//279 229//280 225//278
f 229//280 223//279 231//281
f 225//278 232//282 224//226
f 224//226 242//234 225//278
f 225//278 226//283 232//282
f 226//283 233//284 232//282
f 229//280 227//285 225//278
f 225//278 227//285 226//283
f 227//285 228//286 226//283
f 226//283 228//286 233//284
f 228//286 234//287 233//284
f 229//280 231//281 227//285
f 231//281 230//288 227//285
f 227//285 230//288 228//286
f 230//288 234//287 228//286
f 243//289 234//287 230//288
f 230//288 231//281 244//290
f 230//288 244//290 243//289
f 186//227 224//226 232//282
f 245//241 186//227 232//282
f 232//282 233//284 245//241
f 233//284 234//287 245//241
f 234//287 247//291 245//241
f 247//291 234//287 243//289
f 812//247 188//245 250//292
f 812//247 250//292 237//293
f 191//230 236//294 239//231
f 237//293 238//295 816//296
f 812//247 237//293 816//296
f 817//297 241//298 238//295
f 241//298 817//297 821//299
f 190//229 239//231 182//233
f 236//294 223//279 239//231
f 238//295 223//279 816//296
f 223//279 238//295 240//300
f 240//300 231//281 223//279
f 231//281 240//300 244//290
f 240//300 238//295 241//298
f 244//290 240//300 241//298
f 244//290 286//301 243//289
f 243//289 286//301 252//302
f 286//301 244//290 241//298
f 819//303 245//241 247//291
f 819//303 247//291 252//302
f 820//304 252//302 194//238
f 247//291 243//289 252//302
f 108//2 248//305 187//152
f 235//306 195//252 187//152
f 255//307 254//308 195//252
f 235//306 255//307 195//252
f 235//306 291//309 822//310
f 198//244 259//311 188//245
f 188//245 259//311 249//312
f 554//313 249//312 259//311
f 249//312 821//299 188//245
f 251//314 821//299 249//312
f 241//298 821//299 251//314
f 241//298 251//314 292//315
f 252//302 262//249 194//238
f 265//316 252//302 286//301
f 294//317 253//318 268//319
f 253//318 248//305 108//2
f 108//2 270//254 253//318
f 293//320 290//321 248//305
f 293//320 248//305 253//318
f 196//250 195//252 254//308
f 256//322 258//253 254//308
f 255//307 256//322 254//308
f 823//323 257//324 256//322
f 254//308 258//253 196//250
f 258//253 259//311 198//244
f 258//253 257//324 259//311
f 256//322 257//324 258//253
f 249//312 292//315 251//314
f 201//149 202//248 261//257
f 262//249 263//325 202//248
f 263//325 261//257 202//248
f 260//326 261//257 263//325
f 252//302 264//327 262//249
f 266//328 263//325 264//327
f 264//327 263//325 262//249
f 266//328 260//326 263//325
f 264//327 252//302 265//316
f 265//316 266//328 264//327
f 300//329 266//328 265//316
f 260//326 266//328 300//329
f 304//330 269//331 303//332
f 270//254 268//319 253//318
f 268//319 270//254 267//333
f 267//333 270//254 271//258
f 267//333 271//258 273//334
f 269//331 304//330 268//319
f 267//333 269//331 268//319
f 267//333 273//334 269//331
f 269//331 329//335 303//332
f 269//331 273//334 329//335
f 273//334 271//258 272//336
f 273//334 274//337 329//335
f 273//334 272//336 274//337
f 274//337 272//336 352//338
f 352//338 333//339 274//337
f 272//336 271//258 815//261
f 349//340 348//341 278//213
f 278//213 279//192 349//340
f 208//264 349//340 279//192
f 349//340 208//264 350//342
f 815//261 275//263 272//336
f 277//343 275//263 276//344
f 272//336 277//343 352//338
f 275//263 277//343 272//336
f 276//344 354//345 277//343
f 277//343 353//346 352//338
f 277//343 354//345 353//346
f 284//347 354//345 276//344
f 283//276 356//348 284//347
f 345//349 357//350 278//213
f 208//264 279//192 139//190
f 280//266 350//342 208//264
f 358//351 350//342 280//266
f 280//266 213//268 281//271
f 280//266 281//271 358//351
f 358//351 281//271 360//260
f 276//344 275//263 216//272
f 282//274 276//344 216//272
f 282//274 283//276 284//347
f 222//275 283//276 282//274
f 282//274 284//347 276//344
f 285//352 235//306 187//152
f 290//321 471//353 362//354
f 290//321 362//354 248//305
f 248//305 362//354 285//352
f 187//152 248//305 285//352
f 241//298 292//315 286//301
f 287//355 290//321 293//320
f 287//355 293//320 296//356
f 287//355 288//357 290//321
f 287//355 289//358 288//357
f 296//356 305//359 289//358
f 289//358 287//355 296//356
f 288//357 289//358 363//360
f 289//358 305//359 374//361
f 373//362 823//323 824//363
f 257//324 823//323 373//362
f 299//364 286//301 292//315
f 295//365 294//317 268//319
f 294//317 293//320 253//318
f 296//356 294//317 295//365
f 296//356 295//365 305//359
f 293//320 294//317 296//356
f 374//361 305//359 307//366
f 378//367 310//368 379//369
f 310//368 297//370 379//369
f 312//371 380//372 825//373
f 496//374 385//375 322//376
f 257//324 554//313 259//311
f 249//312 554//313 326//377
f 292//315 249//312 298//378
f 298//378 249//312 326//377
f 327//379 298//378 326//377
f 301//380 299//364 298//378
f 300//329 299//364 301//380
f 302//381 300//329 301//380
f 260//326 300//329 302//381
f 292//315 298//378 299//364
f 301//380 298//378 327//379
f 302//381 301//380 327//379
f 286//301 299//364 265//316
f 265//316 299//364 300//329
f 295//365 268//319 304//330
f 304//330 305//359 295//365
f 304//330 303//332 306//382
f 303//332 330//383 306//382
f 303//332 329//335 330//383
f 307//366 305//359 304//330
f 306//382 307//366 304//330
f 331//384 308//385 307//366
f 306//382 331//384 307//366
f 331//384 306//382 330//383
f 307//366 375//386 842//387
f 375//386 307//366 309//388
f 308//385 309//388 307//366
f 309//388 308//385 403//389
f 310//368 378//367 408//390
f 297//370 310//368 311//391
f 825//373 827//392 312//371
f 826//393 313//394 828//395
f 323//396 382//397 409//398
f 323//396 324//399 382//397
f 409//398 830//400 315//401
f 830//400 314//402 315//401
f 315//401 323//396 409//398
f 829//403 313//394 830//400
f 830//400 313//394 314//402
f 826//393 440//404 313//394
f 313//394 410//405 314//402
f 440//404 410//405 313//394
f 410//405 337//406 314//402
f 337//406 315//401 314//402
f 315//401 337//406 323//396
f 316//407 319//408 317//409
f 319//408 318//410 317//409
f 318//410 320//411 833//412
f 342//413 320//411 318//410
f 319//408 316//407 385//375
f 322//376 831//414 321//415
f 834//416 325//417 321//415
f 834//416 321//415 831//414
f 319//408 339//418 318//410
f 320//411 325//417 835//419
f 342//413 318//410 339//418
f 321//415 413//420 322//376
f 339//418 319//408 323//396
f 322//376 385//375 832//421
f 319//408 385//375 324//399
f 323//396 319//408 324//399
f 413//420 416//422 322//376
f 323//396 337//406 339//418
f 385//375 382//397 324//399
f 321//415 325//417 445//423
f 321//415 445//423 415//424
f 326//377 460//425 327//379
f 302//381 836//426 260//326
f 260//326 328//427 261//257
f 260//326 836//426 328//427
f 333//339 330//383 329//335
f 332//428 331//384 330//383
f 332//428 330//383 333//339
f 429//429 308//385 331//384
f 429//429 331//384 332//428
f 429//429 332//428 335//430
f 329//335 274//337 333//339
f 334//431 352//338 336//432
f 334//431 333//339 352//338
f 335//430 334//431 336//432
f 333//339 334//431 332//428
f 335//430 332//428 334//431
f 308//385 429//429 406//433
f 430//434 355//435 356//348
f 335//430 355//435 430//434
f 357//350 436//436 356//348
f 339//418 337//406 439//437
f 438//438 436//436 357//350
f 338//439 320//411 342//413
f 320//411 346//440 325//417
f 342//413 340//441 338//439
f 338//439 346//440 320//411
f 838//442 346//440 338//439
f 357//350 345//349 341//443
f 343//444 340//441 342//413
f 341//443 340//441 343//444
f 340//441 341//443 840//445
f 345//349 840//445 341//443
f 342//413 339//418 439//437
f 341//443 343//444 344//446
f 344//446 357//350 341//443
f 343//444 439//437 438//438
f 439//437 343//444 342//413
f 438//438 344//446 343//444
f 438//438 357//350 344//446
f 345//349 278//213 348//341
f 347//447 345//349 348//341
f 443//448 841//449 839//450
f 347//447 854//451 345//349
f 325//417 346//440 445//423
f 348//341 449//452 347//447
f 841//449 443//448 445//423
f 348//341 349//340 456//453
f 349//340 551//454 458//455
f 551//454 349//340 350//342
f 360//260 205//255 361//456
f 361//456 205//255 351//256
f 459//457 555//458 351//256
f 837//459 351//256 261//257
f 336//432 352//338 353//346
f 355//435 336//432 353//346
f 355//435 353//346 354//345
f 355//435 335//430 336//432
f 355//435 354//345 356//348
f 284//347 356//348 354//345
f 356//348 283//276 357//350
f 283//276 278//213 357//350
f 350//342 358//351 461//460
f 358//351 469//461 461//460
f 358//351 360//260 359//462
f 360//260 464//463 462//464
f 359//462 462//464 463//465
f 359//462 360//260 462//464
f 358//351 359//462 463//465
f 361//456 464//463 360//260
f 361//456 466//466 464//463
f 466//466 361//456 467//467
f 361//456 351//256 467//467
f 471//353 472//468 362//354
f 373//362 824//363 480//469
f 291//309 235//306 479//470
f 824//363 479//470 480//469
f 290//321 364//471 471//353
f 481//472 364//471 365//473
f 481//472 471//353 364//471
f 484//474 365//473 368//475
f 482//476 471//353 481//472
f 374//361 363//360 289//358
f 363//360 375//386 367//477
f 842//387 375//386 363//360
f 290//321 288//357 364//471
f 364//471 288//357 365//473
f 288//357 363//360 365//473
f 363//360 366//478 365//473
f 366//478 363//360 367//477
f 366//478 368//475 365//473
f 368//475 366//478 367//477
f 367//477 375//386 377//479
f 368//475 367//477 369//480
f 367//477 377//479 369//480
f 491//481 369//480 377//479
f 369//480 491//481 492//482
f 377//479 384//483 491//481
f 371//484 370//485 372//486
f 386//487 370//485 371//484
f 499//488 386//487 371//484
f 375//386 309//388 403//389
f 375//386 403//389 376//489
f 403//389 408//390 378//367
f 378//367 376//489 403//389
f 377//479 376//489 378//367
f 375//386 376//489 377//479
f 381//490 384//483 379//369
f 377//479 378//367 384//483
f 378//367 379//369 384//483
f 381//490 379//369 825//373
f 380//372 381//490 825//373
f 382//397 385//375 383//491
f 382//397 843//492 830//400
f 381//490 380//372 384//483
f 382//397 384//483 380//372
f 383//491 384//483 382//397
f 383//491 496//374 384//483
f 383//491 385//375 496//374
f 496//374 322//376 416//422
f 496//374 386//487 499//488
f 386//487 387//493 394//494
f 392//495 387//493 386//487
f 394//494 388//496 395//497
f 387//493 388//496 394//494
f 387//493 392//495 389//498
f 387//493 389//498 388//496
f 388//496 389//498 390//499
f 388//496 390//499 391//500
f 496//374 851//501 386//487
f 386//487 851//501 392//495
f 392//495 851//501 417//502
f 417//502 389//498 392//495
f 395//497 388//496 393//503
f 393//503 388//496 391//500
f 386//487 394//494 370//485
f 395//497 393//503 396//504
f 396//504 393//503 391//500
f 396//504 391//500 421//505
f 370//485 394//494 395//497
f 370//485 395//497 396//504
f 421//505 506//506 396//504
f 507//507 397//508 509//509
f 399//510 397//508 507//507
f 398//511 844//512 400//513
f 844//512 398//511 397//508
f 398//511 400//513 525//514
f 401//515 399//510 507//507
f 846//516 845//517 847//518
f 846//516 847//518 402//519
f 400//513 848//520 521//521
f 522//522 401//515 507//507
f 401//515 523//523 849//524
f 403//389 308//385 404//525
f 405//526 403//389 404//525
f 404//525 407//527 405//526
f 308//385 406//433 404//525
f 407//527 434//528 405//526
f 407//527 404//525 406//433
f 407//527 406//433 431//529
f 433//530 407//527 431//529
f 434//528 407//527 433//530
f 850//531 403//389 434//528
f 850//531 434//528 826//393
f 434//528 403//389 405//526
f 830//400 409//398 382//397
f 321//415 415//424 413//420
f 389//498 411//532 390//499
f 851//501 413//420 412//533
f 412//533 411//532 389//498
f 412//533 414//534 411//532
f 411//532 414//534 390//499
f 412//533 413//420 419//535
f 412//533 419//535 414//534
f 413//420 415//424 419//535
f 446//536 451//537 414//534
f 445//423 419//535 415//424
f 390//499 418//538 391//500
f 391//500 418//538 421//505
f 417//502 851//501 412//533
f 417//502 412//533 389//498
f 414//534 418//538 390//499
f 414//534 419//535 446//536
f 419//535 445//423 447//539
f 446//536 419//535 447//539
f 451//537 420//540 414//534
f 421//505 418//538 422//541
f 418//538 414//534 420//540
f 422//541 418//538 420//540
f 420//540 426//542 422//541
f 426//542 420//540 424//543
f 420//540 451//537 423//544
f 424//543 420//540 423//544
f 421//505 422//541 506//506
f 452//545 423//544 451//537
f 424//543 423//544 452//545
f 424//543 452//545 453//546
f 422//541 426//542 506//506
f 453//546 425//547 424//543
f 425//547 453//546 455//548
f 426//542 424//543 425//547
f 426//542 425//547 427//549
f 425//547 455//548 427//549
f 427//549 455//548 428//550
f 427//549 428//550 537//551
f 506//506 426//542 537//551
f 427//549 537//551 426//542
f 428//550 539//552 537//551
f 428//550 457//553 539//552
f 335//430 430//434 429//429
f 406//433 429//429 431//529
f 431//529 429//429 430//434
f 432//554 431//529 430//434
f 432//554 436//436 852//555
f 430//434 436//436 432//554
f 431//529 432//554 433//530
f 436//436 430//434 356//348
f 434//528 440//404 826//393
f 434//528 435//556 442//557
f 434//528 442//557 440//404
f 853//558 436//436 437//559
f 853//558 437//559 442//557
f 437//559 441//560 442//557
f 852//555 436//436 853//558
f 433//530 435//556 434//528
f 440//404 337//406 410//405
f 437//559 436//436 438//438
f 440//404 439//437 337//406
f 438//438 441//560 437//559
f 439//437 441//560 438//438
f 440//404 442//557 439//437
f 442//557 441//560 439//437
f 445//423 443//448 444//561
f 854//451 347//447 855//562
f 449//452 855//562 347//447
f 445//423 444//561 447//539
f 856//563 855//562 449//452
f 446//536 447//539 448//564
f 856//563 449//452 857//565
f 454//566 449//452 450//567
f 348//341 450//567 449//452
f 456//453 450//567 348//341
f 446//536 448//564 451//537
f 451//537 448//564 858//568
f 858//568 452//545 451//537
f 452//545 858//568 453//546
f 453//546 454//566 450//567
f 453//546 450//567 455//548
f 454//566 857//565 449//452
f 450//567 456//453 428//550
f 450//567 428//550 455//548
f 458//455 457//553 456//453
f 457//553 428//550 456//453
f 457//553 458//455 550//569
f 456//453 349//340 458//455
f 550//569 458//455 551//454
f 551//454 350//342 461//460
f 836//426 859//570 328//427
f 459//457 351//256 837//459
f 554//313 460//425 326//377
f 836//426 556//571 859//570
f 555//458 459//457 869//572
f 327//379 460//425 870//573
f 469//461 358//351 463//465
f 462//464 464//463 463//465
f 463//465 464//463 465//574
f 465//574 470//575 557//576
f 464//463 470//575 465//574
f 470//575 464//463 466//466
f 467//467 470//575 466//466
f 470//575 467//467 468//577
f 467//467 351//256 555//458
f 468//577 467//467 555//458
f 557//576 461//460 469//461
f 463//465 557//576 469//461
f 463//465 465//574 557//576
f 475//578 572//579 565//580
f 285//352 362//354 560//581
f 560//581 562//582 285//352
f 285//352 569//583 235//306
f 562//582 569//583 285//352
f 479//470 235//306 569//583
f 473//584 471//353 482//476
f 482//476 488//585 473//584
f 473//584 472//468 471//353
f 474//586 472//468 473//584
f 477//587 474//586 473//584
f 473//584 478//588 477//587
f 475//578 474//586 476//589
f 475//578 472//468 474//586
f 572//579 475//578 476//589
f 476//589 474//586 477//587
f 574//590 476//589 477//587
f 478//588 574//590 477//587
f 478//588 582//591 574//590
f 481//472 365//473 483//592
f 483//592 365//473 484//474
f 368//475 369//480 484//474
f 481//472 483//592 485//593
f 485//593 482//476 481//472
f 482//476 485//593 488//585
f 485//593 486//594 489//595
f 486//594 485//593 483//592
f 484//474 486//594 483//592
f 489//595 488//585 485//593
f 486//594 484//474 492//482
f 492//482 484//474 369//480
f 489//595 486//594 487//596
f 492//482 487//596 486//594
f 473//584 488//585 478//588
f 489//595 581//597 488//585
f 581//597 487//596 495//598
f 489//595 487//596 581//597
f 490//599 584//600 502//601
f 493//602 492//482 491//481
f 487//596 492//482 495//598
f 384//483 493//602 491//481
f 494//603 492//482 493//602
f 384//483 494//603 493//602
f 494//603 496//374 498//604
f 494//603 384//483 496//374
f 492//482 494//603 495//598
f 497//605 496//374 499//488
f 496//374 497//605 498//604
f 500//606 498//604 497//605
f 502//601 498//604 500//606
f 502//601 584//600 498//604
f 500//606 371//484 372//486
f 499//488 371//484 500//606
f 372//486 501//607 500//606
f 500//606 497//605 499//488
f 502//601 500//606 490//599
f 500//606 501//607 490//599
f 585//608 490//599 501//607
f 372//486 370//485 506//506
f 372//486 585//608 501//607
f 517//609 504//610 585//608
f 397//508 503//611 509//509
f 398//511 503//611 397//508
f 509//509 503//611 504//610
f 503//611 586//612 504//610
f 503//611 398//511 525//514
f 587//613 586//612 503//611
f 525//514 587//613 503//611
f 587//613 525//514 505//614
f 588//615 587//613 505//614
f 480//469 593//616 596//617
f 506//506 370//485 396//504
f 506//506 585//608 372//486
f 512//618 585//608 506//506
f 512//618 506//506 516//619
f 861//620 517//609 585//608
f 508//621 522//522 507//507
f 508//621 515//622 522//522
f 515//622 529//623 522//522
f 509//509 508//621 507//507
f 516//619 506//506 537//551
f 508//621 509//509 510//624
f 514//625 508//621 510//624
f 516//619 518//626 512//618
f 515//622 508//621 514//625
f 515//622 540//627 529//623
f 517//609 509//509 504//610
f 510//624 509//509 517//609
f 517//609 511//628 510//624
f 511//628 513//629 510//624
f 517//609 861//620 860//630
f 860//630 861//620 513//629
f 510//624 513//629 514//625
f 514//625 513//629 862//631
f 520//632 514//625 862//631
f 861//620 862//631 513//629
f 515//622 514//625 520//632
f 518//626 516//619 519//633
f 520//632 540//627 515//622
f 519//633 863//634 518//626
f 526//635 525//514 400//513
f 526//635 400//513 521//521
f 521//521 849//524 523//523
f 522//522 524//636 401//515
f 401//515 524//636 523//523
f 523//523 524//636 530//637
f 521//521 523//523 528//638
f 529//623 524//636 522//522
f 529//623 530//637 524//636
f 530//637 534//639 523//523
f 526//635 521//521 527//640
f 521//521 528//638 527//640
f 523//523 534//639 528//638
f 525//514 526//635 531//641
f 864//642 526//635 532//643
f 526//635 527//640 532//643
f 527//640 528//638 532//643
f 530//637 529//623 540//627
f 540//627 541//644 530//637
f 541//644 534//639 530//637
f 505//614 525//514 531//641
f 864//642 533//645 505//614
f 532//643 533//645 864//642
f 528//638 534//639 536//646
f 505//614 533//645 589//647
f 536//646 532//643 528//638
f 589//647 533//645 590//648
f 590//648 533//645 535//649
f 535//649 533//645 532//643
f 535//649 532//643 536//646
f 534//639 548//650 604//651
f 534//639 604//651 536//646
f 589//647 588//615 505//614
f 597//652 590//648 535//649
f 536//646 595//653 535//649
f 604//651 595//653 536//646
f 373//362 596//617 598//654
f 596//617 373//362 480//469
f 598//654 611//655 373//362
f 597//652 535//649 595//653
f 519//633 538//656 863//634
f 863//634 538//656 542//657
f 519//633 516//619 537//551
f 538//656 519//633 537//551
f 538//656 537//551 539//552
f 457//553 547//658 539//552
f 547//658 457//553 553//659
f 538//656 539//552 545//660
f 545//660 539//552 547//658
f 520//632 542//657 540//627
f 540//627 542//657 541//644
f 541//644 542//657 543//661
f 541//644 543//661 544//662
f 546//663 534//639 544//662
f 534//639 541//644 544//662
f 538//656 545//660 542//657
f 542//657 545//660 543//661
f 543//661 545//660 865//664
f 544//662 545//660 546//663
f 545//660 547//658 546//663
f 547//658 608//665 549//666
f 608//665 547//658 553//659
f 546//663 548//650 534//639
f 549//666 548//650 546//663
f 547//658 549//666 546//663
f 604//651 548//650 605//667
f 605//667 548//650 549//666
f 868//668 457//553 550//569
f 553//659 866//669 552//670
f 867//671 550//569 551//454
f 867//671 618//672 612//673
f 552//670 613//674 553//659
f 612//673 613//674 552//670
f 618//672 867//671 551//454
f 870//573 460//425 554//313
f 618//672 551//454 461//460
f 555//458 558//675 468//577
f 620//676 870//573 554//313
f 869//572 635//677 558//675
f 555//458 869//572 558//675
f 559//678 461//460 557//576
f 631//679 468//577 629//680
f 635//677 629//680 558//675
f 629//680 468//577 558//675
f 557//576 637//681 559//678
f 561//682 562//582 560//581
f 561//682 642//683 562//582
f 643//684 569//583 705//685
f 472//468 475//578 565//580
f 563//686 472//468 565//580
f 564//687 563//686 565//580
f 561//682 563//686 564//687
f 566//688 565//580 572//579
f 575//689 566//688 572//579
f 575//689 577//690 566//688
f 564//687 567//691 561//682
f 567//691 564//687 565//580
f 566//688 568//692 565//580
f 577//690 568//692 566//688
f 565//580 568//692 567//691
f 698//693 567//691 568//692
f 362//354 563//686 560//581
f 362//354 472//468 563//686
f 563//686 561//682 560//581
f 480//469 479//470 570//694
f 569//583 570//694 479//470
f 569//583 643//684 570//694
f 647//695 571//696 570//694
f 575//689 572//579 476//589
f 476//589 573//697 575//689
f 573//697 476//589 574//590
f 582//591 478//588 488//585
f 573//697 576//698 575//689
f 573//697 574//590 576//698
f 582//591 576//698 574//590
f 575//689 576//698 578//699
f 576//698 582//591 583//700
f 576//698 583//700 584//600
f 578//699 576//698 584//600
f 578//699 577//690 575//689
f 579//701 584//600 580//702
f 584//600 579//701 578//699
f 708//703 577//690 578//699
f 579//701 645//704 708//703
f 648//705 579//701 580//702
f 570//694 571//696 480//469
f 480//469 571//696 653//706
f 571//696 650//707 653//706
f 488//585 581//597 582//591
f 581//597 495//598 583//700
f 583//700 494//603 498//604
f 582//591 581//597 583//700
f 498//604 584//600 583//700
f 490//599 585//608 584//600
f 580//702 584//600 585//608
f 494//603 583//700 495//598
f 504//610 586//612 585//608
f 587//613 585//608 586//612
f 588//615 651//708 587//613
f 587//613 892//709 585//608
f 480//469 655//710 593//616
f 651//708 588//615 657//711
f 655//710 480//469 653//706
f 656//712 593//616 655//710
f 657//711 588//615 592//713
f 895//714 872//715 594//716
f 656//712 873//717 593//616
f 589//647 592//713 588//615
f 589//647 590//648 592//713
f 591//718 592//713 590//648
f 591//718 590//648 597//652
f 591//718 597//652 602//719
f 871//720 876//721 600//722
f 594//716 871//720 600//722
f 594//716 872//715 871//720
f 873//717 874//723 593//616
f 599//724 597//652 595//653
f 599//724 595//653 609//725
f 601//726 596//617 593//616
f 603//727 875//728 602//719
f 596//617 601//726 598//654
f 598//654 601//726 878//729
f 599//724 602//719 597//652
f 879//730 599//724 616//731
f 602//719 599//724 603//727
f 611//655 598//654 878//729
f 616//731 599//724 609//725
f 601//726 593//616 874//723
f 601//726 874//723 877//732
f 880//733 879//730 616//731
f 605//667 595//653 604//651
f 605//667 549//666 606//734
f 606//734 549//666 607//735
f 607//735 549//666 608//665
f 595//653 605//667 609//725
f 605//667 606//734 609//725
f 613//674 608//665 553//659
f 607//735 609//725 606//734
f 608//665 613//674 616//731
f 610//736 609//725 607//735
f 610//736 607//735 608//665
f 616//731 610//736 608//665
f 609//725 610//736 616//731
f 616//731 660//737 880//733
f 618//672 617//738 612//673
f 615//739 613//674 612//673
f 614//740 613//674 615//739
f 615//739 612//673 617//738
f 614//740 616//731 613//674
f 617//738 619//741 615//739
f 659//742 616//731 614//740
f 615//739 659//742 614//740
f 373//362 668//743 257//324
f 619//741 617//738 618//672
f 619//741 662//744 615//739
f 668//743 682//745 257//324
f 554//313 257//324 620//676
f 620//676 257//324 622//746
f 887//747 870//573 620//676
f 618//672 461//460 672//748
f 257//324 682//745 688//749
f 688//749 621//750 257//324
f 557//576 470//575 639//751
f 622//746 257//324 621//750
f 621//750 624//752 622//746
f 626//753 624//752 693//754
f 626//753 693//754 640//755
f 621//750 692//756 624//752
f 692//756 693//754 624//752
f 470//575 631//679 639//751
f 622//746 623//757 634//758
f 886//759 881//760 633//761
f 633//761 882//762 631//679
f 622//746 625//763 623//757
f 627//764 883//765 884//766
f 882//762 627//764 631//679
f 631//679 628//767 639//751
f 622//746 624//752 625//763
f 624//752 626//753 627//764
f 624//752 627//764 884//766
f 626//753 640//755 628//767
f 628//767 631//679 627//764
f 628//767 627//764 626//753
f 470//575 468//577 631//679
f 630//768 629//680 632//769
f 630//768 631//679 629//680
f 631//679 630//768 633//761
f 622//746 634//758 620//676
f 620//676 634//758 885//770
f 885//770 887//747 620//676
f 630//768 632//769 633//761
f 632//769 886//759 633//761
f 632//769 629//680 635//677
f 636//771 678//772 559//678
f 637//681 636//771 559//678
f 637//681 686//773 636//771
f 637//681 557//576 686//773
f 686//773 557//576 638//774
f 638//774 557//576 639//751
f 888//775 639//751 628//767
f 888//775 641//776 639//751
f 638//774 639//751 641//776
f 694//777 889//778 693//754
f 640//755 693//754 889//778
f 696//779 697//780 561//682
f 561//682 697//780 642//683
f 562//582 642//683 699//781
f 569//583 562//582 699//781
f 561//682 567//691 696//779
f 696//779 567//691 698//693
f 577//690 708//703 568//692
f 891//782 647//695 570//694
f 647//695 891//782 644//783
f 647//695 715//784 571//696
f 646//785 647//695 644//783
f 715//784 647//695 646//785
f 578//699 579//701 708//703
f 648//705 645//704 579//701
f 649//786 645//704 648//705
f 580//702 649//786 648//705
f 580//702 585//608 892//709
f 580//702 713//787 649//786
f 650//707 571//696 715//784
f 650//707 714//788 653//706
f 580//702 892//709 713//787
f 652//789 713//787 892//709
f 658//790 652//789 892//709
f 714//788 654//791 653//706
f 658//790 893//792 652//789
f 895//714 658//790 892//709
f 653//706 654//791 655//710
f 654//791 656//712 655//710
f 658//790 894//793 893//792
f 658//790 594//716 894//793
f 594//716 658//790 895//714
f 616//731 659//742 660//737
f 662//744 659//742 615//739
f 664//794 661//795 896//796
f 659//742 898//797 660//737
f 373//362 611//655 661//795
f 896//796 661//795 611//655
f 661//795 668//743 373//362
f 659//742 662//744 898//797
f 618//672 663//798 619//741
f 663//798 618//672 672//748
f 666//799 668//743 661//795
f 619//741 897//800 662//744
f 670//801 663//798 672//748
f 665//802 661//795 664//794
f 662//744 899//803 898//797
f 666//799 661//795 665//802
f 897//800 899//803 662//744
f 899//803 897//800 667//804
f 667//804 897//800 670//801
f 900//805 666//799 665//802
f 666//799 900//805 669//806
f 666//799 669//806 668//743
f 670//801 672//748 673//807
f 670//801 671//808 667//804
f 675//809 669//806 900//805
f 901//810 667//804 671//808
f 673//807 672//748 674//811
f 461//460 674//811 672//748
f 670//801 673//807 671//808
f 671//808 673//807 676//812
f 676//812 673//807 674//811
f 671//808 719//813 901//810
f 719//813 671//808 676//812
f 677//814 676//812 674//811
f 677//814 722//815 676//812
f 676//812 722//815 719//813
f 669//806 742//816 668//743
f 692//756 621//750 688//749
f 677//814 674//811 724//817
f 724//817 674//811 461//460
f 724//817 461//460 678//772
f 725//818 678//772 737//819
f 559//678 678//772 461//460
f 695//820 636//771 679//821
f 678//772 636//771 695//820
f 679//821 636//771 686//773
f 691//822 690//823 683//824
f 691//822 683//824 680//825
f 691//822 680//825 689//826
f 681//827 679//821 909//828
f 680//825 903//829 689//826
f 682//745 912//830 688//749
f 749//831 685//832 682//745
f 682//745 685//832 904//833
f 912//830 682//745 904//833
f 685//832 684//834 683//824
f 683//824 684//834 680//825
f 905//835 903//829 680//825
f 694//777 692//756 908//836
f 687//837 638//774 913//838
f 679//821 686//773 687//837
f 687//837 686//773 638//774
f 906//839 908//836 910//840
f 694//777 908//836 906//839
f 907//841 911//841 902//841
f 691//822 910//840 908//836
f 691//822 908//836 690//823
f 694//777 693//754 692//756
f 890//842 913//838 638//774
f 678//772 695//820 737//819
f 697//780 696//779 701//843
f 701//843 696//779 698//693
f 701//843 698//693 702//844
f 568//692 708//703 698//693
f 698//693 708//703 914//845
f 699//781 706//846 704//847
f 697//780 700//848 642//683
f 642//683 700//848 699//781
f 704//847 569//583 699//781
f 701//843 700//848 697//780
f 701//843 703//849 700//848
f 700//848 706//846 699//781
f 700//848 703//849 706//846
f 701//843 702//844 915//850
f 708//703 775//851 914//845
f 702//844 765//852 915//850
f 775//851 765//852 914//845
f 704//847 705//685 569//583
f 705//685 644//783 891//782
f 773//853 644//783 705//685
f 706//846 707//854 704//847
f 705//685 704//847 707//854
f 764//855 707//854 706//846
f 764//855 706//846 703//849
f 705//685 707//854 766//856
f 773//853 646//785 644//783
f 773//853 705//685 766//856
f 645//704 649//786 709//857
f 708//703 645//704 775//851
f 645//704 709//857 775//851
f 712//858 709//857 710//859
f 776//860 716//861 715//784
f 779//862 715//784 646//785
f 917//863 934//864 711//865
f 776//860 715//784 779//862
f 711//865 712//858 710//859
f 934//864 712//858 711//865
f 779//862 646//785 773//853
f 709//857 649//786 713//787
f 709//857 713//787 718//866
f 713//787 652//789 916//867
f 893//792 916//867 652//789
f 717//868 916//867 917//863
f 716//861 714//788 650//707
f 716//861 650//707 715//784
f 718//866 713//787 916//867
f 718//866 916//867 717//868
f 718//866 710//859 709//857
f 711//865 710//859 718//866
f 717//868 711//865 718//866
f 711//865 717//868 917//863
f 669//806 675//809 720//869
f 675//809 918//870 720//869
f 720//869 918//870 721//871
f 919//872 719//813 722//815
f 720//869 742//816 669//806
f 721//871 733//873 720//869
f 720//869 733//873 734//874
f 742//816 720//869 734//874
f 677//814 723//875 722//815
f 723//875 677//814 724//817
f 724//817 678//772 725//818
f 919//872 722//815 726//876
f 726//876 722//815 723//875
f 723//875 727//877 726//876
f 727//877 723//875 724//817
f 727//877 724//817 731//878
f 731//878 724//817 725//818
f 733//873 721//871 728//879
f 728//879 919//872 726//876
f 728//879 726//876 729//880
f 729//880 726//876 727//877
f 731//878 729//880 727//877
f 731//878 725//818 732//881
f 732//881 725//818 737//819
f 730//882 728//879 729//880
f 730//882 729//880 731//878
f 735//883 730//882 731//878
f 735//883 731//878 732//881
f 735//883 732//881 740//884
f 742//816 734//874 736//885
f 733//873 728//879 730//882
f 730//882 736//885 733//873
f 733//873 736//885 734//874
f 735//883 736//885 730//882
f 736//885 735//883 743//886
f 736//885 920//887 742//816
f 732//881 737//819 740//884
f 737//819 738//888 740//884
f 740//884 738//888 741//889
f 748//890 741//889 738//888
f 748//890 738//888 756//891
f 742//816 739//892 668//743
f 743//886 735//883 740//884
f 741//889 926//893 744//894
f 921//895 739//892 742//816
f 742//816 920//887 921//895
f 741//889 743//886 740//884
f 744//894 743//886 741//889
f 682//745 668//743 745//896
f 668//743 739//892 745//896
f 756//891 738//888 737//819
f 739//892 747//897 745//896
f 925//898 926//893 746//899
f 747//897 922//900 745//896
f 745//896 922//900 753//901
f 923//902 748//890 757//903
f 923//902 757//903 762//904
f 924//905 931//906 753//901
f 739//892 921//895 747//897
f 744//894 926//893 925//898
f 757//903 748//890 756//891
f 750//907 685//832 749//831
f 685//832 750//907 684//834
f 681//827 758//908 679//821
f 759//909 758//908 681//827
f 928//910 903//829 905//835
f 749//831 682//745 751//911
f 927//912 928//910 905//835
f 745//896 751//911 682//745
f 752//913 749//831 751//911
f 749//831 752//913 750//907
f 752//913 761//914 750//907
f 745//896 754//915 751//911
f 753//901 754//915 745//896
f 754//915 752//913 751//911
f 763//916 752//913 754//915
f 752//913 763//916 761//914
f 763//916 754//915 753//901
f 753//901 931//906 763//916
f 737//819 695//820 756//891
f 756//891 695//820 755//917
f 757//903 756//891 755//917
f 757//903 755//917 760//918
f 762//904 757//903 760//918
f 695//820 679//821 758//908
f 695//820 758//908 760//918
f 760//918 758//908 759//909
f 755//917 695//820 760//918
f 759//909 929//919 760//918
f 930//920 928//910 927//912
f 762//904 760//918 932//921
f 932//921 760//918 929//919
f 764//855 915//850 765//852
f 768//922 764//855 765//852
f 767//923 707//854 764//855
f 767//923 764//855 768//922
f 767//923 769//924 766//856
f 767//923 766//856 707//854
f 769//924 774//925 766//856
f 771//926 767//923 768//922
f 771//926 769//924 767//923
f 768//922 765//852 770//927
f 933//928 768//922 770//927
f 775//851 770//927 765//852
f 769//924 771//926 772//929
f 769//924 772//929 774//925
f 770//927 775//851 778//930
f 770//927 778//930 933//928
f 933//928 778//930 772//929
f 766//856 774//925 773//853
f 774//925 772//929 780//931
f 773//853 774//925 780//931
f 709//857 712//858 775//851
f 775//851 712//858 778//930
f 780//931 776//860 779//862
f 712//858 934//864 777//932
f 780//931 777//932 776//860
f 778//930 712//858 777//932
f 777//932 772//929 778//930
f 773//853 780//931 779//862
f 772//929 777//932 780//931
