# Blender 4.0.2
# www.blender.org
mtllib skull_right_upper_central_incisor_tooth.mtl
o skull_right_upper_central_incisor_tooth
v 0.101380 -0.024219 0.009679
v 0.101369 -0.024669 0.009638
v 0.101039 -0.024149 0.009613
v 0.101748 -0.024409 0.009656
v 0.101444 -0.025049 0.009560
v 0.101719 -0.024829 0.009609
v 0.101513 -0.023659 0.009668
v 0.102096 -0.024059 0.009559
v 0.100522 -0.025509 0.008880
v 0.101478 -0.026069 0.009221
v 0.101410 -0.026459 0.008957
v 0.102176 -0.026449 0.009103
v 0.101911 -0.026679 0.009019
v 0.101766 -0.026989 0.008747
v 0.102054 -0.027119 0.008747
v 0.101580 -0.026879 0.008740
v 0.102297 -0.026889 0.008890
v 0.102182 -0.027189 0.008683
v 0.102643 -0.026949 0.008714
v 0.100321 -0.025009 0.009074
v 0.099909 -0.024489 0.008840
v 0.100985 -0.025249 0.009428
v 0.100884 -0.024749 0.009510
v 0.100928 -0.025589 0.009238
v 0.100632 -0.025169 0.009277
v 0.100349 -0.024639 0.009242
v 0.102122 -0.025799 0.009316
v 0.101868 -0.026029 0.009282
v 0.102538 -0.026149 0.009081
v 0.102507 -0.026529 0.008979
v 0.102798 -0.025879 0.009000
v 0.102803 -0.026419 0.008863
v 0.102155 -0.024899 0.009504
v 0.102517 -0.024409 0.009344
v 0.100794 -0.022249 0.009522
v 0.102927 -0.023029 0.008860
v 0.098558 -0.020459 0.008756
v 0.099278 -0.021149 0.009045
v 0.099077 -0.020149 0.008982
v 0.101012 -0.021259 0.009424
v 0.101629 -0.022049 0.009444
v 0.102590 -0.022579 0.009134
v 0.099987 -0.019999 0.009189
v 0.101552 -0.020689 0.009222
v 0.102281 -0.021129 0.009059
v 0.102778 -0.021749 0.008873
v 0.102731 -0.021089 0.008758
v 0.099066 -0.018379 0.008795
v 0.100836 -0.019649 0.009145
v 0.101992 -0.027309 0.008387
v 0.101769 -0.027189 0.008299
v 0.102009 -0.027319 0.007903
v 0.102268 -0.027429 0.008305
v 0.102244 -0.027489 0.007969
v 0.102658 -0.027599 0.007971
v 0.100581 -0.025739 0.008630
v 0.100890 -0.026069 0.008268
v 0.101413 -0.026789 0.008631
v 0.101705 -0.027069 0.008624
v 0.102003 -0.027229 0.008611
v 0.101740 -0.027039 0.007926
v 0.102471 -0.027339 0.008420
v 0.102963 -0.027229 0.008276
v 0.102717 -0.027519 0.008092
v 0.102880 -0.027539 0.007962
v 0.099553 -0.024239 0.007899
v 0.100103 -0.025049 0.008661
v 0.099729 -0.024539 0.008324
v 0.099952 -0.024849 0.007917
v 0.100205 -0.025269 0.008332
v 0.103187 -0.026139 0.008638
v 0.103091 -0.026679 0.008514
v 0.103292 -0.026889 0.008166
v 0.103594 -0.026249 0.008098
v 0.099037 -0.023019 0.008343
v 0.099184 -0.023499 0.007932
v 0.103260 -0.025679 0.008615
v 0.103801 -0.025919 0.007859
v 0.098829 -0.022219 0.008520
v 0.098582 -0.022439 0.007914
v 0.098011 -0.020389 0.008381
v 0.098093 -0.021179 0.008167
v 0.097856 -0.020539 0.008162
v 0.097798 -0.020699 0.007955
v 0.098455 -0.021069 0.008587
v 0.097868 -0.019759 0.008300
v 0.097577 -0.019979 0.007962
v 0.103186 -0.022099 0.008408
v 0.103126 -0.021059 0.008317
v 0.097887 -0.018209 0.008252
v 0.102697 -0.020279 0.008467
v 0.097457 -0.016919 0.008057
v 0.097431 -0.016079 0.008024
v 0.100819 -0.017849 0.008701
v 0.097895 -0.016259 0.008262
v 0.097928 -0.015319 0.008002
v 0.098747 -0.016419 0.008464
v 0.099660 -0.017029 0.008641
v 0.101632 -0.018169 0.008568
v 0.101585 -0.017329 0.008285
v 0.102011 -0.018059 0.008355
v 0.100163 -0.016029 0.008234
v 0.102662 -0.027649 0.007588
v 0.102547 -0.027569 0.007314
v 0.101625 -0.026559 0.007499
v 0.103181 -0.027429 0.007719
v 0.103380 -0.027189 0.007764
v 0.102997 -0.027589 0.007598
v 0.103608 -0.027169 0.007301
v 0.099486 -0.023979 0.007575
v 0.099812 -0.024549 0.007677
v 0.100099 -0.024829 0.007590
v 0.099807 -0.024279 0.007344
v 0.100152 -0.024529 0.007246
v 0.100780 -0.025519 0.007655
v 0.100846 -0.025179 0.007306
v 0.103700 -0.026859 0.007542
v 0.103885 -0.026539 0.007414
v 0.104135 -0.025709 0.007181
v 0.097962 -0.021229 0.007257
v 0.104028 -0.024829 0.007477
v 0.097930 -0.021109 0.007832
v 0.097145 -0.018989 0.007281
v 0.097455 -0.019869 0.007724
v 0.096985 -0.018089 0.007212
v 0.097323 -0.018799 0.007774
v 0.097139 -0.018839 0.007462
v 0.097185 -0.017389 0.007644
v 0.097121 -0.016869 0.007539
v 0.103507 -0.020289 0.007532
v 0.103882 -0.021129 0.007225
v 0.096571 -0.015069 0.007149
v 0.096337 -0.014719 0.007123
v 0.096958 -0.015459 0.007492
v 0.096751 -0.014729 0.007476
v 0.095712 -0.013789 0.007122
v 0.097387 -0.014929 0.007787
v 0.102237 -0.017249 0.007899
v 0.102428 -0.016929 0.007544
v 0.102562 -0.017839 0.007810
v 0.102626 -0.016709 0.007109
v 0.099191 -0.014699 0.007893
v 0.099739 -0.014559 0.007752
v 0.101911 -0.016359 0.007645
v 0.102083 -0.016099 0.007317
v 0.098009 -0.012419 0.007423
v 0.098422 -0.013529 0.007714
v 0.098939 -0.013499 0.007636
v 0.099242 -0.013219 0.007393
v 0.099855 -0.013749 0.007338
v 0.095848 -0.011119 0.007288
v 0.094938 -0.010769 0.007097
v 0.096534 -0.010819 0.007285
v 0.097005 -0.010459 0.007103
v 0.102676 -0.027389 0.006533
v 0.102902 -0.027599 0.006649
v 0.103168 -0.027589 0.006676
v 0.103234 -0.027529 0.006076
v 0.103799 -0.027199 0.006566
v 0.104097 -0.026809 0.006545
v 0.099235 -0.023039 0.006932
v 0.099699 -0.023359 0.006735
v 0.100644 -0.023579 0.006267
v 0.100729 -0.024509 0.006889
v 0.101055 -0.024169 0.006329
v 0.104221 -0.026329 0.006642
v 0.098749 -0.021919 0.006307
v 0.099550 -0.022679 0.006206
v 0.104431 -0.024689 0.006642
v 0.097649 -0.020479 0.006595
v 0.104328 -0.022829 0.006680
v 0.104601 -0.023549 0.006181
v 0.096806 -0.018009 0.006257
v 0.097001 -0.017129 0.007024
v 0.096880 -0.017599 0.006665
v 0.096718 -0.016819 0.006366
v 0.103978 -0.020629 0.006873
v 0.104312 -0.020869 0.006183
v 0.104223 -0.021399 0.006624
v 0.096238 -0.015539 0.006350
v 0.096722 -0.016149 0.006839
v 0.103963 -0.019479 0.006186
v 0.095559 -0.014019 0.006821
v 0.103091 -0.017489 0.006821
v 0.094956 -0.012089 0.007023
v 0.094700 -0.012419 0.006733
v 0.102290 -0.015839 0.006797
v 0.102842 -0.016449 0.006438
v 0.093834 -0.010469 0.006476
v 0.100825 -0.014019 0.006736
v 0.101838 -0.015139 0.006670
v 0.093374 -0.009099 0.006236
v 0.093855 -0.009409 0.006614
v 0.093487 -0.009749 0.006292
v 0.098070 -0.011509 0.006938
v 0.099791 -0.012629 0.006486
v 0.099232 -0.012099 0.006560
v 0.099605 -0.013019 0.007046
v 0.093616 -0.008269 0.006460
v 0.095106 -0.009459 0.007019
v 0.094715 -0.009529 0.006968
v 0.095643 -0.009209 0.006961
v 0.097348 -0.010109 0.006739
v 0.093937 -0.008359 0.006632
v 0.094262 -0.008219 0.006704
v 0.093670 -0.007299 0.006358
v 0.094680 -0.007309 0.006518
v 0.094177 -0.007229 0.006476
v 0.095438 -0.007579 0.006516
v 0.096698 -0.008389 0.006331
v 0.102535 -0.026569 0.005682
v 0.103675 -0.027359 0.006045
v 0.103044 -0.027339 0.005450
v 0.103801 -0.027359 0.005538
v 0.102002 -0.025239 0.005691
v 0.104176 -0.027069 0.005553
v 0.104471 -0.026719 0.005281
v 0.101386 -0.024269 0.005949
v 0.104584 -0.026119 0.005628
v 0.098333 -0.021329 0.005712
v 0.098914 -0.021829 0.005605
v 0.100613 -0.022929 0.005637
v 0.100893 -0.022919 0.005276
v 0.101115 -0.023469 0.005617
v 0.104684 -0.025279 0.005739
v 0.104858 -0.023939 0.005456
v 0.104613 -0.022669 0.005974
v 0.104874 -0.023209 0.005260
v 0.096536 -0.016829 0.006007
v 0.096349 -0.017099 0.005453
v 0.096617 -0.017369 0.006053
v 0.104591 -0.021129 0.005327
v 0.096081 -0.015929 0.005615
v 0.104381 -0.020249 0.005487
v 0.095397 -0.014449 0.005978
v 0.094304 -0.012799 0.005508
v 0.103459 -0.017289 0.005817
v 0.094176 -0.012109 0.006194
v 0.093904 -0.011999 0.005498
v 0.102903 -0.016019 0.005706
v 0.103289 -0.016599 0.005522
v 0.093214 -0.010009 0.005661
v 0.093489 -0.010309 0.006141
v 0.093487 -0.010769 0.005890
v 0.093369 -0.010679 0.005510
v 0.102500 -0.015529 0.005878
v 0.093253 -0.009539 0.006006
v 0.100274 -0.012859 0.005637
v 0.101094 -0.013599 0.005475
v 0.098875 -0.011379 0.006009
v 0.092996 -0.007299 0.005837
v 0.092833 -0.007439 0.005613
v 0.097331 -0.009209 0.006226
v 0.098075 -0.010309 0.005954
v 0.097040 -0.008129 0.005840
v 0.097780 -0.009209 0.005613
v 0.094353 -0.005889 0.006106
v 0.095827 -0.007199 0.006234
v 0.096455 -0.007009 0.005644
v 0.097093 -0.007829 0.005500
v 0.093825 -0.005129 0.005847
v 0.094599 -0.005319 0.005849
v 0.095331 -0.005799 0.005721
v 0.103001 -0.026899 0.004383
v 0.102817 -0.026449 0.004343
v 0.104573 -0.026789 0.004519
v 0.104305 -0.027139 0.004422
v 0.104737 -0.026169 0.004878
v 0.101335 -0.023269 0.004988
v 0.101695 -0.023729 0.004802
v 0.098267 -0.021019 0.005204
v 0.098946 -0.021319 0.004841
v 0.099182 -0.021289 0.004525
v 0.100064 -0.022009 0.004957
v 0.101126 -0.022769 0.004604
v 0.104998 -0.024229 0.004740
v 0.097221 -0.019649 0.004896
v 0.096897 -0.019089 0.004897
v 0.097023 -0.019249 0.004542
v 0.096263 -0.017119 0.004994
v 0.096236 -0.017129 0.004518
v 0.094346 -0.013049 0.004603
v 0.103843 -0.017659 0.004950
v 0.103231 -0.016259 0.005173
v 0.103511 -0.016709 0.004968
v 0.103367 -0.016209 0.004536
v 0.102818 -0.015579 0.005093
v 0.099962 -0.012519 0.005139
v 0.092786 -0.007949 0.005404
v 0.092762 -0.008149 0.004993
v 0.097959 -0.009319 0.005238
v 0.098528 -0.010509 0.005257
v 0.092427 -0.005829 0.004791
v 0.092503 -0.004989 0.005019
v 0.092379 -0.004689 0.004716
v 0.097149 -0.007749 0.005178
v 0.093157 -0.004149 0.005421
v 0.092656 -0.004369 0.005131
v 0.095719 -0.005719 0.005313
v 0.095950 -0.005649 0.004889
v 0.096413 -0.006509 0.005201
v 0.096563 -0.006599 0.004657
v 0.095010 -0.004659 0.005316
v 0.095232 -0.004449 0.004898
v 0.092721 -0.002319 0.004712
v 0.093051 -0.002119 0.004752
v 0.093563 -0.003119 0.005138
v 0.093564 -0.002369 0.004796
v 0.094196 -0.002889 0.004746
v 0.103615 -0.027369 0.003896
v 0.104017 -0.027329 0.003802
v 0.104495 -0.026979 0.003889
v 0.104838 -0.026099 0.004101
v 0.104714 -0.026579 0.003992
v 0.101849 -0.023429 0.003892
v 0.102246 -0.024409 0.004147
v 0.098117 -0.020409 0.004394
v 0.098548 -0.020729 0.004258
v 0.098960 -0.020859 0.003645
v 0.099843 -0.021599 0.004172
v 0.101471 -0.022769 0.003649
v 0.097862 -0.019849 0.003640
v 0.097355 -0.019239 0.003643
v 0.105103 -0.023549 0.003904
v 0.096382 -0.017439 0.004165
v 0.096858 -0.018559 0.003942
v 0.096106 -0.016529 0.004206
v 0.095670 -0.015329 0.004181
v 0.096128 -0.016269 0.003664
v 0.104534 -0.019809 0.004240
v 0.104758 -0.020909 0.004168
v 0.094784 -0.013849 0.004278
v 0.094255 -0.012839 0.004241
v 0.094347 -0.012809 0.003908
v 0.104036 -0.017729 0.003938
v 0.093440 -0.010999 0.004435
v 0.093538 -0.011179 0.004142
v 0.093737 -0.011719 0.004404
v 0.103413 -0.016139 0.003896
v 0.103692 -0.016809 0.004276
v 0.093137 -0.009969 0.004518
v 0.093342 -0.010679 0.004176
v 0.093312 -0.010319 0.003927
v 0.102925 -0.015479 0.004238
v 0.101759 -0.014119 0.003837
v 0.099299 -0.011619 0.004494
v 0.098410 -0.010449 0.004348
v 0.092333 -0.005749 0.004043
v 0.092299 -0.005149 0.004255
v 0.092306 -0.005139 0.003903
v 0.096841 -0.007709 0.003941
v 0.092329 -0.003959 0.004228
v 0.092321 -0.002609 0.004166
v 0.092315 -0.002939 0.003964
v 0.095698 -0.005039 0.004457
v 0.095700 -0.005219 0.004018
v 0.092426 -0.001829 0.004180
v 0.092507 -0.002229 0.004502
v 0.092404 -0.002589 0.004427
v 0.092319 -0.002419 0.003932
v 0.093794 -0.002339 0.003815
v 0.094716 -0.003419 0.004582
v 0.094276 -0.002709 0.004393
v 0.094294 -0.002739 0.004234
v 0.094922 -0.003689 0.004269
v 0.094851 -0.003769 0.003954
v 0.092546 -0.001619 0.004280
v 0.092702 -0.001449 0.004281
v 0.092471 -0.001459 0.004039
v 0.092545 -0.001369 0.004069
v 0.092679 -0.001299 0.004067
v 0.092402 -0.001589 0.003874
v 0.092486 -0.001349 0.003855
v 0.092594 -0.001269 0.003854
v 0.092825 -0.001259 0.003860
v 0.092714 -0.001729 0.004480
v 0.093222 -0.001749 0.004506
v 0.092918 -0.001569 0.004426
v 0.093561 -0.001829 0.004295
v 0.093253 -0.001569 0.004281
v 0.092895 -0.001369 0.004177
v 0.093398 -0.001609 0.004067
v 0.093187 -0.001439 0.004062
v 0.093705 -0.002189 0.004593
v 0.103409 -0.026989 0.003213
v 0.103617 -0.027129 0.002969
v 0.103949 -0.027199 0.002830
v 0.103126 -0.026549 0.003375
v 0.104351 -0.027009 0.002768
v 0.104633 -0.026659 0.002679
v 0.102654 -0.024999 0.003293
v 0.104890 -0.025969 0.003071
v 0.104783 -0.026379 0.002975
v 0.101941 -0.023289 0.002718
v 0.102318 -0.024099 0.003323
v 0.102312 -0.024039 0.002751
v 0.099542 -0.020999 0.003247
v 0.100939 -0.022089 0.003286
v 0.101809 -0.023149 0.003321
v 0.101554 -0.022719 0.002783
v 0.105157 -0.024269 0.003302
v 0.097388 -0.018899 0.003239
v 0.097887 -0.019559 0.003213
v 0.098635 -0.020379 0.003259
v 0.105170 -0.023579 0.002808
v 0.096886 -0.017929 0.003209
v 0.096389 -0.016419 0.003204
v 0.096523 -0.017349 0.003518
v 0.096751 -0.017059 0.002888
v 0.104802 -0.020659 0.003288
v 0.095774 -0.014979 0.003250
v 0.104325 -0.018599 0.002896
v 0.104565 -0.019509 0.003273
v 0.094675 -0.012369 0.003197
v 0.103601 -0.016499 0.003542
v 0.103514 -0.016409 0.003198
v 0.103241 -0.016169 0.002901
v 0.103532 -0.016619 0.002781
v 0.103882 -0.017179 0.003509
v 0.103930 -0.017409 0.002935
v 0.103739 -0.016909 0.003002
v 0.093810 -0.011089 0.003582
v 0.101767 -0.014339 0.003090
v 0.101361 -0.014179 0.002748
v 0.103145 -0.015799 0.003549
v 0.099572 -0.012229 0.003547
v 0.099476 -0.012569 0.002845
v 0.100133 -0.012949 0.003608
v 0.100162 -0.013149 0.003129
v 0.100493 -0.013299 0.003582
v 0.100633 -0.013589 0.003049
v 0.101377 -0.013819 0.003606
v 0.101752 -0.014179 0.003442
v 0.101450 -0.013969 0.003227
v 0.098378 -0.011009 0.003263
v 0.092511 -0.006759 0.003611
v 0.092881 -0.007359 0.003136
v 0.097033 -0.009049 0.003254
v 0.092367 -0.005699 0.003591
v 0.092462 -0.005869 0.003359
v 0.092653 -0.006499 0.003144
v 0.092834 -0.006399 0.002933
v 0.095439 -0.007509 0.002858
v 0.096360 -0.008109 0.003151
v 0.096154 -0.008429 0.002893
v 0.092402 -0.005279 0.003477
v 0.092588 -0.005449 0.003150
v 0.092879 -0.005479 0.002883
v 0.095882 -0.006779 0.003388
v 0.095397 -0.006419 0.003186
v 0.092545 -0.003819 0.003389
v 0.092402 -0.004179 0.003714
v 0.095303 -0.005229 0.003507
v 0.092399 -0.002569 0.003625
v 0.092748 -0.003209 0.003216
v 0.093315 -0.003089 0.003239
v 0.093454 -0.003749 0.003104
v 0.093002 -0.003099 0.003163
v 0.094865 -0.004249 0.003604
v 0.094512 -0.004629 0.003227
v 0.092567 -0.002289 0.003384
v 0.092763 -0.002349 0.003242
v 0.093056 -0.002489 0.003230
v 0.092739 -0.002059 0.003282
v 0.092859 -0.002099 0.003248
v 0.093644 -0.002849 0.003465
v 0.092414 -0.001579 0.003740
v 0.092525 -0.001349 0.003638
v 0.092683 -0.001279 0.003642
v 0.092768 -0.001349 0.003541
v 0.092814 -0.001289 0.003640
v 0.092515 -0.001619 0.003520
v 0.092625 -0.001399 0.003512
v 0.092699 -0.001579 0.003409
v 0.093100 -0.001409 0.003756
v 0.093307 -0.001619 0.003756
v 0.092811 -0.001489 0.003438
v 0.093035 -0.001509 0.003531
v 0.093211 -0.001709 0.003529
v 0.093204 -0.001979 0.003389
v 0.092956 -0.001699 0.003363
v 0.103254 -0.026529 0.002227
v 0.103101 -0.026189 0.001954
v 0.103323 -0.026519 0.001872
v 0.103703 -0.026939 0.001992
v 0.103812 -0.026989 0.002020
v 0.103525 -0.026819 0.002034
v 0.103948 -0.026979 0.002002
v 0.103735 -0.026889 0.001855
v 0.103845 -0.026919 0.001853
v 0.103991 -0.026889 0.001860
v 0.104225 -0.026939 0.002193
v 0.104474 -0.026699 0.002187
v 0.102785 -0.025459 0.002388
v 0.102553 -0.025069 0.001922
v 0.104787 -0.026189 0.002426
v 0.104660 -0.026269 0.002073
v 0.101725 -0.023349 0.001802
v 0.104866 -0.025419 0.001903
v 0.100990 -0.022129 0.001856
v 0.101780 -0.023139 0.002329
v 0.101434 -0.022809 0.001824
v 0.105155 -0.024409 0.002478
v 0.105061 -0.024749 0.002135
v 0.105115 -0.024079 0.001939
v 0.099054 -0.020109 0.002532
v 0.099689 -0.020719 0.002482
v 0.099756 -0.020499 0.001974
v 0.100435 -0.021399 0.002108
v 0.105069 -0.023269 0.001939
v 0.097610 -0.018269 0.002551
v 0.099257 -0.019479 0.001820
v 0.097123 -0.017639 0.002671
v 0.097051 -0.017029 0.002537
v 0.097555 -0.017729 0.002316
v 0.097779 -0.017169 0.002102
v 0.096765 -0.016299 0.002697
v 0.104687 -0.020239 0.002267
v 0.104537 -0.019939 0.001959
v 0.104778 -0.020539 0.002623
v 0.096904 -0.015319 0.002430
v 0.104148 -0.018919 0.001873
v 0.104581 -0.019569 0.002628
v 0.104377 -0.018989 0.002317
v 0.103695 -0.017909 0.001891
v 0.104002 -0.018069 0.002223
v 0.098088 -0.013359 0.001896
v 0.098812 -0.014069 0.001823
v 0.102454 -0.015729 0.002269
v 0.102204 -0.015769 0.002030
v 0.103327 -0.016499 0.002549
v 0.103242 -0.016729 0.002223
v 0.103033 -0.016879 0.001910
v 0.103679 -0.017059 0.002539
v 0.095148 -0.011779 0.002598
v 0.095985 -0.011769 0.002225
v 0.096325 -0.011509 0.002168
v 0.097089 -0.012419 0.002005
v 0.099061 -0.012739 0.002399
v 0.099883 -0.013639 0.002379
v 0.099251 -0.013899 0.001922
v 0.100549 -0.013849 0.002597
v 0.100321 -0.014099 0.002217
v 0.101125 -0.014409 0.002272
v 0.100878 -0.014529 0.002041
v 0.101282 -0.014789 0.002071
v 0.095151 -0.010459 0.002331
v 0.095562 -0.010599 0.002238
v 0.096670 -0.010919 0.002265
v 0.094090 -0.009299 0.002682
v 0.094599 -0.009159 0.002410
v 0.094766 -0.008759 0.002406
v 0.097200 -0.010179 0.002722
v 0.093849 -0.007819 0.002535
v 0.094065 -0.007709 0.002470
v 0.094697 -0.007739 0.002517
v 0.095543 -0.008899 0.002533
v 0.093162 -0.006869 0.002757
v 0.093522 -0.006759 0.002598
v 0.094160 -0.006489 0.002662
v 0.094166 -0.007309 0.002493
v 0.093235 -0.005229 0.002786
v 0.103214 -0.026229 0.001660
v 0.103226 -0.025999 0.001446
v 0.103583 -0.026669 0.001663
v 0.103710 -0.026729 0.001645
v 0.103964 -0.026679 0.001576
v 0.104173 -0.026669 0.001681
v 0.104328 -0.026469 0.001677
v 0.103664 -0.026499 0.001456
v 0.103781 -0.026579 0.001468
v 0.104165 -0.026509 0.001540
v 0.103835 -0.026459 0.001398
v 0.102249 -0.024509 0.001677
v 0.102764 -0.025409 0.001569
v 0.102877 -0.025259 0.001330
v 0.103389 -0.025779 0.001275
v 0.104527 -0.025909 0.001564
v 0.104176 -0.026239 0.001424
v 0.104528 -0.025579 0.001440
v 0.103865 -0.026019 0.001280
v 0.104166 -0.025459 0.001250
v 0.101743 -0.023379 0.001592
v 0.101901 -0.023549 0.001475
v 0.101961 -0.023859 0.001675
v 0.102273 -0.023729 0.001219
v 0.104782 -0.025369 0.001667
v 0.104441 -0.024979 0.001267
v 0.101363 -0.022719 0.001606
v 0.102565 -0.023319 0.001008
v 0.103358 -0.023499 0.000958
v 0.104641 -0.023729 0.001261
v 0.104116 -0.023589 0.001056
v 0.105000 -0.024439 0.001697
v 0.105048 -0.023929 0.001685
v 0.104824 -0.024339 0.001421
v 0.104876 -0.023619 0.001474
v 0.100579 -0.021369 0.001547
v 0.100620 -0.020999 0.001270
v 0.101071 -0.021799 0.001258
v 0.101178 -0.021589 0.001103
v 0.101420 -0.021389 0.000973
v 0.099545 -0.019309 0.001571
v 0.100149 -0.019739 0.001240
v 0.100639 -0.019799 0.000999
v 0.100929 -0.019849 0.000925
v 0.100713 -0.020539 0.001073
v 0.101913 -0.021179 0.000866
v 0.099100 -0.018609 0.001634
v 0.099259 -0.017879 0.001529
v 0.099791 -0.018849 0.001392
v 0.100503 -0.019329 0.001054
v 0.100995 -0.019029 0.000949
v 0.104191 -0.021259 0.001109
v 0.103889 -0.021099 0.000952
v 0.103610 -0.020499 0.000915
v 0.104646 -0.020869 0.001737
v 0.104459 -0.021059 0.001400
v 0.100244 -0.018169 0.001266
v 0.101603 -0.018669 0.000951
v 0.102373 -0.018659 0.000952
v 0.102884 -0.018899 0.000977
v 0.103485 -0.019519 0.001033
v 0.104366 -0.019999 0.001624
v 0.103960 -0.020259 0.001132
v 0.098537 -0.016139 0.001801
v 0.103409 -0.018249 0.001423
v 0.103246 -0.018559 0.001183
v 0.102711 -0.018199 0.001124
v 0.103845 -0.018899 0.001515
v 0.103593 -0.019099 0.001211
v 0.098279 -0.014529 0.001802
v 0.099916 -0.015939 0.001479
v 0.101171 -0.016669 0.001357
v 0.102978 -0.017529 0.001508
v 0.099753 -0.014379 0.001792
v 0.099297 -0.014659 0.001659
v 0.100949 -0.015129 0.001726
v 0.100674 -0.015409 0.001565
v 0.101849 -0.016039 0.001692
v 0.102716 -0.021989 0.000847
v 0.102813 -0.021119 0.000809
v 0.103312 -0.021859 0.000837
v 0.101329 -0.019639 0.000874
v 0.103542 -0.021049 0.000860
v 0.102332 -0.019369 0.000867
v 0.092525 -0.001349 0.003638
vn -0.2728 -0.0312 0.9616
vn -0.0816 -0.0227 0.9964
vn 0.0616 0.0708 0.9956
vn -0.4116 -0.0770 0.9081
vn -0.3476 -0.1568 0.9244
vn -0.1123 -0.1509 0.9822
vn 0.1026 -0.1770 0.9789
vn 0.1602 -0.0482 0.9859
vn -0.0815 -0.2523 0.9642
vn 0.3534 -0.1279 0.9267
vn 0.3653 0.0516 0.9295
vn 0.2204 0.1325 0.9664
vn -0.3358 -0.6183 0.7106
vn -0.5282 -0.7549 0.3888
vn -0.2759 -0.8233 0.4960
vn -0.7744 -0.6132 0.1556
vn -0.7064 -0.5308 0.4683
vn -0.8178 -0.4970 0.2901
vn -0.2435 -0.4107 0.8787
vn -0.4946 -0.4709 0.7304
vn -0.4842 -0.5304 0.6958
vn -0.7392 -0.6312 0.2350
vn -0.5130 -0.6058 0.6081
vn -0.1293 -0.4799 0.8677
vn 0.0089 -0.3207 0.9471
vn 0.1618 -0.3447 0.9247
vn 0.1901 -0.5011 0.8443
vn -0.1177 -0.6432 0.7566
vn 0.0949 -0.7262 0.6809
vn 0.3564 -0.3336 0.8727
vn 0.4200 -0.5110 0.7500
vn -0.6735 -0.2475 0.6966
vn -0.5803 -0.1895 0.7920
vn -0.7888 -0.3327 0.5169
vn -0.7047 -0.3847 0.5961
vn -0.8667 -0.4761 0.1491
vn -0.5488 -0.3584 0.7552
vn -0.3011 -0.3041 0.9038
vn 0.2241 -0.2424 0.9439
vn 0.3883 -0.2324 0.8917
vn 0.5337 -0.2862 0.7958
vn 0.5589 -0.1318 0.8187
vn 0.6995 -0.1743 0.6931
vn 0.6524 -0.3470 0.6738
vn 0.7471 -0.0266 0.6642
vn 0.5856 -0.0010 0.8106
vn 0.5479 0.1022 0.8303
vn 0.7486 0.0571 0.6605
vn -0.5986 -0.2097 0.7731
vn -0.4899 -0.0433 0.8707
vn -0.1250 0.0622 0.9902
vn -0.3346 0.0544 0.9408
vn 0.0521 0.1412 0.9886
vn -0.1319 0.1253 0.9833
vn 0.6575 0.1313 0.7419
vn 0.4366 0.2017 0.8767
vn 0.6227 0.2342 0.7466
vn -0.2581 0.1148 0.9593
vn 0.0334 0.2418 0.9697
vn 0.1105 0.2061 0.9723
vn 0.2568 0.1999 0.9456
vn 0.3337 0.2684 0.9037
vn 0.7689 0.1827 0.6127
vn 0.6620 0.2499 0.7066
vn 0.2030 0.2756 0.9396
vn -0.6502 -0.7597 0.0089
vn -0.4348 -0.8692 0.2356
vn -0.7600 -0.6086 -0.2281
vn -0.4217 -0.9064 0.0258
vn -0.7481 -0.5988 -0.2862
vn -0.6393 -0.7435 -0.1964
vn -0.1402 -0.9157 0.3767
vn 0.0208 -0.9568 0.2899
vn 0.2079 -0.7606 0.6151
vn 0.2440 -0.7960 0.5540
vn -0.4957 -0.8468 -0.1927
vn -0.1242 -0.9922 0.0130
vn 0.3822 -0.9125 0.1460
vn -0.8006 -0.5987 -0.0263
vn -0.6328 -0.6076 -0.4800
vn -0.6390 -0.5675 -0.5193
vn -0.7632 -0.4907 -0.4205
vn -0.6909 -0.6550 -0.3061
vn 0.5338 -0.5850 0.6107
vn 0.4215 -0.8122 0.4032
vn 0.6162 -0.7200 0.3193
vn 0.7284 -0.3930 0.5613
vn 0.7202 -0.5470 0.4267
vn 0.8196 -0.4030 0.4073
vn 0.8068 -0.2052 0.5540
vn -0.8417 -0.3900 0.3735
vn -0.8866 -0.4605 0.0438
vn -0.8664 -0.4901 -0.0954
vn -0.7784 -0.5937 -0.2040
vn -0.8780 -0.4579 0.1397
vn -0.8840 -0.4613 -0.0765
vn -0.8239 -0.4849 -0.2934
vn 0.8610 -0.0865 0.5012
vn 0.8647 0.0223 0.5018
vn 0.8108 0.0786 0.5800
vn -0.9029 -0.3923 0.1755
vn -0.7936 -0.3309 0.5106
vn -0.7863 -0.2415 0.5687
vn -0.8389 -0.1707 0.5168
vn -0.8920 -0.3249 0.3142
vn -0.9417 -0.2786 0.1888
vn -0.6616 -0.1274 0.7389
vn -0.6414 -0.0155 0.7670
vn -0.7806 -0.0393 0.6237
vn -0.5172 -0.0027 0.8559
vn 0.8529 0.1214 0.5078
vn 0.8041 0.2213 0.5518
vn -0.8893 -0.0070 0.4572
vn -0.6464 -0.0202 0.7627
vn -0.3136 0.1375 0.9395
vn -0.5793 0.0761 0.8116
vn -0.3527 0.0941 0.9310
vn -0.7458 -0.0944 0.6594
vn -0.1004 0.2339 0.9671
vn -0.1419 0.2589 0.9554
vn 0.2206 0.3489 0.9108
vn 0.5172 0.2672 0.8131
vn 0.7296 0.2509 0.6361
vn 0.0812 0.2677 0.9601
vn 0.2803 0.3478 0.8947
vn 0.3619 0.3532 0.8627
vn 0.5771 0.3368 0.7440
vn 0.4704 0.4349 0.7679
vn 0.5056 0.4365 0.7442
vn 0.7398 -0.6160 0.2705
vn 0.2939 -0.9558 0.0095
vn 0.6730 -0.7184 0.1759
vn 0.8589 -0.4404 0.2613
vn -0.7628 -0.5561 -0.3299
vn -0.6633 -0.5224 -0.5358
vn -0.7107 -0.5197 -0.4741
vn -0.5099 -0.5414 -0.6685
vn -0.5430 -0.5407 -0.6426
vn -0.5153 -0.5088 -0.6897
vn -0.5749 -0.5099 -0.6399
vn -0.6682 -0.4708 -0.5761
vn 0.8811 -0.2700 0.3884
vn 0.9189 -0.1059 0.3801
vn 0.9244 -0.2246 0.3084
vn 0.9591 -0.1101 0.2607
vn 0.9253 -0.0251 0.3784
vn -0.7322 -0.6439 -0.2218
vn -0.7293 -0.6280 -0.2714
vn -0.9607 -0.2629 0.0890
vn -0.9003 -0.4350 -0.0175
vn -0.9364 -0.1257 0.3277
vn 0.8876 0.0701 0.4552
vn -0.9505 -0.0490 0.3067
vn -0.8996 -0.0856 0.4282
vn -0.9477 -0.0723 0.3110
vn 0.8787 0.2029 0.4321
vn -0.8753 -0.2135 0.4339
vn 0.8460 0.2911 0.4467
vn -0.7311 -0.3360 0.5939
vn -0.5442 -0.1781 0.8198
vn -0.6413 -0.4105 0.6482
vn -0.7271 -0.4328 0.5328
vn -0.8015 -0.3846 0.4579
vn -0.5722 -0.2823 0.7700
vn -0.4850 -0.1267 0.8653
vn 0.0372 0.2110 0.9768
vn 0.7093 0.3635 0.6040
vn 0.7832 0.3883 0.4857
vn -0.3219 -0.0000 0.9468
vn -0.1224 0.0691 0.9901
vn 0.2358 0.3261 0.9155
vn 0.6330 0.4859 0.6027
vn -0.5197 -0.0277 0.8539
vn 0.2217 0.3453 0.9119
vn 0.0606 0.1766 0.9824
vn 0.3868 0.4365 0.8123
vn -0.2459 0.0812 0.9659
vn 0.3218 0.3202 0.8910
vn 0.5265 0.4695 0.7088
vn 0.5268 0.5147 0.6764
vn 0.6429 0.5668 0.5152
vn -0.2741 -0.9464 -0.1708
vn -0.8569 -0.4106 -0.3116
vn 0.4630 -0.8811 0.0963
vn 0.0645 -0.9916 -0.1122
vn -0.5516 -0.5491 -0.6278
vn 0.9434 -0.2202 0.2480
vn -0.5384 -0.6416 -0.5463
vn -0.7110 -0.5101 -0.4840
vn -0.7727 -0.4284 -0.4685
vn -0.5507 -0.6338 -0.5432
vn 0.9289 0.0405 0.3682
vn 0.9660 -0.0057 0.2586
vn -0.9544 -0.2139 0.2083
vn -0.9575 -0.0296 0.2868
vn -0.9231 -0.1227 0.3646
vn 0.9090 0.1153 0.4005
vn 0.9418 0.0949 0.3224
vn -0.9041 -0.1750 0.3899
vn 0.9313 0.1759 0.3190
vn 0.9052 0.2501 0.3436
vn -0.9015 -0.3400 0.2678
vn -0.6973 -0.2853 0.6576
vn 0.8201 0.4266 0.3814
vn -0.8226 -0.3681 0.4334
vn -0.8187 -0.2127 0.5334
vn -0.6507 -0.1637 0.7415
vn 0.6946 0.5687 0.4407
vn 0.7360 0.5104 0.4447
vn 0.7646 0.5622 0.3151
vn 0.7008 0.6960 0.1564
vn -0.7228 -0.1112 0.6820
vn -0.7369 -0.0447 0.6745
vn -0.8771 -0.1333 0.4615
vn -0.0739 0.1656 0.9834
vn -0.3677 0.0906 0.9255
vn 0.5778 0.6102 0.5420
vn 0.6720 0.6064 0.4251
vn 0.6955 0.5965 0.4005
vn 0.7117 0.6983 0.0761
vn 0.7854 0.6184 -0.0265
vn -0.5737 0.0527 0.8173
vn -0.7226 0.0529 0.6892
vn -0.8740 -0.0356 0.4845
vn -0.1672 0.1783 0.9697
vn -0.1434 0.2340 0.9616
vn 0.0751 0.2479 0.9659
vn 0.5946 0.3842 0.7063
vn 0.7501 0.4356 0.4975
vn 0.8407 0.5221 0.1436
vn -0.6966 0.1336 0.7049
vn -0.4316 0.1705 0.8858
vn -0.3650 0.2384 0.9000
vn 0.0251 0.2582 0.9658
vn 0.5291 0.4015 0.7476
vn 0.6913 0.3866 0.6104
vn 0.2018 0.3190 0.9260
vn 0.0516 0.3163 0.9473
vn -0.6481 -0.7334 -0.2052
vn -0.8376 -0.4980 -0.2246
vn 0.4615 -0.8838 0.0769
vn 0.3422 -0.9370 -0.0706
vn 0.6450 -0.7612 0.0673
vn 0.7254 -0.6695 0.1602
vn -0.8427 -0.3695 -0.3916
vn 0.8819 -0.4302 0.1927
vn 0.8682 -0.4820 0.1176
vn 0.9619 -0.2233 0.1575
vn -0.8245 -0.4483 -0.3452
vn -0.5861 -0.7128 -0.3851
vn -0.4851 -0.7405 -0.4651
vn -0.5148 -0.7487 -0.4177
vn -0.6478 -0.6261 -0.4340
vn -0.7732 -0.5248 -0.3561
vn -0.8046 -0.5728 -0.1568
vn -0.6717 -0.6557 -0.3449
vn -0.9537 -0.2759 0.1202
vn 0.9731 0.0796 0.2163
vn -0.9327 -0.2465 0.2633
vn -0.8857 -0.1854 0.4256
vn 0.9643 0.1543 0.2152
vn 0.9463 0.2166 0.2399
vn -0.8337 -0.4816 0.2702
vn -0.8620 -0.4982 -0.0935
vn -0.9101 -0.4069 -0.0784
vn -0.8997 -0.4066 0.1591
vn -0.8620 -0.4698 0.1906
vn 0.8902 0.3105 0.3333
vn -0.9385 -0.3451 -0.0133
vn -0.9431 -0.3087 0.1234
vn -0.8797 -0.3071 0.3631
vn 0.8056 0.5012 0.3159
vn 0.8626 0.3985 0.3117
vn 0.8422 0.4756 0.2540
vn -0.9508 -0.2157 0.2226
vn -0.9713 -0.2345 -0.0392
vn 0.7863 0.5771 0.2207
vn 0.7862 0.6142 0.0683
vn -0.9520 -0.1231 0.2802
vn -0.9817 -0.1786 0.0665
vn 0.8113 0.4096 0.4171
vn 0.4157 0.4082 0.8128
vn 0.6935 0.4283 0.5793
vn 0.7934 0.4643 0.3936
vn 0.8926 0.4402 0.0976
vn -0.0874 0.2985 0.9504
vn 0.2556 0.3921 0.8837
vn 0.5075 0.4436 0.7387
vn 0.6400 0.4764 0.6029
vn 0.6639 0.4799 0.5735
vn 0.7811 0.5210 0.3442
vn 0.5333 0.4503 0.7161
vn -0.2644 -0.9518 -0.1554
vn -0.9441 -0.3115 -0.1077
vn -0.9153 -0.3273 -0.2348
vn 0.9274 -0.3721 0.0381
vn 0.7572 -0.6530 -0.0117
vn -0.7017 -0.6390 -0.3151
vn -0.8372 -0.4883 -0.2464
vn -0.8930 -0.3616 -0.2678
vn 0.9861 -0.0503 0.1583
vn -0.6657 -0.6764 -0.3152
vn -0.6107 -0.7398 -0.2824
vn -0.5051 -0.7930 -0.3405
vn -0.6808 -0.7069 -0.1916
vn -0.5407 -0.7919 -0.2837
vn -0.9225 -0.3860 -0.0031
vn -0.9639 -0.2651 -0.0253
vn -0.8417 -0.4980 -0.2087
vn -0.7621 -0.5254 -0.3783
vn -0.9439 -0.3067 -0.1224
vn 0.9797 0.1536 0.1289
vn 0.9336 0.2783 0.2256
vn 0.9646 0.2183 0.1483
vn -0.9166 -0.3975 -0.0434
vn -0.8841 -0.4662 0.0321
vn 0.8984 0.3733 0.2314
vn 0.8582 0.4866 0.1636
vn 0.9223 0.3656 0.1255
vn 0.6105 0.7738 -0.1686
vn -0.9649 -0.0698 0.2531
vn 0.8212 0.5303 -0.2109
vn 0.8128 0.5758 -0.0887
vn -0.8573 0.0360 0.5135
vn 0.8698 0.4713 0.1462
vn 0.8799 0.4699 -0.0710
vn 0.7825 0.4011 -0.4762
vn -0.9548 0.0314 0.2956
vn -0.8966 0.1039 0.4305
vn -0.0765 0.4139 0.9071
vn 0.7997 0.5026 0.3283
vn 0.7614 0.4909 0.4234
vn 0.8680 0.4964 0.0074
vn -0.4819 0.2603 0.8367
vn -0.7637 0.2098 0.6105
vn 0.0838 0.3686 0.9258
vn 0.5775 0.5118 0.6361
vn 0.7843 0.5340 0.3158
vn 0.2928 0.4694 0.8330
vn 0.5484 0.5846 0.5979
vn 0.7732 0.5986 0.2091
vn 0.2955 0.6173 0.7291
vn -0.8983 -0.3998 -0.1823
vn -0.7746 -0.6023 -0.1928
vn -0.5011 -0.8397 -0.2094
vn 0.8449 -0.5168 -0.1385
vn 0.5997 -0.7859 -0.1507
vn 0.9772 -0.1989 0.0747
vn 0.9780 -0.2075 -0.0193
vn -0.8367 -0.5326 -0.1279
vn -0.9085 -0.3983 -0.1261
vn -0.7615 -0.6151 -0.2044
vn 0.9959 -0.0698 0.0567
vn -0.5493 -0.7575 -0.3529
vn -0.5393 -0.7432 -0.3960
vn -0.7945 -0.6073 0.0003
vn -0.8735 -0.3976 -0.2809
vn -0.6847 -0.6368 -0.3544
vn -0.6509 -0.5363 -0.5372
vn -0.7213 -0.4508 -0.5258
vn 0.9930 0.0606 0.1014
vn -0.9306 -0.3224 -0.1734
vn -0.8872 -0.3089 -0.3427
vn -0.8132 -0.3680 -0.4509
vn -0.9034 -0.3205 -0.2849
vn -0.7741 -0.3396 -0.5342
vn 0.9860 0.1606 0.0451
vn -0.8269 -0.3921 -0.4030
vn 0.9716 0.2313 0.0506
vn 0.9543 0.2818 0.0992
vn 0.9557 0.2908 -0.0452
vn -0.8888 -0.4316 -0.1539
vn -0.7589 -0.2949 -0.5807
vn -0.8916 -0.3622 -0.2718
vn -0.9389 -0.2959 -0.1755
vn -0.8932 -0.2565 -0.3694
vn 0.8563 0.5161 0.0186
vn 0.8921 0.4508 -0.0300
vn 0.7824 0.6079 -0.1350
vn 0.9393 0.3431 0.0036
vn 0.9003 0.4059 -0.1571
vn 0.7055 0.6835 -0.1875
vn 0.7050 0.7088 -0.0244
vn 0.7426 0.6528 -0.1498
vn 0.7588 0.6010 -0.2512
vn 0.5607 0.8180 -0.1286
vn 0.6888 0.5588 -0.4618
vn -0.9588 -0.1937 -0.2076
vn 0.7081 0.4081 -0.5763
vn -0.9964 -0.0233 0.0812
vn -0.9939 -0.1098 0.0075
vn -0.9999 0.0101 0.0138
vn -0.9926 0.0084 -0.1210
vn -0.9656 0.0361 -0.2575
vn 0.8163 0.4266 -0.3896
vn -0.9945 -0.0133 -0.1035
vn -0.9848 0.0575 0.1640
vn -0.9943 0.0550 -0.0909
vn -0.9121 0.0137 -0.4098
vn 0.8539 0.5094 -0.1066
vn 0.6248 0.3801 -0.6820
vn 0.7058 0.4158 -0.5735
vn 0.7674 0.4659 -0.4405
vn -0.7053 0.3774 0.6001
vn -0.4108 0.4227 0.8078
vn -0.9189 0.1922 0.3446
vn -0.9756 0.2126 0.0548
vn -0.9486 0.1973 -0.2473
vn 0.8009 0.5641 -0.2010
vn -0.2936 0.6761 0.6758
vn -0.6050 0.6672 0.4345
vn -0.1611 0.9054 0.3928
vn 0.1795 0.8691 0.4610
vn -0.8633 0.3852 0.3260
vn -0.7949 0.6055 0.0386
vn -0.3504 0.9353 0.0501
vn 0.2090 0.9770 0.0415
vn -0.1466 0.9205 -0.3622
vn 0.0295 0.6576 0.7527
vn 0.6716 0.6711 0.3140
vn 0.4550 0.7574 0.4684
vn 0.5038 0.8508 0.1493
vn 0.7086 0.7056 0.0028
vn 0.7182 0.5865 -0.3744
vn 0.5645 0.7804 -0.2689
vn 0.0749 -0.9765 -0.2019
vn -0.8442 -0.5204 -0.1285
vn -0.9305 -0.3619 0.0557
vn 0.7541 -0.5733 -0.3204
vn 0.5044 -0.8062 -0.3092
vn 0.8594 -0.3738 -0.3489
vn 0.9378 -0.3022 -0.1710
vn -0.9124 -0.3984 0.0935
vn 0.9399 -0.3384 -0.0449
vn -0.8682 -0.4927 0.0596
vn -0.8471 -0.4938 0.1966
vn -0.5843 -0.6667 -0.4627
vn -0.6730 -0.6630 -0.3280
vn -0.7434 -0.6520 -0.1493
vn 0.9937 -0.0974 -0.0549
vn 0.9979 0.0637 -0.0109
vn -0.6343 -0.4064 -0.6576
vn -0.6186 -0.5688 -0.5421
vn -0.7998 -0.2314 -0.5538
vn -0.7120 -0.3156 -0.6272
vn -0.8232 -0.2685 -0.5003
vn -0.7048 -0.1527 -0.6928
vn -0.6444 -0.1564 -0.7485
vn 0.9851 0.1613 -0.0604
vn -0.5139 -0.1478 -0.8450
vn 0.9688 0.2356 -0.0765
vn 0.9206 0.2966 -0.2541
vn 0.9261 0.3482 -0.1452
vn -0.6815 -0.2892 -0.6722
vn 0.7322 0.6012 -0.3201
vn 0.6161 0.5546 -0.5593
vn 0.6804 0.6362 -0.3638
vn 0.8340 0.5272 -0.1629
vn 0.8078 0.5032 -0.3069
vn 0.8175 0.4211 -0.3928
vn 0.7069 0.5404 -0.4564
vn -0.5597 -0.2017 -0.8038
vn 0.6157 0.5610 -0.5534
vn 0.6496 0.6456 -0.4016
vn 0.4366 0.5529 -0.7097
vn 0.4063 0.7021 -0.5848
vn 0.5147 0.7586 -0.3994
vn 0.5617 0.7672 -0.3096
vn 0.5263 0.6886 -0.4988
vn -0.7770 -0.2284 -0.5866
vn 0.5019 0.4087 -0.7622
vn 0.4143 0.4432 -0.7949
vn -0.8253 -0.1491 -0.5446
vn -0.6363 -0.0751 -0.7678
vn -0.5284 -0.1116 -0.8416
vn 0.5847 0.3666 -0.7237
vn 0.4072 0.3083 -0.8598
vn -0.9729 -0.0683 -0.2211
vn -0.8952 -0.0755 -0.4392
vn -0.9264 0.0333 -0.3750
vn -0.7742 0.0238 -0.6325
vn -0.5067 0.0498 -0.8607
vn 0.2433 0.1836 -0.9524
vn 0.3898 0.2640 -0.8822
vn 0.4560 0.2633 -0.8501
vn 0.2470 0.2179 -0.9442
vn 0.6251 0.3201 -0.7118
vn -0.8413 0.0329 -0.5396
vn -0.4808 0.0597 -0.8748
vn -0.1101 0.1437 -0.9835
vn -0.0103 0.1216 -0.9925
vn 0.2465 0.2335 -0.9406
vn 0.6240 0.3236 -0.7113
vn 0.4117 0.2741 -0.8691
vn -0.7192 0.0505 -0.6929
vn -0.3232 0.0578 -0.9446
vn 0.3388 0.2084 -0.9175
vn 0.4966 0.2863 -0.8194
vn -0.7496 0.1719 -0.6392
vn -0.4062 0.1537 -0.9008
vn -0.2922 0.2968 -0.9091
vn 0.0290 0.1727 -0.9846
vn 0.2349 0.1320 -0.9630
vn 0.5102 0.2671 -0.8175
vn -0.8485 0.3176 -0.4232
vn -0.4161 0.8448 -0.3365
vn 0.2739 0.8858 -0.3746
vn -0.3780 0.5319 -0.7578
vn 0.1226 0.7185 -0.6847
vn 0.5018 0.6018 -0.6213
vn 0.1251 0.5142 -0.8485
vn 0.6296 0.4533 -0.6310
vn 0.2586 0.3641 -0.8948
vn -0.6674 -0.6979 -0.2598
vn -0.7586 -0.5803 -0.2963
vn -0.9010 -0.4293 0.0625
vn -0.8679 -0.4734 -0.1508
vn -0.8181 -0.4411 -0.3690
vn -0.7404 -0.5143 -0.4328
vn -0.5487 -0.6425 -0.5349
vn -0.4593 -0.8318 -0.3118
vn -0.1664 -0.9384 -0.3029
vn 0.2051 -0.9115 -0.3565
vn -0.3778 -0.8001 -0.4660
vn -0.0278 -0.8509 -0.5246
vn 0.3226 -0.8004 -0.5053
vn 0.5219 -0.6432 -0.5602
vn -0.2560 -0.7340 -0.6291
vn 0.1964 -0.6767 -0.7096
vn 0.7105 -0.4459 -0.5443
vn -0.8839 -0.4492 0.1306
vn -0.8841 -0.4304 -0.1820
vn 0.8315 -0.2268 -0.5070
vn 0.9276 -0.2381 -0.2877
vn 0.7240 -0.3154 -0.6135
vn -0.8453 -0.5129 0.1495
vn -0.8502 -0.5121 -0.1220
vn -0.8566 -0.4595 -0.2346
vn -0.8923 -0.4029 -0.2034
vn 0.9694 -0.1774 -0.1695
vn -0.8289 -0.5593 -0.0096
vn 0.9812 -0.0379 -0.1892
vn 0.8967 -0.1454 -0.4181
vn 0.8975 0.0134 -0.4408
vn -0.6059 -0.3529 -0.7130
vn -0.7281 -0.5093 -0.4587
vn -0.7527 -0.4801 -0.4505
vn 0.9589 0.1105 -0.2612
vn 0.7717 0.0789 -0.6311
vn -0.5683 -0.2452 -0.7855
vn -0.4361 -0.1600 -0.8856
vn 0.8961 0.1623 -0.4132
vn -0.4436 -0.0715 -0.8934
vn 0.9012 0.2409 -0.3603
vn 0.9645 0.1889 -0.1846
vn 0.7743 0.2407 -0.5853
vn -0.2898 -0.0910 -0.9527
vn -0.3000 -0.0177 -0.9538
vn 0.8024 0.3117 -0.5090
vn 0.8455 0.3631 -0.3914
vn 0.6994 0.3905 -0.5986
vn 0.6832 0.3054 -0.6633
vn -0.1575 0.0286 -0.9871
vn 0.5610 0.4461 -0.6974
vn 0.5708 0.3650 -0.7355
vn -0.5234 -0.2146 -0.8246
vn -0.0707 0.0859 -0.9938
vn 0.0942 0.1996 -0.9753
vn 0.2267 0.3957 -0.8899
vn 0.0236 0.2035 -0.9788
vn 0.2881 0.3913 -0.8740
vn 0.4606 0.5091 -0.7270
vn 0.3325 0.3660 -0.8692
vn 0.4945 0.4777 -0.7261
vn 0.4406 0.3929 -0.8071
vn 0.6617 0.4746 -0.5804
vn -0.0977 0.0210 -0.9950
vn -0.0721 0.0733 -0.9947
vn 0.1561 0.2105 -0.9651
vn 0.3138 0.6299 -0.7104
vn 0.4424 0.6363 -0.6320
vn 0.3139 0.5629 -0.7646
vn 0.1872 0.4339 -0.8813
vn -0.3552 -0.1136 -0.9279
vn -0.2771 -0.0574 -0.9591
vn 0.0465 0.0856 -0.9952
vn 0.2679 0.2395 -0.9332
vn -0.3862 -0.1032 -0.9166
vn -0.1432 0.0123 -0.9896
vn -0.2448 0.0333 -0.9690
vn 0.0588 0.1348 -0.9891
vn -0.5696 -0.4250 -0.7035
vn -0.3814 -0.4783 -0.7911
vn -0.2474 -0.2518 -0.9356
vn -0.1031 -0.6076 -0.7875
vn 0.4758 -0.4627 -0.7480
vn 0.0498 -0.3947 -0.9175
vn 0.4286 -0.3014 -0.8517
vn 0.0841 -0.2117 -0.9737
vn 0.2546 -0.1519 -0.9550
vn -0.7298 -0.4017 -0.5532
vn -0.4994 -0.2722 -0.8225
vn -0.5384 -0.3135 -0.7822
vn -0.2158 -0.1665 -0.9621
vn 0.0136 -0.1044 -0.9944
vn 0.5941 -0.2164 -0.7748
vn -0.6219 -0.3575 -0.6967
vn 0.6789 -0.0962 -0.7279
vn 0.4068 -0.1257 -0.9048
vn 0.2427 -0.0556 -0.9685
vn -0.4408 -0.2497 -0.8622
vn 0.5195 -0.0054 -0.8544
vn -0.6076 -0.3116 -0.7306
vn -0.4287 -0.1776 -0.8858
vn -0.2558 -0.1462 -0.9556
vn -0.1171 -0.0654 -0.9910
vn -0.0636 -0.0765 -0.9950
vn 0.0943 -0.0393 -0.9948
vn -0.5172 -0.1727 -0.8383
vn -0.5133 -0.1369 -0.8472
vn -0.3833 -0.0326 -0.9231
vn -0.3433 0.0377 -0.9385
vn -0.3441 -0.0533 -0.9374
vn -0.2015 -0.0345 -0.9789
vn -0.0795 0.0314 -0.9963
vn 0.3862 0.0646 -0.9201
vn 0.5898 0.0944 -0.8020
vn -0.3100 -0.0020 -0.9507
vn -0.2339 0.0936 -0.9677
vn -0.1640 0.1103 -0.9803
vn 0.0601 0.2086 -0.9761
vn 0.2832 0.1197 -0.9515
vn 0.1693 0.0307 -0.9851
vn 0.0389 0.0794 -0.9961
vn 0.2041 0.1817 -0.9619
vn 0.3806 0.1904 -0.9049
vn 0.5771 0.1942 -0.7932
vn 0.7563 0.1477 -0.6374
vn -0.0426 0.1506 -0.9877
vn 0.0766 0.1857 -0.9796
vn 0.2368 0.3058 -0.9222
vn 0.4139 0.2994 -0.8597
vn 0.5587 0.2645 -0.7860
vn -0.1032 0.0894 -0.9906
vn 0.1275 0.2490 -0.9601
vn -0.0205 0.2023 -0.9791
vn 0.0059 0.0026 -1.0000
s 1
usemtl mtl1.129
f 3//1 1//2 7//3
f 38//4 23//5 3//1
f 23//5 2//6 3//1
f 1//2 3//1 2//6
f 6//7 4//8 2//6
f 2//6 4//8 1//2
f 1//2 4//8 7//3
f 6//7 2//6 5//9
f 6//7 33//10 4//8
f 33//10 8//11 4//8
f 7//3 4//8 8//11
f 7//3 8//11 41//12
f 14//13 59//14 60//15
f 56//16 9//17 67//18
f 10//19 24//20 11//21
f 11//21 24//20 9//17
f 11//21 58//22 16//23
f 11//21 9//17 58//22
f 58//22 9//17 56//16
f 10//19 11//21 13//24
f 10//19 13//24 28//25
f 28//25 13//24 12//26
f 11//21 14//13 13//24
f 13//24 17//27 12//26
f 11//21 16//23 14//13
f 15//28 13//24 14//13
f 15//28 17//27 13//24
f 14//13 60//15 15//28
f 18//29 17//27 15//28
f 16//23 58//22 59//14
f 14//13 16//23 59//14
f 18//29 15//28 60//15
f 17//27 30//30 12//26
f 17//27 19//31 30//30
f 18//29 19//31 17//27
f 79//32 26//33 38//4
f 21//34 26//33 79//32
f 20//35 26//33 21//34
f 20//35 21//34 67//18
f 21//34 68//36 67//18
f 23//5 25//37 22//38
f 22//38 5//9 23//5
f 22//38 10//19 5//9
f 2//6 23//5 5//9
f 24//20 22//38 25//37
f 26//33 25//37 23//5
f 38//4 26//33 23//5
f 24//20 25//37 9//17
f 25//37 20//35 9//17
f 25//37 26//33 20//35
f 67//18 9//17 20//35
f 22//38 24//20 10//19
f 5//9 28//25 6//7
f 28//25 5//9 10//19
f 28//25 27//39 6//7
f 27//39 28//25 12//26
f 29//40 27//39 12//26
f 12//26 30//30 29//40
f 30//30 32//41 29//40
f 32//41 31//42 29//40
f 32//41 30//30 19//31
f 32//41 71//43 31//42
f 19//31 72//44 32//41
f 72//44 71//43 32//41
f 31//42 71//43 77//45
f 6//7 27//39 33//10
f 27//39 29//40 33//10
f 29//40 31//42 33//10
f 31//42 34//46 33//10
f 31//42 77//45 34//46
f 33//10 34//46 8//11
f 34//46 42//47 8//11
f 36//48 42//47 34//46
f 85//49 38//4 37//50
f 85//49 79//32 38//4
f 38//4 35//51 39//52
f 35//51 41//12 40//53
f 38//4 3//1 35//51
f 7//3 35//51 3//1
f 35//51 7//3 41//12
f 38//4 39//52 37//50
f 35//51 43//54 39//52
f 35//51 40//53 43//54
f 46//55 45//56 42//47
f 42//47 45//56 8//11
f 46//55 42//47 36//48
f 45//56 46//55 47//57
f 43//54 48//58 39//52
f 43//54 98//59 48//58
f 49//60 43//54 40//53
f 43//54 49//60 98//59
f 41//12 8//11 45//56
f 40//53 41//12 44//61
f 41//12 45//56 44//61
f 45//56 99//62 44//61
f 47//57 46//55 89//63
f 47//57 91//64 45//56
f 49//60 94//65 98//59
f 40//53 44//61 49//60
f 49//60 99//62 94//65
f 49//60 44//61 99//62
f 59//14 51//66 60//15
f 50//67 60//15 51//66
f 58//22 57//68 51//66
f 51//66 54//69 50//67
f 57//68 61//70 51//66
f 61//70 52//71 51//66
f 51//66 52//71 54//69
f 54//69 53//72 50//67
f 54//69 55//73 53//72
f 55//73 62//74 53//72
f 64//75 62//74 55//73
f 52//71 104//76 54//69
f 55//73 103//77 108//78
f 56//16 67//18 70//79
f 57//68 112//80 115//81
f 56//16 70//79 57//68
f 58//22 56//16 57//68
f 57//68 105//82 61//70
f 51//66 59//14 58//22
f 53//72 60//15 50//67
f 18//29 60//15 53//72
f 105//82 155//83 61//70
f 61//70 155//83 52//71
f 18//29 53//72 62//74
f 18//29 62//74 19//31
f 62//74 63//84 19//31
f 72//44 19//31 63//84
f 62//74 64//75 63//84
f 64//75 65//85 63//84
f 64//75 55//73 65//85
f 108//78 65//85 55//73
f 106//86 63//84 65//85
f 73//87 63//84 107//88
f 107//88 63//84 106//86
f 107//88 117//89 73//87
f 117//89 74//90 73//87
f 106//86 65//85 108//78
f 68//36 75//91 76//92
f 66//93 68//36 76//92
f 68//36 70//79 67//18
f 68//36 69//94 70//79
f 66//93 69//94 68//36
f 70//79 69//94 57//68
f 74//90 71//43 72//44
f 63//84 73//87 72//44
f 74//90 72//44 73//87
f 80//95 120//96 110//97
f 75//91 21//34 79//32
f 75//91 80//95 76//92
f 76//92 80//95 110//97
f 68//36 21//34 75//91
f 66//93 76//92 110//97
f 77//45 36//48 34//46
f 77//45 71//43 74//90
f 78//98 77//45 74//90
f 77//45 121//99 36//48
f 121//99 77//45 78//98
f 88//100 36//48 121//99
f 122//101 80//95 82//102
f 75//91 79//32 82//102
f 75//91 82//102 80//95
f 80//95 122//101 120//96
f 83//103 87//104 84//105
f 84//105 87//104 124//106
f 37//50 81//107 85//49
f 83//103 82//102 81//107
f 82//102 85//49 81//107
f 87//104 83//103 81//107
f 82//102 83//103 84//105
f 82//102 84//105 122//101
f 85//49 82//102 79//32
f 86//108 87//104 81//107
f 86//108 126//109 87//104
f 90//110 126//109 86//108
f 81//107 37//50 86//108
f 46//55 36//48 88//100
f 90//110 86//108 37//50
f 90//110 37//50 39//52
f 39//52 48//58 90//110
f 91//64 47//57 89//63
f 131//111 89//63 88//100
f 131//111 130//112 89//63
f 46//55 88//100 89//63
f 128//113 126//109 92//114
f 126//109 90//110 92//114
f 91//64 89//63 130//112
f 95//115 93//116 92//114
f 93//116 95//115 137//117
f 92//114 93//116 134//118
f 134//118 93//116 137//117
f 92//114 48//58 95//115
f 48//58 97//119 95//115
f 97//119 96//120 95//115
f 97//119 48//58 98//59
f 90//110 48//58 92//114
f 94//65 102//121 98//59
f 45//56 101//122 99//62
f 140//123 91//64 130//112
f 95//115 96//120 137//117
f 142//124 96//120 97//119
f 142//124 97//119 98//59
f 98//59 102//121 142//124
f 143//125 142//124 102//121
f 94//65 100//126 102//121
f 94//65 99//62 100//126
f 101//122 100//126 99//62
f 101//122 138//127 100//126
f 140//123 101//122 45//56
f 91//64 140//123 45//56
f 101//122 140//123 138//127
f 100//126 150//128 102//121
f 100//126 138//127 144//129
f 55//73 54//69 103//77
f 104//76 103//77 54//69
f 57//68 115//81 105//82
f 155//83 104//76 52//71
f 109//130 107//88 106//86
f 108//78 103//77 157//131
f 106//86 159//132 109//130
f 160//133 109//130 159//132
f 110//97 111//134 66//93
f 111//134 110//97 113//135
f 110//97 161//136 113//135
f 57//68 69//94 112//80
f 111//134 69//94 66//93
f 69//94 111//134 112//80
f 112//80 114//137 115//81
f 112//80 111//134 113//135
f 113//135 114//137 112//80
f 162//138 114//137 113//135
f 161//136 162//138 113//135
f 164//139 116//140 114//137
f 114//137 116//140 115//81
f 165//141 116//140 164//139
f 115//81 116//140 105//82
f 117//89 118//142 74//90
f 78//98 74//90 118//142
f 117//89 107//88 109//130
f 117//89 109//130 160//133
f 117//89 160//133 118//142
f 119//143 78//98 118//142
f 119//143 118//142 166//144
f 118//142 160//133 166//144
f 120//96 161//136 110//97
f 121//99 78//98 119//143
f 119//143 166//144 225//145
f 169//146 119//143 225//145
f 120//96 220//147 167//148
f 121//99 119//143 169//146
f 122//101 84//105 124//106
f 124//106 123//149 120//96
f 120//96 122//101 124//106
f 120//96 170//150 220//147
f 123//149 124//106 127//151
f 127//151 87//104 126//109
f 127//151 124//106 87//104
f 171//152 131//111 88//100
f 125//153 126//109 128//113
f 127//151 126//109 125//153
f 127//151 125//153 123//149
f 129//154 128//113 92//114
f 125//153 128//113 174//155
f 174//155 128//113 129//154
f 131//111 177//156 130//112
f 129//154 134//118 181//157
f 129//154 92//114 134//118
f 140//123 130//112 184//158
f 184//158 130//112 177//156
f 132//159 135//160 133//161
f 135//160 183//162 133//161
f 137//117 135//160 134//118
f 134//118 135//160 132//159
f 134//118 132//159 180//163
f 136//164 135//160 185//165
f 183//162 135//160 136//164
f 137//117 96//120 147//166
f 139//167 144//129 138//127
f 140//123 139//167 138//127
f 139//167 140//123 184//158
f 139//167 184//158 141//168
f 185//165 135//160 152//169
f 152//169 135//160 151//170
f 137//117 151//170 135//160
f 96//120 142//124 147//166
f 142//124 148//171 147//166
f 142//124 143//125 148//171
f 150//128 143//125 102//121
f 144//129 150//128 100//126
f 150//128 144//129 145//172
f 139//167 145//172 144//129
f 145//172 139//167 141//168
f 185//165 152//169 193//173
f 151//170 137//117 147//166
f 146//174 153//175 151//170
f 147//166 146//174 151//170
f 146//174 147//166 148//171
f 148//171 149//176 146//174
f 148//171 143//125 149//176
f 143//125 150//128 149//176
f 152//169 151//170 201//177
f 154//178 146//174 195//179
f 146//174 154//178 153//175
f 149//176 195//179 146//174
f 149//176 150//128 198//180
f 195//179 149//176 198//180
f 150//128 190//181 198//180
f 156//182 103//77 104//76
f 155//83 156//182 104//76
f 105//82 211//183 155//83
f 156//182 157//131 103//77
f 108//78 157//131 159//132
f 106//86 108//78 159//132
f 159//132 157//131 212//184
f 157//131 158//185 212//184
f 156//182 158//185 157//131
f 116//140 165//141 105//82
f 165//141 164//139 163//186
f 160//133 219//187 166//144
f 225//145 166//144 219//187
f 162//138 161//136 168//188
f 164//139 114//137 162//138
f 168//188 163//186 162//138
f 164//139 162//138 163//186
f 165//141 224//189 218//190
f 218//190 105//82 165//141
f 120//96 167//148 161//136
f 161//136 167//148 168//188
f 222//191 163//186 168//188
f 163//186 224//189 165//141
f 169//146 172//192 121//99
f 225//145 226//193 169//146
f 123//149 170//150 120//96
f 172//192 171//152 121//99
f 172//192 169//146 226//193
f 123//149 125//153 173//194
f 170//150 123//149 173//194
f 171//152 88//100 121//99
f 125//153 174//155 175//195
f 125//153 175//195 173//194
f 173//194 175//195 231//196
f 179//197 131//111 171//152
f 227//198 179//197 171//152
f 176//199 175//195 174//155
f 231//196 175//195 176//199
f 179//197 177//156 131//111
f 178//200 177//156 179//197
f 184//158 177//156 182//201
f 177//156 178//200 182//201
f 227//198 178//200 179//197
f 181//157 176//199 174//155
f 181//157 134//118 180//163
f 180//163 176//199 181//157
f 233//202 176//199 180//163
f 181//157 174//155 129//154
f 132//159 133//161 180//163
f 133//161 183//162 180//163
f 186//203 183//162 136//164
f 184//158 188//204 141//168
f 238//205 186//203 243//206
f 186//203 136//164 185//165
f 185//165 189//207 186//203
f 238//205 183//162 186//203
f 191//208 145//172 187//209
f 191//208 187//209 246//210
f 141//168 188//204 187//209
f 145//172 141//168 187//209
f 187//209 188//204 246//210
f 189//207 185//165 193//173
f 243//206 186//203 189//207
f 145//172 190//181 150//128
f 145//172 191//208 190//181
f 190//181 191//208 249//211
f 249//211 191//208 246//210
f 193//173 194//212 189//207
f 192//213 194//212 193//173
f 192//213 247//214 194//212
f 201//177 151//170 200//215
f 193//173 152//169 204//216
f 152//169 201//177 204//216
f 197//217 195//179 198//180
f 198//180 190//181 196//218
f 198//180 196//218 197//217
f 197//217 196//218 250//219
f 196//218 248//220 250//219
f 288//221 250//219 248//220
f 193//173 204//216 199//222
f 192//213 193//173 199//222
f 251//223 192//213 199//222
f 251//223 252//224 192//213
f 204//216 201//177 205//225
f 200//215 208//226 205//225
f 200//215 151//170 153//175
f 200//215 153//175 202//227
f 201//177 200//215 205//225
f 153//175 154//178 202//227
f 203//228 195//179 254//229
f 154//178 195//179 203//228
f 195//179 250//219 254//229
f 292//230 254//229 250//219
f 197//217 250//219 195//179
f 298//231 251//223 206//232
f 206//232 199//222 204//216
f 204//216 205//225 206//232
f 206//232 205//225 208//226
f 199//222 206//232 251//223
f 206//232 208//226 297//233
f 208//226 202//227 207//234
f 200//215 202//227 208//226
f 203//228 210//235 154//178
f 203//228 254//229 253//236
f 202//227 209//237 207//234
f 207//234 209//237 257//238
f 154//178 209//237 202//227
f 155//83 213//239 156//182
f 155//83 211//183 213//239
f 213//239 211//183 264//240
f 214//241 212//184 158//185
f 214//241 159//132 212//184
f 213//239 158//185 156//182
f 311//242 214//241 158//185
f 267//243 214//241 311//242
f 267//243 216//244 214//241
f 105//82 215//245 211//183
f 216//244 159//132 214//241
f 216//244 160//133 159//132
f 160//133 217//246 219//187
f 216//244 217//246 160//133
f 217//246 216//244 266//247
f 268//248 219//187 217//246
f 105//82 218//190 215//245
f 218//190 270//249 215//245
f 225//145 219//187 268//248
f 220//147 221//250 167//148
f 167//148 221//250 168//188
f 272//251 168//188 221//250
f 222//191 168//188 274//252
f 224//189 163//186 222//191
f 223//253 224//189 222//191
f 222//191 274//252 223//253
f 218//190 224//189 270//249
f 224//189 269//254 270//249
f 170//150 277//255 220//147
f 271//256 220//147 277//255
f 271//256 221//250 220//147
f 170//150 173//194 280//257
f 171//152 172//192 227//198
f 172//192 228//258 227//198
f 228//258 172//192 226//193
f 230//259 173//194 231//196
f 173//194 230//259 280//257
f 231//196 176//199 229//260
f 229//260 176//199 233//202
f 230//259 229//260 233//202
f 230//259 231//196 229//260
f 232//261 234//262 178//200
f 232//261 178//200 227//198
f 232//261 227//198 228//258
f 180//163 235//263 233//202
f 178//200 234//262 182//201
f 235//263 180//163 183//162
f 332//264 328//265 235//263
f 238//205 239//266 236//267
f 183//162 238//205 235//263
f 235//263 238//205 236//267
f 235//263 236//267 332//264
f 188//204 184//158 237//268
f 184//158 182//201 237//268
f 336//269 239//266 245//270
f 238//205 243//206 244//271
f 239//266 238//205 244//271
f 246//210 188//204 240//272
f 188//204 241//273 240//272
f 188//204 237//268 241//273
f 241//273 284//274 240//272
f 243//206 189//207 194//212
f 244//271 243//206 242//275
f 245//270 239//266 244//271
f 245//270 244//271 242//275
f 245//270 242//275 341//276
f 249//211 246//210 287//277
f 344//278 249//211 287//277
f 242//275 289//279 290//280
f 243//206 194//212 247//214
f 247//214 192//213 252//224
f 242//275 243//206 247//214
f 289//279 242//275 247//214
f 289//279 247//214 252//224
f 190//181 249//211 196//218
f 196//218 249//211 248//220
f 288//221 292//230 250//219
f 253//236 210//235 203//228
f 253//236 254//229 256//281
f 292//230 256//281 254//229
f 297//233 298//231 206//232
f 210//235 258//282 154//178
f 255//283 256//281 260//284
f 210//235 253//236 255//283
f 255//283 253//236 256//281
f 260//284 256//281 291//285
f 297//233 208//226 261//286
f 207//234 257//238 208//226
f 208//226 257//238 261//286
f 262//287 261//286 257//238
f 262//287 257//238 209//237
f 209//237 258//282 262//287
f 258//282 263//288 262//287
f 259//289 263//288 258//282
f 299//290 263//288 259//289
f 209//237 154//178 258//282
f 259//289 258//282 210//235
f 259//289 260//284 301//291
f 259//289 301//291 299//290
f 210//235 255//283 259//289
f 255//283 260//284 259//289
f 263//288 303//292 262//287
f 263//288 299//290 303//292
f 311//242 158//185 310//293
f 213//239 310//293 158//185
f 211//183 391//294 265//295
f 211//183 265//295 264//240
f 266//247 268//248 217//246
f 267//243 266//247 216//244
f 314//296 268//248 266//247
f 267//243 312//297 266//247
f 312//297 314//296 266//247
f 224//189 223//253 269//254
f 269//254 223//253 275//298
f 275//298 270//249 269//254
f 270//249 275//298 315//299
f 215//245 270//249 316//300
f 211//183 215//245 316//300
f 276//301 225//145 268//248
f 271//256 317//302 221//250
f 277//255 317//302 271//256
f 221//250 317//302 272//251
f 317//302 318//303 272//251
f 318//303 273//304 272//251
f 272//251 274//252 168//188
f 273//304 274//252 272//251
f 275//298 274//252 398//305
f 320//306 398//305 274//252
f 223//253 274//252 275//298
f 276//301 226//193 225//145
f 226//193 276//301 228//258
f 278//307 277//255 170//150
f 280//257 278//307 170//150
f 278//307 280//257 281//308
f 278//307 279//309 277//255
f 279//309 323//310 277//255
f 230//259 233//202 280//257
f 327//311 281//308 280//257
f 331//312 232//261 228//258
f 328//265 280//257 233//202
f 328//265 233//202 235//263
f 234//262 232//261 331//312
f 283//313 182//201 234//262
f 283//313 234//262 330//314
f 239//266 338//315 282//316
f 239//266 282//316 236//267
f 236//267 282//316 332//264
f 237//268 182//201 283//313
f 338//315 239//266 336//269
f 284//274 285//317 286//318
f 241//273 285//317 284//274
f 285//317 340//319 286//318
f 283//313 285//317 237//268
f 237//268 285//317 241//273
f 285//317 283//313 340//319
f 245//270 341//276 336//269
f 240//272 287//277 246//210
f 287//277 240//272 284//274
f 286//318 344//278 287//277
f 287//277 284//274 286//318
f 290//280 341//276 242//275
f 248//220 249//211 430//320
f 293//321 290//280 289//279
f 347//322 292//230 346//323
f 288//221 346//323 292//230
f 289//279 252//224 293//321
f 292//230 291//285 256//281
f 347//322 291//285 292//230
f 252//224 251//223 294//324
f 291//285 296//325 260//284
f 291//285 347//322 302//326
f 302//326 347//322 351//327
f 294//324 251//223 298//231
f 293//321 252//224 294//324
f 293//321 294//324 295//328
f 295//328 294//324 359//329
f 301//291 260//284 296//325
f 296//325 291//285 302//326
f 302//326 301//291 296//325
f 297//233 261//286 306//330
f 359//329 294//324 298//231
f 299//290 300//331 304//332
f 302//326 355//333 300//331
f 299//290 301//291 300//331
f 300//331 301//291 302//326
f 305//334 358//335 298//231
f 297//233 306//330 305//334
f 298//231 297//233 305//334
f 261//286 307//336 306//330
f 307//336 261//286 262//287
f 309//337 303//292 304//332
f 309//337 304//332 362//338
f 303//292 299//290 304//332
f 304//332 300//331 355//333
f 304//332 355//333 362//338
f 307//336 262//287 308//339
f 306//330 307//336 308//339
f 309//337 308//339 262//287
f 308//339 309//337 384//340
f 384//340 309//337 363//341
f 262//287 303//292 309//337
f 309//337 362//338 363//341
f 306//330 308//339 377//342
f 377//342 308//339 384//340
f 264//240 388//343 385//344
f 264//240 385//344 213//239
f 385//344 386//345 213//239
f 213//239 386//345 310//293
f 265//295 388//343 264//240
f 265//295 391//294 388//343
f 311//242 312//297 267//243
f 312//297 390//346 314//296
f 389//347 312//297 311//242
f 390//346 312//297 389//347
f 211//183 316//300 391//294
f 314//296 313//348 268//248
f 392//349 313//348 314//296
f 270//249 315//299 316//300
f 315//299 399//350 395//351
f 315//299 321//352 399//350
f 315//299 395//351 316//300
f 391//294 316//300 395//351
f 401//353 276//301 268//248
f 268//248 313//348 401//353
f 319//354 318//303 317//302
f 318//303 319//354 273//304
f 273//304 320//306 274//252
f 320//306 273//304 319//354
f 319//354 397//355 320//306
f 397//355 398//305 320//306
f 321//352 275//298 398//305
f 398//305 400//356 321//352
f 321//352 315//299 275//298
f 279//309 326//357 323//310
f 279//309 278//307 326//357
f 277//255 323//310 322//358
f 317//302 277//255 322//358
f 322//358 323//310 403//359
f 323//310 402//360 403//359
f 317//302 322//358 319//354
f 228//258 324//361 331//312
f 324//361 228//258 276//301
f 401//353 324//361 276//301
f 281//308 325//362 278//307
f 325//362 408//363 326//357
f 326//357 408//363 406//364
f 278//307 325//362 326//357
f 323//310 326//357 406//364
f 325//362 281//308 327//311
f 408//363 325//362 329//365
f 325//362 327//311 329//365
f 280//257 328//265 327//311
f 327//311 328//265 329//365
f 328//265 411//366 329//365
f 330//314 234//262 331//312
f 331//312 410//367 330//314
f 411//366 328//265 332//264
f 334//368 411//366 332//264
f 410//367 413//369 330//314
f 335//370 330//314 413//369
f 412//371 335//370 413//369
f 282//316 338//315 333//372
f 282//316 333//372 332//264
f 422//373 334//368 337//374
f 337//374 334//368 333//372
f 334//368 422//373 411//366
f 332//264 333//372 334//368
f 330//314 335//370 283//313
f 336//269 342//375 337//374
f 338//315 336//269 337//374
f 337//374 342//375 343//376
f 422//373 337//374 343//376
f 338//315 337//374 333//372
f 286//318 340//319 339//377
f 340//319 415//378 339//377
f 425//379 339//377 415//378
f 283//313 335//370 340//319
f 340//319 335//370 419//380
f 340//319 419//380 415//378
f 421//381 415//378 419//380
f 341//276 342//375 336//269
f 341//276 343//376 342//375
f 433//382 345//383 425//379
f 286//318 339//377 344//278
f 345//383 344//278 425//379
f 344//278 339//377 425//379
f 428//384 248//220 430//320
f 428//384 288//221 248//220
f 426//385 288//221 428//384
f 249//211 432//386 430//320
f 344//278 345//383 249//211
f 249//211 345//383 432//386
f 345//383 433//382 432//386
f 426//385 347//322 346//323
f 288//221 426//385 346//323
f 426//385 435//387 347//322
f 341//276 290//280 436//388
f 438//389 351//327 347//322
f 293//321 349//390 348//391
f 293//321 348//391 290//280
f 436//388 290//280 348//391
f 349//390 293//321 295//328
f 295//328 352//392 349//390
f 349//390 350//393 348//391
f 350//393 349//390 352//392
f 452//394 350//393 352//392
f 356//395 302//326 351//327
f 352//392 295//328 354//396
f 452//394 352//392 354//396
f 356//395 355//333 302//326
f 353//397 295//328 359//329
f 353//397 354//396 295//328
f 360//398 354//396 353//397
f 454//399 354//396 360//398
f 452//394 354//396 454//399
f 355//333 365//400 362//338
f 459//401 361//402 366//403
f 355//333 356//395 366//403
f 366//403 365//400 355//333
f 367//404 358//335 376//405
f 357//406 359//329 358//335
f 353//397 359//329 357//406
f 358//335 367//404 357//406
f 353//397 372//407 360//398
f 372//407 353//397 357//406
f 454//399 360//398 467//408
f 360//398 372//407 467//408
f 376//405 358//335 305//334
f 306//330 376//405 305//334
f 298//231 358//335 359//329
f 364//409 366//403 361//402
f 365//400 363//341 362//338
f 364//409 363//341 365//400
f 366//403 364//409 365//400
f 367//404 376//405 368//410
f 370//411 367//404 368//410
f 370//411 368//410 371//412
f 381//413 371//412 368//410
f 369//414 357//406 367//404
f 369//414 367//404 370//411
f 369//414 373//415 372//407
f 357//406 369//414 372//407
f 370//411 373//415 369//414
f 374//416 373//415 370//411
f 371//412 374//416 370//411
f 375//417 374//416 371//412
f 375//417 371//412 381//413
f 467//408 372//407 373//415
f 469//418 374//416 375//417
f 376//405 306//330 378//419
f 378//419 306//330 377//342
f 379//420 377//342 384//340
f 368//410 376//405 378//419
f 368//410 378//419 381//413
f 381//413 378//419 380//421
f 380//421 378//419 377//342
f 377//342 379//420 380//421
f 381//413 380//421 383//422
f 383//422 380//421 382//423
f 380//421 379//420 382//423
f 383//422 375//417 381//413
f 364//409 382//423 379//420
f 364//409 476//424 382//423
f 375//417 383//422 475//425
f 383//422 382//423 475//425
f 476//424 475//425 382//423
f 384//340 363//341 379//420
f 364//409 379//420 363//341
f 364//409 361//402 476//424
f 386//345 387//426 310//293
f 387//426 311//242 310//293
f 388//343 482//427 385//344
f 388//343 494//428 482//427
f 388//343 391//294 494//428
f 387//426 389//347 311//242
f 389//347 493//429 390//346
f 492//430 493//429 389//347
f 497//431 496//432 390//346
f 391//294 395//351 396//433
f 393//434 392//349 314//296
f 393//434 314//296 390//346
f 496//432 393//434 390//346
f 496//432 392//349 393//434
f 395//351 399//350 394//435
f 400//356 394//435 399//350
f 396//433 395//351 394//435
f 396//433 394//435 501//436
f 392//349 401//353 313//348
f 397//355 319//354 404//437
f 397//355 507//438 398//305
f 507//438 509//439 398//305
f 398//305 509//439 400//356
f 321//352 400//356 399//350
f 501//436 394//435 400//356
f 392//349 503//440 401//353
f 503//440 405//441 401//353
f 403//359 402//360 511//442
f 404//437 319//354 322//358
f 404//437 322//358 403//359
f 404//437 403//359 506//443
f 506//443 397//355 404//437
f 405//441 331//312 324//361
f 405//441 324//361 401//353
f 406//364 409//444 513//445
f 406//364 402//360 323//310
f 406//364 513//445 402//360
f 329//365 407//446 408//363
f 517//447 409//444 407//446
f 408//363 409//444 406//364
f 408//363 407//446 409//444
f 409//444 514//448 513//445
f 409//444 517//447 514//448
f 405//441 410//367 331//312
f 520//449 410//367 405//441
f 411//366 517//447 407//446
f 411//366 407//446 329//365
f 517//447 411//366 521//450
f 520//449 413//369 410//367
f 520//449 523//451 413//369
f 412//371 419//380 335//370
f 523//451 524//452 412//371
f 412//371 413//369 523//451
f 420//453 419//380 412//371
f 414//454 411//366 422//373
f 417//455 529//456 423//457
f 425//379 416//458 417//455
f 416//458 425//379 415//378
f 417//455 416//458 418//459
f 418//459 534//460 531//461
f 531//461 417//455 418//459
f 420//453 421//381 419//380
f 421//381 416//458 415//378
f 421//381 418//459 416//458
f 418//459 421//381 534//460
f 420//453 534//460 421//381
f 425//379 417//455 433//382
f 414//454 422//373 550//462
f 427//463 429//464 540//465
f 430//320 429//464 428//384
f 429//464 426//385 428//384
f 426//385 429//464 427//463
f 540//465 429//464 542//466
f 432//386 431//467 430//320
f 429//464 430//320 431//467
f 429//464 431//467 542//466
f 432//386 434//468 431//467
f 434//468 432//386 433//382
f 433//382 417//455 423//457
f 433//382 423//457 434//468
f 434//468 424//469 431//467
f 434//468 423//457 424//469
f 422//373 437//470 550//462
f 553//471 438//389 435//387
f 539//472 435//387 427//463
f 426//385 427//463 435//387
f 343//376 341//276 436//388
f 437//470 343//376 436//388
f 441//473 437//470 436//388
f 437//470 441//473 442//474
f 343//376 437//470 422//373
f 550//462 437//470 558//475
f 558//475 437//470 442//474
f 444//476 553//471 445//477
f 553//471 444//476 438//389
f 438//389 347//322 435//387
f 348//391 439//478 436//388
f 439//478 440//479 436//388
f 439//478 348//391 350//393
f 439//478 446//480 440//479
f 350//393 446//480 439//478
f 440//479 447//481 441//473
f 447//481 442//474 441//473
f 440//479 441//473 436//388
f 447//481 448//482 442//474
f 442//474 448//482 558//475
f 556//483 443//484 445//477
f 450//485 443//484 560//486
f 444//476 449//487 351//327
f 443//484 444//476 445//477
f 438//389 444//476 351//327
f 452//394 446//480 350//393
f 447//481 446//480 451//488
f 451//488 446//480 452//394
f 447//481 440//479 446//480
f 447//481 451//488 455//489
f 562//490 455//489 458//491
f 562//490 448//482 455//489
f 447//481 455//489 448//482
f 450//485 449//487 444//476
f 444//476 443//484 450//485
f 458//491 457//492 562//490
f 560//486 562//490 457//492
f 453//493 450//485 460//494
f 450//485 560//486 460//494
f 560//486 457//492 460//494
f 351//327 449//487 453//493
f 351//327 453//493 356//395
f 450//485 453//493 449//487
f 454//399 451//488 452//394
f 454//399 461//495 451//488
f 461//495 455//489 451//488
f 461//495 462//496 455//489
f 458//491 455//489 462//496
f 456//497 457//492 458//491
f 459//401 460//494 466//498
f 460//494 457//492 466//498
f 466//498 457//492 456//497
f 459//401 453//493 460//494
f 453//493 459//401 356//395
f 459//401 366//403 356//395
f 472//499 454//399 467//408
f 472//499 461//495 454//399
f 461//495 472//499 464//500
f 462//496 461//495 464//500
f 464//500 474//501 465//502
f 462//496 464//500 465//502
f 462//496 465//502 463//503
f 463//503 465//502 480//504
f 463//503 480//504 466//498
f 480//504 361//402 466//498
f 462//496 463//503 458//491
f 463//503 456//497 458//491
f 456//497 463//503 466//498
f 361//402 459//401 466//498
f 472//499 467//408 468//505
f 468//505 467//408 373//415
f 647//506 373//415 374//416
f 469//418 647//506 374//416
f 471//507 469//418 375//417
f 475//425 471//507 375//417
f 647//506 469//418 473//508
f 470//509 473//508 469//418
f 471//507 470//509 469//418
f 470//509 471//507 478//510
f 478//510 471//507 475//425
f 464//500 472//499 474//501
f 468//505 473//508 472//499
f 472//499 473//508 474//501
f 474//501 473//508 477//511
f 473//508 470//509 477//511
f 477//511 470//509 478//510
f 476//424 478//510 475//425
f 476//424 479//512 478//510
f 361//402 479//512 476//424
f 481//513 477//511 478//510
f 479//512 481//513 478//510
f 474//501 481//513 465//502
f 465//502 481//513 480//504
f 479//512 361//402 480//504
f 477//511 481//513 474//501
f 479//512 480//504 481//513
f 487//514 386//345 385//344
f 482//427 484//515 487//514
f 495//516 482//427 494//428
f 482//427 483//517 484//515
f 482//427 495//516 483//517
f 483//517 575//518 563//519
f 483//517 563//519 484//515
f 483//517 495//516 575//518
f 563//519 565//520 484//515
f 387//426 492//430 389//347
f 487//514 385//344 482//427
f 485//521 386//345 487//514
f 485//521 486//522 386//345
f 486//522 387//426 386//345
f 488//523 387//426 486//522
f 492//430 387//426 488//523
f 486//522 485//521 489//524
f 487//514 565//520 485//521
f 489//524 490//525 486//522
f 490//525 491//526 488//523
f 490//525 488//523 486//522
f 487//514 484//515 565//520
f 491//526 492//430 488//523
f 565//520 489//524 485//521
f 568//527 493//429 492//430
f 566//528 489//524 565//520
f 566//528 490//525 489//524
f 566//528 567//529 490//525
f 567//529 568//527 491//526
f 567//529 491//526 490//525
f 491//526 568//527 492//430
f 493//429 568//527 569//530
f 493//429 569//530 497//431
f 493//429 497//431 390//346
f 396//433 501//436 495//516
f 498//531 574//532 495//516
f 495//516 574//532 575//518
f 494//428 391//294 396//433
f 494//428 396//433 495//516
f 497//431 587//533 499//534
f 578//535 587//533 497//431
f 497//431 499//534 496//432
f 498//531 501//436 502//536
f 498//531 589//537 583//538
f 501//436 498//531 495//516
f 498//531 585//539 574//532
f 496//432 504//540 392//349
f 499//534 504//540 496//432
f 501//436 400//356 500//541
f 500//541 400//356 509//439
f 501//436 500//541 502//536
f 500//541 589//537 502//536
f 498//531 502//536 589//537
f 504//540 503//440 392//349
f 504//540 505//542 503//440
f 594//543 505//542 504//540
f 594//543 504//540 499//534
f 587//533 594//543 499//534
f 594//543 595//544 505//542
f 403//359 512//545 506//443
f 397//355 506//443 507//438
f 507//438 506//443 508//546
f 506//443 512//545 508//546
f 507//438 598//547 509//439
f 508//546 598//547 507//438
f 509//439 598//547 500//541
f 505//542 405//441 503//440
f 505//542 510//548 405//441
f 595//544 510//548 505//542
f 595//544 597//549 510//548
f 513//445 511//442 402//360
f 511//442 513//445 515//550
f 511//442 512//545 403//359
f 515//550 512//545 511//442
f 512//545 515//550 609//551
f 510//548 520//449 405//441
f 617//552 510//548 597//549
f 516//553 514//448 521//450
f 513//445 514//448 515//550
f 515//550 514//448 516//553
f 609//551 515//550 516//553
f 521//450 514//448 517//447
f 519//554 524//452 518//555
f 617//552 519//554 518//555
f 617//552 624//556 519//554
f 523//451 520//449 518//555
f 510//548 518//555 520//449
f 617//552 518//555 510//548
f 521//450 536//557 626//558
f 522//559 526//560 524//452
f 624//556 522//559 519//554
f 522//559 524//452 519//554
f 526//560 522//559 525//561
f 630//562 525//561 522//559
f 523//451 518//555 524//452
f 536//557 632//563 626//558
f 526//560 534//460 420//453
f 525//561 534//460 526//560
f 533//564 525//561 627//565
f 412//371 524//452 420//453
f 526//560 420//453 524//452
f 521//450 411//366 414//454
f 521//450 414//454 535//566
f 521//450 535//566 536//557
f 536//557 538//567 632//563
f 632//563 538//567 527//568
f 527//568 541//569 528//570
f 638//571 546//572 640//573
f 546//572 529//456 530//574
f 530//574 640//573 546//572
f 530//574 533//564 635//575
f 417//455 531//461 529//456
f 529//456 531//461 532//576
f 532//576 533//564 529//456
f 529//456 533//564 530//574
f 534//460 525//561 532//576
f 534//460 532//576 531//461
f 533//564 532//576 525//561
f 550//462 535//566 414//454
f 536//557 548//577 537//578
f 536//557 537//578 538//567
f 527//568 538//567 549//579
f 541//569 527//568 539//472
f 539//472 540//465 541//569
f 542//466 431//467 424//469
f 542//466 543//580 540//465
f 424//469 544//581 542//466
f 544//581 543//580 542//466
f 543//580 544//581 545//582
f 636//583 543//580 545//582
f 540//465 543//580 636//583
f 540//465 636//583 541//569
f 423//457 529//456 424//469
f 529//456 544//581 424//469
f 529//456 546//572 544//581
f 544//581 546//572 545//582
f 638//571 636//583 545//582
f 546//572 638//571 545//582
f 535//566 550//462 547//584
f 547//584 550//462 551//585
f 548//577 547//584 551//585
f 536//557 535//566 547//584
f 536//557 547//584 548//577
f 548//577 552//586 549//579
f 549//579 552//586 557//587
f 548//577 549//579 537//578
f 557//587 539//472 549//579
f 538//567 537//578 549//579
f 549//579 539//472 527//568
f 539//472 427//463 540//465
f 554//588 551//585 550//462
f 551//585 552//586 548//577
f 445//477 553//471 557//587
f 553//471 539//472 557//587
f 435//387 539//472 553//471
f 550//462 558//475 554//588
f 554//588 555//589 551//585
f 559//590 555//589 554//588
f 555//589 561//591 552//586
f 555//589 559//590 561//591
f 552//586 561//591 556//483
f 557//587 552//586 556//483
f 551//585 555//589 552//586
f 559//590 448//482 562//490
f 558//475 448//482 559//590
f 554//588 558//475 559//590
f 559//590 562//490 561//591
f 561//591 560//486 556//483
f 443//484 556//483 560//486
f 561//591 562//490 560//486
f 556//483 445//477 557//587
f 563//519 564//592 565//520
f 563//519 575//518 564//592
f 570//593 564//592 577//594
f 566//528 565//520 570//593
f 571//595 566//528 570//593
f 564//592 570//593 565//520
f 571//595 567//529 566//528
f 567//529 572//596 568//527
f 568//527 572//596 569//530
f 569//530 578//535 497//431
f 570//593 573//597 571//595
f 573//597 567//529 571//595
f 572//596 567//529 573//597
f 579//598 572//596 573//597
f 578//535 572//596 579//598
f 569//530 572//596 578//535
f 581//599 579//598 573//597
f 573//597 570//593 577//594
f 577//594 581//599 573//597
f 579//598 581//599 582//600
f 574//532 584//601 575//518
f 586//602 576//603 584//601
f 584//601 576//603 575//518
f 576//603 586//602 590//604
f 590//604 577//594 576//603
f 564//592 575//518 576//603
f 564//592 576//603 577//594
f 577//594 591//605 581//599
f 581//599 591//605 582//600
f 578//535 580//606 587//533
f 579//598 582//600 580//606
f 579//598 580//606 578//535
f 498//531 583//538 585//539
f 583//538 584//601 585//539
f 583//538 589//537 584//601
f 584//601 589//537 598//547
f 584//601 598//547 600//607
f 600//607 586//602 584//601
f 574//532 585//539 584//601
f 590//604 591//605 577//594
f 587//533 580//606 596//608
f 580//606 582//600 588//609
f 596//608 580//606 588//609
f 582//600 593//610 588//609
f 500//541 598//547 589//537
f 590//604 586//602 601//611
f 582//600 591//605 593//610
f 592//612 588//609 593//610
f 596//608 594//543 587//533
f 596//608 597//549 595//544
f 594//543 596//608 595//544
f 597//549 596//608 592//612
f 592//612 596//608 588//609
f 512//545 598//547 508//546
f 512//545 599//613 598//547
f 599//613 600//607 598//547
f 600//607 599//613 601//611
f 599//613 607//614 601//611
f 599//613 512//545 607//614
f 600//607 601//611 586//602
f 601//611 602//615 590//604
f 601//611 607//614 602//615
f 590//604 602//615 608//616
f 590//604 641//617 591//605
f 593//610 591//605 643//618
f 603//619 512//545 609//551
f 512//545 603//619 604//620
f 604//620 603//619 611//621
f 604//620 611//621 612//622
f 604//620 612//622 605//623
f 512//545 604//620 607//614
f 605//623 607//614 604//620
f 607//614 605//623 606//624
f 605//623 612//622 606//624
f 602//615 606//624 608//616
f 602//615 607//614 606//624
f 606//624 644//625 608//616
f 592//612 593//610 615//626
f 592//612 615//626 614//627
f 597//549 592//612 614//627
f 610//628 609//551 516//553
f 609//551 610//628 611//621
f 611//621 610//628 619//629
f 611//621 603//619 609//551
f 611//621 619//629 612//622
f 613//630 619//629 634//631
f 612//622 619//629 613//630
f 612//622 613//630 606//624
f 606//624 613//630 644//625
f 616//632 645//633 646//634
f 616//632 622//635 623//636
f 614//627 625//637 618//638
f 614//627 615//626 625//637
f 593//610 645//633 615//626
f 615//626 645//633 616//632
f 615//626 616//632 625//637
f 618//638 617//552 597//549
f 597//549 614//627 618//638
f 521//450 626//558 516//553
f 610//628 516//553 626//558
f 620//639 613//630 634//631
f 644//625 620//639 646//634
f 620//639 621//640 646//634
f 646//634 621//640 622//635
f 621//640 629//641 622//635
f 629//641 621//640 634//631
f 622//635 629//641 628//642
f 628//642 623//636 622//635
f 616//632 623//636 625//637
f 631//643 625//637 623//636
f 617//552 618//638 624//556
f 618//638 625//637 624//556
f 630//562 624//556 625//637
f 625//637 631//643 630//562
f 610//628 626//558 633//644
f 619//629 610//628 633//644
f 619//629 633//644 634//631
f 634//631 621//640 620//639
f 627//565 525//561 630//562
f 627//565 628//642 635//575
f 623//636 628//642 631//643
f 629//641 635//575 628//642
f 635//575 629//641 640//573
f 630//562 522//559 624//556
f 630//562 631//643 627//565
f 627//565 631//643 628//642
f 626//558 632//563 633//644
f 634//631 640//573 629//641
f 634//631 633//644 639//645
f 634//631 639//645 640//573
f 635//575 533//564 627//565
f 632//563 527//568 528//570
f 528//570 541//569 637//646
f 541//569 636//583 637//646
f 633//644 632//563 637//646
f 632//563 528//570 637//646
f 638//571 639//645 636//583
f 633//644 637//646 639//645
f 639//645 637//646 636//583
f 638//571 640//573 639//645
f 635//575 640//573 530//574
f 591//605 641//617 643//618
f 590//604 608//616 641//617
f 608//616 644//625 642//647
f 641//617 608//616 642//647
f 642//647 645//633 643//618
f 642//647 646//634 645//633
f 642//647 643//618 641//617
f 643//618 645//633 593//610
f 613//630 620//639 644//625
f 642//647 644//625 646//634
f 646//634 622//635 616//632
