# Blender 4.0.2
# www.blender.org
mtllib skull_left_lacrimal_bone.mtl
o skull_left_lacrimal_bone
v 0.085385 0.031011 -0.008877
v 0.085170 0.032741 -0.008223
v 0.084618 0.037481 -0.007488
v 0.084018 0.040181 -0.008932
v 0.082118 0.029011 -0.008410
v 0.083137 0.028711 -0.008759
v 0.082555 0.028161 -0.009058
v 0.081493 0.028151 -0.008999
v 0.081281 0.029681 -0.007992
v 0.083416 0.031481 -0.008299
v 0.083087 0.029661 -0.008441
v 0.081140 0.030101 -0.008339
v 0.082278 0.030571 -0.008500
v 0.082474 0.031211 -0.008670
v 0.082809 0.033341 -0.007921
v 0.082484 0.031841 -0.008640
v 0.082806 0.036171 -0.008018
v 0.082307 0.034881 -0.008063
v 0.081708 0.035551 -0.008241
v 0.081558 0.034281 -0.008510
v 0.081904 0.042841 -0.008429
v 0.081670 0.045831 -0.008976
v 0.081109 0.024381 -0.008383
v 0.080428 0.024001 -0.008361
v 0.079801 0.024361 -0.008649
v 0.080981 0.023611 -0.008881
v 0.079999 0.023491 -0.008952
v 0.080451 0.024681 -0.008388
v 0.079291 0.029111 -0.007320
v 0.079009 0.028421 -0.007693
v 0.080762 0.029101 -0.007802
v 0.080065 0.027841 -0.008671
v 0.080040 0.029731 -0.007745
v 0.080474 0.036071 -0.008509
v 0.079710 0.042921 -0.008013
v 0.079854 0.041811 -0.008293
v 0.079861 0.045711 -0.008805
v 0.078074 0.028781 -0.007443
v 0.077697 0.029051 -0.007555
v 0.077019 0.028761 -0.008220
v 0.077145 0.027701 -0.008462
v 0.076569 0.028811 -0.008763
v 0.076401 0.028211 -0.008844
v 0.078554 0.029701 -0.007347
v 0.077214 0.029661 -0.008052
v 0.077408 0.030851 -0.008590
v 0.078179 0.031141 -0.008770
v 0.077211 0.040841 -0.007763
v 0.078030 0.042071 -0.007433
v 0.077454 0.041411 -0.007422
v 0.077408 0.041851 -0.007388
v 0.077020 0.041381 -0.007559
v 0.078340 0.041571 -0.007687
v 0.076482 0.043361 -0.007864
v 0.077535 0.044531 -0.007840
v 0.076810 0.043721 -0.007706
v 0.076557 0.045591 -0.008219
v 0.078257 0.045821 -0.008500
v 0.077495 0.046081 -0.008799
v 0.076553 0.045931 -0.008800
v 0.076111 0.041341 -0.008269
v 0.075658 0.042881 -0.008798
v 0.076329 0.044971 -0.007815
v 0.075938 0.044611 -0.007851
v 0.075926 0.045261 -0.008074
v 0.075519 0.044631 -0.008230
v 0.075544 0.044981 -0.008202
v 0.075950 0.045621 -0.008494
v 0.075409 0.044551 -0.008565
v 0.075412 0.044981 -0.008501
v 0.075560 0.045281 -0.008495
v 0.075942 0.045681 -0.008809
v 0.075402 0.044881 -0.008844
v 0.075528 0.045271 -0.008810
v 0.085964 0.026031 -0.010534
v 0.086349 0.026021 -0.011166
v 0.086377 0.027651 -0.011228
v 0.085843 0.031161 -0.009124
v 0.086059 0.029551 -0.009497
v 0.085976 0.031411 -0.009751
v 0.086508 0.029571 -0.010075
v 0.085886 0.031891 -0.009193
v 0.086570 0.034761 -0.009403
v 0.086485 0.036151 -0.010668
v 0.085829 0.038141 -0.009445
v 0.085831 0.037721 -0.011136
v 0.083606 0.021311 -0.011435
v 0.084299 0.022401 -0.010915
v 0.084961 0.026911 -0.009772
v 0.085296 0.041111 -0.010533
v 0.084087 0.041361 -0.009355
v 0.084315 0.044541 -0.009444
v 0.084016 0.045831 -0.010006
v 0.083848 0.045861 -0.009691
v 0.084543 0.044731 -0.010339
v 0.084111 0.045471 -0.010888
v 0.083445 0.046451 -0.010006
v 0.083701 0.046231 -0.010566
v 0.081879 0.023961 -0.009398
v 0.081563 0.023281 -0.010054
v 0.083501 0.024391 -0.010084
v 0.082546 0.023301 -0.010346
v 0.081513 0.026551 -0.009123
v 0.082771 0.026021 -0.009515
v 0.082487 0.024791 -0.009493
v 0.081738 0.027501 -0.009272
v 0.081517 0.031191 -0.009379
v 0.081239 0.033591 -0.009064
v 0.081585 0.031811 -0.009495
v 0.081341 0.032661 -0.009373
v 0.082348 0.040041 -0.009095
v 0.083338 0.045491 -0.009234
v 0.083077 0.046431 -0.009643
v 0.082162 0.046701 -0.009693
v 0.082817 0.046811 -0.010007
v 0.083128 0.046731 -0.010325
v 0.082804 0.046861 -0.010313
v 0.082181 0.046811 -0.010311
v 0.083422 0.046391 -0.010887
v 0.082833 0.046671 -0.010871
v 0.082322 0.046421 -0.011151
v 0.079916 0.022801 -0.010547
v 0.080124 0.026271 -0.009096
v 0.079479 0.025691 -0.009273
v 0.079397 0.026321 -0.009337
v 0.080177 0.027011 -0.009120
v 0.080554 0.033931 -0.009698
v 0.080706 0.033041 -0.009999
v 0.080633 0.032551 -0.010058
v 0.080101 0.032301 -0.010226
v 0.079289 0.032641 -0.010827
v 0.078942 0.033281 -0.011334
v 0.080806 0.034211 -0.009099
v 0.079260 0.035621 -0.009144
v 0.079794 0.034111 -0.010848
v 0.080249 0.045971 -0.010741
v 0.081003 0.046361 -0.009382
v 0.080185 0.046281 -0.009336
v 0.080695 0.046401 -0.009714
v 0.077826 0.024151 -0.010298
v 0.077985 0.023011 -0.011178
v 0.077205 0.026931 -0.009308
v 0.076965 0.026121 -0.010047
v 0.076306 0.026131 -0.010577
v 0.078649 0.027001 -0.009172
v 0.076380 0.027511 -0.009185
v 0.078769 0.031591 -0.009728
v 0.076538 0.031211 -0.009738
v 0.077421 0.031871 -0.010233
v 0.078454 0.032651 -0.011127
v 0.078238 0.032981 -0.011390
v 0.078239 0.033311 -0.011439
v 0.076861 0.032661 -0.011204
v 0.076912 0.032991 -0.011368
v 0.076784 0.033421 -0.011327
v 0.076439 0.033021 -0.011254
v 0.078344 0.036291 -0.009868
v 0.078693 0.035641 -0.010280
v 0.077712 0.036241 -0.010337
v 0.078481 0.034511 -0.011225
v 0.078812 0.036921 -0.009504
v 0.078013 0.037441 -0.009704
v 0.076189 0.042431 -0.010612
v 0.077651 0.046151 -0.009168
v 0.076896 0.045921 -0.009421
v 0.077350 0.044921 -0.010477
v 0.076111 0.027911 -0.009426
v 0.076242 0.029081 -0.009384
v 0.075945 0.028731 -0.009905
v 0.075955 0.027621 -0.010302
v 0.075905 0.030591 -0.009925
v 0.075605 0.029781 -0.010251
v 0.075601 0.031461 -0.010379
v 0.075030 0.030781 -0.010709
v 0.075983 0.031821 -0.010438
v 0.075311 0.032121 -0.010592
v 0.075930 0.032661 -0.010878
v 0.075330 0.033231 -0.010803
v 0.074467 0.031681 -0.010865
v 0.074456 0.032961 -0.010737
v 0.074074 0.033951 -0.010903
v 0.073871 0.031921 -0.011300
v 0.073940 0.033671 -0.011309
v 0.074168 0.035651 -0.010460
v 0.074798 0.034161 -0.010695
v 0.075016 0.036381 -0.010293
v 0.074656 0.037271 -0.010098
v 0.075456 0.042431 -0.009968
v 0.075936 0.045541 -0.009150
v 0.075680 0.044841 -0.009442
v 0.073736 0.035981 -0.010898
v 0.073819 0.035261 -0.011233
v 0.086049 0.025711 -0.011620
v 0.085989 0.031841 -0.011537
v 0.085063 0.021971 -0.011726
v 0.084494 0.021011 -0.011839
v 0.084602 0.021111 -0.012411
v 0.083644 0.021691 -0.013361
v 0.085456 0.033351 -0.012310
v 0.085193 0.037791 -0.011881
v 0.083654 0.037891 -0.012443
v 0.084914 0.040991 -0.011696
v 0.083889 0.040821 -0.012286
v 0.082723 0.019821 -0.012995
v 0.082866 0.020001 -0.012638
v 0.081253 0.020621 -0.012547
v 0.083187 0.019911 -0.012953
v 0.081765 0.020091 -0.013007
v 0.081261 0.020171 -0.013015
v 0.083397 0.020351 -0.013281
v 0.082773 0.019941 -0.013309
v 0.081944 0.020081 -0.013311
v 0.081482 0.020091 -0.013309
v 0.081940 0.020391 -0.013639
v 0.081614 0.020261 -0.013603
v 0.083474 0.026581 -0.012863
v 0.082172 0.034961 -0.013018
v 0.083427 0.045651 -0.011495
v 0.082432 0.045291 -0.011649
v 0.079492 0.019611 -0.013664
v 0.079475 0.020031 -0.013242
v 0.080948 0.020031 -0.013343
v 0.080094 0.019781 -0.013621
v 0.081150 0.028011 -0.013715
v 0.080125 0.037961 -0.012641
v 0.077362 0.019271 -0.013895
v 0.076954 0.022581 -0.012185
v 0.077245 0.039991 -0.011745
v 0.074264 0.026461 -0.012563
v 0.073915 0.028171 -0.012300
v 0.074142 0.033451 -0.012155
v 0.075112 0.033571 -0.012859
v 0.074275 0.036531 -0.011716
v 0.073574 0.029121 -0.012680
v 0.073230 0.028311 -0.013260
v 0.072985 0.027561 -0.013258
v 0.073369 0.029031 -0.013443
v 0.072745 0.026941 -0.013572
v 0.072672 0.027611 -0.013603
v 0.082263 0.021201 -0.013920
v 0.082185 0.022081 -0.014006
v 0.081609 0.020681 -0.013970
v 0.081635 0.021311 -0.014261
v 0.081516 0.022571 -0.014540
v 0.079540 0.019341 -0.014262
v 0.081034 0.020161 -0.013924
v 0.080406 0.019801 -0.014235
v 0.080664 0.020061 -0.014851
v 0.080991 0.020751 -0.015027
v 0.080741 0.020191 -0.015802
v 0.080969 0.022391 -0.015724
v 0.080928 0.023251 -0.015634
v 0.080526 0.027711 -0.014614
v 0.079595 0.027471 -0.015304
v 0.080627 0.031031 -0.013932
v 0.079328 0.033181 -0.013811
v 0.078420 0.018411 -0.014780
v 0.077773 0.018131 -0.014728
v 0.077720 0.017891 -0.015108
v 0.077117 0.017941 -0.015077
v 0.076501 0.018431 -0.015028
v 0.078363 0.018211 -0.015467
v 0.077691 0.017931 -0.015445
v 0.077083 0.017851 -0.015425
v 0.078294 0.018421 -0.015993
v 0.078023 0.018751 -0.016160
v 0.077380 0.018531 -0.016021
v 0.076593 0.018101 -0.015973
v 0.076226 0.018241 -0.015624
v 0.076231 0.018171 -0.015994
v 0.075709 0.018681 -0.015933
v 0.074994 0.020981 -0.014237
v 0.075112 0.021971 -0.015461
v 0.075347 0.021221 -0.015930
v 0.074872 0.021021 -0.015691
v 0.075065 0.019871 -0.015943
v 0.074450 0.022891 -0.013896
v 0.074227 0.023591 -0.013852
v 0.074099 0.023531 -0.014210
v 0.074494 0.022391 -0.014571
v 0.074476 0.023621 -0.014930
v 0.074159 0.025371 -0.015696
v 0.074695 0.028801 -0.014453
v 0.073301 0.025231 -0.013876
v 0.073255 0.025171 -0.014516
v 0.073229 0.026111 -0.014984
v 0.073830 0.026461 -0.015462
v 0.073711 0.029271 -0.013833
v 0.072799 0.027921 -0.013902
v 0.072630 0.026901 -0.013934
v 0.072687 0.027211 -0.014205
v 0.072602 0.027561 -0.013910
v 0.073274 0.027901 -0.014399
v 0.072785 0.027551 -0.014231
v 0.079800 0.019061 -0.016376
v 0.080175 0.019511 -0.016875
v 0.079442 0.018941 -0.016823
v 0.079827 0.019601 -0.017288
v 0.079178 0.019611 -0.017181
v 0.080441 0.020691 -0.017421
v 0.080501 0.023931 -0.016176
v 0.079767 0.024441 -0.016478
v 0.080670 0.023091 -0.016589
v 0.080126 0.023671 -0.016769
v 0.079697 0.023731 -0.016972
v 0.080779 0.022381 -0.017377
v 0.080036 0.023211 -0.017430
v 0.079914 0.022121 -0.017931
v 0.077122 0.019441 -0.016359
v 0.076534 0.018951 -0.016494
v 0.077142 0.020081 -0.016515
v 0.076799 0.020671 -0.016601
v 0.076443 0.021011 -0.016446
v 0.076620 0.020041 -0.016586
v 0.077617 0.021521 -0.016935
v 0.077262 0.023401 -0.017207
v 0.076730 0.024651 -0.016882
v 0.076247 0.018601 -0.016434
v 0.075891 0.018661 -0.016349
v 0.075694 0.020411 -0.016545
v 0.075316 0.020391 -0.016405
v 0.075670 0.019741 -0.016635
v 0.084618 0.037481 -0.007488
v 0.084018 0.040181 -0.008932
v 0.083416 0.031481 -0.008299
v 0.082278 0.030571 -0.008500
v 0.080428 0.024001 -0.008361
v 0.079291 0.029111 -0.007320
v 0.080762 0.029101 -0.007802
v 0.086349 0.026021 -0.011166
v 0.085296 0.041111 -0.010533
v 0.085296 0.041111 -0.010533
v 0.084087 0.041361 -0.009355
v 0.084315 0.044541 -0.009444
v 0.082162 0.046701 -0.009693
v 0.081003 0.046361 -0.009382
v 0.074074 0.033951 -0.010903
v 0.074074 0.033951 -0.010903
v 0.074168 0.035651 -0.010460
v 0.073736 0.035981 -0.010898
v 0.073736 0.035981 -0.010898
v 0.073819 0.035261 -0.011233
v 0.085063 0.021971 -0.011726
v 0.084494 0.021011 -0.011839
v 0.082723 0.019821 -0.012995
v 0.083187 0.019911 -0.012953
v 0.081765 0.020091 -0.013007
v 0.081482 0.020091 -0.013309
v 0.080948 0.020031 -0.013343
v 0.072672 0.027611 -0.013603
v 0.078294 0.018421 -0.015993
v 0.076231 0.018171 -0.015994
v 0.075112 0.021971 -0.015461
v 0.074872 0.021021 -0.015691
v 0.074099 0.023531 -0.014210
v 0.074494 0.022391 -0.014571
v 0.074494 0.022391 -0.014571
v 0.072602 0.027561 -0.013910
v 0.079442 0.018941 -0.016823
v 0.079827 0.019601 -0.017288
v 0.080441 0.020691 -0.017421
v 0.080779 0.022381 -0.017377
v 0.080779 0.022381 -0.017377
v 0.075891 0.018661 -0.016349
v 0.075316 0.020391 -0.016405
v 0.075670 0.019741 -0.016635
vn 0.7901 -0.0450 0.6113
vn 0.9253 -0.0688 0.3730
vn 0.4344 -0.1666 0.8852
vn 0.3817 -0.2209 0.8975
vn 0.9438 -0.0274 0.3294
vn 0.1302 -0.1692 0.9769
vn 0.2142 -0.1463 0.9658
vn -0.2774 -0.1851 0.9428
vn -0.2594 0.1534 0.9535
vn -0.0396 0.0678 0.9969
vn -0.3349 0.1507 0.9301
vn 0.8901 0.2973 0.3454
vn 0.7460 0.2445 0.6195
vn -0.1220 0.3955 0.9103
vn 0.5724 0.3181 0.7558
vn 0.3209 -0.7511 0.5770
vn 0.5604 -0.5296 0.6368
vn 0.3709 -0.1473 0.9169
vn 0.5546 -0.2479 0.7943
vn 0.2174 -0.7733 0.5956
vn -0.1313 -0.8251 0.5496
vn 0.3153 -0.0539 0.9475
vn 0.1877 0.1830 0.9650
vn 0.2880 -0.5956 0.7499
vn 0.1198 -0.6297 0.7676
vn 0.2452 -0.5200 0.8182
vn 0.0601 -0.4782 0.8762
vn 0.1535 -0.3983 0.9043
vn 0.1867 -0.5157 0.8362
vn 0.1752 0.3519 0.9195
vn 0.2975 0.0462 0.9536
vn 0.2399 0.3127 0.9190
vn -0.4234 -0.0929 0.9012
vn -0.5171 0.2044 0.8312
vn -0.3628 0.5345 0.7633
vn 0.0555 0.1137 0.9920
vn 0.0024 0.6837 0.7298
vn -0.5552 -0.1703 0.8141
vn -0.5704 -0.0091 0.8213
vn -0.3388 -0.0285 0.9404
vn -0.4891 -0.2576 0.8333
vn -0.6419 -0.3355 0.6895
vn -0.6630 -0.2625 0.7010
vn -0.2675 0.0187 0.9634
vn -0.3261 0.0515 0.9439
vn -0.5858 -0.5075 0.6319
vn 0.1559 0.4460 0.8814
vn 0.2356 -0.0324 0.9713
vn 0.1079 0.4123 0.9046
vn -0.2682 -0.7320 0.6263
vn 0.1936 -0.6749 0.7121
vn -0.1810 0.2166 0.9593
vn -0.3474 -0.1154 0.9306
vn -0.5587 -0.0457 0.8281
vn -0.3771 -0.6811 0.6277
vn -0.2210 0.1798 0.9586
vn -0.5117 0.1401 0.8476
vn 0.1185 -0.4168 0.9012
vn -0.2059 -0.3404 0.9175
vn -0.0793 0.3891 0.9178
vn 0.2252 -0.5914 0.7743
vn -0.0553 -0.5779 0.8142
vn 0.0194 -0.2123 0.9770
vn 0.1820 0.5509 0.8145
vn 0.0108 0.8064 0.5912
vn 0.0070 0.8002 0.5996
vn -0.3894 0.0399 0.9202
vn -0.6270 -0.3382 0.7018
vn 0.3566 -0.3403 0.8701
vn 0.2559 -0.2736 0.9272
vn 0.2540 0.0534 0.9657
vn 0.1475 0.2527 0.9562
vn 0.1188 0.6129 0.7812
vn -0.0062 0.8664 0.4994
vn -0.5042 -0.0101 0.8635
vn -0.3373 -0.5634 0.7542
vn -0.6936 -0.0844 0.7154
vn -0.1724 -0.6737 0.7187
vn -0.7717 -0.0922 0.6292
vn -0.8078 0.1491 0.5703
vn -0.6377 0.2470 0.7296
vn -0.6813 -0.4554 0.5731
vn -0.3849 0.6321 0.6726
vn -0.1110 0.7907 0.6020
vn -0.0121 -0.4669 0.8842
vn 0.0398 -0.3463 0.9373
vn -0.4199 -0.1938 0.8867
vn -0.3872 -0.1969 0.9007
vn -0.1219 -0.3257 0.9376
vn 0.2235 -0.0184 0.9745
vn -0.1534 0.0148 0.9880
vn -0.1578 0.0458 0.9864
vn -0.5441 -0.1009 0.8330
vn -0.0900 0.3212 0.9427
vn -0.0798 0.7078 0.7019
vn -0.0642 0.9153 0.3976
vn -0.2670 0.9517 0.1515
vn -0.4438 0.8048 0.3942
vn -0.1279 0.9875 -0.0925
vn -0.3311 0.8156 -0.4745
vn -0.1893 0.9819 -0.0106
vn -0.6870 -0.0578 0.7243
vn -0.8800 -0.0770 0.4687
vn -0.4564 -0.0100 0.8897
vn -0.8179 -0.1193 0.5629
vn -0.7419 0.2647 0.6160
vn -0.3910 0.5430 0.7432
vn -0.7519 0.5928 0.2886
vn -0.9782 -0.0840 0.1897
vn -0.9573 0.2116 0.1972
vn -0.5397 0.8391 -0.0679
vn -0.8968 0.2370 -0.3735
vn -0.9648 0.1745 -0.1967
vn -0.8307 0.5223 -0.1927
vn -0.5647 0.6519 -0.5061
vn 0.6450 -0.2844 0.7093
vn 0.9722 0.0060 0.2342
vn 0.6029 -0.1716 0.7791
vn 0.8807 -0.0798 -0.4669
vn 0.9252 -0.0012 -0.3794
vn 0.8216 -0.2650 0.5047
vn 0.5784 -0.3807 0.7214
vn 0.7272 -0.0847 -0.6812
vn 0.3082 -0.2734 0.9112
vn 0.9783 0.1609 0.1309
vn 0.9511 0.0255 -0.3079
vn 0.9533 0.1502 -0.2620
vn 0.8950 0.1991 -0.3991
vn 0.2961 -0.3002 0.9067
vn 0.3289 -0.3990 0.8559
vn 0.5375 0.0512 0.8417
vn 0.9375 0.2013 -0.2840
vn 0.7395 0.1825 -0.6480
vn 0.7043 0.2086 0.6786
vn 0.4278 0.0995 0.8984
vn 0.9572 0.2876 -0.0316
vn 0.9178 0.2602 0.3000
vn 0.9431 0.1812 0.2787
vn 0.3276 0.3026 0.8950
vn 0.6361 0.4969 0.5903
vn 0.3302 0.6300 0.7029
vn 0.8403 0.5154 0.1681
vn 0.6040 0.7409 0.2936
vn 0.8143 0.4007 -0.4199
vn 0.7464 0.6484 -0.1498
vn 0.5237 0.7005 -0.4848
vn 0.3704 0.3865 -0.8447
vn 0.1857 -0.5400 0.8209
vn -0.1425 -0.6705 0.7281
vn 0.0010 -0.5827 0.8127
vn 0.1412 -0.1818 0.9731
vn -0.3090 0.4817 0.8201
vn -0.2662 0.5044 0.8214
vn -0.7251 -0.4683 0.5049
vn -0.5532 0.1020 0.8268
vn -0.1196 0.3412 0.9323
vn 0.0199 0.6401 0.7680
vn 0.1155 0.6323 0.7660
vn -0.1573 0.9709 0.1805
vn -0.1617 0.9507 0.2645
vn 0.2080 0.9094 0.3603
vn -0.1911 0.9713 -0.1416
vn 0.4861 0.8732 -0.0349
vn 0.1375 0.9874 -0.0777
vn 0.1393 0.8315 -0.5377
vn -0.1316 0.6616 -0.7382
vn -0.2632 0.7656 -0.5870
vn -0.3585 0.4183 -0.8346
vn -0.0763 0.2771 -0.9578
vn -0.5595 -0.3711 0.7411
vn -0.2567 -0.1480 0.9551
vn -0.7399 -0.1382 0.6583
vn -0.3137 0.5821 0.7502
vn -0.6183 -0.3306 0.7130
vn -0.1619 0.6530 0.7398
vn -0.3358 0.1422 0.9311
vn -0.0955 0.3800 0.9200
vn -0.0450 -0.0200 0.9988
vn -0.1726 -0.3651 0.9148
vn -0.5523 -0.6130 0.5650
vn -0.5728 -0.3780 0.7274
vn -0.4059 -0.4695 0.7841
vn -0.6695 -0.4029 0.6240
vn -0.8523 -0.2162 0.4763
vn -0.6359 -0.2890 0.7156
vn -0.8463 0.0494 0.5305
vn -0.7626 -0.0716 0.6429
vn -0.4267 0.5944 0.6817
vn -0.6763 0.1742 0.7157
vn -0.1128 0.5365 0.8363
vn 0.0907 0.5739 0.8139
vn 0.3037 0.2045 0.9306
vn 0.2892 0.3599 0.8870
vn 0.1279 0.2016 0.9711
vn 0.1646 -0.1368 0.9768
vn -0.2057 -0.4816 0.8519
vn -0.0012 -0.2605 0.9655
vn -0.5074 0.2690 -0.8186
vn -0.2531 0.2427 -0.9365
vn -0.9140 -0.1762 0.3655
vn -0.9044 -0.0710 0.4207
vn -0.7189 -0.1519 0.6783
vn -0.6034 -0.0947 0.7918
vn -0.4120 0.2278 0.8822
vn -0.5082 -0.1183 0.8531
vn -0.8495 -0.0631 0.5237
vn -0.9199 -0.0378 0.3904
vn -0.9362 0.3409 -0.0852
vn -0.1182 0.1874 0.9751
vn 0.2473 0.1236 0.9610
vn 0.0218 -0.1238 0.9921
vn -0.3211 -0.0266 0.9467
vn -0.3195 -0.0842 0.9438
vn -0.9438 -0.0604 0.3250
vn -0.9978 0.0208 0.0624
vn -0.0622 -0.1923 0.9794
vn -0.7298 -0.0506 0.6818
vn -0.7040 -0.0345 0.7093
vn -0.7523 -0.1269 0.6464
vn -0.8846 0.1948 -0.4237
vn -0.6631 0.2563 -0.7033
vn -0.7062 0.3342 -0.6242
vn -0.9781 -0.1556 0.1381
vn -0.9805 -0.1635 0.1085
vn -0.8757 0.0936 -0.4737
vn -0.8077 0.2100 -0.5510
vn 0.5662 0.0342 -0.8236
vn 0.5805 0.0967 -0.8085
vn 0.2561 -0.5987 0.7589
vn -0.0263 -0.7975 0.6028
vn 0.9207 -0.2828 -0.2689
vn 0.8097 -0.4541 -0.3717
vn 0.7694 -0.6379 0.0337
vn 0.5078 -0.7362 -0.4474
vn 0.2171 -0.8576 0.4662
vn 0.5289 -0.0452 -0.8475
vn 0.5414 -0.4272 -0.7241
vn 0.4012 0.0517 -0.9145
vn 0.1914 0.1184 -0.9743
vn 0.2077 0.0775 -0.9751
vn 0.2522 0.1225 -0.9599
vn -0.1197 -0.8577 0.4999
vn -0.1952 -0.7436 0.6395
vn -0.0447 -0.8562 0.5148
vn -0.0319 -0.6243 0.7806
vn 0.1500 -0.7317 -0.6649
vn 0.0036 -0.9451 -0.3269
vn -0.0995 -0.9103 -0.4017
vn -0.1409 -0.9900 0.0037
vn -0.0465 -0.9839 0.1726
vn 0.0409 -0.9187 0.3929
vn 0.3813 -0.2145 -0.8992
vn 0.1774 -0.5758 -0.7981
vn 0.1455 -0.9155 -0.3750
vn 0.2583 -0.7607 -0.5956
vn 0.2713 -0.9564 -0.1085
vn 0.5306 -0.7955 -0.2928
vn 0.5012 0.0146 -0.8652
vn 0.5272 -0.5185 -0.6732
vn 0.6133 0.1036 -0.7830
vn -0.0424 0.1904 -0.9808
vn 0.5022 -0.8633 0.0502
vn 0.2125 -0.8830 0.4186
vn 0.4648 -0.8398 0.2805
vn 0.4759 -0.8019 0.3612
vn 0.1725 -0.7782 0.6038
vn -0.4497 -0.4865 0.7491
vn 0.4091 0.1357 -0.9024
vn 0.0066 0.2339 -0.9722
vn -0.2519 -0.5387 0.8040
vn -0.7528 -0.4077 0.5167
vn -0.3795 0.2748 -0.8834
vn -0.7950 -0.3375 0.5040
vn -0.7835 -0.3342 0.5239
vn -0.5899 0.3960 -0.7036
vn -0.2225 0.3926 -0.8924
vn -0.8097 -0.3892 0.4391
vn -0.8009 -0.2155 0.5586
vn -0.9796 -0.2010 -0.0029
vn -0.6950 0.0074 0.7189
vn -0.7995 0.2200 0.5590
vn -0.8436 0.0403 0.5354
vn -0.8192 0.4995 -0.2817
vn -0.8841 0.4569 0.0982
vn -0.9699 0.1554 -0.1875
vn -0.8719 0.4744 0.1215
vn 0.6568 -0.1852 -0.7310
vn 0.8009 0.0323 -0.5980
vn 0.9022 -0.2964 -0.3134
vn 0.9602 -0.0030 -0.2793
vn 0.9125 0.1456 -0.3823
vn 0.6128 -0.7887 -0.0490
vn 0.7886 -0.6095 -0.0810
vn 0.9116 -0.3935 -0.1192
vn 0.4571 -0.8867 -0.0696
vn 0.7531 0.3317 -0.5681
vn 0.6720 0.2093 -0.7103
vn 0.3651 0.4374 -0.8218
vn 0.2608 0.3358 -0.9051
vn -0.5357 -0.5975 0.5966
vn 0.0885 -0.7592 0.6448
vn -0.2832 -0.8174 0.5017
vn 0.2180 -0.9499 0.2240
vn 0.2085 -0.8963 -0.3913
vn -0.1424 -0.9871 -0.0732
vn -0.6060 -0.7328 0.3095
vn 0.1978 -0.9012 -0.3857
vn 0.1305 -0.5065 -0.8523
vn -0.1535 -0.6088 -0.7784
vn 0.0333 -0.8048 -0.5927
vn -0.1801 -0.4437 -0.8779
vn -0.1488 -0.7638 -0.6281
vn -0.6145 -0.7868 0.0576
vn -0.0364 -0.4819 -0.8755
vn 0.2088 -0.2243 -0.9519
vn -0.5594 0.2451 -0.7918
vn -0.4023 -0.1530 -0.9027
vn -0.3302 0.2755 -0.9028
vn -0.7313 -0.2936 -0.6156
vn -0.8104 -0.5851 0.0287
vn -0.9231 -0.3216 -0.2108
vn -0.7640 -0.5280 -0.3710
vn -0.9398 -0.3054 0.1534
vn -0.9637 -0.1082 -0.2441
vn -0.8447 -0.1613 -0.5104
vn -0.8513 -0.1584 -0.5002
vn -0.5748 0.3694 -0.7302
vn -0.6952 0.3302 -0.6385
vn -0.4178 0.4223 -0.8044
vn -0.3786 0.3673 -0.8495
vn -0.8640 -0.3922 0.3157
vn -0.8178 -0.3323 -0.4698
vn -0.8796 -0.3903 -0.2719
vn -0.5820 -0.1709 -0.7950
vn -0.1683 0.2932 -0.9411
vn -0.4439 0.2514 -0.8601
vn -0.4865 0.4562 -0.7451
vn -0.7839 -0.0888 -0.6146
vn -0.8679 0.0367 -0.4953
vn -0.7017 0.3434 -0.6242
vn 0.4809 -0.8346 -0.2688
vn 0.7352 -0.5810 -0.3492
vn -0.2500 -0.5389 -0.8044
vn -0.3012 -0.3608 -0.8827
vn 0.5724 -0.5554 -0.6033
vn -0.0971 -0.3368 -0.9366
vn 0.9887 -0.0057 -0.1495
vn 0.9149 -0.2658 -0.3039
vn 0.3109 -0.2156 -0.9257
vn 0.1258 0.0392 -0.9913
vn -0.4012 -0.0539 -0.9144
vn 0.8586 0.3791 -0.3450
vn 0.5744 0.5468 -0.6092
vn 0.2786 0.6476 -0.7092
vn 0.6852 0.5857 -0.4330
vn 0.3815 0.5531 -0.7406
vn 0.5071 0.1289 -0.8522
vn 0.1731 -0.2190 -0.9602
vn 0.0341 -0.2205 -0.9748
vn 0.0930 -0.0663 -0.9935
vn -0.1596 -0.0262 -0.9868
vn -0.2784 -0.4503 -0.8483
vn -0.7497 -0.2682 -0.6050
vn -0.0507 -0.0003 -0.9987
vn -0.2228 0.2775 -0.9345
vn -0.8163 -0.1099 -0.5671
s 1
usemtl mtl1.156
f 78//1 82//2 2//3
f 1//4 78//1 2//3
f 2//3 82//2 83//5
f 1//4 2//3 10//6
f 11//7 1//4 10//6
f 15//8 2//3 3//9
f 10//6 2//3 15//8
f 3//9 111//10 17//11
f 83//5 85//12 323//13
f 2//3 83//5 323//13
f 3//9 4//14 111//10
f 324//15 323//13 85//12
f 26//16 99//17 23//18
f 99//17 105//19 23//18
f 100//20 26//16 122//21
f 100//20 99//17 26//16
f 23//18 104//22 103//23
f 105//19 104//22 23//18
f 31//24 30//25 5//26
f 31//24 5//26 11//7
f 5//26 7//27 6//28
f 5//26 6//28 11//7
f 8//29 5//26 30//25
f 5//26 8//29 7//27
f 11//7 9//30 329//31
f 329//31 9//30 29//32
f 325//33 14//34 13//35
f 10//6 326//36 11//7
f 13//35 12//37 9//30
f 326//36 9//30 11//7
f 16//38 14//34 325//33
f 16//38 109//39 14//34
f 15//8 3//9 18//40
f 15//8 16//38 325//33
f 15//8 18//40 20//41
f 108//42 15//8 20//41
f 15//8 110//43 16//38
f 3//9 17//11 18//40
f 17//11 19//44 18//40
f 111//10 19//44 17//11
f 19//44 20//41 18//40
f 111//10 34//45 19//44
f 20//41 133//46 108//42
f 37//47 21//48 22//49
f 27//50 26//16 24//51
f 26//16 23//18 24//51
f 23//18 28//52 327//53
f 327//53 28//52 25//54
f 327//53 25//54 27//50
f 122//21 26//16 27//50
f 141//55 122//21 27//50
f 23//18 103//23 28//52
f 103//23 123//56 28//52
f 123//56 25//54 28//52
f 25//54 123//56 124//57
f 30//25 328//58 38//59
f 328//58 44//60 38//59
f 30//25 31//24 328//58
f 32//61 8//29 30//25
f 32//61 30//25 145//62
f 32//61 126//63 8//29
f 126//63 32//61 145//62
f 33//64 47//65 44//60
f 29//32 33//64 44//60
f 9//30 33//64 29//32
f 33//64 9//30 12//37
f 147//66 47//65 12//37
f 111//10 161//67 34//45
f 34//45 20//41 19//44
f 20//41 34//45 134//68
f 133//46 20//41 134//68
f 34//45 161//67 134//68
f 53//69 36//70 35//71
f 21//48 35//71 36//70
f 21//48 37//47 35//71
f 55//72 37//47 58//73
f 37//47 138//74 58//73
f 39//75 38//59 44//60
f 30//25 38//59 41//76
f 41//76 38//59 39//75
f 41//76 39//75 40//77
f 142//78 145//62 30//25
f 30//25 41//76 142//78
f 40//77 43//79 41//76
f 42//80 40//77 45//81
f 43//79 40//77 42//80
f 146//82 41//76 43//79
f 39//75 44//60 45//81
f 40//77 39//75 45//81
f 45//81 44//60 46//83
f 44//60 47//65 46//83
f 149//84 46//83 47//65
f 48//85 53//69 50//86
f 48//85 50//86 52//87
f 48//85 52//87 187//88
f 162//89 53//69 48//85
f 48//85 187//88 162//89
f 36//70 53//69 162//89
f 53//69 35//71 49//90
f 35//71 55//72 49//90
f 49//90 55//72 51//91
f 53//69 49//90 50//86
f 49//90 51//91 50//86
f 50//86 51//91 52//87
f 51//91 55//72 56//92
f 56//92 52//87 51//91
f 52//87 56//92 54//93
f 58//73 63//94 55//72
f 55//72 63//94 56//92
f 58//73 57//95 63//94
f 37//47 55//72 35//71
f 58//73 59//96 57//95
f 138//74 59//96 58//73
f 60//97 57//95 59//96
f 60//97 68//98 57//95
f 59//96 138//74 164//99
f 164//99 60//97 59//96
f 164//99 165//100 60//97
f 138//74 139//101 164//99
f 187//88 52//87 61//102
f 187//88 61//102 62//103
f 52//87 54//93 61//102
f 61//102 54//93 62//103
f 56//92 63//94 64//104
f 62//103 64//104 66//105
f 66//105 64//104 67//106
f 64//104 54//93 56//92
f 64//104 62//103 54//93
f 64//104 63//94 65//107
f 63//94 57//95 65//107
f 67//106 64//104 65//107
f 65//107 57//95 68//98
f 65//107 68//98 71//108
f 62//103 66//105 69//109
f 69//109 66//105 70//110
f 66//105 67//106 70//110
f 67//106 65//107 71//108
f 67//106 71//108 70//110
f 60//97 72//111 68//98
f 72//111 71//108 68//98
f 62//103 69//109 188//112
f 188//112 69//109 73//113
f 69//109 70//110 73//113
f 73//113 70//110 74//114
f 70//110 71//108 74//114
f 72//111 74//114 71//108
f 165//100 72//111 60//97
f 165//100 189//115 72//111
f 189//115 74//114 72//111
f 75//116 81//117 79//118
f 76//119 77//120 81//117
f 81//117 75//116 330//121
f 75//116 195//122 330//121
f 76//119 193//123 77//120
f 78//1 79//118 81//117
f 11//7 89//124 1//4
f 1//4 79//118 78//1
f 78//1 81//117 80//125
f 78//1 80//125 82//2
f 1//4 89//124 79//118
f 77//120 194//126 81//117
f 194//126 83//5 82//2
f 80//125 194//126 82//2
f 85//12 83//5 84//127
f 194//126 84//127 83//5
f 84//127 86//128 85//12
f 101//129 88//130 75//116
f 88//130 195//122 75//116
f 75//116 89//124 101//129
f 89//124 75//116 79//118
f 6//28 89//124 11//7
f 81//117 194//126 80//125
f 85//12 91//131 324//15
f 86//128 90//132 85//12
f 86//128 202//133 90//132
f 91//131 331//134 92//135
f 85//12 331//134 91//131
f 95//136 334//137 332//138
f 90//132 202//133 95//136
f 91//131 92//135 21//48
f 92//135 112//139 21//48
f 112//139 94//140 113//141
f 92//135 94//140 112//139
f 334//137 95//136 93//142
f 93//142 94//140 334//137
f 93//142 97//143 94//140
f 202//133 96//144 95//136
f 96//144 93//142 95//136
f 96//144 98//145 93//142
f 96//144 119//146 98//145
f 94//140 97//143 113//141
f 97//143 93//142 98//145
f 119//146 96//144 218//147
f 102//148 206//149 87//150
f 102//148 101//129 105//19
f 99//17 102//148 105//19
f 102//148 99//17 100//20
f 88//130 101//129 102//148
f 88//130 102//148 87//150
f 100//20 206//149 102//148
f 104//22 106//151 103//23
f 105//19 101//129 104//22
f 104//22 101//129 89//124
f 6//28 7//27 89//124
f 7//27 106//151 89//124
f 89//124 106//151 104//22
f 8//29 106//151 7//27
f 8//29 126//63 106//151
f 13//35 14//34 107//152
f 109//39 107//152 14//34
f 107//152 109//39 130//153
f 110//43 109//39 16//38
f 110//43 108//42 127//154
f 110//43 15//8 108//42
f 129//155 130//153 109//39
f 110//43 129//155 109//39
f 4//14 333//156 111//10
f 112//139 22//49 21//48
f 112//139 113//141 22//49
f 37//47 137//157 138//74
f 22//49 114//158 137//157
f 335//159 139//101 336//160
f 137//157 37//47 22//49
f 115//161 114//158 113//141
f 113//141 114//158 22//49
f 115//161 113//141 97//143
f 115//161 118//162 335//159
f 335//159 118//162 139//101
f 98//145 116//163 97//143
f 116//163 115//161 97//143
f 115//161 116//163 117//164
f 117//164 118//162 115//161
f 98//145 119//146 116//163
f 116//163 120//165 117//164
f 116//163 119//146 120//165
f 117//164 120//165 118//162
f 120//165 121//166 118//162
f 121//166 136//167 118//162
f 119//146 218//147 120//165
f 218//147 121//166 120//165
f 166//168 136//167 121//166
f 219//169 166//168 121//166
f 218//147 219//169 121//166
f 140//170 27//50 25//54
f 122//21 141//55 206//149
f 122//21 206//149 100//20
f 106//151 126//63 103//23
f 103//23 126//63 123//56
f 124//57 123//56 125//171
f 123//56 126//63 125//171
f 126//63 145//62 125//171
f 124//57 140//170 25//54
f 125//171 140//170 124//57
f 12//37 13//35 107//152
f 47//65 33//64 12//37
f 130//153 147//66 107//152
f 12//37 107//152 147//66
f 127//154 108//42 133//46
f 129//155 110//43 128//172
f 128//172 110//43 127//154
f 130//153 131//173 147//66
f 127//154 135//174 128//172
f 130//153 129//155 131//173
f 149//84 147//66 150//175
f 147//66 131//173 150//175
f 129//155 128//172 135//174
f 132//176 150//175 131//173
f 131//173 129//155 132//176
f 132//176 151//177 150//175
f 129//155 135//174 132//176
f 132//176 152//178 151//177
f 132//176 160//179 152//178
f 134//68 127//154 133//46
f 134//68 158//180 127//154
f 158//180 134//68 157//181
f 127//154 158//180 135//174
f 160//179 135//174 158//180
f 135//174 160//179 132//176
f 111//10 162//89 161//67
f 21//48 36//70 91//131
f 139//101 138//74 336//160
f 118//162 136//167 139//101
f 141//55 27//50 140//170
f 125//171 145//62 143//182
f 145//62 142//78 143//182
f 143//182 142//78 146//82
f 143//182 140//170 125//171
f 140//170 143//182 144//183
f 143//182 146//82 144//183
f 144//183 146//82 170//184
f 170//184 229//185 144//183
f 144//183 229//185 140//170
f 42//80 45//81 168//186
f 142//78 41//76 146//82
f 172//187 168//186 45//81
f 148//188 46//83 149//84
f 46//83 148//188 171//189
f 172//187 45//81 171//189
f 45//81 46//83 171//189
f 148//188 149//84 175//190
f 47//65 147//66 149//84
f 149//84 150//175 153//191
f 149//84 153//191 175//190
f 153//191 156//192 177//193
f 150//175 151//177 153//191
f 151//177 154//194 153//191
f 151//177 152//178 154//194
f 152//178 155//195 154//194
f 152//178 160//179 155//195
f 153//191 154//194 156//192
f 154//194 155//195 156//192
f 157//181 134//68 161//67
f 162//89 157//181 161//67
f 159//196 157//181 162//89
f 159//196 162//89 186//197
f 159//196 186//197 160//179
f 158//180 159//196 160//179
f 157//181 159//196 158//180
f 111//10 36//70 162//89
f 111//10 91//131 36//70
f 136//167 164//99 139//101
f 166//168 165//100 136//167
f 136//167 165//100 164//99
f 163//198 166//168 228//199
f 146//82 43//79 167//200
f 167//200 43//79 169//201
f 42//80 168//186 43//79
f 43//79 168//186 169//201
f 170//184 146//82 167//200
f 169//201 168//186 172//187
f 167//200 169//201 170//184
f 170//184 169//201 172//187
f 229//185 170//184 172//187
f 230//202 172//187 174//203
f 229//185 172//187 230//202
f 171//189 148//188 173//204
f 148//188 175//190 173//204
f 172//187 171//189 174//203
f 171//189 173//204 174//203
f 173//204 179//205 174//203
f 174//203 179//205 230//202
f 230//202 179//205 182//206
f 234//207 230//202 182//206
f 182//206 237//208 234//207
f 175//190 176//209 173//204
f 173//204 176//209 179//205
f 175//190 177//193 176//209
f 175//190 153//191 177//193
f 177//193 178//210 176//209
f 177//193 156//192 178//210
f 178//210 156//192 185//211
f 178//210 180//212 176//209
f 178//210 185//211 180//212
f 179//205 176//209 180//212
f 179//205 180//212 182//206
f 182//206 180//212 181//213
f 180//212 185//211 181//213
f 155//195 185//211 156//192
f 182//206 337//214 183//215
f 183//215 237//208 182//206
f 185//211 186//197 184//216
f 186//197 187//88 184//216
f 339//217 187//88 191//218
f 160//179 186//197 155//195
f 155//195 186//197 185//211
f 184//216 181//213 185//211
f 191//218 338//219 339//217
f 187//88 186//197 162//89
f 191//218 187//88 62//103
f 340//220 62//103 188//112
f 188//112 233//221 340//220
f 188//112 163//198 233//221
f 233//221 163//198 228//199
f 188//112 190//222 163//198
f 190//222 189//115 166//168
f 166//168 189//115 165//100
f 190//222 74//114 189//115
f 73//113 190//222 188//112
f 74//114 190//222 73//113
f 190//222 166//168 163//198
f 192//223 183//215 337//214
f 337//214 341//224 192//223
f 342//225 340//220 233//221
f 231//226 183//215 342//225
f 233//221 231//226 342//225
f 77//120 199//227 194//126
f 194//126 199//227 84//127
f 199//227 200//228 84//127
f 200//228 86//128 84//127
f 196//229 195//122 88//130
f 196//229 88//130 87//150
f 196//229 87//150 205//230
f 343//231 197//232 193//123
f 343//231 344//233 197//232
f 197//232 344//233 207//234
f 346//235 196//229 205//230
f 197//232 198//236 193//123
f 207//234 210//237 197//232
f 198//236 197//232 210//237
f 343//231 193//123 76//119
f 193//123 198//236 216//238
f 77//120 193//123 199//227
f 199//227 193//123 216//238
f 199//227 216//238 217//239
f 199//227 201//240 200//228
f 201//240 199//227 217//239
f 201//240 203//241 200//228
f 202//133 86//128 200//228
f 202//133 200//228 203//241
f 96//144 202//133 218//147
f 218//147 202//133 203//241
f 87//150 206//149 205//230
f 204//242 346//235 205//230
f 205//230 206//149 204//242
f 204//242 206//149 208//243
f 206//149 209//244 208//243
f 221//245 209//244 206//149
f 211//246 207//234 345//247
f 211//246 210//237 207//234
f 211//246 345//247 212//248
f 212//248 345//247 347//249
f 347//249 213//250 212//248
f 213//250 209//244 222//251
f 213//250 347//249 209//244
f 198//236 210//237 240//252
f 211//246 240//252 210//237
f 214//253 240//252 211//246
f 212//248 214//253 211//246
f 348//254 215//255 212//248
f 349//256 246//257 348//254
f 246//257 215//255 348//254
f 198//236 240//252 241//258
f 240//252 214//253 242//259
f 215//255 214//253 212//248
f 242//259 214//253 215//255
f 242//259 215//255 246//257
f 241//258 224//260 198//236
f 216//238 198//236 224//260
f 216//238 224//260 217//239
f 201//240 217//239 225//261
f 201//240 225//261 203//241
f 203//241 225//261 219//169
f 218//147 203//241 219//169
f 247//262 223//263 245//264
f 257//265 245//264 220//266
f 245//264 223//263 220//266
f 220//266 221//245 257//265
f 206//149 227//267 221//245
f 209//244 221//245 222//251
f 222//251 221//245 223//263
f 221//245 220//266 223//263
f 349//256 247//262 246//257
f 247//262 349//256 223//263
f 217//239 224//260 255//268
f 255//268 256//269 217//239
f 225//261 217//239 256//269
f 228//199 166//168 219//169
f 219//169 225//261 228//199
f 221//245 227//267 226//270
f 227//267 272//271 226//270
f 141//55 227//267 206//149
f 141//55 140//170 227//267
f 229//185 227//267 140//170
f 228//199 256//269 232//272
f 228//199 225//261 256//269
f 272//271 227//267 229//185
f 277//273 272//271 229//185
f 277//273 229//185 278//274
f 288//275 231//226 232//272
f 288//275 232//272 283//276
f 231//226 233//221 232//272
f 228//199 232//272 233//221
f 278//274 229//185 284//277
f 238//278 284//277 229//185
f 284//277 238//278 290//279
f 229//185 230//202 236//280
f 236//280 230//202 235//281
f 235//281 230//202 234//207
f 238//278 229//185 236//280
f 235//281 234//207 237//208
f 235//281 237//208 239//282
f 238//278 236//280 239//282
f 236//280 235//281 239//282
f 238//278 239//282 290//279
f 237//208 288//275 289//283
f 289//283 350//284 237//208
f 239//282 292//285 290//279
f 350//284 289//283 358//286
f 231//226 237//208 183//215
f 231//226 288//275 237//208
f 240//252 243//287 241//258
f 241//258 243//287 244//288
f 240//252 242//259 243//287
f 243//287 242//259 249//289
f 246//257 249//289 242//259
f 249//289 244//288 243//287
f 249//289 251//290 244//288
f 244//288 251//290 252//291
f 224//260 241//258 244//288
f 252//291 224//260 244//288
f 247//262 245//264 295//292
f 295//292 245//264 257//265
f 248//293 247//262 295//292
f 250//294 248//293 295//292
f 262//295 295//292 257//265
f 246//257 248//293 249//289
f 246//257 247//262 248//293
f 250//294 249//289 248//293
f 249//289 250//294 251//290
f 252//291 301//296 224//260
f 224//260 301//296 253//297
f 253//297 301//296 302//298
f 254//299 253//297 302//298
f 253//297 255//268 224//260
f 254//299 255//268 253//297
f 254//299 256//269 255//268
f 226//270 272//271 261//300
f 221//245 258//301 257//265
f 226//270 258//301 221//245
f 226//270 261//300 260//302
f 260//302 258//301 226//270
f 262//295 257//265 259//303
f 259//303 257//265 258//301
f 260//302 259//303 258//301
f 263//304 262//295 259//303
f 263//304 259//303 264//305
f 264//305 259//303 260//302
f 261//300 269//306 260//302
f 265//307 262//295 263//304
f 267//308 351//309 263//304
f 267//308 263//304 268//310
f 268//310 263//304 264//305
f 260//302 269//306 264//305
f 267//308 266//311 351//309
f 268//310 264//305 270//312
f 352//313 264//305 269//306
f 318//314 267//308 268//310
f 310//315 267//308 318//314
f 270//312 318//314 268//310
f 273//316 315//317 313//318
f 273//316 281//319 315//317
f 256//269 254//299 283//276
f 272//271 269//306 261//300
f 269//306 271//320 352//313
f 271//320 269//306 272//271
f 276//321 271//320 272//271
f 271//320 319//322 352//313
f 276//321 319//322 271//320
f 272//271 277//273 280//323
f 276//321 272//271 280//323
f 276//321 280//323 275//324
f 353//325 356//326 281//319
f 273//316 354//327 357//328
f 354//327 273//316 274//329
f 273//316 313//318 274//329
f 354//327 274//329 321//330
f 277//273 278//274 279//331
f 280//323 277//273 279//331
f 281//319 356//326 355//332
f 285//333 281//319 355//332
f 281//319 285//333 282//334
f 283//276 254//299 317//335
f 283//276 317//335 287//336
f 287//336 317//335 282//334
f 293//337 288//275 283//276
f 283//276 232//272 256//269
f 279//331 278//274 284//277
f 279//331 284//277 285//333
f 290//279 285//333 284//277
f 285//333 290//279 286//338
f 290//279 291//339 286//338
f 286//338 282//334 285//333
f 286//338 287//336 282//334
f 289//283 288//275 293//337
f 291//339 292//285 294//340
f 294//340 292//285 289//283
f 292//285 291//339 290//279
f 293//337 287//336 294//340
f 293//337 294//340 289//283
f 286//338 291//339 287//336
f 294//340 287//336 291//339
f 287//336 293//337 283//276
f 297//341 295//292 262//295
f 265//307 297//341 262//295
f 295//292 296//342 250//294
f 296//342 295//292 297//341
f 359//343 351//309 266//311
f 359//343 266//311 299//344
f 297//341 298//345 296//342
f 299//344 360//346 359//343
f 250//294 306//347 251//290
f 298//345 300//348 296//342
f 296//342 300//348 250//294
f 306//347 250//294 300//348
f 361//349 360//346 308//350
f 360//346 299//344 308//350
f 308//350 299//344 315//317
f 315//317 316//351 308//350
f 303//352 252//291 251//290
f 303//352 301//296 252//291
f 303//352 304//353 301//296
f 302//298 301//296 304//353
f 305//354 302//298 304//353
f 306//347 303//352 251//290
f 305//354 317//335 302//298
f 362//355 307//356 303//352
f 307//356 304//353 303//352
f 304//353 307//356 305//354
f 317//335 305//354 307//356
f 307//356 308//350 317//335
f 316//351 317//335 308//350
f 361//349 308//350 363//357
f 307//356 363//357 308//350
f 267//308 309//358 266//311
f 266//311 309//358 311//359
f 267//308 310//315 309//358
f 311//359 309//358 314//360
f 314//360 309//358 310//315
f 266//311 311//359 315//317
f 311//359 314//360 312//361
f 311//359 312//361 315//317
f 315//317 312//361 313//318
f 299//344 266//311 315//317
f 254//299 302//298 317//335
f 316//351 315//317 281//319
f 281//319 282//334 316//351
f 317//335 316//351 282//334
f 364//362 318//314 270//312
f 276//321 322//363 319//322
f 318//314 364//362 366//364
f 318//314 366//364 310//315
f 320//365 313//318 312//361
f 274//329 313//318 320//365
f 321//330 320//365 366//364
f 321//330 274//329 320//365
f 365//366 322//363 276//321
f 275//324 365//366 276//321
f 310//315 366//364 314//360
f 312//361 314//360 320//365
f 366//364 320//365 314//360
