# Blender 4.0.2
# www.blender.org
mtllib skull_left_upper_lateral_incisor_tooth.mtl
o skull_left_upper_lateral_incisor_tooth
v 0.093181 -0.010419 -0.006086
v 0.092830 -0.009539 -0.006129
v 0.093684 -0.010299 -0.006008
v 0.093707 -0.010939 -0.006100
v 0.094020 -0.010669 -0.006069
v 0.093990 -0.010209 -0.006035
v 0.093507 -0.009149 -0.005988
v 0.093069 -0.009269 -0.006017
v 0.093894 -0.009339 -0.006041
v 0.094167 -0.013299 -0.006818
v 0.094663 -0.013689 -0.006861
v 0.092992 -0.011949 -0.006842
v 0.093742 -0.011939 -0.006358
v 0.093572 -0.012339 -0.006586
v 0.093366 -0.012499 -0.006825
v 0.094664 -0.013039 -0.006607
v 0.094944 -0.012689 -0.006532
v 0.094279 -0.012959 -0.006613
v 0.095669 -0.012969 -0.006686
v 0.095694 -0.013749 -0.006859
v 0.096152 -0.013569 -0.006919
v 0.092735 -0.011039 -0.006587
v 0.092480 -0.010329 -0.006585
v 0.092490 -0.011109 -0.006970
v 0.093332 -0.010909 -0.006142
v 0.093133 -0.011089 -0.006296
v 0.096015 -0.012939 -0.006796
v 0.096190 -0.012369 -0.006887
v 0.092207 -0.009749 -0.006785
v 0.092823 -0.010359 -0.006261
v 0.094579 -0.010599 -0.006216
v 0.092353 -0.009089 -0.006438
v 0.094264 -0.009299 -0.006189
v 0.095788 -0.010189 -0.006890
v 0.091908 -0.007179 -0.006614
v 0.093678 -0.007859 -0.006129
v 0.091880 -0.006069 -0.006513
v 0.092440 -0.006889 -0.006174
v 0.092714 -0.007039 -0.006091
v 0.092123 -0.007049 -0.006372
v 0.091680 -0.004779 -0.006696
v 0.091576 -0.005529 -0.006878
v 0.092390 -0.005829 -0.006226
v 0.092110 -0.005709 -0.006349
v 0.092791 -0.006409 -0.006119
v 0.094075 -0.006289 -0.006535
v 0.094548 -0.006799 -0.006669
v 0.092737 -0.005169 -0.006265
v 0.093078 -0.005449 -0.006323
v 0.094375 -0.005889 -0.006763
v 0.092400 -0.003759 -0.006404
v 0.092637 -0.003619 -0.006405
v 0.093084 -0.004019 -0.006458
v 0.093890 -0.004889 -0.006749
v 0.092840 -0.002989 -0.006579
v 0.093198 -0.003499 -0.006594
v 0.093688 -0.003689 -0.006844
v 0.091710 -0.002129 -0.006789
v 0.091894 -0.001569 -0.006787
v 0.092181 -0.001869 -0.006700
v 0.092733 -0.002089 -0.006773
v 0.099359 -0.022799 -0.007843
v 0.099204 -0.022849 -0.007936
v 0.099661 -0.023129 -0.007861
v 0.099550 -0.023319 -0.007954
v 0.100130 -0.023959 -0.008016
v 0.100350 -0.023819 -0.007990
v 0.098890 -0.021749 -0.007744
v 0.098562 -0.021709 -0.007855
v 0.098393 -0.021759 -0.007987
v 0.099463 -0.022599 -0.007789
v 0.099868 -0.022809 -0.007849
v 0.097777 -0.020079 -0.007869
v 0.097459 -0.020389 -0.007975
v 0.097792 -0.020819 -0.007979
v 0.098587 -0.021159 -0.007740
v 0.098910 -0.020999 -0.007715
v 0.099893 -0.021609 -0.007997
v 0.097868 -0.019199 -0.007768
v 0.098399 -0.019279 -0.007762
v 0.098392 -0.019829 -0.007748
v 0.097127 -0.017739 -0.007774
v 0.097721 -0.018409 -0.007700
v 0.098252 -0.018359 -0.007761
v 0.098792 -0.019169 -0.007875
v 0.095912 -0.016019 -0.007860
v 0.096646 -0.016519 -0.007791
v 0.096275 -0.016439 -0.007923
v 0.096825 -0.017119 -0.007846
v 0.097209 -0.016809 -0.007744
v 0.098271 -0.017259 -0.007935
v 0.093331 -0.013619 -0.007806
v 0.096151 -0.015579 -0.007522
v 0.095451 -0.015429 -0.007618
v 0.096816 -0.016069 -0.007641
v 0.097708 -0.016549 -0.007830
v 0.092898 -0.012909 -0.007773
v 0.093989 -0.013649 -0.007171
v 0.096343 -0.015029 -0.007354
v 0.096914 -0.015049 -0.007515
v 0.092137 -0.010449 -0.007245
v 0.097426 -0.013709 -0.007541
v 0.091867 -0.009179 -0.007251
v 0.097543 -0.012179 -0.007674
v 0.097912 -0.012589 -0.007889
v 0.091691 -0.007319 -0.007006
v 0.095819 -0.008259 -0.007358
v 0.095109 -0.006909 -0.007025
v 0.095375 -0.007049 -0.007323
v 0.094607 -0.005759 -0.006955
v 0.094681 -0.005519 -0.007147
v 0.094257 -0.004789 -0.007026
v 0.094741 -0.005189 -0.007464
v 0.091224 -0.002169 -0.007303
v 0.093650 -0.003029 -0.007021
v 0.093823 -0.003069 -0.007240
v 0.091100 -0.000769 -0.007531
v 0.091513 -0.001309 -0.007003
v 0.091370 -0.001779 -0.007093
v 0.091357 -0.000889 -0.007200
v 0.093218 -0.002479 -0.006891
v 0.093493 -0.002479 -0.007139
v 0.091508 -0.000349 -0.007300
v 0.091267 -0.000459 -0.007414
v 0.091575 -0.000109 -0.007485
v 0.091286 -0.000209 -0.007538
v 0.092083 -0.001149 -0.006883
v 0.091758 -0.000849 -0.007001
v 0.092132 -0.000789 -0.007036
v 0.091466 -0.000689 -0.007171
v 0.091663 -0.000529 -0.007143
v 0.091900 -0.000539 -0.007118
v 0.092346 -0.000639 -0.007192
v 0.091885 -0.000289 -0.007281
v 0.092098 -0.000399 -0.007239
v 0.092077 -0.000189 -0.007406
v 0.092282 -0.000289 -0.007407
v 0.092446 -0.001219 -0.006956
v 0.092918 -0.001459 -0.007134
v 0.092668 -0.000939 -0.007218
v 0.092611 -0.000559 -0.007416
v 0.092902 -0.000819 -0.007500
v 0.091832 0.000051 -0.007644
v 0.092249 -0.000049 -0.007628
v 0.101003 -0.025669 -0.008636
v 0.101313 -0.025819 -0.008698
v 0.100503 -0.024539 -0.008174
v 0.100065 -0.024389 -0.008255
v 0.101170 -0.025059 -0.008456
v 0.101092 -0.025399 -0.008507
v 0.101311 -0.025549 -0.008593
v 0.101499 -0.025399 -0.008656
v 0.101593 -0.025729 -0.008778
v 0.101715 -0.025519 -0.008830
v 0.099385 -0.023419 -0.008159
v 0.100747 -0.024339 -0.008141
v 0.100834 -0.024099 -0.008138
v 0.100606 -0.023299 -0.008099
v 0.101212 -0.024069 -0.008357
v 0.101422 -0.023589 -0.008626
v 0.101614 -0.024699 -0.008722
v 0.095754 -0.020339 -0.008731
v 0.095429 -0.019809 -0.008776
v 0.096579 -0.020539 -0.008312
v 0.096158 -0.020309 -0.008408
v 0.097298 -0.020659 -0.008104
v 0.097421 -0.021189 -0.008415
v 0.098311 -0.022009 -0.008289
v 0.095490 -0.018809 -0.008528
v 0.095752 -0.019699 -0.008442
v 0.096732 -0.020069 -0.008060
v 0.095720 -0.018369 -0.008353
v 0.100631 -0.021039 -0.008546
v 0.100875 -0.020679 -0.008873
v 0.095779 -0.017509 -0.008485
v 0.095771 -0.017049 -0.008506
v 0.096437 -0.017699 -0.008046
v 0.095408 -0.016509 -0.008584
v 0.096395 -0.017109 -0.008067
v 0.100252 -0.018999 -0.008757
v 0.093097 -0.013679 -0.008305
v 0.099173 -0.017499 -0.008364
v 0.092816 -0.013149 -0.008237
v 0.091924 -0.010959 -0.008142
v 0.091936 -0.011229 -0.008447
v 0.092474 -0.012159 -0.007958
v 0.097956 -0.014709 -0.007958
v 0.099036 -0.014969 -0.008773
v 0.091628 -0.009899 -0.008244
v 0.091675 -0.010499 -0.008530
v 0.091571 -0.010059 -0.008649
v 0.097838 -0.012059 -0.007907
v 0.098339 -0.012489 -0.008328
v 0.097233 -0.009799 -0.008074
v 0.097390 -0.009769 -0.008431
v 0.097490 -0.010639 -0.007989
v 0.097656 -0.010319 -0.008387
v 0.091145 -0.005519 -0.007750
v 0.091120 -0.006409 -0.008142
v 0.091088 -0.006579 -0.008642
v 0.096388 -0.008329 -0.008558
v 0.096906 -0.009199 -0.008147
v 0.095605 -0.007039 -0.008028
v 0.096114 -0.008039 -0.008166
v 0.095867 -0.007559 -0.008543
v 0.095269 -0.006299 -0.008487
v 0.090878 -0.003349 -0.008316
v 0.090848 -0.001399 -0.008042
v 0.090787 -0.001109 -0.008305
v 0.094089 -0.003089 -0.007911
v 0.090775 -0.000109 -0.008267
v 0.090813 0.000161 -0.008276
v 0.090868 0.000261 -0.008270
v 0.090989 0.000341 -0.008266
v 0.090797 0.000161 -0.008484
v 0.090832 0.000281 -0.008474
v 0.090907 0.000371 -0.008484
v 0.090824 -0.000359 -0.008042
v 0.090892 -0.000019 -0.008030
v 0.090967 0.000191 -0.008102
v 0.090778 -0.000259 -0.008493
v 0.093235 -0.000979 -0.007913
v 0.093268 -0.000829 -0.008468
v 0.091450 0.000471 -0.008332
v 0.091701 0.000481 -0.008345
v 0.092488 -0.000129 -0.007724
v 0.092043 0.000231 -0.007967
v 0.092350 0.000101 -0.007959
v 0.092219 0.000341 -0.008372
v 0.092414 0.000221 -0.008369
v 0.092814 -0.000449 -0.007744
v 0.093074 -0.000569 -0.008102
v 0.092709 -0.000119 -0.008161
v 0.101007 -0.026739 -0.009352
v 0.101331 -0.026869 -0.009344
v 0.100678 -0.026549 -0.009454
v 0.101673 -0.026969 -0.009487
v 0.101365 -0.027299 -0.009780
v 0.099875 -0.024989 -0.009057
v 0.101482 -0.026589 -0.009143
v 0.101673 -0.026439 -0.009121
v 0.101785 -0.026659 -0.009303
v 0.101965 -0.026359 -0.009299
v 0.102025 -0.026779 -0.009620
v 0.102141 -0.026569 -0.009633
v 0.102243 -0.026139 -0.009603
v 0.102028 -0.025179 -0.009229
v 0.102064 -0.025819 -0.009274
v 0.095502 -0.020629 -0.009205
v 0.095278 -0.020549 -0.009428
v 0.095428 -0.020899 -0.009627
v 0.096086 -0.020929 -0.009007
v 0.097665 -0.022319 -0.009551
v 0.101755 -0.023949 -0.009016
v 0.095235 -0.019499 -0.008986
v 0.095341 -0.020239 -0.009093
v 0.095198 -0.020019 -0.009218
v 0.095071 -0.018759 -0.009193
v 0.095010 -0.019339 -0.009518
v 0.101497 -0.022639 -0.009153
v 0.094918 -0.018209 -0.009526
v 0.095235 -0.018239 -0.008878
v 0.101171 -0.020939 -0.009312
v 0.095444 -0.017269 -0.008819
v 0.094912 -0.017239 -0.009564
v 0.094027 -0.015299 -0.009228
v 0.094617 -0.016199 -0.009461
v 0.100564 -0.018979 -0.009197
v 0.092739 -0.013359 -0.008961
v 0.093151 -0.014169 -0.009462
v 0.092720 -0.013389 -0.009535
v 0.092502 -0.012869 -0.009159
v 0.099570 -0.016629 -0.008986
v 0.091756 -0.010829 -0.008895
v 0.091645 -0.010239 -0.009391
v 0.091365 -0.008859 -0.008817
v 0.091484 -0.009629 -0.009072
v 0.091428 -0.009119 -0.009237
v 0.091531 -0.009509 -0.009488
v 0.099088 -0.013259 -0.009328
v 0.091378 -0.008249 -0.009363
v 0.098720 -0.012349 -0.008946
v 0.091268 -0.006859 -0.009218
v 0.098128 -0.010599 -0.009346
v 0.097014 -0.009139 -0.009348
v 0.097492 -0.009689 -0.009127
v 0.096102 -0.008089 -0.009099
v 0.090917 -0.003939 -0.008724
v 0.090970 -0.003749 -0.008983
v 0.091153 -0.003599 -0.009319
v 0.094506 -0.004619 -0.009080
v 0.091222 -0.001709 -0.009318
v 0.090868 0.000261 -0.008605
v 0.090864 -0.000269 -0.008733
v 0.090979 -0.000129 -0.008867
v 0.091932 -0.000169 -0.009348
v 0.092288 -0.000409 -0.009460
v 0.093336 -0.001119 -0.008902
v 0.093111 -0.000809 -0.009162
v 0.092815 -0.000619 -0.009349
v 0.093460 -0.001949 -0.009403
v 0.091097 0.000501 -0.008577
v 0.091231 0.000541 -0.008580
v 0.091508 0.000581 -0.008586
v 0.091935 0.000511 -0.008568
v 0.091132 0.000491 -0.008698
v 0.091459 0.000571 -0.008706
v 0.091178 0.000311 -0.008847
v 0.091824 0.000531 -0.008798
v 0.091748 0.000411 -0.008987
v 0.092334 0.000331 -0.008590
v 0.092516 0.000181 -0.008589
v 0.092067 0.000481 -0.008697
v 0.092334 0.000321 -0.008815
v 0.092536 0.000141 -0.008814
v 0.092116 0.000401 -0.008922
v 0.092059 0.000241 -0.009131
v 0.092468 0.000091 -0.009031
v 0.092258 0.000151 -0.009135
v 0.092535 -0.000219 -0.009270
v 0.092881 -0.000219 -0.008582
v 0.093034 -0.000449 -0.008805
v 0.092790 -0.000249 -0.009045
v 0.100656 -0.027509 -0.010330
v 0.100711 -0.027849 -0.010627
v 0.101050 -0.027899 -0.010615
v 0.099974 -0.026319 -0.010049
v 0.101706 -0.027339 -0.009944
v 0.101905 -0.027189 -0.009952
v 0.101519 -0.027619 -0.010298
v 0.101748 -0.027469 -0.010289
v 0.101981 -0.027209 -0.010286
v 0.101596 -0.027649 -0.010626
v 0.101835 -0.027399 -0.010616
v 0.102031 -0.027099 -0.010612
v 0.099225 -0.025479 -0.010388
v 0.102157 -0.026839 -0.009953
v 0.102335 -0.026329 -0.009946
v 0.102278 -0.026649 -0.010286
v 0.102247 -0.026629 -0.010617
v 0.102354 -0.026309 -0.010589
v 0.095806 -0.021839 -0.010568
v 0.098170 -0.023209 -0.009917
v 0.097547 -0.022929 -0.010319
v 0.098979 -0.024299 -0.009876
v 0.102376 -0.025949 -0.009925
v 0.102436 -0.025999 -0.010277
v 0.102388 -0.025339 -0.010233
v 0.102433 -0.025879 -0.010606
v 0.102449 -0.025239 -0.010595
v 0.095071 -0.020439 -0.009916
v 0.094891 -0.019319 -0.010213
v 0.102193 -0.023679 -0.010562
v 0.101895 -0.022619 -0.010138
v 0.094732 -0.017389 -0.010430
v 0.094415 -0.016249 -0.010100
v 0.093640 -0.014829 -0.010204
v 0.093012 -0.013849 -0.010101
v 0.093304 -0.014369 -0.010208
v 0.092270 -0.012209 -0.009628
v 0.091974 -0.011339 -0.009626
v 0.092261 -0.011869 -0.010087
v 0.092030 -0.011119 -0.010045
v 0.091757 -0.010219 -0.009825
v 0.091981 -0.010359 -0.010189
v 0.099521 -0.014599 -0.009852
v 0.091616 -0.008929 -0.009813
v 0.092053 -0.008989 -0.010368
v 0.098893 -0.011939 -0.009791
v 0.091798 -0.006999 -0.010041
v 0.097394 -0.009809 -0.010427
v 0.098056 -0.010419 -0.009801
v 0.097939 -0.010299 -0.010145
v 0.098330 -0.010859 -0.010179
v 0.092097 -0.006479 -0.010287
v 0.095919 -0.008299 -0.009909
v 0.097434 -0.009709 -0.010031
v 0.097100 -0.009399 -0.010045
v 0.091446 -0.005799 -0.009590
v 0.094358 -0.005289 -0.009967
v 0.093542 -0.004059 -0.010326
v 0.091526 -0.002139 -0.009593
v 0.093840 -0.003699 -0.009756
v 0.091689 -0.000749 -0.009441
v 0.092124 -0.001179 -0.009687
v 0.093132 -0.001689 -0.009638
v 0.099792 -0.027929 -0.011272
v 0.100093 -0.028099 -0.011286
v 0.100396 -0.028219 -0.011379
v 0.099946 -0.027699 -0.010940
v 0.099429 -0.027319 -0.011043
v 0.100212 -0.027889 -0.010943
v 0.100596 -0.028059 -0.010960
v 0.101194 -0.027899 -0.010736
v 0.100948 -0.028059 -0.011076
v 0.101287 -0.027849 -0.011056
v 0.101281 -0.027739 -0.011318
v 0.101568 -0.027609 -0.010951
v 0.101871 -0.027189 -0.010941
v 0.101542 -0.027409 -0.011283
v 0.101737 -0.027079 -0.011283
v 0.102108 -0.026699 -0.010938
v 0.102273 -0.026249 -0.010923
v 0.101996 -0.026209 -0.011433
v 0.095329 -0.021529 -0.011222
v 0.095754 -0.022339 -0.011264
v 0.096319 -0.022319 -0.010623
v 0.096363 -0.022959 -0.011260
v 0.102227 -0.024929 -0.011340
v 0.102390 -0.025589 -0.010920
v 0.102400 -0.025189 -0.010916
v 0.102267 -0.025559 -0.011243
v 0.094942 -0.020349 -0.011005
v 0.095142 -0.021009 -0.010974
v 0.102276 -0.024059 -0.010934
v 0.094895 -0.018469 -0.010959
v 0.094920 -0.019219 -0.011398
v 0.101624 -0.020779 -0.010849
v 0.094378 -0.015949 -0.010786
v 0.093134 -0.013579 -0.010817
v 0.093410 -0.014159 -0.010868
v 0.092507 -0.011779 -0.010645
v 0.093002 -0.012249 -0.011190
v 0.100185 -0.015629 -0.010930
v 0.092713 -0.011209 -0.011006
v 0.099460 -0.013679 -0.010649
v 0.098849 -0.012119 -0.011055
v 0.092341 -0.007819 -0.010640
v 0.092743 -0.007689 -0.010947
v 0.095966 -0.009049 -0.011215
v 0.098445 -0.011179 -0.010712
v 0.098083 -0.010619 -0.010691
v 0.098254 -0.010999 -0.011050
v 0.098006 -0.010709 -0.011129
v 0.093322 -0.007569 -0.011221
v 0.093909 -0.007449 -0.011271
v 0.095293 -0.007779 -0.010551
v 0.095106 -0.008159 -0.011127
v 0.096232 -0.008839 -0.010517
v 0.093914 -0.006049 -0.010860
v 0.093401 -0.006379 -0.011025
v 0.094570 -0.006349 -0.010334
v 0.094512 -0.006969 -0.010854
v 0.092642 -0.005269 -0.010580
v 0.094178 -0.005449 -0.010392
v 0.093389 -0.004179 -0.010461
v 0.093092 -0.003739 -0.010387
v 0.098843 -0.027339 -0.011640
v 0.098787 -0.027759 -0.012185
v 0.098494 -0.027459 -0.012268
v 0.099701 -0.028109 -0.011621
v 0.099168 -0.027719 -0.011606
v 0.099329 -0.028079 -0.011982
v 0.099598 -0.028329 -0.012240
v 0.100003 -0.028269 -0.011683
v 0.100450 -0.028259 -0.011612
v 0.100545 -0.028199 -0.011758
v 0.099965 -0.028349 -0.012237
v 0.100306 -0.028169 -0.012277
v 0.100815 -0.028069 -0.011580
v 0.100700 -0.028009 -0.011932
v 0.100925 -0.027469 -0.012194
v 0.100494 -0.027899 -0.012389
v 0.096040 -0.023899 -0.012214
v 0.097355 -0.024779 -0.012101
v 0.096909 -0.024569 -0.012358
v 0.095353 -0.022209 -0.011941
v 0.102006 -0.025409 -0.011678
v 0.094910 -0.020329 -0.012066
v 0.095127 -0.021239 -0.011899
v 0.094873 -0.019839 -0.012126
v 0.094906 -0.019229 -0.012157
v 0.095031 -0.018129 -0.011677
v 0.095072 -0.017459 -0.011842
v 0.101569 -0.020219 -0.011788
v 0.101547 -0.020489 -0.012118
v 0.101300 -0.019169 -0.012231
v 0.093647 -0.013779 -0.011551
v 0.100811 -0.017649 -0.011373
v 0.101014 -0.018019 -0.011910
v 0.101195 -0.018649 -0.011770
v 0.101156 -0.018499 -0.012127
v 0.093985 -0.013219 -0.012032
v 0.093323 -0.012039 -0.011548
v 0.100316 -0.015739 -0.011477
v 0.100232 -0.015749 -0.012083
v 0.100017 -0.015229 -0.012070
v 0.093238 -0.011009 -0.011479
v 0.099697 -0.014359 -0.011663
v 0.100006 -0.014949 -0.011395
v 0.098488 -0.012419 -0.012131
v 0.099132 -0.013219 -0.011679
v 0.094495 -0.010189 -0.012051
v 0.094791 -0.009859 -0.012033
v 0.096861 -0.010689 -0.012145
v 0.097460 -0.010809 -0.011912
v 0.097942 -0.011159 -0.011820
v 0.097708 -0.011269 -0.012106
v 0.098580 -0.011769 -0.011366
v 0.098469 -0.011969 -0.011817
v 0.094648 -0.008459 -0.011540
v 0.095866 -0.009579 -0.011746
v 0.097715 -0.010679 -0.011539
v 0.098058 -0.010999 -0.011476
v 0.097516 -0.026669 -0.013150
v 0.098684 -0.028019 -0.012880
v 0.098263 -0.027779 -0.013211
v 0.099255 -0.028259 -0.012582
v 0.099568 -0.028329 -0.012601
v 0.099744 -0.028239 -0.012703
v 0.099105 -0.028189 -0.012949
v 0.099282 -0.028109 -0.013076
v 0.099741 -0.027989 -0.013021
v 0.100138 -0.028099 -0.012591
v 0.096105 -0.025119 -0.013228
v 0.096949 -0.025319 -0.012863
v 0.096489 -0.025059 -0.012886
v 0.097037 -0.025889 -0.013195
v 0.099905 -0.027599 -0.013235
v 0.100172 -0.027759 -0.012898
v 0.100380 -0.027459 -0.012906
v 0.095676 -0.023799 -0.012529
v 0.100553 -0.026449 -0.013222
v 0.100385 -0.026879 -0.013227
v 0.100722 -0.026869 -0.012855
v 0.095289 -0.023159 -0.013138
v 0.095457 -0.023509 -0.012801
v 0.100985 -0.026039 -0.012842
v 0.095081 -0.022009 -0.012911
v 0.095036 -0.021799 -0.013222
v 0.100879 -0.025219 -0.013175
v 0.094818 -0.020359 -0.012941
v 0.094873 -0.020779 -0.012757
v 0.101237 -0.023929 -0.012919
v 0.094827 -0.019579 -0.012587
v 0.094830 -0.019649 -0.013130
v 0.101338 -0.022839 -0.012830
v 0.094870 -0.019179 -0.012684
v 0.094931 -0.019039 -0.013133
v 0.095083 -0.018189 -0.012346
v 0.101439 -0.021499 -0.012588
v 0.101192 -0.020249 -0.012817
v 0.094762 -0.015419 -0.012284
v 0.095258 -0.016319 -0.012978
v 0.101094 -0.018649 -0.012543
v 0.101022 -0.018879 -0.012781
v 0.094645 -0.014619 -0.012500
v 0.094910 -0.014999 -0.012765
v 0.095094 -0.014529 -0.013066
v 0.100839 -0.017679 -0.012386
v 0.100729 -0.017899 -0.012884
v 0.100061 -0.016509 -0.013089
v 0.094274 -0.012959 -0.012278
v 0.094562 -0.012199 -0.012346
v 0.099469 -0.014939 -0.012741
v 0.100097 -0.015739 -0.012438
v 0.099821 -0.015539 -0.012759
v 0.095857 -0.012259 -0.012885
v 0.098056 -0.014039 -0.013085
v 0.098819 -0.013589 -0.012349
v 0.099640 -0.014769 -0.012373
v 0.095275 -0.011189 -0.012426
v 0.097090 -0.011939 -0.012743
v 0.098187 -0.012229 -0.012317
v 0.095821 -0.010859 -0.012391
v 0.096598 -0.011249 -0.012536
v 0.096888 -0.026289 -0.013739
v 0.097854 -0.027579 -0.013899
v 0.097472 -0.027189 -0.013829
v 0.098064 -0.027639 -0.013940
v 0.098352 -0.027879 -0.013359
v 0.099386 -0.027699 -0.013458
v 0.095969 -0.025449 -0.013794
v 0.095795 -0.025099 -0.013687
v 0.095618 -0.024729 -0.013914
v 0.095833 -0.025389 -0.014098
v 0.096682 -0.025839 -0.013512
v 0.099220 -0.026849 -0.014097
v 0.100009 -0.027259 -0.013374
v 0.099495 -0.027379 -0.013635
v 0.099755 -0.026999 -0.013695
v 0.099547 -0.026299 -0.014123
v 0.100033 -0.026529 -0.013683
v 0.100514 -0.025819 -0.013442
v 0.100423 -0.025009 -0.013707
v 0.100651 -0.024059 -0.013620
v 0.100375 -0.023369 -0.013954
v 0.094996 -0.020039 -0.013777
v 0.095261 -0.020219 -0.014176
v 0.100767 -0.022969 -0.013573
v 0.095106 -0.018699 -0.013556
v 0.095033 -0.019179 -0.013638
v 0.095205 -0.018879 -0.013875
v 0.100830 -0.021319 -0.013412
v 0.100423 -0.021899 -0.013877
v 0.095401 -0.017629 -0.013561
v 0.095474 -0.016949 -0.013496
v 0.095653 -0.017439 -0.013962
v 0.095518 -0.015949 -0.013481
v 0.095611 -0.016569 -0.013741
v 0.095841 -0.016369 -0.013923
v 0.095864 -0.015019 -0.013617
v 0.099399 -0.017099 -0.014027
v 0.099227 -0.016609 -0.013930
v 0.100122 -0.017509 -0.013538
v 0.100559 -0.018349 -0.013300
v 0.100136 -0.018299 -0.013702
v 0.095364 -0.014209 -0.013228
v 0.096201 -0.014229 -0.013608
v 0.096296 -0.014959 -0.013779
v 0.097120 -0.014969 -0.013834
v 0.098250 -0.015069 -0.013621
v 0.097947 -0.015549 -0.014006
v 0.098892 -0.015359 -0.013471
v 0.098402 -0.015809 -0.013975
v 0.099518 -0.016159 -0.013470
v 0.099842 -0.016859 -0.013544
v 0.095868 -0.013589 -0.013362
v 0.096188 -0.013369 -0.013375
v 0.096949 -0.014169 -0.013598
v 0.096690 -0.012809 -0.013186
v 0.097577 -0.013499 -0.013143
v 0.096169 -0.025979 -0.014497
v 0.096167 -0.025949 -0.014650
v 0.096615 -0.026219 -0.014959
v 0.097166 -0.027059 -0.014320
v 0.096699 -0.026459 -0.014248
v 0.097173 -0.027039 -0.014533
v 0.096778 -0.026679 -0.014520
v 0.096831 -0.026709 -0.014644
v 0.097293 -0.027039 -0.014648
v 0.097001 -0.026669 -0.014868
v 0.097384 -0.026619 -0.015038
v 0.097429 -0.027259 -0.014331
v 0.097731 -0.027369 -0.014324
v 0.098091 -0.027349 -0.014284
v 0.097539 -0.027079 -0.014650
v 0.097778 -0.026809 -0.014822
v 0.095961 -0.025649 -0.014519
v 0.095825 -0.025319 -0.014495
v 0.095987 -0.025539 -0.014739
v 0.095877 -0.025179 -0.014730
v 0.096070 -0.025399 -0.014948
v 0.096161 -0.025719 -0.014856
v 0.095535 -0.023989 -0.014265
v 0.095590 -0.023429 -0.014531
v 0.099746 -0.025399 -0.014212
v 0.099438 -0.024449 -0.014586
v 0.100061 -0.024139 -0.014161
v 0.099585 -0.023509 -0.014572
v 0.099813 -0.022179 -0.014401
v 0.095413 -0.019249 -0.014172
v 0.096178 -0.018529 -0.014549
v 0.096733 -0.018209 -0.014753
v 0.096387 -0.016379 -0.014226
v 0.097163 -0.017119 -0.014682
v 0.097419 -0.016779 -0.014657
v 0.097721 -0.017509 -0.014853
v 0.098873 -0.018359 -0.014629
v 0.098602 -0.017509 -0.014613
v 0.096869 -0.015879 -0.014250
v 0.097399 -0.016029 -0.014372
v 0.097761 -0.016489 -0.014522
v 0.099063 -0.016939 -0.014185
v 0.099211 -0.017499 -0.014281
v 0.097090 -0.026449 -0.015093
v 0.096125 -0.024959 -0.015129
v 0.096411 -0.024999 -0.015329
v 0.096396 -0.025719 -0.015073
v 0.097003 -0.026019 -0.015250
v 0.097719 -0.026079 -0.015269
v 0.097357 -0.025929 -0.015380
v 0.096899 -0.025059 -0.015503
v 0.096765 -0.024489 -0.015481
v 0.097144 -0.024629 -0.015579
v 0.097468 -0.024379 -0.015599
v 0.098206 -0.025269 -0.015296
v 0.098009 -0.025609 -0.015323
v 0.097496 -0.025429 -0.015522
v 0.097799 -0.025129 -0.015541
v 0.097923 -0.024479 -0.015505
v 0.097534 -0.024959 -0.015598
v 0.096064 -0.023679 -0.015071
v 0.096384 -0.022449 -0.015143
v 0.098789 -0.022449 -0.015046
v 0.098382 -0.021359 -0.015172
v 0.096734 -0.019979 -0.015018
v 0.097402 -0.019909 -0.015195
v 0.097911 -0.020019 -0.015219
v 0.097875 -0.018399 -0.015008
v 0.098128 -0.018339 -0.014949
vn -0.2999 -0.1558 0.9412
vn -0.0146 -0.0767 0.9969
vn -0.2262 -0.0293 0.9736
vn -0.4847 -0.0938 0.8696
vn -0.2795 -0.2338 0.9312
vn -0.0370 -0.1974 0.9796
vn 0.2236 -0.1366 0.9651
vn 0.1443 -0.1159 0.9827
vn 0.3611 0.0162 0.9324
vn 0.2044 -0.0072 0.9789
vn -0.1624 0.0184 0.9865
vn 0.0518 0.0329 0.9981
vn 0.2580 0.0640 0.9640
vn 0.4122 0.0992 0.9057
vn 0.0219 0.0948 0.9953
vn 0.2821 0.1128 0.9527
vn -0.3785 -0.4683 0.7984
vn -0.3545 -0.5373 0.7653
vn -0.1887 -0.4326 0.8816
vn -0.1929 -0.3590 0.9132
vn -0.7833 -0.4321 0.4470
vn -0.6852 -0.3952 0.6119
vn -0.8184 -0.3260 0.4732
vn -0.6789 -0.5402 0.4972
vn -0.2098 -0.3042 0.9292
vn -0.4923 -0.3165 0.8109
vn -0.4362 -0.3962 0.8079
vn -0.0207 -0.2981 0.9543
vn -0.5991 -0.4519 0.6609
vn 0.0945 -0.1918 0.9769
vn 0.1111 -0.2792 0.9538
vn 0.3830 -0.0493 0.9224
vn 0.3223 -0.1684 0.9315
vn 0.5051 -0.0538 0.8614
vn 0.3250 -0.1238 0.9376
vn -0.8796 -0.2417 0.4098
vn -0.7642 -0.2168 0.6074
vn -0.8367 -0.1730 0.5197
vn -0.9050 -0.1565 0.3956
vn -0.5739 -0.1954 0.7952
vn -0.6849 -0.3199 0.6547
vn -0.6973 -0.1069 0.7088
vn 0.4576 0.0439 0.8881
vn 0.5168 0.1323 0.8458
vn -0.7872 -0.1082 0.6071
vn -0.4005 -0.0095 0.9162
vn -0.6217 -0.0736 0.7798
vn -0.8887 -0.1225 0.4419
vn 0.4825 0.1546 0.8622
vn -0.4879 0.0363 0.8722
vn -0.7003 -0.0392 0.7128
vn -0.8525 -0.0531 0.5200
vn -0.2537 0.0724 0.9646
vn 0.3840 0.1751 0.9066
vn -0.7199 0.0063 0.6941
vn 0.0925 0.0988 0.9908
vn 0.3204 0.1376 0.9373
vn 0.4789 0.2077 0.8529
vn 0.6744 0.2235 0.7038
vn 0.6330 0.2555 0.7307
vn -0.4844 0.0719 0.8719
vn -0.1928 0.0955 0.9766
vn 0.4759 0.1647 0.8639
vn 0.3413 0.1246 0.9317
vn 0.6672 0.2527 0.7007
vn 0.0948 0.1461 0.9847
vn 0.0408 0.2079 0.9773
vn 0.6015 0.2088 0.7711
vn 0.2884 0.2223 0.9313
vn 0.4171 0.1884 0.8891
vn 0.5256 0.2960 0.7976
vn -0.2348 0.1876 0.9538
vn -0.7446 0.0318 0.6667
vn -0.5461 0.1322 0.8272
vn 0.0810 0.3073 0.9481
vn -0.2006 0.2958 0.9339
vn 0.3448 0.2777 0.8967
vn 0.3580 0.3378 0.8705
vn -0.1664 -0.3182 0.9333
vn -0.4194 -0.3888 0.8203
vn -0.4783 -0.4806 0.7350
vn -0.4252 -0.2658 0.8652
vn -0.5306 -0.3851 0.7551
vn -0.2871 -0.2534 0.9238
vn -0.0897 -0.2032 0.9750
vn -0.0088 -0.0930 0.9956
vn -0.5692 -0.4145 0.7100
vn -0.6601 -0.4859 0.5729
vn 0.1654 -0.0995 0.9812
vn 0.2395 0.0086 0.9709
vn 0.4559 0.1042 0.8839
vn 0.4230 0.1354 0.8960
vn -0.1098 -0.3730 0.9213
vn -0.3837 -0.2802 0.8799
vn -0.1693 -0.1323 0.9766
vn 0.1307 0.0402 0.9906
vn -0.2102 -0.0934 0.9732
vn -0.3097 -0.2012 0.9293
vn -0.1940 -0.0987 0.9760
vn -0.1049 -0.0865 0.9907
vn -0.2198 -0.2030 0.9542
vn -0.0772 -0.0104 0.9970
vn -0.4396 -0.0075 0.8982
vn -0.2545 -0.0441 0.9661
vn 0.1283 0.0334 0.9912
vn 0.3608 0.1201 0.9249
vn -0.0077 -0.0574 0.9983
vn -0.3294 -0.0864 0.9402
vn -0.0450 -0.0237 0.9987
vn 0.2676 0.0916 0.9592
vn 0.3289 0.0514 0.9430
vn 0.5350 0.1900 0.8232
vn -0.6385 -0.4185 0.6458
vn -0.3838 -0.5227 0.7613
vn -0.1374 -0.3900 0.9105
vn -0.4482 -0.3804 0.8090
vn -0.0128 -0.2079 0.9781
vn -0.2729 -0.2703 0.9233
vn -0.5091 -0.1238 0.8517
vn 0.4215 0.1805 0.8887
vn -0.7763 -0.5451 0.3165
vn 0.1620 -0.2578 0.9525
vn -0.8547 -0.4301 0.2906
vn -0.8705 -0.3763 0.3174
vn -0.5206 -0.5353 0.6652
vn 0.5300 -0.0399 0.8470
vn -0.9437 -0.1765 0.2796
vn -0.9014 -0.2979 0.3141
vn 0.5401 0.1044 0.8351
vn 0.7583 0.1091 0.6427
vn -0.9698 -0.1080 0.2189
vn 0.6254 0.0629 0.7777
vn 0.6529 0.1718 0.7377
vn 0.6903 0.2366 0.6837
vn 0.7378 0.2819 0.6134
vn 0.8384 0.3126 0.4465
vn 0.8321 0.4911 0.2578
vn 0.7768 0.5101 0.3692
vn -0.9424 -0.0670 0.3277
vn -0.9519 -0.0366 0.3043
vn 0.7621 0.3143 0.5661
vn -0.8656 -0.0185 0.5005
vn 0.8520 0.3359 0.4017
vn 0.9042 0.3995 0.1514
vn 0.9210 0.3540 0.1626
vn -0.8252 0.0800 0.5591
vn 0.8240 0.3131 0.4722
vn 0.6874 0.2703 0.6741
vn -0.6578 0.2901 0.6951
vn -0.6750 0.1436 0.7237
vn -0.4973 0.2721 0.8238
vn 0.5795 0.3646 0.7289
vn 0.7258 0.3601 0.5862
vn 0.8521 0.4123 0.3225
vn -0.2298 0.4341 0.8711
vn -0.3468 0.5147 0.7841
vn -0.1916 0.7087 0.6790
vn -0.4998 0.5205 0.6923
vn 0.0153 0.6338 0.7734
vn 0.0166 0.8000 0.5997
vn -0.7783 0.2958 0.5539
vn 0.1932 0.4026 0.8947
vn 0.0416 0.4605 0.8867
vn 0.3926 0.4673 0.7921
vn 0.2459 0.5472 0.8000
vn 0.4048 0.5990 0.6910
vn 0.1976 0.6934 0.6929
vn 0.5475 0.5200 0.6556
vn 0.5274 0.4114 0.7434
vn 0.6947 0.4446 0.5654
vn 0.6908 0.5693 0.4458
vn 0.3314 0.7442 0.5800
vn 0.5582 0.6724 0.4862
vn -0.2064 -0.4847 0.8500
vn 0.1456 -0.4316 0.8902
vn 0.0860 -0.3234 0.9423
vn 0.2905 -0.2660 0.9192
vn 0.5120 -0.2618 0.8181
vn 0.4103 -0.4054 0.8169
vn 0.6860 -0.2797 0.6717
vn -0.7216 -0.4610 0.5165
vn -0.7419 -0.4730 0.4753
vn -0.5805 -0.5232 0.6239
vn 0.2325 -0.1980 0.9522
vn 0.4221 -0.1373 0.8961
vn 0.5183 -0.0955 0.8499
vn 0.7048 0.0106 0.7093
vn 0.6905 -0.0820 0.7187
vn 0.8109 -0.0710 0.5808
vn 0.8773 0.0819 0.4729
vn -0.6600 -0.5341 0.5284
vn 0.3959 -0.0338 0.9177
vn 0.5983 0.0361 0.8005
vn 0.7301 0.1667 0.6627
vn 0.8771 0.1445 0.4581
vn -0.5444 -0.1824 0.8188
vn -0.5757 -0.4553 0.6792
vn -0.4747 -0.4124 0.7775
vn -0.4651 -0.6574 0.5929
vn -0.8684 -0.1043 0.4848
vn -0.7372 -0.2224 0.6380
vn -0.6988 -0.0369 0.7144
vn -0.8173 0.0539 0.5737
vn -0.6100 -0.5581 0.5624
vn -0.3126 -0.4131 0.8554
vn -0.3913 -0.4960 0.7752
vn -0.4740 -0.5784 0.6639
vn -0.5651 -0.6262 0.5371
vn -0.5470 0.0437 0.8360
vn 0.5943 0.1776 0.7844
vn 0.7809 0.2165 0.5860
vn 0.8944 0.2384 0.3784
vn -0.6049 0.0948 0.7906
vn -0.7422 -0.0379 0.6691
vn -0.6014 -0.1500 0.7848
vn 0.6799 0.2326 0.6954
vn 0.8617 0.2713 0.4287
vn 0.7943 0.2359 0.5599
vn -0.8801 -0.4515 0.1471
vn -0.7776 -0.5749 0.2546
vn -0.8353 -0.5452 0.0714
vn -0.9249 -0.3733 0.0716
vn -0.9188 -0.3524 0.1777
vn -0.9564 -0.2920 -0.0069
vn -0.9561 -0.2462 0.1590
vn -0.9780 -0.1909 0.0845
vn -0.9900 -0.1339 0.0445
vn -0.9935 -0.0870 -0.0737
vn 0.7662 0.1608 0.6221
vn 0.8641 0.2447 0.4399
vn 0.7462 0.3722 0.5520
vn 0.8283 0.3587 0.4305
vn 0.8185 0.4962 0.2896
vn 0.8633 0.4703 0.1831
vn -0.9909 -0.0611 -0.1200
vn 0.8003 0.5957 0.0684
vn 0.7930 0.6091 0.0131
vn 0.8609 0.4951 -0.1169
vn 0.9068 0.3744 -0.1935
vn 0.7476 0.6197 -0.2389
vn -0.9934 -0.0370 0.1083
vn 0.9096 0.3594 -0.2083
vn -0.9210 0.0592 0.3851
vn -0.9979 -0.0317 0.0571
vn -0.9814 0.0818 0.1737
vn -0.9074 0.2967 0.2976
vn -0.6931 0.5979 0.4026
vn -0.4944 0.5994 0.6295
vn -0.3564 0.8083 0.4687
vn -0.9834 0.0117 -0.1811
vn -0.9700 0.1731 -0.1706
vn -0.8714 0.4870 -0.0598
vn -0.6554 0.7552 -0.0040
vn -0.8774 0.0519 -0.4769
vn -0.7815 0.3820 -0.4933
vn 0.9018 0.4318 0.0162
vn 0.8116 0.5373 0.2292
vn -0.0976 0.8756 0.4731
vn 0.0980 0.9067 0.4102
vn 0.2148 0.8574 0.4677
vn -0.2222 0.9680 0.1165
vn -0.0027 0.9895 0.1447
vn 0.2498 0.9508 0.1834
vn 0.4018 0.8674 0.2936
vn -0.4376 0.8984 0.0368
vn 0.1271 0.9438 -0.3052
vn 0.6950 0.6739 0.2507
vn 0.4786 0.7862 0.3910
vn 0.5891 0.7706 0.2434
vn 0.5448 0.8340 0.0875
vn 0.7818 0.6234 0.0161
vn 0.6883 0.7235 0.0529
vn 0.8281 0.5355 -0.1659
vn -0.6503 -0.4312 0.6254
vn -0.4661 -0.5796 0.6684
vn -0.3741 -0.5880 0.7172
vn -0.0933 -0.6494 0.7547
vn 0.0978 -0.5368 0.8380
vn 0.3297 -0.6567 0.6782
vn -0.0296 -0.7600 0.6493
vn 0.4802 -0.4861 0.7302
vn 0.3955 -0.7660 0.5068
vn 0.6631 -0.6405 0.3874
vn 0.8567 -0.4539 0.2452
vn 0.6871 -0.4955 0.5314
vn 0.8228 -0.3223 0.4682
vn 0.8809 -0.1198 0.4578
vn 0.9478 -0.2260 0.2249
vn 0.9612 0.0029 0.2759
vn -0.6680 -0.5259 0.5265
vn -0.7548 -0.3465 0.5570
vn -0.8090 -0.4322 0.3984
vn -0.6937 -0.6019 0.3955
vn -0.5136 -0.6549 0.5543
vn -0.9314 -0.2993 0.2072
vn 0.9724 0.1774 0.1514
vn -0.9074 -0.0511 0.4172
vn -0.8941 -0.1978 0.4019
vn -0.9605 -0.1023 0.2588
vn -0.9942 -0.0785 0.0737
vn -0.9555 -0.0264 0.2939
vn 0.8755 0.2115 0.4346
vn 0.9412 0.2042 0.2692
vn -0.9029 -0.1357 0.4078
vn -0.7927 -0.4581 0.4022
vn -0.9149 -0.3921 0.0965
vn 0.9194 0.2948 0.2604
vn 0.9460 0.2819 0.1599
vn -0.9061 -0.4193 -0.0552
vn -0.9314 -0.3407 -0.1281
vn -0.8889 -0.4210 -0.1804
vn -0.8405 -0.5351 -0.0851
vn -0.9135 -0.1553 -0.3762
vn -0.9014 -0.2069 -0.3803
vn -0.9635 -0.2175 -0.1560
vn -0.9444 -0.2850 -0.1641
vn -0.9823 -0.1764 -0.0623
vn -0.9504 -0.1291 -0.2829
vn -0.9803 -0.1151 -0.1607
vn 0.9207 0.1832 0.3447
vn 0.9128 0.1803 0.3665
vn -0.9438 -0.0544 -0.3261
vn 0.9225 0.3617 0.1351
vn -0.9239 -0.0397 -0.3806
vn -0.7959 -0.0211 -0.6050
vn 0.8252 0.5647 0.0073
vn 0.7207 0.6796 -0.1374
vn -0.9333 -0.0294 -0.3578
vn 0.7322 0.5298 -0.4281
vn -0.7879 0.0054 -0.6158
vn 0.8238 0.3682 -0.4310
vn -0.6874 0.0849 -0.7213
vn -0.5275 0.0965 -0.8440
vn 0.8894 0.3124 -0.3338
vn 0.8157 0.3212 -0.4812
vn 0.8041 0.2993 -0.5137
vn 0.5741 0.3499 -0.7403
vn -0.4475 0.7436 -0.4967
vn -0.4484 0.4155 -0.7914
vn -0.6643 0.1853 -0.7241
vn -0.4067 0.2140 -0.8881
vn -0.1809 0.3842 -0.9054
vn -0.1774 0.2259 -0.9578
vn 0.1287 0.3793 -0.9163
vn 0.7796 0.4226 -0.4623
vn -0.1142 0.9340 -0.3385
vn 0.3661 0.9298 -0.0375
vn -0.1010 0.6782 -0.7279
vn 0.6914 0.6920 -0.2076
vn 0.5540 0.7949 -0.2475
vn 0.3289 0.8263 -0.4572
vn 0.6906 0.5815 -0.4300
vn 0.5645 0.6591 -0.4968
vn 0.1034 0.6206 -0.7773
vn 0.3571 0.6242 -0.6949
vn 0.4382 0.5175 -0.7349
vn 0.5162 0.4271 -0.7424
vn -0.6979 -0.3619 0.6180
vn -0.7003 -0.4195 0.5776
vn -0.5901 -0.4361 0.6794
vn -0.4810 -0.5565 0.6775
vn -0.2563 -0.7396 0.6223
vn -0.3757 -0.6847 0.6245
vn -0.1099 -0.8804 0.4613
vn 0.0715 -0.8830 0.4639
vn 0.3471 -0.8525 0.3908
vn 0.6344 -0.7445 0.2079
vn 0.6212 -0.7831 0.0293
vn 0.3948 -0.8998 0.1859
vn 0.8132 -0.5760 0.0830
vn 0.9348 -0.3549 0.0120
vn 0.7791 -0.6175 -0.1082
vn 0.8642 -0.4749 -0.1662
vn 0.7275 -0.6335 -0.2635
vn -0.6482 -0.4574 0.6088
vn 0.9934 -0.0952 0.0645
vn 0.9125 -0.3538 -0.2053
vn 0.9577 -0.2403 -0.1585
vn 0.8971 -0.2400 -0.3709
vn -0.6765 -0.6153 0.4047
vn -0.7148 -0.4958 0.4932
vn -0.5471 -0.5854 0.5983
vn -0.5106 -0.5740 0.6402
vn 0.9623 0.1214 0.2434
vn 0.9971 0.0730 0.0208
vn 0.9834 -0.1099 -0.1445
vn 0.9573 -0.0740 -0.2795
vn 0.9663 0.0341 -0.2552
vn 0.9823 0.1369 -0.1277
vn -0.8760 -0.4155 0.2449
vn -0.9850 -0.1625 0.0580
vn -0.9313 -0.3449 0.1173
vn -0.9593 -0.2476 0.1357
vn -0.9870 -0.1577 -0.0307
vn -0.9907 -0.0242 -0.1338
vn 0.9528 0.2409 0.1846
vn -0.8318 -0.5300 -0.1651
vn -0.8353 -0.4139 -0.3620
vn -0.9014 -0.2897 -0.3219
vn -0.8321 -0.1835 -0.5235
vn -0.8230 -0.0927 -0.5604
vn -0.8614 -0.0449 -0.5059
vn -0.7420 -0.0109 -0.6703
vn -0.7323 -0.0480 -0.6793
vn 0.9539 0.2804 0.1073
vn -0.7436 0.0298 -0.6680
vn 0.8854 0.4198 -0.1994
vn 0.8941 0.4055 -0.1901
vn -0.6688 0.0426 -0.7422
vn 0.7654 0.6313 -0.1250
vn 0.7122 0.6801 -0.1737
vn 0.6515 0.6945 -0.3053
vn 0.7659 0.6107 -0.2010
vn 0.8589 0.5103 -0.0435
vn -0.6589 0.0658 -0.7493
vn 0.7293 0.6252 -0.2779
vn 0.6583 0.6700 -0.3432
vn 0.6405 0.7316 -0.2336
vn -0.4540 0.1164 -0.8834
vn 0.7582 0.3389 -0.5570
vn 0.8476 0.3202 -0.4231
vn 0.1135 0.2804 -0.9531
vn 0.5260 0.3403 -0.7794
vn -0.5892 -0.6029 0.5380
vn -0.4698 -0.6696 0.5752
vn -0.4337 -0.7860 0.4407
vn -0.3136 -0.8088 0.4974
vn -0.0318 -0.9500 0.3108
vn 0.2344 -0.9714 0.0386
vn 0.3404 -0.9346 0.1034
vn -0.1895 -0.9363 0.2958
vn -0.7541 -0.4402 0.4875
vn 0.6106 -0.7781 -0.1474
vn 0.5729 -0.7882 -0.2247
vn 0.7017 -0.6061 -0.3745
vn 0.7497 -0.4985 -0.4353
vn 0.8070 -0.4732 -0.3534
vn 0.7807 -0.3855 -0.4919
vn 0.7428 -0.4310 -0.5124
vn 0.8490 -0.3517 -0.3943
vn 0.8083 -0.2517 -0.5323
vn -0.9065 -0.2912 0.3058
vn 0.8868 -0.1003 -0.4510
vn 0.8202 -0.1024 -0.5628
vn 0.9032 0.0296 -0.4282
vn -0.9883 -0.1286 0.0820
vn -0.9992 0.0348 -0.0201
vn -0.9972 -0.0093 0.0736
vn 0.9475 0.1208 -0.2961
vn -0.9788 0.0296 -0.2024
vn -0.9907 0.0454 -0.1279
vn 0.9806 0.1865 -0.0597
vn -0.8862 -0.3884 -0.2525
vn 0.9597 0.2642 0.0962
vn -0.8673 -0.2824 -0.4100
vn -0.8591 -0.3168 -0.4019
vn -0.7872 -0.2392 -0.5684
vn -0.7635 -0.1464 -0.6289
vn -0.6666 -0.0470 -0.7440
vn -0.6952 -0.0712 -0.7153
vn 0.9475 0.3192 0.0207
vn 0.9251 0.3796 0.0133
vn -0.5945 0.0320 -0.8035
vn 0.8085 0.4031 -0.4287
vn -0.4368 0.1516 -0.8867
vn -0.5391 0.0841 -0.8380
vn 0.8069 0.5224 -0.2757
vn 0.8666 0.4751 -0.1528
vn 0.8331 0.4466 -0.3263
vn 0.5836 0.6513 -0.4850
vn 0.5562 0.6175 -0.5562
vn 0.6958 0.6350 -0.3357
vn 0.7209 0.5464 -0.4263
vn -0.3042 0.1563 -0.9397
vn -0.1252 0.2058 -0.9705
vn 0.0807 0.2945 -0.9522
vn 0.5139 0.5141 -0.6867
vn 0.5544 0.3826 -0.7391
vn 0.3630 0.2902 -0.8855
vn 0.3018 0.3058 -0.9030
vn -0.6452 -0.6411 0.4157
vn -0.7396 -0.5002 0.4503
vn -0.5048 -0.7720 0.3862
vn -0.2608 -0.9471 0.1872
vn 0.1901 -0.9736 -0.1259
vn 0.4836 -0.8524 -0.1987
vn 0.5236 -0.7646 -0.3758
vn 0.6573 -0.6459 -0.3884
vn 0.6716 -0.5480 -0.4986
vn -0.4750 -0.5565 0.6817
vn -0.5107 -0.5479 0.6626
vn -0.4132 -0.5851 0.6978
vn -0.6042 -0.5681 0.5587
vn -0.7754 -0.4249 0.4671
vn 0.7671 -0.1912 -0.6124
vn -0.9848 -0.1534 0.0820
vn 0.8027 -0.0558 -0.5938
vn -0.9908 0.1231 0.0560
vn -0.9830 0.1546 -0.0994
vn 0.9563 0.1869 -0.2250
vn 0.9561 0.2693 -0.1157
vn 0.9120 0.2200 -0.3463
vn -0.7780 -0.2103 -0.5920
vn 0.9333 0.3586 0.0192
vn 0.9248 0.3249 -0.1982
vn -0.6713 -0.0032 -0.7411
vn -0.5932 0.0623 -0.8026
vn 0.8438 0.3644 -0.3939
vn 0.9092 0.3488 -0.2274
vn 0.8724 0.4072 -0.2704
vn 0.7728 0.4507 -0.4468
vn -0.2805 0.1682 -0.9450
vn -0.2187 0.2242 -0.9497
vn 0.6145 0.4083 -0.6751
vn 0.6381 0.4525 -0.6230
vn 0.7122 0.3649 -0.5997
vn -0.0952 0.2728 -0.9574
vn 0.7581 0.4298 -0.4905
vn 0.2432 0.4117 -0.8783
vn -0.0101 0.3675 -0.9300
vn 0.3266 0.5246 -0.7862
vn 0.3194 0.5297 -0.7857
vn 0.1513 0.4329 -0.8886
vn 0.4660 0.5890 -0.6603
vn 0.6365 0.5189 -0.5706
vn 0.4786 0.4740 -0.7391
vn 0.5557 0.3765 -0.7412
vn 0.3004 0.3899 -0.8705
vn -0.6685 -0.6933 0.2693
vn -0.5261 -0.8294 0.1876
vn -0.4435 -0.8951 -0.0466
vn -0.3699 -0.9225 0.1100
vn 0.0100 -0.9729 -0.2308
vn -0.1617 -0.9490 -0.2706
vn 0.1591 -0.8024 -0.5751
vn 0.3060 -0.8222 -0.4799
vn 0.3809 -0.6643 -0.6431
vn 0.5079 -0.6996 -0.5026
vn -0.0957 -0.8822 -0.4611
vn 0.3293 -0.6155 -0.7161
vn 0.5843 -0.5231 -0.6204
vn -0.5652 -0.5945 0.5720
vn -0.6672 -0.4494 0.5940
vn -0.5070 -0.5276 0.6816
vn 0.5024 -0.5071 -0.7003
vn 0.6710 -0.4192 -0.6116
vn 0.7443 -0.3053 -0.5939
vn 0.5698 -0.4054 -0.7149
vn 0.6676 -0.3137 -0.6752
vn 0.7109 -0.2265 -0.6658
vn 0.6965 -0.1750 -0.6959
vn -0.9142 -0.2990 0.2736
vn -0.9707 -0.2196 0.0978
vn -0.9733 -0.1912 0.1268
vn 0.7588 -0.1268 -0.6389
vn -0.9818 -0.1337 -0.1351
vn -0.9947 -0.0730 -0.0720
vn 0.8306 0.0094 -0.5568
vn -0.9971 0.0539 0.0539
vn -0.9859 0.1671 0.0006
vn -0.9863 0.0644 -0.1520
vn -0.9667 0.2065 -0.1513
vn -0.9267 0.1950 -0.3213
vn 0.8723 0.0619 -0.4851
vn 0.8426 0.1000 -0.5291
vn 0.7531 0.0656 -0.6546
vn 0.7565 0.1569 -0.6349
vn -0.9343 0.0506 -0.3528
vn -0.9190 -0.1218 -0.3750
vn -0.8287 -0.1438 -0.5410
vn 0.8543 0.1440 -0.4994
vn 0.8462 0.2714 -0.4585
vn -0.7831 0.0522 -0.6197
vn 0.7076 0.2386 -0.6651
vn 0.7649 0.3493 -0.5412
vn -0.5147 0.1246 -0.8483
vn -0.3419 0.2393 -0.9087
vn 0.7413 0.3991 -0.5396
vn 0.6088 0.3965 -0.6871
vn 0.4797 0.4518 -0.7522
vn 0.4249 0.4228 -0.8004
vn -0.2279 0.3110 -0.9227
vn 0.1049 0.3485 -0.9314
vn 0.4054 0.3076 -0.8608
vn 0.1428 0.3104 -0.9398
vn -0.7107 -0.5184 0.4755
vn -0.7088 -0.6052 0.3624
vn -0.7131 -0.5860 0.3848
vn -0.7814 -0.6201 0.0699
vn -0.7193 -0.6118 0.3290
vn -0.6911 -0.7161 0.0976
vn -0.5173 -0.8531 -0.0685
vn -0.1045 -0.8300 -0.5479
vn 0.2226 -0.6692 -0.7090
vn -0.4687 -0.8514 -0.2353
vn 0.4177 -0.4979 -0.7600
vn -0.8447 -0.4285 0.3208
vn -0.9656 -0.2590 0.0249
vn -0.8860 -0.4496 0.1137
vn -0.9398 -0.2799 -0.1959
vn 0.6147 -0.2601 -0.7447
vn 0.5238 -0.3783 -0.7633
vn 0.4436 -0.4094 -0.7972
vn 0.5440 -0.2675 -0.7953
vn -0.9555 -0.1304 -0.2647
vn 0.6006 -0.1662 -0.7821
vn 0.6344 -0.0877 -0.7680
vn 0.6855 -0.1319 -0.7160
vn 0.5606 -0.0967 -0.8224
vn 0.5138 -0.1453 -0.8455
vn 0.7293 -0.0801 -0.6795
vn -0.8639 -0.0435 -0.5017
vn 0.7471 -0.0032 -0.6647
vn 0.6688 -0.0288 -0.7429
vn -0.9216 0.1441 -0.3604
vn -0.9127 0.0089 -0.4086
vn -0.8120 0.1805 -0.5550
vn -0.7135 0.0517 -0.6988
vn 0.6755 0.0549 -0.7353
vn 0.5838 0.0468 -0.8106
vn -0.9252 0.2346 -0.2983
vn 0.6452 0.1221 -0.7542
vn -0.7409 0.1556 -0.6534
vn -0.6315 0.1253 -0.7652
vn -0.8066 0.1109 -0.5806
vn -0.4650 0.1483 -0.8728
vn -0.5876 0.1868 -0.7873
vn -0.2352 0.2578 -0.9371
vn -0.3966 0.2228 -0.8905
vn -0.4860 0.1462 -0.8617
vn 0.5402 0.1908 -0.8197
vn 0.4872 0.1134 -0.8659
vn 0.5184 0.3808 -0.7657
vn 0.6695 0.3265 -0.6673
vn 0.5824 0.2776 -0.7640
vn -0.1826 0.2130 -0.9598
vn 0.0678 0.3879 -0.9192
vn 0.2399 0.4715 -0.8486
vn 0.3298 0.4728 -0.8171
vn 0.3676 0.4182 -0.8306
vn -0.1172 0.3091 -0.9438
vn -0.8807 -0.4562 -0.1277
vn -0.7710 -0.5533 -0.3153
vn -0.8364 -0.3517 -0.4204
vn -0.6961 -0.4246 -0.5789
vn -0.7399 -0.6709 0.0493
vn -0.6427 -0.6871 -0.3389
vn -0.5610 -0.4993 -0.6602
vn -0.5247 -0.3500 -0.7761
vn -0.5576 -0.7715 -0.3065
vn -0.3002 -0.7434 -0.5977
vn 0.0087 -0.7012 -0.7129
vn -0.0156 -0.5640 -0.8256
vn -0.4255 -0.6370 -0.6428
vn -0.2861 -0.5025 -0.8159
vn 0.2640 -0.5476 -0.7940
vn -0.8807 -0.1639 -0.4443
vn -0.7132 -0.2638 -0.6494
vn -0.6885 -0.1085 -0.7171
vn -0.6120 0.0322 -0.7902
vn 0.4074 -0.2818 -0.8687
vn 0.3608 0.0090 -0.9326
vn 0.5611 -0.0299 -0.8272
vn -0.4239 0.0947 -0.9008
vn 0.4680 0.0363 -0.8830
vn -0.3556 0.1129 -0.9278
vn -0.3363 0.1614 -0.9278
vn -0.1451 0.1125 -0.9830
vn -0.2559 0.2030 -0.9452
vn 0.0434 0.2238 -0.9737
vn 0.0543 0.1580 -0.9859
vn 0.2894 0.1550 -0.9446
vn 0.1729 0.0973 -0.9801
vn -0.2054 0.3294 -0.9216
vn -0.0720 0.2870 -0.9552
vn 0.2096 0.3625 -0.9081
vn 0.3673 0.2495 -0.8960
vn 0.0391 0.4125 -0.9101
vn 0.4463 0.3378 -0.8287
vn -0.3315 -0.3410 -0.8797
vn -0.0578 -0.3384 -0.9392
vn 0.2708 -0.3941 -0.8782
vn -0.4732 -0.1348 -0.8706
vn -0.2560 -0.1545 -0.9543
vn -0.3338 0.0421 -0.9417
vn 0.0356 -0.2355 -0.9712
vn 0.3103 -0.1339 -0.9412
vn -0.1594 -0.0044 -0.9872
vn 0.0293 -0.0753 -0.9967
vn 0.0503 0.0605 -0.9969
vn 0.3800 0.0711 -0.9222
s 1
usemtl mtl1.144
f 1//1 3//2 8//3
f 2//4 1//1 8//3
f 25//5 4//6 1//1
f 1//1 4//6 3//2
f 4//6 19//7 5//8
f 3//2 4//6 5//8
f 5//8 19//7 31//9
f 3//2 5//8 6//10
f 5//8 31//9 6//10
f 39//11 2//4 8//3
f 8//3 3//2 7//12
f 6//10 9//13 7//12
f 3//2 6//10 7//12
f 6//10 31//9 9//13
f 31//9 33//14 9//13
f 7//12 39//11 8//3
f 39//11 7//12 45//15
f 9//13 36//16 7//12
f 33//14 36//16 9//13
f 45//15 7//12 36//16
f 10//17 94//18 11//19
f 18//20 10//17 11//19
f 97//21 12//22 24//23
f 97//21 92//24 12//22
f 13//25 26//26 14//27
f 18//20 16//28 13//25
f 15//29 10//17 14//27
f 26//26 15//29 14//27
f 18//20 14//27 10//17
f 14//27 18//20 13//25
f 15//29 26//26 12//22
f 92//24 15//29 12//22
f 16//28 17//30 4//6
f 19//7 4//6 17//30
f 11//19 16//28 18//20
f 20//31 19//7 17//30
f 17//30 16//28 20//31
f 19//7 27//32 31//9
f 20//31 21//33 19//7
f 21//33 27//32 19//7
f 21//33 102//34 27//32
f 21//33 100//35 102//34
f 101//36 23//37 29//38
f 101//36 29//38 103//39
f 30//40 26//26 1//1
f 30//40 22//41 26//26
f 23//37 22//41 30//40
f 32//42 23//37 30//40
f 22//41 12//22 26//26
f 22//41 24//23 12//22
f 23//37 24//23 22//41
f 13//25 25//5 26//26
f 4//6 25//5 13//25
f 1//1 26//26 25//5
f 13//25 16//28 4//6
f 28//43 34//44 31//9
f 27//32 28//43 31//9
f 102//34 28//43 27//32
f 23//37 32//42 29//38
f 32//42 30//40 2//4
f 2//4 30//40 1//1
f 34//44 33//14 31//9
f 32//42 2//4 35//45
f 32//42 35//45 29//38
f 2//4 39//11 38//46
f 40//47 35//45 2//4
f 38//46 40//47 2//4
f 29//38 35//45 106//48
f 103//39 29//38 106//48
f 33//14 47//49 36//16
f 34//44 47//49 33//14
f 44//50 40//47 38//46
f 35//45 40//47 37//51
f 42//52 35//45 37//51
f 38//46 39//11 43//53
f 39//11 45//15 43//53
f 36//16 47//49 46//54
f 38//46 43//53 44//50
f 44//50 37//51 40//47
f 41//55 42//52 37//51
f 44//50 41//55 37//51
f 36//16 48//56 45//15
f 43//53 45//15 48//56
f 36//16 49//57 48//56
f 46//54 49//57 36//16
f 47//49 50//58 46//54
f 34//44 108//59 47//49
f 110//60 50//58 108//59
f 108//59 50//58 47//49
f 58//61 41//55 44//50
f 43//53 51//62 44//50
f 43//53 48//56 51//62
f 54//63 53//64 49//57
f 49//57 50//58 54//63
f 49//57 46//54 50//58
f 50//58 112//65 54//63
f 110//60 112//65 50//58
f 51//62 48//56 52//66
f 51//62 52//66 60//67
f 48//56 53//64 52//66
f 44//50 51//62 58//61
f 48//56 49//57 53//64
f 54//63 57//68 53//64
f 54//63 112//65 57//68
f 52//66 53//64 55//69
f 56//70 55//69 53//64
f 56//70 121//71 55//69
f 53//64 57//68 56//70
f 56//70 57//68 121//71
f 59//72 58//61 51//62
f 58//61 119//73 41//55
f 59//72 118//74 58//61
f 60//67 127//75 59//72
f 128//76 59//72 127//75
f 60//67 52//66 55//69
f 51//62 60//67 59//72
f 60//67 55//69 61//77
f 121//71 61//77 55//69
f 61//77 138//78 60//67
f 66//79 65//80 148//81
f 69//82 63//83 62//84
f 62//84 64//85 71//86
f 63//83 70//87 155//88
f 69//82 70//87 63//83
f 66//79 67//89 64//85
f 64//85 67//89 72//90
f 67//89 158//91 72//90
f 158//91 78//92 72//90
f 72//90 71//86 64//85
f 63//83 155//88 65//80
f 65//80 62//84 63//83
f 64//85 62//84 65//80
f 65//80 66//79 64//85
f 66//79 147//93 67//89
f 75//94 70//87 69//82
f 68//95 69//82 62//84
f 68//95 77//96 76//97
f 68//95 76//97 69//82
f 75//94 69//82 76//97
f 71//86 72//90 77//96
f 72//90 78//92 77//96
f 62//84 71//86 68//95
f 71//86 77//96 68//95
f 171//98 73//99 79//100
f 171//98 74//101 73//99
f 74//101 75//94 73//99
f 75//94 76//97 73//99
f 76//97 81//102 73//99
f 177//103 171//98 82//104
f 81//102 80//105 79//100
f 80//105 81//102 77//96
f 81//102 79//100 73//99
f 76//97 77//96 81//102
f 85//106 80//105 77//96
f 77//96 78//92 85//106
f 82//104 90//107 89//108
f 171//98 83//109 82//104
f 171//98 79//100 83//109
f 82//104 83//109 90//107
f 79//100 80//105 83//109
f 80//105 84//110 83//109
f 80//105 85//106 84//110
f 83//109 84//110 96//111
f 85//106 78//92 182//112
f 85//106 182//112 84//110
f 178//113 86//114 94//18
f 93//115 86//114 88//116
f 95//117 93//115 87//118
f 88//116 179//119 87//118
f 179//119 89//108 87//118
f 87//118 93//115 88//116
f 89//108 90//107 87//118
f 90//107 95//117 87//118
f 90//107 83//109 96//111
f 84//110 91//120 96//111
f 92//24 97//21 181//121
f 93//115 11//19 94//18
f 11//19 93//115 16//28
f 93//115 20//31 16//28
f 20//31 93//115 99//122
f 93//115 94//18 86//114
f 93//115 95//117 99//122
f 90//107 100//35 95//117
f 96//111 100//35 90//107
f 183//123 97//21 186//124
f 98//125 15//29 92//24
f 10//17 15//29 98//125
f 98//125 92//24 178//113
f 94//18 10//17 98//125
f 178//113 94//18 98//125
f 20//31 100//35 21//33
f 20//31 99//122 100//35
f 100//35 99//122 95//117
f 97//21 24//23 186//124
f 102//34 100//35 187//126
f 101//36 103//39 189//127
f 24//23 23//37 101//36
f 184//128 24//23 101//36
f 104//129 34//44 28//43
f 28//43 102//34 104//129
f 187//126 188//130 102//34
f 103//39 199//131 189//127
f 105//132 104//129 102//34
f 192//133 104//129 105//132
f 196//134 104//129 192//133
f 199//131 103//39 106//48
f 104//129 196//134 34//44
f 196//134 107//135 34//44
f 106//48 35//45 42//52
f 109//136 107//135 204//137
f 107//135 202//138 204//137
f 42//52 198//139 106//48
f 208//140 198//139 42//52
f 107//135 108//59 34//44
f 108//59 107//135 109//136
f 111//141 112//65 110//60
f 110//60 108//59 111//141
f 108//59 109//136 111//141
f 208//140 42//52 114//142
f 112//65 111//141 113//143
f 111//141 109//136 113//143
f 109//136 203//144 113//143
f 113//143 203//144 210//145
f 42//52 41//55 114//142
f 114//142 41//55 119//73
f 208//140 114//142 117//146
f 112//65 116//147 57//68
f 121//71 57//68 115//148
f 57//68 116//147 115//148
f 112//65 113//143 116//147
f 116//147 113//143 210//145
f 124//149 120//150 130//151
f 117//146 120//150 124//149
f 119//73 58//61 118//74
f 118//74 59//72 128//76
f 120//150 119//73 118//74
f 120//150 118//74 130//151
f 130//151 118//74 128//76
f 119//73 120//150 117//146
f 117//146 114//142 119//73
f 138//78 127//75 60//67
f 61//77 121//71 138//78
f 138//78 121//71 139//152
f 139//152 121//71 122//153
f 115//148 122//153 121//71
f 115//148 116//147 122//153
f 116//147 210//145 222//154
f 122//153 116//147 222//154
f 130//151 131//155 123//156
f 123//156 124//149 130//151
f 125//157 126//158 123//156
f 123//156 134//159 125//157
f 125//157 134//159 143//160
f 123//156 126//158 124//149
f 126//158 219//161 124//149
f 124//149 219//161 117//146
f 128//76 127//75 129//162
f 129//162 132//163 128//76
f 128//76 131//155 130//151
f 132//163 131//155 128//76
f 131//155 132//163 134//159
f 138//78 133//164 129//162
f 129//162 135//165 132//163
f 129//162 133//164 135//165
f 134//159 132//163 135//165
f 134//159 123//156 131//155
f 133//164 137//166 135//165
f 134//159 135//165 136//167
f 137//166 133//164 141//168
f 137//166 136//167 135//165
f 143//160 134//159 136//167
f 138//78 129//162 127//75
f 139//152 140//169 138//78
f 140//169 133//164 138//78
f 139//152 142//170 140//169
f 141//168 133//164 140//169
f 141//168 140//169 142//170
f 142//170 139//152 122//153
f 142//170 122//153 222//154
f 141//168 142//170 231//171
f 222//154 231//171 142//170
f 136//167 144//172 143//160
f 137//166 144//172 136//167
f 137//166 141//168 226//173
f 144//172 137//166 226//173
f 226//173 141//168 231//171
f 145//174 146//175 150//176
f 150//176 146//175 151//177
f 146//175 153//178 151//177
f 146//175 241//179 153//178
f 241//179 243//180 153//178
f 155//88 345//181 239//182
f 65//80 155//88 148//81
f 147//93 66//79 148//81
f 236//183 148//81 155//88
f 236//183 155//88 239//182
f 145//174 147//93 148//81
f 147//93 150//176 156//184
f 156//184 150//176 149//185
f 147//93 145//174 150//176
f 150//176 151//177 149//185
f 151//177 152//186 149//185
f 149//185 152//186 161//187
f 153//178 152//186 151//177
f 153//178 154//188 152//186
f 153//178 243//180 154//188
f 154//188 161//187 152//186
f 154//188 248//189 247//190
f 154//188 247//190 161//187
f 70//87 168//191 155//88
f 155//88 168//191 345//181
f 147//93 156//184 67//89
f 156//184 157//192 67//89
f 156//184 149//185 157//192
f 67//89 157//192 158//91
f 158//91 157//192 159//193
f 159//193 160//194 158//91
f 157//192 149//185 159//193
f 161//187 159//193 149//185
f 159//193 161//187 160//194
f 160//194 161//187 254//195
f 254//195 161//187 247//190
f 170//196 162//197 165//198
f 171//98 170//196 165//198
f 252//199 165//198 162//197
f 255//200 163//201 169//202
f 255//200 169//202 262//203
f 252//199 162//197 249//204
f 170//196 163//201 162//197
f 171//98 166//205 74//101
f 165//198 164//206 171//98
f 166//205 171//98 164//206
f 167//207 166//205 164//206
f 164//206 252//199 167//207
f 252//199 164//206 165//198
f 75//94 74//101 166//205
f 75//94 166//205 167//207
f 168//191 70//87 167//207
f 167//207 70//87 75//94
f 168//191 167//207 253//208
f 170//196 171//98 172//209
f 169//202 170//196 172//209
f 172//209 262//203 169//202
f 169//202 163//201 170//196
f 158//91 173//210 78//92
f 160//194 173//210 158//91
f 160//194 174//211 173//210
f 160//194 263//212 174//211
f 172//209 171//98 177//103
f 172//209 177//103 175//213
f 175//213 264//214 172//209
f 262//203 172//209 264//214
f 173//210 182//112 78//92
f 264//214 176//215 178//113
f 89//108 179//119 177//103
f 179//119 176//215 175//213
f 177//103 179//119 175//213
f 176//215 264//214 175//213
f 89//108 177//103 82//104
f 173//210 180//216 182//112
f 180//216 173//210 174//211
f 268//217 180//216 174//211
f 178//113 88//116 86//114
f 179//119 88//116 178//113
f 176//215 179//119 178//113
f 182//112 96//111 91//120
f 84//110 182//112 91//120
f 182//112 180//216 273//218
f 183//123 181//121 97//21
f 181//121 183//123 269//219
f 266//220 92//24 181//121
f 266//220 181//121 270//221
f 269//219 270//221 181//121
f 92//24 266//220 178//113
f 269//219 183//123 186//124
f 186//124 272//222 269//219
f 96//111 188//130 187//126
f 96//111 182//112 188//130
f 273//218 188//130 182//112
f 272//222 185//223 274//224
f 186//124 24//23 184//128
f 186//124 184//128 185//223
f 272//222 186//124 185//223
f 187//126 100//35 96//111
f 184//128 101//36 189//127
f 190//225 184//128 189//127
f 185//223 184//128 190//225
f 190//225 189//127 191//226
f 274//224 185//223 190//225
f 274//224 190//225 191//226
f 191//226 189//127 199//131
f 276//227 199//131 200//228
f 193//229 192//133 105//132
f 102//34 188//130 105//132
f 188//130 193//229 105//132
f 193//229 196//134 192//133
f 193//229 282//230 196//134
f 282//230 193//229 188//130
f 194//231 107//135 196//134
f 196//134 197//232 194//231
f 194//231 197//232 195//233
f 194//231 195//233 202//138
f 195//233 197//232 284//234
f 199//131 106//48 198//139
f 198//139 208//140 199//131
f 200//228 199//131 288//235
f 202//138 107//135 194//231
f 204//137 202//138 195//233
f 195//233 286//236 204//137
f 201//237 204//137 286//236
f 203//144 205//238 206//239
f 203//144 109//136 204//137
f 205//238 203//144 204//137
f 204//137 201//237 205//238
f 287//240 205//238 201//237
f 206//239 210//145 203//144
f 208//140 207//241 199//131
f 288//235 199//131 207//241
f 207//241 208//140 288//235
f 210//145 206//239 298//242
f 208//140 117//146 218//243
f 288//235 208//140 209//244
f 211//245 219//161 212//246
f 212//246 219//161 213//247
f 213//247 219//161 220//248
f 220//248 214//249 213//247
f 221//250 211//245 215//251
f 215//251 211//245 212//246
f 215//251 212//246 216//252
f 216//252 212//246 213//247
f 216//252 213//247 217//253
f 217//253 213//247 214//249
f 294//254 221//250 215//251
f 216//252 293//255 215//251
f 293//255 294//254 215//251
f 216//252 217//253 293//255
f 218//243 117//146 219//161
f 220//248 126//158 125//157
f 126//158 220//248 219//161
f 208//140 218//243 211//245
f 211//245 218//243 219//161
f 208//140 211//245 209//244
f 220//248 125//157 214//249
f 221//250 209//244 211//245
f 209//244 221//250 288//235
f 294//254 288//235 221//250
f 210//145 298//242 223//256
f 223//256 222//154 210//145
f 222//154 223//256 232//257
f 224//258 125//157 143//160
f 225//259 224//258 143//160
f 227//260 225//259 143//160
f 214//249 125//157 224//258
f 303//261 214//249 224//258
f 303//261 224//258 304//262
f 305//263 304//262 225//259
f 304//262 224//258 225//259
f 225//259 227//260 305//263
f 305//263 227//260 229//264
f 214//249 302//265 217//253
f 303//261 302//265 214//249
f 304//262 305//263 309//266
f 226//173 231//171 233//267
f 227//260 144//172 228//268
f 144//172 226//173 228//268
f 143//160 144//172 227//260
f 233//267 228//268 226//173
f 230//269 228//268 233//267
f 230//269 229//264 228//268
f 227//260 228//268 229//264
f 229//264 230//269 311//270
f 233//267 321//271 312//272
f 233//267 232//257 321//271
f 311//270 230//269 312//272
f 230//269 233//267 312//272
f 222//154 232//257 231//171
f 231//171 232//257 233//267
f 232//257 223//256 322//273
f 321//271 232//257 322//273
f 327//274 324//275 236//183
f 234//276 235//277 145//174
f 235//277 240//278 145//174
f 234//276 145//174 148//81
f 237//279 240//278 235//277
f 235//277 238//280 237//279
f 148//81 236//183 234//276
f 235//277 234//276 238//280
f 236//183 324//275 234//276
f 237//279 242//281 240//278
f 238//280 328//282 237//279
f 237//279 328//282 329//283
f 329//283 337//284 244//285
f 236//183 239//182 327//274
f 154//188 243//180 248//189
f 145//174 240//278 146//175
f 241//179 146//175 240//278
f 240//278 242//281 241//179
f 243//180 241//179 242//281
f 237//279 244//285 242//281
f 244//285 245//286 243//180
f 242//281 244//285 243//180
f 243//180 245//286 246//287
f 237//279 329//283 244//285
f 245//286 338//288 246//287
f 245//286 244//285 337//284
f 338//288 245//286 337//284
f 346//289 246//287 338//288
f 345//181 168//191 343//290
f 343//290 168//191 253//208
f 248//189 243//180 246//287
f 247//190 248//189 246//287
f 246//287 346//289 247//190
f 249//204 256//291 250//292
f 251//293 249//204 250//292
f 252//199 251//293 407//294
f 252//199 249//204 251//293
f 251//293 250//292 351//295
f 252//199 407//294 167//207
f 407//294 253//208 167//207
f 353//296 254//195 247//190
f 255//200 262//203 258//297
f 257//298 255//200 259//299
f 351//295 257//298 259//299
f 352//300 351//295 259//299
f 259//299 261//301 352//300
f 162//197 256//291 249//204
f 162//197 163//201 256//291
f 257//298 163//201 255//200
f 256//291 163//201 257//298
f 257//298 250//292 256//291
f 250//292 257//298 351//295
f 160//194 254//195 260//302
f 354//303 260//302 254//195
f 258//297 262//203 261//301
f 259//299 258//297 261//301
f 259//299 255//200 258//297
f 263//212 160//194 260//302
f 264//214 265//304 262//203
f 265//304 261//301 262//203
f 263//212 260//302 354//303
f 178//113 267//305 265//304
f 267//305 356//306 265//304
f 264//214 178//113 265//304
f 268//217 174//211 263//212
f 178//113 266//220 267//305
f 266//220 356//306 267//305
f 273//218 180//216 268//217
f 273//218 268//217 424//307
f 268//217 263//212 479//308
f 268//217 479//308 424//307
f 271//309 269//219 272//222
f 271//309 272//222 360//310
f 358//311 270//221 271//309
f 270//221 269//219 271//309
f 357//312 266//220 270//221
f 273//218 424//307 188//130
f 364//313 363//314 275//315
f 361//316 274//224 275//315
f 360//310 272//222 274//224
f 360//310 274//224 361//316
f 363//314 361//316 275//315
f 275//315 277//317 279//318
f 279//318 277//317 278//319
f 275//315 274//224 191//226
f 275//315 191//226 277//317
f 279//318 364//313 275//315
f 188//130 366//320 280//321
f 191//226 276//227 277//317
f 191//226 199//131 276//227
f 276//227 278//319 277//317
f 276//227 200//228 278//319
f 278//319 200//228 281//322
f 281//322 279//318 278//319
f 280//321 366//320 369//323
f 200//228 283//324 281//322
f 281//322 283//324 379//325
f 196//134 282//230 197//232
f 280//321 282//230 188//130
f 282//230 280//321 369//323
f 282//230 369//323 197//232
f 197//232 369//323 284//234
f 195//233 284//234 286//236
f 286//236 284//234 372//326
f 286//236 372//326 285//327
f 283//324 200//228 288//235
f 201//237 286//236 285//327
f 287//240 201//237 285//327
f 283//324 288//235 289//328
f 205//238 437//329 206//239
f 205//238 287//240 437//329
f 288//235 294//254 289//328
f 289//328 290//330 283//324
f 290//330 379//325 283//324
f 437//329 442//331 206//239
f 294//254 290//330 289//328
f 294//254 292//332 290//330
f 292//332 382//333 290//330
f 442//331 291//334 206//239
f 291//334 298//242 206//239
f 298//242 291//334 301//335
f 383//336 301//335 291//334
f 301//335 383//336 381//337
f 306//338 293//255 217//253
f 306//338 308//339 293//255
f 295//340 292//332 294//254
f 295//340 294//254 293//255
f 293//255 308//339 295//340
f 382//333 292//332 295//340
f 295//340 384//341 382//333
f 308//339 384//341 295//340
f 308//339 296//342 384//341
f 384//341 296//342 385//343
f 385//343 296//342 297//344
f 301//335 299//345 298//242
f 302//265 306//338 217//253
f 306//338 302//265 303//261
f 303//261 307//346 306//338
f 307//346 303//261 304//262
f 309//266 307//346 304//262
f 309//266 305//263 313//347
f 305//263 229//264 313//347
f 306//338 307//346 310//348
f 310//348 307//346 309//266
f 308//339 306//338 310//348
f 310//348 296//342 308//339
f 312//272 321//271 315//349
f 313//347 229//264 311//270
f 311//270 312//272 314//350
f 313//347 311//270 314//350
f 312//272 315//349 314//350
f 309//266 313//347 316//351
f 313//347 314//350 316//351
f 315//349 323//352 318//353
f 318//353 314//350 315//349
f 316//351 310//348 309//266
f 310//348 317//354 296//342
f 314//350 318//353 319//355
f 319//355 318//353 320//356
f 323//352 320//356 318//353
f 316//351 317//354 310//348
f 319//355 317//354 316//351
f 314//350 319//355 316//351
f 297//344 296//342 317//354
f 319//355 297//344 317//354
f 297//344 320//356 300//357
f 320//356 297//344 319//355
f 321//271 322//273 315//349
f 298//242 322//273 223//256
f 298//242 299//345 322//273
f 322//273 323//352 315//349
f 322//273 299//345 323//352
f 299//345 300//357 323//352
f 323//352 300//357 320//356
f 336//358 448//359 391//360
f 391//360 390//361 324//275
f 325//362 234//276 324//275
f 324//275 392//363 325//362
f 392//363 393//364 325//362
f 393//364 326//365 325//362
f 238//280 234//276 325//362
f 238//280 330//366 328//282
f 325//362 326//365 238//280
f 238//280 326//365 330//366
f 331//367 330//366 333//368
f 394//369 330//366 326//365
f 333//368 330//366 394//369
f 391//360 327//274 336//358
f 327//274 391//360 324//275
f 331//367 328//282 330//366
f 329//283 328//282 331//367
f 332//370 329//283 331//367
f 332//370 337//284 329//283
f 332//370 339//371 337//284
f 334//372 332//370 331//367
f 335//373 339//371 332//370
f 333//368 334//372 331//367
f 334//372 335//373 332//370
f 333//368 398//374 334//372
f 465//375 336//358 345//181
f 327//274 239//182 345//181
f 327//274 345//181 336//358
f 339//371 338//288 337//284
f 347//376 338//288 339//371
f 335//373 340//377 339//371
f 341//378 339//371 340//377
f 341//378 340//377 403//379
f 407//294 342//380 406//381
f 344//382 253//208 407//294
f 344//382 407//294 408//383
f 344//382 343//290 253//208
f 344//382 465//375 343//290
f 343//290 465//375 345//181
f 348//384 353//296 247//190
f 347//376 346//289 338//288
f 347//376 348//384 346//289
f 348//384 247//190 346//289
f 347//376 350//385 348//384
f 349//386 350//385 347//376
f 353//296 348//384 350//385
f 341//378 347//376 339//371
f 341//378 349//386 347//376
f 410//387 350//385 349//386
f 410//387 411//388 350//385
f 350//385 411//388 415//389
f 251//293 351//295 405//390
f 351//295 413//391 414//392
f 414//392 405//390 351//295
f 413//391 470//393 414//392
f 251//293 342//380 407//294
f 342//380 251//293 405//390
f 354//303 254//195 353//296
f 415//389 353//296 350//385
f 413//391 351//295 352//300
f 352//300 261//301 355//394
f 261//301 265//304 355//394
f 352//300 355//394 416//395
f 265//304 356//306 355//394
f 479//308 263//212 418//396
f 357//312 359//397 421//398
f 357//312 356//306 266//220
f 360//310 362//399 358//311
f 271//309 360//310 358//311
f 421//398 359//397 358//311
f 270//221 358//311 359//397
f 270//221 359//397 357//312
f 360//310 361//316 362//399
f 361//316 363//314 362//399
f 362//399 363//314 422//400
f 363//314 365//401 422//400
f 366//320 188//130 424//307
f 367//402 364//313 279//318
f 364//313 365//401 363//314
f 367//402 365//401 364//313
f 367//402 279//318 281//322
f 368//403 365//401 367//402
f 368//403 425//404 365//401
f 426//405 369//323 366//320
f 281//322 379//325 367//402
f 368//403 367//402 379//325
f 368//403 379//325 370//406
f 489//407 369//323 426//405
f 489//407 427//408 369//323
f 370//406 428//409 368//403
f 285//327 372//326 373//410
f 373//410 377//411 285//327
f 377//411 373//410 371//412
f 432//413 371//412 373//410
f 284//234 369//323 372//326
f 369//323 374//414 372//326
f 373//410 372//326 374//414
f 432//413 373//410 374//414
f 370//406 375//415 428//409
f 285//327 376//416 287//240
f 437//329 287//240 376//416
f 376//416 285//327 439//417
f 376//416 439//417 437//329
f 439//417 285//327 378//418
f 377//411 378//418 285//327
f 377//411 371//412 378//418
f 379//325 375//415 370//406
f 379//325 290//330 375//415
f 290//330 382//333 375//415
f 375//415 382//333 444//419
f 445//420 380//421 442//331
f 380//421 445//420 383//336
f 445//420 381//337 383//336
f 442//331 380//421 291//334
f 380//421 383//336 291//334
f 385//343 444//419 382//333
f 381//337 447//422 386//423
f 385//343 382//333 384//341
f 386//423 300//357 299//345
f 297//344 386//423 447//422
f 300//357 386//423 297//344
f 297//344 447//422 385//343
f 299//345 301//335 386//423
f 386//423 301//335 381//337
f 448//359 452//424 391//360
f 390//361 391//360 387//425
f 452//424 451//426 387//425
f 387//425 391//360 452//424
f 387//425 388//427 392//363
f 390//361 387//425 392//363
f 393//364 392//363 388//427
f 389//428 393//364 388//427
f 451//426 388//427 387//425
f 389//428 456//429 395//430
f 451//426 455//431 388//427
f 388//427 455//431 389//428
f 455//431 456//429 389//428
f 465//375 448//359 336//358
f 505//432 448//359 465//375
f 326//365 393//364 395//430
f 390//361 392//363 324//275
f 395//430 393//364 389//428
f 396//433 333//368 394//369
f 333//368 396//433 398//374
f 326//365 395//430 394//369
f 395//430 396//433 394//369
f 396//433 395//430 460//434
f 396//433 397//435 398//374
f 460//434 395//430 456//429
f 460//434 397//435 396//433
f 398//374 397//435 400//436
f 334//372 399//437 335//373
f 398//374 399//437 334//372
f 400//436 401//438 399//437
f 398//374 400//436 399//437
f 401//438 400//436 462//439
f 335//373 402//440 340//377
f 402//440 403//379 340//377
f 399//437 402//440 335//373
f 401//438 402//440 399//437
f 401//438 404//441 402//440
f 404//441 403//379 402//440
f 342//380 405//390 406//381
f 467//442 406//381 405//390
f 407//294 406//381 408//383
f 344//382 408//383 465//375
f 412//443 468//444 409//445
f 403//379 410//387 349//386
f 403//379 349//386 341//378
f 410//387 409//445 411//388
f 403//379 412//443 410//387
f 412//443 409//445 410//387
f 404//441 412//443 403//379
f 404//441 468//444 412//443
f 470//393 405//390 414//392
f 470//393 413//391 469//446
f 409//445 415//389 411//388
f 417//447 413//391 352//300
f 416//395 417//447 352//300
f 471//448 413//391 417//447
f 415//389 476//449 353//296
f 415//389 409//445 476//449
f 474//450 473//451 416//395
f 474//450 416//395 355//394
f 263//212 354//303 418//396
f 354//303 353//296 418//396
f 475//452 353//296 476//449
f 475//452 418//396 353//296
f 356//306 357//312 419//453
f 419//453 355//394 356//306
f 418//396 475//452 481//454
f 421//398 419//453 357//312
f 421//398 543//455 419//453
f 419//453 543//455 355//394
f 481//454 479//308 418//396
f 421//398 358//311 420//456
f 362//399 420//456 358//311
f 420//456 478//457 421//398
f 421//398 478//457 543//455
f 422//400 420//456 362//399
f 422//400 478//457 420//456
f 422//400 423//458 478//457
f 365//401 425//404 422//400
f 422//400 425//404 423//458
f 484//459 423//458 425//404
f 484//459 483//460 423//458
f 424//307 479//308 485//461
f 490//462 426//405 366//320
f 489//407 426//405 490//462
f 366//320 424//307 490//462
f 425//404 368//403 488//463
f 492//464 427//408 489//407
f 428//409 488//463 368//403
f 554//465 488//463 429//466
f 433//467 431//468 499//469
f 427//408 431//468 369//323
f 431//468 427//408 499//469
f 428//409 429//466 488//463
f 503//470 430//471 371//412
f 371//412 432//413 434//472
f 503//470 371//412 434//472
f 434//472 504//473 503//470
f 369//323 431//468 374//414
f 374//414 431//468 432//413
f 431//468 433//467 432//413
f 433//467 434//472 432//413
f 433//467 504//473 434//472
f 375//415 429//466 428//409
f 429//466 375//415 444//419
f 435//474 429//466 444//419
f 435//474 444//419 385//343
f 435//474 385//343 441//475
f 435//474 441//475 436//476
f 438//477 443//478 437//329
f 438//477 437//329 430//471
f 439//417 430//471 437//329
f 378//418 371//412 439//417
f 371//412 430//471 439//417
f 440//479 436//476 447//422
f 447//422 441//475 385//343
f 447//422 436//476 441//475
f 437//329 443//478 442//331
f 440//479 443//478 436//476
f 440//479 447//422 446//480
f 443//478 445//420 442//331
f 440//479 381//337 443//478
f 445//420 443//478 381//337
f 447//422 381//337 446//480
f 440//479 446//480 381//337
f 452//424 448//359 449//481
f 448//359 450//482 449//481
f 452//424 453//483 451//426
f 453//483 454//484 451//426
f 452//424 449//481 453//483
f 455//431 451//426 454//484
f 456//429 458//485 457//486
f 456//429 457//486 460//434
f 454//484 458//485 455//431
f 455//431 458//485 456//429
f 459//487 457//486 458//485
f 457//486 459//487 461//488
f 450//482 448//359 505//432
f 457//486 461//488 460//434
f 460//434 461//488 397//435
f 397//435 461//488 462//439
f 461//488 463//489 462//439
f 459//487 463//489 461//488
f 462//439 404//441 401//438
f 462//439 400//436 397//435
f 466//490 464//491 517//492
f 517//492 464//491 515//493
f 408//383 406//381 464//491
f 406//381 522//494 464//491
f 408//383 464//491 466//490
f 465//375 408//383 466//490
f 528//495 468//444 404//441
f 406//381 467//442 522//494
f 469//446 413//391 471//448
f 470//393 469//446 533//496
f 405//390 470//393 467//442
f 533//496 467//442 470//393
f 534//497 409//445 468//444
f 471//448 417//447 472//498
f 473//451 417//447 416//395
f 540//499 417//447 473//451
f 540//499 472//498 417//447
f 473//451 474//450 540//499
f 476//449 477//500 475//452
f 475//452 482//501 481//454
f 477//500 482//501 475//452
f 482//501 477//500 545//502
f 478//457 547//503 543//455
f 479//308 481//454 480//504
f 550//505 480//504 482//501
f 482//501 480//504 481//454
f 478//457 423//458 483//460
f 549//506 478//457 483//460
f 549//506 483//460 553//507
f 484//459 553//507 483//460
f 485//461 479//308 550//505
f 550//505 556//508 486//509
f 480//504 550//505 479//308
f 488//463 484//459 425//404
f 484//459 488//463 553//507
f 553//507 488//463 554//465
f 486//509 490//462 485//461
f 490//462 424//307 485//461
f 486//509 487//510 490//462
f 487//510 489//407 490//462
f 489//407 487//510 561//511
f 550//505 486//509 485//461
f 554//465 493//512 562//513
f 560//514 492//464 555//515
f 492//464 560//514 491//516
f 489//407 561//511 492//464
f 435//474 493//512 554//465
f 562//513 493//512 494//517
f 491//516 500//518 492//464
f 492//464 499//469 427//408
f 554//465 429//466 435//474
f 493//512 435//474 494//517
f 435//474 436//476 494//517
f 494//517 436//476 501//519
f 565//520 494//517 501//519
f 502//521 495//522 566//523
f 496//524 497//525 498//526
f 497//525 496//524 503//470
f 498//526 495//522 496//524
f 499//469 504//473 433//467
f 499//469 500//518 504//473
f 504//473 500//518 497//525
f 564//527 497//525 500//518
f 564//527 498//526 497//525
f 564//527 563//528 498//526
f 492//464 500//518 499//469
f 491//516 564//527 500//518
f 438//477 502//521 501//519
f 430//471 502//521 438//477
f 430//471 496//524 502//521
f 496//524 495//522 502//521
f 430//471 503//470 496//524
f 504//473 497//525 503//470
f 436//476 443//478 501//519
f 501//519 443//478 438//477
f 449//481 507//529 506//530
f 506//530 453//483 449//481
f 449//481 450//482 507//529
f 507//529 571//531 506//530
f 508//532 454//484 453//483
f 508//532 509//533 454//484
f 458//485 454//484 509//533
f 453//483 506//530 508//532
f 511//534 509//533 508//532
f 509//533 512//535 510//536
f 510//536 512//535 513//537
f 506//530 511//534 508//532
f 511//534 512//535 509//533
f 571//531 511//534 506//530
f 513//537 514//538 510//536
f 570//539 511//534 571//531
f 570//539 512//535 511//534
f 512//535 572//540 513//537
f 459//487 458//485 514//538
f 458//485 510//536 514//538
f 459//487 514//538 463//489
f 509//533 510//536 458//485
f 520//541 514//538 513//537
f 577//542 518//543 516//544
f 516//544 517//492 577//542
f 519//545 513//537 572//540
f 520//541 513//537 519//545
f 520//541 519//545 521//546
f 463//489 521//546 462//439
f 521//546 525//547 462//439
f 514//538 520//541 463//489
f 520//541 521//546 463//489
f 579//548 524//549 521//546
f 464//491 522//494 515//493
f 466//490 517//492 516//544
f 466//490 516//544 465//375
f 516//544 518//543 465//375
f 505//432 465//375 518//543
f 528//495 523//550 584//551
f 462//439 525//547 404//441
f 525//547 528//495 404//441
f 524//549 525//547 521//546
f 525//547 523//550 528//495
f 524//549 523//550 525//547
f 522//494 467//442 527//552
f 527//552 467//442 526//553
f 526//553 467//442 529//554
f 531//555 528//495 584//551
f 528//495 531//555 468//444
f 530//556 529//554 533//496
f 533//496 532//557 530//556
f 468//444 531//555 534//497
f 469//446 532//557 533//496
f 529//554 467//442 533//496
f 534//497 537//558 409//445
f 535//559 471//448 472//498
f 471//448 532//557 469//446
f 471//448 535//559 532//557
f 538//560 535//559 472//498
f 538//560 536//561 535//559
f 536//561 538//560 539//562
f 536//561 532//557 535//559
f 472//498 540//499 538//560
f 540//499 539//562 538//560
f 596//563 539//562 540//499
f 541//564 476//449 409//445
f 542//565 476//449 541//564
f 537//558 594//566 541//564
f 594//566 542//565 541//564
f 542//565 594//566 606//567
f 537//558 541//564 409//445
f 596//563 540//499 474//450
f 355//394 597//568 474//450
f 597//568 596//563 474//450
f 355//394 544//569 597//568
f 355//394 543//455 544//569
f 548//570 544//569 543//455
f 545//502 477//500 476//449
f 546//571 551//572 545//502
f 546//571 545//502 476//449
f 542//565 546//571 476//449
f 542//565 606//567 546//571
f 606//567 551//572 546//571
f 478//457 549//506 547//503
f 547//503 549//506 548//570
f 548//570 543//455 547//503
f 544//569 548//570 599//573
f 599//573 548//570 549//506
f 482//501 545//502 550//505
f 551//572 550//505 545//502
f 606//567 605//574 551//572
f 605//574 552//575 551//572
f 549//506 553//507 608//576
f 554//465 608//576 553//507
f 618//577 608//576 554//465
f 552//575 557//578 556//508
f 552//575 616//579 557//578
f 550//505 551//572 556//508
f 551//572 552//575 556//508
f 560//514 614//580 559//581
f 486//509 556//508 487//510
f 556//508 561//511 487//510
f 557//578 561//511 556//508
f 555//515 561//511 557//578
f 555//515 557//578 616//579
f 555//515 616//579 614//580
f 562//513 558//582 554//465
f 554//465 558//582 618//577
f 565//520 621//583 558//582
f 559//581 622//584 560//514
f 620//585 622//584 559//581
f 555//515 614//580 560//514
f 561//511 555//515 492//464
f 562//513 494//517 565//520
f 562//513 565//520 558//582
f 565//520 566//523 621//583
f 621//583 566//523 563//528
f 563//528 564//527 622//584
f 491//516 560//514 564//527
f 560//514 622//584 564//527
f 565//520 501//519 502//521
f 565//520 502//521 566//523
f 495//522 498//526 563//528
f 563//528 566//523 495//522
f 518//543 577//542 567//586
f 577//542 627//587 567//586
f 515//493 573//588 627//587
f 627//587 573//588 623//589
f 569//590 450//482 505//432
f 569//590 505//432 567//586
f 567//586 505//432 518//543
f 569//590 567//586 627//587
f 569//590 627//587 626//591
f 507//529 450//482 569//590
f 569//590 568//592 507//529
f 568//592 571//531 507//529
f 568//592 570//539 571//531
f 570//539 568//592 635//593
f 569//590 626//591 568//592
f 570//539 636//594 512//535
f 568//592 626//591 634//595
f 634//595 635//593 568//592
f 635//593 636//594 570//539
f 636//594 572//540 512//535
f 636//594 580//596 572//540
f 522//494 527//552 574//597
f 574//597 527//552 575//598
f 574//597 515//493 522//494
f 574//597 573//588 515//493
f 573//588 574//597 576//599
f 576//599 574//597 575//598
f 623//589 573//588 576//599
f 640//600 576//599 575//598
f 515//493 577//542 517//492
f 577//542 515//493 627//587
f 519//545 579//548 521//546
f 583//601 524//549 579//548
f 580//596 519//545 572//540
f 519//545 580//596 579//548
f 581//602 579//548 580//596
f 583//601 579//548 581//602
f 580//596 578//603 581//602
f 578//603 582//604 581//602
f 581//602 582//604 583//601
f 526//553 575//598 527//552
f 575//598 526//553 530//556
f 575//598 530//556 645//605
f 583//601 584//551 523//550
f 523//550 524//549 583//601
f 583//601 647//606 584//551
f 647//606 583//601 582//604
f 526//553 529//554 530//556
f 649//607 585//608 647//606
f 648//609 647//606 677//610
f 649//607 647//606 648//609
f 584//551 585//608 531//555
f 584//551 647//606 585//608
f 585//608 586//611 531//555
f 649//607 586//611 585//608
f 530//556 532//557 646//612
f 534//497 531//555 586//611
f 586//611 590//613 534//497
f 586//611 587//614 590//613
f 586//611 649//607 587//614
f 539//562 592//615 536//561
f 536//561 588//616 532//557
f 588//616 646//612 532//557
f 588//616 536//561 592//615
f 592//615 593//617 588//616
f 646//612 588//616 589//618
f 593//617 589//618 588//616
f 590//613 587//614 595//619
f 595//619 587//614 651//620
f 534//497 590//613 537//558
f 537//558 590//613 594//566
f 592//615 539//562 591//621
f 591//621 539//562 596//563
f 592//615 591//621 593//617
f 607//622 595//619 651//620
f 594//566 590//613 595//619
f 593//617 591//621 596//563
f 593//617 596//563 598//623
f 598//623 652//624 593//617
f 607//622 594//566 595//619
f 598//623 596//563 597//568
f 544//569 599//573 597//568
f 600//625 597//568 599//573
f 600//625 598//623 597//568
f 599//573 602//626 601//627
f 598//623 600//625 601//627
f 599//573 601//627 600//625
f 602//626 610//628 601//627
f 601//627 655//629 653//630
f 665//631 607//622 659//632
f 607//622 606//567 594//566
f 599//573 549//506 602//626
f 602//626 549//506 608//576
f 604//633 616//579 617//634
f 605//574 665//631 603//635
f 604//633 617//634 603//635
f 605//574 603//635 617//634
f 605//574 607//622 665//631
f 607//622 605//574 606//567
f 618//577 602//626 608//576
f 602//626 618//577 609//636
f 609//636 610//628 602//626
f 610//628 609//636 620//585
f 610//628 620//585 611//637
f 613//638 612//639 615//640
f 616//579 604//633 614//580
f 614//580 615//640 612//639
f 614//580 604//633 615//640
f 617//634 616//579 552//575
f 617//634 552//575 605//574
f 618//577 558//582 619//641
f 618//577 619//641 609//636
f 609//636 619//641 620//585
f 620//585 621//583 563//528
f 622//584 620//585 563//528
f 559//581 612//639 620//585
f 614//580 612//639 559//581
f 613//638 611//637 612//639
f 612//639 611//637 620//585
f 558//582 621//583 619//641
f 620//585 619//641 621//583
f 623//589 639//642 624//643
f 624//643 641//644 644//645
f 627//587 623//589 629//646
f 629//646 623//589 630//647
f 624//643 630//647 623//589
f 624//643 625//648 630//647
f 624//643 644//645 625//648
f 644//645 669//649 625//648
f 626//591 630//647 628//650
f 626//591 627//587 629//646
f 629//646 630//647 626//591
f 628//650 630//647 631//651
f 637//652 631//651 633//653
f 630//647 632//654 631//651
f 632//654 633//653 631//651
f 625//648 632//654 630//647
f 625//648 666//655 632//654
f 633//653 638//656 637//652
f 633//653 632//654 666//655
f 628//650 634//595 626//591
f 631//651 634//595 628//650
f 631//651 635//593 634//595
f 637//652 635//593 631//651
f 638//656 580//596 636//594
f 580//596 638//656 578//603
f 636//594 635//593 637//652
f 638//656 636//594 637//652
f 640//600 575//598 645//605
f 576//599 640//600 639//642
f 576//599 639//642 623//589
f 639//642 641//644 624//643
f 641//644 639//642 640//600
f 641//644 640//600 642//657
f 645//605 642//657 640//600
f 646//612 642//657 645//605
f 642//657 643//658 641//644
f 641//644 643//658 644//645
f 642//657 667//659 643//658
f 646//612 667//659 642//657
f 644//645 643//658 669//649
f 683//660 667//659 646//612
f 678//661 677//610 582//604
f 578//603 678//661 582//604
f 646//612 645//605 530//556
f 648//609 677//610 681//662
f 647//606 582//604 677//610
f 646//612 589//618 683//660
f 649//607 648//609 650//663
f 681//662 650//663 648//609
f 589//618 684//664 683//660
f 587//614 649//607 650//663
f 651//620 650//663 685//665
f 651//620 587//614 650//663
f 685//665 650//663 681//662
f 684//664 589//618 652//624
f 593//617 652//624 589//618
f 659//632 651//620 685//665
f 684//664 653//630 687//666
f 652//624 598//623 653//630
f 652//624 653//630 684//664
f 687//666 653//630 654//667
f 659//632 607//622 651//620
f 598//623 601//627 653//630
f 688//668 656//669 658//670
f 688//668 658//670 690//671
f 691//672 659//632 689//673
f 610//628 655//629 601//627
f 653//630 655//629 654//667
f 655//629 610//628 661//674
f 654//667 655//629 656//669
f 656//669 655//629 661//674
f 656//669 661//674 657//675
f 663//676 615//640 660//677
f 656//669 657//675 658//670
f 658//670 657//675 663//676
f 660//677 665//631 659//632
f 658//670 660//677 691//672
f 691//672 660//677 659//632
f 658//670 663//676 660//677
f 662//678 661//674 610//628
f 662//678 610//628 611//637
f 662//678 663//676 657//675
f 661//674 662//678 657//675
f 664//679 615//640 604//633
f 664//679 604//633 603//635
f 660//677 664//679 665//631
f 603//635 665//631 664//679
f 615//640 664//679 660//677
f 613//638 662//678 611//637
f 615//640 663//676 613//638
f 663//676 662//678 613//638
f 625//648 669//649 670//680
f 625//648 670//680 666//655
f 666//655 672//681 633//653
f 638//656 633//653 671//682
f 672//681 666//655 670//680
f 643//658 667//659 669//649
f 669//649 667//659 668//683
f 670//680 668//683 673//684
f 670//680 669//649 668//683
f 668//683 674//685 673//684
f 671//682 633//653 672//681
f 672//681 670//680 673//684
f 678//661 671//682 679//686
f 671//682 672//681 679//686
f 679//686 672//681 673//684
f 679//686 680//687 678//661
f 578//603 638//656 671//682
f 671//682 678//661 578//603
f 668//683 667//659 683//660
f 683//660 684//664 674//685
f 668//683 683//660 674//685
f 673//684 675//688 679//686
f 679//686 675//688 682//689
f 673//684 674//685 675//688
f 674//685 688//668 675//688
f 675//688 688//668 676//690
f 675//688 676//690 682//689
f 681//662 677//610 680//687
f 679//686 682//689 680//687
f 678//661 680//687 677//610
f 681//662 682//689 676//690
f 682//689 681//662 680//687
f 674//685 684//664 688//668
f 686//691 685//665 681//662
f 676//690 688//668 681//662
f 684//664 687//666 688//668
f 688//668 689//673 681//662
f 681//662 689//673 686//691
f 685//665 686//691 659//632
f 689//673 659//632 686//691
f 687//666 654//667 688//668
f 654//667 656//669 688//668
f 688//668 690//671 689//673
f 689//673 690//671 691//672
f 691//672 690//671 658//670
