# Blender 4.0.2
# www.blender.org
mtllib skull_left_first_upper_premolar_tooth.mtl
o skull_left_first_upper_premolar_tooth
v 0.083590 -0.022459 -0.015938
v 0.084147 -0.022879 -0.015955
v 0.083466 -0.021409 -0.015698
v 0.084022 -0.021739 -0.015581
v 0.084494 -0.022289 -0.015708
v 0.085317 -0.022719 -0.016003
v 0.083093 -0.019969 -0.015884
v 0.083764 -0.020839 -0.015514
v 0.083175 -0.020559 -0.015768
v 0.084222 -0.021379 -0.015494
v 0.085101 -0.021539 -0.015651
v 0.085652 -0.021949 -0.015908
v 0.084100 -0.020279 -0.015452
v 0.083759 -0.020069 -0.015557
v 0.084737 -0.020689 -0.015479
v 0.084885 -0.020049 -0.015538
v 0.085799 -0.020719 -0.015792
v 0.083805 -0.018659 -0.015878
v 0.084373 -0.019509 -0.015554
v 0.085653 -0.020199 -0.015741
v 0.086248 -0.020199 -0.015991
v 0.085040 -0.012379 -0.015747
v 0.084658 -0.012719 -0.015864
v 0.085476 -0.012569 -0.015784
v 0.085217 -0.013029 -0.015845
v 0.084516 -0.011669 -0.015840
v 0.085083 -0.011739 -0.015731
v 0.084223 -0.009319 -0.015702
v 0.084953 -0.009839 -0.015470
v 0.084614 -0.010009 -0.015561
v 0.085296 -0.008819 -0.015384
v 0.084686 -0.007729 -0.015513
v 0.086000 -0.008419 -0.015459
v 0.086678 -0.007639 -0.015661
v 0.084686 -0.005459 -0.015371
v 0.085773 -0.004929 -0.015176
v 0.086472 -0.004509 -0.015459
v 0.083567 -0.001889 -0.015686
v 0.084907 -0.001749 -0.015162
v 0.084377 -0.001609 -0.015288
v 0.085671 -0.002319 -0.015181
v 0.086347 -0.002309 -0.015547
v 0.084617 -0.000729 -0.015276
v 0.085007 -0.000749 -0.015242
v 0.085488 -0.001079 -0.015265
v 0.085943 -0.001429 -0.015396
v 0.086107 -0.000969 -0.015641
v 0.085257 -0.000019 -0.015419
v 0.085629 -0.000439 -0.015457
v 0.083300 -0.023139 -0.016375
v 0.082935 -0.023079 -0.016614
v 0.083720 -0.023709 -0.016579
v 0.084435 -0.023739 -0.016452
v 0.084657 -0.024059 -0.016799
v 0.082845 -0.022529 -0.016406
v 0.084763 -0.023169 -0.016085
v 0.085336 -0.023439 -0.016338
v 0.085154 -0.023759 -0.016521
v 0.085628 -0.023619 -0.016569
v 0.082554 -0.021019 -0.016203
v 0.082313 -0.021529 -0.016537
v 0.082174 -0.020719 -0.016553
v 0.082954 -0.021659 -0.016034
v 0.085870 -0.023089 -0.016361
v 0.082296 -0.019869 -0.016589
v 0.082627 -0.020179 -0.016166
v 0.086226 -0.022129 -0.016252
v 0.086553 -0.022739 -0.016786
v 0.086871 -0.021629 -0.016673
v 0.086560 -0.020459 -0.016197
v 0.083342 -0.018049 -0.016273
v 0.086156 -0.018949 -0.016093
v 0.086819 -0.019169 -0.016452
v 0.085406 -0.017809 -0.016091
v 0.084572 -0.016219 -0.016353
v 0.085996 -0.017579 -0.016370
v 0.086501 -0.017529 -0.016748
v 0.085174 -0.015819 -0.016400
v 0.085151 -0.014409 -0.016327
v 0.084473 -0.014399 -0.016407
v 0.084034 -0.012959 -0.016272
v 0.085900 -0.013129 -0.015996
v 0.086116 -0.012669 -0.015958
v 0.086537 -0.012889 -0.016217
v 0.083758 -0.009699 -0.016115
v 0.086442 -0.011599 -0.015996
v 0.087467 -0.011989 -0.016610
v 0.084082 -0.007789 -0.015964
v 0.083224 -0.005049 -0.016347
v 0.087306 -0.007209 -0.016088
v 0.082932 -0.003459 -0.016334
v 0.083299 -0.003669 -0.015958
v 0.087710 -0.006109 -0.016581
v 0.082959 -0.002579 -0.016200
v 0.087388 -0.005239 -0.016213
v 0.087499 -0.005019 -0.016440
v 0.083052 -0.001459 -0.016267
v 0.083159 -0.002319 -0.015962
v 0.087163 -0.004159 -0.016189
v 0.087114 -0.003599 -0.016418
v 0.086729 -0.002769 -0.015854
v 0.086812 -0.002539 -0.016081
v 0.082994 0.000231 -0.016488
v 0.086422 -0.001699 -0.015743
v 0.086408 -0.001209 -0.015955
v 0.086521 -0.001399 -0.016282
v 0.083210 0.002091 -0.016391
v 0.083341 0.002421 -0.016403
v 0.084424 0.001581 -0.015717
v 0.084063 0.001651 -0.015858
v 0.085597 0.000371 -0.015717
v 0.085824 0.000441 -0.016043
v 0.084098 0.002631 -0.016258
v 0.084766 0.001821 -0.015811
v 0.084493 0.002161 -0.015873
v 0.084259 0.002261 -0.015947
v 0.084869 0.002231 -0.016035
v 0.084463 0.002561 -0.016134
v 0.085179 0.001751 -0.016020
v 0.085427 0.001561 -0.016244
v 0.085233 0.002021 -0.016245
v 0.085535 0.001271 -0.016491
v 0.085323 0.001991 -0.016457
v 0.082958 -0.023859 -0.017464
v 0.083788 -0.024249 -0.017256
v 0.083461 -0.024169 -0.017593
v 0.083801 -0.024279 -0.017596
v 0.082381 -0.022789 -0.017121
v 0.082417 -0.023319 -0.017564
v 0.082068 -0.022639 -0.017572
v 0.083042 -0.023599 -0.016925
v 0.082654 -0.023599 -0.017472
v 0.083555 -0.023999 -0.016947
v 0.083890 -0.024109 -0.016912
v 0.084262 -0.024159 -0.016937
v 0.084981 -0.024089 -0.016918
v 0.084934 -0.024149 -0.017159
v 0.084178 -0.024269 -0.017267
v 0.084228 -0.024239 -0.017583
v 0.082163 -0.021949 -0.016901
v 0.082018 -0.022119 -0.017240
v 0.081880 -0.021629 -0.017257
v 0.081830 -0.021989 -0.017648
v 0.085409 -0.023969 -0.016939
v 0.085892 -0.023759 -0.016923
v 0.085987 -0.023759 -0.017266
v 0.085411 -0.023899 -0.017620
v 0.081787 -0.020849 -0.017253
v 0.082002 -0.021329 -0.016892
v 0.086209 -0.023499 -0.016933
v 0.086700 -0.023219 -0.017569
v 0.081943 -0.020339 -0.016910
v 0.081671 -0.019839 -0.017597
v 0.087027 -0.022759 -0.017442
v 0.081875 -0.019019 -0.017510
v 0.087698 -0.019959 -0.017148
v 0.088072 -0.020309 -0.017560
v 0.088035 -0.019629 -0.017535
v 0.082890 -0.016519 -0.017319
v 0.087758 -0.019219 -0.017309
v 0.083060 -0.015639 -0.017553
v 0.083594 -0.015889 -0.016858
v 0.083690 -0.014779 -0.016933
v 0.083374 -0.014689 -0.017290
v 0.087084 -0.016849 -0.017575
v 0.083274 -0.013639 -0.017423
v 0.086042 -0.015719 -0.016831
v 0.083230 -0.012459 -0.017002
v 0.086398 -0.014409 -0.016880
v 0.083167 -0.011809 -0.016973
v 0.087605 -0.013309 -0.017113
v 0.083251 -0.009869 -0.016998
v 0.088062 -0.012629 -0.017256
v 0.087880 -0.010709 -0.016851
v 0.083382 -0.008239 -0.016786
v 0.083357 -0.007389 -0.016775
v 0.083080 -0.007799 -0.017431
v 0.088114 -0.009029 -0.017212
v 0.082848 -0.004819 -0.017003
v 0.082809 -0.004129 -0.017401
v 0.087878 -0.006859 -0.017124
v 0.087864 -0.006949 -0.017484
v 0.088005 -0.007419 -0.017356
v 0.087589 -0.005589 -0.017130
v 0.087732 -0.006619 -0.017461
v 0.082792 -0.002419 -0.016661
v 0.082781 -0.002899 -0.017399
v 0.087035 -0.004349 -0.017414
v 0.087610 -0.005279 -0.016677
v 0.082850 -0.001109 -0.017159
v 0.083049 -0.000409 -0.017369
v 0.082905 0.000231 -0.017022
v 0.083029 0.000491 -0.017260
v 0.086687 -0.002159 -0.016636
v 0.086368 -0.002019 -0.017245
v 0.082822 0.001311 -0.016895
v 0.082951 0.001361 -0.017226
v 0.085597 -0.000289 -0.017346
v 0.083024 0.002061 -0.016532
v 0.083138 0.002491 -0.016565
v 0.082919 0.001841 -0.016647
v 0.082940 0.002251 -0.016681
v 0.083055 0.002551 -0.016783
v 0.082878 0.002121 -0.016900
v 0.082938 0.002371 -0.016885
v 0.082956 0.002351 -0.017001
v 0.083005 0.002471 -0.016988
v 0.083045 0.002441 -0.017102
v 0.083019 0.002091 -0.017215
v 0.083199 0.002491 -0.017226
v 0.083321 0.002711 -0.016771
v 0.083286 0.002691 -0.016999
v 0.083403 0.002651 -0.016552
v 0.083900 0.002731 -0.017331
v 0.084754 0.002311 -0.017354
v 0.085241 0.002131 -0.016711
v 0.084467 0.002981 -0.016651
v 0.084784 0.003051 -0.016637
v 0.084937 0.002951 -0.016625
v 0.084695 0.003081 -0.016768
v 0.084827 0.003101 -0.016780
v 0.084931 0.003011 -0.016789
v 0.084487 0.003021 -0.016976
v 0.084699 0.002891 -0.017177
v 0.084847 0.002821 -0.017095
v 0.082920 -0.023919 -0.017895
v 0.082599 -0.023689 -0.017955
v 0.082950 -0.023819 -0.018251
v 0.083479 -0.024139 -0.017922
v 0.081930 -0.022659 -0.018206
v 0.082351 -0.023409 -0.017910
v 0.083522 -0.024059 -0.018239
v 0.083890 -0.024129 -0.018199
v 0.083546 -0.023899 -0.018581
v 0.084026 -0.023909 -0.018579
v 0.085241 -0.023369 -0.018605
v 0.086390 -0.023289 -0.018052
v 0.087041 -0.023079 -0.018158
v 0.087898 -0.022579 -0.018207
v 0.088248 -0.021999 -0.018169
v 0.088628 -0.021469 -0.018491
v 0.088489 -0.019889 -0.018225
v 0.082665 -0.016399 -0.017899
v 0.083025 -0.015069 -0.017906
v 0.087889 -0.018429 -0.017729
v 0.087999 -0.017719 -0.018172
v 0.086896 -0.016129 -0.017690
v 0.083063 -0.013639 -0.018037
v 0.086862 -0.015529 -0.017756
v 0.082932 -0.012449 -0.017678
v 0.082878 -0.011789 -0.017780
v 0.087677 -0.014399 -0.018109
v 0.088116 -0.013969 -0.018178
v 0.082957 -0.010229 -0.018229
v 0.088359 -0.013039 -0.017800
v 0.088618 -0.012299 -0.017981
v 0.088809 -0.011219 -0.018221
v 0.083073 -0.007709 -0.018336
v 0.088697 -0.009219 -0.018292
v 0.082864 -0.005699 -0.017646
v 0.082846 -0.004949 -0.017679
v 0.083039 -0.004349 -0.017965
v 0.086240 -0.006449 -0.018223
v 0.086173 -0.006139 -0.018109
v 0.086351 -0.006349 -0.018099
v 0.085608 -0.005929 -0.018362
v 0.086930 -0.006339 -0.017972
v 0.086398 -0.006499 -0.018208
v 0.086836 -0.006559 -0.018205
v 0.087161 -0.006629 -0.018210
v 0.086343 -0.006539 -0.018338
v 0.086572 -0.006579 -0.018319
v 0.086908 -0.006609 -0.018331
v 0.087528 -0.006629 -0.017810
v 0.087682 -0.006819 -0.017879
v 0.087292 -0.006589 -0.017995
v 0.087381 -0.006679 -0.018098
v 0.087488 -0.006709 -0.017993
v 0.087767 -0.006899 -0.018115
v 0.087572 -0.006769 -0.018106
v 0.087380 -0.006689 -0.018217
v 0.087264 -0.006639 -0.018323
v 0.087397 -0.006659 -0.018323
v 0.087600 -0.006709 -0.018317
v 0.087803 -0.006809 -0.018335
v 0.088183 -0.007819 -0.017795
v 0.087978 -0.007199 -0.017894
v 0.088302 -0.007539 -0.018345
v 0.088101 -0.007129 -0.018334
v 0.087321 -0.005769 -0.017551
v 0.086869 -0.005879 -0.017846
v 0.087417 -0.006319 -0.017677
v 0.082991 -0.002449 -0.017734
v 0.085118 -0.003979 -0.018202
v 0.082850 -0.001939 -0.017480
v 0.083831 -0.002679 -0.018182
v 0.085338 -0.001509 -0.017792
v 0.086067 -0.002469 -0.017639
v 0.083756 0.000191 -0.017738
v 0.083220 0.001601 -0.017446
v 0.084941 0.000481 -0.017693
v 0.084613 -0.000099 -0.017855
v 0.083307 0.002071 -0.017447
v 0.083606 0.001861 -0.017608
v 0.083954 0.002111 -0.017638
v 0.084074 0.001381 -0.017746
v 0.084313 0.001751 -0.017678
v 0.085238 0.001351 -0.018280
v 0.085581 0.000621 -0.018321
v 0.083538 0.002431 -0.017453
v 0.084098 0.002621 -0.017457
v 0.084423 0.002541 -0.017456
v 0.084971 0.001981 -0.018323
v 0.085208 0.002171 -0.018273
v 0.085338 0.002051 -0.018279
v 0.081743 -0.022289 -0.018746
v 0.081978 -0.022839 -0.018862
v 0.082356 -0.022999 -0.019325
v 0.083273 -0.023289 -0.019313
v 0.081531 -0.021449 -0.018851
v 0.084228 -0.023379 -0.019193
v 0.084869 -0.023359 -0.019010
v 0.085345 -0.023209 -0.019401
v 0.081419 -0.020359 -0.018542
v 0.081381 -0.020559 -0.019362
v 0.085530 -0.023159 -0.019203
v 0.085929 -0.023019 -0.018850
v 0.086135 -0.022939 -0.019048
v 0.085976 -0.022929 -0.019194
v 0.085812 -0.023209 -0.019528
v 0.086640 -0.023059 -0.018849
v 0.087037 -0.023199 -0.019105
v 0.086628 -0.023049 -0.019218
v 0.087727 -0.023449 -0.019330
v 0.081390 -0.019559 -0.018609
v 0.081328 -0.019759 -0.018965
v 0.081408 -0.019139 -0.019149
v 0.087977 -0.023049 -0.018782
v 0.088316 -0.023589 -0.019505
v 0.081532 -0.018899 -0.018659
v 0.088425 -0.022779 -0.018790
v 0.088612 -0.022429 -0.018806
v 0.088816 -0.021549 -0.018904
v 0.088941 -0.020479 -0.019191
v 0.088419 -0.017909 -0.018704
v 0.088803 -0.018139 -0.019403
v 0.082914 -0.013789 -0.018841
v 0.087458 -0.015589 -0.018499
v 0.087514 -0.016099 -0.018575
v 0.088016 -0.015819 -0.019120
v 0.088121 -0.016599 -0.019036
v 0.082737 -0.012759 -0.018913
v 0.082745 -0.012119 -0.018900
v 0.088201 -0.014549 -0.018963
v 0.083005 -0.010469 -0.018977
v 0.088986 -0.011689 -0.018775
v 0.083296 -0.006729 -0.018664
v 0.083819 -0.006659 -0.019190
v 0.088885 -0.009829 -0.018781
v 0.083361 -0.005669 -0.018498
v 0.083753 -0.005639 -0.018639
v 0.083884 -0.006079 -0.018842
v 0.084287 -0.006019 -0.018812
v 0.083640 -0.006299 -0.018859
v 0.084343 -0.006279 -0.019027
v 0.084067 -0.006409 -0.019151
v 0.084344 -0.006349 -0.019194
v 0.084627 -0.006309 -0.019094
v 0.084773 -0.006289 -0.019199
v 0.083532 -0.004919 -0.018411
v 0.083882 -0.005029 -0.018505
v 0.084328 -0.005219 -0.018537
v 0.085013 -0.005769 -0.018548
v 0.085358 -0.006199 -0.018659
v 0.085658 -0.005719 -0.019052
v 0.085034 -0.006179 -0.019230
v 0.085269 -0.005879 -0.019182
v 0.085706 -0.006169 -0.018426
v 0.085952 -0.006379 -0.018641
v 0.086151 -0.006429 -0.018763
v 0.085539 -0.006289 -0.018875
v 0.085950 -0.006329 -0.018863
v 0.086303 -0.006359 -0.018887
v 0.085590 -0.006219 -0.018995
v 0.085667 -0.006129 -0.019031
v 0.085929 -0.006159 -0.018983
v 0.086550 -0.006619 -0.018436
v 0.087001 -0.006599 -0.018441
v 0.087085 -0.006519 -0.018523
v 0.087050 -0.006359 -0.018612
v 0.086426 -0.006579 -0.018634
v 0.086572 -0.006609 -0.018637
v 0.086733 -0.006569 -0.018644
v 0.086763 -0.006459 -0.018708
v 0.086807 -0.006179 -0.018703
v 0.086433 -0.006539 -0.018757
v 0.086596 -0.006499 -0.018784
v 0.086489 -0.006259 -0.018857
v 0.086656 -0.006409 -0.018788
v 0.087419 -0.006579 -0.018430
v 0.088296 -0.007029 -0.018777
v 0.087282 -0.005899 -0.018608
v 0.087595 -0.006529 -0.018486
v 0.087417 -0.006339 -0.018562
v 0.087580 -0.006269 -0.018598
v 0.088012 -0.006629 -0.018651
v 0.087823 -0.006289 -0.018678
v 0.087713 -0.005969 -0.018686
v 0.088017 -0.006379 -0.018789
v 0.087915 -0.006039 -0.018798
v 0.088237 -0.006359 -0.019173
v 0.087482 -0.004759 -0.018667
v 0.087853 -0.005069 -0.018971
v 0.084948 -0.003129 -0.019171
v 0.085451 -0.003249 -0.018914
v 0.087000 -0.003419 -0.018594
v 0.087204 -0.003519 -0.018731
v 0.085440 -0.002059 -0.018913
v 0.084965 -0.001659 -0.019099
v 0.086391 -0.002129 -0.018646
v 0.086621 -0.003029 -0.018541
v 0.086289 -0.002679 -0.018593
v 0.086904 -0.002859 -0.018610
v 0.087003 -0.002439 -0.018828
v 0.087404 -0.003399 -0.019131
v 0.084442 -0.000039 -0.019116
v 0.086170 -0.001059 -0.018575
v 0.086630 -0.001309 -0.018637
v 0.086927 -0.001359 -0.018904
v 0.086738 -0.002159 -0.018664
v 0.086997 -0.001109 -0.019137
v 0.084308 0.001571 -0.019003
v 0.084815 0.001581 -0.018433
v 0.085231 0.000501 -0.018431
v 0.086100 0.000611 -0.018473
v 0.086216 0.000901 -0.018675
v 0.086452 0.000701 -0.019115
v 0.085023 0.002531 -0.018394
v 0.084715 0.001961 -0.018489
v 0.084826 0.002391 -0.018480
v 0.084767 0.002671 -0.018655
v 0.084526 0.002321 -0.018778
v 0.085121 0.002471 -0.018341
v 0.084974 0.002681 -0.018486
v 0.085075 0.002641 -0.018415
v 0.085163 0.002831 -0.018490
v 0.084929 0.002841 -0.018623
v 0.085105 0.002961 -0.018636
v 0.085244 0.002961 -0.018624
v 0.084828 0.002901 -0.018776
v 0.085154 0.003041 -0.018747
v 0.085277 0.003031 -0.018755
v 0.084990 0.003051 -0.018854
v 0.085320 0.003101 -0.019066
v 0.085165 0.002581 -0.018362
v 0.085264 0.002521 -0.018329
v 0.085412 0.002381 -0.018362
v 0.085219 0.002681 -0.018396
v 0.085342 0.002681 -0.018418
v 0.085272 0.002791 -0.018460
v 0.085496 0.002621 -0.018531
v 0.085608 0.002541 -0.018648
v 0.085425 0.002861 -0.018627
v 0.085540 0.002791 -0.018742
v 0.085474 0.002961 -0.018852
v 0.085861 0.002211 -0.018955
v 0.085589 0.002841 -0.018968
v 0.082041 -0.022679 -0.019571
v 0.082027 -0.022409 -0.020061
v 0.081703 -0.021929 -0.019821
v 0.083081 -0.022879 -0.020143
v 0.083650 -0.023089 -0.019588
v 0.084352 -0.023139 -0.019549
v 0.084543 -0.023119 -0.019770
v 0.084430 -0.023029 -0.020190
v 0.083758 -0.022909 -0.020256
v 0.085079 -0.023159 -0.019523
v 0.085398 -0.023249 -0.019576
v 0.085320 -0.023469 -0.019841
v 0.084835 -0.023189 -0.019859
v 0.084943 -0.023299 -0.019960
v 0.084738 -0.023159 -0.020093
v 0.085957 -0.023509 -0.019816
v 0.085696 -0.024059 -0.020237
v 0.086114 -0.024149 -0.020292
v 0.086396 -0.023109 -0.019559
v 0.087097 -0.023469 -0.019825
v 0.086867 -0.023509 -0.019969
v 0.086630 -0.023709 -0.020124
v 0.087083 -0.023619 -0.020186
v 0.086921 -0.023899 -0.020417
v 0.087092 -0.023829 -0.020394
v 0.087381 -0.023569 -0.019781
v 0.088030 -0.023879 -0.019855
v 0.087381 -0.023769 -0.020204
v 0.087254 -0.023809 -0.020335
v 0.088282 -0.024099 -0.020232
v 0.088557 -0.023999 -0.020213
v 0.081437 -0.019459 -0.019654
v 0.088739 -0.023419 -0.019714
v 0.088676 -0.023659 -0.019837
v 0.088888 -0.023179 -0.019956
v 0.088836 -0.023739 -0.020202
v 0.088937 -0.023399 -0.020332
v 0.081668 -0.019069 -0.020095
v 0.089143 -0.021559 -0.020099
v 0.082140 -0.017469 -0.019719
v 0.082887 -0.015199 -0.019528
v 0.082931 -0.014319 -0.019601
v 0.088578 -0.016449 -0.019900
v 0.082845 -0.012659 -0.019557
v 0.088551 -0.015259 -0.019955
v 0.088727 -0.014039 -0.019414
v 0.083261 -0.010219 -0.019656
v 0.083827 -0.008679 -0.020008
v 0.089035 -0.011429 -0.019615
v 0.083845 -0.007259 -0.019539
v 0.084030 -0.006769 -0.019527
v 0.084155 -0.006839 -0.019862
v 0.084078 -0.007399 -0.020071
v 0.084270 -0.006409 -0.019310
v 0.084110 -0.006559 -0.019410
v 0.084415 -0.006349 -0.019403
v 0.084237 -0.006499 -0.019515
v 0.084189 -0.006599 -0.019634
v 0.084318 -0.006419 -0.019635
v 0.084462 -0.006249 -0.019616
v 0.084277 -0.006519 -0.019890
v 0.084364 -0.006309 -0.019864
v 0.084478 -0.005909 -0.019853
v 0.084722 -0.006139 -0.019418
v 0.084753 -0.005049 -0.019512
v 0.084873 -0.005959 -0.019398
v 0.088604 -0.007559 -0.019235
v 0.088686 -0.007679 -0.019727
v 0.084473 -0.004339 -0.020017
v 0.084390 -0.001589 -0.019667
v 0.087556 -0.003269 -0.019645
v 0.084129 0.000421 -0.019428
v 0.084008 0.000271 -0.019764
v 0.087161 -0.001209 -0.019577
v 0.084005 0.001361 -0.019638
v 0.086717 -0.000039 -0.019359
v 0.086572 0.000261 -0.019743
v 0.084171 0.002601 -0.019495
v 0.084339 0.002901 -0.019448
v 0.084047 0.002391 -0.019707
v 0.084149 0.002891 -0.019815
v 0.084036 0.002701 -0.019930
v 0.084317 0.003041 -0.019813
v 0.084715 0.003071 -0.019198
v 0.085085 0.003151 -0.019178
v 0.085301 0.003111 -0.019485
v 0.085272 0.003061 -0.019736
v 0.084610 0.003141 -0.019820
v 0.084971 0.003151 -0.019815
v 0.085508 0.002991 -0.019195
v 0.085877 0.002241 -0.019390
v 0.085392 0.003011 -0.019609
v 0.085810 0.002201 -0.019756
v 0.085586 0.002701 -0.019713
v 0.085341 0.002921 -0.019929
v 0.085016 -0.023979 -0.020498
v 0.084905 -0.024179 -0.020920
v 0.085227 -0.024439 -0.020867
v 0.085455 -0.024699 -0.021257
v 0.085142 -0.024549 -0.021273
v 0.086140 -0.024659 -0.020834
v 0.086071 -0.024889 -0.021227
v 0.086721 -0.024939 -0.021195
v 0.082065 -0.022189 -0.020826
v 0.081894 -0.022039 -0.020912
v 0.081985 -0.022059 -0.021161
v 0.081833 -0.021909 -0.021107
v 0.081744 -0.021629 -0.021084
v 0.082709 -0.022669 -0.020659
v 0.082776 -0.022629 -0.021178
v 0.082278 -0.022229 -0.021164
v 0.083196 -0.022859 -0.020491
v 0.083726 -0.022999 -0.020518
v 0.084497 -0.023269 -0.020558
v 0.083925 -0.023189 -0.021146
v 0.086902 -0.024559 -0.020868
v 0.087599 -0.024459 -0.020866
v 0.087869 -0.024479 -0.020904
v 0.087672 -0.024749 -0.021177
v 0.081704 -0.020979 -0.021039
v 0.081811 -0.020319 -0.021106
v 0.087241 -0.024049 -0.020600
v 0.088667 -0.024049 -0.020556
v 0.087944 -0.024249 -0.020586
v 0.088155 -0.024339 -0.020737
v 0.088208 -0.024469 -0.021153
v 0.088464 -0.024249 -0.021196
v 0.088822 -0.023859 -0.020576
v 0.088921 -0.023619 -0.020549
v 0.088987 -0.023429 -0.021073
v 0.088824 -0.023759 -0.021201
v 0.089201 -0.022409 -0.021099
v 0.082530 -0.017599 -0.021074
v 0.083166 -0.014489 -0.020430
v 0.089192 -0.018089 -0.020851
v 0.088825 -0.016269 -0.020798
v 0.088847 -0.014389 -0.020920
v 0.083465 -0.011119 -0.020581
v 0.083741 -0.009659 -0.020990
v 0.083611 -0.009959 -0.020438
v 0.088897 -0.011309 -0.020474
v 0.084367 -0.006049 -0.020673
v 0.084248 -0.006919 -0.020686
v 0.088664 -0.008099 -0.020498
v 0.084379 -0.003479 -0.020601
v 0.087708 -0.003989 -0.020639
v 0.087387 -0.001949 -0.020116
v 0.087204 -0.001819 -0.020649
v 0.083915 0.000961 -0.020059
v 0.083957 0.000211 -0.020206
v 0.083944 0.001171 -0.020282
v 0.084049 0.000171 -0.020537
v 0.087125 -0.001059 -0.020078
v 0.085076 0.000391 -0.020965
v 0.086440 0.000121 -0.020383
v 0.083964 0.002301 -0.020049
v 0.084132 0.002901 -0.020043
v 0.084040 0.002691 -0.020162
v 0.084132 0.002801 -0.020260
v 0.084133 0.002661 -0.020372
v 0.084072 0.002181 -0.020398
v 0.084300 0.002821 -0.020398
v 0.084543 0.002801 -0.020478
v 0.084296 0.002581 -0.020508
v 0.084581 0.002121 -0.020646
v 0.084356 0.003021 -0.020149
v 0.084692 0.003101 -0.020149
v 0.084498 0.002961 -0.020352
v 0.085010 0.002981 -0.020233
v 0.084995 0.002611 -0.020484
v 0.084737 0.002951 -0.020372
v 0.085488 0.002411 -0.020192
v 0.087081 -0.025039 -0.021407
v 0.086586 -0.025239 -0.021824
v 0.087097 -0.025189 -0.021853
v 0.082002 -0.022029 -0.021487
v 0.081986 -0.021869 -0.021649
v 0.081916 -0.021389 -0.021635
v 0.082161 -0.022149 -0.021468
v 0.082299 -0.022239 -0.021694
v 0.082206 -0.022099 -0.021823
v 0.084261 -0.023329 -0.021797
v 0.087551 -0.024949 -0.021878
v 0.087615 -0.024929 -0.021531
v 0.087825 -0.024699 -0.021880
v 0.088174 -0.024489 -0.021520
v 0.088526 -0.024059 -0.021508
v 0.088265 -0.024169 -0.021867
v 0.088852 -0.023359 -0.021658
v 0.089108 -0.022839 -0.021504
v 0.089352 -0.021349 -0.021355
v 0.089273 -0.021379 -0.022047
v 0.089313 -0.021819 -0.021688
v 0.083012 -0.017799 -0.022079
v 0.089334 -0.019589 -0.021120
v 0.089313 -0.019029 -0.021671
v 0.083669 -0.014469 -0.021482
v 0.083567 -0.012689 -0.021204
v 0.088784 -0.013999 -0.021490
v 0.084104 -0.009699 -0.021854
v 0.088544 -0.012869 -0.021682
v 0.084231 -0.007649 -0.021207
v 0.084668 -0.007389 -0.021802
v 0.088402 -0.009609 -0.021514
v 0.084564 -0.006049 -0.021340
v 0.087991 -0.008059 -0.021836
v 0.088352 -0.008429 -0.021377
v 0.084807 -0.005809 -0.021701
v 0.088195 -0.006839 -0.021172
v 0.087949 -0.005319 -0.021010
v 0.084414 -0.002889 -0.020959
v 0.087592 -0.004539 -0.021323
v 0.084563 -0.001929 -0.021197
v 0.086719 -0.001509 -0.021064
v 0.086109 -0.000759 -0.021116
v 0.083286 -0.023079 -0.022080
v 0.084067 -0.023619 -0.022488
v 0.083538 -0.023629 -0.022911
v 0.084358 -0.023849 -0.022495
v 0.084760 -0.024429 -0.022579
v 0.085294 -0.024789 -0.022194
v 0.085041 -0.024539 -0.022098
v 0.084981 -0.024709 -0.022825
v 0.086205 -0.025209 -0.022145
v 0.086338 -0.025259 -0.022299
v 0.085579 -0.025009 -0.022444
v 0.086200 -0.025239 -0.022512
v 0.085545 -0.024999 -0.022846
v 0.086254 -0.025069 -0.022853
v 0.086565 -0.025299 -0.022185
v 0.087069 -0.025159 -0.022184
v 0.086449 -0.025259 -0.022399
v 0.086601 -0.025219 -0.022510
v 0.087101 -0.024999 -0.022481
v 0.086831 -0.024879 -0.022842
v 0.082596 -0.022479 -0.022204
v 0.082439 -0.022029 -0.022329
v 0.087403 -0.024369 -0.022818
v 0.088316 -0.023459 -0.022503
v 0.082630 -0.019569 -0.022307
v 0.089156 -0.021989 -0.022149
v 0.088969 -0.019269 -0.022822
v 0.083606 -0.016059 -0.021967
v 0.084393 -0.015739 -0.022734
v 0.084234 -0.013939 -0.022115
v 0.088860 -0.016039 -0.022003
v 0.088624 -0.015399 -0.022452
v 0.088287 -0.013899 -0.022473
v 0.088009 -0.012929 -0.022362
v 0.084617 -0.010519 -0.022479
v 0.085217 -0.010409 -0.022830
v 0.088173 -0.011989 -0.022055
v 0.087569 -0.011889 -0.022552
v 0.084755 -0.009359 -0.022469
v 0.085581 -0.008589 -0.022754
v 0.087526 -0.009779 -0.022574
v 0.087499 -0.008519 -0.022471
v 0.087926 -0.009609 -0.022240
v 0.085406 -0.006589 -0.022280
v 0.087129 -0.007219 -0.022488
v 0.086848 -0.007949 -0.022712
v 0.086126 -0.006619 -0.022531
v 0.085107 -0.004399 -0.021878
v 0.085500 -0.004019 -0.021997
v 0.086328 -0.004159 -0.022099
v 0.086965 -0.004559 -0.021945
v 0.083258 -0.023269 -0.023318
v 0.083367 -0.023519 -0.023012
v 0.083624 -0.023849 -0.023145
v 0.084002 -0.024059 -0.023448
v 0.083623 -0.023819 -0.023476
v 0.083761 -0.023809 -0.023600
v 0.083636 -0.023529 -0.023696
v 0.084196 -0.024179 -0.023096
v 0.085326 -0.024779 -0.023172
v 0.085638 -0.024619 -0.023362
v 0.085129 -0.024329 -0.023557
v 0.086448 -0.024689 -0.023172
v 0.083015 -0.022219 -0.023340
v 0.083398 -0.022609 -0.023815
v 0.085755 -0.024019 -0.023732
v 0.086867 -0.024169 -0.023376
v 0.087253 -0.023239 -0.023757
v 0.087953 -0.022869 -0.023436
v 0.083570 -0.020019 -0.023670
v 0.088596 -0.022179 -0.023062
v 0.088303 -0.021609 -0.023738
v 0.088402 -0.020569 -0.023739
v 0.088792 -0.021319 -0.023171
v 0.083710 -0.018119 -0.023154
v 0.083976 -0.017199 -0.023031
v 0.084232 -0.017719 -0.023414
v 0.085427 -0.016419 -0.023721
v 0.087987 -0.017529 -0.023602
v 0.088607 -0.017739 -0.023046
v 0.085335 -0.013249 -0.022915
v 0.085682 -0.014439 -0.023273
v 0.086127 -0.014589 -0.023431
v 0.086921 -0.014559 -0.023389
v 0.087579 -0.015309 -0.023417
v 0.088021 -0.015049 -0.023075
v 0.086149 -0.012949 -0.023165
v 0.087171 -0.013469 -0.023086
v 0.087699 -0.014079 -0.023005
v 0.085634 -0.012249 -0.023049
v 0.086870 -0.012219 -0.022992
v 0.085740 -0.010619 -0.023013
v 0.086230 -0.010349 -0.023024
v 0.086057 -0.008919 -0.022894
v 0.084159 -0.023489 -0.024003
v 0.083616 -0.022209 -0.024103
v 0.083737 -0.022899 -0.024025
v 0.084055 -0.022559 -0.024258
v 0.084823 -0.023039 -0.024277
v 0.083272 -0.021499 -0.023721
v 0.083705 -0.021489 -0.024155
v 0.084154 -0.021839 -0.024369
v 0.084707 -0.021849 -0.024493
v 0.086104 -0.022659 -0.024351
v 0.086532 -0.023249 -0.024010
v 0.084044 -0.020799 -0.024181
v 0.086114 -0.021759 -0.024574
v 0.087216 -0.022499 -0.024126
v 0.085767 -0.020699 -0.024633
v 0.086908 -0.021739 -0.024469
v 0.087866 -0.022019 -0.023963
v 0.087664 -0.021609 -0.024213
v 0.085490 -0.019439 -0.024432
v 0.085637 -0.020179 -0.024589
v 0.086642 -0.020119 -0.024609
v 0.087130 -0.020579 -0.024534
v 0.088042 -0.021229 -0.024059
v 0.087721 -0.020889 -0.024284
v 0.086042 -0.019259 -0.024512
v 0.087520 -0.020019 -0.024308
v 0.085947 -0.016169 -0.023857
v 0.087044 -0.016209 -0.023853
v 0.086604 -0.015869 -0.023822
v 0.086759 -0.016879 -0.024051
v 0.087234 -0.017279 -0.024019
v 0.082905 0.000231 -0.017022
v 0.082822 0.001311 -0.016895
v 0.084827 0.003101 -0.016780
v 0.084827 0.003101 -0.016780
v 0.087041 -0.023079 -0.018158
v 0.087041 -0.023079 -0.018158
v 0.087977 -0.023049 -0.018782
v 0.084430 -0.023029 -0.020190
v 0.084430 -0.023029 -0.020190
v 0.083367 -0.023519 -0.023012
v 0.083624 -0.023849 -0.023145
vn 0.0714 -0.4612 0.8844
vn 0.0505 -0.2925 0.9549
vn -0.1451 -0.4285 0.8918
vn -0.4052 -0.1628 0.8996
vn -0.4810 0.0124 0.8766
vn -0.5400 -0.2052 0.8163
vn -0.1797 -0.2326 0.9558
vn -0.2729 -0.0460 0.9609
vn -0.0167 -0.1349 0.9907
vn -0.3560 -0.3271 0.8754
vn 0.2393 -0.1579 0.9580
vn 0.2655 -0.3200 0.9094
vn 0.3784 -0.1977 0.9043
vn -0.6371 0.1330 0.7592
vn -0.4986 0.1751 0.8490
vn -0.3095 0.1488 0.9392
vn -0.0898 0.0701 0.9935
vn 0.1565 -0.0277 0.9873
vn 0.3906 -0.0717 0.9178
vn 0.5546 -0.2251 0.8011
vn -0.3118 0.2442 0.9182
vn -0.5330 0.2735 0.8007
vn -0.0146 0.1972 0.9802
vn 0.1904 0.1079 0.9758
vn 0.2388 0.2109 0.9479
vn 0.3207 0.0668 0.9448
vn 0.4776 0.0242 0.8783
vn 0.5885 -0.0659 0.8058
vn -0.1855 0.1432 0.9722
vn 0.4087 0.1745 0.8958
vn -0.0859 -0.0783 0.9932
vn -0.3548 -0.1071 0.9288
vn -0.3344 -0.1651 0.9279
vn 0.0006 -0.2592 0.9658
vn -0.0030 -0.0671 0.9977
vn 0.1499 -0.1032 0.9833
vn -0.6103 -0.1595 0.7759
vn 0.3006 -0.3158 0.8999
vn 0.1354 -0.2031 0.9697
vn 0.3497 -0.1470 0.9253
vn -0.3416 -0.0953 0.9350
vn 0.3830 -0.0824 0.9201
vn -0.0783 -0.0814 0.9936
vn -0.5384 -0.0026 0.8427
vn -0.0192 -0.0731 0.9971
vn -0.4418 -0.0246 0.8968
vn 0.2663 -0.0929 0.9594
vn -0.6806 -0.0066 0.7326
vn 0.4764 -0.0614 0.8771
vn -0.3626 -0.0649 0.9297
vn 0.1279 -0.0301 0.9913
vn -0.7580 -0.1485 0.6351
vn 0.5376 0.0332 0.8425
vn 0.6801 -0.0212 0.7328
vn 0.2556 0.0466 0.9657
vn -0.0853 0.0257 0.9960
vn -0.4002 0.1771 0.8991
vn -0.5476 0.0438 0.8356
vn -0.3541 0.0292 0.9348
vn 0.0360 0.1421 0.9892
vn -0.2566 0.1230 0.9586
vn 0.2487 0.1359 0.9590
vn 0.6020 0.0994 0.7922
vn 0.5037 0.1495 0.8508
vn 0.7648 0.1969 0.6135
vn 0.2482 0.2478 0.9365
vn 0.4631 0.2406 0.8530
vn 0.6916 0.2591 0.6742
vn 0.8882 0.2986 0.3493
vn -0.1272 0.2153 0.9682
vn 0.2840 0.3044 0.9092
vn 0.5960 0.3184 0.7371
vn -0.5828 -0.5906 0.5582
vn -0.4249 -0.4574 0.7812
vn -0.6341 -0.4300 0.6427
vn -0.7637 -0.3932 0.5120
vn -0.0519 -0.6326 0.7728
vn -0.2890 -0.5968 0.7485
vn -0.4186 -0.7442 0.5205
vn -0.1877 -0.8040 0.5642
vn -0.5561 -0.7789 0.2900
vn -0.0011 -0.8788 0.4771
vn 0.0524 -0.8151 0.5769
vn 0.1882 -0.9023 0.3877
vn 0.1734 -0.6855 0.7071
vn -0.7179 -0.2013 0.6664
vn -0.7847 -0.2790 0.5536
vn -0.6147 -0.3183 0.7217
vn -0.8498 -0.1359 0.5092
vn 0.2338 -0.4944 0.8372
vn 0.4753 -0.3917 0.7878
vn 0.3777 -0.6249 0.6833
vn 0.6473 -0.6147 0.4508
vn 0.3295 -0.9053 0.2682
vn 0.4847 -0.7907 0.3741
vn -0.7692 0.0001 0.6390
vn -0.7348 0.2138 0.6437
vn -0.8521 0.0846 0.5166
vn -0.6273 -0.0818 0.7744
vn 0.6950 -0.3454 0.6306
vn -0.8620 0.2526 0.4395
vn 0.6704 -0.2101 0.7116
vn 0.6896 -0.0075 0.7242
vn 0.7704 -0.0653 0.6342
vn 0.6006 0.1529 0.7848
vn -0.5996 0.1773 0.7805
vn 0.6296 0.2334 0.7410
vn 0.4534 0.2207 0.8636
vn 0.7516 0.2281 0.6189
vn 0.7093 0.1820 0.6811
vn 0.2480 0.0433 0.9678
vn 0.5933 0.0404 0.8040
vn -0.3313 -0.1359 0.9337
vn -0.6692 0.0074 0.7431
vn 0.5491 -0.3106 0.7759
vn 0.7723 -0.0502 0.6333
vn 0.4814 -0.2630 0.8361
vn 0.5815 -0.1128 0.8057
vn 0.6052 -0.3805 0.6992
vn 0.7196 -0.1871 0.6687
vn -0.7510 -0.0129 0.6602
vn -0.8505 0.0145 0.5258
vn 0.7118 -0.0421 0.7011
vn -0.8376 -0.1044 0.5362
vn -0.9671 -0.0952 0.2359
vn -0.8773 -0.0865 0.4720
vn -0.6165 -0.1077 0.7800
vn -0.9813 0.0295 0.1902
vn 0.9130 0.0734 0.4014
vn 0.7572 0.0791 0.6484
vn 0.8721 0.0545 0.4863
vn -0.6828 0.0349 0.7298
vn -0.8545 -0.0010 0.5195
vn -0.8053 0.0706 0.5887
vn 0.8211 0.1616 0.5474
vn 0.9096 0.1923 0.3683
vn 0.9613 0.2441 0.1277
vn 0.9755 0.2186 0.0243
vn 0.7797 0.1216 0.6143
vn 0.9219 0.2868 -0.2606
vn 0.9309 0.2234 0.2890
vn 0.9507 0.3075 -0.0398
vn -0.9028 0.0132 0.4299
vn -0.9884 -0.0116 0.1516
vn 0.8731 0.3553 0.3339
vn -0.8922 0.0506 0.4487
vn -0.6005 0.5181 0.6091
vn -0.8718 0.2448 0.4243
vn -0.7090 0.1280 0.6935
vn -0.4224 0.3989 0.8139
vn -0.3429 0.7596 0.5526
vn -0.5422 0.1679 0.8233
vn -0.2135 0.6888 0.6928
vn -0.2256 0.4227 0.8778
vn 0.6182 0.3510 0.7033
vn 0.8840 0.3390 0.3218
vn 0.9420 0.2917 -0.1660
vn 0.0598 0.6340 0.7710
vn -0.2468 0.9057 0.3446
vn 0.0598 0.4067 0.9116
vn 0.4420 0.4702 0.7639
vn 0.6877 0.5732 0.4455
vn 0.7661 0.4064 0.4978
vn 0.9332 0.3485 0.0881
vn 0.9033 0.2884 -0.3177
vn 0.1342 0.8292 0.5426
vn -0.2416 -0.9366 0.2537
vn 0.0612 -0.9897 0.1291
vn -0.1107 -0.9903 -0.0840
vn -0.3964 -0.9156 0.0670
vn -0.4983 -0.8645 -0.0657
vn -0.2838 -0.9362 -0.2075
vn 0.0567 -0.9302 -0.3627
vn -0.8571 -0.2921 0.4243
vn -0.6977 -0.6162 0.3655
vn -0.7947 -0.4789 0.3730
vn -0.8727 -0.3699 0.3187
vn -0.8112 -0.5731 0.1158
vn 0.1763 -0.9660 -0.1889
vn 0.2346 -0.9720 0.0098
vn 0.3280 -0.8941 -0.3050
vn 0.1465 -0.8341 -0.5319
vn -0.9183 -0.1726 0.3562
vn -0.9444 -0.2257 0.2393
vn -0.9814 -0.0785 0.1750
vn 0.4886 -0.8712 -0.0477
vn -0.9357 -0.0599 0.3476
vn -0.9302 0.0990 0.3533
vn 0.7010 -0.5062 0.5023
vn 0.6364 -0.7625 0.1166
vn 0.3066 -0.9108 -0.2764
vn -0.9342 0.3122 0.1725
vn 0.5513 -0.5444 0.6322
vn -0.7802 0.2903 0.5541
vn 0.7011 -0.2802 0.6557
vn 0.7960 0.1059 0.5960
vn 0.8790 0.0715 0.4714
vn 0.8486 -0.0995 0.5195
vn -0.9181 0.3077 0.2499
vn -0.8243 0.2138 0.5242
vn -0.8206 0.0254 0.5709
vn -0.9549 0.1427 0.2602
vn 0.7214 0.2869 0.6303
vn -0.8828 -0.0861 0.4617
vn 0.7709 0.2135 0.6001
vn -0.9510 -0.1105 0.2888
vn -0.9660 -0.0866 0.2435
vn -0.8153 -0.1525 0.5585
vn -0.8485 -0.0446 0.5273
vn -0.9751 0.0260 0.2202
vn 0.7461 -0.1444 0.6500
vn 0.6643 -0.4460 0.5998
vn -0.9258 0.0247 0.3772
vn 0.7130 -0.4757 0.5151
vn 0.8092 -0.2949 0.5082
vn 0.9221 -0.2596 0.2870
vn -0.9737 -0.0429 0.2238
vn -0.9959 0.0679 0.0595
vn -0.9970 -0.0596 -0.0502
vn -0.9679 0.0152 -0.2510
vn 0.9640 0.1860 0.1899
vn 0.9816 0.1904 0.0114
vn 0.9179 0.3788 -0.1182
vn 0.8626 0.4807 0.1573
vn 0.8650 0.3618 -0.3478
vn 0.7148 0.6722 -0.1928
vn 0.6369 0.6014 -0.4824
vn 0.9273 0.2155 0.3061
vn -0.9713 0.0129 -0.2375
vn -0.9877 -0.0111 -0.1561
vn -0.7831 0.0786 -0.6170
vn -0.6788 0.0897 -0.7288
vn 0.8878 0.2450 -0.3896
vn 0.6237 0.3942 -0.6750
vn 0.6475 0.2382 -0.7239
vn -0.9765 0.0879 -0.1968
vn -0.8930 0.0980 -0.4392
vn 0.4966 0.1854 -0.8479
vn 0.7235 0.2381 -0.6479
vn 0.7683 0.2756 -0.5777
vn -0.7249 0.1178 -0.6787
vn 0.7043 0.2455 -0.6661
vn -0.9455 -0.0089 0.3255
vn -0.8022 0.0057 -0.5970
vn -0.7298 -0.0046 -0.6836
vn -0.8905 0.0170 -0.4546
vn -0.9878 0.1246 -0.0933
vn -0.9324 0.0144 -0.3612
vn -0.3290 0.0765 -0.9412
vn -0.5493 0.0385 -0.8348
vn -0.7041 0.6861 0.1829
vn -0.3912 0.9026 0.1799
vn -0.9276 0.3732 0.0156
vn -0.8966 0.2717 -0.3498
vn -0.7679 0.1574 -0.6209
vn -0.7654 0.5937 -0.2484
vn -0.4265 0.8655 -0.2628
vn -0.7084 0.4722 -0.5246
vn -0.5274 0.5448 -0.6519
vn -0.2035 0.7722 -0.6019
vn -0.4962 0.1833 -0.8486
vn -0.3208 0.4410 -0.8382
vn -0.1425 0.9502 -0.2773
vn 0.6097 0.2256 -0.7599
vn 0.2612 0.3617 -0.8950
vn -0.0196 0.5320 -0.8465
vn 0.3189 0.6370 -0.7018
vn 0.7905 0.5882 -0.1703
vn -0.2110 0.9699 0.1212
vn -0.0754 0.9964 -0.0379
vn 0.5617 0.7570 0.3340
vn 0.5312 0.6661 -0.5237
vn 0.7156 0.3704 -0.5923
vn -0.6503 -0.7586 -0.0399
vn -0.4322 -0.8356 -0.3390
vn -0.2454 -0.9044 -0.3490
vn -0.9505 -0.3094 0.0273
vn -0.9173 -0.3758 0.1313
vn -0.8125 -0.5709 -0.1181
vn -0.4697 -0.8184 -0.3310
vn -0.1674 -0.8363 -0.5220
vn 0.3195 -0.8699 -0.3757
vn 0.2303 -0.8941 -0.3840
vn -0.9798 -0.1927 0.0536
vn -0.0570 -0.9910 -0.1213
vn -0.1589 -0.9837 -0.0837
vn 0.2848 -0.9495 -0.1321
vn 0.5500 -0.7276 0.4099
vn -0.2165 -0.9418 0.2570
vn -0.0173 -0.9919 0.1258
vn -0.9691 0.1190 0.2160
vn -0.9639 0.2601 -0.0568
vn 0.1145 -0.9856 0.1244
vn 0.6056 -0.5013 0.6180
vn 0.2855 -0.7170 0.6359
vn 0.8265 -0.2639 0.4972
vn 0.9255 0.1538 0.3461
vn 0.8456 0.2235 0.4847
vn 0.7589 0.2944 0.5809
vn -0.9800 0.1623 -0.1153
vn 0.7554 0.1664 0.6338
vn 0.7883 0.2728 0.5515
vn -0.9830 -0.1158 0.1423
vn 0.7856 -0.3555 0.5063
vn 0.8825 -0.1250 0.4534
vn 0.9781 -0.0580 0.2001
vn -0.9815 0.0364 -0.1882
vn 0.9083 0.0054 0.4183
vn 0.9346 0.1346 0.3294
vn 0.9884 0.0883 0.1234
vn -0.8072 0.1429 -0.5727
vn -0.5115 0.2051 -0.8345
vn -0.3756 0.1796 -0.9092
vn 0.4089 0.2606 -0.8746
vn 0.3934 0.2114 -0.8947
vn 0.4158 0.2831 -0.8643
vn 0.4350 0.6218 -0.6513
vn 0.4616 0.6939 -0.5526
vn 0.3066 0.4269 -0.8507
vn 0.2121 0.7836 -0.5839
vn 0.3471 0.9113 -0.2215
vn 0.3637 0.9305 -0.0435
vn 0.3244 0.4819 -0.8140
vn 0.4321 0.7315 -0.5275
vn 0.1669 0.8446 -0.5087
vn 0.1278 0.9170 -0.3779
vn 0.2019 0.9682 -0.1475
vn 0.4119 0.8873 -0.2076
vn 0.0721 0.9919 -0.1050
vn 0.0983 0.9494 0.2982
vn 0.1445 0.9822 -0.1196
vn -0.0834 0.9369 0.3396
vn 0.0348 0.6746 0.7374
vn 0.5088 0.8147 -0.2780
vn 0.6507 0.7288 0.2132
vn 0.7680 0.4886 0.4140
vn 0.4690 0.8803 0.0717
vn 0.2639 0.9565 0.1241
vn 0.3168 0.7949 0.5175
vn 0.5154 0.6637 0.5421
vn 0.1661 0.8701 0.4639
vn 0.6483 0.4281 0.6297
vn 0.2428 0.5292 0.8130
vn 0.8927 0.2988 0.3373
vn -0.2327 0.1400 -0.9624
vn -0.0915 0.1819 -0.9790
vn 0.0794 0.2134 -0.9737
vn 0.2877 0.1317 -0.9486
vn 0.3999 0.1591 -0.9026
vn 0.1134 0.1131 -0.9871
vn 0.4504 0.1664 -0.8772
vn -0.3037 0.1204 -0.9451
vn -0.0631 0.0910 -0.9939
vn -0.0579 0.2409 -0.9688
vn 0.2204 0.1842 -0.9579
vn -0.3893 -0.2048 0.8981
vn 0.0198 -0.0970 0.9951
vn -0.1699 -0.0825 0.9820
vn -0.3927 0.0329 0.9191
vn -0.0718 0.0953 0.9929
vn -0.2726 0.2034 0.9404
vn 0.2491 0.0686 0.9661
vn -0.9358 -0.3367 -0.1050
vn -0.7229 -0.6382 -0.2648
vn -0.4300 -0.8785 -0.2083
vn -0.1467 -0.9548 -0.2584
vn -0.0031 -0.8931 -0.4498
vn -0.1137 -0.8348 -0.5387
vn 0.0924 -0.8064 -0.5842
vn -0.9936 -0.0909 -0.0664
vn -0.0167 -0.9356 -0.3526
vn -0.1180 -0.9929 0.0137
vn -0.0055 -0.9997 0.0253
vn 0.3507 -0.9349 0.0543
vn 0.1539 -0.7765 0.6110
vn -0.1543 -0.8691 0.4700
vn -0.9995 0.0262 0.0203
vn 0.2349 -0.9219 -0.3080
vn -0.2883 -0.9419 0.1723
vn 0.1921 -0.9641 0.1832
vn -0.0531 -0.8372 0.5443
vn -0.2927 -0.8763 0.3827
vn -0.3364 -0.8541 0.3966
vn -0.1489 -0.8251 0.5450
vn -0.0882 -0.8433 0.5301
vn 0.2679 -0.7371 0.6205
vn -0.9635 0.1497 -0.2220
vn 0.8195 -0.3507 0.4532
vn 0.5978 -0.6074 0.5232
vn -0.9260 0.3512 -0.1384
vn 0.9459 -0.1737 0.2741
vn 0.9299 -0.0867 0.3574
vn 0.9756 -0.0710 0.2076
vn 0.9488 0.0250 0.3148
vn -0.9867 -0.0086 -0.1623
vn 0.9062 0.1580 0.3923
vn -0.9978 -0.0645 0.0148
vn 0.7936 -0.0051 0.6084
vn -0.9945 0.0756 -0.0723
vn -0.9576 0.0449 -0.2845
vn -0.9687 0.1168 -0.2192
vn 0.9279 -0.0948 0.3606
vn -0.9254 0.1457 -0.3499
vn 0.9990 -0.0340 0.0283
vn 0.9980 0.0418 -0.0479
vn -0.8158 0.2386 -0.5268
vn -0.5248 0.3261 -0.7863
vn -0.6341 0.4296 -0.6429
vn -0.1938 0.2993 -0.9343
vn -0.1744 0.4767 -0.8616
vn 0.0908 0.5045 -0.8586
vn -0.3377 0.7013 -0.6278
vn 0.0266 0.8036 -0.5946
vn -0.2065 0.9441 -0.2571
vn -0.0396 0.9890 -0.1426
vn -0.4296 0.8492 -0.3070
vn -0.4532 0.8900 0.0493
vn 0.2636 0.7756 -0.5736
vn 0.0693 0.9878 0.1398
vn -0.2227 0.9203 0.3217
vn -0.7359 0.5731 0.3605
vn -0.5739 0.5206 0.6322
vn -0.3019 0.5782 0.7580
vn 0.9837 0.1799 -0.0020
vn 0.2587 0.2970 -0.9192
vn -0.1256 0.6596 0.7411
vn -0.1585 0.2758 0.9481
vn -0.4286 0.0178 0.9033
vn -0.2778 -0.0366 0.9600
vn -0.3789 -0.0545 0.9238
vn -0.5697 0.1972 0.7979
vn 0.2764 0.8742 0.3993
vn 0.1444 0.8035 0.5775
vn 0.1088 0.8224 0.5583
vn -0.0338 0.4300 0.9022
vn -0.2375 0.5366 0.8097
vn -0.1412 0.2775 0.9503
vn -0.3148 0.0177 0.9490
vn 0.3042 0.9393 0.1586
vn -0.0061 0.9484 0.3169
vn -0.2028 0.6167 0.7607
vn -0.0101 0.3062 0.9519
vn -0.2870 0.7555 0.5889
vn -0.2697 0.2409 0.9323
vn -0.4431 0.3312 0.8331
vn -0.3347 -0.0020 0.9423
vn -0.0140 0.0487 0.9987
vn -0.4167 0.1501 0.8966
vn 0.8609 0.3309 0.3866
vn 0.9549 0.2272 0.1913
vn 0.9055 0.2579 0.3370
vn -0.6041 -0.0467 0.7955
vn 0.2140 0.2629 0.9408
vn 0.3680 0.1194 0.9221
vn 0.4744 0.1098 0.8734
vn 0.4563 0.2562 0.8521
vn 0.7395 0.2854 0.6096
vn 0.6848 0.1764 0.7070
vn -0.0392 0.0042 0.9992
vn 0.7314 0.2031 0.6510
vn 0.3705 0.0714 0.9261
vn 0.8506 0.2168 0.4790
vn 0.9584 0.2094 0.1937
vn -0.5448 -0.1120 0.8310
vn -0.8642 -0.1350 0.4846
vn -0.3481 -0.0164 0.9373
vn -0.2103 0.0264 0.9773
vn 0.4549 0.1491 0.8780
vn 0.8775 0.2573 0.4046
vn -0.7055 -0.1711 0.6878
vn -0.1035 -0.1419 0.9845
vn -0.0971 0.0245 0.9950
vn 0.3397 0.0717 0.9378
vn 0.7757 0.1567 0.6114
vn 0.4299 0.0425 0.9019
vn 0.8002 0.1361 0.5841
vn 0.9001 0.2214 0.3752
vn -0.8677 -0.1005 0.4868
vn -0.8373 -0.0090 0.5466
vn 0.9509 0.2594 0.1689
vn -0.5764 -0.1133 0.8093
vn 0.5260 0.0995 0.8446
vn 0.8078 0.2551 0.5315
vn 0.9352 0.3173 0.1574
vn 0.9090 0.3564 0.2163
vn 0.9401 0.3343 0.0669
vn -0.6782 0.0390 0.7338
vn -0.6097 0.2138 0.7633
vn -0.4359 0.2638 0.8604
vn -0.4943 0.4157 0.7635
vn -0.2036 0.3371 0.9192
vn -0.3361 0.4053 0.8502
vn -0.7957 0.1996 0.5718
vn -0.6849 0.3797 0.6219
vn -0.4994 0.5673 0.6548
vn -0.5812 0.6207 0.5263
vn -0.7047 0.5694 0.4234
vn 0.1373 0.2652 0.9544
vn 0.5333 0.2076 0.8200
vn -0.0412 0.4422 0.8960
vn -0.1732 0.6082 0.7746
vn 0.2167 0.5894 0.7782
vn 0.1817 0.7753 0.6049
vn -0.2464 0.7502 0.6136
vn -0.0555 0.9114 0.4077
vn 0.2807 0.8818 0.3790
vn 0.5878 0.5997 0.5430
vn 0.6445 0.7089 0.2864
vn -0.4169 0.8563 0.3047
vn -0.3066 0.8702 0.3856
vn -0.0084 0.9921 0.1250
vn 0.3386 0.9311 0.1360
vn 0.4070 0.9078 -0.1009
vn 0.7322 0.6807 -0.0211
vn 0.4338 0.4177 0.7983
vn 0.7129 0.3483 0.6086
vn 0.8275 0.3360 0.4497
vn 0.8095 0.4476 0.3799
vn 0.8622 0.4857 0.1440
vn 0.9159 0.3939 -0.0773
vn -0.7304 -0.6343 -0.2533
vn -0.5478 -0.8031 -0.2345
vn -0.9618 -0.1700 -0.2145
vn -0.8724 -0.4524 -0.1851
vn -0.1496 -0.9881 0.0356
vn -0.2786 -0.9604 0.0009
vn -0.2179 -0.9631 -0.1581
vn -0.1411 -0.9861 -0.0876
vn -0.5525 -0.7903 0.2648
vn -0.5455 -0.6814 0.4880
vn -0.4092 -0.6321 0.6580
vn -0.3677 -0.9078 0.2020
vn -0.5556 -0.6060 0.5693
vn -0.5667 -0.7335 0.3752
vn -0.7856 -0.5389 0.3041
vn -0.1679 -0.6843 0.7096
vn 0.1442 -0.6294 0.7636
vn 0.2121 -0.6521 0.7279
vn 0.0949 -0.6508 0.7533
vn -0.4259 -0.7651 0.4830
vn -0.0604 -0.7829 0.6192
vn 0.2335 -0.6201 0.7490
vn 0.1378 -0.6320 0.7626
vn -0.9566 0.0315 -0.2898
vn 0.0032 -0.8030 0.5959
vn -0.0863 -0.8180 0.5686
vn -0.3795 -0.8040 0.4578
vn 0.0275 -0.6914 0.7219
vn -0.2450 -0.7423 0.6236
vn -0.1240 -0.8286 0.5460
vn 0.1368 -0.8696 0.4745
vn 0.4381 -0.7933 0.4229
vn 0.6480 -0.7465 0.1511
vn 0.8314 -0.4736 0.2907
vn 0.8504 -0.5249 0.0359
vn -0.9140 0.2613 -0.3103
vn 0.9534 -0.2939 0.0687
vn 0.9693 -0.1724 0.1752
vn -0.8701 0.3042 -0.3878
vn 0.9943 0.0331 0.1010
vn -0.9388 0.0290 -0.3433
vn 0.9794 0.1048 0.1724
vn -0.8679 0.0438 -0.4948
vn -0.9330 0.1135 -0.3414
vn -0.9537 0.1894 -0.2335
vn -0.9265 0.1987 -0.3195
vn -0.9691 0.1826 -0.1656
vn -0.9441 0.1954 -0.2655
vn 0.9716 0.0637 -0.2277
vn -0.7750 0.4204 -0.4719
vn -0.6105 0.6622 -0.4344
vn -0.8074 0.5251 -0.2690
vn -0.9071 0.3223 -0.2707
vn -0.9331 0.3544 -0.0612
vn -0.6605 0.7240 -0.1988
vn -0.7913 0.6111 0.0203
vn -0.9202 0.3696 0.1290
vn -0.9127 0.1705 0.3713
vn -0.9902 0.0912 -0.1057
vn -0.7412 -0.0193 0.6710
vn -0.9569 -0.0226 0.2896
vn 0.9672 0.1235 -0.2221
vn 0.9568 0.2254 -0.1838
vn -0.9577 -0.1229 0.2604
vn -0.9938 -0.0968 -0.0552
vn 0.9732 0.2215 -0.0612
vn -0.9488 0.0161 0.3153
vn -0.9989 -0.0163 0.0431
vn 0.9171 0.3561 -0.1789
vn 0.9126 0.3765 -0.1595
vn -0.9948 0.0906 -0.0471
vn -0.9451 0.2941 0.1421
vn -0.9407 0.1113 0.3203
vn -0.8622 0.2516 0.4396
vn -0.7935 0.5587 0.2411
vn -0.5015 0.8586 0.1068
vn -0.7384 0.6651 -0.1115
vn -0.9297 0.2899 -0.2272
vn -0.3946 0.8675 -0.3028
vn 0.8205 0.3808 -0.4264
vn 0.8686 0.3863 -0.3103
vn -0.1943 0.9809 -0.0115
vn 0.1597 0.9720 -0.1722
vn 0.4760 0.8313 -0.2871
vn 0.6925 0.6849 -0.2265
vn 0.6588 0.6160 -0.4320
vn 0.4153 0.7048 -0.5751
vn -0.0055 0.9360 -0.3521
vn 0.8311 0.4792 -0.2821
vn 0.7026 0.3994 -0.5889
vn -0.5165 -0.8288 0.2154
vn -0.1896 -0.9693 0.1565
vn -0.7511 -0.5934 0.2895
vn -0.6188 -0.7601 0.1983
vn -0.7283 -0.6648 0.1661
vn -0.4221 -0.9012 0.0981
vn -0.3604 -0.8841 0.2974
vn -0.2061 -0.8863 0.4147
vn 0.0306 -0.8135 0.5807
vn -0.7273 -0.6674 -0.1597
vn -0.6233 -0.7697 -0.1377
vn -0.5600 -0.8206 -0.1143
vn -0.8686 -0.2724 -0.4138
vn -0.8922 -0.0005 -0.4516
vn -0.5874 -0.8091 -0.0188
vn -0.6708 -0.7360 -0.0918
vn -0.2059 -0.9395 0.2737
vn -0.1361 -0.9578 0.2533
vn -0.5593 -0.7914 0.2468
vn -0.0185 -0.6347 0.7726
vn 0.0113 -0.6865 0.7270
vn 0.2709 -0.8063 0.5259
vn 0.1501 -0.8791 0.4524
vn 0.1668 -0.8150 0.5550
vn 0.5265 -0.8330 0.1698
vn 0.4659 -0.8714 0.1536
vn -0.9007 0.1636 -0.4024
vn 0.1909 -0.8946 0.4040
vn 0.7321 -0.6751 -0.0911
vn 0.9839 -0.1601 0.0798
vn 0.9463 -0.3118 -0.0859
vn 0.8574 -0.4767 -0.1937
vn -0.8215 0.2043 -0.5323
vn -0.8088 0.2717 -0.5215
vn 0.9987 -0.0392 0.0329
vn -0.8117 0.2640 -0.5210
vn 0.9817 0.1340 0.1351
vn 0.9876 0.0788 -0.1359
vn 0.9763 0.0964 -0.1939
vn 0.9684 0.0799 -0.2363
vn -0.9506 0.1519 -0.2709
vn -0.9033 0.1912 -0.3840
vn 0.8878 0.0726 -0.4545
vn -0.9069 0.0762 -0.4144
vn 0.8798 0.1104 -0.4624
vn -0.9996 -0.0279 0.0053
vn -0.9312 -0.0273 -0.3635
vn 0.8801 0.1748 -0.4414
vn 0.9191 0.2127 -0.3317
vn 0.8004 0.2322 -0.5527
vn -0.8633 -0.0030 -0.5047
vn 0.8431 0.2882 -0.4540
vn 0.5985 0.3158 -0.7363
vn -0.9471 0.0330 -0.3192
vn -0.1460 0.1687 -0.9748
vn -0.0418 0.1818 -0.9824
vn -0.6250 0.0824 -0.7763
vn 0.3350 0.3035 -0.8920
vn -0.7578 0.0874 -0.6467
vn -0.3685 0.2168 -0.9040
vn 0.1539 0.2332 -0.9602
vn -0.7000 0.5641 -0.4378
vn -0.4106 0.5724 -0.7098
vn -0.7182 0.2836 -0.6354
vn -0.1968 0.7513 -0.6300
vn -0.0510 0.4271 -0.9028
vn 0.1418 0.6634 -0.7347
vn 0.3514 0.3654 -0.8620
vn -0.4456 -0.7557 0.4799
vn -0.5830 -0.7991 0.1467
vn -0.3021 -0.9380 0.1700
vn -0.0780 -0.9566 0.2807
vn -0.1503 -0.9697 -0.1926
vn 0.0240 -0.9996 -0.0148
vn 0.2868 -0.9531 0.0973
vn 0.4091 -0.8777 -0.2494
vn -0.7645 -0.6042 -0.2247
vn -0.5676 -0.8223 -0.0415
vn -0.7729 -0.5397 -0.3338
vn -0.7775 0.0746 -0.6244
vn -0.8563 -0.2233 -0.4658
vn -0.7976 -0.5863 -0.1421
vn 0.5797 -0.7891 -0.2031
vn 0.5147 -0.7078 -0.4838
vn 0.6679 -0.6668 -0.3307
vn 0.6023 -0.5332 -0.5941
vn 0.6901 -0.6995 -0.1855
vn 0.7298 -0.5285 -0.4337
vn 0.7817 -0.5363 -0.3183
vn 0.8443 -0.3914 -0.3659
vn 0.7898 -0.3226 -0.5217
vn 0.7401 -0.4440 -0.5050
vn 0.9431 -0.2753 -0.1865
vn 0.9844 -0.1339 -0.1142
vn 0.9030 -0.2293 -0.3633
vn 0.9623 -0.0438 -0.2685
vn -0.8524 0.1228 -0.5083
vn -0.7190 0.1054 -0.6870
vn 0.8603 0.1377 -0.4908
vn 0.8582 0.1290 -0.4969
vn -0.8257 0.1220 -0.5508
vn 0.7250 0.0633 -0.6859
vn 0.6603 0.2005 -0.7238
vn -0.7454 0.1602 -0.6471
vn 0.7385 0.0676 -0.6709
vn -0.7520 0.0573 -0.6567
vn 0.7745 0.1554 -0.6131
vn -0.5405 0.0927 -0.8362
vn -0.2524 0.1748 -0.9517
vn 0.5338 0.2273 -0.8145
vn -0.5279 -0.7360 0.4237
vn -0.6403 -0.6949 0.3273
vn -0.6504 -0.6251 0.4314
vn -0.5757 -0.7787 0.2493
vn -0.4822 -0.7088 0.5148
vn -0.6817 -0.6600 0.3159
vn -0.5446 -0.8381 0.0323
vn -0.2898 -0.9215 -0.2586
vn -0.4059 -0.8165 -0.4106
vn -0.2280 -0.8097 -0.5408
vn -0.1792 -0.9836 0.0212
vn 0.0068 -0.9813 -0.1926
vn 0.0797 -0.8044 -0.5887
vn 0.2239 -0.6036 -0.7652
vn 0.3940 -0.6598 -0.6399
vn 0.0303 -0.6412 -0.7667
vn 0.2205 -0.8883 -0.4029
vn 0.3723 -0.5161 -0.7714
vn 0.6467 -0.4164 -0.6391
vn -0.6567 0.2181 -0.7219
vn 0.8529 -0.1114 -0.5100
vn -0.6411 0.2449 -0.7273
vn -0.6559 0.3060 -0.6901
vn -0.4431 0.2453 -0.8622
vn 0.8870 0.0718 -0.4561
vn 0.7942 0.1344 -0.5926
vn -0.4727 0.0699 -0.8784
vn -0.3892 0.1855 -0.9023
vn 0.6365 0.1915 -0.7471
vn 0.7334 0.2246 -0.6417
vn 0.4813 0.2542 -0.8389
vn -0.6385 0.0324 -0.7690
vn -0.4049 0.0663 -0.9120
vn 0.4415 0.1978 -0.8752
vn -0.5972 0.1491 -0.7881
vn 0.5863 0.0531 -0.8084
vn 0.3214 0.1002 -0.9416
vn 0.2384 0.1285 -0.9626
vn 0.5112 0.0473 -0.8582
vn -0.4815 0.1368 -0.8657
vn -0.3188 0.1474 -0.9363
vn -0.0647 0.1135 -0.9914
vn -0.1188 0.1647 -0.9792
vn 0.5821 0.1256 -0.8034
vn 0.4979 0.1848 -0.8473
vn -0.8235 -0.5463 -0.1530
vn -0.8457 -0.3907 -0.3635
vn -0.6175 -0.3778 -0.6899
vn -0.6779 -0.6455 -0.3518
vn -0.7506 -0.1723 -0.6379
vn -0.5149 -0.2625 -0.8161
vn -0.6960 -0.7144 -0.0715
vn -0.4080 -0.6069 -0.6821
vn -0.2485 -0.4587 -0.8531
vn -0.1076 -0.6033 -0.7903
vn -0.0552 -0.3358 -0.9403
vn 0.0978 -0.4932 -0.8644
vn -0.8502 -0.0868 -0.5193
vn 0.4412 -0.4490 -0.7770
vn 0.2161 -0.4338 -0.8747
vn 0.5588 -0.3155 -0.7669
vn 0.3561 -0.3464 -0.8679
vn 0.6115 -0.0942 -0.7856
vn 0.7173 -0.2142 -0.6630
vn -0.6933 0.2554 -0.6738
vn -0.5140 0.2551 -0.8190
vn 0.7231 0.0419 -0.6894
vn 0.6044 0.1435 -0.7837
vn -0.2026 0.2357 -0.9505
vn 0.4160 0.2292 -0.8800
vn -0.1118 0.2339 -0.9658
vn 0.0366 0.2606 -0.9647
vn 0.1809 0.2405 -0.9536
vn 0.2503 0.2324 -0.9399
vn -0.0933 0.1001 -0.9906
vn -0.3066 0.0117 -0.9518
vn -0.1903 0.0688 -0.9793
vn 0.0845 0.0706 -0.9939
vn -0.5978 -0.0730 -0.7983
vn -0.3119 -0.0011 -0.9501
vn -0.5468 0.1036 -0.8308
vn -0.3017 -0.1901 -0.9342
vn -0.1446 -0.0725 -0.9868
vn 0.0491 -0.1454 -0.9882
vn 0.1152 -0.3283 -0.9375
vn -0.4084 0.1917 -0.8925
vn 0.2371 -0.1909 -0.9525
vn 0.4335 -0.2001 -0.8787
vn -0.2922 0.1933 -0.9366
vn -0.1627 0.1073 -0.9808
vn -0.0577 0.0055 -0.9983
vn 0.2725 0.0031 -0.9622
vn -0.0647 0.1670 -0.9838
vn 0.1253 0.0770 -0.9891
vn 0.4776 -0.0101 -0.8785
vn 0.4711 0.1189 -0.8740
vn 0.0865 0.1971 -0.9766
vn 0.3660 0.1647 -0.9159
s 1
usemtl mtl1.158
f 56//1 5//2 2//3
f 3//4 9//5 63//6
f 3//4 4//7 8//8
f 4//7 10//9 8//8
f 4//7 3//4 1//10
f 63//6 1//10 3//4
f 1//10 2//3 4//7
f 4//7 2//3 5//2
f 4//7 5//2 10//9
f 11//11 10//9 5//2
f 5//2 56//1 6//12
f 5//2 6//12 11//11
f 6//12 12//13 11//11
f 66//14 9//5 7//15
f 8//8 14//16 9//5
f 8//8 9//5 3//4
f 9//5 14//16 7//15
f 13//17 8//8 10//9
f 10//9 15//18 13//17
f 10//9 11//11 15//18
f 12//13 17//19 11//11
f 12//13 67//20 17//19
f 18//21 71//22 7//15
f 71//22 66//14 7//15
f 13//17 14//16 8//8
f 13//17 19//23 14//16
f 19//23 18//21 14//16
f 18//21 7//15 14//16
f 13//17 15//18 16//24
f 19//23 13//17 16//24
f 16//24 74//25 19//23
f 11//11 17//19 15//18
f 15//18 17//19 20//26
f 17//19 21//27 20//26
f 70//28 17//19 67//20
f 70//28 21//27 17//19
f 18//21 19//23 75//29
f 19//23 74//25 75//29
f 16//24 72//30 74//25
f 15//18 20//26 16//24
f 16//24 20//26 72//30
f 22//31 26//32 23//33
f 23//33 25//34 22//31
f 26//32 22//31 27//35
f 25//34 24//36 22//31
f 81//37 23//33 26//32
f 82//38 24//36 25//34
f 25//34 79//39 82//38
f 82//38 83//40 24//36
f 26//32 27//35 30//41
f 22//31 24//36 27//35
f 86//42 27//35 24//36
f 30//41 27//35 29//43
f 24//36 83//40 86//42
f 28//44 81//37 30//41
f 27//35 31//45 29//43
f 86//42 31//45 27//35
f 26//32 30//41 81//37
f 30//41 31//45 32//46
f 32//46 28//44 30//41
f 30//41 29//43 31//45
f 31//45 86//42 33//47
f 32//46 88//48 28//44
f 33//47 86//42 34//49
f 32//46 31//45 35//50
f 33//47 36//51 31//45
f 33//47 34//49 36//51
f 89//52 88//48 35//50
f 35//50 88//48 32//46
f 31//45 36//51 35//50
f 36//51 34//49 37//53
f 34//49 90//54 37//53
f 37//53 41//55 36//51
f 35//50 36//51 39//56
f 41//55 39//56 36//51
f 110//57 38//58 40//59
f 44//60 43//61 39//56
f 44//60 39//56 45//62
f 39//56 43//61 40//59
f 38//58 35//50 40//59
f 35//50 39//56 40//59
f 39//56 41//55 45//62
f 37//53 42//63 41//55
f 41//55 42//63 46//64
f 46//64 42//63 104//65
f 43//61 110//57 40//59
f 44//60 45//62 48//66
f 41//55 46//64 45//62
f 45//62 46//64 49//67
f 45//62 49//67 48//66
f 47//68 49//67 46//64
f 47//68 46//64 104//65
f 104//65 105//69 47//68
f 110//57 43//61 109//70
f 43//61 44//60 109//70
f 48//66 109//70 44//60
f 109//70 48//66 114//71
f 48//66 49//67 111//72
f 48//66 111//72 114//71
f 49//67 47//68 111//72
f 131//73 50//74 51//75
f 51//75 128//76 131//73
f 2//3 53//77 56//1
f 131//73 52//78 50//74
f 2//3 50//74 52//78
f 53//77 2//3 52//78
f 133//79 52//78 131//73
f 133//79 134//80 52//78
f 53//77 52//78 134//80
f 124//81 133//79 131//73
f 53//77 134//80 135//82
f 54//83 136//84 58//85
f 135//82 54//83 53//77
f 135//82 136//84 54//83
f 61//86 140//87 55//88
f 61//86 55//88 63//6
f 149//89 140//87 61//86
f 63//6 55//88 1//10
f 51//75 55//88 128//76
f 140//87 128//76 55//88
f 55//88 50//74 1//10
f 55//88 51//75 50//74
f 50//74 2//3 1//10
f 53//77 54//83 58//85
f 53//77 58//85 56//1
f 58//85 57//90 56//1
f 57//90 6//12 56//1
f 57//90 64//91 6//12
f 58//85 59//92 57//90
f 64//91 57//90 59//92
f 59//92 150//93 64//91
f 144//94 59//92 58//85
f 144//94 145//95 59//92
f 150//93 59//92 145//95
f 58//85 136//84 144//94
f 62//96 65//97 152//98
f 60//99 9//5 66//14
f 62//96 60//99 66//14
f 60//99 63//6 9//5
f 61//86 63//6 60//99
f 62//96 149//89 61//86
f 60//99 62//96 61//86
f 149//89 62//96 152//98
f 12//13 6//12 64//91
f 64//91 67//20 12//13
f 150//93 68//100 64//91
f 152//98 65//97 155//101
f 62//96 66//14 65//97
f 67//20 64//91 68//100
f 69//102 67//20 68//100
f 71//22 65//97 66//14
f 69//102 70//28 67//20
f 69//102 156//103 70//28
f 69//102 157//104 156//103
f 71//22 18//21 75//29
f 20//26 21//27 72//30
f 73//105 72//30 21//27
f 70//28 156//103 73//105
f 21//27 70//28 73//105
f 71//22 75//29 162//106
f 73//105 77//107 76//108
f 76//108 72//30 73//105
f 245//109 73//105 160//110
f 74//25 78//111 75//29
f 72//30 76//108 74//25
f 74//25 76//108 167//112
f 77//107 167//112 76//108
f 75//29 78//111 79//39
f 75//29 80//113 162//106
f 80//113 163//114 162//106
f 74//25 167//112 78//111
f 163//114 80//113 81//37
f 79//39 25//34 80//113
f 75//29 79//39 80//113
f 167//112 169//115 78//111
f 79//39 78//111 169//115
f 167//112 249//116 169//115
f 81//37 80//113 23//33
f 25//34 23//33 80//113
f 79//39 169//115 82//38
f 82//38 169//115 84//117
f 83//40 84//117 86//42
f 83//40 82//38 84//117
f 84//117 87//118 86//42
f 84//117 171//119 87//118
f 173//120 87//118 171//119
f 85//121 81//37 28//44
f 88//48 175//122 85//121
f 88//48 85//121 28//44
f 174//123 86//42 87//118
f 176//124 175//122 88//48
f 34//49 86//42 174//123
f 89//52 176//124 88//48
f 179//125 89//52 91//126
f 92//127 89//52 35//50
f 174//123 90//54 34//49
f 179//125 91//126 186//128
f 89//52 92//127 91//126
f 90//54 174//123 93//129
f 93//129 95//130 90//54
f 93//129 174//123 178//131
f 98//132 94//133 92//127
f 92//127 38//58 98//132
f 94//133 98//132 97//134
f 91//126 92//127 94//133
f 94//133 97//134 186//128
f 91//126 94//133 186//128
f 35//50 38//58 92//127
f 37//53 95//130 99//135
f 37//53 90//54 95//130
f 95//130 93//129 96//136
f 99//135 96//136 100//137
f 99//135 95//130 96//136
f 189//138 96//136 93//129
f 96//136 189//138 100//137
f 98//132 38//58 97//134
f 99//135 101//139 37//53
f 189//138 194//140 100//137
f 42//63 37//53 101//139
f 104//65 42//63 101//139
f 99//135 102//141 101//139
f 99//135 100//137 102//141
f 100//137 106//142 102//141
f 105//69 102//141 106//142
f 100//137 194//140 106//142
f 97//134 38//58 103//143
f 186//128 97//134 103//143
f 186//128 103//143 192//144
f 101//139 102//141 104//65
f 102//141 105//69 104//65
f 105//69 106//142 112//145
f 103//143 38//58 201//146
f 112//145 111//72 47//68
f 47//68 105//69 112//145
f 200//147 202//148 199//149
f 200//147 108//150 213//151
f 107//152 38//58 110//57
f 107//152 110//57 108//150
f 107//152 199//149 38//58
f 200//147 199//149 107//152
f 108//150 200//147 107//152
f 201//146 38//58 199//149
f 213//151 108//150 113//153
f 110//57 109//70 116//154
f 111//72 119//155 114//71
f 119//155 111//72 112//145
f 119//155 112//145 120//156
f 112//145 122//157 120//156
f 106//142 122//157 112//145
f 106//142 194//140 122//157
f 118//158 113//153 116//154
f 108//150 116//154 113//153
f 213//151 113//153 217//159
f 115//160 116//154 109//70
f 114//71 115//160 109//70
f 114//71 117//161 115//160
f 115//160 117//161 118//158
f 118//158 117//161 219//162
f 116//154 108//150 110//57
f 118//158 116//154 115//160
f 121//163 219//162 117//161
f 121//163 117//161 119//155
f 119//155 117//161 114//71
f 121//163 119//155 120//156
f 122//157 123//164 120//156
f 123//164 121//163 120//156
f 121//163 123//164 219//162
f 216//165 219//162 123//164
f 122//157 216//165 123//164
f 113//153 118//158 218//166
f 217//159 113//153 218//166
f 124//81 125//167 133//79
f 138//168 125//167 127//169
f 124//81 126//170 125//167
f 126//170 127//169 125//167
f 226//171 126//170 124//81
f 126//170 229//172 127//169
f 229//172 233//173 127//169
f 226//171 229//172 126//170
f 141//174 128//76 140//87
f 131//73 128//76 132//175
f 132//175 128//76 129//176
f 141//174 130//177 128//76
f 129//176 128//76 130//177
f 132//175 129//176 231//178
f 130//177 231//178 129//176
f 131//73 132//175 124//81
f 125//167 135//82 134//80
f 133//79 125//167 134//80
f 127//169 139//179 138//168
f 139//179 127//169 233//173
f 138//168 135//82 125//167
f 135//82 138//168 137//180
f 137//180 136//84 135//82
f 137//180 138//168 139//179
f 147//181 139//179 233//173
f 147//181 233//173 235//182
f 137//180 144//94 136//84
f 144//94 137//180 147//181
f 139//179 147//181 137//180
f 141//174 140//87 142//183
f 142//183 140//87 149//89
f 143//184 141//174 142//183
f 130//177 141//174 143//184
f 143//184 142//183 324//185
f 146//186 145//95 144//94
f 146//186 150//93 145//95
f 144//94 147//181 146//186
f 148//187 149//89 152//98
f 142//183 149//89 148//187
f 324//185 142//183 148//187
f 148//187 153//188 324//185
f 150//93 154//189 68//100
f 146//186 151//190 150//93
f 147//181 237//191 146//186
f 237//191 151//190 146//186
f 151//190 154//189 150//93
f 153//188 152//98 155//101
f 148//187 152//98 153//188
f 153//188 155//101 340//192
f 154//189 69//102 68//100
f 154//189 239//193 69//102
f 65//97 159//194 155//101
f 157//104 69//102 240//195
f 160//110 73//105 156//103
f 156//103 158//196 160//110
f 158//196 156//103 157//104
f 157//104 242//197 158//196
f 241//198 157//104 240//195
f 159//194 71//22 162//106
f 243//199 159//194 161//200
f 159//194 65//97 71//22
f 245//109 77//107 73//105
f 158//196 245//109 160//110
f 161//200 162//106 164//201
f 159//194 162//106 161//200
f 161//200 164//201 244//202
f 165//203 167//112 77//107
f 77//107 245//109 165//203
f 163//114 164//201 162//106
f 81//37 164//201 163//114
f 166//204 244//202 164//201
f 167//112 165//203 247//205
f 166//204 164//201 81//37
f 249//116 167//112 247//205
f 166//204 250//206 248//207
f 250//206 166//204 168//208
f 250//206 168//208 170//209
f 250//206 170//209 251//210
f 166//204 81//37 168//208
f 169//115 249//116 348//211
f 252//212 169//115 348//211
f 168//208 81//37 170//209
f 170//209 81//37 85//121
f 170//209 85//121 172//213
f 251//210 170//209 172//213
f 84//117 169//115 171//119
f 252//212 253//214 169//115
f 171//119 253//214 255//215
f 255//215 173//120 171//119
f 169//115 253//214 171//119
f 513//216 255//215 253//214
f 172//213 85//121 175//122
f 172//213 175//122 177//217
f 172//213 177//217 254//218
f 87//118 173//120 174//123
f 177//217 175//122 176//124
f 177//217 89//52 179//125
f 260//219 179//125 261//220
f 177//217 176//124 89//52
f 183//221 181//222 178//131
f 182//223 181//222 183//221
f 183//221 287//224 182//223
f 182//223 185//225 181//222
f 287//224 275//226 182//223
f 185//225 275//226 274//227
f 275//226 185//225 182//223
f 183//221 178//131 286//228
f 186//128 187//229 180//230
f 179//125 186//128 180//230
f 187//229 262//231 180//230
f 187//229 293//232 262//231
f 181//222 93//129 178//131
f 185//225 184//233 181//222
f 274//227 292//234 185//225
f 292//234 184//233 185//225
f 292//234 290//235 184//233
f 190//236 187//229 186//128
f 187//229 190//236 295//237
f 290//235 298//238 188//239
f 181//222 189//138 93//129
f 184//233 194//140 189//138
f 184//233 189//138 181//222
f 290//235 188//239 184//233
f 194//140 184//233 195//240
f 188//239 298//238 195//240
f 188//239 195//240 184//233
f 192//144 190//236 186//128
f 191//241 295//237 190//236
f 195//240 298//238 198//242
f 103//143 196//243 192//144
f 197//244 193//245 808//246
f 190//236 808//246 191//241
f 193//245 191//241 808//246
f 122//157 195//240 198//242
f 195//240 122//157 194//140
f 196//243 103//143 201//146
f 204//247 196//243 201//146
f 808//246 809//248 197//244
f 197//244 809//248 204//247
f 193//245 197//244 299//249
f 197//244 300//250 299//249
f 202//148 200//147 203//251
f 213//151 211//252 200//147
f 200//147 211//252 203//251
f 202//148 203//251 205//253
f 204//247 202//148 205//253
f 204//247 201//146 202//148
f 206//254 209//255 204//247
f 206//254 204//247 205//253
f 206//254 205//253 207//256
f 207//256 205//253 203//251
f 212//257 207//256 203//251
f 211//252 212//257 203//251
f 209//255 206//254 208//258
f 207//256 208//258 206//254
f 208//258 207//256 212//257
f 209//255 208//258 210//259
f 210//259 208//258 212//257
f 214//260 210//259 212//257
f 201//146 199//149 202//148
f 197//244 204//247 209//255
f 209//255 300//250 197//244
f 209//255 303//261 300//250
f 303//261 209//255 210//259
f 210//259 214//260 310//262
f 122//157 198//242 216//165
f 223//263 212//257 211//252
f 214//260 212//257 223//263
f 211//252 217//159 223//263
f 213//151 217//159 211//252
f 198//242 215//264 216//165
f 312//265 311//266 224//267
f 216//165 222//268 219//162
f 218//166 118//158 219//162
f 217//159 218//166 220//269
f 220//269 218//166 221//270
f 219//162 810//271 218//166
f 219//162 222//268 810//271
f 217//159 220//269 223//263
f 220//269 221//270 223//263
f 222//268 224//267 811//272
f 224//267 214//260 223//263
f 221//270 224//267 223//263
f 216//165 225//273 222//268
f 224//267 225//273 215//264
f 215//264 225//273 216//165
f 222//268 225//273 224//267
f 224//267 311//266 214//260
f 215//264 312//265 224//267
f 132//175 227//274 124//81
f 227//274 226//171 124//81
f 227//274 228//275 226//171
f 228//275 229//172 226//171
f 229//172 228//275 232//276
f 143//184 316//277 230//278
f 130//177 143//184 230//278
f 317//279 230//278 316//277
f 230//278 231//178 130//177
f 317//279 231//178 230//278
f 227//274 132//175 231//178
f 317//279 227//274 231//178
f 317//279 318//280 227//274
f 318//280 228//275 227//274
f 232//276 233//173 229//172
f 228//275 234//281 232//276
f 233//173 232//276 234//281
f 234//281 228//275 318//280
f 235//182 233//173 234//281
f 236//282 235//182 322//283
f 143//184 324//185 320//284
f 147//181 235//182 236//282
f 236//282 237//191 147//181
f 328//285 331//286 237//191
f 238//287 151//190 237//191
f 812//288 154//189 151//190
f 238//287 237//191 331//286
f 331//286 332//289 813//290
f 340//192 335//291 153//188
f 324//185 153//188 335//291
f 337//292 335//291 340//192
f 239//193 154//189 812//288
f 338//293 813//290 332//289
f 812//288 341//294 239//193
f 814//295 341//294 812//288
f 240//195 239//193 341//294
f 243//199 155//101 159//194
f 340//192 155//101 243//199
f 69//102 239//193 240//195
f 341//294 342//296 240//195
f 241//198 240//195 342//296
f 242//197 157//104 241//198
f 245//109 158//196 242//197
f 346//297 345//298 242//197
f 243//199 161//200 244//202
f 165//203 245//109 246//299
f 246//299 245//109 345//298
f 245//109 242//197 345//298
f 244//202 166//204 248//207
f 244//202 248//207 508//300
f 247//205 165//203 349//301
f 165//203 351//302 349//301
f 351//302 165//203 246//299
f 351//302 246//299 345//298
f 347//303 508//300 248//207
f 349//301 249//116 247//205
f 249//116 349//301 348//211
f 354//304 252//212 348//211
f 251//210 172//213 254//218
f 253//214 252//212 354//304
f 513//216 253//214 354//304
f 256//305 173//120 255//215
f 255//215 513//216 256//305
f 513//216 356//306 256//305
f 177//217 258//307 254//218
f 173//120 256//305 174//123
f 256//305 257//308 174//123
f 257//308 256//305 356//306
f 257//308 178//131 174//123
f 257//308 259//309 178//131
f 359//310 259//309 257//308
f 258//307 260//219 261//220
f 177//217 179//125 260//219
f 258//307 177//217 260//219
f 259//309 286//228 178//131
f 179//125 180//230 261//220
f 262//231 261//220 180//230
f 262//231 357//311 261//220
f 261//220 357//311 258//307
f 357//311 262//231 360//312
f 360//312 262//231 370//313
f 264//314 298//238 291//315
f 266//316 264//314 378//317
f 378//317 264//314 263//318
f 264//314 265//319 263//318
f 263//318 265//319 268//320
f 265//319 264//314 291//315
f 271//321 263//318 268//320
f 263//318 271//321 379//322
f 291//315 292//234 267//323
f 276//324 267//323 292//234
f 265//319 267//323 268//320
f 291//315 267//323 265//319
f 268//320 269//325 272//326
f 268//320 267//323 269//325
f 267//323 276//324 269//325
f 270//327 269//325 276//324
f 276//324 277//328 270//327
f 272//326 271//321 268//320
f 273//329 272//326 269//325
f 269//325 270//327 273//329
f 282//330 273//329 270//327
f 387//331 271//321 272//326
f 273//329 387//331 272//326
f 388//332 273//329 282//330
f 388//332 282//330 400//333
f 274//227 276//324 292//234
f 274//227 278//334 276//324
f 278//334 274//227 275//226
f 279//335 275//226 287//224
f 289//336 279//335 287//224
f 278//334 277//328 276//324
f 280//337 277//328 278//334
f 280//337 278//334 275//226
f 280//337 275//226 279//335
f 270//327 277//328 281//338
f 281//338 277//328 280//337
f 281//338 280//337 284//339
f 279//335 284//339 280//337
f 284//339 279//335 285//340
f 283//341 282//330 281//338
f 282//330 270//327 281//338
f 279//335 289//336 285//340
f 283//341 281//338 284//339
f 282//330 283//341 400//333
f 400//333 283//341 284//339
f 285//340 289//336 406//342
f 400//333 284//339 403//343
f 284//339 285//340 403//343
f 403//343 285//340 406//342
f 286//228 287//224 183//221
f 288//344 287//224 286//228
f 259//309 288//344 286//228
f 287//224 288//344 289//336
f 370//313 262//231 293//232
f 370//313 296//345 371//346
f 290//235 292//234 291//315
f 290//235 291//315 298//238
f 295//237 293//232 187//229
f 293//232 296//345 370//313
f 299//249 296//345 293//232
f 296//345 372//347 371//346
f 298//238 264//314 294//348
f 294//348 297//349 298//238
f 297//349 294//348 302//350
f 372//347 302//350 294//348
f 294//348 264//314 266//316
f 191//241 293//232 295//237
f 299//249 302//350 296//345
f 372//347 296//345 302//350
f 293//232 191//241 299//249
f 193//245 299//249 191//241
f 301//351 297//349 302//350
f 297//349 198//242 298//238
f 299//249 300//250 304//352
f 302//350 299//249 306//353
f 297//349 301//351 198//242
f 300//250 303//261 304//352
f 310//262 303//261 210//259
f 310//262 304//352 303//261
f 304//352 310//262 305//354
f 304//352 305//354 306//353
f 306//353 305//354 307//355
f 299//249 304//352 306//353
f 301//351 215//264 198//242
f 302//350 306//353 307//355
f 302//350 307//355 301//351
f 434//356 309//357 308//358
f 214//260 311//266 310//262
f 310//262 311//266 305//354
f 307//355 215//264 301//351
f 312//265 215//264 307//355
f 305//354 311//266 312//265
f 305//354 312//265 307//355
f 313//359 308//358 314//360
f 443//361 313//359 314//360
f 308//358 315//362 314//360
f 316//277 470//363 317//279
f 320//284 470//363 316//277
f 470//363 468//364 317//279
f 317//279 468//364 318//280
f 468//364 576//365 318//280
f 471//366 472//367 319//368
f 318//280 471//366 319//368
f 319//368 235//182 234//281
f 234//281 318//280 319//368
f 321//369 235//182 319//368
f 320//284 324//185 325//370
f 470//363 320//284 325//370
f 316//277 143//184 320//284
f 319//368 473//371 321//369
f 472//367 473//371 319//368
f 321//369 322//283 235//182
f 322//283 477//372 236//282
f 321//369 473//371 322//283
f 473//371 477//372 322//283
f 477//372 323//373 236//282
f 326//374 236//282 323//373
f 330//375 326//374 323//373
f 477//372 478//376 323//373
f 478//376 330//375 323//373
f 324//185 336//377 325//370
f 236//282 327//378 237//191
f 327//378 328//285 237//191
f 333//379 331//286 328//285
f 329//380 327//378 236//282
f 328//285 327//378 329//380
f 329//380 236//282 326//374
f 329//380 333//379 328//285
f 330//375 329//380 326//374
f 486//381 333//379 329//380
f 486//381 487//382 333//379
f 333//379 332//289 331//286
f 333//379 487//382 332//289
f 332//289 493//383 334//384
f 334//384 494//385 814//295
f 334//384 493//383 494//385
f 494//385 339//386 814//295
f 324//185 335//291 336//377
f 335//291 337//292 336//377
f 499//387 336//377 337//292
f 341//294 500//388 342//296
f 814//295 332//289 334//384
f 339//386 341//294 814//295
f 341//294 339//386 501//389
f 501//389 500//388 341//294
f 507//390 337//292 340//192
f 500//388 502//391 342//296
f 507//390 340//192 243//199
f 343//392 241//198 342//296
f 502//391 343//392 342//296
f 506//393 343//392 502//391
f 344//394 242//197 343//392
f 242//197 241//198 343//392
f 343//392 506//393 344//394
f 344//394 346//297 242//197
f 508//300 507//390 243//199
f 244//202 508//300 243//199
f 508//300 347//303 509//395
f 345//298 510//396 351//302
f 345//298 346//297 510//396
f 347//303 248//207 250//206
f 250//206 352//397 347//303
f 352//397 509//395 347//303
f 349//301 350//398 348//211
f 354//304 348//211 350//398
f 350//398 349//301 351//302
f 350//398 351//302 510//396
f 250//206 251//210 352//397
f 353//399 251//210 254//218
f 353//399 352//397 251//210
f 511//400 509//395 352//397
f 511//400 352//397 353//399
f 355//401 353//399 254//218
f 512//402 513//216 354//304
f 258//307 355//401 254//218
f 355//401 258//307 514//403
f 604//404 516//405 356//306
f 357//311 514//403 258//307
f 517//406 514//403 357//311
f 359//310 257//308 356//306
f 359//310 356//306 516//405
f 357//311 364//407 358//408
f 357//311 360//312 364//407
f 360//312 370//313 361//409
f 360//312 361//409 364//407
f 361//409 362//410 364//407
f 362//410 363//411 366//412
f 362//410 361//409 363//411
f 364//407 362//410 366//412
f 363//411 365//413 366//412
f 364//407 366//412 358//408
f 366//412 365//413 367//414
f 367//414 365//413 368//415
f 521//416 366//412 367//414
f 367//414 523//417 521//416
f 374//418 365//413 363//411
f 365//413 374//418 381//419
f 368//415 365//413 381//419
f 369//420 368//415 381//419
f 368//415 523//417 367//414
f 523//417 368//415 369//420
f 527//421 523//417 369//420
f 531//422 527//421 369//420
f 376//423 531//422 369//420
f 535//424 259//309 359//310
f 370//313 371//346 361//409
f 294//348 373//425 372//347
f 361//409 372//347 363//411
f 361//409 371//346 372//347
f 363//411 372//347 373//425
f 373//425 378//317 374//418
f 378//317 373//425 266//316
f 373//425 294//348 266//316
f 373//425 374//418 363//411
f 369//420 381//419 384//426
f 385//427 377//428 384//426
f 377//428 385//427 375//429
f 377//428 375//429 415//430
f 384//426 376//423 369//420
f 384//426 533//431 376//423
f 533//431 384//426 377//428
f 379//322 378//317 263//318
f 374//418 378//317 379//322
f 380//432 379//322 396//433
f 381//419 374//418 379//322
f 381//419 379//322 382//434
f 383//435 382//434 380//432
f 382//434 379//322 380//432
f 396//433 383//435 380//432
f 383//435 396//433 397//436
f 381//419 382//434 384//426
f 384//426 382//434 386//437
f 383//435 386//437 382//434
f 386//437 398//438 375//429
f 386//437 383//435 398//438
f 383//435 397//436 398//438
f 415//430 375//429 398//438
f 386//437 385//427 384//426
f 385//427 386//437 375//429
f 379//322 271//321 391//439
f 391//439 271//321 387//331
f 392//440 387//331 273//329
f 388//332 392//440 273//329
f 400//333 389//441 388//332
f 400//333 404//442 389//441
f 396//433 379//322 391//439
f 391//439 387//331 392//440
f 388//332 393//443 392//440
f 388//332 389//441 393//443
f 389//441 404//442 390//444
f 397//436 396//433 392//440
f 396//433 391//439 392//440
f 397//436 392//440 393//443
f 394//445 397//436 393//443
f 393//443 389//441 394//445
f 390//444 394//445 389//441
f 390//444 395//446 394//445
f 395//446 390//444 402//447
f 397//436 399//448 398//438
f 397//436 394//445 399//448
f 399//448 395//446 398//438
f 394//445 395//446 399//448
f 398//438 395//446 415//430
f 403//343 404//442 400//333
f 289//336 288//344 401//449
f 289//336 401//449 406//342
f 288//344 259//309 534//450
f 288//344 534//450 401//449
f 401//449 534//450 411//451
f 259//309 535//424 534//450
f 414//452 377//428 415//430
f 390//444 404//442 402//447
f 404//442 405//453 402//447
f 415//430 395//446 402//447
f 405//453 408//454 402//447
f 402//447 408//454 412//455
f 404//442 403//343 405//453
f 403//343 406//342 407//456
f 406//342 411//451 409//457
f 406//342 401//449 411//451
f 407//456 405//453 403//343
f 407//456 409//457 410//458
f 407//456 406//342 409//457
f 410//458 408//454 407//456
f 407//456 408//454 405//453
f 410//458 409//457 411//451
f 411//451 534//450 535//424
f 415//430 402//447 421//459
f 421//459 402//447 412//455
f 412//455 417//460 416//461
f 412//455 408//454 410//458
f 412//455 410//458 413//462
f 417//460 412//455 413//462
f 411//451 538//463 413//462
f 413//462 410//458 411//451
f 419//464 537//465 414//452
f 418//466 415//430 422//467
f 419//464 414//452 415//430
f 419//464 415//430 418//466
f 421//459 422//467 415//430
f 417//460 423//468 416//461
f 413//462 538//463 425//469
f 426//470 537//465 419//464
f 419//464 418//466 427//471
f 420//472 418//466 422//467
f 418//466 420//472 427//471
f 421//459 412//455 416//461
f 422//467 421//459 420//472
f 423//468 421//459 416//461
f 430//473 420//472 421//459
f 423//468 430//473 421//459
f 423//468 417//460 424//474
f 430//473 423//468 424//474
f 417//460 413//462 425//469
f 425//469 424//474 417//460
f 434//356 419//464 427//471
f 434//356 426//470 419//464
f 420//472 430//473 427//471
f 427//471 430//473 428//475
f 424//474 428//475 430//473
f 427//471 428//475 309//357
f 428//475 424//474 429//476
f 424//474 538//463 429//476
f 538//463 431//477 429//476
f 539//478 426//470 432//479
f 427//471 309//357 434//356
f 541//480 431//477 538//463
f 426//470 433//481 432//479
f 433//481 434//356 308//358
f 433//481 308//358 313//359
f 426//470 434//356 433//481
f 308//358 309//357 315//362
f 309//357 435//482 315//362
f 435//482 309//357 428//475
f 435//482 428//475 429//476
f 435//482 429//476 436//483
f 429//476 431//477 436//483
f 437//484 436//483 431//477
f 436//483 437//484 466//485
f 543//486 437//484 431//477
f 439//487 432//479 433//481
f 313//359 439//487 433//481
f 440//488 439//487 313//359
f 438//489 440//488 313//359
f 313//359 443//361 438//489
f 444//490 440//488 438//489
f 455//491 445//492 438//489
f 438//489 443//361 455//491
f 439//487 442//493 432//479
f 441//494 442//493 440//488
f 444//490 441//494 440//488
f 438//489 445//492 444//490
f 439//487 440//488 442//493
f 444//490 447//495 441//494
f 447//495 450//496 441//494
f 441//494 450//496 546//497
f 442//493 441//494 546//497
f 443//361 314//360 456//498
f 443//361 456//498 455//491
f 315//362 456//498 314//360
f 315//362 457//499 456//498
f 315//362 435//482 457//499
f 457//499 435//482 436//483
f 458//500 445//492 455//491
f 446//501 447//495 444//490
f 445//492 446//501 444//490
f 445//492 458//500 446//501
f 460//502 446//501 458//500
f 446//501 460//502 449//503
f 448//504 446//501 449//503
f 448//504 447//495 446//501
f 450//496 447//495 448//504
f 451//505 449//503 452//506
f 451//505 448//504 449//503
f 463//507 452//506 449//503
f 452//506 463//507 465//508
f 551//509 450//496 453//510
f 450//496 448//504 453//510
f 453//510 448//504 451//505
f 450//496 551//509 546//497
f 552//511 453//510 451//505
f 552//511 451//505 452//506
f 552//511 452//506 454//512
f 454//512 452//506 465//508
f 552//511 454//512 553//513
f 553//513 454//512 557//514
f 454//512 465//508 557//514
f 455//491 456//498 458//500
f 456//498 459//515 458//500
f 456//498 457//499 459//515
f 460//502 458//500 459//515
f 460//502 459//515 463//507
f 449//503 460//502 463//507
f 459//515 457//499 461//516
f 463//507 459//515 461//516
f 461//516 436//483 462//517
f 461//516 457//499 436//483
f 436//483 466//485 462//517
f 464//518 461//516 462//517
f 466//485 464//518 462//517
f 461//516 464//518 463//507
f 463//507 464//518 465//508
f 464//518 467//519 465//508
f 467//519 464//518 466//485
f 467//519 466//485 558//520
f 465//508 467//519 557//514
f 558//520 557//514 467//519
f 468//364 470//363 469//521
f 468//364 469//521 576//365
f 469//521 571//522 576//365
f 318//280 576//365 471//366
f 470//363 325//370 575//523
f 470//363 575//523 574//524
f 470//363 574//524 469//521
f 471//366 476//525 472//367
f 579//526 476//525 471//366
f 473//371 475//527 474//528
f 475//527 482//529 474//528
f 473//371 472//367 476//525
f 476//525 475//527 473//371
f 474//528 477//372 473//371
f 477//372 481//530 478//376
f 479//531 478//376 481//530
f 474//528 480//532 477//372
f 480//532 481//530 477//372
f 563//533 479//531 481//530
f 482//529 480//532 474//528
f 482//529 481//530 480//532
f 815//534 581//535 482//529
f 482//529 581//535 563//533
f 481//530 482//529 563//533
f 484//536 330//375 478//376
f 484//536 478//376 479//531
f 484//536 483//537 330//375
f 330//375 483//537 486//381
f 483//537 489//538 486//381
f 484//536 485//539 483//537
f 484//536 565//540 568//541
f 568//541 485//539 484//536
f 483//537 485//539 489//538
f 485//539 491//542 489//538
f 485//539 583//543 491//542
f 587//544 575//523 325//370
f 330//375 486//381 329//380
f 487//382 486//381 488//545
f 486//381 489//538 488//545
f 487//382 493//383 332//289
f 490//546 495//547 493//383
f 493//383 487//382 490//546
f 489//538 490//546 488//545
f 490//546 487//382 488//545
f 489//538 491//542 490//546
f 491//542 492//548 490//546
f 496//549 490//546 492//548
f 493//383 591//550 494//385
f 591//550 493//383 495//547
f 497//551 494//385 591//550
f 495//547 490//546 496//549
f 496//549 591//550 495//547
f 494//385 498//552 339//386
f 498//552 494//385 497//551
f 590//553 503//554 498//552
f 590//553 595//555 503//554
f 499//387 325//370 336//377
f 507//390 499//387 337//292
f 505//556 499//387 507//390
f 339//386 498//552 501//389
f 501//389 498//552 503//554
f 500//388 501//389 503//554
f 503//554 502//391 500//388
f 595//555 596//557 503//554
f 504//558 502//391 503//554
f 504//558 503//554 596//557
f 505//556 507//390 600//559
f 506//393 662//560 344//394
f 508//300 600//559 507//390
f 601//561 508//300 509//395
f 510//396 346//297 603//562
f 601//561 509//395 511//400
f 355//401 511//400 353//399
f 665//563 601//561 511//400
f 512//402 354//304 350//398
f 510//396 512//402 350//398
f 603//562 512//402 510//396
f 605//564 511//400 355//401
f 604//404 513//216 512//402
f 605//564 355//401 514//403
f 605//564 514//403 607//565
f 604//404 356//306 513//216
f 607//565 514//403 515//566
f 515//566 610//567 607//565
f 515//566 514//403 517//406
f 520//568 515//566 517//406
f 515//566 520//568 610//567
f 359//310 516//405 608//569
f 608//569 516//405 604//404
f 517//406 357//311 358//408
f 358//408 518//570 517//406
f 522//571 518//570 358//408
f 518//570 522//571 525//572
f 517//406 518//570 519//573
f 519//573 518//570 525//572
f 519//573 525//572 528//574
f 517//406 519//573 520//568
f 519//573 610//567 520//568
f 366//412 522//571 358//408
f 522//571 521//416 524//575
f 366//412 521//416 522//571
f 523//417 524//575 521//416
f 525//572 522//571 524//575
f 523//417 526//576 524//575
f 523//417 527//421 526//576
f 525//572 524//575 526//576
f 529//577 526//576 527//421
f 529//577 527//421 530//578
f 528//574 525//572 526//576
f 528//574 526//576 529//577
f 609//579 528//574 529//577
f 609//579 529//577 530//578
f 527//421 531//422 530//578
f 359//310 608//569 535//424
f 377//428 414//452 532//580
f 376//423 533//431 531//422
f 532//580 533//431 377//428
f 533//431 530//578 531//422
f 530//578 533//431 532//580
f 414//452 537//465 532//580
f 530//578 532//580 536//581
f 411//451 535//424 538//463
f 535//424 611//582 613//583
f 535//424 613//583 538//463
f 536//581 532//580 537//465
f 424//474 425//469 538//463
f 539//478 537//465 426//470
f 537//465 539//478 540//584
f 537//465 540//584 617//585
f 614//586 541//480 538//463
f 538//463 613//583 614//586
f 542//587 539//478 432//479
f 539//478 542//587 540//584
f 617//585 540//584 616//588
f 541//480 543//486 431//477
f 543//486 541//480 620//589
f 543//486 620//589 544//590
f 541//480 614//586 620//589
f 616//588 540//584 542//587
f 623//591 616//588 542//587
f 558//520 466//485 437//484
f 544//590 558//520 437//484
f 544//590 437//484 543//486
f 549//592 547//593 545//594
f 548//595 545//594 546//497
f 549//592 545//594 548//595
f 548//595 546//497 550//596
f 550//596 546//497 551//509
f 623//591 542//587 547//593
f 623//591 547//593 549//592
f 624//597 549//592 548//595
f 624//597 548//595 550//596
f 623//591 549//592 625//598
f 625//598 549//592 624//597
f 633//599 624//597 550//596
f 442//493 545//594 432//479
f 546//497 545//594 442//493
f 547//593 432//479 545//594
f 542//587 432//479 547//593
f 544//590 622//600 560//601
f 560//601 558//520 544//590
f 550//596 555//602 633//599
f 551//509 453//510 552//511
f 556//603 552//511 553//513
f 556//603 553//513 554//604
f 554//604 553//513 559//605
f 553//513 557//514 559//605
f 551//509 552//511 555//602
f 554//604 559//605 562//606
f 550//596 551//509 555//602
f 552//511 556//603 555//602
f 554//604 562//606 636//607
f 636//607 556//603 554//604
f 634//608 556//603 636//607
f 561//609 557//514 558//520
f 559//605 557//514 561//609
f 560//601 561//609 558//520
f 561//609 562//606 559//605
f 561//609 560//601 639//610
f 561//609 639//610 562//606
f 579//526 683//611 582//612
f 479//531 563//533 484//536
f 563//533 565//540 484//536
f 565//540 563//533 564//613
f 567//614 565//540 564//613
f 689//615 567//614 564//613
f 567//614 693//616 566//617
f 566//617 565//540 567//614
f 566//617 569//618 565//540
f 569//618 568//541 565//540
f 570//619 568//541 569//618
f 574//524 572//620 469//521
f 469//521 572//620 571//522
f 572//620 573//621 571//522
f 573//621 578//622 571//522
f 571//522 578//622 576//365
f 574//524 573//621 572//620
f 574//524 575//523 644//623
f 645//624 644//623 575//523
f 575//523 587//544 645//624
f 576//365 577//625 579//526
f 578//622 577//625 576//365
f 647//626 577//625 578//622
f 576//365 579//526 471//366
f 580//627 476//525 579//526
f 582//612 580//627 579//526
f 816//628 476//525 580//627
f 581//535 649//629 564//613
f 581//535 815//534 649//629
f 580//627 582//612 816//628
f 582//612 649//629 816//628
f 564//613 563//533 581//535
f 583//543 589//630 491//542
f 568//541 583//543 485//539
f 583//543 584//631 589//630
f 568//541 570//619 583//543
f 570//619 584//631 583//543
f 570//619 586//632 584//631
f 640//633 586//632 570//619
f 584//631 586//632 585//634
f 585//634 586//632 593//635
f 586//632 651//636 593//635
f 588//637 645//624 587//544
f 491//542 589//630 492//548
f 589//630 496//549 492//548
f 589//630 591//550 496//549
f 584//631 591//550 589//630
f 593//635 590//553 498//552
f 592//638 591//550 584//631
f 592//638 497//551 591//550
f 497//551 592//638 498//552
f 594//639 590//553 593//635
f 585//634 592//638 584//631
f 593//635 592//638 585//634
f 498//552 592//638 593//635
f 590//553 594//639 595//555
f 499//387 587//544 325//370
f 499//387 588//637 587//544
f 505//556 588//637 499//387
f 588//637 505//556 600//559
f 599//640 504//558 596//557
f 597//641 596//557 595//555
f 594//639 598//642 595//555
f 598//642 597//641 595//555
f 596//557 597//641 599//640
f 600//559 707//643 588//637
f 599//640 502//391 504//558
f 661//644 707//643 600//559
f 506//393 502//391 599//640
f 658//645 506//393 599//640
f 658//645 662//560 506//393
f 600//559 508//300 710//646
f 601//561 710//646 508//300
f 344//394 662//560 602//647
f 344//394 602//647 346//297
f 663//648 602//647 662//560
f 603//562 346//297 602//647
f 665//563 511//400 605//564
f 604//404 512//402 603//562
f 603//562 713//649 604//404
f 608//569 604//404 666//650
f 605//564 607//565 606//651
f 606//651 607//565 610//567
f 606//651 610//567 669//652
f 519//573 528//574 610//567
f 608//569 611//582 535//424
f 671//653 611//582 608//569
f 609//579 610//567 528//574
f 610//567 609//579 672//654
f 674//655 611//582 671//653
f 609//579 530//578 612//656
f 672//654 609//579 678//657
f 676//658 677//659 611//582
f 678//657 609//579 612//656
f 612//656 530//578 536//581
f 537//465 612//656 536//581
f 537//465 617//585 612//656
f 613//583 611//582 677//659
f 612//656 617//585 678//657
f 677//659 679//660 613//583
f 619//661 678//657 617//585
f 614//586 613//583 615//662
f 615//662 613//583 679//660
f 622//600 615//662 681//663
f 615//662 679//660 681//663
f 618//664 617//585 616//588
f 616//588 623//591 618//664
f 618//664 619//661 617//585
f 632//665 621//666 680//667
f 622//600 620//589 615//662
f 622//600 544//590 620//589
f 622//600 681//663 639//610
f 682//668 639//610 681//663
f 615//662 620//589 614//586
f 623//591 628//669 618//664
f 628//669 619//661 618//664
f 628//669 631//670 632//665
f 632//665 682//668 621//666
f 732//671 621//666 682//668
f 626//672 625//598 624//597
f 633//599 626//672 624//597
f 626//672 633//599 629//673
f 628//669 623//591 625//598
f 627//674 628//669 625//598
f 626//672 627//674 625//598
f 627//674 626//672 629//673
f 629//673 633//599 635//675
f 628//669 627//674 631//670
f 627//674 629//673 631//670
f 629//673 630//676 631//670
f 630//676 629//673 635//675
f 635//675 638//677 630//676
f 630//676 638//677 637//678
f 631//670 630//676 632//665
f 630//676 637//678 632//665
f 560//601 622//600 639//610
f 639//610 637//678 636//607
f 682//668 632//665 637//678
f 639//610 682//668 637//678
f 634//608 633//599 555//602
f 556//603 634//608 555//602
f 633//599 634//608 635//675
f 638//677 635//675 634//608
f 638//677 634//608 636//607
f 637//678 638//677 636//607
f 639//610 636//607 562//606
f 683//611 684//679 649//629
f 649//629 689//615 564//613
f 567//614 688//680 693//616
f 688//680 567//614 689//615
f 693//616 691//681 566//617
f 691//681 569//618 566//617
f 691//681 641//682 569//618
f 694//683 691//681 693//616
f 691//681 697//684 641//682
f 641//682 570//619 569//618
f 640//633 651//636 586//632
f 640//633 570//619 641//682
f 642//685 651//636 640//633
f 641//682 642//685 640//633
f 642//685 641//682 697//684
f 698//686 642//685 697//684
f 574//524 644//623 643//687
f 573//621 574//524 643//687
f 643//687 646//688 573//621
f 573//621 646//688 578//622
f 646//688 647//626 578//622
f 644//623 648//689 643//687
f 646//688 643//687 647//626
f 644//623 782//690 704//691
f 645//624 782//690 644//623
f 704//691 648//689 644//623
f 683//611 579//526 577//625
f 577//625 647//626 683//611
f 648//689 647//626 643//687
f 648//689 703//692 647//626
f 648//689 704//691 703//692
f 683//611 649//629 582//612
f 650//693 651//636 642//685
f 650//693 642//685 698//686
f 698//686 701//694 650//693
f 650//693 701//694 652//695
f 705//696 652//695 701//694
f 653//697 593//635 651//636
f 650//693 652//695 651//636
f 651//636 652//695 653//697
f 705//696 655//698 652//695
f 707//643 645//624 588//637
f 654//699 598//642 594//639
f 653//697 594//639 593//635
f 594//639 653//697 654//699
f 654//699 656//700 598//642
f 653//697 655//698 654//699
f 654//699 655//698 656//700
f 652//695 655//698 653//697
f 656//700 597//641 598//642
f 753//701 656//700 706//702
f 657//703 599//640 597//641
f 657//703 660//704 599//640
f 656//700 657//703 597//641
f 708//705 660//704 657//703
f 708//705 657//703 656//700
f 660//704 658//645 599//640
f 660//704 659//706 658//645
f 708//705 659//706 660//704
f 661//644 600//559 710//646
f 659//706 663//648 658//645
f 658//645 663//648 662//560
f 664//707 710//646 601//561
f 713//649 602//647 663//648
f 712//708 664//707 665//563
f 665//563 664//707 601//561
f 602//647 713//649 603//562
f 666//650 604//404 713//649
f 714//709 666//650 713//649
f 714//709 668//710 666//650
f 668//710 608//569 666//650
f 606//651 665//563 605//564
f 667//711 665//563 606//651
f 665//563 667//711 712//708
f 719//712 668//710 716//713
f 667//711 669//652 670//714
f 668//710 671//653 608//569
f 719//712 671//653 668//710
f 667//711 606//651 669//652
f 671//653 719//712 725//715
f 672//654 669//652 610//567
f 670//714 669//652 672//654
f 675//716 670//714 672//654
f 673//717 674//655 671//653
f 680//667 675//716 672//654
f 674//655 676//658 611//582
f 674//655 673//717 676//658
f 680//667 672//654 678//657
f 680//667 730//718 675//716
f 731//719 730//718 680//667
f 676//658 679//660 677//659
f 673//717 679//660 676//658
f 679//660 673//717 733//720
f 619//661 680//667 678//657
f 680//667 619//661 628//669
f 731//719 680//667 621//666
f 731//719 621//666 732//671
f 632//665 680//667 628//669
f 681//663 679//660 733//720
f 733//720 682//668 681//663
f 703//692 685//721 683//611
f 735//722 685//721 703//692
f 683//611 685//721 684//679
f 684//679 686//723 649//629
f 686//723 684//679 741//724
f 685//721 736//725 684//679
f 684//679 736//725 741//724
f 687//726 649//629 686//723
f 687//726 686//723 741//724
f 687//726 688//680 689//615
f 690//727 693//616 688//680
f 689//615 649//629 687//726
f 690//727 688//680 687//726
f 690//727 695//728 693//616
f 690//727 687//726 741//724
f 737//729 690//727 741//724
f 690//727 737//729 695//728
f 737//729 742//730 695//728
f 691//681 694//683 692//731
f 692//731 697//684 691//681
f 694//683 699//732 692//731
f 692//731 699//732 697//684
f 695//728 696//733 694//683
f 695//728 694//683 693//616
f 742//730 696//733 695//728
f 696//733 745//734 702//735
f 743//736 696//733 742//730
f 745//734 696//733 743//736
f 699//732 700//737 697//684
f 700//737 698//686 697//684
f 700//737 701//694 698//686
f 694//683 700//737 699//732
f 696//733 700//737 694//683
f 696//733 702//735 700//737
f 702//735 701//694 700//737
f 683//611 647//626 703//692
f 701//694 702//735 705//696
f 702//735 749//738 705//696
f 707//643 782//690 645//624
f 706//702 655//698 705//696
f 751//739 706//702 705//696
f 706//702 656//700 655//698
f 751//739 753//701 706//702
f 707//643 661//644 752//740
f 708//705 656//700 753//701
f 756//741 659//706 708//705
f 710//646 711//742 758//743
f 758//743 711//742 760//744
f 659//706 709//745 663//648
f 663//648 709//745 713//649
f 762//746 713//649 709//745
f 712//708 710//646 664//707
f 711//742 710//646 712//708
f 763//747 711//742 712//708
f 762//746 714//709 713//649
f 764//748 711//742 763//747
f 762//746 768//749 714//709
f 768//749 715//750 714//709
f 716//713 715//750 771//751
f 715//750 768//749 771//751
f 668//710 714//709 715//750
f 763//747 712//708 717//752
f 763//747 717//752 718//753
f 716//713 770//754 719//712
f 715//750 716//713 668//710
f 770//754 716//713 771//751
f 717//752 721//755 718//753
f 720//756 770//754 773//757
f 720//756 719//712 770//754
f 667//711 717//752 712//708
f 721//755 717//752 667//711
f 773//757 728//758 723//759
f 723//759 720//756 773//757
f 720//756 723//759 719//712
f 667//711 670//714 726//760
f 726//760 721//755 667//711
f 721//755 722//761 718//753
f 719//712 723//759 725//715
f 726//760 670//714 675//716
f 721//755 726//760 722//761
f 776//762 722//761 729//763
f 776//762 729//763 728//758
f 725//715 723//759 724//764
f 723//759 728//758 724//764
f 671//653 725//715 673//717
f 729//763 722//761 726//760
f 728//758 732//671 727//765
f 727//765 724//764 728//758
f 725//715 724//764 673//717
f 724//764 727//765 673//717
f 675//716 730//718 726//760
f 730//718 731//719 726//760
f 729//763 732//671 728//758
f 727//765 733//720 673//717
f 732//671 733//720 727//765
f 726//760 731//719 729//763
f 729//763 731//719 732//671
f 732//671 682//668 733//720
f 817//766 703//692 734//767
f 704//691 734//767 703//692
f 734//767 740//768 738//769
f 734//767 747//770 740//768
f 740//768 747//770 779//771
f 736//725 685//721 735//722
f 818//772 737//729 741//724
f 734//767 818//772 817//766
f 818//772 738//769 737//729
f 818//772 734//767 738//769
f 740//768 739//773 738//769
f 739//773 737//729 738//769
f 739//773 777//774 737//729
f 777//774 739//773 740//768
f 744//775 737//729 777//774
f 744//775 781//776 748//777
f 744//775 777//774 781//776
f 737//729 744//775 742//730
f 743//736 742//730 744//775
f 744//775 748//777 743//736
f 748//777 745//734 743//736
f 746//778 704//691 782//690
f 704//691 746//778 734//767
f 746//778 747//770 734//767
f 782//690 747//770 746//778
f 748//777 749//738 745//734
f 745//734 749//738 702//735
f 750//779 749//738 787//780
f 793//781 750//779 790//782
f 705//696 749//738 750//779
f 750//779 751//739 705//696
f 782//690 707//643 752//740
f 793//781 751//739 750//779
f 799//783 754//784 793//781
f 752//740 661//644 757//785
f 752//740 757//785 759//786
f 799//783 755//787 754//784
f 708//705 753//701 756//741
f 754//784 753//701 751//739
f 753//701 754//784 756//741
f 755//787 756//741 754//784
f 758//743 757//785 661//644
f 758//743 759//786 757//785
f 756//741 709//745 659//706
f 755//787 709//745 756//741
f 710//646 758//743 661//644
f 760//744 759//786 758//743
f 755//787 762//746 709//745
f 762//746 755//787 761//788
f 760//744 764//748 803//789
f 768//749 761//788 767//790
f 764//748 760//744 711//742
f 764//748 765//791 803//789
f 803//789 765//791 805//792
f 805//792 765//791 766//793
f 804//794 766//793 767//790
f 805//792 766//793 804//794
f 761//788 768//749 762//746
f 764//748 763//747 769//795
f 764//748 769//795 765//791
f 768//749 767//790 771//751
f 770//754 771//751 766//793
f 766//793 771//751 767//790
f 769//795 763//747 772//796
f 763//747 718//753 772//796
f 769//795 773//757 766//793
f 765//791 769//795 766//793
f 766//793 773//757 770//754
f 772//796 718//753 774//797
f 772//796 774//797 769//795
f 769//795 774//797 775//798
f 769//795 775//798 773//757
f 718//753 776//762 774//797
f 774//797 776//762 775//798
f 728//758 773//757 775//798
f 718//753 722//761 776//762
f 776//762 728//758 775//798
f 779//771 777//774 740//768
f 747//770 778//799 779//771
f 782//690 778//799 747//770
f 784//800 778//799 783//801
f 778//799 782//690 783//801
f 778//799 784//800 780//802
f 779//771 778//799 780//802
f 777//774 779//771 780//802
f 777//774 780//802 781//776
f 780//802 785//803 781//776
f 781//776 789//804 786//805
f 748//777 781//776 786//805
f 789//804 781//776 785//803
f 784//800 785//803 780//802
f 748//777 786//805 787//780
f 749//738 748//777 787//780
f 750//779 787//780 790//782
f 782//690 752//740 783//801
f 783//801 752//740 788//806
f 788//806 784//800 783//801
f 790//782 787//780 786//805
f 786//805 792//807 790//782
f 792//807 786//805 789//804
f 790//782 794//808 793//781
f 790//782 792//807 794//808
f 752//740 759//786 788//806
f 788//806 759//786 795//809
f 795//809 784//800 788//806
f 784//800 796//810 785//803
f 785//803 796//810 791//811
f 785//803 791//811 789//804
f 792//807 798//812 794//808
f 792//807 789//804 798//812
f 751//739 793//781 754//784
f 799//783 793//781 794//808
f 784//800 795//809 796//810
f 796//810 801//813 797//814
f 801//813 796//810 795//809
f 791//811 796//810 797//814
f 791//811 797//814 789//804
f 789//804 797//814 798//812
f 800//815 794//808 798//812
f 798//812 802//816 800//815
f 755//787 799//783 800//815
f 802//816 755//787 800//815
f 800//815 799//783 794//808
f 795//809 759//786 760//744
f 801//813 803//789 806//817
f 798//812 807//818 802//816
f 798//812 797//814 807//818
f 801//813 806//817 797//814
f 806//817 807//818 797//814
f 760//744 803//789 795//809
f 795//809 803//789 801//813
f 807//818 761//788 802//816
f 802//816 761//788 755//787
f 803//789 805//792 806//817
f 806//817 805//792 804//794
f 806//817 804//794 807//818
f 767//790 807//818 804//794
f 767//790 761//788 807//818
