# Blender 4.0.2
# www.blender.org
mtllib skull_right_inferior_nasal_concha.mtl
o skull_right_inferior_nasal_concha
v 0.071881 0.008621 0.015698
v 0.072462 0.009771 0.016377
v 0.072034 0.009161 0.016346
v 0.072136 0.009741 0.016532
v 0.071886 0.010111 0.016472
v 0.072531 0.010391 0.016321
v 0.072504 0.009301 0.015889
v 0.072309 0.010771 0.016218
v 0.069147 0.006431 0.015690
v 0.069273 0.006731 0.015835
v 0.069483 0.006341 0.015438
v 0.069046 0.006271 0.015390
v 0.069931 0.006891 0.015146
v 0.069475 0.006681 0.014930
v 0.069122 0.006391 0.015040
v 0.070832 0.008541 0.016364
v 0.070975 0.007961 0.015986
v 0.070280 0.007681 0.015977
v 0.069894 0.006901 0.015743
v 0.069042 0.007661 0.015822
v 0.070564 0.007561 0.015782
v 0.069820 0.008041 0.015933
v 0.069808 0.008521 0.015818
v 0.070410 0.007301 0.015415
v 0.070635 0.009661 0.015987
v 0.068104 0.006901 0.015617
v 0.067139 0.006831 0.015167
v 0.058607 -0.000129 0.014609
v 0.056137 -0.000069 0.015046
v 0.054058 -0.001309 0.015100
v 0.053636 -0.001069 0.015293
v 0.053237 -0.001309 0.015138
v 0.052997 -0.000999 0.015293
v 0.053145 -0.000699 0.015327
v 0.053890 -0.001499 0.014581
v 0.053161 -0.001429 0.014667
v 0.053753 -0.001329 0.013495
v 0.053125 -0.001259 0.013587
v 0.053542 0.001931 0.014755
v 0.052740 -0.000669 0.015312
v 0.052659 -0.000929 0.015190
v 0.052364 -0.000809 0.014966
v 0.052425 -0.000559 0.015168
v 0.052604 -0.001119 0.014805
v 0.051843 -0.000289 0.014491
v 0.052575 -0.001119 0.013948
v 0.052045 -0.000759 0.014050
v 0.052313 -0.000889 0.013658
v 0.051799 -0.000009 0.013896
v 0.052861 -0.000329 0.015269
v 0.052472 -0.000229 0.015169
v 0.052721 0.000721 0.014913
v 0.052076 -0.000009 0.014801
v 0.051824 0.000191 0.014272
v 0.087500 0.004861 0.011913
v 0.087845 0.004891 0.011638
v 0.087485 0.004701 0.011581
v 0.087598 0.005191 0.012180
v 0.087705 0.007011 0.012793
v 0.087995 0.005231 0.011732
v 0.086379 0.005061 0.012091
v 0.086882 0.004641 0.011586
v 0.086986 0.006641 0.013368
v 0.087277 0.005171 0.012282
v 0.086837 0.007971 0.013803
v 0.087274 0.008731 0.012774
v 0.086308 0.010401 0.013874
v 0.086117 0.010881 0.013707
v 0.083835 0.007531 0.012385
v 0.085221 0.007861 0.013637
v 0.085635 0.009871 0.014218
v 0.084020 0.011661 0.013993
v 0.084538 0.012191 0.014048
v 0.071883 0.008981 0.015033
v 0.072874 0.010201 0.015808
v 0.071974 0.011011 0.015987
v 0.072462 0.009591 0.015203
v 0.073040 0.011291 0.015150
v 0.072918 0.011471 0.015570
v 0.073018 0.012361 0.014872
v 0.072760 0.012651 0.014938
v 0.073054 0.012491 0.014470
v 0.071627 0.012671 0.014333
v 0.068532 0.006531 0.014787
v 0.070406 0.007561 0.015001
v 0.069577 0.009931 0.015024
v 0.067360 0.006671 0.014692
v 0.066192 0.007331 0.012984
v 0.064719 0.007431 0.014501
v 0.064861 0.006761 0.013553
v 0.064305 0.006341 0.013020
v 0.062517 0.001491 0.012209
v 0.062704 0.003691 0.012929
v 0.062963 0.006431 0.013799
v 0.060381 0.003421 0.014019
v 0.059259 0.008331 0.014165
v 0.059836 0.008941 0.013972
v 0.061315 0.009321 0.014207
v 0.055313 -0.001039 0.012673
v 0.055396 -0.000699 0.012014
v 0.056854 0.005341 0.014528
v 0.056178 0.005771 0.013846
v 0.058259 0.007731 0.013733
v 0.053505 -0.001179 0.013187
v 0.052927 -0.001059 0.013296
v 0.053194 -0.000879 0.012976
v 0.053431 0.000121 0.012270
v 0.055662 0.003311 0.014436
v 0.054834 0.003731 0.014222
v 0.054677 0.004011 0.013439
v 0.054096 0.003551 0.013357
v 0.054452 0.003631 0.012799
v 0.052367 -0.000669 0.013344
v 0.052041 -0.000319 0.013490
v 0.052505 0.001051 0.012937
v 0.052846 0.002651 0.013801
v 0.053213 0.002681 0.013008
v 0.087937 0.005011 0.011319
v 0.087493 0.004691 0.011269
v 0.087586 0.005111 0.010732
v 0.088165 0.005921 0.011339
v 0.087837 0.007491 0.011477
v 0.087968 0.006051 0.010726
v 0.087092 0.004571 0.011241
v 0.085242 0.004411 0.011068
v 0.087133 0.004641 0.010964
v 0.085658 0.004171 0.010924
v 0.085901 0.004191 0.010559
v 0.085222 0.004061 0.010554
v 0.086831 0.005871 0.009809
v 0.086854 0.007041 0.010144
v 0.087240 0.008151 0.011531
v 0.082454 0.004021 0.009085
v 0.084617 0.004531 0.010409
v 0.083670 0.004941 0.010147
v 0.084494 0.004371 0.009728
v 0.083672 0.004411 0.009454
v 0.082373 0.004191 0.009437
v 0.084363 0.004591 0.009236
v 0.083476 0.006251 0.011316
v 0.083047 0.007491 0.011562
v 0.083994 0.013511 0.013277
v 0.081703 0.003911 0.009060
v 0.080828 0.004031 0.009117
v 0.082069 0.005221 0.010259
v 0.081317 0.006291 0.010487
v 0.080629 0.004341 0.009640
v 0.082541 0.006711 0.011041
v 0.082316 0.008421 0.010987
v 0.081799 0.007471 0.010579
v 0.080643 0.007391 0.010038
v 0.082532 0.009221 0.011740
v 0.082294 0.014491 0.013097
v 0.082737 0.014621 0.012385
v 0.078062 0.004471 0.009761
v 0.079490 0.003871 0.009055
v 0.078234 0.005771 0.010120
v 0.078434 0.006981 0.009844
v 0.081362 0.016521 0.013119
v 0.075802 0.004081 0.009753
v 0.073933 0.002781 0.008713
v 0.072669 0.012191 0.013916
v 0.073066 0.013661 0.012740
v 0.073265 0.014381 0.014038
v 0.073728 0.014831 0.013366
v 0.073992 0.015801 0.013334
v 0.073408 0.015951 0.013384
v 0.069269 0.012561 0.013268
v 0.071033 0.014301 0.012386
v 0.069646 0.013871 0.012332
v 0.066812 0.003061 0.011030
v 0.068380 0.005861 0.010753
v 0.066241 0.007351 0.012006
v 0.066761 0.006681 0.011058
v 0.068126 0.008581 0.012158
v 0.068015 0.009191 0.011113
v 0.068691 0.013591 0.012689
v 0.068882 0.014171 0.012377
v 0.068238 0.014201 0.012433
v 0.066974 0.013871 0.012380
v 0.062924 0.000651 0.009375
v 0.064612 0.013381 0.012687
v 0.059832 -0.000019 0.010744
v 0.062287 0.000551 0.010339
v 0.061555 0.000441 0.009972
v 0.060918 0.000681 0.009763
v 0.060261 0.001681 0.009458
v 0.062235 0.001071 0.008958
v 0.063012 0.008361 0.011139
v 0.061606 0.010021 0.012452
v 0.062041 0.010921 0.012442
v 0.062203 0.011521 0.013247
v 0.063146 0.012021 0.012993
v 0.062159 0.011571 0.012597
v 0.062131 0.011891 0.012917
v 0.063800 0.012531 0.012840
v 0.063940 0.013221 0.012749
v 0.063454 0.012531 0.012742
v 0.062804 0.012121 0.012646
v 0.063592 0.012891 0.012526
v 0.063298 0.012211 0.012358
v 0.064014 0.012031 0.011845
v 0.063771 0.012781 0.012185
v 0.063767 0.013531 0.012390
v 0.064249 0.013871 0.012471
v 0.059677 0.000131 0.010320
v 0.058669 0.000531 0.010215
v 0.059441 0.007731 0.012572
v 0.060580 0.009861 0.013659
v 0.061501 0.011021 0.013489
v 0.060425 0.009321 0.012863
v 0.060275 0.009731 0.013300
v 0.060704 0.010811 0.013342
v 0.060648 0.010931 0.013042
v 0.060896 0.011261 0.012852
v 0.061165 0.010961 0.012673
v 0.060952 0.011611 0.013188
v 0.061528 0.011551 0.012734
v 0.056814 0.002431 0.010658
v 0.057107 0.006081 0.012718
v 0.084950 0.007271 0.009542
v 0.082001 0.003981 0.008743
v 0.080720 0.003891 0.008478
v 0.079967 0.004521 0.007794
v 0.081706 0.009671 0.010410
v 0.080938 0.010791 0.010650
v 0.081522 0.009481 0.009795
v 0.080817 0.010441 0.009393
v 0.082847 0.013681 0.011612
v 0.081334 0.014071 0.010780
v 0.079298 0.003811 0.008180
v 0.079247 0.003941 0.007918
v 0.078253 0.003741 0.007869
v 0.077945 0.003941 0.007643
v 0.079844 0.008461 0.009104
v 0.077852 0.009371 0.008429
v 0.080427 0.009581 0.008902
v 0.079556 0.010561 0.008418
v 0.079196 0.009991 0.008306
v 0.080496 0.012961 0.011436
v 0.079640 0.016091 0.011132
v 0.079298 0.015851 0.011041
v 0.079337 0.015991 0.011326
v 0.079301 0.016081 0.011353
v 0.079387 0.016431 0.011165
v 0.079221 0.016371 0.011439
v 0.079557 0.015611 0.010899
v 0.079373 0.015861 0.010976
v 0.079198 0.015591 0.010906
v 0.079295 0.015881 0.010957
v 0.079364 0.016301 0.011101
v 0.081285 0.018291 0.012853
v 0.080803 0.018261 0.012858
v 0.081310 0.018081 0.012500
v 0.080986 0.018461 0.012598
v 0.080170 0.016991 0.012228
v 0.080272 0.017771 0.012453
v 0.081620 0.016721 0.011752
v 0.080757 0.017461 0.011762
v 0.080923 0.018081 0.012129
v 0.080064 0.017351 0.012002
v 0.080317 0.018211 0.012236
v 0.079599 0.016541 0.011787
v 0.079725 0.016901 0.011572
v 0.075534 0.002921 0.008054
v 0.075468 0.003191 0.007508
v 0.075117 0.003021 0.007471
v 0.076128 0.003341 0.008834
v 0.075342 0.004151 0.007286
v 0.078615 0.012681 0.009886
v 0.077784 0.014111 0.010238
v 0.077494 0.013061 0.009356
v 0.079047 0.016181 0.011154
v 0.079127 0.016571 0.011499
v 0.078946 0.015691 0.010691
v 0.078997 0.015931 0.010923
v 0.078181 0.016771 0.010639
v 0.078942 0.017271 0.011804
v 0.078598 0.017051 0.011669
v 0.078339 0.017391 0.011738
v 0.077740 0.017241 0.011513
v 0.078368 0.017661 0.011520
v 0.077662 0.017561 0.011515
v 0.077057 0.017081 0.011288
v 0.078036 0.017621 0.011208
v 0.077740 0.017661 0.011231
v 0.077387 0.017171 0.010790
v 0.072728 0.002191 0.007617
v 0.074439 0.002651 0.007400
v 0.074416 0.002911 0.007152
v 0.073637 0.002581 0.007083
v 0.072995 0.005731 0.007380
v 0.074290 0.014741 0.011102
v 0.074552 0.016961 0.011986
v 0.075240 0.016991 0.011545
v 0.074737 0.017121 0.012736
v 0.074738 0.017271 0.012466
v 0.075303 0.017151 0.012102
v 0.075032 0.017351 0.012168
v 0.070617 0.001831 0.007588
v 0.070327 0.001861 0.007313
v 0.071655 0.001971 0.007007
v 0.070957 0.001941 0.007010
v 0.069869 0.002341 0.007115
v 0.071948 0.002701 0.006688
v 0.071373 0.002281 0.006695
v 0.071277 0.002691 0.006731
v 0.072187 0.007311 0.009904
v 0.070743 0.006721 0.007588
v 0.072311 0.012381 0.009777
v 0.074058 0.016701 0.012602
v 0.068210 0.001491 0.008287
v 0.067340 0.001191 0.008219
v 0.069250 0.001511 0.007918
v 0.068265 0.001431 0.007866
v 0.067264 0.001171 0.007836
v 0.068263 0.001641 0.007627
v 0.069154 0.001791 0.007378
v 0.068024 0.001901 0.007567
v 0.068092 0.002891 0.007689
v 0.068671 0.009371 0.010076
v 0.070005 0.009051 0.009539
v 0.070555 0.011191 0.011719
v 0.070911 0.012001 0.010841
v 0.069542 0.012691 0.009847
v 0.070308 0.014101 0.012139
v 0.069705 0.014131 0.012071
v 0.071375 0.014791 0.011930
v 0.070708 0.014411 0.011788
v 0.070360 0.014301 0.011771
v 0.069690 0.014231 0.011810
v 0.069972 0.014221 0.011464
v 0.071321 0.014581 0.011206
v 0.069812 0.013861 0.010903
v 0.066427 0.001051 0.008385
v 0.065011 0.000891 0.008227
v 0.065897 0.001331 0.007850
v 0.068555 0.013001 0.010584
v 0.067536 0.012531 0.010661
v 0.068309 0.014271 0.012103
v 0.066888 0.013921 0.011786
v 0.067495 0.013531 0.011228
v 0.063060 0.001881 0.008399
v 0.066089 0.011271 0.010728
v 0.065424 0.013421 0.011496
v 0.064389 0.013801 0.012127
v 0.061584 0.003741 0.009160
v 0.064189 0.013481 0.012033
v 0.078563 0.011901 0.008545
v 0.077881 0.010841 0.008076
v 0.076434 0.012031 0.008369
v 0.077902 0.012441 0.007963
v 0.072521 0.012711 0.008230
v 0.071881 0.008621 0.015698
v 0.072531 0.010391 0.016321
v 0.072504 0.009301 0.015889
v 0.069483 0.006341 0.015438
v 0.069483 0.006341 0.015438
v 0.069046 0.006271 0.015390
v 0.070975 0.007961 0.015986
v 0.070280 0.007681 0.015977
v 0.069894 0.006901 0.015743
v 0.070564 0.007561 0.015782
v 0.058607 -0.000129 0.014609
v 0.054058 -0.001309 0.015100
v 0.087845 0.004891 0.011638
v 0.086837 0.007971 0.013803
v 0.086837 0.007971 0.013803
v 0.086308 0.010401 0.013874
v 0.086117 0.010881 0.013707
v 0.086117 0.010881 0.013707
v 0.072874 0.010201 0.015808
v 0.073040 0.011291 0.015150
v 0.072918 0.011471 0.015570
v 0.073018 0.012361 0.014872
v 0.067360 0.006671 0.014692
v 0.066192 0.007331 0.012984
v 0.064719 0.007431 0.014501
v 0.064719 0.007431 0.014501
v 0.064719 0.007431 0.014501
v 0.064861 0.006761 0.013553
v 0.064861 0.006761 0.013553
v 0.064305 0.006341 0.013020
v 0.062517 0.001491 0.012209
v 0.062963 0.006431 0.013799
v 0.059836 0.008941 0.013972
v 0.058259 0.007731 0.013733
v 0.054096 0.003551 0.013357
v 0.052846 0.002651 0.013801
v 0.052846 0.002651 0.013801
v 0.053213 0.002681 0.013008
v 0.085222 0.004061 0.010554
v 0.085222 0.004061 0.010554
v 0.084494 0.004371 0.009728
v 0.083672 0.004411 0.009454
v 0.084363 0.004591 0.009236
v 0.084363 0.004591 0.009236
v 0.083994 0.013511 0.013277
v 0.082294 0.014491 0.013097
v 0.082294 0.014491 0.013097
v 0.082294 0.014491 0.013097
v 0.082737 0.014621 0.012385
v 0.082737 0.014621 0.012385
v 0.078234 0.005771 0.010120
v 0.081362 0.016521 0.013119
v 0.081362 0.016521 0.013119
v 0.081362 0.016521 0.013119
v 0.081362 0.016521 0.013119
v 0.081362 0.016521 0.013119
v 0.073265 0.014381 0.014038
v 0.073728 0.014831 0.013366
v 0.073992 0.015801 0.013334
v 0.066812 0.003061 0.011030
v 0.068015 0.009191 0.011113
v 0.068238 0.014201 0.012433
v 0.066974 0.013871 0.012380
v 0.062924 0.000651 0.009375
v 0.062131 0.011891 0.012917
v 0.063454 0.012531 0.012742
v 0.063454 0.012531 0.012742
v 0.062804 0.012121 0.012646
v 0.063592 0.012891 0.012526
v 0.063592 0.012891 0.012526
v 0.063592 0.012891 0.012526
v 0.063298 0.012211 0.012358
v 0.063767 0.013531 0.012390
v 0.064249 0.013871 0.012471
v 0.064249 0.013871 0.012471
v 0.060275 0.009731 0.013300
v 0.060648 0.010931 0.013042
v 0.060952 0.011611 0.013188
v 0.060952 0.011611 0.013188
v 0.060952 0.011611 0.013188
v 0.082001 0.003981 0.008743
v 0.080720 0.003891 0.008478
v 0.080720 0.003891 0.008478
v 0.079640 0.016091 0.011132
v 0.079640 0.016091 0.011132
v 0.079640 0.016091 0.011132
v 0.079298 0.015851 0.011041
v 0.079298 0.015851 0.011041
v 0.079298 0.015851 0.011041
v 0.079298 0.015851 0.011041
v 0.079298 0.015851 0.011041
v 0.079337 0.015991 0.011326
v 0.079337 0.015991 0.011326
v 0.079337 0.015991 0.011326
v 0.079337 0.015991 0.011326
v 0.079337 0.015991 0.011326
v 0.079301 0.016081 0.011353
v 0.079301 0.016081 0.011353
v 0.079387 0.016431 0.011165
v 0.079387 0.016431 0.011165
v 0.079387 0.016431 0.011165
v 0.079221 0.016371 0.011439
v 0.079221 0.016371 0.011439
v 0.079221 0.016371 0.011439
v 0.079557 0.015611 0.010899
v 0.079557 0.015611 0.010899
v 0.079557 0.015611 0.010899
v 0.079557 0.015611 0.010899
v 0.079557 0.015611 0.010899
v 0.079557 0.015611 0.010899
v 0.079373 0.015861 0.010976
v 0.079373 0.015861 0.010976
v 0.079373 0.015861 0.010976
v 0.079198 0.015591 0.010906
v 0.079198 0.015591 0.010906
v 0.079198 0.015591 0.010906
v 0.079198 0.015591 0.010906
v 0.079198 0.015591 0.010906
v 0.079295 0.015881 0.010957
v 0.079295 0.015881 0.010957
v 0.079364 0.016301 0.011101
v 0.079364 0.016301 0.011101
v 0.079364 0.016301 0.011101
v 0.079364 0.016301 0.011101
v 0.079364 0.016301 0.011101
v 0.079364 0.016301 0.011101
v 0.079364 0.016301 0.011101
v 0.079364 0.016301 0.011101
v 0.079364 0.016301 0.011101
v 0.081285 0.018291 0.012853
v 0.081285 0.018291 0.012853
v 0.081285 0.018291 0.012853
v 0.080803 0.018261 0.012858
v 0.080803 0.018261 0.012858
v 0.080803 0.018261 0.012858
v 0.080986 0.018461 0.012598
v 0.080064 0.017351 0.012002
v 0.080064 0.017351 0.012002
v 0.080064 0.017351 0.012002
v 0.080317 0.018211 0.012236
v 0.080317 0.018211 0.012236
v 0.079599 0.016541 0.011787
v 0.079599 0.016541 0.011787
v 0.079725 0.016901 0.011572
v 0.079725 0.016901 0.011572
v 0.079725 0.016901 0.011572
v 0.079725 0.016901 0.011572
v 0.079725 0.016901 0.011572
v 0.079725 0.016901 0.011572
v 0.079725 0.016901 0.011572
v 0.077784 0.014111 0.010238
v 0.077784 0.014111 0.010238
v 0.077784 0.014111 0.010238
v 0.079047 0.016181 0.011154
v 0.079047 0.016181 0.011154
v 0.079047 0.016181 0.011154
v 0.079047 0.016181 0.011154
v 0.079127 0.016571 0.011499
v 0.079127 0.016571 0.011499
v 0.079127 0.016571 0.011499
v 0.079127 0.016571 0.011499
v 0.079127 0.016571 0.011499
v 0.078946 0.015691 0.010691
v 0.078946 0.015691 0.010691
v 0.078946 0.015691 0.010691
v 0.078997 0.015931 0.010923
v 0.078997 0.015931 0.010923
v 0.078997 0.015931 0.010923
v 0.078181 0.016771 0.010639
v 0.078181 0.016771 0.010639
v 0.078181 0.016771 0.010639
v 0.078942 0.017271 0.011804
v 0.078942 0.017271 0.011804
v 0.078942 0.017271 0.011804
v 0.078598 0.017051 0.011669
v 0.078598 0.017051 0.011669
v 0.078339 0.017391 0.011738
v 0.078368 0.017661 0.011520
v 0.078368 0.017661 0.011520
v 0.078368 0.017661 0.011520
v 0.077662 0.017561 0.011515
v 0.077662 0.017561 0.011515
v 0.077662 0.017561 0.011515
v 0.077057 0.017081 0.011288
v 0.077057 0.017081 0.011288
v 0.078036 0.017621 0.011208
v 0.078036 0.017621 0.011208
v 0.078036 0.017621 0.011208
v 0.077740 0.017661 0.011231
v 0.077740 0.017661 0.011231
v 0.077740 0.017661 0.011231
v 0.077387 0.017171 0.010790
v 0.077387 0.017171 0.010790
v 0.075240 0.016991 0.011545
v 0.075240 0.016991 0.011545
v 0.075240 0.016991 0.011545
v 0.075240 0.016991 0.011545
v 0.074737 0.017121 0.012736
v 0.074737 0.017121 0.012736
v 0.074737 0.017121 0.012736
v 0.074738 0.017271 0.012466
v 0.074738 0.017271 0.012466
v 0.075303 0.017151 0.012102
v 0.075303 0.017151 0.012102
v 0.075303 0.017151 0.012102
v 0.075032 0.017351 0.012168
v 0.075032 0.017351 0.012168
v 0.070327 0.001861 0.007313
v 0.071655 0.001971 0.007007
v 0.070957 0.001941 0.007010
v 0.068265 0.001431 0.007866
v 0.067264 0.001171 0.007836
v 0.067264 0.001171 0.007836
v 0.068671 0.009371 0.010076
v 0.069972 0.014221 0.011464
v 0.071321 0.014581 0.011206
v 0.065011 0.000891 0.008227
v 0.065011 0.000891 0.008227
v 0.068309 0.014271 0.012103
vn 0.2211 -0.5172 0.8268
vn 0.4584 -0.5141 0.7250
vn -0.1257 -0.1645 0.9783
vn 0.6173 -0.6820 0.3922
vn 0.6193 -0.7341 0.2784
vn 0.6997 -0.7094 -0.0846
vn 0.6900 -0.6373 -0.3432
vn 0.6309 -0.5923 -0.5011
vn 0.7239 -0.5135 0.4608
vn 0.6704 -0.2211 0.7083
vn 0.1872 -0.0735 0.9796
vn 0.2147 0.2975 0.9303
vn -0.2037 0.3002 0.9319
vn 0.0647 0.4711 0.8797
vn -0.4978 0.3639 0.7872
vn -0.3495 0.5484 0.7597
vn 0.8704 -0.0499 0.4898
vn 0.8331 0.0112 0.5529
vn 0.9513 0.0534 0.3035
vn 0.3542 0.4739 0.8062
vn 0.7982 -0.4447 -0.4063
vn 0.9008 -0.3378 -0.2729
vn 0.8138 -0.5157 -0.2678
vn -0.0237 -0.6730 0.7393
vn -0.1641 -0.8628 0.4782
vn 0.2677 -0.7374 0.6202
vn 0.2745 -0.4427 0.8537
vn 0.0070 -0.3021 0.9532
vn 0.2920 -0.4975 0.8168
vn -0.2049 -0.1383 0.9690
vn -0.2403 0.1572 0.9579
vn -0.3036 -0.2478 0.9200
vn 0.6657 -0.6688 -0.3310
vn 0.7132 -0.6957 0.0858
vn 0.4038 -0.8067 -0.4315
vn 0.4765 -0.6628 -0.5776
vn 0.7891 -0.6114 0.0591
vn 0.1902 -0.8554 -0.4817
vn 0.0555 -0.9485 -0.3118
vn -0.0197 -0.8673 -0.4974
vn 0.6593 -0.5985 -0.4552
vn 0.4029 -0.7261 -0.5572
vn -0.2602 0.0549 0.9640
vn 0.3033 -0.5485 0.7792
vn 0.6149 -0.7418 0.2675
vn -0.4444 0.2870 0.8486
vn -0.4183 0.4568 0.7851
vn -0.3084 -0.7585 0.5740
vn -0.1149 0.3573 0.9269
vn 0.2766 -0.0079 0.9610
vn 0.4448 -0.2646 0.8556
vn 0.2943 -0.0884 0.9516
vn 0.1174 -0.0131 0.9930
vn -0.0241 0.1429 0.9894
vn 0.1515 -0.9746 -0.1649
vn 0.2893 -0.9537 0.0820
vn 0.1012 -0.9619 -0.2542
vn 0.1828 -0.3819 0.9059
vn 0.0709 -0.2976 0.9521
vn 0.0141 0.0429 0.9990
vn -0.1754 -0.7897 0.5879
vn 0.0748 -0.9941 0.0784
vn 0.1644 -0.9423 0.2917
vn -0.4986 -0.5289 0.6867
vn -0.1900 -0.3811 0.9048
vn -0.2732 -0.0362 0.9613
vn -0.0883 0.2266 0.9700
vn -0.2617 -0.9615 0.0837
vn -0.2632 -0.9282 -0.2632
vn -0.4651 -0.8755 -0.1313
vn -0.0409 -0.9662 -0.2546
vn -0.1808 -0.8430 -0.5066
vn -0.3956 -0.7522 -0.5269
vn -0.3420 0.3592 0.8683
vn -0.2569 0.3478 0.9017
vn -0.4402 0.5052 0.7423
vn -0.5921 -0.1088 0.7985
vn -0.5589 -0.7947 0.2368
vn -0.7306 -0.5104 0.4536
vn -0.4153 0.1883 0.8900
vn -0.7255 0.2165 0.6533
vn -0.9302 -0.1995 0.3081
vn -0.7952 -0.6020 -0.0727
vn -0.9369 0.2763 0.2142
vn -0.6178 -0.7003 -0.3578
vn -0.8013 -0.2359 -0.5497
vn -0.9713 0.0054 -0.2376
vn -0.6000 -0.4654 -0.6507
vn -0.5128 0.4898 0.7050
vn -0.8041 0.5025 -0.3177
vn 0.2538 -0.7807 0.5710
vn 0.5255 -0.4851 0.6989
vn 0.0927 -0.6537 0.7511
vn 0.5823 -0.7587 0.2920
vn 0.8905 -0.3003 0.3417
vn 0.2874 -0.9264 0.2433
vn 0.4545 -0.8663 -0.2072
vn 0.8187 -0.5223 -0.2386
vn 0.8999 -0.4246 0.0998
vn 0.2534 -0.9661 0.0501
vn 0.8740 0.0062 0.4859
vn 0.2459 -0.4138 0.8765
vn 0.0534 -0.8795 0.4730
vn -0.1796 -0.6671 0.7230
vn 0.0008 -0.9174 0.3980
vn -0.0778 -0.2945 0.9525
vn -0.3617 -0.3608 0.8597
vn 0.8195 0.1195 0.5604
vn 0.3923 0.2041 0.8969
vn 0.0418 -0.0392 0.9984
vn 0.4140 0.0636 0.9080
vn 0.9085 0.4013 0.1161
vn 0.2132 0.3703 0.9041
vn 0.9004 0.3697 0.2294
vn 0.8861 0.4623 0.0335
vn 0.5434 0.4748 0.6923
vn 0.5387 0.6553 -0.5295
vn -0.6221 -0.3249 0.7124
vn -0.4280 -0.4890 0.7601
vn -0.7312 -0.3176 0.6037
vn -0.4077 -0.0844 0.9092
vn 0.3209 0.6095 0.7249
vn -0.5560 -0.1746 0.8126
vn -0.5578 -0.2958 0.7755
vn 0.6599 -0.5804 -0.4771
vn 0.8498 -0.2963 -0.4360
vn 0.7936 -0.4116 -0.4481
vn 0.9681 0.0505 0.2456
vn 0.9382 -0.2914 -0.1868
vn 0.9948 -0.0195 0.1000
vn 0.6154 0.3661 0.6980
vn 0.0876 0.5145 0.8530
vn -0.4246 0.5567 0.7140
vn 0.8708 -0.4830 0.0922
vn 0.8467 -0.1569 0.5084
vn 0.7716 0.1173 0.6252
vn -0.2334 0.4148 0.8795
vn 0.7934 -0.5918 -0.1426
vn -0.2384 0.5229 0.8184
vn 0.0836 -0.8384 -0.5386
vn -0.2264 -0.9501 0.2147
vn -0.3387 -0.7772 0.5304
vn -0.3121 -0.8221 0.4762
vn 0.2444 -0.8374 -0.4890
vn 0.1773 -0.8711 -0.4579
vn 0.4361 -0.2862 0.8532
vn 0.2880 -0.0352 0.9570
vn 0.4994 -0.1340 0.8560
vn 0.5613 -0.3741 0.7383
vn 0.2115 -0.8203 0.5314
vn 0.3125 -0.8863 0.3417
vn 0.3352 -0.8578 0.3895
vn 0.2119 -0.7828 0.5850
vn 0.5518 -0.8332 0.0360
vn 0.1609 -0.2204 0.9621
vn 0.2687 -0.9499 0.1599
vn 0.4432 -0.8083 0.3876
vn -0.2262 -0.2615 0.9383
vn -0.0637 0.2389 0.9690
vn 0.0148 0.4939 0.8694
vn -0.1848 0.1856 0.9651
vn -0.3954 0.5044 0.7676
vn -0.5978 0.6856 0.4155
vn -0.7265 0.5401 0.4248
vn -0.2602 0.5032 0.8241
vn -0.5401 0.4408 0.7170
vn -0.1660 -0.7117 -0.6826
vn -0.0388 -0.7848 -0.6186
vn -0.2581 -0.3955 -0.8815
vn -0.6850 0.6829 0.2536
vn -0.5361 0.5989 -0.5950
vn -0.5734 0.6262 -0.5283
vn -0.5721 0.6137 -0.5441
vn -0.5944 0.6632 0.4548
vn -0.4821 0.5033 -0.7171
vn -0.7784 0.3068 -0.5477
vn -0.3511 -0.5884 -0.7284
vn -0.4645 -0.2039 -0.8618
vn -0.7537 0.1968 -0.6271
vn -0.4157 0.1870 -0.8901
vn -0.7157 0.6916 0.0976
vn -0.5361 0.7918 0.2926
vn -0.5028 0.8252 0.2573
vn -0.6098 0.7403 -0.2829
vn -0.7254 0.6133 -0.3125
vn -0.5029 0.3164 -0.8043
vn 0.6049 -0.5015 -0.6185
vn 0.8202 0.0364 -0.5709
vn 0.4238 -0.8178 -0.3893
vn 0.3253 -0.8912 -0.3163
vn 0.4565 -0.0948 -0.8847
vn 0.2045 -0.8248 -0.5272
vn 0.9988 -0.0193 -0.0443
vn 0.8695 0.4199 -0.2600
vn 0.4565 0.4571 -0.7633
vn -0.4111 -0.6769 0.6106
vn 0.1871 -0.9798 0.0708
vn -0.5244 -0.7189 0.4564
vn -0.5685 -0.7160 0.4053
vn 0.1658 -0.8728 -0.4590
vn 0.1032 -0.8975 -0.4288
vn -0.4365 -0.8116 0.3883
vn 0.2766 0.0088 -0.9609
vn 0.3718 0.2989 -0.8789
vn 0.2178 -0.9715 0.0938
vn 0.0745 -0.8074 0.5853
vn 0.0415 -0.9670 0.2514
vn 0.1532 -0.9801 -0.1258
vn -0.2090 -0.7300 0.6508
vn 0.1169 -0.9124 0.3922
vn -0.1143 -0.4894 0.8646
vn 0.2864 -0.9581 -0.0044
vn 0.0990 -0.8983 -0.4280
vn -0.6550 -0.1984 0.7291
vn -0.4539 -0.1298 0.8816
vn -0.7711 -0.1163 0.6260
vn 0.6421 0.4997 -0.5814
vn 0.6656 0.4127 -0.6219
vn 0.7338 0.5054 -0.4539
vn 0.3923 0.7723 0.4998
vn 0.8351 0.4066 -0.3705
vn 0.4224 0.8082 0.4104
vn 0.0148 -0.7203 0.6935
vn -0.0196 -0.9274 0.3735
vn 0.0310 -0.9889 0.1451
vn 0.1148 -0.9465 0.3016
vn -0.2639 -0.0759 0.9616
vn -0.0081 -0.2874 0.9578
vn -0.3020 0.3481 0.8875
vn -0.0359 0.2362 0.9710
vn -0.5372 0.1224 0.8345
vn -0.7252 -0.5265 0.4438
vn -0.8348 -0.4373 0.3345
vn -0.7811 -0.1174 0.6132
vn -0.5097 -0.2632 0.8191
vn 0.0115 -0.4755 0.8796
vn 0.1359 -0.8369 0.5302
vn 0.1548 -0.6038 0.7819
vn -0.0577 0.3751 0.9252
vn 0.3572 0.1540 0.9213
vn 0.0477 0.1505 0.9875
vn 0.3274 0.1543 0.9322
vn 0.8017 0.2478 0.5440
vn 0.0010 0.1487 0.9889
vn -0.8099 0.1023 0.5775
vn -0.6915 0.0135 0.7223
vn -0.5789 -0.2076 0.7885
vn 0.1849 -0.8653 0.4660
vn 0.2695 -0.9624 -0.0345
vn 0.0826 0.3605 0.9291
vn 0.0186 0.3682 0.9295
vn 0.8135 -0.2034 0.5448
vn 0.7463 -0.1504 0.6484
vn 0.2910 -0.7769 0.5583
vn 0.1539 0.1343 0.9789
vn 0.6810 -0.7198 0.1346
vn -0.3107 0.6314 0.7105
vn 0.1675 0.3442 0.9238
vn 0.1641 0.3288 0.9301
vn -0.5395 0.7503 0.3821
vn -0.5873 0.8031 0.1007
vn -0.5698 0.8193 0.0632
vn 0.2300 -0.9296 0.2880
vn 0.2150 -0.9466 0.2404
vn -0.2263 0.7847 0.5770
vn 0.1234 0.5971 0.7926
vn -0.5096 0.6862 0.5191
vn 0.0986 0.8470 0.5223
vn 0.1462 0.7689 0.6225
vn 0.5391 -0.7056 -0.4598
vn 0.6929 -0.6222 0.3644
vn 0.7338 -0.5899 0.3369
vn 0.6940 -0.6072 0.3868
vn 0.0206 0.4267 0.9042
vn -0.0384 0.3777 0.9251
vn -0.0614 0.3396 0.9386
vn -0.0712 0.9817 0.1768
vn -0.1230 0.9758 0.1805
vn -0.1417 0.9843 0.1057
vn 0.0549 -0.9297 -0.3642
vn 0.1012 -0.9942 -0.0363
vn -0.1704 -0.8208 -0.5452
vn -0.2521 -0.5721 -0.7805
vn -0.4400 0.4284 -0.7892
vn -0.4590 0.2342 -0.8570
vn -0.3727 0.2871 -0.8824
vn 0.0295 0.3533 0.9351
vn -0.3753 0.3608 0.8538
vn 0.0100 0.4095 0.9122
vn -0.1386 0.9301 -0.3402
vn -0.3272 0.8985 -0.2927
vn -0.3017 0.7767 -0.5529
vn -0.6536 0.3778 -0.6558
vn -0.1588 -0.6029 -0.7818
vn -0.3041 -0.1539 -0.9401
vn -0.3210 0.2308 -0.9185
vn -0.2582 -0.0532 -0.9646
vn -0.0151 0.4051 0.9142
vn -0.1230 0.4533 0.8828
vn -0.5526 0.3455 -0.7585
vn -0.4195 0.1846 -0.8888
vn -0.3290 0.2438 -0.9123
vn -0.5031 0.4610 -0.7310
vn -0.3157 0.4499 -0.8354
vn -0.2929 0.5653 -0.7711
vn -0.1492 0.5243 0.8384
vn -0.3535 0.3330 0.8742
vn -0.0777 0.7006 0.7093
vn -0.2721 0.5616 0.7814
vn -0.2666 0.8239 0.5002
vn -0.3412 0.6803 -0.6487
vn -0.4659 0.6489 -0.6016
vn -0.2252 0.5633 0.7950
vn -0.6855 0.2646 0.6782
vn -0.9213 0.3852 0.0533
vn -0.4181 0.7741 -0.4753
vn -0.6679 0.2347 -0.7063
vn -0.8107 0.2780 -0.5152
vn -0.5760 0.4606 0.6753
vn -0.4815 0.3367 -0.8092
vn -0.4897 0.5292 0.6929
vn -0.2140 0.4452 -0.8695
vn -0.7164 0.3414 0.6085
vn -0.8918 0.3375 0.3014
vn -0.7811 0.2300 -0.5805
vn -0.8931 0.3347 0.3006
vn -0.3408 0.1599 -0.9265
vn -0.6073 0.4020 -0.6852
vn -0.8365 0.4432 -0.3222
vn -0.3864 0.7135 -0.5845
vn 0.2401 -0.2124 -0.9472
vn 0.2782 -0.4466 -0.8504
vn 0.2204 -0.5844 -0.7809
vn 0.2041 -0.6691 -0.7146
vn 0.1461 -0.8746 -0.4624
vn 0.1709 -0.9548 -0.2431
vn 0.1649 -0.3758 -0.9119
vn 0.1884 0.3235 -0.9273
vn -0.5171 0.1194 0.8475
vn -0.7040 -0.4611 0.5402
vn -0.5766 -0.6060 0.5480
vn -0.4458 -0.2200 0.8677
vn 0.4330 0.3770 -0.8187
vn 0.6248 0.3785 -0.6829
vn 0.2039 -0.6989 -0.6856
vn 0.2647 -0.5494 -0.7925
vn 0.1268 -0.0247 -0.9916
vn -0.2567 0.4471 0.8569
vn -0.2158 0.1895 0.9579
vn -0.3672 -0.5615 0.7416
vn -0.1930 -0.6646 0.7218
vn -0.5163 -0.3955 0.7597
vn -0.7239 0.4592 0.5149
vn -0.6947 0.3912 0.6037
vn -0.6925 0.3867 0.6090
vn 0.5327 0.4495 -0.7170
vn -0.5290 -0.4006 0.7481
vn -0.5818 -0.2527 0.7731
vn 0.1488 0.3572 -0.9221
vn 0.0572 0.4459 -0.8933
vn -0.6035 -0.5852 0.5416
vn -0.6191 -0.4762 0.6245
vn -0.4306 -0.4538 0.7802
vn -0.2084 -0.4016 0.8918
vn 0.3091 0.4225 -0.8520
vn -0.2834 -0.7843 0.5519
vn 0.6207 0.2255 0.7509
vn 0.3538 0.7287 -0.5863
vn -0.5830 0.4342 -0.6867
vn 0.4181 -0.8367 0.3538
vn -0.3216 -0.5377 -0.7794
vn 0.3683 0.3574 -0.8583
vn 0.4087 0.3845 -0.8277
vn 0.4106 0.3857 -0.8262
vn 0.4270 0.3966 -0.8126
vn -0.3399 0.7433 -0.5761
vn -0.6876 -0.1083 0.7179
vn -0.6673 -0.5964 0.4461
vn -0.6171 -0.6305 0.4708
vn -0.1389 -0.4138 0.8997
vn -0.9215 -0.1476 -0.3593
vn -0.8316 0.3567 -0.4257
vn -0.1851 0.7628 0.6196
vn -0.6433 -0.7547 0.1288
vn 0.2886 -0.3730 0.8818
vn -0.8123 -0.2197 -0.5402
vn -0.0405 0.8870 0.4600
vn 0.1151 0.1787 -0.9771
vn -0.0339 0.2713 -0.9619
vn 0.0715 0.1908 -0.9790
vn 0.1867 0.1711 -0.9674
vn 0.3054 0.9025 -0.3038
vn 0.9879 -0.1379 -0.0714
vn 0.2612 0.1453 -0.9543
vn 0.3090 0.1456 -0.9398
vn 0.3843 0.0619 -0.9211
vn 0.5263 0.7475 -0.4051
vn 0.4513 0.8400 -0.3011
vn 0.6090 0.5871 -0.5333
vn 0.7579 0.5120 -0.4042
vn 0.7859 0.5543 -0.2741
vn 0.4483 0.7109 -0.5419
vn -0.2698 0.8456 0.4606
vn -0.2994 0.8464 0.4404
vn -0.0441 0.8066 0.5894
vn -0.4732 0.8271 0.3032
vn -0.5697 -0.0601 0.8196
vn -0.7510 0.3522 0.5585
vn -0.8362 0.3090 0.4531
vn -0.8655 0.1091 0.4890
vn 0.2809 0.6022 -0.7473
vn -0.1526 0.5579 -0.8158
vn -0.1130 0.5691 -0.8145
vn -0.3148 0.7689 -0.5565
vn -0.3555 0.3413 -0.8701
vn -0.8695 0.4392 0.2259
vn 0.4157 0.3547 0.8375
vn 0.3384 -0.8527 -0.3980
vn 0.2224 -0.9718 0.0781
vn 0.4323 -0.5524 -0.7127
vn 0.3164 -0.3520 -0.8809
vn -0.0297 -0.0501 0.9983
vn 0.2434 0.0321 0.9694
vn 0.5264 -0.6187 0.5832
vn 0.0851 -0.4800 0.8731
vn 0.0976 -0.3960 0.9130
vn -0.1772 -0.4398 0.8805
vn -0.3869 -0.4671 0.7951
vn -0.6705 -0.4267 0.6070
vn -0.3963 -0.5791 0.7125
vn -0.5863 0.2066 0.7833
vn 0.6318 -0.6039 0.4859
vn 0.6157 0.4035 -0.6768
vn 0.6644 0.4416 -0.6029
vn -0.0086 -0.3300 0.9439
vn -0.0053 0.5906 -0.8070
vn 0.1098 0.5343 -0.8381
vn -0.2395 -0.3152 0.9183
vn 0.0391 0.6252 0.7795
vn -0.0402 0.6303 0.7753
vn -0.0182 0.6293 0.7770
vn 0.4698 0.8541 0.2234
vn -0.2765 -0.1983 0.9403
vn -0.0949 0.6315 0.7695
vn -0.3130 -0.0822 0.9462
vn 0.6379 0.5006 -0.5853
vn 0.1714 -0.0937 -0.9807
vn 0.0822 0.6120 -0.7865
vn 0.4254 0.7223 -0.5453
vn 0.1908 0.9273 -0.3219
vn 0.3900 0.7646 -0.5131
vn 0.1114 0.9638 -0.2421
vn -0.1360 0.9456 0.2956
vn -0.6490 0.7583 -0.0613
vn -0.6446 0.7402 -0.1913
vn -0.6400 0.7628 0.0928
vn 0.0302 0.6566 -0.7537
vn -0.6334 0.7174 -0.2901
vn -0.0261 0.9866 0.1610
vn 0.1650 -0.9857 -0.0341
vn 0.2452 -0.6661 -0.7044
vn 0.1678 -0.9857 -0.0131
vn 0.0799 -0.0138 -0.9967
vn 0.1483 -0.6313 -0.7613
vn -0.0458 -0.3369 -0.9404
vn -0.0268 0.1344 -0.9906
vn 0.4064 -0.5415 0.7359
vn 0.8980 -0.4249 0.1144
vn -0.5045 0.7623 -0.4054
vn -0.3503 0.7089 -0.6122
vn 0.1477 -0.2507 0.9567
vn 0.7414 -0.1465 0.6549
vn 0.4095 0.7517 0.5170
vn 0.5795 0.6050 0.5460
vn 0.5361 0.6481 0.5409
vn -0.4587 0.7709 -0.4420
vn -0.5865 0.7648 -0.2667
vn 0.2473 0.8466 0.4712
vn 0.9207 -0.3903 0.0080
vn 0.5217 0.8025 -0.2895
vn 0.1360 -0.9899 0.0387
vn 0.1025 -0.9600 -0.2607
vn -0.0653 -0.6005 -0.7969
vn 0.0432 -0.9858 -0.1622
vn -0.1976 -0.5506 -0.8111
vn -0.2081 -0.5361 -0.8181
vn -0.2186 -0.1553 -0.9634
vn -0.1876 0.1739 -0.9667
vn -0.2076 0.1453 -0.9674
vn -0.1309 0.1101 -0.9853
vn -0.2541 0.7642 -0.5928
vn -0.3191 0.7510 -0.5781
vn -0.5371 0.7382 0.4081
vn -0.4556 0.8763 -0.1564
vn 0.2225 -0.8859 0.4071
vn 0.1805 -0.9733 0.1415
vn 0.1940 -0.9810 0.0033
vn 0.1105 -0.7729 -0.6249
vn -0.0561 -0.5549 -0.8301
vn 0.2099 -0.7336 -0.6463
vn -0.0509 -0.3282 -0.9432
vn -0.1360 -0.2310 -0.9634
vn -0.1615 -0.0868 -0.9831
vn 0.3635 -0.0459 0.9304
vn -0.2782 0.5963 -0.7530
vn -0.3689 0.5957 -0.7135
vn -0.3701 0.9196 0.1319
vn -0.2308 0.9497 0.2117
vn 0.0242 0.9874 0.1567
vn -0.1258 0.9909 -0.0478
vn -0.1246 0.8807 -0.4569
vn -0.2409 0.8466 -0.4746
vn 0.1127 -0.9935 -0.0175
vn -0.1912 -0.8315 -0.5215
vn -0.2218 -0.3492 -0.9104
vn -0.1858 0.6054 -0.7739
vn -0.2962 0.4138 -0.8608
vn -0.2557 0.4867 -0.8353
s 1
usemtl mtl1.139
f 17//1 3//2 16//3
f 1//4 3//2 360//5
f 360//5 24//6 1//4
f 354//7 24//6 85//8
f 3//2 7//9 2//10
f 2//10 4//11 3//2
f 2//10 6//12 4//11
f 3//2 4//11 16//3
f 4//11 5//13 16//3
f 4//11 6//12 5//13
f 6//12 8//14 5//13
f 5//13 25//15 16//3
f 76//16 25//15 5//13
f 2//10 7//9 75//17
f 1//4 7//9 3//2
f 75//17 355//18 2//10
f 75//17 79//19 355//18
f 374//20 8//14 6//12
f 76//16 5//13 8//14
f 77//21 372//22 356//23
f 354//7 77//21 356//23
f 9//24 12//25 11//26
f 11//26 19//27 9//24
f 19//27 10//28 9//24
f 19//27 18//29 10//28
f 361//30 20//31 10//28
f 9//24 10//28 26//32
f 13//33 24//6 362//34
f 357//35 14//36 13//33
f 362//34 358//37 13//33
f 14//36 357//35 15//38
f 15//38 357//35 359//39
f 15//38 359//39 84//40
f 13//33 85//8 24//6
f 13//33 14//36 323//41
f 13//33 323//41 85//8
f 175//42 14//36 15//38
f 175//42 15//38 84//40
f 361//30 16//3 22//43
f 22//43 16//3 25//15
f 21//44 17//1 18//29
f 18//29 17//1 16//3
f 24//6 363//45 362//34
f 19//27 21//44 18//29
f 23//46 22//43 25//15
f 22//43 20//31 361//30
f 24//6 360//5 363//45
f 23//46 20//31 22//43
f 23//46 86//47 20//31
f 26//32 10//28 20//31
f 9//24 27//48 12//25
f 26//32 27//48 9//24
f 20//31 89//49 26//32
f 28//50 92//51 95//52
f 29//53 28//50 95//52
f 95//52 108//54 29//53
f 183//55 364//56 99//57
f 30//58 28//50 29//53
f 31//59 30//58 29//53
f 29//53 34//60 31//59
f 32//61 35//62 365//63
f 30//58 31//59 32//61
f 41//64 32//61 33//65
f 33//65 32//61 31//59
f 31//59 34//60 33//65
f 40//66 41//64 33//65
f 33//65 34//60 40//66
f 34//60 50//67 40//66
f 364//56 365//63 35//62
f 35//62 32//61 36//68
f 99//57 364//56 35//62
f 36//68 38//69 35//62
f 38//69 36//68 46//70
f 35//62 37//71 99//57
f 37//71 35//62 38//69
f 99//57 37//71 104//72
f 104//72 37//71 38//69
f 104//72 38//69 105//73
f 29//53 50//67 34//60
f 29//53 52//74 50//67
f 52//74 29//53 39//75
f 29//53 108//54 39//75
f 108//54 109//76 39//75
f 41//64 40//66 43//77
f 40//66 50//67 43//77
f 36//68 32//61 44//78
f 44//78 41//64 42//79
f 44//78 32//61 41//64
f 43//77 42//79 41//64
f 50//67 51//80 43//77
f 46//70 36//68 44//78
f 43//77 51//80 53//81
f 42//79 43//77 45//82
f 45//82 43//77 53//81
f 47//83 46//70 44//78
f 42//79 47//83 44//78
f 47//83 42//79 45//82
f 45//82 53//81 54//84
f 38//69 46//70 48//85
f 48//85 46//70 47//83
f 114//86 48//85 47//83
f 49//87 47//83 45//82
f 45//82 54//84 49//87
f 105//73 38//69 48//85
f 113//88 48//85 114//86
f 49//87 114//86 47//83
f 52//74 51//80 50//67
f 53//81 51//80 52//74
f 52//74 116//89 53//81
f 52//74 39//75 116//89
f 53//81 116//89 54//84
f 389//90 49//87 54//84
f 55//91 58//92 64//93
f 56//94 60//95 58//92
f 55//91 56//94 58//92
f 57//96 56//94 55//91
f 56//94 119//97 118//98
f 366//99 118//98 60//95
f 119//97 56//94 57//96
f 119//97 57//96 124//100
f 58//92 59//101 63//102
f 58//92 60//95 59//101
f 62//103 57//96 55//91
f 61//104 62//103 55//91
f 55//91 64//93 61//104
f 127//105 62//103 61//104
f 62//103 124//100 57//96
f 62//103 127//105 124//100
f 63//102 65//106 70//107
f 63//102 59//101 367//108
f 64//93 58//92 63//102
f 64//93 63//102 61//104
f 61//104 63//102 70//107
f 67//109 71//110 368//111
f 65//106 71//110 70//107
f 59//101 66//112 367//108
f 67//109 73//113 71//110
f 66//112 369//114 367//108
f 369//114 66//112 68//115
f 73//113 67//109 370//116
f 66//112 132//117 68//115
f 69//118 140//119 70//107
f 69//118 70//107 152//120
f 70//107 71//110 72//121
f 71//110 73//113 72//121
f 73//113 370//116 142//122
f 73//113 153//123 72//121
f 240//124 70//107 72//121
f 74//125 354//7 85//8
f 85//8 323//41 74//125
f 74//125 77//21 354//7
f 77//21 78//126 372//22
f 77//21 162//127 78//126
f 75//17 373//128 79//19
f 162//127 82//129 78//126
f 74//125 323//41 77//21
f 77//21 323//41 162//127
f 79//19 373//128 80//130
f 80//130 373//128 82//129
f 375//131 81//132 374//20
f 374//20 81//132 8//14
f 81//132 76//16 8//14
f 81//132 83//133 76//16
f 80//130 82//129 165//134
f 375//131 411//135 164//136
f 375//131 164//136 81//132
f 410//137 83//133 81//132
f 163//138 82//129 162//127
f 175//42 323//41 14//36
f 76//16 83//133 25//15
f 25//15 86//47 23//46
f 86//47 25//15 83//133
f 83//133 168//139 86//47
f 359//39 87//140 84//40
f 376//141 12//25 27//48
f 27//48 26//32 378//142
f 175//42 84//40 87//140
f 376//141 27//48 90//143
f 88//144 87//140 381//145
f 87//140 88//144 175//42
f 86//47 89//49 20//31
f 89//49 86//47 168//139
f 93//146 92//51 171//147
f 93//146 171//147 174//148
f 93//146 174//148 91//149
f 90//143 27//48 378//142
f 94//150 383//151 382//152
f 379//153 94//150 382//152
f 377//154 382//152 383//151
f 385//155 93//146 91//149
f 184//156 384//157 364//56
f 184//156 364//56 183//55
f 92//51 93//146 95//52
f 95//52 93//146 385//155
f 385//155 380//158 98//159
f 192//160 98//159 89//49
f 385//155 108//54 95//52
f 108//54 385//155 101//161
f 98//159 101//161 385//155
f 98//159 96//162 101//161
f 97//163 212//164 96//162
f 98//159 386//165 96//162
f 386//165 98//159 209//166
f 97//163 209//166 212//164
f 99//57 100//167 183//55
f 206//168 183//55 100//167
f 100//167 207//169 206//168
f 102//170 101//161 96//162
f 220//171 102//170 103//172
f 102//170 220//171 112//173
f 387//174 102//170 96//162
f 212//164 387//174 96//162
f 208//175 103//172 429//176
f 104//72 105//73 106//177
f 106//177 105//73 113//88
f 100//167 99//57 104//72
f 100//167 104//72 106//177
f 113//88 114//86 107//178
f 106//177 107//178 100//167
f 106//177 113//88 107//178
f 107//178 114//86 115//179
f 107//178 115//179 219//180
f 101//161 109//76 108//54
f 101//161 102//170 109//76
f 109//76 116//89 39//75
f 109//76 102//170 110//181
f 110//181 111//182 109//76
f 111//182 390//183 109//76
f 388//184 112//173 389//90
f 112//173 117//185 389//90
f 110//181 112//173 388//184
f 112//173 219//180 391//186
f 110//181 102//170 112//173
f 48//85 113//88 105//73
f 49//87 115//179 114//86
f 115//179 49//87 389//90
f 389//90 117//185 115//179
f 391//186 219//180 115//179
f 118//98 119//97 120//187
f 120//187 123//188 118//98
f 120//187 119//97 126//189
f 126//189 119//97 124//100
f 126//189 128//190 120//187
f 123//188 120//187 130//191
f 139//192 130//191 120//187
f 123//188 121//193 118//98
f 118//98 121//193 60//95
f 60//95 121//193 59//101
f 122//194 59//101 121//193
f 122//194 66//112 59//101
f 123//188 122//194 121//193
f 123//188 131//195 122//194
f 130//191 131//195 123//188
f 122//194 132//117 66//112
f 122//194 131//195 132//117
f 61//104 125//196 127//105
f 70//107 125//196 61//104
f 125//196 70//107 140//119
f 128//190 126//189 124//100
f 128//190 124//100 127//105
f 128//190 127//105 129//197
f 392//198 127//105 125//196
f 125//196 134//199 392//198
f 134//199 125//196 140//119
f 128//190 393//200 139//192
f 120//187 128//190 139//192
f 393//200 136//201 139//192
f 392//198 134//199 394//202
f 130//191 396//203 221//204
f 132//117 131//195 221//204
f 130//191 221//204 131//195
f 133//205 138//206 143//207
f 222//208 133//205 143//207
f 134//199 140//119 135//209
f 394//202 134//199 135//209
f 135//209 137//210 394//202
f 135//209 140//119 145//211
f 135//209 138//206 137//210
f 397//212 137//210 133//205
f 139//192 136//201 395//213
f 133//205 137//210 138//206
f 397//212 133//205 222//208
f 141//214 140//119 69//118
f 148//215 140//119 141//214
f 141//214 69//118 149//216
f 132//117 221//204 371//217
f 371//217 229//218 398//219
f 221//204 229//218 371//217
f 399//220 73//113 142//122
f 398//219 229//218 154//221
f 399//220 142//122 402//222
f 147//223 143//207 138//206
f 144//224 143//207 147//223
f 222//208 143//207 223//225
f 223//225 144//224 156//226
f 143//207 144//224 223//225
f 144//224 147//223 156//226
f 140//119 148//215 146//227
f 146//227 145//211 140//119
f 138//206 135//209 147//223
f 135//209 145//211 147//223
f 145//211 146//227 157//228
f 151//229 404//230 146//227
f 150//231 146//227 148//215
f 149//216 148//215 141//214
f 150//231 148//215 149//216
f 151//229 146//227 150//231
f 149//216 69//118 152//120
f 240//124 152//120 70//107
f 152//120 240//124 226//232
f 149//216 152//120 225//233
f 225//233 152//120 226//232
f 227//234 149//216 225//233
f 72//121 153//123 240//124
f 153//123 159//235 240//124
f 145//211 155//236 147//223
f 268//237 156//226 147//223
f 147//223 155//236 268//237
f 145//211 157//228 155//236
f 155//236 160//238 268//237
f 155//236 157//228 160//238
f 151//229 158//239 404//230
f 400//240 252//241 405//242
f 403//243 483//243 401//243
f 252//241 253//244 405//242
f 257//245 256//246 406//247
f 161//248 265//249 268//237
f 160//238 161//248 268//237
f 158//239 308//250 404//230
f 158//239 236//251 308//250
f 166//252 411//135 296//253
f 413//254 161//248 160//238
f 157//228 413//254 160//238
f 172//255 171//147 404//230
f 404//230 308//250 172//255
f 163//138 165//134 82//129
f 162//127 323//41 163//138
f 324//256 163//138 323//41
f 83//133 410//137 167//257
f 412//258 167//257 410//137
f 411//135 166//252 164//136
f 551//259 167//257 412//258
f 552//260 311//261 167//257
f 328//262 167//257 311//261
f 313//263 413//254 335//264
f 168//139 83//133 326//265
f 168//139 326//265 170//266
f 169//267 83//133 167//257
f 167//257 328//262 169//267
f 326//265 83//133 169//267
f 327//268 170//266 326//265
f 327//268 178//269 170//266
f 335//264 384//157 184//156
f 413//254 384//157 335//264
f 172//255 174//148 171//147
f 88//144 176//270 175//42
f 173//271 377//154 383//151
f 377//154 173//271 414//272
f 173//271 91//149 174//148
f 174//148 321//273 173//271
f 414//272 173//271 321//273
f 175//42 176//270 323//41
f 168//139 177//274 89//49
f 89//49 177//274 179//275
f 179//275 180//276 89//49
f 168//139 170//266 177//274
f 170//266 178//269 177//274
f 178//269 179//275 177//274
f 340//277 415//278 178//269
f 340//277 416//279 415//278
f 185//280 181//281 184//156
f 417//282 185//280 188//283
f 189//284 202//285 344//286
f 89//49 180//276 182//287
f 197//288 89//49 182//287
f 180//276 205//289 182//287
f 182//287 205//289 197//288
f 341//290 427//291 416//279
f 346//292 204//293 427//291
f 346//292 427//291 341//290
f 185//280 184//156 183//55
f 185//280 183//55 206//168
f 186//294 185//280 206//168
f 188//283 185//280 186//294
f 187//295 347//296 343//297
f 188//283 186//294 187//295
f 188//283 187//295 343//297
f 192//160 210//298 98//159
f 98//159 210//298 217//299
f 210//298 192//160 217//299
f 211//300 190//301 189//284
f 189//284 191//302 201//303
f 201//303 191//302 194//304
f 189//284 190//301 191//302
f 194//304 191//302 218//305
f 201//303 202//285 189//284
f 89//49 193//306 192//160
f 89//49 196//307 193//306
f 192//160 193//306 195//308
f 195//308 217//299 192//160
f 193//306 196//307 198//309
f 198//309 199//310 193//306
f 194//304 418//311 421//312
f 199//310 195//308 193//306
f 418//311 194//304 218//305
f 89//49 197//288 196//307
f 200//313 198//309 196//307
f 422//314 196//307 197//288
f 419//315 423//315 425//315
f 421//312 420//316 201//303
f 421//312 201//303 194//304
f 202//285 201//303 203//317
f 203//317 201//303 424//318
f 203//317 424//318 204//293
f 422//314 197//288 426//319
f 202//285 203//317 348//320
f 346//292 348//320 204//293
f 204//293 348//320 203//317
f 197//288 428//321 426//319
f 186//294 206//168 207//169
f 207//169 187//295 186//294
f 219//180 347//296 187//295
f 219//180 353//322 347//296
f 208//175 211//300 189//284
f 219//180 208//175 189//284
f 209//166 213//323 212//164
f 213//323 209//166 98//159
f 98//159 217//299 213//323
f 212//164 213//323 214//324
f 429//176 211//300 208//175
f 430//325 211//300 429//176
f 214//324 213//323 431//326
f 190//301 211//300 216//327
f 215//328 216//327 211//300
f 430//325 215//328 211//300
f 432//329 215//328 430//325
f 190//301 216//327 191//302
f 191//302 216//327 218//305
f 218//305 216//327 215//328
f 418//311 218//305 433//330
f 215//328 433//330 218//305
f 107//178 207//169 100//167
f 207//169 107//178 219//180
f 187//295 207//169 219//180
f 219//180 220//171 208//175
f 103//172 208//175 220//171
f 220//171 219//180 112//173
f 224//331 434//332 435//333
f 224//331 435//333 232//334
f 232//334 436//335 231//336
f 231//336 223//225 156//226
f 224//331 396//203 434//332
f 232//334 234//337 224//331
f 396//203 224//331 221//204
f 221//204 224//331 352//338
f 150//231 149//216 227//234
f 151//229 150//231 237//339
f 150//231 227//234 237//339
f 228//340 227//234 225//233
f 228//340 225//233 226//232
f 270//341 228//340 226//232
f 228//340 237//339 227//234
f 238//342 237//339 228//340
f 230//343 229//218 221//204
f 229//218 258//344 154//221
f 229//218 230//343 258//344
f 156//226 268//237 265//249
f 156//226 265//249 231//336
f 232//334 231//336 233//345
f 233//345 231//336 266//346
f 234//337 232//334 233//345
f 233//345 266//346 234//337
f 224//331 234//337 269//347
f 266//346 269//347 234//337
f 224//331 269//347 352//338
f 151//229 235//348 158//239
f 235//348 151//229 237//339
f 236//251 158//239 235//348
f 237//339 239//349 235//348
f 239//349 236//251 235//348
f 238//342 239//349 237//339
f 228//340 270//341 349//350
f 238//342 228//340 349//350
f 349//350 270//341 272//351
f 226//232 240//124 271//352
f 271//352 240//124 159//235
f 270//341 226//232 271//352
f 407//353 249//354 504//355
f 352//338 275//356 230//343
f 230//343 221//204 352//338
f 246//357 406//247 263//358
f 230//343 241//359 259//360
f 243//361 406//247 244//362
f 246//357 244//362 406//247
f 274//363 246//357 278//364
f 278//364 246//357 263//358
f 247//365 241//359 230//343
f 243//361 458//366 406//247
f 248//367 242//367 459//367
f 408//368 460//368 440//368
f 461//369 445//369 437//369
f 441//370 464//370 446//370
f 251//371 438//371 447//371
f 474//372 245//373 439//374
f 245//373 264//375 439//374
f 497//376 452//376 511//376
f 467//377 409//377 442//377
f 244//362 443//378 243//361
f 244//362 273//379 443//378
f 507//380 468//380 444//380
f 455//381 475//381 450//381
f 456//382 453//382 476//382
f 451//383 477//383 508//383
f 512//384 279//384 478//384
f 509//385 479//385 528//385
f 454//386 457//386 513//386
f 247//365 230//343 275//356
f 462//387 516//387 469//387
f 465//388 463//389 470//390
f 465//388 470//390 250//391
f 448//392 466//392 472//392
f 480//393 449//393 473//393
f 470//390 276//394 250//391
f 250//391 276//394 481//395
f 481//395 276//394 277//396
f 514//397 482//398 522//399
f 254//400 154//221 258//344
f 154//221 254//400 484//401
f 254//400 255//402 484//401
f 489//403 486//404 485//405
f 262//406 486//404 489//403
f 406//247 487//407 257//245
f 488//408 493//409 257//245
f 256//246 257//245 261//410
f 261//410 257//245 493//409
f 406//247 256//246 263//358
f 256//246 261//410 263//358
f 230//343 259//360 258//344
f 254//400 258//344 260//411
f 260//411 258//344 259//360
f 254//400 260//411 255//402
f 498//412 259//360 241//359
f 255//402 260//411 494//413
f 498//412 490//414 259//360
f 260//411 259//360 494//413
f 494//413 259//360 491//415
f 495//416 492//416 499//416
f 496//417 500//417 525//417
f 289//418 265//249 288//419
f 267//420 266//346 265//249
f 289//418 267//420 265//249
f 267//420 269//347 266//346
f 267//420 289//418 290//421
f 267//420 290//421 269//347
f 266//346 231//336 265//249
f 239//349 350//422 236//251
f 236//251 350//422 322//423
f 270//341 271//352 272//351
f 293//424 272//351 505//425
f 351//426 272//351 293//424
f 274//363 278//364 529//427
f 519//428 471//429 510//430
f 510//430 529//427 519//428
f 249//354 517//431 504//355
f 518//432 520//432 506//432
f 523//433 521//434 275//356
f 284//435 505//425 519//428
f 519//428 529//427 284//435
f 505//425 284//435 293//424
f 523//433 275//356 352//338
f 352//338 287//436 524//437
f 280//438 529//427 278//364
f 526//439 282//440 530//441
f 527//442 501//442 531//442
f 280//438 281//443 529//427
f 282//440 283//444 530//441
f 284//435 529//427 281//443
f 534//445 284//435 281//443
f 534//445 281//443 280//438
f 522//399 285//446 514//397
f 502//447 515//447 539//447
f 524//437 287//436 540//448
f 503//449 541//450 532//451
f 541//450 286//452 532//451
f 542//453 535//453 533//453
f 543//454 537//455 536//456
f 540//448 287//436 544//457
f 545//458 537//455 543//454
f 538//459 546//459 295//459
f 300//460 288//419 161//248
f 288//419 265//249 161//248
f 289//418 291//461 290//421
f 291//461 289//418 288//419
f 288//419 302//462 291//461
f 290//421 305//463 269//347
f 291//461 305//463 290//421
f 291//461 562//464 306//465
f 291//461 306//465 305//463
f 269//347 305//463 292//466
f 352//338 269//347 292//466
f 308//250 236//251 322//423
f 351//426 293//424 310//467
f 163//138 293//424 165//134
f 293//424 298//468 165//134
f 353//322 294//469 547//470
f 548//471 293//424 284//435
f 287//436 353//322 547//470
f 411//135 556//472 296//253
f 553//473 557//474 299//475
f 559//476 294//469 297//477
f 299//475 554//478 553//473
f 298//468 293//424 549//479
f 294//469 559//476 547//470
f 550//480 560//480 558//480
f 161//248 413//254 314//481
f 300//460 161//248 314//481
f 301//482 300//460 314//481
f 318//483 301//482 314//481
f 302//462 288//419 300//460
f 302//462 300//460 303//484
f 301//482 303//484 300//460
f 563//485 561//486 304//487
f 318//483 304//487 561//486
f 306//465 562//464 563//485
f 304//487 306//465 563//485
f 306//465 304//487 307//488
f 307//488 304//487 320//489
f 305//463 306//465 307//488
f 305//463 307//488 292//466
f 292//466 307//488 320//489
f 292//466 320//489 309//490
f 308//250 322//423 172//255
f 310//467 293//424 324//256
f 321//273 310//467 324//256
f 163//138 324//256 293//424
f 353//322 334//491 333//492
f 555//493 311//261 552//260
f 297//477 294//469 311//261
f 294//469 569//494 311//261
f 569//494 328//262 311//261
f 353//322 333//492 294//469
f 312//495 413//254 313//263
f 314//481 312//495 315//496
f 315//496 312//495 313//263
f 315//496 313//263 316//497
f 318//483 314//481 564//498
f 317//499 318//483 564//498
f 564//498 565//500 317//499
f 566//501 337//502 319//503
f 317//499 319//503 318//483
f 317//499 566//501 319//503
f 314//481 413//254 312//495
f 319//503 304//487 318//483
f 304//487 319//503 320//489
f 322//423 174//148 172//255
f 322//423 567//504 174//148
f 322//423 310//467 567//504
f 323//41 176//270 324//256
f 324//256 414//272 321//273
f 338//505 334//491 325//506
f 353//322 325//506 334//491
f 169//267 328//262 329//507
f 329//507 330//508 169//267
f 330//508 326//265 169//267
f 330//508 331//509 326//265
f 331//509 327//268 326//265
f 331//509 178//269 327//268
f 331//509 340//277 178//269
f 569//494 329//507 328//262
f 332//510 330//508 569//494
f 569//494 330//508 329//507
f 332//510 331//509 330//508
f 572//511 568//512 334//491
f 331//509 332//510 340//277
f 334//491 568//512 333//492
f 336//513 335//264 184//156
f 184//156 181//281 336//513
f 570//514 417//282 188//283
f 316//497 313//263 335//264
f 316//497 335//264 336//513
f 566//501 571//515 337//502
f 337//502 571//515 343//297
f 188//283 343//297 571//515
f 337//502 343//297 320//489
f 319//503 337//502 320//489
f 189//284 344//286 353//322
f 334//491 338//505 342//516
f 338//505 339//517 342//516
f 344//286 339//517 325//506
f 344//286 325//506 353//322
f 325//506 339//517 338//505
f 334//491 341//290 572//511
f 341//290 416//279 340//277
f 334//491 342//516 341//290
f 219//180 189//284 353//322
f 344//286 202//285 345//518
f 345//518 202//285 348//320
f 345//518 348//320 346//292
f 344//286 345//518 339//517
f 345//518 341//290 342//516
f 346//292 341//290 345//518
f 339//517 345//518 342//516
f 343//297 347//296 320//489
f 309//490 320//489 347//296
f 309//490 347//296 353//322
f 238//342 350//422 239//349
f 350//422 238//342 349//350
f 350//422 349//350 351//426
f 272//351 351//426 349//350
f 351//426 322//423 350//422
f 352//338 353//322 287//436
f 292//466 309//490 352//338
f 352//338 309//490 353//322
f 351//426 310//467 322//423
