# Blender 4.0.2
# www.blender.org
mtllib skull_right_first_upper_premolar_tooth.mtl
o skull_right_first_upper_premolar_tooth
v 0.086506 -0.021289 0.025928
v 0.086069 -0.020259 0.025951
v 0.086651 -0.019999 0.025921
v 0.083786 -0.023029 0.025327
v 0.083487 -0.023049 0.025083
v 0.084253 -0.023189 0.025480
v 0.084564 -0.023449 0.025398
v 0.084130 -0.023569 0.025265
v 0.083439 -0.021849 0.025239
v 0.083727 -0.022259 0.025471
v 0.084817 -0.023129 0.025551
v 0.086313 -0.023509 0.025232
v 0.084474 -0.021819 0.025752
v 0.084021 -0.021569 0.025618
v 0.086091 -0.022629 0.025677
v 0.086976 -0.022969 0.025317
v 0.083764 -0.020479 0.025264
v 0.086026 -0.021879 0.025871
v 0.086678 -0.022159 0.025727
v 0.087642 -0.022329 0.025289
v 0.087099 -0.021409 0.025795
v 0.087812 -0.021399 0.025483
v 0.088060 -0.021899 0.025169
v 0.085443 -0.019539 0.025742
v 0.086197 -0.019169 0.025815
v 0.087066 -0.020679 0.025881
v 0.087112 -0.019979 0.025805
v 0.087672 -0.020759 0.025605
v 0.088225 -0.020599 0.025211
v 0.088428 -0.021109 0.025049
v 0.087688 -0.017469 0.025116
v 0.086298 -0.016089 0.025181
v 0.087023 -0.016449 0.025202
v 0.083600 -0.023789 0.024781
v 0.083878 -0.023999 0.024773
v 0.083667 -0.023859 0.024415
v 0.084182 -0.024159 0.024392
v 0.084341 -0.024279 0.024552
v 0.085275 -0.024779 0.024446
v 0.085995 -0.025039 0.024226
v 0.083106 -0.022759 0.024655
v 0.083631 -0.023519 0.025014
v 0.083408 -0.023449 0.024795
v 0.083276 -0.023389 0.024523
v 0.083787 -0.023739 0.024983
v 0.084251 -0.024079 0.024874
v 0.085643 -0.024289 0.024896
v 0.085321 -0.024479 0.024766
v 0.085801 -0.024769 0.024536
v 0.086255 -0.024609 0.024584
v 0.086288 -0.025019 0.024217
v 0.087016 -0.024259 0.024548
v 0.083034 -0.020509 0.024477
v 0.087475 -0.023419 0.024824
v 0.087906 -0.022919 0.024772
v 0.088372 -0.022329 0.024601
v 0.088626 -0.020379 0.024823
v 0.088769 -0.020859 0.024634
v 0.088746 -0.021359 0.024570
v 0.084010 -0.018109 0.024694
v 0.088837 -0.019329 0.024397
v 0.085563 -0.016139 0.025016
v 0.088443 -0.017709 0.024541
v 0.088244 -0.016509 0.024461
v 0.085385 -0.014189 0.024367
v 0.085974 -0.014329 0.024652
v 0.087491 -0.015329 0.024772
v 0.085762 -0.013249 0.024412
v 0.086985 -0.014359 0.024639
v 0.088122 -0.015129 0.024321
v 0.085496 -0.012439 0.024309
v 0.086370 -0.013049 0.024496
v 0.085859 -0.010729 0.024347
v 0.086349 -0.010389 0.024324
v 0.084970 -0.024689 0.024118
v 0.084649 -0.024359 0.023983
v 0.085626 -0.025039 0.024102
v 0.085514 -0.024979 0.023807
v 0.085095 -0.024609 0.023453
v 0.086283 -0.025199 0.023899
v 0.085882 -0.025129 0.023731
v 0.082598 -0.022389 0.023737
v 0.082697 -0.022609 0.023426
v 0.083359 -0.023149 0.023500
v 0.083750 -0.023289 0.023469
v 0.084031 -0.023619 0.023821
v 0.084332 -0.023819 0.023796
v 0.084613 -0.023959 0.023420
v 0.086810 -0.024909 0.024119
v 0.086670 -0.025199 0.023781
v 0.086607 -0.025279 0.023471
v 0.087097 -0.025029 0.023745
v 0.082353 -0.021879 0.023554
v 0.087208 -0.024629 0.024099
v 0.087703 -0.024019 0.024123
v 0.087698 -0.024629 0.023500
v 0.088343 -0.023379 0.023840
v 0.089077 -0.022289 0.023434
v 0.082811 -0.018459 0.023403
v 0.089181 -0.021699 0.023561
v 0.089067 -0.019839 0.024041
v 0.083597 -0.016939 0.023787
v 0.089112 -0.018819 0.023763
v 0.084374 -0.015919 0.024090
v 0.088799 -0.017819 0.024104
v 0.088654 -0.016829 0.024021
v 0.088839 -0.017139 0.023735
v 0.084407 -0.013969 0.023576
v 0.085335 -0.013179 0.024219
v 0.088590 -0.015179 0.023756
v 0.088757 -0.015629 0.023505
v 0.087467 -0.013439 0.024240
v 0.088230 -0.013859 0.023834
v 0.087042 -0.012049 0.024212
v 0.087907 -0.012819 0.023737
v 0.084786 -0.009559 0.023830
v 0.084305 -0.009709 0.023450
v 0.085252 -0.010189 0.024140
v 0.084616 -0.010749 0.023786
v 0.087953 -0.011819 0.023569
v 0.087773 -0.010829 0.023748
v 0.085523 -0.008239 0.023975
v 0.085899 -0.008769 0.024167
v 0.086320 -0.008649 0.024184
v 0.087557 -0.009499 0.023855
v 0.087930 -0.009589 0.023543
v 0.085278 -0.007149 0.023621
v 0.086620 -0.007899 0.024059
v 0.087509 -0.008359 0.023737
v 0.085780 -0.007029 0.023831
v 0.086988 -0.007529 0.023914
v 0.086498 -0.004869 0.023561
v 0.082175 -0.022079 0.023087
v 0.082262 -0.022219 0.022921
v 0.081954 -0.021989 0.022722
v 0.083233 -0.022969 0.023094
v 0.083566 -0.023179 0.023154
v 0.083543 -0.023159 0.022829
v 0.083785 -0.023209 0.022784
v 0.083375 -0.023039 0.022602
v 0.083677 -0.023139 0.022459
v 0.084187 -0.023349 0.023146
v 0.085102 -0.024499 0.022536
v 0.084842 -0.024199 0.022517
v 0.085527 -0.024719 0.022552
v 0.086519 -0.025209 0.023113
v 0.086482 -0.024969 0.022562
v 0.086848 -0.024869 0.022439
v 0.087093 -0.025179 0.023154
v 0.087569 -0.024939 0.023133
v 0.087084 -0.025079 0.022791
v 0.087578 -0.024939 0.022805
v 0.081792 -0.021249 0.022683
v 0.081722 -0.021449 0.022414
v 0.082039 -0.021209 0.023159
v 0.081885 -0.021729 0.022848
v 0.087840 -0.024709 0.023146
v 0.087899 -0.024729 0.022811
v 0.087874 -0.024699 0.022577
v 0.088238 -0.024429 0.022813
v 0.088263 -0.024419 0.022463
v 0.081828 -0.020379 0.022492
v 0.088276 -0.024169 0.023153
v 0.088641 -0.024039 0.022491
v 0.088828 -0.023739 0.022527
v 0.088849 -0.023159 0.023176
v 0.089091 -0.022869 0.022866
v 0.089268 -0.022019 0.023056
v 0.089296 -0.021009 0.023349
v 0.089372 -0.021129 0.022951
v 0.089316 -0.021809 0.022621
v 0.089347 -0.021239 0.022466
v 0.082820 -0.017419 0.022830
v 0.083498 -0.016169 0.023170
v 0.089303 -0.019299 0.023225
v 0.089332 -0.019359 0.022510
v 0.089219 -0.018229 0.023035
v 0.083624 -0.014029 0.022658
v 0.083692 -0.012189 0.022686
v 0.088765 -0.014639 0.023078
v 0.088420 -0.012609 0.023149
v 0.084060 -0.009289 0.023051
v 0.083909 -0.009989 0.022938
v 0.083846 -0.009409 0.022627
v 0.088578 -0.011609 0.022779
v 0.088253 -0.010009 0.023150
v 0.084784 -0.007369 0.023247
v 0.084855 -0.005969 0.023088
v 0.084629 -0.005849 0.022740
v 0.088178 -0.008279 0.022932
v 0.084779 -0.003909 0.022857
v 0.085372 -0.003979 0.023260
v 0.086024 -0.004129 0.023430
v 0.086455 -0.003809 0.023300
v 0.086783 -0.004479 0.023358
v 0.087320 -0.004759 0.023026
v 0.081776 -0.021809 0.022250
v 0.081950 -0.022089 0.022164
v 0.082701 -0.022609 0.022211
v 0.082476 -0.022659 0.021682
v 0.083624 -0.022989 0.021850
v 0.083118 -0.022849 0.021814
v 0.083343 -0.022879 0.021638
v 0.084240 -0.023179 0.022202
v 0.084419 -0.023299 0.022175
v 0.083962 -0.023069 0.021848
v 0.084960 -0.024229 0.022161
v 0.084764 -0.023949 0.022165
v 0.085067 -0.024019 0.021808
v 0.084814 -0.023799 0.021862
v 0.085326 -0.024469 0.022158
v 0.085845 -0.024629 0.022153
v 0.085624 -0.024309 0.021818
v 0.086072 -0.024229 0.021676
v 0.086706 -0.024419 0.022002
v 0.087223 -0.024139 0.021959
v 0.087674 -0.024639 0.022354
v 0.087387 -0.024479 0.022186
v 0.088058 -0.024409 0.022176
v 0.087824 -0.024349 0.022044
v 0.087582 -0.024019 0.021778
v 0.087918 -0.024199 0.021821
v 0.088253 -0.024239 0.021843
v 0.088872 -0.023769 0.022164
v 0.088675 -0.024029 0.021864
v 0.089003 -0.023349 0.022406
v 0.089220 -0.021789 0.021931
v 0.089169 -0.017719 0.022507
v 0.088833 -0.016289 0.022151
v 0.083192 -0.012369 0.021711
v 0.088678 -0.015569 0.021719
v 0.088760 -0.014909 0.021685
v 0.083467 -0.011309 0.021981
v 0.088837 -0.014649 0.022433
v 0.088767 -0.012899 0.022558
v 0.083680 -0.009689 0.021923
v 0.083887 -0.008739 0.022240
v 0.088861 -0.011589 0.022040
v 0.088825 -0.010569 0.021724
v 0.088619 -0.009159 0.022269
v 0.084353 -0.006529 0.022241
v 0.084345 -0.006149 0.021846
v 0.088272 -0.006979 0.022376
v 0.088128 -0.005759 0.022059
v 0.084423 -0.003349 0.022226
v 0.084342 -0.002889 0.021890
v 0.087688 -0.004599 0.022484
v 0.084170 -0.001049 0.021946
v 0.084408 -0.000079 0.022197
v 0.084987 -0.000879 0.022524
v 0.085697 -0.000819 0.022532
v 0.086454 -0.001289 0.022465
v 0.086984 -0.001819 0.022275
v 0.086789 -0.000729 0.021878
v 0.085353 0.000541 0.022241
v 0.084766 0.001111 0.022119
v 0.084517 0.002261 0.021929
v 0.084948 0.002231 0.021936
v 0.082056 -0.022459 0.021336
v 0.081777 -0.022099 0.021185
v 0.082094 -0.022789 0.020715
v 0.083122 -0.022879 0.021476
v 0.083800 -0.022869 0.021532
v 0.083683 -0.022869 0.021397
v 0.083819 -0.022889 0.021389
v 0.083923 -0.022979 0.021197
v 0.083291 -0.023149 0.020849
v 0.083706 -0.023119 0.020852
v 0.084851 -0.023489 0.021565
v 0.084010 -0.022949 0.021417
v 0.084029 -0.022959 0.021532
v 0.084436 -0.023059 0.021521
v 0.084426 -0.023139 0.020873
v 0.084917 -0.023309 0.021323
v 0.084854 -0.023199 0.021177
v 0.085513 -0.023409 0.021035
v 0.085318 -0.023209 0.020773
v 0.085749 -0.023169 0.020767
v 0.085825 -0.023509 0.021097
v 0.086533 -0.023449 0.021179
v 0.086098 -0.023229 0.020981
v 0.086306 -0.023069 0.020853
v 0.086701 -0.023159 0.020776
v 0.087894 -0.023939 0.021368
v 0.088256 -0.023529 0.020730
v 0.088579 -0.023959 0.021488
v 0.088845 -0.023599 0.021475
v 0.088633 -0.023579 0.021025
v 0.081439 -0.019779 0.021135
v 0.081577 -0.019109 0.021156
v 0.082286 -0.017349 0.021532
v 0.089058 -0.020359 0.020911
v 0.082944 -0.015849 0.021651
v 0.082681 -0.016109 0.021085
v 0.082854 -0.015459 0.020963
v 0.082962 -0.014539 0.021047
v 0.088922 -0.018049 0.021086
v 0.082839 -0.012999 0.020886
v 0.088577 -0.016319 0.021265
v 0.088415 -0.014949 0.020856
v 0.088877 -0.013799 0.021126
v 0.088707 -0.014239 0.020822
v 0.083466 -0.010429 0.021589
v 0.083814 -0.008869 0.021407
v 0.083721 -0.008809 0.021168
v 0.088943 -0.011359 0.021673
v 0.089029 -0.011689 0.021140
v 0.084069 -0.007509 0.021405
v 0.083959 -0.007419 0.021083
v 0.084184 -0.007169 0.021737
v 0.084165 -0.006939 0.021298
v 0.084296 -0.006509 0.021327
v 0.084014 -0.006959 0.020952
v 0.084170 -0.006659 0.020997
v 0.084441 -0.005859 0.021296
v 0.084335 -0.006379 0.021093
v 0.088723 -0.008059 0.021562
v 0.088803 -0.008329 0.021045
v 0.084538 -0.004709 0.021137
v 0.084405 -0.004149 0.021760
v 0.084389 -0.003159 0.021463
v 0.084505 -0.002599 0.020957
v 0.087657 -0.003539 0.021215
v 0.084158 -0.001209 0.021610
v 0.084197 -0.001099 0.021267
v 0.084013 0.000381 0.021767
v 0.083966 0.000051 0.021499
v 0.087089 -0.001089 0.021609
v 0.087171 -0.001119 0.021159
v 0.087351 -0.001899 0.021613
v 0.087376 -0.001849 0.021261
v 0.083918 0.001021 0.021423
v 0.083961 0.000991 0.021095
v 0.086649 0.000061 0.021110
v 0.084014 0.002411 0.021552
v 0.083986 0.002441 0.021323
v 0.084198 0.002391 0.021787
v 0.084197 0.002771 0.021660
v 0.084312 0.002711 0.021769
v 0.084416 0.002921 0.021654
v 0.084099 0.002811 0.021443
v 0.084269 0.002981 0.021443
v 0.084600 0.003091 0.021430
v 0.084054 0.002731 0.021220
v 0.084152 0.002921 0.021231
v 0.084366 0.003061 0.021108
v 0.084653 0.003151 0.021097
v 0.084814 0.002791 0.021768
v 0.085283 0.002401 0.021728
v 0.085035 0.002941 0.021570
v 0.084824 0.003041 0.021546
v 0.085384 0.002781 0.021302
v 0.084885 0.003141 0.021211
v 0.085081 0.003061 0.021330
v 0.082838 -0.023349 0.020379
v 0.083566 -0.023889 0.019897
v 0.084089 -0.023899 0.019867
v 0.081983 -0.022829 0.020170
v 0.081732 -0.022259 0.020224
v 0.083293 -0.023409 0.020439
v 0.084186 -0.023369 0.020524
v 0.081407 -0.020759 0.020729
v 0.081455 -0.020799 0.019864
v 0.085561 -0.023139 0.020521
v 0.084839 -0.023369 0.020332
v 0.085304 -0.023359 0.019889
v 0.081349 -0.020189 0.020144
v 0.085903 -0.022969 0.020385
v 0.086004 -0.022939 0.020558
v 0.086356 -0.022969 0.020543
v 0.086145 -0.022939 0.020381
v 0.086760 -0.023079 0.020214
v 0.087365 -0.023149 0.020137
v 0.086983 -0.023119 0.019849
v 0.087706 -0.022999 0.019885
v 0.081335 -0.019589 0.020402
v 0.081520 -0.018809 0.020284
v 0.081373 -0.019489 0.020020
v 0.088599 -0.022869 0.020376
v 0.088343 -0.022639 0.019910
v 0.088671 -0.021999 0.020041
v 0.088932 -0.021469 0.020530
v 0.088799 -0.020419 0.020090
v 0.082666 -0.016009 0.020416
v 0.082904 -0.014759 0.020444
v 0.088572 -0.017639 0.020411
v 0.088718 -0.018559 0.020334
v 0.082937 -0.013949 0.020167
v 0.088090 -0.016469 0.020379
v 0.082767 -0.013059 0.020233
v 0.087498 -0.015859 0.019880
v 0.088027 -0.015969 0.020457
v 0.087866 -0.015529 0.020214
v 0.082751 -0.012209 0.020351
v 0.083031 -0.010289 0.020281
v 0.083286 -0.008779 0.020518
v 0.089014 -0.011439 0.020150
v 0.083786 -0.007269 0.020778
v 0.083592 -0.006469 0.020211
v 0.083714 -0.006149 0.020137
v 0.083412 -0.006249 0.019974
v 0.084279 -0.006469 0.020861
v 0.084087 -0.006619 0.020765
v 0.084225 -0.006449 0.020651
v 0.083863 -0.006629 0.020523
v 0.084063 -0.006479 0.020549
v 0.083524 -0.006959 0.020330
v 0.083882 -0.006369 0.020336
v 0.084501 -0.006209 0.020883
v 0.084809 -0.005649 0.020766
v 0.084486 -0.006319 0.020663
v 0.084709 -0.006289 0.020532
v 0.084258 -0.006329 0.020430
v 0.084497 -0.006309 0.020436
v 0.084110 -0.006129 0.020209
v 0.084872 -0.006139 0.020620
v 0.085183 -0.005829 0.020535
v 0.085577 -0.006179 0.020338
v 0.085550 -0.006289 0.020126
v 0.085885 -0.006329 0.020101
v 0.088669 -0.008279 0.020162
v 0.085657 -0.005899 0.020369
v 0.085980 -0.006139 0.020281
v 0.086448 -0.006169 0.020165
v 0.086497 -0.006499 0.020074
v 0.088201 -0.006759 0.020106
v 0.088269 -0.006419 0.020513
v 0.088097 -0.006299 0.020214
v 0.084813 -0.003569 0.020633
v 0.087920 -0.004999 0.020462
v 0.084496 -0.001629 0.020807
v 0.085295 -0.003169 0.020295
v 0.084861 -0.001569 0.020451
v 0.085435 -0.001919 0.020217
v 0.087171 -0.002719 0.020298
v 0.084085 0.000191 0.020897
v 0.087212 -0.001409 0.020853
v 0.086947 -0.001249 0.020295
v 0.084172 0.001071 0.020574
v 0.086724 -0.000039 0.020759
v 0.086906 -0.000639 0.020537
v 0.084064 0.002421 0.020989
v 0.086389 0.000921 0.020453
v 0.084206 0.002881 0.020989
v 0.084734 0.003121 0.020669
v 0.084572 0.002951 0.020484
v 0.084381 0.002431 0.020361
v 0.084916 0.003021 0.020184
v 0.085936 0.002041 0.020809
v 0.085842 0.002331 0.020440
v 0.085230 0.003121 0.020807
v 0.085100 0.003161 0.020516
v 0.085435 0.003051 0.020501
v 0.085328 0.003101 0.020362
v 0.085096 0.003111 0.020252
v 0.085511 0.002941 0.020249
v 0.085594 0.002831 0.020588
v 0.082198 -0.023139 0.019220
v 0.082935 -0.023789 0.019595
v 0.082596 -0.023689 0.019274
v 0.082941 -0.023919 0.019217
v 0.083526 -0.024069 0.019518
v 0.083947 -0.024129 0.019481
v 0.081839 -0.022269 0.019283
v 0.086262 -0.023249 0.019565
v 0.086487 -0.023339 0.019106
v 0.081416 -0.020209 0.019772
v 0.086591 -0.023169 0.019675
v 0.086709 -0.023219 0.019250
v 0.087177 -0.022979 0.019272
v 0.081519 -0.019039 0.019770
v 0.081584 -0.019709 0.019177
v 0.087588 -0.022789 0.019446
v 0.087866 -0.022359 0.019345
v 0.082023 -0.018069 0.019250
v 0.088376 -0.022039 0.019627
v 0.088431 -0.020079 0.019415
v 0.082856 -0.015739 0.019250
v 0.083040 -0.014889 0.019253
v 0.088164 -0.017969 0.019611
v 0.082743 -0.012279 0.019852
v 0.087875 -0.014509 0.019741
v 0.082846 -0.011349 0.019486
v 0.088294 -0.013569 0.019352
v 0.082961 -0.010159 0.019681
v 0.088744 -0.012529 0.019625
v 0.088694 -0.011919 0.019346
v 0.083046 -0.008129 0.019553
v 0.083071 -0.006949 0.019507
v 0.088786 -0.009859 0.019597
v 0.088878 -0.009809 0.019995
v 0.083278 -0.005099 0.019630
v 0.083798 -0.005369 0.019907
v 0.084745 -0.006029 0.020041
v 0.084441 -0.005439 0.019881
v 0.085398 -0.006129 0.019907
v 0.086362 -0.006539 0.019684
v 0.085955 -0.006329 0.019706
v 0.085188 -0.005169 0.019700
v 0.085703 -0.006079 0.019674
v 0.086211 -0.006339 0.019467
v 0.086384 -0.006279 0.019386
v 0.086191 -0.005979 0.019380
v 0.086676 -0.006199 0.019309
v 0.086717 -0.005699 0.019177
v 0.086894 -0.006449 0.019931
v 0.086817 -0.006089 0.019997
v 0.087628 -0.006229 0.019923
v 0.087064 -0.006419 0.019891
v 0.087274 -0.006419 0.019846
v 0.087184 -0.006109 0.019903
v 0.087518 -0.006439 0.019833
v 0.087119 -0.006529 0.019791
v 0.087416 -0.006619 0.019688
v 0.086699 -0.006599 0.019690
v 0.087048 -0.006599 0.019688
v 0.086904 -0.006579 0.019551
v 0.086658 -0.006459 0.019457
v 0.087321 -0.006659 0.019447
v 0.086946 -0.006349 0.019296
v 0.088052 -0.006619 0.019997
v 0.087906 -0.006379 0.020006
v 0.087820 -0.006569 0.019850
v 0.088016 -0.006889 0.019769
v 0.087793 -0.006779 0.019674
v 0.088076 -0.007239 0.019445
v 0.087783 -0.006899 0.019447
v 0.087685 -0.006829 0.019222
v 0.088245 -0.007169 0.019862
v 0.087515 -0.005819 0.019939
v 0.087744 -0.005919 0.020015
v 0.083670 -0.002799 0.019481
v 0.087580 -0.004759 0.020049
v 0.085876 -0.002729 0.020028
v 0.086448 -0.002669 0.019870
v 0.086445 -0.003119 0.019875
v 0.086958 -0.003349 0.019910
v 0.086676 -0.002769 0.019852
v 0.086773 -0.002049 0.020000
v 0.086468 -0.002139 0.019937
v 0.085972 -0.000759 0.019862
v 0.085250 0.000491 0.019732
v 0.085642 0.000531 0.019635
v 0.085863 0.000601 0.019663
v 0.086197 -0.000499 0.019811
v 0.086366 -0.000399 0.019879
v 0.084526 0.001411 0.020041
v 0.084912 0.002021 0.019672
v 0.084875 0.001351 0.019732
v 0.085218 0.001641 0.019580
v 0.086267 0.000981 0.020124
v 0.086122 0.000601 0.019798
v 0.084759 0.002851 0.020125
v 0.085113 0.002931 0.019916
v 0.085231 0.002881 0.019845
v 0.085439 0.002821 0.019922
v 0.084813 0.002341 0.019798
v 0.084984 0.002641 0.019777
v 0.085174 0.002781 0.019770
v 0.085361 0.002671 0.019745
v 0.085061 0.002331 0.019646
v 0.085253 0.002481 0.019641
v 0.085666 0.002491 0.020037
v 0.085573 0.002381 0.019815
v 0.085436 0.002201 0.019647
v 0.085289 0.003001 0.020039
v 0.082455 -0.023299 0.018778
v 0.082945 -0.023889 0.018889
v 0.082644 -0.023659 0.018888
v 0.082986 -0.023789 0.018561
v 0.082719 -0.023529 0.018561
v 0.083053 -0.023589 0.018214
v 0.083772 -0.024259 0.018907
v 0.084198 -0.024249 0.018883
v 0.083779 -0.024239 0.018547
v 0.084209 -0.024259 0.018556
v 0.083560 -0.023979 0.018235
v 0.083892 -0.024099 0.018208
v 0.084234 -0.024159 0.018238
v 0.082102 -0.022609 0.018781
v 0.082606 -0.022989 0.018251
v 0.085075 -0.024109 0.018583
v 0.084961 -0.024079 0.018226
v 0.085375 -0.023929 0.018925
v 0.085524 -0.023929 0.018229
v 0.081989 -0.021119 0.018171
v 0.081864 -0.021649 0.018635
v 0.082160 -0.021829 0.018165
v 0.085804 -0.023719 0.018968
v 0.085936 -0.023799 0.018579
v 0.086252 -0.023599 0.018578
v 0.085915 -0.023759 0.018246
v 0.086197 -0.023499 0.018224
v 0.081705 -0.020519 0.018763
v 0.081940 -0.020539 0.018215
v 0.086649 -0.023269 0.018914
v 0.087036 -0.022789 0.018775
v 0.081843 -0.019079 0.018841
v 0.087665 -0.021829 0.018887
v 0.087913 -0.020819 0.018799
v 0.082713 -0.016989 0.018645
v 0.087665 -0.019499 0.018498
v 0.083024 -0.015789 0.018855
v 0.083217 -0.015199 0.018783
v 0.083756 -0.014519 0.018180
v 0.086593 -0.015649 0.018752
v 0.086035 -0.015499 0.018163
v 0.083181 -0.013489 0.018911
v 0.082961 -0.012469 0.018905
v 0.082977 -0.011779 0.018702
v 0.086949 -0.014079 0.018480
v 0.087813 -0.013389 0.018633
v 0.087658 -0.013099 0.018345
v 0.088041 -0.012609 0.018546
v 0.088213 -0.013009 0.018849
v 0.083193 -0.009799 0.018500
v 0.083141 -0.008019 0.018580
v 0.088024 -0.010589 0.018337
v 0.082991 -0.007019 0.018992
v 0.083063 -0.007029 0.018541
v 0.088159 -0.008589 0.018734
v 0.082891 -0.005149 0.019138
v 0.082812 -0.004959 0.018705
v 0.088219 -0.007949 0.019147
v 0.088086 -0.007779 0.018765
v 0.087363 -0.006449 0.019116
v 0.087574 -0.006089 0.018704
v 0.087927 -0.007129 0.018927
v 0.087734 -0.006679 0.018816
v 0.087890 -0.006919 0.018381
v 0.087774 -0.006299 0.018401
v 0.082787 -0.002789 0.018731
v 0.087147 -0.005809 0.019006
v 0.087595 -0.005399 0.018272
v 0.082964 -0.002219 0.018982
v 0.083101 -0.000639 0.018773
v 0.086292 -0.002469 0.018792
v 0.083116 0.000281 0.018677
v 0.083649 -0.000069 0.019043
v 0.084052 -0.000459 0.019210
v 0.085395 -0.000859 0.018960
v 0.085635 -0.000419 0.018672
v 0.083119 0.001391 0.018696
v 0.082895 0.001391 0.018480
v 0.084964 0.000521 0.018975
v 0.085283 0.000461 0.018770
v 0.083178 0.002231 0.018639
v 0.083312 0.002531 0.018600
v 0.083018 0.002151 0.018509
v 0.083082 0.002411 0.018482
v 0.083994 0.001861 0.018973
v 0.083514 0.001821 0.018881
v 0.083520 0.002411 0.018763
v 0.083892 0.002621 0.018742
v 0.083666 0.002711 0.018590
v 0.084444 0.002261 0.018845
v 0.084336 0.002601 0.018759
v 0.084904 0.002431 0.018506
v 0.084607 0.002941 0.018503
v 0.084728 0.002821 0.018520
v 0.082990 -0.022969 0.017806
v 0.083316 -0.023119 0.017658
v 0.083186 -0.022559 0.017477
v 0.084394 -0.023819 0.017835
v 0.083792 -0.023559 0.017737
v 0.084604 -0.023409 0.017521
v 0.083976 -0.023219 0.017467
v 0.085169 -0.023729 0.017814
v 0.082313 -0.021489 0.017835
v 0.082712 -0.022129 0.017662
v 0.082999 -0.021599 0.017300
v 0.085307 -0.023409 0.017627
v 0.085284 -0.022819 0.017335
v 0.085630 -0.023599 0.017868
v 0.082226 -0.020149 0.017900
v 0.082289 -0.020769 0.017726
v 0.082600 -0.020919 0.017462
v 0.085850 -0.022889 0.017573
v 0.086118 -0.022099 0.017482
v 0.086400 -0.022809 0.017962
v 0.082633 -0.020119 0.017489
v 0.086828 -0.021709 0.017956
v 0.086891 -0.020539 0.017777
v 0.086411 -0.020679 0.017424
v 0.082957 -0.017899 0.017978
v 0.083335 -0.018089 0.017562
v 0.083767 -0.018219 0.017328
v 0.086764 -0.019759 0.017647
v 0.086570 -0.018929 0.017629
v 0.083669 -0.016029 0.018071
v 0.086367 -0.016429 0.018251
v 0.084625 -0.014569 0.017707
v 0.085130 -0.015839 0.017690
v 0.084375 -0.013509 0.017502
v 0.085050 -0.014239 0.017592
v 0.086213 -0.014809 0.018182
v 0.085856 -0.014289 0.017806
v 0.083959 -0.012939 0.017612
v 0.086367 -0.013919 0.017936
v 0.083376 -0.011119 0.017939
v 0.083491 -0.011919 0.017877
v 0.083806 -0.011729 0.017550
v 0.086878 -0.013439 0.017961
v 0.086647 -0.012919 0.017588
v 0.083794 -0.011019 0.017518
v 0.086826 -0.011779 0.017499
v 0.083595 -0.009729 0.017620
v 0.083387 -0.008069 0.018084
v 0.083221 -0.006969 0.018201
v 0.082851 -0.004879 0.018292
v 0.083013 -0.004809 0.017852
v 0.083435 -0.005659 0.017605
v 0.087899 -0.007489 0.018224
v 0.083346 -0.004619 0.017414
v 0.087410 -0.005999 0.017492
v 0.082757 -0.002939 0.018215
v 0.082878 -0.003529 0.017769
v 0.087661 -0.005719 0.017913
v 0.082934 -0.002619 0.017562
v 0.082904 -0.000009 0.018369
v 0.083008 0.000101 0.017787
v 0.086451 -0.001419 0.017927
v 0.082833 0.001451 0.018356
v 0.082830 0.001401 0.018145
v 0.082935 0.001961 0.017940
v 0.083137 0.001461 0.017684
v 0.085815 -0.000059 0.018249
v 0.085783 0.000621 0.017736
v 0.082943 0.002201 0.018378
v 0.082993 0.002451 0.018273
v 0.083160 0.002621 0.018289
v 0.082901 0.002221 0.018166
v 0.083010 0.002461 0.018061
v 0.083373 0.002711 0.018060
v 0.083239 0.002451 0.017810
v 0.083573 0.002781 0.018376
v 0.085158 0.001871 0.018384
v 0.084339 0.002951 0.018390
v 0.084121 0.002721 0.017651
v 0.084669 0.003031 0.018379
v 0.084856 0.002851 0.018383
v 0.084781 0.003001 0.018354
v 0.084968 0.002891 0.018038
v 0.084767 0.003081 0.018088
v 0.084749 0.003011 0.017925
v 0.085277 0.001951 0.017577
v 0.083730 -0.022269 0.017130
v 0.084265 -0.022659 0.017146
v 0.084648 -0.022719 0.017179
v 0.083686 -0.020869 0.016855
v 0.084337 -0.021829 0.016893
v 0.083837 -0.021349 0.016860
v 0.085208 -0.022229 0.017138
v 0.083089 -0.019929 0.017206
v 0.083166 -0.020509 0.017085
v 0.083753 -0.020049 0.016877
v 0.084751 -0.021069 0.016815
v 0.084198 -0.020659 0.016742
v 0.084230 -0.019739 0.016825
v 0.084786 -0.020199 0.016822
v 0.085952 -0.019959 0.017199
v 0.085679 -0.020859 0.017065
v 0.084632 -0.012609 0.017161
v 0.084856 -0.012829 0.017135
v 0.085400 -0.013059 0.017166
v 0.084772 -0.011639 0.017068
v 0.084980 -0.012529 0.017067
v 0.085947 -0.013099 0.017319
v 0.085530 -0.012669 0.017112
v 0.084247 -0.011249 0.017224
v 0.085488 -0.011729 0.017080
v 0.083917 -0.010099 0.017268
v 0.084435 -0.009609 0.016890
v 0.085012 -0.009879 0.016789
v 0.084201 -0.009199 0.017011
v 0.084146 -0.007919 0.017200
v 0.084521 -0.008139 0.016891
v 0.085195 -0.008279 0.016646
v 0.085662 -0.008489 0.016684
v 0.086370 -0.007519 0.016815
v 0.087219 -0.007369 0.017334
v 0.084441 -0.005309 0.016775
v 0.083189 -0.003519 0.017333
v 0.086578 -0.004709 0.016835
v 0.083376 -0.002609 0.017104
v 0.084215 -0.001599 0.016678
v 0.085983 -0.001919 0.016663
v 0.086521 -0.002299 0.017042
v 0.085269 0.000001 0.016744
v 0.086060 -0.001059 0.016886
v 0.086556 -0.001649 0.017378
v 0.085800 0.000551 0.017395
v 0.085639 0.000531 0.017137
v 0.086019 -0.000309 0.017151
v 0.084218 0.002411 0.017367
v 0.084892 0.001901 0.017207
v 0.084205 0.001521 0.017089
v 0.084552 0.001911 0.017116
v 0.084544 0.002511 0.017421
v 0.085026 0.002281 0.017515
v 0.085459 -0.005059 0.016468
v 0.085945 -0.004609 0.016496
v 0.085025 -0.001949 0.016438
v 0.084538 -0.001159 0.016552
v 0.084879 -0.000939 0.016530
v 0.085369 -0.001949 0.016450
v 0.085429 -0.001009 0.016572
v 0.084872 -0.006139 0.020620
v 0.085577 -0.006179 0.020338
v 0.085980 -0.006139 0.020281
v 0.086497 -0.006499 0.020074
v 0.086497 -0.006499 0.020074
v 0.086497 -0.006499 0.020074
v 0.084669 0.003031 0.018379
v 0.084767 0.003081 0.018088
v 0.084767 0.003081 0.018088
vn 0.2312 -0.2771 0.9326
vn 0.0774 -0.0967 0.9923
vn 0.0092 -0.1565 0.9876
vn -0.0788 0.0550 0.9954
vn -0.1920 -0.0543 0.9799
vn -0.2802 0.1791 0.9431
vn -0.0450 0.1808 0.9825
vn 0.3061 -0.1719 0.9363
vn 0.2750 -0.0076 0.9614
vn 0.1212 0.1006 0.9875
vn -0.2775 -0.4991 0.8209
vn -0.4886 -0.2590 0.8332
vn -0.5905 -0.3922 0.7053
vn -0.2314 -0.3001 0.9254
vn -0.7082 -0.2205 0.6707
vn -0.5150 -0.0987 0.8515
vn -0.0447 -0.4798 0.8763
vn -0.0866 -0.6312 0.7708
vn -0.0197 -0.3288 0.9442
vn -0.4361 -0.5587 0.7055
vn 0.0617 -0.5238 0.8496
vn -0.7202 0.0274 0.6932
vn 0.1851 -0.4595 0.8687
vn -0.4096 0.0784 0.9089
vn -0.5672 0.2072 0.7971
vn -0.7798 0.1691 0.6028
vn 0.1061 -0.3353 0.9361
vn 0.3208 -0.4055 0.8559
vn -0.5982 0.2466 0.7624
vn 0.4694 -0.3359 0.8166
vn 0.5097 -0.4666 0.7228
vn 0.6441 -0.4137 0.6434
vn 0.4925 0.0137 0.8702
vn 0.5042 -0.1507 0.8503
vn 0.6332 -0.2751 0.7234
vn 0.7022 -0.1020 0.7047
vn -0.0644 0.2383 0.9691
vn -0.3866 0.2395 0.8906
vn 0.2321 0.2057 0.9507
vn 0.3537 0.1250 0.9270
vn 0.6149 0.0604 0.7863
vn 0.7566 0.0657 0.6506
vn 0.7114 0.1474 0.6872
vn 0.5084 0.1557 0.8469
vn -0.6843 -0.6458 0.3385
vn -0.4731 -0.8067 0.3541
vn -0.5938 -0.7724 -0.2255
vn -0.4770 -0.8611 0.1759
vn -0.2643 -0.7308 0.6294
vn -0.5503 -0.7788 -0.3012
vn -0.2912 -0.8350 0.4670
vn -0.5453 -0.8375 -0.0363
vn -0.6736 -0.6513 -0.3493
vn 0.0194 -0.6866 0.7268
vn -0.0323 -0.8470 0.5306
vn -0.3011 -0.9271 0.2234
vn -0.8650 -0.4157 0.2811
vn -0.8486 -0.1897 0.4939
vn -0.8521 -0.1639 0.4971
vn -0.8006 -0.3757 0.4668
vn -0.8511 -0.4965 0.1705
vn -0.4310 -0.7603 -0.4860
vn -0.6323 -0.6488 -0.4233
vn 0.2117 -0.5778 0.7883
vn 0.1712 -0.7618 0.6248
vn 0.3598 -0.6836 0.6350
vn 0.4157 -0.5277 0.7407
vn 0.5527 -0.5790 0.5994
vn 0.6521 -0.5033 0.5669
vn 0.7496 -0.4344 0.4994
vn -0.8552 0.0602 0.5148
vn 0.7552 -0.3388 0.5611
vn 0.8306 -0.3955 0.3921
vn -0.8180 0.2396 0.5229
vn 0.8309 -0.1901 0.5229
vn 0.8732 -0.2895 0.3921
vn 0.9230 -0.1505 0.3542
vn 0.8559 -0.0431 0.5154
vn -0.6436 0.2576 0.7207
vn 0.8216 0.0983 0.5616
vn 0.8529 0.1503 0.5000
vn 0.7112 0.1420 0.6885
vn 0.8373 0.1431 0.5276
vn -0.1935 0.2107 0.9582
vn -0.5013 0.1701 0.8484
vn 0.1685 0.2306 0.9584
vn 0.3978 0.2282 0.8886
vn 0.6515 0.1874 0.7351
vn 0.5005 0.2080 0.8404
vn -0.2895 0.0987 0.9521
vn 0.0057 0.1233 0.9923
vn -0.4986 0.0290 0.8664
vn -0.3573 0.0166 0.9339
vn 0.4187 0.0863 0.9040
vn -0.1463 0.0622 0.9873
vn 0.1488 0.0757 0.9860
vn -0.6733 -0.7223 -0.1581
vn -0.7780 -0.5837 -0.2326
vn -0.4638 -0.8795 -0.1065
vn -0.2989 -0.9520 -0.0657
vn -0.3479 -0.8883 -0.2997
vn -0.0313 -0.9588 0.2824
vn 0.0364 -0.9992 0.0165
vn 0.2462 -0.8981 0.3645
vn -0.7202 -0.6937 -0.0091
vn -0.4891 -0.8146 -0.3116
vn -0.7943 -0.5076 0.3338
vn -0.3418 -0.8746 -0.3440
vn -0.5138 -0.8204 -0.2509
vn -0.8124 -0.5682 -0.1306
vn 0.4806 -0.7753 0.4098
vn 0.2833 -0.9583 -0.0373
vn 0.5429 -0.8209 0.1772
vn -0.8965 -0.2184 0.3855
vn 0.6584 -0.5968 0.4587
vn 0.7493 -0.5187 0.4118
vn 0.6653 -0.6832 0.3010
vn 0.9606 -0.0333 0.2761
vn -0.7404 0.3007 0.6011
vn 0.9171 0.0253 0.3979
vn 0.9844 0.0574 0.1666
vn -0.8173 0.2766 0.5055
vn 0.9290 0.1076 0.3542
vn 0.9798 0.1479 0.1343
vn 0.9365 0.1408 0.3213
vn -0.6842 0.1055 0.7217
vn -0.8588 0.0785 0.5062
vn 0.9617 0.0959 0.2568
vn -0.6255 0.0110 0.7802
vn 0.8533 0.1434 0.5013
vn 0.6931 0.2242 0.6851
vn 0.9732 0.0631 0.2213
vn 0.6357 0.1920 0.7477
vn 0.8125 0.1133 0.5718
vn 0.9376 0.0849 0.3371
vn -0.3852 0.0683 0.9203
vn -0.7213 0.0988 0.6856
vn -0.5493 0.1296 0.8255
vn 0.1225 0.1304 0.9839
vn 0.6295 0.0145 0.7769
vn -0.5268 0.1606 0.8347
vn -0.3675 0.1644 0.9154
vn -0.7341 0.1818 0.6543
vn -0.1766 0.1283 0.9759
vn 0.6210 0.0120 0.7837
vn 0.0415 0.1249 0.9913
vn 0.5056 0.0722 0.8597
vn 0.7373 0.0861 0.6700
vn 0.8537 0.0684 0.5162
vn -0.7701 0.0692 0.6342
vn -0.2622 0.1611 0.9515
vn 0.3986 0.1579 0.9034
vn 0.6227 0.1418 0.7695
vn 0.8286 0.1388 0.5423
vn -0.7201 0.0564 0.6916
vn 0.6909 0.2086 0.6922
vn -0.0563 0.2089 0.9763
vn 0.1847 0.1907 0.9641
vn -0.5986 -0.7728 -0.2109
vn -0.1283 -0.9558 -0.2644
vn -0.6623 -0.7397 0.1191
vn -0.7999 -0.5537 0.2316
vn -0.7240 -0.6705 0.1618
vn -0.9211 -0.3653 0.1344
vn -0.5667 -0.8194 -0.0861
vn -0.5241 -0.8430 0.1210
vn -0.3770 -0.9191 -0.1148
vn -0.2051 -0.9704 -0.1273
vn -0.3790 -0.9221 -0.0782
vn -0.4646 -0.8816 -0.0837
vn -0.2464 -0.9551 -0.1644
vn -0.3516 -0.9116 -0.2129
vn -0.3116 -0.9502 0.0054
vn -0.7077 -0.6529 -0.2700
vn -0.6465 -0.6577 -0.3866
vn -0.0835 -0.8648 -0.4951
vn -0.1503 -0.8272 -0.5414
vn 0.0902 -0.7653 -0.6374
vn 0.1468 -0.8993 -0.4119
vn 0.0432 -0.6735 -0.7379
vn 0.4045 -0.8823 -0.2408
vn 0.6039 -0.7971 0.0010
vn 0.1765 -0.7824 -0.5973
vn -0.9306 0.0320 0.3647
vn -0.8968 0.1722 0.4076
vn -0.9719 -0.1146 0.2057
vn -0.9689 0.0921 0.2296
vn 0.7232 -0.6618 0.1973
vn 0.4321 -0.8389 -0.3309
vn 0.5925 -0.7955 -0.1272
vn 0.7737 -0.6116 0.1653
vn 0.8588 -0.4478 0.2489
vn 0.8967 -0.4426 -0.0036
vn 0.9319 -0.3022 0.2008
vn 0.9593 -0.2764 0.0586
vn -0.9276 0.2552 0.2726
vn -0.8497 0.2980 0.4350
vn 0.9694 -0.1832 0.1631
vn 0.9896 -0.1352 -0.0489
vn 0.9772 -0.1088 -0.1821
vn 0.9960 -0.0378 0.0815
vn 0.9927 -0.0334 -0.1155
vn 0.9946 0.0586 -0.0854
vn -0.9768 0.0506 0.2080
vn -0.9078 0.2656 0.3245
vn 0.9862 0.1588 -0.0463
vn 0.9493 0.1454 -0.2789
vn 0.9793 0.1295 -0.1554
vn -0.8791 0.0439 0.4747
vn -0.9191 0.0760 0.3865
vn 0.9991 -0.0364 0.0214
vn 0.9489 -0.0175 -0.3152
vn -0.8828 0.0598 0.4659
vn -0.9415 0.1479 0.3029
vn -0.8276 0.1760 0.5330
vn 0.8982 0.0732 0.4335
vn -0.9504 0.1147 0.2890
vn -0.9700 0.1948 0.1456
vn -0.8642 0.0429 0.5014
vn 0.8918 0.1729 0.4181
vn 0.9342 0.0806 0.3475
vn 0.8756 0.2328 0.4232
vn -0.3821 0.1383 0.9137
vn 0.2629 0.2744 0.9250
vn 0.4765 0.2355 0.8471
vn -0.1595 0.2072 0.9652
vn 0.1147 0.2560 0.9599
vn -0.5252 0.1061 0.8443
vn 0.7248 0.2909 0.6245
vn 0.4595 0.3215 0.8280
vn -0.4538 -0.8412 0.2941
vn -0.7176 -0.6480 0.2554
vn -0.9097 -0.3952 0.1278
vn -0.6771 -0.6853 0.2682
vn -0.1007 -0.9613 0.2565
vn -0.1991 -0.9358 -0.2909
vn -0.1992 -0.9382 -0.2830
vn -0.0924 -0.9912 -0.0945
vn -0.1950 -0.9674 -0.1614
vn -0.2937 -0.9332 -0.2070
vn -0.3545 -0.9252 -0.1353
vn -0.3812 -0.7892 -0.4816
vn -0.8271 -0.4944 -0.2673
vn -0.7254 -0.4790 -0.4943
vn -0.4779 -0.6204 -0.6219
vn -0.7364 -0.4289 -0.5232
vn -0.2135 -0.7111 -0.6699
vn -0.1866 -0.7317 -0.6556
vn 0.1954 -0.6221 -0.7581
vn 0.0547 -0.6245 -0.7791
vn -0.9894 -0.1295 0.0653
vn -0.0002 -0.6915 -0.7223
vn 0.0587 -0.6387 -0.7672
vn -0.2295 -0.7809 -0.5810
vn -0.2801 -0.8676 -0.4108
vn -0.1456 -0.8583 -0.4921
vn 0.2527 -0.8705 -0.4224
vn -0.0396 -0.7650 -0.6428
vn 0.2062 -0.8850 -0.4174
vn -0.1888 -0.8162 -0.5460
vn 0.6878 -0.7047 -0.1740
vn 0.4621 -0.7695 -0.4408
vn 0.8913 -0.3677 -0.2654
vn -0.9034 0.3352 0.2675
vn 0.9687 0.0255 -0.2470
vn 0.8965 0.1953 -0.3976
vn -0.9630 0.1204 0.2412
vn -0.9309 0.1139 0.3472
vn 0.9685 -0.1683 -0.1836
vn -0.9418 0.1496 0.3011
vn 0.9979 0.0186 0.0620
vn -0.9699 0.2100 0.1234
vn -0.9758 0.1957 0.0979
vn 0.9600 0.0494 0.2756
vn 0.9873 0.0901 0.1312
vn 0.9806 0.0746 0.1811
vn 0.9721 0.1516 0.1788
vn -0.9957 0.0924 -0.0022
vn -0.9502 -0.0371 0.3093
vn 0.9468 0.2258 0.2291
vn 0.9736 0.2186 -0.0655
vn -0.9967 -0.0094 -0.0808
vn -0.9951 -0.0906 0.0390
vn -0.9825 -0.0631 -0.1753
vn -0.9523 -0.0791 0.2949
vn -0.9921 -0.1215 -0.0304
vn -0.8780 0.0088 0.4785
vn -0.5931 0.1494 0.7911
vn 0.0727 0.2051 0.9760
vn -0.1253 0.1439 0.9816
vn 0.7644 0.3858 0.5166
vn 0.8837 0.3552 0.3050
vn 0.9346 0.2409 0.2617
vn -0.1703 0.2002 0.9648
vn 0.1851 0.2725 0.9442
vn 0.1511 0.4793 0.8645
vn -0.8382 -0.5400 0.0767
vn -0.3142 -0.8408 0.4408
vn -0.0194 -0.9733 0.2287
vn -0.2030 -0.9496 0.2390
vn -0.3097 -0.9426 0.1247
vn 0.0022 -0.8655 0.5009
vn -0.1450 -0.9372 0.3173
vn 0.0099 -0.8917 0.4526
vn -0.1262 -0.7995 0.5873
vn -0.0711 -0.9491 0.3068
vn 0.0689 -0.8115 0.5803
vn -0.5268 -0.6938 -0.4911
vn -0.3220 -0.9232 -0.2097
vn 0.0033 -0.9820 -0.1889
vn 0.2097 -0.8127 -0.5437
vn 0.0983 -0.6290 -0.7711
vn 0.2058 -0.9029 0.3774
vn 0.1847 -0.6661 -0.7226
vn -0.0633 -0.8257 -0.5606
vn 0.1781 -0.9510 -0.2529
vn -0.2166 -0.9646 -0.1503
vn -0.1521 -0.9882 0.0173
vn -0.0515 -0.9454 -0.3219
vn 0.2226 -0.7682 -0.6003
vn 0.6312 -0.5743 -0.5213
vn 0.9476 -0.0831 -0.3084
vn -0.9325 0.3234 0.1610
vn -0.9587 0.2846 -0.0023
vn -0.9712 0.1782 0.1580
vn -0.9937 0.1109 -0.0166
vn 0.8602 0.2406 -0.4497
vn 0.9002 0.1316 -0.4152
vn 0.7883 0.2672 -0.5542
vn -0.9640 -0.0053 0.2658
vn 0.8128 0.0595 -0.5795
vn 0.8569 -0.2575 -0.4465
vn -0.9848 0.0780 0.1551
vn 0.8917 -0.2788 -0.3567
vn 0.9779 -0.1409 -0.1544
vn -0.8918 0.1506 0.4266
vn -0.9457 0.2123 0.2460
vn -0.8505 0.2147 0.4802
vn -0.8642 0.2031 0.4603
vn -0.9491 0.1894 0.2516
vn -0.9285 0.2651 0.2599
vn 0.9881 0.0961 -0.1203
vn -0.9638 0.2606 0.0561
vn -0.8180 0.3234 0.4758
vn -0.8996 0.4296 -0.0779
vn -0.8566 0.4424 0.2656
vn -0.9458 0.1498 -0.2882
vn -0.7908 0.2024 0.5777
vn -0.6709 0.5857 0.4548
vn -0.7191 0.6906 0.0776
vn 0.9904 0.1382 -0.0085
vn -0.7429 0.5221 -0.4189
vn -0.6775 0.0731 -0.7319
vn 0.9492 0.2037 -0.2400
vn -0.9331 0.0093 -0.3595
vn -0.6886 -0.0579 -0.7229
vn 0.9470 0.2395 -0.2141
vn -0.8916 -0.0925 -0.4433
vn -0.9498 -0.1512 -0.2739
vn -0.9949 -0.0997 0.0130
vn -0.8996 -0.1295 -0.4172
vn -0.9107 0.1502 0.3849
vn -0.9962 0.0088 0.0867
vn -0.9673 -0.0149 -0.2533
vn 0.9437 0.3307 0.0041
vn 0.9424 0.2086 -0.2615
vn 0.9771 0.2096 -0.0371
vn -0.9901 0.1371 -0.0316
vn -0.9246 0.1424 -0.3533
vn 0.9138 0.3762 0.1532
vn 0.9373 0.3485 0.0030
vn -0.6416 0.4698 0.6064
vn -0.8388 0.4795 0.2578
vn -0.9363 0.3175 -0.1501
vn -0.8656 -0.0441 -0.4987
vn 0.5741 0.3854 0.7224
vn 0.8970 0.3938 0.2007
vn -0.3251 0.3822 0.8650
vn -0.2292 0.7064 0.6697
vn -0.4895 0.8198 0.2971
vn -0.1465 0.9341 0.3256
vn 0.1192 0.8253 0.5520
vn 0.1124 0.9772 0.1800
vn -0.7453 0.6635 -0.0656
vn -0.4663 0.8789 -0.1004
vn -0.1654 0.9858 0.0277
vn -0.7662 0.5253 -0.3702
vn -0.3279 0.9187 -0.2204
vn 0.4572 0.6295 0.6283
vn 0.7410 0.5370 0.4033
vn 0.4512 0.8259 0.3381
vn 0.0435 0.9958 -0.0804
vn 0.4223 0.8907 0.1685
vn -0.6661 -0.7436 0.0585
vn -0.4273 -0.8344 0.3481
vn -0.1457 -0.8384 0.5253
vn -0.2383 -0.9149 0.3257
vn 0.1619 -0.8354 0.5252
vn 0.0735 -0.9294 0.3617
vn -0.9487 -0.3161 -0.0039
vn -0.9785 -0.1487 -0.1432
vn -0.9417 -0.2841 -0.1803
vn -0.9957 -0.0574 -0.0723
vn 0.3263 -0.9442 -0.0450
vn 0.2928 -0.9419 0.1645
vn 0.3122 -0.8687 0.3845
vn 0.2159 -0.9040 0.3691
vn -0.9928 0.1080 0.0514
vn -0.9799 0.1279 -0.1532
vn -0.9745 -0.0393 -0.2209
vn -0.0141 -0.9870 0.1603
vn 0.0786 -0.9709 0.2261
vn 0.0822 -0.9965 -0.0125
vn 0.3056 -0.8186 -0.4863
vn 0.4813 -0.8226 -0.3028
vn 0.5533 -0.6424 -0.5303
vn 0.6191 -0.4726 -0.6272
vn -0.9466 0.3225 0.0017
vn -0.9366 0.2678 -0.2260
vn 0.7906 -0.3604 -0.4951
vn 0.8690 -0.1710 -0.4643
vn -0.8943 0.3394 -0.2917
vn 0.7375 -0.2410 -0.6309
vn 0.9156 0.0148 -0.4018
vn 0.8366 0.0400 -0.5463
vn 0.7814 0.2402 -0.5760
vn -0.9841 -0.1024 -0.1450
vn -0.9149 -0.1146 -0.3870
vn 0.7621 0.0031 -0.6474
vn 0.6348 0.2198 -0.7408
vn -0.9933 -0.1046 -0.0492
vn -0.9229 -0.1357 -0.3603
vn 0.7232 -0.3980 -0.5644
vn 0.7799 -0.1731 -0.6015
vn -0.9951 -0.0088 -0.0982
vn 0.7856 -0.4031 -0.4694
vn 0.9188 -0.1800 -0.3514
vn -0.9967 0.0803 -0.0134
vn -0.9950 0.0203 0.0979
vn -0.7943 0.2109 0.5697
vn 0.9844 -0.0078 -0.1759
vn -0.7160 0.1649 0.6783
vn -0.5798 0.3367 0.7419
vn -0.4197 0.8428 0.3369
vn -0.4312 0.7145 0.5510
vn -0.1068 0.9364 0.3343
vn -0.6176 0.4697 0.6309
vn -0.1444 0.8060 0.5741
vn -0.3639 0.5674 0.7387
vn -0.3759 0.3517 0.8573
vn -0.0603 0.5390 0.8402
vn -0.1627 0.2519 0.9540
vn -0.5119 0.8406 -0.1768
vn -0.3074 0.7218 -0.6201
vn -0.2182 0.9193 -0.3275
vn -0.4847 0.1650 -0.8590
vn -0.3967 0.0320 -0.9174
vn 0.2067 0.5473 0.8110
vn -0.1278 0.8478 -0.5146
vn -0.2805 0.0347 -0.9592
vn 0.1230 0.9921 -0.0243
vn 0.1318 0.9177 -0.3749
vn 0.3525 0.6193 0.7016
vn 0.4710 0.8000 0.3716
vn 0.2870 0.9354 0.2066
vn 0.1848 0.9640 -0.1909
vn 0.9198 0.0881 -0.3824
vn -0.4396 -0.0629 -0.8960
vn -0.2727 0.1825 -0.9446
vn -0.2204 0.0842 -0.9718
vn -0.3210 0.0648 -0.9448
vn -0.0106 0.6905 -0.7233
vn 0.1449 0.6413 -0.7534
vn -0.3124 0.2091 -0.9266
vn -0.3251 0.0114 -0.9456
vn -0.3115 0.4500 -0.8369
vn 0.8543 0.3419 -0.3915
vn 0.8045 0.3490 -0.4807
vn 0.7855 0.2587 -0.5623
vn 0.6546 0.3904 -0.6474
vn 0.4709 0.1260 -0.8731
vn 0.5515 0.3341 -0.7643
vn 0.9110 0.2358 -0.3382
vn 0.8520 0.1622 -0.4977
vn 0.6226 0.1580 -0.7664
vn -0.7988 -0.1092 -0.5916
vn -0.5532 -0.1193 -0.8245
vn -0.3608 -0.0444 -0.9316
vn -0.3292 -0.0182 -0.9441
vn -0.2007 -0.1674 -0.9653
vn 0.8198 0.1566 -0.5508
vn 0.9162 0.2761 -0.2904
vn -0.7578 -0.0465 -0.6508
vn -0.8196 0.2158 -0.5307
vn 0.9356 0.3353 -0.1102
vn 0.8501 0.2790 -0.4467
vn -0.6401 0.6347 -0.4330
vn -0.4117 0.7896 -0.4550
vn -0.6364 0.5119 -0.5771
vn -0.6649 0.1948 -0.7211
vn -0.0752 0.9424 -0.3259
vn 0.8396 0.5283 0.1263
vn 0.9153 0.3941 -0.0825
vn 0.6314 0.7733 0.0581
vn 0.7408 0.6315 -0.2291
vn 0.3671 0.9145 -0.1701
vn 0.8505 0.3713 -0.3724
vn -0.8604 -0.4855 -0.1550
vn -0.7038 -0.6604 -0.2618
vn -0.7997 -0.4635 -0.3816
vn -0.8598 -0.3484 -0.3732
vn -0.4595 -0.8829 0.0963
vn -0.5108 -0.8388 -0.1885
vn -0.1796 -0.9812 0.0703
vn 0.1361 -0.9779 0.1590
vn -0.9208 -0.1923 -0.3395
vn 0.3660 -0.8468 0.3859
vn 0.3258 -0.8797 0.3464
vn -0.9439 -0.0279 -0.3292
vn 0.4229 -0.8806 0.2139
vn 0.6188 -0.7805 -0.0892
vn 0.3873 -0.9177 0.0890
vn -0.9364 0.0989 -0.3368
vn -0.8660 0.0490 -0.4977
vn 0.6874 -0.5224 -0.5045
vn -0.8544 0.2383 -0.4618
vn 0.6087 -0.4204 -0.6729
vn 0.6790 -0.2864 -0.6760
vn 0.7415 -0.1064 -0.6624
vn 0.7320 0.1105 -0.6723
vn -0.9275 0.2608 -0.2677
vn -0.9606 0.1106 -0.2549
vn -0.8336 0.1166 -0.5399
vn 0.7680 0.0395 -0.6392
vn 0.6072 -0.2361 -0.7587
vn -0.9898 0.0844 -0.1149
vn -0.9501 0.0284 -0.3107
vn -0.9330 -0.0240 -0.3591
vn 0.5887 -0.4581 -0.6660
vn 0.6189 -0.4479 -0.6453
vn 0.7763 -0.2576 -0.5753
vn 0.8798 -0.0583 -0.4717
vn -0.9587 -0.0457 -0.2807
vn -0.9977 -0.0678 -0.0081
vn -0.9435 0.0407 0.3288
vn -0.6216 0.1253 0.7733
vn 0.9132 0.0854 -0.3986
vn -0.9226 0.0084 0.3858
vn -0.7326 0.1149 0.6709
vn 0.1353 0.2563 0.9571
vn 0.4931 0.3843 0.7805
vn 0.3914 0.5642 0.7270
vn 0.0972 0.9940 0.0499
vn 0.0305 0.9569 -0.2888
vn 0.9309 0.2016 -0.3045
vn -0.3626 0.1442 0.9207
vn -0.1272 0.1184 0.9848
vn 0.2957 0.1802 0.9381
vn 0.3688 0.1962 0.9085
vn 0.1828 0.6893 0.7010
vn 0.2203 0.3869 0.8954
vn 0.3412 0.1753 0.9235
vn 0.2332 0.3528 0.9062
vn 0.5344 0.2473 0.8082
vn -0.0937 0.0822 -0.9922
vn -0.3176 0.7036 -0.6356
vn -0.2448 0.3564 -0.9017
vn -0.0696 0.7283 -0.6817
vn -0.0788 0.3298 -0.9407
vn 0.1193 0.4306 -0.8946
vn 0.1551 0.8150 -0.5584
vn 0.2504 0.2286 -0.9408
vn 0.2200 0.0605 -0.9736
vn 0.4540 0.6868 -0.5676
vn 0.1652 0.9074 0.3865
vn 0.3738 0.9175 0.1361
vn 0.3350 0.5072 0.7941
vn 0.6059 0.4844 0.6311
vn 0.6616 0.5123 -0.5475
vn 0.4310 0.4776 -0.7656
vn 0.8356 0.4495 -0.3157
vn 0.6083 0.7502 -0.2591
vn 0.9186 0.3951 -0.0084
vn 0.6600 0.7361 0.1504
vn -0.4248 0.0823 0.9015
vn 0.3949 0.0983 -0.9134
vn -0.1635 -0.0595 -0.9847
vn 0.6469 0.2212 0.7298
vn -0.1529 0.0645 -0.9861
vn 0.1751 0.0654 -0.9824
vn 0.4551 0.1045 -0.8843
vn -0.0326 0.0514 -0.9981
vn -0.3384 -0.1969 -0.9202
vn 0.1755 -0.0702 -0.9820
vn 0.5378 0.0585 -0.8410
vn -0.5153 -0.1167 -0.8490
vn 0.6353 0.1419 -0.7591
vn 0.3020 0.0200 -0.9531
vn -0.0400 -0.1162 -0.9924
vn -0.5058 0.0403 -0.8617
vn -0.0901 -0.0186 -0.9958
vn -0.3029 0.1681 -0.9381
vn 0.7187 0.2876 -0.6330
vn 0.4033 0.1525 -0.9023
vn -0.2551 0.7412 -0.6209
vn -0.4843 0.3844 -0.7859
vn -0.1309 0.5070 -0.8520
vn 0.1470 0.6984 -0.7005
vn 0.6375 0.5625 -0.5264
vn 0.2909 0.8449 -0.4490
vn 0.4356 0.4191 -0.7966
vn 0.0666 0.2592 -0.9635
vn -0.6971 -0.5431 -0.4681
vn -0.7339 -0.3971 -0.5511
vn -0.5511 -0.7323 -0.4001
vn -0.2549 -0.9371 -0.2386
vn -0.5566 -0.5801 -0.5948
vn -0.4101 -0.7295 -0.5474
vn -0.6086 -0.4045 -0.6826
vn 0.0612 -0.9894 -0.1319
vn -0.2067 -0.7920 -0.5745
vn 0.0016 -0.8759 -0.4826
vn 0.1655 -0.9033 -0.3958
vn -0.8013 -0.2683 -0.5348
vn 0.2525 -0.9661 0.0540
vn 0.4444 -0.8927 0.0747
vn 0.3204 -0.8817 -0.3463
vn -0.0319 -0.6854 -0.7275
vn 0.1702 -0.6828 -0.7105
vn 0.4856 -0.7819 -0.3909
vn 0.3831 -0.5955 -0.7061
vn -0.8622 -0.1077 -0.4949
vn -0.7208 -0.1916 -0.6661
vn -0.6452 -0.2762 -0.7123
vn 0.6284 -0.7737 -0.0809
vn 0.6385 -0.5752 -0.5113
vn 0.6492 -0.3602 -0.6700
vn 0.4532 -0.3561 -0.8172
vn -0.7606 0.1772 -0.6246
vn -0.7315 -0.0076 -0.6818
vn 0.6607 -0.2086 -0.7211
vn -0.7805 0.2975 -0.5498
vn -0.6900 0.2690 -0.6720
vn 0.6518 -0.0797 -0.7542
vn -0.5377 0.1986 -0.8194
vn -0.8116 0.2512 -0.5274
vn -0.6712 -0.0390 -0.7403
vn -0.7754 -0.1089 -0.6220
vn 0.5830 -0.0212 -0.8122
vn 0.1239 0.0753 -0.9894
vn 0.4919 -0.3809 -0.7829
vn 0.4948 -0.4207 -0.7604
vn 0.5954 -0.2848 -0.7513
vn 0.7070 -0.1263 -0.6959
vn 0.4796 -0.1042 -0.8713
vn 0.7514 -0.0291 -0.6592
vn -0.9499 -0.1089 -0.2928
vn -0.8194 0.0255 -0.5726
vn -0.8377 -0.0075 -0.5461
vn -0.8428 -0.1233 -0.5240
vn -0.9983 -0.0445 0.0382
vn -0.9680 -0.0985 -0.2310
vn 0.8940 0.0423 -0.4460
vn 0.9594 0.1639 -0.2295
vn -0.9613 0.0344 0.2733
vn -0.9954 0.0036 -0.0955
vn 0.8539 0.3978 0.3355
vn 0.7921 0.2856 0.5394
vn 0.9811 0.1776 -0.0770
vn 0.9618 0.2235 0.1577
vn 0.9373 0.2643 0.2270
vn -0.6795 0.1395 0.7203
vn -0.6958 0.0056 0.7182
vn -0.9796 0.0222 0.1996
vn 0.5027 0.1686 0.8479
vn 0.6956 0.2315 0.6801
vn -0.5940 0.0435 0.8033
vn -0.3450 0.1215 0.9307
vn -0.8088 0.0257 0.5875
vn -0.9678 0.0456 0.2474
vn 0.3947 0.1740 0.9022
vn 0.8435 0.2820 0.4572
vn -0.7522 0.1604 0.6391
vn -0.5615 0.2111 0.8001
vn -0.8990 0.2140 0.3821
vn 0.6478 0.2089 0.7326
vn 0.8281 0.2455 0.5039
vn -0.2912 0.3600 0.8863
vn -0.6948 0.4426 0.5669
vn -0.4620 0.5901 0.6621
vn -0.5670 0.8071 0.1644
vn -0.2636 0.7682 0.5834
vn -0.3039 0.9314 0.2004
vn -0.0278 0.1662 0.9857
vn -0.1146 0.5490 0.8279
vn 0.1229 0.4214 0.8985
vn 0.2877 0.2334 0.9288
vn 0.4951 0.3774 0.7826
vn 0.6885 0.2349 0.6862
vn 0.1170 0.6851 0.7190
vn -0.2217 0.9284 0.2982
vn -0.2211 0.9451 0.2408
vn 0.7776 0.3701 0.5083
vn 0.3277 0.7841 0.5271
vn 0.5618 0.6952 0.4483
vn -0.2728 -0.5873 -0.7620
vn -0.4271 -0.4614 -0.7776
vn -0.4733 -0.3173 -0.8218
vn -0.1953 -0.4780 -0.8564
vn 0.0228 -0.5288 -0.8484
vn 0.2307 -0.4870 -0.8424
vn -0.6035 -0.0667 -0.7946
vn -0.5128 -0.1823 -0.8389
vn -0.3028 -0.2907 -0.9076
vn -0.0965 -0.3654 -0.9259
vn 0.0961 -0.3613 -0.9275
vn 0.2512 -0.3493 -0.9027
vn 0.2675 -0.2247 -0.9370
vn -0.6379 0.1560 -0.7541
vn -0.4783 0.0244 -0.8779
vn 0.5070 -0.2111 -0.8357
vn 0.3612 -0.0638 -0.9303
vn -0.4984 0.1794 -0.8482
vn -0.5279 0.2619 -0.8079
vn 0.5305 -0.0733 -0.8445
vn 0.5891 0.0556 -0.8061
vn -0.3074 0.2545 -0.9169
vn 0.3734 0.0898 -0.9233
vn 0.5279 0.1828 -0.8294
vn -0.3011 -0.1187 -0.9462
vn -0.3895 -0.2584 -0.8840
vn -0.6019 -0.1608 -0.7822
vn 0.0241 -0.2170 -0.9759
vn 0.3851 -0.2717 -0.8820
vn 0.3353 -0.2783 -0.9000
vn -0.6168 -0.0830 -0.7827
vn -0.4712 -0.1071 -0.8755
vn -0.3741 -0.1319 -0.9179
vn -0.8200 -0.0226 -0.5720
vn -0.6447 -0.0891 -0.7592
vn 0.4679 -0.2466 -0.8487
vn -0.6433 -0.0616 -0.7631
vn -0.6985 -0.0039 -0.7156
vn 0.6605 -0.0384 -0.7498
vn -0.8466 -0.1494 -0.5109
vn -0.6911 -0.1492 -0.7072
vn -0.4360 -0.0718 -0.8971
vn -0.6615 -0.1630 -0.7320
vn 0.7519 0.0340 -0.6584
vn -0.9135 -0.0750 -0.3998
vn -0.6846 -0.1032 -0.7216
vn 0.9425 0.1514 -0.2979
vn -0.8685 0.0219 -0.4952
vn 0.5791 0.0337 -0.8146
vn 0.7618 0.1468 -0.6310
vn -0.5825 0.0043 -0.8128
vn -0.8647 0.0113 -0.5022
vn 0.9151 0.2981 0.2715
vn 0.9305 0.2708 -0.2465
vn -0.9785 0.0063 -0.2063
vn -0.6308 0.0849 -0.7713
vn -0.4412 0.0286 -0.8969
vn 0.9361 0.3189 0.1485
vn -0.9705 0.2270 -0.0817
vn -0.8257 0.1362 -0.5473
vn -0.7649 0.5376 -0.3547
vn 0.8938 0.3524 -0.2773
vn 0.8286 0.5498 -0.1060
vn -0.8333 0.5199 0.1876
vn -0.3823 0.8763 -0.2932
vn -0.5128 0.4735 -0.7161
vn -0.2091 0.7542 -0.6225
vn -0.2068 0.4749 -0.8554
vn -0.3236 0.1892 -0.9271
vn 0.8243 0.3939 -0.4067
vn -0.2440 0.9565 -0.1596
vn 0.2175 0.8124 -0.5411
vn 0.6289 0.7530 0.1934
vn 0.5865 0.7187 -0.3734
vn 0.5824 0.4868 -0.6510
vn 0.1552 0.5838 -0.7969
vn -0.0020 -0.2229 -0.9748
vn -0.2514 -0.1632 -0.9540
vn -0.3297 -0.0481 -0.9428
vn -0.0524 -0.0045 -0.9986
vn 0.1761 -0.0951 -0.9798
vn -0.3021 0.1390 -0.9431
vn -0.0598 0.1784 -0.9821
vn 0.1912 0.0878 -0.9776
vn -0.1886 -0.2358 -0.9533
vn 0.0980 -0.2827 -0.9542
vn -0.0818 -0.0897 -0.9926
vn 0.1954 -0.1069 -0.9749
vn -0.1767 -0.0815 -0.9809
vn 0.1604 -0.0762 -0.9841
vn -0.0626 -0.1142 -0.9915
vn -0.5927 0.0302 -0.8048
vn -0.3791 -0.0689 -0.9228
vn -0.4796 0.0078 -0.8774
vn -0.1356 -0.0483 -0.9896
vn 0.1859 -0.0949 -0.9780
vn -0.0677 -0.0501 -0.9964
vn 0.3958 -0.0615 -0.9163
vn 0.2824 -0.0061 -0.9593
vn 0.4831 0.1082 -0.8688
vn 0.6463 0.2222 -0.7300
vn -0.0358 0.1488 -0.9882
vn 0.0199 0.3306 -0.9436
vn 0.2802 0.2408 -0.9292
vn 0.6413 0.3271 -0.6941
vn 0.8036 0.3026 -0.5125
vn 0.4112 0.3750 -0.8308
vn 0.1728 0.0619 -0.9830
vn -0.1233 0.0078 -0.9923
vn -0.3044 0.0831 -0.9489
vn 0.2742 0.1718 -0.9462
s 1
usemtl mtl1.140
f 19//1 1//2 18//3
f 18//3 2//4 13//5
f 18//3 1//2 2//4
f 24//6 2//4 25//7
f 21//8 26//9 1//2
f 25//7 2//4 3//10
f 1//2 26//9 3//10
f 2//4 1//2 3//10
f 8//11 4//12 42//13
f 6//14 4//12 8//11
f 4//12 5//15 42//13
f 10//16 5//15 4//12
f 8//11 7//17 6//14
f 8//11 48//18 7//17
f 11//19 7//17 48//18
f 8//11 42//13 45//20
f 48//18 47//21 11//19
f 10//16 9//22 5//15
f 10//16 6//14 13//5
f 10//16 4//12 6//14
f 6//14 11//19 13//5
f 7//17 11//19 6//14
f 11//19 47//21 12//23
f 14//24 17//25 9//22
f 9//22 17//25 53//26
f 10//16 13//5 14//24
f 9//22 10//16 14//24
f 15//27 19//1 18//3
f 13//5 11//19 18//3
f 11//19 12//23 15//27
f 11//19 15//27 18//3
f 16//28 19//1 15//27
f 12//23 16//28 15//27
f 24//6 17//25 14//24
f 24//6 60//29 17//25
f 17//25 60//29 53//26
f 14//24 13//5 24//6
f 19//1 21//8 1//2
f 20//30 19//1 16//28
f 21//8 19//1 20//30
f 16//28 54//31 20//30
f 20//30 54//31 55//32
f 13//5 2//4 24//6
f 26//9 21//8 28//33
f 20//30 22//34 21//8
f 21//8 22//34 28//33
f 20//30 23//35 22//34
f 23//35 30//36 22//34
f 32//37 24//6 25//7
f 24//6 32//37 62//38
f 25//7 3//10 33//39
f 3//10 26//9 27//40
f 26//9 28//33 27//40
f 22//34 29//41 28//33
f 30//36 29//41 22//34
f 29//41 30//36 57//42
f 29//41 57//42 63//43
f 27//40 33//39 3//10
f 27//40 28//33 31//44
f 25//7 33//39 32//37
f 27//40 31//44 33//39
f 34//45 35//46 45//20
f 36//47 35//46 34//45
f 36//47 38//48 35//46
f 35//46 38//48 46//49
f 37//50 38//48 36//47
f 39//51 48//18 46//49
f 46//49 38//48 39//51
f 37//50 75//52 38//48
f 38//48 75//52 39//51
f 37//50 76//53 75//52
f 39//51 49//54 48//18
f 40//55 49//54 39//51
f 77//56 39//51 75//52
f 40//55 39//51 77//56
f 82//57 41//58 93//59
f 42//13 5//15 43//60
f 42//13 43//60 34//45
f 34//45 43//60 44//61
f 41//58 43//60 5//15
f 34//45 44//61 36//47
f 44//61 43//60 41//58
f 41//58 82//57 44//61
f 46//49 8//11 45//20
f 48//18 8//11 46//49
f 45//20 42//13 34//45
f 46//49 45//20 35//46
f 36//47 86//62 37//50
f 37//50 87//63 76//53
f 48//18 49//54 47//21
f 12//23 47//21 50//64
f 49//54 50//64 47//21
f 49//54 51//65 50//64
f 49//54 40//55 51//65
f 51//65 89//66 50//64
f 89//66 52//67 50//64
f 89//66 94//68 52//67
f 41//58 5//15 9//22
f 93//59 41//58 9//22
f 50//64 52//67 12//23
f 12//23 52//67 16//28
f 54//31 16//28 52//67
f 95//69 54//31 52//67
f 95//69 52//67 94//68
f 55//32 54//31 95//69
f 97//70 55//32 95//69
f 155//71 9//22 53//26
f 55//32 23//35 20//30
f 56//72 23//35 55//32
f 97//70 56//72 55//32
f 166//73 56//72 97//70
f 60//29 99//74 53//26
f 59//75 23//35 56//72
f 23//35 59//75 30//36
f 56//72 98//76 59//75
f 98//76 100//77 59//75
f 60//29 24//6 62//38
f 30//36 58//78 57//42
f 58//78 30//36 59//75
f 104//79 60//29 62//38
f 28//33 29//41 31//44
f 31//44 29//41 63//43
f 57//42 58//78 61//80
f 57//42 61//80 63//43
f 105//81 63//43 61//80
f 63//43 64//82 31//44
f 106//83 64//82 63//43
f 62//38 66//84 65//85
f 32//37 66//84 62//38
f 69//86 32//37 33//39
f 67//87 69//86 33//39
f 31//44 67//87 33//39
f 32//37 69//86 66//84
f 31//44 70//88 67//87
f 70//88 112//89 67//87
f 64//82 70//88 31//44
f 66//84 68//90 65//85
f 68//90 66//84 72//91
f 65//85 68//90 109//92
f 109//92 68//90 71//93
f 67//87 112//89 69//86
f 66//84 69//86 72//91
f 72//91 69//86 114//94
f 69//86 112//89 114//94
f 68//90 72//91 71//93
f 71//93 72//91 73//95
f 72//91 74//96 73//95
f 72//91 114//94 74//96
f 75//52 76//53 79//97
f 88//98 79//97 76//53
f 78//99 77//56 75//52
f 78//99 81//100 77//56
f 79//97 78//99 75//52
f 78//99 145//101 81//100
f 80//102 40//55 77//56
f 80//102 77//56 81//100
f 81//100 91//103 80//102
f 80//102 91//103 90//104
f 36//47 83//105 84//106
f 83//105 44//61 82//57
f 82//57 133//107 83//105
f 82//57 93//59 133//107
f 44//61 83//105 36//47
f 84//106 86//62 36//47
f 86//62 84//106 85//108
f 85//108 142//109 86//62
f 86//62 87//63 37//50
f 86//62 142//109 87//63
f 87//63 142//109 88//98
f 76//53 87//63 88//98
f 144//110 79//97 88//98
f 80//102 51//65 40//55
f 89//66 51//65 90//104
f 90//104 51//65 80//102
f 92//111 89//66 90//104
f 94//68 89//66 92//111
f 92//111 90//104 149//112
f 91//103 149//112 90//104
f 92//111 149//112 150//113
f 155//71 93//59 9//22
f 133//107 93//59 156//114
f 156//114 93//59 155//71
f 94//68 96//115 95//69
f 95//69 96//115 163//116
f 94//68 92//111 96//115
f 150//113 157//117 92//111
f 96//115 92//111 157//117
f 157//117 163//116 96//115
f 163//116 97//70 95//69
f 163//116 166//73 97//70
f 166//73 98//76 56//72
f 155//71 53//26 99//74
f 100//77 169//118 58//78
f 100//77 58//78 59//75
f 99//74 60//29 102//119
f 101//120 61//80 58//78
f 58//78 169//118 101//120
f 175//121 101//120 169//118
f 104//79 102//119 60//29
f 174//122 102//119 104//79
f 61//80 103//123 105//81
f 103//123 61//80 101//120
f 103//123 101//120 175//121
f 103//123 175//121 177//124
f 106//83 63//43 105//81
f 107//125 103//123 177//124
f 174//122 108//126 178//127
f 62//38 65//85 104//79
f 104//79 108//126 174//122
f 104//79 65//85 108//126
f 107//125 106//83 105//81
f 106//83 107//125 111//128
f 103//123 107//125 105//81
f 108//126 65//85 109//92
f 70//88 64//82 106//83
f 109//92 71//93 119//129
f 178//127 108//126 119//129
f 119//129 108//126 109//92
f 70//88 106//83 110//130
f 70//88 110//130 113//131
f 110//130 106//83 111//128
f 180//132 110//130 111//128
f 112//89 70//88 113//131
f 112//89 113//131 115//133
f 113//131 110//130 181//134
f 181//134 115//133 113//131
f 181//134 110//130 235//135
f 118//136 119//129 71//93
f 178//127 119//129 117//137
f 112//89 115//133 114//94
f 116//138 117//137 119//129
f 118//136 71//93 73//95
f 116//138 119//129 118//136
f 74//96 114//94 128//139
f 120//140 114//94 115//133
f 127//141 116//138 122//142
f 116//138 187//143 117//137
f 123//144 73//95 74//96
f 118//136 73//95 123//144
f 118//136 123//144 122//142
f 116//138 118//136 122//142
f 121//145 114//94 120//140
f 120//140 181//134 121//145
f 123//144 74//96 124//146
f 74//96 128//139 124//146
f 121//145 125//147 114//94
f 125//147 121//145 126//148
f 121//145 181//134 126//148
f 126//148 181//134 186//149
f 187//143 127//141 188//150
f 123//144 130//151 122//142
f 122//142 130//151 127//141
f 128//139 123//144 124//146
f 123//144 128//139 130//151
f 128//139 114//94 131//152
f 114//94 125//147 131//152
f 125//147 129//153 131//152
f 129//153 126//148 190//154
f 129//153 125//147 126//148
f 127//141 130//151 191//155
f 188//150 127//141 191//155
f 131//152 129//153 196//156
f 129//153 190//154 196//156
f 128//139 193//157 130//151
f 128//139 132//158 193//157
f 128//139 131//152 132//158
f 79//97 143//159 78//99
f 78//99 143//159 145//101
f 146//160 91//103 81//100
f 134//161 83//105 133//107
f 133//107 135//162 134//161
f 198//163 134//161 135//162
f 197//164 198//163 135//162
f 83//105 136//165 84//106
f 134//161 136//165 83//105
f 136//165 134//161 199//166
f 136//165 137//167 84//106
f 84//106 137//167 85//108
f 137//167 142//109 85//108
f 139//168 142//109 137//167
f 136//165 138//169 137//167
f 138//169 139//168 137//167
f 140//170 138//169 136//165
f 141//171 204//172 139//168
f 138//169 141//171 139//168
f 136//165 202//173 140//170
f 141//171 140//170 202//173
f 138//169 140//170 141//171
f 205//174 88//98 142//109
f 142//109 204//172 205//174
f 139//168 204//172 142//109
f 205//174 144//110 88//98
f 143//159 79//97 144//110
f 143//159 144//110 207//175
f 147//176 146//160 145//101
f 145//101 146//160 81//100
f 212//177 147//176 145//101
f 148//178 151//179 147//176
f 212//177 214//180 147//176
f 148//178 147//176 214//180
f 91//103 146//160 149//112
f 152//181 150//113 149//112
f 152//181 158//182 150//113
f 146//160 147//176 151//179
f 151//179 149//112 146//160
f 149//112 151//179 152//181
f 217//183 152//181 151//179
f 151//179 148//178 217//183
f 153//184 155//71 162//185
f 154//186 153//184 289//187
f 153//184 162//185 289//187
f 135//162 133//107 156//114
f 153//184 156//114 155//71
f 156//114 153//184 154//186
f 197//164 135//162 156//114
f 154//186 197//164 156//114
f 157//117 150//113 158//182
f 160//188 157//117 158//182
f 152//181 159//189 158//182
f 158//182 159//189 161//190
f 160//188 158//182 161//190
f 152//181 217//183 159//189
f 157//117 160//188 163//116
f 160//188 164//191 163//116
f 163//116 165//192 166//73
f 164//191 160//188 161//190
f 164//191 165//192 163//116
f 164//191 224//193 165//192
f 155//71 99//74 162//185
f 167//194 98//76 166//73
f 165//192 226//195 166//73
f 226//195 167//194 166//73
f 162//185 99//74 290//196
f 99//74 173//197 290//196
f 168//198 100//77 98//76
f 167//194 168//198 98//76
f 226//195 168//198 167//194
f 226//195 171//199 168//198
f 227//200 171//199 226//195
f 168//198 169//118 100//77
f 168//198 171//199 170//201
f 170//201 169//118 168//198
f 172//202 170//201 171//199
f 176//203 170//201 172//202
f 173//197 99//74 102//119
f 174//122 173//197 102//119
f 170//201 175//121 169//118
f 170//201 176//203 175//121
f 296//204 293//205 174//122
f 174//122 178//127 296//204
f 228//206 177//124 176//203
f 297//207 228//206 176//203
f 176//203 177//124 175//121
f 228//206 107//125 177//124
f 107//125 228//206 111//128
f 229//208 111//128 228//206
f 178//127 179//209 230//210
f 234//211 180//132 111//128
f 229//208 234//211 111//128
f 231//212 234//211 229//208
f 179//209 178//127 183//213
f 235//135 110//130 180//132
f 183//213 178//127 117//137
f 120//140 115//133 181//134
f 184//214 183//213 182//215
f 183//213 117//137 182//215
f 185//216 181//134 235//135
f 117//137 187//143 182//215
f 241//217 237//218 184//214
f 241//217 184//214 182//215
f 116//138 127//141 187//143
f 181//134 185//216 186//149
f 182//215 187//143 241//217
f 126//148 186//149 190//154
f 187//143 188//150 189//219
f 243//220 190//154 240//221
f 196//156 190//154 247//222
f 190//154 243//220 247//222
f 189//219 188//150 191//155
f 130//151 193//157 192//223
f 191//155 130//151 192//223
f 132//158 194//224 193//157
f 131//152 196//156 195//225
f 193//157 250//226 192//223
f 251//227 193//157 194//224
f 132//158 131//152 195//225
f 195//225 194//224 132//158
f 249//228 192//223 250//226
f 250//226 193//157 251//227
f 195//225 196//156 253//229
f 196//156 247//222 253//229
f 195//225 252//230 194//224
f 200//231 199//166 198//163
f 259//232 200//231 198//163
f 260//233 198//163 197//164
f 259//232 261//234 200//231
f 134//161 198//163 199//166
f 136//165 199//166 202//173
f 202//173 199//166 200//231
f 202//173 200//231 262//235
f 201//236 206//237 141//171
f 201//236 141//171 202//173
f 202//173 203//238 201//236
f 263//239 206//237 201//236
f 262//235 203//238 202//173
f 263//239 201//236 203//238
f 263//239 271//240 206//237
f 263//239 203//238 262//235
f 206//237 204//172 141//171
f 272//241 205//174 204//172
f 206//237 272//241 204//172
f 271//240 272//241 206//237
f 207//175 211//242 143//159
f 208//243 207//175 144//110
f 144//110 205//174 208//243
f 205//174 210//244 208//243
f 209//245 211//242 207//175
f 208//243 210//244 207//175
f 207//175 210//244 209//245
f 269//246 209//245 210//244
f 145//101 143//159 211//242
f 145//101 211//242 212//177
f 212//177 211//242 213//247
f 213//247 211//242 209//245
f 214//180 212//177 213//247
f 276//248 214//180 213//247
f 213//247 209//245 276//248
f 215//249 148//178 214//180
f 218//250 148//178 215//249
f 289//187 362//251 154//186
f 154//186 362//251 197//164
f 210//244 205//174 269//246
f 280//252 215//249 214//180
f 216//253 215//249 280//252
f 218//250 215//249 216//253
f 280//252 221//254 216//253
f 221//254 280//252 283//255
f 283//255 284//256 221//254
f 218//250 217//183 148//178
f 219//257 159//189 217//183
f 219//257 161//190 159//189
f 220//258 218//250 216//253
f 217//183 218//250 220//258
f 220//258 219//257 217//183
f 220//258 223//259 219//257
f 220//258 216//253 221//254
f 223//259 220//258 222//260
f 221//254 222//260 220//258
f 284//256 222//260 221//254
f 161//190 219//257 223//259
f 222//260 284//256 223//259
f 164//191 161//190 225//261
f 225//261 224//193 164//191
f 223//259 225//261 161//190
f 223//259 284//256 286//262
f 286//262 225//261 223//259
f 286//262 287//263 225//261
f 287//263 224//193 225//261
f 224//193 226//195 165//192
f 287//263 226//195 224//193
f 287//263 227//200 226//195
f 291//264 290//196 173//197
f 172//202 292//265 176//203
f 227//200 172//202 171//199
f 172//202 227//200 292//265
f 291//264 173//197 293//205
f 173//197 174//122 293//205
f 292//265 297//207 176//203
f 228//206 297//207 229//208
f 299//266 229//208 297//207
f 296//204 178//127 230//210
f 299//266 231//212 229//208
f 395//267 230//210 233//268
f 234//211 231//212 232//269
f 230//210 179//209 233//268
f 395//267 233//268 303//270
f 234//211 307//271 180//132
f 303//270 233//268 183//213
f 236//272 303//270 184//214
f 303//270 183//213 184//214
f 233//268 179//209 183//213
f 307//271 235//135 180//132
f 237//218 310//273 236//272
f 238//274 185//216 235//135
f 235//135 307//271 238//274
f 237//218 241//217 310//273
f 236//272 184//214 237//218
f 186//149 185//216 238//274
f 239//275 238//274 306//276
f 306//276 307//271 239//275
f 240//221 186//149 238//274
f 240//221 238//274 239//275
f 239//275 317//277 240//221
f 310//273 241//217 242//278
f 190//154 186//149 240//221
f 241//217 187//143 189//219
f 317//277 243//220 240//221
f 242//278 241//217 245//279
f 247//222 243//220 244//280
f 243//220 317//277 244//280
f 244//280 317//277 323//281
f 245//279 189//219 191//155
f 245//279 241//217 189//219
f 245//279 320//282 242//278
f 246//283 320//282 245//279
f 320//282 246//283 321//284
f 244//280 323//281 247//222
f 191//155 192//223 249//228
f 246//283 245//279 248//285
f 248//285 245//279 191//155
f 246//283 248//285 324//286
f 191//155 249//228 326//287
f 326//287 249//228 337//288
f 250//226 255//289 256//290
f 250//226 251//227 255//289
f 194//224 252//230 251//227
f 253//229 252//230 195//225
f 254//291 253//229 328//292
f 328//292 253//229 330//293
f 250//226 256//290 249//228
f 252//230 255//289 251//227
f 253//229 254//291 252//230
f 257//294 249//228 256//290
f 337//288 249//228 257//294
f 256//290 255//289 257//294
f 255//289 258//295 257//294
f 348//296 257//294 258//295
f 260//233 259//232 198//163
f 260//233 197//164 362//251
f 259//232 260//233 261//234
f 358//297 261//234 260//233
f 200//231 261//234 355//298
f 262//235 200//231 355//298
f 263//239 262//235 264//299
f 264//299 265//300 263//239
f 270//301 271//240 263//239
f 270//301 263//239 265//300
f 268//302 264//299 262//235
f 265//300 264//299 268//302
f 268//302 266//303 265//300
f 265//300 266//303 270//301
f 267//304 268//302 262//235
f 267//304 262//235 355//298
f 355//298 360//305 267//304
f 267//304 360//305 268//302
f 270//301 266//303 272//241
f 272//241 266//303 273//306
f 273//306 266//303 268//302
f 273//306 268//302 361//307
f 276//248 209//245 274//308
f 271//240 270//301 272//241
f 272//241 274//308 205//174
f 273//306 275//309 272//241
f 272//241 275//309 274//308
f 277//310 275//309 273//306
f 205//174 274//308 269//246
f 209//245 269//246 274//308
f 277//310 274//308 275//309
f 277//310 276//248 274//308
f 276//248 277//310 278//311
f 278//311 279//312 276//248
f 277//310 273//306 365//313
f 279//312 214//180 276//248
f 279//312 281//314 214//180
f 280//252 214//180 281//314
f 281//314 282//315 280//252
f 282//315 283//255 280//252
f 281//314 279//312 278//311
f 278//311 369//316 281//314
f 289//187 162//185 290//196
f 282//315 281//314 369//316
f 370//317 283//255 282//315
f 372//318 373//319 283//255
f 284//256 283//255 373//319
f 285//320 284//256 373//319
f 284//256 285//320 286//262
f 288//321 287//263 286//262
f 286//262 285//320 288//321
f 382//322 227//200 287//263
f 294//323 291//264 293//205
f 384//324 291//264 294//323
f 294//323 293//205 295//325
f 385//326 295//325 296//204
f 295//325 293//205 296//204
f 299//266 297//207 386//327
f 387//328 386//327 297//207
f 386//327 389//329 299//266
f 296//204 230//210 298//330
f 392//331 231//212 389//329
f 231//212 300//332 232//269
f 389//329 231//212 299//266
f 394//333 230//210 395//267
f 300//332 302//334 232//269
f 301//335 307//271 234//211
f 232//269 301//335 234//211
f 302//334 301//335 232//269
f 395//267 303//270 396//336
f 303//270 236//272 304//337
f 396//336 303//270 305//338
f 303//270 304//337 305//338
f 304//337 236//272 310//273
f 305//338 304//337 309//339
f 307//271 306//276 238//274
f 304//337 310//273 308//340
f 310//273 311//341 308//340
f 304//337 308//340 309//339
f 309//339 396//336 305//338
f 307//271 491//342 239//275
f 312//343 310//273 242//278
f 311//341 310//273 312//343
f 309//339 308//340 311//341
f 309//339 311//341 313//344
f 312//343 316//345 314//346
f 311//341 312//343 314//346
f 316//345 312//343 315//347
f 398//348 309//339 313//344
f 311//341 314//346 313//344
f 313//344 314//346 403//349
f 403//349 314//346 402//350
f 402//350 314//346 316//345
f 318//351 317//277 239//275
f 318//351 239//275 491//342
f 315//347 312//343 242//278
f 316//345 315//347 409//352
f 315//347 410//353 409//352
f 318//351 421//354 323//281
f 318//351 323//281 317//277
f 315//347 242//278 320//282
f 315//347 320//282 319//355
f 315//347 319//355 429//356
f 421//354 427//357 323//281
f 319//355 320//282 321//284
f 319//355 321//284 322//358
f 429//356 319//355 322//358
f 246//283 324//286 321//284
f 325//359 322//358 321//284
f 324//286 325//359 321//284
f 324//286 248//285 327//360
f 324//286 327//360 325//359
f 436//361 325//359 327//360
f 191//155 326//287 248//285
f 248//285 326//287 327//360
f 335//362 326//287 337//288
f 326//287 332//363 327//360
f 332//363 326//287 335//362
f 333//364 327//360 332//363
f 327//360 333//364 436//361
f 329//365 328//292 330//293
f 323//281 437//366 331//367
f 437//366 329//365 331//367
f 247//222 330//293 253//229
f 247//222 323//281 330//293
f 323//281 331//367 330//293
f 329//365 330//293 331//367
f 333//364 336//368 442//369
f 332//363 335//362 336//368
f 332//363 336//368 333//364
f 254//291 328//292 334//370
f 334//370 328//292 329//365
f 329//365 440//371 334//370
f 335//362 337//288 338//372
f 336//368 335//362 341//373
f 341//373 335//362 338//372
f 442//369 336//368 344//374
f 344//374 336//368 341//373
f 442//369 439//375 333//364
f 252//230 254//291 349//376
f 254//291 334//370 449//377
f 339//378 338//372 337//288
f 257//294 339//378 337//288
f 257//294 348//296 339//378
f 339//378 348//296 340//379
f 339//378 340//379 338//372
f 338//372 342//380 341//373
f 338//372 340//379 342//380
f 342//380 340//379 343//381
f 340//379 351//382 343//381
f 343//381 351//382 353//383
f 345//384 341//373 342//380
f 345//384 342//380 346//385
f 346//385 343//381 347//386
f 346//385 342//380 343//381
f 344//374 341//373 345//384
f 345//384 444//387 344//374
f 346//385 444//387 345//384
f 445//388 346//385 347//386
f 349//376 348//296 258//295
f 351//382 348//296 350//389
f 340//379 348//296 351//382
f 348//296 349//376 350//389
f 350//389 349//376 352//390
f 351//382 350//389 354//391
f 354//391 350//389 352//390
f 353//383 351//382 354//391
f 347//386 353//383 452//392
f 347//386 343//381 353//383
f 255//289 252//230 258//295
f 252//230 349//376 258//295
f 352//390 349//376 254//291
f 353//383 354//391 451//393
f 451//393 354//391 352//390
f 452//392 353//383 451//393
f 460//394 261//234 358//297
f 459//395 356//396 355//298
f 459//395 355//298 261//234
f 459//395 462//397 356//396
f 356//396 357//398 268//302
f 463//399 356//396 462//397
f 463//399 357//398 356//396
f 260//233 362//251 359//400
f 358//297 260//233 359//400
f 359//400 362//251 363//401
f 358//297 359//400 464//402
f 359//400 363//401 464//402
f 355//298 356//396 360//305
f 268//302 360//305 356//396
f 361//307 365//313 273//306
f 357//398 365//313 361//307
f 268//302 357//398 361//307
f 363//401 362//251 367//403
f 364//404 278//311 277//310
f 364//404 369//316 278//311
f 368//405 364//404 366//406
f 277//310 365//313 364//404
f 465//407 368//405 366//406
f 364//404 365//313 366//406
f 376//408 362//251 289//187
f 367//403 362//251 376//408
f 376//408 378//409 367//403
f 367//403 378//409 467//410
f 467//410 363//401 367//403
f 368//405 369//316 364//404
f 371//411 369//316 368//405
f 465//407 371//411 368//405
f 369//316 370//317 282//315
f 371//411 370//317 369//316
f 370//317 372//318 283//255
f 372//318 370//317 371//411
f 372//318 371//411 468//412
f 371//411 465//407 468//412
f 468//412 374//413 372//318
f 373//319 375//414 285//320
f 374//413 373//319 372//318
f 374//413 470//415 373//319
f 470//415 375//414 373//319
f 473//416 375//414 470//415
f 375//414 380//417 285//320
f 289//187 290//196 376//408
f 291//264 377//418 290//196
f 376//408 290//196 377//418
f 378//409 376//408 377//418
f 471//419 378//409 377//418
f 379//420 287//263 288//321
f 379//420 381//421 287//263
f 288//321 380//417 379//420
f 380//417 381//421 379//420
f 285//320 380//417 288//321
f 375//414 473//416 380//417
f 291//264 384//324 377//418
f 475//422 377//418 384//324
f 381//421 382//322 287//263
f 476//423 381//421 380//417
f 382//322 383//424 292//265
f 382//322 381//421 383//424
f 292//265 227//200 382//322
f 383//424 297//207 292//265
f 384//324 294//323 295//325
f 383//424 387//328 297//207
f 383//424 477//425 387//328
f 477//425 480//426 387//328
f 384//324 295//325 385//326
f 480//426 386//327 387//328
f 388//427 385//326 296//204
f 608//428 385//326 388//427
f 389//329 391//429 392//331
f 480//426 389//329 386//327
f 480//426 691//430 389//329
f 298//330 230//210 394//333
f 388//427 296//204 390//431
f 390//431 296//204 298//330
f 390//431 298//330 394//333
f 609//432 388//427 390//431
f 482//433 393//434 391//429
f 392//331 391//429 393//434
f 300//332 231//212 392//331
f 392//331 393//434 300//332
f 393//434 482//433 300//332
f 481//435 390//431 394//333
f 609//432 390//431 481//435
f 302//334 300//332 482//433
f 482//433 484//436 302//334
f 484//436 301//335 302//334
f 484//436 486//437 301//335
f 485//438 395//267 488//439
f 488//439 395//267 396//336
f 398//348 407//440 396//336
f 301//335 397//441 307//271
f 396//336 309//339 398//348
f 307//271 397//441 491//342
f 401//442 407//440 399//443
f 403//349 402//350 404//444
f 407//440 398//348 313//344
f 404//444 406//445 403//349
f 414//446 404//444 402//350
f 407//440 313//344 405//447
f 313//344 403//349 405//447
f 403//349 406//445 405//447
f 406//445 404//444 413//448
f 404//444 414//446 413//448
f 405//447 399//443 407//440
f 408//449 405//447 406//445
f 405//447 408//449 399//443
f 406//445 413//448 408//449
f 400//450 399//443 408//449
f 415//451 408//449 413//448
f 415//451 400//450 408//449
f 318//351 491//342 421//354
f 415//451 493//452 400//450
f 409//352 402//350 316//345
f 402//350 411//453 414//446
f 416//454 412//455 411//453
f 416//454 411//453 409//352
f 409//352 411//453 402//350
f 808//456 409//352 410//353
f 808//456 410//353 417//457
f 414//446 411//453 412//455
f 415//451 413//448 494//458
f 494//458 413//448 414//446
f 412//455 416//454 418//459
f 808//456 417//457 422//460
f 414//446 412//455 419//461
f 419//461 412//455 418//459
f 419//461 418//459 420//462
f 494//458 414//446 496//463
f 419//461 496//463 414//446
f 419//461 420//462 498//464
f 497//465 498//464 420//462
f 497//465 420//462 425//466
f 491//342 490//467 421//354
f 315//347 429//356 410//353
f 410//353 432//468 417//457
f 808//456 422//460 809//469
f 809//469 422//460 423//470
f 422//460 432//468 424//471
f 418//459 810//472 420//462
f 423//470 422//460 424//471
f 420//462 810//472 811//473
f 812//474 423//470 424//471
f 424//471 432//468 507//475
f 812//474 424//471 506//476
f 424//471 507//475 506//476
f 427//357 529//477 426//478
f 426//478 428//479 427//357
f 521//480 426//478 529//477
f 426//478 521//480 428//479
f 529//477 427//357 421//354
f 432//468 410//353 429//356
f 422//460 417//457 432//468
f 531//481 428//479 522//482
f 427//357 430//483 323//281
f 430//483 435//484 323//281
f 428//479 430//483 427//357
f 533//485 430//483 428//479
f 533//485 435//484 430//483
f 325//359 431//486 322//358
f 431//486 429//356 322//358
f 433//487 429//356 431//486
f 433//487 432//468 429//356
f 433//487 434//488 432//468
f 534//489 432//468 434//488
f 431//486 325//359 436//361
f 434//488 433//487 541//490
f 435//484 438//491 323//281
f 439//375 436//361 333//364
f 431//486 436//361 439//375
f 437//366 323//281 438//491
f 438//491 441//492 437//366
f 439//375 547//493 431//486
f 547//493 439//375 447//494
f 433//487 431//486 547//493
f 441//492 329//365 437//366
f 329//365 441//492 440//371
f 447//494 439//375 442//369
f 449//377 440//371 443//495
f 440//371 441//492 443//495
f 441//492 551//496 443//495
f 449//377 334//370 440//371
f 441//492 438//491 551//496
f 346//385 446//497 444//387
f 446//497 346//385 445//388
f 344//374 444//387 442//369
f 442//369 444//387 447//494
f 445//388 448//498 446//497
f 446//497 447//494 444//387
f 448//498 553//499 446//497
f 446//497 553//499 447//494
f 452//392 445//388 347//386
f 447//494 553//499 557//500
f 448//498 445//388 455//501
f 352//390 254//291 449//377
f 352//390 449//377 457//502
f 450//503 457//502 449//377
f 443//495 450//503 449//377
f 443//495 551//496 450//503
f 451//393 352//390 453//504
f 352//390 457//502 453//504
f 457//502 456//505 453//504
f 445//388 452//392 455//501
f 452//392 454//506 455//501
f 451//393 454//506 452//392
f 451//393 453//504 454//506
f 454//506 453//504 456//505
f 450//503 456//505 457//502
f 563//507 456//505 450//503
f 261//234 460//394 459//395
f 460//394 358//297 458//508
f 464//402 458//508 358//297
f 569//509 460//394 458//508
f 567//510 569//509 458//508
f 464//402 580//511 458//508
f 458//508 580//511 567//510
f 460//394 461//512 459//395
f 462//397 459//395 461//512
f 460//394 568//513 461//512
f 569//509 568//513 460//394
f 568//513 573//514 461//512
f 461//512 573//514 462//397
f 462//397 573//514 463//399
f 573//514 574//515 463//399
f 363//401 587//516 464//402
f 366//406 365//313 357//398
f 366//406 357//398 589//517
f 463//399 584//518 357//398
f 357//398 584//518 589//517
f 467//410 594//519 363//401
f 594//519 587//516 363//401
f 366//406 589//517 465//407
f 468//412 465//407 466//520
f 465//407 589//517 466//520
f 596//521 469//522 466//520
f 594//519 467//410 472//523
f 467//410 378//409 472//523
f 472//523 595//524 594//519
f 374//413 468//412 469//522
f 468//412 466//520 469//522
f 596//521 597//525 470//415
f 470//415 374//413 469//522
f 469//522 596//521 470//415
f 473//416 470//415 597//525
f 471//419 377//418 475//422
f 472//523 378//409 471//419
f 598//526 472//523 471//419
f 598//526 471//419 475//422
f 380//417 473//416 474//527
f 473//416 597//525 474//527
f 597//525 599//528 474//527
f 474//527 599//528 476//423
f 599//528 600//529 476//423
f 380//417 474//527 476//423
f 476//423 477//425 381//421
f 476//423 600//529 477//425
f 477//425 383//424 381//421
f 600//529 602//530 477//425
f 477//425 602//530 480//426
f 384//324 385//326 478//531
f 478//531 475//422 384//324
f 479//532 478//531 385//326
f 479//532 604//533 478//531
f 609//432 608//428 388//427
f 479//532 385//326 608//428
f 691//430 606//534 391//429
f 389//329 691//430 391//429
f 696//535 482//433 391//429
f 483//536 481//435 394//333
f 616//537 610//538 483//536
f 481//435 483//536 610//538
f 696//535 611//539 482//433
f 611//539 612//540 482//433
f 483//536 394//333 485//438
f 616//537 483//536 485//438
f 482//433 612//540 484//436
f 485//438 394//333 395//267
f 615//541 486//437 484//436
f 486//437 615//541 487//542
f 485//438 617//543 616//537
f 397//441 301//335 486//437
f 487//542 397//441 486//437
f 487//542 490//467 397//441
f 617//543 485//438 488//439
f 488//439 619//544 617//543
f 396//336 407//440 489//545
f 396//336 489//545 488//439
f 619//544 488//439 489//545
f 490//467 491//342 397//441
f 407//440 401//442 489//545
f 401//442 400//450 492//546
f 399//443 400//450 401//442
f 621//547 421//354 490//467
f 492//546 622//548 401//442
f 635//549 622//548 492//546
f 489//545 401//442 622//548
f 400//450 493//452 492//546
f 495//550 493//452 415//451
f 494//458 495//550 415//451
f 496//463 495//550 494//458
f 496//463 419//461 498//464
f 498//464 500//551 496//463
f 501//552 498//464 497//465
f 515//553 425//466 516//554
f 515//553 497//465 425//466
f 624//555 529//477 421//354
f 621//547 624//555 421//354
f 532//556 635//549 492//546
f 495//550 640//557 493//452
f 492//546 493//452 532//556
f 493//452 640//557 532//556
f 496//463 499//558 495//550
f 500//551 499//558 496//463
f 500//551 503//559 499//558
f 498//464 501//552 500//551
f 501//552 503//559 500//551
f 501//552 497//465 518//560
f 502//561 501//552 518//560
f 501//552 502//561 503//559
f 502//561 505//562 503//559
f 502//561 504//563 505//562
f 502//561 518//560 504//563
f 504//563 633//564 505//562
f 506//476 507//475 511//565
f 507//475 432//468 511//565
f 516//554 813//566 506//476
f 506//476 509//567 513//568
f 506//476 513//568 516//554
f 513//568 509//567 510//569
f 513//568 512//570 514//571
f 513//568 510//569 512//570
f 511//565 509//567 506//476
f 509//567 511//565 510//569
f 510//569 511//565 512//570
f 512//570 511//565 508//572
f 508//572 511//565 530//573
f 516//554 513//568 514//571
f 514//571 512//570 525//574
f 497//465 515//553 517//575
f 516//554 517//575 515//553
f 519//576 514//571 525//574
f 518//560 497//465 517//575
f 518//560 517//575 520//577
f 516//554 519//576 517//575
f 514//571 519//576 516//554
f 518//560 520//577 504//563
f 520//577 633//564 504//563
f 626//578 520//577 517//575
f 626//578 517//575 519//576
f 524//579 521//480 529//477
f 522//482 523//580 508//572
f 521//480 523//580 522//482
f 428//479 521//480 522//482
f 529//477 526//581 524//579
f 508//572 523//580 512//570
f 521//480 524//579 523//580
f 526//581 527//582 524//579
f 512//570 523//580 525//574
f 523//580 524//579 525//574
f 525//574 524//579 527//582
f 624//555 526//581 529//477
f 519//576 525//574 527//582
f 628//583 526//581 624//555
f 628//583 527//582 526//581
f 527//582 628//583 528//584
f 527//582 528//584 519//576
f 495//550 499//558 640//557
f 508//572 530//573 531//481
f 508//572 531//481 522//482
f 530//573 533//485 531//481
f 531//481 533//485 428//479
f 635//549 532//556 639//585
f 537//586 530//573 511//565
f 530//573 537//586 533//485
f 537//586 435//484 533//485
f 432//468 536//587 511//565
f 511//565 536//587 537//586
f 532//556 640//557 639//585
f 503//559 637//588 499//558
f 432//468 534//489 536//587
f 534//489 434//488 535//589
f 534//489 535//589 536//587
f 535//589 538//590 536//587
f 536//587 538//590 537//586
f 539//591 537//586 538//590
f 535//589 434//488 540//592
f 540//592 434//488 541//490
f 539//591 438//491 537//586
f 438//491 435//484 537//586
f 535//589 540//592 538//590
f 538//590 540//592 539//591
f 541//490 433//487 542//593
f 541//490 545//594 540//592
f 546//595 539//591 545//594
f 438//491 539//591 546//595
f 540//592 545//594 539//591
f 542//593 433//487 549//596
f 433//487 547//493 549//596
f 552//597 546//595 544//598
f 552//597 438//491 546//595
f 542//593 543//599 541//490
f 541//490 543//599 545//594
f 543//599 544//598 545//594
f 438//491 552//597 551//496
f 545//594 544//598 546//595
f 557//500 547//493 447//494
f 547//493 557//500 548//600
f 549//596 547//493 548//600
f 548//600 550//601 549//596
f 548//600 561//602 550//601
f 549//596 550//601 542//593
f 542//593 550//601 543//599
f 550//601 544//598 543//599
f 551//496 552//597 564//603
f 544//598 565//604 552//597
f 553//499 448//498 554//605
f 448//498 455//501 554//605
f 557//500 553//499 558//606
f 554//605 558//606 553//499
f 559//607 554//605 555//608
f 556//609 555//608 566//610
f 548//600 557//500 561//602
f 557//500 558//606 561//602
f 554//605 559//607 558//606
f 560//611 559//607 555//608
f 556//609 560//611 555//608
f 564//603 560//611 556//609
f 563//507 564//603 556//609
f 561//602 558//606 562//612
f 561//602 562//612 550//601
f 558//606 559//607 562//612
f 560//611 562//612 559//607
f 551//496 563//507 450//503
f 551//496 564//603 563//507
f 564//603 552//597 565//604
f 550//601 562//612 565//604
f 565//604 562//612 560//611
f 564//603 565//604 560//611
f 565//604 544//598 550//601
f 554//605 455//501 566//610
f 455//501 454//506 566//610
f 566//610 454//506 456//505
f 563//507 556//609 456//505
f 566//610 555//608 554//605
f 556//609 566//610 456//505
f 567//510 571//613 569//509
f 567//510 581//614 571//613
f 569//509 570//615 568//513
f 568//513 570//615 575//616
f 569//509 571//613 570//615
f 571//613 572//617 570//615
f 581//614 572//617 571//613
f 570//615 572//617 577//618
f 581//614 661//619 572//617
f 573//514 576//620 574//515
f 568//513 575//616 573//514
f 575//616 576//620 573//514
f 577//618 575//616 570//615
f 577//618 578//621 575//616
f 579//622 575//616 578//621
f 575//616 579//622 576//620
f 583//623 576//620 579//622
f 464//402 587//516 580//511
f 588//624 580//511 587//516
f 567//510 580//511 581//614
f 580//511 588//624 581//614
f 584//518 463//399 582//625
f 582//625 590//626 584//518
f 574//515 582//625 463//399
f 583//623 582//625 576//620
f 576//620 582//625 574//515
f 582//625 583//623 585//627
f 664//628 583//623 579//622
f 668//629 585//627 583//623
f 592//630 585//627 674//631
f 585//627 668//629 674//631
f 589//517 584//518 590//626
f 585//627 590//626 582//625
f 590//626 585//627 592//630
f 586//632 587//516 594//519
f 594//519 595//524 586//632
f 587//516 586//632 588//624
f 588//624 669//633 670//634
f 586//632 669//633 588//624
f 466//520 589//517 590//626
f 466//520 590//626 591//635
f 466//520 591//635 596//521
f 596//521 591//635 597//525
f 590//626 592//630 591//635
f 591//635 593//636 597//525
f 591//635 592//630 593//636
f 680//637 597//525 593//636
f 593//636 592//630 674//631
f 593//636 674//631 678//638
f 675//639 595//524 598//526
f 586//632 595//524 676//640
f 680//637 599//528 597//525
f 680//637 682//641 599//528
f 598//526 595//524 472//523
f 601//642 598//526 475//422
f 601//642 675//639 598//526
f 599//528 682//641 600//529
f 601//642 685//643 675//639
f 683//644 602//530 600//529
f 601//642 475//422 478//531
f 685//643 601//642 690//645
f 602//530 691//430 480//426
f 478//531 603//646 601//642
f 603//646 690//645 601//642
f 478//531 604//533 603//646
f 604//533 690//645 603//646
f 605//647 690//645 604//533
f 608//428 604//533 479//532
f 608//428 605//647 604//533
f 701//648 605//647 608//428
f 691//430 607//649 606//534
f 607//649 696//535 606//534
f 696//535 607//649 693//650
f 609//432 701//648 608//428
f 391//429 606//534 696//535
f 610//538 609//432 481//435
f 610//538 701//648 609//432
f 611//539 696//535 699//651
f 611//539 699//651 703//652
f 612//540 611//539 703//652
f 612//540 703//652 613//653
f 614//654 613//653 706//655
f 615//541 484//436 612//540
f 613//653 614//654 615//541
f 612//540 613//653 615//541
f 618//656 614//654 706//655
f 615//541 614//654 487//542
f 614//654 618//656 487//542
f 620//657 617//543 619//544
f 617//543 707//658 616//537
f 708//659 707//658 617//543
f 618//656 490//467 487//542
f 617//543 620//657 709//660
f 709//660 708//659 617//543
f 618//656 621//547 490//467
f 619//544 623//661 710//662
f 710//662 620//657 619//544
f 618//656 713//663 621//547
f 619//544 489//545 622//548
f 619//544 622//548 623//661
f 625//664 628//583 624//555
f 621//547 625//664 624//555
f 713//663 625//664 621//547
f 632//665 716//666 622//548
f 622//548 716//666 623//661
f 623//661 716//666 710//662
f 622//548 635//549 632//665
f 626//578 519//576 629//667
f 626//578 633//564 520//577
f 626//578 629//667 627//668
f 633//564 626//578 627//668
f 629//667 528//584 628//583
f 519//576 528//584 629//667
f 629//667 628//583 630//669
f 625//664 630//669 628//583
f 629//667 630//669 631//670
f 627//668 629//667 631//670
f 713//663 630//669 625//664
f 631//670 634//671 627//668
f 505//562 633//564 637//588
f 633//564 627//668 637//588
f 639//585 636//672 635//549
f 503//559 505//562 637//588
f 638//673 720//674 636//672
f 639//585 638//673 636//672
f 720//674 632//665 635//549
f 636//672 720//674 635//549
f 637//588 641//675 499//558
f 642//676 641//675 637//588
f 639//585 643//677 638//673
f 639//585 652//678 643//677
f 638//673 643//677 644//679
f 720//674 638//673 644//679
f 720//674 644//679 723//680
f 499//558 641//675 645//681
f 641//675 642//676 645//681
f 637//588 727//682 642//676
f 649//683 643//677 647//684
f 644//679 643//677 649//683
f 729//685 723//680 644//679
f 729//685 644//679 649//683
f 640//557 652//678 639//585
f 646//686 642//676 737//687
f 645//681 646//686 737//687
f 737//687 642//676 727//682
f 642//676 646//686 645//681
f 653//688 647//684 652//678
f 650//689 649//683 647//684
f 648//690 650//689 647//684
f 650//689 729//685 649//683
f 650//689 648//690 731//691
f 648//690 655//692 731//691
f 731//691 655//692 736//693
f 652//678 640//557 651//694
f 654//695 651//694 657//696
f 651//694 656//697 657//696
f 657//696 656//697 660//698
f 647//684 643//677 652//678
f 652//678 651//694 653//688
f 648//690 647//684 653//688
f 655//692 653//688 654//695
f 654//695 653//688 651//694
f 648//690 653//688 655//692
f 640//557 499//558 651//694
f 651//694 499//558 645//681
f 656//697 651//694 645//681
f 645//681 660//698 656//697
f 658//699 645//681 737//687
f 654//695 657//696 659//700
f 736//693 655//692 738//701
f 738//701 655//692 654//695
f 659//700 738//701 654//695
f 738//701 659//700 740//702
f 659//700 657//696 660//698
f 660//698 645//681 658//699
f 658//699 737//687 741//703
f 660//698 658//699 741//703
f 814//704 659//700 742//705
f 659//700 660//698 742//705
f 660//698 741//703 742//705
f 665//706 572//617 662//707
f 577//618 572//617 665//706
f 578//621 577//618 665//706
f 581//614 588//624 670//634
f 581//614 670//634 661//619
f 663//708 661//619 670//634
f 661//619 662//707 572//617
f 661//619 663//708 662//707
f 665//706 664//628 578//621
f 578//621 664//628 579//622
f 665//706 662//707 667//709
f 664//628 665//706 667//709
f 667//709 666//710 664//628
f 664//628 668//629 583//623
f 666//710 668//629 664//628
f 666//710 672//711 668//629
f 669//633 677//712 671//713
f 670//634 669//633 671//713
f 670//634 671//713 663//708
f 663//708 671//713 747//714
f 747//714 667//709 662//707
f 663//708 747//714 662//707
f 747//714 748//715 667//709
f 666//710 667//709 748//715
f 748//715 749//716 666//710
f 674//631 668//629 672//711
f 666//710 749//716 672//711
f 672//711 749//716 673//717
f 678//638 674//631 672//711
f 672//711 673//717 678//638
f 749//716 753//718 673//717
f 593//636 678//638 680//637
f 669//633 586//632 676//640
f 595//524 675//639 676//640
f 681//719 676//640 675//639
f 677//712 669//633 676//640
f 677//712 676//640 681//719
f 677//712 681//719 755//720
f 679//721 680//637 678//638
f 753//718 679//721 678//638
f 678//638 673//717 753//718
f 753//718 762//722 679//721
f 685//643 681//719 675//639
f 754//723 681//719 686//724
f 682//641 679//721 684//725
f 682//641 680//637 679//721
f 681//719 685//643 686//724
f 684//725 683//644 682//641
f 679//721 762//722 684//725
f 688//726 683//644 684//725
f 682//641 683//644 600//529
f 686//724 687//727 754//723
f 684//725 761//728 688//726
f 693//650 689//729 761//728
f 689//729 688//726 761//728
f 688//726 602//530 683//644
f 689//729 602//530 688//726
f 690//645 686//724 685//643
f 690//645 687//727 686//724
f 689//729 693//650 691//430
f 691//430 602//530 689//729
f 687//727 690//645 693//650
f 690//645 605//647 692//730
f 693//650 690//645 692//730
f 692//730 605//647 694//731
f 607//649 691//430 693//650
f 701//648 698//732 605//647
f 605//647 698//732 694//731
f 694//731 695//733 692//730
f 693//650 692//730 695//733
f 695//733 697//734 693//650
f 697//734 695//733 768//735
f 697//734 696//535 693//650
f 696//535 697//734 699//651
f 698//732 701//648 702//736
f 698//732 702//736 770//737
f 698//732 770//737 763//738
f 698//732 763//738 694//731
f 703//652 699//651 768//735
f 697//734 768//735 699//651
f 610//538 707//658 700//739
f 610//538 700//739 701//648
f 701//648 705//740 702//736
f 700//739 705//740 701//648
f 702//736 705//740 770//737
f 706//655 613//653 704//741
f 703//652 704//741 613//653
f 703//652 768//735 704//741
f 706//655 704//741 768//735
f 616//537 707//658 610//538
f 707//658 772//742 700//739
f 700//739 772//742 705//740
f 776//743 707//658 708//659
f 709//660 776//743 708//659
f 713//663 618//656 781//744
f 706//655 781//744 618//656
f 711//745 709//660 620//657
f 709//660 711//745 712//746
f 712//746 776//743 709//660
f 776//743 712//746 782//747
f 620//657 710//662 711//745
f 711//745 714//748 712//746
f 781//744 715//749 713//663
f 717//750 710//662 716//666
f 717//750 711//745 710//662
f 714//748 711//745 783//751
f 718//752 630//669 713//663
f 715//749 718//752 713//663
f 719//753 717//750 716//666
f 719//753 783//751 717//750
f 717//750 783//751 711//745
f 784//754 788//755 715//749
f 715//749 788//755 718//752
f 630//669 634//671 631//670
f 718//752 634//671 630//669
f 785//756 719//753 721//757
f 627//668 634//671 637//588
f 716//666 721//757 719//753
f 632//665 720//674 716//666
f 721//757 716//666 720//674
f 637//588 634//671 722//758
f 718//752 791//759 634//671
f 724//760 720//674 723//680
f 724//760 721//757 720//674
f 721//757 726//761 786//762
f 727//682 637//588 722//758
f 722//758 791//759 728//763
f 791//759 722//758 634//671
f 732//764 723//680 729//685
f 732//764 724//760 723//680
f 725//765 724//760 732//764
f 725//765 732//764 733//766
f 721//757 724//760 725//765
f 725//765 726//761 721//757
f 728//763 727//682 722//758
f 791//759 792//767 728//763
f 792//767 743//768 728//763
f 732//764 729//685 730//769
f 729//685 650//689 730//769
f 730//769 650//689 731//691
f 734//770 731//691 736//693
f 733//766 732//764 730//769
f 731//691 733//766 730//769
f 734//770 733//766 731//691
f 734//770 735//771 733//766
f 739//772 735//771 734//770
f 735//771 725//765 733//766
f 725//765 735//771 726//761
f 735//771 739//772 795//773
f 726//761 735//771 797//774
f 795//773 797//774 735//771
f 727//682 728//763 737//687
f 728//763 743//768 737//687
f 746//775 743//768 792//767
f 734//770 736//693 738//701
f 744//776 734//770 738//701
f 744//776 738//701 740//702
f 744//776 745//777 734//770
f 739//772 734//770 745//777
f 741//703 737//687 743//768
f 743//768 742//705 741//703
f 815//778 814//704 742//705
f 815//778 742//705 743//768
f 745//777 816//779 743//768
f 800//780 745//777 743//768
f 743//768 746//775 800//780
f 739//772 745//777 799//781
f 748//715 747//714 751//782
f 677//712 755//720 671//713
f 747//714 671//713 752//783
f 671//713 750//784 752//783
f 671//713 755//720 750//784
f 752//783 750//784 758//785
f 747//714 752//783 751//782
f 748//715 751//782 749//716
f 758//785 751//782 752//783
f 751//782 757//786 753//718
f 751//782 758//785 757//786
f 753//718 749//716 751//782
f 681//719 754//723 755//720
f 750//784 755//720 756//787
f 755//720 754//723 756//787
f 756//787 754//723 687//727
f 750//784 756//787 758//785
f 756//787 759//788 758//785
f 759//788 760//789 758//785
f 758//785 760//789 757//786
f 753//718 757//786 762//722
f 757//786 760//789 762//722
f 759//788 687//727 693//650
f 759//788 756//787 687//727
f 693//650 760//789 759//788
f 762//722 761//728 684//725
f 761//728 762//722 760//789
f 693//650 761//728 760//789
f 694//731 763//738 764//790
f 694//731 764//790 695//733
f 765//791 764//790 767//792
f 695//733 764//790 765//791
f 764//790 763//738 767//792
f 765//791 767//792 769//793
f 695//733 765//791 768//735
f 768//735 765//791 769//793
f 763//738 770//737 766//794
f 763//738 766//794 767//792
f 767//792 766//794 771//795
f 766//794 774//796 771//795
f 769//793 771//795 706//655
f 768//735 769//793 706//655
f 769//793 767//792 771//795
f 772//742 770//737 705//740
f 707//658 776//743 775//797
f 772//742 773//798 770//737
f 772//742 707//658 775//797
f 766//794 770//737 773//798
f 773//798 772//742 775//797
f 766//794 773//798 774//796
f 776//743 777//799 775//797
f 773//798 775//797 777//799
f 778//800 773//798 777//799
f 773//798 778//800 774//796
f 771//795 779//801 706//655
f 776//743 782//747 777//799
f 778//800 777//799 782//747
f 778//800 801//802 779//801
f 782//747 801//802 778//800
f 780//803 706//655 779//801
f 771//795 774//796 779//801
f 774//796 778//800 779//801
f 779//801 801//802 780//803
f 706//655 780//803 781//744
f 782//747 712//746 714//748
f 780//803 801//802 802//804
f 714//748 783//751 782//747
f 785//756 783//751 719//753
f 783//751 785//756 782//747
f 780//803 784//754 781//744
f 784//754 780//803 802//804
f 784//754 715//749 781//744
f 721//757 786//762 785//756
f 786//762 782//747 785//756
f 784//754 787//805 788//755
f 788//755 791//759 718//752
f 787//805 790//806 788//755
f 805//807 797//774 798//808
f 790//806 789//809 793//810
f 791//759 790//806 794//811
f 790//806 791//759 788//755
f 793//810 794//811 790//806
f 786//762 726//761 797//774
f 789//809 798//808 796//812
f 794//811 792//767 791//759
f 794//811 793//810 792//767
f 796//812 793//810 789//809
f 805//807 798//808 789//809
f 797//774 795//773 798//808
f 800//780 796//812 799//781
f 796//812 800//780 793//810
f 799//781 798//808 795//773
f 796//812 798//808 799//781
f 800//780 746//775 793//810
f 793//810 746//775 792//767
f 739//772 799//781 795//773
f 800//780 799//781 745//777
f 801//802 782//747 786//762
f 801//802 806//813 802//804
f 801//802 786//762 803//814
f 786//762 804//815 803//814
f 801//802 803//814 806//813
f 802//804 787//805 784//754
f 802//804 806//813 787//805
f 797//774 804//815 786//762
f 804//815 805//807 803//814
f 805//807 804//815 797//774
f 805//807 789//809 807//816
f 803//814 805//807 806//813
f 806//813 805//807 807//816
f 806//813 807//816 787//805
f 807//816 790//806 787//805
f 807//816 789//809 790//806
