# Blender 4.0.2
# www.blender.org
mtllib skull_left_nasal_bone.mtl
o skull_left_nasal_bone
v 0.109927 0.033231 0.000703
v 0.106551 0.035771 0.000806
v 0.105142 0.038351 0.000790
v 0.104638 0.038131 0.000922
v 0.103059 0.040581 0.001001
v 0.101839 0.042841 0.000686
v 0.098839 0.047341 0.000794
v 0.096448 0.045621 0.000686
v 0.095540 0.050291 0.001612
v 0.096750 0.050121 0.001464
v 0.096807 0.051081 0.001320
v 0.096370 0.051221 0.001452
v 0.095247 0.051261 0.001482
v 0.096102 0.051821 0.001104
v 0.095555 0.051551 0.001269
v 0.095538 0.051841 0.000980
v 0.095239 0.051581 0.001274
v 0.095249 0.051831 0.001035
v 0.097176 0.051011 0.000911
v 0.096455 0.051831 0.000979
v 0.094412 0.050461 0.001777
v 0.094072 0.051541 0.001706
v 0.093631 0.051021 0.001629
v 0.093971 0.049941 0.001373
v 0.094920 0.051841 0.001196
v 0.092853 0.052141 0.001049
v 0.112172 0.027781 -0.001553
v 0.112311 0.029861 -0.000755
v 0.111485 0.028591 -0.001251
v 0.112627 0.029011 -0.001435
v 0.112486 0.029941 -0.001421
v 0.112009 0.030811 0.000123
v 0.112144 0.031741 0.000079
v 0.112618 0.030841 -0.000221
v 0.112009 0.031731 -0.000603
v 0.111286 0.029971 -0.000849
v 0.111686 0.031741 0.000484
v 0.111285 0.032461 0.000468
v 0.110558 0.032061 0.000431
v 0.110995 0.031341 0.000117
v 0.111271 0.032721 -0.000523
v 0.109512 0.033861 0.000656
v 0.109651 0.034121 0.000442
v 0.110600 0.033531 0.000066
v 0.108397 0.035051 0.000468
v 0.107985 0.034341 0.000508
v 0.107955 0.034931 0.000636
v 0.107660 0.033921 0.000022
v 0.109263 0.034791 -0.000521
v 0.108645 0.035251 0.000085
v 0.107020 0.036761 0.000074
v 0.106333 0.037371 -0.001121
v 0.105600 0.038471 -0.000163
v 0.103861 0.040711 0.000643
v 0.102430 0.042701 0.000029
v 0.100398 0.039361 0.000326
v 0.099742 0.046881 -0.000187
v 0.098917 0.040721 0.000510
v 0.098298 0.040081 -0.000079
v 0.096227 0.041921 0.000130
v 0.095946 0.041321 0.000011
v 0.095558 0.041951 -0.000070
v 0.095228 0.041641 -0.000241
v 0.095623 0.040981 -0.000539
v 0.095383 0.042271 -0.000511
v 0.095135 0.041331 -0.000526
v 0.095085 0.041941 -0.000527
v 0.095314 0.041001 -0.000877
v 0.095040 0.041321 -0.001131
v 0.095153 0.041641 -0.001456
v 0.095211 0.042221 -0.001401
v 0.096581 0.042571 0.000122
v 0.096108 0.042841 -0.000107
v 0.095713 0.042931 -0.000533
v 0.095306 0.042511 -0.001090
v 0.095105 0.044181 -0.001067
v 0.095265 0.042541 -0.001432
v 0.095256 0.042901 -0.001385
v 0.094979 0.044071 -0.001450
v 0.096736 0.051741 0.000653
v 0.096405 0.051971 0.000623
v 0.096116 0.052041 0.000661
v 0.095545 0.052041 0.000647
v 0.095201 0.052091 0.000695
v 0.097258 0.050961 0.000014
v 0.096427 0.051911 0.000012
v 0.096564 0.051291 -0.001124
v 0.095862 0.051791 -0.001447
v 0.095440 0.051911 -0.001479
v 0.095528 0.052171 -0.000482
v 0.094963 0.041631 -0.000575
v 0.094971 0.041861 -0.000859
v 0.094420 0.045861 -0.001476
v 0.094035 0.047741 -0.000858
v 0.092704 0.050311 -0.000502
v 0.092753 0.050091 -0.001406
v 0.094007 0.052691 0.000628
v 0.093107 0.052771 0.000664
v 0.094881 0.052381 0.000061
v 0.094499 0.052451 -0.000559
v 0.092929 0.053191 -0.001036
v 0.094036 0.052251 -0.001427
v 0.091896 0.051731 -0.000156
v 0.091731 0.051521 -0.001083
v 0.091697 0.051771 -0.001437
v 0.091813 0.052401 0.000095
v 0.091982 0.052991 0.000047
v 0.091939 0.053451 -0.000521
v 0.091259 0.052411 -0.000800
v 0.091218 0.053021 -0.000790
v 0.091639 0.053461 -0.001121
v 0.091249 0.052401 -0.001130
v 0.091139 0.052731 -0.001109
v 0.091194 0.053031 -0.001139
v 0.091652 0.053001 -0.001624
v 0.091294 0.052701 -0.001410
v 0.112233 0.027781 -0.002118
v 0.112471 0.028991 -0.001811
v 0.111639 0.029441 -0.002619
v 0.109898 0.025041 -0.003491
v 0.110265 0.025851 -0.002812
v 0.110633 0.025611 -0.003345
v 0.111002 0.027851 -0.003544
v 0.110486 0.025791 -0.003839
v 0.111325 0.031171 -0.002040
v 0.109515 0.033831 -0.001735
v 0.108337 0.025791 -0.003482
v 0.109320 0.024911 -0.003510
v 0.108121 0.023951 -0.004058
v 0.104442 0.037251 -0.003542
v 0.100359 0.034061 -0.003951
v 0.100243 0.045291 -0.002000
v 0.099382 0.036651 -0.003226
v 0.098565 0.036501 -0.004082
v 0.096743 0.039831 -0.001737
v 0.096445 0.039551 -0.002605
v 0.097041 0.038931 -0.002636
v 0.097269 0.038271 -0.003240
v 0.096711 0.038871 -0.003274
v 0.096373 0.039661 -0.003230
v 0.095847 0.040551 -0.001723
v 0.095380 0.042261 -0.001781
v 0.096258 0.040081 -0.002054
v 0.095834 0.041661 -0.002302
v 0.096079 0.040401 -0.002339
v 0.095924 0.040801 -0.002250
v 0.096120 0.040851 -0.002717
v 0.096350 0.041721 -0.003551
v 0.095306 0.042911 -0.001774
v 0.095097 0.044351 -0.002084
v 0.096391 0.050741 -0.002311
v 0.095469 0.051151 -0.002722
v 0.096054 0.049431 -0.003979
v 0.094635 0.045231 -0.001765
v 0.094676 0.046521 -0.002897
v 0.093737 0.048131 -0.002346
v 0.094145 0.048041 -0.003032
v 0.093272 0.049311 -0.003249
v 0.092673 0.050341 -0.001736
v 0.092815 0.050001 -0.002013
v 0.092676 0.050631 -0.002020
v 0.092840 0.050921 -0.002257
v 0.094052 0.051261 -0.002583
v 0.093433 0.051221 -0.002500
v 0.093391 0.051571 -0.002279
v 0.092983 0.051291 -0.002299
v 0.092780 0.050351 -0.002354
v 0.093440 0.050931 -0.002853
v 0.092959 0.050641 -0.002629
v 0.093138 0.050881 -0.002613
v 0.092866 0.049621 -0.002555
v 0.093147 0.050691 -0.002936
v 0.092751 0.050031 -0.002901
v 0.092937 0.049691 -0.003184
v 0.092915 0.050341 -0.003182
v 0.093513 0.050361 -0.003675
v 0.093219 0.049671 -0.003542
v 0.093031 0.050021 -0.003503
v 0.093816 0.049691 -0.003989
v 0.092525 0.050671 -0.001754
v 0.092507 0.051241 -0.002002
v 0.092268 0.052401 -0.001988
v 0.092313 0.052971 -0.001699
v 0.091695 0.052371 -0.001735
v 0.109489 0.025651 -0.004886
v 0.107621 0.022911 -0.004946
v 0.107631 0.022841 -0.005531
v 0.107810 0.023221 -0.005786
v 0.107071 0.022461 -0.005905
v 0.107790 0.026211 -0.006042
v 0.108092 0.031641 -0.004273
v 0.106258 0.022491 -0.004914
v 0.106313 0.022161 -0.005350
v 0.106957 0.022331 -0.005606
v 0.106624 0.022211 -0.005912
v 0.105908 0.022051 -0.005939
v 0.106721 0.022481 -0.006226
v 0.106276 0.022261 -0.006239
v 0.106294 0.023511 -0.004541
v 0.103236 0.022211 -0.005684
v 0.102874 0.022901 -0.005594
v 0.103840 0.021851 -0.005884
v 0.102377 0.022821 -0.005939
v 0.103754 0.021811 -0.006220
v 0.103050 0.021891 -0.006215
v 0.102744 0.024901 -0.005372
v 0.103129 0.034231 -0.005877
v 0.101890 0.024761 -0.005855
v 0.101420 0.025081 -0.006203
v 0.101294 0.026571 -0.005692
v 0.100983 0.026441 -0.006194
v 0.101623 0.028161 -0.005202
v 0.100839 0.028341 -0.005584
v 0.100754 0.029181 -0.005903
v 0.099956 0.032371 -0.005046
v 0.101256 0.032161 -0.006274
v 0.100300 0.032501 -0.004456
v 0.100110 0.032821 -0.005354
v 0.100991 0.035251 -0.005998
v 0.100211 0.039041 -0.005382
v 0.099425 0.034521 -0.004379
v 0.099392 0.034831 -0.004995
v 0.098044 0.037201 -0.004038
v 0.098243 0.036931 -0.004404
v 0.098766 0.037251 -0.005095
v 0.099776 0.035231 -0.005446
v 0.099169 0.038321 -0.005410
v 0.098955 0.041031 -0.005347
v 0.099169 0.042941 -0.004861
v 0.097184 0.043701 -0.004866
v 0.096972 0.039521 -0.004384
v 0.096590 0.042101 -0.004337
v 0.097208 0.041641 -0.004927
v 0.096450 0.043341 -0.003902
v 0.095372 0.048001 -0.004203
v 0.095991 0.048121 -0.004568
v 0.094918 0.049101 -0.004395
v 0.094936 0.049731 -0.004294
v 0.105191 0.022141 -0.006497
v 0.105408 0.022731 -0.006997
v 0.106980 0.023451 -0.006529
v 0.105748 0.023661 -0.007103
v 0.104711 0.023611 -0.007309
v 0.103443 0.021931 -0.006530
v 0.103028 0.021991 -0.006526
v 0.102401 0.022651 -0.006512
v 0.103086 0.022611 -0.006932
v 0.102527 0.025671 -0.007316
v 0.104001 0.029771 -0.006928
v 0.101606 0.025521 -0.006928
v 0.101190 0.025651 -0.006513
v 0.101089 0.026851 -0.006494
v 0.106551 0.035771 0.000806
v 0.101839 0.042841 0.000686
v 0.101839 0.042841 0.000686
v 0.096448 0.045621 0.000686
v 0.112172 0.027781 -0.001553
v 0.112172 0.027781 -0.001553
v 0.112311 0.029861 -0.000755
v 0.112311 0.029861 -0.000755
v 0.112311 0.029861 -0.000755
v 0.112311 0.029861 -0.000755
v 0.112627 0.029011 -0.001435
v 0.112627 0.029011 -0.001435
v 0.112627 0.029011 -0.001435
v 0.112486 0.029941 -0.001421
v 0.112486 0.029941 -0.001421
v 0.112009 0.030811 0.000123
v 0.112618 0.030841 -0.000221
v 0.112618 0.030841 -0.000221
v 0.111686 0.031741 0.000484
v 0.107020 0.036761 0.000074
v 0.103861 0.040711 0.000643
v 0.099742 0.046881 -0.000187
v 0.095558 0.041951 -0.000070
v 0.095228 0.041641 -0.000241
v 0.094963 0.041631 -0.000575
v 0.091639 0.053461 -0.001121
v 0.091639 0.053461 -0.001121
v 0.091194 0.053031 -0.001139
v 0.091194 0.053031 -0.001139
v 0.112233 0.027781 -0.002118
v 0.110633 0.025611 -0.003345
v 0.100983 0.026441 -0.006194
v 0.100839 0.028341 -0.005584
v 0.099956 0.032371 -0.005046
v 0.099956 0.032371 -0.005046
v 0.099392 0.034831 -0.004995
v 0.098243 0.036931 -0.004404
v 0.095991 0.048121 -0.004568
v 0.094918 0.049101 -0.004395
v 0.103028 0.021991 -0.006526
v 0.103028 0.021991 -0.006526
v 0.102401 0.022651 -0.006512
v 0.101190 0.025651 -0.006513
vn 0.5191 0.4148 0.7473
vn 0.2499 0.2984 0.9211
vn 0.0086 -0.0516 0.9986
vn 0.1105 0.0575 0.9922
vn 0.5064 0.4223 0.7518
vn 0.0014 -0.1163 0.9932
vn 0.3818 0.4826 0.7882
vn 0.5118 0.3344 0.7914
vn 0.0014 -0.0476 0.9989
vn -0.2830 -0.4138 0.8652
vn 0.0616 0.1010 0.9930
vn 0.3551 0.2723 0.8943
vn 0.3452 0.3098 0.8859
vn -0.0820 -0.0431 0.9957
vn 0.4608 0.1574 0.8734
vn -0.3473 -0.1945 0.9173
vn 0.2477 -0.0076 0.9688
vn 0.1169 -0.0266 0.9928
vn -0.1100 -0.1337 0.9849
vn 0.5345 0.3537 0.7676
vn 0.2107 0.3432 0.9153
vn 0.8045 0.4743 0.3574
vn 0.4185 0.7390 0.5280
vn 0.0681 0.7306 0.6794
vn 0.0115 0.7860 0.6182
vn 0.0222 0.6102 0.7919
vn 0.1585 0.3651 0.9174
vn 0.1758 0.5974 0.7825
vn 0.7503 0.4597 0.4751
vn 0.2035 0.7409 0.6401
vn 0.2850 0.6639 0.6914
vn 0.8299 0.5170 -0.2099
vn 0.8137 0.5632 -0.1437
vn 0.7133 0.6888 0.1292
vn 0.4075 0.9066 0.1095
vn 0.1258 0.9639 0.2348
vn 0.1106 0.9359 0.3346
vn 0.2624 0.8584 0.4407
vn 0.2597 0.8679 0.4235
vn -0.0250 0.3697 0.9288
vn -0.6020 -0.4187 0.6799
vn -0.3733 -0.3507 0.8589
vn -0.5133 -0.1356 0.8475
vn -0.4792 0.2708 0.8348
vn -0.7943 -0.4222 0.4369
vn -0.8089 -0.5241 0.2666
vn -0.7574 -0.0273 0.6524
vn -0.0674 0.7538 0.6537
vn -0.4873 0.5337 0.6912
vn -0.1132 -0.5012 0.8579
vn -0.2883 -0.4610 0.8393
vn -0.1829 -0.3530 0.9176
vn 0.6549 -0.3085 0.6899
vn -0.0629 -0.4504 0.8906
vn 0.9533 0.1405 0.2674
vn 0.9023 -0.3866 0.1907
vn 0.9300 -0.3537 0.1004
vn 0.8808 -0.4638 0.0951
vn 0.8436 -0.5292 0.0911
vn 0.8463 0.0779 -0.5270
vn 0.9210 0.0576 -0.3852
vn 0.7829 -0.0424 -0.6207
vn 0.7660 0.3314 -0.5509
vn 0.8336 0.4319 0.3444
vn 0.5860 0.2255 0.7783
vn 0.4361 -0.5321 0.7257
vn 0.4989 -0.3553 0.7905
vn 0.4808 -0.2957 0.8254
vn -0.2472 -0.5758 0.7793
vn -0.3349 -0.5369 0.7744
vn -0.1921 -0.4189 0.8875
vn 0.6956 0.6821 0.2255
vn 0.8385 0.4302 -0.3345
vn 0.7792 0.5185 -0.3520
vn 0.7342 0.6237 -0.2684
vn -0.5154 -0.5525 0.6550
vn -0.2947 -0.4528 0.8415
vn 0.6232 0.5605 -0.5454
vn 0.6468 0.4263 -0.6323
vn 0.5071 0.3472 -0.7889
vn 0.5015 0.5707 0.6502
vn 0.6103 0.6900 0.3892
vn 0.6813 0.7177 -0.1440
vn -0.4350 -0.5533 0.7104
vn -0.3067 -0.3966 0.8652
vn -0.0088 -0.2124 0.9771
vn 0.6948 0.7188 -0.0223
vn 0.7114 0.6288 -0.3138
vn 0.7862 0.6009 0.1445
vn 0.7950 0.5889 0.1459
vn 0.7772 0.6017 0.1841
vn 0.6918 0.5069 0.5143
vn 0.7623 0.4944 -0.4177
vn -0.1566 -0.2550 0.9542
vn -0.3480 -0.6254 0.6984
vn -0.5223 -0.7290 0.4425
vn -0.4274 -0.7414 0.5174
vn -0.3125 -0.0338 0.9493
vn -0.3364 -0.3957 0.8546
vn -0.2228 0.0449 0.9738
vn -0.5797 0.0581 0.8127
vn -0.3210 0.0046 0.9471
vn -0.7124 0.5048 0.4876
vn -0.6537 0.4325 0.6210
vn -0.5228 -0.3584 0.7735
vn -0.7979 0.1031 0.5939
vn -0.6980 -0.5545 0.4531
vn -0.7874 0.4248 0.4466
vn -0.9226 -0.3130 0.2256
vn -0.6988 0.2903 0.6538
vn -0.8567 0.2690 0.4401
vn -0.6499 -0.7369 0.1860
vn -0.9202 0.3206 0.2247
vn -0.9108 -0.3650 -0.1932
vn -0.9716 0.2333 -0.0399
vn -0.9460 0.2035 -0.2523
vn -0.7489 -0.6502 -0.1282
vn -0.8792 -0.0469 -0.4741
vn -0.9963 0.0236 -0.0828
vn -0.8753 -0.2571 -0.4095
vn -0.8811 -0.0449 -0.4708
vn -0.8310 -0.2058 0.5168
vn -0.9849 -0.0875 0.1493
vn -0.9653 -0.2553 0.0552
vn -0.9327 -0.1515 -0.3274
vn -0.8735 -0.2920 -0.3896
vn 0.5484 0.8177 -0.1754
vn 0.3651 0.9287 0.0654
vn 0.7118 0.6182 -0.3335
vn 0.2957 0.9456 -0.1359
vn 0.4547 0.8054 -0.3802
vn 0.3106 0.7696 -0.5579
vn 0.2134 0.8842 -0.4156
vn -0.0128 0.7670 -0.6415
vn -0.9278 -0.2933 -0.2305
vn -0.8555 -0.4008 0.3279
vn -0.9563 -0.2888 0.0454
vn -0.8724 -0.4582 -0.1702
vn -0.8739 -0.4858 -0.0170
vn -0.9506 -0.3103 0.0096
vn -0.9246 -0.3464 -0.1585
vn -0.8225 -0.3971 -0.4073
vn 0.3512 0.8943 -0.2772
vn -0.1713 0.9356 0.3088
vn 0.3822 0.8858 -0.2634
vn -0.8459 -0.5332 -0.0124
vn -0.9097 -0.2912 0.2959
vn -0.9010 -0.3791 -0.2111
vn -0.7815 -0.4132 -0.4675
vn -0.8485 0.3863 0.3617
vn 0.1455 0.9098 -0.3887
vn -0.6072 0.7586 0.2362
vn -0.9903 -0.0634 -0.1240
vn -0.9797 0.1868 0.0727
vn -0.6947 0.7161 0.0683
vn -0.3766 0.4759 -0.7948
vn 0.1406 0.6651 -0.7333
vn -0.7165 0.3844 -0.5820
vn -0.5606 0.6038 -0.5667
vn -0.7782 -0.0058 -0.6279
vn -0.5934 -0.0987 -0.7988
vn 0.7787 -0.6217 0.0841
vn 0.7811 -0.2934 -0.5511
vn 0.7413 -0.6704 0.0308
vn 0.6571 0.0844 -0.7491
vn 0.6533 0.2454 -0.7162
vn 0.3659 -0.7585 0.5392
vn -0.0282 -0.5573 0.8299
vn -0.0679 -0.4832 0.8729
vn -0.2929 -0.2861 0.9123
vn 0.6582 -0.0839 -0.7481
vn 0.5779 0.4470 -0.6828
vn 0.0077 -0.5088 0.8609
vn -0.2274 -0.2542 0.9400
vn -0.4691 -0.3410 0.8147
vn -0.5796 -0.2991 0.7580
vn -0.8365 -0.3822 0.3927
vn -0.7487 -0.4587 0.4785
vn -0.7080 -0.6621 0.2457
vn -0.5967 -0.6578 0.4597
vn 0.4771 0.3270 -0.8157
vn 0.5182 0.4853 -0.7042
vn -0.7487 -0.6298 0.2068
vn -0.8101 -0.5406 0.2272
vn -0.8438 -0.5364 -0.0149
vn -0.9230 -0.3390 -0.1823
vn -0.6377 -0.6748 0.3716
vn -0.9354 -0.2705 -0.2277
vn -0.9324 -0.1061 -0.3455
vn -0.7460 -0.2292 -0.6253
vn -0.8471 -0.0154 -0.5313
vn -0.8253 -0.5622 0.0519
vn -0.7211 -0.2914 -0.6286
vn -0.8417 -0.1197 -0.5265
vn -0.8394 -0.1102 -0.5322
vn -0.9567 -0.0219 -0.2904
vn -0.8315 -0.3272 -0.4490
vn -0.5107 -0.0415 -0.8588
vn -0.7327 -0.4219 -0.5340
vn -0.5608 -0.2598 -0.7861
vn -0.4671 -0.1606 -0.8695
vn 0.6557 0.5855 -0.4767
vn 0.2725 0.7529 -0.5991
vn -0.3059 0.5652 -0.7661
vn 0.0478 0.4565 -0.8884
vn 0.4142 0.3314 -0.8477
vn -0.9188 -0.3946 0.0040
vn -0.8419 -0.3921 -0.3707
vn -0.6772 -0.5573 -0.4805
vn -0.6423 -0.3903 -0.6597
vn -0.4439 -0.0439 -0.8950
vn -0.4712 -0.3368 -0.8152
vn -0.8952 -0.1563 -0.4173
vn -0.6331 -0.1977 -0.7484
vn -0.7479 0.1263 -0.6516
vn -0.0036 0.5467 -0.8373
vn -0.4063 0.2316 -0.8839
vn -0.2538 0.5991 -0.7594
vn -0.9848 0.0705 -0.1585
vn -0.3361 0.7572 -0.5600
vn -0.5862 0.5667 -0.5790
vn -0.8141 0.4564 -0.3590
vn -0.9834 -0.0239 -0.1796
vn -0.5622 0.6964 -0.4461
vn -0.7731 0.4515 -0.4455
vn -0.7261 0.0625 -0.6847
vn -0.1791 0.2520 -0.9510
vn 0.4750 0.1173 -0.8721
vn 0.4492 -0.7936 0.4105
vn 0.6823 -0.7145 -0.1546
vn 0.4593 -0.8840 0.0869
vn 0.7000 -0.4104 -0.5844
vn 0.5822 -0.6978 -0.4172
vn 0.4524 -0.5666 -0.6887
vn 0.5013 -0.1863 -0.8450
vn -0.0063 -0.6104 0.7921
vn 0.1717 -0.9135 0.3690
vn 0.1650 -0.9765 -0.1389
vn -0.0733 -0.8942 0.4417
vn 0.3439 -0.9068 -0.2437
vn 0.2807 -0.7748 -0.5665
vn 0.2058 -0.4468 -0.8706
vn 0.1579 -0.8094 -0.5656
vn -0.3890 -0.2221 0.8941
vn -0.3608 -0.1542 0.9198
vn 0.1779 0.1901 -0.9655
vn 0.3403 0.3162 -0.8856
vn -0.3548 -0.5387 0.7642
vn -0.4035 -0.2311 0.8853
vn -0.7642 -0.4129 0.4955
vn 0.0196 -0.9884 -0.1508
vn -0.4616 -0.8764 0.1375
vn -0.0409 -0.7950 -0.6052
vn -0.1395 -0.9455 -0.2941
vn -0.8444 -0.5290 0.0849
vn -0.7166 -0.6772 -0.1671
vn -0.5752 -0.2053 0.7919
vn 0.2393 0.1874 -0.9527
vn -0.8726 -0.3368 0.3539
vn -0.9414 -0.3162 0.1170
vn -0.6257 -0.2282 0.7459
vn -0.5209 -0.2447 0.8178
vn -0.8190 -0.2588 0.5121
vn -0.9946 -0.1034 -0.0074
vn -0.8945 -0.0609 -0.4428
vn -0.9237 -0.0629 -0.3779
vn -0.7767 0.0003 -0.6298
vn -0.7472 -0.1320 -0.6514
vn -0.8350 -0.0925 -0.5424
vn -0.7964 -0.2932 0.5289
vn -0.7402 -0.1004 -0.6648
vn -0.4051 0.0396 -0.9134
vn -0.5539 -0.1030 -0.8262
vn -0.1290 0.1099 -0.9855
vn -0.2523 -0.0086 -0.9676
vn -0.9732 -0.2219 -0.0595
vn -0.9260 -0.3549 -0.1290
vn -0.6811 -0.1688 -0.7125
vn -0.5826 -0.1777 -0.7931
vn -0.4993 -0.0351 -0.8657
vn 0.0340 0.1066 -0.9937
vn -0.0953 0.1602 -0.9825
vn 0.3081 -0.0590 -0.9495
vn 0.0577 -0.1215 -0.9909
vn -0.5227 -0.3230 -0.7890
vn -0.2568 -0.3654 -0.8948
vn -0.2446 -0.5151 -0.8215
vn -0.1917 -0.0100 -0.9814
vn -0.5647 -0.1272 -0.8154
s 1
usemtl mtl1.153
f 38//1 42//2 1//3
f 42//2 47//4 1//3
f 51//5 2//6 45//7
f 51//5 3//8 2//6
f 2//6 4//9 56//10
f 2//6 3//8 4//9
f 4//9 5//11 56//10
f 5//11 3//8 54//12
f 3//8 5//11 4//9
f 5//11 54//12 6//13
f 254//14 7//15 8//16
f 7//15 10//17 8//16
f 8//16 9//18 21//19
f 7//15 11//20 10//17
f 10//17 9//18 8//16
f 10//17 12//21 9//18
f 10//17 11//20 12//21
f 19//22 20//23 11//20
f 11//20 20//23 12//21
f 20//23 14//24 12//21
f 14//24 16//25 15//26
f 12//21 14//24 15//26
f 9//18 12//21 13//27
f 12//21 15//26 13//27
f 15//26 17//28 13//27
f 57//29 19//22 7//15
f 19//22 11//20 7//15
f 18//30 15//26 16//25
f 17//28 15//26 18//30
f 25//31 17//28 18//30
f 13//27 17//28 25//31
f 19//22 274//32 85//33
f 19//22 85//33 80//34
f 20//23 19//22 80//34
f 20//23 80//34 81//35
f 81//35 82//36 20//23
f 82//36 14//24 20//23
f 82//36 83//37 14//24
f 83//37 16//25 14//24
f 83//37 84//38 16//25
f 84//38 18//30 16//25
f 97//39 25//31 84//38
f 25//31 18//30 84//38
f 13//27 22//40 9//18
f 24//41 256//42 21//19
f 24//41 21//19 23//43
f 21//19 22//40 23//43
f 21//19 9//18 22//40
f 22//40 26//44 23//43
f 24//41 23//43 103//45
f 25//31 22//40 13//27
f 24//41 103//45 95//46
f 106//47 23//43 26//44
f 103//45 23//43 106//47
f 25//31 97//39 22//40
f 97//39 98//48 22//40
f 22//40 98//48 26//44
f 98//48 107//49 26//44
f 28//50 36//51 29//52
f 27//53 30//53 259//53
f 29//52 257//54 28//50
f 263//55 31//55 260//55
f 261//56 266//56 34//56
f 264//57 258//58 117//59
f 118//60 265//61 282//62
f 118//60 267//63 265//61
f 33//64 38//1 37//65
f 262//66 269//67 32//68
f 269//67 33//64 37//65
f 32//68 269//67 37//65
f 36//51 28//50 268//69
f 40//70 36//51 268//69
f 271//71 40//70 268//69
f 44//72 38//1 33//64
f 33//64 270//73 35//74
f 41//75 33//64 35//74
f 270//73 267//63 35//74
f 133//76 29//52 36//51
f 37//65 38//1 1//3
f 39//77 40//70 271//71
f 39//77 133//76 40//70
f 40//70 133//76 36//51
f 35//74 126//78 41//75
f 125//79 126//78 35//74
f 125//79 191//80 126//78
f 38//1 44//72 43//81
f 1//3 39//77 271//71
f 42//2 38//1 43//81
f 50//82 43//81 44//72
f 44//72 33//64 41//75
f 44//72 41//75 49//83
f 49//83 50//82 44//72
f 49//83 41//75 126//78
f 39//77 48//84 133//76
f 47//4 42//2 45//7
f 43//81 50//82 45//7
f 42//2 43//81 45//7
f 46//85 39//77 1//3
f 46//85 1//3 47//4
f 46//85 47//4 253//86
f 2//6 47//4 45//7
f 39//77 46//85 48//84
f 45//7 50//82 51//5
f 50//82 49//83 272//87
f 272//87 49//83 52//88
f 126//78 52//88 49//83
f 46//85 2//6 48//84
f 56//10 48//84 2//6
f 56//10 133//76 48//84
f 51//5 53//89 3//8
f 52//88 53//89 272//87
f 53//89 273//90 3//8
f 53//89 55//91 273//90
f 55//91 255//92 273//90
f 52//88 55//91 53//89
f 52//88 132//93 55//91
f 56//10 5//11 254//14
f 56//10 254//14 58//94
f 56//10 59//95 133//76
f 133//76 59//95 135//96
f 254//14 8//16 58//94
f 255//92 55//91 7//15
f 55//91 132//93 274//32
f 58//94 59//95 56//10
f 59//95 64//97 135//96
f 8//16 72//98 58//94
f 61//99 59//95 58//94
f 7//15 55//91 57//29
f 85//33 274//32 132//93
f 58//94 72//98 60//100
f 60//100 61//99 58//94
f 59//95 61//99 64//97
f 72//98 73//101 60//100
f 60//100 62//102 61//99
f 60//100 73//101 62//102
f 65//103 275//104 73//101
f 62//102 63//105 61//99
f 65//103 73//101 74//106
f 64//97 61//99 66//107
f 275//104 65//103 67//108
f 61//99 63//105 66//107
f 66//107 63//105 91//109
f 276//110 275//104 67//108
f 276//110 67//108 277//111
f 66//107 68//112 64//97
f 65//103 74//106 75//113
f 69//114 68//112 66//107
f 69//114 66//107 91//109
f 277//111 67//108 92//115
f 67//108 65//103 75//113
f 67//108 75//113 92//115
f 64//97 68//112 135//96
f 92//115 75//113 71//116
f 69//114 141//117 68//112
f 68//112 141//117 135//96
f 92//115 70//118 69//114
f 92//115 71//116 70//118
f 77//119 71//116 75//113
f 146//120 141//117 69//114
f 70//118 146//120 69//114
f 70//118 71//116 142//121
f 77//119 142//121 71//116
f 8//16 73//101 72//98
f 73//101 8//16 74//106
f 74//106 8//16 76//122
f 75//113 74//106 78//123
f 78//123 74//106 76//122
f 78//123 76//122 79//124
f 77//119 75//113 78//123
f 142//121 77//119 149//125
f 77//119 78//123 149//125
f 78//123 79//124 149//125
f 149//125 79//124 150//126
f 80//34 85//33 86//127
f 80//34 86//127 81//35
f 99//128 84//38 83//37
f 99//128 97//39 84//38
f 86//127 85//33 87//129
f 86//127 90//130 81//35
f 90//130 82//36 81//35
f 83//37 82//36 90//130
f 87//129 88//131 86//127
f 88//131 90//130 86//127
f 132//93 87//129 85//33
f 102//132 90//130 89//133
f 89//133 163//134 102//132
f 90//130 99//128 83//37
f 90//130 88//131 89//133
f 69//114 91//109 92//115
f 150//126 79//124 154//135
f 76//122 8//16 94//136
f 76//122 94//136 93//137
f 79//124 76//122 93//137
f 79//124 93//137 154//135
f 94//136 8//16 24//41
f 93//137 94//136 156//138
f 94//136 24//41 95//46
f 96//139 94//136 95//46
f 160//140 94//136 96//139
f 160//140 96//139 159//141
f 96//139 180//142 159//141
f 99//128 101//143 97//39
f 101//143 108//144 97//39
f 98//48 97//39 108//144
f 98//48 108//144 107//49
f 99//128 90//130 100//145
f 100//145 101//143 99//128
f 90//130 102//132 100//145
f 101//143 100//145 102//132
f 104//146 95//46 103//45
f 104//146 103//45 109//147
f 103//45 106//47 109//147
f 104//146 96//139 95//46
f 104//146 109//147 112//148
f 105//149 180//142 96//139
f 105//149 96//139 104//146
f 105//149 104//146 112//148
f 26//44 107//49 106//47
f 110//150 107//49 108//144
f 109//147 106//47 110//150
f 106//47 107//49 110//150
f 101//143 111//151 108//144
f 278//152 110//150 108//144
f 112//148 109//147 113//153
f 109//147 110//150 113//153
f 113//153 110//150 114//154
f 278//152 280//155 110//150
f 115//156 111//151 183//157
f 183//157 111//151 101//143
f 115//156 281//158 279//159
f 105//149 112//148 116//160
f 116//160 112//148 113//153
f 281//158 116//160 113//153
f 116//160 184//161 105//149
f 115//156 116//160 281//158
f 122//162 117//59 258//58
f 124//163 282//62 283//164
f 123//165 282//62 124//163
f 282//62 123//165 118//60
f 119//166 118//60 123//165
f 267//63 118//60 119//166
f 267//63 125//79 35//74
f 120//167 283//164 257//54
f 121//168 120//167 257//54
f 121//168 128//169 120//167
f 128//169 121//168 127//170
f 29//52 121//168 257//54
f 185//171 123//165 124//163
f 119//166 125//79 267//63
f 119//166 191//80 125//79
f 191//80 119//166 123//165
f 191//80 130//172 126//78
f 128//169 129//173 120//167
f 128//169 127//170 129//173
f 199//174 129//173 127//170
f 121//168 29//52 127//170
f 127//170 133//76 131//175
f 29//52 133//76 127//170
f 217//176 127//170 131//175
f 126//78 130//172 52//88
f 130//172 132//93 52//88
f 221//177 131//175 133//76
f 134//178 133//76 223//179
f 221//177 133//76 134//178
f 137//180 133//76 135//96
f 229//181 153//182 132//93
f 137//180 135//96 143//183
f 137//180 143//183 136//184
f 136//184 139//185 137//180
f 136//184 143//183 145//186
f 133//76 137//180 138//187
f 137//180 139//185 138//187
f 139//185 136//184 140//188
f 140//188 136//184 145//186
f 140//188 145//186 147//189
f 223//179 138//187 139//185
f 223//179 133//76 138//187
f 231//190 139//185 140//188
f 147//189 232//191 140//188
f 224//192 223//179 139//185
f 231//190 289//193 139//185
f 231//190 140//188 232//191
f 135//96 141//117 143//183
f 70//118 144//194 146//120
f 142//121 144//194 70//118
f 234//195 144//194 142//121
f 145//186 143//183 141//117
f 146//120 145//186 141//117
f 145//186 146//120 147//189
f 146//120 144//194 147//189
f 147//189 144//194 234//195
f 147//189 234//195 148//196
f 148//196 232//191 147//189
f 142//121 149//125 234//195
f 150//126 234//195 149//125
f 155//197 150//126 154//135
f 234//195 150//126 155//197
f 230//198 234//195 155//197
f 230//198 157//199 235//200
f 230//198 235//200 236//201
f 87//129 132//93 151//202
f 87//129 151//202 88//131
f 151//202 132//93 153//182
f 151//202 152//203 88//131
f 88//131 152//203 89//133
f 89//133 152//203 163//134
f 152//203 176//204 163//134
f 153//182 238//205 152//203
f 151//202 153//182 152//203
f 238//205 176//204 152//203
f 238//205 153//182 290//206
f 155//197 154//135 93//137
f 93//137 156//138 155//197
f 157//199 155//197 156//138
f 94//136 171//207 156//138
f 171//207 94//136 160//140
f 156//138 174//208 158//209
f 171//207 174//208 156//138
f 157//199 230//198 155//197
f 158//209 157//199 156//138
f 157//199 158//209 235//200
f 235//200 158//209 177//210
f 177//210 158//209 174//208
f 235//200 177//210 179//211
f 237//212 235//200 179//211
f 160//140 159//141 161//213
f 180//142 161//213 159//141
f 161//213 181//214 162//215
f 180//142 181//214 161//213
f 163//134 165//216 102//132
f 166//217 165//216 164//218
f 160//140 161//213 167//219
f 167//219 161//213 162//215
f 162//215 181//214 166//217
f 164//218 163//134 168//220
f 163//134 164//218 165//216
f 170//221 164//218 168//220
f 170//221 166//217 164//218
f 170//221 169//222 162//215
f 166//217 170//221 162//215
f 171//207 160//140 173//223
f 173//223 160//140 167//219
f 162//215 169//222 167//219
f 168//220 172//224 170//221
f 172//224 169//222 170//221
f 174//208 171//207 173//223
f 173//223 167//219 175//225
f 175//225 167//219 169//222
f 172//224 175//225 169//222
f 168//220 176//204 172//224
f 176//204 175//225 172//224
f 176//204 168//220 163//134
f 178//226 177//210 174//208
f 178//226 174//208 173//223
f 178//226 173//223 175//225
f 178//226 179//211 177//210
f 176//204 179//211 178//226
f 175//225 176//204 178//226
f 179//211 176//204 238//205
f 165//216 183//157 102//132
f 102//132 183//157 101//143
f 181//214 180//142 105//149
f 105//149 184//161 181//214
f 181//214 184//161 166//217
f 166//217 182//227 165//216
f 165//216 182//227 183//157
f 183//157 182//227 115//156
f 166//217 184//161 182//227
f 182//227 184//161 115//156
f 184//161 116//160 115//156
f 123//165 185//171 190//228
f 186//229 283//164 120//167
f 120//167 129//173 186//229
f 283//164 186//229 187//230
f 187//230 186//229 194//231
f 187//230 188//232 283//164
f 187//230 189//233 188//232
f 187//230 194//231 189//233
f 189//233 197//234 188//232
f 185//171 188//232 241//235
f 283//164 188//232 124//163
f 124//163 188//232 185//171
f 190//228 185//171 241//235
f 191//80 123//165 190//228
f 199//174 192//236 129//173
f 192//236 193//237 186//229
f 186//229 129//173 192//236
f 194//231 186//229 193//237
f 196//238 193//237 202//239
f 202//239 193//237 192//236
f 189//233 194//231 195//240
f 195//240 194//231 193//237
f 195//240 193//237 196//238
f 197//234 189//233 195//240
f 198//241 197//234 195//240
f 196//238 198//241 195//240
f 197//234 241//235 188//232
f 240//242 241//235 197//234
f 197//234 198//241 240//242
f 198//241 196//238 239//243
f 127//170 212//244 199//174
f 199//174 212//244 206//245
f 190//228 249//246 191//80
f 207//247 191//80 249//246
f 199//174 200//248 192//236
f 201//249 200//248 199//174
f 192//236 200//248 202//239
f 200//248 201//249 203//250
f 196//238 202//239 204//251
f 202//239 205//252 204//251
f 202//239 200//248 205//252
f 205//252 200//248 203//250
f 239//243 196//238 204//251
f 244//253 239//243 204//251
f 205//252 244//253 204//251
f 244//253 205//252 245//254
f 205//252 246//255 292//256
f 246//255 205//252 203//250
f 201//249 199//174 206//245
f 208//257 203//250 201//249
f 217//176 212//244 127//170
f 207//247 130//172 191//80
f 130//172 207//247 220//258
f 130//172 229//181 132//93
f 201//249 206//245 208//257
f 203//250 208//257 209//259
f 246//255 203//250 209//259
f 246//255 209//259 251//260
f 210//261 212//244 213//262
f 208//257 206//245 210//261
f 210//261 206//245 212//244
f 209//259 208//257 210//261
f 209//259 210//261 211//263
f 211//263 210//261 213//262
f 285//264 214//265 284//266
f 209//259 211//263 251//260
f 252//267 295//268 284//266
f 214//265 252//267 284//266
f 285//264 215//269 214//265
f 217//176 213//262 212//244
f 213//262 217//176 286//270
f 217//176 221//177 286//270
f 218//271 214//265 215//269
f 216//272 214//265 218//271
f 217//176 131//175 221//177
f 226//273 218//271 215//269
f 216//272 226//273 219//274
f 226//273 216//272 218//271
f 220//258 207//247 219//274
f 219//274 227//275 220//258
f 229//181 130//172 220//258
f 287//276 221//177 222//277
f 226//273 215//269 288//278
f 225//279 226//273 288//278
f 134//178 224//192 221//177
f 224//192 134//178 223//179
f 221//177 224//192 222//277
f 289//193 225//279 288//278
f 226//273 225//279 227//275
f 219//274 226//273 227//275
f 225//279 231//190 233//280
f 225//279 289//193 231//190
f 227//275 225//279 233//280
f 229//181 220//258 228//281
f 228//281 220//258 227//275
f 227//275 233//280 228//281
f 230//198 236//201 228//281
f 228//281 290//206 229//181
f 233//280 230//198 228//281
f 290//206 153//182 229//181
f 233//280 231//190 232//191
f 230//198 233//280 232//191
f 232//191 148//196 234//195
f 234//195 230//198 232//191
f 235//200 237//212 236//201
f 238//205 291//282 179//211
f 238//205 290//206 291//282
f 241//235 240//242 242//283
f 239//243 240//242 198//241
f 240//242 243//284 242//283
f 242//283 190//228 241//235
f 242//283 249//246 190//228
f 242//283 243//284 249//246
f 244//253 240//242 239//243
f 294//285 247//286 293//287
f 244//253 247//286 240//242
f 293//287 247//286 244//253
f 247//286 243//284 240//242
f 247//286 248//288 243//284
f 247//286 250//289 248//288
f 247//286 294//285 250//289
f 243//284 248//288 249//246
f 249//246 248//288 216//272
f 216//272 219//274 249//246
f 207//247 249//246 219//274
f 295//268 250//289 294//285
f 252//267 250//289 295//268
f 248//288 250//289 216//272
f 252//267 216//272 250//289
f 214//265 216//272 252//267
