# Blender 4.0.2
# www.blender.org
mtllib skull_right_upper_canine_tooth.mtl
o skull_right_upper_canine_tooth
v 0.091215 -0.023199 0.022498
v 0.091793 -0.022959 0.022596
v 0.091360 -0.022629 0.022580
v 0.092013 -0.023099 0.022527
v 0.090972 -0.021649 0.022507
v 0.092185 -0.021459 0.022746
v 0.092580 -0.021729 0.022724
v 0.092992 -0.021859 0.022599
v 0.091551 -0.020829 0.022618
v 0.092185 -0.020369 0.022694
v 0.092701 -0.020749 0.022753
v 0.093564 -0.020269 0.022571
v 0.091234 -0.025059 0.021607
v 0.090456 -0.023789 0.021988
v 0.090022 -0.023489 0.021778
v 0.090994 -0.024069 0.022152
v 0.090855 -0.024399 0.021928
v 0.090646 -0.024399 0.021776
v 0.091179 -0.024539 0.021942
v 0.091983 -0.024959 0.021732
v 0.092712 -0.024929 0.021638
v 0.089877 -0.022169 0.021901
v 0.090696 -0.022599 0.022404
v 0.090340 -0.023039 0.022176
v 0.090238 -0.022689 0.022187
v 0.089978 -0.022949 0.021944
v 0.091017 -0.023489 0.022372
v 0.091471 -0.023749 0.022364
v 0.090246 -0.021479 0.022176
v 0.090398 -0.022149 0.022301
v 0.093856 -0.023859 0.021701
v 0.089962 -0.020829 0.021821
v 0.090651 -0.021399 0.022386
v 0.090238 -0.020549 0.021990
v 0.093856 -0.022569 0.022102
v 0.094515 -0.022619 0.021761
v 0.090755 -0.020349 0.022242
v 0.093702 -0.021729 0.022364
v 0.094387 -0.021809 0.022039
v 0.091886 -0.019409 0.022447
v 0.094543 -0.020779 0.022118
v 0.095104 -0.021609 0.021675
v 0.094486 -0.019079 0.022263
v 0.092162 -0.016469 0.021652
v 0.093255 -0.015599 0.021995
v 0.093985 -0.016529 0.022354
v 0.094430 -0.016219 0.022273
v 0.093847 -0.015699 0.022204
v 0.094536 -0.015319 0.022133
v 0.094298 -0.014749 0.021960
v 0.094980 -0.015949 0.022050
v 0.094938 -0.015329 0.022020
v 0.095488 -0.015829 0.021736
v 0.094562 -0.014419 0.021815
v 0.094896 -0.014649 0.021835
v 0.091581 -0.025889 0.020891
v 0.090564 -0.024589 0.021472
v 0.090647 -0.024859 0.021150
v 0.090940 -0.024919 0.021573
v 0.091325 -0.025519 0.021240
v 0.090841 -0.025089 0.021253
v 0.091274 -0.025659 0.020904
v 0.090794 -0.025069 0.020907
v 0.091702 -0.025299 0.021539
v 0.091651 -0.025679 0.021235
v 0.092286 -0.025799 0.021195
v 0.092156 -0.026109 0.020896
v 0.092885 -0.025679 0.021205
v 0.092799 -0.026229 0.020828
v 0.093184 -0.026249 0.020764
v 0.089704 -0.023269 0.021478
v 0.089596 -0.023279 0.021262
v 0.089484 -0.022899 0.021297
v 0.089487 -0.023189 0.020823
v 0.089274 -0.022919 0.020829
v 0.090197 -0.024019 0.021451
v 0.089824 -0.023519 0.021487
v 0.089922 -0.023679 0.021208
v 0.090136 -0.023919 0.020942
v 0.093583 -0.025409 0.021185
v 0.093880 -0.025729 0.020892
v 0.094205 -0.025709 0.020730
v 0.089269 -0.022449 0.020946
v 0.094110 -0.025159 0.021099
v 0.094676 -0.025029 0.020797
v 0.094511 -0.024359 0.021212
v 0.094924 -0.024559 0.020823
v 0.089439 -0.020529 0.021087
v 0.095101 -0.023329 0.021149
v 0.095717 -0.022209 0.021095
v 0.089897 -0.018939 0.020996
v 0.090573 -0.018739 0.021525
v 0.096318 -0.020859 0.020997
v 0.095604 -0.020119 0.021611
v 0.096389 -0.019819 0.021094
v 0.095711 -0.018989 0.021624
v 0.091320 -0.015779 0.020846
v 0.096177 -0.018209 0.021308
v 0.096603 -0.018139 0.020916
v 0.092301 -0.014729 0.021287
v 0.092159 -0.013819 0.021082
v 0.093537 -0.014409 0.021678
v 0.096020 -0.016379 0.021351
v 0.096292 -0.016099 0.021034
v 0.092659 -0.013509 0.021223
v 0.093709 -0.013719 0.021474
v 0.094197 -0.013549 0.021413
v 0.095486 -0.014929 0.021593
v 0.095297 -0.014399 0.021490
v 0.095873 -0.015219 0.021337
v 0.095703 -0.014399 0.021153
v 0.095965 -0.014709 0.021072
v 0.093602 -0.013059 0.021258
v 0.094086 -0.012899 0.021152
v 0.093914 -0.012509 0.021066
v 0.094416 -0.012999 0.021103
v 0.094293 -0.012489 0.020943
v 0.091842 -0.026079 0.020414
v 0.092077 -0.026279 0.020463
v 0.092180 -0.026299 0.020577
v 0.092665 -0.026509 0.020479
v 0.092621 -0.026579 0.020249
v 0.092445 -0.026479 0.020122
v 0.093006 -0.026689 0.020234
v 0.093378 -0.026829 0.019905
v 0.091329 -0.025519 0.020503
v 0.092024 -0.025819 0.019841
v 0.093066 -0.026489 0.020560
v 0.093477 -0.026419 0.020536
v 0.093449 -0.026669 0.020251
v 0.093939 -0.026449 0.020244
v 0.093829 -0.026759 0.019896
v 0.089252 -0.022919 0.020509
v 0.089641 -0.023179 0.020522
v 0.089393 -0.022919 0.020269
v 0.089793 -0.023399 0.020732
v 0.090032 -0.023479 0.020409
v 0.093998 -0.026109 0.020556
v 0.094585 -0.025989 0.020089
v 0.089128 -0.022589 0.020502
v 0.089024 -0.021769 0.020217
v 0.089067 -0.022269 0.020074
v 0.089174 -0.022599 0.020095
v 0.089826 -0.022989 0.020085
v 0.089458 -0.022589 0.019814
v 0.095054 -0.024929 0.020420
v 0.089002 -0.020929 0.020081
v 0.089163 -0.020749 0.020576
v 0.095494 -0.023639 0.020610
v 0.089366 -0.018769 0.020125
v 0.096572 -0.021989 0.020463
v 0.096837 -0.020859 0.020553
v 0.097051 -0.021759 0.020078
v 0.097184 -0.021119 0.020089
v 0.090535 -0.016539 0.020339
v 0.096999 -0.020289 0.020474
v 0.097277 -0.020029 0.020101
v 0.097071 -0.019499 0.020400
v 0.090603 -0.014819 0.020179
v 0.096840 -0.017769 0.020575
v 0.091251 -0.014449 0.020655
v 0.097082 -0.017699 0.020106
v 0.090867 -0.012949 0.019915
v 0.091291 -0.013189 0.020397
v 0.096341 -0.015039 0.020727
v 0.096798 -0.015399 0.020090
v 0.092497 -0.011729 0.020699
v 0.092050 -0.011719 0.020488
v 0.094650 -0.012879 0.020931
v 0.096060 -0.014329 0.020690
v 0.096561 -0.014599 0.020078
v 0.091735 -0.011149 0.020113
v 0.092272 -0.010909 0.020324
v 0.093106 -0.011499 0.020785
v 0.093761 -0.011429 0.020768
v 0.094227 -0.011869 0.020806
v 0.094428 -0.011799 0.020651
v 0.094498 -0.012359 0.020759
v 0.094941 -0.012439 0.020397
v 0.093162 -0.010779 0.020508
v 0.093224 -0.009979 0.020061
v 0.093786 -0.010939 0.020527
v 0.094266 -0.011249 0.020489
v 0.094641 -0.011249 0.020087
v 0.092789 -0.026509 0.019412
v 0.092953 -0.026709 0.019807
v 0.093563 -0.026879 0.019480
v 0.093267 -0.026759 0.019367
v 0.093715 -0.026879 0.019582
v 0.093597 -0.026849 0.019236
v 0.093984 -0.026849 0.019465
v 0.094283 -0.026679 0.019483
v 0.093948 -0.026889 0.019156
v 0.094517 -0.026689 0.018992
v 0.089118 -0.022149 0.019792
v 0.089437 -0.021839 0.019112
v 0.089257 -0.022459 0.019827
v 0.090070 -0.022769 0.019627
v 0.090027 -0.022169 0.019117
v 0.088966 -0.020739 0.019582
v 0.088969 -0.020269 0.019586
v 0.089101 -0.019209 0.019667
v 0.089042 -0.019279 0.019123
v 0.097227 -0.022429 0.019526
v 0.097517 -0.022369 0.019139
v 0.089446 -0.017229 0.019430
v 0.089336 -0.017199 0.019114
v 0.097469 -0.021959 0.019462
v 0.097645 -0.022029 0.019102
v 0.089803 -0.017009 0.019814
v 0.089755 -0.016109 0.019428
v 0.097534 -0.020939 0.019561
v 0.097704 -0.021029 0.019130
v 0.090058 -0.016169 0.019828
v 0.097507 -0.019719 0.019560
v 0.097528 -0.019219 0.019150
v 0.090335 -0.014579 0.019718
v 0.090665 -0.013949 0.019869
v 0.097102 -0.017059 0.019683
v 0.097144 -0.017439 0.019093
v 0.097046 -0.016169 0.019382
v 0.096820 -0.014949 0.019738
v 0.096973 -0.015869 0.019729
v 0.096641 -0.014329 0.019398
v 0.095335 -0.012289 0.019694
v 0.091660 -0.009639 0.019495
v 0.094878 -0.011179 0.019595
v 0.092053 -0.008819 0.019357
v 0.093676 -0.009509 0.019522
v 0.092825 -0.026319 0.018987
v 0.092975 -0.026019 0.018562
v 0.092602 -0.025399 0.018551
v 0.093265 -0.026599 0.018946
v 0.093118 -0.026419 0.018809
v 0.093972 -0.026809 0.018818
v 0.094404 -0.026759 0.018764
v 0.093996 -0.026619 0.018492
v 0.094458 -0.026599 0.018252
v 0.092874 -0.025449 0.018312
v 0.095265 -0.026369 0.018287
v 0.095543 -0.026089 0.018362
v 0.091244 -0.022889 0.018713
v 0.091814 -0.023939 0.018919
v 0.096124 -0.025359 0.018330
v 0.089628 -0.021489 0.018554
v 0.089422 -0.021169 0.018590
v 0.089774 -0.021899 0.018920
v 0.090302 -0.022039 0.018756
v 0.089966 -0.021579 0.018250
v 0.090696 -0.022399 0.018795
v 0.090855 -0.022099 0.018263
v 0.089081 -0.020599 0.018969
v 0.089030 -0.020149 0.019009
v 0.096969 -0.024189 0.018253
v 0.089171 -0.018929 0.018530
v 0.089241 -0.017859 0.018543
v 0.097705 -0.022489 0.018454
v 0.089229 -0.017549 0.018856
v 0.097753 -0.021729 0.018785
v 0.097770 -0.021789 0.018410
v 0.097709 -0.020459 0.018853
v 0.089812 -0.014819 0.018749
v 0.090057 -0.013859 0.018585
v 0.090302 -0.011709 0.019016
v 0.096880 -0.014989 0.019116
v 0.096936 -0.015799 0.018652
v 0.096557 -0.014649 0.018191
v 0.090690 -0.009539 0.018823
v 0.095071 -0.011229 0.019107
v 0.095429 -0.012019 0.018635
v 0.094440 -0.009749 0.018588
v 0.094839 -0.010419 0.018500
v 0.090875 -0.007459 0.018515
v 0.091518 -0.008039 0.018913
v 0.091855 -0.007779 0.018872
v 0.091319 -0.007399 0.018668
v 0.092840 -0.007999 0.018737
v 0.093417 -0.008309 0.018473
v 0.094077 -0.009419 0.018977
v 0.094325 -0.026319 0.017997
v 0.093830 -0.025769 0.017975
v 0.094041 -0.025599 0.017658
v 0.094960 -0.026319 0.017526
v 0.094682 -0.026169 0.017521
v 0.095281 -0.026399 0.017988
v 0.095529 -0.026249 0.017965
v 0.095003 -0.026479 0.017858
v 0.095646 -0.026149 0.017635
v 0.095100 -0.026329 0.017517
v 0.095462 -0.026219 0.017513
v 0.092826 -0.024089 0.017810
v 0.095806 -0.026009 0.017873
v 0.096174 -0.025559 0.017758
v 0.096021 -0.025689 0.017424
v 0.089779 -0.021149 0.017928
v 0.091684 -0.022269 0.017483
v 0.089403 -0.019829 0.017920
v 0.089579 -0.020229 0.017664
v 0.090020 -0.020799 0.017367
v 0.090260 -0.021089 0.017437
v 0.096857 -0.024549 0.017978
v 0.097138 -0.024119 0.017879
v 0.096954 -0.024419 0.017729
v 0.097305 -0.023659 0.018139
v 0.097424 -0.023489 0.017876
v 0.097246 -0.023759 0.017435
v 0.097432 -0.023289 0.017438
v 0.097730 -0.022499 0.018006
v 0.097698 -0.022219 0.017698
v 0.097625 -0.022689 0.017570
v 0.097565 -0.022359 0.017300
v 0.097604 -0.021769 0.017493
v 0.089599 -0.015989 0.018090
v 0.097431 -0.019799 0.017708
v 0.089921 -0.013209 0.018003
v 0.089901 -0.013909 0.018168
v 0.089534 -0.011329 0.017478
v 0.089866 -0.011909 0.018305
v 0.089800 -0.010759 0.018143
v 0.089672 -0.011039 0.017972
v 0.089831 -0.008809 0.017715
v 0.095018 -0.010729 0.018157
v 0.090069 -0.006639 0.017843
v 0.093735 -0.008519 0.018172
v 0.090390 -0.006529 0.018092
v 0.090931 -0.006269 0.018286
v 0.093098 -0.007479 0.018084
v 0.089972 -0.004939 0.017707
v 0.091193 -0.005479 0.018159
v 0.090385 -0.005199 0.017952
v 0.091956 -0.005859 0.018091
v 0.089943 -0.003599 0.017700
v 0.090850 -0.003839 0.017785
v 0.090742 -0.004659 0.017974
v 0.091012 -0.004589 0.017929
v 0.091489 -0.004799 0.017773
v 0.090005 -0.002459 0.017623
v 0.090307 -0.003449 0.017815
v 0.090429 -0.002399 0.017671
v 0.089947 -0.001069 0.017536
v 0.090240 -0.000989 0.017567
v 0.090295 -0.001459 0.017630
v 0.090403 -0.001239 0.017587
v 0.095108 -0.025909 0.017033
v 0.094635 -0.025419 0.016859
v 0.095221 -0.026089 0.017191
v 0.093519 -0.024069 0.017094
v 0.095764 -0.025849 0.017199
v 0.095566 -0.025859 0.017070
v 0.095950 -0.025199 0.016661
v 0.095683 -0.025089 0.016429
v 0.096248 -0.025149 0.017012
v 0.096374 -0.024509 0.016538
v 0.091182 -0.021329 0.016850
v 0.096968 -0.023859 0.016896
v 0.089953 -0.019369 0.016589
v 0.097185 -0.023389 0.016918
v 0.096934 -0.023439 0.016561
v 0.097139 -0.022159 0.016427
v 0.097442 -0.022709 0.017111
v 0.097084 -0.022729 0.016476
v 0.090067 -0.016389 0.016773
v 0.097234 -0.019979 0.017069
v 0.090053 -0.015319 0.016743
v 0.096681 -0.017759 0.017233
v 0.089873 -0.013069 0.016923
v 0.089883 -0.013819 0.017408
v 0.090112 -0.014089 0.016738
v 0.089694 -0.012459 0.017370
v 0.089674 -0.012329 0.016786
v 0.089579 -0.009499 0.017438
v 0.089335 -0.009839 0.016696
v 0.089613 -0.008099 0.017025
v 0.089570 -0.007119 0.016777
v 0.094883 -0.010579 0.017279
v 0.089725 -0.006599 0.017329
v 0.094148 -0.008879 0.016967
v 0.089642 -0.004979 0.017349
v 0.093088 -0.006719 0.017218
v 0.089215 -0.002959 0.017089
v 0.089107 -0.003369 0.016832
v 0.089519 -0.003139 0.017392
v 0.092457 -0.005479 0.017269
v 0.091274 -0.003889 0.017479
v 0.091794 -0.004099 0.016955
v 0.089041 -0.001559 0.016883
v 0.089640 -0.001229 0.017414
v 0.090693 -0.002109 0.017517
v 0.091150 -0.002189 0.016892
v 0.090465 -0.000889 0.017449
v 0.090709 -0.001129 0.017281
v 0.089153 0.000631 0.016969
v 0.088935 0.000321 0.016759
v 0.089777 0.000331 0.017253
v 0.089411 0.000411 0.017145
v 0.089153 0.000001 0.017026
v 0.090557 -0.000399 0.017196
v 0.090810 -0.000489 0.016854
v 0.089963 0.001611 0.016803
v 0.094030 -0.023719 0.016015
v 0.094384 -0.023659 0.015698
v 0.094940 -0.024029 0.015673
v 0.095251 -0.024159 0.015702
v 0.095526 -0.024069 0.015705
v 0.091148 -0.020889 0.016200
v 0.091959 -0.021319 0.016231
v 0.092817 -0.022069 0.016180
v 0.096076 -0.023749 0.015841
v 0.096065 -0.023209 0.015603
v 0.096436 -0.023919 0.016228
v 0.090152 -0.019749 0.016314
v 0.090170 -0.019349 0.016180
v 0.090456 -0.020069 0.016038
v 0.090938 -0.020499 0.015897
v 0.096673 -0.022719 0.015949
v 0.090029 -0.018319 0.016474
v 0.090394 -0.018729 0.015836
v 0.096868 -0.021829 0.015958
v 0.096513 -0.022089 0.015616
v 0.096963 -0.021489 0.016135
v 0.096571 -0.021389 0.015629
v 0.090475 -0.016779 0.016102
v 0.090290 -0.015349 0.016344
v 0.090765 -0.015479 0.015826
v 0.095848 -0.017849 0.015749
v 0.090102 -0.013329 0.016486
v 0.090409 -0.013859 0.016215
v 0.095705 -0.016199 0.016038
v 0.089771 -0.012359 0.016290
v 0.090385 -0.013179 0.015972
v 0.095535 -0.015249 0.016208
v 0.095319 -0.015309 0.015916
v 0.095108 -0.014399 0.015893
v 0.089315 -0.010289 0.016370
v 0.089332 -0.010169 0.015907
v 0.094651 -0.013029 0.015713
v 0.089318 -0.009549 0.016121
v 0.095063 -0.012729 0.016522
v 0.089580 -0.007289 0.016542
v 0.094519 -0.010419 0.016300
v 0.089352 -0.006029 0.016430
v 0.089340 -0.006329 0.016018
v 0.094273 -0.009269 0.016563
v 0.089097 -0.005129 0.015870
v 0.093765 -0.008079 0.015886
v 0.089053 -0.003919 0.016487
v 0.088959 -0.002959 0.016264
v 0.092557 -0.005159 0.016587
v 0.092160 -0.004269 0.016388
v 0.092237 -0.004279 0.015959
v 0.088941 -0.001349 0.016666
v 0.091564 -0.002489 0.016051
v 0.091042 -0.001009 0.016649
v 0.091303 -0.001349 0.015866
v 0.091040 -0.000529 0.016405
v 0.088986 0.001931 0.016482
v 0.088758 0.001301 0.016296
v 0.088774 0.001831 0.016373
v 0.089720 0.002071 0.016633
v 0.089447 0.002291 0.016496
v 0.089873 0.002321 0.016460
v 0.090070 0.002491 0.016106
v 0.090232 0.001431 0.016677
v 0.095360 -0.023669 0.015454
v 0.095078 -0.023519 0.015366
v 0.094783 -0.023229 0.015316
v 0.095495 -0.023119 0.015294
v 0.095158 -0.023049 0.015219
v 0.095741 -0.023379 0.015475
v 0.091072 -0.020219 0.015537
v 0.090658 -0.019639 0.015569
v 0.091240 -0.019939 0.015270
v 0.091423 -0.020409 0.015447
v 0.091574 -0.020089 0.015183
v 0.092481 -0.021199 0.015598
v 0.092440 -0.020459 0.015096
v 0.092998 -0.021319 0.015311
v 0.093454 -0.021529 0.015184
v 0.093124 -0.020879 0.015106
v 0.093971 -0.021359 0.015012
v 0.094782 -0.022459 0.015097
v 0.095904 -0.022359 0.015269
v 0.095514 -0.022289 0.015144
v 0.090734 -0.018689 0.015476
v 0.090964 -0.019309 0.015280
v 0.091495 -0.019709 0.015124
v 0.091673 -0.019269 0.015093
v 0.092000 -0.019929 0.015049
v 0.092734 -0.019969 0.014982
v 0.093295 -0.020329 0.015032
v 0.094616 -0.021259 0.014959
v 0.094023 -0.020889 0.014946
v 0.096169 -0.021379 0.015311
v 0.095725 -0.021119 0.015142
v 0.092553 -0.019309 0.015002
v 0.093529 -0.019119 0.015051
v 0.094110 -0.020039 0.014937
v 0.092465 -0.017479 0.015173
v 0.093592 -0.018239 0.015157
v 0.094096 -0.018739 0.015025
v 0.094555 -0.018999 0.014973
v 0.095928 -0.019429 0.015346
v 0.091261 -0.016139 0.015508
v 0.092012 -0.016139 0.015345
v 0.093648 -0.017469 0.015155
v 0.095076 -0.017939 0.015080
v 0.094538 -0.017909 0.014992
v 0.096217 -0.019429 0.015620
v 0.095355 -0.017079 0.015405
v 0.095042 -0.017089 0.015195
v 0.094746 -0.017369 0.015054
v 0.091135 -0.014559 0.015607
v 0.094235 -0.016069 0.015277
v 0.090764 -0.012559 0.015278
v 0.090954 -0.013339 0.015503
v 0.091427 -0.013629 0.015130
v 0.092532 -0.014129 0.014916
v 0.094833 -0.015449 0.015513
v 0.089836 -0.011629 0.015556
v 0.093769 -0.013949 0.015097
v 0.089499 -0.010289 0.015437
v 0.089498 -0.010779 0.015699
v 0.089733 -0.010959 0.015304
v 0.089791 -0.010209 0.014921
v 0.094199 -0.013139 0.015293
v 0.089389 -0.009709 0.015650
v 0.089724 -0.009519 0.014933
v 0.093817 -0.011909 0.014975
v 0.094159 -0.010749 0.015466
v 0.089683 -0.007559 0.015667
v 0.089713 -0.008179 0.015406
v 0.089778 -0.007289 0.014991
v 0.089359 -0.006169 0.015398
v 0.093802 -0.009189 0.015228
v 0.089092 -0.005029 0.015492
v 0.089184 -0.005599 0.015525
v 0.089239 -0.005439 0.015161
v 0.089010 -0.004119 0.015647
v 0.089112 -0.004239 0.015196
v 0.092644 -0.005349 0.015621
v 0.089001 -0.002509 0.015548
v 0.091638 -0.002409 0.015182
v 0.089028 -0.000809 0.015601
v 0.088966 0.000671 0.015520
v 0.090940 0.000811 0.015637
v 0.088570 0.002991 0.015723
v 0.088566 0.002811 0.015740
v 0.088752 0.002601 0.015182
v 0.090651 0.001531 0.015876
v 0.090446 0.002231 0.015734
v 0.088682 0.003241 0.015712
v 0.088729 0.004091 0.015291
v 0.088461 0.003701 0.015236
v 0.088491 0.003841 0.015230
v 0.088480 0.003541 0.015138
v 0.088451 0.003891 0.015095
v 0.089708 0.003301 0.015836
v 0.089312 0.003581 0.015774
v 0.089559 0.003541 0.015754
v 0.090672 0.002391 0.015117
v 0.088972 0.004321 0.015235
v 0.088753 0.004351 0.015096
v 0.089013 0.004441 0.015102
v 0.089234 0.004391 0.015098
v 0.089256 0.004191 0.015335
v 0.089823 0.003771 0.015221
v 0.089483 0.004161 0.015214
v 0.091398 -0.012689 0.014689
v 0.092729 -0.012599 0.014433
v 0.090319 -0.010599 0.014476
v 0.091472 -0.011489 0.014013
v 0.090010 -0.009269 0.014543
v 0.089978 -0.009839 0.014590
v 0.090253 -0.010009 0.014369
v 0.090396 -0.008959 0.014266
v 0.092775 -0.010439 0.013991
v 0.093622 -0.010559 0.014697
v 0.089992 -0.007269 0.014610
v 0.090007 -0.008099 0.014728
v 0.090324 -0.007929 0.014369
v 0.090619 -0.007489 0.014163
v 0.093148 -0.009529 0.014301
v 0.090232 -0.006979 0.014315
v 0.091837 -0.007699 0.014019
v 0.092352 -0.007629 0.014093
v 0.089283 -0.004999 0.014880
v 0.089416 -0.005599 0.014846
v 0.089352 -0.004289 0.014651
v 0.089626 -0.004879 0.014381
v 0.091780 -0.005339 0.013980
v 0.092297 -0.005879 0.014296
v 0.092984 -0.006689 0.014900
v 0.092881 -0.006859 0.014638
v 0.092478 -0.005289 0.014862
v 0.089231 -0.002339 0.014824
v 0.089400 -0.002449 0.014464
v 0.089640 -0.002889 0.014140
v 0.091599 -0.002599 0.014500
v 0.089538 -0.001089 0.014301
v 0.089248 0.000651 0.014850
v 0.089638 0.000631 0.014303
v 0.091213 -0.000469 0.014464
v 0.091206 -0.000699 0.014168
v 0.089291 0.001871 0.014611
v 0.090941 0.000621 0.014177
v 0.088911 0.003061 0.014790
v 0.090799 0.001991 0.014423
v 0.090715 0.001841 0.014193
v 0.090918 0.001551 0.014753
v 0.088465 0.003851 0.014985
v 0.088473 0.004011 0.014985
v 0.088550 0.004191 0.015005
v 0.088619 0.003661 0.014821
v 0.088509 0.003951 0.014876
v 0.088549 0.004201 0.014883
v 0.088623 0.003941 0.014736
v 0.088583 0.004101 0.014775
v 0.088873 0.003911 0.014572
v 0.088710 0.004131 0.014667
v 0.089393 0.003451 0.014405
v 0.089206 0.003871 0.014434
v 0.090446 0.002961 0.015031
v 0.090371 0.003281 0.014763
v 0.090363 0.003261 0.014444
v 0.089995 0.003581 0.014335
v 0.090250 0.002851 0.014137
v 0.090001 0.003071 0.014172
v 0.090015 0.003311 0.014221
v 0.090271 0.003091 0.014226
v 0.090756 0.002381 0.014772
v 0.090660 0.002711 0.014759
v 0.090666 0.002651 0.014539
v 0.090557 0.002941 0.014543
v 0.090558 0.002671 0.014323
v 0.090412 0.002611 0.014149
v 0.088685 0.004381 0.014889
v 0.088903 0.004481 0.014893
v 0.089045 0.004491 0.014899
v 0.089258 0.004441 0.014878
v 0.088651 0.004281 0.014774
v 0.088827 0.004431 0.014775
v 0.089028 0.004481 0.014780
v 0.088816 0.004321 0.014660
v 0.088910 0.004251 0.014588
v 0.088975 0.004361 0.014627
v 0.089221 0.004391 0.014671
v 0.089111 0.004151 0.014495
v 0.089433 0.004321 0.014993
v 0.089621 0.004151 0.014988
v 0.089550 0.004241 0.014778
v 0.089447 0.004281 0.014661
v 0.089293 0.004191 0.014504
v 0.089548 0.003801 0.014372
v 0.090137 0.003641 0.014672
v 0.089979 0.003801 0.014558
v 0.090147 0.003571 0.014438
v 0.089942 0.003751 0.014441
v 0.091769 -0.011299 0.013850
v 0.091264 -0.010849 0.013879
v 0.091562 -0.010989 0.013778
v 0.091312 -0.010589 0.013810
v 0.091669 -0.010789 0.013722
v 0.091962 -0.010829 0.013760
v 0.091467 -0.010249 0.013756
v 0.091760 -0.010429 0.013697
v 0.092260 -0.010109 0.013755
v 0.092103 -0.009459 0.013761
v 0.092469 -0.009229 0.013883
v 0.091149 -0.005249 0.013823
v 0.089911 -0.003979 0.013998
v 0.091437 -0.004079 0.013833
v 0.091154 -0.003999 0.013713
v 0.090010 -0.002609 0.013782
v 0.091526 -0.003159 0.014042
v 0.090436 -0.002789 0.013600
v 0.090483 -0.001949 0.013522
v 0.091023 -0.002709 0.013595
v 0.090743 -0.002539 0.013526
v 0.089957 -0.001339 0.013796
v 0.090000 -0.000439 0.013803
v 0.090254 -0.000719 0.013603
v 0.090456 -0.000829 0.013525
v 0.091031 -0.001459 0.013638
v 0.090296 -0.001369 0.013575
v 0.090696 -0.000849 0.013520
v 0.090792 -0.001639 0.013501
v 0.090583 -0.001269 0.013496
v 0.090176 -0.000139 0.013717
v 0.090535 -0.000339 0.013582
v 0.091035 -0.000549 0.013853
v 0.090751 -0.000439 0.013613
v 0.089968 0.000681 0.014006
v 0.090276 0.000971 0.013897
v 0.090764 0.000731 0.013982
v 0.090487 0.000881 0.013876
v 0.089983 0.001921 0.014106
v 0.090578 0.001791 0.014056
v 0.090300 0.002371 0.014068
vn -0.3394 -0.0824 0.9370
vn -0.1804 -0.0617 0.9817
vn -0.2716 0.0182 0.9622
vn -0.1998 -0.1888 0.9615
vn 0.0182 -0.1929 0.9810
vn -0.0065 -0.3667 0.9303
vn -0.0801 -0.0206 0.9966
vn 0.1933 -0.2951 0.9357
vn 0.1944 -0.4127 0.8899
vn 0.1378 -0.1169 0.9835
vn 0.2849 -0.1815 0.9412
vn -0.2487 0.1020 0.9632
vn -0.1417 0.1172 0.9830
vn -0.3238 0.2310 0.9175
vn 0.0821 0.0142 0.9965
vn 0.2883 -0.0308 0.9570
vn 0.0002 0.1098 0.9940
vn 0.3661 -0.1570 0.9172
vn 0.4368 -0.1004 0.8940
vn -0.3981 -0.4810 0.7811
vn -0.6063 -0.4974 0.6205
vn -0.5074 -0.5927 0.6255
vn -0.2735 -0.5865 0.7624
vn -0.4802 -0.2195 0.8492
vn -0.5281 -0.3545 0.7717
vn -0.3038 -0.2725 0.9129
vn -0.6759 -0.3695 0.6377
vn -0.2786 -0.3908 0.8773
vn -0.1479 -0.4994 0.8537
vn 0.0686 -0.4702 0.8799
vn -0.0729 -0.5573 0.8271
vn 0.0141 -0.5980 0.8014
vn -0.4756 -0.0006 0.8797
vn -0.7428 0.0129 0.6694
vn -0.5351 -0.0899 0.8400
vn -0.6883 -0.1695 0.7053
vn 0.3491 -0.3049 0.8861
vn -0.3967 0.0997 0.9125
vn -0.5778 0.0942 0.8107
vn -0.5853 0.2315 0.7771
vn -0.7171 0.3078 0.6253
vn -0.7153 0.1614 0.6799
vn -0.4265 0.2345 0.8736
vn 0.3666 -0.2547 0.8948
vn 0.4454 -0.1795 0.8771
vn 0.4794 -0.2478 0.8419
vn 0.4923 -0.3074 0.8143
vn -0.5624 0.3258 0.7600
vn 0.5200 -0.1816 0.8346
vn 0.5214 -0.0936 0.8482
vn -0.5220 0.2602 0.8123
vn 0.3949 -0.0236 0.9184
vn 0.2297 0.0740 0.9705
vn 0.5264 -0.0306 0.8497
vn -0.3508 0.2629 0.8988
vn -0.1508 0.2331 0.9607
vn -0.2507 0.2947 0.9221
vn -0.0445 0.3395 0.9395
vn 0.1295 0.2230 0.9662
vn 0.4402 0.0400 0.8970
vn -0.0992 0.3331 0.9376
vn 0.1342 0.4160 0.8994
vn 0.3991 0.1712 0.9008
vn 0.3370 0.3541 0.8724
vn 0.5744 0.0712 0.8155
vn 0.5705 0.2468 0.7833
vn 0.4846 0.4357 0.7585
vn 0.3143 0.4036 0.8592
vn -0.6919 -0.7204 0.0478
vn -0.6833 -0.6830 -0.2581
vn -0.4893 -0.8220 0.2913
vn -0.5395 -0.8415 0.0273
vn -0.3567 -0.8652 0.3524
vn -0.1864 -0.7700 0.6102
vn -0.1890 -0.8543 0.4841
vn -0.7040 -0.6367 0.3147
vn -0.7408 -0.5453 0.3922
vn -0.8149 -0.5372 0.2175
vn -0.8364 -0.5424 0.0793
vn -0.7995 -0.5706 -0.1876
vn -0.8276 -0.5423 -0.1446
vn -0.2264 -0.6983 0.6791
vn -0.4570 -0.6940 0.5563
vn -0.7174 -0.5318 -0.4501
vn 0.0158 -0.6754 0.7373
vn 0.1493 -0.5127 0.8455
vn 0.1764 -0.6051 0.7763
vn 0.0375 -0.7704 0.6364
vn -0.8029 -0.2882 0.5217
vn -0.8546 -0.1482 0.4978
vn -0.8384 -0.4782 0.2617
vn -0.7751 -0.5023 0.3832
vn -0.9024 -0.3669 0.2259
vn -0.9065 -0.0220 0.4215
vn -0.6917 -0.7128 -0.1160
vn -0.7705 -0.6351 -0.0547
vn -0.5500 -0.7439 -0.3797
vn -0.6977 -0.6687 -0.2571
vn -0.7034 -0.5674 -0.4281
vn 0.2721 -0.4366 0.8575
vn 0.4097 -0.3880 0.8256
vn 0.3377 -0.5077 0.7926
vn 0.2642 -0.6723 0.6915
vn 0.5201 -0.5017 0.6913
vn 0.4508 -0.5944 0.6659
vn -0.8328 0.1596 0.5300
vn 0.6035 -0.4183 0.6788
vn 0.6630 -0.3355 0.6693
vn 0.6532 -0.5678 0.5009
vn -0.9267 0.0949 0.3637
vn -0.9878 -0.0350 0.1514
vn 0.5929 -0.2860 0.7528
vn 0.7013 -0.3666 0.6114
vn 0.7438 -0.4108 0.5273
vn 0.7521 -0.5305 0.3911
vn 0.5834 -0.2520 0.7721
vn 0.6530 -0.2906 0.6994
vn -0.7349 0.2671 0.6234
vn 0.6051 -0.1605 0.7798
vn 0.6935 -0.1514 0.7044
vn 0.6408 -0.0579 0.7655
vn 0.7544 -0.0632 0.6534
vn 0.7351 0.0337 0.6771
vn 0.8068 0.0275 0.5902
vn -0.6489 0.2269 0.7262
vn -0.5929 0.1315 0.7945
vn 0.6205 0.0087 0.7841
vn -0.4430 0.1797 0.8783
vn -0.5718 0.1357 0.8091
vn 0.6682 0.0627 0.7414
vn 0.7715 0.1079 0.6270
vn 0.8338 0.0831 0.5458
vn -0.6147 0.1917 0.7651
vn -0.4404 0.1750 0.8806
vn -0.4690 0.2489 0.8474
vn -0.2916 0.2244 0.9299
vn 0.6873 0.1623 0.7080
vn 0.8046 0.2260 0.5491
vn -0.0425 0.2925 0.9553
vn 0.0660 0.4084 0.9104
vn 0.5071 0.4170 0.7543
vn 0.6894 0.4036 0.6015
vn 0.6249 0.4230 0.6562
vn 0.7105 0.3124 0.6306
vn 0.7404 0.4319 0.5150
vn 0.1839 0.3416 0.9217
vn 0.1784 0.2802 0.9432
vn 0.3830 0.3104 0.8700
vn -0.1325 0.3175 0.9390
vn -0.3653 -0.9212 0.1336
vn -0.5442 -0.8252 -0.1510
vn -0.3902 -0.9168 -0.0854
vn -0.1407 -0.9353 0.3246
vn -0.5653 -0.7657 -0.3069
vn -0.3904 -0.8901 -0.2353
vn -0.6462 -0.5972 -0.4752
vn -0.0708 -0.9745 0.2129
vn -0.7564 -0.4265 -0.4960
vn 0.4660 -0.6873 0.5571
vn 0.1771 -0.8321 0.5256
vn 0.3437 -0.8421 0.4156
vn 0.5533 -0.7540 0.3540
vn 0.6909 -0.6363 0.3431
vn -0.7834 -0.6032 -0.1495
vn -0.9734 -0.1968 0.1174
vn -0.7975 -0.4999 -0.3377
vn -0.4991 -0.7417 -0.4481
vn -0.4583 -0.6953 -0.5537
vn -0.5115 -0.5825 -0.6317
vn -0.4209 -0.6718 -0.6096
vn -0.9710 -0.2038 -0.1249
vn -0.8784 -0.2848 -0.3839
vn -0.9956 -0.0563 -0.0754
vn -0.6305 -0.5440 -0.5536
vn -0.9806 0.0457 0.1908
vn -0.8628 0.2368 0.4466
vn -0.9961 0.0595 0.0654
vn 0.7235 -0.3946 0.5664
vn 0.7250 -0.2474 0.6428
vn 0.8233 -0.2120 0.5265
vn -0.8636 0.2420 0.4423
vn 0.7984 -0.1267 0.5887
vn -0.7276 0.1615 0.6667
vn 0.8670 0.0002 0.4983
vn 0.8944 -0.0462 0.4448
vn 0.9490 0.0813 0.3048
vn -0.7150 0.1659 0.6792
vn 0.9251 0.1077 0.3640
vn -0.8250 0.2349 0.5140
vn -0.8304 0.2810 0.4811
vn -0.7797 0.1239 0.6138
vn 0.8987 0.1715 0.4035
vn -0.6406 0.1830 0.7457
vn -0.5254 0.2713 0.8064
vn 0.8392 0.3825 0.3865
vn -0.3218 0.2746 0.9061
vn 0.8269 0.4343 0.3571
vn 0.8996 0.4311 0.0697
vn -0.3535 0.3404 0.8713
vn -0.4625 0.2975 0.8352
vn 0.1497 0.3649 0.9190
vn -0.0701 0.4232 0.9033
vn 0.5840 0.2981 0.7551
vn 0.3773 0.3045 0.8746
vn 0.6091 0.3223 0.7246
vn 0.5128 0.4563 0.7272
vn 0.2583 0.4880 0.8337
vn 0.1480 0.5321 0.8336
vn 0.4855 0.5728 0.6605
vn 0.7237 0.4370 0.5341
vn -0.1753 -0.9835 -0.0448
vn 0.0872 -0.9826 0.1638
vn -0.2617 -0.9333 -0.2459
vn -0.4130 -0.8006 -0.4342
vn -0.6804 -0.4137 -0.6049
vn -0.7347 -0.3408 -0.5865
vn 0.3232 -0.9229 0.2095
vn 0.0896 -0.9935 -0.0706
vn 0.4994 -0.8437 0.1967
vn 0.2475 -0.9645 -0.0920
vn 0.4347 -0.8995 -0.0433
vn 0.5684 -0.7930 0.2194
vn -0.6134 -0.5311 -0.5845
vn -0.4150 -0.7074 -0.5722
vn -0.3940 -0.6708 -0.6284
vn -0.5585 -0.5868 -0.5863
vn -0.6204 -0.5154 -0.5912
vn -0.9350 -0.1569 -0.3180
vn -0.8297 -0.3337 -0.4475
vn -0.9743 -0.0260 -0.2240
vn -0.9956 0.0795 -0.0501
vn -0.9617 0.1498 0.2294
vn -0.9869 0.1613 0.0002
vn -0.9585 0.0403 -0.2822
vn -0.9525 0.2222 0.2083
vn 0.8306 -0.3635 0.4218
vn 0.9207 -0.1824 0.3452
vn 0.9706 0.0018 0.2407
vn -0.8441 0.2216 0.4883
vn 0.9945 0.1047 0.0039
vn 0.9856 0.1649 0.0371
vn -0.9149 0.2551 0.3129
vn 0.9497 0.1859 -0.2521
vn 0.9775 0.1588 -0.1388
vn 0.9871 0.1090 0.1172
vn 0.9728 0.1345 0.1884
vn 0.9938 0.1105 0.0109
vn 0.9378 0.2667 0.2221
vn 0.9634 0.2558 -0.0798
vn 0.9571 0.1336 -0.2571
vn -0.7853 0.0953 0.6118
vn 0.9325 0.3601 -0.0261
vn 0.8989 0.2822 -0.3351
vn 0.8942 0.3884 0.2226
vn -0.2329 0.3626 0.9024
vn -0.4029 0.1966 0.8939
vn 0.8181 0.4350 0.3762
vn -0.5415 -0.4894 -0.6835
vn -0.4686 -0.6652 -0.5813
vn -0.5444 -0.3577 -0.7588
vn -0.5057 -0.4752 -0.7200
vn -0.3375 -0.7202 -0.6061
vn -0.4895 -0.6186 -0.6146
vn -0.1368 -0.9226 -0.3608
vn -0.1652 -0.8730 -0.4590
vn 0.1372 -0.9493 -0.2827
vn -0.6467 -0.4204 -0.6365
vn 0.6058 -0.7902 0.0933
vn 0.7436 -0.6613 0.0984
vn -0.6038 -0.5792 -0.5477
vn 0.7787 -0.4797 0.4044
vn -0.6740 -0.5466 -0.4969
vn -0.6893 -0.4948 -0.5292
vn -0.4571 -0.7206 -0.5214
vn -0.4980 -0.6995 -0.5126
vn -0.5449 -0.6656 -0.5100
vn 0.8131 -0.5444 0.2061
vn -0.9232 -0.0657 -0.3786
vn 0.8696 -0.4159 0.2661
vn -0.8861 0.0676 -0.4586
vn 0.9529 -0.2502 0.1717
vn -0.9638 0.0910 -0.2507
vn 0.9884 -0.0507 0.1434
vn 0.9987 0.0161 -0.0484
vn 0.9493 0.0929 -0.3005
vn 0.9856 -0.1619 -0.0492
vn 0.9758 0.0123 -0.2183
vn -0.9672 0.0718 -0.2437
vn -0.9716 0.1567 0.1771
vn -0.8933 0.2291 0.3868
vn 0.8933 0.2106 -0.3971
vn -0.9592 -0.0400 0.2798
vn -0.9027 -0.0700 0.4245
vn -0.8401 0.1025 0.5326
vn -0.8311 0.1123 0.5447
vn 0.8853 0.2237 -0.4076
vn -0.5174 0.1130 0.8482
vn 0.9350 0.3544 0.0117
vn -0.7369 0.0446 0.6745
vn -0.2192 0.3424 0.9136
vn 0.8332 0.5041 0.2274
vn 0.7143 0.5549 0.4264
vn 0.8782 0.4462 0.1723
vn -0.2651 0.2387 0.9342
vn -0.3056 0.1837 0.9343
vn 0.0119 0.3808 0.9246
vn 0.4271 0.5273 0.7345
vn 0.0701 0.2577 0.9637
vn 0.6607 0.5591 0.5008
vn 0.8091 0.5185 0.2766
vn -0.6248 -0.4889 -0.6088
vn -0.6842 -0.4654 -0.5614
vn -0.6250 -0.4835 -0.6129
vn -0.4791 -0.5606 -0.6754
vn -0.4525 -0.6494 -0.6111
vn -0.2244 -0.7990 -0.5579
vn 0.0830 -0.8753 -0.4764
vn -0.1641 -0.6459 -0.7456
vn 0.0644 -0.7542 -0.6535
vn 0.6053 -0.7748 -0.1825
vn 0.3892 -0.8430 -0.3712
vn 0.3099 -0.6930 -0.6510
vn 0.5589 -0.6860 -0.4658
vn 0.8011 -0.5965 0.0492
vn 0.7493 -0.6177 -0.2389
vn 0.7485 -0.5363 -0.3901
vn -0.5226 -0.6569 -0.5435
vn -0.4838 -0.7064 -0.5166
vn 0.8418 -0.5245 -0.1278
vn -0.8639 -0.2374 -0.4441
vn -0.6927 -0.4859 -0.5330
vn -0.4668 -0.7145 -0.5211
vn 0.8801 -0.4700 0.0667
vn 0.9328 -0.3602 0.0097
vn 0.8752 -0.4139 -0.2504
vn 0.9219 -0.2931 -0.2533
vn 0.7986 -0.4140 -0.4368
vn 0.8482 -0.2883 -0.4443
vn 0.9530 -0.1880 -0.2376
vn 0.9254 -0.0267 -0.3781
vn 0.8943 -0.1550 -0.4198
vn 0.8553 0.0945 -0.5095
vn -0.9008 0.0268 -0.4334
vn 0.8912 0.1783 -0.4171
vn -0.9905 -0.0236 -0.1353
vn -0.9839 -0.1689 0.0589
vn 0.7776 0.2088 -0.5930
vn -0.9786 -0.0904 0.1847
vn -0.9165 0.0177 0.3995
vn -0.9214 0.0977 0.3761
vn -0.9847 0.0586 0.1643
vn 0.9426 0.2743 -0.1906
vn 0.9079 0.4182 0.0300
vn -0.8988 -0.0230 0.4379
vn -0.8231 -0.0760 0.5627
vn 0.8751 0.4226 0.2357
vn -0.6253 -0.0017 0.7804
vn -0.3729 0.0961 0.9229
vn -0.0455 0.1567 0.9866
vn 0.4769 0.4266 0.7685
vn 0.7593 0.4494 0.4707
vn 0.7040 0.4805 0.5230
vn -0.4653 0.0394 0.8843
vn 0.2559 0.2635 0.9301
vn 0.5616 0.4155 0.7155
vn -0.1050 0.1089 0.9885
vn 0.3879 0.2316 0.8921
vn 0.6740 0.2992 0.6754
vn 0.7764 0.3800 0.5028
vn -0.3087 0.0634 0.9491
vn 0.1324 0.1220 0.9837
vn -0.6324 0.0011 0.7747
vn 0.6195 0.1561 0.7693
vn 0.0563 0.0629 0.9964
vn -0.2713 0.1057 0.9567
vn 0.0948 0.2280 0.9690
vn 0.4042 0.1632 0.9000
vn 0.5225 0.2622 0.8113
vn 0.2603 -0.5706 -0.7789
vn 0.5306 -0.5646 -0.6323
vn -0.6267 -0.5270 -0.5741
vn 0.6691 -0.4556 -0.5872
vn -0.4749 -0.6945 -0.5405
vn 0.7632 -0.2999 -0.5723
vn -0.9023 -0.0527 -0.4278
vn 0.8187 -0.1796 -0.5455
vn 0.7037 -0.2270 -0.6733
vn 0.7957 -0.0380 -0.6045
vn 0.8693 -0.0474 -0.4921
vn -0.7556 0.0770 -0.6505
vn -0.9107 0.0145 -0.4129
vn -0.7984 0.0197 -0.6018
vn -0.9150 -0.0366 -0.4018
vn -0.9435 -0.2435 -0.2247
vn -0.9711 -0.2249 -0.0804
vn -0.8662 -0.2684 -0.4214
vn -0.9008 -0.3120 -0.3020
vn 0.7492 0.1665 -0.6411
vn 0.7695 0.1306 -0.6251
vn -0.9849 0.0450 0.1671
vn -0.9815 -0.0719 0.1774
vn -0.9879 -0.1037 -0.1157
vn -0.9899 -0.1409 -0.0130
vn 0.9328 0.3186 -0.1684
vn -0.9579 -0.1286 0.2569
vn 0.9104 0.2018 -0.3611
vn 0.9012 0.3965 0.1751
vn -0.8074 -0.0412 0.5886
vn -0.9203 -0.0853 0.3819
vn -0.9679 -0.1048 0.2285
vn 0.8700 0.4112 0.2721
vn -0.6673 0.0320 0.7441
vn -0.8589 -0.0152 0.5119
vn 0.8558 0.2139 0.4711
vn 0.9323 0.2842 0.2235
vn -0.4836 0.0461 0.8741
vn -0.9542 -0.0243 0.2982
vn -0.0150 0.2631 0.9646
vn 0.7685 0.1819 0.6134
vn 0.6801 0.2897 0.6735
vn 0.9049 0.1849 0.3834
vn 0.8416 0.2473 0.4802
vn -0.8485 0.0290 0.5284
vn -0.7912 0.1452 0.5940
vn -0.5929 0.1604 0.7891
vn -0.4135 0.3239 0.8509
vn -0.9934 -0.0660 0.0935
vn -0.3584 0.1953 0.9129
vn 0.0010 0.4098 0.9122
vn 0.7062 0.3393 0.6215
vn 0.8677 0.2942 0.4008
vn -0.2085 0.4113 0.8873
vn 0.3131 0.3775 0.8714
vn -0.2565 -0.3443 -0.9031
vn -0.4433 -0.4634 -0.7673
vn -0.3253 -0.3058 -0.8948
vn -0.2620 -0.5199 -0.8131
vn 0.0077 -0.5432 -0.8396
vn -0.0762 -0.3867 -0.9191
vn 0.1873 -0.3993 -0.8975
vn 0.5364 -0.3790 -0.7541
vn 0.3135 -0.4755 -0.8220
vn -0.5472 -0.6088 -0.5743
vn -0.4679 -0.6024 -0.6467
vn -0.4570 -0.4422 -0.7718
vn 0.6560 -0.3674 -0.6593
vn 0.4069 -0.3263 -0.8532
vn 0.5540 -0.2793 -0.7843
vn -0.8358 -0.2312 -0.4979
vn -0.8445 -0.0649 -0.5316
vn -0.7194 -0.4105 -0.5603
vn -0.7902 0.0445 -0.6112
vn -0.6847 -0.2101 -0.6979
vn -0.5395 -0.4794 -0.6922
vn -0.4020 -0.5750 -0.7126
vn 0.6406 -0.1341 -0.7561
vn -0.6201 0.0772 -0.7807
vn 0.7107 0.0572 -0.7012
vn 0.7613 0.1879 -0.6206
vn 0.5576 0.1232 -0.8209
vn -0.6447 0.0371 -0.7635
vn -0.3985 0.0468 -0.9160
vn 0.7951 0.2000 -0.5725
vn -0.5529 -0.0855 -0.8289
vn -0.7696 -0.1353 -0.6240
vn -0.7093 -0.3375 -0.6188
vn -0.6770 -0.2954 -0.6741
vn -0.5171 -0.3261 -0.7914
vn 0.6331 0.1914 -0.7501
vn 0.6876 0.1700 -0.7059
vn 0.4880 0.1221 -0.8643
vn -0.7733 -0.3521 -0.5273
vn -0.6339 -0.2839 -0.7195
vn -0.6370 -0.3916 -0.6640
vn 0.8070 0.2247 -0.5461
vn -0.9295 -0.2269 -0.2909
vn 0.5739 0.0146 -0.8188
vn -0.9956 -0.0923 0.0143
vn -0.9914 0.1177 -0.0570
vn -0.9809 -0.0880 -0.1737
vn -0.9689 0.0685 -0.2378
vn -0.9529 0.0582 -0.2977
vn 0.8469 0.1032 -0.5217
vn -0.9752 -0.2211 0.0127
vn -0.9201 -0.1629 -0.3562
vn -0.9444 -0.2698 -0.1877
vn -0.9709 -0.2087 -0.1174
vn 0.9265 0.3119 -0.2103
vn -0.9867 -0.1388 0.0844
vn -0.9968 -0.0383 0.0700
vn -0.9953 -0.0500 -0.0835
vn 0.9354 0.3468 -0.0690
vn -0.9840 0.0091 -0.1778
vn 0.9267 0.3608 0.1047
vn 0.9654 0.2608 -0.0028
vn -0.9513 -0.0261 -0.3071
vn -0.9518 -0.0930 -0.2923
vn 0.9645 0.2194 0.1467
vn 0.9243 0.2104 0.3184
vn 0.9560 0.2068 0.2082
vn -0.8736 -0.2240 -0.4320
vn -0.0732 0.5173 0.8527
vn -0.4997 0.3825 0.7772
vn -0.8234 0.1891 0.5350
vn 0.4244 0.4943 0.7587
vn 0.7159 0.4490 0.5347
vn 0.3888 0.5751 0.7197
vn 0.8084 0.3813 0.4484
vn 0.5943 0.5228 0.6112
vn -0.0741 -0.1933 -0.9783
vn 0.2614 -0.2574 -0.9303
vn 0.4153 -0.1519 -0.8969
vn 0.1999 -0.1082 -0.9738
vn 0.0438 -0.2453 -0.9685
vn -0.4495 -0.3078 -0.8386
vn -0.4734 -0.0295 -0.8803
vn -0.2667 -0.0934 -0.9592
vn -0.3077 -0.3556 -0.8825
vn -0.2194 -0.3453 -0.9125
vn -0.1520 -0.1200 -0.9811
vn -0.1912 -0.2242 -0.9556
vn -0.0224 -0.0605 -0.9979
vn -0.0572 -0.0480 -0.9972
vn -0.1579 -0.1754 -0.9718
vn -0.0842 -0.0629 -0.9945
vn 0.0548 -0.0583 -0.9968
vn 0.2786 0.0097 -0.9604
vn -0.1774 0.0566 -0.9825
vn -0.0713 0.0918 -0.9932
vn -0.0329 0.0576 -0.9978
vn -0.0378 0.0790 -0.9962
vn -0.0373 0.0213 -0.9991
vn 0.4944 0.0005 -0.8692
vn -0.1680 -0.0054 -0.9858
vn -0.0732 0.0650 -0.9952
vn -0.0718 0.0660 -0.9952
vn -0.1212 0.0665 -0.9904
vn -0.0043 0.0565 -0.9984
vn 0.0549 0.0304 -0.9980
vn 0.1003 0.0759 -0.9921
vn 0.1269 0.1439 -0.9814
vn 0.4123 0.1884 -0.8913
vn 0.3444 0.0888 -0.9346
vn -0.0947 -0.2527 -0.9629
vn 0.3162 -0.0707 -0.9461
vn -0.5306 -0.4038 -0.7452
vn 0.3141 -0.2322 -0.9206
vn -0.9027 -0.1254 -0.4115
vn -0.7988 -0.2853 -0.5296
vn -0.8000 -0.1699 -0.5754
vn 0.6371 -0.0364 -0.7699
vn -0.8709 0.0336 -0.4903
vn -0.8418 0.0059 -0.5398
vn 0.7421 0.0217 -0.6700
vn 0.8579 0.1814 -0.4807
vn -0.9819 -0.1114 -0.1530
vn -0.9319 -0.1789 -0.3156
vn -0.8859 -0.1123 -0.4500
vn -0.9516 -0.0384 -0.3050
vn -0.8536 -0.0557 -0.5179
vn -0.8408 -0.1909 -0.5065
vn -0.9289 0.0194 -0.3699
vn 0.8987 0.2779 -0.3394
vn 0.8746 0.2842 -0.3928
vn 0.7751 0.2062 -0.5973
vn -0.8456 0.0283 -0.5331
vn -0.8736 -0.0677 -0.4818
vn 0.9804 0.1836 -0.0719
vn 0.9499 0.2029 -0.2377
vn -0.9812 -0.0370 0.1896
vn -0.9716 0.0584 0.2292
vn -0.7741 0.3383 0.5351
vn -0.9503 -0.1954 -0.2424
vn 0.8947 0.3177 0.3140
vn -0.4774 0.4868 0.7316
vn -0.9756 0.1707 0.1383
vn -0.8038 0.5153 0.2972
vn -0.4886 0.7174 0.4965
vn -0.9683 0.2323 -0.0914
vn -0.9408 -0.1117 -0.3199
vn 0.7130 0.5525 0.4317
vn 0.2130 0.6648 0.7160
vn 0.8128 0.4444 0.3767
vn 0.9239 0.3623 0.1233
vn -0.1574 0.6591 0.7354
vn -0.0325 0.8844 0.4655
vn 0.3204 0.8417 0.4346
vn 0.5501 0.6609 0.5105
vn -0.2585 0.9646 0.0527
vn 0.0907 0.9925 0.0815
vn 0.5656 0.7933 0.2252
vn 0.7026 0.6729 0.2313
vn -0.5896 -0.1127 -0.7998
vn -0.4050 -0.0766 -0.9111
vn -0.4156 -0.3820 -0.8255
vn -0.4973 -0.2333 -0.8356
vn -0.0228 -0.3248 -0.9455
vn -0.7209 0.0340 -0.6922
vn -0.7377 -0.0912 -0.6689
vn -0.6564 -0.0130 -0.7543
vn -0.5200 0.0129 -0.8540
vn -0.2584 0.0494 -0.9648
vn 0.4945 -0.0766 -0.8658
vn -0.3313 -0.0531 -0.9420
vn 0.6724 0.1018 -0.7332
vn -0.7807 -0.1419 -0.6085
vn -0.6009 -0.1442 -0.7862
vn 0.3494 0.0912 -0.9325
vn 0.7100 0.1779 -0.6814
vn -0.7121 -0.1319 -0.6895
vn 0.0467 -0.0897 -0.9949
vn 0.0183 0.0401 -0.9990
vn -0.5611 -0.1069 -0.8208
vn 0.4187 0.0254 -0.9078
vn -0.8599 0.0022 -0.5105
vn -0.7507 -0.0401 -0.6594
vn 0.8309 0.1422 -0.5379
vn 0.5267 0.0428 -0.8490
vn -0.6633 0.0105 -0.7483
vn -0.7463 0.0204 -0.6653
vn 0.9410 0.1673 -0.2940
vn 0.8009 0.1782 -0.5717
vn 0.8757 0.1792 -0.4484
vn -0.7041 -0.0631 -0.7073
vn -0.5690 0.1084 -0.8152
vn -0.4264 0.0612 -0.9025
vn 0.9853 0.1706 -0.0002
vn 0.9349 0.2060 -0.2889
vn 0.6337 0.2030 -0.7464
vn -0.6557 -0.2059 -0.7264
vn -0.4085 -0.0539 -0.9112
vn 0.7807 0.1954 -0.5935
vn -0.7182 -0.2479 -0.6502
vn -0.8680 -0.0267 -0.4958
vn -0.8796 0.4160 -0.2310
vn -0.6261 0.7791 -0.0331
vn -0.6663 -0.1166 -0.7365
vn -0.7765 0.1346 -0.6156
vn -0.6894 0.4805 -0.5421
vn -0.4713 -0.0804 -0.8783
vn -0.5617 0.1311 -0.8169
vn -0.3416 0.2875 -0.8948
vn -0.2762 0.0298 -0.9606
vn -0.0543 0.2281 -0.9721
vn -0.1458 0.1304 -0.9807
vn 0.1281 0.3059 -0.9434
vn 0.3335 0.4765 -0.8134
vn 0.8387 0.5180 0.1682
vn 0.8891 0.4131 -0.1971
vn 0.8004 0.4821 -0.3563
vn 0.7863 0.2931 -0.5439
vn 0.5259 0.2295 -0.8190
vn 0.5240 0.3603 -0.7717
vn 0.6858 0.5706 -0.4517
vn 0.2321 0.2179 -0.9480
vn 0.0587 0.1290 -0.9899
vn 0.9693 0.2395 0.0562
vn 0.9267 0.2928 -0.2357
vn 0.4920 0.1765 -0.8525
vn 0.3771 0.9261 -0.0111
vn -0.3903 0.8241 -0.4105
vn 0.0067 0.9368 -0.3498
vn -0.4549 0.4951 -0.7402
vn 0.2283 0.8130 -0.5356
vn -0.1474 0.6476 -0.7476
vn 0.1324 0.5260 -0.8401
vn -0.2022 0.2830 -0.9376
vn 0.6333 0.7682 -0.0938
vn 0.7874 0.6130 0.0650
vn 0.4554 0.7652 -0.4551
vn 0.6624 0.7050 -0.2534
vn 0.4571 0.6340 -0.6238
vn -0.2545 -0.2557 -0.9327
vn -0.0828 -0.1288 -0.9882
vn 0.2159 -0.1738 -0.9608
vn -0.0240 -0.0081 -0.9997
vn 0.0707 0.1102 -0.9914
vn 0.3995 0.1244 -0.9082
vn 0.2714 -0.0160 -0.9623
vn -0.2874 -0.1046 -0.9521
vn -0.5567 -0.0574 -0.8287
vn 0.2572 -0.0628 -0.9643
vn 0.0231 -0.0707 -0.9972
vn 0.3853 -0.0193 -0.9226
vn -0.4142 -0.0081 -0.9101
vn -0.2373 -0.0421 -0.9705
vn 0.2340 0.0096 -0.9722
vn 0.6698 0.0957 -0.7363
vn -0.6628 0.0684 -0.7457
vn -0.4395 0.0775 -0.8949
vn -0.4370 0.1468 -0.8874
vn -0.0123 0.1922 -0.9813
vn -0.1855 0.0749 -0.9798
vn -0.0880 0.0122 -0.9960
vn 0.2556 0.1073 -0.9608
vn -0.2300 0.1391 -0.9632
vn 0.2135 0.1937 -0.9575
vn 0.4690 0.2025 -0.8597
s 1
usemtl mtl1.130
f 23//1 3//2 5//3
f 1//4 3//2 23//1
f 2//5 3//2 1//4
f 28//6 2//5 1//4
f 3//2 2//5 6//7
f 2//5 28//6 4//8
f 28//6 21//9 4//8
f 4//8 7//10 2//5
f 6//7 2//5 7//10
f 3//2 6//7 5//3
f 7//10 4//8 8//11
f 9//12 5//3 6//7
f 9//12 10//13 40//14
f 6//7 7//10 11//15
f 7//10 12//16 11//15
f 9//12 6//7 10//13
f 6//7 11//15 10//13
f 11//15 12//16 46//17
f 11//15 46//17 10//13
f 7//10 8//11 12//16
f 38//18 12//16 8//11
f 40//14 10//13 46//17
f 38//18 41//19 12//16
f 17//20 18//21 59//22
f 13//23 17//20 59//22
f 24//24 14//25 27//26
f 23//1 24//24 27//26
f 24//24 15//27 14//25
f 27//26 16//28 28//6
f 16//28 19//29 28//6
f 19//29 20//30 28//6
f 14//25 16//28 27//26
f 17//20 16//28 14//25
f 16//28 17//20 19//29
f 17//20 14//25 18//21
f 19//29 17//20 13//23
f 18//21 14//25 15//27
f 19//29 13//23 64//31
f 64//31 20//30 19//29
f 66//32 21//9 20//30
f 30//33 22//34 25//35
f 30//33 25//35 23//1
f 25//35 24//24 23//1
f 26//36 24//24 25//35
f 26//36 25//35 22//34
f 24//24 26//36 15//27
f 27//26 1//4 23//1
f 28//6 1//4 27//26
f 20//30 21//9 28//6
f 21//9 31//37 4//8
f 30//33 33//38 29//39
f 29//39 22//34 30//33
f 23//1 5//3 30//33
f 8//11 4//8 31//37
f 34//40 91//41 32//42
f 33//38 5//3 9//12
f 9//12 37//43 33//38
f 9//12 40//14 37//43
f 34//40 29//39 33//38
f 29//39 32//42 22//34
f 32//42 29//39 34//40
f 30//33 5//3 33//38
f 8//11 35//44 38//18
f 39//45 38//18 35//44
f 35//44 8//11 31//37
f 31//37 36//46 35//44
f 36//46 31//37 86//47
f 92//48 91//41 34//40
f 34//40 37//43 92//48
f 37//43 34//40 33//38
f 38//18 39//45 41//19
f 36//46 39//45 35//44
f 36//46 42//49 39//45
f 40//14 92//48 37//43
f 42//49 41//19 39//45
f 94//50 41//19 42//49
f 40//14 44//51 92//48
f 41//19 43//52 12//16
f 43//52 47//53 12//16
f 41//19 94//50 43//52
f 43//52 94//50 96//54
f 12//16 47//53 46//17
f 40//14 45//55 44//51
f 48//56 40//14 46//17
f 40//14 48//56 45//55
f 48//56 102//57 45//55
f 48//56 50//58 102//57
f 48//56 46//17 49//59
f 46//17 47//53 49//59
f 43//52 51//60 47//53
f 43//52 96//54 51//60
f 50//58 106//61 102//57
f 106//61 50//58 54//62
f 49//59 47//53 52//63
f 48//56 49//59 50//58
f 54//62 50//58 49//59
f 55//64 49//59 52//63
f 55//64 54//62 49//59
f 47//53 51//60 52//63
f 96//54 53//65 51//60
f 51//60 53//65 52//63
f 52//63 108//66 55//64
f 53//65 108//66 52//63
f 55//64 169//67 54//62
f 116//68 54//62 169//67
f 62//69 118//70 56//71
f 118//70 119//72 56//71
f 119//72 120//73 56//71
f 56//71 120//73 67//74
f 120//73 121//75 67//74
f 18//21 61//76 59//22
f 18//21 57//77 61//76
f 15//27 76//78 57//77
f 57//77 18//21 15//27
f 58//79 57//77 76//78
f 58//79 61//76 57//77
f 58//79 63//80 61//76
f 63//80 58//79 79//81
f 76//78 79//81 58//79
f 65//82 64//31 13//23
f 13//23 59//22 60//83
f 13//23 60//83 65//82
f 60//83 59//22 61//76
f 63//80 62//69 61//76
f 61//76 62//69 60//83
f 60//83 56//71 65//82
f 56//71 60//83 62//69
f 63//80 126//84 62//69
f 118//70 62//69 126//84
f 64//31 66//32 20//30
f 64//31 65//82 66//32
f 65//82 67//74 66//32
f 56//71 67//74 65//82
f 67//74 69//85 66//32
f 67//74 121//75 69//85
f 68//86 69//85 70//87
f 68//86 66//32 69//85
f 121//75 128//88 69//85
f 71//89 15//27 26//36
f 71//89 26//36 73//90
f 71//89 72//91 77//92
f 72//91 71//89 73//90
f 73//90 26//36 22//34
f 75//93 72//91 73//90
f 83//94 75//93 73//90
f 74//95 78//96 72//91
f 74//95 72//91 75//93
f 74//95 134//97 78//96
f 134//97 136//98 78//96
f 71//89 77//92 15//27
f 15//27 77//92 76//78
f 76//78 77//92 72//91
f 76//78 72//91 78//96
f 76//78 78//96 79//81
f 78//96 136//98 79//81
f 79//81 136//98 137//99
f 80//100 31//37 21//9
f 68//86 21//9 66//32
f 21//9 68//86 80//100
f 68//86 70//87 80//100
f 31//37 80//100 84//101
f 70//87 81//102 80//100
f 70//87 129//103 81//102
f 84//101 80//100 81//102
f 82//104 84//101 81//102
f 81//102 129//103 138//105
f 81//102 138//105 82//104
f 22//34 88//106 83//94
f 22//34 83//94 73//90
f 86//47 31//37 84//101
f 85//107 86//47 84//101
f 85//107 87//108 86//47
f 85//107 84//101 82//104
f 85//107 82//104 139//109
f 148//110 83//94 88//106
f 141//111 83//94 148//110
f 86//47 89//112 36//46
f 89//112 86//47 87//108
f 149//113 89//112 87//108
f 149//113 87//108 146//114
f 88//106 22//34 32//42
f 32//42 91//41 88//106
f 146//114 244//115 149//113
f 89//112 90//116 36//46
f 90//116 42//49 36//46
f 149//113 151//117 89//112
f 210//118 91//41 92//48
f 90//116 93//119 42//49
f 89//112 151//117 90//116
f 93//119 90//116 151//117
f 42//49 93//119 94//50
f 93//119 152//120 95//121
f 152//120 156//122 95//121
f 95//121 94//50 93//119
f 94//50 95//121 96//54
f 99//123 95//121 158//124
f 44//51 155//125 92//48
f 97//126 155//125 44//51
f 96//54 95//121 98//127
f 98//127 95//121 99//123
f 44//51 100//128 97//126
f 45//55 100//128 44//51
f 100//128 161//129 97//126
f 53//65 96//54 98//127
f 98//127 103//130 53//65
f 103//130 98//127 99//123
f 103//130 99//123 104//131
f 99//123 160//132 104//131
f 164//133 101//134 168//135
f 101//134 100//128 105//136
f 168//135 101//134 105//136
f 45//55 102//57 100//128
f 105//136 100//128 102//57
f 108//66 53//65 110//137
f 110//137 53//65 103//130
f 110//137 103//130 104//131
f 104//131 165//138 110//137
f 104//131 160//132 165//138
f 106//61 105//136 102//57
f 113//139 106//61 107//140
f 113//139 105//136 106//61
f 107//140 54//62 116//68
f 106//61 54//62 107//140
f 109//141 169//67 55//64
f 55//64 108//66 109//141
f 169//67 109//141 179//142
f 179//142 109//141 111//143
f 111//143 109//141 108//66
f 108//66 110//137 112//144
f 112//144 111//143 108//66
f 112//144 110//137 165//138
f 111//143 112//144 170//145
f 112//144 165//138 170//145
f 114//146 107//140 116//68
f 113//139 107//140 114//146
f 114//146 115//147 113//139
f 114//146 117//148 115//147
f 117//148 114//146 116//68
f 169//67 117//148 116//68
f 111//143 170//145 179//142
f 105//136 113//139 174//149
f 120//73 122//150 121//75
f 119//72 122//150 120//73
f 118//70 123//151 119//72
f 119//72 123//151 122//150
f 122//150 186//152 124//153
f 124//153 121//75 122//150
f 118//70 185//154 123//151
f 123//151 186//152 122//150
f 123//151 185//154 186//152
f 185//154 188//155 186//152
f 230//156 185//154 118//70
f 125//157 124//153 186//152
f 118//70 126//84 127//158
f 118//70 127//158 230//156
f 128//88 70//87 69//85
f 128//88 121//75 124//153
f 70//87 128//88 129//103
f 129//103 131//159 138//105
f 129//103 128//88 130//160
f 130//160 131//159 129//103
f 130//160 128//88 124//153
f 132//161 131//159 130//160
f 131//159 139//109 138//105
f 125//157 130//160 124//153
f 132//161 192//162 131//159
f 132//161 130//160 125//157
f 131//159 192//162 139//109
f 139//109 192//162 241//163
f 74//95 75//93 133//164
f 140//165 75//93 83//94
f 133//164 75//93 140//165
f 136//98 134//97 137//99
f 143//166 133//164 140//165
f 74//95 133//164 135//167
f 74//95 135//167 134//97
f 143//166 135//167 133//164
f 135//167 144//168 134//97
f 144//168 137//99 134//97
f 198//169 135//167 145//170
f 79//81 137//99 63//80
f 198//169 126//84 137//99
f 137//99 144//168 198//169
f 63//80 137//99 126//84
f 82//104 138//105 139//109
f 139//109 241//163 244//115
f 140//165 83//94 141//111
f 142//171 143//166 140//165
f 140//165 141//111 142//171
f 142//171 195//172 143//166
f 142//171 141//111 200//173
f 143//166 195//172 197//174
f 195//172 142//171 200//173
f 198//169 144//168 135//167
f 197//174 135//167 143//166
f 145//170 135//167 197//174
f 85//107 146//114 87//108
f 139//109 146//114 85//107
f 146//114 139//109 244//115
f 141//111 148//110 147//175
f 141//111 147//175 200//173
f 150//176 148//110 88//106
f 147//175 148//110 201//177
f 204//178 149//113 244//115
f 91//41 150//176 88//106
f 149//113 204//178 151//117
f 91//41 210//118 150//176
f 152//120 151//117 153//179
f 153//179 151//117 204//178
f 153//179 204//178 208//180
f 206//181 150//176 210//118
f 151//117 152//120 93//119
f 152//120 154//182 156//122
f 152//120 153//179 154//182
f 153//179 208//180 154//182
f 210//118 155//125 214//183
f 210//118 92//48 155//125
f 95//121 156//122 158//124
f 156//122 157//184 158//124
f 157//184 156//122 154//182
f 157//184 154//182 212//185
f 212//185 215//186 157//184
f 155//125 159//187 214//183
f 155//125 97//126 159//187
f 99//123 158//124 160//132
f 162//188 158//124 157//184
f 160//132 158//124 162//188
f 161//129 159//187 97//126
f 164//133 159//187 161//129
f 159//187 164//133 218//189
f 217//190 159//187 218//189
f 101//134 161//129 100//128
f 218//189 164//133 163//191
f 164//133 161//129 101//134
f 160//132 166//192 165//138
f 160//132 162//188 166//192
f 268//193 163//191 164//133
f 168//135 172//194 164//133
f 165//138 171//195 170//145
f 165//138 166//192 171//195
f 164//133 172//194 268//193
f 168//135 105//136 167//196
f 170//145 225//197 179//142
f 170//145 171//195 225//197
f 171//195 224//198 225//197
f 173//199 172//194 168//135
f 172//194 173//199 226//200
f 167//196 174//149 173//199
f 167//196 105//136 174//149
f 173//199 168//135 167//196
f 174//149 113//139 175//201
f 174//149 180//202 173//199
f 117//148 169//67 178//203
f 117//148 176//204 115//147
f 113//139 115//147 175//201
f 117//148 177//205 176//204
f 178//203 177//205 117//148
f 176//204 175//201 115//147
f 176//204 183//206 175//201
f 177//205 183//206 176//204
f 179//142 178//203 169//67
f 178//203 179//142 177//205
f 174//149 175//201 180//202
f 180//202 175//201 182//207
f 180//202 182//207 181//208
f 183//206 182//207 175//201
f 229//209 181//208 182//207
f 183//206 229//209 182//207
f 183//206 184//210 229//209
f 184//210 183//206 177//205
f 184//210 177//205 179//142
f 184//210 179//142 225//197
f 187//211 125//157 186//152
f 125//157 187//211 189//212
f 132//161 125//157 189//212
f 186//152 188//155 187//211
f 188//155 190//213 187//211
f 185//154 233//214 188//155
f 127//158 243//215 232//216
f 232//216 230//156 127//158
f 132//161 189//212 191//217
f 193//218 189//212 187//211
f 193//218 191//217 189//212
f 190//213 193//218 187//211
f 233//214 190//213 188//155
f 230//156 233//214 185//154
f 132//161 191//217 192//162
f 194//219 241//163 192//162
f 194//219 192//162 191//217
f 191//217 193//218 194//219
f 194//219 193//218 236//220
f 285//221 194//219 236//220
f 285//221 240//222 194//219
f 241//163 194//219 240//222
f 127//158 126//84 243//215
f 195//172 196//223 197//174
f 196//223 247//224 197//174
f 145//170 199//225 198//169
f 247//224 145//170 197//174
f 199//225 145//170 247//224
f 250//226 198//169 199//225
f 242//227 198//169 250//226
f 243//215 126//84 198//169
f 200//173 252//228 195//172
f 246//229 196//223 195//172
f 252//228 246//229 195//172
f 200//173 147//175 201//177
f 200//173 201//177 253//230
f 253//230 201//177 203//231
f 200//173 253//230 252//228
f 203//231 202//232 258//233
f 201//177 148//110 202//232
f 202//232 148//110 150//176
f 203//231 201//177 202//232
f 253//230 203//231 255//234
f 207//235 150//176 206//181
f 202//232 150//176 207//235
f 205//236 208//180 204//178
f 209//237 208//180 205//236
f 212//185 154//182 208//180
f 208//180 209//237 212//185
f 213//238 212//185 209//237
f 214//183 211//239 210//118
f 206//181 210//118 211//239
f 217//190 211//239 159//187
f 207//235 206//181 211//239
f 162//188 157//184 215//186
f 215//186 212//185 213//238
f 261//240 215//186 213//238
f 216//241 215//186 261//240
f 262//242 211//239 217//190
f 207//235 211//239 262//242
f 214//183 159//187 211//239
f 216//241 162//188 215//186
f 218//189 262//242 217//190
f 216//241 314//243 220//244
f 162//188 216//241 219//245
f 220//244 219//245 216//241
f 223//246 162//188 219//245
f 223//246 166//192 162//188
f 219//245 221//247 223//246
f 219//245 220//244 221//247
f 171//195 166//192 222//248
f 223//246 222//248 166//192
f 265//249 222//248 223//246
f 265//249 223//246 221//247
f 266//250 265//249 221//247
f 163//191 268//193 264//251
f 171//195 222//248 224//198
f 222//248 265//249 224//198
f 225//197 224//198 270//252
f 267//253 224//198 265//249
f 267//253 270//252 224//198
f 226//200 268//193 172//194
f 225//197 270//252 269//254
f 173//199 228//255 226//200
f 226//200 273//256 268//193
f 180//202 228//255 173//199
f 228//255 180//202 181//208
f 225//197 227//257 184//210
f 227//257 225//197 269//254
f 231//258 234//259 230//156
f 230//156 232//216 231//258
f 231//258 232//216 239//260
f 281//261 231//258 239//260
f 230//156 234//259 233//214
f 234//259 231//258 237//262
f 280//263 237//262 281//261
f 237//262 231//258 281//261
f 233//214 235//264 190//213
f 190//213 235//264 193//218
f 235//264 236//220 193//218
f 235//264 238//265 236//220
f 234//259 237//262 233//214
f 233//214 237//262 235//264
f 237//262 238//265 235//264
f 287//266 285//221 236//220
f 236//220 238//265 287//266
f 232//216 243//215 291//267
f 239//260 232//216 291//267
f 281//261 239//260 291//267
f 286//268 241//163 240//222
f 285//221 286//268 240//222
f 241//163 286//268 292//269
f 198//169 242//227 243//215
f 243//215 242//227 291//267
f 296//270 291//267 242//227
f 244//115 254//271 204//178
f 247//224 196//223 245//272
f 246//229 245//272 196//223
f 246//229 295//273 245//272
f 199//225 247//224 248//274
f 249//275 248//274 247//224
f 251//276 248//274 249//275
f 245//272 249//275 247//224
f 199//225 248//274 250//226
f 251//276 250//226 248//274
f 251//276 242//227 250//226
f 254//271 244//115 301//277
f 255//234 297//278 253//230
f 253//230 297//278 252//228
f 254//271 304//279 205//236
f 416//280 297//278 255//234
f 254//271 205//236 204//178
f 304//279 257//281 205//236
f 203//231 258//233 256//282
f 256//282 255//234 203//231
f 416//280 255//234 256//282
f 205//236 257//281 209//237
f 259//283 209//237 257//281
f 258//233 202//232 207//235
f 259//283 213//238 209//237
f 259//283 261//240 213//238
f 261//240 259//283 260//284
f 260//284 312//285 261//240
f 257//281 260//284 259//283
f 308//286 260//284 257//281
f 309//287 312//285 260//284
f 313//288 258//233 207//235
f 256//282 258//233 313//288
f 261//240 314//243 216//241
f 312//285 314//243 261//240
f 316//289 262//242 263//290
f 207//235 262//242 316//289
f 314//243 365//291 220//244
f 218//189 263//290 262//242
f 315//292 218//189 163//191
f 263//290 218//189 315//292
f 316//289 263//290 315//292
f 220//244 266//250 221//247
f 315//292 163//191 318//293
f 264//251 318//293 163//191
f 265//249 266//250 267//253
f 264//251 268//193 321//294
f 319//295 264//251 321//294
f 270//252 267//253 438//296
f 325//297 268//193 273//256
f 269//254 270//252 322//298
f 323//299 268//193 325//297
f 228//255 273//256 226//200
f 228//255 274//300 273//256
f 227//257 271//301 279//302
f 269//254 322//298 272//303
f 269//254 272//303 227//257
f 272//303 271//301 227//257
f 276//304 326//305 273//256
f 274//300 276//304 273//256
f 275//306 276//304 274//300
f 275//306 181//208 277//307
f 276//304 275//306 329//308
f 275//306 274//300 228//255
f 275//306 228//255 181//208
f 181//208 229//209 277//307
f 277//307 229//209 278//309
f 184//210 279//302 229//209
f 229//209 279//302 278//309
f 278//309 279//302 324//310
f 184//210 227//257 279//302
f 324//310 279//302 271//301
f 275//306 277//307 329//308
f 238//265 237//262 280//263
f 281//261 282//311 280//263
f 282//311 281//261 291//267
f 291//267 347//312 282//311
f 282//311 400//313 345//314
f 238//265 280//263 284//315
f 283//316 238//265 284//315
f 283//316 287//266 238//265
f 289//317 287//266 283//316
f 282//311 345//314 280//263
f 345//314 284//315 280//263
f 284//315 345//314 344//318
f 283//316 284//315 344//318
f 283//316 346//319 289//317
f 344//318 346//319 283//316
f 285//221 288//320 286//268
f 288//320 292//269 286//268
f 285//221 287//266 290//321
f 290//321 288//320 285//221
f 289//317 290//321 287//266
f 346//319 290//321 289//317
f 290//321 349//322 348//323
f 290//321 348//323 288//320
f 349//322 290//321 346//319
f 291//267 296//270 347//312
f 347//312 400//313 282//311
f 244//115 241//163 292//269
f 244//115 292//269 293//324
f 288//320 293//324 292//269
f 293//324 288//320 294//325
f 288//320 348//323 294//325
f 294//325 348//323 352//326
f 249//275 245//272 295//273
f 300//327 251//276 249//275
f 354//328 251//276 300//327
f 249//275 295//273 300//327
f 251//276 296//270 242//227
f 296//270 251//276 354//328
f 301//277 244//115 293//324
f 293//324 303//329 301//277
f 294//325 303//329 293//324
f 294//325 352//326 303//329
f 298//330 252//228 297//278
f 252//228 298//330 246//229
f 246//229 298//330 295//273
f 298//330 299//331 295//273
f 295//273 299//331 300//327
f 300//327 299//331 405//332
f 301//277 302//333 254//271
f 302//333 304//279 254//271
f 303//329 302//333 301//277
f 302//333 305//334 304//279
f 352//326 306//335 303//329
f 306//335 302//333 303//329
f 306//335 305//334 302//333
f 305//334 257//281 304//279
f 306//335 307//336 305//334
f 352//326 355//337 306//335
f 355//337 357//338 306//335
f 357//338 307//336 306//335
f 308//286 309//287 260//284
f 305//334 308//286 257//281
f 310//339 308//286 305//334
f 308//286 310//339 309//287
f 307//336 310//339 305//334
f 310//339 311//340 309//287
f 307//336 360//341 310//339
f 360//341 311//340 310//339
f 420//342 312//285 311//340
f 311//340 312//285 309//287
f 313//288 416//280 256//282
f 362//343 416//280 313//288
f 363//344 314//243 312//285
f 363//344 365//291 314//243
f 313//288 207//235 367//345
f 367//345 207//235 316//289
f 315//292 367//345 316//289
f 369//346 367//345 315//292
f 365//291 266//250 220//244
f 365//291 428//347 266//250
f 317//348 315//292 318//293
f 315//292 317//348 369//346
f 267//253 266//250 428//347
f 318//293 264//251 320//349
f 319//295 320//349 264//251
f 317//348 318//293 320//349
f 320//349 319//295 371//350
f 317//348 320//349 371//350
f 371//350 319//295 321//294
f 373//351 371//350 321//294
f 322//298 270//252 375//352
f 268//193 323//299 321//294
f 271//301 272//303 377//353
f 377//353 272//303 322//298
f 376//354 321//294 323//299
f 376//354 323//299 378//355
f 273//256 326//305 325//297
f 271//301 377//353 324//310
f 379//356 324//310 377//353
f 328//357 323//299 325//297
f 330//358 328//357 325//297
f 323//299 328//357 378//355
f 330//358 325//297 326//305
f 326//305 334//359 330//358
f 276//304 329//308 326//305
f 326//305 329//308 334//359
f 277//307 331//360 329//308
f 383//361 327//362 379//356
f 277//307 278//309 327//362
f 327//362 278//309 324//310
f 327//362 324//310 379//356
f 328//357 330//358 332//363
f 335//364 329//308 331//360
f 331//360 336//365 335//364
f 331//360 383//361 336//365
f 331//360 277//307 327//362
f 331//360 327//362 383//361
f 330//358 338//366 332//363
f 334//359 335//364 338//366
f 334//359 338//366 330//358
f 335//364 333//367 338//366
f 334//359 329//308 335//364
f 336//365 333//367 335//364
f 336//365 384//368 333//367
f 385//369 384//368 336//365
f 385//369 336//365 383//361
f 338//366 337//370 332//363
f 338//366 339//371 337//370
f 382//372 332//363 337//370
f 333//367 339//371 338//366
f 333//367 388//373 339//371
f 337//370 339//371 342//374
f 339//371 388//373 342//374
f 337//370 342//374 340//375
f 342//374 341//376 340//375
f 342//374 343//377 341//376
f 341//376 343//377 390//378
f 342//374 388//373 343//377
f 343//377 388//373 390//378
f 344//318 351//379 346//319
f 351//379 349//322 346//319
f 349//322 350//380 348//323
f 348//323 350//380 352//326
f 351//379 350//380 349//322
f 296//270 407//381 347//312
f 407//381 400//313 347//312
f 352//326 350//380 353//382
f 300//327 405//332 354//328
f 354//328 405//332 406//383
f 406//383 296//270 354//328
f 355//337 352//326 353//382
f 355//337 353//382 358//384
f 297//278 356//385 298//330
f 355//337 358//384 357//338
f 361//386 357//338 358//384
f 415//387 361//386 358//384
f 415//387 418//388 361//386
f 416//280 356//385 297//278
f 357//338 360//341 307//336
f 360//341 359//389 311//340
f 359//389 420//342 311//340
f 361//386 360//341 357//338
f 361//386 359//389 360//341
f 418//388 359//389 361//386
f 420//342 363//344 312//285
f 422//390 416//280 362//343
f 364//391 362//343 313//288
f 423//392 422//390 362//343
f 423//392 362//343 364//391
f 367//345 368//393 313//288
f 364//391 313//288 368//393
f 364//391 368//393 423//392
f 366//394 369//346 370//395
f 366//394 367//345 369//346
f 367//345 366//394 426//396
f 426//396 368//393 367//345
f 369//346 317//348 370//395
f 429//397 366//394 370//395
f 426//396 366//394 429//397
f 267//253 433//398 438//296
f 436//399 438//296 433//398
f 372//400 317//348 371//350
f 373//351 372//400 371//350
f 438//296 375//352 270//252
f 373//351 321//294 376//354
f 374//401 373//351 376//354
f 530//402 373//351 439//403
f 439//403 373//351 374//401
f 377//353 375//352 443//404
f 322//298 375//352 377//353
f 374//401 376//354 441//405
f 375//352 440//406 443//404
f 441//405 376//354 378//355
f 379//356 448//407 383//361
f 378//355 382//372 380//408
f 381//409 378//355 380//408
f 381//409 441//405 378//355
f 446//410 441//405 381//409
f 382//372 328//357 332//363
f 378//355 328//357 382//372
f 449//411 385//369 383//361
f 383//361 448//407 449//411
f 382//372 396//412 380//408
f 386//413 381//409 380//408
f 380//408 396//412 386//413
f 333//367 384//368 388//373
f 389//414 388//373 384//368
f 384//368 385//369 389//414
f 452//415 389//414 385//369
f 387//416 396//412 382//372
f 381//409 386//413 451//417
f 451//417 386//413 396//412
f 387//416 382//372 337//370
f 387//416 337//370 340//375
f 341//376 394//418 340//375
f 341//376 390//378 394//418
f 390//378 388//373 391//419
f 388//373 389//414 391//419
f 391//419 397//420 390//378
f 391//419 389//414 453//421
f 391//419 453//421 398//422
f 393//423 396//412 458//424
f 396//412 392//425 458//424
f 456//426 458//424 392//425
f 457//427 393//423 458//424
f 395//428 387//416 340//375
f 340//375 394//418 395//428
f 395//428 396//412 387//416
f 395//428 392//425 396//412
f 456//426 392//425 395//428
f 395//428 459//429 456//426
f 395//428 394//418 459//429
f 397//420 398//422 463//430
f 397//420 391//419 398//422
f 390//378 397//420 463//430
f 549//431 463//430 398//422
f 456//426 459//429 460//432
f 459//429 394//418 399//433
f 390//378 399//433 394//418
f 399//433 390//378 463//430
f 466//434 401//435 478//436
f 400//313 401//435 345//314
f 344//318 345//314 402//437
f 402//437 345//314 401//435
f 402//437 403//438 344//318
f 466//434 402//437 401//435
f 403//438 402//437 465//439
f 464//440 403//438 465//439
f 351//379 408//441 350//380
f 408//441 351//379 404//442
f 403//438 351//379 344//318
f 403//438 404//442 351//379
f 299//331 414//443 405//332
f 475//444 406//383 405//332
f 296//270 475//444 407//381
f 477//445 407//381 475//444
f 400//313 407//381 477//445
f 477//445 401//435 400//313
f 404//442 403//438 464//440
f 408//441 410//446 353//382
f 350//380 408//441 353//382
f 415//387 410//446 408//441
f 408//441 404//442 469//447
f 415//387 408//441 409//448
f 469//447 409//448 408//441
f 358//384 353//382 410//446
f 358//384 410//446 415//387
f 356//385 411//449 298//330
f 356//385 416//280 412//450
f 356//385 412//450 411//449
f 298//330 411//449 413//451
f 417//452 412//450 416//280
f 471//453 411//449 412//450
f 412//450 417//452 471//453
f 298//330 413//451 299//331
f 413//451 414//443 299//331
f 411//449 471//453 413//451
f 414//443 413//451 470//454
f 470//454 473//455 414//443
f 470//454 413//451 471//453
f 414//443 473//455 405//332
f 473//455 475//444 405//332
f 406//383 475//444 296//270
f 409//448 419//456 415//387
f 417//452 416//280 422//390
f 422//390 484//457 417//452
f 417//452 484//457 471//453
f 419//456 418//388 415//387
f 419//456 421//458 418//388
f 420//342 508//459 363//344
f 421//458 502//460 508//459
f 359//389 418//388 420//342
f 418//388 421//458 420//342
f 508//459 420//342 421//458
f 423//392 424//461 422//390
f 422//390 424//461 503//462
f 425//463 363//344 508//459
f 424//461 423//392 512//464
f 424//461 512//464 503//462
f 425//463 365//291 363//344
f 427//465 423//392 368//393
f 426//396 427//465 368//393
f 426//396 430//466 427//465
f 512//464 423//392 427//465
f 515//467 516//468 427//465
f 365//291 425//463 428//347
f 509//469 428//347 425//463
f 432//470 428//347 518//471
f 509//469 518//471 428//347
f 426//396 429//397 519//472
f 519//472 430//466 426//396
f 519//472 570//473 430//466
f 427//465 430//466 515//467
f 514//474 515//467 430//466
f 428//347 431//475 267//253
f 431//475 433//398 267//253
f 431//475 432//470 433//398
f 432//470 431//475 428//347
f 433//398 432//470 518//471
f 522//476 519//472 429//397
f 436//399 433//398 525//477
f 317//348 434//478 370//395
f 434//478 317//348 372//400
f 437//479 434//478 372//400
f 435//480 370//395 434//478
f 435//480 434//478 437//479
f 429//397 370//395 522//476
f 522//476 370//395 435//480
f 372//400 373//351 437//479
f 531//481 437//479 373//351
f 437//479 526//482 435//480
f 531//481 526//482 437//479
f 530//402 531//481 373//351
f 436//399 529//483 438//296
f 439//403 374//401 442//484
f 439//403 442//484 530//402
f 529//483 440//406 438//296
f 438//296 440//406 375//352
f 374//401 441//405 442//484
f 532//485 442//484 533//486
f 533//486 442//484 536//487
f 530//402 442//484 532//485
f 443//404 440//406 445//488
f 442//484 444//489 536//487
f 441//405 444//489 442//484
f 443//404 445//488 377//353
f 444//489 441//405 446//410
f 446//410 447//490 444//489
f 538//491 444//489 447//490
f 540//492 379//356 377//353
f 540//492 377//353 445//488
f 447//490 446//410 381//409
f 541//493 538//491 447//490
f 379//356 540//492 448//407
f 540//492 450//494 448//407
f 450//494 449//411 448//407
f 381//409 451//417 447//490
f 385//369 449//411 452//415
f 449//411 450//494 542//495
f 542//495 452//415 449//411
f 447//490 543//496 541//493
f 389//414 452//415 453//421
f 451//417 396//412 393//423
f 451//417 457//427 447//490
f 447//490 457//427 544//497
f 543//496 447//490 544//497
f 453//421 452//415 454//498
f 451//417 393//423 457//427
f 455//499 398//422 453//421
f 453//421 454//498 455//499
f 545//500 455//499 454//498
f 548//501 544//497 457//427
f 455//499 549//431 398//422
f 545//500 549//431 455//499
f 460//432 558//502 456//426
f 456//426 558//502 551//503
f 551//503 546//504 458//424
f 458//424 456//426 551//503
f 463//430 461//505 399//433
f 459//429 399//433 461//505
f 463//430 462//506 461//505
f 558//502 460//432 459//429
f 559//507 558//502 459//429
f 461//505 559//507 459//429
f 462//506 463//430 550//508
f 550//508 463//430 549//431
f 559//507 461//505 557//509
f 557//509 461//505 462//506
f 401//435 477//445 478//436
f 478//436 481//510 466//434
f 465//439 467//511 464//440
f 469//447 404//442 464//440
f 469//447 464//440 467//511
f 482//512 469//447 467//511
f 465//439 402//437 466//434
f 482//512 467//511 483//513
f 468//514 465//439 466//434
f 467//511 465//439 468//514
f 466//434 481//510 468//514
f 483//513 467//511 468//514
f 472//515 470//454 471//453
f 471//453 485//516 472//515
f 472//515 485//516 486//517
f 474//518 472//515 486//517
f 472//515 473//455 470//454
f 474//518 473//455 472//515
f 473//455 474//518 476//519
f 476//519 474//518 488//520
f 475//444 473//455 476//519
f 477//445 475//444 476//519
f 477//445 476//519 479//521
f 489//522 479//521 476//519
f 488//520 489//522 476//519
f 490//523 479//521 489//522
f 478//436 477//445 479//521
f 480//524 481//510 478//436
f 478//436 479//521 480//524
f 479//521 492//525 480//524
f 491//526 481//510 480//524
f 483//513 481//510 491//526
f 409//448 482//512 419//456
f 494//527 482//512 483//513
f 483//513 468//514 481//510
f 483//513 491//526 494//527
f 469//447 482//512 409//448
f 484//457 485//516 471//453
f 484//457 422//390 503//462
f 485//516 484//457 503//462
f 488//520 486//517 487//528
f 486//517 485//516 487//528
f 486//517 488//520 474//518
f 503//462 487//528 485//516
f 487//528 503//462 498//529
f 488//520 495//530 489//522
f 488//520 487//528 495//530
f 487//528 498//529 495//530
f 489//522 496//531 490//523
f 489//522 495//530 496//531
f 479//521 490//523 492//525
f 492//525 490//523 497//532
f 480//524 492//525 491//526
f 492//525 497//532 491//526
f 493//533 482//512 494//527
f 482//512 493//533 419//456
f 419//456 493//533 421//458
f 496//531 497//532 490//523
f 502//460 421//458 493//533
f 494//527 502//460 493//533
f 503//462 504//534 498//529
f 498//529 499//535 495//530
f 499//535 498//529 505//536
f 495//530 499//535 496//531
f 496//531 499//535 500//537
f 499//535 507//538 500//537
f 496//531 500//537 497//532
f 500//537 507//538 501//539
f 491//526 497//532 501//539
f 497//532 500//537 501//539
f 501//539 494//527 491//526
f 504//534 513//540 498//529
f 505//536 498//529 513//540
f 499//535 505//536 507//538
f 505//536 513//540 507//538
f 511//541 510//542 506//543
f 506//543 510//542 509//469
f 501//539 507//538 494//527
f 511//541 506//543 507//538
f 507//538 506//543 494//527
f 506//543 502//460 494//527
f 509//469 502//460 506//543
f 508//459 502//460 425//463
f 504//534 503//462 512//464
f 513//540 504//534 517//544
f 511//541 518//471 510//542
f 511//541 513//540 518//471
f 513//540 511//541 507//538
f 509//469 425//463 502//460
f 427//465 516//468 512//464
f 517//544 512//464 516//468
f 512//464 517//544 504//534
f 520//545 513//540 517//544
f 513//540 520//545 518//471
f 509//469 510//542 518//471
f 515//467 514//474 568//546
f 568//546 516//468 515//467
f 568//546 517//544 516//468
f 569//547 520//545 517//544
f 525//477 433//398 518//471
f 520//545 525//477 518//471
f 514//474 430//466 570//473
f 568//546 514//474 570//473
f 521//548 435//480 526//482
f 522//476 435//480 521//548
f 522//476 523//549 519//472
f 522//476 521//548 523//549
f 521//548 524//550 523//549
f 523//549 524//550 570//473
f 523//549 570//473 519//472
f 528//551 525//477 569//547
f 528//551 436//399 525//477
f 569//547 525//477 520//545
f 527//552 521//548 526//482
f 527//552 526//482 531//481
f 521//548 527//552 524//550
f 436//399 528//551 529//483
f 531//481 579//553 527//552
f 577//554 529//483 528//551
f 531//481 530//402 532//485
f 531//481 532//485 579//553
f 529//483 534//555 440//406
f 534//555 529//483 577//554
f 445//488 440//406 534//555
f 536//487 444//489 535//556
f 538//491 535//556 444//489
f 535//556 537//557 536//487
f 586//558 537//557 535//556
f 539//559 535//556 538//491
f 586//558 535//556 539//559
f 539//559 588//560 586//558
f 537//557 533//486 536//487
f 537//557 532//485 533//486
f 587//561 532//485 537//557
f 586//558 587//561 537//557
f 595//562 588//560 539//559
f 594//563 540//492 445//488
f 445//488 534//555 592//564
f 592//564 594//563 445//488
f 594//563 592//564 593//565
f 538//491 541//493 539//559
f 539//559 541//493 595//562
f 542//495 540//492 594//563
f 540//492 542//495 450//494
f 595//562 541//493 543//496
f 599//566 595//562 543//496
f 600//567 543//496 544//497
f 543//496 600//567 599//566
f 542//495 454//498 452//415
f 602//568 454//498 542//495
f 598//569 602//568 542//495
f 454//498 602//568 545//500
f 600//567 544//497 548//501
f 547//570 546//504 553//571
f 546//504 554//572 553//571
f 551//503 554//572 546//504
f 555//573 547//570 553//571
f 457//427 458//424 547//570
f 547//570 458//424 546//504
f 548//501 457//427 555//573
f 547//570 555//573 457//427
f 549//431 560//574 550//508
f 549//431 545//500 560//574
f 552//575 554//572 551//503
f 556//576 555//573 553//571
f 556//576 553//571 554//572
f 556//576 554//572 612//577
f 552//575 612//577 554//572
f 562//578 612//577 552//575
f 556//576 611//579 610//580
f 555//573 556//576 610//580
f 611//579 556//576 612//577
f 559//507 557//509 566//581
f 558//502 552//575 551//503
f 559//507 565//582 558//502
f 557//509 462//506 566//581
f 550//508 622//583 462//506
f 566//581 462//506 622//583
f 560//574 622//583 550//508
f 622//583 560//574 631//584
f 552//575 558//502 561//585
f 565//582 561//585 558//502
f 562//578 552//575 561//585
f 561//585 563//586 562//578
f 565//582 563//586 561//585
f 564//587 563//586 565//582
f 564//587 565//582 567//588
f 637//589 562//578 563//586
f 637//589 563//586 638//590
f 638//590 563//586 564//587
f 564//587 567//588 648//591
f 565//582 559//507 567//588
f 559//507 566//581 567//588
f 567//588 566//581 649//592
f 648//591 567//588 649//592
f 574//593 661//594 570//473
f 571//595 568//546 570//473
f 570//473 659//596 571//595
f 659//596 570//473 661//594
f 571//595 517//544 568//546
f 517//544 571//595 658//597
f 569//547 517//544 658//597
f 572//598 527//552 579//553
f 527//552 572//598 573//599
f 580//600 572//598 579//553
f 527//552 573//599 524//550
f 524//550 573//599 570//473
f 570//473 573//599 574//593
f 573//599 572//598 574//593
f 574//593 572//598 575//601
f 661//594 574//593 575//601
f 661//594 575//601 664//602
f 569//547 576//603 528//551
f 572//598 580//600 575//601
f 575//601 580//600 581//604
f 581//604 664//602 575//601
f 534//555 577//554 582//605
f 577//554 528//551 576//603
f 576//603 582//605 577//554
f 532//485 578//606 579//553
f 578//606 580//600 579//553
f 593//565 534//555 582//605
f 580//600 578//606 583//607
f 580//600 583//607 581//604
f 585//608 591//609 582//605
f 582//605 591//609 593//565
f 587//561 589//610 578//606
f 587//561 578//606 532//485
f 586//558 589//610 587//561
f 578//606 589//610 583//607
f 581//604 669//611 584//612
f 585//608 584//612 669//611
f 586//558 588//560 589//610
f 670//613 583//607 589//610
f 590//614 591//609 585//608
f 593//565 592//564 534//555
f 596//615 588//560 595//562
f 588//560 597//616 589//610
f 596//615 597//616 588//560
f 597//616 670//613 589//610
f 581//604 583//607 670//613
f 674//617 594//563 591//609
f 591//609 590//614 671//618
f 591//609 671//618 674//617
f 593//565 591//609 594//563
f 599//566 597//616 596//615
f 599//566 679//619 597//616
f 598//569 594//563 674//617
f 599//566 596//615 595//562
f 542//495 594//563 598//569
f 601//620 599//566 600//567
f 598//569 603//621 602//568
f 603//621 690//622 605//623
f 548//501 604//624 600//567
f 692//625 604//624 696//626
f 600//567 604//624 601//620
f 604//624 692//625 601//620
f 602//568 609//627 545//500
f 603//621 605//623 602//568
f 602//568 605//623 607//628
f 690//622 694//629 605//623
f 548//501 606//630 604//624
f 606//630 620//631 604//624
f 696//626 604//624 620//631
f 607//628 609//627 602//568
f 605//623 608//632 607//628
f 694//629 608//632 605//623
f 610//580 613//633 555//573
f 614//634 610//580 611//579
f 610//580 614//634 613//633
f 614//634 611//579 615//635
f 615//635 611//579 612//577
f 615//635 612//577 636//636
f 636//636 612//577 562//578
f 548//501 555//573 613//633
f 614//634 616//637 613//633
f 617//638 616//637 614//634
f 615//635 617//638 614//634
f 617//638 615//635 640//639
f 640//639 615//635 636//636
f 548//501 613//633 606//630
f 606//630 613//633 618//640
f 618//640 613//633 616//637
f 617//638 619//641 616//637
f 640//639 619//641 617//638
f 618//640 616//637 619//641
f 619//641 644//642 618//640
f 606//630 618//640 620//631
f 618//640 621//643 620//631
f 620//631 621//643 653//644
f 620//631 653//644 627//645
f 627//645 653//644 628//646
f 628//646 653//644 625//647
f 622//583 623//648 566//581
f 622//583 631//584 623//648
f 633//649 624//650 623//648
f 633//649 623//648 631//584
f 634//651 624//650 633//649
f 620//631 627//645 696//626
f 635//652 629//653 634//651
f 629//653 624//650 634//651
f 628//646 625//647 629//653
f 629//653 625//647 656//654
f 624//650 629//653 656//654
f 626//655 635//652 698//656
f 696//626 627//645 698//656
f 698//656 627//645 626//655
f 629//653 635//652 626//655
f 627//645 628//646 626//655
f 626//655 628//646 629//653
f 630//657 560//574 545//500
f 609//627 630//657 545//500
f 630//657 631//584 560//574
f 609//627 607//628 630//657
f 632//658 631//584 630//657
f 607//628 632//658 630//657
f 633//649 631//584 632//658
f 634//651 632//658 607//628
f 634//651 633//649 632//658
f 608//632 634//651 607//628
f 608//632 635//652 634//651
f 635//652 608//632 697//659
f 636//636 562//578 637//589
f 638//590 564//587 639//660
f 564//587 648//591 639//660
f 640//639 636//636 641//661
f 641//661 636//636 637//589
f 637//589 642//662 641//661
f 642//662 637//589 638//590
f 642//662 638//590 639//660
f 643//663 619//641 640//639
f 641//661 643//663 640//639
f 646//664 642//662 639//660
f 619//641 643//663 644//642
f 641//661 645//665 643//663
f 643//663 645//665 644//642
f 645//665 641//661 642//662
f 642//662 646//664 645//665
f 645//665 646//664 652//666
f 647//667 618//640 644//642
f 618//640 647//667 621//643
f 647//667 644//642 645//665
f 645//665 652//666 647//667
f 639//660 648//591 650//668
f 648//591 649//592 650//668
f 650//668 649//592 654//669
f 654//669 649//592 566//581
f 646//664 639//660 651//670
f 639//660 650//668 651//670
f 651//670 650//668 655//671
f 654//669 655//671 650//668
f 646//664 651//670 652//666
f 655//671 657//672 651//670
f 621//643 647//667 653//644
f 653//644 647//667 652//666
f 657//672 652//666 651//670
f 653//644 652//666 625//647
f 625//647 652//666 657//672
f 654//669 566//581 623//648
f 624//650 654//669 623//648
f 655//671 656//654 657//672
f 656//654 655//671 654//669
f 656//654 625//647 657//672
f 654//669 624//650 656//654
f 660//673 571//595 659//596
f 658//597 571//595 660//673
f 659//596 661//594 660//673
f 660//673 662//674 658//597
f 662//674 663//675 658//597
f 658//597 663//675 569//547
f 661//594 662//674 660//673
f 662//674 665//676 663//675
f 661//594 664//602 662//674
f 662//674 664//602 665//676
f 569//547 663//675 576//603
f 664//602 584//612 667//677
f 664//602 581//604 584//612
f 582//605 576//603 668//678
f 663//675 666//679 576//603
f 663//675 665//676 666//679
f 665//676 667//677 666//679
f 668//678 576//603 666//679
f 665//676 664//602 667//677
f 666//679 667//677 668//678
f 667//677 584//612 668//678
f 585//608 582//605 668//678
f 585//608 668//678 584//612
f 669//611 590//614 585//608
f 581//604 670//613 675//680
f 670//613 673//681 675//680
f 581//604 675//680 669//611
f 590//614 672//682 671//618
f 590//614 669//611 672//682
f 670//613 597//616 673//681
f 597//616 679//619 673//681
f 672//682 669//611 678//683
f 677//684 671//618 672//682
f 669//611 675//680 678//683
f 677//684 672//682 678//683
f 673//681 679//619 684//685
f 673//681 684//685 676//686
f 675//680 673//681 676//686
f 675//680 676//686 678//683
f 678//683 676//686 686//687
f 683//688 671//618 677//684
f 678//683 686//687 677//684
f 686//687 683//688 677//684
f 601//620 680//689 599//566
f 679//619 680//689 681//690
f 679//619 599//566 680//689
f 681//690 688//691 689//692
f 680//689 688//691 681//690
f 684//685 682//693 687//694
f 684//685 679//619 681//690
f 684//685 681//690 682//693
f 681//690 689//692 682//693
f 687//694 682//693 685//695
f 682//693 689//692 685//695
f 671//618 683//688 674//617
f 676//686 684//685 687//694
f 686//687 685//695 683//688
f 676//686 687//694 686//687
f 685//695 686//687 687//694
f 674//617 603//621 598//569
f 601//620 692//625 680//689
f 680//689 692//625 688//691
f 692//625 693//696 688//691
f 693//696 689//692 688//691
f 689//692 693//696 695//697
f 689//692 695//697 691//698
f 691//698 695//697 694//629
f 603//621 674//617 690//622
f 674//617 683//688 690//622
f 683//688 691//698 690//622
f 691//698 694//629 690//622
f 685//695 689//692 691//698
f 685//695 691//698 683//688
f 693//696 692//625 696//626
f 695//697 697//659 694//629
f 696//626 698//656 693//696
f 693//696 698//656 695//697
f 698//656 697//659 695//697
f 697//659 608//632 694//629
f 697//659 698//656 635//652
