# Blender 4.0.2
# www.blender.org
mtllib skull_left_zygomatic_bone.mtl
o skull_left_zygomatic_bone
v 0.082633 0.015401 -0.032860
v 0.082064 0.017381 -0.031908
v 0.082076 0.016901 -0.032051
v 0.081734 0.017731 -0.031894
v 0.082047 0.017881 -0.032164
v 0.082629 0.017351 -0.032502
v 0.082961 0.016001 -0.032734
v 0.083203 0.015961 -0.033142
v 0.081746 0.018041 -0.032183
v 0.082113 0.017981 -0.032544
v 0.081759 0.018141 -0.032543
v 0.081409 0.017251 -0.032031
v 0.081368 0.017711 -0.031985
v 0.079978 0.017111 -0.032968
v 0.081432 0.018031 -0.032177
v 0.081426 0.018151 -0.032544
v 0.080524 0.017961 -0.032802
v 0.082614 0.012751 -0.034953
v 0.082242 0.012511 -0.035009
v 0.083198 0.014991 -0.033446
v 0.081876 0.013421 -0.034181
v 0.083270 0.015091 -0.034394
v 0.082643 0.013331 -0.034237
v 0.083062 0.013581 -0.034548
v 0.082833 0.013281 -0.035673
v 0.082845 0.017361 -0.033834
v 0.081972 0.018071 -0.034418
v 0.079477 0.015221 -0.034347
v 0.080586 0.018021 -0.033476
v 0.079112 0.017361 -0.033908
v 0.078764 0.016831 -0.034126
v 0.078686 0.017421 -0.034303
v 0.079172 0.017591 -0.034242
v 0.078812 0.017621 -0.034627
v 0.077874 0.017901 -0.035285
v 0.076955 0.017481 -0.035180
v 0.060257 0.029121 -0.033742
v 0.060179 0.028811 -0.033843
v 0.060227 0.028441 -0.034303
v 0.060199 0.028421 -0.034594
v 0.061719 0.028191 -0.035170
v 0.061516 0.028531 -0.034805
v 0.061314 0.028391 -0.034858
v 0.062005 0.028631 -0.035086
v 0.061220 0.028241 -0.035124
v 0.061661 0.028041 -0.035481
v 0.061043 0.028351 -0.035444
v 0.060171 0.030561 -0.033547
v 0.060151 0.031631 -0.033541
v 0.060617 0.031341 -0.033798
v 0.060528 0.033421 -0.033656
v 0.060830 0.035181 -0.034034
v 0.060427 0.035271 -0.033731
v 0.060447 0.035701 -0.033876
v 0.060151 0.035351 -0.033779
v 0.059980 0.035151 -0.034032
v 0.060161 0.035721 -0.033976
v 0.060776 0.035981 -0.034348
v 0.060488 0.036021 -0.034338
v 0.060149 0.035611 -0.034381
v 0.061713 0.035411 -0.035129
v 0.061323 0.036291 -0.035138
v 0.061045 0.036261 -0.035160
v 0.061988 0.036631 -0.035778
v 0.059849 0.029171 -0.033660
v 0.059845 0.028681 -0.033974
v 0.059480 0.029131 -0.033970
v 0.059860 0.028521 -0.034274
v 0.059564 0.028801 -0.034261
v 0.059390 0.029171 -0.034261
v 0.059910 0.028621 -0.034633
v 0.059474 0.029141 -0.034567
v 0.059357 0.029831 -0.034589
v 0.059798 0.029251 -0.035061
v 0.059567 0.029891 -0.035048
v 0.059837 0.031981 -0.033606
v 0.059389 0.030051 -0.033962
v 0.059505 0.031621 -0.034272
v 0.059887 0.033111 -0.033531
v 0.081925 0.017961 -0.035858
v 0.080209 0.010831 -0.037502
v 0.081445 0.011011 -0.037560
v 0.080703 0.018111 -0.035880
v 0.079727 0.018891 -0.037884
v 0.077648 0.015231 -0.035889
v 0.078042 0.013321 -0.037143
v 0.074924 0.018251 -0.036353
v 0.073310 0.019351 -0.037902
v 0.072892 0.020771 -0.037338
v 0.072145 0.020631 -0.037860
v 0.065535 0.024671 -0.037281
v 0.063189 0.027261 -0.036122
v 0.065004 0.026521 -0.037005
v 0.062829 0.027041 -0.036332
v 0.064615 0.025541 -0.036849
v 0.063256 0.026151 -0.036723
v 0.062585 0.027211 -0.036662
v 0.064353 0.025231 -0.037281
v 0.063081 0.026411 -0.037325
v 0.062816 0.027611 -0.035882
v 0.062491 0.027631 -0.035838
v 0.063208 0.027651 -0.036030
v 0.063467 0.028731 -0.036220
v 0.062417 0.027781 -0.036953
v 0.064334 0.029941 -0.037505
v 0.063843 0.036721 -0.037905
v 0.062572 0.037241 -0.036500
v 0.062535 0.037811 -0.036607
v 0.062877 0.038011 -0.036909
v 0.062546 0.038481 -0.036715
v 0.062869 0.040241 -0.037085
v 0.062573 0.040341 -0.037017
v 0.063146 0.042331 -0.037602
v 0.063423 0.044161 -0.038144
v 0.062251 0.027611 -0.036081
v 0.061673 0.028051 -0.035826
v 0.061546 0.028881 -0.036608
v 0.060052 0.032371 -0.036284
v 0.061564 0.036621 -0.035760
v 0.061283 0.036221 -0.036039
v 0.061474 0.036631 -0.037238
v 0.061108 0.035381 -0.037750
v 0.062245 0.037521 -0.036416
v 0.062245 0.037821 -0.036578
v 0.061977 0.037451 -0.036632
v 0.062256 0.038551 -0.036850
v 0.062038 0.037831 -0.037042
v 0.062299 0.040681 -0.037368
v 0.062160 0.039871 -0.037616
v 0.079945 0.010151 -0.039060
v 0.079269 0.010141 -0.039048
v 0.081060 0.011711 -0.038960
v 0.081061 0.017281 -0.039476
v 0.077334 0.010751 -0.038812
v 0.078418 0.010041 -0.039619
v 0.078735 0.009971 -0.039968
v 0.077863 0.009691 -0.039938
v 0.077116 0.008721 -0.040260
v 0.075745 0.007001 -0.039960
v 0.075149 0.009451 -0.039587
v 0.075695 0.012041 -0.039300
v 0.074406 0.012341 -0.040068
v 0.074041 0.011091 -0.040558
v 0.074590 0.017041 -0.038072
v 0.073057 0.015171 -0.040000
v 0.073615 0.015891 -0.039384
v 0.072144 0.016201 -0.040471
v 0.072976 0.018071 -0.039702
v 0.072118 0.018031 -0.040478
v 0.070972 0.022161 -0.038683
v 0.071540 0.022411 -0.038708
v 0.071556 0.021981 -0.039875
v 0.070718 0.023321 -0.039430
v 0.070045 0.023121 -0.039179
v 0.069745 0.023421 -0.039142
v 0.070011 0.023821 -0.039559
v 0.070123 0.022821 -0.039714
v 0.069135 0.022541 -0.040109
v 0.068808 0.022261 -0.040207
v 0.069496 0.022591 -0.040326
v 0.067642 0.024321 -0.038160
v 0.068362 0.024701 -0.038906
v 0.069357 0.023231 -0.039314
v 0.069023 0.023251 -0.039349
v 0.069187 0.023061 -0.039661
v 0.068865 0.022811 -0.039865
v 0.068831 0.023051 -0.039664
v 0.068542 0.022831 -0.039904
v 0.068152 0.023241 -0.039629
v 0.069209 0.022811 -0.039964
v 0.067932 0.022941 -0.040251
v 0.067293 0.023281 -0.040204
v 0.066887 0.023971 -0.038278
v 0.065716 0.023961 -0.038839
v 0.064567 0.024851 -0.038740
v 0.062805 0.040531 -0.039059
v 0.063136 0.041801 -0.039606
v 0.063218 0.041761 -0.039944
v 0.062805 0.041051 -0.040157
v 0.063826 0.042551 -0.038309
v 0.062436 0.041991 -0.038269
v 0.062586 0.044011 -0.038741
v 0.063172 0.042151 -0.040285
v 0.063097 0.044391 -0.038129
v 0.063137 0.045821 -0.038407
v 0.063466 0.046031 -0.038486
v 0.062736 0.044391 -0.038437
v 0.062734 0.046091 -0.039067
v 0.062941 0.044351 -0.040189
v 0.063145 0.046821 -0.038808
v 0.064554 0.046461 -0.039772
v 0.063745 0.048141 -0.039964
v 0.063134 0.047331 -0.040000
v 0.061132 0.034631 -0.038456
v 0.061887 0.032771 -0.039034
v 0.061147 0.036491 -0.038260
v 0.061974 0.038511 -0.038778
v 0.061795 0.038361 -0.039597
v 0.061773 0.038141 -0.039921
v 0.062002 0.039591 -0.040341
v 0.078128 0.009731 -0.040547
v 0.078342 0.010241 -0.041821
v 0.075245 0.005341 -0.042332
v 0.073945 0.005121 -0.041207
v 0.072967 0.004721 -0.042720
v 0.071973 0.007201 -0.042878
v 0.072185 0.006181 -0.042569
v 0.073830 0.012781 -0.040611
v 0.072350 0.014891 -0.041986
v 0.072273 0.015531 -0.040842
v 0.072077 0.019831 -0.041610
v 0.071938 0.021821 -0.040468
v 0.071632 0.013051 -0.042712
v 0.071166 0.016491 -0.041462
v 0.070732 0.017371 -0.041360
v 0.070931 0.016201 -0.042090
v 0.069896 0.017811 -0.042032
v 0.071273 0.018321 -0.040939
v 0.071045 0.017981 -0.040958
v 0.070909 0.018661 -0.041116
v 0.070308 0.019261 -0.041066
v 0.069772 0.019211 -0.040984
v 0.069745 0.019621 -0.040860
v 0.069750 0.020141 -0.041093
v 0.071523 0.018651 -0.041189
v 0.070365 0.018431 -0.041185
v 0.070520 0.019571 -0.041498
v 0.070077 0.020131 -0.041483
v 0.071595 0.019461 -0.041943
v 0.071211 0.019541 -0.042038
v 0.071557 0.020091 -0.042342
v 0.071263 0.020111 -0.042500
v 0.071212 0.022571 -0.040825
v 0.071546 0.022371 -0.041100
v 0.070869 0.022631 -0.041095
v 0.069778 0.020711 -0.041473
v 0.071828 0.021761 -0.041393
v 0.071220 0.022421 -0.041488
v 0.069754 0.021301 -0.041610
v 0.070615 0.022261 -0.041704
v 0.070132 0.021631 -0.042001
v 0.071534 0.020441 -0.042382
v 0.071232 0.020431 -0.042629
v 0.070663 0.020371 -0.042570
v 0.070366 0.020421 -0.042298
v 0.070658 0.021681 -0.042320
v 0.070174 0.021011 -0.042322
v 0.070954 0.020411 -0.042702
v 0.070971 0.021041 -0.042679
v 0.070641 0.020721 -0.042746
v 0.070621 0.021061 -0.042713
v 0.068838 0.020131 -0.041461
v 0.069440 0.021621 -0.041104
v 0.069145 0.020421 -0.041045
v 0.069145 0.021021 -0.041101
v 0.069145 0.021621 -0.040942
v 0.068703 0.021711 -0.040990
v 0.069468 0.021011 -0.041219
v 0.068815 0.021051 -0.041223
v 0.067146 0.022181 -0.042055
v 0.066570 0.023191 -0.042726
v 0.066531 0.023371 -0.041064
v 0.065924 0.024921 -0.041733
v 0.062994 0.043821 -0.040560
v 0.062565 0.042031 -0.040626
v 0.062738 0.043481 -0.040834
v 0.062574 0.044201 -0.041281
v 0.062589 0.042901 -0.042419
v 0.063041 0.044751 -0.040611
v 0.063006 0.044501 -0.040906
v 0.063318 0.046101 -0.041721
v 0.063445 0.046521 -0.041968
v 0.062886 0.045971 -0.041927
v 0.062507 0.045261 -0.042562
v 0.063815 0.048301 -0.040551
v 0.063958 0.048081 -0.041021
v 0.064345 0.049181 -0.041160
v 0.063585 0.046721 -0.041651
v 0.063189 0.046911 -0.042409
v 0.062850 0.047291 -0.042622
v 0.062545 0.046881 -0.042660
v 0.064645 0.049251 -0.041160
v 0.064645 0.049221 -0.041702
v 0.062101 0.038781 -0.040807
v 0.071915 0.002971 -0.044364
v 0.071926 0.002441 -0.044852
v 0.073605 0.004241 -0.043291
v 0.073954 0.004251 -0.043469
v 0.072937 0.003931 -0.043721
v 0.073921 0.004201 -0.044240
v 0.073207 0.003611 -0.044165
v 0.074148 0.004691 -0.044433
v 0.072933 0.025601 -0.044253
v 0.072182 0.026711 -0.044500
v 0.070451 0.004241 -0.044086
v 0.069772 0.006371 -0.044354
v 0.069768 0.007811 -0.044850
v 0.071227 0.009621 -0.043300
v 0.070349 0.010631 -0.044182
v 0.070341 0.008991 -0.044373
v 0.069753 0.009621 -0.044575
v 0.069786 0.010201 -0.044484
v 0.070122 0.012551 -0.043847
v 0.069985 0.015201 -0.043445
v 0.067320 0.004821 -0.043620
v 0.068327 0.004841 -0.044164
v 0.067755 0.007901 -0.044503
v 0.068880 0.008071 -0.045107
v 0.069126 0.010191 -0.044722
v 0.069306 0.010521 -0.044803
v 0.069113 0.009881 -0.044794
v 0.068291 0.009921 -0.044949
v 0.067938 0.009891 -0.044978
v 0.067985 0.010221 -0.044939
v 0.067935 0.010551 -0.045034
v 0.067646 0.009631 -0.044955
v 0.067364 0.009421 -0.044756
v 0.067359 0.009921 -0.044870
v 0.068567 0.009621 -0.045150
v 0.068246 0.009621 -0.045128
v 0.067954 0.009351 -0.045142
v 0.067159 0.010501 -0.045047
v 0.067383 0.015031 -0.043741
v 0.068934 0.014141 -0.043958
v 0.068467 0.014841 -0.043946
v 0.067958 0.014431 -0.044062
v 0.067456 0.014711 -0.043864
v 0.067393 0.014301 -0.044190
v 0.068501 0.013761 -0.044498
v 0.067436 0.017001 -0.043599
v 0.067947 0.018311 -0.043074
v 0.067246 0.051361 -0.045077
v 0.067090 0.001341 -0.045003
v 0.066733 0.001721 -0.044787
v 0.066193 0.002471 -0.044769
v 0.066303 0.004951 -0.043863
v 0.066453 0.008321 -0.043871
v 0.066803 0.008361 -0.043964
v 0.066112 0.008471 -0.044022
v 0.066505 0.009951 -0.044463
v 0.065872 0.010711 -0.044718
v 0.065106 0.010491 -0.045222
v 0.066774 0.015081 -0.043544
v 0.066426 0.014731 -0.043790
v 0.066456 0.015421 -0.043625
v 0.066778 0.014371 -0.043999
v 0.066051 0.015441 -0.044123
v 0.066162 0.014121 -0.044572
v 0.066445 0.013831 -0.044772
v 0.065739 0.014481 -0.044918
v 0.066153 0.013551 -0.045066
v 0.065828 0.013221 -0.045328
v 0.065833 0.013811 -0.045068
v 0.067101 0.016381 -0.043643
v 0.066759 0.016751 -0.043643
v 0.066797 0.017261 -0.043634
v 0.066461 0.017341 -0.043877
v 0.065630 0.017171 -0.045151
v 0.066481 0.020211 -0.043871
v 0.064920 0.048241 -0.042979
v 0.066705 0.050121 -0.043860
v 0.067045 0.050421 -0.044232
v 0.066171 0.049521 -0.044160
v 0.066731 0.050411 -0.044479
v 0.066135 0.050401 -0.044859
v 0.065545 0.050221 -0.044760
v 0.063161 0.044171 -0.043139
v 0.063263 0.043231 -0.043283
v 0.063358 0.042191 -0.043503
v 0.064165 0.043931 -0.043941
v 0.063693 0.042901 -0.043963
v 0.064236 0.043611 -0.044574
v 0.064064 0.043071 -0.044835
v 0.063197 0.046061 -0.043422
v 0.063737 0.045011 -0.043743
v 0.064313 0.045861 -0.044543
v 0.063445 0.048321 -0.043253
v 0.062708 0.046781 -0.042964
v 0.063209 0.047951 -0.043445
v 0.062985 0.048021 -0.043260
v 0.064330 0.048331 -0.043503
v 0.063784 0.047991 -0.043847
v 0.064045 0.048511 -0.043860
v 0.064645 0.049061 -0.044160
v 0.064549 0.048841 -0.044482
v 0.076929 0.015691 -0.045586
v 0.075565 0.052831 -0.047417
v 0.072462 0.002801 -0.045409
v 0.072846 0.027001 -0.045685
v 0.069803 0.008981 -0.045248
v 0.069545 0.008651 -0.045519
v 0.070148 0.033211 -0.046017
v 0.071606 0.051241 -0.046842
v 0.070249 0.053471 -0.047096
v 0.067360 0.000731 -0.045643
v 0.068433 0.000891 -0.045870
v 0.067379 0.000601 -0.045994
v 0.068681 0.000791 -0.046514
v 0.067381 0.000791 -0.046860
v 0.068326 0.001511 -0.045416
v 0.069536 0.001661 -0.047434
v 0.069146 0.009441 -0.045325
v 0.068807 0.008411 -0.045390
v 0.068545 0.009321 -0.045423
v 0.068246 0.009011 -0.045349
v 0.069146 0.008671 -0.045679
v 0.069124 0.009011 -0.045740
v 0.068802 0.008701 -0.045616
v 0.069356 0.012111 -0.045365
v 0.068636 0.012961 -0.045535
v 0.068535 0.011691 -0.045879
v 0.068228 0.012921 -0.046146
v 0.067659 0.012281 -0.046476
v 0.067977 0.012591 -0.046519
v 0.067295 0.012591 -0.046477
v 0.067385 0.013721 -0.045239
v 0.067615 0.013241 -0.046123
v 0.069228 0.050131 -0.045650
v 0.068091 0.051591 -0.045463
v 0.066765 0.000951 -0.045348
v 0.066749 0.000811 -0.045681
v 0.066773 0.000861 -0.046295
v 0.066360 0.001311 -0.045354
v 0.065556 0.003011 -0.045347
v 0.065982 0.001701 -0.046095
v 0.066196 0.011961 -0.045547
v 0.066129 0.012591 -0.045582
v 0.066177 0.012941 -0.045493
v 0.065833 0.012631 -0.045482
v 0.065548 0.012001 -0.045437
v 0.067141 0.011391 -0.045670
v 0.065164 0.012761 -0.045841
v 0.066566 0.012621 -0.045946
v 0.067014 0.012931 -0.046249
v 0.066706 0.013511 -0.045347
v 0.065276 0.013641 -0.045782
v 0.065036 0.046311 -0.046963
v 0.066145 0.051391 -0.045360
v 0.065545 0.050671 -0.045335
v 0.066017 0.051311 -0.045690
v 0.066449 0.051611 -0.045710
v 0.067158 0.051981 -0.046049
v 0.066700 0.051961 -0.046620
v 0.066308 0.051121 -0.046987
v 0.064538 0.004481 -0.046577
v 0.064442 0.012021 -0.046236
v 0.064348 0.040231 -0.046408
v 0.064337 0.043771 -0.045857
v 0.076592 0.050901 -0.048397
v 0.076687 0.050711 -0.048979
v 0.076593 0.052681 -0.047804
v 0.076910 0.053681 -0.048063
v 0.077091 0.053071 -0.048344
v 0.077136 0.053771 -0.048415
v 0.077142 0.053361 -0.048692
v 0.076805 0.051931 -0.048661
v 0.076897 0.054361 -0.048392
v 0.076987 0.054271 -0.049261
v 0.076782 0.055171 -0.049229
v 0.075164 0.023401 -0.047243
v 0.075340 0.049051 -0.048146
v 0.075896 0.048611 -0.048972
v 0.076122 0.049191 -0.049288
v 0.076337 0.050781 -0.049617
v 0.076535 0.051611 -0.048097
v 0.076615 0.052291 -0.049517
v 0.076595 0.054291 -0.048186
v 0.075921 0.055621 -0.048777
v 0.076585 0.054291 -0.049899
v 0.076514 0.055441 -0.049836
v 0.076193 0.056121 -0.049860
v 0.075207 0.056721 -0.049860
v 0.073092 0.027741 -0.047658
v 0.072878 0.027371 -0.048959
v 0.071790 0.042991 -0.048131
v 0.073874 0.046191 -0.048664
v 0.074183 0.045641 -0.049221
v 0.072824 0.046911 -0.047973
v 0.071998 0.005081 -0.047647
v 0.071369 0.039211 -0.048659
v 0.071492 0.037261 -0.049485
v 0.069794 0.054901 -0.049262
v 0.071295 0.055991 -0.049904
v 0.067951 0.001331 -0.047774
v 0.068592 0.004011 -0.049198
v 0.067935 0.053571 -0.048920
v 0.069178 0.054461 -0.049220
v 0.066982 0.001501 -0.047717
v 0.065404 0.003801 -0.048869
v 0.066576 0.003671 -0.049298
v 0.064374 0.004271 -0.047746
v 0.062986 0.006161 -0.047738
v 0.063539 0.025031 -0.050022
v 0.062103 0.005971 -0.049204
v 0.060165 0.008181 -0.049807
v 0.074505 0.046051 -0.050124
v 0.076011 0.052651 -0.050224
v 0.075980 0.055491 -0.050401
v 0.075697 0.054571 -0.050614
v 0.074779 0.055191 -0.051185
v 0.072331 0.021021 -0.050335
v 0.072672 0.041871 -0.050071
v 0.072028 0.042931 -0.051486
v 0.073946 0.047511 -0.051095
v 0.074329 0.056071 -0.051309
v 0.073498 0.056301 -0.051314
v 0.072458 0.054841 -0.052210
v 0.070686 0.032651 -0.050346
v 0.071273 0.036451 -0.050192
v 0.071643 0.038851 -0.050175
v 0.070284 0.038631 -0.051433
v 0.070969 0.055241 -0.052110
v 0.067954 0.014351 -0.052415
v 0.067170 0.050711 -0.051439
v 0.067907 0.050821 -0.052300
v 0.069491 0.054931 -0.050901
v 0.069098 0.054141 -0.051614
v 0.064750 0.043811 -0.050691
v 0.062625 0.006171 -0.050679
v 0.063216 0.006681 -0.051360
v 0.064528 0.008451 -0.052158
v 0.062575 0.037441 -0.051020
v 0.063032 0.040121 -0.051537
v 0.060177 0.007251 -0.051085
v 0.060366 0.007621 -0.052063
v 0.061808 0.016651 -0.050445
v 0.061418 0.035821 -0.051642
v 0.061053 0.037021 -0.051976
v 0.058106 0.010471 -0.052313
v 0.070525 0.054221 -0.052511
v 0.069511 0.047221 -0.053025
v 0.065410 0.020671 -0.054176
v 0.066269 0.041071 -0.053279
v 0.065418 0.042111 -0.053174
v 0.064689 0.039861 -0.053515
v 0.063815 0.030191 -0.053926
v 0.063911 0.040951 -0.052929
v 0.064878 0.043311 -0.052329
v 0.060773 0.026981 -0.053094
v 0.060265 0.026681 -0.053458
v 0.060471 0.027501 -0.053739
v 0.060170 0.027081 -0.053749
v 0.060164 0.027301 -0.054059
v 0.060413 0.027421 -0.054381
v 0.060123 0.027171 -0.054671
v 0.061350 0.029301 -0.052823
v 0.061045 0.027841 -0.053094
v 0.060973 0.028541 -0.053484
v 0.060757 0.027891 -0.054079
v 0.060726 0.027931 -0.053731
v 0.061077 0.028671 -0.054054
v 0.061601 0.028481 -0.054569
v 0.061107 0.030071 -0.053732
v 0.062648 0.032531 -0.054055
v 0.061663 0.030211 -0.054273
v 0.060851 0.032561 -0.053052
v 0.060710 0.034311 -0.053438
v 0.061048 0.032391 -0.053852
v 0.061071 0.034161 -0.053859
v 0.060639 0.035951 -0.052584
v 0.060663 0.036561 -0.053148
v 0.060884 0.036511 -0.053479
v 0.061723 0.036091 -0.053954
v 0.061163 0.037961 -0.052550
v 0.060712 0.037181 -0.052827
v 0.061030 0.037561 -0.053154
v 0.061793 0.037411 -0.053756
v 0.058228 0.009331 -0.052540
v 0.058707 0.008871 -0.052793
v 0.058175 0.010791 -0.054962
v 0.059100 0.024641 -0.053533
v 0.059048 0.023551 -0.053655
v 0.058228 0.024721 -0.054062
v 0.059566 0.025291 -0.053266
v 0.058605 0.025841 -0.053713
v 0.058390 0.025481 -0.053711
v 0.058680 0.026401 -0.053984
v 0.058057 0.026411 -0.053924
v 0.059856 0.027041 -0.054050
v 0.059559 0.026641 -0.053929
v 0.058323 0.026751 -0.054181
v 0.059863 0.027181 -0.054360
v 0.059535 0.027041 -0.054357
v 0.058953 0.026871 -0.054350
v 0.059822 0.027011 -0.054978
v 0.059562 0.027121 -0.054660
v 0.059227 0.027091 -0.054660
v 0.058651 0.027101 -0.054653
v 0.058290 0.027201 -0.054635
v 0.057218 0.010381 -0.054295
v 0.056374 0.011331 -0.054283
v 0.057347 0.021701 -0.054432
v 0.056890 0.024321 -0.054845
v 0.057508 0.026111 -0.053831
v 0.057466 0.026741 -0.053893
v 0.056918 0.026351 -0.054063
v 0.056885 0.026981 -0.054045
v 0.057499 0.027291 -0.054189
v 0.057156 0.027331 -0.054136
v 0.056589 0.026711 -0.054489
v 0.057025 0.025551 -0.054638
v 0.057468 0.027681 -0.054656
v 0.057135 0.027771 -0.054663
v 0.056845 0.027661 -0.054647
v 0.061366 0.014181 -0.055451
v 0.062244 0.027661 -0.054772
v 0.061421 0.027331 -0.054938
v 0.060450 0.026791 -0.055210
v 0.061646 0.026241 -0.055373
v 0.059243 0.027081 -0.054987
v 0.058921 0.027141 -0.054959
v 0.058299 0.027321 -0.054950
v 0.058598 0.027151 -0.055499
v 0.059189 0.026741 -0.055890
v 0.060023 0.025661 -0.056371
v 0.055641 0.012881 -0.054936
v 0.055297 0.011981 -0.055592
v 0.055610 0.011791 -0.055898
v 0.056229 0.025181 -0.055551
v 0.057002 0.025181 -0.054912
v 0.056675 0.025531 -0.055238
v 0.056380 0.026381 -0.055629
v 0.056238 0.025801 -0.055950
v 0.055886 0.025471 -0.055996
v 0.055979 0.026961 -0.056976
v 0.055762 0.026031 -0.057044
v 0.057499 0.027731 -0.054993
v 0.057158 0.027841 -0.054964
v 0.056845 0.027791 -0.055042
v 0.056501 0.027561 -0.055336
v 0.057187 0.027711 -0.055653
v 0.052987 0.014481 -0.056995
v 0.055095 0.024271 -0.055554
v 0.054736 0.024891 -0.056297
v 0.053092 0.022381 -0.057023
v 0.056758 0.024461 -0.059509
v 0.056562 0.027401 -0.057316
v 0.056280 0.027391 -0.057215
v 0.056915 0.027181 -0.057549
v 0.055706 0.026921 -0.057809
v 0.056240 0.027181 -0.057978
v 0.057104 0.026471 -0.058372
v 0.055975 0.026651 -0.058900
v 0.052816 0.013831 -0.057273
v 0.052948 0.013641 -0.057629
v 0.053571 0.013651 -0.057900
v 0.054655 0.024901 -0.057636
v 0.052906 0.023691 -0.057319
v 0.052984 0.024131 -0.057932
v 0.054174 0.024721 -0.058564
v 0.053487 0.024331 -0.058583
v 0.054660 0.025851 -0.058741
v 0.055085 0.026451 -0.059118
v 0.054448 0.025921 -0.059143
v 0.051115 0.015781 -0.057565
v 0.051488 0.023371 -0.058068
v 0.052003 0.023841 -0.058314
v 0.052557 0.024071 -0.058572
v 0.050245 0.015081 -0.058560
v 0.048733 0.016931 -0.058499
v 0.048138 0.016351 -0.058744
v 0.048445 0.015701 -0.059160
v 0.050349 0.022011 -0.058048
v 0.048815 0.021911 -0.058514
v 0.048561 0.022311 -0.058873
v 0.048054 0.022081 -0.059296
v 0.046090 0.017141 -0.059285
v 0.046082 0.018661 -0.059282
v 0.046180 0.019671 -0.059535
v 0.045741 0.019271 -0.059598
v 0.047801 0.020331 -0.058925
v 0.047599 0.021231 -0.059143
v 0.044405 0.017951 -0.059406
v 0.044363 0.018651 -0.059557
v 0.055626 0.025791 -0.059759
v 0.052919 0.024721 -0.059691
v 0.053622 0.024641 -0.060965
v 0.052962 0.024771 -0.060906
v 0.053615 0.025231 -0.059700
v 0.054459 0.025711 -0.060041
v 0.053896 0.025561 -0.059973
v 0.051342 0.015831 -0.060012
v 0.052550 0.024781 -0.060332
v 0.051678 0.024381 -0.060973
v 0.051974 0.023961 -0.061616
v 0.052182 0.023421 -0.061825
v 0.050199 0.015491 -0.059648
v 0.050280 0.023901 -0.059659
v 0.049311 0.023401 -0.059751
v 0.049720 0.023761 -0.060436
v 0.049635 0.023131 -0.061850
v 0.046645 0.016091 -0.059760
v 0.046792 0.016421 -0.060924
v 0.045691 0.020131 -0.060589
v 0.046430 0.020441 -0.060086
v 0.044048 0.017321 -0.060049
v 0.043627 0.017731 -0.060435
v 0.044386 0.017091 -0.060687
v 0.044961 0.017331 -0.061836
v 0.044255 0.017731 -0.061845
v 0.043698 0.018041 -0.059812
v 0.043910 0.018741 -0.060177
v 0.043581 0.018331 -0.060470
v 0.044105 0.018971 -0.061796
v 0.043855 0.018301 -0.061796
v 0.043865 0.018611 -0.061805
v 0.052141 0.021701 -0.061902
v 0.049787 0.019071 -0.062381
v 0.049940 0.021901 -0.062729
v 0.047233 0.017771 -0.062531
v 0.047274 0.020031 -0.063245
v 0.045804 0.018881 -0.063036
v 0.046946 0.021531 -0.061937
v 0.047240 0.021041 -0.062965
v 0.044269 0.018321 -0.062361
v 0.044042 0.018641 -0.062165
v 0.044914 0.018051 -0.062551
v 0.044707 0.019331 -0.062457
v 0.044953 0.018971 -0.062805
v 0.082064 0.017381 -0.031908
v 0.081734 0.017731 -0.031894
v 0.080524 0.017961 -0.032802
v 0.082614 0.012751 -0.034953
v 0.083062 0.013581 -0.034548
v 0.079112 0.017361 -0.033908
v 0.078764 0.016831 -0.034126
v 0.078686 0.017421 -0.034303
v 0.076955 0.017481 -0.035180
v 0.076955 0.017481 -0.035180
v 0.061661 0.028041 -0.035481
v 0.060171 0.030561 -0.033547
v 0.060447 0.035701 -0.033876
v 0.060151 0.035351 -0.033779
v 0.060161 0.035721 -0.033976
v 0.060776 0.035981 -0.034348
v 0.060488 0.036021 -0.034338
v 0.061323 0.036291 -0.035138
v 0.061045 0.036261 -0.035160
v 0.061988 0.036631 -0.035778
v 0.059860 0.028521 -0.034274
v 0.059860 0.028521 -0.034274
v 0.059837 0.031981 -0.033606
v 0.059389 0.030051 -0.033962
v 0.059887 0.033111 -0.033531
v 0.081925 0.017961 -0.035858
v 0.081445 0.011011 -0.037560
v 0.079727 0.018891 -0.037884
v 0.072892 0.020771 -0.037338
v 0.072892 0.020771 -0.037338
v 0.072892 0.020771 -0.037338
v 0.072145 0.020631 -0.037860
v 0.065535 0.024671 -0.037281
v 0.065535 0.024671 -0.037281
v 0.065535 0.024671 -0.037281
v 0.062829 0.027041 -0.036332
v 0.064615 0.025541 -0.036849
v 0.063256 0.026151 -0.036723
v 0.063256 0.026151 -0.036723
v 0.063256 0.026151 -0.036723
v 0.064353 0.025231 -0.037281
v 0.062816 0.027611 -0.035882
v 0.062546 0.038481 -0.036715
v 0.062573 0.040341 -0.037017
v 0.063423 0.044161 -0.038144
v 0.062251 0.027611 -0.036081
v 0.061564 0.036621 -0.035760
v 0.062245 0.037521 -0.036416
v 0.062245 0.037521 -0.036416
v 0.062245 0.037821 -0.036578
v 0.062256 0.038551 -0.036850
v 0.062299 0.040681 -0.037368
v 0.079945 0.010151 -0.039060
v 0.077334 0.010751 -0.038812
v 0.077863 0.009691 -0.039938
v 0.077116 0.008721 -0.040260
v 0.077116 0.008721 -0.040260
v 0.075745 0.007001 -0.039960
v 0.075745 0.007001 -0.039960
v 0.075149 0.009451 -0.039587
v 0.075149 0.009451 -0.039587
v 0.072976 0.018071 -0.039702
v 0.072118 0.018031 -0.040478
v 0.072118 0.018031 -0.040478
v 0.070972 0.022161 -0.038683
v 0.070972 0.022161 -0.038683
v 0.070045 0.023121 -0.039179
v 0.070045 0.023121 -0.039179
v 0.070045 0.023121 -0.039179
v 0.070045 0.023121 -0.039179
v 0.069745 0.023421 -0.039142
v 0.069745 0.023421 -0.039142
v 0.067642 0.024321 -0.038160
v 0.069357 0.023231 -0.039314
v 0.063218 0.041761 -0.039944
v 0.063172 0.042151 -0.040285
v 0.063097 0.044391 -0.038129
v 0.063137 0.045821 -0.038407
v 0.063466 0.046031 -0.038486
v 0.062734 0.046091 -0.039067
v 0.063145 0.046821 -0.038808
v 0.063145 0.046821 -0.038808
v 0.063745 0.048141 -0.039964
v 0.063745 0.048141 -0.039964
v 0.063134 0.047331 -0.040000
v 0.062002 0.039591 -0.040341
v 0.073945 0.005121 -0.041207
v 0.072967 0.004721 -0.042720
v 0.071273 0.018321 -0.040939
v 0.070909 0.018661 -0.041116
v 0.070308 0.019261 -0.041066
v 0.069772 0.019211 -0.040984
v 0.069745 0.019621 -0.040860
v 0.069745 0.019621 -0.040860
v 0.070365 0.018431 -0.041185
v 0.071546 0.022371 -0.041100
v 0.070641 0.020721 -0.042746
v 0.070621 0.021061 -0.042713
v 0.069145 0.020421 -0.041045
v 0.069145 0.021621 -0.040942
v 0.069145 0.021621 -0.040942
v 0.069468 0.021011 -0.041219
v 0.067146 0.022181 -0.042055
v 0.066570 0.023191 -0.042726
v 0.062574 0.044201 -0.041281
v 0.063445 0.046521 -0.041968
v 0.064345 0.049181 -0.041160
v 0.064345 0.049181 -0.041160
v 0.062850 0.047291 -0.042622
v 0.062545 0.046881 -0.042660
v 0.062545 0.046881 -0.042660
v 0.064645 0.049251 -0.041160
v 0.064645 0.049251 -0.041160
v 0.064645 0.049221 -0.041702
v 0.071926 0.002441 -0.044852
v 0.073207 0.003611 -0.044165
v 0.070451 0.004241 -0.044086
v 0.069772 0.006371 -0.044354
v 0.069772 0.006371 -0.044354
v 0.069126 0.010191 -0.044722
v 0.067246 0.051361 -0.045077
v 0.064920 0.048241 -0.042979
v 0.066705 0.050121 -0.043860
v 0.066705 0.050121 -0.043860
v 0.066705 0.050121 -0.043860
v 0.067045 0.050421 -0.044232
v 0.066171 0.049521 -0.044160
v 0.066171 0.049521 -0.044160
v 0.066171 0.049521 -0.044160
v 0.066731 0.050411 -0.044479
v 0.065545 0.050221 -0.044760
v 0.063445 0.048321 -0.043253
v 0.063445 0.048321 -0.043253
v 0.063445 0.048321 -0.043253
v 0.062985 0.048021 -0.043260
v 0.062985 0.048021 -0.043260
v 0.064330 0.048331 -0.043503
v 0.064045 0.048511 -0.043860
v 0.064045 0.048511 -0.043860
v 0.064045 0.048511 -0.043860
v 0.064645 0.049061 -0.044160
v 0.064645 0.049061 -0.044160
v 0.068433 0.000891 -0.045870
v 0.069124 0.009011 -0.045740
v 0.069124 0.009011 -0.045740
v 0.067659 0.012281 -0.046476
v 0.067977 0.012591 -0.046519
v 0.067977 0.012591 -0.046519
v 0.067295 0.012591 -0.046477
v 0.067295 0.012591 -0.046477
v 0.065833 0.012631 -0.045482
v 0.065548 0.012001 -0.045437
v 0.066145 0.051391 -0.045360
v 0.066145 0.051391 -0.045360
v 0.066449 0.051611 -0.045710
v 0.066700 0.051961 -0.046620
v 0.075164 0.023401 -0.047243
v 0.075164 0.023401 -0.047243
v 0.076122 0.049191 -0.049288
v 0.076193 0.056121 -0.049860
v 0.075207 0.056721 -0.049860
v 0.075207 0.056721 -0.049860
v 0.075207 0.056721 -0.049860
v 0.072878 0.027371 -0.048959
v 0.074505 0.046051 -0.050124
v 0.072672 0.041871 -0.050071
v 0.073498 0.056301 -0.051314
v 0.073498 0.056301 -0.051314
v 0.070686 0.032651 -0.050346
v 0.070686 0.032651 -0.050346
v 0.071273 0.036451 -0.050192
v 0.071643 0.038851 -0.050175
v 0.070969 0.055241 -0.052110
v 0.062575 0.037441 -0.051020
v 0.063032 0.040121 -0.051537
v 0.063911 0.040951 -0.052929
v 0.060973 0.028541 -0.053484
v 0.060757 0.027891 -0.054079
v 0.060726 0.027931 -0.053731
v 0.061077 0.028671 -0.054054
v 0.061601 0.028481 -0.054569
v 0.061107 0.030071 -0.053732
v 0.061107 0.030071 -0.053732
v 0.060663 0.036561 -0.053148
v 0.061163 0.037961 -0.052550
v 0.060712 0.037181 -0.052827
v 0.056374 0.011331 -0.054283
v 0.056885 0.026981 -0.054045
v 0.056885 0.026981 -0.054045
v 0.061421 0.027331 -0.054938
v 0.061421 0.027331 -0.054938
v 0.060450 0.026791 -0.055210
v 0.055297 0.011981 -0.055592
v 0.055610 0.011791 -0.055898
v 0.057002 0.025181 -0.054912
v 0.056280 0.027391 -0.057215
v 0.052816 0.013831 -0.057273
v 0.052948 0.013641 -0.057629
v 0.055085 0.026451 -0.059118
v 0.050245 0.015081 -0.058560
v 0.050245 0.015081 -0.058560
v 0.048138 0.016351 -0.058744
v 0.048445 0.015701 -0.059160
v 0.046090 0.017141 -0.059285
v 0.044405 0.017951 -0.059406
v 0.053896 0.025561 -0.059973
v 0.046645 0.016091 -0.059760
v 0.043698 0.018041 -0.059812
v 0.043581 0.018331 -0.060470
v 0.043865 0.018611 -0.061805
vn 0.1829 -0.4874 0.8538
vn 0.6622 -0.1657 0.7308
vn 0.0838 -0.3761 0.9228
vn 0.8244 -0.3124 0.4720
vn 0.9640 0.0707 0.2563
vn -0.3435 -0.2950 0.8916
vn -0.1330 -0.2399 0.9616
vn -0.1819 -0.1540 0.9712
vn 0.6271 0.2142 0.7489
vn 0.8308 0.3634 0.4216
vn 0.5536 0.6309 0.5435
vn 0.1930 0.5697 0.7989
vn 0.1846 0.8431 0.5050
vn -0.4145 0.2120 0.8850
vn -0.2427 0.7722 0.5872
vn 0.5866 0.7933 0.1631
vn -0.2414 -0.5984 0.7639
vn 0.2146 0.9684 0.1274
vn 0.3548 0.9342 -0.0376
vn -0.1087 0.9827 0.1503
vn -0.6171 -0.0850 0.7823
vn -0.6280 0.2981 0.7189
vn -0.5109 -0.4798 0.7132
vn -0.5773 -0.3565 0.7346
vn -0.6854 0.1810 0.7053
vn -0.2048 0.9786 0.0202
vn -0.3407 0.8968 0.2821
vn -0.2830 0.9528 0.1102
vn -0.5074 0.7496 0.4250
vn -0.5952 0.1738 0.7845
vn 0.1459 -0.8081 0.5707
vn 0.3589 -0.6268 0.6916
vn -0.1395 -0.7942 0.5914
vn 0.4616 -0.7331 0.4994
vn 0.1626 -0.8856 0.4350
vn 0.9877 0.0403 -0.1510
vn 0.9724 -0.2088 -0.1044
vn 0.6864 -0.5267 0.5014
vn 0.9409 -0.2216 -0.2559
vn 0.8674 0.3127 -0.3872
vn 0.8845 -0.4612 -0.0704
vn 0.8677 0.4928 -0.0644
vn 0.8116 0.5220 -0.2623
vn 0.1209 0.9917 0.0438
vn 0.0142 0.9776 0.2099
vn -0.5301 -0.4614 0.7114
vn -0.1169 0.9175 0.3801
vn -0.6116 -0.4868 0.6236
vn -0.6452 -0.3271 0.6904
vn -0.5300 0.1786 0.8289
vn -0.2660 0.8370 0.4782
vn -0.5628 -0.3332 0.7564
vn -0.4367 0.2051 0.8759
vn -0.0343 0.8098 0.5857
vn -0.1547 0.5446 0.8243
vn -0.1051 0.4514 0.8861
vn 0.1748 0.8715 0.4582
vn 0.2553 0.7512 0.6087
vn -0.5560 -0.0931 0.8259
vn -0.2643 -0.2493 0.9317
vn 0.1959 -0.5625 0.8033
vn 0.3819 -0.2228 0.8969
vn 0.5416 -0.0670 0.8380
vn 0.0222 -0.9161 0.4004
vn 0.4281 -0.4928 0.7576
vn 0.5428 -0.2171 0.8113
vn -0.3537 -0.7009 0.6193
vn -0.1709 -0.9157 0.3636
vn -0.6119 -0.6613 -0.4338
vn -0.3396 -0.9264 -0.1627
vn -0.6153 -0.7331 -0.2899
vn 0.2025 -0.7766 0.5966
vn 0.1596 -0.7181 0.6774
vn -0.1623 -0.9678 0.1923
vn -0.1810 -0.8778 0.4435
vn -0.4870 -0.7975 -0.3560
vn -0.4992 -0.8653 -0.0454
vn -0.6823 -0.4290 -0.5920
vn -0.8151 -0.2092 -0.5403
vn -0.7032 -0.3842 -0.5982
vn -0.6443 -0.7192 -0.2599
vn 0.5643 -0.0331 0.8249
vn 0.1316 -0.0193 0.9911
vn -0.2788 -0.0481 0.9592
vn -0.4350 -0.0307 0.8999
vn 0.6621 0.0814 0.7450
vn 0.4486 0.0319 0.8932
vn 0.6871 0.1644 0.7077
vn 0.1317 0.0307 0.9908
vn 0.7414 0.1760 0.6476
vn 0.2673 0.1884 0.9450
vn 0.6619 0.2758 0.6970
vn -0.1404 0.2705 0.9524
vn -0.1336 0.6461 0.7515
vn -0.2095 0.6512 0.7294
vn -0.9468 0.0984 0.3065
vn -0.8788 0.2086 0.4291
vn -0.9734 0.1941 0.1217
vn -0.9007 0.4343 0.0098
vn 0.7052 0.3067 0.6393
vn 0.0720 0.8520 0.5185
vn 0.1367 0.8621 0.4880
vn -0.8749 0.4150 -0.2497
vn -0.7299 0.6433 -0.2309
vn -0.0958 0.9206 0.3786
vn -0.8709 0.4698 -0.1441
vn -0.9158 0.0474 -0.3987
vn 0.6539 0.2969 0.6959
vn -0.1246 0.9539 0.2731
vn -0.6435 0.7367 -0.2078
vn 0.6947 0.2038 0.6899
vn 0.0148 0.6846 0.7288
vn -0.0070 0.8123 0.5832
vn -0.7948 -0.2951 0.5303
vn -0.5027 -0.0064 0.8644
vn -0.6392 -0.6914 0.3368
vn -0.7953 -0.6058 0.0216
vn -0.9673 -0.2526 0.0245
vn -0.9939 0.0423 0.1022
vn -0.9784 -0.0380 -0.2031
vn -0.8430 -0.3595 -0.4001
vn -0.8414 -0.1565 -0.5172
vn -0.9042 0.0490 0.4243
vn -0.9896 0.1229 0.0744
vn 0.8594 -0.3480 -0.3745
vn 0.8300 -0.2657 -0.4903
vn 0.0776 -0.9567 0.2805
vn -0.0805 -0.9321 0.3531
vn 0.0100 -0.7332 0.6799
vn 0.6796 0.7196 -0.1430
vn -0.4136 -0.2875 0.8639
vn -0.5191 -0.1966 0.8318
vn -0.7011 -0.3999 0.5904
vn -0.8072 -0.5192 0.2808
vn -0.7290 -0.6651 -0.1621
vn -0.5684 -0.0323 0.8221
vn -0.5730 0.0016 0.8196
vn 0.2703 0.7002 0.6608
vn 0.0624 0.6401 0.7658
vn 0.3873 -0.0263 0.9216
vn 0.5537 0.3029 0.7757
vn 0.5139 0.1168 0.8498
vn 0.2910 0.0367 0.9560
vn 0.1929 -0.6607 0.7255
vn -0.0073 -0.8239 0.5667
vn 0.1517 -0.5937 0.7902
vn 0.5757 0.4703 0.6689
vn -0.4092 -0.8697 0.2760
vn -0.5374 -0.8320 0.1379
vn -0.7586 -0.6376 -0.1342
vn -0.4213 -0.8826 0.2087
vn -0.2874 -0.6871 0.6673
vn -0.3170 -0.6690 0.6723
vn -0.2847 -0.6887 0.6668
vn 0.1500 -0.4148 0.8975
vn 0.4558 -0.1295 0.8806
vn 0.3625 -0.3371 0.8689
vn -0.1366 -0.5388 0.8313
vn 0.0295 -0.6428 0.7655
vn -0.1467 -0.7786 0.6101
vn -0.4304 -0.8125 0.3932
vn -0.7270 -0.6265 0.2809
vn 0.1501 -0.4637 0.8732
vn -0.8561 -0.5146 -0.0479
vn -0.7788 -0.6264 0.0327
vn -0.7251 -0.6463 -0.2377
vn -0.8266 -0.3891 -0.4067
vn 0.1373 0.1023 0.9852
vn -0.8430 -0.4706 -0.2607
vn -0.2554 -0.7055 0.6611
vn 0.7661 0.1690 0.6201
vn 0.8843 0.1819 0.4301
vn 0.7803 0.0394 0.6242
vn 0.6534 0.1635 0.7392
vn 0.3964 0.3330 0.8556
vn 0.6894 0.0790 0.7201
vn 0.3972 0.2144 0.8924
vn 0.5704 0.0835 0.8171
vn 0.0460 0.3461 0.9371
vn -0.3874 0.2291 0.8930
vn -0.3031 0.2415 0.9219
vn 0.7573 0.0776 0.6485
vn 0.5170 0.1191 0.8476
vn 0.2686 0.1785 0.9466
vn -0.6462 0.2104 0.7336
vn 0.4380 0.1776 0.8812
vn 0.1844 0.2053 0.9612
vn -0.6237 0.2597 0.7372
vn -0.6314 0.2275 0.7413
vn 0.7151 0.1082 0.6906
vn 0.1999 0.2254 0.9536
vn -0.9702 0.0104 -0.2421
vn -0.9861 0.1332 0.0995
vn -0.9957 0.0922 0.0021
vn -0.8242 0.1895 0.5336
vn -0.9824 0.1810 -0.0468
vn -0.9040 -0.0218 -0.4269
vn 0.0210 0.5785 0.8154
vn -0.7935 0.6085 0.0020
vn -0.7815 0.5290 0.3308
vn -0.9246 0.3586 0.1286
vn -0.9122 0.3068 0.2715
vn -0.9815 0.1916 -0.0018
vn -0.6063 0.5506 0.5738
vn -0.8085 0.3545 0.4698
vn -0.9076 0.1586 0.3888
vn -0.9898 0.1406 0.0219
vn -0.9413 0.3233 0.0973
vn 0.7405 -0.5005 -0.4484
vn 0.7773 -0.4457 -0.4440
vn 0.2556 -0.9666 0.0184
vn 0.0256 -0.8843 0.4663
vn 0.3062 -0.7635 0.5686
vn 0.1825 -0.5839 0.7911
vn 0.5868 -0.8062 -0.0750
vn 0.7175 -0.6421 0.2700
vn 0.7954 -0.5925 0.1278
vn -0.6303 -0.2180 0.7451
vn -0.3812 -0.2291 0.8957
vn -0.5691 -0.0511 0.8206
vn -0.6281 -0.1243 0.7681
vn 0.2988 -0.0722 0.9516
vn 0.7096 -0.6991 0.0878
vn 0.7233 -0.6281 0.2871
vn 0.0603 -0.5839 0.8096
vn -0.6127 -0.2116 0.7615
vn -0.6190 -0.2085 0.7572
vn -0.6628 -0.0435 0.7476
vn -0.7710 -0.2284 0.5944
vn -0.7642 -0.4881 0.4216
vn -0.6568 -0.3034 0.6903
vn -0.8130 -0.2002 0.5468
vn -0.6712 -0.2881 0.6830
vn -0.6543 -0.3334 0.6787
vn -0.4827 0.1119 0.8686
vn -0.6311 -0.7373 -0.2409
vn -0.6500 -0.7474 -0.1375
vn -0.1962 0.5283 0.8261
vn -0.1488 0.4272 0.8918
vn -0.8198 -0.5697 -0.0578
vn 0.6663 0.6296 0.3996
vn 0.0272 0.5917 0.8057
vn -0.7569 -0.6109 0.2322
vn -0.3422 -0.9144 0.2163
vn -0.4374 -0.8972 -0.0615
vn 0.4234 0.4323 0.7961
vn 0.2962 0.1805 0.9379
vn 0.4611 0.6053 0.6488
vn -0.2336 -0.3457 0.9088
vn -0.0908 -0.8203 0.5647
vn 0.0773 -0.7053 0.7047
vn -0.2054 -0.8572 0.4723
vn -0.0492 -0.8214 0.5683
vn 0.2930 -0.7798 0.5533
vn 0.2643 -0.6653 0.6982
vn 0.3682 -0.5954 0.7141
vn -0.0907 -0.6824 0.7253
vn 0.0216 -0.6130 0.7898
vn -0.2925 -0.6322 0.7175
vn -0.4633 -0.7089 0.5318
vn -0.2291 -0.8563 0.4630
vn -0.0961 -0.8793 0.4665
vn -0.0905 -0.7247 0.6831
vn -0.3258 -0.9055 0.2718
vn -0.9588 0.2467 -0.1412
vn -0.9404 -0.0242 -0.3393
vn -0.7748 0.3541 0.5237
vn -0.8380 0.3661 0.4046
vn -0.9819 -0.0345 -0.1860
vn -0.6056 0.2325 0.7610
vn -0.5757 0.2260 0.7858
vn -0.5968 0.2276 0.7694
vn -0.9805 0.1959 -0.0128
vn -0.7148 0.3021 0.6307
vn -0.9765 0.0175 -0.2146
vn -0.9944 -0.1050 0.0135
vn -0.7666 0.1520 0.6238
vn -0.9667 0.0539 0.2500
vn 0.6869 0.2711 0.6743
vn 0.0841 0.2380 0.9676
vn 0.0330 0.3062 0.9514
vn -0.0148 0.3722 0.9280
vn -0.7760 0.2143 0.5932
vn 0.7052 0.2168 0.6751
vn -0.8546 0.4114 0.3169
vn -0.8403 0.2804 0.4640
vn -0.9574 0.0672 -0.2808
vn -0.9779 0.2087 -0.0142
vn -0.9032 0.4001 -0.1551
vn 0.5811 0.4387 0.6855
vn 0.5683 0.3583 0.7407
vn -0.8032 0.5856 0.1097
vn -0.8059 0.5528 0.2120
vn -0.9180 0.2086 -0.3372
vn 0.6817 0.3079 0.6636
vn -0.8738 0.4527 -0.1777
vn 0.5395 0.4460 0.7141
vn -0.8494 0.3414 -0.4025
vn -0.8993 -0.0524 -0.4342
vn -0.9691 0.1047 -0.2232
vn -0.9651 0.2593 0.0371
vn 0.7476 -0.0846 -0.6587
vn 0.3528 -0.8452 0.4015
vn 0.7977 -0.4240 -0.4288
vn 0.7476 -0.6420 -0.1701
vn 0.4757 -0.8517 0.2199
vn 0.0783 -0.8693 0.4879
vn -0.5780 -0.3841 0.7200
vn -0.2063 -0.8298 0.5185
vn -0.6952 0.0461 0.7174
vn -0.6908 -0.0585 0.7207
vn -0.7279 -0.3692 0.5777
vn -0.5989 -0.0275 0.8004
vn -0.6949 -0.4977 0.5191
vn -0.8586 0.0684 0.5081
vn -0.6366 0.4152 0.6499
vn -0.3885 0.5487 0.7403
vn -0.6118 0.4457 0.6535
vn -0.8239 -0.3822 0.4184
vn -0.6625 0.0381 0.7481
vn -0.4564 -0.0262 0.8894
vn -0.6043 -0.4163 0.6793
vn -0.5531 -0.4452 0.7042
vn -0.6059 -0.4995 0.6193
vn -0.6580 -0.4331 0.6159
vn -0.3609 0.1910 0.9128
vn -0.5924 -0.2687 0.7595
vn -0.6850 -0.2457 0.6859
vn -0.1571 0.6754 0.7205
vn -0.0526 0.6703 0.7402
vn -0.0408 0.6228 0.7813
vn -0.1377 0.0467 0.9894
vn -0.0811 -0.1055 0.9911
vn 0.2806 0.6108 0.7404
vn 0.5961 0.5348 0.5989
vn 0.5906 0.4588 0.6638
vn 0.1333 -0.2042 0.9698
vn 0.1524 -0.0134 0.9882
vn 0.1704 -0.2750 0.9462
vn 0.5009 0.3763 0.7794
vn 0.4472 0.3622 0.8179
vn -0.6994 -0.3632 0.6156
vn 0.0715 0.1501 0.9861
vn 0.7231 0.4701 0.5061
vn 0.7919 0.2883 0.5383
vn 0.1975 0.6623 0.7228
vn 0.7167 0.4350 0.5451
vn -0.6149 0.2272 0.7551
vn -0.2329 0.4605 0.8566
vn 0.0016 0.3352 0.9421
vn 0.4722 0.5340 0.7014
vn -0.7263 -0.0964 0.6806
vn -0.4674 0.0797 0.8805
vn -0.7589 -0.6378 0.1311
vn -0.0312 -0.9580 0.2850
vn -0.3768 -0.9044 0.2001
vn -0.3532 -0.7699 0.5315
vn 0.2291 -0.7673 0.5990
vn 0.7861 0.1286 0.6046
vn 0.6300 -0.4566 0.6282
vn 0.8169 -0.0489 0.5748
vn 0.6176 -0.3628 0.6978
vn 0.7779 -0.0092 0.6283
vn 0.0983 -0.6214 0.7773
vn -0.3734 -0.3211 0.8703
vn -0.1099 -0.3267 0.9387
vn 0.6259 0.2463 0.7400
vn 0.6322 -0.2040 0.7474
vn -0.1456 -0.0567 0.9877
vn 0.6738 0.4668 0.5727
vn -0.7016 -0.4054 0.5860
vn -0.4880 -0.2167 0.8455
vn -0.4735 -0.2497 0.8446
vn -0.8141 -0.0861 0.5742
vn -0.7307 -0.6764 0.0922
vn -0.4272 -0.5760 0.6969
vn -0.0145 -0.0400 0.9991
vn 0.3442 0.0672 0.9365
vn 0.4263 -0.4643 0.7763
vn -0.2273 -0.3216 0.9192
vn -0.2225 -0.7835 0.5802
vn -0.8771 -0.4794 0.0313
vn -0.9278 -0.3686 -0.0572
vn -0.9399 -0.0976 0.3271
vn -0.8991 -0.3037 -0.3153
vn -0.8168 0.4581 -0.3506
vn -0.8332 0.3533 -0.4254
vn -0.8458 0.2192 -0.4863
vn -0.4279 0.9008 -0.0737
vn -0.2965 0.9536 -0.0528
vn -0.6176 0.7335 -0.2837
vn -0.8816 0.0208 -0.4715
vn -0.8544 -0.0491 -0.5172
vn -0.9156 0.2520 0.3134
vn -0.7321 0.4320 0.5267
vn -0.4004 0.5834 0.7066
vn -0.5100 0.4120 0.7551
vn -0.8657 0.4958 0.0695
vn -0.1096 0.5643 0.8183
vn 0.0148 0.4989 0.8665
vn -0.6830 0.4988 0.5336
vn -0.9439 -0.0170 -0.3298
vn -0.9762 0.1392 0.1662
vn -0.9968 0.0279 0.0752
vn -0.6227 0.4009 0.6719
vn -0.6940 -0.0475 -0.7185
vn -0.8762 0.0334 -0.4808
vn -0.8026 -0.0005 -0.5965
vn -0.8720 0.2789 -0.4023
vn -0.1833 0.7855 0.5911
vn -0.2500 0.7103 0.6580
vn -0.3719 0.7496 0.5475
vn 0.2074 0.4744 0.8555
vn -0.6629 0.0696 -0.7455
vn -0.4694 0.6287 0.6200
vn -0.2269 0.9724 -0.0538
vn 0.7360 0.0600 -0.6743
vn 0.7749 0.6225 0.1096
vn 0.0277 -0.5581 0.8293
vn 0.1817 -0.7514 0.6343
vn -0.0303 -0.7402 0.6717
vn -0.1207 -0.3114 0.9426
vn 0.1220 -0.6709 0.7314
vn 0.6393 -0.7632 0.0942
vn 0.6802 -0.6758 -0.2840
vn 0.5348 -0.8449 -0.0022
vn 0.2988 -0.9436 -0.1423
vn 0.6256 -0.3133 -0.7145
vn 0.4546 -0.6576 -0.6008
vn -0.5408 -0.1620 0.8254
vn 0.1425 -0.5743 0.8062
vn 0.1503 -0.4986 0.8537
vn 0.2698 -0.9272 0.2597
vn -0.5580 0.1361 0.8186
vn 0.0063 0.1174 0.9931
vn 0.2132 -0.0801 0.9737
vn -0.3819 0.4180 0.8243
vn -0.5180 0.2011 0.8314
vn -0.7366 -0.3280 0.5914
vn -0.5068 0.0406 0.8611
vn -0.5880 -0.3821 0.7129
vn -0.3443 0.3859 0.8559
vn -0.6793 -0.3439 0.6483
vn -0.3411 0.4635 0.8178
vn -0.2620 -0.7001 0.6642
vn -0.6737 -0.2694 0.6882
vn -0.7302 -0.1430 0.6681
vn -0.6587 -0.5902 0.4667
vn -0.4356 -0.2464 0.8658
vn -0.3807 -0.3352 0.8618
vn 0.1366 -0.5445 0.8276
vn 0.1060 -0.8334 0.5424
vn 0.1499 -0.1160 0.9819
vn 0.4607 0.2970 0.8364
vn 0.3885 0.2432 0.8888
vn 0.1610 0.6040 0.7805
vn 0.3400 0.5242 0.7808
vn 0.2418 0.6230 0.7439
vn -0.2837 -0.1898 0.9399
vn -0.3076 -0.4697 0.8275
vn -0.2254 0.3464 0.9106
vn 0.5200 0.2346 0.8213
vn 0.2876 0.2066 0.9352
vn 0.2479 0.3814 0.8906
vn -0.1087 -0.3799 0.9186
vn -0.0613 0.0927 0.9938
vn -0.0997 0.4088 0.9072
vn 0.1970 0.5637 0.8021
vn 0.1212 -0.2217 0.9675
vn 0.4388 -0.1719 0.8820
vn 0.3913 -0.0328 0.9197
vn 0.1459 0.4882 0.8605
vn -0.0276 -0.6689 0.7428
vn 0.3566 0.3056 0.8829
vn 0.2400 -0.4564 0.8568
vn 0.1609 -0.4731 0.8662
vn 0.5192 0.0778 0.8511
vn -0.4223 -0.6816 0.5975
vn -0.1155 -0.2060 0.9717
vn 0.0775 -0.0276 0.9966
vn 0.2310 -0.1675 0.9584
vn -0.0424 -0.4798 0.8763
vn 0.1453 -0.4594 0.8763
vn -0.0123 -0.7531 0.6578
vn -0.0832 -0.8791 0.4694
vn -0.0466 -0.7102 0.7025
vn -0.0688 -0.7506 0.6572
vn -0.1373 -0.2043 0.9692
vn -0.3997 -0.0472 0.9154
vn 0.5531 0.1281 0.8232
vn 0.2211 0.5702 0.7912
vn 0.5088 0.3718 0.7765
vn 0.0455 0.7624 0.6455
vn -0.3037 -0.7522 0.5848
vn -0.2300 -0.4446 0.8657
vn -0.7168 -0.5602 0.4151
vn -0.5250 -0.1287 0.8413
vn -0.6178 -0.3237 0.7166
vn -0.8446 -0.2921 0.4488
vn -0.7458 -0.2512 0.6169
vn -0.8259 -0.3894 0.4078
vn -0.0759 0.1679 0.9829
vn -0.5526 0.1018 0.8272
vn -0.6566 0.1390 0.7413
vn -0.1942 0.3865 0.9016
vn 0.3451 0.3441 0.8732
vn 0.1994 0.2973 0.9337
vn -0.5367 0.2380 0.8095
vn -0.0332 -0.2237 0.9741
vn -0.4924 -0.4162 0.7644
vn -0.5341 -0.0101 0.8454
vn -0.8143 -0.0301 0.5797
vn -0.5279 -0.5393 0.6561
vn -0.7964 -0.2082 0.5678
vn -0.0009 -0.7781 0.6282
vn -0.7158 0.1175 0.6884
vn -0.8216 0.0604 0.5668
vn 0.2973 -0.7454 0.5966
vn -0.0633 -0.6166 0.7847
vn -0.6236 -0.3559 0.6960
vn 0.3826 -0.4178 0.8241
vn -0.3693 -0.3293 0.8690
vn -0.7667 -0.0641 0.6388
vn -0.2602 0.0469 0.9644
vn -0.7166 0.0422 0.6962
vn -0.9975 0.0433 -0.0553
vn -0.2627 0.6344 0.7270
vn -0.2151 0.6786 0.7023
vn -0.8633 0.0174 -0.5045
vn -0.8576 0.3246 -0.3990
vn -0.8936 0.3967 -0.2101
vn -0.6308 0.7137 -0.3045
vn -0.7816 0.5769 0.2374
vn -0.4380 0.6647 0.6053
vn -0.3330 0.8592 0.3885
vn -0.4111 0.7677 0.4915
vn -0.3349 0.5494 0.7655
vn -0.2095 0.5313 0.8209
vn 0.0118 0.4520 0.8919
vn -0.1622 0.4469 0.8798
vn -0.8469 0.5288 0.0566
vn -0.5171 0.6740 0.5275
vn -0.5506 0.6574 0.5145
vn -0.6775 0.7219 0.1410
vn -0.8214 0.5544 -0.1339
vn -0.1815 0.8738 0.4513
vn -0.0964 0.8783 0.4683
vn -0.7267 0.6790 -0.1039
vn -0.7627 0.0865 -0.6410
vn -0.8437 0.1206 -0.5230
vn -0.6809 -0.1332 -0.7202
vn -0.8580 0.2210 -0.4637
vn -0.9389 0.2935 -0.1798
vn -0.9455 0.2095 -0.2492
vn -0.9632 0.2245 -0.1480
vn -0.7039 -0.0514 -0.7084
vn -0.4263 0.6387 0.6406
vn 0.0982 0.9179 0.3844
vn -0.5933 0.1168 -0.7964
vn -0.6379 0.1338 -0.7584
vn -0.7594 0.4099 -0.5054
vn -0.5240 0.8096 -0.2645
vn -0.3354 0.7060 0.6237
vn 0.2166 0.1077 0.9703
vn -0.0522 0.6215 0.7817
vn 0.2877 0.0300 0.9572
vn 0.4643 -0.3086 0.8302
vn 0.5634 -0.0981 0.8203
vn 0.5991 0.1838 0.7793
vn 0.8636 0.3665 0.3462
vn 0.9151 0.4028 0.0183
vn 0.3601 -0.1922 0.9129
vn 0.7154 -0.2022 0.6688
vn -0.5044 -0.2868 0.8144
vn 0.9742 -0.1924 0.1181
vn 0.9898 -0.1133 0.0862
vn 0.8966 -0.0994 0.4316
vn -0.0508 -0.9962 0.0712
vn -0.1741 -0.9046 -0.3890
vn -0.5605 -0.7945 -0.2338
vn -0.4126 -0.6978 -0.5856
vn 0.0848 -0.7158 -0.6931
vn 0.3228 -0.3906 -0.8621
vn -0.0674 0.4015 0.9134
vn 0.0215 -0.6949 0.7188
vn 0.3209 0.0196 0.9469
vn -0.5336 -0.5635 0.6307
vn -0.5133 0.1601 0.8431
vn 0.0519 0.5450 0.8368
vn -0.1092 -0.5608 0.8207
vn 0.4861 0.3099 0.8171
vn 0.0613 0.0752 0.9953
vn 0.0665 -0.5023 0.8622
vn 0.4164 -0.4514 0.7892
vn -0.2431 0.8531 0.4617
vn -0.7007 0.7080 0.0880
vn -0.4192 0.8546 0.3063
vn -0.4850 -0.8600 0.1586
vn -0.8232 -0.5659 -0.0461
vn -0.7021 -0.7120 -0.0105
vn 0.4566 -0.1071 0.8832
vn 0.2880 -0.1638 0.9435
vn 0.6286 -0.0399 0.7767
vn -0.4722 0.0044 0.8815
vn -0.6209 0.1129 0.7757
vn -0.6647 0.2059 0.7182
vn -0.8127 0.0529 0.5802
vn -0.9826 0.1591 -0.0953
vn -0.9523 0.2931 -0.0851
vn -0.6779 0.7232 -0.1316
vn -0.8812 0.4596 -0.1109
vn -0.6637 -0.7351 0.1387
vn -0.7759 -0.2126 0.5939
vn 0.8231 -0.2545 0.5077
vn 0.7322 -0.2263 0.6424
vn 0.8491 -0.4421 0.2889
vn 0.9828 -0.1829 0.0233
vn 0.9671 -0.2253 -0.1181
vn 0.9337 -0.1550 0.3226
vn 0.6986 0.4553 0.5519
vn 0.2716 0.4353 0.8584
vn 0.9507 0.1521 0.2702
vn 0.9822 -0.0890 -0.1657
vn 0.9456 0.0820 -0.3147
vn 0.8683 0.4813 0.1198
vn 0.8524 -0.1218 -0.5085
vn 0.7692 -0.1569 -0.6195
vn 0.7550 -0.0166 -0.6555
vn 0.8401 0.2635 -0.4741
vn 0.6393 0.4788 -0.6016
vn 0.6395 -0.0954 -0.7628
vn 0.6084 -0.0079 -0.7936
vn 0.5178 -0.3203 0.7933
vn 0.7989 -0.4214 0.4292
vn 0.8822 -0.4619 0.0916
vn 0.9292 -0.3693 -0.0133
vn 0.6902 -0.2270 -0.6871
vn 0.5560 -0.1348 -0.8202
vn 0.7731 -0.2271 -0.5922
vn 0.2911 0.6491 0.7028
vn 0.5073 0.7268 0.4630
vn 0.4603 0.7564 0.4648
vn -0.0777 0.7120 0.6978
vn 0.6201 0.2085 -0.7563
vn 0.3571 0.4946 -0.7924
vn -0.3152 0.9269 0.2039
vn 0.3956 0.7243 -0.5646
vn 0.6902 0.0960 -0.7173
vn 0.8813 0.3961 -0.2576
vn 0.9015 0.3541 -0.2490
vn 0.8965 0.4430 0.0067
vn 0.8382 -0.2924 0.4604
vn 0.5012 -0.1638 -0.8497
vn 0.5188 -0.0247 -0.8546
vn 0.9799 -0.1468 -0.1354
vn 0.9711 -0.1681 0.1693
vn -0.4728 0.7993 0.3709
vn -0.5995 0.7775 -0.1899
vn -0.5115 0.7903 0.3372
vn -0.4226 0.8053 -0.4159
vn -0.0697 -0.5739 -0.8160
vn -0.4756 -0.7423 -0.4720
vn 0.0059 -0.6202 -0.7844
vn -0.2924 -0.8205 -0.4912
vn -0.9423 0.0525 0.3305
vn -0.8842 0.4657 0.0366
vn -0.8213 -0.5019 0.2714
vn -0.7436 -0.0076 0.6685
vn 0.5619 -0.0316 -0.8266
vn 0.4712 0.0364 -0.8813
vn 0.7758 -0.2821 -0.5644
vn 0.6986 -0.2060 -0.6853
vn 0.5689 -0.2098 -0.7952
vn 0.2240 0.2077 -0.9522
vn 0.2320 0.8272 -0.5117
vn -0.2211 0.9661 -0.1331
vn 0.1168 0.4577 -0.8814
vn -0.2001 0.2908 -0.9356
vn 0.0443 0.3942 -0.9179
vn -0.1822 0.9808 -0.0691
vn 0.4956 0.0321 -0.8680
vn 0.7008 -0.0852 -0.7082
vn 0.5587 -0.1702 -0.8117
vn -0.6759 0.5173 -0.5250
vn -0.5096 0.2565 -0.8213
vn -0.8412 0.3629 -0.4009
vn 0.2743 -0.3792 -0.8838
vn -0.7908 0.3508 -0.5016
vn -0.8286 0.5211 -0.2044
vn -0.6288 -0.7774 -0.0124
vn -0.5876 -0.7789 -0.2192
vn -0.2433 -0.7917 -0.5604
vn 0.0916 -0.6052 -0.7908
vn -0.9782 -0.0990 0.1828
vn -0.8907 -0.0069 0.4545
vn -0.5489 0.1603 0.8204
vn -0.6602 -0.0245 0.7507
vn -0.7569 0.1770 0.6291
vn -0.9476 -0.0320 0.3178
vn -0.9226 0.2068 0.3256
vn -0.6375 0.3069 0.7067
vn -0.7528 0.6218 -0.2162
vn -0.7828 0.3885 0.4861
vn 0.1419 0.0096 -0.9898
vn 0.1693 0.0150 -0.9854
vn -0.2518 0.2167 -0.9432
vn 0.3627 -0.3241 -0.8737
vn 0.3321 0.0486 -0.9420
vn 0.1744 0.0440 -0.9837
vn -0.0532 0.1683 -0.9843
vn -0.1908 0.0984 -0.9767
vn -0.7169 0.4734 -0.5118
vn -0.3262 0.3174 -0.8904
vn -0.5837 0.4085 0.7017
vn -0.6794 0.2533 0.6886
vn -0.7944 0.1707 0.5830
vn -0.7573 0.5186 0.3969
vn -0.6704 0.4455 0.5933
vn -0.6263 0.7500 0.2130
vn -0.7516 0.6166 -0.2343
vn -0.5465 0.6522 0.5254
vn -0.4849 0.7778 -0.3999
vn -0.3684 0.9251 0.0921
vn 0.1005 0.8176 -0.5669
vn -0.1235 0.8841 -0.4507
vn 0.2042 0.2509 -0.9462
vn -0.2236 0.7284 -0.6477
vn 0.0847 0.9145 -0.3957
vn -0.9062 0.1371 0.4000
vn -0.9849 -0.0619 0.1615
vn -0.8223 0.3360 0.4593
vn -0.9693 0.2094 -0.1291
vn -0.9606 0.2470 -0.1270
vn -0.9843 0.0593 -0.1661
vn -0.8803 0.4560 -0.1308
vn -0.7045 0.0680 -0.7064
vn -0.3005 0.1005 -0.9485
vn -0.6528 0.2103 -0.7277
vn -0.0509 0.2022 -0.9780
vn -0.6447 0.2445 -0.7243
vn -0.6288 0.3059 -0.7148
vn 0.0491 0.3569 -0.9328
vn -0.6342 0.3244 -0.7018
vn -0.8142 -0.0357 -0.5794
vn -0.5533 0.0432 -0.8319
vn -0.9426 -0.0221 -0.3331
vn -0.9992 0.0402 0.0010
vn -0.8124 0.1976 -0.5486
vn -0.6583 0.1699 -0.7333
vn -0.3200 0.2866 -0.9030
vn -0.8440 0.3839 -0.3746
vn -0.4907 -0.8098 -0.3216
vn -0.6784 -0.0412 0.7335
vn -0.5234 0.0699 0.8492
vn -0.5629 0.0393 0.8256
vn -0.5325 -0.0771 0.8429
vn -0.5014 0.2137 0.8384
vn -0.3260 -0.1067 0.9393
vn -0.5162 -0.1774 0.8379
vn -0.4668 0.1326 0.8744
vn -0.1403 0.2995 0.9437
vn -0.3817 0.5513 0.7418
vn -0.0322 0.5213 0.8528
vn 0.1171 0.3742 0.9199
vn 0.2050 0.6021 0.7717
vn -0.2614 -0.1060 0.9594
vn 0.0388 0.2657 0.9633
vn -0.3199 0.8397 0.4389
vn -0.0889 0.7581 0.6461
vn 0.2815 0.6212 0.7313
vn 0.3579 0.7851 0.5056
vn -0.0890 0.9951 -0.0421
vn -0.0628 0.9720 0.2265
vn 0.1481 0.8659 0.4779
vn 0.3320 0.8503 0.4084
vn 0.1524 0.9691 -0.1940
vn 0.1713 0.9847 0.0307
vn 0.3945 0.9088 0.1359
vn 0.3744 0.9273 -0.0058
vn -0.7270 -0.6488 0.2248
vn -0.7749 -0.1133 0.6219
vn -0.5901 -0.8068 -0.0285
vn -0.4742 0.0559 0.8786
vn -0.5153 0.2509 0.8195
vn -0.5862 0.1385 0.7982
vn -0.7248 -0.3804 0.5745
vn -0.7251 -0.4201 0.5456
vn -0.6717 -0.2493 0.6976
vn -0.2035 0.1882 0.9608
vn -0.8615 0.1437 0.4869
vn -0.9171 -0.0275 0.3976
vn -0.1153 0.6032 0.7892
vn -0.4981 0.5582 0.6636
vn -0.5957 0.6552 0.4646
vn -0.8151 -0.0425 0.5778
vn -0.8199 0.5453 0.1743
vn -0.8751 0.4073 0.2613
vn -0.0284 0.8976 0.4399
vn 0.0648 0.9973 0.0346
vn -0.3909 0.9174 0.0748
vn 0.3361 0.2836 -0.8981
vn 0.5008 0.4230 -0.7552
vn 0.0482 0.3788 -0.9242
vn 0.3797 0.7877 -0.4851
vn 0.3586 0.8989 -0.2518
vn 0.1796 0.9583 -0.2223
vn 0.5100 0.5575 -0.6551
vn 0.3885 0.8105 -0.4384
vn -0.5756 -0.8134 -0.0837
vn -0.7265 -0.2013 0.6571
vn -0.0733 -0.7691 -0.6349
vn -0.0663 -0.7523 -0.6555
vn -0.5768 -0.2269 0.7848
vn -0.5926 -0.7837 0.1864
vn -0.5869 -0.7843 0.2010
vn -0.2211 -0.8397 -0.4960
vn -0.5398 0.3995 0.7410
vn -0.5317 0.6066 0.5910
vn -0.9448 -0.1010 0.3117
vn -0.8102 0.2551 0.5277
vn -0.8204 0.3943 0.4140
vn -0.6057 0.6502 0.4586
vn 0.1131 0.9520 -0.2846
vn -0.1779 0.9628 -0.2034
vn -0.7681 0.6300 0.1142
vn -0.7833 0.3928 0.4818
vn -0.5324 -0.1037 0.8401
vn -0.4112 -0.1782 0.8939
vn -0.5736 0.4515 0.6835
vn -0.3413 0.1503 0.9279
vn 0.3116 -0.2951 -0.9032
vn 0.5247 0.1456 -0.8387
vn -0.0428 0.9156 -0.3997
vn -0.6613 0.7473 0.0653
vn 0.1922 0.7555 -0.6264
vn -0.6311 0.6837 0.3665
vn 0.3451 0.4622 -0.8169
vn -0.0594 0.8114 -0.5815
vn -0.5823 0.8128 -0.0156
vn -0.0551 0.7429 -0.6671
vn -0.5201 -0.8185 0.2440
vn -0.4513 -0.5063 0.7348
vn 0.1428 -0.6106 -0.7790
vn -0.6291 0.7663 0.1304
vn -0.4437 0.8636 0.2392
vn -0.4467 0.5959 0.6674
vn -0.3899 0.8869 0.2478
vn -0.2713 0.9273 0.2577
vn -0.5976 0.6855 0.4158
vn -0.4044 0.8154 0.4142
vn -0.3861 0.8609 0.3313
vn -0.7473 0.5747 0.3335
vn -0.6448 0.7363 0.2053
vn -0.2983 0.8506 -0.4329
vn -0.3936 -0.5979 0.6983
vn -0.3049 -0.8954 -0.3245
vn -0.1074 -0.8524 -0.5117
vn -0.3479 0.0702 0.9349
vn -0.4052 0.2056 0.8908
vn -0.3518 0.8323 0.4284
vn -0.4073 -0.6210 0.6697
vn -0.1688 -0.9671 -0.1906
vn -0.3687 0.0085 0.9295
vn -0.3272 0.0040 0.9449
vn -0.5877 0.3158 0.7449
vn -0.5505 0.5654 0.6142
vn -0.5502 0.7816 0.2938
vn -0.7010 0.6130 0.3645
vn -0.6070 0.7713 -0.1915
vn -0.3771 -0.5563 0.7405
vn -0.2298 0.1369 0.9636
vn -0.3360 -0.5299 0.7787
vn -0.1899 -0.0029 0.9818
vn -0.2253 -0.9414 -0.2510
vn -0.5754 0.4249 0.6988
vn -0.3530 0.5039 0.7883
vn -0.6753 0.6372 0.3715
vn -0.3951 -0.5291 0.7509
vn -0.4157 0.4748 0.7758
vn -0.2635 0.1361 0.9550
vn -0.6883 0.3801 0.6179
vn -0.7027 0.6447 0.3010
vn 0.2531 0.4011 -0.8804
vn 0.4104 -0.0832 -0.9081
vn -0.3683 0.9297 0.0045
vn -0.1510 0.7963 -0.5857
vn -0.4691 0.8783 -0.0921
vn -0.2844 0.8802 -0.3799
vn -0.2991 0.7406 -0.6017
vn -0.0288 0.6079 -0.7935
vn 0.2859 0.2233 -0.9319
vn -0.1262 -0.8712 -0.4744
vn 0.1280 0.2295 -0.9649
vn -0.5321 0.7411 0.4094
vn -0.5886 -0.7137 0.3797
vn -0.7812 -0.3966 0.4821
vn -0.8994 -0.4362 -0.0281
vn -0.9949 -0.0716 -0.0712
vn -0.4962 -0.8495 -0.1795
vn -0.5878 -0.6394 -0.4955
vn -0.8882 -0.2373 -0.3934
vn -0.2635 -0.7959 -0.5451
vn -0.8243 0.5489 0.1383
vn -0.7483 0.6431 -0.1625
vn -0.9409 0.0206 -0.3379
vn -0.8170 0.5490 -0.1765
vn -0.5921 -0.2807 -0.7554
vn -0.6341 0.5544 -0.5390
vn -0.7914 0.1994 -0.5779
vn -0.0021 0.0038 -1.0000
vn -0.3070 0.5269 -0.7925
vn 0.0876 -0.5528 -0.8287
vn -0.2606 -0.5078 -0.8211
vn -0.1272 -0.1747 -0.9764
vn -0.4299 0.1005 -0.8973
s 1
usemtl mtl1.143
f 1//1 7//2 3//3
f 20//4 8//5 7//2
f 20//4 7//2 1//1
f 12//6 3//3 2//7
f 2//7 4//8 12//6
f 720//9 6//10 5//11
f 5//11 721//12 720//9
f 5//11 9//13 721//12
f 4//8 13//14 12//6
f 721//12 15//15 13//14
f 3//3 7//2 720//9
f 6//10 10//16 5//11
f 3//3 12//6 21//17
f 10//16 9//13 5//11
f 720//9 7//2 6//10
f 21//17 1//1 3//3
f 7//2 8//5 6//10
f 11//18 10//16 27//19
f 721//12 9//13 15//15
f 9//13 10//16 11//18
f 11//18 16//20 9//13
f 16//20 15//15 9//13
f 27//19 16//20 11//18
f 14//21 12//6 13//14
f 14//21 13//14 17//22
f 28//23 14//21 31//24
f 28//23 12//6 14//21
f 14//21 17//22 30//25
f 29//26 33//27 722//28
f 33//27 725//29 722//28
f 726//30 14//21 30//25
f 13//14 15//15 17//22
f 722//28 15//15 16//20
f 29//26 16//20 27//19
f 29//26 722//28 16//20
f 19//31 23//32 21//17
f 81//33 19//31 21//17
f 18//34 23//32 19//31
f 82//35 18//34 19//31
f 23//32 20//4 1//1
f 20//4 22//36 8//5
f 21//17 23//32 1//1
f 20//4 24//37 22//36
f 724//38 20//4 23//32
f 724//38 23//32 18//34
f 22//36 24//37 25//39
f 25//39 133//40 22//36
f 723//41 25//39 24//37
f 8//5 26//42 6//10
f 26//42 10//16 6//10
f 26//42 27//19 10//16
f 8//5 22//36 26//42
f 26//42 80//43 27//19
f 26//42 22//36 133//40
f 26//42 133//40 80//43
f 745//44 83//45 27//19
f 12//6 28//23 21//17
f 86//46 21//17 28//23
f 83//45 33//27 29//26
f 83//45 34//47 33//27
f 27//19 83//45 29//26
f 86//46 28//23 85//48
f 87//49 85//48 28//23
f 30//25 32//50 726//30
f 33//27 34//47 727//51
f 725//29 33//27 727//51
f 28//23 31//24 36//52
f 32//50 728//53 726//30
f 727//51 35//54 729//55
f 727//51 34//47 35//54
f 89//56 729//55 35//54
f 84//57 748//58 35//54
f 87//49 36//52 749//59
f 65//60 38//61 37//62
f 37//62 48//63 65//60
f 38//61 39//64 42//65
f 38//61 42//65 37//62
f 48//63 37//62 44//66
f 66//67 39//64 38//61
f 65//60 66//67 38//61
f 44//66 37//62 42//65
f 39//64 66//67 68//68
f 71//69 40//70 740//71
f 68//68 40//70 39//64
f 39//64 43//72 42//65
f 41//73 44//66 42//65
f 45//74 46//75 41//73
f 43//72 45//74 41//73
f 43//72 41//73 42//65
f 43//72 39//64 45//74
f 45//74 39//64 40//70
f 47//76 730//77 45//74
f 40//70 47//76 45//74
f 47//76 40//70 71//69
f 47//76 71//69 117//78
f 195//79 117//78 74//80
f 116//81 730//77 47//76
f 48//63 50//82 49//83
f 49//83 76//84 731//85
f 50//82 48//63 44//66
f 103//86 50//82 44//66
f 50//82 103//86 51//87
f 103//86 52//88 51//87
f 50//82 51//87 49//83
f 49//83 79//89 76//84
f 49//83 51//87 79//89
f 103//86 61//90 52//88
f 52//88 53//91 51//87
f 52//88 54//92 53//91
f 51//87 53//91 79//89
f 53//91 55//93 79//89
f 53//91 732//94 55//93
f 732//94 57//95 55//93
f 744//96 733//97 56//98
f 733//97 734//99 56//98
f 58//100 54//92 52//88
f 59//101 57//95 732//94
f 732//94 735//102 59//101
f 60//103 56//98 734//99
f 736//104 60//103 734//99
f 52//88 61//90 58//100
f 59//101 735//102 62//105
f 736//104 120//106 60//103
f 60//103 120//106 118//107
f 60//103 118//107 56//98
f 61//90 737//108 58//100
f 63//109 59//101 62//105
f 738//110 120//106 736//104
f 61//90 64//111 737//108
f 739//112 119//113 62//105
f 119//113 63//109 62//105
f 67//114 65//60 77//115
f 65//60 731//85 77//115
f 66//67 65//60 67//114
f 741//116 66//67 69//117
f 66//67 67//114 69//117
f 69//117 67//114 70//118
f 67//114 743//119 70//118
f 70//118 743//119 73//120
f 71//69 740//71 69//117
f 71//69 69//117 72//121
f 72//121 69//117 70//118
f 72//121 70//118 73//120
f 71//69 72//121 74//80
f 117//78 71//69 74//80
f 74//80 72//121 75//122
f 72//121 73//120 75//122
f 74//80 75//122 195//79
f 76//84 77//115 731//85
f 743//119 742//123 78//124
f 743//119 78//124 73//120
f 73//120 78//124 118//107
f 75//122 73//120 118//107
f 195//79 75//122 118//107
f 744//96 78//124 742//123
f 78//124 744//96 56//98
f 118//107 78//124 56//98
f 746//125 25//39 723//41
f 19//31 81//33 82//35
f 746//125 132//126 25//39
f 132//126 133//40 25//39
f 82//35 81//33 130//127
f 130//127 81//33 131//128
f 81//33 134//129 131//128
f 86//46 81//33 21//17
f 83//45 35//54 34//47
f 84//57 35//54 83//45
f 84//57 83//45 745//44
f 80//43 133//40 747//130
f 86//46 773//131 81//33
f 773//131 86//46 141//132
f 28//23 36//52 87//49
f 144//133 85//48 87//49
f 88//134 144//133 87//49
f 87//49 90//135 88//134
f 749//59 751//136 87//49
f 751//136 749//59 150//137
f 84//57 153//138 151//139
f 84//57 151//139 748//58
f 91//140 161//141 93//142
f 95//143 91//140 93//142
f 752//144 173//145 792//146
f 162//147 93//142 161//141
f 753//148 98//149 175//150
f 174//151 173//145 753//148
f 760//152 754//153 756//154
f 92//155 102//156 100//157
f 94//158 92//155 761//159
f 101//160 94//158 761//159
f 115//161 755//162 101//160
f 46//75 115//161 101//160
f 103//86 102//156 93//142
f 96//163 92//155 94//158
f 92//155 93//142 102//156
f 755//162 115//161 97//164
f 96//163 93//142 92//155
f 175//150 98//149 757//165
f 757//165 755//162 97//164
f 97//164 765//166 104//167
f 93//142 758//168 95//143
f 97//164 99//169 757//165
f 756//154 759//170 760//152
f 757//165 99//169 175//150
f 104//167 99//169 97//164
f 99//169 104//167 195//79
f 175//150 99//169 195//79
f 100//157 102//156 41//73
f 41//73 102//156 44//66
f 101//160 761//159 41//73
f 41//73 46//75 101//160
f 102//156 103//86 44//66
f 93//142 105//171 103//86
f 61//90 103//86 105//171
f 392//172 106//173 61//90
f 61//90 106//173 64//111
f 107//174 64//111 106//173
f 123//175 64//111 107//174
f 107//174 106//173 109//176
f 107//174 109//176 108//177
f 108//177 109//176 110//178
f 107//174 108//177 123//175
f 108//177 124//179 123//175
f 126//180 124//179 762//181
f 762//181 124//179 108//177
f 109//176 180//182 111//183
f 109//176 111//183 110//178
f 111//183 112//184 110//178
f 762//181 763//185 126//180
f 109//176 106//173 180//182
f 111//183 180//182 113//186
f 111//183 113//186 112//184
f 113//186 184//187 112//184
f 128//188 763//185 796//189
f 180//182 114//190 113//186
f 764//191 184//187 113//186
f 181//192 771//193 182//194
f 182//194 771//193 187//195
f 796//189 187//195 128//188
f 765//166 730//77 116//81
f 117//78 116//81 47//76
f 104//167 765//166 116//81
f 117//78 104//167 116//81
f 195//79 104//167 117//78
f 120//106 122//196 118//107
f 118//107 122//196 194//197
f 118//107 194//197 195//79
f 767//198 119//113 739//112
f 766//199 125//200 120//106
f 120//106 738//110 766//199
f 121//201 120//106 125//200
f 120//106 121//201 122//196
f 125//200 127//202 121//201
f 122//196 121//201 196//203
f 121//201 127//202 196//203
f 125//200 766//199 768//204
f 125//200 768//204 769//205
f 125//200 769//205 127//202
f 770//206 127//202 769//205
f 127//202 770//206 129//207
f 127//202 129//207 197//208
f 129//207 770//206 771//193
f 126//180 763//185 128//188
f 772//209 202//210 132//126
f 136//211 130//127 131//128
f 130//127 136//211 202//210
f 772//209 132//126 746//125
f 131//128 134//129 135//212
f 137//213 135//212 134//129
f 138//214 137//213 134//129
f 136//211 131//128 135//212
f 136//211 135//212 137//213
f 136//211 137//213 201//215
f 202//210 136//211 201//215
f 774//216 775//217 201//215
f 204//218 139//219 140//220
f 207//221 204//218 140//220
f 777//222 776//222 779//222
f 203//223 775//217 778//224
f 780//225 138//214 134//129
f 140//220 773//131 141//132
f 86//46 146//226 141//132
f 142//227 141//132 146//226
f 142//227 143//228 141//132
f 141//132 143//228 140//220
f 86//46 85//48 144//133
f 146//226 86//46 144//133
f 142//227 208//229 143//228
f 210//230 142//227 145//231
f 208//229 142//227 210//230
f 88//134 148//232 144//133
f 142//227 146//226 145//231
f 148//232 146//226 144//133
f 210//230 145//231 147//233
f 147//233 145//231 146//226
f 147//233 146//226 215//234
f 149//235 146//226 148//232
f 90//135 152//236 88//134
f 152//236 90//135 784//237
f 750//238 151//139 785//239
f 212//240 88//134 152//236
f 153//138 84//57 293//241
f 785//239 151//139 154//242
f 786//243 157//244 784//237
f 157//244 152//236 784//237
f 157//244 233//245 152//236
f 153//138 154//242 151//139
f 153//138 155//246 787//247
f 153//138 156//248 155//246
f 790//249 163//249 788//249
f 156//248 161//141 155//246
f 793//250 791//251 173//145
f 173//145 791//251 792//146
f 153//138 293//241 156//248
f 157//244 789//252 165//253
f 165//253 789//252 793//250
f 157//244 165//253 160//254
f 160//254 170//255 158//256
f 159//257 158//256 166//258
f 170//255 166//258 158//256
f 159//257 166//258 168//259
f 159//257 168//259 171//260
f 160//254 158//256 159//257
f 161//141 156//248 162//147
f 169//261 164//262 173//145
f 173//145 164//262 793//250
f 793//250 164//262 165//253
f 164//262 167//263 165//253
f 170//255 165//253 166//258
f 165//253 167//263 166//258
f 167//263 168//259 166//258
f 171//260 168//259 169//261
f 169//261 168//259 167//263
f 164//262 169//261 167//263
f 169//261 174//151 172//264
f 160//254 165//253 170//255
f 171//260 169//261 172//264
f 173//145 174//151 169//261
f 175//150 174//151 753//148
f 392//172 105//171 93//142
f 392//172 61//90 105//171
f 392//172 180//182 106//173
f 771//193 181//192 129//207
f 129//207 176//265 197//208
f 181//192 176//265 129//207
f 181//192 177//266 176//265
f 179//267 176//265 178//268
f 176//265 177//266 794//269
f 176//265 179//267 197//208
f 179//267 178//268 183//270
f 265//271 200//272 179//267
f 179//267 805//273 197//208
f 200//272 265//271 267//274
f 183//270 265//271 179//267
f 181//192 182//194 189//275
f 177//266 181//192 189//275
f 177//266 189//275 794//269
f 189//275 795//276 794//269
f 266//277 183//270 264//278
f 795//276 189//275 264//278
f 180//182 186//279 114//190
f 764//191 185//280 184//187
f 798//281 190//282 185//280
f 764//191 798//281 185//280
f 187//195 796//189 797//283
f 186//279 180//182 191//284
f 800//285 188//286 797//283
f 182//194 187//195 188//286
f 187//195 797//283 188//286
f 182//194 799//287 189//275
f 264//278 189//275 269//288
f 269//288 189//275 278//289
f 186//279 191//284 801//290
f 191//284 192//291 801//290
f 800//285 802//292 193//293
f 800//285 193//293 188//286
f 804//294 189//275 799//287
f 191//284 282//295 192//291
f 275//296 193//293 802//292
f 804//294 278//289 189//275
f 361//297 282//295 191//284
f 278//289 804//294 276//298
f 275//296 276//298 804//294
f 194//197 284//299 195//79
f 127//202 197//208 196//203
f 122//196 196//203 194//197
f 199//300 284//299 196//203
f 199//300 196//203 198//301
f 194//197 196//203 284//299
f 198//301 196//203 197//208
f 197//208 805//273 198//301
f 805//273 284//299 199//300
f 198//301 805//273 199//300
f 132//126 386//302 133//40
f 202//210 386//302 132//126
f 775//217 203//223 202//210
f 775//217 202//210 201//215
f 203//223 778//224 806//303
f 203//223 292//304 202//210
f 290//305 203//223 288//306
f 288//306 203//223 806//303
f 288//306 806//303 287//307
f 292//304 203//223 290//305
f 205//308 204//218 207//221
f 287//307 806//303 807//309
f 143//228 207//221 140//220
f 143//228 206//310 207//221
f 206//310 143//228 298//311
f 209//312 143//228 208//229
f 209//312 213//313 143//228
f 209//312 208//229 210//230
f 147//233 214//314 210//230
f 211//315 148//232 88//134
f 781//316 229//317 782//318
f 211//315 229//317 781//316
f 237//319 211//315 88//134
f 298//311 143//228 299//320
f 147//233 215//234 214//314
f 149//235 219//321 146//226
f 146//226 219//321 215//234
f 214//314 215//234 217//322
f 226//323 215//234 219//321
f 209//312 210//230 214//314
f 214//314 216//324 209//312
f 214//314 217//322 216//324
f 217//322 215//234 226//323
f 217//322 226//323 222//325
f 149//235 218//326 219//321
f 222//325 223//327 254//328
f 783//329 225//330 808//331
f 218//326 220//332 219//321
f 814//333 219//321 220//332
f 809//334 227//335 221//336
f 811//337 814//333 220//332
f 220//332 810//338 811//337
f 811//337 810//338 812//339
f 227//335 224//340 221//336
f 221//336 224//340 813//341
f 252//342 222//325 254//328
f 813//341 224//340 818//343
f 225//330 783//329 229//317
f 225//330 809//334 808//331
f 228//344 224//340 227//335
f 228//344 236//345 224//340
f 217//322 222//325 252//342
f 229//317 230//346 225//330
f 809//334 225//330 230//346
f 230//346 227//335 809//334
f 245//347 228//344 227//335
f 229//317 211//315 231//348
f 232//349 229//317 231//348
f 230//346 229//317 232//349
f 230//346 232//349 248//350
f 248//350 244//351 230//346
f 244//351 227//335 230//346
f 244//351 245//347 227//335
f 242//352 231//348 211//315
f 231//348 242//352 232//349
f 242//352 243//353 232//349
f 243//353 248//350 232//349
f 234//354 212//240 152//236
f 233//245 234//354 152//236
f 235//355 233//245 157//244
f 235//355 157//244 160//254
f 88//134 212//240 237//319
f 234//354 237//319 212//240
f 815//356 233//245 238//357
f 234//354 238//357 237//319
f 233//245 235//355 238//357
f 240//358 235//355 160//254
f 236//345 258//359 224//340
f 238//357 235//355 240//358
f 241//360 240//358 160//254
f 239//361 241//360 253//362
f 241//360 160//254 253//362
f 258//359 236//345 239//361
f 253//362 258//359 239//361
f 245//347 236//345 228//344
f 236//345 247//363 239//361
f 241//360 239//361 247//363
f 237//319 242//352 211//315
f 238//357 240//358 246//364
f 246//364 240//358 241//360
f 247//363 236//345 245//347
f 242//352 237//319 249//365
f 242//352 249//365 243//353
f 237//319 238//357 249//365
f 249//365 246//364 251//366
f 238//357 246//364 249//365
f 244//351 250//367 245//347
f 245//347 250//367 247//363
f 241//360 817//368 246//364
f 817//368 241//360 247//363
f 249//365 248//350 243//353
f 244//351 248//350 250//367
f 248//350 249//365 816//369
f 249//365 251//366 816//369
f 247//363 250//367 817//368
f 293//241 162//147 156//248
f 162//147 293//241 93//142
f 293//241 294//370 93//142
f 217//322 252//342 260//371
f 260//371 252//342 259//372
f 331//373 260//371 359//374
f 253//362 160//254 159//257
f 159//257 262//375 257//376
f 262//375 159//257 171//260
f 224//340 255//377 818//343
f 224//340 821//378 255//377
f 255//377 253//362 256//379
f 159//257 256//379 253//362
f 818//343 255//377 259//372
f 255//377 819//380 259//372
f 819//380 257//376 259//372
f 159//257 257//376 820//381
f 821//378 253//362 255//377
f 259//372 252//342 254//328
f 257//376 260//371 259//372
f 262//375 171//260 172//264
f 257//376 262//375 260//371
f 822//382 262//375 261//383
f 260//371 823//384 359//374
f 262//375 172//264 174//151
f 262//375 174//151 175//150
f 263//385 262//375 175//150
f 261//383 262//375 263//385
f 191//284 180//182 392//172
f 360//386 276//298 363//387
f 276//298 283//388 363//387
f 833//389 831//390 842//391
f 369//392 195//79 284//299
f 369//392 284//299 268//393
f 266//277 265//271 183//270
f 266//277 264//278 270//394
f 266//277 267//274 265//271
f 266//277 270//394 267//274
f 264//278 269//288 270//394
f 270//394 269//288 278//289
f 270//394 278//289 271//395
f 270//394 271//395 267//274
f 271//395 272//396 273//397
f 271//395 278//289 825//398
f 271//395 273//397 267//274
f 279//399 280//400 273//397
f 828//401 267//274 273//397
f 274//402 824//403 281//404
f 828//401 829//405 267//274
f 274//402 367//406 268//393
f 830//407 378//408 274//402
f 275//296 277//409 276//298
f 277//409 275//296 802//292
f 832//410 826//410 803//410
f 283//388 276//298 277//409
f 360//386 825//398 278//289
f 360//386 278//289 276//298
f 273//397 272//396 279//399
f 272//396 381//411 279//399
f 272//396 841//412 381//411
f 279//399 377//413 280//400
f 378//408 830//407 380//414
f 829//405 828//401 854//415
f 833//389 827//416 831//390
f 284//299 805//273 274//402
f 805//273 824//403 274//402
f 284//299 274//402 268//393
f 133//40 386//302 460//417
f 747//130 133//40 876//418
f 285//419 291//420 289//421
f 295//422 285//419 289//421
f 285//419 286//423 291//420
f 290//305 835//424 388//425
f 388//425 835//424 834//426
f 290//305 388//425 292//304
f 388//425 834//426 398//427
f 388//425 479//428 292//304
f 388//425 398//427 401//429
f 207//221 836//430 205//308
f 289//421 287//307 807//309
f 807//309 295//422 289//421
f 291//420 288//306 287//307
f 291//420 287//307 289//421
f 288//306 835//424 290//305
f 285//419 396//431 286//423
f 295//422 400//432 285//419
f 398//427 834//426 862//433
f 296//434 836//430 207//221
f 837//435 306//436 295//422
f 296//434 207//221 206//310
f 206//310 297//437 296//434
f 297//437 206//310 391//438
f 300//439 206//310 298//311
f 302//440 298//311 299//320
f 300//439 298//311 301//441
f 301//441 298//311 302//440
f 310//442 302//440 299//320
f 206//310 300//439 390//443
f 390//443 300//439 301//441
f 299//320 411//444 310//442
f 391//438 206//310 390//443
f 301//441 402//445 390//443
f 299//320 143//228 303//446
f 303//446 143//228 213//313
f 299//320 303//446 409//447
f 409//447 303//446 410//448
f 411//444 299//320 409//447
f 304//449 209//312 216//324
f 213//313 209//312 304//449
f 324//450 213//313 304//449
f 216//324 217//322 304//449
f 392//172 93//142 294//370
f 333//451 395//452 400//432
f 333//451 400//432 305//453
f 306//436 305//453 400//432
f 305//453 306//436 307//454
f 306//436 400//432 295//422
f 305//453 307//454 338//455
f 837//435 307//454 306//436
f 297//437 308//456 296//434
f 838//457 308//456 307//454
f 308//456 403//458 307//454
f 309//459 311//460 301//441
f 301//441 302//440 309//459
f 302//440 310//442 839//461
f 338//455 307//454 317//462
f 317//462 318//463 340//464
f 317//462 340//464 338//455
f 309//459 312//465 311//460
f 309//459 314//466 312//465
f 839//461 310//442 314//466
f 310//442 315//467 314//466
f 310//442 431//468 315//467
f 312//465 314//466 313//469
f 317//462 321//470 316//471
f 316//471 313//469 318//463
f 313//469 314//466 318//463
f 314//466 322//472 318//463
f 315//467 322//472 314//466
f 316//471 318//463 317//462
f 318//463 322//472 340//464
f 402//445 301//441 311//460
f 311//460 319//473 402//445
f 311//460 312//465 319//473
f 403//458 408//474 307//454
f 404//475 319//473 320//476
f 319//473 312//465 320//476
f 405//477 404//475 321//470
f 404//475 320//476 321//470
f 320//476 313//469 321//470
f 312//465 313//469 320//476
f 405//477 317//462 307//454
f 321//470 317//462 405//477
f 316//471 321//470 313//469
f 431//468 322//472 315//467
f 303//446 213//313 329//478
f 329//478 213//313 324//450
f 410//448 303//446 329//478
f 325//479 354//480 323//481
f 304//449 325//479 324//450
f 326//482 329//478 324//450
f 324//450 325//479 326//482
f 325//479 323//481 326//482
f 323//481 327//483 326//482
f 328//484 329//478 326//482
f 328//484 326//482 327//483
f 329//478 328//484 416//485
f 416//485 328//484 346//486
f 417//487 416//485 346//486
f 304//449 331//373 330//488
f 330//488 331//373 356//489
f 331//373 359//374 356//489
f 217//322 331//373 304//449
f 325//479 304//449 330//488
f 325//479 330//488 354//480
f 260//371 331//373 217//322
f 418//490 419//491 362//492
f 419//491 332//493 362//492
f 420//494 395//452 333//451
f 333//451 334//495 420//494
f 420//494 334//495 423//496
f 336//497 334//495 305//453
f 333//451 305//453 334//495
f 336//497 335//498 334//495
f 424//499 335//498 336//497
f 334//495 335//498 423//496
f 423//496 335//498 424//499
f 492//500 445//501 336//497
f 305//453 337//502 336//497
f 305//453 338//455 337//502
f 336//497 337//502 339//503
f 336//497 339//503 342//504
f 336//497 342//504 492//500
f 340//464 337//502 338//455
f 339//503 337//502 341//505
f 337//502 340//464 341//505
f 340//464 322//472 431//468
f 340//464 426//506 341//505
f 341//505 342//504 339//503
f 426//506 430//507 341//505
f 341//505 871//508 342//504
f 323//481 354//480 343//509
f 346//486 328//484 327//483
f 343//509 346//486 327//483
f 343//509 327//483 323//481
f 344//510 346//486 343//509
f 345//511 344//510 343//509
f 344//510 345//511 347//512
f 346//486 344//510 348//513
f 350//514 344//510 347//512
f 349//515 346//486 348//513
f 348//513 344//510 350//514
f 526//516 350//514 347//512
f 358//517 526//516 347//512
f 349//515 435//518 346//486
f 351//519 435//518 349//515
f 348//513 351//519 349//515
f 353//520 351//519 348//513
f 350//514 353//520 348//513
f 435//518 417//487 346//486
f 428//521 435//518 351//519
f 428//521 351//519 352//522
f 351//519 353//520 352//522
f 352//522 353//520 436//523
f 436//523 353//520 350//514
f 354//480 355//524 343//509
f 354//480 330//488 355//524
f 330//488 356//489 355//524
f 355//524 345//511 343//509
f 355//524 357//525 345//511
f 356//489 357//525 355//524
f 347//512 345//511 357//525
f 347//512 357//525 358//517
f 358//517 357//525 359//374
f 358//517 359//374 526//516
f 357//525 356//489 359//374
f 263//385 175//150 195//79
f 195//79 447//526 263//385
f 381//411 841//412 846//527
f 381//411 846//527 384//528
f 376//529 385//530 444//531
f 191//284 418//490 361//297
f 847//532 833//389 842//391
f 418//490 362//492 361//297
f 848//533 843//533 364//533
f 849//534 844//535 845//536
f 849//534 845//536 840//537
f 365//538 846//527 849//534
f 384//528 365//538 366//539
f 384//528 846//527 365//538
f 849//534 840//537 365//538
f 840//537 438//540 365//538
f 365//538 438//540 366//539
f 439//541 860//542 850//543
f 850//543 872//544 439//541
f 439//541 385//530 861//545
f 332//493 441//546 873//547
f 440//548 439//541 872//544
f 369//392 447//526 195//79
f 268//393 367//406 368//549
f 368//549 367//406 370//550
f 368//549 369//392 268//393
f 367//406 375//551 370//550
f 371//552 369//392 368//549
f 371//552 368//549 370//550
f 370//550 372//553 371//552
f 371//552 447//526 369//392
f 371//552 372//553 373//554
f 371//552 373//554 447//526
f 372//553 370//550 437//555
f 374//556 367//406 274//402
f 378//408 374//556 274//402
f 374//556 375//551 367//406
f 376//529 375//551 374//556
f 375//551 376//529 370//550
f 374//556 385//530 376//529
f 370//550 376//529 437//555
f 381//411 377//413 279//399
f 854//415 828//401 851//557
f 856//558 383//558 852//558
f 374//556 379//559 382//560
f 380//414 379//559 374//556
f 382//560 379//559 857//561
f 380//414 374//556 378//408
f 857//561 379//559 380//414
f 853//562 858//562 855//562
f 859//563 381//411 384//528
f 382//560 385//530 374//556
f 857//561 385//530 382//560
f 861//545 385//530 857//561
f 747//130 876//418 293//241
f 387//564 394//565 393//566
f 387//564 393//566 461//567
f 451//568 452//569 387//564
f 451//568 387//564 461//567
f 479//428 202//210 292//304
f 388//425 401//429 479//428
f 479//428 386//302 202//210
f 293//241 389//570 294//370
f 389//570 392//172 294//370
f 473//571 293//241 876//418
f 389//570 293//241 473//571
f 389//570 473//571 392//172
f 478//572 393//566 475//573
f 478//572 461//567 393//566
f 396//431 285//419 400//432
f 407//574 391//438 390//443
f 392//172 508//575 481//576
f 475//573 191//284 480//577
f 191//284 475//573 418//490
f 393//566 419//491 418//490
f 393//566 418//490 475//573
f 393//566 394//565 419//491
f 396//431 400//432 395//452
f 397//578 398//427 862//433
f 862//433 395//452 397//578
f 399//579 398//427 397//578
f 422//580 488//581 399//579
f 484//582 401//429 398//427
f 484//582 398//427 399//579
f 484//582 485//583 401//429
f 399//579 488//581 484//582
f 308//456 297//437 406//584
f 403//458 308//456 406//584
f 297//437 391//438 406//584
f 407//574 390//443 402//445
f 863//585 402//445 404//475
f 402//445 319//473 404//475
f 408//474 405//477 307//454
f 408//474 864//586 405//477
f 405//477 864//586 404//475
f 391//438 407//574 406//584
f 403//458 406//584 408//474
f 406//584 864//586 408//474
f 431//468 310//442 411//444
f 412//587 410//448 329//478
f 414//588 411//444 409//447
f 409//447 410//448 412//587
f 431//468 411//444 413//589
f 409//447 412//587 414//588
f 411//444 414//588 413//589
f 866//590 412//587 417//487
f 413//589 415//591 431//468
f 865//592 867//592 868//592
f 417//487 869//593 866//590
f 869//593 417//487 434//594
f 417//487 329//478 416//485
f 329//478 417//487 412//587
f 442//595 332//493 419//491
f 442//595 441//546 332//493
f 394//565 442//595 419//491
f 486//596 443//597 442//595
f 486//596 442//595 394//565
f 421//598 395//452 420//494
f 423//496 421//598 420//494
f 425//599 421//598 423//496
f 395//452 421//598 397//578
f 422//580 421//598 425//599
f 397//578 422//580 399//579
f 397//578 421//598 422//580
f 425//599 488//581 422//580
f 424//499 425//599 423//496
f 425//599 424//499 445//501
f 336//497 445//501 424//499
f 445//501 491//600 425//599
f 340//464 431//468 426//506
f 426//506 427//601 430//507
f 427//601 429//602 430//507
f 427//601 428//521 429//602
f 428//521 352//522 429//602
f 426//506 433//603 427//601
f 427//601 433//603 428//521
f 428//521 434//594 435//518
f 870//604 432//605 871//508
f 352//522 432//605 870//604
f 871//508 432//605 446//606
f 431//468 415//591 426//506
f 426//506 415//591 433//603
f 446//606 432//605 526//516
f 434//594 433//603 415//591
f 428//521 433//603 434//594
f 417//487 435//518 434//594
f 432//605 352//522 436//523
f 432//605 436//523 526//516
f 436//523 350//514 526//516
f 261//383 263//385 447//526
f 493//607 359//374 447//526
f 359//374 823//384 447//526
f 448//608 437//555 518//609
f 518//609 437//555 444//531
f 440//548 872//544 874//610
f 440//548 444//531 439//541
f 874//610 444//531 440//548
f 444//531 385//530 439//541
f 443//597 441//546 442//595
f 875//611 444//531 874//610
f 444//531 875//611 486//596
f 492//500 494//612 445//501
f 495//613 492//500 342//504
f 342//504 871//508 446//606
f 446//606 495//613 342//504
f 526//516 495//613 446//606
f 448//608 372//553 437//555
f 447//526 373//554 448//608
f 448//608 373//554 372//553
f 448//608 518//609 447//526
f 461//567 449//614 465//615
f 461//567 462//616 449//614
f 449//614 456//617 465//615
f 462//616 450//618 449//614
f 449//614 450//618 456//617
f 451//568 465//615 453//619
f 451//568 453//619 452//569
f 452//569 457//620 467//621
f 453//619 454//622 452//569
f 457//620 452//569 454//622
f 465//615 456//617 453//619
f 456//617 455//623 453//619
f 453//619 455//623 454//622
f 455//623 458//624 454//622
f 458//624 459//625 454//622
f 456//617 466//626 455//623
f 455//623 466//626 458//624
f 450//618 466//626 456//617
f 464//627 466//626 450//618
f 459//625 457//620 454//622
f 469//628 458//624 466//626
f 469//628 470//629 458//624
f 458//624 470//629 459//625
f 470//629 471//630 459//625
f 469//628 466//626 497//631
f 501//632 460//417 386//302
f 476//633 477//634 461//567
f 476//633 461//567 478//572
f 462//616 461//567 477//634
f 496//635 462//616 477//634
f 496//635 463//636 462//616
f 884//637 504//638 464//627
f 462//616 463//636 450//618
f 464//627 450//618 878//639
f 464//627 878//639 884//637
f 466//626 464//627 497//631
f 451//568 461//567 465//615
f 452//569 467//621 387//564
f 467//621 468//640 387//564
f 387//564 468//640 394//565
f 459//625 468//640 457//620
f 457//620 468//640 467//621
f 879//641 468//640 459//625
f 468//640 879//641 472//642
f 468//640 880//643 394//565
f 469//628 498//644 470//629
f 470//629 498//644 471//630
f 498//644 505//645 471//630
f 394//565 880//643 483//646
f 471//630 505//645 881//647
f 460//417 501//632 474//648
f 877//649 883//650 473//571
f 888//651 473//571 883//650
f 480//577 502//652 475//573
f 475//573 477//634 476//633
f 475//573 502//652 477//634
f 477//634 502//652 496//635
f 475//573 476//633 478//572
f 485//583 479//428 401//429
f 513//653 386//302 479//428
f 479//428 485//583 513//653
f 473//571 888//651 392//172
f 474//648 501//632 889//654
f 392//172 481//576 480//577
f 509//655 481//576 508//575
f 509//655 510//656 481//576
f 191//284 392//172 480//577
f 480//577 481//576 510//656
f 510//656 502//652 480//577
f 482//657 394//565 483//646
f 516//658 482//657 483//646
f 487//659 482//657 516//658
f 512//660 516//658 483//646
f 485//583 484//582 490//661
f 490//661 484//582 488//581
f 394//565 487//659 486//596
f 394//565 482//657 487//659
f 516//658 486//596 487//659
f 488//581 425//599 489//662
f 490//661 488//581 489//662
f 489//662 425//599 491//600
f 520//663 490//661 519//664
f 444//531 437//555 376//529
f 491//600 445//501 494//612
f 489//662 491//600 494//612
f 490//661 489//662 519//664
f 519//664 489//662 494//612
f 526//516 359//374 493//607
f 522//665 447//526 523//666
f 447//526 518//609 523//666
f 492//500 495//613 494//612
f 568//667 495//613 529//668
f 464//627 504//638 497//631
f 499//669 497//631 504//638
f 504//638 500//670 499//669
f 469//628 497//631 499//669
f 498//644 469//628 499//669
f 499//669 500//670 498//644
f 498//644 500//670 505//645
f 885//671 891//672 503//673
f 885//671 503//673 884//637
f 504//638 884//637 503//673
f 504//638 507//674 500//670
f 506//675 881//647 505//645
f 886//676 512//660 483//646
f 500//670 507//674 505//645
f 887//677 505//645 507//674
f 507//674 530//678 892//679
f 507//674 892//679 887//677
f 882//680 886//676 483//646
f 501//632 386//302 513//653
f 889//654 501//632 532//681
f 891//672 890//682 511//683
f 511//683 503//673 891//672
f 516//658 512//660 517//684
f 517//684 512//660 530//678
f 530//678 515//685 517//684
f 501//632 513//653 532//681
f 890//682 889//654 511//683
f 514//686 444//531 486//596
f 515//685 514//686 517//684
f 517//684 486//596 516//658
f 486//596 517//684 514//686
f 520//663 485//583 490//661
f 485//583 521//687 513//653
f 485//583 520//663 521//687
f 444//531 538//688 518//609
f 444//531 514//686 538//688
f 514//686 515//685 538//688
f 447//526 522//665 493//607
f 523//666 518//609 537//689
f 537//689 518//609 538//688
f 495//613 524//690 494//612
f 519//664 494//612 524//690
f 524//690 495//613 568//667
f 569//691 524//690 568//667
f 524//690 569//691 525//692
f 520//663 519//664 525//692
f 524//690 525//692 519//664
f 521//687 520//663 570//693
f 526//516 529//668 495//613
f 556//694 546//695 493//607
f 493//607 893//696 527//697
f 527//697 893//696 528//698
f 560//699 556//694 527//697
f 527//697 556//694 493//607
f 560//699 527//697 528//698
f 528//698 565//700 560//699
f 893//696 894//701 528//698
f 537//689 564//702 523//666
f 528//698 894//701 904//703
f 528//698 904//703 565//700
f 503//673 531//704 504//638
f 504//638 531//704 507//674
f 507//674 531//704 530//678
f 531//704 515//685 530//678
f 531//704 503//673 533//705
f 531//704 533//705 534//706
f 531//704 534//706 515//685
f 513//653 521//687 605//707
f 536//708 511//683 889//654
f 554//709 511//683 536//708
f 503//673 511//683 554//709
f 503//673 554//709 533//705
f 533//705 554//709 535//710
f 535//710 534//706 533//705
f 538//688 515//685 534//706
f 605//707 521//687 570//693
f 554//709 563//711 535//710
f 566//712 564//702 537//689
f 895//713 538//688 534//706
f 535//710 895//713 534//706
f 540//714 493//607 539//715
f 547//716 539//715 493//607
f 539//715 547//716 541//717
f 539//715 541//717 542//718
f 540//714 539//715 542//718
f 543//719 542//718 541//717
f 549//720 543//719 541//717
f 579//721 540//714 542//718
f 579//721 542//718 543//719
f 544//722 543//719 549//720
f 544//722 582//723 543//719
f 582//723 579//721 543//719
f 608//724 544//722 549//720
f 608//724 545//725 544//722
f 545//725 582//723 544//722
f 889//654 606//726 536//708
f 549//720 607//727 608//724
f 608//724 585//728 545//725
f 547//716 493//607 546//695
f 547//716 546//695 548//729
f 548//729 546//695 553//730
f 547//716 550//731 541//717
f 547//716 548//729 550//731
f 551//732 896//733 901//734
f 898//735 549//720 541//717
f 549//720 898//735 896//733
f 902//736 555//737 899//738
f 896//733 551//732 549//720
f 536//708 606//726 555//737
f 536//708 555//737 554//709
f 606//726 552//739 555//737
f 899//738 900//740 897//741
f 555//737 900//740 899//738
f 606//726 909//742 552//739
f 910//743 897//741 900//740
f 553//730 546//695 556//694
f 553//730 556//694 558//744
f 554//709 555//737 563//711
f 555//737 558//744 559//745
f 558//744 555//737 902//736
f 558//744 556//694 557//746
f 559//745 558//744 557//746
f 563//711 555//737 559//745
f 560//699 557//746 556//694
f 557//746 560//699 561//747
f 565//700 561//747 560//699
f 557//746 903//748 562//749
f 903//748 566//712 562//749
f 559//745 557//746 562//749
f 535//710 563//711 567//750
f 559//745 562//749 563//711
f 563//711 562//749 567//750
f 567//750 562//749 566//712
f 905//751 566//712 903//748
f 564//702 566//712 905//751
f 567//750 895//713 535//710
f 566//712 895//713 567//750
f 525//692 570//693 520//663
f 525//692 590//752 570//693
f 569//691 590//752 525//692
f 529//668 526//516 616//753
f 616//753 526//516 592//754
f 572//755 526//516 493//607
f 571//756 572//755 493//607
f 574//757 571//756 493//607
f 576//758 571//756 574//757
f 571//756 576//758 573//759
f 573//759 572//755 571//756
f 572//755 592//754 526//516
f 593//760 592//754 572//755
f 573//759 593//760 572//755
f 574//757 575//761 576//758
f 540//714 580//762 493//607
f 579//721 580//762 540//714
f 580//762 574//757 493//607
f 580//762 577//763 574//757
f 574//757 577//763 575//761
f 577//763 578//764 575//761
f 577//763 581//765 578//764
f 575//761 594//766 576//758
f 575//761 578//764 594//766
f 578//764 595//767 594//766
f 578//764 581//765 595//767
f 594//766 573//759 576//758
f 580//762 579//721 583//768
f 583//768 579//721 582//723
f 580//762 583//768 584//769
f 580//762 584//769 577//763
f 577//763 584//769 581//765
f 581//765 598//770 595//767
f 581//765 589//771 598//770
f 545//725 586//772 582//723
f 586//772 583//768 582//723
f 587//773 584//769 583//768
f 587//773 583//768 586//772
f 588//774 584//769 587//773
f 581//765 584//769 588//774
f 589//771 581//765 588//774
f 598//770 589//771 602//775
f 545//725 585//728 586//772
f 585//728 610//776 586//772
f 610//776 587//773 586//772
f 610//776 611//777 587//773
f 611//777 588//774 587//773
f 611//777 612//778 588//774
f 612//778 589//771 588//774
f 612//778 602//775 589//771
f 602//775 612//778 627//779
f 590//752 569//691 568//667
f 591//780 590//752 568//667
f 568//667 529//668 906//781
f 906//781 529//668 616//753
f 590//752 591//780 617//782
f 616//753 592//754 635//783
f 635//783 592//754 633//784
f 593//760 573//759 620//785
f 914//786 573//759 601//787
f 593//760 633//784 592//754
f 596//788 573//759 594//766
f 594//766 597//789 596//788
f 594//766 595//767 597//789
f 596//788 907//790 600//791
f 599//792 595//767 598//770
f 573//759 596//788 601//787
f 597//789 595//767 599//792
f 601//787 596//788 600//791
f 908//793 599//792 604//794
f 621//795 601//787 600//791
f 907//790 604//794 600//791
f 600//791 630//796 625//797
f 602//775 603//798 599//792
f 598//770 602//775 599//792
f 599//792 603//798 604//794
f 627//779 628//799 602//775
f 628//799 603//798 602//775
f 628//799 629//800 603//798
f 629//800 604//794 603//798
f 630//796 600//791 604//794
f 629//800 630//796 604//794
f 532//681 609//801 889//654
f 532//681 615//802 609//801
f 609//801 606//726 889//654
f 606//726 609//801 909//742
f 909//742 609//801 911//803
f 585//728 608//724 614//804
f 609//801 614//804 608//724
f 614//804 609//801 615//802
f 585//728 614//804 610//776
f 610//776 613//805 611//777
f 613//805 612//778 611//777
f 612//778 613//805 627//779
f 614//804 613//805 610//776
f 631//806 627//779 613//805
f 614//804 631//806 613//805
f 615//802 642//807 614//804
f 631//806 614//804 639//808
f 615//802 532//681 642//807
f 617//782 618//809 590//752
f 912//810 906//781 616//753
f 913//811 570//693 590//752
f 570//693 913//811 646//812
f 616//753 644//813 912//810
f 645//814 618//809 617//782
f 916//815 645//814 617//782
f 917//816 646//812 913//811
f 620//785 621//795 593//760
f 593//760 619//817 633//784
f 619//817 624//818 633//784
f 621//795 619//817 593//760
f 621//795 914//786 601//787
f 621//795 600//791 622//819
f 622//819 600//791 625//797
f 619//817 621//795 623//820
f 623//820 621//795 622//819
f 624//818 619//817 623//820
f 622//819 626//821 623//820
f 625//797 626//821 622//819
f 624//818 623//820 626//821
f 634//822 624//818 626//821
f 631//806 639//808 637//823
f 631//806 637//823 638//824
f 625//797 630//796 915//825
f 652//826 626//821 625//797
f 631//806 628//799 627//779
f 631//806 629//800 628//799
f 915//825 630//796 629//800
f 631//806 638//824 629//800
f 632//827 644//813 616//753
f 644//813 632//827 655//828
f 634//822 633//784 624//818
f 633//784 634//822 648//829
f 635//783 633//784 648//829
f 663//830 635//783 648//829
f 632//827 616//753 635//783
f 708//831 513//653 605//707
f 532//681 513//653 636//832
f 708//831 605//707 570//693
f 642//807 639//808 614//804
f 639//808 641//833 637//823
f 637//823 641//833 638//824
f 652//826 625//797 640//834
f 640//834 625//797 915//825
f 642//807 641//833 639//808
f 641//833 640//834 638//824
f 642//807 643//835 641//833
f 626//821 652//826 650//836
f 675//837 643//835 642//807
f 653//838 641//833 643//835
f 918//839 640//834 641//833
f 636//832 642//807 532//681
f 675//837 642//807 636//832
f 653//838 643//835 680//840
f 659//841 645//814 916//815
f 655//828 919//842 644//813
f 646//812 682//843 570//693
f 626//821 647//844 634//822
f 649//845 648//829 634//822
f 647//844 649//845 634//822
f 648//829 649//845 656//846
f 647//844 626//821 650//836
f 651//847 649//845 647//844
f 647//844 650//836 651//847
f 651//847 658//848 649//845
f 679//849 676//850 650//836
f 650//836 676//850 651//847
f 651//847 676//850 688//851
f 654//852 640//834 681//853
f 652//826 640//834 654//852
f 640//834 918//839 681//853
f 650//836 652//826 679//849
f 680//840 925//854 653//838
f 652//826 654//852 679//849
f 681//853 679//849 654//852
f 919//842 655//828 661//855
f 917//816 920//856 687//857
f 682//843 646//812 687//857
f 917//816 687//857 646//812
f 632//827 635//783 655//828
f 635//783 663//830 671//858
f 648//829 656//846 663//830
f 656//846 664//859 663//830
f 657//860 656//846 649//845
f 658//848 657//860 649//845
f 656//846 657//860 688//851
f 688//851 657//860 658//848
f 688//851 658//848 651//847
f 662//861 919//842 661//855
f 687//857 920//856 922//862
f 635//783 660//863 655//828
f 635//783 671//858 660//863
f 660//863 671//858 921//864
f 655//828 660//863 921//864
f 664//859 671//858 663//830
f 672//865 671//858 664//859
f 665//866 664//859 656//846
f 672//865 664//859 665//866
f 689//867 665//866 656//846
f 689//867 666//868 665//866
f 672//865 665//866 666//868
f 666//868 689//867 713//869
f 689//867 656//846 688//851
f 662//861 661//855 692//870
f 671//858 668//871 921//864
f 692//870 661//855 667//872
f 668//871 923//873 921//864
f 687//857 922//862 926//874
f 668//871 671//858 672//865
f 669//875 670//876 668//871
f 669//875 668//871 672//865
f 672//865 666//868 669//875
f 669//875 666//868 695//877
f 692//870 667//872 673//878
f 670//876 674//879 668//871
f 923//873 668//871 924//880
f 674//879 924//880 668//871
f 924//880 674//879 701//881
f 701//881 674//879 702//882
f 677//883 675//837 636//832
f 636//832 513//653 707//884
f 643//835 675//837 680//840
f 680//840 675//837 677//883
f 707//884 513//653 708//831
f 676//850 679//849 683//885
f 678//886 683//885 925//854
f 679//849 681//853 683//885
f 677//883 678//886 680//840
f 680//840 678//886 925//854
f 690//887 688//851 683//885
f 683//885 688//851 676//850
f 684//888 691//889 690//887
f 684//888 690//887 683//885
f 678//886 684//888 683//885
f 685//890 678//886 677//883
f 678//886 685//890 684//888
f 707//884 686//891 636//832
f 636//832 686//891 677//883
f 677//883 686//891 685//890
f 685//890 691//889 684//888
f 693//892 682//843 687//857
f 688//851 690//887 689//867
f 690//887 713//869 689//867
f 691//889 713//869 690//887
f 685//890 709//893 691//889
f 687//857 926//874 693//892
f 695//877 670//876 669//875
f 670//876 695//877 694//894
f 713//869 694//894 695//877
f 695//877 666//868 713//869
f 692//870 673//878 696//895
f 696//895 673//878 927//896
f 697//897 696//895 927//896
f 697//897 927//896 703//898
f 698//899 926//874 696//895
f 697//897 698//899 696//895
f 693//892 926//874 698//899
f 697//897 700//900 698//899
f 700//900 697//897 705//901
f 705//901 697//897 703//898
f 699//902 693//892 698//899
f 698//899 700//900 699//902
f 694//894 674//879 670//876
f 702//882 674//879 694//894
f 702//882 928//903 701//881
f 704//904 928//903 702//882
f 702//882 713//869 704//904
f 713//869 702//882 694//894
f 705//901 703//898 706//905
f 929//906 928//903 704//904
f 715//907 700//900 705//901
f 704//904 718//908 716//909
f 716//909 715//907 705//901
f 706//905 716//909 705//901
f 716//909 929//906 704//904
f 709//893 707//884 708//831
f 707//884 709//893 686//891
f 685//890 686//891 709//893
f 709//893 708//831 711//910
f 709//893 711//910 714//911
f 682//843 693//892 710//912
f 682//843 710//912 708//831
f 699//902 710//912 693//892
f 682//843 708//831 570//693
f 708//831 710//912 711//910
f 710//912 717//913 712//914
f 711//910 710//912 712//914
f 711//910 712//914 719//915
f 713//869 691//889 714//911
f 714//911 691//889 709//893
f 714//911 718//908 713//869
f 718//908 704//904 713//869
f 711//910 719//915 714//911
f 718//908 714//911 719//915
f 717//913 710//912 699//902
f 700//900 717//913 699//902
f 717//913 700//900 715//907
f 715//907 719//915 717//913
f 716//909 719//915 715//907
f 718//908 719//915 716//909
f 712//914 717//913 719//915
