# Blender 4.0.2
# www.blender.org
mtllib toe_1_dist_l.mtl
o toe_1_dist_l
v 0.012390 0.001339 -0.001364
v 0.014489 0.001763 -0.003894
v 0.006504 0.003305 -0.000307
v 0.005909 0.002039 -0.007075
v 0.002204 0.002969 -0.007952
v 0.008511 0.001542 0.001866
v 0.012686 0.002092 -0.004054
v -0.000454 0.004595 -0.004046
v 0.003091 0.004677 0.001892
v 0.003349 0.003678 0.006411
v 0.014989 0.000112 -0.001826
v 0.017256 0.002027 -0.005611
v 0.012536 -0.001376 0.000652
v 0.014055 -0.002221 0.000043
v 0.000845 0.003189 -0.007663
v 0.001211 0.002375 -0.008312
v 0.001033 -0.001129 -0.008798
v 0.005104 -0.002280 -0.008663
v 0.013052 0.000692 -0.007807
v 0.008501 -0.000009 -0.007991
v 0.008798 -0.000388 0.002836
v 0.007119 -0.000419 0.004312
v 0.004776 -0.000681 0.007125
v 0.002236 0.000124 -0.000119
v 0.001812 0.004116 0.004651
v 0.002261 0.001136 0.007648
v 0.017705 -0.000186 -0.001868
v 0.016988 -0.001641 -0.001537
v 0.016701 0.001034 -0.007476
v 0.022109 0.000896 -0.007671
v 0.019513 -0.000277 -0.001444
v 0.022680 0.000845 -0.005617
v 0.012042 -0.002350 -0.000061
v 0.008996 -0.002294 0.002112
v 0.012054 -0.002703 -0.007372
v 0.015701 -0.003017 -0.000770
v 0.016164 -0.002545 -0.000681
v 0.000761 -0.001934 -0.007362
v 0.001059 -0.001983 -0.006539
v 0.001678 -0.001824 -0.004397
v 0.000677 -0.002573 -0.008132
v 0.000592 -0.002615 -0.007469
v 0.008852 -0.002182 -0.007857
v 0.008876 -0.003024 -0.007104
v 0.003051 -0.004034 -0.008382
v 0.012226 -0.000788 -0.008279
v 0.013872 -0.002546 -0.008285
v 0.006925 -0.001865 0.004181
v 0.005793 -0.001964 0.006230
v 0.004393 -0.001750 0.007207
v 0.002173 -0.002094 0.000005
v 0.001889 -0.001799 -0.002515
v 0.001925 -0.001736 -0.001271
v 0.001603 -0.002135 0.004661
v 0.002038 -0.003086 0.002539
v 0.001865 -0.001563 0.006887
v 0.002576 -0.001418 0.007797
v 0.018024 -0.002272 -0.000453
v 0.017668 -0.002143 -0.000889
v 0.019008 -0.002023 -0.000546
v 0.016960 -0.002277 -0.000947
v 0.023443 -0.000696 -0.008449
v 0.018776 -0.001100 -0.009869
v 0.024425 -0.000805 -0.005900
v 0.021880 -0.002238 -0.002106
v 0.024317 -0.000966 -0.004842
v 0.006861 -0.003063 0.000958
v 0.019829 -0.002784 -0.001320
v 0.017986 -0.002952 -0.001227
v 0.021663 -0.002956 -0.003900
v 0.017187 -0.002939 -0.000847
v 0.001648 -0.002547 -0.006741
v 0.002515 -0.002135 -0.004778
v 0.002403 -0.002227 -0.005434
v 0.002350 -0.002150 -0.003091
v 0.001482 -0.003155 -0.006835
v 0.001504 -0.004087 -0.007823
v 0.001688 -0.004447 -0.006978
v 0.003181 -0.005125 -0.006804
v 0.002983 -0.005175 -0.002161
v 0.002421 -0.004730 0.004745
v 0.002599 -0.003306 0.006973
v 0.002232 -0.002902 -0.003006
v 0.001660 -0.002298 -0.001410
v 0.001831 -0.003252 0.000380
v 0.001490 -0.003994 0.002651
v 0.000926 -0.004405 -0.000925
v 0.001503 -0.004184 0.004263
v 0.001062 -0.002407 0.005547
v 0.022295 -0.002107 -0.008265
v 0.024092 -0.001669 -0.005498
v 0.001818 -0.003798 -0.004693
v 0.001543 -0.003969 -0.002580
v 0.002060 -0.004712 -0.004550
v 0.002206 -0.004995 -0.006184
v 0.001190 -0.005105 -0.000735
v 0.001296 -0.005027 -0.001911
v 0.002146 -0.005072 -0.003307
v 0.002110 -0.004878 0.003021
v 0.001746 -0.004281 0.005053
v 0.000989 -0.004359 -0.001821
v 0.001279 -0.003159 -0.001317
v 0.001763 -0.004722 0.002506
vn 0.4354 0.7079 0.5561
vn 0.2513 0.8698 0.4246
vn 0.3335 0.9421 0.0352
vn 0.1771 0.7523 -0.6345
vn 0.2086 0.6880 -0.6950
vn 0.5492 0.6548 0.5192
vn 0.0961 0.9951 -0.0228
vn -0.8000 0.5737 -0.1756
vn 0.1547 0.9857 0.0673
vn 0.1425 0.7277 0.6709
vn 0.3006 0.6401 0.7070
vn 0.0949 0.9955 -0.0046
vn 0.5013 -0.0071 0.8652
vn 0.2250 -0.4263 0.8762
vn -0.6280 0.5300 -0.5698
vn -0.5430 0.1605 -0.8242
vn -0.5763 -0.0075 -0.8172
vn 0.1468 -0.1180 -0.9821
vn 0.0711 0.5149 -0.8543
vn 0.0018 0.2162 -0.9764
vn 0.6037 0.1330 0.7860
vn 0.7469 0.1005 0.6573
vn 0.5207 0.1167 0.8458
vn -0.9907 -0.1254 0.0528
vn -0.6871 0.6699 0.2812
vn -0.4468 0.2428 0.8610
vn -0.0810 0.6651 0.7424
vn -0.0656 0.4735 0.8784
vn -0.0926 0.7373 -0.6692
vn 0.3345 0.8332 -0.4404
vn 0.2028 0.6450 0.7368
vn 0.4774 0.8595 0.1827
vn 0.1834 -0.9158 0.3574
vn 0.3744 -0.7080 0.5988
vn -0.0781 -0.8674 -0.4915
vn -0.0056 -0.8664 0.4992
vn 0.2268 0.1092 0.9678
vn -0.9581 0.0540 0.2814
vn -0.8583 -0.3885 0.3353
vn -0.8235 -0.5512 0.1346
vn -0.7959 -0.2801 -0.5368
vn -0.8918 -0.3597 0.2745
vn 0.1363 -0.4181 -0.8981
vn 0.2125 -0.8821 -0.4204
vn -0.0364 -0.5351 -0.8440
vn -0.0066 0.0033 -1.0000
vn -0.0777 -0.6148 -0.7849
vn 0.6650 -0.5534 0.5014
vn 0.6825 -0.4616 0.5668
vn 0.3852 -0.2859 0.8774
vn -0.8458 0.4952 0.1984
vn -0.9823 -0.1872 0.0055
vn -0.9789 0.1987 0.0483
vn -0.9618 0.1879 -0.1990
vn -0.9448 0.3017 -0.1280
vn -0.8916 -0.0630 0.4485
vn -0.2497 -0.1537 0.9560
vn -0.3294 -0.1718 0.9284
vn -0.4673 0.1507 0.8712
vn 0.2093 0.0072 0.9778
vn -0.0026 0.4707 0.8823
vn 0.7139 0.0941 -0.6939
vn -0.0228 -0.1431 -0.9894
vn 0.9747 0.1802 -0.1319
vn 0.6470 -0.3146 0.6945
vn 0.8928 0.1235 0.4331
vn 0.3266 -0.9278 0.1802
vn 0.2493 -0.8214 0.5129
vn 0.0707 -0.9344 0.3490
vn 0.2797 -0.9590 0.0450
vn 0.1701 -0.6010 0.7809
vn -0.7562 -0.2425 0.6078
vn -0.9061 -0.4148 0.0831
vn -0.8832 -0.3459 0.3166
vn -0.8942 -0.3673 -0.2559
vn -0.8916 -0.0574 0.4491
vn -0.5517 -0.6770 -0.4871
vn -0.7296 -0.6703 -0.1356
vn 0.0262 -0.9556 -0.2934
vn 0.1679 -0.9856 0.0193
vn 0.0369 -0.9447 0.3258
vn -0.1412 -0.6559 0.7416
vn -0.9259 0.3399 -0.1646
vn -0.8979 0.4234 -0.1199
vn -0.9185 0.3811 0.1057
vn -0.9988 0.0483 -0.0080
vn -0.9920 0.1250 0.0195
vn -0.9056 -0.4204 0.0558
vn -0.9774 0.1806 0.1100
vn 0.2827 -0.8014 -0.5272
vn 0.7403 -0.6721 -0.0142
vn -0.9975 0.0550 0.0434
vn -0.9196 0.1204 -0.3739
vn -0.7488 -0.6627 0.0127
vn -0.4129 -0.9105 -0.0226
vn -0.6033 -0.7951 0.0622
vn -0.6265 -0.7242 -0.2881
vn -0.3707 -0.8831 -0.2877
vn -0.2691 -0.9555 0.1206
vn -0.6416 -0.6675 0.3778
vn -0.9532 -0.0100 -0.3021
vn -0.9503 0.3113 -0.0014
vn -0.7833 -0.6015 0.1572
s 1
f 1//1 2//2 3//3
f 4//4 5//5 3//3
f 6//6 1//1 3//3
f 2//2 7//7 3//3
f 4//4 3//3 7//7
f 3//3 5//5 8//8
f 3//3 9//9 10//10
f 3//3 10//10 6//6
f 3//3 8//8 9//9
f 1//1 11//11 2//2
f 2//2 11//11 12//12
f 2//2 12//12 7//7
f 13//13 1//1 6//6
f 1//1 14//14 11//11
f 1//1 13//13 14//14
f 8//8 5//5 15//15
f 15//15 5//5 16//16
f 17//17 16//16 5//5
f 18//18 5//5 4//4
f 18//18 17//17 5//5
f 12//12 19//19 4//4
f 4//4 7//7 12//12
f 4//4 19//19 20//20
f 18//18 4//4 20//20
f 21//21 6//6 22//22
f 23//23 6//6 10//10
f 22//22 6//6 23//23
f 6//6 21//21 13//13
f 16//16 24//24 8//8
f 25//25 9//9 8//8
f 8//8 15//15 16//16
f 25//25 8//8 24//24
f 25//25 10//10 9//9
f 10//10 25//25 26//26
f 26//26 23//23 10//10
f 11//11 27//27 12//12
f 28//28 27//27 11//11
f 11//11 14//14 28//28
f 29//29 12//12 30//30
f 12//12 27//27 31//31
f 32//32 12//12 31//31
f 19//19 12//12 29//29
f 30//30 12//12 32//32
f 14//14 13//13 33//33
f 34//34 13//13 21//21
f 13//13 34//34 33//33
f 33//33 35//35 14//14
f 14//14 35//35 36//36
f 14//14 36//36 37//37
f 14//14 37//37 28//28
f 38//38 16//16 17//17
f 39//39 16//16 38//38
f 16//16 39//39 40//40
f 16//16 40//40 24//24
f 17//17 18//18 41//41
f 17//17 42//42 38//38
f 42//42 17//17 41//41
f 20//20 43//43 18//18
f 18//18 44//44 45//45
f 44//44 18//18 43//43
f 18//18 45//45 41//41
f 46//46 20//20 19//19
f 47//47 19//19 29//29
f 19//19 47//47 46//46
f 46//46 43//43 20//20
f 34//34 21//21 22//22
f 34//34 22//22 48//48
f 49//49 22//22 23//23
f 49//49 48//48 22//22
f 23//23 50//50 49//49
f 50//50 23//23 26//26
f 25//25 24//24 51//51
f 40//40 52//52 24//24
f 53//53 24//24 52//52
f 24//24 53//53 51//51
f 54//54 25//25 55//55
f 56//56 25//25 54//54
f 56//56 26//26 25//25
f 55//55 25//25 51//51
f 56//56 57//57 26//26
f 50//50 26//26 57//57
f 58//58 27//27 59//59
f 60//60 27//27 58//58
f 60//60 31//31 27//27
f 59//59 27//27 28//28
f 28//28 37//37 61//61
f 61//61 59//59 28//28
f 62//62 63//63 30//30
f 63//63 29//29 30//30
f 64//64 62//62 30//30
f 32//32 64//64 30//30
f 47//47 29//29 63//63
f 65//65 31//31 60//60
f 31//31 66//66 32//32
f 31//31 65//65 66//66
f 64//64 32//32 66//66
f 34//34 67//67 33//33
f 33//33 67//67 35//35
f 67//67 34//34 48//48
f 35//35 46//46 47//47
f 35//35 67//67 44//44
f 68//68 69//69 35//35
f 70//70 68//68 35//35
f 69//69 36//36 35//35
f 70//70 35//35 47//47
f 35//35 44//44 46//46
f 37//37 36//36 71//71
f 36//36 69//69 71//71
f 61//61 37//37 71//71
f 42//42 72//72 38//38
f 39//39 38//38 72//72
f 40//40 39//39 73//73
f 72//72 74//74 39//39
f 73//73 39//39 74//74
f 73//73 75//75 40//40
f 40//40 75//75 52//52
f 41//41 76//76 42//42
f 41//41 45//45 77//77
f 41//41 77//77 78//78
f 76//76 41//41 78//78
f 42//42 76//76 72//72
f 44//44 43//43 46//46
f 44//44 79//79 45//45
f 45//45 78//78 77//77
f 45//45 79//79 78//78
f 80//80 79//79 44//44
f 44//44 67//67 80//80
f 63//63 70//70 47//47
f 48//48 81//81 67//67
f 82//82 48//48 49//49
f 82//82 81//81 48//48
f 50//50 82//82 49//49
f 57//57 82//82 50//50
f 51//51 53//53 55//55
f 53//53 52//52 83//83
f 75//75 83//83 52//52
f 53//53 83//83 84//84
f 55//55 53//53 85//85
f 53//53 84//84 85//85
f 86//86 54//54 55//55
f 55//55 87//87 86//86
f 55//55 85//85 87//87
f 88//88 54//54 86//86
f 88//88 89//89 54//54
f 89//89 56//56 54//54
f 56//56 82//82 57//57
f 89//89 82//82 56//56
f 61//61 71//71 59//59
f 58//58 59//59 69//69
f 69//69 59//59 71//71
f 68//68 60//60 58//58
f 68//68 58//58 69//69
f 68//68 65//65 60//60
f 90//90 70//70 63//63
f 63//63 62//62 90//90
f 91//91 62//62 64//64
f 62//62 91//91 90//90
f 66//66 91//91 64//64
f 91//91 66//66 65//65
f 70//70 65//65 68//68
f 65//65 70//70 91//91
f 80//80 67//67 81//81
f 90//90 91//91 70//70
f 72//72 76//76 74//74
f 73//73 74//74 92//92
f 75//75 73//73 83//83
f 73//73 92//92 93//93
f 83//83 73//73 93//93
f 74//74 76//76 92//92
f 78//78 92//92 76//76
f 94//94 78//78 95//95
f 92//92 78//78 94//94
f 79//79 95//95 78//78
f 95//95 79//79 94//94
f 80//80 94//94 79//79
f 96//96 97//97 80//80
f 80//80 98//98 94//94
f 80//80 97//97 98//98
f 80//80 99//99 96//96
f 80//80 81//81 99//99
f 81//81 100//100 99//99
f 100//100 81//81 82//82
f 100//100 82//82 89//89
f 83//83 93//93 101//101
f 101//101 102//102 83//83
f 84//84 83//83 102//102
f 85//85 84//84 102//102
f 87//87 85//85 101//101
f 101//101 85//85 102//102
f 103//103 86//86 87//87
f 86//86 103//103 88//88
f 96//96 87//87 101//101
f 96//96 103//103 87//87
f 100//100 89//89 88//88
f 99//99 88//88 103//103
f 99//99 100//100 88//88
f 92//92 94//94 98//98
f 92//92 98//98 93//93
f 93//93 98//98 97//97
f 97//97 101//101 93//93
f 97//97 96//96 101//101
f 99//99 103//103 96//96
