# Blender 4.0.2
# www.blender.org
mtllib toe_5_dist_l.mtl
o toe_5_dist_l
v 0.007461 0.000975 -0.001159
v 0.007585 0.000793 -0.002164
v 0.006738 0.000879 -0.002399
v 0.007120 0.000494 -0.002788
v 0.005492 0.000797 -0.002230
v 0.005427 -0.000305 0.000630
v 0.006441 0.000155 0.000358
v 0.007526 0.000545 -0.000479
v 0.007117 -0.000624 -0.002818
v 0.007382 -0.000120 -0.003032
v 0.003494 0.001558 -0.001860
v 0.005266 0.000364 -0.002409
v 0.006227 -0.000603 -0.003330
v 0.006783 -0.000246 -0.003339
v 0.005471 -0.001091 -0.002614
v 0.006054 -0.000359 0.000676
v 0.003590 0.000022 0.001235
v 0.003616 0.001013 0.000149
v 0.003466 -0.000671 0.001169
v 0.005936 -0.000627 0.000170
v 0.003710 -0.001827 -0.000845
v 0.005590 -0.000909 -0.000895
v 0.006397 -0.000681 -0.001368
v 0.005526 -0.001838 -0.002312
v 0.006036 -0.001396 -0.003011
v 0.006735 -0.000919 -0.003171
v 0.001599 0.002818 0.000304
v 0.002898 0.001500 -0.002059
v 0.001510 0.002107 -0.001241
v 0.002677 -0.000103 -0.002442
v 0.003267 -0.001257 -0.002145
v 0.004706 -0.001398 -0.002357
v 0.005302 -0.001605 -0.002708
v 0.001200 0.002460 0.002549
v 0.002579 0.000204 0.002083
v 0.001922 -0.001175 0.001460
v 0.004043 -0.001790 -0.001705
v 0.001269 -0.002758 -0.001466
v 0.004949 -0.001534 -0.001595
v 0.001168 0.002894 0.001311
v 0.000838 0.002775 0.000694
v 0.000688 0.000915 -0.003001
v -0.000151 0.001362 -0.002126
v 0.001018 -0.001514 -0.003002
v 0.000085 0.000080 -0.003503
v 0.001422 0.001424 0.003173
v 0.001063 -0.000340 0.002040
v 0.001096 -0.000117 0.001522
v 0.001412 -0.000420 0.002480
v 0.000788 -0.002559 -0.002342
v 0.000284 -0.002382 -0.001320
v 0.000531 -0.001309 0.000291
v -0.000012 -0.002071 -0.002551
vn 0.4071 0.8930 0.1917
vn 0.8174 0.5124 -0.2632
vn -0.0714 0.9320 -0.3553
vn 0.1592 0.6156 -0.7718
vn 0.0269 0.9157 -0.4011
vn 0.2685 -0.0094 0.9632
vn 0.1517 0.6677 0.7288
vn 0.8060 0.1617 0.5695
vn 0.7777 -0.6282 -0.0219
vn 0.8498 -0.0479 -0.5250
vn 0.3580 0.8664 -0.3481
vn -0.1258 0.2315 -0.9647
vn -0.4276 0.2319 -0.8737
vn 0.0468 0.2710 -0.9614
vn -0.5362 0.2820 -0.7956
vn 0.2827 -0.3366 0.8982
vn 0.5540 0.2536 0.7929
vn 0.5652 0.7324 0.3796
vn 0.3888 -0.5604 0.7313
vn 0.2175 -0.9208 0.3238
vn 0.3235 -0.8951 0.3067
vn 0.3607 -0.8874 0.2870
vn 0.4778 -0.8386 0.2616
vn 0.0024 -0.9680 0.2511
vn 0.1924 -0.7300 -0.6558
vn 0.4823 -0.6516 -0.5855
vn 0.2789 0.9564 -0.0872
vn 0.1182 0.6336 -0.7646
vn -0.0401 0.8883 -0.4575
vn 0.2296 0.0342 -0.9727
vn 0.1889 -0.2361 -0.9532
vn -0.1591 -0.6243 -0.7648
vn -0.4415 -0.4978 -0.7465
vn -0.2181 0.6823 0.6978
vn 0.5940 -0.1344 0.7931
vn 0.1229 -0.7907 0.5997
vn 0.2080 -0.9263 -0.3141
vn 0.0168 -0.9952 0.0962
vn 0.4350 -0.9003 0.0115
vn -0.0319 0.9689 0.2452
vn -0.6595 0.7515 -0.0185
vn 0.0410 0.5931 -0.8041
vn -0.8063 0.5338 -0.2549
vn 0.1503 -0.3512 -0.9241
vn -0.5028 0.0903 -0.8597
vn -0.0903 0.2235 0.9705
vn -0.9192 -0.1768 0.3518
vn -0.9800 0.1199 0.1588
vn -0.1777 -0.5448 0.8195
vn -0.0988 -0.8585 -0.5032
vn -0.7312 -0.6367 0.2450
vn -0.8665 -0.2891 0.4070
vn -0.8176 -0.4270 -0.3863
s 1
f 1//1 2//2 3//3
f 3//3 4//4 5//5
f 6//6 7//7 3//3
f 1//1 3//3 7//7
f 5//5 6//6 3//3
f 4//4 3//3 2//2
f 2//2 1//1 8//8
f 8//8 9//9 2//2
f 10//10 4//4 2//2
f 2//2 9//9 10//10
f 8//8 1//1 7//7
f 6//6 5//5 11//11
f 11//11 5//5 12//12
f 5//5 4//4 12//12
f 13//13 4//4 14//14
f 13//13 15//15 4//4
f 15//15 12//12 4//4
f 4//4 10//10 14//14
f 7//7 6//6 16//16
f 8//8 7//7 16//16
f 17//17 6//6 18//18
f 11//11 18//18 6//6
f 19//19 6//6 17//17
f 6//6 20//20 16//16
f 21//21 6//6 19//19
f 20//20 6//6 22//22
f 21//21 22//22 6//6
f 9//9 8//8 16//16
f 23//23 24//24 9//9
f 16//16 23//23 9//9
f 9//9 25//25 26//26
f 9//9 26//26 10//10
f 9//9 24//24 25//25
f 10//10 26//26 14//14
f 11//11 27//27 18//18
f 11//11 12//12 28//28
f 28//28 29//29 11//11
f 11//11 29//29 27//27
f 30//30 12//12 31//31
f 28//28 12//12 30//30
f 32//32 31//31 12//12
f 32//32 12//12 15//15
f 26//26 13//13 14//14
f 15//15 13//13 33//33
f 26//26 25//25 13//13
f 13//13 25//25 33//33
f 33//33 32//32 15//15
f 20//20 23//23 16//16
f 18//18 27//27 17//17
f 34//34 17//17 27//27
f 17//17 34//34 35//35
f 19//19 17//17 35//35
f 36//36 21//21 19//19
f 36//36 19//19 35//35
f 20//20 22//22 23//23
f 23//23 22//22 21//21
f 37//37 21//21 38//38
f 21//21 36//36 38//38
f 39//39 21//21 37//37
f 39//39 23//23 21//21
f 32//32 24//24 23//23
f 24//24 33//33 25//25
f 33//33 24//24 32//32
f 32//32 23//23 39//39
f 40//40 27//27 41//41
f 27//27 29//29 41//41
f 40//40 34//34 27//27
f 29//29 28//28 42//42
f 28//28 30//30 42//42
f 41//41 29//29 43//43
f 43//43 29//29 42//42
f 37//37 44//44 31//31
f 31//31 44//44 30//30
f 32//32 37//37 31//31
f 30//30 45//45 42//42
f 45//45 30//30 44//44
f 37//37 32//32 39//39
f 40//40 41//41 34//34
f 35//35 34//34 46//46
f 46//46 34//34 47//47
f 48//48 47//47 34//34
f 34//34 41//41 43//43
f 43//43 48//48 34//34
f 35//35 49//49 36//36
f 35//35 46//46 49//49
f 38//38 36//36 49//49
f 37//37 38//38 50//50
f 51//51 38//38 49//49
f 50//50 38//38 51//51
f 44//44 37//37 50//50
f 45//45 43//43 42//42
f 43//43 45//45 51//51
f 52//52 43//43 51//51
f 48//48 43//43 52//52
f 44//44 53//53 45//45
f 44//44 50//50 53//53
f 51//51 45//45 53//53
f 47//47 49//49 46//46
f 52//52 49//49 47//47
f 52//52 47//47 48//48
f 51//51 49//49 52//52
f 50//50 51//51 53//53
