# Blender 4.0.2
# www.blender.org
mtllib toe_3_dist_r.mtl
o toe_3_dist_r
v 0.006124 0.000640 0.000111
v 0.007519 0.000744 0.000494
v 0.007231 0.000576 -0.000728
v 0.001241 0.002109 -0.000448
v 0.003416 0.000586 -0.001084
v 0.006658 0.000286 -0.001150
v 0.005335 -0.000570 -0.001106
v 0.005518 0.001077 0.001088
v 0.004771 -0.000671 -0.001242
v 0.007626 0.000460 0.000914
v 0.007592 0.000723 0.001596
v 0.004676 0.001320 0.001355
v 0.000362 0.001907 -0.000390
v 0.001489 0.001507 0.002850
v 0.000651 0.001848 -0.001845
v 0.001432 0.002035 -0.002658
v 0.002677 0.000143 -0.002053
v 0.003135 -0.000632 -0.001712
v 0.005381 -0.001034 -0.000700
v 0.005580 0.000151 0.003152
v 0.007041 0.000454 0.004068
v 0.002605 -0.001151 -0.001571
v 0.003712 -0.001211 -0.001017
v 0.000674 -0.002033 0.000791
v 0.005154 -0.000909 0.000927
v 0.007338 0.000071 0.003721
v 0.003172 0.000728 0.002699
v 0.000351 0.001361 0.003492
v 0.000293 0.000277 0.004512
v -0.000162 -0.001339 0.002895
v 0.000227 -0.001404 -0.001156
v 0.000041 -0.001572 -0.000172
v 0.001716 0.000471 0.003487
v 0.001122 0.001246 -0.003887
v 0.001080 0.000095 -0.004230
v 0.002083 -0.000730 -0.002477
v 0.004135 -0.000117 0.003164
v 0.006715 -0.000093 0.004925
v 0.004459 -0.000821 0.003626
v 0.006148 -0.000471 0.005013
v 0.004992 -0.000994 0.004345
v 0.000456 -0.001271 -0.002575
v 0.002576 -0.001661 0.002435
v -0.000015 -0.001771 0.000723
v -0.000003 -0.001800 0.002774
v 0.000839 -0.001882 0.003406
v 0.004886 -0.001376 0.003747
v 0.004074 -0.001100 0.003309
v 0.003133 -0.001488 0.002801
v 0.005612 -0.000936 0.004778
v 0.002475 -0.000241 0.003150
v 0.000058 -0.000526 0.004289
v 0.000100 -0.000989 0.004074
v -0.000135 -0.001648 0.001232
v 0.000537 -0.000549 -0.003576
v 0.000650 -0.000096 -0.003927
v 0.003498 -0.000794 0.003230
v 0.002622 -0.000992 0.003019
vn 0.0207 0.9033 -0.4286
vn 0.6878 0.6948 -0.2101
vn 0.6941 0.2750 -0.6653
vn 0.0608 0.9981 -0.0032
vn 0.4692 0.5530 -0.6885
vn 0.2733 0.0573 -0.9602
vn 0.3427 0.0018 -0.9394
vn 0.2094 0.9777 0.0162
vn 0.3136 -0.3573 -0.8798
vn 0.9229 -0.3729 -0.0961
vn 0.7735 0.6248 0.1065
vn 0.2512 0.9397 0.2321
vn -0.7393 0.6727 -0.0304
vn 0.1919 0.8626 0.4680
vn -0.7570 0.6208 -0.2040
vn 0.2086 0.8939 -0.3968
vn 0.7364 0.1162 -0.6665
vn 0.4677 -0.1773 -0.8659
vn 0.1943 -0.9296 -0.3133
vn -0.2778 0.8046 0.5249
vn 0.3582 0.8000 0.4814
vn 0.2578 -0.8436 -0.4710
vn 0.3860 -0.9194 -0.0760
vn -0.0680 -0.9930 -0.0970
vn 0.3198 -0.9469 -0.0345
vn 0.9312 -0.3037 0.2014
vn 0.2213 0.5753 0.7874
vn -0.5367 0.7116 0.4535
vn -0.3059 0.1892 0.9331
vn -0.9852 -0.1139 0.1278
vn -0.8715 -0.4479 -0.1997
vn -0.8454 -0.4916 -0.2088
vn 0.4419 0.2480 0.8621
vn -0.1217 0.5787 -0.8064
vn 0.1345 -0.1623 -0.9775
vn 0.5275 -0.5681 -0.6317
vn -0.1166 0.4100 0.9046
vn 0.3673 0.1175 0.9227
vn -0.4960 0.1844 0.8485
vn 0.0607 -0.0615 0.9963
vn -0.6808 -0.0714 0.7290
vn -0.4900 -0.7582 -0.4301
vn 0.2024 -0.9349 0.2915
vn -0.6754 -0.7252 -0.1337
vn -0.6295 -0.7543 0.1867
vn 0.1260 -0.7843 0.6074
vn -0.1401 -0.9607 0.2399
vn -0.2149 -0.8119 0.5428
vn 0.0369 -0.8807 0.4722
vn -0.0601 -0.6095 0.7905
vn 0.2382 0.0394 0.9704
vn -0.5761 -0.1418 0.8050
vn -0.3657 -0.4663 0.8055
vn -0.9844 -0.1657 -0.0585
vn -0.6325 -0.5321 -0.5629
vn -0.8176 -0.0607 -0.5726
vn -0.1873 -0.0192 0.9821
vn 0.0461 -0.4258 0.9036
s 1
usemtl Default_OBJ.040
f 1//1 2//2 3//3
f 4//4 1//1 5//5
f 1//1 6//6 7//7
f 4//4 8//8 1//1
f 5//5 1//1 9//9
f 7//7 9//9 1//1
f 3//3 6//6 1//1
f 1//1 8//8 2//2
f 2//2 10//10 3//3
f 8//8 11//11 2//2
f 11//11 10//10 2//2
f 6//6 3//3 7//7
f 7//7 3//3 10//10
f 12//12 8//8 4//4
f 4//4 13//13 14//14
f 14//14 12//12 4//4
f 13//13 4//4 15//15
f 4//4 16//16 15//15
f 5//5 16//16 4//4
f 17//17 16//16 5//5
f 5//5 18//18 17//17
f 9//9 18//18 5//5
f 9//9 7//7 19//19
f 19//19 7//7 10//10
f 20//20 8//8 12//12
f 21//21 8//8 20//20
f 21//21 11//11 8//8
f 18//18 9//9 22//22
f 23//23 22//22 9//9
f 23//23 9//9 24//24
f 25//25 9//9 19//19
f 24//24 9//9 25//25
f 26//26 10//10 11//11
f 10//10 25//25 19//19
f 10//10 26//26 25//25
f 21//21 26//26 11//11
f 20//20 12//12 27//27
f 14//14 27//27 12//12
f 28//28 14//14 13//13
f 29//29 28//28 13//13
f 13//13 30//30 29//29
f 13//13 15//15 31//31
f 30//30 13//13 32//32
f 13//13 31//31 32//32
f 33//33 27//27 14//14
f 29//29 33//33 14//14
f 28//28 29//29 14//14
f 34//34 15//15 16//16
f 15//15 34//34 31//31
f 16//16 17//17 34//34
f 17//17 35//35 34//34
f 35//35 17//17 36//36
f 17//17 18//18 36//36
f 36//36 18//18 22//22
f 27//27 37//37 20//20
f 21//21 20//20 38//38
f 20//20 37//37 39//39
f 20//20 40//40 38//38
f 41//41 40//40 20//20
f 41//41 20//20 39//39
f 38//38 26//26 21//21
f 36//36 22//22 42//42
f 22//22 23//23 24//24
f 22//22 24//24 42//42
f 24//24 25//25 43//43
f 24//24 31//31 42//42
f 31//31 24//24 44//44
f 45//45 44//44 24//24
f 46//46 45//45 24//24
f 46//46 24//24 43//43
f 26//26 47//47 25//25
f 48//48 49//49 25//25
f 49//49 43//43 25//25
f 25//25 47//47 48//48
f 50//50 47//47 26//26
f 50//50 26//26 40//40
f 38//38 40//40 26//26
f 51//51 37//37 27//27
f 51//51 27//27 33//33
f 30//30 52//52 29//29
f 53//53 33//33 29//29
f 52//52 53//53 29//29
f 52//52 30//30 53//53
f 30//30 45//45 53//53
f 30//30 54//54 45//45
f 32//32 54//54 30//30
f 55//55 42//42 31//31
f 55//55 31//31 56//56
f 31//31 34//34 56//56
f 32//32 31//31 44//44
f 54//54 32//32 44//44
f 51//51 33//33 53//53
f 34//34 35//35 56//56
f 35//35 55//55 56//56
f 35//35 36//36 55//55
f 55//55 36//36 42//42
f 39//39 37//37 57//57
f 51//51 57//57 37//37
f 48//48 39//39 57//57
f 47//47 39//39 48//48
f 47//47 41//41 39//39
f 40//40 41//41 50//50
f 50//50 41//41 47//47
f 43//43 49//49 58//58
f 58//58 53//53 43//43
f 46//46 43//43 53//53
f 44//44 45//45 54//54
f 53//53 45//45 46//46
f 57//57 58//58 48//48
f 49//49 48//48 58//58
f 51//51 53//53 58//58
f 57//57 51//51 58//58
