# Blender 4.0.2
# www.blender.org
mtllib toe_3_mid_l.mtl
o toe_3_mid_l
v 0.011547 -0.000875 0.001325
v 0.008708 0.000840 0.001359
v 0.011102 -0.001174 0.001479
v 0.009923 -0.000350 0.001511
v 0.012177 -0.000910 0.000697
v 0.009252 -0.000254 0.001047
v 0.007737 -0.001088 -0.004932
v 0.010631 -0.001719 -0.002061
v 0.008966 0.002033 0.000781
v 0.006761 0.001733 -0.000435
v 0.008433 -0.000145 0.001034
v 0.008919 -0.000038 0.001436
v 0.006711 0.000347 0.000766
v 0.011903 0.001518 -0.000110
v 0.011787 -0.000789 -0.002664
v 0.012563 0.000302 -0.000276
v 0.006345 -0.001203 -0.001859
v 0.009385 -0.002022 -0.005871
v 0.010127 -0.002197 -0.005810
v 0.011279 -0.001820 -0.003969
v 0.003752 -0.001678 -0.004053
v 0.004597 0.000162 -0.004254
v 0.009043 -0.001607 -0.005765
v 0.007449 0.000956 -0.004541
v 0.003101 0.001995 -0.002370
v 0.003263 0.001932 -0.000032
v 0.011354 0.001156 -0.003250
v 0.007670 -0.000454 0.000856
v 0.003851 0.000495 0.001620
v 0.005786 -0.000633 0.001035
v 0.012073 -0.000278 -0.004096
v 0.006399 -0.000897 0.000610
v 0.004748 -0.001472 0.001125
v 0.003041 -0.001856 -0.004100
v 0.011244 -0.001592 -0.005453
v 0.010717 -0.001640 -0.005839
v 0.009605 -0.001164 -0.005607
v 0.011471 -0.001006 -0.005380
v 0.003240 -0.001087 -0.004064
v 0.004645 0.001261 -0.003724
v 0.007904 -0.000410 -0.005593
v 0.004069 0.000664 -0.004003
v 0.008705 -0.000620 -0.005672
v 0.001469 0.001825 -0.003016
v 0.000905 0.002255 0.000919
v 0.008926 0.000999 -0.005324
v 0.007985 0.000674 -0.005396
v 0.002157 0.001542 0.002637
v 0.011428 0.000476 -0.005255
v 0.004788 -0.000839 0.001279
v 0.003686 -0.000918 0.002922
v 0.004440 -0.000866 0.001697
v 0.004112 -0.001631 0.001615
v 0.001661 -0.002893 -0.003981
v 0.001251 -0.002461 -0.004506
v 0.001920 -0.002732 0.001741
v 0.010538 0.000273 -0.005612
v -0.000218 -0.001663 -0.004625
v 0.000069 0.001796 -0.003829
v 0.000015 0.001303 -0.004139
v -0.000361 0.000749 -0.004326
v -0.000288 -0.000795 -0.004763
v -0.000024 0.002162 -0.003265
v 0.000009 0.001810 0.000497
v -0.000547 0.002110 -0.001350
v 0.000719 0.001087 0.002236
v 0.001628 -0.000186 0.003412
v 0.002588 -0.001202 0.003491
v 0.002953 -0.001835 0.003119
v 0.000277 -0.002488 -0.004335
v 0.000595 -0.002873 -0.003650
v 0.000446 -0.002917 -0.000728
v 0.001079 -0.002244 0.002060
v 0.000635 -0.002772 0.000291
v -0.000241 0.000457 -0.002823
v 0.000418 0.000249 -0.000801
v 0.000941 -0.001851 -0.001133
v 0.000067 -0.002596 -0.003848
v -0.000709 0.001010 -0.003881
v -0.000512 0.001620 -0.003375
v -0.000417 -0.000098 -0.004529
v -0.000971 0.001327 -0.002887
v -0.000818 0.001314 -0.001495
v 0.001076 -0.001661 -0.000523
v 0.001642 -0.000907 0.003436
v 0.000313 -0.002699 -0.002541
v 0.000859 -0.001228 -0.000808
vn 0.5293 -0.0279 0.8480
vn -0.1694 0.2710 0.9476
vn 0.0646 -0.6228 0.7797
vn -0.0737 -0.1830 0.9804
vn 0.8055 -0.4392 0.3979
vn -0.2842 -0.9086 0.3060
vn -0.2735 -0.9616 -0.0244
vn 0.0916 -0.9850 0.1466
vn -0.0326 0.8565 0.5151
vn -0.0335 0.9608 0.2753
vn -0.2113 -0.6550 0.7255
vn -0.3094 -0.4432 0.8413
vn -0.0190 0.3818 0.9240
vn 0.5853 0.7572 0.2900
vn 0.9299 -0.3678 -0.0092
vn 0.9829 0.1303 0.1305
vn 0.2187 -0.9739 0.0613
vn -0.3387 -0.6195 -0.7082
vn 0.0885 -0.8217 -0.5630
vn 0.6049 -0.7953 0.0399
vn 0.1111 -0.7028 -0.7026
vn -0.2170 0.2036 -0.9547
vn -0.2739 -0.0783 -0.9586
vn -0.1766 0.8512 -0.4943
vn 0.0558 0.9776 -0.2029
vn 0.2207 0.9453 0.2403
vn 0.5634 0.8050 -0.1857
vn 0.1723 -0.6942 0.6988
vn 0.5515 0.5450 0.6315
vn 0.2911 -0.2199 0.9311
vn 0.9965 0.0312 -0.0777
vn 0.2935 -0.8709 0.3942
vn 0.4478 -0.7818 0.4338
vn 0.3882 -0.5849 -0.7122
vn 0.7399 -0.5079 -0.4412
vn 0.3211 -0.1788 -0.9300
vn -0.0021 0.1408 -0.9900
vn 0.7920 -0.1230 -0.5980
vn 0.0671 -0.0135 -0.9977
vn -0.0560 0.6898 -0.7218
vn -0.3108 0.0585 -0.9487
vn -0.0095 0.2957 -0.9552
vn -0.0223 0.1007 -0.9947
vn 0.1163 0.9707 -0.2101
vn -0.2021 0.9323 0.3001
vn -0.0265 0.8034 -0.5949
vn -0.4310 0.4712 -0.7696
vn 0.1590 0.7150 0.6808
vn 0.5901 0.5323 -0.6070
vn 0.4956 -0.0879 0.8641
vn 0.6984 0.0172 0.7155
vn 0.7912 0.0119 0.6114
vn 0.5917 -0.7437 0.3112
vn 0.2732 -0.8902 -0.3645
vn 0.0949 -0.4153 -0.9047
vn 0.0711 -0.9507 0.3019
vn 0.1529 0.3300 -0.9315
vn -0.7085 -0.3320 -0.6228
vn -0.2018 0.7033 -0.6816
vn -0.1817 0.4896 -0.8528
vn -0.3550 0.3390 -0.8712
vn -0.5018 -0.0377 -0.8641
vn -0.2166 0.9184 -0.3312
vn -0.8700 0.2884 0.3999
vn -0.6515 0.7490 0.1206
vn -0.7824 0.2754 0.5585
vn -0.3742 0.1817 0.9094
vn 0.1354 -0.1753 0.9752
vn 0.2983 -0.6634 0.6862
vn -0.3635 -0.6771 -0.6398
vn -0.5166 -0.8552 -0.0424
vn -0.8002 -0.5850 0.1323
vn -0.7341 -0.5093 0.4492
vn -0.8627 -0.4448 0.2407
vn -0.8733 -0.4461 0.1958
vn -0.8835 -0.4100 0.2265
vn -0.9753 0.0996 0.1973
vn -0.7375 -0.2817 0.6138
vn -0.9038 0.1923 -0.3823
vn -0.6631 0.6234 -0.4144
vn -0.7322 0.0983 -0.6739
vn -0.9929 0.0419 -0.1117
vn -0.9433 -0.2281 0.2410
vn -0.9895 0.0362 0.1398
vn -0.5371 -0.2034 0.8186
vn -0.9817 0.0594 -0.1807
vn -0.9173 -0.2744 0.2886
s 1
f 1//1 2//2 3//3
f 3//3 2//2 4//4
f 3//3 5//5 1//1
f 4//4 6//6 3//3
f 3//3 7//7 8//8
f 3//3 6//6 7//7
f 8//8 5//5 3//3
f 2//2 9//9 10//10
f 2//2 11//11 12//12
f 4//4 2//2 12//12
f 2//2 1//1 9//9
f 10//10 13//13 2//2
f 11//11 2//2 13//13
f 1//1 14//14 9//9
f 1//1 5//5 14//14
f 12//12 6//6 4//4
f 5//5 8//8 15//15
f 15//15 16//16 5//5
f 16//16 14//14 5//5
f 12//12 11//11 6//6
f 17//17 7//7 6//6
f 6//6 11//11 17//17
f 18//18 19//19 8//8
f 7//7 18//18 8//8
f 8//8 19//19 20//20
f 20//20 15//15 8//8
f 17//17 21//21 7//7
f 21//21 22//22 7//7
f 23//23 18//18 7//7
f 22//22 23//23 7//7
f 10//10 24//24 25//25
f 10//10 26//26 13//13
f 24//24 10//10 9//9
f 25//25 26//26 10//10
f 24//24 9//9 27//27
f 27//27 9//9 14//14
f 28//28 11//11 13//13
f 28//28 17//17 11//11
f 13//13 29//29 30//30
f 26//26 29//29 13//13
f 13//13 30//30 28//28
f 14//14 16//16 27//27
f 31//31 27//27 15//15
f 16//16 15//15 27//27
f 15//15 20//20 31//31
f 32//32 17//17 28//28
f 33//33 34//34 17//17
f 34//34 21//21 17//17
f 17//17 32//32 33//33
f 20//20 19//19 35//35
f 19//19 36//36 35//35
f 18//18 36//36 19//19
f 23//23 37//37 18//18
f 18//18 37//37 36//36
f 38//38 31//31 20//20
f 38//38 20//20 35//35
f 39//39 21//21 34//34
f 21//21 39//39 22//22
f 40//40 24//24 22//22
f 24//24 41//41 22//22
f 22//22 39//39 42//42
f 40//40 22//22 42//42
f 22//22 41//41 23//23
f 23//23 41//41 43//43
f 23//23 43//43 37//37
f 25//25 40//40 44//44
f 26//26 25//25 45//45
f 25//25 44//44 45//45
f 25//25 24//24 40//40
f 24//24 27//27 46//46
f 24//24 47//47 41//41
f 46//46 47//47 24//24
f 29//29 26//26 48//48
f 45//45 48//48 26//26
f 27//27 49//49 46//46
f 31//31 49//49 27//27
f 28//28 30//30 32//32
f 30//30 33//33 32//32
f 33//33 30//30 50//50
f 29//29 50//50 30//30
f 48//48 51//51 29//29
f 29//29 51//51 52//52
f 29//29 52//52 50//50
f 38//38 49//49 31//31
f 34//34 33//33 53//53
f 34//34 54//54 55//55
f 55//55 39//39 34//34
f 34//34 53//53 56//56
f 54//54 34//34 56//56
f 53//53 33//33 52//52
f 52//52 33//33 50//50
f 38//38 35//35 36//36
f 37//37 57//57 36//36
f 57//57 38//38 36//36
f 43//43 57//57 37//37
f 38//38 57//57 49//49
f 58//58 39//39 55//55
f 42//42 39//39 58//58
f 44//44 40//40 59//59
f 59//59 40//40 42//42
f 47//47 57//57 41//41
f 43//43 41//41 57//57
f 42//42 60//60 59//59
f 42//42 61//61 60//60
f 61//61 42//42 62//62
f 58//58 62//62 42//42
f 63//63 45//45 44//44
f 63//63 44//44 59//59
f 64//64 45//45 65//65
f 64//64 66//66 45//45
f 48//48 45//45 66//66
f 45//45 63//63 65//65
f 47//47 46//46 57//57
f 46//46 49//49 57//57
f 48//48 66//66 67//67
f 48//48 68//68 51//51
f 48//48 67//67 68//68
f 52//52 51//51 53//53
f 69//69 51//51 68//68
f 69//69 53//53 51//51
f 56//56 53//53 69//69
f 70//70 55//55 54//54
f 58//58 55//55 70//70
f 71//71 70//70 54//54
f 54//54 72//72 71//71
f 72//72 54//54 56//56
f 69//69 73//73 56//56
f 56//56 74//74 72//72
f 56//56 73//73 74//74
f 75//75 58//58 76//76
f 58//58 77//77 76//76
f 70//70 78//78 58//58
f 71//71 58//58 78//78
f 62//62 58//58 79//79
f 71//71 77//77 58//58
f 79//79 58//58 75//75
f 63//63 59//59 80//80
f 80//80 59//59 60//60
f 60//60 61//61 79//79
f 79//79 80//80 60//60
f 79//79 61//61 81//81
f 81//81 61//61 62//62
f 81//81 62//62 79//79
f 82//82 65//65 63//63
f 82//82 63//63 80//80
f 82//82 83//83 65//65
f 83//83 64//64 65//65
f 83//83 76//76 64//64
f 84//84 66//66 64//64
f 76//76 84//84 64//64
f 73//73 66//66 84//84
f 67//67 66//66 73//73
f 85//85 68//68 67//67
f 85//85 67//67 73//73
f 69//69 68//68 85//85
f 73//73 69//69 85//85
f 70//70 71//71 78//78
f 86//86 71//71 72//72
f 77//77 71//71 86//86
f 72//72 74//74 86//86
f 73//73 84//84 74//74
f 77//77 74//74 84//84
f 77//77 86//86 74//74
f 83//83 75//75 76//76
f 87//87 84//84 76//76
f 87//87 76//76 77//77
f 75//75 83//83 82//82
f 79//79 75//75 82//82
f 87//87 77//77 84//84
f 82//82 80//80 79//79
