# Blender 4.0.2
# www.blender.org
mtllib toe_5_prox_r.mtl
o toe_5_prox_r
v 0.024285 0.004544 0.004500
v 0.025023 0.003830 0.004574
v 0.024422 0.001067 0.002687
v 0.024707 0.003059 0.006836
v 0.022185 0.005215 0.004943
v 0.023103 0.005074 0.003903
v 0.025418 0.001926 0.005047
v 0.024026 -0.000267 0.002806
v 0.023218 -0.000479 0.002174
v 0.021430 -0.000051 0.001503
v 0.025098 0.000736 0.004499
v 0.018351 0.002343 0.009215
v 0.020701 0.001534 0.009880
v 0.023493 0.000283 0.009876
v 0.024301 0.000213 0.008241
v 0.024574 0.000970 0.007354
v 0.025165 0.001362 0.006172
v 0.019608 0.004768 0.003109
v 0.017443 0.005271 0.004295
v 0.020133 0.003859 0.002644
v 0.023067 -0.000988 0.002893
v 0.024336 -0.000441 0.004217
v 0.021515 -0.000572 0.002217
v 0.020881 0.000496 0.001735
v 0.014534 0.005511 0.006191
v 0.014605 0.001421 0.005010
v 0.018044 -0.000741 0.007345
v 0.019297 -0.002958 0.006838
v 0.020808 -0.003519 0.007144
v 0.023038 -0.002248 0.008457
v 0.023554 -0.001290 0.009012
v 0.024149 0.000200 0.007401
v 0.024300 0.000489 0.006864
v 0.019578 0.003593 0.002867
v 0.007712 0.006496 -0.000086
v 0.017194 0.003457 0.002534
v 0.007264 0.007128 0.004582
v 0.009738 0.007066 0.003496
v 0.020043 0.002444 0.002682
v 0.021894 -0.001135 0.005820
v 0.021293 -0.001141 0.005551
v 0.023522 -0.000314 0.006885
v 0.019993 0.000425 0.004686
v 0.006542 0.002158 0.002615
v 0.018658 -0.001027 0.006481
v 0.006708 0.002242 0.001310
v 0.019667 -0.002827 0.005960
v 0.018376 -0.001863 0.006856
v 0.021894 -0.003351 0.007393
v 0.021271 -0.003197 0.006142
v 0.023127 -0.002276 0.007130
v 0.002190 0.008873 -0.000464
v 0.011629 0.004022 0.000665
v 0.006059 0.004163 -0.001788
v 0.003046 0.002609 -0.003603
v 0.003377 0.008160 0.003342
v 0.002652 0.009242 0.001822
v 0.001330 0.001024 -0.000902
v 0.005805 0.003448 -0.001786
v -0.000517 0.011103 0.001767
v 0.000016 0.011393 -0.000363
v 0.000419 0.011041 -0.001493
v 0.000583 0.010366 -0.002754
v 0.000761 0.004009 -0.006208
v -0.000231 0.001582 -0.004143
v 0.000905 0.002662 -0.005671
v 0.001161 0.003503 -0.005676
v -0.001859 0.009560 0.003788
v -0.003220 0.006353 0.004224
v -0.002219 0.002367 0.002268
v -0.000936 0.001429 0.000720
v -0.000168 0.001118 -0.000063
v -0.001507 0.000638 -0.000769
v -0.002406 0.000141 -0.001622
v -0.000181 0.010735 -0.001690
v -0.000002 0.009991 -0.002775
v -0.001285 0.004669 -0.006422
v 0.000446 0.003466 -0.006002
v -0.001832 0.002129 -0.005475
v -0.003778 0.003073 0.002408
v -0.001831 0.001063 0.001089
v -0.003574 0.000896 0.000881
v -0.001891 0.000525 -0.000144
v -0.003795 0.000325 -0.000177
v -0.004192 0.000406 -0.001126
v -0.002951 0.002698 -0.005144
v -0.004403 0.000715 -0.000298
vn 0.5970 0.7862 -0.1597
vn 0.8288 0.5089 -0.2325
vn 0.6721 0.0603 -0.7380
vn 0.6686 0.5253 0.5263
vn 0.1099 0.9580 0.2649
vn 0.3254 0.8203 -0.4703
vn 0.9986 0.0152 -0.0501
vn 0.7113 -0.5242 -0.4682
vn 0.3732 -0.5010 -0.7808
vn -0.2186 -0.3389 -0.9151
vn 0.9249 -0.3619 -0.1164
vn -0.3319 0.2540 0.9084
vn -0.0914 0.2206 0.9711
vn 0.4228 -0.0105 0.9062
vn 0.9548 -0.2289 0.1896
vn 0.9415 -0.2442 0.2324
vn 0.9334 -0.2241 0.2803
vn 0.0785 0.7072 -0.7027
vn 0.1623 0.9774 0.1351
vn -0.1168 0.2937 -0.9487
vn 0.2159 -0.9374 -0.2733
vn 0.6601 -0.7511 -0.0090
vn -0.4297 -0.8226 -0.3723
vn -0.6682 -0.1976 -0.7173
vn -0.1096 0.6149 0.7809
vn -0.4385 -0.8858 0.1522
vn -0.6579 -0.5959 0.4606
vn -0.5843 -0.7761 0.2372
vn -0.1785 -0.9340 0.3096
vn 0.4441 -0.6832 0.5797
vn 0.5991 -0.5454 0.5862
vn 0.8432 -0.5087 -0.1742
vn 0.7610 -0.6375 0.1203
vn -0.1125 0.1556 -0.9814
vn 0.3633 0.6455 -0.6719
vn 0.1039 -0.3740 -0.9216
vn -0.1205 0.4519 0.8839
vn 0.2397 0.9698 0.0458
vn -0.5771 -0.2255 -0.7849
vn 0.4581 -0.7555 -0.4684
vn -0.1285 -0.6944 -0.7080
vn 0.7334 -0.5943 -0.3301
vn -0.4476 -0.6517 -0.6122
vn -0.2317 -0.7874 0.5712
vn -0.5659 -0.5824 -0.5836
vn 0.2015 -0.9406 -0.2734
vn -0.3865 -0.5203 -0.7615
vn -0.9360 -0.2849 -0.2066
vn 0.3115 -0.9213 0.2326
vn 0.2394 -0.6934 -0.6796
vn 0.7751 -0.5041 -0.3810
vn 0.6392 0.6700 -0.3777
vn 0.3115 -0.2588 -0.9143
vn 0.3991 0.1610 -0.9027
vn 0.6413 -0.4366 -0.6310
vn 0.0909 0.3526 0.9313
vn 0.4150 0.9065 0.0778
vn 0.2760 -0.9417 0.1926
vn 0.4763 -0.5697 -0.6698
vn -0.1780 0.9602 0.2152
vn -0.0387 0.9992 -0.0023
vn 0.3198 0.8962 -0.3075
vn 0.2945 0.7283 -0.6187
vn 0.4572 0.0103 -0.8893
vn 0.1948 -0.8528 -0.4845
vn 0.2432 -0.5884 -0.7711
vn 0.5972 -0.2366 -0.7664
vn -0.5417 0.5767 0.6115
vn -0.7105 0.0551 0.7016
vn 0.1288 -0.5532 0.8230
vn 0.4084 -0.6636 0.6268
vn 0.2328 -0.8506 0.4715
vn 0.2706 -0.9395 0.2099
vn 0.0239 -0.9859 -0.1654
vn -0.6838 0.5974 -0.4191
vn -0.6634 0.5484 -0.5091
vn -0.4111 0.2164 -0.8855
vn 0.1120 -0.3839 -0.9165
vn -0.0372 -0.6085 -0.7927
vn -0.8277 -0.1487 0.5411
vn 0.2734 -0.7573 0.5931
vn -0.3197 -0.7191 0.6170
vn 0.2388 -0.9302 0.2786
vn -0.2560 -0.9161 0.3085
vn -0.7242 -0.6448 -0.2445
vn -0.8282 -0.0269 -0.5598
vn -0.9455 -0.2913 0.1454
s 1
usemtl Default_OBJ.032
f 1//1 2//2 3//3
f 4//4 1//1 5//5
f 6//6 5//5 1//1
f 3//3 6//6 1//1
f 2//2 1//1 4//4
f 7//7 3//3 2//2
f 7//7 2//2 4//4
f 3//3 8//8 9//9
f 10//10 6//6 3//3
f 3//3 9//9 10//10
f 3//3 7//7 11//11
f 8//8 3//3 11//11
f 12//12 4//4 5//5
f 4//4 12//12 13//13
f 14//14 4//4 13//13
f 14//14 15//15 4//4
f 15//15 16//16 4//4
f 4//4 16//16 17//17
f 4//4 17//17 7//7
f 18//18 5//5 6//6
f 5//5 18//18 19//19
f 5//5 19//19 12//12
f 10//10 20//20 6//6
f 20//20 18//18 6//6
f 11//11 7//7 17//17
f 9//9 8//8 21//21
f 8//8 22//22 21//21
f 8//8 11//11 22//22
f 21//21 23//23 9//9
f 10//10 9//9 23//23
f 24//24 10//10 23//23
f 20//20 10//10 24//24
f 11//11 17//17 22//22
f 12//12 25//25 26//26
f 12//12 19//19 25//25
f 26//26 27//27 12//12
f 13//13 12//12 27//27
f 13//13 28//28 29//29
f 29//29 30//30 13//13
f 30//30 14//14 13//13
f 13//13 27//27 28//28
f 30//30 31//31 14//14
f 14//14 31//31 15//15
f 30//30 15//15 31//31
f 16//16 15//15 32//32
f 32//32 15//15 30//30
f 22//22 17//17 16//16
f 22//22 16//16 33//33
f 16//16 32//32 33//33
f 20//20 34//34 18//18
f 18//18 35//35 19//19
f 36//36 35//35 18//18
f 36//36 18//18 34//34
f 37//37 25//25 19//19
f 38//38 19//19 35//35
f 19//19 38//38 37//37
f 39//39 34//34 20//20
f 24//24 39//39 20//20
f 40//40 41//41 21//21
f 40//40 21//21 22//22
f 21//21 41//41 23//23
f 22//22 33//33 42//42
f 42//42 40//40 22//22
f 24//24 23//23 41//41
f 43//43 24//24 41//41
f 39//39 24//24 43//43
f 44//44 25//25 37//37
f 26//26 25//25 44//44
f 41//41 26//26 43//43
f 27//27 26//26 45//45
f 44//44 46//46 26//26
f 45//45 26//26 41//41
f 26//26 46//46 36//36
f 26//26 36//36 43//43
f 45//45 47//47 27//27
f 48//48 27//27 47//47
f 27//27 48//48 28//28
f 28//28 48//48 47//47
f 29//29 28//28 47//47
f 29//29 49//49 30//30
f 29//29 47//47 50//50
f 50//50 49//49 29//29
f 51//51 32//32 30//30
f 49//49 51//51 30//30
f 33//33 32//32 42//42
f 32//32 51//51 42//42
f 39//39 36//36 34//34
f 38//38 35//35 52//52
f 53//53 35//35 36//36
f 35//35 53//53 54//54
f 54//54 55//55 35//35
f 55//55 52//52 35//35
f 46//46 53//53 36//36
f 39//39 43//43 36//36
f 56//56 37//37 38//38
f 56//56 44//44 37//37
f 38//38 52//52 57//57
f 38//38 57//57 56//56
f 40//40 50//50 41//41
f 40//40 42//42 50//50
f 41//41 50//50 47//47
f 47//47 45//45 41//41
f 51//51 50//50 42//42
f 58//58 44//44 56//56
f 44//44 58//58 46//46
f 59//59 46//46 58//58
f 53//53 46//46 59//59
f 51//51 49//49 50//50
f 57//57 52//52 60//60
f 52//52 61//61 60//60
f 62//62 61//61 52//52
f 62//62 52//52 63//63
f 64//64 63//63 52//52
f 64//64 52//52 55//55
f 54//54 53//53 59//59
f 59//59 55//55 54//54
f 65//65 55//55 58//58
f 55//55 59//59 58//58
f 66//66 55//55 65//65
f 67//67 55//55 66//66
f 64//64 55//55 67//67
f 56//56 60//60 68//68
f 56//56 69//69 70//70
f 57//57 60//60 56//56
f 69//69 56//56 68//68
f 71//71 56//56 70//70
f 58//58 56//56 71//71
f 72//72 58//58 71//71
f 73//73 58//58 72//72
f 58//58 73//73 74//74
f 58//58 74//74 65//65
f 68//68 60//60 61//61
f 61//61 62//62 75//75
f 75//75 68//68 61//61
f 62//62 63//63 76//76
f 62//62 76//76 75//75
f 77//77 76//76 63//63
f 64//64 77//77 63//63
f 78//78 77//77 64//64
f 64//64 67//67 78//78
f 65//65 74//74 79//79
f 66//66 65//65 77//77
f 65//65 79//79 77//77
f 67//67 66//66 78//78
f 66//66 77//77 78//78
f 69//69 68//68 80//80
f 68//68 75//75 76//76
f 76//76 80//80 68//68
f 69//69 80//80 70//70
f 81//81 70//70 82//82
f 81//81 71//71 70//70
f 80//80 82//82 70//70
f 81//81 83//83 71//71
f 83//83 72//72 71//71
f 83//83 73//73 72//72
f 83//83 74//74 73//73
f 83//83 84//84 74//74
f 74//74 84//84 85//85
f 74//74 85//85 79//79
f 76//76 77//77 80//80
f 86//86 77//77 79//79
f 77//77 86//86 80//80
f 86//86 79//79 85//85
f 87//87 82//82 80//80
f 80//80 86//86 87//87
f 82//82 83//83 81//81
f 84//84 82//82 87//87
f 82//82 84//84 83//83
f 84//84 87//87 85//85
f 87//87 86//86 85//85
