# Blender 4.0.2
# www.blender.org
mtllib toe_2_dist_r.mtl
o toe_2_dist_r
v 0.003320 0.001492 -0.000523
v 0.004701 0.000096 -0.000790
v 0.003517 0.000286 -0.001206
v 0.005642 0.001182 0.000459
v 0.002701 0.001819 -0.000874
v 0.004830 0.001567 0.001252
v 0.001787 0.002320 -0.000541
v 0.003106 0.000034 -0.001368
v 0.006430 0.000861 -0.000632
v 0.004053 -0.000279 -0.000840
v 0.002590 -0.000420 -0.001231
v 0.006054 0.000577 -0.000810
v 0.005836 0.000224 -0.001100
v 0.005020 -0.000229 -0.001070
v 0.002116 -0.000787 0.001983
v 0.005037 -0.000389 -0.000302
v 0.004714 -0.000175 0.001536
v 0.002494 0.001561 -0.001707
v 0.002923 0.000518 -0.001500
v 0.006929 0.001240 0.001354
v 0.006972 0.001151 -0.000142
v 0.001995 0.002250 -0.002004
v 0.003819 -0.000290 0.003183
v 0.002953 0.001354 0.002067
v 0.000810 0.001726 0.002451
v 0.005321 0.000776 0.003898
v 0.006066 0.001052 0.003474
v 0.006386 0.001190 0.002922
v -0.000100 0.002159 0.001161
v 0.000126 0.002175 -0.000038
v 0.001313 0.000255 -0.002788
v 0.000647 -0.000741 -0.001706
v 0.006818 0.000517 -0.000332
v 0.000219 -0.000630 0.002821
v -0.000068 -0.001079 0.001958
v 0.002974 -0.000553 0.002413
v 0.003605 -0.000602 0.002711
v 0.002212 0.000285 0.002536
v 0.001112 -0.000320 0.002669
v 0.005139 0.000369 0.004191
v 0.006775 0.000958 0.002102
v 0.001421 0.001606 -0.002936
v 0.001453 0.002225 -0.002306
v 0.004224 -0.000498 0.003520
v -0.000001 0.001652 0.002733
v 0.000125 0.001013 0.003229
v 0.006081 0.000518 0.003297
v 0.001044 0.000961 -0.002773
v 0.000608 -0.000191 -0.002157
v -0.000061 -0.000975 -0.000106
v -0.000447 0.000300 0.003001
v -0.000496 -0.000516 0.002243
v -0.000360 -0.000918 0.001330
v -0.000268 -0.000718 0.000294
vn 0.4805 0.6881 -0.5437
vn -0.1688 -0.1748 -0.9700
vn 0.4397 0.2218 -0.8703
vn 0.0670 0.9271 -0.3687
vn 0.6327 0.7465 -0.2061
vn 0.1006 0.9885 0.1126
vn 0.1505 0.9885 0.0156
vn 0.4244 -0.3542 -0.8333
vn 0.2954 0.5258 -0.7977
vn 0.3021 -0.8694 -0.3910
vn -0.2367 0.7167 -0.6560
vn 0.2581 -0.1231 -0.9583
vn -0.2577 -0.5495 -0.7948
vn 0.2732 -0.3527 -0.8950
vn 0.1457 -0.9174 0.3703
vn -0.1639 -0.9855 -0.0441
vn 0.3015 -0.9527 0.0383
vn 0.7359 0.2900 -0.6119
vn 0.5313 0.0170 -0.8470
vn 0.8470 0.5306 0.0324
vn 0.7295 0.5862 -0.3523
vn 0.5005 0.7575 -0.4192
vn -0.1551 -0.3226 0.9337
vn 0.1791 0.5653 0.8052
vn 0.2297 0.7399 0.6323
vn -0.0221 0.6797 0.7331
vn 0.4865 0.5249 0.6985
vn 0.6524 0.6127 0.4460
vn -0.8729 0.4840 0.0610
vn -0.7731 0.6187 -0.1394
vn 0.0947 -0.3738 -0.9227
vn -0.2919 -0.8397 -0.4580
vn 0.7929 -0.4872 -0.3660
vn -0.0956 -0.6186 0.7799
vn -0.2916 -0.9266 0.2376
vn -0.4295 -0.3248 0.8426
vn 0.1029 -0.9375 0.3326
vn -0.0136 0.0020 0.9999
vn 0.3070 -0.2726 0.9119
vn -0.1329 -0.1941 0.9719
vn 0.9390 -0.2102 0.2723
vn 0.0725 0.3148 -0.9464
vn -0.2257 0.8438 -0.4869
vn -0.6226 0.0528 0.7808
vn -0.5503 0.7081 0.4425
vn -0.0293 0.2617 0.9647
vn 0.6237 -0.6576 0.4225
vn -0.6730 0.0785 -0.7354
vn -0.7398 -0.2913 -0.6065
vn -0.5128 -0.8172 -0.2631
vn -0.8138 -0.0352 0.5801
vn -0.9390 -0.2748 0.2066
vn -0.8089 -0.5856 -0.0514
vn -0.9747 0.0824 -0.2080
s 1
usemtl Default_OBJ.043
f 1//1 2//2 3//3
f 1//1 4//4 2//2
f 3//3 5//5 1//1
f 4//4 1//1 6//6
f 7//7 6//6 1//1
f 1//1 5//5 7//7
f 2//2 8//8 3//3
f 4//4 9//9 2//2
f 8//8 2//2 11//10
f 2//2 9//9 12//11
f 13//12 14//13 2//2
f 12//11 13//12 2//2
f 2//2 10//14 11//10
f 11//10 2//2 15//15
f 2//2 14//13 16//16
f 17//17 2//2 16//16
f 17//17 15//15 2//2
f 3//3 18//18 5//5
f 19//19 18//18 3//3
f 8//8 19//19 3//3
f 20//20 21//21 4//4
f 21//21 9//9 4//4
f 6//6 20//20 4//4
f 5//5 18//18 22//22
f 5//5 22//22 7//7
f 23//23 6//6 24//24
f 6//6 7//7 25//25
f 25//25 24//24 6//6
f 26//26 27//27 6//6
f 27//27 28//28 6//6
f 20//20 6//6 28//28
f 26//26 6//6 23//23
f 7//7 29//29 25//25
f 30//30 29//29 7//7
f 30//30 7//7 22//22
f 19//19 8//8 31//31
f 31//31 8//8 11//10
f 13//12 12//11 9//9
f 9//9 21//21 13//12
f 15//15 32//32 11//10
f 11//10 32//32 31//31
f 13//12 33//33 14//13
f 21//21 33//33 13//12
f 14//13 33//33 16//16
f 15//15 34//34 35//35
f 32//32 15//15 35//35
f 36//36 15//15 37//37
f 15//15 17//17 37//37
f 38//38 39//39 15//15
f 34//34 15//15 39//39
f 15//15 36//36 38//38
f 17//17 16//16 33//33
f 40//40 17//17 33//33
f 23//23 17//17 40//40
f 37//37 17//17 23//23
f 18//18 19//19 22//22
f 31//31 22//22 19//19
f 21//21 20//20 41//41
f 41//41 20//20 28//28
f 21//21 41//41 33//33
f 42//42 43//43 22//22
f 42//42 22//22 31//31
f 22//22 43//43 30//30
f 26//26 23//23 40//40
f 38//38 23//23 24//24
f 23//23 38//38 36//36
f 23//23 36//36 37//37
f 23//23 44//44 40//40
f 25//25 38//38 24//24
f 45//45 25//25 29//29
f 45//45 46//46 25//25
f 25//25 46//46 39//39
f 38//38 25//25 39//39
f 40//40 47//47 26//26
f 27//27 26//26 47//47
f 41//41 28//28 27//27
f 41//41 27//27 47//47
f 45//45 29//29 30//30
f 48//48 30//30 42//42
f 30//30 43//43 42//42
f 45//45 30//30 49//49
f 30//30 48//48 49//49
f 42//42 31//31 48//48
f 32//32 49//49 31//31
f 49//49 48//48 31//31
f 32//32 50//50 49//49
f 32//32 35//35 50//50
f 33//33 41//41 47//47
f 40//40 33//33 47//47
f 34//34 39//39 46//46
f 51//51 34//34 46//46
f 34//34 51//51 52//52
f 35//35 34//34 52//52
f 35//35 53//53 50//50
f 35//35 52//52 53//53
f 45//45 52//52 51//51
f 46//46 45//45 51//51
f 45//45 49//49 52//52
f 54//54 49//49 50//50
f 54//54 52//52 49//49
f 50//50 53//53 54//54
f 52//52 54//54 53//53
