# Blender 4.0.2
# www.blender.org
mtllib toe_2_prox_r.mtl
o toe_2_prox_r
v 0.035253 0.005760 0.009003
v 0.037294 0.004711 0.010249
v 0.034423 0.000842 0.008735
v 0.036107 0.005890 0.010795
v 0.032274 0.002565 0.008437
v 0.032496 0.006018 0.009583
v 0.037495 0.003035 0.011911
v 0.036280 0.001418 0.009597
v 0.037108 0.004804 0.012648
v 0.032628 -0.000100 0.009194
v 0.033625 -0.000267 0.009546
v 0.031052 0.004700 0.017448
v 0.035428 0.004824 0.016115
v 0.025877 0.006904 0.012909
v 0.031246 0.002844 0.009386
v 0.031039 0.005319 0.008715
v 0.032033 0.000526 0.009223
v 0.036198 0.002941 0.015886
v 0.035677 0.000198 0.010607
v 0.032712 -0.000307 0.010279
v 0.034560 -0.000428 0.011183
v 0.022890 0.004532 0.014479
v 0.029559 0.002402 0.017450
v 0.032755 0.002645 0.019018
v 0.035336 0.003340 0.018949
v 0.035791 0.001876 0.017971
v 0.008982 0.009582 0.009464
v 0.021347 0.007433 0.008011
v 0.031100 0.001705 0.012478
v 0.025805 0.003802 0.008560
v 0.020972 0.004739 0.006760
v 0.034370 0.000850 0.014841
v 0.033045 -0.001131 0.015737
v 0.034938 -0.000011 0.016672
v 0.032893 0.000554 0.014199
v 0.014498 0.002501 0.011130
v 0.024745 0.002667 0.014806
v 0.028537 0.001651 0.016082
v 0.029516 -0.000356 0.016050
v 0.033275 -0.000543 0.017996
v 0.034506 -0.000281 0.017981
v 0.035228 0.001530 0.018756
v 0.007716 0.011245 0.006046
v 0.006185 0.011414 0.006191
v 0.012240 0.009508 0.007454
v 0.005006 0.011002 0.009322
v 0.004354 0.010458 0.010401
v 0.003301 0.009188 0.011325
v 0.003498 0.007779 0.011690
v 0.007328 0.006054 0.010137
v 0.008770 0.009986 0.004658
v 0.018630 0.006462 0.006099
v 0.030864 0.001632 0.013423
v 0.014594 0.001847 0.009472
v 0.010097 0.002166 0.003852
v 0.032495 -0.001283 0.017006
v 0.031312 -0.001169 0.016590
v 0.031015 -0.000851 0.015174
v 0.030622 0.001057 0.014389
v 0.008433 0.002656 0.009576
v 0.029604 0.001078 0.014853
v 0.030117 0.000162 0.015002
v 0.007748 0.011135 0.003526
v 0.006602 0.010166 0.002036
v 0.006775 0.011039 0.003101
v 0.004203 0.003350 0.000591
v 0.002506 0.003387 0.005476
v 0.000722 0.002193 0.009963
v 0.002883 0.008358 0.011565
v 0.002084 0.005633 0.011462
v 0.004382 0.002486 0.010716
v 0.005430 0.002753 0.010035
v 0.009794 0.006680 0.002824
v 0.007752 0.009485 0.000983
v 0.009294 0.002922 0.002863
v 0.006269 0.002223 0.009227
v 0.008146 0.001808 0.002494
v 0.007524 0.007074 -0.000191
v 0.004482 0.002768 -0.000210
v 0.003689 0.002310 0.000419
v 0.003299 0.002446 0.001068
v 0.002635 0.002043 0.001507
v 0.001105 0.001868 0.004834
v 0.001454 0.001703 0.002840
v 0.000604 0.001423 0.009175
v 0.000509 0.001512 0.005345
v 0.001364 0.001489 0.010005
v 0.004023 0.001449 0.009477
v 0.007663 0.003204 -0.000036
v 0.002925 0.000936 0.002151
v 0.007256 0.002437 0.000221
v 0.006465 0.002523 -0.000182
v 0.001010 0.001634 0.003646
vn 0.2777 0.6231 -0.7312
vn 0.8528 0.2981 -0.4288
vn 0.2963 -0.3903 -0.8717
vn 0.4125 0.9105 -0.0277
vn -0.2808 -0.0739 -0.9569
vn 0.0386 0.8253 -0.5633
vn 0.9696 -0.2361 0.0641
vn 0.7041 -0.3518 -0.6168
vn 0.8286 0.5095 0.2321
vn -0.3455 -0.7341 -0.5846
vn 0.1620 -0.8854 -0.4357
vn -0.1446 0.7164 0.6825
vn 0.5069 0.7805 0.3660
vn 0.0205 0.9491 0.3143
vn -0.5461 -0.5023 -0.6705
vn 0.0949 0.4339 -0.8959
vn -0.7283 -0.4688 -0.4998
vn 0.9634 -0.1122 0.2436
vn 0.6372 -0.7586 -0.1362
vn -0.4231 -0.9057 0.0269
vn 0.2233 -0.9672 0.1208
vn -0.2816 0.2404 0.9289
vn -0.4595 -0.1285 0.8788
vn -0.2192 0.0648 0.9735
vn 0.5302 0.3919 0.7519
vn 0.9466 -0.1870 0.2626
vn 0.1834 0.6670 0.7221
vn 0.2684 0.8224 -0.5016
vn -0.4794 -0.8704 -0.1119
vn 0.1001 -0.8061 -0.5833
vn 0.3084 0.0206 -0.9510
vn 0.6113 -0.7906 -0.0352
vn 0.2945 -0.8609 -0.4148
vn 0.7449 -0.6200 -0.2465
vn -0.0822 -0.9404 -0.3299
vn -0.2416 -0.5934 0.7678
vn -0.3405 -0.8142 0.4703
vn -0.5586 -0.7206 0.4107
vn -0.7454 -0.6584 0.1041
vn -0.0661 -0.6017 0.7960
vn 0.4710 -0.6867 0.5537
vn 0.4830 -0.3410 0.8065
vn 0.2974 0.9509 0.0855
vn -0.4140 0.9094 -0.0389
vn 0.2387 0.9669 0.0901
vn -0.3234 0.9341 0.1515
vn -0.4316 0.7886 0.4379
vn -0.5600 0.6431 0.5223
vn 0.1234 0.0562 0.9908
vn 0.1659 -0.0318 0.9856
vn 0.6319 0.6774 -0.3765
vn 0.3432 0.2976 -0.8909
vn -0.2791 -0.9080 -0.3124
vn 0.0134 -0.9960 0.0887
vn 0.2953 -0.8553 -0.4258
vn -0.0133 -0.9406 0.3392
vn -0.3438 -0.8731 0.3456
vn -0.1606 -0.7439 -0.6487
vn -0.2381 -0.6716 -0.7016
vn -0.0676 -0.3954 0.9160
vn -0.4854 -0.7084 -0.5124
vn -0.5192 -0.4563 -0.7227
vn 0.4599 0.8471 -0.2662
vn -0.5893 0.5992 -0.5419
vn -0.4091 0.8304 -0.3783
vn -0.7339 0.4780 -0.4826
vn -0.7985 0.5593 -0.2228
vn -0.8702 -0.0022 0.4928
vn -0.7839 0.4008 0.4742
vn -0.6204 0.0606 0.7819
vn 0.2581 -0.5047 0.8238
vn 0.3894 -0.5141 0.7642
vn 0.6375 0.2142 -0.7401
vn 0.2964 0.5728 -0.7642
vn 0.6356 -0.3209 -0.7021
vn 0.1725 -0.8985 0.4036
vn 0.3809 -0.8833 -0.2734
vn 0.1807 0.2747 -0.9444
vn -0.4079 -0.1376 -0.9026
vn -0.5128 -0.3066 -0.8019
vn -0.6718 0.3966 -0.6257
vn -0.7336 -0.0153 -0.6794
vn -0.6183 0.7609 -0.1966
vn -0.8732 0.0315 -0.4863
vn -0.8307 -0.5536 0.0587
vn -0.9702 -0.2104 -0.1198
vn -0.2141 -0.7148 0.6657
vn 0.1810 -0.9306 0.3183
vn 0.5462 -0.2350 -0.8041
vn -0.1893 -0.9094 -0.3704
vn 0.3775 -0.7597 -0.5294
vn 0.0782 -0.5490 -0.8322
vn -0.9258 0.0451 -0.3754
s 1
usemtl Default_OBJ.041
f 1//1 2//2 3//3
f 4//4 2//2 1//1
f 5//5 1//1 3//3
f 5//5 6//6 1//1
f 4//4 1//1 6//6
f 7//7 8//8 2//2
f 8//8 3//3 2//2
f 2//2 4//4 9//9
f 7//7 2//2 9//9
f 5//5 3//3 10//10
f 3//3 11//11 10//10
f 11//11 3//3 8//8
f 4//4 12//12 13//13
f 4//4 13//13 9//9
f 4//4 6//6 14//14
f 14//14 12//12 4//4
f 5//5 15//15 16//16
f 6//6 5//5 16//16
f 17//17 15//15 5//5
f 10//10 17//17 5//5
f 14//14 6//6 16//16
f 9//9 18//18 7//7
f 7//7 18//18 19//19
f 19//19 8//8 7//7
f 8//8 19//19 11//11
f 13//13 18//18 9//9
f 20//20 17//17 10//10
f 10//10 11//11 20//20
f 11//11 19//19 21//21
f 11//11 21//21 20//20
f 12//12 14//14 22//22
f 23//23 24//24 12//12
f 22//22 23//23 12//12
f 12//12 25//25 13//13
f 24//24 25//25 12//12
f 18//18 13//13 26//26
f 26//26 13//13 25//25
f 27//27 14//14 28//28
f 22//22 14//14 27//27
f 28//28 14//14 16//16
f 15//15 29//29 30//30
f 15//15 17//17 29//29
f 30//30 16//16 15//15
f 16//16 30//30 31//31
f 16//16 31//31 28//28
f 20//20 29//29 17//17
f 32//32 18//18 33//33
f 34//34 33//33 18//18
f 18//18 32//32 19//19
f 34//34 18//18 26//26
f 32//32 21//21 19//19
f 29//29 20//20 35//35
f 21//21 32//32 20//20
f 32//32 35//35 20//20
f 22//22 36//36 37//37
f 37//37 23//23 22//22
f 22//22 27//27 36//36
f 37//37 38//38 23//23
f 23//23 39//39 40//40
f 38//38 39//39 23//23
f 24//24 23//23 40//40
f 41//41 42//42 24//24
f 40//40 41//41 24//24
f 24//24 42//42 25//25
f 26//26 25//25 42//42
f 41//41 26//26 42//42
f 41//41 34//34 26//26
f 27//27 43//43 44//44
f 28//28 45//45 27//27
f 45//45 43//43 27//27
f 44//44 46//46 27//27
f 27//27 46//46 47//47
f 47//47 48//48 27//27
f 48//48 49//49 27//27
f 50//50 27//27 49//49
f 27//27 50//50 36//36
f 51//51 28//28 52//52
f 28//28 51//51 45//45
f 52//52 28//28 31//31
f 30//30 29//29 37//37
f 53//53 37//37 29//29
f 35//35 53//53 29//29
f 54//54 30//30 37//37
f 30//30 54//54 55//55
f 55//55 31//31 30//30
f 52//52 31//31 55//55
f 32//32 33//33 35//35
f 33//33 41//41 56//56
f 56//56 57//57 33//33
f 57//57 58//58 33//33
f 34//34 41//41 33//33
f 33//33 58//58 59//59
f 33//33 59//59 35//35
f 53//53 35//35 59//59
f 36//36 60//60 54//54
f 36//36 54//54 37//37
f 50//50 60//60 36//36
f 37//37 59//59 61//61
f 38//38 37//37 61//61
f 53//53 59//59 37//37
f 61//61 62//62 38//38
f 38//38 62//62 39//39
f 39//39 57//57 40//40
f 62//62 58//58 39//39
f 57//57 39//39 58//58
f 41//41 40//40 56//56
f 40//40 57//57 56//56
f 45//45 51//51 43//43
f 51//51 63//63 43//43
f 63//63 44//44 43//43
f 44//44 47//47 46//46
f 64//64 44//44 65//65
f 65//65 44//44 63//63
f 47//47 44//44 66//66
f 44//44 64//64 66//66
f 47//47 67//67 68//68
f 68//68 48//48 47//47
f 47//47 66//66 67//67
f 48//48 69//69 49//49
f 70//70 69//69 48//48
f 70//70 48//48 68//68
f 70//70 49//49 69//69
f 49//49 70//70 71//71
f 49//49 71//71 50//50
f 71//71 72//72 50//50
f 50//50 72//72 60//60
f 52//52 73//73 51//51
f 73//73 74//74 51//51
f 74//74 63//63 51//51
f 73//73 52//52 75//75
f 52//52 55//55 75//75
f 76//76 54//54 60//60
f 54//54 76//76 55//55
f 75//75 55//55 77//77
f 77//77 55//55 76//76
f 62//62 59//59 58//58
f 62//62 61//61 59//59
f 72//72 76//76 60//60
f 65//65 63//63 74//74
f 64//64 78//78 66//66
f 65//65 74//74 64//64
f 74//74 78//78 64//64
f 79//79 66//66 78//78
f 79//79 80//80 66//66
f 80//80 81//81 66//66
f 82//82 66//66 81//81
f 83//83 66//66 84//84
f 82//82 84//84 66//66
f 66//66 83//83 67//67
f 85//85 68//68 67//67
f 67//67 86//86 85//85
f 83//83 86//86 67//67
f 68//68 71//71 70//70
f 68//68 87//87 71//71
f 87//87 68//68 85//85
f 87//87 88//88 71//71
f 71//71 88//88 72//72
f 88//88 76//76 72//72
f 74//74 73//73 78//78
f 78//78 73//73 89//89
f 89//89 73//73 75//75
f 89//89 75//75 77//77
f 76//76 88//88 77//77
f 90//90 77//77 85//85
f 88//88 85//85 77//77
f 77//77 90//90 80//80
f 77//77 80//80 91//91
f 91//91 89//89 77//77
f 78//78 89//89 79//79
f 79//79 92//92 80//80
f 89//89 92//92 79//79
f 80//80 90//90 82//82
f 92//92 91//91 80//80
f 80//80 82//82 81//81
f 84//84 82//82 90//90
f 84//84 93//93 83//83
f 83//83 93//93 86//86
f 90//90 93//93 84//84
f 85//85 88//88 87//87
f 90//90 85//85 86//86
f 93//93 90//90 86//86
f 91//91 92//92 89//89
