# Blender 4.0.2
# www.blender.org
mtllib toe_3_mid_r.mtl
o toe_3_mid_r
v 0.011102 -0.001174 -0.001479
v 0.008708 0.000840 -0.001359
v 0.011547 -0.000875 -0.001325
v 0.009923 -0.000350 -0.001511
v 0.012177 -0.000910 -0.000697
v 0.009252 -0.000254 -0.001047
v 0.010631 -0.001719 0.002061
v 0.007737 -0.001088 0.004932
v 0.006761 0.001733 0.000435
v 0.008966 0.002033 -0.000781
v 0.008919 -0.000038 -0.001436
v 0.008433 -0.000145 -0.001034
v 0.006711 0.000347 -0.000766
v 0.011903 0.001518 0.000110
v 0.011787 -0.000789 0.002664
v 0.012563 0.000302 0.000276
v 0.006345 -0.001203 0.001859
v 0.010127 -0.002197 0.005810
v 0.009385 -0.002022 0.005871
v 0.011279 -0.001820 0.003969
v 0.003752 -0.001678 0.004053
v 0.004597 0.000162 0.004254
v 0.009043 -0.001607 0.005765
v 0.003101 0.001995 0.002370
v 0.007449 0.000956 0.004541
v 0.003263 0.001932 0.000032
v 0.011354 0.001156 0.003250
v 0.007670 -0.000454 -0.000856
v 0.005786 -0.000633 -0.001035
v 0.003852 0.000495 -0.001620
v 0.012073 -0.000278 0.004096
v 0.006399 -0.000897 -0.000610
v 0.003041 -0.001856 0.004100
v 0.004748 -0.001472 -0.001125
v 0.011244 -0.001592 0.005453
v 0.010717 -0.001640 0.005839
v 0.009605 -0.001164 0.005607
v 0.011471 -0.001006 0.005380
v 0.003240 -0.001087 0.004064
v 0.004645 0.001261 0.003724
v 0.007904 -0.000410 0.005593
v 0.004069 0.000664 0.004003
v 0.008705 -0.000620 0.005672
v 0.001469 0.001825 0.003016
v 0.000905 0.002255 -0.000919
v 0.008926 0.000999 0.005324
v 0.007985 0.000674 0.005396
v 0.002157 0.001542 -0.002637
v 0.011428 0.000476 0.005255
v 0.004788 -0.000839 -0.001279
v 0.003686 -0.000918 -0.002922
v 0.004440 -0.000866 -0.001697
v 0.004113 -0.001631 -0.001615
v 0.001251 -0.002461 0.004506
v 0.001661 -0.002893 0.003981
v 0.001920 -0.002732 -0.001741
v 0.010538 0.000273 0.005612
v -0.000218 -0.001663 0.004625
v 0.000069 0.001796 0.003829
v 0.000015 0.001303 0.004139
v -0.000361 0.000749 0.004326
v -0.000288 -0.000795 0.004763
v -0.000024 0.002162 0.003265
v -0.000546 0.002110 0.001350
v 0.000009 0.001810 -0.000497
v 0.000719 0.001087 -0.002236
v 0.001628 -0.000186 -0.003412
v 0.002588 -0.001202 -0.003491
v 0.002953 -0.001835 -0.003119
v 0.000277 -0.002488 0.004335
v 0.000595 -0.002873 0.003650
v 0.000446 -0.002917 0.000728
v 0.001079 -0.002244 -0.002060
v 0.000635 -0.002772 -0.000291
v 0.000418 0.000249 0.000801
v -0.000241 0.000457 0.002823
v 0.000941 -0.001851 0.001133
v 0.000067 -0.002596 0.003848
v -0.000709 0.001010 0.003881
v -0.000512 0.001620 0.003375
v -0.000417 -0.000098 0.004529
v -0.000971 0.001327 0.002887
v -0.000818 0.001314 0.001495
v 0.001076 -0.001661 0.000523
v 0.001642 -0.000907 -0.003436
v 0.000314 -0.002699 0.002541
v 0.000859 -0.001228 0.000808
vn 0.0645 -0.6227 -0.7798
vn -0.1694 0.2708 -0.9476
vn 0.5294 -0.0282 -0.8479
vn -0.0739 -0.1828 -0.9804
vn 0.8055 -0.4393 -0.3977
vn -0.2843 -0.9086 -0.3061
vn 0.0916 -0.9850 -0.1465
vn -0.2735 -0.9616 0.0243
vn -0.0335 0.9608 -0.2752
vn -0.0327 0.8565 -0.5152
vn -0.3099 -0.4435 -0.8410
vn -0.2112 -0.6552 -0.7253
vn -0.0188 0.3817 -0.9241
vn 0.5853 0.7571 -0.2901
vn 0.9299 -0.3678 0.0092
vn 0.9829 0.1302 -0.1303
vn 0.2187 -0.9739 -0.0613
vn 0.0885 -0.8224 0.5620
vn -0.3389 -0.6191 0.7084
vn 0.6049 -0.7953 -0.0399
vn 0.1111 -0.7028 0.7026
vn -0.2172 0.2037 0.9546
vn -0.2741 -0.0776 0.9586
vn 0.0559 0.9776 0.2029
vn -0.1766 0.8513 0.4941
vn 0.2207 0.9453 -0.2403
vn 0.5635 0.8050 0.1857
vn 0.1725 -0.6942 -0.6988
vn 0.2910 -0.2201 -0.9310
vn 0.5515 0.5449 -0.6317
vn 0.9965 0.0312 0.0776
vn 0.2936 -0.8710 -0.3940
vn 0.3882 -0.5844 0.7126
vn 0.4481 -0.7817 -0.4337
vn 0.7398 -0.5080 0.4413
vn 0.3214 -0.1793 0.9298
vn -0.0024 0.1411 0.9900
vn 0.7922 -0.1229 0.5977
vn 0.0670 -0.0133 0.9977
vn -0.0559 0.6900 0.7216
vn -0.3106 0.0584 0.9487
vn -0.0095 0.2958 0.9552
vn -0.0218 0.1005 0.9947
vn 0.1163 0.9707 0.2101
vn -0.2023 0.9322 -0.3001
vn -0.0265 0.8031 0.5953
vn -0.4315 0.4712 0.7693
vn 0.1591 0.7151 -0.6807
vn 0.5901 0.5323 0.6070
vn 0.4953 -0.0879 -0.8643
vn 0.6983 0.0172 -0.7156
vn 0.7914 0.0121 -0.6112
vn 0.5921 -0.7433 -0.3113
vn 0.0948 -0.4155 0.9046
vn 0.2732 -0.8903 0.3643
vn 0.0710 -0.9507 -0.3020
vn 0.1530 0.3299 0.9315
vn -0.7083 -0.3321 0.6229
vn -0.2023 0.7029 0.6819
vn -0.1820 0.4895 0.8528
vn -0.3547 0.3392 0.8713
vn -0.5026 -0.0379 0.8637
vn -0.2169 0.9183 0.3311
vn -0.6514 0.7491 -0.1206
vn -0.8701 0.2882 -0.3998
vn -0.7824 0.2755 -0.5586
vn -0.3738 0.1817 -0.9095
vn 0.1353 -0.1757 -0.9751
vn 0.2981 -0.6636 -0.6861
vn -0.3636 -0.6774 0.6395
vn -0.5166 -0.8552 0.0425
vn -0.8002 -0.5850 -0.1321
vn -0.7342 -0.5092 -0.4491
vn -0.8628 -0.4446 -0.2406
vn -0.8835 -0.4101 -0.2265
vn -0.8733 -0.4462 -0.1958
vn -0.9753 0.0996 -0.1970
vn -0.7370 -0.2812 -0.6146
vn -0.9038 0.1925 0.3823
vn -0.6632 0.6232 0.4144
vn -0.7306 0.0998 0.6755
vn -0.9929 0.0420 0.1116
vn -0.9434 -0.2279 -0.2411
vn -0.9895 0.0363 -0.1396
vn -0.5371 -0.2037 -0.8186
vn -0.9817 0.0596 0.1807
vn -0.9174 -0.2745 -0.2882
s 1
usemtl Default_OBJ.039
f 1//1 2//2 3//3
f 4//4 2//2 1//1
f 3//3 5//5 1//1
f 1//1 6//6 4//4
f 7//7 8//8 1//1
f 8//8 6//6 1//1
f 1//1 5//5 7//7
f 9//9 10//10 2//2
f 11//11 12//12 2//2
f 11//11 2//2 4//4
f 10//10 3//3 2//2
f 2//2 13//13 9//9
f 13//13 2//2 12//12
f 10//10 14//14 3//3
f 14//14 5//5 3//3
f 4//4 6//6 11//11
f 15//15 7//7 5//5
f 5//5 16//16 15//15
f 5//5 14//14 16//16
f 6//6 12//12 11//11
f 6//6 8//8 17//17
f 17//17 12//12 6//6
f 7//7 18//18 19//19
f 7//7 19//19 8//8
f 20//20 18//18 7//7
f 7//7 15//15 20//20
f 8//8 21//21 17//17
f 8//8 22//22 21//21
f 8//8 19//19 23//23
f 8//8 23//23 22//22
f 24//24 25//25 9//9
f 13//13 26//26 9//9
f 10//10 9//9 25//25
f 9//9 26//26 24//24
f 27//27 10//10 25//25
f 14//14 10//10 27//27
f 13//13 12//12 28//28
f 12//12 17//17 28//28
f 29//29 30//30 13//13
f 13//13 30//30 26//26
f 28//28 29//29 13//13
f 27//27 16//16 14//14
f 15//15 27//27 31//31
f 27//27 15//15 16//16
f 31//31 20//20 15//15
f 28//28 17//17 32//32
f 17//17 33//33 34//34
f 17//17 21//21 33//33
f 34//34 32//32 17//17
f 35//35 18//18 20//20
f 35//35 36//36 18//18
f 18//18 36//36 19//19
f 19//19 37//37 23//23
f 36//36 37//37 19//19
f 20//20 31//31 38//38
f 35//35 20//20 38//38
f 33//33 21//21 39//39
f 22//22 39//39 21//21
f 22//22 25//25 40//40
f 22//22 41//41 25//25
f 42//42 39//39 22//22
f 42//42 22//22 40//40
f 23//23 41//41 22//22
f 43//43 41//41 23//23
f 37//37 43//43 23//23
f 44//44 40//40 24//24
f 45//45 24//24 26//26
f 45//45 44//44 24//24
f 40//40 25//25 24//24
f 46//46 27//27 25//25
f 41//41 47//47 25//25
f 25//25 47//47 46//46
f 48//48 26//26 30//30
f 26//26 48//48 45//45
f 46//46 49//49 27//27
f 27//27 49//49 31//31
f 32//32 29//29 28//28
f 32//32 34//34 29//29
f 50//50 29//29 34//34
f 29//29 50//50 30//30
f 30//30 51//51 48//48
f 52//52 51//51 30//30
f 50//50 52//52 30//30
f 31//31 49//49 38//38
f 53//53 34//34 33//33
f 54//54 55//55 33//33
f 33//33 39//39 54//54
f 56//56 53//53 33//33
f 56//56 33//33 55//55
f 52//52 34//34 53//53
f 50//50 34//34 52//52
f 36//36 35//35 38//38
f 36//36 57//57 37//37
f 36//36 38//38 57//57
f 37//37 57//57 43//43
f 49//49 57//57 38//38
f 54//54 39//39 58//58
f 58//58 39//39 42//42
f 59//59 40//40 44//44
f 42//42 40//40 59//59
f 41//41 57//57 47//47
f 57//57 41//41 43//43
f 59//59 60//60 42//42
f 60//60 61//61 42//42
f 62//62 42//42 61//61
f 42//42 62//62 58//58
f 44//44 45//45 63//63
f 59//59 44//44 63//63
f 64//64 45//45 65//65
f 45//45 66//66 65//65
f 66//66 45//45 48//48
f 64//64 63//63 45//45
f 57//57 46//46 47//47
f 57//57 49//49 46//46
f 67//67 66//66 48//48
f 51//51 68//68 48//48
f 68//68 67//67 48//48
f 53//53 51//51 52//52
f 68//68 51//51 69//69
f 51//51 53//53 69//69
f 69//69 53//53 56//56
f 55//55 54//54 70//70
f 70//70 54//54 58//58
f 55//55 70//70 71//71
f 71//71 72//72 55//55
f 56//56 55//55 72//72
f 56//56 73//73 69//69
f 72//72 74//74 56//56
f 74//74 73//73 56//56
f 75//75 58//58 76//76
f 75//75 77//77 58//58
f 58//58 78//78 70//70
f 78//78 58//58 71//71
f 79//79 58//58 62//62
f 58//58 77//77 71//71
f 76//76 58//58 79//79
f 80//80 59//59 63//63
f 60//60 59//59 80//80
f 79//79 61//61 60//60
f 60//60 80//80 79//79
f 81//81 61//61 79//79
f 62//62 61//61 81//81
f 79//79 62//62 81//81
f 63//63 64//64 82//82
f 80//80 63//63 82//82
f 64//64 83//83 82//82
f 64//64 65//65 83//83
f 65//65 75//75 83//83
f 65//65 66//66 84//84
f 65//65 84//84 75//75
f 84//84 66//66 73//73
f 73//73 66//66 67//67
f 67//67 68//68 85//85
f 73//73 67//67 85//85
f 85//85 68//68 69//69
f 85//85 69//69 73//73
f 78//78 71//71 70//70
f 72//72 71//71 86//86
f 86//86 71//71 77//77
f 86//86 74//74 72//72
f 74//74 84//84 73//73
f 84//84 74//74 77//77
f 74//74 86//86 77//77
f 75//75 76//76 83//83
f 75//75 84//84 87//87
f 77//77 75//75 87//87
f 82//82 83//83 76//76
f 82//82 76//76 79//79
f 84//84 77//77 87//87
f 79//79 80//80 82//82
