# Blender 4.0.2
# www.blender.org
mtllib toe_3_prox_r.mtl
o toe_3_prox_r
v 0.025218 0.005591 0.000132
v 0.025965 0.004961 0.000428
v 0.025478 0.002748 0.000029
v 0.023986 0.005874 -0.000585
v 0.023735 0.004987 0.006996
v 0.025844 0.005096 0.002526
v 0.015971 0.006875 0.002573
v 0.021572 0.005068 0.006820
v 0.026248 0.003403 0.001884
v 0.025977 0.003090 0.000809
v 0.025141 0.001788 -0.000097
v 0.023421 0.001233 -0.000782
v 0.022099 0.001723 -0.001020
v 0.021828 0.005533 -0.000492
v 0.021506 0.006072 -0.000072
v 0.024344 0.003772 0.008129
v 0.025115 0.003354 0.005437
v 0.015324 0.006040 -0.000994
v 0.009154 0.007692 0.001574
v 0.015217 0.003131 0.004086
v 0.018612 0.002150 0.005345
v 0.022161 0.003073 0.008051
v 0.026060 0.002705 0.001550
v 0.024683 0.000643 0.000782
v 0.022797 0.000226 -0.000090
v 0.021870 0.000414 -0.000370
v 0.020675 0.004377 -0.000871
v 0.021390 0.004523 -0.000679
v 0.021312 0.001007 -0.000342
v 0.020161 0.005379 -0.000768
v 0.024313 0.002037 0.007969
v 0.024153 0.000527 0.006136
v 0.022606 -0.000538 0.005265
v 0.023039 0.001125 0.004198
v 0.025103 0.001011 0.002291
v 0.007426 0.007154 -0.002763
v 0.015448 0.005289 -0.001263
v 0.005602 0.008382 -0.002172
v 0.005078 0.008533 -0.000310
v 0.002840 0.001777 -0.001269
v 0.019567 0.001599 0.004369
v 0.022392 0.001040 0.003904
v 0.001671 0.001389 -0.004940
v 0.015594 0.004039 -0.000885
v 0.020765 0.002225 0.001561
v 0.020431 0.000222 0.004585
v 0.019059 0.000969 0.005322
v 0.023780 0.000284 0.007274
v 0.022129 -0.000662 0.006346
v 0.021117 -0.000519 0.005935
v 0.023739 0.000065 0.001293
v 0.022039 0.000223 0.000536
v 0.020062 0.004236 -0.000492
v 0.020520 0.003128 -0.000213
v 0.021644 -0.000496 0.004940
v 0.022485 0.000908 0.002929
v 0.001840 0.009091 -0.002674
v 0.005164 0.004225 -0.004067
v 0.001065 0.009262 -0.001342
v 0.000644 0.008848 -0.000796
v -0.001958 0.004818 -0.000119
v -0.002262 0.002043 -0.000546
v -0.002969 0.000729 -0.001554
v -0.001461 0.001470 -0.001127
v -0.004008 -0.000092 -0.002111
v -0.001227 0.000341 -0.004758
v -0.001133 0.006259 -0.008051
v -0.001098 0.001562 -0.007812
v 0.001052 0.006130 -0.005674
v -0.000807 0.000596 -0.006781
v -0.000580 0.001343 -0.007131
v -0.000701 0.010263 -0.003365
v -0.001552 0.010580 -0.003409
v -0.002899 0.010073 -0.000985
v -0.003434 0.009572 -0.000193
v -0.003500 0.006241 0.000764
v -0.003207 0.001845 -0.000064
v -0.003339 0.000871 -0.000947
v -0.003788 0.000674 -0.001365
v -0.005475 0.000598 -0.000894
v -0.005927 0.000435 -0.003279
v -0.005745 0.000191 -0.002463
v -0.006012 0.000256 -0.001779
v -0.003408 -0.000013 -0.005490
v -0.003201 0.000703 -0.006516
v -0.003468 0.001964 -0.008272
v -0.000962 0.008455 -0.007172
v -0.001834 0.008071 -0.007136
v -0.002353 0.000962 -0.007212
v -0.003734 0.000992 -0.007308
v -0.000839 0.010074 -0.005257
v -0.001674 0.009949 -0.005625
v -0.005481 0.004322 -0.000038
v -0.004296 0.008379 0.000469
v -0.004624 0.007605 0.000630
v -0.005177 0.001544 -0.000179
v -0.006283 0.001666 -0.000636
v -0.006207 0.000856 -0.001164
v -0.006396 0.000862 -0.002757
v -0.005915 0.000886 -0.005405
v -0.005109 0.000674 -0.006320
v -0.003818 0.000098 -0.006380
v -0.004776 0.000952 -0.006877
vn 0.5178 0.7273 -0.4504
vn 0.8166 0.3515 -0.4578
vn 0.6582 -0.0997 -0.7462
vn 0.2599 0.6882 -0.6774
vn 0.2646 0.8580 0.4403
vn 0.7465 0.6367 0.1935
vn -0.0607 0.9207 0.3854
vn -0.2259 0.7386 0.6352
vn 0.9919 -0.0896 0.0898
vn 0.9178 -0.2061 -0.3393
vn 0.6762 -0.3641 -0.6405
vn 0.3001 -0.3234 -0.8974
vn -0.1210 -0.1737 -0.9773
vn -0.2202 0.3563 -0.9080
vn 0.0087 0.8193 -0.5733
vn 0.5148 0.3055 0.8010
vn 0.9535 -0.2062 0.2197
vn 0.1632 0.7461 -0.6455
vn -0.1563 0.7469 0.6463
vn -0.3864 -0.5789 0.7181
vn -0.6083 -0.4888 0.6253
vn -0.3443 0.0429 0.9379
vn 0.9277 -0.3709 -0.0438
vn 0.6201 -0.7301 -0.2872
vn 0.1302 -0.8749 -0.4665
vn -0.3816 -0.7529 -0.5362
vn -0.1640 -0.0358 -0.9858
vn 0.1440 0.2075 -0.9676
vn -0.7639 -0.4882 -0.4220
vn 0.0971 0.2531 -0.9626
vn 0.5764 -0.2867 0.7652
vn 0.8127 -0.5446 -0.2072
vn 0.3810 -0.8419 -0.3822
vn 0.5035 -0.8481 -0.1653
vn 0.6501 -0.7170 0.2516
vn 0.2887 0.6188 -0.7306
vn 0.2006 0.0592 -0.9779
vn 0.2748 0.8816 -0.3839
vn 0.0012 0.7534 0.6576
vn 0.0595 -0.7584 0.6490
vn -0.4537 -0.7287 -0.5130
vn -0.0343 -0.9104 -0.4124
vn 0.5017 -0.7015 -0.5061
vn 0.1365 -0.7055 -0.6955
vn -0.5457 -0.8294 -0.1196
vn -0.4148 -0.6398 -0.6470
vn -0.8664 -0.4993 -0.0006
vn 0.4121 -0.6635 0.6244
vn -0.0622 -0.8829 0.4654
vn -0.4439 -0.8231 0.3541
vn 0.1895 -0.9745 0.1205
vn -0.4640 -0.8808 0.0946
vn -0.1470 -0.2617 -0.9539
vn -0.5477 -0.5251 -0.6514
vn -0.0716 -0.8589 -0.5070
vn -0.3244 -0.9178 0.2290
vn 0.3690 0.8384 -0.4012
vn 0.2803 0.1330 -0.9507
vn 0.1937 0.9103 0.3659
vn 0.0703 0.4864 0.8709
vn 0.2667 -0.0641 0.9617
vn 0.3051 -0.3852 0.8709
vn 0.1703 -0.7679 0.6176
vn 0.1120 -0.6292 0.7691
vn 0.0523 -0.9539 0.2954
vn 0.2207 -0.9743 -0.0448
vn 0.2231 0.1998 -0.9541
vn 0.3917 -0.4583 -0.7979
vn 0.6583 0.2607 -0.7062
vn 0.2678 -0.8120 -0.5185
vn 0.4907 -0.5589 -0.6685
vn 0.4928 0.8656 -0.0890
vn -0.3050 0.9490 -0.0797
vn -0.4848 0.8679 0.1085
vn -0.5169 0.6883 0.5091
vn 0.2105 0.0190 0.9774
vn 0.2260 -0.4122 0.8826
vn 0.1555 -0.8153 0.5578
vn 0.1288 -0.7933 0.5950
vn -0.1394 -0.7196 0.6803
vn -0.5217 -0.8418 -0.1387
vn -0.4259 -0.8996 -0.0961
vn -0.7550 -0.6554 0.0224
vn 0.0577 -0.9749 -0.2153
vn 0.2537 -0.8636 -0.4357
vn -0.3793 -0.1655 -0.9103
vn 0.3142 0.5333 -0.7854
vn -0.6036 0.4604 -0.6509
vn 0.0108 -0.8233 -0.5675
vn -0.0756 -0.7421 -0.6660
vn 0.5066 0.7874 -0.3513
vn -0.6132 0.6822 -0.3982
vn -0.8174 0.1734 0.5493
vn -0.6016 0.6085 0.5175
vn -0.7428 0.3114 0.5926
vn -0.1450 -0.3806 0.9133
vn -0.9675 0.0015 0.2529
vn -0.8484 -0.3632 0.3851
vn -0.9769 -0.2052 -0.0603
vn -0.8752 -0.3160 -0.3663
vn -0.5754 -0.6978 -0.4266
vn 0.0329 -0.9243 -0.3804
vn -0.6390 -0.2786 -0.7170
s 1
usemtl Default_OBJ.038
f 1//1 2//2 3//3
f 3//3 4//4 1//1
f 5//5 6//6 1//1
f 2//2 1//1 6//6
f 4//4 7//7 1//1
f 8//8 5//5 1//1
f 7//7 8//8 1//1
f 9//9 10//10 2//2
f 10//10 3//3 2//2
f 9//9 2//2 6//6
f 11//11 12//12 3//3
f 10//10 11//11 3//3
f 12//12 13//13 3//3
f 13//13 4//4 3//3
f 13//13 14//14 4//4
f 14//14 15//15 4//4
f 7//7 4//4 15//15
f 5//5 16//16 6//6
f 8//8 16//16 5//5
f 17//17 9//9 6//6
f 16//16 17//17 6//6
f 7//7 15//15 18//18
f 18//18 19//19 7//7
f 20//20 7//7 19//19
f 8//8 7//7 20//20
f 21//21 22//22 8//8
f 20//20 21//21 8//8
f 22//22 16//16 8//8
f 23//23 9//9 17//17
f 10//10 9//9 23//23
f 10//10 24//24 11//11
f 24//24 10//10 23//23
f 11//11 24//24 25//25
f 25//25 12//12 11//11
f 13//13 12//12 26//26
f 12//12 25//25 26//26
f 13//13 27//27 28//28
f 14//14 13//13 28//28
f 13//13 29//29 27//27
f 13//13 26//26 29//29
f 28//28 15//15 14//14
f 18//18 15//15 30//30
f 15//15 28//28 30//30
f 22//22 31//31 16//16
f 31//31 17//17 16//16
f 32//32 33//33 17//17
f 33//33 34//34 17//17
f 17//17 34//34 35//35
f 23//23 17//17 35//35
f 32//32 17//17 31//31
f 18//18 36//36 19//19
f 18//18 30//30 37//37
f 18//18 37//37 36//36
f 19//19 36//36 38//38
f 19//19 38//38 39//39
f 39//39 20//20 19//19
f 40//40 20//20 39//39
f 21//21 20//20 41//41
f 41//41 20//20 42//42
f 20//20 40//40 43//43
f 20//20 43//43 44//44
f 42//42 20//20 45//45
f 20//20 44//44 45//45
f 41//41 46//46 21//21
f 21//21 46//46 47//47
f 22//22 21//21 47//47
f 48//48 31//31 22//22
f 49//49 48//48 22//22
f 50//50 22//22 47//47
f 50//50 49//49 22//22
f 24//24 23//23 35//35
f 35//35 51//51 24//24
f 25//25 24//24 51//51
f 26//26 25//25 52//52
f 25//25 51//51 52//52
f 52//52 29//29 26//26
f 27//27 53//53 30//30
f 28//28 27//27 30//30
f 54//54 53//53 27//27
f 29//29 54//54 27//27
f 54//54 29//29 45//45
f 52//52 45//45 29//29
f 44//44 37//37 30//30
f 44//44 30//30 53//53
f 32//32 31//31 48//48
f 48//48 33//33 32//32
f 49//49 50//50 33//33
f 50//50 55//55 33//33
f 48//48 49//49 33//33
f 34//34 33//33 55//55
f 34//34 55//55 42//42
f 42//42 56//56 34//34
f 35//35 34//34 56//56
f 35//35 56//56 51//51
f 57//57 36//36 58//58
f 38//38 36//36 57//57
f 37//37 58//58 36//36
f 43//43 37//37 44//44
f 58//58 37//37 43//43
f 57//57 39//39 38//38
f 59//59 39//39 57//57
f 39//39 59//59 60//60
f 39//39 60//60 61//61
f 39//39 61//61 40//40
f 62//62 40//40 61//61
f 63//63 40//40 64//64
f 40//40 62//62 64//64
f 40//40 63//63 65//65
f 66//66 40//40 65//65
f 43//43 40//40 66//66
f 46//46 41//41 42//42
f 42//42 55//55 46//46
f 45//45 56//56 42//42
f 67//67 43//43 68//68
f 43//43 67//67 69//69
f 70//70 43//43 66//66
f 71//71 43//43 70//70
f 69//69 58//58 43//43
f 68//68 43//43 71//71
f 54//54 45//45 44//44
f 54//54 44//44 53//53
f 45//45 52//52 56//56
f 46//46 55//55 50//50
f 50//50 47//47 46//46
f 51//51 56//56 52//52
f 57//57 69//69 72//72
f 59//59 57//57 72//72
f 58//58 69//69 57//57
f 59//59 72//72 73//73
f 59//59 74//74 60//60
f 73//73 74//74 59//59
f 75//75 60//60 74//74
f 60//60 75//75 61//61
f 61//61 75//75 76//76
f 77//77 62//62 61//61
f 76//76 77//77 61//61
f 77//77 78//78 62//62
f 78//78 64//64 62//62
f 78//78 63//63 64//64
f 79//79 65//65 63//63
f 79//79 63//63 78//78
f 79//79 80//80 65//65
f 81//81 65//65 82//82
f 82//82 65//65 83//83
f 65//65 80//80 83//83
f 84//84 66//66 65//65
f 84//84 65//65 81//81
f 70//70 66//66 85//85
f 66//66 84//84 85//85
f 68//68 86//86 67//67
f 87//87 67//67 88//88
f 67//67 86//86 88//88
f 69//69 67//67 87//87
f 68//68 71//71 89//89
f 89//89 90//90 68//68
f 90//90 86//86 68//68
f 69//69 91//91 72//72
f 69//69 87//87 91//91
f 85//85 89//89 70//70
f 71//71 70//70 89//89
f 91//91 73//73 72//72
f 92//92 73//73 91//91
f 73//73 75//75 74//74
f 88//88 73//73 92//92
f 93//93 73//73 88//88
f 75//75 73//73 93//93
f 75//75 94//94 76//76
f 94//94 75//75 93//93
f 94//94 95//95 76//76
f 95//95 93//93 76//76
f 76//76 93//93 77//77
f 77//77 93//93 96//96
f 96//96 78//78 77//77
f 96//96 79//79 78//78
f 96//96 80//80 79//79
f 80//80 97//97 98//98
f 83//83 80//80 98//98
f 80//80 96//96 97//97
f 82//82 99//99 81//81
f 81//81 100//100 84//84
f 99//99 100//100 81//81
f 99//99 82//82 98//98
f 82//82 83//83 98//98
f 101//101 102//102 84//84
f 85//85 84//84 102//102
f 84//84 100//100 101//101
f 90//90 89//89 85//85
f 85//85 102//102 90//90
f 90//90 103//103 86//86
f 86//86 103//103 88//88
f 92//92 87//87 88//88
f 92//92 91//91 87//87
f 100//100 88//88 103//103
f 88//88 100//100 93//93
f 90//90 102//102 103//103
f 94//94 93//93 95//95
f 97//97 96//96 93//93
f 98//98 97//97 93//93
f 93//93 99//99 98//98
f 100//100 99//99 93//93
f 103//103 101//101 100//100
f 101//101 103//103 102//102
