# Blender 4.0.2
# www.blender.org
mtllib toe_5_mid_r.mtl
o toe_5_mid_r
v 0.007542 0.000397 -0.001761
v 0.008174 0.000689 -0.001475
v 0.006207 -0.002767 0.004030
v 0.006802 0.000720 -0.001892
v 0.007650 -0.001004 0.002667
v 0.008533 0.000913 -0.001031
v 0.006818 0.000204 0.004562
v 0.004826 -0.000452 0.004584
v 0.001610 -0.002992 0.001958
v 0.004169 -0.002359 0.003683
v 0.002109 -0.003040 0.001706
v 0.003530 -0.000659 -0.002772
v 0.005573 0.000221 -0.002110
v 0.006322 0.000370 -0.001894
v 0.004198 -0.001029 0.004336
v 0.007633 0.002597 0.000760
v 0.005830 0.003466 -0.000247
v 0.005796 0.003106 -0.000603
v 0.004332 0.002713 -0.000530
v 0.006806 0.000675 0.003992
v 0.004229 -0.000013 0.004225
v 0.000796 0.001413 0.003860
v -0.000328 -0.001821 0.002691
v 0.000939 -0.003503 0.001443
v 0.000073 -0.002719 0.002054
v 0.003836 -0.000394 0.004074
v 0.001881 -0.001158 -0.003112
v 0.002319 -0.000263 -0.003535
v 0.003548 0.000109 -0.002582
v 0.005297 0.003178 -0.000033
v 0.004750 0.001458 0.002819
v 0.004251 0.003094 0.000456
v 0.002433 0.003757 -0.000222
v 0.002289 0.002300 -0.002434
v 0.001818 0.003614 0.001029
v -0.001042 0.002032 0.003398
v 0.001081 0.003288 0.001298
v -0.000926 0.001663 0.003769
v -0.001162 0.001069 0.003447
v -0.000302 0.000876 0.001641
v 0.000075 -0.002496 0.001191
v 0.000326 -0.001940 0.000619
v 0.000441 -0.001241 -0.000750
v 0.001074 0.001673 -0.002845
v 0.000790 -0.000779 -0.002202
v 0.000530 0.003777 0.000419
v 0.001440 0.003823 -0.001720
v 0.001190 0.003946 -0.000770
v -0.000644 0.002989 0.001638
v -0.000128 0.003650 -0.000534
v 0.000925 -0.000696 -0.001482
v 0.000664 0.004049 -0.000601
vn 0.2436 -0.4875 -0.8385
vn 0.6675 0.0013 -0.7446
vn 0.3758 -0.7973 0.4724
vn 0.1658 0.0110 -0.9861
vn 0.9292 -0.3338 0.1584
vn 0.9030 0.1585 -0.3992
vn 0.4602 0.3441 0.8184
vn -0.1512 0.1382 0.9788
vn -0.0432 -0.7211 0.6915
vn -0.3164 -0.5366 0.7823
vn 0.2221 -0.9718 -0.0791
vn 0.4660 -0.4630 -0.7540
vn 0.3791 -0.1463 -0.9137
vn 0.2868 -0.3529 -0.8906
vn -0.5030 -0.2133 0.8376
vn 0.6704 0.7292 0.1371
vn 0.0148 0.9747 -0.2232
vn 0.0725 0.6633 -0.7448
vn 0.1447 0.7587 -0.6352
vn 0.4764 0.6543 0.5873
vn -0.4621 0.5093 0.7261
vn 0.0078 0.2981 0.9545
vn -0.6991 -0.4542 0.5523
vn -0.1825 -0.9823 0.0430
vn -0.6147 -0.6884 0.3852
vn -0.3412 0.1255 0.9316
vn -0.2076 -0.6382 -0.7413
vn 0.0576 -0.0594 -0.9966
vn 0.3986 0.3444 -0.8500
vn -0.2432 0.9683 0.0572
vn 0.0496 0.7583 0.6501
vn 0.2199 0.9574 0.1874
vn 0.2974 0.9511 -0.0833
vn 0.3602 0.5034 -0.7854
vn -0.0925 0.9543 0.2840
vn -0.6646 0.6237 0.4114
vn -0.0612 0.8739 0.4823
vn -0.4136 0.2440 0.8771
vn -0.9128 -0.2265 0.3398
vn -0.9423 -0.1250 -0.3107
vn -0.8700 -0.3559 -0.3412
vn -0.9874 0.1507 -0.0486
vn -0.8682 -0.2982 -0.3966
vn -0.5362 0.2110 -0.8173
vn -0.9029 -0.2473 -0.3516
vn -0.1227 0.9414 0.3143
vn 0.0446 0.8031 -0.5942
vn 0.0107 0.9981 -0.0615
vn -0.7874 0.6054 0.1167
vn -0.7971 0.5355 -0.2791
vn -0.9390 0.2799 -0.1997
vn -0.1471 0.9160 -0.3732
s 1
usemtl Default_OBJ.033
f 1//1 2//2 3//3
f 2//2 1//1 4//4
f 4//4 1//1 3//3
f 2//2 5//5 3//3
f 6//6 2//2 4//4
f 2//2 6//6 5//5
f 5//5 7//7 3//3
f 7//7 8//8 3//3
f 9//9 3//3 10//10
f 3//3 9//9 11//11
f 3//3 11//11 12//12
f 13//13 3//3 12//12
f 13//13 14//14 3//3
f 4//4 3//3 14//14
f 3//3 8//8 15//15
f 15//15 10//10 3//3
f 16//16 4//4 17//17
f 16//16 6//6 4//4
f 18//18 17//17 4//4
f 4//4 14//14 19//19
f 19//19 18//18 4//4
f 5//5 20//20 7//7
f 20//20 5//5 6//6
f 20//20 6//6 16//16
f 20//20 8//8 7//7
f 8//8 20//20 21//21
f 15//15 8//8 21//21
f 22//22 23//23 9//9
f 24//24 11//11 9//9
f 22//22 9//9 10//10
f 25//25 24//24 9//9
f 23//23 25//25 9//9
f 10//10 15//15 26//26
f 26//26 22//22 10//10
f 12//12 11//11 24//24
f 24//24 27//27 12//12
f 12//12 27//27 28//28
f 29//29 13//13 12//12
f 12//12 28//28 29//29
f 14//14 13//13 19//19
f 29//29 19//19 13//13
f 26//26 15//15 21//21
f 20//20 16//16 17//17
f 30//30 17//17 18//18
f 17//17 31//31 20//20
f 17//17 30//30 31//31
f 32//32 30//30 18//18
f 32//32 18//18 19//19
f 33//33 32//32 19//19
f 19//19 34//34 33//33
f 34//34 19//19 29//29
f 20//20 31//31 21//21
f 31//31 26//26 21//21
f 31//31 35//35 22//22
f 26//26 31//31 22//22
f 36//36 22//22 37//37
f 35//35 37//37 22//22
f 38//38 22//22 36//36
f 38//38 23//23 22//22
f 23//23 38//38 39//39
f 40//40 23//23 39//39
f 41//41 25//25 23//23
f 23//23 42//42 41//41
f 23//23 40//40 43//43
f 42//42 23//23 43//43
f 24//24 25//25 41//41
f 43//43 24//24 41//41
f 24//24 43//43 27//27
f 28//28 27//27 44//44
f 45//45 27//27 43//43
f 44//44 27//27 45//45
f 29//29 28//28 34//34
f 34//34 28//28 44//44
f 30//30 32//32 31//31
f 35//35 31//31 32//32
f 32//32 33//33 35//35
f 33//33 46//46 37//37
f 47//47 33//33 34//34
f 37//37 35//35 33//33
f 47//47 48//48 33//33
f 48//48 46//46 33//33
f 34//34 44//44 47//47
f 37//37 49//49 36//36
f 38//38 36//36 39//39
f 39//39 36//36 49//49
f 46//46 49//49 37//37
f 49//49 40//40 39//39
f 40//40 49//49 50//50
f 40//40 50//50 43//43
f 43//43 41//41 42//42
f 43//43 50//50 51//51
f 45//45 43//43 51//51
f 51//51 44//44 45//45
f 44//44 51//51 50//50
f 44//44 50//50 47//47
f 48//48 52//52 46//46
f 52//52 49//49 46//46
f 48//48 47//47 50//50
f 50//50 52//52 48//48
f 50//50 49//49 52//52
