# Blender 4.0.2
# www.blender.org
mtllib toe_3_prox_l.mtl
o toe_3_prox_l
v 0.025477 0.002748 -0.000029
v 0.025965 0.004961 -0.000428
v 0.025218 0.005591 -0.000132
v 0.023986 0.005874 0.000585
v 0.025844 0.005096 -0.002526
v 0.023735 0.004987 -0.006996
v 0.015971 0.006875 -0.002573
v 0.021572 0.005068 -0.006820
v 0.025977 0.003090 -0.000809
v 0.026248 0.003403 -0.001884
v 0.023421 0.001233 0.000782
v 0.025141 0.001788 0.000097
v 0.022099 0.001723 0.001020
v 0.021828 0.005533 0.000492
v 0.021506 0.006072 0.000072
v 0.024344 0.003772 -0.008129
v 0.025115 0.003354 -0.005437
v 0.015324 0.006040 0.000994
v 0.009154 0.007692 -0.001574
v 0.015218 0.003131 -0.004086
v 0.022161 0.003073 -0.008051
v 0.018612 0.002150 -0.005345
v 0.026060 0.002705 -0.001550
v 0.024683 0.000643 -0.000782
v 0.022797 0.000226 0.000090
v 0.021870 0.000414 0.000370
v 0.021390 0.004523 0.000679
v 0.020675 0.004377 0.000871
v 0.021312 0.001007 0.000342
v 0.020161 0.005379 0.000768
v 0.024313 0.002037 -0.007969
v 0.022606 -0.000538 -0.005265
v 0.024153 0.000527 -0.006136
v 0.023039 0.001125 -0.004198
v 0.025103 0.001011 -0.002291
v 0.007426 0.007154 0.002763
v 0.015448 0.005289 0.001263
v 0.005602 0.008382 0.002172
v 0.005078 0.008533 0.000310
v 0.002840 0.001777 0.001269
v 0.019567 0.001599 -0.004369
v 0.022392 0.001040 -0.003904
v 0.001671 0.001389 0.004940
v 0.015594 0.004039 0.000885
v 0.020765 0.002225 -0.001561
v 0.020431 0.000222 -0.004585
v 0.019060 0.000969 -0.005322
v 0.023780 0.000284 -0.007274
v 0.022129 -0.000662 -0.006346
v 0.021117 -0.000519 -0.005935
v 0.023739 0.000065 -0.001293
v 0.022039 0.000223 -0.000536
v 0.020062 0.004236 0.000492
v 0.020520 0.003128 0.000213
v 0.021644 -0.000496 -0.004940
v 0.022485 0.000908 -0.002929
v 0.005164 0.004225 0.004067
v 0.001840 0.009091 0.002674
v 0.001065 0.009262 0.001342
v 0.000644 0.008848 0.000796
v -0.001958 0.004818 0.000119
v -0.002262 0.002043 0.000546
v -0.001461 0.001470 0.001127
v -0.002969 0.000729 0.001554
v -0.004008 -0.000092 0.002111
v -0.001227 0.000341 0.004758
v -0.001098 0.001562 0.007812
v -0.001133 0.006259 0.008051
v 0.001052 0.006130 0.005674
v -0.000807 0.000596 0.006781
v -0.000580 0.001343 0.007131
v -0.000701 0.010263 0.003365
v -0.001552 0.010580 0.003409
v -0.002899 0.010073 0.000985
v -0.003434 0.009572 0.000193
v -0.003500 0.006241 -0.000764
v -0.003207 0.001845 0.000064
v -0.003339 0.000871 0.000947
v -0.003788 0.000674 0.001365
v -0.005475 0.000598 0.000894
v -0.005745 0.000191 0.002463
v -0.005927 0.000435 0.003279
v -0.006012 0.000256 0.001779
v -0.003408 -0.000013 0.005490
v -0.003201 0.000703 0.006516
v -0.003468 0.001964 0.008272
v -0.001834 0.008071 0.007136
v -0.000962 0.008455 0.007172
v -0.002353 0.000962 0.007212
v -0.003734 0.000992 0.007308
v -0.000839 0.010074 0.005257
v -0.001674 0.009949 0.005625
v -0.005481 0.004322 0.000038
v -0.004296 0.008379 -0.000469
v -0.004624 0.007605 -0.000630
v -0.005177 0.001544 0.000179
v -0.006207 0.000856 0.001164
v -0.006283 0.001666 0.000636
v -0.006396 0.000862 0.002757
v -0.005915 0.000886 0.005405
v -0.003818 0.000098 0.006380
v -0.005109 0.000674 0.006320
v -0.004776 0.000952 0.006877
vn 0.6578 -0.0995 0.7466
vn 0.8166 0.3516 0.4578
vn 0.5177 0.7273 0.4506
vn 0.2600 0.6882 0.6773
vn 0.7465 0.6367 -0.1934
vn 0.2645 0.8580 -0.4403
vn -0.0607 0.9207 -0.3854
vn -0.2259 0.7386 -0.6352
vn 0.9178 -0.2062 0.3393
vn 0.9919 -0.0898 -0.0898
vn 0.3002 -0.3233 0.8974
vn 0.6761 -0.3639 0.6407
vn -0.1210 -0.1736 0.9774
vn -0.2203 0.3563 0.9080
vn 0.0086 0.8193 0.5733
vn 0.5148 0.3057 -0.8009
vn 0.9536 -0.2062 -0.2196
vn 0.1633 0.7460 0.6456
vn -0.1563 0.7469 -0.6463
vn -0.3864 -0.5789 -0.7181
vn -0.3443 0.0430 -0.9379
vn -0.6083 -0.4889 -0.6253
vn 0.9276 -0.3712 0.0433
vn 0.6201 -0.7301 0.2872
vn 0.1303 -0.8749 0.4664
vn -0.3817 -0.7528 0.5363
vn 0.1436 0.2074 0.9677
vn -0.1643 -0.0357 0.9858
vn -0.7640 -0.4880 0.4220
vn 0.0970 0.2528 0.9626
vn 0.5763 -0.2867 -0.7653
vn 0.3809 -0.8419 0.3822
vn 0.8126 -0.5448 0.2070
vn 0.5034 -0.8481 0.1652
vn 0.6501 -0.7170 -0.2516
vn 0.2887 0.6187 0.7307
vn 0.2006 0.0592 0.9779
vn 0.2748 0.8815 0.3841
vn 0.0012 0.7534 -0.6576
vn 0.0595 -0.7584 -0.6491
vn -0.4538 -0.7285 0.5132
vn -0.0345 -0.9103 0.4125
vn 0.5017 -0.7015 0.5062
vn 0.1365 -0.7054 0.6955
vn -0.5458 -0.8293 0.1197
vn -0.4149 -0.6397 0.6470
vn -0.8663 -0.4995 0.0005
vn 0.4117 -0.6637 -0.6245
vn -0.0622 -0.8829 -0.4654
vn -0.4439 -0.8231 -0.3541
vn 0.1894 -0.9745 -0.1207
vn -0.4641 -0.8807 -0.0946
vn -0.1472 -0.2616 0.9539
vn -0.5480 -0.5250 0.6512
vn -0.0715 -0.8589 0.5070
vn -0.3243 -0.9178 -0.2289
vn 0.2803 0.1332 0.9506
vn 0.3691 0.8384 0.4011
vn 0.1936 0.9103 -0.3660
vn 0.0703 0.4863 -0.8710
vn 0.2668 -0.0641 -0.9616
vn 0.3054 -0.3853 -0.8708
vn 0.1119 -0.6289 -0.7694
vn 0.1703 -0.7680 -0.6174
vn 0.0523 -0.9540 -0.2953
vn 0.2207 -0.9743 0.0448
vn 0.3917 -0.4582 0.7979
vn 0.2232 0.1997 0.9541
vn 0.6583 0.2607 0.7061
vn 0.2676 -0.8122 0.5184
vn 0.4909 -0.5585 0.6687
vn 0.4928 0.8656 0.0891
vn -0.3049 0.9490 0.0797
vn -0.4855 0.8675 -0.1079
vn -0.5169 0.6883 -0.5090
vn 0.2107 0.0190 -0.9774
vn 0.2262 -0.4123 -0.8825
vn 0.1557 -0.8152 -0.5578
vn 0.1288 -0.7933 -0.5950
vn -0.1393 -0.7196 -0.6803
vn -0.4259 -0.8997 0.0960
vn -0.5214 -0.8420 0.1386
vn -0.7555 -0.6547 -0.0219
vn 0.0577 -0.9749 0.2152
vn 0.2536 -0.8637 0.4356
vn -0.3793 -0.1655 0.9104
vn -0.6038 0.4603 0.6508
vn 0.3139 0.5333 0.7855
vn 0.0108 -0.8234 0.5674
vn -0.0756 -0.7422 0.6659
vn 0.5066 0.7874 0.3513
vn -0.6130 0.6824 0.3983
vn -0.8175 0.1734 -0.5492
vn -0.6019 0.6086 -0.5170
vn -0.7420 0.3112 -0.5937
vn -0.1450 -0.3805 -0.9133
vn -0.8483 -0.3633 -0.3852
vn -0.9675 0.0014 -0.2529
vn -0.9768 -0.2055 0.0602
vn -0.8752 -0.3160 0.3664
vn 0.0328 -0.9243 0.3803
vn -0.5754 -0.6978 0.4267
vn -0.6390 -0.2785 0.7170
s 1
f 1//1 2//2 3//3
f 3//3 4//4 1//1
f 3//3 5//5 6//6
f 5//5 3//3 2//2
f 3//3 7//7 4//4
f 3//3 6//6 8//8
f 3//3 8//8 7//7
f 2//2 9//9 10//10
f 2//2 1//1 9//9
f 5//5 2//2 10//10
f 1//1 11//11 12//12
f 1//1 12//12 9//9
f 1//1 13//13 11//11
f 1//1 4//4 13//13
f 4//4 14//14 13//13
f 4//4 15//15 14//14
f 15//15 4//4 7//7
f 5//5 16//16 6//6
f 6//6 16//16 8//8
f 5//5 10//10 17//17
f 5//5 17//17 16//16
f 18//18 15//15 7//7
f 7//7 19//19 18//18
f 19//19 7//7 20//20
f 20//20 7//7 8//8
f 8//8 21//21 22//22
f 8//8 22//22 20//20
f 8//8 16//16 21//21
f 17//17 10//10 23//23
f 23//23 10//10 9//9
f 12//12 24//24 9//9
f 23//23 9//9 24//24
f 25//25 24//24 12//12
f 12//12 11//11 25//25
f 26//26 11//11 13//13
f 26//26 25//25 11//11
f 27//27 28//28 13//13
f 27//27 13//13 14//14
f 28//28 29//29 13//13
f 29//29 26//26 13//13
f 14//14 15//15 27//27
f 30//30 15//15 18//18
f 30//30 27//27 15//15
f 16//16 31//31 21//21
f 16//16 17//17 31//31
f 17//17 32//32 33//33
f 17//17 34//34 32//32
f 35//35 34//34 17//17
f 35//35 17//17 23//23
f 31//31 17//17 33//33
f 19//19 36//36 18//18
f 37//37 30//30 18//18
f 36//36 37//37 18//18
f 38//38 36//36 19//19
f 39//39 38//38 19//19
f 19//19 20//20 39//39
f 39//39 20//20 40//40
f 41//41 20//20 22//22
f 42//42 20//20 41//41
f 43//43 40//40 20//20
f 44//44 43//43 20//20
f 45//45 20//20 42//42
f 45//45 44//44 20//20
f 22//22 46//46 41//41
f 47//47 46//46 22//22
f 47//47 22//22 21//21
f 21//21 31//31 48//48
f 21//21 48//48 49//49
f 47//47 21//21 50//50
f 21//21 49//49 50//50
f 35//35 23//23 24//24
f 24//24 51//51 35//35
f 51//51 24//24 25//25
f 52//52 25//25 26//26
f 52//52 51//51 25//25
f 26//26 29//29 52//52
f 30//30 53//53 28//28
f 30//30 28//28 27//27
f 28//28 53//53 54//54
f 28//28 54//54 29//29
f 45//45 29//29 54//54
f 29//29 45//45 52//52
f 30//30 37//37 44//44
f 53//53 30//30 44//44
f 48//48 31//31 33//33
f 33//33 32//32 48//48
f 32//32 50//50 49//49
f 32//32 55//55 50//50
f 32//32 49//49 48//48
f 55//55 32//32 34//34
f 42//42 55//55 34//34
f 34//34 56//56 42//42
f 56//56 34//34 35//35
f 51//51 56//56 35//35
f 57//57 36//36 58//58
f 58//58 36//36 38//38
f 36//36 57//57 37//37
f 44//44 37//37 43//43
f 43//43 37//37 57//57
f 38//38 39//39 58//58
f 58//58 39//39 59//59
f 60//60 59//59 39//39
f 61//61 60//60 39//39
f 40//40 61//61 39//39
f 61//61 40//40 62//62
f 63//63 40//40 64//64
f 63//63 62//62 40//40
f 65//65 64//64 40//40
f 65//65 40//40 66//66
f 66//66 40//40 43//43
f 42//42 41//41 46//46
f 46//46 55//55 42//42
f 42//42 56//56 45//45
f 67//67 43//43 68//68
f 69//69 68//68 43//43
f 66//66 43//43 70//70
f 70//70 43//43 71//71
f 43//43 57//57 69//69
f 71//71 43//43 67//67
f 44//44 45//45 54//54
f 53//53 44//44 54//54
f 56//56 52//52 45//45
f 50//50 55//55 46//46
f 46//46 47//47 50//50
f 52//52 56//56 51//51
f 72//72 69//69 58//58
f 72//72 58//58 59//59
f 58//58 69//69 57//57
f 73//73 72//72 59//59
f 60//60 74//74 59//59
f 59//59 74//74 73//73
f 74//74 60//60 75//75
f 61//61 75//75 60//60
f 76//76 75//75 61//61
f 61//61 62//62 77//77
f 61//61 77//77 76//76
f 62//62 78//78 77//77
f 62//62 63//63 78//78
f 63//63 64//64 78//78
f 64//64 65//65 79//79
f 78//78 64//64 79//79
f 65//65 80//80 79//79
f 81//81 65//65 82//82
f 83//83 65//65 81//81
f 83//83 80//80 65//65
f 65//65 66//66 84//84
f 82//82 65//65 84//84
f 85//85 66//66 70//70
f 85//85 84//84 66//66
f 68//68 86//86 67//67
f 87//87 68//68 88//88
f 87//87 86//86 68//68
f 88//88 68//68 69//69
f 89//89 71//71 67//67
f 67//67 90//90 89//89
f 67//67 86//86 90//90
f 72//72 91//91 69//69
f 91//91 88//88 69//69
f 70//70 89//89 85//85
f 89//89 70//70 71//71
f 72//72 73//73 91//91
f 91//91 73//73 92//92
f 74//74 75//75 73//73
f 92//92 73//73 87//87
f 87//87 73//73 93//93
f 93//93 73//73 75//75
f 76//76 94//94 75//75
f 93//93 75//75 94//94
f 76//76 95//95 94//94
f 76//76 93//93 95//95
f 77//77 93//93 76//76
f 96//96 93//93 77//77
f 77//77 78//78 96//96
f 78//78 79//79 96//96
f 79//79 80//80 96//96
f 97//97 98//98 80//80
f 97//97 80//80 83//83
f 98//98 96//96 80//80
f 82//82 99//99 81//81
f 84//84 100//100 82//82
f 82//82 100//100 99//99
f 97//97 81//81 99//99
f 97//97 83//83 81//81
f 84//84 101//101 102//102
f 101//101 84//84 85//85
f 102//102 100//100 84//84
f 85//85 89//89 90//90
f 90//90 101//101 85//85
f 86//86 103//103 90//90
f 87//87 103//103 86//86
f 87//87 88//88 92//92
f 88//88 91//91 92//92
f 103//103 87//87 100//100
f 93//93 100//100 87//87
f 103//103 101//101 90//90
f 95//95 93//93 94//94
f 93//93 96//96 98//98
f 93//93 98//98 97//97
f 97//97 99//99 93//93
f 93//93 99//99 100//100
f 100//100 102//102 103//103
f 101//101 103//103 102//102
