# Blender 4.0.2
# www.blender.org
mtllib toe_2_mid_l.mtl
o toe_2_mid_l
v 0.012119 0.002397 0.000524
v 0.008779 0.001839 0.001122
v 0.011508 -0.000433 0.000973
v 0.012506 0.000601 0.000868
v 0.009868 0.000584 0.001218
v 0.010391 -0.000486 0.001122
v 0.010095 -0.000701 -0.002359
v 0.012249 0.000341 -0.003069
v 0.012483 0.000073 0.000643
v 0.008800 0.000916 0.001191
v 0.009046 0.002789 0.000741
v 0.008210 0.002493 0.000526
v 0.011866 0.003185 0.000049
v 0.009411 0.003113 0.000520
v 0.012968 0.002706 0.000118
v 0.013424 0.001436 -0.000138
v 0.009143 0.000702 0.000781
v 0.008970 0.000447 0.000005
v 0.004090 -0.000256 -0.004906
v 0.008556 -0.000229 -0.005142
v 0.009695 -0.000853 -0.005819
v 0.010774 -0.000756 -0.006045
v 0.007756 0.000176 -0.005483
v 0.012524 0.000299 -0.004538
v 0.012344 0.002434 -0.003658
v 0.008278 0.000838 0.000704
v 0.006435 0.002369 0.000117
v 0.007550 0.001841 0.000549
v 0.006880 0.002857 -0.000627
v 0.002823 0.002880 -0.004260
v 0.008496 0.001049 -0.005903
v 0.011580 0.002038 -0.005946
v 0.012832 0.002842 -0.001199
v 0.000302 -0.001468 -0.003998
v 0.004590 0.001534 -0.005029
v 0.003938 -0.000457 0.001021
v 0.005836 0.000095 0.000449
v 0.008659 -0.000088 -0.005660
v 0.011792 -0.000205 -0.006105
v 0.012570 0.001374 -0.005874
v 0.012698 0.001998 -0.005074
v 0.005219 0.000373 0.000905
v 0.006403 0.001352 0.000660
v 0.005102 0.002973 -0.001003
v 0.005966 0.001865 0.000617
v 0.003381 0.001587 0.001567
v 0.001414 0.003687 -0.000137
v -0.000296 0.003578 -0.003154
v 0.000102 0.003843 -0.001368
v -0.000574 0.002242 -0.004197
v -0.001011 0.000637 -0.004350
v -0.001132 -0.000657 -0.003788
v -0.000860 -0.001257 -0.003019
v -0.000797 -0.001401 -0.002177
v 0.001842 -0.001337 -0.000615
v 0.000777 -0.001621 0.001706
v 0.001981 -0.000793 0.003071
v 0.001806 0.002713 0.002647
v -0.000156 0.003626 0.000166
v 0.002547 0.001440 0.003001
v -0.000780 0.003539 -0.001252
v -0.001422 0.002764 -0.002490
v -0.001268 0.002420 -0.003380
v -0.000101 -0.000762 -0.001483
v 0.000008 0.000807 -0.001109
v -0.000715 -0.001666 -0.000578
v -0.000785 -0.001301 -0.001489
v -0.000275 -0.000912 -0.000909
v -0.000034 -0.000759 0.002395
v -0.000511 -0.001554 0.000354
v 0.000816 0.000220 0.003427
v 0.001723 -0.000135 0.003458
v 0.000250 0.002330 0.002271
v 0.000933 0.000956 0.003412
v 0.000063 -0.000429 -0.000941
v -0.000654 -0.001421 -0.000135
v 0.000049 -0.000749 -0.000265
vn 0.1997 0.3533 0.9139
vn -0.2980 0.1975 0.9339
vn 0.3132 -0.6813 0.6616
vn 0.4455 -0.0458 0.8941
vn -0.0285 -0.0145 0.9995
vn -0.1938 -0.7044 0.6829
vn 0.0402 -0.9961 0.0781
vn 0.7944 -0.6063 -0.0367
vn 0.6709 -0.6502 0.3567
vn -0.3585 -0.4275 0.8299
vn -0.1869 0.5892 0.7860
vn -0.3582 0.4978 0.7899
vn 0.1437 0.9267 0.3471
vn -0.0329 0.8968 0.4412
vn 0.6667 0.5801 0.4679
vn 0.9765 -0.1017 0.1898
vn -0.4004 -0.8319 0.3843
vn -0.3896 -0.8736 0.2916
vn -0.0521 -0.6815 -0.7300
vn -0.4738 -0.8794 -0.0476
vn -0.2565 -0.8018 -0.5397
vn 0.1731 -0.7382 -0.6520
vn -0.1494 -0.6998 -0.6986
vn 0.8540 -0.5172 0.0573
vn 0.6512 0.7410 -0.1639
vn -0.2541 -0.6281 0.7355
vn 0.0164 0.7273 0.6862
vn -0.0976 0.2344 0.9672
vn -0.1547 0.9245 0.3485
vn -0.0769 0.7084 -0.7016
vn -0.1575 0.4162 -0.8955
vn 0.0406 0.6848 -0.7276
vn 0.6516 0.7378 -0.1764
vn -0.0737 -0.8092 -0.5828
vn -0.1859 0.1566 -0.9700
vn 0.4924 -0.7306 0.4730
vn 0.2741 -0.9060 0.3225
vn -0.4213 -0.5562 -0.7163
vn 0.4765 -0.5347 -0.6979
vn 0.7355 0.1055 -0.6693
vn 0.8283 0.5344 -0.1683
vn 0.2820 -0.2595 0.9237
vn 0.0432 0.3004 0.9528
vn 0.1425 0.9874 0.0689
vn 0.2779 0.3772 0.8835
vn 0.5708 0.3801 0.7278
vn 0.1805 0.9681 0.1740
vn -0.2704 0.8600 -0.4327
vn -0.0659 0.9972 -0.0346
vn -0.3694 0.4080 -0.8349
vn -0.7603 -0.1044 -0.6411
vn -0.9432 -0.2255 -0.2440
vn -0.8572 -0.5143 0.0280
vn -0.9052 -0.4231 0.0410
vn 0.3304 -0.9389 -0.0963
vn -0.0432 -0.9475 0.3168
vn 0.3486 -0.6308 0.6932
vn 0.2200 0.7407 0.6348
vn -0.4978 0.7940 0.3489
vn 0.6237 0.2016 0.7552
vn -0.7151 0.6817 0.1548
vn -0.9754 0.2197 0.0164
vn -0.8560 0.3103 -0.4134
vn -0.8994 0.4083 0.1563
vn -0.9512 -0.2060 0.2296
vn -0.6706 -0.7417 0.0147
vn -0.8940 0.4480 -0.0098
vn -0.7260 0.6826 0.0836
vn -0.7893 -0.3536 0.5019
vn -0.8782 -0.3741 0.2980
vn -0.4717 -0.1368 0.8711
vn 0.2044 -0.2591 0.9440
vn -0.7315 0.4065 0.5474
vn -0.3444 0.2280 0.9107
vn -0.9678 0.2117 0.1363
vn -0.9022 0.3399 0.2654
vn -0.9216 0.3799 0.0796
s 1
f 1//1 2//2 3//3
f 4//4 1//1 3//3
f 3//3 2//2 5//5
f 6//6 7//7 3//3
f 7//7 8//8 3//3
f 9//9 3//3 8//8
f 6//6 3//3 5//5
f 3//3 9//9 4//4
f 5//5 2//2 10//10
f 2//2 1//1 11//11
f 2//2 11//11 12//12
f 10//10 2//2 12//12
f 13//13 14//14 1//1
f 1//1 15//15 13//13
f 1//1 4//4 15//15
f 1//1 14//14 11//11
f 15//15 4//4 16//16
f 16//16 4//4 9//9
f 10//10 17//17 5//5
f 5//5 17//17 6//6
f 18//18 19//19 7//7
f 7//7 20//20 21//21
f 7//7 21//21 22//22
f 23//23 20//20 7//7
f 7//7 19//19 23//23
f 8//8 7//7 22//22
f 18//18 7//7 6//6
f 18//18 6//6 17//17
f 8//8 22//22 24//24
f 8//8 16//16 9//9
f 24//24 25//25 8//8
f 16//16 8//8 25//25
f 12//12 26//26 10//10
f 10//10 26//26 18//18
f 10//10 18//18 17//17
f 12//12 11//11 14//14
f 27//27 28//28 12//12
f 12//12 14//14 29//29
f 27//27 12//12 29//29
f 26//26 12//12 28//28
f 13//13 25//25 14//14
f 30//30 29//29 14//14
f 30//30 14//14 31//31
f 32//32 31//31 14//14
f 14//14 25//25 32//32
f 15//15 33//33 13//13
f 25//25 13//13 33//33
f 33//33 15//15 16//16
f 33//33 16//16 25//25
f 19//19 34//34 35//35
f 31//31 23//23 19//19
f 19//19 35//35 31//31
f 19//19 36//36 34//34
f 26//26 37//37 19//19
f 19//19 37//37 36//36
f 18//18 26//26 19//19
f 31//31 22//22 21//21
f 20//20 38//38 21//21
f 31//31 21//21 38//38
f 20//20 23//23 38//38
f 24//24 22//22 39//39
f 22//22 31//31 39//39
f 31//31 38//38 23//23
f 40//40 24//24 39//39
f 40//40 41//41 24//24
f 41//41 25//25 24//24
f 25//25 41//41 32//32
f 42//42 26//26 28//28
f 37//37 26//26 42//42
f 27//27 43//43 28//28
f 42//42 28//28 43//43
f 44//44 27//27 29//29
f 27//27 45//45 43//43
f 46//46 27//27 47//47
f 27//27 46//46 45//45
f 44//44 47//47 27//27
f 44//44 29//29 30//30
f 47//47 44//44 30//30
f 30//30 31//31 35//35
f 30//30 48//48 49//49
f 48//48 30//30 35//35
f 30//30 49//49 47//47
f 31//31 32//32 39//39
f 41//41 40//40 32//32
f 40//40 39//39 32//32
f 35//35 50//50 48//48
f 50//50 35//35 51//51
f 51//51 35//35 34//34
f 51//51 34//34 52//52
f 53//53 52//52 34//34
f 34//34 54//54 53//53
f 55//55 54//54 34//34
f 34//34 36//36 55//55
f 36//36 56//56 55//55
f 56//56 36//36 57//57
f 42//42 36//36 37//37
f 46//46 57//57 36//36
f 46//46 36//36 42//42
f 45//45 46//46 42//42
f 42//42 43//43 45//45
f 46//46 47//47 58//58
f 47//47 49//49 59//59
f 58//58 47//47 59//59
f 60//60 57//57 46//46
f 58//58 60//60 46//46
f 61//61 49//49 48//48
f 59//59 49//49 61//61
f 62//62 61//61 48//48
f 62//62 48//48 63//63
f 63//63 48//48 50//50
f 63//63 50//50 51//51
f 51//51 62//62 63//63
f 51//51 52//52 53//53
f 53//53 64//64 51//51
f 65//65 62//62 51//51
f 51//51 64//64 65//65
f 64//64 53//53 54//54
f 54//54 55//55 66//66
f 67//67 54//54 66//66
f 67//67 68//68 54//54
f 64//64 54//54 68//68
f 56//56 66//66 55//55
f 57//57 69//69 56//56
f 70//70 66//66 56//56
f 56//56 69//69 70//70
f 69//69 57//57 71//71
f 57//57 72//72 71//71
f 60//60 72//72 57//57
f 73//73 58//58 59//59
f 58//58 73//73 74//74
f 58//58 74//74 60//60
f 59//59 61//61 73//73
f 60//60 74//74 72//72
f 62//62 73//73 61//61
f 62//62 65//65 73//73
f 64//64 75//75 65//65
f 75//75 64//64 68//68
f 65//65 75//75 73//73
f 66//66 76//76 67//67
f 76//76 66//66 70//70
f 76//76 68//68 67//67
f 75//75 68//68 77//77
f 68//68 76//76 77//77
f 74//74 73//73 69//69
f 71//71 74//74 69//69
f 69//69 73//73 75//75
f 70//70 69//69 77//77
f 77//77 69//69 75//75
f 77//77 76//76 70//70
f 71//71 72//72 74//74
