# Blender 4.0.2
# www.blender.org
mtllib toe_4_dist_l.mtl
o toe_4_dist_l
v 0.002597 0.000964 -0.000791
v 0.006171 0.000445 -0.002956
v 0.001236 0.001714 -0.000824
v 0.003554 0.000770 -0.002919
v 0.001730 0.001840 0.000121
v 0.000901 0.000614 -0.003112
v -0.000183 0.001486 -0.000971
v 0.000680 0.001967 0.000540
v 0.004653 -0.000792 -0.000343
v 0.005074 -0.000479 -0.000560
v 0.006191 0.000376 -0.001258
v 0.006589 0.000564 -0.001911
v 0.005875 0.000107 -0.000955
v 0.006536 0.000532 -0.002558
v 0.005328 0.000167 -0.004226
v 0.005776 -0.000118 -0.004752
v 0.002919 -0.000591 0.000343
v 0.002361 -0.000267 -0.003386
v 0.001232 0.001784 0.001476
v 0.001175 0.001408 0.001981
v 0.001246 0.002040 0.000933
v 0.001333 0.000359 0.002332
v 0.002092 -0.001303 -0.003253
v 0.001771 -0.002097 -0.002893
v -0.000582 0.000271 -0.003553
v -0.000640 0.001162 -0.001980
v -0.000311 0.000034 -0.001677
v 0.004885 -0.001067 -0.000949
v 0.006449 -0.000099 -0.001379
v 0.002685 -0.001241 0.000179
v 0.002735 -0.001892 -0.003024
v 0.005678 -0.000533 -0.005104
v 0.005238 -0.001070 -0.005414
v 0.003825 -0.001241 -0.004380
v 0.001258 -0.001255 0.001583
v 0.001343 -0.000856 0.001919
v 0.003282 -0.001522 -0.004028
v 0.003451 -0.001922 -0.003590
v -0.000947 -0.001595 -0.002633
v 0.000310 -0.002647 -0.002024
v -0.000562 -0.002333 -0.001634
v 0.004967 -0.001064 -0.002828
v 0.004800 -0.001129 -0.005665
v 0.003831 -0.001807 -0.004883
v 0.003711 -0.002059 -0.004125
v 0.004244 -0.001731 -0.005172
vn 0.5648 0.7005 0.4362
vn 0.0613 0.9883 -0.1398
vn 0.0846 0.9578 -0.2747
vn -0.0287 0.8483 -0.5288
vn 0.5634 0.8252 0.0398
vn 0.0301 0.5906 -0.8064
vn -0.7498 0.6586 0.0632
vn -0.5816 0.7911 0.1896
vn 0.5135 -0.2105 0.8319
vn 0.0381 0.4168 0.9082
vn 0.3327 0.3932 0.8571
vn 0.6629 0.7245 0.1889
vn -0.4363 -0.1411 -0.8886
vn 0.7612 0.6093 -0.2221
vn -0.1006 0.8401 -0.5330
vn 0.4253 0.6220 -0.6574
vn 0.6263 0.0645 0.7769
vn -0.2463 0.2292 -0.9417
vn 0.2543 0.7891 0.5591
vn -0.0802 0.4544 0.8872
vn 0.2103 0.9475 0.2409
vn -0.0511 0.1085 0.9928
vn -0.3921 -0.2649 -0.8809
vn 0.0938 -0.8211 -0.5630
vn -0.5579 0.2919 -0.7769
vn -0.7885 0.6106 -0.0746
vn -0.9433 -0.0119 0.3319
vn 0.3607 -0.8675 0.3425
vn 0.8122 -0.1933 0.5504
vn 0.4247 -0.7612 0.4901
vn 0.0010 -0.9761 -0.2173
vn 0.5938 0.0924 -0.7993
vn -0.2031 -0.4578 -0.8655
vn -0.5130 0.4542 -0.7283
vn -0.2337 -0.6853 0.6898
vn -0.1353 -0.4598 0.8777
vn -0.6891 -0.2986 -0.6603
vn -0.1306 -0.9904 0.0457
vn -0.8694 -0.3263 -0.3710
vn -0.0611 -0.9815 -0.1815
vn -0.7454 -0.6266 0.2275
vn 0.4629 -0.8836 0.0701
vn 0.3137 -0.1008 0.9442
vn -0.6180 -0.3471 -0.7054
vn -0.1451 -0.9870 -0.0686
vn 0.0954 -0.7746 -0.6253
s 1
f 1//1 2//2 3//3
f 2//2 4//4 3//3
f 3//3 5//5 1//1
f 3//3 4//4 6//6
f 6//6 7//7 3//3
f 8//8 3//3 7//7
f 8//8 5//5 3//3
f 2//2 9//9 10//10
f 11//11 12//12 2//2
f 13//13 11//11 2//2
f 2//2 12//12 14//14
f 9//9 2//2 1//1
f 2//2 10//10 13//13
f 2//2 15//15 4//4
f 2//2 14//14 16//16
f 16//16 15//15 2//2
f 1//1 5//5 17//17
f 17//17 9//9 1//1
f 18//18 4//4 15//15
f 4//4 18//18 6//6
f 5//5 19//19 20//20
f 5//5 21//21 19//19
f 22//22 5//5 20//20
f 5//5 22//22 17//17
f 21//21 5//5 8//8
f 18//18 23//23 6//6
f 6//6 24//24 25//25
f 6//6 26//26 7//7
f 26//26 6//6 25//25
f 24//24 6//6 23//23
f 27//27 7//7 26//26
f 7//7 22//22 8//8
f 22//22 7//7 27//27
f 19//19 21//21 8//8
f 20//20 8//8 22//22
f 19//19 8//8 20//20
f 9//9 28//28 10//10
f 11//11 13//13 10//10
f 11//11 10//10 12//12
f 10//10 29//29 12//12
f 29//29 10//10 28//28
f 9//9 17//17 30//30
f 9//9 30//30 31//31
f 28//28 9//9 31//31
f 29//29 14//14 12//12
f 14//14 32//32 16//16
f 32//32 14//14 33//33
f 29//29 33//33 14//14
f 15//15 16//16 32//32
f 15//15 32//32 33//33
f 34//34 15//15 33//33
f 34//34 18//18 15//15
f 17//17 35//35 30//30
f 17//17 36//36 35//35
f 36//36 17//17 22//22
f 23//23 18//18 34//34
f 35//35 36//36 22//22
f 35//35 22//22 27//27
f 37//37 23//23 34//34
f 23//23 31//31 24//24
f 38//38 31//31 23//23
f 38//38 23//23 37//37
f 24//24 39//39 25//25
f 27//27 25//25 39//39
f 27//27 26//26 25//25
f 31//31 30//30 24//24
f 24//24 40//40 39//39
f 30//30 40//40 24//24
f 39//39 41//41 27//27
f 41//41 35//35 27//27
f 31//31 42//42 28//28
f 28//28 42//42 29//29
f 33//33 29//29 42//42
f 35//35 40//40 30//30
f 31//31 38//38 42//42
f 33//33 42//42 43//43
f 43//43 44//44 33//33
f 33//33 44//44 34//34
f 34//34 44//44 37//37
f 35//35 41//41 40//40
f 45//45 38//38 37//37
f 45//45 37//37 44//44
f 38//38 45//45 42//42
f 40//40 41//41 39//39
f 42//42 45//45 46//46
f 43//43 42//42 46//46
f 43//43 46//46 44//44
f 45//45 44//44 46//46
