# Blender 4.0.2
# www.blender.org
mtllib lumbar4.mtl
o lumbar4.002
v -0.027821 0.032447 0.039175
v -0.028942 0.028612 0.041346
v -0.028937 0.024787 0.041088
v -0.029004 0.026769 0.041994
v -0.029370 0.025846 0.041571
v -0.028923 0.028466 0.041347
v -0.029714 0.029975 0.039755
v -0.029993 0.025022 0.039826
v -0.022065 0.022645 0.034395
v -0.024714 0.031716 0.034194
v -0.024642 0.031691 0.033517
v -0.020146 0.020010 0.028132
v -0.025401 0.022531 0.031783
v -0.024249 0.030398 0.026970
v -0.023248 0.019629 0.027679
v -0.025838 0.022087 0.028632
v -0.025822 0.023529 0.029128
v -0.027595 0.022878 0.027484
v -0.015158 0.021767 0.023849
v -0.016695 0.024081 0.024214
v -0.020394 0.029588 0.022020
v -0.016474 0.020727 0.023903
v -0.025793 0.023575 0.029077
v -0.030009 0.025499 0.023517
v -0.027878 0.024735 0.027067
v -0.030533 0.027539 0.025685
v -0.037486 0.031444 0.026309
v 0.001300 0.013783 0.022955
v 0.003495 0.009695 0.022223
v 0.010308 0.009139 0.017617
v -0.007529 0.011548 0.023112
v -0.007577 0.010429 0.022079
v -0.007517 0.011544 0.023031
v -0.010848 0.020112 0.021887
v -0.013554 0.021460 0.023174
v -0.014022 0.020961 0.022904
v -0.025919 0.032221 0.022730
v -0.017935 0.020185 0.024481
v -0.030370 0.027080 0.025893
v -0.032419 0.012379 0.022081
v -0.040755 0.029537 0.022693
v -0.032623 0.012109 0.022498
v -0.035053 0.010363 0.023652
v -0.037324 0.009484 0.023187
v -0.036479 -0.000386 0.022722
v -0.039252 0.003589 0.024372
v -0.039323 0.003469 0.024181
v 0.011990 0.035091 0.017689
v 0.003771 0.028480 0.018116
v -0.003810 0.034848 0.021400
v -0.007949 0.034162 0.021348
v -0.012563 0.036084 0.018690
v -0.012819 0.029926 0.020305
v -0.009358 0.018669 0.021499
v -0.012642 0.011961 0.018250
v -0.018150 0.020204 0.019280
v -0.021728 0.022482 0.020253
v -0.030359 0.040164 0.018633
v -0.037657 0.035803 0.021561
v -0.032758 -0.000095 0.018863
v -0.037134 0.005212 0.015878
v 0.010155 0.026546 0.016571
v 0.015606 0.009523 0.013729
v -0.011858 0.019938 0.017414
v -0.015184 0.021566 0.016043
v -0.009262 0.012532 0.022198
v -0.028284 0.040132 0.017292
v -0.022563 0.019822 0.017566
v -0.023741 0.023522 0.019618
v -0.030790 0.039749 0.018681
v -0.029381 0.023335 0.018153
v -0.028627 0.040720 0.017287
v -0.029606 0.017517 0.017458
v -0.030199 0.023514 0.017448
v -0.034519 0.026546 0.018246
v -0.037051 0.035915 0.019086
v -0.030172 0.013922 0.019857
v -0.039072 0.032101 0.018290
v -0.029098 0.003647 0.015384
v -0.030783 0.001711 0.016899
v -0.030553 0.001589 0.016711
v -0.030892 0.002469 0.016183
v -0.032688 0.005039 0.016276
v -0.032384 0.005510 0.016365
v 0.001616 0.010918 0.010693
v -0.013561 0.036914 0.015553
v -0.018086 0.033709 0.015034
v -0.018251 0.033124 0.014576
v -0.016090 0.011591 0.011402
v -0.018389 0.021423 0.016083
v -0.022835 0.018555 0.016203
v -0.029396 0.021439 0.015355
v -0.030112 0.023726 0.017206
v -0.028026 0.007766 0.015055
v -0.028524 0.009501 0.014330
v -0.027634 0.008059 0.014746
v -0.029404 0.003837 0.015230
v -0.029412 0.003836 0.015215
v -0.035173 0.004283 0.014943
v -0.037772 0.005188 0.015722
v 0.017977 0.034864 0.009449
v -0.013844 0.036705 0.013520
v -0.018193 0.033768 0.013549
v -0.018760 0.032986 0.011633
v -0.018392 0.026297 0.011964
v -0.018359 0.021367 0.016030
v -0.020134 0.032230 0.012126
v -0.025991 0.039576 0.012869
v -0.025510 0.037542 0.011492
v -0.015504 0.011683 0.013197
v -0.020789 0.023362 0.012066
v -0.025181 0.028790 0.009374
v -0.024376 0.017499 0.012596
v -0.026300 0.022487 0.011649
v -0.031377 0.018935 0.010478
v -0.028059 0.012696 0.012241
v -0.031021 0.009513 0.013258
v -0.032534 0.005993 0.009598
v 0.018768 0.037640 0.000099
v 0.018382 0.009909 0.008318
v -0.016199 0.037032 0.009720
v -0.015585 0.024701 0.008578
v -0.018785 0.030919 0.010949
v -0.018648 0.032842 0.011507
v -0.014965 0.011049 0.002798
v -0.018228 0.025606 0.011813
v -0.024830 0.036301 0.011401
v -0.024846 0.036335 0.011417
v -0.025470 0.037525 0.011521
v -0.025821 0.032352 0.011242
v -0.025932 0.035246 0.011907
v -0.040609 0.007926 0.009181
v 0.019934 0.008969 0.001137
v -0.016492 0.036723 0.007553
v -0.016756 0.011888 0.004374
v -0.026330 0.026774 0.007347
v -0.027828 0.025763 0.006534
v -0.029619 0.023704 0.004730
v -0.028955 0.024827 0.005465
v -0.029029 0.025056 0.006069
v -0.039549 0.006857 0.004343
v -0.045249 0.010791 0.003532
v -0.042558 0.007586 0.005035
v 0.019842 0.009102 0.000679
v -0.014996 0.036257 0.002490
v -0.016502 0.036758 0.007520
v -0.007546 0.011238 -0.003185
v -0.014482 0.023995 -0.001567
v -0.029026 0.024801 0.005411
v -0.031351 0.024257 0.004066
v -0.037514 0.024828 -0.000297
v -0.041005 0.004825 0.003011
v -0.053984 -0.000857 0.003915
v -0.054790 -0.000789 0.004064
v -0.056964 0.000194 0.001864
v 0.020439 0.034378 -0.000377
v 0.001984 0.013842 -0.000379
v -0.033158 0.023734 -0.000035
v -0.033199 0.024705 0.001124
v -0.033713 0.024347 0.000085
v -0.033165 0.019280 -0.000521
v -0.038061 0.007541 0.002435
v -0.040255 0.004580 -0.001029
v -0.047422 0.016837 -0.000170
v -0.051064 0.015568 -0.000256
v -0.056159 0.012240 0.001429
v -0.050515 -0.004719 -0.000626
v -0.058474 0.009505 -0.000417
v -0.013433 0.036613 -0.003348
v -0.016462 0.011729 -0.006165
v -0.033361 0.023685 -0.000109
v -0.045913 0.017580 -0.000274
v -0.042315 0.004624 -0.004066
v -0.056760 0.012094 -0.001924
v -0.055009 -0.001641 -0.004427
v 0.019380 0.008662 -0.004450
v -0.031480 0.024410 -0.004601
v -0.032024 0.024590 -0.003999
v -0.036925 0.006991 -0.005495
v -0.043444 0.008692 -0.005637
v -0.015245 0.023255 -0.010967
v -0.016769 0.011622 -0.010297
v -0.026271 0.026487 -0.008056
v -0.027601 0.025345 -0.007013
v -0.029120 0.024846 -0.006472
v -0.030706 0.019331 -0.011728
v -0.028864 0.012050 -0.012029
v -0.032102 0.006271 -0.010545
v -0.040313 0.007796 -0.010406
v 0.016494 0.035500 -0.013514
v 0.014458 0.025837 -0.013187
v -0.016399 0.037019 -0.007923
v -0.018593 0.030716 -0.011347
v -0.015261 0.012194 -0.013728
v -0.024637 0.029772 -0.010608
v -0.025433 0.028867 -0.010600
v -0.022760 0.019826 -0.012809
v -0.025772 0.023367 -0.012866
v -0.025850 0.027888 -0.011311
v -0.034687 0.005598 -0.013778
v 0.008675 0.009122 -0.019594
v 0.014296 0.010053 -0.016638
v -0.018213 0.032862 -0.012751
v -0.018591 0.024341 -0.013211
v -0.021123 0.030598 -0.011897
v -0.019955 0.032098 -0.012495
v -0.022065 0.033981 -0.012668
v -0.025441 0.037768 -0.012212
v -0.021937 0.024074 -0.011961
v -0.020733 0.027203 -0.012027
v -0.025571 0.038024 -0.012364
v -0.029490 0.009804 -0.015003
v 0.010959 0.035301 -0.018659
v -0.002647 0.034718 -0.022101
v 0.000903 0.009692 -0.022675
v -0.018264 0.034157 -0.014634
v -0.011643 0.035956 -0.020164
v -0.020049 0.033936 -0.015697
v -0.022028 0.035170 -0.015209
v -0.026326 0.039811 -0.014211
v -0.019765 0.020926 -0.016206
v -0.027794 0.040174 -0.016976
v -0.027558 0.008731 -0.015651
v -0.028562 0.005271 -0.015912
v -0.029627 0.005462 -0.016515
v -0.032741 0.006670 -0.015951
v 0.007074 0.029920 -0.018785
v 0.003630 0.027805 -0.018633
v 0.002484 0.013067 -0.023448
v -0.011153 0.020025 -0.019286
v -0.025913 0.032522 -0.023162
v -0.019925 0.021595 -0.020466
v -0.029520 0.039875 -0.018500
v -0.029356 0.039942 -0.018734
v -0.024892 0.016949 -0.016921
v -0.028919 0.023175 -0.018424
v -0.030815 0.025151 -0.018348
v -0.024900 0.016037 -0.017710
v -0.029612 0.021943 -0.017829
v -0.029246 0.019606 -0.017796
v -0.030190 0.024089 -0.018871
v -0.029402 0.023709 -0.019256
v -0.030915 0.015453 -0.018881
v -0.033893 0.026009 -0.018920
v -0.030827 0.001805 -0.017847
v -0.033331 -0.000365 -0.021029
v -0.029644 0.003462 -0.016460
v -0.036766 0.004071 -0.018160
v -0.033401 -0.000178 -0.020939
v -0.037168 0.010016 -0.023669
v -0.012504 0.029584 -0.021218
v -0.008631 0.018641 -0.022309
v -0.008230 0.010910 -0.023792
v -0.012773 0.020744 -0.023006
v -0.021390 0.030541 -0.022474
v -0.031092 0.039448 -0.019633
v -0.032155 0.038998 -0.019850
v -0.029217 0.025546 -0.023111
v -0.038992 0.034633 -0.019889
v -0.032143 0.012746 -0.022614
v -0.033661 0.026027 -0.019061
v -0.038535 0.027212 -0.023199
v -0.040813 0.030540 -0.023125
v -0.032228 0.012794 -0.022829
v -0.035882 -0.000157 -0.023232
v -0.011370 0.020854 -0.022966
v -0.014160 0.020901 -0.023159
v -0.015527 0.021950 -0.024522
v -0.014308 0.020896 -0.023245
v -0.021236 0.019453 -0.028252
v -0.032512 0.037165 -0.022075
v -0.038813 0.034942 -0.023328
v -0.035003 0.010626 -0.024272
v -0.038627 0.002514 -0.024843
v -0.039040 0.004203 -0.024296
v -0.039051 0.003614 -0.024527
v -0.024769 0.030200 -0.026865
v -0.027056 0.022109 -0.027479
v -0.028037 0.026360 -0.027156
v -0.029983 0.027174 -0.026429
v -0.030416 0.026551 -0.025921
v -0.030432 0.026582 -0.025906
v -0.030729 0.027454 -0.026241
v -0.037484 0.032052 -0.026817
v -0.024134 0.031243 -0.032126
v -0.025878 0.023167 -0.029770
v -0.028126 0.023779 -0.028019
v -0.025787 0.023164 -0.029713
v -0.024808 0.031034 -0.032797
v -0.024697 0.030995 -0.032031
v -0.025408 0.022435 -0.033331
v -0.025451 0.022405 -0.033339
v -0.025909 0.022746 -0.033969
v -0.023179 0.023882 -0.037829
v -0.024210 0.031482 -0.032207
v -0.023717 0.024029 -0.038483
v -0.025666 0.031554 -0.035861
v -0.027149 0.031964 -0.039738
v -0.027128 0.032003 -0.039828
v -0.027619 0.032250 -0.039092
v -0.028445 0.032045 -0.040422
v -0.028672 0.031244 -0.041531
v -0.029798 0.024743 -0.041220
v -0.027838 0.025509 -0.042178
v -0.029730 0.028344 0.039969
v -0.020197 0.020209 0.028103
v -0.027019 0.022267 0.027683
v -0.007573 0.010490 0.022062
v -0.007517 0.011544 0.023031
v -0.009206 0.012561 0.022156
v -0.016501 0.020776 0.023853
v -0.004743 0.034645 0.021030
v -0.017483 0.021605 0.019569
v -0.021728 0.022482 0.020253
v -0.033905 -0.000310 0.020808
v -0.029792 0.002557 0.015945
v 0.014954 0.009594 0.013939
v -0.026068 0.039615 0.013043
v -0.026221 0.027045 0.007646
v -0.039488 0.006392 0.004397
v -0.039488 0.006392 0.004397
v -0.027302 0.025527 -0.007136
v -0.018591 0.030717 -0.011365
v -0.018401 0.032944 -0.012633
v -0.018401 0.032944 -0.012633
v -0.018664 0.024537 -0.013402
v -0.021112 0.030606 -0.011945
v -0.019955 0.032098 -0.012495
v -0.019955 0.032098 -0.012495
v -0.019955 0.032098 -0.012495
v -0.021937 0.024074 -0.011961
v -0.018146 0.033927 -0.014342
v -0.020049 0.033936 -0.015697
v -0.020049 0.033936 -0.015697
v -0.029667 0.009620 -0.015085
v -0.029534 0.022755 -0.018091
v -0.030754 0.001454 -0.017696
v -0.034834 -0.000161 -0.022652
v -0.011348 0.020869 -0.023078
v -0.030431 0.026574 -0.025912
vn -0.1243 0.1616 0.9790
vn 0.6899 -0.4103 0.5964
vn -0.0417 0.9410 0.3359
vn -0.2169 0.3432 0.9139
vn -0.9293 -0.0922 -0.3576
vn -0.0589 -0.7523 0.6562
vn 0.0560 -0.9869 0.1514
vn -0.9069 -0.0637 0.4166
vn -0.8852 -0.4651 -0.0109
vn -0.8892 0.1058 0.4451
vn -0.9096 0.4068 0.0846
vn -0.8088 -0.5869 0.0375
vn -0.9033 0.2134 -0.3723
vn 0.8598 0.3444 0.3770
vn -0.2617 -0.9651 -0.0000
vn 0.5402 -0.6504 0.5340
vn 0.5313 -0.1862 0.8265
vn 0.6765 0.5449 0.4954
vn 0.4567 0.7291 0.5098
vn -0.9955 0.0909 0.0266
vn -0.9159 0.2266 0.3313
vn -0.7260 -0.5600 0.3992
vn -0.8069 -0.4166 0.4187
vn -0.6408 0.1962 0.7422
vn 0.5885 -0.6797 0.4378
vn -0.5170 0.8481 0.1164
vn 0.1313 -0.9892 -0.0652
vn 0.2637 0.6751 0.6890
vn -0.5934 -0.7840 -0.1823
vn -0.7067 -0.6915 0.1500
vn -0.2103 -0.9611 -0.1791
vn -0.4740 -0.6503 0.5936
vn 0.2372 0.4383 0.8670
vn -0.3756 0.1150 0.9196
vn 0.1755 0.1144 0.9778
vn -0.1111 0.1685 0.9794
vn 0.2541 -0.6488 0.7173
vn -0.0939 -0.9438 0.3168
vn 0.4140 -0.6318 0.6553
vn -0.0527 -0.6467 0.7609
vn -0.6128 -0.5106 0.6032
vn -0.6097 -0.5084 0.6081
vn -0.4910 -0.8069 0.3282
vn -0.6178 -0.5141 0.5950
vn -0.3438 -0.0401 0.9382
vn 0.5100 0.2897 0.8100
vn -0.5390 -0.3508 -0.7658
vn -0.1477 -0.9604 0.2361
vn -0.9245 -0.3315 0.1879
vn -0.4368 -0.8628 0.2545
vn -0.6268 0.7251 0.2853
vn 0.7525 -0.2563 0.6067
vn 0.6989 -0.3135 0.6428
vn 0.1357 0.4279 0.8936
vn -0.7144 0.4661 0.5220
vn -0.2513 0.7412 0.6224
vn -0.1205 -0.8842 0.4512
vn -0.4683 0.1855 0.8639
vn 0.3230 -0.9124 -0.2515
vn 0.4858 -0.7103 0.5094
vn -0.9888 0.0199 -0.1480
vn 0.4778 0.4781 0.7370
vn 0.1227 0.4050 0.9061
vn 0.1941 -0.0129 0.9809
vn 0.7656 0.1466 0.6264
vn 0.5300 -0.0101 0.8479
vn -0.0406 0.2579 0.9653
vn -0.3157 0.7773 0.5442
vn -0.0923 0.2644 0.9600
vn -0.0515 0.7645 0.6425
vn -0.6313 0.0986 0.7692
vn -0.1756 -0.9157 -0.3616
vn -0.7969 -0.5779 0.1763
vn 0.0727 -0.9900 -0.1211
vn -0.4606 -0.8850 -0.0675
vn -0.0316 -0.7054 0.7081
vn -0.2682 -0.6417 0.7185
vn -0.0334 -0.5780 0.8153
vn -0.3546 -0.8425 0.4056
vn 0.2203 0.6696 0.7093
vn -0.4750 -0.6978 0.5361
vn 0.5835 0.0772 0.8084
vn -0.5009 0.5220 0.6904
vn -0.4713 -0.4376 -0.7658
vn -0.6750 0.0769 -0.7338
vn 0.8035 -0.4137 0.4280
vn -0.4844 -0.8720 -0.0712
vn 0.8267 -0.4369 0.3544
vn 0.5391 0.8422 0.0103
vn -0.6698 0.6760 0.3074
vn -0.2298 -0.9716 0.0564
vn 0.5493 -0.7319 -0.4033
vn -0.1790 0.9833 0.0325
vn 0.6108 -0.7546 0.2398
vn 0.5330 0.6518 0.5395
vn -0.7162 0.1235 -0.6869
vn -0.4676 0.1778 -0.8659
vn -0.5813 0.6103 -0.5381
vn -0.8806 -0.1638 -0.4446
vn 0.7948 -0.1652 0.5839
vn 0.8020 -0.2055 0.5609
vn -0.3191 -0.4761 -0.8195
vn -0.0414 -0.5377 -0.8421
vn 0.0372 -0.3571 -0.9333
vn 0.0606 -0.9927 0.1038
vn -0.6888 -0.6097 0.3922
vn 0.7966 0.4130 0.4413
vn 0.8901 -0.4328 0.1429
vn 0.2088 -0.9695 0.1285
vn -0.7086 0.7027 -0.0641
vn 0.8174 0.5638 -0.1181
vn -0.6630 0.7288 0.1710
vn -0.0716 -0.9912 -0.1116
vn -0.9648 -0.1832 -0.1885
vn -0.5138 -0.8387 -0.1804
vn 0.7174 -0.4998 -0.4853
vn 0.9294 -0.2981 -0.2175
vn 0.5676 -0.3031 -0.7655
vn -0.7257 0.0980 -0.6810
vn -0.8550 0.0922 -0.5103
vn -0.9483 0.2789 -0.1517
vn 0.1601 -0.2069 -0.9652
vn 0.1727 -0.3430 -0.9233
vn 0.4016 -0.5851 -0.7045
vn 0.5179 -0.5434 -0.6607
vn 0.8303 -0.5389 -0.1421
vn 0.8209 -0.3654 -0.4389
vn 0.1570 -0.2239 -0.9619
vn -0.8793 -0.2853 0.3813
vn -0.3605 0.9316 0.0468
vn -0.8815 0.4719 0.0181
vn 0.5509 0.7797 -0.2976
vn -0.9096 0.1339 0.3933
vn 0.1886 -0.2643 -0.9458
vn -0.7389 -0.4847 -0.4680
vn 0.4578 0.4633 -0.7588
vn 0.2068 0.3441 -0.9159
vn 0.3146 0.9307 0.1865
vn 0.6596 0.7478 -0.0753
vn -0.8195 0.1853 -0.5423
vn -0.8000 0.1414 -0.5831
vn -0.8825 0.4690 -0.0341
vn -0.1271 0.3822 -0.9153
vn -0.6761 0.6165 0.4036
vn 0.6216 -0.7226 -0.3025
vn 0.0208 0.9997 0.0097
vn 0.0401 -0.9990 0.0195
vn -0.8718 0.0515 -0.4871
vn -0.9733 -0.0289 -0.2276
vn 0.1417 0.2013 -0.9692
vn 0.6782 0.4090 -0.6106
vn -0.2039 0.7588 -0.6186
vn -0.5326 0.7164 0.4506
vn 0.6530 0.0256 -0.7569
vn -0.5051 0.8630 -0.0084
vn -0.3891 0.2109 0.8967
vn -0.1255 -0.9875 -0.0951
vn 0.9864 0.1639 -0.0128
vn 0.7048 -0.6885 -0.1709
vn -0.7217 0.6334 -0.2792
vn -0.8661 -0.4577 -0.2010
vn 0.6574 0.0904 -0.7481
vn -0.1246 0.7347 -0.6668
vn 0.4177 0.2855 -0.8626
vn 0.5733 0.4990 -0.6499
vn 0.5005 0.6858 -0.5283
vn 0.7281 -0.6377 -0.2515
vn -0.6339 -0.6887 0.3520
vn 0.9808 0.1878 -0.0528
vn 0.0010 -0.9990 -0.0437
vn -0.9998 0.0216 0.0017
vn 0.5131 0.2352 -0.8255
vn 0.4226 0.8929 -0.1553
vn 0.9613 -0.2454 0.1256
vn 0.6879 -0.7121 0.1405
vn 0.3718 -0.7123 0.5954
vn 0.6901 -0.7229 -0.0330
vn -0.0774 -0.6172 0.7830
vn 0.1490 -0.9886 -0.0223
vn -0.0436 -0.3742 0.9263
vn -0.3862 -0.8494 0.3597
vn -0.8386 -0.3505 0.4170
vn 0.1397 0.9773 -0.1594
vn -0.2536 0.5034 0.8260
vn -0.2676 0.3573 -0.8948
vn -0.5434 0.5277 0.6529
vn -0.3751 0.9265 0.0311
vn -0.9868 0.1613 0.0139
vn -0.6062 0.5528 -0.5718
vn -0.7594 -0.6503 0.0195
vn 0.9515 0.0132 0.3074
vn -0.3470 0.8139 -0.4661
vn 0.4583 -0.8564 0.2379
vn 0.1973 -0.5930 -0.7806
vn -0.4669 -0.5047 -0.7261
vn 0.7216 0.4936 -0.4855
vn 0.2781 -0.7896 -0.5470
vn -0.6308 0.7667 0.1193
vn -0.9497 -0.2760 0.1478
vn -0.1396 -0.9902 -0.0101
vn -0.1329 0.9869 0.0910
vn 0.6697 -0.1739 0.7220
vn -0.7085 0.6163 -0.3439
vn 0.7486 -0.5313 0.3967
vn -0.5178 -0.2483 -0.8187
vn -0.9015 -0.3573 -0.2442
vn 0.8010 -0.0455 -0.5970
vn 0.0916 0.4940 -0.8646
vn -0.5859 -0.1182 0.8017
vn 0.4692 0.2667 0.8418
vn -0.4980 0.7996 -0.3356
vn 0.0352 0.6688 0.7426
vn -0.9399 0.3242 0.1073
vn 0.6550 -0.7301 0.1946
vn 0.6721 -0.4378 -0.5971
vn -0.9589 0.2371 0.1562
vn 0.0626 -0.7981 -0.5992
vn -0.8646 -0.2470 -0.4375
vn 0.7386 -0.4388 0.5118
vn 0.5609 -0.1618 0.8119
vn -0.1401 0.2488 0.9584
vn -0.7812 0.6167 -0.0972
vn -0.9048 0.4096 -0.1167
vn 0.4158 -0.9029 0.1092
vn -0.6725 -0.6453 0.3624
vn 0.3827 0.5276 -0.7584
vn -0.4652 0.8051 -0.3680
vn -0.2674 0.7380 -0.6196
vn -0.2069 0.4891 0.8474
vn -0.1960 0.4978 0.8449
vn -0.2061 0.4897 0.8472
vn -0.1408 -0.6582 0.7396
vn 0.2282 -0.1436 0.9630
vn 0.4156 -0.1409 0.8986
vn 0.1618 0.1001 0.9817
vn -0.2166 0.4811 0.8495
vn 0.5645 0.5282 0.6343
vn 0.0102 0.4780 0.8783
vn 0.1537 0.2601 0.9533
vn -0.0617 0.8725 0.4847
vn -0.9114 -0.0157 0.4111
vn 0.3023 -0.6851 0.6627
vn 0.4139 -0.8478 0.3316
vn -0.9897 -0.0189 -0.1420
vn 0.4188 -0.5750 0.7028
vn 0.6730 -0.3420 0.6558
vn 0.0640 -0.3133 0.9475
vn 0.3218 -0.1203 -0.9391
vn 0.2595 -0.0044 -0.9657
vn -0.2233 -0.9603 0.1672
vn -0.3905 0.7934 0.4669
vn -0.3650 0.8102 0.4586
vn -0.3485 0.8205 0.4531
vn 0.5753 0.7284 0.3721
vn 0.5962 0.7037 0.3864
vn -0.3087 0.8437 0.4392
vn -0.4054 -0.5195 -0.7522
vn -0.3300 -0.0027 -0.9440
vn 0.6473 0.7593 -0.0669
vn 0.7182 -0.6152 0.3251
vn -0.5959 -0.2701 0.7563
vn 0.7173 -0.3181 -0.6200
vn 0.7575 -0.2227 -0.6137
vn -0.6276 0.0534 -0.7767
vn -0.1401 -0.4123 0.9002
vn 0.2812 -0.6785 0.6787
vn -0.7251 0.4511 -0.5203
vn -0.0052 0.0670 -0.9977
vn -0.1139 -0.9919 -0.0557
vn -0.0949 -0.8817 -0.4622
vn -0.0228 0.2546 -0.9668
vn 0.4365 0.7513 -0.4950
vn 0.2732 0.8404 -0.4681
vn -0.0954 -0.9867 -0.1319
vn 0.2972 0.6727 -0.6776
vn 0.1713 0.9781 -0.1185
vn -0.6103 0.2585 0.7488
vn 0.4008 0.6365 -0.6590
vn -0.2482 -0.6367 -0.7301
vn -0.9237 -0.2125 -0.3188
vn -0.6863 -0.6647 -0.2952
vn -0.4837 -0.7517 -0.4483
vn -0.2157 -0.9672 -0.1345
vn 0.7790 -0.0548 -0.6246
vn -0.2613 0.7515 -0.6058
vn 0.8269 -0.2365 -0.5102
vn 0.7468 -0.0286 -0.6645
vn -0.3714 -0.6960 0.6145
vn -0.0092 -0.4252 -0.9050
vn 0.6082 0.6521 -0.4526
vn 0.0754 -0.9571 -0.2798
vn 0.0548 -0.9909 -0.1227
vn -0.0351 0.7251 -0.6877
vn -0.1630 0.7741 -0.6117
vn -0.4166 -0.9028 -0.1067
vn -0.4895 0.7825 0.3848
vn -0.6781 0.4235 0.6006
vn -0.3226 -0.6014 0.7309
vn -0.5947 0.7292 -0.3386
vn -0.0971 0.8360 -0.5400
vn -0.6324 -0.7600 -0.1496
vn -0.9810 -0.1882 -0.0471
vn 0.1186 0.3701 -0.9214
vn 0.6127 -0.0499 -0.7888
vn -0.1932 -0.8210 -0.5372
vn -0.9752 0.1215 -0.1848
vn -0.4068 -0.0779 -0.9102
vn 0.6264 0.0818 -0.7752
vn -0.6480 0.7349 -0.2002
vn -0.6884 -0.5878 -0.4251
vn -0.3242 0.1611 -0.9322
vn 0.2580 0.0879 -0.9621
vn 0.2622 0.9562 0.1304
vn -0.6384 -0.7696 0.0117
vn 0.0258 0.3898 -0.9205
vn -0.2828 0.3664 -0.8865
vn -0.4144 -0.5314 -0.7388
vn 0.0610 0.3696 -0.9272
vn -0.7402 -0.1072 -0.6637
vn -0.9019 -0.3813 -0.2028
vn 0.7622 -0.3149 -0.5656
vn -0.9905 0.1164 0.0729
vn -0.9084 0.3984 0.1270
vn -0.7531 0.3527 -0.5554
vn -0.9095 -0.4109 0.0632
vn -0.9700 -0.1680 -0.1760
vn -0.8533 0.4148 0.3158
vn -0.7592 0.1944 0.6212
vn -0.8629 -0.2667 0.4293
vn -0.4034 0.8755 0.2661
vn 0.1264 -0.8913 -0.4355
vn -0.7994 -0.5002 -0.3327
vn -0.0351 0.9990 -0.0259
vn 0.1837 -0.3064 -0.9340
vn 0.7134 0.4672 -0.5223
vn -0.3503 0.4929 -0.7965
vn 0.3536 0.9232 -0.1509
vn -0.4956 0.8471 -0.1920
s 1
usemtl mtl1.1045
f 4//1 9//2 1//3
f 1//3 2//4 4//1
f 4//1 2//4 6//5
f 3//6 9//2 4//1
f 12//7 9//2 3//6
f 3//6 5//8 8//9
f 5//8 4//1 6//5
f 5//8 2//4 305//10
f 2//4 7//11 305//10
f 8//9 12//7 3//6
f 305//10 8//9 5//8
f 2//4 1//3 7//11
f 13//12 7//11 11//13
f 13//12 8//9 7//11
f 12//7 8//9 13//12
f 9//2 10//14 1//3
f 11//13 7//11 1//3
f 15//15 12//7 13//12
f 22//16 19//17 9//2
f 19//17 20//18 9//2
f 21//19 10//14 9//2
f 20//18 21//19 9//2
f 13//12 11//13 17//20
f 23//21 17//20 11//13
f 15//15 13//12 16//22
f 16//22 13//12 17//20
f 23//21 18//23 16//22
f 15//15 16//22 18//23
f 23//21 25//24 18//23
f 22//16 9//2 306//25
f 11//13 14//26 23//21
f 21//19 14//26 10//14
f 311//27 12//7 15//15
f 23//21 14//26 37//28
f 23//21 37//28 25//24
f 307//29 24//30 15//15
f 24//30 307//29 18//23
f 15//15 24//30 38//31
f 25//24 24//30 18//23
f 25//24 39//32 24//30
f 39//32 26//33 27//34
f 26//33 37//28 27//34
f 28//35 31//36 29//37
f 32//38 30//39 29//37
f 33//40 32//38 29//37
f 308//41 310//42 55//43
f 308//41 309//44 310//42
f 54//45 20//18 35//46
f 54//45 35//46 34//47
f 19//17 35//46 20//18
f 36//48 19//17 22//16
f 14//26 21//19 37//28
f 37//28 26//33 25//24
f 39//32 27//34 41//49
f 39//32 41//49 74//50
f 27//34 59//51 41//49
f 94//52 40//53 43//54
f 44//55 43//54 42//56
f 94//52 43//54 45//57
f 43//54 44//55 46//58
f 46//58 45//57 43//54
f 60//59 315//60 45//57
f 46//58 44//55 47//61
f 48//62 50//63 49//64
f 30//39 63//65 29//37
f 62//66 28//35 29//37
f 50//63 53//67 49//64
f 50//63 48//62 52//68
f 62//66 49//64 28//35
f 50//63 51//69 53//67
f 51//69 312//70 52//68
f 31//36 28//35 49//64
f 51//69 52//68 53//67
f 54//45 49//64 53//67
f 66//71 31//36 54//45
f 31//36 49//64 54//45
f 53//67 21//19 54//45
f 36//48 54//45 19//17
f 36//48 65//72 54//45
f 64//73 54//45 65//72
f 21//19 20//18 54//45
f 38//31 56//74 36//48
f 56//74 38//31 57//75
f 36//48 56//74 65//72
f 313//76 314//77 68//78
f 24//30 69//79 38//31
f 314//77 69//79 68//78
f 57//75 38//31 69//79
f 58//80 59//51 27//34
f 37//28 58//80 27//34
f 24//30 39//32 74//50
f 71//81 24//30 74//50
f 94//52 77//82 40//53
f 77//82 73//83 42//56
f 75//84 74//50 41//49
f 75//84 41//49 78//85
f 73//83 44//55 42//56
f 80//86 315//60 60//59
f 94//52 45//57 315//60
f 61//87 45//57 47//61
f 47//61 44//55 61//87
f 120//88 62//66 63//65
f 62//66 48//62 49//64
f 52//68 48//62 119//89
f 62//66 29//37 63//65
f 21//19 53//67 87//90
f 32//38 55//43 89//91
f 65//72 56//74 90//92
f 88//93 37//28 21//19
f 91//94 90//92 56//74
f 91//94 56//74 68//78
f 68//78 69//79 71//81
f 67//95 58//80 37//28
f 24//30 71//81 69//79
f 72//96 75//84 70//97
f 76//98 59//51 58//80
f 68//78 73//83 77//82
f 91//94 68//78 77//82
f 71//81 73//83 68//78
f 93//99 75//84 72//96
f 70//97 75//84 78//85
f 70//97 78//85 76//98
f 59//51 78//85 41//49
f 59//51 76//98 78//85
f 79//100 94//52 315//60
f 79//100 315//60 81//101
f 60//59 82//102 316//103
f 82//102 60//59 83//104
f 61//87 60//59 45//57
f 83//104 60//59 61//87
f 99//105 83//104 61//87
f 44//55 100//106 61//87
f 62//66 120//88 101//107
f 133//108 317//109 30//39
f 52//68 145//110 86//111
f 86//111 145//110 102//112
f 85//113 30//39 32//38
f 102//112 87//90 52//68
f 53//67 52//68 87//90
f 122//114 64//73 65//72
f 88//93 21//19 87//90
f 89//91 125//115 32//38
f 54//45 64//73 66//71
f 64//73 122//114 66//71
f 67//95 37//28 88//93
f 113//116 106//117 91//94
f 111//118 106//117 113//116
f 131//119 72//96 109//120
f 113//116 91//94 94//52
f 91//94 77//82 94//52
f 92//121 73//83 71//81
f 71//81 93//99 92//121
f 96//122 95//123 113//116
f 95//123 117//124 113//116
f 117//124 95//123 84//125
f 113//116 117//124 116//126
f 97//127 316//103 82//102
f 98//128 83//104 95//123
f 83//104 98//128 82//102
f 96//122 316//103 97//127
f 98//128 95//123 97//127
f 97//127 95//123 96//122
f 99//105 117//124 84//125
f 99//105 84//125 83//104
f 132//129 99//105 61//87
f 62//66 101//107 48//62
f 120//88 317//109 133//108
f 121//130 87//90 102//112
f 103//131 87//90 121//130
f 103//131 104//132 88//93
f 110//133 66//71 122//114
f 90//92 105//134 65//72
f 105//134 90//92 106//117
f 122//114 65//72 126//135
f 105//134 106//117 111//118
f 127//136 128//137 107//138
f 104//132 107//138 88//93
f 88//93 107//138 108//139
f 88//93 108//139 67//95
f 318//140 109//120 72//96
f 131//119 130//141 72//96
f 72//96 130//141 93//99
f 116//126 111//118 113//116
f 114//142 92//121 93//99
f 114//142 93//99 112//143
f 130//141 112//143 93//99
f 114//142 115//144 92//121
f 115//144 73//83 92//121
f 116//126 99//105 118//145
f 44//55 73//83 115//144
f 100//106 44//55 132//129
f 115//144 132//129 44//55
f 48//62 101//107 119//89
f 145//110 52//68 169//146
f 121//130 102//112 145//110
f 32//38 147//147 85//113
f 145//110 123//148 103//131
f 134//149 103//131 121//130
f 134//149 145//110 103//131
f 123//148 122//114 126//135
f 123//148 104//132 103//131
f 105//134 111//118 124//150
f 127//136 107//138 124//150
f 124//150 111//118 127//136
f 108//139 107//138 128//137
f 108//139 128//137 129//151
f 111//118 112//143 127//136
f 127//136 112//143 130//141
f 131//119 129//151 128//137
f 128//137 130//141 131//119
f 112//143 137//152 140//153
f 111//118 116//126 138//154
f 114//142 112//143 140//153
f 151//155 114//142 140//153
f 151//155 115//144 114//142
f 132//129 115//144 142//156
f 141//157 99//105 132//129
f 141//157 118//145 99//105
f 101//107 120//88 144//158
f 120//88 133//108 144//158
f 176//159 133//108 30//39
f 119//89 169//146 52//68
f 145//110 146//160 121//130
f 145//110 122//114 123//148
f 134//149 146//160 145//110
f 32//38 125//115 147//147
f 110//133 122//114 135//161
f 136//162 112//143 111//118
f 319//163 137//152 112//143
f 136//162 111//118 138//154
f 138//154 139//164 136//162
f 116//126 158//165 138//154
f 151//155 140//153 150//166
f 118//145 162//167 116//126
f 141//157 162//167 118//145
f 142//156 115//144 151//155
f 132//129 143//168 141//157
f 143//168 132//129 142//156
f 156//169 119//89 101//107
f 101//107 144//158 156//169
f 30//39 85//113 176//159
f 176//159 85//113 157//170
f 147//147 157//170 85//113
f 148//171 135//161 122//114
f 125//115 89//91 135//161
f 139//164 138//154 149//172
f 138//154 150//166 149//172
f 150//166 136//162 139//164
f 150//166 138//154 159//173
f 116//126 161//174 158//165
f 158//165 159//173 138//154
f 161//174 116//126 162//167
f 320//175 152//176 163//177
f 162//167 320//175 163//177
f 143//168 152//176 321//178
f 143//168 142//156 152//176
f 167//179 152//176 153//180
f 153//180 154//181 167//179
f 152//176 142//156 153//180
f 142//156 155//182 153//180
f 154//181 155//182 167//179
f 122//114 145//110 148//171
f 125//115 135//161 148//171
f 150//166 159//173 151//155
f 160//183 151//155 159//173
f 161//174 162//167 163//177
f 151//155 164//184 142//156
f 151//155 172//185 164//184
f 164//184 166//186 142//156
f 164//184 165//187 166//186
f 163//177 152//176 167//179
f 166//186 155//182 142//156
f 166//186 168//188 155//182
f 166//186 174//189 168//188
f 125//115 170//190 147//147
f 148//171 170//190 125//115
f 171//191 159//173 158//165
f 151//155 160//183 178//192
f 179//193 161//174 163//177
f 165//187 172//185 174//189
f 173//194 163//177 167//179
f 174//189 166//186 165//187
f 175//195 173//194 167//179
f 174//189 175//195 168//188
f 167//179 155//182 175//195
f 175//195 155//182 168//188
f 119//89 156//169 190//196
f 157//170 201//197 176//159
f 192//198 145//110 169//146
f 192//198 148//171 145//110
f 148//171 192//198 181//199
f 181//199 170//190 148//171
f 147//147 170//190 182//200
f 171//191 177//201 159//173
f 177//201 171//191 184//202
f 178//192 186//203 151//155
f 161//174 179//193 187//204
f 180//205 172//185 189//206
f 172//185 151//155 189//206
f 173//194 179//193 163//177
f 179//193 173//194 180//205
f 174//189 172//185 180//205
f 174//189 180//205 173//194
f 173//194 175//195 174//189
f 144//158 191//207 156//169
f 191//207 144//158 176//159
f 192//198 169//146 214//208
f 192//198 193//209 181//199
f 183//210 185//211 322//212
f 184//202 322//212 177//201
f 185//211 177//201 322//212
f 198//213 178//192 185//211
f 171//191 161//174 184//202
f 187//204 179//193 188//214
f 189//206 179//193 180//205
f 190//196 156//169 191//207
f 202//215 191//207 176//159
f 157//170 147//147 201//197
f 193//209 192//198 203//216
f 147//147 182//200 215//217
f 194//218 170//190 181//199
f 183//210 197//219 209//220
f 195//221 185//211 183//210
f 196//222 199//223 185//211
f 196//222 185//211 195//221
f 197//219 161//174 187//204
f 184//202 161//174 197//219
f 184//202 197//219 183//210
f 199//223 198//213 185//211
f 186//203 178//192 198//213
f 179//193 200//224 188//214
f 151//155 186//203 189//206
f 248//225 200//224 179//193
f 248//225 179//193 189//206
f 213//226 119//89 190//196
f 214//208 119//89 213//226
f 202//215 176//159 201//197
f 214//208 169//146 119//89
f 201//197 147//147 215//217
f 192//198 216//227 203//216
f 217//228 216//227 192//198
f 323//229 324//230 206//231
f 193//209 204//232 181//199
f 204//232 193//209 210//233
f 326//234 210//233 209//220
f 193//209 205//235 210//233
f 323//229 206//231 327//236
f 205//235 207//237 208//238
f 328//239 207//237 205//235
f 207//237 220//240 208//238
f 208//238 211//241 195//221
f 331//242 221//243 204//232
f 209//220 210//233 195//221
f 205//235 195//221 210//233
f 205//235 208//238 195//221
f 209//220 195//221 183//210
f 239//244 198//213 199//223
f 239//244 199//223 195//221
f 239//244 186//203 198//213
f 212//245 197//219 187//204
f 223//246 212//245 335//247
f 200//224 187//204 188//214
f 190//196 191//207 213//226
f 227//248 191//207 229//249
f 217//228 192//198 214//208
f 230//250 181//199 204//232
f 329//251 325//252 218//253
f 333//254 207//237 330//255
f 218//253 325//252 332//256
f 253//257 181//199 252//258
f 204//232 221//243 230//250
f 207//237 219//259 220//240
f 333//254 219//259 207//237
f 221//243 209//220 197//219
f 195//221 211//241 220//240
f 221//243 197//219 235//260
f 195//221 220//240 237//261
f 239//244 195//221 237//261
f 197//219 223//246 238//262
f 197//219 212//245 223//246
f 224//263 238//262 223//246
f 239//244 240//264 186//203
f 247//265 223//246 335//247
f 247//265 335//247 226//266
f 248//225 247//265 226//266
f 200//224 212//245 187//204
f 226//266 212//245 200//224
f 186//203 250//267 189//206
f 248//225 226//266 200//224
f 250//267 248//225 189//206
f 213//226 191//207 227//248
f 229//249 191//207 202//215
f 228//268 227//248 229//249
f 182//200 253//257 215//217
f 252//258 181//199 230//250
f 230//250 267//269 254//270
f 216//227 251//271 255//272
f 334//273 216//227 255//272
f 253//257 182//200 194//218
f 194//218 181//199 253//257
f 230//250 221//243 267//269
f 267//269 221//243 232//274
f 255//272 231//275 334//273
f 231//275 219//259 334//273
f 232//274 221//243 235//260
f 220//240 219//259 222//276
f 220//240 222//276 233//277
f 231//275 222//276 219//259
f 234//278 222//276 231//275
f 238//262 232//274 235//260
f 237//261 220//240 233//277
f 236//279 238//262 240//264
f 232//274 238//262 236//279
f 336//280 240//264 239//244
f 237//261 241//281 239//244
f 242//282 240//264 336//280
f 241//281 237//261 261//283
f 241//281 242//282 336//280
f 238//262 260//284 243//285
f 243//285 240//264 238//262
f 243//285 186//203 240//264
f 243//285 250//267 186//203
f 337//286 246//287 224//263
f 248//225 249//288 247//265
f 213//226 227//248 214//208
f 251//271 227//248 228//268
f 227//248 251//271 214//208
f 229//249 202//215 201//197
f 201//197 215//217 229//249
f 229//249 252//258 228//268
f 229//249 253//257 252//258
f 251//271 228//268 252//258
f 251//271 216//227 217//228
f 339//289 252//258 254//270
f 266//290 255//272 252//258
f 252//258 255//272 251//271
f 230//250 254//270 252//258
f 269//291 267//269 232//274
f 269//291 232//274 270//292
f 271//293 257//294 234//278
f 271//293 234//278 231//275
f 242//282 258//295 236//279
f 236//279 258//295 232//274
f 233//277 256//296 259//297
f 257//294 271//293 259//297
f 242//282 241//281 258//295
f 237//261 259//297 244//298
f 271//293 272//299 259//297
f 258//295 241//281 261//283
f 237//261 233//277 259//297
f 238//262 224//263 260//284
f 260//284 264//300 243//285
f 262//301 261//283 244//298
f 263//302 244//298 259//297
f 262//301 244//298 263//302
f 264//300 250//267 243//285
f 224//263 273//303 260//284
f 224//263 246//287 338//304
f 248//225 265//305 249//288
f 250//267 275//306 248//225
f 265//305 248//225 274//307
f 248//225 275//306 274//307
f 214//208 251//271 217//228
f 229//249 215//217 253//257
f 254//270 269//291 339//289
f 339//289 269//291 268//308
f 268//308 255//272 266//290
f 270//292 268//308 269//291
f 277//309 231//275 255//272
f 232//274 258//295 270//292
f 262//301 281//310 258//295
f 284//311 272//299 271//293
f 262//301 258//295 261//283
f 259//297 272//299 263//302
f 272//299 284//311 263//302
f 250//267 264//300 273//303
f 273//303 224//263 338//304
f 275//306 250//267 276//312
f 276//312 250//267 273//303
f 265//305 274//307 338//304
f 338//304 274//307 276//312
f 338//304 276//312 273//303
f 285//313 277//309 255//272
f 258//295 278//314 270//292
f 277//309 286//315 231//275
f 231//275 286//315 279//316
f 278//314 283//317 279//316
f 231//275 279//316 280//318
f 284//311 271//293 231//275
f 278//314 258//295 281//310
f 281//310 262//301 282//319
f 282//319 262//301 283//317
f 340//320 283//317 281//310
f 340//320 282//319 283//317
f 283//317 278//314 281//310
f 280//318 284//311 231//275
f 283//317 284//311 280//318
f 262//301 284//311 283//317
f 262//301 263//302 284//311
f 268//308 294//321 255//272
f 290//322 291//323 288//324
f 277//309 290//322 288//324
f 288//324 286//315 277//309
f 270//292 278//314 292//325
f 287//326 288//324 278//314
f 288//324 291//323 278//314
f 287//326 278//314 279//316
f 279//316 286//315 287//326
f 270//292 294//321 268//308
f 294//321 285//313 255//272
f 285//313 289//327 277//309
f 289//327 285//313 295//328
f 291//323 290//322 293//329
f 293//329 290//322 289//327
f 291//323 292//325 278//314
f 297//330 289//327 295//328
f 296//331 294//321 270//292
f 292//325 293//329 303//332
f 298//333 297//330 285//313
f 303//332 304//334 296//331
f 285//313 299//335 298//333
f 270//292 303//332 296//331
f 303//332 270//292 292//325
f 302//336 299//335 294//321
f 285//313 294//321 299//335
f 297//330 298//333 300//337
f 301//338 289//327 297//330
f 298//333 301//338 300//337
f 298//333 302//336 301//338
f 293//329 301//338 303//332
f 301//338 293//329 289//327
f 301//338 302//336 303//332
f 294//321 304//334 302//336
f 302//336 304//334 303//332
l 225 245
