# Blender 4.0.2
# www.blender.org
mtllib lumbar1.mtl
o lumbar1.002
v -0.039512 0.010299 0.034914
v -0.040532 0.014356 0.034471
v -0.038225 0.007343 0.032488
v -0.036770 0.008563 0.032018
v -0.040937 0.015023 0.032389
v -0.042031 0.014223 0.031910
v -0.041695 0.009515 0.033367
v -0.035068 0.011485 0.020628
v -0.041474 0.014851 0.028844
v -0.042751 0.009949 0.022498
v -0.042416 0.013866 0.028069
v -0.039587 0.015080 0.024104
v -0.036965 0.007765 0.021824
v -0.043002 0.014833 0.024727
v -0.044160 0.014906 0.023262
v -0.001697 0.009055 0.019614
v -0.015519 0.029819 0.020274
v -0.009530 0.007484 0.019877
v -0.003374 0.007621 0.018408
v -0.010887 0.017203 0.017318
v -0.011902 0.006112 0.019002
v -0.012119 0.006026 0.019196
v -0.044664 0.016155 0.022052
v -0.043625 0.015615 0.023019
v -0.045702 0.015258 0.022210
v -0.044035 0.015987 0.022596
v -0.051417 0.014881 0.021048
v -0.006077 0.033222 0.018282
v 0.004451 0.012090 0.016883
v 0.007677 0.012816 0.014458
v 0.004795 0.012231 0.017055
v -0.003117 0.036673 0.015823
v -0.000291 0.020509 0.014838
v -0.003100 0.028079 0.015373
v -0.018112 0.028715 0.020111
v -0.015577 0.003896 0.017243
v -0.023660 0.024745 0.017476
v -0.020100 0.003355 0.013741
v -0.034649 0.016605 0.016430
v -0.039741 0.007356 0.013595
v -0.050500 0.018285 0.019342
v -0.045407 0.018026 0.017280
v -0.045250 0.009013 0.019513
v -0.051481 0.017984 0.019940
v 0.010726 0.015422 0.009751
v -0.000764 0.008292 0.017815
v -0.023321 0.025809 0.016091
v -0.022534 0.008666 0.014497
v -0.028389 0.025186 0.014663
v -0.020184 0.003124 0.013777
v -0.027998 0.020362 0.015283
v -0.025442 0.009603 0.014837
v -0.024819 0.008733 0.013975
v -0.028800 0.009371 0.015136
v -0.030253 0.006650 0.012426
v -0.054173 0.015119 0.017947
v 0.000479 0.038617 0.010715
v -0.013439 0.005454 0.011233
v -0.030345 0.024180 0.011039
v -0.020781 0.002621 0.009297
v -0.022014 0.006700 0.013069
v -0.025089 0.008629 0.011893
v -0.027476 0.011517 0.011099
v -0.027990 0.008412 0.013699
v -0.028129 0.008867 0.013415
v -0.027278 0.010430 0.011650
v -0.034000 0.020822 0.011928
v -0.029402 0.007794 0.011344
v -0.037512 0.020471 0.012063
v -0.034518 0.005122 0.011624
v -0.030964 -0.001053 0.011455
v -0.048850 0.021981 0.013839
v -0.047617 0.023519 0.012912
v -0.026880 -0.012946 0.010829
v -0.028165 -0.008437 0.009178
v -0.027080 -0.012448 0.009932
v -0.027062 -0.012873 0.010113
v -0.039857 0.005238 0.011483
v -0.041683 0.007835 0.012050
v -0.044454 0.011466 0.010995
v -0.049538 0.020467 0.014343
v -0.027339 -0.015239 0.011386
v -0.035641 -0.015400 0.011102
v -0.030050 -0.015846 0.010785
v -0.027789 -0.014855 0.010448
v -0.028663 -0.007948 0.010455
v -0.038318 -0.001194 0.011281
v -0.053207 0.018683 0.017108
v -0.049980 0.020251 0.014092
v -0.038483 -0.007359 0.012006
v -0.046991 0.011705 0.012199
v -0.053349 0.015752 0.013789
v -0.037298 -0.014636 0.011565
v -0.039127 -0.011278 0.011762
v -0.038635 -0.011407 0.011659
v 0.001908 0.039181 0.008594
v 0.001944 0.039150 0.007534
v -0.030358 0.026005 0.009000
v -0.030355 0.023752 0.009827
v -0.031239 0.021535 0.010546
v -0.028146 0.015086 0.010088
v -0.034143 0.020177 0.011341
v -0.030506 0.008192 0.011163
v -0.029991 0.007853 0.011619
v -0.044394 0.023927 0.011936
v -0.031985 0.001604 0.010406
v -0.031286 0.002589 0.009230
v -0.045961 0.024090 0.012368
v -0.029223 -0.003366 0.010404
v -0.028640 -0.007573 0.009286
v -0.040825 0.009533 0.009382
v -0.044448 0.011473 0.010983
v -0.034212 -0.013372 0.006973
v -0.040288 0.004370 0.009580
v -0.039833 -0.010376 0.008129
v -0.040011 -0.005277 0.009076
v 0.004506 0.039222 -0.000840
v 0.006623 0.026082 0.002984
v 0.011464 0.014926 0.005753
v -0.008529 0.007688 0.002946
v -0.024544 0.028388 0.002408
v -0.023243 0.016094 0.004982
v -0.030357 0.025188 0.007806
v -0.029859 0.025855 0.006525
v -0.031392 0.001323 0.006168
v -0.037331 0.011855 0.005995
v -0.037419 0.012137 0.006559
v -0.041119 0.006306 0.006972
v -0.039582 0.000299 0.006797
v -0.038931 -0.012009 0.005786
v -0.039142 -0.012201 0.005681
v -0.041304 -0.012250 0.004742
v -0.056767 -0.023385 0.005385
v -0.016521 0.003549 -0.000172
v -0.017991 0.003658 0.002236
v -0.037065 0.011357 0.005342
v -0.043922 0.006479 0.002160
v -0.037928 -0.009487 0.001239
v -0.042209 -0.002018 0.004232
v -0.053999 -0.014730 0.003599
v -0.052428 -0.017218 0.002352
v -0.063094 -0.009405 0.003098
v -0.059168 -0.025415 0.004029
v -0.055980 -0.028310 0.000640
v 0.012497 0.016457 -0.000492
v -0.008440 0.007766 -0.002401
v -0.027474 0.025974 -0.000217
v -0.017399 0.003466 0.000394
v -0.017423 0.003695 0.000544
v -0.034234 -0.002355 -0.000296
v -0.038749 0.008237 -0.000026
v -0.040611 0.007944 -0.000787
v -0.048131 -0.000094 0.001640
v -0.051054 -0.001216 0.000466
v -0.046625 -0.015576 -0.000201
v -0.056412 -0.004617 -0.000021
v -0.052049 -0.020311 -0.000870
v -0.064396 -0.011483 0.000712
v -0.062064 -0.007972 0.002445
v 0.006300 0.025750 -0.004728
v -0.018298 0.004225 -0.002558
v -0.027654 0.025951 -0.000455
v -0.016806 0.003427 -0.003550
v -0.018250 0.004253 -0.002602
v -0.037711 0.008440 -0.002719
v -0.038229 -0.010561 -0.003059
v -0.045105 0.005589 -0.002658
v -0.049596 -0.000267 -0.001835
v -0.051992 -0.002005 0.000467
v -0.057186 -0.005504 -0.001866
v -0.050975 -0.019253 -0.000997
v -0.062736 -0.007405 -0.002591
v -0.055713 -0.027084 -0.003706
v -0.060516 -0.024583 -0.002932
v -0.001088 0.037736 -0.013937
v 0.011692 0.014162 -0.008609
v 0.012390 0.016348 -0.000542
v -0.028323 0.026387 -0.004130
v -0.023649 0.016600 -0.005984
v -0.027823 0.025686 -0.002796
v -0.019518 0.002562 -0.005986
v -0.019277 0.003112 -0.005540
v -0.036859 0.010835 -0.006212
v -0.041753 -0.002265 -0.005292
v -0.053843 -0.015307 -0.004443
v -0.057728 -0.005734 -0.001969
v -0.060181 -0.014822 -0.005461
v -0.062447 -0.011079 -0.005134
v -0.058450 -0.025424 -0.005571
v 0.009243 0.013614 -0.013726
v -0.024244 0.027306 -0.010245
v -0.020641 0.002936 -0.009429
v -0.030518 0.005432 -0.010008
v -0.037226 0.010879 -0.006376
v -0.039145 0.008407 -0.007239
v -0.028458 -0.007257 -0.010154
v -0.041101 0.006376 -0.007485
v -0.033477 -0.012517 -0.007728
v -0.039873 -0.003425 -0.008725
v -0.039836 0.001362 -0.007783
v -0.039738 0.002018 -0.008008
v -0.039574 0.002174 -0.007890
v -0.038367 -0.012309 -0.007179
v -0.040619 -0.012084 -0.006301
v -0.040138 -0.010317 -0.008668
v -0.040441 -0.009438 -0.009045
v -0.057347 -0.020474 -0.006526
v -0.000670 0.037801 -0.013810
v 0.008704 0.013997 -0.013724
v -0.030989 0.022672 -0.011666
v -0.030656 0.025793 -0.008375
v -0.030504 0.025802 -0.008807
v -0.030284 0.025750 -0.008332
v -0.030406 0.024569 -0.010130
v -0.024250 0.008622 -0.011981
v -0.029798 0.013155 -0.011608
v -0.029247 0.010970 -0.011360
v -0.029624 0.008163 -0.011304
v -0.028802 -0.003288 -0.011038
v -0.031400 0.002188 -0.010255
v -0.040494 0.019180 -0.010626
v -0.027090 -0.012026 -0.010715
v -0.033148 0.001993 -0.010896
v -0.032744 0.002095 -0.011150
v -0.026905 -0.011770 -0.010447
v -0.027178 -0.014005 -0.011270
v -0.028050 -0.015237 -0.011670
v -0.035613 -0.014764 -0.012655
v -0.040778 0.007421 -0.010239
v -0.027749 -0.015114 -0.011217
v -0.034159 -0.015599 -0.012016
v -0.037548 -0.014327 -0.012679
v -0.040097 -0.010287 -0.008645
v 0.006183 0.012666 -0.016402
v -0.003430 0.023239 -0.015991
v -0.020867 0.007102 -0.015270
v -0.029926 0.022840 -0.013107
v -0.019585 0.003358 -0.015089
v -0.026221 0.009007 -0.012962
v -0.034396 0.019660 -0.012902
v -0.032632 0.021453 -0.012630
v -0.027866 0.009163 -0.012651
v -0.028911 0.007735 -0.012891
v -0.029878 0.012950 -0.011334
v -0.037199 0.020232 -0.012179
v -0.032703 0.004667 -0.012450
v -0.044717 0.024072 -0.012418
v -0.031296 -0.000333 -0.012024
v -0.031238 -0.000263 -0.012196
v -0.038129 -0.000454 -0.012089
v -0.040603 0.006590 -0.013102
v -0.045081 0.011216 -0.012584
v -0.038981 -0.010988 -0.012735
v -0.005245 0.034989 -0.018292
v 0.000557 0.010153 -0.019545
v -0.003109 0.007616 -0.019321
v -0.020587 0.015850 -0.015689
v -0.028091 0.025190 -0.015151
v -0.014344 0.004287 -0.018374
v -0.027845 0.020313 -0.016051
v -0.016478 0.003943 -0.018237
v -0.023897 0.008958 -0.015048
v -0.030308 0.011809 -0.017124
v -0.037633 0.020206 -0.013148
v -0.037605 0.020326 -0.013207
v -0.035148 0.007669 -0.016285
v -0.044243 0.019119 -0.016729
v -0.046942 0.023702 -0.013204
v -0.048331 0.022587 -0.014260
v -0.053067 0.017215 -0.014870
v -0.052747 0.014653 -0.014398
v -0.011274 0.016407 -0.018240
v -0.015991 0.029909 -0.020799
v -0.005021 0.007668 -0.021057
v -0.016550 0.028929 -0.020138
v -0.011998 0.006035 -0.020162
v -0.023720 0.025518 -0.018178
v -0.016144 0.004155 -0.018008
v -0.034119 0.015375 -0.018253
v -0.034857 0.008112 -0.019121
v -0.042270 0.009156 -0.021972
v -0.050678 0.018888 -0.015848
v -0.052640 0.018304 -0.015828
v -0.050671 0.011380 -0.020386
v -0.053350 0.014728 -0.015723
v -0.015434 0.028984 -0.021268
v -0.035428 0.011104 -0.022645
v -0.053736 0.017426 -0.018681
v -0.051807 0.016141 -0.021574
v -0.036765 0.008036 -0.022874
v -0.037446 0.007744 -0.022839
v -0.042155 0.014851 -0.027670
v -0.044507 0.015396 -0.023309
v -0.037488 0.007763 -0.023007
v -0.036875 0.007899 -0.032107
v -0.042018 0.014638 -0.029336
v -0.040368 0.014696 -0.034588
v -0.040331 0.007956 -0.033415
v -0.042099 0.013063 -0.034148
v -0.039206 0.009429 -0.035465
v -0.044537 0.015087 0.022743
v -0.050627 0.018399 0.019309
v -0.025372 0.009665 0.014693
v -0.024819 0.008733 0.013975
v -0.024819 0.008733 0.013975
v -0.024956 0.008802 0.012104
v -0.027990 0.008412 0.013699
v -0.028296 0.008342 0.012310
v -0.030241 0.006693 0.012408
v -0.030991 -0.001083 0.011361
v -0.047477 0.022958 0.013044
v -0.039780 0.007044 0.013670
v -0.041683 0.007835 0.012050
v -0.027974 -0.015895 0.010993
v -0.027789 -0.014855 0.010448
v -0.030908 0.022769 0.011151
v -0.030908 0.022769 0.011151
v -0.030143 0.024213 0.010886
v -0.031359 0.021498 0.010520
v -0.034721 0.020709 0.011876
v -0.030023 -0.003510 0.010042
v -0.029223 -0.003366 0.010404
v -0.029223 -0.003366 0.010404
v -0.029950 0.025886 0.006529
v -0.016519 0.003566 -0.000298
v -0.062973 -0.009392 0.002755
v -0.038784 0.008161 -0.000871
v -0.040631 -0.011978 -0.006240
v -0.029624 0.008163 -0.011304
v -0.030849 0.000288 -0.010683
v -0.032810 0.002275 -0.011490
v -0.027326 -0.015144 -0.011504
v -0.032315 0.022361 -0.011969
v -0.027866 0.009163 -0.012651
v -0.028974 0.007774 -0.012876
v -0.034633 0.019873 -0.011918
v -0.035084 0.020549 -0.012635
v -0.037190 0.020242 -0.012182
v -0.037172 -0.013543 -0.011952
v -0.038840 -0.012296 -0.013397
v -0.048297 0.022636 -0.014216
v -0.050215 0.019734 -0.014596
v -0.051970 0.014885 -0.014806
v -0.035445 0.008135 -0.020017
vn 0.1649 -0.1538 0.9742
vn -0.0570 0.7365 0.6740
vn -0.7690 -0.4612 0.4425
vn 0.8986 -0.2196 0.3798
vn 0.1125 -0.9158 0.3856
vn 0.8051 0.0881 0.5866
vn -0.6124 0.7859 0.0861
vn 0.3365 0.9361 0.1022
vn -0.9673 0.1437 0.2092
vn -0.5946 -0.7333 0.3296
vn 0.4659 0.8830 0.0561
vn 0.3075 -0.9314 0.1947
vn -0.4702 0.8048 0.3622
vn -0.7726 0.1087 0.6255
vn 0.4494 0.8327 0.3236
vn 0.0133 0.9155 0.4021
vn 0.3429 -0.3319 0.8788
vn 0.7762 -0.1868 0.6022
vn 0.5613 -0.7098 0.4256
vn 0.6251 -0.1405 0.7678
vn 0.4421 0.3353 0.8320
vn 0.3034 0.2268 0.9255
vn -0.2172 0.4717 0.8546
vn -0.0176 0.0383 0.9991
vn 0.2731 -0.8820 0.3841
vn -0.0418 -0.2371 0.9706
vn 0.3363 -0.9369 -0.0959
vn -0.2926 -0.6916 0.6604
vn 0.2621 -0.8230 0.5039
vn -0.0935 -0.4083 0.9081
vn 0.0099 0.7472 0.6645
vn 0.0787 0.9233 0.3760
vn 0.1261 0.8518 0.5084
vn -0.1388 -0.9479 0.2866
vn -0.3168 -0.1782 0.9316
vn -0.4910 0.3613 0.7927
vn -0.4952 0.4020 0.7702
vn -0.5236 -0.2040 0.8272
vn -0.4133 -0.8530 0.3186
vn 0.2904 0.7325 0.6157
vn -0.4856 0.8732 0.0421
vn 0.6325 -0.0141 0.7744
vn 0.3201 -0.9456 -0.0581
vn -0.2713 -0.3037 0.9133
vn -0.4027 0.2202 0.8884
vn -0.4171 0.8542 0.3105
vn -0.7282 -0.3874 0.5653
vn 0.3169 -0.9480 -0.0282
vn 0.6065 -0.6452 0.4646
vn 0.1447 0.8188 0.5556
vn -0.3852 0.6411 0.6638
vn 0.1687 0.9510 0.2593
vn -0.6787 0.7239 0.1238
vn -0.9308 -0.3001 0.2086
vn 0.9151 -0.0496 0.4003
vn -0.2421 0.1610 0.9568
vn -0.6048 0.5577 0.5686
vn -0.8386 0.3439 0.4224
vn -0.7127 -0.5809 0.3932
vn -0.0361 -0.6645 0.7464
vn -0.1925 -0.6679 0.7189
vn 0.1702 -0.7498 0.6395
vn 0.1027 -0.0169 0.9946
vn 0.3169 -0.5028 0.8042
vn -0.4435 -0.7118 -0.5446
vn -0.5336 -0.7666 -0.3572
vn -0.7571 -0.1302 -0.6402
vn 0.3448 0.7706 0.5360
vn 0.8631 0.1648 0.4774
vn -0.2787 0.9601 -0.0235
vn 0.8952 0.3514 0.2742
vn -0.4310 -0.8978 -0.0912
vn -0.7367 0.6691 0.0980
vn -0.5589 -0.8215 0.1135
vn -0.6861 -0.6006 -0.4105
vn 0.2465 -0.8574 -0.4518
vn -0.0345 -0.9988 -0.0343
vn 0.1031 -0.4395 -0.8923
vn -0.0619 -0.3118 -0.9481
vn -0.3271 0.7128 0.6205
vn 0.6265 -0.7513 -0.2075
vn 0.6341 -0.7572 -0.1568
vn 0.6402 -0.7613 -0.1027
vn 0.6122 -0.7388 -0.2818
vn 0.6708 -0.6443 0.3673
vn 0.1661 0.6573 0.7351
vn 0.0432 -0.3934 0.9184
vn 0.4021 0.0578 0.9138
vn -0.0872 0.9847 -0.1505
vn 0.2815 0.2589 0.9240
vn -0.0967 0.5678 0.8175
vn 0.1465 -0.0000 0.9892
vn 0.0174 0.1475 0.9889
vn -0.4626 -0.0226 0.8863
vn 0.5922 0.0812 0.8017
vn 0.7634 0.3689 0.5302
vn 0.9864 -0.0888 0.1380
vn 0.7385 0.3817 0.5557
vn -0.5257 -0.5121 0.6792
vn 0.2702 -0.4831 -0.8328
vn 0.9817 0.0761 -0.1746
vn 0.8401 -0.0054 0.5425
vn 0.7476 -0.4077 -0.5243
vn 0.9362 0.3200 0.1453
vn 0.9327 0.3238 0.1586
vn -0.3800 -0.0091 0.9250
vn -0.6571 -0.5696 0.4937
vn -0.6698 -0.5737 0.4715
vn -0.7041 -0.6391 -0.3095
vn -0.3660 0.7477 0.5541
vn -0.5793 0.6984 0.4203
vn -0.5570 0.6091 -0.5646
vn 0.1324 -0.9850 -0.1108
vn 0.0251 0.0822 0.9963
vn -0.2418 -0.9112 0.3336
vn 0.3275 -0.2290 -0.9167
vn -0.0882 -0.1345 -0.9870
vn -0.3432 0.0756 -0.9362
vn 0.0796 -0.0508 0.9955
vn 0.2189 -0.6942 -0.6856
vn 0.1345 -0.0341 0.9903
vn -0.9089 -0.3614 0.2078
vn -0.0624 -0.9949 -0.0789
vn -0.6312 -0.5015 0.5917
vn 0.3720 -0.9280 -0.0224
vn -0.4068 0.9135 0.0011
vn -0.6855 -0.1656 -0.7090
vn -0.8564 -0.4077 -0.3169
vn -0.7519 0.3685 0.5466
vn -0.9239 0.3648 -0.1150
vn -0.8853 0.4644 -0.0249
vn 0.2810 0.1546 -0.9472
vn -0.4424 0.4976 -0.7461
vn -0.0617 0.3917 -0.9180
vn -0.2063 0.5736 -0.7927
vn -0.4591 0.5204 -0.7201
vn 0.9665 -0.0475 -0.2520
vn 0.9036 0.1420 -0.4043
vn -0.6697 0.4115 -0.6182
vn -0.8004 -0.0258 -0.5989
vn 0.8880 0.2290 -0.3988
vn 0.7218 -0.1017 -0.6846
vn -0.2693 -0.1487 -0.9515
vn -0.9562 -0.2251 0.1872
vn -0.9204 -0.0485 0.3879
vn -0.9236 0.2756 0.2665
vn -0.7911 0.1105 0.6017
vn 0.6283 0.7752 -0.0658
vn 0.8983 0.4387 -0.0250
vn 0.8713 0.3430 -0.3511
vn 0.4203 -0.9065 -0.0391
vn 0.2562 -0.9660 -0.0340
vn -0.9443 -0.0351 -0.3271
vn -0.3063 0.9493 -0.0713
vn 0.2245 0.7076 -0.6700
vn -0.1094 0.8453 -0.5229
vn 0.7013 -0.6701 -0.2432
vn -0.5850 0.1057 0.8041
vn -0.0052 -0.8024 0.5968
vn 0.3346 -0.9335 0.1287
vn 0.0129 0.0441 0.9989
vn 0.4875 -0.4735 0.7336
vn -0.3581 0.9330 -0.0363
vn 0.1971 -0.9804 0.0028
vn -0.9271 0.3115 0.2085
vn -0.8727 0.3726 -0.3155
vn -0.7699 -0.5367 -0.3452
vn 0.0882 -0.9908 0.1026
vn 0.9980 -0.0627 -0.0070
vn 0.4580 0.8261 -0.3284
vn -0.3640 0.9314 -0.0040
vn -0.5618 0.8006 0.2083
vn -0.2905 -0.1815 0.9395
vn 0.5490 -0.8309 0.0902
vn 0.2400 -0.2715 0.9320
vn -0.4542 0.3535 0.8178
vn -0.3660 0.6576 0.6585
vn -0.5297 -0.5842 0.6149
vn 0.2476 -0.9470 0.2048
vn -0.9916 0.0286 0.1262
vn 0.7266 0.5399 -0.4250
vn -0.9037 -0.3693 0.2165
vn -0.9093 -0.4149 -0.0333
vn -0.8372 -0.3937 0.3796
vn -0.9151 -0.3036 0.2653
vn 0.0996 -0.9949 -0.0168
vn 0.1968 -0.9803 0.0130
vn 0.5704 -0.7561 0.3210
vn -0.6194 0.7037 0.3480
vn -0.6735 0.7038 -0.2261
vn -0.4183 0.7881 0.4516
vn -0.5017 0.7580 0.4168
vn 0.7111 -0.5064 0.4877
vn -0.7813 0.6179 -0.0882
vn -0.8388 -0.5022 -0.2103
vn 0.4234 -0.9059 0.0076
vn 0.3238 -0.7853 -0.5277
vn -0.3227 0.9379 -0.1270
vn -0.9084 0.2521 0.3335
vn -0.9007 -0.3726 0.2235
vn -0.4040 -0.8992 0.1681
vn 0.2565 -0.9652 0.0513
vn 0.9035 -0.0175 0.4282
vn 0.4351 0.7751 0.4581
vn -0.1175 0.9930 0.0126
vn 0.7727 0.0171 0.6346
vn -0.6211 0.4599 -0.6346
vn -0.7366 -0.2544 -0.6266
vn -0.2363 0.6444 -0.7273
vn 0.5773 -0.5486 -0.6048
vn -0.6371 0.6672 -0.3859
vn 0.4028 -0.7583 -0.5126
vn -0.5044 0.1777 -0.8450
vn -0.2832 -0.5600 -0.7786
vn 0.7462 -0.6645 -0.0403
vn -0.8988 0.3893 0.2013
vn 0.9138 0.1285 -0.3854
vn -0.0283 0.5919 0.8055
vn -0.7003 0.7056 -0.1084
vn -0.7335 0.6782 0.0447
vn -0.8573 0.2967 -0.4207
vn 0.6819 0.4214 0.5979
vn -0.8002 -0.5178 -0.3027
vn -0.6252 0.1820 -0.7589
vn 0.1542 -0.0332 -0.9875
vn 0.0930 0.3372 -0.9368
vn 0.1531 -0.0709 -0.9857
vn 0.2087 0.2856 -0.9353
vn 0.5490 0.6693 -0.5006
vn -0.4764 0.6634 -0.5770
vn -0.8823 -0.2378 0.4061
vn -0.2883 0.9502 -0.1183
vn -0.9408 -0.0645 0.3329
vn -0.6154 -0.7872 0.0395
vn 0.5843 0.0914 0.8063
vn -0.9462 -0.1204 0.3003
vn 0.2873 -0.0155 -0.9577
vn 0.2697 -0.6120 0.7434
vn -0.8499 -0.0719 -0.5221
vn -0.4537 -0.0794 -0.8876
vn -0.0994 -0.9784 -0.1810
vn -0.8247 0.1941 -0.5312
vn -0.3765 -0.9107 0.1700
vn 0.0269 -0.9205 0.3897
vn -0.7011 -0.2688 -0.6605
vn -0.6307 -0.7644 0.1336
vn 0.6789 -0.1734 -0.7135
vn -0.9059 0.3297 -0.2658
vn -0.6446 -0.7228 0.2491
vn -0.5013 -0.3024 0.8107
vn 0.0093 -0.8009 0.5987
vn 0.6313 -0.0692 0.7725
vn 0.8753 -0.1056 0.4719
vn 0.4981 0.2422 0.8326
vn 0.6666 0.5665 -0.4845
vn 0.5937 0.5453 -0.5917
vn 0.4169 0.4641 -0.7815
vn -0.0956 0.3146 0.9444
vn 0.2486 0.1159 -0.9616
vn 0.6880 -0.3234 0.6496
vn -0.2087 -0.1693 0.9632
vn 0.1895 0.2272 -0.9552
vn 0.1977 -0.5228 -0.8292
vn -0.2484 -0.6121 -0.7508
vn -0.9194 0.2021 0.3375
vn -0.6235 -0.7196 -0.3058
vn -0.5171 -0.0501 -0.8544
vn -0.5477 -0.0658 -0.8341
vn -0.8340 -0.0036 -0.5517
vn 0.4748 0.1407 -0.8688
vn 0.1795 0.5767 -0.7970
vn -0.7251 0.5565 0.4058
vn 0.1933 -0.9243 -0.3290
vn -0.6030 0.5891 -0.5379
vn -0.6806 0.5045 -0.5312
vn -0.8722 0.3431 -0.3486
vn -0.5248 -0.7603 -0.3828
vn -0.1882 -0.6283 -0.7548
vn -0.5968 -0.3177 -0.7368
vn -0.4730 0.7228 -0.5038
vn -0.3145 -0.0336 0.9487
vn -0.6395 0.5855 -0.4982
vn 0.0321 0.5081 0.8607
vn 0.2279 -0.4498 0.8635
vn 0.6782 -0.5738 0.4591
vn 0.5343 -0.8178 -0.2141
vn 0.2213 0.6893 0.6898
vn -0.1161 0.9850 0.1277
vn 0.2758 -0.5159 -0.8111
vn 0.9092 -0.1067 0.4024
vn -0.0794 0.9113 0.4041
vn 0.2325 0.8029 -0.5488
vn 0.6134 -0.3177 -0.7231
vn 0.1013 0.1255 -0.9869
vn 0.1965 -0.0543 -0.9790
vn 0.0414 -0.9438 -0.3279
vn -0.3812 0.0742 0.9215
vn -0.5620 -0.4939 0.6635
vn -0.5506 -0.8130 0.1896
vn 0.5029 0.4329 -0.7481
vn 0.4363 -0.2444 -0.8660
vn -0.0724 0.0387 -0.9966
vn -0.4894 0.4206 -0.7640
vn -0.1696 -0.1402 -0.9755
vn -0.2377 0.1355 -0.9618
vn 0.0226 -0.9709 -0.2384
vn -0.4739 -0.0332 -0.8799
vn 0.4687 -0.1876 -0.8632
vn 0.3341 0.5864 -0.7379
vn 0.4597 -0.8086 -0.3672
vn 0.0804 0.7880 -0.6104
vn -0.4979 -0.8390 -0.2195
vn -0.1351 0.7108 -0.6903
vn -0.0099 0.5738 -0.8189
vn -0.7418 0.4653 0.4829
vn -0.0303 -0.0971 0.9948
vn -0.4784 -0.4710 0.7412
vn -0.8140 0.2130 0.5403
vn -0.7304 0.6769 -0.0907
vn -0.1219 0.0752 -0.9897
vn -0.0155 0.2966 -0.9549
vn -0.1257 -0.3200 -0.9391
vn -0.5823 0.6024 -0.5459
vn 0.8811 0.0877 -0.4647
vn 0.3496 -0.9258 -0.1434
vn -0.5635 -0.7232 -0.3993
vn -0.0691 0.9198 -0.3862
vn -0.9007 -0.3932 0.1847
vn -0.5218 -0.2234 0.8233
vn 0.2033 0.9671 -0.1527
vn 0.3798 -0.9084 -0.1750
vn 0.6625 -0.7345 -0.1468
vn -0.6006 0.3649 -0.7114
vn -0.5394 0.4228 -0.7282
vn 0.0124 -0.9996 -0.0255
vn 0.7429 -0.5920 -0.3125
vn -0.4706 -0.8125 -0.3442
vn -0.9850 0.1243 -0.1194
vn 0.1359 0.7547 -0.6419
vn 0.1914 -0.2742 -0.9424
vn -0.8364 0.1467 -0.5281
s 1
usemtl mtl1.1042
f 1//1 2//2 7//3
f 2//2 1//1 4//4
f 1//1 7//3 3//5
f 4//4 1//1 3//5
f 4//4 8//6 2//2
f 6//7 2//2 5//8
f 11//9 7//3 2//2
f 11//9 10//10 7//3
f 11//9 6//7 5//8
f 9//11 2//2 8//6
f 2//2 9//11 5//8
f 13//12 4//4 3//5
f 13//12 8//6 4//4
f 14//13 11//9 5//8
f 15//14 10//10 11//9
f 9//11 8//6 12//15
f 24//16 9//11 12//15
f 10//10 13//12 7//3
f 3//5 7//3 13//12
f 14//13 15//14 11//9
f 16//17 30//18 29//19
f 31//20 33//21 16//17
f 28//22 17//23 20//24
f 30//18 16//17 19//25
f 19//25 16//17 18//26
f 18//26 16//17 20//24
f 46//27 19//25 36//28
f 18//26 21//29 19//25
f 36//28 19//25 21//29
f 18//26 20//24 22//30
f 8//6 39//31 12//15
f 24//16 12//15 23//32
f 42//33 23//32 12//15
f 40//34 13//12 10//10
f 10//10 15//14 25//35
f 15//14 26//36 301//37
f 15//14 14//13 26//36
f 26//36 25//35 301//37
f 25//35 26//36 27//38
f 25//35 43//39 10//10
f 27//38 43//39 25//35
f 28//22 32//40 17//23
f 17//23 32//40 35//41
f 16//17 33//21 20//24
f 34//42 20//24 33//21
f 20//24 34//42 28//22
f 46//27 36//28 58//43
f 20//24 48//44 22//30
f 17//23 37//45 20//24
f 35//41 47//46 37//45
f 22//30 36//28 21//29
f 22//30 38//47 36//28
f 48//44 38//47 22//30
f 58//43 36//28 50//48
f 13//12 55//49 8//6
f 40//34 55//49 13//12
f 42//33 12//15 39//31
f 42//33 41//50 23//32
f 40//34 10//10 43//39
f 27//38 26//36 44//51
f 23//32 41//50 44//51
f 41//50 42//33 302//52
f 88//53 44//51 41//50
f 43//39 27//38 56//54
f 56//54 27//38 44//51
f 56//54 44//51 88//53
f 34//42 32//40 28//22
f 29//19 45//55 31//20
f 30//18 45//55 29//19
f 31//20 45//55 33//21
f 37//45 51//56 20//24
f 47//46 49//57 37//45
f 59//58 51//56 49//57
f 51//56 37//45 49//57
f 61//59 38//47 48//44
f 20//24 51//56 48//44
f 48//44 303//60 61//59
f 303//60 53//61 61//59
f 303//60 64//62 53//61
f 48//44 51//56 52//63
f 51//56 54//64 52//63
f 51//56 8//6 54//64
f 51//56 39//31 8//6
f 51//56 59//58 39//31
f 54//64 64//62 303//60
f 55//49 64//62 54//64
f 8//6 55//49 54//64
f 43//39 91//65 80//66
f 302//52 42//33 88//53
f 56//54 91//65 43//39
f 92//67 56//54 88//53
f 57//68 32//40 96//69
f 96//69 32//40 34//42
f 97//70 32//40 57//68
f 45//55 118//71 33//21
f 50//48 60//72 58//43
f 59//58 49//57 98//73
f 38//47 61//59 60//72
f 61//59 304//74 62//75
f 65//76 306//77 305//77
f 62//75 66//78 63//79
f 59//58 67//80 39//31
f 309//81 308//82 307//83
f 62//75 65//76 66//78
f 68//84 308//82 309//81
f 66//78 65//76 104//85
f 67//80 69//86 39//31
f 70//87 106//88 55//49
f 69//86 42//33 39//31
f 105//89 42//33 69//86
f 108//90 72//91 105//89
f 86//92 71//93 90//94
f 71//93 86//92 109//95
f 322//96 107//97 310//98
f 90//94 71//93 106//88
f 55//49 40//34 70//87
f 70//87 40//34 78//99
f 42//33 105//89 72//91
f 314//100 76//101 74//102
f 314//100 85//103 76//101
f 75//104 321//105 74//102
f 74//102 76//101 75//104
f 106//88 87//106 90//94
f 70//87 78//99 87//106
f 87//106 106//88 70//87
f 312//107 79//108 78//99
f 43//39 313//109 40//34
f 313//109 43//39 80//66
f 72//91 81//110 42//33
f 311//111 89//112 81//110
f 84//113 82//114 83//115
f 85//103 314//100 84//113
f 84//113 77//116 315//117
f 89//112 112//118 92//67
f 88//53 42//33 81//110
f 89//112 88//53 81//110
f 82//114 74//102 93//119
f 93//119 83//115 82//114
f 113//120 84//113 83//115
f 86//92 90//94 94//121
f 92//67 112//118 91//65
f 91//65 56//54 92//67
f 89//112 92//67 88//53
f 93//119 86//92 94//121
f 74//102 86//92 93//119
f 83//115 95//122 130//123
f 130//123 95//122 115//124
f 118//71 34//42 33//21
f 118//71 96//69 34//42
f 47//46 35//41 32//40
f 120//125 46//27 58//43
f 121//126 49//57 47//46
f 121//126 98//73 49//57
f 100//127 122//128 62//75
f 99//129 316//130 318//131
f 100//127 316//130 99//129
f 100//127 99//129 98//73
f 98//73 99//129 59//58
f 62//75 60//72 61//59
f 62//75 63//79 101//132
f 101//132 100//127 62//75
f 66//78 100//127 101//132
f 317//133 102//134 320//135
f 102//134 317//133 319//136
f 66//78 102//134 100//127
f 320//135 102//134 69//86
f 105//89 69//86 102//134
f 103//137 55//49 107//97
f 107//97 55//49 106//88
f 125//138 104//85 107//97
f 105//89 127//139 111//140
f 323//141 110//142 107//97
f 110//142 125//138 107//97
f 106//88 310//98 107//97
f 111//140 112//118 89//112
f 89//112 105//89 111//140
f 89//112 73//143 105//89
f 114//144 78//99 79//108
f 114//144 313//109 111//140
f 129//145 114//144 128//146
f 128//146 114//144 111//140
f 80//66 111//140 313//109
f 113//120 77//116 84//113
f 110//142 77//116 113//120
f 78//99 114//144 87//106
f 116//147 87//106 114//144
f 130//123 113//120 83//115
f 95//122 90//94 115//124
f 87//106 116//147 90//94
f 90//94 116//147 115//124
f 117//148 97//70 96//69
f 145//149 118//71 45//55
f 118//71 145//149 160//150
f 118//71 117//148 96//69
f 145//149 45//55 30//18
f 119//151 30//18 46//27
f 47//46 32//40 121//126
f 120//125 119//151 46//27
f 58//43 134//152 120//125
f 58//43 60//72 134//152
f 62//75 122//128 60//72
f 123//153 122//128 100//127
f 124//154 123//153 98//73
f 100//127 98//73 123//153
f 66//78 104//85 125//138
f 66//78 126//155 102//134
f 136//156 126//155 66//78
f 126//155 127//139 102//134
f 105//89 102//134 127//139
f 136//156 128//146 111//140
f 138//157 110//142 113//120
f 116//147 114//144 129//145
f 129//145 139//158 116//147
f 131//159 130//123 115//124
f 131//159 115//124 132//160
f 116//147 139//158 140//161
f 115//124 141//162 132//160
f 116//147 140//161 115//124
f 175//163 32//40 97//70
f 120//125 134//152 146//164
f 122//128 123//153 147//165
f 121//126 124//154 98//73
f 147//165 324//166 124//154
f 324//166 147//165 123//153
f 134//152 60//72 135//167
f 135//167 148//168 134//152
f 60//72 122//128 135//167
f 150//169 151//170 125//138
f 125//138 151//170 66//78
f 136//156 66//78 151//170
f 136//156 111//140 127//139
f 110//142 150//169 125//138
f 152//171 128//146 136//156
f 128//146 152//171 137//172
f 110//142 138//157 150//169
f 153//173 139//158 129//145
f 153//173 129//145 128//146
f 113//120 130//123 138//157
f 141//162 155//174 132//160
f 140//161 141//162 115//124
f 133//175 141//162 140//161
f 140//161 142//176 133//175
f 142//176 140//161 159//177
f 143//178 144//179 133//175
f 142//176 143//178 133//175
f 158//180 143//178 142//176
f 176//181 160//150 145//149
f 147//165 124//154 121//126
f 161//182 149//183 122//128
f 122//128 179//184 161//182
f 122//128 147//165 162//185
f 179//184 122//128 162//185
f 148//168 325//186 134//152
f 163//187 325//186 148//168
f 149//183 135//167 122//128
f 151//170 152//171 136//156
f 150//169 138//157 166//188
f 137//172 154//189 128//146
f 153//173 128//146 154//189
f 154//189 137//172 167//190
f 167//190 137//172 152//171
f 132//160 138//157 130//123
f 153//173 140//161 139//158
f 140//161 153//173 156//191
f 169//192 153//173 154//189
f 153//173 169//192 156//191
f 157//193 155//174 141//162
f 156//191 159//177 140//161
f 144//179 157//193 141//162
f 158//180 142//176 326//194
f 159//177 158//180 326//194
f 144//179 141//162 133//175
f 144//179 143//178 174//195
f 143//178 158//180 174//195
f 160//150 117//148 118//71
f 119//151 120//125 190//196
f 190//196 120//125 256//197
f 191//198 121//126 32//40
f 256//197 120//125 146//164
f 178//199 147//165 121//126
f 134//152 163//187 146//164
f 180//200 147//165 178//199
f 164//201 163//187 148//168
f 181//202 163//187 164//201
f 150//169 193//203 151//170
f 193//203 165//204 151//170
f 327//205 152//171 151//170
f 152//171 327//205 165//204
f 150//169 166//188 196//206
f 166//188 138//157 132//160
f 168//207 154//189 167//190
f 206//208 132//160 155//174
f 154//189 168//207 156//191
f 170//209 156//191 168//207
f 171//210 206//208 155//174
f 156//191 172//211 159//177
f 171//210 157//193 173//212
f 157//193 144//179 173//212
f 158//180 159//177 172//211
f 158//180 188//213 174//195
f 189//214 144//179 174//195
f 175//163 97//70 117//148
f 177//215 119//151 190//196
f 179//184 162//185 180//200
f 179//184 180//200 210//216
f 146//164 163//187 181//202
f 193//203 150//169 219//217
f 165//204 194//218 152//171
f 183//219 195//220 152//171
f 219//217 150//169 196//206
f 197//221 167//190 195//220
f 167//190 152//171 195//220
f 166//188 198//222 196//206
f 204//223 166//188 132//160
f 184//224 168//207 197//221
f 197//221 168//207 167//190
f 204//223 132//160 206//208
f 185//225 168//207 184//224
f 185//225 170//209 168//207
f 206//208 171//210 185//225
f 186//226 170//209 185//225
f 156//191 170//209 172//211
f 173//212 185//225 171//210
f 185//225 207//227 187//228
f 185//225 187//228 186//226
f 173//212 207//227 185//225
f 188//213 186//226 187//228
f 172//211 188//213 158//180
f 188//213 172//211 186//226
f 173//212 189//214 207//227
f 174//195 188//213 189//214
f 144//179 189//214 173//212
f 117//148 160//150 208//229
f 32//40 273//230 191//198
f 178//199 210//216 180//200
f 178//199 213//231 210//216
f 212//232 178//199 121//126
f 191//198 212//232 121//126
f 182//233 161//182 192//234
f 192//234 161//182 179//184
f 165//204 193//203 217//235
f 165//204 217//235 194//218
f 195//220 194//218 229//236
f 219//217 220//237 193//203
f 197//221 195//220 229//236
f 230//238 196//206 198//222
f 197//221 200//239 184//224
f 197//221 202//240 200//239
f 197//221 229//236 202//240
f 166//188 230//238 198//222
f 231//241 230//238 166//188
f 200//239 199//242 184//224
f 203//243 231//241 166//188
f 166//188 328//244 203//243
f 204//223 205//245 203//243
f 203//243 205//245 232//246
f 205//245 204//223 206//208
f 199//242 206//208 185//225
f 185//225 184//224 199//242
f 188//213 207//227 189//214
f 175//163 273//230 32//40
f 176//181 234//247 160//150
f 210//216 213//231 214//248
f 192//234 179//184 215//249
f 179//184 216//250 215//249
f 215//249 216//250 239//251
f 210//216 216//250 179//184
f 242//252 217//235 218//253
f 218//253 217//235 193//203
f 217//235 244//254 194//218
f 219//217 248//255 330//256
f 223//257 220//237 330//256
f 330//256 248//255 223//257
f 194//218 221//258 229//236
f 222//259 219//217 196//206
f 230//238 226//260 225//261
f 222//259 332//262 227//263
f 222//259 227//263 228//264
f 225//261 196//206 230//238
f 228//264 219//217 222//259
f 201//265 229//236 251//266
f 201//265 251//266 200//239
f 200//239 251//266 250//267
f 227//263 230//238 231//241
f 231//241 228//264 227//263
f 250//267 199//242 200//239
f 250//267 253//268 206//208
f 231//241 203//243 232//246
f 232//246 205//245 233//269
f 233//269 253//268 232//246
f 233//269 206//208 253//268
f 250//267 206//208 199//242
f 208//229 175//163 117//148
f 235//270 208//229 160//150
f 254//271 273//230 175//163
f 234//247 176//181 209//272
f 234//247 235//270 160//150
f 256//197 146//164 259//273
f 212//232 191//198 258//274
f 237//275 214//248 211//276
f 192//234 238//277 181//202
f 259//273 181//202 238//277
f 262//278 236//279 215//249
f 214//248 237//275 210//216
f 237//275 241//280 210//216
f 192//234 236//279 238//277
f 215//249 236//279 192//234
f 239//251 262//278 215//249
f 210//216 240//281 216//250
f 333//282 241//280 336//283
f 217//235 239//251 244//254
f 239//251 217//235 334//284
f 334//284 329//285 243//286
f 239//251 334//284 243//286
f 336//283 194//218 244//254
f 336//283 245//287 194//218
f 245//287 336//283 241//280
f 338//288 337//288 265//288
f 220//237 246//289 243//286
f 218//253 193//203 335//290
f 220//237 243//286 193//203
f 245//287 221//258 194//218
f 245//287 247//291 221//258
f 245//287 264//292 247//291
f 331//293 246//289 220//237
f 219//217 228//264 249//294
f 224//295 249//294 250//267
f 224//295 250//267 246//289
f 246//289 250//267 251//266
f 266//296 246//289 251//266
f 268//297 221//258 247//291
f 221//258 252//298 229//236
f 221//258 268//297 252//298
f 249//294 253//268 250//267
f 249//294 228//264 253//268
f 231//241 339//299 228//264
f 253//268 228//264 340//300
f 256//197 234//247 190//196
f 234//247 256//197 255//301
f 255//301 235//270 234//247
f 272//302 235//270 255//301
f 277//303 191//198 273//230
f 191//198 277//303 258//274
f 262//278 257//304 272//302
f 236//279 262//278 272//302
f 260//305 257//304 262//278
f 237//275 211//276 258//274
f 259//273 146//164 181//202
f 278//306 259//273 238//277
f 236//279 261//307 238//277
f 260//305 262//278 263//308
f 263//308 279//309 260//305
f 237//275 260//305 279//309
f 243//286 262//278 239//251
f 243//286 263//308 262//278
f 241//280 237//275 279//309
f 243//286 246//289 266//296
f 243//286 280//310 263//308
f 279//309 264//292 241//280
f 266//296 280//310 243//286
f 279//309 267//311 264//292
f 267//311 247//291 264//292
f 281//312 266//296 251//266
f 282//313 341//314 267//311
f 267//311 341//314 247//291
f 251//266 252//298 281//312
f 251//266 229//236 252//298
f 269//315 342//316 268//297
f 268//297 271//317 252//298
f 268//297 270//318 271//317
f 342//316 269//315 270//318
f 283//319 270//318 269//315
f 282//313 283//319 269//315
f 235//270 254//271 208//229
f 235//270 286//320 254//271
f 286//320 235//270 272//302
f 255//301 274//321 272//302
f 276//322 255//301 256//197
f 272//302 257//304 286//320
f 276//322 256//197 259//273
f 274//321 276//322 272//302
f 286//320 277//303 275//323
f 236//279 272//302 276//322
f 276//322 261//307 236//279
f 286//320 257//304 260//305
f 286//320 260//305 277//303
f 276//322 259//273 261//307
f 237//275 258//274 260//305
f 258//274 277//303 260//305
f 279//309 263//308 287//324
f 280//310 287//324 263//308
f 344//325 280//310 266//296
f 252//298 284//326 281//312
f 283//319 282//313 288//327
f 284//326 252//298 271//317
f 284//326 271//317 285//328
f 285//328 343//329 270//318
f 254//271 286//320 273//230
f 273//230 286//320 275//323
f 279//309 292//330 267//311
f 291//331 344//325 266//296
f 290//332 344//325 291//331
f 282//313 267//311 293//333
f 282//313 293//333 288//327
f 289//334 288//327 293//333
f 270//318 283//319 285//328
f 289//334 285//328 283//319
f 280//310 290//332 287//324
f 287//324 292//330 279//309
f 294//335 290//332 291//331
f 266//296 281//312 294//335
f 292//330 293//333 267//311
f 284//326 293//333 281//312
f 284//326 289//334 293//333
f 284//326 285//328 289//334
f 295//336 294//335 281//312
f 295//336 290//332 294//335
f 287//324 290//332 295//336
f 295//336 281//312 298//337
f 292//330 296//338 293//333
f 281//312 293//333 296//338
f 295//336 297//339 287//324
f 297//339 292//330 287//324
f 298//337 300//340 295//336
f 281//312 296//338 299//341
f 296//338 297//339 299//341
f 299//341 298//337 281//312
f 297//339 295//336 300//340
f 298//337 299//341 300//340
f 299//341 297//339 300//340
