# Blender 4.0.2
# www.blender.org
mtllib rib11_r.mtl
o rib11_r.002
v 0.002376 0.004105 0.000716
v 0.002689 0.000567 0.000970
v 0.004180 0.001802 0.003039
v 0.003520 -0.000494 0.002561
v 0.003970 -0.000225 0.004344
v 0.001565 0.005835 0.000767
v 0.001691 0.006668 0.002796
v 0.003193 0.004338 0.002924
v -0.000311 -0.000283 -0.000266
v 0.000481 -0.004067 0.000885
v 0.003910 0.002436 0.004470
v 0.003152 0.000737 0.006236
v 0.002465 0.002881 0.005760
v 0.001405 -0.004843 0.004109
v 0.038990 -0.103524 0.085063
v 0.041335 -0.102785 0.088245
v 0.040810 -0.101775 0.086664
v 0.041512 -0.102091 0.087788
v 0.041542 -0.100630 0.088243
v 0.041732 -0.101676 0.089996
v -0.000976 0.007016 0.000834
v 0.000236 0.007411 0.001519
v -0.000094 0.003162 -0.000152
v 0.000394 0.007752 0.002686
v 0.000498 0.007242 0.003733
v -0.000541 -0.004985 0.000844
v -0.001651 -0.004896 0.000844
v -0.001036 -0.006609 0.002465
v 0.001403 -0.002311 0.007066
v -0.000612 -0.006657 0.003034
v 0.000301 -0.006246 0.003088
v 0.036944 -0.102746 0.084438
v 0.037812 -0.102064 0.084667
v 0.039497 -0.100254 0.086544
v 0.038530 -0.104207 0.085332
v 0.037642 -0.105072 0.087202
v 0.041519 -0.099481 0.090706
v 0.039388 -0.104508 0.088677
v 0.041407 -0.101770 0.090749
v -0.003367 0.006658 0.001415
v -0.001932 0.008423 0.002535
v -0.002568 0.008084 0.002001
v -0.002015 0.008140 0.004166
v -0.001670 -0.001245 -0.000122
v -0.002160 0.005403 0.006927
v -0.002669 -0.005851 0.004298
v 0.000517 -0.004124 0.006627
v 0.035103 -0.100898 0.084939
v 0.036249 -0.098754 0.086370
v 0.039160 -0.097025 0.089921
v 0.040122 -0.097397 0.091598
v 0.039923 -0.097496 0.092324
v 0.036260 -0.105110 0.088724
v 0.037207 -0.104468 0.089765
v 0.040347 -0.099649 0.092374
v 0.038454 -0.098869 0.093213
v 0.039972 -0.101354 0.091904
v -0.003102 0.008489 0.003632
v -0.002164 -0.004007 0.007545
v 0.036073 -0.096060 0.088907
v 0.037059 -0.095263 0.091221
v 0.033520 -0.103883 0.086473
v 0.035067 -0.105074 0.087273
v 0.038371 -0.096866 0.093019
v -0.006451 0.006826 0.003367
v -0.006670 0.001391 0.002243
v -0.007432 -0.004005 0.004916
v -0.005483 -0.005045 0.004749
v -0.005341 -0.005437 0.005719
v -0.005017 -0.002768 0.009273
v 0.032148 -0.104109 0.088761
v 0.034897 -0.096038 0.093648
v 0.033921 -0.099975 0.092413
v -0.007881 0.007294 0.005510
v -0.004923 0.000181 0.009392
v 0.030615 -0.093447 0.086688
v 0.030163 -0.097223 0.085310
v 0.034831 -0.094006 0.092886
v 0.032551 -0.103053 0.090250
v 0.029425 -0.102803 0.088164
v -0.010032 0.004281 0.004404
v 0.025835 -0.091801 0.085210
v 0.028925 -0.099614 0.086594
v 0.027592 -0.101594 0.089163
v -0.011368 0.004884 0.005929
v -0.010224 0.006228 0.008858
v -0.008094 -0.004974 0.009778
v 0.028499 -0.089255 0.090174
v 0.027491 -0.100979 0.087078
v 0.030780 -0.096952 0.092722
v -0.012114 0.000124 0.013258
v 0.025988 -0.090086 0.086093
v 0.023603 -0.085971 0.087559
v 0.027492 -0.088833 0.091281
v 0.029553 -0.090878 0.092571
v 0.026217 -0.101128 0.087704
v 0.027549 -0.101844 0.088153
v -0.012912 0.005168 0.008434
v -0.011680 0.003230 0.012040
v -0.012807 -0.004216 0.008521
v -0.012270 -0.006100 0.010179
v 0.020863 -0.090909 0.084527
v 0.023928 -0.096187 0.086105
v 0.021946 -0.098355 0.086312
v 0.028603 -0.091430 0.092710
v 0.022937 -0.099669 0.087427
v -0.014873 0.000178 0.008065
v -0.013036 -0.006773 0.011894
v -0.012275 -0.003912 0.013559
v 0.020142 -0.087079 0.084594
v 0.019208 -0.082623 0.087159
v 0.025239 -0.087344 0.091015
v -0.015899 0.001478 0.008686
v -0.014131 0.004388 0.011445
v -0.017276 -0.000907 0.008134
v -0.014186 0.002891 0.012959
v -0.014864 -0.007209 0.013853
v 0.017406 -0.095911 0.087283
v -0.018560 -0.002359 0.008638
v -0.016535 0.002460 0.009739
v -0.015696 -0.005729 0.009959
v 0.016068 -0.083413 0.083686
v 0.017941 -0.092533 0.089229
v -0.019086 -0.000408 0.009439
v -0.018955 -0.010601 0.014426
v -0.020300 -0.011854 0.015917
v 0.014454 -0.078839 0.087280
v 0.016782 -0.095583 0.086300
v 0.014308 -0.093018 0.084917
v 0.016451 -0.094434 0.087881
v -0.019859 0.000711 0.011829
v -0.022265 0.000063 0.015229
v 0.016013 -0.079918 0.086524
v 0.011480 -0.084988 0.082445
v -0.021560 0.000346 0.015561
v -0.021422 -0.006423 0.011524
v -0.021879 -0.005428 0.018605
v -0.021944 -0.008652 0.018902
v -0.021724 -0.012072 0.017805
v 0.013913 -0.078622 0.084502
v 0.011288 -0.079972 0.081775
v 0.014190 -0.080253 0.088271
v 0.014533 -0.085081 0.088943
v 0.012353 -0.092952 0.084925
v 0.011296 -0.092122 0.085422
v 0.013579 -0.090489 0.087753
v -0.023012 -0.004494 0.012428
v -0.023242 -0.003912 0.018467
v -0.026526 -0.009583 0.014470
v -0.025512 -0.011235 0.013999
v 0.008400 -0.072512 0.083009
v 0.004187 -0.085867 0.080381
v -0.025015 -0.002446 0.015937
v -0.024924 -0.002182 0.016719
v -0.024354 -0.002336 0.017415
v -0.026309 -0.017483 0.018542
v 0.002071 -0.068078 0.077860
v 0.006705 -0.077310 0.078887
v -0.001359 -0.074839 0.074309
v 0.005537 -0.070350 0.082670
v 0.003379 -0.073180 0.083132
v 0.004009 -0.081236 0.083235
v 0.004156 -0.085575 0.082356
v -0.027575 -0.011922 0.015367
v -0.026175 -0.007371 0.021911
v 0.003445 -0.068216 0.079980
v 0.005525 -0.071287 0.083410
v 0.002870 -0.085434 0.080201
v 0.004165 -0.086676 0.081613
v -0.028863 -0.008070 0.017995
v -0.028453 -0.005384 0.019124
v -0.028871 -0.016211 0.017835
v -0.026192 -0.010050 0.023246
v -0.025584 -0.013574 0.022559
v -0.026260 -0.017321 0.021611
v -0.004847 -0.067389 0.071556
v -0.029164 -0.006209 0.020946
v -0.029481 -0.013701 0.017363
v -0.028018 -0.019799 0.021549
v -0.006092 -0.062425 0.071419
v -0.002086 -0.063245 0.077063
v -0.002621 -0.063195 0.077892
v -0.003282 -0.063823 0.078337
v -0.002665 -0.080626 0.077037
v -0.001111 -0.082000 0.078715
v -0.028346 -0.006272 0.021732
v -0.031667 -0.023489 0.024898
v -0.028608 -0.017098 0.028574
v -0.028999 -0.021833 0.025866
v -0.007101 -0.058643 0.072893
v -0.010592 -0.069604 0.069513
v -0.031638 -0.008884 0.022092
v -0.032321 -0.010216 0.026560
v -0.030810 -0.010263 0.027515
v -0.033608 -0.019496 0.023900
v -0.032659 -0.021841 0.023551
v -0.009229 -0.063804 0.068717
v -0.006684 -0.059016 0.074459
v -0.008469 -0.065128 0.076183
v -0.010810 -0.072986 0.073004
v -0.033113 -0.010554 0.025066
v -0.033470 -0.015476 0.023594
v -0.030953 -0.024484 0.026916
v -0.029434 -0.019954 0.031570
v -0.030526 -0.025816 0.030141
v -0.010326 -0.056425 0.068654
v -0.014012 -0.058235 0.064590
v -0.009317 -0.057211 0.073805
v -0.013077 -0.069335 0.068777
v -0.009981 -0.071574 0.070831
v -0.011559 -0.072055 0.073376
v -0.029684 -0.012819 0.029327
v -0.033326 -0.023233 0.025413
v -0.031697 -0.025700 0.027889
v -0.033702 -0.025089 0.028048
v -0.017340 -0.050760 0.061688
v -0.018747 -0.062653 0.062324
v -0.011884 -0.058808 0.073228
v -0.034389 -0.022730 0.026895
v -0.030597 -0.019071 0.035942
v -0.033992 -0.028261 0.030934
v -0.029986 -0.024713 0.036394
v -0.030184 -0.022930 0.037678
v -0.030638 -0.030790 0.036648
v -0.018024 -0.046097 0.061844
v -0.017923 -0.046684 0.064359
v -0.016421 -0.061120 0.062844
v -0.014278 -0.069379 0.069047
v -0.034968 -0.016358 0.027631
v -0.035142 -0.015404 0.030599
v -0.031954 -0.016778 0.035571
v -0.030795 -0.022113 0.041640
v -0.032718 -0.033693 0.036983
v -0.030047 -0.033971 0.040790
v -0.029086 -0.031337 0.043129
v -0.025205 -0.043764 0.051018
v -0.022129 -0.040891 0.056704
v -0.021882 -0.051600 0.056352
v -0.018085 -0.045922 0.062828
v -0.023031 -0.054027 0.056047
v -0.020499 -0.044090 0.062440
v -0.023735 -0.043034 0.061083
v -0.035189 -0.016665 0.034039
v -0.036080 -0.021151 0.031646
v -0.033159 -0.016626 0.035873
v -0.034459 -0.031908 0.035256
v -0.031254 -0.037209 0.041800
v -0.029917 -0.036896 0.042629
v -0.027140 -0.031479 0.049933
v -0.028155 -0.036331 0.045805
v -0.029475 -0.041428 0.045099
v -0.028115 -0.040149 0.045623
v -0.023569 -0.037254 0.055567
v -0.026632 -0.046726 0.050081
v -0.024709 -0.035120 0.055695
v -0.027095 -0.048843 0.050966
v -0.024566 -0.054887 0.056031
v -0.018666 -0.050564 0.066901
v -0.023407 -0.060264 0.060851
v -0.020875 -0.063733 0.063905
v -0.020350 -0.063854 0.065982
v -0.019104 -0.062008 0.067900
v -0.035629 -0.018352 0.035571
v -0.036386 -0.024931 0.035842
v -0.035485 -0.029679 0.034911
v -0.032849 -0.020149 0.041190
v -0.034891 -0.033066 0.037635
v -0.031276 -0.022843 0.045655
v -0.029469 -0.025025 0.046137
v -0.032793 -0.036884 0.041668
v -0.028340 -0.027963 0.049676
v -0.030865 -0.043313 0.046807
v -0.026965 -0.032411 0.054657
v -0.028432 -0.048512 0.050726
v -0.022756 -0.049753 0.063932
v -0.036059 -0.027690 0.042296
v -0.032431 -0.022487 0.045412
v -0.033997 -0.035983 0.042056
v -0.030294 -0.025348 0.047996
v -0.031472 -0.025755 0.048844
v -0.029536 -0.026854 0.050032
v -0.031759 -0.045532 0.050968
v -0.025501 -0.037583 0.058111
v -0.028160 -0.052936 0.055118
v -0.026662 -0.045829 0.059835
v -0.027803 -0.054257 0.057259
v -0.024480 -0.059353 0.061142
v -0.025154 -0.056852 0.061935
v -0.035688 -0.023461 0.042578
v -0.035757 -0.031066 0.041899
v -0.034056 -0.024059 0.046088
v -0.029948 -0.030438 0.052829
v -0.030430 -0.033380 0.054076
v -0.032098 -0.044416 0.051944
v -0.028006 -0.053602 0.058346
v -0.035088 -0.025728 0.046052
v -0.033476 -0.027196 0.049055
v -0.034003 -0.028276 0.048965
v -0.031065 -0.037045 0.054181
v -0.032849 -0.040786 0.051105
v 0.027565 -0.101860 0.088156
v -0.032883 -0.020090 0.041014
vn 0.6506 0.2046 -0.7313
vn 0.8708 0.4917 -0.0041
vn 0.9725 0.0738 -0.2209
vn 0.5328 0.4695 -0.7040
vn 0.1564 -0.0754 -0.9848
vn 0.6419 -0.1221 -0.7570
vn 0.5555 -0.3997 -0.7292
vn 0.8629 -0.3313 -0.3816
vn 0.8812 0.3136 0.3538
vn 0.9450 -0.2804 0.1682
vn 0.0094 0.0992 -0.9950
vn -0.0312 0.5044 -0.8629
vn 0.3822 0.7646 -0.5190
vn 0.4826 0.8758 -0.0009
vn 0.7575 0.6427 0.1148
vn 0.5089 0.6918 0.5122
vn 0.5474 0.4313 0.7171
vn 0.6856 0.0416 0.7268
vn 0.5572 -0.8303 -0.0091
vn 0.7855 -0.6015 0.1456
vn 0.5387 -0.3086 -0.7840
vn 0.9202 -0.1780 -0.3487
vn 0.8116 -0.5779 -0.0858
vn 0.4671 0.5411 -0.6993
vn 0.8634 0.3527 -0.3607
vn 0.7257 0.1125 -0.6788
vn 0.9522 -0.2568 0.1652
vn 0.9330 0.3221 0.1608
vn -0.3768 0.3284 -0.8661
vn 0.0925 0.9693 -0.2276
vn -0.4882 -0.0803 -0.8690
vn -0.2706 -0.1361 -0.9530
vn 0.2361 -0.5339 -0.8119
vn -0.3209 -0.4816 -0.8155
vn -0.0642 -0.9185 -0.3902
vn 0.5839 -0.2727 0.7647
vn 0.1985 -0.9543 0.2235
vn 0.4494 -0.6281 0.6352
vn 0.2759 -0.7514 -0.5994
vn -0.0920 -0.2155 -0.9722
vn 0.2894 0.2769 -0.9163
vn 0.5620 0.7289 -0.3910
vn 0.4646 -0.8600 0.2110
vn 0.1782 -0.9702 -0.1643
vn 0.7069 -0.4474 0.5478
vn 0.5883 -0.0782 0.8049
vn 0.2645 -0.5092 0.8190
vn 0.7358 0.6748 0.0572
vn 0.6541 0.4629 0.5982
vn -0.2277 0.7604 -0.6082
vn 0.2520 0.8500 0.4626
vn 0.3539 0.4959 0.7930
vn 0.4254 -0.2145 0.8792
vn 0.0980 -0.8738 0.4763
vn 0.2614 -0.6798 0.6853
vn -0.0916 0.1067 -0.9901
vn 0.3372 0.5474 -0.7660
vn 0.4804 0.6854 -0.5473
vn -0.3514 -0.6109 -0.7094
vn -0.2079 -0.9376 -0.2786
vn -0.0449 -0.9457 0.3220
vn 0.0673 -0.7551 0.6522
vn 0.1784 -0.1748 0.9683
vn -0.4794 0.5971 -0.6431
vn -0.0976 0.9939 0.0510
vn -0.4874 -0.4976 -0.7175
vn -0.0217 -0.9995 0.0247
vn -0.4019 -0.8079 -0.4310
vn 0.4341 0.0756 0.8977
vn 0.5542 0.8217 -0.1332
vn 0.4130 0.3866 0.8246
vn -0.1705 -0.4179 0.8924
vn -0.3834 0.9071 -0.1737
vn -0.5765 0.2281 -0.7846
vn -0.0758 0.8988 0.4317
vn 0.4563 0.5248 -0.7186
vn -0.1946 -0.2813 -0.9397
vn 0.5971 0.7887 -0.1460
vn 0.4231 0.6671 0.6131
vn -0.3486 -0.9022 0.2541
vn 0.0324 0.0519 0.9981
vn -0.2378 -0.6228 0.7454
vn -0.0065 -0.0327 -0.9994
vn -0.4551 -0.8739 -0.1708
vn -0.6306 0.4943 -0.5983
vn 0.2873 0.4895 0.8233
vn 0.0576 -0.8762 -0.4784
vn 0.3996 -0.7575 0.5162
vn 0.2872 0.2465 -0.9256
vn -0.2013 -0.4846 -0.8513
vn -0.2702 -0.2576 0.9277
vn -0.4318 -0.6901 0.5807
vn 0.4039 0.1869 0.8955
vn 0.5053 0.5096 -0.6964
vn -0.0274 -0.2767 -0.9606
vn 0.1764 0.5459 0.8190
vn -0.1581 0.1404 0.9774
vn -0.5107 -0.6560 0.5557
vn -0.3722 -0.8739 -0.3125
vn -0.3483 -0.0256 -0.9370
vn -0.5313 0.8228 -0.2019
vn -0.3019 -0.5030 -0.8098
vn 0.5343 -0.2165 0.8171
vn 0.0930 -0.1059 -0.9900
vn 0.5874 0.6667 -0.4588
vn 0.4212 0.7524 0.5065
vn -0.4786 -0.8780 0.0057
vn 0.5846 -0.7728 0.2469
vn 0.3834 0.2529 -0.8883
vn 0.3217 0.6761 0.6629
vn -0.1765 -0.5270 -0.8313
vn -0.4745 -0.8784 -0.0575
vn -0.5056 0.3015 -0.8084
vn -0.1843 0.8862 0.4250
vn 0.1598 0.5587 0.8138
vn 0.6429 -0.4741 0.6016
vn 0.5796 0.5703 -0.5821
vn -0.3549 -0.0030 0.9349
vn -0.3500 -0.2163 0.9115
vn -0.5373 -0.7352 0.4133
vn -0.4734 -0.4542 0.7547
vn -0.6186 0.5771 -0.5332
vn -0.2774 0.1188 -0.9534
vn -0.4141 -0.1668 -0.8948
vn -0.1431 -0.5856 -0.7978
vn 0.2421 -0.7570 -0.6070
vn 0.4547 0.2381 -0.8582
vn -0.6392 0.3864 -0.6649
vn -0.5993 0.8003 -0.0153
vn 0.7090 -0.6708 0.2177
vn 0.3953 0.7180 0.5728
vn 0.0116 -0.3965 -0.9179
vn -0.4733 -0.8253 -0.3080
vn -0.2047 0.8018 0.5615
vn 0.2407 0.5074 0.8274
vn 0.2887 -0.1591 -0.9441
vn 0.6421 0.7628 -0.0768
vn -0.1129 0.3379 0.9344
vn -0.6682 0.6304 -0.3951
vn -0.6757 0.1651 -0.7185
vn -0.2744 -0.3461 -0.8972
vn 0.4349 0.2277 0.8712
vn 0.6299 -0.0382 0.7757
vn 0.7494 -0.2626 0.6078
vn 0.6787 0.4694 -0.5648
vn 0.5432 0.1013 -0.8335
vn -0.3739 -0.8333 -0.4072
vn -0.6465 -0.6141 0.4526
vn -0.4853 -0.2253 0.8448
vn 0.3661 -0.2359 -0.9002
vn 0.4962 -0.0672 -0.8656
vn 0.6875 0.7260 -0.0119
vn 0.0184 -0.6014 -0.7987
vn -0.6319 -0.3029 0.7134
vn -0.7485 0.5288 -0.4002
vn -0.5860 0.7954 0.1547
vn -0.1611 0.7326 0.6613
vn -0.2301 -0.3620 -0.9033
vn 0.2747 -0.7626 -0.5856
vn 0.6974 0.7019 -0.1446
vn -0.0805 0.4422 0.8933
vn -0.4195 0.1000 0.9022
vn -0.6519 -0.7538 0.0825
vn -0.5433 -0.1056 0.8329
vn -0.6553 0.0881 -0.7502
vn -0.6183 -0.1246 -0.7760
vn 0.4607 0.4893 0.7405
vn 0.8437 -0.1236 0.5224
vn 0.8537 -0.4223 0.3047
vn 0.7253 0.4567 -0.5151
vn 0.3642 0.7631 0.5339
vn -0.3899 -0.7850 -0.4814
vn -0.8112 0.2679 -0.5198
vn -0.3696 -0.4815 -0.7947
vn 0.7663 0.1775 0.6175
vn 0.6626 -0.7218 -0.1999
vn 0.7057 0.2508 -0.6626
vn 0.5113 -0.0198 -0.8592
vn -0.8127 0.5466 -0.2019
vn -0.6603 0.7463 0.0836
vn -0.0619 0.8069 0.5875
vn -0.7359 -0.0775 -0.6727
vn 0.6793 0.7331 0.0349
vn 0.2996 0.7325 0.6113
vn -0.2122 0.3862 0.8977
vn -0.4613 -0.7752 -0.4315
vn -0.7190 -0.6215 0.3110
vn 0.9336 -0.0319 0.3569
vn 0.7994 0.5421 -0.2591
vn 0.3065 -0.3809 -0.8724
vn -0.8514 0.4423 -0.2818
vn 0.7054 0.4240 0.5680
vn -0.5248 -0.4986 -0.6899
vn 0.0048 -0.7886 -0.6149
vn 0.8960 -0.4425 0.0378
vn 0.5720 -0.0952 -0.8147
vn 0.5790 0.7793 0.2398
vn -0.7398 -0.3963 0.5437
vn -0.8727 0.4845 -0.0601
vn -0.5247 0.7697 0.3637
vn 0.0468 0.7919 0.6089
vn -0.8640 -0.1194 -0.4892
vn -0.9006 0.0719 -0.4286
vn 0.5794 -0.6921 -0.4305
vn 0.8062 0.3341 -0.4883
vn -0.0800 -0.6656 -0.7420
vn -0.5207 0.0592 0.8517
vn -0.5934 -0.7807 -0.1960
vn -0.6014 -0.5606 -0.5692
vn 0.1751 -0.7698 -0.6138
vn 0.9404 -0.3046 -0.1512
vn 0.9888 -0.0317 0.1456
vn 0.7459 0.1121 -0.6566
vn 0.5481 -0.2805 -0.7880
vn 0.6576 -0.0312 -0.7527
vn 0.0058 0.6119 0.7909
vn 0.0147 -0.6878 -0.7258
vn -0.9666 0.1080 -0.2325
vn -0.8860 -0.2458 -0.3931
vn -0.4981 -0.6021 -0.6240
vn 0.8944 0.3375 0.2935
vn 0.9866 0.1423 0.0802
vn 0.9992 -0.0283 -0.0279
vn 0.1602 -0.5900 -0.7914
vn -0.4984 0.1855 0.8469
vn -0.2498 -0.7989 -0.5471
vn -0.9319 0.3602 0.0420
vn 0.4864 0.6698 0.5610
vn -0.9887 0.0010 -0.1500
vn -0.4761 -0.6236 -0.6200
vn 0.1828 -0.7764 -0.6032
vn 0.9910 -0.0183 -0.1330
vn 0.8730 -0.2398 -0.4247
vn 0.7304 -0.0834 -0.6779
vn 0.4695 -0.3670 -0.8031
vn 0.8701 0.3404 -0.3565
vn 0.7137 0.6813 0.1628
vn 0.4899 0.7747 0.3999
vn 0.1201 0.6389 0.7598
vn -0.6859 -0.0573 0.7254
vn -0.7395 0.5896 0.3248
vn -0.1460 0.8084 0.5703
vn -0.9208 -0.2984 -0.2513
vn 0.7985 0.5718 0.1884
vn -0.5222 -0.6546 -0.5466
vn 0.9701 0.0227 -0.2417
vn 0.8748 0.4671 0.1288
vn 0.9389 -0.0018 -0.3442
vn 0.8444 0.1306 -0.5196
vn 0.8419 -0.0383 -0.5382
vn 0.6341 -0.3093 -0.7087
vn 0.9031 0.3213 -0.2848
vn 0.0428 -0.6184 -0.7847
vn -0.4064 0.3345 0.8503
vn -0.4423 0.3130 0.8405
vn -0.5548 -0.7772 -0.2970
vn 0.1917 0.8507 0.4895
vn 0.2331 -0.6521 -0.7214
vn -0.3897 -0.7255 -0.5672
vn 0.7366 -0.3060 -0.6031
vn 0.9425 0.2089 -0.2609
vn 0.2821 -0.5261 -0.8023
vn 0.7872 -0.1471 -0.5989
vn 0.2131 -0.5560 -0.8034
vn 0.7730 0.5988 0.2095
vn 0.2188 0.6523 0.7257
vn -0.4241 -0.7371 -0.5261
vn -0.5787 -0.6633 -0.4745
vn -0.6202 0.1446 0.7710
vn -0.8001 -0.4287 0.4195
vn -0.9063 0.3593 0.2224
vn -0.9982 -0.0358 -0.0478
vn 0.6932 0.7107 0.1198
vn 0.4331 0.7712 0.4665
vn -0.8020 -0.5275 -0.2801
vn -0.8231 -0.5086 -0.2525
vn 0.8464 0.5108 0.1506
vn -0.4014 -0.6460 -0.6493
vn 0.3154 0.7312 0.6049
vn -0.1915 -0.6548 -0.7312
vn -0.2118 0.4563 0.8642
vn -0.8229 -0.5665 0.0432
vn -0.8087 -0.1605 0.5659
vn -0.8974 0.3367 0.2853
vn -0.5696 0.5842 0.5782
vn -0.9898 -0.0234 0.1408
vn -0.9808 -0.1914 0.0367
vn -0.1590 0.8010 0.5772
vn 0.3935 0.7622 0.5140
vn -0.1240 0.6895 0.7136
vn -0.2717 0.5212 0.8090
vn -0.8604 -0.4685 -0.2004
vn -0.6823 0.1139 0.7221
vn -0.5551 0.2852 0.7814
vn -0.8274 -0.5528 -0.0988
vn -0.8999 -0.2328 0.3686
vn -0.9388 -0.0906 0.3324
vn -0.5569 0.4451 0.7012
vn -0.9519 -0.2059 0.2269
vn -0.7791 0.0660 0.6234
vn -0.8818 0.2255 0.4142
vn -0.8340 0.1390 0.5340
s 1
usemtl mtl1.1068
f 1//1 8//2 3//3
f 1//1 6//4 8//2
f 9//5 2//6 10//7
f 1//1 3//3 2//6
f 4//8 2//6 3//3
f 3//3 11//9 5//10
f 8//2 11//9 3//3
f 3//3 5//10 4//8
f 1//1 23//11 6//4
f 6//4 21//12 22//13
f 6//4 24//14 7//15
f 23//11 2//6 9//5
f 1//1 2//6 23//11
f 8//2 6//4 7//15
f 25//16 11//9 8//2
f 25//16 13//17 11//9
f 2//6 4//8 10//7
f 12//18 5//10 11//9
f 13//17 12//18 11//9
f 10//7 4//8 31//19
f 4//8 5//10 14//20
f 31//19 4//8 14//20
f 15//21 18//22 16//23
f 34//24 19//25 17//26
f 15//21 17//26 18//22
f 17//26 19//25 18//22
f 19//25 20//27 18//22
f 20//27 16//23 18//22
f 19//25 37//28 20//27
f 21//12 23//11 40//29
f 41//30 22//13 21//12
f 23//11 66//31 40//29
f 23//11 21//12 6//4
f 22//13 24//14 6//4
f 25//16 7//15 24//14
f 23//11 9//5 44//32
f 25//16 8//2 7//15
f 9//5 10//7 26//33
f 44//32 9//5 26//33
f 44//32 26//33 27//34
f 31//19 28//35 26//33
f 31//19 26//33 10//7
f 28//35 27//34 26//33
f 5//10 12//18 29//36
f 28//35 31//19 30//37
f 31//19 14//20 47//38
f 47//38 14//20 5//10
f 5//10 29//36 47//38
f 15//21 35//39 32//40
f 15//21 32//40 33//41
f 15//21 33//41 17//26
f 34//24 17//26 33//41
f 34//24 50//42 19//25
f 35//39 15//21 16//23
f 19//25 50//42 37//28
f 35//39 38//43 36//44
f 38//43 35//39 16//23
f 38//43 16//23 39//45
f 16//23 20//27 39//45
f 20//27 37//28 39//45
f 55//46 57//47 39//45
f 37//28 51//48 52//49
f 37//28 55//46 39//45
f 37//28 52//49 55//46
f 42//50 21//12 40//29
f 42//50 41//30 21//12
f 41//30 24//14 22//13
f 43//51 24//14 41//30
f 66//31 23//11 44//32
f 43//51 25//16 24//14
f 45//52 13//17 25//16
f 45//52 12//18 13//17
f 29//36 12//18 70//53
f 46//54 28//35 30//37
f 31//19 47//38 46//54
f 30//37 31//19 46//54
f 47//38 59//55 46//54
f 33//41 32//40 48//56
f 33//41 49//57 34//24
f 48//56 49//57 33//41
f 60//58 34//24 49//57
f 60//58 50//42 34//24
f 62//59 32//40 35//39
f 48//56 32//40 62//59
f 35//39 36//44 63//60
f 50//42 51//48 37//28
f 53//61 36//44 38//43
f 53//61 63//60 36//44
f 54//62 53//61 38//43
f 57//47 55//46 56//63
f 39//45 54//62 38//43
f 54//62 39//45 57//47
f 65//64 42//50 40//29
f 58//65 41//30 42//50
f 58//65 43//51 41//30
f 43//51 45//52 25//16
f 67//66 44//32 27//34
f 46//54 69//67 28//35
f 28//35 68//68 27//34
f 12//18 45//52 75//69
f 75//69 70//53 12//18
f 29//36 59//55 47//38
f 70//53 59//55 29//36
f 60//58 61//70 50//42
f 50//42 61//70 51//48
f 52//49 51//48 61//70
f 62//59 35//39 63//60
f 56//63 55//46 52//49
f 56//63 52//49 64//71
f 54//62 57//47 73//72
f 73//72 57//47 56//63
f 65//64 74//73 42//50
f 42//50 74//73 58//65
f 81//74 40//29 66//31
f 86//75 45//52 43//51
f 66//31 44//32 67//66
f 67//66 27//34 68//68
f 68//68 28//35 69//67
f 69//67 46//54 59//55
f 76//76 60//58 49//57
f 48//56 62//59 83//77
f 61//70 88//78 78//79
f 78//79 52//49 61//70
f 78//79 64//71 52//49
f 71//80 63//60 53//61
f 72//81 56//63 64//71
f 79//82 53//61 54//62
f 81//74 65//64 40//29
f 76//76 49//57 48//56
f 76//76 48//56 77//83
f 88//78 60//58 76//76
f 88//78 61//70 60//58
f 80//84 62//59 63//60
f 78//79 72//81 64//71
f 71//80 80//84 63//60
f 72//81 73//72 56//63
f 71//80 53//61 79//82
f 73//72 79//82 54//62
f 65//64 85//85 74//73
f 86//75 43//51 58//65
f 58//65 74//73 86//75
f 99//86 45//52 86//75
f 101//87 68//68 69//67
f 69//67 59//55 87//88
f 87//88 59//55 70//53
f 76//76 77//83 82//89
f 77//83 48//56 83//77
f 80//84 89//90 62//59
f 73//72 72//81 90//91
f 71//80 79//82 84//92
f 81//74 85//85 65//64
f 99//86 91//93 45//52
f 75//69 45//52 91//93
f 67//66 68//68 101//87
f 88//78 76//76 92//94
f 103//95 77//83 83//77
f 103//95 83//77 89//90
f 95//96 72//81 78//79
f 62//59 89//90 83//77
f 105//97 72//81 95//96
f 105//97 90//91 72//81
f 97//98 80//84 84//92
f 96//99 89//90 80//84
f 84//92 80//84 71//80
f 73//72 90//91 79//82
f 81//74 107//100 85//85
f 85//85 98//101 74//73
f 74//73 98//101 86//75
f 67//66 107//100 66//31
f 100//102 67//66 101//87
f 109//103 75//69 91//93
f 87//88 101//87 69//67
f 70//53 75//69 109//103
f 82//89 92//94 76//76
f 102//104 82//89 77//83
f 92//94 93//105 88//78
f 88//78 94//106 78//79
f 94//106 95//96 78//79
f 84//92 96//99 97//98
f 80//84 301//107 96//99
f 301//107 97//98 96//99
f 79//82 90//91 84//92
f 100//102 107//100 67//66
f 108//108 101//87 87//88
f 109//103 87//88 70//53
f 92//94 110//109 93//105
f 110//109 92//94 82//89
f 102//104 77//83 103//95
f 105//97 94//106 112//110
f 94//106 105//97 95//96
f 104//111 89//90 96//99
f 104//111 103//95 89//90
f 96//99 84//92 106//112
f 66//31 107//100 81//74
f 113//113 85//85 107//100
f 98//101 114//114 86//75
f 86//75 116//115 99//86
f 116//115 86//75 114//114
f 108//108 87//88 109//103
f 108//108 109//103 117//116
f 111//117 88//78 93//105
f 112//110 94//106 88//78
f 143//118 90//91 105//97
f 143//118 123//119 90//91
f 104//111 96//99 106//112
f 106//112 84//92 118//120
f 84//92 90//91 130//121
f 90//91 123//119 130//121
f 85//85 113//113 120//122
f 120//122 98//101 85//85
f 113//113 115//123 120//122
f 115//123 113//113 107//100
f 115//123 107//100 100//102
f 119//124 100//102 121//125
f 121//125 100//102 101//87
f 108//108 125//126 101//87
f 122//127 93//105 110//109
f 102//104 103//95 104//111
f 118//120 84//92 130//121
f 115//123 124//128 120//122
f 98//101 120//122 132//129
f 115//123 100//102 119//124
f 121//125 101//87 125//126
f 108//108 117//116 126//130
f 111//117 93//105 122//127
f 102//104 110//109 82//89
f 112//110 88//78 127//131
f 104//111 129//132 102//104
f 128//133 104//111 106//112
f 128//133 106//112 118//120
f 115//123 119//124 124//128
f 114//114 98//101 132//129
f 135//134 116//115 114//114
f 116//115 148//135 99//86
f 99//86 148//135 91//93
f 125//126 119//124 121//125
f 126//130 125//126 108//108
f 102//104 122//127 110//109
f 102//104 134//136 122//127
f 133//137 88//78 111//117
f 88//78 133//137 127//131
f 142//138 112//110 127//131
f 105//97 112//110 142//138
f 128//133 129//132 104//111
f 120//122 124//128 131//139
f 131//139 132//129 120//122
f 119//124 147//140 124//128
f 114//114 132//129 135//134
f 136//141 119//124 125//126
f 109//103 137//142 138//143
f 109//103 91//93 137//142
f 126//130 117//116 139//144
f 109//103 138//143 117//116
f 140//145 111//117 122//127
f 141//146 140//145 122//127
f 133//137 111//117 140//145
f 102//104 129//132 134//136
f 128//133 144//147 129//132
f 118//120 144//147 128//133
f 145//148 118//120 130//121
f 146//149 130//121 123//119
f 143//118 146//149 123//119
f 124//128 147//140 131//139
f 119//124 136//141 147//140
f 135//134 148//135 116//115
f 148//135 137//142 91//93
f 117//116 138//143 139//144
f 122//127 134//136 141//146
f 105//97 142//138 143//118
f 118//120 145//148 144//147
f 145//148 130//121 146//149
f 134//136 159//150 158//151
f 140//145 151//152 133//137
f 133//137 151//152 127//131
f 134//136 158//151 141//146
f 152//153 129//132 144//147
f 163//154 145//148 146//149
f 153//155 132//129 131//139
f 131//139 147//140 153//155
f 132//129 154//156 135//134
f 154//156 155//157 135//134
f 135//134 155//157 148//135
f 136//141 125//126 150//158
f 150//158 125//126 156//159
f 125//126 126//130 156//159
f 151//152 140//145 166//160
f 167//161 142//138 127//131
f 142//138 161//162 143//118
f 134//136 129//132 152//153
f 169//163 145//148 163//154
f 163//154 146//149 162//164
f 162//164 146//149 143//118
f 147//140 136//141 149//165
f 136//141 150//158 149//165
f 150//158 164//166 149//165
f 138//143 137//142 165//167
f 139//144 138//143 174//168
f 126//130 139//144 175//169
f 141//146 157//170 140//145
f 166//160 140//145 157//170
f 152//153 159//150 134//136
f 151//152 160//171 127//131
f 167//161 127//131 160//171
f 168//172 152//153 169//163
f 169//163 152//153 144//147
f 144//147 145//148 169//163
f 153//155 154//156 132//129
f 149//165 170//173 147//140
f 147//140 170//173 153//155
f 164//166 150//158 172//174
f 150//158 156//159 172//174
f 139//144 174//168 175//169
f 138//143 173//175 174//168
f 179//176 156//159 126//130
f 179//176 126//130 175//169
f 141//146 180//177 157//170
f 159//150 176//178 158//151
f 161//162 142//138 167//161
f 162//164 143//118 161//162
f 171//179 154//156 153//155
f 171//179 177//180 154//156
f 186//181 148//135 155//157
f 137//142 148//135 165//167
f 148//135 186//181 165//167
f 164//166 172//174 178//182
f 173//175 138//143 165//167
f 180//177 141//146 176//178
f 157//170 181//183 166//160
f 182//184 160//171 166//160
f 166//160 181//183 182//184
f 166//160 160//171 151//152
f 183//185 167//161 160//171
f 183//185 161//162 167//161
f 184//186 168//172 185//187
f 169//163 185//187 168//172
f 153//155 170//173 171//179
f 177//180 155//157 154//156
f 186//181 155//157 177//180
f 149//165 164//166 178//182
f 149//165 178//182 170//173
f 173//175 188//188 174//168
f 158//151 176//178 141//146
f 190//189 181//183 157//170
f 183//185 160//171 182//184
f 159//150 152//153 191//190
f 152//153 184//186 191//190
f 184//186 152//153 168//172
f 185//187 169//163 163//154
f 170//173 177//180 171//179
f 170//173 178//182 192//191
f 170//173 192//191 177//180
f 173//175 165//167 212//192
f 196//193 172//174 156//159
f 196//193 156//159 187//194
f 156//159 179//176 187//194
f 174//168 188//188 175//169
f 189//195 179//176 175//169
f 175//169 188//188 189//195
f 176//178 197//196 180//177
f 180//177 190//189 157//170
f 190//189 198//197 181//183
f 182//184 181//183 198//197
f 191//190 176//178 159//150
f 185//187 163//154 211//198
f 185//187 211//198 184//186
f 211//198 163//154 162//164
f 201//199 177//180 192//191
f 193//200 177//180 201//199
f 177//180 193//200 186//181
f 186//181 194//201 165//167
f 195//202 202//203 178//182
f 194//201 212//192 165//167
f 196//193 178//182 172//174
f 188//188 173//175 212//192
f 203//204 187//194 179//176
f 179//176 189//195 203//204
f 206//205 190//189 180//177
f 176//178 191//190 197//196
f 184//186 210//206 191//190
f 161//162 183//185 199//207
f 210//206 184//186 200//208
f 202//203 192//191 178//182
f 186//181 193//200 194//201
f 196//193 195//202 178//182
f 187//194 213//209 196//193
f 203//204 214//210 187//194
f 188//188 205//211 189//195
f 189//195 205//211 203//204
f 205//211 188//188 204//212
f 216//213 206//205 180//177
f 197//196 227//214 207//215
f 216//213 180//177 207//215
f 197//196 207//215 180//177
f 183//185 182//184 208//216
f 208//216 182//184 198//197
f 210//206 209//217 191//190
f 161//162 199//207 162//164
f 211//198 200//208 184//186
f 192//191 202//203 201//199
f 201//199 202//203 229//218
f 196//193 213//209 219//219
f 196//193 219//219 195//202
f 187//194 214//210 213//209
f 215//220 213//209 214//210
f 204//212 188//188 212//192
f 204//212 220//221 223//222
f 222//223 205//211 204//212
f 197//196 217//224 227//214
f 191//190 217//224 197//196
f 191//190 209//217 217//224
f 183//185 208//216 218//225
f 183//185 218//225 199//207
f 209//217 210//206 228//226
f 200//208 228//226 210//206
f 162//164 199//207 211//198
f 230//227 201//199 229//218
f 195//202 229//218 202//203
f 194//201 231//228 212//192
f 229//218 195//202 244//229
f 195//202 219//219 244//229
f 212//192 231//228 220//221
f 219//219 213//209 215//220
f 204//212 212//192 220//221
f 215//220 214//210 221//230
f 233//231 221//230 214//210
f 204//212 223//222 222//223
f 205//211 222//223 224//232
f 224//232 203//204 205//211
f 203//204 224//232 214//210
f 224//232 234//233 214//210
f 227//214 238//234 207//215
f 240//235 238//234 227//214
f 238//234 216//213 207//215
f 216//213 225//236 206//205
f 225//236 239//237 206//205
f 206//205 239//237 190//189
f 226//238 198//197 239//237
f 190//189 239//237 198//197
f 217//224 240//235 227//214
f 198//197 226//238 208//216
f 241//239 208//216 226//238
f 199//207 218//225 262//240
f 193//200 201//199 243//241
f 243//241 201//199 230//227
f 245//242 231//228 194//201
f 221//230 219//219 215//220
f 265//243 219//219 221//230
f 232//244 220//221 231//228
f 246//245 221//230 233//231
f 246//245 265//243 221//230
f 223//222 220//221 232//244
f 223//222 235//246 222//223
f 214//210 234//233 233//231
f 222//223 235//246 224//232
f 223//222 269//247 235//246
f 234//233 224//232 235//246
f 235//246 250//248 234//233
f 237//249 238//234 236//250
f 254//251 236//250 238//234
f 237//249 253//252 225//236
f 240//235 254//251 238//234
f 238//234 237//249 225//236
f 253//252 239//237 225//236
f 225//236 216//213 238//234
f 240//235 217//224 257//253
f 241//239 242//254 208//216
f 208//216 242//254 258//255
f 217//224 209//217 260//256
f 208//216 258//255 218//225
f 228//226 260//256 209//217
f 228//226 200//208 260//256
f 260//256 200//208 211//198
f 199//207 262//240 211//198
f 229//218 244//229 230//227
f 245//242 194//201 193//200
f 245//242 193//200 243//241
f 219//219 265//243 244//229
f 231//228 266//257 232//244
f 232//244 269//247 223//222
f 247//258 270//259 233//231
f 246//245 233//231 270//259
f 248//260 233//231 234//233
f 233//231 248//260 247//258
f 269//247 249//261 235//246
f 234//233 250//248 248//260
f 235//246 249//261 250//248
f 247//258 248//260 251//262
f 251//262 248//260 252//263
f 248//260 250//248 252//263
f 249//261 252//263 250//248
f 249//261 253//252 252//263
f 254//251 251//262 252//263
f 252//263 253//252 236//250
f 252//263 236//250 254//251
f 254//251 256//264 251//262
f 236//250 253//252 237//249
f 255//265 239//237 253//252
f 273//266 239//237 255//265
f 273//266 241//239 239//237
f 256//264 254//251 240//235
f 257//253 256//264 240//235
f 241//239 226//238 239//237
f 259//267 284//268 257//253
f 259//267 257//253 217//224
f 218//225 258//255 275//269
f 260//256 259//267 217//224
f 262//240 218//225 275//269
f 211//198 261//270 260//256
f 261//270 211//198 262//240
f 230//227 244//229 263//271
f 243//241 230//227 263//271
f 263//271 244//229 264//272
f 244//229 265//243 264//272
f 245//242 266//257 231//228
f 302//273 245//242 243//241
f 268//274 232//244 266//257
f 267//275 265//243 246//245
f 267//275 264//272 265//243
f 269//247 232//244 268//274
f 267//275 246//245 270//259
f 270//259 278//276 267//275
f 269//247 271//277 249//261
f 270//259 247//258 272//278
f 272//278 247//258 251//262
f 249//261 271//277 255//265
f 255//265 271//277 281//279
f 255//265 253//252 249//261
f 272//278 274//280 284//268
f 273//266 255//265 281//279
f 272//278 251//262 256//264
f 274//280 272//278 256//264
f 273//266 283//281 241//239
f 242//254 241//239 283//281
f 256//264 257//253 274//280
f 274//280 257//253 284//268
f 242//254 275//269 258//255
f 287//282 284//268 259//267
f 260//256 287//282 259//267
f 261//270 262//240 288//283
f 275//269 288//283 262//240
f 260//256 261//270 287//282
f 263//271 264//272 289//284
f 291//285 243//241 263//271
f 264//272 276//286 289//284
f 264//272 290//287 276//286
f 243//241 266//257 302//273
f 243//241 277//288 266//257
f 268//274 266//257 277//288
f 264//272 267//275 290//287
f 268//274 279//289 269//247
f 267//275 278//276 290//287
f 280//290 279//289 268//274
f 271//277 269//247 281//279
f 269//247 279//289 281//279
f 280//290 281//279 279//289
f 278//276 270//259 272//278
f 281//279 292//291 273//266
f 282//292 278//276 272//278
f 273//266 292//291 283//281
f 282//292 272//278 284//268
f 285//293 242//254 293//294
f 285//293 275//269 242//254
f 286//295 284//268 287//282
f 295//296 286//295 287//282
f 288//283 275//269 285//293
f 295//296 287//282 288//283
f 287//282 261//270 288//283
f 289//284 291//285 263//271
f 291//285 277//288 243//241
f 277//288 291//285 280//290
f 280//290 268//274 277//288
f 276//286 290//287 300//297
f 292//291 280//290 297//298
f 292//291 281//279 280//290
f 278//276 282//292 290//287
f 290//287 294//299 300//297
f 290//287 282//292 294//299
f 293//294 292//291 297//298
f 283//281 292//291 293//294
f 242//254 283//281 293//294
f 293//294 299//300 285//293
f 300//297 295//296 299//300
f 282//292 284//268 286//295
f 286//295 294//299 282//292
f 295//296 294//299 286//295
f 299//300 295//296 285//293
f 295//296 288//283 285//293
f 296//301 289//284 276//286
f 291//285 289//284 296//301
f 296//301 298//302 297//298
f 291//285 296//301 297//298
f 291//285 297//298 280//290
f 296//301 300//297 298//302
f 296//301 276//286 300//297
f 297//298 298//302 293//294
f 300//297 299//300 298//302
f 298//302 299//300 293//294
f 294//299 295//296 300//297
