# Blender 4.0.2
# www.blender.org
mtllib rib6_r.mtl
o rib6_r.002
v 0.143761 -0.101695 0.069622
v 0.145056 -0.099429 0.069224
v 0.145910 -0.097549 0.068989
v 0.145548 -0.096900 0.069230
v 0.145959 -0.096489 0.069313
v 0.143064 -0.107682 0.071172
v 0.142498 -0.104834 0.071129
v 0.143610 -0.104379 0.070232
v 0.143620 -0.104335 0.070206
v 0.147571 -0.096702 0.069553
v 0.147659 -0.096749 0.069658
v 0.147462 -0.096116 0.070165
v 0.143046 -0.110219 0.071912
v 0.142826 -0.110879 0.072294
v 0.143016 -0.109080 0.071508
v 0.150249 -0.097590 0.071720
v 0.143694 -0.113396 0.073618
v 0.143042 -0.110226 0.071930
v 0.143251 -0.111869 0.072685
v 0.150166 -0.097736 0.071428
v 0.150206 -0.097879 0.071555
v 0.150374 -0.097940 0.071699
v 0.150917 -0.098633 0.072414
v 0.151397 -0.100642 0.073553
v 0.151509 -0.101998 0.074109
v 0.151629 -0.104688 0.075306
v 0.150838 -0.099619 0.072637
v 0.151364 -0.100664 0.073515
v 0.151308 -0.100589 0.073336
v 0.151168 -0.099449 0.073084
v 0.151421 -0.100639 0.073561
v 0.151188 -0.099452 0.073091
v 0.145952 -0.116226 0.075716
v 0.151475 -0.102520 0.074290
v 0.147339 -0.116371 0.076611
v 0.147622 -0.116279 0.076688
v 0.147622 -0.116279 0.076688
v 0.148021 -0.116388 0.077050
v 0.151555 -0.106819 0.076077
v 0.148770 -0.116030 0.077325
v 0.148094 -0.116434 0.076988
v 0.148421 -0.116008 0.077493
v 0.148630 -0.116237 0.077537
v 0.149488 -0.115458 0.077671
v 0.150748 -0.113294 0.077673
v 0.149338 -0.115182 0.078344
v 0.150380 -0.114115 0.077844
v 0.150816 -0.112923 0.077633
v 0.138988 -0.099399 0.074938
v 0.143570 -0.115767 0.079709
v 0.149517 -0.098489 0.076294
v 0.148278 -0.103770 0.079980
v 0.139157 -0.108291 0.076707
v 0.140814 -0.111956 0.075959
v 0.141789 -0.115110 0.079247
v 0.145526 -0.115469 0.080527
v 0.143536 -0.093909 0.077041
v 0.136586 -0.111966 0.080994
v 0.140583 -0.114840 0.083171
v 0.147088 -0.111224 0.081706
v 0.137091 -0.096989 0.078669
v 0.138340 -0.114275 0.082631
v 0.146512 -0.095571 0.078441
v 0.136676 -0.110487 0.079820
v 0.141733 -0.105880 0.086761
v 0.135282 -0.099784 0.079649
v 0.139725 -0.093599 0.079363
v 0.133539 -0.103103 0.082151
v 0.143046 -0.095187 0.083344
v 0.137537 -0.092226 0.083080
v 0.143309 -0.094129 0.081886
v 0.138207 -0.113509 0.086461
v 0.139238 -0.112093 0.087513
v 0.135963 -0.112981 0.087401
v 0.131773 -0.096817 0.083258
v 0.130902 -0.108308 0.086698
v 0.130933 -0.109631 0.087990
v 0.132059 -0.110818 0.089511
v 0.132618 -0.110674 0.091547
v 0.136082 -0.106262 0.091824
v 0.139683 -0.093273 0.085084
v 0.139505 -0.097964 0.087853
v 0.131520 -0.091743 0.086252
v 0.127113 -0.099378 0.087073
v 0.131946 -0.092397 0.085339
v 0.133193 -0.096310 0.092100
v 0.126263 -0.096628 0.087320
v 0.131942 -0.091572 0.088049
v 0.127849 -0.094022 0.086816
v 0.125691 -0.106536 0.091895
v 0.128669 -0.108959 0.094972
v 0.130985 -0.108192 0.094611
v 0.128632 -0.109470 0.093019
v 0.131797 -0.103168 0.094793
v 0.120544 -0.097452 0.091365
v 0.124454 -0.090925 0.094408
v 0.121755 -0.105317 0.094994
v 0.127331 -0.104771 0.097569
v 0.124942 -0.090186 0.090373
v 0.124390 -0.090048 0.091818
v -0.003989 -0.001354 -0.000520
v -0.004286 -0.003463 0.001125
v -0.000609 -0.000566 -0.000091
v -0.002314 -0.002417 0.000368
v 0.001271 0.004715 0.001033
v 0.001401 -0.002327 0.001484
v 0.003992 0.000128 0.001912
v 0.001771 -0.003936 0.003329
v 0.001718 -0.003827 0.002566
v 0.004234 -0.001116 0.002389
v 0.004049 -0.001699 0.002877
v 0.004210 -0.001395 0.002861
v 0.004060 -0.001557 0.003092
v 0.004418 -0.000653 0.002701
v 0.004140 0.001747 0.003130
v -0.007211 0.001395 -0.000137
v -0.003335 0.002289 -0.000366
v -0.005581 -0.002411 0.000447
v -0.003710 0.007325 0.000671
v 0.001253 0.007590 0.001217
v -0.001381 -0.005013 0.003338
v 0.002677 0.006731 0.002611
v 0.124309 -0.090432 0.089926
v 0.124328 -0.092117 0.095761
v 0.119040 -0.105423 0.099263
v 0.119512 -0.105471 0.100340
v 0.122148 -0.105484 0.099889
v -0.008102 0.001198 0.000480
v -0.007605 0.003445 0.000872
v -0.005070 0.006773 0.000761
v -0.006688 -0.001313 0.000356
v -0.006040 -0.003904 0.002955
v -0.000056 0.007853 0.001020
v -0.006023 -0.004344 0.004595
v -0.001902 -0.005284 0.004196
v -0.003725 -0.005101 0.005269
v -0.001795 -0.004718 0.005331
v 0.002990 0.006262 0.003319
v 0.003194 0.004958 0.003856
v 0.111758 -0.092009 0.095819
v -0.003722 -0.001834 0.007735
v -0.002422 0.002025 0.007039
v -0.010703 0.001496 0.005330
v -0.005902 0.007857 0.002522
v -0.003159 0.010990 0.003977
v -0.002309 0.010844 0.004594
v -0.000823 0.009842 0.005020
v -0.005837 -0.003232 0.008722
v 0.114629 -0.088880 0.095497
v -0.005430 0.010934 0.004242
v -0.010780 -0.001084 0.006938
v -0.010074 -0.002739 0.008755
v -0.007551 -0.003604 0.008718
v -0.001628 0.009615 0.006644
v -0.002592 0.005061 0.007752
v 0.114743 -0.087790 0.097905
v 0.114610 -0.103353 0.104184
v -0.013731 0.001940 0.009958
v -0.007933 0.010528 0.005959
v -0.004577 0.011443 0.005291
v -0.003198 0.010765 0.006525
v 0.114460 -0.088047 0.096526
v 0.113300 -0.103626 0.102935
v 0.116113 -0.102088 0.103874
v -0.010936 0.005650 0.008152
v -0.006783 0.011210 0.006629
v -0.007664 0.009431 0.010908
v -0.010634 -0.003453 0.013063
v -0.004414 0.007914 0.009247
v -0.009166 -0.002282 0.013053
v 0.109289 -0.099831 0.100842
v 0.108376 -0.090353 0.105636
v -0.014908 -0.001018 0.011683
v -0.008421 -0.000183 0.013664
v -0.012181 0.002349 0.018810
v 0.106808 -0.088640 0.098589
v -0.012033 0.009335 0.011026
v -0.015986 0.006260 0.013711
v 0.107619 -0.101288 0.105215
v 0.107392 -0.099167 0.108071
v -0.016622 -0.001680 0.013272
v -0.011285 0.009408 0.012107
v -0.014474 -0.003792 0.014348
v 0.107861 -0.086074 0.099965
v 0.105510 -0.099051 0.103439
v 0.109803 -0.086379 0.101096
v 0.105103 -0.085279 0.104833
v 0.106051 -0.100901 0.107256
v -0.017183 0.000619 0.012965
v 0.099518 -0.090244 0.102102
v 0.097236 -0.096380 0.107655
v -0.019987 -0.000706 0.014314
v -0.019498 -0.001810 0.014597
v -0.017674 -0.003880 0.016613
v -0.016382 -0.005208 0.019503
v -0.013386 0.004795 0.020095
v 0.102591 -0.083674 0.103056
v 0.105513 -0.100210 0.108347
v -0.019903 0.003058 0.015670
v -0.015874 0.006551 0.018387
v -0.021581 -0.005217 0.019464
v 0.092535 -0.081550 0.105599
v 0.099868 -0.097077 0.110825
v -0.024869 -0.000127 0.016972
v -0.021889 -0.002862 0.016804
v -0.019122 0.004335 0.015900
v -0.018121 0.005328 0.016833
v -0.019364 -0.005068 0.020348
v -0.014192 0.005677 0.019838
v -0.017150 -0.005378 0.022967
v -0.017015 -0.003401 0.023933
v -0.026717 0.003199 0.018529
v -0.025373 -0.003096 0.017977
v -0.025479 -0.000680 0.017714
v -0.022083 0.003764 0.017414
v -0.024906 -0.003753 0.018307
v 0.092006 -0.083700 0.104868
v 0.097692 -0.081419 0.105487
v 0.096134 -0.081276 0.105285
v 0.088987 -0.091257 0.109050
v 0.096889 -0.097320 0.109995
v 0.099027 -0.097741 0.110352
v -0.026734 0.000206 0.018753
v -0.027697 0.002052 0.018838
v -0.025541 -0.002413 0.019329
v -0.022396 0.004110 0.018891
v -0.025256 -0.003448 0.019900
v -0.022587 -0.004696 0.022517
v -0.019471 -0.006145 0.027003
v -0.028283 -0.001738 0.020597
v -0.026118 -0.003459 0.021389
v -0.020926 0.004385 0.025575
v -0.021950 -0.007636 0.028635
v -0.017860 0.000621 0.027494
v 0.095045 -0.080414 0.108531
v 0.098363 -0.083422 0.108761
v 0.095373 -0.085005 0.111197
v 0.096251 -0.093858 0.112221
v -0.029141 0.001107 0.020487
v -0.028551 0.003040 0.020302
v -0.026949 0.004291 0.020423
v -0.029420 -0.000880 0.021447
v -0.026173 0.004386 0.022003
v -0.028607 -0.002837 0.022188
v -0.025207 -0.004608 0.025177
v -0.020083 0.001934 0.030445
v 0.085438 -0.083072 0.107013
v 0.092864 -0.079275 0.107920
v -0.029425 0.001356 0.023107
v -0.028328 0.003454 0.022434
v -0.029137 -0.003339 0.024252
v -0.023674 0.003257 0.028448
v -0.025764 -0.008157 0.030919
v -0.022037 0.003480 0.028713
v 0.084983 -0.092083 0.111674
v 0.088052 -0.094099 0.112126
v -0.027944 0.003556 0.023553
v -0.029613 -0.002094 0.025333
v -0.023937 -0.009496 0.034808
v 0.087757 -0.078733 0.112586
v 0.088718 -0.094304 0.113113
v -0.029280 -0.000694 0.028344
v -0.029690 -0.006586 0.029414
v -0.026243 0.002601 0.027611
v -0.020782 0.000224 0.033139
v 0.086480 -0.079120 0.107490
v 0.086880 -0.077029 0.109668
v 0.084804 -0.092911 0.113608
v -0.030701 -0.004649 0.030474
v -0.030829 -0.006479 0.030859
v -0.027700 0.000210 0.031313
v -0.021601 -0.002902 0.036082
v 0.079266 -0.080591 0.108341
v 0.085494 -0.076711 0.112163
v 0.083903 -0.092387 0.114655
v 0.083427 -0.090801 0.115554
v 0.082924 -0.084398 0.115752
v -0.029973 -0.002662 0.031927
v -0.027635 -0.012780 0.040654
v -0.024011 -0.009149 0.038082
v 0.079537 -0.078147 0.108326
v -0.026181 0.001062 0.032837
v -0.031407 -0.012845 0.038966
v 0.074909 -0.073711 0.110437
v 0.082749 -0.074890 0.110959
v 0.079413 -0.090324 0.115078
v 0.078690 -0.089665 0.115925
v 0.080856 -0.079852 0.116083
v -0.034237 -0.009571 0.038473
v -0.035188 -0.014002 0.042009
v -0.025796 -0.002157 0.040522
v -0.023488 -0.003421 0.041095
v -0.023482 -0.005136 0.042141
v 0.073008 -0.076912 0.110434
v 0.071735 -0.084094 0.113439
v 0.074300 -0.071454 0.111505
v 0.078293 -0.087436 0.116772
v -0.032404 -0.005522 0.036516
v -0.029442 -0.001939 0.039786
v -0.028919 -0.001891 0.041319
v 0.071459 -0.073690 0.110590
v 0.075906 -0.070909 0.112732
v 0.079918 -0.073055 0.113342
v -0.027262 -0.013536 0.043360
v 0.070629 -0.085280 0.116159
v 0.078474 -0.073347 0.115070
v -0.033305 -0.016290 0.044896
v -0.026776 -0.013836 0.046393
v -0.025191 -0.010792 0.046636
v 0.061798 -0.069061 0.111027
v 0.065803 -0.066824 0.111543
v -0.035236 -0.009898 0.042816
v -0.033871 -0.007085 0.047457
v -0.035858 -0.015602 0.044947
v -0.030905 -0.017048 0.047411
v -0.024371 -0.005622 0.046661
v 0.059375 -0.075578 0.113897
v 0.068868 -0.066735 0.113351
v 0.074018 -0.070677 0.115699
v 0.064600 -0.081462 0.118042
v 0.067278 -0.082320 0.118196
v 0.064770 -0.078968 0.118782
v 0.070066 -0.074790 0.118004
v -0.034201 -0.019830 0.049087
v -0.026923 -0.004069 0.046085
v -0.024512 -0.009608 0.052343
v 0.059447 -0.064737 0.110938
v 0.061914 -0.062572 0.114819
v -0.037725 -0.017546 0.050005
v -0.036571 -0.018694 0.048183
v -0.037751 -0.019015 0.050137
v -0.028476 -0.006078 0.050742
v 0.057914 -0.070641 0.112035
v 0.061313 -0.062452 0.112376
v 0.058680 -0.076598 0.115192
v 0.061301 -0.063570 0.116204
v -0.032323 -0.005817 0.049532
v -0.037499 -0.021531 0.052627
v -0.035701 -0.022313 0.053110
v -0.034783 -0.023582 0.056720
v -0.031858 -0.021680 0.058783
v -0.027930 -0.018957 0.055884
v -0.024912 -0.009231 0.054398
v -0.026571 -0.018386 0.057528
v -0.025143 -0.015379 0.056491
v 0.061524 -0.079812 0.118031
v 0.050184 -0.062566 0.109947
v 0.052702 -0.071093 0.113047
v 0.057189 -0.077160 0.118306
v 0.057054 -0.076275 0.118864
v -0.036493 -0.012799 0.055415
v -0.035179 -0.010389 0.054811
v -0.032800 -0.007884 0.054503
v -0.037933 -0.023657 0.058061
v -0.024027 -0.011674 0.056953
v -0.027692 -0.021671 0.061958
v 0.053038 -0.073516 0.115602
v 0.057797 -0.059952 0.112755
v 0.055449 -0.072655 0.119020
v 0.061330 -0.068237 0.118260
v -0.038384 -0.020827 0.058289
v -0.035118 -0.025635 0.061054
v -0.026751 -0.010965 0.062719
v -0.023089 -0.014730 0.061285
v -0.023081 -0.013374 0.061859
v -0.025069 -0.020257 0.062999
v 0.045424 -0.055046 0.109419
v 0.036760 -0.060324 0.109605
v 0.052366 -0.074229 0.118029
v 0.053987 -0.057946 0.114495
v -0.037938 -0.017592 0.058113
v -0.035567 -0.025822 0.062167
v -0.032937 -0.025899 0.064187
v -0.030182 -0.024066 0.065142
v -0.023431 -0.012702 0.063156
v -0.022689 -0.017831 0.063967
v 0.041105 -0.065921 0.112798
v 0.041813 -0.050728 0.111056
v 0.051199 -0.073593 0.118079
v 0.055040 -0.062981 0.117340
v 0.055000 -0.066030 0.118281
v -0.036515 -0.014661 0.060270
v -0.034828 -0.012880 0.061327
v -0.032342 -0.010768 0.061360
v -0.029369 -0.010191 0.061477
v -0.022370 -0.022898 0.069248
v -0.018758 -0.017916 0.070554
v 0.036814 -0.054437 0.107683
v 0.041545 -0.051732 0.109437
v 0.046996 -0.070685 0.118183
v -0.037018 -0.019074 0.063340
v -0.037618 -0.022758 0.062627
v -0.036725 -0.025355 0.062397
v -0.036015 -0.025071 0.064651
v -0.034258 -0.026190 0.065122
v -0.019909 -0.015526 0.071175
v -0.024248 -0.024784 0.070175
v -0.018396 -0.017194 0.071396
v -0.017985 -0.020204 0.072055
v 0.035095 -0.049092 0.107392
v 0.043732 -0.069629 0.117151
v 0.040231 -0.051399 0.114432
v -0.035682 -0.015528 0.063302
v -0.034714 -0.023579 0.068610
v -0.028649 -0.027991 0.072944
v -0.026496 -0.026480 0.072055
v -0.018110 -0.024628 0.074784
v 0.028078 -0.051643 0.105980
v 0.026608 -0.047337 0.104734
v 0.031919 -0.059403 0.109626
v 0.035374 -0.064526 0.115026
v 0.045234 -0.052808 0.113443
v 0.037365 -0.065533 0.116078
v 0.040214 -0.067233 0.116475
v 0.038732 -0.065584 0.116976
v 0.043873 -0.064935 0.117893
v -0.035208 -0.019645 0.067022
v -0.027611 -0.013216 0.070142
v -0.033002 -0.026535 0.070528
v -0.018664 -0.027282 0.076704
v -0.010067 -0.028018 0.082491
v -0.010919 -0.024607 0.080596
v 0.020344 -0.045700 0.102738
v 0.025195 -0.043576 0.104281
v 0.028883 -0.044302 0.106420
v -0.031669 -0.017393 0.070397
v -0.029366 -0.028215 0.074545
v -0.017828 -0.016886 0.075534
v -0.023256 -0.028973 0.077534
v -0.010667 -0.021365 0.082637
v -0.008677 -0.023995 0.082990
v -0.008370 -0.033748 0.086446
v 0.019893 -0.050977 0.104941
v 0.019744 -0.039282 0.102738
v 0.024173 -0.055191 0.107684
v 0.030257 -0.044260 0.108457
v 0.031310 -0.045275 0.111785
v 0.035481 -0.064562 0.116005
v 0.038888 -0.053148 0.115367
v -0.029162 -0.022513 0.076373
v -0.028984 -0.028288 0.076184
v -0.029256 -0.027375 0.076688
v -0.022044 -0.015314 0.076190
v -0.025976 -0.029452 0.076751
v -0.020417 -0.032353 0.082455
v -0.014792 -0.033442 0.085525
v -0.004777 -0.024831 0.088154
v -0.004635 -0.028412 0.086760
v 0.000477 -0.028778 0.091180
v -0.000440 -0.032913 0.090505
v -0.001692 -0.038386 0.092410
v 0.007173 -0.033931 0.095415
v 0.009278 -0.038109 0.096864
v 0.008104 -0.043928 0.098752
v 0.015423 -0.038055 0.100167
v 0.013555 -0.047708 0.102219
v 0.016200 -0.051290 0.105657
v 0.019873 -0.055162 0.109488
v 0.026879 -0.059885 0.113542
v 0.028590 -0.060486 0.114868
v 0.032220 -0.056092 0.115850
v -0.028172 -0.021083 0.076689
v -0.022634 -0.016357 0.077938
v -0.024120 -0.031306 0.082268
v -0.022907 -0.032035 0.081843
v -0.013918 -0.019723 0.082779
v -0.019016 -0.033947 0.085441
v -0.002875 -0.041149 0.096380
v 0.009435 -0.033273 0.097920
v 0.019281 -0.055601 0.111195
v 0.021557 -0.056495 0.112662
v 0.026311 -0.056272 0.114661
v 0.030505 -0.047294 0.113273
v -0.025073 -0.029850 0.081939
v -0.023416 -0.022447 0.081687
v -0.023665 -0.027601 0.083488
v -0.019063 -0.034177 0.087266
v -0.014480 -0.036385 0.089152
v -0.009511 -0.039478 0.093670
v 0.005617 -0.030246 0.096840
v 0.011328 -0.033628 0.100950
v 0.005760 -0.046388 0.101942
v 0.008689 -0.050314 0.105413
v 0.013330 -0.052930 0.108273
v 0.013673 -0.053159 0.109237
v 0.026358 -0.042649 0.110684
v 0.020110 -0.054682 0.112655
v 0.025503 -0.050170 0.113930
v -0.019571 -0.033406 0.087474
v -0.017187 -0.019614 0.084027
v -0.015685 -0.036111 0.090290
v -0.015391 -0.035809 0.091193
v -0.010250 -0.022785 0.089170
v -0.012737 -0.037938 0.092021
v -0.006540 -0.024024 0.090204
v -0.009787 -0.039811 0.095326
v -0.004568 -0.042404 0.097775
v 0.003844 -0.029436 0.097923
v 0.000291 -0.045010 0.100738
v -0.001845 -0.044218 0.101121
v 0.005924 -0.049487 0.105818
v 0.009246 -0.051112 0.107314
v 0.012978 -0.035268 0.105175
v 0.013932 -0.052317 0.110178
v 0.017947 -0.049196 0.111816
v 0.022125 -0.045161 0.111781
v -0.014954 -0.023911 0.088213
v -0.016181 -0.031057 0.090538
v -0.014355 -0.029572 0.091357
v -0.007601 -0.025470 0.092791
v -0.007722 -0.035629 0.097536
v -0.008058 -0.028900 0.094670
v -0.009292 -0.039133 0.096600
v -0.004573 -0.042669 0.099544
v 0.000855 -0.028784 0.097874
v -0.000707 -0.044363 0.102598
v 0.007770 -0.032735 0.102493
v 0.001501 -0.042645 0.104050
v 0.014848 -0.038602 0.107655
v 0.006871 -0.048687 0.106987
v 0.009592 -0.044723 0.108102
v 0.003170 -0.033080 0.101646
v 0.004174 -0.040347 0.105041
v 0.144996 -0.099619 0.069207
v 0.142874 -0.110799 0.072321
v 0.151444 -0.107509 0.076255
v 0.151563 -0.104969 0.075419
v 0.148526 -0.116169 0.077261
v 0.148737 -0.116013 0.077331
v 0.148606 -0.116149 0.077483
v 0.149485 -0.115459 0.077672
vn -0.4546 0.1041 -0.8846
vn -0.0640 -0.0547 -0.9964
vn -0.4089 -0.0589 -0.9107
vn -0.4575 0.3994 -0.7944
vn -0.7503 0.1714 -0.6385
vn 0.0604 -0.0276 -0.9978
vn -0.1281 0.6700 -0.7312
vn 0.9889 -0.0509 0.1395
vn -0.2390 -0.2826 -0.9290
vn -0.7128 -0.1235 -0.6904
vn -0.4569 -0.1728 -0.8726
vn 0.4641 -0.3131 -0.8286
vn 0.5156 0.2333 -0.8244
vn 0.3417 0.8619 -0.3746
vn 0.6820 0.5751 -0.4519
vn -0.7951 -0.2743 -0.5410
vn -0.5064 -0.2997 -0.8085
vn 0.5056 -0.2945 -0.8109
vn 0.4010 -0.3210 -0.8580
vn -0.7116 -0.4487 -0.5406
vn 0.7414 0.6513 -0.1616
vn 0.6635 0.0708 -0.7448
vn -0.2749 -0.6220 -0.7331
vn -0.2133 -0.5227 -0.8254
vn -0.4248 -0.4223 -0.8008
vn 0.3647 -0.5962 -0.7152
vn 0.7730 -0.0427 -0.6330
vn 0.0418 -0.8142 -0.5791
vn 0.6517 -0.2452 -0.7177
vn 0.9105 0.2247 -0.3470
vn 0.8193 -0.1120 -0.5623
vn 0.5352 -0.2952 -0.7915
vn -0.4701 -0.8447 -0.2558
vn 0.6431 0.1686 0.7470
vn 0.4585 -0.8839 -0.0927
vn 0.8705 0.0540 -0.4892
vn 0.8980 0.1330 -0.4193
vn 0.8524 0.3888 0.3496
vn 0.9960 0.0800 -0.0390
vn 0.8146 0.1951 0.5463
vn 0.8163 0.4006 0.4161
vn -0.2649 -0.9641 0.0180
vn 0.0472 -0.9940 0.0982
vn 0.3203 -0.0081 -0.9473
vn 0.3893 -0.6704 -0.6317
vn 0.6348 -0.6117 -0.4721
vn 0.5624 -0.2959 -0.7721
vn -0.1554 -0.9828 0.1002
vn 0.8282 -0.2098 -0.5197
vn 0.7724 -0.2369 -0.5894
vn 0.2124 -0.8105 0.5459
vn 0.4049 -0.8868 0.2226
vn 0.4974 -0.7804 -0.3789
vn 0.5989 -0.5334 0.5974
vn 0.2448 -0.8265 0.5070
vn 0.7401 -0.6454 -0.1890
vn 0.4964 -0.7584 0.4224
vn 0.8920 -0.4225 0.1607
vn 0.1859 0.9699 -0.1574
vn 0.7997 0.1129 0.5897
vn 0.7635 0.1335 0.6319
vn 0.7365 -0.0431 0.6751
vn -0.7557 -0.1693 -0.6326
vn 0.6669 0.6942 0.2707
vn 0.6727 -0.1256 0.7292
vn -0.6404 0.4020 -0.6544
vn -0.6850 -0.5684 -0.4557
vn -0.7416 -0.2674 -0.6153
vn -0.0778 -0.9671 0.2420
vn -0.7252 0.0212 -0.6882
vn -0.3614 0.7630 -0.5359
vn -0.7161 -0.1702 -0.6770
vn -0.4613 -0.8759 -0.1418
vn 0.6894 0.3904 0.6101
vn 0.4528 -0.4992 0.7387
vn 0.6824 0.0372 0.7300
vn 0.0922 0.9876 -0.1268
vn 0.5620 0.7693 0.3039
vn 0.1149 -0.8512 0.5121
vn -0.2566 -0.9335 0.2506
vn -0.6126 0.2200 -0.7592
vn -0.6609 -0.6634 -0.3508
vn 0.6008 -0.0879 0.7945
vn -0.6315 -0.1983 -0.7496
vn -0.1948 0.8711 -0.4509
vn -0.7385 -0.3588 -0.5708
vn 0.4871 0.7375 0.4678
vn -0.4796 -0.8771 -0.0251
vn 0.6399 0.2371 0.7310
vn 0.0060 -0.8790 0.4767
vn -0.4585 0.5442 -0.7026
vn 0.4302 -0.4197 0.7992
vn -0.6568 -0.2467 -0.7125
vn 0.5416 0.3548 0.7621
vn -0.5502 0.0052 -0.8350
vn 0.2123 0.9732 0.0883
vn -0.4666 0.2943 -0.8341
vn 0.4544 0.7609 0.4632
vn -0.3864 -0.9223 0.0116
vn -0.5564 -0.3017 -0.7742
vn 0.0628 -0.8238 0.5635
vn 0.5507 0.0912 0.8297
vn -0.2757 0.7116 -0.6462
vn 0.2198 0.9737 0.0598
vn -0.5864 -0.6087 -0.5345
vn 0.4812 -0.1055 0.8703
vn -0.4334 0.1082 -0.8947
vn 0.0040 0.9814 -0.1921
vn -0.3989 -0.9087 -0.1228
vn -0.0315 -0.2956 -0.9548
vn 0.2792 -0.1629 -0.9463
vn 0.1565 -0.5756 -0.8026
vn -0.1174 -0.7756 -0.6203
vn 0.0548 0.1342 -0.9894
vn 0.3889 -0.4280 -0.8158
vn 0.4535 -0.7415 -0.4945
vn 0.4024 0.1310 -0.9060
vn 0.7017 -0.0229 -0.7121
vn 0.1164 -0.9126 -0.3920
vn 0.8076 0.4938 -0.3223
vn 0.5754 -0.7664 0.2856
vn 0.7478 -0.6329 -0.2008
vn 0.9514 0.1258 0.2811
vn 0.7529 -0.3295 0.5697
vn 0.3406 -0.5027 -0.7945
vn 0.8864 -0.4170 -0.2009
vn 0.9965 -0.0434 0.0717
vn 0.5172 0.5297 0.6723
vn -0.1019 -0.9282 0.3578
vn 0.2857 -0.5253 0.8015
vn -0.3846 0.0488 -0.9218
vn -0.5635 -0.4282 -0.7065
vn -0.3581 -0.6046 -0.7115
vn -0.4604 -0.8028 -0.3789
vn -0.0767 0.4338 -0.8978
vn 0.5229 0.4896 -0.6978
vn 0.3806 -0.6771 0.6299
vn 0.0978 -0.9950 0.0200
vn 0.6117 -0.0933 0.7856
vn 0.7922 0.1564 0.5899
vn -0.7559 -0.0801 -0.6497
vn -0.6624 0.3562 -0.6590
vn -0.3873 0.4080 -0.8268
vn 0.1487 0.4659 -0.8723
vn -0.0761 -0.9823 0.1712
vn -0.3810 -0.9142 -0.1380
vn 0.6152 -0.2339 0.7528
vn 0.8859 0.4245 0.1872
vn 0.4855 0.3113 0.8169
vn 0.4589 -0.0388 0.8876
vn -0.7681 0.1198 -0.6291
vn -0.6204 -0.6985 -0.3567
vn -0.6926 0.4209 -0.5858
vn -0.7009 -0.5177 -0.4905
vn 0.1259 0.8791 -0.4597
vn -0.0821 -0.9877 0.1328
vn 0.4310 0.9010 -0.0491
vn 0.6429 0.7460 0.1737
vn 0.4240 -0.6917 0.5847
vn 0.6098 0.4777 0.6325
vn -0.3216 0.5356 -0.7808
vn -0.0072 0.9032 -0.4292
vn -0.3260 0.7703 -0.5481
vn -0.4560 -0.8394 -0.2957
vn 0.6649 -0.0247 0.7466
vn 0.2416 0.9696 -0.0378
vn 0.1487 -0.6699 0.7274
vn -0.6109 0.6328 -0.4758
vn 0.0179 0.9996 -0.0202
vn 0.3525 0.8363 0.4200
vn -0.3389 -0.9408 -0.0034
vn -0.6001 -0.4281 -0.6758
vn -0.7602 0.2637 -0.5938
vn 0.6478 0.2265 0.7274
vn 0.3467 0.7542 0.5577
vn 0.7866 -0.0415 0.6161
vn -0.3548 0.3020 -0.8848
vn -0.5386 -0.5059 -0.6738
vn -0.5167 -0.6471 -0.5606
vn -0.1510 0.9879 0.0366
vn -0.5510 0.8187 -0.1617
vn 0.3009 -0.9496 0.0882
vn 0.6510 -0.5516 0.5215
vn -0.0021 0.8243 -0.5662
vn -0.4559 -0.8422 -0.2879
vn -0.2549 -0.9435 0.2118
vn 0.7355 -0.2899 0.6123
vn 0.0556 -0.6351 0.7704
vn -0.7163 0.4799 -0.5066
vn -0.4125 -0.5281 -0.7422
vn -0.2269 -0.8719 -0.4340
vn -0.0825 0.9418 0.3260
vn 0.3186 0.9470 0.0398
vn 0.4960 0.6957 0.5197
vn 0.3865 -0.0532 0.9208
vn 0.6888 0.3815 0.6164
vn -0.4620 -0.2629 -0.8470
vn -0.5694 0.0254 -0.8217
vn -0.4703 -0.1013 -0.8767
vn 0.1013 -0.9826 -0.1556
vn 0.6940 -0.6542 0.3005
vn 0.2407 0.9039 -0.3536
vn -0.4738 -0.7293 -0.4936
vn -0.4871 0.3791 -0.7868
vn -0.3549 -0.5773 -0.7354
vn -0.4872 0.8638 -0.1283
vn -0.1934 0.9536 0.2306
vn -0.2257 -0.8363 -0.4997
vn -0.0742 -0.9671 -0.2434
vn -0.4345 -0.4964 -0.7516
vn -0.3052 -0.6042 -0.7361
vn -0.5648 0.6590 -0.4967
vn -0.1352 -0.9648 -0.2258
vn 0.3258 0.7992 0.5052
vn 0.8260 -0.2612 0.4995
vn 0.0168 0.7422 -0.6699
vn 0.3232 0.9240 -0.2047
vn -0.3519 -0.9351 -0.0416
vn 0.1860 -0.3315 0.9249
vn -0.5172 -0.0905 -0.8511
vn -0.4410 0.5433 -0.7144
vn -0.2894 0.8277 -0.4807
vn -0.5286 -0.7678 -0.3620
vn -0.2752 0.1956 -0.9413
vn -0.1437 0.4862 -0.8619
vn 0.4280 0.2496 0.8686
vn -0.8850 -0.3697 -0.2831
vn -0.5922 -0.7513 -0.2913
vn -0.7600 -0.4338 -0.4839
vn -0.7615 -0.2391 -0.6025
vn -0.1535 0.9820 -0.1097
vn -0.3075 -0.9293 -0.2046
vn 0.4897 0.7830 0.3835
vn 0.5260 0.4379 0.7291
vn -0.1124 -0.7882 0.6051
vn 0.3146 -0.0075 0.9492
vn -0.6503 -0.3605 -0.6687
vn -0.6579 0.0796 -0.7489
vn -0.3317 0.9179 -0.2176
vn -0.3063 -0.9330 -0.1888
vn 0.1621 -0.9498 -0.2674
vn 0.7854 -0.5545 0.2750
vn 0.8700 -0.0322 0.4920
vn -0.3062 -0.1151 -0.9450
vn -0.5970 -0.4543 -0.6612
vn -0.5963 -0.7019 -0.3896
vn -0.1418 0.9747 0.1725
vn 0.0369 0.9258 0.3762
vn 0.5153 0.6607 0.5459
vn 0.3344 0.9348 -0.1196
vn -0.4006 -0.8535 -0.3333
vn -0.8909 0.0295 -0.4533
vn -0.9070 -0.2021 -0.3694
vn -0.7858 0.5175 -0.3387
vn -0.0929 0.9896 0.1099
vn -0.6973 -0.6261 -0.3491
vn -0.3250 -0.8456 -0.4236
vn -0.1328 -0.8620 -0.4891
vn -0.4354 -0.6731 -0.5978
vn -0.1814 -0.8689 0.4606
vn -0.9525 0.2991 0.0567
vn -0.7095 0.7007 0.0747
vn -0.9948 0.0019 -0.1022
vn -0.5459 0.7987 0.2530
vn -0.2437 0.9321 0.2680
vn -0.3941 -0.7448 -0.5385
vn 0.6744 -0.7381 0.0200
vn 0.6579 0.5481 0.5165
vn -0.0298 0.4714 -0.8814
vn 0.3055 0.8954 -0.3241
vn 0.4553 0.4817 0.7488
vn 0.2730 0.0439 0.9610
vn 0.1079 -0.2740 0.9556
vn -0.8854 0.4478 0.1248
vn -0.3583 0.8643 0.3529
vn -0.8545 -0.2364 -0.4626
vn 0.8940 -0.4313 0.1218
vn 0.9463 -0.1022 0.3068
vn -0.4152 -0.9047 -0.0957
vn -0.2004 -0.7961 0.5710
vn -0.9624 0.2047 -0.1784
vn -0.6536 0.7397 0.1602
vn -0.1716 0.1927 -0.9661
vn 0.5143 0.7893 0.3355
vn -0.0127 -0.8627 -0.5056
vn -0.3273 -0.1804 -0.9276
vn 0.2984 0.1540 0.9419
vn -0.8518 0.5232 -0.0257
vn -0.6727 -0.5287 -0.5177
vn -0.4458 0.8808 0.1598
vn 0.2764 -0.8923 -0.3570
vn -0.2623 -0.1222 -0.9572
vn -0.0588 0.2801 -0.9582
vn -0.4380 -0.5513 -0.7101
vn -0.5121 -0.8494 -0.1278
vn 0.4411 0.8766 -0.1922
vn -0.2593 -0.6846 0.6813
vn -0.8765 0.4660 -0.1206
vn 0.2498 0.5810 -0.7746
vn -0.4688 -0.8830 -0.0235
vn 0.0847 -0.1750 0.9809
vn -0.9404 0.0870 -0.3288
vn -0.6291 0.7727 0.0851
vn -0.2117 0.9277 0.3074
vn 0.2619 0.8593 0.4394
vn 0.6820 0.5873 0.4358
vn 0.9820 -0.0522 0.1814
vn -0.0297 0.0647 -0.9975
vn 0.5367 0.8070 0.2463
vn 0.4234 0.4862 0.7644
vn 0.0094 -0.8331 -0.5531
vn 0.5737 -0.7881 -0.2230
vn 0.4006 0.8128 -0.4230
vn -0.0920 -0.3763 0.9219
vn -0.9434 0.3102 -0.1174
vn 0.7389 -0.6472 -0.1874
vn 0.9316 -0.3605 -0.0455
vn 0.1885 0.3345 -0.9234
vn -0.8117 0.5819 0.0505
vn -0.9807 0.1074 -0.1636
vn -0.4804 -0.6823 -0.5511
vn 0.4217 -0.8153 -0.3970
vn -0.0729 0.9358 0.3448
vn 0.7183 0.5997 0.3526
vn -0.3015 -0.4910 -0.8173
vn -0.1041 -0.1858 -0.9771
vn 0.5037 0.8229 -0.2628
vn -0.3484 -0.6899 0.6345
vn 0.3968 0.5483 0.7361
vn 0.1970 -0.8357 -0.5127
vn -0.4503 -0.7151 -0.5347
vn 0.4725 0.8002 0.3694
vn -0.5076 -0.8221 0.2579
vn 0.0305 -0.0768 0.9966
vn 0.1914 0.1451 0.9707
vn -0.9027 -0.2710 -0.3342
vn 0.9995 0.0153 0.0258
vn -0.1163 -0.3678 -0.9226
vn 0.1801 0.1865 -0.9658
vn 0.3962 0.5945 -0.6997
vn -0.4561 -0.6282 -0.6303
vn -0.4922 0.8324 0.2548
vn 0.1454 0.9019 0.4067
vn 0.5166 -0.7886 -0.3336
vn 0.7176 0.6611 0.2193
vn 0.8868 -0.3671 -0.2809
vn 0.7183 -0.6066 -0.3406
vn 0.3000 0.5395 0.7867
vn -0.9124 0.4018 0.0782
vn -0.6468 -0.6516 -0.3963
vn 0.0234 -0.8961 -0.4432
vn -0.4063 0.8504 0.3342
vn 0.4900 -0.7931 -0.3617
vn 0.5078 -0.7795 -0.3668
vn -0.2337 -0.5529 -0.7998
vn 0.0313 -0.1752 -0.9840
vn 0.4983 0.8285 -0.2554
vn -0.1927 -0.3138 0.9297
vn -0.9985 -0.0043 0.0539
vn -0.7842 0.5921 0.1854
vn 0.9870 0.0486 -0.1531
vn -0.4901 -0.8277 0.2732
vn -0.0308 0.0101 0.9995
vn 0.1533 0.2437 0.9577
vn -0.7629 -0.6210 -0.1801
vn 0.0512 -0.9459 -0.3203
vn 0.2625 0.9268 0.2687
vn 0.4211 -0.7999 -0.4277
vn 0.9367 -0.0744 -0.3421
vn 0.3356 0.3500 -0.8746
vn -0.0447 -0.3735 -0.9266
vn -0.4197 -0.7690 -0.4821
vn 0.4184 0.7848 0.4572
vn -0.4830 -0.8754 0.0209
vn -0.9683 0.2279 0.1020
vn 0.3635 -0.8708 -0.3311
vn 0.6596 0.7498 0.0523
vn 0.6418 -0.6117 -0.4625
vn 0.7805 -0.4053 -0.4759
vn 0.9305 0.3339 -0.1508
vn -0.3669 -0.7796 -0.5075
vn 0.1193 0.3712 0.9208
vn -0.6818 0.6200 0.3883
vn -0.2050 -0.9703 -0.1288
vn -0.7076 -0.7024 0.0769
vn 0.4457 -0.7787 -0.4416
vn -0.1964 -0.6379 -0.7447
vn -0.5276 -0.8179 0.2296
vn 0.4301 0.8231 0.3709
vn -0.4732 -0.8366 0.2759
vn 0.2163 0.5814 0.7843
vn -0.2806 -0.3340 0.8998
vn 0.0320 0.2098 0.9772
vn -0.8650 0.4303 0.2581
vn -0.9526 -0.1202 0.2795
vn -0.0001 0.9502 0.3116
vn -0.2580 -0.9649 -0.0496
vn 0.3380 -0.7914 -0.5093
vn 0.5691 -0.6046 -0.5573
vn 0.8544 0.0389 -0.5182
vn 0.1381 -0.1451 -0.9797
vn 0.5028 0.6065 -0.6159
vn 0.5230 0.8234 -0.2201
vn -0.0832 0.0864 0.9928
vn -0.9122 0.1984 0.3585
vn -0.4289 0.8046 0.4108
vn -0.7805 -0.5373 0.3196
vn 0.1266 -0.9241 -0.3605
vn 0.8155 0.4302 -0.3870
vn 0.6480 0.7589 -0.0652
vn 0.6916 -0.3126 -0.6512
vn 0.3606 0.2180 -0.9069
vn 0.2743 -0.0941 -0.9570
vn -0.4233 -0.8736 -0.2400
vn -0.5584 -0.8255 0.0820
vn -0.3337 -0.3270 0.8841
vn -0.7713 0.4559 0.4442
vn -0.8737 -0.0622 0.4825
vn -0.3031 0.8314 0.4657
vn -0.7487 -0.5914 0.2995
vn 0.2916 -0.8187 -0.4948
vn 0.2828 -0.7110 -0.6438
vn 0.5307 -0.5040 -0.6814
vn 0.5730 -0.3135 -0.7573
vn 0.0813 -0.3424 -0.9360
vn 0.5374 0.6344 -0.5556
vn -0.4342 -0.8854 0.1660
vn 0.0366 0.3177 0.9475
vn -0.8285 0.2278 0.5115
vn -0.6711 0.4726 0.5712
vn -0.3401 -0.9391 -0.0497
vn 0.2530 -0.7679 -0.5885
vn 0.7083 -0.1572 -0.6882
vn 0.2639 -0.6300 -0.7304
vn 0.0195 -0.5255 -0.8506
vn 0.0466 -0.6160 -0.7864
vn 0.2321 -0.2687 -0.9348
vn -0.1230 -0.6647 -0.7369
vn 0.4633 0.2254 -0.8571
vn 0.5039 0.8561 -0.1151
vn 0.3205 0.7911 0.5209
vn -0.4771 -0.7348 0.4821
vn -0.1183 0.1265 0.9849
vn -0.8204 -0.1977 0.5365
vn 0.1047 0.9342 0.3409
vn -0.0035 -0.9083 -0.4183
vn 0.4445 0.8909 0.0932
vn 0.1029 -0.8243 -0.5567
vn 0.6377 0.7567 -0.1441
vn 0.7591 0.2798 -0.5877
vn 0.1171 -0.7806 -0.6139
vn 0.6304 -0.0667 -0.7734
vn 0.4718 -0.2874 -0.8335
vn 0.1096 -0.5914 -0.7989
vn 0.4156 -0.1959 -0.8882
vn 0.5152 0.1753 -0.8389
vn 0.5695 0.5848 -0.5777
vn -0.1086 -0.7357 -0.6686
vn -0.4873 -0.8710 -0.0623
vn -0.4491 -0.5029 0.7385
vn -0.7489 0.2036 0.6306
vn -0.3360 0.7205 0.6067
vn -0.6388 -0.7362 0.2235
vn 0.3580 0.9132 0.1947
vn -0.2796 -0.9314 -0.2329
vn 0.6017 0.7722 -0.2042
vn 0.6823 0.3988 -0.6127
vn -0.0124 -0.7847 -0.6198
vn 0.1637 -0.6407 -0.7501
vn 0.6043 0.1497 -0.7825
vn 0.6396 0.5840 -0.4998
vn -0.2629 -0.8420 -0.4712
vn -0.2682 -0.0221 0.9631
vn -0.6366 0.4065 0.6553
vn -0.7940 -0.1972 0.5750
vn -0.6931 -0.6682 0.2703
vn -0.2490 -0.9283 -0.2762
vn -0.1496 -0.8854 -0.4401
vn 0.5664 0.8073 -0.1653
vn -0.0481 -0.7175 -0.6949
vn 0.5184 0.8540 -0.0440
vn -0.1974 -0.8275 -0.5256
vn -0.2662 -0.8977 -0.3512
vn -0.3972 -0.9135 -0.0878
vn 0.2271 0.7742 0.5908
vn -0.5214 -0.5830 0.6231
vn -0.3965 -0.1714 0.9019
vn 0.0300 0.4309 0.9019
vn -0.1574 0.2142 0.9640
vn -0.5746 0.3902 0.7194
vn -0.6822 0.1419 0.7172
vn -0.2219 0.7366 0.6389
vn -0.7400 -0.2970 0.6035
vn 0.0387 0.8614 0.5064
vn -0.5925 -0.7895 0.1602
vn -0.5959 -0.7916 0.1350
vn 0.3300 0.9192 0.2147
vn -0.3992 -0.8986 -0.1821
vn -0.1461 -0.8888 -0.4343
vn -0.1996 -0.8891 -0.4118
vn -0.2163 -0.8461 -0.4872
vn -0.5263 -0.8089 0.2622
vn 0.1375 0.7990 0.5854
vn -0.4961 -0.8122 0.3068
vn -0.4833 -0.2842 0.8281
vn -0.3102 0.1333 0.9413
vn -0.1478 0.3668 0.9185
vn -0.6206 0.1411 0.7713
vn -0.4428 0.4628 0.7680
vn -0.7194 -0.2944 0.6291
vn -0.5969 -0.7842 0.1694
vn 0.3224 0.9090 0.2643
vn -0.0289 0.7778 0.6279
vn -0.6279 -0.7165 0.3041
vn -0.5401 -0.8343 0.1108
vn -0.5815 -0.7863 0.2089
vn -0.5118 -0.1928 0.8372
vn -0.1469 0.4587 0.8764
vn -0.5185 0.3151 0.7949
vn -0.2327 0.6396 0.7326
vn -0.4000 0.4113 0.8191
vn -0.5180 0.1909 0.8338
vn -0.6808 -0.2111 0.7014
vn -0.6465 -0.3004 0.7013
vn -0.0138 0.7210 0.6928
vn -0.4957 0.0641 0.8661
vn -0.2881 0.4638 0.8378
vn -0.3497 0.1624 0.9227
vn -0.3740 0.2512 0.8928
s 1
usemtl mtl1.1058
f 2//1 524//2 1//3
f 1//3 4//4 2//1
f 49//5 4//4 1//3
f 4//4 3//6 2//1
f 5//7 3//6 4//4
f 1//3 6//8 15//9
f 7//10 1//3 15//9
f 6//8 1//3 8//11
f 1//3 524//2 9//12
f 524//2 3//6 9//12
f 5//7 10//13 3//6
f 12//14 10//13 5//7
f 10//13 12//14 11//15
f 14//16 15//9 13//17
f 6//8 34//18 15//9
f 15//9 34//18 18//19
f 15//9 54//20 7//10
f 6//8 9//12 34//18
f 16//21 11//15 12//14
f 20//22 11//15 16//21
f 17//23 14//16 19//24
f 19//24 525//25 18//19
f 10//13 20//22 21//26
f 10//13 21//26 3//6
f 3//6 21//26 22//27
f 20//22 16//21 22//27
f 17//23 19//24 33//28
f 33//28 19//24 18//19
f 9//12 3//6 27//29
f 23//30 27//29 3//6
f 22//27 23//30 3//6
f 16//21 23//30 22//27
f 27//29 23//30 30//31
f 33//28 18//19 45//32
f 55//33 17//23 33//28
f 9//12 24//34 34//18
f 9//12 27//29 28//35
f 27//29 31//36 29//37
f 27//29 30//31 31//36
f 28//35 24//34 9//12
f 24//34 32//38 25//39
f 25//39 32//38 26//40
f 51//41 26//40 32//38
f 45//32 35//42 33//28
f 34//18 24//34 25//39
f 33//28 35//42 38//43
f 35//42 45//32 36//44
f 37//45 38//43 35//42
f 36//44 45//32 40//46
f 36//44 40//46 41//47
f 33//28 38//43 50//48
f 527//49 526//50 34//18
f 41//47 40//46 42//51
f 43//52 38//43 528//53
f 43//52 46//54 56//55
f 43//52 40//46 44//56
f 40//46 45//32 44//56
f 531//57 44//56 46//54
f 44//56 45//32 47//58
f 46//54 44//56 47//58
f 43//52 531//57 46//54
f 34//18 45//32 18//19
f 34//18 526//50 45//32
f 57//59 12//14 5//7
f 54//20 15//9 14//16
f 54//20 14//16 17//23
f 16//21 51//41 23//30
f 51//41 32//38 23//30
f 39//60 26//40 51//41
f 39//60 52//61 48//62
f 53//63 7//10 54//20
f 17//23 55//33 54//20
f 63//64 51//41 16//21
f 55//33 33//28 50//48
f 51//41 52//61 39//60
f 38//43 56//55 50//48
f 43//52 56//55 38//43
f 48//62 60//65 47//58
f 49//5 1//3 7//10
f 49//5 61//66 4//4
f 5//7 4//4 61//66
f 54//20 58//67 64//68
f 54//20 64//68 53//63
f 63//64 16//21 12//14
f 58//67 54//20 55//33
f 56//55 59//69 50//48
f 52//61 60//65 48//62
f 47//58 60//65 46//54
f 66//70 7//10 53//63
f 61//66 67//71 5//7
f 57//59 5//7 67//71
f 63//64 12//14 57//59
f 55//33 50//48 59//69
f 7//10 66//70 49//5
f 68//72 53//63 64//68
f 58//67 55//33 62//73
f 59//69 62//73 55//33
f 69//74 52//61 51//41
f 73//75 56//55 46//54
f 60//65 52//61 65//76
f 49//5 66//70 61//66
f 66//70 53//63 68//72
f 70//77 57//59 67//71
f 71//78 63//64 57//59
f 69//74 63//64 71//78
f 69//74 51//41 63//64
f 59//69 56//55 72//79
f 56//55 73//75 72//79
f 60//65 73//75 46//54
f 74//80 62//73 59//69
f 74//80 59//69 72//79
f 75//81 61//66 66//70
f 77//82 58//67 62//73
f 73//75 60//65 80//83
f 65//76 80//83 60//65
f 84//84 75//81 66//70
f 67//71 83//85 70//77
f 76//86 58//67 77//82
f 76//86 64//68 58//67
f 76//86 68//72 64//68
f 70//77 71//78 57//59
f 71//78 81//87 69//74
f 62//73 78//88 77//82
f 78//88 62//73 74//80
f 69//74 82//89 52//61
f 79//90 74//80 72//79
f 52//61 82//89 65//76
f 84//84 66//70 68//72
f 75//81 85//91 61//66
f 67//71 61//66 85//91
f 83//85 67//71 85//91
f 81//87 71//78 70//77
f 72//79 73//75 79//90
f 73//75 92//92 79//90
f 84//84 76//86 90//93
f 84//84 68//72 76//86
f 81//87 82//89 69//74
f 82//89 81//87 86//94
f 79//90 78//88 74//80
f 92//92 73//75 80//83
f 87//95 75//81 84//84
f 83//85 88//96 70//77
f 90//93 76//86 77//82
f 82//89 80//83 65//76
f 87//95 89//97 75//81
f 89//97 85//91 75//81
f 70//77 88//96 81//87
f 81//87 88//96 96//98
f 93//99 77//82 78//88
f 93//99 78//88 79//90
f 95//100 84//84 90//93
f 89//97 83//85 85//91
f 93//99 79//90 91//101
f 92//92 91//101 79//90
f 94//102 80//83 82//89
f 89//97 123//103 83//85
f 96//98 88//96 100//104
f 97//105 90//93 77//82
f 97//105 77//82 93//99
f 82//89 86//94 94//102
f 92//92 80//83 98//106
f 80//83 94//102 98//106
f 87//95 84//84 95//100
f 89//97 87//95 140//107
f 123//103 99//108 83//85
f 100//104 88//96 83//85
f 96//98 86//94 81//87
f 100//104 83//85 99//108
f 97//105 95//100 90//93
f 93//99 125//109 97//105
f 101//110 103//111 104//112
f 102//113 101//110 104//112
f 117//114 103//111 101//110
f 103//111 106//115 104//112
f 106//115 109//116 104//112
f 105//117 107//118 103//111
f 109//116 102//113 104//112
f 121//119 102//113 109//116
f 107//118 106//115 103//111
f 122//120 107//118 105//117
f 108//121 121//119 109//116
f 106//115 107//118 109//116
f 107//118 111//122 109//116
f 122//120 115//123 107//118
f 108//121 109//116 113//124
f 113//124 109//116 111//122
f 111//122 107//118 110//125
f 111//122 110//125 112//126
f 114//127 110//125 107//118
f 110//125 114//127 112//126
f 114//127 107//118 115//123
f 111//122 114//127 113//124
f 124//128 86//94 96//98
f 126//129 125//109 93//99
f 126//129 93//99 91//101
f 127//130 92//92 98//106
f 116//131 101//110 131//132
f 131//132 101//110 118//133
f 117//114 101//110 116//131
f 132//134 118//133 102//113
f 102//113 118//133 101//110
f 119//135 105//117 117//114
f 117//114 105//117 103//111
f 120//136 122//120 105//117
f 108//121 137//137 135//138
f 121//119 108//121 135//138
f 137//137 108//121 113//124
f 142//139 113//124 139//140
f 115//123 139//140 113//124
f 113//124 114//127 115//123
f 140//107 123//103 89//97
f 123//103 100//104 99//108
f 92//92 127//130 91//101
f 116//131 131//132 128//141
f 129//142 130//143 116//131
f 116//131 130//143 117//114
f 117//114 130//143 119//135
f 131//132 118//133 132//134
f 105//117 133//144 120//136
f 119//135 133//144 105//117
f 102//113 121//119 132//134
f 132//134 121//119 135//138
f 132//134 135//138 136//145
f 134//146 132//134 136//145
f 136//145 135//138 137//137
f 141//147 137//137 113//124
f 142//139 141//147 113//124
f 122//120 138//148 115//123
f 138//148 139//140 115//123
f 124//128 172//149 86//94
f 127//130 126//129 91//101
f 98//106 164//150 127//130
f 128//141 158//151 129//142
f 128//141 131//132 143//152
f 143//152 158//151 128//141
f 128//141 129//142 116//131
f 129//142 144//153 130//143
f 151//154 131//132 132//134
f 133//144 119//135 145//155
f 120//136 133//144 145//155
f 153//156 134//146 136//145
f 146//157 147//158 120//136
f 120//136 145//155 146//157
f 122//120 120//136 147//158
f 147//158 138//148 122//120
f 148//159 137//137 141//147
f 138//148 154//160 139//140
f 140//107 87//95 95//100
f 149//161 123//103 140//107
f 162//162 123//103 149//161
f 164//150 98//106 94//102
f 144//153 150//163 130//143
f 150//163 119//135 130//143
f 143//152 131//132 151//154
f 150//163 145//155 119//135
f 132//134 134//146 152//164
f 153//156 152//164 134//146
f 136//145 137//137 148//159
f 136//145 148//159 153//156
f 142//139 139//140 155//165
f 155//165 139//140 154//160
f 154//160 138//148 147//158
f 156//166 100//104 123//103
f 162//162 156//166 123//103
f 96//98 100//104 156//166
f 157//167 126//129 127//130
f 144//153 159//168 150//163
f 145//155 160//169 146//157
f 150//163 160//169 145//155
f 151//154 132//134 152//164
f 161//170 147//158 146//157
f 161//170 154//160 147//158
f 141//147 142//139 155//165
f 125//109 163//171 97//105
f 163//171 125//109 126//129
f 143//152 151//154 173//172
f 129//142 165//173 144//153
f 159//168 160//169 150//163
f 160//169 161//170 146//157
f 155//165 154//160 169//174
f 167//175 154//160 161//170
f 155//165 175//176 141//147
f 140//107 176//177 149//161
f 95//100 97//105 171//178
f 163//171 185//179 97//105
f 94//102 86//94 172//149
f 157//167 163//171 126//129
f 127//130 164//150 157//167
f 158//151 165//173 129//142
f 159//168 166//180 160//169
f 177//181 166//180 159//168
f 166//180 161//170 160//169
f 152//164 153//156 168//182
f 168//182 153//156 148//159
f 168//182 148//159 170//183
f 170//183 148//159 141//147
f 184//184 149//161 176//177
f 97//105 185//179 171//178
f 179//185 185//179 163//171
f 94//102 172//149 164//150
f 188//186 163//171 157//167
f 188//186 179//185 163//171
f 165//173 159//168 144//153
f 173//172 158//151 143//152
f 173//172 151//154 152//164
f 169//174 154//160 167//175
f 170//183 141//147 174//187
f 175//176 174//187 141//147
f 184//184 162//162 149//161
f 198//188 188//186 157//167
f 177//181 159//168 178//189
f 181//190 173//172 183//191
f 166//180 182//192 161//170
f 173//172 152//164 183//191
f 182//192 167//175 161//170
f 168//182 183//191 152//164
f 186//193 162//162 184//184
f 96//98 156//166 186//193
f 187//194 96//98 186//193
f 187//194 172//149 124//128
f 157//167 180//195 198//188
f 164//150 180//195 157//167
f 158//151 178//189 165//173
f 165//173 178//189 159//168
f 177//181 182//192 166//180
f 169//174 196//196 155//165
f 155//165 196//196 175//176
f 190//197 140//107 95//100
f 162//162 186//193 156//166
f 187//194 124//128 96//98
f 158//151 173//172 189//198
f 173//172 181//190 189//198
f 192//199 189//198 181//190
f 183//191 168//182 195//200
f 196//196 169//174 167//175
f 174//187 210//201 170//183
f 185//179 190//197 171//178
f 197//202 184//184 176//177
f 190//197 95//100 171//178
f 197//202 187//194 186//193
f 191//203 185//179 179//185
f 172//149 180//195 164//150
f 192//199 199//204 189//198
f 181//190 193//205 192//199
f 189//198 199//204 178//189
f 189//198 178//189 158//151
f 207//206 177//181 178//189
f 177//181 200//207 182//192
f 194//208 193//205 181//190
f 183//191 208//209 194//208
f 194//208 181//190 183//191
f 182//192 200//207 167//175
f 208//209 183//191 195//200
f 168//182 210//201 195//200
f 190//197 176//177 140//107
f 220//210 190//197 185//179
f 197//202 186//193 184//184
f 192//199 193//205 205//211
f 199//204 206//212 178//189
f 205//211 193//205 201//213
f 194//208 201//213 193//205
f 201//213 194//208 208//209
f 209//214 196//196 167//175
f 168//182 170//183 210//201
f 210//201 174//187 211//215
f 219//216 197//202 176//177
f 218//217 197//202 219//216
f 185//179 191//203 220//210
f 221//218 188//186 198//188
f 198//188 180//195 203//219
f 204//220 192//199 205//211
f 199//204 192//199 212//221
f 206//212 199//204 215//222
f 206//212 215//222 207//206
f 216//223 205//211 201//213
f 207//206 178//189 206//212
f 200//207 177//181 207//206
f 200//207 209//214 167//175
f 190//197 217//224 176//177
f 217//224 202//225 176//177
f 176//177 202//225 219//216
f 221//218 191//203 179//185
f 237//226 172//149 187//194
f 188//186 221//218 179//185
f 192//199 204//220 212//221
f 225//227 216//223 227//228
f 205//211 213//229 204//220
f 204//220 213//229 214//230
f 216//223 225//227 213//229
f 213//229 225//227 214//230
f 216//223 213//229 205//211
f 207//206 215//222 226//231
f 201//213 208//209 228//232
f 175//176 211//215 174//187
f 187//194 197//202 218//217
f 235//233 187//194 218//217
f 187//194 236//234 237//226
f 222//235 221//218 198//188
f 203//219 222//235 198//188
f 180//195 238//236 203//219
f 223//237 214//230 225//227
f 224//238 212//221 204//220
f 223//237 224//238 214//230
f 204//220 214//230 224//238
f 212//221 215//222 199//204
f 225//227 227//228 223//237
f 226//231 215//222 241//239
f 227//228 216//223 201//213
f 228//232 231//240 201//213
f 227//228 201//213 231//240
f 208//209 195//200 233//241
f 195//200 210//201 233//241
f 233//241 210//201 229//242
f 229//242 210//201 211//215
f 234//243 211//215 175//176
f 234//243 175//176 196//196
f 247//244 217//224 190//197
f 223//237 230//245 224//238
f 223//237 227//228 230//245
f 241//239 215//222 212//221
f 244//246 230//245 227//228
f 244//246 227//228 231//240
f 207//206 232//247 200//207
f 207//206 226//231 232//247
f 200//207 232//247 209//214
f 228//232 208//209 233//241
f 254//248 246//249 209//214
f 246//249 196//196 209//214
f 247//244 190//197 220//210
f 248//250 218//217 219//216
f 220//210 191//203 256//251
f 191//203 221//218 256//251
f 235//233 236//234 187//194
f 180//195 172//149 238//236
f 237//226 238//236 172//149
f 239//252 224//238 230//245
f 239//252 230//245 242//253
f 239//252 240//254 224//238
f 212//221 224//238 240//254
f 240//254 241//239 212//221
f 242//253 230//245 244//246
f 226//231 241//239 243//255
f 251//256 231//240 245//257
f 251//256 244//246 231//240
f 245//257 231//240 228//232
f 253//258 245//257 228//232
f 232//247 254//248 209//214
f 228//232 233//241 253//258
f 246//249 234//243 196//196
f 235//233 218//217 248//250
f 220//210 256//251 255//259
f 261//260 221//218 222//235
f 239//252 249//261 240//254
f 249//261 250//262 240//254
f 240//254 250//262 241//239
f 242//253 244//246 251//256
f 251//256 258//263 242//253
f 242//253 258//263 249//261
f 242//253 249//261 239//252
f 241//239 257//264 243//255
f 250//262 257//264 241//239
f 252//265 226//231 243//255
f 263//266 251//256 245//257
f 233//241 229//242 259//267
f 265//268 234//243 246//249
f 266//269 202//225 217//224
f 202//225 267//270 219//216
f 219//216 267//270 248//250
f 260//271 236//234 235//233
f 256//251 221//218 261//260
f 260//271 237//226 236//234
f 203//219 261//260 222//235
f 238//236 277//272 276//273
f 203//219 238//236 276//273
f 257//264 250//262 249//261
f 258//263 262//274 249//261
f 264//275 243//255 257//264
f 251//256 270//276 258//263
f 226//231 252//265 232//247
f 280//277 259//267 229//242
f 211//215 234//243 229//242
f 234//243 272//278 229//242
f 217//224 247//244 266//269
f 266//269 267//270 202//225
f 261//260 268//279 256//251
f 261//260 203//219 275//280
f 258//263 269//281 262//274
f 271//282 249//261 262//274
f 257//264 249//261 271//282
f 264//275 257//264 271//282
f 270//276 251//256 263//266
f 270//276 269//281 258//263
f 243//255 264//275 252//265
f 253//258 263//266 245//257
f 232//247 252//265 254//248
f 247//244 281//283 266//269
f 235//233 248//250 274//284
f 274//284 248//250 267//270
f 255//259 256//251 268//279
f 274//284 260//271 235//233
f 261//260 275//280 268//279
f 276//273 275//280 203//219
f 264//275 271//282 252//265
f 263//266 253//258 283//285
f 272//278 280//277 229//242
f 272//278 234//243 265//268
f 247//244 273//286 281//283
f 237//226 277//272 238//236
f 277//272 237//226 288//287
f 269//281 278//288 262//274
f 278//288 271//282 262//274
f 270//276 263//266 290//289
f 282//290 252//265 271//282
f 254//248 252//265 282//290
f 254//248 265//268 246//249
f 259//267 279//291 233//241
f 273//286 294//292 281//283
f 247//244 220//210 273//286
f 281//283 284//293 266//269
f 295//294 255//259 305//295
f 285//296 274//284 267//270
f 287//297 275//280 276//273
f 288//287 237//226 260//271
f 269//281 298//298 278//288
f 298//298 271//282 278//288
f 233//241 279//291 253//258
f 284//293 281//283 294//292
f 273//286 295//294 294//292
f 273//286 220//210 295//294
f 267//270 266//269 296//299
f 267//270 296//299 285//296
f 284//293 296//299 266//269
f 295//294 220//210 255//259
f 286//300 305//295 255//259
f 286//300 255//259 268//279
f 286//300 268//279 275//280
f 287//297 286//300 275//280
f 297//301 287//297 276//273
f 270//276 289//302 269//281
f 282//290 271//282 299//303
f 263//266 283//285 290//289
f 254//248 300//304 291//305
f 254//248 291//305 265//268
f 292//306 265//268 291//305
f 280//277 272//278 293//307
f 293//307 272//278 265//268
f 265//268 292//306 293//307
f 284//293 294//292 301//308
f 274//284 285//296 303//309
f 274//284 306//310 260//271
f 270//276 290//289 289//302
f 290//289 283//285 307//311
f 253//258 279//291 283//285
f 259//267 304//312 279//291
f 280//277 304//312 259//267
f 296//299 302//313 285//296
f 303//309 285//296 302//313
f 287//297 305//295 286//300
f 297//301 321//314 287//297
f 306//310 274//284 303//309
f 277//272 297//301 276//273
f 289//302 312//315 269//281
f 312//315 298//298 269//281
f 282//290 300//304 254//248
f 300//304 282//290 299//303
f 308//316 304//312 280//277
f 308//316 280//277 309//317
f 311//318 284//293 301//308
f 311//318 296//299 284//293
f 306//310 288//287 260//271
f 288//287 297//301 277//272
f 313//319 271//282 298//298
f 329//320 289//302 290//289
f 329//320 312//315 289//302
f 307//311 314//321 290//289
f 315//322 307//311 283//285
f 291//305 325//323 292//306
f 279//291 315//322 283//285
f 315//322 279//291 304//312
f 292//306 316//324 293//307
f 309//317 280//277 293//307
f 295//294 317//325 294//292
f 301//308 294//292 310//326
f 317//325 310//326 294//292
f 296//299 318//327 302//313
f 320//328 287//297 321//314
f 319//329 288//287 306//310
f 313//319 298//298 312//315
f 271//282 313//319 299//303
f 314//321 329//320 290//289
f 307//311 315//322 324//330
f 292//306 325//323 316//324
f 308//316 315//322 304//312
f 295//294 305//295 335//331
f 328//332 302//313 318//327
f 346//333 335//331 305//295
f 287//297 320//328 305//295
f 328//332 303//309 302//313
f 319//329 303//309 328//332
f 306//310 303//309 319//329
f 297//301 322//334 321//314
f 322//334 297//301 323//335
f 319//329 323//335 288//287
f 288//287 323//335 297//301
f 314//321 331//336 329//320
f 324//330 314//321 307//311
f 309//317 293//307 326//337
f 326//337 293//307 316//324
f 310//326 317//325 333//338
f 327//339 301//308 310//326
f 327//339 311//318 301//308
f 334//340 318//327 296//299
f 311//318 334//340 296//299
f 335//331 317//325 295//294
f 320//328 346//333 305//295
f 331//336 314//321 330//341
f 337//342 300//304 299//303
f 324//330 330//341 314//321
f 300//304 332//343 291//305
f 291//305 332//343 325//323
f 325//323 332//343 316//324
f 308//316 342//344 315//322
f 343//345 326//337 316//324
f 308//316 345//346 344//347
f 308//316 309//317 345//346
f 345//346 309//317 326//337
f 328//332 336//348 319//329
f 312//315 351//349 313//319
f 313//319 337//342 299//303
f 331//336 330//341 338//350
f 330//341 324//330 339//351
f 330//341 339//351 338//350
f 332//343 300//304 353//352
f 324//330 340//353 339//351
f 340//353 324//330 341//354
f 341//354 324//330 315//322
f 316//324 332//343 343//345
f 344//347 342//344 308//316
f 348//355 347//356 333//338
f 347//356 310//326 333//338
f 347//356 327//339 310//326
f 327//339 334//340 311//318
f 333//338 317//325 348//355
f 358//357 318//327 334//340
f 321//314 322//334 350//358
f 329//320 331//336 361//359
f 352//360 337//342 313//319
f 300//304 337//342 353//352
f 341//354 315//322 342//344
f 345//346 326//337 355//361
f 355//361 326//337 343//345
f 335//331 348//355 317//325
f 328//332 318//327 358//357
f 349//362 335//331 346//333
f 320//328 350//358 346//333
f 349//362 346//333 350//358
f 359//363 322//334 360//364
f 321//314 350//358 320//328
f 322//334 323//335 360//364
f 323//335 319//329 360//364
f 329//320 351//349 312//315
f 337//342 352//360 353//352
f 338//350 354//365 331//336
f 354//365 338//350 339//351
f 362//366 339//351 340//353
f 363//367 343//345 332//343
f 344//347 356//368 342//344
f 364//369 345//346 355//361
f 367//370 327//339 347//356
f 367//370 334//340 327//339
f 347//356 348//355 368//371
f 357//372 348//355 335//331
f 370//373 336//348 328//332
f 369//374 335//331 349//362
f 357//372 335//331 369//374
f 350//358 322//334 359//363
f 360//364 319//329 336//348
f 313//319 351//349 352//360
f 331//336 354//365 361//359
f 329//320 361//359 371//375
f 339//351 362//366 354//365
f 363//367 332//343 353//352
f 340//353 373//376 362//366
f 341//354 373//376 340//353
f 342//344 356//368 341//354
f 375//377 355//361 343//345
f 366//378 356//368 344//347
f 344//347 376//379 366//378
f 344//347 345//346 376//379
f 364//369 355//361 365//380
f 367//370 358//357 334//340
f 357//372 377//381 348//355
f 370//373 328//332 358//357
f 369//374 349//362 350//358
f 336//348 380//382 360//364
f 329//320 371//375 351//349
f 383//383 353//352 352//360
f 354//365 362//366 372//384
f 393//385 354//365 372//384
f 341//354 356//368 374//386
f 363//367 375//377 343//345
f 355//361 375//377 365//380
f 345//346 364//369 376//379
f 377//381 410//387 348//355
f 410//387 368//371 348//355
f 377//381 357//372 401//388
f 412//389 370//373 358//357
f 379//390 357//372 369//374
f 336//348 402//391 380//382
f 350//358 390//392 379//390
f 402//391 336//348 370//373
f 369//374 350//358 379//390
f 360//364 380//382 381//393
f 381//393 359//363 360//364
f 352//360 351//349 382//394
f 371//375 382//394 351//349
f 382//394 383//383 352//360
f 354//365 392//395 361//359
f 393//385 392//395 354//365
f 353//352 385//396 363//367
f 362//366 373//376 372//384
f 372//384 373//376 395//397
f 393//385 372//384 395//397
f 373//376 341//354 374//386
f 374//386 356//368 397//398
f 356//368 386//399 397//398
f 356//368 366//378 386//399
f 386//399 366//378 376//379
f 364//369 387//400 376//379
f 365//380 387//400 364//369
f 387//400 365//380 375//377
f 368//371 388//401 347//356
f 388//401 367//370 347//356
f 389//402 378//403 367//370
f 358//357 367//370 378//403
f 412//389 358//357 378//403
f 401//388 357//372 379//390
f 350//358 359//363 390//392
f 416//404 390//392 359//363
f 381//393 416//404 359//363
f 361//359 391//405 371//375
f 382//394 371//375 391//405
f 353//352 383//383 384//406
f 385//396 353//352 384//406
f 393//385 394//407 392//395
f 394//407 393//385 395//397
f 405//408 395//397 373//376
f 398//409 387//400 375//377
f 396//410 398//409 375//377
f 376//379 399//411 386//399
f 387//400 399//411 376//379
f 400//412 388//401 409//413
f 388//401 400//412 367//370
f 411//414 410//387 377//381
f 414//415 377//381 401//388
f 390//392 415//416 401//388
f 401//388 379//390 390//392
f 380//382 416//404 381//393
f 403//417 382//394 391//405
f 391//405 361//359 392//395
f 403//417 383//383 382//394
f 392//395 404//418 391//405
f 384//406 418//419 385//396
f 394//407 404//418 392//395
f 419//420 404//418 394//407
f 394//407 395//397 419//420
f 418//419 363//367 385//396
f 373//376 374//386 405//408
f 363//367 396//410 375//377
f 405//408 374//386 406//421
f 406//421 374//386 397//398
f 420//422 397//398 386//399
f 407//423 420//422 386//399
f 399//411 407//423 386//399
f 407//423 399//411 421//424
f 408//425 388//401 368//371
f 408//425 368//371 410//387
f 408//425 409//413 388//401
f 425//426 389//402 400//412
f 400//412 389//402 367//370
f 411//414 377//381 413//427
f 413//427 377//381 414//415
f 402//391 370//373 412//389
f 414//415 401//388 415//416
f 416//404 415//416 390//392
f 416//404 380//382 439//428
f 404//418 417//429 391//405
f 391//405 417//429 403//417
f 426//430 383//383 403//417
f 383//383 418//419 384//406
f 405//408 427//431 395//397
f 429//432 405//408 406//421
f 420//422 406//421 397//398
f 422//433 421//424 399//411
f 387//400 422//433 399//411
f 420//422 407//423 432//434
f 433//435 456//436 423//437
f 433//435 423//437 408//425
f 409//413 408//425 423//437
f 435//438 433//435 408//425
f 410//387 435//438 408//425
f 400//412 409//413 424//439
f 424//439 425//426 400//412
f 411//414 435//438 410//387
f 378//403 389//402 425//426
f 425//426 436//440 378//403
f 437//441 378//403 436//440
f 378//403 437//441 412//389
f 438//442 411//414 413//427
f 413//427 415//416 438//442
f 415//416 413//427 414//415
f 461//443 416//404 439//428
f 417//429 426//430 403//417
f 418//419 383//383 426//430
f 404//418 419//420 442//444
f 419//420 395//397 427//431
f 363//367 418//419 443//445
f 444//446 427//431 405//408
f 443//445 428//447 363//367
f 363//367 428//447 396//410
f 405//408 429//432 444//446
f 429//432 406//421 420//422
f 444//446 429//432 445//448
f 428//447 430//449 396//410
f 398//409 431//450 387//400
f 387//400 431//450 422//433
f 398//409 396//410 430//449
f 430//449 431//450 398//409
f 407//423 421//424 432//434
f 446//451 420//422 432//434
f 422//433 448//452 421//424
f 422//433 431//450 448//452
f 421//424 450//453 432//434
f 421//424 448//452 450//453
f 454//454 453//455 423//437
f 454//454 423//437 456//436
f 455//456 423//437 453//455
f 424//439 455//456 434//457
f 423//437 455//456 409//413
f 455//456 424//439 409//413
f 435//438 457//458 433//435
f 424//439 434//457 425//426
f 459//459 435//438 411//414
f 459//459 411//414 438//442
f 460//460 459//459 438//442
f 438//442 415//416 460//460
f 437//441 402//391 412//389
f 415//416 416//404 461//443
f 380//382 402//391 439//428
f 417//429 440//461 426//430
f 417//429 404//418 440//461
f 426//430 463//462 418//419
f 404//418 442//444 440//461
f 441//463 419//420 427//431
f 441//463 442//444 419//420
f 463//462 443//445 418//419
f 441//463 427//431 444//446
f 443//445 466//464 428//447
f 445//448 465//465 444//446
f 429//432 420//422 446//451
f 466//464 430//449 428//447
f 429//432 446//451 445//448
f 431//450 430//449 447//466
f 449//467 431//450 447//466
f 431//450 449//467 448//452
f 468//468 446//451 432//434
f 451//469 468//468 432//434
f 450//453 448//452 452//470
f 448//452 449//467 452//470
f 432//434 450//453 451//469
f 450//453 454//454 451//469
f 452//470 453//455 450//453
f 450//453 453//455 454//454
f 453//455 452//470 455//456
f 434//457 455//456 469//471
f 433//435 457//458 456//436
f 436//440 425//426 434//457
f 457//458 435//438 458//472
f 458//472 435//438 459//459
f 472//473 415//416 461//443
f 426//430 440//461 462//474
f 426//430 462//474 463//462
f 442//444 474//475 440//461
f 465//465 464//476 441//463
f 442//444 441//463 464//476
f 441//463 444//446 465//465
f 464//476 474//475 442//444
f 445//448 467//477 465//465
f 446//451 478//478 445//448
f 467//477 445//448 478//478
f 468//468 478//478 446//451
f 480//479 449//467 447//466
f 480//479 469//471 449//467
f 451//469 454//454 468//468
f 452//470 449//467 469//471
f 454//454 482//480 468//468
f 456//436 482//480 454//454
f 452//470 469//471 455//456
f 481//481 434//457 469//471
f 482//480 456//436 457//458
f 483//482 482//480 457//458
f 436//440 434//457 481//481
f 484//483 483//482 457//458
f 457//458 458//472 484//483
f 470//484 484//483 458//472
f 486//485 437//441 436//440
f 470//484 458//472 459//459
f 471//486 470//484 459//459
f 487//487 471//486 460//460
f 473//488 437//441 486//485
f 402//391 437//441 473//488
f 471//486 459//459 460//460
f 460//460 415//416 472//473
f 473//488 488//489 461//443
f 473//488 439//428 402//391
f 473//488 461//443 439//428
f 463//462 462//474 475//490
f 440//461 474//475 476//491
f 462//474 440//461 475//490
f 490//492 443//445 463//462
f 464//476 489//493 474//475
f 476//491 474//475 489//493
f 490//492 493//494 443//445
f 443//445 493//494 466//464
f 477//495 464//476 465//465
f 489//493 464//476 477//495
f 477//495 465//465 467//477
f 491//496 467//477 478//478
f 477//495 467//477 491//496
f 495//497 430//449 466//464
f 495//497 447//466 430//449
f 494//498 478//478 479//499
f 478//478 468//468 479//499
f 495//497 480//479 447//466
f 468//468 497//500 479//499
f 497//500 468//468 499//501
f 481//481 469//471 480//479
f 499//501 468//468 482//480
f 482//480 483//482 499//501
f 502//502 483//482 484//483
f 503//503 486//485 481//481
f 481//481 486//485 436//440
f 484//483 470//484 485//504
f 485//504 470//484 471//486
f 471//486 504//505 485//504
f 472//473 505//506 487//487
f 505//506 472//473 488//489
f 506//507 488//489 473//488
f 486//485 506//507 473//488
f 487//487 460//460 472//473
f 472//473 461//443 488//489
f 440//461 476//491 475//490
f 475//490 476//491 508//508
f 475//490 490//492 463//462
f 507//509 490//492 475//490
f 476//491 489//493 508//508
f 491//496 489//493 477//495
f 492//510 489//493 491//496
f 491//496 478//478 494//498
f 493//494 495//497 466//464
f 496//511 494//498 479//499
f 491//496 494//498 496//511
f 498//512 495//497 515//513
f 496//511 479//499 497//500
f 514//514 496//511 497//500
f 495//497 498//512 480//479
f 500//515 514//514 497//500
f 497//500 499//501 500//515
f 498//512 481//481 480//479
f 483//482 500//515 499//501
f 503//503 481//481 498//512
f 483//482 501//516 500//515
f 501//516 483//482 502//502
f 502//502 484//483 485//504
f 502//502 485//504 504//505
f 504//505 520//517 502//502
f 505//506 504//505 487//487
f 486//485 503//503 519//518
f 471//486 487//487 504//505
f 505//506 488//489 506//507
f 506//507 486//485 519//518
f 508//508 509//519 475//490
f 475//490 509//519 507//509
f 510//520 490//492 507//509
f 489//493 492//510 508//508
f 490//492 510//520 493//494
f 507//509 509//519 512//521
f 512//521 510//520 507//509
f 508//508 492//510 511//522
f 492//510 513//523 511//522
f 496//511 492//510 491//496
f 493//494 515//513 495//497
f 496//511 513//523 492//510
f 514//514 513//523 496//511
f 515//513 493//494 510//520
f 513//523 516//524 511//522
f 513//523 514//514 516//524
f 514//514 500//515 516//524
f 517//525 498//512 515//513
f 517//525 503//503 498//512
f 500//515 501//516 516//524
f 501//516 520//517 516//524
f 518//526 516//524 520//517
f 522//527 503//503 517//525
f 520//517 521//528 518//526
f 519//518 503//503 522//527
f 502//502 520//517 501//516
f 520//517 504//505 521//528
f 521//528 519//518 523//529
f 504//505 505//506 521//528
f 521//528 505//506 506//507
f 521//528 506//507 519//518
f 508//508 511//522 509//519
f 509//519 511//522 512//521
f 512//521 522//527 510//520
f 512//521 511//522 522//527
f 510//520 522//527 515//513
f 518//526 511//522 516//524
f 523//529 511//522 518//526
f 522//527 511//522 523//529
f 515//513 522//527 517//525
f 522//527 523//529 519//518
f 518//526 521//528 523//529
l 529 530
