# Blender 4.0.2
# www.blender.org
mtllib thoracic3.mtl
o thoracic3.002
v -0.025619 0.011087 0.031058
v -0.028834 0.018090 0.031544
v -0.028351 0.010249 0.031911
v -0.030602 0.014742 0.031320
v -0.026520 0.019812 0.031118
v -0.024997 0.020810 0.030634
v -0.022912 0.014526 0.028100
v -0.029697 0.014888 0.031800
v -0.028079 0.019550 0.031276
v -0.028132 0.019620 0.031395
v -0.030370 0.020629 0.028128
v -0.031291 0.010318 0.029026
v -0.023756 0.022644 0.026713
v -0.025404 0.023184 0.025390
v -0.027282 0.010865 0.022115
v -0.031957 0.015622 0.027672
v -0.028307 0.021476 0.022946
v -0.025191 0.008678 0.022929
v -0.021016 0.018055 0.022339
v -0.022617 0.019865 0.017680
v -0.021551 0.009075 0.019529
v -0.024534 0.008055 0.021152
v -0.024698 0.007993 0.021491
v -0.016691 0.026145 0.017889
v -0.016387 0.026346 0.017699
v -0.017243 0.024457 0.017477
v -0.017660 0.024335 0.017397
v -0.018985 0.020177 0.016691
v -0.019445 0.020124 0.016490
v -0.019322 0.011517 0.016061
v -0.024496 0.020789 0.019388
v -0.025691 0.016593 0.015685
v -0.022320 0.006338 0.018615
v -0.022269 0.005992 0.018577
v -0.021717 0.003541 0.018103
v -0.022876 0.005787 0.018645
v -0.023164 0.007634 0.019943
v -0.024415 0.005935 0.018445
v -0.024592 0.007119 0.019489
v -0.022521 0.002519 0.018031
v -0.024256 0.006094 0.018251
v -0.004099 0.015058 0.014602
v -0.016209 0.029096 0.015808
v -0.017028 0.028946 0.016001
v -0.017100 0.029097 0.015851
v -0.017263 0.023728 0.016949
v -0.016184 0.024182 0.015285
v -0.009135 0.003661 0.014916
v -0.019111 0.020216 0.016518
v -0.019060 0.021282 0.016197
v -0.020147 0.020061 0.016228
v -0.017787 0.014841 0.015434
v -0.020223 0.010187 0.013745
v -0.023644 0.017678 0.013784
v -0.024833 0.004419 0.015715
v -0.023498 0.000142 0.014617
v -0.022534 0.002490 0.018166
v 0.005255 0.017039 0.010329
v -0.001011 0.017597 0.013124
v -0.005632 0.017095 0.013811
v -0.003624 0.005825 0.013940
v -0.012769 0.020721 0.013139
v -0.013746 0.022894 0.012444
v -0.015737 0.025390 0.012686
v -0.018038 0.029646 0.013991
v -0.018357 0.029463 0.011811
v 0.000365 0.001183 0.011646
v -0.009602 0.010670 0.013167
v -0.014083 0.014424 0.013423
v -0.014851 0.021713 0.012717
v -0.016849 0.018303 0.013270
v -0.009491 0.000848 0.012416
v -0.013954 0.007126 0.012538
v -0.016152 0.009545 0.013034
v -0.012998 0.003089 0.013481
v -0.013510 0.003205 0.013083
v -0.019079 0.009970 0.010943
v -0.024412 0.008480 0.007509
v -0.024529 -0.001163 0.011049
v -0.027738 -0.001588 0.009750
v -0.023532 0.000022 0.014498
v 0.007827 0.002148 0.007728
v -0.008742 0.019102 0.004800
v -0.012591 0.021404 0.009804
v -0.016969 0.024177 0.010299
v -0.019822 0.029003 0.009013
v -0.019515 0.029362 0.009241
v -0.007292 0.002047 0.008629
v -0.015893 0.010095 0.008898
v -0.017351 0.012932 0.008616
v -0.013649 0.000375 0.009556
v -0.015507 0.007852 0.010800
v -0.016739 0.008683 0.011177
v -0.016912 0.008925 0.011331
v -0.018195 0.010903 0.009483
v -0.013598 0.000795 0.007679
v -0.025128 0.015743 0.009649
v -0.026193 -0.000604 0.008306
v -0.030747 0.001454 0.008578
v -0.027552 -0.001413 0.009730
v -0.026738 -0.001494 0.009321
v -0.030147 -0.003199 0.007570
v 0.008389 0.018157 0.006737
v 0.007251 0.000813 0.007145
v -0.009993 0.019803 0.005979
v -0.014062 0.017519 0.008393
v -0.023476 0.018376 0.007296
v -0.021147 0.023422 0.007536
v -0.019688 0.028699 0.009039
v -0.021780 0.019629 0.006525
v -0.022072 0.020060 0.006215
v -0.012618 0.000707 0.006125
v -0.022826 0.018019 0.006279
v -0.027277 0.015570 0.005838
v -0.027542 -0.002129 0.008035
v -0.033685 -0.008131 0.004345
v 0.010056 0.000681 0.004371
v 0.009904 0.000552 0.004429
v -0.008041 0.018868 0.000326
v -0.010117 0.019871 0.005958
v -0.008945 0.018067 0.002582
v -0.009333 0.001282 0.002665
v -0.010933 0.002177 0.002262
v -0.012799 0.000808 0.006819
v -0.024521 0.011167 0.004819
v -0.026326 0.014438 0.003948
v -0.029159 0.014757 0.005406
v -0.039116 0.003949 0.000947
v -0.034753 -0.008761 0.004156
v -0.039138 -0.011230 0.002032
v -0.041380 -0.011613 0.002220
v 0.011877 0.016974 0.002179
v 0.011145 0.001750 0.002059
v -0.009938 0.007882 0.001056
v -0.010900 0.002185 0.002124
v -0.025843 0.010514 -0.000627
v -0.028378 0.014782 0.000590
v -0.030106 0.015069 -0.002498
v -0.032558 0.013576 -0.001703
v -0.028852 -0.001097 0.000459
v -0.041072 -0.005895 0.002200
v -0.041905 -0.000399 0.000510
v -0.045741 -0.005024 0.000535
v -0.043414 -0.013229 0.001821
v -0.045084 -0.016670 0.000003
v -0.055165 -0.012571 0.000235
v -0.052539 -0.021525 0.001766
v -0.052638 -0.022513 0.000553
v -0.054197 -0.022034 0.001032
v -0.054446 -0.022173 0.001131
v -0.054477 -0.022197 -0.000006
v 0.011157 0.017647 -0.004352
v 0.011086 0.017642 -0.004093
v 0.010944 0.000548 -0.003099
v -0.008611 0.018864 -0.002114
v -0.009868 0.011097 -0.002794
v -0.010464 0.001277 -0.002222
v -0.010280 0.001059 -0.002605
v -0.035449 0.009702 0.000185
v -0.038214 0.004369 0.000959
v -0.036964 0.006409 -0.002388
v -0.038113 -0.010700 -0.002962
v -0.043235 -0.014564 -0.002016
v -0.046829 -0.006072 0.000394
v -0.045797 -0.004953 -0.000708
v -0.046853 -0.005708 -0.000832
v -0.054810 -0.012559 -0.001152
v -0.053375 -0.022489 -0.002061
v -0.052613 -0.021533 -0.002400
v -0.053533 -0.022257 -0.001843
v -0.054718 -0.020515 -0.002224
v 0.009272 0.018458 -0.005499
v -0.006699 0.018078 -0.013359
v 0.008757 0.000352 -0.004714
v 0.009920 0.002277 -0.006194
v -0.008444 0.019025 -0.004300
v -0.008861 0.018869 -0.003953
v -0.011717 0.003003 -0.004613
v -0.012457 0.000497 -0.006828
v -0.024784 0.009819 -0.006323
v -0.024430 0.011515 -0.005264
v -0.026362 0.015022 -0.005176
v -0.028090 0.015446 -0.006415
v -0.034015 -0.008435 -0.005227
v 0.009163 0.017628 -0.007453
v 0.007240 0.011437 -0.008592
v 0.007367 0.000964 -0.008166
v -0.011171 0.019516 -0.008068
v -0.010505 0.020010 -0.007428
v -0.022325 0.019580 -0.007320
v -0.013645 0.001280 -0.007967
v -0.015797 0.009436 -0.009694
v -0.025773 0.015170 -0.005442
v -0.024413 0.015880 -0.006166
v -0.023775 0.018003 -0.008624
v -0.030468 -0.004835 -0.007259
v -0.030346 -0.000724 -0.008870
v 0.002967 0.001789 -0.011645
v 0.001382 0.001139 -0.011849
v -0.011838 0.021937 -0.012588
v -0.011188 0.020121 -0.008705
v -0.013333 0.022618 -0.011560
v -0.019232 0.029430 -0.010407
v -0.015383 0.021556 -0.010179
v -0.018966 0.029592 -0.010323
v -0.020385 0.028020 -0.009740
v -0.020822 0.026048 -0.008799
v -0.020768 0.026129 -0.008788
v -0.010646 0.001116 -0.012543
v -0.017599 0.011224 -0.009777
v -0.019018 0.011334 -0.009428
v -0.013290 0.000649 -0.010436
v -0.020134 0.010147 -0.010659
v -0.024904 0.016050 -0.010295
v -0.023620 0.008884 -0.008842
v -0.024910 -0.001159 -0.011033
v -0.027156 -0.001775 -0.009607
v -0.027308 -0.001147 -0.011011
v -0.028496 -0.001665 -0.009817
v 0.000721 0.016684 -0.013793
v 0.004502 0.017380 -0.011456
v 0.000209 0.017980 -0.012795
v -0.001602 0.001715 -0.013371
v -0.004929 0.006165 -0.014988
v -0.013495 0.022750 -0.011742
v -0.015121 0.024194 -0.013428
v -0.013616 0.021977 -0.013498
v -0.014994 0.024215 -0.012817
v -0.019567 0.029350 -0.010781
v -0.001661 0.001749 -0.013364
v -0.009225 0.010229 -0.013768
v -0.006353 0.001567 -0.013955
v -0.016793 0.018035 -0.013753
v -0.013563 0.007396 -0.013422
v -0.013505 0.007402 -0.013304
v -0.022270 0.017862 -0.013215
v -0.014082 0.002497 -0.013319
v -0.015603 0.008091 -0.011973
v -0.018307 0.009896 -0.011066
v -0.020431 0.009934 -0.014457
v -0.023151 0.000407 -0.016232
v -0.004178 0.011221 -0.014371
v -0.006499 0.016177 -0.015286
v -0.017408 0.029907 -0.014718
v -0.017035 0.029689 -0.015673
v -0.015536 0.023070 -0.014573
v -0.014952 0.015058 -0.014081
v -0.009732 0.004192 -0.015567
v -0.017944 0.015870 -0.015930
v -0.016252 0.010672 -0.014315
v -0.019420 0.010916 -0.016261
v -0.019218 0.010791 -0.016333
v -0.024813 0.017192 -0.014351
v -0.024591 0.016966 -0.013832
v -0.023135 0.000390 -0.016020
v -0.024895 0.003650 -0.016097
v -0.016415 0.028367 -0.017331
v -0.016738 0.027495 -0.018172
v -0.016615 0.026838 -0.018373
v -0.017391 0.024739 -0.018340
v -0.019389 0.022129 -0.016207
v -0.019224 0.021489 -0.016782
v -0.018503 0.021304 -0.017019
v -0.018242 0.021883 -0.016564
v -0.019336 0.019972 -0.016469
v -0.019554 0.019659 -0.018482
v -0.020404 0.020133 -0.016503
v -0.020880 0.019875 -0.018009
v -0.022557 0.019999 -0.019204
v -0.020848 0.019816 -0.018005
v -0.021928 0.002819 -0.018392
v -0.021731 0.007669 -0.019317
v -0.022573 0.002897 -0.019075
v -0.023575 0.005347 -0.019157
v -0.020847 0.018398 -0.021754
v -0.028013 0.021764 -0.023280
v -0.024660 0.007793 -0.021030
v -0.026706 0.010207 -0.022279
v -0.031919 0.015052 -0.027999
v -0.024242 0.023260 -0.027240
v -0.022682 0.014349 -0.028446
v -0.025479 0.010244 -0.031175
v -0.028364 0.009381 -0.028940
v -0.024117 0.021462 -0.030001
v -0.024648 0.019587 -0.031311
v -0.022721 0.014366 -0.028560
v -0.028344 0.019345 -0.031788
v -0.030127 0.020834 -0.028984
v -0.031375 0.010746 -0.030096
v -0.027648 0.010780 -0.032968
v -0.028874 0.015349 -0.032322
v -0.030566 0.015708 -0.032003
v -0.029722 0.014854 0.031739
v -0.021016 0.018055 0.022339
v -0.017243 0.024457 0.017477
v -0.024496 0.020789 0.019388
v -0.021845 0.003653 0.018028
v -0.022821 0.005828 0.018637
v -0.016222 0.028417 0.016390
v -0.016184 0.024182 0.015285
v -0.019531 0.020407 0.016616
v -0.001062 0.017510 0.012966
v -0.013792 0.022836 0.012402
v -0.015737 0.025390 0.012686
v -0.018748 0.029790 0.011290
v -0.014801 0.021649 0.013135
v -0.014801 0.021649 0.013135
v -0.015646 0.007844 0.010799
v -0.016912 0.008925 0.011331
v -0.018180 0.010812 0.009418
v -0.026743 -0.001504 0.009315
v 0.007251 0.000813 0.007145
v -0.033709 -0.008174 0.004339
v 0.011145 0.001750 0.002059
v -0.010900 0.002185 0.002124
v -0.047043 -0.018349 0.000294
v -0.008023 0.018912 0.000276
v 0.010525 0.000686 -0.003072
v 0.010525 0.000686 -0.003072
v 0.008757 0.000352 -0.004714
v -0.024736 0.011293 -0.004908
v -0.034121 -0.008207 -0.004895
v 0.007367 0.000964 -0.008166
v -0.013420 0.000508 -0.010413
v -0.019232 0.029430 -0.010407
v -0.019439 0.028401 -0.009742
v -0.020385 0.028020 -0.009740
v -0.020385 0.028020 -0.009740
v -0.020385 0.028020 -0.009740
v -0.020876 0.026164 -0.008758
v -0.017647 0.011497 -0.010068
v -0.025807 -0.000975 -0.010095
v -0.028465 -0.001625 -0.009840
v -0.013537 0.022842 -0.012819
v -0.019349 0.029233 -0.010688
v -0.018280 0.029707 -0.012196
v -0.010586 0.001065 -0.012456
v -0.018251 0.009983 -0.011087
v -0.017715 0.029696 -0.014488
v -0.014939 0.015119 -0.014184
v -0.016409 0.028576 -0.017106
v -0.019256 0.020347 -0.017380
v -0.018676 0.021488 -0.015710
v -0.019224 0.021489 -0.016782
v -0.018528 0.021832 -0.015896
v -0.018676 0.021105 -0.017005
v -0.019702 0.020427 -0.017200
v -0.019702 0.020427 -0.017200
v -0.019830 0.020574 -0.017227
v -0.019644 0.019659 -0.018179
v -0.019644 0.019659 -0.018179
v -0.020404 0.020133 -0.016503
v -0.028309 0.019510 -0.031778
vn 0.5862 -0.3295 0.7402
vn -0.2591 0.2612 0.9299
vn -0.0763 -0.5956 0.7996
vn -0.3450 0.2280 0.9105
vn -0.5887 0.1061 0.8014
vn -0.7323 0.0518 0.6790
vn -0.7785 -0.6167 0.1169
vn 0.4111 0.4883 0.7698
vn 0.4268 -0.2509 0.8688
vn -0.4667 0.6641 0.5841
vn 0.8258 -0.0766 0.5588
vn 0.8194 -0.4070 0.4037
vn 0.0765 0.1420 0.9869
vn -0.7402 0.6440 0.1936
vn 0.4253 -0.6798 0.5974
vn -0.5478 -0.8358 -0.0361
vn -0.9954 0.0598 -0.0745
vn 0.5931 0.7533 0.2842
vn -0.0271 0.9995 -0.0182
vn -0.6452 0.6663 -0.3739
vn -0.7828 -0.4782 -0.3981
vn -0.9050 0.2067 -0.3717
vn 0.7035 0.7098 0.0341
vn 0.0745 0.9732 -0.2174
vn 0.9101 0.1491 0.3866
vn 0.1387 0.9269 -0.3488
vn 0.7882 -0.3871 0.4785
vn -0.7056 -0.6789 0.2029
vn 0.6339 0.6945 0.3403
vn -0.2464 0.8425 -0.4790
vn -0.4759 0.8197 -0.3190
vn 0.0753 -0.9123 0.4026
vn 0.0180 -0.6685 0.7435
vn -0.1353 -0.5972 0.7906
vn -0.9456 -0.3247 0.0209
vn -0.0886 -0.2008 0.9756
vn 0.0783 -0.3949 0.9154
vn 0.9113 -0.2314 0.3405
vn -0.1168 -0.2359 0.9647
vn 0.5866 -0.0132 0.8098
vn -0.2271 0.8173 0.5295
vn -0.4504 0.8887 0.0856
vn 0.5951 -0.1101 0.7961
vn 0.4936 -0.8672 0.0657
vn 0.0268 -0.3183 0.9476
vn 0.3608 -0.3162 0.8774
vn 0.7571 -0.1691 0.6310
vn -0.4085 -0.5941 0.6929
vn -0.4557 -0.2956 0.8396
vn -0.5423 -0.5965 0.5917
vn -0.9430 0.3101 0.1209
vn 0.1316 0.0963 0.9866
vn 0.5225 0.3946 0.7558
vn 0.3533 0.1109 0.9289
vn 0.2280 0.7563 0.6132
vn 0.6388 0.6930 0.3341
vn -0.1109 -0.0307 0.9934
vn 0.1306 -0.0103 0.9914
vn -0.0280 0.2152 0.9762
vn 0.1451 0.7058 0.6934
vn -0.0933 0.8042 0.5869
vn 0.9682 0.1939 -0.1582
vn 0.8689 -0.2479 0.4284
vn -0.8238 0.2403 0.5134
vn -0.2412 0.9387 0.2464
vn 0.6544 -0.4357 0.6180
vn 0.6256 0.3723 0.6856
vn 0.7496 -0.4016 0.5261
vn 0.2491 -0.0664 0.9662
vn -0.0856 -0.2205 0.9716
vn 0.2569 -0.7370 0.6252
vn 0.5375 0.0481 0.8419
vn -0.8003 0.3167 0.5090
vn 0.3296 0.2574 0.9084
vn -0.0243 -0.9236 0.3826
vn -0.4690 -0.1035 0.8771
vn -0.4609 0.0968 0.8821
vn -0.0434 -0.5750 0.8170
vn 0.8045 -0.4451 -0.3932
vn -0.8170 0.5143 0.2607
vn 0.8540 -0.5086 0.1097
vn 0.4124 -0.8478 0.3335
vn 0.6274 -0.7695 -0.1191
vn -0.6350 -0.0189 0.7723
vn 0.6394 -0.2405 0.7303
vn 0.1660 0.3673 0.9152
vn 0.6398 -0.2635 0.7220
vn 0.7115 -0.1865 0.6774
vn 0.7376 0.5131 -0.4388
vn 0.7609 0.5783 0.2945
vn 0.7396 0.5527 0.3841
vn -0.1268 0.6820 -0.7202
vn 0.5182 0.3670 -0.7725
vn 0.7590 0.2695 -0.5926
vn -0.0995 0.9927 -0.0687
vn -0.9023 0.3270 0.2810
vn -0.0645 0.0895 0.9939
vn -0.7821 0.6067 -0.1424
vn -0.6812 -0.3257 0.6557
vn -0.5462 -0.8282 0.1257
vn -0.3862 -0.3594 0.8495
vn -0.5901 -0.7004 0.4016
vn -0.0808 -0.9244 0.3727
vn -0.0659 -0.9717 -0.2269
vn -0.6725 -0.6600 -0.3348
vn 0.3098 -0.9333 -0.1815
vn 0.5837 0.6536 0.4818
vn -0.0723 0.9974 -0.0061
vn 0.0996 0.9949 0.0160
vn 0.5196 -0.5203 0.6777
vn 0.1151 -0.9929 0.0289
vn 0.0247 -0.9925 0.1194
vn 0.2916 0.9399 -0.1776
vn 0.0702 -0.9954 -0.0646
vn 0.8162 0.4228 -0.3938
vn -0.4221 0.2267 -0.8777
vn 0.0307 -0.1641 -0.9860
vn -0.6303 -0.1927 -0.7520
vn -0.1460 -0.9890 -0.0223
vn -0.7616 -0.5824 -0.2841
vn -0.5731 -0.7857 0.2328
vn 0.1025 -0.6453 -0.7570
vn -0.2858 -0.2394 -0.9279
vn 0.4424 -0.8944 0.0655
vn 0.8074 -0.4607 -0.3685
vn 0.8186 -0.5709 -0.0631
vn -0.1737 -0.4632 0.8691
vn 0.6019 -0.7979 0.0320
vn 0.7766 -0.6155 -0.1348
vn 0.8461 -0.0987 0.5238
vn 0.8607 0.4583 0.2217
vn -0.7358 0.2658 -0.6229
vn 0.3770 0.9150 -0.1438
vn -0.9262 0.0436 -0.3746
vn 0.4734 0.0450 -0.8797
vn 0.1817 0.2248 -0.9573
vn -0.0709 0.3064 -0.9492
vn -0.8041 0.3732 -0.4628
vn -0.7988 0.3532 -0.4870
vn -0.6589 -0.6806 -0.3202
vn -0.5515 -0.7095 -0.4387
vn -0.3555 0.9317 -0.0751
vn 0.8331 -0.0723 -0.5484
vn -0.6144 0.7186 0.3258
vn -0.6357 0.2672 0.7243
vn 0.8842 -0.4664 -0.0255
vn 0.9846 -0.0390 -0.1702
vn 0.9776 -0.0486 0.2050
vn 0.3007 0.8608 -0.4105
vn 0.1552 0.9821 0.1072
vn -0.9042 0.3690 -0.2151
vn -0.9900 0.1151 -0.0814
vn -0.0324 -0.9994 0.0157
vn -0.3626 -0.8128 -0.4559
vn 0.5518 0.6119 -0.5666
vn 0.9950 0.0975 0.0234
vn -0.7074 0.6955 -0.1255
vn -0.3741 0.1260 0.9188
vn -0.0130 -0.2395 0.9708
vn 0.3422 -0.6717 0.6570
vn 0.2836 -0.8078 0.5167
vn -0.6272 0.4158 0.6586
vn 0.2237 -0.7277 -0.6484
vn 0.4110 -0.8424 0.3486
vn 0.3210 0.9467 0.0276
vn 0.9319 0.0752 -0.3549
vn 0.3026 0.9368 -0.1754
vn -0.5727 0.8168 0.0703
vn -0.9557 0.2276 0.1867
vn -0.9640 0.1277 0.2334
vn -0.5284 -0.8389 0.1304
vn -0.9631 -0.0621 0.2617
vn 0.6328 0.7617 -0.1390
vn -0.3294 0.9439 -0.0246
vn -0.8197 0.5600 0.1205
vn 0.6876 -0.7243 0.0509
vn -0.7256 0.6813 0.0969
vn -0.5779 0.5491 0.6038
vn 0.6202 -0.7570 0.2059
vn 0.2641 -0.5392 0.7997
vn -0.6540 0.7455 0.1287
vn -0.6535 0.3773 -0.6562
vn -0.8130 0.3768 0.4440
vn 0.0599 -0.4257 0.9029
vn 0.0924 -0.9864 -0.1362
vn 0.5957 -0.7634 -0.2499
vn 0.2518 -0.9389 0.2348
vn 0.2952 -0.5251 -0.7982
vn -0.0777 -0.4137 0.9071
vn -0.7493 -0.6620 -0.0175
vn -0.7104 0.0026 0.7038
vn -0.7153 -0.1434 -0.6840
vn 0.2585 -0.9660 0.0042
vn 0.7408 -0.6699 0.0494
vn -0.0503 -0.9987 0.0015
vn 0.1767 -0.8610 -0.4769
vn -0.8809 0.0134 0.4731
vn 0.3484 0.7863 0.5103
vn -0.5220 0.8176 -0.2431
vn 0.8026 -0.3960 0.4460
vn -0.7917 0.4254 -0.4385
vn -0.8162 0.5753 0.0527
vn -0.5999 -0.1461 -0.7866
vn -0.2631 0.1110 -0.9584
vn 0.1814 -0.3571 -0.9163
vn -0.6132 -0.7284 -0.3055
vn 0.6281 -0.0412 -0.7770
vn 0.6521 0.4328 -0.6224
vn 0.7900 -0.2666 -0.5521
vn 0.5579 -0.6906 -0.4602
vn 0.5917 -0.6846 -0.4257
vn 0.6480 -0.2039 -0.7339
vn -0.2498 0.9593 0.1318
vn -0.6620 0.2360 0.7114
vn 0.7364 -0.0777 0.6721
vn 0.3757 0.1822 0.9087
vn 0.9032 -0.3123 0.2946
vn -0.2168 -0.3767 -0.9006
vn 0.3805 0.2322 -0.8951
vn 0.4636 -0.3216 -0.8256
vn -0.7602 0.2453 0.6015
vn 0.5105 0.8153 -0.2733
vn -0.2716 0.8535 0.4447
vn 0.0414 0.7120 0.7010
vn 0.0719 -0.9972 -0.0229
vn -0.6641 -0.2632 0.6998
vn 0.2495 -0.9680 -0.0259
vn -0.8014 -0.5173 0.3003
vn -0.7721 -0.6196 -0.1412
vn -0.8007 0.5990 0.0076
vn 0.0138 0.4997 0.8661
vn -0.1890 0.2854 0.9396
vn 0.4270 -0.0555 0.9025
vn 0.7301 -0.5346 0.4256
vn 0.2959 -0.7469 0.5955
vn -0.8141 0.4906 -0.3108
vn 0.8454 -0.2413 0.4765
vn 0.7360 -0.6074 0.2991
vn 0.7171 -0.6785 0.1590
vn 0.1328 -0.8146 -0.5646
vn -0.2610 -0.4807 -0.8371
vn 0.1746 0.8573 -0.4844
vn 0.5796 -0.1213 -0.8058
vn 0.1807 -0.0581 -0.9818
vn 0.1032 -0.9714 -0.2138
vn 0.5610 0.8173 0.1316
vn 0.0406 0.5142 0.8567
vn 0.7484 0.2407 0.6181
vn 0.6749 0.6839 0.2771
vn -0.2149 0.5378 0.8152
vn -0.1964 0.4922 0.8480
vn -0.1882 0.4718 0.8614
vn -0.2240 0.5604 0.7974
vn -0.1419 -0.1540 0.9778
vn -0.9233 0.3311 0.1944
vn 0.5680 0.0558 0.8211
vn -0.9287 0.3325 0.1642
vn -0.8661 0.2891 -0.4077
vn -0.8370 0.3520 -0.4190
vn 0.1197 -0.9904 -0.0694
vn -0.3935 -0.8396 0.3744
vn 0.1300 -0.5889 0.7977
vn 0.2683 -0.9424 0.1997
vn -0.7320 -0.6360 -0.2441
vn -0.6972 0.7165 0.0215
vn -0.6868 -0.4436 -0.5757
vn 0.4972 -0.8675 0.0163
vn -0.8267 -0.1746 -0.5348
vn -0.5893 -0.5047 -0.6309
vn -0.3233 -0.7900 -0.5209
vn -0.5481 -0.3069 -0.7780
vn 0.2674 -0.2718 -0.9245
vn 0.1841 0.0060 -0.9829
vn 0.8488 0.4492 -0.2790
vn 0.3271 0.2268 -0.9173
vn 0.5991 0.8002 0.0273
vn -0.4547 0.8625 0.2221
vn -0.3510 0.9326 -0.0837
vn -0.4399 0.8785 0.1864
vn 0.8828 0.4065 0.2354
vn -0.3602 0.9282 -0.0932
vn 0.2958 -0.0048 -0.9552
vn -0.1457 -0.7986 -0.5839
vn 0.0637 -0.7159 -0.6953
vn -0.6089 0.6862 0.3981
vn -0.8298 0.4386 -0.3451
vn 0.2711 -0.3383 -0.9011
vn -0.0850 0.0103 -0.9963
vn -0.6541 -0.1846 -0.7335
vn -0.7298 0.3087 -0.6100
vn -0.8679 0.4666 -0.1704
vn -0.8399 0.2119 -0.4997
vn -0.1622 0.9808 0.1082
vn -0.6201 0.7712 0.1440
vn -0.4193 0.8247 0.3794
vn 0.9411 -0.1853 0.2828
vn -0.8246 0.3852 0.4142
vn 0.0789 0.2292 -0.9702
vn 0.7481 -0.0933 -0.6569
vn 0.0660 0.1026 -0.9925
vn 0.5049 0.0568 -0.8613
vn 0.3491 0.0386 -0.9363
vn -0.1370 -0.1680 -0.9762
vn 0.7039 0.0191 -0.7100
vn 0.7853 -0.2316 -0.5741
vn -0.1023 -0.9688 -0.2258
vn 0.6823 -0.7058 -0.1908
vn 0.5155 -0.0864 -0.8526
vn -0.4773 0.5395 -0.6936
vn -0.6830 0.4813 -0.5494
vn 0.3109 0.9410 0.1338
vn 0.7823 -0.4135 -0.4659
vn 0.8602 -0.4169 -0.2936
vn -0.5599 -0.8109 -0.1699
vn -0.2855 -0.4321 -0.8554
vn -0.0259 -0.4808 -0.8765
vn 0.9697 0.2334 -0.0719
vn -0.2272 0.7183 -0.6576
vn -0.7898 0.3291 -0.5176
vn 0.2150 -0.2611 -0.9411
vn -0.3171 -0.1101 -0.9420
vn 0.8813 -0.0544 -0.4695
vn -0.4594 -0.1470 -0.8760
vn -0.0153 0.7809 -0.6244
vn -0.0676 0.8387 -0.5403
vn -0.0349 0.8037 -0.5940
vn 0.0042 0.7568 -0.6537
vn -0.7039 0.5110 -0.4934
vn 0.2163 0.9265 -0.3078
vn -0.5654 0.7432 0.3577
vn 0.9098 0.3356 -0.2442
vn 0.9377 -0.0687 -0.3405
vn 0.5395 -0.5958 -0.5949
vn -0.7950 -0.4432 0.4141
vn -0.9898 0.0101 0.1418
vn 0.3322 0.9289 -0.1636
vn 0.5134 0.6046 -0.6090
vn -0.7062 0.6709 -0.2261
vn -0.2432 -0.9649 -0.0995
vn -0.8063 -0.5542 -0.2066
vn 0.4488 0.0919 -0.8889
vn 0.7903 0.1174 -0.6014
vn -0.1443 0.4378 -0.8874
vn 0.1568 0.1371 -0.9781
vn -0.6612 0.1375 -0.7375
vn 0.0641 -0.4301 -0.9005
vn -0.1522 0.1483 -0.9772
s 1
usemtl mtl1.1078
f 1//1 8//2 3//3
f 8//2 2//4 293//5
f 2//4 4//6 293//5
f 3//3 293//5 4//6
f 4//6 12//7 3//3
f 2//4 6//8 5//9
f 5//9 6//8 10//10
f 7//11 6//8 2//4
f 21//12 7//11 1//1
f 7//11 8//2 1//1
f 7//11 2//4 8//2
f 5//9 9//13 2//4
f 6//8 11//14 10//10
f 3//3 37//15 1//1
f 2//4 10//10 4//6
f 4//6 10//10 11//14
f 18//16 37//15 3//3
f 3//3 12//7 18//16
f 12//7 4//6 16//17
f 11//14 16//17 4//6
f 6//8 7//11 13//18
f 14//19 6//8 13//18
f 14//19 11//14 6//8
f 11//14 14//19 17//20
f 15//21 18//16 12//7
f 16//17 32//22 12//7
f 19//23 20//24 13//18
f 294//25 13//18 7//11
f 14//19 13//18 20//24
f 31//26 14//19 20//24
f 7//11 21//12 30//27
f 21//12 1//1 37//15
f 17//20 16//17 11//14
f 23//28 18//16 15//21
f 15//21 12//7 32//22
f 28//29 294//25 7//11
f 296//30 54//31 17//20
f 14//19 296//30 17//20
f 32//22 16//17 17//20
f 22//32 37//15 18//16
f 38//33 37//15 22//32
f 38//33 298//34 37//15
f 39//35 23//28 15//21
f 24//36 27//37 25//38
f 25//38 27//37 295//39
f 28//29 7//11 30//27
f 52//40 28//29 30//27
f 29//41 294//25 28//29
f 20//24 19//23 29//41
f 20//24 29//41 51//42
f 54//31 296//30 20//24
f 21//12 34//43 30//27
f 30//27 34//43 53//44
f 32//22 17//20 54//31
f 36//45 33//46 21//12
f 33//46 36//45 34//43
f 35//47 34//43 36//45
f 53//44 34//43 35//47
f 36//45 21//12 37//15
f 32//22 39//35 15//21
f 36//45 41//48 35//47
f 35//47 41//48 57//49
f 57//49 41//48 80//50
f 41//48 39//35 55//51
f 42//52 58//53 59//54
f 60//55 63//56 42//52
f 68//57 42//52 69//58
f 42//52 63//56 62//59
f 62//59 69//58 42//52
f 24//36 299//60 44//61
f 43//62 25//38 47//63
f 44//61 45//64 24//36
f 45//64 65//65 24//36
f 44//61 299//60 65//65
f 27//37 46//66 295//39
f 49//67 47//63 46//66
f 49//67 46//66 27//37
f 47//63 25//38 46//66
f 46//66 25//38 26//68
f 61//69 48//70 67//71
f 49//67 28//29 71//72
f 49//67 27//37 50//73
f 49//67 50//73 301//74
f 29//41 50//73 51//42
f 48//70 72//75 67//71
f 48//70 73//76 75//77
f 74//78 52//40 30//27
f 71//72 28//29 52//40
f 54//31 20//24 51//42
f 30//27 53//44 74//78
f 78//79 53//44 35//47
f 32//22 55//51 39//35
f 55//51 32//22 97//80
f 40//81 56//81 297//81
f 81//82 79//83 35//47
f 80//50 55//51 99//84
f 55//51 80//50 41//48
f 59//54 60//55 42//52
f 42//52 61//69 58//53
f 67//71 82//85 61//69
f 61//69 42//52 68//57
f 63//56 306//86 62//59
f 307//87 303//88 47//63
f 43//62 47//63 64//89
f 63//56 304//90 300//91
f 63//56 84//92 304//90
f 64//89 85//93 43//62
f 85//93 87//94 43//62
f 299//60 66//95 65//65
f 66//95 86//96 65//65
f 61//69 68//57 48//70
f 70//97 69//58 62//59
f 69//58 52//40 74//78
f 69//58 71//72 52//40
f 69//58 70//97 71//72
f 47//63 49//67 71//72
f 307//87 47//63 71//72
f 50//73 24//36 65//65
f 65//65 107//98 50//73
f 68//57 74//78 73//76
f 68//57 69//58 74//78
f 48//70 68//57 73//76
f 107//98 51//42 50//73
f 76//99 72//75 48//70
f 72//75 76//99 91//100
f 73//76 76//99 75//77
f 76//99 73//76 92//101
f 76//99 92//101 91//100
f 94//102 73//76 74//78
f 309//103 74//78 53//44
f 53//44 77//104 93//105
f 78//79 35//47 79//83
f 81//82 57//49 80//50
f 80//50 79//83 81//82
f 79//83 80//50 100//106
f 103//107 302//108 58//53
f 103//107 60//55 302//108
f 103//107 119//109 60//55
f 67//71 104//110 82//85
f 67//71 118//111 312//112
f 82//85 58//53 61//69
f 119//109 83//113 60//55
f 88//114 118//111 67//71
f 60//55 83//113 63//56
f 83//113 84//92 63//56
f 64//89 84//92 85//93
f 87//94 305//115 43//62
f 84//92 106//116 85//93
f 85//93 106//116 90//117
f 67//71 72//75 88//114
f 91//100 88//114 72//75
f 89//118 90//117 106//116
f 97//80 51//42 107//98
f 122//119 88//114 91//100
f 92//101 93//105 96//120
f 308//121 73//76 94//102
f 89//118 93//105 77//104
f 89//118 77//104 95//122
f 89//118 310//123 90//117
f 78//79 95//122 77//104
f 97//80 54//31 51//42
f 97//80 32//22 54//31
f 92//101 96//120 91//100
f 77//104 53//44 78//79
f 97//80 99//84 55//51
f 101//124 79//83 100//106
f 79//83 98//125 78//79
f 79//83 101//124 98//125
f 98//125 101//124 311//126
f 100//106 102//127 101//124
f 80//50 99//84 102//127
f 115//128 98//125 311//126
f 115//128 101//124 102//127
f 102//127 116//129 115//128
f 82//85 117//130 132//131
f 132//131 58//53 82//85
f 117//130 82//85 104//110
f 120//132 106//116 84//92
f 84//92 83//113 105//133
f 120//132 123//134 106//116
f 87//94 85//93 110//135
f 88//114 122//119 118//111
f 89//118 106//116 123//134
f 110//135 85//93 90//117
f 65//65 86//96 107//98
f 87//94 110//135 108//136
f 110//135 90//117 113//137
f 109//138 111//139 107//98
f 112//140 122//119 91//100
f 96//120 112//140 91//100
f 96//120 123//134 124//141
f 89//118 123//134 96//120
f 93//105 89//118 96//120
f 90//117 95//122 113//137
f 107//98 114//142 97//80
f 111//139 113//137 107//98
f 95//122 78//79 125//143
f 97//80 114//142 127//144
f 97//80 127//144 128//145
f 140//146 78//79 98//125
f 99//84 97//80 128//145
f 154//147 132//131 133//148
f 133//148 132//131 117//130
f 103//107 58//53 132//131
f 173//149 119//109 103//107
f 176//150 119//109 173//149
f 83//113 121//151 105//133
f 121//151 134//152 120//132
f 120//132 134//152 123//134
f 122//119 158//153 118//111
f 122//119 112//140 135//154
f 95//122 125//143 113//137
f 113//137 125//143 126//155
f 126//155 114//142 113//137
f 113//137 114//142 107//98
f 136//156 126//155 125//143
f 139//157 127//144 114//142
f 136//156 125//143 78//79
f 140//146 136//156 78//79
f 98//125 115//128 140//146
f 140//146 115//128 116//129
f 128//145 141//158 99//84
f 102//127 99//84 141//158
f 141//158 131//159 102//127
f 116//129 102//127 313//160
f 129//161 313//160 102//127
f 131//159 129//161 102//127
f 142//162 141//158 128//145
f 162//163 116//129 129//161
f 130//164 162//163 129//161
f 130//164 129//161 131//159
f 132//131 153//165 103//107
f 152//166 132//131 154//147
f 103//107 153//165 172//167
f 103//107 172//167 173//149
f 317//168 121//151 83//113
f 155//169 156//170 121//151
f 158//153 122//119 315//171
f 123//134 134//152 157//172
f 124//141 135//154 112//140
f 126//155 137//173 114//142
f 138//174 114//142 137//173
f 138//174 139//157 114//142
f 139//157 159//175 127//144
f 128//145 127//144 159//175
f 116//129 184//176 140//146
f 142//162 165//177 143//178
f 145//179 162//163 130//164
f 130//164 131//159 144//180
f 130//164 144//180 145//179
f 142//162 143//178 141//158
f 165//177 164//181 143//178
f 164//181 167//182 146//183
f 144//180 147//184 145//179
f 168//185 316//186 148//187
f 163//188 316//186 168//185
f 131//159 141//158 147//184
f 141//158 143//178 146//183
f 145//179 147//184 148//187
f 149//189 147//184 146//183
f 141//158 146//183 147//184
f 149//189 148//187 147//184
f 148//187 149//189 151//190
f 149//189 146//183 150//191
f 171//192 150//191 146//183
f 152//166 153//165 132//131
f 318//193 314//194 118//111
f 174//195 318//193 118//111
f 174//195 118//111 199//196
f 155//169 121//151 317//168
f 156//170 134//152 121//151
f 178//197 134//152 156//170
f 178//197 157//172 134//152
f 126//155 136//156 137//173
f 137//173 136//156 182//198
f 183//199 138//174 137//173
f 180//200 136//156 140//146
f 139//157 161//201 159//175
f 160//202 159//175 161//201
f 161//201 165//177 160//202
f 142//162 160//202 165//177
f 116//129 162//163 184//176
f 197//203 166//204 161//201
f 162//163 145//179 163//188
f 165//177 167//182 164//181
f 166//204 162//163 167//182
f 163//188 145//179 316//186
f 162//163 163//188 167//182
f 163//188 171//192 167//182
f 169//205 163//188 168//185
f 163//188 169//205 171//192
f 146//183 167//182 171//192
f 168//185 148//187 170//206
f 170//206 148//187 151//190
f 169//205 170//206 171//192
f 151//190 150//191 171//192
f 170//206 151//190 171//192
f 152//166 186//207 185//208
f 152//166 154//147 175//209
f 175//209 319//210 320//211
f 175//209 320//211 187//212
f 176//150 177//213 119//109
f 156//170 155//169 188//214
f 181//215 193//216 182//198
f 136//156 181//215 182//198
f 136//156 180//200 321//217
f 182//198 183//199 137//173
f 183//199 161//201 139//157
f 197//203 322//218 162//163
f 162//163 166//204 197//203
f 153//165 185//208 172//167
f 185//208 220//219 172//167
f 152//166 175//209 186//207
f 198//220 186//207 175//209
f 176//150 188//214 177//213
f 189//221 188//214 176//150
f 176//150 200//222 201//223
f 189//221 202//224 188//214
f 158//153 199//196 118//111
f 158//153 209//225 199//196
f 188//214 178//197 156//170
f 192//226 178//197 188//214
f 209//225 158//153 179//227
f 191//228 324//229 157//172
f 157//172 178//197 191//228
f 178//197 192//226 191//228
f 195//230 194//231 190//232
f 181//215 180//200 211//233
f 194//231 193//216 181//215
f 190//232 194//231 181//215
f 194//231 183//199 182//198
f 194//231 195//230 183//199
f 180//200 215//234 331//235
f 180//200 181//215 321//217
f 214//236 183//199 195//230
f 216//237 180//200 332//238
f 216//237 215//234 180//200
f 183//199 139//157 138//174
f 332//238 180//200 140//146
f 140//146 196//239 332//238
f 217//240 332//238 196//239
f 219//241 322//218 197//203
f 184//176 196//239 140//146
f 220//219 222//242 172//167
f 186//207 221//243 185//208
f 172//167 222//242 173//149
f 198//220 242//244 186//207
f 174//195 199//196 323//245
f 175//209 187//212 198//220
f 199//196 198//220 187//212
f 200//222 176//150 173//149
f 225//246 201//223 200//222
f 204//247 188//214 202//224
f 205//248 190//232 228//249
f 190//232 204//247 228//249
f 326//250 206//251 208//252
f 326//250 203//253 206//251
f 188//214 210//254 192//226
f 188//214 204//247 210//254
f 210//254 204//247 211//233
f 211//233 204//247 190//232
f 190//232 330//255 195//230
f 190//232 205//248 207//256
f 327//257 195//230 330//255
f 195//230 328//258 245//259
f 179//227 212//260 209//225
f 192//226 210//254 239//261
f 338//262 331//235 213//263
f 239//261 238//264 192//226
f 190//232 181//215 211//233
f 236//265 214//236 195//230
f 324//229 191//228 237//266
f 191//228 192//226 237//266
f 331//235 215//234 213//263
f 239//261 213//263 240//267
f 240//267 213//263 215//234
f 256//268 197//203 161//201
f 183//199 256//268 161//201
f 332//238 217//240 241//269
f 218//270 217//240 219//241
f 197//203 218//270 333//271
f 217//240 322//218 219//241
f 333//271 219//241 197//203
f 221//243 186//207 220//219
f 220//219 173//149 222//242
f 186//207 242//244 220//219
f 199//196 223//272 198//220
f 224//273 242//244 198//220
f 226//274 200//222 227//275
f 334//276 225//246 200//222
f 228//249 204//247 202//224
f 225//246 334//276 228//249
f 334//276 226//274 228//249
f 228//249 226//274 205//248
f 325//277 336//278 229//279
f 244//280 205//248 226//274
f 336//278 339//281 229//279
f 230//282 198//220 223//272
f 199//196 337//283 232//284
f 232//284 223//272 199//196
f 198//220 230//282 224//273
f 229//279 329//285 325//277
f 335//286 245//259 328//258
f 250//287 231//288 235//289
f 261//290 267//291 236//265
f 236//265 195//230 245//259
f 337//283 237//266 232//284
f 324//229 237//266 337//283
f 192//226 238//264 237//266
f 234//292 237//266 235//289
f 238//264 235//289 237//266
f 238//264 239//261 240//267
f 268//293 236//265 349//294
f 236//265 254//295 214//236
f 255//296 215//234 216//237
f 256//268 214//236 253//297
f 241//269 197//203 256//268
f 218//270 241//269 217//240
f 241//269 218//270 197//203
f 220//219 243//298 173//149
f 242//244 231//288 243//298
f 220//219 242//244 243//298
f 227//275 173//149 243//298
f 173//149 227//275 200//222
f 246//299 226//274 227//275
f 230//282 232//284 224//273
f 242//244 224//273 231//288
f 231//288 247//300 243//298
f 243//298 247//300 227//275
f 227//275 247//300 233//301
f 227//275 233//301 246//299
f 246//299 259//302 226//274
f 232//284 248//303 224//273
f 248//303 231//288 224//273
f 247//300 231//288 250//287
f 247//300 249//304 233//301
f 233//301 263//305 246//299
f 245//259 261//290 236//265
f 248//303 234//292 231//288
f 251//306 252//307 250//287
f 340//308 250//287 252//307
f 249//304 340//308 252//307
f 261//290 262//309 352//310
f 248//303 232//284 237//266
f 237//266 234//292 248//303
f 235//289 238//264 250//287
f 250//287 238//264 251//306
f 238//264 240//267 251//306
f 236//265 268//293 269//311
f 236//265 253//297 254//295
f 272//312 252//307 240//267
f 255//296 271//313 215//234
f 253//297 277//314 256//268
f 274//315 273//316 256//268
f 214//236 256//268 183//199
f 259//302 257//317 226//274
f 226//274 257//317 244//280
f 341//318 258//319 245//259
f 260//320 258//319 259//302
f 261//290 260//320 264//321
f 263//305 260//320 259//302
f 261//290 245//259 258//319
f 260//320 261//290 258//319
f 263//305 233//301 266//322
f 246//299 263//305 259//302
f 344//323 346//323 265//323
f 264//321 262//309 261//290
f 252//307 266//322 249//304
f 233//301 249//304 266//322
f 270//324 347//325 342//326
f 342//326 350//327 270//324
f 348//328 352//310 262//309
f 351//329 269//311 268//293
f 236//265 276//330 253//297
f 272//312 273//316 274//315
f 272//312 271//313 273//316
f 240//267 215//234 271//313
f 240//267 271//313 272//312
f 271//313 241//269 273//316
f 274//315 256//268 277//314
f 241//269 256//268 273//316
f 266//322 252//307 275//331
f 275//331 269//311 351//329
f 252//307 272//312 281//332
f 274//315 277//314 272//312
f 272//312 277//314 282//333
f 277//314 253//297 278//334
f 253//297 276//330 279//335
f 269//311 275//331 280//336
f 280//336 236//265 269//311
f 252//307 281//332 275//331
f 280//336 276//330 236//265
f 253//297 279//335 278//334
f 280//336 275//331 284//337
f 275//331 281//332 284//337
f 288//338 276//330 280//336
f 283//339 282//333 277//314
f 288//338 279//335 276//330
f 283//339 277//314 278//334
f 289//340 278//334 279//335
f 281//332 285//341 284//337
f 281//332 286//342 285//341
f 287//343 285//341 286//342
f 272//312 282//333 281//332
f 286//342 291//344 287//343
f 289//340 283//339 278//334
f 288//338 280//336 284//337
f 287//343 288//338 284//337
f 288//338 287//343 292//345
f 284//337 285//341 287//343
f 290//346 286//342 282//333
f 291//344 286//342 290//346
f 353//347 291//344 292//345
f 282//333 283//339 290//346
f 290//346 283//339 289//340
f 290//346 289//340 292//345
f 290//346 292//345 291//344
f 292//345 279//335 288//338
f 279//335 292//345 289//340
l 343 345
