# Blender 4.0.2
# www.blender.org
mtllib thoracic6.mtl
o thoracic6.002
v -0.037635 0.021116 -0.035752
v -0.038548 0.021340 -0.035544
v -0.038669 0.013038 -0.036014
v -0.038633 0.021265 -0.035553
v -0.039803 0.017153 -0.035689
v -0.033162 0.011271 -0.032951
v -0.034249 0.010279 -0.031431
v -0.036228 0.022380 -0.034862
v -0.038654 0.022297 -0.034801
v -0.038704 0.010711 -0.033350
v -0.040176 0.012613 -0.033505
v -0.030933 0.019596 -0.030461
v -0.033164 0.023310 -0.032140
v -0.038427 0.020576 -0.029189
v -0.032265 0.023265 -0.026297
v -0.034268 0.023968 -0.024426
v -0.031338 0.010347 -0.023597
v -0.031074 0.010308 -0.022568
v -0.033912 0.023403 -0.024274
v -0.028557 0.020641 -0.023174
v -0.028541 0.020711 -0.023178
v -0.030945 0.009833 -0.020136
v -0.025718 0.019998 -0.018153
v -0.026257 0.014377 -0.019858
v -0.029841 0.009538 -0.020079
v -0.031124 0.021010 -0.019847
v -0.022398 0.013980 -0.014929
v -0.027263 0.005924 -0.015992
v -0.027861 0.000770 -0.016565
v -0.027675 0.001915 -0.016618
v -0.027864 -0.002595 -0.015970
v -0.028194 0.020263 -0.017605
v -0.028068 0.010101 -0.018404
v -0.029249 0.007329 -0.018041
v -0.028085 -0.002341 -0.016246
v -0.028843 -0.003549 -0.015253
v -0.029105 0.019862 -0.015568
v -0.030322 0.007416 -0.017945
v -0.003042 0.001316 -0.014883
v -0.006638 0.002299 -0.015884
v -0.005332 0.000559 -0.014659
v -0.010911 0.017327 -0.014943
v -0.016778 0.003769 -0.016474
v -0.019046 0.015984 -0.013474
v -0.018939 0.008586 -0.012698
v -0.018545 0.001522 -0.013568
v -0.020881 0.017834 -0.012725
v -0.019573 0.011710 -0.012865
v -0.023700 0.030205 -0.014743
v -0.022808 0.030354 -0.014880
v -0.023890 0.030382 -0.014885
v -0.023652 0.027000 -0.016306
v -0.023787 0.026905 -0.016131
v -0.024094 0.024917 -0.015529
v -0.025058 0.023633 -0.015234
v -0.021485 0.027136 -0.011847
v -0.025780 0.021956 -0.015450
v -0.026493 0.009499 -0.014173
v -0.026556 0.021217 -0.015872
v -0.026305 0.022395 -0.014693
v -0.025912 0.020852 -0.016320
v -0.026905 0.021658 -0.014913
v -0.027702 0.005808 -0.016115
v -0.028408 -0.003999 -0.015565
v -0.029489 -0.004891 -0.012341
v -0.031082 0.015506 -0.013437
v 0.009425 0.003058 -0.011143
v 0.000845 0.000607 -0.012867
v -0.005233 0.020099 -0.014539
v -0.009826 0.010838 -0.013977
v -0.010563 0.020249 -0.012293
v -0.017672 0.000339 -0.012856
v -0.018761 0.001108 -0.012602
v -0.017152 0.000342 -0.010974
v -0.017751 0.020243 -0.013746
v -0.018565 0.010723 -0.012747
v -0.019506 0.010142 -0.011931
v -0.019552 0.010080 -0.011930
v -0.019536 0.010076 -0.011879
v -0.020342 0.023306 -0.011959
v -0.022212 0.019193 -0.011805
v -0.022227 0.019208 -0.011823
v -0.022059 0.011894 -0.012939
v -0.023835 0.031794 -0.012843
v -0.024793 0.011431 -0.012951
v -0.028996 -0.004717 -0.012108
v -0.029748 -0.004641 -0.011953
v -0.029277 -0.005097 -0.010837
v -0.030139 -0.005292 -0.010162
v -0.030210 -0.005200 -0.010269
v 0.001872 0.019716 -0.012899
v 0.006551 0.009142 -0.010212
v -0.016112 0.022959 -0.011392
v -0.018457 0.024157 -0.009647
v -0.019877 0.010572 -0.009824
v -0.021554 0.013673 -0.008308
v -0.020393 0.025962 -0.010411
v -0.019989 0.025222 -0.011441
v -0.022181 0.011997 -0.010104
v -0.025152 0.031890 -0.009729
v -0.025723 0.030421 -0.008929
v -0.024988 0.011749 -0.008792
v -0.024943 0.011700 -0.008726
v -0.023709 0.032042 -0.013063
v -0.025277 0.031958 -0.009756
v -0.026751 0.028614 -0.008849
v -0.027824 0.022761 -0.006520
v -0.031354 0.001878 -0.006712
v -0.031753 -0.005103 -0.007258
v -0.031979 -0.004997 -0.009354
v -0.032020 -0.005016 -0.009327
v -0.031410 -0.005452 -0.008991
v -0.035214 -0.009381 -0.006318
v -0.035577 0.005848 -0.006663
v 0.012247 0.002298 -0.007807
v 0.002479 0.019819 -0.012621
v -0.015814 0.022906 -0.008721
v -0.017040 0.021496 -0.007871
v -0.021656 0.013592 -0.008146
v -0.027344 0.022982 -0.006015
v -0.028237 0.016954 -0.004174
v -0.026067 0.013131 -0.006545
v -0.027794 0.022085 -0.006105
v -0.028661 0.022708 -0.005917
v -0.030202 0.018362 -0.005381
v -0.030252 0.008536 -0.003766
v -0.035554 -0.011314 -0.005313
v -0.040743 -0.017673 -0.003061
v -0.039095 -0.015838 -0.003075
v -0.041046 -0.018587 -0.002556
v -0.042225 -0.022327 -0.002208
v -0.042570 -0.024925 -0.002437
v -0.043853 -0.028445 -0.001626
v 0.012174 0.002022 -0.007817
v 0.012104 0.020523 -0.005300
v 0.011833 0.013385 -0.005435
v -0.011491 0.021041 -0.002582
v -0.013503 0.002242 -0.002720
v -0.029386 0.008941 -0.000843
v -0.029880 0.018352 -0.004504
v -0.030876 0.017969 -0.003585
v -0.031897 0.017802 -0.001109
v -0.031069 0.017985 -0.003320
v -0.037003 0.012424 -0.002296
v -0.040221 -0.018129 -0.002053
v -0.041291 -0.020048 -0.002044
v -0.043620 -0.027680 0.000937
v -0.041704 0.006602 -0.000853
v -0.045261 -0.008607 -0.000895
v -0.046823 -0.021735 -0.001410
v -0.046732 -0.027760 -0.000340
v -0.044361 -0.028570 0.000583
v -0.046157 -0.010598 -0.000251
v -0.046708 -0.017883 0.000078
v -0.047469 -0.021321 -0.000362
v -0.046764 -0.017440 0.000270
v -0.012195 0.001757 -0.000253
v -0.011693 0.020908 -0.002325
v -0.012208 0.001772 -0.000235
v -0.012717 0.003719 -0.000255
v -0.029915 0.014864 -0.000396
v -0.028849 0.011499 0.000183
v -0.032011 0.002544 -0.000260
v -0.032085 0.017559 -0.000533
v -0.034739 0.014932 0.000990
v -0.036908 -0.010297 -0.000266
v -0.037841 -0.014284 0.002823
v -0.042025 0.007088 -0.000869
v -0.039025 -0.014856 0.003082
v -0.040606 -0.017533 0.002037
v -0.042533 -0.021282 0.001581
v 0.015007 0.003645 0.000090
v 0.013309 0.019649 -0.000370
v -0.011899 0.020856 0.002515
v -0.011875 0.020358 0.001252
v -0.031008 0.017841 0.002195
v -0.030286 0.008394 0.003207
v -0.032176 0.000924 0.005308
v -0.031710 -0.004834 0.006527
v -0.035588 -0.011543 0.004126
v 0.014084 0.020178 -0.000002
v 0.013028 0.020031 0.002368
v -0.015637 0.000348 0.008319
v -0.016372 0.022501 0.007272
v -0.018674 0.010431 0.007167
v -0.028949 0.018888 0.004063
v -0.025327 0.013765 0.006414
v -0.027221 0.022509 0.005261
v -0.029043 0.022485 0.004903
v -0.029783 0.019055 0.004332
v -0.028639 0.020314 0.005353
v -0.030623 0.003233 0.006096
v -0.032258 -0.005896 0.007267
v -0.030028 0.018553 0.004277
v -0.034290 -0.007736 0.006136
v 0.012580 0.002256 0.007333
v 0.010151 0.020773 0.006684
v 0.011897 0.020460 0.004710
v -0.015615 0.000404 0.008667
v -0.016305 0.022400 0.007382
v -0.017355 0.019786 0.006781
v -0.020141 0.012873 0.007342
v -0.022158 0.012880 0.008045
v -0.024482 0.012182 0.008041
v -0.025672 0.010563 0.011061
v -0.025897 0.030459 0.008314
v -0.027803 0.022556 0.005629
v -0.029846 -0.005361 0.009424
v -0.031884 -0.005684 0.007566
v -0.032719 -0.005374 0.007689
v -0.030978 0.016610 0.008739
v -0.033134 0.008875 0.008113
v 0.010177 0.020757 0.006947
v 0.010791 0.003646 0.009012
v 0.006036 0.009007 0.009843
v -0.018041 0.000249 0.011650
v -0.015625 0.022964 0.008471
v -0.019312 0.009334 0.010254
v -0.019318 0.009745 0.011207
v -0.019239 0.024409 0.008950
v -0.019105 0.024285 0.010253
v -0.021591 0.026661 0.011497
v -0.020903 0.011407 0.009877
v -0.020951 0.026499 0.009430
v -0.022230 0.019340 0.011109
v -0.021982 0.011689 0.010621
v -0.024933 0.032238 0.009427
v -0.025673 0.031437 0.008784
v -0.029390 -0.004512 0.012000
v -0.030869 0.016533 0.008755
v -0.027382 0.007538 0.015619
v -0.030320 -0.005234 0.010228
v 0.006815 0.002003 0.011228
v 0.007906 0.019766 0.009282
v -0.005988 0.020581 0.013693
v -0.009703 0.010310 0.013435
v -0.010344 0.020135 0.011813
v -0.019749 0.022804 0.011400
v -0.019606 0.016496 0.012619
v -0.021342 0.012943 0.013264
v -0.018687 0.010049 0.011912
v -0.019402 0.004238 0.013361
v -0.022232 0.012008 0.012165
v -0.021611 0.017984 0.012112
v -0.023506 0.032205 0.012218
v -0.023673 0.030179 0.014308
v -0.023550 0.030026 0.014509
v -0.025747 0.022640 0.014449
v -0.024896 0.024145 0.014592
v -0.022505 0.019239 0.010860
v -0.028197 -0.002356 0.015180
v -0.028687 -0.003736 0.014235
v -0.028073 -0.001980 0.015250
v -0.028288 -0.002210 0.015787
v -0.029029 0.019942 0.015057
v -0.029706 0.002233 0.017086
v -0.029023 -0.003834 0.013906
v -0.029127 -0.003278 0.014012
v -0.028376 -0.002487 0.015635
v -0.031170 0.016690 0.012992
v -0.004591 0.001803 0.014762
v -0.003475 0.001457 0.014810
v -0.008286 0.017395 0.014542
v -0.017348 0.004860 0.015444
v -0.023744 0.027643 0.015232
v -0.023422 0.027134 0.015392
v -0.025849 0.020237 0.016687
v -0.025072 0.015614 0.017601
v -0.024790 0.013929 0.016592
v -0.027706 0.009693 0.016942
v -0.029303 0.008531 0.017921
v -0.029983 0.007560 0.017464
v -0.030660 0.007072 0.016530
v -0.030914 0.009972 0.019771
v -0.029355 0.009088 0.018536
v -0.031461 0.021321 0.019858
v -0.030455 0.008968 0.018489
v -0.035931 0.023397 0.025157
v -0.034195 0.013496 0.022493
v -0.031982 0.022053 0.030564
v -0.030142 0.010352 0.020815
v -0.031597 0.010470 0.022084
v -0.031005 0.010497 0.019550
v -0.040446 0.017575 0.032853
v -0.034520 0.024347 0.026183
v -0.030882 0.016892 0.029477
v -0.032314 0.012016 0.031290
v -0.034215 0.024056 0.031866
v -0.032447 0.012028 0.031450
v -0.034251 0.010390 0.031287
v -0.038740 0.021980 0.034324
v -0.039556 0.011167 0.032693
v -0.037360 0.021608 0.035076
v -0.035067 0.012873 0.033936
v -0.039166 0.018071 0.035217
v -0.038846 0.013155 0.035431
v -0.036228 0.022380 -0.034862
v -0.029841 0.009538 -0.020079
v -0.029841 0.009538 -0.020079
v -0.029841 0.009538 -0.020079
v -0.030923 0.009810 -0.020126
v -0.025762 0.019977 -0.018099
v -0.025762 0.019977 -0.018099
v -0.027813 -0.002803 -0.016122
v -0.028194 0.020263 -0.017605
v -0.003042 0.001316 -0.014883
v -0.006535 0.002267 -0.015738
v -0.023787 0.026905 -0.016131
v -0.023787 0.026905 -0.016131
v -0.029112 -0.003754 -0.014286
v -0.017694 0.000398 -0.012850
v -0.017152 0.000342 -0.010974
v -0.018564 0.010721 -0.012783
v -0.019670 0.009978 -0.011900
v -0.023721 0.031625 -0.012901
v -0.023589 0.032807 -0.011136
v -0.029446 -0.005137 -0.011594
v -0.016246 0.022944 -0.011294
v -0.016246 0.022944 -0.011294
v -0.018457 0.024157 -0.009647
v -0.019989 0.025222 -0.011441
v -0.022181 0.011997 -0.010104
v -0.032346 -0.005867 -0.008264
v -0.031781 -0.005548 -0.008466
v 0.009674 0.001441 -0.009439
v -0.027208 0.024204 -0.006690
v -0.027208 0.024204 -0.006690
v -0.027292 0.023156 -0.005956
v -0.028686 0.021881 -0.005690
v -0.028788 0.020496 -0.005932
v -0.042104 -0.022461 -0.002314
v 0.013585 0.002661 -0.003908
v -0.012717 0.003719 -0.000255
v -0.032088 0.017505 -0.000505
v -0.042559 -0.021388 0.001553
v -0.031162 0.017748 0.001972
v -0.012693 0.020867 0.003994
v -0.027031 0.023914 0.005778
v -0.027031 0.023914 0.005778
v -0.027212 0.022500 0.005253
v -0.027863 0.022589 0.005573
v -0.028515 0.019943 0.004635
v -0.022158 0.012880 0.008045
v -0.026235 0.030883 0.008139
v -0.029982 -0.004507 0.010206
v -0.015625 0.022964 0.008471
v -0.019763 0.009458 0.011591
v -0.017767 0.023790 0.010425
v -0.020903 0.011407 0.009877
v -0.021982 0.011689 0.010621
v -0.021982 0.011689 0.010621
v -0.021982 0.011689 0.010621
v -0.024777 0.031992 0.009616
v -0.025595 0.010518 0.011038
v -0.029484 -0.004623 0.012011
v -0.021678 0.013001 0.013403
v -0.028391 -0.002174 0.015736
v -0.029524 0.002854 0.016602
v -0.030136 0.010341 0.020821
vn -0.2052 -0.3639 -0.9085
vn 0.5849 -0.5162 -0.6256
vn -0.4610 -0.8722 -0.1637
vn 0.1875 0.2383 -0.9529
vn -0.8032 0.1200 -0.5835
vn -0.1713 0.1544 -0.9730
vn -0.0408 0.9018 -0.4302
vn -0.4143 0.4192 -0.8079
vn -0.9412 -0.3367 -0.0288
vn -0.6236 0.7038 -0.3402
vn 0.5063 0.7301 -0.4589
vn 0.6142 -0.0740 -0.7857
vn 0.8377 0.1889 -0.5123
vn 0.1757 -0.9656 -0.1918
vn -0.9053 0.3012 0.2996
vn 0.4582 0.8880 -0.0396
vn -0.2391 0.8718 0.4275
vn 0.8423 -0.2646 -0.4695
vn 0.6965 -0.6602 -0.2810
vn 0.5313 0.8332 0.1535
vn -0.0885 -0.9858 -0.1428
vn 0.7109 0.6255 -0.3215
vn 0.8070 0.2668 -0.5269
vn 0.5869 0.8084 -0.0446
vn 0.7892 -0.3663 -0.4929
vn 0.3107 0.9358 0.1664
vn -0.7066 -0.6960 0.1278
vn -0.9721 0.2324 0.0316
vn 0.1308 0.9888 0.0713
vn -0.0211 0.9947 0.1006
vn 0.6068 -0.6784 -0.4142
vn 0.7818 -0.0827 -0.6181
vn 0.6376 -0.3315 -0.6954
vn -0.6115 0.7753 0.1578
vn -0.2461 -0.9536 -0.1733
vn -0.5034 0.6948 -0.5136
vn 0.0161 0.8977 -0.4403
vn 0.0387 0.8805 -0.4725
vn 0.6357 0.1469 -0.7578
vn 0.5277 -0.3354 -0.7804
vn -0.2951 0.7563 -0.5839
vn 0.1925 -0.4657 -0.8637
vn 0.8784 -0.4693 -0.0899
vn -0.1375 -0.6867 -0.7138
vn -0.7488 -0.3323 -0.5735
vn 0.4430 -0.1067 -0.8901
vn -0.5054 -0.2634 -0.8217
vn -0.7549 -0.3082 -0.5790
vn -0.1414 -0.6858 -0.7139
vn 0.5684 -0.2519 -0.7832
vn 0.2805 0.0503 -0.9585
vn 0.1985 0.2547 -0.9464
vn 0.2210 -0.8236 -0.5224
vn 0.0465 -0.8660 -0.4979
vn 0.0032 -0.5327 -0.8463
vn -0.3849 -0.1056 -0.9169
vn 0.0524 0.0760 -0.9957
vn -0.6326 0.1221 -0.7648
vn -0.7480 -0.3885 -0.5382
vn -0.8640 -0.5035 -0.0049
vn 0.6967 0.6160 -0.3675
vn 0.0088 -0.3706 -0.9288
vn -0.0557 -0.8983 -0.4358
vn 0.5504 -0.8088 -0.2071
vn -0.2184 0.5907 -0.7768
vn 0.5358 0.5655 -0.6270
vn -0.2031 0.3843 -0.9006
vn -0.8673 0.3034 -0.3947
vn -0.7208 0.1899 -0.6666
vn -0.7918 0.5462 -0.2733
vn 0.6553 -0.2456 -0.7144
vn 0.8827 -0.2056 -0.4227
vn 0.1167 -0.3045 -0.9453
vn 0.6006 -0.4238 -0.6780
vn -0.2807 -0.0658 -0.9575
vn -0.8562 0.4376 -0.2746
vn -0.5958 0.6486 -0.4736
vn 0.9358 -0.1936 0.2947
vn 0.9671 -0.0142 0.2542
vn 0.9843 -0.0159 0.1761
vn -0.4912 -0.4754 -0.7299
vn 0.9053 -0.4195 0.0668
vn 0.0856 0.6170 -0.7823
vn 0.4571 0.1576 -0.8754
vn 0.2953 -0.1105 -0.9490
vn -0.0359 0.1865 -0.9818
vn 0.0416 -0.9976 0.0563
vn -0.4215 -0.8738 -0.2426
vn -0.4914 -0.8300 -0.2638
vn 0.0784 0.8960 -0.4371
vn -0.0328 0.0510 -0.9982
vn -0.1198 0.2938 -0.9483
vn 0.3636 0.7921 -0.4904
vn -0.2311 -0.0489 -0.9717
vn -0.7348 -0.6740 0.0760
vn 0.4187 -0.9005 -0.1176
vn 0.0493 0.4377 -0.8978
vn -0.1784 0.1556 -0.9716
vn -0.6725 0.1008 -0.7332
vn -0.2153 -0.5063 -0.8351
vn -0.4076 -0.4799 -0.7769
vn -0.9703 -0.0650 -0.2330
vn 0.7457 0.1944 -0.6373
vn 0.4412 0.1576 -0.8835
vn 0.0135 -0.0370 -0.9992
vn 0.6367 -0.7681 0.0682
vn -0.2207 0.7710 -0.5973
vn 0.6751 0.7198 0.1618
vn 0.8072 0.5573 0.1944
vn 0.1254 -0.9887 0.0815
vn 0.5522 -0.7137 0.4310
vn 0.8702 -0.4903 0.0493
vn -0.7587 0.5520 -0.3458
vn 0.9380 -0.1767 0.2982
vn 0.6754 -0.7259 0.1303
vn -0.4738 -0.7689 -0.4293
vn -0.0371 -0.9306 -0.3641
vn -0.0502 -0.9319 -0.3591
vn -0.3627 -0.8913 -0.2722
vn -0.0787 -0.9760 -0.2030
vn 0.1567 -0.9867 0.0432
vn 0.8453 -0.3118 0.4340
vn -0.7355 0.6772 0.0209
vn -0.0591 -0.9785 -0.1976
vn 0.3953 0.5843 -0.7088
vn 0.0569 0.9980 -0.0277
vn 0.1688 0.9289 0.3297
vn 0.4364 0.8992 -0.0310
vn 0.6038 0.7555 0.2542
vn 0.5586 0.7123 0.4250
vn -0.2898 0.3702 0.8826
vn -0.6568 -0.7398 0.1459
vn -0.8631 -0.4676 0.1909
vn 0.0072 -0.5487 0.8360
vn -0.8765 -0.1324 0.4628
vn 0.6034 0.7776 0.1767
vn -0.2246 0.4711 0.8530
vn 0.6555 0.4571 0.6011
vn 0.3492 -0.7702 0.5337
vn 0.4867 -0.4019 0.7756
vn -0.5966 0.7580 -0.2637
vn -0.9204 0.3556 0.1626
vn -0.9831 0.1778 0.0431
vn 0.6503 -0.7489 0.1271
vn 0.2020 -0.6458 -0.7363
vn -0.5737 -0.5347 -0.6205
vn -0.2802 -0.2679 -0.9218
vn -0.7836 0.5587 -0.2717
vn -0.7369 0.0620 -0.6731
vn 0.8098 0.0763 -0.5818
vn 0.6256 0.6707 -0.3984
vn 0.8087 0.0407 -0.5868
vn 0.1295 -0.9896 0.0624
vn -0.0976 -0.8797 0.4655
vn 0.1122 -0.9936 0.0103
vn 0.5936 0.3355 0.7315
vn 0.6581 -0.3477 0.6678
vn 0.6386 0.1443 0.7559
vn -0.7008 0.3709 0.6093
vn -0.1654 0.5746 0.8015
vn -0.9455 0.3209 0.0556
vn -0.1008 0.7647 0.6365
vn -0.7630 0.5796 0.2862
vn -0.0441 0.3318 0.9423
vn 0.9463 -0.3233 0.0010
vn 0.9153 -0.4026 -0.0106
vn 0.6486 -0.6468 -0.4012
vn 0.7394 -0.5945 -0.3158
vn -0.6554 0.2264 -0.7205
vn -0.6512 0.0932 -0.7532
vn -0.2824 -0.0212 -0.9591
vn 0.6424 -0.4248 -0.6378
vn 0.9191 -0.3588 -0.1628
vn -0.1040 -0.0380 -0.9938
vn -0.5999 -0.0298 -0.7995
vn -0.2977 -0.0438 -0.9537
vn -0.8641 -0.5021 0.0339
vn -0.9046 0.1209 0.4086
vn -0.7164 -0.5406 0.4411
vn -0.8821 -0.2153 0.4190
vn 0.9947 -0.1015 0.0168
vn 0.9113 -0.4067 0.0646
vn 0.4814 0.8010 0.3559
vn -0.2383 0.9676 0.0838
vn -0.4406 0.8726 -0.2107
vn 0.7192 0.4213 0.5525
vn -0.7515 0.6336 0.1839
vn 0.8388 -0.5159 -0.1741
vn 0.8929 -0.4372 0.1074
vn 0.7614 -0.6435 0.0786
vn 0.2663 -0.6939 -0.6690
vn 0.9377 -0.2952 -0.1833
vn 0.4720 -0.3916 0.7898
vn 0.0246 -0.7985 0.6015
vn -0.9780 0.1211 0.1697
vn -0.7443 0.3448 0.5719
vn -0.9580 -0.0202 0.2860
vn -0.7614 0.0865 0.6424
vn 0.9327 -0.3605 -0.0061
vn 0.9452 -0.0778 -0.3171
vn 0.0426 0.9991 -0.0038
vn -0.9373 0.2044 -0.2823
vn -0.0405 0.9899 -0.1357
vn -0.6725 -0.0043 0.7401
vn -0.8807 -0.2260 0.4163
vn 0.6306 0.5111 -0.5841
vn 0.3653 0.3656 -0.8561
vn 0.9110 -0.3796 -0.1611
vn -0.7403 0.6703 -0.0509
vn -0.5818 0.8000 0.1469
vn 0.8325 -0.2969 -0.4678
vn -0.3568 -0.0024 0.9342
vn -0.4188 -0.0425 0.9071
vn -0.0815 -0.0835 0.9932
vn -0.3521 -0.0475 0.9348
vn -0.8782 0.1578 0.4516
vn 0.9965 0.0242 -0.0796
vn 0.6822 -0.5927 0.4281
vn 0.5283 -0.3597 -0.7691
vn -0.1336 0.6012 -0.7879
vn 0.9109 -0.2534 -0.3256
vn -0.6294 0.7735 0.0741
vn -0.7267 0.6771 0.1159
vn 0.8483 -0.3447 -0.4019
vn 0.8332 -0.4132 -0.3676
vn 0.5796 -0.6245 0.5235
vn -0.3074 -0.3939 0.8662
vn 0.9260 -0.0031 0.3775
vn 0.0707 0.9958 0.0587
vn -0.2739 -0.8957 -0.3503
vn -0.7699 -0.1944 -0.6078
vn -0.6368 0.1999 -0.7447
vn 0.3925 0.0387 -0.9190
vn 0.7557 -0.6170 -0.2196
vn -0.3662 0.3783 -0.8502
vn -0.3701 0.3646 -0.8544
vn -0.3666 0.3769 -0.8506
vn -0.2608 0.2130 -0.9416
vn -0.3629 0.3895 -0.8465
vn -0.7488 0.4988 0.4365
vn 0.7075 -0.6119 -0.3536
vn 0.7062 -0.2085 0.6766
vn 0.5816 0.0424 0.8123
vn 0.2286 0.9724 0.0479
vn 0.3997 0.1428 0.9055
vn 0.7989 -0.1372 0.5856
vn 0.0431 0.7008 0.7121
vn -0.0347 0.8961 -0.4425
vn -0.0466 0.7142 -0.6984
vn 0.1238 0.8475 -0.5162
vn 0.4360 0.7336 -0.5213
vn -0.2291 -0.3785 -0.8968
vn -0.7383 -0.5308 -0.4161
vn 0.3343 0.1533 -0.9299
vn 0.6805 0.5848 -0.4414
vn -0.1251 -0.8848 -0.4488
vn 0.0025 -0.8180 -0.5753
vn 0.4226 0.2854 -0.8602
vn 0.9504 -0.2501 0.1849
vn -0.4245 0.3336 -0.8417
vn -0.9268 0.3737 0.0378
vn -0.7404 -0.0623 0.6692
vn -0.8873 0.4430 -0.1284
vn 0.9209 -0.1265 -0.3687
vn 0.8323 -0.5334 -0.1508
vn 0.4840 0.3763 0.7900
vn 0.0918 0.9148 0.3932
vn 0.4317 0.8995 0.0678
vn 0.0392 -0.9852 0.1671
vn -0.6133 -0.7818 0.1130
vn 0.5231 0.7194 0.4570
vn -0.9440 -0.3062 -0.1229
vn -0.9209 -0.1815 0.3449
vn 0.6184 0.7749 0.1307
vn 0.8435 0.2208 0.4896
vn 0.0357 0.2526 0.9669
vn -0.4653 -0.8075 -0.3625
vn -0.4655 -0.8038 -0.3704
vn -0.9533 -0.1567 0.2583
vn -0.0378 -0.8617 0.5060
vn -0.7149 -0.6986 0.0287
vn -0.2626 -0.4469 0.8552
vn -0.3682 -0.0975 0.9246
vn -0.1448 -0.1881 0.9714
vn 0.5641 0.5146 0.6457
vn -0.1060 0.1790 0.9781
vn 0.2407 -0.8847 -0.3993
vn 0.2183 -0.8800 -0.4218
vn 0.3243 -0.9146 0.2414
vn 0.2470 -0.8740 0.4185
vn 0.6350 0.4402 -0.6348
vn 0.2252 0.9275 0.2985
vn 0.9667 -0.1062 -0.2327
vn 0.8655 -0.5009 0.0069
vn -0.8814 0.2505 0.4005
vn -0.2734 0.4929 0.8260
vn -0.5417 0.6688 0.5092
vn -0.3209 -0.7476 0.5815
vn -0.8583 -0.1956 0.4743
vn -0.8050 -0.3737 0.4609
vn -0.9354 0.3078 -0.1739
vn -0.9173 -0.1079 0.3833
vn 0.3294 -0.5985 0.7302
vn 0.0187 -0.1164 0.9930
vn 0.0582 0.0713 0.9958
vn 0.0101 0.1360 0.9907
vn 0.1327 -0.3261 0.9360
vn -0.3456 -0.0484 0.9371
vn 0.2447 -0.7836 0.5711
vn 0.8160 0.3498 0.4602
vn 0.6757 -0.3112 0.6682
vn 0.6610 0.1292 0.7392
vn -0.6777 0.6819 0.2750
vn -0.5959 0.5470 0.5879
vn 0.7196 -0.4408 0.5365
vn 0.6716 -0.3511 0.6524
vn 0.9082 -0.3631 0.2084
vn 0.9050 -0.3746 0.2014
vn 0.9485 -0.1432 -0.2826
vn 0.7627 -0.6461 0.0281
vn -0.4680 0.8546 -0.2251
vn -0.7292 -0.3804 0.5689
vn -0.7575 -0.6451 0.0998
vn 0.8536 -0.0786 0.5150
vn 0.4041 -0.0734 0.9118
vn -0.4458 0.2416 0.8619
vn 0.3784 0.8808 0.2846
vn -0.4503 -0.3625 0.8160
vn -0.4458 -0.6194 0.6462
vn 0.7056 -0.4791 0.5221
vn 0.4482 -0.4613 0.7657
vn 0.2788 -0.1215 0.9526
vn 0.2404 -0.1119 0.9642
vn -0.6675 0.6338 -0.3908
vn 0.4331 -0.8749 0.2169
vn 0.2424 0.9623 -0.1237
vn -0.2270 -0.8541 0.4680
vn -0.9971 0.0754 -0.0028
vn -0.8098 -0.4170 -0.4126
vn -0.7068 -0.6745 -0.2134
vn 0.7866 0.4109 0.4609
vn 0.7515 -0.3922 0.5305
vn 0.0769 0.9872 -0.1400
vn 0.2368 -0.9083 0.3447
vn -0.1094 -0.9932 -0.0393
vn -0.6982 -0.7061 0.1181
vn 0.8125 0.0204 0.5827
vn 0.3091 0.8414 0.4432
vn -0.6563 0.6320 0.4121
vn 0.7267 0.0442 0.6856
vn 0.4836 -0.2377 0.8424
vn 0.1587 0.3316 0.9300
vn -0.3437 0.0718 0.9363
vn -0.3217 -0.3357 0.8853
s 1
usemtl mtl1.1081
f 3//1 6//2 10//3
f 1//4 5//5 4//6
f 8//7 1//4 2//8
f 4//6 2//8 1//4
f 5//5 1//4 3//1
f 11//9 3//1 10//3
f 2//8 5//5 9//10
f 11//9 9//10 5//5
f 5//5 3//1 11//9
f 13//11 8//7 9//10
f 297//12 12//13 1//4
f 1//4 6//2 3//1
f 6//2 1//4 12//13
f 10//3 6//2 7//14
f 9//10 8//7 2//8
f 14//15 9//10 11//9
f 297//12 13//11 12//13
f 12//13 13//11 15//16
f 16//17 9//10 14//15
f 12//13 24//18 6//2
f 17//19 7//14 6//2
f 15//16 13//11 19//20
f 7//14 18//21 10//3
f 18//21 11//9 10//3
f 16//17 13//11 9//10
f 20//22 23//23 12//13
f 20//22 12//13 15//16
f 23//23 24//18 12//13
f 6//2 24//18 17//19
f 26//24 15//16 19//20
f 19//20 13//11 16//17
f 33//25 17//19 24//18
f 21//26 15//16 26//24
f 11//9 18//21 22//27
f 16//17 14//15 66//28
f 66//28 14//15 11//9
f 22//27 66//28 11//9
f 302//29 21//26 32//30
f 17//19 33//25 25//31
f 28//32 298//33 33//25
f 32//30 21//26 26//24
f 16//17 37//34 26//24
f 22//27 18//21 299//35
f 37//34 16//17 66//28
f 61//36 303//37 305//38
f 57//39 23//23 61//36
f 23//23 27//40 24//18
f 305//38 59//41 61//36
f 32//30 37//34 59//41
f 298//33 28//32 34//42
f 33//25 58//43 28//32
f 24//18 58//43 33//25
f 300//44 34//42 38//45
f 28//32 29//46 34//42
f 29//46 35//47 34//42
f 34//42 35//47 38//45
f 35//47 36//48 38//45
f 37//34 32//30 26//24
f 66//28 22//27 38//45
f 301//49 300//44 38//45
f 67//50 39//51 40//52
f 306//53 41//54 307//55
f 43//56 70//57 40//52
f 41//54 43//56 307//55
f 70//57 43//56 45//58
f 45//58 43//56 46//59
f 73//60 45//58 46//59
f 23//23 47//61 27//40
f 48//62 83//63 27//40
f 27//40 83//63 85//64
f 49//65 50//66 308//67
f 51//68 53//69 60//70
f 56//71 52//72 50//66
f 309//73 54//74 55//75
f 55//75 60//70 53//69
f 52//72 56//71 54//74
f 105//76 51//68 60//70
f 57//39 54//74 56//71
f 23//23 57//39 47//61
f 85//64 24//18 27//40
f 85//64 58//43 24//18
f 59//41 57//39 61//36
f 59//41 55//75 57//39
f 62//77 55//75 59//41
f 55//75 62//77 60//70
f 62//77 59//41 37//34
f 63//78 31//79 30//80
f 38//45 36//48 111//81
f 304//82 86//82 64//82
f 306//53 67//50 41//54
f 69//83 92//84 70//57
f 91//85 92//84 69//83
f 92//84 40//52 70//57
f 69//83 70//57 42//86
f 68//87 72//88 41//54
f 157//89 72//88 68//87
f 69//83 42//86 71//90
f 42//86 44//91 75//92
f 42//86 70//57 44//91
f 75//92 71//90 42//86
f 75//92 93//93 71//90
f 70//57 45//58 76//94
f 76//94 44//91 70//57
f 41//54 72//88 43//56
f 46//59 43//56 72//88
f 73//60 46//59 311//95
f 72//88 74//96 311//95
f 74//96 73//60 311//95
f 98//97 93//93 75//92
f 98//97 75//92 80//98
f 44//91 27//40 47//61
f 48//62 27//40 44//91
f 44//91 76//94 48//62
f 45//58 78//99 76//94
f 77//100 48//62 313//101
f 77//100 83//63 48//62
f 45//58 73//60 79//102
f 56//71 80//98 82//103
f 56//71 321//104 80//98
f 56//71 82//103 57//39
f 80//98 81//105 82//103
f 82//103 47//61 57//39
f 44//91 47//61 81//105
f 44//91 81//105 75//92
f 75//92 81//105 80//98
f 83//63 99//106 85//64
f 315//107 50//66 49//65
f 97//108 50//66 84//109
f 99//106 102//110 85//64
f 85//64 103//111 58//43
f 58//43 126//112 63//78
f 104//113 51//68 105//76
f 126//112 108//114 63//78
f 31//79 63//78 88//115
f 65//116 111//81 36//48
f 310//117 88//115 87//118
f 317//119 89//120 65//116
f 63//78 108//114 88//115
f 87//118 88//115 90//121
f 88//115 109//122 90//121
f 66//28 125//123 37//34
f 66//28 38//45 111//81
f 89//120 112//124 65//116
f 116//125 92//84 91//85
f 92//84 67//50 40//52
f 69//83 71//90 137//126
f 117//127 93//93 94//128
f 318//129 97//108 320//130
f 117//127 320//130 118//131
f 314//132 95//133 83//63
f 96//134 83//63 95//133
f 95//133 79//102 73//60
f 95//133 73//60 138//135
f 97//108 56//71 50//66
f 319//136 56//71 97//108
f 97//108 101//137 320//130
f 96//134 99//106 83//63
f 97//108 84//109 100//138
f 101//137 97//108 100//138
f 58//43 103//111 126//112
f 322//139 119//140 103//111
f 316//141 104//113 105//76
f 101//137 105//76 106//142
f 106//142 105//76 60//70
f 107//143 106//142 60//70
f 107//143 60//70 37//34
f 108//114 109//122 88//115
f 324//144 90//121 109//122
f 65//116 323//145 110//146
f 110//146 323//145 111//81
f 323//145 113//147 111//81
f 125//123 66//28 144//148
f 66//28 111//81 114//149
f 114//149 111//81 113//147
f 136//150 116//125 135//151
f 115//152 41//54 67//50
f 134//153 68//87 325//154
f 69//83 135//151 116//125
f 116//125 136//150 92//84
f 199//155 157//89 68//87
f 72//88 157//89 74//96
f 93//93 137//126 71//90
f 117//127 137//126 93//93
f 96//134 95//133 138//135
f 320//130 101//137 118//131
f 96//134 118//131 119//140
f 118//131 101//137 119//140
f 119//140 101//137 121//156
f 119//140 122//157 103//111
f 122//157 119//140 121//156
f 120//158 101//137 106//142
f 326//159 106//142 107//143
f 101//137 120//158 121//156
f 328//160 327//160 124//160
f 126//112 103//111 122//157
f 37//34 123//161 107//143
f 123//161 37//34 125//123
f 140//162 330//163 125//123
f 120//158 329//164 140//162
f 108//114 126//112 163//165
f 108//114 166//166 109//122
f 109//122 127//167 324//144
f 109//122 166//166 127//167
f 323//145 324//144 127//167
f 323//145 127//167 113//147
f 127//167 129//168 113//147
f 114//149 144//148 66//28
f 148//169 114//149 149//170
f 128//171 114//149 113//147
f 114//149 128//171 149//170
f 129//168 130//172 113//147
f 128//171 146//173 131//174
f 128//171 131//174 150//175
f 132//176 151//177 150//175
f 67//50 92//84 115//152
f 92//84 136//150 115//152
f 137//126 135//151 69//83
f 117//127 118//131 158//178
f 158//178 118//131 138//135
f 312//179 138//135 73//60
f 312//179 159//180 138//135
f 96//134 138//135 118//131
f 122//157 121//156 162//181
f 162//181 139//182 122//157
f 120//158 140//162 121//156
f 125//123 141//183 140//162
f 121//156 140//162 143//184
f 142//185 121//156 143//184
f 121//156 161//186 162//181
f 139//182 126//112 122//157
f 163//165 166//166 108//114
f 141//183 125//123 143//184
f 143//184 125//123 165//187
f 125//123 144//148 165//187
f 166//166 145//188 127//167
f 166//166 170//189 145//188
f 145//188 130//172 129//168
f 166//166 167//190 170//189
f 114//149 148//169 144//148
f 146//173 130//172 145//188
f 170//189 146//173 145//188
f 146//173 133//191 331//192
f 170//189 133//191 146//173
f 170//189 147//193 133//191
f 147//193 152//194 133//191
f 149//170 153//195 168//196
f 149//170 128//171 150//175
f 131//174 132//176 150//175
f 152//194 155//197 151//177
f 132//176 133//191 151//177
f 151//177 133//191 152//194
f 149//170 150//175 153//195
f 153//195 155//197 154//198
f 153//195 150//175 155//197
f 151//177 155//197 150//175
f 172//199 332//200 115//152
f 172//199 115//152 136//150
f 181//201 135//151 137//126
f 134//153 199//155 68//87
f 175//202 174//203 137//126
f 158//178 138//135 333//204
f 160//205 138//135 159//180
f 121//156 142//185 161//186
f 142//185 176//206 162//181
f 162//181 176//206 186//207
f 139//182 163//165 126//112
f 139//182 177//208 163//165
f 334//209 142//185 143//184
f 143//184 165//187 334//209
f 176//206 142//185 164//210
f 163//165 178//211 166//166
f 165//187 144//148 168//196
f 153//195 156//212 169//213
f 170//189 335//214 147//193
f 171//215 156//212 155//197
f 155//197 152//194 171//215
f 147//193 171//215 152//194
f 168//196 153//195 212//216
f 169//213 156//212 171//215
f 136//150 173//217 172//199
f 173//217 136//150 135//151
f 199//155 134//153 196//218
f 158//178 333//204 175//202
f 175//202 333//204 157//89
f 186//207 187//219 162//181
f 186//207 176//206 190//220
f 162//181 177//208 139//182
f 192//221 163//165 177//208
f 163//165 192//221 178//211
f 336//222 334//209 165//187
f 336//222 165//187 194//223
f 166//166 179//224 180//225
f 167//190 166//166 180//225
f 167//190 179//224 195//226
f 170//189 167//190 195//226
f 165//187 168//196 212//216
f 212//216 153//195 210//227
f 169//213 210//227 153//195
f 172//199 173//217 196//218
f 196//218 173//217 182//228
f 197//229 181//201 137//126
f 157//89 183//230 185//231
f 199//155 183//230 157//89
f 184//232 174//203 175//202
f 175//202 185//231 184//232
f 201//233 184//232 185//231
f 185//231 175//202 157//89
f 177//208 162//181 187//219
f 205//234 177//208 187//219
f 341//235 339//236 340//237
f 189//238 186//207 190//220
f 340//237 342//239 341//235
f 192//221 177//208 205//234
f 179//224 178//211 192//221
f 194//223 165//187 211//240
f 179//224 166//166 178//211
f 195//226 179//224 193//241
f 195//226 209//242 210//227
f 196//218 182//228 214//243
f 196//218 134//153 172//199
f 198//244 181//201 197//229
f 215//245 182//228 213//246
f 215//245 214//243 182//228
f 137//126 235//247 197//229
f 235//247 137//126 174//203
f 337//248 200//249 346//250
f 201//233 220//251 200//249
f 185//231 202//252 201//233
f 185//231 223//253 202//252
f 188//254 224//255 220//251
f 220//251 201//233 188//254
f 188//254 201//233 187//219
f 202//252 187//219 201//233
f 202//252 203//256 187//219
f 203//256 204//257 187//219
f 224//255 188//254 206//258
f 186//207 188//254 187//219
f 204//257 205//234 187//219
f 192//221 205//234 231//259
f 338//260 207//261 344//262
f 194//223 211//240 191//263
f 207//261 191//263 211//240
f 179//224 192//221 208//264
f 209//242 193//241 179//224
f 209//242 179//224 210//227
f 179//224 345//265 210//227
f 211//240 165//187 212//216
f 213//246 234//266 215//245
f 235//247 174//203 237//267
f 237//267 174//203 217//268
f 262//269 216//270 199//155
f 346//250 200//249 220//251
f 221//271 217//268 220//251
f 237//267 217//268 221//271
f 218//272 185//231 242//273
f 183//230 216//270 185//231
f 221//271 220//251 224//255
f 348//274 224//255 222//275
f 238//276 221//271 222//275
f 203//256 202//252 349//277
f 226//278 203//256 349//277
f 219//279 226//278 349//277
f 243//280 350//281 347//282
f 185//231 218//272 223//253
f 219//279 349//277 218//272
f 241//283 243//280 347//282
f 238//276 222//275 225//284
f 225//284 244//285 239//286
f 204//257 343//287 205//234
f 351//288 205//234 343//287
f 352//289 243//280 354//290
f 206//258 227//291 224//255
f 245//292 224//255 227//291
f 231//259 208//264 192//221
f 251//293 355//294 208//264
f 344//262 207//261 228//295
f 228//295 207//261 248//296
f 207//261 211//240 230//297
f 207//261 230//297 248//296
f 232//298 256//299 210//227
f 208//264 231//259 251//293
f 257//300 232//298 345//265
f 211//240 212//216 260//301
f 260//301 212//216 273//302
f 273//302 212//216 210//227
f 233//303 196//218 214//243
f 196//218 233//303 262//269
f 214//243 215//245 233//303
f 233//303 215//245 261//304
f 215//245 236//305 261//304
f 196//218 262//269 199//155
f 235//247 234//266 197//229
f 263//306 236//305 215//245
f 221//271 263//306 237//267
f 221//271 238//276 263//306
f 263//306 239//286 236//305
f 236//305 239//286 240//307
f 236//305 241//283 264//308
f 239//286 263//306 238//276
f 236//305 240//307 241//283
f 240//307 243//280 241//283
f 242//273 219//279 218//272
f 241//283 219//279 242//273
f 242//273 264//308 241//283
f 242//273 185//231 216//270
f 216//270 264//308 242//273
f 262//269 261//304 216//270
f 261//304 264//308 216//270
f 225//284 239//286 238//276
f 243//280 240//307 356//309
f 224//255 247//310 222//275
f 225//284 222//275 249//311
f 250//312 225//284 249//311
f 239//286 244//285 240//307
f 228//295 245//292 353//313
f 246//314 245//292 228//295
f 247//310 245//292 246//314
f 245//292 247//310 224//255
f 248//296 250//312 249//311
f 244//285 250//312 248//296
f 354//290 243//280 269//315
f 269//315 231//259 205//234
f 231//259 270//316 253//317
f 253//317 270//316 254//318
f 355//294 251//293 252//319
f 254//318 258//320 253//317
f 248//296 230//297 255//321
f 232//298 257//300 256//299
f 257//300 259//322 256//299
f 260//301 255//321 230//297
f 260//301 273//302 274//323
f 273//302 210//227 256//299
f 234//266 235//247 263//306
f 234//266 263//306 215//245
f 261//304 236//305 264//308
f 235//247 237//267 263//306
f 268//324 240//307 244//285
f 356//309 269//315 243//280
f 269//315 356//309 268//324
f 266//325 247//310 265//326
f 246//314 228//295 248//296
f 265//326 248//296 266//325
f 222//275 266//325 249//311
f 246//314 248//296 265//326
f 222//275 247//310 266//325
f 244//285 248//296 267//327
f 269//315 270//316 231//259
f 267//327 248//296 255//321
f 272//328 277//329 273//302
f 270//316 275//330 271//331
f 271//331 274//323 272//328
f 272//328 256//299 271//331
f 272//328 273//302 256//299
f 270//316 271//331 358//332
f 270//316 358//332 357//333
f 278//334 255//321 260//301
f 269//315 275//330 270//316
f 269//315 281//335 275//330
f 267//327 255//321 276//336
f 271//331 359//337 274//323
f 255//321 278//334 276//336
f 284//338 278//334 260//301
f 279//339 284//338 260//301
f 260//301 274//323 279//339
f 282//340 279//339 274//323
f 267//327 280//341 244//285
f 280//341 268//324 244//285
f 280//341 267//327 276//336
f 269//315 287//342 281//335
f 285//343 276//336 278//334
f 285//343 280//341 276//336
f 290//344 283//345 281//335
f 279//339 282//340 292//346
f 280//341 286//347 268//324
f 268//324 287//342 269//315
f 268//324 286//347 287//342
f 290//344 281//335 287//342
f 285//343 288//348 280//341
f 292//346 282//340 290//344
f 278//334 291//349 285//343
f 284//338 279//339 292//346
f 289//350 286//347 294//351
f 286//347 289//350 287//342
f 286//347 280//341 293//352
f 286//347 295//353 294//351
f 294//351 290//344 287//342
f 288//348 285//343 291//349
f 293//352 280//341 288//348
f 296//354 292//346 290//344
f 296//354 290//344 294//351
f 291//349 293//352 288//348
f 293//352 295//353 286//347
f 294//351 295//353 296//354
f 291//349 278//334 284//338
f 293//352 291//349 295//353
f 284//338 295//353 291//349
f 284//338 296//354 295//353
f 296//354 284//338 292//346
l 229 258
