# Blender 4.0.2
# www.blender.org
mtllib thoracic11.mtl
o thoracic11.002
v -0.036958 0.022764 -0.025615
v -0.036752 0.017675 -0.026518
v -0.036776 0.017334 -0.026726
v -0.034026 0.016007 -0.022293
v -0.032337 0.021050 -0.024130
v -0.037901 0.023793 -0.023289
v -0.037508 0.018101 -0.026166
v -0.013151 0.001837 -0.020132
v 0.000734 0.000826 -0.018833
v -0.030538 0.020773 -0.020080
v -0.038808 0.019947 -0.023454
v 0.001418 0.001079 -0.018721
v 0.009758 0.001315 -0.015243
v 0.002725 0.023345 -0.018331
v 0.009135 0.023803 -0.017223
v -0.003337 -0.000035 -0.018258
v 0.005860 0.012613 -0.014464
v -0.006952 0.024474 -0.017954
v -0.016763 0.012572 -0.018172
v -0.016183 0.000287 -0.017853
v -0.016495 0.022919 -0.017933
v -0.017628 0.003854 -0.018213
v -0.019823 0.022878 -0.017805
v -0.020137 0.014287 -0.017139
v -0.022636 0.021524 -0.016820
v -0.026507 0.019306 -0.017110
v -0.029174 0.030150 -0.019193
v -0.027855 0.013346 -0.016056
v -0.029192 0.030769 -0.018878
v -0.029231 0.025584 -0.017253
v -0.030018 0.026882 -0.017470
v -0.031014 0.024109 -0.017502
v -0.029972 0.025097 -0.017695
v -0.032162 0.023250 -0.018633
v -0.033819 0.023194 -0.017807
v -0.033876 -0.000436 -0.017559
v -0.033517 0.003113 -0.017229
v -0.033719 0.000808 -0.017138
v -0.033804 0.000913 -0.017631
v -0.035984 0.024025 -0.018558
v -0.038862 0.026126 -0.017599
v -0.041764 0.020410 -0.019970
v 0.012021 0.023504 -0.013287
v 0.006684 0.000534 -0.014952
v 0.014425 0.025234 -0.009154
v -0.009263 0.024607 -0.015890
v -0.012737 0.024435 -0.016208
v -0.015932 0.024952 -0.016132
v -0.015839 0.025449 -0.016407
v -0.020081 0.024775 -0.014518
v -0.019801 0.001363 -0.014571
v -0.022723 0.026674 -0.015037
v -0.022591 0.008782 -0.015418
v -0.024564 0.028510 -0.014002
v -0.024291 0.028674 -0.014432
v -0.023792 0.010311 -0.015867
v -0.026837 0.024799 -0.015173
v -0.025186 0.010858 -0.015549
v -0.028994 0.011617 -0.014273
v -0.030794 0.036224 -0.014522
v -0.031210 0.024737 -0.016442
v -0.033358 0.010178 -0.012244
v -0.033701 0.020460 -0.010224
v -0.033240 0.004260 -0.016023
v -0.033648 -0.000409 -0.016994
v -0.034245 -0.001451 -0.016308
v -0.034799 -0.002716 -0.015893
v -0.034149 -0.002518 -0.016280
v -0.034909 -0.003421 -0.015543
v -0.034263 0.021629 -0.014955
v -0.036159 0.013355 -0.013272
v -0.035394 0.005678 -0.013344
v -0.037680 0.005563 -0.013781
v -0.034521 -0.001474 -0.016765
v -0.034633 -0.002978 -0.016221
v -0.034729 -0.002673 -0.016135
v -0.038170 0.020369 -0.014845
v -0.037247 -0.003962 -0.014646
v 0.013787 0.002049 -0.009132
v -0.021798 0.026754 -0.011580
v -0.020855 0.004204 -0.013041
v -0.024981 0.011127 -0.013022
v -0.028274 0.011740 -0.012814
v -0.031849 0.036189 -0.010814
v -0.032195 0.036065 -0.011413
v -0.033963 0.008417 -0.011400
v -0.034564 0.006470 -0.012636
v -0.036199 0.013206 -0.013358
v -0.035749 0.011895 -0.012962
v -0.034206 0.008257 -0.011272
v -0.035400 0.008349 -0.012445
v -0.038017 -0.003838 -0.009647
v 0.014999 0.024413 -0.008032
v 0.012458 0.014025 -0.007126
v -0.019840 0.000948 -0.009105
v -0.022024 0.024978 -0.008881
v -0.020722 0.001963 -0.008356
v -0.024586 0.026618 -0.010200
v -0.026415 0.016542 -0.011212
v -0.033446 0.033010 -0.009833
v -0.036598 0.016531 -0.009558
v -0.036794 0.016613 -0.006208
v -0.035805 -0.003135 -0.010178
v -0.036037 0.000241 -0.007615
v -0.038788 -0.003875 -0.011087
v -0.039603 -0.004084 -0.008891
v -0.039692 -0.004301 -0.009067
v 0.014516 0.002071 -0.001635
v -0.022198 0.021647 -0.008172
v -0.020864 0.007842 -0.007933
v -0.032308 0.027309 -0.006435
v -0.034238 0.010827 -0.004037
v -0.033231 0.033162 -0.009856
v -0.032510 0.027359 -0.006663
v -0.032190 0.027309 -0.006845
v -0.035780 0.016542 -0.004234
v -0.038837 -0.003859 -0.008485
v -0.045385 -0.000188 -0.008410
v 0.016574 0.024504 -0.002838
v -0.017975 0.025083 -0.003007
v -0.018252 0.001209 -0.002214
v -0.033406 0.025441 -0.005018
v -0.033600 0.025357 -0.004741
v -0.034559 0.021388 -0.003867
v -0.034216 0.021753 -0.003646
v -0.033749 0.021507 -0.003692
v -0.040284 0.014246 -0.002996
v -0.035866 0.016575 -0.004279
v -0.039924 -0.006275 -0.004657
v -0.041814 -0.006531 -0.004276
v -0.042713 -0.005646 -0.002858
v -0.054438 -0.000775 -0.004284
v -0.062428 -0.006465 -0.004244
v -0.065440 0.003450 -0.004098
v -0.066268 -0.007837 -0.002747
v 0.015986 0.002416 -0.001551
v 0.014517 0.010068 0.000433
v -0.016186 0.024940 -0.000854
v -0.017728 0.024033 -0.001082
v -0.017931 0.001535 0.002048
v -0.018029 0.001273 -0.002419
v -0.017810 0.002281 -0.001398
v -0.018112 0.001717 -0.000355
v -0.036019 0.018412 -0.002483
v -0.035602 0.020014 -0.002198
v -0.036004 0.018524 -0.002438
v -0.035594 0.018275 -0.001936
v -0.035842 0.015317 -0.000291
v -0.037748 0.017261 -0.000359
v -0.040820 0.015906 -0.001295
v -0.038786 0.017329 -0.001096
v -0.037871 0.017273 -0.000414
v -0.043895 0.014151 -0.000554
v -0.039266 -0.000814 -0.003047
v -0.043355 -0.006450 -0.001869
v -0.045317 -0.005971 -0.001684
v -0.043248 -0.005868 -0.000469
v -0.050801 0.010705 -0.001927
v -0.052394 0.009058 -0.001906
v -0.054891 -0.004914 0.000739
v -0.057914 0.006248 -0.001764
v -0.065078 0.004373 0.001626
v -0.068157 -0.006638 0.000294
v 0.016599 0.023809 0.002250
v 0.016149 0.002771 0.000731
v -0.017687 0.024006 -0.001046
v -0.033799 0.021940 0.003287
v -0.034830 0.020484 0.001634
v -0.036497 0.017771 0.001689
v -0.035257 0.018816 0.001971
v -0.035623 0.017024 0.001000
v -0.036192 0.017944 0.001915
v -0.035933 0.018569 0.001851
v -0.036359 0.016148 0.000012
v -0.036030 0.016194 -0.000239
v -0.037798 0.017539 -0.000436
v -0.043039 0.014514 -0.000340
v -0.038195 0.015597 0.002708
v -0.035903 0.006236 0.002046
v -0.041286 0.012935 0.002636
v -0.042158 -0.005386 0.001603
v -0.047406 0.013261 0.000446
v -0.044858 -0.006284 0.000762
v -0.043065 -0.006391 0.002101
v -0.047521 0.012901 0.000240
v -0.048550 -0.005623 0.000052
v -0.048611 -0.005751 0.000077
v -0.058413 0.005477 0.001521
v -0.066256 -0.009239 0.000794
v -0.032123 0.027659 0.005729
v -0.033720 0.024821 0.004198
v -0.034283 0.021632 0.003238
v -0.033745 0.023728 0.004464
v -0.034100 0.024446 0.004972
v -0.035649 0.016630 0.003853
v -0.038322 0.015377 0.004625
v -0.041053 -0.006552 0.005110
v -0.051117 -0.001291 0.004256
v -0.060730 -0.002358 0.004198
v -0.064990 0.002372 0.003758
v 0.014623 0.023760 0.009635
v 0.013867 0.001684 0.008928
v 0.008339 0.011041 0.012721
v 0.011978 0.024977 0.011161
v -0.015185 0.024919 0.015393
v -0.022838 0.024077 0.008197
v -0.021909 0.026686 0.011029
v -0.020688 0.001443 0.008879
v -0.027670 0.018181 0.009012
v -0.033489 0.031021 0.008318
v -0.032262 0.027012 0.005643
v -0.033616 0.025974 0.006913
v -0.033726 0.025979 0.006913
v -0.033825 0.020241 0.008747
v -0.033080 0.009252 0.010687
v -0.037321 -0.001586 0.007053
v -0.036566 -0.001286 0.007807
v -0.044399 0.000968 0.008203
v -0.019901 0.001388 0.012866
v -0.025231 0.012119 0.011229
v -0.019945 0.001424 0.012892
v -0.022875 0.023958 0.008476
v -0.031332 0.034780 0.009535
v -0.028020 0.011503 0.012737
v -0.031624 0.036529 0.011317
v -0.032208 0.035962 0.010777
v -0.032537 0.036000 0.010529
v -0.034636 0.008241 0.011414
v -0.036480 0.017584 0.009102
v -0.036009 0.020121 0.012330
v -0.036783 0.008227 0.011877
v -0.036212 -0.003840 0.010117
v -0.039121 -0.003806 0.008308
v -0.038241 -0.003404 0.009097
v -0.039322 -0.003750 0.009579
v 0.007205 0.018120 0.014343
v 0.009571 0.002444 0.014658
v 0.008788 0.000618 0.013911
v 0.008645 0.000848 0.013946
v -0.020122 0.024762 0.013820
v -0.025652 0.011186 0.013097
v -0.025657 0.030177 0.013232
v -0.026165 0.012829 0.011529
v -0.033225 0.009704 0.010593
v -0.034671 0.008247 0.011412
v -0.033952 0.009979 0.011652
v -0.034607 0.005936 0.012049
v -0.036906 0.019316 0.012235
v -0.036007 0.012506 0.012149
v -0.036202 0.013473 0.012993
v -0.034795 -0.003184 0.015448
v -0.036979 -0.004080 0.014329
v 0.006484 0.022439 0.016791
v 0.001732 0.024195 0.017615
v 0.001727 0.000653 0.017390
v -0.016046 0.018886 0.017904
v -0.017736 0.000814 0.016357
v -0.018187 0.023070 0.016770
v -0.016608 0.011143 0.017268
v -0.026613 0.028287 0.014377
v -0.023770 0.010469 0.014974
v -0.028491 0.013422 0.015603
v -0.029371 0.030492 0.018190
v -0.026813 0.019084 0.016474
v -0.030237 0.035320 0.014918
v -0.030177 0.035394 0.015098
v -0.029778 0.026934 0.017003
v -0.033347 0.003696 0.015844
v -0.033897 -0.000017 0.016196
v -0.035196 0.020991 0.013646
v -0.037852 0.021049 0.015780
v -0.039196 0.017861 0.017726
v -0.038806 0.025738 0.016685
v -0.039249 0.020738 0.015346
v -0.038518 0.017734 0.015429
v -0.013286 0.000469 0.019094
v -0.029110 0.030108 0.017883
v -0.029990 0.024299 0.017134
v -0.033107 0.023282 0.017130
v -0.029757 0.020838 0.019517
v -0.031999 0.014163 0.017886
v -0.033817 0.015036 0.019654
v -0.033116 0.001991 0.016944
v -0.036260 0.024076 0.017241
v -0.039006 0.026013 0.017891
v -0.039289 0.017965 0.017815
v -0.041675 0.019884 0.020283
v -0.031669 0.013972 0.018531
v -0.035191 0.016833 0.023715
v -0.038310 0.020604 0.024695
v -0.032435 0.019886 0.023739
v -0.032762 0.019676 0.023481
v -0.034382 0.015827 0.021119
v -0.037535 0.022883 0.024215
v -0.036653 0.021744 0.025035
v -0.036591 0.021817 0.025066
v -0.036320 0.017274 0.025705
v -0.035872 0.016914 0.025300
v -0.032835 0.020980 -0.023952
v -0.030298 0.020871 -0.020476
v -0.003467 0.000005 -0.018266
v -0.016871 0.022282 -0.017822
v -0.017628 0.003854 -0.018213
v -0.029250 0.028522 -0.018394
v -0.029250 0.028522 -0.018394
v -0.030018 0.026882 -0.017470
v -0.030262 0.025516 -0.017864
v -0.029950 0.025181 -0.017487
v -0.033844 0.023234 -0.017816
v -0.034401 0.003468 -0.015999
v -0.008989 0.024767 -0.015864
v -0.030449 0.035340 -0.015867
v -0.033240 0.002047 -0.017004
v -0.035073 -0.000742 -0.016167
v -0.035048 -0.001449 -0.015754
v -0.034061 -0.002614 -0.016231
v -0.034484 0.006409 -0.014679
v -0.034475 -0.002920 -0.016096
v -0.020855 0.004204 -0.013041
v -0.035400 0.008349 -0.012445
v -0.035400 0.008349 -0.012445
v -0.019400 0.001146 -0.008473
v -0.022025 0.024979 -0.008882
v -0.035658 -0.002140 -0.009307
v -0.038763 -0.003827 -0.011086
v -0.038082 -0.003528 -0.010029
v -0.038837 -0.003859 -0.008485
v -0.032683 0.026737 -0.005503
v -0.036941 0.016557 -0.006021
v -0.035256 0.019085 -0.002331
v -0.035999 0.018534 -0.002440
v -0.035785 0.018460 -0.002241
v -0.035854 0.018475 -0.002097
v -0.038800 0.017306 -0.001090
v -0.042805 0.013219 -0.002312
v -0.043479 -0.006096 -0.001948
v -0.045249 -0.006084 -0.001718
v -0.043248 -0.005868 -0.000469
v -0.056762 0.006635 -0.001476
v -0.018076 0.001233 0.002074
v -0.034756 0.020188 0.002084
v -0.034693 0.020551 0.002104
v -0.036659 0.017556 0.000556
v -0.035888 0.018588 0.001752
v -0.035888 0.018588 0.001752
v -0.036447 0.015375 -0.000087
v -0.038104 0.016648 -0.000030
v -0.037767 0.017081 -0.000362
v -0.043065 -0.006391 0.002101
v -0.043065 -0.006391 0.002101
v -0.037886 0.015826 0.002793
v -0.040302 -0.006494 0.003907
v -0.036566 -0.001286 0.007807
v -0.036270 0.018776 0.011161
v -0.038506 -0.002707 0.008942
v -0.039121 -0.003806 0.008308
v -0.038241 -0.003404 0.009097
v -0.026165 0.012829 0.011529
v -0.025780 0.011087 0.013066
v -0.037005 0.021345 0.014412
v -0.026599 0.028208 0.014790
v -0.026503 0.024743 0.014447
v -0.035196 0.020991 0.013646
v -0.033772 0.001890 0.016679
v -0.036260 0.024076 0.017241
v -0.029864 0.020893 0.019316
v -0.034373 0.021243 0.024441
v -0.032654 0.019776 0.023810
v -0.037914 0.018730 0.025178
vn 0.6972 -0.2726 -0.6630
vn 0.2713 -0.0558 -0.9609
vn -0.1318 0.6156 -0.7770
vn 0.1545 -0.8065 -0.5707
vn -0.8043 -0.4007 -0.4388
vn -0.2862 0.8491 -0.4439
vn 0.4566 0.8132 -0.3609
vn -0.8078 -0.3653 -0.4626
vn -0.9854 -0.1339 -0.1055
vn -0.6465 -0.7393 0.1886
vn 0.1582 -0.5213 -0.8386
vn -0.3516 -0.8044 -0.4789
vn -0.1036 -0.3368 -0.9358
vn 0.3309 0.7509 -0.5715
vn 0.3750 0.7682 -0.5188
vn 0.7010 -0.1481 -0.6976
vn 0.4544 0.0202 -0.8906
vn 0.5996 -0.4819 -0.6389
vn 0.2125 0.2318 -0.9493
vn -0.0237 -0.9039 -0.4271
vn 0.0481 0.9701 -0.2380
vn 0.1189 0.2519 -0.9604
vn 0.0643 -0.1067 -0.9922
vn 0.7921 -0.0283 -0.6097
vn 0.1079 0.7996 -0.5908
vn 0.6341 0.6982 -0.3324
vn -0.0411 -0.4162 -0.9083
vn 0.2348 0.6904 -0.6843
vn -0.1284 0.0520 -0.9904
vn 0.1368 -0.9749 -0.1755
vn 0.0252 0.5683 -0.8225
vn 0.0054 0.2209 -0.9753
vn 0.0333 0.5578 -0.8293
vn -0.2028 -0.0569 -0.9776
vn -0.5360 -0.1217 -0.8354
vn -0.0818 0.3654 -0.9272
vn -0.5142 -0.5324 -0.6725
vn -0.7735 -0.5747 -0.2672
vn -0.7441 -0.5833 -0.3257
vn -0.4286 0.5574 -0.7110
vn 0.2344 0.0344 -0.9715
vn 0.7483 0.2222 -0.6250
vn 0.3228 0.1373 -0.9365
vn 0.5001 0.0031 -0.8660
vn -0.2163 -0.4247 -0.8791
vn -0.6111 -0.1516 -0.7769
vn -0.3940 -0.2168 -0.8932
vn -0.8842 0.0345 -0.4659
vn -0.3248 -0.3442 -0.8809
vn -0.1727 -0.2635 -0.9491
vn 0.2949 0.3570 -0.8863
vn -0.8294 0.3268 -0.4531
vn -0.7281 0.6093 -0.3141
vn -0.9163 0.1955 -0.3496
vn 0.0213 -0.9200 -0.3913
vn -0.2571 0.9278 0.2702
vn 0.4938 0.8695 -0.0128
vn 0.9520 0.2882 -0.1032
vn 0.9247 -0.3074 -0.2244
vn 0.9656 -0.1646 -0.2013
vn -0.4803 0.3749 -0.7929
vn -0.6234 0.0242 -0.7816
vn -0.4684 0.3732 -0.8008
vn -0.3870 0.8100 0.4405
vn 0.1424 0.8543 0.4999
vn -0.2841 0.9183 0.2756
vn -0.8497 -0.4701 -0.2389
vn -0.7189 0.2949 0.6295
vn 0.7936 -0.5091 -0.3332
vn 0.0732 0.5149 -0.8541
vn 0.0647 0.8367 -0.5439
vn 0.2042 0.9684 0.1431
vn -0.0354 0.9630 -0.2673
vn -0.4915 0.5565 -0.6699
vn 0.6986 0.7018 -0.1395
vn -0.7463 -0.5070 -0.4313
vn -0.8346 -0.5297 -0.1516
vn -0.6025 -0.6952 0.3921
vn -0.1762 0.9023 -0.3934
vn 0.4965 0.8366 -0.2315
vn -0.3824 -0.5602 -0.7348
vn -0.7632 0.6369 -0.1089
vn -0.9295 0.0233 -0.3682
vn -0.9241 0.3122 0.2204
vn -0.8080 0.5738 0.1335
vn -0.6344 -0.0176 -0.7728
vn 0.0531 -0.5732 -0.8177
vn -0.0221 0.6943 -0.7194
vn 0.6483 0.6891 -0.3238
vn 0.9320 -0.1631 0.3236
vn 0.8943 -0.1751 0.4118
vn 0.8405 -0.1373 0.5242
vn 0.6392 -0.7227 -0.2629
vn 0.5581 -0.8183 -0.1372
vn 0.6454 0.0780 0.7599
vn -0.1833 -0.5133 -0.8384
vn -0.3282 -0.7747 -0.5404
vn -0.2978 -0.4086 -0.8628
vn -0.0195 -0.8330 -0.5529
vn 0.9326 -0.2846 -0.2219
vn 0.8866 -0.0648 -0.4580
vn -0.1231 -0.9913 0.0472
vn -0.5201 -0.8511 0.0713
vn -0.8735 -0.4667 0.1383
vn -0.8970 -0.1388 0.4197
vn -0.9705 -0.1505 -0.1883
vn 0.3050 0.4883 0.8177
vn 0.0409 -0.2057 0.9778
vn 0.2912 -0.8656 0.4073
vn -0.0140 0.8475 0.5306
vn 0.5297 0.1933 -0.8259
vn -0.4245 -0.0607 -0.9034
vn 0.8018 -0.5466 -0.2414
vn 0.4182 -0.0154 -0.9082
vn 0.4949 0.7462 -0.4453
vn 0.5223 -0.5081 -0.6848
vn 0.9798 0.1043 -0.1707
vn 0.6707 -0.6472 0.3623
vn -0.9831 -0.1192 -0.1390
vn 0.4258 -0.8116 0.4001
vn -0.5386 -0.0031 -0.8425
vn -0.3449 -0.9248 -0.1608
vn 0.9644 0.1933 -0.1804
vn -0.5576 0.6253 0.5460
vn -0.6772 0.0329 0.7350
vn -0.3360 0.2129 0.9175
vn 0.5606 0.1207 0.8192
vn 0.8151 -0.2533 0.5210
vn -0.3354 0.4375 0.8343
vn -0.9817 0.0840 0.1709
vn -0.7458 0.6589 -0.0985
vn -0.5260 0.8334 0.1697
vn -0.6677 0.5093 -0.5429
vn 0.2985 -0.5681 0.7669
vn 0.8090 -0.3641 0.4614
vn 0.7565 -0.6539 -0.0120
vn 0.3609 -0.9326 -0.0012
vn 0.4018 -0.9157 0.0002
vn 0.3183 -0.9480 -0.0026
vn 0.2836 -0.9589 -0.0037
vn -0.1884 -0.8373 -0.5133
vn 0.9499 -0.2174 -0.2246
vn 0.8754 0.4375 0.2057
vn 0.3311 -0.9433 -0.0248
vn -0.1024 -0.9947 0.0118
vn -0.1548 0.9878 0.0174
vn -0.6682 0.6027 0.4362
vn -0.9685 0.0044 0.2491
vn -0.5126 -0.8481 0.1339
vn -0.5664 0.8219 -0.0610
vn 0.5781 -0.7838 0.2266
vn -0.1700 -0.1973 -0.9655
vn 0.9924 0.0707 0.1007
vn 0.9306 -0.3609 0.0608
vn 0.8321 -0.0162 0.5544
vn -0.8525 0.5141 -0.0941
vn -0.9172 0.1734 -0.3588
vn 0.7209 0.0968 0.6863
vn -0.7139 -0.0487 -0.6986
vn -0.9006 0.2634 -0.3457
vn -0.7882 0.0257 -0.6149
vn -0.6176 0.4499 -0.6451
vn 0.7806 0.1042 0.6163
vn -0.3553 -0.0202 -0.9345
vn 0.8014 -0.3918 0.4520
vn -0.0362 -0.9992 0.0195
vn 0.3174 -0.7807 0.5383
vn 0.6124 -0.2907 0.7352
vn 0.1579 -0.9746 0.1590
vn 0.1214 -0.5432 -0.8308
vn -0.2171 0.7205 -0.6586
vn -0.5132 0.4955 -0.7008
vn -0.4500 -0.5991 -0.6623
vn -0.4991 0.7323 0.4633
vn -0.9212 0.3323 -0.2023
vn -0.9926 -0.0639 -0.1029
vn -0.7894 0.6051 0.1033
vn -0.4897 0.7163 -0.4971
vn -0.4405 0.8649 -0.2406
vn -0.5003 0.7957 0.3414
vn -0.3172 0.9094 0.2692
vn 0.8560 0.1141 0.5043
vn 0.3990 0.4199 0.8152
vn -0.5231 0.8402 0.1427
vn -0.4321 0.6502 0.6250
vn -0.4831 0.8659 0.1298
vn -0.2567 0.5023 -0.8257
vn 0.7212 -0.6902 0.0592
vn 0.9042 -0.2590 -0.3395
vn 0.5315 -0.8467 -0.0249
vn -0.5829 0.6609 -0.4726
vn -0.2431 -0.9479 0.2059
vn -0.4696 -0.8738 -0.1263
vn -0.0584 -0.9979 -0.0268
vn -0.4403 0.8714 -0.2164
vn 0.0071 -0.6876 0.7261
vn 0.0491 -0.9756 0.2141
vn -0.4183 0.5664 -0.7101
vn -0.3519 0.5877 0.7285
vn -0.4557 0.8901 0.0063
vn -0.6126 0.7345 0.2920
vn -0.2961 -0.8846 0.3603
vn -0.9526 -0.2149 0.2156
vn 0.9160 0.1446 0.3743
vn 0.0458 -0.9989 -0.0141
vn 0.6793 0.0975 -0.7273
vn 0.0468 0.5481 -0.8351
vn 0.4010 0.3422 -0.8498
vn -0.8165 0.5357 -0.2155
vn -0.7984 0.5455 -0.2551
vn -0.9571 0.2564 0.1351
vn -0.0390 0.7588 -0.6502
vn -0.5461 0.8006 0.2468
vn 0.5123 0.6378 -0.5751
vn 0.5298 0.3128 -0.7883
vn -0.2309 0.4995 -0.8350
vn -0.8626 0.4802 0.1590
vn -0.8140 0.5065 0.2843
vn 0.9870 -0.0239 -0.1588
vn -0.3029 0.7557 0.5807
vn -0.5216 0.5800 0.6258
vn -0.5562 0.5741 0.6009
vn 0.7880 -0.5442 -0.2880
vn 0.6880 -0.5463 -0.4776
vn 0.5665 -0.7876 -0.2422
vn 0.6791 -0.7083 -0.1925
vn -0.0071 -0.9977 -0.0678
vn -0.1612 0.7000 0.6958
vn -0.2757 -0.2569 0.9263
vn 0.5956 0.0930 0.7979
vn 0.7987 -0.5029 0.3304
vn -0.0311 0.8980 0.4389
vn -0.8457 0.3955 -0.3582
vn -0.6426 -0.7504 -0.1548
vn -0.4934 -0.8544 -0.1630
vn -0.4538 0.4590 -0.7638
vn 0.4048 0.2144 -0.8889
vn 0.4378 -0.2605 -0.8605
vn -0.8456 0.5307 -0.0581
vn -0.9841 0.1525 -0.0910
vn -0.7122 0.6868 0.1451
vn -0.5439 0.8250 -0.1531
vn -0.5172 0.8516 0.0852
vn 0.3902 -0.6668 -0.6350
vn 0.0509 -0.9281 0.3688
vn -0.5833 0.0930 0.8069
vn 0.0035 -0.2004 0.9797
vn -0.4812 0.3159 0.8177
vn 0.3862 0.8235 0.4155
vn 0.4857 -0.2814 0.8276
vn 0.3520 0.9306 -0.1010
vn -0.7178 -0.3540 -0.5995
vn -0.3408 -0.9400 0.0168
vn -0.1880 0.2927 -0.9375
vn -0.9145 0.2899 -0.2823
vn -0.0503 0.5423 -0.8387
vn -0.9994 0.0164 0.0312
vn -0.9727 0.0316 0.2301
vn 0.7756 -0.4846 0.4045
vn 0.9796 0.1570 0.1256
vn -0.5085 0.7622 -0.4005
vn 0.5713 -0.7449 -0.3446
vn 0.7836 -0.5343 -0.3170
vn 0.5552 -0.5884 -0.5878
vn 0.6256 -0.7011 -0.3420
vn -0.9889 0.0811 -0.1241
vn -0.3799 0.2853 0.8799
vn 0.7801 -0.6048 0.1600
vn -0.1416 -0.9471 0.2879
vn 0.8037 -0.5920 0.0600
vn 0.5914 -0.1280 0.7962
vn -0.4491 -0.7326 0.5115
vn -0.5987 -0.7798 -0.1830
vn -0.7750 -0.5720 0.2688
vn -0.3444 -0.5223 -0.7801
vn 0.2751 0.5972 -0.7534
vn 0.7798 0.5275 0.3370
vn -0.7211 0.6894 -0.0694
vn 0.1726 0.7717 -0.6121
vn -0.0581 0.9982 -0.0180
vn 0.2929 -0.4332 -0.8524
vn -0.1711 -0.4202 0.8912
vn -0.8979 0.0614 0.4359
vn -0.9055 0.0584 0.4202
vn -0.2176 0.0629 0.9740
vn -0.4084 0.8034 -0.4333
vn 0.1960 0.0271 0.9802
vn -0.6982 -0.5098 0.5026
vn -0.5248 0.6640 -0.5327
vn -0.9387 -0.1244 0.3216
vn 0.1310 -0.7904 -0.5984
vn 0.2342 -0.6341 -0.7369
vn 0.5570 -0.5681 0.6059
vn -0.2906 -0.7676 0.5713
vn 0.6263 -0.7008 -0.3414
vn 0.4105 0.0694 0.9092
vn 0.4850 -0.5750 0.6589
vn -0.1343 -0.6326 0.7628
vn 0.1428 0.8769 0.4589
vn -0.4334 -0.4085 0.8033
vn 0.3855 0.4409 0.8106
vn -0.6266 -0.6316 -0.4566
vn -0.0130 -0.6632 -0.7484
vn 0.7621 0.6301 0.1487
vn -0.1159 0.9758 0.1852
vn 0.5986 -0.0171 0.8008
vn 0.1100 -0.0102 0.9939
vn -0.6103 -0.6757 0.4134
vn 0.7572 0.4717 0.4519
vn -0.4473 0.6441 -0.6205
vn -0.7459 0.1565 -0.6474
vn -0.4352 0.6487 -0.6243
vn -0.9060 -0.1000 -0.4113
vn -0.2960 -0.8736 0.3863
vn -0.7000 -0.7074 0.0979
vn 0.1045 0.5583 0.8231
vn 0.1779 -0.5675 0.8039
vn -0.0191 0.0331 0.9993
vn -0.0900 -0.0275 0.9956
vn -0.0769 0.4970 0.8643
vn 0.2799 -0.0020 0.9600
vn 0.7525 0.1393 0.6437
vn 0.7071 -0.0477 0.7055
vn 0.1217 -0.5232 0.8434
vn 0.5917 0.0845 0.8017
vn 0.3145 0.2371 0.9192
vn 0.7946 -0.0400 0.6058
vn 0.0909 -0.8627 0.4975
vn 0.1730 0.7722 -0.6114
vn 0.8993 -0.1635 -0.4057
vn -0.2763 0.7556 -0.5939
vn 0.5010 0.8643 -0.0442
vn 0.5563 0.7048 -0.4402
vn -0.5740 0.2350 0.7844
vn 0.0762 -0.2496 0.9654
vn -0.9530 -0.2411 0.1834
vn 0.1643 0.7780 0.6064
vn 0.7439 -0.3849 0.5463
vn 0.6901 -0.3221 0.6481
vn -0.7430 0.1169 0.6590
vn -0.2733 0.9569 0.0977
vn -0.7390 -0.6503 -0.1759
vn 0.4858 0.7742 0.4057
vn 0.4621 -0.7676 0.4441
vn 0.5237 0.7890 0.3213
vn -0.2638 0.3859 0.8840
vn 0.6238 -0.1974 0.7562
vn 0.3821 0.0508 0.9227
vn 0.3515 0.0977 0.9311
vn -0.1474 -0.4026 0.9034
vn 0.8869 -0.1714 0.4289
vn 0.5610 0.7595 0.3292
vn -0.2293 0.1416 0.9630
s 1
usemtl mtl1.1086
f 5//1 2//2 1//3
f 2//2 5//1 4//4
f 1//3 2//2 7//5
f 6//6 299//7 1//3
f 11//8 1//3 7//5
f 42//9 6//6 1//3
f 11//8 7//5 3//10
f 9//11 20//12 8//13
f 34//14 299//7 6//6
f 299//7 34//14 300//15
f 4//4 5//1 10//16
f 4//4 11//8 3//10
f 1//3 11//8 42//9
f 17//17 13//18 12//19
f 9//11 13//18 16//20
f 15//21 14//22 18//23
f 43//24 17//17 14//22
f 21//25 45//26 15//21
f 8//13 12//19 9//11
f 16//20 301//27 9//11
f 46//28 45//26 21//25
f 19//29 12//19 8//13
f 12//19 19//29 17//17
f 9//11 301//27 20//12
f 44//30 20//12 16//20
f 17//17 19//29 18//23
f 311//31 302//32 47//33
f 18//23 19//29 302//32
f 24//34 302//32 19//29
f 8//13 22//35 19//29
f 20//12 22//35 8//13
f 302//32 24//34 23//36
f 19//29 22//35 56//37
f 24//34 19//29 56//37
f 53//38 56//37 22//35
f 22//35 20//12 51//39
f 25//40 23//36 26//41
f 23//36 24//34 26//41
f 27//42 57//43 30//44
f 26//41 28//45 10//16
f 304//46 31//47 29//48
f 305//49 30//44 306//50
f 33//51 306//50 30//44
f 10//16 33//51 30//44
f 307//52 300//15 32//53
f 61//54 307//52 32//53
f 300//15 34//14 32//53
f 4//4 10//16 59//55
f 28//45 59//55 10//16
f 35//56 6//6 40//57
f 32//53 6//6 35//56
f 310//58 38//59 39//60
f 37//61 36//62 73//63
f 70//64 309//65 40//57
f 40//57 41//66 70//64
f 4//4 71//67 11//8
f 40//57 6//6 41//66
f 6//6 42//9 41//66
f 41//66 42//9 77//68
f 79//69 44//30 13//18
f 44//30 16//20 13//18
f 14//22 17//17 18//23
f 47//33 302//32 48//70
f 50//71 80//72 49//73
f 302//32 23//36 48//70
f 50//71 49//73 23//36
f 55//74 52//75 23//36
f 52//75 50//71 23//36
f 24//34 56//37 28//45
f 53//38 303//76 81//77
f 53//38 81//77 82//78
f 57//43 55//74 23//36
f 23//36 25//40 57//43
f 25//40 26//41 57//43
f 26//41 24//34 28//45
f 82//78 56//37 53//38
f 82//78 59//55 56//37
f 60//79 54//80 27//42
f 54//80 57//43 27//42
f 55//74 57//43 54//80
f 26//41 10//16 57//43
f 10//16 30//44 57//43
f 56//37 58//81 28//45
f 58//81 59//55 28//45
f 85//82 312//83 29//48
f 60//79 312//83 85//82
f 85//82 29//48 100//84
f 29//48 31//47 61//54
f 29//48 61//54 63//85
f 31//47 308//86 61//54
f 61//54 32//53 63//85
f 63//85 32//53 35//56
f 35//56 70//64 63//85
f 59//55 62//87 4//4
f 72//88 64//89 37//61
f 64//89 66//90 313//91
f 66//90 65//92 313//91
f 38//59 314//93 39//60
f 69//94 68//95 66//90
f 11//8 71//67 42//9
f 77//68 42//9 71//67
f 71//67 4//4 62//87
f 72//88 37//61 73//63
f 74//96 78//97 36//62
f 74//96 318//98 78//97
f 69//94 78//97 75//99
f 41//66 77//68 70//64
f 36//62 78//97 73//63
f 43//24 45//26 93//100
f 94//101 79//69 13//18
f 15//21 45//26 43//24
f 17//17 43//24 94//101
f 49//73 80//72 46//28
f 51//39 20//12 95//102
f 322//103 97//104 51//39
f 54//80 80//72 52//75
f 50//71 52//75 80//72
f 82//78 81//77 110//105
f 22//35 51//39 319//106
f 319//106 51//39 97//104
f 110//105 319//106 97//104
f 80//72 54//80 98//107
f 82//78 99//108 83//109
f 82//78 110//105 99//108
f 54//80 60//79 84//110
f 83//109 59//55 82//78
f 60//79 85//82 84//110
f 100//84 29//48 63//85
f 62//87 59//55 83//109
f 88//111 71//67 62//87
f 62//87 89//112 88//111
f 86//113 62//87 83//109
f 62//87 91//114 89//112
f 320//115 90//115 317//115
f 62//87 86//113 321//116
f 72//88 87//117 64//89
f 87//117 103//118 64//89
f 103//118 66//90 64//89
f 77//68 71//67 101//119
f 89//112 101//119 71//67
f 89//112 91//114 73//63
f 72//88 73//63 91//114
f 103//118 69//94 66//90
f 69//94 103//118 92//120
f 118//121 73//63 78//97
f 92//120 78//97 69//94
f 105//122 78//97 92//120
f 79//69 94//101 136//123
f 13//18 17//17 94//101
f 80//72 98//107 96//124
f 109//125 323//126 98//107
f 99//108 110//105 109//125
f 109//125 98//107 99//108
f 98//107 111//127 99//108
f 84//110 98//107 54//80
f 98//107 84//110 111//127
f 112//128 83//109 99//108
f 86//113 83//109 112//128
f 84//110 85//82 113//129
f 84//110 113//129 114//130
f 63//85 70//64 77//68
f 116//131 63//85 102//132
f 103//118 87//117 86//113
f 102//132 63//85 77//68
f 101//119 102//132 77//68
f 127//133 101//119 89//112
f 324//134 92//120 103//118
f 324//134 104//135 92//120
f 105//122 118//121 78//97
f 117//136 92//120 104//135
f 325//137 326//138 327//139
f 327//139 106//140 325//137
f 127//133 73//63 118//121
f 105//122 107//141 118//121
f 93//100 119//142 43//24
f 93//100 45//26 164//143
f 44//30 79//69 108//144
f 20//12 44//30 140//145
f 138//146 46//28 80//72
f 80//72 96//124 120//147
f 80//72 120//147 138//146
f 96//124 109//125 120//147
f 110//105 120//147 109//125
f 110//105 121//148 120//147
f 141//149 97//104 322//103
f 114//130 113//129 100//84
f 100//84 63//85 114//130
f 103//118 86//113 112//128
f 329//150 102//132 101//119
f 127//133 329//150 101//119
f 112//128 104//135 103//118
f 89//112 73//63 127//133
f 112//128 129//151 104//135
f 107//141 117//136 129//151
f 118//121 107//141 132//152
f 119//142 94//101 43//24
f 119//142 137//153 94//101
f 137//153 136//123 94//101
f 108//144 79//69 165//154
f 20//12 140//145 95//102
f 110//105 97//104 121//148
f 111//127 125//155 112//128
f 328//156 115//156 123//157
f 122//158 125//155 111//127
f 123//157 114//130 124//159
f 145//160 123//157 124//159
f 114//130 63//85 126//161
f 124//159 114//130 126//161
f 145//160 124//159 144//162
f 63//85 116//131 126//161
f 125//155 147//163 112//128
f 111//127 112//128 99//108
f 144//162 126//161 128//164
f 116//131 102//132 127//133
f 116//131 127//133 128//164
f 154//165 129//151 112//128
f 104//135 129//151 117//136
f 107//141 129//151 130//166
f 131//167 130//166 129//151
f 129//151 154//165 155//168
f 107//141 130//166 132//152
f 118//121 132//152 127//133
f 132//152 160//169 133//170
f 133//170 161//171 132//152
f 133//170 134//172 161//171
f 133//170 135//173 134//172
f 119//142 164//143 137//153
f 45//26 46//28 138//146
f 138//146 120//147 139//174
f 121//148 166//175 120//147
f 166//175 121//148 143//176
f 140//145 142//177 95//102
f 150//178 146//179 144//162
f 144//162 128//164 150//178
f 152//180 333//181 146//179
f 148//182 112//128 147//163
f 147//163 149//183 148//182
f 148//182 154//165 112//128
f 151//184 146//179 150//178
f 151//184 152//180 146//179
f 334//185 152//180 151//184
f 153//186 151//184 150//178
f 153//186 152//180 334//185
f 150//178 128//164 335//187
f 336//188 154//165 179//189
f 157//190 336//188 179//189
f 150//178 335//187 158//191
f 130//166 131//167 156//192
f 337//193 132//152 130//166
f 183//194 156//192 131//167
f 183//194 336//188 157//190
f 158//191 185//195 150//178
f 132//152 158//191 127//133
f 132//152 337//193 156//192
f 186//196 187//197 156//192
f 132//152 159//198 158//191
f 132//152 161//171 159//198
f 156//192 160//169 132//152
f 182//199 158//191 159//198
f 159//198 339//200 182//199
f 339//200 161//171 162//201
f 162//201 161//171 134//172
f 133//170 189//202 135//173
f 189//202 133//170 160//169
f 163//203 162//201 134//172
f 163//203 134//172 135//173
f 189//202 163//203 135//173
f 45//26 201//204 164//143
f 165//154 136//123 137//153
f 238//205 140//145 44//30
f 341//206 193//207 167//208
f 342//209 344//210 192//211
f 152//180 169//212 176//213
f 174//214 169//212 171//215
f 171//215 169//212 170//216
f 172//217 168//217 343//217
f 173//218 192//211 344//210
f 169//212 174//214 176//213
f 179//189 148//182 175//219
f 173//218 177//220 178//221
f 153//186 169//212 152//180
f 177//220 180//222 178//221
f 154//165 148//182 179//189
f 338//223 179//189 181//224
f 181//224 179//189 352//225
f 184//226 338//223 181//224
f 177//220 182//199 180//222
f 183//194 186//196 156//192
f 349//227 183//194 157//190
f 160//169 156//192 187//197
f 339//200 188//228 182//199
f 160//169 186//196 198//229
f 188//228 339//200 162//201
f 137//153 164//143 203//230
f 202//231 165//154 137//153
f 202//231 108//144 165//154
f 238//205 44//30 108//144
f 205//232 45//26 138//146
f 138//146 166//175 206//233
f 208//234 166//175 143//176
f 208//234 143//176 340//235
f 194//236 190//237 167//208
f 167//208 190//237 209//238
f 214//239 191//240 192//211
f 195//241 214//239 192//211
f 167//208 209//238 341//206
f 341//206 209//238 171//215
f 173//218 195//241 192//211
f 179//189 175//219 171//215
f 179//189 171//215 209//238
f 178//221 195//241 173//218
f 196//242 195//241 351//243
f 214//239 195//241 196//242
f 196//242 351//243 180//222
f 352//225 350//244 181//224
f 197//245 349//227 352//225
f 186//196 183//194 197//245
f 197//245 183//194 349//227
f 180//222 182//199 218//246
f 198//229 218//246 182//199
f 188//228 198//229 182//199
f 160//169 198//229 199//247
f 199//247 198//229 188//228
f 188//228 200//248 199//247
f 189//202 160//169 199//247
f 200//248 188//228 162//201
f 199//247 200//248 189//202
f 163//203 200//248 162//201
f 200//248 163//203 189//202
f 204//249 201//204 45//26
f 201//204 236//250 164//143
f 137//153 203//230 202//231
f 203//230 164//143 236//250
f 202//231 238//205 108//144
f 207//251 205//232 138//146
f 207//251 138//146 206//233
f 166//175 208//234 220//252
f 140//145 219//253 208//234
f 206//233 166//175 220//252
f 190//237 222//254 209//238
f 210//255 211//256 191//240
f 210//255 191//240 212//257
f 213//258 191//240 214//239
f 179//189 209//238 215//259
f 215//259 247//260 179//189
f 196//242 230//261 214//239
f 247//260 232//262 179//189
f 216//263 179//189 217//264
f 216//263 352//225 179//189
f 217//264 234//265 216//263
f 232//262 217//264 179//189
f 180//222 354//266 196//242
f 218//246 231//267 180//222
f 216//263 233//268 352//225
f 235//269 197//245 355//270
f 198//229 197//245 235//269
f 197//245 198//229 186//196
f 352//225 233//268 197//245
f 203//230 237//271 202//231
f 204//249 45//26 205//232
f 238//205 257//272 140//145
f 257//272 219//253 140//145
f 220//252 208//234 241//273
f 241//273 208//234 221//274
f 207//251 206//233 222//254
f 220//252 209//238 222//254
f 243//275 209//238 220//252
f 207//251 223//276 242//277
f 222//254 223//276 207//251
f 190//237 223//276 222//254
f 227//278 226//279 223//276
f 223//276 226//279 225//280
f 223//276 211//256 227//278
f 209//238 224//281 215//259
f 215//259 224//281 244//282
f 227//278 211//256 210//255
f 227//278 210//255 266//283
f 277//284 210//255 267//285
f 210//255 213//258 267//285
f 214//239 230//261 270//286
f 247//260 215//259 228//287
f 229//288 230//261 196//242
f 248//289 230//261 229//288
f 354//266 180//222 249//290
f 231//267 249//290 180//222
f 357//291 353//292 232//262
f 232//262 251//293 252//294
f 252//294 235//269 232//262
f 216//263 234//265 356//295
f 232//262 235//269 357//291
f 198//229 235//269 218//246
f 253//296 236//250 201//204
f 202//231 237//271 239//297
f 257//272 238//205 276//298
f 207//251 240//299 205//232
f 208//234 219//253 221//274
f 221//274 261//300 241//273
f 207//251 242//277 260//301
f 220//252 241//273 358//302
f 224//281 243//275 359//303
f 209//238 243//275 224//281
f 261//300 224//281 241//273
f 261//300 244//282 224//281
f 225//280 242//277 223//276
f 265//304 242//277 225//280
f 266//283 225//280 227//278
f 266//283 210//255 277//284
f 267//285 213//258 214//239
f 214//239 279//305 267//285
f 279//305 214//239 270//286
f 246//306 245//307 228//287
f 228//287 215//259 246//306
f 244//282 250//308 246//306
f 247//260 231//267 268//309
f 230//261 248//289 360//310
f 230//261 271//311 270//286
f 360//310 248//289 274//312
f 354//266 249//290 275//313
f 271//311 354//266 275//313
f 282//314 272//315 250//308
f 246//306 250//308 245//307
f 249//290 245//307 250//308
f 245//307 249//290 231//267
f 247//260 245//307 231//267
f 218//246 268//309 231//267
f 218//246 235//269 252//294
f 201//204 204//249 253//296
f 254//316 253//296 204//249
f 237//271 255//317 239//297
f 254//316 204//249 205//232
f 203//230 255//317 237//271
f 236//250 256//318 203//230
f 256//318 259//319 203//230
f 255//317 203//230 259//319
f 240//299 258//320 205//232
f 260//301 258//320 240//299
f 259//319 261//300 257//272
f 261//300 221//274 257//272
f 240//299 207//251 260//301
f 256//318 264//321 259//319
f 242//277 263//322 361//323
f 258//320 260//301 264//321
f 259//319 264//321 261//300
f 261//300 264//321 262//324
f 265//304 263//322 242//277
f 267//285 362//325 361//323
f 278//326 362//325 267//285
f 263//322 267//285 361//323
f 262//324 264//321 280//327
f 261//300 262//324 244//282
f 278//326 267//285 279//305
f 281//328 244//282 262//324
f 279//305 270//286 284//329
f 282//314 250//308 244//282
f 282//314 244//282 281//328
f 283//330 247//260 268//309
f 247//260 283//330 251//293
f 247//260 251//293 232//262
f 273//331 365//332 363//333
f 273//331 270//286 271//311
f 272//315 275//313 250//308
f 364//334 268//309 218//246
f 218//246 252//294 364//334
f 269//335 364//334 251//293
f 364//334 252//294 251//293
f 287//336 273//331 271//311
f 287//336 271//311 275//313
f 256//318 236//250 253//296
f 253//296 254//316 256//318
f 255//317 276//298 238//205
f 258//320 254//316 205//232
f 258//320 256//318 254//316
f 259//319 276//298 255//317
f 276//298 259//319 257//272
f 256//318 258//320 264//321
f 362//325 278//326 264//321
f 280//327 264//321 278//326
f 279//305 366//337 278//326
f 280//327 291//338 288//339
f 280//327 288//339 262//324
f 272//315 282//314 290//340
f 365//332 273//331 285//341
f 273//331 287//336 285//341
f 286//342 287//336 275//313
f 286//342 275//313 272//315
f 279//305 292//343 366//337
f 281//328 289//344 282//314
f 294//345 365//332 285//341
f 279//305 365//332 294//345
f 285//341 287//336 295//346
f 290//340 287//336 272//315
f 292//343 279//305 294//345
f 291//338 298//347 288//339
f 368//348 367//349 298//347
f 297//350 293//351 289//344
f 290//340 295//346 287//336
f 290//340 282//314 297//350
f 293//351 297//350 282//314
f 292//343 294//345 296//352
f 298//347 367//349 297//350
f 295//346 297//350 367//349
f 295//346 369//353 297//350
f 369//353 295//346 290//340
l 152 348
l 330 332
l 346 347
l 67 315
l 76 316
l 146 331
l 173 345
