# Blender 4.0.2
# www.blender.org
mtllib thoracic9.mtl
o thoracic9.002
v -0.039757 0.012917 0.033075
v -0.035764 0.019568 0.026598
v -0.040613 0.019633 0.032192
v -0.043398 0.010940 0.031172
v -0.042504 0.017093 0.033111
v -0.035549 0.011813 0.029860
v -0.032628 0.019528 0.024827
v -0.042396 0.020919 0.027911
v -0.045261 0.011462 0.029000
v -0.044833 0.017419 0.028579
v -0.036598 0.008503 0.021225
v -0.037086 0.019224 0.020782
v -0.039495 0.009853 0.023795
v -0.037386 0.017377 0.014894
v -0.029291 0.015953 0.019213
v -0.030358 0.018835 0.021211
v -0.030350 0.018970 0.021396
v -0.034487 0.000624 0.019844
v -0.035121 -0.004289 0.019624
v -0.034587 0.002355 0.019903
v -0.034599 0.002344 0.019836
v -0.034157 0.000605 0.019848
v -0.035124 -0.002139 0.020145
v -0.035756 -0.005029 0.018412
v -0.037685 -0.004328 0.016948
v -0.035145 -0.002206 0.020188
v -0.037776 0.008015 0.020002
v -0.041179 0.012547 0.022567
v 0.002776 0.000516 0.015953
v -0.002746 -0.000236 0.016116
v -0.010887 0.000311 0.017384
v -0.018539 0.003659 0.017739
v -0.016080 0.016667 0.017263
v -0.025292 0.017210 0.016328
v -0.030770 0.021601 0.018448
v -0.031678 0.022286 0.017781
v -0.032697 0.009821 0.016133
v -0.034280 0.005294 0.018592
v -0.036894 0.006869 0.018753
v -0.034292 0.005293 0.018585
v -0.036766 0.006737 0.019188
v -0.035746 -0.005535 0.017299
v -0.036173 -0.005074 0.017559
v -0.036167 -0.005345 0.016463
v -0.037887 0.006315 0.017369
v 0.006358 -0.000366 0.014467
v 0.007011 0.020570 0.013632
v 0.000960 0.019605 0.016115
v 0.000925 0.014513 0.014467
v -0.006858 0.021329 0.015757
v -0.008885 0.021359 0.015800
v -0.013457 0.011179 0.014786
v -0.013093 0.020926 0.015016
v -0.018244 -0.000734 0.013809
v -0.024243 0.010900 0.015026
v -0.023009 0.023227 0.013818
v -0.023406 0.009139 0.014680
v -0.025215 0.010969 0.014111
v -0.026483 0.020112 0.014094
v -0.025656 0.011326 0.014321
v -0.029644 0.012228 0.014497
v -0.028990 0.019275 0.015666
v -0.029920 0.026052 0.016571
v -0.029235 0.029226 0.017273
v -0.029016 0.030472 0.016712
v -0.029128 0.033676 0.014394
v -0.029318 0.032709 0.015318
v -0.030648 0.024321 0.016706
v -0.037538 -0.005586 0.014105
v -0.036878 -0.005275 0.014087
v -0.036900 -0.003595 0.012201
v -0.038732 0.008984 0.016800
v 0.010838 -0.001081 0.010065
v 0.009397 0.020657 0.010965
v 0.007461 0.010122 0.011554
v -0.003288 0.021070 0.010451
v -0.013417 0.021397 0.012294
v -0.021812 0.023642 0.011115
v -0.020548 -0.000788 0.009441
v -0.024004 0.008608 0.012986
v -0.025675 0.026808 0.013197
v -0.026041 0.013002 0.011315
v -0.029308 0.032692 0.015316
v -0.030499 0.033839 0.011534
v -0.029627 0.033944 0.013330
v -0.028647 0.013149 0.011836
v -0.033557 0.020991 0.012051
v -0.037420 -0.004437 0.012231
v -0.040817 -0.001692 0.008706
v -0.041417 -0.001358 0.009121
v 0.013505 0.019464 0.006105
v 0.013048 -0.000166 0.005426
v 0.008992 -0.000632 0.004642
v -0.021473 0.022707 0.008599
v -0.023846 0.025146 0.011236
v -0.021324 0.000966 0.007407
v -0.024750 0.016458 0.008663
v -0.025723 0.027166 0.010980
v -0.027392 0.016591 0.009041
v -0.031587 0.015003 0.007554
v -0.031815 0.032497 0.009386
v -0.035104 0.009273 0.008164
v -0.038465 0.015076 0.009461
v -0.041274 -0.001514 0.006989
v -0.044203 -0.001671 0.006300
v -0.018568 0.021958 0.002549
v -0.019603 0.009807 0.003800
v -0.022806 0.021078 0.008041
v -0.031759 0.026111 0.007059
v -0.032922 0.030128 0.008212
v -0.032695 0.030425 0.008714
v -0.031736 0.032615 0.009221
v -0.034814 0.019920 0.006088
v -0.033588 0.022560 0.007778
v -0.033580 0.021862 0.006678
v -0.042330 -0.001179 0.007730
v -0.042280 -0.001111 0.007651
v -0.043270 0.008290 0.006626
v -0.044576 -0.001889 0.005946
v 0.013037 -0.001512 0.000342
v -0.016227 0.021744 0.001534
v -0.015765 0.000286 0.002177
v -0.018613 -0.000558 0.001070
v -0.018886 -0.000625 0.000920
v -0.034461 0.019021 0.005375
v -0.034406 0.019117 0.005383
v -0.035988 0.010535 0.002466
v -0.035992 0.015501 0.002130
v -0.036387 0.018260 0.004902
v -0.035134 0.019466 0.005792
v -0.040872 -0.001045 0.004206
v -0.048083 -0.006714 0.002995
v -0.052916 -0.009472 0.001863
v -0.061330 -0.017852 0.001346
v 0.012612 0.009728 0.000502
v 0.013178 0.020200 0.002152
v -0.005554 0.020689 -0.002651
v -0.017930 0.022331 -0.001048
v -0.035709 0.011531 -0.004045
v -0.037320 0.017281 -0.001507
v -0.037715 0.017291 0.002246
v -0.041096 0.015415 -0.001732
v -0.043027 -0.004803 -0.000150
v -0.052277 0.003947 -0.000470
v -0.052448 -0.011193 -0.000533
v -0.053885 0.000438 0.000111
v -0.052955 -0.001027 0.001370
v -0.056561 -0.004114 0.001005
v -0.055353 -0.001731 0.000206
v -0.057994 -0.017123 -0.000568
v -0.057668 -0.003743 -0.000211
v -0.062147 -0.017946 -0.001496
v -0.060879 -0.007163 0.000969
v -0.061785 -0.007689 -0.000066
v -0.062716 -0.016527 0.000669
v -0.017535 0.022054 -0.001001
v -0.018970 0.022295 -0.003243
v -0.018902 -0.000453 -0.002215
v -0.035716 0.016212 0.000045
v -0.035833 0.015158 -0.001848
v -0.035808 0.016221 0.000002
v -0.036612 0.016618 -0.001771
v -0.051321 -0.008546 -0.002733
v -0.056342 -0.003473 -0.001476
v -0.053446 -0.010428 -0.002352
v -0.055263 -0.001312 0.000268
v -0.058781 -0.016333 -0.002254
v -0.061141 -0.007196 -0.001690
v -0.060196 -0.006378 -0.001601
v 0.013066 0.018591 -0.007257
v 0.010964 0.020611 -0.009782
v 0.012104 -0.001278 -0.007178
v -0.021161 -0.000524 -0.009360
v -0.036516 0.016925 -0.002856
v -0.035969 0.018329 -0.005273
v -0.040500 -0.000471 -0.005997
v -0.045802 0.008446 -0.004279
v -0.043649 -0.002002 -0.006369
v 0.012311 -0.001334 -0.007170
v 0.008346 0.007472 -0.012085
v -0.001725 0.000271 -0.013788
v -0.021263 0.022790 -0.009457
v -0.021981 0.020916 -0.007705
v -0.021844 0.003668 -0.008891
v -0.031905 0.025732 -0.007597
v -0.035106 0.019035 -0.005896
v -0.031083 0.017413 -0.008245
v -0.035266 0.018989 -0.005742
v -0.038058 0.015788 -0.010055
v -0.042829 -0.001158 -0.008095
v -0.041809 -0.001318 -0.008714
v -0.043128 -0.001261 -0.007860
v 0.009224 0.000343 -0.013356
v -0.013433 0.020917 -0.010626
v -0.019510 0.023002 -0.010301
v -0.025551 0.013114 -0.011023
v -0.025994 0.018740 -0.009649
v -0.026088 0.023737 -0.009824
v -0.027143 0.015754 -0.010303
v -0.029647 0.013026 -0.012152
v -0.032482 0.028159 -0.008795
v -0.032286 0.028837 -0.008977
v -0.032862 0.029221 -0.009344
v -0.032127 0.031999 -0.009905
v -0.031381 0.032842 -0.010005
v -0.034277 0.020040 -0.009900
v -0.034315 0.008955 -0.011027
v -0.037042 -0.002264 -0.011225
v -0.039626 -0.000834 -0.008543
v -0.040682 -0.001625 -0.009147
v -0.041171 -0.001617 -0.010032
v -0.040087 -0.002920 -0.011337
v -0.041926 -0.000922 -0.009522
v 0.008236 0.018038 -0.013259
v -0.003694 0.021274 -0.016486
v 0.004848 -0.000388 -0.015441
v -0.008017 0.011600 -0.014393
v -0.017307 0.022751 -0.014391
v -0.014245 -0.000541 -0.016536
v -0.019848 -0.000639 -0.012763
v -0.024342 0.025427 -0.011666
v -0.024757 0.010375 -0.014515
v -0.027691 0.012702 -0.013233
v -0.029775 0.033724 -0.013189
v -0.029667 0.012272 -0.015834
v -0.032241 0.031902 -0.009899
v -0.031656 0.032905 -0.010237
v -0.031772 0.033056 -0.010371
v -0.037273 -0.005341 -0.014113
v -0.038210 -0.005204 -0.013526
v -0.038506 -0.005303 -0.014243
v 0.001225 0.019975 -0.016475
v 0.001189 0.019957 -0.016694
v 0.000131 0.000417 -0.017280
v 0.000127 0.000440 -0.017109
v -0.000727 0.009776 -0.014707
v -0.014134 0.021660 -0.014976
v -0.007872 0.000373 -0.017760
v -0.012009 0.019299 -0.016961
v -0.015782 0.011486 -0.015888
v -0.023388 0.022910 -0.014546
v -0.022170 0.007720 -0.016075
v -0.022240 0.007847 -0.016040
v -0.025069 0.016930 -0.017114
v -0.023995 0.024705 -0.013347
v -0.025567 0.012948 -0.016598
v -0.025680 0.020464 -0.014555
v -0.024677 0.024487 -0.013998
v -0.025544 0.025753 -0.013996
v -0.025747 0.027214 -0.013599
v -0.027343 0.012234 -0.015343
v -0.028957 0.019322 -0.016220
v -0.029434 0.034116 -0.013915
v -0.029278 0.033034 -0.015841
v -0.032345 0.010529 -0.016943
v -0.033973 0.006295 -0.018291
v -0.037448 0.017102 -0.015616
v -0.035632 -0.005043 -0.018754
v -0.036439 -0.005580 -0.017059
v -0.036486 -0.005672 -0.017122
v -0.038668 0.009797 -0.016982
v -0.037734 0.006698 -0.018655
v -0.007714 0.000375 -0.017834
v -0.015946 0.015917 -0.017874
v -0.018994 0.004096 -0.018393
v -0.021909 0.020432 -0.016816
v -0.026232 0.016836 -0.017585
v -0.028740 0.031794 -0.016641
v -0.028168 0.017288 -0.019372
v -0.030611 0.022792 -0.018189
v -0.029849 0.026529 -0.017427
v -0.030012 0.026211 -0.017329
v -0.029344 0.028875 -0.017837
v -0.028473 0.030329 -0.017041
v -0.029240 0.030010 -0.017491
v -0.032162 0.022246 -0.017633
v -0.037406 0.008264 -0.022247
v -0.035143 -0.004154 -0.020039
v -0.034286 0.003364 -0.019808
v -0.034517 0.004321 -0.019844
v -0.033939 0.003855 -0.019818
v -0.035884 0.006535 -0.019579
v -0.035507 -0.004801 -0.018878
v -0.035352 -0.002404 -0.020845
v -0.029828 0.015813 -0.020077
v -0.031402 0.021505 -0.019941
v -0.034955 -0.002042 -0.020580
v -0.034570 0.001883 -0.020667
v -0.037554 0.008568 -0.022515
v -0.038577 0.018836 -0.020570
v -0.032803 0.019832 -0.025594
v -0.035766 0.019387 -0.028190
v -0.040892 0.011333 -0.023809
v -0.035343 0.012783 -0.030604
v -0.038684 0.009601 -0.027476
v -0.045185 0.011669 -0.029160
v -0.035687 0.012773 -0.030785
v -0.035982 0.019087 -0.028167
v -0.042398 0.021065 -0.028908
v -0.045605 0.014529 -0.030252
v -0.040072 0.011958 -0.033416
v -0.041518 0.017049 -0.034216
v -0.040802 0.020462 -0.031862
v -0.043544 0.010946 -0.031721
v -0.032804 0.019373 0.024740
v -0.039578 0.009720 0.023806
v -0.039495 0.009853 0.023795
v -0.034342 0.000604 0.019952
v -0.034865 -0.002615 0.019792
v -0.033885 0.000711 0.020063
v -0.035517 -0.004424 0.018852
v -0.036613 0.008510 0.021201
v -0.037776 0.008015 0.020002
v -0.041179 0.012547 0.022567
v -0.023482 0.009344 0.014653
v -0.036878 -0.005282 0.014064
v -0.030144 0.033797 0.012643
v -0.028647 0.013149 0.011836
v -0.031223 0.033600 0.010305
v -0.031740 0.026187 0.007004
v -0.032764 0.028789 0.008459
v -0.033580 0.021862 0.006678
v -0.041348 -0.001422 0.006992
v -0.057668 -0.003743 -0.000211
v -0.060741 -0.006288 0.000334
v -0.036612 0.016618 -0.001771
v -0.032482 0.028163 -0.008798
v -0.031863 0.031523 -0.009459
v -0.040213 -0.002394 -0.010331
v -0.027719 0.012630 -0.013375
v -0.029723 0.033947 -0.013370
v -0.030823 0.033614 -0.012310
v -0.013907 -0.000397 -0.016605
v -0.017512 0.022545 -0.014341
v -0.024016 0.024787 -0.013352
v -0.036426 -0.005497 -0.017202
v -0.028788 0.031647 -0.016648
v -0.028700 0.032178 -0.016587
v -0.028507 0.030320 -0.017020
v -0.029238 0.030048 -0.017463
v -0.035130 -0.002068 -0.020804
v -0.038577 0.018836 -0.020570
v -0.033003 0.019618 -0.025228
vn 0.2551 -0.3137 0.9146
vn 0.3327 0.8289 0.4497
vn 0.1264 0.6816 0.7207
vn -0.4057 -0.7039 0.5830
vn -0.4336 0.2473 0.8665
vn -0.4389 0.8985 -0.0049
vn 0.6234 -0.4655 0.6283
vn 0.7793 0.1920 0.5965
vn -0.7053 -0.6342 0.3167
vn -0.9483 0.3173 0.0009
vn -0.8763 -0.4805 0.0341
vn -0.4617 -0.8837 -0.0774
vn -0.8526 0.4854 -0.1934
vn -0.2851 0.9486 -0.1374
vn -0.0550 -0.9081 0.4151
vn -0.7982 -0.2950 -0.5253
vn -0.6174 -0.6115 -0.4948
vn -0.9478 -0.2241 -0.2267
vn -0.8821 -0.4676 -0.0573
vn -0.8594 -0.5088 -0.0503
vn 0.6692 -0.3929 0.6307
vn 0.7881 -0.0752 0.6110
vn 0.8528 -0.0470 0.5201
vn 0.6372 0.5599 0.5296
vn -0.3980 0.8261 0.3988
vn 0.3151 0.8562 0.4094
vn 0.2215 -0.8416 0.4925
vn 0.8998 -0.4066 0.1582
vn 0.9482 -0.2256 -0.2236
vn 0.9642 -0.1365 -0.2272
vn 0.8270 -0.1313 0.5466
vn 0.8538 0.0867 0.5133
vn 0.7473 -0.1527 -0.6467
vn 0.1302 0.0460 0.9904
vn -0.1645 0.1427 0.9760
vn -0.6756 -0.0763 0.7333
vn -0.5074 -0.6084 0.6103
vn -0.7752 -0.4252 0.4673
vn -0.6379 -0.4511 0.6242
vn -0.2506 -0.7949 0.5526
vn -0.2391 -0.7936 0.5595
vn 0.0449 -0.8724 0.4867
vn 0.2248 -0.2486 0.9422
vn 0.0242 -0.4855 0.8739
vn 0.4185 -0.5376 0.7320
vn 0.0820 0.0166 0.9965
vn -0.3583 -0.1927 0.9135
vn -0.3811 -0.8554 0.3507
vn 0.0425 -0.0244 0.9988
vn -0.0497 0.8195 0.5710
vn 0.0352 -0.0284 0.9990
vn 0.1694 0.6206 0.7656
vn -0.2703 -0.4357 0.8586
vn 0.3204 0.2049 0.9249
vn 0.4036 0.7440 0.5324
vn -0.8218 0.3603 0.4414
vn 0.7910 -0.5898 0.1624
vn 0.4383 0.3086 0.8442
vn 0.8225 -0.3129 -0.4750
vn -0.9130 -0.1598 0.3753
vn -0.8541 0.5119 0.0920
vn 0.6283 -0.6413 0.4404
vn 0.6912 0.0187 0.7224
vn 0.1756 0.2033 0.9632
vn 0.1903 -0.0931 0.9773
vn 0.4472 0.5705 0.6888
vn 0.0329 0.8015 0.5971
vn 0.1197 0.9907 0.0647
vn -0.5358 -0.8397 0.0881
vn -0.8113 -0.4065 0.4201
vn 0.1959 0.4268 0.8829
vn -0.8598 -0.4475 0.2459
vn -0.9230 -0.3201 -0.2136
vn -0.8124 -0.3951 0.4288
vn -0.4605 -0.8759 -0.1444
vn -0.5119 -0.7048 0.4912
vn 0.3109 -0.9476 0.0730
vn 0.5921 -0.0669 0.8031
vn 0.7832 0.3663 0.5024
vn -0.0750 0.2560 0.9638
vn 0.8525 0.5218 0.0314
vn 0.7912 0.1546 0.5916
vn -0.9658 0.1091 0.2353
vn 0.6164 0.4756 0.6276
vn 0.8445 -0.4578 -0.2778
vn -0.2566 -0.9576 -0.1307
vn 0.7258 -0.6107 -0.3167
vn -0.2332 -0.9443 0.2321
vn 0.9952 -0.0662 -0.0714
vn 0.3629 -0.7173 -0.5948
vn -0.8369 0.5129 0.1912
vn -0.7927 -0.5213 0.3160
vn 0.8791 0.3569 0.3158
vn 0.5822 0.6606 0.4739
vn -0.1313 -0.9912 -0.0137
vn 0.0421 0.9991 -0.0096
vn 0.4116 0.9098 0.0532
vn 0.7032 0.6726 0.2305
vn -0.5776 -0.5671 -0.5872
vn 0.6827 0.5091 -0.5241
vn 0.0018 -0.9092 -0.4164
vn 0.6812 0.5701 -0.4593
vn 0.1221 0.9925 -0.0020
vn -0.8999 0.2198 0.3766
vn -0.5656 -0.8246 -0.0124
vn 0.2424 -0.8949 -0.3748
vn -0.7328 0.1442 0.6650
vn 0.9980 -0.0407 0.0483
vn 0.1152 -0.9933 -0.0066
vn -0.5896 0.2719 -0.7606
vn -0.2406 0.7946 -0.5574
vn -0.9175 -0.0251 -0.3969
vn -0.4902 -0.0550 -0.8699
vn -0.1915 -0.5757 -0.7949
vn 0.1603 -0.2706 -0.9493
vn 0.6676 -0.3163 -0.6740
vn 0.5359 0.3424 -0.7717
vn -0.9138 0.2181 0.3427
vn -0.8851 0.2199 0.4102
vn -0.8849 0.0940 0.4563
vn -0.9255 0.3589 -0.1213
vn -0.7313 0.6739 0.1053
vn 0.7890 -0.6130 0.0419
vn -0.3181 -0.9481 -0.0055
vn -0.6382 -0.0585 0.7677
vn 0.3927 -0.9071 -0.1517
vn -0.2840 -0.9568 -0.0628
vn -0.5395 0.0077 0.8419
vn 0.6578 0.7530 -0.0174
vn 0.9361 -0.2224 0.2725
vn 0.1171 0.9930 -0.0141
vn 0.2905 -0.9567 -0.0181
vn -0.9859 -0.0469 -0.1603
vn -0.5816 0.7579 -0.2955
vn 0.4639 0.1870 -0.8659
vn 0.6138 0.1580 -0.7735
vn 0.4364 0.2543 -0.8630
vn -0.6409 0.1667 -0.7493
vn -0.6804 0.1960 -0.7061
vn -0.1371 0.5339 -0.8344
vn -0.0909 0.7192 -0.6888
vn -0.1143 0.7586 -0.6415
vn -0.7577 0.5287 -0.3827
vn -0.8730 0.3992 -0.2803
vn 0.3522 -0.7253 0.5915
vn 0.6569 -0.7533 -0.0316
vn -0.1575 -0.9847 -0.0753
vn 0.8906 0.3206 -0.3226
vn 0.9341 -0.3029 -0.1889
vn -0.6584 0.7514 -0.0445
vn 0.0574 0.9569 -0.2846
vn 0.6895 -0.7239 0.0233
vn -0.8432 0.5130 -0.1607
vn 0.1118 -0.3717 0.9216
vn -0.5365 0.3175 0.7819
vn -0.4197 0.3046 0.8550
vn -0.0698 0.9976 -0.0027
vn 0.0695 0.9941 0.0836
vn -0.5963 -0.7872 0.1572
vn -0.9061 0.1554 0.3934
vn -0.9571 0.2065 0.2032
vn 0.9254 0.3445 -0.1581
vn 0.9227 -0.2734 0.2720
vn 0.1183 0.9877 0.1022
vn 0.6469 -0.7611 0.0473
vn -0.1162 0.0794 0.9900
vn -0.5411 0.4031 0.7380
vn -0.5627 0.6698 0.4845
vn -0.4925 0.3981 0.7739
vn 0.5617 -0.8267 0.0336
vn -0.1639 -0.7069 0.6880
vn 0.3418 -0.6789 -0.6498
vn -0.5190 -0.6725 -0.5277
vn -0.9072 -0.1362 0.3980
vn -0.9283 0.3611 0.0892
vn -0.6114 0.4099 -0.6769
vn -0.6644 0.7188 -0.2044
vn -0.7010 0.6754 -0.2291
vn -0.5708 0.7170 -0.4000
vn 0.9365 0.1852 -0.2978
vn 0.9132 -0.2130 -0.3474
vn 0.0383 0.7778 -0.6273
vn -0.0259 -0.9891 0.1453
vn 0.9545 0.2391 -0.1782
vn 0.8364 0.3651 0.4088
vn 0.8681 0.4524 0.2045
vn 0.4574 0.8850 -0.0869
vn 0.7482 0.6627 -0.0322
vn 0.7654 -0.6276 0.1425
vn -0.7004 0.3832 -0.6022
vn -0.1419 -0.7309 -0.6676
vn -0.4729 0.4011 -0.7846
vn -0.8343 0.5323 -0.1436
vn -0.2075 0.0369 -0.9775
vn 0.1879 -0.4362 -0.8800
vn 0.5717 0.7106 -0.4101
vn 0.0496 -0.9987 0.0074
vn -0.9551 -0.1953 0.2228
vn -0.7148 -0.6985 -0.0328
vn 0.1525 0.5876 0.7947
vn -0.5293 0.8270 -0.1892
vn 0.6066 -0.5928 0.5297
vn -0.8382 0.5209 -0.1616
vn 0.0114 -0.9414 0.3372
vn -0.5383 -0.5286 -0.6563
vn 0.6557 -0.3126 -0.6873
vn 0.6871 0.0686 -0.7233
vn 0.2045 0.9761 0.0739
vn 0.0917 0.9907 0.1003
vn -0.7397 0.3386 0.5815
vn -0.1611 0.7941 0.5861
vn -0.6117 -0.3951 0.6854
vn 0.5625 -0.1507 0.8130
vn -0.1876 0.8573 0.4794
vn -0.1597 0.2508 0.9548
vn -0.7512 -0.6104 -0.2511
vn -0.3818 -0.8314 -0.4037
vn -0.6773 -0.4820 -0.5559
vn 0.5661 0.1230 -0.8151
vn 0.2735 -0.6224 -0.7334
vn 0.1044 0.9185 -0.3814
vn -0.4955 -0.8326 -0.2477
vn -0.0918 -0.0418 0.9949
vn -0.7881 -0.5907 -0.1731
vn -0.2184 -0.4197 0.8810
vn -0.1871 -0.8354 0.5168
vn 0.2582 0.2468 0.9340
vn 0.4973 -0.7263 0.4745
vn 0.2801 0.7607 0.5856
vn -0.7786 0.3971 0.4858
vn -0.2251 0.3916 0.8922
vn 0.4677 0.5335 0.7047
vn -0.8529 0.5210 -0.0329
vn -0.8875 0.1779 -0.4250
vn -0.4875 0.4191 0.7660
vn -0.5330 0.3579 0.7667
vn 0.0823 0.6548 0.7513
vn 0.8206 -0.4994 0.2779
vn 0.9250 -0.0305 -0.3788
vn 0.7174 -0.4146 0.5599
vn 0.4785 -0.8021 0.3573
vn -0.5329 -0.7792 0.3298
vn -0.5427 -0.7703 0.3348
vn -0.8004 -0.1933 -0.5675
vn 0.2937 0.8984 -0.3266
vn 0.2175 0.2682 -0.9385
vn 0.1404 0.0546 -0.9886
vn 0.2351 0.9701 0.0612
vn 0.0559 0.6230 -0.7802
vn 0.6540 0.6858 0.3195
vn 0.9441 0.3234 0.0635
vn 0.8123 0.3188 -0.4884
vn 0.8175 0.5323 0.2199
vn -0.0137 -0.9603 0.2786
vn 0.3667 -0.8945 -0.2559
vn 0.0217 0.9446 0.3275
vn -0.2495 0.8131 0.5260
vn 0.0410 0.9403 0.3380
vn -0.8629 0.2630 -0.4316
vn -0.8179 0.0212 -0.5749
vn -0.7642 0.5576 -0.3241
vn 0.7558 -0.6006 -0.2610
vn -0.8581 0.4753 0.1944
vn 0.9448 -0.2029 0.2573
vn -0.9999 0.0111 0.0094
vn -0.0701 -0.8605 0.5046
vn -0.6515 -0.7440 -0.1482
vn -0.8102 -0.3447 -0.4740
vn 0.2598 0.1036 -0.9601
vn 0.0351 -0.8764 -0.4803
vn 0.0525 -0.8272 -0.5594
vn 0.0773 -0.0018 -0.9970
vn 0.0711 0.1857 -0.9800
vn 0.0598 0.2195 -0.9738
vn -0.3658 -0.1662 -0.9157
vn 0.1063 -0.0304 -0.9939
vn -0.1396 0.4602 -0.8768
vn 0.0571 0.7068 -0.7051
vn -0.3911 -0.0292 -0.9199
vn 0.2697 0.6696 -0.6921
vn 0.0050 -0.4631 -0.8863
vn 0.0978 0.2230 -0.9699
vn 0.0046 0.3555 -0.9346
vn 0.4917 0.4804 -0.7262
vn 0.6324 0.4569 -0.6256
vn -0.1957 -0.9513 -0.2381
vn 0.6240 0.4460 -0.6417
vn 0.2933 0.2654 -0.9184
vn 0.2948 0.3462 -0.8907
vn 0.5702 -0.0646 -0.8189
vn -0.0665 0.8709 -0.4869
vn -0.1389 0.0359 -0.9896
vn -0.6397 0.7241 -0.2579
vn -0.3888 0.8384 0.3821
vn 0.8637 -0.4202 0.2785
vn -0.0406 -0.9943 0.0990
vn -0.7601 -0.3729 -0.5322
vn -0.7984 -0.2572 -0.5444
vn -0.6084 -0.0389 -0.7927
vn -0.2067 -0.5548 -0.8059
vn 0.1424 -0.1607 -0.9767
vn 0.5586 -0.1130 -0.8217
vn 0.8783 0.4027 -0.2578
vn 0.8282 0.1199 -0.5475
vn 0.6328 -0.6414 -0.4339
vn 0.7674 0.2509 -0.5900
vn -0.3208 0.3210 -0.8911
vn 0.4101 0.3257 -0.8519
vn 0.4224 0.3012 -0.8549
vn -0.2465 0.5368 -0.8069
vn -0.4003 0.4333 -0.8074
vn 0.3335 0.8433 -0.4214
vn 0.0740 -0.8657 -0.4951
vn -0.1580 0.9868 -0.0347
vn 0.9767 -0.1478 0.1554
vn 0.9934 -0.1136 0.0145
vn 0.8905 -0.0907 -0.4458
vn 0.4242 0.3231 -0.8459
vn 0.2595 0.3128 -0.9137
vn 0.2239 -0.2058 -0.9526
vn 0.2388 0.2736 -0.9317
vn -0.8044 -0.5168 0.2931
vn 0.7662 0.2616 -0.5870
vn 0.6721 -0.2880 -0.6821
vn 0.9402 -0.1222 -0.3179
vn 0.0852 0.9964 -0.0013
vn -0.5694 -0.7685 -0.2918
vn 0.0481 -0.9804 -0.1912
vn -0.9838 0.1039 -0.1461
vn 0.5440 0.2914 -0.7869
vn 0.5861 0.3370 -0.7368
vn 0.3693 0.8342 -0.4095
vn -0.5047 0.8630 0.0230
vn -0.8537 -0.4861 0.1868
vn -0.1321 0.2974 -0.9456
vn 0.1660 -0.5119 -0.8429
vn -0.0025 0.7880 -0.6157
vn -0.4726 -0.7020 -0.5328
s 1
usemtl mtl1.1084
f 1//1 2//2 3//3
f 4//4 1//1 5//5
f 1//1 3//3 5//5
f 3//3 8//6 5//5
f 1//1 6//7 7//8
f 1//1 7//8 2//2
f 1//1 4//4 6//7
f 4//4 11//9 6//7
f 8//6 3//3 2//2
f 5//5 8//6 10//10
f 4//4 5//5 9//11
f 9//11 5//5 10//10
f 13//12 11//9 4//4
f 9//11 13//12 4//4
f 14//13 9//11 10//10
f 8//6 2//2 12//14
f 11//9 13//12 27//15
f 9//11 28//16 307//17
f 72//18 306//19 314//20
f 28//16 9//11 14//13
f 8//6 14//13 10//10
f 12//14 14//13 8//6
f 6//7 15//21 7//8
f 15//21 16//22 7//8
f 16//22 17//23 7//8
f 17//23 35//24 7//8
f 36//25 305//26 35//24
f 15//21 6//7 41//27
f 41//27 6//7 11//9
f 36//25 2//2 305//26
f 311//28 42//29 309//30
f 19//31 18//31 23//31
f 42//29 40//32 309//30
f 309//30 40//32 22//33
f 308//34 20//35 26//36
f 20//35 39//37 26//36
f 25//38 24//39 26//36
f 313//40 39//37 312//41
f 28//16 14//13 72//18
f 30//42 29//43 31//44
f 30//42 46//45 29//43
f 31//44 29//43 52//46
f 32//47 31//44 52//46
f 30//42 31//44 54//48
f 51//49 53//50 33//51
f 33//51 52//46 51//49
f 56//52 33//51 53//50
f 52//46 55//53 32//47
f 15//21 34//54 16//22
f 17//23 62//55 35//24
f 36//25 35//24 68//56
f 15//21 41//27 37//57
f 12//14 2//2 36//25
f 310//58 38//58 21//58
f 20//35 40//32 39//37
f 40//32 41//27 39//37
f 37//57 41//27 40//32
f 42//29 71//59 40//32
f 26//36 45//60 25//38
f 45//60 26//36 39//37
f 39//37 313//40 45//60
f 45//60 306//19 72//18
f 12//14 87//61 14//13
f 46//45 73//62 75//63
f 73//62 46//45 30//42
f 46//45 75//63 29//43
f 48//64 49//65 47//66
f 29//43 75//63 49//65
f 48//64 47//66 50//67
f 49//65 52//46 29//43
f 48//64 51//49 49//65
f 50//67 51//49 48//64
f 52//46 49//65 51//49
f 77//68 53//50 50//67
f 32//47 54//48 31//44
f 55//53 52//46 34//54
f 34//54 52//46 33//51
f 56//52 34//54 33//51
f 79//69 54//48 32//47
f 32//47 57//70 79//69
f 32//47 55//53 57//70
f 34//54 56//52 59//71
f 80//72 96//73 79//69
f 57//70 80//72 79//69
f 315//74 55//53 80//72
f 315//74 80//72 57//70
f 55//53 60//75 58//76
f 58//76 80//72 55//53
f 60//75 55//53 61//77
f 15//21 55//53 34//54
f 15//21 61//77 55//53
f 34//54 59//71 16//22
f 59//71 62//55 16//22
f 62//55 63//78 35//24
f 59//71 63//78 62//55
f 63//78 81//79 64//80
f 64//80 66//81 65//82
f 64//80 65//82 67//83
f 64//80 81//79 66//81
f 66//81 83//84 65//82
f 35//24 63//78 68//56
f 68//56 64//80 87//61
f 61//77 15//21 37//57
f 36//25 87//61 12//14
f 87//61 36//25 68//56
f 102//85 37//57 40//32
f 69//86 70//87 42//29
f 69//86 44//88 43//88
f 42//29 70//87 71//59
f 71//59 70//87 316//89
f 88//90 71//59 316//89
f 69//86 88//90 70//87
f 45//60 72//18 103//91
f 24//39 25//38 69//86
f 25//38 45//60 90//92
f 47//66 75//63 91//93
f 74//94 47//66 91//93
f 49//65 75//63 47//66
f 73//62 30//42 93//95
f 47//66 74//94 76//96
f 50//67 47//66 76//96
f 77//68 78//97 53//50
f 78//97 56//52 53//50
f 95//98 56//52 78//97
f 95//98 81//79 56//52
f 96//73 80//72 82//99
f 80//72 60//75 82//99
f 59//71 56//52 81//79
f 81//79 98//100 66//81
f 82//99 60//75 61//77
f 82//99 61//77 86//101
f 59//71 81//79 63//78
f 66//81 84//102 317//103
f 64//80 67//83 85//104
f 40//32 71//59 102//85
f 69//86 89//105 88//90
f 72//18 14//13 103//91
f 69//86 25//38 90//92
f 90//92 89//105 69//86
f 88//90 89//105 104//106
f 90//92 45//60 118//107
f 75//63 73//62 135//108
f 76//96 77//68 50//67
f 122//109 30//42 54//48
f 54//48 79//69 122//109
f 108//110 98//100 94//111
f 78//97 94//111 98//100
f 82//99 107//112 96//73
f 82//99 97//113 107//112
f 95//98 98//100 81//79
f 82//99 318//114 99//115
f 82//99 99//115 97//113
f 86//101 100//116 99//115
f 98//100 84//102 66//81
f 112//117 84//102 98//100
f 100//116 86//101 61//77
f 87//61 64//80 111//118
f 64//80 85//104 111//118
f 101//119 85//104 319//120
f 101//119 111//118 85//104
f 61//77 102//85 100//116
f 114//121 129//122 87//61
f 37//57 102//85 61//77
f 87//61 129//122 103//91
f 103//91 14//13 87//61
f 104//106 71//59 88//90
f 102//85 71//59 104//106
f 104//106 131//123 102//85
f 118//107 45//60 103//91
f 90//92 116//124 89//105
f 90//92 105//125 117//126
f 323//127 89//105 116//124
f 90//92 118//107 105//125
f 105//125 118//107 119//128
f 74//94 91//93 136//129
f 92//130 135//108 73//62
f 121//131 77//68 76//96
f 77//68 121//131 78//97
f 123//132 122//109 79//69
f 78//97 121//131 94//111
f 124//133 79//69 96//73
f 108//110 107//112 97//113
f 107//112 108//110 106//134
f 106//134 108//110 94//111
f 108//110 97//113 98//100
f 98//100 97//113 99//115
f 109//135 98//100 99//115
f 99//115 100//116 109//135
f 100//116 125//136 109//135
f 109//135 110//137 98//100
f 321//138 320//139 114//121
f 98//100 110//137 112//117
f 114//121 87//61 111//118
f 113//140 129//122 114//121
f 113//140 126//141 130//142
f 320//139 115//143 114//121
f 113//140 114//121 115//143
f 109//135 125//136 322//144
f 126//141 113//140 115//143
f 131//123 104//106 117//126
f 117//126 132//145 131//123
f 117//126 105//125 132//145
f 73//62 120//146 92//130
f 92//130 120//146 135//108
f 75//63 135//108 91//93
f 172//147 73//62 93//95
f 121//131 106//134 94//111
f 124//133 96//73 107//112
f 100//116 128//148 125//136
f 102//85 127//149 100//116
f 127//149 128//148 100//116
f 142//150 103//91 129//122
f 141//151 130//142 126//141
f 141//151 129//122 130//142
f 102//85 131//123 127//149
f 129//122 141//151 142//150
f 143//152 127//149 131//123
f 103//91 144//153 118//107
f 119//128 133//154 132//145
f 119//128 146//155 147//156
f 146//155 119//128 118//107
f 133//154 119//128 147//156
f 172//147 120//146 73//62
f 74//94 136//129 76//96
f 76//96 137//157 121//131
f 122//109 93//95 30//42
f 121//131 156//158 106//134
f 158//159 122//109 123//132
f 124//133 107//112 157//160
f 157//160 107//112 138//161
f 106//134 138//161 107//112
f 128//148 127//149 159//162
f 159//162 127//149 139//163
f 125//136 128//148 141//151
f 141//151 128//148 140//164
f 139//163 127//149 143//152
f 142//150 144//153 103//91
f 131//123 132//145 143//152
f 143//152 132//145 145//165
f 146//155 118//107 144//153
f 145//165 132//145 133//154
f 133//154 147//156 148//166
f 148//166 153//167 133//154
f 153//167 147//156 151//168
f 147//156 149//169 151//168
f 146//155 149//169 147//156
f 150//170 133//154 134//171
f 145//165 133//154 150//170
f 163//172 145//165 150//170
f 152//173 150//170 134//171
f 133//154 153//167 134//171
f 155//174 153//167 154//175
f 155//174 154//175 168//176
f 154//175 153//167 151//168
f 169//177 325//178 324//179
f 169//177 154//175 325//178
f 152//173 134//171 155//174
f 134//171 153//167 155//174
f 170//180 136//129 91//93
f 120//146 179//181 135//108
f 215//182 76//96 136//129
f 181//183 93//95 122//109
f 124//133 157//160 158//159
f 139//163 160//184 159//162
f 174//185 160//184 139//163
f 174//185 162//186 160//184
f 161//187 140//164 128//148
f 161//187 159//162 160//184
f 326//188 161//187 160//184
f 161//187 326//188 140//164
f 142//150 141//151 140//164
f 139//163 143//152 176//189
f 144//153 142//150 177//190
f 145//165 163//172 178//191
f 144//153 178//191 164//192
f 144//153 164//192 166//193
f 164//192 178//191 165//194
f 165//194 167//195 164//192
f 164//192 324//179 166//193
f 164//192 169//177 324//179
f 163//172 150//170 167//195
f 167//195 150//170 152//173
f 168//176 167//195 152//173
f 164//192 167//195 168//176
f 168//176 154//175 169//177
f 168//176 152//173 155//174
f 170//180 171//196 136//129
f 135//108 170//180 91//93
f 215//182 136//129 171//196
f 181//183 122//109 219//197
f 219//197 122//109 158//159
f 184//198 158//159 157//160
f 158//159 184//198 173//199
f 140//164 326//188 174//185
f 140//164 174//185 175//200
f 142//150 140//164 175//200
f 188//201 142//150 175//200
f 209//202 139//163 176//189
f 189//203 142//150 188//201
f 189//203 177//190 142//150
f 176//189 143//152 145//165
f 178//191 176//189 145//165
f 210//204 176//189 178//191
f 178//191 144//153 192//205
f 177//190 192//205 144//153
f 193//206 180//207 179//181
f 135//108 179//181 180//207
f 135//108 180//207 170//180
f 93//95 181//183 172//147
f 137//157 76//96 215//182
f 195//208 121//131 194//209
f 194//209 121//131 137//157
f 121//131 195//208 156//158
f 183//210 157//160 182//211
f 195//208 182//211 156//158
f 184//198 157//160 183//210
f 196//212 184//198 183//210
f 174//185 187//213 186//214
f 175//200 174//185 186//214
f 187//213 185//215 186//214
f 188//201 186//214 189//203
f 211//216 210//204 191//217
f 210//204 209//202 176//189
f 191//217 210//204 178//191
f 178//191 192//205 190//218
f 211//216 178//191 190//218
f 170//180 214//219 171//196
f 193//206 179//181 172//147
f 172//147 181//183 216//220
f 215//182 237//221 137//157
f 237//221 194//209 137//157
f 219//197 158//159 173//199
f 173//199 184//198 220//222
f 182//211 197//223 183//210
f 184//198 196//212 222//224
f 199//225 223//226 196//212
f 183//210 199//225 196//212
f 183//210 197//223 199//225
f 187//213 197//223 198//227
f 198//227 197//223 182//211
f 199//225 200//228 223//226
f 187//213 198//227 185//215
f 198//227 202//229 185//215
f 198//227 203//230 202//229
f 200//228 187//213 139//163
f 197//223 187//213 200//228
f 202//229 201//231 185//215
f 185//215 201//231 203//230
f 202//229 203//230 327//232
f 327//232 203//230 201//231
f 206//233 203//230 204//234
f 226//235 203//230 328//236
f 328//236 205//237 226//235
f 187//213 174//185 139//163
f 186//214 185//215 206//233
f 206//233 185//215 203//230
f 200//228 139//163 207//238
f 206//233 189//203 186//214
f 256//239 207//238 208//240
f 208//240 207//238 209//202
f 209//202 207//238 139//163
f 209//202 229//241 208//240
f 211//216 329//242 210//204
f 212//243 329//242 211//216
f 213//244 177//190 189//203
f 213//244 211//216 190//218
f 177//190 213//244 192//205
f 172//147 216//220 193//206
f 170//180 180//207 214//219
f 171//196 214//219 232//245
f 193//206 234//246 180//207
f 180//207 236//247 214//219
f 180//207 234//246 236//247
f 181//183 219//197 216//220
f 194//209 218//248 195//208
f 194//209 237//221 218//248
f 241//249 195//208 218//248
f 182//211 195//208 221//250
f 241//249 221//250 195//208
f 220//222 219//197 173//199
f 198//227 182//211 221//250
f 245//251 250//252 221//250
f 220//222 184//198 222//224
f 250//252 253//253 221//250
f 330//254 223//226 200//228
f 222//224 196//212 223//226
f 330//254 200//228 225//255
f 205//237 203//230 198//227
f 221//250 205//237 198//227
f 205//237 331//256 227//257
f 253//253 205//237 221//250
f 227//257 331//256 332//258
f 225//255 200//228 207//238
f 204//234 272//259 206//233
f 227//257 226//235 205//237
f 228//260 224//261 204//234
f 225//255 207//238 255//262
f 257//263 189//203 206//233
f 256//239 208//240 258//264
f 213//244 189//203 261//265
f 261//265 189//203 257//263
f 229//241 209//202 210//204
f 229//241 210//204 230//266
f 231//267 230//266 329//242
f 329//242 212//243 231//267
f 211//216 213//244 262//268
f 232//245 215//182 171//196
f 232//245 214//219 233//269
f 234//246 193//206 216//220
f 214//219 236//247 233//269
f 238//270 235//271 216//220
f 234//246 217//272 236//247
f 263//273 217//272 234//246
f 217//272 233//269 236//247
f 217//272 239//274 233//269
f 263//273 265//275 217//272
f 265//275 240//276 217//272
f 215//182 239//274 237//221
f 238//270 216//220 219//197
f 217//272 240//276 239//274
f 239//274 266//277 237//221
f 334//278 266//277 241//249
f 334//278 237//221 266//277
f 240//276 265//275 243//279
f 222//224 243//279 242//280
f 246//281 240//276 243//279
f 240//276 246//281 244//282
f 247//283 241//249 266//277
f 241//249 248//284 335//285
f 245//251 221//250 241//249
f 335//285 245//251 241//249
f 220//222 222//224 265//275
f 246//281 243//279 222//224
f 222//224 251//286 246//281
f 252//287 247//283 244//282
f 241//249 247//283 249//288
f 249//288 335//285 248//284
f 249//288 250//252 335//285
f 251//286 222//224 223//226
f 251//286 330//254 225//255
f 225//255 246//281 251//286
f 247//283 252//287 249//288
f 249//288 252//287 250//252
f 252//287 270//289 250//252
f 271//290 250//252 270//289
f 204//234 224//261 254//291
f 272//259 204//234 273//292
f 255//262 207//238 256//239
f 206//233 276//293 257//263
f 290//294 257//263 276//293
f 258//264 208//240 229//241
f 258//264 229//241 259//295
f 230//266 231//267 229//241
f 260//296 229//241 231//267
f 231//267 283//297 336//298
f 284//299 283//297 231//267
f 213//244 261//265 262//268
f 231//267 211//216 284//299
f 284//299 211//216 262//268
f 215//182 233//269 239//274
f 263//273 333//300 265//275
f 239//274 240//276 264//301
f 333//300 220//222 265//275
f 239//274 264//301 266//277
f 240//276 244//282 264//301
f 222//224 242//280 265//275
f 266//277 264//301 244//282
f 246//281 267//302 244//282
f 266//277 244//282 247//283
f 253//253 250//252 268//303
f 274//304 268//303 250//252
f 246//281 225//255 285//305
f 246//281 269//306 267//302
f 246//281 285//305 269//306
f 244//282 269//306 252//287
f 271//290 270//289 272//259
f 271//290 273//292 250//252
f 204//234 254//291 273//292
f 273//292 274//304 250//252
f 275//307 337//308 339//309
f 338//310 340//311 254//291
f 275//307 339//309 273//292
f 254//291 275//307 273//292
f 338//310 254//291 224//261
f 285//305 225//255 255//262
f 270//289 286//312 276//293
f 206//233 272//259 276//293
f 270//289 276//293 272//259
f 255//262 277//313 285//305
f 342//314 276//293 286//312
f 278//315 279//316 256//239
f 278//315 288//317 281//318
f 280//319 256//239 281//318
f 288//317 280//319 281//318
f 282//320 280//319 287//321
f 280//319 282//320 256//239
f 256//239 282//320 255//262
f 282//320 277//313 255//262
f 258//264 278//315 256//239
f 262//268 287//321 284//299
f 282//320 287//321 262//268
f 261//265 293//322 262//268
f 269//306 286//312 252//287
f 291//323 286//312 269//306
f 286//312 270//289 252//287
f 294//324 285//305 277//313
f 278//315 341//325 288//317
f 292//326 342//314 286//312
f 262//268 277//313 282//320
f 289//327 277//313 262//268
f 262//268 293//322 289//327
f 293//322 261//265 257//263
f 293//322 295//328 289//327
f 300//329 293//322 257//263
f 285//305 294//324 269//306
f 269//306 294//324 291//323
f 291//323 294//324 297//330
f 298//331 291//323 297//330
f 286//312 343//332 292//326
f 294//324 277//313 295//328
f 342//314 292//326 299//333
f 299//333 257//263 290//294
f 296//334 293//322 300//329
f 298//331 297//330 302//335
f 301//336 294//324 295//328
f 292//326 303//337 299//333
f 304//338 301//336 295//328
f 295//328 296//334 304//338
f 295//328 293//322 296//334
f 299//333 300//329 257//263
f 301//336 302//335 297//330
f 302//335 303//337 298//331
f 302//335 299//333 303//337
f 304//338 296//334 300//329
f 304//338 302//335 301//336
f 302//335 304//338 300//329
f 300//329 299//333 302//335
