# Blender 4.0.2
# www.blender.org
mtllib thoracic4.mtl
o thoracic4.002
v -0.029125 0.013141 0.034249
v -0.029884 0.022841 0.032339
v -0.027707 0.011617 0.032996
v -0.031855 0.019565 0.034050
v -0.032357 0.021906 0.032708
v -0.032546 0.018968 0.034117
v -0.034565 0.015464 0.030981
v -0.031768 0.011277 0.032808
v -0.024229 0.018297 0.029090
v -0.027670 0.023286 0.029921
v -0.029835 0.024193 0.030125
v -0.033178 0.021129 0.029467
v -0.032583 0.021997 0.032834
v -0.030817 0.012044 0.025469
v -0.024174 0.013417 0.026222
v -0.026210 0.009903 0.024069
v -0.022861 0.018782 0.020560
v -0.029428 0.023251 0.024747
v -0.022462 0.016999 0.020779
v -0.023821 0.019268 0.017313
v -0.026088 0.019198 0.016492
v -0.022377 0.018783 0.018835
v -0.023015 0.005273 0.016143
v -0.024671 0.008278 0.017768
v -0.026457 0.003114 0.015680
v -0.026270 0.008213 0.017292
v -0.006906 0.016037 0.014487
v -0.002680 0.002830 0.013300
v -0.000999 0.000856 0.011720
v -0.018018 0.028330 0.015507
v -0.017956 0.029162 0.015337
v -0.013803 0.004532 0.014202
v -0.009387 0.001888 0.013129
v -0.020675 0.019101 0.015451
v -0.021797 0.019798 0.015612
v -0.021092 0.014328 0.015184
v -0.022055 0.011901 0.013225
v -0.026060 0.019151 0.016434
v -0.027683 0.015661 0.016907
v -0.024083 0.003204 0.015501
v -0.024151 0.002838 0.015482
v -0.026931 -0.000646 0.011975
v -0.002891 0.017849 0.013256
v 0.002248 0.015878 0.011851
v -0.007110 0.019632 0.011399
v 0.000068 0.009485 0.011389
v -0.006617 0.011614 0.012893
v -0.012291 0.021221 0.012175
v -0.017782 0.031092 0.014153
v -0.017592 0.031101 0.014216
v -0.015105 0.022535 0.011573
v -0.012947 0.012083 0.012653
v -0.017321 0.019311 0.011658
v -0.020517 0.021512 0.014303
v -0.023044 0.019708 0.011461
v -0.015079 0.009821 0.011503
v -0.019533 0.014771 0.013763
v -0.019151 0.012293 0.012047
v -0.022013 0.020218 0.014487
v -0.016047 0.002243 0.011351
v -0.027128 0.015059 0.010765
v -0.026501 -0.000871 0.012131
v -0.027282 -0.001788 0.009753
v 0.010250 0.018070 0.006974
v 0.004498 0.018404 0.009597
v 0.005612 0.000839 0.009213
v 0.009050 0.000320 0.006595
v -0.010863 0.022218 0.010219
v -0.013301 0.023362 0.009754
v -0.014382 0.023772 0.011022
v -0.014582 0.024393 0.010019
v -0.014408 0.023765 0.011012
v -0.015928 0.026496 0.010136
v -0.017767 0.032614 0.009833
v -0.018222 0.032538 0.010813
v -0.018286 0.031876 0.009731
v -0.014979 0.022476 0.011838
v -0.015343 0.018792 0.011702
v -0.016218 0.009980 0.010100
v -0.017368 0.011872 0.008167
v -0.016005 0.009683 0.007826
v -0.013470 0.001166 0.007166
v -0.021129 0.012363 0.007565
v -0.026094 0.006876 0.009428
v -0.031329 0.006921 0.007394
v -0.027301 -0.001773 0.009751
v -0.027940 -0.002055 0.007999
v -0.028775 -0.001887 0.008016
v -0.029647 -0.000443 0.008722
v -0.032303 0.001840 0.007396
v -0.030399 -0.000276 0.008221
v 0.010294 0.019099 0.006088
v 0.011172 0.001411 0.004596
v 0.008063 0.010235 0.006666
v 0.009836 0.000486 0.005359
v -0.010059 0.021201 0.006329
v -0.015959 0.024285 0.008607
v -0.018536 0.032349 0.007982
v -0.019127 0.031280 0.007249
v -0.020036 0.029822 0.006624
v -0.005401 0.001827 0.004412
v -0.016121 0.016997 0.006869
v -0.011926 0.019667 0.006215
v -0.011750 0.000859 0.005298
v -0.025301 0.011062 0.004098
v -0.027381 0.001132 0.006822
v -0.027613 -0.001852 0.008691
v -0.027902 -0.001720 0.006914
v -0.029042 -0.000921 0.007037
v -0.029305 -0.001113 0.007414
v -0.029689 -0.001150 0.007074
v -0.030986 -0.001348 0.007101
v -0.030016 -0.001478 0.006716
v 0.012552 0.018490 0.002848
v 0.013060 0.002410 -0.000186
v -0.009016 0.020287 0.003740
v -0.010162 0.021501 0.006275
v -0.019992 0.029773 0.006588
v -0.021777 0.023731 0.005146
v -0.021590 0.024752 0.005354
v -0.011413 0.000949 0.004974
v -0.009986 0.002415 0.000041
v -0.021427 0.017549 0.005638
v -0.023886 0.019903 0.003758
v -0.023755 0.020486 0.003764
v -0.027813 0.016000 0.005751
v -0.027787 0.006158 0.005345
v -0.032221 0.010735 0.003811
v -0.034896 -0.005593 0.003738
v -0.045475 -0.002998 0.000499
v -0.042090 -0.013858 0.002071
v 0.013074 0.017626 -0.000848
v 0.012170 0.000726 -0.003343
v -0.008391 0.019181 0.000471
v -0.010592 0.001795 -0.002928
v -0.010671 0.005654 -0.002088
v -0.025666 0.014424 0.001191
v -0.025155 0.016383 0.002325
v -0.026692 0.016119 0.001330
v -0.025744 0.015520 0.001584
v -0.025893 0.017025 0.003114
v -0.027199 0.016500 0.002064
v -0.039839 0.005740 0.000386
v -0.038071 -0.009500 0.001786
v -0.041704 -0.016219 0.000677
v -0.042468 -0.017051 -0.001119
v -0.042118 -0.016655 0.000633
v -0.047267 -0.018825 -0.000784
v -0.049178 -0.018503 0.000532
v -0.047467 -0.018816 0.000622
v -0.051320 -0.011494 0.000778
v -0.048704 -0.018928 -0.001131
v -0.024670 0.016055 -0.003500
v -0.025853 0.015095 -0.001730
v -0.026561 0.016237 -0.002419
v -0.026041 0.014283 -0.000155
v -0.027041 0.016085 -0.000402
v -0.027900 0.016464 -0.000283
v -0.025382 0.012018 -0.003324
v -0.030475 -0.002405 -0.007120
v -0.039136 0.006343 -0.001358
v -0.039849 0.005871 0.000423
v -0.042805 -0.002357 -0.002559
v -0.038147 -0.009640 -0.002439
v -0.038040 -0.009855 -0.002667
v -0.041869 -0.016072 -0.001765
v -0.051743 -0.010776 -0.000819
v -0.041862 -0.016240 -0.001887
v -0.051504 -0.012753 -0.000848
v -0.051449 -0.010660 -0.000627
v 0.012113 0.018661 -0.004403
v 0.010446 0.019297 -0.005763
v 0.011809 0.018706 -0.004569
v 0.010611 0.005527 -0.005162
v 0.010362 0.000275 -0.005419
v 0.008526 0.000369 -0.007923
v -0.009148 0.020003 -0.004144
v -0.014777 0.005303 -0.007207
v -0.013676 0.000903 -0.009668
v -0.013029 0.001540 -0.006227
v -0.025380 0.017029 -0.003419
v -0.027503 0.016406 -0.002815
v -0.026700 0.008999 -0.005593
v -0.035741 -0.005523 -0.004714
v 0.009767 0.018252 -0.007671
v 0.002984 0.018192 -0.011911
v 0.008584 0.000484 -0.007585
v -0.012177 0.022228 -0.008426
v -0.020868 0.024712 -0.006167
v -0.006722 0.001780 -0.008759
v -0.019709 0.014221 -0.007977
v -0.022006 0.024339 -0.006296
v -0.016228 0.010222 -0.008833
v -0.016450 0.011326 -0.008920
v -0.022318 0.022182 -0.005262
v -0.025287 0.017099 -0.003492
v -0.023259 0.021926 -0.007154
v -0.016228 0.002548 -0.012014
v -0.026420 0.008094 -0.007074
v -0.027901 -0.001669 -0.007630
v -0.028924 -0.000957 -0.008157
v -0.029131 -0.000924 -0.007599
v -0.028155 -0.002110 -0.008345
v -0.028851 -0.001420 -0.008088
v -0.028088 -0.002396 -0.008534
v -0.027996 -0.001534 -0.009000
v -0.029417 -0.001402 -0.008118
v -0.029376 -0.000866 -0.007782
v -0.032639 0.008577 -0.005911
v -0.029214 -0.000682 -0.007843
v -0.030174 -0.000852 -0.008448
v -0.032037 0.002186 -0.008340
v 0.001428 0.007980 -0.011422
v -0.010835 0.022296 -0.010092
v -0.000778 0.000937 -0.012534
v -0.002115 0.002813 -0.013793
v -0.014110 0.022818 -0.009135
v -0.018930 0.031723 -0.008195
v -0.019522 0.031486 -0.008116
v -0.015117 0.019839 -0.007873
v -0.016820 0.026353 -0.009357
v -0.016200 0.009911 -0.011119
v -0.016840 0.010981 -0.009264
v -0.019711 0.011850 -0.010965
v -0.020730 0.012237 -0.008779
v -0.022624 0.011679 -0.007997
v -0.026472 0.016059 -0.011570
v -0.027792 -0.001754 -0.009523
v -0.027867 -0.001912 -0.009337
v -0.027078 -0.001627 -0.010301
v -0.027217 -0.001693 -0.010748
v -0.005801 0.019457 -0.011220
v -0.006138 0.011695 -0.013707
v -0.013778 0.023643 -0.011190
v -0.013209 0.022327 -0.012193
v -0.015762 0.026103 -0.010924
v -0.017785 0.032856 -0.012143
v -0.018106 0.031750 -0.014186
v -0.019054 0.031903 -0.008641
v -0.013242 0.022354 -0.012216
v -0.015390 0.023206 -0.012475
v -0.015944 0.025415 -0.012900
v -0.011544 0.011348 -0.013448
v -0.017338 0.018964 -0.012327
v -0.014018 0.003777 -0.014888
v -0.014884 0.008311 -0.012516
v -0.015068 0.010197 -0.012415
v -0.017073 0.012658 -0.013181
v -0.020191 0.014294 -0.014849
v -0.022450 0.010862 -0.014139
v -0.027277 0.011791 -0.013913
v -0.026395 0.000381 -0.013978
v -0.026564 -0.000114 -0.013930
v -0.008321 0.018702 -0.014029
v -0.007491 0.016343 -0.015202
v -0.017321 0.030457 -0.015357
v -0.017543 0.030609 -0.015516
v -0.020198 0.023388 -0.015073
v -0.020277 0.023154 -0.015178
v -0.020560 0.020098 -0.015416
v -0.021058 0.021017 -0.014941
v -0.022207 0.019525 -0.017164
v -0.023337 0.003830 -0.017069
v -0.023695 0.008860 -0.017547
v -0.025849 0.007625 -0.018063
v -0.017757 0.028214 -0.016408
v -0.018474 0.026652 -0.016095
v -0.027305 0.018503 -0.017540
v -0.024996 0.007939 -0.018448
v -0.026406 0.008922 -0.020320
v -0.022258 0.018482 -0.020647
v -0.028589 0.021214 -0.022420
v -0.026347 0.009392 -0.021322
v -0.028744 0.011535 -0.023091
v -0.034705 0.016497 -0.031655
v -0.025892 0.013058 -0.032626
v -0.029612 0.024650 -0.030799
v -0.033375 0.012884 -0.030460
v -0.027941 0.023405 -0.031796
v -0.024715 0.016577 -0.030717
v -0.032468 0.019198 -0.035059
v -0.033326 0.021444 -0.032031
v -0.028221 0.011409 -0.033748
v -0.031476 0.011002 -0.033390
v -0.032532 0.020907 -0.034385
v -0.030498 0.013524 -0.035353
v -0.032565 0.019228 -0.035051
v -0.029884 0.022841 0.032339
v -0.029884 0.022841 0.032339
v -0.029884 0.022841 0.032339
v -0.022377 0.018783 0.018835
v -0.020675 0.019101 0.015451
v -0.021092 0.014328 0.015184
v -0.023816 0.019469 0.017202
v 0.001233 0.018348 0.011531
v -0.017725 0.031029 0.014112
v -0.021029 0.020805 0.014527
v -0.017486 0.032181 0.011441
v -0.014979 0.022476 0.011838
v -0.029647 -0.000443 0.008722
v -0.030399 -0.000276 0.008221
v -0.030399 -0.000276 0.008221
v -0.018019 0.032521 0.009689
v -0.027381 0.001132 0.006822
v -0.029305 -0.001113 0.007414
v -0.029305 -0.001113 0.007414
v -0.029308 -0.001080 0.007410
v -0.029677 -0.001215 0.006952
v -0.027750 0.005705 0.005442
v -0.025155 0.016383 0.002325
v -0.025744 0.015520 0.001584
v -0.025893 0.017025 0.003114
v -0.025893 0.017025 0.003114
v -0.025893 0.017025 0.003114
v -0.027199 0.016500 0.002064
v -0.042468 -0.017051 -0.001119
v -0.043729 -0.017708 0.000630
v -0.047255 -0.018833 -0.000782
v -0.010498 0.001979 -0.003072
v -0.025853 0.015095 -0.001730
v -0.026041 0.014283 -0.000155
v -0.026041 0.014283 -0.000155
v -0.027041 0.016085 -0.000402
v -0.027839 0.016364 -0.000224
v -0.039113 0.006327 -0.001349
v -0.026555 0.016247 -0.002420
v -0.024397 0.016013 -0.003327
v -0.024397 0.016013 -0.003327
v -0.025380 0.017029 -0.003419
v -0.034861 -0.005304 -0.004636
v -0.022318 0.022182 -0.005262
v -0.019689 0.014136 -0.007705
v -0.027792 -0.001937 -0.007830
v -0.028772 -0.000991 -0.007788
v -0.029240 -0.001009 -0.008369
v -0.027716 -0.001483 -0.008969
v -0.032086 -0.003514 -0.006397
v -0.014110 0.022818 -0.009135
v -0.014110 0.022818 -0.009135
v -0.014110 0.022818 -0.009135
v -0.016840 0.010981 -0.009264
v -0.019483 0.012223 -0.009092
v -0.022624 0.011679 -0.007997
v -0.013778 0.023643 -0.011190
v -0.013778 0.023643 -0.011190
v -0.013778 0.023643 -0.011190
v -0.013778 0.023643 -0.011190
v -0.015762 0.026103 -0.010924
v -0.017987 0.031918 -0.011564
v -0.017980 0.032813 -0.012052
v -0.015944 0.025415 -0.012900
v -0.015068 0.010197 -0.012415
v -0.017875 0.032523 -0.012450
v -0.017393 0.030199 -0.014883
v -0.017807 0.031144 -0.014563
v -0.017468 0.030336 -0.015179
v -0.024994 0.007946 -0.018453
vn 0.1144 0.2961 0.9483
vn 0.8680 0.1941 0.4570
vn 0.5954 0.1813 0.7827
vn 0.5110 -0.6074 0.6082
vn 0.2118 -0.1711 0.9622
vn -0.0837 0.4819 0.8722
vn -0.5284 0.1087 0.8420
vn -0.0544 0.4877 0.8713
vn -0.0974 0.9885 0.1152
vn -0.8044 0.5619 0.1928
vn -0.1698 0.8427 0.5110
vn -0.4941 -0.7351 0.4643
vn 0.2462 -0.9312 0.2688
vn -0.9824 -0.1740 0.0681
vn 0.8969 -0.3539 0.2650
vn 0.6105 0.7382 0.2871
vn 0.3759 0.7871 0.4890
vn -0.8819 0.4179 -0.2185
vn -0.2687 0.8816 -0.3881
vn -0.7868 -0.5384 -0.3018
vn 0.1304 0.9851 -0.1124
vn -0.4758 0.8153 -0.3300
vn 0.9706 -0.0265 0.2392
vn 0.8195 0.5623 0.1108
vn -0.8204 -0.4697 0.3261
vn 0.5549 -0.5199 0.6495
vn -0.9703 0.1519 -0.1884
vn 0.7107 0.5750 0.4054
vn 0.2502 0.9656 0.0707
vn 0.6580 0.3290 0.6774
vn 0.7265 -0.5289 0.4387
vn 0.9546 -0.0991 0.2811
vn -0.8993 0.4153 0.1370
vn -0.4490 -0.3882 0.8048
vn 0.0842 -0.4744 0.8763
vn 0.8348 -0.3791 0.3993
vn 0.2246 0.5011 0.8357
vn 0.0108 0.0458 0.9989
vn 0.4241 0.0718 0.9028
vn 0.2183 -0.2168 0.9515
vn 0.3827 -0.0332 0.9233
vn 0.0726 -0.1184 0.9903
vn -0.1568 -0.0036 0.9876
vn -0.3873 -0.1576 0.9084
vn -0.8550 0.2828 0.4347
vn -0.0844 0.2513 0.9642
vn -0.0130 0.1215 0.9925
vn -0.0344 -0.7937 0.6074
vn 0.1022 -0.8622 0.4962
vn 0.2198 0.8399 0.4963
vn 0.0959 0.9435 0.3170
vn -0.4695 0.8612 0.1947
vn -0.7780 0.6237 0.0747
vn -0.3732 0.5765 0.7269
vn 0.6857 -0.1002 0.7209
vn 0.4925 -0.2418 0.8361
vn 0.7629 -0.6042 0.2303
vn -0.1242 0.8155 -0.5652
vn 0.8842 -0.2260 -0.4088
vn 0.8704 -0.3630 -0.3326
vn -0.6888 -0.4823 0.5412
vn 0.6863 0.1692 0.7074
vn 0.1397 0.9398 0.3119
vn 0.2989 0.9386 0.1720
vn 0.4212 -0.5183 0.7443
vn 0.0821 0.4451 0.8917
vn 0.4722 0.8516 0.2277
vn -0.0376 -0.9989 -0.0280
vn 0.9380 0.2560 0.2337
vn 0.8122 0.4309 0.3934
vn 0.5134 -0.1988 0.8348
vn -0.1017 0.0837 0.9913
vn 0.3780 0.0097 0.9257
vn -0.8894 0.3385 0.3071
vn -0.5967 -0.1368 0.7907
vn -0.7741 -0.5887 0.2326
vn 0.0861 -0.9935 0.0751
vn -0.0780 -0.8300 0.5523
vn -0.8321 -0.5285 0.1683
vn 0.4309 -0.6829 -0.5899
vn -0.7426 0.2497 0.6215
vn 0.8825 -0.4564 -0.1137
vn 0.9367 -0.1758 -0.3029
vn -0.5535 -0.8327 0.0133
vn -0.4486 -0.7820 0.4327
vn -0.6096 -0.1099 0.7851
vn -0.6610 -0.5274 0.5338
vn 0.6010 -0.0458 0.7979
vn 0.2801 0.7788 0.5613
vn 0.2853 0.9475 -0.1444
vn -0.1349 -0.0232 0.9906
vn 0.2517 0.5622 0.7877
vn 0.1200 0.4888 0.8641
vn 0.4500 0.8539 -0.2614
vn 0.7653 0.5961 0.2429
vn 0.8796 0.3834 -0.2817
vn 0.4777 0.3264 -0.8156
vn 0.9393 0.2719 -0.2092
vn -0.7200 0.6583 0.2195
vn 0.7163 -0.6402 -0.2775
vn -0.0040 -0.9996 -0.0266
vn -0.8539 -0.1392 -0.5014
vn -0.2414 -0.4529 -0.8582
vn -0.4503 -0.8902 -0.0695
vn 0.8416 -0.4214 -0.3378
vn 0.9512 -0.2223 -0.2142
vn 0.2359 -0.9673 -0.0927
vn -0.6117 -0.2588 0.7476
vn -0.3236 -0.8665 0.3800
vn -0.3957 -0.8403 0.3706
vn -0.4272 -0.8269 0.3656
vn -0.1802 -0.5662 0.8043
vn 0.1504 -0.7291 0.6677
vn 0.1498 -0.7522 0.6417
vn 0.3948 0.8418 0.3680
vn 0.7899 -0.4068 0.4589
vn 0.5336 -0.7615 0.3680
vn 0.4224 0.8945 -0.1465
vn -0.5753 0.5725 -0.5842
vn -0.5137 0.3655 -0.7762
vn 0.7893 0.2044 -0.5789
vn -0.8764 0.4573 0.1510
vn -0.6094 0.7835 -0.1219
vn -0.8400 0.5421 0.0219
vn -0.9214 0.3729 0.1095
vn 0.0060 -0.0319 -0.9995
vn 0.5468 0.0957 -0.8318
vn -0.9403 0.3361 0.0538
vn 0.5156 -0.1035 -0.8505
vn -0.1539 -0.9582 -0.2413
vn -0.8294 0.5545 0.0678
vn -0.9532 0.2791 -0.1163
vn -0.7248 0.6790 0.1166
vn -0.7203 0.5567 0.4139
vn 0.9383 -0.2984 -0.1746
vn 0.9715 -0.1365 -0.1936
vn 0.3346 -0.5978 -0.7285
vn -0.8430 -0.5352 0.0537
vn -0.2569 -0.8858 0.3865
vn 0.3246 -0.7290 -0.6027
vn -0.3506 -0.7126 -0.6077
vn 0.1540 -0.2252 -0.9621
vn 0.2085 -0.2671 -0.9409
vn 0.4996 -0.8661 -0.0134
vn 0.5354 -0.8440 0.0319
vn 0.2774 -0.6923 0.6661
vn 0.8060 0.5285 0.2666
vn 0.3143 0.9047 -0.2876
vn 0.9602 -0.2778 0.0282
vn -0.6135 0.7823 -0.1076
vn 0.5080 0.0398 -0.8604
vn 0.5248 0.0864 -0.8468
vn 0.9072 -0.0319 -0.4195
vn -0.7667 0.5390 -0.3488
vn 0.8259 -0.5591 0.0728
vn -0.5304 0.2703 0.8035
vn -0.8340 0.4276 0.3486
vn -0.6223 -0.1022 0.7760
vn 0.7840 -0.6129 0.0983
vn 0.1423 -0.2267 0.9635
vn -0.7165 0.0917 0.6916
vn 0.3544 -0.4317 0.8294
vn 0.7784 0.0186 -0.6275
vn 0.9574 0.2744 -0.0900
vn -0.8803 0.0228 0.4738
vn -0.0369 -0.9991 0.0185
vn -0.3712 0.6708 -0.6420
vn 0.1183 0.8215 -0.5578
vn 0.2195 0.9091 -0.3539
vn 0.4986 0.7845 -0.3688
vn 0.5179 0.4306 -0.7391
vn 0.7709 0.5428 -0.3333
vn 0.9972 0.0741 0.0081
vn 0.9448 0.1682 -0.2810
vn -0.4103 0.9103 0.0551
vn -0.3387 0.9382 0.0708
vn -0.7188 0.6937 -0.0468
vn -0.4224 0.4682 -0.7761
vn 0.9293 -0.2674 0.2547
vn 0.6313 -0.7740 0.0489
vn 0.8564 -0.5150 -0.0362
vn 0.6984 -0.7149 0.0343
vn 0.1563 -0.4039 0.9014
vn 0.0610 -0.7787 0.6245
vn 0.2262 -0.9730 0.0459
vn -0.5929 -0.5920 0.5459
vn 0.2110 -0.6965 -0.6858
vn -0.3837 -0.7205 -0.5776
vn 0.2275 -0.7517 -0.6191
vn -0.8143 -0.1859 -0.5499
vn -0.7827 0.3706 0.5001
vn 0.4526 0.8915 -0.0194
vn 0.3561 0.5995 -0.7168
vn -0.3351 0.8389 0.4288
vn 0.0247 -0.9872 0.1578
vn 0.3855 -0.9049 -0.1803
vn 0.1603 -0.8191 -0.5508
vn -0.8683 -0.1660 0.4675
vn 0.8699 0.4575 -0.1845
vn 0.7819 0.5536 0.2867
vn 0.5133 0.8500 0.1182
vn 0.7985 0.4909 0.3484
vn 0.2455 0.9132 0.3254
vn 0.9021 -0.1412 0.4078
vn 0.2999 0.9537 -0.0248
vn -0.5560 0.8267 0.0864
vn 0.8743 -0.4453 0.1931
vn -0.6028 0.6240 -0.4973
vn -0.4733 0.1917 -0.8598
vn -0.1801 0.1829 -0.9665
vn 0.4666 -0.8156 -0.3422
vn 0.8314 -0.5557 0.0008
vn -0.1911 -0.1327 -0.9725
vn -0.1286 -0.4117 -0.9022
vn -0.4713 0.1797 -0.8635
vn -0.0408 -0.2208 -0.9745
vn 0.8860 0.0159 -0.4634
vn 0.6051 0.3344 -0.7225
vn 0.5245 -0.6297 -0.5730
vn 0.2425 0.9498 -0.1975
vn -0.8339 -0.1085 0.5412
vn -0.5947 -0.6735 0.4391
vn -0.3182 -0.9475 -0.0326
vn 0.1052 -0.3583 0.9277
vn 0.4736 -0.5486 0.6890
vn 0.5016 -0.4193 0.7567
vn 0.3468 0.5674 0.7468
vn 0.2788 0.3998 0.8732
vn 0.2439 0.6034 0.7592
vn 0.4756 0.2625 0.8396
vn 0.0336 0.6344 0.7723
vn 0.8501 -0.1276 0.5109
vn 0.5493 -0.5902 0.5915
vn -0.7439 0.4214 -0.5187
vn -0.3794 -0.7052 -0.5989
vn -0.0071 -0.6071 -0.7946
vn -0.6777 -0.0502 -0.7337
vn 0.4484 0.0076 -0.8938
vn -0.0574 -0.9982 0.0174
vn 0.4093 0.9087 0.0820
vn -0.0090 0.8424 0.5388
vn 0.3538 -0.1439 0.9242
vn -0.4712 -0.2337 0.8505
vn -0.6391 0.6457 0.4178
vn -0.6423 0.4495 0.6209
vn 0.1683 0.2262 0.9594
vn -0.8765 0.4776 -0.0610
vn 0.6737 -0.0322 0.7383
vn 0.1339 0.2648 0.9550
vn -0.8008 0.4940 0.3385
vn -0.2559 0.4478 0.8567
vn -0.8063 -0.5337 -0.2551
vn -0.8990 -0.2531 0.3574
vn 0.3354 -0.7437 0.5783
vn 0.8250 -0.4098 0.3891
vn -0.8578 0.5108 -0.0569
vn 0.2501 -0.2500 0.9354
vn 0.0609 -0.1182 0.9911
vn 0.2342 -0.5592 0.7953
vn -0.4566 -0.6449 0.6129
vn -0.5711 -0.8096 0.1353
vn -0.2971 -0.3095 0.9033
vn -0.5459 -0.6998 0.4607
vn -0.4041 -0.7683 0.4963
vn -0.2302 -0.5450 0.8062
vn 0.9454 -0.2426 0.2175
vn -0.0617 -0.4541 0.8888
vn 0.9239 -0.3693 -0.1001
vn 0.4904 -0.8713 -0.0169
vn -0.4694 -0.8041 -0.3650
vn 0.2392 -0.1904 -0.9521
vn -0.1893 0.4366 0.8795
vn 0.2428 0.9107 0.3342
vn 0.6864 0.3054 0.6600
vn 0.8865 0.3823 0.2606
vn 0.3173 0.7531 0.5764
vn -0.8854 0.3287 -0.3285
vn -0.7629 0.6293 -0.1479
vn 0.4513 0.2859 0.8453
vn -0.6273 -0.0649 0.7760
vn -0.0486 -0.9944 -0.0941
vn -0.5178 -0.0380 0.8547
vn -0.1266 -0.9698 0.2084
vn -0.8105 -0.4265 -0.4016
vn -0.0824 -0.3652 -0.9273
vn -0.6108 0.5655 -0.5542
vn 0.8659 -0.4839 -0.1271
vn -0.9744 0.1105 -0.1956
vn 0.6313 -0.5117 -0.5827
vn -0.6466 -0.4632 -0.6061
vn 0.6006 -0.7533 0.2680
vn 0.7020 -0.5895 0.3996
vn -0.5352 -0.7329 -0.4199
vn 0.5180 -0.7875 -0.3338
vn -0.6599 -0.3917 -0.6412
vn 0.1587 0.6262 -0.7633
vn 0.0339 0.0906 -0.9953
vn 0.1090 -0.1122 -0.9877
vn 0.3492 0.6741 -0.6509
vn -0.3676 -0.3121 -0.8761
vn -0.0833 0.1583 -0.9839
vn 0.4585 0.8749 -0.1557
vn 0.4429 0.5135 -0.7350
vn 0.2562 0.8820 0.3955
vn 0.7319 0.5832 0.3524
vn 0.7322 0.5753 0.3646
vn 0.7313 0.6204 -0.2834
vn 0.9380 0.3092 0.1565
vn -0.3766 0.9249 -0.0520
vn -0.8864 0.4332 -0.1635
vn -0.1756 0.0140 -0.9844
vn 0.4723 -0.0334 -0.8808
vn 0.2960 0.0070 -0.9551
vn 0.4578 -0.2307 -0.8586
vn 0.9220 0.1447 -0.3591
vn -0.4941 0.2468 -0.8337
vn -0.7487 -0.0376 -0.6619
vn -0.3207 -0.3321 -0.8871
vn 0.6445 -0.3586 -0.6753
vn 0.6341 0.2562 -0.7296
vn -0.9007 0.2805 -0.3317
vn 0.0464 -0.4210 -0.9059
vn 0.9596 0.1825 -0.2140
vn 0.8060 -0.1074 -0.5821
vn 0.8433 0.4621 -0.2744
vn -0.8031 0.2588 -0.5367
vn -0.7844 0.2663 -0.5602
vn 0.0197 0.9501 -0.3114
vn -0.7439 0.5393 0.3946
vn 0.8766 -0.2158 -0.4302
vn -0.8123 -0.5832 0.0068
vn 0.8794 0.3919 -0.2702
vn -0.3952 0.8050 0.4426
vn 0.3617 -0.6883 -0.6289
vn -0.1783 -0.9486 -0.2614
vn 0.7650 -0.2318 -0.6009
vn -0.8588 -0.3771 0.3468
vn -0.9960 -0.0597 -0.0668
vn 0.5465 0.6141 -0.5694
vn -0.0999 0.9875 -0.1217
vn -0.8470 0.5313 -0.0203
vn 0.3719 -0.6792 -0.6327
vn -0.8629 -0.4811 0.1549
vn 0.8642 0.0989 -0.4933
vn 0.2415 0.1603 -0.9571
vn -0.2925 0.5205 -0.8022
vn -0.4482 -0.7767 -0.4425
vn -0.0721 -0.1650 -0.9837
vn -0.7258 0.0219 -0.6876
s 1
usemtl mtl1.1079
f 4//1 9//2 2//3
f 3//4 9//2 1//5
f 5//6 6//7 4//1
f 4//1 288//8 5//6
f 11//9 13//10 289//11
f 1//5 8//12 3//4
f 16//13 3//4 8//12
f 1//5 4//1 6//7
f 6//7 13//10 7//14
f 6//7 8//12 1//5
f 7//14 8//12 6//7
f 15//15 9//2 3//4
f 1//5 9//2 4//1
f 9//2 10//16 2//3
f 10//16 11//9 290//17
f 15//15 3//4 16//13
f 12//18 13//10 11//9
f 18//19 12//18 11//9
f 13//10 12//18 7//14
f 14//20 8//12 7//14
f 20//21 11//9 10//16
f 11//9 20//21 18//19
f 8//12 14//20 16//13
f 21//22 7//14 12//18
f 18//19 21//22 12//18
f 21//22 14//20 7//14
f 9//2 15//15 19//23
f 9//2 17//24 10//16
f 26//25 16//13 14//20
f 9//2 19//23 17//24
f 17//24 20//21 10//16
f 15//15 24//26 19//23
f 18//19 20//21 21//22
f 26//25 24//26 16//13
f 15//15 16//13 24//26
f 39//27 14//20 21//22
f 14//20 39//27 26//25
f 22//28 17//24 19//23
f 17//24 291//29 20//21
f 34//30 22//28 19//23
f 19//23 36//31 292//32
f 61//33 39//27 21//22
f 25//34 40//35 23//36
f 23//36 24//26 25//34
f 24//26 26//25 25//34
f 43//37 27//38 44//39
f 28//40 46//41 47//42
f 47//42 27//38 52//43
f 47//42 32//44 28//40
f 31//45 54//46 30//47
f 28//40 32//44 33//48
f 28//40 33//48 29//49
f 35//50 22//28 34//30
f 294//51 22//28 35//50
f 35//50 59//52 294//51
f 59//52 55//53 20//21
f 34//30 54//46 35//50
f 35//50 297//54 59//52
f 34//30 293//55 57//56
f 57//56 36//31 37//57
f 21//22 20//21 55//53
f 38//58 55//53 61//33
f 37//57 19//23 24//26
f 36//31 19//23 37//57
f 38//58 61//33 21//22
f 23//36 41//59 84//60
f 24//26 23//36 37//57
f 23//36 84//60 37//57
f 39//27 61//33 26//25
f 25//34 42//61 40//35
f 64//62 43//37 44//39
f 295//63 45//64 43//37
f 46//41 28//40 66//65
f 27//38 46//41 44//39
f 47//42 46//41 27//38
f 45//64 48//66 43//37
f 43//37 48//66 27//38
f 48//66 45//64 68//67
f 29//49 66//65 28//40
f 66//65 29//49 67//68
f 50//69 30//47 72//70
f 30//47 51//71 72//70
f 27//38 78//72 52//43
f 48//66 78//72 27//38
f 53//73 78//72 51//71
f 30//47 54//46 51//71
f 55//53 31//45 49//74
f 32//44 52//43 56//75
f 47//42 52//43 32//44
f 53//73 57//56 52//43
f 78//72 53//73 52//43
f 54//46 53//73 51//71
f 54//46 31//45 55//53
f 60//76 104//77 33//48
f 56//75 52//43 58//78
f 58//78 52//43 57//56
f 34//30 57//56 53//73
f 34//30 53//73 54//46
f 54//46 59//52 297//54
f 54//46 55//53 59//52
f 60//76 33//48 32//44
f 32//44 56//75 79//79
f 60//76 32//44 79//79
f 56//75 58//78 79//79
f 37//57 83//80 58//78
f 57//56 37//57 58//78
f 25//34 26//25 61//33
f 85//81 25//34 61//33
f 41//59 62//82 63//83
f 41//59 63//83 84//60
f 42//61 88//84 86//85
f 88//84 42//61 25//34
f 25//34 90//86 89//87
f 89//87 88//84 25//34
f 25//34 85//81 90//86
f 94//88 64//62 44//39
f 64//62 65//89 43//37
f 94//88 44//39 46//41
f 45//64 295//63 65//89
f 45//64 65//89 116//90
f 66//65 94//88 46//41
f 48//66 77//91 78//72
f 68//67 70//92 48//66
f 299//93 48//66 70//92
f 69//94 72//70 68//67
f 69//94 71//95 72//70
f 71//95 73//96 72//70
f 97//97 73//96 69//94
f 72//70 73//96 50//69
f 73//96 74//98 50//69
f 296//99 298//99 76//99
f 133//100 67//68 29//49
f 101//101 133//100 29//49
f 33//48 101//101 29//49
f 101//101 33//48 104//77
f 81//102 79//79 80//103
f 82//104 104//77 60//76
f 81//102 60//76 79//79
f 79//79 83//80 80//103
f 79//79 58//78 83//80
f 83//80 37//57 84//60
f 105//105 83//80 84//60
f 84//60 63//83 107//106
f 86//85 88//84 87//107
f 91//108 89//87 90//86
f 111//109 300//110 301//111
f 112//112 308//113 302//114
f 92//115 65//89 64//62
f 66//65 93//116 94//88
f 66//65 95//117 93//116
f 116//90 68//67 45//64
f 96//118 69//94 68//67
f 69//94 117//119 103//120
f 97//97 98//121 73//96
f 49//74 75//122 55//53
f 73//96 98//121 74//98
f 303//123 99//124 75//122
f 55//53 75//122 100//125
f 99//124 100//125 75//122
f 97//97 69//94 103//120
f 97//97 103//120 102//126
f 118//127 98//121 97//97
f 100//125 120//128 55//53
f 102//126 81//102 80//103
f 103//120 81//102 102//126
f 97//97 102//126 123//129
f 101//101 104//77 121//130
f 80//103 83//80 102//126
f 123//129 102//126 83//80
f 55//53 125//131 61//33
f 120//128 125//131 55//53
f 122//132 121//130 82//104
f 60//76 81//102 82//104
f 126//133 61//33 125//131
f 128//134 61//33 126//133
f 84//60 127//135 105//105
f 85//81 61//33 128//134
f 107//106 106//136 84//60
f 106//136 127//135 84//60
f 87//107 108//137 107//106
f 87//107 88//84 108//137
f 89//87 110//138 88//84
f 300//110 111//109 305//139
f 109//140 108//137 88//84
f 88//84 306//141 109//140
f 107//106 108//137 106//136
f 108//137 109//140 304//142
f 304//142 109//140 309//143
f 90//86 112//112 91//108
f 109//140 307//144 113//145
f 112//112 90//86 129//146
f 112//112 129//146 308//113
f 92//115 64//62 114//147
f 114//147 64//62 94//88
f 172//148 65//89 92//115
f 172//148 92//115 114//147
f 114//147 94//88 93//116
f 114//147 93//116 115//149
f 93//116 95//117 115//149
f 133//100 95//117 67//68
f 116//90 96//118 68//67
f 117//119 134//150 103//120
f 118//127 97//97 119//151
f 81//102 122//132 82//104
f 103//120 122//132 81//102
f 124//152 97//97 123//129
f 124//152 123//129 137//153
f 97//97 124//152 119//151
f 123//129 83//80 105//105
f 141//154 126//133 125//131
f 160//155 113//145 129//146
f 160//155 109//140 113//145
f 130//156 90//86 85//81
f 85//81 143//157 130//156
f 143//157 85//81 162//158
f 144//159 129//146 131//160
f 90//86 130//156 129//146
f 130//156 131//160 129//146
f 131//160 130//156 151//161
f 144//159 131//160 145//162
f 174//163 132//164 115//149
f 132//164 114//147 115//149
f 133//100 115//149 95//117
f 65//89 134//150 116//90
f 103//120 134//150 122//132
f 134//150 136//165 122//132
f 121//130 135//166 101//101
f 122//132 135//166 121//130
f 123//129 105//105 137//153
f 137//153 138//167 124//152
f 313//168 138//167 142//169
f 138//167 139//170 142//169
f 137//153 140//171 138//167
f 140//171 139//170 138//167
f 156//172 139//170 140//171
f 137//153 321//173 311//174
f 314//175 315//176 126//133
f 315//176 158//177 126//133
f 124//152 310//178 312//178
f 105//105 321//173 137//153
f 109//140 160//155 127//135
f 159//179 127//135 160//155
f 85//81 128//134 162//158
f 146//180 166//181 147//182
f 145//162 131//160 317//183
f 131//160 150//184 317//183
f 148//185 147//182 150//184
f 148//185 146//180 147//182
f 149//186 131//160 151//161
f 318//187 152//188 316//189
f 131//160 149//186 150//184
f 152//188 148//185 150//184
f 169//190 152//188 149//186
f 130//156 170//191 151//161
f 170//191 169//190 151//161
f 152//188 150//184 149//186
f 149//186 151//161 169//190
f 173//192 114//147 132//164
f 114//147 173//192 172//148
f 65//89 172//148 186//193
f 133//100 174//163 115//149
f 186//193 177//194 65//89
f 190//195 175//196 133//100
f 190//195 215//197 175//196
f 65//89 177//194 134//150
f 133//100 101//101 190//195
f 136//165 134//150 177//194
f 122//132 136//165 319//198
f 139//170 156//172 157//199
f 154//200 323//201 322//202
f 154//200 155//203 323//201
f 153//204 321//173 159//179
f 139//170 323//201 142//169
f 155//203 324//205 323//201
f 142//169 323//201 324//205
f 155//203 182//206 324//205
f 105//105 127//135 159//179
f 159//179 321//173 105//105
f 159//179 160//155 183//207
f 158//177 128//134 126//133
f 143//157 128//134 158//177
f 158//177 161//208 143//157
f 163//209 161//208 325//210
f 330//211 144//159 164//212
f 147//182 164//212 144//159
f 330//211 165//213 184//214
f 184//214 165//213 163//209
f 161//208 163//209 143//157
f 167//215 143//157 163//209
f 165//213 168//216 163//209
f 167//215 130//156 143//157
f 164//212 147//182 166//181
f 168//216 169//190 163//209
f 152//188 169//190 168//216
f 169//190 167//215 163//209
f 316//189 152//188 168//216
f 130//156 167//215 170//191
f 132//164 174//163 171//217
f 171//217 174//163 185//218
f 176//219 174//163 133//100
f 175//196 176//219 133//100
f 232//220 177//194 186//193
f 190//195 101//101 135//166
f 136//165 177//194 178//221
f 135//166 180//222 179//223
f 319//198 136//165 180//222
f 191//224 327//225 343//226
f 320//227 181//228 326//229
f 328//230 181//228 320//227
f 182//206 155//203 329//231
f 226//232 153//204 159//179
f 208//233 183//207 160//155
f 158//177 209//234 161//208
f 330//211 160//155 129//146
f 184//214 211//235 337//236
f 330//211 184//214 160//155
f 212//237 325//210 209//234
f 330//211 129//146 144//159
f 212//237 163//209 325//210
f 184//214 163//209 212//237
f 172//148 171//217 185//218
f 172//148 185//218 186//193
f 174//163 213//238 185//218
f 176//219 213//238 174//163
f 215//197 187//239 175//196
f 214//240 188//241 177//194
f 177//194 188//241 191//224
f 191//224 188//241 220//242
f 178//221 177//194 194//243
f 177//194 191//224 194//243
f 219//244 192//245 189//246
f 219//244 197//247 192//245
f 179//223 190//195 135//166
f 189//246 328//230 332//248
f 220//242 189//246 191//224
f 195//249 181//228 328//230
f 192//245 196//250 331//251
f 195//249 328//230 189//246
f 189//246 192//245 195//249
f 192//245 197//247 196//250
f 136//165 178//221 180//222
f 180//222 178//221 198//252
f 178//221 194//243 193//253
f 178//221 193//253 198//252
f 197//247 182//206 329//231
f 191//224 343//226 225//254
f 183//207 343//226 159//179
f 199//255 343//226 183//207
f 182//206 209//234 158//177
f 227//256 209//234 182//206
f 202//257 183//207 208//233
f 202//257 199//255 183//207
f 199//255 202//257 201//258
f 199//255 201//258 200//259
f 333//260 200//259 205//261
f 200//259 201//258 204//262
f 334//263 210//264 335//265
f 205//261 200//259 204//262
f 206//266 199//255 200//259
f 207//267 205//261 204//262
f 203//268 206//266 200//259
f 205//261 335//265 211//235
f 230//269 199//255 206//266
f 211//235 228//270 205//261
f 211//235 208//233 337//236
f 210//264 211//235 335//265
f 211//235 184//214 212//237
f 185//218 213//238 186//193
f 213//238 176//219 216//271
f 214//240 177//194 232//220
f 215//197 176//219 187//239
f 176//219 215//197 216//271
f 217//272 220//242 188//241
f 188//241 214//240 338//273
f 221//274 236//275 218//276
f 238//277 219//244 239//278
f 339//279 189//246 220//242
f 221//274 189//246 339//279
f 221//274 218//276 189//246
f 218//276 219//244 189//246
f 238//277 197//247 219//244
f 223//280 193//253 194//243
f 224//281 193//253 341//282
f 198//252 179//223 180//222
f 341//282 194//243 224//281
f 194//243 191//224 225//254
f 194//243 342//283 224//281
f 342//283 225//254 224//281
f 222//284 193//253 224//281
f 248//285 222//284 224//281
f 182//206 197//247 227//256
f 197//247 261//286 227//256
f 225//254 343//226 199//255
f 250//287 224//281 225//254
f 250//287 225//254 199//255
f 227//256 251//288 209//234
f 230//269 263//289 199//255
f 212//237 209//234 251//288
f 265//290 212//237 251//288
f 229//291 230//269 336//292
f 211//235 231//293 228//270
f 252//294 230//269 229//291
f 211//235 253//295 231//293
f 186//193 254//296 232//220
f 254//296 186//193 255//297
f 216//271 233//298 213//238
f 213//238 255//297 186//193
f 254//296 235//299 232//220
f 245//300 233//298 216//271
f 254//296 255//297 240//301
f 232//220 234//302 214//240
f 235//299 344//303 232//220
f 345//304 338//273 214//240
f 340//305 346//306 221//274
f 346//306 236//275 221//274
f 242//307 348//307 347//307
f 237//308 218//276 236//275
f 218//276 349//309 219//244
f 238//277 239//278 350//310
f 215//197 245//300 216//271
f 243//311 255//297 233//298
f 235//299 241//312 344//303
f 240//301 244//313 241//312
f 241//312 244//313 259//314
f 351//315 344//303 241//312
f 244//313 243//311 248//285
f 179//223 215//197 190//195
f 179//223 245//300 215//197
f 243//311 233//298 245//300
f 245//300 246//316 243//311
f 247//317 246//316 222//284
f 352//318 222//284 248//285
f 246//316 352//318 243//311
f 243//311 352//318 248//285
f 244//313 248//285 249//319
f 260//320 244//313 249//319
f 258//321 197//247 238//277
f 179//223 198//252 245//300
f 245//300 198//252 222//284
f 222//284 198//252 193//253
f 246//316 245//300 222//284
f 248//285 224//281 249//319
f 249//319 224//281 250//287
f 250//287 199//255 263//289
f 252//294 263//289 230//269
f 269//322 253//295 265//290
f 253//295 211//235 212//237
f 212//237 265//290 253//295
f 233//298 255//297 213//238
f 255//297 244//313 240//301
f 236//275 351//315 256//323
f 266//324 256//323 351//315
f 256//323 237//308 236//275
f 354//325 355//325 353//325
f 244//313 255//297 243//311
f 266//324 351//315 241//312
f 259//314 266//324 241//312
f 267//326 258//321 238//277
f 267//326 238//277 257//327
f 244//313 260//320 259//314
f 260//320 261//286 259//314
f 260//320 262//328 261//286
f 261//286 197//247 258//321
f 261//286 268//329 227//256
f 250//287 263//289 264//330
f 251//288 270//331 265//290
f 263//289 253//295 269//322
f 271//332 262//328 260//320
f 271//332 260//320 249//319
f 271//332 249//319 250//287
f 262//328 271//332 272//333
f 268//329 261//286 262//328
f 272//333 268//329 262//328
f 264//330 263//289 269//322
f 264//330 357//334 273//335
f 227//256 268//329 251//288
f 269//322 265//290 357//334
f 273//335 357//334 265//290
f 276//336 271//332 250//287
f 276//336 250//287 264//330
f 251//288 268//329 274//337
f 272//333 275//338 268//329
f 268//329 275//338 274//337
f 270//331 251//288 274//337
f 279//339 277//340 271//332
f 271//332 277//340 272//333
f 273//335 270//331 274//337
f 277//340 282//341 272//333
f 273//335 283//342 264//330
f 276//336 264//330 283//342
f 278//343 273//335 274//337
f 271//332 280//344 279//339
f 271//332 276//336 280//344
f 275//338 272//333 282//341
f 275//338 278//343 274//337
f 280//344 281//345 279//339
f 285//346 282//341 277//340
f 283//342 273//335 284//347
f 284//347 273//335 278//343
f 284//347 278//343 275//338
f 281//345 277//340 279//339
f 281//345 285//346 277//340
f 283//342 286//348 276//336
f 280//344 276//336 286//348
f 280//344 286//348 281//345
f 284//347 286//348 283//342
f 286//348 275//338 287//349
f 281//345 286//348 287//349
f 285//346 275//338 282//341
f 285//346 287//349 275//338
f 284//347 275//338 286//348
l 267 356
