# Blender 4.0.2
# www.blender.org
mtllib thoracic1.mtl
o thoracic1.002
v -0.018554 0.018772 -0.036911
v -0.021391 0.016736 -0.036205
v -0.017099 0.013884 -0.035984
v -0.015898 0.017529 -0.034816
v -0.020915 0.022082 -0.033663
v -0.020075 0.014289 -0.035710
v -0.022931 0.019293 -0.034374
v -0.017962 0.021575 -0.027996
v -0.014386 0.013622 -0.029354
v -0.019257 0.021780 -0.029465
v -0.019375 0.021572 -0.027347
v -0.019178 0.022058 -0.028223
v -0.018913 0.023318 -0.026663
v -0.018913 0.023375 -0.026656
v -0.017135 0.012366 -0.028847
v -0.018756 0.012223 -0.027007
v -0.021861 0.017721 -0.026423
v -0.020676 0.014793 -0.030064
v -0.015914 0.025439 -0.023030
v -0.019751 0.023063 -0.026742
v -0.016137 0.011273 -0.025886
v -0.016375 0.008269 -0.023946
v -0.016531 0.005734 -0.024080
v -0.021457 0.015406 -0.025703
v -0.018715 0.008719 -0.024106
v -0.017581 0.004676 -0.024177
v -0.013480 0.017908 -0.018337
v -0.012655 0.013268 -0.020907
v -0.014878 0.008784 -0.021961
v -0.014797 0.008596 -0.022036
v -0.016550 0.004832 -0.023368
v -0.019371 0.004453 -0.023394
v -0.020324 0.002854 -0.020222
v -0.021511 0.008144 -0.021141
v -0.020545 0.003193 -0.021025
v -0.015029 0.025081 -0.018396
v -0.015932 0.024509 -0.015616
v -0.022853 0.001101 -0.019057
v -0.020641 0.003068 -0.020763
v -0.020483 0.002609 -0.020049
v -0.022743 -0.001417 -0.016841
v -0.006120 0.017893 -0.016519
v -0.005669 0.019033 -0.015754
v -0.004233 0.009558 -0.016426
v -0.004345 0.010702 -0.014984
v -0.001266 0.004505 -0.016246
v -0.000309 0.003772 -0.015822
v -0.005551 0.012038 -0.015931
v -0.007487 0.012798 -0.016851
v -0.005009 0.008513 -0.016239
v -0.015879 0.024365 -0.015506
v -0.009867 0.017069 -0.016650
v -0.014411 0.017486 -0.014226
v -0.013359 0.011098 -0.017625
v -0.017534 0.011197 -0.012658
v -0.022312 0.012068 -0.016513
v -0.023069 -0.002254 -0.016426
v -0.023004 -0.002563 -0.013579
v -0.023184 -0.002268 -0.013697
v -0.027371 -0.000211 -0.012116
v 0.002677 0.014478 -0.012502
v 0.001285 0.008736 -0.015422
v -0.000372 0.011035 -0.014497
v -0.004644 0.017615 -0.015102
v -0.004244 0.010654 -0.014912
v -0.000540 0.002084 -0.013660
v -0.009351 0.020368 -0.014617
v -0.009354 0.020378 -0.014616
v -0.012380 0.016546 -0.013350
v -0.012605 0.016856 -0.013143
v -0.010331 0.008986 -0.013203
v -0.008795 0.007630 -0.013157
v -0.007870 0.003631 -0.013476
v -0.017955 0.021089 -0.013208
v -0.015124 0.015920 -0.012745
v -0.013310 0.014570 -0.011840
v -0.012817 0.011720 -0.010753
v -0.013649 0.010758 -0.012907
v -0.011635 0.009403 -0.011480
v -0.010078 0.004061 -0.011873
v -0.018116 0.021536 -0.013303
v -0.019398 0.017740 -0.012632
v -0.015667 0.011393 -0.013010
v -0.017803 0.012137 -0.012274
v -0.019557 0.016929 -0.011816
v -0.019453 0.016856 -0.011843
v -0.020609 0.015735 -0.011194
v -0.020623 0.015752 -0.011191
v -0.019399 0.016147 -0.011351
v -0.023522 -0.002406 -0.013376
v -0.024990 -0.001480 -0.010252
v 0.001081 0.017387 -0.011486
v 0.005180 0.002890 -0.010458
v -0.006775 0.003175 -0.011242
v -0.000896 0.001811 -0.013809
v -0.010184 0.018042 -0.007100
v -0.006915 0.002845 -0.010833
v -0.011109 0.007061 -0.009346
v -0.009984 0.003442 -0.011369
v -0.011031 0.003239 -0.008661
v -0.023385 0.012926 -0.007940
v -0.023356 0.012963 -0.008038
v -0.022532 0.008004 -0.007880
v -0.034045 -0.006984 -0.005833
v 0.007136 0.002736 -0.007471
v -0.010096 0.018071 -0.006693
v -0.010583 0.002918 -0.006850
v -0.024905 0.012084 -0.006580
v -0.028026 -0.004601 -0.008115
v -0.033805 -0.008260 -0.002409
v -0.036197 -0.004156 -0.005929
v -0.045306 -0.014849 -0.002352
v -0.051493 -0.009786 -0.002055
v -0.052289 -0.017446 -0.002951
v -0.052053 -0.018254 -0.002571
v 0.007066 0.016873 -0.004698
v 0.007817 0.003497 -0.000506
v -0.008479 0.018074 -0.000030
v -0.009038 0.017890 -0.003513
v -0.025905 0.011100 -0.002009
v -0.024672 0.010349 -0.000213
v -0.024416 0.006894 0.001309
v -0.030405 0.007497 -0.001508
v -0.046798 -0.005088 -0.000209
v -0.045053 -0.014603 -0.002332
v -0.047896 -0.016589 0.001318
v -0.051408 -0.007648 -0.000575
v -0.046489 -0.005371 -0.000006
v -0.052200 -0.018656 -0.002650
v -0.052123 -0.010034 0.001426
v -0.053846 -0.016286 -0.001610
v -0.053452 -0.017135 0.001572
v 0.008117 0.017172 -0.001483
v 0.008259 0.017477 -0.000748
v 0.007328 0.003254 0.001585
v -0.008421 0.017876 0.000196
v -0.008873 0.017807 0.001855
v -0.008614 0.003155 -0.002020
v -0.010079 0.004293 -0.001992
v -0.025092 0.010939 0.000837
v -0.028832 -0.004824 0.006531
v -0.038508 -0.000655 0.002361
v -0.039756 -0.010598 0.003550
v -0.039264 -0.010136 0.003935
v -0.051585 -0.018334 0.001774
v -0.051564 -0.018340 0.001863
v -0.052204 -0.017780 0.002177
v 0.007836 0.016916 0.001865
v 0.008268 0.004408 0.003220
v 0.007767 0.003616 -0.000297
v -0.008091 0.018182 0.002676
v -0.010034 0.003503 0.001458
v -0.008873 0.002870 -0.002192
v -0.024366 0.012018 0.004889
v -0.023480 0.010951 0.004915
v -0.037458 -0.005580 0.004655
v -0.010461 0.018478 0.009078
v -0.013389 0.011416 0.010786
v -0.010977 0.007222 0.009281
v -0.010813 0.003327 0.008978
v -0.021900 0.008290 0.008217
v -0.023369 0.012991 0.007146
v -0.023297 0.013197 0.007484
v -0.025216 -0.001306 0.009126
v -0.027869 -0.004466 0.007808
v 0.007071 0.003315 0.006590
v -0.009827 0.018949 0.009361
v -0.012634 0.015216 0.010884
v -0.011451 0.009428 0.011381
v -0.017822 0.016603 0.011318
v -0.018961 0.017247 0.011331
v -0.021005 0.015296 0.010334
v -0.021770 0.012492 0.015926
v -0.024058 -0.001192 0.009854
v -0.024462 -0.001465 0.010449
v -0.025156 -0.001398 0.011308
v -0.025960 -0.001798 0.009631
v -0.026667 -0.000452 0.011712
v 0.002522 0.016758 0.010818
v 0.003872 0.012389 0.010935
v 0.004813 0.002761 0.009755
v 0.000042 0.002450 0.014641
v 0.002536 0.016881 0.010826
v -0.003586 0.017404 0.013192
v -0.003694 0.002300 0.012461
v -0.009592 0.020391 0.012979
v -0.010063 0.019857 0.011928
v -0.010401 0.018493 0.013534
v -0.012576 0.015347 0.010968
v -0.008427 0.010004 0.015080
v -0.006728 0.001903 0.013242
v -0.008447 0.002248 0.013278
v -0.016798 0.022386 0.013427
v -0.016494 0.023285 0.013689
v -0.017852 0.021064 0.012725
v -0.016824 0.023162 0.013632
v -0.014334 0.015472 0.011915
v -0.015041 0.012053 0.011701
v -0.015447 0.011147 0.012975
v -0.020900 0.015319 0.010408
v -0.017480 0.011829 0.011616
v -0.016372 0.011115 0.013212
v -0.023520 -0.002400 0.013004
v -0.023045 -0.002421 0.012858
v -0.022689 -0.002194 0.014740
v 0.001009 0.013120 0.014078
v -0.003930 0.017814 0.013859
v -0.001131 0.010563 0.013800
v 0.000868 0.012833 0.013725
v -0.000159 0.007534 0.015643
v -0.006192 0.018877 0.015706
v -0.004189 0.016922 0.014664
v -0.003488 0.010976 0.014104
v -0.003531 0.010942 0.014003
v -0.004273 0.009351 0.015682
v -0.003556 0.005501 0.016439
v -0.009742 0.017061 0.016243
v -0.007221 0.013465 0.016139
v -0.007382 0.009040 0.014528
v -0.015543 0.024950 0.016405
v -0.013710 0.018285 0.018812
v -0.011273 0.017464 0.014789
v -0.013035 0.017472 0.015059
v -0.011771 0.016850 0.016466
v -0.010117 0.012038 0.017164
v -0.015992 0.024317 0.014950
v -0.015058 0.010683 0.017745
v -0.019056 0.007038 0.016690
v -0.020619 0.002478 0.018540
v -0.022488 -0.002015 0.015777
v -0.022636 -0.002320 0.014873
v -0.023263 -0.000581 0.016797
v -0.022414 -0.000116 0.017380
v -0.015266 0.025599 0.021213
v -0.012573 0.012732 0.020300
v -0.015601 0.025331 0.017667
v -0.013780 0.011304 0.019719
v -0.016435 0.005039 0.022961
v -0.018955 0.003579 0.020331
v -0.022885 0.004393 0.018667
v -0.019780 0.003252 0.020204
v -0.020386 0.004136 0.021157
v -0.017809 0.024472 0.023795
v -0.018860 0.023936 0.025583
v -0.016347 0.024383 0.023585
v -0.018505 0.021883 0.027691
v -0.016187 0.006332 0.022869
v -0.015886 0.010715 0.024114
v -0.016726 0.004875 0.023390
v -0.021612 0.015646 0.025481
v -0.020294 0.009433 0.022692
v -0.018678 0.007427 0.022966
v -0.018686 0.004030 0.022591
v -0.017182 0.004396 0.022947
v -0.018432 0.004951 0.023266
v -0.020440 0.003987 0.021023
v -0.014649 0.012501 0.026330
v -0.019432 0.023321 0.026015
v -0.019221 0.021800 0.027800
v -0.017817 0.010473 0.024612
v -0.021373 0.019496 0.027670
v -0.019252 0.012186 0.025729
v -0.014863 0.015325 0.031791
v -0.019343 0.021771 0.027978
v -0.016763 0.012472 0.028527
v -0.017295 0.018554 0.036097
v -0.020194 0.021595 0.033780
v -0.017359 0.013328 0.033876
v -0.022144 0.021188 0.032605
v -0.022716 0.019674 0.034085
v -0.020550 0.014779 0.035854
v -0.016557 0.013535 0.033724
v -0.016658 0.013826 0.034122
v -0.021271 0.016763 -0.036034
v -0.018756 0.012223 -0.027007
v -0.018756 0.012223 -0.027007
v -0.016133 0.011184 -0.026021
v -0.016531 0.005734 -0.024080
v -0.021457 0.015406 -0.025703
v -0.013252 0.017953 -0.018357
v -0.012313 0.013203 -0.021112
v -0.005669 0.019033 -0.015754
v -0.005669 0.019033 -0.015754
v -0.007487 0.012798 -0.016851
v -0.007487 0.012798 -0.016851
v -0.007487 0.012798 -0.016851
v -0.007487 0.012798 -0.016851
v -0.005009 0.008513 -0.016239
v -0.009867 0.017069 -0.016650
v -0.009867 0.017069 -0.016650
v -0.009867 0.017069 -0.016650
v -0.009867 0.017069 -0.016650
v -0.013349 0.011191 -0.017686
v -0.004785 0.010962 -0.015162
v -0.012380 0.016546 -0.013350
v -0.012380 0.016546 -0.013350
v -0.011955 0.016652 -0.012872
v -0.010331 0.008986 -0.013203
v -0.008300 0.003788 -0.014274
v -0.007804 0.002737 -0.014060
v -0.007804 0.002737 -0.014060
v -0.014358 0.017488 -0.014182
v -0.013419 0.014535 -0.011730
v -0.013419 0.014535 -0.011730
v -0.013419 0.014535 -0.011730
v -0.013649 0.010758 -0.012907
v -0.019398 0.017740 -0.012632
v -0.017531 0.011195 -0.012656
v -0.023043 -0.002533 -0.013550
v 0.001081 0.017387 -0.011486
v -0.009957 0.003544 -0.011330
v -0.010573 0.002844 -0.007007
v -0.010615 0.003134 -0.005979
v -0.024802 0.011974 -0.006553
v -0.036197 -0.004156 -0.005929
v -0.030405 0.007497 -0.001508
v -0.050060 -0.007085 -0.000552
v -0.010079 0.004293 -0.001992
v -0.010079 0.004293 -0.001992
v -0.024454 0.010523 0.000213
v 0.007794 0.016901 0.001788
v -0.010862 0.002836 0.006826
v -0.023347 0.012956 0.007296
v -0.009827 0.018949 0.009361
v -0.018961 0.017247 0.011331
v -0.024976 -0.001304 0.009100
v -0.024155 -0.001126 0.009902
v -0.024462 -0.001465 0.010449
v -0.025967 -0.001734 0.009597
v -0.028623 -0.001248 0.010148
v 0.002522 0.016758 0.010818
v -0.010401 0.018493 0.013534
v -0.014334 0.015472 0.011915
v -0.015041 0.012053 0.011701
v -0.015041 0.012053 0.011701
v -0.015041 0.012053 0.011701
v -0.017480 0.011829 0.011616
v -0.011273 0.017464 0.014789
v -0.011273 0.017464 0.014789
v -0.012977 0.017664 0.014935
v -0.022414 -0.000116 0.017380
v -0.013811 0.011329 0.019691
v -0.019765 0.003188 0.020237
v -0.020983 0.002366 0.019300
v -0.016347 0.024383 0.023585
v -0.016207 0.006281 0.022639
v -0.016451 0.008288 0.023301
v -0.016451 0.008288 0.023301
v -0.016935 0.004456 0.023246
v -0.016447 0.005046 0.022962
v -0.016755 0.004904 0.023153
v -0.018678 0.007427 0.022966
v -0.018678 0.007427 0.022966
v -0.017251 0.005071 0.022820
v -0.018686 0.004030 0.022591
v -0.018686 0.004030 0.022591
v -0.018686 0.004030 0.022591
v -0.017182 0.004396 0.022947
v -0.018432 0.004951 0.023266
v -0.018794 0.023822 0.025582
v -0.019411 0.023720 0.026356
v -0.015762 0.010632 0.024255
v -0.022124 0.021140 0.032590
vn 0.2178 0.4100 -0.8857
vn 0.3752 -0.6164 -0.6922
vn -0.2817 0.0440 -0.9585
vn -0.4879 -0.6768 -0.5512
vn -0.2645 0.9347 -0.2375
vn 0.8360 0.3079 -0.4542
vn 0.5282 0.7705 -0.3568
vn 0.8386 -0.4450 -0.3142
vn -0.9158 0.2206 -0.3356
vn -0.8736 -0.4474 -0.1916
vn -0.7511 -0.6555 -0.0785
vn -0.0558 -0.9487 -0.3112
vn -0.3511 0.9360 0.0268
vn -0.9798 0.1831 0.0808
vn -0.4863 0.5373 -0.6891
vn 0.0874 0.6241 -0.7765
vn -0.2119 0.7529 -0.6230
vn -0.6695 0.6355 -0.3845
vn 0.6958 0.6901 -0.1991
vn -0.3351 -0.8695 -0.3628
vn 0.1583 -0.7495 -0.6428
vn -0.7714 -0.6345 -0.0490
vn -0.9457 -0.3128 -0.0888
vn -0.7178 -0.3666 -0.5920
vn -0.4466 -0.5301 -0.7208
vn -0.8724 -0.0446 -0.4868
vn 0.3698 0.8849 -0.2831
vn 0.9182 0.3208 -0.2322
vn 0.9489 0.0246 -0.3145
vn 0.9314 -0.3538 0.0851
vn -0.2539 -0.9211 -0.2952
vn -0.3610 -0.3621 -0.8594
vn 0.4690 -0.2496 -0.8472
vn 0.9281 0.0407 -0.3701
vn 0.0924 -0.5709 -0.8158
vn 0.0423 0.0500 -0.9979
vn 0.8055 -0.3137 -0.5028
vn 0.7365 -0.6707 -0.0880
vn -0.9417 0.3094 -0.1321
vn 0.5816 0.8043 0.1222
vn -0.7974 0.5956 0.0970
vn -0.4594 -0.4622 -0.7585
vn 0.7786 -0.5275 0.3398
vn 0.2607 -0.8707 -0.4171
vn -0.5268 -0.4074 -0.7459
vn 0.6080 -0.7847 -0.1209
vn 0.7452 -0.6405 -0.1854
vn 0.5340 0.4116 -0.7385
vn 0.3834 -0.7717 -0.5075
vn 0.2979 -0.8093 -0.5062
vn 0.2669 -0.8210 -0.5046
vn 0.3616 -0.9230 0.1320
vn 0.0851 -0.8702 -0.4853
vn 0.4945 -0.6397 0.5884
vn -0.7081 -0.2638 -0.6550
vn 0.7275 -0.6401 -0.2472
vn 0.5700 -0.7812 0.2546
vn 0.3406 0.0628 -0.9381
vn 0.3180 0.2610 -0.9115
vn 0.4832 0.1645 -0.8599
vn -0.0772 0.5422 -0.8367
vn -0.0470 0.5694 -0.8207
vn 0.5930 0.6400 -0.4887
vn 0.6986 0.1871 -0.6907
vn 0.1799 0.2900 -0.9400
vn 0.4279 0.4478 -0.7851
vn -0.2283 -0.1700 -0.9586
vn 0.2148 0.2630 -0.9406
vn 0.1021 -0.3308 -0.9382
vn -0.5679 -0.1821 -0.8027
vn 0.5101 0.1713 -0.8429
vn 0.5657 0.7377 -0.3684
vn 0.5435 -0.1074 -0.8325
vn -0.8181 0.5741 0.0326
vn -0.1886 0.9772 0.0971
vn -0.7203 0.4409 -0.5355
vn -0.0330 0.3017 -0.9528
vn -0.0270 -0.1566 -0.9873
vn -0.6585 -0.3714 -0.6546
vn 0.4596 0.2955 -0.8375
vn -0.4821 -0.3908 -0.7842
vn -0.4770 -0.4231 -0.7703
vn -0.5596 -0.7288 -0.3947
vn 0.8451 0.2278 0.4836
vn 0.4923 0.4543 0.7425
vn -0.8827 0.4437 -0.1548
vn 0.2141 0.3610 0.9076
vn 0.1758 0.9722 0.1548
vn 0.2310 0.9373 0.2611
vn 0.2100 0.9525 0.2205
vn -0.9197 0.3475 0.1826
vn 0.9050 -0.1701 0.3899
vn -0.6908 -0.5805 -0.4310
vn -0.7721 -0.5777 -0.2648
vn 0.5557 0.5289 -0.6414
vn 0.6632 0.2908 -0.6896
vn 0.7471 0.5393 -0.3884
vn 0.6740 -0.5179 -0.5268
vn 0.0769 -0.5431 -0.8361
vn -0.2990 0.9513 0.0752
vn 0.4287 0.6145 0.6623
vn 0.2325 -0.6973 -0.6780
vn -0.2245 0.9743 -0.0165
vn -0.9892 -0.1371 -0.0520
vn -0.7463 -0.6434 -0.1705
vn -0.7851 -0.0901 -0.6128
vn -0.7411 -0.4510 -0.4974
vn -0.7380 -0.4738 -0.4805
vn 0.3710 -0.9215 0.1150
vn -0.1653 -0.9831 0.0784
vn -0.1102 -0.9663 0.2327
vn 0.6327 0.1035 0.7675
vn 0.2772 0.8937 0.3528
vn 0.1062 0.4762 0.8729
vn -0.0362 0.6382 0.7690
vn 0.0233 0.6501 0.7595
vn 0.3899 -0.1479 0.9089
vn -0.2842 0.3140 0.9059
vn -0.0774 -0.8329 0.5480
vn -0.8115 -0.1988 0.5495
vn -0.8360 0.2121 0.5061
vn -0.4523 -0.7361 0.5035
vn -0.4006 -0.9107 -0.1004
vn -0.8833 0.4676 0.0342
vn -0.7349 0.4253 0.5283
vn 0.6138 0.4810 0.6260
vn 0.1424 -0.4593 0.8768
vn -0.7636 0.6184 -0.1857
vn -0.1899 0.7835 0.5917
vn 0.7341 0.3034 0.6075
vn 0.6206 -0.0355 0.7834
vn -0.8056 0.5208 -0.2825
vn -0.3665 -0.9302 0.0208
vn -0.2858 -0.9541 -0.0898
vn 0.5549 -0.7896 0.2619
vn 0.1584 0.9874 -0.0045
vn 0.0922 0.9933 -0.0700
vn 0.7107 -0.6584 -0.2478
vn 0.2326 -0.9618 0.1442
vn 0.4078 -0.9129 0.0202
vn -0.9119 0.2463 0.3282
vn -0.1819 -0.9819 -0.0533
vn -0.8757 -0.4292 0.2213
vn -0.7355 -0.5649 -0.3741
vn -0.8017 -0.5943 -0.0644
vn -0.6923 -0.7127 0.1128
vn -0.2087 0.8177 0.5365
vn 0.5317 -0.7701 -0.3525
vn -0.4287 -0.0738 -0.9004
vn 0.0159 -0.6802 -0.7328
vn -0.3200 0.9295 0.1833
vn -0.5351 0.8441 0.0326
vn 0.4711 -0.8768 -0.0964
vn 0.4892 -0.8715 -0.0353
vn -0.4444 0.5023 -0.7417
vn -0.4388 0.5281 -0.7270
vn -0.3972 0.6137 -0.6823
vn -0.5403 -0.8189 -0.1936
vn -0.5470 0.2815 -0.7884
vn 0.3676 -0.6990 0.6134
vn 0.0819 0.1524 -0.9849
vn 0.0052 -0.0881 -0.9961
vn -0.9446 -0.0535 -0.3237
vn -0.6332 0.7665 -0.1072
vn -0.3550 -0.8044 -0.4763
vn 0.8078 -0.5895 -0.0055
vn -0.5869 0.8092 -0.0279
vn 0.0298 -0.9994 0.0170
vn -0.9948 0.0856 0.0545
vn -0.7188 -0.6458 0.2574
vn -0.7493 -0.6579 0.0757
vn -0.7582 -0.6501 0.0500
vn 0.9580 0.2529 -0.1353
vn 0.9783 -0.1967 -0.0653
vn -0.7121 0.6994 -0.0614
vn 0.6827 -0.7192 -0.1288
vn -0.5379 0.7579 0.3690
vn -0.5828 0.5529 0.5955
vn -0.7484 0.2765 0.6028
vn -0.3901 0.6854 0.6149
vn -0.8194 -0.2864 0.4966
vn 0.0523 -0.9982 0.0290
vn 0.9554 0.2002 -0.2169
vn 0.9439 -0.2921 0.1541
vn -0.4889 -0.8335 0.2573
vn 0.0653 0.9976 0.0209
vn -0.7865 0.5870 -0.1920
vn -0.9206 -0.3830 -0.0758
vn 0.5600 0.8042 -0.1991
vn -0.0100 0.9935 -0.1131
vn -0.6375 0.7689 -0.0490
vn 0.5107 -0.8407 0.1802
vn -0.3691 0.0875 0.9252
vn -0.2071 -0.1000 0.9732
vn -0.2753 -0.4154 0.8670
vn 0.4185 -0.6942 0.5856
vn 0.9619 0.0866 0.2593
vn -0.0298 0.9950 -0.0951
vn -0.3758 0.9245 -0.0639
vn -0.7549 -0.6524 0.0666
vn 0.8783 0.2062 -0.4313
vn 0.1814 0.7212 -0.6686
vn 0.8501 -0.2723 -0.4507
vn 0.4902 -0.8398 0.2332
vn 0.3448 -0.9382 0.0291
vn 0.2566 0.9645 -0.0627
vn 0.3067 0.9373 -0.1657
vn -0.4789 0.8308 -0.2837
vn -0.7638 0.6115 -0.2065
vn -0.7482 -0.3114 -0.5858
vn -0.9761 -0.2105 0.0540
vn 0.6829 -0.7155 0.1478
vn 0.3420 0.2625 -0.9023
vn -0.7091 0.6932 0.1288
vn -0.9236 0.3362 0.1841
vn 0.7389 -0.4107 -0.5341
vn 0.3874 -0.8032 0.4525
vn -0.6046 -0.4395 0.6643
vn -0.6182 0.0158 0.7859
vn 0.4487 0.8502 0.2754
vn 0.7927 0.1231 0.5971
vn 0.5932 -0.7099 0.3796
vn 0.0432 -0.9592 0.2793
vn -0.0895 -0.9830 -0.1605
vn -0.2752 0.8981 -0.3430
vn -0.2995 0.9525 0.0553
vn -0.8195 0.2645 -0.5084
vn -0.3696 0.5255 -0.7663
vn -0.7062 0.5823 -0.4028
vn -0.5509 -0.7369 0.3918
vn 0.2269 0.4716 -0.8521
vn 0.5427 -0.1184 -0.8315
vn -0.4356 0.1457 -0.8883
vn -0.5145 -0.6333 -0.5782
vn -0.1524 0.8040 -0.5748
vn 0.1690 0.3079 -0.9363
vn -0.1909 0.8433 -0.5024
vn -0.8261 0.5594 0.0678
vn 0.7412 -0.2744 -0.6126
vn 0.9136 -0.2908 -0.2842
vn 0.7817 -0.5138 -0.3535
vn 0.3635 -0.8870 -0.2847
vn 0.3433 -0.9136 -0.2181
vn 0.3357 -0.9320 -0.1369
vn 0.2588 -0.9104 -0.3229
vn 0.8087 -0.4253 -0.4064
vn 0.1219 -0.9771 0.1747
vn -0.3605 -0.9297 0.0761
vn 0.2349 -0.9654 -0.1129
vn 0.6978 0.3446 0.6279
vn 0.5495 0.4575 0.6991
vn 0.5756 0.4029 0.7115
vn 0.3134 -0.7156 0.6242
vn -0.8261 0.5368 0.1714
vn -0.6954 0.7090 -0.1172
vn -0.0870 0.9008 0.4254
vn -0.0543 0.4804 0.8754
vn -0.2569 0.8272 0.4997
vn -0.4198 -0.7613 0.4941
vn -0.4209 -0.3174 0.8498
vn -0.5323 -0.7089 0.4627
vn 0.5043 0.7449 -0.4367
vn -0.0746 0.8550 -0.5132
vn 0.3857 -0.4892 0.7823
vn -0.9004 0.3833 0.2059
vn 0.1305 0.3181 -0.9390
vn 0.3019 0.2484 -0.9204
vn -0.3074 0.3714 -0.8761
vn 0.8694 0.2507 -0.4257
vn -0.8701 0.4830 -0.0986
vn 0.0296 0.0563 -0.9980
vn -0.2620 -0.3790 -0.8875
vn 0.0392 -0.8684 -0.4944
vn 0.0952 -0.8253 -0.5566
vn 0.3392 -0.8822 -0.3266
vn 0.9175 -0.3975 -0.0141
vn -0.8414 -0.0006 0.5404
vn -0.5218 -0.5472 0.6545
vn -0.6251 -0.6696 0.4012
vn 0.4854 0.2723 0.8308
vn 0.2823 -0.0347 0.9587
vn 0.4580 -0.3092 0.8334
vn 0.2770 0.2030 0.9392
vn 0.4733 0.1631 0.8657
vn -0.0147 -0.6460 0.7632
vn 0.4225 0.5244 0.7392
vn 0.3457 0.6392 0.6869
vn 0.0729 0.2660 0.9612
vn -0.1013 -0.2437 0.9645
vn 0.5263 0.8307 0.1815
vn 0.8831 -0.4690 0.0124
vn 0.9077 0.3848 0.1675
vn 0.4631 0.7201 0.5167
vn 0.1398 0.9157 0.3768
vn 0.5526 -0.8033 -0.2222
vn 0.7946 -0.5313 -0.2939
vn 0.8687 -0.4689 -0.1596
vn 0.4720 -0.6109 0.6356
vn -0.1526 -0.6386 0.7543
vn -0.2932 -0.7682 0.5691
vn 0.1386 0.9703 -0.1982
vn 0.8775 -0.2399 0.4153
vn -0.8789 0.3892 -0.2757
vn -0.2696 0.9488 0.1644
vn 0.6007 -0.7371 0.3097
vn 0.7692 -0.5607 -0.3066
vn 0.9711 -0.2384 0.0115
vn -0.9535 -0.1055 0.2823
vn -0.9911 -0.1272 0.0382
vn 0.7592 -0.4771 -0.4428
vn 0.5690 -0.8220 0.0216
vn 0.5102 -0.8502 0.1295
vn -0.6927 -0.1895 0.6959
vn 0.4669 -0.7103 0.5268
vn -0.1902 -0.7451 0.6392
vn 0.5580 0.7030 0.4409
vn 0.1213 0.8720 0.4743
vn 0.8627 -0.4792 0.1617
vn 0.9526 0.0205 0.3035
vn 0.7285 -0.6271 0.2756
vn 0.7722 -0.5547 0.3099
vn 0.9183 -0.1690 0.3581
vn 0.8939 -0.0962 0.4378
vn 0.8419 -0.0228 0.5392
vn 0.6411 -0.7401 -0.2032
vn -0.8935 0.3622 -0.2655
vn -0.5005 -0.3478 0.7928
vn -0.5794 -0.6172 0.5323
vn 0.0441 -0.6612 0.7489
vn 0.0961 -0.4455 0.8901
vn 0.1414 -0.7117 0.6881
vn -0.6994 -0.1047 0.7070
vn 0.0072 -0.3788 0.9255
vn -0.1131 0.0567 0.9920
vn -0.1857 0.1000 0.9775
vn -0.1103 -0.2378 0.9650
vn -0.6211 -0.3446 0.7039
vn 0.5879 -0.8089 -0.0059
vn -0.4487 -0.7563 0.4762
vn -0.1712 -0.5513 0.8166
vn -0.0514 -0.1960 0.9793
vn 0.1121 0.9124 0.3937
vn -0.6907 0.0382 -0.7221
vn 0.3708 0.6587 0.6547
vn 0.0506 0.6034 0.7958
vn -0.5030 0.8580 0.1042
vn -0.1069 -0.9605 0.2569
vn -0.6679 0.7442 0.0044
vn 0.0443 0.8728 0.4861
vn 0.4822 0.3481 0.8039
vn 0.0457 -0.9163 0.3980
vn -0.8497 0.2073 0.4848
vn 0.8412 -0.3702 0.3941
vn 0.6103 -0.4888 0.6234
vn -0.9316 0.0053 -0.3634
vn -0.4597 -0.5420 0.7035
s 1
usemtl mtl1.1076
f 1//1 3//2 2//3
f 3//2 6//4 2//3
f 5//5 4//6 1//1
f 4//6 5//5 8//7
f 1//1 4//6 3//2
f 3//2 4//6 9//8
f 7//9 1//1 2//3
f 7//9 5//5 1//1
f 274//10 6//4 7//9
f 18//11 7//9 6//4
f 15//12 6//4 3//2
f 9//8 15//12 3//2
f 10//13 5//5 7//9
f 7//9 17//14 10//13
f 15//12 18//11 6//4
f 8//7 13//15 14//16
f 11//17 20//18 13//15
f 11//17 8//7 10//13
f 8//7 5//5 10//13
f 10//13 20//18 12//19
f 8//7 11//17 13//15
f 17//14 20//18 10//13
f 16//20 18//11 15//12
f 15//12 9//8 21//21
f 18//11 275//22 24//23
f 17//14 7//9 24//23
f 24//23 7//9 18//11
f 279//24 276//25 34//26
f 19//27 13//15 20//18
f 8//7 14//16 19//27
f 8//7 27//28 4//6
f 4//6 28//29 9//8
f 29//30 9//8 28//29
f 21//21 9//8 29//30
f 277//31 16//20 15//12
f 25//32 21//21 22//33
f 21//21 30//34 22//33
f 22//33 26//35 25//32
f 22//33 23//36 26//35
f 278//37 31//38 26//35
f 24//23 34//26 56//39
f 276//25 25//32 34//26
f 276//25 21//21 25//32
f 19//27 27//28 8//7
f 36//40 27//28 19//27
f 20//18 37//41 19//27
f 27//28 28//29 4//6
f 22//33 30//34 278//37
f 30//34 21//21 29//30
f 31//38 278//37 30//34
f 17//14 24//23 56//39
f 25//32 26//35 32//42
f 34//26 25//32 32//42
f 33//43 26//35 31//38
f 32//42 26//35 39//44
f 38//45 32//42 35//46
f 39//44 26//35 40//47
f 38//45 34//26 32//42
f 37//41 36//40 19//27
f 27//28 49//48 28//29
f 284//49 71//50 281//51
f 56//39 37//41 20//18
f 29//30 28//29 54//52
f 71//50 293//53 281//51
f 20//18 17//14 56//39
f 31//38 29//30 33//43
f 54//52 55//54 29//30
f 55//54 33//43 29//30
f 56//39 34//26 60//55
f 60//55 34//26 38//45
f 39//44 40//47 41//56
f 39//44 38//45 35//46
f 39//44 41//56 38//45
f 58//57 41//56 40//47
f 285//58 42//59 48//60
f 42//59 67//61 43//62
f 42//59 64//63 48//60
f 282//64 64//63 42//59
f 48//60 64//63 63//65
f 65//66 48//60 63//65
f 50//67 44//68 46//69
f 46//69 73//70 50//67
f 44//68 62//71 46//69
f 45//72 44//68 48//60
f 62//71 44//68 45//72
f 62//71 47//73 46//69
f 70//74 68//75 52//76
f 42//59 285//58 289//77
f 67//61 42//59 289//77
f 48//60 44//68 285//58
f 44//68 50//67 286//78
f 50//67 73//70 72//79
f 290//80 49//48 27//28
f 287//81 288//82 298//83
f 51//84 27//28 36//40
f 51//84 53//85 27//28
f 81//86 37//41 56//39
f 53//85 51//84 89//87
f 280//88 302//89 291//90
f 81//86 56//39 82//91
f 103//92 40//47 33//43
f 103//92 58//57 40//47
f 60//55 38//45 57//93
f 41//56 58//57 59//94
f 92//95 61//96 64//63
f 61//96 116//97 62//71
f 63//65 61//96 62//71
f 62//71 116//97 93//98
f 64//63 61//96 63//65
f 62//71 93//98 47//73
f 48//60 65//66 294//99
f 65//66 63//65 62//71
f 45//72 65//66 62//71
f 68//75 96//100 64//63
f 68//75 64//63 283//101
f 46//69 66//102 73//70
f 96//100 68//75 70//74
f 69//103 297//103 292//103
f 298//83 288//82 72//79
f 98//104 72//79 73//70
f 79//105 298//83 72//79
f 98//104 73//70 80//106
f 72//79 98//104 79//105
f 80//106 299//107 300//108
f 97//109 301//110 95//111
f 89//87 51//84 74//112
f 302//89 295//113 291//90
f 53//85 89//87 75//114
f 296//115 53//85 303//116
f 303//116 53//85 75//114
f 75//114 84//117 304//118
f 89//87 84//117 75//114
f 83//119 77//120 76//121
f 306//122 77//120 83//119
f 78//123 54//52 298//83
f 298//83 79//105 78//123
f 79//105 77//120 306//122
f 56//39 85//124 82//91
f 307//125 89//87 74//112
f 307//125 86//126 89//87
f 83//119 54//52 78//123
f 55//54 54//52 83//119
f 55//54 83//119 84//117
f 305//127 84//117 83//119
f 88//128 85//124 56//39
f 86//126 87//129 89//87
f 101//130 84//117 89//87
f 308//131 84//117 101//130
f 308//131 101//130 103//92
f 103//92 33//43 55//54
f 88//128 56//39 108//132
f 57//93 90//133 60//55
f 90//133 57//93 309//134
f 60//55 108//132 56//39
f 58//57 91//135 90//133
f 91//135 60//55 90//133
f 92//95 116//97 61//96
f 134//136 116//97 310//137
f 134//136 310//137 64//63
f 105//138 66//102 93//98
f 46//69 93//98 66//102
f 105//138 94//139 95//111
f 105//138 135//140 94//139
f 76//121 106//141 70//74
f 96//100 70//74 106//141
f 99//142 301//110 97//109
f 77//120 106//141 76//121
f 119//143 106//141 77//120
f 77//120 79//105 98//104
f 119//143 77//120 98//104
f 300//108 311//144 80//106
f 80//106 311//144 100//145
f 100//145 99//142 97//109
f 107//146 100//145 97//109
f 87//129 102//147 89//87
f 109//148 91//135 103//92
f 103//92 91//135 58//57
f 91//135 109//148 60//55
f 108//132 60//55 111//149
f 60//55 109//148 104//150
f 104//150 111//149 60//55
f 105//138 93//98 116//97
f 98//104 80//106 100//145
f 107//146 98//104 100//145
f 120//151 101//130 314//152
f 110//153 104//150 109//148
f 104//150 110//153 125//154
f 123//155 315//156 124//157
f 104//150 112//158 111//149
f 113//159 111//149 112//158
f 110//153 126//160 125//154
f 113//159 124//157 315//156
f 112//158 115//161 113//159
f 113//159 114//162 131//163
f 127//164 113//159 131//163
f 114//162 129//165 131//163
f 115//161 114//162 113//159
f 105//138 117//166 135//140
f 96//100 118//167 64//63
f 96//100 119//143 118//167
f 94//139 138//168 97//109
f 118//167 119//143 139//169
f 107//146 119//143 98//104
f 139//169 119//143 107//146
f 97//109 138//168 107//146
f 312//170 153//171 318//172
f 121//173 101//130 120//151
f 101//130 121//173 103//92
f 122//174 103//92 121//173
f 109//148 103//92 122//174
f 120//151 108//132 316//175
f 141//176 110//153 109//148
f 316//175 108//132 111//149
f 128//177 142//178 316//175
f 126//160 129//165 125//154
f 129//165 112//158 125//154
f 124//157 113//159 127//164
f 127//164 130//179 317//180
f 317//180 130//179 128//177
f 112//158 129//165 115//161
f 127//164 132//181 130//179
f 126//160 145//182 129//165
f 132//181 127//164 131//163
f 134//136 133//183 116//97
f 116//97 133//183 105//138
f 117//166 105//138 149//184
f 133//183 149//184 105//138
f 117//166 149//184 150//185
f 183//186 134//136 64//63
f 118//167 183//186 64//63
f 135//140 138//168 94//139
f 137//187 118//167 139//169
f 318//172 153//171 152//188
f 121//173 120//151 320//189
f 320//189 120//151 140//190
f 140//190 120//151 316//175
f 154//191 140//190 316//175
f 109//148 122//174 141//176
f 126//160 110//153 143//192
f 142//178 130//179 156//193
f 128//177 130//179 142//178
f 130//179 126//160 144//194
f 130//179 132//181 147//195
f 126//160 146//196 145//182
f 146//196 126//160 147//195
f 147//195 126//160 130//179
f 132//181 131//163 129//165
f 145//182 132//181 129//165
f 147//195 132//181 145//182
f 149//184 133//183 148//197
f 149//184 135//140 150//185
f 118//167 151//198 183//186
f 151//198 136//199 137//187
f 139//169 152//188 137//187
f 153//171 160//200 152//188
f 320//189 140//190 155//201
f 155//201 140//190 162//202
f 155//201 122//174 121//173
f 122//174 161//203 141//176
f 154//191 316//175 142//178
f 141//176 143//192 110//153
f 165//204 144//194 141//176
f 165//204 156//193 144//194
f 130//179 144//194 156//193
f 135//140 149//184 166//205
f 183//186 151//198 184//206
f 167//207 151//198 137//187
f 324//208 137//187 157//209
f 135//140 160//200 138//168
f 158//210 157//209 137//187
f 158//210 137//187 159//211
f 322//212 138//168 160//200
f 137//187 152//188 160//200
f 159//211 137//187 160//200
f 170//213 161//203 155//201
f 162//202 170//213 155//201
f 163//214 154//191 142//178
f 161//203 122//174 155//201
f 173//215 163//214 142//178
f 141//176 161//203 164//216
f 141//176 164//216 165//204
f 165//204 177//217 178//218
f 177//217 165//204 164//216
f 178//218 156//193 165//204
f 156//193 330//219 142//178
f 134//136 331//220 321//220
f 149//184 148//197 180//221
f 181//222 149//184 180//221
f 181//222 135//140 166//205
f 185//223 191//224 135//140
f 187//225 324//208 157//209
f 187//225 186//226 324//208
f 184//206 151//198 167//207
f 135//140 191//224 160//200
f 158//210 168//227 157//209
f 158//210 197//228 189//229
f 158//210 159//211 169//230
f 170//213 333//231 201//232
f 197//228 158//210 198//233
f 158//210 169//230 334//234
f 170//213 172//235 171//236
f 172//235 170//213 323//237
f 201//232 161//203 170//213
f 173//215 200//238 163//214
f 174//239 164//216 161//203
f 161//203 204//240 174//239
f 228//241 204//240 161//203
f 327//242 329//243 326//244
f 175//245 329//243 327//242
f 327//242 205//246 175//245
f 177//217 328//247 176//248
f 175//245 203//249 176//248
f 203//249 178//218 176//248
f 176//248 178//218 177//217
f 178//218 173//215 142//178
f 178//218 142//178 330//219
f 148//197 179//250 180//221
f 207//251 206//252 179//250
f 179//250 206//252 180//221
f 182//253 181//222 180//221
f 182//253 135//140 181//222
f 185//223 135//140 182//253
f 186//226 184//206 167//207
f 188//254 186//226 157//209
f 188//254 157//209 222//255
f 338//256 217//257 332//258
f 190//259 159//211 219//260
f 159//211 192//261 219//260
f 170//213 223//262 333//231
f 189//229 157//209 168//227
f 157//209 189//229 222//255
f 222//255 189//229 197//228
f 339//263 333//231 223//262
f 225//264 169//230 190//259
f 159//211 190//259 169//230
f 160//200 191//224 192//261
f 192//261 159//211 160//200
f 200//238 196//265 325//266
f 195//267 193//268 171//236
f 170//213 171//236 193//268
f 193//268 194//269 170//213
f 200//238 226//270 196//265
f 170//213 194//269 223//262
f 333//231 335//271 201//232
f 334//234 169//230 199//272
f 337//273 336//274 199//272
f 169//230 202//275 199//272
f 200//238 173//215 226//270
f 201//232 202//275 161//203
f 202//275 337//273 199//272
f 161//203 202//275 228//241
f 228//241 230//276 204//240
f 240//277 173//215 178//218
f 175//245 205//246 203//249
f 203//249 232//278 178//218
f 231//279 232//278 203//249
f 207//251 212//280 206//252
f 218//281 209//282 212//280
f 208//283 180//221 209//282
f 208//283 210//284 180//221
f 208//283 218//281 213//285
f 208//283 214//286 210//284
f 210//284 182//253 180//221
f 184//206 186//226 211//287
f 211//287 212//280 207//251
f 218//281 212//280 211//287
f 209//282 218//281 208//283
f 218//281 215//288 214//286
f 214//286 215//288 210//284
f 216//289 210//284 215//288
f 182//253 216//289 185//223
f 216//289 182//253 210//284
f 188//254 217//257 186//226
f 211//287 186//226 217//257
f 211//287 217//257 218//281
f 219//260 218//281 225//264
f 218//281 219//260 215//288
f 219//260 192//261 216//289
f 219//260 216//289 215//288
f 216//289 192//261 185//223
f 234//290 194//269 220//291
f 234//290 221//292 194//269
f 224//293 217//257 338//256
f 224//293 338//256 340//294
f 221//292 224//293 223//262
f 225//264 218//281 217//257
f 194//269 221//292 223//262
f 169//230 225//264 202//275
f 228//241 202//275 227//295
f 227//295 202//275 225//264
f 228//241 227//295 238//296
f 229//297 230//276 228//241
f 233//298 230//276 229//297
f 240//277 178//218 232//278
f 341//299 232//278 231//279
f 232//278 341//299 242//300
f 234//290 220//291 236//301
f 217//257 224//293 225//264
f 225//264 224//293 235//302
f 221//292 235//302 224//293
f 244//303 236//301 226//270
f 244//303 243//304 236//301
f 235//302 237//305 225//264
f 227//295 225//264 237//305
f 227//295 342//306 247//307
f 226//270 173//215 244//303
f 251//308 250//309 173//215
f 251//308 173//215 240//277
f 239//310 229//297 228//241
f 239//310 228//241 238//296
f 229//297 354//311 241//312
f 229//297 241//312 233//298
f 256//313 240//277 232//278
f 344//314 343//315 242//300
f 341//299 344//314 242//300
f 234//290 246//316 221//292
f 243//304 234//290 236//301
f 245//317 234//290 243//304
f 345//318 246//316 234//290
f 263//319 235//302 221//292
f 235//302 257//320 237//305
f 237//305 257//320 248//321
f 238//296 227//295 247//307
f 237//305 248//321 346//322
f 249//323 350//324 346//322
f 249//323 346//322 248//321
f 239//310 238//296 254//325
f 250//309 261//326 244//303
f 173//215 250//309 244//303
f 240//277 252//327 262//328
f 252//327 260//329 262//328
f 260//329 352//330 362//331
f 240//277 255//332 252//327
f 352//330 347//333 362//331
f 348//334 353//335 359//336
f 255//332 256//313 253//337
f 355//338 241//312 354//311
f 356//339 242//300 343//315
f 357//340 349//341 359//336
f 349//341 348//334 359//336
f 256//313 255//332 240//277
f 245//317 243//304 360//342
f 246//316 263//319 221//292
f 258//343 244//303 261//326
f 345//318 361//344 246//316
f 259//345 246//316 361//344
f 264//346 258//343 261//326
f 265//347 260//329 362//331
f 251//308 262//328 250//309
f 235//302 263//319 257//320
f 269//348 267//349 264//346
f 266//350 263//319 246//316
f 265//347 262//328 260//329
f 265//347 268//351 262//328
f 261//326 269//348 264//346
f 270//352 261//326 250//309
f 268//351 250//309 262//328
f 246//316 264//346 267//349
f 266//350 246//316 267//349
f 257//320 268//351 248//321
f 263//319 272//353 257//320
f 268//351 257//320 273//354
f 270//352 363//355 261//326
f 270//352 269//348 363//355
f 270//352 267//349 269//348
f 250//309 271//356 270//352
f 271//356 250//309 268//351
f 273//354 266//350 271//356
f 273//354 271//356 268//351
f 273//354 263//319 266//350
f 272//353 263//319 273//354
f 267//349 270//352 266//350
f 270//352 271//356 266//350
l 118 136
l 351 358
l 313 319
