# Blender 4.0.2
# www.blender.org
mtllib thoracic5.mtl
o thoracic5.002
v -0.035431 0.020081 0.035181
v -0.033805 0.021711 0.034333
v -0.034217 0.024520 0.030297
v -0.030732 0.013344 0.034116
v -0.028270 0.012916 0.031165
v -0.033637 0.011806 0.031944
v -0.035364 0.013741 0.033959
v -0.037137 0.012620 0.031076
v -0.031896 0.022854 0.031343
v -0.028879 0.010370 0.020018
v -0.036948 0.020565 0.027822
v -0.025985 0.021132 0.022321
v -0.031388 0.011767 0.024973
v -0.036998 0.013252 0.026335
v -0.028345 0.022531 0.019278
v -0.031307 0.022286 0.019145
v -0.031861 0.013721 0.021161
v -0.026369 0.010019 0.016550
v -0.032529 0.020047 0.019933
v -0.021145 0.028916 0.017834
v -0.020579 0.032128 0.016142
v -0.024211 0.025537 0.015903
v -0.022837 0.026366 0.016524
v -0.023808 0.025570 0.016695
v -0.012938 0.005283 0.015171
v -0.024649 0.023994 0.017148
v -0.016662 0.004501 0.014495
v -0.023162 0.019301 0.016552
v -0.025942 0.024032 0.016987
v -0.025774 0.002253 0.014649
v -0.028218 0.007402 0.016458
v -0.029897 0.011322 0.015639
v -0.026469 0.001845 0.015413
v -0.001218 0.020035 0.012933
v -0.002515 0.021245 0.010833
v -0.009337 0.019525 0.013553
v -0.001588 0.002815 0.012387
v -0.007911 0.012011 0.012789
v -0.009527 0.016866 0.014214
v -0.017157 0.023973 0.013546
v -0.017643 0.026388 0.012112
v -0.019513 0.028434 0.013962
v -0.021277 0.033337 0.015203
v -0.021276 0.033334 0.015191
v -0.022677 0.034904 0.012664
v -0.014575 0.000876 0.012352
v -0.013859 0.013672 0.013242
v -0.020235 0.017342 0.013254
v -0.021976 0.023859 0.013682
v -0.017767 0.010725 0.012187
v -0.021471 0.014529 0.012247
v -0.024402 0.025579 0.016090
v -0.026066 0.024171 0.017047
v -0.025085 0.011037 0.012553
v -0.026972 -0.000075 0.014172
v -0.027374 -0.000795 0.012956
v -0.027526 -0.000584 0.012913
v -0.028737 -0.000937 0.013228
v 0.006535 0.019841 0.009280
v -0.010743 0.020105 0.013319
v -0.014359 0.023373 0.009780
v -0.015324 0.022230 0.013655
v -0.017356 0.025394 0.010701
v -0.022774 0.034767 0.011918
v -0.023490 0.034744 0.010936
v -0.018574 0.004226 0.011533
v -0.019807 0.013039 0.010641
v -0.021755 0.013887 0.009631
v -0.027806 0.021502 0.005864
v -0.024021 0.012843 0.011018
v -0.029143 0.020013 0.011337
v -0.028434 -0.001432 0.011061
v -0.029730 -0.001929 0.009445
v -0.030569 -0.002519 0.009445
v 0.009747 0.019819 0.006643
v 0.011772 0.002451 0.003852
v 0.006020 0.007738 0.006876
v 0.007082 0.002016 0.007610
v -0.014043 0.022211 0.007054
v -0.018551 0.019828 0.008326
v -0.025124 0.028623 0.007166
v -0.018835 0.013990 0.008307
v -0.025416 0.029698 0.008128
v -0.025367 0.029667 0.008139
v -0.014646 0.001400 0.005959
v -0.022600 0.015866 0.007509
v -0.014695 0.001384 0.005981
v -0.013241 0.002278 0.001739
v -0.025825 0.013355 0.005838
v -0.030317 -0.001205 0.006643
v -0.029831 -0.001883 0.007478
v -0.033356 -0.002102 0.006687
v -0.034127 -0.002770 0.007011
v -0.033267 -0.002512 0.007058
v -0.034076 -0.003089 0.006052
v -0.033256 -0.001714 0.006600
v -0.034724 -0.001263 0.006668
v -0.034675 -0.004989 0.006184
v -0.034683 -0.005140 0.006304
v 0.011735 0.019910 0.003524
v 0.011730 0.020016 0.003417
v 0.010723 0.001867 0.004048
v -0.011229 0.021735 0.002815
v -0.026072 0.024554 0.006052
v -0.025115 0.028395 0.007199
v -0.026082 0.025147 0.005905
v -0.028754 0.020146 0.004911
v -0.028728 0.020138 0.004892
v -0.027860 0.011749 0.005919
v -0.031991 0.001895 0.004301
v -0.032485 -0.000643 0.005158
v -0.033529 -0.002618 0.004419
v -0.034501 -0.005494 0.006283
v -0.037129 -0.010187 0.004409
v -0.042135 -0.016568 0.001426
v -0.039771 -0.013098 0.002951
v 0.012133 0.018172 -0.000596
v 0.012552 0.002478 -0.001317
v 0.010940 0.006107 0.001520
v -0.011345 0.021619 0.002799
v -0.013073 0.002787 0.000337
v -0.011814 0.002052 -0.000194
v -0.027490 0.017333 0.003447
v -0.030345 0.017402 -0.000319
v -0.031000 0.018658 0.002862
v -0.028172 0.010930 -0.000802
v -0.037774 -0.009923 0.000186
v -0.046525 -0.006971 0.000012
v -0.043760 -0.019638 0.001938
v -0.043973 -0.019152 0.001611
v -0.048139 -0.018401 0.000915
v -0.045408 -0.025042 0.001556
v -0.044797 -0.023323 0.001784
v -0.046019 -0.026148 0.000536
v -0.046104 -0.025967 -0.001544
v -0.048806 -0.025126 -0.000380
v -0.049311 -0.022218 -0.000065
v 0.011721 0.019803 -0.000361
v 0.011689 0.001860 -0.002995
v -0.010945 0.021105 -0.001525
v -0.012720 0.002243 -0.001146
v -0.013060 0.002210 -0.002456
v -0.032163 0.017318 -0.000638
v -0.030640 0.003045 -0.000561
v -0.039104 0.011179 0.000342
v -0.041155 0.008851 -0.000372
v -0.044116 -0.000959 -0.000633
v -0.046621 -0.007259 -0.000664
v -0.039938 -0.013306 -0.003185
v -0.042530 -0.017022 -0.002190
v -0.043544 -0.020290 -0.001523
v -0.044128 -0.022190 -0.001958
v -0.046797 -0.015259 -0.001837
v -0.048930 -0.018003 -0.000588
v -0.044384 -0.023170 -0.002095
v -0.046191 -0.023926 -0.002348
v -0.049084 -0.018372 -0.000558
v 0.011652 0.020084 -0.004117
v 0.010693 0.002116 -0.005375
v -0.011772 0.021478 -0.003929
v -0.013658 0.006769 -0.003762
v -0.024694 0.014252 -0.006781
v -0.030650 0.017808 -0.001585
v -0.030678 0.017775 -0.001651
v -0.030267 0.004462 -0.006152
v -0.033214 -0.001977 -0.006014
v -0.034833 -0.007543 -0.005730
v -0.039866 -0.013238 -0.003235
v 0.011463 0.020050 -0.004238
v 0.010594 0.020080 -0.006027
v 0.006637 0.011941 -0.006999
v -0.014073 0.023038 -0.010177
v -0.026347 0.024035 -0.006451
v -0.025249 0.026389 -0.006950
v -0.027524 0.019087 -0.004728
v -0.028749 0.020251 -0.005757
v -0.027240 0.012713 -0.004400
v -0.031572 -0.000253 -0.006821
v -0.029846 -0.002931 -0.008986
v -0.034072 -0.002586 -0.007205
v -0.033906 -0.002094 -0.007529
v -0.034458 -0.003588 -0.007237
v -0.034477 -0.002021 -0.007381
v 0.008457 0.020254 -0.008308
v 0.004275 0.019665 -0.011183
v 0.006568 0.001871 -0.008839
v 0.005571 0.001812 -0.009862
v -0.014487 0.022718 -0.008578
v -0.016731 0.023476 -0.009886
v -0.019245 0.014115 -0.009267
v -0.017801 0.016485 -0.008365
v -0.026216 0.024254 -0.006557
v -0.025395 0.030011 -0.008709
v -0.025264 0.029211 -0.008250
v -0.018672 0.008206 -0.011816
v -0.019495 0.013175 -0.010343
v -0.021319 0.014513 -0.009439
v -0.021228 0.017044 -0.008351
v -0.015118 0.001012 -0.011872
v -0.023761 0.013433 -0.009940
v -0.029867 -0.002660 -0.009389
v -0.029491 -0.002505 -0.010264
v -0.030221 -0.002748 -0.010062
v -0.030221 -0.001085 -0.012825
v -0.029791 -0.002425 -0.011028
v -0.003497 0.020939 -0.011638
v -0.004208 0.001611 -0.013142
v -0.002000 0.002279 -0.013144
v -0.009040 0.011962 -0.013571
v -0.016516 0.025389 -0.012121
v -0.019107 0.024295 -0.009820
v -0.017775 0.026449 -0.012060
v -0.023053 0.034919 -0.011977
v -0.024012 0.033898 -0.011025
v -0.018627 0.011759 -0.012273
v -0.019963 0.013192 -0.011454
v -0.021155 0.013888 -0.010275
v -0.021305 0.013839 -0.011608
v -0.021281 0.013603 -0.011713
v -0.018467 0.004101 -0.012987
v -0.025228 0.011428 -0.013028
v -0.022797 0.014615 -0.013588
v -0.029501 0.018649 -0.011297
v -0.032267 0.007739 -0.010674
v -0.027146 -0.000502 -0.014085
v -0.001558 0.019837 -0.013665
v -0.000959 0.020373 -0.013114
v -0.001588 0.019837 -0.013645
v -0.005946 0.018348 -0.014549
v -0.010652 0.018608 -0.014939
v -0.010963 0.021152 -0.012564
v -0.015590 0.023217 -0.014876
v -0.017996 0.025165 -0.013933
v -0.019612 0.027947 -0.014460
v -0.021778 0.034407 -0.013837
v -0.024095 0.034030 -0.011288
v -0.023197 0.034633 -0.012159
v -0.012830 0.004906 -0.016209
v -0.014262 0.013909 -0.013653
v -0.019312 0.020279 -0.013148
v -0.022075 0.024011 -0.014366
v -0.012305 0.002229 -0.015112
v -0.020402 0.015966 -0.013854
v -0.025142 0.024695 -0.017199
v -0.016648 0.008149 -0.014361
v -0.025267 0.006825 -0.015572
v -0.025949 0.001387 -0.015588
v -0.026138 0.003986 -0.016447
v -0.028677 0.007724 -0.017039
v -0.026987 -0.000516 -0.014238
v -0.021029 0.029235 -0.018596
v -0.020851 0.032244 -0.017075
v -0.022541 0.026747 -0.017370
v -0.023859 0.020861 -0.018374
v -0.023311 0.024130 -0.016572
v -0.023122 0.025964 -0.017334
v -0.024053 0.024880 -0.017788
v -0.024488 0.023871 -0.017768
v -0.023170 0.026800 -0.017169
v -0.023411 0.026183 -0.017169
v -0.022697 0.017263 -0.015461
v -0.029450 0.021941 -0.016708
v -0.025999 0.011111 -0.016539
v -0.027202 0.006932 -0.016936
v -0.029793 0.011073 -0.016382
v -0.025822 0.002881 -0.016109
v -0.028690 0.009466 -0.019400
v -0.021169 0.029055 -0.018461
v -0.025423 0.022253 -0.019927
v -0.027672 0.022928 -0.019360
v -0.026737 0.011165 -0.020675
v -0.028599 0.009857 -0.019643
v -0.031591 0.013536 -0.021468
v -0.032591 0.019329 -0.020769
v -0.032685 0.022949 -0.023015
v -0.032637 0.022901 -0.023121
v -0.027769 0.021109 -0.026051
v -0.031652 0.023583 -0.024607
v -0.029959 0.011117 -0.028600
v -0.037365 0.013016 -0.027846
v -0.036555 0.020857 -0.027911
v -0.027718 0.013251 -0.030506
v -0.034945 0.024095 -0.030661
v -0.036418 0.012735 -0.032938
v -0.033207 0.022910 -0.033416
v -0.030748 0.013834 -0.034723
v -0.030800 0.013839 -0.034699
v -0.031698 0.012866 -0.034907
v -0.036999 0.018170 -0.034357
v -0.034850 0.020140 -0.035375
v -0.034504 0.018174 -0.035901
v -0.034085 0.015822 -0.035865
v -0.026075 0.021113 0.022219
v -0.028338 0.022613 0.019250
v -0.022882 0.026288 0.016208
v -0.024640 0.023615 0.016236
v -0.024684 0.023978 0.017110
v -0.023162 0.019301 0.016552
v -0.025942 0.024032 0.016987
v -0.029897 0.011322 0.015639
v -0.026285 0.000960 0.014582
v -0.026285 0.000960 0.014582
v 0.006484 0.001761 0.008208
v -0.015007 0.022324 0.013369
v -0.029143 0.020013 0.011337
v -0.029143 0.020013 0.011337
v -0.029475 -0.002533 0.009532
v -0.029475 -0.002533 0.009532
v -0.029475 -0.002533 0.009532
v -0.030569 -0.002519 0.009445
v 0.007082 0.002016 0.007610
v -0.029831 -0.001883 0.007478
v -0.030447 -0.001053 0.006740
v -0.033356 -0.002102 0.006687
v -0.033356 -0.002102 0.006687
v -0.033356 -0.002102 0.006687
v -0.034458 -0.002272 0.007580
v -0.033915 -0.002475 0.006387
v -0.033742 -0.002657 0.006255
v -0.034005 -0.001720 0.007234
v -0.033873 -0.002085 0.006669
v -0.034005 -0.001720 0.007234
v 0.010803 0.020079 0.004924
v -0.025199 0.028539 0.007073
v -0.032485 -0.000643 0.005158
v -0.033529 -0.002618 0.004419
v -0.036962 -0.009699 0.004521
v -0.012996 0.002806 0.000357
v 0.012500 0.002483 -0.001321
v 0.011684 0.001947 -0.002919
v -0.012680 0.002372 -0.001087
v -0.030428 0.017413 -0.000381
v -0.043544 -0.020290 -0.001523
v 0.010438 0.002124 -0.005747
v -0.026892 0.012646 -0.004504
v -0.034082 -0.002576 -0.007197
v -0.034507 -0.002136 -0.007513
v -0.017801 0.016485 -0.008365
v -0.025260 0.026355 -0.006986
v -0.025343 0.029227 -0.008197
v -0.021319 0.014513 -0.009439
v -0.021228 0.017044 -0.008351
v -0.021228 0.017044 -0.008351
v -0.029879 -0.002513 -0.010869
v -0.002000 0.002279 -0.013144
v -0.004207 0.001630 -0.013135
v -0.016567 0.025257 -0.012094
v -0.024012 0.033898 -0.011025
v -0.018216 0.008431 -0.011817
v -0.021155 0.013888 -0.010275
v -0.002166 0.020338 -0.013425
v -0.010632 0.018542 -0.014886
v -0.010959 0.021152 -0.012562
v -0.023663 0.034256 -0.011757
v -0.025433 0.006751 -0.015567
v -0.022497 0.026750 -0.017565
v -0.024215 0.024893 -0.017380
v -0.024091 0.025333 -0.017547
v -0.024717 0.023359 -0.018550
v -0.023196 0.025908 -0.017163
v -0.023151 0.026368 -0.017057
v -0.022697 0.017263 -0.015461
v -0.031631 0.023360 -0.024347
v -0.034064 0.015839 -0.035775
vn -0.3719 0.3129 0.8739
vn -0.4375 -0.4370 0.7859
vn 0.4430 -0.3915 0.8065
vn 0.7471 -0.4548 0.4849
vn -0.0837 -0.9446 0.3173
vn 0.6305 0.6094 0.4808
vn 0.4580 0.2182 0.8618
vn -0.2564 0.9504 0.1762
vn -0.7789 -0.5922 0.2065
vn -0.9266 0.3440 -0.1518
vn -0.2047 -0.9242 0.3225
vn 0.8085 0.4805 0.3397
vn 0.0578 0.9662 0.2514
vn -0.5998 0.7528 -0.2711
vn -0.6236 -0.7319 -0.2749
vn -0.7952 -0.5044 -0.3365
vn 0.8428 -0.3453 0.4130
vn -0.8102 -0.4529 -0.3720
vn -0.8810 0.1100 -0.4601
vn 0.9001 0.0502 0.4327
vn -0.3423 -0.3713 0.8631
vn 0.5890 0.5674 0.5754
vn 0.2119 -0.0716 0.9747
vn 0.8671 0.1402 0.4780
vn 0.0418 0.1795 0.9829
vn -0.6762 0.3569 0.6445
vn -0.8409 0.3602 0.4039
vn 0.2484 -0.0200 0.9684
vn 0.0513 -0.1415 0.9886
vn 0.4177 0.2246 0.8804
vn 0.7389 -0.3493 0.5762
vn -0.6089 0.6430 -0.4646
vn 0.0756 -0.4876 0.8698
vn -0.0921 -0.0132 0.9957
vn -0.5046 -0.2460 0.8276
vn 0.3606 0.0806 0.9293
vn 0.5079 0.0358 0.8607
vn -0.2320 -0.8834 0.4071
vn 0.0606 -0.9936 0.0957
vn 0.8441 0.0739 0.5311
vn -0.0461 0.8729 0.4858
vn -0.0101 0.8733 0.4870
vn -0.0257 0.8733 0.4866
vn -0.0584 0.8724 0.4853
vn 0.9228 -0.3846 -0.0204
vn -0.4899 0.8705 -0.0484
vn -0.8229 0.5675 0.0266
vn -0.9602 0.1520 -0.2344
vn -0.9589 -0.2796 -0.0486
vn 0.2734 -0.3936 0.8777
vn 0.9616 -0.2486 0.1163
vn 0.4902 -0.7429 0.4558
vn -0.3168 -0.7374 0.5965
vn 0.2944 0.3905 0.8723
vn 0.1102 0.4307 0.8958
vn 0.0513 -0.0516 0.9974
vn 0.0570 0.9634 0.2618
vn 0.2412 0.9146 0.3246
vn 0.2659 0.2138 0.9400
vn 0.5132 0.8576 0.0333
vn 0.5577 0.7744 0.2989
vn 0.6158 0.5946 -0.5169
vn 0.9100 0.3019 -0.2842
vn 0.5858 0.7397 -0.3313
vn 0.4582 0.5202 0.7207
vn 0.8588 0.5035 0.0946
vn 0.5096 -0.0925 0.8554
vn 0.2370 -0.1957 0.9516
vn -0.7109 -0.0644 0.7003
vn 0.1388 -0.7141 0.6861
vn 0.5054 -0.4724 0.7221
vn -0.6109 0.6499 0.4521
vn -0.9251 -0.3608 0.1185
vn 0.5787 -0.7779 -0.2448
vn 0.8822 -0.2198 -0.4165
vn 0.9082 -0.3465 -0.2345
vn 0.3871 -0.9066 0.1681
vn 0.8509 -0.4956 -0.1741
vn 0.8140 -0.5481 -0.1921
vn 0.8876 -0.2154 -0.4072
vn -0.7812 -0.2677 0.5640
vn 0.5928 0.0695 0.8023
vn 0.6680 0.4568 0.5875
vn 0.5785 0.3029 0.7574
vn 0.0911 0.9958 0.0010
vn 0.3182 -0.9200 0.2289
vn -0.3561 0.8555 -0.3760
vn -0.5212 -0.2628 -0.8120
vn -0.5161 -0.8215 -0.2424
vn 0.0860 -0.9545 -0.2854
vn 0.7342 -0.5120 -0.4458
vn 0.3143 -0.9352 0.1628
vn -0.9646 0.1793 0.1932
vn -0.5454 -0.6459 0.5343
vn -0.0438 -0.9139 0.4035
vn 0.0909 -0.9570 -0.2753
vn 0.0119 -0.9527 -0.3036
vn 0.0618 -0.9562 -0.2860
vn 0.1189 -0.9569 -0.2648
vn 0.7868 -0.2391 -0.5690
vn 0.8753 -0.2889 -0.3879
vn 0.3726 0.7463 0.5515
vn 0.8551 -0.2571 0.4502
vn -0.1568 -0.9798 -0.1239
vn -0.5052 0.5633 -0.6538
vn 0.0566 0.1368 -0.9890
vn -0.8103 -0.4377 -0.3896
vn 0.5090 0.2728 -0.8164
vn -0.9514 0.2169 0.2184
vn -0.2650 0.5386 -0.7998
vn 0.4391 -0.3742 -0.8168
vn -0.7236 0.3856 -0.5725
vn -0.7648 0.3697 -0.5276
vn 0.0931 -0.9913 -0.0932
vn -0.4821 -0.8344 -0.2673
vn -0.6271 0.7666 -0.1377
vn 0.8713 -0.3730 -0.3190
vn 0.2148 -0.5551 -0.8036
vn 0.2714 -0.7204 -0.6382
vn 0.2400 -0.6282 -0.7402
vn -0.7139 0.0791 0.6958
vn -0.5324 -0.0306 0.8460
vn -0.1650 -0.1699 0.9715
vn 0.0086 -0.2091 0.9779
vn 0.4359 -0.6731 0.5974
vn 0.1269 -0.5733 0.8094
vn 0.8340 -0.5087 0.2137
vn 0.9463 -0.2882 0.1463
vn 0.4880 -0.8584 0.1581
vn -0.9687 -0.0336 0.2461
vn -0.5179 -0.0917 0.8505
vn 0.0792 0.9968 -0.0079
vn 0.7127 -0.6084 0.3492
vn 0.8309 0.1553 0.5343
vn 0.9301 0.2142 0.2984
vn 0.9976 -0.0629 -0.0282
vn 0.8370 0.4903 -0.2428
vn 0.4866 -0.6971 0.5266
vn -0.9293 0.1104 -0.3526
vn 0.6630 0.2511 -0.7053
vn 0.2989 0.2425 -0.9230
vn -0.1533 0.6205 -0.7691
vn 0.3470 0.3649 -0.8640
vn 0.7834 -0.3861 -0.4871
vn 0.8767 -0.4792 0.0422
vn 0.9153 -0.3559 -0.1884
vn 0.2878 -0.7694 -0.5702
vn 0.9609 -0.2560 0.1060
vn 0.9125 -0.3910 -0.1199
vn 0.8729 -0.4865 0.0365
vn -0.9065 0.4222 0.0084
vn 0.8607 -0.4828 -0.1616
vn -0.3228 -0.0442 0.9454
vn -0.8280 0.2087 0.5204
vn -0.2047 -0.2660 0.9420
vn 0.6636 0.7479 -0.0160
vn 0.5099 -0.8573 0.0704
vn 0.1251 -0.9921 -0.0030
vn -0.5833 0.7265 0.3634
vn -0.9547 -0.2796 -0.1015
vn -0.9232 -0.3482 0.1628
vn -0.8978 0.0475 0.4379
vn -0.1389 -0.9875 0.0742
vn 0.9862 -0.1566 0.0542
vn 0.5776 0.7777 -0.2482
vn 0.9079 -0.4174 0.0381
vn -0.4870 0.8734 0.0082
vn -0.7519 0.6473 -0.1251
vn -0.8165 0.2392 -0.5254
vn 0.8320 -0.5548 0.0024
vn 0.9336 -0.3536 0.0587
vn 0.5362 -0.4466 -0.7163
vn -0.1167 -0.0791 0.9900
vn -0.5803 0.0726 0.8112
vn 0.9078 -0.2411 -0.3431
vn 0.1611 -0.8889 0.4288
vn -0.3920 -0.2114 0.8953
vn -0.8551 -0.5184 -0.0017
vn 0.9194 -0.3768 0.1125
vn 0.2025 -0.8124 -0.5469
vn -0.9808 -0.1100 0.1612
vn -0.9577 0.2334 -0.1684
vn -0.5570 0.0275 -0.8301
vn 0.5890 -0.0331 -0.8074
vn 0.8254 0.1668 -0.5393
vn 0.0452 -0.9960 -0.0766
vn -0.9228 -0.3013 0.2400
vn -0.4385 -0.8651 0.2434
vn -0.2933 -0.9365 0.1920
vn 0.7016 -0.3493 0.6210
vn -0.1000 0.9398 0.3268
vn 0.0042 0.8853 0.4651
vn 0.8731 -0.4455 0.1982
vn -0.8342 0.1014 -0.5421
vn 0.6856 -0.7074 -0.1718
vn 0.5992 -0.6805 -0.4216
vn -0.5891 0.1197 -0.7992
vn -0.4219 0.0312 -0.9061
vn 0.9510 -0.2877 0.1137
vn 0.9554 -0.2951 0.0070
vn 0.2097 -0.0345 -0.9772
vn -0.0965 -0.1952 -0.9760
vn 0.7514 0.4739 -0.4592
vn 0.7920 -0.4255 -0.4378
vn -0.1080 0.9889 0.1016
vn 0.8765 -0.3027 -0.3744
vn 0.0433 -0.9983 -0.0392
vn 0.2137 -0.9584 -0.1891
vn -0.3836 -0.9131 -0.1380
vn 0.4070 0.3173 0.8565
vn 0.6109 0.7127 0.3447
vn 0.3477 -0.8908 -0.2927
vn -0.5840 0.7302 0.3545
vn 0.9099 -0.3205 0.2634
vn 0.8760 -0.4819 -0.0206
vn 0.7019 -0.5220 -0.4846
vn 0.2048 -0.2169 -0.9545
vn -0.5712 -0.2761 -0.7730
vn 0.4853 0.2076 -0.8494
vn 0.3638 0.9133 0.1833
vn -0.2606 0.7726 0.5790
vn -0.4040 0.0692 0.9121
vn 0.0875 0.5580 0.8252
vn -0.5075 -0.3168 0.8013
vn 0.3659 0.3204 0.8737
vn 0.4277 0.2573 0.8666
vn -0.8826 -0.3722 -0.2870
vn -0.7736 0.4726 0.4222
vn 0.4601 -0.8641 0.2041
vn 0.8962 -0.4340 0.0920
vn 0.5621 -0.3963 0.7260
vn 0.4635 -0.8394 0.2837
vn 0.1304 -0.9362 -0.3263
vn 0.7347 -0.3032 -0.6068
vn -0.2774 -0.4739 -0.8358
vn 0.4633 -0.1502 -0.8734
vn 0.6397 -0.2542 -0.7253
vn 0.4661 0.3129 -0.8276
vn 0.0227 0.9700 -0.2420
vn 0.2186 0.7800 -0.5864
vn 0.4412 0.8537 -0.2767
vn 0.2405 -0.7969 -0.5541
vn 0.0469 0.1905 0.9806
vn 0.6364 0.4249 0.6438
vn 0.3035 0.4235 0.8535
vn 0.4417 -0.0444 0.8961
vn -0.0603 -0.3924 0.9178
vn -0.0910 -0.3462 0.9338
vn 0.0348 0.1887 0.9814
vn -0.3841 0.3493 0.8547
vn -0.9090 -0.1888 0.3715
vn -0.7153 -0.5929 0.3699
vn -0.6952 -0.2255 -0.6826
vn 0.0318 -0.8694 0.4931
vn 0.2487 -0.7358 0.6299
vn -0.8998 0.4356 -0.0238
vn -0.6331 -0.3746 -0.6774
vn -0.0785 -0.9879 -0.1341
vn 0.4007 -0.9033 -0.1531
vn -0.1009 -0.9754 -0.1959
vn 0.8442 -0.1139 0.5238
vn -0.4804 -0.5436 -0.6882
vn -0.0975 -0.8820 -0.4611
vn 0.3369 -0.9156 -0.2193
vn 0.1524 0.1784 -0.9721
vn 0.1939 -0.0324 -0.9805
vn -0.0840 0.0507 -0.9952
vn 0.1087 0.6855 -0.7199
vn 0.3492 0.4616 -0.8155
vn -0.0773 -0.0829 -0.9936
vn 0.2253 0.0048 -0.9743
vn 0.6173 0.6947 -0.3692
vn 0.4980 0.6566 0.5665
vn 0.6989 0.6187 0.3588
vn 0.4737 0.3203 0.8204
vn -0.0881 -0.6714 -0.7359
vn -0.9627 0.0976 -0.2524
vn -0.7580 0.1733 -0.6288
vn -0.3908 -0.9172 0.0777
vn -0.4101 -0.9052 0.1116
vn -0.4707 -0.7902 0.3924
vn -0.1642 -0.8941 -0.4167
vn 0.6401 -0.6107 -0.4661
vn -0.5909 0.7458 -0.3074
vn -0.8519 -0.0120 -0.5236
vn -0.5519 0.1115 -0.8264
vn 0.6200 -0.5514 -0.5582
vn -0.9754 -0.1805 -0.1266
vn -0.1675 -0.5669 -0.8066
vn -0.0096 0.6513 -0.7587
vn 0.1017 0.4960 -0.8624
vn -0.1012 0.0086 -0.9948
vn 0.1426 0.4246 -0.8941
vn 0.3416 0.2100 -0.9161
vn 0.5558 0.5907 -0.5849
vn 0.7311 -0.1715 -0.6604
vn 0.2529 0.6346 -0.7303
vn 0.3228 0.9185 -0.2284
vn -0.7382 0.3972 -0.5453
vn -0.8821 0.2277 -0.4123
vn 0.1590 -0.5520 -0.8185
vn 0.1892 -0.0467 -0.9808
vn 0.6306 -0.1034 -0.7692
vn 0.1212 -0.3158 -0.9411
vn 0.7139 -0.2473 -0.6551
vn 0.8514 0.0683 -0.5201
vn 0.2682 -0.6367 -0.7230
vn 0.9296 -0.2252 -0.2918
vn 0.9917 -0.0735 0.1057
vn 0.5975 -0.2689 -0.7555
vn 0.3206 -0.2501 -0.9136
vn 0.6107 -0.0187 -0.7916
vn -0.2304 -0.3089 -0.9228
vn 0.8875 -0.2030 -0.4137
vn 0.5396 -0.5791 -0.6111
vn -0.7316 0.2978 -0.6132
vn -0.1997 -0.0706 -0.9773
vn -0.5096 -0.0799 -0.8567
vn 0.8305 -0.0339 -0.5560
vn 0.7053 -0.4214 -0.5701
vn 0.6984 -0.3348 -0.6326
vn 0.6646 0.2335 -0.7098
vn 0.4677 0.2672 -0.8426
vn -0.5268 0.6529 -0.5442
vn -0.0812 0.7984 -0.5967
vn 0.8001 0.3981 -0.4487
vn 0.2822 0.1894 -0.9405
vn 0.4218 -0.4749 -0.7723
vn 0.7950 -0.5464 -0.2633
vn -0.4862 0.8007 0.3500
vn -0.7969 -0.5233 -0.3018
vn -0.8174 -0.4931 0.2979
vn -0.9056 0.0406 0.4222
vn -0.1586 0.9810 -0.1120
vn 0.7052 0.5869 -0.3979
vn -0.1771 0.9597 0.2180
vn -0.8199 0.3721 0.4351
vn 0.0014 -0.7852 -0.6192
vn 0.8337 -0.3211 -0.4493
vn -0.1174 0.9830 0.1409
vn -0.2953 0.9171 0.2679
vn 0.1344 -0.9833 -0.1228
vn -0.9116 0.3321 0.2423
vn -0.3962 0.9070 -0.1428
vn -0.8061 -0.5389 0.2444
vn 0.6267 0.0676 -0.7763
vn 0.3216 0.6808 -0.6581
vn -0.8500 0.1122 -0.5146
vn 0.1749 -0.6480 -0.7412
vn -0.6259 -0.6717 -0.3963
vn -0.0738 0.2731 -0.9592
vn 0.6482 0.2517 -0.7186
vn -0.1701 0.4406 -0.8815
vn -0.4765 -0.3005 -0.8263
vn 0.3651 0.0188 -0.9308
s 1
usemtl mtl1.1080
f 1//1 7//2 4//3
f 5//4 4//3 6//5
f 9//6 4//3 5//4
f 1//1 4//3 9//6
f 2//7 3//8 1//1
f 6//5 4//3 7//2
f 7//2 1//1 8//9
f 1//1 11//10 8//9
f 8//9 6//5 7//2
f 1//1 9//6 2//7
f 3//8 2//7 9//6
f 5//4 6//5 10//11
f 11//10 1//1 3//8
f 9//6 5//4 12//12
f 15//13 3//8 9//6
f 16//14 3//8 15//13
f 10//11 6//5 13//15
f 6//5 8//9 13//15
f 14//16 13//15 8//9
f 11//10 14//16 8//9
f 15//13 9//6 12//12
f 10//11 18//17 5//4
f 16//14 11//10 3//8
f 13//15 14//16 17//18
f 11//10 19//19 14//16
f 13//15 17//18 10//11
f 16//14 19//19 11//10
f 17//18 14//16 19//19
f 28//20 5//4 18//17
f 12//12 5//4 28//20
f 31//21 18//17 10//11
f 21//22 20//23 42//24
f 22//25 20//23 43//26
f 20//23 21//22 43//26
f 22//25 43//26 45//27
f 38//28 25//29 37//30
f 42//24 20//23 24//31
f 23//32 24//31 20//23
f 295//33 20//23 22//25
f 47//34 27//35 25//29
f 38//28 47//34 25//29
f 296//36 295//33 22//25
f 29//37 296//36 22//25
f 46//38 25//29 27//35
f 25//29 46//38 303//39
f 28//20 26//40 12//12
f 293//41 297//42 299//43
f 294//44 293//41 299//43
f 54//45 28//20 18//17
f 15//13 53//46 16//14
f 69//47 71//48 16//14
f 32//49 17//18 19//19
f 71//48 19//19 16//14
f 33//50 18//17 31//21
f 33//50 30//51 18//17
f 54//45 18//17 30//51
f 31//21 10//11 17//18
f 17//18 32//49 31//21
f 55//52 30//51 33//50
f 33//50 31//21 58//53
f 31//21 32//49 58//53
f 55//52 33//50 58//53
f 34//54 36//55 39//56
f 36//55 34//54 35//57
f 38//28 34//54 39//56
f 60//58 36//55 35//57
f 38//28 39//56 47//34
f 39//56 40//59 47//34
f 40//59 39//56 36//55
f 60//58 61//60 62//61
f 62//61 61//60 63//62
f 44//63 21//22 64//64
f 304//65 41//66 40//59
f 40//59 41//66 42//24
f 42//24 64//64 21//22
f 42//24 49//67 40//59
f 40//59 49//67 48//68
f 42//24 24//31 49//67
f 47//34 48//68 50//69
f 48//68 51//70 50//69
f 51//70 48//68 298//71
f 48//68 26//40 28//20
f 48//68 49//67 26//40
f 49//67 24//31 26//40
f 52//72 22//25 45//27
f 47//34 50//69 27//35
f 66//73 27//35 50//69
f 298//71 54//45 51//70
f 27//35 66//73 46//38
f 51//70 54//45 70//74
f 53//46 69//47 16//14
f 56//75 30//51 301//76
f 57//77 302//78 55//52
f 56//75 109//79 30//51
f 56//75 72//80 109//79
f 55//52 58//53 57//77
f 58//53 32//49 96//81
f 38//28 77//82 75//83
f 34//54 38//28 59//84
f 75//83 59//84 38//28
f 103//85 60//58 35//57
f 102//86 303//39 46//38
f 77//82 38//28 37//30
f 61//60 60//58 103//85
f 63//62 41//66 62//61
f 41//66 64//64 42//24
f 63//62 65//87 41//66
f 41//66 65//87 64//64
f 64//64 65//87 45//27
f 40//59 48//68 47//34
f 52//72 45//27 69//47
f 82//88 66//73 50//69
f 50//69 67//89 82//88
f 67//89 50//69 51//70
f 51//70 68//90 67//89
f 52//72 69//47 53//46
f 68//90 51//70 70//74
f 89//91 70//74 54//45
f 32//49 19//19 71//48
f 109//79 54//45 30//51
f 73//92 57//77 58//53
f 320//93 300//93 305//93
f 96//81 74//94 58//53
f 74//94 307//95 58//53
f 91//96 309//97 310//98
f 91//96 310//98 92//99
f 90//100 72//80 308//101
f 35//57 34//54 59//84
f 78//102 76//103 37//30
f 77//82 37//30 76//103
f 102//86 46//38 122//104
f 79//105 82//88 80//106
f 63//62 61//60 79//105
f 79//105 80//106 63//62
f 79//105 88//107 82//88
f 63//62 80//106 65//87
f 80//106 81//108 65//87
f 83//109 45//27 65//87
f 65//87 105//110 84//110
f 82//88 86//111 80//106
f 83//109 69//47 45//27
f 324//112 106//113 83//109
f 106//113 69//47 83//109
f 122//104 46//38 85//114
f 66//73 82//88 88//107
f 82//88 67//89 68//90
f 82//88 68//90 86//111
f 68//90 89//91 86//111
f 66//73 87//115 46//38
f 87//115 85//114 46//38
f 87//115 66//73 88//107
f 70//74 89//91 68//90
f 89//91 54//45 109//79
f 71//48 69//47 125//116
f 90//100 109//79 72//80
f 110//117 109//79 90//100
f 312//118 314//119 313//120
f 306//121 97//122 321//123
f 322//124 93//125 94//126
f 94//126 93//125 95//127
f 98//128 95//127 93//125
f 112//129 315//129 318//129
f 317//130 97//122 99//131
f 75//83 101//132 59//84
f 75//83 100//133 323//134
f 35//57 59//84 101//132
f 119//135 117//136 77//82
f 75//83 77//82 117//136
f 76//103 118//137 119//135
f 119//135 77//82 76//103
f 102//86 76//103 311//138
f 79//105 120//139 88//107
f 123//140 80//106 86//111
f 81//108 80//106 104//141
f 80//106 123//140 104//141
f 108//142 104//141 123//140
f 104//141 108//142 69//47
f 108//142 107//143 69//47
f 86//111 89//91 123//140
f 125//116 69//47 107//143
f 111//144 316//145 326//146
f 313//120 314//119 325//147
f 90//100 111//144 110//117
f 326//146 110//117 111//144
f 319//148 113//149 326//146
f 113//149 127//150 326//146
f 110//117 326//146 127//150
f 146//151 97//122 306//121
f 127//150 113//149 114//152
f 116//153 97//122 128//154
f 327//155 99//131 116//153
f 97//122 116//153 99//131
f 100//133 117//136 138//156
f 138//156 35//57 101//132
f 117//136 100//133 75//83
f 102//86 329//157 76//103
f 139//158 329//157 102//86
f 35//57 160//159 103//85
f 61//60 103//85 79//105
f 121//160 88//107 140//161
f 140//161 161//162 121//160
f 88//107 120//139 140//161
f 122//104 141//163 102//86
f 88//107 122//104 85//114
f 122//104 88//107 121//160
f 89//91 126//164 123//140
f 124//165 125//116 108//142
f 108//142 123//140 124//165
f 109//79 110//117 144//166
f 109//79 144//166 126//164
f 89//91 109//79 126//164
f 143//167 71//48 125//116
f 306//121 145//168 146//151
f 97//122 146//151 128//154
f 146//151 148//169 128//154
f 114//152 115//170 127//150
f 115//170 129//171 150//172
f 116//153 130//173 115//170
f 130//173 116//153 131//174
f 116//153 128//154 131//174
f 129//171 133//175 134//176
f 130//173 131//174 132//177
f 134//176 132//177 136//178
f 155//179 134//176 135//180
f 135//180 134//176 136//178
f 137//181 136//178 132//177
f 131//174 137//181 132//177
f 154//182 137//181 131//174
f 137//181 157//183 136//178
f 171//184 117//136 159//185
f 117//136 119//135 159//185
f 118//137 159//185 119//135
f 103//85 160//159 140//161
f 102//86 141//163 207//186
f 121//160 161//162 142//187
f 141//163 122//104 328//188
f 331//189 121//160 142//187
f 126//164 124//165 123//140
f 162//190 124//165 126//164
f 332//191 163//192 143//167
f 124//165 143//167 125//116
f 177//193 126//164 144//166
f 144//166 110//117 127//150
f 71//48 143//167 145//168
f 145//168 224//194 146//151
f 168//195 115//170 149//196
f 147//197 153//198 148//169
f 149//196 115//170 150//172
f 148//169 153//198 154//182
f 131//174 128//154 154//182
f 148//169 154//182 128//154
f 150//172 129//171 151//199
f 333//200 152//201 150//172
f 150//172 152//201 153//198
f 153//198 157//183 154//182
f 155//179 129//171 134//176
f 151//199 129//171 155//179
f 152//201 156//202 153//198
f 135//180 156//202 152//201
f 135//180 136//178 156//202
f 153//198 156//202 157//183
f 157//183 156//202 136//178
f 117//136 170//203 158//204
f 169//205 138//156 117//136
f 169//205 170//203 138//156
f 138//156 170//203 35//57
f 171//184 170//203 117//136
f 159//185 118//137 330//206
f 139//158 186//207 334//208
f 142//187 199//209 141//163
f 162//190 175//210 164//211
f 126//164 335//212 162//190
f 124//165 162//190 164//211
f 176//213 143//167 163//192
f 165//214 177//193 144//166
f 144//166 127//150 165//214
f 166//215 165//214 127//150
f 147//197 146//151 224//194
f 166//215 127//150 167//216
f 167//216 127//150 115//170
f 182//217 147//197 183//218
f 182//217 153//198 147//197
f 167//216 115//170 168//195
f 167//216 149//196 182//217
f 150//172 153//198 182//217
f 149//196 150//172 182//217
f 158//204 170//203 169//205
f 187//219 171//184 159//185
f 186//207 139//158 102//86
f 102//86 207//186 186//207
f 172//220 160//159 35//57
f 140//161 188//221 161//162
f 161//162 188//221 191//222
f 188//221 189//223 191//222
f 191//222 190//224 161//162
f 162//190 211//225 175//210
f 175//210 211//225 174//226
f 220//227 199//209 142//187
f 164//211 175//210 176//213
f 174//226 173//228 175//210
f 173//228 176//213 175//210
f 162//190 177//193 200//229
f 145//168 143//167 176//213
f 177//193 165//214 221//230
f 165//214 178//231 179//232
f 178//231 166//215 181//233
f 178//231 181//233 179//232
f 178//231 165//214 166//215
f 166//215 167//216 180//234
f 180//234 181//233 166//215
f 182//217 180//234 167//216
f 336//235 183//218 181//233
f 182//217 337//236 180//234
f 183//218 147//197 224//194
f 171//184 184//237 170//203
f 171//184 185//238 184//237
f 170//203 206//239 35//57
f 170//203 227//240 206//239
f 170//203 185//238 227//240
f 231//241 35//57 206//239
f 186//207 207//186 345//242
f 188//221 160//159 172//220
f 189//223 211//225 338//243
f 213//244 174//226 211//225
f 193//245 174//226 213//244
f 198//246 211//225 162//190
f 191//222 342//247 197//248
f 343//249 338//243 211//225
f 192//250 339//250 340//250
f 141//163 199//209 207//186
f 161//162 190//224 195//251
f 195//251 196//252 215//253
f 196//252 195//251 190//224
f 217//254 196//252 190//224
f 341//255 162//190 200//229
f 191//222 197//248 190//224
f 190//224 341//255 217//254
f 341//255 200//229 217//254
f 341//255 198//246 162//190
f 142//187 161//162 195//251
f 220//227 142//187 195//251
f 173//228 223//256 176//213
f 176//213 223//256 145//168
f 165//214 179//232 221//230
f 145//168 223//256 224//194
f 249//257 183//218 224//194
f 179//232 181//233 201//258
f 202//259 201//258 203//260
f 181//233 203//260 201//258
f 225//261 179//232 202//259
f 204//262 203//260 181//233
f 204//262 205//263 203//260
f 202//259 344//264 225//261
f 203//260 344//264 202//259
f 204//262 181//233 183//218
f 227//240 185//238 226//265
f 171//184 226//265 185//238
f 226//265 171//184 229//266
f 206//239 230//267 353//268
f 231//241 172//220 35//57
f 187//219 208//269 238//270
f 187//219 238//270 171//184
f 238//270 209//271 171//184
f 231//241 210//272 172//220
f 189//223 188//221 172//220
f 189//223 172//220 347//273
f 347//273 212//274 189//223
f 189//223 212//274 211//225
f 213//244 211//225 212//274
f 193//245 213//244 214//275
f 199//209 242//276 207//186
f 194//277 259//278 173//228
f 350//279 218//280 196//252
f 215//253 196//252 216//281
f 216//281 196//252 218//280
f 215//253 216//281 219//282
f 217//254 200//229 219//282
f 219//282 200//229 222//283
f 259//278 244//284 173//228
f 220//227 242//276 199//209
f 349//285 245//286 220//227
f 222//283 200//229 221//230
f 223//256 173//228 244//284
f 221//230 200//229 177//193
f 179//232 247//287 221//230
f 224//194 223//256 265//288
f 225//261 247//287 179//232
f 205//263 204//262 250//289
f 225//261 205//263 250//289
f 225//261 344//264 205//263
f 183//218 249//257 204//262
f 227//240 226//265 228//290
f 228//290 351//291 227//240
f 351//291 228//290 230//267
f 230//267 228//290 229//266
f 227//240 230//267 206//239
f 229//266 171//184 209//271
f 229//266 209//271 230//267
f 209//271 239//292 232//293
f 230//267 209//271 232//293
f 231//241 233//294 210//272
f 352//295 232//293 231//241
f 232//293 233//294 231//241
f 210//272 234//296 212//274
f 233//294 234//296 210//272
f 252//297 212//274 234//296
f 212//274 235//298 213//244
f 212//274 252//297 235//298
f 235//298 252//297 237//299
f 236//300 237//299 252//297
f 252//297 259//278 236//300
f 208//269 346//301 242//276
f 208//269 242//276 238//270
f 209//271 238//270 239//292
f 240//302 233//294 232//293
f 240//302 232//293 239//292
f 233//294 240//302 241//303
f 234//296 233//294 241//303
f 259//278 194//277 236//300
f 215//253 239//292 245//286
f 243//304 240//302 239//292
f 215//253 219//282 243//304
f 239//292 215//253 243//304
f 240//302 243//304 261//305
f 254//306 240//302 261//305
f 254//306 241//303 240//302
f 242//276 220//227 238//270
f 238//270 220//227 245//286
f 238//270 245//286 239//292
f 349//285 215//253 245//286
f 243//304 219//282 362//307
f 222//283 362//307 219//282
f 221//230 263//308 222//283
f 246//309 263//308 221//230
f 247//287 266//310 246//309
f 266//310 264//311 355//312
f 246//309 221//230 247//287
f 266//310 247//287 248//313
f 247//287 204//262 249//257
f 248//313 247//287 249//257
f 248//313 249//257 264//311
f 265//288 249//257 224//194
f 247//287 250//289 204//262
f 251//314 234//296 241//303
f 251//314 252//297 234//296
f 253//315 251//314 241//303
f 268//316 259//278 252//297
f 361//317 259//278 356//318
f 254//306 255//319 241//303
f 241//303 256//320 253//315
f 255//319 256//320 241//303
f 255//319 257//321 256//320
f 255//319 254//306 357//322
f 357//322 254//306 258//323
f 244//284 358//324 359//325
f 358//324 244//284 361//317
f 258//323 254//306 269//326
f 358//324 361//317 360//327
f 244//284 260//328 361//317
f 259//278 260//328 244//284
f 261//305 263//308 254//306
f 254//306 263//308 271//329
f 263//308 261//305 222//283
f 223//256 244//284 262//330
f 263//308 264//311 271//329
f 263//308 355//312 264//311
f 271//329 264//311 249//257
f 267//331 265//288 273//332
f 274//333 265//288 223//256
f 265//288 274//333 273//332
f 267//331 249//257 265//288
f 259//278 268//316 356//318
f 359//325 270//334 244//284
f 277//335 270//334 359//325
f 270//334 262//330 244//284
f 262//330 270//334 276//336
f 275//337 223//256 262//330
f 223//256 275//337 274//333
f 249//257 272//338 271//329
f 272//338 267//331 273//332
f 277//335 269//326 254//306
f 282//339 254//306 271//329
f 277//335 278//340 270//334
f 276//336 270//334 363//341
f 272//338 279//342 271//329
f 274//333 275//337 281//343
f 272//338 273//332 279//342
f 282//339 277//335 254//306
f 281//343 275//337 283//344
f 280//345 274//333 281//343
f 280//345 273//332 274//333
f 277//335 282//339 286//346
f 363//341 283//344 276//336
f 279//342 282//339 271//329
f 280//345 279//342 273//332
f 285//347 278//340 277//335
f 283//344 363//341 278//340
f 285//347 283//344 278//340
f 283//344 289//348 281//343
f 288//349 279//342 284//350
f 289//348 280//345 281//343
f 284//350 279//342 280//345
f 284//350 280//345 289//348
f 282//339 288//349 286//346
f 286//346 288//349 287//351
f 291//352 277//335 286//346
f 277//335 291//352 285//347
f 285//347 290//353 283//344
f 288//349 282//339 279//342
f 290//353 289//348 283//344
f 292//354 288//349 284//350
f 292//354 284//350 289//348
f 290//353 285//347 291//352
f 291//352 287//351 288//349
f 291//352 288//349 364//355
f 292//354 289//348 290//353
l 348 354
