# Blender 4.0.2
# www.blender.org
mtllib 1mc_r.mtl
o 1mc_r.002
v 0.009400 -0.005617 -0.000730
v 0.009376 -0.004584 -0.003011
v 0.007469 -0.001166 -0.000032
v 0.008824 -0.003868 -0.004762
v 0.007403 -0.001061 -0.000910
v 0.005725 0.001987 0.002395
v 0.006626 -0.001564 0.003422
v 0.008120 -0.004969 0.001996
v 0.010979 -0.008556 -0.002117
v 0.006799 0.000335 -0.002922
v 0.004860 0.002240 0.004508
v 0.005309 0.002851 -0.000505
v 0.009564 -0.008653 0.000616
v 0.011789 -0.008964 -0.004786
v 0.007511 -0.002064 -0.005163
v 0.005411 -0.000358 0.004895
v 0.006277 -0.003069 0.004407
v 0.004422 0.003664 0.003018
v 0.004046 0.004242 0.001307
v 0.008862 -0.008606 0.001381
v 0.007639 -0.006069 0.002912
v 0.010690 -0.007896 -0.007222
v 0.011314 -0.008281 -0.006293
v 0.008694 -0.004763 -0.006172
v 0.005435 0.000739 -0.005046
v 0.004342 0.001788 0.005359
v 0.004947 0.002915 -0.002012
v 0.003491 0.003796 0.004130
v 0.012327 -0.014088 -0.001614
v 0.010036 -0.012056 0.000390
v 0.012977 -0.011868 -0.003957
v 0.002625 0.002507 0.005938
v 0.005579 -0.003305 0.004865
v 0.004198 -0.000941 0.006068
v 0.003096 0.004382 0.003078
v 0.007445 -0.007671 0.002330
v 0.011802 -0.014590 -0.001096
v 0.011019 -0.009701 -0.008587
v 0.008961 -0.007757 -0.007759
v 0.005458 -0.004616 0.004549
v 0.003969 -0.002716 0.005891
v 0.003851 0.003940 -0.000880
v 0.009022 -0.012109 0.000602
v 0.016991 -0.018547 -0.008957
v 0.014636 -0.014245 -0.007516
v 0.014646 -0.016091 -0.004307
v 0.012964 -0.017083 -0.002099
v 0.013032 -0.012259 -0.008790
v 0.005998 -0.004605 -0.006595
v 0.005546 -0.002404 -0.006230
v 0.003695 0.000526 -0.006045
v 0.001922 0.003381 0.005257
v 0.006361 -0.008750 0.001747
v 0.002315 0.004804 -0.000694
v 0.002087 0.004996 0.000766
v 0.010957 -0.015399 -0.000825
v 0.012784 -0.017605 -0.002024
v 0.003523 0.002735 -0.003013
v 0.002063 -0.000445 -0.006562
v 0.002518 -0.001310 -0.006793
v 0.002510 0.003481 -0.003018
v 0.001981 -0.001357 0.006268
v 0.001564 0.001080 0.006055
v 0.002991 -0.006571 0.003525
v 0.001952 0.004298 -0.002008
v 0.001484 0.005017 0.001283
v 0.000417 0.004489 0.004010
v 0.007748 -0.012618 -0.000397
v 0.011255 -0.017582 -0.001862
v 0.014608 -0.020369 -0.003308
v 0.008144 -0.008412 -0.007957
v 0.009975 -0.011459 -0.009420
v 0.012693 -0.013184 -0.010367
v 0.004046 -0.003426 -0.006349
v 0.001574 0.000887 -0.005689
v 0.001642 0.002074 -0.004613
v 0.001238 0.002612 0.005591
v 0.003659 -0.009219 0.001033
v 0.004733 -0.010942 -0.000427
v 0.001244 0.004378 -0.001128
v 0.005502 -0.013942 -0.002245
v 0.015394 -0.015922 -0.009463
v 0.017971 -0.020919 -0.009112
v 0.017133 -0.022785 -0.005582
v 0.005748 -0.005932 -0.006832
v 0.008013 -0.010051 -0.008219
v 0.002884 -0.003852 -0.006107
v 0.001329 -0.004496 0.005611
v 0.000290 -0.000052 0.006691
v 0.000690 -0.001842 0.006593
v -0.000034 0.002679 0.005880
v 0.001939 -0.008396 0.002671
v 0.001620 -0.009774 0.000729
v 0.000003 0.004258 0.003963
v 0.009621 -0.019342 -0.004227
v 0.006982 -0.016574 -0.003987
v 0.003911 -0.012637 -0.002185
v 0.018248 -0.020803 -0.011162
v 0.016145 -0.022848 -0.004404
v 0.011245 -0.019578 -0.003036
v 0.013678 -0.021581 -0.003267
v 0.012709 -0.015038 -0.011693
v 0.004120 -0.006701 -0.006092
v 0.005345 -0.007064 -0.006838
v 0.000958 -0.002117 -0.006465
v -0.000016 -0.004867 0.005253
v 0.000657 -0.007163 0.003779
v 0.000088 0.004174 0.001128
v -0.000764 0.003147 0.000775
v -0.000658 0.003321 0.004724
v 0.005202 -0.014502 -0.003913
v 0.016870 -0.018851 -0.011595
v 0.018135 -0.024905 -0.005644
v 0.015274 -0.023900 -0.003964
v 0.012269 -0.022603 -0.004173
v 0.013306 -0.023045 -0.003796
v 0.006400 -0.009266 -0.007235
v 0.011968 -0.015454 -0.011466
v 0.008345 -0.014824 -0.008716
v 0.014636 -0.018548 -0.013709
v 0.002202 -0.004337 -0.005462
v -0.001546 -0.000721 -0.005183
v -0.000578 0.000561 -0.004976
v 0.000768 0.003011 -0.002525
v -0.001269 -0.004693 0.004678
v 0.000038 -0.002530 0.006212
v -0.000663 -0.009512 0.001031
v -0.002046 0.000818 0.001507
v -0.001579 0.001598 -0.000841
v 0.000986 -0.010660 -0.000725
v 0.020103 -0.024781 -0.010686
v 0.017032 -0.026159 -0.004259
v 0.005893 -0.012685 -0.006859
v 0.005030 -0.009721 -0.006407
v 0.011228 -0.017247 -0.011011
v 0.003293 -0.006957 -0.005461
v -0.000323 -0.002915 -0.005727
v -0.001156 0.001370 -0.003162
v -0.000456 0.000028 0.006148
v -0.000794 -0.008469 0.002174
v 0.008954 -0.020772 -0.006959
v 0.005022 -0.014037 -0.004932
v 0.002272 -0.011561 -0.002400
v 0.020157 -0.023643 -0.012601
v 0.020937 -0.028402 -0.008790
v 0.021349 -0.028244 -0.010348
v 0.021843 -0.028012 -0.011578
v 0.021024 -0.024792 -0.012535
v 0.018769 -0.021808 -0.014275
v 0.017855 -0.021800 -0.015328
v 0.015205 -0.026885 -0.004040
v 0.010853 -0.024394 -0.006762
v 0.013329 -0.026000 -0.004479
v 0.014091 -0.026091 -0.004060
v 0.007714 -0.016276 -0.008094
v 0.000079 -0.005516 -0.004656
v -0.000599 -0.004252 -0.005280
v -0.002510 0.000022 -0.004208
v -0.003450 -0.006760 0.002231
v -0.003059 -0.000329 0.000424
v -0.003205 0.000064 -0.003308
v -0.002073 -0.001409 0.003735
v -0.001347 0.000660 0.004588
v 0.007030 -0.017467 -0.006207
v -0.000894 -0.009882 -0.000479
v -0.000289 -0.009819 -0.002263
v 0.020241 -0.028818 -0.007397
v 0.021981 -0.027252 -0.013413
v 0.021603 -0.025350 -0.013726
v 0.021141 -0.024429 -0.014065
v 0.017737 -0.027631 -0.004980
v 0.011643 -0.024206 -0.005486
v 0.015026 -0.028889 -0.005041
v 0.002900 -0.010743 -0.004466
v 0.011288 -0.020748 -0.011608
v 0.008624 -0.019186 -0.008567
v 0.015996 -0.021239 -0.015543
v -0.001017 -0.008353 -0.002917
v -0.000090 -0.007083 -0.003981
v -0.002243 -0.004896 -0.004298
v -0.002543 -0.003689 0.003652
v -0.004528 -0.005885 0.001890
v -0.003556 -0.001856 0.001556
v -0.005357 -0.001384 -0.001919
v 0.010511 -0.024921 -0.008492
v 0.009134 -0.020915 -0.008618
v 0.002095 -0.011060 -0.003502
v 0.021748 -0.026562 -0.014471
v 0.019280 -0.023774 -0.016130
v 0.017602 -0.022618 -0.016018
v 0.020045 -0.023478 -0.015373
v 0.020825 -0.024391 -0.015429
v 0.018773 -0.029080 -0.006355
v 0.012571 -0.026089 -0.005859
v 0.014020 -0.028806 -0.005858
v 0.010622 -0.023183 -0.010990
v 0.013650 -0.019610 -0.013962
v 0.015306 -0.022363 -0.016001
v -0.003401 -0.003775 -0.003954
v -0.003605 -0.001655 -0.004360
v -0.002034 -0.008988 0.000707
v -0.004310 -0.004152 0.002018
v -0.006023 -0.003055 0.000017
v -0.006168 -0.002371 -0.000994
v -0.005369 -0.001609 -0.002958
v 0.021213 -0.030695 -0.009592
v 0.020308 -0.030470 -0.007718
v 0.021391 -0.030779 -0.010905
v 0.016291 -0.029029 -0.004941
v 0.012004 -0.026817 -0.006741
v 0.011661 -0.028248 -0.007938
v 0.011459 -0.024004 -0.012545
v 0.013066 -0.023596 -0.014608
v -0.003148 -0.006464 -0.002976
v -0.003571 -0.007392 0.000040
v -0.004579 -0.006604 0.001231
v -0.002173 -0.008802 -0.001230
v 0.019725 -0.032133 -0.008048
v 0.021464 -0.025741 -0.015217
v 0.021577 -0.028944 -0.015394
v 0.016926 -0.027110 -0.017309
v 0.017705 -0.027148 -0.017302
v 0.017844 -0.030994 -0.007436
v 0.011327 -0.029083 -0.009741
v 0.011933 -0.029455 -0.007841
v 0.013497 -0.028841 -0.007181
v 0.011243 -0.025970 -0.011814
v -0.005140 -0.002872 -0.003646
v -0.006435 -0.003919 -0.000419
v -0.005981 -0.005170 0.000367
v -0.006218 -0.003225 -0.002398
v -0.003269 -0.007181 -0.002109
v 0.020425 -0.032571 -0.009663
v 0.021983 -0.028851 -0.013605
v 0.020583 -0.027311 -0.016385
v 0.019057 -0.028589 -0.017687
v 0.015187 -0.026815 -0.017508
v 0.013967 -0.026368 -0.017141
v 0.011149 -0.030671 -0.009454
v 0.015245 -0.030564 -0.007417
v -0.004495 -0.005561 -0.002509
v -0.005814 -0.003834 -0.002870
v -0.006563 -0.003758 -0.001497
v -0.005362 -0.002228 -0.003425
v 0.011657 -0.029440 -0.011029
v 0.020691 -0.031949 -0.012657
v 0.020935 -0.028888 -0.016426
v 0.016612 -0.028583 -0.018376
v 0.015941 -0.031722 -0.008252
v 0.016087 -0.033657 -0.008974
v 0.011380 -0.026109 -0.013897
v 0.011661 -0.025521 -0.014510
v 0.013032 -0.025136 -0.015738
v -0.005685 -0.005851 -0.000668
v 0.019153 -0.033615 -0.013278
v 0.020270 -0.028829 -0.017125
v 0.015631 -0.029636 -0.018681
v 0.013197 -0.027134 -0.017447
v 0.014533 -0.027912 -0.018125
v 0.018122 -0.034245 -0.009893
v 0.016765 -0.034265 -0.009519
v 0.012216 -0.031260 -0.008528
v 0.011450 -0.027747 -0.013601
v 0.011761 -0.027273 -0.016871
v -0.006282 -0.004639 -0.001784
v 0.011273 -0.030655 -0.010613
v 0.018460 -0.034324 -0.011095
v 0.019083 -0.032845 -0.014817
v 0.019468 -0.030786 -0.016915
v 0.017549 -0.030219 -0.018393
v 0.014003 -0.029892 -0.018321
v 0.013837 -0.031955 -0.008330
v 0.010873 -0.028299 -0.014881
v 0.010937 -0.027013 -0.015080
v 0.012061 -0.029340 -0.013552
v 0.012120 -0.030505 -0.012411
v 0.012150 -0.031939 -0.012084
v 0.017495 -0.034674 -0.012676
v 0.017633 -0.032914 -0.015918
v 0.016833 -0.031078 -0.018427
v 0.012666 -0.029907 -0.017495
v 0.011550 -0.031370 -0.010559
v 0.012859 -0.032651 -0.009733
v 0.016712 -0.034318 -0.014106
v 0.017279 -0.032047 -0.017357
v 0.014714 -0.030743 -0.018354
v 0.015777 -0.034962 -0.010846
v 0.011367 -0.029561 -0.015085
v 0.013430 -0.033908 -0.010968
v 0.012245 -0.031967 -0.013907
v 0.015084 -0.032569 -0.017161
v 0.011013 -0.028078 -0.016008
v 0.013018 -0.030916 -0.017259
v 0.015630 -0.034827 -0.012353
v 0.014904 -0.034368 -0.010173
v 0.012389 -0.031210 -0.015066
v 0.012013 -0.031749 -0.013118
v 0.015777 -0.033322 -0.015662
v 0.013903 -0.032306 -0.016348
v 0.014030 -0.034430 -0.011342
v 0.014149 -0.033459 -0.014909
vn 0.8878 0.4579 0.0454
vn 0.9057 0.4029 0.1319
vn 0.9027 0.3212 0.2862
vn 0.8823 0.4706 0.0058
vn 0.8314 0.5110 -0.2182
vn 0.8681 0.4633 0.1780
vn 0.8810 0.2402 0.4076
vn 0.8733 0.2032 0.4427
vn 0.8815 0.3360 0.3318
vn 0.8277 0.5378 -0.1605
vn 0.7290 0.4713 0.4964
vn 0.7684 0.6377 -0.0536
vn 0.8164 0.1549 0.5564
vn 0.8792 0.4721 0.0634
vn 0.6317 0.4712 -0.6155
vn 0.7548 0.1800 0.6308
vn 0.7134 -0.0027 0.7008
vn 0.6450 -0.1285 0.7533
vn 0.6685 0.7071 0.2306
vn 0.5699 0.8215 0.0198
vn 0.6313 -0.0588 0.7733
vn 0.6122 0.5976 -0.5177
vn 0.4861 0.8652 0.1230
vn 0.4677 0.5367 -0.7023
vn 0.5039 0.6080 -0.6136
vn 0.5633 0.3715 0.7380
vn 0.5426 0.7678 -0.3408
vn 0.4038 0.7672 0.4984
vn 0.4574 -0.1428 0.8777
vn 0.7724 0.1376 0.6200
vn 0.8850 0.3469 0.3105
vn 0.3899 0.0320 0.9203
vn 0.3037 -0.3950 0.8670
vn 0.5338 -0.1867 0.8247
vn 0.2993 0.9160 0.2672
vn 0.2159 -0.4082 0.8870
vn 0.5814 -0.0633 0.8112
vn 0.1118 0.4428 -0.8896
vn 0.3414 0.5312 -0.7754
vn 0.1543 0.4305 0.8893
vn 0.2634 -0.2750 0.9247
vn 0.4950 0.8214 -0.2833
vn -0.0860 -0.4278 0.8998
vn 0.8534 0.2425 0.4614
vn 0.6419 0.0148 0.7666
vn 0.8682 0.4955 -0.0264
vn 0.7537 0.5450 -0.3674
vn 0.0688 0.2766 -0.9585
vn 0.2877 0.2037 -0.9358
vn 0.1745 -0.0620 0.9827
vn -0.0896 -0.5515 0.8293
vn 0.1134 0.9614 -0.2507
vn 0.0141 0.6915 0.7223
vn -0.2074 0.9023 0.3780
vn 0.1084 0.9926 -0.0551
vn 0.1837 -0.3227 0.9285
vn 0.8943 0.4382 0.0905
vn 0.2187 0.5300 -0.8193
vn 0.4023 0.7606 -0.5096
vn 0.0025 0.0504 -0.9987
vn -0.1524 0.3351 -0.9298
vn 0.2481 0.7773 -0.5781
vn 0.0944 0.1943 0.9764
vn -0.0803 0.8634 -0.4980
vn -0.1778 0.9841 0.0038
vn -0.3600 -0.5454 0.7569
vn -0.1703 -0.6305 0.7573
vn 0.5538 -0.0160 0.8325
vn 0.3325 -0.1845 0.9249
vn -0.1928 0.2681 -0.9439
vn -0.2817 0.2795 -0.9179
vn 0.4207 0.5968 -0.6832
vn -0.0504 -0.0323 -0.9982
vn -0.2018 0.5755 -0.7925
vn -0.1925 0.7329 -0.6526
vn -0.0069 0.4727 0.8812
vn 0.2047 -0.5709 0.7951
vn 0.0476 -0.6897 0.7226
vn -0.4856 0.8124 -0.3229
vn -0.2107 -0.4606 0.8622
vn -0.4504 -0.6551 0.6066
vn 0.8033 0.5545 -0.2173
vn 0.9000 0.3514 0.2578
vn 0.8174 0.2935 0.4957
vn -0.2747 0.1192 -0.9541
vn -0.3054 -0.2899 -0.9070
vn -0.0148 -0.1825 0.9831
vn -0.1675 0.0909 0.9817
vn -0.3155 0.4603 0.8298
vn 0.0814 -0.4551 0.8867
vn 0.1536 -0.6962 0.7013
vn -0.0123 -0.7948 0.6067
vn -0.6254 0.7574 0.1875
vn -0.6014 -0.5203 0.6063
vn -0.6299 -0.6119 0.4783
vn -0.4831 -0.7557 0.4421
vn 0.8628 0.5037 0.0438
vn 0.6221 0.1307 0.7720
vn -0.0100 -0.2819 0.9594
vn -0.4518 0.1008 -0.8864
vn -0.4570 0.0415 -0.8885
vn -0.1035 0.4668 -0.8783
vn 0.7312 0.6193 -0.2859
vn -0.5035 -0.1132 -0.8565
vn -0.2878 -0.1520 -0.9455
vn -0.1104 -0.6165 0.7796
vn -0.6399 0.7560 -0.1376
vn -0.7899 0.5986 -0.1330
vn -0.7526 0.5280 0.3934
vn -0.4593 -0.4519 0.7647
vn -0.7963 -0.5923 0.1226
vn 0.2181 -0.0253 0.9756
vn -0.5155 -0.3502 0.7821
vn -0.2612 -0.2242 0.9389
vn -0.5384 -0.0586 -0.8406
vn -0.5527 0.1902 -0.8114
vn -0.6033 0.0292 -0.7970
vn 0.1725 0.5943 -0.7855
vn -0.3496 -0.3358 -0.8746
vn -0.5017 -0.1875 -0.8445
vn -0.4401 0.2132 -0.8723
vn -0.4007 0.5936 -0.6979
vn -0.5575 0.7031 -0.4414
vn -0.2746 -0.4765 0.8352
vn -0.5390 -0.3308 0.7746
vn -0.4256 -0.2445 0.8713
vn -0.2549 -0.8286 0.4984
vn -0.7304 0.6755 -0.1010
vn 0.8513 0.3894 0.3516
vn 0.7947 0.2647 0.5462
vn 0.4690 -0.0277 0.8828
vn -0.6893 -0.1390 -0.7110
vn -0.5746 -0.0714 -0.8153
vn -0.6353 0.1151 -0.7636
vn -0.3617 -0.2292 -0.9037
vn -0.5081 0.7917 -0.3391
vn -0.2652 -0.6809 0.6827
vn -0.7103 0.0680 0.7006
vn -0.2847 -0.8807 0.3787
vn -0.8736 0.4616 0.1544
vn -0.8955 0.1809 0.4067
vn -0.8882 -0.4358 0.1457
vn -0.8293 -0.4523 -0.3280
vn -0.5953 -0.8008 -0.0659
vn 0.7950 0.5747 0.1942
vn 0.9142 0.1896 0.3582
vn 0.9279 0.1741 0.3298
vn 0.9572 0.1110 0.2671
vn 0.8367 0.4561 0.3030
vn 0.6727 0.6923 -0.2612
vn 0.4102 0.6592 -0.6302
vn -0.0364 -0.2623 0.9643
vn -0.8156 -0.3706 0.4444
vn -0.6288 -0.3603 0.6891
vn -0.3199 -0.2613 0.9107
vn -0.7462 0.0910 -0.6595
vn -0.7762 -0.1376 -0.6152
vn -0.2400 -0.3599 -0.9016
vn -0.1513 -0.3585 -0.9212
vn -0.4972 0.6126 -0.6144
vn -0.5259 -0.5553 0.6442
vn -0.7345 0.6356 0.2377
vn -0.5891 0.7693 -0.2472
vn -0.8678 0.2181 0.4465
vn -0.8846 -0.4435 -0.1439
vn -0.6469 -0.6040 -0.4656
vn -0.4930 -0.8689 0.0444
vn -0.5908 -0.6942 -0.4111
vn 0.7862 0.0084 0.6179
vn 0.9921 0.1253 0.0094
vn 0.9426 0.3262 0.0707
vn 0.8362 0.5482 -0.0162
vn 0.5495 -0.1928 0.8130
vn -0.7725 -0.2596 0.5795
vn -0.3210 -0.6209 0.7151
vn -0.6192 -0.2749 -0.7355
vn -0.5134 0.3203 -0.7961
vn -0.8675 -0.2406 -0.4355
vn -0.9069 -0.0918 -0.4112
vn 0.0512 0.5295 -0.8468
vn -0.5009 -0.5027 -0.7046
vn -0.3320 -0.4114 -0.8488
vn -0.4176 -0.3213 -0.8499
vn -0.7274 0.0217 0.6859
vn -0.6640 -0.2536 0.7034
vn -0.7198 0.4297 0.5452
vn -0.6777 0.7349 0.0270
vn -0.9591 -0.2798 0.0435
vn -0.9363 -0.2915 -0.1960
vn 0.9582 0.0922 -0.2707
vn 0.3458 0.3886 -0.8541
vn 0.1848 0.4305 -0.8835
vn 0.7254 0.4423 -0.5274
vn 0.6302 0.6275 -0.4572
vn 0.4649 -0.3936 0.7931
vn -0.6823 -0.4523 0.5744
vn -0.6570 -0.5905 0.4687
vn -0.2231 0.3683 -0.9025
vn -0.3960 -0.2646 -0.8793
vn -0.4424 0.1235 -0.8883
vn -0.6884 0.1724 0.7046
vn -0.5802 -0.7606 0.2914
vn -0.7662 0.3424 0.5438
vn -0.8428 0.5110 0.1690
vn -0.7312 0.5593 -0.3905
vn 0.9357 -0.2005 0.2901
vn 0.7243 -0.2354 0.6481
vn 0.9790 -0.1815 -0.0926
vn 0.9539 -0.2915 0.0714
vn 0.1114 -0.5879 0.8012
vn -0.6062 -0.4024 0.6860
vn -0.8976 -0.1948 0.3955
vn -0.8759 0.1111 -0.4694
vn -0.8687 0.2621 -0.4203
vn -0.5418 -0.5266 -0.6551
vn -0.5054 -0.5013 -0.7023
vn -0.7144 -0.6997 -0.0084
vn -0.6242 -0.7127 0.3200
vn -0.6560 -0.7066 -0.2654
vn 0.8715 0.1724 -0.4591
vn 0.8962 -0.2068 -0.3925
vn 0.0894 0.4214 -0.9025
vn 0.1628 0.3982 -0.9027
vn 0.6073 0.2228 -0.7626
vn 0.4426 -0.5535 0.7055
vn -0.9991 -0.0179 -0.0388
vn -0.5802 -0.3014 0.7567
vn -0.4967 -0.5206 0.6944
vn -0.9819 -0.0758 -0.1736
vn -0.5875 0.4807 -0.6510
vn -0.5184 -0.1491 -0.8420
vn -0.8719 -0.2700 0.4085
vn -0.9557 -0.0153 0.2940
vn -0.6929 0.2517 -0.6757
vn -0.9010 0.1228 -0.4161
vn -0.6207 -0.6622 -0.4198
vn 0.7536 -0.6151 0.2319
vn 0.3558 0.2565 -0.8987
vn 0.0375 0.3863 -0.9216
vn -0.2560 0.4791 -0.8396
vn -0.0024 -0.5751 0.8181
vn -0.4075 -0.7424 0.5318
vn -0.9322 -0.2854 0.2224
vn -0.9751 0.2182 0.0393
vn -0.6394 -0.2977 -0.7089
vn -0.9937 -0.0113 -0.1111
vn -0.9662 -0.0619 -0.2501
vn 0.8169 -0.5540 -0.1606
vn 0.7878 -0.1275 -0.6025
vn 0.6014 -0.0135 -0.7988
vn 0.1396 0.3476 -0.9272
vn -0.1352 -0.4438 0.8858
vn -0.1263 -0.6048 0.7863
vn -0.9710 -0.1385 0.1947
vn -0.8031 0.5756 -0.1540
vn -0.7260 -0.6772 -0.1196
vn -0.9525 -0.0817 -0.2932
vn -0.1433 0.3477 -0.9266
vn -0.3188 0.3967 -0.8608
vn 0.0329 -0.7971 0.6029
vn -0.5205 -0.5212 0.6763
vn -0.6294 0.3210 -0.7077
vn -0.8240 -0.4512 -0.3428
vn 0.3286 -0.8599 0.3907
vn 0.4872 -0.8718 0.0521
vn 0.6080 -0.7553 -0.2446
vn 0.5813 -0.6875 -0.4352
vn 0.6122 -0.4938 -0.6176
vn 0.3522 -0.1208 -0.9281
vn -0.0423 0.0404 -0.9983
vn -0.3880 -0.0888 -0.9174
vn -0.2192 -0.5144 0.8291
vn -0.9686 -0.1882 0.1627
vn -0.9501 0.2927 -0.1076
vn -0.9485 -0.2995 0.1028
vn -0.9875 -0.0844 -0.1332
vn -0.9181 -0.3841 -0.0979
vn 0.2806 -0.9411 -0.1889
vn 0.1813 -0.4302 -0.8844
vn -0.6708 -0.2360 -0.7030
vn -0.8554 -0.5167 -0.0358
vn -0.5913 -0.6746 0.4419
vn -0.9080 -0.0642 -0.4140
vn 0.0992 -0.8987 -0.4271
vn 0.3172 -0.7850 -0.5322
vn 0.3132 -0.7111 -0.6294
vn -0.2625 -0.3833 -0.8855
vn -0.8858 -0.4622 0.0415
vn -0.9698 -0.2067 -0.1292
vn -0.5898 -0.7600 0.2730
vn -0.8785 -0.4140 -0.2383
vn -0.1859 -0.7588 -0.6243
vn -0.6442 -0.5183 -0.5624
vn -0.0775 -0.9748 0.2094
vn -0.1570 -0.9667 -0.2023
vn -0.3414 -0.7860 0.5155
vn -0.8542 -0.4670 -0.2286
vn -0.0109 -0.8736 -0.4865
vn -0.6035 -0.6681 -0.4352
vn -0.5169 -0.8542 0.0571
vn -0.4630 -0.8020 -0.3775
s 1
f 2//1 3//2 1//3
f 3//2 2//1 5//4
f 2//1 4//5 5//4
f 3//2 6//6 7//7
f 8//8 1//3 3//2
f 1//3 9//9 2//1
f 4//5 10//10 5//4
f 3//2 7//7 8//8
f 6//6 11//11 7//7
f 6//6 3//2 12//12
f 5//4 12//12 3//2
f 8//8 13//13 1//3
f 2//1 14//14 4//5
f 10//10 4//5 15//15
f 12//12 5//4 10//10
f 16//16 7//7 11//11
f 17//17 8//8 7//7
f 17//17 21//18 8//8
f 11//11 6//6 18//19
f 6//6 12//12 19//20
f 9//9 1//3 13//13
f 21//18 13//13 8//8
f 20//21 13//13 21//18
f 14//14 22//22 4//5
f 23//23 22//22 14//14
f 9//9 14//14 2//1
f 4//5 22//22 24//24
f 15//15 4//5 24//24
f 10//10 15//15 25//25
f 16//16 17//17 7//7
f 26//26 16//16 11//11
f 12//12 10//10 27//27
f 28//28 11//11 18//19
f 19//20 18//19 6//6
f 30//29 29//30 20//21
f 20//21 29//30 13//13
f 13//13 31//31 9//9
f 29//30 31//31 13//13
f 14//14 9//9 31//31
f 10//10 25//25 27//27
f 17//17 16//16 34//32
f 21//18 17//17 40//33
f 33//34 40//33 17//17
f 35//35 28//28 18//19
f 36//36 30//29 20//21
f 30//29 37//37 29//30
f 22//22 39//38 24//24
f 22//22 38//39 39//38
f 16//16 26//26 34//32
f 32//40 34//32 26//26
f 41//41 40//33 33//34
f 34//32 33//34 17//17
f 21//18 40//33 36//36
f 21//18 36//36 20//21
f 42//42 12//12 27//27
f 11//11 28//28 32//40
f 11//11 32//40 26//26
f 35//35 18//19 19//20
f 19//20 12//12 42//42
f 36//36 43//43 30//29
f 31//31 29//30 46//44
f 47//45 29//30 37//37
f 31//31 45//46 14//14
f 23//23 48//47 22//22
f 48//47 38//39 22//22
f 23//23 45//46 48//47
f 23//23 14//14 45//46
f 49//48 15//15 24//24
f 49//48 50//49 15//15
f 62//50 34//32 32//40
f 41//41 33//34 34//32
f 36//36 40//33 53//51
f 19//20 42//42 54//52
f 52//53 32//40 28//28
f 28//28 35//35 67//54
f 67//54 52//53 28//28
f 55//55 19//20 54//52
f 35//35 19//20 55//55
f 53//51 43//43 36//36
f 56//56 37//37 30//29
f 43//43 56//56 30//29
f 44//57 45//46 31//31
f 46//44 44//57 31//31
f 47//45 46//44 29//30
f 25//25 15//15 50//49
f 25//25 50//49 51//58
f 27//27 25//25 58//59
f 42//42 27//27 58//59
f 25//25 51//58 58//59
f 51//58 50//49 60//60
f 59//61 51//58 60//60
f 58//59 51//58 61//62
f 32//40 63//63 62//50
f 42//42 65//64 54//52
f 42//42 61//62 65//64
f 67//54 35//35 66//65
f 35//35 55//55 66//65
f 43//43 53//51 68//66
f 79//67 68//66 53//51
f 56//56 47//45 37//37
f 47//45 70//68 46//44
f 47//45 57//69 70//68
f 24//24 39//38 49//48
f 49//48 39//38 71//70
f 38//39 72//71 39//38
f 71//70 39//38 72//71
f 73//72 38//39 48//47
f 74//73 50//49 49//48
f 51//58 75//74 76//75
f 51//58 76//75 61//62
f 62//50 41//41 34//32
f 32//40 77//76 63//63
f 32//40 52//53 77//76
f 40//33 41//41 64//77
f 53//51 40//33 64//77
f 78//78 79//67 53//51
f 53//51 64//77 78//78
f 42//42 58//59 61//62
f 77//76 52//53 67//54
f 80//79 66//65 55//55
f 55//55 54//52 80//79
f 43//43 69//80 56//56
f 68//66 69//80 43//43
f 79//67 81//81 68//66
f 56//56 69//80 57//69
f 56//56 57//69 47//45
f 45//46 82//82 48//47
f 83//83 44//57 46//44
f 84//84 46//44 70//68
f 85//85 49//48 71//70
f 82//82 73//72 48//47
f 85//85 74//73 49//48
f 74//73 85//85 87//86
f 74//73 60//60 50//49
f 75//74 51//58 59//61
f 90//87 62//50 89//88
f 62//50 63//63 89//88
f 77//76 91//89 63//63
f 64//77 88//90 92//91
f 64//77 41//41 88//90
f 64//77 92//91 78//78
f 93//92 79//67 78//78
f 67//54 66//65 94//93
f 91//89 77//76 67//54
f 95//94 69//80 68//66
f 68//66 81//81 96//95
f 81//81 79//67 97//96
f 46//44 84//84 83//83
f 44//57 83//83 98//97
f 45//46 44//57 82//82
f 70//68 99//98 84//84
f 101//99 70//68 57//69
f 69//80 101//99 57//69
f 86//100 104//101 71//70
f 85//85 71//70 104//101
f 72//71 86//100 71//70
f 72//71 38//39 73//72
f 73//72 102//102 72//71
f 82//82 112//103 73//72
f 103//104 85//85 104//101
f 85//85 103//104 87//86
f 105//105 60//60 74//73
f 105//105 74//73 87//86
f 105//105 59//61 60//60
f 76//75 65//64 61//62
f 88//90 41//41 62//50
f 62//50 90//87 88//90
f 91//89 89//88 63//63
f 88//90 107//106 92//91
f 97//96 79//67 93//92
f 80//79 54//52 65//64
f 94//93 66//65 108//107
f 109//108 94//93 108//107
f 66//65 80//79 108//107
f 110//109 67//54 94//93
f 91//89 67//54 110//109
f 69//80 95//94 100//110
f 81//81 97//96 111//111
f 112//103 82//82 44//57
f 44//57 98//97 112//103
f 114//112 99//98 70//68
f 100//110 101//99 69//80
f 101//99 115//113 116//114
f 101//99 114//112 70//68
f 104//101 86//100 117//115
f 102//102 118//116 72//71
f 119//117 86//100 72//71
f 102//102 73//72 120//118
f 87//86 103//104 121//119
f 103//104 136//120 121//119
f 105//105 87//86 121//119
f 59//61 105//105 122//121
f 122//121 75//74 59//61
f 123//122 76//75 75//74
f 65//64 76//75 124//123
f 106//124 107//106 88//90
f 107//106 106//124 125//125
f 126//126 88//90 90//87
f 90//87 89//88 126//126
f 93//92 78//78 92//91
f 127//127 92//91 107//106
f 124//123 80//79 65//64
f 94//93 109//108 110//109
f 108//107 80//79 109//108
f 80//79 124//123 129//128
f 109//108 80//79 129//128
f 83//83 84//84 131//129
f 98//97 83//83 131//129
f 113//130 84//84 99//98
f 113//130 99//98 132//131
f 114//112 132//131 99//98
f 100//110 115//113 101//99
f 95//94 115//113 100//110
f 117//115 119//117 133//132
f 134//133 117//115 133//132
f 72//71 118//116 135//134
f 72//71 135//134 119//117
f 86//100 119//117 117//115
f 73//72 112//103 120//118
f 117//115 103//104 104//101
f 137//135 105//105 121//119
f 137//135 122//121 105//105
f 124//123 76//75 123//122
f 124//123 123//122 138//136
f 123//122 75//74 122//121
f 140//137 107//106 125//125
f 106//124 88//90 126//126
f 126//126 125//125 106//124
f 89//88 139//138 126//126
f 91//89 139//138 89//88
f 92//91 127//127 93//92
f 140//137 127//127 107//106
f 93//92 130//139 97//96
f 124//123 138//136 129//128
f 129//128 128//140 109//108
f 109//108 128//140 110//109
f 110//109 163//141 91//89
f 91//89 163//141 139//138
f 95//94 68//66 96//95
f 95//94 96//95 141//142
f 81//81 111//111 96//95
f 142//143 111//111 97//96
f 97//96 143//144 142//143
f 130//139 143//144 97//96
f 131//129 144//145 98//97
f 84//84 113//130 145//146
f 145//146 146//147 84//84
f 84//84 146//147 131//129
f 131//129 147//148 148//149
f 131//129 146//147 147//148
f 149//150 150//151 112//103
f 149//150 112//103 98//97
f 149//150 98//97 144//145
f 151//152 132//131 114//112
f 116//114 151//152 114//112
f 114//112 101//99 116//114
f 152//153 115//113 95//94
f 153//154 116//114 115//113
f 116//114 153//154 154//155
f 119//117 135//134 175//156
f 133//132 119//117 155//157
f 121//119 136//120 156//158
f 103//104 117//115 134//133
f 137//135 121//119 156//158
f 157//159 137//135 156//158
f 123//122 158//160 138//136
f 158//160 123//122 122//121
f 125//125 159//161 140//137
f 127//127 130//139 93//92
f 128//140 129//128 160//162
f 161//163 160//162 129//128
f 128//140 162//164 110//109
f 110//109 162//164 163//141
f 129//128 138//136 161//163
f 152//153 95//94 141//142
f 164//165 141//142 96//95
f 111//111 164//165 96//95
f 142//143 143//144 187//166
f 142//143 164//165 111//111
f 165//167 143//144 130//139
f 165//167 166//168 143//144
f 144//145 131//129 148//149
f 167//169 145//146 113//130
f 148//149 147//148 168//170
f 148//149 168//170 169//171
f 170//172 148//149 169//171
f 150//151 120//118 112//103
f 149//150 144//145 170//172
f 144//145 148//149 170//172
f 171//173 167//169 113//130
f 113//130 132//131 171//173
f 116//114 154//155 151//152
f 152//153 172//174 115//113
f 153//154 115//113 172//174
f 173//175 154//155 153//154
f 154//155 173//175 151//152
f 174//176 134//133 133//132
f 136//120 103//104 134//133
f 102//102 197//177 118//116
f 197//177 102//102 120//118
f 119//117 175//156 155//157
f 176//178 175//156 196//179
f 176//178 155//157 175//156
f 177//180 120//118 150//151
f 174//176 178//181 136//120
f 156//158 136//120 179//182
f 179//182 136//120 178//181
f 137//135 180//183 122//121
f 180//183 137//135 157//159
f 138//136 158//160 161//163
f 181//184 159//161 125//125
f 181//184 182//185 159//161
f 125//125 139//138 181//184
f 125//125 126//126 139//138
f 183//186 128//140 160//162
f 183//186 162//164 128//140
f 161//163 184//187 160//162
f 141//142 185//188 152//153
f 141//142 186//189 185//188
f 164//165 176//178 141//142
f 176//178 186//189 141//142
f 142//143 187//166 174//176
f 155//157 142//143 133//132
f 133//132 142//143 174//176
f 142//143 155//157 164//165
f 187//166 143//144 166//168
f 168//170 188//190 169//171
f 150//151 189//191 190//192
f 192//193 191//194 170//172
f 170//172 191//194 149//150
f 193//195 167//169 171//173
f 172//174 194//196 153//154
f 153//154 195//197 173//175
f 134//133 174//176 136//120
f 118//116 197//177 135//134
f 175//156 135//134 197//177
f 155//157 176//178 164//165
f 177//180 198//198 120//118
f 120//118 198//198 197//177
f 178//181 174//176 187//166
f 122//121 180//183 199//199
f 122//121 199//199 200//200
f 122//121 200//200 158//160
f 181//184 202//201 182//185
f 162//164 181//184 139//138
f 139//138 163//141 162//164
f 140//137 201//202 127//127
f 159//161 201//202 140//137
f 183//186 160//162 203//203
f 203//203 160//162 204//204
f 160//162 184//187 204//204
f 181//184 183//186 202//201
f 181//184 162//164 183//186
f 184//187 161//163 205//205
f 145//146 167//169 206//206
f 206//206 167//169 207//207
f 147//148 234//208 168//170
f 147//148 146//147 208//209
f 189//191 150//151 191//194
f 149//150 191//194 150//151
f 177//180 150//151 190//192
f 193//195 171//173 209//210
f 193//195 207//207 167//169
f 151//152 209//210 132//131
f 171//173 132//131 209//210
f 172//174 210//211 194//196
f 211//212 210//211 152//153
f 152//153 210//211 172//174
f 194//196 195//197 153//154
f 151//152 173//175 209//210
f 175//156 212//213 196//179
f 175//156 197//177 213//214
f 186//189 176//178 196//179
f 180//183 156//158 179//182
f 180//183 157//159 156//158
f 241//215 180//183 214//216
f 199//199 180//183 241//215
f 161//163 158//160 205//205
f 159//161 215//217 201//202
f 216//218 215//217 159//161
f 182//185 216//218 159//161
f 165//167 130//139 127//127
f 127//127 201//202 165//167
f 184//187 205//205 204//204
f 186//189 196//179 185//188
f 166//168 165//167 217//219
f 187//166 166//168 178//181
f 166//168 217//219 178//181
f 206//206 146//147 145//146
f 169//171 219//220 170//172
f 188//190 219//220 169//171
f 188//190 168//170 220//221
f 219//220 192//193 170//172
f 206//206 208//209 146//147
f 221//222 190//192 189//191
f 222//223 221//222 189//191
f 189//191 235//224 222//223
f 177//180 190//192 198//198
f 191//194 192//193 189//191
f 193//195 218//225 207//207
f 224//226 211//212 152//153
f 224//226 152//153 185//188
f 211//212 225//227 210//211
f 210//211 226//228 194//196
f 195//197 194//196 226//228
f 196//179 212//213 227//229
f 212//213 175//156 213//214
f 198//198 253//230 197//177
f 197//177 253//230 213//214
f 179//182 178//181 180//183
f 241//215 228//231 199//199
f 199//199 228//231 200//200
f 205//205 158//160 200//200
f 183//186 203//203 202//201
f 203//203 230//232 202//201
f 204//204 229//233 203//203
f 200//200 244//234 205//205
f 205//205 231//235 204//204
f 227//229 185//188 196//179
f 227//229 224//226 185//188
f 217//219 232//236 178//181
f 214//216 178//181 232//236
f 232//236 217//219 215//217
f 233//237 206//206 207//207
f 208//209 234//208 147//148
f 235//224 219//220 188//190
f 220//221 168//170 234//208
f 222//223 235//224 236//238
f 198//198 190//192 237//239
f 190//192 221//222 237//239
f 237//239 238//240 198//198
f 209//210 223//241 193//195
f 223//241 209//210 240//242
f 193//195 223//241 218//225
f 211//212 224//226 239//243
f 226//228 240//242 195//197
f 195//197 240//242 173//175
f 209//210 173//175 240//242
f 251//244 212//213 213//214
f 253//230 198//198 238//240
f 180//183 178//181 214//216
f 232//236 241//215 214//216
f 241//215 242//245 228//231
f 215//217 217//219 201//202
f 217//219 165//167 201//202
f 232//236 215//217 216//218
f 230//232 203//203 229//233
f 202//201 230//232 182//185
f 231//235 243//246 204//204
f 227//229 245//247 224//226
f 206//206 233//237 208//209
f 218//225 233//237 207//207
f 246//248 234//208 208//209
f 188//190 247//249 235//224
f 219//220 235//224 192//193
f 220//221 247//249 188//190
f 235//224 256//250 236//238
f 248//251 221//222 222//223
f 236//238 248//251 222//223
f 189//191 192//193 235//224
f 223//241 240//242 249//252
f 249//252 250//253 223//241
f 223//241 250//253 218//225
f 225//227 226//228 210//211
f 211//212 239//243 225//227
f 212//213 251//244 263//254
f 263//254 227//229 212//213
f 252//255 251//244 213//214
f 253//230 252//255 213//214
f 228//231 244//234 200//200
f 232//236 216//218 254//256
f 229//233 204//204 243//246
f 244//234 231//235 205//205
f 245//247 266//257 224//226
f 241//215 232//236 254//256
f 233//237 246//248 208//209
f 234//208 246//248 220//221
f 256//250 235//224 247//249
f 238//240 259//258 258//259
f 253//230 238//240 258//259
f 259//258 238//240 237//239
f 259//258 237//239 221//222
f 218//225 250//253 261//260
f 226//228 225//227 262//261
f 239//243 262//261 225//227
f 239//243 224//226 266//257
f 252//255 253//230 264//262
f 265//263 242//245 241//215
f 231//235 228//231 242//245
f 231//235 244//234 228//231
f 241//215 254//256 265//263
f 182//185 230//232 216//218
f 265//263 230//232 229//233
f 243//246 265//263 229//233
f 265//263 231//235 242//245
f 243//246 231//235 265//263
f 218//225 260//264 233//237
f 246//248 233//237 267//265
f 267//265 255//266 246//248
f 220//221 246//248 268//267
f 255//266 268//267 246//248
f 247//249 220//221 269//268
f 270//269 257//270 248//251
f 259//258 221//222 248//251
f 248//251 257//270 259//258
f 270//269 236//238 256//250
f 236//238 270//269 248//251
f 258//259 259//258 264//262
f 271//271 264//262 259//258
f 253//230 258//259 264//262
f 261//260 260//264 218//225
f 226//228 262//261 272//272
f 226//228 249//252 240//242
f 273//273 263//254 251//244
f 274//274 273//273 251//244
f 274//274 251//244 252//255
f 230//232 254//256 216//218
f 230//232 265//263 254//256
f 245//247 227//229 263//254
f 263//254 275//275 245//247
f 275//275 276//276 245//247
f 245//247 277//277 266//257
f 245//247 276//276 277//277
f 260//264 267//265 233//237
f 255//266 267//265 278//278
f 268//267 269//268 220//221
f 269//268 270//269 256//250
f 257//270 270//269 280//279
f 280//279 270//269 269//268
f 271//271 281//280 264//262
f 259//258 257//270 271//271
f 266//257 282//281 239//243
f 226//228 250//253 249//252
f 250//253 226//228 272//272
f 282//281 283//282 239//243
f 239//243 283//282 262//261
f 264//262 274//274 252//255
f 274//274 264//262 292//283
f 273//273 275//275 263//254
f 277//277 282//281 266//257
f 268//267 255//266 278//278
f 278//278 284//284 268//267
f 269//268 268//267 279//285
f 279//285 268//267 284//284
f 269//268 256//250 247//249
f 285//286 280//279 269//268
f 279//285 285//286 269//268
f 286//287 257//270 280//279
f 257//270 286//287 271//271
f 262//261 283//282 272//272
f 292//283 273//273 274//274
f 273//273 288//288 275//275
f 277//277 276//276 297//289
f 277//277 289//290 282//281
f 289//290 277//277 290//291
f 285//286 291//292 280//279
f 292//283 264//262 281//280
f 281//280 271//271 293//293
f 286//287 293//293 271//271
f 281//280 293//293 292//283
f 267//265 260//264 287//294
f 278//278 267//265 287//294
f 287//294 294//295 278//278
f 287//294 260//264 261//260
f 282//281 289//290 283//282
f 272//272 295//296 250//253
f 250//253 295//296 261//260
f 292//283 288//288 273//273
f 288//288 296//297 275//275
f 276//276 275//275 290//291
f 276//276 290//291 297//289
f 297//289 290//291 277//277
f 284//284 278//278 294//295
f 280//279 291//292 286//287
f 291//292 279//285 298//298
f 291//292 285//286 279//285
f 288//288 292//283 293//293
f 291//292 299//299 293//293
f 295//296 287//294 261//260
f 283//282 295//296 272//272
f 296//297 290//291 275//275
f 290//291 300//300 289//290
f 283//282 289//290 300//300
f 301//301 300//300 290//291
f 284//284 301//301 298//298
f 301//301 284//284 294//295
f 284//284 298//298 279//285
f 293//293 286//287 291//292
f 296//297 288//288 293//293
f 300//300 287//294 295//296
f 283//282 300//300 295//296
f 301//301 294//295 300//300
f 301//301 299//299 291//292
f 298//298 301//301 291//292
f 296//297 299//299 301//301
f 296//297 293//293 299//299
f 294//295 287//294 300//300
f 290//291 296//297 301//301
