# Blender 4.0.2
# www.blender.org
mtllib 2midph_l.mtl
o 2midph_l.002
v 0.006083 -0.020416 -0.000023
v 0.005833 -0.019992 -0.001298
v 0.005604 -0.020017 0.000388
v 0.005780 -0.018399 -0.000425
v 0.004872 -0.020307 -0.002345
v 0.006370 -0.021657 0.000262
v 0.006595 -0.021988 -0.000154
v 0.006287 -0.021791 -0.001789
v 0.005839 -0.021375 0.000668
v 0.005395 -0.017372 -0.001128
v 0.004666 -0.018542 0.000561
v 0.005131 -0.017485 0.000194
v 0.004558 -0.018086 -0.002322
v 0.005046 -0.017489 -0.001729
v 0.004135 -0.020196 -0.002664
v 0.003790 -0.017309 -0.002703
v 0.007051 -0.024290 -0.000172
v 0.006746 -0.023548 -0.000853
v 0.006637 -0.024599 -0.001627
v 0.006357 -0.025524 -0.002139
v 0.006278 -0.023892 -0.002157
v 0.005688 -0.023068 -0.002619
v 0.004971 -0.022649 -0.002802
v 0.004680 -0.020197 0.000535
v 0.006335 -0.023802 0.000541
v 0.006772 -0.024594 0.000345
v 0.005022 -0.015981 0.000117
v 0.004345 -0.017104 0.000681
v 0.004551 -0.015496 0.000712
v 0.002993 -0.020393 -0.002913
v 0.003749 -0.023802 -0.002830
v 0.004132 -0.021482 0.000569
v 0.004641 -0.023433 0.000736
v 0.007101 -0.025481 -0.000097
v 0.005122 -0.015462 -0.001092
v 0.005237 -0.015583 -0.000654
v 0.002719 -0.017889 0.000701
v 0.004250 -0.015787 0.000823
v 0.004305 -0.012810 -0.001701
v 0.002336 -0.017116 -0.002968
v 0.002006 -0.021490 -0.003024
v 0.007068 -0.025771 -0.000856
v 0.006614 -0.026420 -0.001427
v 0.006410 -0.026116 -0.001961
v 0.005261 -0.024535 -0.002768
v 0.006085 -0.026474 -0.002009
v 0.004195 -0.024447 -0.002838
v 0.004864 -0.024049 0.000931
v 0.005948 -0.025018 0.000809
v 0.002375 -0.022610 0.000544
v 0.002981 -0.024047 0.000848
v 0.005113 -0.013602 -0.000402
v 0.001001 -0.017410 0.000527
v 0.003150 -0.015351 0.000994
v 0.001091 -0.013936 0.001126
v 0.004993 -0.013001 0.000452
v 0.004763 -0.012476 0.001102
v 0.004844 -0.012572 -0.000945
v 0.001311 -0.020069 -0.002886
v 0.002811 -0.014610 -0.002682
v 0.006952 -0.026038 -0.000369
v 0.006341 -0.026762 -0.001140
v 0.000939 -0.024361 -0.003412
v 0.001117 -0.021584 -0.002946
v 0.002647 -0.025257 -0.003007
v 0.002427 -0.019627 0.000633
v 0.004888 -0.024614 0.000965
v 0.002034 -0.024251 0.000756
v 0.001794 -0.020791 0.000478
v 0.006067 -0.025954 0.000444
v 0.000481 -0.020364 0.000010
v -0.000206 -0.018378 -0.000148
v 0.000390 -0.017314 0.000282
v 0.002231 -0.012901 0.001494
v 0.000350 -0.012799 0.001051
v 0.005263 -0.011107 0.000325
v 0.005052 -0.011943 -0.000455
v 0.004247 -0.012473 0.001713
v 0.003670 -0.013482 0.001583
v 0.000732 -0.015097 -0.002763
v 0.000155 -0.018313 -0.002549
v 0.000399 -0.021251 -0.002611
v 0.002962 -0.011546 -0.002274
v 0.003739 -0.011263 -0.001911
v 0.004175 -0.010753 -0.001543
v 0.006055 -0.026736 -0.000615
v 0.004990 -0.025784 -0.002446
v 0.005746 -0.026773 -0.001706
v 0.000617 -0.023183 -0.003278
v 0.002897 -0.025755 -0.002475
v 0.001747 -0.026215 -0.003021
v 0.002036 -0.026566 -0.002705
v 0.005437 -0.025592 0.000702
v 0.003974 -0.025383 0.000605
v 0.002043 -0.025241 0.000610
v 0.000232 -0.023192 0.000299
v -0.000959 -0.015708 0.000065
v -0.000967 -0.017370 -0.000605
v -0.000532 -0.014296 0.000646
v 0.003886 -0.011786 0.002230
v 0.003402 -0.011826 0.002263
v 0.004841 -0.011058 0.001630
v 0.000632 -0.018016 -0.002737
v -0.000410 -0.018023 -0.002258
v -0.000298 -0.020707 -0.002013
v -0.000955 -0.018147 -0.001723
v 0.001530 -0.010883 -0.002594
v 0.005896 -0.026841 -0.000963
v 0.005185 -0.026309 0.000094
v 0.004813 -0.026385 -0.002049
v 0.000496 -0.024166 -0.003294
v 0.000069 -0.022978 -0.002987
v 0.004274 -0.026469 -0.001885
v 0.002494 -0.026601 -0.002301
v 0.002806 -0.025693 0.000311
v 0.000307 -0.024866 0.000652
v -0.000392 -0.022499 0.000209
v -0.000595 -0.019593 -0.000183
v -0.001780 -0.014099 -0.000108
v -0.001241 -0.016999 -0.000974
v 0.001264 -0.010075 0.002199
v 0.002391 -0.010856 0.002102
v -0.001269 -0.010650 0.001267
v -0.001323 -0.012043 0.000960
v 0.005074 -0.010092 -0.000405
v 0.005807 -0.007607 0.000806
v 0.004687 -0.010155 0.002260
v 0.005440 -0.009303 0.001547
v 0.000346 -0.011004 -0.002619
v -0.000754 -0.012561 -0.002374
v -0.001054 -0.014353 -0.002083
v -0.001177 -0.018745 -0.001139
v -0.000904 -0.020241 -0.001135
v 0.003086 -0.009321 -0.002185
v 0.004706 -0.026650 -0.001171
v 0.004320 -0.026347 -0.000247
v 0.000981 -0.026321 -0.002920
v 0.000481 -0.025288 -0.002984
v -0.000231 -0.023390 -0.002682
v -0.000911 -0.022121 -0.001395
v 0.001361 -0.027061 -0.001448
v 0.002907 -0.026702 -0.000948
v 0.002398 -0.026523 -0.000515
v 0.001635 -0.026259 0.000017
v -0.000419 -0.023844 0.000083
v -0.000010 -0.025822 0.000296
v -0.000982 -0.019168 -0.000486
v -0.001844 -0.012557 0.000539
v -0.002050 -0.013460 -0.000659
v 0.002129 -0.008374 0.003217
v -0.000181 -0.008461 0.002398
v 0.005316 -0.007819 -0.000076
v 0.005886 -0.007459 0.001622
v 0.003807 -0.009632 0.002871
v 0.005067 -0.007357 0.003392
v 0.005378 -0.007210 0.003068
v -0.002304 -0.010739 -0.001790
v -0.001668 -0.014232 -0.001239
v -0.000985 -0.019795 -0.000622
v -0.000961 -0.021616 -0.000686
v 0.001503 -0.008935 -0.002745
v -0.000373 -0.009619 -0.002662
v 0.003852 -0.007945 -0.001664
v 0.001384 -0.005675 -0.003430
v 0.002803 -0.005314 -0.002890
v 0.003309 -0.006578 -0.002366
v 0.000891 -0.026884 -0.002343
v -0.001025 -0.023196 -0.001006
v 0.000745 -0.027036 -0.001881
v 0.000831 -0.027054 -0.000960
v -0.000598 -0.025290 0.000101
v -0.000828 -0.025049 -0.000353
v -0.000970 -0.023529 -0.000587
v -0.000791 -0.022465 -0.000049
v -0.000003 -0.026351 -0.000119
v -0.002965 -0.010962 0.000244
v -0.002874 -0.011587 -0.000299
v 0.001006 -0.007355 0.003176
v 0.003061 -0.008248 0.003384
v -0.001847 -0.007262 0.002419
v -0.002847 -0.010072 0.000860
v -0.003030 -0.008710 0.001444
v 0.005475 -0.006676 -0.000050
v 0.005877 -0.006954 0.001624
v 0.004548 -0.008506 0.003219
v -0.002739 -0.010957 -0.001214
v -0.001527 -0.008656 -0.002635
v 0.000685 -0.006482 -0.003362
v 0.003876 -0.005593 -0.001596
v 0.003444 -0.005424 -0.002236
v 0.000443 -0.026647 -0.002132
v -0.000051 -0.026639 -0.000726
v -0.000469 -0.026092 -0.000318
v -0.003697 -0.009534 0.000389
v -0.000384 -0.006622 0.003143
v 0.000849 -0.005750 0.003711
v 0.002394 -0.006851 0.004078
v -0.003347 -0.006874 0.002171
v 0.005101 -0.005492 0.002627
v 0.005549 -0.006157 0.001109
v 0.005394 -0.006219 0.003096
v -0.003095 -0.009078 -0.001864
v -0.000524 -0.006422 -0.003211
v 0.005160 -0.005601 -0.000230
v 0.001000 -0.004612 -0.003220
v 0.000616 -0.005158 -0.003332
v 0.002792 -0.004407 -0.002489
v 0.004269 -0.005039 -0.000893
v -0.000498 -0.024423 -0.001808
v -0.000437 -0.026006 -0.001009
v -0.003747 -0.009060 -0.001123
v -0.003880 -0.008345 0.001111
v -0.003987 -0.008968 -0.000028
v 0.002378 -0.005908 0.004161
v 0.001433 -0.005187 0.003846
v 0.004157 -0.006736 0.004018
v -0.001416 -0.005520 0.002980
v -0.003520 -0.007639 0.001608
v -0.004315 -0.007599 0.001002
v 0.004483 -0.005100 0.003303
v 0.005123 -0.005156 0.001032
v 0.004675 -0.006319 0.003803
v 0.004901 -0.005529 0.003298
v -0.002131 -0.007321 -0.002733
v -0.000935 -0.005631 -0.003062
v -0.002030 -0.006279 -0.002771
v 0.004947 -0.005001 -0.000052
v 0.000850 -0.004047 -0.002759
v 0.001575 -0.003813 -0.002573
v 0.002229 -0.003863 -0.002226
v 0.003603 -0.004511 -0.001125
v 0.004442 -0.004579 -0.000027
v 0.003147 -0.003972 -0.000740
v 0.002378 -0.003968 -0.001643
v -0.003935 -0.008043 -0.001378
v -0.000015 -0.005392 0.003404
v 0.000898 -0.004810 0.003513
v 0.001744 -0.004640 0.003618
v 0.003686 -0.005992 0.004144
v -0.003273 -0.005955 0.002364
v -0.004139 -0.006556 0.001696
v 0.004503 -0.004901 0.002680
v 0.004634 -0.004585 0.000387
v 0.004027 -0.005547 0.003975
v -0.002067 -0.005567 -0.002556
v 0.001177 -0.003585 -0.001678
v 0.002532 -0.004117 0.000032
v -0.004425 -0.007675 -0.000243
v -0.004493 -0.006388 0.001081
v -0.001884 -0.004988 0.002675
v -0.000293 -0.004806 0.003123
v 0.000584 -0.004492 0.003024
v 0.003503 -0.005156 0.003975
v 0.001302 -0.004655 0.003386
v -0.003816 -0.005421 0.001902
v 0.004429 -0.004687 0.001346
v 0.003760 -0.004760 0.002874
v 0.003225 -0.004738 0.003448
v -0.004095 -0.007248 -0.001115
v -0.003117 -0.006044 -0.002016
v -0.001989 -0.005273 -0.002306
v -0.000453 -0.004827 -0.002756
v -0.003072 -0.005781 -0.001868
v 0.000685 -0.003746 -0.002009
v 0.002050 -0.003560 -0.001274
v 0.001522 -0.003323 -0.001040
v 0.000688 -0.003660 -0.001405
v 0.001587 -0.004087 0.000183
v 0.001911 -0.003447 -0.000675
v -0.004443 -0.007196 -0.000285
v -0.000516 -0.004247 0.002467
v 0.000217 -0.003927 0.002553
v 0.001993 -0.004372 0.003250
v -0.003555 -0.005050 0.001468
v -0.002006 -0.004715 0.002014
v -0.004130 -0.005508 0.001232
v 0.002715 -0.004637 0.000993
v 0.002725 -0.004742 0.001766
v 0.003431 -0.004386 0.000294
v 0.003083 -0.004604 0.002922
v -0.004157 -0.006282 -0.000459
v -0.001493 -0.005052 -0.001985
v -0.002863 -0.005545 -0.001223
v -0.003196 -0.005496 -0.000564
v 0.000117 -0.004135 -0.001896
v 0.001567 -0.004254 0.001591
v 0.000920 -0.003961 -0.000390
v -0.004120 -0.005749 0.000405
v 0.000668 -0.003851 0.002221
v 0.002044 -0.004349 0.002791
v -0.003794 -0.005247 0.000857
v -0.000656 -0.004252 0.002012
v -0.002838 -0.005187 0.000680
v -0.001250 -0.005291 -0.001196
v -0.000057 -0.004750 -0.000715
v 0.000872 -0.004255 0.000490
v 0.000044 -0.003907 0.001929
v -0.001659 -0.005096 0.000979
v -0.001587 -0.005441 -0.000344
v 0.000374 -0.004458 0.000309
v -0.000316 -0.004928 -0.000028
vn 0.9332 0.2352 0.2718
vn 0.8811 0.2184 -0.4195
vn 0.9547 0.2503 0.1612
vn 0.4978 0.1926 0.8456
vn 0.8310 0.2590 0.4923
vn 0.9632 0.2524 0.0929
vn 0.8337 0.2392 -0.4978
vn 0.5435 0.1771 -0.8205
vn 0.3568 0.1606 0.9203
vn 0.9555 0.1960 -0.2203
vn 0.7789 0.1465 0.6097
vn 0.2405 0.0363 0.9700
vn 0.6139 0.1007 -0.7829
vn 0.7751 0.1308 -0.6182
vn 0.3625 0.0794 -0.9286
vn 0.2898 0.0571 -0.9554
vn 0.9577 0.1482 -0.2466
vn 0.9810 0.1330 0.1411
vn 0.8900 0.0813 -0.4486
vn 0.6530 -0.1108 -0.7492
vn 0.8343 0.0479 -0.5492
vn 0.4979 0.0972 -0.8617
vn 0.1759 0.0947 -0.9798
vn 0.0744 0.0384 0.9965
vn 0.6847 -0.0041 0.7289
vn 0.3613 0.0719 0.9297
vn 0.9071 0.0289 0.4200
vn 0.2796 -0.0675 0.9577
vn 0.6029 -0.1199 0.7887
vn 0.1164 0.0215 -0.9930
vn 0.0917 0.0303 -0.9953
vn -0.0259 0.0287 0.9993
vn 0.0249 0.1695 0.9852
vn 0.8798 -0.1944 0.4338
vn 0.9312 0.1127 -0.3466
vn 0.9968 0.0686 0.0400
vn -0.0233 -0.0718 0.9971
vn 0.2664 -0.1416 0.9534
vn 0.6551 0.1164 -0.7465
vn 0.0436 0.0399 -0.9983
vn 0.0262 0.0697 -0.9972
vn 0.9565 -0.1917 -0.2198
vn 0.7814 -0.5191 -0.3464
vn 0.7167 -0.2446 -0.6531
vn 0.3183 -0.6000 -0.7340
vn 0.2348 -0.1200 -0.9646
vn 0.0660 -0.1199 -0.9906
vn 0.0863 0.1990 0.9762
vn 0.3222 -0.1277 0.9380
vn -0.0869 0.0738 0.9935
vn -0.0731 0.0522 0.9960
vn 0.9970 0.0311 -0.0709
vn -0.0014 -0.1966 0.9805
vn -0.2241 -0.1570 0.9618
vn -0.2792 -0.1280 0.9517
vn 0.9536 -0.0703 0.2928
vn 0.8470 -0.1521 0.5093
vn 0.8595 0.0879 -0.5036
vn -0.1167 0.0378 -0.9925
vn -0.1983 0.1456 -0.9693
vn 0.1698 0.0916 -0.9812
vn 0.7552 -0.5736 0.3175
vn 0.4858 -0.8728 -0.0474
vn -0.0789 -0.0804 -0.9936
vn 0.3169 -0.2748 -0.9078
vn -0.1223 -0.0430 0.9916
vn 0.0184 -0.1047 0.9943
vn -0.0930 0.0174 0.9955
vn -0.2406 0.0298 0.9702
vn 0.3033 -0.5579 0.7725
vn -0.2215 0.0487 0.9740
vn -0.4240 -0.1663 0.8902
vn -0.4224 -0.0013 0.9064
vn -0.2053 -0.2698 0.9408
vn -0.2151 -0.2112 0.9535
vn 0.9841 -0.1578 0.0816
vn 0.9087 0.0376 -0.4157
vn 0.5972 -0.2859 0.7494
vn 0.0705 -0.3122 0.9474
vn -0.1397 0.0247 -0.9899
vn -0.4567 -0.0566 -0.8878
vn -0.4727 0.1362 -0.8707
vn 0.3429 0.0671 -0.9370
vn 0.4989 0.0568 -0.8648
vn 0.6903 0.0667 -0.7204
vn 0.1976 -0.8959 0.3980
vn 0.0725 -0.4019 -0.9128
vn 0.0266 -0.9048 -0.4250
vn -0.1682 0.1558 -0.9734
vn 0.3460 -0.4440 -0.8265
vn 0.2978 -0.7172 -0.6300
vn 0.1312 -0.4179 -0.8990
vn -0.0043 -0.4433 0.8964
vn -0.0632 -0.4735 0.8785
vn -0.0200 -0.3463 0.9379
vn -0.2088 0.0770 0.9749
vn -0.7290 -0.1411 0.6698
vn -0.5545 -0.2558 0.7919
vn -0.3302 -0.2140 0.9193
vn 0.3252 -0.3162 0.8912
vn -0.1373 -0.3010 0.9437
vn 0.8411 -0.2615 0.4736
vn -0.2975 -0.0089 -0.9547
vn -0.7274 0.0411 -0.6850
vn -0.8161 -0.0969 -0.5697
vn -0.5841 -0.2147 -0.7828
vn 0.1280 0.0074 -0.9917
vn -0.0142 -0.9906 0.1361
vn -0.0742 -0.7857 0.6141
vn -0.0327 -0.7619 -0.6469
vn -0.4977 -0.0960 -0.8620
vn -0.6057 0.1404 -0.7832
vn 0.0258 -0.8824 -0.4697
vn 0.3112 -0.7637 -0.5656
vn -0.0068 -0.6347 0.7727
vn -0.2635 -0.0557 0.9630
vn -0.3207 0.0450 0.9461
vn -0.4563 0.0228 0.8895
vn -0.8008 -0.3040 0.5161
vn -0.9737 -0.1882 0.1285
vn -0.2200 -0.2933 0.9304
vn -0.2378 -0.3529 0.9049
vn -0.2894 -0.2970 0.9100
vn -0.3421 -0.2032 0.9175
vn 0.8096 0.0174 -0.5868
vn 0.9718 -0.0484 -0.2308
vn 0.6460 -0.3026 0.7008
vn 0.9204 -0.2478 0.3025
vn -0.0491 -0.0224 -0.9985
vn -0.3350 -0.0385 -0.9414
vn -0.6570 -0.0989 -0.7474
vn -0.9912 -0.0792 -0.1064
vn -0.9449 -0.0604 -0.3217
vn 0.6991 -0.0437 -0.7137
vn 0.4387 -0.0408 -0.8977
vn -0.0928 -0.9957 0.0030
vn -0.0856 -0.8892 0.4494
vn -0.3265 -0.4849 -0.8113
vn -0.6341 -0.2665 -0.7259
vn -0.9360 0.0394 -0.3498
vn -0.8157 -0.0474 -0.5765
vn 0.1015 -0.9652 0.2411
vn 0.1432 -0.9897 -0.0033
vn 0.0896 -0.8345 0.5437
vn 0.0666 -0.6806 0.7296
vn -0.6170 0.0275 0.7865
vn -0.3164 -0.4444 0.8381
vn -0.8189 -0.0141 0.5737
vn -0.5344 -0.2960 0.7917
vn -0.9387 -0.3251 -0.1149
vn -0.2198 -0.4081 0.8861
vn -0.2611 -0.3573 0.8968
vn 0.8152 -0.0501 -0.5769
vn 0.9846 -0.1082 0.1371
vn 0.0853 -0.3794 0.9213
vn 0.6254 -0.2379 0.7432
vn 0.8426 -0.1552 0.5157
vn -0.5591 -0.2211 -0.7991
vn -0.8738 -0.1874 -0.4488
vn -0.9377 -0.0778 0.3385
vn -0.9970 0.0058 0.0775
vn 0.1671 -0.1547 -0.9737
vn -0.1450 -0.1486 -0.9782
vn 0.1675 0.0334 -0.9853
vn 0.5175 0.1476 -0.8428
vn 0.6773 -0.0503 -0.7340
vn -0.9822 -0.0949 -0.1624
vn -0.8929 -0.1950 -0.4059
vn -0.2238 -0.8275 -0.5150
vn -0.3032 -0.9237 -0.2343
vn -0.1034 -0.9506 0.2928
vn -0.7487 -0.1610 0.6430
vn -0.9835 -0.1206 0.1345
vn -0.9654 -0.1294 0.2262
vn -0.7814 0.0160 0.6239
vn -0.3239 -0.7105 0.6247
vn -0.7520 -0.4028 0.5218
vn -0.9229 -0.3832 -0.0368
vn -0.3134 -0.3471 0.8839
vn -0.0573 -0.4138 0.9086
vn -0.1687 -0.2864 0.9432
vn -0.2585 -0.3895 0.8840
vn -0.5079 -0.3875 0.7694
vn -0.3958 -0.3798 0.8361
vn 0.8836 0.0869 -0.4602
vn 0.9822 0.1763 0.0646
vn 0.3756 -0.3859 0.8426
vn -0.7847 -0.3348 -0.5216
vn -0.0209 -0.1194 -0.9926
vn -0.2510 -0.2004 -0.9470
vn 0.7631 0.1717 -0.6231
vn 0.7938 0.1867 -0.5788
vn -0.7182 -0.5272 -0.4542
vn -0.6049 -0.7896 0.1030
vn -0.8059 -0.5204 0.2823
vn -0.8480 -0.4319 0.3073
vn -0.2656 -0.2671 0.9263
vn -0.4340 -0.2898 0.8530
vn 0.9352 0.3500 -0.0540
vn 0.8655 0.2291 0.4455
vn 0.8082 0.5630 0.1728
vn -0.5799 -0.2503 -0.7753
vn -0.4046 -0.0925 -0.9098
vn -0.1905 -0.0485 -0.9805
vn 0.8519 0.2871 -0.4380
vn -0.0171 0.4384 -0.8986
vn -0.1766 0.2315 -0.9567
vn 0.5678 0.5857 -0.5784
vn 0.6675 0.5022 -0.5497
vn -0.8780 -0.3916 -0.2751
vn -0.8471 -0.3507 -0.3993
vn -0.6894 -0.3819 0.6155
vn -0.9149 -0.4035 0.0074
vn -0.3161 -0.0893 0.9445
vn -0.1192 0.0821 0.9895
vn -0.2109 0.2797 0.9367
vn 0.2488 -0.1889 0.9500
vn -0.3094 0.0630 0.9488
vn -0.4384 0.0418 0.8978
vn -0.5735 -0.3572 0.7372
vn -0.8616 -0.2884 0.4177
vn 0.6963 0.4973 0.5175
vn 0.4616 0.7645 0.4499
vn 0.8303 0.5558 0.0418
vn 0.5484 0.0802 0.8324
vn -0.4290 0.0997 -0.8978
vn -0.3058 0.2896 -0.9070
vn 0.7729 0.5519 -0.3131
vn 0.1325 0.8130 -0.5670
vn -0.2611 0.7469 -0.6116
vn 0.4659 0.8459 -0.2597
vn 0.5878 0.5231 -0.6172
vn 0.4595 0.8862 -0.0601
vn 0.4868 0.8367 -0.2510
vn -0.7961 -0.1259 -0.5920
vn -0.3004 0.1645 0.9395
vn -0.2850 0.5915 0.7542
vn -0.1190 0.6908 0.7132
vn 0.1534 0.0534 0.9867
vn -0.7387 -0.1183 0.6636
vn 0.4718 0.8548 0.2163
vn 0.4970 0.8676 -0.0135
vn 0.3942 0.3417 0.8531
vn -0.4417 0.4737 -0.7619
vn 0.4376 0.8644 -0.2475
vn -0.0505 0.9633 -0.2638
vn 0.2336 0.8843 0.4043
vn -0.9742 -0.1821 -0.1333
vn -0.9757 0.1302 0.1762
vn -0.3720 0.5678 0.7343
vn -0.2190 0.4920 0.8426
vn -0.2509 0.5586 0.7906
vn 0.1928 0.5706 0.7983
vn -0.1922 0.8006 0.5675
vn -0.6507 0.4753 0.5922
vn 0.1241 0.9818 0.1440
vn 0.1804 0.9789 0.0961
vn 0.2427 0.8884 0.3896
vn -0.8515 0.1037 -0.5140
vn -0.6936 0.2603 -0.6717
vn -0.4114 0.8151 -0.4079
vn -0.3969 0.6585 -0.6394
vn -0.6322 0.6414 -0.4346
vn -0.3908 0.8763 -0.2816
vn 0.3517 0.8626 -0.3636
vn -0.0727 0.9963 0.0463
vn -0.5508 0.8272 0.1113
vn -0.0667 0.9419 0.3291
vn 0.1405 0.9358 0.3233
vn -0.9708 0.0764 -0.2274
vn -0.3717 0.8311 0.4136
vn -0.1894 0.8719 0.4517
vn 0.1067 0.9169 0.3846
vn -0.3848 0.9192 0.0832
vn -0.2898 0.9556 0.0530
vn -0.8298 0.5493 0.0986
vn 0.2041 0.9789 0.0065
vn 0.2167 0.9361 0.2771
vn 0.0806 0.9046 0.4185
vn 0.2283 0.9735 0.0114
vn -0.8601 0.3911 -0.3276
vn -0.3605 0.9311 0.0554
vn -0.2657 0.9561 -0.1240
vn -0.3403 0.9133 -0.2239
vn -0.5795 0.8143 -0.0334
vn 0.2941 0.9557 -0.0094
vn -0.4555 0.8260 0.3320
vn -0.7959 0.5494 -0.2543
vn 0.2828 0.9591 0.0061
vn -0.4658 0.8579 -0.2169
vn -0.3894 0.9122 -0.1276
vn -0.0600 0.9671 -0.2473
vn -0.3397 0.9148 0.2185
vn -0.5487 0.8186 0.1694
vn -0.1835 0.9828 0.0196
vn 0.1358 0.9882 0.0704
vn -0.2742 0.9525 -0.1322
vn -0.1783 0.9277 -0.3281
vn -0.1870 0.9774 -0.0989
vn -0.4577 0.8788 -0.1349
vn -0.4320 0.8924 -0.1305
s 1
f 1//1 2//2 4//3
f 3//4 1//1 4//3
f 6//5 2//2 1//1
f 2//2 6//5 7//6
f 7//6 8//7 2//2
f 5//8 2//2 8//7
f 1//1 3//4 9//9
f 1//1 9//9 6//5
f 4//3 2//2 10//10
f 3//4 4//3 12//11
f 3//4 12//11 11//12
f 2//2 5//8 13//13
f 14//14 10//10 2//2
f 2//2 13//13 14//14
f 16//15 13//13 5//8
f 15//16 16//15 5//8
f 18//17 7//6 17//18
f 7//6 18//17 8//7
f 6//5 17//18 7//6
f 8//7 18//17 19//19
f 8//7 19//19 20//20
f 21//21 8//7 20//20
f 5//8 22//22 23//23
f 15//16 5//8 23//23
f 5//8 8//7 22//22
f 3//4 24//24 9//9
f 26//25 9//9 25//26
f 6//5 9//9 26//25
f 10//10 12//11 4//3
f 12//11 10//10 27//27
f 11//12 24//24 3//4
f 12//11 28//28 11//12
f 29//29 12//11 27//27
f 28//28 12//11 29//29
f 30//30 16//15 15//16
f 6//5 26//25 17//18
f 21//21 22//22 8//7
f 23//23 31//31 15//16
f 15//16 31//31 30//30
f 32//32 9//9 24//24
f 9//9 33//33 25//26
f 17//18 26//25 34//34
f 10//10 14//14 35//35
f 36//36 10//10 35//35
f 36//36 27//27 10//10
f 11//12 37//37 24//24
f 11//12 28//28 37//37
f 28//28 29//29 38//38
f 37//37 28//28 38//38
f 13//13 39//39 14//14
f 40//40 16//15 30//30
f 30//30 31//31 41//41
f 16//15 39//39 13//13
f 18//17 42//42 19//19
f 18//17 17//18 42//42
f 19//19 42//42 20//20
f 43//43 20//20 42//42
f 43//43 44//44 20//20
f 46//45 20//20 44//44
f 45//46 20//20 46//45
f 22//22 21//21 20//20
f 22//22 20//20 45//46
f 45//46 23//23 22//22
f 31//31 23//23 47//47
f 23//23 45//46 47//47
f 9//9 32//32 33//33
f 32//32 24//24 37//37
f 25//26 48//48 49//49
f 25//26 49//49 26//25
f 25//26 33//33 48//48
f 33//33 50//50 51//51
f 33//33 51//51 48//48
f 32//32 50//50 33//33
f 35//35 52//52 36//36
f 52//52 27//27 36//36
f 37//37 54//53 55//54
f 55//54 53//55 37//37
f 52//52 56//56 27//27
f 27//27 57//57 29//29
f 57//57 27//27 56//56
f 54//53 37//37 38//38
f 39//39 58//58 14//14
f 58//58 35//35 14//14
f 40//40 30//30 59//59
f 64//60 59//59 41//41
f 59//59 30//30 41//41
f 40//40 60//61 16//15
f 42//42 17//18 34//34
f 43//43 61//62 62//63
f 61//62 43//43 42//42
f 41//41 31//31 63//64
f 63//64 64//60 41//41
f 63//64 31//31 65//65
f 65//65 31//31 47//47
f 37//37 66//66 32//32
f 66//66 50//50 32//32
f 49//49 48//48 67//67
f 48//48 51//51 67//67
f 51//51 50//50 68//68
f 50//50 66//66 69//69
f 34//34 26//25 70//70
f 26//25 49//49 70//70
f 34//34 70//70 61//62
f 58//58 52//52 35//35
f 37//37 53//55 66//66
f 71//71 66//66 53//55
f 55//54 73//72 53//55
f 53//55 73//72 72//73
f 54//53 74//74 55//54
f 73//72 55//54 75//75
f 76//76 56//56 52//52
f 76//76 57//57 56//56
f 58//58 77//77 52//52
f 29//29 57//57 78//78
f 78//78 79//79 29//29
f 29//29 79//79 38//38
f 59//59 80//80 40//40
f 59//59 64//60 81//81
f 82//82 81//81 64//60
f 16//15 60//61 83//83
f 16//15 83//83 39//39
f 83//83 84//84 39//39
f 85//85 39//39 84//84
f 42//42 34//34 61//62
f 44//44 43//43 46//45
f 62//63 46//45 43//43
f 61//62 86//86 62//63
f 45//46 46//45 87//87
f 45//46 87//87 47//47
f 46//45 62//63 88//88
f 88//88 87//87 46//45
f 64//60 63//64 89//89
f 65//65 47//47 90//90
f 90//90 92//91 65//65
f 65//65 92//91 91//92
f 87//87 90//90 47//47
f 93//93 67//67 94//94
f 67//67 93//93 49//49
f 49//49 93//93 70//70
f 67//67 51//51 95//95
f 94//94 67//67 95//95
f 51//51 68//68 95//95
f 96//96 68//68 50//50
f 96//96 50//50 69//69
f 70//70 86//86 61//62
f 71//71 69//69 66//66
f 53//55 72//73 71//71
f 72//73 73//72 98//97
f 73//72 97//98 98//97
f 73//72 99//99 97//98
f 99//99 73//72 75//75
f 79//79 74//74 54//53
f 74//74 75//75 55//54
f 38//38 79//79 54//53
f 77//77 76//76 52//52
f 100//100 79//79 78//78
f 79//79 100//100 101//101
f 101//101 74//74 79//79
f 57//57 76//76 102//102
f 78//78 57//57 102//102
f 39//39 85//85 58//58
f 60//61 40//40 80//80
f 103//103 80//80 59//59
f 81//81 103//103 59//59
f 105//104 81//81 82//82
f 81//81 106//105 104//106
f 105//104 106//105 81//81
f 60//61 80//80 107//107
f 107//107 83//83 60//61
f 58//58 85//85 77//77
f 108//108 88//88 62//63
f 62//63 86//86 108//108
f 70//70 109//109 86//86
f 87//87 88//88 110//110
f 110//110 90//90 87//87
f 91//92 63//64 65//65
f 89//89 63//64 111//111
f 89//89 82//82 64//60
f 112//112 82//82 89//89
f 112//112 105//104 82//82
f 90//90 113//113 114//114
f 110//110 113//113 90//90
f 92//91 90//90 114//114
f 109//109 70//70 93//93
f 93//93 94//94 109//109
f 95//95 115//115 94//94
f 68//68 96//96 116//116
f 96//96 71//71 117//117
f 96//96 69//69 71//71
f 72//73 118//118 71//71
f 98//97 118//118 72//73
f 99//99 119//119 97//98
f 119//119 120//120 98//97
f 97//98 119//119 98//97
f 122//121 121//122 74//74
f 122//121 74//74 101//101
f 74//74 121//122 75//75
f 123//123 124//124 75//75
f 124//124 99//99 75//75
f 121//122 123//123 75//75
f 125//125 77//77 85//85
f 125//125 126//126 77//77
f 126//126 76//76 77//77
f 127//127 100//100 78//78
f 102//102 76//76 128//128
f 80//80 129//129 107//107
f 81//81 80//80 103//103
f 81//81 130//130 80//80
f 81//81 131//131 130//130
f 81//81 104//106 131//131
f 106//105 105//104 132//132
f 133//133 105//104 112//112
f 85//85 163//134 125//125
f 84//84 134//135 85//85
f 163//134 85//85 134//135
f 108//108 135//136 88//88
f 135//136 86//86 136//137
f 86//86 109//109 136//137
f 135//136 110//110 88//88
f 91//92 137//138 63//64
f 138//139 63//64 137//138
f 111//111 63//64 138//139
f 89//89 111//111 112//112
f 140//140 112//112 139//141
f 112//112 140//140 133//133
f 135//136 142//142 113//113
f 110//110 135//136 113//113
f 113//113 142//142 141//143
f 113//113 141//143 114//114
f 92//91 137//138 91//92
f 115//115 136//137 109//109
f 115//115 109//109 94//94
f 143//144 115//115 144//145
f 116//116 96//96 145//146
f 95//95 68//68 116//116
f 96//96 117//117 145//146
f 95//95 144//145 115//115
f 144//145 95//95 146//147
f 95//95 116//116 146//147
f 117//117 71//71 118//118
f 118//118 98//97 147//148
f 132//132 98//97 120//120
f 98//97 132//132 147//148
f 148//149 99//99 124//124
f 99//99 148//149 119//119
f 119//119 149//150 120//120
f 120//120 106//105 132//132
f 150//151 151//152 121//122
f 163//134 152//153 125//125
f 152//153 126//126 125//125
f 128//128 76//76 126//126
f 128//128 126//126 153//154
f 100//100 127//127 154//155
f 154//155 101//101 100//100
f 122//121 101//101 154//155
f 78//78 102//102 127//127
f 155//156 128//128 156//157
f 156//157 128//128 153//154
f 157//158 130//130 131//131
f 131//131 104//106 106//105
f 132//132 105//104 133//133
f 120//120 158//159 106//105
f 133//133 159//160 132//132
f 133//133 160//161 159//160
f 160//161 133//133 140//140
f 107//107 134//135 83//83
f 161//162 134//135 107//107
f 107//107 129//129 162//163
f 162//163 161//162 107//107
f 84//84 83//83 134//135
f 134//135 164//164 165//165
f 161//162 164//164 134//135
f 166//166 134//135 165//165
f 86//86 135//136 108//108
f 136//137 142//142 135//136
f 111//111 139//141 112//112
f 139//141 111//111 138//139
f 168//167 140//140 209//168
f 140//140 139//141 209//168
f 141//143 167//169 114//114
f 92//91 114//114 167//169
f 167//169 141//143 169//170
f 141//143 142//142 143//144
f 141//143 143//144 170//171
f 136//137 143//144 142//142
f 137//138 92//91 167//169
f 143//144 136//137 115//115
f 170//171 143//144 144//145
f 171//172 116//116 145//146
f 145//146 172//173 171//172
f 173//174 145//146 174//175
f 145//146 173//174 172//173
f 117//117 174//175 145//146
f 159//160 174//175 117//117
f 118//118 159//160 117//117
f 144//145 146//147 175//176
f 144//145 175//176 170//171
f 118//118 147//148 159//160
f 159//160 147//148 132//132
f 119//119 148//149 176//177
f 149//150 158//159 120//120
f 176//177 177//178 119//119
f 149//150 119//119 177//178
f 123//123 121//122 151//152
f 150//151 121//122 122//121
f 150//151 178//179 151//152
f 150//151 122//121 179//180
f 178//179 150//151 197//181
f 123//123 151//152 180//182
f 123//123 148//149 124//124
f 148//149 123//123 181//183
f 182//184 181//183 123//123
f 148//149 181//183 176//177
f 126//126 152//153 183//185
f 153//154 126//126 184//186
f 127//127 185//187 154//155
f 154//155 179//180 122//121
f 127//127 128//128 155//156
f 128//128 127//127 102//102
f 127//127 155//156 185//187
f 153//154 184//186 156//157
f 129//129 80//80 130//130
f 130//130 162//163 129//129
f 162//163 130//130 157//158
f 131//131 106//105 158//159
f 157//158 131//131 158//159
f 186//188 157//158 158//159
f 160//161 140//140 168//167
f 160//161 174//175 159//160
f 162//163 188//189 161//162
f 162//163 157//158 187//190
f 164//164 161//162 188//189
f 166//166 163//134 134//135
f 163//134 166//166 183//185
f 152//153 163//134 183//185
f 189//191 166//166 190//192
f 166//166 189//191 183//185
f 190//192 166//166 165//165
f 191//193 137//138 167//169
f 138//139 137//138 191//193
f 138//139 209//168 139//141
f 191//193 209//168 138//139
f 141//143 170//171 169//170
f 191//193 167//169 169//170
f 170//171 175//176 192//194
f 116//116 171//172 146//147
f 173//174 209//168 172//173
f 209//168 173//174 168//167
f 173//174 174//175 160//161
f 193//195 175//176 146//147
f 193//195 192//194 175//176
f 181//183 194//196 176//177
f 194//196 177//178 176//177
f 195//197 151//152 178//179
f 150//151 179//180 197//181
f 195//197 180//182 151//152
f 123//123 180//182 182//184
f 182//184 180//182 198//198
f 126//126 183//185 184//186
f 183//185 200//199 184//186
f 201//200 155//156 156//157
f 184//186 201//200 156//157
f 184//186 199//201 201//200
f 187//190 157//158 202//202
f 186//188 158//159 149//150
f 177//178 186//188 149//150
f 173//174 160//161 168//167
f 162//163 187//190 224//203
f 162//163 203//204 188//189
f 204//205 183//185 189//191
f 164//164 205//206 165//165
f 205//206 164//164 206//207
f 165//165 207//208 190//192
f 205//206 207//208 165//165
f 189//191 208//209 204//205
f 170//171 192//194 169//170
f 192//194 191//193 169//170
f 210//210 191//193 192//194
f 210//210 209//168 191//193
f 193//195 146//147 171//172
f 172//173 193//195 171//172
f 172//173 209//168 210//210
f 194//196 211//211 177//178
f 194//196 181//183 212//212
f 211//211 194//196 213//213
f 212//212 213//213 194//196
f 211//211 186//188 177//178
f 196//214 178//179 197//181
f 197//181 214//215 196//214
f 214//215 215//216 196//214
f 179//180 216//217 197//181
f 179//180 154//155 216//217
f 180//182 195//197 198//198
f 195//197 217//218 198//198
f 198//198 217//218 240//219
f 212//212 181//183 182//184
f 182//184 218//220 212//212
f 219//221 212//212 218//220
f 218//220 182//184 198//198
f 204//205 200//199 183//185
f 199//201 223//222 201//200
f 199//201 184//186 200//199
f 199//201 220//223 223//222
f 221//224 199//201 200//199
f 185//187 216//217 154//155
f 155//156 216//217 185//187
f 201//200 223//222 222//225
f 201//200 222//225 155//156
f 186//188 211//211 157//158
f 211//211 202//202 157//158
f 202//202 224//203 187//190
f 162//163 224//203 203//204
f 226//226 203//204 224//203
f 225//227 203//204 226//226
f 164//164 188//189 203//204
f 227//228 204//205 208//209
f 203//204 206//207 164//164
f 229//229 207//208 205//206
f 205//206 228//230 229//229
f 207//208 189//191 190//192
f 207//208 208//209 189//191
f 232//231 227//228 208//209
f 231//232 233//233 208//209
f 233//233 232//231 208//209
f 208//209 207//208 234//234
f 231//232 208//209 234//234
f 192//194 193//195 210//210
f 210//210 193//195 172//173
f 219//221 213//213 212//212
f 202//202 211//211 235//235
f 178//179 196//214 195//197
f 217//218 195//197 236//236
f 236//236 195//197 196//214
f 196//214 215//216 236//236
f 237//237 236//236 215//216
f 215//216 238//238 237//237
f 197//181 216//217 239//239
f 197//181 239//239 214//215
f 218//220 241//240 219//221
f 198//198 241//240 218//220
f 204//205 221//224 200//199
f 221//224 204//205 227//228
f 220//223 199//201 242//241
f 199//201 221//224 242//241
f 243//242 242//241 221//224
f 222//225 216//217 155//156
f 244//243 216//217 222//225
f 244//243 222//225 223//222
f 220//223 244//243 223//222
f 224//203 202//202 235//235
f 245//244 225//227 226//226
f 203//204 225//227 206//207
f 229//229 230//245 207//208
f 230//245 234//234 207//208
f 230//245 246//246 234//234
f 232//231 233//233 247//247
f 248//248 235//235 211//211
f 211//211 213//213 248//248
f 213//213 219//221 248//248
f 249//249 248//248 219//221
f 236//236 250//250 217//218
f 251//251 250//250 236//236
f 236//236 252//252 251//251
f 237//237 252//252 236//236
f 215//216 214//215 253//253
f 215//216 253//253 238//238
f 254//254 237//237 238//238
f 216//217 244//243 239//239
f 239//239 253//253 214//215
f 239//239 244//243 253//253
f 241//240 198//198 240//219
f 255//255 240//219 250//250
f 250//250 240//219 217//218
f 241//240 249//249 219//221
f 243//242 221//224 227//228
f 244//243 220//223 253//253
f 242//241 253//253 220//223
f 243//242 256//256 242//241
f 257//257 258//258 242//241
f 253//253 242//241 258//258
f 242//241 256//256 257//257
f 259//259 260//260 235//235
f 235//235 260//260 224//203
f 224//203 260//260 226//226
f 261//261 225//227 245//244
f 206//207 225//227 262//262
f 262//262 225//227 261//261
f 260//260 245//244 226//226
f 261//261 245//244 263//263
f 245//244 260//260 263//263
f 232//231 243//242 227//228
f 262//262 205//206 206//207
f 262//262 228//230 205//206
f 228//230 264//264 229//229
f 229//229 246//246 230//245
f 234//234 246//246 265//265
f 234//234 265//265 231//232
f 266//266 246//246 267//267
f 246//246 266//266 265//265
f 267//267 246//246 264//264
f 246//246 229//229 264//264
f 232//231 247//247 243//242
f 268//268 247//247 269//269
f 247//247 233//233 269//269
f 233//233 231//232 265//265
f 249//249 270//270 248//248
f 235//235 248//248 259//259
f 259//259 248//248 270//270
f 271//271 250//250 251//251
f 271//271 251//251 272//272
f 252//252 272//272 251//251
f 238//238 253//253 273//273
f 258//258 273//273 253//253
f 255//255 241//240 240//219
f 255//255 249//249 241//240
f 255//255 250//250 274//274
f 250//250 271//271 275//275
f 274//274 250//250 275//275
f 255//255 276//276 249//249
f 257//257 256//256 278//277
f 256//256 277//278 278//277
f 243//242 279//279 256//256
f 277//278 256//256 279//279
f 258//258 257//257 280//280
f 281//281 263//263 259//259
f 260//260 259//259 263//263
f 282//282 262//262 261//261
f 263//263 283//283 261//261
f 283//283 282//282 261//261
f 283//283 263//263 284//284
f 262//262 282//282 228//230
f 228//230 285//285 264//264
f 285//285 228//230 282//282
f 269//269 233//233 265//265
f 266//266 269//269 265//265
f 267//267 264//264 285//285
f 247//247 279//279 243//242
f 268//268 286//286 247//247
f 266//266 287//287 269//269
f 269//269 287//287 268//268
f 270//270 281//281 259//259
f 288//288 270//270 249//249
f 281//281 270//270 288//288
f 276//276 288//288 249//249
f 254//254 272//272 252//252
f 252//252 237//237 254//254
f 258//258 290//289 273//273
f 290//289 258//258 280//280
f 274//274 276//276 255//255
f 274//274 291//290 276//276
f 275//275 271//271 292//291
f 275//275 293//292 274//274
f 274//274 293//292 291//290
f 277//278 286//286 278//277
f 279//279 247//247 277//278
f 286//286 277//278 247//247
f 257//257 278//277 280//280
f 263//263 281//281 288//288
f 284//284 263//263 288//288
f 282//282 283//283 294//293
f 285//285 282//282 294//293
f 288//288 291//290 284//284
f 267//267 285//285 287//287
f 287//287 285//285 295//294
f 266//266 267//267 287//287
f 287//287 296//295 268//268
f 286//286 268//268 296//295
f 289//296 286//286 296//295
f 291//290 288//288 276//276
f 297//297 271//271 272//272
f 271//271 297//297 292//291
f 272//272 273//273 290//289
f 273//273 272//272 254//254
f 289//296 272//272 290//289
f 286//286 289//296 290//289
f 289//296 297//297 272//272
f 238//238 273//273 254//254
f 290//289 278//277 286//286
f 278//277 290//289 280//280
f 293//292 275//275 298//298
f 298//298 275//275 292//291
f 283//283 299//299 294//293
f 294//293 295//294 285//285
f 299//299 283//283 293//292
f 283//283 284//284 293//292
f 284//284 291//290 293//292
f 300//300 287//287 295//294
f 300//300 296//295 287//287
f 289//296 296//295 297//297
f 292//291 301//301 298//298
f 297//297 301//301 292//291
f 293//292 298//298 299//299
f 298//298 301//301 299//299
f 295//294 294//293 299//299
f 300//300 295//294 301//301
f 296//295 300//300 297//297
f 301//301 297//297 300//300
f 301//301 295//294 299//299
