# Blender 4.0.2
# www.blender.org
mtllib cervical6.mtl
o cervical6.002
v 0.004821 0.001282 0.027779
v 0.003927 0.003448 0.029307
v 0.005341 0.004290 0.028250
v 0.004437 0.005824 0.029947
v 0.005211 0.005436 0.028994
v 0.004262 0.008253 0.029991
v 0.004845 0.009772 0.028451
v 0.004283 0.008367 0.029850
v 0.002409 0.004171 0.027322
v 0.011475 0.000950 0.024452
v 0.006037 0.001306 0.027101
v 0.005309 0.004281 0.025720
v 0.005403 0.000566 0.027207
v 0.004062 0.010789 0.025500
v 0.003555 0.010860 0.025823
v -0.000173 0.019712 0.025338
v 0.013042 0.005010 0.021180
v 0.009979 -0.000741 0.023326
v 0.010265 0.000016 0.019098
v 0.008329 0.003251 0.023438
v 0.011870 0.004465 0.022317
v 0.009989 -0.000786 0.023120
v 0.007469 0.002311 0.023414
v 0.007397 0.002932 0.023597
v 0.008035 0.002484 0.023046
v 0.009997 0.002596 0.021482
v 0.004584 0.002513 0.023249
v 0.005904 0.003598 0.022807
v 0.005491 0.003604 0.023260
v 0.003915 0.011180 0.024418
v 0.003722 0.011166 0.024290
v 0.003815 0.020859 0.022734
v 0.002514 0.005848 0.018874
v 0.001704 0.011708 0.024583
v 0.002491 0.020161 0.024452
v 0.002651 0.020219 0.024280
v -0.001033 0.011017 0.022811
v -0.001081 0.011034 0.022798
v 0.000872 0.020227 0.024801
v -0.002988 0.012161 0.023505
v -0.004589 0.012782 0.023531
v -0.003643 0.014245 0.023811
v -0.003989 0.015470 0.022689
v -0.008869 0.009606 0.023958
v -0.003753 0.011890 0.023518
v -0.005608 0.014869 0.020966
v -0.008818 0.009608 0.024110
v -0.010534 0.007740 0.022446
v -0.010629 0.007808 0.022454
v 0.012916 0.003762 0.022494
v 0.013769 0.006376 0.019297
v 0.009012 0.001305 0.016776
v 0.005244 0.018305 0.021111
v 0.003928 0.005274 0.021632
v -0.000594 0.010299 0.018563
v -0.001814 0.010849 0.020791
v 0.013506 0.005652 0.020098
v 0.013352 0.008140 0.016037
v 0.010000 0.000317 0.016910
v 0.009935 0.000360 0.016838
v 0.004089 0.005248 0.016853
v 0.004041 0.020499 0.017500
v 0.002121 0.005682 0.019014
v 0.004714 0.006484 0.016191
v 0.002093 0.005727 0.018821
v 0.003135 0.003942 0.016712
v -0.000539 0.010205 0.018268
v -0.010728 0.005516 0.017723
v -0.011166 0.006520 0.017776
v 0.013626 0.008186 0.014356
v 0.014147 0.008180 0.016917
v 0.010535 0.000707 0.012703
v 0.008511 0.004398 0.015222
v 0.007404 0.001371 0.013755
v 0.007840 0.002545 0.015051
v 0.004824 0.006526 0.016074
v 0.004089 0.005266 0.016524
v 0.004368 0.003563 0.015036
v 0.003460 0.018651 0.013931
v -0.000490 0.006793 0.015371
v 0.003589 0.010579 0.013923
v 0.002580 0.011951 0.014323
v -0.003699 0.007980 0.015298
v -0.008557 0.013161 0.009797
v -0.011480 0.005105 0.017309
v 0.015339 0.010370 0.012223
v 0.013916 0.013822 0.013337
v 0.010585 0.015074 0.012630
v 0.011181 -0.003245 0.010351
v 0.005787 0.009855 0.013451
v 0.002881 0.005574 0.010719
v 0.004154 0.010134 0.011858
v 0.004148 0.010226 0.011794
v 0.001873 0.011650 0.013105
v 0.003255 0.018533 0.013385
v 0.002027 0.017357 0.012775
v -0.001534 0.008660 0.013466
v 0.000599 0.017293 0.012543
v -0.001324 0.016514 0.011314
v -0.011621 0.006468 0.011448
v -0.011936 0.007872 0.011501
v 0.016257 0.005846 0.008593
v 0.015896 0.001434 0.006007
v 0.015412 0.007949 0.011176
v 0.008497 0.013363 0.009016
v 0.007718 0.013345 0.007729
v 0.001475 0.002075 0.008856
v 0.001097 0.002588 0.008051
v -0.001587 0.016078 0.010176
v -0.002397 0.016387 0.010504
v -0.015303 0.007439 0.005593
v -0.014639 0.008357 0.008452
v -0.016818 0.014857 0.004672
v 0.016453 0.005632 0.007878
v 0.007468 0.013476 0.006499
v 0.000899 0.001463 0.005269
v -0.006908 0.016386 0.006456
v -0.006040 0.014571 0.006170
v -0.015521 0.008615 0.007733
v -0.041184 0.007111 0.005285
v 0.018668 0.005033 0.002389
v 0.007585 0.012735 0.003953
v 0.001209 0.002341 -0.002449
v -0.009851 0.012076 0.003031
v -0.008592 0.015049 0.001956
v -0.016669 0.008848 0.002119
v -0.021072 0.009334 0.004821
v -0.027129 0.009237 0.002975
v -0.027629 0.009270 0.003031
v -0.035401 0.008449 0.003069
v -0.034963 0.014303 0.001912
v -0.043008 0.012566 0.003557
v -0.043248 0.013815 0.002454
v -0.042873 0.011930 -0.000336
v 0.012928 -0.004596 -0.000386
v -0.007818 0.016069 -0.000182
v -0.041353 0.008432 0.000260
v -0.041797 0.007505 -0.005236
v 0.014432 -0.004575 -0.002200
v 0.000599 0.001936 -0.008653
v -0.007873 0.016365 -0.003000
v -0.008098 0.016385 -0.002867
v -0.018167 0.007701 -0.005496
v -0.017839 0.015781 -0.003162
v -0.025963 0.008846 -0.003465
v -0.026475 0.009286 -0.003811
v -0.030528 0.014717 -0.002265
v -0.038108 0.007796 -0.004405
v -0.036870 0.014254 -0.001144
v -0.041339 0.008538 -0.000577
v -0.042813 0.012871 -0.003254
v -0.043373 0.012361 -0.004072
v -0.043100 0.012889 -0.002942
v 0.017773 0.005246 -0.006612
v 0.013065 -0.004072 -0.007063
v 0.007490 0.012717 -0.004256
v -0.006945 0.015299 -0.005748
v -0.007893 0.015935 -0.006840
v -0.013457 0.009173 -0.004909
v -0.019982 0.007924 -0.005284
v -0.025080 0.010349 -0.004117
v -0.040852 0.006582 -0.005899
v 0.015408 0.006945 -0.010992
v 0.011730 -0.003169 -0.011103
v 0.007701 0.013156 -0.008936
v 0.003089 0.005951 -0.007518
v 0.000439 0.002167 -0.007083
v -0.005169 0.016107 -0.008273
v -0.007142 0.016294 -0.007774
v -0.012107 0.007584 -0.009757
v -0.010167 0.012983 -0.010371
v -0.014691 0.008830 -0.009226
v 0.010324 -0.000351 -0.012663
v 0.015627 0.007102 -0.011032
v 0.010248 0.000655 -0.013693
v 0.003206 0.004432 -0.011139
v 0.003580 0.004130 -0.012243
v 0.002487 0.006130 -0.012316
v 0.004603 0.010462 -0.012705
v 0.001430 0.001677 -0.009165
v 0.000489 0.016380 -0.012220
v -0.013348 0.007922 -0.010171
v 0.013764 0.008321 -0.015481
v 0.013706 0.013438 -0.014523
v 0.012122 0.015077 -0.013333
v 0.008562 -0.000380 -0.012945
v 0.010329 0.000074 -0.014137
v 0.011231 0.015301 -0.013344
v 0.005354 0.001468 -0.012782
v 0.002176 0.011214 -0.013500
v 0.002700 0.011712 -0.015582
v 0.002189 0.011263 -0.013655
v 0.000572 0.013173 -0.013058
v -0.000727 0.016831 -0.012055
v 0.002042 0.017744 -0.013669
v 0.003709 0.019144 -0.015182
v -0.001731 0.016561 -0.011528
v -0.006964 0.013210 -0.013633
v -0.011484 0.005970 -0.012004
v -0.011771 0.006836 -0.012987
v -0.011783 0.006908 -0.012871
v 0.013393 0.008895 -0.016204
v 0.013454 0.007898 -0.017399
v 0.013560 0.008322 -0.016608
v 0.011580 0.014198 -0.013229
v 0.009063 0.000434 -0.013666
v 0.008276 0.001619 -0.015826
v 0.008401 0.002980 -0.016185
v 0.008679 0.007802 -0.015383
v 0.008268 0.001645 -0.015753
v 0.007799 0.004371 -0.015662
v 0.003661 0.004776 -0.017221
v 0.002463 0.004856 -0.015675
v 0.004410 0.005886 -0.017409
v 0.000194 0.006515 -0.015429
v -0.000143 0.006412 -0.015601
v -0.002910 0.008031 -0.015138
v -0.002678 0.008280 -0.016432
v -0.011265 0.006237 -0.017606
v 0.014003 0.007182 -0.018922
v 0.002906 0.006355 -0.019264
v 0.002477 0.005798 -0.019566
v 0.003709 0.008081 -0.017425
v 0.005556 0.019587 -0.020687
v 0.002428 0.005653 -0.019300
v 0.002105 0.005451 -0.019692
v 0.001612 0.004561 -0.019845
v 0.000006 0.009226 -0.018543
v 0.000108 0.009104 -0.018176
v -0.001614 0.011132 -0.022991
v -0.006677 0.014139 -0.020993
v -0.010544 0.006481 -0.020394
v 0.013149 0.003986 -0.022334
v 0.010218 0.003485 -0.022399
v 0.010031 0.002670 -0.021827
v 0.002960 0.004889 -0.020995
v 0.003351 0.005520 -0.021941
v -0.000335 0.010012 -0.023373
v -0.002392 0.011532 -0.023383
v -0.010870 0.007333 -0.022185
v -0.010931 0.007709 -0.023721
v -0.011093 0.007431 -0.022210
v 0.011893 0.000596 -0.024102
v 0.012546 0.003600 -0.023949
v 0.012349 0.003829 -0.024001
v 0.010331 0.000566 -0.025605
v 0.009830 -0.000317 -0.023471
v 0.010208 -0.000683 -0.024015
v 0.010279 0.002704 -0.022242
v 0.008071 0.002772 -0.024183
v 0.008262 0.002523 -0.025209
v 0.008271 0.001313 -0.026201
v 0.007844 0.002762 -0.024022
v 0.007802 0.002607 -0.023961
v 0.006101 0.003698 -0.024118
v 0.008585 0.002683 -0.024180
v 0.004283 0.002621 -0.023624
v 0.003730 0.011735 -0.023047
v 0.003631 0.012413 -0.024605
v 0.003892 0.020409 -0.023535
v 0.001550 0.019932 -0.025716
v 0.003244 0.019761 -0.024670
v 0.002736 0.003119 -0.025828
v 0.001821 0.012209 -0.025372
v -0.001652 0.011028 -0.023094
v -0.001704 0.012979 -0.024692
v -0.001619 0.018563 -0.025876
v -0.004805 0.011043 -0.023405
v -0.003804 0.014729 -0.024181
v -0.005001 0.012323 -0.024679
v -0.006985 0.010800 -0.025478
v -0.009579 0.008998 -0.024416
v 0.006554 0.000239 -0.026897
v 0.005803 0.000557 -0.026616
v 0.005767 0.000953 -0.027781
v 0.006133 0.003158 -0.026692
v 0.004827 0.005861 -0.027068
v 0.003701 0.011152 -0.026309
v 0.004153 0.008868 -0.029977
v 0.001559 0.019837 -0.025759
v -0.000185 0.018823 -0.026416
v -0.001251 0.018796 -0.025832
v 0.004581 0.001400 -0.028418
v 0.003895 0.007464 -0.030960
v 0.004085 0.007735 -0.031072
v 0.005120 0.009064 -0.029215
v 0.004329 0.006402 0.030389
v 0.005211 0.005436 0.028994
v 0.004614 0.009497 0.028324
v 0.005197 0.004308 0.025853
v 0.007941 0.003602 0.023025
v 0.008233 0.002560 0.023876
v 0.007712 0.002444 0.023110
v 0.004527 0.002485 0.023187
v 0.005735 0.003352 0.022818
v -0.010545 0.007784 0.022415
v 0.011871 0.004449 0.022293
v 0.011871 0.004449 0.022293
v 0.014331 0.006988 0.018786
v 0.002712 0.005025 0.016925
v -0.011166 0.006520 0.017776
v 0.013793 0.007727 0.016955
v 0.007575 0.001491 0.014071
v 0.002634 0.011962 0.014311
v -0.011621 0.006468 0.011448
v -0.010110 0.007060 0.010194
v -0.011936 0.007872 0.011501
v -0.011936 0.007872 0.011501
v 0.011194 -0.003240 0.010329
v 0.011194 -0.003240 0.010329
v 0.011194 -0.003240 0.010329
v 0.002097 0.002076 0.008746
v -0.008192 0.014502 0.006972
v -0.036870 0.014254 -0.001144
v -0.043479 0.013046 -0.002608
v -0.042969 0.013659 -0.003262
v -0.043291 0.012389 -0.004036
v -0.021295 0.007970 -0.004910
v -0.025080 0.010349 -0.004117
v -0.005169 0.016107 -0.008273
v -0.013364 0.007476 -0.008896
v -0.018737 0.009372 -0.006660
v 0.003206 0.004432 -0.011139
v 0.010239 -0.000329 -0.012598
v 0.009961 0.014494 -0.011918
v 0.005354 0.001468 -0.012782
v 0.005354 0.001468 -0.012782
v 0.002638 0.005790 -0.012407
v -0.002083 0.016447 -0.011245
v 0.013125 0.009026 -0.015996
v 0.007886 0.004496 -0.015601
v 0.004626 0.003333 -0.014818
v 0.004626 0.003333 -0.014818
v 0.004626 0.003333 -0.014818
v 0.002463 0.004856 -0.015675
v 0.002463 0.004856 -0.015675
v 0.002790 0.011916 -0.015661
v -0.002585 0.007970 -0.016493
v -0.009892 0.005212 -0.016979
v 0.003638 0.004755 -0.017315
v 0.002906 0.006355 -0.019264
v 0.002207 0.006306 -0.019274
v 0.003709 0.008081 -0.017425
v 0.003709 0.008081 -0.017425
v 0.001998 0.005622 -0.019438
v 0.001996 0.005707 -0.019689
v 0.002307 0.005922 -0.019831
v 0.001785 0.005705 -0.019713
v 0.012821 0.003950 -0.022555
v 0.012730 0.003323 -0.024013
v 0.012730 0.003323 -0.024013
v 0.012434 0.003237 -0.023503
v 0.010743 0.000747 -0.025584
v 0.012861 0.003950 -0.022575
v 0.009403 -0.000325 -0.023921
v 0.009403 -0.000325 -0.023921
v 0.007444 0.002258 -0.023913
v 0.007444 0.002258 -0.023913
v 0.006051 0.003669 -0.024160
v 0.006051 0.003669 -0.024160
v 0.004283 0.002621 -0.023624
v 0.003730 0.011735 -0.023047
v 0.003217 0.019754 -0.024642
v -0.002392 0.011525 -0.023389
v -0.001704 0.012979 -0.024692
v 0.005919 0.001052 -0.027731
v 0.005803 0.000557 -0.026616
v 0.005803 0.000557 -0.026616
v 0.006171 0.001038 -0.027793
v 0.006133 0.003158 -0.026692
v 0.006133 0.003158 -0.026692
v 0.004827 0.005861 -0.027068
v -0.000196 0.018838 -0.026325
vn -0.6644 -0.0581 0.7451
vn -0.2640 -0.4445 0.8560
vn 0.5249 -0.2839 0.8024
vn 0.9772 0.0063 0.2123
vn 0.5406 0.4404 0.7168
vn -0.8924 -0.3305 0.3071
vn -0.6619 -0.7420 -0.1059
vn 0.8000 -0.1398 0.5835
vn 0.8770 0.1318 0.4620
vn 0.8568 0.0392 0.5142
vn 0.9876 0.1546 -0.0281
vn 0.9954 0.0888 0.0373
vn -0.8533 0.2532 0.4557
vn -0.2451 0.8039 0.5419
vn -0.1315 0.8254 0.5490
vn 0.7590 -0.2929 0.5815
vn 0.6127 -0.7350 0.2905
vn 0.7878 0.6144 -0.0425
vn 0.8506 -0.4631 0.2488
vn 0.8847 0.2302 -0.4054
vn 0.0830 0.9518 0.2954
vn -0.1867 0.1176 0.9754
vn 0.8327 -0.5490 -0.0718
vn 0.8620 -0.4889 -0.1336
vn 0.4553 0.4786 0.7507
vn -0.1746 0.9767 0.1244
vn 0.6524 0.7200 0.2366
vn 0.5404 0.3915 0.7447
vn -0.7888 -0.3804 -0.4829
vn -0.0020 0.3105 -0.9506
vn -0.8768 0.3847 -0.2886
vn -0.0409 0.7403 -0.6710
vn -0.5190 0.2101 -0.8286
vn -0.6196 -0.0666 -0.7821
vn 0.3225 0.9126 0.2513
vn -0.0618 -0.7929 -0.6062
vn 0.6644 0.7432 -0.0787
vn -0.5615 -0.8229 -0.0868
vn 0.3487 -0.2718 -0.8969
vn 0.6340 -0.5078 -0.5833
vn 0.5256 0.8386 -0.1428
vn 0.8237 0.5667 0.0179
vn 0.4829 0.8203 0.3063
vn 0.3563 0.5945 0.7209
vn -0.4200 0.6860 0.5942
vn -0.0389 0.9376 0.3455
vn -0.6757 -0.4550 0.5800
vn -0.2189 -0.8626 0.4562
vn -0.0497 -0.0521 0.9974
vn -0.7712 0.5545 0.3126
vn -0.1891 -0.5217 0.8319
vn 0.1188 -0.5212 0.8451
vn -0.6860 0.5015 0.5272
vn -0.5183 0.8343 -0.1878
vn -0.6706 0.7273 0.1463
vn 0.3989 -0.7475 0.5311
vn -0.7503 0.6046 0.2674
vn 0.9029 -0.4140 -0.1155
vn -0.6179 -0.7863 -0.0013
vn -0.8315 -0.4974 0.2473
vn -0.6448 0.7642 -0.0129
vn -0.8701 0.0554 0.4897
vn -0.1586 0.7839 0.6002
vn 0.9916 0.0684 0.1094
vn 0.9766 0.0535 -0.2085
vn -0.8730 -0.4671 0.1402
vn -0.5069 -0.8190 0.2688
vn -0.4220 -0.9066 0.0068
vn 0.3995 0.8673 -0.2969
vn -0.4074 0.9019 -0.1433
vn 0.4359 -0.8124 0.3873
vn -0.8387 0.5332 0.1107
vn -0.9834 0.1395 0.1159
vn -0.9784 0.1911 0.0789
vn -0.9774 0.1808 0.1094
vn -0.2476 0.8589 0.4482
vn 0.9062 -0.3692 0.2061
vn 0.9786 -0.1826 -0.0951
vn 0.5806 -0.6335 0.5115
vn -0.1761 -0.9779 -0.1131
vn 0.1234 -0.7266 0.6759
vn 0.5690 -0.3438 0.7471
vn 0.4773 -0.2304 0.8480
vn 0.6550 0.3620 0.6633
vn 0.7788 -0.0592 0.6244
vn -0.5314 -0.8345 0.1458
vn -0.6096 -0.7884 0.0826
vn 0.7044 0.6280 0.3307
vn 0.9223 -0.1260 -0.3655
vn 0.1955 -0.9576 0.2117
vn 0.3770 -0.9185 0.1189
vn -0.5120 0.7336 0.4469
vn -0.9062 0.4195 0.0528
vn -0.0673 0.9976 0.0159
vn 0.8662 -0.0459 0.4976
vn -0.0698 0.9644 0.2553
vn -0.0044 -0.0089 1.0000
vn 0.6267 0.7325 0.2659
vn -0.0003 0.7056 0.7086
vn -0.3437 -0.7856 0.5144
vn -0.8712 -0.1985 0.4490
vn 0.3845 0.3196 0.8661
vn -0.9910 -0.0751 -0.1107
vn -0.5881 -0.8024 -0.1019
vn -0.5425 0.7567 -0.3648
vn 0.5454 0.7979 -0.2566
vn -0.3077 0.8891 -0.3389
vn -0.0362 -0.6463 -0.7622
vn -0.0582 0.9783 0.1989
vn 0.0159 -0.9914 -0.1302
vn 0.9411 0.2199 0.2570
vn -0.1877 0.6447 -0.7411
vn 0.7697 0.4036 -0.4946
vn -0.3999 -0.8638 0.3064
vn 0.3609 0.3151 -0.8778
vn 0.6578 -0.1444 -0.7392
vn 0.4990 0.3963 -0.7707
vn -0.1606 0.9837 0.0809
vn -0.4446 0.8773 0.1809
vn 0.6561 -0.6829 -0.3212
vn -0.9756 -0.2179 -0.0272
vn -0.9879 -0.1549 0.0037
vn -0.2108 0.4377 0.8741
vn -0.2455 0.7797 0.5760
vn -0.2743 0.4131 0.8684
vn -0.7882 0.5746 0.2205
vn -0.3822 0.4955 0.7800
vn 0.8309 -0.4233 0.3612
vn 0.8967 -0.2739 0.3476
vn 0.9478 0.3007 0.1058
vn 0.7910 -0.5523 0.2633
vn 0.5740 -0.8122 -0.1044
vn -0.2685 -0.9622 0.0454
vn 0.1996 -0.9676 0.1547
vn 0.7720 -0.2279 0.5934
vn 0.5342 -0.6542 -0.5355
vn -0.7297 0.6738 0.1162
vn -0.7860 0.6178 0.0244
vn -0.2405 0.9658 -0.0968
vn -0.7058 -0.0921 0.7024
vn -0.8440 -0.5309 0.0767
vn -0.9377 -0.0051 0.3474
vn -0.0136 0.9889 0.1477
vn -0.5132 -0.7585 0.4016
vn 0.6049 0.7206 0.3389
vn 0.6360 0.7687 -0.0687
vn -0.6040 -0.7230 0.3355
vn -0.6596 0.7516 0.0008
vn 0.6848 -0.0442 -0.7274
vn 0.8498 -0.5222 -0.0714
vn 0.1709 -0.9751 -0.1413
vn -0.0159 -0.9923 0.1232
vn -0.2406 0.5175 0.8212
vn -0.0152 0.7931 0.6090
vn -0.2615 -0.6506 0.7130
vn 0.1937 -0.6666 0.7198
vn 0.0673 0.5036 0.8613
vn -0.1933 0.9800 0.0467
vn 0.9255 -0.3702 -0.0797
vn -0.2050 -0.1971 0.9587
vn 0.3320 -0.8319 -0.4447
vn -0.6507 0.7221 0.2349
vn -0.9726 0.2229 -0.0657
vn -0.5410 -0.8395 -0.0499
vn -0.4846 -0.8651 -0.1300
vn -0.1019 -0.9582 -0.2672
vn -0.1374 0.9904 -0.0181
vn -0.7258 -0.4621 -0.5096
vn -0.9198 -0.3907 0.0364
vn -0.9904 -0.0813 0.1118
vn -0.6324 0.7409 0.2261
vn 0.8790 -0.2847 -0.3825
vn 0.9560 0.1550 -0.2492
vn 0.8437 0.2237 0.4880
vn 0.9643 -0.1006 0.2448
vn 0.4118 -0.8640 0.2897
vn -0.2107 0.9205 -0.3291
vn 0.0422 0.9974 -0.0576
vn 0.0007 -0.9993 0.0386
vn -0.0679 0.8096 -0.5831
vn -0.2516 0.1809 -0.9508
vn -0.1241 -0.2535 -0.9593
vn -0.0290 0.5164 -0.8559
vn -0.1217 0.9469 -0.2976
vn -0.8657 0.4016 -0.2987
vn -0.8781 0.4785 0.0031
vn -0.8541 0.5081 -0.1108
vn -0.0241 0.9915 -0.1276
vn -0.1436 -0.9797 -0.1398
vn -0.2788 -0.9600 0.0270
vn -0.4954 0.6666 -0.5570
vn -0.3967 0.0135 -0.9179
vn -0.2977 -0.7427 -0.5999
vn -0.5808 0.1136 -0.8061
vn -0.3909 0.6378 -0.6636
vn -0.0419 0.2280 -0.9728
vn 0.5809 -0.3874 -0.7159
vn -0.1514 0.9686 0.1972
vn -0.4322 0.8994 -0.0662
vn -0.8502 -0.2271 0.4749
vn 0.2696 0.8446 0.4626
vn 0.1639 0.9412 0.2955
vn 0.1989 0.8640 0.4626
vn -0.0063 -0.9201 0.3916
vn -0.4285 -0.8953 -0.1218
vn -0.3150 -0.7416 -0.5923
vn 0.7032 -0.6817 -0.2018
vn 0.4094 0.1730 0.8958
vn -0.8749 -0.3291 -0.3554
vn -0.6450 0.6528 -0.3972
vn -0.4479 -0.7608 -0.4696
vn -0.7817 -0.4221 -0.4590
vn -0.8471 0.0845 -0.5246
vn -0.8062 0.5359 -0.2509
vn 0.5887 0.1798 0.7881
vn 0.3444 0.7023 0.6230
vn 0.6538 -0.0127 0.7566
vn 0.1591 0.9485 0.2738
vn 0.3146 -0.8627 0.3960
vn 0.0979 0.3895 0.9158
vn -0.4828 0.7531 -0.4468
vn -0.8041 -0.5933 0.0381
vn -0.9004 0.2910 -0.3234
vn 0.9696 -0.0069 -0.2447
vn 0.6286 0.5965 -0.4991
vn 0.4545 0.8799 0.1386
vn 0.0809 -0.9654 -0.2479
vn -0.0992 -0.8721 -0.4792
vn 0.0435 0.8988 0.4363
vn -0.4001 0.5625 -0.7236
vn -0.8384 -0.5102 -0.1919
vn 0.8933 0.3779 0.2433
vn 0.5450 0.7729 0.3250
vn 0.0972 -0.9399 0.3272
vn 0.4330 0.6820 0.5894
vn -0.3937 0.9000 0.1869
vn -0.7222 0.6898 -0.0508
vn -0.4649 0.8788 -0.1076
vn 0.7876 0.5995 -0.1423
vn 0.8325 0.3960 -0.3874
vn 0.9961 -0.0396 -0.0783
vn 0.7827 0.6061 -0.1414
vn -0.3875 0.5764 -0.7194
vn -0.4626 0.1824 -0.8676
vn -0.1998 0.3397 -0.9191
vn -0.2475 -0.7837 0.5696
vn -0.2398 -0.9632 -0.1215
vn 0.0295 0.1563 -0.9873
vn -0.8185 0.1342 -0.5586
vn 0.3605 0.0531 -0.9312
vn 0.3949 -0.4673 -0.7910
vn -0.3787 -0.8245 -0.4205
vn -0.6259 -0.6592 -0.4169
vn -0.9259 -0.3666 -0.0907
vn 0.6798 -0.1088 -0.7252
vn -0.8410 -0.5137 -0.1699
vn -0.6244 -0.7288 0.2808
vn -0.5865 -0.7560 0.2908
vn -0.6129 -0.7695 0.1795
vn 0.9297 0.2955 -0.2197
vn 0.9765 0.1789 0.1199
vn 0.9721 -0.2209 -0.0782
vn 0.9914 -0.0317 0.1270
vn 0.8778 0.4789 0.0136
vn -0.4605 -0.8649 0.1997
vn -0.4429 -0.8941 -0.0659
vn -0.1199 -0.9880 -0.0972
vn 0.1823 -0.8876 -0.4229
vn -0.2537 -0.5855 0.7699
vn 0.7340 -0.5760 0.3597
vn -0.9307 0.3558 -0.0856
vn -0.7698 -0.0190 0.6380
vn 0.6593 -0.4572 -0.5969
vn 0.7823 0.2459 -0.5723
vn 0.6824 -0.4345 -0.5878
vn 0.9118 -0.1865 0.3659
vn 0.6840 -0.1675 0.7100
vn 0.9179 -0.3652 -0.1549
vn 0.8565 -0.4342 -0.2790
vn 0.1160 -0.4469 0.8870
vn 0.4059 -0.8498 0.3364
vn -0.5124 -0.8536 -0.0934
vn -0.6243 -0.6993 -0.3481
vn -0.0949 -0.8578 -0.5051
vn -0.4912 -0.8699 -0.0438
vn -0.8610 -0.5036 -0.0704
vn -0.0741 -0.8235 -0.5625
vn -0.3479 -0.8925 -0.2873
vn -0.6434 -0.7301 -0.2301
vn 0.0601 0.9388 -0.3393
vn 0.9507 0.0008 -0.3102
vn -0.6862 -0.3147 0.6558
vn -0.3304 -0.8081 0.4876
vn 0.7096 -0.2535 0.6574
vn 0.3640 -0.6035 0.7094
vn 0.8909 0.1302 -0.4352
vn 0.5960 -0.4043 0.6938
vn 0.8557 0.3228 0.4044
vn 0.4811 0.8203 -0.3094
vn -0.8355 -0.5376 -0.1139
vn -0.7649 -0.4196 -0.4888
vn -0.5687 -0.7300 -0.3790
vn -0.6884 0.4484 -0.5702
vn 0.4182 -0.8138 -0.4035
vn 0.3580 -0.8354 -0.4170
vn -0.8361 0.5486 0.0102
vn 0.2387 -0.9710 0.0124
vn 0.7772 -0.6270 -0.0523
vn 0.9499 -0.2873 -0.1234
vn 0.0643 0.7389 -0.6707
vn 0.3137 0.8042 -0.5048
vn 0.2803 -0.9201 -0.2735
vn 0.6829 -0.1865 -0.7063
vn 0.4887 -0.3597 -0.7949
vn -0.0822 0.9555 -0.2832
vn -0.6171 -0.0687 0.7839
vn 0.3106 0.4332 -0.8461
vn 0.3587 0.3762 -0.8543
vn -0.5805 -0.3067 0.7543
vn -0.5814 -0.3072 0.7534
vn -0.6164 -0.3268 0.7164
vn 0.3369 0.1130 0.9347
vn 0.5572 0.8303 0.0090
vn 0.1051 0.1301 0.9859
vn -0.0452 -0.8329 0.5516
vn 0.3781 0.9055 -0.1924
vn 0.6601 0.7127 0.2375
vn -0.3018 -0.8990 -0.3173
vn 0.9674 0.1615 0.1953
vn -0.2966 0.9550 -0.0048
vn 0.7310 0.0107 -0.6823
vn 0.4787 0.5962 -0.6445
vn -0.2004 0.0893 -0.9756
vn 0.2696 -0.7940 -0.5448
vn 0.1439 -0.6973 -0.7021
vn -0.2504 -0.2871 -0.9246
vn -0.5165 0.1785 -0.8375
vn -0.2301 0.3059 -0.9238
vn 0.4427 -0.8169 -0.3697
vn -0.7609 0.5856 -0.2795
vn -0.4146 -0.8953 -0.1629
vn 0.6754 -0.1713 -0.7173
vn 0.5564 0.4414 -0.7040
vn 0.6025 0.3763 -0.7038
vn 0.3887 0.9055 -0.1702
vn 0.9020 0.4279 -0.0571
vn 0.8170 0.3288 -0.4737
vn -0.3208 -0.7675 -0.5550
vn 0.8305 0.4698 -0.2992
vn -0.4756 -0.2672 -0.8381
vn -0.0198 0.7152 -0.6986
vn 0.2071 0.8293 -0.5189
vn -0.4743 0.8764 0.0837
vn 0.4697 -0.0286 -0.8823
vn 0.0504 -0.1285 -0.9904
vn -0.2919 0.7767 -0.5581
vn 0.6803 -0.0398 -0.7319
s 1
usemtl mtl1.1038
f 4//1 2//2 1//3
f 3//4 1//3 11//5
f 9//6 13//7 2//2
f 5//8 6//9 287//10
f 5//8 287//10 1//3
f 7//11 6//9 5//8
f 5//8 1//3 3//4
f 288//12 3//4 7//11
f 8//13 2//2 4//1
f 289//14 15//15 8//13
f 9//6 2//2 8//13
f 9//6 8//13 15//15
f 1//3 10//16 11//5
f 1//3 18//17 10//16
f 290//18 3//4 11//5
f 3//4 33//19 7//11
f 33//19 30//20 7//11
f 30//20 14//21 7//11
f 7//11 14//21 15//15
f 9//6 15//15 34//22
f 19//23 10//16 18//17
f 10//16 19//23 50//24
f 11//5 10//16 21//25
f 21//25 20//26 11//5
f 12//27 11//5 20//26
f 17//28 21//25 10//16
f 22//29 24//30 26//31
f 12//27 20//26 23//32
f 291//33 26//31 25//34
f 26//31 24//30 292//35
f 13//7 27//36 22//29
f 22//29 27//36 24//30
f 28//37 12//27 23//32
f 27//36 13//7 63//38
f 9//6 63//38 13//7
f 27//36 29//39 24//30
f 294//40 29//39 27//36
f 294//40 63//38 29//39
f 63//38 54//41 28//37
f 54//41 3//4 290//18
f 54//41 12//27 28//37
f 14//21 31//42 15//15
f 32//43 35//44 31//42
f 3//4 54//41 33//19
f 31//42 30//20 33//19
f 34//22 15//15 31//42
f 34//22 31//42 35//44
f 35//44 16//45 34//22
f 36//46 16//45 35//44
f 36//46 32//43 16//45
f 9//6 34//22 37//47
f 38//48 37//47 34//22
f 16//45 41//49 34//22
f 16//45 42//50 41//49
f 34//22 41//49 40//51
f 34//22 45//52 38//48
f 42//50 16//45 43//53
f 39//54 43//53 16//45
f 43//53 39//54 46//55
f 47//56 45//52 41//49
f 45//52 40//51 41//49
f 42//50 43//53 44//57
f 46//55 44//57 43//53
f 19//23 51//58 50//24
f 60//59 22//29 52//60
f 52//60 22//29 26//31
f 26//31 291//33 298//61
f 75//62 26//31 58//63
f 298//61 58//63 26//31
f 63//38 33//19 54//41
f 31//42 53//64 32//43
f 33//19 82//65 31//42
f 9//6 37//47 67//66
f 37//47 55//67 67//66
f 37//47 56//68 55//67
f 62//69 98//70 39//54
f 56//68 38//48 45//52
f 45//52 47//56 48//71
f 44//57 46//55 49//72
f 85//73 296//74 301//75
f 299//76 58//63 298//61
f 70//77 302//78 51//58
f 51//58 19//23 72//79
f 72//79 19//23 59//80
f 52//60 26//31 75//62
f 32//43 53//64 62//69
f 65//81 66//82 33//19
f 77//83 33//19 66//82
f 64//84 82//65 33//19
f 33//19 61//85 64//84
f 300//86 63//38 80//87
f 81//88 82//65 64//84
f 53//64 31//42 79//89
f 32//43 62//69 39//54
f 9//6 67//66 63//38
f 55//67 83//90 80//87
f 63//38 67//66 80//87
f 56//68 45//52 55//67
f 55//67 45//52 83//90
f 39//54 98//70 46//55
f 45//52 48//71 68//91
f 83//90 45//52 68//91
f 84//92 69//93 49//72
f 84//92 49//72 46//55
f 71//94 70//77 58//63
f 70//77 86//95 58//63
f 72//79 70//77 51//58
f 88//96 73//97 58//63
f 88//96 58//63 87//98
f 88//96 90//99 73//97
f 60//59 52//60 74//100
f 72//79 60//59 74//100
f 303//101 52//60 75//62
f 73//97 76//102 77//83
f 73//97 77//83 74//100
f 75//62 58//63 73//97
f 73//97 90//99 76//102
f 74//100 77//83 66//82
f 90//99 81//88 64//84
f 79//89 62//69 53//64
f 91//103 78//104 80//87
f 80//87 78//104 300//86
f 92//105 304//106 81//88
f 31//42 82//65 79//89
f 95//107 98//70 62//69
f 80//87 83//90 97//108
f 100//109 111//110 68//91
f 70//77 102//111 86//95
f 104//112 86//95 102//111
f 58//63 86//95 87//98
f 104//112 105//113 87//98
f 72//79 74//100 89//114
f 74//100 78//104 91//103
f 90//99 92//105 81//88
f 91//103 97//108 92//105
f 94//115 92//105 97//108
f 92//105 94//115 304//106
f 96//116 79//89 82//65
f 91//103 80//87 97//108
f 94//115 97//108 109//117
f 109//117 96//116 82//65
f 94//115 109//117 82//65
f 95//107 109//117 98//70
f 98//70 109//117 110//118
f 98//70 99//119 84//92
f 99//119 110//118 84//92
f 111//110 124//120 97//108
f 98//70 84//92 46//55
f 97//108 83//90 68//91
f 111//110 97//108 68//91
f 305//121 85//73 101//122
f 85//73 301//75 101//122
f 306//123 113//124 112//125
f 69//93 84//92 307//126
f 113//124 308//127 84//92
f 102//111 103//128 114//129
f 103//128 121//130 114//129
f 309//131 139//132 103//128
f 102//111 70//77 103//128
f 70//77 72//79 103//128
f 135//133 139//132 310//134
f 72//79 311//135 103//128
f 89//114 164//136 135//133
f 88//96 87//98 105//113
f 88//96 105//113 106//137
f 106//137 93//138 90//99
f 91//103 93//138 106//137
f 115//139 91//103 106//137
f 88//96 106//137 90//99
f 89//114 74//100 107//140
f 116//141 89//114 107//140
f 91//103 108//142 74//100
f 108//142 107//140 74//100
f 92//105 93//138 91//103
f 124//120 109//117 97//108
f 84//92 110//118 117//143
f 119//144 111//110 100//109
f 104//112 102//111 105//113
f 163//145 122//146 102//111
f 102//111 115//139 105//113
f 122//146 115//139 102//111
f 89//114 116//141 164//136
f 116//141 312//147 108//142
f 123//148 108//142 91//103
f 124//120 118//149 109//117
f 117//143 109//117 118//149
f 110//118 109//117 117//143
f 124//120 125//150 118//149
f 124//120 111//110 126//151
f 113//124 84//92 117//143
f 119//144 128//152 111//110
f 127//153 112//125 113//124
f 119//144 127//153 128//152
f 131//154 120//155 130//156
f 132//157 120//155 131//154
f 115//139 156//158 91//103
f 124//120 136//159 125//150
f 136//159 117//143 125//150
f 113//124 131//154 127//153
f 128//152 127//153 129//160
f 111//110 128//152 126//151
f 129//160 131//154 130//156
f 127//153 131//154 129//160
f 148//161 128//152 130//156
f 133//162 134//163 120//155
f 137//164 120//155 134//163
f 132//157 131//154 133//162
f 121//130 103//128 139//132
f 163//145 102//111 121//130
f 163//145 156//158 122//146
f 140//165 116//141 108//142
f 140//165 108//142 123//148
f 145//166 126//151 128//152
f 145//166 128//152 148//161
f 149//167 133//162 131//154
f 130//156 120//155 137//164
f 137//164 148//161 130//156
f 148//161 137//164 138//168
f 134//163 150//169 137//164
f 134//163 152//170 150//169
f 151//171 152//170 134//163
f 134//163 133//162 149//167
f 155//172 154//173 121//130
f 163//145 121//130 154//173
f 155//172 121//130 139//132
f 157//174 141//175 124//120
f 124//120 141//175 136//159
f 126//151 159//176 124//120
f 157//174 124//120 159//176
f 144//177 113//124 117//143
f 117//143 136//159 142//178
f 142//178 144//177 117//143
f 159//176 126//151 143//179
f 145//166 143//179 126//151
f 144//177 131//154 113//124
f 144//177 147//180 131//154
f 161//181 147//180 144//177
f 147//180 149//167 131//154
f 145//166 148//161 146//182
f 146//182 147//180 161//181
f 147//180 146//182 148//161
f 150//169 152//170 138//168
f 147//180 153//183 314//184
f 149//167 151//171 134//163
f 316//185 317//185 315//185
f 164//136 139//132 135//133
f 91//103 166//186 123//148
f 123//148 166//186 167//187
f 156//158 166//186 91//103
f 158//188 142//178 157//174
f 144//177 142//178 158//188
f 143//179 160//189 170//190
f 161//181 171//191 322//192
f 318//193 146//182 172//194
f 160//189 318//193 172//194
f 161//181 322//192 146//182
f 144//177 171//191 319//195
f 143//179 145//166 160//189
f 318//193 145//166 146//182
f 148//161 162//196 147//180
f 162//196 138//168 152//170
f 147//180 162//196 153//183
f 155//172 173//197 154//173
f 165//198 156//158 163//145
f 179//199 156//158 165//198
f 156//158 179//199 178//200
f 168//201 158//188 157//174
f 320//202 169//203 158//188
f 171//191 144//177 158//188
f 159//176 143//179 321//204
f 170//190 160//189 182//205
f 182//205 160//189 172//194
f 173//197 164//136 186//206
f 155//172 164//136 173//197
f 173//197 175//207 154//173
f 163//145 174//208 165//198
f 177//209 167//187 176//210
f 140//165 189//211 164//136
f 177//209 326//212 180//213
f 166//186 177//209 176//210
f 177//209 166//186 178//200
f 323//214 167//187 166//186
f 178//200 166//186 156//158
f 164//136 116//141 140//165
f 180//213 167//187 177//209
f 181//215 194//216 168//201
f 157//174 181//215 168//201
f 157//174 193//217 181//215
f 320//202 329//218 169//203
f 159//176 199//219 190//220
f 199//219 159//176 321//204
f 198//221 171//191 158//188
f 200//222 170//190 182//205
f 172//194 201//223 182//205
f 322//192 171//191 172//194
f 175//207 183//224 154//173
f 163//145 154//173 183//224
f 184//225 185//226 174//208
f 163//145 183//224 184//225
f 185//226 165//198 174//208
f 324//227 186//206 187//228
f 165//198 185//226 325//229
f 189//211 187//228 186//206
f 186//206 164//136 189//211
f 165//198 188//230 179//199
f 326//212 177//209 328//231
f 190//220 179//199 191//232
f 190//220 191//232 192//233
f 178//200 190//220 217//234
f 190//220 178//200 179//199
f 192//233 191//232 193//217
f 191//232 196//235 193//217
f 193//217 196//235 181//215
f 181//215 195//236 194//216
f 195//236 231//237 197//238
f 159//176 190//220 193//217
f 157//174 159//176 193//217
f 198//221 158//188 197//238
f 190//220 199//219 217//234
f 171//191 201//223 172//194
f 204//239 183//224 220//240
f 184//225 183//224 202//241
f 220//240 183//224 175//207
f 183//224 204//239 330//242
f 202//241 203//243 184//225
f 184//225 205//244 185//226
f 184//225 203//243 188//230
f 203//243 209//245 188//230
f 247//246 175//207 206//247
f 211//248 209//245 208//249
f 209//245 331//250 212//251
f 203//243 208//249 209//245
f 179//199 188//230 209//245
f 206//247 327//252 210//253
f 327//252 212//251 210//253
f 210//253 207//254 206//247
f 208//249 210//253 211//248
f 331//250 211//248 212//251
f 210//253 212//251 211//248
f 214//255 179//199 209//245
f 191//232 179//199 214//255
f 212//251 214//255 209//245
f 328//231 332//256 326//212
f 333//257 178//200 213//258
f 227//259 334//259 335//259
f 214//255 223//260 191//232
f 343//261 258//262 337//263
f 224//264 337//263 258//262
f 213//258 178//200 215//265
f 196//235 191//232 224//264
f 178//200 217//234 215//265
f 215//265 217//234 338//266
f 339//267 218//268 217//234
f 199//219 339//267 217//234
f 171//191 198//221 219//269
f 339//267 170//190 200//222
f 171//191 219//269 201//223
f 219//269 200//222 201//223
f 247//246 220//240 175//207
f 233//270 220//240 247//246
f 206//247 207//254 247//246
f 207//254 208//249 235//271
f 207//254 235//271 247//246
f 208//249 203//243 235//271
f 234//272 235//271 203//243
f 212//251 221//273 214//255
f 214//255 341//274 223//260
f 225//275 221//273 212//251
f 342//276 222//277 362//278
f 362//278 344//279 342//276
f 195//236 196//235 231//237
f 222//277 342//276 226//280
f 348//281 336//282 216//283
f 218//268 229//284 216//283
f 229//284 218//268 230//285
f 228//286 229//284 230//285
f 230//285 218//268 239//287
f 231//237 219//269 197//238
f 232//288 339//267 200//222
f 200//222 219//269 232//288
f 232//288 219//269 240//289
f 256//290 203//243 220//240
f 234//272 203//243 256//290
f 220//240 349//291 245//291
f 235//271 355//292 247//246
f 257//293 236//294 346//295
f 222//277 259//296 258//262
f 236//294 347//297 346//295
f 237//298 222//277 236//294
f 237//298 259//296 222//277
f 196//235 224//264 260//299
f 348//281 216//283 263//300
f 263//300 228//286 238//301
f 228//286 263//300 216//283
f 238//301 228//286 230//285
f 265//302 230//285 239//287
f 267//303 231//237 196//235
f 241//304 268//305 218//268
f 242//306 219//269 231//237
f 218//268 339//267 241//304
f 241//304 339//267 232//288
f 247//246 248//307 243//308
f 247//246 243//308 233//270
f 243//308 350//309 233//270
f 352//310 251//311 256//290
f 243//308 246//312 351//313
f 220//240 352//310 256//290
f 246//312 243//308 273//314
f 248//307 273//314 243//308
f 250//315 249//316 234//272
f 256//290 250//315 234//272
f 352//310 353//317 252//318
f 352//310 252//318 251//311
f 356//319 254//320 274//321
f 253//322 237//298 236//294
f 254//320 356//319 249//316
f 253//322 255//323 237//298
f 253//322 257//293 357//324
f 358//325 361//325 367//325
f 251//311 359//326 256//290
f 237//298 255//323 277//327
f 257//293 253//322 236//294
f 257//293 346//295 263//300
f 257//293 263//300 368//328
f 372//329 259//296 237//298
f 258//262 259//296 224//264
f 261//330 196//235 260//299
f 260//299 224//264 262//331
f 363//332 261//330 260//299
f 224//264 259//296 262//331
f 238//301 265//302 264//333
f 266//334 364//335 268//305
f 265//302 239//287 365//336
f 265//302 365//336 264//333
f 269//337 231//237 267//303
f 268//305 239//287 218//268
f 365//336 270//338 269//337
f 266//334 268//305 271//339
f 272//340 269//337 270//338
f 271//339 268//305 241//304
f 269//337 272//340 231//237
f 231//237 272//340 242//306
f 353//317 273//314 252//318
f 366//341 248//307 247//246
f 273//314 275//342 252//318
f 247//246 368//328 366//341
f 369//343 276//344 251//311
f 370//345 359//326 251//311
f 369//343 251//311 252//318
f 372//329 360//346 371//347
f 371//347 275//342 372//329
f 263//300 366//341 368//328
f 263//300 283//348 366//341
f 372//329 286//349 259//296
f 263//300 264//333 284//350
f 279//351 284//350 264//333
f 259//296 278//352 264//333
f 278//352 286//349 279//351
f 284//350 283//348 263//300
f 263//300 238//301 264//333
f 278//352 279//351 264//333
f 259//296 264//333 262//331
f 282//353 196//235 261//330
f 262//331 264//333 280//354
f 281//355 280//354 264//333
f 261//330 373//356 282//353
f 281//355 365//336 269//337
f 281//355 269//337 267//303
f 281//355 264//333 365//336
f 282//353 267//303 196//235
f 275//342 283//348 284//350
f 275//342 284//350 285//357
f 286//349 372//329 275//342
f 286//349 275//342 285//357
f 279//351 286//349 285//357
l 41 44
l 244 354
l 340 345
l 293 295
l 57 297
l 125 313
