# Blender 4.0.2
# www.blender.org
o jaw_left_first_lower_molar_tooth.004
v 0.071853 -0.025881 -0.016366
v 0.070414 -0.023130 -0.017053
v 0.075584 -0.023642 -0.017168
v 0.074533 -0.022272 -0.017127
v 0.066321 -0.024779 -0.017389
v 0.070003 -0.029096 -0.018155
v 0.068759 -0.021976 -0.017493
v 0.073693 -0.021831 -0.017712
v 0.069988 -0.032542 -0.018579
v 0.066329 -0.027762 -0.019025
v 0.072609 -0.031637 -0.018910
v 0.072959 -0.029073 -0.018789
v 0.064536 -0.023815 -0.019296
v 0.075828 -0.025495 -0.018531
v 0.067252 -0.020442 -0.018669
v 0.068206 -0.020524 -0.018649
v 0.075773 -0.023274 -0.019456
v 0.067940 -0.034318 -0.020471
v 0.067357 -0.032093 -0.019737
v 0.064330 -0.026909 -0.020956
v 0.070280 -0.022602 -0.019070
v 0.072954 -0.023094 -0.020501
v 0.071429 -0.035731 -0.020914
v 0.065025 -0.031705 -0.020473
v 0.074427 -0.031498 -0.021826
v 0.066414 -0.021307 -0.020986
v 0.070410 -0.023276 -0.021269
v 0.076950 -0.025196 -0.021825
v 0.067380 -0.040223 -0.023075
v 0.067583 -0.036357 -0.022157
v 0.067181 -0.032817 -0.021813
v 0.074973 -0.028297 -0.021634
v 0.069327 -0.022286 -0.021677
v 0.077039 -0.022839 -0.022271
v 0.066198 -0.039512 -0.023841
v 0.065467 -0.034809 -0.022279
v 0.068556 -0.033613 -0.024142
v 0.069783 -0.038427 -0.023498
v 0.064181 -0.026331 -0.022867
v 0.064851 -0.022214 -0.023506
v 0.066058 -0.020940 -0.022148
v 0.066122 -0.020943 -0.021912
v 0.063737 -0.036439 -0.024186
v 0.062923 -0.035543 -0.024710
v 0.067323 -0.040058 -0.024683
v 0.069032 -0.035995 -0.024650
v 0.068088 -0.033261 -0.024319
v 0.074229 -0.031791 -0.024903
v 0.063477 -0.028544 -0.024175
v 0.075743 -0.026910 -0.025541
v 0.073014 -0.021481 -0.024330
v 0.074925 -0.022110 -0.024370
v 0.064745 -0.037528 -0.024919
v 0.067501 -0.035117 -0.025583
v 0.070837 -0.035089 -0.025387
v 0.065422 -0.025860 -0.025450
v 0.066073 -0.020932 -0.024846
v 0.067665 -0.020486 -0.024979
v 0.075060 -0.024158 -0.025870
v 0.062114 -0.038813 -0.026524
v 0.062632 -0.036710 -0.027568
v 0.068510 -0.033222 -0.025051
v 0.069849 -0.020811 -0.025830
v 0.069035 -0.032451 -0.027214
v 0.073039 -0.031824 -0.026744
v 0.065102 -0.028177 -0.027793
v 0.071545 -0.021950 -0.026759
v 0.062301 -0.039353 -0.027559
v 0.064400 -0.038235 -0.027486
v 0.065531 -0.035910 -0.027854
v 0.068091 -0.026451 -0.027595
v 0.074460 -0.026476 -0.026855
v 0.069530 -0.023665 -0.027824
v 0.063112 -0.038467 -0.028164
v 0.065583 -0.031735 -0.028679
v 0.068615 -0.030655 -0.028439
v 0.068805 -0.027542 -0.028141
v 0.071483 -0.024754 -0.027845
v 0.068088 -0.033258 -0.024317
v 0.074501 -0.037234 0.024605
v 0.077952 -0.034728 0.024964
v 0.079361 -0.031385 0.024640
v 0.081360 -0.027936 0.024675
v 0.071754 -0.046597 0.023509
v 0.071027 -0.043450 0.023672
v 0.073387 -0.043936 0.023578
v 0.078853 -0.036040 0.023701
v 0.080257 -0.031840 0.024005
v 0.078266 -0.030381 0.024682
v 0.081368 -0.030911 0.023628
v 0.078560 -0.025151 0.024382
v 0.070713 -0.046533 0.022874
v 0.070296 -0.045378 0.022409
v 0.072146 -0.046917 0.021948
v 0.073042 -0.036176 0.022868
v 0.074820 -0.030870 0.021056
v 0.074920 -0.026942 0.021528
v 0.082747 -0.027771 0.023232
v 0.078092 -0.023963 0.022821
v 0.079744 -0.023477 0.022914
v 0.071649 -0.046178 0.021171
v 0.071259 -0.040175 0.021821
v 0.080490 -0.033802 0.021896
v 0.083846 -0.026543 0.020315
v 0.076916 -0.024314 0.022178
v 0.077736 -0.024064 0.022660
v 0.082389 -0.023862 0.022349
v 0.072432 -0.041424 0.019948
v 0.081136 -0.023592 0.020722
v 0.078619 -0.035980 0.019980
v 0.077226 -0.024427 0.019390
v 0.083098 -0.024981 0.020499
v 0.076117 -0.038081 0.019408
v 0.075086 -0.031859 0.019475
v 0.074541 -0.026790 0.019621
v 0.080523 -0.030516 0.019093
v 0.078461 -0.025200 0.020328
v 0.079557 -0.024883 0.019280
v 0.082502 -0.026157 0.018500
v 0.078936 -0.033389 0.018455
v 0.077294 -0.030760 0.017786
v 0.075241 -0.026170 0.018799
v 0.082728 -0.027581 0.018842
v 0.078249 -0.024570 0.017619
v 0.080460 -0.025830 0.019112
v 0.076033 -0.027827 0.017306
v 0.080924 -0.026165 0.017512
v 0.079555 -0.024713 0.017899
v 0.078434 -0.027468 0.016868
v 0.079712 -0.024968 0.017922
v 0.050638 -0.031628 0.032161
v 0.055611 -0.026490 0.033292
v 0.056512 -0.022726 0.033278
v 0.059566 -0.026245 0.032958
v 0.060533 -0.030063 0.032445
v 0.061685 -0.024000 0.032684
v 0.058682 -0.021267 0.032427
v 0.049932 -0.030549 0.031634
v 0.052113 -0.031675 0.032040
v 0.057352 -0.031459 0.031794
v 0.056378 -0.029240 0.031184
v 0.056779 -0.029374 0.031085
v 0.062623 -0.028405 0.031600
v 0.063342 -0.025755 0.031395
v 0.058190 -0.019230 0.031892
v 0.060002 -0.018342 0.031383
v 0.049750 -0.032008 0.031449
v 0.051995 -0.032308 0.030227
v 0.054576 -0.034112 0.031336
v 0.054172 -0.034454 0.030872
v 0.053663 -0.034290 0.029944
v 0.055401 -0.034919 0.030720
v 0.059568 -0.032258 0.031208
v 0.056384 -0.029201 0.031132
v 0.052457 -0.026455 0.030204
v 0.056168 -0.021091 0.031605
v 0.050156 -0.032035 0.029637
v 0.054210 -0.034399 0.030829
v 0.056689 -0.029110 0.029513
v 0.056657 -0.029122 0.029491
v 0.061794 -0.030357 0.028582
v 0.055762 -0.018053 0.028569
v 0.058091 -0.016525 0.029267
v 0.062387 -0.018260 0.029624
v 0.064847 -0.020786 0.029756
v 0.054177 -0.033481 0.029185
v 0.054861 -0.034536 0.028442
v 0.049401 -0.030714 0.029987
v 0.056607 -0.034193 0.028532
v 0.052002 -0.028425 0.027549
v 0.056560 -0.029496 0.026619
v 0.056259 -0.029063 0.027981
v 0.063368 -0.026438 0.029163
v 0.060120 -0.016240 0.028610
v 0.064539 -0.018430 0.027420
v 0.053382 -0.024193 0.026095
v 0.057642 -0.016556 0.026996
v 0.062465 -0.017489 0.027846
v 0.056265 -0.027959 0.024695
v 0.066017 -0.021897 0.025823
v 0.065448 -0.019601 0.025604
v 0.058270 -0.030930 0.025868
v 0.053707 -0.026806 0.025083
v 0.061805 -0.027963 0.025242
v 0.055482 -0.018663 0.024484
v 0.057188 -0.017242 0.025770
v 0.059083 -0.018705 0.026101
v 0.064080 -0.018720 0.025982
v 0.054315 -0.023623 0.024963
v 0.060555 -0.020310 0.025581
v 0.057081 -0.017596 0.024951
v 0.057912 -0.017563 0.023102
v 0.062266 -0.020486 0.024902
v 0.063394 -0.020962 0.024781
v 0.065689 -0.021819 0.024608
v 0.059159 -0.026184 0.023139
v 0.064235 -0.023839 0.022748
v 0.060442 -0.020065 0.024583
v 0.064958 -0.021833 0.023698
v 0.065654 -0.021825 0.024627
v 0.062526 -0.024855 0.022335
v 0.055880 -0.020971 0.022574
v 0.059068 -0.019104 0.022895
v 0.062897 -0.020006 0.022064
v 0.058617 -0.017562 0.023323
v 0.062962 -0.019894 0.023269
v 0.061312 -0.023598 0.021289
v 0.060148 -0.020374 0.022266
v 0.064411 -0.021399 0.021938
v 0.098189 -0.027149 0.012861
v 0.097655 -0.026060 0.012399
v 0.098585 -0.025850 0.012125
v 0.099574 -0.026897 0.011857
v 0.095900 -0.028218 0.010796
v 0.100563 -0.026331 0.009989
v 0.097212 -0.034901 0.010127
v 0.099313 -0.026176 0.007940
v 0.090274 -0.040589 0.008653
v 0.090345 -0.033614 0.009050
v 0.098978 -0.033181 0.009509
v 0.093922 -0.028861 0.009150
v 0.091790 -0.039856 0.008538
v 0.096672 -0.036422 0.007957
v 0.091336 -0.030932 0.008231
v 0.100930 -0.027792 0.008213
v 0.091999 -0.040670 0.006892
v 0.097110 -0.033543 0.007093
v 0.099814 -0.030425 0.007489
v 0.100520 -0.026358 0.007828
v 0.084208 -0.050983 0.005926
v 0.085452 -0.050203 0.006492
v 0.086077 -0.050239 0.005562
v 0.086757 -0.044823 0.006521
v 0.089034 -0.034487 0.006795
v 0.094531 -0.029652 0.006889
v 0.098086 -0.028248 0.007013
v 0.084343 -0.050920 0.005895
v 0.084080 -0.050908 0.005663
v 0.089811 -0.034423 0.005773
v 0.095074 -0.036128 0.006073
v 0.093885 -0.031516 0.006030
v 0.100074 -0.027710 0.006997
v 0.084071 -0.050789 0.004995
v 0.087656 -0.043749 0.005102
v 0.088349 -0.042391 0.005104
v 0.090729 -0.041455 0.005202
v 0.090742 -0.041318 0.005298
v 0.095627 -0.033474 0.006017
v 0.095331 -0.031519 0.006152
v 0.099945 -0.027540 0.006796
v 0.099322 -0.026287 0.006170
v 0.100643 -0.026122 0.006329
v 0.097551 -0.033751 0.005126
v 0.096672 -0.028830 0.005062
v 0.101035 -0.027838 0.005612
v 0.089351 -0.038183 0.004818
v 0.091965 -0.039610 0.004570
v 0.088584 -0.037041 0.003981
v 0.101059 -0.025789 0.004652
v 0.083814 -0.050962 0.003220
v 0.088724 -0.047139 0.003390
v 0.086083 -0.045721 0.003445
v 0.092294 -0.040502 0.003572
v 0.098412 -0.033848 0.003814
v 0.100757 -0.026002 0.002411
v 0.083377 -0.050749 0.002849
v 0.083205 -0.050998 0.002286
v 0.084090 -0.051255 0.002562
v 0.088621 -0.047520 0.002474
v 0.085877 -0.046091 0.003437
v 0.086637 -0.044840 0.002192
v 0.092233 -0.031449 0.003181
v 0.092353 -0.031017 0.002197
v 0.099246 -0.032426 0.002503
v 0.084101 -0.050453 0.001715
v 0.086987 -0.047034 0.001526
v 0.091684 -0.041276 0.002287
v 0.088807 -0.037096 0.001905
v 0.093291 -0.037904 0.001318
v 0.095795 -0.035794 0.002129
v 0.101552 -0.027302 0.002049
v 0.090214 -0.039876 0.001122
v 0.094403 -0.032255 0.000888
v 0.093397 -0.031154 0.001051
v 0.096522 -0.029978 0.001479
v 0.099984 -0.028941 0.000810
v 0.100419 -0.026949 0.001204
v 0.090973 -0.027903 0.017428
v 0.093919 -0.028620 0.017327
v 0.092639 -0.026815 0.017571
v 0.089080 -0.038385 0.014791
v 0.089366 -0.029329 0.016364
v 0.090261 -0.028134 0.016345
v 0.094439 -0.025927 0.016384
v 0.096149 -0.026282 0.015824
v 0.092992 -0.035753 0.014877
v 0.096848 -0.029552 0.014649
v 0.092127 -0.026925 0.016003
v 0.094244 -0.025286 0.014921
v 0.096419 -0.026022 0.014817
v 0.083301 -0.049051 0.014290
v 0.083288 -0.051398 0.013678
v 0.085392 -0.048568 0.014320
v 0.087279 -0.043257 0.014249
v 0.089506 -0.041245 0.013974
v 0.085875 -0.038307 0.013068
v 0.087264 -0.030528 0.013277
v 0.091148 -0.028521 0.013664
v 0.081579 -0.051667 0.013205
v 0.084193 -0.051382 0.013122
v 0.082092 -0.049522 0.013170
v 0.084949 -0.044431 0.013245
v 0.096605 -0.027245 0.013063
v 0.095024 -0.026174 0.013693
v 0.081294 -0.052080 0.012289
v 0.082124 -0.052258 0.012165
v 0.081916 -0.049818 0.011723
v 0.084463 -0.044711 0.011966
v 0.094027 -0.035911 0.013143
v 0.087043 -0.031421 0.011675
v 0.096022 -0.031903 0.012216
v 0.095361 -0.026861 0.012253
v 0.084522 -0.047129 0.010869
v 0.095536 -0.030333 0.011383
v 0.090188 -0.041494 0.010760
v 0.091876 -0.031625 0.010276
v 0.088984 -0.041570 0.009212
v 0.087523 -0.040874 0.008950
v 0.089213 -0.037486 0.009098
v 0.085209 -0.029689 0.021638
v 0.087610 -0.031858 0.021372
v 0.086507 -0.027431 0.021690
v 0.088748 -0.028776 0.020933
v 0.082093 -0.041432 0.020464
v 0.084280 -0.032598 0.020630
v 0.085127 -0.037305 0.020746
v 0.086809 -0.034187 0.020410
v 0.084861 -0.025679 0.020665
v 0.089566 -0.026062 0.019749
v 0.087252 -0.024899 0.020046
v 0.076363 -0.046352 0.018993
v 0.078666 -0.046451 0.019516
v 0.077979 -0.041246 0.018972
v 0.082419 -0.031748 0.019164
v 0.089484 -0.031961 0.019487
v 0.090160 -0.028570 0.019209
v 0.076934 -0.047269 0.018826
v 0.076887 -0.043729 0.018461
v 0.085350 -0.039742 0.018877
v 0.082049 -0.027997 0.019086
v 0.089642 -0.031584 0.017337
v 0.083441 -0.025935 0.018299
v 0.088990 -0.024817 0.018501
v 0.077377 -0.047078 0.017740
v 0.077249 -0.045747 0.017104
v 0.079712 -0.046377 0.017399
v 0.079878 -0.035870 0.016793
v 0.081707 -0.031644 0.017257
v 0.081850 -0.028337 0.015753
v 0.084760 -0.026588 0.017000
v 0.086809 -0.025258 0.017169
v 0.079214 -0.045264 0.016202
v 0.086132 -0.038012 0.016105
v 0.090519 -0.026949 0.016165
v 0.081810 -0.044051 0.016236
v 0.080355 -0.040334 0.015275
v 0.088094 -0.031739 0.015000
v 0.084296 -0.025904 0.015318
v 0.085972 -0.026212 0.016111
v 0.087291 -0.027405 0.015708
v 0.084232 -0.038999 0.014559
v 0.082118 -0.032307 0.015413
v 0.085602 -0.025818 0.014891
v 0.088759 -0.027750 0.014505
v 0.083851 -0.032719 0.014438
v 0.083260 -0.029335 0.013885
v 0.087022 -0.027586 0.014357
v 0.066239 -0.031655 0.030231
v 0.061918 -0.038794 0.028715
v 0.063112 -0.038976 0.029363
v 0.065537 -0.035715 0.029179
v 0.065078 -0.028231 0.029126
v 0.069160 -0.030610 0.029556
v 0.069173 -0.027674 0.029375
v 0.070126 -0.024098 0.029387
v 0.062328 -0.039226 0.028743
v 0.062363 -0.039404 0.028765
v 0.062840 -0.035737 0.028654
v 0.068912 -0.032639 0.028409
v 0.072635 -0.031665 0.028355
v 0.066201 -0.025744 0.027701
v 0.074479 -0.026504 0.028212
v 0.062035 -0.038610 0.027918
v 0.064684 -0.037677 0.026327
v 0.067460 -0.035199 0.026650
v 0.069252 -0.033279 0.027141
v 0.071033 -0.035285 0.026479
v 0.073777 -0.031749 0.027275
v 0.075190 -0.023119 0.026414
v 0.071086 -0.021684 0.028148
v 0.063188 -0.036685 0.026010
v 0.068133 -0.033279 0.025806
v 0.075893 -0.026351 0.026588
v 0.066365 -0.021448 0.026681
v 0.069077 -0.020645 0.026486
v 0.066181 -0.039497 0.025260
v 0.067454 -0.040145 0.025943
v 0.065761 -0.035210 0.024029
v 0.069148 -0.036518 0.026098
v 0.068965 -0.034383 0.025894
v 0.068544 -0.033540 0.026390
v 0.063884 -0.026911 0.023925
v 0.074597 -0.031578 0.024119
v 0.065083 -0.021806 0.025077
v 0.066816 -0.020466 0.026084
v 0.073019 -0.021476 0.025575
v 0.067301 -0.040210 0.024350
v 0.067399 -0.036668 0.023705
v 0.071054 -0.036882 0.023459
v 0.063137 -0.032493 0.024733
v 0.068254 -0.033285 0.025582
v 0.067048 -0.032755 0.023012
v 0.075327 -0.028079 0.024161
v 0.077271 -0.023677 0.023666
v 0.065043 -0.032557 0.022352
v 0.067872 -0.034118 0.022719
v 0.076651 -0.026031 0.024190
v 0.066080 -0.020848 0.023657
v 0.069420 -0.022356 0.023002
v 0.076906 -0.022814 0.023484
v 0.070405 -0.023291 0.022562
v 0.069274 -0.037067 0.022230
v 0.064770 -0.027297 0.021405
v 0.064398 -0.023645 0.021383
v 0.073474 -0.028885 0.020482
v 0.066087 -0.021347 0.022152
v 0.072769 -0.023133 0.021760
v 0.067524 -0.031999 0.020843
v 0.064890 -0.030118 0.021404
v 0.072855 -0.031712 0.020408
v 0.075696 -0.025624 0.019713
v 0.075710 -0.023200 0.020912
v 0.069695 -0.033152 0.020122
v 0.065986 -0.027907 0.020609
v 0.067119 -0.020590 0.020126
v 0.070248 -0.022644 0.019978
v 0.068392 -0.020661 0.020076
v 0.075694 -0.023256 0.020924
v 0.075977 -0.023597 0.020896
v 0.070467 -0.029247 0.019425
v 0.065528 -0.023638 0.019387
v 0.067244 -0.025596 0.018558
v 0.073894 -0.025510 0.018169
v 0.067992 -0.021508 0.019031
v 0.073709 -0.021781 0.018843
v 0.071136 -0.025615 0.017661
v 0.070250 -0.023196 0.018277
v 0.075448 -0.022880 0.018482
v 0.019211 0.017069 0.053852
v 0.020540 0.018596 0.053294
v 0.016221 0.018462 0.053694
v 0.016414 0.016620 0.053379
v 0.017999 0.020422 0.053211
v 0.023354 0.018441 0.049806
v 0.018494 0.011528 0.050577
v 0.014861 0.020034 0.052204
v 0.021466 0.011542 0.050890
v 0.022520 0.024385 0.047476
v 0.015879 0.013742 0.048953
v 0.024215 0.000686 0.047890
v 0.028948 0.013893 0.046834
v 0.024850 0.003332 0.048058
v 0.025619 0.016714 0.047288
v 0.025801 0.016709 0.047332
v 0.023938 0.019582 0.047411
v 0.018593 0.026324 0.047811
v 0.020465 0.026230 0.045474
v 0.017123 0.026694 0.045296
v 0.013791 0.024369 0.045350
v 0.061182 0.006887 0.043418
v 0.059247 0.014165 0.044411
v 0.057455 0.014427 0.045718
v 0.057000 0.015148 0.044971
v 0.052970 0.010212 0.046114
v 0.050691 0.008900 0.045586
v 0.046793 -0.002713 0.045187
v 0.058573 -0.002155 0.043208
v 0.041201 -0.010833 0.046040
v 0.046338 0.005436 0.045629
v 0.047325 0.006314 0.045294
v 0.045624 0.005506 0.044991
v 0.045606 0.005512 0.044987
v 0.042355 0.005364 0.045330
v 0.044661 0.005061 0.045298
v 0.043989 0.005297 0.044566
v 0.047507 0.005060 0.044534
v 0.043152 -0.022868 0.043110
v 0.036623 0.008281 0.045602
v 0.040451 0.006452 0.044716
v 0.039992 0.006662 0.044697
v 0.038598 0.007104 0.045327
v 0.030956 -0.021957 0.043424
v 0.033395 0.010348 0.045625
v 0.030210 0.012662 0.046225
v 0.030194 0.012695 0.046222
v 0.019875 -0.004663 0.043988
v 0.017451 0.004634 0.043167
v 0.014926 0.013781 0.043269
v 0.013151 0.018517 0.043717
v 0.013015 0.023367 0.043624
v 0.061108 0.002107 0.041983
v 0.060706 0.010449 0.042106
v 0.057421 -0.007501 0.041646
v 0.058398 -0.004696 0.041717
v 0.058616 0.009586 0.041284
v 0.057805 0.014525 0.043616
v 0.056970 -0.009813 0.042136
v 0.039906 -0.033615 0.042534
v 0.044797 -0.005356 0.039016
v 0.039673 0.002771 0.041740
v 0.035405 -0.034269 0.041893
v 0.031578 -0.028781 0.043057
v 0.028651 -0.031570 0.041153
v 0.025997 0.010808 0.043391
v 0.024171 -0.027216 0.040825
v 0.022967 -0.017676 0.041998
v 0.023708 0.006469 0.042026
v 0.023905 0.015372 0.042993
v 0.020346 0.012736 0.041305
v 0.020129 0.002577 0.041307
v 0.017423 0.009985 0.042344
v 0.059001 -0.021617 0.040176
v 0.061972 -0.024450 0.037780
v 0.057944 -0.015327 0.039954
v 0.057450 -0.010786 0.040845
v 0.053895 -0.000704 0.039686
v 0.056033 -0.040282 0.038060
v 0.053194 -0.010629 0.039423
v 0.043656 -0.038556 0.038596
v 0.034022 -0.034326 0.040240
v 0.031384 -0.008927 0.039962
v 0.034143 -0.004255 0.039087
v 0.030090 -0.000628 0.041158
v 0.025181 -0.028605 0.038636
v 0.022219 -0.023294 0.038744
v 0.020813 0.024709 0.039496
v 0.019153 0.025752 0.039036
v 0.017269 0.016195 0.039799
v 0.015983 0.025399 0.038359
v 0.014359 0.020086 0.038659
v 0.013781 0.024068 0.039707
v 0.064192 -0.038132 0.036280
v 0.061447 -0.022989 0.035884
v 0.057918 -0.017795 0.038293
v 0.050658 -0.008879 0.037215
v 0.047889 -0.008140 0.037018
v 0.040141 -0.009319 0.035902
v 0.043193 -0.038082 0.036795
v 0.042180 -0.035117 0.035064
v 0.036470 -0.005587 0.037024
v 0.036097 -0.011361 0.036248
v 0.033159 -0.031820 0.038244
v 0.035819 -0.027840 0.036162
v 0.035504 -0.012326 0.038210
v 0.034916 -0.013258 0.038024
v 0.034036 -0.013593 0.037073
v 0.033636 -0.014496 0.036669
v 0.026358 -0.028029 0.037345
v 0.028517 -0.010453 0.038171
v 0.029382 -0.022896 0.036785
v 0.022283 -0.018187 0.037593
v 0.025667 -0.012830 0.036856
v 0.020996 -0.009732 0.038358
v 0.016295 0.020856 0.037392
v 0.017775 0.023658 0.037094
v 0.064926 -0.045392 0.034224
v 0.055953 -0.020752 0.033956
v 0.053967 -0.017365 0.035866
v 0.051207 -0.014641 0.035154
v 0.048901 -0.011860 0.034597
v 0.043522 -0.015780 0.033235
v 0.069595 -0.032406 0.033184
v 0.064998 -0.026244 0.032820
v 0.061766 -0.047680 0.033357
v 0.061187 -0.023487 0.032514
v 0.058183 -0.046958 0.032181
v 0.052768 -0.021838 0.030901
v 0.052298 -0.017520 0.033142
v 0.050624 -0.021790 0.026598
v 0.044121 -0.020318 0.031586
v 0.044308 -0.025372 0.031712
v 0.073159 -0.051891 0.025937
v 0.071023 -0.028123 0.029373
v 0.058678 -0.023675 0.030604
v 0.062363 -0.047316 0.024982
v 0.051419 -0.035035 0.027840
v 0.075169 -0.029878 0.028039
v 0.076897 -0.029718 0.025886
v 0.070861 -0.028444 0.026901
v 0.069582 -0.052560 0.025644
v 0.063605 -0.025725 0.026636
v 0.059130 -0.024046 0.027881
v 0.051855 -0.021810 0.027235
v 0.079749 -0.043016 0.024603
v 0.078262 -0.040545 0.026531
v 0.080419 -0.032691 0.024745
v 0.079002 -0.031410 0.025069
v 0.074231 -0.029108 0.024866
v 0.070296 -0.027451 0.024087
v 0.068029 -0.026709 0.024615
v 0.059041 -0.026022 0.023636
v 0.050561 -0.023766 0.025265
v 0.080941 -0.044271 0.023339
v 0.081948 -0.043325 0.022318
v 0.081837 -0.041234 0.023256
v 0.082658 -0.032838 0.022744
v 0.080515 -0.045035 0.023563
v 0.080859 -0.044270 0.023384
v 0.080359 -0.043012 0.022250
v 0.080298 -0.032078 0.024197
v 0.076327 -0.029976 0.023282
v 0.072389 -0.027664 0.023436
v 0.073440 -0.054798 0.018075
v 0.052109 -0.028925 0.023714
v 0.057925 -0.027375 0.021985
v 0.087418 -0.034667 0.020695
v 0.086315 -0.033656 0.021440
v 0.085325 -0.033130 0.021566
v 0.084336 -0.032459 0.019726
v 0.080877 -0.032180 0.019760
v 0.078039 -0.029387 0.019884
v 0.072895 -0.029793 0.019064
v 0.065555 -0.027717 0.021138
v 0.089100 -0.034626 0.018951
v 0.090541 -0.033695 0.016758
v 0.086921 -0.048089 0.015598
v 0.089041 -0.034620 0.018922
v 0.086134 -0.031708 0.017640
v 0.082027 -0.031603 0.016100
v 0.079594 -0.031503 0.015936
v 0.078389 -0.056249 0.015959
v 0.093113 -0.037025 0.014386
v 0.092191 -0.035534 0.015934
v 0.088291 -0.031674 0.014025
v 0.090090 -0.055516 0.010130
v 0.085144 -0.030767 0.015167
v 0.082927 -0.055907 0.015264
v 0.074950 -0.034757 0.015216
v 0.075113 -0.053990 0.014166
v 0.076218 -0.051722 0.012724
v 0.071274 -0.045815 0.016120
v 0.093972 -0.036384 0.012617
v 0.094837 -0.035015 0.011194
v 0.090335 -0.041663 0.013195
v 0.089795 -0.031748 0.011255
v 0.074893 -0.041314 0.013994
v 0.090004 -0.057622 0.006836
v 0.083810 -0.036148 0.008487
v 0.084230 -0.057301 0.008065
v 0.081769 -0.040410 0.008628
v 0.079176 -0.047485 0.010829
v 0.095958 -0.034790 0.010184
v 0.095946 -0.034610 0.007386
v 0.095938 -0.037162 0.008420
v 0.092170 -0.041249 0.006856
v 0.092865 -0.045000 0.004383
v 0.087818 -0.033087 0.008136
v 0.079977 -0.053235 0.008316
v 0.096527 -0.035300 0.006837
v 0.096641 -0.035312 0.005689
v 0.096790 -0.035257 0.005810
v 0.093724 -0.038518 0.005140
v 0.092027 -0.032348 0.005058
v 0.082308 -0.054439 0.004802
v 0.097025 -0.036307 0.003136
v 0.092587 -0.032019 0.002320
v 0.086501 -0.036223 0.002237
v 0.086580 -0.056916 0.000789
v 0.084565 -0.043817 0.001436
v 0.085133 -0.039420 0.001677
v 0.096715 -0.034750 0.000732
v 0.094677 -0.053621 0.001090
v 0.095483 -0.049776 0.001797
v 0.093967 -0.043187 0.000228
v 0.093849 -0.039818 0.002578
v 0.095013 -0.031747 0.001670
v 0.090897 -0.056923 0.000245
v 0.083614 -0.054944 0.000844
v 0.082588 -0.051482 0.000824
v 0.095424 -0.050766 -0.000725
v 0.093900 -0.039566 -0.001661
v 0.095104 -0.031635 0.000153
v 0.095057 -0.031923 -0.000878
v 0.091281 -0.032597 -0.003117
v 0.096970 -0.036267 -0.001937
v 0.096729 -0.035038 -0.004695
v 0.095164 -0.033605 -0.003856
v 0.093013 -0.032568 -0.003342
v 0.088496 -0.032855 -0.006638
v 0.084504 -0.037882 -0.004063
v 0.082458 -0.054880 -0.003853
v 0.081358 -0.052088 -0.004437
v 0.096082 -0.037092 -0.007123
v 0.092766 -0.040472 -0.005965
v 0.095764 -0.034585 -0.007648
v 0.091181 -0.055842 -0.007173
v 0.091491 -0.046611 -0.005924
v 0.091587 -0.041144 -0.007343
v 0.090147 -0.031900 -0.009878
v 0.089637 -0.057617 -0.006256
v 0.096051 -0.034991 -0.008791
v 0.080755 -0.056702 -0.009788
v 0.080413 -0.037071 -0.009574
v 0.078609 -0.053111 -0.008868
v 0.079694 -0.045928 -0.009107
v 0.095031 -0.034974 -0.009672
v 0.095908 -0.034965 -0.009044
v 0.087087 -0.048964 -0.013615
v 0.082293 -0.031509 -0.013526
v 0.080393 -0.056414 -0.013752
v 0.076018 -0.053980 -0.011926
v 0.092785 -0.038085 -0.012389
v 0.092621 -0.035956 -0.014138
v 0.089817 -0.041216 -0.013037
v 0.090375 -0.032781 -0.013447
v 0.083775 -0.052791 -0.016299
v 0.087561 -0.031499 -0.012718
v 0.081020 -0.054547 -0.017290
v 0.079449 -0.032182 -0.013728
v 0.071845 -0.047651 -0.014686
v 0.073543 -0.041702 -0.013289
v 0.091022 -0.034717 -0.015767
v 0.088725 -0.034635 -0.018004
v 0.086002 -0.030725 -0.014353
v 0.080672 -0.031537 -0.016324
v 0.072149 -0.054312 -0.019617
v 0.069067 -0.052383 -0.019408
v 0.073308 -0.035633 -0.014234
v 0.085525 -0.043448 -0.018365
v 0.087153 -0.034632 -0.019663
v 0.084462 -0.032506 -0.018460
v 0.078002 -0.029321 -0.018575
v 0.073638 -0.030026 -0.017235
v 0.063017 -0.035989 -0.017730
v 0.086483 -0.037575 -0.019091
v 0.085456 -0.033235 -0.020397
v 0.084312 -0.032752 -0.020307
v 0.082480 -0.043358 -0.020869
v 0.081382 -0.040928 -0.022455
v 0.082763 -0.032921 -0.021835
v 0.080402 -0.043079 -0.020809
v 0.080293 -0.032374 -0.019598
v 0.076623 -0.030038 -0.021373
v 0.073223 -0.029560 -0.018922
v 0.070173 -0.027969 -0.020483
v 0.066133 -0.027907 -0.019548
v 0.062723 -0.027809 -0.020185
v 0.051263 -0.028416 -0.022974
v 0.081821 -0.043958 -0.021260
v 0.082657 -0.033145 -0.021634
v 0.081543 -0.044195 -0.021514
v 0.080819 -0.044253 -0.022233
v 0.080827 -0.044237 -0.022221
v 0.080496 -0.043943 -0.022477
v 0.079573 -0.042246 -0.023961
v 0.080255 -0.032240 -0.023402
v 0.077693 -0.030392 -0.024529
v 0.074193 -0.029077 -0.023213
v 0.069348 -0.051338 -0.026462
v 0.072462 -0.027707 -0.022176
v 0.068214 -0.026672 -0.023551
v 0.064897 -0.026635 -0.022615
v 0.055459 -0.024905 -0.022305
v 0.049937 -0.023658 -0.024304
v 0.075051 -0.029383 -0.026199
v 0.066607 -0.046124 -0.031909
v 0.071462 -0.028768 -0.025673
v 0.069532 -0.027553 -0.024764
v 0.055105 -0.023186 -0.026707
v 0.054700 -0.042578 -0.027811
v 0.050875 -0.021957 -0.025064
v 0.074384 -0.029295 -0.026573
v 0.062463 -0.024637 -0.027564
v 0.060258 -0.048203 -0.029797
v 0.058526 -0.023851 -0.026674
v 0.046703 -0.030929 -0.029386
v 0.051729 -0.021213 -0.026799
v 0.064632 -0.025968 -0.030818
v 0.058095 -0.023450 -0.029197
v 0.052796 -0.021897 -0.029469
v 0.051841 -0.018995 -0.030735
v 0.048984 -0.012613 -0.032720
v 0.043570 -0.022485 -0.030675
v 0.064398 -0.036951 -0.035135
v 0.066688 -0.031773 -0.033961
v 0.066756 -0.029125 -0.032736
v 0.061395 -0.046891 -0.032725
v 0.059830 -0.022575 -0.033017
v 0.056332 -0.020871 -0.032762
v 0.052608 -0.017212 -0.032079
v 0.050528 -0.014415 -0.033257
v 0.042710 -0.014945 -0.032477
v 0.053099 -0.016412 -0.034621
v 0.048425 -0.007662 -0.035960
v 0.050507 -0.008700 -0.035813
v 0.041722 -0.037557 -0.035891
v 0.044171 -0.008388 -0.035779
v 0.034778 -0.030094 -0.035678
v 0.036345 -0.005426 -0.035845
v 0.035417 -0.024879 -0.034729
v 0.036158 -0.011060 -0.034843
v 0.034811 -0.013386 -0.035487
v 0.060592 -0.021566 -0.036679
v 0.057086 -0.040677 -0.036496
v 0.058158 -0.016751 -0.037859
v 0.057866 -0.013873 -0.038935
v 0.036912 -0.034862 -0.040365
v 0.052660 -0.003799 -0.037653
v 0.037445 -0.001018 -0.038513
v 0.033113 -0.013604 -0.035822
v 0.035589 -0.012371 -0.036697
v 0.034698 -0.013208 -0.036596
v 0.034617 -0.012522 -0.037174
v 0.033909 -0.003920 -0.037948
v 0.025928 -0.027208 -0.035879
v 0.028115 -0.009494 -0.037247
v 0.025083 -0.028544 -0.037290
v 0.025738 -0.012722 -0.035624
v 0.022556 -0.019035 -0.036114
v 0.022296 -0.023772 -0.037652
v 0.021929 -0.010805 -0.036564
v 0.020413 -0.011687 -0.037919
v 0.019446 0.024607 -0.036906
v 0.017437 0.023794 -0.035714
v 0.017076 0.026038 -0.037497
v 0.015300 0.019626 -0.036655
v 0.013768 0.022083 -0.037847
v 0.014035 0.024166 -0.037854
v 0.060606 0.001888 -0.040151
v 0.060740 0.009710 -0.040612
v 0.057983 -0.017264 -0.039320
v 0.057620 -0.013547 -0.039126
v 0.058484 -0.003548 -0.040069
v 0.055609 0.001388 -0.038687
v 0.058794 0.011072 -0.040319
v 0.057683 -0.008265 -0.039968
v 0.053518 -0.010199 -0.038403
v 0.057809 -0.006976 -0.040174
v 0.043672 -0.024441 -0.041439
v 0.040295 -0.032846 -0.041371
v 0.031373 -0.032859 -0.040395
v 0.033532 -0.033688 -0.038173
v 0.032043 -0.009530 -0.038426
v 0.030031 -0.000730 -0.039855
v 0.028355 -0.031464 -0.039319
v 0.024540 -0.027693 -0.039552
v 0.020736 0.025360 -0.038708
v 0.018809 -0.001988 -0.040343
v 0.019703 0.003239 -0.040204
v 0.019871 0.014841 -0.039331
v 0.015776 0.013213 -0.040900
v 0.060852 0.001864 -0.040990
v 0.060996 0.002642 -0.041093
v 0.061025 0.008478 -0.042375
v 0.061484 0.006346 -0.041436
v 0.059930 0.013148 -0.041922
v 0.057826 -0.007204 -0.040474
v 0.058644 -0.004388 -0.040789
v 0.056655 -0.009592 -0.041102
v 0.056796 0.013933 -0.042447
v 0.047141 0.006182 -0.043997
v 0.045589 0.004337 -0.042557
v 0.032090 -0.018639 -0.042811
v 0.030897 -0.024018 -0.041682
v 0.031809 -0.028841 -0.041817
v 0.022947 -0.012992 -0.041868
v 0.024538 0.013314 -0.042094
v 0.022077 0.009082 -0.040622
v 0.025018 0.016332 -0.044260
v 0.018892 -0.001171 -0.042820
v 0.017376 0.009699 -0.041127
v 0.017543 0.004002 -0.041922
v 0.018172 0.026848 -0.045386
v 0.012780 0.020190 -0.041848
v 0.014523 0.025194 -0.043025
v 0.058279 0.014497 -0.044076
v 0.057909 0.015216 -0.043274
v 0.056424 0.014079 -0.044595
v 0.053108 0.011364 -0.044424
v 0.042458 0.000967 -0.044455
v 0.047315 0.006196 -0.044069
v 0.047152 0.005966 -0.044390
v 0.043445 0.005477 -0.043730
v 0.039701 -0.010218 -0.044952
v 0.037092 0.008117 -0.043984
v 0.039994 0.005924 -0.044306
v 0.033312 0.010529 -0.044707
v 0.033112 0.010312 -0.043960
v 0.027616 0.013780 -0.044479
v 0.022556 0.024402 -0.046171
v 0.020741 0.025971 -0.043418
v 0.013609 0.023525 -0.045304
v 0.029390 -0.001387 -0.046190
v 0.025077 0.007065 -0.046949
v 0.030039 0.012785 -0.045163
v 0.023543 0.002244 -0.046742
v 0.024436 0.018332 -0.046598
v 0.015708 0.017256 -0.051324
v 0.023704 0.017758 -0.048133
v 0.021473 0.011961 -0.049701
v 0.018379 0.009964 -0.048326
v 0.018803 0.023936 -0.049073
v 0.020574 0.017936 -0.052077
v 0.017344 0.016958 -0.052579
v 0.019051 0.020115 -0.051965
v 0.015445 0.018848 -0.051972
v 0.014943 0.021058 -0.050044
v 0.014968 0.021042 -0.049991
v 0.028678 0.013892 0.046815
v 0.050158 0.008462 0.045612
v 0.046533 0.005822 0.045290
v 0.057701 -0.007558 0.041685
v 0.092186 -0.035538 0.015914
v 0.057857 -0.007118 -0.040478
v 0.017562 0.003892 -0.041906
v 0.053268 0.011093 -0.044261
v 0.050661 0.008892 -0.044373
v 0.077336 -0.030034 -0.016317
v 0.075970 -0.027516 -0.016000
v 0.079723 -0.026986 -0.015651
v 0.078566 -0.024409 -0.016365
v 0.080576 -0.025807 -0.016336
v 0.076719 -0.033910 -0.016977
v 0.075025 -0.032020 -0.018269
v 0.080532 -0.030902 -0.017936
v 0.075015 -0.025853 -0.018439
v 0.083233 -0.027199 -0.017835
v 0.083273 -0.025916 -0.018015
v 0.079136 -0.033943 -0.017580
v 0.077254 -0.024412 -0.018150
v 0.079431 -0.024838 -0.017947
v 0.079428 -0.024818 -0.017950
v 0.079587 -0.024731 -0.018221
v 0.080440 -0.025808 -0.017787
v 0.072416 -0.041819 -0.018664
v 0.074471 -0.027824 -0.018217
v 0.078413 -0.025191 -0.019079
v 0.083078 -0.025004 -0.019113
v 0.071856 -0.045792 -0.019760
v 0.070807 -0.041672 -0.020608
v 0.074815 -0.031086 -0.019770
v 0.079817 -0.035128 -0.020277
v 0.081278 -0.031631 -0.020153
v 0.075075 -0.026747 -0.020397
v 0.083798 -0.026635 -0.019586
v 0.081300 -0.023519 -0.019583
v 0.070654 -0.046433 -0.020869
v 0.072051 -0.046922 -0.020695
v 0.074880 -0.042335 -0.021124
v 0.077045 -0.024279 -0.020477
v 0.077977 -0.023984 -0.021456
v 0.070895 -0.046554 -0.021804
v 0.070651 -0.044954 -0.022105
v 0.071910 -0.046522 -0.022233
v 0.072466 -0.038546 -0.022386
v 0.077529 -0.030782 -0.022934
v 0.081419 -0.031011 -0.022025
v 0.077804 -0.024091 -0.021377
v 0.082197 -0.028397 -0.022644
v 0.081912 -0.023506 -0.020900
v 0.082151 -0.024725 -0.021803
v 0.073191 -0.043182 -0.022528
v 0.078704 -0.036081 -0.022556
v 0.080183 -0.031738 -0.022770
v 0.078527 -0.025297 -0.023141
v 0.077557 -0.034619 -0.023764
v 0.079177 -0.030481 -0.023485
v 0.080975 -0.028982 -0.023706
v 0.060964 -0.023400 -0.019972
v 0.063460 -0.024354 -0.020956
v 0.059573 -0.020287 -0.020899
v 0.062953 -0.019934 -0.020764
v 0.064128 -0.021199 -0.020480
v 0.056859 -0.021016 -0.020911
v 0.064672 -0.022033 -0.020938
v 0.060366 -0.020263 -0.021328
v 0.062543 -0.019908 -0.021292
v 0.063274 -0.020015 -0.021629
v 0.059215 -0.026591 -0.022225
v 0.055284 -0.020710 -0.021923
v 0.057510 -0.017767 -0.021770
v 0.061629 -0.020557 -0.023711
v 0.058597 -0.017487 -0.022115
v 0.064441 -0.021446 -0.022556
v 0.056701 -0.028252 -0.023364
v 0.053868 -0.026821 -0.023624
v 0.054512 -0.023796 -0.023224
v 0.062237 -0.027569 -0.024212
v 0.060621 -0.020299 -0.024302
v 0.062883 -0.020610 -0.023599
v 0.065330 -0.022157 -0.022748
v 0.065324 -0.022215 -0.022557
v 0.057832 -0.031431 -0.024891
v 0.061147 -0.029379 -0.024384
v 0.053224 -0.025133 -0.024483
v 0.055062 -0.018710 -0.024750
v 0.056962 -0.017570 -0.023879
v 0.062407 -0.020424 -0.023612
v 0.065673 -0.019777 -0.024558
v 0.053807 -0.029522 -0.025284
v 0.056284 -0.031535 -0.026017
v 0.056650 -0.029455 -0.024906
v 0.059202 -0.018800 -0.024765
v 0.065924 -0.022040 -0.025112
v 0.058905 -0.018625 -0.024722
v 0.064257 -0.018580 -0.024887
v 0.052057 -0.028375 -0.026252
v 0.057223 -0.016952 -0.025034
v 0.058232 -0.016098 -0.026378
v 0.061605 -0.018170 -0.025704
v 0.056187 -0.029129 -0.026066
v 0.056543 -0.029057 -0.028145
v 0.061946 -0.030165 -0.027342
v 0.053355 -0.024243 -0.028786
v 0.063681 -0.025886 -0.028843
v 0.055876 -0.018101 -0.027541
v 0.063382 -0.017876 -0.026556
v 0.053941 -0.034372 -0.027962
v 0.054856 -0.034484 -0.027103
v 0.050345 -0.032253 -0.028405
v 0.053701 -0.034265 -0.028111
v 0.056286 -0.034319 -0.027086
v 0.049423 -0.030634 -0.028686
v 0.054259 -0.030743 -0.027480
v 0.053922 -0.033918 -0.028998
v 0.056229 -0.029034 -0.028143
v 0.060066 -0.016275 -0.027444
v 0.053917 -0.034388 -0.028027
v 0.053942 -0.034559 -0.029179
v 0.055175 -0.034925 -0.029452
v 0.056351 -0.031040 -0.029216
v 0.052302 -0.027042 -0.029172
v 0.056604 -0.029315 -0.028945
v 0.064735 -0.021205 -0.028773
v 0.049716 -0.032035 -0.030159
v 0.059516 -0.032291 -0.029984
v 0.058706 -0.017048 -0.028962
v 0.061487 -0.018491 -0.029295
v 0.051823 -0.031871 -0.030706
v 0.054242 -0.034455 -0.029758
v 0.049896 -0.031071 -0.030639
v 0.059180 -0.030899 -0.031063
v 0.056602 -0.029146 -0.029735
v 0.057336 -0.030323 -0.030190
v 0.056752 -0.029223 -0.030000
v 0.062506 -0.028428 -0.030429
v 0.055675 -0.021468 -0.030180
v 0.058448 -0.019103 -0.030552
v 0.054217 -0.027486 -0.031465
v 0.062261 -0.025702 -0.031332
v 0.056099 -0.022384 -0.031511
v 0.058572 -0.021133 -0.031085
v 0.059008 -0.026398 -0.031666
v 0.057458 -0.023356 -0.032223
v 0.062543 -0.019908 -0.021292
v 0.062908 -0.020038 -0.020924
v 0.056752 -0.029434 -0.029588
v 0.084334 -0.050657 -0.003571
v 0.086177 -0.049667 -0.003703
v 0.087041 -0.044793 -0.003872
v 0.084104 -0.050985 -0.004248
v 0.083990 -0.051025 -0.004271
v 0.084625 -0.051035 -0.004727
v 0.086094 -0.050204 -0.004696
v 0.086719 -0.045107 -0.005561
v 0.088728 -0.042077 -0.003759
v 0.091920 -0.040230 -0.004257
v 0.089007 -0.034773 -0.005117
v 0.095649 -0.034857 -0.004953
v 0.090126 -0.033702 -0.004646
v 0.092187 -0.040311 -0.005861
v 0.094233 -0.030598 -0.004980
v 0.087505 -0.046587 -0.006127
v 0.096617 -0.036605 -0.007010
v 0.091295 -0.031261 -0.006085
v 0.099693 -0.029371 -0.005647
v 0.097931 -0.028571 -0.005521
v 0.099470 -0.026046 -0.006724
v 0.100575 -0.026427 -0.006324
v 0.091598 -0.039467 -0.007738
v 0.090756 -0.031961 -0.007521
v 0.099310 -0.032468 -0.007269
v 0.094069 -0.028718 -0.007673
v 0.100961 -0.027717 -0.007070
v 0.098815 -0.033148 -0.008558
v 0.095975 -0.028184 -0.009036
v 0.100259 -0.026177 -0.009219
v 0.092953 -0.031023 -0.009109
v 0.097654 -0.032345 -0.009973
v 0.095730 -0.029340 -0.010544
v 0.097766 -0.025963 -0.010964
v 0.098673 -0.026760 -0.011461
v 0.088914 -0.039691 -0.000047
v 0.091387 -0.041288 -0.000577
v 0.094599 -0.036407 -0.000149
v 0.093468 -0.031083 0.000270
v 0.097195 -0.030791 0.000549
v 0.100321 -0.028683 0.000409
v 0.100074 -0.027232 0.000215
v 0.083419 -0.051253 -0.001031
v 0.084398 -0.050541 -0.000440
v 0.084100 -0.049353 -0.000721
v 0.089080 -0.047093 -0.001377
v 0.087632 -0.046774 -0.000261
v 0.086842 -0.044450 -0.000727
v 0.088853 -0.037006 -0.000614
v 0.091625 -0.032255 -0.001200
v 0.092386 -0.030902 -0.001038
v 0.096991 -0.029383 -0.000560
v 0.101566 -0.026949 -0.000775
v 0.100775 -0.025802 -0.001681
v 0.083873 -0.051092 -0.001883
v 0.083393 -0.050635 -0.001586
v 0.088678 -0.036955 -0.002889
v 0.097363 -0.034491 -0.003273
v 0.098571 -0.033550 -0.001678
v 0.101398 -0.028242 -0.001123
v 0.088614 -0.046926 -0.002243
v 0.088460 -0.039607 -0.003221
v 0.092509 -0.039667 -0.003029
v 0.096063 -0.029294 -0.003953
v 0.092747 -0.033409 -0.003658
v 0.100677 -0.027423 -0.005221
v 0.100954 -0.026301 -0.004755
v 0.095402 -0.034154 -0.004424
v 0.096180 -0.031690 -0.005233
v 0.100007 -0.025947 -0.004988
v 0.088596 -0.041765 -0.007754
v 0.087345 -0.040403 -0.007782
v 0.091283 -0.035904 -0.008166
v 0.091131 -0.031612 -0.008946
v 0.085786 -0.046189 -0.009187
v 0.084523 -0.045732 -0.009819
v 0.091377 -0.039939 -0.009819
v 0.081830 -0.052232 -0.010797
v 0.081460 -0.050821 -0.010567
v 0.085686 -0.038374 -0.011486
v 0.087058 -0.031401 -0.010412
v 0.096227 -0.031333 -0.010906
v 0.095266 -0.029533 -0.010114
v 0.081435 -0.051890 -0.011773
v 0.084508 -0.044598 -0.011615
v 0.089754 -0.041144 -0.012566
v 0.095261 -0.026870 -0.010942
v 0.091110 -0.028610 -0.012109
v 0.096534 -0.027321 -0.011523
v 0.084020 -0.051546 -0.011969
v 0.082588 -0.049231 -0.012515
v 0.093837 -0.035046 -0.013418
v 0.087147 -0.030641 -0.011979
v 0.084295 -0.048637 -0.013161
v 0.085948 -0.048417 -0.012609
v 0.088563 -0.040814 -0.013018
v 0.088765 -0.029557 -0.014299
v 0.096974 -0.028820 -0.013436
v 0.094677 -0.026355 -0.012267
v 0.096321 -0.025866 -0.013780
v 0.094354 -0.025287 -0.013710
v 0.090852 -0.027998 -0.016023
v 0.095404 -0.027059 -0.015303
v 0.093182 -0.029676 -0.015901
v 0.094480 -0.026032 -0.015176
v 0.092559 -0.026824 -0.016264
v 0.083396 -0.029407 -0.012622
v 0.087074 -0.027693 -0.012932
v 0.081011 -0.039402 -0.013684
v 0.084103 -0.039097 -0.013250
v 0.082008 -0.032214 -0.014130
v 0.082043 -0.028925 -0.013780
v 0.088821 -0.028711 -0.013239
v 0.085286 -0.025747 -0.013578
v 0.090569 -0.027116 -0.014803
v 0.079377 -0.045094 -0.014805
v 0.085332 -0.039514 -0.014583
v 0.083855 -0.025965 -0.014480
v 0.085827 -0.026201 -0.014826
v 0.087295 -0.027379 -0.014409
v 0.080531 -0.045622 -0.015739
v 0.079865 -0.035959 -0.015438
v 0.088621 -0.033451 -0.016564
v 0.084765 -0.026596 -0.015291
v 0.089914 -0.031164 -0.016468
v 0.085685 -0.026267 -0.014841
v 0.086580 -0.025271 -0.015987
v 0.089988 -0.026317 -0.015440
v 0.076904 -0.045941 -0.016056
v 0.077618 -0.047222 -0.016449
v 0.077078 -0.043287 -0.017529
v 0.081958 -0.031710 -0.017294
v 0.081898 -0.027910 -0.017525
v 0.083477 -0.025913 -0.016689
v 0.088974 -0.024754 -0.017068
v 0.076383 -0.046517 -0.017711
v 0.077243 -0.047266 -0.017684
v 0.078737 -0.046503 -0.018104
v 0.085327 -0.039695 -0.017650
v 0.089865 -0.029477 -0.018585
v 0.082801 -0.040608 -0.019287
v 0.079341 -0.039171 -0.018171
v 0.086934 -0.024875 -0.018707
v 0.083531 -0.037867 -0.019659
v 0.087289 -0.034055 -0.018783
v 0.088840 -0.032177 -0.019087
v 0.085119 -0.029763 -0.020254
v 0.089654 -0.026040 -0.018272
v 0.085535 -0.033216 -0.019550
v 0.084918 -0.025774 -0.019501
v 0.088086 -0.026297 -0.019539
v 0.086651 -0.029943 -0.020666
s 1
f 6 1 5
f 1 2 5
f 5 2 7
f 4 2 1
f 8 2 4
f 3 4 1
f 6 12 1
f 12 14 1
f 15 5 7
f 3 1 14
f 7 16 15
f 3 17 4
f 19 9 10
f 6 10 9
f 11 6 9
f 11 12 6
f 5 20 10
f 6 5 10
f 13 5 15
f 16 7 21
f 2 21 7
f 8 21 2
f 8 4 17
f 17 3 14
f 29 9 18
f 23 11 9
f 9 19 18
f 10 24 19
f 10 20 24
f 20 5 13
f 12 11 25
f 32 14 12
f 33 15 16
f 22 21 8
f 22 27 21
f 22 8 17
f 18 19 31
f 9 29 23
f 25 11 23
f 25 32 12
f 28 14 32
f 13 15 26
f 33 21 27
f 33 16 21
f 29 18 30
f 31 19 24
f 20 13 39
f 39 13 40
f 15 33 26
f 34 17 14
f 34 14 28
f 17 34 22
f 29 30 35
f 38 23 29
f 24 43 36
f 24 44 43
f 30 18 37
f 44 24 20
f 24 36 31
f 25 23 38
f 48 25 38
f 13 26 41
f 41 42 33
f 26 33 42
f 43 53 36
f 36 54 31
f 18 31 37
f 49 20 39
f 50 32 25
f 13 41 40
f 40 41 57
f 28 32 50
f 51 33 27
f 22 51 27
f 50 34 28
f 51 22 34
f 29 35 45
f 35 30 46
f 45 38 29
f 36 53 54
f 37 46 30
f 49 44 20
f 54 47 31
f 31 79 37
f 49 39 66
f 50 25 48
f 57 41 58
f 41 33 58
f 51 58 33
f 52 51 34
f 59 52 34
f 45 35 46
f 53 43 60
f 69 54 53
f 45 46 55
f 45 55 38
f 55 48 38
f 44 49 61
f 47 54 62
f 37 62 46
f 79 47 37
f 47 62 37
f 39 56 66
f 56 39 40
f 50 59 34
f 51 63 58
f 44 60 43
f 46 62 55
f 55 65 48
f 48 65 50
f 57 56 40
f 59 50 72
f 52 59 51
f 68 53 60
f 60 44 61
f 64 62 54
f 64 55 62
f 65 55 64
f 56 73 71
f 56 57 73
f 58 63 57
f 63 73 57
f 67 51 59
f 67 59 72
f 67 63 51
f 60 61 68
f 68 61 74
f 69 53 68
f 61 75 70
f 70 54 69
f 66 75 61
f 54 70 64
f 64 70 76
f 66 61 49
f 76 65 64
f 56 71 66
f 77 65 76
f 65 77 72
f 65 72 50
f 78 67 72
f 73 63 67
f 74 69 68
f 61 70 74
f 69 74 70
f 71 77 66
f 71 73 77
f 77 73 78
f 77 78 72
f 78 73 67
f 70 75 76
f 76 75 77
f 77 75 66
f 89 80 81
f 82 89 81
f 81 88 82
f 82 83 89
f 83 91 89
f 92 84 85
f 84 80 85
f 86 80 84
f 86 81 80
f 86 87 81
f 85 80 95
f 89 96 80
f 88 81 87
f 88 90 82
f 90 83 82
f 90 98 83
f 83 107 91
f 91 107 100
f 85 93 92
f 102 93 85
f 94 86 84
f 102 85 95
f 95 80 96
f 103 88 87
f 103 90 88
f 89 91 97
f 91 105 97
f 100 99 91
f 83 98 107
f 101 92 93
f 94 92 101
f 92 94 84
f 110 86 94
f 86 103 87
f 96 102 95
f 97 96 89
f 104 98 90
f 91 99 105
f 99 100 106
f 108 101 93
f 113 110 94
f 86 110 103
f 103 104 90
f 97 105 115
f 106 117 105
f 117 106 100
f 104 107 98
f 100 107 109
f 94 101 113
f 108 93 102
f 102 114 108
f 114 102 96
f 103 123 104
f 117 100 118
f 112 107 104
f 109 107 112
f 113 101 108
f 120 103 110
f 115 114 96
f 103 120 116
f 115 96 97
f 123 103 116
f 122 115 105
f 122 105 111
f 117 111 105
f 100 109 118
f 112 118 109
f 112 125 118
f 112 104 119
f 108 121 113
f 108 114 121
f 113 120 110
f 115 126 114
f 121 116 120
f 122 111 124
f 128 111 117
f 118 128 117
f 111 128 124
f 119 125 112
f 123 119 104
f 113 121 120
f 121 114 126
f 115 122 126
f 122 124 126
f 121 127 123
f 121 123 116
f 125 127 118
f 127 119 123
f 128 118 130
f 130 118 127
f 127 125 119
f 121 126 129
f 124 129 126
f 121 129 127
f 128 127 124
f 129 124 127
f 132 134 133
f 139 141 131
f 131 134 132
f 132 133 155
f 135 136 134
f 134 136 133
f 133 136 137
f 147 139 131
f 131 138 147
f 135 140 149
f 140 135 134
f 131 132 138
f 134 142 140
f 131 141 134
f 134 141 142
f 135 144 136
f 135 143 144
f 133 137 156
f 156 137 145
f 145 137 146
f 137 136 146
f 148 139 147
f 150 152 149
f 151 158 149
f 168 147 138
f 152 135 149
f 135 152 153
f 135 153 143
f 132 155 138
f 161 143 153
f 133 156 155
f 136 144 165
f 164 146 136
f 151 152 150
f 147 168 157
f 147 157 148
f 151 150 158
f 141 139 148
f 149 140 166
f 151 149 166
f 140 159 166
f 169 153 152
f 138 155 168
f 172 154 141
f 159 140 142
f 172 160 154
f 160 142 154
f 160 159 142
f 173 144 143
f 176 155 156
f 176 156 162
f 145 162 156
f 145 163 162
f 163 145 146
f 136 165 164
f 167 151 166
f 167 152 151
f 167 169 152
f 170 168 155
f 172 141 148
f 171 166 159
f 153 169 161
f 146 174 163
f 146 164 174
f 157 168 170
f 148 179 172
f 159 172 171
f 173 143 161
f 144 173 180
f 165 144 180
f 163 177 162
f 163 174 177
f 174 164 178
f 165 175 164
f 179 148 157
f 171 167 166
f 177 186 162
f 178 177 174
f 178 164 175
f 175 165 181
f 157 170 183
f 182 167 171
f 167 182 169
f 172 179 171
f 170 155 176
f 184 173 161
f 197 173 184
f 185 176 162
f 162 186 185
f 187 177 178
f 188 190 178
f 165 180 181
f 188 178 175
f 176 183 170
f 182 184 169
f 161 169 184
f 185 189 176
f 187 191 177
f 190 187 178
f 175 181 188
f 183 179 157
f 179 182 171
f 196 184 182
f 189 183 176
f 202 189 185
f 187 190 198
f 193 190 188
f 193 188 194
f 194 181 199
f 180 195 181
f 194 188 181
f 183 196 179
f 196 182 179
f 183 189 196
f 201 197 184
f 193 198 190
f 180 173 197
f 192 186 191
f 186 192 185
f 203 205 198
f 198 193 204
f 200 195 180
f 187 192 191
f 192 187 205
f 187 198 205
f 194 206 193
f 181 200 199
f 207 201 196
f 196 189 202
f 196 202 207
f 201 184 196
f 199 180 197
f 199 200 180
f 208 203 198
f 198 204 208
f 206 204 193
f 194 199 204
f 206 194 204
f 201 207 197
f 192 202 185
f 202 192 208
f 208 192 203
f 197 209 199
f 203 192 205
f 199 209 204
f 202 208 207
f 204 207 208
f 207 209 197
f 207 204 209
f 211 210 212
f 212 210 213
f 211 214 210
f 212 213 215
f 216 210 218
f 210 216 220
f 220 213 210
f 211 217 214
f 212 217 211
f 218 210 219
f 219 214 224
f 219 210 214
f 221 224 214
f 225 213 220
f 213 225 215
f 222 216 218
f 222 226 216
f 216 226 223
f 220 216 223
f 212 229 217
f 229 212 215
f 231 218 219
f 218 231 222
f 219 224 234
f 223 227 220
f 220 227 228
f 224 221 235
f 236 221 214
f 235 221 236
f 220 228 225
f 217 236 214
f 215 225 229
f 238 230 233
f 232 222 231
f 233 230 231
f 232 226 222
f 219 233 231
f 233 219 234
f 226 246 223
f 223 240 227
f 239 224 235
f 236 217 242
f 229 242 217
f 242 229 225
f 228 242 225
f 237 231 230
f 237 232 231
f 232 237 243
f 243 238 233
f 244 243 233
f 234 244 233
f 223 246 240
f 224 239 234
f 235 241 239
f 227 240 241
f 227 241 242
f 227 242 228
f 235 236 242
f 235 242 241
f 243 237 238
f 243 246 232
f 245 247 246
f 226 232 246
f 244 239 245
f 239 240 245
f 245 240 247
f 244 234 239
f 239 241 240
f 243 245 246
f 249 248 250
f 250 248 253
f 255 250 253
f 249 250 251
f 252 251 250
f 251 254 249
f 252 250 255
f 252 259 251
f 259 252 255
f 258 262 256
f 248 256 257
f 256 249 258
f 256 248 249
f 257 263 253
f 248 257 253
f 272 249 254
f 253 264 255
f 254 251 265
f 251 259 265
f 266 260 262
f 262 260 256
f 261 257 260
f 256 260 257
f 263 257 261
f 271 262 258
f 278 258 272
f 249 272 258
f 264 263 280
f 253 263 264
f 254 273 272
f 267 260 266
f 267 268 260
f 268 261 260
f 267 266 270
f 269 261 268
f 271 267 270
f 271 270 262
f 269 263 261
f 277 263 269
f 277 280 263
f 272 273 278
f 280 274 264
f 274 255 264
f 255 274 281
f 281 259 255
f 281 265 259
f 268 267 275
f 268 275 269
f 271 275 267
f 275 271 276
f 275 276 269
f 269 276 282
f 277 269 282
f 258 278 271
f 278 276 271
f 277 279 280
f 254 284 273
f 280 286 274
f 254 285 284
f 254 265 285
f 276 278 282
f 277 282 279
f 278 283 282
f 279 282 283
f 278 273 283
f 280 279 283
f 284 283 273
f 280 283 286
f 283 284 285
f 285 265 287
f 287 283 285
f 287 286 283
f 286 281 274
f 287 281 286
f 287 265 281
f 288 291 289
f 288 289 290
f 293 288 290
f 290 294 298
f 290 289 294
f 294 289 295
f 288 292 291
f 291 296 289
f 293 292 288
f 289 296 297
f 290 298 293
f 298 294 299
f 305 296 291
f 293 298 308
f 295 289 297
f 294 295 299
f 300 299 295
f 302 310 303
f 302 303 301
f 304 312 301
f 301 303 304
f 303 305 304
f 306 312 304
f 304 291 306
f 304 305 291
f 306 291 292
f 296 319 297
f 307 292 293
f 293 308 307
f 298 299 308
f 295 297 300
f 313 300 297
f 299 300 314
f 301 309 302
f 309 316 302
f 315 316 309
f 316 310 302
f 311 309 301
f 301 312 311
f 310 305 303
f 296 305 319
f 306 292 307
f 314 308 299
f 315 309 311
f 315 311 317
f 317 311 318
f 318 311 312
f 323 318 306
f 306 318 312
f 305 310 325
f 306 307 320
f 308 322 307
f 319 321 297
f 322 308 314
f 321 313 297
f 321 324 313
f 300 322 314
f 300 313 322
f 317 316 315
f 323 316 317
f 310 316 323
f 317 318 323
f 320 323 306
f 319 305 325
f 325 321 319
f 307 322 320
f 322 324 326
f 324 322 313
f 327 310 323
f 327 325 310
f 320 328 323
f 320 329 328
f 321 325 327
f 320 322 326
f 324 327 329
f 327 324 321
f 329 320 326
f 329 326 324
f 323 328 327
f 328 329 327
f 330 335 331
f 337 331 335
f 330 331 332
f 332 338 330
f 331 333 332
f 335 341 342
f 342 334 335
f 335 334 336
f 335 336 337
f 335 330 344
f 330 350 344
f 350 330 338
f 331 345 333
f 333 345 346
f 333 339 332
f 332 340 338
f 340 332 339
f 347 342 341
f 343 341 335
f 334 349 336
f 335 344 343
f 349 337 336
f 337 345 331
f 338 352 350
f 339 333 346
f 340 339 353
f 347 356 342
f 343 348 341
f 334 342 356
f 334 356 349
f 357 343 358
f 358 343 344
f 337 351 345
f 352 359 350
f 338 361 360
f 338 340 361
f 341 355 347
f 354 347 355
f 347 354 356
f 355 341 348
f 349 356 365
f 357 348 343
f 351 337 349
f 344 350 358
f 359 352 368
f 338 360 352
f 345 351 346
f 346 364 339
f 340 353 361
f 353 339 364
f 354 355 362
f 354 362 356
f 349 365 363
f 363 351 349
f 359 358 350
f 369 360 361
f 364 346 351
f 364 361 353
f 356 362 365
f 348 366 355
f 362 355 366
f 357 366 348
f 365 371 363
f 357 358 372
f 363 367 351
f 363 371 367
f 368 352 360
f 360 369 368
f 364 351 367
f 361 370 369
f 364 370 361
f 362 371 365
f 362 366 371
f 357 372 366
f 375 366 372
f 372 358 359
f 372 359 376
f 369 370 373
f 373 370 377
f 367 374 364
f 373 368 369
f 374 377 370
f 364 374 370
f 366 375 371
f 375 372 376
f 367 371 375
f 368 376 359
f 376 368 373
f 376 373 377
f 374 367 375
f 376 374 375
f 374 376 377
f 388 381 378
f 386 387 380
f 388 380 381
f 379 380 388
f 382 388 378
f 383 381 389
f 378 381 383
f 384 382 378
f 382 384 391
f 378 383 384
f 387 379 393
f 379 386 380
f 393 379 388
f 394 380 387
f 380 395 381
f 395 389 381
f 383 389 390
f 384 383 390
f 384 392 385
f 384 390 392
f 385 391 384
f 394 387 393
f 388 401 393
f 380 394 395
f 402 389 395
f 389 396 397
f 397 390 389
f 390 398 392
f 385 400 405
f 385 399 400
f 385 392 399
f 401 394 393
f 401 408 394
f 420 401 388
f 388 382 412
f 396 409 397
f 411 396 389
f 398 390 397
f 403 398 413
f 391 385 404
f 403 392 398
f 405 415 404
f 385 405 404
f 392 403 399
f 400 399 416
f 407 409 406
f 406 409 418
f 407 397 409
f 397 407 419
f 410 409 396
f 421 410 396
f 397 419 398
f 419 413 398
f 382 391 412
f 414 412 391
f 423 403 413
f 391 404 414
f 404 415 414
f 399 403 424
f 400 416 405
f 406 417 407
f 417 419 407
f 394 408 395
f 409 410 418
f 412 420 388
f 422 402 395
f 422 421 402
f 421 411 402
f 427 403 423
f 405 428 415
f 428 405 429
f 427 424 403
f 429 405 416
f 430 416 399
f 425 408 401
f 439 401 420
f 425 401 439
f 426 418 410
f 410 421 426
f 414 415 428
f 423 441 427
f 399 424 430
f 417 406 432
f 406 418 432
f 422 395 408
f 412 433 420
f 433 439 420
f 421 422 426
f 412 414 434
f 423 435 441
f 414 428 436
f 431 429 416
f 432 418 443
f 417 432 419
f 422 408 425
f 422 438 426
f 440 413 419
f 433 412 434
f 413 440 435
f 413 435 423
f 429 436 428
f 437 431 416
f 442 437 416
f 430 442 416
f 438 418 426
f 425 438 422
f 438 425 439
f 419 432 440
f 436 434 414
f 424 427 441
f 429 445 436
f 447 445 429
f 447 429 446
f 429 431 446
f 442 448 437
f 424 441 449
f 449 430 424
f 443 418 438
f 432 443 440
f 433 444 439
f 438 439 450
f 439 444 450
f 434 436 451
f 451 436 445
f 446 431 437
f 437 448 455
f 430 449 442
f 438 450 443
f 443 450 440
f 450 435 440
f 444 433 452
f 453 435 450
f 451 433 434
f 453 441 435
f 454 445 447
f 446 437 455
f 458 448 449
f 449 441 458
f 433 451 452
f 450 444 452
f 454 451 445
f 446 457 454
f 446 454 447
f 455 457 446
f 455 448 458
f 456 450 452
f 457 452 451
f 457 451 454
f 452 457 456
f 450 456 453
f 456 458 453
f 458 456 457
f 458 441 453
f 455 458 457
f 461 462 459
f 460 463 459
f 463 461 459
f 460 467 464
f 464 468 460
f 460 459 467
f 459 462 467
f 463 460 476
f 462 461 466
f 463 466 461
f 466 463 476
f 464 471 474
f 470 472 465
f 472 471 467
f 467 471 464
f 465 467 462
f 467 465 472
f 476 460 468
f 506 465 469
f 469 465 462
f 509 462 466
f 509 469 462
f 479 466 476
f 488 486 470
f 486 493 498
f 470 486 472
f 472 486 498
f 498 471 472
f 505 473 919
f 475 464 474
f 475 468 464
f 465 506 470
f 476 468 477
f 478 479 476
f 469 509 507
f 466 479 510
f 509 466 510
f 480 482 487
f 481 482 480
f 483 482 481
f 481 516 483
f 484 487 482
f 482 483 484
f 484 483 485
f 516 485 483
f 496 485 516
f 487 484 486
f 490 485 496
f 484 485 489
f 485 490 920
f 490 489 920
f 486 484 489
f 489 494 493
f 496 495 492
f 490 494 489
f 490 491 921
f 491 494 921
f 496 491 490
f 491 496 492
f 489 493 486
f 495 494 491
f 494 495 499
f 493 494 500
f 493 500 501
f 495 500 499
f 502 497 488
f 503 501 500
f 470 502 488
f 501 503 498
f 503 471 498
f 503 500 520
f 520 543 503
f 524 503 543
f 505 503 524
f 471 503 504
f 473 505 524
f 506 526 470
f 502 470 526
f 528 473 524
f 475 546 468
f 473 546 475
f 506 469 507
f 477 478 476
f 508 507 509
f 512 480 511
f 480 512 481
f 535 514 922
f 487 517 511
f 517 514 511
f 513 514 517
f 480 487 511
f 512 515 516
f 516 481 512
f 486 517 487
f 515 536 496
f 496 516 515
f 532 517 497
f 517 486 497
f 488 497 486
f 496 536 519
f 520 495 496
f 520 500 495
f 518 497 502
f 518 521 539
f 522 518 502
f 518 522 521
f 521 522 523
f 522 502 526
f 525 522 526
f 522 525 523
f 506 545 526
f 527 529 524
f 524 529 528
f 527 530 531
f 527 531 529
f 531 530 507
f 508 531 507
f 478 549 479
f 508 509 550
f 551 509 510
f 551 510 479
f 549 551 479
f 534 532 533
f 532 534 517
f 534 513 517
f 535 534 554
f 515 511 536
f 511 514 536
f 511 515 512
f 538 535 554
f 535 538 514
f 514 538 536
f 518 537 497
f 532 497 537
f 519 536 556
f 496 519 520
f 521 540 539
f 558 539 540
f 519 560 520
f 521 523 540
f 520 542 543
f 541 543 542
f 541 527 543
f 543 527 524
f 523 544 540
f 544 568 540
f 569 530 541
f 525 544 523
f 541 530 527
f 545 544 525
f 545 525 526
f 528 529 546
f 473 528 546
f 545 506 507
f 573 571 545
f 545 507 573
f 507 530 573
f 468 546 477
f 547 477 546
f 529 531 548
f 531 508 548
f 548 550 574
f 547 478 477
f 547 549 478
f 508 550 548
f 550 509 551
f 537 552 532
f 553 554 533
f 552 537 576
f 533 554 534
f 554 578 538
f 538 579 555
f 555 536 538
f 536 555 556
f 519 557 560
f 519 581 557
f 540 559 558
f 562 559 540
f 542 520 560
f 564 565 541
f 564 561 565
f 561 566 565
f 564 541 542
f 542 561 564
f 542 560 561
f 562 568 563
f 565 569 541
f 565 566 569
f 567 569 566
f 568 562 540
f 570 563 568
f 567 570 569
f 570 572 569
f 569 572 530
f 545 568 544
f 568 545 571
f 568 571 570
f 572 570 571
f 572 573 530
f 571 573 572
f 529 548 574
f 529 574 575
f 529 575 546
f 547 546 575
f 547 575 549
f 549 550 551
f 574 550 549
f 575 574 549
f 532 582 533
f 553 533 583
f 537 584 576
f 518 584 537
f 578 554 553
f 553 577 578
f 539 586 584
f 518 539 584
f 588 579 578
f 578 579 538
f 587 579 588
f 580 579 587
f 580 556 555
f 555 579 580
f 556 581 519
f 558 559 595
f 581 561 557
f 559 562 563
f 561 581 567
f 561 560 557
f 563 567 581
f 567 566 561
f 563 570 567
f 532 552 582
f 582 552 605
f 583 533 582
f 584 592 576
f 553 583 585
f 583 601 585
f 584 586 600
f 577 585 594
f 553 585 577
f 594 587 577
f 588 577 587
f 578 577 588
f 558 586 539
f 580 603 556
f 596 595 559
f 589 581 556
f 591 596 559
f 559 563 591
f 581 590 591
f 563 581 591
f 552 576 605
f 582 597 593
f 592 617 576
f 582 593 583
f 594 602 587
f 558 595 586
f 602 603 587
f 587 603 580
f 556 603 589
f 576 617 605
f 597 582 605
f 598 593 597
f 598 599 593
f 608 599 598
f 593 599 601
f 593 601 583
f 610 601 599
f 600 586 623
f 602 594 585
f 602 585 601
f 623 586 595
f 624 591 590
f 589 612 581
f 581 612 590
f 597 605 606
f 606 620 607
f 606 616 620
f 606 598 597
f 607 598 606
f 621 598 607
f 608 609 599
f 592 584 600
f 610 599 609
f 602 601 611
f 595 596 651
f 611 589 603
f 611 603 602
f 591 624 596
f 590 612 624
f 617 613 618
f 604 616 605
f 626 616 604
f 617 604 605
f 618 604 617
f 619 604 613
f 614 619 613
f 614 615 619
f 619 615 604
f 606 605 616
f 630 621 607
f 630 607 616
f 598 621 608
f 622 609 608
f 632 608 621
f 608 632 622
f 632 610 609
f 633 601 610
f 601 633 625
f 625 611 601
f 651 596 624
f 625 589 611
f 612 625 624
f 612 589 625
f 637 629 628
f 628 626 637
f 617 636 613
f 613 636 615
f 615 636 626
f 604 615 626
f 627 628 616
f 627 616 626
f 614 613 615
f 629 616 628
f 629 630 616
f 631 621 630
f 641 592 600
f 632 621 631
f 622 632 609
f 625 633 648
f 632 648 633
f 632 633 610
f 648 624 625
f 654 634 626
f 642 643 634
f 643 635 637
f 634 643 637
f 626 636 654
f 644 638 637
f 637 638 629
f 646 629 638
f 617 592 645
f 636 617 645
f 639 630 629
f 646 639 629
f 647 592 641
f 640 630 639
f 640 632 631
f 631 630 640
f 623 641 600
f 623 595 649
f 649 595 651
f 624 648 656
f 923 652 635
f 643 923 635
f 652 923 642
f 654 642 634
f 637 635 644
f 646 638 644
f 645 592 647
f 646 640 639
f 659 641 623
f 632 640 648
f 651 650 649
f 656 651 624
f 642 654 652
f 654 653 652
f 635 652 653
f 655 635 653
f 644 635 655
f 655 646 644
f 651 661 650
f 665 653 654
f 666 654 636
f 657 645 647
f 667 646 655
f 657 647 641
f 658 646 667
f 658 660 648
f 646 658 640
f 640 658 648
f 623 649 659
f 649 668 659
f 650 668 649
f 651 656 661
f 656 660 661
f 656 648 660
f 663 662 664
f 664 662 653
f 665 664 653
f 662 663 673
f 645 657 682
f 653 662 655
f 655 662 673
f 636 645 666
f 659 657 641
f 674 659 668
f 650 661 668
f 661 660 668
f 664 669 663
f 663 669 671
f 663 671 675
f 669 664 672
f 670 669 672
f 645 682 683
f 665 654 666
f 664 665 672
f 677 667 673
f 673 667 655
f 677 658 667
f 668 660 680
f 679 668 680
f 660 658 680
f 670 675 671
f 670 672 675
f 666 645 683
f 685 675 672
f 673 663 676
f 686 663 675
f 676 663 686
f 666 685 665
f 685 672 665
f 657 659 678
f 659 674 678
f 680 658 677
f 689 674 668
f 679 689 668
f 675 685 681
f 675 681 686
f 692 686 681
f 682 690 683
f 684 666 683
f 683 690 684
f 684 685 666
f 691 685 684
f 657 687 682
f 678 687 657
f 676 677 673
f 678 674 688
f 689 688 674
f 707 684 690
f 681 685 691
f 695 681 691
f 693 676 686
f 692 681 693
f 698 694 693
f 682 687 706
f 691 684 708
f 694 677 676
f 676 693 694
f 687 678 710
f 677 700 680
f 689 679 702
f 695 693 681
f 697 693 695
f 695 696 697
f 682 706 690
f 691 696 695
f 697 698 693
f 708 684 707
f 677 694 699
f 678 688 701
f 702 679 700
f 680 700 679
f 677 699 700
f 701 688 689
f 689 702 701
f 703 705 696
f 691 704 696
f 704 703 696
f 697 696 705
f 698 697 705
f 705 709 698
f 691 708 704
f 709 694 698
f 710 706 687
f 700 699 713
f 678 701 712
f 714 701 702
f 711 705 703
f 703 704 716
f 711 703 716
f 709 705 716
f 705 711 717
f 705 717 716
f 708 716 704
f 706 707 690
f 699 694 709
f 712 710 678
f 714 712 701
f 702 715 714
f 702 700 715
f 713 715 700
f 716 708 722
f 709 716 725
f 706 726 718
f 718 707 706
f 707 718 724
f 724 708 707
f 699 709 719
f 727 719 709
f 720 728 710
f 720 710 712
f 699 719 713
f 729 713 719
f 712 721 737
f 721 712 714
f 713 731 715
f 722 723 716
f 724 722 708
f 727 709 725
f 706 710 728
f 727 734 719
f 720 712 736
f 713 729 738
f 736 712 737
f 715 730 714
f 731 730 715
f 713 738 731
f 714 730 721
f 722 724 723
f 725 723 732
f 725 716 723
f 725 732 733
f 727 725 733
f 727 733 734
f 706 728 726
f 741 719 734
f 735 719 741
f 719 735 729
f 743 738 729
f 721 730 737
f 730 731 744
f 731 738 744
f 745 732 724
f 724 732 723
f 732 745 740
f 739 724 718
f 724 739 745
f 746 741 733
f 741 734 733
f 728 720 769
f 769 720 736
f 729 735 742
f 729 742 743
f 752 742 735
f 743 756 738
f 743 754 755
f 743 755 756
f 738 757 744
f 738 756 757
f 733 740 746
f 749 745 739
f 746 740 760
f 747 746 760
f 745 760 740
f 747 741 746
f 749 739 748
f 741 747 735
f 750 752 735
f 735 747 750
f 761 751 748
f 752 753 742
f 743 742 754
f 753 754 742
f 754 768 770
f 754 770 755
f 755 772 756
f 744 737 730
f 757 756 772
f 744 758 780
f 757 773 744
f 739 718 762
f 761 759 739
f 739 759 748
f 739 762 761
f 749 760 745
f 766 760 749
f 726 762 718
f 763 761 762
f 751 761 763
f 763 764 751
f 764 765 751
f 762 765 764
f 748 751 749
f 751 765 749
f 767 752 750
f 766 767 750
f 767 753 752
f 753 768 754
f 778 755 770
f 755 771 772
f 771 755 778
f 744 780 737
f 780 758 786
f 744 773 758
f 758 773 774
f 773 781 774
f 765 766 749
f 767 775 753
f 776 726 728
f 768 753 775
f 770 768 778
f 775 777 768
f 768 777 778
f 772 771 778
f 778 783 772
f 784 737 780
f 772 783 757
f 757 779 773
f 785 757 783
f 757 785 779
f 780 786 806
f 779 781 773
f 781 779 787
f 762 726 765
f 776 765 726
f 766 795 767
f 782 777 775
f 782 767 796
f 795 796 767
f 776 728 769
f 777 782 778
f 778 782 788
f 784 769 736
f 783 778 788
f 736 737 784
f 789 785 783
f 779 785 789
f 781 787 792
f 774 793 758
f 795 766 765
f 782 796 788
f 776 769 797
f 784 797 769
f 799 790 789
f 787 779 790
f 790 779 789
f 790 791 787
f 792 787 791
f 786 808 806
f 793 786 758
f 793 774 802
f 795 765 794
f 765 776 794
f 798 783 788
f 817 797 784
f 798 789 783
f 789 798 799
f 791 790 800
f 790 799 800
f 784 780 806
f 791 801 792
f 800 801 791
f 803 801 800
f 774 781 792
f 774 807 802
f 796 813 788
f 813 798 788
f 776 797 814
f 814 797 817
f 815 803 799
f 799 798 815
f 803 800 799
f 806 817 784
f 847 801 803
f 801 805 792
f 792 804 774
f 805 804 792
f 804 807 774
f 808 786 793
f 802 807 809
f 802 810 793
f 808 793 810
f 802 811 810
f 802 809 811
f 811 820 810
f 811 812 820
f 810 825 808
f 810 820 829
f 810 829 825
f 795 813 796
f 841 795 794
f 795 841 813
f 794 776 814
f 794 814 841
f 813 815 798
f 803 815 847
f 815 816 847
f 805 801 847
f 818 805 847
f 805 818 804
f 819 809 807
f 806 852 851
f 819 824 809
f 852 806 808
f 811 821 812
f 812 821 822
f 822 821 823
f 823 820 812
f 821 824 853
f 820 823 853
f 826 820 853
f 853 823 821
f 811 824 821
f 811 809 824
f 852 825 827
f 808 825 852
f 820 826 828
f 820 828 829
f 830 827 825
f 825 829 830
f 830 829 832
f 828 831 829
f 829 831 832
f 832 831 858
f 833 860 877
f 860 834 836
f 860 833 834
f 833 835 834
f 836 838 837
f 835 838 834
f 838 836 834
f 839 865 840
f 841 815 813
f 842 815 841
f 843 839 844
f 839 840 844
f 840 845 844
f 841 869 842
f 816 842 846
f 816 846 847
f 842 848 846
f 848 842 867
f 847 846 844
f 843 844 846
f 841 814 849
f 847 844 818
f 814 850 849
f 844 804 818
f 804 844 871
f 804 871 807
f 817 850 814
f 807 872 819
f 806 851 817
f 898 824 819
f 824 854 853
f 827 855 852
f 851 852 855
f 853 854 826
f 856 855 827
f 856 827 830
f 830 876 856
f 828 826 859
f 826 854 859
f 877 879 857
f 858 830 832
f 828 859 831
f 831 859 858
f 877 857 833
f 833 857 835
f 883 835 857
f 861 860 836
f 885 838 835
f 837 884 836
f 837 838 884
f 868 862 839
f 839 862 863
f 864 862 869
f 862 864 865
f 865 839 863
f 840 865 864
f 864 866 840
f 843 848 867
f 867 869 924
f 924 869 868
f 867 868 843
f 839 843 868
f 868 869 862
f 864 869 886
f 840 866 845
f 866 887 845
f 867 842 869
f 870 871 845
f 870 845 887
f 844 845 871
f 841 849 869
f 872 807 871
f 869 849 894
f 849 850 874
f 873 849 874
f 849 873 894
f 819 872 898
f 872 895 898
f 850 875 874
f 875 817 851
f 850 817 875
f 898 854 824
f 851 855 856
f 875 851 856
f 874 875 876
f 854 898 878
f 877 878 898
f 899 877 898
f 876 875 856
f 854 878 859
f 878 877 860
f 879 900 857
f 901 857 900
f 880 876 830
f 859 878 881
f 878 860 881
f 883 857 901
f 880 830 858
f 858 859 882
f 882 859 881
f 860 861 881
f 882 881 861
f 882 861 880
f 861 836 884
f 838 885 902
f 884 838 902
f 886 866 864
f 866 886 887
f 888 886 869
f 870 887 889
f 886 888 887
f 887 888 889
f 871 870 889
f 888 926 889
f 890 888 869
f 869 894 890
f 926 888 892
f 892 888 890
f 893 872 871
f 891 893 871
f 892 891 927
f 892 893 891
f 892 890 893
f 890 896 893
f 890 894 903
f 872 893 895
f 893 896 895
f 897 895 896
f 874 876 873
f 873 876 906
f 905 898 895
f 899 879 877
f 907 900 879
f 876 880 911
f 880 858 925
f 900 883 901
f 925 882 880
f 880 908 911
f 880 861 884
f 880 884 908
f 883 885 835
f 916 908 884
f 894 873 903
f 903 896 890
f 896 903 897
f 873 906 903
f 897 903 904
f 897 904 905
f 905 899 898
f 903 906 904
f 879 899 907
f 907 899 905
f 907 905 909
f 910 909 905
f 876 911 906
f 900 912 883
f 883 902 885
f 884 902 916
f 902 918 916
f 910 905 904
f 904 906 910
f 909 910 913
f 909 900 907
f 913 900 909
f 906 911 910
f 900 915 912
f 917 902 883
f 917 883 912
f 910 911 914
f 914 913 910
f 913 915 900
f 908 914 911
f 916 912 915
f 914 908 916
f 917 912 916
f 913 914 915
f 914 916 915
f 928 930 929
f 931 929 930
f 931 930 932
f 928 934 933
f 939 928 933
f 929 934 928
f 939 935 928
f 928 935 930
f 936 929 931
f 937 930 935
f 940 936 931
f 941 931 932
f 932 944 941
f 944 932 938
f 938 932 930
f 937 938 930
f 945 949 939
f 933 934 945
f 933 945 939
f 934 929 946
f 953 935 939
f 946 929 936
f 937 935 953
f 940 931 947
f 941 944 943
f 948 944 938
f 934 950 945
f 934 946 951
f 960 940 947
f 941 947 931
f 947 941 942
f 944 948 943
f 942 943 956
f 948 956 943
f 937 955 938
f 950 949 945
f 959 949 958
f 959 952 949
f 952 939 949
f 951 950 934
f 952 953 939
f 954 946 936
f 940 960 936
f 953 955 937
f 942 956 947
f 947 956 961
f 938 955 948
f 949 957 958
f 959 958 964
f 950 957 949
f 965 950 951
f 951 954 966
f 951 946 954
f 954 936 960
f 961 960 947
f 971 970 955
f 956 970 961
f 948 970 956
f 970 948 955
f 957 962 958
f 963 962 957
f 962 964 958
f 950 963 957
f 959 973 952
f 973 967 952
f 965 951 966
f 967 953 952
f 967 955 953
f 969 955 967
f 954 960 975
f 955 969 971
f 962 963 964
f 964 963 972
f 972 959 964
f 965 963 950
f 972 973 959
f 975 966 954
f 975 960 968
f 975 968 961
f 978 971 969
f 970 975 961
f 971 975 970
f 963 965 976
f 963 976 972
f 972 976 973
f 966 976 965
f 976 974 973
f 973 974 967
f 966 977 976
f 976 977 974
f 977 978 974
f 978 967 974
f 969 967 978
f 975 971 978
f 966 975 977
f 977 975 978
f 984 979 981
f 981 979 982
f 982 979 983
f 989 980 979
f 997 979 984
f 997 989 979
f 984 991 990
f 991 984 981
f 985 979 980
f 983 979 985
f 986 981 982
f 986 982 987
f 1065 1066 988
f 982 983 988
f 994 988 983
f 984 990 997
f 981 986 999
f 999 986 992
f 985 1001 994
f 993 991 981
f 981 999 993
f 986 988 992
f 1065 988 986
f 983 985 994
f 989 995 1003
f 995 989 996
f 996 989 997
f 1003 1004 989
f 1004 998 989
f 989 998 980
f 990 991 1006
f 980 1002 985
f 991 993 1007
f 992 988 1000
f 988 994 1000
f 1013 993 999
f 1001 1009 994
f 1010 995 996
f 995 1012 1003
f 996 997 1005
f 991 1007 1006
f 1007 993 1013
f 1009 1000 994
f 1014 1001 1002
f 1001 1014 1009
f 1008 1000 1016
f 1012 1011 1003
f 1017 1010 996
f 1021 995 1010
f 1032 1004 1003
f 1005 1017 996
f 1021 1012 995
f 998 1004 1023
f 990 1006 997
f 980 998 1025
f 980 1025 1002
f 1006 1007 1018
f 1008 999 992
f 1025 1014 1002
f 1008 1020 999
f 1016 1000 1009
f 1020 1008 1016
f 1032 1003 1029
f 1023 1004 1032
f 997 1024 1005
f 1024 997 1006
f 1026 1006 1018
f 1007 1015 1018
f 1020 1015 1013
f 1020 1013 999
f 1020 1019 1018
f 1020 1018 1015
f 1027 1020 1016
f 1010 1017 1030
f 1010 1034 1021
f 1012 1035 1011
f 1022 1012 1021
f 1023 1025 998
f 1024 1006 1057
f 1057 1006 1026
f 1044 1014 1025
f 1044 1009 1014
f 1027 1019 1020
f 1019 1027 1037
f 1016 1009 1027
f 1039 1040 1029
f 1011 1029 1003
f 1031 1029 1011
f 1029 1031 1028
f 1035 1031 1011
f 1033 1030 1017
f 1034 1010 1030
f 1042 1033 1017
f 1035 1012 1041
f 1005 1024 1017
f 1042 1017 1024
f 1019 1026 1018
f 1009 1044 1027
f 1038 1029 1028
f 1038 1039 1029
f 1028 1031 1039
f 1032 1029 1040
f 1032 1040 1046
f 1053 1036 1034
f 1021 1034 1036
f 1043 1012 1022
f 1041 1012 1043
f 1036 1022 1021
f 1036 1067 1022
f 1019 1047 1026
f 1019 1037 1047
f 1048 1027 1044
f 1045 1030 1033
f 1050 1031 1035
f 1030 1049 1034
f 1046 1023 1032
f 1036 1055 1067
f 1054 1041 1043
f 1023 1056 1025
f 1047 1058 1026
f 1047 1037 1048
f 1048 1037 1027
f 1045 1033 1051
f 1039 1050 1040
f 1049 1030 1045
f 1052 1046 1040
f 1042 1051 1033
f 1041 1050 1035
f 1041 1054 1050
f 1050 1054 1052
f 1050 1052 1040
f 1053 1034 1049
f 1054 1043 1067
f 1053 1063 1055
f 1054 1067 1055
f 1024 1059 1042
f 1046 1056 1023
f 1060 1044 1025
f 1026 1058 1057
f 1047 1048 1058
f 1045 1051 1049
f 1042 1059 1051
f 1051 1059 1049
f 1049 1063 1053
f 1052 1056 1046
f 1055 1063 1054
f 1052 1060 1056
f 1054 1063 1052
f 1024 1057 1061
f 1060 1025 1056
f 1058 1062 1057
f 1058 1060 1062
f 1060 1058 1048
f 1044 1060 1048
f 1063 1049 1059
f 1024 1061 1059
f 1063 1060 1052
f 1063 1064 1060
f 1057 1062 1061
f 1061 1062 1064
f 1062 1060 1064
f 1059 1061 1064
f 1063 1059 1064
f 1072 1071 1068
f 1072 1068 1070
f 1068 1074 1069
f 1070 1068 1069
f 1070 1069 1076
f 1069 1077 1076
f 1068 1071 1074
f 1071 1073 1074
f 1075 1072 1070
f 1074 1077 1069
f 1070 1076 1078
f 1076 1080 1078
f 1076 1077 1079
f 1079 1080 1076
f 1075 1073 1072
f 1083 1074 1073
f 1081 1084 1077
f 1082 1080 1079
f 1079 1086 1082
f 1087 1082 1086
f 1075 1083 1073
f 1081 1077 1074
f 1074 1090 1081
f 1075 1070 1078
f 1091 1075 1078
f 1079 1077 1084
f 1078 1080 1085
f 1091 1078 1085
f 1082 1085 1080
f 1079 1092 1086
f 1093 1082 1087
f 1086 1089 1087
f 1088 1087 1089
f 1074 1083 1090
f 1083 1075 1090
f 1092 1079 1084
f 1092 1084 1095
f 1091 1085 1093
f 1082 1093 1085
f 1093 1087 1096
f 1092 1094 1086
f 1086 1094 1089
f 1075 1098 1090
f 1075 1091 1098
f 1081 1090 1084
f 1095 1094 1092
f 1089 1094 1097
f 1088 1089 1097
f 1090 1099 1084
f 1084 1099 1095
f 1093 1098 1091
f 1098 1093 1100
f 1100 1093 1096
f 1096 1087 1101
f 1097 1094 1095
f 1090 1098 1100
f 1088 1101 1087
f 1097 1095 1102
f 1090 1100 1099
f 1099 1102 1095
f 1088 1097 1101
f 1100 1102 1099
f 1101 1100 1096
f 1100 1101 1102
f 1101 1097 1102
f 1114 1104 1103
f 1103 1104 1105
f 1105 1106 1103
f 1106 1105 1107
f 1107 1109 1119
f 1107 1108 1109
f 1112 1110 1111
f 1123 1110 1112
f 1111 1110 1122
f 1111 1114 1112
f 1111 1113 1114
f 1112 1114 1115
f 1104 1114 1113
f 1115 1114 1103
f 1115 1103 1116
f 1116 1106 1117
f 1116 1103 1106
f 1117 1106 1118
f 1107 1105 1126
f 1131 1118 1106
f 1126 1108 1107
f 1119 1106 1107
f 1119 1109 1121
f 1108 1126 1127
f 1108 1120 1109
f 1108 1127 1120
f 1121 1109 1120
f 1123 1122 1110
f 1122 1113 1111
f 1123 1112 1115
f 1122 1128 1113
f 1130 1104 1113
f 1125 1105 1104
f 1130 1125 1104
f 1115 1116 1124
f 1124 1116 1117
f 1126 1105 1125
f 1119 1131 1106
f 1122 1123 1129
f 1122 1129 1130
f 1129 1123 1115
f 1122 1130 1128
f 1113 1128 1130
f 1124 1129 1115
f 1124 1117 1132
f 1118 1131 1117
f 1134 1121 1120
f 1129 1124 1132
f 1132 1117 1131
f 1125 1133 1126
f 1133 1127 1126
f 1119 1137 1131
f 1137 1119 1121
f 1133 1120 1127
f 1133 1134 1120
f 1135 1130 1129
f 1129 1132 1135
f 1135 1125 1130
f 1132 1131 1136
f 1125 1135 1136
f 1137 1121 1134
f 1135 1132 1136
f 1133 1125 1136
f 1131 1137 1136
f 1133 1137 1134
f 1137 1133 1136
f 1139 1142 1138
f 1138 1140 1139
f 1140 1141 1139
f 1139 1143 1142
f 1143 1139 1152
f 1140 1138 1149
f 1140 1150 1141
f 1150 1140 1149
f 1146 1145 1142
f 1143 1146 1142
f 1138 1142 1157
f 1157 1144 1138
f 1162 1144 1157
f 1147 1152 1139
f 1148 1147 1139
f 1139 1141 1148
f 1138 1144 1149
f 1141 1150 1154
f 1151 1145 1146
f 1151 1146 1158
f 1145 1157 1142
f 1158 1146 1152
f 1146 1143 1152
f 1148 1154 1155
f 1148 1141 1154
f 1150 1156 1154
f 1149 1156 1150
f 1157 1145 1151
f 1162 1153 1144
f 1153 1159 1144
f 1147 1148 1160
f 1159 1149 1144
f 1160 1148 1155
f 1160 1155 1164
f 1149 1159 1165
f 1156 1149 1165
f 1154 1166 1155
f 1154 1156 1167
f 1166 1154 1167
f 1161 1151 1158
f 1161 1157 1151
f 1157 1161 1162
f 1161 1163 1162
f 1158 1152 1163
f 1158 1163 1161
f 1163 1153 1162
f 1152 1147 1163
f 1156 1165 1167
f 1163 1147 1169
f 1147 1164 1169
f 1168 1155 1166
f 1168 1166 1167
f 1163 1169 1153
f 1164 1147 1160
f 1155 1168 1164
f 1159 1170 1165
f 1167 1165 1170
f 1172 1168 1167
f 1171 1159 1153
f 1168 1173 1164
f 1173 1169 1164
f 1170 1159 1171
f 1172 1173 1168
f 1172 1167 1170
f 1169 1171 1153
f 1169 1173 1171
f 1171 1173 1170
f 1173 1172 1170
f 1174 1180 1175
f 1177 1176 1183
f 1176 1177 1178
f 1178 1177 1174
f 1178 1174 1179
f 1177 1180 1174
f 1174 1181 1179
f 1179 1181 1185
f 1175 1181 1174
f 1175 1180 1182
f 1196 1183 1176
f 1188 1177 1183
f 1184 1177 1188
f 1196 1176 1189
f 1189 1176 1178
f 1180 1177 1184
f 1190 1180 1184
f 1178 1179 1200
f 1185 1181 1191
f 1186 1191 1181
f 1175 1187 1181
f 1186 1181 1187
f 1192 1182 1180
f 1187 1175 1195
f 1195 1175 1182
f 1197 1183 1196
f 1197 1188 1183
f 1199 1189 1178
f 1199 1178 1200
f 1179 1185 1200
f 1180 1190 1192
f 1186 1194 1193
f 1187 1202 1186
f 1187 1195 1202
f 1205 1188 1197
f 1206 1184 1188
f 1196 1189 1198
f 1209 1189 1199
f 1200 1185 1201
f 1201 1185 1191
f 1191 1193 1194
f 1182 1192 1207
f 1194 1186 1202
f 1215 1195 1182
f 1207 1215 1182
f 1203 1204 1197
f 1203 1197 1196
f 1205 1197 1204
f 1198 1203 1196
f 1209 1198 1189
f 1190 1184 1206
f 1217 1201 1191
f 1210 1191 1194
f 1202 1210 1194
f 1202 1195 1215
f 1204 1203 1205
f 1205 1208 1188
f 1203 1198 1209
f 1208 1206 1188
f 1206 1212 1190
f 1212 1213 1190
f 1201 1217 1200
f 1213 1207 1192
f 1205 1203 1208
f 1203 1209 1211
f 1203 1211 1208
f 1209 1216 1211
f 1206 1208 1212
f 1216 1209 1199
f 1200 1214 1199
f 1213 1192 1190
f 1210 1217 1191
f 1218 1210 1202
f 1202 1215 1218
f 1212 1211 1216
f 1211 1212 1208
f 1199 1214 1216
f 1213 1212 1216
f 1213 1216 1219
f 1214 1200 1217
f 1215 1207 1218
f 1210 1218 1217
f 1214 1219 1216
f 1219 1207 1213
f 1214 1217 1219
f 1219 1218 1207
f 1219 1217 1218
