# Blender 4.0.2
# www.blender.org
mtllib lumbar3.mtl
o lumbar3.002
v -0.035752 0.018345 0.039334
v -0.031762 0.019430 0.037436
v -0.035497 0.024451 0.038397
v -0.035595 0.016593 0.036973
v -0.035377 0.016640 0.036823
v -0.037274 0.018129 0.037481
v -0.038457 0.024441 0.036210
v -0.032125 0.017771 0.032200
v -0.036325 0.026594 0.035935
v -0.037135 0.026454 0.035582
v -0.035720 0.027930 0.033393
v -0.035458 0.027539 0.033441
v -0.034377 0.019511 0.031045
v -0.035176 0.021829 0.030142
v -0.025152 0.015572 0.015617
v -0.031817 0.026067 0.026598
v -0.028397 0.016204 0.018119
v -0.032263 0.025655 0.025349
v -0.033950 0.019364 0.026728
v -0.035922 0.020650 0.024896
v -0.035935 0.023337 0.023324
v -0.025434 0.020533 0.022895
v -0.029324 0.024761 0.023980
v -0.036187 0.019541 0.017690
v -0.032412 0.025958 0.025500
v -0.033070 0.025788 0.023139
v -0.035005 0.019195 0.023963
v 0.003328 0.010613 0.019085
v -0.010625 0.035953 0.020944
v -0.004134 0.009251 0.019504
v -0.007698 0.010038 0.020173
v -0.007731 0.009963 0.020259
v -0.013332 0.008356 0.019669
v -0.021204 0.019594 0.019296
v -0.037376 0.018226 0.021821
v -0.041674 0.019746 0.021035
v -0.047578 0.025176 0.020852
v -0.048405 0.022634 0.019925
v -0.001630 0.036373 0.019705
v -0.000655 0.038676 0.018030
v 0.007409 0.011847 0.017422
v 0.007422 0.011847 0.017450
v -0.008940 0.023825 0.017992
v -0.012645 0.015690 0.018485
v -0.017578 0.034128 0.018927
v -0.022322 0.026921 0.018480
v -0.018572 0.006729 0.014579
v -0.017664 0.008313 0.016460
v -0.016097 0.008105 0.018065
v -0.020428 0.014470 0.014730
v -0.027488 0.026367 0.018984
v -0.044651 0.030173 0.018677
v -0.032907 0.007503 0.014344
v -0.035811 -0.007997 0.016255
v -0.039114 0.003012 0.017603
v -0.039884 0.002351 0.017544
v -0.040931 -0.001089 0.016777
v -0.047615 0.021293 0.017910
v -0.041098 -0.003773 0.016857
v -0.040207 -0.006466 0.015892
v -0.041040 -0.001138 0.016793
v 0.003579 0.038927 0.016073
v 0.003739 0.039097 0.016001
v 0.012786 0.013525 0.011772
v 0.011653 0.011362 0.013829
v 0.008537 0.027618 0.012389
v -0.023721 0.033130 0.011672
v -0.021871 0.015263 0.015160
v -0.022185 0.015628 0.013662
v -0.027991 0.027830 0.013262
v -0.034215 0.032704 0.010771
v -0.029295 0.014602 0.015761
v -0.029224 0.014630 0.015286
v -0.036818 0.033318 0.014814
v -0.037421 0.033546 0.014753
v -0.037097 0.033736 0.014725
v -0.040401 0.033113 0.016148
v -0.031016 0.011581 0.014959
v -0.032415 0.009362 0.013687
v -0.032878 0.009941 0.014493
v -0.036659 0.013250 0.014258
v -0.042073 0.032074 0.016435
v -0.034301 0.008453 0.014198
v -0.035258 0.009004 0.014269
v -0.038844 0.018088 0.016004
v -0.039908 0.018545 0.014598
v -0.039730 0.018293 0.014185
v -0.041561 0.019238 0.016760
v -0.042493 0.020012 0.015924
v -0.032725 -0.006548 0.013193
v -0.036893 0.005830 0.013815
v -0.037022 0.007017 0.014719
v -0.037053 0.008712 0.013745
v -0.036996 0.008708 0.013729
v -0.044069 0.020204 0.016131
v -0.047879 0.025743 0.017480
v -0.035986 -0.008401 0.013872
v -0.039579 -0.005587 0.013571
v 0.008892 0.038197 0.011454
v -0.025624 0.028446 0.012508
v -0.020737 0.014273 0.011944
v -0.025695 0.016812 0.012233
v -0.022506 0.018290 0.010752
v -0.027752 0.027619 0.011994
v -0.034650 0.032267 0.012613
v -0.034563 0.032681 0.011727
v -0.028923 0.013610 0.009077
v -0.032432 0.009684 0.013420
v -0.033228 0.025157 0.008281
v -0.031735 0.003099 0.010910
v -0.031514 0.007846 0.010028
v -0.031258 -0.000828 0.010412
v -0.037623 0.015250 0.011664
v -0.039835 0.018587 0.014587
v -0.031987 -0.000648 0.010489
v -0.036930 0.011701 0.007244
v -0.043712 -0.001610 0.007603
v -0.024469 0.028820 0.009815
v -0.026104 0.027501 0.010800
v -0.020090 0.006980 0.010140
v -0.032745 0.029610 0.009055
v -0.033865 0.031270 0.009798
v -0.033152 0.029452 0.009927
v -0.035185 -0.002718 0.005375
v -0.042937 -0.003578 0.006957
v 0.010771 0.040079 -0.001595
v -0.022097 0.032631 -0.000043
v -0.018767 0.007902 0.000074
v -0.035060 0.018605 0.005837
v -0.036946 0.017229 0.006650
v -0.041698 -0.003996 0.005220
v -0.044348 -0.004114 0.005656
v -0.049135 -0.002295 0.004651
v -0.058592 -0.013488 0.004784
v 0.011269 0.040078 -0.001677
v 0.016173 0.013608 0.000491
v 0.013419 0.023902 -0.001038
v -0.018804 0.008351 -0.002291
v -0.035165 0.017564 0.003056
v -0.034888 0.018474 0.003925
v -0.035592 0.017367 0.005314
v -0.035713 0.017747 0.003286
v -0.035793 0.017392 0.005247
v -0.035707 0.017630 0.003031
v -0.036070 0.017671 0.002584
v -0.037963 0.016770 0.004330
v -0.037946 0.016771 0.004306
v -0.038666 0.004335 -0.000423
v -0.039516 0.015623 0.002625
v -0.039930 -0.002086 0.002055
v -0.057686 0.003899 0.000414
v -0.048844 -0.009449 -0.000575
v -0.055922 -0.007707 0.003416
v -0.056223 -0.016391 0.000839
v -0.062398 0.000626 0.002191
v -0.062120 -0.013019 0.002655
v -0.037645 0.017977 -0.000661
v -0.036309 0.008225 -0.000314
v -0.038312 0.019059 0.000737
v -0.041677 -0.002939 -0.000385
v -0.064258 -0.003788 -0.000499
v -0.062435 -0.013251 -0.002926
v 0.014461 0.011008 -0.001258
v -0.009237 0.034465 -0.002275
v -0.035748 0.017739 -0.003552
v -0.036980 0.007060 -0.000402
v -0.035325 0.017389 -0.003025
v -0.038788 0.018697 -0.001181
v -0.038531 0.018294 -0.000213
v -0.040004 0.017007 -0.002295
v -0.038480 -0.002055 -0.003926
v -0.042228 -0.003923 -0.006054
v -0.062248 0.000791 -0.003006
v -0.056360 -0.014559 -0.004645
v -0.061639 -0.013707 -0.004030
v 0.009059 0.039975 -0.008793
v -0.035079 0.017364 -0.004027
v -0.036191 0.017218 -0.003185
v -0.036072 0.016931 -0.005049
v -0.035843 0.017168 -0.005219
v -0.028734 0.013410 -0.009962
v -0.038088 0.018595 -0.001815
v -0.036983 0.016584 -0.009430
v -0.036876 0.011414 -0.007004
v -0.034912 -0.003045 -0.006695
v -0.043784 -0.003964 -0.007443
v -0.043619 -0.003382 -0.007319
v -0.055095 -0.004929 -0.004263
v -0.059395 -0.014190 -0.005363
v 0.010339 0.037841 -0.008925
v 0.010963 0.022903 -0.009763
v 0.013727 0.011124 -0.008255
v -0.023388 0.033452 -0.009726
v -0.024006 0.029504 -0.009667
v -0.034272 0.018784 -0.005053
v -0.033176 0.023173 -0.007788
v -0.030883 0.027070 -0.010586
v -0.034230 0.020444 -0.006133
v -0.045248 -0.001062 -0.007267
v 0.011420 0.011393 -0.014974
v -0.021514 0.016423 -0.010404
v -0.025250 0.028335 -0.011302
v -0.019860 0.007022 -0.010530
v -0.018768 0.007145 -0.015852
v -0.033181 0.028833 -0.009887
v -0.033819 0.031985 -0.010872
v -0.033282 0.023207 -0.007670
v -0.034226 0.020983 -0.009682
v -0.031565 0.006727 -0.011125
v -0.037961 0.010364 -0.011029
v -0.031858 -0.003394 -0.012099
v -0.039607 -0.005133 -0.011006
v -0.043490 -0.003237 -0.007226
v -0.042807 -0.000513 -0.009766
v 0.006501 0.028148 -0.014251
v 0.002390 0.009958 -0.019483
v -0.025115 0.028087 -0.011605
v -0.017138 0.006958 -0.017840
v -0.022647 0.016486 -0.013084
v -0.021125 0.014904 -0.014198
v -0.025381 0.018651 -0.012315
v -0.029184 0.028172 -0.014176
v -0.024436 0.015111 -0.014848
v -0.025235 0.017974 -0.012699
v -0.035831 0.032650 -0.014604
v -0.031604 0.010528 -0.013773
v -0.034080 0.007482 -0.015468
v -0.034065 0.008954 -0.014974
v -0.036232 0.007956 -0.015020
v -0.039149 0.017622 -0.014619
v -0.032510 -0.005890 -0.014012
v -0.032194 -0.005645 -0.013679
v -0.035753 -0.008226 -0.014450
v -0.040969 -0.002686 -0.017562
v 0.002561 0.039024 -0.017981
v 0.007413 0.011913 -0.017886
v -0.024558 0.029726 -0.014207
v -0.017742 0.011888 -0.016678
v -0.019283 0.012485 -0.014333
v -0.019267 0.015006 -0.017030
v -0.018584 0.007137 -0.016053
v -0.020748 0.014874 -0.016036
v -0.022515 0.015423 -0.014916
v -0.024809 0.015167 -0.015996
v -0.026772 0.014207 -0.015273
v -0.024892 0.015086 -0.016011
v -0.028697 0.015291 -0.016687
v -0.035090 0.032392 -0.014281
v -0.037981 0.033217 -0.015471
v -0.037311 0.033393 -0.015828
v -0.036709 0.013568 -0.014775
v -0.039506 0.018152 -0.015431
v -0.041082 0.019628 -0.015857
v -0.036776 0.005926 -0.017023
v -0.036823 0.005781 -0.016819
v -0.039451 0.002918 -0.017702
v -0.035907 -0.008091 -0.016968
v -0.040327 -0.006219 -0.016705
v -0.040293 -0.006204 -0.016803
v -0.041057 -0.002765 -0.017494
v -0.004607 0.038429 -0.019182
v 0.005161 0.010468 -0.018327
v -0.002779 0.009688 -0.020342
v -0.008721 0.020102 -0.017956
v -0.020604 0.032399 -0.018320
v -0.013177 0.014041 -0.019118
v -0.014436 0.008689 -0.019890
v -0.017639 0.018287 -0.018999
v -0.022224 0.026532 -0.019279
v -0.026746 0.015959 -0.019399
v -0.030031 0.025430 -0.023264
v -0.036494 0.019275 -0.017896
v -0.036988 0.019454 -0.017913
v -0.046184 0.028474 -0.018360
v -0.042333 0.031753 -0.018320
v -0.041876 0.019371 -0.017174
v -0.043192 0.019313 -0.016986
v -0.048373 0.021120 -0.018956
v -0.039458 -0.000895 -0.017943
v -0.046804 0.020524 -0.018500
v -0.008535 0.035835 -0.021850
v -0.009644 0.010082 -0.021199
v -0.036010 0.019834 -0.025073
v -0.035743 0.024926 -0.023094
v -0.039376 0.018736 -0.021597
v -0.037426 0.020444 -0.023433
v -0.044619 0.030099 -0.019384
v -0.044790 0.030109 -0.019565
v -0.047410 0.023637 -0.021562
v -0.047465 0.026255 -0.020458
v -0.048075 0.025047 -0.020309
v -0.025597 0.020686 -0.022910
v -0.029680 0.017208 -0.030119
v -0.032079 0.025882 -0.025056
v -0.034853 0.022824 -0.026295
v -0.032451 0.026108 -0.029150
v -0.029919 0.017670 -0.030566
v -0.033010 0.026922 -0.029982
v -0.034928 0.020723 -0.030801
v -0.033045 0.026874 -0.030609
v -0.033346 0.018644 -0.039519
v -0.034667 0.023776 -0.039107
v -0.035423 0.027454 -0.033977
v -0.036733 0.017028 -0.038596
v -0.038023 0.025964 -0.037016
v -0.035693 0.027402 0.033977
v -0.035090 0.026716 0.033006
v -0.033416 0.026729 0.029704
v -0.034758 0.021399 0.029372
v -0.033950 0.019364 0.026728
v -0.033950 0.019364 0.026728
v -0.039487 0.002162 0.017245
v -0.041028 -0.003388 0.016912
v -0.021835 0.015279 0.015161
v -0.022185 0.015628 0.013662
v -0.035258 0.009004 0.014269
v -0.036691 0.013162 0.014289
v -0.038955 0.017786 0.015956
v -0.037317 0.005782 0.016006
v -0.037022 0.007017 0.014719
v -0.037727 0.015272 0.011686
v -0.026051 0.027466 0.010957
v -0.032851 0.027749 0.008778
v -0.033563 0.029389 0.010007
v -0.044231 -0.004167 0.005790
v -0.035592 0.017367 0.005314
v -0.035732 0.017755 0.003279
v -0.035732 0.017755 0.003279
v -0.056795 0.004291 0.000161
v -0.036120 0.017602 -0.003565
v -0.036337 0.017504 -0.003732
v -0.035406 0.017995 -0.004074
v -0.036003 0.018275 -0.004287
v -0.035406 0.017995 -0.004074
v -0.036212 0.017815 -0.004803
v -0.037623 0.016944 -0.004790
v 0.013729 0.011230 -0.008121
v -0.045179 -0.001114 -0.007173
v -0.021125 0.014904 -0.014198
v -0.017742 0.011888 -0.016678
v -0.020738 0.014907 -0.016013
v -0.022515 0.015423 -0.014916
v -0.022515 0.015423 -0.014916
v -0.034389 0.007303 -0.015108
v -0.036178 0.007903 -0.015059
v -0.039316 0.002893 -0.017581
v -0.003772 0.038620 -0.019019
v 0.007548 0.011630 -0.018634
v -0.013177 0.014041 -0.019118
v -0.016545 0.007584 -0.017906
v -0.044475 0.019933 -0.017386
v -0.039477 -0.000921 -0.017891
v -0.036149 0.019756 -0.024931
v -0.034932 0.022889 -0.026244
v -0.032927 0.026889 -0.029970
v -0.033095 0.027416 -0.030023
v -0.033536 0.027184 -0.031467
vn 0.1342 0.5170 0.8454
vn -0.1304 -0.3677 0.9208
vn 0.7796 -0.1734 0.6018
vn -0.2629 -0.9609 0.0869
vn 0.5191 -0.7588 0.3934
vn -0.0397 -0.9983 0.0426
vn -0.0135 0.8229 0.5680
vn -0.9554 0.2345 0.1795
vn -0.8677 -0.4759 0.1436
vn 0.7476 0.5569 0.3619
vn -0.6752 0.6845 0.2749
vn -0.8570 0.2217 -0.4652
vn -0.2826 0.9154 0.2867
vn -0.9577 -0.0202 -0.2872
vn 0.2860 -0.9304 0.2294
vn -0.7229 -0.6429 -0.2530
vn 0.7313 0.5509 0.4021
vn 0.7945 -0.0034 0.6073
vn -0.7662 0.6395 0.0621
vn -0.9500 -0.0174 0.3117
vn -0.9323 -0.3527 -0.0802
vn 0.3805 0.9202 0.0918
vn 0.6464 0.7182 0.2574
vn -0.0612 0.9960 -0.0656
vn 0.1061 0.9822 -0.1548
vn -0.4228 -0.8688 0.2576
vn -0.1853 -0.9483 0.2575
vn -0.5989 0.3444 0.7230
vn -0.1684 0.8964 0.4100
vn -0.6993 -0.6508 0.2958
vn -0.6975 -0.6549 0.2909
vn -0.9027 -0.2582 0.3442
vn -0.1254 -0.9313 0.3419
vn -0.1534 -0.9432 0.2946
vn 0.3002 0.1338 0.9444
vn -0.0710 0.9845 0.1603
vn -0.1518 0.5996 0.7857
vn 0.1058 0.4054 0.9080
vn 0.1469 -0.8003 0.5814
vn 0.2995 -0.3635 0.8821
vn 0.1688 -0.1764 0.9697
vn -0.1535 0.4485 0.8805
vn 0.1956 -0.1360 0.9712
vn -0.2159 -0.4994 0.8391
vn -0.0818 0.0423 0.9958
vn -0.6133 0.2374 0.7533
vn 0.2159 -0.3497 0.9116
vn 0.1324 0.8913 0.4337
vn 0.4866 0.8471 0.2136
vn -0.2549 -0.9635 0.0821
vn -0.6396 0.2508 0.7266
vn -0.5429 0.7459 0.3858
vn -0.8450 -0.3248 0.4248
vn 0.6110 -0.1609 0.7751
vn 0.3288 0.7737 0.5416
vn 0.6768 -0.5162 0.5248
vn 0.4413 -0.6633 0.6044
vn 0.3657 0.3250 0.8722
vn 0.8917 0.0680 0.4476
vn -0.4258 0.7024 0.5704
vn -0.6082 -0.7302 0.3113
vn -0.6212 -0.5666 0.5414
vn -0.6899 -0.2068 0.6937
vn -0.2304 -0.2732 0.9340
vn -0.6598 -0.1630 0.7335
vn 0.4424 0.7548 0.4843
vn 0.0099 0.7611 0.6485
vn -0.3013 -0.7002 0.6473
vn -0.4437 -0.8953 -0.0391
vn -0.6877 -0.6378 -0.3469
vn 0.6187 0.1900 0.7623
vn -0.3969 0.8080 0.4355
vn -0.8950 0.4457 -0.0152
vn -0.8140 0.2674 -0.5156
vn -0.0342 -0.1829 0.9825
vn 0.2727 -0.6698 0.6907
vn 0.3547 -0.0081 0.9349
vn -0.4156 -0.4529 -0.7887
vn -0.7156 -0.6222 0.3174
vn 0.0223 -0.9878 -0.1544
vn -0.3701 0.0471 0.9278
vn 0.7375 0.0955 0.6685
vn 0.7613 0.4800 0.4359
vn -0.1005 0.9917 0.0805
vn -0.6809 0.7254 0.1013
vn -0.6482 0.7589 0.0629
vn -0.6823 -0.7309 0.0157
vn 0.1618 0.7498 -0.6416
vn -0.5676 -0.8222 0.0426
vn -0.5148 -0.8537 -0.0786
vn -0.0906 -0.1424 -0.9857
vn 0.4582 -0.4814 -0.7472
vn 0.5226 0.8485 -0.0831
vn 0.1887 -0.4627 0.8662
vn 0.6558 -0.6453 -0.3917
vn 0.8437 -0.5162 0.1473
vn 0.1177 0.0557 0.9915
vn -0.0569 -0.1322 0.9896
vn -0.0632 -0.0353 0.9974
vn -0.3504 -0.3314 0.8760
vn -0.5676 0.1364 -0.8120
vn -0.6821 0.0057 -0.7312
vn -0.5867 0.6721 -0.4517
vn 0.0962 0.1734 0.9802
vn -0.2814 -0.0904 0.9553
vn -0.9335 0.0323 0.3570
vn -0.9718 0.0936 -0.2165
vn -0.8061 0.3924 0.4429
vn -0.4946 -0.8685 -0.0346
vn -0.5108 -0.8516 -0.1176
vn -0.8291 -0.5079 0.2338
vn 0.8721 -0.4542 0.1819
vn 0.8442 -0.0317 0.5350
vn -0.0993 0.5252 0.8452
vn -0.5755 0.6520 0.4937
vn -0.3170 0.4682 0.8248
vn -0.3170 -0.9332 -0.1693
vn -0.9866 0.0858 0.1391
vn -0.9268 0.2026 0.3163
vn -0.7699 -0.0415 0.6368
vn -0.7945 -0.6048 -0.0547
vn -0.4047 -0.8459 0.3475
vn 0.7412 -0.6326 -0.2246
vn -0.4869 0.1232 -0.8647
vn 0.1325 -0.9912 -0.0018
vn -0.9535 -0.2883 -0.0883
vn 0.1500 -0.2630 -0.9531
vn -0.8235 -0.4609 -0.3307
vn -0.6548 -0.6859 -0.3174
vn 0.8125 -0.5177 -0.2679
vn -0.7367 0.1360 -0.6624
vn -0.2526 0.3646 -0.8963
vn 0.9704 -0.2346 -0.0573
vn 0.9947 0.0129 0.1020
vn -0.8597 -0.5090 -0.0432
vn 0.5853 -0.5435 -0.6017
vn 0.4797 -0.8758 -0.0537
vn 0.9904 -0.1353 0.0283
vn -0.2112 0.9763 0.0461
vn -0.9032 0.0845 -0.4208
vn -0.7742 0.6329 0.0047
vn -0.7206 0.6583 -0.2176
vn -0.9855 -0.1696 0.0100
vn 0.5304 0.5085 -0.6783
vn 0.2958 0.3688 -0.8812
vn -0.5193 0.2523 -0.8165
vn -0.8115 0.2216 -0.5407
vn -0.9273 -0.3686 -0.0658
vn -0.7588 0.0007 -0.6514
vn -0.7500 0.6441 0.1505
vn -0.8671 0.4743 -0.1524
vn 0.8749 -0.1726 -0.4526
vn 0.8801 0.4714 0.0575
vn 0.9812 0.1925 -0.0137
vn 0.8729 -0.2508 -0.4186
vn -0.8869 0.4612 -0.0270
vn -0.0120 0.9707 0.2401
vn 0.0109 0.9934 0.1138
vn -0.6278 0.5162 -0.5826
vn 0.7766 -0.3027 -0.5525
vn -0.6282 0.4279 0.6498
vn 0.3065 -0.9399 0.1507
vn -0.3113 0.1203 0.9427
vn -0.1942 -0.6692 0.7172
vn 0.5019 -0.8617 -0.0740
vn -0.7025 -0.3111 0.6400
vn 0.0339 -0.0175 0.9993
vn -0.7449 0.6664 -0.0332
vn -0.8662 0.4968 0.0549
vn -0.5305 0.8184 0.2210
vn -0.0467 0.6973 -0.7152
vn 0.4755 0.8305 -0.2903
vn 0.2300 0.9465 -0.2263
vn 0.0565 0.9972 0.0492
vn 0.3640 0.8007 0.4758
vn 0.5985 -0.6336 -0.4902
vn -0.4144 0.7477 0.5188
vn -0.1033 -0.3294 0.9385
vn 0.2274 -0.9474 0.2254
vn -0.5575 0.5018 0.6614
vn -0.7163 -0.4245 0.5538
vn -0.8401 -0.4679 -0.2744
vn 0.7161 -0.4617 -0.5235
vn 0.7643 0.6448 -0.0099
vn 0.8413 0.0278 0.5399
vn 0.5473 0.8357 -0.0452
vn 0.7271 -0.6861 -0.0263
vn -0.5644 0.8243 0.0449
vn -0.6082 0.6626 -0.4370
vn -0.9978 0.0587 -0.0308
vn -0.1696 0.9338 -0.3151
vn -0.7029 0.7106 0.0312
vn 0.6368 0.3933 0.6631
vn 0.6483 0.6053 0.4620
vn -0.3891 0.8989 -0.2014
vn 0.0266 0.8418 -0.5392
vn 0.4591 -0.6955 0.5527
vn 0.7980 -0.1813 0.5747
vn 0.4309 -0.8781 -0.2080
vn -0.6323 0.4744 -0.6125
vn -0.0367 -0.0379 -0.9986
vn -0.0206 -0.6014 -0.7987
vn 0.2630 -0.5583 -0.7868
vn -0.3152 0.2429 -0.9174
vn -0.3915 0.1875 -0.9009
vn 0.8802 0.2444 -0.4069
vn 0.4276 0.8639 -0.2662
vn 0.8843 0.1541 -0.4408
vn -0.9341 -0.3016 0.1908
vn -0.8800 -0.0745 -0.4690
vn -0.4471 0.6007 0.6628
vn 0.7594 0.1020 0.6426
vn -0.5395 0.7271 -0.4246
vn 0.3272 0.9267 -0.1849
vn 0.6797 0.6909 0.2464
vn -0.9207 0.3505 0.1716
vn -0.2877 0.8926 -0.3471
vn -0.8350 0.2788 -0.4744
vn 0.9638 -0.2560 -0.0747
vn 0.8094 -0.2929 0.5090
vn -0.1668 0.9687 -0.1838
vn 0.5502 -0.5799 0.6009
vn -0.9054 0.2138 -0.3669
vn 0.0626 -0.9195 0.3880
vn -0.3785 -0.8913 0.2494
vn -0.4104 0.1786 -0.8943
vn 0.1732 0.9843 -0.0349
vn 0.1006 -0.9909 -0.0889
vn 0.1326 -0.9905 -0.0359
vn -0.9608 0.0359 0.2750
vn 0.1372 -0.9887 0.0598
vn 0.4926 0.3887 0.7786
vn 0.5911 0.2111 0.7785
vn -0.7065 0.3379 0.6218
vn -0.8805 0.3269 0.3434
vn 0.9705 -0.1855 0.1540
vn -0.8913 0.2178 -0.3977
vn -0.5993 -0.4604 -0.6549
vn -0.7731 -0.4498 -0.4473
vn 0.5839 0.0420 -0.8107
vn -0.6830 0.6917 -0.2345
vn -0.8747 -0.1974 0.4427
vn -0.4960 -0.6472 0.5789
vn 0.5441 -0.1032 0.8326
vn -0.2060 0.3102 0.9281
vn -0.1309 0.7601 0.6365
vn -0.9186 -0.1472 0.3668
vn -0.9997 0.0105 0.0232
vn -0.8574 0.4223 -0.2940
vn 0.5770 -0.7116 0.4008
vn 0.0918 -0.9747 0.2039
vn -0.9863 -0.0726 -0.1481
vn 0.3668 0.6155 -0.6976
vn 0.4956 0.5813 -0.6454
vn 0.2598 -0.8721 -0.4147
vn -0.8086 0.4420 0.3882
vn 0.2317 0.9723 -0.0320
vn -0.8561 -0.2188 -0.4681
vn -0.7242 -0.6760 0.1365
vn -0.4969 -0.7656 0.4086
vn 0.1557 -0.8494 0.5043
vn 0.3536 -0.9035 0.2424
vn -0.1952 -0.3571 0.9135
vn 0.0583 0.8931 0.4460
vn 0.7334 -0.6109 -0.2982
vn 0.6256 -0.2416 -0.7418
vn 0.1034 0.0384 -0.9939
vn -0.5234 -0.3131 -0.7925
vn 0.7843 -0.5037 -0.3621
vn 0.5331 0.1148 -0.8382
vn -0.4598 0.3470 -0.8174
vn 0.2216 -0.7183 -0.6595
vn -0.8093 -0.5628 0.1679
vn 0.5391 -0.2975 -0.7880
vn 0.1101 0.0572 -0.9923
vn -0.5215 0.6084 -0.5983
vn -0.7621 -0.0281 -0.6468
vn -0.4927 -0.3747 -0.7854
vn -0.1719 -0.8517 -0.4951
vn -0.0520 0.4039 -0.9133
vn -0.2045 -0.9765 -0.0675
vn -0.7887 -0.5911 -0.1691
vn -0.3258 -0.9440 -0.0517
vn -0.1116 -0.9759 0.1875
vn 0.2352 -0.9495 -0.2078
vn 0.3011 -0.7282 -0.6157
vn 0.3917 -0.7666 -0.5088
vn 0.0582 -0.9071 -0.4169
vn 0.3809 0.8471 -0.3706
vn 0.1529 0.9790 -0.1347
vn -0.0538 -0.7199 -0.6920
vn 0.0398 0.8637 0.5024
vn -0.3522 0.7092 0.6107
vn -0.2776 -0.5480 -0.7891
vn -0.4977 -0.8218 -0.2774
vn -0.7394 0.4363 0.5127
vn -0.3367 0.9149 -0.2227
vn -0.0176 0.0840 -0.9963
vn -0.3304 -0.8316 -0.4465
vn -0.2982 -0.9540 -0.0316
vn -0.5307 -0.1613 0.8321
vn -0.4261 -0.2690 0.8637
vn 0.0031 0.7042 -0.7100
vn -0.3371 0.0572 -0.9397
vn -0.4852 0.6318 -0.6045
vn -0.4726 0.0180 -0.8811
vn -0.0985 -0.1861 -0.9776
vn -0.0821 0.4225 -0.9026
vn 0.0686 0.6511 -0.7559
vn 0.1482 -0.5015 -0.8524
vn -0.0419 -0.2311 -0.9720
vn -0.2129 0.2369 -0.9479
vn 0.0687 -0.1915 -0.9791
vn -0.2923 -0.3612 -0.8855
vn -0.3520 -0.3128 -0.8822
vn -0.3504 -0.2725 -0.8961
vn -0.6739 -0.0387 -0.7378
vn -0.0839 -0.9801 -0.1797
vn -0.5755 0.7539 0.3169
vn -0.2323 -0.9726 -0.0049
vn -0.8131 -0.5601 0.1587
vn 0.0602 0.0915 -0.9940
vn -0.3704 -0.9159 -0.1545
vn -0.6061 -0.0996 -0.7892
vn -0.8847 0.2733 0.3777
vn -0.0676 -0.1545 -0.9857
vn 0.7006 -0.0325 -0.7128
vn -0.2934 0.5852 -0.7560
vn -0.4072 0.7702 -0.4910
vn -0.4886 -0.8181 -0.3031
vn -0.6441 0.0334 -0.7642
vn -0.7476 0.4700 -0.4694
vn -0.4462 -0.8685 -0.2161
vn -0.2062 0.9745 0.0890
vn -0.7525 0.0103 -0.6585
vn -0.7360 0.0943 -0.6704
vn 0.3237 -0.8385 -0.4382
vn 0.1840 0.9822 0.0374
vn -0.8351 0.4442 -0.3246
vn -0.8595 0.4036 0.3136
vn -0.9164 -0.3565 0.1820
vn 0.7528 0.5830 -0.3057
vn 0.6909 0.7085 -0.1442
vn 0.4727 -0.3298 -0.8172
vn 0.2587 0.4215 -0.8692
vn -0.1662 0.9594 0.2280
vn -0.1851 0.9804 0.0666
vn -0.7670 0.5646 -0.3049
vn -0.5633 -0.7158 -0.4126
s 1
usemtl mtl1.1044
f 3//1 1//2 2//3
f 2//3 4//4 5//5
f 8//6 2//3 5//5
f 3//1 9//7 7//8
f 2//3 1//2 4//4
f 4//4 1//2 6//9
f 1//2 7//8 6//9
f 3//1 7//8 1//2
f 12//10 9//7 3//1
f 7//8 9//7 10//11
f 11//12 7//8 10//11
f 10//11 9//7 306//13
f 8//6 4//4 6//9
f 14//14 6//9 7//8
f 2//3 12//10 3//1
f 15//15 2//3 8//6
f 6//9 14//14 13//16
f 7//8 11//12 14//14
f 2//3 23//17 12//10
f 22//18 2//3 15//15
f 18//19 14//14 11//12
f 13//16 8//6 6//9
f 8//6 13//16 19//20
f 310//21 13//16 14//14
f 23//17 2//3 22//18
f 23//17 16//22 307//23
f 16//22 25//24 308//25
f 27//26 17//27 8//6
f 18//19 21//28 14//14
f 26//29 21//28 18//19
f 27//26 8//6 19//20
f 311//30 309//31 20//32
f 14//14 21//28 20//32
f 17//27 27//26 24//33
f 26//29 25//24 16//22
f 20//32 27//26 311//30
f 20//32 35//34 27//26
f 35//34 20//32 21//28
f 39//35 40//36 29//37
f 31//38 30//39 28//40
f 31//38 32//41 30//39
f 46//42 43//43 29//37
f 30//39 32//41 33//44
f 33//44 44//45 49//46
f 46//42 22//18 34//47
f 34//47 22//18 15//15
f 22//18 51//48 23//17
f 51//48 16//22 23//17
f 26//29 16//22 51//48
f 70//49 26//29 51//48
f 17//27 15//15 8//6
f 24//33 27//26 35//34
f 36//50 24//33 35//34
f 37//51 21//28 52//52
f 21//28 38//53 35//34
f 21//28 37//51 38//53
f 62//54 40//36 39//35
f 29//37 40//36 63//55
f 28//40 65//56 42//57
f 41//58 65//56 64//59
f 41//58 44//45 28//40
f 44//45 31//38 28//40
f 31//38 44//45 33//44
f 39//35 29//37 43//43
f 46//42 34//47 43//43
f 29//37 45//60 46//42
f 47//61 30//39 33//44
f 43//43 34//47 44//45
f 44//45 34//47 50//62
f 48//63 47//61 33//44
f 48//63 49//46 44//45
f 51//48 22//18 46//42
f 15//15 50//62 34//47
f 72//64 15//15 17//27
f 24//33 73//65 17//27
f 26//29 52//52 21//28
f 74//66 77//67 26//29
f 73//65 24//33 85//68
f 26//29 77//67 52//52
f 85//68 24//33 36//50
f 88//69 36//50 58//70
f 53//71 91//72 56//73
f 52//52 96//74 37//51
f 59//75 54//76 55//77
f 58//70 36//50 38//53
f 96//74 89//78 58//70
f 58//70 38//53 96//74
f 96//74 38//53 37//51
f 54//76 59//75 60//79
f 97//80 54//76 60//79
f 312//81 61//81 313//81
f 39//35 66//82 99//83
f 62//54 39//35 99//83
f 62//54 99//83 63//55
f 63//55 126//84 29//37
f 28//40 30//39 65//56
f 64//59 66//82 41//58
f 39//35 43//43 66//82
f 41//58 66//82 44//45
f 66//82 43//43 44//45
f 46//42 45//60 67//85
f 100//86 46//42 67//85
f 50//62 48//63 44//45
f 48//63 50//62 120//87
f 46//42 100//86 51//48
f 104//88 51//48 100//86
f 48//63 120//87 47//61
f 69//89 50//62 314//90
f 15//15 68//91 50//62
f 102//92 68//91 15//15
f 74//66 26//29 71//93
f 15//15 78//94 79//95
f 15//15 72//64 78//94
f 108//96 78//94 83//97
f 72//64 80//98 78//94
f 73//65 80//98 72//64
f 80//98 73//65 84//99
f 73//65 85//68 81//100
f 89//78 96//74 75//101
f 75//101 87//102 89//78
f 77//67 82//103 52//52
f 83//97 80//98 84//99
f 92//104 53//71 83//97
f 83//97 84//99 92//104
f 53//71 108//96 83//97
f 84//99 81//100 94//105
f 84//99 73//65 81//100
f 317//106 113//107 93//108
f 318//109 36//50 88//69
f 86//110 318//109 88//69
f 81//100 85//68 114//111
f 87//102 88//69 89//78
f 52//52 82//103 96//74
f 75//101 96//74 82//103
f 90//112 112//113 54//76
f 320//114 56//73 319//115
f 56//73 320//114 93//108
f 320//114 316//116 93//108
f 58//70 95//117 88//69
f 88//69 95//117 89//78
f 55//77 54//76 53//71
f 93//108 57//118 56//73
f 116//119 117//120 93//108
f 54//76 97//80 90//112
f 97//80 60//79 98//121
f 125//122 97//80 98//121
f 57//118 93//108 117//120
f 98//121 60//79 57//118
f 30//39 192//123 65//56
f 45//60 29//37 126//84
f 100//86 119//124 104//88
f 128//125 47//61 120//87
f 120//87 50//62 101//126
f 101//126 50//62 69//89
f 103//127 68//91 102//92
f 103//127 101//126 315//128
f 71//93 26//29 70//49
f 105//129 74//66 71//93
f 108//96 107//130 15//15
f 107//130 102//92 15//15
f 75//101 106//131 109//132
f 108//96 53//71 111//133
f 107//130 108//96 111//133
f 79//95 108//96 15//15
f 109//132 87//102 75//101
f 53//71 110//134 111//133
f 113//107 87//102 109//132
f 53//71 112//113 110//134
f 81//100 114//111 321//135
f 54//76 112//113 53//71
f 93//108 113//107 116//119
f 97//80 124//136 90//112
f 124//136 97//80 125//122
f 117//120 98//121 57//118
f 125//122 98//121 117//120
f 126//84 63//55 99//83
f 163//137 65//56 192//123
f 136//138 64//59 65//56
f 67//85 45//60 164//139
f 128//125 30//39 47//61
f 103//127 118//140 101//126
f 101//126 118//140 127//141
f 103//127 119//124 118//140
f 118//140 322//142 100//86
f 138//143 120//87 101//126
f 102//92 119//124 103//127
f 119//124 102//92 104//88
f 109//132 104//88 139//144
f 102//92 139//144 104//88
f 71//93 70//49 104//88
f 104//88 121//145 71//93
f 109//132 121//145 104//88
f 123//146 323//147 109//132
f 123//146 106//131 122//148
f 121//145 324//149 71//93
f 123//146 109//132 106//131
f 130//150 113//107 129//151
f 129//151 113//107 109//132
f 115//152 111//133 110//134
f 115//152 90//112 124//136
f 99//83 66//82 135//153
f 137//154 66//82 64//59
f 66//82 137//154 135//153
f 30//39 128//125 192//123
f 118//140 100//86 67//85
f 101//126 127//141 138//143
f 139//144 102//92 158//155
f 109//132 140//156 129//151
f 107//130 158//155 102//92
f 144//157 130//150 141//158
f 326//159 130//150 129//151
f 148//160 158//155 111//133
f 158//155 107//130 111//133
f 116//119 149//161 117//120
f 116//119 130//150 149//161
f 113//107 130//150 116//119
f 115//152 124//136 111//133
f 148//160 111//133 124//136
f 124//136 125//122 131//162
f 117//120 149//161 133//163
f 132//164 131//162 125//122
f 132//164 152//165 131//162
f 117//120 325//166 125//122
f 132//164 325//166 117//120
f 117//120 133//163 132//164
f 132//164 133//163 153//167
f 99//83 135//153 126//84
f 136//138 137//154 64//59
f 127//141 67//85 164//139
f 67//85 127//141 118//140
f 140//156 142//168 129//151
f 129//151 142//168 143//169
f 139//144 140//156 109//132
f 130//150 144//157 146//170
f 139//144 327//171 140//156
f 139//144 145//172 328//173
f 130//150 146//170 149//161
f 159//174 146//170 147//175
f 150//176 148//160 124//136
f 124//136 131//162 150//176
f 149//161 151//177 133//163
f 152//165 150//176 131//162
f 153//167 152//165 132//164
f 134//178 152//165 153//167
f 134//178 154//179 152//165
f 153//167 155//180 156//181
f 153//167 156//181 134//178
f 154//179 134//178 156//181
f 154//179 156//181 162//182
f 65//56 163//137 136//138
f 136//138 163//137 200//183
f 164//139 45//60 126//84
f 139//144 158//155 157//184
f 145//172 159//174 144//157
f 147//175 144//157 159//174
f 157//184 145//172 139//144
f 157//184 159//174 145//172
f 157//184 158//155 167//185
f 159//174 149//161 146//170
f 168//186 159//174 157//184
f 160//187 148//160 150//176
f 151//177 149//161 159//174
f 329//188 159//174 170//189
f 152//165 160//187 150//176
f 153//167 133//163 151//177
f 151//177 155//180 153//167
f 156//181 161//190 162//182
f 156//181 155//180 161//190
f 126//84 261//191 164//139
f 127//141 164//139 193//192
f 177//193 165//194 157//184
f 168//186 157//184 165//194
f 182//195 170//189 169//196
f 170//189 159//174 169//196
f 171//197 166//198 160//187
f 171//197 160//187 172//199
f 172//199 160//187 152//165
f 173//200 329//188 170//189
f 152//165 188//201 187//202
f 174//203 152//165 154//179
f 188//201 152//165 174//203
f 173//200 155//180 151//177
f 329//188 173//200 151//177
f 174//203 154//179 189//204
f 162//182 189//204 154//179
f 162//182 173//200 175//205
f 173//200 161//190 155//180
f 162//182 161//190 173//200
f 190//206 176//207 135//153
f 176//207 261//191 126//84
f 200//183 137//154 136//138
f 200//183 191//208 137//154
f 201//209 138//143 127//141
f 138//143 201//209 204//210
f 177//193 198//211 165//194
f 166//198 195//212 167//185
f 179//213 331//213 334//213
f 335//214 182//195 178//215
f 335//214 183//216 182//195
f 198//211 180//217 333//218
f 209//219 181//220 166//198
f 182//195 336//221 170//189
f 183//216 170//189 336//221
f 185//222 209//219 166//198
f 185//222 166//198 171//197
f 188//201 170//189 184//223
f 171//197 186//224 185//222
f 186//224 212//225 185//222
f 184//223 199//226 188//201
f 170//189 188//201 173//200
f 152//165 187//202 172//199
f 188//201 174//203 175//205
f 175//205 173//200 188//201
f 175//205 174//203 189//204
f 137//154 191//208 135//153
f 191//208 190//206 135//153
f 200//183 163//137 337//227
f 192//123 200//183 337//227
f 218//228 216//229 128//125
f 194//230 127//141 193//192
f 201//209 127//141 194//230
f 218//228 128//125 203//231
f 197//232 196//233 198//211
f 207//234 196//233 197//232
f 197//232 198//211 177//193
f 207//234 180//217 198//211
f 207//234 208//235 180//217
f 166//198 181//220 195//212
f 180//217 183//216 335//214
f 180//217 208//235 183//216
f 183//216 184//223 170//189
f 209//219 185//222 211//236
f 184//223 214//237 199//226
f 338//238 214//237 213//239
f 199//226 187//202 188//201
f 191//208 215//240 190//206
f 192//123 128//125 216//229
f 194//230 193//192 237//241
f 202//242 219//243 201//209
f 201//209 194//230 202//242
f 224//244 197//232 181//220
f 205//245 197//232 206//246
f 195//212 181//220 197//232
f 197//232 205//245 207//234
f 205//245 208//235 207//234
f 183//216 208//235 230//247
f 183//216 210//248 184//223
f 230//247 210//248 183//216
f 210//248 256//249 184//223
f 211//236 185//222 232//250
f 185//222 233//251 232//250
f 256//249 214//237 184//223
f 185//222 212//225 233//251
f 234//252 212//225 213//239
f 214//237 234//252 213//239
f 190//206 215//240 235//253
f 176//207 235//253 261//191
f 191//208 236//254 215//240
f 192//123 262//255 200//183
f 236//254 191//208 200//183
f 237//241 217//256 194//230
f 202//242 217//256 219//243
f 222//257 217//256 237//241
f 239//258 204//210 201//209
f 201//209 220//259 239//258
f 243//260 220//259 219//243
f 342//261 219//243 223//262
f 219//243 220//259 201//209
f 221//263 219//243 217//256
f 217//256 197//232 221//263
f 197//232 217//256 222//257
f 219//243 221//263 223//262
f 221//263 197//232 224//244
f 222//257 206//246 197//232
f 206//246 225//264 205//245
f 224//244 181//220 223//262
f 205//245 225//264 208//235
f 209//219 226//265 181//220
f 223//262 181//220 226//265
f 208//235 225//264 230//247
f 227//266 228//267 226//265
f 209//219 227//266 226//265
f 251//268 210//248 230//247
f 231//269 209//219 211//236
f 209//219 231//269 254//270
f 210//248 251//268 229//271
f 257//272 231//269 233//251
f 231//269 232//250 233//251
f 210//248 229//271 256//249
f 233//251 212//225 258//273
f 258//273 257//272 233//251
f 256//249 234//252 214//237
f 190//206 235//253 176//207
f 262//255 348//274 200//183
f 236//254 264//275 215//240
f 216//229 262//255 192//123
f 193//192 164//139 261//191
f 265//276 237//241 193//192
f 238//277 239//258 240//278
f 240//278 239//258 242//279
f 237//241 269//280 222//257
f 241//281 218//228 203//231
f 238//277 204//210 239//258
f 341//282 239//258 220//259
f 242//279 339//283 343//284
f 343//284 223//262 244//285
f 244//285 242//279 343//284
f 244//285 223//262 245//286
f 246//287 270//288 244//285
f 222//257 225//264 206//246
f 271//289 225//264 222//257
f 271//289 250//290 225//264
f 246//287 245//286 247//291
f 248//292 250//290 249//293
f 245//286 223//262 226//265
f 247//291 228//267 251//268
f 247//291 251//268 272//294
f 252//295 272//294 251//268
f 274//296 230//247 225//264
f 249//293 274//296 225//264
f 274//296 249//293 275//297
f 228//267 245//286 226//265
f 228//267 247//291 245//286
f 209//219 254//270 227//266
f 251//268 228//267 229//271
f 228//267 344//298 229//271
f 251//268 230//247 252//295
f 285//299 252//295 276//300
f 252//295 253//301 277//302
f 230//247 274//296 253//301
f 227//266 254//270 345//303
f 254//270 231//269 257//272
f 254//270 257//272 279//304
f 255//305 256//249 229//271
f 352//306 257//272 259//307
f 212//225 234//252 258//273
f 215//240 264//275 281//308
f 281//308 235//253 215//240
f 235//253 281//308 347//309
f 262//255 263//310 348//274
f 282//311 264//275 348//274
f 264//275 236//254 348//274
f 348//274 263//310 282//311
f 266//312 264//275 282//311
f 264//275 266//312 268//313
f 268//313 269//280 264//275
f 263//310 216//229 218//228
f 238//277 266//312 267//314
f 267//314 204//210 238//277
f 267//314 266//312 282//311
f 349//315 240//278 268//313
f 349//315 340//316 240//278
f 240//278 242//279 268//313
f 268//313 242//279 270//288
f 269//280 237//241 265//276
f 350//317 204//210 267//314
f 244//285 270//288 242//279
f 246//287 247//291 270//288
f 270//288 247//291 273//318
f 250//290 275//297 249//293
f 272//294 252//295 273//318
f 285//299 273//318 252//295
f 287//319 274//296 275//297
f 285//299 276//300 351//320
f 253//301 278//321 277//302
f 274//296 278//321 253//301
f 279//304 346//322 254//270
f 277//302 278//321 280//323
f 289//324 280//323 278//321
f 278//321 274//296 291//325
f 259//307 260//326 352//306
f 352//306 260//326 346//322
f 352//306 346//322 279//304
f 347//309 281//308 261//191
f 281//308 193//192 261//191
f 264//275 269//280 281//308
f 193//192 281//308 265//276
f 269//280 265//276 281//308
f 263//310 218//228 282//311
f 282//311 218//228 267//314
f 268//313 270//288 292//327
f 292//327 269//280 268//313
f 269//280 292//327 271//289
f 269//280 271//289 222//257
f 284//328 250//290 271//289
f 275//297 250//290 284//328
f 284//328 288//329 275//297
f 285//299 270//288 273//318
f 283//330 270//288 285//299
f 288//329 284//328 289//324
f 284//328 286//331 289//324
f 287//319 288//329 274//296
f 290//332 274//296 288//329
f 288//329 289//324 290//332
f 285//299 351//320 280//323
f 286//331 285//299 280//323
f 286//331 280//323 289//324
f 289//324 278//321 290//332
f 291//325 274//296 290//332
f 283//330 293//333 270//288
f 271//289 294//334 284//328
f 284//328 354//335 286//331
f 285//299 286//331 353//336
f 292//327 270//288 297//337
f 296//338 294//334 271//289
f 295//339 284//328 294//334
f 294//334 298//340 295//339
f 299//341 295//339 298//340
f 299//341 283//330 286//331
f 295//339 286//331 354//335
f 283//330 353//336 286//331
f 292//327 300//342 271//289
f 271//289 300//342 355//343
f 293//333 283//330 299//341
f 295//339 299//341 286//331
f 301//344 292//327 297//337
f 293//333 299//341 297//337
f 302//345 292//327 301//344
f 292//327 302//345 300//342
f 298//340 357//346 303//347
f 302//345 303//347 300//342
f 302//345 305//348 303//347
f 305//348 299//341 298//340
f 298//340 303//347 305//348
f 304//349 297//337 299//341
f 304//349 301//344 297//337
f 299//341 305//348 304//349
f 304//349 305//348 302//345
f 302//345 301//344 304//349
l 330 332
l 105 76
l 300 356
l 225 248
