# Blender 4.0.2
# www.blender.org
mtllib lunate_l.mtl
o lunate_l.002
v 0.000221 -0.007321 0.003554
v -0.000069 -0.006621 0.004881
v -0.001411 -0.006354 0.003738
v -0.000934 -0.006661 0.002938
v 0.000950 -0.007484 0.004035
v 0.001068 -0.007365 0.004586
v -0.001808 -0.006254 0.002990
v -0.001360 -0.005170 0.005138
v 0.000864 -0.007410 0.003678
v -0.000571 -0.006167 0.002012
v 0.001329 -0.006726 0.005597
v -0.000525 -0.004858 0.006021
v -0.002613 -0.005367 0.003403
v 0.001230 -0.007440 0.003759
v 0.001588 -0.007473 0.004379
v 0.002916 -0.006787 0.005632
v -0.002128 -0.003092 0.005429
v 0.001665 -0.005633 0.006554
v 0.003136 -0.007099 0.004392
v 0.003527 -0.007024 0.004829
v -0.000949 -0.005367 0.001110
v 0.000892 -0.004905 0.001897
v 0.003831 -0.005517 0.003674
v 0.003777 -0.006082 0.003887
v -0.003057 -0.004125 0.003537
v -0.000458 -0.003394 0.006524
v 0.004435 -0.006236 0.005224
v 0.003611 -0.004906 0.006643
v -0.003049 -0.005166 0.001657
v -0.002532 -0.005544 0.001915
v -0.003530 -0.004391 0.001473
v -0.003672 -0.002877 0.002369
v -0.002955 -0.004489 0.000156
v -0.001990 -0.004662 0.000050
v -0.001127 -0.004487 -0.000206
v -0.003069 -0.002160 0.004062
v -0.002422 -0.001714 0.005286
v -0.001853 -0.001776 0.005977
v 0.000717 -0.001905 0.007159
v 0.002143 -0.003473 0.007357
v 0.003246 -0.003668 0.007121
v -0.003867 -0.003472 0.001831
v -0.003099 -0.005089 0.001122
v -0.000439 -0.004302 0.000109
v 0.001731 -0.003547 0.000914
v 0.003374 -0.003616 0.001999
v 0.003888 -0.005817 0.003784
v 0.003982 -0.005567 0.003660
v 0.004386 -0.006339 0.004508
v -0.003059 -0.001202 0.004599
v -0.001447 -0.000571 0.006324
v 0.004360 -0.003894 0.006511
v -0.004419 -0.003202 0.000879
v -0.001703 -0.004342 -0.001145
v 0.005120 -0.004003 0.002962
v 0.004134 -0.006066 0.004011
v -0.003706 -0.002007 0.002712
v -0.002290 -0.000214 0.004841
v -0.002010 -0.000217 0.005677
v 0.001340 -0.000535 0.007202
v 0.000025 0.001023 0.006587
v 0.002351 -0.000774 0.007438
v 0.003154 -0.001819 0.007298
v 0.005672 -0.005091 0.004755
v 0.005867 -0.004145 0.005532
v -0.004871 -0.002668 0.001601
v -0.001966 -0.004362 -0.002470
v -0.000750 -0.003938 -0.002192
v -0.003044 -0.004113 -0.001870
v 0.001312 -0.002918 -0.001307
v 0.002434 -0.002481 -0.000724
v 0.005717 -0.002523 0.002026
v 0.005507 -0.004911 0.003903
v -0.004457 -0.001378 0.002693
v -0.004438 -0.000485 0.003776
v -0.003779 0.000161 0.004530
v -0.002394 0.000159 0.005017
v 0.001459 -0.000869 0.007262
v -0.001407 0.000910 0.006030
v 0.002201 0.000541 0.007172
v 0.001487 -0.000820 0.007264
v 0.005844 -0.003085 0.005817
v 0.004901 -0.001705 0.006281
v -0.004924 -0.002199 0.002061
v 0.002260 -0.002583 -0.003002
v 0.003699 -0.002508 0.000519
v 0.005270 -0.002349 0.001338
v 0.006329 -0.003810 0.004081
v -0.004434 0.000582 0.004072
v -0.002200 0.000965 0.005471
v -0.000250 0.002972 0.005855
v 0.001633 0.002554 0.006250
v 0.003562 0.001372 0.006687
v 0.006412 -0.003526 0.005000
v 0.005938 -0.002192 0.005657
v -0.004119 -0.003258 -0.000932
v -0.001833 -0.004452 -0.003651
v -0.000172 -0.004295 -0.004108
v -0.003007 -0.003892 -0.004001
v -0.003654 -0.003466 -0.003010
v 0.004885 -0.002122 0.000449
v 0.006578 -0.003060 0.004057
v -0.005241 -0.000156 0.002850
v -0.002201 0.002881 0.005041
v 0.001098 0.004863 0.004757
v 0.002495 0.002764 0.006219
v 0.006559 -0.002520 0.004602
v 0.004673 0.001179 0.006126
v 0.005609 -0.000646 0.005285
v -0.006666 -0.000071 -0.000055
v -0.005931 -0.001473 0.001570
v -0.000824 -0.005043 -0.005247
v 0.003428 -0.002263 -0.002775
v 0.004149 -0.002004 -0.001251
v 0.004356 -0.001830 -0.002754
v 0.005721 -0.001066 0.001071
v 0.006544 -0.001187 0.003306
v -0.005643 0.000742 0.002568
v -0.004647 0.001527 0.003539
v 0.004050 0.002623 0.005909
v 0.005542 0.001189 0.004821
v -0.006131 -0.000400 -0.002498
v 0.000567 -0.005494 -0.005938
v -0.002139 -0.004487 -0.004953
v -0.003605 -0.002757 -0.004486
v -0.003209 -0.003079 -0.005929
v 0.004446 -0.001827 -0.001586
v 0.005138 -0.001308 -0.000378
v 0.005646 0.000568 0.001261
v 0.005970 0.000406 0.002692
v -0.005719 -0.001308 0.002064
v -0.006744 0.000424 0.001883
v -0.005853 0.002839 0.001427
v -0.003903 0.004004 0.002474
v 0.003576 0.003413 0.005342
v 0.002881 0.004478 0.004811
v 0.005740 0.000587 0.004346
v 0.005107 0.003158 0.004317
v -0.006841 -0.000276 0.001258
v 0.002376 -0.005268 -0.006820
v 0.003172 -0.004200 -0.006139
v 0.000124 -0.005896 -0.006987
v 0.003771 -0.002950 -0.004829
v -0.001482 -0.005094 -0.006636
v -0.002631 -0.003885 -0.006375
v -0.005913 -0.000133 -0.003595
v -0.004176 -0.001226 -0.005241
v -0.003771 -0.002299 -0.006071
v 0.004909 -0.001182 -0.001429
v 0.004251 -0.002076 -0.003551
v 0.005005 0.000239 -0.000844
v 0.005617 0.001736 0.003048
v -0.001841 0.003725 0.004744
v -0.002973 0.005192 0.002155
v -0.006586 0.001116 0.001599
v -0.005652 0.004269 0.000308
v -0.001045 0.005325 0.003565
v 0.003801 0.004315 0.004250
v 0.004060 0.003211 0.004929
v 0.000315 0.005341 0.003949
v 0.002124 0.005294 0.003532
v -0.007044 0.001222 -0.001429
v -0.006976 0.000472 0.000814
v 0.001469 -0.005628 -0.007058
v -0.001279 -0.005351 -0.007032
v -0.003911 -0.001769 -0.006227
v 0.004588 -0.001119 -0.003445
v 0.004793 0.001932 -0.000744
v 0.005108 0.001422 0.001595
v -0.006833 0.002510 0.000528
v -0.002512 0.005935 0.001054
v -0.004994 0.004944 0.000026
v 0.004307 0.003616 0.004390
v 0.000945 0.005633 0.002867
v 0.003655 0.004769 0.003345
v 0.005465 0.003002 0.002487
v -0.006654 0.002778 -0.002359
v -0.007104 0.002376 -0.000949
v -0.006973 0.000268 0.001370
v -0.005797 0.000845 -0.004195
v -0.006281 0.001074 -0.003426
v 0.003087 -0.005347 -0.007276
v 0.003750 -0.003363 -0.005814
v 0.003733 -0.004175 -0.007300
v 0.000126 -0.005639 -0.007398
v -0.002615 -0.003521 -0.006711
v -0.004077 -0.000446 -0.005943
v -0.005643 0.000638 -0.004334
v -0.004125 0.001398 -0.006209
v -0.002662 -0.002596 -0.006532
v 0.004413 -0.001799 -0.004302
v 0.004410 0.002562 -0.002201
v -0.000771 0.005670 0.002859
v -0.006679 0.003516 -0.000790
v 0.000301 0.005740 0.002201
v 0.003841 0.004879 0.001791
v 0.005165 0.003407 0.003419
v 0.000854 -0.005584 -0.007545
v 0.002532 -0.005632 -0.007575
v 0.001801 -0.005565 -0.007589
v -0.001203 -0.005128 -0.007354
v -0.003690 -0.001080 -0.006395
v -0.005600 0.000965 -0.004405
v -0.004806 0.002334 -0.005274
v 0.003974 -0.002562 -0.005312
v 0.004630 -0.000639 -0.003136
v 0.004095 0.001921 -0.003051
v 0.005009 0.002104 0.001500
v -0.005586 0.004689 -0.001308
v -0.006122 0.003903 -0.002183
v -0.003891 0.005624 -0.001386
v -0.005224 0.004848 -0.001919
v 0.001453 0.005510 -0.000616
v 0.004485 0.004444 0.000445
v 0.005093 0.004025 0.002363
v -0.005533 0.003131 -0.004172
v 0.003696 -0.004220 -0.007982
v 0.002984 -0.005396 -0.007867
v 0.003865 -0.002691 -0.007338
v -0.000216 -0.004237 -0.007809
v -0.001910 -0.003750 -0.007202
v -0.003284 -0.001319 -0.006618
v -0.003641 -0.000997 -0.006408
v -0.004404 0.002883 -0.005332
v -0.004424 0.002928 -0.005298
v -0.003396 0.001557 -0.006717
v -0.001550 -0.002164 -0.007077
v 0.004595 -0.001023 -0.003507
v 0.003970 0.000621 -0.004414
v -0.001274 0.006151 -0.000025
v -0.004659 0.005174 -0.001730
v -0.004728 0.005125 -0.001798
v 0.004638 0.004279 0.000383
v 0.001485 -0.005265 -0.007818
v 0.003364 -0.004406 -0.008404
v 0.002417 -0.005337 -0.008140
v 0.003812 -0.001117 -0.005452
v 0.000769 -0.003442 -0.008061
v -0.003170 -0.000082 -0.006679
v -0.003453 -0.001159 -0.006494
v -0.004405 0.003381 -0.005056
v -0.004161 0.003350 -0.005208
v -0.003289 0.003824 -0.005322
v 0.003842 0.003465 -0.002890
v 0.004573 0.003725 -0.000465
v -0.001931 0.005947 -0.001792
v -0.004415 0.005253 -0.001967
v -0.004628 0.005075 -0.002302
v -0.000656 0.005578 -0.003152
v 0.002086 0.005136 -0.001322
v -0.004667 0.004447 -0.003631
v 0.003279 -0.001573 -0.008167
v 0.003226 -0.000215 -0.007237
v 0.003063 -0.000252 -0.007545
v -0.003167 -0.001041 -0.006729
v -0.004207 0.003672 -0.004943
v -0.001559 0.003222 -0.006324
v 0.003023 0.001228 -0.005966
v 0.003090 0.002922 -0.004432
v -0.001955 0.005450 -0.003349
v -0.001598 0.005619 -0.003105
v -0.004426 0.005117 -0.002483
v 0.001695 0.005198 -0.001678
v 0.000531 0.005151 -0.003314
v 0.002545 0.004419 -0.003214
v 0.001943 0.005102 -0.001686
v 0.002263 -0.003882 -0.008663
v 0.002781 -0.003931 -0.008728
v 0.002983 0.000036 -0.007259
v 0.002681 -0.001166 -0.008495
v -0.000352 -0.002574 -0.007574
v -0.000604 -0.001842 -0.007173
v -0.002166 -0.000300 -0.007010
v -0.002121 0.000660 -0.006855
v -0.001279 0.001658 -0.006973
v 0.002080 0.002604 -0.005972
v -0.003302 0.005017 -0.003705
v 0.000533 0.004736 -0.004394
v 0.002992 -0.002878 -0.008691
v 0.002810 -0.000018 -0.007702
v 0.002012 0.001051 -0.007705
v 0.001943 -0.000277 -0.008310
v 0.002315 0.000140 -0.008034
v 0.002171 -0.001662 -0.008677
v 0.000819 -0.001144 -0.008118
v -0.000430 -0.001320 -0.007457
v -0.000414 -0.000899 -0.007493
v -0.001208 -0.000386 -0.007102
v -0.001646 0.001181 -0.006824
v -0.000246 0.001735 -0.007083
v 0.000352 0.001906 -0.007108
v 0.000590 0.003671 -0.005832
v -0.001060 0.004667 -0.004968
v -0.001810 0.005426 -0.003445
v 0.002811 0.000313 -0.007311
v -0.001644 0.000061 -0.006838
v 0.000802 0.000140 -0.007609
v 0.001662 0.000587 -0.007971
v 0.000273 0.000582 -0.006837
v -0.000868 0.000164 -0.006773
v -0.000144 0.000568 -0.006589
v -0.001267 0.000514 -0.006419
v -0.000807 0.001069 -0.006894
v 0.000801 0.001003 -0.007422
v 0.000497 0.000662 -0.007164
v -0.000772 0.000563 -0.006686
v -0.000078 0.001276 -0.007045
v -0.000007 0.000999 -0.006464
vn -0.2628 -0.9511 -0.1622
vn -0.4599 -0.7060 0.5385
vn -0.5618 -0.7601 0.3264
vn -0.3615 -0.8900 -0.2779
vn -0.2228 -0.9649 0.1389
vn -0.2401 -0.8816 0.4063
vn -0.5613 -0.8275 -0.0102
vn -0.6257 -0.4710 0.6218
vn 0.1597 -0.1954 -0.9676
vn 0.0221 -0.7519 -0.6589
vn 0.2436 -0.8046 -0.5415
vn -0.2118 -0.7082 0.6735
vn -0.4690 -0.4000 0.7874
vn -0.7835 -0.5296 0.3251
vn 0.1839 -0.7420 0.6447
vn 0.0943 -0.9846 0.1473
vn -0.7263 -0.2213 0.6507
vn -0.1325 -0.4746 0.8702
vn 0.3552 -0.8375 -0.4152
vn 0.4263 -0.8956 0.1270
vn -0.4361 -0.8649 -0.2485
vn 0.0020 -0.7971 -0.6039
vn 0.4143 -0.6102 -0.6753
vn 0.1808 -0.4698 -0.8641
vn 0.2981 -0.5220 -0.7991
vn -0.8766 -0.2689 0.3990
vn -0.4297 -0.1977 0.8811
vn 0.5925 -0.6743 0.4408
vn 0.3291 -0.3957 0.8574
vn -0.0505 -0.1935 0.9798
vn -0.7516 -0.6564 0.0652
vn -0.8517 -0.4789 0.2127
vn -0.8564 -0.2318 0.4613
vn -0.4435 -0.8334 -0.3299
vn -0.1109 -0.9196 -0.3768
vn 0.2600 -0.8895 -0.3758
vn -0.8023 -0.0222 0.5965
vn -0.8217 -0.2825 0.4950
vn -0.6368 -0.0660 0.7682
vn 0.3029 -0.1785 0.9362
vn -0.6384 -0.5172 0.5701
vn -0.4913 -0.8028 -0.3378
vn 0.4236 -0.7763 -0.4668
vn 0.3970 -0.7713 -0.4975
vn 0.3088 -0.6956 -0.6487
vn 0.0960 -0.4266 -0.8993
vn 0.5957 -0.7467 -0.2960
vn -0.6170 -0.1742 0.7674
vn -0.2907 -0.0263 0.9564
vn -0.5270 0.0490 0.8484
vn 0.4776 -0.1571 0.8644
vn -0.7798 -0.6256 -0.0247
vn 0.0521 -0.9850 -0.1645
vn 0.3271 -0.6089 -0.7226
vn 0.0602 -0.4379 -0.8970
vn 0.3284 -0.6853 -0.6500
vn -0.6878 -0.5022 0.5242
vn -0.5585 -0.2092 0.8027
vn -0.8349 0.0017 0.5504
vn -0.2672 0.2476 0.9313
vn -0.2430 0.1387 0.9601
vn 0.0573 0.1024 0.9931
vn 0.3328 0.0066 0.9430
vn 0.7919 -0.6029 0.0970
vn 0.6979 -0.3571 0.6208
vn -0.7205 -0.6523 0.2353
vn 0.0146 -0.9971 0.0745
vn 0.3794 -0.9232 0.0611
vn -0.4564 -0.8875 -0.0634
vn 0.4324 -0.8965 -0.0964
vn 0.3435 -0.9196 -0.1906
vn 0.7393 -0.4312 -0.5172
vn 0.6325 -0.5908 -0.5010
vn -0.5680 -0.5064 0.6488
vn -0.7124 -0.3487 0.6090
vn -0.5720 -0.3117 0.7587
vn -0.5259 -0.0977 0.8450
vn -0.0128 0.2724 0.9621
vn -0.2196 0.0653 0.9734
vn -0.4706 0.2543 0.8449
vn -0.2012 0.0908 0.9753
vn 0.6572 -0.0459 0.7523
vn 0.9193 -0.2046 0.3362
vn 0.5545 0.0915 0.8271
vn -0.5182 -0.5064 0.6893
vn 0.2763 -0.8730 -0.4018
vn 0.6075 -0.6064 -0.5131
vn 0.8755 -0.4184 -0.2416
vn -0.6773 0.0346 0.7349
vn -0.5808 0.1033 0.8075
vn -0.2412 0.4383 0.8659
vn -0.0986 0.4398 0.8927
vn 0.3121 0.2893 0.9049
vn 0.7467 0.1690 0.6433
vn -0.7320 -0.6747 -0.0943
vn -0.0467 -0.9905 0.1290
vn -0.5534 -0.8329 0.0072
vn 0.2854 -0.8587 0.4257
vn -0.7170 -0.6782 -0.1615
vn -0.7294 -0.6627 -0.1694
vn 0.3339 -0.9080 0.2531
vn 0.5105 -0.7648 -0.3931
vn 0.9696 -0.1868 -0.1580
vn -0.6699 -0.2640 0.6939
vn -0.5133 0.3598 0.7792
vn -0.0112 0.7571 0.6532
vn 0.0762 0.5093 0.8572
vn 0.9569 0.0863 0.2772
vn 0.7708 0.1834 0.6101
vn 0.6499 0.2270 0.7254
vn -0.8653 -0.4839 -0.1305
vn -0.7718 -0.6165 0.1557
vn -0.1611 -0.9191 0.3596
vn 0.3483 -0.9177 0.1912
vn 0.7121 -0.7021 -0.0025
vn 0.3966 -0.9107 -0.1152
vn 0.9275 -0.0917 -0.3625
vn 0.9884 0.1265 -0.0843
vn -0.6859 0.3128 0.6571
vn -0.6801 0.1445 0.7188
vn 0.2900 0.7436 0.6025
vn 0.4552 0.5368 0.7104
vn 0.9015 0.2425 0.3586
vn -0.8450 -0.4941 -0.2045
vn 0.1703 -0.8613 0.4787
vn -0.8264 -0.5208 -0.2140
vn -0.7874 -0.4920 -0.3714
vn 0.6534 -0.7552 -0.0522
vn 0.7679 -0.6206 0.1585
vn 0.8976 -0.3154 -0.3079
vn 0.9383 0.2861 -0.1943
vn 0.9325 0.2821 -0.2257
vn -0.6128 -0.4391 0.6570
vn -0.7812 0.0604 0.6213
vn -0.6626 0.4399 0.6062
vn -0.5919 0.5418 0.5967
vn -0.4590 0.5570 0.6922
vn 0.4512 0.6176 0.6442
vn 0.9541 0.2686 0.1324
vn 0.7354 0.5602 0.3812
vn -0.8832 -0.4486 0.1369
vn 0.3081 -0.7811 0.5431
vn 0.5703 -0.6693 0.4761
vn -0.1053 -0.9912 -0.0797
vn 0.7007 -0.6590 0.2732
vn -0.6560 -0.7503 0.0814
vn -0.7811 -0.5548 -0.2866
vn -0.8284 -0.3809 -0.4108
vn -0.8841 -0.3080 -0.3514
vn -0.7635 -0.4370 -0.4755
vn 0.9632 0.0785 -0.2572
vn -0.4854 0.7258 0.4875
vn -0.7754 0.3153 0.5472
vn -0.6661 0.6436 0.3768
vn -0.2862 0.7920 0.5393
vn 0.5446 0.7098 0.4467
vn 0.5151 0.6655 0.5402
vn -0.0237 0.8856 0.4639
vn 0.2234 0.9400 0.2577
vn 0.9764 0.1929 -0.0974
vn -0.9692 -0.1596 -0.1877
vn -0.9975 -0.0581 0.0411
vn 0.1611 -0.9792 0.1234
vn -0.5707 -0.7947 -0.2067
vn -0.7589 -0.2392 -0.6056
vn 0.9461 -0.2636 -0.1881
vn 0.9718 -0.2214 -0.0812
vn 0.9680 0.1478 -0.2029
vn 0.9256 0.3289 -0.1874
vn -0.8639 0.3313 0.3794
vn -0.2705 0.9391 0.2121
vn -0.5415 0.8077 0.2333
vn 0.5559 0.6168 0.5572
vn 0.1440 0.9796 0.1400
vn 0.4600 0.8555 0.2378
vn 0.9828 0.1670 -0.0793
vn -0.9001 0.2567 -0.3520
vn -0.8936 -0.0572 -0.4451
vn -0.9833 0.1745 -0.0522
vn -0.9748 -0.0154 0.2227
vn -0.8289 -0.0692 -0.5551
vn 0.6146 -0.7366 0.2823
vn 0.9367 -0.3314 0.1129
vn 0.8923 -0.4283 0.1425
vn -0.7143 -0.1484 -0.6839
vn -0.8748 -0.0290 -0.4835
vn -0.7642 -0.2084 -0.6104
vn 0.9657 -0.1766 -0.1903
vn 0.9269 0.1769 -0.3311
vn -0.0880 0.9558 0.2806
vn -0.8480 0.5275 0.0519
vn -0.6370 0.7704 -0.0268
vn 0.1260 0.9892 0.0746
vn 0.4136 0.9103 0.0141
vn 0.8080 0.5358 0.2452
vn -0.0427 -0.7059 -0.7070
vn 0.1680 -0.9849 -0.0418
vn -0.1098 -0.9045 -0.4121
vn -0.1760 -0.6407 -0.7473
vn -0.4562 -0.4410 -0.7729
vn -0.5107 -0.1099 -0.8527
vn -0.6647 0.0451 -0.7457
vn -0.5887 0.0487 -0.8069
vn -0.7007 0.2184 -0.6792
vn 0.9785 -0.1918 -0.0753
vn 0.9665 0.1233 -0.2253
vn 0.9052 0.1941 -0.3781
vn 0.9764 -0.1216 -0.1786
vn -0.7587 0.5813 -0.2941
vn -0.3304 0.9392 -0.0933
vn 0.2833 0.9536 -0.1023
vn 0.5376 0.7876 -0.3013
vn 0.7921 0.6059 0.0735
vn -0.7415 0.3791 -0.5536
vn 0.9155 -0.2189 -0.3375
vn 0.5355 -0.7449 -0.3979
vn 0.9714 0.0690 -0.2272
vn -0.2229 -0.1110 -0.9685
vn -0.4120 -0.1772 -0.8938
vn -0.7047 -0.0410 -0.7083
vn -0.5281 0.3772 -0.7608
vn -0.3754 0.1821 -0.9088
vn -0.5811 0.3769 -0.7213
vn -0.3216 0.0277 -0.9465
vn 0.9614 0.0789 -0.2635
vn 0.8979 0.2316 -0.3743
vn 0.9253 0.2681 -0.2681
vn 0.0321 0.9994 -0.0094
vn -0.5628 0.7965 -0.2209
vn -0.4719 0.8765 -0.0957
vn -0.4485 0.8768 -0.1734
vn 0.7900 0.5584 -0.2532
vn -0.2498 -0.4640 -0.8499
vn 0.5927 -0.3166 -0.7406
vn -0.0364 -0.6463 -0.7622
vn 0.9380 0.1802 -0.2960
vn -0.3390 -0.0743 -0.9379
vn -0.4893 -0.0172 -0.8720
vn -0.5980 0.0913 -0.7963
vn -0.3991 -0.0012 -0.9169
vn -0.5292 -0.1034 -0.8422
vn -0.5591 0.4934 -0.6663
vn -0.4115 0.4889 -0.7692
vn -0.2937 0.6577 -0.6936
vn 0.7685 0.4778 -0.4255
vn -0.0340 0.9817 -0.1872
vn -0.4177 0.8873 -0.1954
vn -0.4907 0.8210 -0.2919
vn 0.1342 0.9418 -0.3083
vn 0.3913 0.9005 -0.1897
vn -0.5039 0.7237 -0.4716
vn 0.7820 0.2554 -0.5686
vn 0.8653 0.4774 -0.1529
vn 0.7661 0.3811 -0.5176
vn -0.3679 0.1321 -0.9204
vn -0.3889 -0.0586 -0.9194
vn -0.4509 0.6510 -0.6107
vn -0.1163 0.5579 -0.8217
vn 0.8154 0.3788 -0.4378
vn 0.7258 0.4799 -0.4929
vn -0.1971 0.9087 -0.3681
vn -0.0562 0.9413 -0.3328
vn -0.3725 0.8631 -0.3410
vn 0.3153 0.9200 -0.2327
vn 0.3081 0.9035 -0.2979
vn 0.4838 0.7834 -0.3902
vn 0.3706 0.8936 -0.2533
vn -0.2562 -0.1682 -0.9519
vn 0.1144 -0.1620 -0.9801
vn 0.4191 0.0578 -0.9061
vn 0.8268 0.5039 -0.2500
vn 0.3962 0.3092 -0.8646
vn -0.3951 -0.0914 -0.9141
vn -0.1968 0.1480 -0.9692
vn -0.4139 -0.0596 -0.9084
vn 0.0665 0.0043 -0.9978
vn -0.1063 0.0882 -0.9904
vn -0.2618 0.8513 -0.4547
vn -0.1082 0.1119 -0.9878
vn 0.6627 0.3087 -0.6823
vn 0.3784 0.5487 -0.7455
vn 0.4214 0.4163 -0.8057
vn -0.4050 0.1383 -0.9038
vn -0.0982 0.4127 -0.9056
vn -0.4079 0.1714 -0.8968
vn 0.4267 -0.5675 -0.7042
vn -0.1607 0.1477 -0.9759
vn -0.1772 0.2876 -0.9412
vn 0.2385 0.7032 -0.6698
vn -0.0135 0.8024 -0.5967
vn 0.5599 0.6094 -0.5614
vn -0.0803 0.8747 -0.4779
vn 0.2861 0.8304 -0.4780
vn -0.2769 0.2019 0.9394
vn -0.0557 0.3148 -0.9475
vn 0.1467 0.4240 -0.8937
vn -0.0157 0.0701 -0.9974
vn -0.5299 0.3159 -0.7870
vn -0.1430 0.3632 -0.9207
vn -0.6951 0.1265 -0.7076
vn -0.1971 0.4766 -0.8568
vn -0.1078 0.4980 -0.8604
vn -0.0201 -0.4262 -0.9044
vn -0.5136 0.0373 -0.8572
vn -0.7105 -0.1275 -0.6920
vn -0.0830 -0.0353 -0.9959
vn -0.3719 -0.4639 -0.8040
vn -0.3654 -0.4076 -0.8369
s 1
f 1//1 2//2 3//3
f 4//4 1//1 3//3
f 1//1 5//5 2//2
f 5//5 6//6 2//2
f 7//7 4//4 3//3
f 2//2 8//8 3//3
f 9//9 5//5 1//1
f 4//4 10//10 1//1
f 10//10 14//11 1//1
f 1//1 14//11 9//9
f 11//12 2//2 6//6
f 8//8 2//2 12//13
f 2//2 11//12 12//13
f 13//14 3//3 8//8
f 6//6 16//15 11//12
f 16//15 6//6 15//16
f 17//17 13//14 8//8
f 12//13 17//17 8//8
f 12//13 11//12 18//18
f 11//12 16//15 18//18
f 3//3 13//14 7//7
f 6//6 5//5 15//16
f 15//16 5//5 14//11
f 15//16 14//11 19//19
f 16//15 15//16 20//20
f 30//21 4//4 7//7
f 21//22 4//4 30//21
f 4//4 21//22 10//10
f 14//11 10//10 22//23
f 23//24 14//11 22//23
f 23//24 24//25 14//11
f 25//26 13//14 17//17
f 26//27 17//17 12//13
f 18//18 26//27 12//13
f 16//15 20//20 27//28
f 28//29 18//18 16//15
f 18//18 28//29 40//30
f 25//26 29//31 13//14
f 30//21 7//7 13//14
f 30//21 13//14 29//31
f 25//26 31//32 29//31
f 25//26 32//33 31//32
f 20//20 15//16 19//19
f 21//22 33//34 34//35
f 33//34 21//22 30//21
f 34//35 35//36 21//22
f 14//11 24//25 19//19
f 37//37 36//38 25//26
f 37//37 25//26 17//17
f 17//17 38//39 37//37
f 26//27 38//39 17//17
f 26//27 18//18 40//30
f 41//40 40//30 28//29
f 42//41 31//32 32//33
f 43//42 33//34 30//21
f 21//22 35//36 44//43
f 10//10 44//43 22//23
f 10//10 21//22 44//43
f 45//44 22//23 44//43
f 23//24 22//23 46//45
f 47//46 24//25 23//24
f 19//19 24//25 49//47
f 36//38 32//33 25//26
f 37//37 50//48 36//38
f 39//49 38//39 26//27
f 39//49 51//50 38//39
f 40//30 39//49 26//27
f 27//28 20//20 49//47
f 16//15 27//28 28//29
f 41//40 28//29 52//51
f 43//42 30//21 29//31
f 43//42 29//31 31//32
f 53//52 43//42 31//32
f 53//52 31//32 42//41
f 54//53 34//35 33//34
f 35//36 34//35 54//53
f 46//45 22//23 45//44
f 55//54 23//24 46//45
f 47//46 48//55 56//56
f 55//54 56//56 48//55
f 23//24 55//54 48//55
f 49//47 24//25 56//56
f 49//47 20//20 19//19
f 32//33 36//38 57//57
f 37//37 58//58 50//48
f 58//58 37//37 59//59
f 37//37 38//39 51//50
f 61//60 39//49 60//61
f 61//60 51//50 39//49
f 39//49 40//30 62//62
f 41//40 63//63 40//30
f 62//62 40//30 63//63
f 64//64 27//28 49//47
f 28//29 27//28 65//65
f 52//51 28//29 65//65
f 63//63 41//40 52//51
f 53//52 42//41 66//66
f 54//53 67//67 68//68
f 68//68 35//36 54//53
f 54//53 69//69 67//67
f 54//53 33//34 69//69
f 68//68 70//70 35//36
f 35//36 70//70 44//43
f 71//71 45//44 44//43
f 55//54 72//72 73//73
f 56//56 55//54 73//73
f 56//56 73//73 49//47
f 36//38 74//74 57//57
f 75//75 74//74 36//38
f 77//76 76//77 50//48
f 58//58 77//76 50//48
f 50//48 76//77 75//75
f 50//48 75//75 36//38
f 59//59 37//37 51//50
f 80//78 61//60 60//61
f 39//49 78//79 60//61
f 78//79 39//49 62//62
f 79//80 51//50 61//60
f 62//62 81//81 78//79
f 64//64 65//65 27//28
f 82//82 65//65 94//83
f 52//51 65//65 82//82
f 83//84 52//51 82//82
f 52//51 83//84 63//63
f 53//52 33//34 43//42
f 42//41 84//85 66//66
f 42//41 74//74 84//85
f 57//57 42//41 32//33
f 42//41 57//57 74//74
f 53//52 69//69 33//34
f 71//71 44//43 70//70
f 45//44 71//71 86//86
f 86//86 46//45 45//44
f 46//45 87//87 55//54
f 72//72 88//88 73//73
f 72//72 55//54 87//87
f 76//77 89//89 75//75
f 90//90 79//80 91//91
f 91//91 79//80 61//60
f 61//60 80//78 92//92
f 61//60 92//92 91//91
f 51//50 90//90 59//59
f 79//80 90//90 51//50
f 81//81 62//62 60//61
f 62//62 80//78 60//61
f 93//93 62//62 63//63
f 93//93 80//78 62//62
f 65//65 64//64 94//83
f 88//88 94//83 64//64
f 82//82 95//94 83//84
f 53//52 66//66 96//95
f 53//52 96//95 69//69
f 97//96 67//67 124//97
f 67//67 69//69 124//97
f 98//98 68//68 67//67
f 98//98 67//67 97//96
f 124//97 69//69 99//99
f 96//95 100//100 69//69
f 68//68 98//98 85//101
f 85//101 70//70 68//68
f 86//86 101//102 46//45
f 46//45 101//102 87//87
f 49//47 73//73 64//64
f 88//88 64//64 73//73
f 102//103 88//88 72//72
f 103//104 74//74 75//75
f 89//89 103//104 75//75
f 77//76 90//90 76//77
f 76//77 104//105 89//89
f 76//77 90//90 104//105
f 77//76 58//58 59//59
f 92//92 105//106 91//91
f 93//93 106//107 80//78
f 92//92 80//78 106//107
f 59//59 90//90 77//76
f 94//83 107//108 82//82
f 82//82 107//108 95//94
f 109//109 83//84 95//94
f 93//93 63//63 108//110
f 63//63 83//84 108//110
f 110//111 96//95 66//66
f 66//66 111//112 110//111
f 112//113 98//98 97//96
f 100//100 99//99 69//69
f 113//114 71//71 85//101
f 85//101 71//71 70//70
f 115//115 114//116 71//71
f 113//114 115//115 71//71
f 86//86 71//71 114//116
f 101//102 86//86 114//116
f 87//87 116//117 72//72
f 88//88 102//103 94//83
f 116//117 102//103 72//72
f 102//103 116//117 117//118
f 103//104 84//85 74//74
f 119//119 118//120 89//89
f 103//104 89//89 118//120
f 119//119 89//89 104//105
f 90//90 91//91 104//105
f 106//107 105//106 92//92
f 106//107 136//121 105//106
f 120//122 106//107 93//93
f 102//103 107//108 94//83
f 107//108 109//109 95//94
f 108//110 83//84 109//109
f 121//123 108//110 109//109
f 107//108 121//123 109//109
f 100//100 96//95 122//124
f 96//95 110//111 122//124
f 112//113 123//125 98//98
f 112//113 97//96 124//97
f 100//100 125//126 99//99
f 99//99 126//127 124//97
f 125//126 126//127 99//99
f 127//128 114//116 115//115
f 150//129 115//115 113//114
f 101//102 114//116 128//130
f 116//117 87//87 128//130
f 116//117 128//130 129//131
f 101//102 128//130 87//87
f 107//108 102//103 117//118
f 116//117 130//132 117//118
f 130//132 116//117 129//131
f 103//104 131//133 84//85
f 118//120 132//134 103//104
f 131//133 103//104 132//134
f 119//119 133//135 118//120
f 133//135 119//119 134//136
f 153//137 104//105 91//91
f 106//107 135//138 136//121
f 120//122 93//93 108//110
f 106//107 120//122 135//138
f 137//139 107//108 117//118
f 107//108 137//139 121//123
f 138//140 120//122 108//110
f 121//123 138//140 108//110
f 111//112 139//141 110//111
f 111//112 66//66 84//85
f 140//142 98//98 123//125
f 141//143 85//101 98//98
f 140//142 141//143 98//98
f 123//125 112//113 142//144
f 85//101 141//143 143//145
f 124//97 144//146 112//113
f 126//127 145//147 124//97
f 146//148 100//100 122//124
f 100//100 146//148 125//126
f 147//149 148//150 125//126
f 126//127 125//126 148//150
f 113//114 85//101 143//145
f 150//129 113//114 143//145
f 114//116 127//128 128//130
f 129//131 128//130 151//151
f 131//133 111//112 84//85
f 104//105 134//136 119//119
f 153//137 154//152 104//105
f 104//105 154//152 134//136
f 118//120 155//153 132//134
f 118//120 133//135 155//153
f 133//135 134//136 156//154
f 154//152 156//154 134//136
f 105//106 153//137 91//91
f 157//155 153//137 105//106
f 158//156 136//121 135//138
f 159//157 158//156 135//138
f 157//155 105//106 160//158
f 105//106 136//121 161//159
f 117//118 130//132 152//160
f 152//160 137//139 117//118
f 121//123 137//139 152//160
f 110//111 162//161 122//124
f 163//162 162//161 110//111
f 139//141 163//162 110//111
f 162//161 146//148 122//124
f 140//142 123//125 164//163
f 165//164 142//144 112//113
f 112//113 144//146 165//164
f 144//146 124//97 145//147
f 147//149 125//126 146//148
f 147//149 166//165 148//150
f 115//115 149//166 127//128
f 167//167 149//166 115//115
f 127//128 149//166 128//130
f 167//167 115//115 150//129
f 151//151 128//130 149//166
f 129//131 151//151 168//168
f 130//132 129//131 169//169
f 152//160 130//132 169//169
f 169//169 129//131 168//168
f 132//134 139//141 131//133
f 139//141 111//112 131//133
f 153//137 157//155 154//152
f 133//135 170//170 155//153
f 157//155 171//171 154//152
f 154//152 172//172 156//154
f 173//173 158//156 159//157
f 135//138 120//122 159//157
f 105//106 161//159 174//174
f 174//174 160//158 105//106
f 175//175 136//121 158//156
f 136//121 175//175 161//159
f 159//157 120//122 138//140
f 138//140 173//173 159//157
f 121//123 152//160 176//176
f 177//177 181//178 162//161
f 162//161 178//179 177//177
f 179//180 163//162 139//141
f 180//181 146//148 181//178
f 146//148 162//161 181//178
f 142//144 164//163 123//125
f 141//143 140//142 182//182
f 141//143 184//183 183//184
f 183//184 143//145 141//143
f 126//127 186//185 145//147
f 147//149 187//186 166//165
f 146//148 180//181 188//187
f 188//187 147//149 146//148
f 143//145 191//188 150//129
f 167//167 150//129 191//188
f 192//189 168//168 151//151
f 179//180 139//141 132//134
f 193//190 157//155 160//158
f 170//170 163//162 155//153
f 155//153 179//180 132//134
f 163//162 179//180 155//153
f 133//135 156//154 170//170
f 170//170 156//154 194//191
f 154//152 171//171 172//172
f 171//171 157//155 193//190
f 172//172 209//192 156//154
f 193//190 160//158 174//174
f 195//193 174//174 196//194
f 174//174 161//159 196//194
f 175//175 196//194 161//159
f 138//140 176//176 197//195
f 121//123 176//176 138//140
f 197//195 173//173 138//140
f 162//161 163//162 178//179
f 163//162 170//170 178//179
f 198//196 164//163 142//144
f 199//197 140//142 164//163
f 199//197 164//163 200//198
f 182//182 140//142 199//197
f 184//183 141//143 182//182
f 165//164 185//199 142//144
f 185//199 165//164 201//200
f 142//144 185//199 198//196
f 144//146 145//147 186//185
f 144//146 186//185 165//164
f 190//201 186//185 126//127
f 187//186 147//149 189//202
f 202//203 166//165 187//186
f 188//187 189//202 147//149
f 188//187 204//204 189//202
f 143//145 205//205 191//188
f 206//206 149//166 167//167
f 206//206 151//151 149//166
f 206//206 207//207 151//151
f 192//189 151//151 207//207
f 208//208 152//160 169//169
f 176//176 152//160 208//208
f 168//168 208//208 169//169
f 210//209 194//191 209//192
f 156//154 209//192 194//191
f 172//172 211//210 209//192
f 172//172 171//171 211//210
f 193//190 174//174 195//193
f 173//173 197//195 158//156
f 158//156 197//195 175//175
f 213//211 195//193 196//194
f 214//212 213//211 196//194
f 215//213 197//195 176//176
f 177//177 178//179 194//191
f 181//178 177//177 216//214
f 210//209 177//177 194//191
f 178//179 170//170 194//191
f 216//214 180//181 181//178
f 164//163 198//196 200//198
f 184//183 182//182 217//215
f 182//182 199//197 218//216
f 143//145 183//184 205//205
f 184//183 219//217 183//184
f 219//217 184//183 217//215
f 201//200 220//218 185//199
f 220//218 198//196 185//199
f 186//185 201//200 165//164
f 222//219 190//201 148//150
f 148//150 190//201 126//127
f 166//165 222//219 148//150
f 204//204 188//187 203//220
f 204//204 203//220 180//181
f 204//204 180//181 216//214
f 224//221 226//222 204//204
f 204//204 226//222 189//202
f 204//204 225//223 224//221
f 226//222 187//186 189//202
f 227//224 186//185 190//201
f 167//167 191//188 228//225
f 206//206 229//226 207//207
f 245//227 168//168 192//189
f 208//208 168//168 176//176
f 245//227 176//176 168//168
f 193//190 195//193 230//228
f 193//190 230//228 171//171
f 210//209 209//192 212//229
f 211//210 171//171 230//228
f 212//229 209//192 211//210
f 212//229 211//210 231//230
f 212//229 231//230 232//231
f 175//175 197//195 215//213
f 175//175 215//213 196//194
f 233//232 176//176 245//227
f 176//176 233//232 215//213
f 210//209 216//214 177//177
f 198//196 234//233 200//198
f 218//216 235//234 217//215
f 218//216 217//215 182//182
f 200//198 236//235 199//197
f 199//197 236//235 218//216
f 219//217 205//205 183//184
f 205//205 219//217 237//236
f 220//218 238//237 198//196
f 186//185 221//238 201//200
f 227//224 221//238 186//185
f 202//203 187//186 223//239
f 223//239 187//186 239//240
f 239//240 187//186 226//222
f 240//241 222//219 166//165
f 166//165 202//203 240//241
f 225//223 204//204 216//214
f 216//214 241//242 225//223
f 226//222 224//221 242//243
f 243//244 226//222 242//243
f 242//243 225//223 241//242
f 205//205 237//236 191//188
f 229//226 191//188 237//236
f 229//226 228//225 191//188
f 228//225 229//226 206//206
f 192//189 207//207 244//245
f 244//245 245//227 192//189
f 211//210 230//228 246//246
f 231//230 211//210 247//247
f 232//231 247//247 212//229
f 212//229 247//247 248//248
f 213//211 249//249 230//228
f 195//193 213//211 230//228
f 233//232 250//250 213//211
f 213//211 214//212 233//232
f 214//212 215//213 233//232
f 212//229 251//251 210//209
f 210//209 251//251 216//214
f 200//198 234//233 236//235
f 234//233 198//196 238//237
f 252//252 219//217 217//215
f 253//253 237//236 219//217
f 254//254 253//253 219//217
f 219//217 252//252 254//254
f 201//200 221//238 220//218
f 271//255 221//238 227//224
f 255//256 190//201 222//219
f 223//239 255//256 240//241
f 256//257 241//242 216//214
f 256//257 243//244 242//243
f 226//222 243//244 257//258
f 190//201 255//256 227//224
f 258//259 229//226 237//236
f 259//260 207//207 229//226
f 244//245 207//207 259//260
f 251//251 212//229 248//248
f 246//246 260//261 211//210
f 260//261 246//246 261//262
f 251//251 248//248 262//263
f 215//213 214//212 196//194
f 213//211 263//264 249//249
f 249//249 263//264 264//265
f 249//249 261//262 230//228
f 263//264 213//211 250//250
f 265//266 250//250 233//232
f 265//266 266//267 250//250
f 233//232 244//245 265//266
f 244//245 233//232 245//227
f 267//268 236//235 234//233
f 235//234 218//216 236//235
f 235//234 236//235 268//269
f 235//234 279//270 217//215
f 252//252 217//215 279//270
f 237//236 253//253 269//271
f 252//252 270//272 254//254
f 221//238 271//255 220//218
f 271//255 238//237 220//218
f 238//237 267//268 234//233
f 227//224 272//273 271//255
f 273//274 227//224 255//256
f 272//273 227//224 286//275
f 273//274 286//275 227//224
f 255//256 223//239 239//240
f 273//274 255//256 274//276
f 255//256 239//240 274//276
f 226//222 274//276 239//240
f 275//277 274//276 226//222
f 243//244 256//257 251//251
f 251//251 256//257 216//214
f 226//222 257//258 275//277
f 237//236 269//271 258//259
f 258//259 259//260 229//226
f 230//228 261//262 246//246
f 247//247 211//210 262//263
f 260//261 277//278 211//210
f 277//278 262//263 211//210
f 277//278 251//251 262//263
f 265//266 264//265 263//264
f 266//267 265//266 263//264
f 265//266 244//245 259//260
f 243//244 251//251 277//278
f 267//268 268//269 236//235
f 279//270 235//234 268//269
f 279//270 270//272 252//252
f 279//270 284//279 270//272
f 280//280 269//271 254//254
f 269//271 281//281 258//259
f 283//282 280//280 254//254
f 283//282 254//254 270//272
f 284//279 267//268 238//237
f 285//283 238//237 286//275
f 286//275 238//237 271//255
f 286//275 271//255 272//273
f 288//284 286//275 273//274
f 288//284 287//285 286//275
f 289//286 274//276 275//277
f 257//258 290//287 275//277
f 291//288 290//287 257//258
f 291//288 257//258 281//281
f 292//289 281//281 257//258
f 293//290 292//289 257//258
f 257//258 243//244 293//290
f 243//244 277//278 293//290
f 276//291 265//266 259//260
f 294//292 293//290 277//278
f 294//292 277//278 260//261
f 278//293 264//265 265//266
f 249//249 293//290 294//292
f 249//249 278//293 293//290
f 264//265 278//293 249//249
f 261//262 249//249 294//292
f 281//281 269//271 295//294
f 282//295 270//272 284//279
f 270//272 282//295 283//282
f 279//270 268//269 267//268
f 279//270 267//268 284//279
f 284//279 238//237 285//283
f 285//283 282//295 284//279
f 285//283 286//275 287//285
f 296//296 288//284 273//274
f 296//296 273//274 274//276
f 274//276 289//286 302//297
f 276//291 258//259 281//281
f 258//259 276//291 259//260
f 292//289 265//266 276//291
f 278//293 265//266 292//289
f 293//290 278//293 292//289
f 280//280 281//281 295//294
f 297//298 298//299 285//283
f 298//299 282//295 285//283
f 297//298 285//283 287//285
f 287//285 299//300 297//298
f 288//284 299//300 287//285
f 288//284 301//301 299//300
f 300//302 301//301 288//284
f 296//296 302//297 300//302
f 288//284 296//296 300//302
f 296//296 274//276 302//297
f 303//303 302//297 289//286
f 275//277 303//303 289//286
f 276//291 281//281 292//289
f 281//281 280//280 283//282
f 283//282 298//299 281//281
f 297//298 304//304 298//299
f 298//299 283//282 282//295
f 297//298 299//300 305//305
f 300//302 302//297 306//306
f 300//302 306//306 301//301
f 302//297 303//303 306//306
f 303//303 275//277 307//307
f 290//287 307//307 275//277
f 290//287 291//288 304//304
f 298//299 291//288 281//281
f 291//288 298//299 304//304
f 305//305 304//304 297//298
f 299//300 301//301 308//308
f 308//308 301//301 306//306
f 307//307 308//308 303//303
f 308//308 306//306 303//303
f 290//287 304//304 307//307
f 304//304 305//305 307//307
f 307//307 305//305 299//300
f 308//308 307//307 299//300
