# Blender 3.6.11
# www.blender.org
o skin_mesh_0
v 0.047830 0.083629 -0.080285
v 0.042626 0.093955 -0.067868
v 0.053351 0.085216 -0.062513
v 0.058928 0.074014 -0.071120
v 0.050083 0.093486 -0.054936
v 0.039891 0.100090 -0.057510
v 0.060403 0.076136 -0.054652
v 0.065435 0.064603 -0.059372
v 0.066786 0.072185 -0.017167
v 0.071004 0.063497 -0.010696
v 0.070494 0.062496 -0.023283
v 0.065161 0.071064 -0.026500
v 0.066139 0.074462 0.009743
v 0.059979 0.084343 0.017040
v 0.062885 0.076560 0.028223
v 0.068073 0.065285 0.021128
v 0.026345 0.105099 -0.002111
v 0.031879 0.105343 0.004885
v 0.035895 0.102819 -0.001781
v 0.029702 0.102569 -0.007860
v 0.017221 0.109610 -0.013724
v 0.018390 0.105006 -0.018303
v 0.013607 0.109710 -0.023411
v 0.013349 0.115596 -0.018299
v 0.020901 0.106921 0.003153
v 0.026859 0.107080 0.010613
v 0.021626 0.105620 -0.008386
v 0.019708 0.109199 -0.004476
v 0.017019 0.121718 -0.000749
v 0.018572 0.119167 -0.005298
v 0.015302 0.125911 -0.007735
v 0.013954 0.126490 -0.002101
v 0.019782 0.112152 0.002288
v 0.020329 0.114401 -0.001522
v 0.017880 0.117657 0.001798
v 0.016304 0.115027 0.004833
v 0.016823 0.113952 -0.009883
v 0.013882 0.120805 -0.013500
v 0.009998 0.127921 -0.016433
v 0.010913 0.133203 -0.008750
v 0.043078 0.101907 0.020164
v 0.037874 0.104475 0.012271
v 0.032813 0.106560 0.017242
v 0.037772 0.104931 0.023651
v 0.017427 0.112253 0.008945
v 0.021118 0.116259 0.025789
v 0.021588 0.115628 0.021503
v 0.015517 0.119669 0.019758
v 0.015663 0.120062 0.023904
v 0.048820 0.095905 0.036939
v 0.043090 0.101546 0.037327
v 0.043595 0.100362 0.045077
v 0.049000 0.093664 0.046329
v 0.041378 0.100729 0.051613
v 0.047621 0.092689 0.055307
v 0.037542 0.096986 0.070175
v 0.042943 0.094389 0.063572
v 0.037196 0.102835 0.057387
v 0.031743 0.107313 0.062241
v 0.019095 0.115142 0.055732
v 0.013007 0.118495 0.056439
v 0.018003 0.118707 0.069624
v 0.024947 0.113794 0.066740
v 0.020294 0.112861 0.032896
v 0.024289 0.110028 0.033489
v 0.024723 0.111979 0.031316
v 0.020608 0.115187 0.029614
v 0.028390 0.107986 0.034224
v 0.030214 0.107263 0.034571
v 0.029915 0.108336 0.032792
v 0.028260 0.108479 0.033319
v 0.026240 0.109054 0.033698
v 0.025002 0.109831 0.035719
v 0.027376 0.108537 0.035068
v 0.021392 0.112932 0.036121
v 0.008648 0.121789 0.036490
v 0.012542 0.120234 0.036474
v 0.011034 0.118426 0.031825
v 0.007763 0.119569 0.031634
v 0.028196 0.109846 0.030557
v 0.030824 0.109258 0.028796
v 0.027072 0.112122 0.025203
v 0.025632 0.112205 0.028353
v 0.033736 0.107924 0.026778
v 0.032419 0.107384 0.031759
v 0.035755 0.106023 0.031023
v 0.029453 0.107473 0.036562
v 0.032525 0.106179 0.038590
v 0.033166 0.106683 0.035392
v 0.030248 0.107330 0.041921
v 0.026828 0.108908 0.038410
v 0.023240 0.112165 0.039906
v 0.018623 0.116195 0.040945
v 0.021109 0.113819 0.046559
v 0.026259 0.110131 0.044602
v 0.029105 0.110027 0.021280
v 0.037524 0.104700 0.036396
v 0.040805 0.102913 0.029775
v 0.037445 0.104392 0.041709
v 0.035252 0.105082 0.046551
v 0.030892 0.107419 0.050545
v 0.025133 0.111189 0.053550
v 0.020223 0.108218 0.080452
v 0.028673 0.103452 0.076012
v 0.037269 0.098562 -0.049977
v 0.046056 0.095409 -0.048366
v 0.046070 0.091773 -0.040002
v 0.048016 0.091273 -0.042107
v 0.042838 0.094489 -0.044350
v 0.041970 0.094126 -0.041521
v 0.059287 0.076633 -0.029614
v 0.054404 0.081127 -0.032344
v 0.054765 0.080348 -0.028306
v 0.060889 0.077145 -0.022895
v 0.047417 0.089344 -0.021914
v 0.051648 0.085581 -0.022549
v 0.047976 0.087399 -0.029723
v 0.044902 0.090150 -0.029341
v 0.041123 0.092295 -0.029352
v 0.036877 0.093697 -0.029900
v 0.037294 0.093996 -0.024249
v 0.042394 0.092213 -0.022745
v 0.036109 0.095824 -0.045843
v 0.028697 0.095718 -0.045502
v 0.030161 0.095021 -0.042248
v 0.036329 0.095429 -0.042607
v 0.019659 0.091321 -0.035265
v 0.020860 0.091778 -0.037925
v 0.017229 0.092905 -0.039641
v 0.016396 0.092950 -0.035017
v 0.018902 0.093646 -0.031836
v 0.021018 0.092153 -0.033563
v 0.039222 0.079005 -0.101546
v 0.034085 0.090612 -0.086229
v 0.054185 0.068747 -0.092593
v 0.064034 0.059586 -0.079646
v 0.071324 0.051924 -0.064423
v 0.055999 0.087403 0.033697
v 0.057013 0.082620 0.044124
v 0.064641 0.069041 0.038673
v 0.062858 0.065835 0.050223
v 0.055111 0.081063 0.055417
v 0.040964 0.082870 0.074872
v 0.049945 0.081181 0.066251
v 0.058298 0.062403 0.061918
v 0.066019 0.043821 0.051840
v 0.069016 0.050344 0.042383
v 0.069462 0.028404 0.038316
v 0.061916 0.033968 0.061655
v 0.066818 0.019455 0.041143
v 0.045466 0.042704 0.097817
v 0.047907 0.039107 0.110598
v 0.059503 0.023619 0.104790
v 0.057973 0.027532 0.092533
v 0.069911 0.056765 0.032168
v 0.072197 0.053137 -0.032744
v 0.068117 0.064474 -0.034656
v 0.074416 0.051781 -0.018909
v 0.074404 0.026326 -0.088810
v 0.069859 0.044239 -0.086544
v 0.076783 0.039374 -0.069569
v 0.080904 0.023314 -0.073545
v 0.046067 0.030868 -0.124197
v 0.044562 0.057350 -0.115252
v 0.057610 0.051104 -0.103240
v 0.060814 0.029378 -0.109629
v 0.082290 0.008867 -0.073245
v 0.083041 -0.009328 -0.071188
v 0.079090 -0.017214 -0.087408
v 0.077049 0.005322 -0.090513
v 0.067673 -0.027013 -0.106807
v 0.065083 0.000796 -0.111976
v 0.064573 0.010788 0.056459
v 0.065739 0.005414 0.037694
v 0.056961 0.032296 0.078063
v 0.063641 0.013153 0.073248
v 0.049689 -0.034702 -0.123374
v 0.046960 -0.001103 -0.129060
v 0.072276 -0.056274 -0.041531
v 0.075508 -0.049127 -0.060598
v 0.081069 -0.032099 -0.049660
v 0.078580 -0.040426 -0.033652
v 0.062380 -0.072508 -0.048764
v 0.065319 -0.065150 -0.071555
v 0.059137 -0.050608 0.015056
v 0.051981 -0.042183 0.031626
v 0.043197 -0.055115 0.031456
v 0.049575 -0.065748 0.015198
v 0.056957 0.085873 -0.049751
v 0.052251 0.090537 -0.044977
v 0.055812 0.084919 -0.040903
v 0.060711 0.078916 -0.043337
v 0.064869 0.069302 -0.045107
v 0.069215 0.057447 -0.046788
v 0.078556 0.033434 -0.054632
v 0.082455 0.019697 -0.059900
v 0.084657 -0.005630 -0.057750
v 0.084297 0.008593 -0.059745
v 0.082734 -0.023187 -0.038138
v 0.080968 -0.028347 -0.027992
v 0.064728 -0.012613 0.029276
v 0.062036 -0.008376 0.051461
v 0.055653 -0.023800 0.049559
v 0.058675 -0.028690 0.030252
v 0.037763 -0.046475 0.048369
v 0.046939 -0.035852 0.048833
v 0.060578 -0.006724 0.085082
v 0.060879 -0.010657 0.099219
v 0.055340 -0.027100 0.096416
v 0.053950 -0.022600 0.083185
v 0.047301 -0.040462 0.096620
v 0.036626 -0.049715 0.097466
v 0.036006 -0.046091 0.082300
v 0.045140 -0.036032 0.081807
v 0.023502 0.058916 0.118373
v 0.024789 0.054803 0.129004
v 0.037564 0.047220 0.125992
v 0.034753 0.050453 0.114791
v 0.063007 -0.016404 0.110545
v 0.058345 -0.033197 0.106344
v 0.065643 -0.035036 0.014482
v 0.069683 -0.022930 0.011692
v 0.050797 -0.046906 0.107424
v 0.045557 -0.033853 0.066553
v 0.054408 -0.021960 0.068119
v 0.027522 -0.055373 0.047813
v 0.031542 -0.065966 0.031653
v 0.023857 0.102611 -0.013214
v 0.027130 0.094712 -0.027862
v 0.027760 0.093945 -0.031705
v 0.023819 0.093117 -0.032703
v 0.022629 0.094221 -0.029640
v 0.016668 0.103955 -0.069828
v 0.014468 0.105453 -0.053436
v 0.027926 0.104446 -0.057038
v 0.030118 0.100822 -0.070275
v 0.054607 0.091663 0.003162
v 0.045345 0.097651 -0.003740
v 0.042468 0.101572 0.005301
v 0.048708 0.097716 0.013641
v 0.051469 0.084085 -0.034093
v 0.053139 0.083911 -0.036206
v 0.050536 0.086407 -0.036161
v 0.046274 0.099185 0.028009
v 0.052985 0.092838 0.023613
v 0.074362 0.052486 -0.003847
v 0.062980 0.073458 -0.035701
v 0.024549 0.033885 -0.135805
v 0.024351 0.063841 -0.124016
v 0.027956 -0.039524 -0.135800
v 0.025688 -0.002078 -0.139718
v 0.050064 -0.079394 -0.081516
v 0.046756 -0.087224 -0.055560
v 0.026661 -0.097253 -0.059920
v 0.028201 -0.088750 -0.089414
v 0.036476 -0.077141 0.015165
v 0.025610 -0.054829 0.098008
v 0.024786 -0.053199 0.081400
v 0.023123 0.083741 -0.106037
v 0.019302 0.095763 -0.087055
v 0.074160 0.044958 -0.049780
v 0.065853 0.076242 -0.008404
v 0.061034 0.080550 -0.016715
v 0.058539 0.085497 -0.012850
v 0.062825 0.082014 -0.001937
v 0.069134 0.068089 0.001221
v 0.071971 0.056618 0.010559
v 0.074545 0.042462 0.019887
v 0.071937 0.034980 0.031588
v 0.081989 -0.024413 -0.063874
v 0.077370 -0.036861 -0.076982
v 0.067296 -0.050596 -0.092285
v 0.051294 -0.062291 -0.106392
v 0.083638 -0.018493 -0.053442
v 0.028810 -0.070080 -0.117326
v 0.014781 0.118063 0.015020
v 0.021880 0.112747 0.015666
v 0.012921 0.117249 0.010388
v 0.013764 0.119290 0.041616
v 0.009316 0.121042 0.041867
v 0.010247 0.118081 0.047988
v 0.015444 0.116528 0.047558
v 0.020432 0.092747 0.085921
v 0.030252 0.087742 0.081378
v 0.022577 0.064596 0.108099
v 0.033066 0.055300 0.103939
v 0.012680 0.120504 0.000619
v 0.010965 0.120966 0.000326
v 0.010710 0.118811 0.001410
v 0.012894 0.118326 0.001538
v 0.026666 0.109959 0.032219
v 0.010630 0.122340 0.023529
v 0.007308 0.122966 0.023790
v 0.007462 0.121500 0.027662
v 0.010779 0.120767 0.027555
v 0.047620 0.060013 0.074955
v 0.044915 0.048616 0.085665
v 0.063408 0.008128 0.103108
v 0.063203 0.011410 0.088921
v 0.060881 -0.005944 0.069510
v 0.035407 -0.045133 0.064590
v 0.026329 -0.053775 0.065079
v -0.000336 -0.060275 0.062272
v -0.000222 -0.063785 0.046578
v 0.014277 -0.061926 0.047475
v 0.012690 -0.058363 0.063531
v 0.032503 0.072420 0.086138
v 0.021641 0.079145 0.090792
v 0.022484 0.070258 0.097937
v 0.032706 0.061628 0.093357
v 0.007114 0.122375 0.003703
v 0.005765 0.124109 0.004733
v 0.006227 0.121436 0.007277
v 0.008044 0.120382 0.004974
v 0.013757 0.116560 0.003726
v 0.011361 0.116856 0.004771
v 0.011826 0.116914 0.006956
v 0.014286 0.121081 0.000696
v 0.014725 0.118314 0.002281
v 0.009435 0.126144 -0.000276
v 0.012391 0.124350 -0.000096
v 0.009606 0.131315 -0.000707
v 0.008703 0.120749 0.002567
v 0.009247 0.119118 0.003937
v 0.012590 0.117062 0.002649
v 0.010820 0.117369 0.002954
v 0.009648 0.123964 -0.000164
v 0.011543 0.122586 0.000087
v 0.009224 0.121589 -0.022470
v 0.002985 0.124566 -0.023817
v 0.003056 0.130964 -0.017271
v 0.003182 0.136705 -0.009289
v 0.003190 0.134670 -0.000574
v 0.012862 0.074789 0.100804
v 0.013100 0.069566 0.110807
v 0.003370 0.096191 -0.086752
v 0.003257 0.103813 -0.068597
v 0.027558 0.108385 0.033806
v 0.027915 0.098632 -0.049587
v 0.052310 0.091186 -0.011536
v 0.031328 0.099244 -0.013795
v 0.037853 0.099074 -0.009177
v 0.037933 0.095991 -0.016871
v 0.031828 0.096583 -0.019976
v 0.018613 0.098774 -0.046751
v 0.009474 0.104476 -0.043260
v 0.013071 0.097600 -0.041278
v 0.012630 0.098098 -0.034653
v 0.009922 0.107215 -0.034500
v 0.014265 0.103439 -0.027133
v 0.015854 0.097104 -0.029381
v 0.048733 0.088992 -0.038210
v 0.051099 0.087455 -0.039504
v 0.019454 0.100501 -0.022207
v 0.025123 0.099213 -0.017959
v 0.026009 0.096295 -0.022875
v 0.020684 0.096430 -0.025741
v 0.044652 0.094321 -0.013761
v 0.057721 0.079761 -0.036004
v 0.054048 0.082203 -0.024798
v 0.073010 -0.013857 0.005756
v 0.069397 -0.006670 0.016984
v 0.075992 0.015296 0.026303
v 0.073874 0.018387 0.030419
v 0.068810 0.013222 0.028178
v 0.073763 0.010469 0.023933
v 0.084475 -0.005816 -0.028116
v 0.083877 -0.009313 -0.035381
v 0.084462 -0.001695 -0.036621
v 0.083828 -0.002713 -0.028923
v 0.083496 0.003906 -0.032562
v 0.083347 0.006439 -0.035907
v 0.082930 0.007848 -0.027657
v 0.082939 0.004206 -0.027918
v 0.084357 0.007486 -0.046955
v 0.081996 0.017661 -0.045011
v 0.081193 0.014229 -0.033065
v 0.076467 0.038410 -0.031031
v 0.077100 0.025699 -0.019174
v 0.078629 0.020596 -0.027549
v 0.078739 0.027499 -0.039755
v 0.074582 0.022729 0.025033
v 0.074483 0.026156 0.016945
v 0.067626 0.003938 0.024351
v 0.001460 -0.099694 -0.062130
v 0.001750 -0.090941 -0.093893
v 0.069190 -0.058208 -0.021807
v 0.058689 -0.073824 -0.026166
v 0.076003 -0.043195 -0.017574
v 0.078351 -0.029848 -0.015372
v 0.043925 -0.087575 -0.029952
v 0.024310 -0.097639 -0.032354
v 0.077082 0.039358 -0.013351
v 0.076241 0.027443 -0.006921
v 0.065385 -0.056527 -0.002412
v 0.054030 -0.071665 -0.004798
v 0.071839 -0.041311 -0.001010
v 0.074929 -0.028105 -0.002247
v 0.039704 -0.084210 -0.006379
v 0.019225 -0.083509 0.016417
v 0.022402 -0.092067 -0.005922
v 0.078175 0.014090 0.015344
v 0.076282 0.018881 0.016452
v 0.076109 0.017840 0.022882
v 0.079488 0.016041 0.021129
v 0.076494 0.039719 0.002404
v 0.075931 0.026935 0.005435
v 0.009660 0.115375 -0.028330
v 0.002814 0.112331 -0.036963
v 0.002956 0.118500 -0.030335
v 0.002806 0.107586 -0.044356
v 0.002131 -0.001674 -0.142915
v 0.002159 0.035507 -0.138973
v 0.001948 -0.071727 -0.121406
v 0.002103 -0.040403 -0.138619
v 0.007797 0.120244 0.056493
v 0.010451 0.121251 0.070756
v 0.009709 0.120856 0.014812
v 0.006475 0.121499 0.015568
v 0.006992 0.122595 0.019816
v 0.010350 0.122027 0.019245
v 0.021886 0.094278 -0.043338
v 0.016441 -0.072238 0.031936
v 0.011736 -0.056759 0.080277
v 0.012442 -0.057446 0.096956
v 0.039360 -0.055995 0.109206
v 0.026447 -0.060889 0.111150
v 0.006085 0.120985 0.011358
v 0.008941 0.119935 0.010720
v 0.008807 0.122568 0.000570
v 0.015407 0.118698 0.028101
v 0.008717 0.119380 0.007536
v 0.009383 0.118823 0.005260
v 0.004113 0.122167 0.007921
v 0.004372 0.121109 0.011781
v 0.032111 0.094848 -0.026064
v 0.032312 0.094231 -0.030753
v 0.006709 0.127707 0.002701
v 0.007430 0.124970 0.001682
v 0.003174 0.128465 0.003580
v 0.050716 0.035495 0.122108
v 0.061191 0.019371 0.117668
v 0.005018 0.123016 0.023983
v 0.005073 0.121688 0.027904
v 0.002166 0.065684 -0.126528
v -0.001388 -0.083317 0.016523
v 0.000678 -0.092969 -0.005085
v 0.077959 0.017938 -0.011347
v 0.079772 0.012492 -0.006871
v 0.081130 0.010202 -0.013948
v 0.079682 0.015433 -0.019038
v 0.013660 0.063935 0.120804
v 0.064571 0.001467 0.114507
v 0.012670 -0.063376 0.111058
v 0.051263 0.083713 -0.032222
v 0.050049 0.084995 -0.030718
v 0.024650 0.093236 -0.040648
v 0.001471 -0.100080 -0.032764
v 0.017045 0.117104 0.036394
v 0.015339 0.116198 0.032194
v -0.000835 -0.058014 0.078476
v 0.012412 0.082687 0.093480
v 0.004170 0.124982 0.005288
v -0.000200 -0.073430 0.032345
v 0.083575 0.001730 -0.020589
v 0.085276 0.005001 -0.019004
v 0.084672 0.004718 -0.015617
v 0.082977 0.003203 -0.016464
v 0.086197 0.009511 -0.022706
v 0.087329 0.007422 -0.019027
v 0.089036 0.006172 -0.022046
v 0.087621 0.007279 -0.026108
v 0.081742 0.011912 -0.024698
v 0.084010 0.010529 -0.018743
v 0.090042 0.004174 -0.024135
v 0.089950 0.005197 -0.027128
v 0.087220 0.004016 -0.028796
v 0.083579 0.000742 -0.028747
v 0.092451 0.001642 -0.027909
v 0.088715 -0.000463 -0.030102
v 0.095412 -0.003284 -0.026903
v 0.090683 -0.005833 -0.029488
v 0.096798 -0.008789 -0.023452
v 0.091112 -0.011460 -0.025494
v 0.077220 0.019017 0.008715
v 0.077561 0.011750 0.008611
v 0.097467 -0.011993 -0.017783
v 0.090726 -0.014055 -0.018625
v 0.096882 -0.013438 -0.010473
v 0.090311 -0.014918 -0.010964
v 0.095040 -0.012638 -0.003190
v 0.089677 -0.014056 -0.002962
v 0.093470 -0.010455 0.004098
v 0.088087 -0.011616 0.005298
v 0.091227 -0.006083 0.010948
v 0.085534 -0.007209 0.014491
v 0.091900 -0.004284 -0.024902
v 0.093146 -0.008093 -0.021464
v 0.082556 -0.007811 -0.024199
v 0.090616 0.000461 -0.025953
v 0.082680 -0.002313 -0.010406
v 0.080889 -0.002613 -0.012900
v 0.081954 -0.001611 -0.010843
v 0.080580 -0.004253 -0.009531
v 0.078862 0.012723 0.000958
v 0.080001 0.008667 0.001227
v 0.080408 0.008600 -0.004454
v 0.078407 0.008346 0.005462
v 0.077372 0.007049 0.004070
v 0.077040 0.007140 0.000449
v 0.076574 0.006631 -0.004219
v 0.077877 0.005217 0.005676
v 0.079317 0.006134 0.007470
v 0.076662 0.004652 0.004413
v 0.076229 0.005677 0.003521
v 0.075207 0.004630 0.001279
v 0.076042 0.002199 -0.002187
v 0.077593 0.019050 -0.001553
v 0.077552 -0.006863 0.002015
v 0.074873 -0.002765 0.010912
v 0.088068 -0.000134 0.015994
v 0.084209 -0.000202 0.022033
v 0.082466 0.013649 0.024670
v 0.084069 0.007453 0.026363
v 0.081080 -0.009632 -0.018737
v 0.080940 -0.010892 -0.012102
v 0.073433 0.004178 0.017414
v 0.080098 -0.010337 -0.005265
v 0.089527 -0.004836 0.006775
v 0.086408 -0.000736 0.010104
v 0.091932 -0.008273 0.001942
v 0.080588 0.008080 0.010929
v 0.082079 0.010591 0.017189
v 0.085481 0.005688 0.017748
v 0.083112 0.003520 0.011587
v 0.088162 -0.002596 0.003488
v 0.084305 -0.000384 0.006047
v 0.084720 -0.002689 0.000567
v 0.081104 -0.000870 0.002942
v 0.078885 0.002263 0.005049
v 0.080966 0.002706 0.007483
v 0.076941 -0.001502 0.000670
v 0.080693 -0.003385 -0.002796
v 0.076365 0.002221 0.003309
v 0.087696 -0.003387 -0.002340
v 0.089937 -0.004419 -0.006194
v 0.087518 -0.002020 -0.008839
v 0.084228 -0.003216 -0.005683
v 0.092760 -0.010543 -0.004052
v 0.092388 -0.007067 -0.004697
v 0.090622 -0.005233 -0.000151
v 0.093106 -0.008228 -0.010277
v 0.093408 -0.011356 -0.010725
v 0.091102 -0.005748 -0.010414
v 0.089464 -0.003514 -0.011499
v 0.092294 -0.006043 -0.019445
v 0.093079 -0.007716 -0.015338
v 0.093863 -0.010611 -0.016921
v 0.091734 -0.005160 -0.014181
v 0.090900 -0.004037 -0.017399
v 0.089340 -0.002852 -0.015476
v 0.090227 -0.004081 -0.013835
v 0.087879 0.002775 -0.023744
v 0.086539 0.004462 -0.021964
v 0.089166 -0.000095 -0.023739
v 0.086919 0.000831 -0.023992
v 0.087665 -0.000049 -0.021420
v 0.085425 0.001217 -0.022984
v 0.086613 0.000747 -0.019253
v 0.084577 0.001001 -0.016378
v 0.088148 -0.000693 -0.017202
v 0.089334 -0.002066 -0.019633
v 0.090787 -0.003359 -0.022427
v 0.085625 -0.001046 -0.012703
v 0.087201 -0.001408 -0.011660
v 0.088205 -0.001763 -0.013285
v 0.086547 -0.000427 -0.014772
v 0.080508 0.007686 -0.008828
v 0.078745 0.004216 -0.007134
v 0.079163 0.000369 -0.004648
v -0.001671 -0.064194 0.111089
v 0.014064 0.059409 0.132277
v 0.082538 -0.014988 -0.030701
v 0.080491 -0.018148 -0.023573
v 0.084383 -0.014059 -0.044065
v 0.083085 -0.000278 -0.013792
v 0.080904 -0.004850 -0.007199
v 0.085271 -0.001596 -0.010308
v 0.083072 0.001863 -0.015853
v 0.082712 0.001478 -0.014833
v 0.085338 -0.003265 -0.046750
v 0.078241 -0.018598 -0.014854
v 0.076152 -0.017323 -0.005195
v 0.083725 0.001414 -0.033039
v 0.005911 0.121641 0.041922
v 0.006302 0.119122 0.047996
v 0.004690 0.121469 0.016196
v 0.004875 0.122475 0.020163
v 0.041503 0.092853 -0.039682
v 0.044856 0.090775 -0.038633
v 0.046398 0.088131 -0.032567
v 0.043792 0.090067 -0.032360
v 0.040458 0.091787 -0.032407
v 0.036520 0.092829 -0.032718
v 0.031142 0.093806 -0.040380
v 0.036641 0.094026 -0.040663
v 0.021362 0.091007 -0.035063
v 0.023291 0.090901 -0.036474
v 0.022155 0.091471 -0.034098
v 0.028333 0.092697 -0.033540
v 0.024577 0.091659 -0.034035
v 0.048843 0.086717 -0.035989
v 0.049682 0.085469 -0.034755
v 0.047173 0.088705 -0.037301
v 0.032361 0.093126 -0.033100
v 0.049461 0.085259 -0.033630
v 0.048289 0.086247 -0.032910
v 0.026539 0.092303 -0.038962
v 0.040807 0.091713 -0.034722
v 0.036733 0.092906 -0.035108
v 0.032009 0.093629 -0.038034
v 0.036902 0.093465 -0.037927
v 0.028671 0.092804 -0.035407
v 0.026200 0.092038 -0.035249
v 0.043880 0.090070 -0.034378
v 0.032473 0.093272 -0.035421
v 0.041245 0.091957 -0.037357
v 0.025689 0.091981 -0.036284
v 0.027911 0.092834 -0.037373
v 0.048817 0.085981 -0.034693
v 0.048677 0.085928 -0.034271
v 0.044283 0.090117 -0.036613
v 0.047672 0.086816 -0.034149
v 0.046032 0.088238 -0.034297
v 0.046390 0.088350 -0.035861
v 0.047946 0.086887 -0.035204
v 0.011999 0.095260 0.088098
v 0.011599 0.110163 0.081891
v 0.005565 0.122188 0.036546
v 0.005206 0.119929 0.031819
v 0.004499 0.075760 0.102176
v 0.004476 0.071205 0.111861
v 0.002931 0.120700 0.056312
v 0.003151 0.121320 0.071353
v 0.003026 0.122153 0.008087
v 0.002979 0.121001 0.012007
v 0.003163 0.122909 0.024012
v 0.003214 0.121621 0.028163
v 0.004403 0.065733 0.122797
v 0.004389 0.083252 0.094581
v 0.004277 0.060933 0.134217
v 0.003115 0.121581 0.041768
v 0.002931 0.119188 0.047774
v 0.003058 0.121231 0.016287
v 0.003098 0.122073 0.020126
v 0.003450 0.110510 0.082295
v 0.003777 0.095576 0.088916
v 0.002741 0.085746 -0.106916
v -0.001355 -0.058908 0.095632
v 0.003001 0.106615 -0.054512
v 0.003089 0.119751 0.031977
v 0.003148 0.124910 0.005507
v 0.084847 0.007607 -0.016189
v 0.082361 0.006052 -0.014280
v 0.081741 0.004903 -0.010772
v 0.080923 0.001098 -0.008841
v 0.080418 -0.002145 -0.006951
v 0.079914 -0.004601 -0.006148
v 0.083351 0.002472 -0.011501
v 0.081383 -0.000695 -0.014416
v 0.082556 0.002481 -0.014510
v 0.083837 0.004054 -0.013386
v 0.003096 0.122289 0.036631
v -0.040696 0.081047 -0.078541
v -0.052238 0.072531 -0.069239
v -0.046925 0.083291 -0.061173
v -0.035463 0.091338 -0.066714
v -0.043454 0.091341 -0.053899
v -0.033000 0.097439 -0.056769
v -0.059116 0.063496 -0.057892
v -0.054433 0.075019 -0.053422
v -0.060913 0.071040 -0.016649
v -0.058891 0.069970 -0.025961
v -0.064760 0.061848 -0.022449
v -0.065538 0.062610 -0.009920
v -0.060464 0.073320 0.010216
v -0.062574 0.064157 0.020904
v -0.057366 0.075580 0.027811
v -0.054209 0.082895 0.017044
v -0.021269 0.103751 -0.002012
v -0.024450 0.101075 -0.007766
v -0.030425 0.101011 -0.001677
v -0.026629 0.103806 0.004931
v -0.012253 0.108615 -0.013796
v -0.007913 0.114701 -0.018378
v -0.008446 0.108759 -0.023245
v -0.013481 0.103955 -0.018297
v -0.016066 0.106220 0.003328
v -0.021713 0.105904 0.010652
v -0.015027 0.108584 -0.004420
v -0.016732 0.104623 -0.008298
v -0.011300 0.121086 -0.000734
v -0.008068 0.125911 -0.002070
v -0.009223 0.125179 -0.007858
v -0.012830 0.118592 -0.005409
v -0.014932 0.111474 0.002351
v -0.011091 0.114395 0.004992
v -0.012502 0.116978 0.001845
v -0.014924 0.113805 -0.001612
v -0.011767 0.113467 -0.009734
v -0.008224 0.120221 -0.013520
v -0.003858 0.127236 -0.016153
v -0.004293 0.132357 -0.008671
v -0.037464 0.100550 0.019818
v -0.032522 0.104267 0.023210
v -0.027546 0.105576 0.017021
v -0.032374 0.102842 0.012231
v -0.012148 0.111406 0.009042
v -0.015345 0.116084 0.025740
v -0.009530 0.119613 0.023917
v -0.009504 0.118966 0.019671
v -0.015957 0.115125 0.021425
v -0.043486 0.094424 0.036285
v -0.043624 0.092172 0.045380
v -0.037288 0.099011 0.044344
v -0.037462 0.100342 0.036912
v -0.034852 0.099366 0.051000
v -0.041213 0.091511 0.054564
v -0.030948 0.096993 0.070478
v -0.025291 0.106256 0.062217
v -0.030573 0.101563 0.056941
v -0.036771 0.093342 0.062952
v -0.012990 0.114279 0.055368
v -0.018888 0.112619 0.066738
v -0.011890 0.118355 0.069696
v -0.007132 0.117797 0.056332
v -0.014477 0.112975 0.032751
v -0.014728 0.115105 0.029427
v -0.019061 0.111939 0.030992
v -0.018602 0.110307 0.033317
v -0.022956 0.107715 0.034046
v -0.022872 0.108404 0.033227
v -0.024655 0.108173 0.032584
v -0.024872 0.106936 0.034375
v -0.020922 0.108869 0.033731
v -0.021818 0.108190 0.035025
v -0.019515 0.109754 0.035778
v -0.015997 0.112939 0.036167
v -0.002507 0.121251 0.036758
v -0.001471 0.119236 0.031880
v -0.004867 0.117938 0.032023
v -0.006576 0.119854 0.036632
v -0.022963 0.109918 0.030509
v -0.020134 0.112396 0.028246
v -0.021608 0.111912 0.024876
v -0.025438 0.109336 0.028460
v -0.028530 0.107663 0.026116
v -0.030997 0.105740 0.030907
v -0.027376 0.107450 0.031710
v -0.023756 0.106914 0.036371
v -0.027848 0.105967 0.035109
v -0.026764 0.105150 0.038365
v -0.024416 0.106533 0.041534
v -0.021351 0.108666 0.038186
v -0.017853 0.112038 0.039618
v -0.020729 0.109702 0.044165
v -0.015468 0.113360 0.046109
v -0.013096 0.116101 0.040928
v -0.023829 0.109654 0.020991
v -0.032082 0.103930 0.036054
v -0.035615 0.102325 0.029628
v -0.031435 0.102888 0.041382
v -0.028989 0.103757 0.046029
v -0.019409 0.110208 0.053198
v -0.025008 0.106451 0.050099
v -0.023109 0.103116 0.076733
v -0.013848 0.107917 0.080721
v -0.039302 0.092758 -0.047732
v -0.030598 0.095760 -0.049609
v -0.039666 0.089481 -0.039680
v -0.035924 0.091580 -0.041101
v -0.036528 0.091746 -0.043863
v -0.041281 0.088727 -0.041780
v -0.052779 0.075163 -0.029222
v -0.054750 0.075895 -0.022475
v -0.048754 0.079230 -0.027881
v -0.047904 0.079616 -0.032006
v -0.041531 0.087781 -0.021365
v -0.039071 0.088686 -0.028721
v -0.042169 0.086040 -0.029171
v -0.045808 0.084405 -0.022091
v -0.035276 0.090725 -0.028715
v -0.036598 0.090509 -0.021994
v -0.031606 0.092336 -0.023553
v -0.031081 0.091963 -0.029308
v -0.029755 0.093283 -0.045180
v -0.030395 0.092987 -0.042028
v -0.024193 0.092473 -0.041799
v -0.022496 0.093181 -0.045114
v -0.014364 0.089845 -0.034770
v -0.011414 0.091944 -0.034701
v -0.011739 0.091650 -0.038993
v -0.015170 0.089970 -0.037263
v -0.015832 0.090779 -0.032861
v -0.013947 0.092503 -0.031360
v -0.032326 0.076211 -0.099975
v -0.046747 0.067394 -0.090319
v -0.026928 0.088584 -0.084526
v -0.058211 0.058913 -0.077434
v -0.064691 0.050796 -0.062634
v -0.058885 0.068911 0.038283
v -0.051563 0.081731 0.043286
v -0.050366 0.085866 0.033112
v -0.057110 0.065095 0.049639
v -0.049075 0.079909 0.054394
v -0.034884 0.081655 0.075129
v -0.043696 0.079752 0.065652
v -0.063745 0.048454 0.042239
v -0.061087 0.042324 0.051767
v -0.051860 0.061143 0.061464
v -0.066249 0.026480 0.039295
v -0.063915 0.017638 0.043203
v -0.056311 0.032914 0.062080
v -0.039106 0.043764 0.099740
v -0.052301 0.029304 0.094489
v -0.054081 0.025901 0.107588
v -0.041440 0.040933 0.112659
v -0.064422 0.054920 0.031728
v -0.067205 0.052493 -0.032075
v -0.069390 0.050800 -0.017995
v -0.061965 0.063579 -0.034110
v -0.068560 0.022903 -0.089818
v -0.073909 0.020502 -0.072703
v -0.069649 0.036345 -0.068118
v -0.063099 0.041809 -0.084881
v -0.040207 0.029846 -0.124681
v -0.056513 0.026572 -0.109421
v -0.051617 0.048984 -0.101321
v -0.036736 0.055264 -0.114278
v -0.077744 0.004765 -0.073225
v -0.072144 0.002250 -0.091125
v -0.074389 -0.019590 -0.086731
v -0.079254 -0.012245 -0.070377
v -0.060062 -0.001047 -0.111152
v -0.062973 -0.028834 -0.105360
v -0.063961 0.004298 0.040658
v -0.061658 0.010348 0.059263
v -0.059887 0.013200 0.075331
v -0.051338 0.032101 0.079247
v -0.045419 -0.035882 -0.121361
v -0.042163 -0.002345 -0.126882
v -0.067811 -0.056603 -0.040490
v -0.073464 -0.041388 -0.032667
v -0.076969 -0.033609 -0.048620
v -0.071636 -0.050322 -0.059543
v -0.058292 -0.072094 -0.047876
v -0.061641 -0.065879 -0.070749
v -0.055470 -0.050597 0.015580
v -0.045542 -0.064109 0.014540
v -0.040723 -0.054593 0.031424
v -0.049339 -0.041506 0.031542
v -0.050458 0.084212 -0.048888
v -0.054192 0.077428 -0.042513
v -0.048759 0.082809 -0.040528
v -0.045322 0.088059 -0.044569
v -0.063656 0.056973 -0.045642
v -0.058916 0.068168 -0.044106
v -0.072727 0.031385 -0.052717
v -0.076468 0.018049 -0.057442
v -0.080608 -0.008426 -0.056920
v -0.079445 0.005361 -0.058519
v -0.076493 -0.030150 -0.026271
v -0.078521 -0.025035 -0.036745
v -0.064870 -0.012982 0.032737
v -0.057509 -0.028876 0.032543
v -0.054971 -0.023451 0.051805
v -0.062176 -0.008477 0.054744
v -0.038607 -0.046252 0.048942
v -0.046443 -0.035635 0.050013
v -0.059769 -0.006230 0.087324
v -0.053528 -0.021685 0.084640
v -0.055297 -0.024555 0.098240
v -0.059508 -0.008788 0.100980
v -0.048225 -0.038183 0.097661
v -0.045391 -0.034489 0.083067
v -0.037087 -0.044821 0.083436
v -0.038305 -0.047624 0.098350
v -0.015471 0.059337 0.119480
v -0.027438 0.051464 0.116277
v -0.030177 0.048245 0.127819
v -0.016795 0.055350 0.130226
v -0.061226 -0.013592 0.113028
v -0.059159 -0.030041 0.108503
v -0.062087 -0.036200 0.015691
v -0.068453 -0.024251 0.014449
v -0.052292 -0.044093 0.108190
v -0.053546 -0.021060 0.069992
v -0.045663 -0.033222 0.068034
v -0.027636 -0.055221 0.048422
v -0.029962 -0.064087 0.031327
v -0.018784 0.101363 -0.013120
v -0.021726 0.093200 -0.027316
v -0.017498 0.092948 -0.029116
v -0.018503 0.091703 -0.032028
v -0.022256 0.092349 -0.031059
v -0.009599 0.102847 -0.068883
v -0.022876 0.098342 -0.069250
v -0.021050 0.102295 -0.056569
v -0.008209 0.104429 -0.053110
v -0.048915 0.090363 0.003373
v -0.043080 0.096118 0.013535
v -0.036848 0.099746 0.005300
v -0.039623 0.095966 -0.003578
v -0.044932 0.082498 -0.033739
v -0.043826 0.084591 -0.035887
v -0.046235 0.082042 -0.035889
v -0.041105 0.097621 0.027546
v -0.047418 0.091061 0.023266
v -0.069031 0.051059 -0.003015
v -0.056347 0.071989 -0.035060
v -0.019597 0.032982 -0.135405
v -0.018328 0.061752 -0.123130
v -0.020605 -0.002627 -0.138168
v -0.022820 -0.039408 -0.132483
v -0.046459 -0.079090 -0.080762
v -0.024993 -0.087907 -0.089082
v -0.022277 -0.095146 -0.059216
v -0.043537 -0.086062 -0.054523
v -0.032600 -0.074501 0.013203
v -0.026600 -0.052209 0.081851
v -0.027547 -0.053401 0.098407
v -0.016322 0.082089 -0.105390
v -0.012320 0.093019 -0.086347
v -0.068041 0.043544 -0.047974
v -0.060375 0.074846 -0.008203
v -0.056849 0.080844 -0.001409
v -0.052335 0.084107 -0.012603
v -0.055014 0.079231 -0.016607
v -0.063961 0.066378 0.001432
v -0.066554 0.054588 0.011046
v -0.069123 0.040202 0.020393
v -0.068440 0.033219 0.032402
v -0.074001 -0.038266 -0.076260
v -0.078408 -0.026620 -0.063038
v -0.047692 -0.062771 -0.104915
v -0.063899 -0.051939 -0.091380
v -0.079937 -0.020839 -0.052696
v -0.025313 -0.070017 -0.116302
v -0.009137 0.117341 0.014945
v -0.007383 0.116316 0.010351
v -0.016567 0.111919 0.015545
v -0.008111 0.118904 0.041685
v -0.009803 0.116042 0.047436
v -0.004556 0.117725 0.047906
v -0.003377 0.120485 0.041926
v -0.013384 0.092565 0.086850
v -0.023951 0.087287 0.082243
v -0.014477 0.064651 0.108774
v -0.025833 0.055808 0.105245
v -0.006919 0.119841 0.000778
v -0.007302 0.117746 0.001666
v -0.005177 0.118238 0.001304
v -0.005222 0.120304 0.000434
v -0.021564 0.109724 0.032067
v -0.004410 0.121763 0.023615
v -0.004568 0.120315 0.027649
v -0.001184 0.121131 0.027848
v -0.001040 0.122504 0.023933
v -0.041722 0.059161 0.076095
v -0.038707 0.048729 0.087182
v -0.059770 0.008994 0.104459
v -0.059598 0.012064 0.090638
v -0.060442 -0.005893 0.072135
v -0.038915 -0.044836 0.067331
v -0.027204 -0.052712 0.065621
v -0.014788 -0.058056 0.064239
v -0.015227 -0.061669 0.047681
v -0.025650 0.072138 0.087130
v -0.025606 0.061703 0.094963
v -0.014251 0.070076 0.098791
v -0.013727 0.079139 0.091732
v -0.001002 0.121885 0.003570
v -0.002043 0.119748 0.004943
v -0.000081 0.120844 0.007305
v 0.000494 0.123656 0.004683
v -0.008274 0.116115 0.003871
v -0.006249 0.116228 0.007047
v -0.005789 0.116225 0.004790
v -0.009171 0.117734 0.002449
v -0.008552 0.120481 0.000876
v -0.003464 0.125479 -0.000146
v -0.003028 0.130727 -0.000981
v -0.006582 0.123592 -0.000062
v -0.002909 0.120152 0.002212
v -0.003310 0.118348 0.003642
v -0.005290 0.116616 0.002839
v -0.007095 0.116496 0.002684
v -0.003825 0.123203 -0.000048
v -0.005714 0.121803 0.000155
v -0.003332 0.120950 -0.022057
v -0.004398 0.069387 0.111050
v -0.004273 0.074377 0.101091
v -0.022210 0.108111 0.033667
v -0.021285 0.096881 -0.049409
v -0.046335 0.089511 -0.011215
v -0.026016 0.097765 -0.013668
v -0.026447 0.095051 -0.019583
v -0.032367 0.094125 -0.016340
v -0.032204 0.097293 -0.008885
v -0.012544 0.097292 -0.046451
v -0.007800 0.096613 -0.040918
v -0.003983 0.103472 -0.042923
v -0.007790 0.097170 -0.034442
v -0.011124 0.096069 -0.029212
v -0.009473 0.102437 -0.027059
v -0.004595 0.106411 -0.034103
v -0.044200 0.085299 -0.039100
v -0.042174 0.087008 -0.037841
v -0.014581 0.099394 -0.022098
v -0.015745 0.095320 -0.025530
v -0.020831 0.095123 -0.022592
v -0.020058 0.098038 -0.017792
v -0.038947 0.092548 -0.013238
v -0.050730 0.077974 -0.035523
v -0.048150 0.081182 -0.024284
v -0.068110 -0.008021 0.019343
v -0.071641 -0.015828 0.008331
v -0.071323 0.013710 0.027279
v -0.070189 0.009226 0.024744
v -0.065361 0.011567 0.030111
v -0.068729 0.016660 0.031059
v -0.079351 -0.008869 -0.026628
v -0.078633 -0.004651 -0.027330
v -0.079042 -0.003929 -0.034290
v -0.079152 -0.011829 -0.033174
v -0.078794 0.002293 -0.029973
v -0.078575 0.002535 -0.026144
v -0.078081 0.006142 -0.025765
v -0.078302 0.004599 -0.033327
v -0.076696 0.012484 -0.030759
v -0.076947 0.015776 -0.042812
v -0.079163 0.005066 -0.044965
v -0.071459 0.036696 -0.029291
v -0.073663 0.025731 -0.037679
v -0.074345 0.018769 -0.025186
v -0.072875 0.024004 -0.016853
v -0.070840 0.024887 0.018727
v -0.070872 0.021603 0.027083
v -0.065512 0.002374 0.026511
v -0.054714 -0.073410 -0.025631
v -0.063698 -0.057909 -0.021014
v -0.069846 -0.043787 -0.016733
v -0.074065 -0.031531 -0.013452
v -0.040930 -0.086990 -0.029415
v -0.021102 -0.095870 -0.031623
v -0.072021 0.037834 -0.011819
v -0.072218 0.025835 -0.004807
v -0.059322 -0.055914 -0.002468
v -0.049892 -0.070244 -0.005079
v -0.065876 -0.041901 -0.000261
v -0.071312 -0.029674 -0.000018
v -0.036697 -0.082281 -0.007478
v -0.018947 -0.089761 -0.006676
v -0.017427 -0.080019 0.013577
v -0.075370 0.013469 0.018293
v -0.076387 0.014911 0.023988
v -0.073468 0.016527 0.025086
v -0.073028 0.017842 0.019092
v -0.071560 0.025444 0.007209
v -0.071086 0.037933 0.003660
v -0.003902 0.114553 -0.027987
v -0.004228 0.120841 0.070774
v -0.001913 0.119942 0.056340
v -0.003817 0.120236 0.014992
v -0.004288 0.121298 0.019391
v -0.000847 0.122058 0.020038
v -0.000479 0.121100 0.015787
v -0.015901 0.092132 -0.043030
v -0.016197 -0.070839 0.030678
v -0.014241 -0.056298 0.080282
v -0.015043 -0.057058 0.097185
v -0.041668 -0.053676 0.110297
v -0.029420 -0.059259 0.112008
v -0.000083 0.120454 0.011421
v -0.003070 0.119213 0.010855
v -0.003144 0.121971 0.000631
v -0.009394 0.118359 0.028124
v -0.003482 0.118031 0.005183
v -0.002811 0.118594 0.007576
v 0.001979 0.121905 0.007929
v 0.001644 0.120928 0.011833
v -0.026571 0.093222 -0.025562
v -0.026615 0.092427 -0.030192
v -0.001551 0.124327 0.001629
v -0.000382 0.127191 0.002468
v -0.044411 0.037262 0.124448
v -0.056360 0.021607 0.120449
v 0.001202 0.121441 0.027977
v 0.001215 0.122773 0.024113
v -0.073258 0.015731 -0.009022
v -0.074911 0.013422 -0.016586
v -0.076429 0.008071 -0.011027
v -0.074791 0.010092 -0.004423
v -0.005104 0.064093 0.121286
v -0.060703 0.003706 0.117077
v -0.016324 -0.062217 0.111517
v -0.044227 0.083758 -0.030209
v -0.045128 0.082361 -0.031773
v -0.018793 0.090895 -0.040253
v -0.011289 0.116958 0.036452
v -0.009483 0.116013 0.032196
v -0.004226 0.082549 0.093959
v 0.002091 0.124775 0.005270
v -0.077627 -0.001384 -0.018691
v -0.077198 -0.000276 -0.014767
v -0.079610 0.001972 -0.013797
v -0.079782 0.002351 -0.017374
v -0.080884 0.007367 -0.021273
v -0.082395 0.005441 -0.024830
v -0.083461 0.003832 -0.020900
v -0.081939 0.004836 -0.017802
v -0.077224 0.010183 -0.022532
v -0.078717 0.008198 -0.016974
v -0.084815 0.003453 -0.026170
v -0.084402 0.002104 -0.023191
v -0.078527 -0.000323 -0.027045
v -0.081838 0.002320 -0.027741
v -0.083222 -0.002483 -0.029133
v -0.087578 -0.000585 -0.027047
v -0.085473 -0.008864 -0.028521
v -0.090544 -0.006049 -0.026205
v -0.086202 -0.014273 -0.024182
v -0.091931 -0.011882 -0.022659
v -0.072698 0.017548 0.010713
v -0.072595 0.010388 0.010959
v -0.086363 -0.017024 -0.017714
v -0.092377 -0.015377 -0.017015
v -0.085909 -0.018632 -0.009854
v -0.091827 -0.016735 -0.009550
v -0.085198 -0.017715 -0.001433
v -0.090535 -0.015754 -0.001820
v -0.084045 -0.014553 0.007049
v -0.089195 -0.012585 0.005612
v -0.082228 -0.009402 0.016312
v -0.087334 -0.007334 0.012526
v -0.087857 -0.010964 -0.020624
v -0.086485 -0.007088 -0.023907
v -0.078452 -0.010863 -0.022501
v -0.085245 -0.001969 -0.024743
v -0.076515 -0.007401 -0.008499
v -0.075466 -0.006692 -0.006295
v -0.077910 -0.003455 -0.007397
v -0.075868 -0.005300 -0.009568
v -0.075890 0.006319 -0.001841
v -0.075891 0.006645 0.003745
v -0.074620 0.011053 0.003347
v -0.074203 0.006412 0.007937
v -0.073022 0.004804 0.003287
v -0.073279 0.004735 0.006620
v -0.072299 0.004179 -0.000631
v -0.073850 0.003193 0.008284
v -0.075094 0.004592 0.010019
v -0.072691 0.002477 0.007223
v -0.072168 0.003324 0.006176
v -0.071404 0.002279 0.004287
v -0.071531 -0.000201 0.001417
v -0.073225 0.016874 0.000655
v -0.072310 -0.004823 0.012781
v -0.075481 -0.009648 0.004797
v -0.084285 -0.001184 0.017853
v -0.080700 -0.001288 0.023568
v -0.078528 0.012653 0.027196
v -0.079997 0.006611 0.027496
v -0.077908 -0.012364 -0.016990
v -0.077985 -0.013873 -0.010186
v -0.070593 0.003205 0.018837
v -0.077111 -0.012784 -0.002979
v -0.085268 -0.006264 0.008646
v -0.082458 -0.001755 0.012313
v -0.087843 -0.010116 0.003632
v -0.076413 0.007064 0.013403
v -0.079647 0.002846 0.013906
v -0.081820 0.005103 0.019649
v -0.078994 0.010242 0.019435
v -0.079881 -0.001787 0.008690
v -0.083347 -0.004567 0.005736
v -0.076196 -0.003087 0.006520
v -0.079373 -0.005434 0.003596
v -0.074738 0.000438 0.008066
v -0.076937 0.001391 0.010282
v -0.072184 -0.003711 0.004628
v -0.074969 -0.006807 0.000498
v -0.072353 0.000221 0.006517
v -0.082350 -0.006119 0.000008
v -0.078833 -0.007005 -0.003044
v -0.082321 -0.005453 -0.006679
v -0.084954 -0.006311 -0.004109
v -0.086014 -0.007241 0.001816
v -0.087928 -0.009217 -0.002835
v -0.088276 -0.012867 -0.002497
v -0.088317 -0.010480 -0.008466
v -0.088545 -0.013872 -0.009312
v -0.086115 -0.007675 -0.008186
v -0.084357 -0.005392 -0.009254
v -0.088629 -0.013318 -0.015763
v -0.087857 -0.010220 -0.013932
v -0.086916 -0.008719 -0.018193
v -0.086465 -0.007570 -0.012366
v -0.085383 -0.006442 -0.015668
v -0.085105 -0.005939 -0.011663
v -0.084052 -0.004780 -0.013470
v -0.081981 0.000436 -0.022206
v -0.080790 0.002067 -0.020313
v -0.083533 -0.002557 -0.022266
v -0.082080 -0.002455 -0.019643
v -0.081072 -0.001168 -0.021279
v -0.079718 -0.000828 -0.020113
v -0.081131 -0.001792 -0.017238
v -0.079097 -0.002980 -0.015034
v -0.083704 -0.004541 -0.017988
v -0.082726 -0.002880 -0.015233
v -0.085154 -0.006017 -0.020969
v -0.080626 -0.005147 -0.010922
v -0.081377 -0.003680 -0.012839
v -0.082990 -0.004200 -0.011162
v -0.082111 -0.004848 -0.009575
v -0.075519 0.004974 -0.006102
v -0.073651 0.001422 -0.004108
v -0.073746 -0.002668 -0.001473
v -0.005716 0.059661 0.132833
v -0.078618 -0.017285 -0.028544
v -0.077431 -0.020546 -0.021066
v -0.080072 -0.016364 -0.042658
v -0.077100 -0.005275 -0.012903
v -0.075093 -0.008168 -0.004511
v -0.080111 -0.006164 -0.008458
v -0.076593 -0.003361 -0.014029
v -0.076744 -0.002888 -0.015257
v -0.080260 -0.005714 -0.044927
v -0.075727 -0.021138 -0.011974
v -0.073860 -0.019594 -0.002504
v -0.078822 -0.000207 -0.030681
v -0.000337 0.118908 0.047988
v 0.000149 0.121347 0.041970
v 0.001297 0.122253 0.020284
v 0.001446 0.121326 0.016289
v -0.038624 0.088697 -0.038170
v -0.035503 0.090529 -0.039364
v -0.037877 0.088395 -0.031838
v -0.040459 0.086666 -0.032034
v -0.030696 0.090996 -0.032166
v -0.035085 0.090327 -0.031577
v -0.030753 0.091669 -0.040121
v -0.025318 0.091378 -0.039881
v -0.017580 0.088967 -0.035866
v -0.015896 0.089193 -0.034519
v -0.016779 0.089787 -0.033570
v -0.019047 0.089898 -0.033481
v -0.022746 0.090904 -0.032995
v -0.043246 0.083833 -0.034406
v -0.042352 0.084924 -0.035690
v -0.040788 0.086755 -0.036994
v -0.026649 0.091284 -0.032587
v -0.042326 0.084895 -0.032574
v -0.043240 0.083824 -0.033294
v -0.020816 0.090037 -0.038569
v -0.030989 0.091059 -0.034580
v -0.034959 0.090052 -0.034281
v -0.031138 0.091365 -0.037481
v -0.026327 0.091457 -0.037517
v -0.020633 0.090232 -0.034666
v -0.023138 0.090937 -0.034775
v -0.037980 0.088389 -0.033947
v -0.026827 0.091332 -0.034839
v -0.035408 0.090216 -0.036864
v -0.022350 0.090794 -0.036800
v -0.020074 0.089934 -0.035811
v -0.042505 0.084465 -0.034276
v -0.042515 0.084469 -0.033837
v -0.038267 0.088417 -0.036108
v -0.041640 0.085385 -0.033776
v -0.040121 0.086747 -0.033825
v -0.040281 0.086679 -0.035436
v -0.041695 0.085311 -0.034796
v -0.004420 0.095267 0.088671
v -0.004898 0.110221 0.082064
v 0.000589 0.121978 0.036682
v 0.000990 0.119703 0.031993
v -0.079873 0.005206 -0.014447
v -0.078090 0.004119 -0.011158
v -0.077217 0.002256 -0.007791
v -0.076613 -0.000939 -0.005429
v -0.075932 -0.004255 -0.003527
v -0.074416 -0.007421 -0.003086
v -0.078889 -0.000586 -0.008864
v -0.076130 -0.003790 -0.011757
v -0.076806 -0.001632 -0.013087
v -0.079300 0.001141 -0.011265
s 1
f 2 3 1
f 1 3 4
f 3 2 5
f 5 2 6
f 3 7 4
f 4 7 8
f 10 11 9
f 9 11 12
f 14 15 13
f 13 15 16
f 18 19 17
f 17 19 20
f 22 23 21
f 21 23 24
f 26 18 25
f 25 18 17
f 27 28 17
f 17 28 25
f 30 31 29
f 29 31 32
f 34 35 33
f 33 35 36
f 21 24 37
f 37 24 38
f 40 31 39
f 39 31 38
f 34 33 28
f 28 33 25
f 41 42 44
f 44 42 43
f 36 45 33
f 33 45 25
f 46 47 49
f 49 47 48
f 51 52 50
f 50 52 53
f 55 53 54
f 54 53 52
f 57 58 56
f 56 58 59
f 61 62 60
f 60 62 63
f 65 66 64
f 64 66 67
f 69 70 68
f 68 70 71
f 65 73 72
f 72 73 74
f 64 75 65
f 65 75 73
f 77 78 76
f 76 78 79
f 80 81 83
f 83 81 82
f 81 85 84
f 84 85 86
f 88 89 87
f 87 89 69
f 88 87 90
f 90 87 91
f 93 94 92
f 92 94 95
f 96 84 43
f 43 84 44
f 51 98 97
f 97 98 86
f 97 99 51
f 51 99 52
f 54 52 100
f 100 52 99
f 58 101 59
f 59 101 102
f 62 103 63
f 63 103 104
f 105 106 6
f 6 106 5
f 108 109 107
f 107 109 110
f 112 113 111
f 111 113 114
f 116 117 115
f 115 117 118
f 120 121 119
f 119 121 122
f 124 125 123
f 123 125 126
f 128 129 127
f 127 129 130
f 130 131 127
f 127 131 132
f 134 1 133
f 133 1 135
f 1 4 135
f 135 4 136
f 4 8 136
f 136 8 137
f 138 139 15
f 15 139 140
f 140 139 141
f 141 139 142
f 144 57 143
f 143 57 56
f 145 146 141
f 141 146 147
f 146 149 148
f 148 149 150
f 152 153 151
f 151 153 154
f 141 147 140
f 140 147 155
f 157 11 156
f 156 11 158
f 160 161 159
f 159 161 162
f 164 165 163
f 163 165 166
f 165 160 166
f 166 160 159
f 168 169 167
f 167 169 170
f 169 171 170
f 170 171 172
f 149 173 150
f 150 173 174
f 175 176 149
f 149 176 173
f 178 172 177
f 177 172 171
f 180 181 179
f 179 181 182
f 184 180 183
f 183 180 179
f 186 187 185
f 185 187 188
f 190 191 189
f 189 191 192
f 7 193 8
f 8 193 194
f 196 162 195
f 195 162 161
f 197 168 198
f 198 168 167
f 181 199 182
f 182 199 200
f 202 203 201
f 201 203 204
f 187 186 205
f 205 186 206
f 208 209 207
f 207 209 210
f 212 213 211
f 211 213 214
f 215 216 218
f 218 216 217
f 220 209 219
f 219 209 208
f 204 186 221
f 221 186 185
f 201 204 222
f 222 204 221
f 223 211 220
f 220 211 209
f 224 225 214
f 214 225 210
f 203 206 204
f 204 206 186
f 227 187 226
f 226 187 205
f 27 228 21
f 21 228 22
f 230 231 229
f 229 231 232
f 234 235 233
f 233 235 236
f 238 239 237
f 237 239 240
f 119 122 118
f 118 122 115
f 112 242 241
f 241 242 243
f 98 51 244
f 244 51 50
f 245 138 14
f 14 138 15
f 11 10 158
f 158 10 246
f 89 85 69
f 69 85 70
f 11 157 12
f 12 157 247
f 249 164 248
f 248 164 163
f 177 250 178
f 178 250 251
f 253 254 252
f 252 254 255
f 187 227 188
f 188 227 256
f 212 257 213
f 213 257 258
f 260 134 259
f 259 134 133
f 165 164 135
f 135 164 133
f 160 165 136
f 136 165 135
f 136 137 160
f 160 137 161
f 137 261 161
f 161 261 195
f 263 264 262
f 262 264 265
f 13 16 266
f 266 16 267
f 268 267 155
f 155 267 16
f 147 269 155
f 155 269 268
f 162 196 167
f 167 196 198
f 167 170 162
f 162 170 159
f 170 172 159
f 159 172 166
f 172 178 166
f 166 178 163
f 178 251 163
f 163 251 248
f 168 270 169
f 169 270 271
f 272 273 171
f 171 273 177
f 271 272 169
f 169 272 171
f 168 197 270
f 270 197 274
f 250 177 275
f 275 177 273
f 277 45 276
f 276 45 278
f 280 281 279
f 279 281 282
f 284 104 283
f 283 104 103
f 285 215 286
f 286 215 218
f 288 289 287
f 287 289 290
f 291 80 66
f 66 80 83
f 293 294 292
f 292 294 295
f 73 91 74
f 74 91 87
f 91 73 92
f 92 73 75
f 279 77 280
f 280 77 76
f 80 291 70
f 70 291 71
f 277 47 96
f 96 47 82
f 297 175 296
f 296 175 149
f 299 154 298
f 298 154 153
f 225 300 210
f 210 300 207
f 224 301 206
f 206 301 205
f 210 209 214
f 214 209 211
f 226 205 302
f 302 205 301
f 304 305 303
f 303 305 306
f 308 309 307
f 307 309 310
f 72 291 65
f 65 291 66
f 66 83 67
f 67 83 46
f 312 313 311
f 311 313 314
f 316 317 315
f 315 317 36
f 29 318 35
f 35 318 319
f 321 32 320
f 320 32 322
f 311 314 323
f 323 314 324
f 315 325 316
f 316 325 326
f 318 287 319
f 319 287 290
f 328 321 327
f 327 321 320
f 329 330 39
f 39 330 331
f 332 333 40
f 40 333 322
f 309 334 285
f 285 334 335
f 236 2 134
f 134 2 1
f 260 336 233
f 233 336 337
f 237 14 265
f 265 14 13
f 84 86 44
f 44 86 98
f 189 192 7
f 7 192 193
f 44 98 41
f 41 98 244
f 237 240 14
f 14 240 245
f 7 3 189
f 189 3 5
f 338 71 72
f 72 71 291
f 262 265 266
f 266 265 13
f 124 123 339
f 339 123 105
f 123 109 105
f 105 109 106
f 189 5 190
f 190 5 106
f 111 114 12
f 12 114 9
f 264 340 265
f 265 340 237
f 342 343 341
f 341 343 344
f 6 235 105
f 105 235 339
f 234 346 345
f 345 346 347
f 349 350 348
f 348 350 351
f 107 352 108
f 108 352 353
f 355 356 354
f 354 356 357
f 237 340 238
f 238 340 358
f 12 247 111
f 111 247 359
f 264 263 116
f 116 263 360
f 361 362 222
f 222 362 201
f 364 365 363
f 363 365 366
f 368 369 367
f 367 369 370
f 372 373 371
f 371 373 374
f 375 376 372
f 372 376 377
f 378 379 381
f 381 379 380
f 382 383 269
f 269 383 268
f 150 174 365
f 365 174 384
f 380 377 381
f 381 377 376
f 271 270 180
f 180 270 181
f 273 272 252
f 252 272 184
f 272 271 184
f 184 271 180
f 181 270 274
f 252 255 273
f 273 255 275
f 254 385 255
f 255 385 386
f 387 388 179
f 179 388 183
f 389 387 182
f 182 387 179
f 182 200 389
f 389 200 390
f 388 391 183
f 183 391 253
f 391 392 253
f 253 392 254
f 394 379 393
f 393 379 378
f 185 188 395
f 395 188 396
f 221 185 397
f 397 185 395
f 222 221 398
f 398 221 397
f 188 256 396
f 396 256 399
f 400 401 256
f 256 401 399
f 402 403 405
f 405 403 404
f 148 150 364
f 364 150 365
f 393 406 394
f 394 406 407
f 158 246 393
f 393 246 406
f 342 19 238
f 238 19 239
f 23 22 350
f 350 22 354
f 244 50 245
f 245 50 138
f 55 142 53
f 53 142 139
f 145 144 296
f 296 144 143
f 355 228 341
f 341 228 20
f 41 240 42
f 42 240 239
f 283 308 284
f 284 308 307
f 349 409 408
f 408 409 410
f 244 245 41
f 41 245 240
f 268 383 406
f 406 383 407
f 346 411 349
f 349 411 409
f 251 412 248
f 248 412 413
f 275 414 250
f 250 414 415
f 25 45 26
f 26 45 277
f 43 26 96
f 96 26 277
f 416 417 61
f 61 417 62
f 329 24 408
f 408 24 23
f 31 40 32
f 32 40 322
f 39 38 329
f 329 38 24
f 37 38 30
f 30 38 31
f 418 419 421
f 421 419 420
f 78 295 79
f 79 295 294
f 124 339 422
f 422 339 345
f 232 131 357
f 357 131 351
f 2 236 6
f 6 236 235
f 252 184 253
f 253 184 183
f 227 423 256
f 256 423 400
f 423 227 305
f 305 227 226
f 424 258 425
f 425 258 257
f 426 427 212
f 212 427 257
f 259 133 249
f 249 133 164
f 419 418 428
f 428 418 429
f 327 430 328
f 328 430 288
f 49 431 46
f 46 431 67
f 306 302 424
f 424 302 258
f 313 432 314
f 314 432 433
f 32 321 29
f 29 321 318
f 324 314 433
f 287 318 328
f 328 318 321
f 134 260 236
f 236 260 233
f 345 339 234
f 234 339 235
f 357 351 354
f 354 351 350
f 408 23 349
f 349 23 350
f 317 278 36
f 36 278 45
f 432 313 429
f 429 313 428
f 435 428 434
f 434 428 313
f 42 239 18
f 18 239 19
f 43 42 26
f 26 42 18
f 121 120 436
f 436 120 437
f 302 301 258
f 258 301 213
f 110 109 126
f 126 109 123
f 238 358 342
f 342 358 343
f 341 20 342
f 342 20 19
f 322 438 320
f 320 438 439
f 320 439 327
f 327 439 430
f 333 440 322
f 322 440 438
f 289 288 323
f 323 288 430
f 115 340 116
f 116 340 264
f 146 145 149
f 149 145 296
f 15 140 16
f 16 140 155
f 441 442 152
f 152 442 153
f 225 224 203
f 203 224 206
f 175 297 154
f 154 297 151
f 293 443 294
f 294 443 444
f 248 413 249
f 249 413 445
f 446 447 400
f 400 447 401
f 388 387 396
f 396 387 395
f 387 389 395
f 395 389 397
f 391 388 399
f 399 388 396
f 401 392 399
f 399 392 391
f 255 386 275
f 275 386 414
f 449 450 448
f 448 450 451
f 335 452 285
f 285 452 215
f 453 298 442
f 442 298 153
f 211 223 212
f 212 223 426
f 425 257 454
f 454 257 427
f 266 10 262
f 262 10 9
f 360 113 456
f 456 113 455
f 8 194 137
f 137 194 261
f 10 266 246
f 246 266 267
f 203 202 225
f 225 202 300
f 262 9 263
f 263 9 114
f 108 353 190
f 190 353 191
f 389 390 397
f 397 390 398
f 457 422 128
f 128 422 129
f 156 158 378
f 378 158 393
f 347 346 348
f 348 346 349
f 447 458 401
f 401 458 392
f 364 382 148
f 148 382 269
f 55 54 57
f 57 54 58
f 75 64 459
f 459 64 460
f 100 90 101
f 101 90 95
f 101 58 100
f 100 58 54
f 142 55 144
f 144 55 57
f 147 146 269
f 269 146 148
f 459 93 75
f 75 93 92
f 144 145 142
f 142 145 141
f 228 27 20
f 20 27 17
f 154 299 175
f 175 299 176
f 214 213 224
f 224 213 301
f 424 461 306
f 306 461 303
f 285 286 309
f 309 286 310
f 462 334 308
f 308 334 309
f 302 306 226
f 226 306 305
f 37 28 21
f 21 28 27
f 29 35 30
f 30 35 34
f 30 34 37
f 37 34 28
f 344 436 356
f 356 436 229
f 325 290 326
f 326 290 289
f 311 439 312
f 312 439 438
f 35 319 36
f 36 319 315
f 439 311 430
f 430 311 323
f 315 319 325
f 325 319 290
f 440 463 438
f 438 463 312
f 341 344 355
f 355 344 356
f 360 456 116
f 116 456 117
f 354 22 355
f 355 22 228
f 326 289 324
f 324 289 323
f 74 87 68
f 68 87 69
f 50 53 138
f 138 53 139
f 268 406 267
f 267 406 246
f 190 106 108
f 108 106 109
f 241 455 112
f 112 455 113
f 358 122 343
f 343 122 121
f 129 347 130
f 130 347 348
f 348 351 130
f 130 351 131
f 229 232 356
f 356 232 357
f 340 115 358
f 358 115 122
f 111 359 112
f 112 359 242
f 125 124 457
f 457 124 422
f 231 132 232
f 232 132 131
f 343 121 344
f 344 121 436
f 263 114 360
f 360 114 113
f 347 129 345
f 345 129 422
f 230 229 437
f 437 229 436
f 464 446 423
f 423 446 400
f 465 466 468
f 468 466 467
f 470 471 469
f 469 471 472
f 469 472 373
f 373 472 374
f 474 469 473
f 473 469 373
f 471 475 472
f 472 475 476
f 472 477 374
f 374 477 478
f 477 472 476
f 479 480 476
f 476 480 477
f 473 373 377
f 377 373 372
f 481 482 479
f 479 482 480
f 483 484 481
f 481 484 482
f 403 402 485
f 485 402 486
f 487 488 483
f 483 488 484
f 487 489 488
f 488 489 490
f 489 491 490
f 490 491 492
f 491 493 492
f 492 493 494
f 493 495 494
f 494 495 496
f 497 498 481
f 481 498 483
f 484 499 482
f 482 499 367
f 370 480 367
f 367 480 482
f 480 370 477
f 477 370 478
f 500 497 479
f 479 497 481
f 451 473 380
f 380 473 377
f 448 451 379
f 379 451 380
f 501 502 504
f 504 502 503
f 449 505 507
f 507 505 506
f 486 508 505
f 505 508 506
f 508 509 506
f 506 509 510
f 511 507 510
f 510 507 506
f 509 508 512
f 512 508 513
f 515 509 514
f 514 509 512
f 509 515 510
f 510 515 516
f 510 516 511
f 511 516 517
f 486 505 485
f 485 505 518
f 505 449 518
f 518 449 448
f 383 382 403
f 403 382 404
f 363 404 364
f 364 404 382
f 403 485 383
f 383 485 407
f 519 520 361
f 361 520 362
f 522 496 521
f 521 496 495
f 450 474 451
f 451 474 473
f 363 366 523
f 523 366 524
f 525 499 488
f 488 499 484
f 488 490 525
f 525 490 526
f 496 522 520
f 520 522 527
f 494 496 519
f 519 496 520
f 492 494 528
f 528 494 519
f 529 530 495
f 495 530 521
f 490 492 526
f 526 492 528
f 529 495 531
f 531 495 493
f 533 534 532
f 532 534 535
f 523 524 533
f 533 524 534
f 486 402 532
f 532 402 533
f 529 536 530
f 530 536 537
f 536 538 537
f 537 538 539
f 540 541 539
f 539 541 537
f 530 537 535
f 535 537 541
f 542 539 543
f 543 539 538
f 539 542 540
f 540 542 544
f 541 540 513
f 513 540 512
f 540 544 512
f 512 544 514
f 546 547 545
f 545 547 548
f 549 550 531
f 531 550 551
f 550 549 552
f 552 549 553
f 546 550 554
f 554 550 552
f 547 546 555
f 555 546 554
f 498 556 558
f 558 556 557
f 559 557 560
f 560 557 556
f 561 562 560
f 560 562 559
f 557 559 552
f 552 559 554
f 559 562 554
f 554 562 555
f 558 557 553
f 553 557 552
f 475 471 563
f 563 471 564
f 565 563 567
f 567 563 566
f 471 470 564
f 564 470 466
f 564 466 568
f 568 466 465
f 568 465 569
f 569 465 570
f 569 571 567
f 567 571 572
f 573 565 572
f 572 565 567
f 574 575 577
f 577 575 576
f 571 561 572
f 572 561 560
f 556 573 560
f 560 573 572
f 573 556 497
f 497 556 498
f 565 573 500
f 500 573 497
f 563 565 475
f 475 565 500
f 553 489 558
f 558 489 487
f 531 493 549
f 549 493 491
f 489 553 491
f 491 553 549
f 394 407 518
f 518 407 485
f 518 448 394
f 394 448 379
f 545 548 538
f 538 548 543
f 551 545 536
f 536 545 538
f 536 529 551
f 551 529 531
f 507 578 449
f 449 578 450
f 511 579 507
f 507 579 578
f 511 517 579
f 579 517 580
f 584 200 583
f 583 200 199
f 475 500 476
f 476 500 479
f 498 558 483
f 483 558 487
f 545 551 546
f 546 551 550
f 298 453 208
f 208 453 219
f 368 583 585
f 585 583 199
f 523 405 363
f 363 405 404
f 523 533 405
f 405 533 402
f 298 208 299
f 299 208 207
f 299 207 176
f 176 207 300
f 176 300 173
f 173 300 202
f 173 202 174
f 174 202 201
f 577 570 574
f 574 570 586
f 555 562 576
f 576 562 561
f 504 587 501
f 501 587 548
f 517 542 580
f 580 542 543
f 515 514 516
f 516 514 544
f 542 517 544
f 544 517 516
f 561 571 576
f 576 571 577
f 571 569 577
f 577 569 570
f 501 548 588
f 588 548 547
f 589 590 570
f 570 590 586
f 369 368 591
f 591 368 585
f 372 369 375
f 375 369 591
f 576 575 555
f 555 575 547
f 367 499 368
f 368 499 583
f 584 583 525
f 525 583 499
f 592 584 526
f 526 584 525
f 520 527 362
f 362 527 384
f 361 593 519
f 519 593 528
f 371 594 372
f 372 594 369
f 369 594 370
f 370 594 478
f 594 371 478
f 478 371 374
f 593 592 528
f 528 592 526
f 431 460 67
f 67 460 64
f 68 338 74
f 74 338 72
f 68 71 338
f 287 328 288
f 441 152 217
f 217 152 218
f 151 286 152
f 152 286 218
f 297 310 151
f 151 310 286
f 296 307 297
f 297 307 310
f 296 143 307
f 307 143 284
f 143 56 284
f 284 56 104
f 56 59 104
f 104 59 63
f 59 102 63
f 63 102 60
f 102 94 60
f 60 94 282
f 93 459 279
f 279 459 77
f 459 460 77
f 77 460 78
f 460 431 78
f 78 431 295
f 431 49 295
f 295 49 292
f 48 421 49
f 49 421 292
f 276 278 418
f 418 278 429
f 317 432 278
f 278 432 429
f 432 317 433
f 433 317 316
f 326 324 316
f 316 324 433
f 277 276 47
f 47 276 48
f 84 96 81
f 81 96 82
f 80 70 81
f 81 70 85
f 99 97 88
f 88 97 89
f 90 100 88
f 88 100 99
f 101 95 102
f 102 95 94
f 595 596 280
f 280 596 281
f 97 86 89
f 89 86 85
f 60 282 61
f 61 282 281
f 83 82 46
f 46 82 47
f 293 292 420
f 420 292 421
f 419 597 420
f 420 597 598
f 92 95 91
f 91 95 90
f 279 282 93
f 93 282 94
f 276 418 48
f 48 418 421
f 107 110 600
f 600 110 599
f 117 601 118
f 118 601 602
f 119 603 120
f 120 603 604
f 125 605 126
f 126 605 606
f 127 607 128
f 128 607 608
f 127 132 607
f 607 132 609
f 231 230 611
f 611 230 610
f 118 602 119
f 119 602 603
f 241 243 613
f 613 243 612
f 600 614 107
f 107 614 352
f 120 604 437
f 437 604 615
f 126 606 110
f 110 606 599
f 455 616 456
f 456 616 617
f 128 608 457
f 457 608 618
f 456 617 117
f 117 617 601
f 613 616 241
f 241 616 455
f 457 618 125
f 125 618 605
f 132 231 609
f 609 231 611
f 230 437 610
f 610 437 615
f 611 608 609
f 609 608 607
f 604 603 620
f 620 603 619
f 605 621 606
f 606 621 622
f 611 610 624
f 624 610 623
f 603 602 619
f 619 602 625
f 604 620 615
f 615 620 626
f 606 622 599
f 599 622 627
f 608 628 618
f 618 628 629
f 618 629 605
f 605 629 621
f 610 615 623
f 623 615 626
f 608 611 628
f 628 611 624
f 631 616 630
f 630 616 613
f 628 624 629
f 629 624 623
f 629 623 621
f 621 623 626
f 621 626 622
f 622 626 620
f 627 622 619
f 619 622 620
f 627 632 599
f 599 632 600
f 634 601 633
f 633 601 617
f 632 635 600
f 600 635 614
f 616 631 617
f 617 631 633
f 602 601 625
f 625 601 634
f 619 625 627
f 627 625 632
f 613 612 630
f 630 612 636
f 174 201 384
f 384 201 362
f 200 584 390
f 390 584 592
f 592 593 390
f 390 593 398
f 593 361 398
f 398 361 222
f 61 281 416
f 416 281 596
f 283 103 637
f 637 103 638
f 76 79 639
f 639 79 640
f 280 76 595
f 595 76 639
f 642 335 641
f 641 335 334
f 644 417 643
f 643 417 416
f 646 435 645
f 645 435 434
f 428 435 419
f 419 435 597
f 420 598 293
f 293 598 443
f 79 294 640
f 640 294 444
f 648 444 647
f 647 444 443
f 642 649 335
f 335 649 452
f 216 215 582
f 582 215 452
f 308 283 462
f 462 283 637
f 641 334 650
f 650 334 462
f 103 62 638
f 638 62 417
f 313 312 434
f 434 312 463
f 652 653 595
f 595 653 596
f 654 655 597
f 597 655 598
f 416 596 643
f 643 596 653
f 637 638 657
f 657 638 656
f 249 445 259
f 259 445 658
f 425 659 424
f 424 659 461
f 408 410 329
f 329 410 330
f 39 331 40
f 40 331 332
f 305 304 423
f 423 304 464
f 385 254 458
f 458 254 392
f 250 415 251
f 251 415 412
f 233 337 234
f 234 337 660
f 435 646 597
f 597 646 654
f 443 598 647
f 647 598 655
f 661 640 648
f 648 640 444
f 452 649 582
f 582 649 651
f 234 660 346
f 346 660 411
f 637 657 462
f 462 657 650
f 259 658 260
f 260 658 336
f 638 417 656
f 656 417 644
f 463 662 434
f 434 662 645
f 454 581 425
f 425 581 659
f 662 463 440
f 630 636 631
f 631 636 633
f 635 632 634
f 634 632 625
f 634 633 635
f 635 633 636
f 612 614 636
f 636 614 635
f 243 352 612
f 612 352 614
f 242 353 243
f 243 353 352
f 359 191 242
f 242 191 353
f 247 192 359
f 359 192 191
f 157 193 247
f 247 193 192
f 156 194 157
f 157 194 193
f 378 261 156
f 156 261 194
f 378 381 261
f 261 381 195
f 195 381 196
f 196 381 376
f 196 376 198
f 198 376 375
f 375 591 198
f 198 591 197
f 591 585 197
f 197 585 274
f 181 274 199
f 199 274 585
f 568 566 564
f 564 566 563
f 568 569 566
f 566 569 567
f 501 588 586
f 586 588 574
f 547 575 588
f 588 575 574
f 663 470 474
f 474 470 469
f 450 578 664
f 664 578 665
f 578 579 665
f 665 579 666
f 579 580 666
f 666 580 667
f 667 580 668
f 668 580 543
f 470 663 466
f 466 663 467
f 666 667 503
f 503 667 504
f 503 669 666
f 666 669 665
f 669 503 670
f 670 503 502
f 672 669 671
f 671 669 670
f 664 665 672
f 672 665 669
f 468 589 465
f 465 589 570
f 671 670 590
f 590 670 586
f 667 668 504
f 504 668 587
f 668 543 587
f 587 543 548
f 450 664 474
f 474 664 663
f 672 467 664
f 664 467 663
f 671 468 672
f 672 468 467
f 468 671 589
f 589 671 590
f 501 586 502
f 502 586 670
f 527 366 384
f 384 366 365
f 522 524 527
f 527 524 366
f 521 534 522
f 522 534 524
f 530 535 521
f 521 535 534
f 508 486 513
f 513 486 532
f 513 532 541
f 541 532 535
f 640 661 639
f 639 661 673
f 595 639 652
f 652 639 673
f 675 676 674
f 674 676 677
f 679 677 678
f 678 677 676
f 680 681 675
f 675 681 676
f 683 684 682
f 682 684 685
f 687 688 686
f 686 688 689
f 691 692 690
f 690 692 693
f 695 696 694
f 694 696 697
f 690 693 698
f 698 693 699
f 698 700 690
f 690 700 701
f 703 704 702
f 702 704 705
f 707 708 706
f 706 708 709
f 711 695 710
f 710 695 694
f 711 704 712
f 712 704 713
f 698 706 700
f 700 706 709
f 714 715 717
f 717 715 716
f 698 718 706
f 706 718 707
f 719 720 722
f 722 720 721
f 724 725 723
f 723 725 726
f 725 724 727
f 727 724 728
f 730 731 729
f 729 731 732
f 734 735 733
f 733 735 736
f 738 739 737
f 737 739 740
f 742 743 741
f 741 743 744
f 746 747 745
f 745 747 740
f 747 748 740
f 740 748 737
f 750 751 749
f 749 751 752
f 753 754 756
f 756 754 755
f 758 759 757
f 757 759 756
f 744 761 760
f 760 761 762
f 764 760 763
f 763 760 762
f 766 767 765
f 765 767 768
f 769 716 757
f 757 716 715
f 758 771 770
f 770 771 726
f 725 772 726
f 726 772 770
f 772 725 773
f 773 725 727
f 774 775 730
f 730 775 731
f 776 777 734
f 734 777 735
f 678 778 679
f 679 778 779
f 781 782 780
f 780 782 783
f 785 786 784
f 784 786 787
f 789 790 788
f 788 790 791
f 793 794 792
f 792 794 795
f 797 798 796
f 796 798 799
f 801 802 800
f 800 802 803
f 804 805 800
f 800 805 801
f 807 674 806
f 806 674 808
f 809 675 807
f 807 675 674
f 810 680 809
f 809 680 675
f 811 812 688
f 688 812 813
f 815 812 814
f 814 812 811
f 729 732 816
f 816 732 817
f 818 819 814
f 814 819 820
f 822 823 821
f 821 823 819
f 825 826 824
f 824 826 827
f 828 818 811
f 811 818 814
f 830 684 829
f 829 684 831
f 833 834 832
f 832 834 835
f 837 838 836
f 836 838 839
f 832 835 837
f 837 835 838
f 841 842 840
f 840 842 843
f 844 845 841
f 841 845 842
f 846 847 822
f 822 847 823
f 847 848 823
f 823 848 849
f 845 844 850
f 850 844 851
f 853 854 852
f 852 854 855
f 852 855 856
f 856 855 857
f 859 860 858
f 858 860 861
f 863 864 862
f 862 864 865
f 866 867 680
f 680 867 681
f 834 833 868
f 868 833 869
f 870 871 843
f 843 871 840
f 872 873 853
f 853 873 854
f 875 876 874
f 874 876 877
f 879 861 878
f 878 861 860
f 881 882 880
f 880 882 883
f 885 886 884
f 884 886 887
f 888 889 891
f 891 889 890
f 883 882 892
f 892 882 893
f 858 861 894
f 894 861 875
f 894 875 895
f 895 875 874
f 882 884 893
f 893 884 896
f 881 897 885
f 885 897 898
f 861 879 875
f 875 879 876
f 878 860 899
f 899 860 900
f 697 901 694
f 694 901 701
f 903 904 902
f 902 904 905
f 907 908 906
f 906 908 909
f 911 912 910
f 910 912 913
f 788 793 789
f 789 793 792
f 915 916 914
f 914 916 787
f 723 726 917
f 917 726 771
f 688 813 689
f 689 813 918
f 919 685 830
f 830 685 684
f 743 759 744
f 744 759 761
f 920 831 683
f 683 831 684
f 836 839 921
f 921 839 922
f 923 924 851
f 851 924 850
f 926 927 925
f 925 927 928
f 929 900 859
f 859 900 860
f 887 886 931
f 931 886 930
f 806 808 932
f 932 808 933
f 806 839 807
f 807 839 838
f 807 838 809
f 809 838 835
f 834 810 835
f 835 810 809
f 868 934 834
f 834 934 810
f 936 937 935
f 935 937 938
f 940 687 939
f 939 687 686
f 687 940 828
f 828 940 941
f 941 942 828
f 828 942 818
f 833 840 869
f 869 840 871
f 832 841 833
f 833 841 840
f 837 844 832
f 832 844 841
f 836 851 837
f 837 851 844
f 921 923 836
f 836 923 851
f 843 842 944
f 944 842 943
f 850 945 845
f 845 945 946
f 845 946 842
f 842 946 943
f 947 870 944
f 944 870 843
f 945 850 948
f 948 850 924
f 950 718 949
f 949 718 951
f 953 954 952
f 952 954 955
f 777 776 956
f 956 776 957
f 958 959 888
f 888 959 889
f 961 962 960
f 960 962 963
f 964 739 753
f 753 739 754
f 966 967 965
f 965 967 968
f 760 764 746
f 746 764 747
f 748 747 765
f 765 747 764
f 749 752 955
f 955 752 952
f 742 964 743
f 743 964 753
f 755 722 769
f 769 722 951
f 823 849 969
f 969 849 970
f 826 825 971
f 971 825 972
f 880 973 881
f 881 973 897
f 878 974 879
f 879 974 898
f 884 882 885
f 885 882 881
f 974 878 975
f 975 878 899
f 976 977 303
f 303 977 304
f 979 980 978
f 978 980 981
f 739 964 740
f 740 964 745
f 719 754 738
f 738 754 739
f 983 984 982
f 982 984 985
f 707 987 986
f 986 987 988
f 989 990 708
f 708 990 702
f 992 703 991
f 991 703 993
f 995 983 994
f 994 983 982
f 996 997 988
f 988 997 986
f 961 960 989
f 989 960 990
f 991 993 998
f 998 993 999
f 331 330 712
f 712 330 1000
f 992 333 713
f 713 333 332
f 980 958 1002
f 1002 958 1001
f 674 677 808
f 808 677 907
f 337 336 906
f 906 336 933
f 686 689 936
f 936 689 910
f 771 758 715
f 715 758 757
f 867 863 681
f 681 863 862
f 917 771 714
f 714 771 715
f 918 911 689
f 689 911 910
f 678 676 862
f 862 676 681
f 1003 745 742
f 742 745 964
f 686 936 939
f 939 936 935
f 799 1004 796
f 796 1004 779
f 778 782 779
f 779 782 796
f 778 678 865
f 865 678 862
f 682 785 683
f 683 785 784
f 910 1005 936
f 936 1005 937
f 1007 1008 1006
f 1006 1008 1009
f 1004 908 779
f 779 908 679
f 1011 1012 1010
f 1010 1012 909
f 1014 1015 1013
f 1013 1015 1016
f 1017 1018 783
f 783 1018 780
f 1020 1021 1019
f 1019 1021 1022
f 1023 1005 913
f 913 1005 910
f 1024 920 784
f 784 920 683
f 1025 938 791
f 791 938 937
f 874 1026 895
f 895 1026 1027
f 1029 1030 1028
f 1028 1030 1031
f 1033 1034 1032
f 1032 1034 1035
f 1037 1038 1036
f 1036 1038 1039
f 1040 1041 1039
f 1039 1041 1042
f 1043 1044 1046
f 1046 1044 1045
f 941 1047 942
f 942 1047 1048
f 1049 846 1030
f 1030 846 822
f 1041 1040 1044
f 1044 1040 1045
f 854 944 855
f 855 944 943
f 857 946 925
f 925 946 945
f 855 943 857
f 857 943 946
f 854 947 944
f 948 926 945
f 945 926 925
f 386 385 926
f 926 385 927
f 856 1050 852
f 852 1050 1051
f 852 1051 853
f 853 1051 1052
f 1053 872 1052
f 1052 872 853
f 928 1054 856
f 856 1054 1050
f 927 1055 928
f 928 1055 1054
f 1043 1046 1056
f 1056 1046 1057
f 1059 859 1058
f 1058 859 858
f 1058 858 1060
f 1060 858 894
f 1060 894 1061
f 1061 894 895
f 1062 929 1059
f 1059 929 859
f 1062 1063 929
f 929 1063 1064
f 1065 1066 1068
f 1068 1066 1067
f 1030 822 1031
f 1031 822 821
f 1069 1070 1057
f 1057 1070 1056
f 1070 919 1056
f 1056 919 830
f 912 692 913
f 913 692 1009
f 1019 697 1015
f 1015 697 696
f 813 723 918
f 918 723 917
f 812 815 724
f 724 815 728
f 816 817 969
f 969 817 820
f 691 901 1006
f 1006 901 1022
f 912 911 717
f 717 911 714
f 978 981 957
f 957 981 956
f 410 409 1071
f 1071 409 1016
f 911 918 714
f 714 918 917
f 1069 1047 1070
f 1070 1047 941
f 409 411 1016
f 1016 411 1012
f 413 412 921
f 921 412 923
f 415 414 924
f 924 414 948
f 951 718 699
f 699 718 698
f 716 769 699
f 699 769 951
f 735 1072 736
f 736 1072 1073
f 696 695 1071
f 1071 695 1000
f 992 713 703
f 703 713 704
f 695 711 1000
f 1000 711 712
f 704 711 705
f 705 711 710
f 1074 1075 1077
f 1077 1075 1076
f 967 966 750
f 750 966 751
f 1010 1004 1078
f 1078 1004 799
f 1014 805 1020
f 1020 805 903
f 908 907 679
f 679 907 677
f 856 857 928
f 928 857 925
f 1064 1079 929
f 929 1079 900
f 899 900 977
f 977 900 1079
f 1080 1081 930
f 930 1081 931
f 1082 887 1083
f 1083 887 931
f 839 806 922
f 922 806 932
f 1085 1074 1084
f 1084 1074 1077
f 963 1086 999
f 999 1086 998
f 738 1087 719
f 719 1087 720
f 976 1080 975
f 975 1080 930
f 1088 1089 983
f 983 1089 984
f 990 993 702
f 702 993 703
f 995 1088 983
f 993 990 999
f 999 990 960
f 906 933 907
f 907 933 808
f 1010 909 1004
f 1004 909 908
f 1015 1014 1019
f 1019 1014 1020
f 1015 696 1016
f 1016 696 1071
f 718 950 707
f 707 950 987
f 1084 984 1085
f 1085 984 1089
f 984 1084 1090
f 1090 1084 1091
f 692 912 693
f 693 912 717
f 693 717 699
f 699 717 716
f 1093 795 1092
f 1092 795 794
f 975 930 974
f 974 930 886
f 781 797 782
f 782 797 796
f 1008 1023 1009
f 1009 1023 913
f 692 691 1009
f 1009 691 1006
f 1094 1095 991
f 991 1095 992
f 1086 1094 998
f 998 1094 991
f 1095 440 992
f 992 440 333
f 1086 963 994
f 994 963 962
f 937 1005 791
f 791 1005 788
f 969 820 823
f 823 820 819
f 828 811 687
f 687 811 688
f 1096 827 1097
f 1097 827 826
f 879 898 876
f 876 898 897
f 824 970 825
f 825 970 849
f 968 967 1099
f 1099 967 1098
f 445 413 922
f 922 413 921
f 1063 447 1064
f 1064 447 446
f 1058 1051 1059
f 1059 1051 1050
f 1060 1052 1058
f 1058 1052 1051
f 1059 1050 1062
f 1062 1050 1054
f 1054 1055 1062
f 1062 1055 1063
f 414 386 948
f 948 386 926
f 1101 1102 1100
f 1100 1102 1103
f 1001 958 1104
f 1104 958 888
f 826 971 1097
f 1097 971 1105
f 1082 896 887
f 887 896 884
f 1081 1106 931
f 931 1106 1083
f 682 685 935
f 935 685 939
f 1025 1107 786
f 786 1107 1108
f 934 866 810
f 810 866 680
f 940 939 919
f 919 939 685
f 973 877 897
f 897 877 876
f 785 682 938
f 938 682 935
f 864 1017 865
f 865 1017 783
f 1061 1053 1060
f 1060 1053 1052
f 802 1078 803
f 803 1078 1109
f 1056 830 1043
f 1043 830 829
f 1016 1012 1013
f 1013 1012 1011
f 1055 458 1063
f 1063 458 447
f 942 1048 821
f 821 1048 1031
f 731 727 732
f 732 727 728
f 1111 737 1110
f 1110 737 748
f 766 763 775
f 775 763 773
f 775 773 731
f 731 773 727
f 732 728 817
f 817 728 815
f 821 819 942
f 942 819 818
f 765 768 748
f 748 768 1110
f 814 820 815
f 815 820 817
f 690 701 691
f 691 701 901
f 848 972 849
f 849 972 825
f 974 886 898
f 898 886 885
f 1080 976 461
f 461 976 303
f 979 959 980
f 980 959 958
f 980 1002 981
f 981 1002 1112
f 977 976 899
f 899 976 975
f 701 700 694
f 694 700 710
f 709 708 705
f 705 708 702
f 700 709 710
f 710 709 705
f 902 1092 1021
f 1021 1092 1007
f 962 961 996
f 996 961 997
f 1095 1094 985
f 985 1094 982
f 986 989 707
f 707 989 708
f 994 982 1086
f 1086 982 1094
f 961 989 997
f 997 989 986
f 985 1113 1095
f 1095 1113 440
f 1021 1007 1022
f 1022 1007 1006
f 790 1107 791
f 791 1107 1025
f 901 697 1022
f 1022 697 1019
f 994 962 995
f 995 962 996
f 744 760 741
f 741 760 746
f 812 724 813
f 813 724 723
f 919 1070 940
f 940 1070 941
f 782 778 783
f 783 778 865
f 786 1108 787
f 787 1108 914
f 794 793 1008
f 1008 793 1023
f 1013 1011 801
f 801 1011 802
f 805 1014 801
f 801 1014 1013
f 1020 903 1021
f 1021 903 902
f 793 788 1023
f 1023 788 1005
f 916 1024 787
f 787 1024 784
f 1078 799 1109
f 1109 799 798
f 805 804 903
f 903 804 904
f 1092 794 1007
f 1007 794 1008
f 786 785 1025
f 1025 785 938
f 1078 802 1010
f 1010 802 1011
f 905 1093 902
f 902 1093 1092
f 1064 446 1079
f 1079 446 464
f 1114 1115 1117
f 1117 1115 1116
f 1119 1120 1118
f 1118 1120 1121
f 1037 1119 1038
f 1038 1119 1118
f 1038 1118 1122
f 1122 1118 1123
f 1124 1125 1119
f 1119 1125 1120
f 1126 1127 1037
f 1037 1127 1119
f 1127 1124 1119
f 1127 1128 1124
f 1124 1128 1129
f 1039 1038 1040
f 1040 1038 1122
f 1128 1130 1129
f 1129 1130 1131
f 1130 1132 1131
f 1131 1132 1133
f 1135 1065 1134
f 1134 1065 1068
f 1132 1136 1133
f 1133 1136 1137
f 1137 1136 1139
f 1139 1136 1138
f 1140 1141 1138
f 1138 1141 1139
f 1142 1143 1140
f 1140 1143 1141
f 1144 1145 1142
f 1142 1145 1143
f 1133 1146 1131
f 1131 1146 1147
f 1032 1148 1130
f 1130 1148 1132
f 1033 1032 1128
f 1128 1032 1130
f 1126 1033 1127
f 1127 1033 1128
f 1131 1147 1129
f 1129 1147 1149
f 1040 1122 1045
f 1045 1122 1101
f 1045 1101 1046
f 1046 1101 1100
f 1150 1151 1153
f 1153 1151 1152
f 1103 1154 1156
f 1156 1154 1155
f 1155 1157 1156
f 1156 1157 1135
f 1158 1159 1155
f 1155 1159 1157
f 1160 1158 1154
f 1154 1158 1155
f 1162 1157 1161
f 1161 1157 1159
f 1161 1159 1163
f 1163 1159 1164
f 1165 1164 1158
f 1158 1164 1159
f 1158 1160 1165
f 1165 1160 1166
f 1167 1156 1134
f 1134 1156 1135
f 1100 1103 1167
f 1167 1103 1156
f 1067 1048 1068
f 1068 1048 1047
f 1048 1067 1031
f 1031 1067 1028
f 1069 1134 1047
f 1047 1134 1068
f 1026 1168 1027
f 1027 1168 1169
f 1145 1144 1170
f 1170 1144 1171
f 1122 1123 1101
f 1101 1123 1102
f 1173 1029 1172
f 1172 1029 1028
f 1174 1136 1148
f 1148 1136 1132
f 1175 1138 1174
f 1174 1138 1136
f 1176 1171 1168
f 1168 1171 1144
f 1168 1144 1169
f 1169 1144 1142
f 1169 1142 1177
f 1177 1142 1140
f 1178 1145 1179
f 1179 1145 1170
f 1138 1175 1140
f 1140 1175 1177
f 1143 1145 1180
f 1180 1145 1178
f 1182 1183 1181
f 1181 1183 1184
f 1183 1173 1184
f 1184 1173 1172
f 1184 1065 1181
f 1181 1065 1135
f 1185 1186 1179
f 1179 1186 1178
f 1187 1188 1185
f 1185 1188 1186
f 1189 1187 1190
f 1190 1187 1185
f 1179 1182 1185
f 1185 1182 1190
f 1191 1192 1187
f 1187 1192 1188
f 1193 1191 1189
f 1189 1191 1187
f 1190 1162 1189
f 1189 1162 1161
f 1189 1161 1193
f 1193 1161 1163
f 1195 1196 1194
f 1194 1196 1197
f 1198 1199 1180
f 1180 1199 1200
f 1202 1200 1201
f 1201 1200 1199
f 1201 1199 1203
f 1203 1199 1197
f 1203 1197 1204
f 1204 1197 1196
f 1146 1205 1207
f 1207 1205 1206
f 1208 1209 1206
f 1206 1209 1207
f 1208 1210 1209
f 1209 1210 1211
f 1203 1208 1201
f 1201 1208 1206
f 1204 1210 1203
f 1203 1210 1208
f 1201 1206 1202
f 1202 1206 1205
f 1213 1120 1212
f 1212 1120 1125
f 1214 1215 1212
f 1212 1215 1216
f 1117 1121 1213
f 1213 1121 1120
f 1114 1117 1217
f 1217 1117 1213
f 1219 1114 1218
f 1218 1114 1217
f 1220 1221 1215
f 1215 1221 1218
f 1215 1214 1220
f 1220 1214 1222
f 1223 1224 1226
f 1226 1224 1225
f 1209 1211 1220
f 1220 1211 1221
f 1220 1222 1209
f 1209 1222 1207
f 1146 1207 1147
f 1147 1207 1222
f 1147 1222 1149
f 1149 1222 1214
f 1149 1214 1125
f 1125 1214 1212
f 1137 1139 1205
f 1205 1139 1202
f 1141 1143 1200
f 1200 1143 1180
f 1200 1202 1141
f 1141 1202 1139
f 1134 1069 1167
f 1167 1069 1057
f 1046 1100 1057
f 1057 1100 1167
f 1192 1195 1188
f 1188 1195 1194
f 1188 1194 1186
f 1186 1194 1198
f 1180 1178 1198
f 1198 1178 1186
f 1154 1103 1227
f 1227 1103 1102
f 1160 1154 1228
f 1228 1154 1227
f 1160 1228 1166
f 1166 1228 1229
f 873 872 1231
f 1231 872 1232
f 1129 1149 1124
f 1124 1149 1125
f 1137 1205 1133
f 1133 1205 1146
f 1199 1198 1197
f 1197 1198 1194
f 892 1105 883
f 883 1105 971
f 1035 1233 1231
f 1231 1233 873
f 1067 1066 1028
f 1028 1066 1172
f 1065 1184 1066
f 1066 1184 1172
f 880 883 972
f 972 883 971
f 973 880 848
f 848 880 972
f 877 973 847
f 847 973 848
f 874 877 846
f 846 877 847
f 1224 1223 1219
f 1219 1223 1234
f 1204 1225 1210
f 1210 1225 1211
f 1195 1235 1150
f 1150 1235 1151
f 1192 1191 1229
f 1229 1191 1166
f 1164 1165 1163
f 1163 1165 1193
f 1165 1166 1193
f 1193 1166 1191
f 1224 1221 1225
f 1225 1221 1211
f 1219 1218 1224
f 1224 1218 1221
f 1196 1195 1236
f 1236 1195 1150
f 1234 1237 1219
f 1219 1237 1238
f 1233 1035 1239
f 1239 1035 1034
f 1239 1034 1042
f 1042 1034 1039
f 1196 1226 1204
f 1204 1226 1225
f 1231 1148 1035
f 1035 1148 1032
f 1148 1231 1174
f 1174 1231 1232
f 1174 1232 1175
f 1175 1232 1240
f 1049 1176 1026
f 1026 1176 1168
f 1027 1169 1241
f 1241 1169 1177
f 1034 1242 1039
f 1039 1242 1036
f 1126 1242 1033
f 1033 1242 1034
f 1037 1036 1126
f 1126 1036 1242
f 1241 1177 1240
f 1240 1177 1175
f 737 1111 738
f 738 1111 1087
f 745 1003 746
f 746 1003 741
f 741 1003 742
f 960 963 999
f 889 827 890
f 890 827 1096
f 889 959 827
f 827 959 824
f 959 979 824
f 824 979 970
f 979 978 970
f 970 978 969
f 957 816 978
f 978 816 969
f 776 729 957
f 957 729 816
f 734 730 776
f 776 730 729
f 733 774 734
f 734 774 730
f 953 767 733
f 733 767 774
f 768 952 1110
f 1110 952 752
f 751 1111 752
f 752 1111 1110
f 966 1087 751
f 751 1087 1111
f 965 720 966
f 966 720 1087
f 965 1075 720
f 720 1075 721
f 1085 950 1074
f 1074 950 949
f 1085 1089 950
f 950 1089 987
f 1089 1088 987
f 987 1088 988
f 1088 995 988
f 988 995 996
f 721 949 722
f 722 949 951
f 757 756 769
f 769 756 755
f 759 743 756
f 756 743 753
f 761 770 762
f 762 770 772
f 763 762 773
f 773 762 772
f 767 766 774
f 774 766 775
f 954 1243 955
f 955 1243 1244
f 759 758 761
f 761 758 770
f 954 953 736
f 736 953 733
f 722 755 719
f 719 755 754
f 968 1076 965
f 965 1076 1075
f 1077 1076 1246
f 1246 1076 1245
f 763 766 764
f 764 766 765
f 767 953 768
f 768 953 952
f 1075 1074 721
f 721 1074 949
f 780 1247 781
f 781 1247 1248
f 1249 1250 789
f 789 1250 790
f 1251 1252 795
f 795 1252 792
f 1253 1254 797
f 797 1254 798
f 1255 1256 803
f 803 1256 800
f 800 1256 804
f 804 1256 1257
f 904 1258 905
f 905 1258 1259
f 1252 1249 792
f 792 1249 789
f 914 1260 915
f 915 1260 1261
f 1018 1262 780
f 780 1262 1247
f 1263 1251 1093
f 1093 1251 795
f 1248 1253 781
f 781 1253 797
f 1264 1265 1107
f 1107 1265 1108
f 1266 1255 1109
f 1109 1255 803
f 1250 1264 790
f 790 1264 1107
f 1108 1265 914
f 914 1265 1260
f 1254 1266 798
f 798 1266 1109
f 804 1257 904
f 904 1257 1258
f 905 1259 1093
f 1093 1259 1263
f 1256 1255 1257
f 1257 1255 1258
f 1251 1267 1252
f 1252 1267 1268
f 1269 1270 1253
f 1253 1270 1254
f 1258 1271 1259
f 1259 1271 1272
f 1252 1268 1249
f 1249 1268 1273
f 1274 1267 1263
f 1263 1267 1251
f 1275 1269 1248
f 1248 1269 1253
f 1276 1277 1266
f 1266 1277 1255
f 1270 1276 1254
f 1254 1276 1266
f 1259 1272 1263
f 1263 1272 1274
f 1255 1277 1258
f 1258 1277 1271
f 1260 1265 1278
f 1278 1265 1279
f 1272 1271 1276
f 1276 1271 1277
f 1274 1272 1270
f 1270 1272 1276
f 1267 1274 1269
f 1269 1274 1270
f 1275 1268 1269
f 1269 1268 1267
f 1247 1280 1248
f 1248 1280 1275
f 1264 1250 1281
f 1281 1250 1282
f 1262 1283 1247
f 1247 1283 1280
f 1265 1264 1279
f 1279 1264 1281
f 1249 1273 1250
f 1250 1273 1282
f 1280 1273 1275
f 1275 1273 1268
f 1260 1278 1261
f 1261 1278 1284
f 1026 874 1049
f 1049 874 846
f 1240 1232 1053
f 1053 1232 872
f 1061 1241 1053
f 1053 1241 1240
f 895 1027 1061
f 1061 1027 1241
f 1243 954 1073
f 1073 954 736
f 1286 777 1285
f 1285 777 956
f 1288 750 1287
f 1287 750 749
f 1287 749 1244
f 1244 749 955
f 1002 1001 641
f 641 1001 642
f 1073 1072 643
f 643 1072 644
f 1090 1091 645
f 645 1091 646
f 1246 1091 1077
f 1077 1091 1084
f 1099 1245 968
f 968 1245 1076
f 750 1288 967
f 967 1288 1098
f 1099 1098 647
f 647 1098 648
f 642 1001 649
f 649 1001 1104
f 891 1230 888
f 888 1230 1104
f 981 1112 956
f 956 1112 1285
f 1112 1002 650
f 650 1002 641
f 1072 735 1286
f 1286 735 777
f 984 1090 985
f 985 1090 1113
f 1243 653 1244
f 1244 653 652
f 1245 655 1246
f 1246 655 654
f 653 1243 643
f 643 1243 1073
f 1285 657 1286
f 1286 657 656
f 658 445 932
f 932 445 922
f 461 659 1080
f 1080 659 1081
f 330 410 1000
f 1000 410 1071
f 332 331 713
f 713 331 712
f 464 304 1079
f 1079 304 977
f 385 458 927
f 927 458 1055
f 412 415 923
f 923 415 924
f 660 337 909
f 909 337 906
f 654 646 1246
f 1246 646 1091
f 655 1245 647
f 647 1245 1099
f 661 648 1288
f 1288 648 1098
f 651 649 1230
f 1230 649 1104
f 411 660 1012
f 1012 660 909
f 650 657 1112
f 1112 657 1285
f 336 658 933
f 933 658 932
f 644 1072 656
f 656 1072 1286
f 645 662 1090
f 1090 662 1113
f 659 581 1081
f 1081 581 1106
f 662 440 1113
f 1281 1284 1279
f 1279 1284 1278
f 1273 1280 1282
f 1282 1280 1283
f 1282 1283 1281
f 1281 1283 1284
f 1283 1262 1284
f 1284 1262 1261
f 1262 1018 1261
f 1261 1018 915
f 1018 1017 915
f 915 1017 916
f 1017 864 916
f 916 864 1024
f 864 863 1024
f 1024 863 920
f 863 867 920
f 920 867 831
f 867 866 831
f 831 866 829
f 866 934 829
f 829 934 1043
f 1043 934 1044
f 1044 934 868
f 868 869 1044
f 1044 869 1041
f 869 871 1041
f 1041 871 1042
f 870 1239 871
f 871 1239 1042
f 1239 870 1233
f 1233 870 947
f 854 873 947
f 947 873 1233
f 1212 1216 1213
f 1213 1216 1217
f 1217 1216 1218
f 1218 1216 1215
f 1223 1236 1234
f 1234 1236 1150
f 1223 1226 1236
f 1236 1226 1196
f 1289 1123 1121
f 1121 1123 1118
f 1291 1227 1290
f 1290 1227 1102
f 1227 1291 1228
f 1228 1291 1292
f 1228 1292 1229
f 1229 1292 1293
f 1293 1294 1229
f 1229 1294 1192
f 1116 1289 1117
f 1117 1289 1121
f 1292 1152 1293
f 1293 1152 1151
f 1291 1295 1292
f 1292 1295 1152
f 1295 1296 1152
f 1152 1296 1153
f 1296 1295 1297
f 1297 1295 1298
f 1295 1291 1298
f 1298 1291 1290
f 1219 1238 1114
f 1114 1238 1115
f 1234 1296 1237
f 1237 1296 1297
f 1235 1294 1151
f 1151 1294 1293
f 1195 1192 1235
f 1235 1192 1294
f 1289 1290 1123
f 1123 1290 1102
f 1289 1116 1290
f 1290 1116 1298
f 1116 1115 1298
f 1298 1115 1297
f 1237 1297 1238
f 1238 1297 1115
f 1296 1234 1153
f 1153 1234 1150
f 1030 1029 1049
f 1049 1029 1176
f 1029 1173 1176
f 1176 1173 1171
f 1173 1183 1171
f 1171 1183 1170
f 1183 1182 1170
f 1170 1182 1179
f 1181 1135 1162
f 1162 1135 1157
f 1182 1181 1190
f 1190 1181 1162
f 673 661 1287
f 1287 661 1288
f 673 1287 652
f 652 1287 1244
