# Blender 4.0.2
# www.blender.org
mtllib midfoot_r.mtl
o midfoot_r.002
v -0.000699 0.008778 -0.024370
v 0.002220 0.010402 -0.023476
v 0.001220 0.004348 -0.022777
v -0.003069 0.005796 -0.023653
v -0.002168 0.004181 -0.022317
v -0.004744 0.012241 -0.023614
v -0.000636 0.011864 -0.023827
v 0.007488 0.015929 -0.018192
v 0.004942 0.016625 -0.019259
v 0.009035 0.012852 -0.016406
v 0.002884 0.005784 -0.022250
v 0.001292 0.014927 -0.022189
v -0.003871 0.004405 -0.022643
v -0.001560 0.001485 -0.020146
v -0.007786 0.010776 -0.021876
v -0.008059 0.013842 -0.020997
v -0.005913 0.014949 -0.022020
v -0.005541 0.006983 -0.023420
v 0.004542 0.018083 -0.018531
v 0.002989 0.004098 -0.012674
v 0.009444 0.015836 -0.013650
v 0.009558 0.012141 -0.011575
v -0.004740 0.003567 -0.021087
v -0.001523 0.001115 -0.016817
v -0.006691 0.008048 -0.020744
v -0.008262 0.014348 -0.019365
v 0.002541 0.021783 -0.013509
v -0.004227 0.017747 -0.016991
v 0.007904 0.018821 -0.015359
v 0.007186 0.019257 -0.014569
v 0.001233 0.002380 -0.012145
v 0.002225 0.005463 -0.002279
v 0.007691 0.017035 0.001023
v 0.005891 0.012483 0.003075
v 0.005043 0.008706 0.000364
v 0.009488 0.015993 -0.007196
v -0.004853 0.004155 -0.018705
v -0.002810 0.003008 -0.013126
v -0.006860 0.008262 -0.013878
v -0.004538 0.017346 -0.016396
v -0.002997 0.012919 -0.007570
v 0.006659 0.021168 -0.008095
v -0.000212 0.023012 -0.007448
v 0.008111 0.017442 -0.010701
v 0.000400 0.003362 -0.006926
v -0.000300 0.003428 -0.000949
v -0.000935 0.011088 0.008420
v -0.000171 0.005389 0.002733
v 0.005880 0.017325 0.005750
v 0.006510 0.020502 -0.002021
v 0.008086 0.018403 -0.001478
v -0.005079 0.006176 -0.015688
v -0.004013 0.003518 -0.011133
v -0.002407 0.001007 -0.005509
v -0.006345 0.005559 -0.012414
v -0.006690 0.007017 -0.007002
v -0.001376 0.022375 0.001501
v -0.006523 0.014344 0.005888
v 0.002510 0.023235 -0.003724
v 0.000143 0.023657 -0.004351
v -0.001585 0.001185 -0.003990
v -0.002923 0.004760 0.005831
v -0.002353 0.001691 -0.000646
v -0.002785 0.012689 0.011001
v -0.002870 0.008621 0.009324
v 0.001039 0.014576 0.007939
v -0.006274 0.002606 -0.008401
v -0.006430 0.003049 -0.006503
v -0.006503 0.000986 -0.003755
v -0.007728 0.004455 -0.001972
v -0.007737 0.008287 0.000141
v -0.005788 0.016308 0.008012
v -0.000358 0.022546 0.001895
v -0.004777 0.007559 0.008251
v -0.006466 0.002833 0.000628
v -0.004297 0.012620 0.011128
v -0.002463 0.020464 0.005030
v 0.001350 0.016884 0.006969
v -0.003852 0.015593 0.009564
v -0.006744 0.014014 0.008511
v -0.007638 0.008625 0.003677
v -0.006650 0.006403 0.005162
v 0.000813 -0.004261 0.024876
v -0.006246 -0.003008 0.022165
v -0.007380 -0.004277 0.022352
v 0.000533 -0.007925 0.023573
v -0.001175 0.006669 0.019266
v -0.009052 0.003353 0.016331
v -0.007955 -0.007612 0.020506
v 0.002298 -0.005506 0.026394
v -0.006955 -0.009206 0.020096
v 0.003908 -0.008075 0.022354
v 0.004778 -0.008431 0.024750
v 0.012390 0.005344 0.022225
v 0.008673 0.005580 0.021222
v 0.009429 -0.000100 0.026077
v -0.006841 0.005434 0.016834
v -0.007372 -0.004376 0.021533
v 0.005097 -0.004536 0.028260
v 0.004928 -0.008305 0.026665
v 0.002942 -0.010215 0.019286
v -0.003186 -0.011844 0.017784
v 0.008345 -0.006993 0.017811
v 0.006240 -0.008943 0.026153
v 0.010697 0.000580 0.025382
v 0.013065 0.004629 0.021918
v 0.001688 0.007078 0.018331
v -0.006969 0.006675 0.013316
v -0.005265 0.006983 0.012979
v -0.009140 0.004159 0.014288
v -0.007193 -0.003036 0.010054
v -0.007042 -0.007631 0.019219
v 0.003805 -0.006076 0.027946
v 0.006247 -0.004996 0.028238
v 0.003718 -0.011863 0.017315
v 0.010266 -0.009517 0.011861
v 0.013002 -0.005748 0.015079
v 0.009640 -0.007354 0.021971
v 0.012777 0.005353 0.021442
v 0.014391 -0.006088 0.017865
v 0.014178 0.000025 0.018153
v -0.007245 0.005780 0.012267
v -0.006976 0.002687 0.010347
v -0.007678 -0.003002 0.008238
v -0.006748 -0.006527 0.012798
v -0.005528 -0.009545 0.016938
v -0.001875 -0.010334 0.014134
v 0.002433 -0.012888 0.015833
v 0.009010 -0.009343 0.010325
v 0.005626 -0.010918 0.011956
v 0.010675 -0.007650 0.009953
v 0.011916 -0.006461 0.010738
v 0.013298 -0.004590 0.013941
v 0.014975 -0.004732 0.015301
v 0.005295 0.004779 0.017356
v 0.008850 0.005411 0.019443
v -0.005298 0.005407 0.011786
v -0.005769 -0.006140 0.004363
v -0.007173 -0.006619 0.006672
v -0.007451 -0.006729 0.008668
v -0.004668 -0.008053 0.012359
v 0.004281 -0.008685 0.010711
v 0.007190 -0.005847 0.008173
v -0.000145 -0.004540 0.005486
v -0.003692 -0.004209 0.004734
v -0.004006 -0.007248 0.009854
v -0.000958 -0.007780 0.010172
v 0.003323 -0.007688 0.009790
v 0.001803 -0.006010 0.005351
v -0.003832 -0.006799 0.003801
v -0.000754 -0.006914 0.004650
v -0.002867 -0.007938 0.007818
v 0.031264 0.013872 -0.011940
v 0.030988 0.014803 -0.013214
v 0.026957 0.015361 -0.010682
v 0.033707 0.012488 -0.014362
v 0.031654 0.011278 -0.016985
v 0.023616 0.016231 -0.011939
v 0.030217 0.013076 -0.017443
v 0.017632 0.010638 -0.009945
v 0.011859 0.013173 -0.011196
v 0.032257 0.011063 -0.009972
v 0.033791 0.010941 -0.013681
v 0.015801 0.015856 -0.012537
v 0.015347 0.015262 -0.016130
v 0.030165 0.008820 -0.019364
v 0.025126 0.003756 -0.007435
v 0.009376 0.007913 -0.008673
v 0.028012 0.007054 -0.009289
v 0.032389 0.010151 -0.017145
v 0.027809 0.001518 -0.012875
v 0.030897 0.008427 -0.010400
v 0.012442 0.014867 -0.014311
v 0.014578 0.012842 -0.017309
v 0.027995 0.006034 -0.020634
v 0.011716 0.011403 -0.018029
v 0.012024 0.008667 -0.019139
v 0.012327 0.004495 -0.020711
v 0.025343 0.003255 -0.021615
v 0.025043 -0.000080 -0.005917
v 0.023959 0.001047 -0.004943
v 0.027738 0.004732 -0.009351
v 0.011291 0.004030 -0.006302
v 0.028354 0.003527 -0.010703
v 0.023138 -0.008180 -0.011954
v 0.026109 0.000294 -0.020941
v 0.024554 -0.004558 -0.020095
v 0.023863 -0.007394 -0.017438
v 0.011848 0.013946 -0.015503
v 0.009393 0.008003 -0.018175
v 0.010766 0.005259 -0.020985
v 0.008477 0.000331 -0.021190
v 0.023187 -0.001740 -0.003614
v 0.006955 0.004983 -0.006982
v 0.022120 -0.008858 -0.014357
v 0.021784 -0.007349 -0.006134
v 0.022900 -0.007364 -0.018865
v 0.007818 0.005203 -0.019840
v 0.002699 0.001533 -0.011434
v 0.005987 0.003450 -0.021359
v 0.006216 -0.002203 -0.019279
v 0.017207 -0.006368 -0.019021
v 0.004077 0.000939 -0.020477
v 0.021271 -0.004934 -0.003784
v 0.007714 -0.000515 -0.006328
v 0.008263 0.002717 -0.006136
v 0.020745 -0.009269 -0.010062
v 0.019524 -0.008908 -0.012830
v 0.020630 -0.007994 -0.006227
v 0.004210 0.001825 -0.020367
v 0.001783 0.000128 -0.015121
v 0.002281 0.000059 -0.008718
v 0.003802 0.001885 -0.006955
v 0.001742 -0.001058 -0.016068
v 0.003128 -0.002849 -0.013334
v 0.007032 -0.003669 -0.008128
v 0.001501 -0.000822 -0.012654
v 0.024775 0.012719 0.004661
v 0.013356 0.014353 0.003824
v 0.018786 0.012313 0.006120
v 0.022555 0.011173 0.006314
v 0.009421 0.014503 0.003958
v 0.009768 0.016324 0.001331
v 0.021616 0.015828 -0.001205
v 0.011408 0.016225 -0.003795
v 0.024226 0.014834 -0.000233
v 0.012944 0.013638 0.004207
v 0.018523 0.009919 0.006103
v 0.023567 0.009586 0.005151
v 0.008992 0.015777 -0.000075
v 0.024778 0.013905 -0.003945
v 0.024532 0.012833 -0.006720
v 0.019443 0.013191 -0.008154
v 0.010443 0.014273 -0.005447
v 0.012983 0.000586 0.002521
v 0.024833 0.011184 -0.007400
v 0.015852 -0.000036 0.002721
v 0.019759 0.000433 0.002820
v 0.021405 0.001204 0.001839
v 0.024353 0.009924 -0.007210
v 0.021543 0.002132 -0.000120
v 0.008718 0.013227 0.002557
v 0.011030 0.012460 -0.009119
v 0.017528 0.011135 -0.008520
v 0.010205 0.012059 -0.008350
v 0.009755 0.008910 -0.007786
v 0.009738 0.001935 -0.003674
v 0.010299 0.001794 0.002238
v 0.016884 0.001626 -0.004006
v 0.020950 0.002447 -0.003479
v 0.009656 0.002938 -0.000048
v 0.016516 -0.000611 -0.000268
v 0.011419 0.000848 -0.002644
v 0.009621 0.001672 -0.002060
v 0.010795 0.000907 -0.000708
v 0.020075 0.009392 0.015042
v 0.019265 0.006977 0.016953
v 0.020339 0.012314 0.011033
v 0.017826 0.012021 0.009452
v 0.014607 0.012214 0.009576
v 0.019083 0.005655 0.017395
v 0.020805 0.010829 0.011804
v 0.012072 0.011012 0.012839
v 0.020033 0.011557 0.009506
v 0.016292 0.000196 0.006705
v 0.010378 0.002937 0.006657
v 0.011721 0.013298 0.010387
v 0.008908 0.004568 0.017298
v 0.016369 0.001644 0.017357
v 0.017172 0.002057 0.015834
v 0.006177 0.013883 0.011753
v 0.014571 -0.003556 0.007186
v 0.013660 -0.002240 0.004318
v 0.014729 -0.001954 0.004944
v 0.009920 -0.000298 0.004719
v 0.007933 0.004276 0.005040
v 0.011744 0.013344 0.006913
v 0.005415 0.016403 0.007212
v 0.008807 0.014959 0.006049
v 0.004918 0.007075 0.016943
v 0.007116 0.003187 0.015534
v -0.002121 0.009062 0.013571
v 0.001130 0.013786 0.010248
v 0.014407 -0.004132 0.009618
v 0.012785 -0.005290 0.009631
v 0.015072 -0.001036 0.013653
v 0.012518 -0.003752 0.005254
v 0.004300 0.001314 0.003827
v 0.007761 0.001850 0.003858
v 0.004088 0.011108 0.006519
v 0.005673 0.012101 0.005892
v 0.004762 0.016014 0.006685
v -0.000414 0.006157 0.012791
v 0.007424 -0.001953 0.006318
v 0.012440 -0.002480 0.011033
v 0.000124 0.001069 0.005144
v -0.001049 0.005650 0.010639
v -0.001353 0.011470 0.011307
v 0.011584 -0.004139 0.010160
v 0.008645 -0.002803 0.006775
v 0.002233 0.003512 0.003407
v -0.002199 0.007112 0.009946
v -0.001039 0.009528 0.010276
v -0.000738 0.003510 0.006182
v -0.000498 0.001786 0.005586
v 0.011436 -0.005179 0.008870
vn 0.0821 -0.0816 -0.9933
vn 0.4847 0.0744 -0.8715
vn 0.3894 -0.6120 -0.6883
vn 0.0273 -0.5699 -0.8213
vn 0.0046 -0.3811 -0.9245
vn -0.2557 0.2508 -0.9337
vn 0.0890 0.3108 -0.9463
vn 0.4565 0.4692 -0.7560
vn 0.6912 0.3073 -0.6540
vn 0.9081 -0.1930 -0.3716
vn 0.7064 -0.4422 -0.5526
vn 0.2063 0.5409 -0.8154
vn 0.0711 -0.9397 -0.3345
vn -0.8774 -0.1054 -0.4680
vn -0.8219 0.3469 -0.4517
vn -0.3597 0.6413 -0.6777
vn -0.5720 -0.2753 -0.7726
vn 0.3383 0.6862 -0.6440
vn 0.7316 -0.6815 -0.0172
vn 0.9580 0.2619 -0.1170
vn 0.9346 -0.3558 0.0036
vn -0.2638 -0.6171 -0.7413
vn -0.0840 -0.9953 0.0477
vn -0.6920 -0.6696 -0.2696
vn -0.9133 -0.4071 -0.0077
vn -0.9073 0.4204 0.0118
vn 0.0583 0.9334 -0.3542
vn -0.5433 0.8180 -0.1890
vn 0.5977 0.7344 -0.3216
vn 0.5208 0.8271 -0.2116
vn 0.6738 -0.7183 0.1731
vn 0.3570 -0.9295 0.0922
vn 0.9527 0.0287 0.3027
vn 0.7919 -0.3850 0.4740
vn 0.7482 -0.5811 0.3203
vn 0.9777 0.1901 0.0893
vn -0.8265 -0.5324 0.1829
vn -0.5112 -0.8594 0.0069
vn -0.9908 -0.1176 0.0663
vn -0.7920 0.5755 0.2036
vn -0.9153 0.4010 0.0369
vn 0.6878 0.7246 -0.0432
vn -0.4777 0.8686 -0.1315
vn 0.8445 0.5355 0.0019
vn 0.4911 -0.8691 0.0595
vn 0.6749 -0.6904 0.2604
vn 0.6323 -0.6381 0.4394
vn 0.6647 0.2826 0.6915
vn 0.6702 -0.3643 0.6466
vn 0.6551 0.7311 0.1904
vn 0.8914 0.4188 0.1732
vn -0.8063 -0.5903 -0.0375
vn -0.4913 -0.8052 -0.3320
vn 0.1904 -0.9654 -0.1782
vn -0.8252 -0.4965 -0.2692
vn -0.9735 0.2016 -0.1081
vn -0.6274 0.7748 0.0776
vn -0.9203 0.3687 -0.1309
vn 0.3254 0.9430 0.0689
vn -0.2659 0.9625 -0.0534
vn 0.4369 -0.8960 0.0795
vn 0.1943 -0.7743 0.6023
vn 0.2828 -0.8965 0.3411
vn 0.3150 -0.5138 0.7980
vn 0.3622 0.0337 0.9315
vn 0.4475 0.0919 0.8896
vn -0.9944 -0.0513 -0.0926
vn -0.5748 -0.8181 -0.0168
vn -0.6356 -0.7037 -0.3175
vn -0.9835 -0.1807 -0.0055
vn -0.9800 0.1755 -0.0933
vn -0.7094 0.5926 0.3815
vn 0.0753 0.9166 0.3926
vn -0.4559 -0.5341 0.7120
vn -0.5999 -0.7071 0.3743
vn -0.3367 -0.0019 0.9416
vn -0.2861 0.8039 0.5214
vn 0.2211 0.4899 0.8433
vn -0.0636 0.5710 0.8185
vn -0.9841 -0.0661 0.1649
vn -0.8837 0.1810 0.4317
vn -0.7615 -0.4676 0.4488
vn -0.4653 0.1707 0.8686
vn -0.4731 0.4134 0.7780
vn -0.7724 0.2153 0.5975
vn -0.2269 -0.7666 0.6007
vn -0.2433 0.7875 0.5663
vn -0.9006 0.2402 0.3623
vn -0.9577 -0.2423 0.1554
vn -0.6960 -0.2903 0.6567
vn -0.6760 -0.6792 0.2857
vn 0.1131 -0.9868 0.1156
vn -0.2794 -0.9597 0.0312
vn 0.3323 0.7673 0.5485
vn 0.1686 0.9408 -0.2940
vn 0.1017 0.3863 0.9168
vn -0.5125 0.6163 0.5979
vn -0.9748 0.2146 0.0606
vn -0.2386 0.3220 0.9162
vn -0.4536 -0.2620 0.8518
vn -0.3462 -0.7469 0.5677
vn 0.2354 -0.7545 0.6126
vn -0.3226 -0.9340 0.1536
vn 0.4069 -0.8913 0.2001
vn 0.2644 -0.8710 0.4141
vn 0.5937 0.1404 0.7923
vn 0.8899 0.2659 0.3706
vn 0.1657 0.9851 -0.0459
vn -0.4882 0.8632 -0.1286
vn 0.0524 0.8976 -0.4378
vn -0.9479 0.3065 -0.0865
vn -0.9944 -0.0223 0.1031
vn -0.9325 -0.1838 -0.3111
vn 0.3724 -0.1468 0.9164
vn -0.6900 -0.6645 -0.2870
vn 0.3594 -0.7826 0.5082
vn 0.5589 -0.8142 -0.1571
vn 0.6100 -0.7887 -0.0766
vn 0.4923 -0.8444 0.2114
vn 0.5974 0.7823 -0.1765
vn 0.7362 -0.6611 0.1450
vn 0.8743 0.3786 -0.3038
vn 0.2910 0.8219 -0.4897
vn -0.5214 0.5648 -0.6397
vn -0.5513 0.3748 -0.7454
vn -0.9637 0.1504 -0.2206
vn -0.8829 -0.4673 -0.0451
vn 0.0234 -0.9976 -0.0652
vn -0.3040 -0.7805 -0.5462
vn -0.0460 -0.8172 -0.5744
vn 0.2197 -0.7083 -0.6709
vn 0.5678 -0.3541 -0.7431
vn 0.8072 0.0664 -0.5866
vn 0.7333 0.1442 -0.6644
vn 0.8810 -0.1829 -0.4364
vn 0.3507 0.6599 -0.6645
vn 0.1242 0.5847 -0.8017
vn -0.5587 -0.1807 -0.8094
vn -0.7617 -0.5505 -0.3417
vn -0.7939 -0.6080 -0.0084
vn -0.3724 -0.8701 -0.3230
vn -0.1454 -0.6691 -0.7288
vn 0.3562 0.0355 -0.9337
vn 0.2660 0.4994 -0.8245
vn 0.0048 0.5099 -0.8602
vn -0.1443 -0.9864 -0.0786
vn -0.0832 -0.9843 -0.1558
vn 0.0803 -0.8179 -0.5698
vn 0.4538 -0.1633 -0.8760
vn -0.0694 -0.4536 -0.8885
vn -0.0954 -0.9939 -0.0548
vn 0.2594 -0.5167 -0.8159
vn 0.4579 0.8886 -0.0257
vn 0.1459 0.7049 0.6941
vn 0.5583 0.6603 0.5023
vn 0.8546 0.4809 -0.1961
vn 0.0043 0.9744 0.2247
vn 0.5937 0.4736 -0.6505
vn 0.3747 0.6422 -0.6687
vn -0.0139 0.3301 0.9438
vn -0.5681 0.5948 0.5688
vn 0.6343 0.0717 0.7698
vn 0.9769 -0.1992 0.0772
vn -0.1626 0.9103 0.3807
vn -0.1872 0.7845 -0.5912
vn 0.4805 0.0920 -0.8721
vn -0.4922 0.6563 0.5719
vn 0.3189 0.4046 0.8571
vn 0.2510 0.0855 0.9642
vn 0.8129 -0.0531 -0.5800
vn 0.8990 -0.4376 0.0158
vn 0.6832 -0.4137 0.6017
vn 0.8373 -0.3913 0.3819
vn -0.5758 0.8118 -0.0973
vn -0.1160 0.5353 -0.8366
vn -0.3797 0.5201 -0.7650
vn -0.1676 0.3976 -0.9021
vn 0.0687 0.2173 -0.9737
vn 0.1385 0.0653 -0.9882
vn 0.3817 0.1670 -0.9091
vn 0.4205 0.3981 0.8153
vn 0.8470 -0.1293 0.5156
vn 0.6782 -0.1427 0.7209
vn -0.0372 0.3438 0.9383
vn 0.7259 -0.6749 0.1328
vn 0.6218 -0.3039 -0.7218
vn 0.5617 -0.4101 -0.7185
vn 0.7073 -0.6801 -0.1928
vn -0.6226 0.6945 -0.3605
vn -0.6831 0.5837 -0.4390
vn 0.0175 0.3445 -0.9386
vn -0.0853 -0.2492 -0.9647
vn 0.4441 -0.0425 0.8950
vn -0.4641 0.6115 0.6408
vn 0.2306 -0.9596 -0.1610
vn 0.0864 -0.9819 0.1684
vn 0.6148 -0.6314 0.4727
vn 0.2012 -0.7480 -0.6324
vn -0.5258 0.7298 -0.4370
vn -0.7993 0.5978 0.0618
vn -0.4561 0.4467 -0.7697
vn -0.3488 -0.7144 -0.6066
vn -0.2045 -0.7403 -0.6404
vn -0.6437 -0.1817 -0.7433
vn 0.1588 -0.3752 0.9133
vn -0.2464 -0.2161 0.9448
vn -0.0695 0.0976 0.9928
vn -0.2589 -0.9559 -0.1387
vn 0.0225 -0.8354 0.5492
vn -0.7800 0.4350 -0.4499
vn -0.8996 0.4188 -0.1236
vn -0.8713 -0.0805 0.4840
vn -0.7133 0.3027 0.6322
vn -0.8742 -0.3484 -0.3381
vn -0.5428 -0.8398 0.0119
vn -0.4123 -0.7616 0.4999
vn -0.9777 -0.1619 0.1334
vn 0.7657 0.3968 0.5062
vn 0.0378 0.7941 0.6066
vn -0.0655 0.4467 0.8923
vn 0.2883 0.0924 0.9531
vn -0.5081 0.3858 0.7700
vn -0.2589 0.9328 0.2509
vn 0.1866 0.9814 0.0447
vn -0.2404 0.9306 -0.2759
vn 0.5999 0.7859 0.1503
vn -0.1405 0.2003 0.9696
vn -0.1376 -0.1840 0.9733
vn 0.7260 -0.3358 0.6001
vn -0.8614 0.4904 -0.1324
vn 0.7765 0.5975 -0.2000
vn 0.1548 0.5635 -0.8115
vn 0.6057 0.5960 -0.5272
vn -0.8536 0.4219 -0.3056
vn -0.2927 -0.7098 0.6407
vn 0.7654 -0.0432 -0.6421
vn -0.0878 -0.7565 0.6481
vn 0.3207 -0.7600 0.5653
vn 0.7384 -0.6598 0.1394
vn 0.6643 -0.4254 -0.6146
vn 0.7861 -0.5976 -0.1578
vn -0.9793 0.0155 0.2018
vn -0.3079 0.2997 -0.9030
vn 0.0833 -0.1972 -0.9768
vn -0.8658 0.2432 -0.4372
vn -0.7210 -0.2429 -0.6490
vn -0.6805 -0.5304 -0.5055
vn -0.6492 -0.4804 0.5897
vn 0.5338 -0.6827 -0.4989
vn 0.0940 -0.6872 -0.7204
vn -0.9633 -0.2465 0.1064
vn 0.0730 -0.9849 -0.1572
vn -0.2192 -0.9071 -0.3593
vn -0.8724 -0.4886 -0.0126
vn -0.4902 -0.8686 0.0719
vn 0.0165 0.8723 -0.4887
vn 0.6468 0.4755 0.5962
vn 0.4567 0.8815 0.1199
vn 0.3901 0.8702 -0.3011
vn 0.4608 0.3171 0.8289
vn 0.5114 -0.0884 0.8548
vn 0.9971 0.0670 0.0349
vn 0.1109 0.7050 0.7005
vn 0.6095 0.3643 -0.7042
vn 0.7929 -0.0817 -0.6038
vn 0.4056 0.2518 -0.8787
vn 0.3466 0.8457 0.4057
vn -0.1546 -0.0875 0.9841
vn 0.3128 -0.5376 0.7831
vn 0.8411 -0.5253 0.1286
vn 0.0199 0.7547 0.6557
vn 0.7071 -0.6650 -0.2405
vn 0.2658 -0.1744 -0.9481
vn 0.6751 -0.1869 -0.7137
vn 0.2159 0.1438 -0.9658
vn 0.4303 0.2375 -0.8709
vn 0.5595 0.4351 -0.7054
vn -0.0255 0.9975 -0.0660
vn 0.3453 0.6008 -0.7210
vn -0.2033 0.0980 0.9742
vn -0.3956 -0.6679 0.6304
vn -0.8131 0.1497 0.5625
vn -0.5425 0.8112 0.2185
vn 0.1220 -0.9398 0.3191
vn 0.2429 -0.7941 0.5571
vn 0.7233 -0.6773 0.1341
vn -0.1048 -0.4397 -0.8920
vn 0.3074 0.0662 -0.9493
vn -0.4564 0.1813 -0.8711
vn -0.1726 0.0773 -0.9820
vn -0.4181 0.6363 -0.6483
vn -0.5759 -0.6452 0.5022
vn -0.4584 -0.5464 0.7009
vn -0.4496 -0.8825 -0.1380
vn -0.6341 -0.6936 -0.3419
vn -0.6690 -0.6756 0.3099
vn -0.8352 0.5495 -0.0220
vn -0.4846 -0.4072 0.7742
vn 0.0334 -0.7529 -0.6572
vn -0.5422 -0.8263 -0.1524
vn -0.2914 0.1142 -0.9498
vn -0.9771 -0.0198 -0.2120
vn -0.7858 0.2962 -0.5429
vn -0.9719 -0.0569 -0.2283
vn -0.9200 -0.3742 -0.1165
vn -0.4148 -0.9060 0.0843
s 1
f 1//1 2//2 3//3
f 1//1 3//3 5//4
f 4//5 1//1 5//4
f 4//5 6//6 1//1
f 7//7 1//1 6//6
f 1//1 7//7 2//2
f 9//8 8//9 2//2
f 2//2 8//9 10//10
f 10//10 11//11 2//2
f 11//11 3//3 2//2
f 2//2 7//7 12//12
f 2//2 12//12 9//8
f 5//4 3//3 14//13
f 4//5 5//4 14//13
f 15//14 16//15 6//6
f 7//7 6//6 17//16
f 6//6 4//5 18//17
f 17//16 6//6 16//15
f 15//14 6//6 18//17
f 9//8 12//12 19//18
f 20//19 11//11 10//10
f 10//10 8//9 21//20
f 21//20 22//21 10//10
f 20//19 10//10 22//21
f 11//11 20//19 3//3
f 17//16 12//12 7//7
f 19//18 12//12 17//16
f 13//22 4//5 14//13
f 4//5 13//22 18//17
f 24//23 14//13 3//3
f 13//22 14//13 23//24
f 23//24 25//25 15//14
f 23//24 15//14 18//17
f 26//26 17//16 16//15
f 26//26 16//15 15//14
f 27//27 17//16 28//28
f 27//27 19//18 17//16
f 28//28 17//16 26//26
f 8//9 9//8 29//29
f 30//30 29//29 9//8
f 9//8 19//18 30//30
f 20//19 32//31 31//32
f 20//19 22//21 32//31
f 29//29 21//20 8//9
f 22//21 33//33 34//34
f 34//34 35//35 22//21
f 36//36 33//33 22//21
f 22//21 21//20 36//36
f 32//31 22//21 35//35
f 31//32 24//23 20//19
f 24//23 3//3 20//19
f 13//22 23//24 18//17
f 24//23 23//24 14//13
f 23//24 24//23 37//37
f 38//38 24//23 31//32
f 26//26 15//14 39//39
f 28//28 26//26 40//40
f 40//40 26//26 41//41
f 26//26 39//39 41//41
f 42//42 30//30 27//27
f 27//27 30//30 19//18
f 42//42 27//27 43//43
f 28//28 43//43 27//27
f 44//44 21//20 29//29
f 30//30 44//44 29//29
f 32//31 45//45 31//32
f 32//31 46//46 45//45
f 48//47 32//31 35//35
f 46//46 32//31 48//47
f 44//44 36//36 21//20
f 34//34 49//48 47//49
f 47//49 48//47 34//34
f 48//47 35//35 34//34
f 33//33 49//48 34//34
f 50//50 51//51 36//36
f 36//36 51//51 33//33
f 50//50 36//36 44//44
f 52//52 37//37 24//23
f 37//37 25//25 23//24
f 38//38 53//53 52//52
f 52//52 24//23 38//38
f 53//53 38//38 54//54
f 45//45 38//38 31//32
f 45//45 54//54 38//38
f 25//25 39//39 15//14
f 39//39 52//52 55//55
f 25//25 52//52 39//39
f 56//56 39//39 55//55
f 56//56 41//41 39//39
f 37//37 52//52 25//25
f 43//43 40//40 41//41
f 41//41 57//57 43//43
f 58//58 57//57 41//41
f 58//58 41//41 56//56
f 43//43 59//59 42//42
f 60//60 59//59 43//43
f 28//28 40//40 43//43
f 42//42 44//44 30//30
f 45//45 46//46 61//61
f 61//61 54//54 45//45
f 46//46 62//62 63//63
f 46//46 63//63 61//61
f 62//62 46//46 48//47
f 51//51 49//48 33//33
f 65//64 48//47 47//49
f 47//49 64//65 65//64
f 62//62 48//47 65//64
f 49//48 66//66 47//49
f 42//42 50//50 44//44
f 49//48 51//51 50//50
f 55//55 68//67 56//56
f 69//68 68//67 55//55
f 69//68 55//55 67//69
f 68//67 70//70 56//56
f 71//71 58//58 56//56
f 71//71 56//56 70//70
f 57//57 60//60 43//43
f 58//58 72//72 57//57
f 50//50 42//42 59//59
f 59//59 73//73 50//50
f 60//60 73//73 59//59
f 61//61 63//63 54//54
f 62//62 74//74 75//75
f 75//75 63//63 62//62
f 74//74 62//62 65//64
f 47//49 66//66 64//65
f 65//64 64//65 76//76
f 73//73 77//77 49//48
f 49//48 50//50 73//73
f 78//78 49//48 77//77
f 66//66 49//48 78//78
f 78//78 79//79 66//66
f 52//52 53//53 55//55
f 67//69 53//53 69//68
f 69//68 53//53 54//54
f 55//55 53//53 67//69
f 68//67 69//68 70//70
f 71//71 81//80 80//81
f 58//58 71//71 80//81
f 81//80 71//71 70//70
f 57//57 77//77 73//73
f 57//57 73//73 60//60
f 72//72 77//77 57//57
f 63//63 69//68 54//54
f 69//68 63//63 75//75
f 65//64 76//76 74//74
f 74//74 80//81 82//82
f 80//81 74//74 76//76
f 82//82 75//75 74//74
f 75//75 82//82 81//80
f 69//68 75//75 70//70
f 75//75 81//80 70//70
f 64//65 66//66 79//79
f 79//79 76//76 64//65
f 77//77 72//72 79//79
f 77//77 79//79 78//78
f 72//72 76//76 79//79
f 80//81 81//80 82//82
f 58//58 80//81 72//72
f 76//76 72//72 80//81
f 83//83 84//84 85//85
f 86//86 83//83 85//85
f 84//84 87//87 88//88
f 84//84 83//83 87//87
f 86//86 85//85 89//89
f 83//83 86//86 90//90
f 91//91 86//86 89//89
f 92//92 86//86 91//91
f 93//93 86//86 92//92
f 93//93 90//90 86//86
f 94//94 95//95 87//87
f 87//87 83//83 96//96
f 88//88 87//87 97//97
f 87//87 96//96 94//94
f 98//98 89//89 85//85
f 83//83 99//99 96//96
f 113//100 99//99 83//83
f 113//100 83//83 90//90
f 85//85 84//84 98//98
f 93//93 100//101 90//90
f 90//90 100//101 113//100
f 101//102 91//91 102//103
f 92//92 91//91 101//102
f 101//102 103//104 92//92
f 103//104 93//93 92//92
f 104//105 93//93 103//104
f 100//101 93//93 104//105
f 105//106 94//94 96//96
f 105//106 106//107 94//94
f 107//108 87//87 95//95
f 108//109 97//97 87//87
f 108//109 87//87 109//110
f 107//108 109//110 87//87
f 110//111 88//88 97//97
f 84//84 88//88 98//98
f 98//98 88//88 111//112
f 110//111 111//112 88//88
f 89//89 98//98 112//113
f 98//98 111//112 112//113
f 99//99 114//114 96//96
f 113//100 114//114 99//99
f 89//89 112//113 91//91
f 104//105 113//100 100//101
f 126//115 102//103 91//91
f 126//115 91//91 112//113
f 115//116 101//102 102//103
f 115//116 103//104 101//102
f 117//117 103//104 116//118
f 118//119 103//104 117//117
f 115//116 116//118 103//104
f 118//119 104//105 103//104
f 106//107 119//120 94//94
f 94//94 119//120 95//95
f 105//106 120//121 106//107
f 120//121 121//122 106//107
f 136//123 95//95 119//120
f 107//108 95//95 136//123
f 114//114 105//106 96//96
f 97//97 108//109 110//111
f 110//111 108//109 122//124
f 110//111 122//124 123//125
f 111//112 110//111 123//125
f 111//112 124//126 125//127
f 111//112 125//127 112//113
f 124//126 111//112 123//125
f 125//127 126//115 112//113
f 104//105 114//114 113//100
f 115//116 128//128 116//118
f 102//103 128//128 115//116
f 127//129 128//128 102//103
f 130//130 116//118 128//128
f 129//131 116//118 130//130
f 129//131 131//132 116//118
f 117//117 116//118 132//133
f 116//118 131//132 132//133
f 133//134 117//117 132//133
f 134//135 120//121 117//117
f 118//119 117//117 120//121
f 134//135 117//117 133//134
f 120//121 114//114 118//119
f 104//105 118//119 114//114
f 114//114 120//121 105//106
f 121//122 120//121 134//135
f 121//122 119//120 106//107
f 133//134 135//136 121//122
f 133//134 121//122 134//135
f 135//136 136//123 121//122
f 121//122 136//123 119//120
f 109//110 107//108 135//136
f 107//108 136//123 135//136
f 122//124 109//110 137//137
f 122//124 108//109 109//110
f 137//137 109//110 135//136
f 137//137 123//125 122//124
f 138//138 139//139 124//126
f 140//140 124//126 139//139
f 124//126 140//140 125//127
f 138//138 124//126 123//125
f 141//141 127//129 126//115
f 125//127 141//141 126//115
f 141//141 125//127 140//140
f 126//115 127//129 102//103
f 142//142 127//129 141//141
f 142//142 128//128 127//129
f 142//142 130//130 128//128
f 142//142 129//131 130//130
f 131//132 129//131 143//143
f 132//133 131//132 143//143
f 143//143 135//136 133//134
f 132//133 143//143 133//134
f 143//143 137//137 135//136
f 137//137 143//143 144//144
f 137//137 144//144 123//125
f 145//145 123//125 144//144
f 145//145 138//138 123//125
f 140//140 146//146 141//141
f 141//141 146//146 147//147
f 142//142 141//141 147//147
f 142//142 143//143 129//131
f 142//142 148//148 143//143
f 143//143 148//148 149//149
f 144//144 143//143 149//149
f 150//150 138//138 145//145
f 138//138 150//150 139//139
f 140//140 152//151 146//146
f 140//140 139//139 152//151
f 148//148 142//142 147//147
f 146//146 152//151 147//147
f 149//149 148//148 151//152
f 150//150 144//144 151//152
f 151//152 144//144 149//149
f 145//145 144//144 150//150
f 151//152 152//151 150//150
f 139//139 150//150 152//151
f 152//151 148//148 147//147
f 148//148 152//151 151//152
f 154//153 155//154 153//155
f 154//153 153//155 156//156
f 154//153 158//157 155//154
f 154//153 157//158 159//159
f 158//157 154//153 159//159
f 160//160 155//154 161//161
f 155//154 158//157 161//161
f 162//162 155//154 160//160
f 162//162 153//155 155//154
f 162//162 156//156 153//155
f 157//158 154//153 156//156
f 163//163 156//156 162//162
f 164//164 158//157 165//165
f 158//157 159//159 165//165
f 158//157 164//164 161//161
f 159//159 166//166 165//165
f 157//158 166//166 159//159
f 168//167 167//168 160//160
f 161//161 168//167 160//160
f 169//169 162//162 160//160
f 169//169 160//160 167//168
f 170//170 156//156 163//163
f 157//158 156//156 170//170
f 166//166 157//158 170//170
f 163//163 171//171 170//170
f 172//172 163//163 162//162
f 163//163 172//172 184//173
f 163//163 184//173 171//171
f 173//174 164//164 165//165
f 174//175 173//174 165//165
f 166//166 174//175 165//165
f 176//176 174//175 166//166
f 177//177 176//176 166//166
f 166//166 178//178 177//177
f 179//179 178//178 166//166
f 175//180 179//179 166//166
f 167//168 168//167 181//181
f 167//168 181//181 180//182
f 182//183 169//169 167//168
f 168//167 183//184 181//181
f 172//172 169//169 182//183
f 172//172 162//162 169//169
f 175//180 166//166 170//170
f 175//180 170//170 171//171
f 184//173 185//185 171//171
f 186//186 171//171 187//187
f 171//171 188//188 187//187
f 186//186 175//180 171//171
f 185//185 188//188 171//171
f 172//172 182//183 184//173
f 189//189 173//174 174//175
f 161//161 164//164 173//174
f 176//176 189//189 174//175
f 176//176 177//177 190//190
f 178//178 191//191 177//177
f 191//191 178//178 192//192
f 179//179 192//192 178//178
f 167//168 180//182 182//183
f 183//184 193//193 181//181
f 194//194 183//184 168//167
f 168//167 161//161 190//190
f 194//194 168//167 190//190
f 190//190 161//161 189//189
f 161//161 173//174 189//189
f 179//179 175//180 186//186
f 182//183 180//182 184//173
f 180//182 185//185 184//173
f 195//195 188//188 185//185
f 207//196 195//195 185//185
f 196//197 207//196 185//185
f 180//182 196//197 185//185
f 187//187 188//188 197//198
f 190//190 189//189 176//176
f 191//191 190//190 177//177
f 198//199 190//190 191//191
f 199//200 190//190 198//199
f 190//190 199//200 194//194
f 192//192 200//201 191//191
f 186//186 187//187 192//192
f 186//186 192//192 179//179
f 201//202 192//192 202//203
f 203//204 200//201 192//192
f 202//203 192//192 197//198
f 192//192 187//187 197//198
f 203//204 192//192 201//202
f 181//181 193//193 180//182
f 193//193 196//197 180//182
f 193//193 183//184 204//205
f 205//206 204//205 183//184
f 205//206 183//184 206//207
f 183//184 194//194 206//207
f 188//188 195//195 197//198
f 207//196 208//208 195//195
f 207//196 196//197 209//209
f 210//210 211//211 199//200
f 200//201 199//200 198//199
f 199//200 200//201 210//210
f 199//200 211//211 212//212
f 194//194 199//200 212//212
f 213//213 206//207 194//194
f 212//212 213//213 194//194
f 191//191 200//201 198//199
f 214//214 201//202 215//215
f 201//202 202//203 215//215
f 214//214 203//204 201//202
f 195//195 202//203 197//198
f 215//215 202//203 216//216
f 208//208 202//203 195//195
f 202//203 208//208 216//216
f 200//201 203//204 210//210
f 216//216 209//209 204//205
f 204//205 205//206 216//216
f 204//205 209//209 196//197
f 196//197 193//193 204//205
f 205//206 213//213 216//216
f 213//213 205//206 206//207
f 216//216 208//208 207//196
f 216//216 207//196 209//209
f 203//204 211//211 210//210
f 203//204 214//214 211//211
f 214//214 217//217 211//211
f 212//212 211//211 217//217
f 215//215 212//212 217//217
f 214//214 215//215 217//217
f 212//212 215//215 216//216
f 216//216 213//213 212//212
f 218//218 219//219 220//220
f 220//220 221//221 218//218
f 222//222 219//219 223//223
f 224//224 225//225 219//219
f 219//219 218//218 226//226
f 219//219 226//226 224//224
f 223//223 219//219 225//225
f 227//227 220//220 219//219
f 222//222 227//227 219//219
f 228//228 220//220 227//227
f 228//228 221//221 220//220
f 229//229 218//218 221//221
f 230//230 222//222 223//223
f 231//231 224//224 226//226
f 233//232 224//224 232//233
f 225//225 224//224 233//232
f 231//231 232//233 224//224
f 234//234 230//230 225//225
f 230//230 223//223 225//225
f 228//228 235//235 221//221
f 231//231 226//226 218//218
f 218//218 236//236 231//231
f 235//235 237//237 221//221
f 237//237 238//238 221//221
f 221//221 238//238 229//229
f 218//218 229//229 239//239
f 240//240 236//236 218//218
f 218//218 239//239 241//241
f 241//241 240//240 218//218
f 230//230 242//242 222//222
f 232//233 236//236 233//232
f 231//231 236//236 232//233
f 243//243 225//225 233//232
f 244//244 233//232 236//236
f 244//244 243//243 233//232
f 225//225 243//243 234//234
f 243//243 245//245 234//234
f 246//246 234//234 245//245
f 247//247 234//234 246//246
f 242//242 230//230 234//234
f 234//234 247//247 242//242
f 248//248 227//227 222//222
f 235//235 227//227 248//248
f 228//228 227//227 235//235
f 229//229 238//238 239//239
f 240//240 250//249 249//250
f 241//241 250//249 240//240
f 242//242 251//251 248//248
f 247//247 251//251 242//242
f 242//242 248//248 222//222
f 244//244 236//236 240//240
f 249//250 244//244 240//240
f 238//238 237//237 252//252
f 235//235 252//252 237//237
f 238//238 252//252 239//239
f 249//250 243//243 244//244
f 246//246 249//250 247//247
f 247//247 249//250 253//253
f 246//246 243//243 249//250
f 241//241 239//239 252//252
f 241//241 252//252 250//249
f 247//247 254//254 251//251
f 245//245 243//243 246//246
f 253//253 254//254 247//247
f 235//235 253//253 252//252
f 253//253 235//235 255//255
f 235//235 248//248 255//255
f 249//250 250//249 252//252
f 252//252 253//253 249//250
f 255//255 248//248 251//251
f 255//255 251//251 254//254
f 255//255 254//254 253//253
f 259//256 256//257 258//258
f 259//256 260//259 256//257
f 256//257 257//260 261//261
f 262//262 258//258 256//257
f 261//261 262//262 256//257
f 263//263 257//260 256//257
f 258//258 264//264 259//256
f 265//265 266//266 259//256
f 266//266 260//259 259//256
f 259//256 264//264 265//265
f 260//259 263//263 256//257
f 267//267 263//263 260//259
f 257//260 263//263 268//268
f 268//268 269//269 257//260
f 269//269 261//261 257//260
f 262//262 261//261 270//270
f 258//258 262//262 264//264
f 265//265 262//262 270//270
f 265//265 264//264 262//262
f 263//263 271//271 268//268
f 270//270 272//272 265//265
f 265//265 273//273 266//266
f 272//272 274//274 265//265
f 274//274 273//273 265//265
f 266//266 273//273 275//275
f 276//276 277//277 266//266
f 266//266 275//275 276//276
f 266//266 277//277 260//259
f 271//271 263//263 267//267
f 278//278 271//271 267//267
f 260//259 279//279 267//267
f 267//267 279//279 278//278
f 280//280 268//268 271//271
f 281//281 269//269 268//268
f 280//280 281//281 268//268
f 269//269 270//270 261//261
f 282//282 280//280 271//271
f 283//283 282//282 271//271
f 283//283 271//271 278//278
f 285//284 270//270 286//285
f 270//270 284//286 272//272
f 270//270 285//284 284//286
f 288//287 289//288 275//275
f 276//276 275//275 289//288
f 289//288 290//289 276//276
f 277//277 276//276 291//290
f 290//289 291//290 276//276
f 291//290 279//279 277//277
f 279//279 292//291 278//278
f 279//279 260//259 277//277
f 280//280 293//292 281//281
f 282//282 293//292 280//280
f 269//269 281//281 295//293
f 295//293 281//281 294//294
f 281//281 296//295 294//294
f 269//269 286//285 270//270
f 282//282 297//296 293//292
f 283//283 298//297 282//282
f 283//283 278//278 292//291
f 285//284 286//285 295//293
f 299//298 285//284 295//293
f 269//269 295//293 286//285
f 274//274 272//272 287//299
f 272//272 285//284 287//299
f 274//274 287//299 273//273
f 287//299 275//275 273//273
f 287//299 288//287 275//275
f 287//299 300//300 288//287
f 294//294 296//295 288//287
f 296//295 301//301 288//287
f 300//300 294//294 288//287
f 301//301 289//288 288//287
f 301//301 290//289 289//288
f 301//301 302//302 290//289
f 292//291 291//290 290//289
f 303//303 290//289 302//302
f 303//303 292//291 290//289
f 291//290 292//291 279//279
f 281//281 297//296 304//304
f 281//281 305//305 296//295
f 293//292 297//296 281//281
f 304//304 305//305 281//281
f 294//294 299//298 295//293
f 282//282 302//302 297//296
f 282//282 303//303 302//302
f 303//303 282//282 298//297
f 292//291 298//297 283//283
f 303//303 298//297 292//291
f 285//284 272//272 284//286
f 299//298 306//306 285//284
f 306//306 287//299 285//284
f 306//306 300//300 287//299
f 304//304 301//301 305//305
f 296//295 305//305 301//301
f 302//302 301//301 304//304
f 300//300 299//298 294//294
f 306//306 299//298 300//300
f 304//304 297//296 302//302
