# Blender 4.0.2
# www.blender.org
mtllib midfoot_l.mtl
o midfoot_l.002
v -0.000699 0.008778 0.024370
v 0.002220 0.010402 0.023476
v 0.001220 0.004348 0.022777
v -0.003069 0.005796 0.023653
v -0.002168 0.004181 0.022317
v -0.004744 0.012241 0.023614
v -0.000636 0.011864 0.023827
v 0.007488 0.015929 0.018192
v 0.004942 0.016625 0.019259
v 0.009035 0.012852 0.016406
v 0.002884 0.005784 0.022250
v 0.001292 0.014927 0.022189
v -0.003871 0.004405 0.022643
v -0.001560 0.001485 0.020146
v -0.007786 0.010776 0.021876
v -0.008059 0.013842 0.020997
v -0.005913 0.014949 0.022020
v -0.005541 0.006983 0.023420
v 0.004542 0.018083 0.018531
v 0.002989 0.004098 0.012674
v 0.009444 0.015836 0.013650
v 0.009558 0.012141 0.011575
v -0.004740 0.003567 0.021087
v -0.001523 0.001115 0.016817
v -0.006691 0.008048 0.020744
v -0.008262 0.014348 0.019365
v 0.002541 0.021783 0.013509
v -0.004227 0.017747 0.016991
v 0.007904 0.018821 0.015359
v 0.007186 0.019257 0.014569
v 0.001233 0.002380 0.012145
v 0.002225 0.005463 0.002279
v 0.007691 0.017035 -0.001023
v 0.005891 0.012483 -0.003075
v 0.005043 0.008706 -0.000364
v 0.009488 0.015993 0.007196
v -0.004853 0.004155 0.018705
v -0.002810 0.003008 0.013126
v -0.006860 0.008262 0.013878
v -0.004538 0.017346 0.016396
v -0.002997 0.012919 0.007570
v 0.006659 0.021168 0.008095
v -0.000212 0.023012 0.007448
v 0.008111 0.017442 0.010701
v 0.000400 0.003362 0.006926
v -0.000300 0.003428 0.000949
v -0.000935 0.011088 -0.008420
v -0.000171 0.005389 -0.002733
v 0.005880 0.017325 -0.005750
v 0.006510 0.020502 0.002021
v 0.008086 0.018403 0.001478
v -0.005079 0.006176 0.015688
v -0.004013 0.003518 0.011133
v -0.002407 0.001007 0.005509
v -0.006345 0.005559 0.012414
v -0.006690 0.007017 0.007002
v -0.001376 0.022375 -0.001501
v -0.006523 0.014344 -0.005888
v 0.002510 0.023235 0.003724
v 0.000143 0.023657 0.004351
v -0.001585 0.001185 0.003990
v -0.002923 0.004760 -0.005831
v -0.002353 0.001691 0.000646
v -0.002785 0.012689 -0.011001
v -0.002870 0.008621 -0.009324
v 0.001039 0.014576 -0.007939
v -0.006274 0.002606 0.008401
v -0.006430 0.003049 0.006503
v -0.006503 0.000986 0.003755
v -0.007728 0.004455 0.001972
v -0.007737 0.008287 -0.000141
v -0.005788 0.016308 -0.008012
v -0.000358 0.022546 -0.001895
v -0.004777 0.007559 -0.008251
v -0.006466 0.002833 -0.000628
v -0.004297 0.012620 -0.011128
v -0.002463 0.020464 -0.005030
v 0.001350 0.016884 -0.006969
v -0.003852 0.015593 -0.009564
v -0.006744 0.014014 -0.008511
v -0.007638 0.008625 -0.003677
v -0.006650 0.006403 -0.005162
v 0.000813 -0.004261 -0.024876
v -0.006246 -0.003008 -0.022165
v -0.007380 -0.004277 -0.022352
v 0.000533 -0.007925 -0.023573
v -0.001175 0.006669 -0.019266
v -0.009052 0.003353 -0.016331
v -0.007955 -0.007612 -0.020506
v 0.002298 -0.005506 -0.026394
v -0.006955 -0.009206 -0.020096
v 0.003908 -0.008075 -0.022354
v 0.004778 -0.008431 -0.024750
v 0.012390 0.005344 -0.022225
v 0.008673 0.005580 -0.021222
v 0.009429 -0.000100 -0.026077
v -0.006841 0.005434 -0.016834
v -0.007372 -0.004376 -0.021533
v 0.005097 -0.004536 -0.028260
v 0.004928 -0.008305 -0.026665
v 0.002942 -0.010215 -0.019286
v -0.003186 -0.011844 -0.017784
v 0.008345 -0.006993 -0.017811
v 0.006240 -0.008943 -0.026153
v 0.010697 0.000580 -0.025382
v 0.013065 0.004629 -0.021918
v 0.001688 0.007078 -0.018331
v -0.006969 0.006675 -0.013316
v -0.005265 0.006983 -0.012979
v -0.009140 0.004159 -0.014288
v -0.007193 -0.003036 -0.010054
v -0.007042 -0.007631 -0.019219
v 0.003805 -0.006076 -0.027946
v 0.006247 -0.004996 -0.028238
v 0.003718 -0.011863 -0.017315
v 0.010266 -0.009517 -0.011861
v 0.013002 -0.005748 -0.015079
v 0.009640 -0.007354 -0.021971
v 0.012777 0.005353 -0.021442
v 0.014391 -0.006088 -0.017865
v 0.014178 0.000025 -0.018153
v -0.007245 0.005780 -0.012267
v -0.006976 0.002687 -0.010347
v -0.007678 -0.003002 -0.008238
v -0.006748 -0.006527 -0.012798
v -0.005528 -0.009545 -0.016938
v -0.001875 -0.010334 -0.014134
v 0.002433 -0.012888 -0.015833
v 0.009010 -0.009343 -0.010325
v 0.005626 -0.010918 -0.011956
v 0.010675 -0.007650 -0.009953
v 0.011916 -0.006461 -0.010738
v 0.013298 -0.004590 -0.013941
v 0.014975 -0.004732 -0.015301
v 0.005295 0.004779 -0.017356
v 0.008850 0.005411 -0.019443
v -0.005298 0.005407 -0.011786
v -0.005769 -0.006140 -0.004363
v -0.007173 -0.006619 -0.006672
v -0.007451 -0.006729 -0.008668
v -0.004668 -0.008053 -0.012359
v 0.004281 -0.008685 -0.010711
v 0.007190 -0.005847 -0.008173
v -0.000145 -0.004540 -0.005486
v -0.003692 -0.004209 -0.004734
v -0.004006 -0.007248 -0.009854
v -0.000958 -0.007780 -0.010172
v 0.003323 -0.007688 -0.009790
v 0.001803 -0.006010 -0.005351
v -0.003832 -0.006799 -0.003801
v -0.000754 -0.006914 -0.004650
v -0.002867 -0.007938 -0.007818
v 0.031264 0.013872 0.011940
v 0.030988 0.014803 0.013214
v 0.026957 0.015361 0.010682
v 0.033707 0.012488 0.014362
v 0.031654 0.011278 0.016985
v 0.023616 0.016231 0.011939
v 0.030217 0.013076 0.017443
v 0.017632 0.010638 0.009945
v 0.011859 0.013173 0.011196
v 0.032257 0.011063 0.009972
v 0.033791 0.010941 0.013681
v 0.015801 0.015856 0.012537
v 0.015347 0.015262 0.016130
v 0.030165 0.008820 0.019364
v 0.025126 0.003756 0.007435
v 0.009376 0.007913 0.008673
v 0.028012 0.007054 0.009289
v 0.032389 0.010151 0.017145
v 0.027809 0.001518 0.012875
v 0.030897 0.008427 0.010400
v 0.012442 0.014867 0.014311
v 0.014578 0.012842 0.017309
v 0.027995 0.006034 0.020634
v 0.011716 0.011403 0.018029
v 0.012024 0.008667 0.019139
v 0.012327 0.004495 0.020711
v 0.025343 0.003255 0.021615
v 0.025043 -0.000080 0.005917
v 0.023959 0.001047 0.004943
v 0.027738 0.004732 0.009351
v 0.011291 0.004030 0.006302
v 0.028354 0.003527 0.010703
v 0.023138 -0.008180 0.011954
v 0.026109 0.000294 0.020941
v 0.024554 -0.004558 0.020095
v 0.023863 -0.007394 0.017438
v 0.011848 0.013946 0.015503
v 0.009393 0.008003 0.018175
v 0.010766 0.005259 0.020985
v 0.008477 0.000331 0.021190
v 0.023187 -0.001740 0.003614
v 0.006955 0.004983 0.006982
v 0.022120 -0.008858 0.014357
v 0.021784 -0.007349 0.006134
v 0.022900 -0.007364 0.018865
v 0.007818 0.005203 0.019840
v 0.002699 0.001533 0.011434
v 0.005987 0.003450 0.021359
v 0.006216 -0.002203 0.019279
v 0.017207 -0.006368 0.019021
v 0.004077 0.000939 0.020477
v 0.021271 -0.004934 0.003784
v 0.007714 -0.000515 0.006328
v 0.008263 0.002717 0.006136
v 0.020745 -0.009269 0.010062
v 0.019524 -0.008908 0.012830
v 0.020630 -0.007994 0.006227
v 0.004210 0.001825 0.020367
v 0.001783 0.000128 0.015121
v 0.002281 0.000059 0.008718
v 0.003802 0.001885 0.006955
v 0.001742 -0.001058 0.016068
v 0.003128 -0.002849 0.013334
v 0.007032 -0.003669 0.008128
v 0.001501 -0.000822 0.012654
v 0.024775 0.012719 -0.004661
v 0.013356 0.014353 -0.003824
v 0.018786 0.012313 -0.006120
v 0.022555 0.011173 -0.006314
v 0.009421 0.014503 -0.003958
v 0.009768 0.016324 -0.001331
v 0.021616 0.015828 0.001205
v 0.011408 0.016225 0.003795
v 0.024226 0.014834 0.000233
v 0.012944 0.013638 -0.004207
v 0.018523 0.009919 -0.006103
v 0.023567 0.009586 -0.005151
v 0.008992 0.015777 0.000075
v 0.024778 0.013905 0.003945
v 0.024532 0.012833 0.006720
v 0.019443 0.013191 0.008154
v 0.010443 0.014273 0.005447
v 0.012983 0.000586 -0.002521
v 0.024833 0.011184 0.007400
v 0.015852 -0.000036 -0.002721
v 0.019759 0.000433 -0.002820
v 0.021405 0.001204 -0.001839
v 0.024353 0.009924 0.007210
v 0.021543 0.002132 0.000120
v 0.008718 0.013227 -0.002557
v 0.011030 0.012460 0.009119
v 0.017528 0.011135 0.008520
v 0.010205 0.012059 0.008350
v 0.009755 0.008910 0.007786
v 0.009738 0.001935 0.003674
v 0.010299 0.001794 -0.002238
v 0.016884 0.001626 0.004006
v 0.020950 0.002447 0.003479
v 0.009656 0.002938 0.000048
v 0.016516 -0.000611 0.000268
v 0.011419 0.000848 0.002644
v 0.009621 0.001672 0.002060
v 0.010795 0.000907 0.000708
v 0.020075 0.009392 -0.015042
v 0.019265 0.006977 -0.016953
v 0.020339 0.012314 -0.011033
v 0.017826 0.012021 -0.009452
v 0.014607 0.012214 -0.009576
v 0.019083 0.005655 -0.017395
v 0.020805 0.010829 -0.011804
v 0.012072 0.011012 -0.012839
v 0.020033 0.011557 -0.009506
v 0.016292 0.000196 -0.006705
v 0.010378 0.002937 -0.006657
v 0.011721 0.013298 -0.010387
v 0.008908 0.004568 -0.017298
v 0.016369 0.001644 -0.017357
v 0.017172 0.002057 -0.015834
v 0.006177 0.013883 -0.011753
v 0.014571 -0.003556 -0.007186
v 0.013660 -0.002240 -0.004318
v 0.014729 -0.001954 -0.004944
v 0.009920 -0.000298 -0.004719
v 0.007933 0.004276 -0.005040
v 0.011744 0.013344 -0.006913
v 0.005415 0.016403 -0.007212
v 0.008807 0.014959 -0.006049
v 0.004918 0.007075 -0.016943
v 0.007116 0.003187 -0.015534
v -0.002121 0.009062 -0.013571
v 0.001130 0.013786 -0.010248
v 0.014407 -0.004132 -0.009618
v 0.012785 -0.005290 -0.009631
v 0.015072 -0.001036 -0.013653
v 0.012518 -0.003752 -0.005254
v 0.004300 0.001314 -0.003827
v 0.007761 0.001850 -0.003858
v 0.004088 0.011108 -0.006519
v 0.005673 0.012101 -0.005892
v 0.004762 0.016014 -0.006685
v -0.000414 0.006157 -0.012791
v 0.007424 -0.001953 -0.006318
v 0.012440 -0.002480 -0.011033
v 0.000124 0.001069 -0.005144
v -0.001049 0.005650 -0.010639
v -0.001353 0.011470 -0.011307
v 0.011584 -0.004139 -0.010160
v 0.008645 -0.002803 -0.006775
v 0.002233 0.003512 -0.003407
v -0.002199 0.007112 -0.009946
v -0.001039 0.009528 -0.010276
v -0.000738 0.003510 -0.006182
v -0.000498 0.001786 -0.005586
v 0.011436 -0.005179 -0.008870
vn 0.0821 -0.0816 0.9933
vn 0.3894 -0.6121 0.6883
vn 0.4847 0.0744 0.8715
vn 0.0273 -0.5698 0.8213
vn 0.0046 -0.3811 0.9245
vn -0.2557 0.2508 0.9337
vn 0.0890 0.3108 0.9463
vn 0.4565 0.4692 0.7560
vn 0.6912 0.3073 0.6540
vn 0.9081 -0.1930 0.3716
vn 0.7064 -0.4422 0.5526
vn 0.2063 0.5409 0.8154
vn 0.0711 -0.9397 0.3345
vn -0.8774 -0.1054 0.4680
vn -0.8219 0.3469 0.4517
vn -0.3597 0.6413 0.6777
vn -0.5720 -0.2753 0.7726
vn 0.3383 0.6862 0.6440
vn 0.7316 -0.6815 0.0172
vn 0.9580 0.2619 0.1170
vn 0.9346 -0.3558 -0.0036
vn -0.2638 -0.6171 0.7413
vn -0.0840 -0.9953 -0.0477
vn -0.6920 -0.6696 0.2696
vn -0.9133 -0.4071 0.0077
vn -0.9073 0.4204 -0.0118
vn 0.0583 0.9334 0.3542
vn -0.5433 0.8180 0.1890
vn 0.5977 0.7344 0.3216
vn 0.5208 0.8271 0.2116
vn 0.3570 -0.9295 -0.0922
vn 0.6738 -0.7183 -0.1731
vn 0.7919 -0.3850 -0.4740
vn 0.9527 0.0287 -0.3027
vn 0.7482 -0.5811 -0.3203
vn 0.9777 0.1901 -0.0893
vn -0.8265 -0.5324 -0.1829
vn -0.5112 -0.8594 -0.0069
vn -0.9908 -0.1176 -0.0663
vn -0.7920 0.5755 -0.2036
vn -0.9153 0.4010 -0.0369
vn 0.6878 0.7246 0.0432
vn -0.4777 0.8686 0.1315
vn 0.8445 0.5355 -0.0019
vn 0.4911 -0.8691 -0.0595
vn 0.6749 -0.6904 -0.2604
vn 0.6323 -0.6381 -0.4394
vn 0.6702 -0.3643 -0.6466
vn 0.6647 0.2826 -0.6915
vn 0.6551 0.7311 -0.1904
vn 0.8914 0.4188 -0.1732
vn -0.8063 -0.5903 0.0375
vn -0.4913 -0.8052 0.3320
vn 0.1904 -0.9654 0.1782
vn -0.8252 -0.4965 0.2692
vn -0.9735 0.2016 0.1081
vn -0.6274 0.7748 -0.0776
vn -0.9203 0.3687 0.1309
vn 0.3254 0.9430 -0.0689
vn -0.2659 0.9625 0.0534
vn 0.4369 -0.8960 -0.0795
vn 0.2828 -0.8965 -0.3411
vn 0.1943 -0.7743 -0.6023
vn 0.3150 -0.5138 -0.7980
vn 0.3622 0.0337 -0.9315
vn 0.4475 0.0919 -0.8896
vn -0.9944 -0.0513 0.0926
vn -0.5748 -0.8181 0.0168
vn -0.6356 -0.7037 0.3175
vn -0.9835 -0.1807 0.0055
vn -0.9800 0.1755 0.0933
vn -0.7094 0.5926 -0.3815
vn 0.0753 0.9166 -0.3926
vn -0.5999 -0.7071 -0.3743
vn -0.4559 -0.5341 -0.7120
vn -0.3367 -0.0019 -0.9416
vn -0.2861 0.8039 -0.5214
vn 0.2211 0.4899 -0.8433
vn -0.0636 0.5710 -0.8185
vn -0.8837 0.1810 -0.4317
vn -0.9841 -0.0661 -0.1649
vn -0.7615 -0.4676 -0.4488
vn -0.4653 0.1707 -0.8686
vn -0.7724 0.2153 -0.5975
vn -0.4731 0.4134 -0.7780
vn -0.2269 -0.7666 -0.6007
vn -0.9006 0.2402 -0.3623
vn -0.2433 0.7875 -0.5663
vn -0.9577 -0.2423 -0.1554
vn -0.6960 -0.2903 -0.6567
vn -0.6760 -0.6792 -0.2857
vn 0.1131 -0.9868 -0.1156
vn -0.2794 -0.9597 -0.0312
vn 0.3323 0.7673 -0.5485
vn 0.1686 0.9408 0.2940
vn 0.1017 0.3863 -0.9168
vn -0.5125 0.6163 -0.5979
vn -0.9748 0.2146 -0.0606
vn -0.2386 0.3220 -0.9162
vn -0.4536 -0.2620 -0.8518
vn -0.3462 -0.7469 -0.5677
vn 0.2354 -0.7545 -0.6126
vn -0.3226 -0.9340 -0.1536
vn 0.4069 -0.8913 -0.2001
vn 0.2644 -0.8710 -0.4141
vn 0.5937 0.1404 -0.7923
vn 0.8899 0.2659 -0.3706
vn 0.1657 0.9851 0.0459
vn -0.4882 0.8632 0.1286
vn 0.0524 0.8976 0.4378
vn -0.9479 0.3065 0.0865
vn -0.9944 -0.0223 -0.1031
vn -0.9325 -0.1838 0.3111
vn 0.3724 -0.1468 -0.9164
vn -0.6900 -0.6645 0.2870
vn 0.3594 -0.7826 -0.5082
vn 0.5589 -0.8142 0.1571
vn 0.6100 -0.7887 0.0766
vn 0.4923 -0.8444 -0.2114
vn 0.5974 0.7823 0.1765
vn 0.7362 -0.6611 -0.1450
vn 0.8743 0.3786 0.3038
vn 0.2910 0.8219 0.4897
vn -0.5214 0.5648 0.6397
vn -0.5513 0.3748 0.7454
vn -0.8829 -0.4673 0.0451
vn -0.9637 0.1504 0.2206
vn 0.0234 -0.9976 0.0652
vn -0.3040 -0.7805 0.5462
vn -0.0460 -0.8172 0.5744
vn 0.2197 -0.7083 0.6709
vn 0.5678 -0.3541 0.7431
vn 0.8072 0.0664 0.5866
vn 0.7333 0.1442 0.6644
vn 0.8810 -0.1829 0.4364
vn 0.3507 0.6599 0.6645
vn 0.1242 0.5847 0.8017
vn -0.5587 -0.1807 0.8094
vn -0.7617 -0.5505 0.3417
vn -0.7939 -0.6080 0.0084
vn -0.3724 -0.8701 0.3230
vn -0.1454 -0.6691 0.7288
vn 0.3562 0.0355 0.9337
vn 0.2660 0.4994 0.8245
vn 0.0048 0.5099 0.8602
vn -0.1443 -0.9864 0.0786
vn -0.0832 -0.9843 0.1558
vn 0.0803 -0.8179 0.5698
vn 0.4538 -0.1633 0.8760
vn -0.0694 -0.4536 0.8885
vn -0.0954 -0.9939 0.0548
vn 0.2594 -0.5167 0.8159
vn 0.4579 0.8886 0.0257
vn 0.5583 0.6603 -0.5023
vn 0.1459 0.7049 -0.6941
vn 0.8546 0.4809 0.1961
vn 0.0043 0.9744 -0.2247
vn 0.3747 0.6422 0.6687
vn 0.5937 0.4736 0.6505
vn -0.0139 0.3301 -0.9438
vn -0.5681 0.5948 -0.5688
vn 0.6343 0.0717 -0.7698
vn 0.9769 -0.1992 -0.0772
vn -0.1626 0.9103 -0.3807
vn -0.1872 0.7845 0.5912
vn 0.4805 0.0920 0.8721
vn -0.4922 0.6563 -0.5719
vn 0.3189 0.4046 -0.8571
vn 0.2510 0.0855 -0.9642
vn 0.8129 -0.0531 0.5800
vn 0.8990 -0.4376 -0.0158
vn 0.6832 -0.4137 -0.6017
vn 0.8373 -0.3913 -0.3819
vn -0.5758 0.8118 0.0973
vn -0.1160 0.5353 0.8366
vn -0.3797 0.5201 0.7650
vn -0.1676 0.3976 0.9021
vn 0.0687 0.2173 0.9737
vn 0.1385 0.0653 0.9882
vn 0.3817 0.1670 0.9091
vn 0.4205 0.3981 -0.8153
vn 0.8470 -0.1293 -0.5156
vn 0.6782 -0.1427 -0.7209
vn -0.0372 0.3438 -0.9383
vn 0.7259 -0.6749 -0.1328
vn 0.6218 -0.3039 0.7218
vn 0.5617 -0.4101 0.7185
vn 0.7073 -0.6801 0.1928
vn -0.6226 0.6945 0.3605
vn -0.6831 0.5837 0.4390
vn 0.0175 0.3445 0.9386
vn -0.0853 -0.2492 0.9647
vn 0.4441 -0.0425 -0.8950
vn -0.4641 0.6115 -0.6408
vn 0.2306 -0.9596 0.1610
vn 0.0864 -0.9819 -0.1684
vn 0.6148 -0.6314 -0.4727
vn 0.2012 -0.7480 0.6324
vn -0.5258 0.7298 0.4370
vn -0.7993 0.5978 -0.0618
vn -0.4561 0.4467 0.7697
vn -0.3488 -0.7144 0.6066
vn -0.2045 -0.7403 0.6404
vn -0.6437 -0.1817 0.7433
vn 0.1588 -0.3752 -0.9133
vn -0.2464 -0.2161 -0.9448
vn -0.0695 0.0976 -0.9928
vn -0.2589 -0.9559 0.1387
vn 0.0225 -0.8354 -0.5492
vn -0.7800 0.4350 0.4499
vn -0.8996 0.4188 0.1236
vn -0.8713 -0.0805 -0.4840
vn -0.7133 0.3027 -0.6322
vn -0.8742 -0.3484 0.3381
vn -0.5428 -0.8398 -0.0119
vn -0.4123 -0.7616 -0.4999
vn -0.9777 -0.1619 -0.1334
vn 0.7657 0.3968 -0.5062
vn -0.0655 0.4467 -0.8923
vn 0.0378 0.7941 -0.6066
vn 0.2883 0.0924 -0.9531
vn -0.5081 0.3858 -0.7700
vn -0.2589 0.9328 -0.2509
vn 0.1866 0.9814 -0.0447
vn -0.2404 0.9306 0.2759
vn 0.5999 0.7859 -0.1503
vn -0.1405 0.2003 -0.9696
vn -0.1376 -0.1840 -0.9733
vn 0.7260 -0.3358 -0.6001
vn -0.8614 0.4904 0.1324
vn 0.7765 0.5975 0.2000
vn 0.1548 0.5635 0.8115
vn 0.6057 0.5960 0.5272
vn -0.8536 0.4219 0.3056
vn -0.2927 -0.7098 -0.6407
vn 0.7654 -0.0432 0.6421
vn -0.0878 -0.7565 -0.6481
vn 0.3207 -0.7600 -0.5653
vn 0.7384 -0.6598 -0.1394
vn 0.6643 -0.4254 0.6146
vn 0.7861 -0.5976 0.1578
vn -0.9793 0.0155 -0.2018
vn -0.3079 0.2997 0.9030
vn 0.0833 -0.1972 0.9768
vn -0.8658 0.2432 0.4372
vn -0.7210 -0.2429 0.6490
vn -0.6805 -0.5304 0.5055
vn -0.6492 -0.4804 -0.5897
vn 0.0940 -0.6872 0.7204
vn 0.5338 -0.6827 0.4989
vn -0.9633 -0.2465 -0.1064
vn 0.0730 -0.9849 0.1572
vn -0.2192 -0.9071 0.3593
vn -0.8724 -0.4886 0.0126
vn -0.4902 -0.8686 -0.0719
vn 0.0165 0.8723 0.4887
vn 0.4567 0.8815 -0.1199
vn 0.6468 0.4755 -0.5962
vn 0.3901 0.8702 0.3011
vn 0.5114 -0.0884 -0.8548
vn 0.4608 0.3171 -0.8289
vn 0.9971 0.0670 -0.0349
vn 0.1109 0.7050 -0.7005
vn 0.6095 0.3643 0.7042
vn 0.7929 -0.0817 0.6038
vn 0.4056 0.2518 0.8787
vn 0.3466 0.8457 -0.4057
vn -0.1546 -0.0875 -0.9841
vn 0.3128 -0.5376 -0.7831
vn 0.8411 -0.5253 -0.1286
vn 0.0199 0.7547 -0.6557
vn 0.7071 -0.6650 0.2405
vn 0.2658 -0.1744 0.9481
vn 0.6751 -0.1869 0.7137
vn 0.2159 0.1438 0.9658
vn 0.4303 0.2375 0.8709
vn 0.5595 0.4351 0.7054
vn -0.0255 0.9975 0.0660
vn 0.3453 0.6008 0.7210
vn -0.2033 0.0980 -0.9742
vn -0.3956 -0.6679 -0.6305
vn -0.8131 0.1497 -0.5625
vn -0.5425 0.8112 -0.2185
vn 0.1220 -0.9398 -0.3191
vn 0.2429 -0.7941 -0.5571
vn 0.7233 -0.6773 -0.1341
vn -0.1048 -0.4397 0.8920
vn 0.3074 0.0662 0.9493
vn -0.4564 0.1813 0.8711
vn -0.1726 0.0773 0.9820
vn -0.4181 0.6363 0.6483
vn -0.5759 -0.6452 -0.5022
vn -0.4584 -0.5464 -0.7009
vn -0.4496 -0.8825 0.1380
vn -0.6341 -0.6936 0.3419
vn -0.6690 -0.6756 -0.3099
vn -0.8352 0.5495 0.0220
vn -0.4846 -0.4072 -0.7742
vn 0.0334 -0.7529 0.6572
vn -0.5422 -0.8263 0.1524
vn -0.2914 0.1142 0.9498
vn -0.9771 -0.0198 0.2120
vn -0.7858 0.2962 0.5429
vn -0.9719 -0.0569 0.2283
vn -0.9200 -0.3742 0.1165
vn -0.4148 -0.9060 -0.0843
s 1
f 1//1 3//2 2//3
f 1//1 5//4 3//2
f 4//5 5//4 1//1
f 4//5 1//1 6//6
f 7//7 6//6 1//1
f 1//1 2//3 7//7
f 9//8 2//3 8//9
f 2//3 10//10 8//9
f 10//10 2//3 11//11
f 11//11 2//3 3//2
f 2//3 12//12 7//7
f 2//3 9//8 12//12
f 5//4 14//13 3//2
f 4//5 14//13 5//4
f 15//14 6//6 16//15
f 7//7 17//16 6//6
f 6//6 18//17 4//5
f 17//16 16//15 6//6
f 15//14 18//17 6//6
f 9//8 19//18 12//12
f 20//19 10//10 11//11
f 10//10 21//20 8//9
f 21//20 10//10 22//21
f 20//19 22//21 10//10
f 11//11 3//2 20//19
f 17//16 7//7 12//12
f 19//18 17//16 12//12
f 13//22 14//13 4//5
f 4//5 18//17 13//22
f 24//23 3//2 14//13
f 13//22 23//24 14//13
f 23//24 15//14 25//25
f 23//24 18//17 15//14
f 26//26 16//15 17//16
f 26//26 15//14 16//15
f 27//27 28//28 17//16
f 27//27 17//16 19//18
f 28//28 26//26 17//16
f 8//9 29//29 9//8
f 30//30 9//8 29//29
f 9//8 30//30 19//18
f 20//19 31//31 32//32
f 20//19 32//32 22//21
f 29//29 8//9 21//20
f 22//21 34//33 33//34
f 34//33 22//21 35//35
f 36//36 22//21 33//34
f 22//21 36//36 21//20
f 32//32 35//35 22//21
f 31//31 20//19 24//23
f 24//23 20//19 3//2
f 13//22 18//17 23//24
f 24//23 14//13 23//24
f 23//24 37//37 24//23
f 38//38 31//31 24//23
f 26//26 39//39 15//14
f 28//28 40//40 26//26
f 40//40 41//41 26//26
f 26//26 41//41 39//39
f 42//42 27//27 30//30
f 27//27 19//18 30//30
f 42//42 43//43 27//27
f 28//28 27//27 43//43
f 44//44 29//29 21//20
f 30//30 29//29 44//44
f 32//32 31//31 45//45
f 32//32 45//45 46//46
f 48//47 35//35 32//32
f 46//46 48//47 32//32
f 44//44 21//20 36//36
f 34//33 47//48 49//49
f 47//48 34//33 48//47
f 48//47 34//33 35//35
f 33//34 34//33 49//49
f 50//50 36//36 51//51
f 36//36 33//34 51//51
f 50//50 44//44 36//36
f 52//52 24//23 37//37
f 37//37 23//24 25//25
f 38//38 52//52 53//53
f 52//52 38//38 24//23
f 53//53 54//54 38//38
f 45//45 31//31 38//38
f 45//45 38//38 54//54
f 25//25 15//14 39//39
f 39//39 55//55 52//52
f 25//25 39//39 52//52
f 56//56 55//55 39//39
f 56//56 39//39 41//41
f 37//37 25//25 52//52
f 43//43 41//41 40//40
f 41//41 43//43 57//57
f 58//58 41//41 57//57
f 58//58 56//56 41//41
f 43//43 42//42 59//59
f 60//60 43//43 59//59
f 28//28 43//43 40//40
f 42//42 30//30 44//44
f 45//45 61//61 46//46
f 61//61 45//45 54//54
f 46//46 63//62 62//63
f 46//46 61//61 63//62
f 62//63 48//47 46//46
f 51//51 33//34 49//49
f 65//64 47//48 48//47
f 47//48 65//64 64//65
f 62//63 65//64 48//47
f 49//49 47//48 66//66
f 42//42 44//44 50//50
f 49//49 50//50 51//51
f 55//55 56//56 68//67
f 69//68 55//55 68//67
f 69//68 67//69 55//55
f 68//67 56//56 70//70
f 71//71 56//56 58//58
f 71//71 70//70 56//56
f 57//57 43//43 60//60
f 58//58 57//57 72//72
f 50//50 59//59 42//42
f 59//59 50//50 73//73
f 60//60 59//59 73//73
f 61//61 54//54 63//62
f 62//63 75//74 74//75
f 75//74 62//63 63//62
f 74//75 65//64 62//63
f 47//48 64//65 66//66
f 65//64 76//76 64//65
f 73//73 49//49 77//77
f 49//49 73//73 50//50
f 78//78 77//77 49//49
f 66//66 78//78 49//49
f 78//78 66//66 79//79
f 52//52 55//55 53//53
f 67//69 69//68 53//53
f 69//68 54//54 53//53
f 55//55 67//69 53//53
f 68//67 70//70 69//68
f 71//71 80//80 81//81
f 58//58 80//80 71//71
f 81//81 70//70 71//71
f 57//57 73//73 77//77
f 57//57 60//60 73//73
f 72//72 57//57 77//77
f 63//62 54//54 69//68
f 69//68 75//74 63//62
f 65//64 74//75 76//76
f 74//75 82//82 80//80
f 80//80 76//76 74//75
f 82//82 74//75 75//74
f 75//74 81//81 82//82
f 69//68 70//70 75//74
f 75//74 70//70 81//81
f 64//65 79//79 66//66
f 79//79 64//65 76//76
f 77//77 79//79 72//72
f 77//77 78//78 79//79
f 72//72 79//79 76//76
f 80//80 82//82 81//81
f 58//58 72//72 80//80
f 76//76 80//80 72//72
f 83//83 85//84 84//85
f 86//86 85//84 83//83
f 84//85 88//87 87//88
f 84//85 87//88 83//83
f 86//86 89//89 85//84
f 83//83 90//90 86//86
f 91//91 89//89 86//86
f 92//92 91//91 86//86
f 93//93 92//92 86//86
f 93//93 86//86 90//90
f 94//94 87//88 95//95
f 87//88 96//96 83//83
f 88//87 97//97 87//88
f 87//88 94//94 96//96
f 98//98 85//84 89//89
f 83//83 96//96 99//99
f 113//100 83//83 99//99
f 113//100 90//90 83//83
f 85//84 98//98 84//85
f 93//93 90//90 100//101
f 90//90 113//100 100//101
f 101//102 102//103 91//91
f 92//92 101//102 91//91
f 101//102 92//92 103//104
f 103//104 92//92 93//93
f 104//105 103//104 93//93
f 100//101 104//105 93//93
f 105//106 96//96 94//94
f 105//106 94//94 106//107
f 107//108 95//95 87//88
f 108//109 87//88 97//97
f 108//109 109//110 87//88
f 107//108 87//88 109//110
f 110//111 97//97 88//87
f 84//85 98//98 88//87
f 98//98 111//112 88//87
f 110//111 88//87 111//112
f 89//89 112//113 98//98
f 98//98 112//113 111//112
f 99//99 96//96 114//114
f 113//100 99//99 114//114
f 89//89 91//91 112//113
f 104//105 100//101 113//100
f 126//115 91//91 102//103
f 126//115 112//113 91//91
f 115//116 102//103 101//102
f 115//116 101//102 103//104
f 117//117 116//118 103//104
f 118//119 117//117 103//104
f 115//116 103//104 116//118
f 118//119 103//104 104//105
f 106//107 94//94 119//120
f 94//94 95//95 119//120
f 105//106 106//107 120//121
f 120//121 106//107 121//122
f 136//123 119//120 95//95
f 107//108 136//123 95//95
f 114//114 96//96 105//106
f 97//97 110//111 108//109
f 110//111 122//124 108//109
f 110//111 123//125 122//124
f 111//112 123//125 110//111
f 111//112 125//126 124//127
f 111//112 112//113 125//126
f 124//127 123//125 111//112
f 125//126 112//113 126//115
f 104//105 113//100 114//114
f 115//116 116//118 128//128
f 102//103 115//116 128//128
f 127//129 102//103 128//128
f 130//130 128//128 116//118
f 129//131 130//130 116//118
f 129//131 116//118 131//132
f 117//117 132//133 116//118
f 116//118 132//133 131//132
f 133//134 132//133 117//117
f 134//135 117//117 120//121
f 118//119 120//121 117//117
f 134//135 133//134 117//117
f 120//121 118//119 114//114
f 104//105 114//114 118//119
f 114//114 105//106 120//121
f 121//122 134//135 120//121
f 121//122 106//107 119//120
f 133//134 121//122 135//136
f 133//134 134//135 121//122
f 135//136 121//122 136//123
f 121//122 119//120 136//123
f 109//110 135//136 107//108
f 107//108 135//136 136//123
f 122//124 137//137 109//110
f 122//124 109//110 108//109
f 137//137 135//136 109//110
f 137//137 122//124 123//125
f 138//138 124//127 139//139
f 140//140 139//139 124//127
f 124//127 125//126 140//140
f 138//138 123//125 124//127
f 141//141 126//115 127//129
f 125//126 126//115 141//141
f 141//141 140//140 125//126
f 126//115 102//103 127//129
f 142//142 141//141 127//129
f 142//142 127//129 128//128
f 142//142 128//128 130//130
f 142//142 130//130 129//131
f 131//132 143//143 129//131
f 132//133 143//143 131//132
f 143//143 133//134 135//136
f 132//133 133//134 143//143
f 143//143 135//136 137//137
f 137//137 144//144 143//143
f 137//137 123//125 144//144
f 145//145 144//144 123//125
f 145//145 123//125 138//138
f 140//140 141//141 146//146
f 141//141 147//147 146//146
f 142//142 147//147 141//141
f 142//142 129//131 143//143
f 142//142 143//143 148//148
f 143//143 149//149 148//148
f 144//144 149//149 143//143
f 150//150 145//145 138//138
f 138//138 139//139 150//150
f 140//140 146//146 152//151
f 140//140 152//151 139//139
f 148//148 147//147 142//142
f 146//146 147//147 152//151
f 149//149 151//152 148//148
f 150//150 151//152 144//144
f 151//152 149//149 144//144
f 145//145 150//150 144//144
f 151//152 150//150 152//151
f 139//139 152//151 150//150
f 152//151 147//147 148//148
f 148//148 151//152 152//151
f 154//153 153//154 155//155
f 154//153 156//156 153//154
f 154//153 155//155 158//157
f 154//153 159//158 157//159
f 158//157 159//158 154//153
f 160//160 161//161 155//155
f 155//155 161//161 158//157
f 162//162 160//160 155//155
f 162//162 155//155 153//154
f 162//162 153//154 156//156
f 157//159 156//156 154//153
f 163//163 162//162 156//156
f 164//164 165//165 158//157
f 158//157 165//165 159//158
f 158//157 161//161 164//164
f 159//158 165//165 166//166
f 157//159 159//158 166//166
f 168//167 160//160 167//168
f 161//161 160//160 168//167
f 169//169 160//160 162//162
f 169//169 167//168 160//160
f 170//170 163//163 156//156
f 157//159 170//170 156//156
f 166//166 170//170 157//159
f 163//163 170//170 171//171
f 172//172 162//162 163//163
f 163//163 184//173 172//172
f 163//163 171//171 184//173
f 173//174 165//165 164//164
f 174//175 165//165 173//174
f 166//166 165//165 174//175
f 176//176 166//166 174//175
f 177//177 166//166 176//176
f 166//166 177//177 178//178
f 179//179 166//166 178//178
f 175//180 166//166 179//179
f 167//168 181//181 168//167
f 167//168 180//182 181//181
f 182//183 167//168 169//169
f 168//167 181//181 183//184
f 172//172 182//183 169//169
f 172//172 169//169 162//162
f 175//180 170//170 166//166
f 175//180 171//171 170//170
f 184//173 171//171 185//185
f 186//186 187//187 171//171
f 171//171 187//187 188//188
f 186//186 171//171 175//180
f 185//185 171//171 188//188
f 172//172 184//173 182//183
f 189//189 174//175 173//174
f 161//161 173//174 164//164
f 176//176 174//175 189//189
f 176//176 190//190 177//177
f 178//178 177//177 191//191
f 191//191 192//192 178//178
f 179//179 178//178 192//192
f 167//168 182//183 180//182
f 183//184 181//181 193//193
f 194//194 168//167 183//184
f 168//167 190//190 161//161
f 194//194 190//190 168//167
f 190//190 189//189 161//161
f 161//161 189//189 173//174
f 179//179 186//186 175//180
f 182//183 184//173 180//182
f 180//182 184//173 185//185
f 195//195 185//185 188//188
f 207//196 185//185 195//195
f 196//197 185//185 207//196
f 180//182 185//185 196//197
f 187//187 197//198 188//188
f 190//190 176//176 189//189
f 191//191 177//177 190//190
f 198//199 191//191 190//190
f 199//200 198//199 190//190
f 190//190 194//194 199//200
f 192//192 191//191 200//201
f 186//186 192//192 187//187
f 186//186 179//179 192//192
f 201//202 202//203 192//192
f 203//204 192//192 200//201
f 202//203 197//198 192//192
f 192//192 197//198 187//187
f 203//204 201//202 192//192
f 181//181 180//182 193//193
f 193//193 180//182 196//197
f 193//193 204//205 183//184
f 205//206 183//184 204//205
f 205//206 206//207 183//184
f 183//184 206//207 194//194
f 188//188 197//198 195//195
f 207//196 195//195 208//208
f 207//196 209//209 196//197
f 210//210 199//200 211//211
f 200//201 198//199 199//200
f 199//200 210//210 200//201
f 199//200 212//212 211//211
f 194//194 212//212 199//200
f 213//213 194//194 206//207
f 212//212 194//194 213//213
f 191//191 198//199 200//201
f 214//214 215//215 201//202
f 201//202 215//215 202//203
f 214//214 201//202 203//204
f 195//195 197//198 202//203
f 215//215 216//216 202//203
f 208//208 195//195 202//203
f 202//203 216//216 208//208
f 200//201 210//210 203//204
f 216//216 204//205 209//209
f 204//205 216//216 205//206
f 204//205 196//197 209//209
f 196//197 204//205 193//193
f 205//206 216//216 213//213
f 213//213 206//207 205//206
f 216//216 207//196 208//208
f 216//216 209//209 207//196
f 203//204 210//210 211//211
f 203//204 211//211 214//214
f 214//214 211//211 217//217
f 212//212 217//217 211//211
f 215//215 217//217 212//212
f 214//214 217//217 215//215
f 212//212 216//216 215//215
f 216//216 212//212 213//213
f 218//218 220//219 219//220
f 220//219 218//218 221//221
f 222//222 223//223 219//220
f 224//224 219//220 225//225
f 219//220 226//226 218//218
f 219//220 224//224 226//226
f 223//223 225//225 219//220
f 227//227 219//220 220//219
f 222//222 219//220 227//227
f 228//228 227//227 220//219
f 228//228 220//219 221//221
f 229//229 221//221 218//218
f 230//230 223//223 222//222
f 231//231 226//226 224//224
f 233//232 232//233 224//224
f 225//225 233//232 224//224
f 231//231 224//224 232//233
f 234//234 225//225 230//230
f 230//230 225//225 223//223
f 228//228 221//221 235//235
f 231//231 218//218 226//226
f 218//218 231//231 236//236
f 235//235 221//221 237//237
f 237//237 221//221 238//238
f 221//221 229//229 238//238
f 218//218 239//239 229//229
f 240//240 218//218 236//236
f 218//218 241//241 239//239
f 241//241 218//218 240//240
f 230//230 222//222 242//242
f 232//233 233//232 236//236
f 231//231 232//233 236//236
f 243//243 233//232 225//225
f 244//244 236//236 233//232
f 244//244 233//232 243//243
f 225//225 234//234 243//243
f 243//243 234//234 245//245
f 246//246 245//245 234//234
f 247//247 246//246 234//234
f 242//242 234//234 230//230
f 234//234 242//242 247//247
f 248//248 222//222 227//227
f 235//235 248//248 227//227
f 228//228 235//235 227//227
f 229//229 239//239 238//238
f 240//240 249//249 250//250
f 241//241 240//240 250//250
f 242//242 248//248 251//251
f 247//247 242//242 251//251
f 242//242 222//222 248//248
f 244//244 240//240 236//236
f 249//249 240//240 244//244
f 238//238 252//252 237//237
f 235//235 237//237 252//252
f 238//238 239//239 252//252
f 249//249 244//244 243//243
f 246//246 247//247 249//249
f 247//247 253//253 249//249
f 246//246 249//249 243//243
f 241//241 252//252 239//239
f 241//241 250//250 252//252
f 247//247 251//251 254//254
f 245//245 246//246 243//243
f 253//253 247//247 254//254
f 235//235 252//252 253//253
f 253//253 255//255 235//235
f 235//235 255//255 248//248
f 249//249 252//252 250//250
f 252//252 249//249 253//253
f 255//255 251//251 248//248
f 255//255 254//254 251//251
f 255//255 253//253 254//254
f 259//256 258//257 256//258
f 259//256 256//258 260//259
f 256//258 261//260 257//261
f 262//262 256//258 258//257
f 261//260 256//258 262//262
f 263//263 256//258 257//261
f 258//257 259//256 264//264
f 265//265 259//256 266//266
f 266//266 259//256 260//259
f 259//256 265//265 264//264
f 260//259 256//258 263//263
f 267//267 260//259 263//263
f 257//261 268//268 263//263
f 268//268 257//261 269//269
f 269//269 257//261 261//260
f 262//262 270//270 261//260
f 258//257 264//264 262//262
f 265//265 270//270 262//262
f 265//265 262//262 264//264
f 263//263 268//268 271//271
f 270//270 265//265 272//272
f 265//265 266//266 273//273
f 272//272 265//265 274//274
f 274//274 265//265 273//273
f 266//266 275//275 273//273
f 276//276 266//266 277//277
f 266//266 276//276 275//275
f 266//266 260//259 277//277
f 271//271 267//267 263//263
f 278//278 267//267 271//271
f 260//259 267//267 279//279
f 267//267 278//278 279//279
f 280//280 271//271 268//268
f 281//281 268//268 269//269
f 280//280 268//268 281//281
f 269//269 261//260 270//270
f 282//282 271//271 280//280
f 283//283 271//271 282//282
f 283//283 278//278 271//271
f 285//284 286//285 270//270
f 270//270 272//272 284//286
f 270//270 284//286 285//284
f 288//287 275//275 289//288
f 276//276 289//288 275//275
f 289//288 276//276 290//289
f 277//277 291//290 276//276
f 290//289 276//276 291//290
f 291//290 277//277 279//279
f 279//279 278//278 292//291
f 279//279 277//277 260//259
f 280//280 281//281 293//292
f 282//282 280//280 293//292
f 269//269 295//293 281//281
f 295//293 294//294 281//281
f 281//281 294//294 296//295
f 269//269 270//270 286//285
f 282//282 293//292 297//296
f 283//283 282//282 298//297
f 283//283 292//291 278//278
f 285//284 295//293 286//285
f 299//298 295//293 285//284
f 269//269 286//285 295//293
f 274//274 287//299 272//272
f 272//272 287//299 285//284
f 274//274 273//273 287//299
f 287//299 273//273 275//275
f 287//299 275//275 288//287
f 287//299 288//287 300//300
f 294//294 288//287 296//295
f 296//295 288//287 301//301
f 300//300 288//287 294//294
f 301//301 288//287 289//288
f 301//301 289//288 290//289
f 301//301 290//289 302//302
f 292//291 290//289 291//290
f 303//303 302//302 290//289
f 303//303 290//289 292//291
f 291//290 279//279 292//291
f 281//281 304//304 297//296
f 281//281 296//295 305//305
f 293//292 281//281 297//296
f 304//304 281//281 305//305
f 294//294 295//293 299//298
f 282//282 297//296 302//302
f 282//282 302//302 303//303
f 303//303 298//297 282//282
f 292//291 283//283 298//297
f 303//303 292//291 298//297
f 285//284 284//286 272//272
f 299//298 285//284 306//306
f 306//306 285//284 287//299
f 306//306 287//299 300//300
f 304//304 305//305 301//301
f 296//295 301//301 305//305
f 302//302 304//304 301//301
f 300//300 294//294 299//298
f 306//306 300//300 299//298
f 304//304 302//302 297//296
