# Blender 4.0.2
# www.blender.org
mtllib rib1_r.mtl
o rib1_r.002
v 0.053320 -0.047115 0.039053
v 0.053696 -0.046521 0.039836
v 0.053263 -0.045240 0.039991
v 0.053633 -0.047214 0.040282
v 0.053129 -0.046256 0.041282
v 0.052447 -0.043353 0.035800
v 0.052148 -0.045725 0.036423
v 0.052465 -0.048746 0.039925
v 0.051792 -0.049225 0.039110
v 0.049259 -0.041471 0.027509
v 0.047848 -0.043752 0.027399
v 0.052753 -0.047477 0.041377
v 0.051747 -0.041629 0.032901
v 0.050768 -0.040091 0.031544
v 0.051311 -0.049275 0.039775
v 0.049550 -0.039814 0.027881
v 0.048956 -0.039955 0.026796
v 0.048142 -0.038785 0.027132
v 0.049037 -0.046534 0.033709
v 0.049331 -0.047730 0.036213
v 0.047213 -0.039946 0.025665
v 0.048274 -0.045791 0.032096
v 0.047939 -0.041437 0.025828
v 0.047484 -0.042488 0.025839
v 0.046619 -0.041581 0.025415
v 0.047155 -0.043696 0.026880
v 0.047436 -0.044486 0.028836
v 0.046555 -0.043269 0.026621
v 0.051193 -0.043162 0.040711
v 0.051325 -0.044586 0.042749
v 0.048970 -0.045695 0.044460
v 0.048573 -0.039095 0.034989
v 0.046689 -0.044568 0.030757
v 0.046205 -0.040786 0.025573
v 0.049521 -0.044664 0.044773
v 0.049924 -0.047889 0.041550
v 0.046181 -0.037408 0.028841
v 0.043657 -0.039320 0.027536
v 0.048372 -0.042053 0.042736
v 0.044108 -0.035812 0.030901
v 0.044247 -0.037184 0.028535
v 0.042930 -0.037397 0.039088
v 0.041772 -0.038354 0.028747
v 0.042414 -0.040180 0.029784
v 0.043900 -0.041150 0.048373
v 0.039782 -0.034186 0.030374
v 0.041018 -0.036421 0.029379
v 0.040575 -0.033754 0.033644
v 0.040844 -0.039367 0.049802
v 0.043489 -0.041658 0.048518
v 0.037493 -0.035741 0.030906
v 0.039895 -0.037123 0.045512
v 0.040894 -0.040888 0.048891
v 0.041217 -0.041196 0.046704
v 0.036026 -0.031090 0.031989
v 0.036972 -0.033328 0.030710
v 0.034428 -0.034622 0.034202
v 0.038560 -0.038761 0.051170
v 0.030657 -0.032210 0.041012
v 0.036532 -0.037177 0.038448
v 0.036703 -0.038337 0.051832
v 0.034425 -0.030027 0.034653
v 0.032518 -0.028983 0.032039
v 0.030212 -0.029285 0.032546
v 0.032110 -0.031920 0.032478
v 0.034480 -0.034614 0.047149
v 0.034076 -0.032961 0.041323
v 0.032858 -0.028478 0.033719
v 0.034352 -0.036302 0.052730
v 0.033844 -0.033744 0.044291
v 0.032536 -0.035742 0.053213
v 0.030777 -0.032601 0.044173
v 0.028572 -0.024574 0.033741
v 0.028361 -0.024452 0.034536
v 0.024915 -0.022506 0.033701
v 0.026964 -0.027375 0.034153
v 0.029096 -0.030092 0.035413
v 0.028133 -0.033602 0.053695
v 0.029188 -0.028529 0.041068
v 0.028198 -0.031336 0.051765
v 0.024109 -0.023853 0.033909
v 0.026177 -0.032425 0.053694
v 0.025219 -0.028077 0.048731
v 0.024559 -0.027550 0.039799
v 0.029285 -0.032864 0.053890
v 0.027139 -0.032400 0.054313
v 0.023672 -0.021126 0.035158
v 0.022097 -0.020212 0.034493
v 0.022553 -0.025307 0.037414
v 0.021460 -0.022950 0.034639
v 0.025602 -0.030495 0.054308
v 0.023011 -0.025526 0.045702
v 0.020931 -0.019886 0.034054
v 0.024662 -0.029095 0.053837
v 0.021267 -0.020420 0.036510
v 0.019495 -0.020316 0.034011
v 0.018814 -0.021363 0.034463
v 0.017666 -0.021913 0.036613
v 0.021433 -0.025117 0.051520
v 0.021316 -0.027778 0.054239
v 0.021349 -0.028313 0.054112
v 0.019635 -0.027518 0.051224
v 0.019038 -0.019145 0.037907
v 0.018982 -0.019860 0.034557
v 0.018625 -0.019121 0.036112
v 0.017828 -0.019512 0.034707
v 0.021152 -0.025717 0.053205
v 0.021440 -0.027021 0.054028
v 0.020616 -0.028244 0.053339
v 0.016034 -0.018827 0.034647
v 0.015924 -0.019749 0.035080
v 0.019817 -0.023425 0.050195
v 0.015761 -0.017247 0.035305
v 0.010641 -0.018118 0.039377
v 0.014660 -0.017897 0.034596
v 0.014264 -0.019059 0.035287
v 0.016759 -0.019557 0.045379
v 0.014819 -0.015302 0.037564
v 0.017132 -0.020199 0.048939
v 0.017579 -0.022708 0.052431
v 0.014576 -0.021029 0.052401
v 0.015877 -0.023915 0.052769
v 0.013224 -0.013148 0.035567
v 0.013286 -0.014904 0.034140
v 0.012254 -0.014964 0.033212
v 0.015437 -0.018402 0.049972
v 0.015254 -0.020119 0.051808
v 0.013691 -0.016010 0.043689
v 0.014589 -0.023404 0.051305
v 0.012876 -0.013027 0.037408
v 0.011225 -0.011494 0.032180
v 0.010271 -0.012607 0.031416
v 0.010251 -0.013875 0.032048
v 0.007573 -0.014623 0.034103
v 0.001841 0.003325 0.000050
v 0.001975 0.002506 -0.000229
v 0.002420 0.001777 0.000508
v 0.002197 0.001445 0.001459
v 0.002216 0.002425 0.001270
v 0.002078 0.000215 0.000853
v 0.001622 0.000670 0.000078
v 0.001164 -0.001445 0.001628
v 0.001403 -0.000342 0.002310
v 0.000970 -0.001584 0.000951
v 0.013355 -0.015363 0.046170
v 0.012816 -0.014968 0.047173
v 0.012374 -0.021122 0.050460
v 0.010953 -0.019203 0.043893
v 0.005850 -0.007467 0.025713
v 0.008115 -0.013576 0.031878
v 0.000142 0.004920 0.000110
v 0.001502 0.003664 0.001568
v 0.001383 0.002366 -0.000350
v -0.000057 -0.000626 0.000170
v -0.001542 -0.001129 0.000502
v 0.000404 -0.001925 0.001297
v 0.012733 -0.016496 0.049501
v 0.013578 -0.021161 0.051981
v 0.010388 -0.018694 0.049015
v 0.009349 -0.012148 0.039446
v 0.007845 -0.007748 0.031243
v 0.006188 -0.006499 0.026036
v 0.000103 0.004128 0.003088
v 0.000196 0.005156 0.001645
v 0.000477 0.005080 0.000572
v -0.000640 0.005618 0.000891
v -0.000558 0.000776 0.005916
v -0.000933 -0.000441 0.005691
v -0.002219 -0.001523 0.004519
v -0.002353 -0.001529 0.001688
v 0.010213 -0.015440 0.049229
v 0.005432 -0.014441 0.037015
v 0.004631 -0.004363 0.025544
v 0.004391 -0.009803 0.028000
v 0.003438 -0.006589 0.023491
v 0.002694 -0.004341 0.020870
v -0.001282 0.002733 0.006256
v -0.001504 0.004343 0.004609
v -0.001363 -0.000353 0.008580
v -0.001355 0.005271 0.000581
v -0.002001 0.006561 0.001251
v -0.001694 -0.000973 0.005982
v -0.002356 -0.001079 0.008215
v -0.005426 0.001319 0.001514
v -0.003740 -0.000643 0.001498
v 0.010124 -0.012913 0.046397
v 0.009378 -0.015944 0.049209
v 0.007566 -0.010108 0.043060
v 0.007870 -0.015821 0.047826
v 0.008020 -0.016955 0.046168
v 0.005448 -0.007168 0.034217
v 0.000973 -0.002362 0.018571
v 0.000700 -0.002955 0.017709
v 0.001855 -0.006513 0.023098
v -0.000318 -0.002238 0.015533
v -0.001151 -0.000954 0.012016
v -0.001869 -0.002581 0.013670
v -0.000624 -0.003769 0.017113
v -0.001744 0.006650 0.001781
v -0.001368 0.000703 0.009614
v -0.003852 0.005861 0.001293
v -0.002492 0.006713 0.001776
v -0.004153 0.005979 0.001776
v -0.003663 -0.000929 0.006995
v -0.004806 -0.000078 0.004319
v -0.005208 0.000767 0.001747
v 0.005643 -0.007525 0.038926
v 0.004096 -0.014310 0.042921
v 0.002718 -0.012784 0.039800
v 0.001531 -0.009319 0.032061
v -0.000169 -0.000363 0.022272
v -0.000607 -0.000305 0.017854
v -0.001145 -0.000109 0.014473
v -0.001765 -0.004077 0.018289
v -0.002189 0.001454 0.010895
v -0.002916 0.004151 0.006113
v -0.004402 -0.001514 0.010197
v -0.004828 0.005130 0.005566
v -0.005549 0.004760 0.002375
v -0.006457 0.000544 0.006474
v -0.005735 0.003158 0.001857
v -0.006102 0.002290 0.003450
v 0.004594 -0.010448 0.044195
v 0.004412 -0.006692 0.040223
v -0.000165 -0.001981 0.026276
v 0.001315 -0.010524 0.036963
v -0.002208 -0.006140 0.028493
v -0.002169 -0.004411 0.022389
v -0.006600 0.004932 0.005500
v -0.007388 -0.000553 0.011776
v -0.006763 0.004035 0.004460
v -0.007104 -0.000131 0.009064
v 0.002615 -0.010826 0.043911
v 0.001672 -0.004165 0.036664
v 0.002091 -0.012054 0.042299
v 0.002383 -0.011489 0.043596
v -0.001830 -0.000794 0.026905
v -0.004357 0.002544 0.016109
v -0.006992 0.005020 0.007988
v -0.009243 0.003717 0.008273
v -0.009162 0.002598 0.008094
v -0.009068 0.001158 0.009527
v 0.001799 -0.005308 0.039546
v 0.000911 -0.008235 0.041900
v -0.000555 -0.008601 0.038396
v -0.003555 -0.005121 0.033783
v -0.005034 0.004168 0.019685
v -0.002984 0.001765 0.020589
v -0.005273 -0.002150 0.022372
v -0.007134 0.005007 0.011647
v -0.006000 -0.001555 0.018900
v -0.002049 -0.003979 0.037429
v -0.001289 -0.001105 0.033223
v -0.003098 -0.004693 0.036070
v -0.003486 0.001457 0.027455
v -0.006814 0.006778 0.015031
v -0.006285 0.004834 0.015736
v -0.006922 0.005375 0.014023
v -0.008022 0.005808 0.012746
v -0.009310 0.005318 0.012033
v -0.010244 0.002037 0.012522
v -0.009629 0.001128 0.014159
v -0.009966 0.002553 0.010185
v -0.002845 -0.000493 0.033426
v -0.004384 0.001586 0.030569
v -0.006612 -0.002322 0.028499
v -0.006515 0.006800 0.016779
v -0.008048 0.007786 0.014237
v -0.008923 0.001716 0.020943
v -0.009357 0.005795 0.012718
v -0.010647 0.003894 0.013889
v -0.005522 0.000490 0.031614
v -0.008159 0.008511 0.023047
v -0.006771 -0.001314 0.030256
v -0.008115 0.009997 0.016966
v -0.008573 0.010226 0.016195
v -0.009166 0.010113 0.015470
v -0.009816 0.008490 0.014029
v -0.009584 0.007090 0.013491
v -0.010471 0.005784 0.013750
v -0.011288 0.004554 0.019138
v -0.008503 0.007045 0.025257
v -0.011151 0.007255 0.023811
v -0.008783 0.011071 0.019112
v -0.008024 0.010200 0.019552
v -0.007695 0.009021 0.020610
v -0.009284 0.010894 0.017438
v -0.011422 0.005143 0.022573
v -0.010637 0.009510 0.015311
v -0.010740 0.008265 0.014318
v -0.011649 0.006521 0.015646
v -0.009225 0.011179 0.019959
v -0.009504 0.010372 0.021778
v -0.012033 0.008999 0.017506
v -0.012346 0.008516 0.019229
v -0.012117 0.006181 0.019456
v -0.011161 0.010427 0.021621
v -0.011561 0.009054 0.022662
v -0.011587 0.010561 0.020065
v -0.012196 0.009464 0.021151
v -0.012189 0.007174 0.021547
v 0.016119 -0.018907 0.034704
vn 0.8655 0.4569 0.2055
vn 0.8208 0.1195 0.5586
vn 0.9984 0.0538 -0.0195
vn 0.9748 0.0646 -0.2136
vn 0.8378 -0.3699 -0.4017
vn 0.9287 -0.3251 0.1785
vn 0.6173 -0.7643 0.1864
vn 0.9615 0.2186 -0.1668
vn 0.7624 -0.3974 -0.5107
vn 0.8283 -0.2448 -0.5040
vn 0.3419 -0.8963 -0.2824
vn 0.5544 -0.5088 0.6586
vn -0.1409 -0.9615 0.2360
vn 0.2958 -0.8334 -0.4669
vn -0.3886 -0.8937 -0.2244
vn 0.5161 -0.6977 -0.4969
vn 0.7687 0.6359 -0.0688
vn 0.1258 -0.6697 0.7319
vn -0.3692 -0.8591 0.3545
vn 0.8450 0.3925 -0.3631
vn 0.7246 0.2653 -0.6361
vn 0.4332 0.7735 -0.4627
vn -0.2397 -0.9065 -0.3476
vn -0.5819 -0.7885 -0.1990
vn 0.5708 -0.1046 -0.8144
vn 0.1399 0.4299 -0.8920
vn 0.3241 -0.4816 -0.8143
vn -0.2370 -0.2320 -0.9434
vn -0.0444 -0.8377 -0.5443
vn -0.1844 -0.9217 -0.3411
vn -0.4912 -0.6664 -0.5609
vn 0.6488 0.6925 0.3154
vn 0.7086 0.4613 0.5339
vn 0.5851 -0.0245 0.8106
vn 0.5612 0.7989 0.2162
vn 0.0012 0.6246 -0.7809
vn -0.5111 0.0799 -0.8558
vn -0.4236 0.1237 -0.8973
vn 0.5619 0.7559 0.3359
vn 0.6041 0.3446 0.7185
vn 0.3857 0.8705 -0.3058
vn 0.4782 0.8695 -0.1236
vn -0.6088 -0.2306 -0.7590
vn -0.6821 -0.6260 -0.3780
vn 0.4960 0.8201 0.2852
vn 0.5735 0.5980 0.5600
vn -0.3570 -0.8884 0.2885
vn 0.1789 -0.5104 0.8411
vn -0.5949 -0.8032 -0.0316
vn 0.1791 0.6019 -0.7782
vn -0.2642 0.2390 -0.9344
vn -0.6480 -0.7313 -0.2129
vn 0.5143 0.8417 0.1647
vn -0.6453 -0.7631 -0.0361
vn -0.5746 -0.4328 -0.6946
vn -0.2042 0.0648 -0.9768
vn 0.4962 0.8320 0.2480
vn 0.5664 0.7692 0.2957
vn 0.5087 0.8272 -0.2388
vn 0.6126 0.7591 0.2201
vn -0.6211 -0.7791 -0.0849
vn 0.4320 0.0295 0.9014
vn -0.5790 -0.7990 -0.1626
vn 0.1935 0.5026 -0.8426
vn -0.0915 -0.6597 0.7459
vn 0.5139 0.8407 0.1708
vn -0.4353 -0.8262 0.3576
vn 0.6435 0.7587 -0.1010
vn -0.4220 -0.2109 -0.8818
vn -0.6048 -0.5555 -0.5707
vn 0.4457 0.3272 0.8332
vn 0.5427 0.8127 0.2120
vn 0.5508 0.7522 -0.3617
vn -0.6488 -0.7285 -0.2201
vn -0.6162 -0.6056 -0.5035
vn 0.5975 0.7693 0.2262
vn -0.0315 -0.4383 0.8983
vn 0.6157 0.7183 0.3240
vn 0.6154 0.7636 0.1953
vn -0.5779 -0.7903 -0.2035
vn -0.2813 -0.2218 -0.9336
vn 0.4682 0.4577 0.7558
vn -0.5353 -0.8034 0.2607
vn 0.1549 0.3902 -0.9076
vn 0.6315 0.7456 0.2129
vn -0.5664 -0.7641 -0.3089
vn -0.1054 -0.2807 0.9540
vn 0.6263 0.7444 0.2314
vn 0.5470 0.8223 0.1570
vn -0.4380 -0.6186 -0.6523
vn 0.2149 0.2751 0.9371
vn 0.5343 0.6520 0.5380
vn -0.5886 -0.8012 -0.1077
vn 0.3796 0.9127 -0.1511
vn 0.1077 0.8564 -0.5050
vn -0.2165 0.1882 -0.9580
vn -0.4368 -0.4774 0.7624
vn -0.0637 0.8222 -0.5656
vn 0.5933 0.7995 0.0939
vn -0.5008 -0.7889 -0.3561
vn -0.3749 -0.5102 -0.7740
vn -0.1392 0.0033 0.9903
vn 0.6280 0.7358 0.2533
vn 0.2008 0.8977 -0.3921
vn 0.4930 0.8331 -0.2509
vn 0.2148 0.4148 0.8842
vn 0.6557 0.7200 0.2274
vn -0.6238 -0.7308 0.2773
vn 0.2203 0.5125 -0.8299
vn 0.4726 0.6630 0.5806
vn 0.7078 0.6921 0.1412
vn 0.6046 0.5262 -0.5979
vn -0.5307 -0.8219 -0.2070
vn 0.2097 0.3829 -0.8997
vn -0.2508 -0.3457 -0.9042
vn -0.3655 -0.5510 -0.7502
vn -0.2956 -0.6309 -0.7173
vn 0.4614 0.6149 0.6395
vn -0.5432 -0.3736 0.7519
vn -0.7059 -0.6877 0.1696
vn 0.7594 0.6499 0.0301
vn 0.1940 -0.1823 -0.9639
vn -0.1244 0.2517 0.9598
vn 0.7566 0.6510 0.0611
vn 0.7206 0.3176 -0.6164
vn 0.7949 0.5926 -0.1306
vn 0.5744 0.0013 -0.8186
vn -0.4778 -0.7960 -0.3716
vn 0.5950 0.6887 0.4143
vn 0.7002 0.7080 0.0920
vn 0.6057 0.7628 0.2267
vn -0.6176 -0.7818 -0.0859
vn 0.8260 0.2785 -0.4900
vn 0.1116 -0.4669 -0.8773
vn 0.4397 -0.3478 -0.8281
vn -0.1700 -0.7428 -0.6475
vn 0.7424 0.6697 0.0177
vn 0.2914 0.5615 0.7745
vn -0.5923 -0.1560 0.7905
vn 0.6291 0.7687 0.1150
vn 0.8651 0.2963 -0.4047
vn 0.9615 -0.0649 -0.2670
vn 0.7315 0.4894 -0.4748
vn 0.9011 0.2522 0.3526
vn 0.6161 0.1008 -0.7812
vn 0.9163 -0.0319 0.3992
vn 0.4734 -0.3043 -0.8266
vn 0.0232 -0.0033 -0.9997
vn 0.0097 -0.3474 -0.9377
vn 0.9102 -0.3682 -0.1897
vn 0.4863 -0.7207 -0.4941
vn 0.7059 -0.6730 0.2209
vn 0.8425 -0.3171 0.4355
vn 0.1735 -0.9692 -0.1745
vn 0.5898 0.7501 0.2990
vn 0.3071 0.6961 0.6489
vn -0.7906 -0.5344 0.2989
vn 0.6420 0.7588 0.1099
vn -0.5681 -0.7888 -0.2345
vn 0.5612 -0.4373 -0.7027
vn -0.2433 -0.8274 -0.5062
vn 0.5818 0.7785 -0.2355
vn 0.1030 0.4986 -0.8607
vn 0.8048 0.4858 0.3409
vn 0.6278 0.7308 0.2681
vn 0.6844 0.5130 0.5180
vn 0.9198 -0.0310 0.3912
vn 0.7211 -0.6226 0.3041
vn -0.2482 -0.5296 -0.8112
vn -0.3471 -0.9093 -0.2295
vn 0.3259 0.8075 0.4916
vn -0.0354 0.5857 0.8097
vn -0.4933 0.1633 0.8544
vn -0.7664 -0.5998 0.2298
vn -0.6741 -0.7162 0.1805
vn 0.2629 -0.7437 -0.6146
vn 0.3248 0.8172 -0.4760
vn 0.7488 0.5108 0.4224
vn -0.0610 -0.9846 0.1641
vn 0.4053 -0.9030 0.1423
vn -0.5694 -0.6807 -0.4609
vn -0.7406 -0.3676 0.5625
vn 0.6925 0.7190 0.0581
vn -0.6942 -0.7062 0.1390
vn 0.7188 0.6931 -0.0539
vn -0.5959 -0.7722 -0.2204
vn 0.5990 -0.5113 -0.6163
vn -0.1583 -0.8960 -0.4148
vn 0.2376 -0.8550 -0.4610
vn 0.3790 0.9169 0.1247
vn 0.4849 0.6931 0.5334
vn 0.9494 0.2583 0.1787
vn 0.8644 -0.5006 0.0458
vn 0.1430 0.8825 -0.4481
vn 0.0534 0.7784 -0.6255
vn -0.4212 0.4789 -0.7702
vn 0.2930 -0.9507 -0.1020
vn -0.7215 -0.2199 -0.6566
vn -0.2474 -0.9633 -0.1041
vn -0.6370 -0.7592 -0.1336
vn -0.7655 -0.5545 -0.3263
vn 0.3894 0.8141 0.4308
vn -0.0437 0.6569 0.7527
vn 0.4486 0.8004 0.3976
vn 0.6075 0.7803 0.1485
vn -0.7042 -0.7020 -0.1061
vn -0.7063 -0.6885 -0.1645
vn 0.8562 0.3897 -0.3391
vn 0.7090 0.6995 -0.0889
vn 0.5565 0.8194 0.1376
vn 0.8063 0.5473 -0.2244
vn -0.5094 -0.8428 -0.1740
vn 0.8248 0.5602 -0.0770
vn -0.3199 -0.9225 -0.2159
vn 0.8692 -0.2388 -0.4331
vn 0.9740 -0.1478 -0.1716
vn 0.7170 0.6663 0.2050
vn 0.3401 -0.8690 -0.3595
vn 0.4226 0.8023 0.4215
vn -0.1457 0.9877 -0.0574
vn -0.5509 0.7717 -0.3178
vn -0.2341 -0.9446 -0.2302
vn -0.7629 0.0712 -0.6426
vn -0.8940 -0.3116 -0.3219
vn -0.5886 -0.7345 -0.3377
vn -0.5374 0.2186 0.8145
vn 0.1302 0.9335 0.3341
vn -0.7582 0.4454 -0.4763
vn -0.4907 0.8515 -0.1849
vn 0.1198 0.7961 0.5932
vn 0.5698 0.8043 0.1688
vn -0.8190 -0.5325 0.2139
vn 0.5195 0.8232 0.2289
vn 0.7128 0.6977 0.0719
vn -0.5854 -0.7985 -0.1404
vn -0.6209 -0.7838 0.0138
vn 0.6535 0.7569 -0.0078
vn 0.2389 0.9684 0.0723
vn -0.5256 -0.8437 -0.1097
vn -0.8612 0.2665 -0.4328
vn -0.4678 -0.8420 -0.2688
vn -0.8490 -0.2486 -0.4663
vn -0.7866 -0.2854 0.5475
vn -0.8231 -0.5634 0.0717
vn -0.8793 -0.1669 0.4460
vn 0.6783 0.7334 0.0446
vn -0.7817 -0.6150 0.1038
vn 0.6977 0.7135 -0.0643
vn -0.8493 0.3515 -0.3939
vn -0.7323 -0.6201 -0.2813
vn -0.5635 0.3168 0.7630
vn 0.5842 0.7903 0.1847
vn 0.7760 0.6249 0.0858
vn 0.8823 0.4293 -0.1931
vn -0.6486 -0.7547 -0.0984
vn 0.8419 0.5364 -0.0592
vn -0.7466 -0.6648 0.0260
vn -0.5659 0.7264 -0.3900
vn -0.9542 -0.1491 -0.2595
vn -0.9067 -0.4097 -0.1007
vn 0.0987 0.8224 0.5603
vn -0.5267 0.4573 0.7165
vn 0.3203 0.8169 0.4797
vn -0.7831 -0.6215 0.0228
vn 0.8624 0.3633 -0.3524
vn 0.8409 0.4434 -0.3104
vn -0.7704 -0.6370 0.0259
vn 0.3403 0.8040 -0.4876
vn -0.2892 0.6568 -0.6964
vn -0.3831 0.5606 0.7341
vn 0.5249 0.5350 -0.6620
vn 0.5743 0.7285 -0.3735
vn 0.8033 0.5712 -0.1687
vn 0.9189 0.3750 -0.1220
vn -0.1979 0.3888 -0.8998
vn -0.9661 -0.0334 -0.2559
vn -0.7663 0.1296 -0.6293
vn -0.8612 -0.5070 0.0356
vn 0.8686 0.4778 0.1316
vn 0.5984 0.6872 0.4121
vn -0.8884 -0.2878 0.3577
vn 0.8508 0.5146 0.1065
vn -0.9090 -0.3529 0.2219
vn 0.1289 0.8041 -0.5804
vn -0.0626 0.5103 -0.8577
vn -0.6530 0.3238 -0.6846
vn -0.9450 -0.0584 -0.3217
vn -0.9606 -0.2769 -0.0228
vn -0.0248 0.7042 0.7096
vn -0.7397 0.1816 0.6479
vn 0.4612 0.8871 -0.0174
vn 0.2113 0.9590 0.1888
vn -0.0093 0.9652 -0.2615
vn -0.5352 0.6769 -0.5053
vn -0.9010 0.3455 -0.2623
vn 0.2485 0.8094 0.5321
vn -0.6222 0.7826 -0.0187
vn -0.3787 0.8008 0.4640
vn -0.9939 0.0875 -0.0665
vn -0.6508 0.4114 0.6381
vn -0.9133 0.3425 0.2202
vn -0.9683 -0.0987 0.2296
s 1
usemtl mtl1.1048
f 3//1 5//2 2//3
f 6//4 2//3 1//5
f 6//4 3//1 2//3
f 2//3 4//6 1//5
f 4//6 8//7 1//5
f 2//3 5//2 4//6
f 13//8 7//9 10//10
f 6//4 7//9 13//8
f 6//4 1//5 7//9
f 8//7 9//11 1//5
f 7//9 1//5 9//11
f 4//6 12//12 8//7
f 15//13 9//11 8//7
f 7//9 9//11 19//14
f 19//14 9//11 20//15
f 10//10 7//9 11//16
f 5//2 12//12 4//6
f 13//8 14//17 3//1
f 6//4 13//8 3//1
f 15//13 8//7 12//12
f 12//12 31//18 15//13
f 36//19 15//13 31//18
f 13//8 10//10 16//20
f 14//17 13//8 16//20
f 20//15 9//11 15//13
f 36//19 20//15 15//13
f 16//20 17//21 18//22
f 16//20 10//10 17//21
f 18//22 14//17 16//20
f 22//23 19//14 20//15
f 33//24 22//23 20//15
f 17//21 23//25 21//26
f 17//21 21//26 18//22
f 17//21 10//10 23//25
f 7//9 19//14 11//16
f 23//25 24//27 25//28
f 21//26 23//25 25//28
f 11//16 24//27 10//10
f 10//10 24//27 23//25
f 24//27 11//16 26//29
f 11//16 27//30 26//29
f 27//30 28//31 26//29
f 27//30 33//24 28//31
f 11//16 19//14 22//23
f 11//16 22//23 27//30
f 27//30 22//23 33//24
f 25//28 24//27 28//31
f 24//27 26//29 28//31
f 29//32 30//33 3//1
f 3//1 30//33 5//2
f 35//34 5//2 30//33
f 12//12 5//2 35//34
f 31//18 12//12 35//34
f 14//17 32//35 29//32
f 3//1 14//17 29//32
f 41//36 21//26 38//37
f 25//28 34//38 21//26
f 38//37 34//38 25//28
f 34//38 38//37 21//26
f 32//35 39//39 29//32
f 30//33 29//32 39//39
f 45//40 35//34 30//33
f 14//17 37//41 40//42
f 14//17 18//22 37//41
f 37//41 18//22 41//36
f 41//36 18//22 21//26
f 25//28 28//31 38//37
f 38//37 28//31 43//43
f 44//44 28//31 33//24
f 30//33 39//39 45//40
f 39//39 32//35 42//45
f 32//35 14//17 40//42
f 39//39 49//46 45//40
f 53//47 36//19 31//18
f 31//18 35//34 50//48
f 53//47 54//49 36//19
f 46//50 37//41 41//36
f 40//42 37//41 46//50
f 41//36 38//37 47//51
f 43//43 28//31 44//44
f 57//52 44//44 33//24
f 35//34 45//40 50//48
f 50//48 53//47 31//18
f 48//53 32//35 40//42
f 60//54 33//24 20//15
f 38//37 43//43 47//51
f 46//50 41//36 47//51
f 43//43 44//44 51//55
f 48//53 42//45 32//35
f 56//56 46//50 47//51
f 57//52 33//24 60//54
f 51//55 44//44 57//52
f 39//39 42//45 52//57
f 49//46 39//39 52//57
f 67//58 42//45 48//53
f 55//59 48//53 40//42
f 62//60 48//53 55//59
f 60//54 20//15 59//61
f 36//19 59//61 20//15
f 55//59 40//42 46//50
f 51//55 56//56 47//51
f 47//51 43//43 51//55
f 58//62 50//48 45//40
f 54//49 59//61 36//19
f 59//61 54//49 72//63
f 63//64 55//59 46//50
f 49//46 58//62 45//40
f 61//65 50//48 58//62
f 48//53 62//60 67//58
f 63//64 46//50 56//56
f 61//65 53//47 50//48
f 66//66 49//46 52//57
f 53//47 78//67 54//49
f 62//60 55//59 68//68
f 57//52 60//54 59//61
f 56//56 51//55 64//69
f 65//70 51//55 57//52
f 69//71 58//62 49//46
f 70//72 52//57 42//45
f 67//58 70//72 42//45
f 68//68 55//59 63//64
f 64//69 63//64 56//56
f 64//69 51//55 65//70
f 58//62 69//71 61//65
f 70//72 66//66 52//57
f 54//49 78//67 72//63
f 73//73 68//68 63//64
f 77//74 65//70 57//52
f 77//74 57//52 59//61
f 64//69 65//70 76//75
f 65//70 77//74 76//75
f 80//76 69//71 49//46
f 69//71 71//77 61//65
f 53//47 61//65 78//67
f 66//66 70//72 80//76
f 70//72 67//58 79//78
f 74//79 68//68 73//73
f 62//60 68//68 74//79
f 74//79 67//58 62//60
f 78//67 61//65 71//77
f 80//76 49//46 66//66
f 67//58 74//79 79//78
f 77//74 59//61 84//80
f 81//81 64//69 76//75
f 71//77 69//71 85//82
f 82//83 72//63 78//67
f 75//84 73//73 63//64
f 81//81 75//84 63//64
f 81//81 63//64 64//69
f 85//82 69//71 80//76
f 83//85 70//72 79//78
f 70//72 83//85 80//76
f 84//80 59//61 72//63
f 89//86 76//75 77//74
f 71//77 86//87 78//67
f 83//85 79//78 92//88
f 74//79 92//88 79//78
f 87//89 74//79 73//73
f 89//86 77//74 84//80
f 76//75 89//86 90//90
f 86//87 71//77 85//82
f 91//91 86//87 85//82
f 80//76 94//92 85//82
f 86//87 82//83 78//67
f 102//93 84//80 72//63
f 102//93 72//63 82//83
f 73//73 88//94 87//89
f 73//73 75//84 88//94
f 93//95 88//94 75//84
f 96//96 75//84 81//81
f 90//90 81//81 76//75
f 80//76 83//85 94//92
f 86//87 101//97 82//83
f 87//89 88//94 95//98
f 87//89 103//99 74//79
f 103//99 87//89 95//98
f 103//99 92//88 74//79
f 93//95 75//84 96//96
f 102//93 89//86 84//80
f 98//100 89//86 102//93
f 81//81 90//90 96//96
f 96//96 90//90 97//101
f 94//92 91//91 85//82
f 86//87 91//91 100//102
f 99//103 94//92 83//85
f 86//87 100//102 101//97
f 88//94 104//104 95//98
f 93//95 104//104 88//94
f 105//105 95//98 104//104
f 96//96 104//104 93//95
f 90//90 89//86 98//100
f 108//106 91//91 94//92
f 108//106 100//102 91//91
f 112//107 99//103 83//85
f 101//97 109//108 82//83
f 112//107 83//85 92//88
f 109//108 102//93 82//83
f 103//99 95//98 105//105
f 104//104 106//109 105//105
f 106//109 96//96 97//101
f 106//109 104//104 96//96
f 97//101 90//90 98//100
f 107//110 108//106 94//92
f 99//103 107//110 94//92
f 117//111 92//88 103//99
f 117//111 112//107 92//88
f 113//112 105//105 106//109
f 103//99 105//105 113//112
f 98//100 102//93 114//113
f 106//109 97//101 110//114
f 302//115 97//101 111//116
f 111//116 97//101 98//100
f 111//116 98//100 116//117
f 120//118 108//106 107//110
f 112//107 120//118 99//103
f 120//118 107//110 99//103
f 101//97 122//119 109//108
f 129//120 102//93 109//108
f 103//99 113//112 118//121
f 110//114 113//112 106//109
f 115//122 302//115 111//116
f 113//112 110//114 115//122
f 111//116 116//117 115//122
f 100//102 108//106 121//123
f 119//124 112//107 117//111
f 122//119 129//120 109//108
f 118//121 117//111 103//99
f 124//125 123//126 113//112
f 118//121 113//112 123//126
f 113//112 115//122 125//127
f 134//128 116//117 98//100
f 112//107 126//129 120//118
f 126//129 112//107 119//124
f 120//118 121//123 108//106
f 121//123 122//119 100//102
f 122//119 101//97 100//102
f 119//124 117//111 128//130
f 130//131 128//130 117//111
f 102//93 129//120 148//132
f 130//131 117//111 118//121
f 102//93 148//132 114//113
f 113//112 125//127 124//125
f 125//127 131//133 124//125
f 124//125 131//133 123//126
f 134//128 98//100 114//113
f 125//127 133//134 132//135
f 115//122 133//134 125//127
f 115//122 116//117 133//134
f 150//136 133//134 116//117
f 128//130 145//137 119//124
f 126//129 119//124 145//137
f 120//118 126//129 127//138
f 121//123 120//118 127//138
f 122//119 121//123 158//139
f 161//140 123//126 162//141
f 123//126 131//133 162//141
f 118//121 123//126 130//131
f 123//126 161//140 130//131
f 125//127 132//135 131//133
f 150//136 116//117 134//128
f 137//142 135//143 139//144
f 136//145 135//143 137//142
f 137//142 139//144 138//146
f 141//147 153//148 136//145
f 153//148 141//147 154//149
f 140//150 136//145 137//142
f 141//147 136//145 140//150
f 137//142 138//146 140//150
f 140//150 144//151 141//147
f 140//150 142//152 144//151
f 138//146 143//153 140//150
f 143//153 142//152 140//150
f 144//151 142//152 156//154
f 141//147 144//151 154//149
f 145//137 146//155 126//129
f 126//129 157//156 127//138
f 122//119 147//157 129//120
f 147//157 122//119 158//139
f 130//131 160//158 128//130
f 172//159 114//113 148//132
f 132//135 149//160 131//133
f 149//160 162//141 131//133
f 133//134 150//136 132//135
f 134//128 114//113 172//159
f 150//136 174//161 149//160
f 150//136 149//160 132//135
f 165//162 135//143 151//163
f 151//163 135//143 136//145
f 139//144 135//143 152//164
f 135//143 165//162 152//164
f 152//164 165//162 164//165
f 163//166 138//146 139//144
f 138//146 167//167 143//153
f 151//163 136//145 153//148
f 168//168 142//152 143//153
f 155//169 153//148 154//149
f 154//149 144//151 155//169
f 155//169 144//151 156//154
f 156//154 170//170 155//169
f 126//129 146//155 157//156
f 146//155 186//171 157//156
f 171//172 127//138 157//156
f 127//138 171//172 121//123
f 158//139 121//123 187//173
f 147//157 158//139 159//174
f 145//137 128//130 160//158
f 148//132 129//120 147//157
f 148//132 147//157 159//174
f 190//175 148//132 159//174
f 130//131 161//140 160//158
f 174//161 150//136 134//128
f 174//161 175//176 149//160
f 163//166 152//164 164//165
f 166//177 165//162 151//163
f 164//165 165//162 166//177
f 152//164 163//166 139//144
f 177//178 138//146 163//166
f 138//146 177//178 167//167
f 167//167 168//168 143//153
f 156//154 142//152 168//168
f 169//179 156//154 168//168
f 182//180 169//179 168//168
f 169//179 170//170 156//154
f 185//181 155//169 170//170
f 187//173 121//123 171//172
f 158//139 189//182 159//174
f 158//139 187//173 189//182
f 207//183 145//137 160//158
f 148//132 208//184 172//159
f 162//141 173//185 161//140
f 172//159 210//186 134//128
f 149//160 176//187 162//141
f 194//188 175//176 174//161
f 210//186 174//161 134//128
f 176//187 175//176 198//189
f 176//187 149//160 175//176
f 198//189 175//176 194//188
f 164//165 199//190 163//166
f 178//191 177//178 163//166
f 167//167 177//178 200//192
f 200//192 179//193 167//167
f 180//194 166//177 151//163
f 199//190 164//165 166//177
f 180//194 181//195 166//177
f 199//190 166//177 181//195
f 151//163 201//196 180//194
f 179//193 168//168 167//167
f 168//168 179//193 182//180
f 182//180 179//193 183//197
f 201//196 151//163 184//198
f 184//198 153//148 155//169
f 184//198 151//163 153//148
f 204//199 169//179 182//180
f 204//199 182//180 183//197
f 205//200 170//170 169//179
f 155//169 185//181 184//198
f 184//198 185//181 206//201
f 188//202 186//171 207//183
f 207//183 146//155 145//137
f 186//171 146//155 207//183
f 188//202 223//203 186//171
f 223//203 171//172 186//171
f 186//171 171//172 157//156
f 224//204 188//202 207//183
f 159//174 189//182 190//175
f 189//182 208//184 190//175
f 161//140 191//205 160//158
f 160//158 191//205 207//183
f 148//132 190//175 208//184
f 209//206 172//159 208//184
f 226//207 210//186 172//159
f 173//185 162//141 192//208
f 192//208 212//209 173//185
f 211//210 173//185 212//209
f 193//211 192//208 162//141
f 174//161 228//212 194//188
f 212//209 192//208 213//213
f 193//211 213//213 192//208
f 198//189 194//188 214//214
f 195//215 213//213 193//211
f 193//211 176//187 195//215
f 176//187 198//189 195//215
f 196//216 215//217 213//213
f 200//192 215//217 196//216
f 195//215 196//216 213//213
f 198//189 197//218 195//215
f 199//190 178//191 163//166
f 177//178 178//191 216//219
f 196//216 183//197 179//193
f 197//218 183//197 196//216
f 196//216 179//193 200//192
f 196//216 195//215 197//218
f 181//195 180//194 201//196
f 202//220 199//190 181//195
f 202//220 181//195 201//196
f 201//196 203//221 202//220
f 183//197 197//218 217//222
f 183//197 217//222 204//199
f 221//223 201//196 184//198
f 206//201 205//200 222//224
f 205//200 185//181 170//170
f 204//199 205//200 169//179
f 220//225 205//200 204//199
f 205//200 206//201 185//181
f 223//203 187//173 171//172
f 233//226 187//173 223//203
f 161//140 173//185 211//210
f 228//212 214//214 194//188
f 214//214 197//218 198//189
f 197//218 214//214 217//222
f 199//190 218//227 178//191
f 178//191 218//227 216//219
f 215//217 200//192 177//178
f 177//178 216//219 215//217
f 202//220 218//227 199//190
f 201//196 221//223 219//228
f 219//228 203//221 201//196
f 219//228 229//229 203//221
f 217//222 220//225 204//199
f 184//198 222//224 221//223
f 222//224 184//198 206//201
f 222//224 205//200 220//225
f 224//204 223//203 188//202
f 224//204 243//230 223//203
f 234//231 207//183 191//205
f 189//182 187//173 233//226
f 208//184 189//182 235//232
f 161//140 225//233 191//205
f 237//234 191//205 225//233
f 209//206 226//207 172//159
f 161//140 211//210 225//233
f 227//235 174//161 210//186
f 174//161 227//235 228//212
f 251//236 214//214 228//212
f 250//237 213//213 215//217
f 218//227 239//238 216//219
f 215//217 216//219 239//238
f 214//214 230//239 217//222
f 203//221 229//229 202//220
f 218//227 202//220 229//229
f 229//229 219//228 231//240
f 217//222 232//241 220//225
f 217//222 230//239 232//241
f 219//228 221//223 231//240
f 222//224 231//240 221//223
f 241//242 231//240 222//224
f 224//204 207//183 234//231
f 189//182 233//226 236//243
f 236//243 235//232 189//182
f 237//234 234//231 191//205
f 208//184 235//232 209//206
f 245//244 209//206 235//232
f 254//245 245//244 235//232
f 209//206 245//244 226//207
f 248//246 225//233 211//210
f 210//186 226//207 246//247
f 211//210 212//209 248//246
f 212//209 238//248 248//246
f 238//248 212//209 213//213
f 250//237 238//248 213//213
f 250//237 215//217 239//238
f 239//238 218//227 229//229
f 229//229 231//240 240//249
f 240//249 231//240 241//242
f 220//225 232//241 242//250
f 241//242 220//225 242//250
f 230//239 242//250 232//241
f 241//242 222//224 220//225
f 234//231 243//230 224//204
f 244//251 223//203 243//230
f 233//226 223//203 244//251
f 253//252 243//230 234//231
f 236//243 233//226 244//251
f 244//251 254//245 236//243
f 254//245 235//232 236//243
f 234//231 237//234 253//252
f 255//253 253//252 237//234
f 226//207 245//244 246//247
f 237//234 225//233 248//246
f 210//186 246//247 227//235
f 248//246 238//248 257//254
f 249//255 228//212 227//235
f 238//248 250//237 257//254
f 247//256 248//246 257//254
f 249//255 251//236 228//212
f 251//236 262//257 230//239
f 251//236 230//239 214//214
f 260//258 239//238 229//229
f 262//257 242//250 230//239
f 242//250 263//259 241//242
f 242//250 261//260 263//259
f 264//261 243//230 253//252
f 264//261 252//262 243//230
f 244//251 243//230 252//262
f 244//251 252//262 254//245
f 253//252 265//263 264//261
f 265//263 253//252 255//253
f 245//244 254//245 246//247
f 247//256 255//253 237//234
f 247//256 237//234 248//246
f 246//247 266//264 227//235
f 256//265 257//254 258//266
f 266//264 249//255 227//235
f 257//254 250//237 258//266
f 269//267 251//236 249//255
f 258//266 250//237 259//268
f 262//257 251//236 269//267
f 250//237 239//238 259//268
f 259//268 239//238 260//258
f 270//269 259//268 260//258
f 229//229 240//249 260//258
f 242//250 262//257 261//260
f 263//259 240//249 241//242
f 252//262 264//261 272//270
f 272//270 254//245 252//262
f 268//271 276//272 275//273
f 257//254 256//265 267//274
f 275//273 267//274 256//265
f 275//273 256//265 268//271
f 257//254 267//274 247//256
f 269//267 249//255 266//264
f 256//265 258//266 259//268
f 256//265 259//268 268//271
f 279//275 259//268 270//269
f 268//271 259//268 279//275
f 260//258 240//249 271//276
f 280//277 260//258 271//276
f 281//278 261//260 262//257
f 261//260 271//276 263//259
f 240//249 263//259 271//276
f 264//261 265//263 272//270
f 255//253 286//279 273//280
f 255//253 273//280 265//263
f 274//281 246//247 254//245
f 255//253 247//256 286//279
f 246//247 274//281 266//264
f 267//274 275//273 286//279
f 285//282 286//279 275//273
f 247//256 267//274 286//279
f 288//283 269//267 266//264
f 288//283 266//264 274//281
f 276//272 268//271 277//284
f 279//275 278//285 268//271
f 268//271 278//285 277//284
f 280//277 279//275 270//269
f 278//285 279//275 290//286
f 290//286 279//275 280//277
f 291//287 290//286 280//277
f 296//288 271//276 281//278
f 281//278 262//257 269//267
f 280//277 270//269 260//258
f 271//276 291//287 280//277
f 271//276 261//260 281//278
f 273//280 282//289 265//263
f 272//270 282//289 283//290
f 283//290 254//245 272//270
f 282//289 272//270 265//263
f 284//291 285//282 275//273
f 285//282 292//292 273//280
f 273//280 286//279 285//282
f 274//281 254//245 283//290
f 275//273 276//272 284//291
f 287//293 276//272 277//284
f 284//291 276//272 287//293
f 277//284 278//285 289//294
f 289//294 287//293 277//284
f 269//267 288//283 281//278
f 289//294 278//285 290//286
f 289//294 290//286 294//295
f 294//295 290//286 291//287
f 291//287 271//276 296//288
f 273//280 293//296 282//289
f 284//291 287//293 292//292
f 285//282 284//291 292//292
f 292//292 287//293 299//297
f 292//292 293//296 273//280
f 292//292 297//298 293//296
f 299//297 287//293 289//294
f 283//290 288//283 274//281
f 289//294 294//295 299//297
f 281//278 288//283 296//288
f 294//295 291//287 295//299
f 295//299 291//287 296//288
f 297//298 292//292 299//297
f 298//300 297//298 300//301
f 297//298 282//289 293//296
f 298//300 282//289 297//298
f 298//300 283//290 282//289
f 300//301 299//297 294//295
f 297//298 299//297 300//301
f 301//302 283//290 298//300
f 298//300 300//301 301//302
f 294//295 295//299 300//301
f 295//299 296//288 301//302
f 301//302 300//301 295//299
f 296//288 288//283 301//302
f 288//283 283//290 301//302
