# Blender 4.0.2
# www.blender.org
mtllib rib1_l.mtl
o rib1_l.002
v 0.053320 -0.047115 -0.039053
v 0.053696 -0.046521 -0.039836
v 0.053263 -0.045240 -0.039991
v 0.053633 -0.047214 -0.040282
v 0.053129 -0.046256 -0.041282
v 0.052447 -0.043353 -0.035800
v 0.052148 -0.045725 -0.036423
v 0.052465 -0.048746 -0.039925
v 0.051792 -0.049225 -0.039110
v 0.049259 -0.041471 -0.027509
v 0.047848 -0.043752 -0.027399
v 0.052753 -0.047477 -0.041377
v 0.051747 -0.041629 -0.032901
v 0.050768 -0.040091 -0.031544
v 0.051311 -0.049275 -0.039775
v 0.049550 -0.039814 -0.027881
v 0.048956 -0.039955 -0.026796
v 0.048142 -0.038785 -0.027132
v 0.049037 -0.046534 -0.033709
v 0.049331 -0.047730 -0.036213
v 0.047213 -0.039946 -0.025665
v 0.048274 -0.045791 -0.032096
v 0.047939 -0.041437 -0.025828
v 0.047484 -0.042488 -0.025839
v 0.046619 -0.041581 -0.025415
v 0.047155 -0.043696 -0.026880
v 0.047436 -0.044486 -0.028836
v 0.046555 -0.043269 -0.026621
v 0.051193 -0.043162 -0.040711
v 0.051325 -0.044586 -0.042749
v 0.048970 -0.045695 -0.044460
v 0.048573 -0.039095 -0.034989
v 0.046689 -0.044568 -0.030757
v 0.046205 -0.040786 -0.025573
v 0.049521 -0.044664 -0.044773
v 0.049924 -0.047889 -0.041550
v 0.046181 -0.037408 -0.028841
v 0.043657 -0.039320 -0.027536
v 0.048372 -0.042053 -0.042736
v 0.044108 -0.035812 -0.030901
v 0.044247 -0.037184 -0.028535
v 0.042930 -0.037397 -0.039088
v 0.041772 -0.038354 -0.028747
v 0.042414 -0.040180 -0.029784
v 0.043900 -0.041150 -0.048373
v 0.039782 -0.034186 -0.030374
v 0.041018 -0.036421 -0.029379
v 0.040576 -0.033754 -0.033644
v 0.040844 -0.039367 -0.049802
v 0.043489 -0.041658 -0.048518
v 0.037493 -0.035741 -0.030906
v 0.039895 -0.037123 -0.045512
v 0.040894 -0.040888 -0.048891
v 0.041217 -0.041196 -0.046704
v 0.036026 -0.031090 -0.031989
v 0.036972 -0.033328 -0.030710
v 0.034428 -0.034622 -0.034202
v 0.038560 -0.038761 -0.051170
v 0.030657 -0.032210 -0.041012
v 0.036532 -0.037177 -0.038448
v 0.036703 -0.038337 -0.051832
v 0.034425 -0.030027 -0.034653
v 0.032518 -0.028983 -0.032039
v 0.030212 -0.029285 -0.032546
v 0.032110 -0.031920 -0.032478
v 0.034480 -0.034614 -0.047149
v 0.034076 -0.032961 -0.041323
v 0.032858 -0.028478 -0.033719
v 0.034352 -0.036302 -0.052730
v 0.033844 -0.033744 -0.044291
v 0.032536 -0.035742 -0.053213
v 0.030777 -0.032600 -0.044173
v 0.028572 -0.024574 -0.033741
v 0.028361 -0.024452 -0.034536
v 0.024915 -0.022506 -0.033701
v 0.026964 -0.027375 -0.034153
v 0.029096 -0.030092 -0.035413
v 0.028133 -0.033602 -0.053695
v 0.029188 -0.028529 -0.041068
v 0.028198 -0.031336 -0.051765
v 0.024109 -0.023853 -0.033909
v 0.026177 -0.032425 -0.053694
v 0.025219 -0.028077 -0.048731
v 0.024559 -0.027550 -0.039799
v 0.029285 -0.032864 -0.053890
v 0.027139 -0.032400 -0.054313
v 0.023672 -0.021126 -0.035158
v 0.022097 -0.020212 -0.034493
v 0.022553 -0.025307 -0.037414
v 0.021460 -0.022950 -0.034639
v 0.025602 -0.030495 -0.054308
v 0.023011 -0.025526 -0.045702
v 0.020931 -0.019886 -0.034054
v 0.024662 -0.029095 -0.053837
v 0.021267 -0.020420 -0.036510
v 0.019495 -0.020316 -0.034011
v 0.018814 -0.021363 -0.034463
v 0.017666 -0.021913 -0.036613
v 0.021433 -0.025117 -0.051520
v 0.021316 -0.027778 -0.054239
v 0.021349 -0.028313 -0.054112
v 0.019635 -0.027518 -0.051224
v 0.019038 -0.019145 -0.037907
v 0.018982 -0.019860 -0.034557
v 0.018625 -0.019121 -0.036112
v 0.017828 -0.019512 -0.034707
v 0.021917 -0.026809 -0.053867
v 0.020616 -0.028244 -0.053339
v 0.016034 -0.018827 -0.034647
v 0.015924 -0.019749 -0.035080
v 0.019817 -0.023425 -0.050195
v 0.015761 -0.017247 -0.035305
v 0.010641 -0.018118 -0.039377
v 0.014660 -0.017897 -0.034596
v 0.014264 -0.019059 -0.035287
v 0.016759 -0.019557 -0.045379
v 0.014819 -0.015302 -0.037564
v 0.017132 -0.020199 -0.048939
v 0.017579 -0.022708 -0.052431
v 0.014576 -0.021029 -0.052401
v 0.015877 -0.023915 -0.052769
v 0.013224 -0.013148 -0.035567
v 0.013286 -0.014904 -0.034140
v 0.012254 -0.014964 -0.033212
v 0.015437 -0.018402 -0.049972
v 0.015254 -0.020119 -0.051808
v 0.013691 -0.016010 -0.043689
v 0.014589 -0.023404 -0.051305
v 0.012876 -0.013027 -0.037408
v 0.011225 -0.011494 -0.032180
v 0.010271 -0.012607 -0.031416
v 0.010251 -0.013875 -0.032048
v 0.007573 -0.014623 -0.034103
v 0.001841 0.003325 -0.000050
v 0.001975 0.002506 0.000229
v 0.002420 0.001777 -0.000508
v 0.002197 0.001445 -0.001459
v 0.002216 0.002425 -0.001270
v 0.002078 0.000215 -0.000853
v 0.001622 0.000670 -0.000078
v 0.001164 -0.001445 -0.001628
v 0.001403 -0.000342 -0.002310
v 0.000970 -0.001584 -0.000951
v 0.013355 -0.015363 -0.046170
v 0.012816 -0.014968 -0.047173
v 0.012374 -0.021122 -0.050460
v 0.010953 -0.019203 -0.043893
v 0.005850 -0.007467 -0.025713
v 0.008115 -0.013576 -0.031878
v 0.000142 0.004920 -0.000110
v 0.001502 0.003664 -0.001568
v 0.001383 0.002366 0.000350
v -0.000057 -0.000626 -0.000170
v -0.001542 -0.001129 -0.000502
v 0.000404 -0.001925 -0.001297
v 0.012733 -0.016496 -0.049501
v 0.013578 -0.021161 -0.051981
v 0.010388 -0.018694 -0.049015
v 0.009350 -0.012148 -0.039446
v 0.007845 -0.007748 -0.031243
v 0.006188 -0.006499 -0.026036
v 0.000103 0.004128 -0.003088
v 0.000196 0.005156 -0.001645
v 0.000477 0.005080 -0.000572
v -0.000640 0.005618 -0.000891
v -0.000558 0.000776 -0.005916
v -0.000933 -0.000441 -0.005691
v -0.002219 -0.001523 -0.004519
v -0.002353 -0.001529 -0.001688
v 0.010213 -0.015440 -0.049229
v 0.005432 -0.014441 -0.037015
v 0.004631 -0.004363 -0.025544
v 0.004391 -0.009803 -0.028000
v 0.003438 -0.006589 -0.023491
v 0.002694 -0.004341 -0.020870
v -0.001282 0.002733 -0.006256
v -0.001504 0.004343 -0.004609
v -0.001363 -0.000353 -0.008580
v -0.001355 0.005271 -0.000581
v -0.002001 0.006561 -0.001251
v -0.001694 -0.000973 -0.005982
v -0.002356 -0.001079 -0.008215
v -0.005426 0.001319 -0.001514
v -0.003740 -0.000643 -0.001498
v 0.010124 -0.012913 -0.046397
v 0.009378 -0.015944 -0.049209
v 0.007566 -0.010108 -0.043060
v 0.007870 -0.015821 -0.047826
v 0.008020 -0.016955 -0.046168
v 0.005448 -0.007168 -0.034217
v 0.000973 -0.002362 -0.018571
v 0.000700 -0.002955 -0.017709
v 0.001855 -0.006513 -0.023098
v -0.000318 -0.002238 -0.015533
v -0.001151 -0.000954 -0.012016
v -0.001869 -0.002581 -0.013670
v -0.000624 -0.003769 -0.017113
v -0.001744 0.006650 -0.001781
v -0.001368 0.000703 -0.009614
v -0.003852 0.005861 -0.001293
v -0.002492 0.006713 -0.001776
v -0.004153 0.005979 -0.001776
v -0.003663 -0.000929 -0.006995
v -0.004806 -0.000078 -0.004319
v -0.005208 0.000767 -0.001747
v 0.005643 -0.007525 -0.038926
v 0.004096 -0.014310 -0.042921
v 0.002718 -0.012784 -0.039800
v 0.001531 -0.009319 -0.032061
v -0.000169 -0.000363 -0.022272
v -0.000607 -0.000305 -0.017854
v -0.001145 -0.000109 -0.014473
v -0.001765 -0.004077 -0.018289
v -0.002189 0.001454 -0.010895
v -0.002916 0.004151 -0.006113
v -0.004402 -0.001514 -0.010197
v -0.004828 0.005130 -0.005566
v -0.005549 0.004760 -0.002375
v -0.006457 0.000544 -0.006474
v -0.005735 0.003158 -0.001857
v -0.006102 0.002290 -0.003450
v 0.004594 -0.010448 -0.044195
v 0.004412 -0.006692 -0.040223
v -0.000165 -0.001981 -0.026276
v 0.001315 -0.010524 -0.036963
v -0.002208 -0.006140 -0.028493
v -0.002169 -0.004411 -0.022389
v -0.006600 0.004932 -0.005500
v -0.007388 -0.000553 -0.011776
v -0.006763 0.004035 -0.004460
v -0.007104 -0.000131 -0.009064
v 0.002615 -0.010826 -0.043911
v 0.001672 -0.004165 -0.036664
v 0.002091 -0.012054 -0.042299
v 0.002383 -0.011489 -0.043596
v -0.001830 -0.000794 -0.026905
v -0.004357 0.002544 -0.016109
v -0.006992 0.005020 -0.007988
v -0.009243 0.003717 -0.008273
v -0.009162 0.002598 -0.008094
v -0.009068 0.001158 -0.009527
v 0.001799 -0.005308 -0.039546
v 0.000911 -0.008235 -0.041900
v -0.000555 -0.008601 -0.038396
v -0.003555 -0.005121 -0.033783
v -0.005034 0.004168 -0.019685
v -0.002984 0.001765 -0.020589
v -0.005273 -0.002150 -0.022372
v -0.007134 0.005007 -0.011647
v -0.006000 -0.001555 -0.018900
v -0.002049 -0.003979 -0.037429
v -0.001289 -0.001105 -0.033223
v -0.003098 -0.004693 -0.036070
v -0.003486 0.001457 -0.027455
v -0.006814 0.006778 -0.015031
v -0.006285 0.004834 -0.015736
v -0.006922 0.005375 -0.014023
v -0.008022 0.005808 -0.012746
v -0.009310 0.005318 -0.012033
v -0.010244 0.002037 -0.012522
v -0.009629 0.001128 -0.014159
v -0.009966 0.002553 -0.010185
v -0.002845 -0.000493 -0.033426
v -0.004384 0.001586 -0.030569
v -0.006612 -0.002322 -0.028499
v -0.006515 0.006800 -0.016779
v -0.008048 0.007786 -0.014237
v -0.008923 0.001716 -0.020943
v -0.009357 0.005795 -0.012718
v -0.010647 0.003894 -0.013889
v -0.005522 0.000490 -0.031614
v -0.008159 0.008511 -0.023047
v -0.006771 -0.001314 -0.030256
v -0.008115 0.009997 -0.016966
v -0.008573 0.010226 -0.016195
v -0.009166 0.010113 -0.015470
v -0.009816 0.008490 -0.014029
v -0.009584 0.007090 -0.013491
v -0.010471 0.005784 -0.013750
v -0.011685 0.005160 -0.019265
v -0.008503 0.007045 -0.025257
v -0.011151 0.007255 -0.023811
v -0.008783 0.011071 -0.019112
v -0.008024 0.010200 -0.019552
v -0.007695 0.009021 -0.020610
v -0.009284 0.010894 -0.017438
v -0.011422 0.005143 -0.022573
v -0.010637 0.009510 -0.015311
v -0.010740 0.008265 -0.014318
v -0.011649 0.006521 -0.015646
v -0.009225 0.011179 -0.019959
v -0.009504 0.010372 -0.021778
v -0.012111 0.009707 -0.019071
v -0.011866 0.008579 -0.016667
v -0.012339 0.007769 -0.019150
v -0.010793 0.010513 -0.021614
v -0.011610 0.010127 -0.021544
v -0.011561 0.009054 -0.022662
v -0.011474 0.010626 -0.020235
v -0.012254 0.009220 -0.021006
v -0.012189 0.007174 -0.021547
v 0.016119 -0.018907 -0.034704
vn 0.8655 0.4569 -0.2055
vn 0.9984 0.0538 0.0195
vn 0.8208 0.1195 -0.5586
vn 0.9748 0.0645 0.2136
vn 0.8378 -0.3699 0.4017
vn 0.9287 -0.3251 -0.1785
vn 0.6173 -0.7643 -0.1864
vn 0.9615 0.2186 0.1668
vn 0.8283 -0.2448 0.5040
vn 0.7624 -0.3974 0.5107
vn 0.3419 -0.8963 0.2824
vn 0.5544 -0.5088 -0.6586
vn -0.1409 -0.9615 -0.2360
vn 0.2959 -0.8334 0.4669
vn -0.3886 -0.8937 0.2244
vn 0.5161 -0.6977 0.4969
vn 0.7687 0.6359 0.0688
vn 0.1258 -0.6697 -0.7319
vn -0.3692 -0.8591 -0.3545
vn 0.8450 0.3925 0.3631
vn 0.4332 0.7735 0.4627
vn 0.7246 0.2653 0.6361
vn -0.2397 -0.9065 0.3476
vn -0.5819 -0.7885 0.1990
vn 0.1399 0.4299 0.8920
vn 0.5708 -0.1046 0.8144
vn -0.2370 -0.2320 0.9434
vn 0.3241 -0.4816 0.8143
vn -0.0444 -0.8377 0.5443
vn -0.1844 -0.9217 0.3411
vn -0.4912 -0.6664 0.5609
vn 0.6488 0.6925 -0.3154
vn 0.7086 0.4613 -0.5339
vn 0.5851 -0.0245 -0.8106
vn 0.5612 0.7989 -0.2162
vn 0.0012 0.6246 0.7809
vn -0.5111 0.0799 0.8558
vn -0.4236 0.1237 0.8973
vn 0.5619 0.7559 -0.3359
vn 0.6041 0.3446 -0.7185
vn 0.4782 0.8695 0.1236
vn 0.3857 0.8705 0.3059
vn -0.6088 -0.2306 0.7590
vn -0.6821 -0.6260 0.3780
vn 0.4960 0.8201 -0.2852
vn 0.5735 0.5980 -0.5600
vn -0.3570 -0.8884 -0.2885
vn 0.1789 -0.5104 -0.8411
vn -0.5949 -0.8032 0.0316
vn 0.1791 0.6019 0.7782
vn -0.2642 0.2390 0.9344
vn -0.6480 -0.7313 0.2129
vn 0.5143 0.8417 -0.1647
vn -0.6453 -0.7631 0.0361
vn -0.5746 -0.4328 0.6946
vn -0.2042 0.0648 0.9768
vn 0.4962 0.8320 -0.2480
vn 0.5664 0.7692 -0.2957
vn 0.5087 0.8272 0.2388
vn 0.6126 0.7591 -0.2201
vn -0.6211 -0.7791 0.0849
vn 0.4320 0.0295 -0.9014
vn -0.5790 -0.7990 0.1626
vn 0.1935 0.5026 0.8426
vn -0.0915 -0.6597 -0.7459
vn 0.5139 0.8407 -0.1708
vn -0.4353 -0.8262 -0.3576
vn 0.6435 0.7587 0.1010
vn -0.4220 -0.2109 0.8818
vn -0.6048 -0.5555 0.5707
vn 0.4457 0.3272 -0.8332
vn 0.5427 0.8127 -0.2120
vn 0.5508 0.7522 0.3617
vn -0.6488 -0.7285 0.2201
vn -0.6162 -0.6056 0.5035
vn 0.5975 0.7693 -0.2262
vn -0.0315 -0.4383 -0.8983
vn 0.6157 0.7183 -0.3240
vn 0.6154 0.7636 -0.1953
vn -0.5779 -0.7903 0.2035
vn -0.2813 -0.2218 0.9336
vn 0.4682 0.4577 -0.7558
vn -0.5353 -0.8034 -0.2607
vn 0.1549 0.3902 0.9076
vn 0.6315 0.7456 -0.2129
vn -0.5664 -0.7641 0.3089
vn -0.1054 -0.2807 -0.9540
vn 0.6263 0.7444 -0.2314
vn 0.5470 0.8223 -0.1570
vn -0.4380 -0.6186 0.6523
vn 0.2161 0.2737 -0.9372
vn 0.5684 0.6604 -0.4908
vn -0.5886 -0.8012 0.1077
vn 0.3796 0.9127 0.1511
vn 0.1077 0.8564 0.5050
vn -0.2165 0.1882 0.9580
vn -0.4368 -0.4774 -0.7624
vn -0.0637 0.8222 0.5656
vn 0.5933 0.7995 -0.0939
vn -0.5008 -0.7889 0.3561
vn -0.3749 -0.5102 0.7740
vn -0.1314 0.0235 -0.9910
vn 0.6224 0.7337 -0.2725
vn 0.2008 0.8978 0.3921
vn 0.4930 0.8331 0.2509
vn 0.3722 0.5526 -0.7458
vn 0.6557 0.7200 -0.2274
vn -0.6238 -0.7308 -0.2773
vn 0.2203 0.5125 0.8299
vn 0.7078 0.6921 -0.1412
vn 0.6046 0.5262 0.5979
vn -0.5307 -0.8219 0.2070
vn 0.2097 0.3829 0.8997
vn -0.2508 -0.3457 0.9042
vn -0.3655 -0.5510 0.7502
vn -0.2956 -0.6309 0.7173
vn 0.4738 0.6326 -0.6127
vn -0.5432 -0.3736 -0.7519
vn -0.7059 -0.6877 -0.1696
vn 0.7594 0.6499 -0.0301
vn 0.1940 -0.1823 0.9639
vn -0.1248 0.2520 -0.9597
vn 0.7566 0.6510 -0.0611
vn 0.7206 0.3176 0.6164
vn 0.7949 0.5926 0.1306
vn 0.5744 0.0013 0.8186
vn -0.4778 -0.7960 0.3716
vn 0.5950 0.6887 -0.4143
vn 0.7002 0.7080 -0.0920
vn 0.6057 0.7628 -0.2267
vn -0.6176 -0.7818 0.0859
vn 0.8260 0.2785 0.4900
vn 0.4397 -0.3478 0.8281
vn 0.1116 -0.4669 0.8773
vn -0.1700 -0.7428 0.6475
vn 0.7424 0.6697 -0.0177
vn 0.2914 0.5615 -0.7745
vn -0.5923 -0.1560 -0.7905
vn 0.6291 0.7687 -0.1150
vn 0.8651 0.2963 0.4047
vn 0.9615 -0.0649 0.2670
vn 0.9011 0.2522 -0.3526
vn 0.7315 0.4894 0.4748
vn 0.6161 0.1008 0.7812
vn 0.9163 -0.0319 -0.3992
vn 0.4734 -0.3043 0.8266
vn 0.0232 -0.0033 0.9997
vn 0.0097 -0.3474 0.9377
vn 0.9102 -0.3682 0.1897
vn 0.4863 -0.7207 0.4941
vn 0.7059 -0.6730 -0.2209
vn 0.8425 -0.3171 -0.4355
vn 0.1735 -0.9692 0.1745
vn 0.5898 0.7502 -0.2990
vn 0.3071 0.6961 -0.6489
vn -0.7906 -0.5344 -0.2989
vn 0.6420 0.7588 -0.1099
vn -0.5681 -0.7888 0.2345
vn 0.5612 -0.4373 0.7027
vn -0.2433 -0.8274 0.5062
vn 0.5818 0.7785 0.2355
vn 0.1030 0.4986 0.8607
vn 0.8048 0.4858 -0.3409
vn 0.6278 0.7308 -0.2681
vn 0.6844 0.5130 -0.5180
vn 0.9198 -0.0310 -0.3912
vn 0.7211 -0.6226 -0.3041
vn -0.2482 -0.5296 0.8112
vn -0.3471 -0.9093 0.2295
vn 0.3259 0.8075 -0.4916
vn -0.0354 0.5857 -0.8097
vn -0.4933 0.1633 -0.8544
vn -0.7664 -0.5998 -0.2298
vn -0.6741 -0.7162 -0.1805
vn 0.2629 -0.7437 0.6146
vn 0.3248 0.8172 0.4760
vn 0.7488 0.5108 -0.4224
vn -0.0610 -0.9846 -0.1641
vn 0.4053 -0.9030 -0.1423
vn -0.5694 -0.6807 0.4609
vn -0.7406 -0.3676 -0.5625
vn 0.6925 0.7190 -0.0581
vn -0.6942 -0.7062 -0.1390
vn 0.7188 0.6931 0.0539
vn -0.5959 -0.7722 0.2204
vn 0.5990 -0.5113 0.6163
vn -0.1583 -0.8960 0.4148
vn 0.2376 -0.8550 0.4610
vn 0.3790 0.9169 -0.1247
vn 0.4849 0.6931 -0.5334
vn 0.9494 0.2583 -0.1787
vn 0.8644 -0.5006 -0.0458
vn 0.1430 0.8825 0.4481
vn 0.0534 0.7784 0.6255
vn -0.4212 0.4789 0.7702
vn 0.2930 -0.9507 0.1020
vn -0.7215 -0.2199 0.6566
vn -0.2474 -0.9633 0.1041
vn -0.6370 -0.7592 0.1336
vn -0.7655 -0.5545 0.3263
vn 0.3894 0.8141 -0.4308
vn -0.0437 0.6569 -0.7527
vn 0.4486 0.8004 -0.3976
vn 0.6075 0.7803 -0.1485
vn -0.7042 -0.7020 0.1061
vn -0.7063 -0.6885 0.1645
vn 0.8562 0.3897 0.3391
vn 0.7090 0.6995 0.0889
vn 0.5565 0.8194 -0.1376
vn 0.8063 0.5473 0.2244
vn -0.5094 -0.8428 0.1740
vn 0.8248 0.5602 0.0770
vn -0.3199 -0.9225 0.2159
vn 0.8692 -0.2388 0.4331
vn 0.9740 -0.1478 0.1716
vn 0.7170 0.6663 -0.2050
vn 0.3401 -0.8690 0.3595
vn 0.4226 0.8023 -0.4215
vn -0.1457 0.9877 0.0574
vn -0.5509 0.7717 0.3178
vn -0.2341 -0.9446 0.2302
vn -0.7629 0.0712 0.6426
vn -0.8940 -0.3116 0.3219
vn -0.5886 -0.7345 0.3377
vn -0.5374 0.2186 -0.8145
vn 0.1302 0.9335 -0.3341
vn -0.7582 0.4454 0.4763
vn -0.4907 0.8515 0.1849
vn 0.1198 0.7961 -0.5932
vn 0.5698 0.8043 -0.1688
vn -0.8190 -0.5325 -0.2139
vn 0.5195 0.8232 -0.2289
vn 0.7128 0.6977 -0.0719
vn -0.5854 -0.7985 0.1404
vn -0.6209 -0.7838 -0.0138
vn 0.6535 0.7569 0.0078
vn 0.2389 0.9684 -0.0723
vn -0.5256 -0.8437 0.1097
vn -0.8612 0.2665 0.4328
vn -0.4678 -0.8420 0.2688
vn -0.8490 -0.2486 0.4663
vn -0.7866 -0.2854 -0.5475
vn -0.8231 -0.5634 -0.0717
vn -0.8793 -0.1669 -0.4460
vn 0.6783 0.7334 -0.0446
vn -0.7817 -0.6150 -0.1038
vn 0.6977 0.7135 0.0643
vn -0.8493 0.3515 0.3939
vn -0.7323 -0.6201 0.2813
vn -0.5635 0.3168 -0.7630
vn 0.5842 0.7903 -0.1847
vn 0.7760 0.6249 -0.0858
vn 0.8823 0.4293 0.1931
vn -0.6486 -0.7547 0.0984
vn 0.8419 0.5364 0.0592
vn -0.7448 -0.6668 -0.0257
vn -0.5659 0.7264 0.3900
vn -0.9542 -0.1491 0.2595
vn -0.9053 -0.4115 0.1049
vn 0.0987 0.8224 -0.5603
vn -0.5267 0.4573 -0.7165
vn 0.3203 0.8169 -0.4797
vn -0.7831 -0.6215 -0.0228
vn 0.8624 0.3633 0.3524
vn 0.8409 0.4434 0.3104
vn -0.7716 -0.6356 -0.0251
vn 0.3403 0.8040 0.4876
vn -0.2892 0.6568 0.6964
vn -0.3831 0.5606 -0.7341
vn 0.5249 0.5350 0.6620
vn 0.8033 0.5712 0.1687
vn 0.5743 0.7285 0.3735
vn 0.9189 0.3750 0.1220
vn -0.1979 0.3888 0.8998
vn -0.9599 -0.0046 0.2805
vn -0.7663 0.1296 0.6293
vn -0.9147 -0.4040 -0.0123
vn 0.5984 0.6872 -0.4121
vn 0.8686 0.4778 -0.1316
vn -0.8884 -0.2878 -0.3577
vn 0.8508 0.5146 -0.1065
vn -0.9104 -0.3521 -0.2172
vn 0.1289 0.8041 0.5804
vn -0.0626 0.5103 0.8577
vn -0.6456 0.3229 0.6921
vn -0.9457 -0.0810 0.3148
vn -0.0248 0.7041 -0.7097
vn -0.7397 0.1816 -0.6479
vn 0.4613 0.8871 0.0174
vn 0.2177 0.9583 -0.1852
vn -0.0133 0.9651 0.2614
vn -0.5299 0.6819 0.5042
vn -0.9132 0.2634 0.3110
vn 0.2710 0.8021 -0.5321
vn -0.5643 0.8251 -0.0260
vn -0.2086 0.8453 -0.4919
vn -0.8680 0.4699 0.1604
vn -0.9955 -0.0647 0.0687
vn -0.6478 0.6483 -0.4001
vn -0.6484 0.4150 -0.6382
vn -0.9506 0.2518 -0.1815
vn -0.9689 -0.1142 -0.2195
s 1
usemtl mtl1.1047
f 3//1 2//2 5//3
f 6//4 1//5 2//2
f 6//4 2//2 3//1
f 2//2 1//5 4//6
f 4//6 1//5 8//7
f 2//2 4//6 5//3
f 13//8 10//9 7//10
f 6//4 13//8 7//10
f 6//4 7//10 1//5
f 8//7 1//5 9//11
f 7//10 9//11 1//5
f 4//6 8//7 12//12
f 15//13 8//7 9//11
f 7//10 19//14 9//11
f 19//14 20//15 9//11
f 10//9 11//16 7//10
f 5//3 4//6 12//12
f 13//8 3//1 14//17
f 6//4 3//1 13//8
f 15//13 12//12 8//7
f 12//12 15//13 31//18
f 36//19 31//18 15//13
f 13//8 16//20 10//9
f 14//17 16//20 13//8
f 20//15 15//13 9//11
f 36//19 15//13 20//15
f 16//20 18//21 17//22
f 16//20 17//22 10//9
f 18//21 16//20 14//17
f 22//23 20//15 19//14
f 33//24 20//15 22//23
f 17//22 21//25 23//26
f 17//22 18//21 21//25
f 17//22 23//26 10//9
f 7//10 11//16 19//14
f 23//26 25//27 24//28
f 21//25 25//27 23//26
f 11//16 10//9 24//28
f 10//9 23//26 24//28
f 24//28 26//29 11//16
f 11//16 26//29 27//30
f 27//30 26//29 28//31
f 27//30 28//31 33//24
f 11//16 22//23 19//14
f 11//16 27//30 22//23
f 27//30 33//24 22//23
f 25//27 28//31 24//28
f 24//28 28//31 26//29
f 29//32 3//1 30//33
f 3//1 5//3 30//33
f 35//34 30//33 5//3
f 12//12 35//34 5//3
f 31//18 35//34 12//12
f 14//17 29//32 32//35
f 3//1 29//32 14//17
f 41//36 38//37 21//25
f 25//27 21//25 34//38
f 38//37 25//27 34//38
f 34//38 21//25 38//37
f 32//35 29//32 39//39
f 30//33 39//39 29//32
f 45//40 30//33 35//34
f 14//17 40//41 37//42
f 14//17 37//42 18//21
f 37//42 41//36 18//21
f 41//36 21//25 18//21
f 25//27 38//37 28//31
f 38//37 43//43 28//31
f 44//44 33//24 28//31
f 30//33 45//40 39//39
f 39//39 42//45 32//35
f 32//35 40//41 14//17
f 39//39 45//40 49//46
f 53//47 31//18 36//19
f 31//18 50//48 35//34
f 53//47 36//19 54//49
f 46//50 41//36 37//42
f 40//41 46//50 37//42
f 41//36 47//51 38//37
f 43//43 44//44 28//31
f 57//52 33//24 44//44
f 35//34 50//48 45//40
f 50//48 31//18 53//47
f 48//53 40//41 32//35
f 60//54 20//15 33//24
f 38//37 47//51 43//43
f 46//50 47//51 41//36
f 43//43 51//55 44//44
f 48//53 32//35 42//45
f 56//56 47//51 46//50
f 57//52 60//54 33//24
f 51//55 57//52 44//44
f 39//39 52//57 42//45
f 49//46 52//57 39//39
f 67//58 48//53 42//45
f 55//59 40//41 48//53
f 62//60 55//59 48//53
f 60//54 59//61 20//15
f 36//19 20//15 59//61
f 55//59 46//50 40//41
f 51//55 47//51 56//56
f 47//51 51//55 43//43
f 58//62 45//40 50//48
f 54//49 36//19 59//61
f 59//61 72//63 54//49
f 63//64 46//50 55//59
f 49//46 45//40 58//62
f 61//65 58//62 50//48
f 48//53 67//58 62//60
f 63//64 56//56 46//50
f 61//65 50//48 53//47
f 66//66 52//57 49//46
f 53//47 54//49 78//67
f 62//60 68//68 55//59
f 57//52 59//61 60//54
f 56//56 64//69 51//55
f 65//70 57//52 51//55
f 69//71 49//46 58//62
f 70//72 42//45 52//57
f 67//58 42//45 70//72
f 68//68 63//64 55//59
f 64//69 56//56 63//64
f 64//69 65//70 51//55
f 58//62 61//65 69//71
f 70//72 52//57 66//66
f 54//49 72//63 78//67
f 73//73 63//64 68//68
f 77//74 57//52 65//70
f 77//74 59//61 57//52
f 64//69 76//75 65//70
f 65//70 76//75 77//74
f 80//76 49//46 69//71
f 69//71 61//65 71//77
f 53//47 78//67 61//65
f 66//66 80//76 70//72
f 70//72 79//78 67//58
f 74//79 73//73 68//68
f 62//60 74//79 68//68
f 74//79 62//60 67//58
f 78//67 71//77 61//65
f 80//76 66//66 49//46
f 67//58 79//78 74//79
f 77//74 84//80 59//61
f 81//81 76//75 64//69
f 71//77 85//82 69//71
f 82//83 78//67 72//63
f 75//84 63//64 73//73
f 81//81 63//64 75//84
f 81//81 64//69 63//64
f 85//82 80//76 69//71
f 83//85 79//78 70//72
f 70//72 80//76 83//85
f 84//80 72//63 59//61
f 89//86 77//74 76//75
f 71//77 78//67 86//87
f 83//85 92//88 79//78
f 74//79 79//78 92//88
f 87//89 73//73 74//79
f 89//86 84//80 77//74
f 76//75 90//90 89//86
f 86//87 85//82 71//77
f 91//91 85//82 86//87
f 80//76 85//82 94//92
f 86//87 78//67 82//83
f 102//93 72//63 84//80
f 102//93 82//83 72//63
f 73//73 87//89 88//94
f 73//73 88//94 75//84
f 93//95 75//84 88//94
f 96//96 81//81 75//84
f 90//90 76//75 81//81
f 80//76 94//92 83//85
f 86//87 82//83 101//97
f 87//89 95//98 88//94
f 87//89 74//79 103//99
f 103//99 95//98 87//89
f 103//99 74//79 92//88
f 93//95 96//96 75//84
f 102//93 84//80 89//86
f 98//100 102//93 89//86
f 81//81 96//96 90//90
f 96//96 97//101 90//90
f 94//92 85//82 91//91
f 86//87 100//102 91//91
f 99//103 83//85 94//92
f 86//87 101//97 100//102
f 88//94 95//98 104//104
f 93//95 88//94 104//104
f 105//105 104//104 95//98
f 96//96 93//95 104//104
f 90//90 98//100 89//86
f 107//106 94//92 91//91
f 107//106 91//91 100//102
f 111//107 83//85 99//103
f 101//97 82//83 108//108
f 111//107 92//88 83//85
f 108//108 82//83 102//93
f 103//99 105//105 95//98
f 104//104 105//105 106//109
f 106//109 97//101 96//96
f 106//109 96//96 104//104
f 97//101 98//100 90//90
f 99//103 94//92 107//106
f 116//110 103//99 92//88
f 116//110 92//88 111//107
f 112//111 106//109 105//105
f 103//99 112//111 105//105
f 98//100 113//112 102//93
f 106//109 109//113 97//101
f 302//114 110//115 97//101
f 110//115 98//100 97//101
f 110//115 115//116 98//100
f 111//107 99//103 119//117
f 119//117 99//103 107//106
f 101//97 108//108 121//118
f 128//119 108//108 102//93
f 103//99 117//120 112//111
f 109//113 106//109 112//111
f 114//121 110//115 302//114
f 112//111 114//121 109//113
f 110//115 114//121 115//116
f 100//102 120//122 107//106
f 118//123 116//110 111//107
f 121//118 108//108 128//119
f 117//120 103//99 116//110
f 123//124 112//111 122//125
f 117//120 122//125 112//111
f 112//111 124//126 114//121
f 133//127 98//100 115//116
f 111//107 119//117 125//128
f 125//128 118//123 111//107
f 119//117 107//106 120//122
f 120//122 100//102 121//118
f 121//118 100//102 101//97
f 118//123 127//129 116//110
f 129//130 116//110 127//129
f 102//93 147//131 128//119
f 129//130 117//120 116//110
f 102//93 113//112 147//131
f 112//111 123//124 124//126
f 124//126 123//124 130//132
f 123//124 122//125 130//132
f 133//127 113//112 98//100
f 124//126 131//133 132//134
f 114//121 124//126 132//134
f 114//121 132//134 115//116
f 149//135 115//116 132//134
f 127//129 118//123 144//136
f 125//128 144//136 118//123
f 119//117 126//137 125//128
f 120//122 126//137 119//117
f 121//118 157//138 120//122
f 160//139 161//140 122//125
f 122//125 161//140 130//132
f 117//120 129//130 122//125
f 122//125 129//130 160//139
f 124//126 130//132 131//133
f 149//135 133//127 115//116
f 136//141 138//142 134//143
f 135//144 136//141 134//143
f 136//141 137//145 138//142
f 140//146 135//144 152//147
f 152//147 153//148 140//146
f 139//149 136//141 135//144
f 140//146 139//149 135//144
f 136//141 139//149 137//145
f 139//149 140//146 143//150
f 139//149 143//150 141//151
f 137//145 139//149 142//152
f 142//152 139//149 141//151
f 143//150 155//153 141//151
f 140//146 153//148 143//150
f 144//136 125//128 145//154
f 125//128 126//137 156//155
f 121//118 128//119 146//156
f 146//156 157//138 121//118
f 129//130 127//129 159//157
f 171//158 147//131 113//112
f 131//133 130//132 148//159
f 148//159 130//132 161//140
f 132//134 131//133 149//135
f 133//127 171//158 113//112
f 149//135 148//159 173//160
f 149//135 131//133 148//159
f 164//161 150//162 134//143
f 150//162 135//144 134//143
f 138//142 151//163 134//143
f 134//143 151//163 164//161
f 151//163 163//164 164//161
f 162//165 138//142 137//145
f 137//145 142//152 166//166
f 150//162 152//147 135//144
f 167//167 142//152 141//151
f 154//168 153//148 152//147
f 153//148 154//168 143//150
f 154//168 155//153 143//150
f 155//153 154//168 169//169
f 125//128 156//155 145//154
f 145//154 156//155 185//170
f 170//171 156//155 126//137
f 126//137 120//122 170//171
f 157//138 186//172 120//122
f 146//156 158//173 157//138
f 144//136 159//157 127//129
f 147//131 146//156 128//119
f 147//131 158//173 146//156
f 189//174 158//173 147//131
f 129//130 159//157 160//139
f 173//160 133//127 149//135
f 173//160 148//159 174//175
f 162//165 163//164 151//163
f 165//176 150//162 164//161
f 163//164 165//176 164//161
f 151//163 138//142 162//165
f 176//177 162//165 137//145
f 137//145 166//166 176//177
f 166//166 142//152 167//167
f 155//153 167//167 141//151
f 168//178 167//167 155//153
f 181//179 167//167 168//178
f 168//178 155//153 169//169
f 184//180 169//169 154//168
f 186//172 170//171 120//122
f 157//138 158//173 188//181
f 157//138 188//181 186//172
f 206//182 159//157 144//136
f 147//131 171//158 207//183
f 161//140 160//139 172//184
f 171//158 133//127 209//185
f 148//159 161//140 175//186
f 193//187 173//160 174//175
f 209//185 133//127 173//160
f 175//186 197//188 174//175
f 175//186 174//175 148//159
f 197//188 193//187 174//175
f 163//164 162//165 198//189
f 177//190 162//165 176//177
f 166//166 199//191 176//177
f 199//191 166//166 178//192
f 179//193 150//162 165//176
f 198//189 165//176 163//164
f 179//193 165//176 180//194
f 198//189 180//194 165//176
f 150//162 179//193 200//195
f 178//192 166//166 167//167
f 167//167 181//179 178//192
f 181//179 182//196 178//192
f 200//195 183//197 150//162
f 183//197 154//168 152//147
f 183//197 152//147 150//162
f 203//198 181//179 168//178
f 203//198 182//196 181//179
f 204//199 168//178 169//169
f 154//168 183//197 184//180
f 183//197 205//200 184//180
f 187//201 206//182 185//170
f 206//182 144//136 145//154
f 185//170 206//182 145//154
f 187//201 185//170 222//202
f 222//202 185//170 170//171
f 185//170 156//155 170//171
f 223//203 206//182 187//201
f 158//173 189//174 188//181
f 188//181 189//174 207//183
f 160//139 159//157 190//204
f 159//157 206//182 190//204
f 147//131 207//183 189//174
f 208//205 207//183 171//158
f 225//206 171//158 209//185
f 172//184 191//207 161//140
f 191//207 172//184 211//208
f 210//209 211//208 172//184
f 192//210 161//140 191//207
f 173//160 193//187 227//211
f 211//208 212//212 191//207
f 192//210 191//207 212//212
f 197//188 213//213 193//187
f 194//214 192//210 212//212
f 192//210 194//214 175//186
f 175//186 194//214 197//188
f 195//215 212//212 214//216
f 199//191 195//215 214//216
f 194//214 212//212 195//215
f 197//188 194//214 196//217
f 198//189 162//165 177//190
f 176//177 215//218 177//190
f 195//215 178//192 182//196
f 196//217 195//215 182//196
f 195//215 199//191 178//192
f 195//215 196//217 194//214
f 180//194 200//195 179//193
f 201//219 180//194 198//189
f 201//219 200//195 180//194
f 200//195 201//219 202//220
f 182//196 216//221 196//217
f 182//196 203//198 216//221
f 220//222 183//197 200//195
f 205//200 221//223 204//199
f 204//199 169//169 184//180
f 203//198 168//178 204//199
f 219//224 203//198 204//199
f 204//199 184//180 205//200
f 222//202 170//171 186//172
f 232//225 222//202 186//172
f 160//139 210//209 172//184
f 227//211 193//187 213//213
f 213//213 197//188 196//217
f 196//217 216//221 213//213
f 198//189 177//190 217//226
f 177//190 215//218 217//226
f 214//216 176//177 199//191
f 176//177 214//216 215//218
f 201//219 198//189 217//226
f 200//195 218//227 220//222
f 218//227 200//195 202//220
f 218//227 202//220 228//228
f 216//221 203//198 219//224
f 183//197 220//222 221//223
f 221//223 205//200 183//197
f 221//223 219//224 204//199
f 223//203 187//201 222//202
f 223//203 222//202 242//229
f 233//230 190//204 206//182
f 188//181 232//225 186//172
f 207//183 234//231 188//181
f 160//139 190//204 224//232
f 236//233 224//232 190//204
f 208//205 171//158 225//206
f 160//139 224//232 210//209
f 226//234 209//185 173//160
f 173//160 227//211 226//234
f 250//235 227//211 213//213
f 249//236 214//216 212//212
f 217//226 215//218 238//237
f 214//216 238//237 215//218
f 213//213 216//221 229//238
f 202//220 201//219 228//228
f 217//226 228//228 201//219
f 228//228 230//239 218//227
f 216//221 219//224 231//240
f 216//221 231//240 229//238
f 218//227 230//239 220//222
f 221//223 220//222 230//239
f 240//241 221//223 230//239
f 223//203 233//230 206//182
f 188//181 235//242 232//225
f 235//242 188//181 234//231
f 236//233 190//204 233//230
f 207//183 208//205 234//231
f 244//243 234//231 208//205
f 253//244 234//231 244//243
f 208//205 225//206 244//243
f 247//245 210//209 224//232
f 209//185 245//246 225//206
f 210//209 247//245 211//208
f 211//208 247//245 237//247
f 237//247 212//212 211//208
f 249//236 212//212 237//247
f 249//236 238//237 214//216
f 238//237 228//228 217//226
f 228//228 239//248 230//239
f 239//248 240//241 230//239
f 219//224 241//249 231//240
f 240//241 241//249 219//224
f 229//238 231//240 241//249
f 240//241 219//224 221//223
f 233//230 223//203 242//229
f 243//250 242//229 222//202
f 232//225 243//250 222//202
f 252//251 233//230 242//229
f 235//242 243//250 232//225
f 243//250 235//242 253//244
f 253//244 235//242 234//231
f 233//230 252//251 236//233
f 254//252 236//233 252//251
f 225//206 245//246 244//243
f 236//233 247//245 224//232
f 209//185 226//234 245//246
f 247//245 256//253 237//247
f 248//254 226//234 227//211
f 237//247 256//253 249//236
f 246//255 256//253 247//245
f 248//254 227//211 250//235
f 250//235 229//238 261//256
f 250//235 213//213 229//238
f 259//257 228//228 238//237
f 261//256 229//238 241//249
f 241//249 240//241 262//258
f 241//249 262//258 260//259
f 263//260 252//251 242//229
f 263//260 242//229 251//261
f 243//250 251//261 242//229
f 243//250 253//244 251//261
f 252//251 263//260 264//262
f 264//262 254//252 252//251
f 244//243 245//246 253//244
f 246//255 236//233 254//252
f 246//255 247//245 236//233
f 245//246 226//234 265//263
f 255//264 257//265 256//253
f 265//263 226//234 248//254
f 256//253 257//265 249//236
f 268//266 248//254 250//235
f 257//265 258//267 249//236
f 261//256 268//266 250//235
f 249//236 258//267 238//237
f 258//267 259//257 238//237
f 269//268 259//257 258//267
f 228//228 259//257 239//248
f 241//249 260//259 261//256
f 262//258 240//241 239//248
f 251//261 271//269 263//260
f 271//269 251//261 253//244
f 267//270 274//271 275//272
f 256//253 266//273 255//264
f 274//271 255//264 266//273
f 274//271 267//270 255//264
f 256//253 246//255 266//273
f 268//266 265//263 248//254
f 255//264 258//267 257//265
f 255//264 267//270 258//267
f 278//274 269//268 258//267
f 267//270 278//274 258//267
f 259//257 270//275 239//248
f 279//276 270//275 259//257
f 280//277 261//256 260//259
f 260//259 262//258 270//275
f 239//248 270//275 262//258
f 263//260 271//269 264//262
f 254//252 272//278 285//279
f 254//252 264//262 272//278
f 273//280 253//244 245//246
f 254//252 285//279 246//255
f 245//246 265//263 273//280
f 266//273 285//279 274//271
f 284//281 274//271 285//279
f 246//255 285//279 266//273
f 287//282 265//263 268//266
f 287//282 273//280 265//263
f 275//272 276//283 267//270
f 278//274 267//270 277//284
f 267//270 276//283 277//284
f 279//276 269//268 278//274
f 277//284 289//285 278//274
f 289//285 279//276 278//274
f 290//286 279//276 289//285
f 280//277 268//266 261//256
f 279//276 259//257 269//268
f 270//275 279//276 290//286
f 270//275 280//277 260//259
f 272//278 264//262 281//287
f 271//269 282//288 281//287
f 282//288 271//269 253//244
f 281//287 264//262 271//269
f 283//289 274//271 284//281
f 284//281 272//278 291//290
f 272//278 284//281 285//279
f 273//280 282//288 253//244
f 274//271 283//289 275//272
f 286//291 276//283 275//272
f 283//289 286//291 275//272
f 276//283 288//292 277//284
f 288//292 276//283 286//291
f 268//266 280//277 287//282
f 288//292 289//285 277//284
f 288//292 294//293 289//285
f 294//293 290//286 289//285
f 290//286 280//277 270//275
f 272//278 281//287 292//294
f 283//289 291//290 286//291
f 284//281 291//290 283//289
f 291//290 299//295 286//291
f 291//290 272//278 292//294
f 291//290 292//294 296//296
f 299//295 288//292 286//291
f 282//288 273//280 287//282
f 293//297 288//292 299//295
f 293//297 295//298 294//293
f 293//297 294//293 288//292
f 294//293 295//298 290//286
f 280//277 290//286 295//298
f 296//296 299//295 291//290
f 297//299 299//295 296//296
f 298//300 297//299 296//296
f 296//296 292//294 281//287
f 298//300 296//296 281//287
f 298//300 281//287 282//288
f 299//295 297//299 300//301
f 299//295 300//301 293//297
f 297//299 298//300 300//301
f 301//302 298//300 282//288
f 298//300 301//302 300//301
f 300//301 295//298 293//297
f 301//302 295//298 300//301
f 280//277 301//302 287//282
f 280//277 295//298 301//302
f 287//282 301//302 282//288
