# Blender 4.0.2
# www.blender.org
mtllib tibia_l.mtl
o tibia_l.002
v 0.013028 -0.361501 0.010207
v -0.012580 -0.378615 -0.010840
v 0.010922 -0.363436 -0.002219
v 0.014869 -0.374283 0.005666
v 0.010621 -0.347760 -0.003305
v 0.010069 -0.377819 -0.003167
v -0.000308 -0.360418 0.016358
v -0.006346 -0.379841 -0.013175
v 0.003682 -0.361470 -0.012434
v -0.023961 -0.371674 -0.006636
v -0.009659 -0.360930 -0.009915
v -0.011550 -0.380779 -0.003173
v -0.025528 -0.382030 -0.001151
v -0.005737 -0.361650 -0.017028
v -0.005035 -0.374491 -0.022569
v -0.000653 -0.383591 -0.019223
v -0.002628 -0.381091 0.001317
v 0.013407 -0.372391 0.016609
v 0.010583 -0.347739 0.007277
v 0.010415 -0.383661 0.014051
v 0.006594 -0.382844 0.007332
v 0.012552 -0.311245 -0.003082
v 0.002598 -0.348052 -0.012083
v 0.004080 -0.377988 -0.017879
v 0.005021 -0.384506 -0.003179
v 0.004017 -0.371453 0.022386
v -0.007979 -0.358241 0.014363
v 0.000122 -0.346804 0.011943
v -0.013929 -0.359259 -0.001802
v -0.009217 -0.346808 -0.006274
v -0.004934 -0.347149 -0.013062
v -0.025944 -0.375295 -0.002650
v -0.022728 -0.383380 0.003792
v -0.019548 -0.382377 0.010302
v -0.010412 -0.382237 0.005919
v 0.000813 -0.380338 0.011055
v 0.013275 -0.381353 0.023056
v 0.009738 -0.310616 0.001585
v 0.009499 -0.391664 0.015893
v 0.012186 -0.272811 -0.003367
v 0.006367 -0.309975 -0.012646
v 0.016911 -0.273492 -0.009697
v 0.004218 -0.380620 0.026306
v -0.006341 -0.368215 0.022416
v -0.015627 -0.370062 0.012609
v -0.012851 -0.358486 0.005685
v -0.007396 -0.346820 0.011405
v 0.002155 -0.309802 0.006051
v -0.020772 -0.370421 0.005289
v -0.010907 -0.346302 0.001281
v -0.004671 -0.310279 -0.012319
v -0.006749 -0.310454 -0.003541
v -0.014418 -0.381415 0.016293
v -0.003142 -0.389712 0.018480
v 0.010066 -0.388819 0.023227
v 0.005470 -0.271875 0.002145
v 0.002113 -0.393971 0.018331
v 0.009280 -0.235310 0.000377
v 0.016557 -0.235724 -0.006425
v 0.009621 -0.273405 -0.014661
v 0.018371 -0.236235 -0.014541
v 0.006510 -0.389673 0.025499
v -0.004577 -0.378822 0.026643
v -0.005797 -0.309708 0.005621
v -0.002709 -0.272642 0.003260
v -0.002314 -0.277144 -0.011128
v -0.004813 -0.274020 -0.005348
v -0.010369 -0.386008 0.022478
v 0.001086 -0.389067 0.027378
v 0.001871 -0.234927 0.003415
v 0.003288 -0.201111 0.003004
v 0.011879 -0.200371 0.001014
v 0.018174 -0.201650 -0.005657
v 0.009639 -0.237066 -0.015518
v 0.021522 -0.202025 -0.013578
v 0.012236 -0.201693 -0.015474
v -0.002233 -0.234240 -0.003499
v 0.002032 -0.235506 -0.013490
v -0.001645 -0.201309 -0.002500
v 0.008501 -0.162860 0.004565
v 0.001244 -0.163112 0.001983
v 0.013828 -0.163501 0.000436
v 0.018499 -0.163802 -0.004554
v 0.003049 -0.201444 -0.013638
v 0.021684 -0.164268 -0.014614
v 0.009763 -0.162391 -0.014612
v -0.000905 -0.201942 -0.011156
v -0.002206 -0.161544 -0.000953
v 0.010220 -0.127426 0.003470
v 0.004528 -0.128390 0.005645
v -0.004529 -0.126103 -0.002711
v 0.015920 -0.127031 -0.001800
v 0.022417 -0.127245 -0.008705
v -0.001329 -0.162442 -0.007579
v 0.022344 -0.126254 -0.013492
v 0.009423 -0.125652 -0.014215
v -0.002257 -0.126255 -0.009909
v 0.009279 -0.086546 0.005402
v -0.001220 -0.087399 0.007904
v -0.007620 -0.087060 0.001351
v -0.006384 -0.087861 -0.009350
v 0.021123 -0.086484 -0.005013
v 0.021862 -0.087027 -0.015523
v 0.006991 -0.087075 -0.017777
v -0.002449 -0.087303 -0.016794
v -0.001443 -0.072884 0.011429
v 0.010728 -0.060527 0.006860
v 0.015472 -0.072087 0.000469
v -0.012993 -0.059754 0.005494
v -0.008379 -0.072367 -0.006316
v 0.027614 -0.066578 -0.008546
v 0.023990 -0.069170 -0.003045
v 0.013465 -0.076048 -0.018190
v 0.016271 -0.068571 -0.020322
v 0.023884 -0.068999 -0.016651
v -0.004197 -0.058263 -0.021763
v 0.010486 -0.055770 -0.023892
v -0.008932 -0.058651 -0.017528
v -0.002444 -0.062354 0.013969
v 0.020707 -0.058850 0.000576
v 0.008601 -0.050922 0.010497
v -0.017281 -0.046399 -0.012085
v -0.025220 -0.039599 -0.012092
v -0.024312 -0.047352 0.006660
v -0.022501 -0.047520 0.013659
v -0.015444 -0.049644 0.022141
v 0.024991 -0.059978 -0.016785
v 0.027320 -0.055113 -0.010888
v 0.020106 -0.052754 -0.024507
v -0.015335 -0.047665 -0.020146
v -0.011751 -0.045080 -0.030203
v 0.009818 -0.036497 -0.035847
v -0.005567 -0.048463 0.024633
v 0.018731 -0.041654 0.006256
v 0.003491 -0.022903 -0.013355
v -0.005969 -0.020983 -0.007567
v 0.021708 -0.045672 -0.003313
v -0.024591 -0.026755 -0.009538
v -0.026132 -0.029804 -0.013680
v -0.027334 -0.031321 -0.020901
v -0.025935 -0.042262 -0.025309
v -0.022256 -0.028325 -0.003211
v -0.029693 -0.039725 0.001130
v -0.029898 -0.031001 0.015542
v -0.024302 -0.032661 0.027351
v -0.029304 -0.032299 0.021214
v -0.004724 -0.027221 0.030642
v -0.017391 -0.031483 0.030560
v 0.021936 -0.050659 -0.018686
v 0.017861 -0.031780 -0.025507
v -0.000725 -0.028391 -0.038227
v -0.015780 -0.036723 -0.036975
v 0.012097 -0.024951 -0.028332
v 0.011616 -0.033646 0.018150
v 0.017004 -0.023963 0.005333
v -0.000781 -0.022569 -0.000859
v -0.003705 -0.023207 -0.020273
v -0.011229 -0.017999 -0.006176
v -0.006783 -0.021303 0.000190
v 0.010805 -0.021791 0.004012
v 0.014997 -0.025327 -0.009315
v 0.008001 -0.023806 -0.020111
v -0.015875 -0.025531 -0.021316
v -0.019581 -0.021936 -0.007251
v -0.025701 -0.030119 -0.027613
v -0.021813 -0.035128 -0.033512
v -0.016965 -0.026964 0.009694
v -0.018365 -0.021573 0.002464
v -0.026769 -0.032244 0.007493
v -0.024404 -0.029841 0.011716
v -0.017870 -0.029831 0.015996
v -0.007328 -0.028057 0.016846
v 0.001064 -0.025650 0.025397
v 0.015654 -0.026898 -0.016169
v -0.007720 -0.022541 -0.034432
v -0.019921 -0.027247 -0.034638
v -0.000771 -0.020941 -0.032431
v 0.007350 -0.022269 -0.025866
v 0.007234 -0.023226 0.019105
v 0.010728 -0.023133 0.009250
v -0.012712 -0.018280 0.004089
v -0.004017 -0.018622 0.005979
v 0.002919 -0.021066 0.005078
v -0.010658 -0.024319 -0.021210
v -0.011984 -0.017938 -0.001904
v 0.005050 -0.021305 0.012326
vn 0.9082 0.1550 0.3889
vn -0.4288 -0.6789 -0.5960
vn 0.7956 -0.2015 -0.5713
vn 0.9797 -0.1821 -0.0835
vn 0.9268 0.0090 -0.3754
vn 0.7787 -0.2995 -0.5513
vn 0.0594 0.4371 0.8974
vn -0.1655 -0.9679 0.1891
vn 0.6695 0.1081 -0.7349
vn -0.7835 0.2685 -0.5604
vn -0.7796 0.2583 -0.5705
vn 0.0813 -0.9664 -0.2440
vn -0.7667 -0.6216 -0.1605
vn -0.3268 0.2691 -0.9060
vn -0.2405 0.0321 -0.9701
vn 0.2120 -0.7985 -0.5634
vn -0.1893 -0.9765 0.1029
vn 0.8675 0.2196 0.4464
vn 0.8244 0.1712 0.5395
vn 0.7450 -0.4686 -0.4748
vn 0.0467 -0.9584 0.2815
vn 0.9987 -0.0468 -0.0210
vn 0.4888 0.0554 -0.8706
vn 0.7827 -0.2616 -0.5648
vn 0.2999 -0.9529 -0.0442
vn 0.3028 0.4925 0.8159
vn -0.5217 0.3884 0.7596
vn 0.1736 0.2199 0.9600
vn -0.8790 0.4434 -0.1756
vn -0.9104 0.1315 -0.3923
vn -0.4355 0.1254 -0.8914
vn -0.9888 0.1410 -0.0485
vn -0.5223 -0.8307 0.1926
vn -0.5874 -0.6297 0.5083
vn 0.1001 -0.9949 -0.0093
vn -0.1632 -0.9292 -0.3315
vn 0.8563 0.0080 0.5164
vn 0.7044 0.0701 0.7064
vn 0.5117 -0.7208 -0.4675
vn 0.7267 -0.0000 0.6869
vn 0.4497 -0.0906 -0.8886
vn 0.9816 -0.0963 -0.1646
vn 0.2059 0.1467 0.9675
vn -0.3080 0.4500 0.8382
vn -0.7652 0.2849 0.5773
vn -0.8834 0.3641 0.2949
vn -0.5834 0.2200 0.7818
vn 0.2441 0.0986 0.9647
vn -0.8398 0.3786 0.3891
vn -0.9821 0.1793 0.0577
vn -0.6386 0.0452 -0.7682
vn -0.9933 0.0859 -0.0773
vn -0.7349 -0.5317 0.4209
vn -0.4454 -0.8158 -0.3690
vn 0.6845 -0.5014 0.5293
vn 0.4026 0.0231 0.9151
vn -0.2073 -0.9313 -0.2996
vn 0.5345 -0.0230 0.8449
vn 0.8667 -0.0386 0.4973
vn 0.1573 -0.0600 -0.9857
vn 0.8086 -0.0403 -0.5870
vn 0.3840 -0.5106 0.7693
vn -0.3096 0.1638 0.9367
vn -0.6885 0.1334 0.7129
vn -0.5757 0.0773 0.8140
vn -0.6715 0.0408 -0.7399
vn -0.9909 0.0674 -0.1168
vn -0.7404 -0.5060 0.4424
vn -0.0549 -0.4456 0.8936
vn -0.3004 0.0341 0.9532
vn -0.2959 -0.0223 0.9550
vn 0.5051 -0.0474 0.8618
vn 0.8389 -0.0471 0.5422
vn -0.0774 -0.0142 -0.9969
vn 0.8918 -0.0521 -0.4494
vn -0.0026 0.0028 -1.0000
vn -0.9969 0.0328 0.0721
vn -0.6349 0.0030 -0.7726
vn -0.9500 0.0054 0.3124
vn 0.1722 -0.0255 0.9847
vn -0.5179 -0.0270 0.8550
vn 0.6741 -0.0127 0.7385
vn 0.8544 -0.0230 0.5192
vn -0.3811 0.0295 -0.9241
vn 0.8006 -0.0055 -0.5991
vn -0.2656 0.0303 -0.9636
vn -0.8472 0.0221 -0.5307
vn -0.9299 -0.0224 0.3673
vn 0.5258 -0.0030 0.8506
vn -0.1781 -0.0356 0.9834
vn -0.9672 -0.0964 0.2349
vn 0.7024 -0.0134 0.7117
vn 0.9362 -0.0143 0.3512
vn -0.8462 0.0073 -0.5328
vn 0.7347 -0.0211 -0.6780
vn -0.1455 -0.0747 -0.9865
vn -0.7268 -0.1111 -0.6778
vn 0.4858 -0.0711 0.8712
vn -0.2830 -0.1828 0.9415
vn -0.9382 -0.1604 0.3066
vn -0.9481 -0.0701 -0.3100
vn 0.8648 -0.1049 0.4910
vn 0.7495 -0.1445 -0.6460
vn 0.0243 -0.1233 -0.9921
vn -0.5667 -0.1378 -0.8123
vn -0.1145 -0.1968 0.9737
vn 0.5313 -0.1735 0.8292
vn 0.5873 -0.1275 0.7993
vn -0.8187 -0.5467 0.1756
vn -0.9621 -0.1682 -0.2145
vn 0.9900 -0.0686 0.1233
vn 0.6963 -0.1245 0.7069
vn 0.1368 -0.2214 -0.9656
vn 0.2094 -0.2306 -0.9503
vn 0.7154 -0.1109 -0.6898
vn -0.3545 -0.3989 -0.8457
vn 0.0123 -0.3802 -0.9248
vn -0.8006 -0.3745 -0.4677
vn 0.0161 -0.4629 0.8862
vn 0.7156 -0.0699 0.6950
vn 0.5841 -0.2575 0.7698
vn -0.7197 -0.6641 -0.2026
vn -0.9258 -0.3769 -0.0285
vn -0.8036 -0.5945 0.0297
vn -0.7589 -0.5779 0.3002
vn -0.4244 -0.5925 0.6847
vn 0.8260 -0.0634 -0.5601
vn 0.9682 0.2499 -0.0073
vn 0.6374 -0.1701 -0.7515
vn -0.6377 -0.7393 -0.2161
vn -0.2221 -0.6746 -0.7040
vn 0.3887 -0.0957 -0.9164
vn 0.1926 -0.4270 0.8835
vn 0.8535 -0.0764 0.5154
vn 0.2123 0.9753 0.0614
vn 0.4926 0.8582 0.1443
vn 0.9698 0.1789 0.1655
vn -0.8686 0.4882 0.0845
vn -0.9137 0.4019 0.0604
vn -0.9132 0.4065 -0.0286
vn -0.7719 -0.5800 -0.2603
vn -0.8862 0.4171 0.2017
vn -0.9854 -0.0946 -0.1418
vn -0.8370 0.5414 0.0799
vn -0.6213 0.3200 0.7153
vn -0.8451 0.3248 0.4245
vn 0.0792 0.5590 0.8253
vn -0.2556 0.3954 0.8822
vn 0.9312 0.2423 -0.2723
vn 0.8758 0.3187 -0.3624
vn 0.1274 0.1860 -0.9743
vn -0.1970 -0.3182 -0.9273
vn 0.6023 0.6831 -0.4130
vn 0.7353 -0.0653 0.6746
vn 0.7547 0.6284 0.1885
vn 0.0771 0.9645 -0.2528
vn -0.0190 0.9987 -0.0468
vn 0.0475 0.9918 -0.1188
vn 0.2822 0.9392 -0.1957
vn 0.2271 0.9739 -0.0037
vn 0.3982 0.9086 -0.1264
vn 0.1966 0.9789 0.0552
vn -0.3728 0.9168 -0.1431
vn -0.6222 0.7785 -0.0823
vn -0.8295 0.4877 -0.2721
vn -0.6763 -0.1753 -0.7155
vn -0.5036 0.7727 0.3864
vn -0.7372 0.6106 0.2894
vn -0.4591 0.7368 -0.4963
vn -0.2988 0.9527 -0.0552
vn -0.1794 0.9527 0.2452
vn -0.2696 0.9110 0.3121
vn 0.2598 0.7903 0.5549
vn 0.7456 0.6561 -0.1170
vn -0.2179 0.8166 -0.5345
vn -0.5015 0.5873 -0.6352
vn 0.0966 0.9275 -0.3612
vn 0.3022 0.9522 0.0451
vn 0.3566 0.7661 0.5347
vn 0.2924 0.9427 0.1606
vn -0.2096 0.9346 0.2873
vn 0.0600 0.9939 0.0930
vn 0.1793 0.9671 -0.1805
vn -0.1827 0.9720 -0.1476
vn 0.0305 0.9990 0.0317
vn 0.0715 0.9629 0.2603
s 1
f 1//1 2//2 3//3
f 3//3 1//1 4//4
f 1//1 3//3 5//5
f 6//6 3//3 4//4
f 6//6 7//7 3//3
f 3//3 6//6 8//8
f 6//6 9//9 3//3
f 3//3 9//9 5//5
f 2//2 10//10 11//11
f 12//12 13//13 2//2
f 13//13 10//10 2//2
f 14//14 15//15 2//2
f 15//15 16//16 2//2
f 8//8 2//2 16//16
f 2//2 8//8 17//17
f 12//12 2//2 17//17
f 2//2 11//11 14//14
f 1//1 18//18 4//4
f 7//7 18//18 1//1
f 7//7 1//1 19//19
f 19//19 1//1 5//5
f 20//20 21//21 4//4
f 18//18 20//20 4//4
f 21//21 6//6 4//4
f 4//4 17//17 21//21
f 19//19 5//5 22//22
f 5//5 9//9 23//23
f 5//5 23//23 22//22
f 16//16 24//24 6//6
f 25//25 6//6 21//21
f 6//6 24//24 9//9
f 24//24 6//6 25//25
f 7//7 26//26 18//18
f 27//27 26//26 7//7
f 27//27 7//7 28//28
f 28//28 7//7 19//19
f 17//17 8//8 16//16
f 24//24 14//14 9//9
f 9//9 14//14 23//23
f 10//10 29//29 11//11
f 11//11 29//29 30//30
f 31//31 14//14 11//11
f 31//31 11//11 30//30
f 29//29 10//10 32//32
f 32//32 10//10 13//13
f 12//12 33//33 13//13
f 32//32 13//13 34//34
f 33//33 34//34 13//13
f 12//12 35//35 33//33
f 35//35 12//12 17//17
f 24//24 15//15 14//14
f 15//15 24//24 16//16
f 23//23 14//14 31//31
f 16//16 25//25 17//17
f 25//25 16//16 24//24
f 36//36 35//35 17//17
f 25//25 36//36 17//17
f 37//37 20//20 18//18
f 26//26 37//37 18//18
f 28//28 19//19 38//38
f 38//38 19//19 22//22
f 20//20 36//36 21//21
f 20//20 37//37 39//39
f 39//39 36//36 20//20
f 25//25 21//21 36//36
f 40//40 38//38 22//22
f 22//22 23//23 41//41
f 40//40 22//22 42//42
f 42//42 22//22 41//41
f 23//23 31//31 41//41
f 26//26 43//43 37//37
f 44//44 43//43 26//26
f 27//27 44//44 26//26
f 44//44 27//27 45//45
f 46//46 45//45 27//27
f 47//47 27//27 28//28
f 46//46 27//27 47//47
f 47//47 28//28 48//48
f 48//48 28//28 38//38
f 29//29 32//32 49//49
f 29//29 49//49 46//46
f 30//30 29//29 50//50
f 29//29 46//46 50//50
f 31//31 30//30 51//51
f 51//51 30//30 52//52
f 30//30 50//50 52//52
f 41//41 31//31 51//51
f 34//34 49//49 32//32
f 35//35 34//34 33//33
f 34//34 35//35 53//53
f 49//49 34//34 45//45
f 34//34 53//53 45//45
f 35//35 36//36 53//53
f 54//54 53//53 36//36
f 36//36 39//39 54//54
f 37//37 55//55 39//39
f 43//43 55//55 37//37
f 56//56 48//48 38//38
f 56//56 38//38 40//40
f 57//57 54//54 39//39
f 39//39 55//55 57//57
f 58//58 56//56 40//40
f 58//58 40//40 59//59
f 59//59 40//40 42//42
f 42//42 41//41 60//60
f 60//60 41//41 51//51
f 59//59 42//42 61//61
f 61//61 42//42 60//60
f 43//43 62//62 55//55
f 63//63 62//62 43//43
f 44//44 63//63 43//43
f 45//45 63//63 44//44
f 49//49 45//45 46//46
f 53//53 63//63 45//45
f 50//50 46//46 47//47
f 50//50 47//47 64//64
f 64//64 47//47 48//48
f 65//65 64//64 48//48
f 65//65 48//48 56//56
f 52//52 50//50 64//64
f 60//60 51//51 66//66
f 66//66 51//51 52//52
f 66//66 52//52 67//67
f 67//67 52//52 64//64
f 68//68 53//53 54//54
f 53//53 68//68 63//63
f 69//69 54//54 57//57
f 54//54 69//69 68//68
f 55//55 62//62 57//57
f 70//70 65//65 56//56
f 70//70 56//56 58//58
f 62//62 69//69 57//57
f 71//71 70//70 58//58
f 71//71 58//58 72//72
f 72//72 58//58 59//59
f 72//72 59//59 73//73
f 73//73 59//59 61//61
f 61//61 60//60 74//74
f 74//74 60//60 66//66
f 73//73 61//61 75//75
f 75//75 61//61 76//76
f 76//76 61//61 74//74
f 63//63 69//69 62//62
f 69//69 63//63 68//68
f 67//67 64//64 65//65
f 77//77 67//67 65//65
f 77//77 65//65 70//70
f 74//74 66//66 78//78
f 78//78 66//66 67//67
f 78//78 67//67 77//77
f 79//79 77//77 70//70
f 79//79 70//70 71//71
f 80//80 71//71 72//72
f 81//81 79//79 71//71
f 81//81 71//71 80//80
f 80//80 72//72 82//82
f 82//82 72//72 73//73
f 82//82 73//73 83//83
f 83//83 73//73 75//75
f 76//76 74//74 84//84
f 84//84 74//74 78//78
f 83//83 75//75 85//85
f 85//85 75//75 76//76
f 85//85 76//76 86//86
f 86//86 76//76 84//84
f 87//87 78//78 77//77
f 87//87 77//77 79//79
f 84//84 78//78 87//87
f 88//88 87//87 79//79
f 88//88 79//79 81//81
f 89//89 80//80 82//82
f 90//90 81//81 80//80
f 90//90 80//80 89//89
f 91//91 88//88 81//81
f 91//91 81//81 90//90
f 89//89 82//82 92//92
f 92//92 82//82 83//83
f 92//92 83//83 93//93
f 93//93 83//83 85//85
f 94//94 84//84 87//87
f 86//86 84//84 94//94
f 93//93 85//85 95//95
f 95//95 85//85 86//86
f 95//95 86//86 96//96
f 96//96 86//86 94//94
f 94//94 87//87 88//88
f 97//97 94//94 88//88
f 97//97 88//88 91//91
f 98//98 89//89 92//92
f 99//99 90//90 89//89
f 99//99 89//89 98//98
f 100//100 91//91 90//90
f 100//100 90//90 99//99
f 101//101 97//97 91//91
f 101//101 91//91 100//100
f 98//98 92//92 102//102
f 102//102 92//92 93//93
f 102//102 93//93 103//103
f 103//103 93//93 95//95
f 96//96 94//94 97//97
f 103//103 95//95 104//104
f 104//104 95//95 96//96
f 105//105 96//96 97//97
f 104//104 96//96 105//105
f 105//105 97//97 101//101
f 99//99 98//98 106//106
f 98//98 107//107 106//106
f 107//107 98//98 108//108
f 98//98 102//102 108//108
f 100//100 99//99 109//109
f 109//109 99//99 106//106
f 100//100 109//109 110//110
f 101//101 100//100 110//110
f 105//105 101//101 110//110
f 103//103 111//111 102//102
f 102//102 111//111 112//112
f 102//102 112//112 108//108
f 113//113 103//103 104//104
f 113//113 114//114 103//103
f 103//103 115//115 111//111
f 115//115 103//103 114//114
f 104//104 105//105 116//116
f 117//117 104//104 116//116
f 113//113 104//104 117//117
f 116//116 105//105 118//118
f 118//118 105//105 110//110
f 119//119 109//109 106//106
f 107//107 119//119 106//106
f 107//107 120//120 121//121
f 119//119 107//107 121//121
f 120//120 107//107 108//108
f 112//112 120//120 108//108
f 118//118 109//109 122//122
f 109//109 123//123 122//122
f 109//109 124//124 123//123
f 109//109 125//125 124//124
f 109//109 126//126 125//125
f 109//109 119//119 126//126
f 109//109 118//118 110//110
f 127//127 111//111 115//115
f 111//111 127//127 128//128
f 112//112 111//111 120//120
f 111//111 128//128 120//120
f 113//113 117//117 114//114
f 127//127 114//114 129//129
f 114//114 117//117 129//129
f 127//127 115//115 114//114
f 116//116 118//118 130//130
f 116//116 130//130 131//131
f 117//117 116//116 131//131
f 132//132 117//117 131//131
f 129//129 117//117 132//132
f 130//130 118//118 122//122
f 119//119 133//133 126//126
f 133//133 119//119 121//121
f 120//120 134//134 121//121
f 121//121 135//135 136//136
f 134//134 133//133 121//121
f 120//120 137//137 134//134
f 120//120 128//128 137//137
f 130//130 122//122 123//123
f 123//123 138//138 139//139
f 123//123 139//139 140//140
f 123//123 140//140 141//141
f 142//142 138//138 123//123
f 142//142 123//123 143//143
f 123//123 124//124 143//143
f 130//130 123//123 141//141
f 124//124 144//144 143//143
f 124//124 125//125 144//144
f 126//126 145//145 125//125
f 145//145 146//146 125//125
f 125//125 146//146 144//144
f 126//126 133//133 147//147
f 126//126 147//147 148//148
f 126//126 148//148 145//145
f 149//149 128//128 127//127
f 149//149 127//127 129//129
f 149//149 137//137 128//128
f 150//150 129//129 132//132
f 149//149 129//129 150//150
f 131//131 130//130 141//141
f 151//151 131//131 152//152
f 131//131 141//141 152//152
f 132//132 131//131 151//151
f 151//151 153//153 132//132
f 150//150 132//132 153//153
f 154//154 147//147 133//133
f 154//154 133//133 134//134
f 154//154 134//134 155//155
f 137//137 155//155 134//134
f 136//136 135//135 156//156
f 157//157 136//136 135//135
f 157//157 158//158 136//136
f 159//159 156//156 136//136
f 159//159 136//136 158//158
f 135//135 156//156 160//160
f 135//135 160//160 161//161
f 157//157 135//135 162//162
f 162//162 135//135 161//161
f 137//137 150//150 155//155
f 149//149 150//150 137//137
f 139//139 138//138 163//163
f 140//140 139//139 163//163
f 138//138 164//164 163//163
f 142//142 164//164 138//138
f 141//141 140//140 165//165
f 165//165 140//140 163//163
f 166//166 141//141 165//165
f 166//166 152//152 141//141
f 142//142 143//143 167//167
f 142//142 167//167 168//168
f 142//142 168//168 164//164
f 169//169 167//167 143//143
f 169//169 143//143 144//144
f 169//169 144//144 170//170
f 171//171 170//170 144//144
f 171//171 144//144 146//146
f 171//171 146//146 145//145
f 171//171 145//145 148//148
f 172//172 148//148 147//147
f 172//172 147//147 173//173
f 154//154 173//173 147//147
f 172//172 171//171 148//148
f 150//150 174//174 155//155
f 174//174 150//150 153//153
f 152//152 175//175 151//151
f 176//176 175//175 152//152
f 166//166 176//176 152//152
f 151//151 177//177 153//153
f 175//175 177//177 151//151
f 153//153 162//162 161//161
f 178//178 153//153 177//177
f 178//178 162//162 153//153
f 161//161 174//174 153//153
f 154//154 155//155 179//179
f 154//154 179//179 173//173
f 161//161 160//160 155//155
f 180//180 155//155 160//160
f 174//174 161//161 155//155
f 180//180 179//179 155//155
f 181//181 182//182 156//156
f 159//159 181//181 156//156
f 183//183 160//160 156//156
f 183//183 156//156 182//182
f 157//157 184//184 158//158
f 157//157 162//162 178//178
f 157//157 178//178 177//177
f 157//157 177//177 175//175
f 157//157 175//175 184//184
f 158//158 184//184 163//163
f 164//164 158//158 163//163
f 159//159 158//158 185//185
f 185//185 158//158 164//164
f 159//159 185//185 181//181
f 183//183 186//186 160//160
f 180//180 160//160 186//186
f 176//176 165//165 163//163
f 175//175 176//176 163//163
f 184//184 175//175 163//163
f 181//181 185//185 164//164
f 168//168 181//181 164//164
f 166//166 165//165 176//176
f 181//181 168//168 167//167
f 169//169 170//170 167//167
f 167//167 170//170 171//171
f 172//172 181//181 167//167
f 172//172 167//167 171//171
f 172//172 186//186 182//182
f 172//172 182//182 181//181
f 172//172 173//173 179//179
f 172//172 179//179 186//186
f 180//180 186//186 179//179
f 183//183 182//182 186//186
