# Blender 4.0.2
# www.blender.org
mtllib toe_5_mid_l.mtl
o toe_5_mid_l.002
v 0.006207 -0.002767 -0.004030
v 0.008175 0.000689 0.001475
v 0.007542 0.000397 0.001761
v 0.006802 0.000720 0.001892
v 0.007650 -0.001004 -0.002667
v 0.008533 0.000913 0.001031
v 0.006818 0.000204 -0.004562
v 0.004826 -0.000452 -0.004584
v 0.004169 -0.002359 -0.003683
v 0.001610 -0.002992 -0.001958
v 0.002109 -0.003040 -0.001706
v 0.003530 -0.000659 0.002772
v 0.005573 0.000221 0.002110
v 0.006322 0.000370 0.001894
v 0.004198 -0.001029 -0.004336
v 0.005830 0.003466 0.000247
v 0.007633 0.002597 -0.000760
v 0.005796 0.003106 0.000603
v 0.004332 0.002713 0.000530
v 0.006806 0.000675 -0.003992
v 0.004229 -0.000013 -0.004225
v -0.000328 -0.001821 -0.002691
v 0.000796 0.001413 -0.003860
v 0.000939 -0.003503 -0.001443
v 0.000073 -0.002719 -0.002055
v 0.003836 -0.000394 -0.004074
v 0.001881 -0.001158 0.003112
v 0.002319 -0.000263 0.003535
v 0.003548 0.000109 0.002582
v 0.005298 0.003178 0.000033
v 0.004750 0.001458 -0.002819
v 0.004251 0.003094 -0.000456
v 0.002433 0.003757 0.000222
v 0.002289 0.002300 0.002434
v 0.001818 0.003614 -0.001029
v 0.001081 0.003288 -0.001298
v -0.001042 0.002032 -0.003397
v -0.000926 0.001663 -0.003769
v -0.001162 0.001069 -0.003447
v -0.000302 0.000876 -0.001641
v 0.000075 -0.002496 -0.001191
v 0.000326 -0.001940 -0.000619
v 0.000441 -0.001241 0.000750
v 0.001074 0.001673 0.002845
v 0.000790 -0.000779 0.002202
v 0.000530 0.003777 -0.000419
v 0.001440 0.003823 0.001720
v 0.001190 0.003946 0.000770
v -0.000644 0.002989 -0.001638
v -0.000128 0.003650 0.000534
v 0.000925 -0.000696 0.001482
v 0.000664 0.004049 0.000601
vn 0.3758 -0.7973 -0.4723
vn 0.6675 0.0014 0.7446
vn 0.2434 -0.4869 0.8388
vn 0.1657 0.0111 0.9861
vn 0.9293 -0.3336 -0.1584
vn 0.9031 0.1585 0.3991
vn 0.4604 0.3441 -0.8183
vn -0.1515 0.1384 -0.9787
vn -0.3164 -0.5365 -0.7823
vn -0.0428 -0.7213 -0.6913
vn 0.2223 -0.9717 0.0795
vn 0.4661 -0.4632 0.7538
vn 0.3790 -0.1462 0.9138
vn 0.2869 -0.3528 0.8906
vn -0.5031 -0.2133 -0.8375
vn 0.0141 0.9746 0.2237
vn 0.6703 0.7293 -0.1371
vn 0.0711 0.6629 0.7453
vn 0.1448 0.7587 0.6351
vn 0.4764 0.6544 -0.5872
vn -0.4620 0.5096 -0.7259
vn -0.6990 -0.4541 -0.5524
vn 0.0078 0.2982 -0.9545
vn -0.1823 -0.9823 -0.0426
vn -0.6148 -0.6882 -0.3852
vn -0.3409 0.1254 -0.9317
vn -0.2076 -0.6383 0.7413
vn 0.0575 -0.0593 0.9966
vn 0.3986 0.3443 0.8500
vn -0.2434 0.9682 -0.0577
vn 0.0496 0.7583 -0.6500
vn 0.2200 0.9573 -0.1874
vn 0.2975 0.9511 0.0831
vn 0.3604 0.5033 0.7853
vn -0.0924 0.9543 -0.2843
vn -0.0612 0.8738 -0.4825
vn -0.6649 0.6237 -0.4110
vn -0.4135 0.2445 -0.8771
vn -0.9126 -0.2267 -0.3402
vn -0.9423 -0.1251 0.3106
vn -0.8701 -0.3557 0.3412
vn -0.9873 0.1516 0.0482
vn -0.8683 -0.2981 0.3965
vn -0.5362 0.2110 0.8173
vn -0.9031 -0.2470 0.3513
vn -0.1225 0.9413 -0.3146
vn 0.0447 0.8030 0.5943
vn 0.0106 0.9980 0.0616
vn -0.7874 0.6053 -0.1168
vn -0.7973 0.5352 0.2793
vn -0.9391 0.2799 0.1994
vn -0.1471 0.9159 0.3734
s 1
f 1//1 2//2 3//3
f 4//4 3//3 2//2
f 1//1 3//3 4//4
f 1//1 5//5 2//2
f 4//4 2//2 6//6
f 5//5 6//6 2//2
f 1//1 7//7 5//5
f 1//1 8//8 7//7
f 9//9 1//1 10//10
f 11//11 10//10 1//1
f 12//12 11//11 1//1
f 12//12 1//1 13//13
f 1//1 14//14 13//13
f 14//14 1//1 4//4
f 15//15 8//8 1//1
f 1//1 9//9 15//15
f 16//16 4//4 17//17
f 4//4 6//6 17//17
f 4//4 16//16 18//18
f 19//19 14//14 4//4
f 4//4 18//18 19//19
f 7//7 20//20 5//5
f 6//6 5//5 20//20
f 17//17 6//6 20//20
f 7//7 8//8 20//20
f 21//21 20//20 8//8
f 21//21 8//8 15//15
f 10//10 22//22 23//23
f 10//10 11//11 24//24
f 9//9 10//10 23//23
f 10//10 24//24 25//25
f 10//10 25//25 22//22
f 26//26 15//15 9//9
f 9//9 23//23 26//26
f 24//24 11//11 12//12
f 12//12 27//27 24//24
f 28//28 27//27 12//12
f 12//12 13//13 29//29
f 29//29 28//28 12//12
f 19//19 13//13 14//14
f 13//13 19//19 29//29
f 21//21 15//15 26//26
f 16//16 17//17 20//20
f 18//18 16//16 30//30
f 20//20 31//31 16//16
f 31//31 30//30 16//16
f 18//18 30//30 32//32
f 19//19 18//18 32//32
f 19//19 32//32 33//33
f 33//33 34//34 19//19
f 29//29 19//19 34//34
f 21//21 31//31 20//20
f 21//21 26//26 31//31
f 23//23 35//35 31//31
f 23//23 31//31 26//26
f 36//36 23//23 37//37
f 23//23 36//36 35//35
f 37//37 23//23 38//38
f 23//23 22//22 38//38
f 39//39 38//38 22//22
f 39//39 22//22 40//40
f 22//22 25//25 41//41
f 41//41 42//42 22//22
f 43//43 40//40 22//22
f 43//43 22//22 42//42
f 41//41 25//25 24//24
f 41//41 24//24 43//43
f 27//27 43//43 24//24
f 44//44 27//27 28//28
f 43//43 27//27 45//45
f 45//45 27//27 44//44
f 34//34 28//28 29//29
f 44//44 28//28 34//34
f 31//31 32//32 30//30
f 32//32 31//31 35//35
f 35//35 33//33 32//32
f 36//36 46//46 33//33
f 34//34 33//33 47//47
f 33//33 35//35 36//36
f 33//33 48//48 47//47
f 33//33 46//46 48//48
f 47//47 44//44 34//34
f 37//37 49//49 36//36
f 39//39 37//37 38//38
f 49//49 37//37 39//39
f 36//36 49//49 46//46
f 39//39 40//40 49//49
f 50//50 49//49 40//40
f 43//43 50//50 40//40
f 42//42 41//41 43//43
f 51//51 50//50 43//43
f 51//51 43//43 45//45
f 45//45 44//44 51//51
f 50//50 51//51 44//44
f 47//47 50//50 44//44
f 46//46 52//52 48//48
f 46//46 49//49 52//52
f 50//50 47//47 48//48
f 48//48 52//52 50//50
f 52//52 49//49 50//50
