# Blender 4.0.2
# www.blender.org
mtllib trapezium_r.mtl
o trapezium_r.002
v 0.004608 -0.005416 0.006593
v 0.004305 -0.005008 0.007456
v 0.003798 -0.006683 0.006814
v 0.004680 -0.003515 0.007777
v 0.003541 -0.005256 0.007874
v 0.005214 -0.003918 0.004854
v 0.003426 -0.004332 0.008316
v 0.005260 -0.002737 0.005981
v 0.004085 -0.006913 0.004390
v 0.004725 -0.004784 0.003678
v 0.003072 -0.006941 0.006657
v 0.003103 -0.003065 0.008689
v 0.004097 -0.003033 0.008169
v 0.004698 -0.002376 0.007655
v 0.004107 -0.007061 0.003383
v 0.003343 -0.007816 0.005052
v 0.003924 -0.005325 0.002146
v 0.002078 -0.003447 0.008311
v 0.002324 -0.006322 0.006865
v 0.004532 -0.001111 0.006893
v 0.004869 -0.000835 0.006130
v 0.002764 -0.008122 0.005216
v 0.004156 -0.003408 0.001341
v 0.000062 -0.005376 0.005717
v 0.003029 -0.002307 0.008586
v 0.003003 -0.000937 0.007446
v 0.002025 -0.008819 0.004326
v 0.002135 -0.009378 0.003151
v 0.004919 -0.001725 0.003354
v 0.003479 -0.004452 0.000829
v 0.002615 -0.005616 0.000618
v 0.002687 -0.007927 0.001949
v 0.000884 -0.004090 0.007149
v 0.001383 -0.007938 0.005048
v 0.000059 -0.007306 0.004696
v 0.002663 -0.002510 0.008708
v 0.002347 -0.001164 0.008129
v 0.002432 -0.000474 0.007690
v 0.005069 -0.000973 0.004854
v 0.002613 -0.008827 0.002746
v 0.002252 -0.004574 -0.000598
v 0.001576 -0.001946 0.007953
v 0.000057 -0.003260 0.006558
v -0.001707 -0.005410 0.005041
v 0.003058 -0.000088 0.006629
v 0.004339 0.000925 0.003098
v 0.003968 0.001442 0.003928
v 0.004041 0.000731 0.005321
v 0.004936 -0.000975 0.000939
v 0.004305 -0.002189 -0.000496
v 0.003489 -0.003348 -0.000514
v 0.000938 -0.006786 0.000306
v -0.001512 -0.003664 0.005327
v -0.001319 -0.006621 0.004789
v 0.000597 -0.008923 0.004145
v 0.001944 0.001105 0.006632
v 0.001372 -0.009588 0.003389
v 0.000975 -0.009922 0.002185
v 0.001118 -0.008821 0.001406
v 0.004936 -0.000530 0.001032
v 0.001133 -0.004743 -0.001156
v 0.000334 -0.000463 0.006396
v -0.000781 -0.008848 0.003990
v 0.000718 -0.010197 0.002853
v -0.001597 -0.007813 0.003993
v 0.002926 0.002394 0.003908
v 0.001538 0.000528 0.006948
v 0.004224 0.001407 0.001396
v 0.003909 0.002012 0.002332
v 0.003875 0.002627 0.002056
v 0.003697 -0.002210 -0.002701
v -0.000308 -0.008732 0.001298
v 0.001424 -0.002945 -0.003464
v -0.002331 -0.005551 0.004442
v 0.001369 0.002769 0.005669
v 0.004861 0.001208 -0.000196
v 0.004118 0.002394 0.001322
v 0.005268 -0.000743 -0.001680
v -0.000298 -0.005930 -0.000398
v -0.000330 -0.004725 -0.001517
v 0.000487 -0.003683 -0.002665
v -0.003705 -0.000701 0.002825
v 0.000485 0.001653 0.006080
v -0.001296 0.000659 0.004923
v -0.004045 -0.004345 0.003178
v -0.003203 -0.006346 0.003699
v -0.002706 -0.007281 0.003500
v 0.000301 -0.010123 0.002734
v -0.001102 -0.009329 0.002770
v 0.001306 0.003919 0.004701
v 0.002686 0.003698 0.002850
v 0.005551 0.000345 -0.000956
v 0.000457 -0.009987 0.002194
v 0.003783 -0.001001 -0.006036
v 0.004536 -0.001346 -0.003595
v -0.002256 -0.007287 0.001258
v -0.000845 -0.009363 0.002164
v -0.001751 -0.008544 0.002075
v -0.001764 -0.005391 -0.000434
v -0.003100 -0.002445 0.003860
v 0.001195 0.001965 0.006145
v -0.003490 -0.006395 0.003153
v 0.003513 0.004260 0.001814
v 0.004395 0.003778 0.001248
v 0.005832 0.003066 -0.000329
v 0.006023 0.000368 -0.002570
v 0.002053 -0.001483 -0.006231
v -0.002509 -0.007796 0.002294
v -0.003371 -0.006188 0.001176
v -0.003167 -0.005459 0.000381
v 0.000439 -0.001975 -0.005627
v -0.002082 -0.002453 -0.004809
v -0.004053 -0.002772 0.002790
v 0.000453 0.002788 0.005794
v -0.001705 0.003401 0.004569
v -0.003150 0.003074 0.003627
v -0.004022 -0.004966 0.002111
v 0.000722 0.004316 0.004780
v 0.000917 0.005668 0.004024
v 0.001588 0.006353 0.002569
v 0.005480 0.004070 0.000416
v 0.005268 -0.000387 -0.005722
v -0.003595 -0.006191 0.002099
v -0.003208 -0.004695 -0.000378
v -0.001524 -0.004275 -0.001890
v 0.000040 -0.001660 -0.005795
v -0.002561 -0.003050 -0.003676
v -0.004426 -0.001730 0.002652
v -0.004214 0.000990 0.002569
v -0.000584 0.004550 0.004734
v -0.004099 -0.003006 0.002256
v -0.000049 0.003947 0.005157
v 0.000519 0.005490 0.004434
v 0.002217 0.006405 0.000849
v 0.004240 0.005273 0.000535
v 0.006265 0.003784 -0.001034
v 0.005971 0.001849 -0.002190
v 0.006145 0.000702 -0.004651
v 0.001577 -0.001081 -0.006537
v 0.005843 0.000106 -0.005322
v -0.003752 -0.004220 -0.001226
v 0.001026 -0.001317 -0.006253
v -0.001426 -0.001457 -0.005508
v -0.003627 -0.002225 -0.005182
v -0.006097 0.000691 0.001851
v -0.005680 -0.000110 0.001973
v -0.005187 0.002781 0.002558
v -0.002054 0.004238 0.003698
v -0.003644 0.003585 0.003257
v 0.001022 0.006381 0.002866
v 0.001730 0.006872 0.000905
v 0.005437 0.005201 -0.000014
v 0.006088 0.004950 -0.000589
v 0.005910 0.001854 -0.004009
v 0.003835 -0.000448 -0.006689
v 0.004955 -0.000005 -0.006411
v 0.002334 -0.000747 -0.006796
v -0.003480 -0.004511 0.000130
v -0.004027 -0.003992 -0.002118
v -0.004543 -0.003651 -0.003634
v -0.004437 -0.002782 -0.004859
v -0.003636 -0.000838 -0.005925
v -0.003712 -0.003321 0.000762
v -0.001106 0.004958 0.003292
v 0.000109 0.005561 0.004179
v 0.001418 0.006705 0.001914
v 0.002282 0.006418 -0.000236
v 0.001318 0.007043 0.000709
v 0.004325 0.005750 -0.000059
v 0.006175 0.004396 -0.002673
v 0.005678 0.004674 -0.003640
v 0.005278 0.002203 -0.005046
v 0.002944 0.000040 -0.006986
v 0.000682 -0.000090 -0.006121
v -0.000042 0.000817 -0.006026
v -0.003771 -0.002887 0.000637
v -0.004964 -0.001513 0.001700
v -0.006934 0.001666 0.001643
v -0.006782 0.002247 0.001752
v -0.005382 -0.000944 0.002091
v -0.006208 0.000149 0.001644
v -0.002960 0.004492 0.002030
v -0.004283 0.004024 0.002254
v -0.005586 0.003497 0.002118
v 0.002631 0.006402 -0.001176
v 0.004547 0.006257 -0.001581
v 0.001283 0.007124 -0.000169
v 0.005836 0.005555 -0.001481
v 0.005495 0.000788 -0.005862
v -0.003973 -0.003910 -0.000728
v -0.004435 -0.003905 -0.002244
v -0.005573 -0.003269 -0.003277
v -0.005574 -0.002838 -0.004095
v -0.002384 0.001186 -0.006476
v -0.003756 0.000705 -0.006257
v -0.004624 -0.001613 0.000963
v -0.003413 0.004862 0.000023
v -0.000519 0.006047 -0.000607
v -0.007065 0.002759 0.001466
v -0.003978 -0.002913 0.000004
v -0.000453 0.005587 0.001634
v 0.001569 0.006678 -0.001993
v 0.005543 0.005213 -0.003247
v 0.004577 0.004258 -0.004808
v 0.004287 0.002275 -0.006025
v 0.004450 0.000743 -0.006551
v 0.002870 0.002216 -0.006303
v 0.000887 0.001468 -0.006056
v -0.005319 -0.003236 -0.002045
v -0.001375 0.001372 -0.006250
v -0.006383 -0.002066 -0.003451
v -0.006097 -0.001531 -0.004579
v -0.005450 -0.001297 -0.005148
v -0.004328 0.001653 -0.006619
v -0.004564 -0.000747 -0.005576
v -0.004702 -0.001986 -0.000114
v -0.005806 -0.001496 0.000146
v -0.005656 0.004107 0.001109
v -0.000926 0.006305 -0.001466
v 0.003458 0.006453 -0.001661
v 0.000654 0.007063 -0.000550
v -0.005158 -0.002491 -0.001028
v 0.001430 0.003110 -0.005527
v -0.001207 0.002156 -0.006072
v -0.004749 0.000085 -0.005786
v -0.007250 0.002322 0.001143
v -0.006553 0.000364 0.000196
v -0.006341 0.004540 -0.000663
v -0.005042 0.005602 -0.002212
v -0.003502 0.005686 -0.001748
v -0.007035 0.003449 0.000766
v 0.003292 0.006344 -0.002505
v 0.000246 0.007178 -0.002545
v 0.000679 0.006612 -0.003460
v 0.001368 0.006403 -0.003167
v 0.003588 0.004201 -0.005189
v -0.005424 -0.002096 -0.000611
v -0.006037 -0.002539 -0.002422
v -0.000686 0.003006 -0.006021
v 0.000026 0.003525 -0.005883
v -0.006469 -0.001262 -0.002840
v -0.006594 -0.000514 -0.003773
v -0.002627 0.002299 -0.006534
v -0.005468 0.000343 -0.005799
v -0.005122 0.002432 -0.006724
v -0.005772 -0.001735 -0.001280
v -0.007020 0.002661 -0.000630
v -0.003941 0.006271 -0.002806
v -0.000147 0.007108 -0.002012
v -0.000690 0.007117 -0.002670
v 0.004083 0.005381 -0.003991
v 0.002897 0.005398 -0.003990
v 0.002083 0.004511 -0.004974
v -0.001188 0.002979 -0.006062
v -0.006172 0.000753 -0.005152
v -0.003366 0.004123 -0.007298
v -0.005912 -0.000630 -0.001536
v -0.006271 0.000397 -0.001065
v -0.007022 0.003675 -0.000450
v -0.005530 0.005098 -0.002651
v -0.001192 0.006935 -0.004577
v -0.000365 0.006403 -0.004624
v -0.001142 0.005797 -0.006207
v -0.001872 0.004829 -0.006891
v -0.006386 0.000812 -0.004367
v -0.006465 0.000032 -0.003468
v -0.004771 0.004644 -0.007103
v -0.003461 0.005449 -0.007071
v -0.005700 0.003346 -0.006475
v -0.006105 0.004114 -0.002209
v -0.004921 0.005697 -0.002894
v -0.003332 0.006781 -0.003533
v 0.001143 0.005793 -0.003800
v 0.001197 0.005393 -0.004569
v 0.000758 0.005006 -0.005158
v -0.005903 0.000183 -0.002465
v -0.002201 0.005975 -0.006629
v -0.006206 0.002442 -0.005377
v -0.005836 0.000542 -0.002373
v -0.005294 0.002954 -0.003147
v -0.003886 0.006339 -0.003426
v -0.005000 0.005142 -0.006683
v -0.004069 0.005885 -0.006657
v -0.005869 0.004045 -0.006074
v -0.005456 0.001381 -0.002878
v -0.005364 0.001860 -0.003328
v -0.004938 0.004477 -0.003561
v -0.004346 0.005395 -0.004216
v -0.003273 0.006515 -0.004929
v -0.003913 0.005743 -0.004341
v -0.002355 0.007123 -0.004245
v -0.006183 0.002207 -0.004743
v -0.005248 0.002786 -0.003754
v -0.004999 0.003699 -0.003866
v -0.002764 0.006585 -0.005756
v -0.004559 0.005851 -0.005794
v -0.005976 0.003593 -0.005130
v -0.005640 0.004709 -0.005687
v -0.004749 0.004659 -0.004205
v -0.005469 0.004002 -0.004840
v -0.005096 0.003784 -0.004594
vn 0.8956 -0.3652 0.2541
vn 0.6930 -0.3588 0.6253
vn 0.5166 -0.6466 0.5613
vn 0.7831 -0.1296 0.6082
vn 0.1439 -0.4636 0.8743
vn 0.1370 -0.3537 0.9253
vn 0.9912 0.0135 0.1320
vn 0.8703 -0.4830 0.0968
vn 0.9857 -0.1530 -0.0708
vn -0.3847 -0.5123 0.7678
vn -0.0752 -0.6848 0.7248
vn 0.4928 0.1224 0.8615
vn 0.1429 -0.1039 0.9843
vn 0.6999 0.2781 0.6579
vn 0.8696 -0.4410 -0.2220
vn 0.6706 -0.7085 0.2199
vn 0.9339 -0.1939 -0.3006
vn 0.8259 -0.2991 -0.4779
vn -0.4734 -0.2357 0.8487
vn 0.8530 0.4141 0.3177
vn 0.5591 0.5341 0.6342
vn 0.2072 -0.8400 0.5015
vn 0.9058 -0.3109 -0.2880
vn -0.6202 -0.2778 0.7336
vn 0.3749 0.3879 0.8420
vn 0.4931 0.5304 0.6896
vn 0.1556 -0.7962 0.5847
vn 0.5719 -0.8163 0.0816
vn 0.9913 0.0142 -0.1311
vn 0.7970 -0.4177 -0.4363
vn 0.6246 -0.4711 -0.6228
vn 0.6440 -0.4363 -0.6284
vn -0.4834 -0.3722 0.7923
vn -0.3073 -0.5789 0.7552
vn -0.3078 -0.4021 0.8623
vn -0.1818 0.1145 0.9766
vn -0.0295 0.4691 0.8826
vn 0.3255 0.5425 0.7744
vn 0.9716 0.2360 -0.0148
vn 0.7133 -0.6298 -0.3076
vn -0.6008 0.1538 0.7844
vn -0.6566 -0.0737 0.7506
vn -0.5082 -0.2133 0.8344
vn 0.4764 0.6243 0.6192
vn 0.9305 0.3585 0.0751
vn 0.7694 0.6011 0.2162
vn 0.5667 0.6722 0.4765
vn 0.9747 -0.2214 0.0319
vn 0.8389 -0.5231 -0.1506
vn 0.7522 -0.5716 -0.3278
vn 0.3585 -0.5207 -0.7748
vn 0.5116 -0.6253 -0.5893
vn -0.5951 -0.0308 0.8030
vn -0.2880 -0.3431 0.8941
vn -0.1217 -0.6146 0.7794
vn 0.3367 0.5779 0.7434
vn 0.2177 -0.7910 0.5717
vn 0.3217 -0.7832 -0.5321
vn 0.2939 -0.5168 -0.8041
vn 0.9731 0.1321 0.1888
vn 0.2773 -0.6899 -0.6688
vn -0.6104 0.1650 0.7747
vn -0.3791 -0.5766 0.7238
vn 0.0914 -0.9786 0.1844
vn -0.4426 -0.3968 0.8042
vn 0.6855 0.5857 0.4325
vn -0.3194 0.3898 0.8637
vn 0.9515 0.2384 0.1947
vn 0.1968 0.5730 0.7956
vn 0.8839 0.1838 0.4301
vn 0.5897 -0.7569 -0.2819
vn -0.1926 -0.5825 -0.7897
vn 0.2899 -0.8305 -0.4756
vn -0.6156 0.0544 0.7862
vn -0.6054 -0.1533 0.7810
vn -0.6791 -0.5657 0.4678
vn 0.4225 0.5401 0.7279
vn 0.8860 0.0256 0.4631
vn 0.8930 -0.0519 0.4470
vn 0.8406 -0.5409 0.0289
vn 0.9424 -0.0426 0.3317
vn -0.0830 -0.5722 -0.8159
vn 0.0007 -0.7337 -0.6795
vn 0.0871 -0.8126 -0.5762
vn -0.5446 0.0877 0.8341
vn -0.4249 0.2149 0.8794
vn -0.9002 -0.0602 0.4313
vn -0.6900 -0.3037 0.6570
vn -0.2992 -0.9518 0.0675
vn -0.6113 -0.7817 0.1232
vn 0.6245 0.4813 0.6151
vn 0.7218 0.4311 0.5414
vn -0.0747 0.4361 0.8968
vn -0.0876 -0.8387 -0.5376
vn 0.6303 -0.7619 -0.1493
vn 0.3689 -0.8089 -0.4577
vn -0.6553 -0.6698 -0.3494
vn -0.5107 -0.5972 -0.6185
vn -0.4836 -0.7493 -0.4524
vn -0.2970 -0.6464 -0.7028
vn -0.6166 0.1724 0.7681
vn -0.8720 -0.4287 0.2364
vn -0.7330 -0.6718 -0.1071
vn 0.5638 0.4366 0.7011
vn 0.6707 0.1449 0.7274
vn 0.8384 -0.2531 0.4827
vn 0.9544 -0.2753 0.1157
vn 0.1244 -0.7761 -0.6182
vn -0.7598 -0.4862 -0.4316
vn -0.5914 -0.5140 -0.6213
vn -0.1179 -0.8146 -0.5679
vn 0.0305 -0.7610 -0.6480
vn -0.0363 -0.7675 -0.6400
vn -0.8802 -0.1097 0.4617
vn -0.1591 0.3748 0.9134
vn -0.5377 0.2601 0.8020
vn -0.5128 0.1107 0.8514
vn -0.9767 -0.1877 -0.1040
vn 0.3055 0.4040 0.8622
vn 0.6052 0.6644 0.4386
vn 0.4935 0.6269 0.6029
vn 0.7003 0.0218 0.7135
vn 0.6188 -0.6844 -0.3856
vn -0.8922 -0.4389 -0.1066
vn -0.5183 -0.7582 -0.3955
vn 0.0267 -0.8847 -0.4653
vn -0.7115 -0.1004 0.6955
vn -0.4716 -0.0973 0.8764
vn -0.9721 -0.2337 -0.0216
vn -0.1412 0.4049 0.9034
vn 0.1178 0.6400 0.7593
vn 0.6637 0.7019 0.2586
vn 0.4035 0.6172 0.6755
vn 0.9782 -0.0612 0.1983
vn 0.9818 -0.0998 0.1617
vn 0.9790 -0.0087 -0.2038
vn 0.3110 -0.4634 -0.8298
vn 0.8678 -0.3730 -0.3284
vn -0.4113 -0.8982 -0.1549
vn -0.2481 -0.4259 -0.8701
vn -0.2801 -0.3654 -0.8877
vn -0.0530 -0.3933 -0.9179
vn 0.0430 -0.5356 -0.8434
vn -0.4749 -0.0523 0.8785
vn -0.4308 -0.1569 0.8887
vn -0.4565 0.0330 0.8891
vn -0.4241 0.5281 0.7357
vn -0.4897 0.6733 0.5539
vn -0.4544 0.4426 0.7730
vn -0.1320 0.9301 0.3427
vn 0.5200 0.8392 0.1593
vn 0.5376 0.5964 0.5960
vn 0.8662 0.3632 0.3432
vn 0.9511 0.1862 -0.2465
vn 0.5389 -0.2682 -0.7986
vn -0.2405 -0.3290 -0.9132
vn -0.0902 -0.3216 -0.9426
vn -0.9134 -0.3799 -0.1461
vn 0.0593 -0.9647 -0.2566
vn -0.0998 -0.9133 -0.3948
vn -0.1470 -0.6618 -0.7351
vn -0.1306 -0.3289 -0.9353
vn -0.4776 0.8326 0.2804
vn -0.9899 -0.1352 -0.0421
vn 0.0301 0.9558 0.2924
vn 0.4371 0.8974 0.0610
vn 0.2993 0.8186 0.4902
vn 0.9555 0.2103 -0.2071
vn 0.7610 0.3262 -0.5608
vn 0.7377 0.3971 -0.5460
vn -0.0222 0.0172 -0.9996
vn -0.2987 -0.0004 -0.9543
vn 0.0036 -0.1227 -0.9924
vn 0.1048 -0.1573 -0.9820
vn -0.9343 -0.3475 0.0796
vn -0.7063 -0.6911 0.1538
vn -0.7638 -0.2224 0.6060
vn -0.5802 0.0287 0.8140
vn -0.7022 -0.3920 0.5944
vn -0.7874 -0.3421 0.5128
vn -0.3229 0.9107 0.2576
vn -0.4111 0.7940 0.4478
vn -0.3178 0.8478 0.4244
vn -0.4893 0.5485 0.6781
vn 0.3468 0.9379 0.0089
vn 0.1123 0.9932 0.0308
vn 0.2335 0.9723 -0.0000
vn -0.0829 0.9741 0.2102
vn 0.7127 0.7013 0.0179
vn 0.3850 0.4137 -0.8250
vn 0.4429 0.4873 -0.7526
vn 0.7383 0.2088 -0.6414
vn -0.7899 -0.5511 0.2690
vn -0.3920 -0.9198 -0.0153
vn -0.5833 -0.6189 -0.5261
vn -0.6389 -0.7572 -0.1359
vn -0.1235 -0.3240 -0.9380
vn -0.6008 -0.7993 0.0129
vn -0.2460 0.9116 0.3294
vn -0.4916 0.8068 0.3277
vn -0.4713 0.8626 0.1841
vn -0.7601 0.2922 0.5804
vn -0.8326 -0.3929 0.3905
vn 0.4237 0.8826 -0.2037
vn 0.5994 0.6843 -0.4153
vn 0.3401 0.2174 -0.9149
vn -0.0318 0.3844 -0.9226
vn -0.1091 0.1889 -0.9759
vn -0.6843 -0.6630 0.3037
vn 0.1939 0.0948 -0.9764
vn -0.9216 -0.3682 -0.1230
vn -0.7474 -0.3342 -0.5742
vn -0.4272 -0.3705 -0.8248
vn -0.1001 -0.3268 -0.9398
vn -0.2952 -0.2340 -0.9263
vn -0.5463 -0.7054 0.4516
vn -0.7155 -0.6597 0.2298
vn -0.3546 0.8442 0.4019
vn -0.3828 0.8133 0.4383
vn 0.1161 0.9900 0.0800
vn 0.3036 0.8270 -0.4731
vn -0.3750 0.9056 0.1980
vn -0.6867 -0.5515 0.4735
vn 0.0154 0.3054 -0.9521
vn 0.2430 0.0596 -0.9682
vn -0.8505 -0.4520 0.2691
vn -0.1620 -0.3198 -0.9335
vn -0.9794 -0.0718 0.1888
vn -0.9451 -0.3255 -0.0304
vn -0.5791 0.8032 0.1394
vn -0.4725 0.8572 0.2050
vn -0.2192 0.8522 0.4750
vn -0.7831 0.5364 0.3147
vn 0.1770 0.9275 -0.3293
vn 0.1874 0.9701 -0.1539
vn 0.4291 0.7621 -0.4849
vn 0.1516 0.5488 -0.8221
vn 0.1438 0.0346 -0.9890
vn -0.9597 -0.0140 0.2807
vn -0.9955 -0.0153 -0.0937
vn 0.2017 -0.1695 -0.9647
vn -0.4025 -0.2328 -0.8853
vn -0.4583 -0.2889 -0.8405
vn -0.5692 -0.7526 0.3309
vn -0.9181 -0.3380 0.2073
vn -0.9337 -0.0963 -0.3448
vn -0.3020 0.9261 0.2263
vn -0.1788 0.9654 0.1898
vn 0.2104 0.7739 -0.5973
vn 0.1354 0.5396 -0.8310
vn 0.3272 0.0327 -0.9444
vn 0.4465 -0.0747 -0.8917
vn -0.8648 -0.1180 -0.4881
vn 0.0852 -0.0723 -0.9937
vn -0.9325 -0.1656 -0.3209
vn -0.9594 -0.1622 -0.2309
vn -0.9277 0.3419 -0.1498
vn -0.7985 0.4789 -0.3648
vn -0.3811 0.8708 0.3107
vn 0.4812 0.7214 -0.4980
vn 0.2598 0.8960 -0.3600
vn 0.3399 0.7420 -0.5779
vn 0.1011 0.7642 -0.6371
vn 0.3711 0.0761 -0.9255
vn 0.4817 0.5070 -0.7148
vn -0.9914 0.0868 -0.0975
vn -0.9304 0.2342 0.2819
vn -0.4067 0.1896 -0.8937
vn -0.0212 0.4112 -0.9113
vn -0.7372 -0.0230 -0.6752
vn -0.8469 0.1292 -0.5158
vn -0.6502 0.7319 -0.2036
vn -0.4320 0.8969 0.0943
vn 0.3448 0.7233 -0.5982
vn 0.4130 0.4641 -0.7836
vn -0.9354 0.2389 0.2608
vn -0.9788 0.0551 -0.1973
vn -0.9536 0.1820 -0.2398
vn -0.9249 0.0432 -0.3777
vn -0.6520 0.7415 -0.1584
vn -0.1582 0.9812 -0.1104
vn 0.2153 0.6134 -0.7599
vn -0.6372 0.5372 -0.5526
vn -0.3321 0.7442 -0.5796
vn -0.9084 0.2546 -0.3315
vn -0.9675 0.2416 -0.0752
vn -0.9233 0.2986 0.2418
vn -0.8799 0.1576 -0.4483
vn -0.7916 0.6034 -0.0961
vn -0.6852 0.7277 0.0301
vn -0.5258 0.8441 -0.1054
vn -0.9145 0.2610 0.3090
vn -0.8879 0.3282 0.3225
vn -0.9245 0.2881 0.2494
vn -0.9714 0.2342 -0.0389
vn -0.1164 0.9156 -0.3848
vn -0.6123 0.7906 0.0098
vn -0.8342 0.5422 0.1004
vn -0.8961 0.4160 0.1549
vn -0.6447 0.3712 0.6683
vn -0.6689 0.3822 0.6375
s 1
f 1//1 2//2 3//3
f 2//2 1//1 4//4
f 5//5 3//3 2//2
f 2//2 4//4 7//6
f 1//1 8//7 4//4
f 1//1 9//8 6//9
f 9//8 1//1 3//3
f 19//10 11//11 5//5
f 7//6 5//5 2//2
f 11//11 3//3 5//5
f 7//6 13//12 12//13
f 4//4 13//12 7//6
f 8//7 14//14 4//4
f 8//7 1//1 6//9
f 6//9 9//8 15//15
f 9//8 3//3 16//16
f 6//9 15//15 10//17
f 10//17 15//15 17//18
f 7//6 18//19 19//10
f 7//6 19//10 5//5
f 21//20 20//21 14//14
f 21//20 14//14 8//7
f 22//22 16//16 3//3
f 10//17 23//23 6//9
f 17//18 23//23 10//17
f 18//19 7//6 12//13
f 33//24 19//10 18//19
f 3//3 11//11 22//22
f 14//14 13//12 4//4
f 25//25 12//13 13//12
f 26//26 25//25 13//12
f 13//12 14//14 26//26
f 22//22 27//27 16//16
f 28//28 16//16 27//27
f 9//8 16//16 15//15
f 28//28 15//15 16//16
f 29//29 6//9 23//23
f 29//29 8//7 6//9
f 23//23 17//18 30//30
f 17//18 15//15 31//31
f 31//31 15//15 32//32
f 33//24 24//33 19//10
f 22//22 11//11 34//34
f 11//11 19//10 34//34
f 35//35 34//34 24//33
f 34//34 19//10 24//33
f 25//25 36//36 12//13
f 37//37 25//25 26//26
f 26//26 14//14 20//21
f 38//38 37//37 26//26
f 21//20 8//7 39//39
f 39//39 8//7 29//29
f 15//15 28//28 40//40
f 31//31 30//30 17//18
f 18//19 12//13 36//36
f 18//19 42//41 33//24
f 36//36 42//41 18//19
f 27//27 22//22 34//34
f 33//24 43//42 24//33
f 44//43 35//35 24//33
f 25//25 37//37 36//36
f 45//44 26//26 20//21
f 39//39 46//45 21//20
f 21//20 47//46 48//47
f 47//46 21//20 46//45
f 21//20 48//47 20//21
f 29//29 46//45 39//39
f 32//32 15//15 40//40
f 23//23 49//48 29//29
f 23//23 50//49 49//48
f 51//50 30//30 31//31
f 31//31 52//51 41//52
f 41//52 51//50 31//31
f 42//41 43//42 33//24
f 37//37 42//41 36//36
f 43//42 53//53 24//33
f 53//53 44//43 24//33
f 35//35 44//43 54//54
f 34//34 35//35 55//55
f 38//38 26//26 45//44
f 45//44 56//56 38//38
f 48//47 45//44 20//21
f 27//27 34//34 55//55
f 27//27 55//55 57//57
f 32//32 40//40 58//58
f 58//58 59//59 32//32
f 49//48 60//60 29//29
f 51//50 50//49 23//23
f 23//23 30//30 51//50
f 31//31 32//32 52//51
f 41//52 52//51 61//61
f 32//32 59//59 52//51
f 62//62 43//42 42//41
f 62//62 42//41 37//37
f 43//42 62//62 53//53
f 63//63 64//64 55//55
f 55//55 35//35 63//63
f 65//65 35//35 54//54
f 65//65 63//63 35//35
f 66//66 56//56 45//44
f 45//44 48//47 66//66
f 67//67 37//37 38//38
f 46//45 29//29 60//60
f 68//68 46//45 60//60
f 46//45 69//69 47//46
f 46//45 68//68 70//70
f 46//45 70//70 69//69
f 27//27 57//57 28//28
f 40//40 28//28 58//58
f 64//64 57//57 55//55
f 51//50 41//52 71//71
f 71//71 50//49 51//50
f 52//51 59//59 72//72
f 72//72 61//61 52//51
f 73//73 41//52 61//61
f 41//52 73//73 71//71
f 84//74 53//53 62//62
f 44//43 74//75 54//54
f 54//54 87//76 65//65
f 67//67 38//38 56//56
f 56//56 66//66 75//77
f 48//47 47//46 66//66
f 66//66 47//46 69//69
f 60//60 76//78 68//68
f 77//79 70//70 68//68
f 57//57 64//64 28//28
f 58//58 28//28 64//64
f 59//59 58//58 72//72
f 49//48 78//80 92//81
f 78//80 49//48 50//49
f 60//60 49//48 92//81
f 61//61 72//72 79//82
f 61//61 79//82 80//83
f 61//61 81//84 73//73
f 62//62 37//37 67//67
f 74//75 44//43 53//53
f 84//74 82//85 53//53
f 67//67 83//86 62//62
f 62//62 83//86 84//74
f 74//75 85//87 86//88
f 74//75 86//88 54//54
f 87//76 54//54 86//88
f 88//89 64//64 63//63
f 63//63 89//90 88//89
f 87//76 63//63 65//65
f 90//91 75//77 66//66
f 91//92 66//66 69//69
f 101//93 67//67 56//56
f 77//79 68//68 76//78
f 92//81 76//78 60//60
f 72//72 58//58 93//94
f 71//71 78//80 50//49
f 78//80 71//71 95//95
f 94//96 71//71 73//73
f 94//96 95//95 71//71
f 72//72 98//97 96//98
f 72//72 97//99 98//97
f 79//82 72//72 99//100
f 96//98 99//100 72//72
f 61//61 80//83 81//84
f 53//53 85//87 74//75
f 82//85 100//101 53//53
f 83//86 67//67 101//93
f 85//87 102//102 86//88
f 89//90 63//63 87//76
f 87//76 102//102 108//103
f 75//77 101//93 56//56
f 90//91 66//66 91//92
f 69//69 103//104 91//92
f 69//69 70//70 103//104
f 104//105 70//70 77//79
f 77//79 76//78 105//106
f 105//106 104//105 77//79
f 64//64 88//89 58//58
f 58//58 88//89 93//94
f 93//94 97//99 72//72
f 78//80 106//107 92//81
f 107//108 94//96 73//73
f 108//103 96//98 98//97
f 96//98 108//103 109//109
f 96//98 110//110 99//100
f 79//82 99//100 80//83
f 125//111 80//83 99//100
f 81//84 80//83 125//111
f 81//84 125//111 112//112
f 112//112 111//113 81//84
f 53//53 100//101 85//87
f 113//114 85//87 100//101
f 114//115 83//86 101//93
f 115//116 84//74 83//86
f 116//117 84//74 115//116
f 82//85 84//74 116//117
f 83//86 114//115 115//116
f 102//102 85//87 117//118
f 86//88 102//102 87//76
f 89//90 97//99 88//89
f 89//90 98//97 97//99
f 89//90 87//76 98//97
f 93//94 88//89 97//99
f 108//103 98//97 87//76
f 118//119 75//77 90//91
f 120//120 119//121 90//91
f 91//92 120//120 90//91
f 70//70 104//105 103//104
f 105//106 121//122 104//105
f 94//96 122//123 95//95
f 108//103 123//124 109//109
f 96//98 109//109 110//110
f 110//110 124//125 99//100
f 125//111 99//100 124//125
f 73//73 111//113 107//108
f 111//113 73//73 81//84
f 112//112 125//111 127//126
f 128//127 113//114 100//101
f 129//128 82//85 116//117
f 128//127 100//101 82//85
f 113//114 131//129 85//87
f 102//102 117//118 123//124
f 102//102 123//124 108//103
f 75//77 114//115 101//93
f 75//77 132//130 114//115
f 132//130 75//77 118//119
f 119//121 133//131 90//91
f 120//120 91//92 134//132
f 134//132 91//92 103//104
f 135//133 103//104 104//105
f 136//134 105//106 137//135
f 137//135 105//106 76//78
f 136//134 121//122 105//106
f 106//107 137//135 92//81
f 137//135 76//78 92//81
f 137//135 106//107 138//136
f 94//96 107//108 155//137
f 78//80 95//95 122//123
f 122//123 140//138 78//80
f 106//107 78//80 140//138
f 124//125 141//139 125//111
f 126//140 142//141 111//113
f 112//112 143//142 111//113
f 143//142 126//140 111//113
f 111//113 142//141 107//108
f 143//142 112//112 144//143
f 129//128 146//144 82//85
f 129//128 145//145 146//144
f 116//117 147//146 129//128
f 147//146 145//145 129//128
f 146//144 128//127 82//85
f 115//116 130//147 148//148
f 114//115 132//130 115//116
f 130//147 115//116 132//130
f 116//117 115//116 148//148
f 149//149 147//146 116//117
f 131//129 117//118 85//87
f 123//124 117//118 109//109
f 133//131 118//119 90//91
f 133//131 119//121 150//150
f 120//120 134//132 151//151
f 103//104 135//133 134//132
f 152//152 104//105 121//122
f 135//133 104//105 152//152
f 153//153 121//122 136//134
f 138//136 154//154 137//135
f 154//154 136//134 137//135
f 94//96 155//137 156//155
f 156//155 122//123 94//96
f 139//156 107//108 142//141
f 107//108 157//157 155//137
f 157//157 107//108 139//156
f 138//136 106//107 140//138
f 110//110 158//158 124//125
f 109//109 158//158 110//110
f 125//111 141//139 127//126
f 141//139 124//125 158//158
f 109//109 117//118 158//158
f 141//139 159//159 127//126
f 127//126 159//159 160//160
f 127//126 161//161 112//112
f 160//160 161//161 127//126
f 143//142 144//143 162//162
f 148//148 130//147 164//163
f 149//149 116//117 148//148
f 117//118 131//129 163//164
f 163//164 158//158 117//118
f 133//131 132//130 118//119
f 120//120 150//150 119//121
f 151//151 166//165 120//120
f 134//132 135//133 167//166
f 169//167 135//133 152//152
f 167//166 135//133 169//167
f 152//152 121//122 153//153
f 154//154 170//168 136//134
f 170//168 153//153 136//134
f 154//154 172//169 171//170
f 155//137 157//157 173//171
f 139//156 142//141 174//172
f 140//138 122//123 156//155
f 142//141 126//140 174//172
f 175//173 126//140 143//142
f 126//140 175//173 174//172
f 161//161 144//143 112//112
f 143//142 162//162 194//174
f 163//164 131//129 176//175
f 177//176 131//129 113//114
f 176//175 131//129 177//176
f 178//177 145//145 179//178
f 147//146 179//178 145//145
f 146//144 180//179 128//127
f 146//144 181//180 180//179
f 182//181 148//148 164//163
f 164//163 130//147 165//182
f 133//131 165//182 130//147
f 133//131 130//147 132//130
f 183//183 149//149 148//148
f 182//181 183//183 148//148
f 184//184 149//149 183//183
f 184//184 147//146 149//149
f 166//165 150//150 120//120
f 134//132 167//166 151//151
f 167//166 186//185 185//186
f 167//166 169//167 186//185
f 167//166 187//187 151//151
f 168//188 166//165 151//151
f 170//168 188//189 153//153
f 154//154 138//136 172//169
f 205//190 204//191 172//169
f 170//168 154//154 171//170
f 173//171 156//155 155//137
f 139//156 174//172 157//157
f 138//136 140//138 189//192
f 156//155 189//192 140//138
f 141//139 158//158 190//193
f 159//159 141//139 191//194
f 191//194 141//139 190//193
f 190//193 158//158 163//164
f 191//194 160//160 159//159
f 175//173 143//142 194//174
f 161//161 160//160 193//195
f 160//160 192//196 193//195
f 160//160 191//194 192//196
f 194//174 162//162 195//197
f 144//143 161//161 162//162
f 176//175 177//176 196//198
f 177//176 113//114 128//127
f 145//145 181//180 146//144
f 128//127 180//179 177//176
f 197//199 183//183 182//181
f 197//199 182//181 198//200
f 164//163 201//201 182//181
f 165//182 201//201 164//163
f 199//202 147//146 184//184
f 199//202 179//178 147//146
f 163//164 176//175 200//203
f 163//164 200//203 190//193
f 165//182 133//131 150//150
f 150//150 166//165 201//201
f 165//182 150//150 201//201
f 185//186 202//204 167//166
f 187//187 168//188 151//151
f 201//201 166//165 168//188
f 152//152 186//185 169//167
f 188//189 152//152 153//153
f 152//152 188//189 186//185
f 170//168 203//205 188//189
f 138//136 189//192 172//169
f 205//190 172//169 189//192
f 173//171 206//206 156//155
f 189//192 156//155 206//206
f 206//206 173//171 207//207
f 208//208 174//172 175//173
f 157//157 174//172 208//208
f 206//206 205//190 189//192
f 191//194 190//193 209//209
f 194//174 210//210 175//173
f 193//195 192//196 211//211
f 212//212 213//213 161//161
f 161//161 193//195 212//212
f 192//196 191//194 209//209
f 195//197 214//214 194//174
f 162//162 215//215 195//197
f 215//215 162//162 213//213
f 162//162 161//161 213//213
f 200//203 196//198 216//216
f 200//203 176//175 196//198
f 178//177 181//180 145//145
f 217//217 177//176 180//179
f 198//200 182//181 201//201
f 218//218 183//183 197//199
f 198//200 219//219 197//199
f 187//187 167//166 202//204
f 185//186 186//185 220//220
f 185//186 220//220 235//221
f 185//186 235//221 202//204
f 221//222 198//200 201//201
f 168//188 221//222 201//201
f 171//170 203//205 170//168
f 203//205 186//185 188//189
f 171//170 172//169 204//191
f 207//207 204//191 205//190
f 205//190 206//206 207//207
f 173//171 157//157 208//208
f 173//171 208//208 207//207
f 200//203 222//223 190//193
f 190//193 222//223 209//209
f 200//203 216//216 222//223
f 175//173 210//210 208//208
f 223//224 208//208 224//225
f 210//210 224//225 208//208
f 238//226 211//211 192//196
f 193//195 211//211 212//212
f 215//215 225//227 195//197
f 214//214 195//197 225//227
f 217//217 196//198 177//176
f 178//177 179//178 226//228
f 178//177 227//229 181//180
f 180//179 181//180 217//217
f 196//198 217//217 216//216
f 227//229 217//217 181//180
f 199//202 184//184 218//218
f 218//218 184//184 183//183
f 218//218 197//199 228//230
f 229//231 197//199 230//232
f 219//219 230//232 197//199
f 221//222 219//219 198//200
f 231//233 199//202 218//218
f 220//220 232//234 235//221
f 202//204 233//235 187//187
f 235//221 234//236 202//204
f 234//236 233//235 202//204
f 232//234 220//220 186//185
f 168//188 187//187 221//222
f 203//205 232//234 186//185
f 236//237 204//191 207//207
f 207//207 208//208 223//224
f 222//223 238//226 209//209
f 223//224 224//225 239//238
f 192//196 209//209 238//226
f 238//226 241//239 211//211
f 211//211 242//240 212//212
f 243//241 194//174 214//214
f 243//241 210//210 194//174
f 245//242 214//214 225//227
f 244//243 245//242 225//227
f 237//244 216//216 217//217
f 237//244 222//223 216//216
f 199//202 226//228 179//178
f 178//177 226//228 227//229
f 217//217 246//245 237//244
f 227//229 246//245 217//217
f 226//228 247//246 227//229
f 218//218 228//230 231//233
f 197//199 229//231 228//230
f 219//219 249//247 250//248
f 250//248 230//232 219//219
f 221//222 249//247 219//219
f 233//235 221//222 187//187
f 232//234 203//205 251//249
f 204//191 203//205 171//170
f 204//191 251//249 203//205
f 204//191 236//237 251//249
f 253//250 236//237 207//207
f 223//224 253//250 207//207
f 222//223 246//245 238//226
f 239//238 240//251 223//224
f 224//225 254//252 239//238
f 224//225 210//210 243//241
f 211//211 241//239 242//240
f 241//239 238//226 246//245
f 242//240 255//253 212//212
f 213//213 212//212 244//243
f 213//213 244//243 215//215
f 225//227 215//215 244//243
f 256//254 243//241 214//214
f 214//214 245//242 256//254
f 231//233 226//228 199//202
f 246//245 227//229 258//255
f 246//245 258//255 257//256
f 247//246 258//255 227//229
f 231//233 228//230 259//257
f 228//230 260//258 259//257
f 221//222 233//235 249//247
f 230//232 248//259 229//231
f 250//248 249//247 233//235
f 250//248 248//259 230//232
f 262//260 233//235 234//236
f 261//261 233//235 262//260
f 273//262 234//236 235//221
f 234//236 273//262 262//260
f 232//234 252//263 235//221
f 251//249 252//263 232//234
f 253//250 252//263 236//237
f 251//249 236//237 252//263
f 223//224 240//251 253//250
f 237//244 246//245 222//223
f 240//251 264//264 263//265
f 224//225 264//264 254//252
f 224//225 256//254 264//264
f 256//254 224//225 243//241
f 244//243 212//212 255//253
f 242//240 265//266 255//253
f 242//240 241//239 266//267
f 256//254 267//268 268//269
f 267//268 256//254 245//242
f 244//243 255//253 245//242
f 255//253 269//270 245//242
f 259//257 226//228 231//233
f 226//228 259//257 247//246
f 229//231 260//258 228//230
f 270//271 259//257 260//258
f 248//259 271//272 229//231
f 248//259 250//248 272//273
f 273//262 252//263 274//274
f 273//262 274//274 262//260
f 235//221 252//263 273//262
f 253//250 274//274 252//263
f 240//251 275//275 253//250
f 253//250 275//275 274//274
f 276//276 241//239 246//245
f 257//256 276//276 246//245
f 276//276 266//267 241//239
f 240//251 239//238 254//252
f 240//251 263//265 275//275
f 254//252 264//264 240//251
f 266//267 265//266 242//240
f 256//254 268//269 264//264
f 278//277 269//270 255//253
f 267//268 245//242 269//270
f 276//276 257//256 279//278
f 257//256 258//255 279//278
f 280//279 258//255 247//246
f 247//246 259//257 270//271
f 229//231 271//272 260//258
f 272//273 281//280 248//259
f 248//259 281//280 271//272
f 250//248 233//235 261//261
f 250//248 261//261 291//281
f 291//281 272//273 250//248
f 261//261 262//260 263//265
f 262//260 274//274 275//275
f 263//265 262//260 275//275
f 264//264 268//269 277//282
f 267//268 282//283 268//269
f 283//284 268//269 282//283
f 255//253 265//266 278//277
f 269//270 284//285 267//268
f 278//277 284//285 269//270
f 258//255 285//286 279//278
f 258//255 280//279 285//286
f 280//279 286//287 285//286
f 270//271 280//279 247//246
f 287//288 280//279 270//271
f 260//258 287//288 270//271
f 288//289 271//272 281//280
f 290//290 288//289 281//280
f 289//291 290//290 281//280
f 276//276 292//292 266//267
f 277//282 261//261 263//265
f 263//265 264//264 277//282
f 268//269 283//284 277//282
f 265//266 292//292 278//277
f 266//267 292//292 265//266
f 278//277 292//292 297//293
f 284//285 278//277 297//293
f 284//285 282//283 267//268
f 280//279 293//294 286//287
f 294//295 280//279 287//288
f 288//289 287//288 260//258
f 288//289 260//258 271//272
f 295//296 291//281 261//261
f 261//261 277//282 295//296
f 291//281 289//291 272//273
f 289//291 281//280 272//273
f 276//276 279//278 285//286
f 276//276 285//286 286//287
f 292//292 276//276 286//287
f 296//297 283//284 282//283
f 277//282 283//284 295//296
f 298//298 284//285 297//293
f 298//298 282//283 284//285
f 280//279 294//295 293//294
f 287//288 299//299 294//295
f 299//299 287//288 288//289
f 295//296 289//291 291//281
f 282//283 298//298 296//297
f 296//297 295//296 283//284
f 295//296 296//297 289//291
f 286//287 293//294 292//292
f 293//294 297//293 292//292
f 301//300 300//301 293//294
f 293//294 300//301 297//293
f 294//295 301//300 293//294
f 299//299 301//300 294//295
f 289//291 288//289 290//290
f 288//289 296//297 299//299
f 289//291 296//297 288//289
f 300//301 301//300 299//299
f 298//298 300//301 299//299
f 296//297 298//298 299//299
f 298//298 297//293 300//301
