# Blender 4.0.2
# www.blender.org
mtllib trapezoid_r.mtl
o trapezoid_r.002
v 0.005702 -0.003160 0.003790
v 0.005264 -0.003509 0.005078
v 0.005331 -0.003793 0.004753
v 0.005292 -0.003967 0.004260
v 0.005990 -0.002205 0.003307
v 0.004978 -0.002186 0.005391
v 0.005951 -0.001884 0.001784
v 0.005073 -0.003571 0.002794
v 0.005948 -0.001074 0.003007
v 0.004564 -0.000108 0.005019
v 0.004299 -0.001822 0.006032
v 0.005020 -0.004226 0.004664
v 0.005018 -0.004219 0.004053
v 0.004956 -0.003338 0.001167
v 0.006114 -0.000848 0.001441
v 0.003725 -0.004472 0.001938
v 0.004466 -0.003509 0.006095
v 0.003352 -0.000636 0.006506
v 0.004725 -0.004158 0.005368
v 0.006086 0.000133 0.001668
v 0.005327 -0.002734 0.000601
v 0.005947 -0.000695 0.000731
v 0.004930 0.000339 0.004016
v 0.003968 -0.002757 0.006495
v 0.004811 -0.003929 0.005549
v 0.001519 0.001842 0.006100
v 0.003362 0.001891 0.004204
v 0.004454 -0.004447 0.004976
v 0.003845 -0.004565 0.003501
v 0.003506 -0.004746 0.002794
v 0.004648 -0.003157 -0.000298
v 0.003288 -0.003831 -0.001249
v 0.005970 0.000810 0.000347
v 0.002795 -0.004441 0.000555
v 0.005292 0.000799 0.003189
v 0.004202 0.001306 0.003994
v 0.003845 -0.003355 0.006476
v 0.002701 -0.001961 0.007016
v 0.001589 0.001047 0.006587
v 0.003048 -0.004529 0.004125
v 0.002940 -0.004353 0.005329
v 0.003452 -0.003339 -0.001749
v 0.004949 -0.002346 -0.000496
v 0.005738 -0.000009 -0.000030
v 0.002770 -0.004983 0.002525
v 0.002623 -0.004268 -0.000780
v 0.003540 0.002299 0.003498
v 0.003972 -0.003937 0.006146
v 0.003319 -0.002920 0.006683
v 0.001963 -0.002853 0.007409
v 0.001607 -0.002497 0.007566
v 0.001532 -0.000572 0.007222
v 0.001864 0.002718 0.004737
v 0.005791 0.001536 0.001178
v 0.002846 -0.004830 0.003602
v 0.001873 -0.004955 0.002856
v 0.001478 -0.004527 -0.001421
v 0.001625 -0.004440 0.000677
v 0.002620 -0.003845 -0.002260
v 0.001532 -0.004369 -0.003512
v 0.004935 0.002394 0.002038
v 0.002898 0.003075 0.002753
v 0.003114 -0.003863 0.006321
v 0.003566 -0.004215 0.005926
v 0.002919 -0.003520 0.006683
v 0.002590 -0.003148 0.006996
v 0.001029 -0.002257 0.007658
v 0.001177 -0.002817 0.007566
v -0.000103 0.000123 0.007485
v 0.000750 0.003161 0.004552
v 0.002709 -0.004462 0.005091
v 0.005563 0.001857 -0.000405
v 0.005529 0.002285 -0.000030
v 0.004981 0.003165 0.000348
v 0.004316 -0.002830 -0.001083
v 0.003675 -0.001294 -0.001879
v 0.004866 0.000166 -0.001352
v 0.001641 -0.005017 0.004063
v 0.000747 -0.004193 0.001737
v -0.000161 -0.004238 -0.000835
v -0.000031 -0.004907 -0.003346
v 0.001248 -0.004573 -0.003301
v 0.002545 0.003427 0.001831
v 0.004188 0.003333 0.001497
v 0.002687 -0.003805 0.006423
v 0.001976 -0.003133 0.007302
v 0.002311 -0.003449 0.006862
v 0.001279 -0.003245 0.007322
v 0.000199 -0.000962 0.007650
v -0.000389 0.002140 0.006414
v 0.000162 0.002712 0.005713
v 0.002396 -0.005060 0.004142
v 0.004579 0.003400 -0.000628
v 0.002401 -0.003306 -0.002923
v 0.001916 -0.000914 -0.003520
v 0.002073 -0.005132 0.003675
v -0.000287 -0.003625 0.002209
v -0.001093 -0.004919 -0.003547
v -0.001248 -0.003783 -0.000277
v 0.001699 -0.004003 -0.003667
v 0.003319 0.003651 0.001399
v 0.001102 0.003409 0.003049
v 0.002221 -0.003888 0.005880
v 0.000296 -0.001863 0.007623
v -0.000581 0.001256 0.006977
v -0.000865 0.003388 0.004564
v -0.000698 0.003820 0.003525
v 0.002172 -0.004880 0.004758
v 0.003651 0.004155 0.000035
v 0.004255 0.002425 -0.002344
v 0.001007 -0.003152 -0.004503
v 0.002087 0.002205 -0.003750
v 0.004251 0.001634 -0.002376
v -0.000430 -0.003193 0.004269
v 0.000605 -0.004715 -0.003492
v 0.000117 -0.004760 -0.003674
v -0.002721 -0.001696 0.002204
v -0.002219 -0.001948 0.003363
v 0.001176 0.004991 -0.000137
v 0.001500 -0.003867 0.005965
v 0.000589 -0.003330 0.006683
v -0.000302 -0.002655 0.006864
v -0.001016 -0.002243 0.006842
v -0.001035 0.000719 0.007021
v -0.000713 -0.000510 0.007510
v -0.000978 0.002122 0.006143
v 0.001963 -0.005035 0.004469
v 0.003373 0.003590 -0.002372
v 0.003583 0.003669 -0.001522
v 0.003646 0.002969 -0.002863
v 0.001070 0.001305 -0.004220
v -0.000474 -0.002347 -0.005762
v 0.003320 0.002722 -0.003183
v -0.001727 -0.004942 -0.003584
v 0.000641 -0.004301 -0.003960
v -0.000391 -0.004655 -0.003952
v -0.000524 -0.004872 -0.003709
v -0.003210 -0.001735 0.001111
v -0.003463 -0.002092 0.000232
v -0.002772 -0.003841 -0.001977
v 0.000531 -0.003337 -0.004857
v 0.002218 0.004912 -0.000968
v 0.003535 0.004251 -0.000415
v 0.000354 0.004684 0.001597
v 0.001230 -0.004225 0.005279
v -0.001440 -0.001513 0.006970
v -0.002090 0.001304 0.005506
v -0.001606 0.003241 0.004050
v -0.002410 0.001726 0.004544
v -0.001473 0.003802 0.003054
v 0.002899 0.004074 -0.001843
v 0.003200 0.003465 -0.003542
v -0.001063 0.001902 -0.005690
v -0.001943 -0.001613 -0.006820
v 0.002634 0.003696 -0.003927
v -0.001964 -0.001874 0.006156
v -0.003926 -0.004485 -0.003982
v -0.002403 -0.004900 -0.003931
v -0.000862 -0.003534 -0.004640
v -0.002755 -0.001279 0.003146
v -0.004648 -0.001572 -0.000521
v -0.004801 -0.003536 -0.002665
v 0.000124 -0.003422 -0.004964
v -0.000394 0.005396 -0.000011
v 0.002720 0.004375 -0.001579
v -0.000842 0.005144 0.001039
v -0.001393 0.004280 0.002465
v -0.002118 -0.001403 0.006254
v -0.001818 -0.000273 0.006569
v -0.001850 0.003296 0.003164
v -0.002471 0.002184 0.003758
v 0.003187 0.003918 -0.003227
v -0.000585 0.002761 -0.005100
v -0.002380 0.001277 -0.006551
v -0.001703 -0.002015 -0.006608
v 0.001830 0.003660 -0.004010
v 0.001396 0.003424 -0.003995
v 0.000487 0.002988 -0.004452
v -0.002761 -0.001129 0.004969
v -0.002705 -0.001373 0.004736
v -0.003458 -0.004618 -0.004265
v -0.001966 -0.004945 -0.004136
v -0.003500 -0.000630 0.001379
v -0.004740 -0.002565 -0.001318
v -0.005229 -0.002689 -0.002019
v -0.000654 -0.002742 -0.005622
v 0.001673 0.004972 -0.001544
v 0.000498 0.005139 -0.001874
v -0.001779 0.004891 0.001222
v -0.001342 0.005653 -0.000529
v -0.002673 0.000957 0.004599
v -0.002702 0.001154 0.004300
v -0.001935 0.003460 0.002696
v 0.002927 0.004422 -0.002251
v -0.002867 -0.000609 -0.007169
v -0.002135 0.003198 -0.005560
v -0.002757 0.002137 -0.006374
v 0.002457 0.004281 -0.003866
v 0.001981 0.004142 -0.004067
v -0.002641 -0.004696 -0.004416
v -0.001618 -0.004691 -0.004288
v -0.001238 -0.002962 -0.005271
v -0.003641 0.000318 0.001054
v -0.002988 -0.000095 0.002687
v -0.005312 -0.000589 -0.001627
v -0.005093 -0.003612 -0.003281
v 0.002099 0.004771 -0.001922
v 0.001554 0.004752 -0.002348
v -0.000738 0.005664 -0.001892
v -0.001578 0.005747 -0.001119
v -0.002212 0.004435 0.001491
v -0.002209 -0.000505 0.005711
v -0.002586 -0.000134 0.004914
v -0.002521 0.001678 0.002942
v -0.003005 0.003258 0.001270
v 0.002598 0.004644 -0.002486
v 0.002859 0.004291 -0.003126
v -0.001027 0.004181 -0.004430
v -0.002458 -0.001683 -0.006918
v -0.004406 0.001400 -0.007310
v -0.003756 0.000384 -0.007383
v -0.003489 0.002591 -0.006164
v -0.001880 -0.002196 -0.006477
v 0.001897 0.004320 -0.003843
v 0.001236 0.003809 -0.003851
v 0.000032 0.003880 -0.004119
v -0.004366 -0.004328 -0.004164
v -0.004098 -0.004246 -0.004610
v -0.003182 -0.004432 -0.004729
v -0.002770 -0.002602 -0.006029
v -0.002673 0.002063 0.002438
v -0.004154 0.002025 -0.000008
v -0.005295 -0.001499 -0.001507
v -0.005724 0.001193 -0.001921
v -0.005914 -0.001688 -0.003230
v -0.005731 -0.002695 -0.003538
v -0.005562 -0.003106 -0.004029
v 0.000836 0.004123 -0.003510
v -0.001784 0.005653 -0.002704
v -0.002148 0.005341 -0.000856
v -0.003807 0.003529 -0.000619
v 0.002212 0.004521 -0.002834
v -0.004476 0.001079 -0.007376
v -0.004932 0.002138 -0.006689
v -0.002946 -0.001963 -0.006383
v 0.002074 0.004437 -0.003383
v -0.004789 -0.004047 -0.004311
v -0.003311 -0.003053 -0.005732
v -0.005293 0.002070 -0.001557
v -0.006340 0.000901 -0.003111
v -0.006188 -0.000463 -0.003512
v -0.006077 -0.000842 -0.004889
v -0.001178 0.005044 -0.003523
v 0.001402 0.004097 -0.003536
v -0.002566 0.005429 -0.003002
v -0.003303 0.004969 -0.003467
v -0.004037 0.004057 -0.002058
v -0.003809 0.004608 -0.003137
v -0.002407 0.005240 -0.003564
v -0.003662 0.004292 -0.004332
v -0.003282 -0.000673 -0.007152
v -0.004756 0.001013 -0.007275
v -0.004940 0.001690 -0.007044
v -0.004419 0.003292 -0.005159
v -0.005258 0.002654 -0.005555
v -0.004948 -0.003688 -0.004580
v -0.003740 -0.002328 -0.006050
v -0.004980 0.002972 -0.001951
v -0.006496 0.001559 -0.003736
v -0.006373 0.002334 -0.003103
v -0.005817 -0.001128 -0.005123
v -0.005421 -0.002795 -0.004552
v -0.004076 0.000176 -0.007260
v -0.003669 -0.000348 -0.007033
v -0.003337 -0.001011 -0.006744
v -0.005024 0.001258 -0.007032
v -0.005318 0.001889 -0.006606
v -0.005451 0.003405 -0.004453
v -0.004885 0.003823 -0.003932
v -0.005407 0.002282 -0.005940
v -0.003487 -0.001268 -0.006405
v -0.004503 0.003695 -0.002540
v -0.005879 0.003072 -0.003246
v -0.006146 0.000487 -0.004432
v -0.004747 -0.001576 -0.005808
v -0.004119 -0.000163 -0.006460
v -0.004685 0.000325 -0.006468
v -0.005797 0.003356 -0.003990
v -0.005617 0.002766 -0.005153
v -0.005675 0.002325 -0.005434
v -0.005470 0.001675 -0.006329
v -0.003893 -0.001069 -0.006181
v -0.006271 0.002782 -0.003890
v -0.003583 -0.000512 -0.006210
v -0.005759 0.003121 -0.004500
v -0.005610 0.002000 -0.005603
v -0.004472 -0.000500 -0.006161
v -0.005626 0.001582 -0.005185
v -0.005837 0.002668 -0.004764
v -0.005213 0.000179 -0.005716
v -0.005515 0.000709 -0.005143
vn 0.9285 -0.3706 0.0219
vn 0.8643 -0.1427 0.4824
vn 0.8703 -0.3931 0.2966
vn 0.8105 -0.5836 -0.0497
vn 0.9809 -0.0882 0.1735
vn 0.8098 0.1484 0.5676
vn 0.9345 -0.3115 -0.1723
vn 0.6528 -0.7312 -0.1981
vn 0.9279 0.1769 0.3281
vn 0.7079 0.4151 0.5715
vn 0.6831 0.1932 0.7043
vn 0.5996 -0.7856 0.1527
vn 0.5495 -0.8144 -0.1865
vn 0.6884 -0.7002 -0.1892
vn 0.9875 -0.1044 -0.1179
vn 0.4904 -0.8423 -0.2238
vn 0.6295 -0.2069 0.7489
vn 0.5269 0.3303 0.7831
vn 0.5276 -0.7239 0.4445
vn 0.9751 0.1689 0.1439
vn 0.8480 -0.4632 -0.2575
vn 0.9301 -0.1737 -0.3236
vn 0.7682 0.4000 0.4999
vn 0.5203 0.0149 0.8539
vn 0.6929 -0.4604 0.5549
vn 0.5610 0.6154 0.5537
vn 0.3947 0.6106 0.6866
vn 0.2359 -0.9511 0.1996
vn 0.3419 -0.9397 -0.0005
vn 0.4208 -0.9063 -0.0390
vn 0.6974 -0.6198 -0.3598
vn 0.5631 -0.7738 -0.2900
vn 0.9663 0.1004 -0.2371
vn 0.1334 -0.9870 -0.0901
vn 0.2662 -0.9447 -0.1916
vn 0.7899 0.3966 0.4678
vn 0.5972 0.5749 0.5593
vn 0.2991 -0.6141 0.7304
vn 0.2933 -0.2842 0.9128
vn 0.3500 0.4517 0.8207
vn 0.4151 0.0909 0.9052
vn 0.3120 -0.9174 0.2471
vn -0.0611 -0.9376 0.3423
vn 0.6965 -0.4147 -0.5856
vn 0.8124 -0.2787 -0.5122
vn 0.8756 -0.1128 -0.4697
vn 0.3843 -0.9104 -0.1530
vn 0.5055 0.7019 0.5018
vn 0.3445 -0.1987 0.9175
vn 0.3272 -0.1957 0.9245
vn 0.2635 -0.0167 0.9645
vn 0.3116 0.2501 0.9167
vn 0.4089 0.7847 0.4659
vn 0.9131 0.3729 0.1652
vn 0.7061 -0.3275 -0.6278
vn 0.3367 -0.9323 0.1321
vn -0.2174 -0.9672 -0.1315
vn -0.1401 -0.9889 -0.0491
vn 0.0984 -0.9947 0.0302
vn 0.7329 -0.4366 -0.5218
vn 0.5094 -0.7263 -0.4616
vn 0.6801 0.5984 0.4235
vn 0.3055 0.8761 0.3730
vn 0.0212 -0.8682 0.4957
vn 0.0373 -0.7322 0.6800
vn 0.3782 -0.3965 0.8365
vn 0.3535 -0.5269 0.7729
vn 0.0503 -0.0260 0.9984
vn -0.1094 -0.3866 0.9157
vn 0.0231 0.3089 0.9508
vn 0.1242 0.8040 0.5815
vn 0.2333 -0.8767 0.4206
vn 0.8989 0.2019 -0.3888
vn 0.8980 0.4108 -0.1579
vn 0.7306 0.6774 0.0859
vn 0.6260 -0.1476 -0.7657
vn 0.7513 -0.1443 -0.6440
vn -0.4087 -0.9126 -0.0131
vn -0.4443 -0.8887 0.1134
vn -0.1973 -0.9607 0.1954
vn 0.0919 -0.9936 -0.0659
vn 0.3831 -0.9068 -0.1759
vn 0.2265 0.9059 0.3579
vn 0.2021 0.8813 0.4273
vn 0.4416 0.7980 0.4101
vn -0.0857 -0.8735 0.4793
vn 0.0987 -0.7758 0.6232
vn 0.2354 -0.5199 0.8212
vn 0.0366 0.0866 0.9956
vn -0.0673 0.6537 0.7538
vn 0.3691 -0.9141 0.1680
vn 0.1039 -0.8481 0.5196
vn 0.6908 0.6637 -0.2868
vn 0.7565 -0.1718 -0.6310
vn 0.6714 -0.0301 -0.7405
vn 0.6788 -0.1115 -0.7258
vn 0.0188 -0.9939 -0.1087
vn -0.5561 -0.8198 0.1368
vn 0.0152 -0.9998 0.0107
vn 0.2720 -0.8774 -0.3952
vn -0.4093 -0.8596 0.3059
vn 0.6835 -0.3522 -0.6394
vn 0.2039 0.8115 0.5476
vn 0.2701 0.9080 0.3203
vn -0.0529 -0.8595 0.5084
vn -0.1263 -0.7139 0.6888
vn -0.2488 -0.2128 0.9449
vn -0.1594 0.4801 0.8626
vn -0.2022 0.8561 0.4756
vn 0.0042 0.9133 0.4073
vn 0.4567 0.8675 0.1972
vn 0.7765 0.2727 -0.5681
vn 0.6773 -0.0746 -0.7319
vn 0.4308 -0.1282 -0.8933
vn -0.6016 -0.7850 0.1479
vn 0.1837 -0.8397 -0.5110
vn -0.6820 -0.7256 0.0914
vn -0.7479 -0.6202 0.2366
vn 0.2884 0.9052 0.3121
vn -0.0820 -0.8647 0.4955
vn -0.4163 -0.8145 0.4041
vn -0.4760 -0.7474 0.4634
vn -0.5028 -0.6519 0.5677
vn -0.3822 0.0620 0.9220
vn -0.5238 0.3170 0.7906
vn -0.5023 0.6016 0.6212
vn -0.1507 -0.9250 0.3487
vn 0.5386 0.8347 -0.1149
vn 0.8222 0.5605 -0.0990
vn 0.6233 0.7001 -0.3484
vn 0.8289 0.2601 -0.4952
vn 0.5408 -0.1757 -0.8226
vn 0.5342 0.0235 -0.8450
vn 0.5992 -0.1850 -0.7789
vn -0.4394 -0.8104 0.3876
vn -0.0958 -0.9718 0.2156
vn 0.1530 -0.9081 -0.3898
vn 0.2337 -0.6682 -0.7063
vn 0.2089 -0.6620 -0.7198
vn -0.6865 -0.5743 0.4459
vn -0.5083 -0.7111 0.4857
vn -0.3411 -0.8311 0.4392
vn 0.4824 -0.3737 -0.7922
vn 0.3678 0.9299 -0.0066
vn 0.3092 0.8521 0.4223
vn -0.5959 -0.2320 0.7688
vn -0.6300 0.6696 0.3934
vn -0.7697 0.3715 0.5191
vn -0.8126 0.4325 0.3907
vn -0.5582 0.7166 0.4182
vn 0.8081 0.5890 0.0052
vn 0.4952 0.2458 -0.8333
vn 0.4116 -0.0962 -0.9063
vn 0.7241 0.0538 -0.6876
vn 0.4149 0.0012 -0.9099
vn -0.6980 -0.6186 0.3609
vn -0.3256 -0.9252 0.1951
vn -0.2208 -0.9733 0.0622
vn 0.1591 -0.6333 -0.7573
vn 0.2342 -0.6556 -0.7178
vn -0.9098 -0.3935 0.1320
vn -0.7771 -0.2397 0.5819
vn -0.4730 -0.7646 0.4378
vn 0.1254 -0.6527 -0.7471
vn 0.2096 0.9582 0.1946
vn 0.0189 0.9165 0.3996
vn -0.3257 0.7895 0.5202
vn -0.8391 -0.1379 0.5261
vn -0.7767 0.1298 0.6163
vn -0.8075 0.5316 0.2555
vn -0.9051 0.4142 0.0959
vn 0.6326 0.7653 -0.1188
vn 0.8133 0.4987 -0.2996
vn 0.4523 0.3448 -0.8225
vn 0.4210 0.2507 -0.8717
vn 0.3276 -0.4253 -0.8437
vn 0.0702 -0.1461 -0.9868
vn 0.1313 0.1177 -0.9843
vn 0.4041 0.2479 -0.8805
vn -0.9540 -0.1098 0.2791
vn -0.8595 -0.5037 0.0875
vn -0.2478 -0.9375 -0.2445
vn 0.0563 -0.9117 -0.4071
vn -0.8822 -0.1371 0.4505
vn -0.5728 -0.5807 0.5785
vn -0.7750 -0.4554 0.4381
vn 0.1635 -0.6461 -0.7455
vn 0.2074 0.9643 -0.1646
vn 0.2629 0.9322 -0.2487
vn 0.2729 0.9494 -0.1554
vn -0.3893 0.8353 0.3882
vn -0.1074 0.9684 0.2253
vn -0.9464 0.1546 0.2836
vn -0.9885 -0.1446 -0.0453
vn -0.7618 0.4797 0.4353
vn 0.7326 0.6677 0.1322
vn 0.2528 -0.0287 -0.9671
vn 0.1877 0.5852 -0.7889
vn 0.2700 0.4610 -0.8453
vn 0.3801 0.6887 -0.6174
vn -0.0639 0.3871 -0.9198
vn -0.1154 -0.8777 -0.4651
vn 0.0866 -0.7235 -0.6849
vn -0.8779 0.0620 0.4749
vn -0.9639 0.0522 0.2612
vn -0.8723 -0.0349 0.4878
vn -0.6746 -0.6965 0.2448
vn -0.9331 -0.3453 0.1002
vn 0.3113 0.9422 -0.1240
vn 0.0949 0.9215 -0.3766
vn -0.2023 0.9710 0.1276
vn -0.6544 0.6179 0.4358
vn -0.8926 0.1158 0.4358
vn -0.9362 0.0965 0.3380
vn -0.9502 0.2491 0.1872
vn -0.8048 0.3639 0.4690
vn 0.5306 0.8071 -0.2591
vn 0.3475 0.9251 -0.1529
vn 0.2771 0.6403 -0.7164
vn -0.1148 -0.4806 -0.8694
vn 0.0175 0.4033 -0.9149
vn 0.1055 -0.0032 -0.9944
vn 0.0022 0.6741 -0.7386
vn 0.0285 -0.7183 -0.6951
vn -0.2754 0.8655 -0.4185
vn 0.3164 0.5889 -0.7437
vn -0.0935 0.5835 -0.8067
vn -0.4483 -0.8929 -0.0417
vn -0.3335 -0.7234 -0.6045
vn -0.0739 -0.7229 -0.6870
vn -0.0070 -0.5941 -0.8043
vn -0.8508 0.2368 0.4692
vn -0.8278 0.2084 0.5208
vn -0.8838 -0.0930 0.4586
vn -0.8266 -0.0021 0.5628
vn -0.9617 -0.1760 0.2101
vn -0.8771 -0.4562 -0.1501
vn 0.1694 0.8134 -0.5564
vn 0.0120 0.9649 -0.2623
vn -0.5698 0.7882 0.2326
vn 0.0388 0.9355 -0.3512
vn -0.2458 0.7318 -0.6356
vn -0.2969 -0.4995 -0.8139
vn -0.1281 0.9835 -0.1275
vn -0.6176 -0.7502 -0.2362
vn -0.1824 -0.5400 -0.8217
vn -0.7577 0.3112 0.5737
vn -0.9451 -0.1122 0.3069
vn -0.9771 -0.1598 0.1404
vn -0.9049 -0.1189 -0.4087
vn 0.2644 0.7908 -0.5521
vn -0.2411 0.8566 -0.4562
vn -0.4568 0.8622 -0.2192
vn -0.3976 0.9118 -0.1030
vn -0.7058 0.6471 0.2883
vn -0.6119 0.7817 0.1209
vn -0.7546 0.5311 0.3853
vn -0.0782 0.8326 -0.5483
vn -0.2629 0.7692 -0.5824
vn -0.3415 -0.4379 -0.8317
vn -0.1659 0.0621 -0.9842
vn -0.6007 -0.2326 -0.7649
vn -0.4225 0.3977 -0.8144
vn -0.2550 0.7259 -0.6389
vn -0.4063 0.7252 -0.5559
vn -0.6206 -0.4833 -0.6174
vn -0.3500 -0.4098 -0.8423
vn -0.6717 0.5771 0.4645
vn -0.9880 0.0068 -0.1542
vn -0.8991 0.2885 0.3291
vn -0.7267 -0.2518 -0.6392
vn -0.7112 -0.3787 -0.5922
vn -0.5144 -0.4928 -0.7018
vn -0.6938 -0.6617 -0.2841
vn -0.7473 -0.4484 -0.4905
vn -0.8024 -0.1957 -0.5638
vn -0.7646 0.3490 -0.5418
vn -0.4648 0.7744 -0.4293
vn -0.4973 0.8656 -0.0582
vn -0.7379 0.5224 -0.4273
vn -0.6083 -0.1967 -0.7690
vn -0.6652 0.6811 0.3059
vn -0.6579 0.6766 0.3308
vn -0.9119 -0.0108 -0.4104
vn -0.4951 -0.2765 -0.8237
vn -0.4713 -0.6134 -0.6337
vn -0.6618 -0.5021 -0.5568
vn -0.9412 -0.0629 -0.3321
vn -0.6334 0.7712 -0.0644
vn -0.6588 0.5636 -0.4983
vn -0.8964 0.2100 -0.3902
vn -0.3127 -0.1229 -0.9419
vn -0.8998 0.4103 -0.1482
vn -0.5106 -0.4524 -0.7312
vn -0.6070 0.5602 -0.5636
vn -0.9673 -0.0008 -0.2538
vn -0.4754 -0.2867 -0.8317
vn -0.9303 -0.0921 -0.3551
vn -0.8599 0.2781 -0.4280
vn -0.7778 -0.1508 -0.6102
vn -0.8330 -0.0057 -0.5532
s 1
f 1//1 2//2 3//3
f 1//1 3//3 4//4
f 1//1 5//5 2//2
f 2//2 5//5 6//6
f 1//1 7//7 5//5
f 8//8 1//1 4//4
f 6//6 5//5 9//9
f 10//10 11//11 6//6
f 4//4 3//3 12//12
f 12//12 13//13 4//4
f 7//7 1//1 14//14
f 7//7 15//15 5//5
f 14//14 1//1 8//8
f 4//4 13//13 8//8
f 16//16 14//14 8//8
f 6//6 9//9 10//10
f 17//17 6//6 11//11
f 6//6 17//17 2//2
f 11//11 10//10 18//18
f 3//3 2//2 19//19
f 12//12 3//3 19//19
f 20//20 9//9 5//5
f 15//15 20//20 5//5
f 14//14 21//21 7//7
f 15//15 21//21 22//22
f 15//15 7//7 21//21
f 23//23 10//10 9//9
f 17//17 11//11 24//24
f 17//17 25//25 2//2
f 27//26 18//18 10//10
f 26//27 18//18 27//26
f 18//18 24//24 11//11
f 13//13 12//12 28//28
f 2//2 25//25 19//19
f 12//12 19//19 28//28
f 13//13 28//28 29//29
f 8//8 13//13 29//29
f 8//8 30//30 16//16
f 8//8 29//29 30//30
f 31//31 21//21 14//14
f 31//31 14//14 32//32
f 20//20 15//15 33//33
f 33//33 15//15 22//22
f 16//16 45//34 34//35
f 30//30 45//34 16//16
f 14//14 16//16 34//35
f 14//14 34//35 32//32
f 9//9 35//36 23//23
f 36//37 10//10 23//23
f 23//23 35//36 36//37
f 25//25 17//17 48//38
f 24//24 37//39 17//17
f 26//27 39//40 18//18
f 10//10 36//37 27//26
f 24//24 18//18 38//41
f 40//42 29//29 41//43
f 29//29 28//28 41//43
f 9//9 20//20 35//36
f 31//31 32//32 42//44
f 43//45 21//21 31//31
f 21//21 43//45 22//22
f 33//33 22//22 44//46
f 44//46 22//22 43//45
f 46//47 32//32 34//35
f 47//48 27//26 36//37
f 25//25 48//38 19//19
f 17//17 37//39 48//38
f 49//49 37//39 24//24
f 49//49 24//24 38//41
f 38//41 50//50 49//49
f 38//41 51//51 50//50
f 38//41 18//18 51//51
f 51//51 18//18 52//52
f 52//52 18//18 39//40
f 53//53 26//27 27//26
f 30//30 29//29 45//34
f 35//36 20//20 54//54
f 20//20 33//33 54//54
f 43//45 31//31 75//55
f 42//44 75//55 31//31
f 45//34 29//29 55//56
f 45//34 55//56 56//57
f 34//35 58//58 57//59
f 34//35 45//34 58//58
f 46//47 34//35 57//59
f 59//60 42//44 32//32
f 32//32 60//61 59//60
f 60//61 32//32 46//47
f 36//37 35//36 61//62
f 47//48 36//37 61//62
f 27//26 47//48 53//53
f 53//53 47//48 62//63
f 64//64 19//19 48//38
f 28//28 19//19 64//64
f 63//65 48//38 37//39
f 63//65 64//64 48//38
f 49//49 50//50 66//66
f 65//67 49//49 66//66
f 63//65 37//39 49//49
f 65//67 63//65 49//49
f 67//68 68//69 51//51
f 52//52 67//68 51//51
f 52//52 39//40 69//70
f 26//27 53//53 91//71
f 55//56 29//29 40//42
f 71//72 40//42 41//43
f 55//56 40//42 71//72
f 61//62 35//36 54//54
f 72//73 54//54 33//33
f 72//73 73//74 54//54
f 54//54 73//74 74//75
f 61//62 54//54 74//75
f 72//73 33//33 44//46
f 75//55 42//44 76//76
f 43//45 77//77 44//46
f 77//77 43//45 75//55
f 79//78 56//57 78//79
f 56//57 79//78 58//58
f 58//58 45//34 56//57
f 58//58 80//80 57//59
f 81//81 57//59 80//80
f 60//61 46//47 57//59
f 60//61 57//59 82//82
f 70//83 53//53 62//63
f 62//63 83//84 70//83
f 47//48 61//62 84//85
f 62//63 47//48 84//85
f 85//86 65//67 87//87
f 87//87 65//67 66//66
f 64//64 41//43 28//28
f 66//66 50//50 86//88
f 87//87 66//66 86//88
f 50//50 51//51 68//69
f 89//89 67//68 52//52
f 69//70 89//89 52//52
f 26//27 90//90 39//40
f 26//27 91//71 90//90
f 53//53 70//83 91//71
f 71//72 92//91 55//56
f 92//91 71//72 108//92
f 77//77 72//73 44//46
f 93//93 74//75 73//74
f 93//93 73//74 72//73
f 75//55 76//76 77//77
f 76//76 42//44 94//94
f 59//60 94//94 42//44
f 94//94 95//95 76//76
f 72//73 77//77 113//96
f 55//56 96//97 56//57
f 56//57 96//97 78//79
f 97//98 79//78 78//79
f 80//80 58//58 79//78
f 80//80 98//99 81//81
f 82//82 57//59 81//81
f 115//100 82//82 81//81
f 99//101 79//78 97//98
f 79//78 99//101 80//80
f 59//60 60//61 100//102
f 59//60 100//102 94//94
f 84//85 83//84 62//63
f 84//85 101//103 83//84
f 70//83 83//84 102//104
f 85//86 63//65 65//67
f 85//86 87//87 103//105
f 88//106 87//87 86//88
f 88//106 50//50 68//69
f 86//88 50//50 88//106
f 104//107 68//69 67//68
f 104//107 67//68 89//89
f 105//108 39//40 90//90
f 69//70 39//40 105//108
f 106//109 91//71 70//83
f 90//90 91//71 106//109
f 70//83 102//104 107//110
f 107//110 106//109 70//83
f 96//97 55//56 92//91
f 108//92 71//72 103//105
f 103//105 71//72 41//43
f 41//43 64//64 63//65
f 74//75 84//85 61//62
f 109//111 84//85 74//75
f 110//112 93//93 72//73
f 95//95 94//94 111//113
f 95//95 112//114 76//76
f 112//114 113//96 76//76
f 76//76 113//96 77//77
f 72//73 113//96 110//112
f 114//115 97//98 78//79
f 80//80 99//101 98//99
f 81//81 116//116 115//100
f 97//98 118//117 117//118
f 99//101 97//98 117//118
f 60//61 82//82 115//100
f 101//103 84//85 109//111
f 119//119 83//84 101//103
f 109//111 119//119 101//103
f 102//104 83//84 119//119
f 41//43 63//65 103//105
f 85//86 103//105 63//65
f 103//105 87//87 120//120
f 120//120 87//87 88//106
f 120//120 88//106 121//121
f 88//106 68//69 122//122
f 68//69 104//107 123//123
f 122//122 68//69 123//123
f 122//122 121//121 88//106
f 104//107 89//89 125//124
f 69//70 105//108 124//125
f 89//89 69//70 125//124
f 124//125 125//124 69//70
f 105//108 90//90 126//126
f 126//126 90//90 106//109
f 108//92 103//105 120//120
f 127//127 92//91 108//92
f 96//97 92//91 127//127
f 127//127 78//79 96//97
f 74//75 93//93 109//111
f 143//128 109//111 93//93
f 110//112 128//129 129//130
f 129//130 93//93 110//112
f 128//129 110//112 130//131
f 132//132 95//95 111//113
f 131//133 95//95 132//132
f 111//113 94//94 100//102
f 131//133 112//114 95//95
f 133//134 113//96 112//114
f 114//115 118//117 97//98
f 114//115 78//79 145//135
f 134//136 98//99 99//101
f 81//81 98//99 137//137
f 60//61 115//100 135//138
f 116//116 135//138 115//100
f 136//139 135//138 116//116
f 81//81 137//137 136//139
f 136//139 116//116 81//81
f 99//101 117//118 138//140
f 138//140 139//141 99//101
f 99//101 139//141 140//142
f 134//136 99//101 140//142
f 100//102 60//61 141//143
f 141//143 60//61 135//138
f 142//144 119//119 109//111
f 109//111 143//128 142//144
f 144//145 107//110 102//104
f 144//145 102//104 119//119
f 121//121 145//135 120//120
f 146//146 123//123 104//107
f 146//146 104//107 125//124
f 145//135 121//121 122//122
f 126//126 124//125 105//108
f 106//109 148//147 126//126
f 147//148 126//126 149//149
f 149//149 126//126 148//147
f 107//110 150//150 106//109
f 148//147 106//109 150//150
f 108//92 120//120 145//135
f 127//127 108//92 145//135
f 127//127 145//135 78//79
f 143//128 93//93 129//130
f 129//130 128//129 151//151
f 130//131 110//112 133//134
f 153//152 132//132 154//153
f 153//152 131//133 132//132
f 111//113 100//102 141//143
f 152//154 133//134 112//114
f 112//114 155//155 152//154
f 113//96 133//134 110//112
f 114//115 145//135 122//122
f 122//122 123//123 114//115
f 156//156 118//117 114//115
f 123//123 156//156 114//115
f 157//157 158//158 134//136
f 140//142 157//157 134//136
f 136//139 159//159 135//138
f 201//160 136//139 137//137
f 160//161 117//118 118//117
f 139//141 138//140 161//162
f 162//163 140//142 139//141
f 141//143 135//138 163//164
f 144//145 119//119 164//165
f 119//119 142//144 164//165
f 144//145 166//166 167//167
f 167//167 107//110 144//145
f 123//123 146//146 156//156
f 146//146 168//168 156//156
f 169//169 125//124 124//125
f 169//169 146//146 125//124
f 124//125 126//126 147//148
f 169//169 124//125 147//148
f 148//147 170//170 171//171
f 171//171 149//149 148//147
f 107//110 167//167 150//150
f 170//170 148//147 150//150
f 143//128 129//130 165//172
f 165//172 129//130 151//151
f 130//131 133//134 152//154
f 172//173 128//129 130//131
f 152//154 172//173 130//131
f 153//152 173//174 131//133
f 111//113 141//143 132//132
f 174//175 153//152 154//153
f 132//132 175//176 154//153
f 176//177 155//155 112//114
f 177//178 112//114 131//133
f 178//179 177//178 131//133
f 173//174 178//179 131//133
f 179//180 180//181 156//156
f 118//117 156//156 180//181
f 181//182 158//158 157//157
f 134//136 158//158 182//183
f 134//136 182//183 98//99
f 98//99 201//160 137//137
f 182//183 201//160 98//99
f 159//159 163//164 135//138
f 117//118 160//161 183//184
f 117//118 183//184 138//140
f 161//162 138//140 183//184
f 139//141 184//185 162//163
f 185//186 162//163 184//185
f 163//164 186//187 141//143
f 142//144 187//188 164//165
f 164//165 166//166 144//145
f 164//165 187//188 188//189
f 209//190 164//165 188//189
f 142//144 143//128 165//172
f 189//191 167//167 166//166
f 189//191 166//166 190//192
f 164//165 190//192 166//166
f 168//168 146//146 169//169
f 191//193 169//169 147//148
f 147//148 149//149 191//193
f 149//149 192//194 191//193
f 150//150 193//195 170//170
f 128//129 194//196 151//151
f 194//196 128//129 172//173
f 141//143 186//187 132//132
f 154//153 195//197 174//175
f 153//152 196//198 173//174
f 196//198 153//152 197//199
f 174//175 197//199 153//152
f 198//200 152//154 155//155
f 155//155 176//177 199//201
f 199//201 198//200 155//155
f 176//177 112//114 177//178
f 172//173 152//154 198//200
f 118//117 180//181 160//161
f 156//156 168//168 179//180
f 157//157 140//142 162//163
f 158//158 200//202 182//183
f 158//158 181//182 200//202
f 159//159 202//203 163//164
f 136//139 201//160 159//159
f 201//160 202//203 159//159
f 183//184 160//161 203//204
f 203//204 160//161 204//205
f 203//204 161//162 183//184
f 184//185 139//141 161//162
f 205//206 161//162 203//204
f 185//186 206//207 162//163
f 157//157 162//163 206//207
f 236//208 206//207 185//186
f 187//188 142//144 207//209
f 142//144 165//172 207//209
f 188//189 187//188 208//210
f 209//190 190//192 164//165
f 210//211 190//192 209//190
f 167//167 189//191 211//212
f 193//195 167//167 211//212
f 150//150 167//167 193//195
f 168//168 169//169 212//213
f 212//213 169//169 191//193
f 212//213 191//193 213//214
f 171//171 192//194 149//149
f 171//171 170//170 214//215
f 193//195 211//212 215//216
f 165//172 151//151 194//196
f 194//196 172//173 217//217
f 194//196 217//217 216//218
f 217//217 172//173 198//200
f 173//174 218//219 178//179
f 196//198 218//219 173//174
f 175//176 132//132 186//187
f 175//176 219//220 154//153
f 154//153 219//220 195//197
f 197//199 174//175 220//221
f 221//222 220//221 174//175
f 174//175 195//197 221//222
f 222//223 196//198 197//199
f 175//176 186//187 223//224
f 198//200 199//201 224//225
f 226//226 225//227 177//178
f 226//226 177//178 178//179
f 218//219 226//226 178//179
f 160//161 180//181 204//205
f 212//213 179//180 168//168
f 227//228 157//157 206//207
f 157//157 227//228 181//182
f 228//229 181//182 227//228
f 200//202 229//230 182//183
f 181//182 229//230 200//202
f 229//230 181//182 228//229
f 229//230 201//160 182//183
f 202//203 201//160 229//230
f 202//203 186//187 163//164
f 186//187 202//203 223//224
f 230//231 223//224 202//203
f 230//231 202//203 229//230
f 231//232 203//204 204//205
f 204//205 214//215 231//232
f 231//232 232//233 203//204
f 161//162 185//186 184//185
f 232//233 205//206 203//204
f 233//234 161//162 205//206
f 232//233 234//235 205//206
f 235//236 236//208 185//186
f 206//207 236//208 237//237
f 187//188 207//209 208//210
f 188//189 208//210 238//238
f 209//190 188//189 238//238
f 210//211 209//190 239//239
f 190//192 210//211 240//240
f 190//192 240//240 189//191
f 240//240 211//212 189//191
f 179//180 212//213 213//214
f 179//180 213//214 204//205
f 204//205 213//214 191//193
f 170//170 231//232 214//215
f 193//195 231//232 170//170
f 214//215 192//194 171//171
f 215//216 231//232 193//195
f 165//172 216//218 207//209
f 194//196 216//218 165//172
f 242//241 216//218 217//217
f 223//224 219//220 175//176
f 197//199 220//221 244//242
f 222//223 197//199 244//242
f 245//243 219//220 223//224
f 177//178 199//201 176//177
f 246//244 198//200 224//225
f 225//227 199//201 177//178
f 238//238 225//227 226//226
f 204//205 180//181 179//180
f 206//207 247//245 227//228
f 230//231 229//230 248//246
f 245//243 223//224 230//231
f 231//232 215//216 232//233
f 161//162 233//234 185//186
f 185//186 233//234 235//236
f 232//233 249//247 234//235
f 250//248 205//206 234//235
f 233//234 205//206 235//236
f 205//206 251//249 235//236
f 205//206 250//248 251//249
f 236//208 235//236 252//250
f 238//238 208//210 242//241
f 253//251 209//190 238//238
f 209//190 253//251 239//239
f 242//241 254//252 238//238
f 216//218 208//210 207//209
f 256//253 210//211 255//254
f 257//255 240//240 258//256
f 240//240 210//211 258//256
f 239//239 255//254 210//211
f 241//257 211//212 240//240
f 215//216 211//212 241//257
f 192//194 214//215 191//193
f 204//205 191//193 214//215
f 216//218 242//241 208//210
f 246//244 242//241 217//217
f 246//244 217//217 198//200
f 253//251 226//226 218//219
f 253//251 218//219 259//258
f 196//198 259//258 218//219
f 260//259 196//198 222//223
f 260//259 259//258 196//198
f 195//197 261//260 221//222
f 219//220 261//260 195//197
f 243//261 220//221 221//222
f 262//262 220//221 243//261
f 244//242 220//221 263//263
f 263//263 220//221 262//262
f 264//264 260//259 222//223
f 265//265 264//264 222//223
f 265//265 222//223 244//242
f 224//225 254//252 246//244
f 225//227 224//225 199//201
f 254//252 224//225 225//227
f 242//241 246//244 254//252
f 254//252 225//227 238//238
f 253//251 238//238 226//226
f 237//237 247//245 206//207
f 228//229 227//228 247//245
f 266//266 228//229 247//245
f 266//266 248//246 228//229
f 248//246 229//230 228//229
f 267//267 245//243 230//231
f 230//231 248//246 267//267
f 232//233 215//216 241//257
f 268//268 249//247 232//233
f 268//268 232//233 241//257
f 251//249 250//248 269//269
f 249//247 270//270 234//235
f 249//247 268//268 270//270
f 270//270 250//248 234//235
f 235//236 251//249 252//250
f 271//271 272//272 237//237
f 237//237 236//208 271//271
f 252//250 271//271 236//208
f 266//266 247//245 237//237
f 272//272 266//266 237//237
f 253//251 259//258 239//239
f 239//239 259//258 255//254
f 258//256 210//211 256//253
f 256//253 255//254 259//258
f 241//257 240//240 257//255
f 256//253 259//258 260//259
f 273//273 221//222 261//260
f 273//273 261//260 274//274
f 275//275 219//220 245//243
f 219//220 275//275 261//260
f 275//275 274//274 261//260
f 273//273 243//261 221//222
f 273//273 262//262 243//261
f 276//276 263//263 262//262
f 277//277 244//242 263//263
f 277//277 263//263 276//276
f 264//264 278//278 260//259
f 256//253 260//259 279//279
f 260//259 278//278 279//279
f 265//265 278//278 264//264
f 244//242 280//280 265//265
f 280//280 244//242 277//277
f 248//246 266//266 272//272
f 272//272 267//267 248//246
f 245//243 267//267 281//281
f 282//282 268//268 241//257
f 283//283 268//268 282//282
f 269//269 250//248 270//270
f 269//269 284//284 251//249
f 283//283 270//270 268//268
f 284//284 252//250 251//249
f 271//271 285//285 272//272
f 279//279 258//256 256//253
f 257//255 282//282 241//257
f 286//286 273//273 274//274
f 286//286 262//262 273//273
f 262//262 286//286 287//287
f 262//262 287//287 276//276
f 276//276 291//288 277//277
f 278//278 288//289 279//279
f 265//265 289//290 278//278
f 289//290 265//265 290//291
f 291//288 280//280 277//277
f 281//281 275//275 245//243
f 272//272 285//285 267//267
f 285//285 292//292 267//267
f 292//292 281//281 267//267
f 282//282 288//289 283//283
f 283//283 293//293 270//270
f 288//289 293//293 283//283
f 269//269 270//270 293//293
f 258//256 279//279 257//255
f 275//275 294//294 274//274
f 286//286 274//274 294//294
f 281//281 294//294 275//275
f 287//287 291//288 276//276
f 288//289 278//278 295//295
f 282//282 257//255 279//279
f 282//282 279//279 288//289
f 290//291 265//265 280//280
f 290//291 280//280 296//296
f 280//280 291//288 296//296
f 297//297 292//292 285//285
f 284//284 269//269 298//298
f 269//269 299//299 298//298
f 269//269 293//293 299//299
f 300//300 252//250 284//284
f 252//250 300//300 271//271
f 300//300 285//285 271//271
f 281//281 292//292 294//294
f 287//287 286//286 297//297
f 291//288 287//287 300//300
f 300//300 298//298 291//288
f 299//299 278//278 289//290
f 295//295 278//278 299//299
f 299//299 289//290 290//291
f 300//300 297//297 285//285
f 293//293 288//289 295//295
f 298//298 301//301 284//284
f 290//291 298//298 299//299
f 293//293 295//295 299//299
f 284//284 301//301 300//300
f 292//292 297//297 286//286
f 292//292 286//286 294//294
f 300//300 287//287 297//297
f 301//301 298//298 300//300
f 298//298 290//291 296//296
f 296//296 291//288 298//298
