# Blender 4.0.2
# www.blender.org
mtllib 2distph_l.mtl
o 2distph_l.002
v 0.002996 -0.017166 -0.002206
v 0.002879 -0.017516 -0.001983
v 0.002471 -0.017454 -0.002161
v 0.003357 -0.017105 -0.001995
v 0.002674 -0.016600 -0.002441
v 0.003416 -0.016278 -0.002345
v 0.003090 -0.017520 -0.001719
v 0.002341 -0.017719 -0.001844
v 0.002584 -0.017728 -0.001423
v 0.003545 -0.017136 -0.001520
v 0.003238 -0.015736 -0.002456
v 0.003708 -0.016882 -0.001737
v 0.003909 -0.015900 -0.001978
v 0.001929 -0.017674 -0.001902
v 0.001399 -0.017202 -0.002212
v 0.001420 -0.016217 -0.002440
v 0.004201 -0.014866 -0.001519
v 0.003052 -0.017380 -0.001143
v 0.001539 -0.017616 -0.001733
v 0.001845 -0.017726 -0.001365
v 0.002358 -0.017490 -0.000873
v 0.000795 -0.016760 -0.002224
v 0.002839 -0.015265 -0.002340
v 0.003590 -0.014964 -0.002080
v 0.004041 -0.016224 -0.001325
v 0.004050 -0.014605 -0.001682
v 0.003428 -0.016806 -0.000794
v 0.002756 -0.017048 -0.000519
v 0.002106 -0.017192 -0.000572
v 0.004010 -0.015775 -0.000679
v 0.000647 -0.015941 -0.002316
v 0.002767 -0.014407 -0.002154
v 0.001455 -0.015063 -0.002360
v 0.004225 -0.014984 -0.000869
v 0.003634 -0.015692 -0.000196
v 0.000969 -0.017363 -0.001584
v 0.000883 -0.017115 -0.001008
v 0.001292 -0.017116 -0.000658
v 0.002905 -0.015500 0.000154
v 0.002019 -0.015679 0.000168
v 0.000962 -0.017296 -0.001899
v 0.000543 -0.016759 -0.002007
v 0.000066 -0.015892 -0.001930
v 0.001343 -0.013902 -0.002283
v 0.000184 -0.015288 -0.002043
v 0.000465 -0.013400 -0.001967
v 0.002763 -0.013654 -0.002094
v 0.001808 -0.013258 -0.002264
v 0.003943 -0.014097 -0.001600
v 0.003902 -0.014933 -0.000197
v 0.004046 -0.013439 -0.001244
v 0.004285 -0.013601 -0.000414
v 0.004239 -0.013888 -0.001030
v 0.003645 -0.014176 0.000226
v 0.001268 -0.016498 -0.000250
v -0.000031 -0.016126 -0.001649
v -0.000637 -0.013434 -0.000991
v 0.000241 -0.011966 -0.001840
v 0.004155 -0.012573 -0.000531
v 0.000182 -0.016523 -0.001506
v 0.000109 -0.016157 -0.000770
v 0.000511 -0.016129 -0.000400
v 0.000969 -0.014988 0.000237
v 0.002689 -0.013853 0.000538
v -0.000413 -0.014982 -0.001481
v 0.001010 -0.011358 -0.002119
v -0.000335 -0.012217 -0.001034
v 0.000452 -0.011333 -0.001974
v 0.002019 -0.012048 -0.002122
v 0.003398 -0.012751 -0.001423
v 0.002794 -0.010149 -0.001505
v 0.002321 -0.010674 -0.001851
v 0.004154 -0.012638 -0.000233
v 0.003403 -0.012389 0.000515
v -0.000204 -0.015914 -0.001245
v -0.000276 -0.014806 -0.000211
v 0.001820 -0.014164 0.000462
v -0.000802 -0.013674 -0.000601
v -0.000725 -0.012807 -0.000612
v -0.000406 -0.011734 -0.000449
v -0.000354 -0.011162 -0.001003
v -0.000429 -0.009649 -0.001277
v -0.000224 -0.009545 -0.001480
v 0.003100 -0.010931 -0.001306
v 0.003433 -0.011358 -0.000905
v 0.003887 -0.012723 0.000240
v 0.003727 -0.011690 -0.000473
v 0.002649 -0.011413 0.000628
v 0.002873 -0.011062 0.000546
v -0.000557 -0.014802 -0.000594
v -0.000692 -0.013381 -0.000142
v 0.000137 -0.013645 0.000314
v -0.000532 -0.014976 -0.001179
v 0.000056 -0.008630 -0.001683
v 0.000586 -0.008149 -0.001798
v -0.000726 -0.012669 -0.000376
v -0.000409 -0.011976 -0.000113
v -0.000645 -0.012600 -0.000110
v 0.003203 -0.009990 -0.000854
v 0.002557 -0.007957 -0.001338
v 0.001554 -0.007467 -0.001708
v 0.003869 -0.012080 0.000096
v 0.003594 -0.011470 -0.000054
v 0.003419 -0.010695 -0.000260
v 0.001815 -0.012760 0.000435
v 0.003343 -0.010821 0.000026
v 0.003106 -0.009779 0.000392
v -0.000811 -0.013352 -0.000353
v 0.000884 -0.012167 0.000528
v -0.000610 -0.007583 -0.001370
v -0.000864 -0.009369 -0.000332
v -0.000352 -0.011307 -0.000038
v 0.003266 -0.009769 -0.000118
v 0.003232 -0.008392 0.000329
v 0.003231 -0.008384 -0.000468
v 0.003077 -0.008227 -0.000862
v 0.002305 -0.010945 0.000785
v 0.002740 -0.009475 0.000858
v -0.000235 -0.012676 0.000236
v -0.000089 -0.006810 -0.001704
v -0.000965 -0.008760 -0.000648
v -0.001408 -0.007524 -0.000685
v -0.000439 -0.009542 0.000859
v -0.001087 -0.008721 0.000100
v -0.000150 -0.011322 0.000248
v -0.000104 -0.011900 0.000222
v 0.003397 -0.007625 -0.000102
v 0.003107 -0.008492 0.000726
v 0.002875 -0.007310 -0.001069
v 0.003271 -0.007213 -0.000547
v 0.001666 -0.005885 -0.001757
v 0.001259 -0.011078 0.000807
v 0.002153 -0.009554 0.001211
v 0.000173 -0.010920 0.000612
v 0.000370 -0.005692 -0.001898
v -0.002009 -0.006478 -0.000639
v -0.001238 -0.005723 -0.001449
v -0.001611 -0.007529 -0.000128
v 0.003408 -0.007156 0.000528
v 0.002923 -0.007793 0.001488
v 0.003201 -0.007594 0.001214
v 0.003443 -0.007094 0.001075
v 0.003164 -0.005811 -0.001060
v 0.003463 -0.006736 -0.000449
v 0.002292 -0.005210 -0.001646
v 0.000273 -0.009542 0.001202
v 0.001562 -0.008346 0.001716
v 0.001605 -0.004635 -0.002007
v -0.001842 -0.005854 -0.001130
v -0.001370 -0.007828 0.001073
v -0.000748 -0.008537 0.001274
v -0.001063 -0.008275 0.001054
v 0.003654 -0.006639 -0.000128
v 0.003433 -0.006382 0.001427
v 0.003817 -0.006375 0.001014
v 0.003481 -0.004701 -0.001264
v 0.002182 -0.003588 -0.002110
v 0.002952 -0.003895 -0.001697
v 0.001033 -0.007609 0.001854
v 0.002422 -0.007540 0.001819
v -0.000273 -0.008531 0.001507
v 0.000623 -0.003595 -0.002372
v -0.000818 -0.004648 -0.002044
v -0.002025 -0.007017 0.000064
v -0.002924 -0.006164 -0.000199
v -0.002608 -0.005927 -0.000808
v -0.001616 -0.004502 -0.002074
v 0.004165 -0.005314 -0.000461
v 0.003078 -0.005299 0.001841
v 0.004137 -0.005939 0.000152
v 0.003914 -0.004949 -0.000941
v 0.003623 -0.004092 -0.001134
v 0.000250 -0.007204 0.001821
v -0.001080 -0.007318 0.001549
v -0.000795 -0.003564 -0.002333
v 0.000412 -0.002754 -0.002280
v -0.001724 -0.007268 0.001080
v -0.002095 -0.006925 0.000802
v -0.002543 -0.006678 0.000367
v -0.003124 -0.005618 -0.000603
v -0.002637 -0.005549 -0.001111
v -0.002633 -0.005008 -0.001275
v -0.001915 -0.004226 -0.002006
v -0.002411 -0.004360 -0.001531
v 0.001985 -0.005900 0.002158
v 0.002031 -0.005201 0.002191
v 0.003922 -0.005642 0.001079
v 0.003332 -0.004809 0.001648
v 0.004289 -0.005405 0.000385
v 0.004339 -0.005106 0.000025
v 0.003579 -0.003535 -0.000903
v 0.002972 -0.003070 -0.001284
v 0.004075 -0.004395 -0.000634
v 0.001052 -0.003053 -0.002337
v 0.002722 -0.003392 -0.001844
v 0.002392 -0.003015 -0.001961
v 0.001653 -0.006871 0.001997
v 0.000090 -0.006280 0.002194
v -0.001440 -0.003598 -0.002229
v -0.002368 -0.006369 0.001176
v -0.003229 -0.005241 -0.000567
v -0.001921 -0.006998 0.001183
v -0.001776 -0.006663 0.001501
v 0.000128 -0.005619 0.002250
v 0.002245 -0.003992 0.001799
v 0.001218 -0.003126 0.001808
v 0.001208 -0.003931 0.001910
v 0.004152 -0.004679 0.000738
v 0.003618 -0.003379 -0.000538
v 0.003345 -0.003112 -0.000658
v 0.002668 -0.002951 -0.001665
v 0.004197 -0.004192 0.000211
v 0.001846 -0.002643 -0.001992
v 0.001209 -0.002595 -0.002150
v -0.000807 -0.002847 -0.002183
v -0.001355 -0.003020 -0.002055
v 0.000171 -0.002326 -0.002066
v -0.000824 -0.002505 -0.001886
v 0.000889 -0.002179 -0.001870
v -0.003138 -0.005849 0.000290
v -0.002991 -0.004643 -0.000964
v -0.003252 -0.004687 -0.000304
v -0.001850 -0.003306 -0.001928
v -0.002059 -0.003295 -0.001515
v -0.002772 -0.004103 -0.001033
v -0.001649 -0.005735 0.001818
v 0.000233 -0.004044 0.002147
v 0.000868 -0.004444 0.002117
v 0.003268 -0.003747 0.001265
v 0.001941 -0.003070 0.001597
v 0.003914 -0.003972 0.000825
v 0.002728 -0.002831 -0.000952
v 0.002006 -0.002437 -0.001719
v 0.002360 -0.002585 -0.001525
v -0.001332 -0.002759 -0.001858
v -0.000331 -0.002273 -0.001851
v 0.000367 -0.002128 -0.001868
v 0.001396 -0.002295 -0.001819
v -0.002348 -0.005520 0.001488
v -0.003237 -0.005333 0.000408
v -0.002961 -0.004025 -0.000450
v -0.002413 -0.003547 -0.000972
v -0.001244 -0.005106 0.001942
v -0.000971 -0.003545 0.001904
v 0.001255 -0.002822 0.001606
v 0.001726 -0.002834 0.001431
v 0.003445 -0.003431 0.000858
v 0.002214 -0.002980 0.001146
v 0.000060 -0.003016 0.001958
v 0.000754 -0.002846 0.001743
v 0.003573 -0.003297 0.000308
v 0.003076 -0.002930 -0.000445
v 0.002376 -0.002719 -0.000988
v 0.001676 -0.002314 -0.001610
v 0.002064 -0.002450 -0.001277
v -0.001557 -0.002860 -0.001472
v -0.000747 -0.002394 -0.001638
v -0.000023 -0.002171 -0.001661
v -0.000398 -0.002335 -0.001489
v 0.000785 -0.002104 -0.001597
v -0.002213 -0.004983 0.001580
v -0.002913 -0.004087 0.000368
v -0.001983 -0.003229 -0.001320
v -0.002477 -0.003574 -0.000295
v -0.000367 -0.003269 0.002024
v 0.000240 -0.002661 0.001662
v 0.000632 -0.002642 0.001492
v 0.002737 -0.003095 0.000887
v 0.001702 -0.002987 -0.000229
v 0.001403 -0.002282 -0.001504
v -0.000841 -0.002562 -0.001448
v 0.000431 -0.002219 -0.001425
v 0.001100 -0.002335 -0.001316
v -0.003115 -0.004810 0.000611
v -0.002171 -0.003692 0.001062
v -0.001617 -0.003186 -0.000946
v -0.001400 -0.003995 0.001781
v -0.001103 -0.003214 0.001795
v 0.000963 -0.002605 0.000946
v 0.001036 -0.002715 0.001318
v -0.000469 -0.002843 0.001751
v 0.000185 -0.002873 -0.000777
v 0.001451 -0.002958 0.000320
v 0.000873 -0.003040 0.000195
v 0.000197 -0.002550 -0.001196
v -0.002636 -0.004380 0.001057
v -0.001862 -0.003793 0.001442
v -0.002033 -0.003534 0.000793
v -0.000464 -0.003152 -0.000508
v -0.001368 -0.003283 0.001636
v 0.001077 -0.002609 0.000592
v -0.000998 -0.002971 0.001575
v -0.000067 -0.002633 0.001452
v 0.000764 -0.003082 -0.000068
v -0.001776 -0.003467 0.001256
v -0.000434 -0.003189 0.000183
v 0.000575 -0.002632 0.000817
v -0.000522 -0.002749 0.001396
v 0.000407 -0.003083 0.000206
v -0.001524 -0.003246 0.001319
v -0.001186 -0.003030 0.001224
vn 0.0638 -0.5754 -0.8154
vn 0.3308 -0.4395 -0.8351
vn 0.3464 -0.7770 -0.5257
vn 0.6263 -0.5255 -0.5758
vn 0.0701 -0.1871 -0.9798
vn 0.4865 -0.1935 -0.8520
vn 0.5283 -0.8388 -0.1318
vn 0.0766 -0.9373 -0.3399
vn 0.2357 -0.9571 0.1688
vn 0.7392 -0.6690 0.0777
vn 0.2819 0.1169 -0.9523
vn 0.8244 -0.4711 -0.3138
vn 0.8021 -0.0791 -0.5920
vn -0.1554 -0.8705 -0.4670
vn -0.2076 -0.5099 -0.8348
vn -0.1004 -0.0143 -0.9948
vn 0.9196 -0.0010 -0.3929
vn 0.4870 -0.7659 0.4197
vn -0.2054 -0.9520 0.2270
vn 0.0882 -0.8103 0.5793
vn -0.4110 -0.3510 -0.8414
vn 0.0733 0.2267 -0.9712
vn 0.4724 0.1983 -0.8588
vn 0.9353 -0.3507 0.0473
vn 0.7077 0.1420 -0.6921
vn -0.3686 -0.9070 -0.2038
vn 0.6315 -0.5522 0.5443
vn 0.2668 -0.5826 0.7677
vn -0.0429 -0.6189 0.7843
vn 0.8440 -0.3198 0.4305
vn -0.3464 -0.0485 -0.9368
vn -0.5278 -0.7340 -0.4274
vn 0.2291 0.1547 -0.9610
vn -0.0162 0.0287 -0.9995
vn 0.9766 -0.1220 0.1769
vn 0.5410 -0.3491 0.7651
vn -0.5393 -0.8382 0.0810
vn -0.5563 -0.7193 0.4160
vn -0.3492 -0.6620 0.6632
vn -0.0177 -0.3217 0.9467
vn 0.2064 -0.3036 0.9302
vn -0.7129 -0.1795 -0.6779
vn -0.6971 -0.4947 -0.5189
vn -0.1589 0.0700 -0.9848
vn -0.5596 0.0576 -0.8268
vn -0.5012 0.0741 -0.8621
vn 0.3644 0.1311 -0.9220
vn 0.0846 0.0661 -0.9942
vn 0.5559 0.2820 -0.7819
vn 0.7629 -0.1891 0.6183
vn 0.9652 0.0963 -0.2429
vn 0.7405 0.2670 -0.6167
vn 0.9610 -0.0218 0.2756
vn 0.5147 -0.1559 0.8430
vn -0.2484 -0.4705 0.8467
vn -0.8528 -0.3934 -0.3435
vn -0.8253 0.0979 -0.5562
vn -0.6149 -0.0339 -0.7879
vn 0.9328 0.3049 -0.1921
vn -0.7903 -0.6119 -0.0313
vn -0.7007 -0.5460 0.4592
vn -0.4606 -0.4668 0.7550
vn -0.2208 -0.2578 0.9406
vn 0.0804 -0.1084 0.9908
vn -0.8257 -0.0496 -0.5620
vn -0.1194 0.0526 -0.9914
vn -0.8580 0.1080 -0.5022
vn -0.3891 -0.0112 -0.9211
vn 0.1849 0.1087 -0.9767
vn 0.5840 0.2171 -0.7822
vn 0.6547 0.1355 -0.7436
vn 0.3964 0.1276 -0.9092
vn 0.9442 0.1943 0.2661
vn 0.3721 0.0509 0.9268
vn -0.9021 -0.4306 0.0284
vn -0.5944 -0.3273 0.7345
vn -0.0622 -0.1139 0.9915
vn -0.9931 -0.0801 -0.0856
vn -0.9370 0.1901 -0.2931
vn -0.9970 0.0697 -0.0329
vn -0.9184 -0.1104 -0.3800
vn -0.8145 -0.1094 -0.5697
vn -0.6312 -0.0354 -0.7748
vn 0.8196 0.1630 -0.5493
vn 0.8635 0.2555 -0.4348
vn 0.6896 0.0244 0.7237
vn 0.9096 0.4026 -0.1026
vn 0.1928 -0.0719 0.9786
vn 0.4528 0.1029 0.8856
vn -0.8953 -0.3151 0.3147
vn -0.7464 -0.1019 0.6577
vn -0.3258 -0.1428 0.9346
vn -0.9601 -0.2130 -0.1811
vn -0.3797 -0.0028 -0.9251
vn -0.0834 0.0553 -0.9950
vn -0.9746 0.2139 0.0658
vn -0.8460 0.1647 0.5071
vn -0.8773 0.2220 0.4256
vn 0.9606 0.1007 -0.2590
vn 0.5442 0.0706 -0.8359
vn 0.1836 0.0195 -0.9828
vn 0.8149 0.3324 0.4749
vn 0.8584 0.3609 0.3646
vn 0.9760 0.2107 0.0558
vn -0.0170 -0.0582 0.9982
vn 0.8443 0.1426 0.5166
vn 0.8577 -0.0624 0.5103
vn -0.9742 -0.0029 0.2256
vn -0.4658 0.0164 0.8847
vn -0.1609 -0.1260 0.9789
vn -0.5610 -0.1608 -0.8121
vn -0.9512 -0.3044 -0.0509
vn -0.8920 -0.1592 0.4231
vn 0.9942 0.0685 0.0833
vn 0.9813 -0.0712 0.1790
vn 0.9757 -0.0546 -0.2124
vn 0.8372 0.0169 -0.5466
vn 0.1744 -0.2013 0.9639
vn -0.0632 -0.2588 0.9639
vn 0.6407 -0.2222 0.7350
vn -0.5254 0.0295 0.8503
vn -0.2301 -0.0883 -0.9691
vn -0.8519 -0.2539 -0.4581
vn -0.7643 -0.3521 -0.5402
vn -0.6819 -0.4023 0.6108
vn -0.8912 -0.4271 0.1526
vn -0.6491 -0.2431 0.7208
vn 0.9805 -0.1725 -0.0939
vn 0.9109 -0.1945 0.3638
vn 0.6711 -0.0243 -0.7410
vn 0.8450 -0.1349 -0.5175
vn 0.2353 -0.1173 -0.9648
vn 0.3118 -0.3016 0.9010
vn -0.3703 -0.3307 0.8681
vn -0.0618 -0.1780 -0.9821
vn -0.5764 -0.5364 -0.6165
vn -0.2964 -0.3307 -0.8960
vn -0.8652 -0.4741 -0.1634
vn 0.9488 -0.3128 0.0437
vn 0.6190 -0.2830 0.7326
vn 0.8115 -0.2987 0.5023
vn 0.8964 -0.3254 0.3010
vn 0.5285 -0.2328 -0.8164
vn -0.2308 -0.3437 0.9103
vn 0.0256 -0.2676 0.9632
vn 0.1965 -0.2139 -0.9569
vn 0.3721 -0.1977 -0.9069
vn -0.3692 -0.4966 -0.7855
vn -0.7434 -0.4827 0.4630
vn -0.5743 -0.4009 0.7138
vn -0.5842 -0.3675 0.7236
vn 0.8914 -0.4019 -0.2095
vn 0.7929 -0.2684 -0.5471
vn 0.6429 -0.1825 0.7439
vn 0.8573 -0.3468 0.3804
vn 0.5139 -0.1414 -0.8461
vn 0.3086 -0.0576 -0.9494
vn 0.5757 0.0087 -0.8176
vn -0.0684 -0.2445 0.9672
vn 0.2826 -0.2118 0.9356
vn -0.1987 -0.3172 0.9273
vn 0.0376 -0.0858 -0.9956
vn -0.0806 -0.3246 -0.9424
vn -0.7098 -0.6733 -0.2070
vn -0.7324 -0.6186 -0.2845
vn -0.4472 -0.6170 -0.6476
vn -0.5029 -0.4261 -0.7520
vn -0.2603 -0.3147 -0.9128
vn 0.8690 -0.2189 -0.4437
vn 0.4642 0.0190 0.8855
vn 0.9060 -0.4104 -0.1034
vn 0.7069 -0.1320 -0.6949
vn 0.7127 0.1866 -0.6762
vn -0.2019 -0.3112 0.9287
vn -0.3442 -0.2701 0.8992
vn -0.0900 -0.0182 -0.9958
vn -0.0042 0.3207 -0.9472
vn 0.1268 0.1517 -0.9803
vn -0.7063 -0.6843 0.1812
vn -0.7065 -0.7026 0.0845
vn -0.7477 -0.5597 0.3572
vn -0.8177 -0.3672 -0.4434
vn -0.6347 -0.1671 -0.7545
vn -0.5563 -0.1376 -0.8195
vn -0.6891 0.0427 -0.7234
vn 0.1730 -0.1059 0.9792
vn 0.1894 0.0916 0.9776
vn 0.7967 -0.0807 0.5989
vn 0.5425 0.1641 0.8239
vn 0.9697 -0.1403 0.2002
vn 0.9962 -0.0182 -0.0856
vn 0.8913 0.2128 -0.4005
vn 0.7670 0.4368 -0.4700
vn 0.6781 0.6113 -0.4080
vn 0.6453 0.1585 -0.7473
vn 0.4575 0.3638 -0.8114
vn 0.0504 -0.1996 0.9786
vn -0.1341 -0.2188 0.9665
vn -0.2262 0.4237 -0.8771
vn -0.7014 -0.3886 0.5975
vn -0.9301 -0.1079 -0.3512
vn -0.3196 0.0889 -0.9434
vn -0.6225 -0.5760 0.5299
vn -0.0922 -0.0049 0.9957
vn 0.3061 0.2833 0.9089
vn 0.1858 0.3597 0.9144
vn 0.1293 0.1550 0.9794
vn 0.8824 0.1172 0.4557
vn 0.7829 0.6011 -0.1605
vn 0.6394 0.7584 -0.1266
vn 0.6776 0.5512 -0.4869
vn 0.9368 0.3469 0.0456
vn 0.1722 0.4877 -0.8558
vn 0.2979 0.5314 -0.7930
vn 0.3614 0.8319 -0.4212
vn -0.4555 -0.3370 0.8240
vn -0.3961 0.4543 -0.7979
vn -0.0940 0.6478 -0.7560
vn -0.4265 0.7926 -0.4358
vn 0.1547 0.8329 -0.5313
vn -0.9046 -0.3767 0.1996
vn -0.8305 0.1039 -0.5472
vn -0.9728 0.2158 -0.0839
vn -0.6571 0.3997 -0.6391
vn -0.7560 0.5911 -0.2812
vn -0.8039 0.3624 -0.4716
vn -0.3642 -0.1383 0.9210
vn 0.1099 0.1596 0.9811
vn -0.0083 0.1126 0.9936
vn 0.3634 0.5635 0.7419
vn 0.5004 0.4288 0.7521
vn 0.7774 0.4018 0.4840
vn 0.3773 0.9249 0.0468
vn 0.3326 0.9421 0.0438
vn 0.5635 0.7992 -0.2094
vn -0.4929 0.7685 -0.4081
vn -0.2728 0.8877 -0.3708
vn 0.2686 0.8595 -0.4348
vn -0.0790 0.9366 -0.3414
vn -0.9446 -0.0939 0.3145
vn -0.6253 -0.1212 0.7709
vn -0.8166 0.5698 -0.0918
vn -0.7188 0.6812 -0.1388
vn -0.3825 0.1329 0.9144
vn -0.2567 0.0519 0.9651
vn -0.2901 0.0749 0.9541
vn 0.1604 0.7979 0.5810
vn 0.3057 0.8839 0.3541
vn 0.5618 0.6824 0.4678
vn 0.0171 0.4410 0.8973
vn 0.1863 0.6723 0.7164
vn 0.6376 0.7539 0.1586
vn 0.2495 0.9570 -0.1483
vn 0.2665 0.8960 0.3551
vn -0.5231 0.8381 0.1544
vn -0.5493 0.8269 0.1202
vn -0.1813 0.9807 0.0734
vn -0.2527 0.8117 0.5266
vn 0.0739 0.9767 0.2017
vn -0.5444 0.1069 0.8320
vn -0.8775 0.1697 0.4485
vn -0.7898 0.5552 0.2608
vn -0.5541 0.8259 0.1041
vn -0.5991 0.7983 0.0613
vn -0.1514 0.2619 0.9532
vn 0.3320 0.9289 0.1642
vn 0.2960 0.9236 0.2436
vn 0.0150 0.8637 0.5038
vn 0.1715 0.9311 0.3220
vn 0.2168 0.8904 0.4002
vn -0.0099 0.9886 0.1503
vn 0.1607 0.9636 0.2135
vn -0.3668 0.8234 0.4330
vn -0.0835 0.8120 0.5777
vn 0.0688 0.7672 0.6377
vn -0.2954 0.9018 0.3156
vn -0.4269 0.4498 0.7845
vn 0.1738 0.9416 0.2884
vn 0.1095 0.9914 0.0717
vn -0.2445 0.7553 0.6081
vn -0.1211 0.8475 0.5168
vn 0.1225 0.9501 -0.2867
vn -0.1075 0.9182 -0.3813
vn -0.1279 0.7147 0.6877
vn -0.6854 0.3145 0.6568
vn -0.6451 0.6167 0.4511
vn -0.6182 0.3355 0.7108
vn -0.4684 0.8774 0.1043
vn -0.1518 0.9336 0.3245
vn -0.5952 0.5277 0.6060
vn 0.0788 0.9182 -0.3882
vn -0.4518 0.8255 0.3383
vn -0.1724 0.9808 0.0907
vn -0.0958 0.9912 0.0912
vn -0.6419 0.6685 0.3756
vn -0.1694 0.9764 -0.1341
vn -0.1888 0.9278 -0.3218
vn -0.2960 0.9543 -0.0402
vn -0.1456 0.9345 -0.3247
vn -0.4427 0.8925 -0.0861
vn -0.6133 0.7873 0.0637
s 1
f 3//1 1//2 2//3
f 1//2 4//4 2//3
f 5//5 6//6 1//2
f 5//5 1//2 3//1
f 4//4 7//7 2//3
f 2//3 8//8 3//1
f 9//9 8//8 2//3
f 7//7 9//9 2//3
f 6//6 4//4 1//2
f 10//10 7//7 4//4
f 5//5 11//11 6//6
f 6//6 12//12 4//4
f 12//12 6//6 13//13
f 11//11 13//13 6//6
f 8//8 14//14 3//1
f 12//12 10//10 4//4
f 5//5 15//15 16//16
f 15//15 5//5 3//1
f 16//16 11//11 5//5
f 13//13 11//11 17//17
f 14//14 15//15 3//1
f 7//7 10//10 18//18
f 18//18 9//9 7//7
f 9//9 20//19 8//8
f 14//14 8//8 20//19
f 21//20 9//9 18//18
f 15//15 22//21 16//16
f 16//16 23//22 11//11
f 23//22 24//23 11//11
f 25//24 10//10 12//12
f 13//13 25//24 12//12
f 25//24 13//13 17//17
f 11//11 24//23 17//17
f 26//25 17//17 24//23
f 19//26 15//15 14//14
f 27//27 18//18 10//10
f 21//20 18//18 28//28
f 27//27 28//28 18//18
f 20//19 19//26 14//14
f 21//20 20//19 9//9
f 29//29 21//20 28//28
f 25//24 30//30 10//10
f 10//10 30//30 27//27
f 31//31 16//16 22//21
f 23//22 16//16 31//31
f 19//26 41//32 15//15
f 32//33 24//23 23//22
f 23//22 33//34 32//33
f 31//31 33//34 23//22
f 25//24 17//17 34//35
f 30//30 25//24 34//35
f 30//30 35//36 27//27
f 27//27 35//36 28//28
f 19//26 36//37 41//32
f 20//19 37//38 19//26
f 37//38 36//37 19//26
f 38//39 20//19 21//20
f 40//40 29//29 28//28
f 39//41 40//40 28//28
f 29//29 38//39 21//20
f 22//21 15//15 41//32
f 43//42 31//31 22//21
f 22//21 42//43 43//42
f 33//34 31//31 44//44
f 45//45 46//46 31//31
f 46//46 44//44 31//31
f 47//47 32//33 48//48
f 48//48 32//33 33//34
f 32//33 49//49 24//23
f 47//47 49//49 32//33
f 24//23 49//49 26//25
f 30//30 34//35 50//50
f 53//51 34//35 17//17
f 26//25 51//52 17//17
f 51//52 53//51 17//17
f 53//51 52//53 34//35
f 54//54 35//36 50//50
f 35//36 39//41 28//28
f 37//38 20//19 38//39
f 55//55 29//29 40//40
f 30//30 50//50 35//36
f 41//32 42//43 22//21
f 45//45 31//31 43//42
f 43//42 42//43 56//56
f 46//46 45//45 57//57
f 58//58 44//44 46//46
f 47//47 51//52 49//49
f 48//48 33//34 44//44
f 52//53 50//50 34//35
f 51//52 26//25 49//49
f 59//59 52//53 53//51
f 51//52 59//59 53//51
f 54//54 39//41 35//36
f 37//38 60//60 36//37
f 37//38 61//61 60//60
f 37//38 38//39 55//55
f 37//38 55//55 62//62
f 61//61 37//38 62//62
f 55//55 38//39 29//29
f 63//63 55//55 40//40
f 40//40 39//41 64//64
f 54//54 64//64 39//41
f 60//60 41//32 36//37
f 60//60 42//43 41//32
f 56//56 42//43 60//60
f 45//45 43//42 65//65
f 48//48 44//44 66//66
f 58//58 66//66 44//44
f 45//45 65//65 57//57
f 67//67 46//46 57//57
f 46//46 67//67 58//58
f 68//68 66//66 58//58
f 47//47 48//48 69//69
f 70//70 51//52 47//47
f 71//71 70//70 47//47
f 72//72 71//71 47//47
f 47//47 69//69 72//72
f 52//53 54//54 50//50
f 73//73 52//53 59//59
f 74//74 64//64 54//54
f 75//75 60//60 61//61
f 62//62 55//55 63//63
f 62//62 76//76 61//61
f 63//63 76//76 62//62
f 40//40 77//77 63//63
f 64//64 77//77 40//40
f 56//56 65//65 43//42
f 66//66 69//69 48//48
f 78//78 57//57 65//65
f 79//79 67//67 57//57
f 80//80 81//81 67//67
f 80//80 67//67 79//79
f 58//58 82//82 83//83
f 68//68 58//58 83//83
f 81//81 58//58 67//67
f 58//58 81//81 82//82
f 84//84 70//70 71//71
f 70//70 85//85 51//52
f 85//85 59//59 51//52
f 73//73 86//86 52//53
f 86//86 54//54 52//53
f 87//87 59//59 85//85
f 74//74 54//54 86//86
f 88//88 64//64 74//74
f 89//89 88//88 74//74
f 60//60 75//75 56//56
f 61//61 90//90 75//75
f 76//76 90//90 61//61
f 75//75 65//65 56//56
f 91//91 90//90 76//76
f 76//76 63//63 92//92
f 76//76 92//92 91//91
f 77//77 92//92 63//63
f 75//75 93//93 65//65
f 94//94 66//66 68//68
f 66//66 94//94 95//95
f 83//83 94//94 68//68
f 65//65 93//93 78//78
f 57//57 78//78 79//79
f 80//80 79//79 96//96
f 98//97 80//80 96//96
f 98//97 97//98 80//80
f 70//70 84//84 85//85
f 84//84 99//99 85//85
f 71//71 72//72 100//100
f 100//100 72//72 101//101
f 72//72 69//69 101//101
f 102//102 86//86 73//73
f 59//59 102//102 73//73
f 102//102 59//59 87//87
f 102//102 87//87 103//103
f 104//104 103//103 87//87
f 74//74 86//86 102//102
f 105//105 64//64 88//88
f 89//89 74//74 102//102
f 89//89 102//102 103//103
f 89//89 103//103 106//106
f 89//89 106//106 107//107
f 107//107 88//88 89//89
f 64//64 105//105 77//77
f 93//93 75//75 90//90
f 78//78 93//93 90//90
f 90//90 91//91 108//108
f 90//90 108//108 78//78
f 92//92 119//109 91//91
f 77//77 109//110 92//92
f 109//110 77//77 105//105
f 66//66 101//101 69//69
f 101//101 66//66 95//95
f 110//111 94//94 83//83
f 79//79 78//78 108//108
f 79//79 108//108 96//96
f 80//80 111//112 81//81
f 80//80 112//113 111//112
f 97//98 112//113 80//80
f 111//112 82//82 81//81
f 113//114 99//99 114//115
f 99//99 113//114 85//85
f 115//116 114//115 99//99
f 84//84 115//116 99//99
f 71//71 115//116 84//84
f 71//71 116//117 115//116
f 116//117 71//71 100//100
f 85//85 104//104 87//87
f 85//85 113//114 104//104
f 106//106 103//103 104//104
f 117//118 105//105 88//88
f 105//105 117//118 132//119
f 132//119 109//110 105//105
f 118//120 88//88 107//107
f 118//120 117//118 88//88
f 113//114 106//106 104//104
f 113//114 107//107 106//106
f 109//110 119//109 92//92
f 91//91 119//109 98//97
f 108//108 91//91 96//96
f 91//91 98//97 96//96
f 109//110 126//121 119//109
f 120//122 101//101 95//95
f 120//122 95//95 94//94
f 110//111 120//122 94//94
f 83//83 82//82 110//111
f 121//123 122//124 110//111
f 82//82 121//123 110//111
f 121//123 82//82 111//112
f 112//113 123//125 111//112
f 123//125 124//126 111//112
f 123//125 112//113 125//127
f 112//113 97//98 126//121
f 126//121 125//127 112//113
f 98//97 126//121 97//98
f 126//121 98//97 119//109
f 114//115 107//107 113//114
f 114//115 115//116 127//128
f 114//115 128//129 107//107
f 127//128 128//129 114//115
f 100//100 129//130 116//117
f 129//130 130//131 116//117
f 131//132 100//100 101//101
f 133//133 132//119 117//118
f 117//118 118//120 133//133
f 118//120 107//107 128//129
f 109//110 125//127 126//121
f 125//127 109//110 134//134
f 132//119 134//134 109//110
f 135//135 131//132 101//101
f 120//122 135//135 101//101
f 111//112 122//124 121//123
f 110//111 122//124 136//136
f 137//137 120//122 110//111
f 138//138 111//112 124//126
f 111//112 138//138 122//124
f 125//127 134//134 123//125
f 139//139 128//129 127//128
f 140//140 118//120 128//129
f 140//140 128//129 141//141
f 142//142 128//129 139//139
f 142//142 141//141 128//129
f 116//117 130//131 115//116
f 143//143 130//131 129//130
f 100//100 131//132 129//130
f 146//144 134//134 132//119
f 147//145 132//119 133//133
f 147//145 146//144 132//119
f 133//133 118//120 140//140
f 135//135 120//122 137//137
f 131//132 148//146 145//147
f 135//135 148//146 131//132
f 138//138 136//136 122//124
f 110//111 136//136 149//148
f 149//148 137//137 110//111
f 124//126 150//149 138//138
f 150//149 124//126 123//125
f 123//125 151//150 152//151
f 123//125 152//151 150//149
f 134//134 146//144 123//125
f 130//131 127//128 115//116
f 153//152 127//128 144//153
f 144//153 127//128 130//131
f 139//139 127//128 153//152
f 154//154 140//140 141//141
f 142//142 154//154 141//141
f 139//139 155//155 142//142
f 155//155 139//139 153//152
f 143//143 129//130 145//147
f 131//132 145//147 129//130
f 145//147 156//156 143//143
f 144//153 130//131 143//143
f 145//147 148//146 157//157
f 158//158 145//147 157//157
f 158//158 156//156 145//147
f 159//159 146//144 147//145
f 147//145 133//133 160//160
f 159//159 147//145 160//160
f 160//160 133//133 140//140
f 146//144 161//161 151//150
f 146//144 151//150 123//125
f 135//135 162//162 148//146
f 135//135 137//137 163//163
f 163//163 162//162 135//135
f 164//164 136//136 138//138
f 136//136 164//164 165//165
f 166//166 136//136 165//165
f 137//137 149//148 181//167
f 137//137 167//168 163//163
f 167//168 137//137 181//167
f 164//164 138//138 150//149
f 168//169 153//152 144//153
f 140//140 169//170 160//160
f 140//140 154//154 169//170
f 153//152 170//171 155//155
f 170//171 153//152 168//169
f 143//143 171//172 144//153
f 156//156 171//172 143//143
f 156//156 172//173 171//172
f 156//156 158//158 172//173
f 168//169 144//153 171//172
f 148//146 162//162 157//157
f 173//174 161//161 146//144
f 159//159 173//174 146//144
f 161//161 174//175 151//150
f 163//163 175//176 162//162
f 176//177 194//178 162//162
f 176//177 162//162 175//176
f 164//164 178//179 179//180
f 164//164 177//181 178//179
f 177//181 164//164 150//149
f 164//164 179//180 165//165
f 166//166 149//148 136//136
f 166//166 165//165 180//182
f 181//167 166//166 180//182
f 181//167 149//148 166//166
f 182//183 167//168 181//167
f 183//184 167//168 184//185
f 174//175 152//151 151//150
f 152//151 174//175 150//149
f 160//160 169//170 185//186
f 169//170 186//187 185//186
f 155//155 154//154 142//142
f 154//154 187//188 169//170
f 187//188 188//189 169//170
f 155//155 189//190 187//188
f 189//190 155//155 170//171
f 190//191 170//171 168//169
f 190//191 189//190 170//171
f 193//192 171//172 172//173
f 172//173 191//193 193//192
f 192//194 158//158 195//195
f 191//193 172//173 158//158
f 192//194 191//193 158//158
f 171//172 193//192 168//169
f 157//157 162//162 194//178
f 158//158 157//157 195//195
f 196//196 157//157 194//178
f 195//195 157//157 196//196
f 185//186 197//197 160//160
f 160//160 197//197 159//159
f 197//197 198//198 159//159
f 159//159 198//198 173//174
f 174//175 161//161 173//174
f 215//199 176//177 175//176
f 200//200 179//180 178//179
f 182//183 181//167 201//201
f 180//182 201//201 181//167
f 167//168 183//184 199//202
f 184//185 167//168 182//183
f 178//179 177//181 202//203
f 190//191 168//169 193//192
f 198//198 197//197 185//186
f 204//204 185//186 186//187
f 204//204 198//198 185//186
f 186//187 205//205 206//206
f 205//205 186//187 169//170
f 207//207 186//187 206//206
f 205//205 169//170 188//189
f 187//188 154//154 155//155
f 187//188 208//208 188//189
f 187//188 189//190 208//208
f 209//209 193//192 191//193
f 191//193 192//194 210//210
f 211//211 192//194 195//195
f 209//209 191//193 210//210
f 193//192 212//212 190//191
f 214//213 213//214 194//178
f 194//178 213//214 196//196
f 213//214 233//215 196//196
f 196//196 211//211 195//195
f 203//216 173//174 198//198
f 173//174 203//216 174//175
f 176//177 214//213 194//178
f 175//176 199//202 215//199
f 215//199 199//202 216//217
f 217//218 176//177 215//199
f 215//199 218//219 217//218
f 219//220 176//177 217//218
f 176//177 219//220 214//213
f 175//176 163//163 167//168
f 199//202 175//176 167//168
f 200//200 220//221 179//180
f 179//180 220//221 165//165
f 220//221 180//182 165//165
f 220//221 201//201 180//182
f 201//201 221//222 182//183
f 222//223 221//222 201//201
f 221//222 184//185 182//183
f 184//185 223//224 183//184
f 199//202 183//184 223//224
f 224//225 223//224 184//185
f 225//226 184//185 221//222
f 150//149 203//216 177//181
f 203//216 202//203 177//181
f 198//198 226//227 203//216
f 190//191 212//212 208//208
f 208//208 189//190 190//191
f 204//204 228//228 227//229
f 228//228 204//204 186//187
f 206//206 205//205 230//230
f 229//231 230//230 205//205
f 229//231 205//205 188//189
f 186//187 207//207 228//228
f 231//232 188//189 208//208
f 229//231 188//189 231//232
f 209//209 212//212 193//192
f 192//194 232//233 252//234
f 210//210 192//194 252//234
f 233//215 234//235 196//196
f 234//235 211//211 196//196
f 215//199 216//217 235//236
f 235//236 218//219 215//199
f 217//218 218//219 236//237
f 214//213 219//220 238//238
f 217//218 237//239 219//220
f 199//202 223//224 216//217
f 200//200 178//179 202//203
f 200//200 240//240 220//221
f 203//216 200//200 202//203
f 240//240 200//200 239//241
f 200//200 226//227 239//241
f 200//200 203//216 226//227
f 201//201 220//221 240//240
f 201//201 240//240 222//223
f 221//222 241//242 225//226
f 222//223 241//242 221//222
f 225//226 224//225 184//185
f 242//243 224//225 225//226
f 174//175 203//216 150//149
f 226//227 198//198 204//204
f 231//232 208//208 212//212
f 204//204 277//244 243//245
f 204//204 243//245 226//227
f 204//204 227//229 277//244
f 227//229 244//246 277//244
f 245//247 206//206 230//230
f 230//230 246//248 245//247
f 230//230 229//231 247//249
f 229//231 231//232 247//249
f 207//207 206//206 228//228
f 227//229 206//206 249//250
f 228//228 206//206 227//229
f 250//251 249//250 206//206
f 231//232 212//212 251//252
f 212//212 209//209 251//252
f 209//209 252//234 251//252
f 252//234 209//209 210//210
f 232//233 192//194 211//211
f 234//235 232//233 211//211
f 214//213 238//238 213//214
f 254//253 233//215 213//214
f 238//238 254//253 213//214
f 255//254 234//235 233//215
f 216//217 223//224 235//236
f 256//255 218//219 235//236
f 218//219 257//256 236//237
f 236//237 258//257 217//218
f 259//258 258//257 236//237
f 257//256 259//258 236//237
f 258//257 237//239 217//218
f 237//239 260//259 219//220
f 219//220 260//259 238//238
f 261//260 239//241 226//227
f 274//261 222//223 240//240
f 274//261 262//262 222//223
f 222//223 262//262 241//242
f 242//243 263//263 224//225
f 264//264 263//263 242//243
f 244//246 227//229 265//265
f 265//265 227//229 249//250
f 230//230 248//266 246//248
f 250//251 206//206 245//247
f 247//249 268//267 230//230
f 248//266 230//230 268//267
f 249//250 250//251 266//268
f 266//268 250//251 267//269
f 247//249 231//232 251//252
f 268//267 251//252 252//234
f 232//233 234//235 253//270
f 232//233 269//271 252//234
f 253//270 269//271 232//233
f 238//238 270//272 254//253
f 254//253 255//254 233//215
f 270//272 255//254 254//253
f 253//270 234//235 255//254
f 256//255 271//273 218//219
f 223//224 224//225 235//236
f 257//256 218//219 271//273
f 271//273 259//258 257//256
f 272//274 260//259 237//239
f 258//257 272//274 237//239
f 260//259 270//272 238//238
f 273//275 270//272 260//259
f 273//275 260//259 272//274
f 261//260 274//261 239//241
f 239//241 274//261 240//240
f 243//245 261//260 226//227
f 241//242 242//243 225//226
f 262//262 242//243 241//242
f 264//264 276//276 263//263
f 224//225 256//255 235//236
f 263//263 256//255 224//225
f 256//255 263//263 276//276
f 242//243 262//262 264//264
f 261//260 243//245 277//244
f 244//246 265//265 278//277
f 280//278 246//248 279//279
f 246//248 280//278 245//247
f 245//247 280//278 250//251
f 280//278 267//269 250//251
f 279//279 246//248 248//266
f 251//252 268//267 247//249
f 265//265 249//250 281//280
f 265//265 281//280 278//277
f 249//250 266//268 281//280
f 252//234 269//271 268//267
f 269//271 253//270 282//281
f 268//267 269//271 248//266
f 283//282 248//266 269//271
f 269//271 284//283 283//282
f 273//275 255//254 270//272
f 282//281 253//270 255//254
f 255//254 273//275 282//281
f 276//276 271//273 256//255
f 259//258 271//273 285//284
f 285//284 272//274 259//258
f 259//258 272//274 258//257
f 272//274 285//284 273//275
f 273//275 285//284 282//281
f 261//260 286//285 274//261
f 275//286 261//260 287//287
f 261//260 275//286 286//285
f 262//262 274//261 286//285
f 261//260 277//244 287//287
f 286//285 275//286 262//262
f 288//288 262//262 275//286
f 288//288 264//264 262//262
f 264//264 288//288 276//276
f 276//276 289//289 271//273
f 276//276 288//288 289//289
f 277//244 290//290 287//287
f 244//246 278//277 277//244
f 248//266 291//291 279//279
f 291//291 248//266 283//282
f 281//280 292//292 278//277
f 281//280 266//268 293//293
f 266//268 267//269 293//293
f 293//293 267//269 279//279
f 267//269 280//278 279//279
f 294//294 269//271 282//281
f 269//271 294//294 284//283
f 294//294 282//281 289//289
f 285//284 271//273 282//281
f 289//289 282//281 271//273
f 290//290 295//295 287//287
f 288//288 296//296 289//289
f 290//290 278//277 292//292
f 278//277 290//290 277//244
f 297//297 279//279 291//291
f 281//280 293//293 298//298
f 281//280 298//298 292//292
f 293//293 279//279 297//297
f 298//298 293//293 297//297
f 294//294 289//289 296//296
f 294//294 296//296 299//299
f 284//283 291//291 283//282
f 294//294 299//299 284//283
f 275//286 287//287 295//295
f 275//286 295//295 288//288
f 288//288 301//300 296//296
f 301//300 288//288 295//295
f 295//295 290//290 300//301
f 290//290 292//292 301//300
f 300//301 290//290 301//300
f 301//300 292//292 298//298
f 299//299 296//296 298//298
f 299//299 298//298 297//297
f 299//299 297//297 284//283
f 297//297 291//291 284//283
f 295//295 300//301 301//300
f 301//300 298//298 296//296
