# Blender 4.0.2
# www.blender.org
mtllib 3mc_r.mtl
o 3mc_r.002
v -0.001451 -0.029960 0.004955
v -0.002621 -0.028526 0.005629
v -0.002531 -0.029891 0.004377
v 0.000291 -0.030111 0.005102
v -0.001663 -0.028001 0.006300
v -0.003472 -0.028728 0.004694
v 0.000675 -0.031267 0.003596
v 0.000474 -0.028213 0.006260
v -0.001608 -0.026184 0.006843
v -0.001675 -0.030981 0.003325
v 0.002525 -0.029343 0.005183
v 0.000727 -0.025336 0.006993
v -0.003122 -0.030382 0.002271
v -0.003702 -0.027982 0.004790
v 0.003683 -0.029286 0.004278
v -0.001223 -0.031420 0.001778
v -0.003392 -0.026836 0.005738
v -0.002728 -0.025586 0.006592
v 0.002729 -0.023975 0.006643
v 0.001763 -0.024331 0.006842
v -0.000828 -0.023611 0.007102
v -0.004024 -0.028261 0.002539
v 0.002022 -0.031280 0.002172
v 0.000774 -0.031579 0.001539
v 0.003258 -0.030603 0.002393
v 0.003038 -0.027445 0.006010
v 0.000875 -0.023616 0.006677
v -0.002712 -0.021832 0.007365
v -0.003650 -0.029684 0.000673
v -0.004343 -0.027990 0.001422
v -0.003545 -0.026236 0.003723
v 0.004554 -0.028560 0.003147
v -0.003119 -0.023544 0.006712
v 0.000388 -0.022037 0.006829
v 0.003307 -0.023773 0.006112
v 0.004119 -0.021412 0.006844
v 0.003424 -0.019827 0.007287
v -0.001451 -0.030951 0.000378
v -0.003374 -0.029413 -0.000361
v -0.003589 -0.023999 0.002240
v 0.002748 -0.030441 0.000357
v 0.004328 -0.029434 0.002704
v 0.003855 -0.027315 0.005105
v 0.003798 -0.024702 0.004664
v 0.004333 -0.022467 0.005470
v 0.001562 -0.019375 0.006850
v -0.001824 -0.029547 -0.001207
v 0.000692 -0.030201 -0.000790
v -0.004468 -0.026984 0.000077
v -0.004237 -0.027455 -0.000938
v -0.003615 -0.024112 0.005726
v -0.004380 -0.025409 0.000616
v 0.004604 -0.025781 0.002922
v 0.004489 -0.023129 0.002899
v 0.005777 -0.019478 0.006209
v 0.002299 -0.018130 0.006803
v -0.004033 -0.022246 0.006785
v 0.000347 -0.028546 -0.002140
v -0.002800 -0.028203 -0.001819
v 0.004038 -0.029378 0.000008
v 0.004373 -0.029496 0.001009
v 0.005201 -0.024526 0.001919
v 0.005076 -0.028141 0.000688
v -0.003730 -0.022905 0.003430
v -0.004395 -0.022427 0.005980
v -0.000293 -0.017512 0.006589
v -0.003718 -0.020733 0.007047
v 0.005244 -0.020929 0.006081
v 0.004984 -0.017654 0.006543
v 0.004168 -0.015813 0.006196
v -0.004078 -0.020795 0.000411
v 0.006068 -0.022283 -0.000245
v -0.005128 -0.021601 0.005636
v 0.006252 -0.019818 0.005006
v 0.005160 -0.020607 0.002716
v 0.005915 -0.018201 0.005891
v 0.001078 -0.014286 0.006100
v -0.000862 -0.026711 -0.002996
v 0.002349 -0.029250 -0.001170
v 0.001536 -0.027150 -0.002715
v -0.004043 -0.025931 -0.001899
v -0.004448 -0.022981 -0.001431
v 0.004602 -0.027948 -0.000973
v 0.005572 -0.025201 -0.001082
v 0.005783 -0.021314 0.000664
v -0.004191 -0.021372 0.002572
v -0.005697 -0.020227 0.004499
v -0.005557 -0.020260 0.005455
v -0.004780 -0.020457 0.006386
v -0.003681 -0.016582 0.006060
v -0.001029 -0.012823 0.005979
v 0.004286 -0.026230 -0.001901
v -0.002888 -0.026300 -0.002537
v -0.004924 -0.016556 0.005396
v -0.003803 -0.014706 0.005565
v 0.005728 -0.019227 0.002698
v 0.005596 -0.020209 0.001626
v 0.006347 -0.017387 0.004521
v 0.005175 -0.014347 0.004793
v 0.004395 -0.013598 0.005459
v 0.003885 -0.010010 0.005186
v -0.001211 -0.024304 -0.003454
v 0.001605 -0.024612 -0.003286
v -0.003948 -0.019020 0.000184
v -0.003255 -0.018975 -0.001757
v 0.005017 -0.024118 -0.002129
v 0.005968 -0.021564 -0.001286
v -0.005481 -0.019035 0.003583
v -0.004099 -0.013495 0.005117
v 0.006150 -0.018088 0.003197
v 0.000390 -0.005553 0.005188
v -0.003527 -0.006775 0.004882
v 0.002959 -0.009185 0.005400
v 0.004603 -0.010526 0.004506
v 0.000989 -0.022854 -0.003002
v 0.003066 -0.024109 -0.002681
v -0.003574 -0.023058 -0.002888
v -0.004286 -0.018083 0.001871
v -0.003444 -0.020900 -0.002675
v -0.003196 -0.016771 -0.000924
v 0.005517 -0.021735 -0.002304
v 0.005578 -0.019258 -0.000378
v -0.004519 -0.013149 0.004376
v -0.004061 -0.008242 0.004650
v 0.005513 -0.017651 0.001850
v 0.005536 -0.015555 0.003650
v 0.005131 -0.013064 0.003476
v -0.001306 -0.002000 0.004637
v 0.002264 -0.003317 0.005037
v 0.004830 -0.022010 -0.002885
v -0.002555 -0.020378 -0.003163
v 0.005124 -0.019790 -0.002201
v 0.004834 -0.020689 -0.002704
v -0.005567 -0.017786 0.004391
v -0.004523 -0.011231 0.003212
v 0.003458 -0.006309 0.004958
v -0.001092 -0.019492 -0.002965
v 0.002095 -0.021997 -0.002792
v 0.001748 -0.022761 -0.002666
v -0.002088 -0.017214 -0.002253
v 0.004580 -0.016542 -0.000198
v -0.004848 -0.015672 0.003387
v 0.004433 -0.008401 0.003325
v -0.003086 -0.002057 0.004640
v 0.001850 -0.017989 -0.002460
v -0.003552 -0.011129 0.000091
v 0.004476 -0.018684 -0.001847
v -0.004249 -0.006430 0.004039
v 0.004235 -0.014764 0.000281
v 0.004130 -0.012197 0.001160
v -0.000676 0.001295 0.004434
v 0.002704 -0.001365 0.004512
v 0.003798 -0.005126 0.004324
v -0.001372 -0.013435 -0.002585
v -0.000184 -0.015413 -0.002674
v -0.004306 -0.006936 0.002656
v -0.003431 -0.008249 -0.000461
v 0.003643 -0.009721 0.000870
v 0.002660 -0.011540 -0.000532
v -0.003786 -0.003091 0.004364
v 0.001601 0.002463 0.004382
v 0.002874 0.000573 0.003855
v 0.004075 -0.004992 0.003081
v 0.002817 -0.015761 -0.001442
v -0.002275 -0.012892 -0.002015
v -0.003516 -0.003324 -0.000555
v -0.003063 0.002415 0.004079
v 0.003635 0.000318 0.002257
v -0.002163 -0.008954 -0.001870
v 0.000161 -0.011560 -0.002108
v -0.003972 -0.001700 0.002354
v -0.002970 -0.003974 -0.001331
v 0.002023 -0.009524 -0.000861
v 0.003621 -0.000968 0.001326
v -0.003992 -0.002673 0.001276
v 0.002482 -0.006482 -0.000420
v -0.000816 -0.010710 -0.002185
v -0.000708 -0.006845 -0.001981
v -0.003397 0.002542 0.003669
v -0.002242 0.002610 0.004284
v 0.000789 0.007039 0.003828
v 0.001929 0.007835 0.003056
v 0.002978 0.007368 0.002267
v 0.003525 0.003533 0.001939
v 0.003362 -0.004403 0.000758
v -0.003749 0.004206 0.001294
v -0.001674 -0.003344 -0.002070
v -0.003386 0.001084 -0.001111
v -0.002008 0.007455 0.003738
v 0.000603 -0.003087 -0.001749
v 0.002226 0.000410 -0.001011
v -0.003056 0.002431 -0.001709
v -0.002590 0.000746 -0.001817
v -0.000720 -0.000663 -0.002323
v 0.001364 -0.000509 -0.001581
v -0.000937 0.011539 0.003307
v 0.003665 0.011043 0.000770
v 0.002821 0.012040 0.001829
v 0.003546 0.005860 0.000412
v -0.003453 0.006760 -0.001153
v -0.002633 0.008632 0.003053
v 0.001016 0.012669 0.002942
v -0.001412 0.015151 0.002653
v 0.003629 0.008557 0.000063
v -0.003126 0.008678 0.002220
v 0.001267 0.014762 0.002594
v 0.000099 0.014925 0.002704
v 0.001661 0.007644 -0.002528
v 0.000482 0.005317 -0.003188
v -0.002880 0.006712 -0.002413
v -0.003566 0.011109 -0.000742
v -0.000484 0.005245 -0.003166
v 0.003850 0.011836 -0.000350
v 0.004312 0.014557 -0.000190
v -0.003636 0.009949 -0.001727
v -0.003044 0.017237 0.000970
v 0.002877 0.015276 0.001453
v 0.003750 0.012708 -0.001116
v 0.002274 0.012025 -0.002576
v -0.003167 0.010200 -0.002668
v -0.002041 0.009585 -0.003401
v -0.003354 0.015729 -0.000237
v -0.001643 0.017682 0.002148
v 0.004603 0.016003 -0.001204
v 0.003142 0.016198 -0.002246
v 0.001319 0.010737 -0.003758
v 0.004535 0.016513 0.000040
v 0.000368 0.009199 -0.003853
v -0.000666 0.009580 -0.004034
v -0.003606 0.014048 -0.003205
v -0.003741 0.012567 -0.002328
v 0.001591 0.019914 0.001958
v -0.000743 0.019428 0.002188
v 0.002972 0.017266 -0.002853
v 0.003570 0.018365 0.000985
v -0.002512 0.012877 -0.004157
v -0.004301 0.016568 -0.002539
v -0.004023 0.017252 -0.001226
v 0.005544 0.019314 -0.001135
v 0.001817 0.013211 -0.004451
v 0.002186 0.020465 0.001649
v -0.003667 0.020095 0.000984
v -0.004093 0.019583 -0.001014
v -0.002874 0.020438 0.001760
v 0.005300 0.018622 -0.001596
v 0.004099 0.018436 -0.002423
v 0.002266 0.015938 -0.004957
v 0.001042 0.014176 -0.005452
v 0.004650 0.021085 0.000947
v 0.003653 0.023557 0.001412
v -0.001447 0.012833 -0.004668
v -0.004520 0.023045 0.000125
v -0.000972 0.022460 0.002015
v 0.001920 0.023668 0.001571
v 0.004719 0.020884 -0.003032
v 0.005171 0.022364 0.000472
v -0.003049 0.015669 -0.004761
v -0.004020 0.017618 -0.004356
v -0.003553 0.018857 -0.006014
v -0.004508 0.022524 -0.001227
v -0.003666 0.022107 0.001201
v 0.005340 0.023296 -0.002149
v 0.003857 0.019848 -0.003904
v 0.001035 0.016691 -0.006601
v 0.003093 0.017968 -0.005831
v -0.000083 0.015842 -0.006276
v -0.000877 0.016234 -0.006293
v -0.004266 0.020896 -0.004430
v -0.004404 0.022976 -0.003171
v -0.002522 0.016964 -0.005763
v 0.003850 0.021705 -0.004000
v 0.003250 0.019171 -0.006224
v 0.004207 0.024588 0.000966
v 0.004118 0.027927 0.000858
v 0.000851 0.025813 0.001404
v 0.002981 0.026293 0.001589
v -0.004302 0.024632 0.001196
v -0.005148 0.025871 -0.000220
v -0.004412 0.025480 -0.003170
v -0.003426 0.024727 0.001748
v -0.002922 0.026345 0.001490
v -0.000987 0.025698 0.001312
v 0.005319 0.024760 -0.001680
v 0.000812 0.018989 -0.008332
v 0.005203 0.026025 -0.001161
v 0.004745 0.026217 -0.000246
v -0.002670 0.018650 -0.007570
v -0.005518 0.027424 -0.000842
v 0.004027 0.023734 -0.002961
v 0.003057 0.020652 -0.006431
v 0.002966 0.023054 -0.004368
v -0.000864 0.019186 -0.008967
v 0.002846 0.019628 -0.006986
v 0.003853 0.030922 0.000893
v 0.001121 0.027483 0.001292
v 0.002755 0.030878 0.001041
v -0.003789 0.020733 -0.006857
v -0.001597 0.018718 -0.008370
v -0.005228 0.027552 0.000102
v -0.004638 0.026308 -0.003715
v -0.004031 0.023872 -0.003745
v -0.000303 0.027850 0.000395
v 0.002261 0.022714 -0.006065
v 0.000593 0.021189 -0.009611
v 0.005318 0.028439 -0.000983
v -0.004139 0.023149 -0.004566
v -0.004297 0.022659 -0.005781
v -0.004582 0.028264 0.000401
v -0.005004 0.028419 -0.003177
v 0.004622 0.026123 -0.002022
v 0.002397 0.021918 -0.007020
v 0.001229 0.020776 -0.008495
v -0.000498 0.021319 -0.009947
v 0.005058 0.029642 -0.000769
v 0.003545 0.032719 0.000356
v 0.001825 0.031731 0.000534
v -0.000035 0.030354 0.000074
v -0.004449 0.025163 -0.004605
v -0.004029 0.022394 -0.007241
v -0.003929 0.023241 -0.008212
v -0.003126 0.021979 -0.009024
v -0.004990 0.028717 -0.000248
v -0.005360 0.028357 -0.001036
v -0.005258 0.028364 -0.004780
v 0.002524 0.023742 -0.005731
v 0.002563 0.024095 -0.005108
v 0.002013 0.021655 -0.007758
v 0.003691 0.024802 -0.004164
v 0.005033 0.028063 -0.001985
v 0.004593 0.031395 -0.000022
v 0.002538 0.032724 0.000059
v -0.004589 0.023217 -0.007189
v -0.002005 0.021297 -0.009497
v -0.003703 0.024947 -0.003702
v -0.003696 0.025161 -0.003890
v -0.005281 0.026998 -0.007673
v -0.005317 0.029026 -0.006084
v -0.004439 0.029251 -0.003406
v -0.003727 0.023901 -0.004210
v -0.003095 0.023872 -0.003756
v -0.002050 0.030274 -0.000220
v 0.004147 0.026611 -0.003287
v 0.003068 0.025277 -0.005235
v 0.003336 0.027114 -0.004575
v 0.004882 0.029155 -0.001845
v 0.004296 0.032062 -0.000966
v -0.000246 0.030880 -0.000380
v -0.003898 0.024436 -0.004383
v -0.004841 0.024226 -0.008468
v -0.002750 0.024994 -0.003561
v -0.003668 0.024900 -0.004197
v -0.004957 0.029436 -0.005166
v -0.003288 0.029941 -0.003235
v -0.002746 0.024263 -0.004167
v 0.002416 0.023230 -0.006505
v 0.002628 0.023531 -0.007340
v 0.001578 0.022315 -0.009454
v 0.000250 0.024486 -0.011036
v 0.003716 0.032217 -0.001891
v 0.003753 0.032948 -0.000363
v 0.003161 0.032978 -0.000086
v 0.000946 0.031359 -0.000574
v -0.003840 0.024316 -0.009036
v -0.002986 0.025554 -0.004007
v -0.001878 0.030563 -0.000896
v -0.005331 0.028514 -0.008451
v -0.001600 0.030234 -0.002760
v 0.003019 0.023767 -0.006136
v 0.002572 0.023828 -0.009433
v 0.003262 0.024916 -0.005900
v 0.004021 0.028192 -0.003264
v -0.002854 0.024523 -0.009796
v -0.001403 0.026962 -0.011293
v 0.001580 0.023797 -0.010521
v 0.003304 0.032810 -0.001615
v -0.000477 0.030899 -0.000700
v 0.002121 0.031392 -0.002499
v -0.002718 0.025210 -0.004181
v -0.004915 0.029742 -0.008159
v -0.004783 0.029965 -0.006339
v -0.002963 0.030162 -0.005313
v 0.002396 0.027546 -0.006357
v 0.002346 0.029358 -0.004308
v -0.003099 0.027670 -0.010582
v 0.002659 0.030673 -0.003049
v 0.001730 0.030619 -0.003167
v -0.004979 0.025464 -0.008834
v 0.001217 0.029864 -0.004453
v 0.001940 0.027388 -0.008581
v 0.002958 0.024535 -0.006917
v 0.002588 0.024509 -0.009907
v 0.000830 0.026386 -0.011390
v -0.000131 0.030348 -0.002283
v -0.004982 0.027743 -0.009044
v -0.003852 0.028928 -0.009883
v -0.003978 0.030196 -0.007987
v -0.000991 0.029850 -0.006294
v 0.000664 0.029018 -0.007857
v 0.002155 0.025517 -0.010443
v -0.000232 0.027373 -0.011155
v -0.002275 0.028041 -0.010720
v 0.001233 0.028754 -0.007736
v 0.001411 0.026913 -0.010878
v -0.003956 0.027979 -0.010012
v -0.001819 0.028868 -0.009202
v 0.000889 0.027720 -0.010532
vn -0.5160 -0.6988 0.4954
vn -0.2305 -0.6994 0.6765
vn -0.4710 -0.4678 0.7479
vn -0.2077 -0.3982 0.8935
vn 0.0355 -0.6836 0.7290
vn -0.7733 -0.4546 0.4420
vn 0.1027 -0.9037 0.4157
vn 0.0821 -0.3995 0.9131
vn 0.3651 -0.6082 0.7048
vn -0.1621 -0.1869 0.9689
vn -0.3365 -0.8766 0.3439
vn -0.6971 -0.7118 0.0853
vn 0.4972 -0.2703 0.8245
vn 0.1169 -0.0928 0.9888
vn -0.9184 -0.1432 0.3687
vn -0.2742 -0.9604 -0.0492
vn -0.5011 -0.1520 0.8520
vn -0.8282 -0.1560 0.5383
vn 0.4622 -0.2060 0.8625
vn 0.0961 -0.0487 0.9942
vn 0.0729 -0.0410 0.9965
vn -0.9673 -0.1671 0.1910
vn 0.3706 -0.9272 0.0550
vn 0.0981 -0.9780 -0.1841
vn 0.5578 -0.8183 0.1388
vn 0.6579 -0.5535 0.5107
vn -0.0336 -0.0164 0.9993
vn -0.1180 -0.0276 0.9926
vn -0.6273 -0.2769 0.7279
vn -0.2676 -0.8626 -0.4293
vn -0.9787 -0.1689 0.1166
vn -0.7746 -0.6117 -0.1607
vn 0.8497 -0.1201 0.5134
vn -0.9291 -0.2451 0.2769
vn 0.0340 0.0072 0.9994
vn 0.7792 -0.2722 0.5645
vn 0.4921 -0.3033 0.8160
vn -0.9926 0.0574 0.1072
vn -0.9922 -0.0109 0.1239
vn 0.4009 -0.8062 -0.4352
vn 0.8396 -0.5110 0.1845
vn 0.9249 -0.2312 0.3019
vn 0.9425 -0.0533 0.3298
vn 0.8198 -0.4624 0.3377
vn 0.1139 0.0411 0.9926
vn -0.1425 0.0816 0.9864
vn 0.0909 -0.7461 -0.6596
vn -0.2289 -0.6532 -0.7218
vn -0.9928 -0.1111 -0.0445
vn -0.8589 -0.3069 -0.4101
vn -0.6092 -0.6241 -0.4893
vn -0.9533 -0.2935 -0.0719
vn -0.9707 0.0968 0.2198
vn 0.7705 -0.6252 -0.1245
vn 0.8873 0.0395 0.4594
vn -0.5969 -0.2854 0.7499
vn 0.9363 -0.1559 0.3147
vn 0.7377 -0.0954 0.6683
vn -0.0483 0.1811 0.9823
vn 0.0358 -0.5326 -0.8456
vn -0.4083 -0.4670 -0.7844
vn 0.5613 -0.6595 -0.5001
vn 0.9125 -0.0294 0.4079
vn 0.9432 -0.3291 -0.0460
vn 0.3097 -0.6070 -0.7319
vn -0.8220 -0.5246 0.2216
vn -0.0456 0.1365 0.9896
vn 0.7435 -0.4591 0.4862
vn 0.4336 0.2204 0.8737
vn 0.1618 0.2401 0.9572
vn -0.3214 0.1137 0.9401
vn 0.9970 -0.0064 0.0772
vn -0.8691 -0.4367 0.2325
vn 0.9594 -0.2623 0.1040
vn 0.8268 0.1308 0.5471
vn 0.0439 0.1466 0.9882
vn -0.1013 -0.3205 -0.9418
vn 0.2129 -0.3553 -0.9102
vn -0.7697 -0.1863 -0.6106
vn -0.9769 0.0909 -0.1933
vn -0.9953 0.0623 -0.0736
vn -0.9335 -0.2470 -0.2601
vn 0.6600 -0.4589 -0.5948
vn 0.9063 -0.2288 -0.3553
vn 0.9712 0.0314 0.2361
vn -0.9644 -0.2142 -0.1553
vn -0.9148 -0.0575 0.3999
vn -0.6557 0.0280 0.7545
vn -0.3036 0.1942 0.9328
vn -0.0926 0.1149 0.9890
vn 0.9525 -0.3036 -0.0232
vn -0.3992 -0.2682 -0.8767
vn -0.7377 0.2165 0.6394
vn -0.4602 0.2095 0.8627
vn 0.9852 -0.0938 0.1438
vn 0.9785 0.1890 0.0826
vn 0.8950 0.2406 0.3756
vn 0.7139 0.1803 0.6766
vn 0.5108 0.1138 0.8521
vn -0.0887 -0.0637 -0.9940
vn 0.2230 0.0014 -0.9748
vn 0.4585 -0.2880 -0.8407
vn -0.9637 0.0705 -0.2574
vn -0.8458 0.2285 -0.4820
vn 0.9711 0.0840 -0.2235
vn -0.9036 -0.0312 -0.4272
vn 0.9576 -0.1911 -0.2155
vn 0.9523 0.0182 -0.3048
vn -0.0309 0.0984 0.9947
vn -0.3654 0.0941 0.9261
vn -0.8060 0.0335 0.5910
vn 0.1917 0.0862 0.9777
vn 0.8981 0.1558 0.4114
vn 0.2021 0.1157 -0.9725
vn 0.6328 -0.2411 -0.7358
vn 0.2181 -0.0703 -0.9734
vn -0.6018 -0.0193 -0.7984
vn -0.7748 0.2337 -0.5874
vn -0.9189 0.0197 -0.3941
vn -0.8660 0.0912 -0.4917
vn 0.8023 0.0075 -0.5969
vn 0.9450 0.2611 -0.1967
vn -0.9870 0.1590 0.0236
vn -0.9405 0.1009 0.3244
vn -0.8039 0.0516 0.5926
vn 0.9481 0.1798 -0.2622
vn 0.9515 0.2527 -0.1756
vn 0.9812 0.1587 -0.1095
vn -0.0707 0.0782 0.9944
vn 0.1952 0.1203 0.9734
vn 0.0286 0.1442 -0.9891
vn 0.3478 -0.0418 -0.9366
vn -0.3083 0.2137 -0.9269
vn 0.6466 0.4035 -0.6473
vn 0.3627 0.1938 -0.9115
vn -0.9963 0.0520 -0.0683
vn 0.5438 0.1233 0.8301
vn 0.0536 -0.0011 -0.9986
vn 0.2285 -0.0464 -0.9724
vn -0.9485 0.1170 -0.2945
vn -0.5220 0.1506 -0.8396
vn 0.6522 0.4389 -0.6180
vn 0.8085 0.3366 -0.4827
vn 0.9866 0.1257 -0.1044
vn -0.2581 0.0864 0.9623
vn 0.0504 0.0632 -0.9967
vn 0.1966 0.1641 -0.9667
vn -0.9028 0.0097 -0.4299
vn -0.9643 0.0688 0.2559
vn 0.8051 0.2423 -0.5414
vn 0.8710 0.1554 -0.4661
vn -0.0314 0.0970 0.9948
vn 0.5698 0.1649 0.8051
vn 0.8648 0.1505 0.4791
vn -0.2109 0.0969 -0.9727
vn 0.5270 0.2749 -0.8042
vn -0.9945 0.0423 -0.0957
vn -0.8054 0.1108 0.5822
vn -0.8702 -0.0457 -0.4905
vn 0.6612 0.1322 -0.7385
vn 0.2914 0.1530 0.9443
vn 0.7710 0.1671 0.6145
vn 0.9967 0.0779 -0.0219
vn -0.6518 0.0826 -0.7539
vn -0.9147 -0.0218 -0.4036
vn 0.8493 0.0827 -0.5214
vn -0.5338 0.1432 0.8334
vn 0.9804 0.0751 0.1819
vn -0.4919 0.0008 -0.8706
vn 0.3349 0.1643 -0.9278
vn -0.9956 0.0647 0.0681
vn -0.6812 -0.0147 -0.7319
vn 0.8936 0.0017 -0.4488
vn 0.5781 0.0466 -0.8146
vn -0.1370 0.1106 0.9844
vn 0.9514 0.0166 -0.3075
vn 0.0628 0.1114 -0.9918
vn -0.9897 0.0221 -0.1413
vn 0.6974 0.0088 -0.7166
vn 0.1523 -0.0253 -0.9880
vn -0.8857 0.1280 0.4462
vn 0.2268 0.1455 0.9630
vn 0.5514 0.1413 0.8222
vn 0.7444 0.1012 0.6600
vn 0.9621 0.0609 0.2660
vn -0.3055 -0.0265 -0.9518
vn -0.8797 -0.0436 -0.4735
vn -0.3023 0.1463 0.9419
vn -0.9981 0.0461 0.0405
vn 0.3941 -0.0577 -0.9172
vn 0.7444 -0.0671 -0.6643
vn -0.7379 -0.0724 -0.6710
vn -0.5259 -0.1075 -0.8437
vn 0.0219 -0.0835 -0.9963
vn 0.4882 -0.0964 -0.8674
vn -0.0449 0.1496 0.9877
vn 0.9527 -0.0443 -0.3006
vn 0.9310 -0.0050 0.3649
vn 0.6779 0.0664 0.7321
vn -0.9645 -0.0446 -0.2603
vn -0.7313 0.1660 0.6615
vn 0.3246 0.1252 0.9375
vn -0.3389 0.1457 0.9294
vn 0.9599 -0.0903 -0.2655
vn -0.9177 0.1212 0.3784
vn 0.3345 0.1152 0.9353
vn 0.1279 0.7120 0.6905
vn 0.7267 -0.1269 -0.6752
vn 0.3399 -0.1456 -0.9291
vn -0.6944 -0.1255 -0.7086
vn -0.9862 -0.0157 0.1646
vn -0.1865 -0.1516 -0.9707
vn 0.8173 -0.1697 -0.5507
vn 0.9862 -0.1329 -0.0984
vn 0.9543 -0.1603 0.2523
vn -0.9794 -0.0939 -0.1788
vn 0.5835 0.0595 0.8099
vn -0.8113 -0.0720 0.5802
vn 0.8203 -0.1541 -0.5508
vn -0.7652 -0.1694 -0.6211
vn -0.4956 -0.1999 -0.8452
vn -0.9266 -0.0218 0.3755
vn -0.4625 0.0581 0.8847
vn 0.8328 -0.2647 -0.4861
vn 0.7188 -0.2570 -0.6460
vn 0.8031 -0.1079 0.5860
vn 0.3196 -0.2482 -0.9145
vn -0.1819 -0.2486 -0.9514
vn -0.8555 -0.2023 -0.4767
vn -0.9008 -0.1327 -0.4135
vn -0.0435 0.0791 0.9959
vn 0.2724 0.0714 0.9595
vn 0.7080 -0.1993 -0.6775
vn 0.8392 -0.3236 -0.4371
vn 0.4773 -0.0718 0.8758
vn -0.5985 -0.2585 -0.7583
vn -0.9948 -0.0995 -0.0200
vn -0.9470 -0.0831 0.3103
vn 0.9943 -0.1037 0.0262
vn 0.7903 -0.2553 -0.5570
vn 0.3712 -0.0012 0.9286
vn -0.8330 -0.1408 0.5351
vn -0.9835 -0.0719 0.1660
vn -0.4695 -0.0667 0.8804
vn 0.8467 -0.2560 -0.4664
vn 0.6411 -0.3543 -0.6808
vn 0.8437 -0.3332 -0.4209
vn 0.5736 -0.0905 0.8142
vn 0.3456 0.0145 0.9383
vn 0.3378 -0.3549 -0.8718
vn -0.3066 -0.3048 -0.9017
vn -0.9400 -0.1823 0.2884
vn 0.0803 0.0516 0.9954
vn 0.8081 -0.0960 -0.5812
vn 0.8597 0.0564 0.5077
vn -0.9363 -0.1558 -0.3147
vn -0.6173 -0.3391 -0.7099
vn -0.8756 -0.2802 -0.3935
vn -0.7451 -0.0983 0.6597
vn -0.9905 -0.1315 -0.0407
vn -0.3006 0.0753 0.9508
vn 0.0340 0.0946 0.9949
vn 0.8993 0.1324 -0.4168
vn 0.9075 -0.2140 -0.3615
vn 0.4035 -0.4974 -0.7680
vn 0.8262 -0.4038 -0.3929
vn 0.1786 0.0569 0.9823
vn -0.3552 -0.5304 -0.7697
vn -0.9906 0.0278 -0.1338
vn -0.9891 -0.0626 -0.1336
vn -0.5322 -0.4912 -0.6896
vn -0.7268 -0.0633 0.6839
vn 0.8077 0.1805 -0.5613
vn 0.9025 -0.1387 -0.4077
vn -0.0485 -0.4936 -0.8683
vn 0.7074 0.0987 0.6999
vn 0.6975 0.0242 0.7161
vn -0.9737 -0.1764 0.1439
vn -0.8906 -0.2606 -0.3727
vn -0.0526 0.2865 0.9566
vn 0.0670 0.2834 0.9566
vn -0.0743 0.1733 0.9821
vn 0.4419 -0.4385 -0.7826
vn 0.9984 0.0554 -0.0146
vn 0.8857 -0.0009 0.4642
vn -0.6543 -0.4825 -0.5823
vn 0.9268 0.1315 -0.3518
vn 0.7551 0.1029 -0.6474
vn 0.8781 0.1867 -0.4406
vn -0.0944 -0.5131 -0.8531
vn 0.7570 -0.1306 -0.6402
vn 0.4623 0.1894 0.8663
vn -0.2992 0.1335 0.9448
vn -0.0725 0.2383 0.9685
vn -0.9178 -0.2402 -0.3162
vn -0.8246 0.1273 0.5512
vn -0.9989 -0.0276 0.0373
vn -0.9432 -0.3320 -0.0142
vn -0.9947 0.0624 0.0821
vn -0.7051 0.3723 -0.6036
vn 0.9841 0.0800 -0.1583
vn 0.8414 0.1083 -0.5295
vn -0.4380 -0.4355 -0.7864
vn 0.4468 -0.4326 -0.7831
vn 0.9914 0.0693 0.1113
vn -0.1684 0.2694 0.9482
vn -0.9880 -0.1523 0.0242
vn -0.4168 0.4067 0.8130
vn -0.9674 0.2485 -0.0491
vn 0.8557 -0.0281 -0.5167
vn 0.9014 0.2193 -0.3735
vn 0.7436 -0.2686 -0.6123
vn -0.0269 -0.3613 -0.9321
vn 0.3021 0.6415 0.7052
vn 0.8889 0.2932 0.3519
vn -0.4635 0.5184 0.7186
vn -0.2994 0.4120 0.8606
vn -0.8545 -0.2869 0.4330
vn -0.9112 -0.3420 -0.2298
vn -0.7087 -0.4463 -0.5464
vn -0.6974 -0.2859 -0.6572
vn -0.6806 0.6215 0.3879
vn -0.9120 0.4075 0.0469
vn -0.3624 -0.9245 -0.1185
vn -0.2850 -0.2035 -0.9367
vn -0.9835 0.0696 0.1668
vn -0.2585 0.7009 0.6648
vn 0.9184 -0.3550 0.1746
vn 0.9157 -0.2106 -0.3422
vn 0.8770 -0.1059 -0.4687
vn 0.8671 -0.1324 -0.4802
vn 0.8802 -0.0144 -0.4745
vn 0.8896 0.0468 -0.4542
vn 0.9726 0.2289 -0.0419
vn -0.4676 0.8180 0.3349
vn -0.9267 -0.3734 -0.0425
vn -0.5089 0.6397 0.5761
vn -0.4159 -0.3318 -0.8467
vn -0.6781 0.7243 0.1252
vn -0.9925 -0.1222 0.0044
vn -0.9644 0.2582 0.0577
vn -0.3970 0.7932 -0.4618
vn 0.9002 -0.4283 0.0785
vn 0.9684 -0.2485 -0.0229
vn 0.8596 0.2082 -0.4666
vn 0.7397 0.2549 -0.6228
vn 0.8292 0.2649 -0.4922
vn 0.8591 0.4596 -0.2251
vn -0.5440 0.8390 0.0133
vn -0.1900 0.8519 0.4881
vn -0.1515 0.1196 0.9812
vn -0.8364 -0.3473 -0.4240
vn -0.5789 -0.2049 -0.7893
vn -0.2359 -0.3871 0.8914
vn -0.7126 0.6581 0.2431
vn -0.7743 0.3822 0.5044
vn 0.9249 -0.3681 -0.0956
vn 0.7509 -0.4498 -0.4835
vn -0.0041 -0.2740 -0.9617
vn 0.5651 0.4871 -0.6659
vn 0.5240 0.8496 0.0599
vn -0.1427 0.9654 0.2183
vn -0.5479 -0.3440 -0.7625
vn -0.5228 -0.2159 -0.8247
vn -0.1174 -0.9895 0.0841
vn -0.2950 0.9540 0.0545
vn -0.3266 0.9449 -0.0214
vn -0.9226 0.1748 -0.3439
vn 0.8248 -0.5222 0.2167
vn 0.9130 -0.2854 -0.2916
vn 0.9982 -0.0600 -0.0058
vn -0.2218 0.0648 -0.9729
vn 0.4577 -0.3442 -0.8198
vn 0.0507 0.8686 -0.4929
vn -0.2345 0.9719 -0.0187
vn -0.3164 0.7167 -0.6214
vn -0.7008 -0.3608 0.6153
vn -0.0483 0.9895 -0.1364
vn -0.6774 0.6605 -0.3239
vn -0.0969 0.9936 0.0586
vn 0.8828 0.3492 -0.3143
vn 0.6029 0.5983 -0.5278
vn -0.4618 0.0218 -0.8867
vn 0.3243 0.5194 -0.7906
vn -0.1356 0.7855 -0.6038
vn -0.8193 -0.1861 -0.5423
vn -0.5572 0.8228 0.1117
vn 0.2040 0.9201 -0.3345
vn 0.9716 0.0036 -0.2366
vn 0.9332 -0.0651 -0.3535
vn 0.8710 0.4288 -0.2400
vn 0.6345 0.7080 -0.3100
vn 0.2696 0.0944 -0.9583
vn -0.1611 0.9397 -0.3017
vn -0.7546 -0.0086 -0.6562
vn -0.3097 0.5899 -0.7457
vn -0.0738 0.9534 -0.2926
vn 0.1691 0.9609 -0.2191
vn 0.8028 0.1162 -0.5848
vn 0.2976 0.8876 -0.3516
vn 0.1024 0.5315 -0.8408
vn -0.0572 0.6066 -0.7929
vn -0.6223 -0.0493 -0.7812
vn 0.6484 0.4257 -0.6312
vn 0.4236 0.7285 -0.5384
vn 0.2264 0.8509 -0.4741
s 1
f 3//1 1//2 2//3
f 1//2 5//4 2//3
f 5//4 1//2 4//5
f 2//3 6//6 3//1
f 7//7 4//5 1//2
f 8//8 5//4 4//5
f 8//8 4//5 11//9
f 9//10 5//4 8//8
f 10//11 1//2 3//1
f 13//12 3//1 6//6
f 7//7 1//2 10//11
f 7//7 11//9 4//5
f 8//8 26//13 12//14
f 12//14 9//10 8//8
f 13//12 10//11 3//1
f 2//3 14//15 6//6
f 26//13 8//8 11//9
f 10//11 16//16 7//7
f 18//17 2//3 5//4
f 18//17 17//18 2//3
f 18//17 5//4 9//10
f 17//18 14//15 2//3
f 19//19 20//20 12//14
f 21//21 9//10 12//14
f 21//21 18//17 9//10
f 13//12 16//16 10//11
f 6//6 22//22 13//12
f 14//15 22//22 6//6
f 23//23 7//7 24//24
f 25//25 7//7 23//23
f 25//25 15//26 7//7
f 15//26 11//9 7//7
f 26//13 11//9 15//26
f 24//24 7//7 16//16
f 12//14 27//27 21//21
f 27//27 12//14 20//20
f 26//13 19//19 12//14
f 18//17 28//28 33//29
f 21//21 28//28 18//17
f 38//30 16//16 13//12
f 30//31 29//32 13//12
f 30//31 13//12 22//22
f 43//33 26//13 15//26
f 18//17 51//34 17//18
f 18//17 33//29 51//34
f 21//21 27//27 34//35
f 26//13 35//36 19//19
f 20//20 19//19 36//37
f 31//38 22//22 14//15
f 17//18 31//38 14//15
f 31//38 40//39 22//22
f 25//25 23//23 41//40
f 15//26 25//25 42//41
f 32//42 43//33 15//26
f 26//13 43//33 35//36
f 19//19 35//36 36//37
f 35//36 44//43 45//44
f 36//37 37//45 20//20
f 34//35 20//20 37//45
f 34//35 37//45 46//46
f 27//27 20//20 34//35
f 34//35 28//28 21//21
f 16//16 38//30 24//24
f 38//30 48//47 24//24
f 48//47 38//30 47//48
f 13//12 29//32 38//30
f 49//49 29//32 30//31
f 50//50 29//32 49//49
f 50//50 39//51 29//32
f 38//30 29//32 39//51
f 30//31 22//22 40//39
f 31//38 17//18 51//34
f 51//34 64//52 31//38
f 64//52 40//39 31//38
f 40//39 52//53 30//31
f 61//54 25//25 41//40
f 23//23 24//24 41//40
f 61//54 42//41 25//25
f 42//41 32//42 15//26
f 32//42 53//55 43//33
f 24//24 48//47 41//40
f 57//56 51//34 33//29
f 44//43 35//36 43//33
f 36//37 35//36 45//44
f 54//57 45//44 44//43
f 37//45 36//37 55//58
f 56//59 46//46 37//45
f 57//56 33//29 28//28
f 38//30 39//51 47//48
f 58//60 48//47 47//48
f 39//51 50//50 59//61
f 59//61 47//48 39//51
f 49//49 30//31 52//53
f 41//40 60//62 61//54
f 32//42 62//63 53//55
f 62//63 32//42 63//64
f 41//40 48//47 79//65
f 65//66 51//34 57//56
f 34//35 46//46 66//67
f 34//35 66//67 28//28
f 68//68 36//37 45//44
f 69//69 37//45 55//58
f 37//45 70//70 56//59
f 67//71 57//56 28//28
f 58//60 47//48 59//61
f 32//42 42//41 61//54
f 63//64 32//42 61//54
f 53//55 44//43 43//33
f 44//43 53//55 54//57
f 63//64 72//72 62//63
f 64//52 51//34 65//66
f 65//66 73//73 64//52
f 54//57 74//74 45//44
f 55//58 36//37 68//68
f 70//70 37//45 69//69
f 76//75 69//69 55//58
f 46//46 56//59 66//67
f 77//76 66//67 56//59
f 78//77 58//60 59//61
f 58//60 80//78 79//65
f 59//61 50//50 81//79
f 52//53 82//80 49//49
f 40//39 82//80 52//53
f 71//81 82//80 40//39
f 40//39 64//52 86//82
f 71//81 40//39 86//82
f 83//83 41//40 79//65
f 60//62 41//40 83//83
f 83//83 61//54 60//62
f 61//54 83//83 63//64
f 54//57 53//55 62//63
f 63//64 84//84 72//72
f 62//63 72//72 85//85
f 58//60 79//65 48//47
f 87//86 86//82 64//52
f 73//73 87//86 64//52
f 87//86 73//73 88//87
f 73//73 65//66 57//56
f 89//88 73//73 57//56
f 57//56 67//71 89//88
f 90//89 89//88 67//71
f 90//89 67//71 28//28
f 90//89 28//28 66//67
f 66//67 91//90 90//89
f 74//74 68//68 45//44
f 54//57 75//91 74//74
f 91//90 66//67 77//76
f 77//76 56//59 70//70
f 78//77 80//78 58//60
f 93//92 78//77 59//61
f 93//92 59//61 81//79
f 49//49 82//80 50//50
f 63//64 83//83 84//84
f 54//57 62//63 85//85
f 73//73 89//88 88//87
f 90//89 94//93 89//88
f 91//90 95//94 90//89
f 55//58 68//68 74//74
f 97//95 75//91 54//57
f 97//95 54//57 85//85
f 76//75 55//58 98//96
f 74//74 98//96 55//58
f 99//97 69//69 76//75
f 100//98 69//69 99//97
f 70//70 69//69 100//98
f 77//76 70//70 101//99
f 70//70 100//98 101//99
f 78//77 93//92 102//100
f 103//101 80//78 78//77
f 102//100 103//101 78//77
f 83//83 79//65 80//78
f 80//78 103//101 92//102
f 82//80 81//79 50//50
f 71//81 86//82 104//103
f 105//104 71//81 104//103
f 84//84 107//105 72//72
f 107//105 85//85 72//72
f 87//86 108//106 86//82
f 94//93 88//87 89//88
f 90//89 95//94 94//93
f 75//91 96//107 74//74
f 74//74 96//107 110//108
f 98//96 99//97 76//75
f 77//76 111//109 91//90
f 91//90 112//110 95//94
f 112//110 109//111 95//94
f 111//109 77//76 113//112
f 113//112 77//76 101//99
f 114//113 101//99 100//98
f 115//114 103//101 102//100
f 92//102 83//83 80//78
f 106//115 83//83 92//102
f 92//102 103//101 116//116
f 81//79 117//117 93//92
f 82//80 117//117 81//79
f 119//118 82//80 71//81
f 71//81 105//104 119//118
f 86//82 118//119 104//103
f 105//104 104//103 120//120
f 118//119 86//82 108//106
f 84//84 83//83 106//115
f 107//105 84//84 121//121
f 121//121 84//84 106//115
f 85//85 107//105 122//122
f 87//86 88//87 134//123
f 94//93 134//123 88//87
f 95//94 123//124 94//93
f 95//94 109//111 123//124
f 124//125 109//111 112//110
f 124//125 123//124 109//111
f 75//91 97//95 96//107
f 96//107 97//95 125//126
f 125//126 110//108 96//107
f 74//74 110//108 98//96
f 126//127 99//97 98//96
f 99//97 126//127 127//128
f 114//113 100//98 99//97
f 128//129 91//90 111//109
f 113//112 129//130 111//109
f 117//117 102//100 93//92
f 137//131 115//114 102//100
f 130//132 92//102 116//116
f 102//100 117//117 131//133
f 117//117 82//80 119//118
f 92//102 130//132 106//115
f 121//121 106//115 130//132
f 85//85 122//122 97//95
f 107//105 121//121 132//134
f 121//121 130//132 133//135
f 122//122 107//105 132//134
f 122//122 125//126 97//95
f 108//106 87//86 134//123
f 134//123 94//93 123//124
f 124//125 135//136 123//124
f 126//127 110//108 125//126
f 98//96 110//108 126//127
f 127//128 114//113 99//97
f 129//130 113//112 136//137
f 113//112 101//99 136//137
f 137//131 102//100 131//133
f 137//131 138//138 115//114
f 139//139 103//101 115//114
f 138//138 139//139 115//114
f 139//139 116//116 103//101
f 116//116 138//138 130//132
f 108//106 142//140 118//119
f 120//120 104//103 118//119
f 131//133 119//118 105//104
f 105//104 120//120 140//141
f 132//134 121//121 133//135
f 122//122 132//134 147//142
f 122//122 147//142 141//143
f 142//140 108//106 134//123
f 142//140 134//123 123//124
f 123//124 135//136 142//140
f 91//90 128//129 112//110
f 126//127 125//126 141//143
f 125//126 122//122 141//143
f 127//128 143//144 114//113
f 144//145 112//110 128//129
f 136//137 101//99 114//113
f 137//131 155//146 145//147
f 137//131 145//147 138//138
f 119//118 131//133 117//117
f 120//120 118//119 146//148
f 146//148 118//119 142//140
f 140//141 131//133 105//104
f 124//125 148//149 135//136
f 141//143 149//150 127//128
f 141//143 127//128 126//127
f 149//150 150//151 127//128
f 143//144 127//128 150//151
f 151//152 128//129 111//109
f 152//153 129//130 136//137
f 153//154 136//137 114//113
f 138//138 145//147 133//135
f 139//139 138//138 116//116
f 138//138 133//135 130//132
f 146//148 142//140 135//136
f 137//131 131//133 140//141
f 155//146 140//141 154//155
f 147//142 132//134 133//135
f 141//143 147//142 164//156
f 141//143 164//156 149//150
f 156//157 135//136 148//149
f 160//158 124//125 112//110
f 148//149 124//125 160//158
f 157//159 146//148 135//136
f 153//154 114//113 143//144
f 149//150 159//160 150//151
f 144//145 160//158 112//110
f 111//109 129//130 151//152
f 151//152 129//130 161//161
f 136//137 162//162 152//153
f 162//162 136//137 153//154
f 143//144 163//163 153//154
f 155//146 137//131 140//141
f 145//147 164//156 133//135
f 146//148 165//164 120//120
f 165//164 140//141 120//120
f 140//141 165//164 154//155
f 156//157 166//165 135//136
f 157//159 135//136 166//165
f 143//144 150//151 158//166
f 143//144 158//166 163//163
f 160//158 144//145 167//167
f 152//153 161//161 129//130
f 168//168 153//154 163//163
f 147//142 133//135 164//156
f 146//148 169//169 165//164
f 146//148 157//159 169//169
f 154//155 170//170 155//146
f 149//150 164//156 159//160
f 148//149 160//158 171//171
f 166//165 172//172 157//159
f 158//166 185//173 163//163
f 159//160 158//166 150//151
f 158//166 159//160 173//174
f 151//152 144//145 128//129
f 144//145 180//175 167//167
f 151//152 180//175 144//145
f 161//161 152//153 162//162
f 162//162 153//154 168//168
f 168//168 163//163 174//176
f 159//160 164//156 145//147
f 155//146 170//170 145//147
f 177//177 170//170 154//155
f 175//178 156//157 148//149
f 175//178 148//149 171//171
f 175//178 166//165 156//157
f 157//159 172//172 169//169
f 158//166 173//174 176//179
f 158//166 176//179 185//173
f 185//173 174//176 163//163
f 170//170 173//174 159//160
f 170//170 177//177 173//174
f 178//180 173//174 177//177
f 160//158 167//167 179//181
f 181//182 151//152 161//161
f 161//161 182//183 181//182
f 161//161 162//162 183//184
f 183//184 182//183 161//161
f 162//162 184//185 183//184
f 159//160 145//147 170//170
f 154//155 165//164 177//177
f 179//181 171//171 160//158
f 169//169 172//172 187//186
f 175//178 188//187 166//165
f 166//165 188//187 172//172
f 189//188 167//167 180//175
f 180//175 151//152 181//182
f 184//185 162//162 168//168
f 177//177 165//164 169//169
f 178//180 177//177 169//169
f 186//189 171//171 179//181
f 187//186 178//180 169//169
f 173//174 190//190 176//179
f 190//190 173//174 178//180
f 189//188 180//175 181//182
f 185//173 176//179 191//191
f 174//176 185//173 191//191
f 186//189 175//178 171//171
f 188//187 192//192 193//193
f 187//186 172//172 188//187
f 188//187 193//193 187//186
f 194//194 187//186 193//193
f 176//179 190//190 195//195
f 195//195 191//191 176//179
f 181//182 196//196 189//188
f 184//185 168//168 199//197
f 183//184 184//185 197//198
f 184//185 199//197 197//198
f 183//184 198//199 182//183
f 168//168 174//176 199//197
f 199//197 174//176 191//191
f 188//187 175//178 186//189
f 200//200 188//187 186//189
f 178//180 187//186 194//194
f 194//194 190//190 178//180
f 201//201 167//167 189//188
f 196//196 181//182 202//202
f 201//201 189//188 203//203
f 196//196 203//203 189//188
f 181//182 182//183 198//199
f 202//202 181//182 198//199
f 199//197 204//204 197//198
f 183//184 197//198 198//199
f 186//189 179//181 205//205
f 200//200 192//192 188//187
f 195//195 190//190 194//194
f 205//205 167//167 201//201
f 205//205 179//181 167//167
f 206//206 207//207 196//196
f 202//202 206//206 196//196
f 207//207 203//203 196//196
f 203//203 205//205 201//201
f 191//191 208//208 199//197
f 208//208 191//191 209//209
f 199//197 208//208 204//204
f 200//200 210//210 192//192
f 200//200 186//189 211//211
f 205//205 211//211 186//189
f 194//194 193//193 212//212
f 198//199 206//206 202//202
f 218//213 213//214 204//204
f 197//198 204//204 213//214
f 214//215 198//199 197//198
f 195//195 194//194 209//209
f 209//209 191//191 195//195
f 215//216 210//210 200//200
f 194//194 212//212 209//209
f 193//193 192//192 210//210
f 206//206 198//199 217//217
f 207//207 206//206 203//203
f 203//203 216//218 205//205
f 197//198 213//214 214//215
f 208//208 218//213 204//204
f 208//208 219//219 218//213
f 210//210 215//216 220//220
f 220//220 221//221 210//210
f 215//216 200//200 211//211
f 212//212 193//193 210//210
f 222//222 211//211 205//205
f 205//205 216//218 222//222
f 203//203 223//223 216//218
f 224//224 213//214 218//213
f 226//225 219//219 208//208
f 214//215 227//226 198//199
f 227//226 217//217 198//199
f 228//227 226//225 208//208
f 208//208 209//209 228//227
f 212//212 228//227 209//209
f 221//221 229//228 210//210
f 212//212 210//210 229//228
f 220//220 215//216 230//229
f 231//230 230//229 215//216
f 228//227 212//212 229//228
f 233//231 203//203 206//206
f 233//231 206//206 232//232
f 233//231 223//223 203//203
f 232//232 206//206 217//217
f 225//233 218//213 219//219
f 214//215 213//214 224//224
f 225//233 224//224 218//213
f 225//233 219//219 234//234
f 217//217 235//235 232//232
f 235//235 217//217 227//226
f 236//236 221//221 220//220
f 237//237 215//216 211//211
f 238//238 237//237 211//211
f 211//211 222//222 238//238
f 216//218 238//238 222//222
f 239//239 214//215 224//224
f 214//215 239//239 227//226
f 240//240 234//234 219//219
f 226//225 240//240 219//219
f 240//240 226//225 228//227
f 235//235 241//241 232//232
f 221//221 236//236 229//228
f 231//230 215//216 237//237
f 216//218 242//242 238//238
f 243//243 238//238 242//242
f 223//223 233//231 244//244
f 244//244 216//218 223//223
f 245//245 239//239 224//224
f 225//233 246//246 224//224
f 245//245 224//224 246//246
f 234//234 240//240 247//247
f 227//226 249//248 235//235
f 241//241 235//235 250//249
f 248//250 228//227 229//228
f 229//228 236//236 251//251
f 230//229 236//236 220//220
f 231//230 237//237 230//229
f 252//252 243//243 242//242
f 216//218 244//244 242//242
f 254//253 232//232 241//241
f 255//254 245//245 246//246
f 256//255 227//226 239//239
f 225//233 234//234 246//246
f 240//240 228//227 248//250
f 247//247 240//240 248//250
f 249//248 250//249 235//235
f 251//251 248//250 229//228
f 237//237 238//238 243//243
f 258//256 230//229 237//237
f 257//257 230//229 259//258
f 259//258 230//229 258//256
f 257//257 236//236 230//229
f 252//252 242//242 261//259
f 260//260 243//243 252//252
f 244//244 261//259 242//242
f 244//244 233//231 280//261
f 280//261 233//231 253//262
f 232//232 254//253 233//231
f 245//245 255//254 262//263
f 246//246 263//264 255//254
f 249//248 227//226 256//255
f 246//246 234//234 263//264
f 247//247 248//250 264//265
f 234//234 247//247 263//264
f 263//264 247//247 265//266
f 254//253 241//241 250//249
f 250//249 276//267 254//253
f 251//251 236//236 267//268
f 269//269 268//270 237//237
f 237//237 243//243 269//269
f 270//271 257//257 259//258
f 252//252 261//259 277//272
f 253//262 233//231 254//253
f 239//239 245//245 262//263
f 255//254 263//264 271//273
f 265//266 247//247 264//265
f 263//264 265//266 272//274
f 248//250 251//251 266//275
f 266//275 251//251 267//268
f 264//265 248//250 266//275
f 250//249 249//248 256//255
f 256//255 273//276 250//249
f 274//277 250//249 273//276
f 267//268 236//236 257//257
f 258//256 237//237 268//270
f 269//269 243//243 260//260
f 259//258 258//256 268//270
f 252//252 278//278 260//260
f 279//279 269//269 260//260
f 260//260 278//278 279//279
f 277//272 261//259 280//261
f 261//259 244//244 280//261
f 281//280 253//262 282//281
f 281//280 280//261 253//262
f 254//253 275//282 253//262
f 255//254 271//273 262//263
f 263//264 272//274 271//273
f 256//255 239//239 262//263
f 265//266 264//265 284//283
f 285//284 286//285 273//276
f 276//267 250//249 274//277
f 274//277 273//276 286//285
f 267//268 257//257 270//271
f 287//286 270//271 259//258
f 287//286 267//268 270//271
f 277//272 278//278 252//252
f 256//255 262//263 283//287
f 271//273 289//288 262//263
f 271//273 272//274 290//289
f 284//283 264//265 292//290
f 284//283 293//291 265//266
f 273//276 256//255 285//284
f 276//267 274//277 294//292
f 275//282 254//253 295//293
f 254//253 276//267 295//293
f 295//293 276//267 296//294
f 294//292 296//294 276//267
f 297//295 259//258 268//270
f 297//295 287//286 259//258
f 299//296 278//278 277//272
f 279//279 278//278 288//297
f 288//297 300//298 279//279
f 306//299 268//270 269//269
f 301//300 306//299 269//269
f 275//282 282//281 253//262
f 289//288 283//287 262//263
f 290//289 303//301 271//273
f 271//273 303//301 291//302
f 272//274 293//291 290//289
f 291//302 289//288 271//273
f 265//266 293//291 272//274
f 266//275 267//268 292//290
f 298//303 292//290 267//268
f 267//268 287//286 298//303
f 292//290 264//265 266//275
f 284//283 292//290 304//304
f 283//287 285//284 256//255
f 285//284 305//305 286//285
f 286//285 305//305 274//277
f 275//282 295//293 302//306
f 268//270 307//307 297//295
f 307//307 268//270 306//299
f 308//308 299//296 277//272
f 277//272 280//261 308//308
f 288//297 278//278 299//296
f 269//269 279//279 301//300
f 309//309 300//298 288//297
f 281//280 282//281 302//306
f 282//281 275//282 302//306
f 283//287 289//288 310//310
f 290//289 293//291 311//311
f 304//304 312//312 284//283
f 312//312 293//291 284//283
f 304//304 292//290 313//313
f 296//294 294//292 315//314
f 330//315 294//292 274//277
f 274//277 305//305 330//315
f 295//293 316//316 317//317
f 296//294 316//316 295//293
f 296//294 315//314 316//316
f 307//307 306//299 318//318
f 319//319 297//295 307//307
f 320//320 287//286 297//295
f 297//295 319//319 320//320
f 287//286 320//320 321//321
f 280//261 281//280 308//308
f 299//296 308//308 322//322
f 288//297 299//296 322//322
f 322//322 323//323 288//297
f 288//297 323//323 309//309
f 279//279 335//324 334//325
f 279//279 334//325 301//300
f 300//298 335//324 279//279
f 309//309 324//326 300//298
f 341//327 308//308 281//280
f 285//284 283//287 310//310
f 291//302 303//301 325//328
f 325//328 326//329 291//302
f 293//291 327//330 311//311
f 311//311 303//301 290//289
f 289//288 328//331 310//310
f 328//331 289//288 291//302
f 310//310 328//331 342//332
f 305//305 285//284 329//333
f 305//305 314//334 330//315
f 330//315 315//314 294//292
f 302//306 295//293 317//317
f 331//335 316//316 315//314
f 332//336 319//319 307//307
f 332//336 307//307 318//318
f 339//337 318//318 306//299
f 292//290 298//303 287//286
f 292//290 287//286 333//338
f 333//338 287//286 321//321
f 324//326 318//318 300//298
f 309//309 323//323 338//339
f 336//340 324//326 337//341
f 338//339 324//326 309//309
f 318//318 324//326 336//340
f 301//300 339//337 306//299
f 301//300 340//342 339//337
f 281//280 302//306 341//327
f 302//306 317//317 341//327
f 285//284 310//310 329//333
f 355//343 303//301 311//311
f 303//301 355//343 325//328
f 343//344 328//331 291//302
f 291//302 326//329 343//344
f 293//291 312//312 327//330
f 355//343 311//311 327//330
f 328//331 344//345 342//332
f 333//338 313//313 292//290
f 342//332 371//346 329//333
f 329//333 310//310 342//332
f 305//305 345//347 314//334
f 345//347 305//305 329//333
f 346//348 314//334 345//347
f 362//349 317//317 316//316
f 362//349 347//350 317//317
f 332//336 318//318 336//340
f 318//318 339//337 348//351
f 349//352 320//320 319//319
f 334//325 340//342 301//300
f 350//353 334//325 335//324
f 351//354 335//324 300//298
f 351//354 300//298 318//318
f 338//339 323//323 322//322
f 338//339 352//355 324//326
f 339//337 340//342 354//356
f 341//327 322//322 308//308
f 327//330 356//357 355//343
f 328//331 343//344 344//345
f 312//312 357//358 327//330
f 304//304 357//358 312//312
f 358//359 304//304 313//313
f 313//313 333//338 358//359
f 329//333 371//346 345//347
f 314//334 346//348 330//315
f 345//347 359//360 346//348
f 360//361 315//314 330//315
f 360//361 361//362 315//314
f 317//317 347//350 341//327
f 331//335 315//314 361//362
f 363//363 321//321 320//320
f 333//338 321//321 372//364
f 335//324 364//365 350//353
f 318//318 348//351 351//354
f 338//339 322//322 365//366
f 338//339 365//366 353//367
f 366//368 336//340 337//341
f 324//326 352//355 337//341
f 352//355 338//339 353//367
f 348//351 339//337 354//356
f 355//343 368//369 325//328
f 368//369 343//344 325//328
f 325//328 343//344 326//329
f 356//357 327//330 357//358
f 356//357 357//358 369//370
f 343//344 370//371 344//345
f 344//345 371//346 342//332
f 358//359 333//338 373//372
f 373//372 333//338 372//364
f 358//359 374//373 304//304
f 357//358 304//304 374//373
f 330//315 346//348 360//361
f 375//374 346//348 359//360
f 346//348 375//374 360//361
f 347//350 376//375 341//327
f 362//349 316//316 331//335
f 377//376 347//350 362//349
f 349//352 363//363 320//320
f 332//336 349//352 319//319
f 321//321 363//363 372//364
f 365//366 322//322 341//327
f 350//353 340//342 334//325
f 378//377 350//353 364//365
f 335//324 351//354 364//365
f 348//351 354//356 351//354
f 367//378 353//367 365//366
f 337//341 379//379 366//368
f 352//355 353//367 367//378
f 367//378 381//380 352//355
f 340//342 350//353 354//356
f 376//375 365//366 341//327
f 355//343 356//357 368//369
f 370//371 343//344 368//369
f 370//371 382//381 344//345
f 383//382 344//345 382//381
f 344//345 383//382 371//346
f 369//370 357//358 374//373
f 373//372 372//364 384//383
f 345//347 371//346 385//384
f 359//360 345//347 385//384
f 360//361 375//374 361//362
f 376//375 347//350 377//376
f 331//335 375//374 362//349
f 377//376 362//349 375//374
f 376//375 377//376 386//385
f 349//352 332//336 387//386
f 336//340 387//386 332//336
f 363//363 349//352 387//386
f 387//386 372//364 363//363
f 378//377 364//365 351//354
f 336//340 366//368 387//386
f 380//387 337//341 352//355
f 379//379 337//341 380//387
f 352//355 381//380 380//387
f 381//380 367//378 388//388
f 378//377 354//356 350//353
f 351//354 354//356 378//377
f 356//357 369//370 390//389
f 369//370 391//390 389//391
f 390//389 369//370 389//391
f 390//389 382//381 370//371
f 389//391 382//381 390//389
f 402//392 383//382 382//381
f 374//373 391//390 369//370
f 392//393 374//373 358//359
f 392//393 358//359 373//372
f 385//384 371//346 383//382
f 361//362 375//374 331//335
f 386//385 393//394 376//375
f 387//386 366//368 394//395
f 394//395 372//364 387//386
f 395//396 394//395 366//368
f 396//397 379//379 380//387
f 379//379 395//396 366//368
f 381//380 388//388 397//398
f 367//378 393//394 388//388
f 356//357 390//389 368//369
f 370//371 368//369 390//389
f 391//390 399//399 389//391
f 389//391 402//392 382//381
f 402//392 398//400 383//382
f 388//388 383//382 398//400
f 399//399 374//373 392//393
f 391//390 374//373 399//399
f 394//395 384//383 372//364
f 392//393 373//372 400//401
f 384//383 401//402 373//372
f 377//376 385//384 386//385
f 375//374 385//384 377//376
f 385//384 383//382 386//385
f 385//384 375//374 359//360
f 376//375 393//394 365//366
f 386//385 388//388 393//394
f 386//385 383//382 388//388
f 367//378 365//366 393//394
f 404//403 394//395 395//396
f 380//387 381//380 396//397
f 396//397 395//396 379//379
f 397//398 396//397 381//380
f 389//391 399//399 403//404
f 399//399 392//393 403//404
f 404//403 384//383 394//395
f 373//372 401//402 400//401
f 388//388 398//400 397//398
f 406//405 389//391 403//404
f 402//392 389//391 406//405
f 402//392 406//405 398//400
f 403//404 392//393 400//401
f 406//405 403//404 400//401
f 401//402 406//405 400//401
f 384//383 404//403 395//396
f 405//406 396//397 397//398
f 405//406 395//396 396//397
f 397//398 398//400 405//406
f 398//400 406//405 401//402
f 384//383 395//396 401//402
f 401//402 405//406 398//400
f 405//406 401//402 395//396
