# Blender 4.0.2
# www.blender.org
mtllib 4midph_l.mtl
o 4midph_l.002
v -0.001097 -0.003011 0.000893
v -0.001150 -0.003200 0.001389
v -0.000161 -0.003440 0.001231
v -0.000289 -0.003370 0.000666
v -0.001838 -0.003303 0.001345
v -0.001233 -0.003507 -0.000323
v -0.002582 -0.003639 -0.000173
v -0.002506 -0.003271 0.001072
v -0.000397 -0.003696 -0.000341
v 0.001230 -0.004182 0.001220
v -0.003036 -0.003649 -0.000711
v -0.001220 -0.003516 -0.001220
v -0.003491 -0.003339 0.000315
v -0.002595 -0.003711 0.001833
v -0.003029 -0.003452 0.001508
v -0.000407 -0.003616 -0.001442
v 0.000617 -0.004194 -0.000018
v -0.000420 -0.004143 0.001984
v 0.001283 -0.004240 0.000637
v -0.001577 -0.004578 0.002424
v -0.000868 -0.002645 -0.002483
v -0.004146 -0.003285 0.000935
v -0.004598 -0.003320 -0.000539
v -0.003885 -0.004109 0.001787
v -0.002478 -0.004515 0.002247
v 0.000395 -0.004199 -0.000963
v 0.001468 -0.004546 -0.000827
v -0.000653 -0.004850 0.002435
v 0.001193 -0.004415 0.001628
v -0.003570 -0.003140 -0.002382
v -0.002220 -0.003363 -0.001923
v -0.000094 -0.002859 -0.002617
v -0.004519 -0.003779 0.001387
v -0.004964 -0.003671 0.000924
v -0.005208 -0.003705 0.000483
v -0.005293 -0.004072 -0.000592
v -0.004612 -0.003242 -0.001258
v -0.003409 -0.005472 0.001903
v -0.002022 -0.005144 0.002314
v -0.004402 -0.005111 0.001574
v 0.000471 -0.003759 -0.002177
v 0.001118 -0.004314 -0.001769
v 0.002519 -0.004538 -0.001533
v -0.000872 -0.005316 0.002429
v 0.000692 -0.005103 0.002078
v 0.001792 -0.005045 0.001876
v -0.002600 -0.003045 -0.002712
v -0.000451 -0.002536 -0.002903
v -0.001122 -0.002441 -0.002930
v -0.005550 -0.004989 -0.001563
v -0.005605 -0.004518 -0.000106
v -0.005360 -0.004497 0.000777
v -0.004608 -0.003338 -0.001837
v -0.003939 -0.003235 -0.002502
v -0.003133 -0.006127 0.001772
v -0.002036 -0.006559 0.001562
v -0.004993 -0.004582 0.001227
v 0.001101 -0.003562 -0.002928
v 0.002377 -0.004225 -0.002352
v 0.002710 -0.004719 -0.000244
v 0.002767 -0.004811 0.000635
v 0.001376 -0.006463 0.001844
v 0.001766 -0.005759 0.001963
v 0.002825 -0.005034 0.001110
v -0.002856 -0.003208 -0.003192
v -0.001893 -0.002810 -0.003332
v -0.005671 -0.004903 -0.000801
v -0.004277 -0.003524 -0.002590
v -0.001724 -0.007917 0.001148
v -0.005181 -0.005828 0.000845
v -0.003260 -0.007370 0.000980
v -0.005098 -0.008074 0.000034
v 0.000920 -0.003455 -0.003339
v 0.002322 -0.004238 -0.002804
v 0.003187 -0.004975 -0.001519
v 0.003061 -0.004775 -0.000941
v -0.000986 -0.007103 0.001667
v 0.002632 -0.006004 0.001562
v -0.002591 -0.003925 -0.003973
v -0.000610 -0.002965 -0.003854
v -0.001567 -0.002970 -0.003835
v -0.005296 -0.005108 -0.002077
v -0.005515 -0.006135 0.000192
v -0.005176 -0.005911 -0.002457
v -0.004206 -0.004280 -0.002999
v -0.002492 -0.009166 0.000463
v -0.004649 -0.008671 0.000073
v 0.000235 -0.003407 -0.003989
v 0.002650 -0.004980 -0.002919
v 0.002823 -0.004802 -0.002510
v 0.003646 -0.005689 -0.000087
v 0.003261 -0.005086 0.000496
v 0.003827 -0.006431 -0.000839
v 0.003557 -0.006438 -0.001792
v 0.000730 -0.007992 0.001054
v -0.000760 -0.008584 0.000888
v 0.002359 -0.007358 0.001147
v 0.003117 -0.005997 0.001129
v -0.001991 -0.003351 -0.004058
v -0.005733 -0.005874 -0.001076
v -0.004968 -0.010334 -0.000363
v -0.005533 -0.007920 -0.000715
v -0.005141 -0.010435 -0.000641
v 0.001244 -0.004768 -0.004160
v 0.002564 -0.005778 -0.003065
v 0.003308 -0.005383 0.000785
v 0.001041 -0.009563 0.000315
v 0.003542 -0.006071 0.000546
v -0.001810 -0.004037 -0.004420
v -0.002539 -0.004791 -0.004103
v -0.001275 -0.003516 -0.004348
v -0.005419 -0.006687 -0.002170
v -0.003737 -0.005092 -0.003461
v -0.002745 -0.010679 -0.000067
v -0.001983 -0.011453 -0.000058
v -0.004445 -0.010795 -0.000350
v -0.005452 -0.008161 -0.001448
v -0.005353 -0.009724 -0.001045
v 0.001258 -0.006380 -0.004004
v 0.001882 -0.008481 -0.003284
v 0.003758 -0.007165 -0.000604
v -0.000507 -0.010011 0.000271
v -0.000045 -0.010520 -0.000065
v 0.002926 -0.007956 0.000564
v 0.003372 -0.007208 0.000420
v -0.001315 -0.004682 -0.004646
v -0.000073 -0.003941 -0.004432
v -0.000118 -0.004786 -0.004626
v -0.005111 -0.007634 -0.002614
v -0.004177 -0.007703 -0.003163
v -0.002970 -0.006369 -0.003800
v -0.001334 -0.012148 -0.000225
v -0.004146 -0.013037 -0.000860
v -0.003546 -0.014653 -0.001261
v -0.004865 -0.011851 -0.000752
v -0.005028 -0.009263 -0.002554
v -0.005126 -0.011173 -0.001461
v -0.000128 -0.006660 -0.004418
v 0.000516 -0.008406 -0.004127
v 0.003611 -0.007472 -0.001275
v 0.003146 -0.008202 -0.002117
v 0.001032 -0.011972 -0.000277
v 0.001662 -0.010194 0.000139
v 0.002375 -0.009391 0.000237
v -0.001934 -0.007402 -0.004206
v -0.000743 -0.005558 -0.004681
v -0.000802 -0.012274 -0.000436
v -0.002719 -0.015358 -0.001048
v -0.004639 -0.013969 -0.001263
v -0.004884 -0.010883 -0.002709
v -0.000431 -0.013253 -0.000782
v 0.002227 -0.010987 -0.000523
v 0.001942 -0.011984 -0.000663
v -0.001361 -0.007541 -0.004337
v -0.004387 -0.010359 -0.003389
v -0.001792 -0.009504 -0.004405
v -0.004510 -0.015550 -0.001813
v -0.004961 -0.013133 -0.002601
v 0.001132 -0.010883 -0.003785
v 0.002738 -0.010154 -0.000889
v 0.002754 -0.009895 -0.001871
v 0.000799 -0.013385 -0.000725
v 0.001411 -0.013423 -0.000998
v -0.003550 -0.010964 -0.004016
v -0.003158 -0.012327 -0.004380
v -0.001937 -0.012643 -0.004807
v -0.001924 -0.016951 -0.001229
v -0.002156 -0.018306 -0.001409
v -0.004809 -0.015264 -0.002142
v -0.004889 -0.016173 -0.002873
v -0.004330 -0.012592 -0.003601
v -0.004626 -0.014884 -0.003420
v 0.001802 -0.011278 -0.002978
v 0.000111 -0.012357 -0.004451
v -0.000833 -0.011308 -0.004621
v 0.001886 -0.012749 -0.001361
v 0.000446 -0.016140 -0.001710
v -0.000503 -0.014206 -0.000987
v 0.002087 -0.011334 -0.002415
v -0.003567 -0.018236 -0.001606
v -0.004210 -0.016629 -0.001754
v -0.004788 -0.017294 -0.002283
v 0.000474 -0.014605 -0.004320
v -0.000617 -0.015074 -0.004830
v 0.001639 -0.013467 -0.002243
v 0.000800 -0.016212 -0.001884
v -0.003575 -0.014811 -0.004445
v -0.001573 -0.015121 -0.004972
v -0.002341 -0.015967 -0.005019
v -0.005023 -0.019252 -0.002109
v -0.003199 -0.020144 -0.001549
v -0.002269 -0.021819 -0.001783
v -0.005090 -0.018224 -0.003217
v -0.004090 -0.017225 -0.004316
v 0.001361 -0.013871 -0.002993
v 0.000802 -0.014849 -0.003944
v 0.000984 -0.017049 -0.002649
v 0.000971 -0.016680 -0.003223
v 0.000587 -0.017462 -0.002058
v -0.003006 -0.017776 -0.004991
v -0.005437 -0.019811 -0.002664
v -0.000957 -0.017536 -0.001517
v -0.003264 -0.021416 -0.001615
v 0.000121 -0.020547 -0.001981
v -0.000734 -0.021529 -0.001715
v 0.000185 -0.018404 -0.001937
v -0.004027 -0.019727 -0.001703
v -0.004669 -0.018485 -0.003969
v 0.000346 -0.016342 -0.004392
v 0.000924 -0.018614 -0.002675
v 0.000839 -0.018800 -0.003485
v -0.004527 -0.019574 -0.004278
v -0.005010 -0.020626 -0.001772
v -0.003835 -0.022091 -0.001406
v 0.000832 -0.021219 -0.002305
v 0.000636 -0.019670 -0.002166
v 0.000301 -0.021939 -0.001777
v -0.005584 -0.020974 -0.003473
v -0.004975 -0.020133 -0.003907
v -0.003510 -0.020159 -0.004867
v -0.001357 -0.017496 -0.005094
v -0.000485 -0.016912 -0.004888
v -0.005506 -0.020581 -0.002062
v -0.002713 -0.023354 -0.001456
v -0.005017 -0.023188 -0.000816
v -0.000680 -0.022861 -0.001447
v -0.006062 -0.021817 -0.002558
v -0.005626 -0.021783 -0.004123
v 0.000094 -0.018088 -0.004512
v 0.000924 -0.020797 -0.002884
v 0.000430 -0.021159 -0.003946
v -0.003236 -0.021991 -0.004874
v -0.004112 -0.022159 -0.004876
v -0.004568 -0.020963 -0.004529
v -0.002456 -0.019924 -0.005082
v -0.005573 -0.023176 -0.001045
v -0.004653 -0.023511 -0.000822
v -0.003581 -0.023808 -0.001318
v -0.000065 -0.024070 -0.001119
v 0.001135 -0.023037 -0.002936
v 0.001132 -0.023202 -0.002408
v 0.000927 -0.024696 -0.001537
v 0.000445 -0.023840 -0.001292
v -0.005802 -0.022756 -0.004176
v -0.005387 -0.022387 -0.004583
v -0.000380 -0.020236 -0.004742
v -0.005013 -0.023094 -0.004916
v -0.005309 -0.024026 -0.000821
v -0.005920 -0.022131 -0.001872
v -0.003981 -0.024566 -0.001424
v 0.000499 -0.024596 -0.001217
v -0.002600 -0.024349 -0.001574
v 0.000629 -0.022636 -0.004290
v 0.001086 -0.024685 -0.002301
v -0.006146 -0.022717 -0.002587
v -0.000275 -0.021555 -0.004697
v -0.004551 -0.024395 -0.004995
v -0.003403 -0.024140 -0.004906
v -0.001882 -0.022550 -0.005001
v -0.001183 -0.021712 -0.004958
v -0.005704 -0.024640 -0.001271
v -0.005942 -0.024254 -0.001612
v -0.004670 -0.025482 -0.001763
v 0.000059 -0.024976 -0.001291
v -0.001576 -0.025421 -0.001887
v -0.002704 -0.025207 -0.001905
v 0.000462 -0.023724 -0.004490
v 0.001045 -0.025227 -0.002288
v 0.000858 -0.025502 -0.001900
v -0.005828 -0.025033 -0.002609
v -0.004963 -0.025234 -0.004646
v 0.000139 -0.023201 -0.004932
v -0.003452 -0.025302 -0.004630
v -0.005296 -0.024721 -0.001154
v 0.000489 -0.025486 -0.001555
v -0.001967 -0.026094 -0.002703
v -0.000703 -0.025818 -0.001965
v -0.003064 -0.025631 -0.002250
v 0.000453 -0.025655 -0.003622
v 0.000686 -0.025768 -0.002974
v -0.005244 -0.025733 -0.004074
v -0.000976 -0.024395 -0.005255
v -0.000668 -0.025740 -0.004940
v -0.000953 -0.026254 -0.004485
v -0.003550 -0.025664 -0.004406
v -0.004906 -0.026260 -0.002594
v 0.000014 -0.026312 -0.002481
v -0.002604 -0.026145 -0.003235
v -0.000645 -0.026621 -0.003307
v -0.003930 -0.026307 -0.003295
v 0.000139 -0.026424 -0.003028
v -0.000129 -0.026368 -0.004342
v -0.005449 -0.025966 -0.002815
v -0.004223 -0.025978 -0.004210
v -0.000386 -0.025276 -0.005093
v -0.005403 -0.025681 -0.002253
v -0.004705 -0.026369 -0.003569
v 0.000140 -0.026040 -0.004376
v -0.000936 -0.026559 -0.003758
v -0.000098 -0.025741 -0.004813
v -0.005140 -0.026263 -0.003180
vn 0.0843 0.9964 -0.0025
vn 0.0714 0.8196 0.5685
vn 0.3963 0.8332 0.3857
vn 0.4169 0.8915 -0.1772
vn -0.1267 0.8916 0.4348
vn 0.0333 0.9819 -0.1864
vn 0.0054 0.9855 -0.1694
vn -0.0726 0.9952 0.0649
vn 0.3842 0.9107 -0.1514
vn 0.4071 0.8681 0.2839
vn 0.0212 0.9682 0.2493
vn 0.1154 0.9921 0.0482
vn 0.0998 0.9832 -0.1527
vn -0.0904 0.6153 0.7831
vn -0.1297 0.8003 0.5854
vn 0.3925 0.8517 0.3471
vn 0.3865 0.8935 -0.2287
vn 0.2223 0.5691 0.7917
vn 0.3361 0.9313 -0.1400
vn -0.0306 0.2460 0.9688
vn 0.0501 0.8555 0.5153
vn -0.1931 0.9290 0.3156
vn -0.3255 0.9452 0.0232
vn -0.3181 0.3156 0.8940
vn -0.2186 0.1782 0.9594
vn 0.4285 0.9006 0.0734
vn 0.2040 0.9788 0.0190
vn 0.1530 0.1870 0.9704
vn 0.3099 0.6729 0.6717
vn -0.0874 0.9265 0.3660
vn -0.0660 0.9978 0.0004
vn 0.4683 0.7619 0.4475
vn -0.4092 0.4966 0.7655
vn -0.6273 0.6190 0.4725
vn -0.7531 0.6373 0.1634
vn -0.8277 0.5392 -0.1552
vn -0.4813 0.8765 -0.0113
vn -0.3264 -0.2199 0.9193
vn -0.1714 -0.2177 0.9608
vn -0.4559 -0.1441 0.8783
vn 0.4706 0.7250 0.5029
vn 0.2728 0.8996 0.3410
vn 0.3123 0.9348 0.1694
vn 0.4328 0.9001 0.0501
vn 0.2254 0.2505 0.9415
vn -0.0061 -0.1901 0.9818
vn 0.3671 0.3823 0.8480
vn -0.2188 0.9680 0.1232
vn 0.3228 0.9462 0.0224
vn -0.1035 0.9945 0.0153
vn -0.9096 0.2631 -0.3216
vn -0.9662 0.2478 0.0705
vn -0.8768 0.1194 0.4658
vn -0.3472 0.8512 -0.3936
vn -0.6602 0.7033 -0.2638
vn -0.3268 -0.3942 0.8589
vn -0.1157 -0.3803 0.9176
vn -0.6553 0.0516 0.7536
vn 0.4491 0.8562 0.2556
vn 0.4905 0.8612 0.1331
vn 0.4733 0.8604 0.1887
vn 0.2908 -0.0878 0.9528
vn 0.1716 -0.3716 0.9124
vn 0.5924 0.5584 0.5807
vn -0.4012 0.7850 -0.4721
vn -0.3556 0.8775 -0.3217
vn -0.9681 0.2353 -0.0859
vn -0.6199 0.5207 -0.5870
vn -0.1125 -0.4184 0.9013
vn -0.7016 -0.2054 0.6823
vn -0.3798 -0.4121 0.8282
vn -0.6572 -0.2362 0.7157
vn 0.5406 0.7820 -0.3101
vn 0.6594 0.6500 -0.3777
vn 0.8682 0.4926 -0.0591
vn 0.6704 0.7413 0.0312
vn -0.0879 -0.4217 0.9024
vn 0.5353 -0.0803 0.8409
vn -0.5160 0.3024 -0.8015
vn 0.1645 0.7642 -0.6236
vn -0.1858 0.7795 -0.5982
vn -0.8033 0.2258 -0.5512
vn -0.9277 -0.1180 0.3541
vn -0.7240 0.0919 -0.6837
vn -0.6351 0.2240 -0.7393
vn -0.1979 -0.3277 0.9238
vn -0.2925 -0.2353 0.9269
vn 0.3882 0.6496 -0.6537
vn 0.8496 0.3789 -0.3669
vn 0.9387 0.3384 0.0657
vn 0.7401 0.6573 0.1422
vn 0.9904 0.1167 -0.0744
vn 0.9021 0.0694 -0.4259
vn 0.0900 -0.4448 0.8911
vn 0.0094 -0.4095 0.9123
vn 0.3198 -0.3881 0.8643
vn 0.7152 -0.0370 0.6979
vn 0.8093 0.3120 0.4977
vn -0.3808 0.5665 -0.7308
vn -0.9973 -0.0152 -0.0715
vn -0.9140 -0.0274 -0.4048
vn -0.5505 -0.2058 0.8091
vn -0.9065 -0.1762 0.3837
vn -0.9767 -0.1224 0.1762
vn 0.5114 0.1887 -0.8383
vn 0.8023 0.1748 -0.5707
vn 0.7245 -0.0186 -0.6890
vn 0.0099 -0.3443 0.9388
vn 0.9102 -0.0059 0.4141
vn -0.3238 0.2118 -0.9221
vn -0.4595 0.0236 -0.8879
vn -0.0545 0.4719 -0.8800
vn 0.2162 0.3758 -0.9011
vn -0.2214 -0.2543 0.9414
vn -0.1233 -0.2474 0.9610
vn -0.1951 -0.2333 0.9526
vn -0.9915 -0.1290 0.0168
vn -0.9794 -0.0782 -0.1862
vn 0.4672 -0.0861 -0.8799
vn 0.6248 -0.0673 -0.7779
vn 0.9729 -0.2013 0.1140
vn 0.1457 -0.3765 0.9149
vn 0.0807 -0.3186 0.9444
vn 0.6673 -0.3770 0.6423
vn 0.8171 -0.2693 0.5097
vn -0.1786 0.0755 -0.9810
vn -0.5556 0.0609 -0.8292
vn -0.7528 -0.0434 -0.6568
vn -0.5509 0.0546 -0.8328
vn -0.4283 -0.0205 -0.9034
vn 0.1289 -0.2538 0.9586
vn -0.1839 -0.2651 0.9465
vn -0.2920 -0.2278 0.9289
vn -0.6093 -0.2444 0.7544
vn -0.8691 -0.0178 -0.4944
vn -0.9957 -0.0744 -0.0553
vn 0.1945 0.0721 -0.9782
vn 0.1823 -0.1253 -0.9752
vn 0.3389 -0.0299 -0.9403
vn 0.9531 -0.2106 -0.2175
vn 0.8336 -0.1479 -0.5322
vn 0.1439 -0.2965 0.9441
vn 0.2059 -0.3359 0.9191
vn 0.5620 -0.3993 0.7243
vn -0.3067 0.0019 -0.9518
vn 0.0043 -0.0859 -0.9963
vn -0.6659 0.0761 -0.7421
vn 0.1765 -0.2663 0.9476
vn -0.2521 -0.1537 0.9554
vn -0.5739 -0.2810 0.7692
vn -0.9128 -0.0098 -0.4084
vn 0.1013 -0.2528 0.9622
vn 0.7265 -0.3329 0.6011
vn 0.7054 -0.3487 0.6171
vn -0.0827 -0.0334 -0.9960
vn -0.4626 0.1190 -0.8786
vn -0.1903 0.0826 -0.9783
vn -0.5939 -0.1501 0.7904
vn -0.9108 -0.1371 0.3894
vn -0.9489 0.0160 -0.3151
vn 0.5906 -0.0223 -0.8067
vn 0.9196 -0.3339 0.2071
vn 0.9237 -0.2905 -0.2499
vn 0.1601 -0.3224 0.9330
vn 0.6791 -0.3878 0.6232
vn 0.9220 -0.3642 0.1316
vn -0.4218 0.1042 -0.9007
vn 0.0934 -0.1545 0.9836
vn 0.0344 -0.0971 0.9947
vn -0.9981 0.0560 -0.0255
vn -0.7235 0.0574 -0.6880
vn -0.8275 0.0543 -0.5589
vn 0.8158 -0.1355 -0.5623
vn 0.1708 0.0759 -0.9824
vn 0.3575 0.0687 -0.9314
vn 0.3047 -0.2541 0.9179
vn 0.1630 -0.2573 0.9525
vn 0.9038 -0.2430 -0.3523
vn -0.0932 0.0928 -0.9913
vn 0.2809 0.0524 -0.9583
vn -0.2425 -0.0426 0.9692
vn -0.4815 -0.0603 0.8744
vn -0.8319 0.1071 0.5444
vn 0.5931 -0.0066 -0.8051
vn 0.9697 -0.2369 -0.0603
vn 0.6085 -0.3041 0.7330
vn -0.5224 0.0900 -0.8479
vn 0.0693 0.0688 -0.9952
vn -0.1669 0.0725 -0.9833
vn -0.6466 0.1634 0.7451
vn -0.0331 -0.0166 0.9993
vn 0.0526 0.0693 0.9962
vn -0.9087 0.1481 -0.3903
vn -0.6403 0.0896 -0.7629
vn 0.9298 -0.1389 -0.3409
vn 0.8267 -0.0674 -0.5586
vn 0.9719 -0.1363 0.1918
vn 0.9505 -0.0866 -0.2984
vn 0.6329 -0.1392 0.7617
vn 0.2402 -0.1422 0.9603
vn -0.2911 0.0468 -0.9556
vn -0.9613 0.2481 0.1200
vn 0.0759 0.0959 0.9925
vn 0.3252 0.0376 0.9449
vn 0.4465 -0.0533 0.8932
vn -0.2302 0.0774 0.9701
vn -0.7716 0.1525 -0.6175
vn 0.6895 -0.0216 -0.7239
vn 0.9548 -0.0092 0.2972
vn 0.9209 -0.0393 -0.3878
vn -0.6029 0.1116 -0.7900
vn -0.3036 0.0473 -0.9516
vn -0.2980 0.2417 0.9235
vn 0.2719 -0.0023 0.9623
vn 0.1680 0.1764 0.9699
vn 0.8253 0.1121 0.5534
vn 0.6261 0.0254 0.7793
vn 0.3239 0.2233 0.9194
vn -0.7267 0.2035 -0.6561
vn -0.8995 0.2831 -0.3327
vn 0.0955 0.0090 -0.9954
vn 0.3674 0.0163 -0.9299
vn -0.7533 0.3057 0.5823
vn 0.0543 0.0506 0.9972
vn -0.0881 0.2133 0.9730
vn 0.0126 0.2338 0.9722
vn -0.8227 0.2763 -0.4968
vn -0.9775 0.2095 0.0259
vn 0.6605 -0.0534 -0.7489
vn 0.9937 0.0228 -0.1096
vn 0.7932 0.1144 -0.5981
vn -0.0624 -0.0079 -0.9980
vn -0.0950 0.0939 -0.9910
vn -0.4635 0.2153 -0.8595
vn -0.0739 -0.0196 -0.9971
vn -0.6498 0.1583 0.7434
vn 0.2537 -0.0403 0.9664
vn 0.2516 -0.0990 0.9628
vn 0.0370 0.0588 0.9976
vn 0.9855 0.0103 -0.1693
vn 0.9787 0.0680 0.1936
vn 0.8054 -0.0991 0.5844
vn 0.4295 0.2104 0.8782
vn -0.8752 0.1869 0.4462
vn -0.8842 0.0042 -0.4671
vn -0.5890 0.1776 -0.7884
vn 0.5212 -0.0187 -0.8532
vn -0.3961 0.0263 -0.9178
vn -0.2503 -0.2059 0.9460
vn 0.2080 -0.3860 0.8988
vn 0.3553 -0.1119 0.9280
vn -0.0060 -0.2611 0.9653
vn 0.9950 -0.0830 -0.0561
vn -1.0000 0.0037 -0.0015
vn 0.4782 0.1331 -0.8681
vn 0.8315 0.1158 -0.5433
vn -0.1580 -0.1532 -0.9755
vn -0.0260 -0.0819 -0.9963
vn -0.0700 0.0403 -0.9967
vn 0.1410 0.0472 -0.9889
vn -0.6790 -0.4192 0.6027
vn -0.9470 -0.1355 0.2912
vn -0.0513 -0.3659 0.9292
vn -0.0039 -0.4828 0.8757
vn -0.1706 -0.5683 0.8049
vn 0.0158 -0.6391 0.7690
vn 0.8569 -0.1016 -0.5053
vn 0.9655 -0.2565 -0.0455
vn 0.7432 -0.5485 0.3832
vn -0.9576 -0.2853 -0.0390
vn -0.4469 -0.3784 -0.8106
vn 0.5247 0.0787 -0.8476
vn -0.0677 -0.3940 -0.9166
vn -0.0513 -0.5611 0.8261
vn 0.2817 -0.5817 0.7630
vn -0.1758 -0.8555 0.4870
vn -0.1451 -0.6840 0.7149
vn 0.0500 -0.7834 0.6195
vn 0.8997 -0.3175 -0.2996
vn 0.8619 -0.4573 -0.2191
vn -0.6798 -0.5166 -0.5206
vn 0.0214 -0.0556 -0.9982
vn -0.0130 -0.4787 -0.8779
vn -0.1190 -0.7900 -0.6015
vn -0.0107 -0.6940 -0.7199
vn -0.1728 -0.8905 0.4208
vn 0.1964 -0.8703 0.4517
vn -0.0010 -0.9926 0.1217
vn -0.1340 -0.9852 0.1069
vn 0.1394 -0.9819 0.1280
vn 0.5323 -0.8463 0.0179
vn 0.3982 -0.8051 -0.4395
vn 0.8074 -0.4573 -0.3728
vn -0.7930 -0.6028 0.0881
vn 0.0011 -0.7478 -0.6640
vn 0.2708 -0.1968 -0.9423
vn -0.5907 -0.6485 0.4802
vn -0.1254 -0.9725 -0.1963
vn -0.1665 -0.9425 -0.2897
vn 0.5277 -0.3642 -0.7674
vn -0.5372 -0.8392 -0.0851
s 1
f 1//1 2//2 3//3
f 3//3 4//4 1//1
f 2//2 1//1 5//5
f 6//6 7//7 1//1
f 8//8 1//1 7//7
f 1//1 8//8 5//5
f 1//1 9//9 6//6
f 9//9 1//1 4//4
f 3//3 10//10 4//4
f 12//11 11//12 7//7
f 6//6 12//11 7//7
f 7//7 13//13 8//8
f 2//2 5//5 14//14
f 5//5 8//8 15//15
f 15//15 14//14 5//5
f 6//6 9//9 16//16
f 4//4 17//17 9//9
f 18//18 3//3 2//2
f 4//4 19//19 17//17
f 19//19 4//4 10//10
f 3//3 18//18 10//10
f 2//2 14//14 20//20
f 18//18 2//2 20//20
f 7//7 11//12 13//13
f 12//11 16//16 21//21
f 6//6 16//16 12//11
f 15//15 8//8 22//22
f 13//13 22//22 8//8
f 13//13 23//23 22//22
f 11//12 23//23 13//13
f 14//14 24//24 25//25
f 24//24 14//14 15//15
f 26//26 16//16 9//9
f 17//17 26//26 9//9
f 17//17 27//27 26//26
f 19//19 27//27 17//17
f 18//18 20//20 28//28
f 28//28 29//29 18//18
f 10//10 18//18 29//29
f 14//14 25//25 20//20
f 31//30 30//31 11//12
f 11//12 12//11 31//30
f 31//30 12//11 21//21
f 30//31 23//23 11//12
f 32//32 21//21 16//16
f 24//24 15//15 22//22
f 22//22 33//33 24//24
f 34//34 33//33 22//22
f 35//35 22//22 23//23
f 22//22 35//35 34//34
f 36//36 23//23 37//37
f 23//23 36//36 35//35
f 30//31 37//37 23//23
f 24//24 38//38 25//25
f 38//38 39//39 25//25
f 20//20 25//25 39//39
f 40//40 38//38 24//24
f 41//41 16//16 42//42
f 16//16 26//26 42//42
f 42//42 26//26 27//27
f 27//27 43//43 42//42
f 27//27 60//44 43//43
f 60//44 27//27 19//19
f 45//45 29//29 28//28
f 28//28 44//46 45//45
f 28//28 39//39 44//46
f 28//28 20//20 39//39
f 45//45 46//47 29//29
f 31//30 21//21 47//48
f 16//16 41//41 32//32
f 32//32 48//49 21//21
f 48//49 49//50 21//21
f 47//48 21//21 49//50
f 50//51 36//36 37//37
f 36//36 51//52 35//35
f 35//35 51//52 52//53
f 54//54 53//55 37//37
f 37//37 30//31 54//54
f 55//56 39//39 38//38
f 56//57 39//39 55//56
f 40//40 24//24 57//58
f 24//24 33//33 57//58
f 42//42 58//59 41//41
f 58//59 32//32 41//41
f 59//60 42//42 43//43
f 42//42 59//60 58//59
f 60//44 19//19 10//10
f 60//44 10//10 61//61
f 45//45 44//46 63//62
f 63//62 44//46 62//63
f 10//10 29//29 64//64
f 46//47 64//64 29//29
f 64//64 61//61 10//10
f 63//62 46//47 45//45
f 47//48 30//31 31//30
f 65//65 30//31 47//48
f 54//54 30//31 65//65
f 65//65 47//48 49//50
f 65//65 49//50 66//66
f 57//58 33//33 34//34
f 57//58 34//34 52//53
f 52//53 34//34 35//35
f 67//67 51//52 36//36
f 36//36 50//51 67//67
f 37//37 53//55 50//51
f 54//54 68//68 53//55
f 55//56 69//69 56//57
f 57//58 70//70 40//40
f 52//53 70//70 57//58
f 38//38 71//71 55//56
f 40//40 72//72 38//38
f 71//71 38//38 72//72
f 32//32 58//59 48//49
f 58//59 59//60 73//73
f 74//74 73//73 59//60
f 43//43 75//75 59//60
f 60//44 76//76 43//43
f 43//43 76//76 75//75
f 62//63 44//46 77//77
f 44//46 39//39 77//77
f 46//47 63//62 78//78
f 39//39 56//57 77//77
f 78//78 64//64 46//47
f 54//54 65//65 79//79
f 79//79 68//68 54//54
f 80//80 49//50 48//49
f 80//80 81//81 49//50
f 66//66 49//50 81//81
f 53//55 82//82 50//51
f 82//82 53//55 68//68
f 51//52 83//83 52//53
f 83//83 70//70 52//53
f 84//84 68//68 85//85
f 68//68 84//84 82//82
f 55//56 86//86 69//69
f 56//57 69//69 77//77
f 55//56 71//71 86//86
f 72//72 40//40 70//70
f 71//71 72//72 87//87
f 48//49 58//59 73//73
f 88//88 80//80 48//49
f 73//73 88//88 48//49
f 88//88 73//73 74//74
f 74//74 59//60 75//75
f 74//74 75//75 90//89
f 60//44 91//90 76//76
f 91//90 60//44 92//91
f 61//61 92//91 60//44
f 93//92 94//93 76//76
f 93//92 76//76 91//90
f 94//93 75//75 76//76
f 95//94 62//63 77//77
f 69//69 96//95 77//77
f 77//77 96//95 95//94
f 63//62 62//63 97//96
f 78//78 63//62 97//96
f 78//78 98//97 64//64
f 64//64 98//97 106//98
f 66//66 99//99 65//65
f 65//65 99//99 79//79
f 66//66 81//81 99//99
f 51//52 67//67 100//100
f 100//100 83//83 51//52
f 50//51 100//100 67//67
f 112//101 50//51 82//82
f 50//51 112//101 100//100
f 85//85 68//68 79//79
f 96//95 69//69 86//86
f 83//83 72//72 70//70
f 87//87 86//86 71//71
f 72//72 101//102 87//87
f 72//72 103//103 101//102
f 102//104 103//103 72//72
f 72//72 83//83 102//104
f 74//74 104//105 88//88
f 89//106 104//105 74//74
f 89//106 74//74 90//89
f 104//105 89//106 105//107
f 94//93 90//89 75//75
f 90//89 94//93 105//107
f 105//107 89//106 90//89
f 106//98 91//90 92//91
f 92//91 61//61 64//64
f 95//94 96//95 107//108
f 106//98 98//97 108//109
f 109//110 79//79 99//99
f 109//110 110//111 79//79
f 111//112 81//81 80//80
f 111//112 80//80 88//88
f 81//81 111//112 99//99
f 88//88 127//113 111//112
f 112//101 102//104 100//100
f 100//100 102//104 83//83
f 82//82 84//84 112//101
f 86//86 114//114 115//115
f 86//86 115//115 96//95
f 114//114 86//86 87//87
f 114//114 87//87 116//116
f 101//102 116//116 87//87
f 102//104 118//117 103//103
f 117//118 118//117 102//104
f 88//88 104//105 127//113
f 119//119 104//105 105//107
f 105//107 94//93 120//120
f 121//121 91//90 108//109
f 121//121 93//92 91//90
f 91//90 106//98 108//109
f 106//98 92//91 64//64
f 62//63 95//94 97//96
f 96//95 115//115 122//122
f 107//108 96//95 122//122
f 122//122 123//123 107//108
f 124//124 78//78 97//96
f 78//78 124//124 125//125
f 98//97 78//78 125//125
f 98//97 125//125 108//109
f 111//112 109//110 99//99
f 79//79 110//111 85//85
f 110//111 109//110 126//126
f 113//127 85//85 110//111
f 127//113 126//126 111//112
f 129//128 117//118 112//101
f 112//101 117//118 102//104
f 84//84 129//128 112//101
f 130//129 84//84 85//85
f 130//129 113//127 131//130
f 85//85 113//127 130//129
f 110//111 131//130 113//127
f 130//129 129//128 84//84
f 132//131 122//122 115//115
f 133//132 114//114 116//116
f 114//114 133//132 134//133
f 134//133 115//115 114//114
f 135//134 133//132 116//116
f 116//116 101//102 135//134
f 117//118 136//135 118//117
f 117//118 129//128 136//135
f 118//117 137//136 103//103
f 128//137 127//113 104//105
f 120//120 119//119 105//107
f 119//119 138//138 104//105
f 128//137 104//105 138//138
f 119//119 120//120 139//139
f 93//92 140//140 94//93
f 141//141 120//120 94//93
f 140//140 141//141 94//93
f 125//125 121//121 108//109
f 93//92 121//121 140//140
f 95//94 107//108 97//96
f 123//123 142//142 107//108
f 143//143 107//108 142//142
f 107//108 143//143 97//96
f 97//96 144//144 124//124
f 131//130 110//111 145//145
f 145//145 110//111 126//126
f 128//137 146//146 126//126
f 126//126 109//110 111//112
f 128//137 126//126 127//113
f 155//147 130//129 131//130
f 155//147 131//130 145//145
f 129//128 130//129 136//135
f 122//122 132//131 123//123
f 123//123 132//131 147//148
f 134//133 148//149 115//115
f 149//150 134//133 133//132
f 135//134 149//150 133//132
f 150//151 137//136 118//117
f 136//135 150//151 118//117
f 103//103 135//134 101//102
f 138//138 146//146 128//137
f 143//143 144//144 97//96
f 142//142 123//123 147//148
f 147//148 151//152 142//142
f 152//153 144//144 143//143
f 143//143 142//142 153//154
f 153//154 152//153 143//143
f 124//124 144//144 125//125
f 145//145 126//126 154//155
f 146//146 154//155 126//126
f 138//138 154//155 146//146
f 155//147 136//135 130//129
f 164//156 155//147 145//145
f 145//145 154//155 156//157
f 145//145 156//157 164//156
f 132//131 115//115 148//149
f 149//150 157//158 134//133
f 135//134 169//159 149//150
f 169//159 135//134 103//103
f 103//103 137//136 169//159
f 137//136 150//151 158//160
f 139//139 138//138 119//119
f 120//120 159//161 139//139
f 141//141 159//161 120//120
f 139//139 154//155 138//138
f 140//140 121//121 160//162
f 125//125 160//162 121//121
f 161//163 141//141 140//140
f 161//163 140//140 160//162
f 142//142 162//164 163//165
f 151//152 162//164 142//142
f 142//142 163//165 153//154
f 152//153 160//162 144//144
f 176//166 152//153 153//154
f 152//153 176//166 160//162
f 160//162 125//125 144//144
f 155//147 150//151 136//135
f 156//157 165//167 164//156
f 132//131 151//152 147//148
f 148//149 167//168 132//131
f 148//149 168//169 167//168
f 148//149 134//133 157//158
f 149//150 169//159 157//158
f 137//136 170//170 169//159
f 137//136 158//160 170//170
f 171//171 158//160 150//151
f 171//171 150//151 155//147
f 158//160 171//171 172//172
f 141//141 173//173 159//161
f 175//174 159//161 174//175
f 175//174 139//139 159//161
f 139//139 175//174 154//155
f 154//155 175//174 156//157
f 141//141 161//163 173//173
f 176//166 153//154 163//165
f 163//165 162//164 177//176
f 151//152 178//177 162//164
f 178//177 151//152 132//131
f 176//166 179//178 161//163
f 160//162 176//166 161//163
f 171//171 155//147 164//156
f 156//157 166//179 165//167
f 175//174 166//179 156//157
f 184//180 166//179 174//175
f 175//174 174//175 166//179
f 132//131 167//168 178//177
f 180//181 168//169 148//149
f 157//158 181//182 148//149
f 148//149 181//182 180//181
f 170//170 182//183 169//159
f 169//159 182//183 157//158
f 172//172 170//170 158//160
f 161//163 179//178 173//173
f 174//175 159//161 183//184
f 183//184 159//161 173//173
f 183//184 184//180 174//175
f 185//185 176//166 163//165
f 177//176 186//186 163//165
f 162//164 178//177 177//176
f 176//166 185//185 179//178
f 165//167 171//171 164//156
f 165//167 166//179 187//187
f 165//167 187//187 171//171
f 184//180 188//188 166//179
f 188//188 189//189 166//179
f 167//168 177//176 178//177
f 180//181 181//182 190//190
f 181//182 182//183 190//190
f 181//182 157//158 182//183
f 180//181 191//191 168//169
f 192//192 168//169 191//191
f 193//193 170//170 172//172
f 172//172 171//171 187//187
f 194//194 172//172 187//187
f 195//195 173//173 179//178
f 179//178 185//185 195//195
f 196//196 183//184 173//173
f 173//173 195//195 196//196
f 163//165 197//197 185//185
f 185//185 197//197 198//198
f 195//195 185//185 198//198
f 177//176 199//199 186//186
f 167//168 202//200 177//176
f 177//176 202//200 199//199
f 189//189 187//187 166//179
f 187//187 200//201 194//194
f 200//201 187//187 189//189
f 182//183 170//170 201//202
f 201//202 190//190 182//183
f 167//168 168//169 202//200
f 168//169 192//192 205//203
f 204//204 206//205 168//169
f 205//203 204//204 168//169
f 168//169 206//205 202//200
f 207//206 191//191 180//181
f 190//190 207//206 180//181
f 170//170 193//193 201//202
f 194//194 193//193 172//172
f 194//194 208//207 193//193
f 209//208 183//184 196//196
f 183//184 209//208 184//180
f 163//165 186//186 197//197
f 199//199 197//197 186//186
f 199//199 210//209 197//197
f 197//197 210//209 211//210
f 198//198 197//197 211//210
f 200//201 212//211 194//194
f 200//201 220//212 212//211
f 213//213 207//206 190//190
f 191//191 203//214 192//192
f 203//214 191//191 214//215
f 213//213 214//215 191//191
f 213//213 191//191 207//206
f 215//216 216//217 204//204
f 204//204 216//217 206//205
f 217//218 204//204 205//203
f 219//219 218//220 193//193
f 212//211 208//207 194//194
f 198//198 196//196 195//195
f 198//198 209//208 196//196
f 211//210 209//208 198//198
f 199//199 206//205 210//209
f 216//217 210//209 206//205
f 206//205 199//199 202//200
f 221//221 189//189 188//188
f 184//180 221//221 188//188
f 222//222 184//180 209//208
f 221//221 184//180 222//222
f 223//223 213//213 190//190
f 201//202 223//223 190//190
f 203//214 224//224 192//192
f 214//215 224//224 203//214
f 213//213 225//225 214//215
f 192//192 224//224 226//226
f 205//203 192//192 226//226
f 217//218 215//216 204//204
f 226//226 217//218 205//203
f 193//193 218//220 201//202
f 228//227 218//220 219//219
f 218//220 227//228 201//202
f 208//207 219//219 193//193
f 219//219 208//207 212//211
f 229//229 222//222 209//208
f 209//208 211//210 229//229
f 215//216 230//230 210//209
f 216//217 215//216 210//209
f 211//210 210//209 230//230
f 230//230 231//231 211//210
f 232//232 233//233 220//212
f 220//212 234//234 212//211
f 220//212 233//233 234//234
f 232//232 220//212 235//235
f 220//212 200//201 235//235
f 221//221 235//235 200//201
f 221//221 200//201 189//189
f 213//213 223//223 236//236
f 201//202 227//228 223//223
f 214//215 225//225 237//237
f 238//238 224//224 214//215
f 214//215 237//237 238//238
f 225//225 213//213 236//236
f 224//224 239//239 226//226
f 215//216 240//240 230//230
f 241//241 240//240 215//216
f 242//242 215//216 243//243
f 243//243 215//216 217//218
f 215//216 242//242 241//241
f 217//218 226//226 243//243
f 226//226 239//239 243//243
f 223//223 227//228 249//244
f 218//220 244//245 227//228
f 228//227 244//245 218//220
f 245//246 228//227 234//234
f 219//219 234//234 228//227
f 219//219 212//211 234//234
f 211//210 231//231 246//247
f 246//247 229//229 211//210
f 247//248 234//234 233//233
f 229//229 246//247 222//222
f 236//236 248//249 225//225
f 223//223 249//244 236//236
f 225//225 248//249 237//237
f 238//238 237//237 250//250
f 239//239 251//251 243//243
f 238//238 252//252 224//224
f 224//224 252//252 239//239
f 242//242 254//253 241//241
f 240//240 241//241 254//253
f 244//245 255//254 227//228
f 227//228 255//254 249//244
f 245//246 244//245 228//227
f 245//246 247//248 244//245
f 234//234 247//248 245//246
f 246//247 231//231 256//255
f 231//231 230//230 253//256
f 256//255 231//231 253//256
f 230//230 240//240 253//256
f 233//233 257//257 247//248
f 258//258 257//257 233//233
f 232//232 258//258 233//233
f 259//259 258//258 232//232
f 235//235 259//259 232//232
f 259//259 235//235 260//260
f 221//221 260//260 235//235
f 260//260 221//221 222//222
f 260//260 222//222 246//247
f 248//249 236//236 261//261
f 236//236 262//262 261//261
f 249//244 262//262 236//236
f 255//254 262//262 249//244
f 248//249 250//250 237//237
f 252//252 238//238 250//250
f 251//251 239//239 264//263
f 243//243 251//251 242//242
f 239//239 252//252 264//263
f 266//264 265//265 252//252
f 250//250 263//266 252//252
f 263//266 266//264 252//252
f 264//263 252//252 265//265
f 267//267 240//240 254//253
f 240//240 267//267 253//256
f 242//242 268//268 254//253
f 242//242 269//269 268//268
f 270//270 255//254 244//245
f 255//254 270//270 262//262
f 271//271 244//245 247//248
f 246//247 256//255 260//260
f 253//256 272//272 256//255
f 258//258 273//273 257//257
f 257//257 271//271 247//248
f 263//266 248//249 274//274
f 263//266 250//250 248//249
f 248//249 261//261 274//274
f 264//263 275//275 251//251
f 251//251 275//275 242//242
f 276//276 277//277 265//265
f 265//265 278//278 276//276
f 266//264 278//278 265//265
f 266//264 263//266 278//278
f 264//263 265//265 277//277
f 267//267 254//253 279//279
f 279//279 254//253 268//268
f 267//267 272//272 253//256
f 242//242 275//275 269//269
f 268//268 269//269 280//280
f 244//245 281//281 270//270
f 271//271 281//281 244//245
f 272//272 260//260 256//255
f 282//282 260//260 272//272
f 271//271 257//257 273//273
f 273//273 258//258 282//282
f 259//259 282//282 258//258
f 273//273 283//283 284//284
f 284//284 285//285 273//273
f 285//285 271//271 273//273
f 259//259 260//260 282//282
f 274//274 261//261 263//266
f 270//270 261//261 262//262
f 278//278 263//266 286//286
f 261//261 286//286 263//266
f 277//277 275//275 264//263
f 277//277 276//276 287//287
f 287//287 276//276 289//288
f 276//276 288//289 289//288
f 278//278 288//289 276//276
f 278//278 290//290 288//289
f 278//278 286//286 290//290
f 280//280 291//291 279//279
f 291//291 292//292 279//279
f 298//293 267//267 279//279
f 280//280 279//279 268//268
f 275//275 287//287 269//269
f 291//291 280//280 269//269
f 269//269 287//287 291//291
f 281//281 293//294 270//270
f 285//285 294//295 271//271
f 272//272 295//296 282//282
f 273//273 282//282 283//283
f 288//289 294//295 285//285
f 286//286 261//261 296//297
f 270//270 293//294 261//261
f 261//261 293//294 296//297
f 275//275 277//277 287//287
f 287//287 289//288 291//291
f 299//298 289//288 288//289
f 288//289 285//285 299//298
f 288//289 297//299 294//295
f 290//290 297//299 288//289
f 290//290 286//286 297//299
f 292//292 291//291 289//288
f 292//292 298//293 279//279
f 292//292 289//288 299//298
f 300//300 267//267 298//293
f 267//267 300//300 272//272
f 295//296 272//272 300//300
f 293//294 281//281 301//301
f 294//295 281//281 271//271
f 297//299 281//281 294//295
f 295//296 283//283 282//282
f 284//284 299//298 285//285
f 286//286 301//301 297//299
f 286//286 293//294 301//301
f 296//297 293//294 286//286
f 284//284 292//292 299//298
f 283//283 292//292 284//284
f 298//293 292//292 300//300
f 297//299 301//301 281//281
f 300//300 283//283 295//296
f 292//292 283//283 300//300
