# Blender 4.0.2
# www.blender.org
mtllib 5proxph_r.mtl
o 5proxph_r.002
v -0.012120 -0.035753 0.006892
v -0.011110 -0.034082 0.007115
v -0.012785 -0.033633 0.007023
v -0.012451 -0.036673 0.006447
v -0.011959 -0.036719 0.006453
v -0.011222 -0.035139 0.006921
v -0.013613 -0.033886 0.006726
v -0.011216 -0.035993 0.006398
v -0.014077 -0.035347 0.005838
v -0.011332 -0.033163 0.007126
v -0.010325 -0.035150 0.005287
v -0.013686 -0.035991 0.005601
v -0.010371 -0.034066 0.006623
v -0.010996 -0.030466 0.006989
v -0.014552 -0.032551 0.007116
v -0.011345 -0.037325 0.004562
v -0.012439 -0.037525 0.005295
v -0.014354 -0.035604 0.005204
v -0.011976 -0.037431 0.005601
v -0.010181 -0.031280 0.006877
v -0.012536 -0.029572 0.006895
v -0.009270 -0.030404 0.006522
v -0.015156 -0.033370 0.006735
v -0.015676 -0.034222 0.005784
v -0.010515 -0.036613 0.003434
v -0.009207 -0.034751 0.003173
v -0.009029 -0.031336 0.006154
v -0.009180 -0.032983 0.005486
v -0.013392 -0.036736 0.004469
v -0.012464 -0.037368 0.003844
v -0.009357 -0.028136 0.006855
v -0.013485 -0.029049 0.006723
v -0.011828 -0.037537 0.004810
v -0.010527 -0.036308 0.002687
v -0.008879 -0.033807 0.003586
v -0.008392 -0.032129 0.004466
v -0.013244 -0.036708 0.003619
v -0.014468 -0.035487 0.004441
v -0.016346 -0.034051 0.005052
v -0.016014 -0.034535 0.004036
v -0.011201 -0.027318 0.006990
v -0.014089 -0.028522 0.006307
v -0.016270 -0.033442 0.005640
v -0.015352 -0.032063 0.006619
v -0.014841 -0.030194 0.006551
v -0.011627 -0.037400 0.003673
v -0.008021 -0.029194 0.005386
v -0.013078 -0.036308 0.003036
v -0.014327 -0.035189 0.003692
v -0.007581 -0.026588 0.006052
v -0.008343 -0.025424 0.006751
v -0.009905 -0.026059 0.007080
v -0.010152 -0.024423 0.006997
v -0.013478 -0.026902 0.005930
v -0.014271 -0.027886 0.005677
v -0.015811 -0.032155 0.005965
v -0.011459 -0.036777 0.002713
v -0.010609 -0.035276 0.002008
v -0.009584 -0.034160 0.002287
v -0.008786 -0.033617 0.002811
v -0.008572 -0.032324 0.003415
v -0.008080 -0.030216 0.004720
v -0.016471 -0.033289 0.003027
v -0.016631 -0.032549 0.003703
v -0.016139 -0.033906 0.003083
v -0.015549 -0.033987 0.002786
v -0.014238 -0.034710 0.003150
v -0.006006 -0.023902 0.005272
v -0.012176 -0.026379 0.006659
v -0.007655 -0.028787 0.004312
v -0.014832 -0.028530 0.005199
v -0.008779 -0.032696 0.002814
v -0.012169 -0.035256 0.002025
v -0.005573 -0.020885 0.005821
v -0.006806 -0.026834 0.004921
v -0.010447 -0.021067 0.006023
v -0.012561 -0.024872 0.005837
v -0.012872 -0.023570 0.004600
v -0.013377 -0.025096 0.004295
v -0.008243 -0.030323 0.003772
v -0.010577 -0.033550 0.001829
v -0.008861 -0.031341 0.003167
v -0.012739 -0.034425 0.002145
v -0.016499 -0.032222 0.002817
v -0.015873 -0.033107 0.002201
v -0.007040 -0.021820 0.006529
v -0.008037 -0.022157 0.006804
v -0.008884 -0.020502 0.006652
v -0.015044 -0.028526 0.003349
v -0.014390 -0.027529 0.003713
v -0.007687 -0.028405 0.003716
v -0.015561 -0.029476 0.002657
v -0.016540 -0.031714 0.003267
v -0.011509 -0.034014 0.001762
v -0.009110 -0.032621 0.002586
v -0.013882 -0.033844 0.002553
v -0.016123 -0.031811 0.002130
v -0.014925 -0.031857 0.001651
v -0.005414 -0.024382 0.003834
v -0.004521 -0.020272 0.004940
v -0.006576 -0.026490 0.003973
v -0.005317 -0.017253 0.006263
v -0.011678 -0.020381 0.004592
v -0.012765 -0.022888 0.003912
v -0.013079 -0.024866 0.003628
v -0.008555 -0.028194 0.003127
v -0.009295 -0.030691 0.003080
v -0.010866 -0.032564 0.002345
v -0.011529 -0.031736 0.002624
v -0.012887 -0.032573 0.002096
v -0.015687 -0.031771 0.001762
v -0.003668 -0.019634 0.003890
v -0.003792 -0.020258 0.002943
v -0.005579 -0.024443 0.003360
v -0.007262 -0.019089 0.006706
v -0.012345 -0.021169 0.003911
v -0.007389 -0.017608 0.006557
v -0.008372 -0.015127 0.005513
v -0.012393 -0.023075 0.003349
v -0.012364 -0.021537 0.003336
v -0.013911 -0.027578 0.003161
v -0.014417 -0.028274 0.002891
v -0.007776 -0.026996 0.003156
v -0.006539 -0.025825 0.003472
v -0.015140 -0.028811 0.002720
v -0.010813 -0.030245 0.002928
v -0.014930 -0.029861 0.001901
v -0.004326 -0.018434 0.005442
v -0.011502 -0.018578 0.003140
v -0.009861 -0.017118 0.004937
v -0.012504 -0.025281 0.003136
v -0.012737 -0.027558 0.002812
v -0.013515 -0.028949 0.002641
v -0.009452 -0.026409 0.002589
v -0.014676 -0.028769 0.002491
v -0.012566 -0.031846 0.002228
v -0.012296 -0.030665 0.002863
v -0.013766 -0.030659 0.001889
v -0.006270 -0.024994 0.003172
v -0.004907 -0.021963 0.002508
v -0.006679 -0.013707 0.006191
v -0.005403 -0.013745 0.006402
v -0.010391 -0.015745 0.002721
v -0.009839 -0.015090 0.003747
v -0.008025 -0.013060 0.005071
v -0.009905 -0.022141 0.002181
v -0.011060 -0.019621 0.002298
v -0.009710 -0.019161 0.002055
v -0.011216 -0.025892 0.002627
v -0.007903 -0.024309 0.002490
v -0.008469 -0.024201 0.002398
v -0.014584 -0.029553 0.002025
v -0.005693 -0.023266 0.002626
v -0.003256 -0.017690 0.004503
v -0.002728 -0.017512 0.003710
v -0.003297 -0.014992 0.005412
v -0.003484 -0.011949 0.006140
v -0.011719 -0.020053 0.002713
v -0.006586 -0.022809 0.002410
v -0.003706 -0.019218 0.001955
v -0.002755 -0.017945 0.001984
v -0.001801 -0.016519 0.002470
v -0.001110 -0.010384 0.005253
v -0.011037 -0.018286 0.002316
v -0.009396 -0.012176 0.002277
v -0.009037 -0.012411 0.003402
v -0.008416 -0.010305 0.003645
v -0.008233 -0.021342 0.001845
v -0.001454 -0.014933 0.003699
v -0.004156 -0.009831 0.006248
v -0.000575 -0.012694 0.004161
v 0.000258 -0.010189 0.004350
v -0.010091 -0.015938 0.001863
v -0.009722 -0.013588 0.001854
v -0.009570 -0.014076 0.001417
v -0.005952 -0.009952 0.005906
v -0.008945 -0.018682 0.001543
v -0.006520 -0.021664 0.002043
v -0.002879 -0.017414 0.001324
v -0.002955 -0.009116 0.005897
v -0.005128 -0.010973 0.006315
v -0.009394 -0.011429 0.001274
v -0.009130 -0.012539 0.000596
v -0.008185 -0.006365 0.003281
v -0.006863 -0.009223 0.005165
v -0.008266 -0.016263 0.000874
v -0.005290 -0.019356 0.001549
v -0.001580 -0.016092 0.001161
v -0.003965 -0.017324 0.000950
v -0.002046 -0.015644 0.000201
v 0.000286 -0.013057 0.002580
v -0.002042 -0.007489 0.005421
v 0.000586 -0.011460 0.003404
v 0.000399 -0.008408 0.004337
v -0.009424 -0.008655 0.000705
v -0.008786 -0.007018 0.002301
v -0.007511 -0.006314 0.003977
v -0.006270 -0.007533 0.005159
v -0.007104 -0.017649 0.001055
v -0.002973 -0.015114 0.000037
v 0.000551 -0.013431 0.001503
v -0.003051 -0.006560 0.005374
v -0.000604 -0.007502 0.004710
v -0.009479 -0.009440 -0.000038
v -0.007888 -0.012238 -0.000366
v -0.005101 -0.007875 0.005676
v -0.005493 -0.007303 0.005311
v -0.007714 -0.013452 -0.000062
v -0.002185 -0.012565 -0.001098
v -0.001117 -0.013628 -0.001338
v -0.001256 -0.014745 -0.000433
v -0.000629 -0.014887 0.000331
v 0.000736 -0.013160 0.000364
v 0.001262 -0.011941 0.001489
v 0.001239 -0.009746 0.003192
v -0.000853 -0.006766 0.004310
v 0.000932 -0.007687 0.003858
v -0.009049 -0.011150 -0.000174
v -0.009269 -0.006695 0.000041
v -0.008941 -0.005787 0.001400
v -0.008610 -0.010198 -0.001112
v -0.006846 -0.010187 -0.001527
v -0.007125 -0.008905 -0.002295
v -0.005135 -0.005953 0.004883
v -0.005325 -0.010720 -0.001564
v -0.002692 -0.009768 -0.002146
v 0.000507 -0.012775 -0.001326
v 0.001293 -0.011655 -0.001193
v -0.004379 -0.006094 0.005128
v -0.002611 -0.006092 0.004696
v 0.001860 -0.009655 0.001238
v 0.001626 -0.011064 0.000109
v 0.000780 -0.007144 0.003579
v -0.000606 -0.006753 0.003980
v -0.009090 -0.009429 -0.000811
v -0.008924 -0.006749 -0.001377
v -0.007430 -0.005409 0.003504
v -0.008295 -0.005029 0.002176
v -0.001985 -0.012051 -0.001446
v -0.004349 -0.008991 -0.002513
v 0.001438 -0.010537 -0.001165
v 0.001270 -0.007546 0.003182
v -0.000189 -0.006785 0.003203
v -0.008363 -0.007039 -0.002131
v -0.008752 -0.005222 0.000680
v -0.007271 -0.004892 0.003123
v -0.007979 -0.004252 0.001294
v -0.005769 -0.008930 -0.002694
v -0.007658 -0.007491 -0.002540
v -0.006091 -0.007340 -0.003158
v -0.001445 -0.011693 -0.001857
v -0.000448 -0.012529 -0.001945
v 0.000438 -0.011649 -0.002098
v -0.002975 -0.005648 0.003721
v -0.002574 -0.006316 0.001532
v -0.000679 -0.006938 0.002389
v 0.001533 -0.007773 0.001887
v -0.008632 -0.005345 -0.000412
v -0.005652 -0.004114 0.003481
v -0.006356 -0.003735 0.002114
v -0.007750 -0.004307 0.001931
v -0.007358 -0.006250 -0.002751
v -0.004456 -0.004692 0.004009
v -0.003926 -0.007706 -0.002651
v -0.002541 -0.008648 -0.002406
v -0.000136 -0.010692 -0.002356
v -0.003536 -0.005726 0.002160
v -0.004326 -0.004556 0.003463
v 0.001608 -0.008629 0.000266
v 0.000830 -0.007941 -0.000759
v 0.001071 -0.007147 0.003071
v 0.001382 -0.007559 0.001554
v -0.007968 -0.005900 -0.002242
v -0.008064 -0.005329 -0.001422
v -0.007863 -0.004355 0.000243
v -0.005912 -0.003542 0.001491
v -0.006654 -0.003762 0.000443
v -0.005159 -0.007829 -0.003037
v -0.005246 -0.003830 0.002981
v -0.005159 -0.006900 -0.002924
v 0.000055 -0.009660 -0.002357
v -0.002545 -0.007476 -0.002523
v -0.001167 -0.007919 -0.002196
v 0.000951 -0.010601 -0.001933
v -0.001812 -0.006530 -0.000645
v 0.000507 -0.008724 -0.001783
v -0.007251 -0.005147 -0.002236
v -0.006864 -0.005309 -0.002533
v -0.003945 -0.007044 -0.002478
v -0.003155 -0.006494 -0.002163
v -0.001245 -0.007167 -0.001964
v 0.000139 -0.007394 -0.000246
v -0.004081 -0.005419 0.000908
v -0.006901 -0.004672 -0.001138
v -0.004887 -0.004037 0.002627
v -0.006157 -0.004235 -0.000454
v -0.005898 -0.005481 -0.002471
v -0.002175 -0.006848 -0.002328
v -0.005512 -0.004465 0.000178
v -0.004409 -0.005665 -0.001459
v -0.002104 -0.006631 -0.002059
vn 0.2541 -0.1188 0.9598
vn -0.1226 -0.0982 0.9876
vn -0.0993 -0.2863 0.9530
vn -0.3635 -0.5697 0.7371
vn 0.2582 -0.6193 0.7415
vn 0.4190 -0.3102 0.8534
vn -0.2545 -0.3543 0.8998
vn 0.6907 -0.4866 0.5349
vn -0.5246 -0.5334 0.6635
vn 0.0301 0.0261 0.9992
vn -0.6550 -0.6326 0.4132
vn 0.7051 -0.3029 0.6412
vn 0.0378 0.0103 0.9992
vn 0.2903 -0.0302 0.9565
vn -0.2358 -0.0519 0.9704
vn 0.8407 -0.4598 0.2859
vn 0.6371 -0.7571 0.1443
vn -0.3629 -0.9028 0.2306
vn -0.6277 -0.7318 0.2654
vn 0.2710 -0.8470 0.4573
vn 0.5942 -0.1035 0.7977
vn -0.4506 -0.2918 0.8437
vn -0.5832 -0.5690 0.5797
vn -0.0816 0.0639 0.9946
vn 0.7169 -0.6941 -0.0658
vn 0.8622 -0.4925 -0.1188
vn 0.8272 -0.3641 0.4280
vn 0.7496 -0.2007 0.6307
vn -0.7212 -0.6927 -0.0020
vn -0.3467 -0.8780 -0.3300
vn 0.3581 -0.1128 0.9269
vn 0.2073 -0.9775 0.0385
vn 0.1947 -0.9282 -0.3171
vn 0.9545 -0.2550 0.1545
vn 0.8906 -0.3783 0.2527
vn -0.6471 -0.6532 -0.3933
vn -0.6090 -0.7704 -0.1890
vn -0.8620 -0.4510 0.2313
vn -0.6760 -0.7160 -0.1742
vn -0.1083 0.0280 0.9937
vn -0.3990 0.2029 0.8942
vn -0.2513 0.1849 0.9501
vn -0.5612 0.3423 0.7536
vn -0.8697 -0.0960 0.4842
vn -0.6662 0.1301 0.7343
vn -0.6281 0.2835 0.7247
vn 0.5427 -0.6193 -0.5674
vn 0.8384 -0.2441 0.4874
vn -0.5180 -0.5184 -0.6804
vn -0.5596 -0.6709 -0.4866
vn 0.6487 -0.2322 0.7248
vn 0.3815 -0.0984 0.9191
vn 0.0583 -0.0163 0.9982
vn -0.1593 0.1169 0.9803
vn -0.6769 0.3994 0.6183
vn -0.7641 0.4220 0.4879
vn 0.0424 -0.6998 -0.7130
vn 0.3016 -0.3317 -0.8939
vn 0.5667 -0.2115 -0.7964
vn 0.8723 -0.2031 -0.4448
vn 0.9593 -0.0547 -0.2772
vn 0.9756 -0.2122 0.0569
vn -0.8947 -0.2870 -0.3423
vn -0.9960 0.0455 0.0771
vn -0.6443 -0.6099 -0.4614
vn -0.2703 -0.6666 -0.6947
vn -0.3819 -0.5431 -0.7477
vn 0.7826 -0.2627 0.5643
vn 0.9328 -0.3569 -0.0491
vn -0.8743 0.2521 0.4148
vn -0.8911 0.3765 0.2534
vn 0.8888 -0.1574 -0.4305
vn 0.7844 0.0801 -0.6151
vn -0.2749 -0.2969 -0.9145
vn 0.8648 -0.3661 0.3436
vn 0.6050 -0.1844 0.7745
vn -0.6615 0.3167 0.6798
vn -0.8940 0.2993 0.3336
vn -0.9405 0.3398 0.0025
vn -0.5434 0.2740 0.7935
vn 0.2138 0.1602 -0.9637
vn 0.5025 0.0965 -0.8591
vn -0.3886 -0.1567 -0.9080
vn -0.9351 0.0207 -0.3538
vn -0.4272 -0.3929 -0.8143
vn 0.3909 -0.0888 0.9161
vn 0.9128 -0.3980 0.0911
vn 0.1364 0.0137 0.9906
vn -0.2581 0.1526 0.9540
vn -0.7664 0.3399 0.5451
vn -0.8235 0.5610 -0.0849
vn -0.8274 0.4835 -0.2858
vn 0.7250 -0.3304 -0.6043
vn -0.8502 0.4315 -0.3017
vn -0.9562 0.2926 -0.0088
vn -0.0683 -0.0148 -0.9976
vn 0.4047 0.2246 -0.8864
vn -0.2109 -0.3595 -0.9090
vn -0.7844 0.0982 -0.6124
vn 0.0040 -0.1249 -0.9922
vn 0.7691 -0.2798 0.5747
vn 0.8612 -0.4566 -0.2231
vn 0.3894 -0.0924 0.9164
vn -0.9527 0.1966 -0.2318
vn -0.7685 0.2467 -0.5904
vn 0.3660 -0.1738 -0.9143
vn 0.1512 0.0034 -0.9885
vn -0.0087 -0.0122 -0.9999
vn 0.1841 0.3578 -0.9155
vn 0.1912 0.4666 -0.8636
vn -0.4254 0.0146 -0.9049
vn 0.0698 0.0273 0.9972
vn 0.8824 -0.3523 0.3119
vn 0.7372 -0.4481 -0.5057
vn -0.9371 0.3081 0.1640
vn -0.1389 0.1072 0.9845
vn -0.5747 0.2501 0.7793
vn -0.6389 0.0819 -0.7649
vn -0.8871 0.1360 -0.4410
vn -0.4510 0.3755 -0.8097
vn -0.6361 0.6212 -0.4577
vn -0.2834 0.6323 -0.7210
vn 0.3876 -0.2357 -0.8912
vn 0.5349 -0.3912 -0.7489
vn 0.0743 0.0368 -0.9966
vn -0.2700 0.3165 -0.9094
vn 0.8982 -0.4150 -0.1447
vn 0.6391 -0.1975 0.7433
vn -0.9423 0.3322 -0.0419
vn -0.7026 0.3190 0.6361
vn -0.4319 0.1535 -0.8888
vn -0.1445 0.0887 -0.9855
vn 0.1875 0.2747 -0.9431
vn 0.1029 -0.1240 -0.9869
vn 0.2605 0.2553 -0.9311
vn 0.2577 0.2052 -0.9442
vn 0.3114 0.1758 -0.9339
vn 0.5428 -0.3581 -0.7596
vn 0.3793 -0.3968 -0.8359
vn -0.3663 0.1579 0.9170
vn 0.0157 0.0223 0.9996
vn -0.8399 0.3281 0.4324
vn -0.6762 0.2367 0.6977
vn -0.2615 -0.0718 -0.9625
vn -0.3165 -0.1099 -0.9422
vn -0.3799 -0.0689 -0.9224
vn -0.1683 -0.0081 -0.9857
vn -0.1377 0.5980 -0.7896
vn 0.0550 -0.1767 -0.9827
vn 0.1924 -0.2525 -0.9483
vn 0.0968 0.4085 -0.9076
vn 0.3248 -0.3526 -0.8776
vn 0.7674 -0.2835 0.5751
vn 0.8530 -0.4208 0.3087
vn 0.3094 -0.0705 0.9483
vn 0.5858 -0.2148 0.7814
vn -0.9502 0.3068 -0.0540
vn -0.7451 0.0958 -0.6600
vn 0.1863 -0.3080 -0.9330
vn 0.5270 -0.4649 -0.7114
vn 0.8049 -0.5382 -0.2498
vn 0.8349 -0.5309 0.1448
vn 0.4740 -0.0795 0.8769
vn -0.7205 0.1557 -0.6757
vn -0.9495 0.2076 0.2353
vn -0.8545 0.2553 0.4525
vn -0.8373 0.1587 0.5232
vn -0.0525 -0.1779 -0.9826
vn 0.2401 -0.3119 -0.9193
vn 0.7421 -0.4053 0.5338
vn 0.0438 0.1332 0.9901
vn 0.6745 -0.3311 0.6598
vn 0.6724 -0.1576 0.7232
vn -0.7282 0.0733 -0.6814
vn -0.9563 0.1555 -0.2475
vn -0.7962 -0.0290 -0.6043
vn -0.3847 0.1808 0.9051
vn -0.6253 0.1653 0.7626
vn -0.3470 -0.1233 -0.9297
vn -0.1349 0.1052 0.9853
vn 0.2615 0.1107 0.9588
vn -0.9919 -0.0246 -0.1247
vn -0.7796 -0.1592 -0.6057
vn -0.3448 -0.1984 -0.9175
vn -0.7884 0.2393 0.5666
vn 0.1412 -0.2973 -0.9443
vn 0.4254 -0.5659 -0.7063
vn 0.6889 -0.6550 -0.3105
vn 0.1159 -0.4196 -0.9003
vn 0.2069 -0.6227 -0.7546
vn 0.8177 -0.4072 0.4068
vn 0.8035 -0.3143 0.5055
vn 0.3336 0.2662 0.9043
vn -0.9844 0.0713 0.1606
vn -0.9168 0.1085 0.3843
vn -0.5793 0.3165 0.7512
vn -0.4257 0.2908 0.8568
vn -0.0690 -0.2515 -0.9654
vn -0.3228 -0.2839 -0.9029
vn -0.1213 -0.3883 -0.9135
vn 0.8446 -0.5069 0.1724
vn 0.1738 0.5060 0.8448
vn 0.5757 0.0518 0.8160
vn 0.4543 0.3672 0.8116
vn -0.9750 -0.0582 -0.2145
vn -0.4416 -0.3457 -0.8279
vn -0.1915 0.2816 0.9402
vn -0.2874 0.3617 0.8869
vn -0.0609 -0.4994 -0.8642
vn -0.3197 -0.3493 -0.8808
vn 0.3105 -0.6870 -0.6570
vn 0.6577 -0.6939 -0.2931
vn 0.8491 -0.5201 -0.0925
vn 0.9160 -0.3474 0.2006
vn -0.0398 0.5103 0.8591
vn 0.8828 -0.1362 0.4495
vn 0.3740 0.7646 0.5249
vn 0.4767 0.7682 0.4272
vn 0.7158 0.2354 0.6575
vn -0.8378 -0.2481 -0.4863
vn -0.9750 0.2085 -0.0771
vn -0.9233 0.3080 0.2293
vn -0.5590 -0.3246 -0.7629
vn -0.1091 -0.4870 -0.8665
vn -0.3077 -0.3871 -0.8692
vn -0.2513 0.4879 0.8360
vn -0.1002 -0.4416 -0.8916
vn -0.0893 -0.3023 -0.9490
vn 0.6136 -0.5738 -0.5425
vn 0.8674 -0.3229 -0.3786
vn 0.9969 -0.0323 0.0724
vn 0.9709 -0.2312 -0.0621
vn 0.5141 0.7297 0.4507
vn 0.1731 0.9542 0.2441
vn -0.8165 -0.1407 -0.5599
vn -0.8760 0.1894 -0.4437
vn -0.5066 0.5230 0.6854
vn -0.7624 0.5019 0.4085
vn -0.4394 -0.3542 -0.8255
vn 0.0975 -0.3470 -0.9328
vn 0.9048 0.2749 0.3252
vn -0.6838 -0.0065 -0.7296
vn -0.4661 0.6444 0.6062
vn -0.6089 0.7891 0.0814
vn -0.8524 0.5226 -0.0185
vn -0.0930 -0.4307 -0.8977
vn -0.4554 -0.1704 -0.8738
vn -0.0905 -0.0132 -0.9958
vn -0.2103 0.7489 0.6284
vn -0.3095 -0.2854 -0.9071
vn 0.0326 -0.4146 -0.9094
vn 0.4172 -0.2844 -0.8632
vn 0.9205 0.0469 -0.3879
vn 0.2561 0.7562 0.6021
vn 0.5380 0.8429 -0.0082
vn 0.4250 0.9047 -0.0297
vn 0.1670 0.9814 -0.0949
vn 0.9382 0.3446 0.0328
vn 0.1240 0.9912 -0.0470
vn -0.7935 0.5441 -0.2726
vn -0.3194 0.9120 0.2575
vn -0.5131 0.7761 0.3667
vn -0.3624 0.1871 -0.9130
vn 0.0896 -0.1233 -0.9883
vn 0.0699 -0.1107 -0.9914
vn 0.1936 0.0331 -0.9805
vn 0.5814 0.7992 -0.1524
vn 0.6178 0.7812 0.0900
vn 0.9238 0.2829 -0.2581
vn 0.6888 0.5933 -0.4167
vn 0.6042 0.7901 0.1037
vn -0.6295 0.6611 -0.4083
vn -0.6481 0.3833 -0.6580
vn -0.5351 0.8025 -0.2640
vn 0.1874 0.9750 -0.1196
vn -0.0651 0.9593 -0.2748
vn 0.1671 -0.1201 -0.9786
vn 0.2203 0.9360 0.2744
vn 0.2514 0.2928 -0.9225
vn 0.3137 0.1244 -0.9413
vn 0.1313 0.1096 -0.9853
vn 0.2747 0.2072 -0.9389
vn 0.6721 0.0109 -0.7404
vn 0.3948 0.9148 -0.0850
vn 0.6754 0.7196 -0.1615
vn 0.6321 0.3599 -0.6862
vn -0.0755 0.6275 -0.7750
vn -0.3269 0.7650 -0.5549
vn 0.2042 0.4108 -0.8886
vn 0.2398 0.4740 -0.8473
vn 0.0733 0.6099 -0.7891
vn 0.5054 0.5941 -0.6258
vn 0.4286 0.8838 -0.1874
vn 0.5577 0.8216 -0.1180
vn -0.2422 0.8801 -0.4083
vn 0.6980 0.7036 -0.1332
vn 0.2750 0.6376 -0.7197
vn 0.3640 0.8200 -0.4417
vn 0.5592 0.7903 -0.2502
vn 0.4109 0.8090 -0.4203
vn 0.2582 0.8891 -0.3780
s 1
f 2//1 3//2 1//3
f 4//4 5//5 1//3
f 1//3 5//5 6//6
f 1//3 6//6 2//1
f 7//7 4//4 1//3
f 3//2 7//7 1//3
f 5//5 8//8 6//6
f 4//4 7//7 9//9
f 3//2 2//1 10//10
f 9//9 12//11 4//4
f 8//8 13//12 6//6
f 6//6 13//12 2//1
f 3//2 10//10 14//13
f 2//1 20//14 10//10
f 7//7 3//2 15//15
f 13//12 8//8 11//16
f 8//8 16//17 11//16
f 4//4 12//11 17//18
f 12//11 9//9 18//19
f 19//20 5//5 4//4
f 14//13 10//10 20//14
f 2//1 13//12 22//21
f 20//14 2//1 22//21
f 9//9 23//22 24//23
f 23//22 9//9 7//7
f 3//2 14//13 21//24
f 16//17 25//25 26//26
f 28//27 16//17 26//26
f 11//16 16//17 28//27
f 11//16 28//27 13//12
f 27//28 13//12 28//27
f 29//29 30//30 17//18
f 12//11 29//29 17//18
f 17//18 19//20 4//4
f 18//19 9//9 24//23
f 19//20 8//8 5//5
f 8//8 19//20 16//17
f 13//12 27//28 22//21
f 31//31 14//13 20//14
f 23//22 7//7 15//15
f 15//15 3//2 21//24
f 16//17 19//20 33//32
f 25//25 16//17 46//33
f 36//34 28//27 26//26
f 36//34 26//26 35//35
f 18//19 29//29 12//11
f 18//19 37//36 29//29
f 29//29 37//36 30//30
f 18//19 38//37 37//36
f 39//38 40//39 18//19
f 40//39 38//37 18//19
f 18//19 24//23 39//38
f 22//21 31//31 20//14
f 41//40 21//24 14//13
f 41//40 14//13 31//31
f 69//41 32//42 21//24
f 42//43 32//42 69//41
f 21//24 41//40 69//41
f 23//22 43//44 24//23
f 43//44 39//38 24//23
f 32//42 15//15 21//24
f 23//22 15//15 44//45
f 45//46 44//45 15//15
f 45//46 15//15 32//42
f 33//32 19//20 17//18
f 46//33 16//17 33//32
f 26//26 25//25 34//47
f 34//47 25//25 46//33
f 28//27 36//34 27//28
f 47//48 27//28 36//34
f 22//21 27//28 47//48
f 33//32 17//18 30//30
f 37//36 48//49 30//30
f 49//50 38//37 40//39
f 50//51 51//52 31//31
f 31//31 22//21 47//48
f 31//31 47//48 50//51
f 31//31 52//53 41//40
f 52//53 53//54 41//40
f 53//54 69//41 41//40
f 54//55 42//43 69//41
f 55//56 42//43 54//55
f 23//22 44//45 43//44
f 42//43 45//46 32//42
f 46//33 33//32 30//30
f 34//47 57//57 58//58
f 34//47 46//33 57//57
f 59//59 60//60 26//26
f 26//26 34//47 59//59
f 30//30 57//57 46//33
f 60//60 35//35 26//26
f 35//35 60//60 61//61
f 36//34 35//35 61//61
f 47//48 36//34 62//62
f 38//37 48//49 37//36
f 48//49 57//57 30//30
f 49//50 48//49 38//37
f 39//38 63//63 40//39
f 64//64 63//63 39//38
f 49//50 65//65 66//66
f 66//66 67//67 49//50
f 49//50 40//39 65//65
f 51//52 52//53 31//31
f 68//68 50//51 47//48
f 45//46 42//43 55//56
f 62//62 70//69 47//48
f 44//45 56//70 43//44
f 56//70 64//64 43//44
f 56//70 44//45 45//46
f 71//71 56//70 45//46
f 58//58 59//59 34//47
f 36//34 80//72 62//62
f 60//60 72//73 61//61
f 80//72 36//34 61//61
f 73//74 57//57 48//49
f 40//39 63//63 65//65
f 39//38 43//44 64//64
f 68//68 47//48 75//75
f 74//76 50//51 68//68
f 74//76 51//52 50//51
f 47//48 70//69 75//75
f 69//41 77//77 54//55
f 54//55 78//78 79//79
f 78//78 54//55 77//77
f 79//79 55//56 54//55
f 77//77 69//41 76//80
f 55//56 71//71 45//46
f 71//71 55//56 79//79
f 80//72 70//69 62//62
f 57//57 73//74 58//58
f 58//58 81//81 59//59
f 80//72 61//61 82//82
f 82//82 61//61 72//73
f 49//50 67//67 48//49
f 83//83 73//74 48//49
f 63//63 64//64 84//84
f 63//63 85//85 65//65
f 66//66 85//85 67//67
f 86//86 51//52 74//76
f 75//75 99//87 68//68
f 53//54 52//53 87//88
f 52//53 51//52 87//88
f 53//54 88//89 69//41
f 76//80 69//41 88//89
f 103//90 77//77 76//80
f 89//91 56//70 71//71
f 90//92 71//71 79//79
f 90//92 89//91 71//71
f 91//93 70//69 80//72
f 92//94 56//70 89//91
f 93//95 64//64 56//70
f 92//94 93//95 56//70
f 58//58 73//74 94//96
f 81//81 58//58 94//96
f 59//59 95//97 60//60
f 95//97 59//59 81//81
f 95//97 72//73 60//60
f 82//82 72//73 95//97
f 96//98 48//49 67//67
f 83//83 48//49 96//98
f 85//85 63//63 97//99
f 85//85 66//66 65//65
f 97//99 63//63 84//84
f 96//98 67//67 85//85
f 85//85 98//100 96//98
f 86//86 87//88 51//52
f 68//68 99//87 100//101
f 100//101 74//76 68//68
f 101//102 99//87 75//75
f 74//76 102//103 86//86
f 87//88 86//86 102//103
f 53//54 87//88 88//89
f 75//75 70//69 101//102
f 77//77 103//90 78//78
f 104//104 79//79 78//78
f 79//79 105//105 90//92
f 105//105 79//79 104//104
f 106//106 80//72 82//82
f 106//106 82//82 107//107
f 91//93 80//72 106//106
f 73//74 83//83 94//96
f 94//96 83//83 110//108
f 109//109 82//82 108//110
f 82//82 109//109 107//107
f 110//108 83//83 96//98
f 84//84 64//64 93//95
f 85//85 97//99 111//111
f 93//95 97//99 84//84
f 85//85 111//111 98//100
f 98//100 110//108 96//98
f 88//89 87//88 115//112
f 112//113 100//101 99//87
f 114//114 99//87 101//102
f 102//103 115//112 87//88
f 116//115 78//78 103//90
f 88//89 115//112 117//116
f 76//80 88//89 118//117
f 103//90 76//80 118//117
f 119//118 105//105 104//104
f 104//104 120//119 119//118
f 121//120 90//92 105//105
f 121//120 89//91 90//92
f 125//121 89//91 122//122
f 122//122 89//91 121//120
f 92//94 89//91 125//121
f 106//106 123//123 91//93
f 124//124 91//93 123//123
f 91//93 124//124 101//102
f 101//102 70//69 91//93
f 93//95 92//94 97//99
f 110//108 81//81 94//96
f 82//82 95//97 108//110
f 108//110 95//97 81//81
f 109//109 126//125 107//107
f 98//100 111//111 127//126
f 112//113 99//87 113//127
f 100//101 128//128 74//76
f 114//114 101//102 124//124
f 74//76 128//128 102//103
f 116//115 103//90 129//129
f 103//90 118//117 130//130
f 116//115 104//104 78//78
f 121//120 105//105 131//131
f 131//131 105//105 119//118
f 121//120 131//131 132//132
f 133//133 121//120 132//132
f 133//133 122//122 121//120
f 123//123 106//106 134//134
f 111//111 97//99 92//94
f 136//135 108//110 81//81
f 110//108 136//135 81//81
f 126//125 109//109 137//136
f 107//107 126//125 106//106
f 98//100 136//135 110//108
f 136//135 98//100 138//137
f 138//137 98//100 127//126
f 113//127 99//87 114//114
f 113//127 114//114 140//138
f 139//139 114//114 124//124
f 117//116 141//140 88//89
f 142//141 141//140 117//116
f 142//141 117//116 115//112
f 142//141 115//112 102//103
f 130//130 144//142 103//90
f 144//142 129//129 103//90
f 104//104 116//115 120//119
f 129//129 120//119 116//115
f 130//130 118//117 145//143
f 131//131 119//118 146//144
f 119//118 147//145 148//146
f 148//146 146//144 119//118
f 146//144 149//147 131//131
f 135//148 125//121 122//122
f 132//132 131//131 149//147
f 133//133 135//148 122//122
f 123//123 134//134 151//149
f 123//123 151//149 150//150
f 123//123 150//150 124//124
f 124//124 150//150 139//139
f 125//121 135//148 127//126
f 125//121 127//126 92//94
f 92//94 127//126 111//111
f 109//109 108//110 136//135
f 152//151 138//137 127//126
f 153//152 114//114 139//139
f 112//113 154//153 100//101
f 128//128 100//101 154//153
f 155//154 154//153 112//113
f 155//154 112//113 113//127
f 88//89 141//140 118//117
f 157//155 142//141 102//103
f 102//103 156//156 157//155
f 128//128 156//156 102//103
f 156//156 128//128 154//153
f 143//157 129//129 144//142
f 144//142 130//130 145//143
f 158//158 119//118 120//119
f 158//158 147//145 119//118
f 134//134 126//125 149//147
f 126//125 132//132 149//147
f 134//134 149//147 151//149
f 151//149 149//147 146//144
f 150//150 159//159 139//139
f 134//134 106//106 126//125
f 135//148 152//151 127//126
f 137//136 109//109 136//135
f 133//133 132//132 137//136
f 126//125 137//136 132//132
f 138//137 137//136 136//135
f 137//136 138//137 133//133
f 152//151 135//148 133//133
f 133//133 138//137 152//151
f 140//138 114//114 153//152
f 153//152 139//139 159//159
f 140//138 160//160 113//127
f 155//154 161//161 162//162
f 155//154 113//127 161//161
f 157//155 156//156 163//163
f 164//164 129//129 143//157
f 120//119 129//129 158//158
f 165//165 143//157 144//142
f 165//165 144//142 166//166
f 166//166 144//142 145//143
f 145//143 118//117 141//140
f 166//166 145//143 167//167
f 146//144 168//168 151//149
f 178//169 150//150 151//149
f 161//161 113//127 160//160
f 154//153 169//170 156//156
f 169//170 154//153 155//154
f 169//170 155//154 162//162
f 170//171 142//141 157//155
f 169//170 171//172 156//156
f 171//172 163//163 156//156
f 163//163 171//172 172//173
f 173//174 164//164 143//157
f 158//158 129//129 164//164
f 174//175 143//157 165//165
f 175//176 173//174 143//157
f 175//176 143//157 174//175
f 145//143 141//140 176//177
f 185//178 167//167 145//143
f 177//179 146//144 148//146
f 147//145 158//158 164//164
f 150//150 178//169 159//159
f 153//152 159//159 178//169
f 140//138 153//152 178//169
f 141//140 142//141 181//180
f 181//180 176//177 141//140
f 180//181 170//171 157//155
f 142//141 170//171 181//180
f 157//155 163//163 180//181
f 147//145 164//164 173//174
f 174//175 165//165 182//182
f 166//166 167//167 165//165
f 175//176 183//183 186//184
f 183//183 175//176 174//175
f 184//185 167//167 185//178
f 185//178 145//143 176//177
f 168//168 146//144 177//179
f 186//184 177//179 148//146
f 173//174 148//146 147//145
f 187//186 151//149 168//168
f 178//169 151//149 187//186
f 161//161 160//160 179//187
f 140//138 178//169 187//186
f 160//160 140//138 187//186
f 188//188 161//161 179//187
f 162//162 161//161 188//188
f 189//189 190//190 179//187
f 188//188 179//187 190//190
f 191//191 169//170 162//162
f 171//172 169//170 191//191
f 191//191 193//192 171//172
f 193//192 172//173 171//172
f 163//163 192//193 180//181
f 174//175 182//182 183//183
f 195//194 182//182 165//165
f 195//194 165//165 167//167
f 196//195 195//194 167//167
f 167//167 184//185 196//195
f 148//146 173//174 186//184
f 186//184 173//174 175//176
f 185//178 197//196 184//185
f 197//196 185//178 198//197
f 199//198 168//168 177//179
f 168//168 199//198 187//186
f 199//198 177//179 186//184
f 208//199 186//184 183//183
f 189//189 160//160 187//186
f 179//187 160//160 189//189
f 190//190 189//189 200//200
f 188//188 201//201 162//162
f 162//162 201//201 191//191
f 176//177 181//180 170//171
f 180//181 192//193 202//202
f 202//202 170//171 180//181
f 163//163 194//203 192//193
f 192//193 194//203 203//204
f 202//202 192//193 203//204
f 172//173 194//203 163//163
f 204//205 182//182 195//194
f 208//199 183//183 205//206
f 206//207 207//208 198//197
f 185//178 176//177 198//197
f 199//198 189//189 187//186
f 208//199 199//198 186//184
f 210//209 190//190 200//200
f 209//210 210//209 200//200
f 189//189 199//198 200//200
f 211//211 190//190 210//209
f 212//212 188//188 190//190
f 188//188 212//212 201//201
f 193//192 191//191 201//201
f 201//201 213//213 214//214
f 170//171 206//207 176//177
f 170//171 202//202 206//207
f 229//215 206//207 202//202
f 193//192 201//201 214//214
f 215//216 172//173 193//192
f 193//192 214//214 215//216
f 202//202 203//204 230//217
f 230//217 203//204 216//218
f 194//203 217//219 203//204
f 183//183 182//182 218//220
f 218//220 182//182 204//205
f 195//194 219//221 204//205
f 196//195 220//222 195//194
f 196//195 184//185 220//222
f 183//183 221//223 205//206
f 205//206 222//224 208//199
f 205//206 221//223 223//225
f 205//206 223//225 222//224
f 221//223 183//183 218//220
f 198//197 176//177 206//207
f 198//197 224//226 197//196
f 198//197 207//208 224//226
f 199//198 208//199 200//200
f 209//210 200//200 208//199
f 209//210 225//227 226//228
f 225//227 209//210 208//199
f 212//212 190//190 211//211
f 227//229 212//212 211//211
f 214//214 213//213 228//230
f 214//214 231//231 215//216
f 232//232 231//231 214//214
f 172//173 215//216 217//219
f 194//203 172//173 217//219
f 203//204 217//219 233//233
f 234//234 216//218 203//204
f 203//204 233//233 234//234
f 235//235 221//223 218//220
f 218//220 204//205 235//235
f 204//205 219//221 236//236
f 219//221 195//194 220//222
f 237//237 197//196 224//226
f 184//185 197//196 237//237
f 184//185 237//237 238//238
f 184//185 238//238 220//222
f 224//226 207//208 206//207
f 225//227 208//199 222//224
f 239//239 210//209 209//210
f 225//227 240//240 226//228
f 227//229 213//213 212//212
f 228//230 213//213 227//229
f 201//201 212//212 213//213
f 214//214 228//230 232//232
f 229//215 202//202 230//217
f 231//231 242//241 215//216
f 242//241 217//219 215//216
f 236//236 235//235 204//205
f 235//235 236//236 244//242
f 246//243 237//237 224//226
f 220//222 238//238 247//244
f 247//244 245//245 220//222
f 248//246 225//227 222//224
f 248//246 222//224 223//225
f 223//225 221//223 249//247
f 223//225 250//248 248//246
f 250//248 223//225 249//247
f 229//215 224//226 206//207
f 224//226 259//249 246//243
f 240//240 225//227 248//246
f 239//239 251//250 210//209
f 239//239 209//210 226//228
f 251//250 252//251 210//209
f 253//252 227//229 252//251
f 210//209 252//251 227//229
f 227//229 211//211 210//209
f 241//253 232//232 228//230
f 230//217 263//254 229//215
f 254//255 216//218 255//256
f 216//218 256//257 255//256
f 216//218 234//234 256//257
f 230//217 216//218 254//255
f 241//253 231//231 232//232
f 242//241 231//231 257//258
f 243//259 256//257 234//234
f 243//259 234//234 233//233
f 217//219 242//241 233//233
f 244//242 221//223 235//235
f 249//247 221//223 244//242
f 219//221 258//260 236//236
f 245//245 219//221 220//222
f 258//260 219//221 245//245
f 238//238 237//237 246//243
f 246//243 259//249 260//261
f 238//238 246//243 261//262
f 260//261 261//262 246//243
f 247//244 238//238 261//262
f 262//263 250//248 249//247
f 263//254 224//226 229//215
f 224//226 263//254 259//249
f 266//264 252//251 251//250
f 226//228 251//250 239//239
f 226//228 266//264 251//250
f 265//265 240//240 264//266
f 226//228 240//240 265//265
f 266//264 226//228 265//265
f 228//230 227//229 253//252
f 267//267 254//255 255//256
f 267//267 268//268 254//255
f 254//255 268//268 263//254
f 230//217 254//255 263//254
f 269//269 231//231 241//253
f 257//258 231//231 269//269
f 241//253 270//270 269//269
f 242//241 257//258 271//271
f 242//241 271//271 233//233
f 233//233 271//271 243//259
f 244//242 262//263 249//247
f 274//272 273//273 236//236
f 274//272 236//236 258//260
f 258//260 245//245 247//244
f 247//244 275//274 258//260
f 276//275 277//276 247//244
f 277//276 275//274 247//244
f 278//277 240//240 248//246
f 250//248 278//277 248//246
f 273//273 262//263 244//242
f 259//249 263//254 279//278
f 266//264 253//252 252//251
f 278//277 264//266 240//240
f 280//279 264//266 278//277
f 281//280 266//264 265//265
f 265//265 264//266 282//281
f 281//280 265//265 283//282
f 265//265 282//281 283//282
f 253//252 284//283 228//230
f 284//283 241//253 228//230
f 285//284 255//256 256//257
f 269//269 272//285 257//258
f 269//269 270//270 272//285
f 241//253 286//286 270//270
f 286//286 241//253 284//283
f 284//283 281//280 286//286
f 257//258 272//285 271//271
f 243//259 271//271 272//285
f 273//273 244//242 236//236
f 274//272 258//260 275//274
f 259//249 279//278 260//261
f 261//262 260//261 276//275
f 260//261 279//278 276//275
f 276//275 247//244 261//262
f 288//287 262//263 273//273
f 250//248 262//263 288//287
f 288//287 273//273 287//288
f 288//287 280//279 250//248
f 279//278 263//254 268//268
f 266//264 284//283 253//252
f 280//279 289//289 264//266
f 264//266 289//289 282//281
f 284//283 266//264 281//280
f 298//290 282//281 290//291
f 282//281 289//289 290//291
f 282//281 298//290 283//282
f 291//292 283//282 298//290
f 256//257 292//293 285//284
f 268//268 267//267 293//294
f 267//267 255//256 293//294
f 292//293 272//285 270//270
f 256//257 243//259 292//293
f 243//259 272//285 292//293
f 273//273 274//272 287//288
f 274//272 275//274 294//295
f 274//272 294//295 287//288
f 295//296 276//275 279//278
f 294//295 275//274 277//276
f 250//248 280//279 278//277
f 288//287 297//297 280//279
f 279//278 268//268 295//296
f 297//297 289//289 280//279
f 286//286 281//280 283//282
f 285//284 292//293 301//298
f 255//256 285//284 293//294
f 293//294 299//299 268//268
f 268//268 299//299 295//296
f 299//299 293//294 300//300
f 286//286 291//292 270//270
f 294//295 288//287 287//288
f 294//295 277//276 296//301
f 276//275 299//299 277//276
f 277//276 299//299 296//301
f 297//297 300//300 289//289
f 290//291 289//289 300//300
f 301//298 290//291 300//300
f 290//291 301//298 298//290
f 291//292 298//290 301//298
f 291//292 286//286 283//282
f 293//294 285//284 300//300
f 291//292 301//298 292//293
f 292//293 270//270 291//292
f 285//284 301//298 300//300
f 276//275 295//296 299//299
f 294//295 296//301 288//287
f 296//301 297//297 288//287
f 296//301 299//299 300//300
f 300//300 297//297 296//301
