# Blender 4.0.2
# www.blender.org
mtllib capitate_r.mtl
o capitate_r.002
v -0.002388 -0.002098 0.007015
v -0.001229 -0.005053 0.007918
v -0.000065 -0.002926 0.006624
v -0.003181 -0.001623 0.006656
v -0.002421 -0.006835 0.008282
v -0.003550 -0.003754 0.007802
v -0.002318 -0.000481 0.006177
v -0.004804 -0.003466 0.007106
v 0.001083 -0.004411 0.007686
v -0.000874 -0.006758 0.007958
v 0.000261 -0.002004 0.006321
v -0.001212 0.000042 0.005875
v -0.004805 -0.006427 0.008266
v -0.004299 -0.001321 0.005521
v -0.000356 -0.006347 0.008038
v 0.002553 -0.003184 0.007209
v 0.000868 -0.003300 0.007004
v 0.003213 -0.003721 0.007398
v -0.002608 -0.007949 0.008272
v 0.000292 -0.000042 0.005251
v -0.001480 0.002109 0.005415
v 0.001376 0.001660 0.003838
v -0.005785 -0.004951 0.007541
v -0.006205 -0.003964 0.006126
v -0.003691 -0.000335 0.005561
v -0.004781 -0.001691 0.005052
v -0.005381 -0.002636 0.005086
v 0.001835 -0.005889 0.007978
v 0.001192 -0.006737 0.007940
v 0.003625 -0.005122 0.007557
v 0.001858 -0.002986 0.006641
v 0.000600 0.004207 0.003699
v -0.002933 0.000473 0.005614
v -0.002612 0.001994 0.005388
v -0.004756 -0.007981 0.008372
v -0.005913 -0.003301 0.005245
v -0.007086 -0.005950 0.006545
v 0.002848 -0.006316 0.007691
v 0.000030 -0.007040 0.007770
v 0.004354 -0.003430 0.006573
v 0.003276 -0.001972 0.006422
v 0.001927 -0.001431 0.005954
v -0.000691 -0.007063 0.007707
v -0.001858 -0.008074 0.007636
v -0.001849 0.004473 0.004379
v 0.002545 0.001326 0.003397
v 0.001841 0.003454 0.003233
v -0.006801 -0.006766 0.007362
v -0.006355 -0.007995 0.007762
v -0.003345 -0.008653 0.007959
v -0.005150 -0.008851 0.008101
v -0.007312 -0.006466 0.005981
v -0.004142 0.000140 0.005002
v -0.005050 -0.002448 0.004571
v -0.004615 -0.001319 0.004066
v 0.003673 -0.006149 0.007172
v -0.002955 -0.008684 0.007534
v -0.002709 0.004535 0.004268
v -0.003375 0.002690 0.005163
v -0.002326 0.006800 0.003748
v -0.001159 0.005423 0.004277
v 0.004044 -0.000663 0.004301
v 0.003946 0.000889 0.002467
v 0.003402 0.001792 0.002515
v 0.002431 0.003653 0.002888
v -0.003710 0.001512 0.005384
v -0.005890 -0.004274 0.004170
v -0.006321 -0.005407 0.004184
v -0.004641 -0.003198 0.003370
v -0.004493 -0.000504 0.002710
v -0.004095 0.001445 0.004923
v -0.000585 -0.007790 0.006816
v 0.001755 -0.008057 0.006101
v 0.004538 -0.005838 0.006386
v 0.005692 -0.003650 0.004593
v 0.005033 -0.001497 0.004285
v -0.000714 -0.007261 0.007164
v -0.003399 0.004189 0.004173
v 0.001539 0.004232 0.003364
v 0.003858 0.002964 0.002235
v -0.003840 0.002420 0.005068
v -0.006788 -0.008056 0.007272
v -0.007317 -0.007833 0.006213
v -0.005453 -0.009289 0.007692
v -0.005202 -0.003360 0.004284
v -0.007232 -0.007336 0.005060
v -0.004287 -0.003072 0.002764
v -0.004115 0.003159 0.002724
v 0.003060 -0.007536 0.005633
v -0.001573 -0.008210 0.005021
v -0.003674 0.005671 0.003234
v 0.001051 0.006509 0.003962
v 0.002096 0.005427 0.003711
v 0.004637 0.000562 0.001655
v 0.005362 -0.000674 0.003340
v 0.004577 0.001357 0.001291
v -0.004482 -0.009227 0.006620
v -0.004970 -0.003925 0.003031
v -0.005805 -0.005520 0.003119
v -0.004214 -0.000361 -0.000544
v -0.004334 0.003040 0.000721
v 0.003715 -0.006853 0.005728
v 0.004196 -0.006846 0.005198
v 0.001311 -0.008662 0.004632
v 0.005533 -0.002669 0.004151
v -0.000775 -0.008081 0.005994
v -0.003525 0.006974 0.003137
v -0.000867 0.008262 0.003454
v 0.004812 0.003202 0.001641
v 0.002856 0.005424 0.003264
v -0.006857 -0.008653 0.006546
v -0.007151 -0.008248 0.005830
v -0.005802 -0.006741 0.003043
v -0.006262 -0.007542 0.004090
v -0.006863 -0.008038 0.005173
v -0.003830 -0.004187 0.001956
v -0.004117 -0.002842 0.001310
v 0.002394 -0.008365 0.004296
v 0.005265 -0.005748 0.004589
v 0.005501 -0.005177 0.004784
v 0.001575 0.007460 0.003430
v 0.005655 -0.000958 0.002744
v 0.004295 0.002158 0.001560
v 0.004568 0.007028 0.000710
v -0.005536 -0.009088 0.005661
v -0.004173 -0.005138 0.001486
v -0.004256 -0.003251 0.000045
v -0.004521 0.006618 -0.000816
v -0.004351 0.001747 -0.001943
v 0.005403 -0.004612 0.003452
v 0.005613 -0.001732 0.003347
v -0.003404 -0.007867 0.001883
v -0.004252 -0.008125 0.002656
v -0.002468 -0.007983 0.001986
v -0.004275 0.008378 0.001118
v -0.002347 0.009129 0.002700
v 0.001615 0.008785 0.002452
v 0.003792 0.007854 0.001131
v 0.005150 -0.000268 0.001545
v 0.005131 0.000413 0.000859
v 0.005037 0.002291 0.001281
v 0.005558 0.004894 -0.000185
v -0.004861 -0.007965 0.002655
v -0.004426 -0.007198 0.001660
v -0.004425 -0.006388 0.001203
v -0.003529 -0.003795 0.001495
v -0.004398 -0.002158 -0.001093
v -0.004239 0.002365 -0.002870
v -0.004493 0.004155 -0.003306
v -0.003976 -0.000331 -0.003214
v 0.002920 -0.007006 0.001933
v 0.004669 -0.005390 0.002580
v -0.000651 -0.008547 0.001159
v 0.001469 -0.008666 0.002219
v -0.003530 0.008578 0.002310
v -0.000269 0.009610 0.002584
v 0.005220 -0.000732 0.001026
v 0.005198 -0.000946 0.001584
v 0.004747 -0.002331 0.001191
v 0.005719 0.006351 -0.002099
v -0.004020 -0.001109 -0.002100
v -0.004770 0.007524 -0.002358
v -0.004414 0.005159 -0.003579
v 0.004945 -0.003423 0.000306
v 0.004879 -0.003159 0.001047
v -0.003816 -0.007465 0.001172
v -0.001917 0.010480 0.001355
v 0.005767 -0.000511 0.000502
v 0.006007 0.000562 -0.000217
v 0.005888 0.002046 0.000120
v 0.003483 0.009947 -0.001406
v 0.004936 0.008157 -0.003245
v 0.004563 0.008744 -0.001925
v -0.003619 -0.004593 0.000523
v -0.003931 -0.004128 -0.000727
v -0.003869 -0.003200 -0.001905
v -0.004500 0.008165 -0.003109
v -0.003953 0.002810 -0.003289
v -0.004162 0.004553 -0.003709
v -0.003371 -0.000828 -0.004687
v -0.003545 0.001701 -0.003872
v -0.003722 -0.003233 -0.003350
v -0.004610 0.008788 -0.001379
v 0.001657 -0.008329 0.000541
v 0.002762 -0.006652 -0.001460
v 0.004167 -0.005387 -0.000002
v 0.004663 -0.004360 -0.000269
v 0.000803 -0.008739 0.000809
v 0.000698 -0.009201 -0.001463
v -0.003532 0.009506 0.001304
v -0.000128 0.010882 0.000905
v 0.002504 0.010389 -0.000425
v 0.005594 -0.001489 0.000489
v 0.004752 -0.002504 0.000615
v 0.004625 -0.001797 0.000815
v 0.005494 0.006058 -0.004085
v -0.004283 -0.006149 0.000118
v -0.003616 -0.004063 -0.001567
v -0.002557 0.000466 -0.005806
v -0.004036 0.009527 0.000168
v -0.002245 -0.008117 -0.000528
v -0.000573 -0.009050 -0.001328
v 0.005841 -0.000792 0.000072
v 0.006472 0.001979 -0.001871
v 0.005990 0.002923 -0.004366
v 0.004279 0.008690 -0.004646
v 0.006377 0.002825 -0.003168
v -0.003801 -0.004800 -0.000603
v -0.003847 0.005754 -0.004116
v -0.003571 0.007085 -0.004507
v -0.003522 0.008792 -0.003980
v -0.004314 0.009056 -0.002491
v -0.003409 0.003294 -0.003344
v -0.003436 0.004067 -0.003490
v -0.002724 -0.003051 -0.005493
v -0.001754 0.002078 -0.005540
v -0.003941 0.009764 -0.001253
v 0.002696 -0.006759 -0.002896
v 0.000978 -0.009184 -0.002440
v 0.005073 -0.002373 -0.000209
v -0.003521 -0.007681 -0.002155
v -0.004018 -0.007170 0.000144
v -0.002180 0.010960 -0.000347
v 0.001941 0.011217 -0.001813
v 0.006080 0.001293 -0.002775
v 0.004895 0.005706 -0.005389
v 0.005939 0.001965 -0.004287
v -0.004334 -0.006497 -0.000622
v -0.003841 -0.005554 -0.002062
v -0.003862 -0.005464 -0.004431
v -0.002517 0.008577 -0.004953
v -0.002334 0.010418 -0.003172
v -0.003122 -0.003793 -0.005056
v -0.002779 0.004163 -0.004185
v -0.001303 0.000571 -0.006442
v -0.001512 -0.001913 -0.006791
v 0.001078 -0.009903 -0.004769
v 0.002888 -0.006108 -0.003325
v 0.005201 -0.002050 0.000480
v -0.001216 -0.009376 -0.003231
v 0.000339 -0.009779 -0.003377
v -0.002033 0.010988 -0.001565
v 0.000240 0.011439 -0.001673
v 0.005684 -0.000092 -0.000987
v 0.003568 -0.001182 -0.003538
v 0.003377 0.010211 -0.003657
v 0.004588 0.002936 -0.005964
v 0.003472 0.008761 -0.005692
v -0.004078 -0.007082 -0.001899
v -0.002200 -0.004333 -0.006250
v -0.001676 0.004253 -0.005139
v 0.002087 -0.008588 -0.005587
v 0.003046 -0.004246 -0.003595
v 0.000140 0.010934 -0.003665
v 0.001565 0.011011 -0.003527
v 0.004633 -0.001565 -0.001589
v 0.003967 0.000014 -0.004959
v 0.002974 0.010318 -0.004311
v 0.004013 0.002212 -0.006281
v 0.003569 0.006239 -0.006583
v 0.004967 0.001084 -0.005063
v -0.003589 -0.007283 -0.003786
v -0.002098 0.005970 -0.005511
v -0.002001 0.007551 -0.005599
v -0.000626 0.008071 -0.005958
v -0.002991 -0.006682 -0.005286
v 0.000356 0.003840 -0.006091
v -0.000634 0.004633 -0.005607
v 0.000680 0.001328 -0.006577
v -0.000175 -0.001533 -0.006991
v 0.001819 -0.006129 -0.006587
v 0.002333 -0.004715 -0.004921
v 0.000137 -0.010240 -0.005230
v 0.003501 -0.002186 -0.002882
v -0.003503 -0.007898 -0.003537
v 0.002842 0.004024 -0.007009
v 0.002983 0.000316 -0.006205
v 0.003139 0.007557 -0.006447
v -0.001341 0.009789 -0.004639
v -0.000549 -0.003718 -0.007183
v -0.002534 -0.007897 -0.005371
v 0.001111 -0.009533 -0.006051
v 0.001663 -0.008994 -0.006070
v -0.000881 -0.009875 -0.005415
v 0.002741 -0.000952 -0.005496
v 0.002661 -0.001943 -0.004581
v 0.002699 0.008473 -0.006092
v 0.000054 0.005655 -0.006404
v 0.000231 -0.006106 -0.007114
v 0.001178 0.004257 -0.006839
v 0.001463 -0.000720 -0.006409
v 0.001422 -0.002081 -0.006234
v 0.000792 -0.003980 -0.007070
v 0.000428 -0.009785 -0.006011
v 0.002042 -0.001368 -0.005144
v 0.002206 0.009679 -0.005264
v 0.001865 0.004988 -0.007072
v -0.000205 -0.007600 -0.006729
v 0.002055 0.000795 -0.006713
v 0.001555 0.002887 -0.006878
v 0.001978 -0.001001 -0.005792
vn 0.0712 0.4135 0.9077
vn 0.0857 0.2411 0.9667
vn 0.0429 0.3861 0.9215
vn -0.1105 0.3603 0.9263
vn -0.3078 0.5098 0.8034
vn -0.4908 0.5511 0.6748
vn -0.0274 0.3497 0.9365
vn 0.0977 0.0480 0.9941
vn 0.2212 -0.2639 0.9388
vn 0.1258 0.3959 0.9096
vn 0.2707 0.3389 0.9010
vn -0.1254 0.4114 0.9028
vn -0.2005 0.1395 0.9697
vn -0.5241 0.3769 0.7637
vn -0.6840 0.4122 0.6019
vn -0.0168 -0.1121 0.9936
vn 0.1171 0.0202 0.9929
vn -0.0551 0.5038 0.8621
vn -0.0818 0.5308 0.8435
vn 0.2771 0.3230 0.9049
vn 0.2504 -0.3954 0.8837
vn 0.2934 0.4979 0.8161
vn 0.2207 0.3158 0.9228
vn 0.4387 0.2845 0.8524
vn -0.7834 0.5398 0.3081
vn -0.5051 0.3031 0.8081
vn -0.8033 0.5947 0.0326
vn -0.8837 0.4287 0.1876
vn 0.1315 -0.4855 0.8643
vn 0.5146 0.0098 0.8574
vn 0.3278 0.0191 0.9445
vn -0.1005 0.2383 0.9660
vn -0.3077 0.1982 0.9306
vn -0.8415 0.5315 -0.0965
vn -0.8924 0.1619 0.4212
vn 0.3922 -0.4559 0.7990
vn -0.0043 -0.6493 0.7605
vn 0.2593 -0.6972 0.6683
vn -0.1937 0.6177 0.7622
vn 0.6880 0.2730 0.6724
vn 0.2803 0.6249 0.7287
vn 0.0827 0.5915 0.8020
vn 0.4646 -0.7585 0.4570
vn -0.1120 -0.1152 0.9870
vn 0.0384 0.2780 0.9598
vn 0.4855 0.4340 0.7589
vn 0.4433 0.0324 0.8958
vn -0.7329 0.1251 0.6688
vn -0.5691 -0.1690 0.8047
vn 0.2386 -0.7320 0.6381
vn -0.1485 -0.4660 0.8722
vn -0.8951 0.3066 0.3236
vn -0.9822 0.1876 0.0030
vn -0.4467 0.1461 0.8827
vn -0.8523 0.3695 -0.3702
vn -0.9746 0.1984 -0.1041
vn 0.5844 -0.5401 0.6057
vn 0.3845 -0.8864 0.2580
vn -0.2372 0.3747 0.8963
vn -0.2229 0.3869 0.8948
vn 0.0428 0.1020 0.9939
vn 0.4336 0.6504 0.6237
vn 0.6466 0.5484 0.5302
vn 0.6390 0.1878 0.7459
vn 0.4468 -0.1381 0.8839
vn -0.8129 0.4014 -0.4221
vn -0.9195 0.1077 0.3780
vn -0.8113 0.3205 -0.4888
vn -0.9995 0.0216 -0.0233
vn 0.1922 -0.8234 0.5339
vn 0.2528 -0.8558 0.4513
vn 0.7849 -0.3568 0.5066
vn 0.9787 0.0854 0.1869
vn 0.6824 0.4466 0.5787
vn 0.1985 -0.7317 0.6521
vn -0.6699 0.3914 0.6309
vn -0.2591 0.3108 0.9145
vn 0.1572 -0.2212 0.9625
vn 0.5431 -0.1380 0.8283
vn -0.7269 0.3161 0.6096
vn -0.7920 -0.2792 0.5430
vn -0.9715 -0.1788 0.1555
vn -0.2517 -0.8620 0.4400
vn -0.6110 0.4199 -0.6712
vn -0.8829 0.2204 -0.4146
vn -0.8904 -0.1102 -0.4417
vn -0.9332 -0.0526 -0.3554
vn -0.9751 0.1572 0.1565
vn 0.0597 -0.9981 -0.0127
vn -0.8470 0.1183 0.5183
vn 0.2150 0.1725 0.9613
vn 0.3699 -0.0604 0.9271
vn 0.8022 0.4669 0.3721
vn 0.7305 0.5358 0.4235
vn 0.7164 0.0483 0.6960
vn 0.1594 -0.9859 -0.0516
vn -0.6624 0.4844 -0.5715
vn -0.8105 0.1699 -0.5606
vn -0.9975 0.0189 0.0676
vn 0.5348 -0.7130 0.4535
vn 0.5352 -0.7618 0.3648
vn 0.6783 -0.7250 0.1199
vn 0.0309 -0.9752 0.2193
vn 0.0848 -0.9817 0.1703
vn 0.9651 0.1554 0.2106
vn -0.6730 0.2572 0.6935
vn -0.0272 0.4318 0.9016
vn 0.9841 0.1711 -0.0477
vn 0.5864 -0.1561 0.7948
vn 0.7140 -0.0271 0.6996
vn 0.5937 0.0636 0.8022
vn -0.6908 -0.7157 0.1031
vn -0.7188 -0.6457 -0.2577
vn -0.8216 -0.1200 -0.5573
vn -0.7195 -0.3965 -0.5702
vn -0.5772 -0.6389 -0.5085
vn -0.7864 0.3523 -0.5075
vn -0.9648 -0.2631 -0.0004
vn -0.9985 -0.0192 -0.0522
vn 0.5119 -0.8584 0.0321
vn 0.8193 -0.5707 -0.0549
vn 0.9555 -0.2373 0.1753
vn 0.4130 0.4143 0.8111
vn 0.8103 0.3535 0.4674
vn -0.2310 -0.9308 -0.2833
vn -0.1271 -0.9022 -0.4122
vn -0.8112 0.3372 -0.4777
vn -0.9588 -0.2636 0.1058
vn -0.9949 -0.0402 0.0927
vn -0.9949 -0.0780 -0.0643
vn -0.9253 0.2280 0.3030
vn 0.9974 0.0451 0.0555
vn -0.0449 -0.9348 -0.3524
vn -0.2159 -0.9761 -0.0246
vn -0.3093 0.5821 0.7520
vn 0.1225 0.6753 0.7273
vn 0.6893 0.4850 0.5381
vn 0.4584 0.6039 0.6521
vn 0.9578 0.2873 0.0095
vn 0.8049 0.2343 0.5452
vn 0.6286 -0.1616 0.7608
vn 0.9107 0.1977 0.3626
vn -0.4795 -0.6769 -0.5585
vn -0.6621 -0.4616 -0.5904
vn -0.9191 -0.0381 -0.3921
vn -0.9879 -0.0475 -0.1474
vn -0.8996 -0.1403 -0.4136
vn -0.9047 -0.1215 -0.4084
vn -0.9630 -0.0433 -0.2658
vn 0.3541 -0.9329 -0.0655
vn 0.7215 -0.6739 -0.1589
vn 0.7890 -0.5650 -0.2412
vn -0.2142 -0.9706 0.1094
vn 0.9397 -0.2437 -0.2401
vn -0.6575 0.4396 0.6120
vn 0.8983 -0.1356 0.4180
vn 0.9553 -0.1367 -0.2621
vn 0.9561 0.0766 -0.2828
vn 0.9528 0.2947 0.0734
vn -0.9831 -0.1173 -0.1406
vn -0.9871 -0.0345 -0.1566
vn -0.8797 -0.0420 -0.4737
vn -0.9964 0.0206 -0.0822
vn 0.9922 -0.1163 -0.0449
vn 0.9745 0.1914 -0.1171
vn -0.5652 -0.7801 -0.2684
vn -0.2759 0.8361 0.4742
vn 0.8501 0.0087 0.5266
vn 0.9574 -0.1068 0.2683
vn 0.8958 0.0383 0.4428
vn 0.7016 0.6773 0.2215
vn 0.8280 0.5390 0.1544
vn -0.9856 0.1693 0.0021
vn -0.9525 -0.2832 -0.1121
vn -0.9801 -0.1309 -0.1493
vn -0.8720 0.2494 -0.4212
vn -0.3564 -0.2411 -0.9027
vn -0.5488 -0.0327 -0.8353
vn -0.7756 0.1625 -0.6099
vn -0.8783 -0.0062 -0.4781
vn -0.9702 0.0440 -0.2384
vn -0.9490 0.3146 0.0226
vn 0.6574 -0.7531 -0.0246
vn 0.7844 -0.6184 -0.0471
vn 0.8054 -0.5472 -0.2277
vn 0.9162 -0.3121 -0.2513
vn 0.1465 -0.9849 0.0919
vn -0.6229 0.6642 0.4133
vn 0.1283 0.8909 0.4358
vn 0.5285 0.7462 0.4048
vn 0.8132 -0.4023 0.4206
vn 0.8659 0.0003 0.5002
vn 0.9219 -0.2438 0.3010
vn 0.9949 -0.0936 0.0379
vn 0.8836 0.4538 -0.1150
vn 0.9224 0.2439 -0.2996
vn -0.9926 0.1194 -0.0235
vn -0.9885 -0.1420 0.0518
vn -0.7614 0.6141 0.2077
vn -0.4226 -0.8993 0.1128
vn 0.2361 -0.9509 0.2001
vn -0.2393 -0.9414 0.2379
vn 0.9680 -0.2461 -0.0503
vn 0.8834 0.0419 -0.4668
vn 0.7912 0.4742 -0.3862
vn 0.9842 0.0495 -0.1701
vn -0.9929 0.1167 -0.0210
vn -0.7848 -0.6194 -0.0201
vn -0.5670 -0.2024 -0.7985
vn -0.6841 0.0713 -0.7258
vn -0.6399 0.4712 -0.6070
vn -0.7854 0.5523 -0.2794
vn -0.3188 -0.2613 -0.9111
vn -0.4259 0.0019 -0.9048
vn -0.7976 -0.0022 -0.6031
vn -0.6713 0.2061 -0.7120
vn -0.5718 0.2899 -0.7675
vn -0.6907 0.7208 -0.0580
vn 0.6765 -0.7228 0.1413
vn 0.8750 -0.4836 -0.0222
vn 0.9263 -0.2724 -0.2604
vn -0.6117 -0.7838 0.1071
vn -0.3656 0.9191 0.1471
vn 0.3606 0.9292 0.0813
vn 0.7820 0.1806 -0.5965
vn 0.8503 -0.2858 -0.4419
vn -0.9975 -0.0581 -0.0390
vn -0.9936 0.0832 -0.0760
vn -0.9231 -0.0286 -0.3835
vn -0.4957 0.4195 -0.7604
vn -0.4427 0.8032 -0.3985
vn -0.8388 0.1482 -0.5239
vn -0.4656 0.0627 -0.8827
vn -0.7125 -0.1246 -0.6906
vn -0.3281 0.2307 -0.9161
vn 0.5749 -0.8156 0.0652
vn 0.0924 -0.9589 0.2684
vn 0.8246 -0.2845 -0.4890
vn 0.9322 -0.2215 -0.2864
vn 0.7244 -0.3793 0.5756
vn -0.4010 -0.8960 0.1910
vn -0.0220 0.9997 -0.0088
vn 0.8727 -0.3926 -0.2903
vn 0.8554 -0.4606 -0.2368
vn 0.7685 -0.4879 -0.4139
vn 0.6593 0.7405 -0.1303
vn 0.6526 -0.0538 -0.7558
vn 0.5121 0.5107 -0.6906
vn -0.9451 -0.3000 -0.1295
vn -0.6275 -0.0530 -0.7768
vn -0.5317 -0.0464 -0.8457
vn -0.3663 0.9216 -0.1283
vn 0.9055 -0.3617 -0.2218
vn 0.8650 -0.0823 -0.4950
vn -0.8015 -0.5770 -0.1568
vn -0.1194 0.8775 -0.4645
vn 0.1303 0.9147 -0.3825
vn 0.6553 -0.6080 -0.4483
vn 0.6954 -0.4680 -0.5454
vn 0.4011 0.8036 -0.4396
vn 0.4781 0.1648 -0.8627
vn -0.9257 -0.2151 -0.3111
vn -0.4975 -0.1766 -0.8493
vn -0.4475 0.1523 -0.8812
vn -0.2157 0.3572 -0.9088
vn -0.2800 0.6628 -0.6945
vn -0.7337 -0.1789 -0.6555
vn -0.5297 0.0061 -0.8481
vn -0.4340 -0.1440 -0.8893
vn -0.1349 0.0381 -0.9901
vn 0.0820 0.1095 -0.9906
vn 0.7016 -0.0459 -0.7111
vn 0.9136 0.0304 -0.4055
vn -0.0033 -0.9898 -0.1423
vn 0.8147 -0.1406 -0.5626
vn 0.4930 -0.1930 -0.8483
vn 0.2531 -0.0356 -0.9668
vn 0.2860 0.3093 -0.9070
vn -0.2002 -0.0234 -0.9795
vn -0.6657 -0.3713 -0.6473
vn 0.3908 -0.1932 -0.9000
vn 0.4055 -0.6331 -0.6593
vn 0.6246 -0.4570 -0.6333
vn -0.4830 -0.7715 -0.4142
vn 0.6663 -0.3518 -0.6575
vn 0.4953 -0.6282 -0.6000
vn 0.4773 -0.3762 -0.7942
vn 0.0610 0.4790 -0.8757
vn -0.4059 -0.0777 -0.9106
vn -0.2271 -0.2640 -0.9374
vn 0.0014 -0.1389 -0.9903
vn -0.4280 -0.0534 -0.9022
vn 0.7038 0.0146 -0.7102
vn 0.3683 0.0787 -0.9264
vn -0.0022 -0.6627 -0.7489
vn 0.5938 -0.4822 -0.6441
vn 0.0432 0.6734 -0.7380
vn -0.0819 0.0847 -0.9930
vn 0.1342 -0.1869 -0.9732
vn -0.1432 -0.0708 -0.9872
vn 0.5582 -0.6058 -0.5670
s 1
f 1//1 2//2 3//3
f 1//1 6//4 2//2
f 4//5 6//4 1//1
f 8//6 6//4 4//5
f 2//2 9//7 3//3
f 2//2 5//8 10//9
f 2//2 6//4 5//8
f 3//3 11//10 1//1
f 11//10 12//11 1//1
f 7//12 1//1 12//11
f 5//8 6//4 13//13
f 6//4 8//6 23//14
f 4//5 1//1 7//12
f 4//5 14//15 8//6
f 9//7 2//2 15//16
f 9//7 15//16 28//17
f 16//18 17//19 9//7
f 3//3 9//7 17//19
f 9//7 18//20 16//18
f 10//9 5//8 19//21
f 11//10 20//22 12//11
f 21//23 12//11 22//24
f 12//11 20//22 22//24
f 7//12 12//11 21//23
f 13//13 6//4 23//14
f 23//14 8//6 24//25
f 4//5 7//12 25//26
f 8//6 14//15 27//27
f 27//27 14//15 26//28
f 14//15 4//5 25//26
f 9//7 28//17 18//20
f 29//29 28//17 15//16
f 30//30 18//20 28//17
f 2//2 10//9 15//16
f 11//10 3//3 17//19
f 32//31 21//23 22//24
f 7//12 34//32 33//33
f 7//12 21//23 34//32
f 27//27 24//25 8//6
f 24//25 27//27 36//34
f 33//33 25//26 7//12
f 25//26 53//35 14//15
f 53//35 26//28 14//15
f 28//17 38//36 30//30
f 15//16 39//37 29//29
f 10//9 43//38 15//16
f 17//19 16//18 31//39
f 18//20 30//30 40//40
f 18//20 41//41 16//18
f 31//39 11//10 17//19
f 11//10 31//39 42//42
f 20//22 11//10 42//42
f 10//9 19//21 44//43
f 19//21 13//13 35//44
f 19//21 5//8 13//13
f 21//23 32//31 45//45
f 20//22 46//46 22//24
f 32//31 22//24 47//47
f 22//24 46//46 47//47
f 13//13 48//48 49//49
f 49//49 35//44 13//13
f 13//13 23//14 48//48
f 19//21 35//44 50//50
f 35//44 51//51 50//50
f 36//34 37//52 24//25
f 52//53 37//52 36//34
f 25//26 33//33 66//54
f 54//55 27//27 26//28
f 55//56 54//55 26//28
f 53//35 55//56 26//28
f 43//38 39//37 15//16
f 42//42 16//18 41//41
f 16//18 42//42 31//39
f 30//30 38//36 56//57
f 40//40 41//41 18//20
f 43//38 10//9 44//43
f 57//58 44//43 19//21
f 19//21 50//50 57//58
f 20//22 42//42 46//46
f 45//45 58//59 21//23
f 21//23 59//60 34//32
f 58//59 59//60 21//23
f 61//61 45//45 32//31
f 46//46 42//42 62//62
f 62//62 63//63 46//46
f 46//46 64//64 47//47
f 65//65 47//47 64//64
f 33//33 34//32 59//60
f 66//54 33//33 59//60
f 48//48 23//14 37//52
f 51//51 35//44 49//49
f 52//53 36//34 67//66
f 54//55 67//66 36//34
f 36//34 27//27 54//55
f 24//25 37//52 23//14
f 66//54 71//67 25//26
f 54//55 55//56 69//68
f 53//35 70//69 55//56
f 71//67 70//69 53//35
f 29//29 38//36 28//17
f 29//29 39//37 72//70
f 29//29 72//70 73//71
f 38//36 29//29 73//71
f 40//40 30//30 74//72
f 30//30 56//57 74//72
f 75//73 76//74 40//40
f 41//41 40//40 76//74
f 77//75 43//38 44//43
f 72//70 77//75 44//43
f 62//62 42//42 41//41
f 58//59 78//76 59//60
f 60//77 58//59 45//45
f 60//77 45//45 61//61
f 79//78 32//31 47//47
f 64//64 46//46 63//63
f 65//65 64//64 80//79
f 59//60 81//80 66//54
f 82//81 49//49 48//48
f 52//53 48//48 37//52
f 82//81 48//48 83//82
f 52//53 83//82 48//48
f 50//50 51//51 84//83
f 67//66 54//55 85//84
f 67//66 68//85 52//53
f 86//86 52//53 68//85
f 53//35 25//26 71//67
f 69//68 85//84 54//55
f 55//56 87//87 69//68
f 70//69 71//67 88//88
f 88//88 71//67 81//80
f 77//75 72//70 39//37
f 75//73 40//40 74//72
f 76//74 62//62 41//41
f 77//75 39//37 43//38
f 44//43 57//58 90//89
f 58//59 91//90 78//76
f 78//76 81//80 59//60
f 92//91 61//61 32//31
f 32//31 93//92 92//91
f 32//31 79//78 93//92
f 94//93 63//63 95//94
f 64//64 63//63 96//95
f 63//63 94//93 96//95
f 63//63 62//62 95//94
f 93//92 79//78 47//47
f 47//47 65//65 93//92
f 50//50 84//83 57//58
f 57//58 84//83 97//96
f 84//83 49//49 82//81
f 51//51 49//49 84//83
f 98//97 67//66 85//84
f 99//98 68//85 67//66
f 98//97 99//98 67//66
f 86//86 83//82 52//53
f 71//67 66//54 81//80
f 85//84 69//68 98//97
f 87//87 55//56 70//69
f 101//99 70//69 88//88
f 56//57 38//36 102//100
f 89//101 102//100 38//36
f 38//36 73//71 89//101
f 89//101 103//102 102//100
f 106//103 104//104 72//70
f 72//70 104//104 73//71
f 74//72 56//57 103//102
f 56//57 102//100 103//102
f 76//74 75//73 105//105
f 76//74 95//94 62//62
f 57//58 97//96 90//89
f 106//103 44//43 90//89
f 106//103 72//70 44//43
f 60//77 107//106 58//59
f 107//106 91//90 58//59
f 61//61 108//107 60//77
f 108//107 61//61 92//91
f 95//94 122//108 94//93
f 80//79 123//109 109//110
f 80//79 110//111 65//65
f 110//111 80//79 109//110
f 65//65 110//111 93//92
f 83//82 111//112 82//81
f 112//113 83//82 86//86
f 82//81 111//112 84//83
f 113//114 114//115 99//98
f 114//115 68//85 99//98
f 68//85 114//115 86//86
f 112//113 86//86 115//116
f 116//117 69//68 87//87
f 117//118 87//87 70//69
f 70//69 100//119 117//118
f 81//80 78//76 88//88
f 101//99 88//88 91//90
f 78//76 91//90 88//88
f 89//101 73//71 118//120
f 103//102 89//101 118//120
f 103//102 119//121 74//72
f 74//72 120//122 75//73
f 74//72 119//121 120//122
f 121//123 108//107 92//91
f 121//123 92//91 93//92
f 64//64 96//95 123//109
f 123//109 80//79 64//64
f 124//124 110//111 109//110
f 83//82 112//113 111//112
f 125//125 97//96 84//83
f 97//96 125//125 133//126
f 113//114 99//98 126//127
f 98//97 126//127 99//98
f 86//86 114//115 115//116
f 100//119 70//69 101//99
f 100//119 127//128 117//118
f 101//99 128//129 129//130
f 100//119 101//99 129//130
f 91//90 135//131 101//99
f 118//120 73//71 104//104
f 90//89 104//104 106//103
f 76//74 105//105 95//94
f 105//105 131//132 95//94
f 90//89 97//96 132//133
f 97//96 133//126 132//133
f 134//134 90//89 132//133
f 135//131 91//90 107//106
f 136//135 60//77 108//107
f 136//135 107//106 60//77
f 121//123 156//136 108//107
f 93//92 110//111 121//123
f 121//123 110//111 138//137
f 138//137 137//138 121//123
f 122//108 139//139 94//93
f 96//95 94//93 140//140
f 140//140 94//93 139//139
f 122//108 95//94 131//132
f 141//141 123//109 96//95
f 109//110 123//109 141//141
f 124//124 109//110 142//142
f 125//125 84//83 111//112
f 143//143 114//115 113//114
f 144//144 143//143 113//114
f 126//127 145//145 113//114
f 145//145 144//144 113//114
f 126//127 98//97 69//68
f 115//116 114//115 125//125
f 111//112 115//116 125//125
f 126//127 69//68 116//117
f 147//146 127//128 100//119
f 129//130 149//147 148//148
f 149//147 129//130 128//129
f 100//119 129//130 150//149
f 150//149 129//130 148//148
f 135//131 128//129 101//99
f 103//102 118//120 154//150
f 151//151 103//102 154//150
f 103//102 151//151 152//152
f 153//153 104//104 134//134
f 134//134 104//104 90//89
f 154//150 104//104 153//153
f 120//122 130//154 75//73
f 130//154 120//122 119//121
f 105//105 75//73 130//154
f 131//132 105//105 130//154
f 125//125 143//143 133//126
f 136//135 155//155 107//106
f 135//131 107//106 155//155
f 156//136 136//135 108//107
f 156//136 121//123 137//138
f 124//124 138//137 110//111
f 157//156 140//140 158//157
f 139//139 158//157 140//140
f 122//108 131//132 159//158
f 160//159 124//124 142//142
f 112//113 115//116 111//112
f 125//125 114//115 143//143
f 117//118 127//128 146//160
f 87//87 117//118 146//160
f 150//149 161//161 100//119
f 161//161 147//146 100//119
f 163//162 128//129 162//163
f 128//129 163//162 149//147
f 162//163 128//129 135//131
f 152//152 119//121 103//102
f 104//104 154//150 118//120
f 130//154 119//121 152//152
f 164//164 165//165 130//154
f 164//164 130//154 152//152
f 134//134 132//133 166//166
f 136//135 156//136 167//167
f 158//157 139//139 122//108
f 168//168 169//169 140//140
f 140//140 157//156 168//168
f 165//165 159//158 131//132
f 158//157 122//108 159//158
f 169//169 96//95 140//140
f 141//141 96//95 169//169
f 170//170 109//110 141//141
f 142//142 109//110 170//170
f 171//171 138//137 124//124
f 173//172 124//124 160//159
f 145//145 126//127 174//173
f 133//126 143//143 144//144
f 146//160 116//117 87//87
f 147//146 175//174 127//128
f 176//175 175//174 147//146
f 163//162 162//163 177//176
f 148//148 149//147 179//177
f 179//177 178//178 148//148
f 181//179 180//180 150//149
f 148//148 181//179 150//149
f 181//179 148//148 178//178
f 161//161 150//149 182//181
f 150//149 180//180 182//181
f 183//182 162//163 135//131
f 154//150 184//183 151//151
f 152//152 151//151 185//184
f 186//185 187//186 152//152
f 186//185 152//152 185//184
f 153//153 188//187 154//150
f 131//132 130//154 165//165
f 132//133 133//126 166//166
f 166//166 133//126 144//144
f 190//188 135//131 155//155
f 190//188 136//135 167//167
f 155//155 136//135 190//188
f 156//136 191//189 167//167
f 137//138 192//190 191//189
f 156//136 137//138 191//189
f 137//138 138//137 192//190
f 157//156 193//191 168//168
f 159//158 165//165 194//192
f 158//157 159//158 195//193
f 170//170 141//141 169//169
f 169//169 204//194 170//170
f 192//190 138//137 171//171
f 171//171 124//124 173//172
f 204//194 160//159 142//142
f 173//172 160//159 172//195
f 172//195 160//159 196//196
f 146//160 126//127 116//117
f 174//173 126//127 146//160
f 174//173 197//197 145//145
f 145//145 166//166 144//144
f 146//160 127//128 175//174
f 175//174 174//173 146//160
f 175//174 176//175 198//198
f 135//131 200//199 183//182
f 188//187 184//183 154//150
f 151//151 184//183 185//184
f 164//164 152//152 187//186
f 165//165 164//164 194//192
f 153//153 134//134 201//200
f 201//200 134//134 166//166
f 153//153 189//201 188//187
f 189//201 153//153 202//202
f 153//153 201//200 202//202
f 190//188 200//199 135//131
f 157//156 158//157 195//193
f 169//169 168//168 203//203
f 195//193 159//158 194//192
f 142//142 170//170 204//194
f 205//204 196//196 160//159
f 196//196 206//205 172//195
f 160//159 204//194 207//206
f 174//173 208//207 197//197
f 208//207 174//173 175//174
f 166//166 145//145 222//208
f 145//145 197//197 222//208
f 208//207 175//174 198//198
f 147//146 161//161 176//175
f 161//161 182//181 176//175
f 163//162 179//177 149//147
f 209//209 179//177 163//162
f 209//209 163//162 210//210
f 210//210 163//162 177//176
f 211//211 210//210 177//176
f 177//176 212//212 211//211
f 178//178 179//177 214//213
f 178//178 214//213 213//214
f 180//180 215//215 182//181
f 181//179 199//216 180//180
f 181//179 178//178 213//214
f 216//217 199//216 181//179
f 213//214 216//217 181//179
f 177//176 162//163 183//182
f 183//182 200//199 217//218
f 184//183 188//187 189//201
f 184//183 219//219 185//184
f 185//184 219//219 218//220
f 184//183 189//201 219//219
f 164//164 187//186 220//221
f 187//186 185//184 218//220
f 185//184 187//186 186//185
f 201//200 222//208 221//222
f 201//200 166//166 222//208
f 200//199 190//188 167//167
f 223//223 167//167 191//189
f 191//189 192//190 224//224
f 203//203 168//168 193//191
f 157//156 195//193 193//191
f 205//204 226//225 196//196
f 205//204 160//159 207//206
f 226//225 206//205 196//196
f 227//226 207//206 204//194
f 228//227 197//197 208//207
f 228//227 222//208 197//197
f 208//207 229//228 228//227
f 198//198 229//228 208//207
f 198//198 176//175 229//228
f 229//228 176//175 230//229
f 230//229 176//175 182//181
f 179//177 209//209 214//213
f 231//230 210//210 211//211
f 232//231 211//211 212//212
f 215//215 180//180 199//216
f 233//232 215//215 236//233
f 236//233 215//215 199//216
f 215//215 233//232 182//181
f 213//214 234//234 216//217
f 236//233 199//216 235//235
f 216//217 235//235 199//216
f 233//232 230//229 182//181
f 217//218 212//212 183//182
f 223//223 217//218 200//199
f 212//212 177//176 183//182
f 219//219 237//236 218//220
f 237//236 219//219 241//237
f 220//221 187//186 256//238
f 218//220 238//239 187//186
f 256//238 187//186 238//239
f 239//240 194//192 164//164
f 220//221 239//240 164//164
f 195//193 194//192 239//240
f 201//200 221//222 240//241
f 240//241 202//202 201//200
f 241//237 189//201 202//202
f 167//167 223//223 200//199
f 224//224 243//242 191//189
f 193//191 195//193 239//240
f 203//203 220//221 244//243
f 169//169 203//203 244//243
f 204//194 169//169 244//243
f 244//243 225//244 204//194
f 244//243 245//245 225//244
f 224//224 192//190 171//171
f 246//246 173//172 172//195
f 173//172 246//246 171//171
f 224//224 171//171 246//246
f 247//247 226//225 205//204
f 207//206 227//226 205//204
f 205//204 227//226 247//247
f 172//195 206//205 246//246
f 248//248 206//205 226//225
f 227//226 204//194 225//244
f 228//227 229//228 249//249
f 250//250 233//232 236//233
f 214//213 234//234 213//214
f 216//217 234//234 251//251
f 242//252 217//218 223//223
f 232//231 217//218 242//252
f 218//220 237//236 252//253
f 241//237 219//219 189//201
f 253//254 256//238 238//239
f 249//249 221//222 222//208
f 221//222 275//255 240//241
f 191//189 243//242 223//223
f 243//242 242//252 223//223
f 254//256 243//242 255//257
f 255//257 243//242 224//224
f 220//221 203//203 193//191
f 244//243 220//221 256//238
f 244//243 256//238 245//245
f 225//244 257//258 261//259
f 257//258 225//244 245//245
f 227//226 225//244 261//259
f 246//246 258//260 224//224
f 247//247 260//261 226//225
f 247//247 227//226 261//259
f 258//260 246//246 206//205
f 226//225 260//261 248//248
f 222//208 228//227 249//249
f 229//228 262//262 249//249
f 229//228 230//229 262//262
f 214//213 209//209 263//263
f 209//209 210//210 263//263
f 210//210 231//230 264//264
f 263//263 210//210 264//264
f 264//264 231//230 265//265
f 211//211 279//266 231//230
f 211//211 232//231 279//266
f 232//231 212//212 217//218
f 250//250 266//267 233//232
f 266//267 230//229 233//232
f 263//263 234//234 214//213
f 263//263 251//251 234//234
f 267//268 235//235 216//217
f 267//268 216//217 268//269
f 251//251 268//269 216//217
f 267//268 269//270 235//235
f 270//271 236//233 235//235
f 238//239 218//220 252//253
f 271//272 238//239 252//253
f 253//254 238//239 272//273
f 272//273 238//239 271//272
f 273//274 237//236 241//237
f 220//221 193//191 239//240
f 253//254 274//275 256//238
f 275//255 221//222 249//249
f 275//255 249//249 262//262
f 241//237 202//202 240//241
f 256//238 274//275 245//245
f 255//257 224//224 258//260
f 259//276 276//277 247//247
f 260//261 247//247 276//277
f 247//247 261//259 259//276
f 248//248 258//260 206//205
f 260//261 278//278 248//248
f 268//269 251//251 263//263
f 231//230 279//266 265//265
f 280//279 250//250 236//233
f 280//279 236//233 270//271
f 266//267 250//250 281//280
f 270//271 235//235 269//270
f 270//271 269//270 291//281
f 237//236 273//274 282//282
f 283//283 237//236 282//282
f 237//236 283//283 252//253
f 240//241 273//274 241//237
f 284//284 240//241 275//255
f 284//284 273//274 240//241
f 242//252 243//242 254//256
f 254//256 232//231 242//252
f 254//256 255//257 258//260
f 245//245 286//285 285//286
f 257//258 245//245 285//286
f 286//285 274//275 253//254
f 245//245 274//275 286//285
f 261//259 257//258 277//287
f 259//276 261//259 277//287
f 287//288 248//248 278//278
f 266//267 275//255 262//262
f 262//262 230//229 266//267
f 268//269 263//263 288//289
f 265//265 288//289 264//264
f 288//289 263//263 264//264
f 265//265 279//266 287//288
f 254//256 279//266 232//231
f 280//279 281//280 250//250
f 298//290 281//280 280//279
f 289//291 298//290 280//279
f 269//270 267//268 290//292
f 291//281 292//293 270//271
f 293//294 280//279 270//271
f 280//279 293//294 289//291
f 294//295 282//282 273//274
f 295//296 253//254 272//273
f 286//285 253//254 295//296
f 281//280 284//284 275//255
f 296//297 254//256 258//260
f 257//258 285//286 277//287
f 296//297 258//260 248//248
f 260//261 276//277 297//298
f 260//261 297//298 278//278
f 276//277 277//287 299//299
f 300//300 276//277 299//299
f 300//300 297//298 276//277
f 259//276 277//287 276//277
f 287//288 296//297 248//248
f 266//267 281//280 275//255
f 296//297 279//266 254//256
f 279//266 296//297 287//288
f 291//281 269//270 299//299
f 300//300 269//270 290//292
f 288//289 290//292 267//268
f 267//268 268//269 288//289
f 293//294 270//271 292//293
f 301//301 292//293 291//281
f 271//272 289//291 293//294
f 271//272 252//253 283//283
f 271//272 283//283 289//291
f 286//285 295//296 285//286
f 278//278 297//298 265//265
f 300//300 290//292 297//298
f 291//281 277//287 285//286
f 277//287 291//281 299//299
f 278//278 265//265 287//288
f 265//265 297//298 288//289
f 298//290 284//284 281//280
f 299//299 269//270 300//300
f 293//294 292//293 271//272
f 272//273 292//293 295//296
f 292//293 272//273 271//272
f 301//301 295//296 292//293
f 282//282 289//291 283//283
f 294//295 273//274 284//284
f 295//296 301//301 285//286
f 285//286 301//301 291//281
f 288//289 297//298 290//292
f 294//295 284//284 298//290
f 289//291 282//282 298//290
f 282//282 294//295 298//290
