# Blender 3.6.5
# www.blender.org
mtllib cervical1_low.mtl
o cervical1.002
v 0.004918 -0.004438 0.037954
v -0.000157 -0.000651 0.039814
v -0.002423 0.002359 0.040583
v -0.001999 0.000040 0.039152
v -0.002686 0.003637 0.039223
v 0.005814 -0.000670 0.038208
v 0.003530 0.002661 0.033893
v 0.003323 -0.004272 0.036575
v -0.000249 -0.001065 0.039724
v -0.002321 0.003607 0.039048
v -0.002205 0.003383 0.038993
v 0.006707 -0.000893 0.032745
v 0.009325 0.002582 0.027583
v 0.004094 0.002885 0.033967
v -0.000651 -0.001772 0.031170
v -0.004016 0.004019 0.033871
v 0.004247 0.000136 0.031877
v 0.006982 -0.000674 0.030690
v 0.005549 0.000744 0.030684
v 0.003992 0.002091 0.033880
v 0.006212 0.002771 0.032334
v 0.005511 0.001979 0.031363
v -0.000585 -0.001801 0.031206
v 0.004302 0.000041 0.032337
v 0.004038 0.002471 0.033191
v 0.003964 0.001503 0.032385
v 0.002264 0.001446 0.032259
v 0.002581 0.002443 0.033049
v -0.005044 0.004140 0.028825
v 0.006962 -0.000086 0.030318
v 0.007390 0.003910 0.029364
v 0.007226 0.004775 0.028402
v -0.002516 -0.001205 0.029129
v -0.003981 0.003766 0.028498
v 0.010666 -0.000497 0.020538
v 0.008036 0.000043 0.025297
v -0.002831 0.002789 0.028480
v -0.002045 -0.001608 0.025062
v -0.005215 0.001906 0.024976
v -0.004428 -0.000537 0.024991
v -0.005715 0.000093 0.024523
v -0.007318 0.002847 0.025248
v -0.004320 0.004074 0.025845
v 0.007733 -0.001247 0.022760
v 0.007059 0.009211 0.023428
v 0.002546 -0.006047 0.022384
v 0.008130 -0.005919 0.020522
v 0.008022 -0.000571 0.022748
v 0.007654 -0.000983 0.022817
v 0.005450 0.008732 0.026425
v 0.004355 -0.006313 0.022948
v 0.001599 -0.006810 0.023419
v 0.001617 -0.006717 0.022751
v 0.003769 0.003013 0.024060
v 0.002056 -0.006382 0.022662
v 0.001381 -0.006741 0.023005
v -0.000885 -0.001211 0.023623
v -0.001489 0.007217 0.023605
v -0.003533 -0.005811 0.022262
v -0.003709 -0.006156 0.022450
v -0.005433 -0.003647 0.020035
v -0.001765 0.000438 0.024126
v -0.005275 -0.001362 0.020145
v -0.001751 0.004074 0.022667
v -0.001818 0.009203 0.022239
v -0.005729 0.000095 0.024510
v -0.005197 0.005984 0.023886
v -0.008458 0.005420 0.021428
v -0.008207 0.009702 0.023240
v -0.009312 -0.000282 0.022653
v -0.006244 0.001050 0.022538
v -0.007887 0.003824 0.024062
v -0.010207 0.002289 0.024408
v -0.010639 0.002296 0.024494
v -0.010614 0.002338 0.024538
v -0.013233 0.002360 0.022533
v 0.008415 -0.005859 0.017940
v 0.007851 0.009743 0.021684
v 0.007872 0.008959 0.020156
v 0.006640 0.009444 0.021670
v 0.005049 0.008383 0.020224
v 0.006404 0.009345 0.021706
v -0.002535 0.010023 0.022389
v -0.006441 0.000254 0.017771
v -0.005844 0.008731 0.013511
v -0.007700 0.006271 0.021613
v -0.008447 0.005388 0.021372
v -0.008668 0.005789 0.020066
v -0.016550 0.001741 0.019169
v -0.017818 -0.002801 0.015122
v 0.009653 0.009489 0.019658
v 0.010603 0.009870 0.019293
v 0.009036 0.010839 0.018008
v -0.005381 -0.003316 0.020518
v -0.005475 0.000862 0.016378
v -0.006228 0.000876 0.017248
v 0.011386 -0.002854 0.015311
v 0.011261 0.011322 0.014225
v -0.005186 -0.000334 0.014597
v -0.002580 0.004872 0.011775
v -0.006307 0.003206 0.014271
v -0.005675 0.008496 0.013292
v -0.013691 0.001402 0.012087
v -0.009869 0.004154 0.013559
v -0.019776 0.003347 0.014488
v 0.012189 -0.002494 0.008929
v 0.011724 0.011401 0.013223
v -0.000378 0.006442 0.011955
v -0.005863 0.005717 0.013303
v -0.005411 0.008716 0.013154
v -0.006115 0.005147 0.013651
v -0.018888 0.004397 0.009006
v 0.013098 0.007745 0.009158
v 0.010109 0.004212 0.008672
v 0.009530 -0.002746 0.008312
v 0.009457 0.004133 0.008835
v 0.009441 0.004194 0.008743
v 0.008042 0.005332 0.008766
v 0.001600 -0.000102 0.008098
v -0.015728 0.003073 0.010654
v -0.021811 0.005851 0.001585
v 0.015080 0.006459 0.005107
v 0.013224 0.007587 0.010220
v 0.012765 -0.002641 0.006155
v 0.010071 -0.001475 0.006941
v 0.012447 -0.001484 0.007386
v 0.011291 0.000058 0.005958
v 0.010193 0.005397 0.008200
v 0.013329 0.004620 0.000766
v 0.009617 0.003430 0.007616
v 0.000376 0.000512 0.008567
v -0.020587 -0.001594 0.005012
v -0.018727 0.004685 0.008989
v -0.026646 -0.003064 -0.001190
v -0.028467 -0.001242 -0.000611
v -0.028739 0.000814 0.001667
v 0.013718 -0.001996 0.003995
v 0.016869 0.004585 -0.000218
v 0.012573 -0.001589 0.004184
v -0.020923 -0.003785 0.000370
v -0.021300 0.005506 0.003264
v -0.022371 0.005980 -0.001007
v 0.017974 -0.003204 -0.000307
v 0.015560 0.005141 -0.002392
v 0.013181 -0.003613 -0.000453
v 0.013430 0.005249 -0.002252
v -0.021683 0.006190 -0.002668
v -0.020836 -0.001955 -0.000280
v -0.028555 0.001127 -0.000241
v 0.016101 -0.001809 -0.003593
v 0.016858 0.004100 -0.000090
v 0.012761 -0.001996 -0.006649
v 0.013078 -0.003607 -0.000413
v -0.017409 -0.002667 -0.015742
v -0.028284 0.001540 -0.000483
v -0.027932 0.001634 -0.001262
v -0.027949 0.000563 -0.000769
v 0.013235 0.005978 -0.004757
v 0.012056 -0.002463 -0.006908
v -0.028545 0.000121 -0.003920
v 0.014862 -0.001328 -0.003451
v 0.013723 0.007756 -0.009195
v 0.012209 -0.002638 -0.009030
v 0.010420 -0.001809 -0.007465
v 0.010580 0.002517 -0.007846
v 0.012286 0.004798 -0.006225
v 0.009275 0.004919 -0.009424
v 0.010200 0.003833 -0.009086
v 0.010473 -0.001685 -0.007652
v 0.001604 -0.000549 -0.009414
v 0.010511 0.003161 -0.008587
v -0.018968 -0.001334 -0.007712
v -0.019910 0.005379 -0.007842
v -0.025316 0.002355 -0.006896
v 0.013692 0.007431 -0.009056
v 0.012164 -0.002544 -0.007730
v 0.009168 0.004945 -0.009302
v 0.012061 0.009797 -0.011642
v 0.000845 0.004522 -0.011338
v -0.017237 0.003442 -0.010458
v 0.010705 -0.003918 -0.017660
v 0.011291 0.011398 -0.014696
v 0.000976 0.005384 -0.011484
v -0.000361 0.005873 -0.012324
v -0.005431 0.000802 -0.016982
v -0.005912 0.008543 -0.013788
v -0.007927 0.004723 -0.014679
v -0.011391 0.004013 -0.013683
v 0.010722 -0.004336 -0.014770
v 0.011025 0.011334 -0.015225
v -0.005834 -0.003098 -0.020042
v -0.005002 0.006105 -0.014406
v -0.005637 0.008239 -0.013610
v -0.007885 0.008823 -0.020048
v -0.007405 0.002161 -0.016275
v -0.007596 0.004487 -0.014562
v -0.008211 0.004972 -0.014790
v -0.008735 0.005734 -0.016900
v -0.013114 0.002293 -0.023149
v 0.011289 0.010131 -0.018537
v 0.009702 0.010944 -0.017891
v 0.006323 0.010194 -0.019671
v -0.005857 -0.001426 -0.021298
v -0.007228 0.003902 -0.016579
v -0.012013 -0.001187 -0.021198
v -0.008481 0.005823 -0.021201
v 0.009513 -0.001007 -0.022826
v 0.008029 -0.004594 -0.021471
v 0.006560 0.008443 -0.021126
v 0.008050 0.009201 -0.022075
v 0.008264 0.009280 -0.022281
v 0.007519 0.010015 -0.018898
v 0.007477 -0.006037 -0.021794
v 0.007845 -0.004359 -0.021407
v 0.006060 -0.006840 -0.022958
v 0.001197 -0.006984 -0.023549
v 0.000494 0.009218 -0.021691
v -0.004115 -0.005176 -0.022703
v -0.004420 -0.005236 -0.022416
v -0.003754 -0.005973 -0.022996
v -0.006026 -0.000843 -0.020045
v -0.007003 0.010148 -0.021523
v -0.007945 -0.000093 -0.021909
v -0.008833 0.005809 -0.016892
v -0.007604 0.008932 -0.020322
v -0.008324 0.009274 -0.023021
v -0.007182 0.010377 -0.021744
v 0.009152 -0.000660 -0.026123
v 0.009307 -0.001324 -0.023010
v 0.002499 -0.006432 -0.023517
v 0.005053 0.002767 -0.024428
v 0.003200 0.008647 -0.022232
v -0.005278 0.006267 -0.023846
v 0.001547 0.008256 -0.023435
v -0.003363 -0.001611 -0.023672
v -0.003111 -0.000945 -0.024018
v -0.001833 0.000353 -0.024756
v -0.003227 -0.000507 -0.024082
v -0.002477 0.003768 -0.024612
v -0.002516 0.010183 -0.022922
v -0.002019 0.009698 -0.022817
v -0.005579 -0.000986 -0.023525
v -0.003245 -0.000642 -0.024619
v -0.005663 0.005044 -0.024332
v -0.009574 0.000688 -0.023960
v -0.009380 0.000610 -0.024001
v -0.008356 0.001805 -0.023861
v -0.008882 0.002824 -0.026983
v -0.007912 0.006018 -0.022145
v -0.010319 0.002832 -0.025096
v -0.010542 0.002426 -0.024626
v -0.010293 0.002623 -0.025021
v 0.007972 0.000018 -0.026123
v 0.008157 -0.000311 -0.028730
v 0.005883 0.007874 -0.025449
v -0.004764 0.000806 -0.023874
v -0.004959 0.000168 -0.028102
v -0.003184 0.002538 -0.027135
v -0.003891 -0.000776 -0.027408
v -0.004336 0.001607 -0.025921
v -0.004482 0.003840 -0.029458
v -0.006974 0.002053 -0.025888
v -0.006800 0.002056 -0.025841
v -0.005389 0.003533 -0.029753
v 0.005732 0.003377 -0.034758
v 0.007208 0.004038 -0.030074
v -0.004636 0.000061 -0.029051
v -0.003165 0.003469 -0.030296
v -0.003775 -0.001107 -0.028210
v 0.006628 -0.000594 -0.031284
v 0.005430 0.001325 -0.031796
v 0.003454 0.002260 -0.032053
v 0.006239 0.002940 -0.032328
v 0.003069 0.002720 -0.034061
v 0.003656 -0.000911 -0.032627
v 0.004188 0.002110 -0.031206
v 0.001441 -0.001445 -0.032640
v -0.002956 0.000553 -0.033818
v -0.002671 0.004010 -0.034751
v 0.004557 -0.004748 -0.038199
v 0.004817 0.002759 -0.034515
v 0.002970 0.002647 -0.034007
v -0.003043 0.004336 -0.033920
v 0.004557 0.000084 -0.039826
v 0.001500 -0.001573 -0.040349
v -0.002187 0.003879 -0.038810
v -0.002700 0.003485 -0.039508
v 0.001105 -0.000676 -0.041041
v 0.001418 -0.001646 -0.040418
v -0.001481 -0.000113 -0.040848
v -0.001976 0.003358 0.036751
v 0.005549 0.000744 0.030684
v 0.005549 0.000744 0.030684
v 0.004185 -0.001645 0.032432
v 0.007613 0.004149 0.028742
v 0.006622 -0.000566 0.030162
v 0.006622 -0.000566 0.030162
v 0.006863 0.004300 0.028362
v 0.008036 0.000043 0.025297
v 0.008036 0.000043 0.025297
v 0.008036 0.000043 0.025297
v 0.008036 0.000043 0.025297
v -0.003502 -0.000466 0.026616
v -0.002881 0.000166 0.025218
v -0.002881 0.000166 0.025218
v -0.004320 0.004074 0.025845
v -0.004320 0.004074 0.025845
v 0.007733 -0.001247 0.022760
v 0.005256 0.007356 0.027094
v 0.003495 -0.006443 0.025110
v 0.003769 0.003013 0.024060
v 0.003769 0.003013 0.024060
v -0.001489 0.007217 0.023605
v -0.004108 -0.001195 0.022631
v -0.002573 0.002238 0.025093
v -0.002573 0.002238 0.025093
v -0.002573 0.002238 0.025093
v -0.001409 0.003298 0.023870
v -0.002222 0.004708 0.023633
v -0.002222 0.004708 0.023633
v -0.002222 0.004708 0.023633
v -0.005054 0.004975 0.023859
v -0.005059 0.006129 0.023183
v -0.006928 -0.000061 0.022470
v -0.007398 0.001361 0.023881
v -0.007398 0.001361 0.023881
v 0.007833 0.008747 0.020206
v 0.011386 -0.002854 0.015311
v -0.005143 -0.000169 0.015129
v -0.006297 0.003199 0.014250
v -0.018084 -0.003039 0.014472
v -0.018084 -0.003039 0.014472
v -0.020511 0.003524 0.013293
v 0.010667 -0.004462 0.013455
v -0.002153 0.004753 0.011560
v -0.011682 0.003433 0.012711
v -0.014026 0.001199 0.012240
v 0.010099 0.004221 0.008663
v -0.015728 0.003073 0.010654
v 0.010071 -0.001475 0.006941
v 0.011738 -0.001910 0.005969
v 0.006875 0.004640 0.008356
v -0.021020 -0.003348 0.000481
v -0.028389 0.000597 0.001311
v -0.028796 0.001134 0.000267
v -0.028918 0.001141 -0.001061
v -0.028511 -0.000005 -0.001515
v -0.028422 0.000499 -0.003938
v 0.011886 -0.001681 -0.006437
v 0.011886 -0.001681 -0.006437
v -0.018860 -0.001622 -0.007153
v 0.000893 0.004217 -0.010990
v 0.011122 0.011486 -0.015274
v -0.005609 0.005958 -0.014094
v -0.006210 0.009110 -0.014442
v 0.009702 0.010944 -0.017891
v -0.005842 -0.000760 -0.019700
v -0.005419 -0.002908 -0.019993
v -0.005799 -0.002830 -0.020180
v -0.005539 -0.001346 -0.021489
v -0.012096 -0.001011 -0.021232
v 0.009435 -0.000334 -0.023051
v 0.004048 0.003332 -0.025137
v -0.003363 -0.001611 -0.023672
v -0.003363 -0.001611 -0.023672
v -0.001641 -0.000152 -0.025204
v -0.002260 0.003517 -0.024917
v -0.002316 0.003475 -0.024823
v -0.005797 -0.000483 -0.023346
v -0.005890 0.006676 -0.024714
v -0.008266 0.002144 -0.024067
v -0.008140 0.002392 -0.023949
v -0.009547 0.002958 -0.024353
v 0.007972 0.000018 -0.026123
v 0.006548 0.001757 -0.026976
v 0.006548 0.001757 -0.026976
v -0.002793 0.000410 -0.026024
v -0.003001 0.000457 -0.027386
v -0.003184 0.002538 -0.027135
v -0.001252 0.005624 -0.026654
v -0.002738 0.000576 -0.028721
v -0.002738 0.000576 -0.028721
v -0.003171 -0.001165 -0.029034
v -0.003165 0.003469 -0.030296
v -0.003165 0.003469 -0.030296
v 0.006063 -0.000593 -0.031044
v 0.005430 0.001325 -0.031796
v 0.005705 0.001578 -0.033127
v 0.005424 0.001270 -0.033849
v 0.003442 0.001354 -0.033044
v 0.003442 0.001354 -0.033044
v 0.001441 -0.001445 -0.032640
v 0.002976 0.002585 -0.034023
v -0.002697 0.003541 -0.039721
v -0.001457 0.000018 -0.041411
v -0.001088 -0.000040 -0.040788
vn 0.4086 -0.7978 0.4434
vn 0.6938 0.2128 0.6880
vn 0.4941 0.5497 0.6736
vn 0.2224 -0.0472 0.9738
vn -0.3144 -0.7214 0.6170
vn -0.7484 -0.4456 0.4913
vn -0.9229 -0.2595 0.2846
vn 0.9171 0.1025 0.3852
vn 0.2287 0.9473 0.2241
vn -0.2719 0.9248 0.2660
vn 0.3480 0.8487 0.3982
vn -0.1708 -0.9755 -0.1385
vn -0.4609 -0.8835 0.0834
vn 0.4627 0.8019 0.3780
vn -0.8518 -0.4645 0.2423
vn -0.0234 -0.9853 -0.1693
vn 0.7131 -0.7007 -0.0215
vn -0.0016 0.9186 -0.3951
vn -0.3089 0.9099 0.2769
vn 0.6900 -0.7238 0.0074
vn -0.2241 -0.4060 -0.8860
vn -0.8308 -0.3666 -0.4188
vn -0.6127 -0.2156 -0.7603
vn -0.6124 -0.2101 -0.7621
vn -0.6121 -0.2050 -0.7637
vn -0.6114 -0.1953 -0.7668
vn -0.7855 0.2146 -0.5805
vn -0.8397 0.2558 -0.4790
vn 0.7504 0.4677 0.4671
vn -0.1373 0.8747 -0.4649
vn -0.7164 0.6338 0.2916
vn 0.1935 -0.7667 -0.6121
vn 0.3309 0.2143 -0.9190
vn 0.3922 0.9192 0.0357
vn 0.4004 0.6479 -0.6480
vn 0.7405 0.5479 -0.3892
vn 0.1280 0.9007 0.4151
vn 0.5380 0.6348 0.5546
vn -0.7933 -0.5314 -0.2971
vn -0.8590 0.2742 -0.4323
vn 0.5109 0.7564 0.4085
vn -0.8202 0.4437 0.3611
vn -0.9230 -0.2173 0.3177
vn 0.8160 -0.4760 0.3279
vn -0.3779 -0.9199 -0.1045
vn 0.8277 0.4056 0.3877
vn 0.2732 0.8881 0.3696
vn 0.0947 0.7955 0.5985
vn 0.1573 -0.9808 0.1154
vn -0.4213 -0.8950 -0.1465
vn 0.7942 0.1703 -0.5833
vn 0.6940 0.7187 -0.0417
vn 0.6573 0.6903 0.3025
vn 0.7108 0.7009 -0.0599
vn -0.5189 -0.6325 0.5751
vn 0.5057 -0.7582 0.4116
vn 0.4819 -0.7954 0.3676
vn 0.4740 -0.8065 0.3535
vn 0.5357 -0.7326 0.4198
vn 0.1415 -0.9881 0.0597
vn -0.1474 -0.8875 -0.4367
vn 0.2787 -0.9453 -0.1696
vn 0.1740 -0.2653 0.9483
vn -0.1031 -0.1137 0.9882
vn 0.1115 -0.1024 0.9885
vn -0.5919 -0.6543 0.4707
vn -0.6008 -0.7113 0.3647
vn -0.5711 -0.5774 0.5835
vn -0.5975 -0.7789 0.1909
vn -0.1765 -0.2149 0.9606
vn -0.7676 -0.0389 0.6397
vn -0.3920 0.0712 0.9172
vn -0.0039 0.6704 0.7420
vn 0.0464 -0.1104 0.9928
vn 0.3079 0.7277 0.6129
vn -0.1845 0.9727 -0.1410
vn 0.5659 -0.1243 0.8151
vn -0.4091 -0.4243 0.8078
vn -0.1126 -0.2339 0.9657
vn -0.1653 0.4922 0.8546
vn -0.8980 0.0410 0.4382
vn -0.8209 0.0881 0.5643
vn 0.3872 -0.9063 0.1693
vn 0.8119 0.1359 0.5678
vn -0.2925 -0.8641 0.4096
vn 0.9648 -0.1296 0.2288
vn 0.4647 0.4007 0.7896
vn 0.5646 0.3591 0.7432
vn 0.5848 0.3496 0.7320
vn 0.6391 0.3220 0.6985
vn -0.1104 0.4868 0.8665
vn 0.1953 0.9293 0.3135
vn -0.6471 0.5464 0.5317
vn -0.5907 -0.8016 0.0924
vn 0.2532 -0.8957 -0.3657
vn -0.7264 -0.6807 0.0949
vn -0.0171 0.6505 0.7593
vn -0.9460 0.0930 0.3105
vn 0.3663 0.7429 0.5603
vn 0.1157 0.5024 0.8568
vn -0.4379 -0.1521 0.8860
vn 0.0067 -0.8547 0.5191
vn 0.1186 -0.6794 0.7242
vn 0.2760 -0.3714 0.8865
vn -0.4288 0.5655 0.7045
vn -0.7446 -0.0200 0.6673
vn -0.4648 -0.5930 0.6575
vn -0.7174 -0.3804 0.5836
vn -0.4233 -0.5256 0.7379
vn -0.6974 0.3246 0.6390
vn 0.8954 -0.4136 0.1648
vn 0.9391 -0.0193 0.3430
vn 0.8753 -0.1464 0.4608
vn -0.0248 0.9986 0.0469
vn -0.2994 0.9340 0.1949
vn -0.1555 0.9598 -0.2336
vn -0.6274 0.6740 -0.3901
vn -0.3537 0.7666 0.5359
vn -0.2222 0.9555 0.1939
vn -0.1381 0.7290 -0.6704
vn -0.8082 0.4183 -0.4145
vn -0.9859 0.0304 0.1646
vn -0.7903 0.6016 0.1158
vn 0.9197 0.2341 0.3152
vn 0.5916 0.8033 -0.0687
vn -0.2037 -0.8176 -0.5386
vn -0.8759 -0.2206 -0.4291
vn -0.0261 -0.5856 -0.8102
vn -0.1892 -0.8789 -0.4378
vn -0.9265 0.0265 -0.3754
vn -0.7597 0.1898 -0.6219
vn 0.5027 -0.5996 -0.6227
vn -0.4429 0.8854 -0.1410
vn 0.6885 -0.7250 0.0168
vn -0.2711 -0.8932 -0.3588
vn -0.1691 -0.9229 -0.3458
vn -0.2623 -0.8822 -0.3911
vn -0.4251 0.1661 -0.8898
vn 0.1532 -0.6286 -0.7625
vn -0.3083 -0.0670 -0.9489
vn 0.5863 -0.7476 -0.3120
vn -0.8908 0.2067 0.4046
vn -0.7597 0.6158 0.2089
vn 0.2223 0.9631 0.1518
vn 0.4919 0.8515 -0.1816
vn -0.0920 -0.9037 -0.4181
vn -0.4058 0.2787 -0.8704
vn -0.1094 0.2633 -0.9585
vn -0.4462 -0.1117 -0.8879
vn -0.4633 -0.2409 -0.8528
vn 0.3171 -0.0597 -0.9465
vn 0.2520 -0.3170 -0.9143
vn -0.2691 0.9337 0.2364
vn 0.4495 -0.0380 -0.8925
vn 0.4584 -0.1864 -0.8690
vn -0.5845 0.6708 0.4565
vn -0.8940 -0.4398 0.0853
vn -0.4920 -0.8699 -0.0361
vn 0.7619 -0.5267 0.3770
vn -0.0675 0.4130 -0.9082
vn -0.1370 -0.5770 -0.8052
vn -0.5939 0.1480 -0.7908
vn -0.5915 0.3734 -0.7146
vn -0.1103 0.3838 -0.9168
vn 0.0104 0.5803 -0.8143
vn 0.2593 0.8850 -0.3866
vn -0.2166 0.5961 -0.7732
vn 0.6059 -0.7467 -0.2744
vn 0.7047 0.4112 -0.5782
vn 0.9975 -0.0180 -0.0681
vn 0.8179 0.3459 -0.4599
vn -0.7183 0.6804 -0.1452
vn 0.0058 0.9999 -0.0108
vn -0.0743 0.9512 -0.2995
vn 0.0551 -0.7680 -0.6381
vn -0.1172 -0.6091 -0.7844
vn -0.7213 -0.1532 -0.6754
vn -0.8059 -0.5744 -0.1433
vn -0.1397 0.1223 -0.9826
vn -0.1271 -0.9919 0.0080
vn -0.1465 -0.9858 0.0816
vn -0.6029 0.7973 -0.0279
vn 0.7586 -0.6509 -0.0273
vn 0.0661 0.9684 0.2404
vn -0.8730 -0.2008 -0.4445
vn -0.2904 -0.9271 0.2371
vn 0.0866 -0.9945 -0.0582
vn 0.0573 0.9683 0.2431
vn -0.9953 -0.0600 0.0758
vn 0.9982 -0.0144 0.0584
vn 0.9708 0.2083 0.1193
vn 0.0724 0.9913 0.1096
vn -0.9975 0.0667 -0.0233
vn -0.9643 0.0751 -0.2539
vn -0.6104 0.7889 0.0706
vn 0.9885 0.1509 0.0057
vn 0.9625 0.0368 -0.2687
vn -0.0582 -0.9876 0.1460
vn 0.5256 -0.6622 -0.5340
vn -0.4580 0.8320 0.3131
vn -0.4072 0.7633 0.5016
vn -0.8656 -0.0276 0.5000
vn -0.9882 0.0120 0.1528
vn -0.2050 -0.9210 -0.3312
vn 0.9078 -0.4101 0.0879
vn -0.9780 0.1488 -0.1462
vn -0.8589 -0.3878 -0.3344
vn -0.6617 0.6662 -0.3440
vn -0.5148 0.4995 -0.6968
vn -0.6615 0.7491 -0.0350
vn 0.7097 -0.3254 -0.6248
vn 0.9718 -0.0409 0.2323
vn -0.6705 0.6228 -0.4031
vn 0.5274 -0.8426 0.1085
vn 0.1823 -0.9410 0.2852
vn -0.6175 0.0268 0.7861
vn -0.5746 0.0087 0.8184
vn -0.2791 -0.3967 0.8745
vn -0.3871 -0.8032 0.4528
vn -0.7796 0.1512 0.6078
vn -0.7705 -0.1623 0.6165
vn -0.6761 0.3148 0.6662
vn -0.4151 -0.3506 0.8395
vn 0.6538 0.6012 0.4595
vn 0.0848 0.9857 -0.1454
vn 0.8563 -0.4550 -0.2445
vn 0.3547 -0.9267 0.1240
vn 0.0723 0.8507 0.5206
vn -0.2408 0.3563 0.9028
vn -0.2597 0.1848 0.9478
vn -0.3428 0.2042 0.9169
vn -0.0803 0.6751 0.7333
vn -0.5117 -0.5600 0.6516
vn -0.1265 0.9141 0.3853
vn -0.6798 0.1750 -0.7122
vn -0.0450 0.9279 0.3701
vn -0.6179 0.6721 0.4080
vn -0.6763 -0.5928 0.4374
vn 0.1149 0.6505 0.7508
vn -0.7760 -0.3785 0.5046
vn -0.2608 0.9617 0.0843
vn -0.4884 0.8695 0.0742
vn 0.5838 -0.1455 0.7988
vn 0.1261 -0.6971 0.7058
vn 0.6980 0.5694 -0.4342
vn -0.2435 0.9587 0.1469
vn -0.2402 -0.6275 0.7406
vn -0.5931 0.1472 0.7915
vn -0.8489 0.4838 0.2128
vn -0.8911 0.2262 0.3934
vn 0.3220 -0.9179 0.2319
vn -0.5868 0.7403 -0.3280
vn 0.9379 -0.2599 -0.2299
vn 0.3098 0.8835 -0.3514
vn 0.1765 0.8289 -0.5309
vn 0.5229 -0.8517 -0.0353
vn 0.7257 -0.2804 -0.6282
vn -0.1923 0.9802 -0.0480
vn -0.0553 0.9831 -0.1747
vn 0.0839 0.9962 -0.0228
vn 0.1148 0.8972 -0.4265
vn 0.2464 0.9289 0.2765
vn -0.9962 0.0433 0.0759
vn -0.1305 -0.9900 -0.0528
vn -0.6606 -0.6034 0.4467
vn -0.0456 0.9916 -0.1213
vn -0.7877 0.5807 0.2056
vn -0.7883 0.5801 0.2048
vn 0.9504 -0.0385 -0.3087
vn 0.3624 -0.6693 -0.6486
vn -0.0380 0.8241 -0.5651
vn -0.3300 0.9259 0.1841
vn -0.1561 -0.9321 0.3268
vn -0.0547 0.8476 -0.5278
vn 0.2514 0.7366 -0.6279
vn 0.1628 -0.0264 -0.9863
vn -0.2000 -0.8307 0.5195
vn -0.7789 0.0099 -0.6271
vn -0.8483 0.0653 -0.5254
vn -0.3575 -0.1382 -0.9236
vn -0.6667 -0.4240 -0.6131
vn -0.8831 0.0981 -0.4588
vn -0.2670 -0.8324 -0.4857
vn -0.3278 -0.9447 -0.0033
vn -0.3903 -0.9061 -0.1630
vn -0.7305 0.4107 -0.5457
vn -0.9964 0.0747 -0.0405
vn -0.8315 -0.2403 -0.5009
vn -0.1090 0.6958 -0.7099
vn 0.2785 0.8193 -0.5011
vn 0.0898 -0.2670 -0.9595
vn 0.0617 -0.4051 -0.9122
vn 0.0559 -0.4872 -0.8715
vn -0.6229 -0.7748 0.1081
vn -0.5523 -0.8328 -0.0375
vn -0.6265 -0.7781 0.0463
vn -0.0990 0.1891 -0.9770
vn -0.3015 -0.0713 -0.9508
vn 0.1958 -0.4394 -0.8767
vn 0.0585 0.2702 -0.9610
vn 0.7335 -0.6797 -0.0056
vn 0.3802 0.6644 0.6435
vn 0.0366 -0.9730 -0.2278
vn 0.0589 0.3523 -0.9340
vn -0.0793 0.9873 -0.1378
vn -0.4263 0.5886 -0.6869
vn -0.3050 -0.7839 -0.5408
vn 0.4862 -0.3106 -0.8168
vn 0.5376 -0.3721 -0.7567
vn 0.1708 -0.0306 -0.9848
vn 0.7381 -0.5948 -0.3184
vn -0.6214 -0.6170 -0.4829
vn -0.3908 -0.9060 -0.1625
vn -0.8869 -0.1306 -0.4430
vn -0.3923 0.5340 -0.7490
vn -0.0918 0.8102 -0.5789
vn -0.6167 -0.2712 -0.7390
vn 0.3209 -0.1180 -0.9397
vn -0.4430 -0.5893 -0.6757
vn 0.9553 0.0049 -0.2956
vn 0.6600 -0.7483 0.0663
vn -0.7139 -0.6691 0.2065
vn -0.6206 -0.7557 0.2090
vn -0.9273 0.3743 0.0027
vn -0.7793 -0.6262 0.0240
vn -0.7273 -0.6743 0.1279
vn 0.2390 -0.9705 0.0308
vn 0.5628 -0.7419 -0.3645
vn 0.3858 -0.9126 -0.1352
vn -0.6431 -0.7421 -0.1890
vn 0.6866 -0.2333 -0.6885
vn 0.8018 -0.5976 -0.0070
vn 0.8501 -0.4016 -0.3407
vn 0.6783 -0.4797 -0.5566
vn 0.8149 -0.5677 0.1164
vn 0.2336 0.2924 -0.9273
vn 0.8066 0.3591 -0.4696
vn -0.8127 0.5504 -0.1912
vn -0.5111 0.2965 0.8068
vn -0.7491 -0.5461 0.3749
vn 0.6601 -0.7483 0.0662
vn -0.6251 0.6344 0.4548
vn -0.0606 -0.5921 0.8036
vn 0.1003 -0.4379 0.8934
vn 0.3597 -0.6416 0.6775
vn 0.5803 -0.2817 0.7641
vn 0.5732 -0.2962 0.7640
vn 0.5782 -0.2862 0.7641
vn 0.5720 -0.2987 0.7640
vn 0.8944 -0.4304 -0.1214
vn 0.2570 0.9660 -0.0279
vn -0.0620 0.8729 -0.4839
vn 0.4642 0.5016 0.7300
vn 0.4633 0.4755 0.7478
vn 0.4627 0.6113 0.6420
vn -0.9228 -0.3176 -0.2183
vn -0.2984 0.9518 -0.0714
vn -0.2046 0.5676 0.7975
vn -0.5569 0.1374 0.8192
vn -0.2054 0.9447 0.2558
vn 0.3666 -0.8806 -0.3002
vn 0.4595 0.6529 0.6022
vn -0.0345 0.9594 -0.2798
vn 0.3082 0.9513 -0.0047
vn 0.0254 0.9528 0.3026
vn 0.1917 0.9806 -0.0410
vn 0.2077 0.4687 0.8586
vn 0.6925 0.2547 -0.6749
vn -0.4820 0.8613 -0.1608
vn 0.1094 -0.1577 -0.9814
vn -0.0855 -0.8819 -0.4636
vn 0.0390 -0.9974 0.0607
vn -0.4787 -0.8380 -0.2620
vn -0.9031 -0.3589 -0.2358
vn -0.9094 -0.3354 -0.2459
vn 0.2082 0.5442 -0.8127
s 1
usemtl mtl1.1033
f 1//1 6//2 3//3
f 2//4 1//1 3//3
f 1//1 2//4 9//5
f 4//6 2//4 5//7
f 1//1 13//8 6//2
f 3//3 6//2 7//9
f 14//10 6//2 21//11
f 7//9 6//2 14//10
f 8//12 1//1 9//5
f 8//12 9//5 15//13
f 3//3 7//9 10//14
f 15//13 9//5 4//6
f 5//7 16//15 33//16
f 33//16 4//6 5//7
f 12//17 1//1 8//12
f 13//8 21//11 6//2
f 21//11 20//18 14//10
f 29//19 10//14 7//9
f 4//6 33//16 15//13
f 12//17 18//20 13//8
f 12//17 8//12 18//20
f 8//12 24//21 30//22
f 294//23 17//24 296//25
f 19//26 296//25 17//24
f 22//27 292//28 24//21
f 31//29 21//11 13//8
f 20//18 22//27 26//30
f 21//11 295//31 20//18
f 295//31 22//27 20//18
f 23//32 8//12 15//13
f 23//32 24//21 8//12
f 22//27 24//21 27//33
f 20//18 25//34 7//9
f 28//35 7//9 25//34
f 20//18 26//30 28//35
f 26//30 27//33 28//35
f 23//32 27//33 24//21
f 27//33 37//36 28//35
f 37//36 29//19 28//35
f 7//9 28//35 29//19
f 295//31 92//37 32//38
f 36//39 297//39 293//39
f 292//28 22//27 295//31
f 292//28 295//31 300//40
f 27//33 23//32 33//16
f 33//16 37//36 27//33
f 37//36 34//41 29//19
f 291//42 29//19 42//43
f 42//43 33//16 16//15
f 13//8 18//20 35//44
f 35//44 18//20 30//22
f 35//44 30//22 299//45
f 31//29 13//8 91//46
f 32//38 92//37 45//47
f 295//31 45//47 50//48
f 38//49 37//36 33//16
f 40//50 38//49 33//16
f 303//51 39//51 37//36
f 34//41 37//36 43//52
f 306//53 29//19 34//41
f 37//36 315//54 43//52
f 33//16 42//43 40//50
f 40//50 42//43 41//55
f 97//56 35//44 44//57
f 35//44 301//58 44//57
f 47//59 51//60 53//61
f 77//62 47//59 53//61
f 49//63 57//64 46//65
f 49//63 46//65 47//59
f 54//66 302//67 298//68
f 54//66 48//69 302//67
f 57//64 49//63 311//70
f 312//71 295//31 50//48
f 60//72 56//73 46//65
f 311//70 64//74 57//64
f 65//75 45//47 82//76
f 46//65 57//64 60//72
f 64//74 62//77 57//64
f 309//78 58//79 311//70
f 311//70 58//79 64//74
f 45//47 65//75 50//48
f 50//48 65//75 313//80
f 57//64 63//81 61//82
f 60//72 57//64 61//82
f 62//77 304//83 40//50
f 64//74 305//84 62//77
f 57//64 62//77 314//85
f 64//74 316//86 305//84
f 318//87 319//88 317//89
f 319//88 307//90 317//89
f 67//91 64//74 58//79
f 313//80 65//75 83//92
f 313//80 83//92 69//93
f 40//50 41//55 66//94
f 40//50 66//94 62//77
f 66//94 314//85 62//77
f 84//95 314//85 66//94
f 66//94 71//96 84//95
f 72//97 71//96 42//43
f 29//19 306//53 67//91
f 42//43 68//98 72//97
f 29//19 68//98 42//43
f 67//91 306//53 320//99
f 321//100 323//100 322//100
f 68//98 29//19 67//91
f 67//91 58//79 69//93
f 66//94 42//43 71//96
f 325//101 72//97 70//102
f 324//103 326//103 70//102
f 84//95 71//96 70//102
f 70//102 72//97 73//104
f 73//104 72//97 75//105
f 67//91 69//93 86//106
f 76//107 90//108 70//102
f 70//102 73//104 74//109
f 70//102 74//109 76//107
f 75//105 89//110 74//109
f 35//44 328//111 122//112
f 77//62 328//111 47//59
f 308//113 47//59 328//111
f 92//37 78//114 45//47
f 78//114 80//115 45//47
f 81//116 78//114 79//117
f 327//118 79//117 93//119
f 45//47 80//115 82//76
f 81//116 82//76 78//114
f 82//76 81//116 65//75
f 83//92 81//116 108//120
f 68//98 67//91 86//106
f 85//121 69//93 83//92
f 72//97 68//98 87//122
f 72//97 87//122 88//123
f 87//122 86//106 88//123
f 88//123 86//106 69//93
f 89//110 72//97 88//123
f 89//110 75//105 72//97
f 122//112 13//8 35//44
f 92//37 79//117 78//114
f 79//117 92//37 93//119
f 13//8 98//124 91//46
f 92//37 98//124 93//119
f 81//116 327//118 93//119
f 81//116 107//125 108//120
f 93//119 107//125 81//116
f 77//62 53//61 94//126
f 61//82 63//81 95//127
f 53//61 59//128 94//126
f 314//85 84//95 96//129
f 96//129 95//127 314//85
f 95//127 329//130 61//82
f 102//131 69//93 85//121
f 70//102 103//132 84//95
f 88//123 102//131 104//133
f 102//131 88//123 69//93
f 89//110 88//123 104//133
f 90//108 76//107 89//110
f 328//111 77//62 106//134
f 119//135 334//136 77//62
f 106//134 122//112 328//111
f 99//137 77//62 94//126
f 96//129 100//138 95//127
f 84//95 101//139 100//138
f 104//133 102//131 109//140
f 84//95 103//132 101//139
f 70//102 331//141 103//132
f 89//110 136//142 90//108
f 89//110 121//143 105//144
f 122//112 113//145 13//8
f 13//8 113//145 98//124
f 115//146 334//136 119//135
f 98//124 113//145 107//125
f 108//120 131//147 100//138
f 95//127 100//138 329//130
f 108//120 100//138 110//148
f 83//92 108//120 85//121
f 109//140 335//149 330//150
f 102//131 335//149 109//140
f 101//139 336//151 111//152
f 101//139 103//132 336//151
f 89//110 104//133 112//153
f 120//154 112//153 104//133
f 103//132 339//155 336//151
f 333//156 105//144 121//143
f 112//153 121//143 89//110
f 90//108 135//157 134//158
f 135//157 90//108 136//142
f 136//142 89//110 333//156
f 106//134 334//136 115//146
f 124//159 106//134 115//146
f 116//160 338//161 114//162
f 338//161 116//160 128//163
f 128//163 116//160 118//164
f 113//145 128//163 107//125
f 114//162 130//165 116//160
f 116//160 117//166 118//164
f 107//125 128//163 118//164
f 107//125 118//164 342//167
f 107//125 342//167 108//120
f 77//62 99//137 119//135
f 131//147 108//120 342//167
f 100//138 131//147 329//130
f 103//132 331//141 132//168
f 337//169 343//170 133//171
f 106//134 124//159 122//112
f 113//145 129//172 128//163
f 138//173 129//172 123//174
f 126//175 115//146 125//176
f 126//175 125//176 127//177
f 125//176 130//165 127//177
f 139//178 127//177 129//172
f 128//163 129//172 114//162
f 127//177 130//165 114//162
f 127//177 114//162 129//172
f 340//179 131//147 130//165
f 117//166 130//165 131//147
f 131//147 118//164 117//166
f 115//146 119//135 125//176
f 134//158 140//180 332//181
f 333//156 121//143 142//182
f 124//159 143//183 122//112
f 146//184 129//172 138//173
f 341//185 127//177 139//178
f 139//178 137//186 126//175
f 333//156 142//182 136//142
f 143//183 124//159 145//187
f 144//188 146//184 138//173
f 153//189 137//186 139//178
f 139//178 129//172 153//189
f 343//170 148//190 133//171
f 133//171 148//190 147//191
f 141//192 133//171 147//191
f 135//157 344//193 155//194
f 136//142 142//182 149//195
f 151//196 122//112 143//183
f 162//197 151//196 143//183
f 143//183 145//187 152//198
f 152//198 150//199 143//183
f 158//200 146//184 144//188
f 175//201 158//200 144//188
f 166//202 129//172 158//200
f 129//172 159//203 153//189
f 154//204 172//205 148//190
f 154//204 148//190 343//170
f 134//158 154//204 140//180
f 135//157 156//206 160//207
f 135//157 160//207 134//158
f 156//206 135//157 155//194
f 157//208 345//209 142//182
f 348//210 157//208 142//182
f 143//183 161//211 162//197
f 166//202 159//203 129//172
f 351//212 147//191 148//190
f 174//213 348//210 142//182
f 163//214 152//198 176//215
f 152//198 163//214 150//199
f 166//202 164//216 350//217
f 169//218 176//215 349//219
f 166//202 165//220 164//216
f 165//220 166//202 168//221
f 158//200 167//222 166//202
f 166//202 167//222 168//221
f 169//218 170//223 176//215
f 172//205 180//224 351//212
f 351//212 180//224 147//191
f 173//225 147//191 180//224
f 181//226 161//211 189//227
f 167//222 158//200 175//201
f 167//222 175//201 178//228
f 176//215 170//223 189//227
f 177//229 169//218 171//230
f 179//231 169//218 177//229
f 178//228 179//231 177//229
f 179//231 170//223 169//218
f 183//232 179//231 178//228
f 170//223 179//231 185//233
f 172//205 188//234 180//224
f 173//225 174//213 142//182
f 199//235 174//213 173//225
f 189//227 163//214 176//215
f 162//197 182//236 178//228
f 178//228 182//236 190//237
f 170//223 185//233 191//238
f 184//239 186//240 179//231
f 188//234 197//241 198//242
f 172//205 187//243 188//234
f 195//244 187//243 172//205
f 199//235 180//224 188//234
f 199//235 188//234 198//242
f 180//224 199//235 173//225
f 162//197 200//245 182//236
f 181//226 162//197 161//211
f 202//246 178//228 190//237
f 191//238 189//227 170//223
f 195//244 185//233 196//247
f 186//240 192//248 179//231
f 185//233 179//231 196//247
f 192//248 188//234 179//231
f 186//240 194//249 192//248
f 197//241 188//234 192//248
f 225//250 204//250 354//250
f 205//251 195//244 172//205
f 205//251 172//205 154//204
f 206//252 199//235 198//242
f 160//207 154//204 134//158
f 199//235 160//207 174//213
f 160//207 199//235 154//204
f 207//253 162//197 181//226
f 353//254 200//245 201//255
f 189//227 213//256 181//226
f 208//257 207//253 181//226
f 356//258 202//246 190//237
f 209//259 201//255 200//245
f 217//260 183//232 178//228
f 240//261 193//262 183//232
f 191//238 185//233 203//263
f 185//233 223//264 357//265
f 240//261 222//266 193//262
f 194//249 355//267 227//268
f 185//233 195//244 205//251
f 162//197 207//253 228//269
f 208//257 181//226 215//270
f 212//271 201//255 209//259
f 209//259 200//245 211//272
f 191//238 216//273 189//227
f 217//260 178//228 202//246
f 234//274 217//260 202//246
f 209//259 232//275 212//271
f 234//274 209//259 211//272
f 213//256 189//227 215//270
f 215//270 189//227 216//273
f 230//276 208//257 215//270
f 217//260 240//261 183//232
f 218//277 216//273 191//238
f 219//278 235//279 220//280
f 364//281 359//281 360//281
f 219//278 358//282 235//279
f 365//283 221//284 242//285
f 242//285 221//284 223//264
f 223//264 185//233 205//251
f 194//249 226//286 224//287
f 249//288 224//287 226//286
f 226//286 194//249 227//268
f 240//261 226//286 222//266
f 228//269 200//245 162//197
f 200//245 255//289 210//290
f 210//290 255//289 234//274
f 230//276 236//291 208//257
f 215//270 216//273 230//276
f 229//292 214//293 236//291
f 362//294 363//295 375//296
f 234//274 255//289 233//297
f 255//289 231//298 233//297
f 236//291 230//276 220//280
f 229//292 236//291 231//298
f 237//299 231//298 236//291
f 237//299 239//300 231//298
f 258//301 367//301 256//301
f 231//298 239//300 233//297
f 217//260 234//274 241//302
f 234//274 226//286 240//261
f 234//274 233//297 226//286
f 241//302 234//274 240//261
f 243//303 365//283 242//285
f 233//297 239//300 244//304
f 261//305 206//252 370//306
f 242//285 223//264 245//307
f 246//308 247//309 369//310
f 247//309 246//308 248//311
f 263//312 242//313 371//312
f 261//305 262//314 372//315
f 206//252 372//315 250//316
f 261//305 372//315 206//252
f 226//286 233//297 249//288
f 245//307 223//264 361//317
f 154//204 245//307 361//317
f 251//318 373//318 246//308
f 252//319 245//307 154//204
f 250//316 199//235 206//252
f 199//235 252//319 154//204
f 200//245 228//269 265//320
f 228//269 270//321 265//320
f 254//322 362//294 253//323
f 362//294 375//296 253//323
f 255//289 200//245 266//324
f 254//322 374//325 376//326
f 255//289 266//324 231//298
f 238//327 259//328 366//329
f 269//330 243//303 242//285
f 377//331 257//332 379//333
f 378//334 366//329 259//328
f 379//333 257//332 267//335
f 368//336 260//337 370//306
f 269//330 242//285 262//314
f 264//338 262//314 261//305
f 370//306 260//337 261//305
f 265//320 266//324 200//245
f 271//339 231//298 266//324
f 387//340 254//322 376//326
f 254//322 387//340 270//341
f 271//339 266//324 273//342
f 275//343 276//344 277//345
f 383//346 392//347 381//348
f 390//349 381//348 392//347
f 379//333 267//335 268//350
f 384//351 261//305 380//352
f 385//353 382//354 391//355
f 262//314 278//356 269//330
f 264//338 278//356 262//314
f 279//357 264//338 261//305
f 272//358 271//339 273//342
f 275//343 386//359 271//339
f 271//339 272//358 275//343
f 272//358 273//342 274//360
f 270//321 275//343 280//361
f 277//345 280//361 275//343
f 280//361 277//345 269//330
f 391//355 393//362 385//353
f 384//351 286//363 283//364
f 384//351 283//364 261//305
f 281//365 282//366 389//367
f 284//368 282//366 281//365
f 286//363 384//351 282//366
f 286//363 282//366 284//368
f 264//338 283//364 287//369
f 284//368 270//321 280//361
f 270//321 284//368 265//320
f 284//368 280//361 288//370
f 269//330 285//371 280//361
f 285//371 269//330 289//372
f 289//372 269//330 290//373
f 269//330 278//356 290//373
f 287//369 283//364 286//363
f 278//356 264//338 396//374
f 394//375 396//374 264//338
f 288//370 280//361 285//371
f 290//373 288//370 285//371
f 288//370 395//376 284//368
f 395//376 286//363 284//368
l 346 347
l 266 388
l 52 310
l 11 291
l 55 59
l 183 352
