# Blender 4.0.2
# www.blender.org
mtllib clavicle_l.mtl
o clavicle_l.002
v -0.072910 0.021814 -0.131408
v -0.071630 0.021382 -0.132095
v -0.075370 0.016949 -0.130361
v -0.078735 0.014294 -0.128084
v -0.080565 0.016168 -0.126818
v -0.078781 0.020576 -0.127052
v -0.081708 0.012931 -0.125287
v -0.082906 0.018138 -0.122496
v -0.080700 0.022088 -0.122196
v -0.083561 0.015483 -0.121844
v -0.065298 0.021333 -0.131879
v -0.068107 0.022400 -0.132461
v -0.067198 0.023378 -0.131497
v -0.064608 0.022565 -0.131825
v -0.070254 0.016606 -0.128772
v -0.070859 0.020121 -0.131954
v -0.070683 0.022841 -0.131646
v -0.075300 0.014711 -0.129026
v -0.072175 0.015385 -0.126545
v -0.078705 0.012286 -0.126667
v -0.075858 0.013197 -0.126955
v -0.081065 0.011732 -0.124501
v -0.078596 0.011846 -0.124654
v -0.079518 0.023332 -0.119682
v -0.082755 0.012591 -0.122474
v -0.081630 0.011515 -0.121577
v -0.082307 0.020557 -0.121529
v -0.084901 0.014697 -0.116739
v -0.084438 0.013553 -0.116571
v -0.084826 0.018770 -0.116343
v -0.083933 0.020472 -0.115968
v -0.061343 0.022684 -0.129978
v -0.062745 0.020021 -0.129262
v -0.065636 0.017688 -0.128568
v -0.063811 0.023981 -0.130037
v -0.066734 0.025343 -0.125765
v -0.078408 0.013099 -0.117310
v -0.082925 0.012461 -0.116814
v -0.079907 0.023338 -0.108906
v -0.084294 0.014637 -0.111732
v -0.084573 0.016745 -0.110326
v -0.083044 0.020894 -0.108578
v -0.083979 0.019450 -0.108797
v -0.060975 0.023159 -0.129116
v -0.060157 0.021602 -0.127707
v -0.062521 0.018000 -0.126383
v -0.063722 0.025571 -0.124641
v -0.061715 0.025164 -0.123110
v -0.074617 0.025491 -0.114032
v -0.081542 0.013333 -0.113054
v -0.082755 0.016027 -0.105574
v -0.061079 0.018901 -0.123854
v -0.059259 0.021925 -0.121486
v -0.059299 0.023263 -0.122087
v -0.063267 0.017298 -0.123454
v -0.060768 0.019345 -0.118535
v -0.060184 0.024627 -0.117881
v -0.062292 0.025866 -0.117595
v -0.069842 0.015543 -0.112907
v -0.067847 0.026253 -0.116222
v -0.077633 0.013075 -0.108540
v -0.076159 0.025084 -0.108544
v -0.082011 0.014801 -0.107486
v -0.059354 0.022181 -0.116592
v -0.062211 0.018196 -0.115812
v -0.067317 0.016736 -0.110084
v -0.072301 0.025471 -0.104816
v -0.079404 0.013331 -0.104803
v -0.080741 0.014630 -0.100202
v -0.080657 0.020509 -0.098193
v -0.081218 0.018180 -0.097791
v -0.060329 0.019835 -0.110187
v -0.060941 0.018809 -0.107977
v -0.060758 0.021662 -0.110041
v -0.065390 0.024903 -0.108082
v -0.078409 0.011746 -0.100106
v -0.076844 0.010541 -0.096238
v -0.076114 0.022837 -0.095739
v -0.078345 0.020782 -0.093480
v -0.079343 0.018084 -0.092195
v -0.060068 0.019120 -0.106315
v -0.059891 0.020548 -0.105696
v -0.073722 0.011127 -0.095414
v -0.078524 0.010348 -0.095310
v -0.078578 0.009109 -0.092337
v -0.079447 0.010173 -0.092080
v -0.077963 0.008541 -0.091530
v -0.078792 0.013604 -0.088753
v -0.058527 0.017131 -0.099390
v -0.058342 0.018484 -0.101419
v -0.059754 0.021434 -0.099208
v -0.057773 0.019392 -0.099317
v -0.064031 0.016035 -0.099455
v -0.063821 0.024050 -0.098745
v -0.065306 0.015207 -0.094157
v -0.069061 0.014013 -0.096217
v -0.077143 0.008649 -0.091083
v -0.078208 0.009075 -0.090365
v -0.076321 0.009285 -0.089749
v -0.076501 0.011909 -0.087176
v -0.075066 0.019372 -0.086550
v -0.072547 0.010864 -0.085812
v -0.070622 0.020397 -0.082358
v -0.073023 0.016708 -0.082731
v -0.055739 0.017735 -0.096421
v -0.054025 0.016965 -0.093848
v -0.053807 0.017880 -0.093435
v -0.059754 0.024215 -0.088042
v -0.069874 0.011221 -0.085791
v -0.069192 0.011124 -0.082129
v -0.071028 0.012677 -0.082003
v -0.069729 0.019915 -0.081313
v -0.054726 0.015346 -0.092137
v -0.053009 0.019625 -0.089310
v -0.060804 0.013521 -0.086659
v -0.058178 0.023037 -0.081303
v -0.060753 0.023968 -0.085199
v -0.066471 0.011324 -0.082557
v -0.068707 0.015110 -0.079919
v -0.066292 0.011859 -0.079312
v -0.053772 0.022877 -0.082426
v -0.061069 0.010765 -0.079889
v -0.059227 0.013335 -0.075851
v -0.060101 0.019857 -0.078047
v -0.046786 0.015000 -0.087104
v -0.046932 0.016292 -0.086975
v -0.047755 0.020137 -0.082185
v -0.052282 0.012857 -0.081799
v -0.056305 0.011674 -0.080282
v -0.056889 0.011304 -0.077972
v -0.060826 0.010912 -0.078005
v -0.060219 0.015361 -0.076227
v -0.045778 0.012212 -0.083678
v -0.043103 0.017019 -0.083119
v -0.040957 0.015684 -0.082156
v -0.045939 0.020143 -0.078963
v -0.055260 0.011882 -0.075192
v -0.053142 0.019955 -0.074774
v -0.045274 0.011757 -0.077010
v -0.047817 0.020360 -0.074710
v -0.050504 0.014365 -0.071467
v -0.036868 0.011725 -0.078956
v -0.037757 0.008559 -0.076977
v -0.038290 0.009540 -0.078689
v -0.036999 0.017706 -0.075071
v -0.047356 0.016906 -0.070112
v -0.026268 0.006719 -0.071425
v -0.031970 0.013600 -0.075159
v -0.033092 0.015617 -0.074735
v -0.044456 0.010020 -0.070005
v -0.043280 0.010692 -0.068214
v -0.043114 0.012351 -0.067307
v -0.030496 0.006310 -0.072684
v -0.034052 0.006760 -0.073907
v -0.033845 0.008598 -0.069246
v -0.036618 0.009146 -0.066283
v -0.034195 0.016098 -0.063902
v -0.026474 0.009134 -0.072321
v -0.029598 0.006004 -0.070746
v -0.030984 0.016585 -0.065374
v -0.029623 0.012424 -0.058756
v -0.035716 0.009936 -0.063573
v -0.032308 0.010095 -0.060461
v -0.034154 0.012205 -0.061564
v -0.023265 0.014972 -0.062552
v -0.017099 0.003133 -0.062808
v -0.018663 0.007594 -0.066290
v -0.018656 0.010168 -0.065610
v -0.022671 0.014850 -0.058914
v -0.026703 0.013891 -0.058047
v -0.016483 0.012251 -0.061317
v -0.016705 0.002357 -0.060109
v -0.016468 0.013895 -0.057662
v -0.023414 0.006057 -0.054747
v -0.023280 0.009014 -0.052859
v -0.023749 0.012409 -0.054386
v -0.013931 0.003778 -0.061039
v -0.009543 0.005226 -0.057307
v -0.012821 0.009360 -0.059070
v -0.012415 0.013153 -0.053226
v -0.019648 0.004213 -0.053041
v -0.010009 0.009007 -0.056559
v -0.016859 0.002471 -0.056749
v -0.015880 0.005137 -0.045943
v -0.004885 0.007164 -0.051415
v -0.010581 0.000335 -0.050060
v -0.012410 0.013810 -0.048971
v -0.014336 0.012936 -0.046723
v -0.011183 0.002351 -0.041490
v -0.017195 0.007587 -0.046622
v -0.016104 0.010358 -0.045983
v -0.005409 0.001068 -0.049785
v -0.002752 0.004724 -0.048417
v -0.005369 0.011174 -0.048857
v -0.007290 0.000133 -0.049690
v -0.008207 0.013888 -0.046393
v -0.009122 0.013633 -0.041733
v -0.012604 0.007093 -0.039837
v -0.011673 0.011525 -0.040692
v -0.001147 0.002952 -0.044871
v -0.002355 0.000390 -0.043451
v 0.001337 0.006082 -0.041057
v -0.005389 -0.000571 -0.043261
v -0.001098 0.012751 -0.039783
v -0.011261 0.004103 -0.037305
v -0.007887 0.012011 -0.031437
v -0.000218 0.000234 -0.036865
v 0.000864 0.011355 -0.038793
v -0.001852 0.014050 -0.031450
v -0.005480 -0.000246 -0.036350
v -0.003636 0.014025 -0.025164
v -0.008998 0.002687 -0.031284
v -0.009232 0.005621 -0.028880
v 0.004310 0.003351 -0.032036
v 0.003849 0.008041 -0.033806
v 0.001139 0.012367 -0.032071
v -0.005086 0.013326 -0.023167
v -0.008000 0.008637 -0.022346
v 0.004561 0.009119 -0.028547
v -0.005725 0.001001 -0.021100
v -0.008252 0.003121 -0.020792
v -0.008568 0.004786 -0.020875
v 0.005728 0.006393 -0.026446
v 0.003423 -0.000999 -0.023275
v -0.001421 -0.001793 -0.021485
v -0.006897 0.000877 -0.017305
v -0.002834 0.014108 -0.017142
v -0.008555 0.006861 -0.012204
v 0.005887 0.000904 -0.021671
v 0.005770 0.008139 -0.020426
v -0.000557 -0.002703 -0.016083
v -0.003716 -0.000852 -0.013866
v 0.001218 0.012116 -0.009779
v -0.007090 -0.000994 -0.011430
v -0.008729 0.002442 -0.012087
v -0.008220 -0.000063 -0.010805
v -0.007085 0.011367 -0.009819
v -0.004400 0.013486 -0.009489
v -0.009326 0.007371 -0.006557
v -0.008283 0.011753 -0.004738
v -0.009410 0.011513 -0.002893
v 0.003051 -0.004081 -0.015280
v 0.005965 0.006754 -0.010661
v -0.002862 0.013177 -0.004890
v -0.006082 -0.004198 -0.008116
v -0.003894 -0.003139 -0.009111
v -0.005771 0.013514 -0.003254
v -0.007188 -0.005441 -0.005839
v -0.007453 0.013053 -0.002706
v -0.009898 -0.002848 -0.002211
v -0.010762 0.001877 -0.001244
v -0.010874 0.008289 -0.002358
v -0.010577 0.009230 -0.000678
v -0.008866 0.011949 -0.001809
v 0.006596 -0.003397 -0.013927
v 0.007907 0.002055 -0.009641
v -0.000097 -0.006879 -0.008691
v 0.002600 0.010956 -0.006724
v -0.003770 -0.010308 -0.004383
v 0.000149 0.009080 0.000113
v -0.005012 0.011194 -0.000307
v -0.007717 -0.011302 -0.000457
v -0.009609 -0.009395 0.000260
v -0.008824 0.008321 0.001241
v -0.011203 -0.005545 0.001699
v -0.010663 -0.007616 0.002003
v -0.010985 -0.006615 0.002617
v -0.011386 -0.004009 0.003787
v -0.010963 -0.001829 0.004344
v -0.010843 0.002732 0.002287
v -0.008192 0.003270 0.003125
v 0.008275 -0.001496 -0.012377
v 0.007624 -0.003998 -0.010368
v 0.006842 -0.004823 -0.007360
v 0.008075 -0.003078 -0.006705
v 0.008315 -0.001550 -0.006196
v 0.006662 0.001997 -0.003542
v 0.002024 -0.008688 -0.007581
v 0.000429 -0.010404 -0.003941
v 0.004845 -0.004385 -0.004350
v 0.003793 0.007994 -0.002396
v 0.002053 0.009907 -0.001591
v -0.001753 -0.010732 -0.000989
v 0.002250 -0.002614 -0.001851
v -0.004903 -0.011909 -0.001967
v -0.004236 -0.011875 -0.000462
v -0.000551 0.005183 0.000823
v -0.006426 -0.011847 -0.000195
v -0.009337 -0.009788 0.001594
v -0.007295 -0.008876 0.003062
v -0.004611 -0.005823 0.002672
v -0.007237 -0.003682 0.004233
v -0.010333 -0.005219 0.004259
v -0.009697 -0.003687 0.004750
v -0.009408 -0.000305 0.004699
v 0.007110 -0.001457 -0.004042
v -0.078524 0.010348 -0.095310
v -0.058342 0.018484 -0.101419
v -0.072547 0.010864 -0.085812
v -0.055739 0.017735 -0.096421
v -0.045778 0.012212 -0.083678
v -0.026774 0.013918 -0.058076
vn 0.0199 -0.4005 -0.9161
vn -0.2994 -0.2368 -0.9243
vn -0.2556 0.1141 -0.9600
vn 0.1482 -0.7030 -0.6956
vn -0.4287 -0.3269 -0.8423
vn -0.4906 0.4875 -0.7222
vn -0.6326 0.4952 -0.5954
vn -0.5761 0.7544 -0.3146
vn -0.2564 0.7503 -0.6093
vn -0.0860 -0.8281 -0.5539
vn -0.7256 0.0884 -0.6824
vn -0.8662 0.2463 -0.4347
vn -0.7345 -0.3523 -0.5800
vn -0.3542 -0.8773 -0.3238
vn -0.9314 -0.0137 -0.3636
vn -0.8219 -0.5123 -0.2491
vn -0.7919 0.5087 -0.3377
vn 0.2877 -0.3913 -0.8741
vn 0.0082 0.2636 -0.9646
vn 0.3383 0.2858 -0.8966
vn -0.0049 0.8328 -0.5535
vn 0.2165 0.8526 -0.4756
vn -0.1039 0.9707 -0.2165
vn 0.2608 -0.8126 -0.5213
vn 0.2835 -0.8258 -0.4876
vn -0.4235 0.8952 -0.1392
vn 0.4030 -0.8787 -0.2559
vn 0.3525 -0.9265 -0.1314
vn -0.2277 -0.9735 0.0198
vn 0.2725 -0.9616 -0.0324
vn 0.2498 -0.9652 0.0778
vn -0.9796 -0.1814 -0.0861
vn -0.9593 0.2612 -0.1073
vn -0.7638 0.6425 -0.0623
vn -0.7903 -0.6120 0.0305
vn -0.9779 -0.0828 0.1917
vn -0.9324 0.3187 0.1704
vn -0.5112 0.8564 0.0723
vn -0.7350 0.6664 0.1252
vn 0.6653 0.1298 -0.7352
vn 0.5239 -0.5933 -0.6111
vn 0.7156 0.5693 -0.4048
vn 0.1650 0.9684 -0.1871
vn 0.5316 -0.7960 -0.2894
vn -0.2384 0.9701 -0.0452
vn 0.3283 -0.9439 -0.0362
vn -0.3052 -0.9391 0.1578
vn -0.7478 -0.6235 0.2281
vn -0.1695 -0.9680 0.1851
vn -0.7948 -0.5561 0.2433
vn 0.9099 -0.2177 -0.3531
vn 0.7539 -0.6531 -0.0715
vn 0.4120 -0.9103 -0.0406
vn 0.9119 0.3963 -0.1064
vn 0.4699 0.8708 -0.1444
vn -0.0224 0.9997 -0.0075
vn -0.0853 0.9900 0.1121
vn -0.0431 -0.9967 -0.0682
vn -0.3100 0.9488 0.0610
vn -0.4801 -0.8535 0.2025
vn -0.9672 0.0603 0.2469
vn -0.7714 0.5819 0.2575
vn 0.9697 -0.2418 -0.0338
vn 0.7702 -0.6378 0.0099
vn 0.7367 0.6683 0.1032
vn 0.3237 0.9436 0.0689
vn 0.4992 -0.8660 0.0288
vn 0.3584 0.9250 0.1260
vn 0.3803 -0.9030 -0.1997
vn -0.3764 0.8978 0.2286
vn -0.5303 -0.8287 -0.1793
vn -0.5627 -0.8235 -0.0715
vn -0.8825 -0.4674 0.0516
vn 0.9944 0.0043 0.1051
vn 0.9604 -0.2774 -0.0281
vn 0.8330 0.5327 0.1494
vn 0.3994 -0.9154 -0.0502
vn 0.5088 -0.8471 -0.1533
vn 0.4282 -0.8925 -0.1418
vn -0.9090 -0.4014 0.1121
vn 0.8820 0.4495 -0.1415
vn 0.3807 0.9192 -0.1004
vn 0.2243 -0.9563 -0.1877
vn 0.0913 -0.9528 -0.2895
vn -0.1086 -0.9233 -0.3684
vn -0.6422 0.6805 0.3528
vn -0.6718 -0.7040 -0.2302
vn -0.6177 -0.7657 -0.1792
vn -0.8580 0.3164 0.4047
vn -0.8452 -0.0290 0.5337
vn 0.9095 -0.3254 -0.2588
vn 0.4097 -0.8367 -0.3634
vn 0.9377 0.1372 -0.3192
vn 0.5994 0.7799 -0.1801
vn 0.8009 0.5142 -0.3068
vn 0.1985 -0.9633 -0.1805
vn 0.2513 -0.9609 -0.1164
vn -0.4723 0.6954 0.5417
vn -0.2587 -0.9657 -0.0216
vn -0.5368 -0.6811 0.4979
vn 0.1664 -0.9820 0.0897
vn -0.6868 0.5103 0.5176
vn 0.6990 -0.6226 -0.3517
vn -0.0835 0.9713 0.2228
vn -0.0957 -0.8333 0.5444
vn -0.5614 -0.4442 0.6982
vn -0.5655 -0.4177 0.7111
vn 0.1288 -0.9746 0.1832
vn -0.6642 0.1018 0.7406
vn 0.7009 -0.4275 -0.5710
vn 0.2281 -0.8853 -0.4051
vn 0.6921 -0.3557 -0.6281
vn 0.2493 0.9661 -0.0671
vn -0.4080 -0.7306 0.5475
vn -0.2583 -0.9067 0.3334
vn -0.4056 0.5018 0.7640
vn 0.8412 0.1018 -0.5310
vn 0.7502 0.3898 -0.5342
vn 0.0189 -0.9684 -0.2487
vn 0.5435 0.7499 -0.3773
vn 0.1013 -0.9604 -0.2594
vn 0.1077 -0.9460 -0.3057
vn -0.3083 0.5857 0.7496
vn -0.0889 0.9161 0.3909
vn -0.4792 -0.0204 0.8775
vn 0.2105 -0.7337 -0.6460
vn 0.6201 0.4435 -0.6471
vn 0.2605 0.9654 0.0065
vn -0.4072 0.1498 0.9010
vn -0.3873 -0.5295 0.7548
vn -0.3825 -0.2877 0.8780
vn 0.5806 -0.2730 -0.7671
vn 0.4578 0.8207 -0.3419
vn 0.0605 -0.9891 -0.1346
vn 0.0510 -0.9986 0.0133
vn 0.1253 -0.9533 -0.2749
vn -0.1320 -0.8713 0.4726
vn 0.6425 0.3461 -0.6836
vn 0.5177 0.6654 -0.5379
vn 0.3530 0.9261 -0.1334
vn -0.3237 -0.7263 0.6063
vn -0.2440 0.7173 0.6526
vn -0.4395 0.3241 0.8377
vn -0.4776 -0.1047 0.8723
vn -0.1997 -0.9750 -0.0974
vn 0.0760 0.9593 0.2719
vn -0.2046 -0.9637 0.1712
vn 0.2462 -0.6823 -0.6884
vn 0.5438 -0.1858 -0.8184
vn -0.2372 -0.9555 -0.1753
vn 0.3973 0.8649 -0.3067
vn -0.1664 -0.9796 -0.1131
vn 0.2988 0.9454 -0.1305
vn 0.4145 -0.5277 -0.7414
vn 0.5960 0.3221 -0.7355
vn -0.3657 -0.9245 0.1076
vn 0.5388 0.6599 -0.5236
vn -0.1483 0.8269 0.5424
vn 0.0919 0.9787 0.1837
vn -0.4471 -0.5981 0.6651
vn -0.5256 -0.3118 0.7915
vn 0.0958 -0.8872 -0.4513
vn -0.2843 -0.9530 -0.1043
vn -0.2992 -0.9419 0.1525
vn -0.4772 -0.7249 0.4968
vn -0.5321 0.0124 0.8466
vn 0.5887 0.6587 -0.4685
vn -0.3284 -0.9400 0.0922
vn -0.5288 0.3381 0.7785
vn 0.5719 -0.0098 -0.8203
vn -0.5980 -0.2012 0.7758
vn -0.6145 -0.5676 0.5479
vn 0.6408 -0.0696 -0.7646
vn -0.3695 -0.9267 0.0686
vn 0.0178 0.9883 0.1517
vn 0.5808 -0.4802 -0.6573
vn 0.7328 -0.1074 -0.6720
vn 0.3528 0.9076 -0.2274
vn -0.4880 -0.8360 0.2508
vn -0.7040 -0.0708 0.7067
vn -0.2743 0.7142 0.6440
vn -0.0823 0.8418 0.5335
vn 0.2779 -0.7955 -0.5384
vn -0.0646 -0.9856 -0.1560
vn 0.6512 0.3747 -0.6600
vn 0.6939 0.4519 -0.5606
vn -0.5884 0.3995 0.7030
vn -0.4291 0.8198 0.3793
vn 0.4356 0.8410 -0.3209
vn 0.6420 0.4621 -0.6118
vn -0.0320 0.9990 0.0306
vn -0.7642 -0.4086 0.4991
vn -0.7625 -0.0515 0.6450
vn 0.7909 0.2032 -0.5772
vn 0.6285 0.6259 -0.4618
vn -0.2429 -0.9700 -0.0113
vn -0.5996 -0.7702 0.2173
vn -0.7075 0.3690 0.6028
vn 0.8321 -0.1195 -0.5417
vn 0.6038 -0.6359 -0.4807
vn 0.2178 0.9598 -0.1772
vn -0.3250 0.9338 0.1497
vn -0.8859 0.1015 0.4527
vn -0.7203 0.5640 0.4038
vn 0.1929 -0.9418 -0.2753
vn 0.7847 0.5345 -0.3140
vn 0.5573 -0.7870 -0.2647
vn -0.8933 -0.3409 0.2928
vn -0.7945 0.5675 0.2161
vn 0.8264 -0.3671 -0.4271
vn 0.9065 0.0204 -0.4216
vn 0.0453 -0.9974 -0.0559
vn 0.5047 0.8247 -0.2552
vn -0.2364 0.9716 0.0133
vn 0.9369 0.2191 -0.2725
vn 0.4510 -0.8757 -0.1724
vn 0.2546 0.9666 -0.0278
vn -0.2481 -0.9676 0.0472
vn -0.7983 -0.5830 0.1512
vn -0.9874 0.0329 0.1547
vn 0.9003 -0.3344 -0.2786
vn 0.6185 0.7824 -0.0732
vn -0.6187 0.7843 0.0465
vn -0.9998 -0.0170 0.0125
vn -0.8778 -0.4773 -0.0407
vn -0.9391 0.3399 0.0507
vn 0.9813 0.1070 -0.1601
vn 0.8533 0.5099 -0.1093
vn 0.0345 0.9991 0.0235
vn -0.6090 -0.7926 -0.0299
vn -0.5368 -0.8182 -0.2060
vn -0.2999 0.9539 -0.0083
vn -0.9792 0.1857 -0.0817
vn -0.7862 0.6036 -0.1324
vn 0.8501 -0.4225 -0.3144
vn 0.8621 0.5062 -0.0226
vn -0.2202 -0.9642 -0.1477
vn 0.4277 -0.8595 -0.2800
vn 0.0720 -0.9095 -0.4094
vn 0.5377 0.8416 0.0513
vn -0.4463 -0.8680 -0.2179
vn -0.4472 -0.8588 -0.2499
vn -0.9869 -0.1181 -0.1097
vn -0.8594 -0.4391 -0.2622
vn -0.7613 0.5847 -0.2804
vn 0.8593 0.5041 0.0866
vn -0.4865 -0.7685 -0.4156
vn -0.3397 -0.6664 -0.6637
vn 0.2780 0.9411 0.1927
vn -0.3141 -0.6463 -0.6954
vn -0.6973 -0.4965 -0.5170
vn -0.9871 -0.0346 -0.1563
vn -0.9565 0.1875 -0.2234
vn -0.0036 0.9595 0.2816
vn -0.9116 -0.1938 -0.3624
vn -0.9692 0.1716 -0.1768
vn -0.8003 0.5707 -0.1839
vn 0.6221 -0.6919 -0.3665
vn 0.9695 -0.1714 -0.1754
vn 0.2314 -0.8854 -0.4031
vn -0.4084 -0.7035 -0.5817
vn 0.6540 0.7475 0.1166
vn 0.5698 0.6216 0.5375
vn -0.3600 0.8986 0.2509
vn -0.5082 0.7455 0.4313
vn 0.0724 0.6439 0.7616
vn -0.8259 -0.4809 -0.2943
vn -0.8339 0.2528 0.4905
vn -0.8228 0.4210 0.3817
vn -0.2714 0.4450 0.8534
vn 0.7905 -0.5923 -0.1558
vn 0.9602 0.2722 0.0626
vn -0.3029 -0.6930 -0.6542
vn -0.5730 -0.7900 -0.2180
vn 0.3579 0.4034 0.8421
vn -0.0275 0.3116 0.9498
vn -0.1513 -0.9191 -0.3638
vn -0.5734 -0.7072 0.4135
vn -0.9678 -0.1511 -0.2014
vn -0.8844 -0.4319 0.1767
vn -0.9730 -0.2281 -0.0352
vn -0.4110 -0.3564 0.8391
vn -0.8966 -0.1115 0.4285
vn -0.7030 0.1174 0.7014
vn -0.0307 0.2697 0.9625
vn 0.9643 -0.0332 0.2626
vn 0.8638 -0.4295 0.2633
vn 0.7136 -0.6711 0.2010
vn 0.6181 -0.4381 0.6527
vn 0.7972 0.1727 0.5785
vn 0.7805 0.3748 0.5004
vn 0.5010 -0.8643 0.0453
vn 0.5596 -0.5976 0.5743
vn 0.6907 -0.2292 0.6859
vn 0.5351 -0.1904 0.8231
vn 0.4457 0.0375 0.8944
vn 0.2580 -0.8757 0.4081
vn -0.1744 -0.9491 0.2625
vn 0.0903 -0.5040 0.8590
vn 0.4987 -0.1819 0.8475
vn 0.3294 -0.0568 0.9425
vn -0.0942 -0.1157 0.9888
s 1
usemtl mtl1.1040
f 16//1 3//2 2//3
f 3//2 18//4 4//5
f 2//3 3//2 1//6
f 6//7 9//8 1//6
f 9//8 17//9 1//6
f 4//5 18//4 20//10
f 4//5 5//11 3//2
f 3//2 5//11 1//6
f 1//6 5//11 6//7
f 5//11 8//12 6//7
f 4//5 7//13 5//11
f 7//13 4//5 20//10
f 22//14 7//13 20//10
f 8//12 5//11 10//15
f 10//15 5//11 7//13
f 25//16 10//15 7//13
f 8//12 27//17 6//7
f 11//18 16//1 12//19
f 11//18 12//19 14//20
f 13//21 14//20 12//19
f 13//21 35//22 14//20
f 13//21 36//23 35//22
f 16//1 15//24 18//4
f 12//19 2//3 17//9
f 17//9 2//3 1//6
f 2//3 12//19 16//1
f 11//18 15//24 16//1
f 11//18 34//25 15//24
f 12//19 17//9 13//21
f 17//9 24//26 36//23
f 13//21 17//9 36//23
f 18//4 3//2 16//1
f 21//27 18//4 19//28
f 18//4 15//24 19//28
f 20//10 18//4 21//27
f 26//29 23//30 37//31
f 23//30 21//27 19//28
f 24//26 17//9 9//8
f 7//13 22//14 25//16
f 23//30 22//14 20//10
f 21//27 23//30 20//10
f 9//8 6//7 27//17
f 22//14 26//29 25//16
f 26//29 22//14 23//30
f 25//16 28//32 10//15
f 30//33 27//17 8//12
f 9//8 27//17 31//34
f 31//34 27//17 30//33
f 31//34 24//26 9//8
f 30//33 10//15 28//32
f 26//29 29//35 25//16
f 29//35 28//32 25//16
f 8//12 10//15 30//33
f 28//32 41//36 30//33
f 30//33 43//37 31//34
f 31//34 39//38 24//26
f 31//34 42//39 39//38
f 11//18 32//40 33//41
f 11//18 33//41 34//25
f 11//18 14//20 32//40
f 14//20 35//22 32//40
f 44//42 32//40 35//22
f 35//22 47//43 44//42
f 46//44 15//24 34//25
f 36//23 47//43 35//22
f 46//44 19//28 15//24
f 49//45 36//23 24//26
f 23//30 19//28 37//31
f 37//31 19//28 59//46
f 39//38 49//45 24//26
f 26//29 38//47 29//35
f 29//35 40//48 28//32
f 41//36 28//32 40//48
f 26//29 37//31 50//49
f 38//47 26//29 50//49
f 29//35 38//47 40//48
f 40//48 38//47 50//49
f 41//36 43//37 30//33
f 51//50 41//36 40//48
f 31//34 43//37 42//39
f 45//51 32//40 44//42
f 33//41 32//40 45//51
f 33//41 45//51 46//44
f 46//44 34//25 33//41
f 46//44 45//51 52//52
f 52//52 55//53 46//44
f 45//51 44//42 54//54
f 48//55 54//54 44//42
f 44//42 47//43 48//55
f 55//53 19//28 46//44
f 59//46 19//28 55//53
f 36//23 49//45 60//56
f 47//43 36//23 60//56
f 67//57 60//56 49//45
f 37//31 59//46 61//58
f 37//31 61//58 50//49
f 49//45 39//38 62//59
f 61//58 63//60 50//49
f 40//48 50//49 63//60
f 63//60 51//50 40//48
f 51//50 71//61 41//36
f 71//61 43//37 41//36
f 70//62 42//39 43//37
f 45//51 54//54 53//63
f 52//52 45//51 53//63
f 52//52 53//63 56//64
f 54//54 48//55 57//65
f 52//52 56//64 55//53
f 48//55 47//43 58//66
f 48//55 58//66 57//65
f 55//53 56//64 65//67
f 59//46 55//53 65//67
f 58//66 47//43 60//56
f 60//56 67//57 58//66
f 57//65 58//66 75//68
f 67//57 75//68 58//66
f 83//69 61//58 59//46
f 67//57 49//45 62//59
f 78//70 67//57 62//59
f 78//70 62//59 39//38
f 76//71 68//72 61//58
f 68//72 63//60 61//58
f 63//60 68//72 51//50
f 69//73 71//61 51//50
f 69//73 51//50 68//72
f 39//38 42//39 70//62
f 54//54 64//74 53//63
f 56//64 53//63 64//74
f 64//74 54//54 57//65
f 56//64 64//74 72//75
f 74//76 64//74 57//65
f 75//68 74//76 57//65
f 66//77 59//46 65//67
f 73//78 66//77 65//67
f 96//79 59//46 66//77
f 96//79 83//69 59//46
f 68//72 76//71 69//73
f 69//73 86//80 71//61
f 43//37 71//61 70//62
f 78//70 39//38 70//62
f 56//64 72//75 65//67
f 72//75 64//74 74//76
f 73//78 65//67 72//75
f 82//81 74//76 75//68
f 75//68 94//82 82//81
f 66//77 93//83 96//79
f 77//84 76//71 61//58
f 83//69 77//84 61//58
f 84//85 76//71 77//84
f 76//71 86//80 69//73
f 79//86 78//70 70//62
f 76//71 297//87 86//80
f 85//88 86//80 297//87
f 71//61 80//89 70//62
f 88//90 80//89 71//61
f 80//89 79//86 70//62
f 72//75 74//76 82//81
f 73//78 72//75 81//91
f 81//91 72//75 82//81
f 89//92 73//78 81//91
f 90//93 81//91 82//81
f 82//81 91//94 92//95
f 82//81 94//82 91//94
f 73//78 93//83 66//77
f 94//82 75//68 67//57
f 93//83 95//96 96//79
f 109//97 83//69 96//79
f 79//86 103//98 78//70
f 87//99 84//85 77//84
f 87//99 85//88 84//85
f 85//88 87//99 86//80
f 87//99 98//100 86//80
f 83//69 87//99 77//84
f 83//69 97//101 87//99
f 88//90 86//80 98//100
f 86//80 88//90 71//61
f 79//86 80//89 101//102
f 81//91 298//103 89//92
f 90//93 82//81 92//95
f 89//92 93//83 73//78
f 96//79 95//96 109//97
f 117//104 67//57 78//70
f 97//101 83//69 109//97
f 97//101 98//100 87//99
f 98//100 97//101 99//105
f 99//105 100//106 98//100
f 109//97 99//105 97//101
f 111//107 88//90 100//106
f 99//105 109//97 102//108
f 101//102 88//90 104//109
f 101//102 80//89 88//90
f 79//86 101//102 103//98
f 98//100 100//106 88//90
f 89//92 298//103 105//110
f 89//92 113//111 93//83
f 89//92 105//110 106//112
f 67//57 108//113 94//82
f 67//57 117//104 108//113
f 117//104 78//70 103//98
f 99//105 299//114 100//106
f 299//114 111//107 100//106
f 109//97 110//115 102//108
f 111//107 104//109 88//90
f 104//109 103//98 101//102
f 104//109 112//116 103//98
f 106//112 113//111 89//92
f 300//117 90//93 92//95
f 92//95 91//94 107//118
f 107//118 300//117 92//95
f 106//112 300//117 107//118
f 128//119 93//83 113//111
f 128//119 95//96 93//83
f 114//120 107//118 91//94
f 91//94 94//82 114//120
f 118//121 95//96 115//122
f 118//121 109//97 95//96
f 112//116 124//123 116//124
f 299//114 110//115 111//107
f 104//109 111//107 119//125
f 112//116 104//109 119//125
f 103//98 116//124 117//104
f 112//116 116//124 103//98
f 106//112 133//126 113//111
f 114//120 126//127 107//118
f 115//122 95//96 128//119
f 94//82 108//113 114//120
f 121//128 108//113 117//104
f 116//124 121//128 117//104
f 124//123 112//116 132//129
f 118//121 110//115 109//97
f 120//130 111//107 110//115
f 120//130 123//131 119//125
f 111//107 120//130 119//125
f 112//116 119//125 132//129
f 125//132 133//126 106//112
f 114//120 127//133 126//127
f 108//113 127//133 114//120
f 121//128 127//133 108//113
f 115//122 122//134 118//121
f 130//135 122//134 129//136
f 122//134 110//115 118//121
f 129//136 122//134 115//122
f 131//137 122//134 130//135
f 110//115 122//134 131//137
f 110//115 131//137 120//130
f 131//137 123//131 120//130
f 119//125 123//131 132//129
f 107//118 126//127 125//132
f 125//132 106//112 107//118
f 125//132 126//127 135//138
f 134//139 135//138 126//127
f 136//140 127//133 121//128
f 129//136 115//122 128//119
f 137//141 131//137 130//135
f 124//123 138//142 116//124
f 138//142 124//123 146//143
f 137//141 123//131 131//137
f 146//143 124//123 132//129
f 132//129 123//131 141//144
f 146//143 132//129 141//144
f 127//133 134//139 126//127
f 134//139 127//133 136//140
f 301//145 128//119 113//111
f 140//146 136//140 121//128
f 140//146 121//128 116//124
f 138//142 140//146 116//124
f 150//147 130//135 129//136
f 137//141 130//135 150//147
f 141//144 123//131 137//141
f 144//148 133//126 125//132
f 142//149 144//148 125//132
f 142//149 125//132 135//138
f 133//126 144//148 143//150
f 134//139 145//151 135//138
f 145//151 134//139 136//140
f 139//152 128//119 301//145
f 165//153 136//140 140//146
f 165//153 145//151 136//140
f 129//136 128//119 150//147
f 139//152 150//147 128//119
f 147//154 144//148 142//149
f 142//149 135//138 148//155
f 139//152 143//150 155//156
f 145//151 149//157 135//138
f 143//150 139//152 301//145
f 138//142 157//158 140//146
f 160//159 140//146 157//158
f 141//144 137//141 151//160
f 152//161 141//144 151//160
f 149//157 148//155 135//138
f 153//162 154//163 144//148
f 143//150 154//163 155//156
f 154//163 143//150 144//148
f 156//164 150//147 139//152
f 165//153 140//146 160//159
f 151//160 137//141 150//147
f 151//160 150//147 156//164
f 152//161 151//160 162//165
f 146//143 141//144 164//166
f 147//154 153//162 144//148
f 171//167 149//157 145//151
f 159//168 155//156 154//163
f 154//163 153//162 159//168
f 139//152 155//156 156//164
f 156//164 162//165 151//160
f 161//169 138//142 146//143
f 164//166 161//169 146//143
f 142//149 158//170 147//154
f 148//155 158//170 142//149
f 157//158 138//142 161//169
f 141//144 152//161 164//166
f 163//171 152//161 162//165
f 163//171 164//166 152//161
f 174//172 163//171 162//165
f 158//170 167//173 147//154
f 171//167 145//151 165//153
f 183//174 156//164 155//156
f 183//174 162//165 156//164
f 157//158 169//175 160//159
f 177//176 167//173 178//177
f 167//173 177//176 147//154
f 171//167 165//153 173//178
f 181//179 162//165 183//174
f 162//165 181//179 174//172
f 163//171 174//172 175//180
f 163//171 161//169 164//166
f 161//169 163//171 175//180
f 157//158 161//169 170//181
f 302//182 169//175 157//158
f 166//183 153//162 147//154
f 172//184 153//162 166//183
f 166//183 147//154 177//176
f 167//173 158//170 168//185
f 158//170 148//155 168//185
f 149//157 168//185 148//155
f 178//177 167//173 168//185
f 149//157 171//167 168//185
f 168//185 179//186 178//177
f 169//175 165//153 160//159
f 176//187 170//181 161//169
f 175//180 176//187 161//169
f 170//181 169//175 302//182
f 179//186 168//185 171//167
f 172//184 159//168 153//162
f 183//174 159//168 172//184
f 155//156 159//168 183//174
f 170//181 176//187 188//188
f 180//189 179//186 171//167
f 178//177 179//186 182//190
f 182//190 179//186 180//189
f 173//178 180//189 171//167
f 165//153 169//175 173//178
f 187//191 173//178 169//175
f 187//191 180//189 173//178
f 174//172 184//192 175//180
f 190//193 175//180 184//192
f 178//177 182//190 185//194
f 194//195 182//190 180//189
f 183//174 186//196 181//179
f 188//188 169//175 170//181
f 184//192 181//179 189//197
f 181//179 184//192 174//172
f 191//198 175//180 190//193
f 176//187 175//180 191//198
f 191//198 188//188 176//187
f 178//177 185//194 193//199
f 192//200 178//177 193//199
f 186//196 183//174 172//184
f 186//196 172//184 166//183
f 196//201 180//189 187//191
f 181//179 186//196 189//197
f 187//191 169//175 188//188
f 187//191 188//188 197//202
f 184//192 198//203 190//193
f 191//198 198//203 199//204
f 198//203 191//198 190//193
f 192//200 177//176 178//177
f 166//183 177//176 192//200
f 192//200 195//205 166//183
f 194//195 185//194 182//190
f 185//194 194//195 208//206
f 195//205 186//196 166//183
f 201//207 195//205 192//200
f 196//201 194//195 180//189
f 196//201 187//191 197//202
f 189//197 205//208 184//192
f 206//209 199//204 198//203
f 188//188 191//198 199//204
f 199//204 197//202 188//188
f 199//204 206//209 197//202
f 192//200 200//210 201//207
f 200//210 192//200 193//199
f 193//199 185//194 202//211
f 202//211 185//194 208//206
f 203//212 195//205 201//207
f 204//213 194//195 196//201
f 203//212 186//196 195//205
f 211//214 196//201 197//202
f 205//208 198//203 184//192
f 202//211 208//206 215//215
f 208//206 194//195 204//213
f 203//212 201//207 207//216
f 196//201 209//217 204//213
f 186//196 210//218 189//197
f 211//214 209//217 196//201
f 206//209 211//214 197//202
f 212//219 198//203 205//208
f 189//197 212//219 205//208
f 206//209 198//203 213//220
f 213//220 198//203 212//219
f 200//210 193//199 202//211
f 201//207 200//210 214//221
f 204//213 216//222 208//206
f 210//218 186//196 203//212
f 210//218 203//212 207//216
f 204//213 209//217 216//222
f 212//219 189//197 210//218
f 217//223 211//214 206//209
f 222//224 213//220 221//225
f 202//211 214//221 200//210
f 202//211 215//215 214//221
f 217//223 206//209 218//226
f 212//219 221//225 213//220
f 213//220 218//226 206//209
f 213//220 222//224 218//226
f 214//221 215//215 223//227
f 214//221 207//216 201//207
f 215//215 208//206 219//228
f 216//222 219//228 208//206
f 223//227 215//215 219//228
f 227//229 211//214 217//223
f 209//217 211//214 227//229
f 221//225 212//219 220//230
f 221//225 220//230 226//231
f 238//232 227//229 217//223
f 222//224 228//233 218//226
f 237//234 218//226 228//233
f 214//221 229//235 207//216
f 214//221 223//227 229//235
f 216//222 230//236 219//228
f 225//237 207//216 224//238
f 210//218 207//216 225//237
f 207//216 229//235 224//238
f 242//239 225//237 224//238
f 216//222 209//217 233//240
f 230//236 216//222 233//240
f 210//218 225//237 212//219
f 225//237 231//241 212//219
f 220//230 212//219 231//241
f 231//241 226//231 220//230
f 232//242 226//231 231//241
f 209//217 227//229 233//240
f 221//225 235//243 222//224
f 235//243 228//233 222//224
f 218//226 237//234 217//223
f 237//234 238//232 217//223
f 236//244 221//225 226//231
f 236//244 235//243 221//225
f 228//233 240//245 237//234
f 230//236 223//227 219//228
f 243//246 230//236 233//240
f 242//239 231//241 225//237
f 232//242 234//247 226//231
f 246//248 234//247 232//242
f 227//229 244//249 233//240
f 244//249 227//229 238//232
f 234//247 236//244 226//231
f 245//250 234//247 246//248
f 248//251 236//244 234//247
f 235//243 251//252 228//233
f 251//252 235//243 236//244
f 239//253 240//245 228//233
f 244//249 238//232 247//254
f 250//255 251//252 236//244
f 228//233 251//252 239//253
f 251//252 252//256 239//253
f 240//245 239//253 252//256
f 240//245 252//256 241//257
f 229//235 255//258 224//238
f 229//235 272//259 255//258
f 224//238 255//258 242//239
f 242//239 278//260 231//241
f 257//261 231//241 278//260
f 232//242 231//241 246//248
f 246//248 231//241 257//261
f 258//262 233//240 244//249
f 234//247 245//250 248//251
f 282//263 258//262 244//249
f 282//263 244//249 247//254
f 250//255 236//244 248//251
f 238//232 237//234 249//264
f 237//234 240//245 249//264
f 249//264 240//245 241//257
f 241//257 254//265 249//264
f 249//264 247//254 238//232
f 261//266 249//264 254//265
f 249//264 261//266 247//254
f 250//255 248//251 263//267
f 252//256 251//252 270//268
f 253//269 241//257 252//256
f 270//268 253//269 252//256
f 241//257 253//269 254//265
f 264//270 254//265 253//269
f 261//266 254//265 264//270
f 229//235 223//227 272//259
f 255//258 272//259 273//271
f 256//272 272//259 223//227
f 230//236 243//246 256//272
f 256//272 223//227 230//236
f 255//258 278//260 242//239
f 243//246 233//240 258//262
f 245//250 246//248 257//261
f 245//250 257//261 259//273
f 278//260 259//273 257//261
f 259//273 262//274 248//251
f 259//273 248//251 245//250
f 260//275 261//266 264//270
f 260//275 264//270 271//276
f 247//254 261//266 282//263
f 260//275 282//263 261//266
f 263//267 248//251 262//274
f 285//277 262//274 259//273
f 262//274 289//278 263//267
f 251//252 250//255 265//279
f 250//255 263//267 265//279
f 264//270 270//268 271//276
f 253//269 270//268 264//270
f 263//267 266//280 265//279
f 267//281 265//279 266//280
f 293//282 266//280 289//278
f 289//278 266//280 263//267
f 268//283 251//252 265//279
f 265//279 267//281 268//283
f 266//280 293//282 268//283
f 268//283 293//282 269//284
f 251//252 268//283 270//268
f 268//283 269//284 270//268
f 270//268 269//284 295//285
f 270//268 295//285 271//276
f 276//286 272//259 256//272
f 275//287 273//271 272//259
f 274//288 273//271 275//287
f 275//287 272//259 276//286
f 275//287 280//289 274//288
f 276//286 256//272 277//290
f 256//272 243//246 277//290
f 281//291 277//290 243//246
f 273//271 278//260 255//258
f 273//271 279//292 278//260
f 273//271 274//288 279//292
f 274//288 280//289 283//293
f 280//289 296//294 284//295
f 243//246 258//262 281//291
f 258//262 282//263 281//291
f 278//260 285//277 259//273
f 278//260 279//292 285//277
f 274//288 283//293 279//292
f 283//293 280//289 284//295
f 277//290 281//291 260//275
f 281//291 282//263 260//275
f 260//275 287//296 277//290
f 286//297 288//298 285//277
f 279//292 286//297 285//277
f 286//297 279//292 283//293
f 286//297 283//293 290//299
f 283//293 284//295 291//300
f 292//301 260//275 271//276
f 260//275 292//301 287//296
f 288//298 262//274 285//277
f 289//278 262//274 288//298
f 289//278 288//298 290//299
f 288//298 286//297 290//299
f 283//293 291//300 290//299
f 291//300 287//296 292//301
f 291//300 292//301 290//299
f 287//296 291//300 284//295
f 295//285 292//301 271//276
f 293//282 289//278 290//299
f 293//282 290//299 294//302
f 290//299 292//301 294//302
f 293//282 294//302 269//284
f 269//284 294//302 295//285
f 295//285 294//302 292//301
f 275//287 296//294 280//289
f 276//286 296//294 275//287
f 296//294 276//286 277//290
f 296//294 287//296 284//295
f 277//290 287//296 296//294
