# Blender 4.0.2
# www.blender.org
mtllib pisiform_l.mtl
o pisiform_l.002
v -0.009757 -0.013834 0.006187
v -0.010745 -0.014698 0.006000
v -0.012220 -0.013193 0.006523
v -0.012197 -0.015197 0.005735
v -0.008938 -0.012041 0.006810
v -0.009349 -0.008979 0.006988
v -0.013087 -0.015378 0.005694
v -0.011615 -0.015147 0.006052
v -0.013503 -0.011548 0.007431
v -0.010616 -0.015044 0.006834
v -0.008578 -0.009330 0.007292
v -0.012102 -0.006769 0.007477
v -0.008832 -0.012862 0.007623
v -0.008763 -0.013994 0.008138
v -0.009846 -0.015542 0.008294
v -0.014272 -0.014709 0.006466
v -0.009417 -0.007732 0.006800
v -0.015883 -0.010749 0.008742
v -0.014981 -0.013076 0.007936
v -0.008784 -0.012259 0.008209
v -0.012342 -0.015704 0.006241
v -0.011375 -0.016083 0.007534
v -0.011996 -0.015346 0.006592
v -0.013921 -0.006514 0.008449
v -0.008871 -0.008512 0.007235
v -0.008198 -0.009678 0.008643
v -0.011796 -0.015667 0.007305
v -0.013828 -0.015556 0.006309
v -0.014621 -0.014784 0.007417
v -0.010499 -0.006669 0.006929
v -0.012305 -0.005697 0.008282
v -0.015501 -0.013339 0.008708
v -0.008665 -0.008891 0.007967
v -0.008660 -0.013568 0.010551
v -0.012366 -0.015146 0.006798
v -0.012044 -0.016773 0.009176
v -0.012208 -0.015267 0.007404
v -0.010858 -0.006183 0.007368
v -0.011982 -0.006020 0.008108
v -0.013233 -0.005700 0.008996
v -0.009187 -0.007172 0.007294
v -0.009340 -0.008822 0.007925
v -0.016005 -0.011882 0.009124
v -0.016004 -0.010152 0.009442
v -0.008028 -0.011731 0.009223
v -0.013083 -0.015648 0.007068
v -0.012509 -0.016336 0.008506
v -0.011245 -0.016747 0.010582
v -0.012346 -0.017014 0.010490
v -0.010080 -0.014704 0.011906
v -0.011886 -0.015395 0.007605
v -0.008711 -0.008935 0.008088
v -0.009554 -0.006537 0.007078
v -0.009657 -0.007922 0.007882
v -0.008588 -0.007897 0.008962
v -0.007478 -0.009416 0.009554
v -0.012967 -0.016795 0.009426
v -0.012170 -0.015796 0.007574
v -0.014453 -0.015311 0.009069
v -0.009328 -0.009953 0.008018
v -0.008963 -0.009609 0.008384
v -0.010394 -0.006661 0.008386
v -0.011060 -0.006555 0.008582
v -0.012739 -0.005458 0.009991
v -0.015408 -0.008417 0.009565
v -0.009730 -0.008897 0.008576
v -0.014956 -0.013881 0.009704
v -0.008036 -0.007781 0.009435
v -0.008225 -0.011781 0.011380
v -0.013421 -0.015703 0.008280
v -0.012394 -0.016593 0.009977
v -0.012964 -0.015855 0.008517
v -0.013015 -0.017065 0.011212
v -0.012741 -0.016560 0.011923
v -0.011952 -0.015507 0.007809
v -0.012550 -0.014773 0.007728
v -0.011642 -0.014238 0.007316
v -0.010616 -0.014124 0.007358
v -0.011802 -0.014363 0.008034
v -0.009836 -0.009943 0.008317
v -0.009383 -0.007130 0.008315
v -0.013385 -0.005582 0.012085
v -0.014506 -0.007705 0.012849
v -0.011337 -0.005165 0.009950
v -0.009626 -0.007569 0.008656
v -0.015567 -0.012328 0.011902
v -0.015522 -0.013427 0.010927
v -0.014498 -0.015103 0.010420
v -0.007892 -0.009690 0.010788
v -0.007469 -0.008339 0.009590
v -0.012621 -0.015103 0.008316
v -0.012539 -0.016440 0.009697
v -0.012344 -0.015229 0.008196
v -0.012867 -0.016686 0.010101
v -0.013727 -0.017067 0.010862
v -0.010975 -0.013542 0.013407
v -0.011886 -0.013537 0.007802
v -0.011341 -0.015557 0.008385
v -0.010926 -0.006008 0.008921
v -0.010884 -0.005551 0.009493
v -0.010395 -0.009282 0.008445
v -0.009738 -0.008274 0.009153
v -0.014986 -0.010156 0.013815
v -0.015100 -0.014774 0.010662
v -0.014315 -0.015651 0.009737
v -0.008830 -0.008300 0.008996
v -0.008963 -0.009306 0.008890
v -0.007980 -0.009171 0.011830
v -0.008573 -0.010637 0.013626
v -0.012434 -0.015490 0.008726
v -0.013563 -0.015944 0.009475
v -0.013039 -0.013670 0.014037
v -0.010988 -0.013720 0.007764
v -0.010800 -0.012726 0.007802
v -0.010004 -0.014721 0.009181
v -0.013786 -0.015382 0.009041
v -0.009725 -0.011126 0.008288
v -0.009113 -0.011543 0.008081
v -0.008439 -0.010593 0.009269
v -0.010236 -0.006634 0.008865
v -0.009713 -0.006514 0.008455
v -0.011183 -0.006448 0.009075
v -0.010300 -0.005874 0.009245
v -0.012234 -0.004705 0.011797
v -0.010841 -0.005124 0.009997
v -0.012971 -0.006163 0.013630
v -0.015145 -0.013163 0.013100
v -0.015173 -0.012273 0.013823
v -0.007900 -0.007881 0.009514
v -0.008426 -0.007513 0.009429
v -0.008777 -0.008250 0.009146
v -0.007613 -0.008977 0.010186
v -0.007847 -0.009337 0.010827
v -0.007642 -0.008689 0.010891
v -0.008017 -0.009204 0.010848
v -0.008105 -0.009642 0.010827
v -0.012819 -0.014952 0.008577
v -0.011503 -0.015846 0.009358
v -0.012433 -0.015633 0.009260
v -0.009724 -0.013193 0.007862
v -0.011284 -0.012940 0.008242
v -0.011721 -0.013212 0.008776
v -0.010805 -0.015690 0.008980
v -0.013837 -0.015497 0.010015
v -0.010068 -0.006732 0.008945
v -0.010117 -0.006748 0.009071
v -0.010737 -0.006755 0.009173
v -0.011015 -0.004848 0.013468
v -0.010555 -0.004619 0.011016
v -0.009974 -0.004375 0.012529
v -0.011151 -0.005415 0.010001
v -0.013271 -0.008588 0.014725
v -0.008757 -0.006674 0.009488
v -0.010398 -0.008717 0.009270
v -0.010449 -0.009944 0.008554
v -0.010530 -0.010738 0.009047
v -0.010862 -0.008386 0.008657
v -0.009166 -0.006885 0.009574
v -0.008124 -0.007787 0.009751
v -0.008076 -0.006871 0.012852
v -0.007957 -0.006849 0.011307
v -0.008068 -0.008991 0.010865
v -0.007890 -0.008141 0.010603
v -0.008782 -0.009953 0.011302
v -0.007634 -0.008408 0.010187
v -0.009831 -0.011027 0.014613
v -0.011725 -0.014924 0.008798
v -0.013429 -0.016468 0.010336
v -0.012560 -0.015161 0.009787
v -0.012347 -0.015390 0.010690
v -0.011141 -0.015419 0.010855
v -0.012424 -0.015568 0.011134
v -0.014234 -0.016182 0.011999
v -0.014536 -0.013764 0.013702
v -0.012869 -0.014118 0.008187
v -0.011040 -0.012628 0.008798
v -0.013467 -0.014368 0.009584
v -0.010143 -0.011227 0.009016
v -0.009741 -0.011656 0.008172
v -0.009149 -0.011721 0.009101
v -0.011304 -0.007597 0.009308
v -0.008977 -0.006028 0.009709
v -0.010095 -0.005587 0.010030
v -0.011927 -0.007769 0.015133
v -0.010493 -0.005446 0.010564
v -0.011851 -0.006060 0.010122
v -0.011977 -0.006390 0.009789
v -0.015043 -0.014944 0.012310
v -0.013536 -0.011127 0.014894
v -0.014437 -0.015714 0.010571
v -0.007652 -0.007463 0.010148
v -0.008910 -0.008564 0.011644
v -0.007924 -0.007418 0.011260
v -0.009487 -0.009131 0.015071
v -0.012997 -0.014773 0.009259
v -0.012682 -0.015227 0.010329
v -0.010935 -0.015287 0.009770
v -0.014695 -0.015827 0.011132
v -0.013917 -0.016196 0.010586
v -0.011568 -0.011112 0.015136
v -0.011334 -0.013234 0.008760
v -0.008944 -0.012218 0.008225
v -0.013725 -0.014586 0.010258
v -0.009291 -0.012208 0.009336
v -0.010136 -0.005849 0.014238
v -0.009951 -0.005296 0.010649
v -0.011137 -0.005922 0.010785
v -0.010712 -0.008688 0.009658
v -0.010580 -0.009606 0.010304
v -0.011131 -0.010504 0.009211
v -0.011203 -0.011425 0.009345
v -0.008737 -0.008020 0.014357
v -0.008389 -0.007925 0.011106
v -0.012471 -0.013282 0.008692
v -0.009407 -0.013086 0.009783
v -0.011264 -0.014136 0.011790
v -0.010349 -0.013353 0.011557
v -0.011895 -0.012555 0.008872
v -0.013954 -0.014246 0.010161
v -0.013409 -0.014086 0.010029
v -0.009214 -0.012146 0.009065
v -0.008762 -0.011554 0.010075
v -0.009245 -0.012246 0.009280
v -0.009448 -0.012061 0.009079
v -0.010084 -0.006426 0.010008
v -0.011436 -0.007938 0.009956
v -0.010889 -0.007859 0.009744
v -0.008482 -0.005254 0.011804
v -0.011501 -0.010877 0.009959
v -0.010609 -0.011585 0.009671
v -0.014269 -0.014873 0.010989
v -0.009238 -0.009533 0.011355
v -0.007986 -0.005859 0.010807
v -0.009642 -0.012511 0.011710
v -0.013263 -0.015862 0.011123
v -0.013330 -0.015921 0.011770
v -0.011366 -0.012968 0.008795
v -0.010699 -0.013512 0.008898
v -0.010828 -0.012792 0.008966
v -0.011104 -0.011835 0.008597
v -0.012964 -0.014119 0.010220
v -0.013980 -0.013303 0.009897
v -0.009108 -0.006493 0.010058
v -0.009230 -0.005228 0.010644
v -0.008804 -0.006071 0.013678
v -0.010283 -0.005754 0.010957
v -0.009904 -0.005938 0.010859
v -0.011336 -0.010081 0.009779
v -0.013786 -0.014519 0.010952
v -0.014012 -0.015227 0.011101
v -0.009456 -0.008741 0.012455
v -0.008216 -0.007328 0.011278
v -0.008618 -0.006928 0.011316
v -0.009295 -0.007153 0.012333
v -0.009519 -0.011151 0.012068
v -0.010478 -0.012471 0.011302
v -0.010966 -0.013427 0.009364
v -0.011649 -0.012253 0.008451
v -0.010903 -0.012770 0.009142
v -0.013587 -0.012568 0.009770
v -0.011267 -0.011491 0.008956
v -0.011878 -0.008475 0.010600
v -0.011250 -0.006895 0.011068
v -0.011511 -0.007504 0.010618
v -0.010882 -0.006829 0.010983
v -0.011409 -0.009355 0.009450
v -0.011552 -0.008786 0.009874
v -0.011410 -0.012107 0.009763
v -0.014009 -0.014344 0.011839
v -0.013085 -0.014291 0.011222
v -0.010035 -0.011920 0.011904
v -0.011744 -0.012562 0.010678
v -0.013273 -0.015181 0.010805
v -0.011540 -0.013536 0.012226
v -0.012515 -0.014513 0.012616
v -0.011104 -0.012502 0.011835
v -0.013025 -0.012643 0.010888
v -0.009133 -0.006557 0.010806
v -0.008662 -0.005828 0.010298
v -0.010380 -0.006715 0.010789
v -0.012045 -0.010459 0.010029
v -0.011779 -0.011813 0.010565
v -0.013956 -0.012998 0.010843
v -0.009577 -0.007851 0.012947
v -0.009227 -0.006311 0.011688
v -0.009869 -0.011136 0.012460
v -0.010100 -0.011263 0.011937
v -0.013456 -0.015149 0.011888
v -0.012346 -0.013430 0.012472
v -0.013203 -0.014512 0.012474
v -0.011670 -0.009075 0.010762
v -0.010775 -0.007307 0.010894
v -0.010339 -0.007188 0.011137
v -0.012036 -0.010557 0.010909
v -0.013138 -0.014526 0.011470
v -0.009613 -0.009514 0.012951
v -0.009520 -0.007106 0.011983
v -0.009407 -0.010700 0.012702
v -0.012233 -0.013366 0.011566
v -0.012080 -0.012860 0.011898
v -0.012515 -0.013035 0.012264
v -0.010571 -0.011137 0.012172
v -0.012644 -0.013069 0.011537
v -0.012388 -0.009129 0.010728
v -0.011355 -0.009710 0.010604
v -0.014009 -0.013888 0.012197
v -0.014301 -0.014423 0.012175
v -0.013525 -0.014066 0.012370
v -0.009905 -0.006765 0.012535
v -0.010380 -0.007610 0.013125
v -0.011277 -0.012038 0.011030
v -0.011877 -0.011499 0.012154
v -0.011847 -0.012175 0.012610
v -0.011315 -0.011623 0.011654
v -0.013049 -0.012625 0.011254
v -0.012259 -0.012043 0.010828
v -0.011724 -0.008946 0.011934
v -0.012301 -0.009643 0.011185
v -0.010730 -0.006750 0.011975
v -0.011989 -0.011731 0.011106
v -0.010413 -0.008781 0.013360
v -0.010499 -0.006163 0.012640
v -0.010654 -0.006100 0.012078
v -0.010474 -0.007660 0.012318
v -0.010216 -0.007786 0.011888
v -0.012949 -0.013436 0.012457
v -0.011010 -0.006966 0.012386
v -0.010179 -0.010077 0.013352
v -0.010920 -0.010445 0.012906
v -0.011102 -0.010893 0.012724
v -0.013175 -0.013456 0.012841
v -0.011700 -0.008197 0.012542
v -0.011976 -0.010841 0.011407
v -0.010663 -0.008504 0.013074
v -0.013326 -0.013319 0.012690
v -0.013388 -0.013298 0.012855
v -0.013315 -0.013367 0.012944
v -0.011938 -0.009119 0.012448
v -0.011016 -0.008413 0.012717
v -0.013137 -0.013039 0.012959
v -0.010212 -0.008997 0.012491
v -0.011754 -0.008513 0.013143
v -0.011498 -0.009065 0.013045
v -0.012162 -0.009141 0.012965
vn 0.4769 -0.1439 -0.8671
vn 0.3648 -0.3460 -0.8644
vn -0.1400 0.3151 -0.9387
vn 0.1884 -0.2345 -0.9537
vn 0.6665 -0.0010 -0.7455
vn 0.1466 0.0341 -0.9886
vn -0.2102 -0.3257 -0.9218
vn 0.3840 -0.8402 -0.3829
vn -0.3669 0.2180 -0.9043
vn 0.4769 -0.7310 -0.4880
vn 0.8085 0.1545 -0.5678
vn 0.9722 -0.0305 -0.2323
vn 0.8865 -0.4071 -0.2200
vn 0.6659 -0.7185 -0.2008
vn -0.7153 0.0281 -0.6982
vn -0.3304 0.2885 -0.8987
vn 0.2964 0.0420 -0.9541
vn -0.7925 0.1166 -0.5986
vn 0.3120 -0.9469 -0.0781
vn 0.1153 -0.8536 -0.5080
vn 0.0925 -0.9956 0.0118
vn -0.7285 0.0957 -0.6783
vn 0.8995 0.3023 -0.3156
vn 0.8810 0.0618 -0.4691
vn 0.9136 0.1739 -0.3676
vn -0.5608 -0.7511 -0.3484
vn -0.8379 -0.4929 -0.2346
vn -0.1530 0.2763 -0.9488
vn 0.0256 0.9335 -0.3578
vn -0.0459 0.8192 -0.5717
vn -0.6711 0.5245 -0.5240
vn -0.9158 -0.3125 -0.2525
vn 0.6087 0.7783 0.1540
vn 0.8661 -0.4469 0.2240
vn 0.9552 -0.1793 -0.2353
vn 0.0500 -0.9926 0.1107
vn 0.1160 -0.9707 0.2105
vn 0.0351 -0.9606 -0.2759
vn 0.4990 -0.8430 0.2006
vn -0.6748 -0.6705 -0.3085
vn 0.0411 -0.7436 0.6673
vn 0.5150 0.7113 -0.4784
vn 0.6751 0.6364 0.3733
vn -0.5226 0.8387 -0.1529
vn 0.5792 0.3265 0.7469
vn -0.9683 -0.1271 -0.2151
vn -0.9756 0.2038 -0.0815
vn -0.8943 0.4246 -0.1414
vn -0.6391 -0.6448 -0.4193
vn 0.0388 -0.9826 -0.1817
vn 0.6440 -0.5387 0.5433
vn -0.6925 0.4409 0.5710
vn 0.9611 0.2552 -0.1061
vn 0.8996 -0.0171 0.4363
vn -0.1592 0.6761 -0.7194
vn -0.9298 0.2774 -0.2420
vn 0.9710 -0.0256 -0.2375
vn -0.5631 -0.3160 -0.7636
vn -0.6406 -0.7665 -0.0445
vn -0.0294 0.0171 0.9994
vn -0.9450 0.1511 0.2900
vn 0.8121 0.4850 0.3245
vn -0.0751 0.7551 0.6513
vn -0.4673 0.8705 -0.1543
vn 0.6664 -0.2636 0.6974
vn -0.8545 -0.5171 -0.0503
vn 0.6326 0.5580 -0.5371
vn 0.9042 -0.3160 0.2874
vn -0.1420 -0.9614 -0.2359
vn -0.8927 0.0522 -0.4477
vn -0.3477 -0.9100 -0.2257
vn 0.0951 -0.5151 -0.8518
vn 0.1479 -0.7212 0.6768
vn 0.3548 -0.2665 0.8961
vn 0.9140 -0.3824 0.1353
vn -0.3789 0.1362 0.9154
vn 0.9699 -0.1380 -0.2007
vn 0.9984 -0.0455 -0.0328
vn -0.6934 0.7026 0.1599
vn -0.8327 0.4131 0.3688
vn 0.0759 0.9651 -0.2506
vn 0.6155 -0.3108 0.7243
vn 0.4511 0.0157 0.8923
vn -0.9787 -0.0772 0.1903
vn -0.9634 -0.2667 0.0262
vn -0.5819 -0.8128 0.0274
vn -0.9601 0.2647 -0.0905
vn 0.9075 0.0695 0.4142
vn 0.8666 0.1359 -0.4801
vn 0.1611 -0.9419 0.2946
vn 0.1062 0.4370 0.8932
vn -0.6660 -0.2702 -0.6953
vn 0.0262 -0.9395 0.3414
vn 0.0928 -0.8791 -0.4675
vn 0.4525 -0.5241 0.7215
vn -0.1456 0.8092 -0.5693
vn 0.6662 -0.4417 0.6009
vn 0.1326 0.9049 0.4044
vn -0.9543 -0.0151 0.2984
vn 0.3023 0.8809 -0.3643
vn -0.3952 0.9182 0.0274
vn 0.5526 0.8145 0.1765
vn 0.6451 -0.2800 0.7110
vn 0.5434 0.0915 0.8345
vn -0.8164 0.1768 0.5497
vn -0.8364 -0.4260 -0.3448
vn -0.3596 -0.8141 -0.4559
vn 0.9766 -0.0845 0.1978
vn 0.3695 0.1252 0.9208
vn -0.8108 0.5791 0.0849
vn -0.9847 -0.1494 0.0893
vn -0.4870 -0.8531 -0.1870
vn 0.8237 -0.3165 0.4705
vn 0.0245 -0.4927 0.8698
vn 0.0029 -0.2316 0.9728
vn 0.3211 -0.5428 0.7761
vn -0.8123 0.5777 -0.0800
vn -0.2743 -0.8673 0.4153
vn 0.7784 -0.1905 0.5982
vn -0.6049 0.0446 0.7950
vn -0.9291 0.2150 0.3008
vn -0.6405 -0.3197 -0.6983
vn -0.5056 -0.7439 0.4369
vn 0.6742 -0.4680 0.5713
vn 0.4020 0.4176 -0.8149
vn -0.5447 0.5785 0.6072
vn 0.5144 0.4311 -0.7413
vn 0.6993 0.1060 0.7069
vn -0.9075 -0.2582 0.3313
vn -0.7960 -0.1275 0.5917
vn 0.5435 0.6471 -0.5346
vn -0.2968 0.9461 0.1294
vn -0.8239 0.0721 0.5621
vn -0.5948 0.5536 0.5829
vn 0.8443 0.2893 -0.4512
vn 0.0955 0.2095 -0.9731
vn 0.9333 -0.2182 -0.2852
vn 0.8039 -0.0704 0.5905
vn -0.2443 0.9159 0.3185
vn 0.3320 0.8417 0.4259
vn -0.4959 -0.6868 0.5314
vn 0.4757 -0.4219 0.7718
vn 0.6068 -0.7943 -0.0307
vn 0.2842 -0.6166 0.7342
vn -0.5692 0.8084 0.1497
vn -0.5724 0.1742 0.8013
vn 0.7346 -0.5415 -0.4089
vn 0.1976 0.7706 -0.6059
vn -0.4621 -0.8839 0.0722
vn -0.1445 0.7918 0.5934
vn 0.1006 0.8985 -0.4274
vn 0.2458 0.9465 0.2089
vn 0.8894 -0.4520 -0.0686
vn -0.5222 0.2544 0.8140
vn 0.9705 -0.2408 -0.0139
vn 0.6982 0.3519 0.6235
vn 0.4048 0.6040 0.6865
vn 0.1899 -0.9173 0.3499
vn -0.7417 0.5115 -0.4340
vn 0.9387 0.1680 0.3009
vn -0.5735 -0.1428 -0.8067
vn 0.1814 0.2584 -0.9488
vn -0.5936 0.1432 -0.7919
vn 0.2664 0.0159 0.9637
vn 0.4272 0.5761 0.6968
vn -0.5826 0.6631 -0.4699
vn -0.8229 -0.1157 -0.5563
vn 0.8723 0.4881 0.0292
vn 0.8002 0.5840 0.1363
vn -0.2344 0.9228 -0.3058
vn -0.4769 -0.4282 0.7676
vn 0.8246 -0.0051 0.5658
vn 0.3154 0.2804 0.9066
vn 0.7781 -0.4469 0.4413
vn 0.3722 0.3923 0.8412
vn 0.7623 -0.1588 0.6275
vn 0.0539 -0.1578 0.9860
vn -0.8770 0.4060 0.2570
vn 0.8656 0.3544 0.3536
vn 0.4074 -0.9089 0.0888
vn 0.7501 0.5048 -0.4272
vn -0.1703 0.2861 0.9429
vn 0.5039 -0.3378 -0.7950
vn 0.8619 -0.4655 -0.2010
vn 0.9551 -0.1371 0.2626
vn -0.8392 -0.4124 0.3545
vn -0.3295 -0.1011 0.9387
vn -0.7025 0.7086 0.0666
vn 0.2313 0.8381 0.4940
vn -0.7447 0.2258 -0.6281
vn 0.8949 -0.1752 -0.4104
vn 0.9139 0.3067 -0.2660
vn 0.4378 -0.0223 0.8988
vn 0.4319 0.7716 0.4671
vn -0.2635 0.9146 0.3068
vn -0.6994 0.6678 -0.2547
vn -0.8426 -0.4739 -0.2558
vn -0.1993 -0.4164 -0.8871
vn 0.0819 -0.2666 0.9603
vn -0.5108 -0.8364 -0.1988
vn -0.9446 0.0498 0.3244
vn -0.8995 0.4006 -0.1745
vn 0.3031 0.9495 0.0811
vn -0.9198 0.3858 -0.0718
vn -0.9475 0.2749 0.1633
vn -0.5952 -0.6266 0.5030
vn -0.5474 0.8367 -0.0184
vn 0.1941 0.5209 0.8313
vn 0.4651 -0.5088 -0.7244
vn -0.3069 0.4340 -0.8470
vn 0.5345 0.4275 0.7291
vn 0.3497 -0.0945 0.9321
vn 0.7091 -0.1880 0.6795
vn 0.6626 -0.4198 0.6202
vn 0.7195 0.1232 0.6834
vn -0.6158 0.1775 -0.7676
vn 0.5420 -0.6117 0.5762
vn 0.3475 0.8887 -0.2990
vn 0.8741 -0.3938 0.2845
vn 0.8479 0.1610 0.5052
vn -0.4503 -0.5677 0.6892
vn -0.9186 -0.2565 -0.3007
vn -0.8722 0.0749 0.4834
vn 0.7996 0.1540 0.5804
vn 0.7791 0.5354 0.3261
vn 0.6948 0.7168 0.0594
vn 0.3183 0.8258 -0.4655
vn 0.2213 -0.3962 0.8911
vn 0.5937 -0.5495 -0.5878
vn -0.7204 0.2647 -0.6411
vn -0.5655 0.1311 -0.8143
vn 0.6340 0.4691 0.6148
vn 0.8253 0.3211 -0.4646
vn -0.5939 0.4185 -0.6871
vn -0.5563 0.3749 -0.7417
vn -0.4293 0.2675 -0.8626
vn 0.6811 -0.7132 -0.1660
vn 0.9612 0.2331 -0.1472
vn -0.1919 -0.3910 0.9002
vn -0.9363 -0.1353 -0.3242
vn 0.6761 -0.5430 -0.4980
vn 0.7401 -0.0280 0.6719
vn 0.7366 0.2387 -0.6328
vn -0.0007 -0.3848 -0.9230
vn -0.6606 -0.5738 -0.4841
vn 0.8511 0.1531 0.5022
vn 0.1359 -0.0672 0.9884
vn 0.1100 0.9258 -0.3617
vn -0.8494 0.0854 -0.5208
vn -0.4574 -0.4877 -0.7436
vn 0.0630 0.2058 -0.9766
vn -0.6236 -0.4656 -0.6279
vn -0.6947 0.4230 -0.5818
vn 0.9344 -0.3426 0.0979
vn 0.9232 -0.3353 -0.1879
vn 0.4104 0.8363 -0.3636
vn 0.0791 0.3316 -0.9401
vn -0.2723 0.3604 -0.8921
vn -0.0180 -0.4903 0.8714
vn -0.5386 0.2811 0.7943
vn 0.4367 -0.1788 0.8817
vn 0.0707 0.4658 0.8821
vn -0.0222 -0.7134 0.7004
vn 0.2494 -0.8993 0.3593
vn 0.9384 -0.3265 0.1134
vn 0.9855 -0.1690 -0.0147
vn 0.6720 -0.0414 0.7394
vn 0.7091 -0.4264 -0.5615
vn 0.1500 0.0044 0.9887
vn 0.7801 -0.1669 0.6030
vn 0.6498 0.7601 -0.0073
vn 0.4107 0.3133 0.8563
vn -0.0406 0.2803 -0.9591
vn 0.8460 -0.4878 -0.2152
vn -0.4128 -0.2524 -0.8751
vn 0.1965 -0.0204 -0.9803
vn -0.3053 -0.7302 0.6113
vn -0.1692 -0.9826 -0.0759
vn -0.4950 -0.4728 -0.7290
vn 0.4489 -0.0259 -0.8932
vn 0.8946 0.1871 0.4058
vn 0.9788 0.1797 0.0982
vn 0.8194 -0.5505 -0.1596
vn -0.6544 -0.1343 -0.7442
vn -0.1845 -0.8196 -0.5424
vn -0.8044 0.3661 -0.4679
vn 0.9868 0.0638 -0.1489
vn -0.2873 -0.4009 -0.8699
vn 0.1878 -0.9516 0.2432
vn 0.4494 0.3112 -0.8374
vn 0.9254 0.1617 0.3427
vn 0.5771 0.3524 0.7367
vn -0.4924 -0.8388 -0.2322
vn 0.1254 -0.8383 -0.5307
vn 0.9338 0.2482 0.2576
vn -0.7394 -0.1097 -0.6642
vn 0.6016 -0.7697 -0.2135
vn -0.1033 0.5215 -0.8470
vn -0.1081 0.8463 -0.5217
vn -0.9317 0.3515 0.0913
vn 0.1415 -0.4948 -0.8574
vn -0.0181 0.6547 -0.7557
vn -0.5758 0.1655 0.8007
vn 0.8238 0.1714 0.5403
vn 0.9502 -0.1774 0.2560
vn 0.9836 0.0458 -0.1747
vn 0.7394 -0.3759 -0.5586
vn 0.5910 -0.7741 -0.2270
vn 0.3854 0.1997 -0.9009
vn -0.6987 -0.7064 -0.1134
vn 0.0746 -0.2673 -0.9607
vn 0.8751 0.1282 -0.4667
vn -0.3257 0.0407 -0.9446
vn 0.5119 -0.3249 -0.7952
vn 0.2329 0.7951 -0.5601
vn -0.1232 -0.2899 0.9491
vn 0.8694 -0.0281 -0.4933
vn 0.1313 -0.6729 0.7280
vn 0.0589 -0.9862 -0.1544
vn 0.7515 0.4026 0.5227
vn 0.7949 0.5691 -0.2104
vn 0.1163 -0.0755 -0.9903
vn 0.0109 -0.8447 -0.5351
vn 0.1864 -0.8138 0.5505
vn -0.4448 -0.6759 0.5876
vn -0.0770 0.2477 -0.9658
vn 0.1319 -0.7039 -0.6980
vn 0.9964 0.0752 0.0385
vn 0.8036 0.1777 -0.5680
vn 0.2877 -0.0304 -0.9572
vn 0.8147 -0.5631 -0.1387
vn 0.8870 -0.4524 0.0924
vn 0.8301 0.0813 -0.5517
vn 0.1961 0.3574 -0.9131
vn 0.9970 0.0403 0.0668
vn 0.5964 0.7930 0.1241
vn 0.5964 0.7928 0.1255
vn 0.4605 0.7230 0.5150
vn 0.2002 0.4148 -0.8876
vn -0.5814 -0.5771 0.5735
vn 0.9459 0.1372 -0.2941
vn 0.2532 -0.4812 -0.8392
vn -0.5154 0.6794 -0.5223
vn 0.7877 0.5091 -0.3468
s 1
f 1//1 2//2 3//3
f 3//3 2//2 4//4
f 5//5 3//3 6//6
f 1//1 3//3 5//5
f 3//3 4//4 7//7
f 2//2 8//8 4//4
f 3//3 9//9 6//6
f 2//2 10//10 8//8
f 11//11 5//5 6//6
f 5//5 11//11 13//12
f 13//12 14//13 5//5
f 2//2 1//1 10//10
f 1//1 15//14 10//10
f 15//14 1//1 14//13
f 16//15 9//9 3//3
f 3//3 7//7 16//15
f 6//6 12//16 17//17
f 12//16 6//6 9//9
f 18//18 12//16 9//9
f 5//5 14//13 1//1
f 21//19 7//7 4//4
f 21//19 4//4 8//8
f 10//10 15//14 22//20
f 10//10 23//21 8//8
f 10//10 22//20 23//21
f 19//22 9//9 16//15
f 25//23 6//6 17//17
f 11//11 6//6 25//23
f 19//22 18//18 9//9
f 13//12 11//11 26//24
f 26//24 20//25 13//12
f 7//7 21//19 28//26
f 23//21 21//19 8//8
f 16//15 7//7 28//26
f 16//15 29//27 19//22
f 30//28 12//16 38//29
f 31//30 38//29 24//31
f 24//31 38//29 12//16
f 12//16 18//18 24//31
f 18//18 19//22 32//32
f 26//24 11//11 33//33
f 34//34 15//14 14//13
f 13//12 45//35 14//13
f 13//12 20//25 45//35
f 28//26 21//19 46//36
f 35//37 21//19 23//21
f 22//20 15//14 36//38
f 48//39 15//14 34//34
f 35//37 27//40 37//41
f 23//21 27//40 35//37
f 22//20 27//40 23//21
f 28//26 29//27 16//15
f 32//32 19//22 29//27
f 11//11 25//23 33//33
f 12//16 30//28 17//17
f 17//17 30//28 53//42
f 38//29 31//30 39//43
f 31//30 24//31 40//44
f 33//33 25//23 42//45
f 32//32 43//46 18//18
f 43//46 44//47 18//18
f 24//31 18//18 65//48
f 45//35 20//25 26//24
f 45//35 34//34 14//13
f 46//36 21//19 35//37
f 22//20 36//38 47//49
f 48//39 49//50 36//38
f 36//38 15//14 48//39
f 50//51 48//39 34//34
f 37//41 27//40 51//52
f 17//17 53//42 41//53
f 17//17 41//53 25//23
f 25//23 41//53 42//45
f 42//45 41//53 54//54
f 44//47 65//48 18//18
f 26//24 33//33 55//55
f 33//33 52//56 55//55
f 45//35 26//24 56//57
f 29//27 28//26 46//36
f 27//40 22//20 47//49
f 27//40 58//58 51//52
f 37//41 46//36 35//37
f 58//58 27//40 47//49
f 59//59 32//32 29//27
f 60//60 33//33 42//45
f 33//33 60//60 61//61
f 38//29 53//42 30//28
f 63//62 38//29 39//43
f 62//63 38//29 63//62
f 65//48 40//44 24//31
f 40//44 65//48 64//64
f 31//30 40//44 64//64
f 66//65 42//45 54//54
f 67//66 32//32 59//59
f 68//67 56//57 26//24
f 55//55 68//67 26//24
f 34//34 45//35 69//68
f 56//57 69//68 45//35
f 59//59 46//36 70//69
f 46//36 59//59 29//27
f 49//50 71//70 36//38
f 57//71 36//38 71//70
f 72//72 36//38 57//71
f 47//49 36//38 72//72
f 50//51 74//73 48//39
f 34//34 69//68 50//51
f 37//41 77//74 76//75
f 77//74 37//41 78//76
f 51//52 78//76 37//41
f 79//77 76//75 77//74
f 81//78 54//54 41//53
f 41//53 53//42 81//78
f 38//29 62//63 53//42
f 64//64 65//48 82//79
f 82//79 65//48 83//80
f 84//81 31//30 64//64
f 54//54 85//82 66//65
f 66//65 60//60 42//45
f 60//60 66//65 80//83
f 44//47 43//46 86//84
f 87//85 43//46 32//32
f 86//84 43//46 87//85
f 67//66 59//59 88//86
f 32//32 67//66 87//85
f 106//87 55//55 52//56
f 56//57 89//88 69//68
f 56//57 68//67 90//89
f 46//36 37//41 91//90
f 91//90 70//69 46//36
f 92//91 57//71 71//70
f 93//92 58//58 47//49
f 49//50 48//39 73//93
f 71//70 49//50 94//94
f 48//39 74//73 73//93
f 50//51 96//95 74//73
f 69//68 96//95 50//51
f 58//58 93//92 75//96
f 91//90 37//41 76//75
f 79//77 77//74 97//97
f 78//76 51//52 98//98
f 52//56 61//61 107//99
f 107//99 106//87 52//56
f 81//78 53//42 121//100
f 39//43 31//30 63//62
f 84//81 64//64 124//101
f 100//102 31//30 84//81
f 85//82 54//54 81//78
f 66//65 101//103 80//83
f 85//82 102//104 66//65
f 103//105 44//47 86//84
f 83//80 65//48 44//47
f 67//66 88//86 104//106
f 88//86 59//59 105//107
f 89//88 108//108 69//68
f 56//57 132//109 89//88
f 70//69 91//90 72//72
f 47//49 110//110 93//92
f 110//110 47//49 72//72
f 72//72 57//71 111//111
f 49//50 73//93 95//112
f 96//95 69//68 109//113
f 96//95 112//114 74//73
f 75//96 93//92 79//77
f 79//77 98//98 75//96
f 51//52 75//96 98//98
f 78//76 113//115 77//74
f 79//77 93//92 76//75
f 93//92 91//90 76//75
f 97//97 77//74 114//116
f 77//74 113//115 114//116
f 98//98 115//117 78//76
f 59//59 70//69 116//118
f 117//119 60//60 80//83
f 60//60 118//120 61//61
f 118//120 119//121 61//61
f 120//122 62//63 145//123
f 62//63 120//122 121//100
f 121//100 53//42 62//63
f 122//124 63//62 99//125
f 99//125 63//62 31//30
f 100//102 99//125 31//30
f 126//126 124//101 82//79
f 64//64 82//79 124//101
f 124//101 125//127 84//81
f 126//126 82//79 83//80
f 126//126 83//80 103//105
f 83//80 44//47 103//105
f 102//104 101//103 66//65
f 101//103 155//128 80//83
f 87//85 127//129 86//84
f 128//130 103//105 86//84
f 67//66 104//106 87//85
f 68//67 129//131 90//89
f 55//55 130//132 68//67
f 131//133 130//132 55//55
f 107//99 131//133 106//87
f 131//133 107//99 159//134
f 132//109 56//57 90//89
f 69//68 108//108 109//113
f 133//135 108//108 89//88
f 135//136 108//108 133//135
f 108//108 135//136 134//137
f 70//69 72//72 111//111
f 70//69 111//111 116//118
f 91//90 137//138 72//72
f 71//70 138//139 92//91
f 94//94 57//71 92//91
f 94//94 92//91 139//140
f 138//139 139//140 92//91
f 91//90 93//92 110//110
f 94//94 49//50 95//112
f 74//73 173//141 73//93
f 173//141 95//112 73//93
f 96//95 109//113 166//142
f 96//95 166//142 112//114
f 141//143 97//97 114//116
f 142//144 97//97 141//143
f 138//139 143//145 98//98
f 115//117 140//146 78//76
f 116//118 144//147 59//59
f 62//63 85//82 145//123
f 120//122 123//148 121//100
f 99//125 120//122 122//124
f 120//122 99//125 123//148
f 120//122 147//149 122//124
f 100//102 123//148 99//125
f 126//126 148//150 124//101
f 149//151 124//101 150//152
f 124//101 149//151 125//127
f 151//153 100//102 84//81
f 103//105 152//154 126//126
f 121//100 153//155 81//78
f 102//104 154//156 101//103
f 155//128 101//103 154//156
f 102//104 85//82 154//156
f 85//82 157//157 154//156
f 158//158 145//123 85//82
f 81//78 158//158 85//82
f 127//129 128//130 86//84
f 68//67 130//132 159//134
f 159//134 130//132 131//133
f 135//136 133//135 136//159
f 160//160 109//113 108//108
f 162//161 163//162 134//137
f 135//136 136//159 164//163
f 89//88 132//109 136//159
f 90//89 165//164 132//109
f 91//90 110//110 167//165
f 137//138 91//90 167//165
f 171//166 138//139 71//70
f 57//71 94//94 168//167
f 94//94 95//112 168//167
f 94//94 139//140 169//168
f 111//111 57//71 168//167
f 110//110 72//72 139//140
f 72//72 137//138 169//168
f 139//140 72//72 169//168
f 71//70 94//94 170//169
f 71//70 170//169 172//170
f 74//73 112//114 173//141
f 112//114 174//171 173//141
f 79//77 167//165 98//98
f 78//76 140//146 114//116
f 113//115 78//76 114//116
f 167//165 97//97 175//172
f 167//165 79//77 97//97
f 97//97 142//144 175//172
f 141//143 114//116 176//173
f 98//98 167//165 138//139
f 115//117 98//98 143//145
f 144//147 105//107 59//59
f 144//147 116//118 177//174
f 80//83 155//128 156//175
f 80//83 156//175 178//176
f 178//176 117//119 80//83
f 179//177 60//60 117//119
f 118//120 60//60 179//177
f 118//120 180//178 119//121
f 61//61 119//121 107//99
f 157//157 63//62 181//179
f 62//63 63//62 157//157
f 62//63 157//157 85//82
f 120//122 146//180 147//149
f 182//181 121//100 123//148
f 122//124 181//179 63//62
f 148//150 126//126 184//182
f 150//152 124//101 148//150
f 125//127 185//183 151//153
f 186//184 187//185 151//153
f 151//153 187//185 100//102
f 185//183 125//127 149//151
f 126//126 152//154 184//182
f 158//158 81//78 153//155
f 127//129 87//85 188//186
f 87//85 104//106 188//186
f 103//105 189//187 152//154
f 189//187 103//105 128//130
f 88//86 105//107 190//188
f 159//134 191//189 129//131
f 191//189 90//89 129//131
f 132//109 107//99 119//121
f 159//134 107//99 132//109
f 135//136 164//163 192//190
f 192//190 162//161 135//136
f 161//191 160//160 108//108
f 193//192 161//191 108//108
f 108//108 134//137 193//192
f 166//142 109//113 194//193
f 195//194 116//118 111//111
f 94//94 169//168 170//169
f 167//165 110//110 139//140
f 137//138 195//194 169//168
f 196//195 111//111 168//167
f 196//195 195//194 111//111
f 171//166 197//196 138//139
f 171//166 71//70 172//170
f 95//112 173//141 198//197
f 199//198 168//167 95//112
f 200//199 112//114 166//142
f 173//141 174//171 188//186
f 117//119 114//116 179//177
f 201//200 142//144 141//143
f 115//117 202//201 140//146
f 202//201 115//117 215//202
f 144//147 177//174 203//203
f 140//146 118//120 179//177
f 140//146 202//201 118//120
f 119//121 222//204 136//159
f 204//205 222//204 119//121
f 204//205 119//121 180//178
f 225//206 146//180 145//123
f 146//180 225//206 147//149
f 121//100 182//181 153//155
f 123//148 183//207 182//181
f 187//185 181//179 122//124
f 122//124 147//149 100//102
f 100//102 183//207 123//148
f 184//182 205//208 148//150
f 185//183 207//209 151//153
f 151//153 207//209 186//184
f 187//185 122//124 100//102
f 149//151 206//210 185//183
f 208//211 154//156 157//157
f 209//212 155//128 154//156
f 209//212 210//213 155//128
f 211//214 156//175 210//213
f 210//213 156//175 155//128
f 188//186 174//171 127//129
f 174//171 128//130 127//129
f 104//106 198//197 188//186
f 104//106 88//86 198//197
f 88//86 190//188 203//203
f 191//189 165//164 90//89
f 159//134 132//109 165//164
f 109//113 212//215 194//193
f 109//113 160//160 212//215
f 213//216 162//161 192//190
f 163//162 162//161 213//216
f 193//192 134//137 163//162
f 136//159 132//109 119//121
f 136//159 222//204 164//163
f 166//142 194//193 200//199
f 175//172 137//138 167//165
f 137//138 177//174 195//194
f 214//217 177//174 137//138
f 175//172 214//217 137//138
f 138//139 167//165 139//140
f 195//194 196//195 169//168
f 172//170 170//169 196//195
f 235//218 172//170 196//195
f 171//166 215//202 197//196
f 196//195 170//169 169//168
f 199//198 95//112 198//197
f 173//141 188//186 198//197
f 112//114 189//187 174//171
f 114//116 140//146 179//177
f 175//172 142//144 214//217
f 176//173 114//116 117//119
f 176//173 117//119 178//176
f 218//219 214//217 142//144
f 197//196 143//145 138//139
f 143//145 197//196 115//117
f 177//174 116//118 195//194
f 199//198 105//107 144//147
f 203//203 177//174 219//220
f 219//220 177//174 220//221
f 118//120 202//201 221//222
f 180//178 118//120 221//222
f 180//178 224//223 204//205
f 158//158 225//206 145//123
f 187//185 226//224 181//179
f 181//179 226//224 227//225
f 100//102 147//149 225//206
f 194//193 205//208 184//182
f 148//150 205//208 150//152
f 228//226 244//227 150//152
f 150//152 244//227 149//151
f 244//227 206//210 149//151
f 184//182 152//154 189//187
f 209//212 154//156 208//211
f 178//176 156//175 230//228
f 156//175 211//214 230//228
f 174//171 189//187 128//130
f 231//229 198//197 88//86
f 88//86 203//203 231//229
f 250//230 190//188 198//197
f 191//189 159//134 165//164
f 164//163 232//231 192//190
f 212//215 160//160 245//232
f 161//191 233//233 160//160
f 213//216 193//192 163//162
f 234//234 164//163 222//204
f 200//199 194//193 184//182
f 196//195 168//167 235//218
f 168//167 199//198 235//218
f 215//202 115//117 197//196
f 172//170 216//235 171//166
f 217//236 171//166 216//235
f 105//107 199//198 198//197
f 189//187 112//114 200//199
f 184//182 189//187 200//199
f 141//143 238//237 201//200
f 176//173 239//238 141//143
f 141//143 239//238 238//237
f 176//173 178//176 240//239
f 221//222 202//201 215//202
f 221//222 215//202 223//240
f 241//241 144//147 203//203
f 203//203 220//221 241//241
f 220//221 242//242 219//220
f 178//176 230//228 240//239
f 223//240 224//223 221//222
f 204//205 215//202 222//204
f 215//202 234//234 222//204
f 215//202 204//205 223//240
f 157//157 181//179 208//211
f 181//179 227//225 208//211
f 244//227 182//181 183//207
f 100//102 225//206 183//207
f 205//208 245//232 150//152
f 228//226 279//243 244//227
f 228//226 150//152 245//232
f 185//183 246//244 207//209
f 246//244 185//183 206//210
f 206//210 247//245 246//244
f 210//213 229//246 211//214
f 210//213 209//212 248//247
f 219//220 249//248 231//229
f 231//229 203//203 219//220
f 203//203 190//188 249//248
f 105//107 198//197 190//188
f 198//197 231//229 250//230
f 192//190 251//249 213//216
f 245//232 160//160 228//226
f 253//250 161//191 252//251
f 193//192 213//216 252//251
f 213//216 251//249 254//252
f 164//163 234//234 255//253
f 177//174 214//217 268//254
f 199//198 144//147 273//255
f 236//256 172//170 235//218
f 215//202 171//166 217//236
f 234//234 215//202 217//236
f 216//235 256//257 217//236
f 216//235 172//170 236//256
f 275//258 216//235 236//256
f 201//200 257//259 237//260
f 258//261 142//144 237//260
f 237//260 259//262 176//173
f 259//262 237//260 257//259
f 176//173 258//261 237//260
f 240//239 258//261 176//173
f 142//144 258//261 218//219
f 214//217 218//219 268//254
f 241//241 220//221 177//174
f 144//147 241//241 273//255
f 242//242 220//221 260//263
f 240//239 230//228 261//264
f 153//155 182//181 243//265
f 183//207 225//206 247//245
f 183//207 247//245 206//210
f 264//266 226//224 187//185
f 264//266 262//267 226//224
f 227//225 226//224 208//211
f 205//208 194//193 212//215
f 245//232 205//208 212//215
f 228//226 233//233 279//243
f 206//210 244//227 183//207
f 263//268 186//184 207//209
f 186//184 263//268 264//266
f 187//185 186//184 264//266
f 153//155 243//265 158//158
f 208//211 266//269 209//212
f 266//269 248//247 209//212
f 208//211 226//224 267//270
f 266//269 208//211 267//270
f 248//247 229//246 210//213
f 211//214 261//264 230//228
f 250//230 231//229 249//248
f 249//248 219//220 269//271
f 190//188 250//230 249//248
f 203//203 249//248 270//272
f 233//233 228//226 160//160
f 252//251 213//216 253//250
f 253//250 213//216 254//252
f 255//253 232//231 164//163
f 271//273 255//253 234//234
f 255//253 251//249 232//231
f 272//274 241//241 177//174
f 268//254 272//274 177//174
f 273//255 236//256 235//218
f 199//198 273//255 235//218
f 274//275 216//235 275//258
f 276//276 216//235 274//275
f 271//273 234//234 217//236
f 256//257 271//273 217//236
f 257//259 201//200 238//237
f 238//237 239//238 259//262
f 257//259 238//237 259//262
f 218//219 211//214 268//254
f 261//264 211//214 218//219
f 220//221 277//277 260//263
f 225//206 278//278 247//245
f 225//206 158//158 278//278
f 278//278 158//158 243//265
f 243//265 182//181 279//243
f 279//243 182//181 244//227
f 267//270 226//224 262//267
f 207//209 246//244 263//268
f 265//279 246//244 280//280
f 229//246 248//247 281//281
f 282//282 268//254 211//214
f 229//246 282//282 211//214
f 219//220 283//283 269//271
f 269//271 270//272 249//248
f 220//221 203//203 270//272
f 251//249 192//190 232//231
f 161//191 253//250 278//278
f 161//191 279//243 233//233
f 161//191 278//278 279//243
f 254//252 251//249 284//284
f 285//285 253//250 254//252
f 251//249 255//253 298//286
f 273//255 288//287 236//256
f 276//276 256//257 216//235
f 274//275 289//288 299//289
f 290//290 275//258 236//256
f 240//239 261//264 258//261
f 218//219 258//261 261//264
f 295//291 273//255 270//272
f 283//283 219//220 242//242
f 220//221 270//272 277//277
f 241//241 272//274 273//255
f 291//292 267//270 262//267
f 246//244 265//279 263//268
f 265//279 280//280 292//293
f 293//294 280//280 246//244
f 247//245 293//294 246//244
f 285//285 293//294 247//245
f 281//281 266//269 267//270
f 266//269 281//281 248//247
f 229//246 281//281 294//295
f 295//291 270//272 269//271
f 296//296 251//249 298//286
f 278//278 253//250 285//285
f 278//278 243//265 279//243
f 254//252 297//297 285//285
f 287//298 255//253 271//273
f 287//298 286//299 255//253
f 255//253 286//299 298//286
f 272//274 270//272 273//255
f 270//272 272//274 299//289
f 295//291 288//287 273//255
f 274//275 275//258 289//288
f 299//289 276//276 274//275
f 300//300 299//289 289//288
f 301//301 300//300 289//288
f 271//273 276//276 302//302
f 276//276 271//273 256//257
f 288//287 290//290 236//256
f 303//303 277//277 270//272
f 260//263 277//277 283//283
f 263//268 304//304 264//266
f 304//304 262//267 264//266
f 262//267 304//304 291//292
f 265//279 292//293 293//294
f 280//280 293//294 292//293
f 278//278 285//285 247//245
f 281//281 267//270 305//305
f 333//306 229//246 294//295
f 229//246 333//306 282//282
f 272//274 268//254 282//282
f 269//271 283//283 306//307
f 306//307 283//283 315//308
f 308//309 295//291 269//271
f 270//272 299//289 303//303
f 309//310 297//297 254//252
f 254//252 284//284 310//311
f 309//310 254//252 310//311
f 272//274 282//282 311//312
f 313//313 301//301 312//314
f 300//300 301//301 313//313
f 314//315 302//302 276//276
f 288//287 308//309 290//290
f 295//291 308//309 288//287
f 315//308 277//277 316//316
f 277//277 315//308 283//283
f 283//283 242//242 260//263
f 263//268 317//317 304//304
f 305//305 267//270 291//292
f 319//318 263//268 265//279
f 265//279 293//294 319//318
f 293//294 297//297 325//319
f 293//294 285//285 297//297
f 305//305 294//295 281//281
f 282//282 333//306 320//320
f 306//307 307//321 269//271
f 251//249 296//296 321//322
f 322//323 323//324 309//310
f 297//297 309//310 324//325
f 323//324 319//318 309//310
f 324//325 309//310 319//318
f 325//319 297//297 324//325
f 302//302 286//299 287//298
f 271//273 302//302 287//298
f 298//286 328//326 296//296
f 299//289 272//274 276//276
f 301//301 289//288 326//327
f 300//300 303//303 299//289
f 276//276 311//312 314//315
f 277//277 303//303 316//316
f 316//316 303//303 300//300
f 263//268 319//318 317//317
f 304//304 317//317 318//328
f 318//328 291//292 304//304
f 294//295 291//292 318//328
f 305//305 291//292 294//295
f 314//315 282//282 320//320
f 307//321 308//309 269//271
f 306//307 301//301 326//327
f 326//327 308//309 306//307
f 306//307 315//308 301//301
f 296//296 328//326 321//322
f 321//322 284//284 251//249
f 302//302 329//329 286//299
f 286//299 328//326 298//286
f 272//274 311//312 276//276
f 311//312 282//282 314//315
f 275//258 326//327 289//288
f 331//330 275//258 290//290
f 331//330 326//327 275//258
f 301//301 315//308 312//314
f 320//320 300//300 313//313
f 320//320 313//313 314//315
f 313//313 312//314 314//315
f 312//314 302//302 314//315
f 308//309 326//327 290//290
f 315//308 320//320 312//314
f 315//308 316//316 320//320
f 317//317 319//318 332//331
f 332//331 319//318 327//332
f 323//324 327//332 319//318
f 293//294 324//325 319//318
f 324//325 293//294 325//319
f 333//306 294//295 318//328
f 320//320 333//306 312//314
f 300//300 320//320 316//316
f 310//311 284//284 321//322
f 310//311 322//323 309//310
f 321//322 334//333 310//311
f 329//329 328//326 286//299
f 330//334 302//302 312//314
f 326//327 331//330 335//335
f 335//335 331//330 290//290
f 336//336 337//337 331//330
f 331//330 335//335 336//336
f 326//327 335//335 290//290
f 317//317 332//331 338//338
f 333//306 318//328 317//317
f 333//306 317//317 330//334
f 306//307 308//309 307//321
f 328//326 329//329 321//322
f 327//332 323//324 322//323
f 339//339 332//331 310//311
f 339//339 310//311 334//333
f 330//334 329//329 302//302
f 337//337 336//336 340//340
f 337//337 340//340 336//336
f 333//306 330//334 312//314
f 341//341 330//334 317//317
f 341//341 329//329 330//334
f 332//331 322//323 310//311
f 322//323 332//331 327//332
f 342//342 332//331 339//339
f 343//343 342//342 339//339
f 338//338 339//339 317//317
f 317//317 339//339 341//341
f 332//331 344//344 338//338
f 329//329 334//333 321//322
f 341//341 339//339 334//333
f 344//344 332//331 342//342
f 338//338 343//343 339//339
f 342//342 343//343 344//344
f 344//344 343//343 338//338
f 341//341 334//333 329//329
