# Blender 4.0.2
# www.blender.org
mtllib rib8_r.mtl
o rib8_r.002
v -0.002125 0.005964 -0.001178
v -0.002151 0.003257 -0.000909
v -0.000276 -0.000194 0.000279
v 0.000666 0.003139 -0.000587
v 0.001568 0.007209 -0.000626
v -0.004080 0.007684 0.000527
v -0.001645 0.008741 -0.000819
v -0.000480 0.009892 -0.000187
v -0.002632 -0.000584 0.000561
v -0.000641 -0.002431 0.001764
v 0.002263 0.010654 0.001119
v 0.003927 0.005496 0.000246
v 0.004132 0.008817 0.000986
v 0.003425 0.000783 0.001049
v 0.005395 0.007159 0.001626
v 0.005244 0.003238 0.001374
v 0.005002 -0.000228 0.003418
v -0.005738 0.001540 0.001100
v -0.005740 0.003586 0.000926
v -0.002145 0.010377 0.000994
v -0.005460 -0.001502 0.001982
v -0.007277 0.001370 0.003852
v 0.001232 0.011335 0.001618
v -0.004742 -0.003563 0.003089
v 0.003078 0.010581 0.002274
v -0.000090 -0.003031 0.003107
v 0.004764 0.009104 0.002150
v 0.002979 -0.001662 0.003030
v 0.005935 0.002322 0.003046
v 0.005306 0.000474 0.004003
v 0.005832 0.002307 0.003512
v -0.004641 0.008149 0.001637
v -0.004466 0.010017 0.003023
v -0.002304 0.011313 0.003473
v 0.000929 0.011587 0.002632
v 0.001527 0.010628 0.003838
v -0.003876 -0.004276 0.004153
v 0.005847 0.005995 0.003019
v 0.005010 0.008092 0.003251
v 0.004471 0.000120 0.004700
v 0.002196 -0.000656 0.005473
v -0.007671 0.003495 0.005140
v -0.007774 -0.003346 0.007079
v 0.001197 0.009413 0.004708
v -0.001193 0.008087 0.006118
v -0.001089 -0.001954 0.007917
v 0.002362 0.001644 0.005752
v -0.006558 0.009229 0.005574
v -0.009063 0.005973 0.008177
v -0.006857 0.008848 0.008026
v -0.006227 -0.004384 0.007616
v -0.000474 -0.000659 0.008436
v -0.009729 0.001983 0.009554
v -0.010620 -0.002651 0.010024
v -0.003416 0.005064 0.009289
v -0.002633 0.000362 0.010565
v -0.005114 -0.004319 0.011702
v -0.009854 0.007182 0.009704
v -0.005762 0.008059 0.008675
v -0.009439 -0.006058 0.012430
v -0.005767 -0.004239 0.014267
v -0.011647 0.001021 0.011933
v -0.015925 -0.003542 0.013383
v -0.012828 0.002887 0.012618
v -0.012678 -0.000877 0.013145
v -0.014473 -0.004529 0.013931
v -0.013778 -0.003068 0.013208
v -0.016361 0.000165 0.015182
v -0.018842 -0.006173 0.014941
v -0.018166 -0.007715 0.016196
v -0.014827 0.000057 0.013704
v -0.013760 0.003132 0.014246
v -0.011135 0.006823 0.014062
v -0.010071 0.007265 0.013742
v -0.014775 -0.005897 0.015569
v -0.009645 0.005964 0.015134
v -0.009640 0.001696 0.017057
v -0.006080 0.002224 0.013791
v -0.011309 -0.008672 0.021249
v -0.022440 -0.007572 0.017101
v -0.020624 -0.005598 0.015073
v -0.022125 -0.005597 0.016164
v -0.021563 -0.004221 0.015965
v -0.020687 -0.008751 0.017809
v -0.011235 0.006104 0.015671
v -0.013888 -0.007233 0.017887
v -0.011655 -0.008383 0.018587
v -0.022971 -0.005356 0.017684
v -0.021634 -0.003803 0.017812
v -0.016819 -0.009348 0.019681
v -0.013490 0.000059 0.022496
v -0.023449 -0.008200 0.021543
v -0.021186 -0.009145 0.019707
v -0.014513 0.002273 0.019006
v -0.013794 0.002366 0.020258
v -0.015799 -0.008782 0.020481
v -0.015330 -0.010395 0.022360
v -0.011717 -0.009090 0.020503
v -0.023970 -0.007411 0.022430
v -0.021385 -0.003724 0.023148
v -0.020192 -0.010081 0.021145
v -0.020222 -0.010180 0.022213
v -0.018288 -0.009659 0.023146
v -0.012782 -0.009276 0.023294
v -0.021693 -0.010098 0.022634
v -0.025157 -0.010265 0.025264
v -0.022130 -0.011652 0.024894
v -0.016113 0.000693 0.023711
v -0.017497 -0.012646 0.027356
v -0.025905 -0.009122 0.027064
v -0.026310 -0.007528 0.033160
v -0.018592 -0.000650 0.026506
v -0.023113 -0.014088 0.028638
v -0.020446 -0.010971 0.026614
v -0.021218 -0.013075 0.029400
v -0.016655 -0.011939 0.028895
v -0.025955 -0.013645 0.029477
v -0.019595 -0.001890 0.030419
v -0.018519 -0.002807 0.030679
v -0.019844 -0.014463 0.030799
v -0.024197 -0.015410 0.030971
v -0.028357 -0.012683 0.033365
v -0.023373 -0.016835 0.034610
v -0.019071 -0.009700 0.032672
v -0.019967 -0.015116 0.033916
v -0.020821 -0.006245 0.035160
v -0.019832 -0.014505 0.034840
v -0.028644 -0.011016 0.037481
v -0.027200 -0.008702 0.039047
v -0.024985 -0.017844 0.034377
v -0.029366 -0.019880 0.040597
v -0.023142 -0.005698 0.036631
v -0.024725 -0.020581 0.040460
v -0.026821 -0.020818 0.039434
v -0.022699 -0.009128 0.040178
v -0.023191 -0.019572 0.040081
v -0.022039 -0.018361 0.041312
v -0.028865 -0.012166 0.047341
v -0.025448 -0.008777 0.042554
v -0.027130 -0.024211 0.043503
v -0.022634 -0.012701 0.043124
v -0.030775 -0.021593 0.044750
v -0.024096 -0.023780 0.047738
v -0.030763 -0.017311 0.044080
v -0.030530 -0.025902 0.046841
v -0.029440 -0.027234 0.047334
v -0.028438 -0.027069 0.047392
v -0.023313 -0.021856 0.048551
v -0.031057 -0.015558 0.049883
v -0.027550 -0.012050 0.048519
v -0.024506 -0.013795 0.049086
v -0.030770 -0.032041 0.052254
v -0.029242 -0.030717 0.050634
v -0.026917 -0.027759 0.050364
v -0.032365 -0.030243 0.052313
v -0.023994 -0.017607 0.051608
v -0.033457 -0.021931 0.057325
v -0.023456 -0.026320 0.058158
v -0.032663 -0.019971 0.057537
v -0.033646 -0.028482 0.056298
v -0.026869 -0.015148 0.054034
v -0.032507 -0.033990 0.056326
v -0.030011 -0.034581 0.055992
v -0.026593 -0.031329 0.057945
v -0.030723 -0.017641 0.057172
v -0.033396 -0.033206 0.057672
v -0.024911 -0.019024 0.057345
v -0.031448 -0.037124 0.060055
v -0.029061 -0.037651 0.060041
v -0.023273 -0.023771 0.060023
v -0.024229 -0.029969 0.058963
v -0.029792 -0.038109 0.060584
v -0.032232 -0.020364 0.059796
v -0.033733 -0.032040 0.060581
v -0.026830 -0.019994 0.061327
v -0.023754 -0.023039 0.062523
v -0.030501 -0.038333 0.062326
v -0.023030 -0.032641 0.062824
v -0.033848 -0.025857 0.061555
v -0.031340 -0.037659 0.063141
v -0.022241 -0.025842 0.064125
v -0.032729 -0.023342 0.062471
v -0.033181 -0.031040 0.063969
v -0.027502 -0.039121 0.063866
v -0.028367 -0.039093 0.065395
v -0.021024 -0.028790 0.066213
v -0.023796 -0.035941 0.065295
v -0.032079 -0.028377 0.066025
v -0.027738 -0.021757 0.065145
v -0.024014 -0.024000 0.067820
v -0.030340 -0.037437 0.066633
v -0.025848 -0.039377 0.067700
v -0.028652 -0.023290 0.066719
v -0.025771 -0.023008 0.067310
v -0.030442 -0.034429 0.068867
v -0.027232 -0.039743 0.067630
v -0.021007 -0.026585 0.068152
v -0.022943 -0.038868 0.069898
v -0.018586 -0.039848 0.072874
v -0.017758 -0.036400 0.071946
v 0.115735 -0.123897 0.098115
v 0.116850 -0.124900 0.098300
v 0.116603 -0.124856 0.098322
v 0.116581 -0.124907 0.098290
v 0.116971 -0.124958 0.098325
v 0.117577 -0.125010 0.098827
v -0.030396 -0.026816 0.068065
v -0.022701 -0.043050 0.073382
v 0.115219 -0.120665 0.098479
v 0.116631 -0.116357 0.098450
v 0.116124 -0.116157 0.098625
v 0.117223 -0.114270 0.098086
v 0.117935 -0.112302 0.097562
v 0.119186 -0.113011 0.098861
v 0.118872 -0.110725 0.097300
v 0.119450 -0.110145 0.097348
v 0.119448 -0.110037 0.097187
v 0.120258 -0.108883 0.097610
v 0.120622 -0.108483 0.098052
v 0.120566 -0.108718 0.097824
v 0.118881 -0.118657 0.099471
v 0.117215 -0.125182 0.099126
v 0.114503 -0.123939 0.100952
v 0.117820 -0.125044 0.099306
v 0.117835 -0.125021 0.099318
v 0.119236 -0.124307 0.101484
v -0.026312 -0.038298 0.074510
v -0.025102 -0.042346 0.073505
v -0.023697 -0.043077 0.073264
v -0.016229 -0.030517 0.074008
v 0.109856 -0.121054 0.103396
v 0.120001 -0.106765 0.100417
v 0.121720 -0.108113 0.099255
v 0.123281 -0.108878 0.100626
v 0.120203 -0.123190 0.102371
v 0.121207 -0.121280 0.102889
v -0.026852 -0.030584 0.073693
v -0.023959 -0.043201 0.075776
v -0.019118 -0.042404 0.075370
v 0.115262 -0.108816 0.100908
v 0.110174 -0.120275 0.102522
v 0.116240 -0.105049 0.102983
v 0.122154 -0.107748 0.102550
v 0.114084 -0.123334 0.103305
v 0.124197 -0.111571 0.102529
v 0.124206 -0.110673 0.101961
v 0.124002 -0.109865 0.101501
v 0.120982 -0.121724 0.102912
v 0.120976 -0.121686 0.102896
v 0.121574 -0.119948 0.103174
v 0.121583 -0.119947 0.103183
v 0.123672 -0.113099 0.103144
v -0.024076 -0.027827 0.075036
v -0.019902 -0.027487 0.074548
v -0.014196 -0.043610 0.077670
v -0.011790 -0.043495 0.079276
v 0.110988 -0.122024 0.104525
v 0.117504 -0.105179 0.103593
v 0.122949 -0.109848 0.103836
v 0.121040 -0.116002 0.104797
v 0.120358 -0.117748 0.105147
v 0.122347 -0.116312 0.103676
v -0.019429 -0.029408 0.079062
v -0.017082 -0.047879 0.080256
v -0.011907 -0.033275 0.078747
v -0.009401 -0.036568 0.080605
v -0.013568 -0.046636 0.080757
v 0.110452 -0.113333 0.104043
v 0.103646 -0.116131 0.108282
v 0.112755 -0.107333 0.103827
v 0.112700 -0.121633 0.106247
v 0.115729 -0.120574 0.106826
v -0.022394 -0.031548 0.078610
v 0.106127 -0.116812 0.105562
v 0.111224 -0.103744 0.105803
v 0.112801 -0.102804 0.105825
v 0.118721 -0.106128 0.105460
v 0.117464 -0.107063 0.107458
v 0.117535 -0.113442 0.108192
v -0.019449 -0.044480 0.081709
v -0.016784 -0.048272 0.083271
v -0.016514 -0.048771 0.082081
v -0.006330 -0.036572 0.084194
v -0.007691 -0.048121 0.082744
v 0.102828 -0.108593 0.108038
v 0.106653 -0.118500 0.109368
v 0.107357 -0.117193 0.111052
v -0.016593 -0.036948 0.084682
v -0.011148 -0.033163 0.083201
v -0.010343 -0.051884 0.087776
v -0.000359 -0.052559 0.087285
v 0.107263 -0.099600 0.108591
v 0.109488 -0.100637 0.110005
v 0.114605 -0.118176 0.108581
v -0.016185 -0.034039 0.084067
v -0.014496 -0.045510 0.086341
v -0.003714 -0.055249 0.090045
v -0.003625 -0.054481 0.089119
v -0.002752 -0.040511 0.085621
v 0.099604 -0.111289 0.108886
v 0.104361 -0.099463 0.108865
v 0.108436 -0.101642 0.111483
v -0.005811 -0.038617 0.091468
v -0.008460 -0.051019 0.089962
v -0.004234 -0.055099 0.091372
v 0.006376 -0.048143 0.091059
v 0.005504 -0.056070 0.090589
v 0.004568 -0.057332 0.091171
v 0.010669 -0.060039 0.093438
v 0.092727 -0.108852 0.111915
v 0.101547 -0.114754 0.111729
v -0.005882 -0.036585 0.088890
v -0.000610 -0.039555 0.089762
v 0.002094 -0.042268 0.089594
v 0.004174 -0.060552 0.094329
v 0.019785 -0.067035 0.097972
v 0.096638 -0.101200 0.109891
v 0.096867 -0.097031 0.110426
v 0.098891 -0.096192 0.110908
v 0.102377 -0.097365 0.110639
v 0.100687 -0.111974 0.113975
v 0.106344 -0.112901 0.112615
v 0.108744 -0.106179 0.112271
v -0.008608 -0.040642 0.091138
v -0.002606 -0.038940 0.092326
v 0.001185 -0.057044 0.095493
v 0.004345 -0.042093 0.093521
v 0.009947 -0.046405 0.094629
v 0.010470 -0.047378 0.094296
v 0.013304 -0.067133 0.098203
v 0.019825 -0.064911 0.097283
v 0.083096 -0.094732 0.111208
v 0.091011 -0.106960 0.111340
v 0.094096 -0.094009 0.111471
v 0.099409 -0.112808 0.113091
v 0.104196 -0.098264 0.112011
v 0.006053 -0.043686 0.096055
v 0.004320 -0.060689 0.096433
v 0.013593 -0.048630 0.096478
v 0.022020 -0.056219 0.099571
v 0.023454 -0.060182 0.099051
v 0.023514 -0.072766 0.101785
v 0.026526 -0.069736 0.099745
v 0.076797 -0.097770 0.112096
v 0.097069 -0.095172 0.113176
v 0.101470 -0.098239 0.113619
v 0.095108 -0.105064 0.116417
v 0.100849 -0.103666 0.115371
v 0.001526 -0.048257 0.097213
v 0.007756 -0.046941 0.098860
v 0.014816 -0.049159 0.099214
v 0.013152 -0.067189 0.099820
v 0.023279 -0.056099 0.100943
v 0.020869 -0.071522 0.102595
v 0.030937 -0.076770 0.104317
v 0.039977 -0.077605 0.105271
v 0.039480 -0.069967 0.104104
v 0.081779 -0.090760 0.111596
v 0.079746 -0.102155 0.113115
v 0.084054 -0.089933 0.112550
v 0.084104 -0.104766 0.114840
v 0.098279 -0.101843 0.115879
v 0.014112 -0.049698 0.100829
v 0.018992 -0.052484 0.099859
v 0.017824 -0.068195 0.103033
v 0.025539 -0.072989 0.105423
v 0.033607 -0.062301 0.104863
v 0.029166 -0.076156 0.105258
v 0.035532 -0.079821 0.107795
v 0.044705 -0.069129 0.106928
v 0.038113 -0.081155 0.107304
v 0.052443 -0.083646 0.109187
v 0.052101 -0.077598 0.108214
v 0.061827 -0.083307 0.109936
v 0.059797 -0.078585 0.109855
v 0.071746 -0.083826 0.111617
v 0.060941 -0.092098 0.112275
v 0.066208 -0.095516 0.113082
v 0.078329 -0.087347 0.112346
v 0.078173 -0.086965 0.113838
v 0.086233 -0.090732 0.114667
v 0.082442 -0.101804 0.117518
v 0.022508 -0.055152 0.103122
v 0.036116 -0.079652 0.109469
v 0.042327 -0.084234 0.109223
v 0.045757 -0.068935 0.108866
v 0.050662 -0.072480 0.109475
v 0.047038 -0.087857 0.111566
v 0.051300 -0.074292 0.108490
v 0.052764 -0.090287 0.112208
v 0.063870 -0.078600 0.111739
v 0.065830 -0.095912 0.113941
v 0.076809 -0.086883 0.115297
v 0.077414 -0.101287 0.116547
v 0.083992 -0.091179 0.115828
v 0.082746 -0.097602 0.117896
v 0.020339 -0.055498 0.104538
v 0.029840 -0.060774 0.107491
v 0.021204 -0.060295 0.106058
v 0.042806 -0.067314 0.109636
v 0.046158 -0.087432 0.112597
v 0.045727 -0.086482 0.113639
v 0.050401 -0.072155 0.111739
v 0.052022 -0.090852 0.114113
v 0.061197 -0.077425 0.113884
v 0.058700 -0.093018 0.113936
v 0.070847 -0.082763 0.114623
v 0.070896 -0.095604 0.118180
v 0.030007 -0.067199 0.108794
v 0.032912 -0.066117 0.109513
v 0.044108 -0.069039 0.111225
v 0.040023 -0.075468 0.112095
v 0.052138 -0.090602 0.115517
v 0.064648 -0.080237 0.115038
v 0.058289 -0.092975 0.116384
v 0.068440 -0.096145 0.117830
v 0.045869 -0.071437 0.112458
v 0.051913 -0.087641 0.116481
v 0.050477 -0.080071 0.115279
v 0.056881 -0.087660 0.117380
v 0.060913 -0.082428 0.116370
v 0.053077 -0.089724 0.116574
v 0.067712 -0.090231 0.117946
v 0.117248 -0.113736 0.097930
v 0.117361 -0.113797 0.098028
v 0.118889 -0.110734 0.097282
v 0.119301 -0.110234 0.097491
v 0.120116 -0.109516 0.097529
vn -0.2234 0.0494 -0.9735
vn 0.2226 -0.1854 -0.9571
vn -0.1708 -0.1835 -0.9681
vn -0.2306 0.3836 -0.8942
vn 0.2802 0.1477 -0.9485
vn 0.1408 -0.4461 -0.8838
vn -0.7408 0.0903 -0.6657
vn -0.6784 0.3215 -0.6606
vn -0.3828 0.7563 -0.5306
vn -0.6574 -0.1775 -0.7323
vn 0.0208 0.6085 -0.7933
vn -0.1757 -0.4409 -0.8802
vn -0.5846 -0.3962 -0.7080
vn 0.4013 0.6803 -0.6133
vn 0.1581 -0.7160 -0.6800
vn -0.3519 -0.7286 -0.5876
vn 0.5667 0.4198 -0.7089
vn 0.4625 -0.4214 -0.7801
vn 0.4890 -0.0125 -0.8722
vn 0.7329 -0.1605 -0.6611
vn 0.8714 0.2127 -0.4421
vn 0.5000 -0.8545 -0.1409
vn 0.7360 -0.6684 -0.1073
vn -0.8839 -0.0668 -0.4629
vn -0.6127 0.6913 -0.3829
vn 0.1371 0.9097 -0.3920
vn -0.6105 -0.5859 -0.5329
vn 0.0652 -0.9838 -0.1668
vn 0.6003 0.7969 0.0679
vn 0.3687 -0.9227 -0.1125
vn 0.7904 0.6101 -0.0560
vn 0.7338 0.3345 0.5914
vn 0.9241 0.1361 0.3571
vn 0.9977 -0.0640 0.0217
vn 0.5592 -0.3802 0.7367
vn 0.8445 -0.3116 0.4356
vn 0.6378 0.6568 0.4023
vn -0.9048 0.2229 -0.3629
vn -0.7869 0.3299 -0.5215
vn -0.1556 0.9724 0.1741
vn 0.1263 0.9832 0.1317
vn 0.3213 0.6757 0.6635
vn 0.5959 -0.7346 0.3244
vn 0.5592 -0.5499 0.6204
vn 0.5684 0.0876 0.8181
vn -0.6720 0.7023 -0.2349
vn 0.3910 0.4702 0.7912
vn -0.0006 -0.9742 -0.2259
vn 0.3469 0.3740 0.8601
vn 0.7300 -0.2505 0.6359
vn -0.8389 0.0302 -0.5434
vn -0.8197 0.0372 -0.5716
vn -0.0198 0.9473 0.3198
vn -0.7741 0.0364 -0.6321
vn 0.4150 0.6982 0.5833
vn 0.7038 0.1624 0.6916
vn -0.7887 0.5061 -0.3489
vn 0.5794 0.4104 0.7041
vn -0.2384 -0.8596 -0.4520
vn 0.5441 -0.8384 0.0306
vn -0.6776 -0.0703 -0.7320
vn -0.7468 0.1173 -0.6546
vn 0.7217 0.2488 0.6460
vn 0.6446 0.2784 0.7121
vn 0.8197 -0.3678 0.4391
vn -0.5837 0.8055 0.1025
vn 0.0378 0.9293 0.3675
vn -0.4482 0.0275 -0.8935
vn -0.5433 0.0159 -0.8394
vn -0.3229 -0.6031 -0.7294
vn 0.1119 -0.9251 -0.3629
vn -0.1817 -0.1894 -0.9650
vn -0.4990 0.2036 -0.8423
vn -0.8200 0.5022 -0.2746
vn 0.5639 0.5362 0.6281
vn -0.0381 -0.7864 -0.6165
vn 0.7852 -0.5377 0.3071
vn -0.0932 -0.5379 -0.8379
vn -0.4085 -0.1814 -0.8945
vn -0.6815 0.4671 -0.5634
vn -0.6775 0.6427 -0.3577
vn 0.0844 -0.7601 -0.6443
vn -0.1471 0.8213 0.5513
vn -0.0573 -0.8551 -0.5152
vn -0.7402 -0.0075 -0.6723
vn -0.6593 -0.5276 -0.5357
vn -0.6888 0.7219 -0.0671
vn -0.1880 -0.8706 -0.4547
vn -0.6466 0.7568 0.0964
vn 0.2957 -0.9282 -0.2258
vn 0.5504 -0.8165 -0.1741
vn -0.9293 0.2855 -0.2342
vn -0.3387 -0.8835 -0.3236
vn -0.0925 0.8592 0.5031
vn 0.1250 -0.9256 -0.3573
vn 0.6412 0.4349 0.6322
vn 0.8387 -0.2615 0.4777
vn -0.7751 -0.4874 -0.4020
vn -0.7224 0.6894 -0.0540
vn -0.0592 -0.9559 -0.2877
vn -0.0956 -0.8698 -0.4840
vn -0.9376 0.2348 -0.2566
vn 0.1218 -0.9753 -0.1840
vn -0.3515 -0.7991 -0.4877
vn 0.0196 -0.9534 -0.3012
vn -0.1210 0.9367 0.3284
vn 0.0372 -0.8798 -0.4739
vn 0.1053 -0.8789 -0.4652
vn 0.2470 -0.9324 -0.2639
vn 0.1487 -0.8441 -0.5151
vn 0.8550 -0.4116 0.3155
vn -0.7472 -0.3862 -0.5409
vn -0.9303 0.2363 -0.2806
vn -0.8015 0.5942 -0.0673
vn -0.4933 0.8685 0.0489
vn -0.5981 -0.5878 -0.5447
vn 0.1667 -0.8658 -0.4717
vn -0.0741 0.9046 0.4198
vn 0.8763 0.0879 0.4737
vn 0.6706 0.4351 0.6008
vn 0.1577 -0.8927 -0.4222
vn -0.9485 0.0062 -0.3166
vn 0.0827 -0.8448 -0.5286
vn 0.7940 -0.6075 0.0229
vn 0.9429 -0.1995 0.2667
vn 0.1218 -0.8576 -0.4998
vn 0.2487 -0.8405 -0.4815
vn -0.6895 0.7137 0.1238
vn 0.0053 0.8724 0.4887
vn 0.7438 0.3457 0.5721
vn -0.9239 0.3724 -0.0885
vn -0.0926 -0.7915 -0.6041
vn 0.4070 -0.8001 -0.4406
vn -0.7225 -0.4568 -0.5190
vn -0.6200 0.7489 0.2341
vn 0.9344 0.1777 0.3089
vn 0.6294 -0.7395 -0.2386
vn 0.7242 0.4983 0.4767
vn 0.9491 -0.3095 0.0584
vn -0.9810 0.0867 -0.1735
vn 0.0049 0.9009 0.4339
vn 0.3434 -0.7906 -0.5071
vn -0.9395 -0.1327 -0.3157
vn -0.6562 -0.4629 -0.5960
vn 0.7855 -0.5646 -0.2534
vn 0.7382 0.5384 0.4063
vn -0.1657 -0.6960 -0.6986
vn 0.3953 -0.7416 -0.5420
vn 0.9884 -0.1492 0.0296
vn -0.8890 0.4554 0.0486
vn -0.2033 0.8761 0.4372
vn 0.9650 0.1911 0.1795
vn 0.6524 -0.6469 -0.3948
vn 0.2264 0.8242 0.5191
vn -0.2968 -0.7244 -0.6222
vn -0.8297 -0.3284 -0.4513
vn 0.3312 -0.7315 -0.5960
vn -0.9766 0.2147 0.0112
vn 0.6655 -0.5940 -0.4520
vn 0.9818 -0.1010 -0.1610
vn -0.9863 -0.0312 -0.1622
vn -0.6726 -0.6019 -0.4305
vn 0.5549 -0.6514 -0.5174
vn 0.7842 -0.4608 -0.4155
vn -0.8553 0.4895 0.1700
vn -0.4465 0.7926 0.4152
vn -0.6348 -0.7121 -0.2999
vn -0.9336 -0.3189 -0.1633
vn 0.7403 0.5736 0.3507
vn -0.1111 -0.9026 -0.4159
vn 0.4311 -0.7059 -0.5620
vn 0.9742 0.2225 -0.0378
vn -0.7036 0.5876 0.3996
vn -0.7901 -0.5969 0.1395
vn 0.7870 0.6045 0.1234
vn -0.9794 -0.1868 0.0770
vn -0.9688 0.1324 0.2096
vn 0.3111 0.8438 0.4373
vn -0.4437 -0.8918 -0.0887
vn 0.7584 -0.3619 -0.5421
vn 0.9121 0.0989 -0.3978
vn 0.9350 0.2965 -0.1944
vn 0.3038 -0.8860 -0.3504
vn -0.4176 -0.9077 -0.0413
vn 0.5544 -0.6106 -0.5655
vn -0.7937 0.4252 0.4351
vn -0.9396 -0.1064 0.3254
vn -0.1486 0.8501 0.5052
vn -0.8729 -0.1391 0.4677
vn -0.8256 -0.5073 0.2471
vn -0.4656 0.6639 0.5852
vn -0.8574 0.1105 0.5027
vn 0.1535 0.8805 0.4486
vn 0.5384 0.8237 0.1778
vn 0.8019 0.5773 -0.1539
vn 0.4436 -0.7516 -0.4881
vn 0.3943 -0.8102 -0.4336
vn 0.4378 -0.5570 -0.7058
vn 0.7585 -0.1619 -0.6313
vn 0.4043 -0.6809 -0.6107
vn -0.3454 -0.2839 -0.8945
vn 0.3709 0.0919 -0.9241
vn -0.1425 -0.3301 -0.9331
vn 0.4732 -0.7023 -0.5319
vn 0.4928 -0.2521 -0.8328
vn -0.4802 -0.8762 -0.0406
vn -0.4482 -0.8788 -0.1638
vn -0.0107 -0.9998 -0.0178
vn -0.7351 0.3197 0.5978
vn -0.7454 0.1717 0.6441
vn -0.8160 -0.1453 0.5594
vn -0.6473 -0.7621 -0.0113
vn 0.3004 -0.6825 -0.6663
vn 0.8056 0.4535 -0.3814
vn 0.0136 -0.0666 -0.9977
vn -0.2708 0.0675 -0.9603
vn -0.5040 0.0938 -0.8586
vn 0.0012 -0.2695 -0.9630
vn 0.0718 -0.2831 -0.9564
vn 0.4719 -0.1618 -0.8667
vn 0.5346 -0.2961 -0.7915
vn -0.7085 0.3071 -0.6354
vn -0.6021 0.2637 -0.7536
vn 0.5521 -0.4467 -0.7040
vn 0.7546 -0.5031 -0.4212
vn 0.6577 0.4452 -0.6077
vn -0.0808 0.1436 -0.9863
vn 0.2425 0.4002 -0.8838
vn 0.0386 0.1175 -0.9923
vn 0.2859 0.6880 -0.6671
vn 0.5495 -0.1206 -0.8268
vn 0.8006 -0.3008 -0.5182
vn 0.3097 -0.9507 0.0135
vn 0.5509 -0.8248 0.1269
vn 0.8340 -0.3370 -0.4369
vn 0.7425 -0.6382 0.2033
vn -0.4566 0.6081 0.6494
vn 0.4486 0.8757 0.1787
vn -0.2227 -0.8980 -0.3796
vn 0.3348 -0.6093 -0.7188
vn -0.6841 -0.1172 -0.7199
vn -0.5856 0.3550 -0.7288
vn -0.4962 0.4654 -0.7329
vn -0.1018 0.7771 -0.6211
vn -0.7073 -0.6210 -0.3378
vn 0.2628 0.8874 -0.3787
vn -0.1589 -0.9209 0.3560
vn 0.7952 0.3701 -0.4802
vn 0.6877 -0.2626 -0.6768
vn 0.9419 -0.3287 0.0694
vn -0.7573 -0.5921 0.2756
vn -0.0490 -0.8064 -0.5893
vn 0.3456 -0.5341 -0.7715
vn 0.5915 -0.1279 -0.7961
vn -0.5521 0.1950 -0.8107
vn 0.6590 0.7331 0.1684
vn 0.3093 -0.5709 0.7605
vn 0.9890 -0.1324 0.0663
vn 0.9289 -0.2695 0.2539
vn 0.9361 0.1419 -0.3217
vn 0.5145 -0.4153 0.7502
vn 0.8635 -0.4881 0.1271
vn 0.9521 -0.2166 -0.2158
vn 0.8425 -0.3051 0.4439
vn 0.7418 0.5073 -0.4386
vn 0.7045 0.0962 -0.7032
vn 0.1917 -0.6173 -0.7630
vn -0.5535 0.2880 -0.7815
vn -0.6171 -0.1115 -0.7790
vn -0.4379 -0.8840 0.1635
vn 0.4036 0.9080 -0.1122
vn -0.0406 -0.8134 0.5803
vn 0.7400 0.2829 0.6103
vn 0.5944 -0.2423 0.7668
vn 0.6380 -0.1165 0.7611
vn 0.7242 -0.1954 0.6613
vn -0.6276 0.2606 0.7336
vn -0.1343 0.7766 0.6155
vn -0.7514 -0.1735 0.6367
vn -0.6723 -0.6818 -0.2885
vn 0.0805 0.8197 -0.5671
vn 0.6118 0.6891 0.3883
vn 0.5816 0.2992 0.7564
vn 0.3557 -0.3392 0.8709
vn 0.5132 -0.0699 0.8554
vn 0.4440 0.8903 0.1015
vn -0.7071 -0.5321 0.4657
vn -0.4722 -0.8763 -0.0953
vn 0.1987 -0.5425 -0.8162
vn -0.3290 0.3149 -0.8903
vn 0.5556 0.7501 0.3587
vn 0.0440 -0.5557 0.8302
vn -0.6334 0.1112 0.7658
vn 0.2786 -0.3809 -0.8817
vn -0.2985 0.1079 -0.9483
vn -0.3887 -0.8428 0.3723
vn -0.4300 0.4435 0.7864
vn 0.2355 0.8971 0.3739
vn -0.6489 -0.1235 0.7508
vn -0.6212 -0.6776 0.3936
vn 0.6744 0.6201 -0.4009
vn -0.2883 -0.8761 -0.3865
vn 0.0016 -0.7272 -0.6864
vn 0.6332 0.1937 -0.7494
vn -0.4091 -0.1295 -0.9033
vn -0.1385 0.3182 -0.9379
vn 0.2255 0.8373 -0.4980
vn -0.4137 -0.8259 0.3832
vn 0.4843 0.3433 0.8047
vn -0.6089 -0.2358 0.7574
vn -0.5923 -0.7627 0.2600
vn 0.5337 0.1213 -0.8369
vn 0.3095 -0.2586 -0.9151
vn 0.0259 -0.6131 -0.7896
vn 0.2706 -0.1904 0.9437
vn 0.4162 0.0603 0.9073
vn -0.4932 0.1631 0.8545
vn -0.2283 0.5608 0.7958
vn 0.5876 0.7844 -0.1987
vn 0.6654 0.5039 -0.5508
vn 0.0359 -0.5376 -0.8425
vn -0.4992 -0.7628 -0.4110
vn -0.3022 -0.3339 -0.8928
vn -0.1600 0.0558 -0.9855
vn 0.1903 0.7953 -0.5756
vn 0.3517 0.9267 -0.1322
vn -0.3430 -0.7370 0.5824
vn 0.5309 0.8471 -0.0228
vn -0.5789 -0.2602 0.7728
vn -0.3481 -0.8383 -0.4196
vn 0.6059 0.4034 -0.6857
vn 0.6229 0.7076 -0.3336
vn 0.3087 -0.1394 -0.9409
vn -0.0209 0.2762 -0.9609
vn 0.4759 0.7570 0.4477
vn 0.0244 -0.4067 0.9132
vn 0.3043 0.0446 0.9515
vn 0.0844 0.7712 0.6310
vn -0.4325 0.0734 0.8986
vn -0.6391 -0.6145 0.4626
vn -0.3228 -0.8033 -0.5005
vn 0.0619 -0.4525 -0.8896
vn 0.4698 0.1978 -0.8603
vn 0.6207 0.4032 -0.6724
vn 0.1760 -0.2812 -0.9434
vn -0.0468 -0.0094 -0.9989
vn 0.2606 0.7765 -0.5738
vn 0.4062 0.8413 0.3566
vn 0.3715 0.4580 0.8076
vn 0.3335 0.8227 0.4603
vn 0.6350 0.6689 -0.3864
vn -0.6035 -0.7220 0.3385
vn -0.5415 -0.7967 0.2683
vn -0.2583 -0.8047 -0.5345
vn 0.3675 0.1359 -0.9200
vn -0.3794 -0.6901 -0.6163
vn -0.1227 -0.2505 -0.9603
vn 0.1539 0.2931 -0.9436
vn 0.3300 0.7898 -0.5170
vn -0.4110 -0.8773 0.2478
vn 0.2369 0.1668 0.9571
vn 0.0966 -0.1629 0.9819
vn -0.1284 0.4646 0.8762
vn -0.5054 -0.3647 0.7820
vn 0.5216 0.8379 0.1606
vn 0.6685 0.7046 -0.2379
vn 0.6332 0.6301 -0.4494
vn -0.5296 -0.8414 0.1075
vn 0.5652 0.6790 -0.4685
vn -0.2111 -0.7781 -0.5916
vn 0.1462 -0.3312 -0.9322
vn 0.0710 -0.1009 -0.9924
vn -0.1485 -0.4737 -0.8680
vn -0.2765 -0.6439 -0.7134
vn 0.3882 0.8129 0.4342
vn 0.2169 0.4194 0.8815
vn 0.1801 0.7013 0.6897
vn 0.4745 0.8392 0.2656
vn -0.5077 -0.4320 0.7453
vn -0.5445 -0.8366 0.0607
vn 0.5115 0.5546 -0.6563
vn -0.2446 -0.7437 -0.6221
vn -0.3030 -0.7499 -0.5881
vn 0.0917 -0.2847 -0.9542
vn 0.4021 0.3565 -0.8433
vn 0.2299 -0.0042 -0.9732
vn 0.2893 0.2940 -0.9110
vn -0.1933 -0.7114 -0.6757
vn 0.3745 0.5638 -0.7361
vn -0.3635 -0.8552 -0.3695
vn 0.4270 0.7508 -0.5039
vn 0.4448 0.8929 0.0701
vn -0.3447 -0.8005 0.4903
vn -0.0963 -0.4217 0.9016
vn 0.1000 0.0973 0.9902
vn -0.3148 0.0589 0.9473
vn 0.0134 0.5253 0.8508
vn -0.5840 -0.4828 0.6525
vn 0.5517 0.8238 -0.1301
vn 0.5435 0.7445 -0.3876
vn -0.4010 -0.8363 -0.3739
vn -0.5873 -0.7970 0.1408
vn 0.4666 0.8067 -0.3627
vn -0.3008 -0.8801 -0.3673
vn 0.4401 0.7775 0.4491
vn 0.3222 0.5975 0.7343
vn -0.2196 -0.4354 0.8730
vn 0.1038 0.5961 0.7961
vn -0.3491 -0.0602 0.9352
vn 0.4109 0.8575 0.3096
vn -0.5758 -0.4420 0.6878
vn 0.3926 0.8493 0.3529
vn -0.4095 -0.9091 -0.0770
vn -0.3583 -0.8068 0.4699
vn 0.3096 0.7797 0.5443
vn -0.0365 -0.0919 0.9951
vn -0.1635 0.1976 0.9666
vn -0.3195 0.0147 0.9475
vn 0.1695 0.6269 0.7605
vn 0.0145 0.4031 0.9150
vn -0.3070 -0.0485 0.9505
vn -0.4691 -0.7139 0.5198
vn 0.2116 0.5107 0.8333
vn 0.0451 0.3117 0.9491
vn 0.0523 0.1720 0.9837
vn -0.1395 0.2001 0.9698
vn -0.3097 -0.3124 0.8981
vn -0.0993 0.0530 0.9936
s 1
usemtl mtl1.1062
f 1//1 4//2 2//3
f 7//4 5//5 1//1
f 3//6 2//3 4//2
f 1//1 5//5 4//2
f 19//7 6//8 1//1
f 7//4 1//1 6//8
f 6//8 20//9 7//4
f 1//1 2//3 19//7
f 18//10 19//7 2//3
f 7//4 20//9 8//11
f 9//12 18//10 2//3
f 18//10 9//12 21//13
f 7//4 8//11 5//5
f 11//14 5//5 8//11
f 9//12 3//6 10//15
f 9//12 10//15 24//16
f 9//12 2//3 3//6
f 13//17 5//5 11//14
f 4//2 14//18 3//6
f 5//5 12//19 4//2
f 5//5 13//17 12//19
f 14//18 10//15 3//6
f 4//2 12//19 14//18
f 16//20 14//18 12//19
f 13//17 15//21 12//19
f 12//19 15//21 16//20
f 28//22 10//15 14//18
f 16//20 17//23 14//18
f 19//7 18//10 22//24
f 20//9 6//8 33//25
f 22//24 18//10 21//13
f 8//11 20//9 23//26
f 24//16 21//13 9//12
f 43//27 21//13 24//16
f 11//14 8//11 23//26
f 24//16 10//15 37//28
f 25//29 11//14 23//26
f 37//28 10//15 26//30
f 27//31 13//17 25//29
f 25//29 13//17 11//14
f 26//30 10//15 28//22
f 15//21 13//17 27//31
f 15//21 27//31 39//32
f 15//21 39//32 38//33
f 16//20 15//21 38//33
f 29//34 16//20 38//33
f 17//23 28//22 14//18
f 40//35 28//22 17//23
f 29//34 30//36 17//23
f 16//20 29//34 17//23
f 30//36 29//34 31//37
f 42//38 6//8 19//7
f 42//38 32//39 6//8
f 33//25 6//8 32//39
f 20//9 33//25 34//40
f 21//13 43//27 22//24
f 35//41 23//26 20//9
f 34//40 35//41 20//9
f 35//41 25//29 23//26
f 35//41 36//42 25//29
f 37//28 26//30 46//43
f 39//32 25//29 36//42
f 39//32 27//31 25//29
f 41//44 46//43 26//30
f 28//22 41//44 26//30
f 41//44 28//22 40//35
f 31//37 47//45 40//35
f 31//37 29//34 47//45
f 29//34 38//33 47//45
f 30//36 40//35 17//23
f 40//35 30//36 31//37
f 33//25 32//39 48//46
f 34//40 33//25 48//46
f 19//7 22//24 42//38
f 45//47 36//42 34//40
f 51//48 43//27 24//16
f 24//16 37//28 51//48
f 45//47 44//49 36//42
f 36//42 35//41 34//40
f 37//28 46//43 51//48
f 38//33 45//47 47//45
f 45//47 38//33 44//49
f 44//49 38//33 39//32
f 39//32 36//42 44//49
f 41//44 47//45 52//50
f 41//44 40//35 47//45
f 53//51 49//52 32//39
f 34//40 48//46 50//53
f 54//54 22//24 43//27
f 34//40 50//53 45//47
f 45//47 50//53 59//55
f 47//45 45//47 56//56
f 52//50 46//43 41//44
f 32//39 58//57 48//46
f 53//51 42//38 22//24
f 53//51 32//39 42//38
f 53//51 22//24 54//54
f 45//47 59//55 55//58
f 60//59 43//27 51//48
f 55//58 56//56 45//47
f 46//43 57//60 51//48
f 52//50 47//45 56//56
f 32//39 49//52 58//57
f 49//52 53//51 62//61
f 64//62 49//52 62//61
f 59//55 77//63 78//64
f 78//64 55//58 59//55
f 52//50 61//65 46//43
f 49//52 64//62 58//57
f 73//66 48//46 58//57
f 50//53 48//46 73//66
f 73//66 74//67 50//53
f 67//68 65//69 54//54
f 54//54 65//69 53//51
f 65//69 62//61 53//51
f 66//70 43//27 60//59
f 66//70 54//54 43//27
f 67//68 54//54 66//70
f 51//48 87//71 60//59
f 78//64 56//56 55//58
f 87//71 51//48 57//60
f 57//60 46//43 61//65
f 61//65 52//50 56//56
f 63//72 71//73 67//68
f 64//62 72//74 58//57
f 73//66 58//57 72//74
f 63//72 67//68 66//70
f 65//69 71//73 62//61
f 64//62 62//61 71//73
f 59//55 74//67 76//75
f 50//53 74//67 59//55
f 66//70 60//59 75//76
f 87//71 57//60 79//77
f 69//78 81//79 63//72
f 81//79 83//80 71//73
f 68//81 71//73 83//80
f 69//78 63//72 70//82
f 81//79 71//73 63//72
f 65//69 67//68 71//73
f 68//81 72//74 71//73
f 64//62 71//73 72//74
f 75//76 70//82 63//72
f 63//72 66//70 75//76
f 73//66 85//83 74//67
f 76//75 77//63 59//55
f 75//76 60//59 86//84
f 79//77 57//60 61//65
f 61//65 56//56 79//77
f 82//85 81//79 80//86
f 82//85 83//80 81//79
f 68//81 83//80 89//87
f 80//86 69//78 84//88
f 81//79 69//78 80//86
f 84//88 69//78 70//82
f 68//81 94//89 72//74
f 94//89 73//66 72//74
f 90//90 70//82 75//76
f 74//67 85//83 76//75
f 75//76 86//84 90//90
f 86//84 60//59 87//71
f 87//71 79//77 98//91
f 77//63 56//56 78//64
f 88//92 83//80 82//85
f 83//80 88//92 89//87
f 80//86 88//92 82//85
f 93//93 80//86 84//88
f 84//88 70//82 90//90
f 94//89 85//83 73//66
f 95//94 85//83 94//89
f 96//95 90//90 86//84
f 91//96 77//63 76//75
f 77//63 104//97 56//56
f 80//86 92//98 88//92
f 92//98 80//86 93//93
f 88//92 100//99 89//87
f 84//88 90//90 93//93
f 101//100 93//93 90//90
f 76//75 85//83 95//94
f 91//96 76//75 95//94
f 96//95 86//84 97//101
f 97//101 86//84 87//71
f 79//77 56//56 104//97
f 88//92 92//98 99//102
f 99//102 100//99 88//92
f 100//99 68//81 89//87
f 102//103 105//104 101//100
f 101//100 105//104 93//93
f 94//89 68//81 100//99
f 90//90 102//103 101//100
f 90//90 96//95 103//105
f 90//90 103//105 102//103
f 97//101 103//105 96//95
f 97//101 87//71 98//91
f 98//91 79//77 104//97
f 105//104 92//98 93//93
f 108//106 94//89 100//99
f 105//104 102//103 107//107
f 95//94 94//89 108//106
f 103//105 107//107 102//103
f 103//105 114//108 107//107
f 109//109 115//110 97//101
f 104//97 116//111 98//91
f 99//102 92//98 106//112
f 106//112 92//98 105//104
f 99//102 106//112 110//113
f 111//114 99//102 110//113
f 100//99 112//115 108//106
f 114//108 103//105 97//101
f 91//96 95//94 108//106
f 114//108 97//101 115//110
f 97//101 98//91 109//109
f 116//111 109//109 98//91
f 99//102 111//114 100//99
f 105//104 107//107 106//112
f 107//107 117//116 106//112
f 107//107 114//108 113//117
f 118//118 108//106 112//115
f 77//63 91//96 124//119
f 107//107 113//117 117//116
f 115//110 113//117 114//108
f 118//118 119//120 108//106
f 108//106 119//120 91//96
f 120//121 115//110 109//109
f 77//63 116//111 104//97
f 124//119 116//111 77//63
f 110//113 106//112 122//122
f 121//123 117//116 113//117
f 121//123 113//117 115//110
f 125//124 116//111 127//125
f 106//112 117//116 122//122
f 130//126 117//116 121//123
f 119//120 124//119 91//96
f 123//127 115//110 120//121
f 116//111 124//119 127//125
f 109//109 125//124 120//121
f 109//109 116//111 125//124
f 122//122 111//114 110//113
f 111//114 112//115 100//99
f 129//128 118//118 112//115
f 132//129 119//120 118//118
f 123//127 130//126 121//123
f 123//127 121//123 115//110
f 119//120 126//130 124//119
f 122//122 128//131 111//114
f 129//128 112//115 111//114
f 132//129 126//130 119//120
f 134//132 130//126 123//127
f 120//121 133//133 123//127
f 133//133 134//132 123//127
f 131//134 122//122 117//116
f 132//129 118//118 129//128
f 132//129 129//128 138//135
f 134//132 131//134 117//116
f 117//116 130//126 134//132
f 141//136 127//125 124//119
f 133//133 120//121 136//137
f 136//137 120//121 125//124
f 111//114 128//131 129//128
f 132//129 135//138 126//130
f 135//138 124//119 126//130
f 141//136 124//119 135//138
f 137//139 136//137 125//124
f 137//139 125//124 127//125
f 144//140 128//131 122//122
f 132//129 138//135 139//141
f 139//141 135//138 132//129
f 140//142 134//132 133//133
f 141//136 137//139 127//125
f 142//143 122//122 131//134
f 144//140 122//122 142//143
f 134//132 145//144 131//134
f 143//145 133//133 136//137
f 142//143 131//134 145//144
f 139//141 151//146 135//138
f 145//144 134//132 146//147
f 140//142 146//147 134//132
f 133//133 147//148 140//142
f 136//137 137//139 143//145
f 148//149 143//145 137//139
f 128//131 144//140 149//150
f 149//150 129//128 128//131
f 149//150 138//135 129//128
f 147//148 146//147 140//142
f 151//146 141//136 135//138
f 147//148 133//133 143//145
f 138//135 150//151 139//141
f 141//136 151//146 156//152
f 154//153 147//148 143//145
f 141//136 156//152 137//139
f 161//154 151//146 139//141
f 152//155 145//144 146//147
f 152//155 155//156 145//144
f 153//157 146//147 147//148
f 153//157 152//155 146//147
f 153//157 147//148 154//153
f 148//149 137//139 156//152
f 157//158 144//140 142//143
f 139//141 150//151 161//154
f 142//143 145//144 155//156
f 153//157 154//153 164//159
f 154//153 143//145 164//159
f 158//160 143//145 148//149
f 155//156 160//161 142//143
f 160//161 157//158 142//143
f 155//156 152//155 162//162
f 163//163 152//155 153//157
f 163//163 153//157 164//159
f 148//149 156//152 158//160
f 158//160 171//164 143//145
f 149//150 144//140 157//158
f 149//150 157//158 159//165
f 149//150 159//165 165//166
f 165//166 138//135 149//150
f 152//155 168//167 162//162
f 138//135 165//166 150//151
f 166//168 160//161 155//156
f 162//162 166//168 155//156
f 156//152 151//146 167//169
f 167//169 151//146 161//154
f 168//167 152//155 172//170
f 172//170 152//155 163//163
f 172//170 163//163 169//171
f 156//152 167//169 170//172
f 158//160 156//152 170//172
f 164//159 143//145 171//164
f 173//173 165//166 159//165
f 150//151 165//166 161//154
f 168//167 166//168 162//162
f 166//168 168//167 180//174
f 167//169 176//175 170//172
f 164//159 169//171 163//163
f 160//161 166//168 174//176
f 157//158 160//161 179//177
f 165//166 175//178 161//154
f 174//176 166//168 180//174
f 175//178 167//169 161//154
f 168//167 172//170 177//179
f 178//180 164//159 171//164
f 158//160 186//181 171//164
f 179//177 173//173 157//158
f 157//158 173//173 159//165
f 174//176 179//177 160//161
f 177//179 180//174 168//167
f 175//178 176//175 167//169
f 176//175 181//182 170//172
f 172//170 184//183 177//179
f 177//179 184//183 185//184
f 184//183 172//170 169//171
f 184//183 169//171 164//159
f 186//181 158//160 181//182
f 158//160 170//172 181//182
f 178//180 187//185 164//159
f 179//177 182//186 173//173
f 183//187 179//177 174//176
f 183//187 174//176 180//174
f 189//188 175//178 165//166
f 180//174 195//189 183//187
f 180//174 177//179 185//184
f 191//190 180//174 185//184
f 187//185 184//183 164//159
f 178//180 171//164 186//181
f 193//191 173//173 182//186
f 179//177 183//187 188//192
f 173//173 189//188 165//166
f 189//188 194//193 175//178
f 175//178 190//194 176//175
f 194//193 190//194 175//178
f 180//174 191//190 195//189
f 197//195 181//182 176//175
f 184//183 192//196 196//197
f 184//183 196//197 185//184
f 187//185 192//196 184//183
f 187//185 178//180 199//198
f 199//198 178//180 200//199
f 188//192 182//186 179//177
f 183//187 195//189 188//192
f 193//191 189//188 173//173
f 190//194 197//195 176//175
f 197//195 186//181 181//182
f 192//196 187//185 198//200
f 198//200 187//185 199//198
f 178//180 186//181 200//199
f 201//201 202//202 203//203
f 202//202 206//204 205//205
f 223//206 201//201 204//207
f 204//207 205//205 222//208
f 207//209 182//186 188//192
f 193//191 182//186 207//209
f 207//209 188//192 195//189
f 195//189 237//210 207//209
f 195//189 191//190 227//211
f 228//212 185//184 196//197
f 191//190 185//184 228//212
f 196//197 192//196 208//213
f 198//200 208//213 192//196
f 186//181 230//214 200//199
f 210//215 209//216 211//217
f 212//218 211//217 424//219
f 211//217 212//218 210//215
f 214//220 210//215 425//221
f 424//219 213//222 212//218
f 213//222 215//223 212//218
f 425//221 426//224 216//225
f 233//226 425//221 216//225
f 427//227 218//228 428//229
f 218//228 219//230 428//229
f 201//201 209//216 202//202
f 210//215 221//231 209//216
f 209//216 221//231 202//202
f 210//215 214//220 221//231
f 425//221 233//226 214//220
f 233//226 216//225 220//232
f 222//208 223//206 204//207
f 205//205 224//233 222//208
f 206//204 224//233 205//205
f 226//234 224//233 225//235
f 222//208 224//233 226//234
f 225//235 206//204 235//236
f 202//202 221//231 206//204
f 225//235 235//236 226//234
f 207//209 253//237 193//191
f 190//194 254//238 197//195
f 229//239 228//212 196//197
f 196//197 208//213 229//239
f 186//181 197//195 230//214
f 199//198 239//240 198//200
f 239//240 208//213 198//200
f 241//241 209//216 201//201
f 211//217 215//223 213//222
f 240//242 217//243 215//223
f 217//243 242//244 218//228
f 242//244 217//243 240//242
f 201//201 231//245 241//241
f 232//246 233//226 219//230
f 218//228 232//246 219//230
f 223//206 231//245 201//201
f 244//247 223//206 222//208
f 233//226 234//248 214//220
f 233//226 220//232 219//230
f 226//234 244//247 222//208
f 214//220 234//248 221//231
f 221//231 234//248 246//249
f 221//231 236//250 206//204
f 206//204 236//250 235//236
f 189//188 193//191 253//237
f 189//188 253//237 194//193
f 195//189 227//211 237//210
f 194//193 254//238 190//194
f 238//251 227//211 191//190
f 238//251 191//190 228//212
f 254//238 230//214 197//195
f 228//212 229//239 264//252
f 199//198 255//253 239//240
f 256//254 199//198 200//199
f 240//242 215//223 268//255
f 268//255 211//217 241//241
f 209//216 241//241 211//217
f 268//255 215//223 211//217
f 218//228 242//244 232//246
f 243//256 234//248 233//226
f 243//256 233//226 232//246
f 272//257 226//234 235//236
f 245//258 252//259 221//231
f 246//249 245//258 221//231
f 247//260 246//249 234//248
f 272//257 235//236 248//261
f 235//236 236//250 249//262
f 250//263 251//264 236//250
f 250//263 236//250 252//259
f 236//250 221//231 252//259
f 253//237 207//209 237//210
f 238//251 228//212 264//252
f 264//252 208//213 239//240
f 230//214 265//265 200//199
f 200//199 266//266 256//254
f 239//240 255//253 267//267
f 256//254 255//253 199//198
f 270//268 240//242 268//255
f 242//244 240//242 270//268
f 268//255 241//241 274//269
f 231//245 223//206 257//270
f 242//244 258//271 232//246
f 257//270 223//206 244//247
f 258//271 243//256 232//246
f 226//234 271//272 244//247
f 234//248 243//256 247//260
f 259//273 247//260 243//256
f 248//261 261//274 272//257
f 260//275 261//274 262//276
f 262//276 252//259 260//275
f 252//259 245//258 259//273
f 247//260 259//273 245//258
f 236//250 261//274 248//261
f 251//264 261//274 236//250
f 251//264 252//259 262//276
f 251//264 262//276 261//274
f 253//237 237//210 273//277
f 227//211 273//277 237//210
f 194//193 253//237 263//278
f 227//211 238//251 280//279
f 264//252 229//239 208//213
f 265//265 266//266 200//199
f 264//252 239//240 267//267
f 274//269 241//241 269//280
f 269//280 231//245 257//270
f 269//280 241//241 231//245
f 242//244 276//281 258//271
f 257//270 244//247 271//272
f 277//282 243//256 258//271
f 272//257 271//272 226//234
f 277//282 259//273 243//256
f 278//283 259//273 277//282
f 272//257 261//274 294//284
f 260//275 252//259 279//285
f 259//273 279//285 252//259
f 263//278 253//237 273//277
f 254//238 194//193 263//278
f 289//286 254//238 263//278
f 281//287 280//279 238//251
f 254//238 265//265 230//214
f 238//251 264//252 282//288
f 281//287 238//251 282//288
f 267//267 255//253 284//289
f 256//254 284//289 255//253
f 275//290 268//255 274//269
f 275//290 270//268 268//255
f 270//268 275//290 242//244
f 293//291 277//282 258//271
f 271//272 272//257 287//292
f 279//285 259//273 278//283
f 294//284 261//274 279//285
f 279//285 261//274 260//275
f 227//211 288//293 273//277
f 288//293 227//211 280//279
f 256//254 291//294 284//289
f 275//290 274//269 285//295
f 276//281 242//244 275//290
f 286//296 269//280 257//270
f 293//291 258//271 276//281
f 286//296 257//270 271//272
f 287//292 272//257 294//284
f 263//278 273//277 295//297
f 312//298 289//286 263//278
f 296//299 280//279 281//287
f 254//238 289//286 265//265
f 281//287 282//288 290//300
f 265//265 283//301 266//266
f 297//302 282//288 264//252
f 297//302 264//252 298//303
f 267//267 298//303 264//252
f 284//289 298//303 267//267
f 266//266 299//304 256//254
f 283//301 299//304 266//266
f 284//289 291//294 298//303
f 256//254 299//304 291//294
f 300//305 285//295 274//269
f 285//295 301//306 275//290
f 275//290 292//307 276//281
f 311//308 269//280 286//296
f 286//296 271//272 287//292
f 302//309 278//283 293//291
f 293//291 278//283 277//282
f 288//293 280//279 296//299
f 296//299 281//287 304//310
f 289//286 283//301 265//265
f 290//300 282//288 297//302
f 305//311 290//300 297//302
f 299//304 306//312 291//294
f 291//294 306//312 307//313
f 308//314 298//303 291//294
f 307//313 308//314 291//294
f 269//280 300//305 274//269
f 301//306 292//307 275//290
f 293//291 276//281 292//307
f 294//284 322//315 287//292
f 322//315 294//284 279//285
f 278//283 323//316 279//285
f 295//297 273//277 288//293
f 295//297 288//293 324//317
f 303//318 263//278 295//297
f 303//318 312//298 263//278
f 281//287 290//300 304//310
f 283//301 289//286 313//319
f 314//320 283//301 313//319
f 314//320 299//304 283//301
f 297//302 298//303 308//314
f 299//304 314//320 306//312
f 307//313 309//321 308//314
f 310//322 333//323 300//305
f 300//305 317//324 285//295
f 310//322 300//305 269//280
f 285//295 317//324 301//306
f 319//325 320//326 292//307
f 320//326 293//291 292//307
f 311//308 310//322 269//280
f 311//308 286//296 335//327
f 286//296 287//292 335//327
f 322//315 279//285 323//316
f 323//316 278//283 302//309
f 324//317 303//318 295//297
f 288//293 296//299 324//317
f 312//298 313//319 289//286
f 312//298 327//328 313//319
f 304//310 324//317 296//299
f 290//300 326//329 304//310
f 315//330 305//311 297//302
f 329//331 306//312 314//320
f 314//320 328//332 329//331
f 308//314 315//330 297//302
f 307//313 306//312 331//333
f 315//330 308//314 309//321
f 307//313 331//333 309//321
f 317//324 300//305 333//323
f 317//324 318//334 301//306
f 318//334 319//325 301//306
f 301//306 319//325 292//307
f 336//335 293//291 320//326
f 287//292 321//336 335//327
f 287//292 322//315 321//336
f 321//336 322//315 348//337
f 312//298 303//318 325//338
f 325//338 327//328 312//298
f 349//339 324//317 304//310
f 290//300 305//311 326//329
f 327//328 314//320 313//319
f 328//332 314//320 327//328
f 315//330 338//340 305//311
f 330//341 315//330 309//321
f 309//321 316//342 330//341
f 306//312 341//343 331//333
f 306//312 340//344 341//343
f 316//342 309//321 331//333
f 331//333 343//345 316//342
f 318//334 317//324 332//346
f 334//347 319//325 318//334
f 333//323 332//346 317//324
f 345//348 320//326 319//325
f 336//335 320//326 345//348
f 310//322 311//308 335//327
f 346//349 302//309 336//335
f 302//309 348//337 323//316
f 293//291 336//335 302//309
f 348//337 322//315 323//316
f 325//338 337//350 327//328
f 349//339 304//310 326//329
f 326//329 305//311 338//340
f 328//332 339//351 329//331
f 338//340 315//330 330//341
f 339//351 340//344 329//331
f 338//340 330//341 352//352
f 306//312 329//331 340//344
f 354//353 330//341 342//354
f 330//341 316//342 342//354
f 331//333 341//343 343//345
f 342//354 316//342 343//345
f 341//343 357//355 343//345
f 333//323 359//356 344//357
f 310//322 359//356 333//323
f 332//346 333//323 344//357
f 332//346 358//358 318//334
f 358//358 360//359 318//334
f 360//359 334//347 318//334
f 361//360 310//322 335//327
f 345//348 319//325 334//347
f 345//348 346//349 336//335
f 348//337 346//349 362//361
f 321//336 348//337 347//362
f 348//337 302//309 346//349
f 303//318 324//317 349//339
f 350//363 325//338 303//318
f 303//318 349//339 350//363
f 325//338 350//363 337//350
f 327//328 337//350 328//332
f 365//364 349//339 326//329
f 328//332 351//365 339//351
f 351//365 328//332 337//350
f 338//340 365//364 326//329
f 351//365 364//366 339//351
f 364//366 340//344 339//351
f 365//364 338//340 352//352
f 364//366 353//367 340//344
f 352//352 330//341 354//353
f 352//352 354//353 365//364
f 353//367 341//343 340//344
f 368//368 354//353 342//354
f 353//367 367//369 357//355
f 341//343 353//367 357//355
f 342//354 343//345 355//370
f 368//368 342//354 355//370
f 356//371 355//370 343//345
f 343//345 357//355 356//371
f 358//358 332//346 374//372
f 374//372 332//346 344//357
f 377//373 344//357 378//374
f 359//356 310//322 361//360
f 381//375 334//347 360//359
f 381//375 345//348 334//347
f 395//376 346//349 381//375
f 346//349 345//348 381//375
f 395//376 362//361 346//349
f 348//337 362//361 347//362
f 363//377 337//350 350//363
f 363//377 351//365 337//350
f 383//378 353//367 364//366
f 365//364 354//353 366//379
f 368//368 355//370 369//380
f 370//381 357//355 367//369
f 355//370 371//382 369//380
f 355//370 356//371 371//382
f 371//382 356//371 385//383
f 357//355 372//384 356//371
f 370//381 389//385 357//355
f 389//385 373//386 357//355
f 357//355 373//386 372//384
f 373//386 389//385 375//387
f 390//388 356//371 372//384
f 375//387 374//372 373//386
f 373//386 374//372 372//384
f 374//372 377//373 372//384
f 377//373 374//372 344//357
f 374//372 375//387 358//358
f 376//389 358//358 375//387
f 378//374 359//356 392//390
f 379//391 358//358 376//389
f 378//374 344//357 359//356
f 359//356 361//360 392//390
f 358//358 379//391 360//359
f 380//392 360//359 379//391
f 380//392 381//375 360//359
f 394//393 361//360 382//394
f 335//327 382//394 361//360
f 335//327 321//336 382//394
f 396//395 347//362 362//361
f 350//363 349//339 399//396
f 350//363 397//397 363//377
f 365//364 399//396 349//339
f 399//396 397//397 350//363
f 363//377 383//378 351//365
f 351//365 383//378 364//366
f 383//378 367//369 353//367
f 366//379 399//396 365//364
f 368//368 366//379 354//353
f 384//398 366//379 368//368
f 384//398 368//368 369//380
f 369//380 371//382 385//383
f 367//369 386//399 370//381
f 386//399 387//400 370//381
f 385//383 388//401 401//402
f 387//400 389//385 370//381
f 385//383 356//371 390//388
f 385//383 390//388 388//401
f 389//385 391//403 375//387
f 387//400 391//403 389//385
f 372//384 377//373 390//388
f 377//373 406//404 390//388
f 375//387 391//403 376//389
f 378//374 406//404 377//373
f 392//390 406//404 378//374
f 391//403 379//391 376//389
f 379//391 391//403 407//405
f 407//405 380//392 379//391
f 395//376 381//375 393//406
f 380//392 393//406 381//375
f 382//394 416//407 394//393
f 362//361 395//376 396//395
f 382//394 321//336 347//362
f 396//395 382//394 347//362
f 363//377 397//397 383//378
f 397//397 398//408 383//378
f 366//379 409//409 399//396
f 400//410 367//369 383//378
f 383//378 398//408 400//410
f 366//379 384//398 409//409
f 400//410 386//399 367//369
f 385//383 401//402 369//380
f 384//398 369//380 402//411
f 369//380 401//402 402//411
f 403//412 387//400 386//399
f 401//402 388//401 404//413
f 404//413 388//401 390//388
f 403//412 391//403 387//400
f 390//388 406//404 404//413
f 415//414 404//413 406//404
f 403//412 405//415 391//403
f 405//415 407//405 391//403
f 415//414 406//404 394//393
f 394//393 406//404 392//390
f 394//393 392//390 361//360
f 407//405 393//406 380//392
f 408//416 382//394 396//395
f 396//395 395//376 393//406
f 416//407 382//394 408//416
f 398//408 397//397 399//396
f 399//396 409//409 410//417
f 398//408 399//396 410//417
f 409//409 412//418 410//417
f 398//408 410//417 411//419
f 400//410 398//408 411//419
f 409//409 384//398 412//418
f 400//410 403//412 386//399
f 403//412 400//410 411//419
f 384//398 402//411 412//418
f 417//420 403//412 411//419
f 418//421 412//418 402//411
f 417//420 405//415 403//412
f 401//402 404//413 413//422
f 413//422 402//411 401//402
f 413//422 404//413 415//414
f 407//405 405//415 414//423
f 415//414 394//393 416//407
f 421//424 423//425 393//406
f 414//423 421//424 393//406
f 393//406 407//405 414//423
f 423//425 396//395 393//406
f 408//416 396//395 423//425
f 410//417 417//420 411//419
f 410//417 412//418 417//420
f 412//418 419//426 417//420
f 418//421 419//426 412//418
f 418//421 402//411 422//427
f 419//426 421//424 417//420
f 418//421 420//428 419//426
f 402//411 413//422 422//427
f 421//424 405//415 417//420
f 419//426 420//428 421//424
f 413//422 415//414 422//427
f 421//424 414//423 405//415
f 416//407 422//427 415//414
f 422//427 420//428 418//421
f 421//424 420//428 423//425
f 420//428 422//427 416//407
f 420//428 416//407 408//416
f 420//428 408//416 423//425
