# Blender 4.0.2
# www.blender.org
mtllib rib9_l.mtl
o rib9_l.002
v 0.000413 0.008554 0.001654
v 0.003306 0.009670 0.000698
v 0.002505 0.006300 0.001506
v 0.003802 0.010612 -0.000516
v 0.005638 0.009672 -0.000261
v 0.005233 0.008070 0.000633
v 0.006254 0.008961 -0.001298
v 0.006911 0.005503 -0.000049
v 0.006813 0.008456 -0.000539
v 0.008049 0.005564 -0.001215
v 0.007746 0.000300 -0.001386
v 0.008421 0.003484 -0.001343
v 0.008577 0.003280 -0.002770
v 0.000553 0.009327 0.001122
v -0.000489 0.007062 0.001487
v 0.004688 0.010241 -0.001129
v 0.004762 -0.001878 -0.000572
v 0.003065 -0.002277 -0.000530
v 0.006199 -0.003032 -0.001883
v 0.007960 -0.000901 -0.002955
v 0.008286 0.000283 -0.002382
v 0.008864 0.001992 -0.002732
v -0.002890 0.008295 -0.000702
v -0.001419 0.009468 0.000019
v -0.001316 0.003971 0.000672
v 0.001118 -0.001900 -0.000642
v 0.004862 -0.003623 -0.001850
v 0.005453 -0.003315 -0.005217
v -0.002362 0.010275 -0.002348
v -0.000307 0.010835 -0.002235
v -0.003618 0.005042 -0.001113
v -0.001609 0.001229 -0.000425
v 0.001224 0.005059 -0.004419
v -0.000773 -0.001476 -0.001761
v 0.004505 0.000666 -0.005358
v 0.003512 -0.004390 -0.005823
v 0.005029 -0.002846 -0.005942
v -0.003241 0.002971 -0.000927
v -0.002415 0.009218 -0.004488
v -0.003172 0.001158 -0.002793
v 0.000074 -0.003212 -0.004843
v 0.001299 -0.005043 -0.007588
v -0.005723 0.008344 -0.005432
v -0.005635 0.003340 -0.003896
v -0.004386 -0.002868 -0.005547
v 0.000088 0.003668 -0.005710
v -0.003061 -0.003063 -0.005076
v 0.001605 -0.001359 -0.008543
v -0.005152 0.008531 -0.006287
v -0.006435 0.000275 -0.006446
v -0.002278 -0.004562 -0.007846
v 0.000356 -0.005242 -0.007652
v -0.007972 0.006150 -0.008260
v -0.003575 0.001210 -0.010123
v -0.005721 -0.004606 -0.007405
v -0.005374 -0.006433 -0.009149
v -0.000757 -0.005136 -0.010763
v -0.009402 0.000893 -0.007658
v -0.002071 -0.006858 -0.010375
v -0.008369 -0.002868 -0.008301
v -0.007832 -0.007150 -0.016660
v -0.009514 0.003517 -0.012176
v -0.011697 -0.002174 -0.009136
v -0.008680 0.000963 -0.014667
v -0.008050 -0.007000 -0.009209
v -0.005316 -0.009725 -0.013750
v -0.012284 -0.001385 -0.010728
v -0.011964 -0.005024 -0.008701
v -0.010773 -0.007022 -0.009093
v -0.008463 -0.009262 -0.010786
v -0.007375 -0.010067 -0.012269
v -0.006778 -0.009859 -0.013231
v -0.015782 -0.004383 -0.011550
v -0.013214 -0.007023 -0.009883
v -0.010403 -0.009609 -0.011706
v -0.016826 -0.007632 -0.011215
v -0.012788 -0.001611 -0.013104
v -0.014582 -0.009398 -0.011534
v -0.009657 -0.012370 -0.015999
v -0.017439 -0.005206 -0.012135
v -0.012337 -0.000124 -0.016113
v -0.009765 -0.012606 -0.014798
v -0.010121 -0.013047 -0.017609
v -0.019887 -0.008377 -0.013618
v -0.018326 -0.006164 -0.018633
v -0.011527 -0.000127 -0.016775
v -0.013124 -0.014032 -0.015731
v -0.011510 -0.013684 -0.016004
v -0.010501 -0.012660 -0.016526
v -0.011778 -0.012802 -0.017460
v -0.009550 -0.011573 -0.018814
v -0.019972 -0.007244 -0.013795
v -0.018316 -0.010709 -0.014341
v -0.014776 -0.013438 -0.016111
v -0.019642 -0.006646 -0.014295
v -0.017033 -0.004847 -0.024503
v -0.016078 -0.013171 -0.017404
v -0.019684 -0.011877 -0.017193
v -0.020642 -0.010180 -0.017967
v -0.018280 -0.004810 -0.024702
v -0.015205 -0.004847 -0.023303
v -0.020118 -0.013132 -0.018663
v -0.016770 -0.013705 -0.018540
v -0.015453 -0.013220 -0.019414
v -0.019799 -0.008035 -0.019785
v -0.018453 -0.015728 -0.020093
v -0.019807 -0.016150 -0.020580
v -0.022716 -0.008589 -0.027962
v -0.021713 -0.011393 -0.020708
v -0.018000 -0.015631 -0.022732
v -0.015473 -0.017103 -0.023000
v -0.017190 -0.018299 -0.026163
v -0.014476 -0.013466 -0.023921
v -0.022128 -0.015985 -0.022535
v -0.020144 -0.016785 -0.022507
v -0.019501 -0.018053 -0.024924
v -0.018063 -0.017513 -0.028279
v -0.019804 -0.009970 -0.028951
v -0.022955 -0.021562 -0.028085
v -0.021613 -0.008567 -0.028784
v -0.026755 -0.019794 -0.029108
v -0.021445 -0.022908 -0.029849
v -0.028617 -0.016488 -0.031786
v -0.021493 -0.014360 -0.032602
v -0.021718 -0.023934 -0.031499
v -0.026481 -0.012009 -0.030644
v -0.026977 -0.025276 -0.032177
v -0.020788 -0.022198 -0.032316
v -0.025070 -0.011872 -0.033398
v -0.023765 -0.012950 -0.034186
v -0.024604 -0.027009 -0.032667
v 0.088477 -0.115825 -0.097493
v 0.090636 -0.112466 -0.098771
v 0.090626 -0.113039 -0.098699
v 0.091604 -0.111368 -0.100073
v 0.086114 -0.121144 -0.097440
v 0.087717 -0.118088 -0.097501
v 0.091650 -0.111363 -0.100206
v 0.092233 -0.110996 -0.100966
v 0.092802 -0.111093 -0.102082
v 0.090072 -0.116886 -0.101315
v 0.093596 -0.112366 -0.103350
v -0.023873 -0.018527 -0.038435
v -0.024964 -0.017242 -0.039401
v 0.084376 -0.108830 -0.103029
v 0.086095 -0.123664 -0.099308
v 0.093255 -0.111962 -0.103628
v 0.093465 -0.114659 -0.104442
v 0.093679 -0.112926 -0.103876
v 0.093592 -0.112885 -0.104233
v 0.093413 -0.111985 -0.103258
v 0.093511 -0.112364 -0.103329
v -0.028385 -0.014167 -0.035267
v -0.024323 -0.029787 -0.038987
v -0.023439 -0.027006 -0.040037
v 0.083401 -0.111943 -0.101163
v 0.082315 -0.118755 -0.098963
v 0.085277 -0.106627 -0.105604
v 0.086052 -0.123640 -0.099311
v 0.086039 -0.123857 -0.099700
v 0.086342 -0.124217 -0.100566
v 0.092938 -0.114559 -0.105236
v 0.086729 -0.124514 -0.101308
v 0.086609 -0.124391 -0.101065
v 0.091483 -0.119184 -0.105115
v -0.030613 -0.018585 -0.036877
v -0.028627 -0.016631 -0.040906
v -0.029736 -0.027502 -0.036069
v 0.078984 -0.119412 -0.101133
v 0.085530 -0.107034 -0.106871
v 0.088487 -0.113493 -0.107020
v 0.087247 -0.124444 -0.102135
v 0.088442 -0.124003 -0.103483
v 0.089496 -0.118324 -0.106166
v 0.088767 -0.123490 -0.104106
v 0.089570 -0.122653 -0.104348
v 0.090725 -0.120985 -0.104912
v -0.031436 -0.019416 -0.041916
v -0.026300 -0.030932 -0.037336
v 0.075629 -0.115961 -0.102034
v 0.080707 -0.121779 -0.104083
v 0.085780 -0.122656 -0.105030
v -0.026980 -0.036123 -0.042046
v 0.077072 -0.107711 -0.104285
v 0.079791 -0.121108 -0.102546
v 0.085359 -0.108549 -0.107932
v -0.032251 -0.023064 -0.040064
v -0.028684 -0.017588 -0.043002
v -0.029902 -0.035354 -0.041565
v -0.027369 -0.035240 -0.040838
v 0.074090 -0.111567 -0.103531
v 0.079472 -0.104313 -0.106419
v 0.079105 -0.103539 -0.107689
v -0.029680 -0.017723 -0.042968
v -0.031694 -0.034928 -0.043017
v -0.026712 -0.023394 -0.048669
v -0.025274 -0.023677 -0.045838
v 0.072428 -0.117035 -0.106364
v 0.075547 -0.118606 -0.106585
v -0.029649 -0.021641 -0.048057
v -0.028811 -0.039628 -0.045714
v -0.024859 -0.033686 -0.045848
v -0.024454 -0.032671 -0.048480
v 0.068769 -0.106676 -0.105083
v 0.073821 -0.102431 -0.106611
v 0.075352 -0.104926 -0.110501
v 0.074437 -0.113875 -0.109132
v -0.031651 -0.022116 -0.047639
v -0.030894 -0.039102 -0.046014
v -0.025555 -0.027395 -0.050831
v 0.070792 -0.099031 -0.107787
v 0.064219 -0.110539 -0.105331
v 0.061699 -0.110470 -0.108039
v 0.070703 -0.114275 -0.109043
v -0.033955 -0.029090 -0.046925
v -0.034142 -0.026704 -0.048276
v -0.027975 -0.041273 -0.048069
v 0.064874 -0.096974 -0.107051
v 0.075216 -0.101710 -0.109480
v -0.032985 -0.036001 -0.047394
v -0.028743 -0.044289 -0.052249
v -0.024979 -0.037893 -0.052688
v -0.024171 -0.034524 -0.053888
v 0.062870 -0.108282 -0.105037
v 0.068471 -0.098675 -0.110898
v -0.031490 -0.022981 -0.050354
v -0.034431 -0.031796 -0.050932
v -0.027404 -0.026862 -0.054943
v -0.031980 -0.041200 -0.050064
v -0.025203 -0.029710 -0.055762
v -0.029848 -0.044421 -0.052702
v 0.057731 -0.096896 -0.105980
v 0.062526 -0.093455 -0.108473
v 0.064145 -0.094952 -0.109991
v 0.066343 -0.112938 -0.108765
v -0.033694 -0.026446 -0.052050
v -0.034528 -0.031392 -0.053290
v -0.030341 -0.023550 -0.052166
v -0.032930 -0.040330 -0.052151
v -0.022739 -0.034894 -0.063371
v -0.027180 -0.047438 -0.058013
v -0.025611 -0.044918 -0.058554
v -0.022855 -0.039500 -0.059672
v 0.054116 -0.089154 -0.106612
v 0.052482 -0.103182 -0.105807
v -0.032580 -0.028379 -0.056469
v -0.029388 -0.026978 -0.056207
v -0.031339 -0.044846 -0.056636
v -0.030520 -0.045838 -0.055688
v -0.022603 -0.035803 -0.061425
v -0.023495 -0.042378 -0.059215
v 0.055750 -0.088961 -0.107857
v 0.051654 -0.104096 -0.106703
v 0.060832 -0.094773 -0.111179
v 0.061164 -0.098793 -0.111669
v 0.058010 -0.106849 -0.110542
v -0.033580 -0.029929 -0.056207
v -0.026685 -0.032636 -0.064154
v -0.023938 -0.033565 -0.063224
v 0.052969 -0.088126 -0.109581
v 0.044707 -0.100971 -0.107977
v 0.054761 -0.106386 -0.109589
v -0.033306 -0.036259 -0.057872
v -0.032237 -0.040983 -0.058417
v -0.027229 -0.049467 -0.060270
v 0.037649 -0.079744 -0.103301
v 0.044581 -0.086935 -0.104144
v 0.051657 -0.086535 -0.107762
v 0.051659 -0.089733 -0.110643
v 0.052513 -0.093267 -0.111178
v -0.032053 -0.033464 -0.060882
v -0.024931 -0.033886 -0.065966
v -0.028325 -0.049649 -0.061458
v -0.024110 -0.051211 -0.063829
v -0.022109 -0.048915 -0.065209
v -0.018407 -0.041204 -0.069299
v -0.019336 -0.048700 -0.067614
v -0.016281 -0.047724 -0.071770
v 0.046479 -0.100275 -0.105674
v -0.018629 -0.039459 -0.071356
v -0.024419 -0.052572 -0.066391
v -0.022679 -0.052861 -0.067636
v -0.019881 -0.052824 -0.070370
v 0.033268 -0.078609 -0.101377
v 0.038352 -0.079439 -0.104364
v 0.036704 -0.087545 -0.102797
v -0.026125 -0.038198 -0.070958
v -0.029249 -0.045437 -0.065552
v -0.026311 -0.051651 -0.065860
v -0.014198 -0.044540 -0.075116
v -0.015947 -0.052347 -0.072387
v 0.023187 -0.068622 -0.099701
v 0.038501 -0.096513 -0.105051
v 0.042677 -0.085142 -0.109105
v 0.046582 -0.100345 -0.110261
v -0.028958 -0.039414 -0.067882
v -0.025172 -0.035943 -0.069347
v -0.027030 -0.049931 -0.067887
v -0.020484 -0.039128 -0.074449
v -0.022357 -0.055283 -0.071206
v -0.013260 -0.043609 -0.079084
v -0.021142 -0.054586 -0.070191
v -0.011514 -0.045760 -0.078703
v -0.013578 -0.054764 -0.075075
v -0.010361 -0.049268 -0.078094
v -0.014732 -0.057036 -0.075644
v -0.007770 -0.048013 -0.081523
v -0.007455 -0.052653 -0.079823
v -0.005943 -0.059205 -0.081884
v 0.015873 -0.066512 -0.095097
v 0.036441 -0.078500 -0.105158
v 0.035997 -0.079692 -0.106645
v 0.028048 -0.089516 -0.102002
v -0.026342 -0.047808 -0.071235
v -0.020101 -0.041084 -0.077190
v -0.021444 -0.056393 -0.073690
v -0.018367 -0.057741 -0.073351
v -0.015565 -0.060181 -0.075997
v -0.007298 -0.046972 -0.084018
v -0.008099 -0.061234 -0.081988
v -0.002814 -0.051319 -0.085736
v -0.003895 -0.055691 -0.082985
v 0.000814 -0.059330 -0.086265
v 0.008506 -0.062283 -0.091488
v 0.010507 -0.060983 -0.093684
v 0.005744 -0.063625 -0.089918
v 0.014633 -0.071326 -0.094574
v 0.022305 -0.068487 -0.100905
v 0.037059 -0.087724 -0.108707
v 0.026206 -0.091650 -0.104565
v 0.030608 -0.094200 -0.106514
v 0.035108 -0.095366 -0.108449
v -0.024615 -0.044400 -0.074444
v -0.015744 -0.042584 -0.079271
v -0.018113 -0.059910 -0.076348
v -0.009416 -0.046095 -0.084622
v -0.015221 -0.061871 -0.078583
v -0.007788 -0.063296 -0.082896
v -0.002778 -0.050531 -0.087423
v -0.003911 -0.063836 -0.084683
v 0.005690 -0.056817 -0.091579
v 0.002162 -0.068666 -0.089582
v 0.005091 -0.056045 -0.092897
v 0.009593 -0.060244 -0.095085
v 0.011113 -0.075046 -0.094458
v 0.015185 -0.065028 -0.099438
v 0.020076 -0.083177 -0.098992
v 0.023375 -0.071103 -0.103134
v -0.022386 -0.042380 -0.076587
v -0.017986 -0.055803 -0.079997
v -0.010348 -0.046642 -0.085569
v -0.011792 -0.064084 -0.082826
v -0.009830 -0.064325 -0.082519
v 0.003199 -0.055512 -0.093392
v -0.005630 -0.067704 -0.086878
v 0.010859 -0.079040 -0.096647
v 0.023931 -0.079076 -0.105080
v 0.021729 -0.088756 -0.102841
v 0.027315 -0.090865 -0.106279
v -0.018611 -0.051381 -0.081096
v -0.018116 -0.046558 -0.081873
v -0.012366 -0.046942 -0.085211
v -0.005942 -0.051198 -0.089694
v -0.006261 -0.068534 -0.087889
v -0.004156 -0.070225 -0.089327
v 0.009436 -0.064001 -0.098482
v 0.007777 -0.060474 -0.096348
v 0.002156 -0.073490 -0.092259
v 0.016021 -0.070678 -0.101875
v 0.015365 -0.083699 -0.100160
v 0.017037 -0.084805 -0.102276
v 0.022491 -0.089411 -0.103984
v -0.013550 -0.050234 -0.086044
v -0.009912 -0.059547 -0.088366
v -0.006535 -0.057023 -0.091123
v -0.007345 -0.065782 -0.088825
v -0.000634 -0.056074 -0.093513
v -0.007023 -0.067933 -0.088256
v 0.005367 -0.065057 -0.097469
v 0.000076 -0.072628 -0.092742
v 0.004413 -0.070923 -0.096453
v 0.008019 -0.078043 -0.096685
v 0.015033 -0.083439 -0.100742
v 0.093557 -0.112335 -0.103305
v 0.093413 -0.111985 -0.103258
v 0.089562 -0.122655 -0.104347
vn 0.3907 0.1824 0.9023
vn -0.1712 0.2906 0.9414
vn 0.1368 -0.0895 0.9865
vn 0.5775 0.6968 0.4254
vn 0.1709 0.5572 0.8126
vn 0.1798 0.9559 0.2322
vn 0.8384 0.4464 0.3128
vn 0.5933 0.5876 -0.5502
vn 0.4144 0.7889 -0.4539
vn 0.5168 -0.0169 0.8559
vn 0.2343 -0.3504 0.9068
vn 0.6513 -0.2690 0.7095
vn 0.9287 0.3088 0.2053
vn 0.8475 0.0045 0.5307
vn 0.7756 0.2968 -0.5571
vn 0.9644 -0.0400 -0.2612
vn 0.8961 -0.3148 0.3130
vn -0.7209 0.3103 0.6197
vn -0.3706 -0.0076 0.9288
vn -0.1488 0.7273 0.6700
vn -0.3698 -0.1879 0.9099
vn -0.0688 -0.3817 0.9217
vn 0.1465 -0.8766 0.4584
vn 0.5917 -0.6921 0.4133
vn 0.9000 -0.4194 -0.1185
vn 0.6983 -0.6181 -0.3610
vn -0.4635 0.6295 0.6235
vn -0.7485 0.0207 0.6629
vn -0.0207 0.9852 -0.1702
vn -0.2669 -0.6074 0.7482
vn -0.5382 -0.4106 0.7361
vn 0.3653 0.3950 -0.8429
vn 0.4020 -0.9063 -0.1302
vn 0.6831 -0.1076 -0.7223
vn -0.4568 0.8840 0.0989
vn -0.6897 -0.2842 0.6660
vn -0.5017 -0.6404 0.5815
vn -0.6869 -0.4200 0.5931
vn -0.2130 -0.8670 0.4504
vn 0.4602 0.3360 -0.8218
vn 0.3133 -0.9464 0.0783
vn -0.7433 0.6373 0.2035
vn 0.2495 0.6986 -0.6706
vn -0.5428 -0.4150 0.7301
vn 0.5537 0.3004 -0.7767
vn -0.1319 0.8701 -0.4749
vn -0.6816 -0.2434 0.6901
vn 0.4265 0.4781 -0.7678
vn -0.1670 -0.8038 0.5709
vn -0.0004 -0.8495 0.5275
vn -0.5322 -0.3522 0.7699
vn 0.0011 -0.8156 0.5786
vn 0.7151 -0.2802 -0.6404
vn -0.7562 0.6526 0.0468
vn -0.6438 -0.0001 0.7652
vn 0.5426 0.4071 -0.7347
vn 0.4825 0.4792 -0.7332
vn -0.3331 -0.4890 0.8061
vn 0.1826 -0.7373 0.6505
vn 0.4542 -0.8549 0.2507
vn 0.0033 -0.4726 0.8813
vn 0.6399 0.1827 -0.7464
vn -0.5528 0.7644 -0.3318
vn -0.3095 -0.1906 0.9316
vn -0.5628 0.2294 0.7941
vn -0.7869 0.5299 0.3162
vn -0.3008 -0.0501 0.9524
vn -0.1079 -0.4604 0.8811
vn 0.0691 -0.7122 0.6986
vn 0.4374 -0.8066 0.3976
vn -0.7645 0.6344 0.1138
vn 0.4819 -0.7595 0.4370
vn 0.6166 -0.7873 0.0039
vn -0.6410 0.5886 0.4927
vn -0.4718 -0.1996 0.8588
vn -0.0350 0.8286 -0.5588
vn -0.2126 -0.4762 0.8532
vn -0.1064 -0.6954 0.7107
vn 0.4727 -0.8770 0.0858
vn 0.4407 -0.8938 0.0825
vn -0.7247 0.6863 0.0622
vn -0.6063 0.7868 -0.1155
vn -0.1742 -0.6058 0.7763
vn 0.4323 -0.8452 0.3142
vn 0.7690 -0.2663 -0.5812
vn -0.5943 0.6418 0.4847
vn -0.4295 -0.6616 0.6146
vn 0.5873 0.3669 -0.7214
vn -0.1082 -0.9893 0.0980
vn 0.3310 -0.9352 -0.1259
vn -0.8794 0.2846 0.3817
vn -0.7391 0.6729 0.0294
vn -0.7788 -0.2384 0.5803
vn -0.3097 0.8660 -0.3925
vn -0.2223 -0.9601 0.1698
vn 0.5014 -0.7306 -0.4635
vn 0.0276 -0.9916 0.1261
vn 0.3142 0.6265 -0.7133
vn -0.0705 -0.9836 0.1661
vn 0.3652 -0.8704 0.3300
vn -0.9795 0.0655 0.1903
vn -0.3024 -0.7282 0.6151
vn 0.0893 -0.8936 0.4399
vn 0.7414 0.0052 -0.6710
vn -0.8614 0.4874 0.1430
vn -0.5757 -0.4822 0.6603
vn -0.5926 0.7989 -0.1030
vn 0.2023 -0.8495 0.4873
vn -0.2024 -0.7912 0.5771
vn 0.2680 -0.8143 0.5148
vn -0.8878 0.1158 0.4454
vn 0.0599 -0.7991 0.5982
vn 0.8435 -0.4215 -0.3329
vn -0.6003 -0.4545 0.6581
vn 0.5821 0.3856 -0.7159
vn 0.0810 -0.7515 0.6548
vn 0.0778 -0.8763 0.4755
vn 0.7698 0.2188 -0.5996
vn -0.7787 -0.1983 0.5952
vn 0.8405 -0.0867 -0.5348
vn 0.0236 -0.7090 0.7048
vn 0.0087 0.7768 -0.6297
vn 0.3655 -0.7518 0.5488
vn -0.8038 0.5747 0.1539
vn -0.4719 -0.5026 0.7244
vn 0.9256 -0.2369 -0.2951
vn 0.7574 -0.6324 0.1626
vn -0.9113 0.1573 0.3805
vn -0.1062 0.8490 -0.5175
vn 0.4641 0.6166 -0.6360
vn -0.7241 0.6829 -0.0967
vn 0.1622 -0.7617 0.6272
vn 0.7323 -0.1166 0.6709
vn 0.1913 0.0943 0.9770
vn 0.3858 -0.1784 0.9052
vn 0.3227 0.4226 0.8469
vn 0.8056 -0.4879 0.3362
vn 0.8086 -0.3591 0.4661
vn 0.0887 -0.3716 0.9242
vn -0.4140 -0.0405 0.9094
vn 0.7055 0.4463 0.5505
vn 0.1808 0.7464 0.6405
vn 0.7895 0.5887 0.1734
vn 0.8210 -0.1946 0.5367
vn 0.5404 0.6870 -0.4858
vn 0.7063 0.6132 -0.3538
vn 0.9035 0.3925 0.1719
vn 0.7501 0.5984 -0.2816
vn 0.6762 0.4978 -0.5431
vn 0.8786 0.2165 -0.4257
vn 0.8590 -0.4694 0.2044
vn 0.3239 -0.7017 0.6346
vn -0.2360 0.4341 0.8694
vn -0.0323 0.6500 0.7592
vn 0.3805 0.8909 0.2478
vn -0.4846 -0.6001 0.6364
vn 0.4975 -0.5854 0.6401
vn 0.7761 -0.4196 0.4708
vn 0.9630 -0.2689 -0.0184
vn 0.8595 -0.3903 -0.3299
vn 0.9970 0.0425 0.0641
vn 0.8193 0.2816 -0.4995
vn 0.8534 0.3965 -0.3383
vn 0.8842 0.4334 -0.1741
vn 0.6314 -0.0244 -0.7751
vn -0.3714 0.8605 -0.3486
vn -0.7693 -0.2876 0.5705
vn 0.9839 -0.0990 -0.1490
vn -0.5408 -0.4988 0.6773
vn -0.9263 -0.3429 -0.1561
vn -0.2659 -0.8864 0.3790
vn -0.4197 -0.9073 -0.0241
vn -0.3761 -0.9020 -0.2118
vn 0.4914 -0.8691 -0.0571
vn 0.7803 -0.5278 -0.3356
vn 0.2463 -0.2256 -0.9426
vn 0.2844 -0.0458 -0.9576
vn -0.9576 0.0650 0.2808
vn -0.9398 0.2766 0.2008
vn -0.2660 0.1088 0.9578
vn 0.2015 0.7177 0.6666
vn 0.2091 -0.9779 -0.0056
vn -0.0551 -0.6616 -0.7478
vn 0.6938 -0.6103 -0.3824
vn 0.3646 -0.6990 -0.6152
vn 0.1697 -0.4295 -0.8870
vn -0.8665 0.4954 -0.0605
vn 0.1392 0.8207 -0.5541
vn -0.0663 0.4007 0.9138
vn -0.5310 -0.7942 0.2953
vn -0.4068 -0.5940 0.6941
vn 0.1403 -0.6762 0.7232
vn 0.5923 -0.6510 0.4748
vn 0.4637 0.8819 0.0846
vn 0.4003 0.2382 -0.8849
vn -0.3038 -0.7884 -0.5349
vn 0.0545 -0.2592 -0.9643
vn -0.4676 0.8106 -0.3524
vn 0.6373 0.6156 -0.4636
vn 0.9164 0.2533 -0.3101
vn 0.9999 -0.0133 0.0020
vn -0.0445 0.2936 0.9549
vn -0.0058 0.2470 0.9690
vn -0.5159 -0.8567 -0.0014
vn 0.4623 0.6604 -0.5917
vn 0.1964 0.0577 -0.9788
vn -0.8018 -0.3476 0.4861
vn -0.0411 -0.7736 0.6324
vn 0.9353 -0.3227 0.1456
vn -0.9792 0.1996 0.0375
vn -0.5782 0.7377 -0.3486
vn 0.0368 0.8402 -0.5411
vn 0.9244 0.3219 -0.2044
vn 0.0847 0.3834 0.9197
vn -0.4977 -0.8574 0.1307
vn -0.1168 -0.4491 -0.8858
vn -0.9697 -0.0661 0.2353
vn -0.9310 -0.2420 0.2734
vn -0.5294 -0.6387 0.5585
vn 0.5044 -0.7066 0.4962
vn 0.2250 0.3832 0.8959
vn 0.4427 0.7435 0.5013
vn -0.1558 -0.0695 0.9853
vn -0.4705 -0.5456 0.6935
vn -0.0368 0.8333 -0.5516
vn -0.7340 -0.5599 0.3844
vn 0.9897 0.0438 0.1362
vn 0.5360 0.8124 0.2295
vn 0.2839 0.3791 -0.8807
vn -0.3664 -0.7151 -0.5953
vn -0.9904 -0.0967 0.0990
vn -0.8569 0.4408 -0.2673
vn -0.4982 0.7857 -0.3666
vn 0.5422 0.7270 -0.4214
vn -0.3206 -0.7959 0.5136
vn 0.8794 0.4664 -0.0958
vn 0.0806 -0.8293 0.5529
vn 0.9214 -0.2799 0.2696
vn 0.4308 0.7186 -0.5459
vn -0.1506 -0.2647 0.9525
vn 0.7018 -0.5027 0.5048
vn 0.3771 0.4031 0.8339
vn 0.0979 0.0918 0.9909
vn 0.0171 -0.0047 -0.9998
vn -0.9934 0.0136 -0.1142
vn 0.0052 0.7919 -0.6107
vn -0.9434 -0.3159 0.1005
vn 0.5853 0.7667 -0.2639
vn 0.9319 -0.0284 0.3616
vn 0.9494 0.2404 0.2023
vn 0.7674 -0.4090 0.4939
vn 0.8037 -0.3013 0.5131
vn -0.3585 -0.6254 0.6931
vn -0.1698 -0.3962 -0.9023
vn -0.8871 0.2572 -0.3832
vn -0.5775 0.5963 -0.5577
vn -0.9029 -0.4299 -0.0040
vn 0.8345 0.5497 0.0380
vn -0.6093 -0.7267 0.3173
vn 0.5535 0.8161 0.1661
vn 0.3154 0.6711 -0.6709
vn 0.1780 0.3435 -0.9221
vn -0.4614 -0.8726 0.1605
vn -0.4274 -0.7522 -0.5015
vn 0.1061 0.8570 -0.5043
vn 0.0002 -0.8462 0.5329
vn 0.8042 0.0193 0.5940
vn 0.2333 0.0957 0.9677
vn -0.9662 -0.0953 -0.2395
vn -0.8324 0.2329 -0.5029
vn -0.9556 -0.2325 -0.1813
vn 0.2839 0.8748 -0.3925
vn 0.8914 0.2808 0.3557
vn 0.6739 -0.4273 0.6027
vn 0.7004 -0.3421 0.6264
vn 0.5092 0.4770 0.7164
vn 0.1534 -0.1484 0.9770
vn -0.1875 -0.4894 0.8516
vn 0.4643 0.8754 -0.1343
vn 0.0360 0.3046 -0.9518
vn -0.0618 0.0623 -0.9961
vn -0.9248 -0.2297 -0.3032
vn -0.6536 -0.7451 0.1326
vn 0.7208 0.6920 0.0390
vn 0.4706 -0.6759 0.5671
vn -0.0914 -0.9073 0.4105
vn 0.3772 0.0857 0.9222
vn 0.5267 0.8177 0.2325
vn -0.2528 -0.3065 -0.9177
vn 0.5102 -0.5892 0.6265
vn 0.8108 0.3462 0.4718
vn 0.5399 -0.4365 0.7197
vn 0.3973 0.7958 -0.4570
vn 0.2027 0.6308 -0.7490
vn -0.0148 0.3255 -0.9454
vn -0.8552 0.0814 -0.5119
vn -0.6080 0.4332 -0.6653
vn -0.2208 0.7665 -0.6031
vn -0.8718 -0.4099 -0.2684
vn -0.6504 -0.7584 0.0437
vn 0.5856 0.8070 0.0757
vn 0.3232 -0.6285 0.7074
vn 0.6099 -0.2536 0.7508
vn 0.3316 -0.1253 0.9351
vn 0.5756 0.8113 0.1023
vn -0.1837 -0.5790 0.7944
vn 0.1906 0.8826 -0.4298
vn -0.8017 -0.5529 -0.2272
vn -0.5892 -0.7634 0.2645
vn 0.7337 0.5055 0.4541
vn 0.1959 -0.6190 0.7606
vn 0.5173 -0.3404 0.7852
vn 0.7089 0.2370 0.6643
vn 0.5484 -0.3148 0.7747
vn 0.6885 0.1001 0.7183
vn 0.7141 0.4645 0.5237
vn 0.4979 -0.2613 0.8269
vn 0.6481 0.0815 0.7572
vn 0.4543 0.1360 0.8804
vn 0.6390 0.6281 0.4441
vn 0.3404 0.8133 -0.4718
vn -0.0348 -0.4807 0.8762
vn -0.4030 -0.8480 0.3442
vn -0.1779 0.0849 -0.9804
vn -0.3475 -0.4003 -0.8479
vn -0.8583 -0.2113 -0.4676
vn -0.2551 0.6795 -0.6879
vn 0.2167 0.8960 -0.3877
vn -0.6133 -0.7880 0.0536
vn 0.2424 -0.6176 0.7482
vn 0.6046 0.7945 0.0561
vn 0.4559 -0.3563 0.8156
vn 0.7210 0.4698 0.5093
vn 0.5263 -0.1262 0.8409
vn 0.7022 0.5815 0.4108
vn 0.3822 -0.4021 0.8320
vn 0.5564 0.1889 0.8092
vn 0.4492 -0.1370 0.8828
vn 0.1988 -0.3651 0.9095
vn 0.0148 -0.4533 0.8912
vn 0.0623 0.4925 -0.8681
vn -0.4230 -0.7831 0.4560
vn -0.5062 -0.8176 -0.2743
vn -0.7953 0.0139 -0.6060
vn -0.6282 0.3198 -0.7093
vn -0.7813 -0.3214 -0.5350
vn 0.2610 0.8859 -0.3834
vn -0.3202 -0.9050 0.2800
vn 0.4021 -0.4340 0.8062
vn 0.1341 -0.7433 0.6554
vn 0.6035 0.7968 0.0289
vn 0.1128 -0.6650 0.7383
vn 0.3022 -0.3610 0.8823
vn 0.5453 0.8004 -0.2491
vn 0.4842 0.8237 -0.2949
vn 0.1498 0.6827 -0.7152
vn -0.1151 -0.6375 0.7618
vn -0.2537 0.1051 -0.9616
vn -0.7568 -0.1454 -0.6373
vn -0.6062 0.2352 -0.7597
vn -0.3259 0.5129 -0.7942
vn -0.0590 0.7125 -0.6992
vn -0.5987 -0.7993 -0.0523
vn -0.3993 -0.8466 0.3519
vn 0.1722 0.7179 -0.6745
vn 0.1544 0.6391 -0.7535
vn -0.1442 -0.7525 0.6426
vn -0.1715 0.3517 -0.9203
vn -0.2616 0.1675 -0.9505
vn -0.4195 -0.8052 0.4191
vn -0.6033 -0.6809 -0.4153
vn -0.3966 -0.2030 -0.8953
vn -0.1904 0.5020 -0.8436
vn -0.6912 -0.2395 -0.6818
vn -0.7324 -0.5631 -0.3827
vn -0.2305 0.3708 -0.8996
vn -0.4451 -0.8670 0.2240
vn -0.6311 -0.7586 -0.1622
vn -0.7052 -0.6399 -0.3054
vn -0.6097 -0.4017 -0.6832
vn -0.3973 0.0703 -0.9150
vn -0.6641 -0.1714 -0.7277
vn -0.5532 0.1467 -0.8200
vn -0.5011 0.0522 -0.8638
vn -0.5417 -0.1571 -0.8258
vn -0.6246 -0.6710 -0.3996
s 1
usemtl mtl1.1063
f 6//1 1//2 3//3
f 6//1 5//4 2//5
f 1//2 6//1 2//5
f 2//5 5//4 4//6
f 5//4 6//1 9//7
f 7//8 5//4 9//7
f 5//4 16//9 4//6
f 16//9 5//4 7//8
f 6//1 3//3 8//10
f 3//3 17//11 11//12
f 3//3 11//12 8//10
f 6//1 8//10 9//7
f 9//7 8//10 10//13
f 10//13 8//10 12//14
f 7//8 9//7 13//15
f 8//10 11//12 12//14
f 13//15 9//7 10//13
f 22//16 10//13 12//14
f 10//13 22//16 13//15
f 11//12 22//16 12//14
f 11//12 21//17 22//16
f 1//2 23//18 15//19
f 3//3 1//2 15//19
f 2//5 14//20 1//2
f 4//6 14//20 2//5
f 25//21 3//3 15//19
f 17//11 3//3 25//21
f 18//22 27//23 17//11
f 11//12 17//11 19//24
f 17//11 27//23 19//24
f 20//25 19//24 28//26
f 11//12 20//25 21//17
f 20//25 11//12 19//24
f 21//17 20//25 22//16
f 1//2 24//27 23//18
f 1//2 14//20 24//27
f 4//6 24//27 14//20
f 25//21 15//19 31//28
f 30//29 24//27 4//6
f 4//6 16//9 30//29
f 26//30 25//21 32//31
f 33//32 16//9 7//8
f 33//32 7//8 13//15
f 25//21 26//30 17//11
f 17//11 26//30 18//22
f 26//30 27//23 18//22
f 36//33 19//24 27//23
f 36//33 28//26 19//24
f 22//16 20//25 37//34
f 28//26 37//34 20//25
f 23//18 31//28 15//19
f 24//27 29//35 23//18
f 30//29 29//35 24//27
f 38//36 25//21 31//28
f 38//36 32//31 25//21
f 34//37 26//30 32//31
f 40//38 34//37 32//31
f 26//30 34//37 41//39
f 26//30 41//39 27//23
f 33//32 13//15 35//40
f 35//40 13//15 22//16
f 42//41 36//33 27//23
f 35//40 22//16 37//34
f 43//42 23//18 29//35
f 30//29 16//9 39//43
f 16//9 33//32 39//43
f 38//36 40//38 32//31
f 34//37 40//38 45//44
f 42//41 27//23 41//39
f 48//45 33//32 35//40
f 48//45 35//40 37//34
f 49//46 29//35 39//43
f 49//46 43//42 29//35
f 29//35 30//29 39//43
f 44//47 38//36 31//28
f 40//38 38//36 44//47
f 39//43 33//32 46//48
f 45//44 47//49 34//37
f 48//45 46//48 33//32
f 41//39 34//37 47//49
f 41//39 52//50 42//41
f 31//28 23//18 44//47
f 50//51 40//38 44//47
f 40//38 50//51 45//44
f 47//49 51//52 41//39
f 52//50 41//39 51//52
f 42//41 28//26 36//33
f 37//34 28//26 57//53
f 42//41 57//53 28//26
f 48//45 37//34 57//53
f 43//42 53//54 23//18
f 53//54 58//55 23//18
f 46//48 54//56 39//43
f 39//43 54//56 64//57
f 55//58 47//49 45//44
f 55//58 56//59 47//49
f 54//56 46//48 48//45
f 47//49 56//59 51//52
f 59//60 42//41 52//50
f 23//18 58//55 44//47
f 50//51 44//47 58//55
f 56//59 55//58 65//61
f 52//50 51//52 59//60
f 59//60 57//53 42//41
f 61//62 48//45 57//53
f 43//42 49//46 53//54
f 53//54 49//46 62//63
f 58//55 60//64 50//51
f 63//65 60//64 58//55
f 50//51 55//58 45//44
f 55//58 50//51 60//64
f 58//55 53//54 63//65
f 63//65 53//54 67//66
f 49//46 39//43 64//57
f 68//67 60//64 63//65
f 69//68 65//61 68//67
f 60//64 65//61 55//58
f 68//67 65//61 60//64
f 65//61 69//68 70//69
f 65//61 70//69 56//59
f 61//62 54//56 48//45
f 51//52 72//70 59//60
f 56//59 72//70 51//52
f 67//66 53//54 77//71
f 77//71 53//54 62//63
f 70//69 71//72 56//59
f 66//73 59//60 72//70
f 57//53 59//60 66//73
f 73//74 68//67 63//65
f 73//74 76//75 68//67
f 73//74 63//65 67//66
f 49//46 86//76 62//63
f 68//67 74//77 69//68
f 86//76 49//46 64//57
f 69//68 74//77 75//78
f 75//78 70//69 69//68
f 71//72 72//70 56//59
f 72//70 79//79 66//73
f 83//80 66//73 79//79
f 67//66 77//71 73//74
f 85//81 73//74 77//71
f 77//71 62//63 81//82
f 62//63 86//76 81//82
f 76//75 74//77 68//67
f 74//77 78//83 75//78
f 61//62 64//57 54//56
f 70//69 75//78 82//84
f 82//84 71//72 70//69
f 71//72 82//84 72//70
f 82//84 79//79 72//70
f 91//85 61//62 57//53
f 83//80 91//85 66//73
f 57//53 66//73 91//85
f 73//74 80//86 76//75
f 78//83 74//77 76//75
f 93//87 78//83 76//75
f 101//88 64//57 61//62
f 78//83 87//89 75//78
f 75//78 87//89 82//84
f 88//90 82//84 87//89
f 88//90 79//79 82//84
f 92//91 76//75 80//86
f 85//81 80//86 73//74
f 80//86 85//81 95//92
f 84//93 93//87 76//75
f 86//76 100//94 81//82
f 101//88 86//76 64//57
f 93//87 94//95 78//83
f 78//83 94//95 87//89
f 88//90 89//96 79//79
f 88//90 90//97 89//96
f 79//79 90//97 83//80
f 90//97 88//90 87//89
f 92//91 80//86 95//92
f 76//75 92//91 84//93
f 85//81 77//71 81//82
f 96//98 86//76 101//88
f 94//95 90//97 87//89
f 97//99 90//97 94//95
f 111//100 83//80 90//97
f 84//93 92//91 99//101
f 98//102 93//87 84//93
f 93//87 98//102 94//95
f 86//76 96//98 100//94
f 97//99 94//95 98//102
f 90//97 97//99 104//103
f 113//104 61//62 91//85
f 111//100 91//85 83//80
f 95//92 105//105 92//91
f 99//101 102//106 84//93
f 84//93 102//106 98//102
f 99//101 92//91 105//105
f 105//105 95//92 85//81
f 108//107 85//81 81//82
f 97//99 98//102 102//106
f 102//106 103//108 97//99
f 103//108 102//106 107//109
f 106//110 103//108 107//109
f 103//108 104//103 97//99
f 102//106 99//101 109//111
f 61//62 113//104 101//88
f 106//110 104//103 103//108
f 110//112 90//97 104//103
f 112//113 113//104 91//85
f 112//113 91//85 111//100
f 99//101 105//105 109//111
f 108//107 105//105 85//81
f 102//106 109//111 114//114
f 108//107 81//82 100//94
f 110//112 104//103 106//110
f 118//115 101//88 113//104
f 90//97 116//116 111//100
f 96//98 101//88 118//115
f 107//109 102//106 114//114
f 114//114 115//117 107//109
f 115//117 106//110 107//109
f 106//110 115//117 110//112
f 113//104 124//118 118//115
f 110//112 116//116 90//97
f 114//114 109//111 121//119
f 113//104 117//120 124//118
f 116//116 110//112 115//117
f 115//117 119//121 116//116
f 113//104 112//113 117//120
f 120//122 100//94 96//98
f 96//98 118//115 120//122
f 114//114 119//121 115//117
f 116//116 122//123 111//100
f 122//123 112//113 111//100
f 108//107 126//124 105//105
f 108//107 100//94 120//122
f 114//114 127//125 119//121
f 128//126 117//120 112//113
f 109//111 105//105 126//124
f 127//125 114//114 121//119
f 128//126 124//118 117//120
f 116//116 119//121 122//123
f 125//127 112//113 122//123
f 125//127 128//126 112//113
f 123//128 109//111 126//124
f 108//107 120//122 129//129
f 120//122 130//130 129//129
f 109//111 123//128 121//119
f 130//130 120//122 118//115
f 130//130 118//115 124//118
f 126//124 108//107 153//131
f 153//131 108//107 129//129
f 119//121 131//132 122//123
f 131//132 125//127 122//123
f 134//133 132//134 137//135
f 132//134 134//133 133//136
f 138//137 134//133 141//138
f 133//136 134//133 138//137
f 131//132 119//121 127//125
f 136//139 137//135 157//140
f 137//135 141//138 134//133
f 141//138 139//141 138//137
f 135//142 138//137 139//141
f 140//143 139//141 142//144
f 170//145 140//143 147//146
f 140//143 142//144 151//147
f 140//143 385//148 147//146
f 144//149 124//118 143//150
f 124//118 128//126 143//150
f 154//151 131//132 179//152
f 131//132 154//151 125//127
f 157//140 137//135 132//134
f 156//153 132//134 133//136
f 145//154 156//153 133//136
f 133//136 135//142 145//154
f 158//155 135//142 139//141
f 140//143 158//155 139//141
f 158//155 140//143 170//145
f 136//139 159//156 146//157
f 137//135 136//139 146//157
f 137//135 146//157 163//158
f 163//158 141//138 137//135
f 148//159 141//138 165//160
f 139//141 141//138 148//159
f 142//144 139//141 148//159
f 148//159 149//161 142//144
f 150//162 147//146 149//161
f 385//148 384//163 147//146
f 147//146 152//164 149//161
f 149//161 148//159 150//162
f 150//162 148//159 162//165
f 123//128 126//124 153//131
f 153//131 129//129 167//166
f 168//167 121//119 123//128
f 144//149 130//130 124//118
f 143//150 128//126 155//168
f 155//168 125//127 154//151
f 125//127 155//168 128//126
f 157//140 159//156 136//139
f 169//169 159//156 157//140
f 150//162 170//145 147//146
f 161//170 146//157 160//171
f 164//172 161//170 160//171
f 146//157 161//170 163//158
f 181//173 164//172 160//171
f 141//138 163//158 173//174
f 177//175 141//138 173//174
f 141//138 177//175 165//160
f 165//160 162//165 148//159
f 162//165 165//160 174//176
f 162//165 174//176 171//177
f 187//178 123//128 166//179
f 166//179 123//128 153//131
f 129//129 130//130 167//166
f 168//167 123//128 187//178
f 127//125 121//119 168//167
f 180//180 157//140 156//153
f 156//153 157//140 132//134
f 145//154 135//142 158//155
f 145//154 158//155 192//181
f 180//180 169//169 157//140
f 160//171 159//156 181//173
f 172//182 164//172 181//173
f 163//158 172//182 173//174
f 182//183 173//174 172//182
f 173//174 176//184 177//175
f 173//174 175//185 386//186
f 175//185 177//175 386//186
f 177//175 176//184 386//186
f 177//175 175//185 182//183
f 177//175 174//176 165//160
f 178//187 166//179 153//131
f 178//187 153//131 167//166
f 188//188 130//130 144//149
f 167//166 130//130 188//188
f 131//132 127//125 179//152
f 156//153 145//154 184//189
f 159//156 169//169 185//190
f 172//182 181//173 182//183
f 175//185 173//174 182//183
f 174//176 177//175 182//183
f 189//191 179//152 127//125
f 190//192 183//193 179//152
f 154//151 179//152 183//193
f 184//189 180//180 156//153
f 192//181 184//189 145//154
f 193//194 192//181 158//155
f 193//194 158//155 170//145
f 162//165 186//195 150//162
f 186//195 170//145 150//162
f 186//195 162//165 171//177
f 159//156 185//190 181//173
f 199//196 182//183 181//173
f 182//183 207//197 174//176
f 178//187 167//166 194//198
f 194//198 167//166 188//188
f 144//149 196//199 188//188
f 168//167 189//191 127//125
f 143//150 155//168 197//200
f 190//192 179//152 189//191
f 155//168 203//201 197//200
f 154//151 203//201 155//168
f 180//180 184//189 191//202
f 191//202 204//203 180//180
f 198//204 185//190 169//169
f 219//205 170//145 186//195
f 206//206 219//205 186//195
f 185//190 198//204 181//173
f 174//176 207//197 171//177
f 187//178 166//179 178//187
f 168//167 187//178 195//207
f 144//149 143//150 196//199
f 196//199 143//150 197//200
f 201//208 190//192 189//191
f 201//208 183//193 190//192
f 154//151 202//209 203//201
f 206//206 186//195 171//177
f 187//178 178//187 216//210
f 208//211 178//187 194//198
f 194//198 200//212 208//211
f 194//198 188//188 200//212
f 200//212 188//188 196//199
f 168//167 195//207 189//191
f 203//201 210//213 197//200
f 202//209 154//151 183//193
f 204//203 191//202 184//189
f 184//189 205//214 204//203
f 192//181 205//214 184//189
f 219//205 193//194 170//145
f 213//215 198//204 169//169
f 206//206 171//177 207//197
f 199//196 214//216 182//183
f 181//173 198//204 199//196
f 182//183 214//216 207//197
f 215//217 195//207 187//178
f 215//217 220//218 195//207
f 197//200 210//213 196//199
f 195//207 209//219 189//191
f 209//219 201//208 189//191
f 201//208 217//220 183//193
f 204//203 205//214 218//221
f 211//222 205//214 192//181
f 192//181 193//194 211//222
f 211//222 193//194 219//205
f 224//223 212//224 180//180
f 224//223 180//180 204//203
f 212//224 169//169 180//180
f 212//224 213//215 169//169
f 216//210 215//217 187//178
f 238//225 200//212 196//199
f 229//226 209//219 195//207
f 202//209 223//227 203//201
f 218//221 205//214 211//222
f 233//228 211//222 219//205
f 225//229 219//205 206//206
f 235//230 214//216 199//196
f 215//217 216//210 227//231
f 236//232 178//187 208//211
f 200//212 226//233 208//211
f 200//212 238//225 226//233
f 228//234 238//225 196//199
f 196//199 210//213 228//234
f 229//226 195//207 220//218
f 231//235 201//208 209//219
f 229//226 231//235 209//219
f 210//213 203//201 223//227
f 210//213 223//227 230//236
f 221//237 217//220 201//208
f 202//209 183//193 222//238
f 222//238 223//227 202//209
f 217//220 222//238 183//193
f 234//239 233//228 219//205
f 224//223 204//203 245//240
f 225//229 234//239 219//205
f 199//196 198//204 235//230
f 226//233 236//232 208//211
f 220//218 215//217 227//231
f 228//234 210//213 230//236
f 231//235 221//237 201//208
f 221//237 241//241 217//220
f 218//221 233//228 244//242
f 204//203 218//221 232//243
f 233//228 218//221 211//222
f 255//244 225//229 206//206
f 213//215 235//230 198//204
f 206//206 207//197 214//216
f 236//232 216//210 178//187
f 237//245 216//210 236//232
f 227//231 216//210 237//245
f 238//225 228//234 247//246
f 220//218 239//247 229//226
f 230//236 259//248 228//234
f 223//227 243//249 250//250
f 222//238 243//249 223//227
f 242//251 217//220 241//241
f 242//251 222//238 217//220
f 222//238 242//251 251//252
f 222//238 251//252 243//249
f 244//242 232//243 218//221
f 245//240 204//203 232//243
f 212//224 224//223 253//253
f 214//216 256//254 206//206
f 237//245 236//232 257//255
f 246//256 236//232 226//233
f 238//225 246//256 226//233
f 239//247 220//218 227//231
f 239//247 248//257 229//226
f 259//248 230//236 240//258
f 249//259 231//235 229//226
f 230//236 250//250 240//258
f 230//236 223//227 250//250
f 252//260 244//242 233//228
f 234//239 260//261 233//228
f 260//261 234//239 254//262
f 225//229 254//262 234//239
f 261//263 212//224 253//253
f 255//244 254//262 225//229
f 213//215 212//224 261//263
f 206//206 256//254 255//244
f 213//215 262//264 235//230
f 235//230 262//264 214//216
f 257//255 236//232 246//256
f 246//256 238//225 247//246
f 227//231 237//245 239//247
f 258//265 228//234 259//248
f 247//246 228//234 258//265
f 249//259 229//226 248//257
f 231//235 265//266 221//237
f 241//241 221//237 265//266
f 251//252 278//267 243//249
f 232//243 244//242 267//268
f 260//261 252//260 233//228
f 245//240 253//253 224//223
f 262//264 256//254 214//216
f 257//255 263//269 237//245
f 257//255 246//256 271//270
f 263//269 239//247 237//245
f 258//265 246//256 247//246
f 264//271 239//247 263//269
f 239//247 264//271 248//257
f 258//265 259//248 272//272
f 231//235 249//259 265//266
f 250//250 243//249 276//273
f 240//258 250//250 276//273
f 275//274 251//252 242//251
f 251//252 277//275 278//267
f 278//267 276//273 243//249
f 266//276 267//268 244//242
f 232//243 267//268 286//277
f 245//240 232//243 279//278
f 268//279 252//260 260//261
f 269//280 260//261 254//262
f 255//244 270//281 254//262
f 257//255 271//270 263//269
f 248//257 264//271 288//282
f 273//283 249//259 248//257
f 273//283 265//266 249//259
f 280//284 259//248 240//258
f 274//285 241//241 265//266
f 241//241 275//274 242//251
f 274//285 265//266 281//286
f 241//241 274//285 275//274
f 277//275 251//252 275//274
f 266//276 284//287 267//268
f 286//277 267//268 284//287
f 244//242 252//260 266//276
f 285//288 266//276 252//260
f 285//288 252//260 268//279
f 279//278 232//243 286//277
f 279//278 253//253 245//240
f 254//262 270//281 269//280
f 262//264 213//215 261//263
f 270//281 255//244 295//289
f 272//272 259//248 280//284
f 273//283 281//286 265//266
f 240//258 276//273 280//284
f 274//285 282//290 275//274
f 280//284 276//273 290//291
f 275//274 283//292 277//275
f 311//293 285//288 268//279
f 311//293 268//279 260//261
f 311//293 260//261 312//294
f 269//280 294//295 260//261
f 261//263 253//253 279//278
f 295//289 255//244 256//254
f 263//269 288//282 264//271
f 296//296 263//269 271//270
f 271//270 246//256 287//297
f 297//298 246//256 258//265
f 258//265 272//272 297//298
f 298//299 273//283 248//257
f 273//283 289//300 281//286
f 273//283 298//299 289//300
f 274//285 281//286 282//290
f 283//292 275//274 282//290
f 290//291 301//301 280//284
f 302//302 282//290 281//286
f 302//302 283//292 282//290
f 291//303 277//275 283//292
f 276//273 278//267 290//291
f 291//303 278//267 277//275
f 286//277 284//287 327//304
f 292//305 266//276 285//288
f 292//305 285//288 311//293
f 279//278 286//277 293//306
f 312//294 260//261 294//295
f 270//281 294//295 269//280
f 293//306 261//263 279//278
f 262//264 295//289 256//254
f 271//270 287//297 296//296
f 246//256 297//298 287//297
f 263//269 296//296 288//282
f 288//282 298//299 248//257
f 272//272 299//307 297//298
f 280//284 299//307 272//272
f 289//300 298//299 316//308
f 281//286 300//309 302//302
f 290//291 303//310 301//301
f 283//292 302//302 317//311
f 306//312 283//292 317//311
f 290//291 278//267 305//313
f 303//310 290//291 305//313
f 291//303 283//292 306//312
f 291//303 306//312 304//314
f 304//314 308//315 291//303
f 278//267 291//303 305//313
f 291//303 308//315 305//313
f 305//313 308//315 307//316
f 304//314 309//317 308//315
f 308//315 309//317 322//318
f 310//319 284//287 325//320
f 284//287 266//276 325//320
f 325//320 266//276 292//305
f 328//321 292//305 311//293
f 313//322 293//306 286//277
f 330//323 293//306 313//322
f 329//324 294//295 270//281
f 262//264 261//263 332//325
f 262//264 332//325 295//289
f 288//282 296//296 314//326
f 299//307 315//327 297//298
f 297//298 315//327 287//297
f 288//282 314//326 298//299
f 299//307 280//284 301//301
f 289//300 316//308 281//286
f 316//308 300//309 281//286
f 299//307 301//301 334//328
f 300//309 317//311 302//302
f 317//311 300//309 335//329
f 335//329 318//330 317//311
f 317//311 318//330 306//312
f 301//301 303//310 319//331
f 307//316 303//310 305//313
f 307//316 319//331 303//310
f 304//314 306//312 320//332
f 309//317 304//314 320//332
f 307//316 308//315 321//333
f 322//318 321//333 308//315
f 322//318 309//317 323//334
f 321//333 322//318 341//335
f 320//332 340//336 309//317
f 324//337 322//318 323//334
f 322//318 324//337 341//335
f 324//337 325//320 341//335
f 324//337 323//334 326//338
f 324//337 310//319 325//320
f 324//337 326//338 310//319
f 310//319 326//338 327//304
f 310//319 327//304 284//287
f 327//304 345//339 347//340
f 347//340 313//322 286//277
f 327//304 347//340 286//277
f 348//341 311//293 312//294
f 294//295 348//341 312//294
f 313//322 358//342 330//323
f 331//343 261//263 293//306
f 261//263 331//343 332//325
f 270//281 295//289 332//325
f 332//325 329//324 270//281
f 296//296 333//344 314//326
f 333//344 296//296 349//345
f 349//345 287//297 315//327
f 349//345 296//296 287//297
f 314//326 316//308 298//299
f 314//326 350//346 316//308
f 334//328 315//327 299//307
f 335//329 300//309 316//308
f 316//308 350//346 335//329
f 336//347 334//328 301//301
f 336//347 301//301 319//331
f 335//329 337//348 318//330
f 338//349 318//330 353//350
f 318//330 337//348 353//350
f 319//331 307//316 321//333
f 321//333 339//351 319//331
f 336//347 319//331 339//351
f 338//349 306//312 318//330
f 338//349 320//332 306//312
f 320//332 338//349 340//336
f 340//336 323//334 309//317
f 321//333 341//335 339//351
f 338//349 355//352 340//336
f 342//353 323//334 340//336
f 339//351 341//335 343//354
f 355//352 342//353 340//336
f 342//353 326//338 323//334
f 343//354 341//335 344//355
f 344//355 341//335 325//320
f 327//304 326//338 342//353
f 345//339 327//304 342//353
f 346//356 344//355 292//305
f 344//355 325//320 292//305
f 346//356 292//305 328//321
f 346//356 328//321 348//341
f 345//339 356//357 347//340
f 328//321 311//293 348//341
f 358//342 313//322 347//340
f 294//295 357//358 348//341
f 329//324 357//358 294//295
f 357//358 329//324 332//325
f 360//359 314//326 333//344
f 349//345 361//360 333//344
f 349//345 315//327 361//360
f 362//361 361//360 315//327
f 351//362 362//361 315//327
f 315//327 334//328 351//362
f 351//362 334//328 336//347
f 335//329 352//363 337//348
f 352//363 353//350 337//348
f 364//364 353//350 352//363
f 353//350 364//364 355//352
f 336//347 354//365 351//362
f 338//349 353//350 355//352
f 354//365 339//351 343//354
f 339//351 354//365 336//347
f 354//365 343//354 367//366
f 343//354 344//355 367//366
f 342//353 355//352 368//367
f 345//339 342//353 368//367
f 367//366 344//355 346//356
f 345//339 368//367 356//357
f 366//368 348//341 369//369
f 346//356 348//341 366//368
f 370//370 347//340 356//357
f 357//358 369//369 348//341
f 370//370 358//342 347//340
f 330//323 331//343 293//306
f 331//343 330//323 372//371
f 359//372 357//358 332//325
f 331//343 359//372 332//325
f 333//344 361//360 360//359
f 350//346 314//326 360//359
f 363//373 362//361 351//362
f 350//346 352//363 335//329
f 350//346 376//374 352//363
f 354//365 363//373 351//362
f 352//363 378//375 364//364
f 377//376 363//373 354//365
f 355//352 364//364 365//377
f 377//376 354//365 366//368
f 365//377 368//367 355//352
f 367//366 366//368 354//365
f 367//366 346//356 366//368
f 368//367 382//378 356//357
f 382//378 370//370 356//357
f 383//379 370//370 382//378
f 369//369 371//380 379//381
f 383//379 358//342 370//370
f 383//379 372//371 358//342
f 371//380 357//358 359//372
f 369//369 357//358 371//380
f 358//342 372//371 330//323
f 372//371 371//380 359//372
f 331//343 372//371 359//372
f 360//359 374//382 350//346
f 361//360 373//383 360//359
f 361//360 362//361 373//383
f 360//359 373//383 374//382
f 363//373 373//383 362//361
f 350//346 374//382 376//374
f 373//383 377//376 375//384
f 373//383 363//373 377//376
f 376//374 378//375 352//363
f 378//375 365//377 364//364
f 377//376 379//381 375//384
f 376//374 375//384 381//385
f 365//377 378//375 380//386
f 378//375 376//374 380//386
f 376//374 381//385 380//386
f 379//381 377//376 366//368
f 365//377 380//386 368//367
f 380//386 382//378 368//367
f 381//385 379//381 371//380
f 381//385 382//378 380//386
f 379//381 366//368 369//369
f 382//378 381//385 383//379
f 383//379 381//385 371//380
f 372//371 383//379 371//380
f 375//384 374//382 373//383
f 375//384 376//374 374//382
f 375//384 379//381 381//385
