# Blender 4.0.2
# www.blender.org
mtllib talus_l.mtl
o talus_l.002
v -0.004051 0.010231 -0.003397
v -0.001534 0.009129 -0.004076
v -0.005304 0.008290 -0.003635
v -0.001814 0.004747 -0.004778
v -0.000761 0.005865 -0.004941
v -0.007589 0.011486 -0.002256
v -0.002492 0.010329 -0.002921
v -0.001582 0.010594 -0.001143
v -0.009235 0.005248 -0.002446
v -0.000409 0.004175 -0.005037
v 0.002846 0.004588 -0.003830
v 0.001624 0.007756 -0.003836
v -0.009012 0.011803 -0.001394
v -0.006161 0.012648 0.002324
v 0.001635 0.008591 -0.003116
v 0.001421 0.009199 -0.002347
v -0.000098 0.009771 -0.002449
v -0.008470 0.012363 0.013584
v 0.000153 0.001893 -0.005142
v -0.012051 0.010689 0.000215
v -0.015048 0.005545 0.001198
v -0.015322 0.004763 0.001105
v -0.013828 0.002596 -0.000458
v -0.011093 -0.002931 -0.005361
v -0.007241 -0.001802 -0.007293
v -0.012737 -0.000362 -0.002107
v -0.002723 -0.003120 -0.008190
v 0.004962 0.002323 -0.003669
v 0.006254 0.004176 -0.002762
v 0.006420 0.006355 -0.001155
v -0.010817 0.012533 0.000323
v -0.016750 0.010514 0.004992
v 0.007728 0.011716 0.021667
v 0.002972 0.013850 0.021617
v 0.010587 0.005573 0.007067
v 0.009740 0.007883 0.013754
v -0.002927 0.014613 0.020313
v 0.000198 0.014508 0.019807
v -0.007107 0.011870 0.025598
v -0.005124 0.013900 0.023021
v 0.000926 0.001057 -0.005257
v -0.015880 0.007905 0.002707
v -0.018301 0.005261 0.006368
v -0.012155 -0.004181 -0.006271
v -0.010091 -0.005555 -0.007678
v -0.008768 -0.004079 -0.008869
v -0.013355 -0.004025 -0.004715
v -0.014677 -0.000356 -0.000284
v 0.000797 -0.000612 -0.005813
v -0.001345 -0.004231 -0.007954
v -0.006053 -0.008804 -0.009612
v 0.007594 0.002633 -0.002265
v 0.009192 0.001164 0.000830
v 0.007113 -0.001222 0.000491
v 0.008153 -0.000331 0.001012
v 0.007170 0.005105 -0.001965
v -0.017387 0.007716 0.004316
v -0.018205 0.008278 0.005763
v -0.018923 0.006530 0.010570
v 0.010123 0.010118 0.020844
v 0.003296 0.013062 0.022613
v 0.010992 0.009258 0.021641
v 0.004435 0.009233 0.022063
v 0.000773 0.014206 0.022294
v 0.002042 0.013665 0.022483
v 0.007987 0.005432 -0.000102
v 0.010066 0.004626 -0.000695
v 0.012089 0.004722 0.009655
v 0.012651 0.005585 0.002863
v 0.012093 0.006285 0.014971
v 0.012257 0.005667 0.012836
v -0.001755 0.013603 0.024112
v -0.006695 0.010670 0.026877
v -0.004621 0.013598 0.024859
v -0.019305 0.003293 0.015952
v -0.017941 0.003091 0.019390
v -0.014444 0.001692 0.027439
v -0.003785 0.014211 0.022669
v -0.018661 0.000163 0.004771
v -0.019809 0.000579 0.007074
v -0.018911 0.006539 0.008625
v -0.020437 0.000290 0.009324
v -0.016663 0.000658 0.002549
v -0.012604 -0.005098 -0.005698
v -0.009925 -0.006326 -0.007016
v -0.015921 -0.003981 -0.003167
v 0.001557 -0.002482 -0.005037
v 0.000523 -0.010507 -0.002581
v 0.001177 -0.004210 -0.005547
v 0.010522 0.004193 -0.001462
v 0.009721 0.001817 -0.001622
v 0.008729 0.001569 -0.001368
v 0.010969 0.003261 -0.001803
v 0.010311 0.000029 -0.001220
v 0.005859 -0.003137 -0.000046
v 0.010560 -0.001251 0.003286
v -0.019679 0.003327 0.013967
v 0.013047 0.007194 0.016197
v 0.013201 0.007556 0.020477
v 0.013498 0.008077 0.018843
v 0.013820 0.005997 0.022338
v 0.012736 0.004435 0.024070
v 0.003041 0.008445 0.022224
v 0.002004 0.012300 0.022971
v 0.014302 0.004638 -0.002856
v 0.012755 0.004847 0.005999
v 0.012869 0.004682 0.010130
v 0.017326 0.005634 -0.001725
v 0.018569 0.006067 -0.000088
v 0.015842 0.006545 0.002965
v 0.020219 0.007358 0.008927
v 0.014513 0.004814 0.009075
v 0.013769 0.006156 0.014652
v 0.012927 0.005806 0.014077
v -0.003735 0.012401 0.026187
v -0.000741 0.008943 0.024528
v -0.020101 -0.003064 0.019473
v -0.020686 0.000642 0.015436
v -0.008794 -0.001679 0.028058
v -0.006885 0.007364 0.027580
v -0.015472 -0.001385 0.025946
v -0.022340 -0.003290 0.007306
v -0.021553 -0.001105 0.009227
v -0.022906 -0.003015 0.011072
v -0.021435 -0.000488 0.013621
v -0.005346 -0.007000 0.001758
v -0.021171 -0.004726 0.007393
v -0.012764 -0.004679 0.003950
v -0.000295 -0.012684 0.009660
v 0.004829 -0.007445 0.003297
v 0.004263 -0.004091 -0.001816
v 0.013493 0.003948 -0.003000
v 0.012211 0.001512 -0.001417
v 0.009967 0.000145 0.000546
v 0.010448 -0.000842 -0.000381
v 0.012545 -0.002789 -0.000496
v 0.013925 -0.002676 -0.000086
v 0.005673 -0.004009 0.000677
v 0.008946 -0.006877 0.007254
v 0.012806 -0.005741 0.005966
v 0.011405 -0.006193 0.007714
v 0.012407 -0.005088 0.001303
v 0.014251 -0.006841 0.005215
v 0.015024 0.007260 0.018109
v 0.016331 0.006743 0.015653
v 0.013706 0.004162 0.024175
v 0.004383 0.002555 0.023017
v 0.011864 0.001996 0.025029
v 0.010652 0.002518 0.024490
v 0.007890 0.000944 0.024473
v 0.009093 0.002310 0.024103
v -0.000214 0.005453 0.023131
v 0.001862 0.003948 0.023298
v 0.015045 0.001809 -0.003670
v 0.013630 0.001596 -0.003371
v 0.015351 0.005760 0.013010
v 0.017995 0.004877 -0.002153
v 0.020321 0.005975 0.000346
v 0.022520 0.006927 0.004099
v 0.022401 0.006865 0.006342
v 0.016663 0.005807 0.010561
v 0.021000 0.006293 0.011869
v 0.019133 0.006730 0.012235
v 0.022180 0.005738 0.011440
v 0.023677 0.006393 0.008784
v -0.004316 0.009418 0.027169
v -0.003541 0.008260 0.026559
v -0.022392 -0.003083 0.013190
v -0.017289 -0.010693 0.026328
v -0.020767 -0.008072 0.018703
v -0.022738 -0.005926 0.012638
v -0.002800 0.004552 0.024635
v -0.008347 -0.007269 0.027478
v -0.016097 -0.010495 0.028159
v -0.002553 0.000062 0.025305
v -0.006064 -0.003627 0.027659
v -0.023505 -0.004202 0.010727
v -0.007395 -0.005980 0.005784
v -0.005713 -0.007273 0.008175
v -0.011623 -0.004753 0.006320
v -0.003922 -0.014047 0.017638
v -0.008027 -0.006063 0.009271
v 0.000407 -0.008704 0.015715
v 0.012806 0.003203 -0.002927
v 0.016046 -0.011278 0.004338
v 0.015282 -0.000365 -0.003483
v 0.008156 -0.008667 0.016502
v 0.015293 -0.009522 0.006902
v 0.012459 -0.008707 0.009875
v 0.012994 -0.007586 0.007469
v 0.014305 -0.007944 0.003898
v 0.022125 0.002814 0.017000
v 0.018373 0.006025 0.015320
v 0.017923 0.006140 0.014848
v 0.016607 0.005889 0.012733
v 0.016557 0.003118 0.022591
v 0.014377 0.002290 0.025265
v 0.004147 0.001522 0.022727
v 0.006541 0.001495 0.024152
v 0.006038 0.000672 0.023425
v 0.013340 0.001334 0.025396
v 0.012227 0.000515 0.025234
v 0.010690 0.000292 0.024930
v -0.000770 0.004713 0.023249
v 0.018586 0.001604 -0.002585
v 0.022223 0.002390 0.000453
v 0.023663 0.006228 0.003604
v 0.023711 0.004851 0.002472
v 0.023885 0.006586 0.004737
v 0.025233 0.006345 0.008317
v 0.019745 0.006071 0.014090
v 0.024339 0.003417 0.015189
v -0.014378 -0.012372 0.025297
v -0.012702 -0.005048 0.009134
v -0.001645 0.001396 0.024477
v -0.012524 -0.011353 0.027156
v -0.002693 -0.005288 0.026384
v -0.005628 -0.007882 0.023471
v -0.000271 -0.001010 0.024663
v -0.002775 -0.001663 0.026038
v -0.002582 -0.004033 0.027005
v -0.007379 -0.012307 0.021643
v 0.003527 -0.006117 0.020991
v 0.006150 -0.007051 0.019305
v 0.007278 -0.008378 0.018003
v 0.022446 -0.006504 0.001863
v 0.018903 -0.007374 0.000001
v 0.017720 -0.012467 0.009307
v 0.018842 -0.012672 0.008514
v 0.016175 -0.000226 -0.003512
v 0.009566 -0.009297 0.017501
v 0.012303 -0.010959 0.016182
v 0.014833 -0.011959 0.014343
v 0.013883 -0.010752 0.012138
v 0.016305 -0.012608 0.010523
v 0.016735 -0.011938 0.009528
v 0.013663 -0.010278 0.010812
v 0.019106 0.001433 0.021494
v 0.023777 0.002353 0.016976
v 0.021563 -0.003032 0.023029
v 0.017911 0.000997 0.022463
v 0.016779 0.002024 0.023110
v 0.015330 0.001736 0.024901
v 0.004220 -0.001857 0.023322
v 0.001355 0.003333 0.022408
v 0.008892 -0.001205 0.023377
v 0.005061 -0.002686 0.023009
v 0.007449 -0.001161 0.023053
v 0.005998 -0.001786 0.022935
v 0.017935 -0.000443 0.022932
v 0.020922 0.000959 -0.000754
v 0.024805 0.005138 0.004614
v 0.024438 0.003246 0.003317
v 0.025696 0.005414 0.006904
v 0.025339 0.004988 0.010341
v 0.026009 0.004787 0.007656
v 0.000528 -0.000784 0.023390
v -0.000479 0.001911 0.023179
v -0.001514 -0.004586 0.026558
v 0.000520 -0.005021 0.024556
v 0.001095 -0.002609 0.024297
v 0.000612 -0.003005 0.025688
v -0.001662 -0.002468 0.026535
v -0.000102 -0.003344 0.026220
v 0.007446 -0.005274 0.022386
v 0.005235 -0.004916 0.022634
v 0.007528 -0.005805 0.021927
v 0.006121 -0.006457 0.020870
v 0.003032 -0.005072 0.023235
v 0.026494 -0.003588 0.015074
v 0.023569 -0.011558 0.011508
v 0.020635 -0.013244 0.012183
v 0.022263 -0.012837 0.012994
v 0.017448 -0.013073 0.010941
v 0.015729 -0.012131 0.015549
v 0.020197 -0.007841 0.023168
v 0.016924 -0.005688 0.024750
v 0.002194 -0.002228 0.023724
v 0.001325 -0.001235 0.023066
v 0.001740 0.001287 0.022198
v 0.005559 -0.003901 0.022916
v 0.014746 -0.003379 0.023116
v 0.025864 0.002774 0.013111
v 0.002494 -0.003511 0.024147
v 0.000176 -0.004185 0.025944
v 0.001637 -0.004186 0.024380
v 0.004476 -0.004033 0.023518
v 0.010382 -0.006179 0.022557
v 0.008950 -0.006899 0.021516
v 0.012331 -0.010081 0.018463
v 0.003376 -0.003394 0.024398
v 0.023571 -0.009713 0.018340
v 0.023847 -0.011410 0.013566
v 0.021477 -0.012825 0.014773
v 0.017351 -0.012889 0.013351
v 0.017722 -0.010776 0.021158
v 0.017689 -0.012282 0.016763
v 0.013564 -0.006259 0.023796
v 0.015222 -0.009430 0.022026
v 0.012386 -0.007719 0.022550
vn -0.2522 0.1408 -0.9574
vn -0.0098 0.6364 -0.7713
vn -0.2532 0.0092 -0.9674
vn 0.0298 0.1499 -0.9883
vn 0.1111 0.5468 -0.8299
vn 0.2132 0.8965 -0.3883
vn -0.1670 0.6657 -0.7273
vn 0.3439 0.9294 -0.1340
vn -0.4222 0.2437 -0.8731
vn 0.0665 0.0722 -0.9952
vn 0.3715 0.2263 -0.9004
vn 0.3963 0.3867 -0.8327
vn -0.2772 0.6711 -0.6876
vn 0.1913 0.9811 -0.0284
vn 0.4272 0.6853 -0.5898
vn 0.4014 0.8508 -0.3392
vn 0.2832 0.8740 -0.3948
vn -0.1943 0.9801 -0.0404
vn 0.1188 0.2890 -0.9499
vn -0.5914 0.3099 -0.7445
vn -0.5567 0.2524 -0.7914
vn -0.7389 0.0298 -0.6732
vn -0.6890 0.1206 -0.7147
vn -0.1992 0.5764 -0.7926
vn -0.4191 0.5684 -0.7081
vn -0.6222 0.4105 -0.6666
vn 0.1660 0.3396 -0.9258
vn 0.4399 -0.1759 -0.8807
vn 0.3885 0.3230 -0.8630
vn 0.5239 0.7071 -0.4749
vn -0.3418 0.8750 -0.3429
vn -0.6504 0.7266 -0.2214
vn 0.3502 0.9222 0.1639
vn 0.4460 0.7026 0.5545
vn 0.4222 0.9032 -0.0770
vn 0.5910 0.7727 -0.2317
vn -0.0918 0.9957 -0.0075
vn 0.1363 0.9881 -0.0714
vn -0.5101 0.7127 0.4815
vn -0.4137 0.9004 0.1346
vn 0.4264 0.2291 -0.8751
vn -0.6884 0.2702 -0.6731
vn -0.9037 0.0812 -0.4204
vn -0.5175 0.3298 -0.7895
vn -0.6707 -0.1993 -0.7145
vn -0.3997 0.3140 -0.8612
vn -0.5711 0.4516 -0.6855
vn -0.5301 0.5980 -0.6011
vn 0.5890 0.1538 -0.7933
vn 0.5228 -0.0525 -0.8509
vn -0.1249 -0.6801 -0.7224
vn 0.3026 -0.3513 -0.8860
vn -0.1665 -0.8273 -0.5365
vn 0.6391 -0.2751 -0.7182
vn 0.5901 -0.3814 -0.7116
vn 0.3487 0.5665 -0.7467
vn 0.4715 0.8445 -0.2539
vn -0.8157 0.1281 -0.5642
vn -0.9198 0.2930 -0.2612
vn -0.8541 0.4980 0.1500
vn 0.5471 0.8358 -0.0457
vn 0.2901 0.4293 0.8553
vn 0.4565 0.6698 0.5856
vn 0.0772 0.1088 0.9911
vn 0.1170 0.9372 0.3287
vn 0.2807 0.6480 0.7081
vn 0.0886 0.9517 -0.2939
vn 0.3710 0.9236 -0.0964
vn -0.1889 0.9799 -0.0640
vn 0.3112 0.8644 -0.3949
vn 0.3295 0.9102 -0.2509
vn 0.2961 0.7177 0.6303
vn -0.2541 0.4434 0.8595
vn -0.1727 0.8624 0.4758
vn -0.8191 0.4950 0.2900
vn -0.7892 0.4821 0.3804
vn -0.5566 0.1648 0.8143
vn -0.0404 0.9810 0.1896
vn -0.7722 0.3645 -0.5204
vn -0.8596 0.3750 -0.3471
vn -0.9628 0.2442 -0.1158
vn -0.8820 0.4559 -0.1192
vn -0.6925 0.4032 -0.5982
vn -0.6804 -0.4305 -0.5931
vn -0.5420 -0.8131 -0.2121
vn -0.7178 -0.2716 -0.6411
vn 0.7221 0.0003 -0.6917
vn 0.7135 -0.1672 -0.6804
vn 0.2954 -0.8855 -0.3585
vn -0.1132 0.5905 -0.7991
vn 0.0259 -0.2996 -0.9537
vn -0.4948 -0.7530 -0.4338
vn -0.2007 -0.0298 -0.9792
vn -0.4354 -0.4885 -0.7562
vn 0.7069 -0.3925 -0.5884
vn -0.2785 -0.7828 -0.5565
vn -0.9237 0.3708 0.0960
vn 0.0619 0.8834 -0.4644
vn 0.6321 0.6971 0.3383
vn 0.4865 0.8736 -0.0118
vn 0.5208 0.6357 0.5697
vn 0.0362 0.4696 0.8821
vn 0.2051 0.0322 0.9782
vn 0.3364 0.1167 0.9345
vn -0.0780 0.6740 -0.7346
vn 0.1750 0.9650 0.1953
vn 0.0168 0.9852 -0.1704
vn 0.0739 0.8284 -0.5553
vn 0.0654 0.9506 -0.3033
vn 0.0049 0.9946 0.1039
vn -0.1987 0.9690 -0.1467
vn -0.2636 0.9643 0.0274
vn -0.0611 0.8896 -0.4526
vn 0.0465 0.9539 -0.2964
vn 0.2490 0.4939 0.8331
vn 0.5467 -0.0528 0.8357
vn -0.8915 0.1739 0.4183
vn -0.9103 0.3306 0.2491
vn 0.0775 0.0432 0.9961
vn 0.1155 0.0339 0.9927
vn -0.6436 0.0365 0.7645
vn -0.9087 -0.0178 -0.4170
vn -0.8182 0.5669 -0.0957
vn -0.8878 0.4587 0.0371
vn -0.9191 0.3770 0.1142
vn -0.4696 -0.8828 0.0084
vn -0.4167 -0.8528 -0.3149
vn -0.1497 -0.9887 0.0037
vn 0.2099 -0.9768 -0.0436
vn 0.6255 -0.7384 -0.2520
vn 0.7784 -0.2913 -0.5562
vn -0.2221 0.3295 -0.9177
vn -0.3533 -0.3644 -0.8616
vn -0.8160 -0.4920 -0.3034
vn -0.8560 -0.5076 -0.0974
vn -0.0737 -0.3610 -0.9296
vn -0.2645 -0.4402 -0.8581
vn 0.7679 -0.3816 -0.5146
vn 0.3354 -0.8735 -0.3529
vn -0.6144 -0.5857 -0.5286
vn -0.2497 -0.7799 -0.5739
vn -0.7231 -0.5932 -0.3540
vn -0.8673 -0.4857 -0.1092
vn 0.4291 0.8977 0.0999
vn 0.1669 0.9665 -0.1948
vn 0.2580 0.5718 0.7788
vn -0.1504 -0.0252 0.9883
vn -0.2098 0.2653 0.9411
vn -0.2530 0.3754 0.8916
vn -0.2517 -0.1387 0.9578
vn -0.2118 0.4105 0.8869
vn 0.3284 -0.0631 0.9424
vn -0.0851 -0.2241 0.9708
vn 0.0154 0.1183 -0.9929
vn -0.5096 -0.1746 -0.8425
vn -0.1340 0.9623 -0.2367
vn 0.3375 0.4597 -0.8215
vn 0.3683 0.7468 -0.5538
vn 0.1682 0.9694 -0.1786
vn 0.1213 0.9926 -0.0061
vn 0.4192 0.8592 0.2935
vn -0.0419 0.9869 0.1559
vn 0.3601 0.8608 0.3596
vn 0.2188 0.9323 0.2879
vn -0.3474 0.9363 -0.0510
vn 0.3185 0.0726 0.9451
vn 0.4912 -0.2114 0.8450
vn -0.9304 0.1919 0.3124
vn -0.7907 -0.4860 0.3722
vn -0.7925 -0.6092 0.0285
vn -0.7423 -0.6700 0.0051
vn 0.5196 -0.0826 0.8504
vn -0.4347 -0.3563 0.8271
vn 0.3422 -0.4251 0.8380
vn 0.2235 0.0250 0.9744
vn 0.3790 0.2470 0.8918
vn -0.9876 -0.1192 -0.1019
vn -0.3932 -0.9193 -0.0132
vn -0.6014 -0.7651 -0.2303
vn -0.1566 -0.9867 -0.0445
vn 0.2324 -0.9553 0.1828
vn -0.3868 -0.8726 -0.2982
vn 0.4679 -0.8270 0.3116
vn -0.5051 0.0466 -0.8618
vn -0.3867 -0.8431 -0.3737
vn -0.3018 -0.3731 -0.8773
vn -0.2493 -0.9643 -0.0891
vn -0.7820 -0.5968 -0.1801
vn -0.6047 -0.6858 -0.4050
vn -0.6451 -0.6815 -0.3455
vn -0.9046 -0.3885 0.1755
vn 0.3878 0.7455 0.5422
vn 0.3683 0.8947 0.2527
vn 0.1082 0.9941 -0.0015
vn -0.1714 0.9806 -0.0951
vn 0.6007 0.5242 0.6036
vn 0.2619 0.3066 0.9151
vn -0.2530 -0.0408 0.9666
vn -0.3454 0.0432 0.9375
vn -0.3086 -0.2481 0.9183
vn 0.0668 -0.1327 0.9889
vn -0.0417 -0.2467 0.9682
vn -0.1989 -0.2558 0.9460
vn 0.4230 -0.1017 0.9004
vn 0.4858 0.0305 -0.8735
vn 0.7051 0.0853 -0.7040
vn 0.6005 0.6607 -0.4504
vn 0.7292 0.2966 -0.6167
vn 0.5225 0.8267 -0.2089
vn 0.5675 0.8004 0.1932
vn 0.3792 0.8511 0.3631
vn 0.5254 0.6974 0.4874
vn -0.1944 -0.9761 0.0969
vn -0.0861 -0.9650 -0.2478
vn 0.5779 0.2156 0.7871
vn 0.2446 -0.6756 0.6955
vn 0.2783 -0.6679 0.6903
vn 0.4914 -0.7126 0.5006
vn 0.2070 0.4282 0.8797
vn 0.5752 0.4824 0.6606
vn 0.1987 -0.0705 0.9775
vn 0.4899 -0.6185 0.6144
vn 0.1038 -0.8843 0.4552
vn -0.2097 -0.8653 0.4552
vn -0.1606 -0.8841 0.4388
vn 0.7153 -0.4214 -0.5574
vn 0.1706 -0.5975 -0.7835
vn 0.1296 -0.9280 -0.3493
vn -0.5648 -0.6513 -0.5067
vn 0.2238 -0.1887 -0.9562
vn -0.4037 -0.8821 0.2428
vn -0.3974 -0.9133 0.0895
vn -0.4227 -0.9057 -0.0325
vn -0.6052 -0.7673 -0.2120
vn -0.3820 -0.7367 -0.5580
vn -0.4719 -0.8340 -0.2860
vn -0.6909 -0.6815 -0.2413
vn 0.5635 0.5022 0.6559
vn 0.5662 0.5566 0.6079
vn 0.6088 0.1548 0.7781
vn 0.5295 0.3373 0.7784
vn 0.6958 0.3714 0.6148
vn 0.5171 0.0736 0.8527
vn 0.1629 0.1646 0.9728
vn -0.0606 -0.3911 0.9184
vn -0.1941 -0.3895 0.9003
vn 0.2848 -0.0080 0.9585
vn -0.1335 -0.2358 0.9626
vn 0.1286 -0.1578 0.9791
vn 0.2744 0.1754 0.9455
vn 0.6477 -0.0532 -0.7601
vn 0.8703 0.2953 -0.3942
vn 0.8897 -0.0225 -0.4561
vn 0.8894 0.3800 -0.2541
vn 0.6739 0.6686 0.3145
vn 0.9830 0.1571 -0.0945
vn 0.5873 0.4033 0.7017
vn 0.5779 0.1346 0.8049
vn 0.3414 -0.4398 0.8307
vn 0.4178 -0.6893 0.5919
vn 0.6215 0.4539 0.6386
vn 0.6870 0.2494 0.6826
vn 0.1845 0.4112 0.8927
vn 0.4301 0.1526 0.8898
vn 0.0001 -0.4833 0.8754
vn 0.1431 -0.6300 0.7633
vn -0.1377 -0.6158 0.7758
vn -0.1765 -0.8443 0.5059
vn 0.2454 -0.7241 0.6445
vn 0.9785 -0.0704 0.1938
vn 0.7521 -0.6042 -0.2632
vn 0.4655 -0.8849 -0.0186
vn 0.1590 -0.9837 -0.0839
vn -0.1973 -0.9754 -0.0981
vn -0.3248 -0.8657 0.3808
vn -0.2666 -0.9412 0.2074
vn 0.4549 -0.4226 0.7838
vn -0.0237 -0.0847 0.9961
vn 0.0742 0.4736 0.8776
vn 0.3295 0.5296 0.7816
vn 0.0683 0.1310 0.9890
vn 0.2982 -0.1301 0.9456
vn -0.1263 0.0316 0.9915
vn 0.8952 0.3435 0.2839
vn 0.0579 -0.0574 0.9967
vn 0.6190 -0.4056 0.6725
vn 0.4841 -0.2253 0.8455
vn 0.4442 -0.2711 0.8539
vn -0.2992 -0.1862 0.9359
vn -0.2843 -0.6983 0.6570
vn 0.1706 -0.0417 0.9845
vn 0.7290 -0.4924 0.4755
vn 0.8181 -0.5680 0.0907
vn 0.2896 -0.9154 0.2796
vn -0.1828 -0.9763 0.1154
vn -0.1180 -0.9534 0.2777
vn 0.0267 -0.8224 0.5683
vn -0.2907 -0.1223 0.9489
vn -0.2160 -0.7226 0.6567
vn -0.3104 -0.6107 0.7285
s 1
f 3//1 1//2 4//3
f 5//4 1//2 2//5
f 5//4 4//3 1//2
f 1//2 7//6 2//5
f 6//7 8//8 1//2
f 1//2 8//8 7//6
f 9//9 3//1 4//3
f 5//4 10//10 4//3
f 11//11 10//10 5//4
f 5//4 12//12 11//11
f 5//4 2//5 12//12
f 9//9 6//7 3//1
f 3//1 6//7 1//2
f 13//13 14//14 6//7
f 6//7 14//14 8//8
f 9//9 13//13 6//7
f 15//15 12//12 2//5
f 7//6 8//8 2//5
f 2//5 16//16 15//15
f 2//5 17//17 16//16
f 2//5 8//8 17//17
f 14//14 18//18 8//8
f 8//8 18//18 16//16
f 17//17 8//8 16//16
f 4//3 19//19 9//9
f 10//10 19//19 4//3
f 9//9 20//20 13//13
f 20//20 9//9 21//21
f 22//22 9//9 23//23
f 21//21 9//9 22//22
f 9//9 25//24 24//25
f 9//9 24//25 26//26
f 9//9 26//26 23//23
f 9//9 27//27 25//24
f 27//27 9//9 19//19
f 28//28 19//19 10//10
f 10//10 29//29 28//28
f 10//10 11//11 29//29
f 30//30 29//29 11//11
f 12//12 30//30 11//11
f 12//12 15//15 30//30
f 13//13 31//31 14//14
f 32//32 18//18 14//14
f 14//14 31//31 32//32
f 30//30 15//15 16//16
f 16//16 34//33 33//34
f 35//35 30//30 16//16
f 36//36 16//16 33//34
f 35//35 16//16 36//36
f 16//16 18//18 37//37
f 37//37 38//38 16//16
f 16//16 38//38 34//33
f 18//18 32//32 39//39
f 39//39 40//40 18//18
f 40//40 37//37 18//18
f 19//19 28//28 41//41
f 27//27 19//19 41//41
f 42//42 21//21 22//22
f 21//21 42//42 20//20
f 43//43 22//22 23//23
f 23//23 26//26 43//43
f 44//44 24//25 45//45
f 24//25 46//46 45//45
f 44//44 26//26 24//25
f 24//25 25//24 46//46
f 27//27 46//46 25//24
f 47//47 26//26 44//44
f 48//48 26//26 47//47
f 41//41 49//49 27//27
f 50//50 27//27 49//49
f 51//51 27//27 50//50
f 51//51 46//46 27//27
f 28//28 29//29 52//52
f 52//52 53//53 28//28
f 54//54 41//41 28//28
f 54//54 28//28 55//55
f 55//55 28//28 53//53
f 30//30 56//56 29//29
f 66//57 30//30 35//35
f 66//57 56//56 30//30
f 13//13 20//20 31//31
f 31//31 20//20 32//32
f 57//58 58//59 32//32
f 58//59 59//60 32//32
f 39//39 32//32 59//60
f 42//42 57//58 32//32
f 20//20 42//42 32//32
f 36//36 33//34 60//61
f 33//34 34//33 61//62
f 62//63 60//61 33//34
f 63//64 62//63 33//34
f 63//64 33//34 61//62
f 34//33 38//38 64//65
f 65//66 34//33 64//65
f 34//33 65//66 61//62
f 35//35 67//67 66//57
f 35//35 36//36 68//68
f 35//35 69//69 67//67
f 69//69 35//35 68//68
f 36//36 60//61 70//70
f 70//70 71//71 36//36
f 71//71 68//68 36//36
f 72//72 38//38 37//37
f 38//38 72//72 64//65
f 73//73 74//74 39//39
f 40//40 39//39 74//74
f 39//39 59//60 75//75
f 75//75 76//76 39//39
f 39//39 76//76 77//77
f 77//77 73//73 39//39
f 37//37 78//78 72//72
f 40//40 78//78 37//37
f 74//74 78//78 40//40
f 54//54 49//49 41//41
f 57//58 42//42 22//22
f 22//22 43//43 57//58
f 79//79 80//80 43//43
f 81//81 43//43 82//82
f 83//83 79//79 43//43
f 58//59 57//58 43//43
f 43//43 81//81 58//59
f 80//80 82//82 43//43
f 83//83 43//43 26//26
f 44//44 84//84 47//47
f 45//45 84//84 44//44
f 85//85 45//45 51//51
f 46//46 51//51 45//45
f 48//48 83//83 26//26
f 86//86 48//48 47//47
f 86//86 47//47 84//84
f 83//83 48//48 86//86
f 50//50 49//49 87//87
f 50//50 89//88 88//89
f 51//51 50//50 88//89
f 87//87 89//88 50//50
f 51//51 88//89 85//85
f 29//29 56//56 52//52
f 90//90 52//52 56//56
f 91//91 92//92 52//52
f 93//93 52//52 90//90
f 92//92 53//53 52//52
f 52//52 93//93 91//91
f 92//92 94//94 53//53
f 87//87 49//49 54//54
f 95//95 87//87 54//54
f 54//54 55//55 96//96
f 66//57 90//90 56//56
f 59//60 58//59 81//81
f 59//60 97//97 75//75
f 59//60 81//81 82//82
f 59//60 82//82 97//97
f 98//98 70//70 60//61
f 60//61 62//63 99//99
f 60//61 99//99 100//100
f 60//61 100//100 98//98
f 99//99 62//63 101//101
f 102//102 101//101 62//63
f 63//64 102//102 62//63
f 61//62 103//103 63//64
f 103//103 102//102 63//64
f 65//66 104//104 61//62
f 64//65 72//72 65//66
f 65//66 72//72 104//104
f 103//103 61//62 104//104
f 66//57 67//67 90//90
f 105//105 90//90 67//67
f 69//69 105//105 67//67
f 106//106 69//69 68//68
f 107//107 106//106 68//68
f 108//108 105//105 69//69
f 108//108 69//69 109//109
f 69//69 111//110 110//111
f 112//112 69//69 106//106
f 111//110 69//69 112//112
f 109//109 69//69 110//111
f 70//70 98//98 113//113
f 71//71 70//70 114//114
f 114//114 70//70 113//113
f 78//78 74//74 72//72
f 115//115 72//72 74//74
f 104//104 72//72 116//116
f 72//72 115//115 116//116
f 77//77 76//76 117//117
f 118//118 76//76 75//75
f 118//118 117//117 76//76
f 119//119 120//120 77//77
f 77//77 121//121 119//119
f 117//117 121//121 77//77
f 120//120 73//73 77//77
f 74//74 73//73 115//115
f 86//86 122//122 79//79
f 86//86 79//79 83//83
f 80//80 79//79 122//122
f 122//122 123//123 80//80
f 80//80 123//123 82//82
f 123//123 124//124 82//82
f 82//82 124//124 125//125
f 97//97 82//82 125//125
f 86//86 84//84 85//85
f 85//85 84//84 45//45
f 126//126 85//85 88//89
f 86//86 85//85 126//126
f 122//122 86//86 127//127
f 86//86 126//126 128//128
f 127//127 86//86 128//128
f 129//129 126//126 88//89
f 130//130 129//129 88//89
f 89//88 131//131 88//89
f 88//89 131//131 130//130
f 87//87 95//95 89//88
f 93//93 90//90 132//132
f 132//132 90//90 105//105
f 91//91 94//94 92//92
f 91//91 133//133 94//94
f 93//93 133//133 91//91
f 94//94 135//134 134//135
f 94//94 134//135 53//53
f 94//94 136//136 135//134
f 136//136 94//94 137//137
f 94//94 133//133 137//137
f 53//53 134//135 96//96
f 96//96 55//55 53//53
f 131//131 95//95 138//138
f 89//88 95//95 131//131
f 96//96 139//139 95//95
f 139//139 138//138 95//95
f 54//54 96//96 95//95
f 140//140 141//141 96//96
f 96//96 135//134 142//142
f 96//96 134//135 135//134
f 96//96 141//141 139//139
f 143//143 140//140 96//96
f 96//96 142//142 143//143
f 97//97 125//125 75//75
f 100//100 144//144 98//98
f 144//144 145//145 98//98
f 113//113 98//98 145//145
f 100//100 99//99 144//144
f 101//101 144//144 99//99
f 102//102 146//146 101//101
f 102//102 103//103 147//147
f 148//148 146//146 102//102
f 149//149 148//148 102//102
f 149//149 102//102 150//150
f 150//150 102//102 151//151
f 147//147 151//151 102//102
f 103//103 152//152 153//153
f 103//103 153//153 147//147
f 104//104 116//116 103//103
f 154//154 105//105 108//108
f 132//132 105//105 155//155
f 155//155 105//105 154//154
f 68//68 71//71 107//107
f 107//107 112//112 106//106
f 71//71 156//156 107//107
f 154//154 108//108 157//157
f 108//108 109//109 157//157
f 109//109 110//111 158//158
f 157//157 109//109 158//158
f 159//159 158//158 110//111
f 110//111 160//160 159//159
f 111//110 160//160 110//111
f 162//161 111//110 163//162
f 164//163 111//110 162//161
f 111//110 165//164 160//160
f 161//165 163//162 111//110
f 111//110 112//112 161//165
f 164//163 165//164 111//110
f 113//113 156//156 114//114
f 114//114 156//156 71//71
f 115//115 73//73 166//166
f 116//116 115//115 166//166
f 103//103 116//116 152//152
f 152//152 116//116 167//167
f 116//116 166//166 167//167
f 73//73 120//120 166//166
f 118//118 75//75 125//125
f 117//117 118//118 125//125
f 168//168 117//117 125//125
f 121//121 117//117 169//169
f 169//169 117//117 170//170
f 171//171 117//117 168//168
f 117//117 171//171 170//170
f 172//172 120//120 119//119
f 119//119 174//173 173//174
f 176//175 175//176 119//119
f 175//176 172//172 119//119
f 176//175 119//119 173//174
f 174//173 119//119 121//121
f 172//172 167//167 120//120
f 121//121 169//169 174//173
f 123//123 122//122 177//177
f 127//127 177//177 122//122
f 123//123 177//177 124//124
f 168//168 125//125 124//124
f 124//124 177//177 168//168
f 178//178 126//126 179//179
f 180//180 128//128 126//126
f 178//178 180//180 126//126
f 126//126 129//129 179//179
f 171//171 177//177 127//127
f 127//127 128//128 180//180
f 180//180 171//171 127//127
f 181//181 182//182 129//129
f 129//129 182//182 179//179
f 183//183 181//181 129//129
f 183//183 129//129 130//130
f 131//131 139//139 130//130
f 183//183 130//130 139//139
f 139//139 131//131 138//138
f 93//93 184//184 133//133
f 184//184 93//93 132//132
f 132//132 155//155 184//184
f 142//142 135//134 136//136
f 185//185 142//142 136//136
f 136//136 137//137 185//185
f 137//137 155//155 186//186
f 155//155 137//137 133//133
f 185//185 137//137 186//186
f 187//187 139//139 141//141
f 139//139 187//187 183//183
f 143//143 188//188 140//140
f 140//140 188//188 141//141
f 189//189 187//187 141//141
f 190//190 189//189 141//141
f 185//185 191//191 142//142
f 142//142 191//191 143//143
f 188//188 143//143 191//191
f 144//144 101//101 192//192
f 144//144 192//192 193//193
f 144//144 193//193 145//145
f 193//193 194//194 145//145
f 145//145 194//194 195//195
f 113//113 145//145 156//156
f 156//156 145//145 195//195
f 192//192 101//101 196//196
f 196//196 101//101 146//146
f 148//148 197//197 146//146
f 197//197 196//196 146//146
f 198//198 147//147 153//153
f 151//151 147//147 199//199
f 198//198 200//200 147//147
f 200//200 199//199 147//147
f 201//201 148//148 202//202
f 201//201 197//197 148//148
f 150//150 203//203 149//149
f 149//149 203//203 148//148
f 153//153 152//152 204//204
f 167//167 204//204 152//152
f 205//205 154//154 157//157
f 133//133 184//184 155//155
f 154//154 186//186 155//155
f 112//112 156//156 161//165
f 161//165 156//156 195//195
f 107//107 156//156 112//112
f 157//157 206//206 205//205
f 158//158 206//206 157//157
f 207//207 158//158 159//159
f 158//158 208//208 206//206
f 158//158 207//207 208//208
f 209//209 207//207 159//159
f 159//159 160//160 209//209
f 210//210 209//209 160//160
f 165//164 210//210 160//160
f 195//195 163//162 161//165
f 164//163 162//161 192//192
f 192//192 162//161 211//211
f 162//161 163//162 211//211
f 163//162 194//194 193//193
f 211//211 163//162 193//193
f 163//162 195//195 194//194
f 212//212 164//163 192//192
f 212//212 165//164 164//163
f 166//166 120//120 167//167
f 204//204 167//167 172//172
f 213//213 169//169 170//170
f 213//213 174//173 169//169
f 171//171 214//214 170//170
f 213//213 170//170 182//182
f 170//170 214//214 182//182
f 168//168 177//177 171//171
f 180//180 214//214 171//171
f 215//215 204//204 172//172
f 172//172 175//176 215//215
f 173//174 174//173 216//216
f 173//174 217//217 176//175
f 218//218 217//217 173//174
f 216//216 218//218 173//174
f 213//213 216//216 174//173
f 220//219 219//220 175//176
f 215//215 175//176 219//220
f 175//176 176//175 220//219
f 221//221 220//219 176//175
f 217//217 221//221 176//175
f 178//178 179//179 182//182
f 182//182 180//180 178//178
f 181//181 222//222 213//213
f 182//182 181//181 213//213
f 222//222 181//181 183//183
f 182//182 214//214 180//180
f 223//223 183//183 224//224
f 183//183 218//218 222//222
f 225//225 183//183 187//187
f 224//224 183//183 225//225
f 183//183 223//223 218//218
f 226//226 185//185 227//227
f 226//226 229//228 185//185
f 185//185 186//186 227//227
f 185//185 229//228 228//229
f 154//154 230//230 186//186
f 227//227 186//186 230//230
f 187//187 231//231 225//225
f 232//232 187//187 233//233
f 231//231 187//187 232//232
f 234//234 233//233 187//187
f 189//189 234//234 187//187
f 185//185 188//188 191//191
f 185//185 228//229 188//188
f 188//188 236//235 235//236
f 188//188 228//229 236//235
f 237//237 188//188 235//236
f 188//188 237//237 190//190
f 188//188 190//190 141//141
f 237//237 189//189 190//190
f 189//189 237//237 234//234
f 238//238 192//192 196//196
f 212//212 192//192 239//239
f 193//193 192//192 211//211
f 238//238 240//240 192//192
f 240//240 239//239 192//192
f 238//238 196//196 241//241
f 242//242 241//241 196//196
f 242//242 196//196 243//243
f 243//243 196//196 197//197
f 197//197 201//201 243//243
f 200//200 198//198 244//244
f 198//198 153//153 245//245
f 151//151 199//199 150//150
f 199//199 200//200 150//150
f 246//246 150//150 200//200
f 244//244 247//247 200//200
f 246//246 200//200 248//248
f 249//249 248//248 200//200
f 200//200 247//247 249//249
f 203//203 202//202 148//148
f 201//201 202//202 250//250
f 246//246 203//203 150//150
f 204//204 245//245 153//153
f 205//205 230//230 154//154
f 251//251 205//205 206//206
f 205//205 227//227 230//230
f 226//226 227//227 205//205
f 205//205 251//251 226//226
f 226//226 251//251 206//206
f 209//209 252//252 207//207
f 207//207 252//252 208//208
f 206//206 208//208 253//253
f 208//208 252//252 253//253
f 209//209 210//210 254//254
f 252//252 209//209 254//254
f 255//255 210//210 165//164
f 210//210 256//256 254//254
f 210//210 255//255 256//256
f 165//164 212//212 255//255
f 216//216 213//213 222//222
f 257//257 215//215 219//220
f 257//257 258//258 215//215
f 218//218 216//216 222//222
f 221//221 217//217 259//259
f 260//260 218//218 223//223
f 217//217 218//218 260//260
f 261//261 219//220 262//262
f 219//220 261//261 257//257
f 219//220 220//219 263//263
f 219//220 264//264 262//262
f 263//263 264//264 219//220
f 221//221 263//263 220//219
f 221//221 259//259 263//263
f 265//265 266//266 223//223
f 267//267 265//265 223//223
f 268//268 267//267 223//223
f 266//266 269//269 223//223
f 223//223 269//269 260//260
f 223//223 224//224 268//268
f 224//224 225//225 231//231
f 226//226 206//206 253//253
f 270//270 226//226 256//256
f 271//271 229//228 226//226
f 271//271 226//226 270//270
f 256//256 226//226 253//253
f 235//236 236//235 228//229
f 229//228 235//236 228//229
f 229//228 273//272 272//273
f 271//271 273//272 229//228
f 229//228 272//273 274//274
f 235//236 229//228 274//274
f 232//232 290//275 231//231
f 275//276 290//275 232//232
f 275//276 232//232 233//233
f 234//234 237//237 235//236
f 270//270 240//240 276//277
f 240//240 277//278 276//277
f 250//250 277//278 240//240
f 240//240 270//270 239//239
f 240//240 241//241 250//250
f 240//240 238//238 241//241
f 242//242 250//250 241//241
f 243//243 250//250 242//242
f 278//279 244//244 279//280
f 279//280 244//244 198//198
f 280//281 198//198 245//245
f 279//280 198//198 280//281
f 247//247 281//282 249//249
f 281//282 247//247 244//244
f 246//246 248//248 265//265
f 249//249 265//265 248//248
f 281//282 265//265 249//249
f 243//243 201//201 250//250
f 282//283 250//250 202//202
f 202//202 203//203 282//283
f 277//278 250//250 282//283
f 203//203 246//246 282//283
f 204//204 280//281 245//245
f 215//215 258//258 204//204
f 204//204 258//258 280//281
f 256//256 252//252 254//254
f 253//253 252//252 256//256
f 255//255 283//284 256//256
f 212//212 239//239 283//284
f 212//212 283//284 255//255
f 257//257 261//261 284//285
f 257//257 284//285 278//279
f 278//279 279//280 257//257
f 279//280 258//258 257//257
f 280//281 258//258 279//280
f 285//286 217//217 260//260
f 259//259 217//217 285//286
f 262//262 286//287 261//261
f 286//287 284//285 261//261
f 286//287 262//262 260//260
f 260//260 262//262 285//286
f 262//262 264//264 285//286
f 263//263 259//259 264//264
f 259//259 285//286 264//264
f 281//282 266//266 265//265
f 282//283 265//265 267//267
f 246//246 265//265 282//283
f 287//288 266//266 281//282
f 287//288 269//269 266//266
f 267//267 288//289 282//283
f 268//268 289//290 267//267
f 289//290 288//289 267//267
f 290//275 289//290 268//268
f 290//275 268//268 224//224
f 291//291 284//285 269//269
f 269//269 287//288 291//291
f 269//269 286//287 260//260
f 290//275 224//224 231//231
f 292//292 270//270 276//277
f 293//293 270//270 292//292
f 270//270 256//256 283//284
f 270//270 283//284 239//239
f 270//270 293//293 271//271
f 271//271 293//293 273//272
f 233//233 234//234 235//236
f 274//274 233//233 235//236
f 273//272 294//294 272//273
f 272//273 294//294 295//295
f 272//273 295//295 274//274
f 293//293 294//294 273//272
f 274//274 295//295 233//233
f 290//275 297//296 296//297
f 275//276 297//296 290//275
f 295//295 275//276 233//233
f 276//277 277//278 296//297
f 296//297 292//292 276//277
f 298//298 299//299 277//278
f 296//297 277//278 299//299
f 277//278 282//283 298//298
f 244//244 278//279 291//291
f 291//291 278//279 284//285
f 287//288 281//282 244//244
f 291//291 287//288 244//244
f 288//289 298//298 282//283
f 269//269 284//285 286//287
f 288//289 289//290 300//300
f 300//300 298//298 288//289
f 300//300 289//290 299//299
f 289//290 290//275 299//299
f 296//297 294//294 292//292
f 293//293 292//292 294//294
f 294//294 296//297 297//296
f 297//296 295//295 294//294
f 275//276 295//295 297//296
f 296//297 299//299 290//275
f 299//299 298//298 300//300
