# Blender 4.0.2
# www.blender.org
mtllib thoracic10.mtl
o thoracic10.002
v -0.040938 0.010949 0.032593
v -0.043281 0.018643 0.032460
v -0.038092 0.010885 0.029661
v -0.041609 0.020149 0.030625
v -0.043443 0.009488 0.030916
v -0.044280 0.019113 0.031312
v -0.036298 0.012632 0.025388
v -0.033212 0.017757 0.025229
v -0.040873 0.020315 0.029402
v -0.040682 0.010127 0.026334
v -0.043912 0.009545 0.027068
v -0.045726 0.012760 0.027845
v -0.035549 0.019214 0.025741
v -0.040020 0.010152 0.024832
v -0.041501 0.009952 0.024899
v -0.033596 0.019973 0.023686
v -0.031916 0.020750 0.021093
v -0.033351 0.021315 0.021275
v -0.031930 0.014327 0.019432
v -0.039034 0.009705 0.021740
v -0.037746 0.009511 0.020821
v -0.041424 0.010020 0.024877
v -0.041470 0.012497 0.021773
v -0.042902 0.018871 0.022300
v 0.006987 -0.000118 0.014714
v 0.002609 -0.000091 0.017236
v -0.003483 0.001341 0.018192
v -0.018618 0.001498 0.015219
v -0.018195 0.014572 0.016174
v -0.019634 0.006651 0.017525
v -0.028759 0.030209 0.019032
v -0.029157 0.030369 0.018933
v -0.027768 0.016513 0.017020
v -0.031059 0.025185 0.018066
v -0.032286 0.000705 0.017897
v -0.032540 0.002616 0.018096
v -0.032600 0.002615 0.018055
v -0.033686 0.000461 0.018739
v -0.035755 0.008766 0.018297
v -0.038239 0.008100 0.018044
v -0.040260 0.018300 0.018504
v -0.039778 0.013468 0.016931
v 0.008351 0.001005 0.012574
v -0.000621 0.021242 0.016883
v -0.000384 0.014267 0.014861
v -0.004449 0.022706 0.016791
v -0.011651 0.021824 0.016424
v -0.023411 0.020355 0.015736
v -0.022575 0.015502 0.014340
v -0.026117 0.012209 0.015627
v -0.025317 0.017506 0.014803
v -0.027636 0.020575 0.012901
v -0.028957 0.034294 0.016453
v -0.029108 0.032784 0.017742
v -0.030466 0.026629 0.017609
v -0.030312 0.026770 0.017740
v -0.030578 0.026829 0.017460
v -0.030030 0.012550 0.015743
v -0.033746 -0.003592 0.014781
v -0.034040 0.008767 0.014986
v 0.007776 0.023392 0.013292
v 0.005974 0.014007 0.011876
v -0.017230 0.023333 0.013561
v -0.021488 0.025598 0.013206
v -0.024876 0.026977 0.013193
v -0.025934 0.030113 0.012908
v -0.024319 0.008234 0.013896
v -0.025918 0.018700 0.014633
v -0.025843 0.018559 0.014701
v -0.029472 0.035029 0.015063
v -0.029508 0.035079 0.015054
v -0.030089 0.036050 0.013483
v -0.030307 0.036113 0.012662
v -0.027365 0.011690 0.014844
v -0.028004 0.011703 0.013124
v -0.029881 0.012019 0.013843
v -0.029909 0.012051 0.013851
v -0.033795 0.008705 0.013953
v -0.034250 -0.003634 0.013149
v -0.035399 -0.005681 0.011690
v -0.038407 -0.003362 0.012075
v -0.040974 0.004397 0.010087
v 0.012592 0.023140 0.006705
v 0.012700 0.000828 0.004800
v -0.015152 0.002552 0.008422
v -0.021127 0.000970 0.008592
v -0.028226 0.012811 0.011852
v -0.030955 0.012738 0.011643
v -0.027691 0.015671 0.009294
v -0.031240 0.036382 0.011414
v -0.030970 0.036158 0.010759
v -0.031177 0.036274 0.011329
v -0.035789 0.011143 0.005786
v -0.034534 0.022592 0.011843
v -0.035159 -0.005060 0.011019
v -0.036011 -0.003906 0.009853
v -0.036292 -0.002100 0.009188
v -0.036012 -0.003914 0.009822
v -0.038567 -0.003533 0.010930
v -0.039950 -0.003040 0.010273
v -0.038203 -0.001288 0.008526
v -0.041828 -0.001535 0.010698
v -0.039979 -0.002858 0.010244
v 0.010490 0.013960 0.005514
v -0.021119 0.000994 0.008472
v -0.021458 0.000968 0.005913
v -0.025551 0.026596 0.008481
v -0.029709 0.027560 0.007671
v -0.032261 0.035723 0.009520
v -0.032978 0.033891 0.008162
v -0.033208 0.033094 0.008142
v -0.038309 0.017161 0.006982
v -0.040687 -0.005395 0.007541
v -0.041549 -0.005946 0.007192
v -0.041304 -0.006199 0.007255
v -0.047410 -0.003907 0.007310
v -0.022868 0.024109 0.006304
v -0.019457 0.000441 -0.000291
v -0.034011 0.022930 0.004964
v -0.033850 0.023678 0.005400
v -0.034346 0.021969 0.004560
v -0.034567 0.029667 0.007882
v -0.034754 0.022531 0.005371
v -0.035797 0.021581 0.004147
v -0.043314 -0.005390 0.003964
v -0.043292 -0.005326 0.005231
v -0.043291 -0.005341 0.005230
v -0.057442 -0.007392 0.002748
v -0.067970 -0.007793 0.003624
v 0.013438 0.001824 -0.003242
v 0.011787 0.000506 -0.007802
v -0.004366 0.023649 0.000308
v -0.018432 0.024230 0.002216
v -0.019723 0.022918 -0.000279
v -0.020142 0.000888 0.001338
v -0.036458 0.017902 0.001702
v -0.037640 0.018052 0.001384
v -0.036522 0.020307 0.002804
v -0.037224 0.018731 0.002273
v -0.044694 0.011964 0.001177
v -0.043763 -0.005785 0.001184
v -0.052375 0.008707 -0.000510
v -0.059427 -0.002166 0.001861
v -0.056852 -0.010055 0.000700
v -0.064871 -0.004891 0.002358
v -0.064943 -0.014396 -0.000533
v -0.067059 -0.012861 0.002426
v -0.064928 -0.004766 0.002322
v 0.011563 0.013077 -0.001370
v 0.012374 0.022722 -0.007459
v 0.004818 0.001015 -0.004688
v -0.007373 0.002014 0.000965
v -0.018509 0.024414 -0.000601
v -0.015880 0.023719 -0.003866
v -0.018500 0.024301 -0.000662
v -0.036598 0.015440 0.000161
v -0.036608 0.015191 -0.000919
v -0.037890 0.016913 -0.000419
v -0.038975 0.017115 -0.000384
v -0.041676 -0.002993 -0.003706
v -0.052043 0.008597 -0.000499
v -0.055803 0.003696 -0.001608
v -0.056822 -0.010095 0.000689
v -0.058034 -0.009489 -0.002937
v -0.063820 -0.004563 -0.002922
v -0.067277 -0.006300 -0.003470
v -0.021182 0.024707 -0.006995
v -0.021440 0.000880 -0.006723
v -0.035791 0.011527 -0.004975
v -0.036349 0.020588 -0.003647
v -0.035979 0.021388 -0.004551
v -0.037818 0.017107 -0.000271
v -0.038964 0.017091 -0.000405
v -0.043971 0.012525 -0.002169
v -0.043155 -0.005184 -0.005489
v -0.055564 -0.006886 -0.004212
v -0.067241 -0.012804 -0.003182
v -0.067174 -0.009054 -0.004475
v -0.067836 -0.007767 -0.003840
v 0.008052 0.014486 -0.010736
v -0.023237 0.023706 -0.007200
v -0.023290 0.006641 -0.008510
v -0.034202 0.022398 -0.005471
v -0.033697 0.024711 -0.006341
v -0.034327 0.022908 -0.005989
v -0.036231 0.020437 -0.004217
v -0.036995 0.003974 -0.007214
v -0.037398 0.017690 -0.010112
v -0.040860 -0.005925 -0.007847
v -0.040895 -0.005955 -0.007909
v -0.040967 0.006341 -0.010096
v -0.043129 -0.005222 -0.005502
v -0.046392 -0.004018 -0.008294
v 0.010531 0.022988 -0.010882
v -0.015212 0.002563 -0.009663
v -0.020145 0.001429 -0.013835
v -0.023679 0.027206 -0.012472
v -0.027366 0.015279 -0.010197
v -0.027982 0.025933 -0.008556
v -0.029931 0.017188 -0.009665
v -0.033235 0.033826 -0.008997
v -0.034699 0.022170 -0.007991
v -0.034327 0.029781 -0.008193
v -0.034392 0.030514 -0.008247
v -0.035487 -0.005188 -0.011240
v -0.039066 -0.003554 -0.012218
v -0.038218 -0.001070 -0.009059
v -0.039045 -0.002141 -0.010100
v -0.041577 -0.001997 -0.011266
v -0.039464 -0.002883 -0.010854
v -0.040137 0.001636 -0.012090
v 0.005849 0.023687 -0.014068
v 0.005870 0.023640 -0.014068
v -0.017236 0.023044 -0.014820
v -0.026603 0.010663 -0.013811
v -0.026463 0.011260 -0.011587
v -0.028671 0.012974 -0.012398
v -0.031770 0.035740 -0.010445
v -0.033088 0.034836 -0.009492
v -0.032038 0.035874 -0.010479
v -0.031248 0.035648 -0.011483
v -0.033857 0.008478 -0.014716
v -0.035434 -0.005563 -0.011813
v -0.035415 -0.005566 -0.011824
v -0.034400 -0.004020 -0.015457
v -0.037150 -0.004853 -0.012500
v -0.039104 -0.003153 -0.012103
v 0.007148 0.022118 -0.014725
v 0.006005 -0.000012 -0.015291
v 0.002617 -0.000286 -0.017269
v -0.000987 0.013552 -0.015589
v -0.009328 0.015258 -0.015755
v -0.022108 0.015763 -0.015327
v -0.024825 0.017185 -0.015373
v -0.025498 0.017983 -0.015435
v -0.026490 0.020265 -0.013587
v -0.025455 0.027167 -0.014065
v -0.028663 0.033467 -0.018218
v -0.025842 0.011787 -0.016027
v -0.025887 0.018521 -0.015382
v -0.030584 0.036414 -0.012327
v -0.029923 0.035667 -0.014030
v -0.030503 0.011861 -0.013722
v -0.028265 0.011844 -0.014919
v -0.028728 0.020559 -0.014907
v -0.031255 0.025936 -0.018348
v -0.031311 0.036099 -0.012205
v -0.033699 -0.001210 -0.017144
v -0.040020 0.012374 -0.020616
v 0.000832 0.000490 -0.018477
v -0.001048 0.022012 -0.017748
v -0.005157 0.023526 -0.017238
v -0.006123 0.000282 -0.018036
v -0.006664 0.000323 -0.017988
v -0.019190 0.016185 -0.016878
v -0.012712 0.000746 -0.017135
v -0.021888 0.023449 -0.015180
v -0.019682 0.006726 -0.018247
v -0.024354 0.013991 -0.016172
v -0.027157 0.015957 -0.017576
v -0.030162 0.025153 -0.017971
v -0.030091 0.035894 -0.014237
v -0.029707 0.013246 -0.017546
v -0.032899 -0.000496 -0.018669
v -0.032523 0.000493 -0.017921
v -0.032489 0.003172 -0.018399
v -0.032743 0.003480 -0.018256
v -0.033088 0.004654 -0.018012
v -0.036704 0.006511 -0.017857
v -0.035216 0.008602 -0.018185
v -0.035348 0.004136 -0.019526
v -0.037724 0.007472 -0.018736
v -0.036307 0.006441 -0.019147
v -0.028777 0.031513 -0.019545
v -0.028639 0.030334 -0.019484
v -0.029073 0.030191 -0.019633
v -0.031405 0.024299 -0.019304
v -0.036699 0.010670 -0.021879
v -0.036307 0.008082 -0.019098
v -0.037648 0.007805 -0.018392
v -0.040378 0.018215 -0.019903
v -0.040045 0.010345 -0.022521
v -0.031657 0.020922 -0.021460
v -0.034023 0.020310 -0.023144
v -0.037980 0.009655 -0.022178
v -0.040088 0.010356 -0.022591
v -0.042334 0.018990 -0.022556
v -0.042450 0.019046 -0.022386
v -0.039840 0.020291 -0.029575
v -0.041881 0.009519 -0.027907
v -0.045222 0.010210 -0.027984
v -0.038850 0.010363 -0.031140
v -0.040425 0.012315 -0.033302
v -0.041658 0.020527 -0.031833
v -0.043140 0.009822 -0.032397
v -0.044276 0.018047 -0.033019
v -0.042041 0.020318 -0.031389
v -0.041501 0.009952 0.024899
v -0.033596 0.019973 0.023686
v -0.029017 0.029699 0.018934
v -0.040328 0.018105 0.018492
v 0.006558 0.000203 0.013706
v -0.028574 0.013537 0.016724
v -0.030012 0.012519 0.015766
v -0.027365 0.011690 0.014844
v -0.027365 0.011690 0.014844
v -0.028004 0.011703 0.013124
v -0.035399 -0.005638 0.011696
v -0.028368 0.012656 0.011795
v -0.030338 0.036063 0.012655
v -0.035159 -0.005060 0.011019
v -0.035159 -0.005060 0.011019
v -0.036458 0.017902 0.001702
v -0.036522 0.020307 0.002804
v -0.037356 0.018851 0.002278
v -0.019455 0.000464 -0.000275
v -0.036702 0.015474 0.000182
v -0.036608 0.015191 -0.000919
v -0.037642 0.018037 0.001409
v -0.037890 0.016913 -0.000419
v -0.037890 0.016913 -0.000419
v -0.037890 0.016913 -0.000419
v -0.037066 0.018061 -0.002067
v -0.066993 -0.006227 -0.003387
v -0.034198 0.022406 -0.005467
v -0.033695 0.024776 -0.006480
v -0.029880 0.017127 -0.009709
v -0.033727 0.028162 -0.008487
v 0.010157 0.022944 -0.010845
v -0.028671 0.012974 -0.012398
v -0.028229 0.011451 -0.014934
v -0.032300 0.035788 -0.010017
v -0.031814 0.035460 -0.010405
v -0.033211 0.033788 -0.009131
v 0.005938 0.000138 -0.014998
v -0.022096 0.015766 -0.015200
v -0.028745 0.020551 -0.014867
v -0.033561 -0.003060 -0.015752
v -0.027087 0.015939 -0.017599
v -0.028855 0.034154 -0.017164
v -0.029707 0.013246 -0.017546
v -0.033267 -0.001442 -0.017693
v -0.032523 0.000493 -0.017921
v -0.033095 0.004654 -0.018011
v -0.035020 0.006752 -0.018312
v -0.036416 0.006281 -0.018793
v -0.030102 0.025104 -0.018057
v -0.031100 0.025852 -0.018627
v -0.031249 0.025902 -0.018341
v -0.031405 0.024299 -0.019304
v -0.036307 0.008082 -0.019098
v -0.036307 0.008082 -0.019098
v -0.036307 0.008082 -0.019098
v -0.042601 0.019204 -0.032441
v -0.043817 0.017693 -0.032703
vn 0.2042 -0.4110 0.8885
vn -0.1311 0.3671 0.9209
vn -0.4142 -0.7716 0.4828
vn 0.7308 0.2012 0.6523
vn 0.5684 0.4039 0.7168
vn -0.6649 0.6453 -0.3762
vn -0.7233 0.5869 0.3637
vn 0.0657 0.9815 0.1798
vn 0.6455 -0.6596 0.3850
vn 0.3094 -0.9493 0.0556
vn -0.5073 -0.8306 -0.2297
vn -0.9889 -0.1456 -0.0292
vn 0.5038 0.6555 0.5626
vn 0.1732 -0.9784 -0.1124
vn 0.1504 -0.9754 0.1613
vn 0.1267 -0.9916 0.0256
vn -0.6697 -0.6275 -0.3972
vn -0.9703 -0.0020 -0.2417
vn 0.5724 0.5665 0.5929
vn 0.1877 0.8499 0.4923
vn -0.0116 0.8346 0.5507
vn -0.4025 -0.7079 -0.5803
vn 0.6334 -0.0854 0.7691
vn 0.6498 0.4648 0.6015
vn 0.5437 -0.7875 0.2901
vn 0.2537 -0.8737 0.4151
vn 0.1339 -0.9676 0.2140
vn -0.7632 -0.6025 -0.2336
vn -0.6657 -0.4947 0.5586
vn -0.4155 0.9090 -0.0334
vn -0.3342 -0.8133 0.4763
vn -0.0660 -0.9978 -0.0065
vn 0.0459 -0.3827 0.9227
vn -0.3247 -0.1654 0.9312
vn -0.1309 0.0684 0.9890
vn -0.7082 -0.5622 0.4271
vn -0.0265 -0.3349 0.9419
vn 0.4401 0.0337 0.8973
vn -0.5206 0.2701 0.8099
vn -0.4971 -0.1029 0.8616
vn 0.8025 -0.0139 0.5965
vn 0.5720 -0.7335 0.3672
vn 0.9131 -0.2177 0.3448
vn -0.0073 -0.3762 0.9265
vn -0.1741 0.3654 0.9144
vn 0.5842 0.3804 0.7169
vn 0.5776 -0.4118 0.7048
vn -0.7506 0.3296 0.5727
vn -0.8022 0.1029 -0.5882
vn 0.1095 -0.9940 0.0058
vn 0.7709 -0.6004 0.2128
vn 0.8085 -0.2595 0.5282
vn 0.6338 -0.0330 0.7728
vn 0.5441 0.2026 0.8142
vn 0.1973 0.0955 0.9757
vn 0.5212 0.5669 0.6379
vn -0.0107 0.6140 0.7893
vn 0.2566 -0.0316 0.9660
vn 0.0129 -0.1020 0.9947
vn -0.2746 0.2171 0.9367
vn -0.0846 -0.0102 0.9964
vn -0.1578 -0.6885 0.7078
vn 0.2534 0.2086 0.9446
vn 0.3491 0.3810 0.8561
vn -0.8298 -0.3503 0.4344
vn 0.9026 0.4001 0.1586
vn 0.2045 -0.1902 0.9602
vn 0.1825 0.7961 0.5771
vn -0.9230 0.0459 0.3820
vn -0.8535 0.2738 0.4434
vn 0.4419 -0.2065 0.8730
vn 0.3017 -0.8357 0.4588
vn -0.1925 -0.9671 0.1660
vn -0.1803 -0.9746 0.1330
vn -0.2163 -0.9484 0.2319
vn -0.5270 0.2987 0.7957
vn -0.8681 0.2484 0.4298
vn 0.6545 -0.6756 0.3393
vn 0.9288 -0.3574 -0.0979
vn 0.9319 -0.1382 -0.3354
vn -0.8931 0.4485 0.0351
vn -0.7818 0.1500 0.6053
vn -0.6101 -0.5927 0.5258
vn 0.9257 -0.0586 0.3736
vn 0.0851 0.8921 0.4438
vn 0.1192 -0.9920 -0.0425
vn 0.2866 0.7759 0.5620
vn -0.2849 -0.9559 0.0708
vn -0.6334 -0.6559 -0.4106
vn -0.6074 0.0256 0.7940
vn -0.0583 0.0400 0.9975
vn -0.0721 0.8541 0.5151
vn 0.2088 0.8749 0.4371
vn 0.8459 0.4433 -0.2965
vn -0.5500 -0.7459 -0.3757
vn -0.1481 -0.9878 0.0475
vn -0.6908 -0.6779 0.2515
vn 0.4342 -0.8730 -0.2221
vn 0.4942 -0.6108 -0.6186
vn -0.4519 -0.8863 0.1011
vn 0.8949 -0.4319 -0.1120
vn 0.8874 -0.4551 -0.0740
vn -0.8528 0.5095 0.1148
vn 0.7966 0.5353 0.2808
vn -0.0598 -0.9976 0.0357
vn -0.1251 0.9879 -0.0914
vn 0.3035 -0.9519 -0.0413
vn -0.6605 -0.7378 -0.1396
vn 0.3314 0.4741 -0.8157
vn -0.3007 -0.2958 -0.9067
vn 0.2981 0.2443 -0.9228
vn 0.3448 0.7966 -0.4966
vn 0.0245 -0.6415 -0.7667
vn 0.1136 0.9810 -0.1575
vn 0.3403 0.9380 -0.0664
vn 0.8495 -0.3632 -0.3827
vn 0.8812 0.0464 -0.4704
vn 0.4750 -0.3270 -0.8169
vn 0.7342 -0.1310 -0.6661
vn -0.0221 -0.7301 -0.6829
vn -0.3709 -0.5858 -0.7206
vn -0.4109 -0.8693 -0.2749
vn -0.2429 -0.9689 0.0463
vn 0.5058 -0.4902 -0.7098
vn -0.3794 -0.1929 0.9049
vn -0.5410 -0.6927 0.4769
vn 0.0340 -0.8855 0.4633
vn 0.0071 1.0000 0.0039
vn -0.0924 -0.9954 -0.0242
vn -0.4771 0.6275 -0.6153
vn 0.2966 -0.9548 -0.0177
vn 0.3833 0.3123 -0.8692
vn -0.8224 0.2909 -0.4889
vn -0.5129 0.5218 -0.6817
vn -0.8998 0.2449 0.3611
vn -0.9251 0.3724 -0.0746
vn -0.7252 0.6410 -0.2513
vn 0.5241 -0.7154 -0.4621
vn 0.3419 -0.9374 -0.0667
vn 0.6212 -0.7751 -0.1152
vn -0.4571 -0.6245 0.6333
vn -0.0389 -0.9428 -0.3311
vn 0.0361 -0.9553 -0.2934
vn -0.5240 0.4846 0.7004
vn -0.0900 -0.2987 0.9501
vn 0.9965 -0.0049 -0.0829
vn -0.9456 -0.2928 -0.1415
vn 0.3133 0.3449 -0.8848
vn 0.2223 0.3299 -0.9175
vn -0.7594 0.6402 -0.1160
vn -0.7968 0.6011 0.0611
vn -0.6282 0.7675 0.1278
vn -0.6062 0.7215 0.3346
vn 0.4976 -0.8636 0.0813
vn -0.5677 0.6935 0.4436
vn 0.3072 -0.9241 0.2275
vn 0.8435 0.4722 -0.2561
vn 0.9619 -0.2429 -0.1254
vn 0.7027 -0.6325 -0.3259
vn -0.9043 0.4236 0.0535
vn 0.9476 0.0076 -0.3193
vn 0.6996 0.2634 -0.6642
vn 0.0958 0.5396 -0.8365
vn -0.9207 0.3566 0.1585
vn 0.9219 -0.3391 -0.1876
vn -0.8060 0.5451 -0.2308
vn 0.8482 -0.4787 0.2266
vn 0.1303 -0.9885 0.0769
vn 0.0930 -0.4949 0.8639
vn 0.0616 -0.9977 -0.0279
vn 0.0483 0.2927 0.9550
vn -0.4887 -0.6183 0.6155
vn -0.6918 0.1924 0.6960
vn -0.5474 0.8369 0.0034
vn -0.3147 0.6746 -0.6678
vn -0.8740 0.4790 0.0818
vn -0.5568 -0.5892 -0.5855
vn 0.2883 0.9254 -0.2460
vn 0.1245 0.9917 -0.0327
vn -0.4374 0.8973 0.0598
vn 0.5328 0.8340 -0.1430
vn -0.6801 -0.7324 0.0334
vn -0.4068 -0.9111 0.0664
vn 0.8401 -0.3579 0.4076
vn 0.7862 0.6114 -0.0900
vn 0.2319 0.7842 -0.5756
vn 0.2015 0.8111 -0.5491
vn 0.1657 0.8399 -0.5168
vn 0.6892 0.3557 -0.6312
vn 0.1434 0.8563 -0.4961
vn -0.6644 0.6797 -0.3109
vn -0.1884 0.4422 -0.8769
vn -0.7119 0.5351 -0.4548
vn 0.1619 -0.6475 -0.7447
vn 0.7617 -0.0925 -0.6412
vn 0.2837 -0.7980 -0.5317
vn -0.2604 0.8811 0.3948
vn 0.0843 -0.9928 0.0849
vn -0.5181 0.4404 0.7332
vn 0.5218 -0.2253 0.8228
vn 0.9272 0.2064 0.3126
vn 0.6990 0.1788 0.6924
vn 0.4888 0.3901 0.7803
vn 0.0317 -0.7054 -0.7081
vn -0.0897 0.7232 0.6848
vn 0.7131 0.3555 0.6042
vn 0.8258 -0.5631 0.0308
vn -0.7183 -0.0332 -0.6949
vn -0.2077 -0.5887 -0.7812
vn -0.3339 -0.0025 -0.9426
vn -0.3385 -0.0591 -0.9391
vn -0.0731 0.3622 -0.9292
vn -0.9452 0.2978 -0.1336
vn -0.8746 -0.2916 0.3872
vn 0.4540 0.0691 0.8883
vn 0.7121 0.0189 0.7018
vn -0.3303 0.6382 0.6954
vn -0.9348 0.2327 0.2682
vn -0.8297 0.4814 0.2825
vn -0.9056 0.4242 0.0062
vn -0.2208 0.6751 0.7039
vn -0.9100 0.4133 0.0317
vn 0.8605 -0.2254 0.4568
vn 0.5308 -0.5276 0.6633
vn -0.9478 0.0441 -0.3158
vn 0.4805 -0.7598 0.4379
vn -0.0607 -0.9644 -0.2575
vn -0.0618 0.6829 -0.7279
vn 0.0907 0.7452 -0.6607
vn 0.5879 0.8079 -0.0418
vn -0.4647 -0.8331 -0.2999
vn -0.4110 -0.2975 0.8617
vn 0.2829 0.2472 0.9268
vn 0.5508 0.6434 0.5316
vn -0.3741 0.2768 0.8851
vn 0.4741 0.2240 0.8515
vn 0.5346 -0.7853 0.3123
vn 0.9252 -0.3780 -0.0327
vn -0.9327 0.1773 0.3142
vn -0.5946 -0.6691 0.4458
vn 0.3837 -0.6308 0.6744
vn 0.5850 -0.7786 -0.2272
vn -0.1237 -0.8547 0.5041
vn -0.9259 -0.2104 0.3137
vn -0.3558 -0.3782 -0.8546
vn -0.6416 -0.2093 -0.7380
vn 0.8081 -0.2448 -0.5357
vn 0.5587 0.1659 -0.8126
vn 0.4866 0.5119 -0.7079
vn 0.2593 0.9558 -0.1388
vn 0.6371 0.1312 -0.7596
vn -0.6775 -0.7215 -0.1431
vn 0.7475 0.5548 0.3652
vn -0.8006 -0.4813 0.3569
vn -0.6530 -0.7228 0.2262
vn -0.2753 -0.5777 0.7684
vn -0.4829 -0.4460 0.7536
vn -0.1268 -0.9506 -0.2832
vn -0.8547 0.5067 -0.1134
vn -0.2783 0.9605 -0.0065
vn -0.9229 0.1470 -0.3558
vn 0.4303 0.8922 0.1375
vn -0.7177 0.0718 -0.6926
vn -0.7812 0.5029 -0.3699
vn -0.8126 0.4597 0.3583
vn -0.5717 -0.7952 -0.2020
vn -0.4007 -0.9129 -0.0775
vn 0.5089 -0.8323 -0.2196
vn 0.3455 -0.7142 -0.6088
vn 0.9483 -0.0998 0.3012
vn 0.2479 0.0104 -0.9687
vn 0.2029 -0.9724 -0.1152
vn 0.2105 -0.3273 -0.9212
vn 0.1711 0.2630 -0.9495
vn -0.1628 0.1131 -0.9802
vn 0.0929 0.2226 -0.9705
vn -0.1504 -0.8109 -0.5655
vn -0.3354 -0.2058 -0.9193
vn -0.0454 0.3643 -0.9302
vn 0.5616 0.0150 -0.8273
vn -0.1501 -0.4615 -0.8744
vn -0.1273 0.1897 -0.9736
vn 0.1557 0.1079 -0.9819
vn -0.1369 0.0065 -0.9906
vn 0.4832 -0.1782 -0.8572
vn 0.1202 0.4367 -0.8916
vn 0.0876 0.3425 -0.9354
vn 0.9318 0.2659 -0.2470
vn -0.6575 -0.7214 0.2175
vn 0.8221 0.2997 -0.4841
vn 0.7158 -0.1782 -0.6752
vn 0.5794 0.8150 0.0040
vn 0.4355 -0.7397 -0.5129
vn 0.8020 0.5943 0.0599
vn 0.8208 -0.5571 -0.1264
vn 0.3874 -0.4912 -0.7802
vn -0.7055 -0.3799 -0.5983
vn -0.1537 -0.4888 -0.8588
vn -0.0672 -0.9975 0.0220
vn -0.3364 -0.5936 -0.7311
vn 0.7150 0.1928 -0.6720
vn 0.2734 -0.2678 -0.9239
vn 0.2612 -0.2723 -0.9261
vn 0.8706 0.1734 -0.4605
vn 0.9671 0.1017 -0.2331
vn -0.8104 0.2854 -0.5117
vn -0.3429 0.7465 -0.5703
vn 0.4559 0.4484 -0.7688
vn 0.4720 0.4291 -0.7702
vn 0.6762 0.3288 -0.6593
vn -0.1882 0.1581 -0.9693
vn 0.5498 -0.7739 -0.3145
vn 0.9127 -0.3711 -0.1711
vn 0.9197 -0.3693 -0.1334
vn 0.9327 -0.1163 -0.3413
vn 0.3992 0.1348 -0.9069
vn 0.9703 0.0963 0.2217
vn 0.5002 0.2732 -0.8217
vn 0.2372 0.0690 -0.9690
vn 0.7426 0.5166 -0.4261
vn 0.7167 -0.0332 -0.6966
vn 0.4646 0.3071 -0.8306
vn 0.4663 0.3119 -0.8278
vn 0.8507 -0.3183 -0.4183
vn -0.1822 -0.1535 -0.9712
vn 0.2641 0.3332 -0.9051
vn 0.3466 -0.3562 -0.8677
vn 0.4809 0.4167 -0.7715
vn 0.5109 0.3981 -0.7619
vn -0.4175 0.9085 0.0198
vn 0.6732 -0.5556 -0.4880
vn 0.6859 -0.4820 -0.5451
vn 0.0532 -0.7786 -0.6252
vn -0.1928 -0.7318 -0.6537
vn 0.2995 -0.8655 -0.4015
vn -0.6908 -0.6721 0.2665
vn 0.5842 -0.6503 -0.4855
vn -0.0394 -0.9937 0.1052
vn 0.0133 0.9982 0.0578
vn -0.8634 -0.3376 0.3749
vn -0.8460 0.2658 0.4623
vn 0.3443 -0.1217 -0.9310
vn 0.4124 0.8346 -0.3653
vn -0.8211 -0.5515 0.1472
vn -0.5502 0.8347 0.0227
vn -0.3737 -0.6907 -0.6191
vn -0.9214 0.3836 -0.0620
vn 0.5934 0.2273 -0.7722
vn 0.0559 0.1453 -0.9878
vn -0.2913 0.7303 -0.6179
s 1
usemtl mtl1.1085
f 1//1 2//2 5//3
f 1//1 8//4 2//2
f 2//2 8//4 4//5
f 24//6 6//7 9//8
f 5//3 3//9 1//1
f 10//10 3//9 5//3
f 9//8 6//7 2//2
f 11//11 5//3 12//12
f 5//3 2//2 6//7
f 12//12 5//3 6//7
f 1//1 3//9 8//4
f 9//8 4//5 13//13
f 3//9 10//10 7//14
f 11//11 10//10 5//3
f 10//10 11//11 14//15
f 15//16 14//15 11//11
f 23//17 11//11 12//12
f 42//18 12//12 24//6
f 24//6 12//12 6//7
f 13//13 4//5 8//4
f 13//13 8//4 16//19
f 299//20 18//21 13//13
f 13//13 18//21 9//8
f 11//11 23//17 298//22
f 42//18 23//17 12//12
f 8//4 3//9 33//23
f 17//24 8//4 33//23
f 16//19 17//24 18//21
f 8//4 17//24 16//19
f 19//25 3//9 7//14
f 7//14 10//10 21//26
f 21//26 14//15 15//16
f 20//27 21//26 15//16
f 20//27 22//28 40//29
f 41//30 24//6 9//8
f 18//21 41//30 9//8
f 28//31 26//32 27//33
f 28//31 27//33 30//34
f 27//33 29//35 30//34
f 67//36 30//34 50//37
f 31//38 32//39 300//40
f 3//9 19//25 33//23
f 17//24 34//41 18//21
f 59//42 35//43 38//44
f 36//45 38//44 35//43
f 36//45 37//46 38//44
f 37//46 39//47 38//44
f 41//30 18//21 57//48
f 38//44 39//47 40//29
f 39//47 7//14 21//26
f 40//29 39//47 21//26
f 39//47 19//25 7//14
f 21//26 20//27 40//29
f 22//28 42//18 40//29
f 42//18 22//28 23//17
f 24//6 301//49 42//18
f 302//50 26//32 84//51
f 43//52 62//53 25//54
f 25//54 62//53 27//33
f 44//55 61//56 46//57
f 62//53 45//58 27//33
f 44//55 47//59 45//58
f 46//57 47//59 44//55
f 27//33 45//58 29//35
f 29//35 45//58 47//59
f 47//59 48//60 29//35
f 30//34 29//35 49//61
f 50//37 30//34 49//61
f 67//36 50//37 74//62
f 49//61 33//23 50//37
f 33//23 49//61 51//63
f 17//24 51//63 52//64
f 51//63 69//65 52//64
f 66//66 31//38 56//67
f 66//66 56//67 52//64
f 31//38 53//68 32//39
f 31//38 66//66 53//68
f 53//68 70//69 54//70
f 50//37 33//23 303//71
f 50//37 19//25 58//72
f 58//72 74//62 50//37
f 76//73 305//74 304//75
f 303//71 33//23 19//25
f 51//63 17//24 33//23
f 34//41 17//24 52//64
f 18//21 34//41 57//48
f 56//67 57//48 55//76
f 34//41 55//76 57//48
f 56//67 34//41 52//64
f 300//40 32//39 57//48
f 56//67 31//38 57//48
f 32//39 90//77 57//48
f 32//39 54//70 90//77
f 58//72 19//25 60//78
f 59//42 78//79 35//43
f 79//80 78//79 59//42
f 35//43 78//79 37//46
f 39//47 37//46 78//79
f 39//47 60//78 19//25
f 94//81 41//30 57//48
f 82//82 81//83 40//29
f 40//29 81//83 38//44
f 82//82 40//29 42//18
f 301//49 94//81 42//18
f 104//84 62//53 43//52
f 44//55 62//53 61//56
f 62//53 44//55 45//58
f 61//56 63//85 46//57
f 28//31 85//86 26//32
f 63//85 48//60 46//57
f 48//60 63//85 64//87
f 49//61 29//35 48//60
f 28//31 30//34 67//36
f 28//31 67//36 86//88
f 67//36 87//89 86//88
f 49//61 48//60 51//63
f 48//60 68//90 51//63
f 52//64 68//90 48//60
f 64//87 52//64 48//60
f 69//65 68//90 52//64
f 64//87 65//91 52//64
f 65//91 66//66 52//64
f 90//77 54//70 71//92
f 53//68 72//93 70//69
f 72//93 53//68 73//94
f 71//92 70//69 72//93
f 53//68 66//66 73//94
f 87//89 67//36 75//95
f 307//96 305//74 76//73
f 75//95 67//36 306//97
f 87//89 75//95 77//98
f 60//78 77//98 58//72
f 88//99 87//89 77//98
f 60//78 78//79 77//98
f 38//44 80//100 59//42
f 80//100 38//44 81//83
f 79//80 59//42 308//101
f 308//101 95//102 79//80
f 94//81 112//103 42//18
f 112//103 82//82 42//18
f 61//56 62//53 83//104
f 43//52 302//50 84//51
f 84//51 26//32 151//105
f 133//106 64//87 63//85
f 86//88 105//107 28//31
f 86//88 87//89 106//108
f 66//66 65//91 64//87
f 66//66 64//87 107//109
f 106//108 87//89 89//110
f 73//94 66//66 107//109
f 108//111 73//94 107//109
f 108//111 91//112 73//94
f 89//110 309//113 88//99
f 91//112 92//114 310//115
f 90//77 71//92 72//93
f 94//81 57//48 90//77
f 77//98 78//79 93//116
f 93//116 88//99 77//98
f 311//117 97//118 79//80
f 97//118 311//117 96//119
f 312//120 80//100 98//121
f 97//118 78//79 79//80
f 99//122 80//100 81//83
f 80//100 99//122 98//121
f 99//122 100//123 101//124
f 97//118 98//121 99//122
f 97//118 99//122 101//124
f 81//83 102//125 103//126
f 81//83 103//126 99//122
f 81//83 82//82 102//125
f 102//125 116//127 103//126
f 43//52 84//51 104//84
f 104//84 83//104 62//53
f 63//85 61//56 132//128
f 151//105 26//32 152//129
f 85//86 152//129 26//32
f 64//87 133//106 117//130
f 105//107 106//108 28//31
f 118//131 28//31 106//108
f 117//130 107//109 64//87
f 89//110 108//111 107//109
f 108//111 110//132 91//112
f 110//132 92//114 91//112
f 94//81 122//133 120//134
f 94//81 90//77 122//133
f 90//77 109//135 122//133
f 122//133 109//135 111//136
f 123//137 112//103 94//81
f 123//137 94//81 120//134
f 97//118 93//116 78//79
f 115//138 125//139 101//124
f 93//116 97//118 101//124
f 101//124 125//139 93//116
f 113//140 103//126 116//127
f 101//124 100//123 113//140
f 101//124 113//140 115//138
f 114//141 126//142 115//138
f 126//142 125//139 115//138
f 100//123 103//126 113//140
f 113//140 116//127 114//141
f 127//143 114//141 116//127
f 114//141 127//143 126//142
f 82//82 143//144 102//125
f 116//127 102//125 128//145
f 149//146 83//104 104//84
f 133//106 63//85 132//128
f 85//86 28//31 118//131
f 106//108 135//147 118//131
f 106//108 89//110 117//130
f 107//109 117//130 89//110
f 108//111 89//110 121//148
f 119//149 108//111 121//148
f 120//134 121//148 123//137
f 119//149 120//134 108//111
f 108//111 122//133 110//132
f 108//111 120//134 122//133
f 121//148 124//150 123//137
f 123//137 139//151 112//103
f 173//152 112//103 139//151
f 82//82 112//103 140//153
f 116//127 125//139 127//143
f 125//139 116//127 141//154
f 142//155 143//144 82//82
f 116//127 163//156 141//154
f 102//125 143//144 128//145
f 150//157 83//104 149//146
f 130//158 104//84 84//51
f 130//158 84//51 131//159
f 134//160 117//130 133//106
f 106//108 134//160 135//147
f 117//130 134//160 106//108
f 88//99 93//116 156//161
f 121//148 89//110 88//99
f 121//148 88//99 136//162
f 137//163 121//148 136//162
f 156//161 136//162 88//99
f 124//150 121//148 137//163
f 124//150 314//164 139//151
f 124//150 137//163 138//165
f 123//137 124//150 139//151
f 315//166 138//165 137//163
f 93//116 125//139 160//167
f 140//153 112//103 173//152
f 160//167 125//139 141//154
f 140//153 142//155 82//82
f 175//168 141//154 163//156
f 116//127 128//145 144//169
f 146//170 163//156 144//169
f 128//145 143//144 145//171
f 144//169 147//172 146//170
f 147//172 144//169 128//145
f 145//171 129//173 128//145
f 148//174 143//144 165//175
f 166//176 148//174 165//175
f 128//145 129//173 147//172
f 147//172 129//173 177//177
f 149//146 104//84 130//158
f 212//178 61//56 83//104
f 131//159 84//51 151//105
f 132//128 154//179 133//106
f 153//180 134//160 133//106
f 133//106 154//179 155//181
f 168//182 135//147 134//160
f 316//183 135//147 168//182
f 93//116 160//167 156//161
f 156//161 160//167 169//184
f 158//185 317//185 157//185
f 319//186 313//187 159//188
f 156//161 320//189 136//162
f 321//190 159//188 313//187
f 174//191 161//192 140//153
f 173//152 174//191 140//153
f 142//155 140//153 161//192
f 162//193 161//192 174//191
f 163//156 164//194 175//168
f 162//193 143//144 142//155
f 162//193 165//175 143//144
f 164//194 163//156 146//170
f 146//170 177//177 164//194
f 148//174 166//176 129//173
f 146//170 147//172 177//177
f 166//176 177//177 129//173
f 150//157 212//178 83//104
f 131//159 149//146 130//158
f 180//195 150//157 149//146
f 132//128 61//56 212//178
f 230//196 131//159 151//105
f 155//181 167//197 153//180
f 153//180 167//197 134//160
f 118//131 195//198 85//86
f 181//199 168//182 134//160
f 169//184 200//200 318//201
f 170//202 318//201 200//200
f 323//203 318//201 170//202
f 171//204 173//152 172//205
f 156//161 169//184 318//201
f 318//201 323//203 322//206
f 160//167 141//154 192//207
f 211//208 162//193 174//191
f 164//194 193//209 175//168
f 176//210 193//209 164//194
f 211//208 176//210 162//193
f 176//210 165//175 162//193
f 164//194 165//175 176//210
f 164//194 178//211 165//175
f 164//194 177//177 178//211
f 165//175 178//211 324//212
f 177//177 179//213 178//211
f 179//213 177//177 166//176
f 178//211 179//213 324//212
f 131//159 180//195 149//146
f 152//129 85//86 195//198
f 155//181 154//179 167//197
f 134//160 167//197 181//199
f 182//214 168//182 181//199
f 200//200 184//215 183//216
f 325//217 326//218 185//219
f 326//218 202//220 185//219
f 183//216 170//202 200//200
f 186//221 325//217 185//219
f 185//219 173//152 171//204
f 188//222 174//191 173//152
f 187//223 160//167 207//224
f 187//223 169//184 160//167
f 188//222 191//225 174//191
f 160//167 175//168 189//226
f 160//167 189//226 207//224
f 189//226 175//168 190//227
f 190//227 175//168 193//209
f 211//208 193//209 176//210
f 212//178 252//228 132//128
f 132//128 252//228 214//229
f 195//198 151//105 152//129
f 214//229 154//179 132//128
f 167//197 154//179 197//230
f 196//231 195//198 118//131
f 197//230 181//199 167//197
f 196//231 118//131 168//182
f 196//231 168//182 182//214
f 182//214 181//199 198//232
f 181//199 197//230 199//233
f 218//234 199//233 197//230
f 181//199 199//233 198//232
f 198//232 199//233 200//200
f 218//234 184//215 199//233
f 184//215 200//200 199//233
f 203//235 184//215 201//236
f 169//184 243//237 200//200
f 169//184 222//238 243//237
f 202//220 326//218 328//239
f 187//223 222//238 169//184
f 185//219 188//222 173//152
f 202//220 188//222 185//219
f 206//240 205//241 207//224
f 207//224 205//241 187//223
f 189//226 208//242 207//224
f 207//224 210//243 206//240
f 191//225 188//222 249//244
f 208//242 190//227 209//245
f 193//209 209//245 190//227
f 208//242 209//245 210//243
f 210//243 209//245 227//246
f 191//225 211//208 174//191
f 193//209 211//208 209//245
f 180//195 194//247 150//157
f 228//248 213//249 329//250
f 329//250 213//249 150//157
f 150//157 213//249 212//178
f 180//195 131//159 229//251
f 195//198 230//196 151//105
f 214//229 197//230 154//179
f 182//214 215//252 196//231
f 241//253 218//234 197//230
f 215//252 182//214 216//254
f 216//254 182//214 198//232
f 215//252 216//254 217//255
f 198//232 327//256 330//257
f 331//258 200//200 243//237
f 330//257 216//254 198//232
f 184//215 218//234 201//236
f 333//259 247//260 204//261
f 221//262 220//262 218//234
f 333//259 204//261 334//263
f 202//220 246//264 281//265
f 205//241 226//266 223//267
f 224//268 223//267 225//269
f 223//267 226//266 225//269
f 205//241 265//270 222//238
f 205//241 222//238 187//223
f 210//243 227//246 206//240
f 226//266 205//241 206//240
f 227//246 209//245 211//208
f 228//248 194//247 180//195
f 180//195 231//271 228//248
f 335//272 131//159 230//196
f 229//251 230//196 250//273
f 229//251 250//273 180//195
f 228//248 231//271 251//274
f 231//271 180//195 250//273
f 231//271 255//275 232//276
f 230//196 195//198 196//231
f 196//231 256//277 230//196
f 196//231 258//278 256//277
f 214//229 257//279 197//230
f 197//230 257//279 237//280
f 258//278 196//231 215//252
f 215//252 239//281 258//278
f 233//282 234//283 235//284
f 234//283 233//282 259//285
f 259//285 240//286 234//283
f 240//286 236//287 257//279
f 257//279 236//287 237//280
f 237//280 238//288 197//230
f 244//289 215//252 217//255
f 331//258 239//281 215//252
f 236//287 245//290 261//291
f 236//287 240//286 337//292
f 237//280 236//287 261//291
f 237//280 261//291 238//288
f 241//253 197//230 238//288
f 263//293 331//258 243//237
f 331//258 263//293 239//281
f 242//294 247//260 333//259
f 204//261 246//264 202//220
f 246//264 204//261 247//260
f 248//295 265//270 205//241
f 248//295 205//241 224//268
f 248//295 224//268 225//269
f 264//296 225//269 226//266
f 226//266 227//246 211//208
f 211//208 191//225 272//297
f 191//225 249//244 272//297
f 228//248 252//228 213//249
f 252//228 228//248 251//274
f 253//298 230//196 254//299
f 253//298 250//273 230//196
f 232//276 251//274 231//271
f 232//276 252//228 251//274
f 254//299 230//196 256//277
f 253//298 256//277 250//273
f 250//273 255//275 231//271
f 252//228 232//276 255//275
f 250//273 258//278 255//275
f 214//229 255//275 257//279
f 252//228 255//275 214//229
f 250//273 256//277 258//278
f 255//275 235//284 257//279
f 258//278 233//282 255//275
f 336//300 235//284 255//275
f 233//282 258//278 239//281
f 239//281 259//285 233//282
f 257//279 235//284 240//286
f 259//285 260//301 240//286
f 259//285 239//281 339//302
f 239//281 341//303 339//302
f 261//291 275//304 238//288
f 275//304 274//305 238//288
f 340//306 262//307 242//294
f 275//304 262//307 340//306
f 245//290 337//292 240//286
f 277//308 347//309 283//310
f 247//260 262//307 276//311
f 263//293 243//237 222//238
f 278//312 263//293 222//238
f 338//313 342//314 343//315
f 343//315 342//314 264//296
f 343//315 264//296 267//316
f 265//270 266//317 222//238
f 273//318 267//316 264//296
f 264//296 271//319 273//318
f 266//317 268//320 222//238
f 268//320 269//321 222//238
f 273//318 345//322 344//323
f 267//316 273//318 344//323
f 222//238 269//321 270//324
f 278//312 222//238 270//324
f 202//220 281//265 188//222
f 264//296 226//266 271//319
f 226//266 211//208 272//297
f 226//266 272//297 271//319
f 351//325 346//326 272//297
f 276//311 275//304 348//327
f 276//311 262//307 275//304
f 263//293 278//312 260//301
f 245//290 240//286 260//301
f 245//290 283//310 261//291
f 349//328 347//309 277//308
f 246//264 247//260 276//311
f 261//291 348//327 275//304
f 350//329 284//330 246//264
f 246//264 284//330 281//265
f 271//319 272//297 346//326
f 270//324 269//321 279//331
f 270//324 352//332 278//312
f 280//333 278//312 353//334
f 285//335 278//312 280//333
f 272//297 282//336 285//335
f 282//336 272//297 249//244
f 249//244 188//222 281//265
f 260//301 278//312 292//337
f 260//301 283//310 245//290
f 284//330 277//308 283//310
f 290//338 278//312 285//335
f 287//339 281//265 284//330
f 286//340 282//336 249//244
f 290//338 285//335 282//336
f 281//265 288//341 249//244
f 260//301 292//337 283//310
f 283//310 292//337 293//342
f 289//343 283//310 293//342
f 289//343 284//330 283//310
f 292//337 278//312 290//338
f 289//343 287//339 284//330
f 290//338 286//340 249//244
f 291//344 290//338 249//244
f 288//341 291//344 249//244
f 289//343 297//345 287//339
f 295//346 290//338 291//344
f 296//347 288//341 287//339
f 295//346 291//344 296//347
f 288//341 296//347 291//344
f 290//338 295//346 292//337
f 295//346 293//342 292//337
f 293//342 294//348 289//343
f 296//347 287//339 297//345
f 293//342 295//346 355//349
f 293//342 355//349 294//348
f 354//350 296//347 297//345
l 219 332
