# Blender 4.0.2
# www.blender.org
mtllib thoracic12.mtl
o thoracic12.002
v -0.036631 0.021856 -0.021991
v -0.037469 0.024307 -0.021793
v -0.035728 0.020900 -0.022278
v -0.034570 0.019654 -0.021021
v -0.038354 0.028974 -0.019318
v -0.036190 0.021454 -0.021436
v -0.042144 0.033729 -0.020206
v -0.042356 0.034347 -0.018694
v -0.043012 0.028396 -0.020979
v -0.044878 0.027536 -0.019526
v -0.042857 0.025465 -0.020619
v -0.000580 0.028341 -0.019588
v -0.002520 0.028138 -0.019184
v -0.003035 0.004049 -0.020487
v -0.011414 0.003906 -0.020674
v -0.010681 0.027313 -0.018301
v -0.009609 0.024083 -0.018626
v -0.007132 0.003852 -0.019900
v -0.014714 0.025367 -0.019016
v -0.014422 0.019831 -0.020452
v -0.014156 0.003511 -0.019677
v -0.018280 0.028640 -0.018062
v -0.014254 0.003729 -0.019552
v -0.019634 0.029230 -0.018910
v -0.018591 0.028228 -0.019773
v -0.023271 0.027421 -0.017713
v -0.018664 0.014843 -0.019028
v -0.022127 0.029967 -0.017354
v -0.020178 0.012428 -0.019051
v -0.019328 0.010338 -0.018014
v -0.030141 0.022533 -0.018066
v -0.024816 0.014119 -0.018657
v -0.032969 0.036333 -0.016627
v -0.035168 0.029194 -0.016674
v -0.032050 0.023437 -0.018112
v -0.033317 0.019438 -0.018177
v -0.036977 0.028916 -0.017725
v -0.034481 0.019197 -0.017758
v -0.038392 0.028944 -0.019274
v -0.038640 0.029665 -0.016001
v -0.037651 0.029102 -0.016658
v -0.040260 0.030197 -0.016544
v -0.042550 0.033689 -0.017951
v -0.042998 0.023183 -0.018538
v 0.007312 0.027405 -0.016841
v 0.013663 0.028313 -0.011960
v 0.002318 0.016620 -0.016699
v 0.007240 0.004309 -0.016980
v 0.003255 0.003361 -0.018537
v -0.013103 0.016421 -0.016464
v -0.019865 0.030829 -0.013180
v -0.024454 0.030689 -0.015545
v -0.023960 0.029710 -0.012442
v -0.019522 0.008501 -0.017134
v -0.026422 0.033325 -0.013824
v -0.028535 0.017667 -0.015962
v -0.031965 0.039204 -0.015951
v -0.031812 0.040547 -0.014183
v -0.031998 0.040490 -0.013844
v -0.029311 0.018903 -0.016099
v -0.029556 0.019101 -0.016527
v -0.029681 0.016162 -0.014790
v -0.033217 0.034134 -0.015888
v -0.035808 0.030966 -0.014930
v -0.032459 0.017667 -0.015747
v -0.036778 0.029747 -0.015926
v -0.039297 0.026354 -0.013109
v -0.039227 0.020989 -0.015302
v 0.010183 0.003110 -0.014795
v 0.008814 0.003469 -0.015133
v -0.022033 0.029539 -0.012884
v -0.022091 0.029774 -0.012117
v -0.022399 0.029379 -0.012258
v -0.017380 0.004042 -0.016353
v -0.023672 0.013018 -0.012358
v -0.020664 0.009766 -0.017421
v -0.021990 0.009327 -0.011664
v -0.026418 0.015021 -0.013302
v -0.027763 0.014450 -0.014192
v -0.024135 0.012135 -0.014430
v -0.032339 0.039639 -0.011244
v -0.026662 0.014074 -0.014416
v -0.029729 0.014382 -0.012614
v -0.034234 0.035075 -0.010162
v -0.031852 0.014363 -0.012982
v -0.031287 0.013594 -0.011972
v -0.037957 0.018799 -0.012302
v -0.038082 0.016176 -0.010739
v -0.036571 0.012022 -0.012064
v -0.043655 0.000855 -0.013159
v -0.040951 -0.004300 -0.012585
v -0.044058 -0.000773 -0.012612
v 0.016807 0.028429 -0.005062
v 0.008430 0.015139 -0.012723
v -0.021614 0.005073 -0.010831
v -0.031333 0.028535 -0.009488
v -0.033096 0.038636 -0.010449
v -0.030269 0.015551 -0.009219
v -0.032543 0.024678 -0.007634
v -0.035004 0.020856 -0.007632
v -0.034299 0.009654 -0.009797
v -0.036964 0.020898 -0.009285
v -0.035390 0.009524 -0.010414
v -0.036597 0.006376 -0.010767
v -0.033896 -0.003686 -0.009836
v -0.034313 -0.003571 -0.010008
v -0.040418 0.011788 -0.010608
v -0.040492 0.007370 -0.010386
v -0.036512 0.006694 -0.011273
v -0.039329 -0.005968 -0.011867
v -0.037024 -0.006006 -0.011128
v -0.038474 -0.006436 -0.011059
v -0.036409 -0.005660 -0.010755
v -0.045059 0.004759 -0.008985
v -0.043302 0.002698 -0.011162
v -0.044066 0.001056 -0.010494
v -0.045890 0.003578 -0.008966
v -0.021023 0.005726 -0.007271
v -0.033351 0.022595 -0.006274
v -0.033334 0.022597 -0.006304
v -0.036920 0.020086 -0.007319
v -0.034842 0.020544 -0.007099
v -0.033893 0.022050 -0.006600
v -0.034863 0.020697 -0.007083
v -0.033952 0.005073 -0.008878
v -0.038071 0.019134 -0.004200
v -0.033984 0.000232 -0.009579
v -0.040193 0.018513 -0.003901
v -0.039581 0.011604 -0.006212
v -0.041994 0.007931 -0.008831
v -0.042455 -0.001351 -0.006068
v -0.044949 0.000345 -0.007580
v -0.051309 0.003358 -0.006517
v 0.014256 0.013268 -0.001144
v -0.017313 0.019333 -0.002595
v -0.015647 0.004536 -0.001787
v -0.034883 0.021012 -0.005714
v -0.034837 0.020880 -0.005745
v -0.035387 0.018826 -0.003987
v -0.033702 0.008771 -0.006501
v -0.041649 0.018628 -0.001546
v -0.041364 0.001458 -0.000572
v -0.056184 0.003822 -0.004784
v -0.051639 0.003386 -0.006472
v -0.057293 0.000713 -0.001657
v -0.064116 0.002725 -0.004558
v -0.065659 -0.000422 -0.002706
v 0.014834 0.003682 -0.004699
v -0.017428 0.029686 -0.000247
v -0.037878 0.017757 -0.000985
v -0.035435 0.014506 -0.002834
v -0.037315 0.005502 -0.000700
v -0.041984 0.018387 -0.002488
v -0.039866 0.018663 0.002450
v -0.042056 0.018392 -0.002470
v -0.056170 0.013876 -0.001635
v -0.063808 0.013257 -0.001870
v -0.061506 0.014380 0.000678
v -0.064980 0.011123 0.001254
v -0.001110 0.030171 -0.000046
v -0.014557 0.029206 -0.003326
v -0.017517 0.029611 0.001931
v -0.018186 0.004483 -0.000104
v -0.037739 0.018111 0.002083
v -0.036874 0.016875 0.000174
v -0.036874 0.007040 -0.000675
v -0.051410 0.002131 0.000625
v -0.056119 0.014128 0.000439
v -0.041009 0.010813 0.004249
v -0.058370 0.014080 0.000744
v -0.056855 0.003420 0.004057
v -0.064726 -0.001554 0.001392
v -0.064713 0.003494 0.003672
v 0.017403 0.026661 0.003031
v -0.019373 0.018910 0.007217
v -0.036808 0.018273 0.002261
v -0.035082 0.020877 0.005012
v -0.032936 0.022933 0.005800
v -0.032887 0.022842 0.005940
v -0.034760 0.015914 0.003175
v -0.037106 0.020151 0.007263
v -0.035245 0.007461 0.003151
v -0.041651 0.015778 0.003761
v -0.040134 0.000042 0.003835
v -0.042865 -0.001583 0.006787
v -0.052318 0.003815 0.005821
v 0.014383 0.027928 0.010589
v 0.014695 0.004087 0.005535
v -0.021369 0.005775 0.008885
v -0.032332 0.027627 0.008025
v -0.031737 0.013075 0.007164
v -0.033599 0.022298 0.005584
v -0.033697 0.022360 0.005545
v -0.034704 0.020669 0.006588
v -0.033650 0.022054 0.006708
v -0.034378 0.020902 0.006657
v -0.033814 0.008447 0.006973
v -0.040575 0.008832 0.009245
v -0.034811 -0.004313 0.009218
v -0.044575 0.001050 0.007891
v 0.010990 0.028420 0.013072
v 0.011262 0.015118 0.007666
v 0.004262 0.003159 0.017556
v -0.020068 0.005359 0.012536
v -0.019701 0.030831 0.009565
v -0.020862 0.029877 0.009915
v -0.022321 0.028367 0.010976
v -0.033263 0.038278 0.009697
v -0.025736 0.019569 0.011851
v -0.033571 0.039387 0.010555
v -0.033882 0.035305 0.009250
v -0.034047 0.030602 0.009293
v -0.034728 0.010052 0.009202
v -0.039748 0.026651 0.013164
v -0.033935 0.005130 0.008223
v -0.033931 0.000195 0.008919
v -0.034101 -0.003692 0.008925
v -0.039276 0.006926 0.009737
v -0.037913 -0.006154 0.010253
v -0.041708 0.004334 0.010997
v -0.021375 0.030084 0.012639
v -0.022106 0.029037 0.011615
v -0.022228 0.029551 0.011140
v -0.027544 0.034335 0.012984
v -0.023100 0.029686 0.012264
v -0.024057 0.028280 0.011309
v -0.020150 0.004690 0.009257
v -0.020143 0.004690 0.012686
v -0.031020 0.039963 0.012408
v -0.026394 0.032899 0.013668
v -0.025805 0.015062 0.013052
v -0.025554 0.013485 0.013535
v -0.031693 0.040152 0.014067
v -0.027779 0.015384 0.012191
v -0.029202 0.014915 0.013392
v -0.027477 0.014490 0.013314
v -0.032844 0.037488 0.015985
v -0.030799 0.013499 0.011541
v -0.030653 0.013839 0.011370
v -0.035992 0.029661 0.015274
v -0.038386 0.028482 0.015014
v -0.038329 0.019676 0.011773
v -0.038186 0.016974 0.011057
v -0.038193 0.016958 0.011062
v -0.042933 0.002388 0.012226
v -0.038321 -0.006246 0.010795
v -0.038397 -0.006218 0.010661
v -0.043938 -0.001042 0.012527
v 0.009388 0.003698 0.014611
v 0.001575 0.018050 0.016477
v -0.009102 0.027360 0.018309
v -0.009380 0.020420 0.015851
v -0.021267 0.029461 0.017328
v -0.020765 0.028963 0.015259
v -0.026098 0.013857 0.013613
v -0.028961 0.018270 0.015300
v -0.028409 0.017650 0.015322
v -0.030654 0.019747 0.015695
v -0.034532 0.031498 0.014837
v -0.031258 0.023261 0.017086
v -0.032903 0.017778 0.015113
v -0.038534 0.028796 0.015008
v -0.038785 0.029276 0.018889
v -0.042434 0.033685 0.017087
v -0.044807 0.025208 0.017914
v 0.006511 0.028623 0.016202
v -0.001986 0.028845 0.018682
v -0.001958 0.028558 0.018208
v -0.020073 0.010608 0.017106
v -0.010296 0.003412 0.018375
v -0.017739 0.029005 0.016914
v -0.015316 0.025781 0.018342
v -0.018530 0.028655 0.018812
v -0.018983 0.022560 0.017295
v -0.023010 0.025653 0.017168
v -0.017655 0.016387 0.018701
v -0.020509 0.010949 0.018060
v -0.016812 0.004840 0.018424
v -0.017188 0.004169 0.015033
v -0.021850 0.029511 0.016925
v -0.027172 0.016292 0.017443
v -0.033366 0.019465 0.017708
v -0.035072 0.019767 0.021048
v -0.033326 0.019435 0.017377
v -0.041936 0.033545 0.019679
v -0.039722 0.023371 0.020028
v -0.042676 0.033722 0.017787
v -0.042832 0.033894 0.018068
v -0.043778 0.029602 0.020093
v 0.002220 0.004189 0.018963
v 0.000009 0.004457 0.019371
v -0.014328 0.020915 0.019838
v -0.016085 0.017863 0.019630
v -0.034489 0.019927 0.020516
v -0.035926 0.021049 0.021506
v -0.037495 0.024160 -0.021472
v -0.042857 0.025465 -0.020619
v -0.002732 0.028003 -0.019136
v -0.003391 0.004152 -0.020182
v -0.009609 0.024083 -0.018626
v -0.007056 0.003868 -0.019889
v -0.018475 0.027773 -0.018572
v -0.020178 0.012428 -0.019051
v -0.031669 0.022762 -0.017988
v -0.036977 0.028916 -0.017725
v -0.035285 0.029265 -0.016811
v -0.034481 0.019197 -0.017758
v -0.042998 0.023183 -0.018538
v -0.032472 0.017652 -0.015771
v -0.036593 0.029491 -0.016061
v -0.038343 0.028898 -0.015932
v -0.039227 0.020989 -0.015302
v -0.022471 0.029400 -0.012449
v -0.026649 0.014015 -0.014404
v -0.026421 0.015021 -0.013342
v -0.024135 0.012135 -0.014430
v -0.031067 0.013731 -0.012093
v -0.038112 0.018840 -0.012301
v -0.038112 0.018840 -0.012301
v -0.038112 0.018840 -0.012301
v -0.040988 -0.004208 -0.012535
v -0.034299 0.009654 -0.009797
v -0.035390 0.009524 -0.010414
v -0.039787 0.011485 -0.010165
v -0.038953 -0.005592 -0.011663
v -0.036826 -0.005875 -0.010901
v -0.043302 0.002698 -0.011162
v -0.044066 0.001056 -0.010494
v -0.045890 0.003578 -0.008966
v -0.021023 0.005726 -0.007271
v -0.033952 0.005073 -0.008878
v -0.041994 0.007931 -0.008831
v -0.044949 0.000345 -0.007580
v -0.044949 0.000345 -0.007580
v -0.033702 0.008771 -0.006501
v -0.038827 0.019059 -0.003495
v -0.037966 0.017725 -0.000758
v -0.017873 0.004556 -0.000152
v -0.036874 0.016875 0.000174
v -0.036874 0.016875 0.000174
v -0.036874 0.007040 -0.000675
v -0.036874 0.007040 -0.000675
v -0.037368 0.005539 -0.000730
v -0.034760 0.015914 0.003175
v -0.035245 0.007461 0.003151
v -0.035245 0.007461 0.003151
v -0.039796 0.000705 0.003337
v -0.022321 0.028367 0.010976
v -0.033935 0.005130 0.008223
v -0.022333 0.029410 0.011696
v -0.023002 0.029753 0.012159
v -0.024057 0.028280 0.011309
v -0.024057 0.028280 0.011309
v -0.020150 0.004690 0.009257
v -0.025670 0.019198 0.011561
v -0.025982 0.014747 0.012736
v -0.019804 0.003936 0.013667
v -0.033033 0.018214 0.014896
v -0.017149 0.005001 0.017255
v -0.026688 0.015929 0.017371
v -0.010319 0.003455 0.018375
v -0.011520 0.004817 0.019631
vn 0.5006 0.4027 -0.7663
vn 0.3916 0.1578 -0.9065
vn 0.1761 -0.7071 -0.6849
vn 0.0843 0.4730 -0.8770
vn 0.5267 0.7069 -0.4722
vn 0.6340 0.2751 -0.7227
vn -0.7008 -0.6251 -0.3436
vn -0.4125 -0.8821 -0.2275
vn -0.2804 0.1264 -0.9515
vn -0.1563 0.7901 -0.5927
vn 0.5945 0.6759 0.4355
vn -0.0739 0.9870 0.1424
vn 0.1799 0.9763 0.1203
vn -0.7521 -0.3112 -0.5809
vn -0.1558 -0.0884 -0.9838
vn -0.9251 0.3580 -0.1267
vn -0.9929 -0.0479 -0.1088
vn -0.1970 -0.1297 -0.9718
vn -0.6180 -0.4324 -0.6566
vn 0.5163 -0.1577 -0.8418
vn 0.2302 -0.6732 -0.7027
vn 0.1336 0.1834 -0.9739
vn -0.0969 -0.4495 -0.8880
vn 0.2973 0.0034 -0.9548
vn 0.0318 -0.9943 -0.1018
vn 0.0286 -0.8507 -0.5249
vn -0.0202 0.9899 -0.1400
vn -0.0375 0.8265 -0.5617
vn 0.0971 0.9953 0.0010
vn 0.0204 -0.9867 -0.1612
vn -0.1348 0.5760 -0.8063
vn -0.0256 0.1814 -0.9831
vn 0.1319 -0.2136 -0.9680
vn 0.0424 -0.1820 -0.9824
vn 0.2467 -0.1709 -0.9539
vn 0.3087 0.8942 -0.3243
vn 0.6420 -0.4648 -0.6097
vn 0.1126 -0.1608 -0.9805
vn -0.2902 -0.7489 -0.5958
vn -0.2299 0.2065 -0.9511
vn 0.3190 0.2514 -0.9138
vn 0.1793 -0.1549 -0.9715
vn -0.2376 0.8517 -0.4671
vn -0.3953 -0.8817 -0.2577
vn -0.3620 0.2875 -0.8867
vn -0.1877 0.2191 -0.9575
vn 0.4181 0.9084 -0.0004
vn 0.4554 -0.2541 -0.8533
vn -0.0018 -0.2301 -0.9732
vn -0.6440 -0.4920 -0.5859
vn -0.0946 -0.0813 -0.9922
vn -0.5186 -0.4585 -0.7217
vn -0.1544 -0.2380 -0.9589
vn 0.2747 0.8027 -0.5294
vn -0.6167 -0.5002 -0.6079
vn -0.6805 -0.6994 -0.2187
vn -0.7142 -0.4506 -0.5356
vn -0.0949 -0.3100 -0.9460
vn -0.2851 -0.6194 -0.7315
vn 0.4558 -0.6576 -0.5998
vn -0.2544 -0.7487 -0.6122
vn -0.1214 0.9062 -0.4050
vn 0.1970 0.9579 -0.2089
vn -0.4082 0.9088 -0.0867
vn 0.0416 0.9053 -0.4226
vn -0.2961 -0.9399 -0.1698
vn -0.0399 -0.8142 -0.5793
vn -0.4440 -0.8672 -0.2253
vn 0.6025 0.7232 0.3377
vn -0.4323 0.7701 0.4692
vn -0.5401 0.3184 0.7790
vn -0.4878 -0.6996 -0.5221
vn -0.7762 -0.1448 0.6137
vn 0.6653 0.5310 -0.5248
vn 0.4502 0.3677 -0.8137
vn -0.1787 0.9697 -0.1665
vn 0.3613 0.8284 0.4281
vn -0.1946 0.9802 -0.0356
vn -0.5444 -0.4229 -0.7244
vn 0.6734 0.6408 -0.3687
vn 0.5046 0.0019 -0.8634
vn 0.8434 0.5319 -0.0761
vn -0.6148 -0.7810 -0.1104
vn -0.8847 0.4527 -0.1114
vn -0.3340 0.9241 0.1858
vn 0.8531 -0.2596 -0.4527
vn -0.0225 0.7935 0.6082
vn -0.0977 -0.0075 -0.9952
vn 0.0392 -0.4349 -0.8996
vn 0.0872 -0.9803 -0.1771
vn -0.1782 0.6569 -0.7327
vn 0.2393 0.6797 0.6933
vn -0.9655 -0.1902 -0.1778
vn 0.7343 0.0032 -0.6788
vn -0.0427 -0.9991 -0.0021
vn 0.7664 -0.6098 -0.2020
vn 0.0180 0.9563 -0.2918
vn 0.2113 0.6563 0.7243
vn 0.2037 0.9785 0.0326
vn 0.4290 0.1394 0.8925
vn 0.2819 -0.3231 0.9034
vn -0.8154 -0.2236 0.5340
vn -0.7319 -0.5261 0.4331
vn -0.7195 -0.6808 -0.1376
vn 0.3631 0.2313 0.9026
vn 0.8066 -0.2584 0.5316
vn -0.5253 -0.6312 0.5707
vn -0.4429 -0.6015 0.6649
vn -0.4357 -0.7439 -0.5067
vn 0.1973 -0.9406 0.2764
vn -0.6792 0.2308 0.6967
vn 0.0257 -0.6029 -0.7974
vn 0.1184 -0.7570 -0.6427
vn -0.6401 0.3848 0.6650
vn -0.5077 -0.7270 -0.4623
vn -0.1572 -0.0698 -0.9851
vn -0.0706 -0.2944 -0.9531
vn -0.7768 0.3821 0.5006
vn -0.9802 0.1965 0.0238
vn -0.5732 -0.7520 -0.3255
vn 0.5160 0.1773 -0.8380
vn -0.5054 0.2529 -0.8250
vn 0.3523 0.0484 -0.9347
vn -0.8055 -0.3446 -0.4820
vn 0.6058 -0.6412 -0.4710
vn 0.0028 1.0000 0.0056
vn -0.9846 0.0335 0.1717
vn -0.5839 0.8109 0.0392
vn 0.5510 -0.7851 -0.2829
vn -0.6637 0.5776 0.4752
vn -0.3508 0.9155 0.1972
vn 0.5991 -0.4388 -0.6697
vn 0.4243 -0.2800 -0.8611
vn 0.3668 0.0053 -0.9303
vn 0.9154 -0.3147 0.2511
vn 0.3847 0.0200 -0.9228
vn 0.9837 0.0393 -0.1754
vn 0.9777 0.0324 -0.2074
vn -0.4117 -0.0631 -0.9091
vn -0.3458 -0.1106 -0.9318
vn -0.7054 0.4686 -0.5318
vn -0.3724 0.0153 -0.9279
vn -0.1489 0.3408 -0.9283
vn -0.2204 0.3532 -0.9092
vn -0.9011 0.4322 0.0338
vn -0.5176 0.4723 -0.7135
vn -0.8445 0.5348 0.0278
vn 0.3352 -0.3342 0.8809
vn -0.1843 -0.9203 0.3450
vn 0.1968 -0.5822 0.7889
vn 0.2415 -0.4697 -0.8492
vn -0.0711 -0.9907 -0.1159
vn -0.4153 -0.6987 -0.5825
vn 0.3048 0.1156 -0.9454
vn -0.4045 0.3378 -0.8498
vn -0.6130 -0.5348 0.5815
vn -0.5453 0.6014 -0.5839
vn -0.6636 0.1228 -0.7380
vn -0.7410 0.0733 -0.6675
vn -0.4060 0.0625 -0.9117
vn -0.9613 0.1299 -0.2429
vn -0.9198 -0.2116 -0.3304
vn 0.9963 -0.0367 -0.0778
vn 0.7725 0.5963 -0.2183
vn 0.4907 0.5827 0.6479
vn -0.0205 -0.9998 -0.0021
vn -0.9276 -0.0056 0.3734
vn 0.7581 0.0854 0.6466
vn 0.8252 0.0699 0.5605
vn -0.8126 0.5815 0.0388
vn -0.7980 0.5908 0.1191
vn -0.2357 0.8434 -0.4829
vn -0.7226 0.5834 0.3707
vn -0.7768 0.6111 -0.1521
vn -0.4193 0.8120 0.4060
vn 0.9850 0.0410 -0.1674
vn 0.6319 -0.3688 0.6816
vn 0.9925 0.0110 -0.1215
vn -0.6606 0.5782 -0.4788
vn -0.2885 0.6886 -0.6653
vn -0.1580 0.3006 -0.9406
vn -0.5196 -0.8514 -0.0715
vn -0.8465 -0.3980 -0.3536
vn -0.3517 -0.4535 -0.8190
vn -0.3514 -0.1493 -0.9242
vn 0.4031 0.4579 0.7924
vn 0.8608 -0.3240 0.3926
vn -0.6328 0.7228 0.2779
vn 0.0521 0.9269 0.3717
vn -0.1061 0.9718 -0.2105
vn 0.3173 -0.9431 0.0991
vn -0.1454 0.7532 -0.6415
vn -0.2615 0.9514 -0.1627
vn -0.1255 -0.9888 0.0802
vn -0.1561 -0.9579 -0.2412
vn 0.1847 -0.9744 -0.1286
vn -0.5673 0.6436 -0.5137
vn -0.4090 -0.1599 -0.8984
vn -0.6408 -0.6011 -0.4775
vn -0.9954 0.0959 0.0085
vn 0.5019 0.8174 0.2828
vn 0.2334 0.9721 0.0229
vn 0.7069 0.6907 -0.1523
vn 0.9598 -0.2480 -0.1313
vn -0.2905 0.9548 0.0626
vn -0.0937 0.9844 -0.1489
vn -0.1958 0.8724 0.4478
vn -0.7847 0.3809 0.4891
vn -0.4224 -0.8286 0.3675
vn 0.9581 0.2236 0.1792
vn 0.8089 -0.5323 0.2497
vn 0.2802 -0.7903 0.5449
vn 0.0456 -0.9965 -0.0702
vn -0.2362 0.9509 -0.2002
vn -0.8789 0.0374 -0.4756
vn -0.8940 -0.4229 -0.1484
vn -0.0633 -0.9980 -0.0009
vn -0.7606 -0.6043 0.2372
vn 0.3100 0.8350 -0.4545
vn 0.2345 0.5395 -0.8087
vn 0.6282 0.7514 -0.2019
vn 0.7290 0.0003 -0.6846
vn 0.8681 -0.0012 -0.4964
vn 0.8476 -0.0210 -0.5302
vn 0.8890 -0.0394 0.4563
vn 0.9182 0.0341 -0.3947
vn 0.7905 -0.5465 -0.2765
vn 0.7236 -0.5189 -0.4552
vn 0.2844 -0.7741 -0.5655
vn 0.9297 -0.2704 0.2501
vn 0.6500 -0.6517 -0.3908
vn -0.4536 0.2927 0.8417
vn -0.0793 0.3510 0.9330
vn -0.6044 0.3530 0.7142
vn 0.0010 -0.3798 0.9251
vn -0.6011 -0.0514 0.7975
vn 0.7212 0.4514 0.5254
vn 0.8371 -0.0390 0.5457
vn -0.6467 0.7161 -0.2625
vn 0.6646 0.1673 -0.7282
vn 0.6077 -0.1083 -0.7867
vn -0.1462 0.9527 -0.2664
vn -0.7804 0.5254 -0.3390
vn -0.5087 0.8496 -0.1396
vn 0.8337 -0.4140 -0.3655
vn -0.7926 0.5659 -0.2272
vn -0.4265 -0.8636 -0.2689
vn -0.5158 -0.1493 0.8436
vn -0.0217 -0.9588 -0.2834
vn -0.1062 0.9843 -0.1410
vn 0.1766 0.9396 0.2933
vn -0.4362 0.8820 0.1784
vn -0.7706 0.4895 -0.4081
vn -0.6304 -0.7738 -0.0623
vn 0.3962 -0.9015 0.1741
vn 0.1278 0.2013 -0.9712
vn -0.7172 0.5601 -0.4146
vn -0.4771 0.8541 -0.2073
vn -0.3609 0.8913 0.2743
vn -0.2847 0.2982 -0.9111
vn 0.9764 -0.2118 0.0429
vn 0.9383 -0.2107 -0.2741
vn 0.9578 -0.0688 -0.2790
vn 0.6959 -0.2521 -0.6724
vn -0.7824 0.2159 0.5841
vn 0.7833 -0.5744 0.2378
vn -0.5806 0.4146 0.7007
vn -0.6814 -0.4112 0.6055
vn 0.0855 0.5630 0.8220
vn -0.5294 0.5800 -0.6192
vn -0.5021 0.0967 -0.8594
vn -0.4864 -0.2419 -0.8396
vn -0.1887 0.0063 -0.9820
vn -0.5196 0.7416 -0.4243
vn 0.5494 0.8255 -0.1292
vn -0.2006 0.3840 -0.9013
vn 0.5440 0.7327 -0.4089
vn 0.4395 -0.6926 -0.5720
vn -0.0758 0.1421 -0.9869
vn -0.6992 0.0966 -0.7084
vn 0.5206 -0.8529 0.0398
vn -0.3061 0.8928 -0.3306
vn -0.4801 0.3931 -0.7842
vn 0.7282 -0.5104 0.4573
vn -0.9003 -0.4330 0.0445
vn 0.8611 0.0379 0.5071
vn 0.3997 0.0161 0.9165
vn -0.7506 0.3663 -0.5499
vn -0.9471 0.3210 -0.0012
vn 0.2265 -0.9156 -0.3323
vn -0.5716 -0.8089 -0.1377
vn -0.1951 0.3614 0.9118
vn 0.6116 -0.5422 0.5762
vn 0.3719 0.6328 0.6792
vn 0.0613 0.9880 0.1418
vn -0.8941 0.2971 0.3351
vn -0.5174 0.6745 -0.5267
vn -0.3914 0.4571 -0.7987
vn 0.5703 0.4898 0.6594
vn 0.3830 0.9234 -0.0262
vn -0.9021 -0.3092 0.3011
vn 0.3481 0.1977 -0.9164
vn 0.2238 -0.1870 -0.9565
vn -0.3303 0.1775 -0.9271
vn -0.5379 -0.7855 0.3060
vn 0.2502 0.7648 0.5936
vn -0.2910 0.3755 0.8799
vn -0.2983 0.0509 0.9531
vn -0.1757 0.3982 0.9003
vn -0.1548 -0.8696 0.4688
vn -0.1125 -0.7253 -0.6791
vn -0.6627 0.7274 0.1779
vn -0.1943 -0.5339 0.8229
vn 0.0850 -0.5130 0.8542
vn 0.2975 0.0546 0.9532
vn -0.9386 -0.3386 0.0667
vn -0.5771 -0.2605 0.7740
vn 0.3014 -0.0093 0.9535
vn 0.2109 -0.7653 -0.6081
vn 0.3228 0.9462 -0.0233
vn -0.5121 0.1079 0.8521
vn -0.3458 -0.5368 0.7696
vn -0.1817 0.1223 0.9757
vn -0.6847 -0.6234 0.3776
vn 0.2670 0.1365 0.9540
vn -0.1339 -0.5186 0.8445
vn -0.1418 -0.4214 0.8957
vn -0.7643 -0.4827 0.4275
vn -0.3478 -0.4678 0.8125
vn -0.2465 -0.5785 0.7776
vn 0.4685 -0.8284 0.3071
vn 0.4557 0.5579 0.6936
vn 0.1584 0.7429 0.6504
vn -0.2144 0.7954 -0.5668
vn 0.3205 0.9465 -0.0368
vn 0.6921 0.6035 -0.3960
vn -0.4370 -0.4050 0.8031
vn -0.6437 0.1531 0.7498
vn 0.0784 -0.7403 0.6677
vn 0.0080 0.3142 0.9493
vn 0.1959 -0.1652 0.9666
vn 0.1959 0.1808 0.9638
vn 0.2259 -0.1597 0.9610
vn -0.1052 0.2145 0.9711
vn 0.5021 -0.4619 0.7311
vn 0.0950 0.5392 0.8368
vn -0.1242 0.1087 0.9863
vn -0.3445 0.0043 0.9388
vn -0.0544 -0.7216 0.6902
vn -0.3716 0.0021 0.9284
vn -0.1587 -0.0606 0.9855
vn 0.6822 -0.5194 0.5146
vn -0.3186 -0.8968 0.3071
vn -0.5611 0.8094 -0.1735
vn -0.0981 -0.7348 0.6711
vn -0.1805 -0.7481 0.6386
vn -0.2667 -0.8521 0.4503
vn -0.2673 -0.8435 0.4659
vn -0.0780 -0.1568 0.9845
vn -0.6556 -0.1299 -0.7438
s 1
usemtl mtl1.1087
f 2//1 35//2 4//3
f 34//4 2//1 5//5
f 1//6 2//1 4//3
f 3//7 4//3 68//8
f 9//9 7//10 5//5
f 5//5 7//10 39//11
f 37//12 5//5 40//13
f 37//12 34//4 5//5
f 6//14 9//9 296//15
f 5//5 2//1 9//9
f 3//7 68//8 6//14
f 8//16 7//10 10//17
f 6//14 11//18 9//9
f 9//9 297//19 10//17
f 9//9 10//17 7//10
f 48//20 49//21 14//22
f 14//22 15//23 47//24
f 49//21 18//25 299//26
f 13//27 16//28 161//29
f 15//23 14//22 301//30
f 298//31 19//32 16//28
f 12//33 17//34 19//32
f 12//33 50//35 17//34
f 16//28 19//32 22//36
f 300//37 50//35 20//38
f 19//32 17//34 20//38
f 21//39 15//23 18//25
f 19//32 26//40 25//41
f 22//36 19//32 25//41
f 27//42 19//32 20//38
f 15//23 23//43 74//44
f 15//23 21//39 23//43
f 28//45 302//46 26//40
f 22//36 25//41 24//47
f 19//32 27//42 26//40
f 20//38 50//35 27//42
f 50//35 29//48 27//42
f 29//48 50//35 30//49
f 74//44 54//50 15//23
f 15//23 54//50 30//49
f 27//42 31//51 26//40
f 31//51 27//42 32//52
f 303//53 32//52 27//42
f 54//50 303//53 30//49
f 303//53 54//50 32//52
f 52//54 31//51 35//2
f 56//55 32//52 76//56
f 56//55 61//57 32//52
f 31//51 32//52 61//57
f 2//1 34//4 35//2
f 31//51 304//58 35//2
f 31//51 62//59 304//58
f 36//60 4//3 35//2
f 36//60 35//2 62//59
f 62//59 65//61 36//60
f 305//62 41//63 66//64
f 305//62 66//64 306//65
f 38//66 4//3 36//60
f 65//61 307//67 36//60
f 38//66 68//8 4//3
f 309//68 68//8 38//66
f 39//11 42//69 40//13
f 39//11 7//10 42//69
f 41//63 37//12 40//13
f 7//10 43//70 42//69
f 43//70 67//71 42//69
f 44//72 6//14 68//8
f 43//70 8//16 10//17
f 44//72 297//19 6//14
f 10//17 297//19 44//72
f 10//17 308//73 67//71
f 46//74 45//75 13//27
f 47//24 12//33 45//75
f 48//20 14//22 47//24
f 12//33 47//24 50//35
f 50//35 47//24 30//49
f 47//24 15//23 30//49
f 16//28 22//36 51//76
f 16//28 51//76 161//29
f 53//77 24//47 52//54
f 53//77 22//36 24//47
f 71//78 22//36 53//77
f 76//56 54//50 77//79
f 74//44 77//79 54//50
f 52//54 28//45 26//40
f 26//40 31//51 52//54
f 55//80 33//81 58//82
f 76//56 62//59 56//55
f 62//59 76//56 80//83
f 64//84 59//85 57//86
f 81//87 58//82 59//85
f 57//86 58//82 33//81
f 33//81 55//80 63//88
f 34//4 52//54 35//2
f 34//4 55//80 52//54
f 62//59 31//51 60//89
f 60//89 56//55 62//59
f 65//61 62//59 83//90
f 63//88 64//84 57//86
f 63//88 55//80 34//4
f 34//4 64//84 63//88
f 64//84 34//4 310//91
f 66//64 41//63 40//13
f 67//71 311//92 42//69
f 66//64 40//13 67//71
f 308//73 87//93 67//71
f 43//70 10//17 67//71
f 94//94 48//20 47//24
f 70//95 49//21 48//20
f 18//25 148//96 21//39
f 22//36 71//78 51//76
f 55//80 53//77 52//54
f 72//97 71//78 53//77
f 53//77 73//98 313//99
f 73//98 53//77 96//100
f 96//100 78//101 73//98
f 73//98 78//101 75//102
f 80//83 76//56 77//79
f 316//103 77//79 75//102
f 77//79 74//44 95//104
f 58//82 81//87 55//80
f 55//80 81//87 53//77
f 97//105 53//77 81//87
f 53//77 97//105 96//100
f 96//100 98//106 78//101
f 315//107 314//108 316//103
f 316//103 75//102 315//107
f 80//83 79//109 62//59
f 79//109 83//90 62//59
f 82//110 83//90 79//109
f 78//101 98//106 82//110
f 98//106 83//90 82//110
f 59//85 64//84 84//111
f 81//87 59//85 84//111
f 65//61 83//90 85//112
f 317//113 85//112 83//90
f 99//114 84//111 64//84
f 85//112 312//115 65//61
f 318//116 85//112 89//117
f 66//64 67//71 64//84
f 64//84 67//71 102//118
f 88//119 67//71 87//93
f 85//112 319//120 312//115
f 91//121 90//122 110//123
f 92//124 90//122 91//121
f 45//75 46//74 47//24
f 46//74 94//94 47//24
f 48//20 94//94 69//125
f 18//25 70//95 148//96
f 18//25 49//21 70//95
f 160//126 46//74 13//27
f 95//104 21//39 148//96
f 21//39 95//104 74//44
f 71//78 135//127 149//128
f 135//127 71//78 73//98
f 75//102 77//79 95//104
f 96//100 97//105 84//111
f 99//114 96//100 84//111
f 85//112 317//113 86//129
f 86//129 83//90 98//106
f 102//118 100//130 64//84
f 121//131 100//130 102//118
f 86//129 101//132 85//112
f 89//117 85//112 101//132
f 89//117 101//132 103//133
f 101//132 86//129 98//106
f 103//133 101//132 104//134
f 140//135 101//132 98//106
f 105//136 322//137 125//138
f 67//71 88//119 102//118
f 89//117 107//139 320//140
f 129//141 102//118 88//119
f 89//117 103//133 108//142
f 323//143 109//144 108//142
f 105//136 104//134 101//132
f 104//134 105//136 110//123
f 88//119 324//145 129//141
f 108//142 107//139 89//117
f 107//139 108//142 130//146
f 129//141 324//145 332//147
f 104//134 110//123 90//122
f 106//148 131//149 113//150
f 326//151 112//152 325//153
f 111//154 110//123 105//136
f 130//146 108//142 114//155
f 109//144 114//155 108//142
f 92//124 321//156 325//153
f 112//152 131//149 92//124
f 112//152 92//124 325//153
f 131//149 112//152 113//150
f 114//155 109//144 115//157
f 116//158 114//155 327//159
f 116//158 117//160 114//155
f 109//144 90//122 115//157
f 115//157 90//122 328//161
f 328//161 90//122 92//124
f 328//161 92//124 132//162
f 134//163 46//74 93//164
f 201//165 93//164 46//74
f 69//125 94//94 134//163
f 149//128 161//29 51//76
f 148//96 136//166 95//104
f 71//78 149//128 51//76
f 135//127 73//98 75//102
f 118//167 75//102 95//104
f 119//168 98//106 96//100
f 119//168 151//169 98//106
f 100//130 122//170 64//84
f 99//114 64//84 122//170
f 123//171 99//114 122//170
f 124//172 100//130 121//131
f 123//171 120//173 99//114
f 124//172 123//171 122//170
f 137//174 123//171 124//172
f 121//131 138//175 124//172
f 335//176 125//138 322//137
f 127//177 331//178 140//135
f 138//175 121//131 126//179
f 126//179 102//118 129//141
f 126//179 129//141 128//180
f 127//177 131//149 106//148
f 129//141 130//146 143//181
f 130//146 114//155 143//181
f 131//149 333//182 92//124
f 328//161 132//162 329//183
f 117//160 334//184 133//185
f 117//160 133//185 114//155
f 133//185 143//181 114//155
f 134//163 94//94 46//74
f 69//125 134//163 148//96
f 148//96 70//95 69//125
f 160//126 201//165 46//74
f 120//173 123//171 138//175
f 120//173 138//175 139//186
f 151//169 119//168 139//186
f 98//106 152//187 140//135
f 126//179 128//180 141//188
f 126//179 336//189 138//175
f 138//175 336//189 139//186
f 152//187 127//177 140//135
f 153//190 141//188 128//180
f 129//141 143//181 128//180
f 131//149 127//177 142//191
f 128//180 156//192 155//193
f 167//194 333//182 131//149
f 167//194 144//195 333//182
f 128//180 143//181 156//192
f 167//194 145//196 144//195
f 156//192 143//181 157//197
f 145//196 146//198 144//195
f 146//198 157//197 143//181
f 157//197 146//198 147//199
f 145//196 147//199 146//198
f 135//127 75//102 118//167
f 135//127 118//167 163//200
f 151//169 139//186 150//201
f 139//186 336//189 141//188
f 150//201 139//186 141//188
f 141//188 337//202 150//201
f 151//169 150//201 165//203
f 151//169 152//187 98//106
f 151//169 166//204 152//187
f 152//187 142//191 127//177
f 153//190 155//193 141//188
f 154//205 141//188 155//193
f 142//191 167//194 131//149
f 154//205 155//193 156//192
f 156//192 168//206 154//205
f 157//197 158//207 156//192
f 158//207 168//206 156//192
f 157//197 159//208 158//207
f 172//209 147//199 145//196
f 159//208 157//197 147//199
f 93//164 174//210 134//163
f 188//211 148//96 134//163
f 203//212 204//213 148//96
f 204//213 136//166 148//96
f 13//27 161//29 160//126
f 162//214 161//29 149//128
f 175//215 135//127 163//200
f 189//216 175//215 163//200
f 95//104 338//217 330//218
f 136//166 338//217 95//104
f 164//219 165//203 150//201
f 164//219 154//205 176//220
f 164//219 180//221 165//203
f 344//222 182//223 339//224
f 340//225 166//204 151//169
f 182//223 341//226 339//224
f 342//227 345//228 184//229
f 141//188 164//219 337//202
f 154//205 164//219 141//188
f 347//230 152//187 166//204
f 142//191 343//231 184//229
f 184//229 167//194 142//191
f 168//206 183//232 154//205
f 183//232 168//206 170//233
f 183//232 170//233 169//234
f 171//235 145//196 167//194
f 145//196 171//235 172//209
f 159//208 173//236 158//207
f 173//236 170//233 158//207
f 173//236 147//199 172//209
f 159//208 147//199 173//236
f 187//237 174//210 93//164
f 174//210 202//238 134//163
f 162//214 205//239 161//29
f 175//215 149//128 135//127
f 178//240 209//241 344//222
f 178//240 344//222 176//220
f 176//220 192//242 179//243
f 177//244 192//242 176//220
f 209//241 191//245 344//222
f 191//245 182//223 344//222
f 176//220 154//205 177//244
f 177//244 154//205 181//246
f 183//232 181//246 154//205
f 183//232 169//234 181//246
f 185//247 167//194 184//229
f 186//248 167//194 185//247
f 169//234 171//235 186//248
f 169//234 170//233 171//235
f 186//248 171//235 167//194
f 171//235 170//233 173//236
f 171//235 173//236 172//209
f 187//237 93//164 201//165
f 188//211 134//163 202//238
f 188//211 203//212 148//96
f 270//249 204//213 203//212
f 268//250 201//165 160//126
f 271//251 161//29 221//252
f 162//214 206//253 205//239
f 136//166 354//254 338//217
f 136//166 204//213 227//255
f 190//256 179//243 195//257
f 195//257 179//243 192//242
f 177//244 194//258 193//259
f 193//259 195//257 192//242
f 195//257 193//259 194//258
f 194//258 181//246 196//260
f 196//260 181//246 195//257
f 197//261 346//262 191//245
f 197//261 215//263 346//262
f 346//262 215//263 216//264
f 194//258 177//244 181//246
f 216//264 184//229 345//228
f 169//234 198//265 181//246
f 216//264 199//266 184//229
f 198//265 169//234 220//267
f 185//247 184//229 199//266
f 220//267 169//234 186//248
f 200//268 220//267 186//248
f 186//248 185//247 200//268
f 174//210 187//237 202//238
f 160//126 161//29 251//269
f 251//269 161//29 271//251
f 221//252 206//253 223//270
f 223//270 206//253 207//271
f 175//215 206//253 149//128
f 231//272 206//253 175//215
f 206//253 231//272 207//271
f 226//273 348//273 355//273
f 175//215 189//216 231//272
f 354//254 189//216 338//217
f 210//274 229//275 208//276
f 208//276 229//275 225//277
f 225//277 190//256 208//276
f 209//241 178//240 190//256
f 234//278 191//245 209//241
f 208//276 190//256 211//279
f 211//279 190//256 212//280
f 208//276 212//280 210//274
f 239//281 191//245 234//278
f 210//274 212//280 241//282
f 195//257 212//280 190//256
f 212//280 195//257 241//282
f 195//257 181//246 214//283
f 191//245 239//281 213//284
f 191//245 213//284 197//261
f 181//246 242//285 214//283
f 197//261 213//284 349//286
f 217//287 349//286 213//284
f 242//285 181//246 243//288
f 243//288 181//246 244//289
f 198//265 244//289 181//246
f 219//290 185//247 199//266
f 219//290 247//291 185//247
f 218//292 198//265 220//267
f 249//293 188//211 202//238
f 266//294 201//165 268//250
f 205//239 206//253 221//252
f 271//251 221//252 254//295
f 222//296 254//295 221//252
f 351//297 223//270 352//298
f 225//277 224//299 253//300
f 223//270 207//271 352//298
f 228//301 189//216 354//254
f 224//299 225//277 229//275
f 225//277 353//302 190//256
f 190//256 353//302 209//241
f 209//241 356//303 234//278
f 231//272 189//216 232//304
f 232//304 189//216 255//305
f 233//306 229//275 210//274
f 237//307 229//275 233//306
f 229//275 237//307 230//308
f 259//309 230//308 237//307
f 235//310 239//281 234//278
f 236//311 235//310 234//278
f 236//311 234//278 231//272
f 232//304 236//311 231//272
f 237//307 233//306 210//274
f 210//274 259//309 237//307
f 240//312 259//309 210//274
f 210//274 241//282 240//312
f 238//313 218//292 213//284
f 214//283 241//282 195//257
f 242//285 243//288 198//265
f 242//285 198//265 218//292
f 238//313 242//285 218//292
f 246//314 217//287 245//315
f 217//287 213//284 245//315
f 242//285 265//316 214//283
f 246//314 199//266 217//287
f 199//266 246//314 219//290
f 218//292 245//315 213//284
f 248//317 220//267 200//268
f 200//268 185//247 248//317
f 245//315 248//317 246//314
f 248//317 185//247 247//291
f 246//314 248//317 247//291
f 187//237 201//165 266//294
f 187//237 250//318 202//238
f 249//293 203//212 188//211
f 202//238 250//318 249//293
f 268//250 160//126 251//269
f 204//213 270//249 279//319
f 350//320 225//277 254//295
f 253//300 254//295 225//277
f 253//300 224//299 280//321
f 230//308 280//321 224//299
f 269//322 255//305 189//216
f 230//308 275//323 280//321
f 235//310 255//305 281//324
f 281//324 260//325 258//326
f 256//327 235//310 257//328
f 255//305 235//310 236//311
f 230//308 259//309 260//325
f 260//325 275//323 230//308
f 261//329 238//313 235//310
f 261//329 235//310 256//327
f 261//329 256//327 258//326
f 261//329 242//285 238//313
f 261//329 358//330 242//285
f 258//326 284//331 358//330
f 263//332 240//312 241//282
f 285//333 264//334 287//335
f 262//336 214//283 264//334
f 262//336 264//334 263//332
f 241//282 262//336 263//332
f 286//337 265//316 242//285
f 265//316 289//338 264//334
f 214//283 265//316 264//334
f 250//318 187//237 266//294
f 290//339 203//212 249//293
f 266//294 267//340 250//318
f 250//318 267//340 252//341
f 267//340 268//250 251//269
f 252//341 267//340 251//269
f 250//318 269//322 291//342
f 292//343 251//269 272//344
f 250//318 252//341 269//322
f 271//251 272//344 251//269
f 293//345 252//341 251//269
f 273//346 271//251 254//295
f 271//251 273//346 272//344
f 272//344 275//323 274//347
f 273//346 275//323 272//344
f 293//345 269//322 252//341
f 269//322 293//345 276//348
f 273//346 254//295 253//300
f 275//323 273//346 280//321
f 275//323 276//348 274//347
f 277//349 269//322 276//348
f 189//216 228//301 269//322
f 228//301 278//350 269//322
f 276//348 275//323 277//349
f 269//322 281//324 255//305
f 269//322 277//349 281//324
f 260//325 277//349 275//323
f 277//349 260//325 360//351
f 257//328 235//310 281//324
f 258//326 257//328 281//324
f 260//325 282//352 258//326
f 263//332 259//309 240//312
f 260//325 259//309 263//332
f 284//331 258//326 282//352
f 283//353 358//330 284//331
f 283//353 282//352 260//325
f 283//353 242//285 358//330
f 263//332 264//334 285//333
f 264//334 289//338 288//354
f 288//354 285//333 287//335
f 285//333 288//354 289//338
f 286//337 289//338 265//316
f 250//318 291//342 249//293
f 203//212 290//339 361//355
f 290//339 362//356 361//355
f 292//343 293//345 251//269
f 357//357 361//355 359//358
f 362//356 359//358 361//355
f 272//344 274//347 292//343
f 274//347 276//348 292//343
f 269//322 278//350 291//342
f 295//359 260//325 263//332
f 283//353 260//325 294//360
f 294//360 260//325 295//359
f 242//285 283//353 286//337
f 286//337 283//353 295//359
f 263//332 285//333 289//338
f 263//332 289//338 286//337
f 295//359 263//332 286//337
