# Blender 4.0.2
# www.blender.org
mtllib toe_4_mid_r.mtl
o toe_4_mid_r.002
v 0.005218 0.002539 0.000004
v 0.007567 0.001011 -0.001144
v 0.004976 0.001202 -0.001751
v 0.003302 0.003064 -0.002284
v 0.003613 0.003308 0.000604
v 0.006553 0.001164 0.003408
v 0.008390 0.002588 -0.000103
v 0.007467 -0.000447 -0.001803
v 0.008281 -0.000715 -0.001523
v 0.003636 -0.001176 -0.003647
v 0.003505 -0.002252 -0.003304
v 0.004787 -0.001162 -0.002549
v 0.002776 0.003384 -0.002171
v 0.002060 0.000511 -0.003625
v 0.001298 0.003245 -0.001453
v 0.002001 0.002098 0.003477
v 0.001457 0.003236 0.000662
v 0.008954 0.000399 0.005761
v 0.004752 -0.000638 0.004754
v 0.006112 -0.000128 0.005425
v 0.010571 0.001438 0.001387
v 0.008742 -0.001078 -0.001360
v 0.002015 -0.003519 0.002650
v 0.004568 -0.003166 0.004566
v 0.009373 -0.001020 -0.001154
v 0.003089 -0.001839 -0.003868
v 0.001608 -0.003908 0.001641
v 0.000272 -0.004081 0.001786
v 0.002405 -0.002485 -0.003403
v 0.001440 -0.000970 -0.002936
v 0.000905 0.003259 -0.000702
v 0.001146 -0.001573 -0.001495
v 0.000441 0.002826 -0.000410
v -0.000219 0.002049 0.000740
v 0.000829 -0.001074 -0.000624
v -0.000180 0.002075 0.003407
v 0.001657 0.000739 0.003763
v -0.000189 0.002411 0.002933
v -0.000012 0.002777 0.000763
v 0.010768 0.000840 0.001324
v 0.008595 -0.000015 0.006122
v 0.010818 -0.000091 0.000745
v 0.008098 -0.002327 0.005727
v -0.000629 -0.002027 0.002740
v -0.000540 0.000031 0.003243
v -0.000432 -0.003076 0.002241
v 0.000944 -0.001914 -0.002211
v -0.000332 -0.003113 0.001454
v 0.000092 -0.002345 -0.000086
v 0.000694 -0.001893 -0.001696
v 0.000613 -0.001873 -0.000919
v -0.000667 0.001837 0.002178
v -0.000596 0.000903 0.003236
v 0.000139 -0.002261 0.001001
v 0.000579 -0.002032 -0.000352
v -0.000506 0.001568 0.003327
v -0.000708 0.001699 0.002751
vn 0.3658 0.9139 -0.1763
vn 0.2544 0.4678 -0.8464
vn 0.4641 0.4536 -0.7608
vn 0.3246 0.6655 -0.6721
vn 0.2129 0.9625 0.1680
vn -0.0202 0.8724 0.4883
vn 0.3093 0.8739 -0.3751
vn 0.2513 -0.2594 -0.9325
vn 0.4016 0.1946 -0.8949
vn 0.6334 -0.0035 -0.7738
vn 0.5710 -0.6883 -0.4475
vn 0.5026 -0.3605 -0.7858
vn -0.1091 0.6330 -0.7665
vn -0.3559 0.2420 -0.9027
vn -0.5394 0.7114 -0.4506
vn 0.0145 0.6682 0.7439
vn -0.1056 0.9774 0.1833
vn 0.5773 0.4369 0.6898
vn -0.2771 0.2169 0.9360
vn -0.4125 0.4092 0.8138
vn 0.7510 0.6576 -0.0596
vn 0.1577 -0.6453 -0.7475
vn 0.0570 -0.8403 0.5390
vn -0.1112 -0.8109 0.5745
vn 0.6318 -0.3836 -0.6736
vn 0.0933 -0.2849 -0.9540
vn 0.3424 -0.9395 0.0006
vn -0.4039 -0.9011 0.1578
vn -0.2519 -0.6906 -0.6779
vn -0.8212 -0.0169 -0.5704
vn -0.4424 0.8813 -0.1661
vn -0.8581 0.4497 -0.2478
vn -0.8899 0.2212 -0.3989
vn -0.9260 0.0377 -0.3756
vn -0.9290 0.0902 -0.3589
vn -0.4080 0.4774 0.7782
vn -0.2148 0.0193 0.9765
vn -0.4619 0.8147 0.3504
vn -0.7122 0.6875 -0.1417
vn 0.9870 0.1596 0.0207
vn 0.3390 0.1746 0.9244
vn 0.9260 -0.2698 -0.2640
vn 0.3376 -0.7061 0.6225
vn -0.8641 -0.1507 0.4801
vn -0.8081 -0.1471 0.5704
vn -0.7717 -0.4705 0.4280
vn -0.8918 -0.0744 -0.4463
vn -0.9104 -0.2421 -0.3355
vn -0.9458 0.3106 -0.0949
vn -0.8614 0.3672 -0.3508
vn -0.8025 0.5813 -0.1345
vn -0.9818 0.1044 -0.1586
vn -0.9278 -0.0871 0.3629
vn -0.9196 0.2210 -0.3249
vn -0.8187 0.5742 0.0010
vn -0.6497 0.1537 0.7445
vn -0.9724 0.2016 0.1176
s 1
usemtl Default_OBJ.136
f 1//1 2//2 3//3
f 4//4 1//1 3//3
f 5//5 6//6 1//1
f 1//1 7//7 2//2
f 7//7 1//1 6//6
f 1//1 4//4 5//5
f 8//8 2//2 9//9
f 2//2 7//7 9//9
f 3//3 2//2 8//8
f 3//3 10//10 4//4
f 11//11 10//10 3//3
f 12//12 11//11 3//3
f 12//12 3//3 8//8
f 4//4 13//13 5//5
f 10//10 14//14 4//4
f 13//13 4//4 15//15
f 14//14 15//15 4//4
f 16//16 6//6 5//5
f 16//16 5//5 17//17
f 13//13 15//15 5//5
f 15//15 17//17 5//5
f 18//18 7//7 6//6
f 16//16 19//19 6//6
f 6//6 19//19 20//20
f 20//20 18//18 6//6
f 9//9 7//7 21//21
f 21//21 7//7 18//18
f 22//22 8//8 9//9
f 8//8 23//23 12//12
f 8//8 22//22 24//24
f 8//8 24//24 23//23
f 9//9 21//21 25//25
f 25//25 22//22 9//9
f 26//26 14//14 10//10
f 10//10 11//11 26//26
f 23//23 11//11 12//12
f 27//27 28//28 11//11
f 23//23 27//27 11//11
f 29//29 11//11 28//28
f 26//26 11//11 29//29
f 30//30 15//15 14//14
f 14//14 26//26 30//30
f 31//31 17//17 15//15
f 15//15 30//30 32//32
f 15//15 33//33 31//31
f 15//15 34//34 33//33
f 34//34 15//15 35//35
f 35//35 15//15 32//32
f 16//16 36//36 37//37
f 19//19 16//16 37//37
f 17//17 38//38 16//16
f 36//36 16//16 38//38
f 38//38 17//17 39//39
f 39//39 17//17 31//31
f 40//40 21//21 18//18
f 20//20 41//41 18//18
f 18//18 41//41 42//42
f 18//18 42//42 40//40
f 24//24 43//43 19//19
f 19//19 37//37 24//24
f 43//43 20//20 19//19
f 43//43 41//41 20//20
f 21//21 42//42 25//25
f 42//42 21//21 40//40
f 22//22 25//25 24//24
f 44//44 23//23 45//45
f 37//37 45//45 23//23
f 37//37 23//23 24//24
f 46//46 28//28 23//23
f 27//27 23//23 28//28
f 44//44 46//46 23//23
f 24//24 25//25 42//42
f 43//43 24//24 42//42
f 30//30 26//26 29//29
f 28//28 47//47 29//29
f 28//28 46//46 48//48
f 49//49 28//28 48//48
f 47//47 28//28 49//49
f 47//47 30//30 29//29
f 30//30 47//47 32//32
f 34//34 39//39 31//31
f 31//31 33//33 34//34
f 50//50 32//32 47//47
f 51//51 32//32 50//50
f 32//32 51//51 35//35
f 39//39 34//34 52//52
f 34//34 53//53 52//52
f 53//53 34//34 35//35
f 54//54 53//53 35//35
f 55//55 35//35 51//51
f 55//55 54//54 35//35
f 36//36 45//45 37//37
f 36//36 56//56 45//45
f 36//36 38//38 56//56
f 38//38 39//39 52//52
f 56//56 38//38 57//57
f 57//57 38//38 52//52
f 43//43 42//42 41//41
f 54//54 44//44 45//45
f 48//48 46//46 44//44
f 48//48 44//44 54//54
f 45//45 56//56 53//53
f 45//45 53//53 54//54
f 47//47 49//49 50//50
f 48//48 55//55 49//49
f 54//54 55//55 48//48
f 49//49 55//55 51//51
f 49//49 51//51 50//50
f 53//53 57//57 52//52
f 57//57 53//53 56//56
