# Blender 4.0.2
# www.blender.org
mtllib toe_2_prox_l.mtl
o toe_2_prox_l.002
v 0.034423 0.000842 -0.008735
v 0.037294 0.004711 -0.010249
v 0.035253 0.005760 -0.009003
v 0.036107 0.005890 -0.010795
v 0.032274 0.002565 -0.008437
v 0.032496 0.006018 -0.009583
v 0.036280 0.001418 -0.009597
v 0.037495 0.003035 -0.011911
v 0.037108 0.004804 -0.012648
v 0.032628 -0.000100 -0.009194
v 0.033625 -0.000267 -0.009546
v 0.035428 0.004824 -0.016115
v 0.031052 0.004700 -0.017448
v 0.025877 0.006904 -0.012909
v 0.031039 0.005319 -0.008715
v 0.031246 0.002844 -0.009386
v 0.032033 0.000526 -0.009224
v 0.036197 0.002941 -0.015886
v 0.035677 0.000198 -0.010607
v 0.032712 -0.000307 -0.010279
v 0.034560 -0.000428 -0.011183
v 0.022890 0.004532 -0.014479
v 0.032755 0.002645 -0.019018
v 0.029559 0.002402 -0.017451
v 0.035336 0.003340 -0.018949
v 0.035791 0.001876 -0.017971
v 0.021347 0.007433 -0.008011
v 0.008982 0.009582 -0.009464
v 0.025805 0.003802 -0.008560
v 0.031100 0.001705 -0.012478
v 0.020972 0.004739 -0.006760
v 0.033045 -0.001131 -0.015737
v 0.034370 0.000850 -0.014841
v 0.034938 -0.000011 -0.016672
v 0.032892 0.000554 -0.014199
v 0.024745 0.002667 -0.014806
v 0.014498 0.002501 -0.011130
v 0.028537 0.001651 -0.016082
v 0.033276 -0.000543 -0.017996
v 0.029516 -0.000356 -0.016050
v 0.035228 0.001530 -0.018756
v 0.034506 -0.000281 -0.017981
v 0.006185 0.011414 -0.006191
v 0.007716 0.011245 -0.006046
v 0.012240 0.009508 -0.007455
v 0.005005 0.011002 -0.009322
v 0.004354 0.010458 -0.010401
v 0.003301 0.009188 -0.011325
v 0.003498 0.007779 -0.011690
v 0.007328 0.006054 -0.010137
v 0.018630 0.006462 -0.006099
v 0.008770 0.009986 -0.004658
v 0.030864 0.001632 -0.013423
v 0.014594 0.001847 -0.009472
v 0.010097 0.002166 -0.003852
v 0.032495 -0.001283 -0.017006
v 0.031312 -0.001169 -0.016590
v 0.031015 -0.000851 -0.015174
v 0.030622 0.001057 -0.014389
v 0.008433 0.002656 -0.009576
v 0.029604 0.001078 -0.014853
v 0.030117 0.000162 -0.015002
v 0.007748 0.011135 -0.003526
v 0.006775 0.011039 -0.003101
v 0.006602 0.010166 -0.002036
v 0.004203 0.003350 -0.000591
v 0.000722 0.002193 -0.009963
v 0.002506 0.003387 -0.005476
v 0.002883 0.008358 -0.011565
v 0.002084 0.005633 -0.011462
v 0.004382 0.002486 -0.010716
v 0.005431 0.002753 -0.010035
v 0.009794 0.006680 -0.002824
v 0.007752 0.009485 -0.000983
v 0.009294 0.002922 -0.002863
v 0.006269 0.002223 -0.009227
v 0.008146 0.001808 -0.002494
v 0.007524 0.007074 0.000191
v 0.004482 0.002768 0.000210
v 0.003689 0.002310 -0.000419
v 0.003299 0.002446 -0.001068
v 0.002635 0.002043 -0.001507
v 0.001454 0.001703 -0.002840
v 0.001105 0.001868 -0.004834
v 0.000604 0.001423 -0.009175
v 0.000509 0.001512 -0.005345
v 0.001364 0.001489 -0.010005
v 0.004023 0.001449 -0.009477
v 0.007663 0.003204 0.000036
v 0.002925 0.000936 -0.002151
v 0.007256 0.002437 -0.000221
v 0.006465 0.002523 0.000182
v 0.001010 0.001634 -0.003646
vn 0.2963 -0.3904 0.8717
vn 0.8528 0.2981 0.4287
vn 0.2778 0.6230 0.7312
vn 0.4124 0.9106 0.0277
vn -0.2808 -0.0739 0.9569
vn 0.0385 0.8253 0.5634
vn 0.7041 -0.3518 0.6168
vn 0.9696 -0.2363 -0.0641
vn 0.8286 0.5095 -0.2321
vn -0.3456 -0.7341 0.5846
vn 0.1618 -0.8855 0.4355
vn 0.5069 0.7804 -0.3660
vn -0.1445 0.7165 -0.6825
vn 0.0205 0.9491 -0.3142
vn 0.0948 0.4339 0.8959
vn -0.5460 -0.5022 0.6706
vn -0.7286 -0.4688 0.4994
vn 0.9634 -0.1122 -0.2436
vn 0.6373 -0.7584 0.1362
vn -0.4232 -0.9056 -0.0271
vn 0.2234 -0.9672 -0.1206
vn -0.2816 0.2402 -0.9290
vn -0.2192 0.0648 -0.9735
vn -0.4595 -0.1286 -0.8788
vn 0.5304 0.3919 -0.7517
vn 0.9467 -0.1869 -0.2624
vn 0.2685 0.8224 0.5016
vn 0.1834 0.6669 -0.7222
vn 0.1001 -0.8061 0.5833
vn -0.4794 -0.8704 0.1120
vn 0.3084 0.0206 0.9510
vn 0.2945 -0.8609 0.4148
vn 0.6114 -0.7906 0.0349
vn 0.7449 -0.6200 0.2464
vn -0.0823 -0.9404 0.3300
vn -0.3405 -0.8143 -0.4701
vn -0.2416 -0.5935 -0.7677
vn -0.5586 -0.7208 -0.4104
vn -0.0661 -0.6017 -0.7960
vn -0.7453 -0.6586 -0.1040
vn 0.4833 -0.3411 -0.8063
vn 0.4709 -0.6867 -0.5538
vn -0.4139 0.9095 0.0388
vn 0.2978 0.9508 -0.0855
vn 0.2387 0.9669 -0.0901
vn -0.3247 0.9337 -0.1510
vn -0.4316 0.7886 -0.4379
vn -0.5600 0.6432 -0.5222
vn 0.1234 0.0561 -0.9908
vn 0.1659 -0.0319 -0.9856
vn 0.3433 0.2977 0.8908
vn 0.6319 0.6774 0.3765
vn -0.2790 -0.9080 0.3127
vn 0.0135 -0.9960 -0.0887
vn 0.2955 -0.8551 0.4259
vn -0.0133 -0.9406 -0.3392
vn -0.3437 -0.8732 -0.3456
vn -0.1604 -0.7439 0.6487
vn -0.2382 -0.6718 0.7014
vn -0.0675 -0.3950 -0.9162
vn -0.4854 -0.7088 0.5119
vn -0.5195 -0.4562 0.7225
vn 0.4599 0.8471 0.2662
vn -0.4088 0.8305 0.3783
vn -0.5893 0.5993 0.5419
vn -0.7338 0.4779 0.4829
vn -0.8701 -0.0019 -0.4929
vn -0.7985 0.5593 0.2227
vn -0.7841 0.4008 -0.4738
vn -0.6203 0.0605 -0.7820
vn 0.2582 -0.5048 -0.8237
vn 0.3893 -0.5140 -0.7643
vn 0.6375 0.2143 0.7401
vn 0.2962 0.5728 0.7643
vn 0.6356 -0.3207 0.7022
vn 0.1724 -0.8984 -0.4039
vn 0.3811 -0.8832 0.2734
vn 0.1809 0.2747 0.9444
vn -0.4076 -0.1372 0.9028
vn -0.5124 -0.3069 0.8020
vn -0.6721 0.3969 0.6252
vn -0.7337 -0.0152 0.6793
vn -0.8733 0.0309 0.4861
vn -0.6182 0.7611 0.1963
vn -0.8307 -0.5536 -0.0590
vn -0.9702 -0.2105 0.1198
vn -0.2141 -0.7145 -0.6661
vn 0.1810 -0.9305 -0.3184
vn 0.5462 -0.2348 0.8041
vn -0.1892 -0.9094 0.3703
vn 0.3776 -0.7594 0.5299
vn 0.0782 -0.5491 0.8321
vn -0.9256 0.0461 0.3757
s 1
f 1//1 2//2 3//3
f 3//3 2//2 4//4
f 1//1 3//3 5//5
f 3//3 6//6 5//5
f 6//6 3//3 4//4
f 2//2 7//7 8//8
f 2//2 1//1 7//7
f 9//9 4//4 2//2
f 9//9 2//2 8//8
f 10//10 1//1 5//5
f 10//10 11//11 1//1
f 7//7 1//1 11//11
f 12//12 13//13 4//4
f 9//9 12//12 4//4
f 14//14 6//6 4//4
f 4//4 13//13 14//14
f 15//15 16//16 5//5
f 15//15 5//5 6//6
f 5//5 16//16 17//17
f 5//5 17//17 10//10
f 15//15 6//6 14//14
f 8//8 18//18 9//9
f 19//19 18//18 8//8
f 8//8 7//7 19//19
f 11//11 19//19 7//7
f 9//9 18//18 12//12
f 10//10 17//17 20//20
f 20//20 11//11 10//10
f 21//21 19//19 11//11
f 20//20 21//21 11//11
f 22//22 14//14 13//13
f 13//13 23//23 24//24
f 13//13 24//24 22//22
f 12//12 25//25 13//13
f 13//13 25//25 23//23
f 26//26 12//12 18//18
f 25//25 12//12 26//26
f 27//27 14//14 28//28
f 28//28 14//14 22//22
f 15//15 14//14 27//27
f 29//29 30//30 16//16
f 30//30 17//17 16//16
f 16//16 15//15 29//29
f 31//31 29//29 15//15
f 27//27 31//31 15//15
f 17//17 30//30 20//20
f 32//32 18//18 33//33
f 18//18 32//32 34//34
f 19//19 33//33 18//18
f 26//26 18//18 34//34
f 19//19 21//21 33//33
f 35//35 20//20 30//30
f 20//20 33//33 21//21
f 20//20 35//35 33//33
f 36//36 37//37 22//22
f 22//22 24//24 36//36
f 37//37 28//28 22//22
f 24//24 38//38 36//36
f 39//39 40//40 24//24
f 24//24 40//40 38//38
f 39//39 24//24 23//23
f 23//23 41//41 42//42
f 23//23 42//42 39//39
f 25//25 41//41 23//23
f 41//41 25//25 26//26
f 41//41 26//26 42//42
f 26//26 34//34 42//42
f 43//43 44//44 28//28
f 28//28 45//45 27//27
f 28//28 44//44 45//45
f 28//28 46//46 43//43
f 47//47 46//46 28//28
f 28//28 48//48 47//47
f 28//28 49//49 48//48
f 49//49 28//28 50//50
f 37//37 50//50 28//28
f 51//51 27//27 52//52
f 45//45 52//52 27//27
f 31//31 27//27 51//51
f 36//36 30//30 29//29
f 30//30 36//36 53//53
f 30//30 53//53 35//35
f 36//36 29//29 54//54
f 55//55 54//54 29//29
f 29//29 31//31 55//55
f 55//55 31//31 51//51
f 35//35 32//32 33//33
f 56//56 42//42 32//32
f 32//32 57//57 56//56
f 32//32 58//58 57//57
f 32//32 42//42 34//34
f 59//59 58//58 32//32
f 35//35 59//59 32//32
f 59//59 35//35 53//53
f 54//54 60//60 37//37
f 36//36 54//54 37//37
f 37//37 60//60 50//50
f 61//61 59//59 36//36
f 61//61 36//36 38//38
f 36//36 59//59 53//53
f 38//38 62//62 61//61
f 40//40 62//62 38//38
f 39//39 57//57 40//40
f 40//40 58//58 62//62
f 58//58 40//40 57//57
f 56//56 39//39 42//42
f 56//56 57//57 39//39
f 44//44 52//52 45//45
f 44//44 63//63 52//52
f 44//44 43//43 63//63
f 46//46 47//47 43//43
f 64//64 43//43 65//65
f 63//63 43//43 64//64
f 66//66 43//43 47//47
f 66//66 65//65 43//43
f 67//67 68//68 47//47
f 47//47 48//48 67//67
f 68//68 66//66 47//47
f 49//49 69//69 48//48
f 48//48 69//69 70//70
f 67//67 48//48 70//70
f 69//69 49//49 70//70
f 71//71 70//70 49//49
f 50//50 71//71 49//49
f 50//50 72//72 71//71
f 60//60 72//72 50//50
f 52//52 73//73 51//51
f 52//52 74//74 73//73
f 52//52 63//63 74//74
f 75//75 51//51 73//73
f 75//75 55//55 51//51
f 60//60 54//54 76//76
f 55//55 76//76 54//54
f 77//77 55//55 75//75
f 76//76 55//55 77//77
f 58//58 59//59 62//62
f 59//59 61//61 62//62
f 60//60 76//76 72//72
f 74//74 63//63 64//64
f 66//66 78//78 65//65
f 65//65 74//74 64//64
f 65//65 78//78 74//74
f 78//78 66//66 79//79
f 66//66 80//80 79//79
f 66//66 81//81 80//80
f 81//81 66//66 82//82
f 83//83 66//66 84//84
f 66//66 83//83 82//82
f 68//68 84//84 66//66
f 68//68 67//67 85//85
f 85//85 86//86 68//68
f 68//68 86//86 84//84
f 70//70 71//71 67//67
f 71//71 87//87 67//67
f 85//85 67//67 87//87
f 71//71 88//88 87//87
f 72//72 88//88 71//71
f 72//72 76//76 88//88
f 78//78 73//73 74//74
f 89//89 73//73 78//78
f 75//75 73//73 89//89
f 77//77 75//75 89//89
f 77//77 88//88 76//76
f 85//85 77//77 90//90
f 77//77 85//85 88//88
f 80//80 90//90 77//77
f 91//91 80//80 77//77
f 77//77 89//89 91//91
f 79//79 89//89 78//78
f 80//80 92//92 79//79
f 79//79 92//92 89//89
f 82//82 90//90 80//80
f 80//80 91//91 92//92
f 81//81 82//82 80//80
f 90//90 82//82 83//83
f 84//84 93//93 83//83
f 86//86 93//93 84//84
f 83//83 93//93 90//90
f 87//87 88//88 85//85
f 86//86 85//85 90//90
f 86//86 90//90 93//93
f 89//89 92//92 91//91
