# Blender 4.0.2
# www.blender.org
mtllib toe_3_dist_l.mtl
o toe_3_dist_l.002
v 0.007231 0.000576 0.000728
v 0.007519 0.000744 -0.000494
v 0.006124 0.000640 -0.000111
v 0.003416 0.000586 0.001084
v 0.001241 0.002109 0.000448
v 0.005335 -0.000570 0.001106
v 0.006658 0.000286 0.001150
v 0.005518 0.001077 -0.001088
v 0.004771 -0.000671 0.001242
v 0.007626 0.000460 -0.000914
v 0.007592 0.000723 -0.001596
v 0.004676 0.001320 -0.001355
v 0.001489 0.001507 -0.002850
v 0.000362 0.001907 0.000390
v 0.000651 0.001848 0.001845
v 0.001432 0.002035 0.002658
v 0.002677 0.000143 0.002053
v 0.003135 -0.000632 0.001712
v 0.005381 -0.001034 0.000700
v 0.005580 0.000151 -0.003152
v 0.007041 0.000454 -0.004068
v 0.002605 -0.001151 0.001571
v 0.003712 -0.001211 0.001017
v 0.000674 -0.002033 -0.000791
v 0.005154 -0.000909 -0.000927
v 0.007338 0.000071 -0.003721
v 0.003172 0.000728 -0.002699
v 0.000351 0.001361 -0.003492
v 0.000293 0.000277 -0.004512
v -0.000162 -0.001339 -0.002895
v 0.000227 -0.001404 0.001156
v 0.000041 -0.001572 0.000172
v 0.001716 0.000471 -0.003487
v 0.001122 0.001246 0.003887
v 0.001080 0.000095 0.004230
v 0.002083 -0.000730 0.002477
v 0.004135 -0.000117 -0.003164
v 0.006715 -0.000093 -0.004925
v 0.004459 -0.000821 -0.003626
v 0.006148 -0.000471 -0.005013
v 0.004992 -0.000994 -0.004345
v 0.000456 -0.001271 0.002575
v 0.002576 -0.001661 -0.002435
v -0.000015 -0.001771 -0.000723
v -0.000003 -0.001800 -0.002774
v 0.000839 -0.001882 -0.003406
v 0.004886 -0.001376 -0.003747
v 0.003134 -0.001488 -0.002801
v 0.004074 -0.001100 -0.003309
v 0.005612 -0.000936 -0.004778
v 0.002475 -0.000241 -0.003150
v 0.000058 -0.000526 -0.004289
v 0.000100 -0.000989 -0.004074
v -0.000135 -0.001648 -0.001232
v 0.000537 -0.000549 0.003576
v 0.000650 -0.000096 0.003927
v 0.003498 -0.000794 -0.003230
v 0.002622 -0.000992 -0.003019
vn 0.6941 0.2749 0.6653
vn 0.6884 0.6942 0.2103
vn 0.0207 0.9033 0.4286
vn 0.4692 0.5531 0.6884
vn 0.0607 0.9982 0.0031
vn 0.3428 0.0022 0.9394
vn 0.2732 0.0571 0.9603
vn 0.2094 0.9777 -0.0162
vn 0.3136 -0.3572 0.8798
vn 0.9225 -0.3738 0.0962
vn 0.7740 0.6241 -0.1064
vn 0.2512 0.9397 -0.2320
vn 0.1918 0.8627 -0.4679
vn -0.7393 0.6727 0.0303
vn -0.7570 0.6208 0.2039
vn 0.2085 0.8939 0.3968
vn 0.7364 0.1162 0.6665
vn 0.4677 -0.1771 0.8660
vn 0.1944 -0.9294 0.3136
vn -0.2778 0.8046 -0.5249
vn 0.3585 0.7998 -0.4815
vn 0.2579 -0.8436 0.4711
vn 0.3860 -0.9194 0.0757
vn -0.0678 -0.9930 0.0970
vn 0.3198 -0.9469 0.0345
vn 0.9312 -0.3040 -0.2013
vn 0.2211 0.5754 -0.7874
vn -0.5365 0.7117 -0.4535
vn -0.3059 0.1894 -0.9330
vn -0.9853 -0.1135 -0.1277
vn -0.8714 -0.4481 0.1996
vn -0.8467 -0.4896 0.2086
vn 0.4419 0.2481 -0.8621
vn -0.1217 0.5784 0.8066
vn 0.1350 -0.1626 0.9774
vn 0.5275 -0.5681 0.6316
vn -0.1167 0.4099 -0.9046
vn 0.3673 0.1179 -0.9226
vn -0.4962 0.1842 -0.8485
vn 0.0609 -0.0617 -0.9962
vn -0.6808 -0.0716 -0.7289
vn -0.4896 -0.7586 0.4300
vn 0.2025 -0.9349 -0.2915
vn -0.6763 -0.7243 0.1339
vn -0.6297 -0.7540 -0.1867
vn 0.1262 -0.7842 -0.6075
vn -0.1400 -0.9607 -0.2397
vn 0.0369 -0.8806 -0.4725
vn -0.2146 -0.8121 -0.5426
vn -0.0598 -0.6097 -0.7904
vn 0.2381 0.0395 -0.9704
vn -0.5789 -0.1408 -0.8031
vn -0.3653 -0.4664 -0.8056
vn -0.9847 -0.1643 0.0585
vn -0.6333 -0.5312 0.5629
vn -0.8171 -0.0611 0.5732
vn -0.1874 -0.0197 -0.9821
vn 0.0461 -0.4255 -0.9038
s 1
f 1//1 2//2 3//3
f 4//4 3//3 5//5
f 6//6 7//7 3//3
f 3//3 8//8 5//5
f 9//9 3//3 4//4
f 3//3 9//9 6//6
f 3//3 7//7 1//1
f 2//2 8//8 3//3
f 1//1 10//10 2//2
f 2//2 11//11 8//8
f 2//2 10//10 11//11
f 6//6 1//1 7//7
f 10//10 1//1 6//6
f 5//5 8//8 12//12
f 13//13 14//14 5//5
f 5//5 12//12 13//13
f 15//15 5//5 14//14
f 15//15 16//16 5//5
f 5//5 16//16 4//4
f 4//4 16//16 17//17
f 17//17 18//18 4//4
f 4//4 18//18 9//9
f 19//19 6//6 9//9
f 10//10 6//6 19//19
f 12//12 8//8 20//20
f 20//20 8//8 21//21
f 8//8 11//11 21//21
f 22//22 9//9 18//18
f 9//9 22//22 23//23
f 24//24 9//9 23//23
f 19//19 9//9 25//25
f 25//25 9//9 24//24
f 11//11 10//10 26//26
f 19//19 25//25 10//10
f 25//25 26//26 10//10
f 11//11 26//26 21//21
f 27//27 12//12 20//20
f 12//12 27//27 13//13
f 14//14 13//13 28//28
f 14//14 28//28 29//29
f 29//29 30//30 14//14
f 31//31 15//15 14//14
f 32//32 14//14 30//30
f 32//32 31//31 14//14
f 13//13 27//27 33//33
f 13//13 33//33 29//29
f 13//13 29//29 28//28
f 16//16 15//15 34//34
f 31//31 34//34 15//15
f 34//34 17//17 16//16
f 34//34 35//35 17//17
f 36//36 17//17 35//35
f 36//36 18//18 17//17
f 22//22 18//18 36//36
f 20//20 37//37 27//27
f 38//38 20//20 21//21
f 39//39 37//37 20//20
f 38//38 40//40 20//20
f 20//20 40//40 41//41
f 39//39 20//20 41//41
f 21//21 26//26 38//38
f 42//42 22//22 36//36
f 24//24 23//23 22//22
f 42//42 24//24 22//22
f 43//43 25//25 24//24
f 42//42 31//31 24//24
f 44//44 24//24 31//31
f 24//24 44//44 45//45
f 24//24 45//45 46//46
f 43//43 24//24 46//46
f 25//25 47//47 26//26
f 25//25 48//48 49//49
f 25//25 43//43 48//48
f 49//49 47//47 25//25
f 26//26 47//47 50//50
f 40//40 26//26 50//50
f 26//26 40//40 38//38
f 27//27 37//37 51//51
f 33//33 27//27 51//51
f 29//29 52//52 30//30
f 29//29 33//33 53//53
f 29//29 53//53 52//52
f 53//53 30//30 52//52
f 53//53 45//45 30//30
f 45//45 54//54 30//30
f 30//30 54//54 32//32
f 31//31 42//42 55//55
f 56//56 31//31 55//55
f 56//56 34//34 31//31
f 44//44 31//31 32//32
f 44//44 32//32 54//54
f 53//53 33//33 51//51
f 56//56 35//35 34//34
f 56//56 55//55 35//35
f 55//55 36//36 35//35
f 42//42 36//36 55//55
f 57//57 37//37 39//39
f 37//37 57//57 51//51
f 57//57 39//39 49//49
f 49//49 39//39 47//47
f 39//39 41//41 47//47
f 50//50 41//41 40//40
f 47//47 41//41 50//50
f 58//58 48//48 43//43
f 43//43 53//53 58//58
f 53//53 43//43 46//46
f 54//54 45//45 44//44
f 46//46 45//45 53//53
f 49//49 58//58 57//57
f 58//58 49//49 48//48
f 58//58 53//53 51//51
f 58//58 51//51 57//57
