# Blender 4.0.2
# www.blender.org
mtllib toe_4_prox_r.mtl
o toe_4_prox_r.002
v 0.001876 0.008147 0.001399
v 0.004369 0.005818 0.001179
v 0.002459 0.004805 -0.000607
v 0.002236 0.008948 0.003752
v -0.000242 0.010616 0.003167
v -0.000344 0.010910 0.000915
v 0.000369 0.009362 -0.001362
v 0.000140 0.010317 -0.000176
v 0.007613 0.005544 0.002583
v 0.011569 0.006241 0.005481
v 0.005888 0.002779 0.001107
v 0.002756 0.000858 -0.000714
v 0.000990 0.003721 -0.003610
v 0.002872 0.008052 0.005578
v 0.006716 0.006654 0.007575
v -0.000849 0.009385 0.005124
v -0.001050 0.011002 0.003154
v -0.000492 0.009969 -0.000368
v -0.002651 0.009756 0.005445
v -0.001581 0.002647 -0.004311
v -0.000262 0.008972 -0.001356
v 0.007650 0.002954 0.001999
v 0.014096 0.005455 0.009678
v 0.015552 0.004061 0.005980
v 0.018266 0.004747 0.009480
v 0.005593 0.002021 0.001220
v -0.000716 -0.000260 -0.001318
v 0.000717 -0.000300 0.002269
v 0.000619 0.000587 -0.003027
v 0.000921 0.001479 -0.003164
v 0.000548 0.001932 -0.003834
v 0.000767 0.008201 0.005544
v 0.002066 0.006666 0.005883
v 0.000955 0.000395 0.003673
v 0.006056 0.001429 0.006090
v 0.015594 -0.000066 0.011202
v 0.001569 0.004191 0.005237
v -0.003581 0.008173 0.006421
v -0.001896 0.006287 0.005799
v -0.004823 0.002615 0.005022
v 0.000182 0.001396 -0.003545
v -0.002308 0.000118 -0.002912
v -0.003493 0.000814 -0.002741
v 0.006314 0.001276 0.004724
v 0.017339 0.002517 0.006572
v 0.020172 0.001842 0.014237
v 0.017316 0.002595 0.013174
v 0.019886 0.003936 0.007190
v 0.024221 0.004246 0.008659
v 0.023447 0.003875 0.011233
v -0.003224 -0.001287 0.001424
v -0.000917 -0.000012 0.003029
v -0.001768 0.000483 0.003740
v -0.002309 -0.000622 0.002286
v 0.021243 -0.001889 0.010584
v 0.017938 -0.001524 0.011093
v 0.016894 -0.001050 0.011740
v 0.019991 -0.000365 0.009401
v -0.003190 0.001799 0.005104
v -0.004230 0.006440 0.006377
v -0.003733 0.005829 0.006371
v -0.005401 -0.000385 0.002571
v -0.004590 0.000006 0.003826
v -0.005136 -0.000870 0.001776
v 0.020301 0.001376 0.007144
v 0.019835 0.002644 0.007118
v 0.025047 0.002726 0.011561
v 0.023460 0.000370 0.015058
v 0.019853 0.000531 0.014156
v 0.020435 0.002861 0.006914
v 0.024897 -0.000193 0.007675
v 0.025529 0.003107 0.009153
v 0.021752 -0.001545 0.006466
v -0.003116 -0.000687 0.002423
v -0.004778 -0.000792 0.002807
v -0.002752 0.000180 0.004129
v 0.022563 -0.001682 0.011287
v 0.019083 -0.003550 0.010930
v 0.023388 -0.002303 0.008109
v 0.017285 -0.002337 0.011445
v 0.018253 -0.003646 0.011421
v 0.023864 -0.001263 0.014436
v 0.024805 0.000598 0.012446
v 0.025873 0.001169 0.009946
v 0.020302 -0.004258 0.012050
v 0.023443 -0.002330 0.013892
v 0.021584 -0.003871 0.012697
v 0.024434 -0.001576 0.007974
v 0.023599 -0.001911 0.007327
v 0.025522 -0.000198 0.009574
v 0.023647 -0.000823 0.012058
v 0.020993 -0.003943 0.011388
v 0.025190 -0.000278 0.010476
v 0.024684 -0.001490 0.009438
v 0.023113 -0.002845 0.012550
vn 0.7249 0.6033 -0.3325
vn 0.4549 0.4765 -0.7523
vn 0.7579 0.2357 -0.6083
vn 0.4985 0.8627 -0.0852
vn 0.4966 0.8294 0.2559
vn -0.0198 0.9718 -0.2352
vn 0.3154 0.6444 -0.6966
vn 0.3692 0.8195 -0.4382
vn 0.4363 0.4543 -0.7767
vn 0.3365 0.8496 -0.4062
vn 0.4665 -0.0193 -0.8843
vn 0.6458 -0.6091 -0.4604
vn 0.5600 0.1865 -0.8072
vn 0.0263 0.6907 0.7227
vn -0.1561 0.5355 0.8300
vn 0.2089 0.5642 0.7988
vn -0.2324 0.9649 0.1220
vn -0.6387 0.5278 -0.5598
vn -0.5111 0.7447 0.4292
vn -0.3938 0.0461 -0.9180
vn -0.6171 0.4613 -0.6375
vn 0.4912 -0.3442 -0.8001
vn -0.0827 0.7837 0.6156
vn 0.4199 0.4811 -0.7696
vn 0.1417 0.9837 0.1107
vn 0.5330 -0.6755 -0.5094
vn 0.1994 -0.9237 -0.3272
vn 0.2130 -0.9637 0.1608
vn 0.2685 -0.7110 -0.6499
vn 0.6768 -0.2893 -0.6769
vn 0.4538 -0.2909 -0.8423
vn -0.0253 0.1967 0.9801
vn -0.3068 0.0082 0.9518
vn -0.0350 -0.7204 0.6927
vn -0.3122 -0.7105 0.6306
vn -0.5950 -0.7350 0.3251
vn -0.1222 -0.2644 0.9566
vn -0.5885 0.4266 0.6868
vn 0.2153 -0.0590 0.9748
vn -0.8618 -0.0340 0.5060
vn 0.1541 -0.5264 -0.8361
vn -0.0106 -0.7270 -0.6865
vn -0.7937 -0.1013 -0.5998
vn 0.1712 -0.9753 -0.1394
vn 0.1570 -0.4699 -0.8686
vn -0.1064 0.4760 0.8730
vn -0.4182 0.3036 0.8561
vn 0.1343 0.6428 -0.7542
vn 0.4462 0.7950 -0.4109
vn 0.2551 0.8505 0.4601
vn 0.0031 -0.9991 0.0418
vn 0.1476 -0.7601 0.6328
vn 0.2166 -0.6691 0.7109
vn 0.1230 -0.8579 0.4988
vn -0.0492 -0.8654 -0.4986
vn -0.3725 -0.2629 -0.8900
vn -0.6942 -0.6144 0.3749
vn -0.5014 -0.7171 -0.4841
vn 0.0159 -0.4098 0.9120
vn -0.8527 0.1833 0.4891
vn -0.0092 -0.2206 0.9753
vn -0.9614 -0.2404 0.1341
vn -0.3583 -0.6174 0.7003
vn -0.7298 -0.6602 -0.1777
vn -0.4511 -0.3387 -0.8257
vn -0.0183 0.0119 -0.9998
vn 0.7108 0.5106 0.4839
vn 0.3401 0.1449 0.9292
vn -0.3537 -0.2049 0.9126
vn -0.0026 0.1455 -0.9894
vn 0.6924 -0.0561 -0.7193
vn 0.8422 0.4710 -0.2625
vn -0.2674 -0.5043 -0.8211
vn 0.1526 -0.8545 0.4965
vn -0.2574 -0.8453 0.4681
vn 0.2272 -0.6953 0.6819
vn 0.5455 -0.8203 -0.1720
vn -0.1525 -0.5191 -0.8410
vn 0.1588 -0.9815 -0.1072
vn -0.9253 -0.3128 -0.2146
vn -0.6545 -0.7560 -0.0113
vn 0.5983 -0.4391 0.6703
vn 0.9006 -0.2000 0.3860
vn 0.9984 -0.0406 0.0405
vn -0.1614 -0.9450 0.2847
vn 0.5426 -0.6081 0.5794
vn 0.1711 -0.8612 0.4786
vn 0.7212 -0.6007 -0.3449
vn 0.3962 -0.6242 -0.6733
vn 0.9305 -0.3661 -0.0101
vn 0.7637 -0.6447 -0.0330
vn 0.3191 -0.6947 -0.6446
vn 0.7731 -0.5252 0.3556
vn 0.6398 -0.7449 0.1892
vn 0.7511 -0.5927 -0.2907
s 1
usemtl Default_OBJ.137
f 1//1 2//2 3//3
f 4//4 1//1 5//5
f 1//1 6//6 5//5
f 3//3 7//7 1//1
f 1//1 4//4 2//2
f 8//8 6//6 1//1
f 8//8 1//1 7//7
f 9//9 2//2 10//10
f 4//4 10//10 2//2
f 2//2 11//11 12//12
f 2//2 12//12 3//3
f 11//11 2//2 9//9
f 3//3 13//13 7//7
f 13//13 3//3 12//12
f 14//14 15//15 4//4
f 4//4 15//15 10//10
f 4//4 5//5 14//14
f 14//14 5//5 16//16
f 16//16 5//5 17//17
f 6//6 17//17 5//5
f 6//6 8//8 18//18
f 19//19 17//17 6//6
f 18//18 19//19 6//6
f 20//20 21//21 7//7
f 13//13 20//20 7//7
f 8//8 7//7 21//21
f 8//8 21//21 18//18
f 22//22 9//9 10//10
f 9//9 22//22 11//11
f 15//15 23//23 10//10
f 24//24 10//10 25//25
f 25//25 10//10 23//23
f 10//10 24//24 22//22
f 11//11 22//22 26//26
f 26//26 12//12 11//11
f 27//27 12//12 28//28
f 12//12 26//26 28//28
f 29//29 12//12 27//27
f 30//30 12//12 29//29
f 13//13 12//12 30//30
f 31//31 13//13 30//30
f 31//31 20//20 13//13
f 14//14 16//16 32//32
f 15//15 14//14 33//33
f 14//14 32//32 33//33
f 34//34 35//35 15//15
f 15//15 35//35 36//36
f 36//36 23//23 15//15
f 37//37 15//15 33//33
f 15//15 37//37 34//34
f 38//38 39//39 16//16
f 39//39 32//32 16//16
f 17//17 19//19 16//16
f 38//38 16//16 19//19
f 19//19 18//18 21//21
f 21//21 40//40 19//19
f 38//38 19//19 40//40
f 41//41 20//20 31//31
f 29//29 27//27 20//20
f 27//27 42//42 20//20
f 43//43 20//20 42//42
f 29//29 20//20 41//41
f 21//21 20//20 40//40
f 20//20 43//43 40//40
f 22//22 44//44 26//26
f 22//22 45//45 36//36
f 22//22 36//36 44//44
f 45//45 22//22 24//24
f 23//23 46//46 25//25
f 47//47 46//46 23//23
f 36//36 47//47 23//23
f 48//48 24//24 25//25
f 45//45 24//24 48//48
f 48//48 25//25 49//49
f 25//25 50//50 49//49
f 50//50 25//25 46//46
f 26//26 44//44 28//28
f 28//28 51//51 27//27
f 27//27 51//51 42//42
f 52//52 28//28 53//53
f 34//34 28//28 44//44
f 54//54 28//28 52//52
f 34//34 53//53 28//28
f 28//28 54//54 51//51
f 30//30 29//29 41//41
f 31//31 30//30 41//41
f 39//39 37//37 32//32
f 33//33 32//32 37//37
f 53//53 34//34 37//37
f 35//35 34//34 44//44
f 35//35 44//44 36//36
f 36//36 55//55 56//56
f 57//57 36//36 56//56
f 36//36 57//57 47//47
f 45//45 58//58 36//36
f 58//58 55//55 36//36
f 37//37 39//39 59//59
f 37//37 59//59 53//53
f 60//60 61//61 38//38
f 39//39 38//38 61//61
f 60//60 38//38 40//40
f 39//39 61//61 59//59
f 40//40 43//43 62//62
f 60//60 40//40 59//59
f 40//40 63//63 59//59
f 62//62 63//63 40//40
f 51//51 64//64 42//42
f 43//43 42//42 64//64
f 62//62 43//43 64//64
f 65//65 58//58 45//45
f 65//65 45//45 66//66
f 45//45 48//48 66//66
f 67//67 50//50 46//46
f 68//68 67//67 46//46
f 69//69 68//68 46//46
f 47//47 69//69 46//46
f 69//69 47//47 57//57
f 70//70 66//66 48//48
f 70//70 48//48 49//49
f 71//71 49//49 72//72
f 73//73 49//49 71//71
f 73//73 70//70 49//49
f 67//67 72//72 49//49
f 50//50 67//67 49//49
f 74//74 75//75 51//51
f 51//51 75//75 64//64
f 74//74 51//51 54//54
f 74//74 54//54 52//52
f 74//74 52//52 53//53
f 76//76 53//53 59//59
f 76//76 74//74 53//53
f 77//77 78//78 55//55
f 58//58 73//73 55//55
f 78//78 56//56 55//55
f 77//77 55//55 79//79
f 55//55 73//73 79//79
f 56//56 78//78 57//57
f 80//80 57//57 78//78
f 81//81 69//69 57//57
f 57//57 80//80 81//81
f 65//65 73//73 58//58
f 76//76 59//59 63//63
f 61//61 60//60 59//59
f 75//75 62//62 64//64
f 75//75 63//63 62//62
f 63//63 74//74 76//76
f 63//63 75//75 74//74
f 65//65 66//66 70//70
f 73//73 65//65 70//70
f 68//68 82//82 67//67
f 82//82 83//83 67//67
f 84//84 72//72 67//67
f 67//67 83//83 84//84
f 69//69 82//82 68//68
f 85//85 69//69 81//81
f 86//86 82//82 69//69
f 87//87 86//86 69//69
f 85//85 87//87 69//69
f 71//71 88//88 89//89
f 84//84 71//71 72//72
f 71//71 89//89 73//73
f 71//71 84//84 90//90
f 88//88 71//71 90//90
f 79//79 73//73 89//89
f 77//77 91//91 92//92
f 77//77 92//92 78//78
f 91//91 77//77 93//93
f 93//93 77//77 94//94
f 77//77 79//79 94//94
f 80//80 78//78 81//81
f 85//85 81//81 78//78
f 85//85 78//78 92//92
f 94//94 79//79 88//88
f 89//89 88//88 79//79
f 82//82 91//91 83//83
f 82//82 86//86 91//91
f 93//93 83//83 91//91
f 93//93 84//84 83//83
f 90//90 84//84 93//93
f 92//92 87//87 85//85
f 87//87 95//95 86//86
f 91//91 86//86 95//95
f 95//95 87//87 92//92
f 88//88 90//90 94//94
f 90//90 93//93 94//94
f 95//95 92//92 91//91
